<?xml version="1.0" encoding="utf-8" ?>
<svg baseProfile="full" height="210mm" version="1.1" viewBox="0 0 297 210" width="297mm" xmlns="http://www.w3.org/2000/svg" xmlns:ev="http://www.w3.org/2001/xml-events" xmlns:xlink="http://www.w3.org/1999/xlink"><defs /><g transform="translate(43,30)"><path d="M 59,116 Q 68.0,24.0 5,4 Q 41.5,117.0 172,136 Q 188.0,102.5 150,123 Q 189.5,155.0 159,117" fill="none" stroke="black" stroke-width="2" /><path d="M 61,123 Q 80.0,19.5 5,10 Q -12.0,88.0 41,96 Q 59.0,43.5 35,33 Q 54.5,68.5 120,58" fill="none" stroke="black" stroke-width="2" /><path d="M 30,16 Q 53.0,63.0 146,40 Q 136.5,127.0 201,140 Q 144.5,73.5 26,69 Q 66.5,86.0 39,35" fill="none" stroke="black" stroke-width="2" /><path d="M 176,111 Q 165.0,38.0 62,57 Q -1.0,22.5 8,60 Q 104.5,105.0 101,50 Q 62.5,39.5 74,79" fill="none" stroke="black" stroke-width="2" /></g></svg>