<?xml version="1.0" encoding="utf-8" ?>
<svg baseProfile="full" height="210mm" version="1.1" viewBox="0 0 297 210" width="297mm" xmlns="http://www.w3.org/2000/svg" xmlns:ev="http://www.w3.org/2001/xml-events" xmlns:xlink="http://www.w3.org/1999/xlink"><defs /><g transform="translate(43,30)"><path d="M 153,47 Q 124.0,111.0 161,109 Q 133.5,153.5 172,132 Q 176.0,57.0 124,38 Q 116.5,-9.5 21,31" fill="none" stroke="black" stroke-width="2" /><path d="M 30,44 Q 5.5,64.5 29,133 Q 60.0,33.5 15,10 Q 51.5,81.5 148,93 Q 142.5,68.5 91,90" fill="none" stroke="black" stroke-width="2" /><path d="M 104,9 Q 39.5,5.5 37,64 Q -13.0,42.0 11,94 Q 105.0,75.5 151,9 Q 152.5,95.0 210,125" fill="none" stroke="black" stroke-width="2" /><path d="M 127,9 Q 59.0,36.0 57,129 Q 107.0,149.0 79,91 Q 127.5,107.5 132,80 Q 100.0,57.0 126,92" fill="none" stroke="black" stroke-width="2" /></g></svg>