<?xml version="1.0" encoding="utf-8" ?>
<svg baseProfile="full" height="210mm" version="1.1" viewBox="0 0 297 210" width="297mm" xmlns="http://www.w3.org/2000/svg" xmlns:ev="http://www.w3.org/2001/xml-events" xmlns:xlink="http://www.w3.org/1999/xlink"><defs /><g transform="translate(43,30)"><path d="M 92,64 Q 70.5,42.5 7,63 Q 142.5,90.5 196,36 Q 74.5,25.0 43,104 Q 3.0,67.5 37,105" fill="none" stroke="black" stroke-width="2" /><path d="M 145,119 Q 129.0,162.0 183,135 Q 142.0,106.5 169,146 Q 186.5,78.0 152,62 Q 206.5,101.5 177,57" fill="none" stroke="black" stroke-width="2" /><path d="M 150,13 Q 55.5,-5.5 3,18 Q 65.0,80.0 199,70 Q 86.0,48.0 29,82 Q 65.0,104.5 43,69" fill="none" stroke="black" stroke-width="2" /><path d="M 199,45 Q 180.0,87.0 207,83 Q 80.5,76.0 14,129 Q 97.0,140.5 98,70 Q 98.0,124.0 152,124" fill="none" stroke="black" stroke-width="2" /></g></svg>