<?xml version="1.0" encoding="utf-8" ?>
<svg baseProfile="full" height="210mm" version="1.1" viewBox="0 0 297 210" width="297mm" xmlns="http://www.w3.org/2000/svg" xmlns:ev="http://www.w3.org/2001/xml-events" xmlns:xlink="http://www.w3.org/1999/xlink"><defs /><g transform="translate(43,30)"><path d="M 66,15 Q 76.0,61.0 140,53 Q 115.5,12.5 27,36 Q 72.0,55.5 63,21 Q 39.0,-20.0 15,21" fill="none" stroke="black" stroke-width="2" /><path d="M 27,72 Q 31.0,120.0 121,82 Q 179.5,113.0 152,58 Q 122.5,98.0 165,66 Q 55.0,56.5 7,109" fill="none" stroke="black" stroke-width="2" /><path d="M 191,119 Q 124.5,81.0 6,95 Q 29.0,75.5 10,14 Q 16.5,73.5 85,71 Q 94.0,107.0 171,75" fill="none" stroke="black" stroke-width="2" /><path d="M 15,16 Q -15.5,102.5 54,89 Q 69.0,50.5 38,58 Q 144.5,91.0 163,36 Q 118.0,56.0 113,116" fill="none" stroke="black" stroke-width="2" /></g></svg>