<?xml version="1.0" encoding="utf-8" ?>
<svg baseProfile="full" height="210mm" version="1.1" viewBox="0 0 297 210" width="297mm" xmlns="http://www.w3.org/2000/svg" xmlns:ev="http://www.w3.org/2001/xml-events" xmlns:xlink="http://www.w3.org/1999/xlink"><defs /><g transform="translate(43,30)"><path d="M 208,97 Q 124.5,65.0 117,109 Q 111.0,69.5 31,104 Q 28.0,167.5 109,147 Q 142.0,60.0 105,43" fill="none" stroke="black" stroke-width="2" /><path d="M 7,11 Q -31.5,108.0 30,105 Q -0.5,92.0 27,137 Q 41.0,92.5 1,102 Q 39.0,96.5 1,91" fill="none" stroke="black" stroke-width="2" /><path d="M 182,109 Q 189.5,53.5 139,56 Q 60.0,52.0 29,96 Q 23.0,128.0 79,98 Q 174.5,104.0 172,12" fill="none" stroke="black" stroke-width="2" /><path d="M 44,85 Q 81.5,36.5 33,74 Q 158.0,102.0 203,50 Q 74.5,27.5 36,95 Q 63.0,21.5 4,34" fill="none" stroke="black" stroke-width="2" /></g></svg>