<?xml version="1.0" encoding="utf-8" ?>
<svg baseProfile="full" height="210mm" version="1.1" viewBox="0 0 297 210" width="297mm" xmlns="http://www.w3.org/2000/svg" xmlns:ev="http://www.w3.org/2001/xml-events" xmlns:xlink="http://www.w3.org/1999/xlink"><defs /><g transform="translate(43,30)"><path d="M 86,43 Q 97.5,1.5 65,4 Q 82.5,78.0 180,72 Q 93.5,52.0 75,100 Q 160.0,79.0 191,4" fill="none" stroke="black" stroke-width="2" /><path d="M 37,13 Q 14.0,27.5 33,84 Q 44.0,141.0 139,114 Q 181.5,55.5 136,85 Q 48.5,76.0 21,127" fill="none" stroke="black" stroke-width="2" /><path d="M 184,84 Q 68.5,55.0 31,104 Q 52.0,144.0 133,124 Q 162.5,88.5 132,113 Q 118.0,48.5 8,80" fill="none" stroke="black" stroke-width="2" /><path d="M 33,32 Q 67.0,-22.5 23,1 Q 85.5,27.0 194,7 Q 102.5,9.5 103,104 Q 139.5,34.0 86,54" fill="none" stroke="black" stroke-width="2" /></g></svg>