<?xml version="1.0" encoding="utf-8" ?>
<svg baseProfile="full" height="210mm" version="1.1" viewBox="0 0 297 210" width="297mm" xmlns="http://www.w3.org/2000/svg" xmlns:ev="http://www.w3.org/2001/xml-events" xmlns:xlink="http://www.w3.org/1999/xlink"><defs /><g transform="translate(43,30)"><path d="M 146,16 Q 47.5,-8.0 7,26 Q 5.0,111.5 71,129 Q 155.0,168.5 141,110 Q 119.5,176.0 194,146" fill="none" stroke="black" stroke-width="2" /><path d="M 193,8 Q 72.0,26.0 17,110 Q 110.5,130.0 144,90 Q 175.0,18.5 116,37 Q 12.5,18.0 7,97" fill="none" stroke="black" stroke-width="2" /><path d="M 4,112 Q 81.0,145.5 78,99 Q 12.5,76.0 19,125 Q 91.0,104.5 83,4 Q 78.0,54.5 119,59" fill="none" stroke="black" stroke-width="2" /><path d="M 133,96 Q 42.0,56.5 39,105 Q 47.0,81.5 9,104 Q 56.0,101.0 47,42 Q 11.5,51.5 34,119" fill="none" stroke="black" stroke-width="2" /></g></svg>