<?xml version="1.0" encoding="utf-8" ?>
<svg baseProfile="full" height="210mm" version="1.1" viewBox="0 0 297 210" width="297mm" xmlns="http://www.w3.org/2000/svg" xmlns:ev="http://www.w3.org/2001/xml-events" xmlns:xlink="http://www.w3.org/1999/xlink"><defs /><g transform="translate(43,30)"><path d="M 27,119 Q 71.0,128.0 31,53 Q 6.5,92.5 50,64 Q 123.5,71.5 141,23 Q 92.0,39.5 119,132" fill="none" stroke="black" stroke-width="2" /><path d="M 128,108 Q 119.0,57.5 66,51 Q 21.0,121.0 70,97 Q 152.5,94.0 175,31 Q 173.0,-12.5 89,26" fill="none" stroke="black" stroke-width="2" /><path d="M 129,35 Q 87.5,38.5 104,100 Q 126.0,30.0 102,6 Q 94.5,53.5 165,23 Q 93.0,0.0 81,37" fill="none" stroke="black" stroke-width="2" /><path d="M 113,4 Q 44.0,-4.5 67,79 Q 128.0,111.5 89,44 Q 85.0,110.5 125,133 Q 94.5,110.0 122,145" fill="none" stroke="black" stroke-width="2" /></g></svg>