<?xml version="1.0" encoding="utf-8" ?>
<svg baseProfile="full" height="210mm" version="1.1" viewBox="0 0 297 210" width="297mm" xmlns="http://www.w3.org/2000/svg" xmlns:ev="http://www.w3.org/2001/xml-events" xmlns:xlink="http://www.w3.org/1999/xlink"><defs /><g transform="translate(43,30)"><path d="M 161,59 Q 138.0,-4.5 25,22 Q 43.5,75.0 154,36 Q 117.0,6.5 28,29 Q 153.5,62.5 199,16" fill="none" stroke="black" stroke-width="2" /><path d="M 9,78 Q 84.5,86.0 104,38 Q 38.5,37.5 47,111 Q 142.0,110.0 137,9 Q 45.0,26.5 27,118" fill="none" stroke="black" stroke-width="2" /><path d="M 144,136 Q 200.0,123.5 194,49 Q 78.5,33.5 3,58 Q 20.0,101.5 91,91 Q 150.0,112.5 129,54" fill="none" stroke="black" stroke-width="2" /><path d="M 9,36 Q 72.5,114.0 206,122 Q 232.5,45.5 181,47 Q 83.0,17.5 75,78 Q 135.5,100.0 134,60" fill="none" stroke="black" stroke-width="2" /></g></svg>