<?xml version="1.0" encoding="utf-8" ?>
<svg baseProfile="full" height="210mm" version="1.1" viewBox="0 0 297 210" width="297mm" xmlns="http://www.w3.org/2000/svg" xmlns:ev="http://www.w3.org/2001/xml-events" xmlns:xlink="http://www.w3.org/1999/xlink"><defs /><g transform="translate(43,30)"><path d="M 193,89 Q 159.5,0.0 28,9 Q -24.5,1.5 21,92 Q 54.5,158.0 180,132 Q 129.5,31.5 3,7" fill="none" stroke="black" stroke-width="2" /><path d="M 124,112 Q 175.5,94.5 169,19 Q 88.5,6.0 70,55 Q 97.0,8.5 38,48 Q 84.0,94.5 180,91" fill="none" stroke="black" stroke-width="2" /><path d="M 29,125 Q 133.0,117.5 197,70 Q 147.5,43.0 156,74 Q 200.0,76.5 168,3 Q 143.0,2.0 160,43" fill="none" stroke="black" stroke-width="2" /><path d="M 178,85 Q 110.0,61.5 0,80 Q 43.0,153.0 166,146 Q 203.0,160.5 182,117 Q 205.0,95.0 182,73" fill="none" stroke="black" stroke-width="2" /></g></svg>