<?xml version="1.0" encoding="utf-8" ?>
<svg baseProfile="full" height="210mm" version="1.1" viewBox="0 0 297 210" width="297mm" xmlns="http://www.w3.org/2000/svg" xmlns:ev="http://www.w3.org/2001/xml-events" xmlns:xlink="http://www.w3.org/1999/xlink"><defs /><g transform="translate(43,30)"><path d="M 41,94 Q 71.5,133.5 168,107 Q 210.5,88.5 197,14 Q 87.0,44.5 39,137 Q 76.0,100.5 57,8" fill="none" stroke="black" stroke-width="2" /><path d="M 33,27 Q 23.5,133.0 114,139 Q 131.0,51.0 96,15 Q 98.0,72.5 152,78 Q 129.0,154.0 198,138" fill="none" stroke="black" stroke-width="2" /><path d="M 146,118 Q 141.5,29.5 49,29 Q 100.5,93.0 198,111 Q 152.0,88.0 164,123 Q 178.0,39.5 142,6" fill="none" stroke="black" stroke-width="2" /><path d="M 73,22 Q 61.5,108.5 100,145 Q 89.0,63.0 6,53 Q 52.0,98.0 180,61 Q 147.5,97.0 181,67" fill="none" stroke="black" stroke-width="2" /></g></svg>