<?xml version="1.0" encoding="utf-8" ?>
<svg baseProfile="full" height="210mm" version="1.1" viewBox="0 0 297 210" width="297mm" xmlns="http://www.w3.org/2000/svg" xmlns:ev="http://www.w3.org/2001/xml-events" xmlns:xlink="http://www.w3.org/1999/xlink"><defs /><g transform="translate(43,30)"><path d="M 52,3 Q -1.5,24.0 41,141 Q 101.0,136.5 99,70 Q 3.0,44.0 1,112 Q 85.5,135.5 84,73" fill="none" stroke="black" stroke-width="2" /><path d="M 12,96 Q 126.0,107.0 198,76 Q 197.5,26.5 117,57 Q 161.5,77.5 164,56 Q 205.5,-4.5 155,27" fill="none" stroke="black" stroke-width="2" /><path d="M 135,129 Q 113.5,172.0 170,137 Q 150.0,34.0 30,31 Q 140.5,41.5 201,2 Q 75.0,-28.0 15,8" fill="none" stroke="black" stroke-width="2" /><path d="M 24,121 Q 145.5,150.0 193,105 Q 145.0,64.5 19,102 Q 78.0,92.0 65,10 Q 7.0,-12.5 25,41" fill="none" stroke="black" stroke-width="2" /></g></svg>