<?xml version="1.0" encoding="utf-8" ?>
<svg baseProfile="full" height="210mm" version="1.1" viewBox="0 0 297 210" width="297mm" xmlns="http://www.w3.org/2000/svg" xmlns:ev="http://www.w3.org/2001/xml-events" xmlns:xlink="http://www.w3.org/1999/xlink"><defs /><g transform="translate(43,30)"><path d="M 92,59 Q 105.5,-11.0 37,1 Q 95.0,75.0 195,107 Q 215.0,58.0 161,83 Q 82.5,53.5 84,104" fill="none" stroke="black" stroke-width="2" /><path d="M 61,90 Q 68.0,165.0 171,144 Q 156.0,94.0 53,132 Q 77.5,32.0 16,18 Q 60.0,73.5 190,43" fill="none" stroke="black" stroke-width="2" /><path d="M 99,33 Q 96.0,119.0 189,109 Q 143.5,24.5 26,12 Q -6.0,89.0 36,92 Q 78.0,134.0 196,100" fill="none" stroke="black" stroke-width="2" /><path d="M 186,0 Q 145.5,104.5 195,119 Q 226.5,129.5 200,82 Q 174.5,48.0 97,66 Q 72.5,17.0 2,14" fill="none" stroke="black" stroke-width="2" /></g></svg>