<?xml version="1.0" encoding="utf-8" ?>
<svg baseProfile="full" height="210mm" version="1.1" viewBox="0 0 297 210" width="297mm" xmlns="http://www.w3.org/2000/svg" xmlns:ev="http://www.w3.org/2001/xml-events" xmlns:xlink="http://www.w3.org/1999/xlink"><defs /><g transform="translate(43,30)"><path d="M 25,87 Q 61.0,97.5 27,38 Q 29.0,92.0 119,58 Q 135.0,8.0 63,46 Q 49.5,82.5 90,65" fill="none" stroke="black" stroke-width="2" /><path d="M 76,42 Q 75.5,87.0 125,82 Q 79.5,71.5 116,143 Q 161.0,118.0 122,9 Q 70.0,-18.0 78,15" fill="none" stroke="black" stroke-width="2" /><path d="M 21,56 Q 46.0,90.0 117,78 Q 83.0,64.0 109,110 Q 24.0,74.5 29,129 Q 146.5,136.0 174,53" fill="none" stroke="black" stroke-width="2" /><path d="M 118,136 Q 151.0,28.5 88,17 Q 13.5,-3.0 13,51 Q 97.5,89.0 104,49 Q 109.0,101.0 162,105" fill="none" stroke="black" stroke-width="2" /></g></svg>