<?xml version="1.0" encoding="utf-8" ?>
<svg baseProfile="full" height="210mm" version="1.1" viewBox="0 0 297 210" width="297mm" xmlns="http://www.w3.org/2000/svg" xmlns:ev="http://www.w3.org/2001/xml-events" xmlns:xlink="http://www.w3.org/1999/xlink"><defs /><g transform="translate(43,30)"><path d="M 64,56 Q 133.5,52.5 163,9 Q 50.0,10.0 23,97 Q 89.5,119.5 68,54 Q 80.0,98.5 158,77" fill="none" stroke="black" stroke-width="2" /><path d="M 203,106 Q 242.5,44.5 186,79 Q 164.0,25.0 100,13 Q 99.0,72.5 144,86 Q 104.0,76.0 114,116" fill="none" stroke="black" stroke-width="2" /><path d="M 132,81 Q 110.0,150.5 184,124 Q 174.5,28.0 75,22 Q 72.0,91.5 149,81 Q 159.5,25.0 106,33" fill="none" stroke="black" stroke-width="2" /><path d="M 174,99 Q 124.5,22.0 19,1 Q -6.5,-9.5 18,30 Q 3.0,93.0 66,78 Q 73.0,115.0 144,88" fill="none" stroke="black" stroke-width="2" /></g></svg>