<?xml version="1.0" encoding="utf-8" ?>
<svg baseProfile="full" height="210mm" version="1.1" viewBox="0 0 297 210" width="297mm" xmlns="http://www.w3.org/2000/svg" xmlns:ev="http://www.w3.org/2001/xml-events" xmlns:xlink="http://www.w3.org/1999/xlink"><defs /><g transform="translate(43,30)"><path d="M 72,91 Q 109.0,112.5 88,76 Q 77.0,143.0 146,130 Q 107.0,85.5 0,109 Q 65.0,100.5 90,52" fill="none" stroke="black" stroke-width="2" /><path d="M 157,8 Q 40.5,9.0 16,102 Q 111.0,99.5 114,5 Q 89.5,117.0 149,145 Q 206.0,148.0 193,81" fill="none" stroke="black" stroke-width="2" /><path d="M 53,129 Q 84.0,78.5 53,28 Q 50.0,126.5 143,129 Q 124.0,62.0 13,87 Q 148.0,126.5 191,74" fill="none" stroke="black" stroke-width="2" /><path d="M 126,89 Q 77.5,81.5 77,122 Q 33.5,86.5 62,123 Q 98.5,30.0 61,11 Q 82.0,109.5 191,120" fill="none" stroke="black" stroke-width="2" /></g></svg>