<?xml version="1.0" encoding="utf-8" ?>
<svg baseProfile="full" height="210mm" version="1.1" viewBox="0 0 297 210" width="297mm" xmlns="http://www.w3.org/2000/svg" xmlns:ev="http://www.w3.org/2001/xml-events" xmlns:xlink="http://www.w3.org/1999/xlink"><defs /><g transform="translate(43,30)"><path d="M 55,75 Q 154.5,97.0 198,63 Q 180.0,14.0 98,29 Q 40.5,4.5 71,68 Q 110.0,88.0 91,50" fill="none" stroke="black" stroke-width="2" /><path d="M 183,96 Q 93.0,88.5 65,143 Q 103.5,38.0 60,15 Q 7.5,-5.5 39,58 Q 116.0,66.0 135,16" fill="none" stroke="black" stroke-width="2" /><path d="M 109,28 Q 37.5,45.5 26,123 Q 114.0,148.5 122,94 Q 168.0,104.5 166,67 Q 199.5,27.0 155,65" fill="none" stroke="black" stroke-width="2" /><path d="M 149,68 Q 53.5,38.5 52,103 Q 100.5,103.0 67,21 Q 109.5,90.5 194,118 Q 62.0,79.0 16,126" fill="none" stroke="black" stroke-width="2" /></g></svg>