<?xml version="1.0" encoding="utf-8" ?>
<svg baseProfile="full" height="210mm" version="1.1" viewBox="0 0 297 210" width="297mm" xmlns="http://www.w3.org/2000/svg" xmlns:ev="http://www.w3.org/2001/xml-events" xmlns:xlink="http://www.w3.org/1999/xlink"><defs /><g transform="translate(43,30)"><path d="M 210,140 Q 214.0,87.0 120,132 Q 111.0,165.5 166,135 Q 152.0,93.0 78,111 Q 10.5,91.0 17,145" fill="none" stroke="black" stroke-width="2" /><path d="M 33,113 Q 83.5,89.0 78,9 Q 77.5,127.5 175,148 Q 173.0,70.0 81,82 Q 171.5,68.5 210,3" fill="none" stroke="black" stroke-width="2" /><path d="M 30,104 Q 148.5,127.0 187,70 Q 217.5,-12.5 150,3 Q 58.5,-40.5 59,8 Q 5.5,-11.5 38,55" fill="none" stroke="black" stroke-width="2" /><path d="M 18,21 Q -12.5,87.0 23,87 Q 64.5,147.5 176,138 Q 234.5,130.0 205,34 Q 139.0,11.5 157,73" fill="none" stroke="black" stroke-width="2" /></g></svg>