<?xml version="1.0" encoding="utf-8" ?>
<svg baseProfile="full" height="210mm" version="1.1" viewBox="0 0 297 210" width="297mm" xmlns="http://www.w3.org/2000/svg" xmlns:ev="http://www.w3.org/2001/xml-events" xmlns:xlink="http://www.w3.org/1999/xlink"><defs /><g transform="translate(43,30)"><path d="M 171,75 Q 76.5,46.5 60,96 Q 30.0,98.0 48,148 Q 118.0,167.5 140,139 Q 139.0,55.5 56,54" fill="none" stroke="black" stroke-width="2" /><path d="M 168,88 Q 144.5,32.5 39,59 Q 123.0,72.5 147,26 Q 102.0,-3.0 11,14 Q 60.0,97.0 185,104" fill="none" stroke="black" stroke-width="2" /><path d="M 103,58 Q 45.5,32.0 74,92 Q 22.0,80.0 50,148 Q 83.5,161.5 73,131 Q 76.5,38.5 8,18" fill="none" stroke="black" stroke-width="2" /><path d="M 180,131 Q 191.5,61.5 105,90 Q 66.0,140.0 125,92 Q 86.5,140.5 140,97 Q 50.0,98.5 2,142" fill="none" stroke="black" stroke-width="2" /></g></svg>