<?xml version="1.0" encoding="utf-8" ?>
<svg baseProfile="full" height="210mm" version="1.1" viewBox="0 0 297 210" width="297mm" xmlns="http://www.w3.org/2000/svg" xmlns:ev="http://www.w3.org/2001/xml-events" xmlns:xlink="http://www.w3.org/1999/xlink"><defs /><g transform="translate(43,30)"><path d="M 156,65 Q 209.0,94.5 174,36 Q 144.0,-4.5 68,1 Q 83.5,56.5 183,28 Q 81.5,5.5 46,49" fill="none" stroke="black" stroke-width="2" /><path d="M 45,130 Q 95.0,146.5 75,93 Q 124.0,100.5 117,52 Q 57.0,18.5 91,79 Q 73.5,113.5 114,90" fill="none" stroke="black" stroke-width="2" /><path d="M 109,51 Q 86.5,129.0 140,131 Q 205.5,123.0 171,15 Q 46.0,-11.0 21,63 Q 59.5,-12.0 2,9" fill="none" stroke="black" stroke-width="2" /><path d="M 99,104 Q 5.0,63.5 5,117 Q 103.5,106.0 128,21 Q 41.5,-1.5 25,46 Q 18.0,116.5 53,145" fill="none" stroke="black" stroke-width="2" /></g></svg>