<?xml version="1.0" encoding="utf-8" ?>
<svg baseProfile="full" height="210mm" version="1.1" viewBox="0 0 297 210" width="297mm" xmlns="http://www.w3.org/2000/svg" xmlns:ev="http://www.w3.org/2001/xml-events" xmlns:xlink="http://www.w3.org/1999/xlink"><defs /><g transform="translate(43,30)"><path d="M 176,28 Q 128.0,46.5 158,143 Q 194.0,54.0 146,49 Q 75.0,24.0 64,59 Q 107.0,-8.5 52,22" fill="none" stroke="black" stroke-width="2" /><path d="M 129,80 Q 112.0,38.0 51,40 Q 61.0,133.5 167,131 Q 194.5,114.5 172,48 Q 153.0,4.0 78,16" fill="none" stroke="black" stroke-width="2" /><path d="M 49,101 Q 50.5,151.0 106,147 Q 132.5,53.0 101,17 Q 108.0,73.5 209,36 Q 127.0,31.0 113,94" fill="none" stroke="black" stroke-width="2" /><path d="M 164,21 Q 114.5,54.0 123,145 Q 168.0,166.5 137,112 Q 162.0,79.0 143,2 Q 54.5,13.0 32,90" fill="none" stroke="black" stroke-width="2" /></g></svg>