<?xml version="1.0" encoding="utf-8" ?>
<svg baseProfile="full" height="210mm" version="1.1" viewBox="0 0 297 210" width="297mm" xmlns="http://www.w3.org/2000/svg" xmlns:ev="http://www.w3.org/2001/xml-events" xmlns:xlink="http://www.w3.org/1999/xlink"><defs /><g transform="translate(43,30)"><path d="M 90,146 Q 110.5,72.0 51,78 Q 69.0,134.5 163,115 Q 141.5,69.0 52,91 Q 70.5,22.5 23,20" fill="none" stroke="black" stroke-width="2" /><path d="M 74,141 Q 178.5,177.5 183,114 Q 72.0,73.0 61,132 Q 108.5,139.0 68,58 Q 114.5,64.5 93,3" fill="none" stroke="black" stroke-width="2" /><path d="M 182,85 Q 122.0,35.5 12,36 Q 152.5,78.0 197,24 Q 156.5,89.0 210,60 Q 194.5,10.5 85,55" fill="none" stroke="black" stroke-width="2" /><path d="M 103,60 Q 78.0,114.5 119,103 Q 111.5,31.0 28,35 Q -13.0,7.5 6,40 Q 18.0,88.0 30,40" fill="none" stroke="black" stroke-width="2" /></g></svg>