<?xml version="1.0" encoding="utf-8" ?>
<svg baseProfile="full" height="210mm" version="1.1" viewBox="0 0 297 210" width="297mm" xmlns="http://www.w3.org/2000/svg" xmlns:ev="http://www.w3.org/2001/xml-events" xmlns:xlink="http://www.w3.org/1999/xlink"><defs /><g transform="translate(43,30)"><path d="M 68,118 Q 22.5,92.0 53,142 Q 143.0,167.0 169,128 Q 131.0,45.0 29,26 Q 76.0,60.0 177,40" fill="none" stroke="black" stroke-width="2" /><path d="M 178,32 Q 65.0,-9.0 38,36 Q 52.0,-2.5 20,5 Q 127.5,53.5 135,2 Q 36.0,-20.0 17,38" fill="none" stroke="black" stroke-width="2" /><path d="M 91,102 Q 159.5,116.0 164,66 Q 129.5,38.0 47,58 Q 3.0,145.5 57,135 Q 31.0,188.5 105,142" fill="none" stroke="black" stroke-width="2" /><path d="M 101,21 Q 12.5,5.0 8,73 Q 5.0,141.5 84,128 Q 85.5,37.5 7,27 Q 24.5,104.0 110,113" fill="none" stroke="black" stroke-width="2" /></g></svg>