<?xml version="1.0" encoding="utf-8" ?>
<svg baseProfile="full" height="210mm" version="1.1" viewBox="0 0 297 210" width="297mm" xmlns="http://www.w3.org/2000/svg" xmlns:ev="http://www.w3.org/2001/xml-events" xmlns:xlink="http://www.w3.org/1999/xlink"><defs /><g transform="translate(43,30)"><path d="M 206,40 Q 166.5,39.5 173,85 Q 189.5,25.0 160,11 Q 177.0,-38.0 104,3 Q 63.0,30.5 74,110" fill="none" stroke="black" stroke-width="2" /><path d="M 15,113 Q 76.0,100.0 73,23 Q 75.0,-1.5 33,18 Q 15.0,116.0 81,130 Q 111.5,52.0 60,56" fill="none" stroke="black" stroke-width="2" /><path d="M 112,99 Q 107.5,32.5 41,28 Q 18.5,52.5 44,29 Q 56.5,84.5 143,66 Q 151.0,15.0 69,54" fill="none" stroke="black" stroke-width="2" /><path d="M 91,11 Q 39.0,-5.5 53,44 Q 55.0,95.5 103,101 Q 147.0,4.0 93,5 Q 91.5,77.0 168,71" fill="none" stroke="black" stroke-width="2" /></g></svg>