<?xml version="1.0" encoding="utf-8" ?>
<svg baseProfile="full" height="210mm" version="1.1" viewBox="0 0 297 210" width="297mm" xmlns="http://www.w3.org/2000/svg" xmlns:ev="http://www.w3.org/2001/xml-events" xmlns:xlink="http://www.w3.org/1999/xlink"><defs /><g transform="translate(43,30)"><path d="M 65,121 Q 105.0,140.5 75,90 Q 37.0,96.0 43,146 Q 131.5,149.0 122,54 Q 86.0,124.5 142,103" fill="none" stroke="black" stroke-width="2" /><path d="M 64,143 Q 156.5,110.0 191,19 Q 107.0,30.5 73,92 Q 45.5,154.0 86,148 Q 76.0,97.5 18,95" fill="none" stroke="black" stroke-width="2" /><path d="M 138,33 Q 122.0,69.5 164,48 Q 125.0,18.5 158,61 Q 125.0,80.5 134,142 Q 170.0,107.5 152,19" fill="none" stroke="black" stroke-width="2" /><path d="M 76,83 Q 70.0,138.0 120,137 Q 109.5,30.0 13,9 Q -14.5,68.0 34,51 Q 7.0,43.5 24,80" fill="none" stroke="black" stroke-width="2" /></g></svg>