<?xml version="1.0" encoding="utf-8" ?>
<svg baseProfile="full" height="210mm" version="1.1" viewBox="0 0 297 210" width="297mm" xmlns="http://www.w3.org/2000/svg" xmlns:ev="http://www.w3.org/2001/xml-events" xmlns:xlink="http://www.w3.org/1999/xlink"><defs /><g transform="translate(43,30)"><path d="M 0,25 Q 7.0,108.0 98,107 Q 55.5,161.5 105,124 Q 158.5,158.5 116,97 Q 179.5,110.0 173,53" fill="none" stroke="black" stroke-width="2" /><path d="M 159,29 Q 108.0,11.5 149,86 Q 166.0,50.5 143,55 Q 212.0,75.0 209,23 Q 118.5,43.0 110,145" fill="none" stroke="black" stroke-width="2" /><path d="M 194,10 Q 149.0,20.5 180,107 Q 211.0,51.0 142,95 Q 130.5,45.0 77,37 Q 15.5,55.5 4,124" fill="none" stroke="black" stroke-width="2" /><path d="M 176,29 Q 83.0,2.5 78,64 Q 72.5,34.0 27,44 Q 130.0,50.5 191,15 Q 70.0,-7.5 33,54" fill="none" stroke="black" stroke-width="2" /></g></svg>