<?xml version="1.0" encoding="utf-8" ?>
<svg baseProfile="full" height="210mm" version="1.1" viewBox="0 0 297 210" width="297mm" xmlns="http://www.w3.org/2000/svg" xmlns:ev="http://www.w3.org/2001/xml-events" xmlns:xlink="http://www.w3.org/1999/xlink"><defs /><g transform="translate(43,30)"><path d="M 179,123 Q 153.5,52.0 86,23 Q 26.0,5.0 24,45 Q 30.5,109.5 77,134 Q 169.5,167.5 164,103" fill="none" stroke="black" stroke-width="2" /><path d="M 41,63 Q 127.0,97.0 127,45 Q 28.5,32.5 22,112 Q 145.0,114.0 210,58 Q 223.0,-1.0 152,24" fill="none" stroke="black" stroke-width="2" /><path d="M 125,129 Q 160.5,27.5 100,22 Q 15.5,-12.0 29,52 Q -35.5,28.5 0,105 Q 26.5,162.0 127,145" fill="none" stroke="black" stroke-width="2" /><path d="M 23,101 Q 98.0,108.0 113,55 Q 124.0,-9.5 59,2 Q 40.5,103.0 90,136 Q 151.0,144.5 148,89" fill="none" stroke="black" stroke-width="2" /></g></svg>