<?xml version="1.0" encoding="utf-8" ?>
<svg baseProfile="full" height="210mm" version="1.1" viewBox="0 0 297 210" width="297mm" xmlns="http://www.w3.org/2000/svg" xmlns:ev="http://www.w3.org/2001/xml-events" xmlns:xlink="http://www.w3.org/1999/xlink"><defs /><g transform="translate(43,30)"><path d="M 126,66 Q 86.5,59.5 123,129 Q 90.0,176.5 139,142 Q 133.0,67.0 83,36 Q 17.5,59.5 14,145" fill="none" stroke="black" stroke-width="2" /><path d="M 183,81 Q 125.0,47.5 11,70 Q 17.5,125.0 116,88 Q 134.5,7.0 55,24 Q 53.0,96.5 125,95" fill="none" stroke="black" stroke-width="2" /><path d="M 26,63 Q 139.0,91.0 160,27 Q 125.0,52.0 148,135 Q 150.0,84.5 84,102 Q 185.5,128.0 187,54" fill="none" stroke="black" stroke-width="2" /><path d="M 9,46 Q 109.0,51.0 159,6 Q 127.0,70.5 187,43 Q 63.5,28.5 26,100 Q 62.0,59.5 24,93" fill="none" stroke="black" stroke-width="2" /></g></svg>