<?xml version="1.0" encoding="utf-8" ?>
<svg baseProfile="full" height="210mm" version="1.1" viewBox="0 0 297 210" width="297mm" xmlns="http://www.w3.org/2000/svg" xmlns:ev="http://www.w3.org/2001/xml-events" xmlns:xlink="http://www.w3.org/1999/xlink"><defs /><g transform="translate(43,30)"><path d="M 104,8 Q 32.5,-14.0 41,44 Q -7.0,37.0 19,104 Q 69.5,153.0 186,136 Q 178.0,85.5 116,89" fill="none" stroke="black" stroke-width="2" /><path d="M 202,131 Q 214.5,92.0 179,101 Q 184.0,41.5 141,30 Q 106.5,127.0 162,134 Q 227.5,123.5 197,17" fill="none" stroke="black" stroke-width="2" /><path d="M 170,21 Q 148.5,75.0 193,63 Q 153.0,81.5 157,144 Q 132.0,35.0 11,22 Q 18.0,103.5 117,93" fill="none" stroke="black" stroke-width="2" /><path d="M 115,116 Q 184.0,99.5 205,35 Q 186.5,5.5 110,34 Q 98.0,-0.5 28,23 Q 81.5,84.5 187,94" fill="none" stroke="black" stroke-width="2" /></g></svg>