<?xml version="1.0" encoding="utf-8" ?>
<svg baseProfile="full" height="210mm" version="1.1" viewBox="0 0 297 210" width="297mm" xmlns="http://www.w3.org/2000/svg" xmlns:ev="http://www.w3.org/2001/xml-events" xmlns:xlink="http://www.w3.org/1999/xlink"><defs /><g transform="translate(43,30)"><path d="M 58,137 Q 75.5,91.0 27,111 Q 101.0,107.0 77,5 Q 29.5,68.0 78,35 Q 113.5,-7.5 69,30" fill="none" stroke="black" stroke-width="2" /><path d="M 116,105 Q 203.0,126.5 202,60 Q 224.5,17.5 191,31 Q 81.5,1.0 58,57 Q 89.5,136.5 207,130" fill="none" stroke="black" stroke-width="2" /><path d="M 16,25 Q 70.0,65.0 190,39 Q 85.0,43.0 80,147 Q 184.5,145.0 199,53 Q 219.0,3.0 177,15" fill="none" stroke="black" stroke-width="2" /><path d="M 133,1 Q 66.0,-44.5 97,8 Q 84.5,52.0 118,50 Q 91.0,88.5 124,67 Q 75.5,41.5 91,80" fill="none" stroke="black" stroke-width="2" /></g></svg>