<?xml version="1.0" encoding="utf-8" ?>
<svg baseProfile="full" height="210mm" version="1.1" viewBox="0 0 297 210" width="297mm" xmlns="http://www.w3.org/2000/svg" xmlns:ev="http://www.w3.org/2001/xml-events" xmlns:xlink="http://www.w3.org/1999/xlink"><defs /><g transform="translate(43,30)"><path d="M 184,49 Q 129.5,36.5 167,116 Q 155.5,82.0 96,96 Q 125.0,91.5 98,31 Q 28.5,20.0 15,65" fill="none" stroke="black" stroke-width="2" /><path d="M 14,109 Q 111.5,106.0 127,21 Q 37.5,24.0 8,87 Q 52.0,30.0 6,63 Q 1.0,119.0 74,97" fill="none" stroke="black" stroke-width="2" /><path d="M 179,95 Q 115.5,79.0 110,121 Q 101.0,162.5 156,140 Q 199.5,91.5 155,131 Q 138.5,64.5 78,42" fill="none" stroke="black" stroke-width="2" /><path d="M 110,64 Q 79.0,113.5 132,79 Q 39.0,83.0 2,143 Q 75.5,142.5 55,48 Q 5.5,35.0 50,116" fill="none" stroke="black" stroke-width="2" /></g></svg>