<?xml version="1.0" encoding="utf-8" ?>
<svg baseProfile="full" height="210mm" version="1.1" viewBox="0 0 297 210" width="297mm" xmlns="http://www.w3.org/2000/svg" xmlns:ev="http://www.w3.org/2001/xml-events" xmlns:xlink="http://www.w3.org/1999/xlink"><defs /><g transform="translate(43,30)"><path d="M 71,97 Q 52.5,155.0 116,131 Q 107.5,55.5 55,24 Q 89.5,113.0 202,124 Q 166.5,43.0 73,20" fill="none" stroke="black" stroke-width="2" /><path d="M 161,21 Q 55.0,-7.5 19,34 Q 44.0,79.5 139,55 Q 132.5,85.0 166,75 Q 194.0,63.5 180,10" fill="none" stroke="black" stroke-width="2" /><path d="M 149,5 Q 135.5,98.0 206,107 Q 167.0,42.5 78,28 Q 80.0,116.5 182,105 Q 170.5,22.0 69,29" fill="none" stroke="black" stroke-width="2" /><path d="M 55,133 Q 80.5,116.5 66,60 Q 50.0,129.5 132,101 Q 124.5,28.0 39,33 Q 94.0,60.5 61,0" fill="none" stroke="black" stroke-width="2" /></g></svg>