<?xml version="1.0" encoding="utf-8" ?>
<svg baseProfile="full" height="210mm" version="1.1" viewBox="0 0 297 210" width="297mm" xmlns="http://www.w3.org/2000/svg" xmlns:ev="http://www.w3.org/2001/xml-events" xmlns:xlink="http://www.w3.org/1999/xlink"><defs /><g transform="translate(43,30)"><path d="M 128,42 Q 65.0,9.0 98,72 Q 76.0,144.0 144,126 Q 131.5,51.0 25,70 Q 94.0,67.0 121,22" fill="none" stroke="black" stroke-width="2" /><path d="M 170,25 Q 69.5,21.0 43,91 Q 148.5,119.5 182,76 Q 141.0,42.5 176,85 Q 168.0,27.0 96,33" fill="none" stroke="black" stroke-width="2" /><path d="M 202,118 Q 145.5,49.0 7,62 Q 59.0,86.0 151,70 Q 89.0,47.0 75,72 Q 40.5,146.0 86,140" fill="none" stroke="black" stroke-width="2" /><path d="M 142,125 Q 184.5,130.0 161,69 Q 93.0,42.0 93,83 Q 56.5,88.0 64,137 Q 93.5,60.0 33,73" fill="none" stroke="black" stroke-width="2" /></g></svg>