<?xml version="1.0" encoding="utf-8" ?>
<svg baseProfile="full" height="210mm" version="1.1" viewBox="0 0 297 210" width="297mm" xmlns="http://www.w3.org/2000/svg" xmlns:ev="http://www.w3.org/2001/xml-events" xmlns:xlink="http://www.w3.org/1999/xlink"><defs /><g transform="translate(43,30)"><path d="M 14,32 Q 37.5,101.0 101,130 Q 116.0,100.0 79,122 Q 86.0,48.0 49,18 Q -14.5,-18.5 12,35" fill="none" stroke="black" stroke-width="2" /><path d="M 144,8 Q 131.0,35.5 164,17 Q 103.0,21.5 104,88 Q 162.5,106.5 161,65 Q 228.5,102.0 208,51" fill="none" stroke="black" stroke-width="2" /><path d="M 32,132 Q 121.0,109.5 158,35 Q 139.5,99.0 179,105 Q 89.5,95.0 60,145 Q 150.0,123.0 170,31" fill="none" stroke="black" stroke-width="2" /><path d="M 30,8 Q 87.5,50.5 205,33 Q 94.0,51.0 61,147 Q 80.0,64.5 57,24 Q 31.5,91.0 58,106" fill="none" stroke="black" stroke-width="2" /></g></svg>