<?xml version="1.0" encoding="utf-8" ?>
<svg baseProfile="full" height="210mm" version="1.1" viewBox="0 0 297 210" width="297mm" xmlns="http://www.w3.org/2000/svg" xmlns:ev="http://www.w3.org/2001/xml-events" xmlns:xlink="http://www.w3.org/1999/xlink"><defs /><g transform="translate(43,30)"><path d="M 199,67 Q 206.5,27.0 166,35 Q 65.5,41.0 57,139 Q 129.0,148.5 111,68 Q 135.5,-3.0 64,22" fill="none" stroke="black" stroke-width="2" /><path d="M 71,134 Q 140.0,111.0 161,40 Q 97.5,66.5 82,141 Q 161.5,127.5 163,36 Q 145.0,0.0 65,26" fill="none" stroke="black" stroke-width="2" /><path d="M 173,106 Q 199.5,43.0 152,54 Q 102.5,11.5 139,55 Q 98.5,3.5 6,4 Q 66.0,102.5 186,141" fill="none" stroke="black" stroke-width="2" /><path d="M 42,107 Q 161.0,127.5 210,78 Q 80.5,54.0 31,110 Q 18.5,151.5 70,129 Q 74.0,54.0 22,35" fill="none" stroke="black" stroke-width="2" /></g></svg>