<?xml version="1.0" encoding="utf-8" ?>
<svg baseProfile="full" height="210mm" version="1.1" viewBox="0 0 297 210" width="297mm" xmlns="http://www.w3.org/2000/svg" xmlns:ev="http://www.w3.org/2001/xml-events" xmlns:xlink="http://www.w3.org/1999/xlink"><defs /><g transform="translate(43,30)"><path d="M 153,120 Q 131.5,62.0 68,46 Q 89.0,111.5 184,103 Q 206.5,35.5 155,42 Q 145.0,-12.0 43,26" fill="none" stroke="black" stroke-width="2" /><path d="M 84,143 Q 64.5,69.0 1,39 Q 78.0,64.5 91,26 Q 61.0,125.0 129,126 Q 134.0,92.5 91,107" fill="none" stroke="black" stroke-width="2" /><path d="M 142,118 Q 160.5,59.0 103,76 Q 119.5,13.5 68,19 Q 17.5,26.5 49,116 Q 147.0,105.5 151,1" fill="none" stroke="black" stroke-width="2" /><path d="M 196,63 Q 151.0,-1.5 24,16 Q 42.5,100.0 119,126 Q 143.5,61.0 80,84 Q 96.5,17.5 59,5" fill="none" stroke="black" stroke-width="2" /></g></svg>