<?xml version="1.0" encoding="utf-8" ?>
<svg baseProfile="full" height="210mm" version="1.1" viewBox="0 0 297 210" width="297mm" xmlns="http://www.w3.org/2000/svg" xmlns:ev="http://www.w3.org/2001/xml-events" xmlns:xlink="http://www.w3.org/1999/xlink"><defs /><g transform="translate(43,30)"><path d="M 105,10 Q 60.5,-11.5 76,27 Q 74.0,75.5 144,52 Q 92.5,25.0 137,94 Q 163.5,25.5 120,27" fill="none" stroke="black" stroke-width="2" /><path d="M 124,140 Q 138.0,73.0 58,100 Q 155.5,96.0 171,10 Q 123.5,56.0 120,146 Q 155.0,154.0 138,110" fill="none" stroke="black" stroke-width="2" /><path d="M 154,127 Q 140.0,176.5 210,142 Q 203.5,80.5 127,89 Q 148.0,15.0 101,9 Q 12.5,-5.0 22,79" fill="none" stroke="black" stroke-width="2" /><path d="M 15,29 Q 64.0,99.0 207,75 Q 62.0,39.5 1,88 Q 55.0,94.0 55,46 Q 40.0,109.0 95,102" fill="none" stroke="black" stroke-width="2" /></g></svg>