<?xml version="1.0" encoding="utf-8" ?>
<svg baseProfile="full" height="210mm" version="1.1" viewBox="0 0 297 210" width="297mm" xmlns="http://www.w3.org/2000/svg" xmlns:ev="http://www.w3.org/2001/xml-events" xmlns:xlink="http://www.w3.org/1999/xlink"><defs /><g transform="translate(43,30)"><path d="M 71,80 Q 107.5,29.0 50,72 Q 83.5,1.5 17,31 Q -6.5,98.0 38,97 Q 13.5,147.0 41,145" fill="none" stroke="black" stroke-width="2" /><path d="M 80,16 Q 35.0,87.5 84,65 Q 131.0,100.5 92,50 Q 107.0,118.0 204,104 Q 101.0,76.0 60,110" fill="none" stroke="black" stroke-width="2" /><path d="M 8,101 Q 86.5,102.5 99,38 Q 25.5,38.5 6,93 Q 3.0,143.0 58,135 Q 121.0,163.5 126,134" fill="none" stroke="black" stroke-width="2" /><path d="M 20,117 Q 138.0,105.0 170,7 Q 112.0,-12.0 96,11 Q 118.5,105.5 209,132 Q 231.0,83.0 167,120" fill="none" stroke="black" stroke-width="2" /></g></svg>