<?xml version="1.0" encoding="utf-8" ?>
<svg baseProfile="full" height="210mm" version="1.1" viewBox="0 0 297 210" width="297mm" xmlns="http://www.w3.org/2000/svg" xmlns:ev="http://www.w3.org/2001/xml-events" xmlns:xlink="http://www.w3.org/1999/xlink"><defs /><g transform="translate(43,30)"><path d="M 68,9 Q 55.0,105.0 98,145 Q 106.0,78.5 50,76 Q 141.0,78.5 178,27 Q 128.5,-11.5 23,6" fill="none" stroke="black" stroke-width="2" /><path d="M 196,99 Q 209.0,72.5 170,98 Q 117.0,76.0 112,102 Q 180.5,115.0 159,38 Q 204.5,68.0 168,16" fill="none" stroke="black" stroke-width="2" /><path d="M 210,129 Q 179.5,109.5 197,138 Q 167.0,63.5 71,55 Q 68.0,119.5 109,140 Q 158.0,89.0 107,138" fill="none" stroke="black" stroke-width="2" /><path d="M 78,23 Q 110.5,94.0 187,121 Q 207.0,25.5 129,28 Q 49.0,62.0 15,142 Q 103.0,132.5 113,45" fill="none" stroke="black" stroke-width="2" /></g></svg>