<?xml version="1.0" encoding="utf-8" ?>
<svg baseProfile="full" height="210mm" version="1.1" viewBox="0 0 297 210" width="297mm" xmlns="http://www.w3.org/2000/svg" xmlns:ev="http://www.w3.org/2001/xml-events" xmlns:xlink="http://www.w3.org/1999/xlink"><defs /><g transform="translate(43,30)"><path d="M 16,20 Q 51.5,117.0 155,146 Q 166.5,82.5 94,103 Q 155.0,125.0 152,83 Q 84.0,59.5 106,126" fill="none" stroke="black" stroke-width="2" /><path d="M 101,22 Q 124.0,-8.0 93,16 Q 107.0,118.0 207,134 Q 141.0,115.5 115,137 Q 168.5,174.0 126,115" fill="none" stroke="black" stroke-width="2" /><path d="M 96,114 Q 16.0,85.0 8,128 Q 87.5,102.0 97,6 Q 80.5,56.5 162,9 Q 159.0,85.0 202,115" fill="none" stroke="black" stroke-width="2" /><path d="M 53,128 Q 78.5,64.0 28,76 Q -9.5,130.0 43,94 Q 161.5,89.0 204,8 Q 118.5,16.5 99,91" fill="none" stroke="black" stroke-width="2" /></g></svg>