<?xml version="1.0" encoding="utf-8" ?>
<svg baseProfile="full" height="210mm" version="1.1" viewBox="0 0 297 210" width="297mm" xmlns="http://www.w3.org/2000/svg" xmlns:ev="http://www.w3.org/2001/xml-events" xmlns:xlink="http://www.w3.org/1999/xlink"><defs /><g transform="translate(43,30)"><path d="M 106,68 Q 30.0,32.0 32,74 Q 145.5,106.5 175,55 Q 147.0,1.0 37,29 Q 7.0,123.0 61,133" fill="none" stroke="black" stroke-width="2" /><path d="M 63,119 Q 162.0,114.0 175,23 Q 117.5,43.5 140,144 Q 153.0,108.0 98,140 Q 99.0,40.0 32,8" fill="none" stroke="black" stroke-width="2" /><path d="M 51,17 Q 81.0,114.0 203,119 Q 121.5,94.0 94,123 Q 85.0,74.0 20,81 Q 20.0,133.0 120,85" fill="none" stroke="black" stroke-width="2" /><path d="M 64,120 Q 153.0,156.5 158,109 Q 205.0,91.5 208,30 Q 234.5,-13.5 193,11 Q 117.0,16.0 119,99" fill="none" stroke="black" stroke-width="2" /></g></svg>