<?xml version="1.0" encoding="utf-8" ?>
<svg baseProfile="full" height="210mm" version="1.1" viewBox="0 0 297 210" width="297mm" xmlns="http://www.w3.org/2000/svg" xmlns:ev="http://www.w3.org/2001/xml-events" xmlns:xlink="http://www.w3.org/1999/xlink"><defs /><g transform="translate(43,30)"><path d="M 96,22 Q 23.5,-8.0 19,30 Q 19.5,72.5 96,39 Q 81.0,68.5 114,50 Q 177.0,74.5 158,17" fill="none" stroke="black" stroke-width="2" /><path d="M 151,43 Q 191.5,-4.0 140,41 Q 99.5,66.0 101,133 Q 103.0,73.5 29,90 Q 69.5,143.0 196,110" fill="none" stroke="black" stroke-width="2" /><path d="M 180,113 Q 226.5,12.0 179,5 Q 65.5,27.5 0,98 Q 53.5,155.5 195,125 Q 177.5,51.0 120,17" fill="none" stroke="black" stroke-width="2" /><path d="M 43,126 Q 149.5,151.5 174,95 Q 71.5,47.0 69,99 Q 95.0,95.0 73,43 Q 73.0,4.0 9,29" fill="none" stroke="black" stroke-width="2" /></g></svg>