<?xml version="1.0" encoding="utf-8" ?>
<svg baseProfile="full" height="210mm" version="1.1" viewBox="0 0 297 210" width="297mm" xmlns="http://www.w3.org/2000/svg" xmlns:ev="http://www.w3.org/2001/xml-events" xmlns:xlink="http://www.w3.org/1999/xlink"><defs /><g transform="translate(43,30)"><path d="M 159,143 Q 207.5,107.5 190,6 Q 108.5,32.0 107,138 Q 150.5,22.5 96,5 Q 44.5,31.5 83,148" fill="none" stroke="black" stroke-width="2" /><path d="M 70,42 Q 63.5,6.0 13,14 Q 56.0,-41.0 3,0 Q 27.0,92.5 139,97 Q 126.5,44.5 16,90" fill="none" stroke="black" stroke-width="2" /><path d="M 111,29 Q 41.5,43.0 52,137 Q 136.0,182.0 128,135 Q 202.0,169.0 184,111 Q 216.0,79.0 204,3" fill="none" stroke="black" stroke-width="2" /><path d="M 16,80 Q 57.5,123.0 163,102 Q 138.0,62.0 45,90 Q 24.0,148.5 85,125 Q 135.5,147.5 110,94" fill="none" stroke="black" stroke-width="2" /></g></svg>