<?xml version="1.0" encoding="utf-8" ?>
<svg baseProfile="full" height="210mm" version="1.1" viewBox="0 0 297 210" width="297mm" xmlns="http://www.w3.org/2000/svg" xmlns:ev="http://www.w3.org/2001/xml-events" xmlns:xlink="http://www.w3.org/1999/xlink"><defs /><g transform="translate(43,30)"><path d="M 51,98 Q 129.5,118.5 126,57 Q 73.5,67.5 87,144 Q 155.5,108.0 154,2 Q 96.5,-4.0 97,48" fill="none" stroke="black" stroke-width="2" /><path d="M 9,78 Q 74.0,76.5 91,27 Q 72.0,113.5 137,116 Q 134.0,32.0 61,18 Q 51.5,63.5 120,31" fill="none" stroke="black" stroke-width="2" /><path d="M 200,87 Q 136.5,43.5 33,40 Q 101.0,66.0 85,8 Q 101.0,90.0 197,92 Q 190.5,44.5 106,75" fill="none" stroke="black" stroke-width="2" /><path d="M 94,71 Q 100.5,-8.5 13,6 Q 51.0,84.0 167,84 Q 141.5,52.5 66,71 Q 22.5,49.5 39,88" fill="none" stroke="black" stroke-width="2" /></g></svg>