<?xml version="1.0" encoding="utf-8" ?>
<svg baseProfile="full" height="210mm" version="1.1" viewBox="0 0 297 210" width="297mm" xmlns="http://www.w3.org/2000/svg" xmlns:ev="http://www.w3.org/2001/xml-events" xmlns:xlink="http://www.w3.org/1999/xlink"><defs /><g transform="translate(43,30)"><path d="M 74,83 Q 32.0,76.0 32,111 Q 144.5,96.0 209,33 Q 182.5,-8.5 94,12 Q 99.5,-28.5 35,1" fill="none" stroke="black" stroke-width="2" /><path d="M 153,3 Q 40.0,-23.5 21,44 Q -25.0,14.0 1,56 Q 28.0,68.0 3,28 Q 31.5,70.0 114,58" fill="none" stroke="black" stroke-width="2" /><path d="M 104,50 Q 100.5,78.5 145,59 Q 68.5,43.5 72,108 Q 2.5,79.0 21,138 Q 128.5,149.0 136,60" fill="none" stroke="black" stroke-width="2" /><path d="M 125,72 Q 116.0,111.0 179,78 Q 112.5,65.5 116,123 Q 177.5,121.5 195,76 Q 124.0,40.0 9,48" fill="none" stroke="black" stroke-width="2" /></g></svg>