<?xml version="1.0" encoding="utf-8" ?>
<svg baseProfile="full" height="210mm" version="1.1" viewBox="0 0 297 210" width="297mm" xmlns="http://www.w3.org/2000/svg" xmlns:ev="http://www.w3.org/2001/xml-events" xmlns:xlink="http://www.w3.org/1999/xlink"><defs /><g transform="translate(43,30)"><path d="M 0,22 Q -17.0,89.5 66,57 Q 32.5,138.5 89,130 Q 111.0,76.5 51,105 Q 56.0,137.5 109,122" fill="none" stroke="black" stroke-width="2" /><path d="M 199,103 Q 140.5,76.0 140,107 Q 110.5,52.0 19,59 Q 55.5,57.0 50,13 Q 90.5,104.5 195,132" fill="none" stroke="black" stroke-width="2" /><path d="M 8,78 Q 121.5,93.0 187,60 Q 69.5,51.0 12,102 Q 94.0,96.5 94,9 Q 73.0,86.5 130,86" fill="none" stroke="black" stroke-width="2" /><path d="M 18,21 Q 3.5,124.5 71,146 Q 175.5,143.5 182,43 Q 110.0,35.0 88,77 Q 90.5,113.5 159,84" fill="none" stroke="black" stroke-width="2" /></g></svg>