<?xml version="1.0" encoding="utf-8" ?>
<svg baseProfile="full" height="210mm" version="1.1" viewBox="0 0 297 210" width="297mm" xmlns="http://www.w3.org/2000/svg" xmlns:ev="http://www.w3.org/2001/xml-events" xmlns:xlink="http://www.w3.org/1999/xlink"><defs /><g transform="translate(43,30)"><path d="M 144,125 Q 125.5,45.0 45,27 Q 32.0,69.5 61,70 Q 134.0,79.0 157,38 Q 156.0,75.5 209,59" fill="none" stroke="black" stroke-width="2" /><path d="M 56,49 Q 118.5,58.5 121,8 Q 77.0,65.5 133,23 Q 44.5,-14.5 46,38 Q 62.0,90.5 134,87" fill="none" stroke="black" stroke-width="2" /><path d="M 8,51 Q 24.0,142.5 130,144 Q 184.5,123.5 163,27 Q 60.0,35.5 39,126 Q 63.0,155.5 133,139" fill="none" stroke="black" stroke-width="2" /><path d="M 70,93 Q 111.5,120.5 199,102 Q 100.0,75.0 83,130 Q -6.5,85.5 0,137 Q 50.5,143.5 47,96" fill="none" stroke="black" stroke-width="2" /></g></svg>