<?xml version="1.0" encoding="utf-8" ?>
<svg baseProfile="full" height="210mm" version="1.1" viewBox="0 0 297 210" width="297mm" xmlns="http://www.w3.org/2000/svg" xmlns:ev="http://www.w3.org/2001/xml-events" xmlns:xlink="http://www.w3.org/1999/xlink"><defs /><g transform="translate(43,30)"><path d="M 97,43 Q 78.0,108.5 101,132 Q 176.0,136.5 199,89 Q 191.5,17.0 92,37 Q 102.0,-11.5 20,32" fill="none" stroke="black" stroke-width="2" /><path d="M 193,80 Q 89.0,44.5 81,105 Q 173.0,112.5 183,38 Q 120.5,35.0 130,104 Q 52.5,58.5 71,109" fill="none" stroke="black" stroke-width="2" /><path d="M 10,107 Q 61.0,121.5 70,94 Q 96.5,114.0 77,88 Q 81.0,30.0 23,34 Q -30.0,21.5 11,103" fill="none" stroke="black" stroke-width="2" /><path d="M 173,104 Q 69.5,85.0 28,128 Q 147.5,99.0 197,0 Q 153.5,-29.5 170,1 Q 137.0,75.0 184,69" fill="none" stroke="black" stroke-width="2" /></g></svg>