<?xml version="1.0" encoding="utf-8" ?>
<svg baseProfile="full" height="210mm" version="1.1" viewBox="0 0 297 210" width="297mm" xmlns="http://www.w3.org/2000/svg" xmlns:ev="http://www.w3.org/2001/xml-events" xmlns:xlink="http://www.w3.org/1999/xlink"><defs /><g transform="translate(43,30)"><path d="M 71,57 Q 19.0,67.5 13,124 Q 57.0,132.0 55,94 Q 79.5,74.5 60,11 Q 82.0,77.0 194,53" fill="none" stroke="black" stroke-width="2" /><path d="M 42,7 Q 52.5,118.0 163,129 Q 161.5,62.5 104,52 Q 120.5,4.5 77,17 Q 110.5,103.5 188,146" fill="none" stroke="black" stroke-width="2" /><path d="M 133,31 Q 128.5,78.5 198,52 Q 202.5,2.5 121,39 Q 123.5,125.0 210,127 Q 164.5,28.0 35,13" fill="none" stroke="black" stroke-width="2" /><path d="M 100,23 Q 38.0,43.0 34,121 Q 160.5,108.5 197,6 Q 65.5,-5.0 32,82 Q 37.0,127.0 120,94" fill="none" stroke="black" stroke-width="2" /></g></svg>