<?xml version="1.0" encoding="utf-8" ?>
<svg baseProfile="full" height="210mm" version="1.1" viewBox="0 0 297 210" width="297mm" xmlns="http://www.w3.org/2000/svg" xmlns:ev="http://www.w3.org/2001/xml-events" xmlns:xlink="http://www.w3.org/1999/xlink"><defs /><g transform="translate(43,30)"><path d="M 14,50 Q -19.0,20.0 12,54 Q 53.0,124.5 188,101 Q 96.0,90.0 66,141 Q 78.5,71.5 19,74" fill="none" stroke="black" stroke-width="2" /><path d="M 81,147 Q 179.5,169.5 190,104 Q 158.0,35.0 74,18 Q 76.5,90.5 139,103 Q 179.5,97.5 168,40" fill="none" stroke="black" stroke-width="2" /><path d="M 11,102 Q 134.0,118.5 205,83 Q 198.5,38.0 134,51 Q 147.5,111.5 205,128 Q 144.0,70.5 37,59" fill="none" stroke="black" stroke-width="2" /><path d="M 71,59 Q 27.0,50.5 31,90 Q 72.5,105.5 62,69 Q 6.5,44.0 15,83 Q 18.0,138.0 109,105" fill="none" stroke="black" stroke-width="2" /></g></svg>