<?xml version="1.0" encoding="utf-8" ?>
<svg baseProfile="full" height="210mm" version="1.1" viewBox="0 0 297 210" width="297mm" xmlns="http://www.w3.org/2000/svg" xmlns:ev="http://www.w3.org/2001/xml-events" xmlns:xlink="http://www.w3.org/1999/xlink"><defs /><g transform="translate(43,30)"><path d="M 192,15 Q 151.0,-6.0 156,19 Q 117.0,117.0 158,135 Q 175.0,29.0 112,3 Q 54.0,36.0 62,135" fill="none" stroke="black" stroke-width="2" /><path d="M 200,93 Q 163.0,53.0 48,91 Q 78.0,152.0 194,127 Q 186.0,39.0 104,25 Q 184.0,53.5 192,10" fill="none" stroke="black" stroke-width="2" /><path d="M 46,78 Q 140.0,83.5 146,1 Q 118.5,3.5 133,48 Q 109.5,83.0 154,50 Q 148.0,-7.5 50,27" fill="none" stroke="black" stroke-width="2" /><path d="M 151,90 Q 56.5,53.0 44,98 Q 53.5,41.0 1,46 Q 21.5,100.0 126,70 Q 136.0,125.5 210,117" fill="none" stroke="black" stroke-width="2" /></g></svg>