<?xml version="1.0" encoding="utf-8" ?>
<svg baseProfile="full" height="210mm" version="1.1" viewBox="0 0 297 210" width="297mm" xmlns="http://www.w3.org/2000/svg" xmlns:ev="http://www.w3.org/2001/xml-events" xmlns:xlink="http://www.w3.org/1999/xlink"><defs /><g transform="translate(43,30)"><path d="M 53,55 Q 93.5,79.0 76,45 Q 72.5,100.5 139,86 Q 178.5,76.0 158,6 Q 91.0,43.5 84,141" fill="none" stroke="black" stroke-width="2" /><path d="M 174,32 Q 69.5,51.5 39,145 Q 159.0,124.5 201,26 Q 96.0,27.0 61,98 Q 65.5,152.5 162,115" fill="none" stroke="black" stroke-width="2" /><path d="M 53,61 Q 10.0,122.5 59,92 Q 18.0,70.0 23,94 Q 70.0,88.5 47,13 Q 67.0,10.5 47,8" fill="none" stroke="black" stroke-width="2" /><path d="M 74,80 Q 90.5,125.0 169,108 Q 232.0,122.0 203,44 Q 210.5,4.0 172,10 Q 127.5,10.5 127,55" fill="none" stroke="black" stroke-width="2" /></g></svg>