<?xml version="1.0" encoding="utf-8" ?>
<svg baseProfile="full" height="210mm" version="1.1" viewBox="0 0 297 210" width="297mm" xmlns="http://www.w3.org/2000/svg" xmlns:ev="http://www.w3.org/2001/xml-events" xmlns:xlink="http://www.w3.org/1999/xlink"><defs /><g transform="translate(43,30)"><path d="M 62,28 Q 100.5,47.5 79,7 Q 28.5,13.0 22,63 Q 131.0,90.5 178,56 Q 219.0,-5.5 166,27" fill="none" stroke="black" stroke-width="2" /><path d="M 209,44 Q 226.5,2.5 198,7 Q 75.0,46.5 2,136 Q 46.5,174.0 7,128 Q 130.0,130.5 175,55" fill="none" stroke="black" stroke-width="2" /><path d="M 72,110 Q 130.5,145.0 91,82 Q 112.5,47.5 68,79 Q 129.0,91.5 116,30 Q 55.0,17.5 84,95" fill="none" stroke="black" stroke-width="2" /><path d="M 151,107 Q 146.0,55.0 43,101 Q 13.0,161.0 63,141 Q 171.0,168.5 185,102 Q 60.5,78.5 6,125" fill="none" stroke="black" stroke-width="2" /></g></svg>