<?xml version="1.0" encoding="utf-8" ?>
<svg baseProfile="full" height="210mm" version="1.1" viewBox="0 0 297 210" width="297mm" xmlns="http://www.w3.org/2000/svg" xmlns:ev="http://www.w3.org/2001/xml-events" xmlns:xlink="http://www.w3.org/1999/xlink"><defs /><g transform="translate(43,30)"><path d="M 60,41 Q 60.0,108.0 138,97 Q 67.5,63.0 73,105 Q 144.0,135.0 115,65 Q 110.5,1.5 6,38" fill="none" stroke="black" stroke-width="2" /><path d="M 36,2 Q -5.5,-5.5 13,47 Q 43.0,58.5 27,24 Q 3.5,111.5 60,119 Q 107.0,125.5 80,58" fill="none" stroke="black" stroke-width="2" /><path d="M 135,60 Q 74.5,30.5 92,79 Q 80.5,116.5 137,86 Q 181.5,105.5 144,43 Q 90.5,14.5 115,64" fill="none" stroke="black" stroke-width="2" /><path d="M 81,98 Q 26.0,72.5 65,141 Q 85.0,92.0 35,113 Q 43.0,157.0 51,113 Q 61.0,159.5 147,130" fill="none" stroke="black" stroke-width="2" /></g></svg>