<?xml version="1.0" encoding="utf-8" ?>
<svg baseProfile="full" height="210mm" version="1.1" viewBox="0 0 297 210" width="297mm" xmlns="http://www.w3.org/2000/svg" xmlns:ev="http://www.w3.org/2001/xml-events" xmlns:xlink="http://www.w3.org/1999/xlink"><defs /><g transform="translate(43,30)"><path d="M 122,3 Q 16.5,-40.5 3,8 Q -15.5,109.5 30,147 Q 134.0,166.5 180,128 Q 170.5,54.0 81,60" fill="none" stroke="black" stroke-width="2" /><path d="M 155,68 Q 143.5,-12.5 32,7 Q 24.0,104.5 82,136 Q 103.0,59.0 80,26 Q 35.0,118.0 84,116" fill="none" stroke="black" stroke-width="2" /><path d="M 74,57 Q 179.5,84.5 191,18 Q 85.5,16.5 40,75 Q 18.5,144.0 89,121 Q 193.0,147.5 203,80" fill="none" stroke="black" stroke-width="2" /><path d="M 210,122 Q 209.5,58.5 119,85 Q 91.0,153.5 139,146 Q 128.0,66.0 63,40 Q 32.5,125.5 70,143" fill="none" stroke="black" stroke-width="2" /></g></svg>