<?xml version="1.0" encoding="utf-8" ?>
<svg baseProfile="full" height="210mm" version="1.1" viewBox="0 0 297 210" width="297mm" xmlns="http://www.w3.org/2000/svg" xmlns:ev="http://www.w3.org/2001/xml-events" xmlns:xlink="http://www.w3.org/1999/xlink"><defs /><g transform="translate(43,30)"><path d="M 136,0 Q 114.5,98.5 179,111 Q 179.5,83.5 138,98 Q 41.0,77.0 20,132 Q 107.0,140.5 104,59" fill="none" stroke="black" stroke-width="2" /><path d="M 50,107 Q 53.5,52.0 15,39 Q -8.5,128.0 42,143 Q 122.0,133.0 144,65 Q 195.0,92.5 176,50" fill="none" stroke="black" stroke-width="2" /><path d="M 36,57 Q 72.5,70.5 69,44 Q 40.0,117.0 109,92 Q 57.0,71.0 5,92 Q 85.0,93.0 115,44" fill="none" stroke="black" stroke-width="2" /><path d="M 95,33 Q 95.5,93.0 160,89 Q 207.5,124.5 175,80 Q 213.5,29.5 166,65 Q 131.0,9.5 4,46" fill="none" stroke="black" stroke-width="2" /></g></svg>