<?xml version="1.0" encoding="utf-8" ?>
<svg baseProfile="full" height="210mm" version="1.1" viewBox="0 0 297 210" width="297mm" xmlns="http://www.w3.org/2000/svg" xmlns:ev="http://www.w3.org/2001/xml-events" xmlns:xlink="http://www.w3.org/1999/xlink"><defs /><g transform="translate(43,30)"><path d="M 169,50 Q 125.5,46.0 162,122 Q 205.5,114.0 177,34 Q 59.0,6.5 17,55 Q -25.0,104.5 21,66" fill="none" stroke="black" stroke-width="2" /><path d="M 14,23 Q 62.5,92.0 199,73 Q 141.5,52.5 160,108 Q 194.0,38.0 138,58 Q 73.0,30.5 102,97" fill="none" stroke="black" stroke-width="2" /><path d="M 205,139 Q 230.0,43.0 169,33 Q 111.5,10.5 142,76 Q 83.0,92.0 64,148 Q 173.0,178.5 194,121" fill="none" stroke="black" stroke-width="2" /><path d="M 72,6 Q 43.5,-43.0 15,6 Q 56.0,91.0 179,94 Q 186.5,37.5 104,71 Q 107.5,18.5 51,26" fill="none" stroke="black" stroke-width="2" /></g></svg>