<?xml version="1.0" encoding="utf-8" ?>
<svg baseProfile="full" height="210mm" version="1.1" viewBox="0 0 297 210" width="297mm" xmlns="http://www.w3.org/2000/svg" xmlns:ev="http://www.w3.org/2001/xml-events" xmlns:xlink="http://www.w3.org/1999/xlink"><defs /><g transform="translate(43,30)"><path d="M 102,35 Q 46.5,47.5 31,100 Q 79.5,105.0 48,30 Q 53.5,79.5 119,69 Q 126.5,111.5 202,86" fill="none" stroke="black" stroke-width="2" /><path d="M 131,77 Q 40.0,60.0 13,107 Q 23.5,144.0 100,115 Q 109.0,63.5 74,56 Q 98.0,96.5 188,71" fill="none" stroke="black" stroke-width="2" /><path d="M 33,24 Q 147.0,62.0 167,6 Q 139.5,84.0 180,94 Q 95.0,74.5 70,115 Q 93.5,172.5 209,138" fill="none" stroke="black" stroke-width="2" /><path d="M 185,43 Q 146.0,57.0 147,111 Q 209.5,107.5 208,40 Q 92.5,28.0 55,94 Q 37.0,135.5 83,113" fill="none" stroke="black" stroke-width="2" /></g></svg>