<?xml version="1.0" encoding="utf-8" ?>
<svg baseProfile="full" height="210mm" version="1.1" viewBox="0 0 297 210" width="297mm" xmlns="http://www.w3.org/2000/svg" xmlns:ev="http://www.w3.org/2001/xml-events" xmlns:xlink="http://www.w3.org/1999/xlink"><defs /><g transform="translate(43,30)"><path d="M 47,10 Q 75.5,77.0 186,62 Q 168.0,3.5 68,27 Q 97.0,46.0 78,17 Q 27.5,-16.5 69,42" fill="none" stroke="black" stroke-width="2" /><path d="M 20,137 Q 132.0,144.0 156,63 Q 64.0,54.0 42,115 Q 88.0,147.0 66,111 Q 106.5,53.5 53,90" fill="none" stroke="black" stroke-width="2" /><path d="M 187,26 Q 95.0,57.5 61,147 Q 72.0,88.0 27,85 Q 69.5,106.0 52,67 Q 71.0,5.5 12,22" fill="none" stroke="black" stroke-width="2" /><path d="M 118,44 Q 129.0,92.0 188,92 Q 149.0,62.0 68,74 Q 60.0,146.0 124,146 Q 109.5,70.5 53,37" fill="none" stroke="black" stroke-width="2" /></g></svg>