<?xml version="1.0" encoding="utf-8" ?>
<svg baseProfile="full" height="210mm" version="1.1" viewBox="0 0 297 210" width="297mm" xmlns="http://www.w3.org/2000/svg" xmlns:ev="http://www.w3.org/2001/xml-events" xmlns:xlink="http://www.w3.org/1999/xlink"><defs /><g transform="translate(43,30)"><path d="M 195,97 Q 119.5,49.5 2,44 Q -27.0,83.5 12,55 Q -14.0,38.0 4,65 Q 3.5,113.0 53,111" fill="none" stroke="black" stroke-width="2" /><path d="M 146,137 Q 110.0,53.5 12,32 Q 31.0,79.5 120,57 Q 110.0,18.0 40,39 Q 144.0,72.0 162,19" fill="none" stroke="black" stroke-width="2" /><path d="M 154,119 Q 105.0,52.0 2,39 Q 48.5,121.0 189,109 Q 102.5,82.5 104,144 Q 141.0,118.5 112,27" fill="none" stroke="black" stroke-width="2" /><path d="M 85,128 Q 190.5,124.0 196,20 Q 178.5,-23.5 83,11 Q 93.0,101.0 163,131 Q 60.5,114.5 0,140" fill="none" stroke="black" stroke-width="2" /></g></svg>