<?xml version="1.0" encoding="utf-8" ?>
<svg baseProfile="full" height="210mm" version="1.1" viewBox="0 0 297 210" width="297mm" xmlns="http://www.w3.org/2000/svg" xmlns:ev="http://www.w3.org/2001/xml-events" xmlns:xlink="http://www.w3.org/1999/xlink"><defs /><g transform="translate(43,30)"><path d="M 107,11 Q 41.0,-20.5 51,24 Q 82.0,100.5 183,107 Q 175.5,53.5 84,84 Q 181.5,110.5 207,65" fill="none" stroke="black" stroke-width="2" /><path d="M 140,108 Q 145.5,71.5 83,103 Q 93.0,34.0 49,19 Q 122.5,62.0 106,15 Q 113.0,55.0 196,19" fill="none" stroke="black" stroke-width="2" /><path d="M 104,104 Q 169.0,151.0 134,98 Q 110.0,71.0 46,84 Q 14.5,73.5 41,121 Q 154.0,119.0 181,31" fill="none" stroke="black" stroke-width="2" /><path d="M 141,25 Q 107.0,32.5 135,102 Q 98.0,37.0 1,32 Q 15.0,70.0 91,46 Q 143.5,79.5 110,27" fill="none" stroke="black" stroke-width="2" /></g></svg>