<?xml version="1.0" encoding="utf-8" ?>
<svg baseProfile="full" height="210mm" version="1.1" viewBox="0 0 297 210" width="297mm" xmlns="http://www.w3.org/2000/svg" xmlns:ev="http://www.w3.org/2001/xml-events" xmlns:xlink="http://www.w3.org/1999/xlink"><defs /><g transform="translate(43,30)"><path d="M 73,142 Q 172.5,152.0 210,100 Q 139.0,82.5 116,113 Q 107.0,75.5 50,86 Q 16.5,85.0 23,124" fill="none" stroke="black" stroke-width="2" /><path d="M 49,119 Q 1.0,90.0 37,145 Q 79.0,138.0 57,67 Q -3.5,28.5 20,74 Q 41.5,112.0 133,80" fill="none" stroke="black" stroke-width="2" /><path d="M 138,94 Q 190.0,88.0 172,12 Q 69.5,46.0 15,128 Q 112.0,108.0 149,28 Q 87.5,38.5 100,123" fill="none" stroke="black" stroke-width="2" /><path d="M 107,56 Q 19.0,28.5 1,71 Q -41.0,118.5 7,76 Q 68.5,118.5 206,85 Q 167.0,7.0 54,3" fill="none" stroke="black" stroke-width="2" /></g></svg>