<?xml version="1.0" encoding="utf-8" ?>
<svg baseProfile="full" height="210mm" version="1.1" viewBox="0 0 297 210" width="297mm" xmlns="http://www.w3.org/2000/svg" xmlns:ev="http://www.w3.org/2001/xml-events" xmlns:xlink="http://www.w3.org/1999/xlink"><defs /><g transform="translate(43,30)"><path d="M 210,102 Q 118.5,94.5 69,129 Q 147.5,153.0 130,81 Q 98.0,138.0 162,99 Q 172.5,30.0 133,11" fill="none" stroke="black" stroke-width="2" /><path d="M 188,62 Q 134.0,39.5 144,81 Q 50.0,47.0 50,107 Q 104.5,105.5 107,52 Q 114.0,106.5 207,75" fill="none" stroke="black" stroke-width="2" /><path d="M 166,29 Q 88.0,18.0 82,79 Q 93.5,18.5 49,14 Q 22.0,108.5 85,113 Q 86.0,148.0 155,115" fill="none" stroke="black" stroke-width="2" /><path d="M 69,42 Q 83.0,101.5 149,109 Q 55.5,69.0 54,121 Q 70.0,41.0 4,43 Q 63.5,78.0 171,65" fill="none" stroke="black" stroke-width="2" /></g></svg>