<?xml version="1.0" encoding="utf-8" ?>
<svg baseProfile="full" height="210mm" version="1.1" viewBox="0 0 297 210" width="297mm" xmlns="http://www.w3.org/2000/svg" xmlns:ev="http://www.w3.org/2001/xml-events" xmlns:xlink="http://www.w3.org/1999/xlink"><defs /><g transform="translate(43,30)"><path d="M 66,84 Q 144.0,88.5 146,17 Q 48.0,-7.0 38,57 Q 68.5,107.0 155,101 Q 166.0,59.0 99,95" fill="none" stroke="black" stroke-width="2" /><path d="M 72,81 Q 20.0,75.0 8,109 Q 75.0,98.0 94,39 Q 139.5,63.0 131,33 Q 133.0,102.5 207,100" fill="none" stroke="black" stroke-width="2" /><path d="M 175,20 Q 101.0,11.0 79,54 Q 90.0,10.0 27,40 Q 45.5,89.5 134,69 Q 68.5,81.5 47,138" fill="none" stroke="black" stroke-width="2" /><path d="M 36,14 Q 96.5,67.0 209,68 Q 171.5,-12.0 38,4 Q 7.0,57.0 46,40 Q 158.0,67.5 194,19" fill="none" stroke="black" stroke-width="2" /></g></svg>