<?xml version="1.0" encoding="utf-8" ?>
<svg baseProfile="full" height="210mm" version="1.1" viewBox="0 0 297 210" width="297mm" xmlns="http://www.w3.org/2000/svg" xmlns:ev="http://www.w3.org/2001/xml-events" xmlns:xlink="http://www.w3.org/1999/xlink"><defs /><g transform="translate(43,30)"><path d="M 80,13 Q 72.0,99.0 152,97 Q 136.0,157.0 200,137 Q 183.0,83.5 68,128 Q 99.0,21.5 38,7" fill="none" stroke="black" stroke-width="2" /><path d="M 25,115 Q 72.0,115.5 39,36 Q 114.5,70.0 94,8 Q 66.5,80.0 139,52 Q 177.5,76.0 158,42" fill="none" stroke="black" stroke-width="2" /><path d="M 59,37 Q 43.5,96.5 82,102 Q 28.0,76.0 34,110 Q 50.5,140.0 121,116 Q 145.0,58.5 121,1" fill="none" stroke="black" stroke-width="2" /><path d="M 145,76 Q 115.0,116.0 155,86 Q 130.5,10.0 6,34 Q 39.5,91.0 141,80 Q 69.5,68.0 78,136" fill="none" stroke="black" stroke-width="2" /></g></svg>