<?xml version="1.0" encoding="utf-8" ?>
<svg baseProfile="full" height="210mm" version="1.1" viewBox="0 0 297 210" width="297mm" xmlns="http://www.w3.org/2000/svg" xmlns:ev="http://www.w3.org/2001/xml-events" xmlns:xlink="http://www.w3.org/1999/xlink"><defs /><g transform="translate(43,30)"><path d="M 32,61 Q 78.5,72.0 73,31 Q 70.0,63.0 117,45 Q 111.5,112.5 146,140 Q 154.0,65.0 88,64" fill="none" stroke="black" stroke-width="2" /><path d="M 109,116 Q 193.0,105.5 199,17 Q 66.5,43.0 2,137 Q 39.5,58.5 1,56 Q 23.5,31.5 0,53" fill="none" stroke="black" stroke-width="2" /><path d="M 121,73 Q 85.5,147.5 146,126 Q 173.0,69.5 146,13 Q 120.5,117.0 191,125 Q 200.5,25.5 120,16" fill="none" stroke="black" stroke-width="2" /><path d="M 82,42 Q 90.0,110.5 176,101 Q 146.0,15.5 38,8 Q 145.5,35.0 191,0 Q 77.5,18.5 24,97" fill="none" stroke="black" stroke-width="2" /></g></svg>