<?xml version="1.0" encoding="utf-8" ?>
<svg baseProfile="full" height="210mm" version="1.1" viewBox="0 0 297 210" width="297mm" xmlns="http://www.w3.org/2000/svg" xmlns:ev="http://www.w3.org/2001/xml-events" xmlns:xlink="http://www.w3.org/1999/xlink"><defs /><g transform="translate(43,30)"><path d="M 116,49 Q 112.5,117.0 159,135 Q 120.5,33.5 12,2 Q -3.0,51.0 76,6 Q 7.0,-23.0 18,28" fill="none" stroke="black" stroke-width="2" /><path d="M 154,121 Q 177.5,76.5 137,96 Q 116.5,41.5 4,79 Q 43.5,101.0 33,73 Q 43.5,120.0 114,107" fill="none" stroke="black" stroke-width="2" /><path d="M 190,125 Q 183.5,49.0 79,71 Q 36.0,67.5 53,124 Q 158.0,162.5 183,121 Q 212.5,42.0 172,33" fill="none" stroke="black" stroke-width="2" /><path d="M 115,108 Q 133.0,24.0 81,10 Q 17.0,9.0 23,78 Q 54.0,156.0 181,138 Q 176.5,52.5 118,21" fill="none" stroke="black" stroke-width="2" /></g></svg>