<?xml version="1.0" encoding="utf-8" ?>
<svg baseProfile="full" height="210mm" version="1.1" viewBox="0 0 297 210" width="297mm" xmlns="http://www.w3.org/2000/svg" xmlns:ev="http://www.w3.org/2001/xml-events" xmlns:xlink="http://www.w3.org/1999/xlink"><defs /><g transform="translate(43,30)"><path d="M 98,47 Q 73.5,121.5 149,96 Q 78.0,80.0 49,106 Q 14.0,88.0 25,116 Q 78.5,112.0 84,60" fill="none" stroke="black" stroke-width="2" /><path d="M 199,83 Q 209.5,38.0 180,33 Q 106.5,34.5 125,128 Q 160.0,48.5 101,63 Q 111.5,-11.0 26,11" fill="none" stroke="black" stroke-width="2" /><path d="M 159,40 Q 217.5,70.5 200,25 Q 149.0,14.0 144,49 Q 48.5,59.5 29,146 Q 122.0,134.5 127,35" fill="none" stroke="black" stroke-width="2" /><path d="M 177,65 Q 224.0,84.5 181,14 Q 115.0,-4.0 125,54 Q 77.0,34.0 123,108 Q 142.0,35.0 121,2" fill="none" stroke="black" stroke-width="2" /></g></svg>