<?xml version="1.0" encoding="utf-8" ?>
<svg baseProfile="full" height="210mm" version="1.1" viewBox="0 0 297 210" width="297mm" xmlns="http://www.w3.org/2000/svg" xmlns:ev="http://www.w3.org/2001/xml-events" xmlns:xlink="http://www.w3.org/1999/xlink"><defs /><g transform="translate(43,30)"><path d="M 116,98 Q 187.5,121.5 189,75 Q 142.0,67.0 165,129 Q 192.5,42.5 126,50 Q 42.0,39.5 16,87" fill="none" stroke="black" stroke-width="2" /><path d="M 121,86 Q 95.0,33.0 1,48 Q 75.0,75.0 59,12 Q 106.0,66.5 199,75 Q 214.0,13.5 163,18" fill="none" stroke="black" stroke-width="2" /><path d="M 19,92 Q 69.0,160.5 201,147 Q 180.0,80.5 89,84 Q 59.0,155.0 119,136 Q 102.0,80.5 7,103" fill="none" stroke="black" stroke-width="2" /><path d="M 179,25 Q 86.0,21.0 91,115 Q 84.0,37.0 19,17 Q 26.0,88.0 105,87 Q 107.5,135.5 152,142" fill="none" stroke="black" stroke-width="2" /></g></svg>