<?xml version="1.0" encoding="utf-8" ?>
<svg baseProfile="full" height="210mm" version="1.1" viewBox="0 0 297 210" width="297mm" xmlns="http://www.w3.org/2000/svg" xmlns:ev="http://www.w3.org/2001/xml-events" xmlns:xlink="http://www.w3.org/1999/xlink"><defs /><g transform="translate(43,30)"><path d="M 137,139 Q 179.0,117.5 149,24 Q 135.0,73.5 207,37 Q 133.0,20.0 153,97 Q 181.5,1.5 114,2" fill="none" stroke="black" stroke-width="2" /><path d="M 75,45 Q 91.0,106.0 165,109 Q 53.5,74.5 34,132 Q 97.0,147.5 76,79 Q 95.0,41.0 74,43" fill="none" stroke="black" stroke-width="2" /><path d="M 198,128 Q 143.5,62.0 45,40 Q -20.0,43.0 1,132 Q 134.0,103.0 203,10 Q 170.5,-38.0 48,4" fill="none" stroke="black" stroke-width="2" /><path d="M 166,64 Q 114.0,67.5 132,141 Q 145.5,103.5 93,132 Q 145.0,162.5 125,121 Q 127.5,168.5 204,142" fill="none" stroke="black" stroke-width="2" /></g></svg>