<?xml version="1.0" encoding="utf-8" ?>
<svg baseProfile="full" height="210mm" version="1.1" viewBox="0 0 297 210" width="297mm" xmlns="http://www.w3.org/2000/svg" xmlns:ev="http://www.w3.org/2001/xml-events" xmlns:xlink="http://www.w3.org/1999/xlink"><defs /><g transform="translate(43,30)"><path d="M 62,127 Q 69.0,171.5 164,128 Q 197.0,51.5 138,67 Q 120.0,37.5 44,66 Q 108.0,62.0 130,16" fill="none" stroke="black" stroke-width="2" /><path d="M 96,20 Q 64.5,11.5 81,51 Q 86.0,119.5 145,134 Q 176.5,136.5 150,81 Q 209.5,120.5 179,70" fill="none" stroke="black" stroke-width="2" /><path d="M 118,24 Q 115.0,100.5 202,87 Q 153.0,57.0 176,99 Q 159.5,27.5 85,14 Q 80.5,57.0 138,38" fill="none" stroke="black" stroke-width="2" /><path d="M 197,12 Q 110.5,50.5 78,143 Q 85.5,74.0 23,75 Q 79.0,118.5 199,98 Q 158.5,37.0 58,36" fill="none" stroke="black" stroke-width="2" /></g></svg>