<?xml version="1.0" encoding="utf-8" ?>
<svg baseProfile="full" height="210mm" version="1.1" viewBox="0 0 297 210" width="297mm" xmlns="http://www.w3.org/2000/svg" xmlns:ev="http://www.w3.org/2001/xml-events" xmlns:xlink="http://www.w3.org/1999/xlink"><defs /><g transform="translate(43,30)"><path d="M 43,36 Q 14.0,67.0 33,146 Q 63.5,68.0 16,68 Q 72.5,95.0 45,38 Q 132.0,72.5 147,35" fill="none" stroke="black" stroke-width="2" /><path d="M 42,45 Q 22.5,122.5 63,140 Q 75.0,61.5 41,29 Q 154.0,60.5 191,16 Q 100.5,33.0 82,122" fill="none" stroke="black" stroke-width="2" /><path d="M 145,127 Q 196.0,123.0 169,41 Q 159.0,102.0 193,119 Q 242.0,77.5 193,36 Q 75.5,60.5 16,143" fill="none" stroke="black" stroke-width="2" /><path d="M 6,47 Q 14.5,102.0 75,105 Q 38.5,165.5 100,128 Q 137.0,28.0 82,20 Q 75.5,85.0 163,56" fill="none" stroke="black" stroke-width="2" /></g></svg>