<?xml version="1.0" encoding="utf-8" ?>
<svg baseProfile="full" height="210mm" version="1.1" viewBox="0 0 297 210" width="297mm" xmlns="http://www.w3.org/2000/svg" xmlns:ev="http://www.w3.org/2001/xml-events" xmlns:xlink="http://www.w3.org/1999/xlink"><defs /><g transform="translate(43,30)"><path d="M 161,77 Q 108.0,78.5 103,128 Q 183.0,142.5 205,99 Q 215.0,51.5 171,58 Q 142.5,1.0 36,22" fill="none" stroke="black" stroke-width="2" /><path d="M 53,109 Q 105.0,137.0 197,125 Q 211.0,72.5 137,108 Q 139.5,65.5 78,87 Q 106.0,22.0 40,51" fill="none" stroke="black" stroke-width="2" /><path d="M 23,57 Q -16.0,117.5 39,84 Q 91.5,115.5 184,107 Q 172.5,34.0 85,37 Q 69.5,76.0 106,63" fill="none" stroke="black" stroke-width="2" /><path d="M 139,118 Q 96.0,88.5 5,107 Q 81.0,86.0 117,25 Q 105.5,77.0 188,35 Q 243.0,79.0 206,31" fill="none" stroke="black" stroke-width="2" /></g></svg>