<?xml version="1.0" encoding="utf-8" ?>
<svg baseProfile="full" height="210mm" version="1.1" viewBox="0 0 297 210" width="297mm" xmlns="http://www.w3.org/2000/svg" xmlns:ev="http://www.w3.org/2001/xml-events" xmlns:xlink="http://www.w3.org/1999/xlink"><defs /><g transform="translate(43,30)"><path d="M 189,110 Q 199.5,68.0 154,82 Q 47.5,45.0 39,106 Q 134.5,102.5 176,45 Q 118.5,-1.0 161,53" fill="none" stroke="black" stroke-width="2" /><path d="M 160,60 Q 108.5,70.5 121,145 Q 119.5,78.0 36,93 Q 68.5,147.5 193,110 Q 150.5,48.0 16,78" fill="none" stroke="black" stroke-width="2" /><path d="M 193,86 Q 131.0,59.0 145,108 Q 117.5,155.0 150,142 Q 155.5,44.0 89,18 Q 84.5,77.0 126,90" fill="none" stroke="black" stroke-width="2" /><path d="M 48,138 Q 147.5,134.5 201,85 Q 101.5,80.5 60,134 Q 156.0,103.5 206,27 Q 152.5,34.5 159,102" fill="none" stroke="black" stroke-width="2" /></g></svg>