<?xml version="1.0" encoding="utf-8" ?>
<svg baseProfile="full" height="210mm" version="1.1" viewBox="0 0 297 210" width="297mm" xmlns="http://www.w3.org/2000/svg" xmlns:ev="http://www.w3.org/2001/xml-events" xmlns:xlink="http://www.w3.org/1999/xlink"><defs /><g transform="translate(43,30)"><path d="M 107,38 Q 71.5,104.0 110,96 Q 186.5,124.5 175,65 Q 132.5,47.0 148,87 Q 165.5,16.0 109,19" fill="none" stroke="black" stroke-width="2" /><path d="M 183,15 Q 136.5,-28.0 6,13 Q 26.0,109.5 122,130 Q 188.0,129.5 154,29 Q 52.5,6.5 19,52" fill="none" stroke="black" stroke-width="2" /><path d="M 130,124 Q 135.0,66.5 70,79 Q 185.0,128.0 200,77 Q 217.5,40.5 191,48 Q 150.5,51.5 188,133" fill="none" stroke="black" stroke-width="2" /><path d="M 56,22 Q 58.0,73.0 110,74 Q 110.0,7.5 20,31 Q -10.0,121.5 34,138 Q 106.0,114.0 132,44" fill="none" stroke="black" stroke-width="2" /></g></svg>