<?xml version="1.0" encoding="utf-8" ?>
<svg baseProfile="full" height="210mm" version="1.1" viewBox="0 0 297 210" width="297mm" xmlns="http://www.w3.org/2000/svg" xmlns:ev="http://www.w3.org/2001/xml-events" xmlns:xlink="http://www.w3.org/1999/xlink"><defs /><g transform="translate(43,30)"><path d="M 209,13 Q 90.0,51.5 11,130 Q 121.0,122.0 135,18 Q 103.5,39.5 116,105 Q 124.5,20.0 43,25" fill="none" stroke="black" stroke-width="2" /><path d="M 11,140 Q 88.5,142.5 90,69 Q 126.5,29.0 89,63 Q 159.5,97.5 138,40 Q 107.0,77.0 148,42" fill="none" stroke="black" stroke-width="2" /><path d="M 196,53 Q 147.5,16.0 59,19 Q 13.0,9.5 43,76 Q 121.5,88.5 106,7 Q 35.5,-12.5 53,56" fill="none" stroke="black" stroke-width="2" /><path d="M 191,110 Q 187.5,64.5 144,59 Q 111.5,131.5 161,122 Q 125.0,96.5 145,127 Q 117.5,163.5 150,140" fill="none" stroke="black" stroke-width="2" /></g></svg>