<?xml version="1.0" encoding="utf-8" ?>
<svg baseProfile="full" height="210mm" version="1.1" viewBox="0 0 297 210" width="297mm" xmlns="http://www.w3.org/2000/svg" xmlns:ev="http://www.w3.org/2001/xml-events" xmlns:xlink="http://www.w3.org/1999/xlink"><defs /><g transform="translate(43,30)"><path d="M 39,43 Q 70.5,116.0 172,119 Q 155.0,79.0 60,117 Q 127.0,157.5 108,112 Q 147.0,96.0 116,10" fill="none" stroke="black" stroke-width="2" /><path d="M 53,146 Q 152.5,123.5 192,41 Q 179.5,79.0 207,77 Q 161.0,66.0 163,103 Q 108.5,71.5 118,104" fill="none" stroke="black" stroke-width="2" /><path d="M 148,123 Q 196.0,116.5 166,32 Q 136.0,113.5 180,121 Q 126.0,52.5 16,40 Q 70.5,128.0 207,134" fill="none" stroke="black" stroke-width="2" /><path d="M 79,18 Q 49.5,16.5 68,63 Q 92.0,-3.5 32,14 Q 126.5,35.0 175,10 Q 118.0,-14.0 123,24" fill="none" stroke="black" stroke-width="2" /></g></svg>