<?xml version="1.0" encoding="utf-8" ?>
<svg baseProfile="full" height="210mm" version="1.1" viewBox="0 0 297 210" width="297mm" xmlns="http://www.w3.org/2000/svg" xmlns:ev="http://www.w3.org/2001/xml-events" xmlns:xlink="http://www.w3.org/1999/xlink"><defs /><g transform="translate(43,30)"><path d="M 165,88 Q 129.0,142.0 179,110 Q 144.5,44.0 30,58 Q 5.0,125.0 54,118 Q 82.5,60.0 21,92" fill="none" stroke="black" stroke-width="2" /><path d="M 17,11 Q 6.0,88.0 49,111 Q 140.5,94.0 186,31 Q 141.5,53.5 161,140 Q 180.0,72.0 115,88" fill="none" stroke="black" stroke-width="2" /><path d="M 158,38 Q 127.5,30.0 147,72 Q 56.5,49.5 38,99 Q 47.5,149.5 147,110 Q 127.5,45.5 10,79" fill="none" stroke="black" stroke-width="2" /><path d="M 163,52 Q 180.0,1.0 143,4 Q 93.5,25.5 86,89 Q 60.5,143.0 95,137 Q 94.5,66.5 42,48" fill="none" stroke="black" stroke-width="2" /></g></svg>