<?xml version="1.0" encoding="utf-8" ?>
<svg baseProfile="full" height="210mm" version="1.1" viewBox="0 0 297 210" width="297mm" xmlns="http://www.w3.org/2000/svg" xmlns:ev="http://www.w3.org/2001/xml-events" xmlns:xlink="http://www.w3.org/1999/xlink"><defs /><g transform="translate(43,30)"><path d="M 16,92 Q 134.5,108.0 177,48 Q 218.0,65.5 185,9 Q 141.5,4.0 180,81 Q 128.5,17.5 25,6" fill="none" stroke="black" stroke-width="2" /><path d="M 202,83 Q 137.0,64.5 118,92 Q 75.0,114.0 118,136 Q 182.0,125.0 152,20 Q 135.5,72.5 195,49" fill="none" stroke="black" stroke-width="2" /><path d="M 108,13 Q 13.0,-23.5 10,32 Q -34.0,134.5 18,141 Q 104.0,141.0 146,97 Q 115.0,31.0 30,19" fill="none" stroke="black" stroke-width="2" /><path d="M 66,68 Q 156.5,86.5 165,23 Q 119.5,34.5 126,98 Q 114.0,20.5 38,7 Q 44.0,77.0 116,81" fill="none" stroke="black" stroke-width="2" /></g></svg>