<?xml version="1.0" encoding="utf-8" ?>
<svg baseProfile="full" height="210mm" version="1.1" viewBox="0 0 297 210" width="297mm" xmlns="http://www.w3.org/2000/svg" xmlns:ev="http://www.w3.org/2001/xml-events" xmlns:xlink="http://www.w3.org/1999/xlink"><defs /><g transform="translate(43,30)"><path d="M 122,118 Q 162.5,114.5 125,33 Q 101.0,4.0 31,21 Q 88.5,56.0 146,21 Q 130.0,96.5 154,132" fill="none" stroke="black" stroke-width="2" /><path d="M 171,68 Q 65.5,85.0 6,148 Q 69.0,133.0 72,58 Q 69.5,131.5 129,143 Q 192.5,121.5 182,26" fill="none" stroke="black" stroke-width="2" /><path d="M 58,123 Q 119.0,104.5 94,0 Q 54.5,48.5 55,137 Q 135.5,89.5 174,0 Q 165.5,82.5 203,119" fill="none" stroke="black" stroke-width="2" /><path d="M 135,102 Q 74.5,73.5 94,125 Q 112.5,89.5 83,102 Q 120.5,94.0 102,30 Q 118.5,-2.5 87,13" fill="none" stroke="black" stroke-width="2" /></g></svg>