<?xml version="1.0" encoding="utf-8" ?>
<svg baseProfile="full" height="210mm" version="1.1" viewBox="0 0 297 210" width="297mm" xmlns="http://www.w3.org/2000/svg" xmlns:ev="http://www.w3.org/2001/xml-events" xmlns:xlink="http://www.w3.org/1999/xlink"><defs /><g transform="translate(43,30)"><path d="M 48,138 Q 120.5,103.5 143,19 Q 144.5,99.0 188,137 Q 135.5,74.0 33,61 Q 33.5,114.5 78,124" fill="none" stroke="black" stroke-width="2" /><path d="M 86,25 Q 172.5,45.5 195,2 Q 151.5,53.5 198,15 Q 135.0,24.5 140,102 Q 133.0,133.0 176,114" fill="none" stroke="black" stroke-width="2" /><path d="M 205,16 Q 234.5,-32.0 178,6 Q 64.5,-30.5 43,25 Q 28.0,97.0 83,99 Q 136.5,112.0 94,29" fill="none" stroke="black" stroke-width="2" /><path d="M 58,42 Q 50.5,108.0 129,88 Q 100.5,19.5 4,19 Q 41.0,91.0 126,115 Q 109.5,142.5 133,130" fill="none" stroke="black" stroke-width="2" /></g></svg>