<?xml version="1.0" encoding="utf-8" ?>
<svg baseProfile="full" height="210mm" version="1.1" viewBox="0 0 297 210" width="297mm" xmlns="http://www.w3.org/2000/svg" xmlns:ev="http://www.w3.org/2001/xml-events" xmlns:xlink="http://www.w3.org/1999/xlink"><defs /><g transform="translate(43,30)"><path d="M 36,11 Q 138.0,46.0 168,9 Q 163.0,68.5 198,88 Q 160.0,46.5 72,55 Q 92.0,21.5 64,36" fill="none" stroke="black" stroke-width="2" /><path d="M 107,79 Q 180.5,89.0 196,41 Q 161.0,29.0 182,73 Q 95.5,55.0 81,109 Q 181.0,132.0 207,81" fill="none" stroke="black" stroke-width="2" /><path d="M 51,67 Q -13.0,45.5 19,120 Q 48.0,54.0 15,50 Q 48.5,58.5 34,19 Q 2.5,66.5 57,28" fill="none" stroke="black" stroke-width="2" /><path d="M 172,80 Q 156.5,27.5 65,51 Q 67.5,119.0 132,125 Q 191.0,125.5 166,42 Q 71.5,49.5 49,129" fill="none" stroke="black" stroke-width="2" /></g></svg>