<?xml version="1.0" encoding="utf-8" ?>
<svg baseProfile="full" height="210mm" version="1.1" viewBox="0 0 297 210" width="297mm" xmlns="http://www.w3.org/2000/svg" xmlns:ev="http://www.w3.org/2001/xml-events" xmlns:xlink="http://www.w3.org/1999/xlink"><defs /><g transform="translate(43,30)"><path d="M 123,13 Q 82.0,-15.0 109,25 Q 53.0,-24.0 97,27 Q 106.5,-15.0 58,1 Q 55.0,65.5 140,42" fill="none" stroke="black" stroke-width="2" /><path d="M 19,103 Q 147.5,97.5 210,26 Q 160.0,38.5 188,129 Q 154.0,177.0 208,137 Q 160.0,47.5 44,26" fill="none" stroke="black" stroke-width="2" /><path d="M 181,59 Q 104.5,58.0 100,129 Q 167.0,155.5 166,114 Q 155.0,60.5 68,83 Q 128.5,75.0 149,27" fill="none" stroke="black" stroke-width="2" /><path d="M 52,58 Q 31.5,124.5 95,107 Q 158.0,105.5 135,18 Q 106.5,105.0 150,120 Q 199.0,149.5 154,85" fill="none" stroke="black" stroke-width="2" /></g></svg>