<?xml version="1.0" encoding="utf-8" ?>
<svg baseProfile="full" height="210mm" version="1.1" viewBox="0 0 297 210" width="297mm" xmlns="http://www.w3.org/2000/svg" xmlns:ev="http://www.w3.org/2001/xml-events" xmlns:xlink="http://www.w3.org/1999/xlink"><defs /><g transform="translate(43,30)"><path d="M 160,113 Q 171.0,61.0 134,57 Q 184.5,64.0 173,9 Q 67.5,15.0 34,93 Q 137.0,121.0 162,71" fill="none" stroke="black" stroke-width="2" /><path d="M 113,67 Q 144.5,-1.5 96,10 Q 50.5,80.5 101,55 Q 62.0,74.5 63,134 Q 13.0,101.5 35,141" fill="none" stroke="black" stroke-width="2" /><path d="M 39,48 Q 102.5,83.0 68,20 Q 0.0,-1.5 8,53 Q -21.5,112.5 25,96 Q 78.5,118.5 56,65" fill="none" stroke="black" stroke-width="2" /><path d="M 163,45 Q 154.0,-14.0 71,1 Q 12.5,8.5 48,110 Q 65.5,67.0 39,68 Q 77.5,124.5 178,119" fill="none" stroke="black" stroke-width="2" /></g></svg>