<?xml version="1.0" encoding="utf-8" ?>
<svg baseProfile="full" height="210mm" version="1.1" viewBox="0 0 297 210" width="297mm" xmlns="http://www.w3.org/2000/svg" xmlns:ev="http://www.w3.org/2001/xml-events" xmlns:xlink="http://www.w3.org/1999/xlink"><defs /><g transform="translate(43,30)"><path d="M 85,116 Q 186.5,137.0 194,64 Q 77.5,58.0 53,144 Q 117.5,124.5 96,19 Q 31.5,39.0 49,141" fill="none" stroke="black" stroke-width="2" /><path d="M 193,116 Q 171.0,47.0 49,78 Q 94.0,122.0 207,98 Q 157.5,93.5 160,141 Q 185.0,78.5 158,68" fill="none" stroke="black" stroke-width="2" /><path d="M 199,24 Q 77.5,40.0 22,122 Q -9.0,177.0 46,146 Q 124.5,163.5 103,81 Q 153.5,94.0 126,29" fill="none" stroke="black" stroke-width="2" /><path d="M 94,26 Q 89.0,75.0 140,68 Q 185.5,95.5 143,35 Q 32.0,0.0 3,47 Q 99.5,56.5 134,4" fill="none" stroke="black" stroke-width="2" /></g></svg>