<?xml version="1.0" encoding="utf-8" ?>
<svg baseProfile="full" height="210mm" version="1.1" viewBox="0 0 297 210" width="297mm" xmlns="http://www.w3.org/2000/svg" xmlns:ev="http://www.w3.org/2001/xml-events" xmlns:xlink="http://www.w3.org/1999/xlink"><defs /><g transform="translate(43,30)"><path d="M 156,30 Q 119.0,111.5 162,113 Q 112.5,77.5 23,82 Q 63.0,120.0 157,104 Q 98.0,92.0 89,130" fill="none" stroke="black" stroke-width="2" /><path d="M 108,19 Q 113.5,122.0 203,141 Q 174.0,144.0 203,147 Q 201.0,124.5 157,144 Q 168.0,52.0 139,0" fill="none" stroke="black" stroke-width="2" /><path d="M 58,42 Q 10.0,20.5 46,83 Q 78.5,130.5 167,122 Q 168.0,77.0 103,98 Q 168.0,98.5 143,9" fill="none" stroke="black" stroke-width="2" /><path d="M 146,81 Q 128.0,156.5 202,140 Q 216.5,60.0 135,76 Q 190.0,76.0 199,30 Q 164.0,69.5 199,109" fill="none" stroke="black" stroke-width="2" /></g></svg>