<?xml version="1.0" encoding="utf-8" ?>
<svg baseProfile="full" height="210mm" version="1.1" viewBox="0 0 297 210" width="297mm" xmlns="http://www.w3.org/2000/svg" xmlns:ev="http://www.w3.org/2001/xml-events" xmlns:xlink="http://www.w3.org/1999/xlink"><defs /><g transform="translate(43,30)"><path d="M 108,72 Q 46.5,39.0 65,86 Q 73.0,151.0 179,118 Q 151.0,29.5 41,23 Q 57.0,58.5 125,42" fill="none" stroke="black" stroke-width="2" /><path d="M 138,74 Q 44.0,42.0 24,84 Q 73.0,72.5 68,7 Q 101.0,59.5 178,68 Q 78.5,73.0 21,120" fill="none" stroke="black" stroke-width="2" /><path d="M 24,41 Q 70.5,106.0 199,89 Q 138.5,56.0 146,91 Q 116.0,161.0 172,145 Q 154.0,107.5 84,122" fill="none" stroke="black" stroke-width="2" /><path d="M 99,131 Q 133.5,141.5 102,86 Q 115.0,25.0 52,40 Q 60.5,119.5 129,139 Q 122.0,163.0 155,147" fill="none" stroke="black" stroke-width="2" /></g></svg>