<?xml version="1.0" encoding="utf-8" ?>
<svg baseProfile="full" height="210mm" version="1.1" viewBox="0 0 297 210" width="297mm" xmlns="http://www.w3.org/2000/svg" xmlns:ev="http://www.w3.org/2001/xml-events" xmlns:xlink="http://www.w3.org/1999/xlink"><defs /><g transform="translate(43,30)"><path d="M 66,97 Q 82.0,42.5 38,48 Q 7.0,92.5 40,73 Q 33.0,119.0 78,113 Q 96.5,33.5 41,28" fill="none" stroke="black" stroke-width="2" /><path d="M 62,85 Q 137.0,97.0 140,37 Q 44.0,45.5 16,122 Q 125.5,138.0 179,98 Q 75.0,74.0 47,126" fill="none" stroke="black" stroke-width="2" /><path d="M 47,127 Q 167.0,129.5 195,40 Q 204.0,17.0 169,38 Q 125.5,1.5 18,29 Q 30.5,62.0 91,47" fill="none" stroke="black" stroke-width="2" /><path d="M 108,145 Q 141.5,66.5 79,84 Q 139.0,95.5 147,55 Q 63.5,22.5 50,60 Q 93.5,128.5 191,143" fill="none" stroke="black" stroke-width="2" /></g></svg>