<?xml version="1.0" encoding="utf-8" ?>
<svg baseProfile="full" height="210mm" version="1.1" viewBox="0 0 297 210" width="297mm" xmlns="http://www.w3.org/2000/svg" xmlns:ev="http://www.w3.org/2001/xml-events" xmlns:xlink="http://www.w3.org/1999/xlink"><defs /><g transform="translate(43,30)"><path d="M 104,125 Q 147.5,139.0 119,81 Q 40.0,40.0 61,99 Q 29.5,137.5 70,104 Q 151.5,100.0 155,18" fill="none" stroke="black" stroke-width="2" /><path d="M 129,137 Q 138.5,39.0 52,37 Q -0.5,17.5 5,56 Q 15.0,99.0 85,82 Q 87.0,145.0 159,138" fill="none" stroke="black" stroke-width="2" /><path d="M 191,133 Q 155.0,109.0 175,141 Q 210.0,153.5 185,106 Q 182.0,43.0 81,78 Q 125.0,89.0 119,50" fill="none" stroke="black" stroke-width="2" /><path d="M 93,120 Q 60.5,165.0 100,138 Q 75.0,54.5 10,11 Q 27.5,119.5 129,144 Q 112.0,91.5 1,133" fill="none" stroke="black" stroke-width="2" /></g></svg>