<?xml version="1.0" encoding="utf-8" ?>
<svg baseProfile="full" height="210mm" version="1.1" viewBox="0 0 297 210" width="297mm" xmlns="http://www.w3.org/2000/svg" xmlns:ev="http://www.w3.org/2001/xml-events" xmlns:xlink="http://www.w3.org/1999/xlink"><defs /><g transform="translate(43,30)"><path d="M 12,110 Q 75.5,85.5 85,7 Q 59.5,114.5 118,138 Q 149.5,143.5 121,89 Q 119.0,65.5 75,84" fill="none" stroke="black" stroke-width="2" /><path d="M 168,20 Q 145.5,69.0 179,62 Q 140.5,31.0 174,72 Q 173.0,20.5 128,13 Q 23.5,8.0 17,101" fill="none" stroke="black" stroke-width="2" /><path d="M 76,64 Q 135.0,80.0 98,0 Q 17.5,-39.0 37,22 Q 95.0,82.0 201,94 Q 136.0,58.0 23,70" fill="none" stroke="black" stroke-width="2" /><path d="M 129,52 Q 80.5,22.0 102,62 Q 118.0,99.0 206,64 Q 193.0,23.0 100,62 Q 19.5,42.5 37,121" fill="none" stroke="black" stroke-width="2" /></g></svg>