<?xml version="1.0" encoding="utf-8" ?>
<svg baseProfile="full" height="210mm" version="1.1" viewBox="0 0 297 210" width="297mm" xmlns="http://www.w3.org/2000/svg" xmlns:ev="http://www.w3.org/2001/xml-events" xmlns:xlink="http://www.w3.org/1999/xlink"><defs /><g transform="translate(43,30)"><path d="M 79,134 Q 164.0,147.5 159,71 Q 166.0,26.0 111,43 Q 38.5,19.0 24,53 Q 126.0,95.5 140,50" fill="none" stroke="black" stroke-width="2" /><path d="M 137,57 Q 29.5,27.5 14,90 Q 91.5,127.0 79,74 Q 98.5,28.5 76,25 Q 90.5,112.5 171,134" fill="none" stroke="black" stroke-width="2" /><path d="M 23,1 Q 30.0,105.5 131,116 Q 106.5,47.0 34,26 Q 40.0,112.5 116,129 Q 202.0,108.5 210,10" fill="none" stroke="black" stroke-width="2" /><path d="M 117,42 Q 36.5,19.5 18,59 Q -14.5,127.5 25,124 Q 136.5,133.0 186,80 Q 135.0,62.5 182,143" fill="none" stroke="black" stroke-width="2" /></g></svg>