<?xml version="1.0" encoding="utf-8" ?>
<svg baseProfile="full" height="210mm" version="1.1" viewBox="0 0 297 210" width="297mm" xmlns="http://www.w3.org/2000/svg" xmlns:ev="http://www.w3.org/2001/xml-events" xmlns:xlink="http://www.w3.org/1999/xlink"><defs /><g transform="translate(43,30)"><path d="M 168,15 Q 130.5,26.0 145,89 Q 160.0,19.0 109,15 Q 129.0,55.0 197,47 Q 72.5,34.0 26,99" fill="none" stroke="black" stroke-width="2" /><path d="M 28,7 Q 2.0,67.0 70,33 Q 14.5,27.5 55,118 Q 121.0,152.0 91,90 Q 159.0,86.0 149,4" fill="none" stroke="black" stroke-width="2" /><path d="M 199,42 Q 98.5,29.5 64,83 Q 124.5,103.5 89,28 Q 78.0,57.5 119,35 Q 46.0,0.0 53,45" fill="none" stroke="black" stroke-width="2" /><path d="M 73,109 Q 3.0,72.0 25,127 Q 69.5,134.0 56,83 Q 158.5,116.5 169,58 Q 61.0,42.0 45,118" fill="none" stroke="black" stroke-width="2" /></g></svg>