<?xml version="1.0" encoding="utf-8" ?>
<svg baseProfile="full" height="210mm" version="1.1" viewBox="0 0 297 210" width="297mm" xmlns="http://www.w3.org/2000/svg" xmlns:ev="http://www.w3.org/2001/xml-events" xmlns:xlink="http://www.w3.org/1999/xlink"><defs /><g transform="translate(43,30)"><path d="M 65,122 Q 166.0,128.5 209,77 Q 120.0,56.0 119,123 Q 160.0,148.5 141,114 Q 198.0,139.0 173,82" fill="none" stroke="black" stroke-width="2" /><path d="M 66,28 Q 71.0,80.0 152,56 Q 135.0,15.5 54,39 Q 119.0,71.5 100,20 Q 40.5,-12.5 73,47" fill="none" stroke="black" stroke-width="2" /><path d="M 67,59 Q 119.5,90.0 88,37 Q -1.5,-8.5 7,44 Q 146.5,74.5 196,15 Q 123.0,29.5 118,112" fill="none" stroke="black" stroke-width="2" /><path d="M 119,15 Q 65.0,-17.0 99,39 Q 38.5,24.5 20,52 Q 80.5,88.5 181,85 Q 89.0,61.0 67,107" fill="none" stroke="black" stroke-width="2" /></g></svg>