<?xml version="1.0" encoding="utf-8" ?>
<svg baseProfile="full" height="210mm" version="1.1" viewBox="0 0 297 210" width="297mm" xmlns="http://www.w3.org/2000/svg" xmlns:ev="http://www.w3.org/2001/xml-events" xmlns:xlink="http://www.w3.org/1999/xlink"><defs /><g transform="translate(43,30)"><path d="M 153,16 Q 96.0,3.5 83,35 Q 48.5,41.5 54,88 Q 57.5,148.0 127,142 Q 107.0,76.0 29,68" fill="none" stroke="black" stroke-width="2" /><path d="M 130,21 Q 59.0,14.5 72,92 Q 155.5,114.0 151,48 Q 153.0,-9.5 77,11 Q 72.5,81.0 110,109" fill="none" stroke="black" stroke-width="2" /><path d="M 185,37 Q 155.5,78.5 206,40 Q 156.0,-17.0 22,10 Q 53.5,64.0 163,40 Q 67.0,24.0 63,100" fill="none" stroke="black" stroke-width="2" /><path d="M 77,87 Q 56.5,147.0 100,143 Q 120.5,106.0 69,141 Q 119.5,179.0 170,141 Q 119.0,64.5 2,54" fill="none" stroke="black" stroke-width="2" /></g></svg>