<?xml version="1.0" encoding="utf-8" ?>
<svg baseProfile="full" height="210mm" version="1.1" viewBox="0 0 297 210" width="297mm" xmlns="http://www.w3.org/2000/svg" xmlns:ev="http://www.w3.org/2001/xml-events" xmlns:xlink="http://www.w3.org/1999/xlink"><defs /><g transform="translate(43,30)"><path d="M 155,82 Q 175.0,15.0 109,34 Q 39.0,-2.5 45,37 Q 6.5,17.0 38,67 Q 98.5,70.0 119,33" fill="none" stroke="black" stroke-width="2" /><path d="M 29,84 Q 51.0,121.5 119,113 Q 166.0,105.5 131,16 Q 117.5,82.0 154,98 Q 200.0,46.5 150,91" fill="none" stroke="black" stroke-width="2" /><path d="M 138,6 Q 141.5,90.0 197,122 Q 229.0,34.0 175,32 Q 148.5,51.0 168,116 Q 122.0,47.0 22,32" fill="none" stroke="black" stroke-width="2" /><path d="M 118,111 Q 37.5,79.5 37,128 Q 149.5,120.5 168,19 Q 112.5,40.0 99,103 Q 49.0,68.0 81,115" fill="none" stroke="black" stroke-width="2" /></g></svg>