<?xml version="1.0" encoding="utf-8" ?>
<svg baseProfile="full" height="210mm" version="1.1" viewBox="0 0 297 210" width="297mm" xmlns="http://www.w3.org/2000/svg" xmlns:ev="http://www.w3.org/2001/xml-events" xmlns:xlink="http://www.w3.org/1999/xlink"><defs /><g transform="translate(43,30)"><path d="M 125,81 Q 83.5,78.0 108,141 Q 153.5,146.0 113,65 Q 72.5,132.5 120,112 Q 137.0,78.0 90,108" fill="none" stroke="black" stroke-width="2" /><path d="M 203,128 Q 161.5,48.0 40,48 Q 15.0,92.5 54,73 Q 59.5,136.5 149,116 Q 174.5,49.5 134,49" fill="none" stroke="black" stroke-width="2" /><path d="M 142,94 Q 98.5,41.5 5,39 Q 42.5,129.5 168,132 Q 131.0,65.0 24,68 Q 82.0,135.0 204,138" fill="none" stroke="black" stroke-width="2" /><path d="M 210,57 Q 166.0,27.5 80,40 Q 33.0,22.0 32,50 Q 79.0,112.5 196,105 Q 202.5,129.0 209,105" fill="none" stroke="black" stroke-width="2" /></g></svg>