<?xml version="1.0" encoding="utf-8" ?>
<svg baseProfile="full" height="210mm" version="1.1" viewBox="0 0 297 210" width="297mm" xmlns="http://www.w3.org/2000/svg" xmlns:ev="http://www.w3.org/2001/xml-events" xmlns:xlink="http://www.w3.org/1999/xlink"><defs /><g transform="translate(43,30)"><path d="M 47,68 Q 114.0,80.5 107,19 Q 85.5,-8.5 24,4 Q 19.0,86.5 114,69 Q 62.0,44.5 88,98" fill="none" stroke="black" stroke-width="2" /><path d="M 13,72 Q 61.5,117.0 150,122 Q 41.5,88.0 17,138 Q 74.0,124.0 57,36 Q 15.0,49.5 47,137" fill="none" stroke="black" stroke-width="2" /><path d="M 135,82 Q 76.5,67.5 108,143 Q 196.0,158.5 192,82 Q 219.0,93.5 206,65 Q 94.5,54.0 63,123" fill="none" stroke="black" stroke-width="2" /><path d="M 149,145 Q 136.5,122.0 124,145 Q 211.0,186.5 200,130 Q 184.5,55.0 107,42 Q 84.5,109.5 162,77" fill="none" stroke="black" stroke-width="2" /></g></svg>