<?xml version="1.0" encoding="utf-8" ?>
<svg baseProfile="full" height="210mm" version="1.1" viewBox="0 0 297 210" width="297mm" xmlns="http://www.w3.org/2000/svg" xmlns:ev="http://www.w3.org/2001/xml-events" xmlns:xlink="http://www.w3.org/1999/xlink"><defs /><g transform="translate(43,30)"><path d="M 15,43 Q 61.0,84.0 157,75 Q 131.5,146.5 178,146 Q 178.5,66.0 101,64 Q 99.5,-14.5 0,5" fill="none" stroke="black" stroke-width="2" /><path d="M 55,85 Q 32.0,124.5 73,100 Q 140.5,118.5 134,63 Q 151.0,33.0 120,51 Q 164.5,59.0 149,7" fill="none" stroke="black" stroke-width="2" /><path d="M 117,92 Q 36.5,72.5 4,101 Q 100.5,95.0 121,13 Q 84.0,16.0 101,73 Q 106.0,12.5 51,12" fill="none" stroke="black" stroke-width="2" /><path d="M 42,126 Q 52.0,55.0 8,38 Q 5.5,96.5 93,65 Q 159.5,95.5 134,34 Q 66.0,25.5 90,109" fill="none" stroke="black" stroke-width="2" /></g></svg>