<?xml version="1.0" encoding="utf-8" ?>
<svg baseProfile="full" height="210mm" version="1.1" viewBox="0 0 297 210" width="297mm" xmlns="http://www.w3.org/2000/svg" xmlns:ev="http://www.w3.org/2001/xml-events" xmlns:xlink="http://www.w3.org/1999/xlink"><defs /><g transform="translate(43,30)"><path d="M 42,117 Q 109.5,80.5 133,0 Q 52.0,14.0 19,76 Q 23.5,141.0 124,110 Q 146.5,48.5 107,49" fill="none" stroke="black" stroke-width="2" /><path d="M 18,20 Q -12.5,14.0 11,62 Q 50.0,66.5 43,25 Q 32.0,93.0 109,73 Q 86.0,55.5 107,82" fill="none" stroke="black" stroke-width="2" /><path d="M 65,3 Q 56.0,59.0 89,73 Q 186.0,88.0 183,3 Q 135.5,9.5 170,98 Q 194.0,54.5 142,87" fill="none" stroke="black" stroke-width="2" /><path d="M 19,108 Q -32.5,60.5 12,109 Q 81.5,148.5 53,90 Q 124.0,94.0 119,22 Q 35.5,-11.5 50,53" fill="none" stroke="black" stroke-width="2" /></g></svg>