<?xml version="1.0" encoding="utf-8" ?>
<svg baseProfile="full" height="210mm" version="1.1" viewBox="0 0 297 210" width="297mm" xmlns="http://www.w3.org/2000/svg" xmlns:ev="http://www.w3.org/2001/xml-events" xmlns:xlink="http://www.w3.org/1999/xlink"><defs /><g transform="translate(43,30)"><path d="M 56,80 Q 122.0,123.5 90,69 Q 100.0,129.0 160,139 Q 189.5,59.5 137,62 Q 119.5,23.5 32,55" fill="none" stroke="black" stroke-width="2" /><path d="M 129,29 Q 61.0,23.5 57,82 Q 73.0,125.0 171,86 Q 175.5,33.0 80,80 Q 51.5,145.5 91,143" fill="none" stroke="black" stroke-width="2" /><path d="M 107,5 Q 90.0,40.5 113,36 Q 154.0,63.5 119,15 Q 75.5,35.5 110,134 Q 121.0,74.0 66,80" fill="none" stroke="black" stroke-width="2" /><path d="M 74,1 Q 66.0,49.0 128,27 Q 179.0,48.0 172,11 Q 89.0,22.5 54,82 Q 62.0,128.0 120,124" fill="none" stroke="black" stroke-width="2" /></g></svg>