<?xml version="1.0" encoding="utf-8" ?>
<svg baseProfile="full" height="210mm" version="1.1" viewBox="0 0 297 210" width="297mm" xmlns="http://www.w3.org/2000/svg" xmlns:ev="http://www.w3.org/2001/xml-events" xmlns:xlink="http://www.w3.org/1999/xlink"><defs /><g transform="translate(43,30)"><path d="M 23,36 Q 72.0,72.0 161,68 Q 54.0,74.0 1,134 Q 50.0,144.0 33,88 Q 113.5,98.0 102,16" fill="none" stroke="black" stroke-width="2" /><path d="M 106,102 Q 18.0,75.0 30,148 Q 105.0,119.0 132,42 Q 111.5,116.5 183,99 Q 238.5,127.0 204,65" fill="none" stroke="black" stroke-width="2" /><path d="M 153,37 Q 116.5,4.0 34,17 Q 76.5,74.0 173,77 Q 120.5,10.5 6,6 Q 112.0,42.0 140,0" fill="none" stroke="black" stroke-width="2" /><path d="M 190,96 Q 218.0,58.5 188,79 Q 100.0,62.0 74,107 Q 87.5,55.5 39,66 Q 137.0,82.0 157,20" fill="none" stroke="black" stroke-width="2" /></g></svg>