<?xml version="1.0" encoding="utf-8" ?>
<svg baseProfile="full" height="210mm" version="1.1" viewBox="0 0 297 210" width="297mm" xmlns="http://www.w3.org/2000/svg" xmlns:ev="http://www.w3.org/2001/xml-events" xmlns:xlink="http://www.w3.org/1999/xlink"><defs /><g transform="translate(43,30)"><path d="M 5,139 Q 111.0,110.5 137,2 Q 121.0,50.0 167,36 Q 227.5,66.5 196,5 Q 106.0,-13.5 92,44" fill="none" stroke="black" stroke-width="2" /><path d="M 39,30 Q 48.0,78.0 135,48 Q 113.0,85.0 163,50 Q 136.0,-9.0 9,32 Q 35.5,84.5 108,91" fill="none" stroke="black" stroke-width="2" /><path d="M 143,44 Q 191.5,68.0 160,12 Q 97.0,8.5 114,85 Q 82.0,21.0 2,5 Q 63.0,73.5 210,56" fill="none" stroke="black" stroke-width="2" /><path d="M 65,5 Q 66.5,66.5 150,46 Q 49.5,30.0 9,74 Q 33.0,132.0 157,90 Q 123.0,77.0 135,110" fill="none" stroke="black" stroke-width="2" /></g></svg>