<?xml version="1.0" encoding="utf-8" ?>
<svg baseProfile="full" height="210mm" version="1.1" viewBox="0 0 297 210" width="297mm" xmlns="http://www.w3.org/2000/svg" xmlns:ev="http://www.w3.org/2001/xml-events" xmlns:xlink="http://www.w3.org/1999/xlink"><defs /><g transform="translate(43,30)"><path d="M 121,67 Q 84.5,76.5 90,128 Q 103.5,175.5 207,133 Q 202.5,56.0 152,25 Q 120.0,71.0 172,33" fill="none" stroke="black" stroke-width="2" /><path d="M 134,84 Q 169.5,8.5 127,11 Q 38.0,20.0 37,117 Q 116.0,135.0 99,57 Q 7.5,40.5 2,110" fill="none" stroke="black" stroke-width="2" /><path d="M 13,129 Q 71.5,137.5 76,92 Q 76.5,150.5 159,127 Q 211.0,143.5 197,94 Q 174.5,19.0 94,2" fill="none" stroke="black" stroke-width="2" /><path d="M 155,55 Q 191.0,-6.0 147,13 Q 111.5,38.5 146,134 Q 203.0,133.5 194,67 Q 224.5,69.5 195,12" fill="none" stroke="black" stroke-width="2" /></g></svg>