<?xml version="1.0" encoding="utf-8" ?>
<svg baseProfile="full" height="210mm" version="1.1" viewBox="0 0 297 210" width="297mm" xmlns="http://www.w3.org/2000/svg" xmlns:ev="http://www.w3.org/2001/xml-events" xmlns:xlink="http://www.w3.org/1999/xlink"><defs /><g transform="translate(43,30)"><path d="M 46,58 Q 76.0,2.0 34,18 Q 80.5,51.5 191,21 Q 102.0,11.5 53,42 Q 13.0,10.0 45,50" fill="none" stroke="black" stroke-width="2" /><path d="M 65,123 Q 137.0,102.5 155,28 Q 117.5,13.0 142,60 Q 149.0,-8.0 76,4 Q 6.5,-16.0 29,56" fill="none" stroke="black" stroke-width="2" /><path d="M 26,32 Q 13.5,86.5 93,49 Q 53.5,145.5 114,142 Q 113.5,54.5 59,21 Q 47.0,71.0 103,53" fill="none" stroke="black" stroke-width="2" /><path d="M 173,74 Q 90.0,67.0 79,132 Q 100.0,157.5 165,139 Q 196.5,36.0 158,3 Q 92.0,19.0 120,129" fill="none" stroke="black" stroke-width="2" /></g></svg>