<?xml version="1.0" encoding="utf-8" ?>
<svg baseProfile="full" height="210mm" version="1.1" viewBox="0 0 297 210" width="297mm" xmlns="http://www.w3.org/2000/svg" xmlns:ev="http://www.w3.org/2001/xml-events" xmlns:xlink="http://www.w3.org/1999/xlink"><defs /><g transform="translate(43,30)"><path d="M 202,5 Q 138.5,-26.5 163,30 Q 69.0,11.0 53,70 Q 67.5,15.5 22,21 Q 44.5,54.0 123,31" fill="none" stroke="black" stroke-width="2" /><path d="M 99,36 Q 112.5,80.0 194,56 Q 169.0,102.0 208,84 Q 61.5,57.5 11,127 Q 130.5,127.5 158,36" fill="none" stroke="black" stroke-width="2" /><path d="M 6,123 Q 28.0,154.5 110,126 Q 174.0,123.5 184,67 Q 57.0,43.5 4,94 Q 32.0,136.0 130,108" fill="none" stroke="black" stroke-width="2" /><path d="M 83,5 Q 45.0,63.0 101,27 Q 64.5,77.5 116,40 Q 123.5,7.5 81,25 Q 29.5,8.5 74,88" fill="none" stroke="black" stroke-width="2" /></g></svg>