<?xml version="1.0" encoding="utf-8" ?>
<svg baseProfile="full" height="210mm" version="1.1" viewBox="0 0 297 210" width="297mm" xmlns="http://www.w3.org/2000/svg" xmlns:ev="http://www.w3.org/2001/xml-events" xmlns:xlink="http://www.w3.org/1999/xlink"><defs /><g transform="translate(43,30)"><path d="M 83,87 Q 36.5,141.0 88,97 Q 162.0,103.0 180,53 Q 130.5,39.5 153,98 Q 127.5,62.0 50,78" fill="none" stroke="black" stroke-width="2" /><path d="M 162,12 Q 71.0,16.5 36,77 Q 62.0,141.0 174,119 Q 149.5,22.0 37,13 Q 94.5,65.5 206,64" fill="none" stroke="black" stroke-width="2" /><path d="M 201,80 Q 194.5,13.0 124,10 Q 87.0,120.0 150,130 Q 155.0,28.5 70,17 Q 177.5,52.5 197,0" fill="none" stroke="black" stroke-width="2" /><path d="M 35,128 Q 138.5,130.5 152,43 Q 129.0,112.5 162,126 Q 145.0,73.0 38,110 Q 114.0,104.5 96,5" fill="none" stroke="black" stroke-width="2" /></g></svg>