<?xml version="1.0" encoding="utf-8" ?>
<svg baseProfile="full" height="210mm" version="1.1" viewBox="0 0 297 210" width="297mm" xmlns="http://www.w3.org/2000/svg" xmlns:ev="http://www.w3.org/2001/xml-events" xmlns:xlink="http://www.w3.org/1999/xlink"><defs /><g transform="translate(43,30)"><path d="M 199,102 Q 176.0,15.5 77,5 Q 27.0,-2.5 29,42 Q 88.0,107.5 193,127 Q 208.0,74.0 125,119" fill="none" stroke="black" stroke-width="2" /><path d="M 23,55 Q 0.5,99.5 66,56 Q 102.5,-19.0 39,6 Q 0.5,110.5 62,115 Q 120.0,115.5 128,66" fill="none" stroke="black" stroke-width="2" /><path d="M 97,92 Q 132.5,51.0 94,84 Q 152.0,90.0 146,32 Q 71.5,52.5 65,141 Q 140.0,127.5 169,68" fill="none" stroke="black" stroke-width="2" /><path d="M 101,91 Q 177.5,95.5 194,40 Q 65.5,28.0 7,86 Q 78.0,100.5 63,29 Q 76.0,66.0 137,55" fill="none" stroke="black" stroke-width="2" /></g></svg>