<?xml version="1.0" encoding="utf-8" ?>
<svg baseProfile="full" height="210mm" version="1.1" viewBox="0 0 297 210" width="297mm" xmlns="http://www.w3.org/2000/svg" xmlns:ev="http://www.w3.org/2001/xml-events" xmlns:xlink="http://www.w3.org/1999/xlink"><defs /><g transform="translate(43,30)"><path d="M 160,127 Q 211.5,125.5 163,24 Q 118.0,30.5 121,85 Q 130.0,133.5 179,142 Q 190.5,51.0 142,20" fill="none" stroke="black" stroke-width="2" /><path d="M 175,61 Q 195.5,16.0 146,41 Q 49.5,38.0 51,133 Q 105.0,165.5 75,114 Q 156.5,139.5 186,113" fill="none" stroke="black" stroke-width="2" /><path d="M 111,44 Q 92.0,115.5 121,139 Q 194.0,149.5 173,66 Q 64.5,67.0 4,116 Q 119.5,97.0 195,38" fill="none" stroke="black" stroke-width="2" /><path d="M 21,127 Q 133.0,144.0 163,79 Q 73.5,65.5 68,136 Q 186.0,130.0 210,30 Q 98.5,-13.5 77,33" fill="none" stroke="black" stroke-width="2" /></g></svg>