<?xml version="1.0" encoding="utf-8" ?>
<svg baseProfile="full" height="210mm" version="1.1" viewBox="0 0 297 210" width="297mm" xmlns="http://www.w3.org/2000/svg" xmlns:ev="http://www.w3.org/2001/xml-events" xmlns:xlink="http://www.w3.org/1999/xlink"><defs /><g transform="translate(43,30)"><path d="M 129,89 Q 74.0,72.5 63,100 Q 90.0,155.5 205,123 Q 216.0,27.5 145,14 Q 130.0,76.5 203,51" fill="none" stroke="black" stroke-width="2" /><path d="M 24,33 Q -0.5,113.5 39,130 Q 119.0,149.0 125,94 Q 114.5,19.5 12,37 Q 60.5,104.5 159,122" fill="none" stroke="black" stroke-width="2" /><path d="M 142,148 Q 115.0,38.0 4,12 Q 26.5,97.5 101,131 Q 141.5,64.5 100,80 Q 84.0,31.0 12,38" fill="none" stroke="black" stroke-width="2" /><path d="M 139,97 Q 172.5,45.0 114,85 Q 185.0,109.0 176,53 Q 94.0,56.5 54,102 Q 73.5,149.0 173,116" fill="none" stroke="black" stroke-width="2" /></g></svg>