<?xml version="1.0" encoding="utf-8" ?>
<svg baseProfile="full" height="210mm" version="1.1" viewBox="0 0 297 210" width="297mm" xmlns="http://www.w3.org/2000/svg" xmlns:ev="http://www.w3.org/2001/xml-events" xmlns:xlink="http://www.w3.org/1999/xlink"><defs /><g transform="translate(43,30)"><path d="M 110,88 Q 127.0,15.0 64,22 Q 16.5,38.5 59,145 Q 81.5,91.5 24,118 Q 65.0,35.0 20,38" fill="none" stroke="black" stroke-width="2" /><path d="M 154,142 Q 205.0,140.0 180,62 Q 239.5,80.0 209,8 Q 157.5,27.5 200,141 Q 190.5,65.5 141,30" fill="none" stroke="black" stroke-width="2" /><path d="M 49,14 Q 60.5,91.5 138,103 Q 92.0,97.5 96,142 Q 178.5,151.5 181,81 Q 199.5,0.5 128,10" fill="none" stroke="black" stroke-width="2" /><path d="M 69,55 Q 186.0,81.0 203,7 Q 82.0,41.0 25,139 Q 67.0,117.0 57,43 Q 102.5,104.0 210,103" fill="none" stroke="black" stroke-width="2" /></g></svg>