<?xml version="1.0" encoding="utf-8" ?>
<svg baseProfile="full" height="210mm" version="1.1" viewBox="0 0 297 210" width="297mm" xmlns="http://www.w3.org/2000/svg" xmlns:ev="http://www.w3.org/2001/xml-events" xmlns:xlink="http://www.w3.org/1999/xlink"><defs /><g transform="translate(43,30)"><path d="M 28,22 Q 56.0,59.0 148,32 Q 121.5,115.5 163,131 Q 167.5,77.0 106,89 Q 150.0,40.0 98,87" fill="none" stroke="black" stroke-width="2" /><path d="M 88,127 Q 166.5,149.5 193,120 Q 169.0,76.0 65,112 Q 120.0,137.5 113,101 Q 141.0,108.5 119,66" fill="none" stroke="black" stroke-width="2" /><path d="M 40,145 Q 61.0,69.0 34,41 Q 12.0,94.5 76,62 Q 73.5,119.0 157,90 Q 205.5,92.0 204,44" fill="none" stroke="black" stroke-width="2" /><path d="M 72,18 Q 127.0,34.5 132,1 Q 125.0,103.0 202,121 Q 238.5,115.0 209,43 Q 146.5,50.0 146,119" fill="none" stroke="black" stroke-width="2" /></g></svg>