<?xml version="1.0" encoding="utf-8" ?>
<svg baseProfile="full" height="210mm" version="1.1" viewBox="0 0 297 210" width="297mm" xmlns="http://www.w3.org/2000/svg" xmlns:ev="http://www.w3.org/2001/xml-events" xmlns:xlink="http://www.w3.org/1999/xlink"><defs /><g transform="translate(43,30)"><path d="M 31,122 Q 42.5,161.0 120,134 Q 163.5,154.0 129,96 Q 150.0,19.0 81,32 Q 106.5,39.5 92,7" fill="none" stroke="black" stroke-width="2" /><path d="M 62,135 Q 134.0,142.5 126,70 Q 162.0,6.5 104,37 Q 83.0,91.0 148,59 Q 145.0,0.5 58,26" fill="none" stroke="black" stroke-width="2" /><path d="M 65,65 Q 48.5,105.0 78,99 Q 126.0,31.0 76,61 Q 57.0,111.0 80,119 Q 144.0,152.0 140,117" fill="none" stroke="black" stroke-width="2" /><path d="M 111,29 Q 28.0,35.0 13,109 Q 27.5,176.5 142,144 Q 176.5,164.5 169,143 Q 130.0,60.0 9,59" fill="none" stroke="black" stroke-width="2" /></g></svg>