<?xml version="1.0" encoding="utf-8" ?>
<svg baseProfile="full" height="210mm" version="1.1" viewBox="0 0 297 210" width="297mm" xmlns="http://www.w3.org/2000/svg" xmlns:ev="http://www.w3.org/2001/xml-events" xmlns:xlink="http://www.w3.org/1999/xlink"><defs /><g transform="translate(43,30)"><path d="M 48,54 Q 72.5,-11.0 21,0 Q 12.5,54.0 76,36 Q 24.0,47.5 54,141 Q 117.5,165.0 121,129" fill="none" stroke="black" stroke-width="2" /><path d="M 147,91 Q 52.5,82.5 20,136 Q 90.0,115.5 102,37 Q 98.5,4.0 47,19 Q 6.0,93.0 53,79" fill="none" stroke="black" stroke-width="2" /><path d="M 45,77 Q 116.0,76.5 129,18 Q 120.0,82.5 163,95 Q 117.5,27.0 14,17 Q -31.0,-24.5 10,20" fill="none" stroke="black" stroke-width="2" /><path d="M 29,100 Q 114.0,105.5 137,49 Q 112.5,95.5 166,64 Q 116.0,33.0 10,58 Q 1.0,126.5 62,125" fill="none" stroke="black" stroke-width="2" /></g></svg>