<?xml version="1.0" encoding="utf-8" ?>
<svg baseProfile="full" height="210mm" version="1.1" viewBox="0 0 297 210" width="297mm" xmlns="http://www.w3.org/2000/svg" xmlns:ev="http://www.w3.org/2001/xml-events" xmlns:xlink="http://www.w3.org/1999/xlink"><defs /><g transform="translate(43,30)"><path d="M 145,134 Q 163.5,39.0 98,28 Q 97.0,102.0 166,106 Q 183.5,27.0 131,18 Q 68.0,-8.5 103,63" fill="none" stroke="black" stroke-width="2" /><path d="M 205,49 Q 222.5,7.5 200,6 Q 86.0,-10.0 14,16 Q 41.5,75.5 133,71 Q 211.5,101.0 198,39" fill="none" stroke="black" stroke-width="2" /><path d="M 122,133 Q 170.5,138.0 131,55 Q 164.5,68.0 150,33 Q 103.0,-1.0 140,49 Q 90.5,23.5 115,72" fill="none" stroke="black" stroke-width="2" /><path d="M 164,111 Q 182.5,57.0 137,67 Q 87.5,56.0 116,123 Q 145.5,79.0 113,97 Q 93.5,50.5 30,48" fill="none" stroke="black" stroke-width="2" /></g></svg>