<?xml version="1.0" encoding="utf-8" ?>
<svg baseProfile="full" height="210mm" version="1.1" viewBox="0 0 297 210" width="297mm" xmlns="http://www.w3.org/2000/svg" xmlns:ev="http://www.w3.org/2001/xml-events" xmlns:xlink="http://www.w3.org/1999/xlink"><defs /><g transform="translate(43,30)"><path d="M 100,16 Q 47.0,31.5 84,137 Q 187.5,120.0 207,19 Q 212.5,-9.5 166,14 Q 130.5,53.0 143,140" fill="none" stroke="black" stroke-width="2" /><path d="M 53,98 Q 142.0,100.0 167,38 Q 132.5,105.5 178,93 Q 220.0,102.0 190,39 Q 189.0,-3.0 124,19" fill="none" stroke="black" stroke-width="2" /><path d="M 171,41 Q 126.5,-3.5 24,10 Q 71.0,78.0 202,62 Q 160.5,11.0 55,24 Q 71.0,103.0 173,96" fill="none" stroke="black" stroke-width="2" /><path d="M 29,34 Q 32.0,78.0 105,52 Q 108.0,114.5 197,91 Q 61.0,78.5 5,146 Q 92.0,178.0 103,134" fill="none" stroke="black" stroke-width="2" /></g></svg>