<?xml version="1.0" encoding="utf-8" ?>
<svg baseProfile="full" height="210mm" version="1.1" viewBox="0 0 297 210" width="297mm" xmlns="http://www.w3.org/2000/svg" xmlns:ev="http://www.w3.org/2001/xml-events" xmlns:xlink="http://www.w3.org/1999/xlink"><defs /><g transform="translate(43,30)"><path d="M 175,105 Q 155.5,22.5 56,20 Q -1.5,18.0 7,82 Q 35.0,127.0 141,94 Q 216.5,101.5 196,13" fill="none" stroke="black" stroke-width="2" /><path d="M 45,55 Q 120.5,51.0 152,3 Q 104.0,25.0 110,101 Q 97.5,45.0 1,73 Q 9.5,115.0 94,81" fill="none" stroke="black" stroke-width="2" /><path d="M 112,35 Q 128.5,68.0 145,35 Q 201.0,66.5 171,12 Q 122.5,-21.0 14,6 Q 40.5,73.5 129,79" fill="none" stroke="black" stroke-width="2" /><path d="M 176,121 Q 121.0,64.5 22,52 Q 123.5,72.0 167,34 Q 119.5,-4.0 10,20 Q 12.0,112.0 98,120" fill="none" stroke="black" stroke-width="2" /></g></svg>