<?xml version="1.0" encoding="utf-8" ?>
<svg baseProfile="full" height="210mm" version="1.1" viewBox="0 0 297 210" width="297mm" xmlns="http://www.w3.org/2000/svg" xmlns:ev="http://www.w3.org/2001/xml-events" xmlns:xlink="http://www.w3.org/1999/xlink"><defs /><g transform="translate(43,30)"><path d="M 94,118 Q 73.0,153.0 106,134 Q 105.0,56.0 58,24 Q 69.0,-5.5 28,17 Q -12.0,29.0 6,99" fill="none" stroke="black" stroke-width="2" /><path d="M 3,28 Q 57.5,60.5 20,1 Q 25.5,34.0 71,27 Q 40.0,63.5 49,140 Q 70.5,59.0 26,44" fill="none" stroke="black" stroke-width="2" /><path d="M 57,136 Q 164.0,164.0 171,92 Q 138.0,156.0 181,144 Q 223.5,61.5 174,71 Q 113.5,16.0 3,11" fill="none" stroke="black" stroke-width="2" /><path d="M 167,32 Q 203.5,57.0 184,26 Q 50.5,21.0 17,116 Q 109.0,137.5 103,61 Q 65.0,70.5 81,134" fill="none" stroke="black" stroke-width="2" /></g></svg>