<?xml version="1.0" encoding="utf-8" ?>
<svg baseProfile="full" height="210mm" version="1.1" viewBox="0 0 297 210" width="297mm" xmlns="http://www.w3.org/2000/svg" xmlns:ev="http://www.w3.org/2001/xml-events" xmlns:xlink="http://www.w3.org/1999/xlink"><defs /><g transform="translate(43,30)"><path d="M 188,69 Q 151.0,39.5 72,52 Q 79.0,-6.5 6,15 Q -3.0,109.5 76,116 Q 92.5,34.0 17,44" fill="none" stroke="black" stroke-width="2" /><path d="M 152,68 Q 85.0,67.5 88,137 Q 102.5,53.5 43,44 Q 29.0,92.5 89,67 Q 110.5,8.0 76,5" fill="none" stroke="black" stroke-width="2" /><path d="M 56,6 Q 10.0,10.0 28,78 Q 57.0,42.5 28,7 Q 67.5,82.5 165,100 Q 157.5,61.0 86,86" fill="none" stroke="black" stroke-width="2" /><path d="M 164,55 Q 134.5,17.5 37,48 Q 105.5,90.0 80,38 Q 78.0,-8.0 8,14 Q 21.0,47.5 80,35" fill="none" stroke="black" stroke-width="2" /></g></svg>