<?xml version="1.0" encoding="utf-8" ?>
<svg baseProfile="full" height="210mm" version="1.1" viewBox="0 0 297 210" width="297mm" xmlns="http://www.w3.org/2000/svg" xmlns:ev="http://www.w3.org/2001/xml-events" xmlns:xlink="http://www.w3.org/1999/xlink"><defs /><g transform="translate(43,30)"><path d="M 64,32 Q 42.0,122.5 114,119 Q 89.0,77.0 64,119 Q 99.0,25.0 52,13 Q 15.5,93.0 61,91" fill="none" stroke="black" stroke-width="2" /><path d="M 29,83 Q 41.0,153.0 143,133 Q 151.5,37.0 78,23 Q 15.5,14.5 19,72 Q 34.0,143.0 119,144" fill="none" stroke="black" stroke-width="2" /><path d="M 9,54 Q 93.5,85.5 80,19 Q 65.5,-14.0 1,3 Q 90.0,23.0 137,1 Q 111.5,105.5 166,130" fill="none" stroke="black" stroke-width="2" /><path d="M 142,38 Q 82.5,56.0 85,136 Q 64.0,98.0 43,136 Q 115.5,116.0 124,32 Q 67.0,63.5 60,145" fill="none" stroke="black" stroke-width="2" /></g></svg>