<?xml version="1.0" encoding="utf-8" ?>
<svg baseProfile="full" height="210mm" version="1.1" viewBox="0 0 297 210" width="297mm" xmlns="http://www.w3.org/2000/svg" xmlns:ev="http://www.w3.org/2001/xml-events" xmlns:xlink="http://www.w3.org/1999/xlink"><defs /><g transform="translate(43,30)"><path d="M 194,41 Q 143.5,26.5 183,102 Q 138.0,80.0 143,108 Q 131.5,27.0 50,16 Q 28.5,67.0 65,60" fill="none" stroke="black" stroke-width="2" /><path d="M 149,100 Q 75.5,76.5 74,125 Q 137.5,107.0 137,25 Q 74.5,59.0 64,145 Q 72.5,66.0 27,41" fill="none" stroke="black" stroke-width="2" /><path d="M 30,90 Q 79.5,82.0 75,20 Q 63.5,92.0 130,86 Q 134.0,9.5 64,7 Q -4.0,-32.5 12,12" fill="none" stroke="black" stroke-width="2" /><path d="M 145,34 Q 65.5,5.0 48,38 Q 151.0,67.5 190,33 Q 122.0,45.5 132,136 Q 146.5,40.0 103,2" fill="none" stroke="black" stroke-width="2" /></g></svg>