<?xml version="1.0" encoding="utf-8" ?>
<svg baseProfile="full" height="210mm" version="1.1" viewBox="0 0 297 210" width="297mm" xmlns="http://www.w3.org/2000/svg" xmlns:ev="http://www.w3.org/2001/xml-events" xmlns:xlink="http://www.w3.org/1999/xlink"><defs /><g transform="translate(43,30)"><path d="M 85,137 Q 91.0,72.0 7,97 Q 58.0,129.5 169,102 Q 209.5,31.5 166,45 Q 135.0,90.5 180,60" fill="none" stroke="black" stroke-width="2" /><path d="M 133,121 Q 56.0,89.0 51,129 Q 94.5,108.5 92,42 Q 9.5,24.0 3,82 Q -42.5,54.0 2,116" fill="none" stroke="black" stroke-width="2" /><path d="M 97,97 Q 171.0,96.5 197,48 Q 177.5,-20.5 64,5 Q 26.5,39.0 37,121 Q 113.0,130.5 123,74" fill="none" stroke="black" stroke-width="2" /><path d="M 119,49 Q 111.5,3.5 38,24 Q -5.0,71.5 46,25 Q 118.5,33.5 149,0 Q 96.0,4.5 139,105" fill="none" stroke="black" stroke-width="2" /></g></svg>