<?xml version="1.0" encoding="utf-8" ?>
<svg baseProfile="full" height="210mm" version="1.1" viewBox="0 0 297 210" width="297mm" xmlns="http://www.w3.org/2000/svg" xmlns:ev="http://www.w3.org/2001/xml-events" xmlns:xlink="http://www.w3.org/1999/xlink"><defs /><g transform="translate(43,30)"><path d="M 111,32 Q 29.0,37.5 31,127 Q 114.0,113.0 115,17 Q 74.5,-13.5 96,18 Q 46.0,18.5 70,93" fill="none" stroke="black" stroke-width="2" /><path d="M 137,131 Q 130.5,22.0 28,9 Q -1.0,71.0 64,39 Q 114.0,65.0 90,17 Q 6.0,20.5 6,108" fill="none" stroke="black" stroke-width="2" /><path d="M 176,88 Q 172.5,30.5 79,63 Q 105.0,83.5 87,60 Q 27.5,50.0 42,114 Q 73.0,42.0 36,38" fill="none" stroke="black" stroke-width="2" /><path d="M 59,53 Q 98.0,111.5 177,130 Q 215.0,60.0 171,72 Q 213.0,17.5 161,57 Q 140.5,95.0 184,69" fill="none" stroke="black" stroke-width="2" /></g></svg>