<?xml version="1.0" encoding="utf-8" ?>
<svg baseProfile="full" height="210mm" version="1.1" viewBox="0 0 297 210" width="297mm" xmlns="http://www.w3.org/2000/svg" xmlns:ev="http://www.w3.org/2001/xml-events" xmlns:xlink="http://www.w3.org/1999/xlink"><defs /><g transform="translate(43,30)"><path d="M 105,103 Q 97.5,23.0 6,27 Q 58.0,61.5 172,34 Q 174.5,-10.0 97,26 Q 110.5,95.0 206,82" fill="none" stroke="black" stroke-width="2" /><path d="M 56,9 Q 8.0,32.0 10,105 Q 29.0,164.0 136,135 Q 134.0,44.0 66,19 Q 31.5,122.5 97,126" fill="none" stroke="black" stroke-width="2" /><path d="M 185,96 Q 183.5,64.0 136,78 Q 134.5,53.0 133,78 Q 77.0,64.5 89,119 Q 52.5,95.0 76,131" fill="none" stroke="black" stroke-width="2" /><path d="M 13,135 Q 83.0,161.5 81,116 Q 139.5,106.5 134,33 Q 185.5,55.0 165,5 Q 135.5,-11.0 148,15" fill="none" stroke="black" stroke-width="2" /></g></svg>