<?xml version="1.0" encoding="utf-8" ?>
<svg baseProfile="full" height="210mm" version="1.1" viewBox="0 0 297 210" width="297mm" xmlns="http://www.w3.org/2000/svg" xmlns:ev="http://www.w3.org/2001/xml-events" xmlns:xlink="http://www.w3.org/1999/xlink"><defs /><g transform="translate(43,30)"><path d="M 63,72 Q 77.0,103.0 143,82 Q 123.5,18.5 54,5 Q 22.0,73.0 82,49 Q 22.5,51.5 45,136" fill="none" stroke="black" stroke-width="2" /><path d="M 7,29 Q 69.5,103.0 172,137 Q 191.0,95.5 160,104 Q 64.0,77.0 36,118 Q 130.0,144.5 158,105" fill="none" stroke="black" stroke-width="2" /><path d="M 8,125 Q 52.0,121.0 52,73 Q 171.5,114.5 205,70 Q 97.5,86.0 32,144 Q 160.0,182.5 198,131" fill="none" stroke="black" stroke-width="2" /><path d="M 103,62 Q 118.5,8.0 44,44 Q 126.5,63.0 151,24 Q 138.0,68.0 181,56 Q 99.5,36.0 110,108" fill="none" stroke="black" stroke-width="2" /></g></svg>