<?xml version="1.0" encoding="utf-8" ?>
<svg baseProfile="full" height="210mm" version="1.1" viewBox="0 0 297 210" width="297mm" xmlns="http://www.w3.org/2000/svg" xmlns:ev="http://www.w3.org/2001/xml-events" xmlns:xlink="http://www.w3.org/1999/xlink"><defs /><g transform="translate(43,30)"><path d="M 158,103 Q 100.5,78.5 137,148 Q 137.5,121.0 98,134 Q 117.0,47.5 40,57 Q 73.5,81.5 151,62" fill="none" stroke="black" stroke-width="2" /><path d="M 44,148 Q 115.5,125.0 125,40 Q 44.0,19.5 27,63 Q 69.0,44.0 27,25 Q -0.5,133.0 66,147" fill="none" stroke="black" stroke-width="2" /><path d="M 54,72 Q 56.0,14.0 2,12 Q 66.5,30.5 89,7 Q 77.5,51.0 140,21 Q 39.5,-11.5 25,42" fill="none" stroke="black" stroke-width="2" /><path d="M 189,39 Q 132.5,25.5 116,52 Q 40.0,15.5 60,75 Q 142.0,86.0 128,1 Q 95.0,58.0 152,25" fill="none" stroke="black" stroke-width="2" /></g></svg>