<?xml version="1.0" encoding="utf-8" ?>
<svg baseProfile="full" height="210mm" version="1.1" viewBox="0 0 297 210" width="297mm" xmlns="http://www.w3.org/2000/svg" xmlns:ev="http://www.w3.org/2001/xml-events" xmlns:xlink="http://www.w3.org/1999/xlink"><defs /><g transform="translate(43,30)"><path d="M 129,112 Q 194.5,116.5 198,59 Q 202.5,27.5 157,46 Q 49.5,42.0 28,124 Q 68.5,21.5 25,3" fill="none" stroke="black" stroke-width="2" /><path d="M 180,83 Q 240.0,97.5 204,16 Q 128.0,32.0 132,128 Q 142.5,54.5 111,23 Q 55.5,48.5 50,124" fill="none" stroke="black" stroke-width="2" /><path d="M 4,42 Q 32.5,106.0 107,124 Q 150.0,150.0 117,100 Q 169.5,132.0 148,90 Q 147.0,45.5 96,51" fill="none" stroke="black" stroke-width="2" /><path d="M 170,113 Q 169.0,57.5 94,76 Q 95.5,31.5 57,27 Q 10.0,132.5 63,138 Q 101.5,70.5 52,91" fill="none" stroke="black" stroke-width="2" /></g></svg>