<?xml version="1.0" encoding="utf-8" ?>
<svg baseProfile="full" height="210mm" version="1.1" viewBox="0 0 297 210" width="297mm" xmlns="http://www.w3.org/2000/svg" xmlns:ev="http://www.w3.org/2001/xml-events" xmlns:xlink="http://www.w3.org/1999/xlink"><defs /><g transform="translate(43,30)"><path d="M 5,62 Q 39.5,98.5 146,63 Q 57.5,57.5 17,100 Q 132.0,118.5 165,55 Q 138.0,42.0 159,77" fill="none" stroke="black" stroke-width="2" /><path d="M 122,106 Q 98.0,61.5 32,59 Q 139.0,81.0 146,3 Q 80.5,4.5 83,74 Q 137.0,107.5 91,41" fill="none" stroke="black" stroke-width="2" /><path d="M 9,88 Q 112.5,74.5 172,17 Q 155.0,95.5 206,106 Q 172.5,69.0 89,82 Q 59.5,148.5 98,147" fill="none" stroke="black" stroke-width="2" /><path d="M 50,97 Q 118.0,106.5 86,16 Q 90.5,63.5 187,19 Q 111.0,24.5 129,124 Q 110.5,81.0 28,102" fill="none" stroke="black" stroke-width="2" /></g></svg>