<?xml version="1.0" encoding="utf-8" ?>
<svg baseProfile="full" height="210mm" version="1.1" viewBox="0 0 297 210" width="297mm" xmlns="http://www.w3.org/2000/svg" xmlns:ev="http://www.w3.org/2001/xml-events" xmlns:xlink="http://www.w3.org/1999/xlink"><defs /><g transform="translate(43,30)"><path d="M 64,142 Q 139.5,119.0 127,8 Q 88.0,19.0 111,92 Q 100.5,35.0 44,24 Q 14.0,57.0 34,140" fill="none" stroke="black" stroke-width="2" /><path d="M 164,80 Q 222.5,112.5 209,73 Q 140.5,38.0 16,59 Q 81.5,106.0 51,57 Q 45.0,149.5 133,148" fill="none" stroke="black" stroke-width="2" /><path d="M 157,110 Q 184.5,57.0 124,92 Q 194.5,123.0 167,56 Q 76.5,20.5 74,73 Q 37.0,137.5 100,102" fill="none" stroke="black" stroke-width="2" /><path d="M 204,54 Q 96.5,36.0 75,104 Q 118.0,50.0 61,96 Q 99.5,21.0 38,46 Q 71.5,138.5 205,131" fill="none" stroke="black" stroke-width="2" /></g></svg>