<?xml version="1.0" encoding="utf-8" ?>
<svg baseProfile="full" height="210mm" version="1.1" viewBox="0 0 297 210" width="297mm" xmlns="http://www.w3.org/2000/svg" xmlns:ev="http://www.w3.org/2001/xml-events" xmlns:xlink="http://www.w3.org/1999/xlink"><defs /><g transform="translate(43,30)"><path d="M 69,141 Q 158.0,109.0 189,19 Q 107.0,-26.0 125,29 Q 63.5,8.5 94,80 Q 120.5,85.5 97,41" fill="none" stroke="black" stroke-width="2" /><path d="M 107,130 Q 173.0,119.5 155,25 Q 128.0,87.0 191,59 Q 74.5,50.0 56,139 Q 123.0,122.5 110,26" fill="none" stroke="black" stroke-width="2" /><path d="M 9,80 Q 40.0,122.0 153,82 Q 88.0,55.5 89,95 Q 156.5,113.5 128,36 Q 121.5,-19.0 23,18" fill="none" stroke="black" stroke-width="2" /><path d="M 163,103 Q 91.5,82.0 66,107 Q 4.5,88.5 1,128 Q 116.0,144.0 175,104 Q 122.5,81.5 150,139" fill="none" stroke="black" stroke-width="2" /></g></svg>