<?xml version="1.0" encoding="utf-8" ?>
<svg baseProfile="full" height="210mm" version="1.1" viewBox="0 0 297 210" width="297mm" xmlns="http://www.w3.org/2000/svg" xmlns:ev="http://www.w3.org/2001/xml-events" xmlns:xlink="http://www.w3.org/1999/xlink"><defs /><g transform="translate(43,30)"><path d="M 99,136 Q 188.5,170.5 190,117 Q 216.0,15.0 152,3 Q 78.5,42.0 49,125 Q 76.0,65.5 21,88" fill="none" stroke="black" stroke-width="2" /><path d="M 99,146 Q 130.5,133.5 104,63 Q 166.0,76.5 156,18 Q 90.5,-8.0 83,24 Q 44.5,109.0 94,106" fill="none" stroke="black" stroke-width="2" /><path d="M 182,30 Q 158.5,-17.0 57,14 Q 32.5,67.0 66,62 Q 65.0,25.0 6,46 Q 130.0,66.5 192,25" fill="none" stroke="black" stroke-width="2" /><path d="M 166,20 Q 143.0,83.0 184,82 Q 153.5,22.5 79,7 Q 41.5,88.5 92,82 Q 179.0,81.0 192,6" fill="none" stroke="black" stroke-width="2" /></g></svg>