<?xml version="1.0" encoding="utf-8" ?>
<svg baseProfile="full" height="210mm" version="1.1" viewBox="0 0 297 210" width="297mm" xmlns="http://www.w3.org/2000/svg" xmlns:ev="http://www.w3.org/2001/xml-events" xmlns:xlink="http://www.w3.org/1999/xlink"><defs /><g transform="translate(43,30)"><path d="M 102,5 Q 128.0,32.5 202,12 Q 62.5,15.0 13,108 Q 18.5,139.0 68,126 Q 137.0,124.0 120,36" fill="none" stroke="black" stroke-width="2" /><path d="M 160,0 Q 107.5,26.0 111,108 Q 115.5,16.5 42,3 Q 61.0,111.5 166,134 Q 157.0,97.5 92,117" fill="none" stroke="black" stroke-width="2" /><path d="M 108,141 Q 134.5,82.0 85,99 Q 96.5,36.0 32,49 Q 15.5,93.5 83,54 Q 90.5,-17.0 8,2" fill="none" stroke="black" stroke-width="2" /><path d="M 42,19 Q 2.5,74.0 59,33 Q 81.5,80.0 178,53 Q 218.5,4.0 163,51 Q 79.0,47.0 67,115" fill="none" stroke="black" stroke-width="2" /></g></svg>