<?xml version="1.0" encoding="utf-8" ?>
<svg baseProfile="full" height="210mm" version="1.1" viewBox="0 0 297 210" width="297mm" xmlns="http://www.w3.org/2000/svg" xmlns:ev="http://www.w3.org/2001/xml-events" xmlns:xlink="http://www.w3.org/1999/xlink"><defs /><g transform="translate(43,30)"><path d="M 47,57 Q 57.5,103.5 150,68 Q 76.5,63.0 91,146 Q 142.0,158.5 133,111 Q 64.0,87.5 45,114" fill="none" stroke="black" stroke-width="2" /><path d="M 33,0 Q 24.0,102.0 107,112 Q 20.5,81.5 0,117 Q 80.0,132.0 70,57 Q 86.5,118.0 149,133" fill="none" stroke="black" stroke-width="2" /><path d="M 121,124 Q 128.5,170.5 208,145 Q 195.5,104.5 113,134 Q 181.0,105.0 181,8 Q 85.0,0.5 83,87" fill="none" stroke="black" stroke-width="2" /><path d="M 198,20 Q 148.5,-12.0 39,16 Q 21.5,96.0 100,80 Q 91.5,138.0 165,114 Q 128.0,58.5 29,65" fill="none" stroke="black" stroke-width="2" /></g></svg>