<?xml version="1.0" encoding="utf-8" ?>
<svg baseProfile="full" height="210mm" version="1.1" viewBox="0 0 297 210" width="297mm" xmlns="http://www.w3.org/2000/svg" xmlns:ev="http://www.w3.org/2001/xml-events" xmlns:xlink="http://www.w3.org/1999/xlink"><defs /><g transform="translate(43,30)"><path d="M 166,53 Q 151.5,102.0 207,81 Q 232.0,17.5 161,50 Q 64.5,45.0 66,138 Q 140.5,176.5 121,121" fill="none" stroke="black" stroke-width="2" /><path d="M 27,0 Q 41.5,94.5 98,147 Q 155.0,133.0 158,65 Q 162.0,26.0 120,33 Q 128.5,82.0 137,33" fill="none" stroke="black" stroke-width="2" /><path d="M 149,6 Q 142.5,38.5 186,21 Q 112.0,6.0 86,39 Q 58.5,104.0 109,91 Q 92.5,126.0 128,109" fill="none" stroke="black" stroke-width="2" /><path d="M 31,104 Q 90.0,144.5 203,131 Q 181.0,76.5 81,100 Q 167.0,81.0 201,10 Q 147.0,-10.5 181,57" fill="none" stroke="black" stroke-width="2" /></g></svg>