<?xml version="1.0" encoding="utf-8" ?>
<svg baseProfile="full" height="210mm" version="1.1" viewBox="0 0 297 210" width="297mm" xmlns="http://www.w3.org/2000/svg" xmlns:ev="http://www.w3.org/2001/xml-events" xmlns:xlink="http://www.w3.org/1999/xlink"><defs /><g transform="translate(43,30)"><path d="M 90,76 Q 101.0,137.5 176,135 Q 105.5,88.5 129,136 Q 169.5,79.0 124,108 Q 173.0,130.5 148,79" fill="none" stroke="black" stroke-width="2" /><path d="M 3,108 Q 52.0,117.0 39,64 Q 97.0,90.0 89,50 Q 44.5,39.0 88,116 Q 94.5,55.0 33,62" fill="none" stroke="black" stroke-width="2" /><path d="M 91,50 Q 24.5,31.0 16,70 Q -3.5,100.0 27,80 Q 43.5,151.0 138,144 Q 178.0,63.5 130,71" fill="none" stroke="black" stroke-width="2" /><path d="M 90,29 Q 76.5,129.5 153,140 Q 163.5,169.0 174,140 Q 89.0,106.5 74,143 Q 105.5,38.0 55,15" fill="none" stroke="black" stroke-width="2" /></g></svg>