<?xml version="1.0" encoding="utf-8" ?>
<svg baseProfile="full" height="210mm" version="1.1" viewBox="0 0 297 210" width="297mm" xmlns="http://www.w3.org/2000/svg" xmlns:ev="http://www.w3.org/2001/xml-events" xmlns:xlink="http://www.w3.org/1999/xlink"><defs /><g transform="translate(43,30)"><path d="M 17,42 Q 20.0,91.5 93,71 Q 58.5,121.5 94,102 Q 155.5,94.0 131,0 Q 91.5,53.0 146,12" fill="none" stroke="black" stroke-width="2" /><path d="M 210,82 Q 225.5,3.0 157,8 Q 106.5,-8.0 112,32 Q 40.5,10.0 55,74 Q 101.5,-12.0 50,0" fill="none" stroke="black" stroke-width="2" /><path d="M 147,4 Q 121.0,97.5 187,99 Q 244.0,139.5 201,80 Q 154.0,20.0 13,54 Q 10.0,128.5 79,131" fill="none" stroke="black" stroke-width="2" /><path d="M 146,108 Q 113.0,155.0 172,110 Q 237.5,111.5 207,17 Q 156.0,31.0 171,111 Q 138.5,46.0 12,75" fill="none" stroke="black" stroke-width="2" /></g></svg>