<?xml version="1.0" encoding="utf-8" ?>
<svg baseProfile="full" height="210mm" version="1.1" viewBox="0 0 297 210" width="297mm" xmlns="http://www.w3.org/2000/svg" xmlns:ev="http://www.w3.org/2001/xml-events" xmlns:xlink="http://www.w3.org/1999/xlink"><defs /><g transform="translate(43,30)"><path d="M 197,25 Q 138.5,11.0 164,81 Q 209.0,80.5 164,80 Q 129.5,15.0 31,14 Q 4.0,123.5 69,141" fill="none" stroke="black" stroke-width="2" /><path d="M 146,54 Q 78.5,36.5 101,109 Q 29.5,73.0 44,123 Q 118.5,164.5 101,114 Q 164.0,131.0 153,74" fill="none" stroke="black" stroke-width="2" /><path d="M 94,57 Q 120.0,9.0 84,23 Q 44.0,3.5 46,26 Q 36.0,116.5 108,125 Q 157.0,164.5 114,112" fill="none" stroke="black" stroke-width="2" /><path d="M 172,9 Q 99.5,0.0 117,81 Q 133.5,32.5 78,56 Q 168.5,99.5 159,43 Q 148.0,9.5 95,18" fill="none" stroke="black" stroke-width="2" /></g></svg>