<?xml version="1.0" encoding="utf-8" ?>
<svg baseProfile="full" height="210mm" version="1.1" viewBox="0 0 297 210" width="297mm" xmlns="http://www.w3.org/2000/svg" xmlns:ev="http://www.w3.org/2001/xml-events" xmlns:xlink="http://www.w3.org/1999/xlink"><defs /><g transform="translate(43,30)"><path d="M 172,60 Q 102.0,40.0 124,112 Q 179.0,94.5 186,29 Q 87.5,46.0 31,105 Q 30.5,140.5 92,114" fill="none" stroke="black" stroke-width="2" /><path d="M 13,127 Q 154.5,149.5 200,76 Q 120.0,66.0 128,144 Q 176.0,154.0 156,96 Q 126.5,126.5 157,97" fill="none" stroke="black" stroke-width="2" /><path d="M 77,45 Q 94.5,101.5 174,96 Q 184.0,41.0 102,78 Q 37.0,54.5 48,107 Q 145.0,113.0 198,75" fill="none" stroke="black" stroke-width="2" /><path d="M 209,28 Q 104.5,33.5 76,115 Q 81.5,153.5 151,128 Q 206.0,145.0 183,84 Q 187.0,2.0 99,12" fill="none" stroke="black" stroke-width="2" /></g></svg>