<?xml version="1.0" encoding="utf-8" ?>
<svg baseProfile="full" height="210mm" version="1.1" viewBox="0 0 297 210" width="297mm" xmlns="http://www.w3.org/2000/svg" xmlns:ev="http://www.w3.org/2001/xml-events" xmlns:xlink="http://www.w3.org/1999/xlink"><defs /><g transform="translate(43,30)"><path d="M 143,70 Q 115.0,120.0 161,96 Q 93.0,83.5 83,129 Q 166.5,157.5 164,100 Q 166.5,48.5 93,73" fill="none" stroke="black" stroke-width="2" /><path d="M 163,69 Q 119.5,5.5 18,0 Q 59.5,41.5 161,23 Q 54.0,28.5 11,98 Q 20.0,152.0 115,120" fill="none" stroke="black" stroke-width="2" /><path d="M 133,113 Q 66.5,99.5 50,136 Q 87.5,114.5 71,39 Q -5.5,36.0 4,119 Q 91.0,97.0 114,11" fill="none" stroke="black" stroke-width="2" /><path d="M 169,61 Q 70.5,78.5 14,138 Q 45.0,149.0 36,120 Q 161.0,118.5 198,29 Q 171.5,36.0 193,91" fill="none" stroke="black" stroke-width="2" /></g></svg>