<?xml version="1.0" encoding="utf-8" ?>
<svg baseProfile="full" height="210mm" version="1.1" viewBox="0 0 297 210" width="297mm" xmlns="http://www.w3.org/2000/svg" xmlns:ev="http://www.w3.org/2001/xml-events" xmlns:xlink="http://www.w3.org/1999/xlink"><defs /><g transform="translate(43,30)"><path d="M 73,62 Q 74.5,102.5 136,83 Q 167.0,36.0 122,65 Q 117.0,88.0 156,67 Q 157.0,32.0 110,45" fill="none" stroke="black" stroke-width="2" /><path d="M 145,106 Q 141.5,33.5 78,21 Q 80.0,53.5 122,46 Q 93.5,132.5 139,145 Q 122.0,43.5 17,30" fill="none" stroke="black" stroke-width="2" /><path d="M 20,24 Q -27.5,2.5 3,59 Q 87.0,76.0 111,33 Q 85.5,119.0 150,115 Q 193.5,132.5 185,98" fill="none" stroke="black" stroke-width="2" /><path d="M 58,8 Q 7.0,9.5 48,103 Q 65.0,131.0 136,105 Q 119.5,42.5 43,40 Q 56.5,106.0 156,86" fill="none" stroke="black" stroke-width="2" /></g></svg>