<?xml version="1.0" encoding="utf-8" ?>
<svg baseProfile="full" height="210mm" version="1.1" viewBox="0 0 297 210" width="297mm" xmlns="http://www.w3.org/2000/svg" xmlns:ev="http://www.w3.org/2001/xml-events" xmlns:xlink="http://www.w3.org/1999/xlink"><defs /><g transform="translate(43,30)"><path d="M 133,27 Q 111.0,6.0 89,27 Q 80.5,107.0 132,127 Q 156.0,62.0 84,93 Q 152.0,112.0 168,79" fill="none" stroke="black" stroke-width="2" /><path d="M 186,105 Q 155.5,40.0 31,69 Q 21.5,134.5 100,112 Q 123.5,115.0 105,76 Q 32.0,71.0 23,130" fill="none" stroke="black" stroke-width="2" /><path d="M 83,93 Q 94.0,15.5 21,22 Q -11.0,112.0 23,136 Q 95.5,98.5 128,21 Q 93.5,100.5 147,92" fill="none" stroke="black" stroke-width="2" /><path d="M 209,50 Q 173.5,-5.5 62,15 Q 42.0,93.5 120,74 Q 56.5,50.5 87,121 Q 71.5,166.5 140,128" fill="none" stroke="black" stroke-width="2" /></g></svg>