<?xml version="1.0" encoding="utf-8" ?>
<svg baseProfile="full" height="210mm" version="1.1" viewBox="0 0 297 210" width="297mm" xmlns="http://www.w3.org/2000/svg" xmlns:ev="http://www.w3.org/2001/xml-events" xmlns:xlink="http://www.w3.org/1999/xlink"><defs /><g transform="translate(43,30)"><path d="M 7,12 Q 36.0,-22.5 5,3 Q 67.5,74.5 174,102 Q 168.0,33.5 68,59 Q -5.0,33.0 2,87" fill="none" stroke="black" stroke-width="2" /><path d="M 207,17 Q 117.5,14.5 80,64 Q 115.0,90.5 96,63 Q 36.5,29.5 61,80 Q 41.0,126.0 75,118" fill="none" stroke="black" stroke-width="2" /><path d="M 191,70 Q 159.5,32.0 74,48 Q 97.0,96.5 196,69 Q 130.5,13.0 5,17 Q 18.5,111.0 110,127" fill="none" stroke="black" stroke-width="2" /><path d="M 122,51 Q 64.5,12.5 87,54 Q 41.0,43.5 39,77 Q 154.5,89.5 182,14 Q 105.5,35.5 109,137" fill="none" stroke="black" stroke-width="2" /></g></svg>