<?xml version="1.0" encoding="utf-8" ?>
<svg baseProfile="full" height="210mm" version="1.1" viewBox="0 0 297 210" width="297mm" xmlns="http://www.w3.org/2000/svg" xmlns:ev="http://www.w3.org/2001/xml-events" xmlns:xlink="http://www.w3.org/1999/xlink"><defs /><g transform="translate(43,30)"><path d="M 81,64 Q 71.5,109.0 142,74 Q 82.5,58.0 107,126 Q 190.0,135.0 197,68 Q 109.5,62.5 98,133" fill="none" stroke="black" stroke-width="2" /><path d="M 114,25 Q 34.5,-1.5 37,54 Q 14.0,95.5 53,75 Q 38.0,118.5 63,122 Q 117.5,101.0 108,16" fill="none" stroke="black" stroke-width="2" /><path d="M 115,118 Q 155.0,50.0 95,82 Q 124.5,93.0 96,46 Q 63.5,23.0 85,54 Q 10.0,31.5 23,97" fill="none" stroke="black" stroke-width="2" /><path d="M 147,66 Q 164.0,13.0 105,36 Q 38.5,40.5 54,127 Q 124.0,153.5 136,122 Q 62.0,91.5 68,141" fill="none" stroke="black" stroke-width="2" /></g></svg>