<?xml version="1.0" encoding="utf-8" ?>
<svg baseProfile="full" height="210mm" version="1.1" viewBox="0 0 297 210" width="297mm" xmlns="http://www.w3.org/2000/svg" xmlns:ev="http://www.w3.org/2001/xml-events" xmlns:xlink="http://www.w3.org/1999/xlink"><defs /><g transform="translate(43,30)"><path d="M 150,17 Q 78.0,49.5 50,126 Q 173.0,148.5 208,83 Q 162.0,4.0 38,3 Q 85.5,42.5 185,30" fill="none" stroke="black" stroke-width="2" /><path d="M 164,102 Q 184.5,96.5 165,51 Q 133.0,114.0 195,83 Q 171.5,13.5 80,12 Q 63.0,37.5 92,17" fill="none" stroke="black" stroke-width="2" /><path d="M 113,96 Q 133.5,10.0 56,22 Q 7.0,73.5 58,25 Q 33.0,73.5 82,48 Q 90.0,86.0 152,70" fill="none" stroke="black" stroke-width="2" /><path d="M 113,16 Q 55.0,-0.5 49,35 Q 72.5,95.0 196,55 Q 79.0,37.5 50,108 Q 115.5,106.5 113,37" fill="none" stroke="black" stroke-width="2" /></g></svg>