<?xml version="1.0" encoding="utf-8" ?>
<svg baseProfile="full" height="210mm" version="1.1" viewBox="0 0 297 210" width="297mm" xmlns="http://www.w3.org/2000/svg" xmlns:ev="http://www.w3.org/2001/xml-events" xmlns:xlink="http://www.w3.org/1999/xlink"><defs /><g transform="translate(43,30)"><path d="M 88,83 Q 155.0,92.5 180,60 Q 163.5,18.5 105,19 Q 155.0,38.0 151,3 Q 64.5,10.5 40,80" fill="none" stroke="black" stroke-width="2" /><path d="M 176,141 Q 209.0,32.0 150,15 Q 219.0,55.0 200,7 Q 155.0,23.5 170,100 Q 151.0,12.5 48,9" fill="none" stroke="black" stroke-width="2" /><path d="M 91,43 Q 154.0,52.0 157,1 Q 80.5,14.0 44,67 Q 168.0,96.0 194,27 Q 101.5,-6.0 87,39" fill="none" stroke="black" stroke-width="2" /><path d="M 70,145 Q 123.5,159.0 111,107 Q 117.0,153.5 207,116 Q 214.5,55.5 178,39 Q 110.0,7.0 140,73" fill="none" stroke="black" stroke-width="2" /></g></svg>