<?xml version="1.0" encoding="utf-8" ?>
<svg baseProfile="full" height="210mm" version="1.1" viewBox="0 0 297 210" width="297mm" xmlns="http://www.w3.org/2000/svg" xmlns:ev="http://www.w3.org/2001/xml-events" xmlns:xlink="http://www.w3.org/1999/xlink"><defs /><g transform="translate(43,30)"><path d="M 88,93 Q 37.0,89.0 26,125 Q 74.5,147.5 65,112 Q 137.0,84.0 163,10 Q 61.5,41.5 6,119" fill="none" stroke="black" stroke-width="2" /><path d="M 22,137 Q 128.5,119.0 191,57 Q 137.0,22.5 181,86 Q 167.0,136.0 195,144 Q 205.0,48.5 137,31" fill="none" stroke="black" stroke-width="2" /><path d="M 63,99 Q 76.0,143.0 155,121 Q 210.5,129.0 208,79 Q 104.5,56.5 51,84 Q 121.0,88.5 131,33" fill="none" stroke="black" stroke-width="2" /><path d="M 123,77 Q 130.0,22.0 51,53 Q 36.0,115.5 77,122 Q 172.0,115.0 175,16 Q 136.5,47.5 146,127" fill="none" stroke="black" stroke-width="2" /></g></svg>