<?xml version="1.0" encoding="utf-8" ?>
<svg baseProfile="full" height="210mm" version="1.1" viewBox="0 0 297 210" width="297mm" xmlns="http://www.w3.org/2000/svg" xmlns:ev="http://www.w3.org/2001/xml-events" xmlns:xlink="http://www.w3.org/1999/xlink"><defs /><g transform="translate(43,30)"><path d="M 123,127 Q 172.5,128.0 126,33 Q 43.5,-2.5 49,50 Q 4.5,47.0 34,118 Q 60.0,144.5 138,119" fill="none" stroke="black" stroke-width="2" /><path d="M 111,39 Q 134.5,-17.0 60,25 Q 25.0,96.5 86,72 Q 160.5,78.5 185,35 Q 139.5,53.5 170,148" fill="none" stroke="black" stroke-width="2" /><path d="M 57,135 Q 115.5,169.0 96,125 Q 171.0,127.5 152,36 Q 66.5,49.5 65,147 Q 132.0,131.5 111,28" fill="none" stroke="black" stroke-width="2" /><path d="M 196,80 Q 75.0,72.0 12,122 Q 128.5,133.0 199,98 Q 186.5,47.5 128,43 Q 155.5,-8.0 117,7" fill="none" stroke="black" stroke-width="2" /></g></svg>