<?xml version="1.0" encoding="utf-8" ?>
<svg baseProfile="full" height="210mm" version="1.1" viewBox="0 0 297 210" width="297mm" xmlns="http://www.w3.org/2000/svg" xmlns:ev="http://www.w3.org/2001/xml-events" xmlns:xlink="http://www.w3.org/1999/xlink"><defs /><g transform="translate(43,30)"><path d="M 132,134 Q 167.0,56.5 116,65 Q 105.0,139.0 172,135 Q 146.5,89.5 47,118 Q 127.5,115.5 166,71" fill="none" stroke="black" stroke-width="2" /><path d="M 199,83 Q 214.0,52.5 173,78 Q 140.5,7.0 20,24 Q 1.5,99.5 49,109 Q 52.5,163.0 152,121" fill="none" stroke="black" stroke-width="2" /><path d="M 175,79 Q 84.0,59.5 67,114 Q 149.5,114.0 132,14 Q 99.0,25.5 114,85 Q 174.5,94.0 149,17" fill="none" stroke="black" stroke-width="2" /><path d="M 76,43 Q 151.0,67.0 160,25 Q 49.0,10.0 18,75 Q 18.5,129.5 79,124 Q 155.0,114.0 187,60" fill="none" stroke="black" stroke-width="2" /></g></svg>