<?xml version="1.0" encoding="utf-8" ?>
<svg baseProfile="full" height="210mm" version="1.1" viewBox="0 0 297 210" width="297mm" xmlns="http://www.w3.org/2000/svg" xmlns:ev="http://www.w3.org/2001/xml-events" xmlns:xlink="http://www.w3.org/1999/xlink"><defs /><g transform="translate(43,30)"><path d="M 198,94 Q 77.0,71.0 8,100 Q 95.0,96.0 138,48 Q 162.5,10.5 121,39 Q 138.5,-17.5 70,12" fill="none" stroke="black" stroke-width="2" /><path d="M 7,136 Q 100.5,121.5 114,27 Q 164.5,44.5 165,12 Q 195.5,-30.5 152,1 Q 48.0,-28.5 24,22" fill="none" stroke="black" stroke-width="2" /><path d="M 74,116 Q 94.5,27.5 45,9 Q 11.0,-10.5 27,20 Q 68.5,92.0 174,100 Q 151.0,39.0 84,22" fill="none" stroke="black" stroke-width="2" /><path d="M 24,16 Q -29.0,19.5 0,105 Q 50.5,165.0 189,137 Q 207.0,75.5 147,92 Q 125.0,9.0 29,0" fill="none" stroke="black" stroke-width="2" /></g></svg>