<?xml version="1.0" encoding="utf-8" ?>
<svg baseProfile="full" height="210mm" version="1.1" viewBox="0 0 297 210" width="297mm" xmlns="http://www.w3.org/2000/svg" xmlns:ev="http://www.w3.org/2001/xml-events" xmlns:xlink="http://www.w3.org/1999/xlink"><defs /><g transform="translate(43,30)"><path d="M 74,66 Q 84.5,9.0 5,42 Q 32.5,100.5 126,93 Q 115.0,36.0 48,35 Q 87.0,55.0 68,17" fill="none" stroke="black" stroke-width="2" /><path d="M 140,26 Q 143.5,-19.5 81,1 Q 94.5,52.0 204,7 Q 141.0,47.0 132,141 Q 122.0,67.0 22,83" fill="none" stroke="black" stroke-width="2" /><path d="M 96,90 Q 193.5,117.5 205,59 Q 144.0,40.0 179,117 Q 207.5,109.5 186,52 Q 80.0,16.5 56,63" fill="none" stroke="black" stroke-width="2" /><path d="M 94,6 Q 41.0,34.5 44,119 Q 70.0,80.0 40,97 Q 134.5,94.0 141,3 Q 52.5,-29.0 64,39" fill="none" stroke="black" stroke-width="2" /></g></svg>