<?xml version="1.0" encoding="utf-8" ?>
<svg baseProfile="full" height="210mm" version="1.1" viewBox="0 0 297 210" width="297mm" xmlns="http://www.w3.org/2000/svg" xmlns:ev="http://www.w3.org/2001/xml-events" xmlns:xlink="http://www.w3.org/1999/xlink"><defs /><g transform="translate(43,30)"><path d="M 14,143 Q 101.5,173.0 117,131 Q 112.0,86.0 49,99 Q 146.0,147.0 143,95 Q 42.5,65.0 24,117" fill="none" stroke="black" stroke-width="2" /><path d="M 21,107 Q 61.5,58.5 16,96 Q 53.0,85.5 32,17 Q 25.0,110.5 110,112 Q 84.0,69.0 0,84" fill="none" stroke="black" stroke-width="2" /><path d="M 183,36 Q 72.5,23.0 54,102 Q 131.0,95.5 160,41 Q 152.0,80.5 206,58 Q 115.5,74.0 67,132" fill="none" stroke="black" stroke-width="2" /><path d="M 36,86 Q -5.5,90.5 1,143 Q 61.5,133.0 42,43 Q 77.0,103.5 168,108 Q 141.5,162.5 205,127" fill="none" stroke="black" stroke-width="2" /></g></svg>