<?xml version="1.0" encoding="utf-8" ?>
<svg baseProfile="full" height="210mm" version="1.1" viewBox="0 0 297 210" width="297mm" xmlns="http://www.w3.org/2000/svg" xmlns:ev="http://www.w3.org/2001/xml-events" xmlns:xlink="http://www.w3.org/1999/xlink"><defs /><g transform="translate(43,30)"><path d="M 75,112 Q 98.0,75.5 61,99 Q -12.5,64.0 2,117 Q 115.5,132.5 169,88 Q 224.0,93.5 207,27" fill="none" stroke="black" stroke-width="2" /><path d="M 15,85 Q 144.0,108.0 191,49 Q 142.0,49.5 153,110 Q 99.5,67.0 146,124 Q 182.0,140.5 154,93" fill="none" stroke="black" stroke-width="2" /><path d="M 98,70 Q 124.0,63.0 100,6 Q 90.0,106.5 170,117 Q 141.5,64.5 61,64 Q 96.5,13.5 52,43" fill="none" stroke="black" stroke-width="2" /><path d="M 206,102 Q 196.5,21.0 121,6 Q 78.0,22.0 93,96 Q 175.0,109.5 181,47 Q 69.5,48.5 18,110" fill="none" stroke="black" stroke-width="2" /></g></svg>