<?xml version="1.0" encoding="utf-8" ?>
<svg baseProfile="full" height="210mm" version="1.1" viewBox="0 0 297 210" width="297mm" xmlns="http://www.w3.org/2000/svg" xmlns:ev="http://www.w3.org/2001/xml-events" xmlns:xlink="http://www.w3.org/1999/xlink"><defs /><g transform="translate(43,30)"><path d="M 119,39 Q 97.5,92.0 144,77 Q 51.5,53.0 45,115 Q 135.5,152.5 142,106 Q 144.5,156.0 147,106" fill="none" stroke="black" stroke-width="2" /><path d="M 50,85 Q 81.5,112.5 57,84 Q 85.0,153.0 197,138 Q 177.0,63.0 69,76 Q -3.0,36.0 23,94" fill="none" stroke="black" stroke-width="2" /><path d="M 56,19 Q 84.0,-28.5 28,8 Q 53.5,73.5 149,69 Q 123.5,122.5 160,114 Q 118.5,69.5 1,101" fill="none" stroke="black" stroke-width="2" /><path d="M 54,25 Q 94.0,71.5 182,70 Q 218.5,79.5 205,39 Q 137.0,13.0 23,33 Q -4.5,124.0 38,145" fill="none" stroke="black" stroke-width="2" /></g></svg>