<?xml version="1.0" encoding="utf-8" ?>
<svg baseProfile="full" height="210mm" version="1.1" viewBox="0 0 297 210" width="297mm" xmlns="http://www.w3.org/2000/svg" xmlns:ev="http://www.w3.org/2001/xml-events" xmlns:xlink="http://www.w3.org/1999/xlink"><defs /><g transform="translate(43,30)"><path d="M 105,86 Q 181.0,121.5 169,69 Q 147.0,128.5 199,114 Q 215.0,71.5 187,73 Q 114.0,34.5 135,90" fill="none" stroke="black" stroke-width="2" /><path d="M 29,93 Q 41.5,138.0 108,129 Q 182.0,93.0 202,3 Q 77.0,38.5 20,142 Q 101.0,148.5 132,105" fill="none" stroke="black" stroke-width="2" /><path d="M 32,69 Q -28.0,24.0 10,77 Q 133.0,105.5 156,34 Q 147.5,-12.5 67,13 Q 51.5,89.0 124,77" fill="none" stroke="black" stroke-width="2" /><path d="M 187,80 Q 167.0,36.5 87,53 Q 55.0,63.0 77,127 Q 132.5,127.5 136,76 Q 77.5,73.5 67,119" fill="none" stroke="black" stroke-width="2" /></g></svg>