<?xml version="1.0" encoding="utf-8" ?>
<svg baseProfile="full" height="210mm" version="1.1" viewBox="0 0 297 210" width="297mm" xmlns="http://www.w3.org/2000/svg" xmlns:ev="http://www.w3.org/2001/xml-events" xmlns:xlink="http://www.w3.org/1999/xlink"><defs /><g transform="translate(43,30)"><path d="M 165,22 Q 137.5,66.5 188,33 Q 215.0,-8.0 186,7 Q 159.5,48.0 177,133 Q 226.5,162.0 184,99" fill="none" stroke="black" stroke-width="2" /><path d="M 57,125 Q 143.5,131.5 170,78 Q 149.5,130.0 203,108 Q 133.0,92.5 109,123 Q 143.5,57.5 90,80" fill="none" stroke="black" stroke-width="2" /><path d="M 66,14 Q 28.5,22.0 47,86 Q 85.5,24.0 28,58 Q 137.0,83.0 154,16 Q 105.5,17.0 119,80" fill="none" stroke="black" stroke-width="2" /><path d="M 100,70 Q 190.0,84.0 200,18 Q 111.0,36.0 94,126 Q 15.0,94.5 18,145 Q 127.5,150.0 145,63" fill="none" stroke="black" stroke-width="2" /></g></svg>