<?xml version="1.0" encoding="utf-8" ?>
<svg baseProfile="full" height="210mm" version="1.1" viewBox="0 0 297 210" width="297mm" xmlns="http://www.w3.org/2000/svg" xmlns:ev="http://www.w3.org/2001/xml-events" xmlns:xlink="http://www.w3.org/1999/xlink"><defs /><g transform="translate(43,30)"><path d="M 49,62 Q 84.0,129.0 179,136 Q 208.0,62.0 145,80 Q 50.5,61.5 18,105 Q 131.0,133.5 146,64" fill="none" stroke="black" stroke-width="2" /><path d="M 173,75 Q 87.5,56.0 46,81 Q 28.5,143.5 91,126 Q 163.0,128.0 161,56 Q 36.5,37.0 4,110" fill="none" stroke="black" stroke-width="2" /><path d="M 16,89 Q 54.0,113.5 134,96 Q 202.5,106.5 171,17 Q 108.5,8.5 114,68 Q 179.5,99.5 165,51" fill="none" stroke="black" stroke-width="2" /><path d="M 23,21 Q 10.5,56.0 38,51 Q 151.5,63.5 199,10 Q 179.0,-26.5 95,1 Q 124.5,92.0 194,143" fill="none" stroke="black" stroke-width="2" /></g></svg>