<?xml version="1.0" encoding="utf-8" ?>
<svg baseProfile="full" height="210mm" version="1.1" viewBox="0 0 297 210" width="297mm" xmlns="http://www.w3.org/2000/svg" xmlns:ev="http://www.w3.org/2001/xml-events" xmlns:xlink="http://www.w3.org/1999/xlink"><defs /><g transform="translate(43,30)"><path d="M 158,85 Q 126.0,32.5 34,40 Q 150.0,71.0 198,34 Q 162.0,32.0 170,74 Q 212.0,107.5 178,65" fill="none" stroke="black" stroke-width="2" /><path d="M 10,146 Q 139.5,131.0 173,20 Q 151.5,72.0 178,76 Q 127.5,24.0 23,26 Q 71.5,77.5 176,73" fill="none" stroke="black" stroke-width="2" /><path d="M 175,60 Q 154.5,107.0 190,98 Q 163.5,22.0 41,42 Q 1.0,40.5 13,91 Q 130.5,76.0 202,15" fill="none" stroke="black" stroke-width="2" /><path d="M 173,58 Q 46.5,59.0 2,142 Q 50.0,126.0 16,28 Q 44.0,106.0 128,128 Q 118.0,25.5 24,7" fill="none" stroke="black" stroke-width="2" /></g></svg>