<?xml version="1.0" encoding="utf-8" ?>
<svg baseProfile="full" height="210mm" version="1.1" viewBox="0 0 297 210" width="297mm" xmlns="http://www.w3.org/2000/svg" xmlns:ev="http://www.w3.org/2001/xml-events" xmlns:xlink="http://www.w3.org/1999/xlink"><defs /><g transform="translate(43,30)"><path d="M 196,105 Q 233.5,17.0 177,23 Q 179.5,-18.5 106,16 Q 61.5,-1.0 83,48 Q 59.5,121.5 96,135" fill="none" stroke="black" stroke-width="2" /><path d="M 78,66 Q 52.5,132.0 91,134 Q 118.0,66.5 55,89 Q 94.0,25.0 53,41 Q 167.5,69.0 194,9" fill="none" stroke="black" stroke-width="2" /><path d="M 35,41 Q 113.0,54.0 131,7 Q 111.0,63.5 139,72 Q 148.0,6.0 97,0 Q 57.5,96.0 98,112" fill="none" stroke="black" stroke-width="2" /><path d="M 189,4 Q 113.5,-24.0 116,26 Q 138.5,-26.5 79,3 Q 99.5,92.0 208,93 Q 67.0,57.5 4,100" fill="none" stroke="black" stroke-width="2" /></g></svg>