<?xml version="1.0" encoding="utf-8" ?>
<svg baseProfile="full" height="210mm" version="1.1" viewBox="0 0 297 210" width="297mm" xmlns="http://www.w3.org/2000/svg" xmlns:ev="http://www.w3.org/2001/xml-events" xmlns:xlink="http://www.w3.org/1999/xlink"><defs /><g transform="translate(43,30)"><path d="M 139,13 Q 135.5,69.0 176,81 Q 187.0,50.0 140,77 Q 104.0,58.5 112,84 Q 49.5,59.0 73,120" fill="none" stroke="black" stroke-width="2" /><path d="M 47,41 Q 76.0,109.0 187,95 Q 104.0,49.5 121,104 Q 132.0,77.5 101,93 Q 198.5,102.5 208,24" fill="none" stroke="black" stroke-width="2" /><path d="M 34,134 Q 89.5,160.5 77,119 Q 136.5,120.0 114,39 Q 95.0,105.5 128,120 Q 159.0,110.5 134,45" fill="none" stroke="black" stroke-width="2" /><path d="M 69,125 Q 74.5,171.0 168,129 Q 173.0,43.0 126,9 Q 92.5,89.0 151,77 Q 101.0,30.0 11,23" fill="none" stroke="black" stroke-width="2" /></g></svg>