<?xml version="1.0" encoding="utf-8" ?>
<svg baseProfile="full" height="210mm" version="1.1" viewBox="0 0 297 210" width="297mm" xmlns="http://www.w3.org/2000/svg" xmlns:ev="http://www.w3.org/2001/xml-events" xmlns:xlink="http://www.w3.org/1999/xlink"><defs /><g transform="translate(43,30)"><path d="M 176,38 Q 83.5,44.0 59,118 Q 75.5,49.5 18,55 Q 155.5,71.0 209,3 Q 130.5,-18.0 152,61" fill="none" stroke="black" stroke-width="2" /><path d="M 194,39 Q 145.0,0.5 186,52 Q 158.5,13.0 85,20 Q 181.5,57.5 194,11 Q 124.5,-15.0 11,3" fill="none" stroke="black" stroke-width="2" /><path d="M 19,144 Q 32.5,106.5 2,113 Q 83.5,82.0 115,1 Q 106.0,52.5 167,34 Q 115.0,12.5 157,85" fill="none" stroke="black" stroke-width="2" /><path d="M 37,116 Q 50.5,155.0 112,146 Q 138.5,131.5 125,77 Q 151.0,21.5 115,28 Q 39.5,27.0 40,102" fill="none" stroke="black" stroke-width="2" /></g></svg>