<?xml version="1.0" encoding="utf-8" ?>
<svg baseProfile="full" height="210mm" version="1.1" viewBox="0 0 297 210" width="297mm" xmlns="http://www.w3.org/2000/svg" xmlns:ev="http://www.w3.org/2001/xml-events" xmlns:xlink="http://www.w3.org/1999/xlink"><defs /><g transform="translate(43,30)"><path d="M 157,18 Q 129.5,116.5 188,129 Q 231.0,148.0 206,99 Q 224.0,57.5 180,78 Q 203.0,13.5 170,5" fill="none" stroke="black" stroke-width="2" /><path d="M 26,106 Q 61.5,144.5 171,109 Q 95.0,90.0 77,129 Q 39.5,100.0 68,137 Q 172.0,158.5 196,100" fill="none" stroke="black" stroke-width="2" /><path d="M 189,115 Q 192.5,21.5 104,20 Q 38.5,13.5 49,83 Q 78.5,138.0 202,99 Q 200.0,36.0 148,23" fill="none" stroke="black" stroke-width="2" /><path d="M 13,103 Q 68.0,88.0 69,19 Q 96.5,51.5 184,24 Q 66.0,38.5 20,125 Q 75.5,126.0 53,49" fill="none" stroke="black" stroke-width="2" /></g></svg>