<?xml version="1.0" encoding="utf-8" ?>
<svg baseProfile="full" height="210mm" version="1.1" viewBox="0 0 297 210" width="297mm" xmlns="http://www.w3.org/2000/svg" xmlns:ev="http://www.w3.org/2001/xml-events" xmlns:xlink="http://www.w3.org/1999/xlink"><defs /><g transform="translate(43,30)"><path d="M 117,124 Q 109.5,66.5 40,71 Q 119.5,96.0 117,39 Q 26.5,33.5 36,128 Q 69.0,126.5 62,85" fill="none" stroke="black" stroke-width="2" /><path d="M 50,106 Q 141.0,119.5 158,59 Q 121.5,106.5 165,74 Q 86.5,36.0 86,76 Q 151.5,70.0 175,22" fill="none" stroke="black" stroke-width="2" /><path d="M 63,83 Q 117.0,88.5 103,26 Q 24.5,5.5 6,45 Q -30.5,50.5 5,128 Q 102.5,104.5 142,23" fill="none" stroke="black" stroke-width="2" /><path d="M 39,122 Q 145.0,131.0 165,54 Q 146.5,-6.0 56,6 Q -3.0,-14.0 32,60 Q 71.5,82.5 41,35" fill="none" stroke="black" stroke-width="2" /></g></svg>