<?xml version="1.0" encoding="utf-8" ?>
<svg baseProfile="full" height="210mm" version="1.1" viewBox="0 0 297 210" width="297mm" xmlns="http://www.w3.org/2000/svg" xmlns:ev="http://www.w3.org/2001/xml-events" xmlns:xlink="http://www.w3.org/1999/xlink"><defs /><g transform="translate(43,30)"><path d="M 103,43 Q 168.0,76.0 165,41 Q 146.0,83.0 175,77 Q 115.5,67.5 102,104 Q 179.5,119.5 167,45" fill="none" stroke="black" stroke-width="2" /><path d="M 46,147 Q 153.5,134.0 163,23 Q 80.0,24.0 63,91 Q 82.5,39.5 36,54 Q 79.0,-20.0 26,2" fill="none" stroke="black" stroke-width="2" /><path d="M 56,110 Q 162.5,116.5 201,55 Q 88.5,38.0 76,121 Q 183.5,146.0 209,89 Q 79.5,71.0 32,135" fill="none" stroke="black" stroke-width="2" /><path d="M 7,20 Q 31.0,129.5 155,139 Q 166.0,48.5 111,24 Q 28.0,6.5 35,79 Q 68.0,142.0 161,145" fill="none" stroke="black" stroke-width="2" /></g></svg>