<?xml version="1.0" encoding="utf-8" ?>
<svg baseProfile="full" height="210mm" version="1.1" viewBox="0 0 297 210" width="297mm" xmlns="http://www.w3.org/2000/svg" xmlns:ev="http://www.w3.org/2001/xml-events" xmlns:xlink="http://www.w3.org/1999/xlink"><defs /><g transform="translate(43,30)"><path d="M 72,141 Q 174.0,187.0 182,139 Q 162.5,89.0 71,111 Q 100.0,16.5 31,20 Q 62.5,87.0 148,100" fill="none" stroke="black" stroke-width="2" /><path d="M 101,147 Q 152.5,168.5 154,140 Q 125.5,87.5 15,117 Q 76.5,155.5 194,138 Q 99.0,89.0 4,138" fill="none" stroke="black" stroke-width="2" /><path d="M 158,67 Q 118.5,48.5 119,70 Q 29.5,30.0 34,84 Q 110.5,99.0 115,42 Q 132.5,7.5 86,37" fill="none" stroke="black" stroke-width="2" /><path d="M 113,51 Q 74.0,33.5 111,92 Q 118.0,16.0 49,16 Q 17.5,-5.5 46,33 Q 27.5,84.0 55,89" fill="none" stroke="black" stroke-width="2" /></g></svg>