<?xml version="1.0" encoding="utf-8" ?>
<svg baseProfile="full" height="210mm" version="1.1" viewBox="0 0 297 210" width="297mm" xmlns="http://www.w3.org/2000/svg" xmlns:ev="http://www.w3.org/2001/xml-events" xmlns:xlink="http://www.w3.org/1999/xlink"><defs /><g transform="translate(43,30)"><path d="M 27,26 Q 58.0,87.5 175,63 Q 64.5,40.5 16,80 Q 131.0,106.5 188,75 Q 174.5,121.0 207,121" fill="none" stroke="black" stroke-width="2" /><path d="M 45,25 Q 88.0,72.0 191,59 Q 185.5,10.5 108,34 Q 108.0,81.5 148,89 Q 85.0,63.5 122,138" fill="none" stroke="black" stroke-width="2" /><path d="M 68,18 Q 133.0,39.0 142,4 Q 45.0,22.0 42,134 Q 94.5,153.0 97,122 Q 105.5,49.5 70,21" fill="none" stroke="black" stroke-width="2" /><path d="M 85,20 Q 33.0,5.5 27,37 Q -1.0,83.0 27,129 Q 76.5,150.0 36,81 Q 130.5,82.5 169,28" fill="none" stroke="black" stroke-width="2" /></g></svg>