<?xml version="1.0" encoding="utf-8" ?>
<svg baseProfile="full" height="210mm" version="1.1" viewBox="0 0 297 210" width="297mm" xmlns="http://www.w3.org/2000/svg" xmlns:ev="http://www.w3.org/2001/xml-events" xmlns:xlink="http://www.w3.org/1999/xlink"><defs /><g transform="translate(43,30)"><path d="M 164,100 Q 90.0,75.0 72,106 Q 82.0,50.0 44,42 Q 36.0,129.0 126,118 Q 33.5,80.0 27,128" fill="none" stroke="black" stroke-width="2" /><path d="M 66,102 Q 88.5,140.0 151,138 Q 127.0,50.5 41,25 Q 47.0,79.5 139,48 Q 205.0,65.5 205,17" fill="none" stroke="black" stroke-width="2" /><path d="M 21,58 Q 90.0,90.0 79,42 Q 50.0,28.5 67,61 Q 148.5,92.5 146,40 Q 83.0,24.5 116,105" fill="none" stroke="black" stroke-width="2" /><path d="M 137,49 Q 163.0,-11.0 101,17 Q 145.5,54.0 110,11 Q 46.0,32.5 38,110 Q 152.0,133.0 200,90" fill="none" stroke="black" stroke-width="2" /></g></svg>