<?xml version="1.0" encoding="utf-8" ?>
<svg baseProfile="full" height="210mm" version="1.1" viewBox="0 0 297 210" width="297mm" xmlns="http://www.w3.org/2000/svg" xmlns:ev="http://www.w3.org/2001/xml-events" xmlns:xlink="http://www.w3.org/1999/xlink"><defs /><g transform="translate(43,30)"><path d="M 40,40 Q 140.0,60.5 180,21 Q 128.0,-14.5 168,42 Q 104.0,21.0 92,52 Q 106.0,17.0 76,26" fill="none" stroke="black" stroke-width="2" /><path d="M 92,74 Q 174.0,101.5 176,49 Q 50.0,16.5 10,70 Q 62.0,99.5 158,85 Q 58.0,39.5 50,86" fill="none" stroke="black" stroke-width="2" /><path d="M 22,95 Q -21.0,71.5 6,118 Q 37.5,47.0 3,42 Q 26.0,102.0 129,82 Q 109.5,136.5 166,115" fill="none" stroke="black" stroke-width="2" /><path d="M 106,81 Q 72.5,136.0 109,121 Q 157.5,116.0 136,41 Q 62.0,11.0 58,51 Q 123.0,87.0 100,35" fill="none" stroke="black" stroke-width="2" /></g></svg>