<?xml version="1.0" encoding="utf-8" ?>
<svg baseProfile="full" height="210mm" version="1.1" viewBox="0 0 297 210" width="297mm" xmlns="http://www.w3.org/2000/svg" xmlns:ev="http://www.w3.org/2001/xml-events" xmlns:xlink="http://www.w3.org/1999/xlink"><defs /><g transform="translate(43,30)"><path d="M 61,101 Q 7.0,84.5 23,138 Q 85.5,98.5 92,3 Q 59.5,106.0 113,123 Q 122.5,71.0 40,111" fill="none" stroke="black" stroke-width="2" /><path d="M 161,59 Q 126.5,133.5 162,138 Q 135.5,67.0 17,88 Q 141.5,98.5 188,31 Q 123.5,2.5 135,50" fill="none" stroke="black" stroke-width="2" /><path d="M 10,23 Q 58.5,109.5 163,140 Q 156.5,81.0 100,72 Q 97.0,26.5 30,45 Q 18.0,83.0 68,59" fill="none" stroke="black" stroke-width="2" /><path d="M 48,45 Q 14.0,94.5 56,68 Q 47.0,120.5 84,127 Q 85.5,38.0 25,11 Q 63.5,121.5 188,146" fill="none" stroke="black" stroke-width="2" /></g></svg>