<?xml version="1.0" encoding="utf-8" ?>
<svg baseProfile="full" height="210mm" version="1.1" viewBox="0 0 297 210" width="297mm" xmlns="http://www.w3.org/2000/svg" xmlns:ev="http://www.w3.org/2001/xml-events" xmlns:xlink="http://www.w3.org/1999/xlink"><defs /><g transform="translate(43,30)"><path d="M 37,98 Q 113.5,105.5 122,45 Q 74.0,32.0 90,83 Q 6.5,55.0 9,113 Q 7.0,174.0 93,147" fill="none" stroke="black" stroke-width="2" /><path d="M 204,44 Q 178.0,-2.0 94,10 Q 117.5,89.0 185,124 Q 171.0,156.5 203,143 Q 133.0,110.5 129,144" fill="none" stroke="black" stroke-width="2" /><path d="M 87,88 Q 105.5,37.0 68,42 Q 86.5,97.5 145,113 Q 136.5,49.5 42,72 Q 21.5,121.0 67,104" fill="none" stroke="black" stroke-width="2" /><path d="M 202,107 Q 90.0,92.0 38,137 Q 79.5,141.0 53,77 Q 151.0,88.0 153,3 Q 103.5,8.5 122,82" fill="none" stroke="black" stroke-width="2" /></g></svg>