<?xml version="1.0" encoding="utf-8" ?>
<svg baseProfile="full" height="210mm" version="1.1" viewBox="0 0 297 210" width="297mm" xmlns="http://www.w3.org/2000/svg" xmlns:ev="http://www.w3.org/2001/xml-events" xmlns:xlink="http://www.w3.org/1999/xlink"><defs /><g transform="translate(43,30)"><path d="M 53,77 Q 75.0,105.0 147,83 Q 144.5,125.5 210,100 Q 144.5,60.5 27,73 Q 107.0,93.5 127,54" fill="none" stroke="black" stroke-width="2" /><path d="M 177,120 Q 194.0,72.5 147,89 Q 130.0,14.0 27,25 Q 7.5,97.0 34,123 Q 128.5,119.0 165,57" fill="none" stroke="black" stroke-width="2" /><path d="M 202,49 Q 151.5,45.0 183,123 Q 125.5,53.0 18,33 Q 57.5,67.0 159,39 Q 114.0,40.5 145,118" fill="none" stroke="black" stroke-width="2" /><path d="M 167,4 Q 65.0,-16.5 57,57 Q 44.0,113.0 101,99 Q 92.0,60.5 13,92 Q 109.0,98.5 139,39" fill="none" stroke="black" stroke-width="2" /></g></svg>