<?xml version="1.0" encoding="utf-8" ?>
<svg baseProfile="full" height="210mm" version="1.1" viewBox="0 0 297 210" width="297mm" xmlns="http://www.w3.org/2000/svg" xmlns:ev="http://www.w3.org/2001/xml-events" xmlns:xlink="http://www.w3.org/1999/xlink"><defs /><g transform="translate(43,30)"><path d="M 89,12 Q 85.0,106.5 141,141 Q 159.5,77.0 126,65 Q 200.5,84.5 195,24 Q 120.5,8.0 120,66" fill="none" stroke="black" stroke-width="2" /><path d="M 166,15 Q 127.0,-23.5 12,14 Q 37.5,108.0 133,132 Q 204.0,112.0 197,14 Q 113.0,-16.5 115,39" fill="none" stroke="black" stroke-width="2" /><path d="M 167,139 Q 153.5,83.5 90,78 Q 154.5,88.5 129,9 Q 120.0,106.0 209,105 Q 193.0,41.5 109,46" fill="none" stroke="black" stroke-width="2" /><path d="M 203,122 Q 173.0,50.5 65,57 Q 34.5,56.5 62,114 Q 115.0,104.0 128,54 Q 119.5,-8.5 13,27" fill="none" stroke="black" stroke-width="2" /></g></svg>