<?xml version="1.0" encoding="utf-8" ?>
<svg baseProfile="full" height="210mm" version="1.1" viewBox="0 0 297 210" width="297mm" xmlns="http://www.w3.org/2000/svg" xmlns:ev="http://www.w3.org/2001/xml-events" xmlns:xlink="http://www.w3.org/1999/xlink"><defs /><g transform="translate(43,30)"><path d="M 76,35 Q 168.0,62.0 188,17 Q 73.0,11.5 20,68 Q 73.5,97.5 177,77 Q 128.0,65.0 147,121" fill="none" stroke="black" stroke-width="2" /><path d="M 24,83 Q 136.5,111.0 181,71 Q 83.0,41.5 83,110 Q 78.0,30.0 9,14 Q -19.5,93.0 16,108" fill="none" stroke="black" stroke-width="2" /><path d="M 201,62 Q 130.5,58.0 122,116 Q 180.0,153.0 140,92 Q 134.0,26.5 86,3 Q 42.5,110.0 99,117" fill="none" stroke="black" stroke-width="2" /><path d="M 191,55 Q 121.5,25.0 132,75 Q 145.0,12.5 68,40 Q 162.0,61.5 198,25 Q 123.5,11.5 91,40" fill="none" stroke="black" stroke-width="2" /></g></svg>