<?xml version="1.0" encoding="utf-8" ?>
<svg baseProfile="full" height="210mm" version="1.1" viewBox="0 0 297 210" width="297mm" xmlns="http://www.w3.org/2000/svg" xmlns:ev="http://www.w3.org/2001/xml-events" xmlns:xlink="http://www.w3.org/1999/xlink"><defs /><g transform="translate(43,30)"><path d="M 23,86 Q 130.5,98.5 144,17 Q 140.5,-15.5 87,2 Q 39.5,-7.0 80,72 Q 90.5,114.5 173,85" fill="none" stroke="black" stroke-width="2" /><path d="M 205,1 Q 121.0,3.5 97,66 Q 4.5,60.5 4,147 Q 110.0,126.5 128,18 Q 24.0,15.0 6,98" fill="none" stroke="black" stroke-width="2" /><path d="M 112,98 Q 112.5,15.5 27,19 Q 58.0,112.5 179,116 Q 117.5,86.5 6,107 Q 2.5,173.5 97,142" fill="none" stroke="black" stroke-width="2" /><path d="M 22,67 Q 34.5,102.0 113,71 Q 78.5,50.5 104,90 Q 146.0,132.0 188,90 Q 131.0,23.0 24,6" fill="none" stroke="black" stroke-width="2" /></g></svg>