<?xml version="1.0" encoding="utf-8" ?>
<svg baseProfile="full" height="210mm" version="1.1" viewBox="0 0 297 210" width="297mm" xmlns="http://www.w3.org/2000/svg" xmlns:ev="http://www.w3.org/2001/xml-events" xmlns:xlink="http://www.w3.org/1999/xlink"><defs /><g transform="translate(43,30)"><path d="M 104,131 Q 150.5,153.0 117,95 Q 114.0,14.5 25,20 Q -9.0,-3.0 13,30 Q -36.0,23.0 7,108" fill="none" stroke="black" stroke-width="2" /><path d="M 150,23 Q 105.0,27.0 142,113 Q 67.5,73.0 81,121 Q 114.5,94.5 98,18 Q 109.0,89.5 164,117" fill="none" stroke="black" stroke-width="2" /><path d="M 141,7 Q 60.5,-15.5 52,34 Q 25.0,87.0 66,72 Q 145.5,104.0 137,48 Q 106.5,96.5 158,63" fill="none" stroke="black" stroke-width="2" /><path d="M 107,144 Q 163.0,131.5 147,47 Q 54.5,18.5 58,86 Q 16.5,69.0 19,96 Q 113.5,135.5 120,87" fill="none" stroke="black" stroke-width="2" /></g></svg>