<?xml version="1.0" encoding="utf-8" ?>
<svg baseProfile="full" height="210mm" version="1.1" viewBox="0 0 297 210" width="297mm" xmlns="http://www.w3.org/2000/svg" xmlns:ev="http://www.w3.org/2001/xml-events" xmlns:xlink="http://www.w3.org/1999/xlink"><defs /><g transform="translate(43,30)"><path d="M 35,60 Q 101.5,71.5 120,35 Q 111.5,96.5 151,110 Q 203.5,130.5 156,51 Q 72.0,16.0 88,81" fill="none" stroke="black" stroke-width="2" /><path d="M 183,136 Q 98.0,91.0 105,138 Q 189.5,112.5 190,3 Q 103.0,-3.5 90,64 Q 43.5,57.0 55,108" fill="none" stroke="black" stroke-width="2" /><path d="M 30,142 Q 108.0,123.5 112,31 Q 23.5,18.5 17,88 Q 55.5,87.0 46,38 Q 8.5,46.5 37,121" fill="none" stroke="black" stroke-width="2" /><path d="M 118,51 Q 62.5,73.5 57,146 Q 157.0,156.0 175,84 Q 114.0,23.0 5,10 Q 133.0,35.0 201,0" fill="none" stroke="black" stroke-width="2" /></g></svg>