<?xml version="1.0" encoding="utf-8" ?>
<svg baseProfile="full" height="210mm" version="1.1" viewBox="0 0 297 210" width="297mm" xmlns="http://www.w3.org/2000/svg" xmlns:ev="http://www.w3.org/2001/xml-events" xmlns:xlink="http://www.w3.org/1999/xlink"><defs /><g transform="translate(43,30)"><path d="M 158,124 Q 45.0,81.0 22,128 Q 39.0,68.0 4,60 Q -20.0,111.0 52,66 Q 100.5,84.5 53,7" fill="none" stroke="black" stroke-width="2" /><path d="M 7,102 Q 102.0,106.0 111,24 Q 74.5,103.0 116,104 Q 145.5,86.0 119,12 Q 36.0,16.5 5,73" fill="none" stroke="black" stroke-width="2" /><path d="M 73,5 Q 10.0,7.5 45,108 Q 170.0,138.0 209,82 Q 195.0,31.0 141,20 Q 96.0,109.0 143,106" fill="none" stroke="black" stroke-width="2" /><path d="M 176,121 Q 229.5,134.0 185,49 Q 132.5,-1.0 6,23 Q 40.0,64.5 124,56 Q 118.5,128.0 209,104" fill="none" stroke="black" stroke-width="2" /></g></svg>