<?xml version="1.0" encoding="utf-8" ?>
<svg baseProfile="full" height="210mm" version="1.1" viewBox="0 0 297 210" width="297mm" xmlns="http://www.w3.org/2000/svg" xmlns:ev="http://www.w3.org/2001/xml-events" xmlns:xlink="http://www.w3.org/1999/xlink"><defs /><g transform="translate(43,30)"><path d="M 112,65 Q 116.5,28.5 51,62 Q 165.0,82.5 179,3 Q 152.0,92.0 183,123 Q 219.0,46.5 175,50" fill="none" stroke="black" stroke-width="2" /><path d="M 22,117 Q 55.0,113.0 36,57 Q 133.5,72.5 173,30 Q 74.5,41.0 24,100 Q 55.0,47.0 8,72" fill="none" stroke="black" stroke-width="2" /><path d="M 6,30 Q -14.5,106.0 33,114 Q 161.0,119.0 203,38 Q 138.5,37.0 170,132 Q 160.5,66.5 77,75" fill="none" stroke="black" stroke-width="2" /><path d="M 23,6 Q 48.0,88.5 155,89 Q 171.5,4.0 94,13 Q 104.5,54.0 187,23 Q 53.0,14.5 17,104" fill="none" stroke="black" stroke-width="2" /></g></svg>