<?xml version="1.0" encoding="utf-8" ?>
<svg baseProfile="full" height="210mm" version="1.1" viewBox="0 0 297 210" width="297mm" xmlns="http://www.w3.org/2000/svg" xmlns:ev="http://www.w3.org/2001/xml-events" xmlns:xlink="http://www.w3.org/1999/xlink"><defs /><g transform="translate(43,30)"><path d="M 134,136 Q 136.5,61.0 95,30 Q 0.5,-17.0 4,34 Q 144.0,70.5 206,29 Q 151.5,19.5 157,70" fill="none" stroke="black" stroke-width="2" /><path d="M 153,112 Q 107.5,93.0 104,116 Q 105.0,151.0 174,118 Q 104.5,87.5 101,123 Q 42.5,88.0 70,139" fill="none" stroke="black" stroke-width="2" /><path d="M 97,8 Q 48.0,28.5 49,99 Q 82.5,58.0 44,89 Q 18.5,149.0 79,123 Q 64.0,159.5 105,140" fill="none" stroke="black" stroke-width="2" /><path d="M 115,67 Q 107.5,-13.5 0,6 Q 18.5,49.0 115,14 Q 57.0,32.5 83,135 Q 95.0,165.0 155,147" fill="none" stroke="black" stroke-width="2" /></g></svg>