<?xml version="1.0" encoding="utf-8" ?>
<svg baseProfile="full" height="210mm" version="1.1" viewBox="0 0 297 210" width="297mm" xmlns="http://www.w3.org/2000/svg" xmlns:ev="http://www.w3.org/2001/xml-events" xmlns:xlink="http://www.w3.org/1999/xlink"><defs /><g transform="translate(43,30)"><path d="M 103,112 Q 187.0,105.5 199,27 Q 159.0,16.5 183,70 Q 176.0,34.5 107,61 Q 42.5,64.5 50,140" fill="none" stroke="black" stroke-width="2" /><path d="M 121,11 Q 23.0,24.0 7,119 Q 47.5,89.5 30,2 Q 41.5,39.5 113,17 Q 60.5,-9.0 70,27" fill="none" stroke="black" stroke-width="2" /><path d="M 200,122 Q 178.0,20.5 56,19 Q 144.5,35.0 191,9 Q 102.5,-32.0 110,23 Q 13.5,-8.0 1,45" fill="none" stroke="black" stroke-width="2" /><path d="M 64,106 Q 14.0,79.0 32,120 Q 147.5,129.0 169,44 Q 117.5,47.0 154,138 Q 142.5,34.0 47,14" fill="none" stroke="black" stroke-width="2" /></g></svg>