<?xml version="1.0" encoding="utf-8" ?>
<svg baseProfile="full" height="210mm" version="1.1" viewBox="0 0 297 210" width="297mm" xmlns="http://www.w3.org/2000/svg" xmlns:ev="http://www.w3.org/2001/xml-events" xmlns:xlink="http://www.w3.org/1999/xlink"><defs /><g transform="translate(43,30)"><path d="M 203,34 Q 146.0,26.5 165,95 Q 165.0,34.5 79,60 Q 99.0,11.5 73,9 Q 83.0,101.5 143,144" fill="none" stroke="black" stroke-width="2" /><path d="M 11,146 Q 133.0,128.5 189,45 Q 229.0,-23.5 171,6 Q 98.5,34.0 96,132 Q 98.0,59.5 48,39" fill="none" stroke="black" stroke-width="2" /><path d="M 2,72 Q 112.5,91.5 139,27 Q 55.5,8.0 66,83 Q 65.0,125.0 136,95 Q 180.0,98.0 146,23" fill="none" stroke="black" stroke-width="2" /><path d="M 72,139 Q 99.0,44.5 70,6 Q 60.5,56.5 121,37 Q 113.0,120.5 161,148 Q 211.0,151.5 175,69" fill="none" stroke="black" stroke-width="2" /></g></svg>