<?xml version="1.0" encoding="utf-8" ?>
<svg baseProfile="full" height="210mm" version="1.1" viewBox="0 0 297 210" width="297mm" xmlns="http://www.w3.org/2000/svg" xmlns:ev="http://www.w3.org/2001/xml-events" xmlns:xlink="http://www.w3.org/1999/xlink"><defs /><g transform="translate(43,30)"><path d="M 134,28 Q 57.0,44.5 46,127 Q 96.5,123.0 55,27 Q 30.5,30.5 48,76 Q 72.5,112.5 157,89" fill="none" stroke="black" stroke-width="2" /><path d="M 126,5 Q 47.0,-18.0 50,41 Q 50.0,135.5 142,138 Q 105.5,71.0 25,48 Q 89.5,71.0 194,54" fill="none" stroke="black" stroke-width="2" /><path d="M 189,53 Q 211.5,-4.5 162,10 Q 142.0,53.0 182,36 Q 115.5,28.0 133,104 Q 93.0,160.0 135,134" fill="none" stroke="black" stroke-width="2" /><path d="M 125,35 Q 94.0,112.0 151,101 Q 107.0,151.5 153,112 Q 201.0,109.0 187,44 Q 80.5,15.5 36,49" fill="none" stroke="black" stroke-width="2" /></g></svg>