<?xml version="1.0" encoding="utf-8" ?>
<svg baseProfile="full" height="210mm" version="1.1" viewBox="0 0 297 210" width="297mm" xmlns="http://www.w3.org/2000/svg" xmlns:ev="http://www.w3.org/2001/xml-events" xmlns:xlink="http://www.w3.org/1999/xlink"><defs /><g transform="translate(43,30)"><path d="M 91,95 Q 157.0,86.0 167,21 Q 114.0,18.0 125,79 Q 99.5,43.0 22,59 Q 127.0,83.0 160,35" fill="none" stroke="black" stroke-width="2" /><path d="M 184,130 Q 136.5,102.0 49,114 Q 134.5,104.5 162,37 Q 141.0,-24.0 30,5 Q 8.0,53.0 56,31" fill="none" stroke="black" stroke-width="2" /><path d="M 106,70 Q 116.0,36.5 70,59 Q 90.0,-5.5 28,12 Q 17.0,103.5 78,123 Q 128.0,92.0 134,17" fill="none" stroke="black" stroke-width="2" /><path d="M 200,39 Q 166.0,-7.5 70,8 Q 50.5,89.0 79,122 Q 69.5,92.5 14,109 Q 73.0,143.0 32,77" fill="none" stroke="black" stroke-width="2" /></g></svg>