<?xml version="1.0" encoding="utf-8" ?>
<svg baseProfile="full" height="210mm" version="1.1" viewBox="0 0 297 210" width="297mm" xmlns="http://www.w3.org/2000/svg" xmlns:ev="http://www.w3.org/2001/xml-events" xmlns:xlink="http://www.w3.org/1999/xlink"><defs /><g transform="translate(43,30)"><path d="M 34,144 Q 149.0,164.5 208,129 Q 135.0,115.0 108,147 Q 80.5,54.5 1,14 Q -12.5,75.5 72,39" fill="none" stroke="black" stroke-width="2" /><path d="M 94,49 Q 79.0,129.0 140,133 Q 138.0,63.5 96,34 Q 60.5,15.0 95,66 Q 47.5,56.0 40,86" fill="none" stroke="black" stroke-width="2" /><path d="M 143,82 Q 122.0,37.5 27,67 Q 100.5,70.5 112,12 Q 84.0,86.5 136,81 Q 96.0,17.5 10,0" fill="none" stroke="black" stroke-width="2" /><path d="M 66,143 Q 152.5,163.0 193,137 Q 159.0,142.0 193,147 Q 194.0,75.0 117,81 Q 117.5,108.5 162,92" fill="none" stroke="black" stroke-width="2" /></g></svg>