<?xml version="1.0" encoding="utf-8" ?>
<svg baseProfile="full" height="210mm" version="1.1" viewBox="0 0 297 210" width="297mm" xmlns="http://www.w3.org/2000/svg" xmlns:ev="http://www.w3.org/2001/xml-events" xmlns:xlink="http://www.w3.org/1999/xlink"><defs /><g transform="translate(43,30)"><path d="M 169,40 Q 104.0,49.0 101,120 Q 128.0,152.0 209,130 Q 191.0,57.5 103,55 Q 49.5,73.5 44,140" fill="none" stroke="black" stroke-width="2" /><path d="M 25,19 Q 75.0,101.0 199,109 Q 150.0,43.0 55,23 Q 52.0,117.5 125,136 Q 115.0,83.0 55,80" fill="none" stroke="black" stroke-width="2" /><path d="M 208,53 Q 169.0,59.5 170,106 Q 149.0,15.5 48,5 Q 85.5,90.0 183,115 Q 160.5,48.0 90,29" fill="none" stroke="black" stroke-width="2" /><path d="M 47,122 Q 103.5,103.5 106,31 Q 111.5,107.0 183,117 Q 193.5,42.0 116,55 Q 94.5,131.0 167,113" fill="none" stroke="black" stroke-width="2" /></g></svg>