<?xml version="1.0" encoding="utf-8" ?>
<svg baseProfile="full" height="210mm" version="1.1" viewBox="0 0 297 210" width="297mm" xmlns="http://www.w3.org/2000/svg" xmlns:ev="http://www.w3.org/2001/xml-events" xmlns:xlink="http://www.w3.org/1999/xlink"><defs /><g transform="translate(43,30)"><path d="M 92,107 Q 152.5,132.0 149,93 Q 86.0,68.0 91,111 Q 93.5,57.5 30,70 Q 83.0,104.5 190,85" fill="none" stroke="black" stroke-width="2" /><path d="M 167,89 Q 162.5,22.0 70,43 Q 87.0,1.0 50,13 Q 31.0,75.5 86,64 Q 102.0,116.5 192,95" fill="none" stroke="black" stroke-width="2" /><path d="M 165,87 Q 41.5,48.5 12,104 Q 131.0,111.0 152,20 Q 89.5,-15.5 115,37 Q 48.5,28.0 50,87" fill="none" stroke="black" stroke-width="2" /><path d="M 7,15 Q -12.0,100.5 35,120 Q 46.0,174.0 139,146 Q 167.0,79.5 117,91 Q 141.0,86.5 121,38" fill="none" stroke="black" stroke-width="2" /></g></svg>