<?xml version="1.0" encoding="utf-8" ?>
<svg baseProfile="full" height="210mm" version="1.1" viewBox="0 0 297 210" width="297mm" xmlns="http://www.w3.org/2000/svg" xmlns:ev="http://www.w3.org/2001/xml-events" xmlns:xlink="http://www.w3.org/1999/xlink"><defs /><g transform="translate(43,30)"><path d="M 28,20 Q -10.5,89.0 37,72 Q 114.5,72.0 130,10 Q 46.5,19.5 31,97 Q 133.5,88.0 162,5" fill="none" stroke="black" stroke-width="2" /><path d="M 182,95 Q 180.5,57.0 117,81 Q 111.0,20.0 43,21 Q 74.5,-31.0 10,13 Q -13.5,73.5 23,74" fill="none" stroke="black" stroke-width="2" /><path d="M 174,88 Q 142.0,129.0 188,92 Q 182.5,58.5 119,83 Q 76.5,50.5 108,92 Q 171.5,125.5 155,79" fill="none" stroke="black" stroke-width="2" /><path d="M 189,36 Q 62.5,8.5 6,51 Q -8.5,135.5 61,136 Q 55.5,71.0 10,46 Q 23.0,112.0 134,80" fill="none" stroke="black" stroke-width="2" /></g></svg>