<?xml version="1.0" encoding="utf-8" ?>
<svg baseProfile="full" height="210mm" version="1.1" viewBox="0 0 297 210" width="297mm" xmlns="http://www.w3.org/2000/svg" xmlns:ev="http://www.w3.org/2001/xml-events" xmlns:xlink="http://www.w3.org/1999/xlink"><defs /><g transform="translate(43,30)"><path d="M 89,47 Q 127.5,51.0 118,7 Q 103.0,98.0 162,115 Q 164.0,29.0 68,41 Q 169.0,73.0 202,37" fill="none" stroke="black" stroke-width="2" /><path d="M 68,126 Q 96.0,56.5 36,75 Q 26.5,103.5 69,80 Q 108.5,2.5 66,7 Q 32.0,56.0 38,145" fill="none" stroke="black" stroke-width="2" /><path d="M 106,71 Q 155.0,100.0 204,71 Q 102.0,73.5 60,136 Q 86.5,89.5 53,103 Q 100.5,137.0 192,127" fill="none" stroke="black" stroke-width="2" /><path d="M 64,84 Q 54.0,130.0 102,118 Q 136.5,84.5 121,1 Q 120.0,44.0 169,37 Q 119.0,20.5 137,72" fill="none" stroke="black" stroke-width="2" /></g></svg>