<?xml version="1.0" encoding="utf-8" ?>
<svg baseProfile="full" height="210mm" version="1.1" viewBox="0 0 297 210" width="297mm" xmlns="http://www.w3.org/2000/svg" xmlns:ev="http://www.w3.org/2001/xml-events" xmlns:xlink="http://www.w3.org/1999/xlink"><defs /><g transform="translate(43,30)"><path d="M 133,112 Q 156.5,67.0 100,102 Q 82.5,31.5 21,5 Q 21.0,82.5 119,62 Q 152.0,58.0 137,6" fill="none" stroke="black" stroke-width="2" /><path d="M 5,57 Q 72.0,88.5 43,24 Q 7.5,110.0 54,114 Q 43.5,168.5 109,147 Q 118.0,76.0 77,55" fill="none" stroke="black" stroke-width="2" /><path d="M 32,122 Q 152.0,117.0 188,28 Q 72.0,31.5 24,103 Q 157.5,133.5 203,76 Q 107.5,71.0 76,130" fill="none" stroke="black" stroke-width="2" /><path d="M 176,3 Q 104.0,-30.5 132,36 Q 119.0,113.0 158,138 Q 122.0,51.0 18,32 Q 9.0,130.0 86,142" fill="none" stroke="black" stroke-width="2" /></g></svg>