<?xml version="1.0" encoding="utf-8" ?>
<svg baseProfile="full" height="210mm" version="1.1" viewBox="0 0 297 210" width="297mm" xmlns="http://www.w3.org/2000/svg" xmlns:ev="http://www.w3.org/2001/xml-events" xmlns:xlink="http://www.w3.org/1999/xlink"><defs /><g transform="translate(43,30)"><path d="M 85,148 Q 125.0,104.5 115,11 Q 139.5,37.0 206,21 Q 89.0,30.0 62,129 Q 101.5,162.0 195,141" fill="none" stroke="black" stroke-width="2" /><path d="M 35,53 Q 106.0,99.5 83,52 Q 107.5,106.0 182,110 Q 164.5,144.5 201,125 Q 240.5,102.5 202,2" fill="none" stroke="black" stroke-width="2" /><path d="M 125,72 Q 32.5,45.0 40,118 Q 121.5,96.5 153,25 Q 84.5,29.5 116,134 Q 156.0,114.0 130,28" fill="none" stroke="black" stroke-width="2" /><path d="M 41,18 Q 6.5,56.0 42,24 Q 27.0,70.5 100,29 Q 52.5,38.0 81,123 Q 103.0,67.0 79,57" fill="none" stroke="black" stroke-width="2" /></g></svg>