<?xml version="1.0" encoding="utf-8" ?>
<svg baseProfile="full" height="210mm" version="1.1" viewBox="0 0 297 210" width="297mm" xmlns="http://www.w3.org/2000/svg" xmlns:ev="http://www.w3.org/2001/xml-events" xmlns:xlink="http://www.w3.org/1999/xlink"><defs /><g transform="translate(43,30)"><path d="M 107,125 Q 129.0,77.5 103,78 Q 100.5,123.5 140,127 Q 106.0,77.0 24,75 Q 98.5,65.0 129,11" fill="none" stroke="black" stroke-width="2" /><path d="M 152,112 Q 136.5,45.0 29,70 Q 68.5,135.5 182,127 Q 168.5,54.0 73,63 Q 94.5,-4.0 32,13" fill="none" stroke="black" stroke-width="2" /><path d="M 153,35 Q 149.0,0.0 87,23 Q -3.5,-16.0 6,45 Q 55.5,67.5 15,0 Q 32.0,32.5 97,17" fill="none" stroke="black" stroke-width="2" /><path d="M 165,66 Q 112.0,39.5 13,59 Q 76.0,102.0 185,99 Q 73.5,88.0 28,143 Q 129.0,117.0 186,47" fill="none" stroke="black" stroke-width="2" /></g></svg>