<?xml version="1.0" encoding="utf-8" ?>
<svg baseProfile="full" height="210mm" version="1.1" viewBox="0 0 297 210" width="297mm" xmlns="http://www.w3.org/2000/svg" xmlns:ev="http://www.w3.org/2001/xml-events" xmlns:xlink="http://www.w3.org/1999/xlink"><defs /><g transform="translate(43,30)"><path d="M 93,32 Q 119.5,92.5 192,107 Q 139.0,79.5 146,112 Q 135.5,37.5 61,27 Q 89.0,92.0 195,79" fill="none" stroke="black" stroke-width="2" /><path d="M 49,92 Q 161.5,87.5 194,3 Q 93.5,15.0 41,75 Q -5.5,42.5 32,94 Q 95.0,87.0 80,2" fill="none" stroke="black" stroke-width="2" /><path d="M 166,106 Q 141.5,62.5 77,59 Q 35.0,134.5 83,120 Q 17.5,93.0 24,138 Q 122.0,123.5 120,9" fill="none" stroke="black" stroke-width="2" /><path d="M 113,75 Q 123.5,131.5 198,124 Q 189.5,89.0 121,114 Q 158.0,22.5 115,11 Q 117.0,-18.0 69,3" fill="none" stroke="black" stroke-width="2" /></g></svg>