<?xml version="1.0" encoding="utf-8" ?>
<svg baseProfile="full" height="210mm" version="1.1" viewBox="0 0 297 210" width="297mm" xmlns="http://www.w3.org/2000/svg" xmlns:ev="http://www.w3.org/2001/xml-events" xmlns:xlink="http://www.w3.org/1999/xlink"><defs /><g transform="translate(43,30)"><path d="M 21,20 Q 27.5,55.5 82,43 Q 54.5,106.0 115,81 Q 60.0,68.0 51,101 Q 22.5,157.5 88,120" fill="none" stroke="black" stroke-width="2" /><path d="M 40,24 Q 37.5,123.5 129,129 Q 146.5,38.0 90,21 Q 186.0,55.0 202,9 Q 81.5,-10.5 15,24" fill="none" stroke="black" stroke-width="2" /><path d="M 199,7 Q 79.5,-21.0 58,49 Q 37.0,52.0 56,95 Q 142.5,116.5 161,70 Q 107.5,65.0 138,144" fill="none" stroke="black" stroke-width="2" /><path d="M 64,116 Q -10.5,85.0 3,142 Q 43.5,80.0 2,100 Q 103.0,130.0 142,98 Q 118.5,98.5 137,141" fill="none" stroke="black" stroke-width="2" /></g></svg>