<?xml version="1.0" encoding="utf-8" ?>
<svg baseProfile="full" height="210mm" version="1.1" viewBox="0 0 297 210" width="297mm" xmlns="http://www.w3.org/2000/svg" xmlns:ev="http://www.w3.org/2001/xml-events" xmlns:xlink="http://www.w3.org/1999/xlink"><defs /><g transform="translate(43,30)"><path d="M 97,51 Q 155.5,76.0 158,45 Q 125.5,7.0 33,29 Q 83.0,60.5 61,20 Q 88.0,84.5 205,59" fill="none" stroke="black" stroke-width="2" /><path d="M 10,17 Q 11.5,71.5 95,44 Q 161.0,85.5 127,27 Q 59.0,61.5 37,142 Q 129.0,114.0 179,44" fill="none" stroke="black" stroke-width="2" /><path d="M 150,14 Q 43.0,-9.5 32,63 Q 95.5,80.5 113,52 Q 65.5,40.0 76,86 Q 42.5,51.0 9,86" fill="none" stroke="black" stroke-width="2" /><path d="M 136,22 Q 54.0,57.5 14,135 Q 82.0,108.0 70,1 Q 59.0,64.5 132,44 Q 75.0,5.0 118,66" fill="none" stroke="black" stroke-width="2" /></g></svg>