<?xml version="1.0" encoding="utf-8" ?>
<svg baseProfile="full" height="210mm" version="1.1" viewBox="0 0 297 210" width="297mm" xmlns="http://www.w3.org/2000/svg" xmlns:ev="http://www.w3.org/2001/xml-events" xmlns:xlink="http://www.w3.org/1999/xlink"><defs /><g transform="translate(43,30)"><path d="M 77,138 Q 85.5,91.0 16,122 Q 51.5,120.0 35,66 Q -3.5,115.5 40,83 Q 57.0,152.5 150,146" fill="none" stroke="black" stroke-width="2" /><path d="M 94,118 Q 108.5,156.5 179,139 Q 191.5,72.0 120,89 Q 147.0,44.5 98,76 Q 49.0,51.0 62,88" fill="none" stroke="black" stroke-width="2" /><path d="M 127,139 Q 108.0,66.0 37,45 Q 8.0,46.0 33,101 Q 161.5,128.0 206,71 Q 141.0,29.0 162,73" fill="none" stroke="black" stroke-width="2" /><path d="M 138,83 Q 107.5,17.0 23,5 Q 15.0,95.0 77,115 Q 154.0,146.0 133,79 Q 111.0,27.0 17,47" fill="none" stroke="black" stroke-width="2" /></g></svg>