<?xml version="1.0" encoding="utf-8" ?>
<svg baseProfile="full" height="210mm" version="1.1" viewBox="0 0 297 210" width="297mm" xmlns="http://www.w3.org/2000/svg" xmlns:ev="http://www.w3.org/2001/xml-events" xmlns:xlink="http://www.w3.org/1999/xlink"><defs /><g transform="translate(43,30)"><path d="M 31,79 Q 149.5,121.5 176,72 Q 190.5,21.5 163,13 Q 142.0,48.5 173,32 Q 164.0,-13.0 81,16" fill="none" stroke="black" stroke-width="2" /><path d="M 69,18 Q 36.5,78.5 92,51 Q 147.5,79.5 145,50 Q 32.0,54.5 3,143 Q 78.5,170.5 94,138" fill="none" stroke="black" stroke-width="2" /><path d="M 110,77 Q 47.0,68.5 62,138 Q 158.0,117.0 168,10 Q 73.5,40.5 49,141 Q 61.0,73.0 17,61" fill="none" stroke="black" stroke-width="2" /><path d="M 209,120 Q 167.0,42.0 27,62 Q 46.5,22.5 14,35 Q 100.5,62.0 187,35 Q 125.0,8.5 161,80" fill="none" stroke="black" stroke-width="2" /></g></svg>