<?xml version="1.0" encoding="utf-8" ?>
<svg baseProfile="full" height="210mm" version="1.1" viewBox="0 0 297 210" width="297mm" xmlns="http://www.w3.org/2000/svg" xmlns:ev="http://www.w3.org/2001/xml-events" xmlns:xlink="http://www.w3.org/1999/xlink"><defs /><g transform="translate(43,30)"><path d="M 200,134 Q 200.0,28.0 106,16 Q 15.5,0.0 11,70 Q -17.5,155.5 52,143 Q 85.0,111.0 54,15" fill="none" stroke="black" stroke-width="2" /><path d="M 34,64 Q 59.5,1.5 15,9 Q -8.0,42.5 23,22 Q 19.0,48.5 61,29 Q 93.5,97.0 190,101" fill="none" stroke="black" stroke-width="2" /><path d="M 46,112 Q 118.5,121.5 145,85 Q 119.0,41.5 25,66 Q 106.5,84.5 122,37 Q 113.5,120.0 195,113" fill="none" stroke="black" stroke-width="2" /><path d="M 170,50 Q 57.0,56.5 12,131 Q 87.0,103.0 122,35 Q 156.5,53.5 137,18 Q 110.0,92.5 161,89" fill="none" stroke="black" stroke-width="2" /></g></svg>