<?xml version="1.0" encoding="utf-8" ?>
<svg baseProfile="full" height="210mm" version="1.1" viewBox="0 0 297 210" width="297mm" xmlns="http://www.w3.org/2000/svg" xmlns:ev="http://www.w3.org/2001/xml-events" xmlns:xlink="http://www.w3.org/1999/xlink"><defs /><g transform="translate(43,30)"><path d="M 207,118 Q 198.0,51.5 127,47 Q 207.0,79.5 201,26 Q 58.5,19.5 0,97 Q 126.0,119.5 198,88" fill="none" stroke="black" stroke-width="2" /><path d="M 184,2 Q 97.5,-2.5 101,83 Q 65.0,81.5 91,142 Q 142.0,181.5 93,121 Q 118.5,64.0 74,77" fill="none" stroke="black" stroke-width="2" /><path d="M 99,99 Q 92.5,50.0 22,65 Q -25.5,141.0 27,117 Q 137.5,101.0 196,33 Q 170.0,-17.0 72,5" fill="none" stroke="black" stroke-width="2" /><path d="M 13,89 Q 127.0,76.0 193,15 Q 70.5,13.0 6,69 Q 144.5,98.5 193,38 Q 168.0,-11.5 77,5" fill="none" stroke="black" stroke-width="2" /></g></svg>