<?xml version="1.0" encoding="utf-8" ?>
<svg baseProfile="full" height="210mm" version="1.1" viewBox="0 0 297 210" width="297mm" xmlns="http://www.w3.org/2000/svg" xmlns:ev="http://www.w3.org/2001/xml-events" xmlns:xlink="http://www.w3.org/1999/xlink"><defs /><g transform="translate(43,30)"><path d="M 157,100 Q 194.5,83.0 172,6 Q 53.0,-24.0 32,44 Q 62.5,120.5 181,109 Q 163.0,33.0 65,37" fill="none" stroke="black" stroke-width="2" /><path d="M 92,122 Q 134.5,108.5 111,29 Q 84.0,90.0 153,55 Q 127.0,127.0 179,121 Q 153.5,89.0 78,107" fill="none" stroke="black" stroke-width="2" /><path d="M 115,69 Q 172.5,80.5 160,22 Q 84.5,49.5 55,123 Q 73.0,80.5 19,110 Q 134.5,134.5 172,81" fill="none" stroke="black" stroke-width="2" /><path d="M 99,87 Q 163.0,83.5 169,22 Q 118.0,25.5 119,81 Q 58.5,73.0 78,145 Q 167.0,154.0 184,91" fill="none" stroke="black" stroke-width="2" /></g></svg>