<?xml version="1.0" encoding="utf-8" ?>
<svg baseProfile="full" height="210mm" version="1.1" viewBox="0 0 297 210" width="297mm" xmlns="http://www.w3.org/2000/svg" xmlns:ev="http://www.w3.org/2001/xml-events" xmlns:xlink="http://www.w3.org/1999/xlink"><defs /><g transform="translate(43,30)"><path d="M 162,106 Q 182.0,61.0 126,92 Q 163.0,72.5 158,11 Q 155.5,61.0 195,69 Q 181.5,12.0 94,29" fill="none" stroke="black" stroke-width="2" /><path d="M 171,43 Q 178.0,-15.0 109,3 Q 95.5,58.0 178,17 Q 136.5,50.0 153,141 Q 200.0,169.0 169,119" fill="none" stroke="black" stroke-width="2" /><path d="M 187,120 Q 217.0,56.0 181,58 Q 151.0,122.5 197,111 Q 220.5,62.5 172,86 Q 143.5,3.5 17,19" fill="none" stroke="black" stroke-width="2" /><path d="M 168,9 Q 64.0,49.5 16,146 Q 99.5,121.5 119,33 Q 65.5,46.0 66,113 Q 152.5,155.0 151,109" fill="none" stroke="black" stroke-width="2" /></g></svg>