<?xml version="1.0" encoding="utf-8" ?>
<svg baseProfile="full" height="210mm" version="1.1" viewBox="0 0 297 210" width="297mm" xmlns="http://www.w3.org/2000/svg" xmlns:ev="http://www.w3.org/2001/xml-events" xmlns:xlink="http://www.w3.org/1999/xlink"><defs /><g transform="translate(43,30)"><path d="M 85,112 Q 135.0,140.0 121,104 Q 195.5,104.5 182,17 Q 99.5,-28.5 113,22 Q 106.0,86.0 155,94" fill="none" stroke="black" stroke-width="2" /><path d="M 68,124 Q 111.5,135.5 95,87 Q 110.5,0.0 34,5 Q 43.0,58.5 122,42 Q 107.0,106.0 182,80" fill="none" stroke="black" stroke-width="2" /><path d="M 181,66 Q 122.0,32.0 15,46 Q 95.0,48.5 127,3 Q 110.5,70.0 158,73 Q 154.5,138.0 209,145" fill="none" stroke="black" stroke-width="2" /><path d="M 183,102 Q 122.5,47.0 6,48 Q 73.0,68.0 74,22 Q 68.0,99.5 128,111 Q 58.0,81.5 66,130" fill="none" stroke="black" stroke-width="2" /></g></svg>