<?xml version="1.0" encoding="utf-8" ?>
<svg baseProfile="full" height="210mm" version="1.1" viewBox="0 0 297 210" width="297mm" xmlns="http://www.w3.org/2000/svg" xmlns:ev="http://www.w3.org/2001/xml-events" xmlns:xlink="http://www.w3.org/1999/xlink"><defs /><g transform="translate(43,30)"><path d="M 83,87 Q 98.0,14.5 13,42 Q 46.0,113.0 125,138 Q 156.0,51.5 95,57 Q 78.0,129.5 155,108" fill="none" stroke="black" stroke-width="2" /><path d="M 2,2 Q 14.5,48.5 83,39 Q 14.0,25.5 1,68 Q 41.0,139.5 147,145 Q 129.0,105.5 55,122" fill="none" stroke="black" stroke-width="2" /><path d="M 185,131 Q 177.5,35.5 94,16 Q 60.5,-11.5 91,25 Q 103.0,-18.5 37,16 Q 55.0,84.5 169,57" fill="none" stroke="black" stroke-width="2" /><path d="M 205,139 Q 93.0,121.0 25,147 Q 78.5,124.0 38,7 Q 16.0,86.5 58,102 Q 89.5,152.5 185,139" fill="none" stroke="black" stroke-width="2" /></g></svg>