<?xml version="1.0" encoding="utf-8" ?>
<svg baseProfile="full" height="210mm" version="1.1" viewBox="0 0 297 210" width="297mm" xmlns="http://www.w3.org/2000/svg" xmlns:ev="http://www.w3.org/2001/xml-events" xmlns:xlink="http://www.w3.org/1999/xlink"><defs /><g transform="translate(43,30)"><path d="M 2,81 Q 71.0,65.5 94,4 Q 35.5,-4.0 25,36 Q 5.5,113.0 28,148 Q 115.5,177.0 143,146" fill="none" stroke="black" stroke-width="2" /><path d="M 82,137 Q 192.5,171.5 209,112 Q 91.0,79.0 43,116 Q 108.0,136.5 129,113 Q 87.0,36.5 3,2" fill="none" stroke="black" stroke-width="2" /><path d="M 117,127 Q 108.5,58.0 18,71 Q 65.5,58.0 69,1 Q 7.5,31.5 16,132 Q 100.5,141.5 115,81" fill="none" stroke="black" stroke-width="2" /><path d="M 153,83 Q 198.5,86.5 176,22 Q 106.5,35.0 117,128 Q 121.5,160.5 190,129 Q 224.0,110.0 204,37" fill="none" stroke="black" stroke-width="2" /></g></svg>