<?xml version="1.0" encoding="utf-8" ?>
<svg baseProfile="full" height="210mm" version="1.1" viewBox="0 0 297 210" width="297mm" xmlns="http://www.w3.org/2000/svg" xmlns:ev="http://www.w3.org/2001/xml-events" xmlns:xlink="http://www.w3.org/1999/xlink"><defs /><g transform="translate(43,30)"><path d="M 150,39 Q 52.5,53.5 33,146 Q 89.5,147.5 74,77 Q 65.0,38.0 8,47 Q 4.0,100.0 78,75" fill="none" stroke="black" stroke-width="2" /><path d="M 120,22 Q 131.5,97.0 191,124 Q 203.5,89.0 158,112 Q 160.0,63.5 72,105 Q 147.5,109.0 155,45" fill="none" stroke="black" stroke-width="2" /><path d="M 144,77 Q 172.5,73.5 151,20 Q 74.5,12.5 98,105 Q 82.5,147.0 143,113 Q 195.5,148.0 162,97" fill="none" stroke="black" stroke-width="2" /><path d="M 158,52 Q 143.5,129.5 201,135 Q 178.5,60.0 92,49 Q 151.0,72.0 144,29 Q 113.5,75.5 165,40" fill="none" stroke="black" stroke-width="2" /></g></svg>