<?xml version="1.0" encoding="utf-8" ?>
<svg baseProfile="full" height="210mm" version="1.1" viewBox="0 0 297 210" width="297mm" xmlns="http://www.w3.org/2000/svg" xmlns:ev="http://www.w3.org/2001/xml-events" xmlns:xlink="http://www.w3.org/1999/xlink"><defs /><g transform="translate(43,30)"><path d="M 88,50 Q 101.5,15.0 49,46 Q 48.5,98.0 94,104 Q 130.5,37.5 81,57 Q 52.0,34.0 77,65" fill="none" stroke="black" stroke-width="2" /><path d="M 10,10 Q -17.5,109.0 49,114 Q 120.5,130.5 96,51 Q 49.5,50.5 53,100 Q 135.0,106.0 167,62" fill="none" stroke="black" stroke-width="2" /><path d="M 104,146 Q 108.0,42.5 36,15 Q -8.0,1.0 18,57 Q 40.5,124.0 129,125 Q 136.5,77.0 104,69" fill="none" stroke="black" stroke-width="2" /><path d="M 165,81 Q 217.0,98.0 187,33 Q 132.0,53.0 127,123 Q 154.0,21.5 85,16 Q 24.5,39.0 12,110" fill="none" stroke="black" stroke-width="2" /></g></svg>