<?xml version="1.0" encoding="utf-8" ?>
<svg baseProfile="full" height="210mm" version="1.1" viewBox="0 0 297 210" width="297mm" xmlns="http://www.w3.org/2000/svg" xmlns:ev="http://www.w3.org/2001/xml-events" xmlns:xlink="http://www.w3.org/1999/xlink"><defs /><g transform="translate(43,30)"><path d="M 110,107 Q 181.5,117.0 189,63 Q 65.0,32.0 11,71 Q -9.0,107.0 41,73 Q -9.5,59.0 26,131" fill="none" stroke="black" stroke-width="2" /><path d="M 33,105 Q 95.5,100.5 66,4 Q 82.0,43.0 144,36 Q 55.0,56.0 22,132 Q 108.5,95.5 147,11" fill="none" stroke="black" stroke-width="2" /><path d="M 23,48 Q -11.5,112.5 30,101 Q 152.5,89.0 207,9 Q 116.5,23.5 70,82 Q 79.5,14.0 13,22" fill="none" stroke="black" stroke-width="2" /><path d="M 76,104 Q 104.5,120.0 87,90 Q 138.0,120.0 89,50 Q 135.0,79.0 109,36 Q 97.0,103.0 145,110" fill="none" stroke="black" stroke-width="2" /></g></svg>