<?xml version="1.0" encoding="utf-8" ?>
<svg baseProfile="full" height="210mm" version="1.1" viewBox="0 0 297 210" width="297mm" xmlns="http://www.w3.org/2000/svg" xmlns:ev="http://www.w3.org/2001/xml-events" xmlns:xlink="http://www.w3.org/1999/xlink"><defs /><g transform="translate(43,30)"><path d="M 28,116 Q 36.0,160.0 122,126 Q 105.0,54.5 30,41 Q -21.5,44.5 7,128 Q 129.5,142.0 190,94" fill="none" stroke="black" stroke-width="2" /><path d="M 28,125 Q 155.0,120.0 192,25 Q 126.5,-15.5 5,0 Q 70.0,43.5 203,19 Q 116.0,-16.5 113,32" fill="none" stroke="black" stroke-width="2" /><path d="M 117,35 Q 14.5,38.5 0,130 Q 82.0,173.0 64,116 Q 122.5,143.0 121,110 Q 24.5,76.0 16,130" fill="none" stroke="black" stroke-width="2" /><path d="M 110,92 Q 147.0,18.0 94,34 Q 125.5,48.0 103,8 Q 40.0,31.0 55,132 Q 79.5,72.0 24,92" fill="none" stroke="black" stroke-width="2" /></g></svg>