<?xml version="1.0" encoding="utf-8" ?>
<svg baseProfile="full" height="210mm" version="1.1" viewBox="0 0 297 210" width="297mm" xmlns="http://www.w3.org/2000/svg" xmlns:ev="http://www.w3.org/2001/xml-events" xmlns:xlink="http://www.w3.org/1999/xlink"><defs /><g transform="translate(43,30)"><path d="M 182,95 Q 95.5,85.0 71,137 Q 159.0,115.0 193,39 Q 119.0,34.5 119,104 Q 152.5,63.5 112,97" fill="none" stroke="black" stroke-width="2" /><path d="M 166,98 Q 99.0,61.5 110,103 Q 126.0,74.5 96,92 Q 75.0,33.5 8,21 Q 68.5,36.5 79,2" fill="none" stroke="black" stroke-width="2" /><path d="M 36,94 Q 109.0,111.0 126,72 Q 60.5,42.0 61,78 Q 129.5,107.0 132,70 Q 199.5,86.0 179,14" fill="none" stroke="black" stroke-width="2" /><path d="M 188,111 Q 152.5,81.5 177,112 Q 146.0,59.0 41,80 Q 41.5,117.5 110,87 Q 101.0,25.5 22,34" fill="none" stroke="black" stroke-width="2" /></g></svg>