<?xml version="1.0" encoding="utf-8" ?>
<svg baseProfile="full" height="210mm" version="1.1" viewBox="0 0 297 210" width="297mm" xmlns="http://www.w3.org/2000/svg" xmlns:ev="http://www.w3.org/2001/xml-events" xmlns:xlink="http://www.w3.org/1999/xlink"><defs /><g transform="translate(43,30)"><path d="M 80,96 Q 157.5,124.0 177,94 Q 204.0,39.5 137,79 Q 158.0,40.5 107,74 Q 48.5,44.0 58,82" fill="none" stroke="black" stroke-width="2" /><path d="M 106,125 Q 182.5,111.0 201,39 Q 139.5,64.0 126,137 Q 90.0,114.5 106,144 Q 144.5,45.5 101,29" fill="none" stroke="black" stroke-width="2" /><path d="M 163,113 Q 109.0,69.0 11,69 Q 107.5,85.5 116,14 Q 19.5,9.5 1,83 Q -24.0,145.0 35,123" fill="none" stroke="black" stroke-width="2" /><path d="M 91,74 Q 102.5,35.5 54,57 Q 35.0,109.5 102,76 Q 17.5,64.0 23,142 Q 132.0,158.5 175,109" fill="none" stroke="black" stroke-width="2" /></g></svg>