<?xml version="1.0" encoding="utf-8" ?>
<svg baseProfile="full" height="210mm" version="1.1" viewBox="0 0 297 210" width="297mm" xmlns="http://www.w3.org/2000/svg" xmlns:ev="http://www.w3.org/2001/xml-events" xmlns:xlink="http://www.w3.org/1999/xlink"><defs /><g transform="translate(43,30)"><path d="M 189,31 Q 73.5,62.5 4,140 Q 136.0,129.0 174,24 Q 89.0,34.5 86,127 Q 91.0,82.0 10,123" fill="none" stroke="black" stroke-width="2" /><path d="M 112,51 Q 87.0,88.0 120,67 Q 59.5,76.0 41,127 Q 138.5,109.5 172,28 Q 128.0,2.0 44,16" fill="none" stroke="black" stroke-width="2" /><path d="M 96,0 Q 43.5,-31.0 91,38 Q 117.5,120.0 210,136 Q 207.5,46.0 127,34 Q 84.0,17.5 97,57" fill="none" stroke="black" stroke-width="2" /><path d="M 118,8 Q 82.5,13.5 91,63 Q 53.5,57.0 60,95 Q 87.5,6.0 25,7 Q 10.5,105.5 60,140" fill="none" stroke="black" stroke-width="2" /></g></svg>