<?xml version="1.0" encoding="utf-8" ?>
<svg baseProfile="full" height="210mm" version="1.1" viewBox="0 0 297 210" width="297mm" xmlns="http://www.w3.org/2000/svg" xmlns:ev="http://www.w3.org/2001/xml-events" xmlns:xlink="http://www.w3.org/1999/xlink"><defs /><g transform="translate(43,30)"><path d="M 13,108 Q 70.0,145.5 49,105 Q 91.5,47.0 42,81 Q 74.0,116.5 150,108 Q 67.0,74.5 76,133" fill="none" stroke="black" stroke-width="2" /><path d="M 72,6 Q 73.0,103.5 158,117 Q 162.5,63.5 85,92 Q 66.0,70.0 5,90 Q 87.0,98.5 97,35" fill="none" stroke="black" stroke-width="2" /><path d="M 70,148 Q 69.5,101.5 29,95 Q 22.0,155.5 111,120 Q 133.0,76.0 97,90 Q 38.5,64.5 80,139" fill="none" stroke="black" stroke-width="2" /><path d="M 178,116 Q 184.0,80.5 148,87 Q 145.0,32.5 64,56 Q 97.0,116.5 194,113 Q 161.0,55.5 30,96" fill="none" stroke="black" stroke-width="2" /></g></svg>