<?xml version="1.0" encoding="utf-8" ?>
<svg baseProfile="full" height="210mm" version="1.1" viewBox="0 0 297 210" width="297mm" xmlns="http://www.w3.org/2000/svg" xmlns:ev="http://www.w3.org/2001/xml-events" xmlns:xlink="http://www.w3.org/1999/xlink"><defs /><g transform="translate(43,30)"><path d="M 97,47 Q 102.0,-10.5 15,24 Q -1.5,103.0 62,102 Q 153.5,109.5 175,47 Q 157.5,98.5 202,88" fill="none" stroke="black" stroke-width="2" /><path d="M 174,102 Q 167.5,68.0 107,88 Q 138.0,34.5 89,61 Q 95.0,127.0 165,129 Q 193.5,69.5 152,80" fill="none" stroke="black" stroke-width="2" /><path d="M 52,116 Q 124.0,128.5 100,45 Q 114.5,101.0 195,91 Q 133.5,15.0 0,11 Q 26.0,89.5 134,86" fill="none" stroke="black" stroke-width="2" /><path d="M 113,85 Q 146.5,29.5 86,68 Q 26.5,54.0 11,84 Q 110.5,98.5 138,41 Q 80.0,13.5 108,72" fill="none" stroke="black" stroke-width="2" /></g></svg>