<?xml version="1.0" encoding="utf-8" ?>
<svg baseProfile="full" height="210mm" version="1.1" viewBox="0 0 297 210" width="297mm" xmlns="http://www.w3.org/2000/svg" xmlns:ev="http://www.w3.org/2001/xml-events" xmlns:xlink="http://www.w3.org/1999/xlink"><defs /><g transform="translate(43,30)"><path d="M 139,130 Q 183.0,116.0 157,32 Q 195.5,-15.0 150,22 Q 214.0,66.0 182,14 Q 95.0,21.5 68,89" fill="none" stroke="black" stroke-width="2" /><path d="M 79,98 Q 124.0,74.0 119,0 Q 127.5,62.0 198,62 Q 193.5,9.5 141,5 Q 107.0,115.0 165,133" fill="none" stroke="black" stroke-width="2" /><path d="M 28,23 Q 19.0,126.0 106,133 Q 103.0,190.5 200,148 Q 127.5,57.0 9,12 Q 8.0,60.0 93,22" fill="none" stroke="black" stroke-width="2" /><path d="M 168,15 Q 148.5,97.5 175,134 Q 126.0,92.0 163,136 Q 177.5,70.0 130,66 Q 111.0,30.5 36,51" fill="none" stroke="black" stroke-width="2" /></g></svg>