<?xml version="1.0" encoding="utf-8" ?>
<svg baseProfile="full" height="210mm" version="1.1" viewBox="0 0 297 210" width="297mm" xmlns="http://www.w3.org/2000/svg" xmlns:ev="http://www.w3.org/2001/xml-events" xmlns:xlink="http://www.w3.org/1999/xlink"><defs /><g transform="translate(43,30)"><path d="M 165,98 Q 76.0,74.5 77,141 Q 75.5,94.5 24,98 Q 88.5,118.0 87,72 Q 81.5,126.0 146,110" fill="none" stroke="black" stroke-width="2" /><path d="M 111,56 Q 129.5,1.0 66,28 Q 83.5,91.5 193,63 Q 78.5,53.5 22,102 Q 78.5,120.0 95,98" fill="none" stroke="black" stroke-width="2" /><path d="M 139,105 Q 124.5,67.0 42,97 Q -7.0,167.0 44,137 Q 100.5,127.5 109,70 Q 97.5,127.5 178,93" fill="none" stroke="black" stroke-width="2" /><path d="M 203,116 Q 152.5,52.0 24,66 Q 119.0,66.0 170,22 Q 68.5,25.5 49,111 Q 96.0,135.0 65,81" fill="none" stroke="black" stroke-width="2" /></g></svg>