<?xml version="1.0" encoding="utf-8" ?>
<svg baseProfile="full" height="210mm" version="1.1" viewBox="0 0 297 210" width="297mm" xmlns="http://www.w3.org/2000/svg" xmlns:ev="http://www.w3.org/2001/xml-events" xmlns:xlink="http://www.w3.org/1999/xlink"><defs /><g transform="translate(43,30)"><path d="M 200,104 Q 118.5,63.5 133,119 Q 182.5,150.5 136,86 Q 98.0,29.5 18,15 Q -28.5,-14.0 13,45" fill="none" stroke="black" stroke-width="2" /><path d="M 91,104 Q 77.0,61.0 19,62 Q 62.5,75.5 50,33 Q 30.0,99.0 58,117 Q 4.5,84.0 37,137" fill="none" stroke="black" stroke-width="2" /><path d="M 114,62 Q 97.0,106.0 140,90 Q 114.0,146.0 178,112 Q 176.0,45.0 122,30 Q 70.5,43.5 83,121" fill="none" stroke="black" stroke-width="2" /><path d="M 54,80 Q 24.0,141.0 86,110 Q 153.5,143.5 133,89 Q 91.5,40.0 4,37 Q 126.0,59.0 184,17" fill="none" stroke="black" stroke-width="2" /></g></svg>