<?xml version="1.0" encoding="utf-8" ?>
<svg baseProfile="full" height="210mm" version="1.1" viewBox="0 0 297 210" width="297mm" xmlns="http://www.w3.org/2000/svg" xmlns:ev="http://www.w3.org/2001/xml-events" xmlns:xlink="http://www.w3.org/1999/xlink"><defs /><g transform="translate(43,30)"><path d="M 103,62 Q 88.5,97.5 124,83 Q 103.0,113.0 134,91 Q 66.0,74.0 38,97 Q 123.0,134.5 132,96" fill="none" stroke="black" stroke-width="2" /><path d="M 61,72 Q 151.0,87.0 179,40 Q 204.5,-8.0 166,8 Q 141.0,8.0 160,52 Q 77.5,41.5 51,87" fill="none" stroke="black" stroke-width="2" /><path d="M 90,83 Q 182.5,119.0 195,75 Q 132.0,56.0 157,125 Q 159.5,35.5 64,44 Q 25.5,122.5 81,107" fill="none" stroke="black" stroke-width="2" /><path d="M 137,136 Q 130.5,65.5 48,71 Q 45.0,126.0 108,115 Q 120.5,63.5 55,90 Q 143.0,125.0 139,68" fill="none" stroke="black" stroke-width="2" /></g></svg>