<?xml version="1.0" encoding="utf-8" ?>
<svg baseProfile="full" height="210mm" version="1.1" viewBox="0 0 297 210" width="297mm" xmlns="http://www.w3.org/2000/svg" xmlns:ev="http://www.w3.org/2001/xml-events" xmlns:xlink="http://www.w3.org/1999/xlink"><defs /><g transform="translate(43,30)"><path d="M 98,98 Q 108.5,46.5 73,41 Q 43.5,102.0 102,75 Q 39.0,47.5 58,102 Q 131.5,144.5 107,89" fill="none" stroke="black" stroke-width="2" /><path d="M 46,46 Q 143.5,63.5 183,23 Q 137.5,83.5 186,50 Q 80.0,39.0 50,104 Q 105.0,110.0 66,22" fill="none" stroke="black" stroke-width="2" /><path d="M 151,43 Q 95.0,62.5 89,132 Q 178.5,111.5 206,29 Q 174.5,32.0 205,97 Q 147.0,66.5 187,134" fill="none" stroke="black" stroke-width="2" /><path d="M 72,29 Q 2.0,7.5 8,62 Q 11.5,119.5 95,97 Q 102.0,25.5 35,28 Q -17.0,-4.5 13,45" fill="none" stroke="black" stroke-width="2" /></g></svg>