<?xml version="1.0" encoding="utf-8" ?>
<svg baseProfile="full" height="210mm" version="1.1" viewBox="0 0 297 210" width="297mm" xmlns="http://www.w3.org/2000/svg" xmlns:ev="http://www.w3.org/2001/xml-events" xmlns:xlink="http://www.w3.org/1999/xlink"><defs /><g transform="translate(43,30)"><path d="M 8,17 Q -7.0,109.0 34,145 Q 78.5,127.5 71,58 Q 49.5,134.0 104,134 Q 138.5,122.0 125,62" fill="none" stroke="black" stroke-width="2" /><path d="M 39,28 Q 9.5,104.0 42,118 Q 51.5,62.5 9,59 Q -19.0,107.0 21,87 Q 136.0,72.5 207,14" fill="none" stroke="black" stroke-width="2" /><path d="M 127,14 Q 110.0,94.0 143,124 Q 89.5,101.5 94,137 Q 154.0,161.0 164,135 Q 200.0,67.5 148,88" fill="none" stroke="black" stroke-width="2" /><path d="M 3,100 Q -11.0,170.5 71,145 Q 98.0,96.0 83,5 Q 48.5,-13.0 70,25 Q 157.5,64.5 147,6" fill="none" stroke="black" stroke-width="2" /></g></svg>