<?xml version="1.0" encoding="utf-8" ?>
<svg baseProfile="full" height="210mm" version="1.1" viewBox="0 0 297 210" width="297mm" xmlns="http://www.w3.org/2000/svg" xmlns:ev="http://www.w3.org/2001/xml-events" xmlns:xlink="http://www.w3.org/1999/xlink"><defs /><g transform="translate(43,30)"><path d="M 90,93 Q 94.5,42.5 11,80 Q 80.5,90.0 94,44 Q 41.0,21.0 78,88 Q 106.5,31.5 69,41" fill="none" stroke="black" stroke-width="2" /><path d="M 63,88 Q 26.5,137.0 64,112 Q 117.0,128.5 112,87 Q 39.5,77.0 11,111 Q 7.0,153.5 63,136" fill="none" stroke="black" stroke-width="2" /><path d="M 102,126 Q 120.5,100.5 99,115 Q 123.5,51.0 66,69 Q 149.0,62.0 190,13 Q 103.5,-17.5 85,20" fill="none" stroke="black" stroke-width="2" /><path d="M 150,118 Q 155.0,144.5 206,125 Q 184.0,44.0 72,53 Q 104.0,123.0 182,147 Q 187.5,184.0 193,147" fill="none" stroke="black" stroke-width="2" /></g></svg>