<?xml version="1.0" encoding="utf-8" ?>
<svg baseProfile="full" height="210mm" version="1.1" viewBox="0 0 297 210" width="297mm" xmlns="http://www.w3.org/2000/svg" xmlns:ev="http://www.w3.org/2001/xml-events" xmlns:xlink="http://www.w3.org/1999/xlink"><defs /><g transform="translate(43,30)"><path d="M 143,25 Q 105.0,4.0 129,45 Q 118.5,118.0 186,113 Q 204.5,56.0 135,87 Q 182.0,101.5 153,40" fill="none" stroke="black" stroke-width="2" /><path d="M 170,42 Q 185.5,1.0 143,18 Q 40.0,-22.5 33,33 Q 141.0,68.5 165,20 Q 86.0,52.0 51,128" fill="none" stroke="black" stroke-width="2" /><path d="M 143,143 Q 124.0,74.5 37,74 Q 86.5,138.0 192,146 Q 224.0,97.0 208,0 Q 151.5,-8.0 169,58" fill="none" stroke="black" stroke-width="2" /><path d="M 136,87 Q 145.5,25.5 91,28 Q 45.5,9.0 90,80 Q 84.5,155.0 177,132 Q 172.0,77.5 93,97" fill="none" stroke="black" stroke-width="2" /></g></svg>