<?xml version="1.0" encoding="utf-8" ?>
<svg baseProfile="full" height="210mm" version="1.1" viewBox="0 0 297 210" width="297mm" xmlns="http://www.w3.org/2000/svg" xmlns:ev="http://www.w3.org/2001/xml-events" xmlns:xlink="http://www.w3.org/1999/xlink"><defs /><g transform="translate(43,30)"><path d="M 142,13 Q 87.0,-6.5 104,46 Q 85.5,130.0 151,130 Q 194.5,129.5 164,55 Q 134.0,-8.5 14,18" fill="none" stroke="black" stroke-width="2" /><path d="M 105,55 Q 84.5,15.0 12,27 Q 70.0,59.5 186,34 Q 148.5,61.5 157,135 Q 155.5,54.5 92,36" fill="none" stroke="black" stroke-width="2" /><path d="M 4,118 Q 81.5,146.5 85,101 Q 115.5,62.5 80,90 Q 137.0,92.5 148,49 Q 177.0,73.5 154,46" fill="none" stroke="black" stroke-width="2" /><path d="M 139,34 Q 106.0,116.5 163,109 Q 215.5,141.0 182,87 Q 156.0,82.0 170,117 Q 175.5,57.0 113,65" fill="none" stroke="black" stroke-width="2" /></g></svg>