<?xml version="1.0" encoding="utf-8" ?>
<svg baseProfile="full" height="210mm" version="1.1" viewBox="0 0 297 210" width="297mm" xmlns="http://www.w3.org/2000/svg" xmlns:ev="http://www.w3.org/2001/xml-events" xmlns:xlink="http://www.w3.org/1999/xlink"><defs /><g transform="translate(43,30)"><path d="M 198,1 Q 108.0,-19.0 94,37 Q 108.5,109.5 187,118 Q 102.0,71.0 113,120 Q 30.5,85.5 28,131" fill="none" stroke="black" stroke-width="2" /><path d="M 182,136 Q 170.5,39.0 65,36 Q 75.5,81.5 166,47 Q 56.0,3.5 46,60 Q 20.5,129.0 49,144" fill="none" stroke="black" stroke-width="2" /><path d="M 197,44 Q 133.0,27.0 121,62 Q 47.5,40.0 56,100 Q 106.5,135.0 81,94 Q 120.0,19.5 67,37" fill="none" stroke="black" stroke-width="2" /><path d="M 18,71 Q -27.0,51.0 16,119 Q 130.5,153.0 159,101 Q 130.0,169.0 197,141 Q 157.5,91.5 76,84" fill="none" stroke="black" stroke-width="2" /></g></svg>