<?xml version="1.0" encoding="utf-8" ?>
<svg baseProfile="full" height="210mm" version="1.1" viewBox="0 0 297 210" width="297mm" xmlns="http://www.w3.org/2000/svg" xmlns:ev="http://www.w3.org/2001/xml-events" xmlns:xlink="http://www.w3.org/1999/xlink"><defs /><g transform="translate(43,30)"><path d="M 65,76 Q 15.0,58.5 41,117 Q 75.5,124.0 60,81 Q 114.5,94.0 127,65 Q 40.5,42.0 6,71" fill="none" stroke="black" stroke-width="2" /><path d="M 148,54 Q 27.0,15.5 6,77 Q 67.5,87.5 77,46 Q 84.5,142.5 184,147 Q 227.0,53.0 176,53" fill="none" stroke="black" stroke-width="2" /><path d="M 82,122 Q 67.5,65.5 1,61 Q 58.0,89.5 43,46 Q 150.0,62.0 205,26 Q 90.5,45.5 48,137" fill="none" stroke="black" stroke-width="2" /><path d="M 69,92 Q 154.0,124.0 157,74 Q 99.0,61.5 99,107 Q 124.0,13.5 57,12 Q 55.5,95.5 114,119" fill="none" stroke="black" stroke-width="2" /></g></svg>