<?xml version="1.0" encoding="utf-8" ?>
<svg baseProfile="full" height="210mm" version="1.1" viewBox="0 0 297 210" width="297mm" xmlns="http://www.w3.org/2000/svg" xmlns:ev="http://www.w3.org/2001/xml-events" xmlns:xlink="http://www.w3.org/1999/xlink"><defs /><g transform="translate(43,30)"><path d="M 132,5 Q 64.5,-10.0 57,35 Q 54.5,127.0 140,131 Q 99.5,75.5 15,64 Q 16.5,120.5 94,101" fill="none" stroke="black" stroke-width="2" /><path d="M 197,125 Q 163.0,44.0 79,13 Q 3.0,-2.5 5,60 Q 5.5,120.5 98,89 Q 157.5,123.5 133,74" fill="none" stroke="black" stroke-width="2" /><path d="M 30,115 Q 145.0,87.5 200,0 Q 152.5,-22.5 171,21 Q 100.0,-9.0 111,43 Q 76.0,138.5 137,138" fill="none" stroke="black" stroke-width="2" /><path d="M 97,40 Q 32.0,50.5 31,125 Q 50.0,163.5 143,128 Q 123.5,41.5 14,45 Q 104.5,69.0 127,25" fill="none" stroke="black" stroke-width="2" /></g></svg>