<?xml version="1.0" encoding="utf-8" ?>
<svg baseProfile="full" height="210mm" version="1.1" viewBox="0 0 297 210" width="297mm" xmlns="http://www.w3.org/2000/svg" xmlns:ev="http://www.w3.org/2001/xml-events" xmlns:xlink="http://www.w3.org/1999/xlink"><defs /><g transform="translate(43,30)"><path d="M 23,116 Q 52.5,118.5 26,65 Q 117.5,61.5 167,16 Q 55.5,37.0 4,118 Q 81.0,146.5 86,103" fill="none" stroke="black" stroke-width="2" /><path d="M 74,24 Q 55.0,58.5 80,49 Q 48.5,120.5 113,96 Q 175.5,139.5 146,91 Q 80.0,90.0 72,147" fill="none" stroke="black" stroke-width="2" /><path d="M 99,10 Q 49.5,28.0 48,94 Q 173.5,124.5 201,57 Q 225.5,17.5 186,42 Q 79.0,21.5 20,49" fill="none" stroke="black" stroke-width="2" /><path d="M 83,99 Q 26.5,68.5 48,116 Q 150.0,133.5 172,71 Q 115.5,67.0 123,127 Q 139.5,46.0 114,7" fill="none" stroke="black" stroke-width="2" /></g></svg>