<?xml version="1.0" encoding="utf-8" ?>
<svg baseProfile="full" height="210mm" version="1.1" viewBox="0 0 297 210" width="297mm" xmlns="http://www.w3.org/2000/svg" xmlns:ev="http://www.w3.org/2001/xml-events" xmlns:xlink="http://www.w3.org/1999/xlink"><defs /><g transform="translate(43,30)"><path d="M 86,23 Q 123.5,69.0 201,75 Q 163.5,23.5 42,56 Q 93.5,89.5 193,75 Q 79.5,66.0 24,115" fill="none" stroke="black" stroke-width="2" /><path d="M 28,126 Q 79.0,128.5 56,57 Q 162.0,102.5 168,48 Q 61.5,25.5 9,57 Q 29.0,141.5 137,138" fill="none" stroke="black" stroke-width="2" /><path d="M 181,54 Q 144.0,53.0 157,102 Q 219.5,141.5 200,99 Q 140.5,100.5 127,148 Q 161.5,64.0 118,58" fill="none" stroke="black" stroke-width="2" /><path d="M 19,113 Q 103.0,114.5 117,46 Q 94.0,88.5 153,49 Q 37.5,23.5 0,76 Q 84.0,109.0 72,46" fill="none" stroke="black" stroke-width="2" /></g></svg>