<?xml version="1.0" encoding="utf-8" ?>
<svg baseProfile="full" height="210mm" version="1.1" viewBox="0 0 297 210" width="297mm" xmlns="http://www.w3.org/2000/svg" xmlns:ev="http://www.w3.org/2001/xml-events" xmlns:xlink="http://www.w3.org/1999/xlink"><defs /><g transform="translate(43,30)"><path d="M 168,147 Q 144.5,83.5 27,114 Q 94.0,147.0 87,106 Q 141.5,105.5 124,33 Q 37.5,50.0 15,131" fill="none" stroke="black" stroke-width="2" /><path d="M 207,55 Q 136.0,25.0 17,43 Q -29.5,99.5 18,62 Q 138.0,84.0 206,54 Q 82.0,35.5 14,73" fill="none" stroke="black" stroke-width="2" /><path d="M 6,43 Q 0.5,88.5 61,68 Q 71.0,99.0 137,74 Q 58.0,34.0 69,84 Q 24.5,133.0 74,88" fill="none" stroke="black" stroke-width="2" /><path d="M 38,2 Q 26.0,37.5 78,9 Q 7.0,0.5 24,80 Q 123.0,99.5 156,53 Q 82.0,62.5 70,134" fill="none" stroke="black" stroke-width="2" /></g></svg>