<?xml version="1.0" encoding="utf-8" ?>
<svg baseProfile="full" height="210mm" version="1.1" viewBox="0 0 297 210" width="297mm" xmlns="http://www.w3.org/2000/svg" xmlns:ev="http://www.w3.org/2001/xml-events" xmlns:xlink="http://www.w3.org/1999/xlink"><defs /><g transform="translate(43,30)"><path d="M 77,73 Q 67.0,117.5 129,90 Q 128.0,136.5 191,119 Q 219.0,27.5 149,34 Q 67.5,56.5 40,133" fill="none" stroke="black" stroke-width="2" /><path d="M 66,83 Q 136.0,122.0 114,69 Q 87.5,128.5 157,92 Q 156.0,18.5 97,3 Q 22.0,18.0 9,95" fill="none" stroke="black" stroke-width="2" /><path d="M 51,2 Q -8.0,-8.5 17,65 Q 44.0,114.5 157,78 Q 115.0,12.0 19,0 Q -17.0,50.0 35,12" fill="none" stroke="black" stroke-width="2" /><path d="M 173,103 Q 207.0,12.5 149,14 Q 156.0,-32.5 71,13 Q 67.0,57.5 111,54 Q 107.5,102.5 168,87" fill="none" stroke="black" stroke-width="2" /></g></svg>