<?xml version="1.0" encoding="utf-8" ?>
<svg baseProfile="full" height="210mm" version="1.1" viewBox="0 0 297 210" width="297mm" xmlns="http://www.w3.org/2000/svg" xmlns:ev="http://www.w3.org/2001/xml-events" xmlns:xlink="http://www.w3.org/1999/xlink"><defs /><g transform="translate(43,30)"><path d="M 19,88 Q 1.5,155.5 76,131 Q 107.5,99.5 99,28 Q 47.0,38.5 79,133 Q 76.5,73.5 24,64" fill="none" stroke="black" stroke-width="2" /><path d="M 7,75 Q 81.0,88.0 111,57 Q 100.0,8.0 1,47 Q 41.0,111.5 147,110 Q 113.5,54.0 6,72" fill="none" stroke="black" stroke-width="2" /><path d="M 184,52 Q 193.0,18.0 142,44 Q 44.5,5.0 37,56 Q 63.5,81.5 130,67 Q 111.0,19.5 4,60" fill="none" stroke="black" stroke-width="2" /><path d="M 18,117 Q 111.0,95.5 160,30 Q 32.5,2.0 5,74 Q -15.5,122.0 24,110 Q 12.5,143.0 45,132" fill="none" stroke="black" stroke-width="2" /></g></svg>