<?xml version="1.0" encoding="utf-8" ?>
<svg baseProfile="full" height="210mm" version="1.1" viewBox="0 0 297 210" width="297mm" xmlns="http://www.w3.org/2000/svg" xmlns:ev="http://www.w3.org/2001/xml-events" xmlns:xlink="http://www.w3.org/1999/xlink"><defs /><g transform="translate(43,30)"><path d="M 177,127 Q 124.5,73.5 12,80 Q 64.5,86.0 27,2 Q -13.0,2.5 5,61 Q 31.0,116.0 107,121" fill="none" stroke="black" stroke-width="2" /><path d="M 187,62 Q 124.0,52.0 101,82 Q 114.5,16.5 62,17 Q 76.0,70.0 140,73 Q 76.5,56.0 53,79" fill="none" stroke="black" stroke-width="2" /><path d="M 63,31 Q 14.0,27.5 37,96 Q 158.0,120.0 209,74 Q 190.5,9.5 72,45 Q 26.5,68.5 25,136" fill="none" stroke="black" stroke-width="2" /><path d="M 179,145 Q 142.0,43.0 9,37 Q 106.5,58.5 130,6 Q 118.0,70.0 152,88 Q 113.0,54.5 24,71" fill="none" stroke="black" stroke-width="2" /></g></svg>