<?xml version="1.0" encoding="utf-8" ?>
<svg baseProfile="full" height="210mm" version="1.1" viewBox="0 0 297 210" width="297mm" xmlns="http://www.w3.org/2000/svg" xmlns:ev="http://www.w3.org/2001/xml-events" xmlns:xlink="http://www.w3.org/1999/xlink"><defs /><g transform="translate(43,30)"><path d="M 169,50 Q 140.0,65.0 151,120 Q 55.5,101.0 22,144 Q 117.0,115.5 144,19 Q 46.5,20.5 45,118" fill="none" stroke="black" stroke-width="2" /><path d="M 155,133 Q 208.0,121.5 177,26 Q 141.0,118.5 179,137 Q 141.0,25.0 7,9 Q 39.0,74.0 123,87" fill="none" stroke="black" stroke-width="2" /><path d="M 1,144 Q 78.0,156.0 101,114 Q 111.0,51.5 35,75 Q 63.0,78.0 51,41 Q -5.0,25.0 35,105" fill="none" stroke="black" stroke-width="2" /><path d="M 20,145 Q 106.0,151.0 136,101 Q 79.0,70.0 102,119 Q 181.5,114.0 191,39 Q 63.0,19.5 3,68" fill="none" stroke="black" stroke-width="2" /></g></svg>