<?xml version="1.0" encoding="utf-8" ?>
<svg baseProfile="full" height="210mm" version="1.1" viewBox="0 0 297 210" width="297mm" xmlns="http://www.w3.org/2000/svg" xmlns:ev="http://www.w3.org/2001/xml-events" xmlns:xlink="http://www.w3.org/1999/xlink"><defs /><g transform="translate(43,30)"><path d="M 183,8 Q 136.0,12.0 147,74 Q 208.5,73.0 202,4 Q 168.0,-38.0 54,0 Q 54.5,67.5 127,63" fill="none" stroke="black" stroke-width="2" /><path d="M 141,2 Q 53.0,22.0 9,86 Q 133.5,90.5 172,9 Q 60.5,2.5 39,86 Q 65.0,109.5 43,85" fill="none" stroke="black" stroke-width="2" /><path d="M 144,74 Q 194.5,87.0 203,58 Q 216.0,17.5 155,51 Q 150.0,13.0 79,41 Q 47.5,60.5 74,138" fill="none" stroke="black" stroke-width="2" /><path d="M 201,45 Q 133.0,17.5 13,42 Q -18.5,128.5 36,129 Q 126.0,87.5 172,2 Q 43.0,-42.0 4,4" fill="none" stroke="black" stroke-width="2" /></g></svg>