<?xml version="1.0" encoding="utf-8" ?>
<svg baseProfile="full" height="210mm" version="1.1" viewBox="0 0 297 210" width="297mm" xmlns="http://www.w3.org/2000/svg" xmlns:ev="http://www.w3.org/2001/xml-events" xmlns:xlink="http://www.w3.org/1999/xlink"><defs /><g transform="translate(43,30)"><path d="M 31,79 Q 83.0,97.0 91,71 Q 183.5,80.0 206,19 Q 122.0,30.0 102,105 Q 99.5,68.0 55,73" fill="none" stroke="black" stroke-width="2" /><path d="M 143,117 Q 97.5,95.5 118,140 Q 87.0,63.5 14,29 Q 39.0,68.5 142,30 Q 105.5,131.0 153,148" fill="none" stroke="black" stroke-width="2" /><path d="M 16,116 Q 54.0,111.0 30,44 Q -14.0,24.0 6,68 Q 91.0,85.0 128,54 Q 99.0,119.0 166,88" fill="none" stroke="black" stroke-width="2" /><path d="M 178,90 Q 107.0,64.5 100,103 Q 166.5,105.0 147,21 Q 115.5,23.5 146,88 Q 164.0,42.5 118,61" fill="none" stroke="black" stroke-width="2" /></g></svg>