<?xml version="1.0" encoding="utf-8" ?>
<svg baseProfile="full" height="210mm" version="1.1" viewBox="0 0 297 210" width="297mm" xmlns="http://www.w3.org/2000/svg" xmlns:ev="http://www.w3.org/2001/xml-events" xmlns:xlink="http://www.w3.org/1999/xlink"><defs /><g transform="translate(43,30)"><path d="M 81,89 Q 157.0,98.5 163,38 Q 123.5,32.5 134,77 Q 187.0,111.5 142,48 Q 135.5,8.0 87,10" fill="none" stroke="black" stroke-width="2" /><path d="M 106,145 Q 158.0,158.5 132,94 Q 105.5,39.0 37,26 Q 34.5,62.0 72,58 Q 111.5,121.0 195,140" fill="none" stroke="black" stroke-width="2" /><path d="M 208,130 Q 171.5,73.5 41,111 Q 53.0,36.0 13,13 Q 14.0,77.5 105,52 Q 93.5,115.0 128,132" fill="none" stroke="black" stroke-width="2" /><path d="M 15,96 Q 64.0,112.0 31,46 Q 37.5,96.0 86,104 Q 30.0,94.0 22,132 Q 80.5,117.0 67,30" fill="none" stroke="black" stroke-width="2" /></g></svg>