<?xml version="1.0" encoding="utf-8" ?>
<svg baseProfile="full" height="210mm" version="1.1" viewBox="0 0 297 210" width="297mm" xmlns="http://www.w3.org/2000/svg" xmlns:ev="http://www.w3.org/2001/xml-events" xmlns:xlink="http://www.w3.org/1999/xlink"><defs /><g transform="translate(43,30)"><path d="M 159,128 Q 69.0,97.0 53,140 Q 129.5,159.0 142,114 Q 106.0,91.0 140,138 Q 138.5,60.5 97,23" fill="none" stroke="black" stroke-width="2" /><path d="M 189,83 Q 76.0,75.5 3,108 Q 127.0,132.0 199,104 Q 147.5,73.0 168,114 Q 95.0,83.0 96,126" fill="none" stroke="black" stroke-width="2" /><path d="M 85,69 Q 164.0,81.0 185,35 Q 110.0,26.0 123,105 Q 188.5,104.5 182,32 Q 96.0,30.0 74,92" fill="none" stroke="black" stroke-width="2" /><path d="M 124,63 Q 211.5,96.0 201,31 Q 130.5,24.0 160,117 Q 99.5,78.0 123,123 Q 130.0,72.0 57,101" fill="none" stroke="black" stroke-width="2" /></g></svg>