<?xml version="1.0" encoding="utf-8" ?>
<svg baseProfile="full" height="210mm" version="1.1" viewBox="0 0 297 210" width="297mm" xmlns="http://www.w3.org/2000/svg" xmlns:ev="http://www.w3.org/2001/xml-events" xmlns:xlink="http://www.w3.org/1999/xlink"><defs /><g transform="translate(43,30)"><path d="M 192,148 Q 180.0,85.0 100,90 Q 167.0,110.5 140,37 Q 54.0,24.0 12,55 Q 33.0,137.0 144,129" fill="none" stroke="black" stroke-width="2" /><path d="M 23,119 Q 159.5,161.0 204,111 Q 174.0,37.0 44,63 Q 136.5,62.0 183,15 Q 153.0,54.5 195,22" fill="none" stroke="black" stroke-width="2" /><path d="M 71,16 Q 29.5,122.0 86,130 Q 96.0,90.5 38,119 Q 105.5,102.5 115,28 Q 59.5,13.5 66,61" fill="none" stroke="black" stroke-width="2" /><path d="M 191,46 Q 133.0,46.5 169,141 Q 212.5,172.5 174,122 Q 210.5,55.5 159,77 Q 168.5,14.5 78,52" fill="none" stroke="black" stroke-width="2" /></g></svg>