<?xml version="1.0" encoding="utf-8" ?>
<svg baseProfile="full" height="210mm" version="1.1" viewBox="0 0 297 210" width="297mm" xmlns="http://www.w3.org/2000/svg" xmlns:ev="http://www.w3.org/2001/xml-events" xmlns:xlink="http://www.w3.org/1999/xlink"><defs /><g transform="translate(43,30)"><path d="M 25,43 Q 76.0,114.5 189,124 Q 135.5,64.5 30,57 Q 69.0,103.5 190,68 Q 91.5,51.0 61,102" fill="none" stroke="black" stroke-width="2" /><path d="M 119,54 Q 28.0,57.5 3,127 Q 111.5,113.0 134,13 Q 52.5,26.0 53,121 Q 144.0,124.5 147,40" fill="none" stroke="black" stroke-width="2" /><path d="M 139,95 Q 41.0,65.5 33,126 Q 36.0,180.5 135,139 Q 127.0,66.0 27,85 Q 69.5,128.5 194,90" fill="none" stroke="black" stroke-width="2" /><path d="M 53,19 Q 78.5,64.5 158,56 Q 89.0,21.5 96,63 Q 101.5,-10.0 15,9 Q 9.0,68.5 55,76" fill="none" stroke="black" stroke-width="2" /></g></svg>