<?xml version="1.0" encoding="utf-8" ?>
<svg baseProfile="full" height="210mm" version="1.1" viewBox="0 0 297 210" width="297mm" xmlns="http://www.w3.org/2000/svg" xmlns:ev="http://www.w3.org/2001/xml-events" xmlns:xlink="http://www.w3.org/1999/xlink"><defs /><g transform="translate(43,30)"><path d="M 20,128 Q 110.5,133.5 131,69 Q 53.5,52.5 50,110 Q 133.0,137.0 140,88 Q 84.0,65.5 84,99" fill="none" stroke="black" stroke-width="2" /><path d="M 149,139 Q 168.0,64.0 139,37 Q 115.0,66.0 139,95 Q 159.0,27.0 105,33 Q 73.0,58.0 83,125" fill="none" stroke="black" stroke-width="2" /><path d="M 0,37 Q -15.0,113.5 40,120 Q 69.5,91.0 47,10 Q 29.5,100.0 70,132 Q 128.0,173.0 186,132" fill="none" stroke="black" stroke-width="2" /><path d="M 97,106 Q 95.5,152.0 158,134 Q 115.5,37.0 1,12 Q 18.5,58.5 78,63 Q 177.5,86.5 191,24" fill="none" stroke="black" stroke-width="2" /></g></svg>