<?xml version="1.0" encoding="utf-8" ?>
<svg baseProfile="full" height="210mm" version="1.1" viewBox="0 0 297 210" width="297mm" xmlns="http://www.w3.org/2000/svg" xmlns:ev="http://www.w3.org/2001/xml-events" xmlns:xlink="http://www.w3.org/1999/xlink"><defs /><g transform="translate(43,30)"><path d="M 189,61 Q 69.5,60.0 24,133 Q 77.5,141.5 59,78 Q 126.5,111.5 94,45 Q 117.0,8.0 84,27" fill="none" stroke="black" stroke-width="2" /><path d="M 131,90 Q 184.5,88.0 164,12 Q 56.5,38.0 7,122 Q 91.5,163.0 176,122 Q 139.5,93.5 171,133" fill="none" stroke="black" stroke-width="2" /><path d="M 184,51 Q 215.0,66.5 194,30 Q 189.0,-17.5 116,3 Q 28.5,-20.5 3,18 Q 105.0,55.0 131,16" fill="none" stroke="black" stroke-width="2" /><path d="M 201,14 Q 117.5,-12.5 124,51 Q 47.5,51.0 43,123 Q 1.5,85.0 38,125 Q 86.0,156.5 196,126" fill="none" stroke="black" stroke-width="2" /></g></svg>