<?xml version="1.0" encoding="utf-8" ?>
<svg baseProfile="full" height="210mm" version="1.1" viewBox="0 0 297 210" width="297mm" xmlns="http://www.w3.org/2000/svg" xmlns:ev="http://www.w3.org/2001/xml-events" xmlns:xlink="http://www.w3.org/1999/xlink"><defs /><g transform="translate(43,30)"><path d="M 19,118 Q 151.5,134.5 202,69 Q 84.5,75.0 29,143 Q 64.5,57.5 26,46 Q 60.5,98.0 151,94" fill="none" stroke="black" stroke-width="2" /><path d="M 35,84 Q 80.0,70.0 77,8 Q 7.5,20.5 0,95 Q -26.0,146.5 6,140 Q 92.5,189.5 79,139" fill="none" stroke="black" stroke-width="2" /><path d="M 113,76 Q 101.5,143.5 186,115 Q 127.5,62.0 11,67 Q 132.5,71.0 186,7 Q 129.5,6.0 119,51" fill="none" stroke="black" stroke-width="2" /><path d="M 149,106 Q 118.5,59.0 88,106 Q 121.0,58.0 64,100 Q 164.5,100.0 209,44 Q 95.0,66.0 25,132" fill="none" stroke="black" stroke-width="2" /></g></svg>