<?xml version="1.0" encoding="utf-8" ?>
<svg baseProfile="full" height="210mm" version="1.1" viewBox="0 0 297 210" width="297mm" xmlns="http://www.w3.org/2000/svg" xmlns:ev="http://www.w3.org/2001/xml-events" xmlns:xlink="http://www.w3.org/1999/xlink"><defs /><g transform="translate(43,30)"><path d="M 115,136 Q 142.0,141.0 123,100 Q 150.5,98.0 134,52 Q 143.0,4.5 104,5 Q 40.0,-24.0 62,33" fill="none" stroke="black" stroke-width="2" /><path d="M 169,51 Q 210.0,60.0 203,21 Q 56.0,-1.5 1,68 Q -24.0,135.0 35,118 Q 161.5,129.5 192,45" fill="none" stroke="black" stroke-width="2" /><path d="M 105,1 Q 23.0,-27.5 25,28 Q 131.0,44.5 185,9 Q 149.0,74.5 193,60 Q 156.5,13.5 62,25" fill="none" stroke="black" stroke-width="2" /><path d="M 43,53 Q 14.5,122.0 52,125 Q 137.0,133.5 152,72 Q 72.5,57.0 65,114 Q 54.5,168.5 136,131" fill="none" stroke="black" stroke-width="2" /></g></svg>