<?xml version="1.0" encoding="utf-8" ?>
<svg baseProfile="full" height="210mm" version="1.1" viewBox="0 0 297 210" width="297mm" xmlns="http://www.w3.org/2000/svg" xmlns:ev="http://www.w3.org/2001/xml-events" xmlns:xlink="http://www.w3.org/1999/xlink"><defs /><g transform="translate(43,30)"><path d="M 148,100 Q 135.0,68.5 72,87 Q 62.0,59.5 10,74 Q 81.5,70.5 99,13 Q 91.0,104.5 157,122" fill="none" stroke="black" stroke-width="2" /><path d="M 105,102 Q 159.0,96.0 167,44 Q 164.5,89.5 204,93 Q 117.5,59.5 113,108 Q 128.5,52.5 76,65" fill="none" stroke="black" stroke-width="2" /><path d="M 59,109 Q 147.0,99.5 189,44 Q 180.0,-25.0 73,4 Q 91.0,57.0 197,22 Q 190.0,-26.5 95,13" fill="none" stroke="black" stroke-width="2" /><path d="M 32,103 Q 111.0,78.5 150,14 Q 170.5,46.0 191,14 Q 157.5,4.0 188,58 Q 64.5,33.0 19,86" fill="none" stroke="black" stroke-width="2" /></g></svg>