<?xml version="1.0" encoding="utf-8" ?>
<svg baseProfile="full" height="210mm" version="1.1" viewBox="0 0 297 210" width="297mm" xmlns="http://www.w3.org/2000/svg" xmlns:ev="http://www.w3.org/2001/xml-events" xmlns:xlink="http://www.w3.org/1999/xlink"><defs /><g transform="translate(43,30)"><path d="M 128,22 Q 55.0,3.5 50,53 Q 11.0,143.0 58,147 Q 152.0,104.5 202,18 Q 127.0,27.0 124,108" fill="none" stroke="black" stroke-width="2" /><path d="M 72,50 Q 106.0,126.5 198,145 Q 189.0,61.0 114,43 Q 86.5,99.5 153,62 Q 97.5,42.0 90,70" fill="none" stroke="black" stroke-width="2" /><path d="M 68,83 Q 70.5,120.5 121,110 Q 175.0,118.0 145,42 Q 98.5,59.0 92,116 Q 174.0,128.0 156,40" fill="none" stroke="black" stroke-width="2" /><path d="M 201,40 Q 144.0,36.0 131,76 Q 61.0,84.5 43,145 Q 56.5,117.5 24,136 Q 122.5,160.0 149,112" fill="none" stroke="black" stroke-width="2" /></g></svg>