<?xml version="1.0" encoding="utf-8" ?>
<svg baseProfile="full" height="210mm" version="1.1" viewBox="0 0 297 210" width="297mm" xmlns="http://www.w3.org/2000/svg" xmlns:ev="http://www.w3.org/2001/xml-events" xmlns:xlink="http://www.w3.org/1999/xlink"><defs /><g transform="translate(43,30)"><path d="M 56,73 Q 53.5,39.0 9,47 Q 135.5,54.5 208,8 Q 76.0,18.5 8,93 Q 80.5,106.0 101,67" fill="none" stroke="black" stroke-width="2" /><path d="M 102,46 Q 97.5,127.5 157,145 Q 197.0,174.5 165,132 Q 110.0,83.5 11,79 Q 21.5,117.0 80,107" fill="none" stroke="black" stroke-width="2" /><path d="M 148,0 Q 52.0,22.0 4,92 Q 86.5,88.5 127,43 Q 57.0,61.5 41,134 Q 119.0,150.0 135,104" fill="none" stroke="black" stroke-width="2" /><path d="M 118,148 Q 102.5,55.5 7,43 Q -11.0,112.0 45,107 Q 145.5,94.0 186,21 Q 43.0,9.0 0,97" fill="none" stroke="black" stroke-width="2" /></g></svg>