<?xml version="1.0" encoding="utf-8" ?>
<svg baseProfile="full" height="210mm" version="1.1" viewBox="0 0 297 210" width="297mm" xmlns="http://www.w3.org/2000/svg" xmlns:ev="http://www.w3.org/2001/xml-events" xmlns:xlink="http://www.w3.org/1999/xlink"><defs /><g transform="translate(43,30)"><path d="M 23,55 Q 62.0,62.0 45,13 Q 42.5,102.5 138,94 Q 197.0,107.0 204,68 Q 132.0,28.0 10,38" fill="none" stroke="black" stroke-width="2" /><path d="M 81,127 Q 127.5,157.0 100,113 Q 164.5,121.5 155,56 Q 73.0,19.0 79,70 Q 45.0,79.0 69,146" fill="none" stroke="black" stroke-width="2" /><path d="M 14,72 Q 143.0,95.5 174,21 Q 69.0,45.5 4,110 Q 120.5,91.0 171,6 Q 45.5,3.5 10,91" fill="none" stroke="black" stroke-width="2" /><path d="M 188,95 Q 176.0,30.5 102,28 Q 102.5,-24.5 11,15 Q 47.5,112.0 180,113 Q 209.5,26.0 177,1" fill="none" stroke="black" stroke-width="2" /></g></svg>