<?xml version="1.0" encoding="utf-8" ?>
<svg baseProfile="full" height="210mm" version="1.1" viewBox="0 0 297 210" width="297mm" xmlns="http://www.w3.org/2000/svg" xmlns:ev="http://www.w3.org/2001/xml-events" xmlns:xlink="http://www.w3.org/1999/xlink"><defs /><g transform="translate(43,30)"><path d="M 121,139 Q 187.5,180.0 168,135 Q 141.5,167.0 171,143 Q 205.5,43.5 142,42 Q 138.5,117.0 209,118" fill="none" stroke="black" stroke-width="2" /><path d="M 101,137 Q 127.0,84.0 91,93 Q 87.5,13.0 2,15 Q 15.5,92.5 75,124 Q 169.0,106.0 201,26" fill="none" stroke="black" stroke-width="2" /><path d="M 36,106 Q 66.5,97.5 45,37 Q 78.5,113.0 194,107 Q 148.5,24.5 3,42 Q -25.0,88.0 29,52" fill="none" stroke="black" stroke-width="2" /><path d="M 134,130 Q 165.5,35.0 97,40 Q 108.0,103.0 177,108 Q 79.5,90.5 50,141 Q 65.0,63.0 6,59" fill="none" stroke="black" stroke-width="2" /></g></svg>