<?xml version="1.0" encoding="utf-8" ?>
<svg baseProfile="full" height="210mm" version="1.1" viewBox="0 0 297 210" width="297mm" xmlns="http://www.w3.org/2000/svg" xmlns:ev="http://www.w3.org/2001/xml-events" xmlns:xlink="http://www.w3.org/1999/xlink"><defs /><g transform="translate(43,30)"><path d="M 129,97 Q 131.0,61.0 63,95 Q 93.0,141.5 205,106 Q 145.0,36.0 9,42 Q 43.0,73.5 11,39" fill="none" stroke="black" stroke-width="2" /><path d="M 0,60 Q 0.5,130.0 89,112 Q 106.0,152.0 171,144 Q 170.0,66.5 107,51 Q 124.0,-8.0 55,19" fill="none" stroke="black" stroke-width="2" /><path d="M 158,56 Q 135.0,-9.5 36,1 Q 28.5,77.0 101,73 Q 77.5,151.0 136,147 Q 110.5,52.0 1,41" fill="none" stroke="black" stroke-width="2" /><path d="M 197,10 Q 207.0,-27.5 145,7 Q 69.5,26.5 70,122 Q 129.5,83.5 149,5 Q 63.0,-12.5 25,18" fill="none" stroke="black" stroke-width="2" /></g></svg>