<?xml version="1.0" encoding="utf-8" ?>
<svg baseProfile="full" height="210mm" version="1.1" viewBox="0 0 297 210" width="297mm" xmlns="http://www.w3.org/2000/svg" xmlns:ev="http://www.w3.org/2001/xml-events" xmlns:xlink="http://www.w3.org/1999/xlink"><defs /><g transform="translate(43,30)"><path d="M 101,79 Q 166.0,113.0 133,49 Q 141.5,6.0 100,13 Q 33.5,37.5 39,134 Q 159.5,137.5 204,65" fill="none" stroke="black" stroke-width="2" /><path d="M 22,141 Q 129.5,159.5 143,84 Q 110.0,15.5 9,15 Q 22.0,101.5 129,94 Q 102.0,64.0 31,78" fill="none" stroke="black" stroke-width="2" /><path d="M 31,39 Q 22.0,91.0 97,59 Q 50.0,30.0 85,83 Q 181.5,84.5 194,2 Q 107.5,-27.5 95,17" fill="none" stroke="black" stroke-width="2" /><path d="M 162,19 Q 112.5,55.0 107,135 Q 90.0,59.5 27,30 Q -5.0,84.0 43,58 Q -10.0,36.0 37,114" fill="none" stroke="black" stroke-width="2" /></g></svg>