<?xml version="1.0" encoding="utf-8" ?>
<svg baseProfile="full" height="210mm" version="1.1" viewBox="0 0 297 210" width="297mm" xmlns="http://www.w3.org/2000/svg" xmlns:ev="http://www.w3.org/2001/xml-events" xmlns:xlink="http://www.w3.org/1999/xlink"><defs /><g transform="translate(43,30)"><path d="M 98,135 Q 97.0,108.5 54,124 Q 76.5,54.5 45,39 Q 90.5,59.0 58,1 Q -16.5,-43.0 7,11" fill="none" stroke="black" stroke-width="2" /><path d="M 77,140 Q 85.5,67.0 20,68 Q -12.0,51.0 16,94 Q 68.5,133.5 175,119 Q 67.5,104.0 8,137" fill="none" stroke="black" stroke-width="2" /><path d="M 125,146 Q 91.5,104.0 8,112 Q 44.5,131.5 33,103 Q 141.0,134.5 151,68 Q 65.5,46.0 48,92" fill="none" stroke="black" stroke-width="2" /><path d="M 174,141 Q 127.0,40.5 2,18 Q 19.0,108.5 108,127 Q 156.5,160.0 117,105 Q 190.5,128.5 178,66" fill="none" stroke="black" stroke-width="2" /></g></svg>