<?xml version="1.0" encoding="utf-8" ?>
<svg baseProfile="full" height="210mm" version="1.1" viewBox="0 0 297 210" width="297mm" xmlns="http://www.w3.org/2000/svg" xmlns:ev="http://www.w3.org/2001/xml-events" xmlns:xlink="http://www.w3.org/1999/xlink"><defs /><g transform="translate(43,30)"><path d="M 188,43 Q 211.0,14.0 186,33 Q 110.0,30.5 86,80 Q 120.0,80.0 106,32 Q 76.5,46.0 105,118" fill="none" stroke="black" stroke-width="2" /><path d="M 5,2 Q 25.0,49.5 121,21 Q 48.5,-9.0 68,53 Q 18.0,29.5 24,62 Q 99.5,83.5 125,55" fill="none" stroke="black" stroke-width="2" /><path d="M 44,59 Q -18.0,28.0 16,93 Q 118.5,96.0 133,11 Q 89.0,29.0 93,95 Q 183.0,115.5 195,58" fill="none" stroke="black" stroke-width="2" /><path d="M 179,74 Q 146.5,20.5 70,11 Q 84.0,97.5 156,126 Q 192.5,90.5 187,13 Q 97.0,25.5 91,122" fill="none" stroke="black" stroke-width="2" /></g></svg>