<?xml version="1.0" encoding="utf-8" ?>
<svg baseProfile="full" height="210mm" version="1.1" viewBox="0 0 297 210" width="297mm" xmlns="http://www.w3.org/2000/svg" xmlns:ev="http://www.w3.org/2001/xml-events" xmlns:xlink="http://www.w3.org/1999/xlink"><defs /><g transform="translate(43,30)"><path d="M 207,43 Q 88.0,31.0 65,115 Q 134.5,124.5 164,94 Q 99.0,96.0 82,146 Q 114.0,160.5 100,129" fill="none" stroke="black" stroke-width="2" /><path d="M 33,142 Q 137.5,141.0 184,82 Q 120.0,54.5 136,107 Q 110.0,159.0 168,127 Q 153.5,37.0 51,35" fill="none" stroke="black" stroke-width="2" /><path d="M 15,85 Q 64.0,100.0 63,65 Q 16.0,41.0 47,95 Q 144.5,93.0 182,31 Q 225.0,66.0 194,27" fill="none" stroke="black" stroke-width="2" /><path d="M 52,36 Q 74.0,123.5 178,129 Q 176.0,61.5 128,40 Q 59.5,63.0 37,132 Q 47.0,48.0 17,4" fill="none" stroke="black" stroke-width="2" /></g></svg>