<?xml version="1.0" encoding="utf-8" ?>
<svg baseProfile="full" height="210mm" version="1.1" viewBox="0 0 297 210" width="297mm" xmlns="http://www.w3.org/2000/svg" xmlns:ev="http://www.w3.org/2001/xml-events" xmlns:xlink="http://www.w3.org/1999/xlink"><defs /><g transform="translate(43,30)"><path d="M 30,80 Q 26.0,105.0 70,82 Q 106.0,125.5 206,105 Q 144.0,23.5 0,24 Q -17.0,106.0 24,130" fill="none" stroke="black" stroke-width="2" /><path d="M 149,140 Q 204.0,151.0 193,96 Q 163.5,59.0 78,78 Q 108.0,129.5 192,127 Q 202.5,63.0 165,47" fill="none" stroke="black" stroke-width="2" /><path d="M 187,47 Q 128.5,45.5 132,106 Q 142.0,44.0 64,70 Q 147.0,77.0 152,6 Q 98.5,26.0 127,128" fill="none" stroke="black" stroke-width="2" /><path d="M 126,102 Q 180.5,104.5 149,21 Q 111.5,75.0 160,43 Q 191.0,-20.0 128,11 Q 29.5,26.5 5,116" fill="none" stroke="black" stroke-width="2" /></g></svg>