<?xml version="1.0" encoding="utf-8" ?>
<svg baseProfile="full" height="210mm" version="1.1" viewBox="0 0 297 210" width="297mm" xmlns="http://www.w3.org/2000/svg" xmlns:ev="http://www.w3.org/2001/xml-events" xmlns:xlink="http://www.w3.org/1999/xlink"><defs /><g transform="translate(43,30)"><path d="M 71,31 Q 91.5,68.0 172,45 Q 66.0,13.0 30,51 Q 90.0,110.5 210,110 Q 117.5,72.0 105,114" fill="none" stroke="black" stroke-width="2" /><path d="M 68,2 Q 45.0,118.5 110,147 Q 193.5,133.5 177,20 Q 135.0,17.5 157,79 Q 56.5,61.0 56,143" fill="none" stroke="black" stroke-width="2" /><path d="M 73,103 Q 77.0,26.5 21,10 Q -26.5,34.5 8,141 Q 88.0,159.0 98,107 Q 138.5,106.5 125,52" fill="none" stroke="black" stroke-width="2" /><path d="M 69,64 Q 52.5,95.0 84,78 Q 42.0,132.5 96,91 Q 82.0,134.5 138,108 Q 74.0,84.0 92,142" fill="none" stroke="black" stroke-width="2" /></g></svg>