<?xml version="1.0" encoding="utf-8" ?>
<svg baseProfile="full" height="210mm" version="1.1" viewBox="0 0 297 210" width="297mm" xmlns="http://www.w3.org/2000/svg" xmlns:ev="http://www.w3.org/2001/xml-events" xmlns:xlink="http://www.w3.org/1999/xlink"><defs /><g transform="translate(43,30)"><path d="M 135,29 Q 72.5,58.5 58,136 Q 110.5,164.5 105,135 Q 175.0,155.5 187,118 Q 164.5,45.5 76,39" fill="none" stroke="black" stroke-width="2" /><path d="M 117,79 Q 123.0,120.5 203,88 Q 199.0,23.5 115,39 Q 99.5,7.5 28,32 Q 33.0,74.5 116,39" fill="none" stroke="black" stroke-width="2" /><path d="M 134,74 Q 53.0,65.5 54,139 Q 87.0,61.5 38,66 Q 22.0,119.5 106,73 Q 51.0,64.5 60,120" fill="none" stroke="black" stroke-width="2" /><path d="M 87,145 Q 173.0,146.0 207,95 Q 135.0,59.5 161,122 Q 138.0,73.0 59,80 Q 77.5,13.0 16,26" fill="none" stroke="black" stroke-width="2" /></g></svg>