<?xml version="1.0" encoding="utf-8" ?>
<svg baseProfile="full" height="210mm" version="1.1" viewBox="0 0 297 210" width="297mm" xmlns="http://www.w3.org/2000/svg" xmlns:ev="http://www.w3.org/2001/xml-events" xmlns:xlink="http://www.w3.org/1999/xlink"><defs /><g transform="translate(43,30)"><path d="M 63,110 Q 129.5,134.0 196,110 Q 175.0,51.0 56,90 Q 133.0,133.0 114,80 Q 116.0,145.0 188,140" fill="none" stroke="black" stroke-width="2" /><path d="M 76,93 Q 77.0,165.0 168,147 Q 138.5,87.5 29,108 Q 84.0,150.0 41,94 Q 117.0,123.5 95,55" fill="none" stroke="black" stroke-width="2" /><path d="M 22,9 Q 24.5,101.5 75,146 Q 145.5,94.5 174,1 Q 149.0,57.5 188,50 Q 49.5,24.5 1,89" fill="none" stroke="black" stroke-width="2" /><path d="M 52,63 Q 66.0,130.5 166,112 Q 145.0,154.5 198,123 Q 153.5,71.0 47,81 Q 92.5,95.0 88,59" fill="none" stroke="black" stroke-width="2" /></g></svg>