<?xml version="1.0" encoding="utf-8" ?>
<svg baseProfile="full" height="210mm" version="1.1" viewBox="0 0 297 210" width="297mm" xmlns="http://www.w3.org/2000/svg" xmlns:ev="http://www.w3.org/2001/xml-events" xmlns:xlink="http://www.w3.org/1999/xlink"><defs /><g transform="translate(43,30)"><path d="M 101,123 Q 142.0,152.5 105,104 Q 186.5,124.5 200,77 Q 203.0,26.0 108,73 Q 62.0,79.0 68,137" fill="none" stroke="black" stroke-width="2" /><path d="M 46,27 Q 22.5,129.0 91,139 Q 145.0,146.5 103,58 Q 63.0,131.0 109,118 Q 80.0,159.0 129,122" fill="none" stroke="black" stroke-width="2" /><path d="M 199,68 Q 218.0,16.5 159,43 Q 157.0,92.0 199,97 Q 137.0,25.0 19,9 Q 50.0,86.0 139,105" fill="none" stroke="black" stroke-width="2" /><path d="M 78,86 Q 68.0,164.0 156,144 Q 224.0,166.0 210,106 Q 197.5,55.0 115,74 Q 71.5,63.5 68,93" fill="none" stroke="black" stroke-width="2" /></g></svg>