<?xml version="1.0" encoding="utf-8" ?>
<svg baseProfile="full" height="210mm" version="1.1" viewBox="0 0 297 210" width="297mm" xmlns="http://www.w3.org/2000/svg" xmlns:ev="http://www.w3.org/2001/xml-events" xmlns:xlink="http://www.w3.org/1999/xlink"><defs /><g transform="translate(43,30)"><path d="M 197,24 Q 122.5,2.0 108,40 Q 8.5,40.0 7,138 Q 43.0,130.5 11,55 Q 112.5,89.0 142,51" fill="none" stroke="black" stroke-width="2" /><path d="M 82,35 Q 176.0,54.5 210,14 Q 113.5,24.5 115,133 Q 124.5,73.0 52,95 Q 8.0,73.0 14,101" fill="none" stroke="black" stroke-width="2" /><path d="M 199,105 Q 207.0,59.0 173,55 Q 126.5,40.5 150,96 Q 148.5,142.5 209,127 Q 137.5,59.0 20,37" fill="none" stroke="black" stroke-width="2" /><path d="M 0,120 Q 107.0,145.5 144,101 Q 104.0,38.5 24,16 Q 66.5,73.5 151,89 Q 204.0,120.0 181,75" fill="none" stroke="black" stroke-width="2" /></g></svg>