<?xml version="1.0" encoding="utf-8" ?>
<svg baseProfile="full" height="210mm" version="1.1" viewBox="0 0 297 210" width="297mm" xmlns="http://www.w3.org/2000/svg" xmlns:ev="http://www.w3.org/2001/xml-events" xmlns:xlink="http://www.w3.org/1999/xlink"><defs /><g transform="translate(43,30)"><path d="M 44,109 Q 169.5,129.5 195,50 Q 106.5,24.0 98,78 Q 97.5,14.5 35,13 Q 23.5,50.5 62,38" fill="none" stroke="black" stroke-width="2" /><path d="M 26,101 Q 115.5,128.0 111,61 Q 27.0,43.5 9,92 Q 68.5,137.0 28,82 Q 0.0,148.0 70,116" fill="none" stroke="black" stroke-width="2" /><path d="M 164,41 Q 183.5,5.0 155,17 Q 134.5,69.5 200,36 Q 94.5,-6.5 77,39 Q 38.0,133.5 83,144" fill="none" stroke="black" stroke-width="2" /><path d="M 25,81 Q 128.5,101.5 178,68 Q 159.5,-1.5 53,17 Q 40.0,126.5 127,136 Q 106.0,39.5 23,5" fill="none" stroke="black" stroke-width="2" /></g></svg>