<?xml version="1.0" encoding="utf-8" ?>
<svg baseProfile="full" height="210mm" version="1.1" viewBox="0 0 297 210" width="297mm" xmlns="http://www.w3.org/2000/svg" xmlns:ev="http://www.w3.org/2001/xml-events" xmlns:xlink="http://www.w3.org/1999/xlink"><defs /><g transform="translate(43,30)"><path d="M 85,124 Q 181.0,129.5 183,41 Q 162.0,-1.0 83,15 Q 118.0,-25.0 79,9 Q 80.5,63.0 142,57" fill="none" stroke="black" stroke-width="2" /><path d="M 108,40 Q 122.0,-9.5 38,39 Q 89.5,59.5 95,34 Q 113.5,-16.5 48,17 Q 61.5,96.0 163,87" fill="none" stroke="black" stroke-width="2" /><path d="M 75,106 Q 173.5,126.5 180,55 Q 68.0,74.0 2,139 Q 123.0,172.5 176,138 Q 158.0,70.5 70,73" fill="none" stroke="black" stroke-width="2" /><path d="M 9,129 Q -29.5,175.5 22,132 Q 107.0,164.0 114,118 Q 108.5,75.0 53,82 Q 170.0,95.5 193,15" fill="none" stroke="black" stroke-width="2" /></g></svg>