<?xml version="1.0" encoding="utf-8" ?>
<svg baseProfile="full" height="210mm" version="1.1" viewBox="0 0 297 210" width="297mm" xmlns="http://www.w3.org/2000/svg" xmlns:ev="http://www.w3.org/2001/xml-events" xmlns:xlink="http://www.w3.org/1999/xlink"><defs /><g transform="translate(43,30)"><path d="M 49,91 Q 93.0,100.0 93,65 Q 70.0,94.5 105,66 Q 108.5,96.0 158,80 Q 59.5,62.5 29,113" fill="none" stroke="black" stroke-width="2" /><path d="M 196,38 Q 145.0,57.5 136,119 Q 84.0,91.0 116,147 Q 89.5,75.5 9,58 Q -12.0,149.5 67,141" fill="none" stroke="black" stroke-width="2" /><path d="M 188,95 Q 91.5,70.0 77,127 Q 158.0,142.5 145,64 Q 108.0,13.5 23,11 Q 68.0,80.0 159,103" fill="none" stroke="black" stroke-width="2" /><path d="M 159,23 Q 140.0,96.0 173,117 Q 154.0,29.5 55,22 Q 7.0,8.5 33,69 Q 165.5,106.0 200,45" fill="none" stroke="black" stroke-width="2" /></g></svg>