<?xml version="1.0" encoding="utf-8" ?>
<svg baseProfile="full" height="210mm" version="1.1" viewBox="0 0 297 210" width="297mm" xmlns="http://www.w3.org/2000/svg" xmlns:ev="http://www.w3.org/2001/xml-events" xmlns:xlink="http://www.w3.org/1999/xlink"><defs /><g transform="translate(43,30)"><path d="M 80,88 Q 44.5,87.0 51,128 Q 11.0,104.5 21,131 Q 56.0,41.0 3,39 Q 33.0,107.5 153,86" fill="none" stroke="black" stroke-width="2" /><path d="M 25,98 Q 44.0,64.5 1,93 Q 77.0,81.0 85,1 Q 95.0,63.0 147,83 Q 155.5,33.5 96,52" fill="none" stroke="black" stroke-width="2" /><path d="M 124,131 Q 88.0,76.5 4,70 Q 28.5,120.0 103,120 Q 88.5,79.0 6,106 Q 48.5,130.0 31,94" fill="none" stroke="black" stroke-width="2" /><path d="M 173,84 Q 92.5,59.5 72,95 Q 72.0,122.5 120,102 Q 92.5,140.5 129,115 Q 72.0,85.0 97,137" fill="none" stroke="black" stroke-width="2" /></g></svg>