<?xml version="1.0" encoding="utf-8" ?>
<svg baseProfile="full" height="210mm" version="1.1" viewBox="0 0 297 210" width="297mm" xmlns="http://www.w3.org/2000/svg" xmlns:ev="http://www.w3.org/2001/xml-events" xmlns:xlink="http://www.w3.org/1999/xlink"><defs /><g transform="translate(43,30)"><path d="M 89,81 Q 160.0,115.0 145,63 Q 66.5,53.0 70,125 Q 157.5,125.0 191,71 Q 90.5,54.0 44,91" fill="none" stroke="black" stroke-width="2" /><path d="M 139,2 Q 103.5,101.0 160,108 Q 128.5,54.0 7,90 Q 45.5,150.5 180,115 Q 192.5,59.5 129,80" fill="none" stroke="black" stroke-width="2" /><path d="M 53,129 Q 84.0,169.0 185,139 Q 137.5,66.5 40,44 Q 11.0,84.5 48,59 Q 45.0,91.5 82,84" fill="none" stroke="black" stroke-width="2" /><path d="M 61,147 Q 70.0,66.5 21,44 Q 40.0,125.0 151,114 Q 193.0,94.0 177,16 Q 67.5,23.0 4,76" fill="none" stroke="black" stroke-width="2" /></g></svg>