<?xml version="1.0" encoding="utf-8" ?>
<svg baseProfile="full" height="210mm" version="1.1" viewBox="0 0 297 210" width="297mm" xmlns="http://www.w3.org/2000/svg" xmlns:ev="http://www.w3.org/2001/xml-events" xmlns:xlink="http://www.w3.org/1999/xlink"><defs /><g transform="translate(43,30)"><path d="M 19,129 Q 86.0,134.5 83,70 Q 44.5,127.0 104,86 Q 54.0,48.0 4,86 Q 41.5,74.5 29,13" fill="none" stroke="black" stroke-width="2" /><path d="M 196,87 Q 141.5,25.5 7,44 Q 84.5,77.5 64,13 Q 38.5,102.5 65,140 Q 86.0,79.0 7,118" fill="none" stroke="black" stroke-width="2" /><path d="M 105,74 Q 127.0,16.0 49,58 Q 80.0,11.5 39,37 Q 29.5,113.5 106,104 Q 115.5,59.0 79,60" fill="none" stroke="black" stroke-width="2" /><path d="M 142,34 Q 78.0,45.5 100,143 Q 149.5,170.0 103,101 Q 130.5,20.0 76,21 Q 2.5,23.0 9,105" fill="none" stroke="black" stroke-width="2" /></g></svg>