<?xml version="1.0" encoding="utf-8" ?>
<svg baseProfile="full" height="210mm" version="1.1" viewBox="0 0 297 210" width="297mm" xmlns="http://www.w3.org/2000/svg" xmlns:ev="http://www.w3.org/2001/xml-events" xmlns:xlink="http://www.w3.org/1999/xlink"><defs /><g transform="translate(43,30)"><path d="M 198,56 Q 65.5,24.5 23,83 Q 157.0,95.0 205,21 Q 144.5,-13.0 36,1 Q 58.5,58.0 161,35" fill="none" stroke="black" stroke-width="2" /><path d="M 91,124 Q 168.5,164.0 148,106 Q 96.5,57.5 5,49 Q 21.0,91.5 89,82 Q 173.5,115.5 174,65" fill="none" stroke="black" stroke-width="2" /><path d="M 200,60 Q 111.0,47.5 70,83 Q 58.5,148.5 135,126 Q 90.0,104.5 97,135 Q 102.0,98.5 35,134" fill="none" stroke="black" stroke-width="2" /><path d="M 77,61 Q 46.5,145.0 114,131 Q 196.0,110.0 196,7 Q 104.0,3.5 62,50 Q 44.5,127.0 99,132" fill="none" stroke="black" stroke-width="2" /></g></svg>