<?xml version="1.0" encoding="utf-8" ?>
<svg baseProfile="full" height="210mm" version="1.1" viewBox="0 0 297 210" width="297mm" xmlns="http://www.w3.org/2000/svg" xmlns:ev="http://www.w3.org/2001/xml-events" xmlns:xlink="http://www.w3.org/1999/xlink"><defs /><g transform="translate(43,30)"><path d="M 63,122 Q 106.5,128.5 92,77 Q 65.5,58.0 91,91 Q 132.0,118.5 101,74 Q 49.5,82.5 48,141" fill="none" stroke="black" stroke-width="2" /><path d="M 192,13 Q 142.5,-2.0 185,75 Q 207.5,25.0 134,71 Q 102.5,16.5 31,2 Q 28.5,32.5 66,23" fill="none" stroke="black" stroke-width="2" /><path d="M 135,104 Q 128.5,130.0 166,112 Q 142.5,85.0 75,102 Q 86.5,58.5 52,61 Q 67.5,117.5 145,112" fill="none" stroke="black" stroke-width="2" /><path d="M 130,49 Q 90.0,72.0 96,141 Q 170.0,135.5 150,36 Q 99.5,1.0 141,58 Q 48.5,58.5 38,141" fill="none" stroke="black" stroke-width="2" /></g></svg>