<?xml version="1.0" encoding="utf-8" ?>
<svg baseProfile="full" height="210mm" version="1.1" viewBox="0 0 297 210" width="297mm" xmlns="http://www.w3.org/2000/svg" xmlns:ev="http://www.w3.org/2001/xml-events" xmlns:xlink="http://www.w3.org/1999/xlink"><defs /><g transform="translate(43,30)"><path d="M 123,45 Q 36.0,68.5 3,146 Q 146.5,122.0 194,2 Q 104.0,20.0 78,102 Q 145.0,132.0 126,76" fill="none" stroke="black" stroke-width="2" /><path d="M 181,142 Q 199.0,69.5 167,47 Q 112.5,42.5 144,124 Q 185.0,105.0 160,20 Q 157.0,81.5 198,99" fill="none" stroke="black" stroke-width="2" /><path d="M 79,11 Q 13.0,-26.5 47,36 Q 109.0,71.0 95,30 Q 143.0,56.0 135,26 Q 185.5,45.5 194,23" fill="none" stroke="black" stroke-width="2" /><path d="M 172,81 Q 143.5,29.0 39,53 Q 77.5,111.5 188,98 Q 199.5,36.0 111,74 Q 153.5,74.0 150,28" fill="none" stroke="black" stroke-width="2" /></g></svg>