<?xml version="1.0" encoding="utf-8" ?>
<svg baseProfile="full" height="210mm" version="1.1" viewBox="0 0 297 210" width="297mm" xmlns="http://www.w3.org/2000/svg" xmlns:ev="http://www.w3.org/2001/xml-events" xmlns:xlink="http://www.w3.org/1999/xlink"><defs /><g transform="translate(43,30)"><path d="M 108,96 Q 145.5,35.5 101,57 Q 148.0,82.0 115,27 Q 73.5,39.0 86,105 Q 110.0,19.0 64,3" fill="none" stroke="black" stroke-width="2" /><path d="M 113,28 Q 87.0,102.5 133,105 Q 209.0,147.5 197,102 Q 209.0,66.5 163,89 Q 77.0,63.0 75,121" fill="none" stroke="black" stroke-width="2" /><path d="M 80,51 Q 95.5,114.5 167,122 Q 175.0,64.5 107,83 Q 143.0,13.5 93,30 Q 84.0,-7.0 25,6" fill="none" stroke="black" stroke-width="2" /><path d="M 206,120 Q 164.0,47.5 82,15 Q 72.0,107.5 118,144 Q 152.0,24.0 90,0 Q 86.0,85.5 172,81" fill="none" stroke="black" stroke-width="2" /></g></svg>