<?xml version="1.0" encoding="utf-8" ?>
<svg baseProfile="full" height="210mm" version="1.1" viewBox="0 0 297 210" width="297mm" xmlns="http://www.w3.org/2000/svg" xmlns:ev="http://www.w3.org/2001/xml-events" xmlns:xlink="http://www.w3.org/1999/xlink"><defs /><g transform="translate(43,30)"><path d="M 112,76 Q 113.0,144.5 180,147 Q 201.0,79.5 174,60 Q 81.0,56.5 76,141 Q 173.0,166.5 206,128" fill="none" stroke="black" stroke-width="2" /><path d="M 100,53 Q 101.0,2.0 2,51 Q 132.5,65.0 207,23 Q 156.0,18.5 173,82 Q 144.5,53.0 116,82" fill="none" stroke="black" stroke-width="2" /><path d="M 155,106 Q 127.5,49.0 28,64 Q -11.5,75.5 5,143 Q 67.0,96.5 83,4 Q 89.0,102.5 185,111" fill="none" stroke="black" stroke-width="2" /><path d="M 42,121 Q 56.0,170.0 156,133 Q 176.5,26.0 105,11 Q 92.0,84.0 133,103 Q 149.5,46.5 110,46" fill="none" stroke="black" stroke-width="2" /></g></svg>