<?xml version="1.0" encoding="utf-8" ?>
<svg baseProfile="full" height="210mm" version="1.1" viewBox="0 0 297 210" width="297mm" xmlns="http://www.w3.org/2000/svg" xmlns:ev="http://www.w3.org/2001/xml-events" xmlns:xlink="http://www.w3.org/1999/xlink"><defs /><g transform="translate(43,30)"><path d="M 20,105 Q 95.5,136.0 171,105 Q 167.0,58.0 107,67 Q 154.5,98.0 112,39 Q 80.5,129.0 127,141" fill="none" stroke="black" stroke-width="2" /><path d="M 128,97 Q 186.5,103.0 205,69 Q 185.5,16.5 76,54 Q 13.5,7.0 51,60 Q 103.0,86.0 93,50" fill="none" stroke="black" stroke-width="2" /><path d="M 63,90 Q 99.0,109.5 91,85 Q 73.5,128.0 106,121 Q 105.0,80.5 46,98 Q 83.0,115.5 62,75" fill="none" stroke="black" stroke-width="2" /><path d="M 191,74 Q 148.0,83.5 159,147 Q 157.0,78.5 87,78 Q 107.0,47.5 73,71 Q 118.0,123.0 209,129" fill="none" stroke="black" stroke-width="2" /></g></svg>