<?xml version="1.0" encoding="utf-8" ?>
<svg baseProfile="full" height="210mm" version="1.1" viewBox="0 0 297 210" width="297mm" xmlns="http://www.w3.org/2000/svg" xmlns:ev="http://www.w3.org/2001/xml-events" xmlns:xlink="http://www.w3.org/1999/xlink"><defs /><g transform="translate(43,30)"><path d="M 186,124 Q 211.5,29.0 151,20 Q 130.0,117.0 197,126 Q 161.5,74.5 64,85 Q 84.0,29.0 20,57" fill="none" stroke="black" stroke-width="2" /><path d="M 179,143 Q 193.5,56.5 114,64 Q 28.0,27.0 40,88 Q 89.5,86.5 81,27 Q 136.0,54.0 123,13" fill="none" stroke="black" stroke-width="2" /><path d="M 207,23 Q 109.5,9.5 62,46 Q 111.0,56.5 96,3 Q 61.5,47.0 81,145 Q 94.5,80.5 42,82" fill="none" stroke="black" stroke-width="2" /><path d="M 95,42 Q 47.5,37.0 72,104 Q 108.5,46.0 45,88 Q 77.5,147.0 170,146 Q 178.0,71.5 126,57" fill="none" stroke="black" stroke-width="2" /></g></svg>