<?xml version="1.0" encoding="utf-8" ?>
<svg baseProfile="full" height="210mm" version="1.1" viewBox="0 0 297 210" width="297mm" xmlns="http://www.w3.org/2000/svg" xmlns:ev="http://www.w3.org/2001/xml-events" xmlns:xlink="http://www.w3.org/1999/xlink"><defs /><g transform="translate(43,30)"><path d="M 20,81 Q 24.5,142.0 93,139 Q 123.0,85.0 85,99 Q 94.0,151.0 203,103 Q 150.5,45.5 52,34" fill="none" stroke="black" stroke-width="2" /><path d="M 186,5 Q 66.0,25.5 2,102 Q -20.5,157.0 55,114 Q 66.5,59.5 30,53 Q 137.0,99.5 150,52" fill="none" stroke="black" stroke-width="2" /><path d="M 154,86 Q 191.5,83.5 181,33 Q 206.5,-18.0 136,27 Q 99.0,12.5 124,60 Q 187.0,108.0 150,56" fill="none" stroke="black" stroke-width="2" /><path d="M 107,124 Q 187.0,132.5 169,43 Q 113.0,15.5 143,74 Q 91.0,84.0 79,134 Q 156.5,169.5 138,109" fill="none" stroke="black" stroke-width="2" /></g></svg>