<?xml version="1.0" encoding="utf-8" ?>
<svg baseProfile="full" height="210mm" version="1.1" viewBox="0 0 297 210" width="297mm" xmlns="http://www.w3.org/2000/svg" xmlns:ev="http://www.w3.org/2001/xml-events" xmlns:xlink="http://www.w3.org/1999/xlink"><defs /><g transform="translate(43,30)"><path d="M 79,85 Q 92.0,35.5 7,84 Q 128.0,79.5 201,27 Q 83.5,11.5 20,50 Q 0.5,117.5 81,85" fill="none" stroke="black" stroke-width="2" /><path d="M 39,126 Q 132.0,151.0 147,98 Q 146.5,74.0 104,92 Q 137.0,39.5 84,73 Q 27.0,45.0 62,109" fill="none" stroke="black" stroke-width="2" /><path d="M 120,70 Q 123.5,96.0 169,80 Q 125.5,24.0 24,26 Q 30.5,106.0 81,142 Q 119.0,148.5 105,103" fill="none" stroke="black" stroke-width="2" /><path d="M 130,50 Q 184.5,50.0 191,2 Q 153.0,44.0 169,140 Q 198.0,106.0 177,22 Q 102.0,-7.0 117,54" fill="none" stroke="black" stroke-width="2" /></g></svg>