<?xml version="1.0" encoding="utf-8" ?>
<svg baseProfile="full" height="210mm" version="1.1" viewBox="0 0 297 210" width="297mm" xmlns="http://www.w3.org/2000/svg" xmlns:ev="http://www.w3.org/2001/xml-events" xmlns:xlink="http://www.w3.org/1999/xlink"><defs /><g transform="translate(43,30)"><path d="M 76,138 Q 24.5,110.5 29,139 Q 55.5,91.5 8,118 Q 103.5,141.5 119,85 Q 40.5,70.5 2,96" fill="none" stroke="black" stroke-width="2" /><path d="M 114,36 Q 175.0,53.0 184,18 Q 84.5,35.0 67,134 Q 90.0,51.0 19,62 Q 32.0,123.0 137,92" fill="none" stroke="black" stroke-width="2" /><path d="M 33,76 Q 120.5,107.0 128,58 Q 156.5,4.0 115,20 Q 56.5,24.0 42,72 Q 61.5,20.5 25,25" fill="none" stroke="black" stroke-width="2" /><path d="M 14,125 Q 69.5,151.0 39,91 Q 2.0,75.5 29,124 Q 55.5,122.0 38,76 Q 64.5,14.0 3,40" fill="none" stroke="black" stroke-width="2" /></g></svg>