<?xml version="1.0" encoding="utf-8" ?>
<svg baseProfile="full" height="210mm" version="1.1" viewBox="0 0 297 210" width="297mm" xmlns="http://www.w3.org/2000/svg" xmlns:ev="http://www.w3.org/2001/xml-events" xmlns:xlink="http://www.w3.org/1999/xlink"><defs /><g transform="translate(43,30)"><path d="M 186,138 Q 168.0,64.5 52,89 Q 118.0,121.0 114,83 Q 53.0,72.5 54,124 Q 34.0,162.5 74,141" fill="none" stroke="black" stroke-width="2" /><path d="M 160,81 Q 189.0,-5.0 118,9 Q 115.0,108.0 184,135 Q 165.0,43.0 96,1 Q 25.0,47.5 2,142" fill="none" stroke="black" stroke-width="2" /><path d="M 144,87 Q 129.5,122.0 163,109 Q 234.0,109.0 205,9 Q 120.5,35.0 120,145 Q 134.5,66.5 95,42" fill="none" stroke="black" stroke-width="2" /><path d="M 65,143 Q 109.5,56.0 62,61 Q 20.0,114.5 70,76 Q 48.5,150.0 125,126 Q 99.0,37.0 17,4" fill="none" stroke="black" stroke-width="2" /></g></svg>