<?xml version="1.0" encoding="utf-8" ?>
<svg baseProfile="full" height="210mm" version="1.1" viewBox="0 0 297 210" width="297mm" xmlns="http://www.w3.org/2000/svg" xmlns:ev="http://www.w3.org/2001/xml-events" xmlns:xlink="http://www.w3.org/1999/xlink"><defs /><g transform="translate(43,30)"><path d="M 150,112 Q 137.5,55.5 61,63 Q 64.0,135.5 133,142 Q 190.5,113.5 204,41 Q 133.0,56.5 120,130" fill="none" stroke="black" stroke-width="2" /><path d="M 76,65 Q 76.5,7.0 23,3 Q 42.5,45.0 122,27 Q 139.5,70.0 205,65 Q 139.5,67.5 122,118" fill="none" stroke="black" stroke-width="2" /><path d="M 146,143 Q 206.5,177.0 187,131 Q 134.0,80.0 25,85 Q 76.5,93.0 82,55 Q 190.0,91.0 208,37" fill="none" stroke="black" stroke-width="2" /><path d="M 14,109 Q -13.0,165.0 48,133 Q 50.5,51.5 11,12 Q 78.5,58.0 186,64 Q 134.0,3.5 0,25" fill="none" stroke="black" stroke-width="2" /></g></svg>