<?xml version="1.0" encoding="utf-8" ?>
<svg baseProfile="full" height="210mm" version="1.1" viewBox="0 0 297 210" width="297mm" xmlns="http://www.w3.org/2000/svg" xmlns:ev="http://www.w3.org/2001/xml-events" xmlns:xlink="http://www.w3.org/1999/xlink"><defs /><g transform="translate(43,30)"><path d="M 200,103 Q 194.5,49.5 109,76 Q 147.0,21.0 85,66 Q 77.5,3.5 6,5 Q -2.5,45.5 45,30" fill="none" stroke="black" stroke-width="2" /><path d="M 107,75 Q 118.5,39.5 74,60 Q 18.5,34.0 51,96 Q 26.5,148.5 100,103 Q 163.5,127.0 155,79" fill="none" stroke="black" stroke-width="2" /><path d="M 178,15 Q 83.5,-16.5 79,42 Q 102.0,48.5 83,13 Q 109.0,100.5 183,140 Q 214.5,169.0 184,136" fill="none" stroke="black" stroke-width="2" /><path d="M 128,58 Q 141.0,116.5 196,133 Q 140.0,103.0 158,147 Q 167.5,91.5 127,86 Q 160.5,82.0 130,14" fill="none" stroke="black" stroke-width="2" /></g></svg>