<?xml version="1.0" encoding="utf-8" ?>
<svg baseProfile="full" height="210mm" version="1.1" viewBox="0 0 297 210" width="297mm" xmlns="http://www.w3.org/2000/svg" xmlns:ev="http://www.w3.org/2001/xml-events" xmlns:xlink="http://www.w3.org/1999/xlink"><defs /><g transform="translate(43,30)"><path d="M 144,46 Q 142.5,86.5 181,87 Q 113.5,57.5 124,106 Q 191.0,103.0 162,4 Q 103.5,8.5 141,109" fill="none" stroke="black" stroke-width="2" /><path d="M 155,83 Q 230.0,113.5 205,44 Q 190.5,-6.0 106,14 Q 86.0,82.5 108,109 Q 158.0,143.5 116,86" fill="none" stroke="black" stroke-width="2" /><path d="M 167,16 Q 111.5,-1.5 150,75 Q 136.0,138.0 206,117 Q 153.5,25.5 21,14 Q 6.0,56.5 47,43" fill="none" stroke="black" stroke-width="2" /><path d="M 147,110 Q 195.5,115.0 188,64 Q 153.0,56.0 168,98 Q 147.0,146.0 178,142 Q 153.5,36.5 57,3" fill="none" stroke="black" stroke-width="2" /></g></svg>