<?xml version="1.0" encoding="utf-8" ?>
<svg baseProfile="full" height="210mm" version="1.1" viewBox="0 0 297 210" width="297mm" xmlns="http://www.w3.org/2000/svg" xmlns:ev="http://www.w3.org/2001/xml-events" xmlns:xlink="http://www.w3.org/1999/xlink"><defs /><g transform="translate(43,30)"><path d="M 75,91 Q 169.5,115.0 170,45 Q 234.0,78.5 210,24 Q 191.5,-1.5 133,13 Q 97.0,2.0 103,33" fill="none" stroke="black" stroke-width="2" /><path d="M 78,77 Q 20.5,82.0 21,145 Q 74.0,171.5 53,124 Q 73.0,85.5 19,121 Q 110.5,135.5 114,62" fill="none" stroke="black" stroke-width="2" /><path d="M 196,30 Q 64.0,18.5 6,81 Q 33.5,142.5 145,120 Q 135.0,60.0 39,86 Q -3.5,78.0 22,138" fill="none" stroke="black" stroke-width="2" /><path d="M 113,107 Q 94.5,37.0 0,43 Q 39.5,101.0 129,109 Q 168.0,53.5 119,86 Q 105.5,35.0 8,68" fill="none" stroke="black" stroke-width="2" /></g></svg>