<?xml version="1.0" encoding="utf-8" ?>
<svg baseProfile="full" height="210mm" version="1.1" viewBox="0 0 297 210" width="297mm" xmlns="http://www.w3.org/2000/svg" xmlns:ev="http://www.w3.org/2001/xml-events" xmlns:xlink="http://www.w3.org/1999/xlink"><defs /><g transform="translate(43,30)"><path d="M 151,139 Q 212.0,141.5 209,80 Q 118.5,42.0 126,102 Q 155.5,81.0 137,12 Q 168.0,34.0 199,12" fill="none" stroke="black" stroke-width="2" /><path d="M 101,114 Q 159.0,129.5 147,75 Q 133.5,123.5 198,94 Q 191.5,35.5 115,47 Q 52.5,66.5 52,148" fill="none" stroke="black" stroke-width="2" /><path d="M 51,86 Q 90.0,37.5 41,77 Q 17.0,131.0 91,87 Q 6.0,67.0 21,147 Q 144.0,117.0 201,21" fill="none" stroke="black" stroke-width="2" /><path d="M 91,64 Q 59.5,47.5 76,79 Q 99.0,41.5 70,56 Q 17.0,41.0 6,68 Q 56.5,83.0 43,34" fill="none" stroke="black" stroke-width="2" /></g></svg>