<?xml version="1.0" encoding="utf-8" ?>
<svg baseProfile="full" height="210mm" version="1.1" viewBox="0 0 297 210" width="297mm" xmlns="http://www.w3.org/2000/svg" xmlns:ev="http://www.w3.org/2001/xml-events" xmlns:xlink="http://www.w3.org/1999/xlink"><defs /><g transform="translate(43,30)"><path d="M 118,11 Q 81.5,-15.0 105,19 Q 73.0,-2.0 97,33 Q 19.0,30.5 13,100 Q 91.5,123.0 82,58" fill="none" stroke="black" stroke-width="2" /><path d="M 145,6 Q 114.5,-5.0 132,32 Q 44.0,39.0 2,92 Q 103.5,106.0 143,58 Q 75.0,56.0 85,132" fill="none" stroke="black" stroke-width="2" /><path d="M 154,116 Q 140.5,60.5 57,75 Q 166.0,94.0 201,39 Q 143.0,5.5 159,46 Q 74.0,32.5 37,67" fill="none" stroke="black" stroke-width="2" /><path d="M 70,69 Q 31.0,61.5 52,114 Q 78.5,37.5 21,45 Q 56.5,105.5 170,88 Q 194.0,1.5 118,15" fill="none" stroke="black" stroke-width="2" /></g></svg>