<?xml version="1.0" encoding="utf-8" ?>
<svg baseProfile="full" height="210mm" version="1.1" viewBox="0 0 297 210" width="297mm" xmlns="http://www.w3.org/2000/svg" xmlns:ev="http://www.w3.org/2001/xml-events" xmlns:xlink="http://www.w3.org/1999/xlink"><defs /><g transform="translate(43,30)"><path d="M 90,74 Q 92.5,152.5 189,137 Q 165.0,93.5 63,128 Q 82.5,90.0 56,98 Q 51.0,142.5 120,113" fill="none" stroke="black" stroke-width="2" /><path d="M 194,81 Q 198.0,15.0 118,33 Q 100.0,78.5 132,74 Q 146.5,14.5 89,27 Q 130.5,55.5 96,8" fill="none" stroke="black" stroke-width="2" /><path d="M 76,92 Q 153.5,88.0 191,44 Q 229.5,59.0 208,14 Q 117.0,21.0 104,106 Q 152.5,113.0 111,30" fill="none" stroke="black" stroke-width="2" /><path d="M 26,22 Q -8.5,91.5 39,79 Q 44.0,114.5 103,96 Q 189.0,123.5 177,53 Q 96.5,58.5 90,138" fill="none" stroke="black" stroke-width="2" /></g></svg>