<?xml version="1.0" encoding="utf-8" ?>
<svg baseProfile="full" height="210mm" version="1.1" viewBox="0 0 297 210" width="297mm" xmlns="http://www.w3.org/2000/svg" xmlns:ev="http://www.w3.org/2001/xml-events" xmlns:xlink="http://www.w3.org/1999/xlink"><defs /><g transform="translate(43,30)"><path d="M 156,0 Q 108.0,-21.0 146,44 Q 84.0,55.5 94,139 Q 48.0,117.0 48,141 Q 81.5,40.5 23,32" fill="none" stroke="black" stroke-width="2" /><path d="M 104,140 Q 181.5,185.5 161,133 Q 116.0,110.0 129,145 Q 145.0,58.0 91,41 Q 166.5,49.0 198,13" fill="none" stroke="black" stroke-width="2" /><path d="M 119,97 Q 52.5,98.0 28,141 Q 116.0,179.5 110,124 Q 200.5,122.5 203,33 Q 181.5,-2.5 98,24" fill="none" stroke="black" stroke-width="2" /><path d="M 92,48 Q 101.0,140.0 206,136 Q 153.5,41.0 27,20 Q -11.5,124.5 38,141 Q 45.5,107.5 7,120" fill="none" stroke="black" stroke-width="2" /></g></svg>