<?xml version="1.0" encoding="utf-8" ?>
<svg baseProfile="full" height="210mm" version="1.1" viewBox="0 0 297 210" width="297mm" xmlns="http://www.w3.org/2000/svg" xmlns:ev="http://www.w3.org/2001/xml-events" xmlns:xlink="http://www.w3.org/1999/xlink"><defs /><g transform="translate(43,30)"><path d="M 39,85 Q 87.0,72.5 39,60 Q 71.0,132.5 199,109 Q 236.0,51.5 185,82 Q 173.5,10.5 86,15" fill="none" stroke="black" stroke-width="2" /><path d="M 138,25 Q 93.0,107.5 148,90 Q 139.0,124.5 186,103 Q 167.0,50.0 74,71 Q 66.5,110.5 107,102" fill="none" stroke="black" stroke-width="2" /><path d="M 35,64 Q 12.5,113.0 66,86 Q 95.5,47.0 59,74 Q 163.5,81.5 186,7 Q 138.5,44.5 145,136" fill="none" stroke="black" stroke-width="2" /><path d="M 40,57 Q 84.0,86.5 46,34 Q 70.0,-2.0 34,22 Q 63.0,102.5 180,95 Q 149.5,159.0 209,133" fill="none" stroke="black" stroke-width="2" /></g></svg>