<?xml version="1.0" encoding="utf-8" ?>
<svg baseProfile="full" height="210mm" version="1.1" viewBox="0 0 297 210" width="297mm" xmlns="http://www.w3.org/2000/svg" xmlns:ev="http://www.w3.org/2001/xml-events" xmlns:xlink="http://www.w3.org/1999/xlink"><defs /><g transform="translate(43,30)"><path d="M 17,20 Q 25.5,92.5 108,91 Q 197.5,92.5 209,16 Q 152.0,-11.5 185,51 Q 49.0,28.5 9,102" fill="none" stroke="black" stroke-width="2" /><path d="M 86,72 Q 181.0,80.5 198,11 Q 107.5,33.5 107,146 Q 161.5,156.5 160,111 Q 49.0,68.5 24,112" fill="none" stroke="black" stroke-width="2" /><path d="M 95,117 Q 143.0,143.5 129,108 Q 59.0,72.5 69,117 Q 131.5,82.5 150,4 Q 81.0,-4.0 52,28" fill="none" stroke="black" stroke-width="2" /><path d="M 41,126 Q 47.5,67.5 2,61 Q 81.5,80.5 119,58 Q 106.0,121.0 189,88 Q 127.5,64.5 120,95" fill="none" stroke="black" stroke-width="2" /></g></svg>