<?xml version="1.0" encoding="utf-8" ?>
<svg baseProfile="full" height="210mm" version="1.1" viewBox="0 0 297 210" width="297mm" xmlns="http://www.w3.org/2000/svg" xmlns:ev="http://www.w3.org/2001/xml-events" xmlns:xlink="http://www.w3.org/1999/xlink"><defs /><g transform="translate(43,30)"><path d="M 122,23 Q 73.0,19.5 68,60 Q 56.0,96.5 84,93 Q 70.0,150.5 120,144 Q 105.0,57.0 50,10" fill="none" stroke="black" stroke-width="2" /><path d="M 191,61 Q 186.5,6.0 118,15 Q 81.5,27.0 99,93 Q 98.0,38.0 41,39 Q 16.0,91.5 73,62" fill="none" stroke="black" stroke-width="2" /><path d="M 156,98 Q 51.0,74.5 22,127 Q 78.0,129.0 52,49 Q 96.0,90.5 56,48 Q 128.0,56.0 160,24" fill="none" stroke="black" stroke-width="2" /><path d="M 171,133 Q 214.0,103.5 195,12 Q 78.5,-20.0 28,14 Q 40.0,119.5 146,131 Q 157.0,82.0 78,123" fill="none" stroke="black" stroke-width="2" /></g></svg>