<?xml version="1.0" encoding="utf-8" ?>
<svg baseProfile="full" height="210mm" version="1.1" viewBox="0 0 297 210" width="297mm" xmlns="http://www.w3.org/2000/svg" xmlns:ev="http://www.w3.org/2001/xml-events" xmlns:xlink="http://www.w3.org/1999/xlink"><defs /><g transform="translate(43,30)"><path d="M 188,98 Q 234.0,108.0 210,48 Q 171.0,30.0 192,72 Q 198.5,36.5 137,69 Q 163.5,37.0 128,67" fill="none" stroke="black" stroke-width="2" /><path d="M 133,5 Q 95.5,94.5 138,104 Q 61.5,92.5 33,129 Q 82.0,133.5 79,86 Q 154.5,71.0 188,14" fill="none" stroke="black" stroke-width="2" /><path d="M 95,36 Q 121.0,107.0 187,138 Q 147.5,96.5 38,125 Q 19.0,157.5 64,126 Q 100.0,52.5 54,61" fill="none" stroke="black" stroke-width="2" /><path d="M 98,46 Q 114.0,-7.5 56,13 Q 16.0,46.0 38,141 Q 83.5,175.5 41,122 Q 154.5,156.0 172,94" fill="none" stroke="black" stroke-width="2" /></g></svg>