<?xml version="1.0" encoding="utf-8" ?>
<svg baseProfile="full" height="210mm" version="1.1" viewBox="0 0 297 210" width="297mm" xmlns="http://www.w3.org/2000/svg" xmlns:ev="http://www.w3.org/2001/xml-events" xmlns:xlink="http://www.w3.org/1999/xlink"><defs /><g transform="translate(43,30)"><path d="M 83,133 Q 178.5,122.5 174,12 Q 138.5,21.0 173,100 Q 137.0,14.0 1,28 Q -14.5,64.5 18,53" fill="none" stroke="black" stroke-width="2" /><path d="M 191,8 Q 86.0,-20.0 73,44 Q 18.0,31.0 47,102 Q 104.5,96.5 78,7 Q 93.0,100.5 190,112" fill="none" stroke="black" stroke-width="2" /><path d="M 52,25 Q 84.0,-19.5 36,16 Q -5.5,9.5 5,55 Q 52.5,131.5 192,116 Q 172.0,65.5 74,93" fill="none" stroke="black" stroke-width="2" /><path d="M 194,98 Q 182.5,34.5 101,41 Q 119.0,-7.5 45,36 Q 64.0,99.0 175,70 Q 124.0,56.5 153,123" fill="none" stroke="black" stroke-width="2" /></g></svg>