<?xml version="1.0" encoding="utf-8" ?>
<svg baseProfile="full" height="210mm" version="1.1" viewBox="0 0 297 210" width="297mm" xmlns="http://www.w3.org/2000/svg" xmlns:ev="http://www.w3.org/2001/xml-events" xmlns:xlink="http://www.w3.org/1999/xlink"><defs /><g transform="translate(43,30)"><path d="M 58,81 Q 132.5,86.0 135,19 Q 36.5,-6.5 38,68 Q 62.5,99.0 87,68 Q 96.5,20.0 36,42" fill="none" stroke="black" stroke-width="2" /><path d="M 74,130 Q 152.5,153.5 179,125 Q 213.5,39.5 160,42 Q 80.0,26.0 64,74 Q 125.0,116.0 100,72" fill="none" stroke="black" stroke-width="2" /><path d="M 52,64 Q 8.5,47.0 31,96 Q 76.5,134.5 176,119 Q 181.0,51.0 136,33 Q 122.0,92.0 166,93" fill="none" stroke="black" stroke-width="2" /><path d="M 166,148 Q 146.5,81.5 71,71 Q 26.5,80.0 34,141 Q 164.5,141.5 209,56 Q 80.5,52.5 40,137" fill="none" stroke="black" stroke-width="2" /></g></svg>