<?xml version="1.0" encoding="utf-8" ?>
<svg baseProfile="full" height="210mm" version="1.1" viewBox="0 0 297 210" width="297mm" xmlns="http://www.w3.org/2000/svg" xmlns:ev="http://www.w3.org/2001/xml-events" xmlns:xlink="http://www.w3.org/1999/xlink"><defs /><g transform="translate(43,30)"><path d="M 93,128 Q 77.5,74.5 14,69 Q 115.0,98.5 118,30 Q 81.5,93.5 127,75 Q 144.0,-7.0 65,7" fill="none" stroke="black" stroke-width="2" /><path d="M 169,50 Q 109.0,16.0 5,26 Q -12.0,67.5 33,47 Q 55.5,115.5 130,132 Q 50.5,107.5 21,133" fill="none" stroke="black" stroke-width="2" /><path d="M 61,83 Q 82.5,143.5 196,112 Q 103.5,79.0 89,124 Q 153.5,146.5 128,79 Q 178.0,104.0 140,41" fill="none" stroke="black" stroke-width="2" /><path d="M 183,65 Q 203.5,21.5 170,32 Q 84.0,-5.0 82,42 Q 47.5,130.5 93,139 Q 120.5,153.5 98,118" fill="none" stroke="black" stroke-width="2" /></g></svg>