<?xml version="1.0" encoding="utf-8" ?>
<svg baseProfile="full" height="210mm" version="1.1" viewBox="0 0 297 210" width="297mm" xmlns="http://www.w3.org/2000/svg" xmlns:ev="http://www.w3.org/2001/xml-events" xmlns:xlink="http://www.w3.org/1999/xlink"><defs /><g transform="translate(43,30)"><path d="M 180,135 Q 222.0,92.5 180,50 Q 227.0,83.0 190,32 Q 147.0,20.5 146,51 Q 107.5,26.0 27,43" fill="none" stroke="black" stroke-width="2" /><path d="M 173,75 Q 131.5,21.0 44,13 Q 31.5,73.5 95,58 Q 152.0,91.5 119,35 Q 51.5,3.0 76,63" fill="none" stroke="black" stroke-width="2" /><path d="M 206,131 Q 158.0,25.5 18,12 Q 52.5,85.0 145,100 Q 64.5,78.0 50,122 Q 90.5,23.5 49,7" fill="none" stroke="black" stroke-width="2" /><path d="M 61,100 Q 102.5,89.5 86,21 Q 50.0,120.0 106,127 Q 157.0,154.0 118,91 Q 132.0,21.5 84,14" fill="none" stroke="black" stroke-width="2" /></g></svg>