<?xml version="1.0" encoding="utf-8" ?>
<svg baseProfile="full" height="210mm" version="1.1" viewBox="0 0 297 210" width="297mm" xmlns="http://www.w3.org/2000/svg" xmlns:ev="http://www.w3.org/2001/xml-events" xmlns:xlink="http://www.w3.org/1999/xlink"><defs /><g transform="translate(43,30)"><path d="M 3,77 Q 71.5,113.0 206,83 Q 84.5,70.0 51,145 Q 143.0,170.5 171,132 Q 213.5,108.5 194,23" fill="none" stroke="black" stroke-width="2" /><path d="M 24,58 Q 59.5,-10.5 15,1 Q 57.5,37.5 146,28 Q 143.0,-3.5 100,5 Q 106.0,75.5 174,84" fill="none" stroke="black" stroke-width="2" /><path d="M 2,88 Q 36.5,74.5 19,9 Q 0.5,116.5 80,126 Q 103.0,26.0 52,0 Q 96.0,71.5 192,91" fill="none" stroke="black" stroke-width="2" /><path d="M 63,111 Q 160.5,99.0 190,19 Q 70.0,-14.0 50,53 Q 33.0,128.0 96,123 Q 138.0,142.5 98,80" fill="none" stroke="black" stroke-width="2" /></g></svg>