<?xml version="1.0" encoding="utf-8" ?>
<svg baseProfile="full" height="210mm" version="1.1" viewBox="0 0 297 210" width="297mm" xmlns="http://www.w3.org/2000/svg" xmlns:ev="http://www.w3.org/2001/xml-events" xmlns:xlink="http://www.w3.org/1999/xlink"><defs /><g transform="translate(43,30)"><path d="M 77,68 Q 65.0,105.5 105,91 Q 202.0,138.0 203,89 Q 232.0,30.0 175,57 Q 137.5,49.5 172,114" fill="none" stroke="black" stroke-width="2" /><path d="M 5,117 Q 127.0,131.5 177,74 Q 143.0,22.0 57,22 Q 64.5,75.0 124,76 Q 55.5,73.5 51,135" fill="none" stroke="black" stroke-width="2" /><path d="M 164,91 Q 148.5,27.5 37,60 Q 62.5,13.5 20,35 Q 96.0,65.5 104,28 Q 45.0,23.0 34,66" fill="none" stroke="black" stroke-width="2" /><path d="M 112,100 Q 183.0,128.5 174,77 Q 183.5,12.5 103,38 Q 67.0,104.0 119,82 Q 120.5,37.5 48,67" fill="none" stroke="black" stroke-width="2" /></g></svg>