<?xml version="1.0" encoding="utf-8" ?>
<svg baseProfile="full" height="210mm" version="1.1" viewBox="0 0 297 210" width="297mm" xmlns="http://www.w3.org/2000/svg" xmlns:ev="http://www.w3.org/2001/xml-events" xmlns:xlink="http://www.w3.org/1999/xlink"><defs /><g transform="translate(43,30)"><path d="M 90,98 Q 149.0,116.0 146,72 Q 176.5,65.0 165,16 Q 85.5,43.0 70,134 Q 127.5,180.5 91,133" fill="none" stroke="black" stroke-width="2" /><path d="M 35,35 Q 62.0,66.0 135,51 Q 148.5,7.0 108,17 Q 81.5,-16.0 3,3 Q -5.5,65.0 70,43" fill="none" stroke="black" stroke-width="2" /><path d="M 147,4 Q 134.0,57.5 179,53 Q 69.5,18.5 36,60 Q 3.5,45.5 11,71 Q 57.5,74.0 32,5" fill="none" stroke="black" stroke-width="2" /><path d="M 166,74 Q 62.0,61.0 30,120 Q -2.5,167.5 53,127 Q 107.5,145.0 120,121 Q 129.5,32.0 45,37" fill="none" stroke="black" stroke-width="2" /></g></svg>