<?xml version="1.0" encoding="utf-8" ?>
<svg baseProfile="full" height="210mm" version="1.1" viewBox="0 0 297 210" width="297mm" xmlns="http://www.w3.org/2000/svg" xmlns:ev="http://www.w3.org/2001/xml-events" xmlns:xlink="http://www.w3.org/1999/xlink"><defs /><g transform="translate(43,30)"><path d="M 144,13 Q 78.0,10.0 64,59 Q 104.0,81.0 80,39 Q 51.0,121.0 96,129 Q 168.5,122.0 163,37" fill="none" stroke="black" stroke-width="2" /><path d="M 24,79 Q -14.5,71.0 11,127 Q 58.5,109.5 24,10 Q -33.0,-21.0 8,46 Q 9.5,126.0 81,136" fill="none" stroke="black" stroke-width="2" /><path d="M 195,15 Q 99.5,2.0 78,63 Q 167.0,77.0 210,45 Q 219.0,2.5 148,40 Q 60.5,20.5 27,55" fill="none" stroke="black" stroke-width="2" /><path d="M 118,60 Q 88.0,32.0 58,60 Q 150.0,89.0 182,58 Q 171.5,19.5 91,51 Q 47.0,52.5 45,96" fill="none" stroke="black" stroke-width="2" /></g></svg>