<?xml version="1.0" encoding="utf-8" ?>
<svg baseProfile="full" height="210mm" version="1.1" viewBox="0 0 297 210" width="297mm" xmlns="http://www.w3.org/2000/svg" xmlns:ev="http://www.w3.org/2001/xml-events" xmlns:xlink="http://www.w3.org/1999/xlink"><defs /><g transform="translate(43,30)"><path d="M 115,79 Q 110.0,133.5 205,88 Q 87.5,65.0 18,90 Q 68.0,136.0 206,94 Q 107.0,83.0 50,114" fill="none" stroke="black" stroke-width="2" /><path d="M 110,60 Q 121.0,-5.5 52,9 Q 5.5,32.5 29,126 Q 153.0,153.0 189,92 Q 140.5,26.5 32,21" fill="none" stroke="black" stroke-width="2" /><path d="M 175,49 Q 87.0,21.5 75,70 Q 98.0,3.0 45,12 Q 42.0,112.5 125,127 Q 93.0,104.0 115,135" fill="none" stroke="black" stroke-width="2" /><path d="M 83,58 Q 18.5,49.0 22,108 Q 90.0,133.5 206,111 Q 181.5,27.5 79,22 Q 24.0,-10.5 55,43" fill="none" stroke="black" stroke-width="2" /></g></svg>