<?xml version="1.0" encoding="utf-8" ?>
<svg baseProfile="full" height="210mm" version="1.1" viewBox="0 0 297 210" width="297mm" xmlns="http://www.w3.org/2000/svg" xmlns:ev="http://www.w3.org/2001/xml-events" xmlns:xlink="http://www.w3.org/1999/xlink"><defs /><g transform="translate(43,30)"><path d="M 2,118 Q 102.0,88.5 154,11 Q 65.0,-17.5 40,18 Q 45.5,115.0 149,114 Q 167.5,83.5 136,103" fill="none" stroke="black" stroke-width="2" /><path d="M 141,127 Q 119.0,69.5 3,106 Q 88.0,116.0 73,26 Q 148.5,73.0 128,24 Q 98.0,36.5 114,95" fill="none" stroke="black" stroke-width="2" /><path d="M 84,117 Q 192.0,142.0 202,69 Q 184.5,16.5 85,46 Q 59.5,100.0 108,80 Q 175.0,74.5 180,7" fill="none" stroke="black" stroke-width="2" /><path d="M 47,118 Q 64.0,71.0 33,72 Q 39.0,118.5 95,115 Q 161.0,107.5 141,14 Q 109.0,-5.5 133,31" fill="none" stroke="black" stroke-width="2" /></g></svg>