<?xml version="1.0" encoding="utf-8" ?>
<svg baseProfile="full" height="210mm" version="1.1" viewBox="0 0 297 210" width="297mm" xmlns="http://www.w3.org/2000/svg" xmlns:ev="http://www.w3.org/2001/xml-events" xmlns:xlink="http://www.w3.org/1999/xlink"><defs /><g transform="translate(43,30)"><path d="M 91,55 Q 35.0,62.0 41,131 Q 74.0,22.5 19,2 Q 7.0,112.5 85,133 Q 173.0,111.0 185,13" fill="none" stroke="black" stroke-width="2" /><path d="M 145,57 Q 62.5,44.5 40,92 Q 110.5,96.0 95,14 Q 103.5,57.5 158,55 Q 153.0,127.5 200,148" fill="none" stroke="black" stroke-width="2" /><path d="M 30,22 Q 53.0,89.0 160,72 Q 143.5,116.5 179,109 Q 230.0,111.5 199,32 Q 151.5,-15.5 22,19" fill="none" stroke="black" stroke-width="2" /><path d="M 77,139 Q 172.5,126.5 192,38 Q 161.5,18.5 187,55 Q 118.0,68.0 103,135 Q 172.0,130.0 177,61" fill="none" stroke="black" stroke-width="2" /></g></svg>