<?xml version="1.0" encoding="utf-8" ?>
<svg baseProfile="full" height="210mm" version="1.1" viewBox="0 0 297 210" width="297mm" xmlns="http://www.w3.org/2000/svg" xmlns:ev="http://www.w3.org/2001/xml-events" xmlns:xlink="http://www.w3.org/1999/xlink"><defs /><g transform="translate(43,30)"><path d="M 155,51 Q 132.5,91.5 160,82 Q 115.0,80.5 128,137 Q 172.5,128.0 137,39 Q 48.0,28.0 23,81" fill="none" stroke="black" stroke-width="2" /><path d="M 113,43 Q 170.5,67.5 164,28 Q 98.5,11.0 73,34 Q 161.5,53.0 198,20 Q 99.0,15.5 48,59" fill="none" stroke="black" stroke-width="2" /><path d="M 181,54 Q 193.5,12.0 154,22 Q 142.5,106.0 179,142 Q 125.0,88.0 7,98 Q 35.0,138.0 139,102" fill="none" stroke="black" stroke-width="2" /><path d="M 133,55 Q 178.0,73.0 171,39 Q 137.0,-20.5 21,2 Q 7.5,104.0 80,120 Q 154.0,98.0 172,20" fill="none" stroke="black" stroke-width="2" /></g></svg>