<?xml version="1.0" encoding="utf-8" ?>
<svg baseProfile="full" height="210mm" version="1.1" viewBox="0 0 297 210" width="297mm" xmlns="http://www.w3.org/2000/svg" xmlns:ev="http://www.w3.org/2001/xml-events" xmlns:xlink="http://www.w3.org/1999/xlink"><defs /><g transform="translate(43,30)"><path d="M 125,13 Q 98.5,2.5 112,32 Q 117.0,61.5 174,39 Q 118.0,5.0 12,21 Q 8.5,77.5 67,72" fill="none" stroke="black" stroke-width="2" /><path d="M 89,141 Q 150.5,138.5 128,52 Q 121.5,1.5 45,21 Q 89.5,56.5 184,42 Q 187.5,18.5 149,37" fill="none" stroke="black" stroke-width="2" /><path d="M 36,142 Q 131.0,154.5 154,95 Q 182.5,112.5 157,76 Q 131.5,31.5 52,41 Q 8.5,44.5 43,126" fill="none" stroke="black" stroke-width="2" /><path d="M 123,96 Q 170.5,113.0 154,66 Q 141.5,5.5 55,19 Q 26.0,105.0 93,95 Q 106.5,30.5 58,28" fill="none" stroke="black" stroke-width="2" /></g></svg>