<?xml version="1.0" encoding="utf-8" ?>
<svg baseProfile="full" height="210mm" version="1.1" viewBox="0 0 297 210" width="297mm" xmlns="http://www.w3.org/2000/svg" xmlns:ev="http://www.w3.org/2001/xml-events" xmlns:xlink="http://www.w3.org/1999/xlink"><defs /><g transform="translate(43,30)"><path d="M 125,68 Q 82.0,58.0 91,100 Q 136.0,85.5 141,31 Q 56.5,33.5 36,100 Q 83.5,148.0 187,140" fill="none" stroke="black" stroke-width="2" /><path d="M 170,8 Q 117.5,13.0 135,88 Q 113.5,46.0 24,72 Q 14.5,132.0 67,130 Q 102.0,169.5 205,141" fill="none" stroke="black" stroke-width="2" /><path d="M 112,109 Q 198.0,153.5 190,104 Q 132.0,25.5 16,5 Q -1.5,85.5 69,78 Q 24.0,63.5 39,109" fill="none" stroke="black" stroke-width="2" /><path d="M 172,40 Q 71.5,26.0 69,110 Q 64.5,72.5 0,95 Q 31.0,163.0 156,137 Q 164.0,80.5 110,86" fill="none" stroke="black" stroke-width="2" /></g></svg>