<?xml version="1.0" encoding="utf-8" ?>
<svg baseProfile="full" height="210mm" version="1.1" viewBox="0 0 297 210" width="297mm" xmlns="http://www.w3.org/2000/svg" xmlns:ev="http://www.w3.org/2001/xml-events" xmlns:xlink="http://www.w3.org/1999/xlink"><defs /><g transform="translate(43,30)"><path d="M 53,43 Q 85.5,76.5 164,64 Q 173.0,8.5 116,19 Q 32.0,6.0 0,45 Q 60.0,91.0 200,57" fill="none" stroke="black" stroke-width="2" /><path d="M 113,53 Q 159.5,-18.0 112,5 Q 153.5,-39.5 111,0 Q 82.0,98.5 141,109 Q 172.0,27.5 125,24" fill="none" stroke="black" stroke-width="2" /><path d="M 208,83 Q 211.0,22.5 140,36 Q 44.0,-3.5 42,51 Q 2.5,47.0 17,97 Q 49.5,128.5 142,100" fill="none" stroke="black" stroke-width="2" /><path d="M 70,106 Q 100.0,82.5 88,17 Q 45.0,116.0 96,121 Q 147.5,142.5 135,100 Q 120.5,157.0 180,140" fill="none" stroke="black" stroke-width="2" /></g></svg>