<?xml version="1.0" encoding="utf-8" ?>
<svg baseProfile="full" height="210mm" version="1.1" viewBox="0 0 297 210" width="297mm" xmlns="http://www.w3.org/2000/svg" xmlns:ev="http://www.w3.org/2001/xml-events" xmlns:xlink="http://www.w3.org/1999/xlink"><defs /><g transform="translate(43,30)"><path d="M 204,68 Q 201.0,25.0 116,64 Q 127.0,113.5 190,111 Q 209.0,48.5 152,62 Q 133.5,115.5 177,107" fill="none" stroke="black" stroke-width="2" /><path d="M 175,3 Q 121.0,22.5 131,106 Q 112.5,137.0 138,124 Q 194.5,143.5 179,91 Q 123.0,51.0 67,91" fill="none" stroke="black" stroke-width="2" /><path d="M 14,40 Q 95.5,72.5 85,13 Q 155.0,53.5 131,0 Q 110.0,35.5 137,23 Q 119.5,72.5 182,42" fill="none" stroke="black" stroke-width="2" /><path d="M 79,117 Q 110.5,102.5 98,44 Q 43.5,50.0 53,120 Q 133.0,128.5 137,61 Q 138.0,-9.0 59,1" fill="none" stroke="black" stroke-width="2" /></g></svg>