<?xml version="1.0" encoding="utf-8" ?>
<svg baseProfile="full" height="210mm" version="1.1" viewBox="0 0 297 210" width="297mm" xmlns="http://www.w3.org/2000/svg" xmlns:ev="http://www.w3.org/2001/xml-events" xmlns:xlink="http://www.w3.org/1999/xlink"><defs /><g transform="translate(43,30)"><path d="M 91,99 Q 145.0,98.5 149,48 Q 123.5,92.0 162,72 Q 212.5,113.5 175,67 Q 119.0,16.0 21,7" fill="none" stroke="black" stroke-width="2" /><path d="M 18,7 Q -10.5,43.0 25,15 Q 54.0,56.5 127,54 Q 125.5,109.5 196,93 Q 148.0,83.0 160,133" fill="none" stroke="black" stroke-width="2" /><path d="M 61,16 Q 83.5,-36.0 12,6 Q 70.0,54.5 192,39 Q 211.0,-4.0 152,31 Q 75.5,42.5 61,116" fill="none" stroke="black" stroke-width="2" /><path d="M 59,53 Q 108.0,86.5 85,48 Q 87.5,115.5 166,107 Q 173.0,52.0 94,83 Q 113.5,113.0 191,85" fill="none" stroke="black" stroke-width="2" /></g></svg>