<?xml version="1.0" encoding="utf-8" ?>
<svg baseProfile="full" height="210mm" version="1.1" viewBox="0 0 297 210" width="297mm" xmlns="http://www.w3.org/2000/svg" xmlns:ev="http://www.w3.org/2001/xml-events" xmlns:xlink="http://www.w3.org/1999/xlink"><defs /><g transform="translate(43,30)"><path d="M 140,122 Q 129.5,40.0 23,54 Q -4.0,111.0 55,82 Q 168.0,125.5 185,73 Q 234.5,118.5 188,68" fill="none" stroke="black" stroke-width="2" /><path d="M 168,49 Q 117.0,21.0 126,53 Q 126.0,20.5 80,34 Q 32.0,107.5 84,81 Q 14.0,51.5 16,94" fill="none" stroke="black" stroke-width="2" /><path d="M 183,29 Q 94.0,1.0 5,29 Q 45.5,77.0 138,73 Q 144.0,109.5 208,88 Q 77.0,71.0 8,116" fill="none" stroke="black" stroke-width="2" /><path d="M 177,103 Q 212.0,112.0 199,73 Q 96.0,61.0 77,133 Q 112.5,147.0 106,119 Q 106.0,157.0 170,131" fill="none" stroke="black" stroke-width="2" /></g></svg>