<?xml version="1.0" encoding="utf-8" ?>
<svg baseProfile="full" height="210mm" version="1.1" viewBox="0 0 297 210" width="297mm" xmlns="http://www.w3.org/2000/svg" xmlns:ev="http://www.w3.org/2001/xml-events" xmlns:xlink="http://www.w3.org/1999/xlink"><defs /><g transform="translate(43,30)"><path d="M 14,116 Q 120.0,148.0 144,98 Q 180.5,120.0 153,78 Q 116.5,56.5 152,107 Q 59.0,95.0 14,131" fill="none" stroke="black" stroke-width="2" /><path d="M 37,90 Q 70.0,80.0 39,6 Q 75.0,68.5 203,39 Q 118.0,20.5 119,88 Q 104.0,29.0 35,24" fill="none" stroke="black" stroke-width="2" /><path d="M 167,18 Q 126.0,7.0 153,64 Q 58.5,44.0 48,108 Q 108.0,91.0 108,14 Q 33.0,8.0 22,66" fill="none" stroke="black" stroke-width="2" /><path d="M 185,9 Q 131.5,7.0 142,69 Q 105.5,56.5 117,92 Q 43.0,67.0 67,140 Q 73.5,68.0 20,56" fill="none" stroke="black" stroke-width="2" /></g></svg>