<?xml version="1.0" encoding="utf-8" ?>
<svg baseProfile="full" height="210mm" version="1.1" viewBox="0 0 297 210" width="297mm" xmlns="http://www.w3.org/2000/svg" xmlns:ev="http://www.w3.org/2001/xml-events" xmlns:xlink="http://www.w3.org/1999/xlink"><defs /><g transform="translate(43,30)"><path d="M 69,48 Q 12.5,18.0 20,52 Q 80.0,79.5 180,67 Q 95.0,68.5 84,144 Q 76.5,84.5 19,75" fill="none" stroke="black" stroke-width="2" /><path d="M 1,63 Q 76.5,92.5 206,68 Q 172.5,72.5 195,133 Q 184.0,59.5 115,44 Q 184.0,72.0 179,26" fill="none" stroke="black" stroke-width="2" /><path d="M 2,48 Q 12.5,134.0 101,142 Q 137.0,185.0 173,142 Q 168.5,61.5 80,65 Q 144.0,73.5 132,6" fill="none" stroke="black" stroke-width="2" /><path d="M 19,13 Q 14.0,54.0 89,15 Q 19.5,-19.5 48,44 Q -6.0,27.5 4,75 Q 27.5,121.5 115,104" fill="none" stroke="black" stroke-width="2" /></g></svg>