<?xml version="1.0" encoding="utf-8" ?>
<svg baseProfile="full" height="210mm" version="1.1" viewBox="0 0 297 210" width="297mm" xmlns="http://www.w3.org/2000/svg" xmlns:ev="http://www.w3.org/2001/xml-events" xmlns:xlink="http://www.w3.org/1999/xlink"><defs /><g transform="translate(43,30)"><path d="M 35,73 Q 17.5,128.5 58,126 Q 110.0,163.0 70,108 Q 88.0,65.5 48,81 Q 120.0,109.0 124,69" fill="none" stroke="black" stroke-width="2" /><path d="M 51,141 Q 131.0,182.0 123,135 Q 186.0,142.0 179,79 Q 84.0,69.5 41,112 Q 130.0,116.5 173,75" fill="none" stroke="black" stroke-width="2" /><path d="M 190,39 Q 86.0,56.5 24,116 Q 80.5,144.5 181,129 Q 220.5,81.0 178,115 Q 193.5,43.0 111,69" fill="none" stroke="black" stroke-width="2" /><path d="M 152,131 Q 147.5,93.5 101,98 Q 143.0,97.0 139,50 Q 27.0,27.5 7,97 Q 137.0,111.0 185,43" fill="none" stroke="black" stroke-width="2" /></g></svg>