<?xml version="1.0" encoding="utf-8" ?>
<svg baseProfile="full" height="210mm" version="1.1" viewBox="0 0 297 210" width="297mm" xmlns="http://www.w3.org/2000/svg" xmlns:ev="http://www.w3.org/2001/xml-events" xmlns:xlink="http://www.w3.org/1999/xlink"><defs /><g transform="translate(43,30)"><path d="M 77,38 Q 95.0,83.5 157,85 Q 162.0,26.5 79,56 Q 105.0,101.0 193,84 Q 98.0,78.0 69,138" fill="none" stroke="black" stroke-width="2" /><path d="M 78,111 Q 112.0,23.5 52,30 Q -22.0,-4.0 4,62 Q 19.0,135.5 100,143 Q 186.0,138.0 172,33" fill="none" stroke="black" stroke-width="2" /><path d="M 104,77 Q 61.5,58.5 79,100 Q 179.5,123.5 190,57 Q 139.5,38.5 149,80 Q 163.5,25.5 98,51" fill="none" stroke="black" stroke-width="2" /><path d="M 88,67 Q 101.0,118.0 200,83 Q 165.0,50.0 84,63 Q 86.5,-3.5 9,10 Q 0.0,121.0 89,134" fill="none" stroke="black" stroke-width="2" /></g></svg>