<?xml version="1.0" encoding="utf-8" ?>
<svg baseProfile="full" height="210mm" version="1.1" viewBox="0 0 297 210" width="297mm" xmlns="http://www.w3.org/2000/svg" xmlns:ev="http://www.w3.org/2001/xml-events" xmlns:xlink="http://www.w3.org/1999/xlink"><defs /><g transform="translate(43,30)"><path d="M 20,4 Q 93.5,51.0 71,2 Q 92.0,41.5 165,29 Q 159.5,-9.0 80,27 Q 35.5,12.5 33,40" fill="none" stroke="black" stroke-width="2" /><path d="M 17,88 Q 92.0,85.0 123,38 Q 13.0,-10.0 3,42 Q 88.5,72.5 108,37 Q 121.0,107.5 202,110" fill="none" stroke="black" stroke-width="2" /><path d="M 43,7 Q 18.0,93.5 75,98 Q 161.0,110.0 189,64 Q 215.0,9.5 159,37 Q 90.5,31.0 118,121" fill="none" stroke="black" stroke-width="2" /><path d="M 120,30 Q 125.5,-29.0 39,4 Q 77.0,46.0 171,32 Q 106.5,27.5 86,67 Q 94.0,125.0 190,95" fill="none" stroke="black" stroke-width="2" /></g></svg>