<?xml version="1.0" encoding="utf-8" ?>
<svg baseProfile="full" height="210mm" version="1.1" viewBox="0 0 297 210" width="297mm" xmlns="http://www.w3.org/2000/svg" xmlns:ev="http://www.w3.org/2001/xml-events" xmlns:xlink="http://www.w3.org/1999/xlink"><defs /><g transform="translate(43,30)"><path d="M 46,117 Q 22.5,150.5 49,134 Q 92.0,129.0 59,48 Q 114.0,67.5 87,5 Q 89.0,99.5 137,148" fill="none" stroke="black" stroke-width="2" /><path d="M 79,107 Q 29.0,80.5 41,116 Q -26.5,81.5 6,147 Q 58.5,138.5 63,82 Q 80.5,13.0 14,28" fill="none" stroke="black" stroke-width="2" /><path d="M 171,83 Q 127.0,81.5 151,148 Q 209.0,118.0 179,0 Q 99.5,34.0 66,114 Q 106.5,31.5 47,49" fill="none" stroke="black" stroke-width="2" /><path d="M 12,133 Q 101.0,131.5 104,44 Q 125.0,97.5 190,107 Q 197.0,6.5 106,4 Q 37.0,-14.0 16,16" fill="none" stroke="black" stroke-width="2" /></g></svg>