<?xml version="1.0" encoding="utf-8" ?>
<svg baseProfile="full" height="210mm" version="1.1" viewBox="0 0 297 210" width="297mm" xmlns="http://www.w3.org/2000/svg" xmlns:ev="http://www.w3.org/2001/xml-events" xmlns:xlink="http://www.w3.org/1999/xlink"><defs /><g transform="translate(43,30)"><path d="M 51,49 Q 73.0,-9.5 1,26 Q 120.5,48.5 190,21 Q 232.5,58.0 195,15 Q 129.5,31.5 110,94" fill="none" stroke="black" stroke-width="2" /><path d="M 112,120 Q 74.5,108.0 77,136 Q 139.5,161.5 112,97 Q 43.0,85.5 36,136 Q 97.5,154.0 69,82" fill="none" stroke="black" stroke-width="2" /><path d="M 90,77 Q 147.5,102.0 141,63 Q 178.5,-2.0 120,29 Q 86.0,53.5 98,124 Q 94.0,30.0 18,8" fill="none" stroke="black" stroke-width="2" /><path d="M 41,62 Q 98.0,65.0 105,18 Q 27.5,-9.5 50,63 Q 63.0,11.5 24,12 Q -9.5,31.0 15,108" fill="none" stroke="black" stroke-width="2" /></g></svg>