<?xml version="1.0" encoding="utf-8" ?>
<svg baseProfile="full" height="210mm" version="1.1" viewBox="0 0 297 210" width="297mm" xmlns="http://www.w3.org/2000/svg" xmlns:ev="http://www.w3.org/2001/xml-events" xmlns:xlink="http://www.w3.org/1999/xlink"><defs /><g transform="translate(43,30)"><path d="M 101,100 Q 81.5,142.5 146,101 Q 52.0,85.5 32,144 Q 86.0,160.0 60,96 Q 156.0,113.0 156,34" fill="none" stroke="black" stroke-width="2" /><path d="M 139,144 Q 159.5,77.0 86,104 Q 155.0,115.0 154,56 Q 118.5,39.0 135,74 Q 199.5,116.5 178,73" fill="none" stroke="black" stroke-width="2" /><path d="M 168,82 Q 197.0,6.0 128,28 Q 85.0,16.5 92,55 Q 66.0,124.0 124,109 Q 163.5,140.5 133,102" fill="none" stroke="black" stroke-width="2" /><path d="M 198,7 Q 170.0,-13.0 184,9 Q 139.0,-20.5 182,38 Q 71.0,45.0 8,100 Q 12.0,153.5 76,147" fill="none" stroke="black" stroke-width="2" /></g></svg>