<?xml version="1.0" encoding="utf-8" ?>
<svg baseProfile="full" height="210mm" version="1.1" viewBox="0 0 297 210" width="297mm" xmlns="http://www.w3.org/2000/svg" xmlns:ev="http://www.w3.org/2001/xml-events" xmlns:xlink="http://www.w3.org/1999/xlink"><defs /><g transform="translate(43,30)"><path d="M 29,130 Q 87.5,116.0 68,24 Q 4.0,47.5 10,141 Q 85.0,190.0 160,141 Q 135.0,46.5 22,40" fill="none" stroke="black" stroke-width="2" /><path d="M 170,18 Q 99.5,-7.5 103,41 Q 34.0,30.5 35,90 Q 68.0,143.5 165,133 Q 119.0,73.0 15,71" fill="none" stroke="black" stroke-width="2" /><path d="M 129,118 Q 144.0,75.5 93,99 Q 102.5,34.0 20,61 Q -5.5,71.5 15,128 Q 96.0,116.5 105,33" fill="none" stroke="black" stroke-width="2" /><path d="M 158,93 Q 218.0,100.0 194,23 Q 129.0,55.0 120,143 Q 86.5,60.5 13,18 Q 76.0,36.0 95,10" fill="none" stroke="black" stroke-width="2" /></g></svg>