<?xml version="1.0" encoding="utf-8" ?>
<svg baseProfile="full" height="210mm" version="1.1" viewBox="0 0 297 210" width="297mm" xmlns="http://www.w3.org/2000/svg" xmlns:ev="http://www.w3.org/2001/xml-events" xmlns:xlink="http://www.w3.org/1999/xlink"><defs /><g transform="translate(43,30)"><path d="M 35,41 Q 147.5,57.5 196,10 Q 66.0,13.0 24,104 Q 110.0,90.5 132,13 Q 133.5,82.5 201,86" fill="none" stroke="black" stroke-width="2" /><path d="M 208,127 Q 176.5,90.0 85,113 Q 63.0,161.5 111,140 Q 147.5,124.0 142,66 Q 186.0,84.0 180,52" fill="none" stroke="black" stroke-width="2" /><path d="M 26,13 Q 42.0,105.5 150,106 Q 113.5,88.5 143,137 Q 120.0,73.0 57,49 Q 19.5,89.5 58,54" fill="none" stroke="black" stroke-width="2" /><path d="M 17,134 Q 67.5,99.5 76,23 Q 79.0,65.5 156,34 Q 106.0,-11.5 154,41 Q 99.5,24.0 97,59" fill="none" stroke="black" stroke-width="2" /></g></svg>