<?xml version="1.0" encoding="utf-8" ?>
<svg baseProfile="full" height="210mm" version="1.1" viewBox="0 0 297 210" width="297mm" xmlns="http://www.w3.org/2000/svg" xmlns:ev="http://www.w3.org/2001/xml-events" xmlns:xlink="http://www.w3.org/1999/xlink"><defs /><g transform="translate(43,30)"><path d="M 125,103 Q 146.5,19.0 96,7 Q 77.5,66.0 125,59 Q 145.5,23.5 96,58 Q 80.5,126.0 129,130" fill="none" stroke="black" stroke-width="2" /><path d="M 102,3 Q 75.5,-16.5 93,8 Q 18.0,-9.0 15,46 Q 6.5,127.0 68,138 Q 90.0,82.5 46,93" fill="none" stroke="black" stroke-width="2" /><path d="M 8,124 Q 80.0,116.0 58,14 Q 83.0,112.0 190,128 Q 157.5,46.5 67,23 Q 90.5,73.5 178,60" fill="none" stroke="black" stroke-width="2" /><path d="M 84,30 Q 13.0,25.5 18,97 Q 78.5,129.5 189,112 Q 152.5,73.0 66,84 Q 137.5,66.5 161,1" fill="none" stroke="black" stroke-width="2" /></g></svg>