<?xml version="1.0" encoding="utf-8" ?>
<svg baseProfile="full" height="210mm" version="1.1" viewBox="0 0 297 210" width="297mm" xmlns="http://www.w3.org/2000/svg" xmlns:ev="http://www.w3.org/2001/xml-events" xmlns:xlink="http://www.w3.org/1999/xlink"><defs /><g transform="translate(43,30)"><path d="M 146,134 Q 192.0,52.5 140,69 Q 62.5,48.5 39,82 Q 166.5,103.5 198,29 Q 80.5,45.5 23,122" fill="none" stroke="black" stroke-width="2" /><path d="M 65,82 Q 22.0,146.5 73,117 Q 43.0,107.5 63,148 Q 159.5,174.0 194,138 Q 207.0,89.5 146,115" fill="none" stroke="black" stroke-width="2" /><path d="M 133,47 Q 58.5,43.0 24,79 Q 71.0,120.5 178,102 Q 148.0,108.5 178,115 Q 139.5,60.5 35,72" fill="none" stroke="black" stroke-width="2" /><path d="M 183,125 Q 175.0,56.5 87,68 Q 146.0,105.0 105,42 Q 72.0,46.5 93,105 Q 98.0,159.0 183,133" fill="none" stroke="black" stroke-width="2" /></g></svg>