<?xml version="1.0" encoding="utf-8" ?>
<svg baseProfile="full" height="210mm" version="1.1" viewBox="0 0 297 210" width="297mm" xmlns="http://www.w3.org/2000/svg" xmlns:ev="http://www.w3.org/2001/xml-events" xmlns:xlink="http://www.w3.org/1999/xlink"><defs /><g transform="translate(43,30)"><path d="M 24,64 Q 54.0,61.0 38,12 Q 19.0,84.5 100,57 Q 60.5,74.5 77,148 Q 152.0,165.0 167,122" fill="none" stroke="black" stroke-width="2" /><path d="M 68,135 Q 148.0,115.5 160,28 Q 114.5,-15.0 157,30 Q 223.0,71.0 199,22 Q 120.0,11.5 107,67" fill="none" stroke="black" stroke-width="2" /><path d="M 191,113 Q 215.0,28.5 155,28 Q 121.5,92.0 160,84 Q 205.0,98.5 168,31 Q 57.0,-2.0 20,39" fill="none" stroke="black" stroke-width="2" /><path d="M 6,135 Q 112.0,174.0 122,117 Q 105.0,49.0 46,23 Q 75.5,99.5 185,96 Q 209.5,10.5 138,21" fill="none" stroke="black" stroke-width="2" /></g></svg>