<?xml version="1.0" encoding="utf-8" ?>
<svg baseProfile="full" height="210mm" version="1.1" viewBox="0 0 297 210" width="297mm" xmlns="http://www.w3.org/2000/svg" xmlns:ev="http://www.w3.org/2001/xml-events" xmlns:xlink="http://www.w3.org/1999/xlink"><defs /><g transform="translate(43,30)"><path d="M 18,139 Q 76.5,113.0 89,41 Q 94.0,-20.0 17,1 Q -3.5,75.0 74,51 Q 87.5,1.0 29,23" fill="none" stroke="black" stroke-width="2" /><path d="M 165,79 Q 77.0,79.0 37,127 Q 107.0,96.5 117,6 Q 73.5,122.5 126,143 Q 94.0,85.5 6,84" fill="none" stroke="black" stroke-width="2" /><path d="M 78,83 Q 111.5,124.5 209,102 Q 75.5,74.0 12,116 Q 134.0,95.0 188,6 Q 119.5,7.5 95,53" fill="none" stroke="black" stroke-width="2" /><path d="M 95,70 Q 159.5,76.5 154,13 Q 116.5,20.0 127,75 Q 84.5,53.5 86,76 Q 133.5,90.5 91,15" fill="none" stroke="black" stroke-width="2" /></g></svg>