<?xml version="1.0" encoding="utf-8" ?>
<svg baseProfile="full" height="210mm" version="1.1" viewBox="0 0 297 210" width="297mm" xmlns="http://www.w3.org/2000/svg" xmlns:ev="http://www.w3.org/2001/xml-events" xmlns:xlink="http://www.w3.org/1999/xlink"><defs /><g transform="translate(43,30)"><path d="M 165,71 Q 216.0,116.5 175,70 Q 130.5,20.5 22,35 Q 11.0,119.5 56,148 Q 122.5,149.0 113,74" fill="none" stroke="black" stroke-width="2" /><path d="M 141,61 Q 109.5,139.5 170,126 Q 168.5,82.5 99,107 Q 137.5,147.0 176,107 Q 154.0,11.5 38,10" fill="none" stroke="black" stroke-width="2" /><path d="M 199,141 Q 142.0,79.5 29,74 Q 53.5,115.5 120,115 Q 189.5,111.0 179,27 Q 173.5,-17.0 100,7" fill="none" stroke="black" stroke-width="2" /><path d="M 130,35 Q 108.5,95.5 149,94 Q 125.0,157.5 199,123 Q 214.5,28.0 140,23 Q 97.5,37.5 131,128" fill="none" stroke="black" stroke-width="2" /></g></svg>