<?xml version="1.0" encoding="utf-8" ?>
<svg baseProfile="full" height="210mm" version="1.1" viewBox="0 0 297 210" width="297mm" xmlns="http://www.w3.org/2000/svg" xmlns:ev="http://www.w3.org/2001/xml-events" xmlns:xlink="http://www.w3.org/1999/xlink"><defs /><g transform="translate(43,30)"><path d="M 126,145 Q 108.5,93.5 15,118 Q -11.5,157.5 18,141 Q 96.5,142.0 83,51 Q 14.5,36.0 16,91" fill="none" stroke="black" stroke-width="2" /><path d="M 17,97 Q 126.5,102.5 164,36 Q 67.0,48.0 56,146 Q 162.5,118.0 183,4 Q 124.0,-26.0 7,2" fill="none" stroke="black" stroke-width="2" /><path d="M 85,135 Q 176.5,160.0 170,87 Q 134.5,44.0 47,53 Q 5.0,45.0 27,101 Q 112.5,103.5 116,24" fill="none" stroke="black" stroke-width="2" /><path d="M 35,99 Q -28.0,57.5 3,110 Q 123.5,134.0 186,100 Q 214.0,34.5 178,33 Q 128.5,53.0 143,137" fill="none" stroke="black" stroke-width="2" /></g></svg>