<?xml version="1.0" encoding="utf-8" ?>
<svg baseProfile="full" height="210mm" version="1.1" viewBox="0 0 297 210" width="297mm" xmlns="http://www.w3.org/2000/svg" xmlns:ev="http://www.w3.org/2001/xml-events" xmlns:xlink="http://www.w3.org/1999/xlink"><defs /><g transform="translate(43,30)"><path d="M 150,134 Q 192.0,111.5 174,29 Q 159.0,109.0 194,139 Q 121.5,80.5 3,68 Q 34.0,148.0 153,140" fill="none" stroke="black" stroke-width="2" /><path d="M 102,138 Q 97.5,100.5 49,107 Q 152.0,103.5 207,52 Q 141.0,8.0 13,26 Q 20.5,88.5 82,97" fill="none" stroke="black" stroke-width="2" /><path d="M 47,35 Q 172.5,70.0 200,7 Q 147.0,12.5 142,66 Q 113.0,151.5 184,137 Q 156.0,64.0 44,75" fill="none" stroke="black" stroke-width="2" /><path d="M 70,141 Q 136.5,156.0 155,123 Q 122.5,82.0 10,121 Q 86.0,125.5 64,32 Q 91.5,98.0 203,80" fill="none" stroke="black" stroke-width="2" /></g></svg>