<?xml version="1.0" encoding="utf-8" ?>
<svg baseProfile="full" height="210mm" version="1.1" viewBox="0 0 297 210" width="297mm" xmlns="http://www.w3.org/2000/svg" xmlns:ev="http://www.w3.org/2001/xml-events" xmlns:xlink="http://www.w3.org/1999/xlink"><defs /><g transform="translate(43,30)"><path d="M 183,90 Q 90.5,57.5 84,111 Q 75.5,58.5 11,62 Q -15.5,142.5 48,133 Q 64.5,88.0 3,121" fill="none" stroke="black" stroke-width="2" /><path d="M 25,89 Q 86.0,127.0 69,87 Q 89.5,141.5 162,144 Q 186.0,68.0 146,56 Q 47.5,27.5 47,97" fill="none" stroke="black" stroke-width="2" /><path d="M 93,58 Q 12.0,53.0 27,144 Q 151.5,159.0 210,108 Q 80.5,94.5 7,137 Q 72.0,101.5 91,20" fill="none" stroke="black" stroke-width="2" /><path d="M 185,114 Q 77.0,94.0 21,126 Q 56.0,61.5 1,87 Q 95.0,96.5 101,18 Q 59.5,115.0 108,122" fill="none" stroke="black" stroke-width="2" /></g></svg>