<?xml version="1.0" encoding="utf-8" ?>
<svg baseProfile="full" height="210mm" version="1.1" viewBox="0 0 297 210" width="297mm" xmlns="http://www.w3.org/2000/svg" xmlns:ev="http://www.w3.org/2001/xml-events" xmlns:xlink="http://www.w3.org/1999/xlink"><defs /><g transform="translate(43,30)"><path d="M 171,116 Q 117.5,62.0 6,66 Q 51.5,137.5 161,145 Q 143.0,66.5 27,86 Q -2.5,85.0 12,128" fill="none" stroke="black" stroke-width="2" /><path d="M 0,83 Q 1.5,154.5 93,136 Q 132.5,69.0 72,102 Q 145.0,126.0 150,82 Q 139.0,48.0 74,68" fill="none" stroke="black" stroke-width="2" /><path d="M 10,94 Q -12.5,154.5 65,115 Q 19.5,166.0 66,125 Q 44.5,81.0 23,125 Q 155.0,142.0 205,77" fill="none" stroke="black" stroke-width="2" /><path d="M 103,44 Q 111.5,121.0 192,126 Q 225.0,98.5 200,13 Q 51.0,18.0 2,123 Q 131.5,131.0 201,79" fill="none" stroke="black" stroke-width="2" /></g></svg>