<?xml version="1.0" encoding="utf-8" ?>
<svg baseProfile="full" height="210mm" version="1.1" viewBox="0 0 297 210" width="297mm" xmlns="http://www.w3.org/2000/svg" xmlns:ev="http://www.w3.org/2001/xml-events" xmlns:xlink="http://www.w3.org/1999/xlink"><defs /><g transform="translate(43,30)"><path d="M 5,8 Q 2.0,67.5 53,73 Q 96.5,124.0 202,113 Q 133.0,40.5 8,24 Q 55.5,78.5 175,61" fill="none" stroke="black" stroke-width="2" /><path d="M 96,43 Q 39.5,59.0 55,147 Q 149.0,137.5 197,82 Q 200.5,44.5 148,63 Q 111.5,23.0 27,31" fill="none" stroke="black" stroke-width="2" /><path d="M 96,104 Q 189.5,120.0 209,62 Q 68.0,52.0 3,118 Q 118.0,129.0 173,80 Q 132.0,36.0 37,46" fill="none" stroke="black" stroke-width="2" /><path d="M 6,0 Q 7.0,56.0 72,48 Q 36.0,135.0 86,136 Q 76.0,169.0 130,138 Q 103.5,61.0 29,32" fill="none" stroke="black" stroke-width="2" /></g></svg>