<?xml version="1.0" encoding="utf-8" ?>
<svg baseProfile="full" height="210mm" version="1.1" viewBox="0 0 297 210" width="297mm" xmlns="http://www.w3.org/2000/svg" xmlns:ev="http://www.w3.org/2001/xml-events" xmlns:xlink="http://www.w3.org/1999/xlink"><defs /><g transform="translate(43,30)"><path d="M 86,31 Q 107.0,128.0 210,143 Q 205.5,93.0 139,105 Q 124.0,20.0 35,9 Q 5.5,76.5 58,62" fill="none" stroke="black" stroke-width="2" /><path d="M 38,5 Q -15.5,-26.0 15,27 Q 78.0,93.5 193,108 Q 235.5,107.5 206,35 Q 174.0,124.0 210,145" fill="none" stroke="black" stroke-width="2" /><path d="M 44,127 Q 72.5,55.0 39,45 Q 67.5,63.0 56,41 Q -9.5,40.5 9,124 Q 69.0,170.5 203,143" fill="none" stroke="black" stroke-width="2" /><path d="M 169,67 Q 142.0,19.5 39,48 Q 86.5,47.0 88,0 Q 109.5,46.0 187,36 Q 129.5,2.0 24,16" fill="none" stroke="black" stroke-width="2" /></g></svg>