<?xml version="1.0" encoding="utf-8" ?>
<svg baseProfile="full" height="210mm" version="1.1" viewBox="0 0 297 210" width="297mm" xmlns="http://www.w3.org/2000/svg" xmlns:ev="http://www.w3.org/2001/xml-events" xmlns:xlink="http://www.w3.org/1999/xlink"><defs /><g transform="translate(43,30)"><path d="M 120,91 Q 49.5,60.5 47,98 Q 135.5,95.0 162,30 Q 68.5,26.5 25,73 Q 149.5,110.5 198,72" fill="none" stroke="black" stroke-width="2" /><path d="M 132,91 Q 183.5,119.5 171,84 Q 95.0,92.0 65,146 Q 83.0,98.0 9,142 Q 97.5,97.0 142,8" fill="none" stroke="black" stroke-width="2" /><path d="M 132,136 Q 119.5,74.5 27,93 Q 71.5,104.0 76,75 Q 146.5,69.0 155,1 Q 150.5,44.0 186,47" fill="none" stroke="black" stroke-width="2" /><path d="M 196,124 Q 147.0,93.0 58,102 Q 79.0,40.5 34,45 Q 159.0,65.5 198,0 Q 101.0,5.0 68,74" fill="none" stroke="black" stroke-width="2" /></g></svg>