<?xml version="1.0" encoding="utf-8" ?>
<svg baseProfile="full" height="210mm" version="1.1" viewBox="0 0 297 210" width="297mm" xmlns="http://www.w3.org/2000/svg" xmlns:ev="http://www.w3.org/2001/xml-events" xmlns:xlink="http://www.w3.org/1999/xlink"><defs /><g transform="translate(43,30)"><path d="M 175,72 Q 211.0,65.0 197,8 Q 117.0,-3.5 137,85 Q 151.0,20.5 97,24 Q 78.0,80.0 151,44" fill="none" stroke="black" stroke-width="2" /><path d="M 31,92 Q 122.0,98.0 117,8 Q 71.0,-7.0 95,48 Q 57.5,135.0 104,138 Q 179.0,154.5 176,93" fill="none" stroke="black" stroke-width="2" /><path d="M 7,38 Q -20.0,93.5 35,67 Q 47.5,35.0 4,59 Q 97.0,85.0 100,21 Q 86.0,96.0 164,79" fill="none" stroke="black" stroke-width="2" /><path d="M 23,30 Q -1.5,114.0 44,128 Q 79.0,40.0 18,48 Q 75.5,76.0 51,22 Q -4.5,35.0 32,140" fill="none" stroke="black" stroke-width="2" /></g></svg>