<?xml version="1.0" encoding="utf-8" ?>
<svg baseProfile="full" height="210mm" version="1.1" viewBox="0 0 297 210" width="297mm" xmlns="http://www.w3.org/2000/svg" xmlns:ev="http://www.w3.org/2001/xml-events" xmlns:xlink="http://www.w3.org/1999/xlink"><defs /><g transform="translate(43,30)"><path d="M 39,131 Q 66.5,40.0 10,33 Q 35.0,71.5 102,68 Q 31.0,26.0 60,84 Q 72.0,122.5 134,111" fill="none" stroke="black" stroke-width="2" /><path d="M 1,87 Q -10.0,144.5 55,126 Q 120.0,139.0 103,70 Q 123.5,122.5 188,131 Q 125.5,93.0 23,95" fill="none" stroke="black" stroke-width="2" /><path d="M 145,115 Q 98.0,35.5 7,0 Q 9.5,86.5 82,103 Q 176.5,113.5 181,34 Q 150.5,116.5 196,123" fill="none" stroke="black" stroke-width="2" /><path d="M 118,46 Q 138.0,-7.5 58,39 Q 17.5,87.5 71,42 Q -5.0,14.0 9,76 Q 26.5,121.0 86,124" fill="none" stroke="black" stroke-width="2" /></g></svg>