<?xml version="1.0" encoding="utf-8" ?>
<svg baseProfile="full" height="210mm" version="1.1" viewBox="0 0 297 210" width="297mm" xmlns="http://www.w3.org/2000/svg" xmlns:ev="http://www.w3.org/2001/xml-events" xmlns:xlink="http://www.w3.org/1999/xlink"><defs /><g transform="translate(43,30)"><path d="M 103,58 Q 130.5,12.5 100,25 Q 135.0,48.5 118,20 Q 54.0,31.5 48,101 Q 70.0,163.0 178,139" fill="none" stroke="black" stroke-width="2" /><path d="M 93,56 Q 25.5,81.0 0,148 Q 117.5,155.0 149,76 Q 106.5,77.0 122,136 Q 136.5,67.5 93,57" fill="none" stroke="black" stroke-width="2" /><path d="M 99,26 Q 17.0,41.5 15,137 Q 150.0,116.0 209,19 Q 98.5,55.5 42,146 Q 101.5,127.5 69,17" fill="none" stroke="black" stroke-width="2" /><path d="M 170,73 Q 153.5,13.5 45,46 Q 69.5,112.5 146,127 Q 177.5,69.0 141,79 Q 123.0,44.0 39,75" fill="none" stroke="black" stroke-width="2" /></g></svg>