<?xml version="1.0" encoding="utf-8" ?>
<svg baseProfile="full" height="210mm" version="1.1" viewBox="0 0 297 210" width="297mm" xmlns="http://www.w3.org/2000/svg" xmlns:ev="http://www.w3.org/2001/xml-events" xmlns:xlink="http://www.w3.org/1999/xlink"><defs /><g transform="translate(43,30)"><path d="M 98,101 Q 95.5,26.5 3,42 Q 105.5,65.0 154,34 Q 55.5,3.5 43,59 Q 84.5,56.0 80,7" fill="none" stroke="black" stroke-width="2" /><path d="M 176,138 Q 157.5,65.0 45,86 Q 134.5,102.5 164,59 Q 143.5,122.5 197,112 Q 221.0,60.5 157,97" fill="none" stroke="black" stroke-width="2" /><path d="M 18,9 Q 70.5,69.5 163,90 Q 164.5,50.5 120,57 Q 52.0,49.5 52,110 Q 53.5,72.0 3,86" fill="none" stroke="black" stroke-width="2" /><path d="M 89,7 Q 86.5,93.5 136,128 Q 173.5,161.5 141,125 Q 193.5,141.5 172,84 Q 190.5,24.0 121,52" fill="none" stroke="black" stroke-width="2" /></g></svg>