<?xml version="1.0" encoding="utf-8" ?>
<svg baseProfile="full" height="210mm" version="1.1" viewBox="0 0 297 210" width="297mm" xmlns="http://www.w3.org/2000/svg" xmlns:ev="http://www.w3.org/2001/xml-events" xmlns:xlink="http://www.w3.org/1999/xlink"><defs /><g transform="translate(43,30)"><path d="M 26,133 Q 152.5,178.5 187,132 Q 166.5,29.5 70,3 Q 8.5,14.0 5,83 Q 53.5,149.0 170,147" fill="none" stroke="black" stroke-width="2" /><path d="M 146,77 Q 197.5,77.5 197,26 Q 145.0,33.0 187,134 Q 194.5,68.5 162,43 Q 61.0,38.5 48,122" fill="none" stroke="black" stroke-width="2" /><path d="M 23,40 Q 80.0,86.5 177,93 Q 200.0,26.0 159,23 Q 56.0,48.0 13,133 Q 94.0,140.0 91,63" fill="none" stroke="black" stroke-width="2" /><path d="M 37,78 Q 61.0,128.5 149,115 Q 158.0,21.0 81,13 Q 38.0,1.0 79,73 Q 53.5,113.5 92,90" fill="none" stroke="black" stroke-width="2" /></g></svg>