<?xml version="1.0" encoding="utf-8" ?>
<svg baseProfile="full" height="210mm" version="1.1" viewBox="0 0 297 210" width="297mm" xmlns="http://www.w3.org/2000/svg" xmlns:ev="http://www.w3.org/2001/xml-events" xmlns:xlink="http://www.w3.org/1999/xlink"><defs /><g transform="translate(43,30)"><path d="M 77,32 Q 84.5,4.5 44,25 Q 142.5,51.5 163,0 Q 89.5,46.5 68,145 Q 66.0,83.5 20,66" fill="none" stroke="black" stroke-width="2" /><path d="M 113,127 Q 131.0,36.5 95,0 Q 94.0,72.5 187,51 Q 117.5,38.0 120,97 Q 84.0,88.5 100,132" fill="none" stroke="black" stroke-width="2" /><path d="M 124,65 Q 41.0,20.5 56,74 Q 131.5,102.5 115,39 Q 59.5,41.5 92,132 Q 102.0,42.5 64,1" fill="none" stroke="black" stroke-width="2" /><path d="M 113,148 Q 172.5,99.0 182,0 Q 113.0,-4.5 124,71 Q 178.0,108.0 140,53 Q 65.0,46.5 54,104" fill="none" stroke="black" stroke-width="2" /></g></svg>