<?xml version="1.0" encoding="utf-8" ?>
<svg baseProfile="full" height="210mm" version="1.1" viewBox="0 0 297 210" width="297mm" xmlns="http://www.w3.org/2000/svg" xmlns:ev="http://www.w3.org/2001/xml-events" xmlns:xlink="http://www.w3.org/1999/xlink"><defs /><g transform="translate(43,30)"><path d="M 27,44 Q 72.5,72.5 60,43 Q 142.5,50.0 177,9 Q 123.0,-17.5 149,36 Q 69.5,43.0 64,124" fill="none" stroke="black" stroke-width="2" /><path d="M 13,16 Q 110.5,49.5 134,9 Q 123.0,94.5 166,126 Q 155.5,93.0 97,108 Q 93.0,56.0 45,48" fill="none" stroke="black" stroke-width="2" /><path d="M 156,94 Q 65.5,54.5 73,113 Q 143.0,80.5 173,8 Q 56.5,-24.5 14,17 Q 22.5,45.5 85,20" fill="none" stroke="black" stroke-width="2" /><path d="M 142,112 Q 212.5,99.5 209,13 Q 75.5,9.5 34,98 Q 71.5,34.0 33,46 Q 95.0,71.5 101,41" fill="none" stroke="black" stroke-width="2" /></g></svg>