<?xml version="1.0" encoding="utf-8" ?>
<svg baseProfile="full" height="210mm" version="1.1" viewBox="0 0 297 210" width="297mm" xmlns="http://www.w3.org/2000/svg" xmlns:ev="http://www.w3.org/2001/xml-events" xmlns:xlink="http://www.w3.org/1999/xlink"><defs /><g transform="translate(43,30)"><path d="M 37,5 Q 50.0,29.0 105,11 Q 90.5,66.0 160,37 Q 142.5,5.0 65,33 Q 90.0,89.0 189,71" fill="none" stroke="black" stroke-width="2" /><path d="M 187,145 Q 191.0,30.5 97,14 Q 98.0,58.0 157,44 Q 97.5,52.5 124,147 Q 194.5,170.5 207,136" fill="none" stroke="black" stroke-width="2" /><path d="M 47,43 Q 128.5,57.0 148,9 Q 127.0,68.0 158,75 Q 82.5,56.0 59,89 Q 103.5,114.5 96,88" fill="none" stroke="black" stroke-width="2" /><path d="M 150,119 Q 177.0,71.0 132,95 Q 181.0,95.5 186,52 Q 71.5,48.5 45,133 Q 134.5,153.0 160,109" fill="none" stroke="black" stroke-width="2" /></g></svg>