<?xml version="1.0" encoding="utf-8" ?>
<svg baseProfile="full" height="210mm" version="1.1" viewBox="0 0 297 210" width="297mm" xmlns="http://www.w3.org/2000/svg" xmlns:ev="http://www.w3.org/2001/xml-events" xmlns:xlink="http://www.w3.org/1999/xlink"><defs /><g transform="translate(43,30)"><path d="M 2,80 Q 38.0,94.0 6,40 Q 45.5,103.0 167,84 Q 124.0,33.0 35,28 Q 7.0,90.5 37,95" fill="none" stroke="black" stroke-width="2" /><path d="M 97,101 Q 126.5,112.0 114,81 Q 133.0,44.5 112,48 Q 14.5,14.5 17,81 Q 98.0,89.5 133,52" fill="none" stroke="black" stroke-width="2" /><path d="M 163,110 Q 193.5,57.0 162,66 Q 143.5,30.5 73,47 Q -7.0,43.5 1,128 Q 97.0,122.0 123,46" fill="none" stroke="black" stroke-width="2" /><path d="M 14,8 Q 13.5,105.0 73,142 Q 161.0,141.0 149,40 Q 73.5,27.0 68,84 Q 7.5,71.0 27,138" fill="none" stroke="black" stroke-width="2" /></g></svg>