<?xml version="1.0" encoding="utf-8" ?>
<svg baseProfile="full" height="210mm" version="1.1" viewBox="0 0 297 210" width="297mm" xmlns="http://www.w3.org/2000/svg" xmlns:ev="http://www.w3.org/2001/xml-events" xmlns:xlink="http://www.w3.org/1999/xlink"><defs /><g transform="translate(43,30)"><path d="M 142,112 Q 167.0,33.5 110,37 Q 170.5,50.0 185,17 Q 129.0,-3.5 163,66 Q 129.5,138.0 190,116" fill="none" stroke="black" stroke-width="2" /><path d="M 116,140 Q 152.0,105.5 130,13 Q 53.0,-12.5 60,46 Q 127.5,63.5 117,3 Q 111.0,-39.0 105,3" fill="none" stroke="black" stroke-width="2" /><path d="M 61,59 Q -2.0,57.5 9,130 Q 123.5,97.5 192,19 Q 138.5,1.0 161,59 Q 201.5,82.5 190,54" fill="none" stroke="black" stroke-width="2" /><path d="M 197,99 Q 167.0,38.0 57,57 Q 87.0,-1.0 43,15 Q 33.5,66.5 100,42 Q 62.5,31.0 91,86" fill="none" stroke="black" stroke-width="2" /></g></svg>