<?xml version="1.0" encoding="utf-8" ?>
<svg baseProfile="full" height="210mm" version="1.1" viewBox="0 0 297 210" width="297mm" xmlns="http://www.w3.org/2000/svg" xmlns:ev="http://www.w3.org/2001/xml-events" xmlns:xlink="http://www.w3.org/1999/xlink"><defs /><g transform="translate(43,30)"><path d="M 108,102 Q 182.5,101.5 173,17 Q 50.5,-15.5 12,36 Q -15.5,73.0 23,44 Q -2.0,94.5 43,75" fill="none" stroke="black" stroke-width="2" /><path d="M 148,31 Q 144.5,-29.5 45,6 Q 58.5,79.0 128,96 Q 167.5,111.0 135,54 Q 144.5,119.0 196,142" fill="none" stroke="black" stroke-width="2" /><path d="M 100,42 Q 101.0,108.5 178,99 Q 156.0,159.5 208,146 Q 230.0,85.5 200,77 Q 134.0,41.5 12,62" fill="none" stroke="black" stroke-width="2" /><path d="M 132,118 Q 105.0,64.5 6,83 Q 62.5,139.5 189,126 Q 169.0,37.0 61,36 Q 99.0,-20.5 49,11" fill="none" stroke="black" stroke-width="2" /></g></svg>