<?xml version="1.0" encoding="utf-8" ?>
<svg baseProfile="full" height="210mm" version="1.1" viewBox="0 0 297 210" width="297mm" xmlns="http://www.w3.org/2000/svg" xmlns:ev="http://www.w3.org/2001/xml-events" xmlns:xlink="http://www.w3.org/1999/xlink"><defs /><g transform="translate(43,30)"><path d="M 18,58 Q 62.5,124.5 179,119 Q 141.0,56.0 35,61 Q 70.0,106.5 157,100 Q 172.5,47.0 142,40" fill="none" stroke="black" stroke-width="2" /><path d="M 171,128 Q 184.0,79.5 111,117 Q 128.0,51.0 69,61 Q 97.0,-3.5 25,32 Q 65.0,46.5 63,19" fill="none" stroke="black" stroke-width="2" /><path d="M 11,80 Q 71.5,95.0 32,10 Q 31.5,63.0 75,72 Q 102.5,4.5 40,27 Q 41.5,117.5 127,124" fill="none" stroke="black" stroke-width="2" /><path d="M 73,28 Q 102.0,104.0 209,102 Q 189.5,65.0 170,102 Q 157.0,147.5 190,147 Q 193.5,105.0 147,113" fill="none" stroke="black" stroke-width="2" /></g></svg>