<?xml version="1.0" encoding="utf-8" ?>
<svg baseProfile="full" height="210mm" version="1.1" viewBox="0 0 297 210" width="297mm" xmlns="http://www.w3.org/2000/svg" xmlns:ev="http://www.w3.org/2001/xml-events" xmlns:xlink="http://www.w3.org/1999/xlink"><defs /><g transform="translate(43,30)"><path d="M 200,25 Q 144.0,23.5 158,92 Q 93.5,70.5 87,107 Q 17.0,76.5 33,132 Q 104.0,117.5 119,47" fill="none" stroke="black" stroke-width="2" /><path d="M 158,134 Q 178.0,70.0 128,76 Q 121.0,17.0 30,42 Q 63.5,133.0 187,134 Q 65.0,91.0 39,144" fill="none" stroke="black" stroke-width="2" /><path d="M 110,13 Q 104.5,-30.0 17,9 Q 13.0,66.5 61,72 Q 82.0,30.0 57,34 Q 61.5,132.0 158,138" fill="none" stroke="black" stroke-width="2" /><path d="M 181,54 Q 76.0,49.5 49,123 Q 67.0,69.0 9,91 Q 42.5,144.5 158,116 Q 144.0,41.5 48,49" fill="none" stroke="black" stroke-width="2" /></g></svg>