<?xml version="1.0" encoding="utf-8" ?>
<svg baseProfile="full" height="210mm" version="1.1" viewBox="0 0 297 210" width="297mm" xmlns="http://www.w3.org/2000/svg" xmlns:ev="http://www.w3.org/2001/xml-events" xmlns:xlink="http://www.w3.org/1999/xlink"><defs /><g transform="translate(43,30)"><path d="M 71,40 Q -1.0,20.0 27,100 Q 63.5,15.5 8,23 Q 38.5,76.0 149,49 Q 134.5,124.0 180,139" fill="none" stroke="black" stroke-width="2" /><path d="M 136,70 Q 102.5,60.5 109,91 Q 94.5,12.0 8,5 Q 82.0,50.0 206,45 Q 72.0,43.0 4,107" fill="none" stroke="black" stroke-width="2" /><path d="M 46,45 Q 96.0,70.0 70,19 Q 88.5,64.5 189,28 Q 227.5,-30.0 176,2 Q 96.0,-30.5 96,17" fill="none" stroke="black" stroke-width="2" /><path d="M 87,135 Q 180.5,169.0 186,115 Q 75.0,82.0 36,121 Q 154.5,117.5 181,22 Q 140.0,30.0 163,102" fill="none" stroke="black" stroke-width="2" /></g></svg>