<?xml version="1.0" encoding="utf-8" ?>
<svg baseProfile="full" height="210mm" version="1.1" viewBox="0 0 297 210" width="297mm" xmlns="http://www.w3.org/2000/svg" xmlns:ev="http://www.w3.org/2001/xml-events" xmlns:xlink="http://www.w3.org/1999/xlink"><defs /><g transform="translate(43,30)"><path d="M 190,110 Q 216.5,67.5 165,103 Q 120.0,47.0 27,39 Q -7.0,88.5 55,42 Q 50.0,101.5 93,113" fill="none" stroke="black" stroke-width="2" /><path d="M 20,20 Q 92.5,80.0 207,98 Q 205.0,36.0 137,40 Q 95.0,60.5 103,131 Q 89.0,78.5 5,96" fill="none" stroke="black" stroke-width="2" /><path d="M 31,12 Q 116.0,28.5 161,5 Q 97.0,20.5 121,124 Q 120.5,24.0 24,20 Q 22.0,67.5 82,53" fill="none" stroke="black" stroke-width="2" /><path d="M 121,9 Q 80.0,13.5 109,88 Q 89.0,125.5 139,93 Q 51.5,80.5 22,126 Q 144.5,142.0 203,94" fill="none" stroke="black" stroke-width="2" /></g></svg>