<?xml version="1.0" encoding="utf-8" ?>
<svg baseProfile="full" height="210mm" version="1.1" viewBox="0 0 297 210" width="297mm" xmlns="http://www.w3.org/2000/svg" xmlns:ev="http://www.w3.org/2001/xml-events" xmlns:xlink="http://www.w3.org/1999/xlink"><defs /><g transform="translate(43,30)"><path d="M 165,140 Q 185.0,56.0 127,50 Q 174.5,58.5 156,1 Q 39.5,9.5 17,112 Q 68.5,157.5 180,143" fill="none" stroke="black" stroke-width="2" /><path d="M 35,31 Q -15.5,26.0 26,113 Q 1.0,91.0 24,117 Q 97.5,113.5 93,32 Q 85.0,119.0 137,146" fill="none" stroke="black" stroke-width="2" /><path d="M 68,108 Q 61.5,143.5 113,121 Q 121.5,64.0 68,69 Q 16.5,59.0 39,123 Q 153.0,128.0 191,57" fill="none" stroke="black" stroke-width="2" /><path d="M 64,48 Q 86.5,-6.5 27,21 Q 69.5,63.5 188,30 Q 136.0,36.5 154,113 Q 94.5,83.5 105,124" fill="none" stroke="black" stroke-width="2" /></g></svg>