<?xml version="1.0" encoding="utf-8" ?>
<svg baseProfile="full" height="210mm" version="1.1" viewBox="0 0 297 210" width="297mm" xmlns="http://www.w3.org/2000/svg" xmlns:ev="http://www.w3.org/2001/xml-events" xmlns:xlink="http://www.w3.org/1999/xlink"><defs /><g transform="translate(43,30)"><path d="M 182,132 Q 144.5,65.0 23,82 Q 56.5,132.0 142,130 Q 187.0,132.0 182,84 Q 110.0,59.0 132,128" fill="none" stroke="black" stroke-width="2" /><path d="M 199,6 Q 110.5,5.5 102,85 Q 200.5,96.5 201,10 Q 95.5,14.0 34,62 Q 51.5,106.5 141,79" fill="none" stroke="black" stroke-width="2" /><path d="M 85,141 Q 132.0,150.0 113,93 Q 126.5,16.5 66,14 Q 70.0,51.0 144,18 Q 61.0,10.0 42,66" fill="none" stroke="black" stroke-width="2" /><path d="M 35,134 Q 111.0,109.0 115,12 Q 27.0,14.5 29,107 Q -10.5,81.0 18,123 Q 93.0,135.0 70,49" fill="none" stroke="black" stroke-width="2" /></g></svg>