<?xml version="1.0" encoding="utf-8" ?>
<svg baseProfile="full" height="210mm" version="1.1" viewBox="0 0 297 210" width="297mm" xmlns="http://www.w3.org/2000/svg" xmlns:ev="http://www.w3.org/2001/xml-events" xmlns:xlink="http://www.w3.org/1999/xlink"><defs /><g transform="translate(43,30)"><path d="M 187,94 Q 161.0,148.0 193,144 Q 175.0,103.0 105,114 Q 109.5,143.0 154,132 Q 154.5,61.0 83,62" fill="none" stroke="black" stroke-width="2" /><path d="M 52,89 Q 84.0,121.5 166,104 Q 68.5,76.0 31,108 Q 75.0,147.0 35,102 Q 92.5,144.5 64,101" fill="none" stroke="black" stroke-width="2" /><path d="M 25,107 Q -11.5,146.0 28,109 Q 69.0,113.0 58,65 Q 162.0,106.0 178,59 Q 114.5,38.0 97,63" fill="none" stroke="black" stroke-width="2" /><path d="M 2,43 Q -2.5,77.5 51,54 Q 0.5,41.0 46,124 Q 61.0,72.0 2,94 Q 49.5,129.0 139,122" fill="none" stroke="black" stroke-width="2" /></g></svg>