<?xml version="1.0" encoding="utf-8" ?>
<svg baseProfile="full" height="210mm" version="1.1" viewBox="0 0 297 210" width="297mm" xmlns="http://www.w3.org/2000/svg" xmlns:ev="http://www.w3.org/2001/xml-events" xmlns:xlink="http://www.w3.org/1999/xlink"><defs /><g transform="translate(43,30)"><path d="M 28,33 Q 40.0,75.5 106,64 Q 68.5,46.5 99,97 Q 179.0,106.0 175,31 Q 136.0,53.5 167,146" fill="none" stroke="black" stroke-width="2" /><path d="M 23,25 Q -20.0,100.5 33,80 Q 99.0,87.0 81,10 Q 75.5,62.0 158,26 Q 77.0,36.0 74,124" fill="none" stroke="black" stroke-width="2" /><path d="M 47,58 Q 108.5,104.0 210,110 Q 114.0,83.5 72,111 Q 89.0,34.0 54,9 Q 35.5,63.0 107,27" fill="none" stroke="black" stroke-width="2" /><path d="M 192,87 Q 217.5,71.0 201,13 Q 95.0,21.0 87,127 Q 87.5,42.0 28,17 Q 36.0,48.0 96,27" fill="none" stroke="black" stroke-width="2" /></g></svg>