<?xml version="1.0" encoding="utf-8" ?>
<svg baseProfile="full" height="210mm" version="1.1" viewBox="0 0 297 210" width="297mm" xmlns="http://www.w3.org/2000/svg" xmlns:ev="http://www.w3.org/2001/xml-events" xmlns:xlink="http://www.w3.org/1999/xlink"><defs /><g transform="translate(43,30)"><path d="M 175,69 Q 192.0,23.0 147,39 Q 106.5,48.0 122,113 Q 196.0,122.0 176,37 Q 118.5,44.5 129,120" fill="none" stroke="black" stroke-width="2" /><path d="M 104,126 Q 164.0,140.5 156,87 Q 81.5,63.5 59,92 Q 61.0,56.0 1,82 Q 101.5,129.0 106,80" fill="none" stroke="black" stroke-width="2" /><path d="M 84,142 Q 117.5,38.5 83,3 Q 69.0,91.5 151,84 Q 148.5,-7.5 46,1 Q 50.5,46.5 143,4" fill="none" stroke="black" stroke-width="2" /><path d="M 103,30 Q 33.5,41.0 48,136 Q 94.5,132.5 51,39 Q -12.5,42.5 2,124 Q 62.0,130.0 28,42" fill="none" stroke="black" stroke-width="2" /></g></svg>