<?xml version="1.0" encoding="utf-8" ?>
<svg baseProfile="full" height="210mm" version="1.1" viewBox="0 0 297 210" width="297mm" xmlns="http://www.w3.org/2000/svg" xmlns:ev="http://www.w3.org/2001/xml-events" xmlns:xlink="http://www.w3.org/1999/xlink"><defs /><g transform="translate(43,30)"><path d="M 204,94 Q 220.5,22.0 153,34 Q 72.0,1.5 79,57 Q 42.0,138.5 85,140 Q 116.5,136.5 96,81" fill="none" stroke="black" stroke-width="2" /><path d="M 181,118 Q 117.0,81.5 151,143 Q 129.5,90.0 14,131 Q 138.0,156.5 206,126 Q 246.5,65.5 205,87" fill="none" stroke="black" stroke-width="2" /><path d="M 152,133 Q 214.0,111.0 190,3 Q 137.5,31.5 141,116 Q 175.5,86.0 158,4 Q 109.0,9.0 110,64" fill="none" stroke="black" stroke-width="2" /><path d="M 94,7 Q 26.0,8.5 18,70 Q 31.0,113.5 96,105 Q 186.5,126.0 197,67 Q 180.5,13.0 92,31" fill="none" stroke="black" stroke-width="2" /></g></svg>