<?xml version="1.0" encoding="utf-8" ?>
<svg baseProfile="full" height="210mm" version="1.1" viewBox="0 0 297 210" width="297mm" xmlns="http://www.w3.org/2000/svg" xmlns:ev="http://www.w3.org/2001/xml-events" xmlns:xlink="http://www.w3.org/1999/xlink"><defs /><g transform="translate(43,30)"><path d="M 73,68 Q 159.0,97.0 155,36 Q 92.0,2.0 105,44 Q 65.0,129.0 109,130 Q 106.5,61.5 38,59" fill="none" stroke="black" stroke-width="2" /><path d="M 0,9 Q 59.5,34.0 163,15 Q 73.5,28.5 50,108 Q 102.0,94.0 84,10 Q 103.0,113.0 210,128" fill="none" stroke="black" stroke-width="2" /><path d="M 53,142 Q 83.5,56.0 30,54 Q -5.0,49.5 24,109 Q 71.0,101.0 68,43 Q 74.0,123.0 158,125" fill="none" stroke="black" stroke-width="2" /><path d="M 138,97 Q 101.5,47.0 13,49 Q 48.0,109.0 183,69 Q 151.5,18.5 64,24 Q 80.5,84.0 183,58" fill="none" stroke="black" stroke-width="2" /></g></svg>