<?xml version="1.0" encoding="utf-8" ?>
<svg baseProfile="full" height="210mm" version="1.1" viewBox="0 0 297 210" width="297mm" xmlns="http://www.w3.org/2000/svg" xmlns:ev="http://www.w3.org/2001/xml-events" xmlns:xlink="http://www.w3.org/1999/xlink"><defs /><g transform="translate(43,30)"><path d="M 15,125 Q 106.5,146.5 112,82 Q 34.5,77.5 23,139 Q 118.0,106.0 143,3 Q 38.0,-19.0 11,37" fill="none" stroke="black" stroke-width="2" /><path d="M 29,41 Q 32.0,123.5 129,112 Q 104.0,166.0 163,136 Q 209.0,164.5 197,135 Q 226.5,38.0 170,27" fill="none" stroke="black" stroke-width="2" /><path d="M 5,119 Q 49.0,174.5 189,134 Q 139.0,41.5 29,9 Q 36.0,100.0 141,93 Q 70.5,82.0 74,145" fill="none" stroke="black" stroke-width="2" /><path d="M 182,82 Q 180.0,10.5 96,21 Q 1.5,24.0 5,125 Q 141.5,146.0 178,67 Q 180.0,34.0 134,49" fill="none" stroke="black" stroke-width="2" /></g></svg>