<?xml version="1.0" encoding="utf-8" ?>
<svg baseProfile="full" height="210mm" version="1.1" viewBox="0 0 297 210" width="297mm" xmlns="http://www.w3.org/2000/svg" xmlns:ev="http://www.w3.org/2001/xml-events" xmlns:xlink="http://www.w3.org/1999/xlink"><defs /><g transform="translate(43,30)"><path d="M 174,108 Q 185.0,35.5 108,51 Q 25.5,21.0 33,81 Q 133.5,80.0 188,33 Q 78.0,44.0 32,119" fill="none" stroke="black" stroke-width="2" /><path d="M 136,132 Q 109.0,49.5 0,49 Q 58.5,69.0 57,29 Q 34.0,117.5 105,112 Q 97.0,167.0 173,138" fill="none" stroke="black" stroke-width="2" /><path d="M 99,22 Q 78.5,76.5 148,41 Q 152.5,-17.0 73,9 Q 35.5,19.5 46,78 Q 35.5,116.5 77,103" fill="none" stroke="black" stroke-width="2" /><path d="M 65,8 Q 29.0,-12.5 35,9 Q 67.0,59.0 141,67 Q 160.5,9.0 126,5 Q 44.5,14.5 13,74" fill="none" stroke="black" stroke-width="2" /></g></svg>