<?xml version="1.0" encoding="utf-8" ?>
<svg baseProfile="full" height="210mm" version="1.1" viewBox="0 0 297 210" width="297mm" xmlns="http://www.w3.org/2000/svg" xmlns:ev="http://www.w3.org/2001/xml-events" xmlns:xlink="http://www.w3.org/1999/xlink"><defs /><g transform="translate(43,30)"><path d="M 210,83 Q 134.0,72.5 98,102 Q 128.5,37.0 83,48 Q 131.5,-24.5 82,1 Q 76.0,98.5 166,100" fill="none" stroke="black" stroke-width="2" /><path d="M 64,24 Q -8.5,11.5 17,97 Q 2.0,159.5 65,144 Q 120.5,167.5 90,105 Q 84.5,45.0 33,31" fill="none" stroke="black" stroke-width="2" /><path d="M 208,136 Q 206.5,76.0 109,112 Q 57.0,79.5 71,113 Q 109.0,20.5 67,8 Q 97.0,34.5 73,7" fill="none" stroke="black" stroke-width="2" /><path d="M 14,22 Q -4.5,67.0 59,30 Q 147.5,67.0 144,12 Q 116.0,26.0 128,80 Q 108.5,136.5 189,93" fill="none" stroke="black" stroke-width="2" /></g></svg>