<?xml version="1.0" encoding="utf-8" ?>
<svg baseProfile="full" height="210mm" version="1.1" viewBox="0 0 297 210" width="297mm" xmlns="http://www.w3.org/2000/svg" xmlns:ev="http://www.w3.org/2001/xml-events" xmlns:xlink="http://www.w3.org/1999/xlink"><defs /><g transform="translate(43,30)"><path d="M 11,86 Q 99.5,126.0 90,68 Q 117.5,117.5 199,113 Q 127.0,94.5 101,122 Q 95.5,159.5 144,143" fill="none" stroke="black" stroke-width="2" /><path d="M 69,133 Q 139.5,160.0 138,115 Q 112.0,85.0 28,113 Q 83.5,108.0 43,7 Q 102.0,46.0 161,7" fill="none" stroke="black" stroke-width="2" /><path d="M 203,144 Q 180.0,24.0 59,2 Q 6.0,35.0 25,140 Q 137.5,107.0 208,32 Q 88.5,48.5 29,125" fill="none" stroke="black" stroke-width="2" /><path d="M 41,20 Q 32.0,79.5 117,45 Q 115.5,120.5 176,134 Q 187.0,48.5 100,61 Q 128.0,70.5 106,30" fill="none" stroke="black" stroke-width="2" /></g></svg>