<?xml version="1.0" encoding="utf-8" ?>
<svg baseProfile="full" height="210mm" version="1.1" viewBox="0 0 297 210" width="297mm" xmlns="http://www.w3.org/2000/svg" xmlns:ev="http://www.w3.org/2001/xml-events" xmlns:xlink="http://www.w3.org/1999/xlink"><defs /><g transform="translate(43,30)"><path d="M 174,4 Q 85.0,-11.5 52,29 Q 31.0,74.0 60,69 Q 142.5,99.0 155,59 Q 190.5,4.5 154,22" fill="none" stroke="black" stroke-width="2" /><path d="M 106,130 Q 180.5,169.5 171,125 Q 135.5,176.5 196,132 Q 169.0,56.5 66,57 Q 158.5,83.0 161,19" fill="none" stroke="black" stroke-width="2" /><path d="M 167,78 Q 122.0,160.5 173,147 Q 198.5,90.0 134,123 Q 120.0,54.5 52,40 Q 2.5,25.5 5,63" fill="none" stroke="black" stroke-width="2" /><path d="M 120,94 Q 169.5,87.5 175,37 Q 172.5,-18.5 70,26 Q 98.5,50.5 77,25 Q 49.0,13.5 75,56" fill="none" stroke="black" stroke-width="2" /></g></svg>