<?xml version="1.0" encoding="utf-8" ?>
<svg baseProfile="full" height="210mm" version="1.1" viewBox="0 0 297 210" width="297mm" xmlns="http://www.w3.org/2000/svg" xmlns:ev="http://www.w3.org/2001/xml-events" xmlns:xlink="http://www.w3.org/1999/xlink"><defs /><g transform="translate(43,30)"><path d="M 101,119 Q 144.5,64.0 100,97 Q 133.0,48.0 78,87 Q -8.0,43.5 6,100 Q 155.5,114.5 209,33" fill="none" stroke="black" stroke-width="2" /><path d="M 29,75 Q 13.5,134.5 44,148 Q 165.0,119.0 196,0 Q 146.0,19.5 172,115 Q 173.0,67.5 124,70" fill="none" stroke="black" stroke-width="2" /><path d="M 143,107 Q 167.5,77.0 150,5 Q 107.0,67.0 152,41 Q 109.0,60.0 106,119 Q 117.5,45.0 57,43" fill="none" stroke="black" stroke-width="2" /><path d="M 145,19 Q 114.0,46.0 137,127 Q 169.0,120.5 139,52 Q 119.5,120.0 196,92 Q 205.0,47.5 144,73" fill="none" stroke="black" stroke-width="2" /></g></svg>