<?xml version="1.0" encoding="utf-8" ?>
<svg baseProfile="full" height="210mm" version="1.1" viewBox="0 0 297 210" width="297mm" xmlns="http://www.w3.org/2000/svg" xmlns:ev="http://www.w3.org/2001/xml-events" xmlns:xlink="http://www.w3.org/1999/xlink"><defs /><g transform="translate(43,30)"><path d="M 84,76 Q 12.0,55.0 12,106 Q 48.5,109.0 45,72 Q 115.5,89.5 100,21 Q 92.5,120.5 169,136" fill="none" stroke="black" stroke-width="2" /><path d="M 182,118 Q 108.0,94.5 104,141 Q 113.5,81.0 39,105 Q 125.5,115.5 164,78 Q 99.5,68.5 101,125" fill="none" stroke="black" stroke-width="2" /><path d="M 142,39 Q 112.5,46.5 137,108 Q 114.0,88.5 133,111 Q 109.5,27.5 24,6 Q 7.0,104.0 58,134" fill="none" stroke="black" stroke-width="2" /><path d="M 190,106 Q 167.0,151.5 194,147 Q 163.5,61.5 45,64 Q 107.5,106.0 84,62 Q 31.5,67.5 51,145" fill="none" stroke="black" stroke-width="2" /></g></svg>