<?xml version="1.0" encoding="utf-8" ?>
<svg baseProfile="full" height="210mm" version="1.1" viewBox="0 0 297 210" width="297mm" xmlns="http://www.w3.org/2000/svg" xmlns:ev="http://www.w3.org/2001/xml-events" xmlns:xlink="http://www.w3.org/1999/xlink"><defs /><g transform="translate(43,30)"><path d="M 189,56 Q 166.0,13.0 65,48 Q 66.0,106.5 155,77 Q 138.0,26.5 53,44 Q 18.0,102.5 79,65" fill="none" stroke="black" stroke-width="2" /><path d="M 199,23 Q 115.5,-8.0 126,55 Q 193.5,83.0 181,31 Q 81.5,44.5 26,102 Q -2.0,172.0 64,148" fill="none" stroke="black" stroke-width="2" /><path d="M 114,129 Q 29.0,98.5 10,134 Q 42.0,121.5 20,55 Q 41.5,131.0 155,115 Q 155.0,26.0 55,37" fill="none" stroke="black" stroke-width="2" /><path d="M 103,9 Q 21.0,0.5 15,68 Q 104.5,106.0 102,52 Q 160.5,69.5 167,35 Q 85.0,49.0 67,127" fill="none" stroke="black" stroke-width="2" /></g></svg>