<?xml version="1.0" encoding="utf-8" ?>
<svg baseProfile="full" height="210mm" version="1.1" viewBox="0 0 297 210" width="297mm" xmlns="http://www.w3.org/2000/svg" xmlns:ev="http://www.w3.org/2001/xml-events" xmlns:xlink="http://www.w3.org/1999/xlink"><defs /><g transform="translate(43,30)"><path d="M 124,111 Q 175.0,98.0 174,33 Q 187.0,-10.5 144,2 Q 109.5,-41.0 75,2 Q 83.5,84.5 146,113" fill="none" stroke="black" stroke-width="2" /><path d="M 105,88 Q 154.0,75.0 143,2 Q 60.0,-5.5 43,53 Q 55.0,123.5 155,106 Q 164.5,31.5 118,13" fill="none" stroke="black" stroke-width="2" /><path d="M 134,98 Q 116.0,141.5 166,117 Q 173.0,68.5 98,102 Q 176.0,148.5 160,101 Q 190.0,79.5 180,18" fill="none" stroke="black" stroke-width="2" /><path d="M 60,131 Q 34.5,182.0 109,133 Q 107.0,46.5 5,60 Q 44.0,130.0 143,140 Q 139.0,33.0 53,8" fill="none" stroke="black" stroke-width="2" /></g></svg>