<?xml version="1.0" encoding="utf-8" ?>
<svg baseProfile="full" height="210mm" version="1.1" viewBox="0 0 297 210" width="297mm" xmlns="http://www.w3.org/2000/svg" xmlns:ev="http://www.w3.org/2001/xml-events" xmlns:xlink="http://www.w3.org/1999/xlink"><defs /><g transform="translate(43,30)"><path d="M 149,122 Q 99.0,81.0 135,126 Q 126.0,62.0 29,86 Q 52.5,28.0 12,34 Q 42.5,-2.5 9,25" fill="none" stroke="black" stroke-width="2" /><path d="M 210,67 Q 161.0,60.5 158,100 Q 158.5,29.5 61,57 Q 91.5,9.5 42,42 Q 52.0,108.0 132,104" fill="none" stroke="black" stroke-width="2" /><path d="M 163,138 Q 130.0,33.0 5,20 Q 70.0,107.5 197,133 Q 169.0,17.5 43,0 Q 36.5,39.0 104,4" fill="none" stroke="black" stroke-width="2" /><path d="M 181,49 Q 145.5,74.5 150,140 Q 114.0,88.0 6,108 Q 45.0,13.5 2,1 Q 49.0,55.5 146,60" fill="none" stroke="black" stroke-width="2" /></g></svg>