<?xml version="1.0" encoding="utf-8" ?>
<svg baseProfile="full" height="210mm" version="1.1" viewBox="0 0 297 210" width="297mm" xmlns="http://www.w3.org/2000/svg" xmlns:ev="http://www.w3.org/2001/xml-events" xmlns:xlink="http://www.w3.org/1999/xlink"><defs /><g transform="translate(43,30)"><path d="M 158,50 Q 171.0,18.5 142,29 Q 139.0,59.5 188,38 Q 148.0,33.0 154,74 Q 198.0,74.5 192,25" fill="none" stroke="black" stroke-width="2" /><path d="M 158,87 Q 170.5,47.5 135,56 Q 124.5,110.5 178,101 Q 92.5,60.5 89,102 Q 118.5,130.5 196,111" fill="none" stroke="black" stroke-width="2" /><path d="M 39,49 Q 66.0,139.0 189,133 Q 177.5,107.0 124,123 Q 166.0,39.5 112,52 Q 49.5,51.0 59,122" fill="none" stroke="black" stroke-width="2" /><path d="M 125,135 Q 110.0,158.5 137,140 Q 126.0,83.5 73,69 Q 18.5,53.0 52,125 Q 168.0,117.0 192,17" fill="none" stroke="black" stroke-width="2" /></g></svg>