<?xml version="1.0" encoding="utf-8" ?>
<svg baseProfile="full" height="210mm" version="1.1" viewBox="0 0 297 210" width="297mm" xmlns="http://www.w3.org/2000/svg" xmlns:ev="http://www.w3.org/2001/xml-events" xmlns:xlink="http://www.w3.org/1999/xlink"><defs /><g transform="translate(43,30)"><path d="M 84,108 Q 155.0,90.0 184,30 Q 126.5,-7.5 165,51 Q 214.0,29.5 165,8 Q 142.0,109.0 183,146" fill="none" stroke="black" stroke-width="2" /><path d="M 57,58 Q 50.0,136.5 139,119 Q 155.0,66.5 129,56 Q 64.5,46.5 100,137 Q 36.5,94.0 61,139" fill="none" stroke="black" stroke-width="2" /><path d="M 163,134 Q 147.5,79.0 70,86 Q 147.0,83.5 150,7 Q 130.0,108.0 188,131 Q 209.5,72.5 155,90" fill="none" stroke="black" stroke-width="2" /><path d="M 70,26 Q 90.0,111.0 172,134 Q 202.0,115.0 186,50 Q 81.5,14.0 67,68 Q 119.0,78.5 111,29" fill="none" stroke="black" stroke-width="2" /></g></svg>