<?xml version="1.0" encoding="utf-8" ?>
<svg baseProfile="full" height="210mm" version="1.1" viewBox="0 0 297 210" width="297mm" xmlns="http://www.w3.org/2000/svg" xmlns:ev="http://www.w3.org/2001/xml-events" xmlns:xlink="http://www.w3.org/1999/xlink"><defs /><g transform="translate(43,30)"><path d="M 148,51 Q 108.0,58.0 146,143 Q 196.5,130.5 159,30 Q 62.5,-10.5 52,35 Q 55.5,124.5 139,134" fill="none" stroke="black" stroke-width="2" /><path d="M 200,130 Q 197.5,62.0 101,88 Q 126.0,66.0 109,2 Q 117.0,52.0 189,38 Q 51.5,4.5 6,63" fill="none" stroke="black" stroke-width="2" /><path d="M 112,104 Q 183.0,111.5 192,57 Q 144.0,55.0 152,109 Q 125.0,166.5 178,144 Q 143.0,76.5 68,49" fill="none" stroke="black" stroke-width="2" /><path d="M 41,34 Q 32.5,102.5 122,73 Q 82.5,41.5 3,50 Q -15.5,93.0 44,58 Q 68.5,119.5 141,133" fill="none" stroke="black" stroke-width="2" /></g></svg>