<?xml version="1.0" encoding="utf-8" ?>
<svg baseProfile="full" height="210mm" version="1.1" viewBox="0 0 297 210" width="297mm" xmlns="http://www.w3.org/2000/svg" xmlns:ev="http://www.w3.org/2001/xml-events" xmlns:xlink="http://www.w3.org/1999/xlink"><defs /><g transform="translate(43,30)"><path d="M 2,122 Q 54.5,130.0 21,52 Q 125.5,55.0 190,18 Q 154.5,74.0 209,40 Q 93.0,34.0 43,94" fill="none" stroke="black" stroke-width="2" /><path d="M 183,41 Q 140.0,-12.0 1,31 Q 48.0,104.5 141,132 Q 135.0,98.0 65,128 Q 65.5,39.0 14,2" fill="none" stroke="black" stroke-width="2" /><path d="M 107,19 Q 191.0,59.5 177,2 Q 101.5,-23.0 84,10 Q 72.5,75.0 123,78 Q 107.5,18.5 42,9" fill="none" stroke="black" stroke-width="2" /><path d="M 146,127 Q 150.0,174.0 154,127 Q 188.0,43.5 126,56 Q 21.5,24.5 7,83 Q 57.5,116.0 158,99" fill="none" stroke="black" stroke-width="2" /></g></svg>