<?xml version="1.0" encoding="utf-8" ?>
<svg baseProfile="full" height="210mm" version="1.1" viewBox="0 0 297 210" width="297mm" xmlns="http://www.w3.org/2000/svg" xmlns:ev="http://www.w3.org/2001/xml-events" xmlns:xlink="http://www.w3.org/1999/xlink"><defs /><g transform="translate(43,30)"><path d="M 57,58 Q 148.0,66.5 179,15 Q 156.5,22.5 178,74 Q 235.5,116.0 199,64 Q 104.5,62.0 96,146" fill="none" stroke="black" stroke-width="2" /><path d="M 67,56 Q 58.5,130.0 116,138 Q 108.0,64.0 20,70 Q 32.0,135.0 118,126 Q 85.5,168.0 125,138" fill="none" stroke="black" stroke-width="2" /><path d="M 205,147 Q 237.0,84.5 205,22 Q 91.0,0.5 51,53 Q -8.5,50.0 6,121 Q 106.0,136.5 108,54" fill="none" stroke="black" stroke-width="2" /><path d="M 161,79 Q 208.0,106.5 185,64 Q 196.5,41.5 164,63 Q 138.5,8.0 51,15 Q 81.0,117.5 187,144" fill="none" stroke="black" stroke-width="2" /></g></svg>