<?xml version="1.0" encoding="utf-8" ?>
<svg baseProfile="full" height="210mm" version="1.1" viewBox="0 0 297 210" width="297mm" xmlns="http://www.w3.org/2000/svg" xmlns:ev="http://www.w3.org/2001/xml-events" xmlns:xlink="http://www.w3.org/1999/xlink"><defs /><g transform="translate(43,30)"><path d="M 119,120 Q 181.5,130.5 204,101 Q 239.5,16.0 179,27 Q 147.0,-13.5 61,0 Q 14.0,-7.5 49,67" fill="none" stroke="black" stroke-width="2" /><path d="M 29,46 Q 51.5,-3.0 0,22 Q 58.5,75.0 181,64 Q 124.0,56.5 115,97 Q 140.5,26.5 90,32" fill="none" stroke="black" stroke-width="2" /><path d="M 179,26 Q 67.5,35.5 14,103 Q 32.0,160.5 124,144 Q 161.5,147.0 149,100 Q 126.0,67.5 63,75" fill="none" stroke="black" stroke-width="2" /><path d="M 152,146 Q 182.5,129.5 165,65 Q 130.5,31.0 40,53 Q 3.0,107.0 62,65 Q 54.5,125.5 87,146" fill="none" stroke="black" stroke-width="2" /></g></svg>