<?xml version="1.0" encoding="utf-8" ?>
<svg baseProfile="full" height="210mm" version="1.1" viewBox="0 0 297 210" width="297mm" xmlns="http://www.w3.org/2000/svg" xmlns:ev="http://www.w3.org/2001/xml-events" xmlns:xlink="http://www.w3.org/1999/xlink"><defs /><g transform="translate(43,30)"><path d="M 103,100 Q 110.0,23.5 63,1 Q 10.5,-38.5 44,8 Q 71.0,71.0 142,90 Q 104.5,24.0 17,8" fill="none" stroke="black" stroke-width="2" /><path d="M 154,23 Q 57.0,21.0 58,117 Q 161.0,105.0 198,27 Q 129.5,19.5 149,100 Q 180.5,60.0 140,92" fill="none" stroke="black" stroke-width="2" /><path d="M 6,22 Q 42.0,106.0 172,96 Q 104.0,95.0 84,142 Q 125.5,139.0 85,54 Q 80.5,79.5 116,65" fill="none" stroke="black" stroke-width="2" /><path d="M 186,65 Q 203.5,9.5 149,26 Q 59.0,26.5 43,101 Q 108.5,100.5 86,12 Q 43.0,-20.5 66,13" fill="none" stroke="black" stroke-width="2" /></g></svg>