<?xml version="1.0" encoding="utf-8" ?>
<svg baseProfile="full" height="210mm" version="1.1" viewBox="0 0 297 210" width="297mm" xmlns="http://www.w3.org/2000/svg" xmlns:ev="http://www.w3.org/2001/xml-events" xmlns:xlink="http://www.w3.org/1999/xlink"><defs /><g transform="translate(43,30)"><path d="M 32,97 Q 56.5,161.0 179,127 Q 225.5,159.0 180,99 Q 110.0,77.0 116,131 Q 151.5,161.0 117,121" fill="none" stroke="black" stroke-width="2" /><path d="M 103,1 Q 115.0,70.0 169,97 Q 156.5,42.5 58,74 Q 41.0,127.0 72,132 Q 87.5,80.0 3,128" fill="none" stroke="black" stroke-width="2" /><path d="M 206,11 Q 76.5,0.5 19,62 Q 75.0,87.5 57,39 Q 159.5,80.5 162,22 Q 59.0,56.5 2,137" fill="none" stroke="black" stroke-width="2" /><path d="M 24,2 Q 70.0,76.5 172,95 Q 231.0,92.0 204,3 Q 79.5,28.5 35,134 Q 111.0,129.5 125,63" fill="none" stroke="black" stroke-width="2" /></g></svg>