<?xml version="1.0" encoding="utf-8" ?>
<svg baseProfile="full" height="210mm" version="1.1" viewBox="0 0 297 210" width="297mm" xmlns="http://www.w3.org/2000/svg" xmlns:ev="http://www.w3.org/2001/xml-events" xmlns:xlink="http://www.w3.org/1999/xlink"><defs /><g transform="translate(43,30)"><path d="M 176,76 Q 142.0,148.0 186,142 Q 142.5,77.0 57,54 Q 103.5,62.0 96,16 Q 66.5,15.0 77,54" fill="none" stroke="black" stroke-width="2" /><path d="M 137,112 Q 123.5,89.0 110,112 Q 162.5,108.0 135,24 Q 61.5,26.5 38,79 Q 92.0,74.0 88,11" fill="none" stroke="black" stroke-width="2" /><path d="M 101,71 Q 100.0,26.0 49,31 Q 16.5,95.0 80,63 Q 1.5,47.0 13,121 Q 101.0,126.5 105,48" fill="none" stroke="black" stroke-width="2" /><path d="M 209,117 Q 162.0,91.0 177,127 Q 231.5,145.0 204,81 Q 241.5,24.5 183,64 Q 213.0,22.5 167,57" fill="none" stroke="black" stroke-width="2" /></g></svg>