<?xml version="1.0" encoding="utf-8" ?>
<svg baseProfile="full" height="210mm" version="1.1" viewBox="0 0 297 210" width="297mm" xmlns="http://www.w3.org/2000/svg" xmlns:ev="http://www.w3.org/2001/xml-events" xmlns:xlink="http://www.w3.org/1999/xlink"><defs /><g transform="translate(43,30)"><path d="M 10,59 Q 100.0,63.5 136,14 Q 60.5,21.0 83,126 Q 94.5,59.5 24,75 Q 65.0,137.0 178,127" fill="none" stroke="black" stroke-width="2" /><path d="M 88,12 Q 56.5,49.0 93,18 Q 28.0,14.5 39,87 Q 154.5,91.0 176,1 Q 79.0,20.5 72,130" fill="none" stroke="black" stroke-width="2" /><path d="M 132,13 Q 107.5,100.5 151,120 Q 141.0,66.5 39,105 Q 60.5,116.5 42,88 Q 148.5,110.5 157,35" fill="none" stroke="black" stroke-width="2" /><path d="M 89,52 Q 94.0,28.5 55,49 Q 3.5,14.5 42,70 Q 56.5,110.5 131,91 Q 127.5,50.0 54,79" fill="none" stroke="black" stroke-width="2" /></g></svg>