<?xml version="1.0" encoding="utf-8" ?>
<svg baseProfile="full" height="210mm" version="1.1" viewBox="0 0 297 210" width="297mm" xmlns="http://www.w3.org/2000/svg" xmlns:ev="http://www.w3.org/2001/xml-events" xmlns:xlink="http://www.w3.org/1999/xlink"><defs /><g transform="translate(43,30)"><path d="M 110,35 Q 108.0,93.5 146,112 Q 191.5,96.5 161,5 Q 88.5,-21.0 116,53 Q 26.0,61.5 0,134" fill="none" stroke="black" stroke-width="2" /><path d="M 165,91 Q 165.5,49.5 124,50 Q 137.0,99.0 196,102 Q 217.0,45.0 146,80 Q 98.0,52.0 116,90" fill="none" stroke="black" stroke-width="2" /><path d="M 191,9 Q 56.0,30.0 13,143 Q 119.5,141.5 182,96 Q 222.5,93.0 195,22 Q 100.0,31.0 71,106" fill="none" stroke="black" stroke-width="2" /><path d="M 5,106 Q 81.0,116.0 109,78 Q 120.5,0.5 54,1 Q 30.0,97.5 80,120 Q 90.5,157.5 155,141" fill="none" stroke="black" stroke-width="2" /></g></svg>