<?xml version="1.0" encoding="utf-8" ?>
<svg baseProfile="full" height="210mm" version="1.1" viewBox="0 0 297 210" width="297mm" xmlns="http://www.w3.org/2000/svg" xmlns:ev="http://www.w3.org/2001/xml-events" xmlns:xlink="http://www.w3.org/1999/xlink"><defs /><g transform="translate(43,30)"><path d="M 119,48 Q 48.5,65.0 34,138 Q 102.5,111.5 129,43 Q 178.0,58.0 173,19 Q 154.0,113.5 203,140" fill="none" stroke="black" stroke-width="2" /><path d="M 175,40 Q 64.5,46.0 10,108 Q -4.5,161.5 79,117 Q 106.0,50.0 45,71 Q 50.0,133.0 115,135" fill="none" stroke="black" stroke-width="2" /><path d="M 53,39 Q 78.5,-2.0 52,9 Q 83.5,41.5 169,20 Q 141.5,97.0 202,86 Q 182.5,23.5 101,23" fill="none" stroke="black" stroke-width="2" /><path d="M 37,75 Q 40.0,138.5 123,122 Q 178.0,149.5 159,103 Q 205.0,97.5 161,2 Q 153.0,90.0 203,120" fill="none" stroke="black" stroke-width="2" /></g></svg>