<?xml version="1.0" encoding="utf-8" ?>
<svg baseProfile="full" height="210mm" version="1.1" viewBox="0 0 297 210" width="297mm" xmlns="http://www.w3.org/2000/svg" xmlns:ev="http://www.w3.org/2001/xml-events" xmlns:xlink="http://www.w3.org/1999/xlink"><defs /><g transform="translate(43,30)"><path d="M 137,52 Q 213.5,66.5 210,1 Q 116.0,21.0 78,97 Q 7.5,58.5 25,108 Q 149.0,103.0 201,26" fill="none" stroke="black" stroke-width="2" /><path d="M 7,6 Q -21.5,90.0 18,106 Q -3.5,143.5 29,127 Q 108.5,134.5 132,86 Q 161.5,97.0 147,64" fill="none" stroke="black" stroke-width="2" /><path d="M 63,14 Q 52.5,90.5 92,117 Q 156.5,103.5 147,16 Q 134.5,103.5 190,123 Q 181.0,57.0 86,77" fill="none" stroke="black" stroke-width="2" /><path d="M 136,147 Q 179.5,123.0 141,17 Q 94.5,10.0 98,53 Q 83.0,121.0 114,143 Q 127.5,28.5 41,14" fill="none" stroke="black" stroke-width="2" /></g></svg>