<?xml version="1.0" encoding="utf-8" ?>
<svg baseProfile="full" height="210mm" version="1.1" viewBox="0 0 297 210" width="297mm" xmlns="http://www.w3.org/2000/svg" xmlns:ev="http://www.w3.org/2001/xml-events" xmlns:xlink="http://www.w3.org/1999/xlink"><defs /><g transform="translate(43,30)"><path d="M 114,100 Q 129.0,65.0 86,88 Q 81.0,31.5 10,41 Q 8.0,68.5 54,48 Q -1.0,56.0 18,138" fill="none" stroke="black" stroke-width="2" /><path d="M 115,137 Q 147.0,64.0 87,83 Q 50.5,58.5 86,106 Q 101.0,60.5 46,85 Q 56.0,134.5 110,140" fill="none" stroke="black" stroke-width="2" /><path d="M 108,63 Q 112.0,115.0 206,77 Q 226.0,18.5 182,24 Q 156.5,63.0 177,148 Q 220.5,175.0 204,142" fill="none" stroke="black" stroke-width="2" /><path d="M 187,65 Q 135.5,42.5 172,108 Q 130.0,20.0 16,4 Q 8.0,80.5 48,109 Q 142.5,147.5 143,92" fill="none" stroke="black" stroke-width="2" /></g></svg>