<?xml version="1.0" encoding="utf-8" ?>
<svg baseProfile="full" height="210mm" version="1.1" viewBox="0 0 297 210" width="297mm" xmlns="http://www.w3.org/2000/svg" xmlns:ev="http://www.w3.org/2001/xml-events" xmlns:xlink="http://www.w3.org/1999/xlink"><defs /><g transform="translate(43,30)"><path d="M 168,76 Q 147.5,30.5 41,71 Q 80.5,138.0 198,127 Q 142.5,74.0 21,87 Q -13.5,160.5 52,134" fill="none" stroke="black" stroke-width="2" /><path d="M 40,71 Q 76.0,69.0 56,11 Q -9.0,-35.5 22,14 Q 77.5,102.5 197,127 Q 227.5,107.0 198,27" fill="none" stroke="black" stroke-width="2" /><path d="M 9,1 Q -1.0,113.5 75,140 Q 141.5,121.5 148,43 Q 109.5,26.0 133,71 Q 152.0,24.0 97,51" fill="none" stroke="black" stroke-width="2" /><path d="M 151,5 Q 91.0,-19.0 87,13 Q 58.0,63.0 89,53 Q 78.5,114.5 116,128 Q 94.5,41.5 19,9" fill="none" stroke="black" stroke-width="2" /></g></svg>