<?xml version="1.0" encoding="utf-8" ?>
<svg baseProfile="full" height="210mm" version="1.1" viewBox="0 0 297 210" width="297mm" xmlns="http://www.w3.org/2000/svg" xmlns:ev="http://www.w3.org/2001/xml-events" xmlns:xlink="http://www.w3.org/1999/xlink"><defs /><g transform="translate(43,30)"><path d="M 151,39 Q 152.5,65.0 204,41 Q 84.0,-5.5 58,42 Q -5.5,32.5 11,103 Q 70.5,122.0 50,61" fill="none" stroke="black" stroke-width="2" /><path d="M 80,34 Q 96.5,131.0 203,138 Q 177.5,59.0 102,30 Q 66.0,105.5 126,85 Q 94.5,67.0 111,97" fill="none" stroke="black" stroke-width="2" /><path d="M 36,115 Q 5.0,159.0 50,127 Q 107.5,120.0 65,13 Q 56.5,70.5 130,46 Q 58.5,45.5 45,103" fill="none" stroke="black" stroke-width="2" /><path d="M 53,78 Q 9.0,55.0 35,102 Q 87.0,112.0 75,58 Q 32.0,39.0 45,76 Q 108.0,98.5 83,33" fill="none" stroke="black" stroke-width="2" /></g></svg>