<?xml version="1.0" encoding="utf-8" ?>
<svg baseProfile="full" height="210mm" version="1.1" viewBox="0 0 297 210" width="297mm" xmlns="http://www.w3.org/2000/svg" xmlns:ev="http://www.w3.org/2001/xml-events" xmlns:xlink="http://www.w3.org/1999/xlink"><defs /><g transform="translate(43,30)"><path d="M 97,144 Q 79.5,62.0 18,24 Q 29.5,70.0 107,50 Q 39.0,43.0 63,128 Q 97.5,77.5 54,105" fill="none" stroke="black" stroke-width="2" /><path d="M 6,29 Q 97.5,61.5 117,22 Q 55.5,30.0 60,104 Q 94.0,6.5 32,5 Q 50.0,82.0 160,67" fill="none" stroke="black" stroke-width="2" /><path d="M 102,122 Q 115.5,20.0 35,12 Q -14.5,96.5 36,81 Q 53.0,45.5 16,64 Q 58.5,112.0 193,68" fill="none" stroke="black" stroke-width="2" /><path d="M 119,75 Q 130.5,26.5 66,54 Q 154.5,61.0 181,6 Q 90.5,-27.0 88,28 Q 23.5,-9.0 35,30" fill="none" stroke="black" stroke-width="2" /></g></svg>