<?xml version="1.0" encoding="utf-8" ?>
<svg baseProfile="full" height="210mm" version="1.1" viewBox="0 0 297 210" width="297mm" xmlns="http://www.w3.org/2000/svg" xmlns:ev="http://www.w3.org/2001/xml-events" xmlns:xlink="http://www.w3.org/1999/xlink"><defs /><g transform="translate(43,30)"><path d="M 115,30 Q 61.5,5.0 68,40 Q 56.0,104.0 116,96 Q 154.5,93.0 127,24 Q 77.0,-2.0 97,42" fill="none" stroke="black" stroke-width="2" /><path d="M 105,92 Q 121.0,36.5 89,29 Q 95.0,-24.5 5,18 Q -24.5,83.5 36,59 Q 34.0,124.0 80,141" fill="none" stroke="black" stroke-width="2" /><path d="M 85,13 Q 104.5,67.5 190,56 Q 69.0,28.0 46,98 Q 89.5,127.0 189,100 Q 146.5,28.5 60,1" fill="none" stroke="black" stroke-width="2" /><path d="M 21,42 Q 59.5,-11.5 10,23 Q 55.5,79.5 193,44 Q 135.5,32.0 176,118 Q 81.0,105.0 42,148" fill="none" stroke="black" stroke-width="2" /></g></svg>