<?xml version="1.0" encoding="utf-8" ?>
<svg baseProfile="full" height="210mm" version="1.1" viewBox="0 0 297 210" width="297mm" xmlns="http://www.w3.org/2000/svg" xmlns:ev="http://www.w3.org/2001/xml-events" xmlns:xlink="http://www.w3.org/1999/xlink"><defs /><g transform="translate(43,30)"><path d="M 29,140 Q 58.5,62.5 8,65 Q 23.0,114.0 118,83 Q 125.0,26.0 60,41 Q 82.0,127.0 196,121" fill="none" stroke="black" stroke-width="2" /><path d="M 141,7 Q 36.5,-5.5 30,80 Q 137.5,99.5 181,55 Q 65.0,61.0 23,141 Q 150.0,120.0 195,17" fill="none" stroke="black" stroke-width="2" /><path d="M 12,60 Q 54.0,-7.5 6,15 Q 7.5,76.0 109,37 Q 112.5,-15.5 28,20 Q 151.0,53.0 202,14" fill="none" stroke="black" stroke-width="2" /><path d="M 77,54 Q 0.5,19.0 24,84 Q 129.5,76.0 179,12 Q 137.0,10.0 139,52 Q 130.0,-4.0 47,14" fill="none" stroke="black" stroke-width="2" /></g></svg>