<?xml version="1.0" encoding="utf-8" ?>
<svg baseProfile="full" height="210mm" version="1.1" viewBox="0 0 297 210" width="297mm" xmlns="http://www.w3.org/2000/svg" xmlns:ev="http://www.w3.org/2001/xml-events" xmlns:xlink="http://www.w3.org/1999/xlink"><defs /><g transform="translate(43,30)"><path d="M 130,145 Q 178.5,183.0 141,135 Q 152.5,47.0 118,5 Q 87.5,5.0 103,51 Q 29.0,35.5 21,86" fill="none" stroke="black" stroke-width="2" /><path d="M 106,118 Q 91.0,51.0 8,52 Q -20.0,96.0 32,60 Q 36.0,138.5 120,137 Q 165.5,143.5 143,82" fill="none" stroke="black" stroke-width="2" /><path d="M 144,20 Q 88.0,0.0 94,42 Q 113.5,91.5 183,91 Q 126.0,56.0 19,71 Q 42.5,105.0 120,85" fill="none" stroke="black" stroke-width="2" /><path d="M 192,55 Q 214.0,24.0 178,51 Q 77.5,5.5 71,54 Q 56.5,107.5 98,105 Q 116.5,59.5 67,82" fill="none" stroke="black" stroke-width="2" /></g></svg>