<?xml version="1.0" encoding="utf-8" ?>
<svg baseProfile="full" height="210mm" version="1.1" viewBox="0 0 297 210" width="297mm" xmlns="http://www.w3.org/2000/svg" xmlns:ev="http://www.w3.org/2001/xml-events" xmlns:xlink="http://www.w3.org/1999/xlink"><defs /><g transform="translate(43,30)"><path d="M 11,94 Q 78.0,133.5 51,79 Q 72.0,119.0 169,83 Q 217.5,101.0 198,51 Q 144.5,60.5 151,130" fill="none" stroke="black" stroke-width="2" /><path d="M 84,144 Q 170.0,146.5 210,103 Q 131.5,69.5 1,88 Q 72.0,115.5 43,43 Q 54.0,109.0 145,95" fill="none" stroke="black" stroke-width="2" /><path d="M 186,100 Q 62.0,69.0 12,112 Q 62.5,107.0 21,10 Q 11.5,106.5 70,135 Q 90.0,45.5 52,14" fill="none" stroke="black" stroke-width="2" /><path d="M 209,65 Q 137.5,29.0 16,43 Q 133.0,78.0 176,39 Q 118.5,7.0 19,17 Q 62.0,80.0 157,91" fill="none" stroke="black" stroke-width="2" /></g></svg>