<?xml version="1.0" encoding="utf-8" ?>
<svg baseProfile="full" height="210mm" version="1.1" viewBox="0 0 297 210" width="297mm" xmlns="http://www.w3.org/2000/svg" xmlns:ev="http://www.w3.org/2001/xml-events" xmlns:xlink="http://www.w3.org/1999/xlink"><defs /><g transform="translate(43,30)"><path d="M 10,10 Q 44.5,37.0 17,2 Q -2.5,70.0 22,94 Q 108.0,123.5 128,87 Q 42.5,75.0 25,131" fill="none" stroke="black" stroke-width="2" /><path d="M 95,146 Q 92.0,98.0 33,106 Q 146.5,105.0 180,24 Q 96.5,24.5 113,125 Q 137.0,39.0 93,21" fill="none" stroke="black" stroke-width="2" /><path d="M 170,2 Q 82.5,8.5 67,87 Q 167.5,113.0 210,81 Q 100.0,72.0 64,137 Q 86.0,53.0 62,15" fill="none" stroke="black" stroke-width="2" /><path d="M 121,121 Q 151.0,27.0 107,7 Q 103.5,74.5 164,78 Q 211.5,112.0 169,56 Q 128.0,27.0 147,58" fill="none" stroke="black" stroke-width="2" /></g></svg>