<?xml version="1.0" encoding="utf-8" ?>
<svg baseProfile="full" height="210mm" version="1.1" viewBox="0 0 297 210" width="297mm" xmlns="http://www.w3.org/2000/svg" xmlns:ev="http://www.w3.org/2001/xml-events" xmlns:xlink="http://www.w3.org/1999/xlink"><defs /><g transform="translate(43,30)"><path d="M 91,136 Q 148.0,111.0 163,44 Q 187.0,-3.0 137,24 Q 88.0,-7.0 135,58 Q 195.5,82.0 164,14" fill="none" stroke="black" stroke-width="2" /><path d="M 135,58 Q 123.5,102.0 176,82 Q 227.0,120.0 198,78 Q 116.5,82.5 87,139 Q 102.0,42.5 55,8" fill="none" stroke="black" stroke-width="2" /><path d="M 46,12 Q 31.5,120.5 101,145 Q 118.5,31.0 38,15 Q 61.5,71.5 167,46 Q 126.5,24.5 154,71" fill="none" stroke="black" stroke-width="2" /><path d="M 158,102 Q 155.5,43.0 57,80 Q 26.0,141.0 91,106 Q 112.5,47.0 70,52 Q 102.5,72.5 71,29" fill="none" stroke="black" stroke-width="2" /></g></svg>