<?xml version="1.0" encoding="utf-8" ?>
<svg baseProfile="full" height="210mm" version="1.1" viewBox="0 0 297 210" width="297mm" xmlns="http://www.w3.org/2000/svg" xmlns:ev="http://www.w3.org/2001/xml-events" xmlns:xlink="http://www.w3.org/1999/xlink"><defs /><g transform="translate(43,30)"><path d="M 140,29 Q 86.5,32.5 101,104 Q 109.0,52.0 19,98 Q 117.0,117.5 137,59 Q 57.0,29.5 59,82" fill="none" stroke="black" stroke-width="2" /><path d="M 116,139 Q 110.5,73.5 27,86 Q 77.5,88.5 56,19 Q 48.0,82.0 86,99 Q 150.5,107.0 137,37" fill="none" stroke="black" stroke-width="2" /><path d="M 184,50 Q 127.5,40.5 115,75 Q 105.5,28.5 40,38 Q 30.0,112.5 108,99 Q 165.5,116.0 155,65" fill="none" stroke="black" stroke-width="2" /><path d="M 85,74 Q 135.5,109.5 94,53 Q 21.5,9.5 43,60 Q 69.5,128.0 154,138 Q 169.5,113.0 145,128" fill="none" stroke="black" stroke-width="2" /></g></svg>