<?xml version="1.0" encoding="utf-8" ?>
<svg baseProfile="full" height="210mm" version="1.1" viewBox="0 0 297 210" width="297mm" xmlns="http://www.w3.org/2000/svg" xmlns:ev="http://www.w3.org/2001/xml-events" xmlns:xlink="http://www.w3.org/1999/xlink"><defs /><g transform="translate(43,30)"><path d="M 193,143 Q 202.5,73.0 158,57 Q 92.5,51.0 115,133 Q 97.5,38.5 0,24 Q 70.5,48.5 187,27" fill="none" stroke="black" stroke-width="2" /><path d="M 47,79 Q 62.5,107.0 124,89 Q 124.0,159.5 206,148 Q 227.0,80.0 180,80 Q 129.5,58.0 143,100" fill="none" stroke="black" stroke-width="2" /><path d="M 184,26 Q 104.0,-2.0 82,28 Q 151.5,46.5 157,1 Q 105.0,-26.5 131,24 Q 112.0,66.5 139,63" fill="none" stroke="black" stroke-width="2" /><path d="M 127,39 Q 112.5,63.0 144,41 Q 184.5,60.0 181,35 Q 56.5,28.0 26,115 Q 56.0,73.0 16,101" fill="none" stroke="black" stroke-width="2" /></g></svg>