<?xml version="1.0" encoding="utf-8" ?>
<svg baseProfile="full" height="210mm" version="1.1" viewBox="0 0 297 210" width="297mm" xmlns="http://www.w3.org/2000/svg" xmlns:ev="http://www.w3.org/2001/xml-events" xmlns:xlink="http://www.w3.org/1999/xlink"><defs /><g transform="translate(43,30)"><path d="M 152,55 Q 60.5,47.5 11,82 Q -21.0,153.5 31,141 Q 89.5,157.0 84,109 Q 137.5,91.0 119,1" fill="none" stroke="black" stroke-width="2" /><path d="M 181,84 Q 63.0,52.0 11,86 Q 125.5,90.5 196,51 Q 180.0,-12.5 70,18 Q 25.5,86.0 81,54" fill="none" stroke="black" stroke-width="2" /><path d="M 115,137 Q 103.0,30.5 13,2 Q 82.0,82.0 199,114 Q 157.5,61.5 62,63 Q 140.5,54.0 179,5" fill="none" stroke="black" stroke-width="2" /><path d="M 87,68 Q 156.5,93.0 160,52 Q 121.5,118.5 167,101 Q 213.0,99.0 209,47 Q 248.5,-18.5 198,6" fill="none" stroke="black" stroke-width="2" /></g></svg>