<?xml version="1.0" encoding="utf-8" ?>
<svg baseProfile="full" height="210mm" version="1.1" viewBox="0 0 297 210" width="297mm" xmlns="http://www.w3.org/2000/svg" xmlns:ev="http://www.w3.org/2001/xml-events" xmlns:xlink="http://www.w3.org/1999/xlink"><defs /><g transform="translate(43,30)"><path d="M 197,4 Q 108.5,11.0 120,118 Q 100.0,57.5 40,37 Q -14.0,33.0 20,117 Q 80.5,112.0 79,45" fill="none" stroke="black" stroke-width="2" /><path d="M 194,29 Q 145.5,-6.0 43,13 Q 17.5,116.0 84,127 Q 116.5,38.5 79,20 Q 120.5,95.0 204,128" fill="none" stroke="black" stroke-width="2" /><path d="M 1,108 Q 72.0,108.0 59,24 Q 162.0,73.5 165,23 Q 141.5,60.5 178,38 Q 146.5,-9.0 31,28" fill="none" stroke="black" stroke-width="2" /><path d="M 132,121 Q 190.0,144.0 154,73 Q 85.0,36.5 96,80 Q 51.0,149.0 106,118 Q 141.0,109.5 118,43" fill="none" stroke="black" stroke-width="2" /></g></svg>