<?xml version="1.0" encoding="utf-8" ?>
<svg baseProfile="full" height="210mm" version="1.1" viewBox="0 0 297 210" width="297mm" xmlns="http://www.w3.org/2000/svg" xmlns:ev="http://www.w3.org/2001/xml-events" xmlns:xlink="http://www.w3.org/1999/xlink"><defs /><g transform="translate(43,30)"><path d="M 170,80 Q 178.5,31.0 95,74 Q 116.5,113.0 196,94 Q 166.5,46.5 79,57 Q 146.0,76.0 123,5" fill="none" stroke="black" stroke-width="2" /><path d="M 142,100 Q 195.0,105.0 204,66 Q 204.5,20.0 159,20 Q 91.0,1.5 65,25 Q 80.0,110.0 151,139" fill="none" stroke="black" stroke-width="2" /><path d="M 148,71 Q 204.5,97.0 197,59 Q 100.0,50.0 97,135 Q 153.0,138.5 169,102 Q 195.5,38.5 142,55" fill="none" stroke="black" stroke-width="2" /><path d="M 113,26 Q 87.0,82.5 137,63 Q 167.5,24.0 136,47 Q 84.0,31.0 116,99 Q 96.0,140.5 130,128" fill="none" stroke="black" stroke-width="2" /></g></svg>