<?xml version="1.0" encoding="utf-8" ?>
<svg baseProfile="full" height="210mm" version="1.1" viewBox="0 0 297 210" width="297mm" xmlns="http://www.w3.org/2000/svg" xmlns:ev="http://www.w3.org/2001/xml-events" xmlns:xlink="http://www.w3.org/1999/xlink"><defs /><g transform="translate(43,30)"><path d="M 122,108 Q 126.5,77.0 75,102 Q 154.5,131.5 166,93 Q 156.0,24.5 100,2 Q 101.5,32.0 161,4" fill="none" stroke="black" stroke-width="2" /><path d="M 205,21 Q 174.5,16.5 186,54 Q 212.5,12.5 163,47 Q 127.0,-3.0 37,1 Q 2.5,44.0 52,3" fill="none" stroke="black" stroke-width="2" /><path d="M 131,142 Q 123.0,84.0 73,68 Q 180.0,78.5 209,11 Q 158.5,11.5 208,112 Q 140.0,99.0 120,134" fill="none" stroke="black" stroke-width="2" /><path d="M 62,63 Q 8.5,69.0 11,131 Q 86.0,114.5 95,32 Q 103.5,108.0 160,136 Q 153.5,26.5 61,3" fill="none" stroke="black" stroke-width="2" /></g></svg>