<?xml version="1.0" encoding="utf-8" ?>
<svg baseProfile="full" height="210mm" version="1.1" viewBox="0 0 297 210" width="297mm" xmlns="http://www.w3.org/2000/svg" xmlns:ev="http://www.w3.org/2001/xml-events" xmlns:xlink="http://www.w3.org/1999/xlink"><defs /><g transform="translate(43,30)"><path d="M 55,141 Q 103.5,168.0 66,109 Q 74.5,152.5 157,122 Q 90.5,84.5 124,147 Q 189.0,164.5 204,132" fill="none" stroke="black" stroke-width="2" /><path d="M 203,62 Q 114.5,73.0 80,138 Q 125.5,122.0 97,32 Q 123.0,-16.5 53,31 Q 66.0,72.5 119,74" fill="none" stroke="black" stroke-width="2" /><path d="M 111,115 Q 136.5,63.0 110,63 Q 97.0,16.0 6,47 Q -11.5,110.0 69,75 Q 164.5,99.5 198,62" fill="none" stroke="black" stroke-width="2" /><path d="M 130,106 Q 206.0,109.5 184,15 Q 157.5,-6.5 181,22 Q 97.0,29.0 87,110 Q 150.0,110.5 161,59" fill="none" stroke="black" stroke-width="2" /></g></svg>