<?xml version="1.0" encoding="utf-8" ?>
<svg baseProfile="full" height="210mm" version="1.1" viewBox="0 0 297 210" width="297mm" xmlns="http://www.w3.org/2000/svg" xmlns:ev="http://www.w3.org/2001/xml-events" xmlns:xlink="http://www.w3.org/1999/xlink"><defs /><g transform="translate(43,30)"><path d="M 96,17 Q 104.5,97.5 189,102 Q 156.0,13.0 25,22 Q 38.0,78.5 125,61 Q 163.0,60.0 159,17" fill="none" stroke="black" stroke-width="2" /><path d="M 174,29 Q 94.5,45.0 87,133 Q 111.5,142.0 88,103 Q 98.0,40.0 32,53 Q 77.0,96.0 188,73" fill="none" stroke="black" stroke-width="2" /><path d="M 73,102 Q 126.5,129.0 124,100 Q 145.0,22.5 94,17 Q 56.5,117.5 97,140 Q 101.0,80.0 63,62" fill="none" stroke="black" stroke-width="2" /><path d="M 189,137 Q 131.0,112.0 127,141 Q 166.5,110.5 144,18 Q 43.5,14.0 31,98 Q 5.0,168.5 77,141" fill="none" stroke="black" stroke-width="2" /></g></svg>