<?xml version="1.0" encoding="utf-8" ?>
<svg baseProfile="full" height="210mm" version="1.1" viewBox="0 0 297 210" width="297mm" xmlns="http://www.w3.org/2000/svg" xmlns:ev="http://www.w3.org/2001/xml-events" xmlns:xlink="http://www.w3.org/1999/xlink"><defs /><g transform="translate(43,30)"><path d="M 52,98 Q 141.5,110.0 159,50 Q 200.0,59.0 185,12 Q 132.5,10.0 178,106 Q 215.0,38.5 172,51" fill="none" stroke="black" stroke-width="2" /><path d="M 208,114 Q 133.5,91.0 135,144 Q 154.0,108.0 103,142 Q 157.0,133.5 131,45 Q 111.0,11.5 27,42" fill="none" stroke="black" stroke-width="2" /><path d="M 101,31 Q 72.0,84.5 127,54 Q 68.5,44.0 54,78 Q 95.0,108.0 176,98 Q 79.5,63.0 55,100" fill="none" stroke="black" stroke-width="2" /><path d="M 18,99 Q 93.5,109.0 129,79 Q 165.5,24.5 128,44 Q 130.5,91.0 185,86 Q 190.0,26.5 95,67" fill="none" stroke="black" stroke-width="2" /></g></svg>