<?xml version="1.0" encoding="utf-8" ?>
<svg baseProfile="full" height="210mm" version="1.1" viewBox="0 0 297 210" width="297mm" xmlns="http://www.w3.org/2000/svg" xmlns:ev="http://www.w3.org/2001/xml-events" xmlns:xlink="http://www.w3.org/1999/xlink"><defs /><g transform="translate(43,30)"><path d="M 24,4 Q -20.5,-21.5 17,35 Q 22.5,108.0 86,123 Q 124.5,104.5 99,22 Q 11.0,9.5 21,95" fill="none" stroke="black" stroke-width="2" /><path d="M 195,71 Q 56.5,45.0 6,107 Q 94.5,96.0 135,37 Q 119.0,-0.5 49,16 Q -20.0,7.0 1,88" fill="none" stroke="black" stroke-width="2" /><path d="M 20,79 Q 81.5,92.5 55,18 Q 17.5,28.5 36,95 Q 70.0,96.5 40,34 Q 51.5,93.0 111,104" fill="none" stroke="black" stroke-width="2" /><path d="M 144,145 Q 117.0,83.0 6,105 Q 75.0,138.5 76,104 Q 65.0,32.5 4,11 Q 16.5,90.0 123,75" fill="none" stroke="black" stroke-width="2" /></g></svg>