<?xml version="1.0" encoding="utf-8" ?>
<svg baseProfile="full" height="210mm" version="1.1" viewBox="0 0 297 210" width="297mm" xmlns="http://www.w3.org/2000/svg" xmlns:ev="http://www.w3.org/2001/xml-events" xmlns:xlink="http://www.w3.org/1999/xlink"><defs /><g transform="translate(43,30)"><path d="M 50,88 Q 97.5,128.0 51,74 Q 84.0,65.5 51,57 Q 62.0,103.0 135,87 Q 198.0,92.0 205,41" fill="none" stroke="black" stroke-width="2" /><path d="M 201,98 Q 141.5,64.5 42,71 Q 166.0,111.5 204,66 Q 125.5,43.5 127,101 Q 129.0,55.0 89,51" fill="none" stroke="black" stroke-width="2" /><path d="M 171,37 Q 181.0,-29.5 93,2 Q 49.0,46.0 49,134 Q 0.5,90.5 48,143 Q 79.5,161.0 55,123" fill="none" stroke="black" stroke-width="2" /><path d="M 178,13 Q 61.5,15.5 23,96 Q 51.0,159.5 167,135 Q 97.5,102.0 96,137 Q 123.5,75.0 63,101" fill="none" stroke="black" stroke-width="2" /></g></svg>