<?xml version="1.0" encoding="utf-8" ?>
<svg baseProfile="full" height="210mm" version="1.1" viewBox="0 0 297 210" width="297mm" xmlns="http://www.w3.org/2000/svg" xmlns:ev="http://www.w3.org/2001/xml-events" xmlns:xlink="http://www.w3.org/1999/xlink"><defs /><g transform="translate(43,30)"><path d="M 52,90 Q 118.5,107.5 107,47 Q 113.5,11.5 58,38 Q 52.5,79.0 97,70 Q 136.5,87.0 128,56" fill="none" stroke="black" stroke-width="2" /><path d="M 166,65 Q 89.0,48.0 62,81 Q 121.0,96.5 118,50 Q 78.0,116.0 120,100 Q 101.0,28.0 18,20" fill="none" stroke="black" stroke-width="2" /><path d="M 74,27 Q 84.5,65.5 167,32 Q 155.5,94.0 198,102 Q 196.0,22.5 132,5 Q 57.5,-2.0 49,57" fill="none" stroke="black" stroke-width="2" /><path d="M 28,30 Q 30.5,108.0 95,124 Q 143.0,111.5 115,23 Q 103.5,71.0 154,57 Q 124.5,9.5 29,28" fill="none" stroke="black" stroke-width="2" /></g></svg>