<?xml version="1.0" encoding="utf-8" ?>
<svg baseProfile="full" height="210mm" version="1.1" viewBox="0 0 297 210" width="297mm" xmlns="http://www.w3.org/2000/svg" xmlns:ev="http://www.w3.org/2001/xml-events" xmlns:xlink="http://www.w3.org/1999/xlink"><defs /><g transform="translate(43,30)"><path d="M 62,0 Q 59.0,60.5 130,47 Q 127.0,3.0 70,13 Q 36.0,-13.0 64,23 Q 87.0,129.5 210,136" fill="none" stroke="black" stroke-width="2" /><path d="M 43,133 Q 82.5,138.5 46,68 Q 136.0,93.0 152,44 Q 192.0,44.0 192,4 Q 78.5,42.0 21,136" fill="none" stroke="black" stroke-width="2" /><path d="M 10,52 Q -3.0,93.0 48,70 Q 110.0,74.0 114,20 Q 49.0,22.5 32,73 Q 136.5,99.0 159,43" fill="none" stroke="black" stroke-width="2" /><path d="M 107,99 Q 94.0,137.0 137,119 Q 168.0,138.0 153,111 Q 159.5,8.0 66,5 Q 51.5,100.5 105,128" fill="none" stroke="black" stroke-width="2" /></g></svg>