<?xml version="1.0" encoding="utf-8" ?>
<svg baseProfile="full" height="210mm" version="1.1" viewBox="0 0 297 210" width="297mm" xmlns="http://www.w3.org/2000/svg" xmlns:ev="http://www.w3.org/2001/xml-events" xmlns:xlink="http://www.w3.org/1999/xlink"><defs /><g transform="translate(43,30)"><path d="M 136,145 Q 163.5,81.0 95,113 Q 99.0,61.5 37,76 Q 77.0,71.0 55,4 Q 14.0,3.0 13,42" fill="none" stroke="black" stroke-width="2" /><path d="M 122,93 Q 96.5,149.5 135,142 Q 160.0,74.0 125,66 Q 61.0,46.0 69,98 Q 83.0,8.5 9,7" fill="none" stroke="black" stroke-width="2" /><path d="M 177,71 Q 125.5,40.0 170,105 Q 46.5,65.5 21,124 Q 137.0,147.5 175,93 Q 211.5,92.0 182,25" fill="none" stroke="black" stroke-width="2" /><path d="M 125,51 Q 22.5,36.0 10,111 Q 11.0,159.5 92,128 Q 107.5,82.5 57,103 Q 67.5,66.5 24,84" fill="none" stroke="black" stroke-width="2" /></g></svg>