<?xml version="1.0" encoding="utf-8" ?>
<svg baseProfile="full" height="210mm" version="1.1" viewBox="0 0 297 210" width="297mm" xmlns="http://www.w3.org/2000/svg" xmlns:ev="http://www.w3.org/2001/xml-events" xmlns:xlink="http://www.w3.org/1999/xlink"><defs /><g transform="translate(43,30)"><path d="M 8,14 Q 34.0,52.0 118,32 Q 30.5,30.0 3,88 Q 91.5,106.5 140,85 Q 55.0,64.0 16,89" fill="none" stroke="black" stroke-width="2" /><path d="M 108,48 Q 68.5,54.5 105,137 Q 130.0,56.0 81,49 Q 145.0,73.5 125,14 Q 117.0,-25.0 45,0" fill="none" stroke="black" stroke-width="2" /><path d="M 138,2 Q 43.5,34.5 1,119 Q 142.0,118.5 205,40 Q 245.5,-20.5 198,7 Q 188.0,-27.5 112,4" fill="none" stroke="black" stroke-width="2" /><path d="M 140,44 Q 51.5,31.5 33,89 Q 77.5,82.0 52,5 Q 103.0,52.5 210,44 Q 93.0,53.5 38,125" fill="none" stroke="black" stroke-width="2" /></g></svg>