<?xml version="1.0" encoding="utf-8" ?>
<svg baseProfile="full" height="210mm" version="1.1" viewBox="0 0 297 210" width="297mm" xmlns="http://www.w3.org/2000/svg" xmlns:ev="http://www.w3.org/2001/xml-events" xmlns:xlink="http://www.w3.org/1999/xlink"><defs /><g transform="translate(43,30)"><path d="M 194,88 Q 99.0,70.5 72,121 Q 63.5,86.0 9,97 Q -2.5,135.0 30,129 Q 105.5,132.0 87,41" fill="none" stroke="black" stroke-width="2" /><path d="M 97,109 Q 79.5,130.5 102,112 Q 151.5,105.5 111,9 Q 25.0,-8.0 15,51 Q 123.0,58.5 181,16" fill="none" stroke="black" stroke-width="2" /><path d="M 90,104 Q 174.0,89.5 184,1 Q 56.0,-28.5 20,34 Q 10.0,64.5 50,45 Q 1.0,50.5 34,138" fill="none" stroke="black" stroke-width="2" /><path d="M 174,109 Q 132.5,82.5 147,112 Q 194.5,90.5 186,13 Q 63.0,-1.5 26,70 Q 89.0,90.0 62,20" fill="none" stroke="black" stroke-width="2" /></g></svg>