<?xml version="1.0" encoding="utf-8" ?>
<svg baseProfile="full" height="210mm" version="1.1" viewBox="0 0 297 210" width="297mm" xmlns="http://www.w3.org/2000/svg" xmlns:ev="http://www.w3.org/2001/xml-events" xmlns:xlink="http://www.w3.org/1999/xlink"><defs /><g transform="translate(43,30)"><path d="M 110,35 Q 73.5,53.0 107,141 Q 150.0,157.5 119,100 Q 124.5,29.5 34,55 Q 113.5,73.5 117,16" fill="none" stroke="black" stroke-width="2" /><path d="M 141,61 Q 152.0,19.0 93,47 Q 53.0,120.0 105,101 Q 163.0,98.5 171,46 Q 111.5,49.5 144,145" fill="none" stroke="black" stroke-width="2" /><path d="M 205,48 Q 119.5,68.0 86,140 Q 108.0,116.5 84,139 Q 144.5,184.0 105,129 Q 177.0,138.5 159,58" fill="none" stroke="black" stroke-width="2" /><path d="M 67,59 Q 95.5,-2.5 54,6 Q 23.0,82.0 78,72 Q 99.5,7.0 61,2 Q 49.0,113.0 113,148" fill="none" stroke="black" stroke-width="2" /></g></svg>