<?xml version="1.0" encoding="utf-8" ?>
<svg baseProfile="full" height="210mm" version="1.1" viewBox="0 0 297 210" width="297mm" xmlns="http://www.w3.org/2000/svg" xmlns:ev="http://www.w3.org/2001/xml-events" xmlns:xlink="http://www.w3.org/1999/xlink"><defs /><g transform="translate(43,30)"><path d="M 191,123 Q 140.5,30.0 18,9 Q 27.0,91.0 106,103 Q 126.5,146.5 207,130 Q 168.5,103.0 188,134" fill="none" stroke="black" stroke-width="2" /><path d="M 202,88 Q 220.5,31.0 151,62 Q 86.5,53.0 76,98 Q 169.5,106.0 193,44 Q 207.5,17.5 180,33" fill="none" stroke="black" stroke-width="2" /><path d="M 207,126 Q 143.0,93.5 39,101 Q 118.5,112.5 144,70 Q 90.5,36.0 121,86 Q 106.0,29.0 3,60" fill="none" stroke="black" stroke-width="2" /><path d="M 190,68 Q 95.0,18.5 100,69 Q 176.0,80.5 194,34 Q 100.0,29.0 100,118 Q 99.5,145.0 145,126" fill="none" stroke="black" stroke-width="2" /></g></svg>