<?xml version="1.0" encoding="utf-8" ?>
<svg baseProfile="full" height="210mm" version="1.1" viewBox="0 0 297 210" width="297mm" xmlns="http://www.w3.org/2000/svg" xmlns:ev="http://www.w3.org/2001/xml-events" xmlns:xlink="http://www.w3.org/1999/xlink"><defs /><g transform="translate(43,30)"><path d="M 190,136 Q 200.0,66.0 164,42 Q 142.0,93.5 202,63 Q 83.5,51.5 27,102 Q 78.5,98.0 84,48" fill="none" stroke="black" stroke-width="2" /><path d="M 3,99 Q 118.5,90.0 192,39 Q 165.0,-10.5 54,24 Q 155.5,49.5 203,21 Q 89.0,25.0 47,101" fill="none" stroke="black" stroke-width="2" /><path d="M 187,14 Q 60.0,32.5 21,139 Q 149.5,166.0 206,121 Q 236.5,59.0 191,73 Q 210.5,38.0 180,53" fill="none" stroke="black" stroke-width="2" /><path d="M 65,87 Q 77.5,34.5 44,28 Q -7.0,24.5 6,85 Q 60.0,125.5 180,100 Q 213.0,98.0 188,38" fill="none" stroke="black" stroke-width="2" /></g></svg>