<?xml version="1.0" encoding="utf-8" ?>
<svg baseProfile="full" height="210mm" version="1.1" viewBox="0 0 297 210" width="297mm" xmlns="http://www.w3.org/2000/svg" xmlns:ev="http://www.w3.org/2001/xml-events" xmlns:xlink="http://www.w3.org/1999/xlink"><defs /><g transform="translate(43,30)"><path d="M 173,55 Q 136.0,37.5 171,92 Q 172.5,23.0 104,24 Q 190.5,68.0 185,20 Q 179.5,-27.0 92,8" fill="none" stroke="black" stroke-width="2" /><path d="M 134,92 Q 89.0,82.0 92,120 Q 183.0,135.0 190,66 Q 175.5,16.0 95,32 Q 43.5,38.5 88,141" fill="none" stroke="black" stroke-width="2" /><path d="M 82,34 Q 22.5,4.0 29,40 Q 33.5,97.5 82,111 Q 155.5,149.5 143,102 Q 159.5,41.0 120,36" fill="none" stroke="black" stroke-width="2" /><path d="M 79,132 Q 61.5,181.5 138,137 Q 151.0,38.5 104,0 Q 90.5,95.5 121,147 Q 161.0,107.0 149,15" fill="none" stroke="black" stroke-width="2" /></g></svg>