<?xml version="1.0" encoding="utf-8" ?>
<svg baseProfile="full" height="210mm" version="1.1" viewBox="0 0 297 210" width="297mm" xmlns="http://www.w3.org/2000/svg" xmlns:ev="http://www.w3.org/2001/xml-events" xmlns:xlink="http://www.w3.org/1999/xlink"><defs /><g transform="translate(43,30)"><path d="M 53,2 Q 10.0,49.5 61,3 Q 39.5,46.5 74,34 Q 44.5,43.5 73,111 Q 138.0,118.0 157,79" fill="none" stroke="black" stroke-width="2" /><path d="M 87,101 Q 72.5,55.5 12,56 Q 58.5,112.0 177,96 Q 105.0,63.0 109,106 Q 129.0,126.5 189,107" fill="none" stroke="black" stroke-width="2" /><path d="M 44,49 Q 88.0,68.0 86,41 Q 71.5,93.5 115,88 Q 125.5,25.0 46,52 Q 72.5,126.5 177,123" fill="none" stroke="black" stroke-width="2" /><path d="M 173,85 Q 181.0,35.5 121,54 Q 109.0,104.0 173,78 Q 98.0,57.5 65,79 Q 123.0,98.0 131,67" fill="none" stroke="black" stroke-width="2" /></g></svg>