<?xml version="1.0" encoding="utf-8" ?>
<svg baseProfile="full" height="210mm" version="1.1" viewBox="0 0 297 210" width="297mm" xmlns="http://www.w3.org/2000/svg" xmlns:ev="http://www.w3.org/2001/xml-events" xmlns:xlink="http://www.w3.org/1999/xlink"><defs /><g transform="translate(43,30)"><path d="M 209,55 Q 144.0,36.0 177,115 Q 140.0,92.5 59,114 Q 78.5,21.0 6,20 Q -13.5,119.0 57,128" fill="none" stroke="black" stroke-width="2" /><path d="M 168,140 Q 132.0,91.5 0,139 Q 138.0,156.5 206,104 Q 213.5,17.0 133,18 Q 119.0,89.0 179,86" fill="none" stroke="black" stroke-width="2" /><path d="M 24,133 Q 139.0,93.5 200,0 Q 147.0,32.5 156,127 Q 151.0,54.0 52,75 Q 94.0,126.0 194,119" fill="none" stroke="black" stroke-width="2" /><path d="M 126,123 Q 86.0,109.5 98,148 Q 75.5,92.0 7,82 Q 21.5,147.0 112,136 Q 179.5,158.5 165,99" fill="none" stroke="black" stroke-width="2" /></g></svg>