<?xml version="1.0" encoding="utf-8" ?>
<svg baseProfile="full" height="210mm" version="1.1" viewBox="0 0 297 210" width="297mm" xmlns="http://www.w3.org/2000/svg" xmlns:ev="http://www.w3.org/2001/xml-events" xmlns:xlink="http://www.w3.org/1999/xlink"><defs /><g transform="translate(43,30)"><path d="M 44,21 Q 73.5,56.5 155,40 Q 65.5,25.0 38,72 Q 87.5,82.0 85,40 Q 151.0,84.5 123,35" fill="none" stroke="black" stroke-width="2" /><path d="M 101,23 Q 35.5,5.0 56,73 Q 113.0,77.5 88,0 Q 82.0,81.5 144,95 Q 94.0,65.0 132,123" fill="none" stroke="black" stroke-width="2" /><path d="M 75,139 Q 84.5,67.5 24,66 Q 3.0,131.5 52,127 Q 59.0,162.0 124,139 Q 169.5,156.5 149,108" fill="none" stroke="black" stroke-width="2" /><path d="M 9,128 Q 83.5,163.0 70,110 Q 96.5,22.0 33,24 Q 52.5,-7.0 16,18 Q -17.5,113.5 27,131" fill="none" stroke="black" stroke-width="2" /></g></svg>