<?xml version="1.0" encoding="utf-8" ?>
<svg baseProfile="full" height="210mm" version="1.1" viewBox="0 0 297 210" width="297mm" xmlns="http://www.w3.org/2000/svg" xmlns:ev="http://www.w3.org/2001/xml-events" xmlns:xlink="http://www.w3.org/1999/xlink"><defs /><g transform="translate(43,30)"><path d="M 92,1 Q 52.0,33.5 64,118 Q 68.5,48.5 9,43 Q 50.5,80.5 164,46 Q 116.0,64.0 114,128" fill="none" stroke="black" stroke-width="2" /><path d="M 70,8 Q 81.0,97.0 152,126 Q 143.0,76.0 92,68 Q 95.0,7.5 2,43 Q 99.0,76.0 124,37" fill="none" stroke="black" stroke-width="2" /><path d="M 163,50 Q 105.5,45.0 104,96 Q 47.5,67.5 89,137 Q 149.5,107.5 142,10 Q 87.5,31.5 121,141" fill="none" stroke="black" stroke-width="2" /><path d="M 64,65 Q 18.5,45.0 37,89 Q 81.0,105.5 41,38 Q 41.0,135.5 131,143 Q 215.0,125.5 201,10" fill="none" stroke="black" stroke-width="2" /></g></svg>