<?xml version="1.0" encoding="utf-8" ?>
<svg baseProfile="full" height="210mm" version="1.1" viewBox="0 0 297 210" width="297mm" xmlns="http://www.w3.org/2000/svg" xmlns:ev="http://www.w3.org/2001/xml-events" xmlns:xlink="http://www.w3.org/1999/xlink"><defs /><g transform="translate(43,30)"><path d="M 52,72 Q 102.0,127.5 204,131 Q 166.0,50.0 84,13 Q 30.0,35.0 40,121 Q 122.0,103.0 162,43" fill="none" stroke="black" stroke-width="2" /><path d="M 71,122 Q 69.0,169.5 161,123 Q 176.0,32.0 111,21 Q 154.0,43.0 149,17 Q 73.5,23.0 98,129" fill="none" stroke="black" stroke-width="2" /><path d="M 98,85 Q 175.0,89.5 158,0 Q 58.0,-33.0 26,2 Q -12.0,-6.5 4,39 Q 98.0,64.5 126,24" fill="none" stroke="black" stroke-width="2" /><path d="M 14,31 Q 37.5,86.0 109,93 Q 183.5,107.0 176,39 Q 91.5,19.0 101,93 Q 139.5,32.0 90,59" fill="none" stroke="black" stroke-width="2" /></g></svg>