<?xml version="1.0" encoding="utf-8" ?>
<svg baseProfile="full" height="210mm" version="1.1" viewBox="0 0 297 210" width="297mm" xmlns="http://www.w3.org/2000/svg" xmlns:ev="http://www.w3.org/2001/xml-events" xmlns:xlink="http://www.w3.org/1999/xlink"><defs /><g transform="translate(43,30)"><path d="M 64,81 Q 9.5,37.5 47,86 Q 59.0,141.5 163,105 Q 72.5,81.0 64,139 Q 126.5,149.5 133,104" fill="none" stroke="black" stroke-width="2" /><path d="M 128,102 Q 136.0,37.0 74,42 Q 157.5,59.0 167,2 Q 153.5,94.0 194,132 Q 240.5,175.0 195,126" fill="none" stroke="black" stroke-width="2" /><path d="M 82,122 Q 48.0,99.5 60,123 Q 60.0,84.5 8,98 Q 114.0,132.5 124,71 Q 112.5,2.0 31,3" fill="none" stroke="black" stroke-width="2" /><path d="M 145,82 Q 211.5,77.0 206,0 Q 143.0,18.0 140,96 Q 126.5,26.0 55,14 Q 81.5,56.5 174,33" fill="none" stroke="black" stroke-width="2" /></g></svg>