<?xml version="1.0" encoding="utf-8" ?>
<svg baseProfile="full" height="210mm" version="1.1" viewBox="0 0 297 210" width="297mm" xmlns="http://www.w3.org/2000/svg" xmlns:ev="http://www.w3.org/2001/xml-events" xmlns:xlink="http://www.w3.org/1999/xlink"><defs /><g transform="translate(43,30)"><path d="M 173,9 Q 132.5,103.5 184,106 Q 103.0,63.5 110,109 Q 94.0,152.5 128,146 Q 185.0,112.5 190,27" fill="none" stroke="black" stroke-width="2" /><path d="M 161,36 Q 99.0,4.0 127,62 Q 123.0,15.5 51,37 Q 91.0,105.5 209,96 Q 167.5,82.5 182,125" fill="none" stroke="black" stroke-width="2" /><path d="M 119,129 Q 123.5,35.0 50,19 Q 18.0,105.0 64,113 Q 143.5,121.5 171,78 Q 128.5,18.5 18,27" fill="none" stroke="black" stroke-width="2" /><path d="M 71,123 Q 93.0,67.0 47,79 Q 43.0,109.0 97,81 Q 139.5,105.5 104,52 Q 73.0,135.0 114,146" fill="none" stroke="black" stroke-width="2" /></g></svg>