<?xml version="1.0" encoding="utf-8" ?>
<svg baseProfile="full" height="210mm" version="1.1" viewBox="0 0 297 210" width="297mm" xmlns="http://www.w3.org/2000/svg" xmlns:ev="http://www.w3.org/2001/xml-events" xmlns:xlink="http://www.w3.org/1999/xlink"><defs /><g transform="translate(43,30)"><path d="M 149,85 Q 137.0,43.0 77,49 Q 26.5,44.5 46,110 Q 94.0,154.5 52,109 Q 77.5,33.0 21,39" fill="none" stroke="black" stroke-width="2" /><path d="M 112,54 Q 119.0,5.0 50,32 Q 125.5,66.5 129,29 Q 107.5,113.0 162,121 Q 146.0,77.5 90,74" fill="none" stroke="black" stroke-width="2" /><path d="M 103,75 Q 91.5,117.0 158,81 Q 145.5,5.5 41,22 Q -15.0,27.0 13,116 Q 39.0,165.0 149,130" fill="none" stroke="black" stroke-width="2" /><path d="M 190,101 Q 117.0,64.5 134,118 Q 155.0,74.5 90,117 Q 141.5,133.5 121,78 Q 152.5,4.5 108,7" fill="none" stroke="black" stroke-width="2" /></g></svg>