<?xml version="1.0" encoding="utf-8" ?>
<svg baseProfile="full" height="210mm" version="1.1" viewBox="0 0 297 210" width="297mm" xmlns="http://www.w3.org/2000/svg" xmlns:ev="http://www.w3.org/2001/xml-events" xmlns:xlink="http://www.w3.org/1999/xlink"><defs /><g transform="translate(43,30)"><path d="M 171,71 Q 136.5,44.5 52,68 Q 90.0,129.5 178,141 Q 188.0,89.5 152,84 Q 221.0,124.0 208,82" fill="none" stroke="black" stroke-width="2" /><path d="M 9,69 Q 62.5,138.5 180,144 Q 146.0,119.0 66,140 Q 173.5,112.0 199,2 Q 79.5,-18.0 44,46" fill="none" stroke="black" stroke-width="2" /><path d="M 1,119 Q 107.5,136.5 168,108 Q 227.0,133.0 198,70 Q 155.0,9.0 40,20 Q 14.0,42.0 30,106" fill="none" stroke="black" stroke-width="2" /><path d="M 37,62 Q 86.5,96.0 182,84 Q 95.0,65.5 48,87 Q 20.5,152.0 85,125 Q 138.5,106.0 136,31" fill="none" stroke="black" stroke-width="2" /></g></svg>