<?xml version="1.0" encoding="utf-8" ?>
<svg baseProfile="full" height="210mm" version="1.1" viewBox="0 0 297 210" width="297mm" xmlns="http://www.w3.org/2000/svg" xmlns:ev="http://www.w3.org/2001/xml-events" xmlns:xlink="http://www.w3.org/1999/xlink"><defs /><g transform="translate(43,30)"><path d="M 132,110 Q 55.5,69.5 79,129 Q 102.0,53.5 59,44 Q 73.5,115.0 156,118 Q 154.0,154.0 196,146" fill="none" stroke="black" stroke-width="2" /><path d="M 31,44 Q 73.5,101.5 202,73 Q 222.0,66.5 202,60 Q 203.5,-6.0 105,28 Q 93.5,111.5 148,129" fill="none" stroke="black" stroke-width="2" /><path d="M 171,8 Q 58.0,22.5 41,133 Q 14.0,114.5 31,140 Q 59.0,189.5 181,145 Q 208.5,34.5 154,6" fill="none" stroke="black" stroke-width="2" /><path d="M 22,92 Q 99.0,104.0 116,56 Q 113.5,122.5 173,127 Q 172.0,82.5 87,122 Q 157.0,96.5 181,25" fill="none" stroke="black" stroke-width="2" /></g></svg>