<?xml version="1.0" encoding="utf-8" ?>
<svg baseProfile="full" height="210mm" version="1.1" viewBox="0 0 297 210" width="297mm" xmlns="http://www.w3.org/2000/svg" xmlns:ev="http://www.w3.org/2001/xml-events" xmlns:xlink="http://www.w3.org/1999/xlink"><defs /><g transform="translate(43,30)"><path d="M 49,48 Q 34.0,96.0 101,62 Q 59.0,61.0 61,104 Q 120.0,98.5 95,9 Q 124.5,89.0 204,119" fill="none" stroke="black" stroke-width="2" /><path d="M 101,62 Q 56.5,48.5 78,101 Q 84.5,24.5 33,6 Q 54.5,107.0 156,128 Q 198.5,112.5 159,15" fill="none" stroke="black" stroke-width="2" /><path d="M 63,109 Q 108.5,107.5 72,24 Q 124.5,52.5 119,23 Q 39.0,30.0 11,89 Q 6.5,161.0 98,137" fill="none" stroke="black" stroke-width="2" /><path d="M 118,49 Q 72.5,39.0 99,101 Q 80.0,66.5 17,76 Q 37.5,127.5 136,101 Q 211.0,133.5 202,82" fill="none" stroke="black" stroke-width="2" /></g></svg>