<?xml version="1.0" encoding="utf-8" ?>
<svg baseProfile="full" height="210mm" version="1.1" viewBox="0 0 297 210" width="297mm" xmlns="http://www.w3.org/2000/svg" xmlns:ev="http://www.w3.org/2001/xml-events" xmlns:xlink="http://www.w3.org/1999/xlink"><defs /><g transform="translate(43,30)"><path d="M 103,24 Q 99.5,79.5 142,89 Q 41.5,67.5 13,118 Q 109.5,156.5 112,101 Q 61.0,65.0 108,127" fill="none" stroke="black" stroke-width="2" /><path d="M 100,148 Q 112.0,62.5 42,59 Q 62.0,10.5 2,42 Q -22.0,120.5 36,117 Q 103.0,108.0 90,19" fill="none" stroke="black" stroke-width="2" /><path d="M 163,52 Q 65.5,57.5 50,145 Q 73.5,113.5 45,134 Q 60.5,48.5 14,25 Q 56.5,114.5 189,114" fill="none" stroke="black" stroke-width="2" /><path d="M 14,36 Q 77.5,99.5 195,109 Q 211.0,46.5 163,48 Q 85.5,51.5 98,145 Q 112.0,89.5 28,132" fill="none" stroke="black" stroke-width="2" /></g></svg>