<?xml version="1.0" encoding="utf-8" ?>
<svg baseProfile="full" height="210mm" version="1.1" viewBox="0 0 297 210" width="297mm" xmlns="http://www.w3.org/2000/svg" xmlns:ev="http://www.w3.org/2001/xml-events" xmlns:xlink="http://www.w3.org/1999/xlink"><defs /><g transform="translate(43,30)"><path d="M 209,93 Q 210.5,23.0 146,19 Q 61.5,-2.5 27,26 Q 48.0,76.5 143,53 Q 57.5,46.5 32,100" fill="none" stroke="black" stroke-width="2" /><path d="M 102,126 Q 160.0,122.0 120,20 Q 92.5,55.0 125,30 Q 119.5,-23.0 38,0 Q -3.5,98.0 43,108" fill="none" stroke="black" stroke-width="2" /><path d="M 95,112 Q 149.0,97.5 153,33 Q 79.0,17.5 103,100 Q 111.0,10.5 29,11 Q 63.5,116.5 180,140" fill="none" stroke="black" stroke-width="2" /><path d="M 137,30 Q 64.0,-11.0 79,36 Q 108.5,-6.0 70,20 Q 103.0,-28.5 50,9 Q 38.5,74.0 103,63" fill="none" stroke="black" stroke-width="2" /></g></svg>