<?xml version="1.0" encoding="utf-8" ?>
<svg baseProfile="full" height="210mm" version="1.1" viewBox="0 0 297 210" width="297mm" xmlns="http://www.w3.org/2000/svg" xmlns:ev="http://www.w3.org/2001/xml-events" xmlns:xlink="http://www.w3.org/1999/xlink"><defs /><g transform="translate(43,30)"><path d="M 3,28 Q 50.5,111.5 170,123 Q 127.5,58.0 13,65 Q 76.0,88.0 67,39 Q 78.0,87.0 169,55" fill="none" stroke="black" stroke-width="2" /><path d="M 17,122 Q 92.0,89.0 125,14 Q 108.5,46.5 150,21 Q 131.0,69.5 158,72 Q 151.5,14.5 79,23" fill="none" stroke="black" stroke-width="2" /><path d="M 152,93 Q 228.5,120.5 205,48 Q 64.5,24.5 24,101 Q 68.5,31.5 15,60 Q 60.0,119.5 195,89" fill="none" stroke="black" stroke-width="2" /><path d="M 62,32 Q 28.0,113.0 72,116 Q 117.0,112.0 104,50 Q 163.5,68.5 163,27 Q 186.5,-25.0 114,19" fill="none" stroke="black" stroke-width="2" /></g></svg>