<?xml version="1.0" encoding="utf-8" ?>
<svg baseProfile="full" height="210mm" version="1.1" viewBox="0 0 297 210" width="297mm" xmlns="http://www.w3.org/2000/svg" xmlns:ev="http://www.w3.org/2001/xml-events" xmlns:xlink="http://www.w3.org/1999/xlink"><defs /><g transform="translate(43,30)"><path d="M 153,86 Q 196.5,84.0 170,12 Q 143.0,70.5 176,69 Q 173.0,-5.0 88,3 Q 53.5,-28.0 19,3" fill="none" stroke="black" stroke-width="2" /><path d="M 19,53 Q 107.5,61.0 148,21 Q 147.5,87.5 209,92 Q 224.5,39.5 152,75 Q 65.5,44.5 67,102" fill="none" stroke="black" stroke-width="2" /><path d="M 17,120 Q 33.0,45.0 1,18 Q 4.5,101.0 52,140 Q 135.5,122.5 177,63 Q 115.5,18.0 8,19" fill="none" stroke="black" stroke-width="2" /><path d="M 120,101 Q 16.5,74.0 3,137 Q 60.0,117.0 59,39 Q -5.5,41.5 0,114 Q 30.0,151.5 112,137" fill="none" stroke="black" stroke-width="2" /></g></svg>