<?xml version="1.0" encoding="utf-8" ?>
<svg baseProfile="full" height="210mm" version="1.1" viewBox="0 0 297 210" width="297mm" xmlns="http://www.w3.org/2000/svg" xmlns:ev="http://www.w3.org/2001/xml-events" xmlns:xlink="http://www.w3.org/1999/xlink"><defs /><g transform="translate(43,30)"><path d="M 177,92 Q 143.5,8.5 22,13 Q 14.0,109.5 100,112 Q 132.0,124.5 102,75 Q 30.5,58.0 35,117" fill="none" stroke="black" stroke-width="2" /><path d="M 85,137 Q 116.0,133.5 89,72 Q 136.0,59.0 139,2 Q 43.5,13.5 18,95 Q 73.5,95.0 87,53" fill="none" stroke="black" stroke-width="2" /><path d="M 167,88 Q 176.0,63.0 143,80 Q 159.0,18.0 83,48 Q 21.0,26.5 51,97 Q 119.0,116.5 111,60" fill="none" stroke="black" stroke-width="2" /><path d="M 117,70 Q 100.0,10.0 17,16 Q 15.0,87.5 109,63 Q 40.0,66.0 39,137 Q 117.0,155.5 135,114" fill="none" stroke="black" stroke-width="2" /></g></svg>