<?xml version="1.0" encoding="utf-8" ?>
<svg baseProfile="full" height="210mm" version="1.1" viewBox="0 0 297 210" width="297mm" xmlns="http://www.w3.org/2000/svg" xmlns:ev="http://www.w3.org/2001/xml-events" xmlns:xlink="http://www.w3.org/1999/xlink"><defs /><g transform="translate(43,30)"><path d="M 54,22 Q 90.0,84.5 210,63 Q 158.5,46.5 207,130 Q 165.0,104.0 187,142 Q 61.0,97.5 29,147" fill="none" stroke="black" stroke-width="2" /><path d="M 101,64 Q 103.0,8.5 39,19 Q 31.0,55.5 83,32 Q 72.5,-8.0 2,12 Q -41.0,62.0 12,16" fill="none" stroke="black" stroke-width="2" /><path d="M 63,131 Q 146.5,133.0 168,73 Q 205.0,8.0 142,43 Q 130.5,-8.0 51,9 Q 7.0,5.0 43,81" fill="none" stroke="black" stroke-width="2" /><path d="M 167,1 Q 77.0,-30.5 57,8 Q 25.5,49.0 60,24 Q 86.5,75.5 163,77 Q 160.0,97.5 197,78" fill="none" stroke="black" stroke-width="2" /></g></svg>