<?xml version="1.0" encoding="utf-8" ?>
<svg baseProfile="full" height="210mm" version="1.1" viewBox="0 0 297 210" width="297mm" xmlns="http://www.w3.org/2000/svg" xmlns:ev="http://www.w3.org/2001/xml-events" xmlns:xlink="http://www.w3.org/1999/xlink"><defs /><g transform="translate(43,30)"><path d="M 166,92 Q 205.5,112.5 199,87 Q 113.0,71.0 81,109 Q 159.5,139.5 166,98 Q 113.5,54.5 9,63" fill="none" stroke="black" stroke-width="2" /><path d="M 105,89 Q 195.0,119.0 209,73 Q 181.0,-1.5 69,8 Q 65.0,87.5 135,93 Q 179.5,119.5 144,66" fill="none" stroke="black" stroke-width="2" /><path d="M 46,71 Q 60.0,137.5 158,120 Q 165.5,37.5 93,35 Q 12.0,26.0 7,93 Q 25.0,128.5 103,104" fill="none" stroke="black" stroke-width="2" /><path d="M 64,100 Q 90.0,157.5 188,143 Q 142.5,88.0 41,89 Q -4.0,81.5 5,128 Q -9.0,183.0 67,148" fill="none" stroke="black" stroke-width="2" /></g></svg>