<?xml version="1.0" encoding="utf-8" ?>
<svg baseProfile="full" height="210mm" version="1.1" viewBox="0 0 297 210" width="297mm" xmlns="http://www.w3.org/2000/svg" xmlns:ev="http://www.w3.org/2001/xml-events" xmlns:xlink="http://www.w3.org/1999/xlink"><defs /><g transform="translate(43,30)"><path d="M 123,127 Q 128.0,66.0 77,61 Q 65.0,35.5 11,52 Q -19.5,113.5 50,75 Q 49.0,105.5 100,84" fill="none" stroke="black" stroke-width="2" /><path d="M 81,89 Q 121.5,91.0 98,29 Q 75.5,73.0 103,67 Q 99.5,139.5 190,118 Q 185.5,56.5 103,73" fill="none" stroke="black" stroke-width="2" /><path d="M 169,74 Q 149.5,46.5 78,71 Q 59.5,102.0 97,77 Q 171.0,112.5 161,64 Q 184.0,16.5 117,59" fill="none" stroke="black" stroke-width="2" /><path d="M 35,11 Q 109.5,48.5 104,6 Q 82.0,92.5 120,119 Q 159.0,137.0 130,87 Q 135.0,21.5 86,10" fill="none" stroke="black" stroke-width="2" /></g></svg>