<?xml version="1.0" encoding="utf-8" ?>
<svg baseProfile="full" height="210mm" version="1.1" viewBox="0 0 297 210" width="297mm" xmlns="http://www.w3.org/2000/svg" xmlns:ev="http://www.w3.org/2001/xml-events" xmlns:xlink="http://www.w3.org/1999/xlink"><defs /><g transform="translate(43,30)"><path d="M 16,86 Q 3.5,140.0 85,100 Q 83.5,41.0 12,52 Q 42.0,138.5 172,125 Q 185.5,31.0 103,33" fill="none" stroke="black" stroke-width="2" /><path d="M 5,48 Q 106.0,65.0 157,32 Q 61.0,28.0 29,88 Q 116.0,81.0 149,20 Q 70.0,15.0 81,100" fill="none" stroke="black" stroke-width="2" /><path d="M 126,37 Q 165.5,54.0 137,3 Q 93.5,92.5 138,94 Q 62.5,67.5 75,129 Q 100.5,23.0 42,1" fill="none" stroke="black" stroke-width="2" /><path d="M 203,36 Q 152.5,18.0 186,84 Q 153.0,52.5 58,83 Q 23.0,86.5 44,146 Q 145.5,146.5 179,79" fill="none" stroke="black" stroke-width="2" /></g></svg>