<?xml version="1.0" encoding="utf-8" ?>
<svg baseProfile="full" height="210mm" version="1.1" viewBox="0 0 297 210" width="297mm" xmlns="http://www.w3.org/2000/svg" xmlns:ev="http://www.w3.org/2001/xml-events" xmlns:xlink="http://www.w3.org/1999/xlink"><defs /><g transform="translate(43,30)"><path d="M 99,9 Q 77.0,61.5 149,20 Q 108.5,42.5 146,143 Q 137.0,74.0 50,83 Q 14.5,150.0 71,125" fill="none" stroke="black" stroke-width="2" /><path d="M 40,68 Q 51.5,96.5 115,73 Q 81.5,19.5 0,14 Q 46.5,79.5 173,65 Q 79.0,42.5 69,104" fill="none" stroke="black" stroke-width="2" /><path d="M 93,120 Q 170.5,102.5 208,45 Q 135.0,6.5 140,46 Q 87.5,49.0 97,114 Q 142.0,115.0 117,46" fill="none" stroke="black" stroke-width="2" /><path d="M 166,101 Q 124.0,47.5 18,58 Q 118.0,56.0 178,14 Q 131.5,15.5 147,79 Q 108.0,26.5 5,38" fill="none" stroke="black" stroke-width="2" /></g></svg>