<?xml version="1.0" encoding="utf-8" ?>
<svg baseProfile="full" height="210mm" version="1.1" viewBox="0 0 297 210" width="297mm" xmlns="http://www.w3.org/2000/svg" xmlns:ev="http://www.w3.org/2001/xml-events" xmlns:xlink="http://www.w3.org/1999/xlink"><defs /><g transform="translate(43,30)"><path d="M 176,133 Q 187.5,58.5 117,66 Q 149.5,74.0 126,26 Q 109.5,112.5 187,105 Q 114.5,80.0 94,107" fill="none" stroke="black" stroke-width="2" /><path d="M 66,122 Q 103.0,132.0 74,76 Q 88.0,124.0 196,78 Q 165.0,19.5 64,31 Q 77.5,91.0 169,73" fill="none" stroke="black" stroke-width="2" /><path d="M 55,78 Q 87.0,4.5 27,23 Q 38.5,112.0 108,143 Q 100.0,86.5 20,102 Q 66.0,144.0 156,142" fill="none" stroke="black" stroke-width="2" /><path d="M 55,142 Q 155.5,160.0 190,112 Q 152.5,91.0 173,128 Q 159.0,77.0 47,124 Q 101.5,89.5 110,9" fill="none" stroke="black" stroke-width="2" /></g></svg>