<?xml version="1.0" encoding="utf-8" ?>
<svg baseProfile="full" height="210mm" version="1.1" viewBox="0 0 297 210" width="297mm" xmlns="http://www.w3.org/2000/svg" xmlns:ev="http://www.w3.org/2001/xml-events" xmlns:xlink="http://www.w3.org/1999/xlink"><defs /><g transform="translate(43,30)"><path d="M 160,27 Q 60.5,-13.5 57,42 Q 9.5,18.5 24,57 Q 162.5,94.0 209,39 Q 143.0,3.5 155,46" fill="none" stroke="black" stroke-width="2" /><path d="M 142,26 Q 106.5,66.0 113,148 Q 195.5,138.5 188,39 Q 138.5,34.0 163,103 Q 167.0,28.0 121,3" fill="none" stroke="black" stroke-width="2" /><path d="M 161,46 Q 89.5,40.5 58,75 Q 123.5,77.0 113,3 Q 47.5,44.0 22,125 Q 18.0,78.0 14,125" fill="none" stroke="black" stroke-width="2" /><path d="M 96,135 Q 154.0,182.5 116,134 Q 185.0,129.0 202,72 Q 128.0,65.5 112,117 Q 130.0,49.5 70,60" fill="none" stroke="black" stroke-width="2" /></g></svg>