<?xml version="1.0" encoding="utf-8" ?>
<svg baseProfile="full" height="210mm" version="1.1" viewBox="0 0 297 210" width="297mm" xmlns="http://www.w3.org/2000/svg" xmlns:ev="http://www.w3.org/2001/xml-events" xmlns:xlink="http://www.w3.org/1999/xlink"><defs /><g transform="translate(43,30)"><path d="M 195,133 Q 211.0,75.0 133,111 Q 78.5,95.0 82,137 Q 133.0,182.5 86,130 Q 148.5,138.5 171,107" fill="none" stroke="black" stroke-width="2" /><path d="M 171,65 Q 64.0,31.5 25,66 Q 144.0,78.5 183,11 Q 127.5,20.5 152,110 Q 138.5,76.0 61,106" fill="none" stroke="black" stroke-width="2" /><path d="M 130,102 Q 199.5,122.0 191,64 Q 149.0,60.0 159,108 Q 205.0,126.5 209,103 Q 137.0,74.5 163,144" fill="none" stroke="black" stroke-width="2" /><path d="M 81,145 Q 101.0,139.0 81,133 Q 101.5,79.0 22,125 Q 9.0,161.0 54,139 Q 103.0,151.0 104,115" fill="none" stroke="black" stroke-width="2" /></g></svg>