<?xml version="1.0" encoding="utf-8" ?>
<svg baseProfile="full" height="210mm" version="1.1" viewBox="0 0 297 210" width="297mm" xmlns="http://www.w3.org/2000/svg" xmlns:ev="http://www.w3.org/2001/xml-events" xmlns:xlink="http://www.w3.org/1999/xlink"><defs /><g transform="translate(43,30)"><path d="M 34,5 Q -6.0,9.0 24,83 Q 140.0,80.5 184,6 Q 130.0,-6.0 132,38 Q 45.5,57.0 19,136" fill="none" stroke="black" stroke-width="2" /><path d="M 203,18 Q 80.5,5.0 4,38 Q 7.5,74.0 57,64 Q 51.5,101.5 98,87 Q 118.5,37.0 85,41" fill="none" stroke="black" stroke-width="2" /><path d="M 79,25 Q 8.0,16.0 27,97 Q 146.0,128.5 165,60 Q 144.0,36.5 83,53 Q 118.0,63.0 109,29" fill="none" stroke="black" stroke-width="2" /><path d="M 128,68 Q 37.0,59.0 14,118 Q 107.0,139.0 128,88 Q 104.5,28.0 27,22 Q 86.0,103.5 185,145" fill="none" stroke="black" stroke-width="2" /></g></svg>