<?xml version="1.0" encoding="utf-8" ?>
<svg baseProfile="full" height="210mm" version="1.1" viewBox="0 0 297 210" width="297mm" xmlns="http://www.w3.org/2000/svg" xmlns:ev="http://www.w3.org/2001/xml-events" xmlns:xlink="http://www.w3.org/1999/xlink"><defs /><g transform="translate(43,30)"><path d="M 106,118 Q 167.5,107.0 151,18 Q 98.0,-7.5 3,9 Q -25.0,63.0 45,19 Q 32.0,122.5 109,136" fill="none" stroke="black" stroke-width="2" /><path d="M 163,139 Q 106.0,107.5 3,122 Q 72.0,122.5 41,23 Q 64.5,81.5 180,48 Q 163.0,7.0 100,12" fill="none" stroke="black" stroke-width="2" /><path d="M 89,123 Q 168.5,119.5 166,34 Q 98.5,37.0 79,88 Q 138.5,116.5 100,47 Q 152.0,62.5 136,10" fill="none" stroke="black" stroke-width="2" /><path d="M 36,77 Q 92.0,72.0 94,13 Q 40.5,12.5 75,100 Q 49.5,84.5 68,113 Q 180.5,146.5 205,92" fill="none" stroke="black" stroke-width="2" /></g></svg>