<?xml version="1.0" encoding="utf-8" ?>
<svg baseProfile="full" height="210mm" version="1.1" viewBox="0 0 297 210" width="297mm" xmlns="http://www.w3.org/2000/svg" xmlns:ev="http://www.w3.org/2001/xml-events" xmlns:xlink="http://www.w3.org/1999/xlink"><defs /><g transform="translate(43,30)"><path d="M 39,63 Q 61.0,110.0 175,65 Q 195.0,6.0 145,17 Q 114.5,132.0 184,147 Q 127.5,54.5 29,4" fill="none" stroke="black" stroke-width="2" /><path d="M 146,93 Q 99.0,77.5 110,120 Q 62.0,100.5 54,121 Q 58.5,87.5 21,96 Q -8.0,154.0 29,146" fill="none" stroke="black" stroke-width="2" /><path d="M 25,35 Q 4.5,120.5 46,144 Q 112.0,151.5 138,119 Q 144.0,77.5 98,88 Q 32.5,88.0 15,136" fill="none" stroke="black" stroke-width="2" /><path d="M 47,71 Q 83.5,95.5 168,72 Q 111.5,36.5 153,99 Q 53.0,79.0 41,147 Q 82.5,50.0 28,49" fill="none" stroke="black" stroke-width="2" /></g></svg>