<?xml version="1.0" encoding="utf-8" ?>
<svg baseProfile="full" height="210mm" version="1.1" viewBox="0 0 297 210" width="297mm" xmlns="http://www.w3.org/2000/svg" xmlns:ev="http://www.w3.org/2001/xml-events" xmlns:xlink="http://www.w3.org/1999/xlink"><defs /><g transform="translate(43,30)"><path d="M 87,85 Q 35.0,83.5 49,148 Q 117.0,173.5 127,141 Q 160.5,46.0 100,45 Q 9.0,33.5 14,118" fill="none" stroke="black" stroke-width="2" /><path d="M 159,87 Q 145.0,49.5 79,64 Q 75.5,132.0 140,132 Q 135.5,56.5 41,71 Q 124.5,91.5 118,22" fill="none" stroke="black" stroke-width="2" /><path d="M 132,0 Q 69.5,36.0 47,112 Q 126.5,129.0 118,58 Q 129.5,98.5 209,71 Q 239.0,28.0 195,59" fill="none" stroke="black" stroke-width="2" /><path d="M 88,20 Q 34.0,14.5 22,51 Q 63.0,90.0 174,59 Q 237.0,107.0 200,55 Q 148.0,46.5 154,96" fill="none" stroke="black" stroke-width="2" /></g></svg>