<?xml version="1.0" encoding="utf-8" ?>
<svg baseProfile="full" height="210mm" version="1.1" viewBox="0 0 297 210" width="297mm" xmlns="http://www.w3.org/2000/svg" xmlns:ev="http://www.w3.org/2001/xml-events" xmlns:xlink="http://www.w3.org/1999/xlink"><defs /><g transform="translate(43,30)"><path d="M 98,69 Q 44.0,67.5 44,120 Q 47.5,163.5 129,129 Q 149.0,79.5 73,126 Q 99.0,157.0 185,128" fill="none" stroke="black" stroke-width="2" /><path d="M 128,10 Q 118.5,48.5 163,33 Q 112.0,6.5 13,28 Q 30.0,115.0 117,132 Q 97.5,100.5 22,125" fill="none" stroke="black" stroke-width="2" /><path d="M 40,92 Q 61.5,41.0 25,48 Q -14.5,131.0 46,114 Q 163.5,140.0 181,66 Q 192.0,20.0 129,48" fill="none" stroke="black" stroke-width="2" /><path d="M 162,70 Q 181.5,7.5 121,25 Q 111.5,86.5 168,82 Q 112.5,57.0 15,74 Q 127.5,105.0 146,42" fill="none" stroke="black" stroke-width="2" /></g></svg>