<?xml version="1.0" encoding="utf-8" ?>
<svg baseProfile="full" height="210mm" version="1.1" viewBox="0 0 297 210" width="297mm" xmlns="http://www.w3.org/2000/svg" xmlns:ev="http://www.w3.org/2001/xml-events" xmlns:xlink="http://www.w3.org/1999/xlink"><defs /><g transform="translate(43,30)"><path d="M 126,113 Q 205.5,97.0 205,1 Q 113.0,6.5 71,62 Q 24.0,62.5 51,137 Q -0.5,100.5 22,138" fill="none" stroke="black" stroke-width="2" /><path d="M 134,55 Q 198.0,70.5 180,4 Q 129.5,30.0 135,112 Q 200.5,127.0 186,62 Q 156.5,18.5 57,45" fill="none" stroke="black" stroke-width="2" /><path d="M 27,106 Q 78.0,127.5 39,59 Q 0.0,65.0 31,141 Q 63.0,55.5 9,56 Q 52.5,99.0 180,58" fill="none" stroke="black" stroke-width="2" /><path d="M 108,62 Q 97.0,8.5 38,3 Q 17.0,43.0 72,7 Q 17.5,44.0 29,147 Q 64.0,153.0 55,115" fill="none" stroke="black" stroke-width="2" /></g></svg>