<?xml version="1.0" encoding="utf-8" ?>
<svg baseProfile="full" height="210mm" version="1.1" viewBox="0 0 297 210" width="297mm" xmlns="http://www.w3.org/2000/svg" xmlns:ev="http://www.w3.org/2001/xml-events" xmlns:xlink="http://www.w3.org/1999/xlink"><defs /><g transform="translate(43,30)"><path d="M 124,115 Q 103.0,39.5 38,8 Q 20.0,112.0 88,130 Q 118.5,113.0 95,42 Q 70.0,70.0 89,142" fill="none" stroke="black" stroke-width="2" /><path d="M 175,144 Q 164.0,86.0 105,76 Q 98.5,106.0 148,80 Q 110.5,30.0 23,30 Q 25.5,82.0 74,88" fill="none" stroke="black" stroke-width="2" /><path d="M 186,18 Q 56.0,11.5 8,87 Q 48.5,161.5 185,140 Q 127.5,98.0 0,126 Q 98.0,98.0 148,22" fill="none" stroke="black" stroke-width="2" /><path d="M 73,121 Q 143.0,134.5 127,62 Q 117.5,110.0 156,110 Q 140.5,63.0 49,92 Q 94.5,145.0 202,136" fill="none" stroke="black" stroke-width="2" /></g></svg>