<?xml version="1.0" encoding="utf-8" ?>
<svg baseProfile="full" height="210mm" version="1.1" viewBox="0 0 297 210" width="297mm" xmlns="http://www.w3.org/2000/svg" xmlns:ev="http://www.w3.org/2001/xml-events" xmlns:xlink="http://www.w3.org/1999/xlink"><defs /><g transform="translate(43,30)"><path d="M 75,111 Q 74.0,62.0 19,67 Q 15.0,114.0 63,109 Q 126.5,105.0 138,49 Q 213.0,84.5 194,26" fill="none" stroke="black" stroke-width="2" /><path d="M 137,36 Q 98.5,19.5 130,73 Q 95.5,15.0 15,3 Q -14.5,104.0 20,141 Q 77.0,156.5 94,132" fill="none" stroke="black" stroke-width="2" /><path d="M 151,41 Q 168.0,-4.0 97,39 Q 65.0,44.5 85,102 Q 101.5,46.5 60,49 Q 51.0,81.5 106,50" fill="none" stroke="black" stroke-width="2" /><path d="M 100,18 Q 25.5,6.5 49,93 Q 138.5,115.0 162,71 Q 132.0,5.5 40,2 Q 57.0,75.5 124,99" fill="none" stroke="black" stroke-width="2" /></g></svg>