<?xml version="1.0" encoding="utf-8" ?>
<svg baseProfile="full" height="210mm" version="1.1" viewBox="0 0 297 210" width="297mm" xmlns="http://www.w3.org/2000/svg" xmlns:ev="http://www.w3.org/2001/xml-events" xmlns:xlink="http://www.w3.org/1999/xlink"><defs /><g transform="translate(43,30)"><path d="M 88,83 Q 132.0,98.0 132,69 Q 196.0,74.0 204,23 Q 165.5,52.5 185,140 Q 191.0,74.5 141,65" fill="none" stroke="black" stroke-width="2" /><path d="M 53,62 Q 102.0,78.5 59,3 Q 65.0,40.0 139,9 Q 93.5,-2.0 102,41 Q 99.5,99.5 171,84" fill="none" stroke="black" stroke-width="2" /><path d="M 73,131 Q 68.5,69.0 2,69 Q 33.5,122.5 159,82 Q 155.5,107.0 194,90 Q 211.0,36.5 178,33" fill="none" stroke="black" stroke-width="2" /><path d="M 109,99 Q 106.5,24.5 18,36 Q 20.5,107.0 109,92 Q 58.5,71.0 84,126 Q 121.0,142.0 114,114" fill="none" stroke="black" stroke-width="2" /></g></svg>