<?xml version="1.0" encoding="utf-8" ?>
<svg baseProfile="full" height="210mm" version="1.1" viewBox="0 0 297 210" width="297mm" xmlns="http://www.w3.org/2000/svg" xmlns:ev="http://www.w3.org/2001/xml-events" xmlns:xlink="http://www.w3.org/1999/xlink"><defs /><g transform="translate(43,30)"><path d="M 63,98 Q 164.0,89.5 191,7 Q 129.5,29.0 136,119 Q 124.0,87.0 66,101 Q 162.0,82.0 196,1" fill="none" stroke="black" stroke-width="2" /><path d="M 9,71 Q 85.0,100.5 209,82 Q 183.5,53.0 114,68 Q 134.0,114.0 206,108 Q 182.0,21.5 84,9" fill="none" stroke="black" stroke-width="2" /><path d="M 34,80 Q 80.5,85.5 39,3 Q -13.5,-40.5 34,16 Q 76.0,89.5 198,83 Q 153.0,44.5 196,94" fill="none" stroke="black" stroke-width="2" /><path d="M 139,109 Q 85.0,85.5 87,118 Q 82.0,60.0 9,70 Q 36.5,65.0 16,12 Q 15.0,86.5 92,83" fill="none" stroke="black" stroke-width="2" /></g></svg>