<?xml version="1.0" encoding="utf-8" ?>
<svg baseProfile="full" height="210mm" version="1.1" viewBox="0 0 297 210" width="297mm" xmlns="http://www.w3.org/2000/svg" xmlns:ev="http://www.w3.org/2001/xml-events" xmlns:xlink="http://www.w3.org/1999/xlink"><defs /><g transform="translate(43,30)"><path d="M 18,104 Q -3.5,145.0 39,122 Q 142.0,139.5 195,107 Q 207.0,13.5 119,20 Q 33.0,24.5 25,107" fill="none" stroke="black" stroke-width="2" /><path d="M 198,140 Q 157.5,41.0 31,28 Q 24.5,124.5 106,133 Q 116.0,52.5 58,40 Q 10.5,61.5 27,147" fill="none" stroke="black" stroke-width="2" /><path d="M 179,64 Q 95.5,30.5 104,89 Q 107.5,15.0 25,27 Q 2.0,43.5 19,100 Q 132.0,145.5 153,99" fill="none" stroke="black" stroke-width="2" /><path d="M 179,87 Q 183.5,43.0 110,77 Q 65.0,135.0 118,95 Q 59.5,57.5 91,110 Q 89.5,57.0 20,72" fill="none" stroke="black" stroke-width="2" /></g></svg>