<?xml version="1.0" encoding="utf-8" ?>
<svg baseProfile="full" height="210mm" version="1.1" viewBox="0 0 297 210" width="297mm" xmlns="http://www.w3.org/2000/svg" xmlns:ev="http://www.w3.org/2001/xml-events" xmlns:xlink="http://www.w3.org/1999/xlink"><defs /><g transform="translate(43,30)"><path d="M 160,42 Q 91.0,2.5 116,57 Q 106.0,10.5 6,54 Q 82.0,52.0 116,8 Q 50.0,-8.5 64,55" fill="none" stroke="black" stroke-width="2" /><path d="M 192,64 Q 156.0,52.0 166,86 Q 55.5,82.5 5,139 Q 19.5,167.5 86,144 Q 99.0,62.0 66,26" fill="none" stroke="black" stroke-width="2" /><path d="M 24,97 Q 24.5,155.0 125,113 Q 182.5,127.0 174,75 Q 162.5,122.5 203,118 Q 161.0,93.0 175,124" fill="none" stroke="black" stroke-width="2" /><path d="M 37,83 Q 150.5,91.5 176,12 Q 73.0,34.0 26,112 Q 143.0,98.5 210,35 Q 172.5,61.0 183,135" fill="none" stroke="black" stroke-width="2" /></g></svg>