<?xml version="1.0" encoding="utf-8" ?>
<svg baseProfile="full" height="210mm" version="1.1" viewBox="0 0 297 210" width="297mm" xmlns="http://www.w3.org/2000/svg" xmlns:ev="http://www.w3.org/2001/xml-events" xmlns:xlink="http://www.w3.org/1999/xlink"><defs /><g transform="translate(43,30)"><path d="M 164,90 Q 158.5,25.5 65,49 Q 0.0,30.5 11,88 Q 106.5,110.5 148,79 Q 176.0,6.5 116,22" fill="none" stroke="black" stroke-width="2" /><path d="M 85,32 Q 70.0,86.5 103,93 Q 124.0,63.5 91,88 Q 149.0,85.0 141,16 Q 82.0,35.5 65,97" fill="none" stroke="black" stroke-width="2" /><path d="M 184,120 Q 177.0,35.0 84,36 Q 78.5,105.5 133,115 Q 217.5,144.5 208,80 Q 173.0,62.5 178,85" fill="none" stroke="black" stroke-width="2" /><path d="M 146,66 Q 100.0,69.5 146,73 Q 141.5,46.5 89,68 Q 48.5,46.0 80,96 Q 111.0,103.5 90,59" fill="none" stroke="black" stroke-width="2" /></g></svg>