<?xml version="1.0" encoding="utf-8" ?>
<svg baseProfile="full" height="210mm" version="1.1" viewBox="0 0 297 210" width="297mm" xmlns="http://www.w3.org/2000/svg" xmlns:ev="http://www.w3.org/2001/xml-events" xmlns:xlink="http://www.w3.org/1999/xlink"><defs /><g transform="translate(43,30)"><path d="M 68,38 Q -7.0,13.0 12,82 Q 123.0,67.5 184,3 Q 167.5,86.0 203,117 Q 208.0,25.5 141,6" fill="none" stroke="black" stroke-width="2" /><path d="M 83,63 Q 24.0,74.0 15,135 Q 134.0,116.0 189,33 Q 157.0,121.0 209,125 Q 190.0,72.0 111,79" fill="none" stroke="black" stroke-width="2" /><path d="M 55,37 Q 165.0,72.5 197,30 Q 174.5,6.0 110,24 Q 33.5,3.0 39,64 Q 41.0,114.5 87,121" fill="none" stroke="black" stroke-width="2" /><path d="M 115,119 Q 125.0,50.0 43,73 Q 6.5,142.5 70,112 Q 140.0,101.5 158,39 Q 74.5,40.5 91,142" fill="none" stroke="black" stroke-width="2" /></g></svg>