<?xml version="1.0" encoding="utf-8" ?>
<svg baseProfile="full" height="210mm" version="1.1" viewBox="0 0 297 210" width="297mm" xmlns="http://www.w3.org/2000/svg" xmlns:ev="http://www.w3.org/2001/xml-events" xmlns:xlink="http://www.w3.org/1999/xlink"><defs /><g transform="translate(43,30)"><path d="M 69,8 Q 101.0,94.0 203,110 Q 114.5,75.0 114,128 Q 136.5,55.0 67,74 Q 104.5,66.0 84,0" fill="none" stroke="black" stroke-width="2" /><path d="M 28,127 Q 48.5,181.5 159,146 Q 167.5,189.0 176,146 Q 196.5,98.5 133,135 Q 184.5,146.0 148,69" fill="none" stroke="black" stroke-width="2" /><path d="M 37,16 Q -18.0,19.0 19,114 Q 68.0,156.5 195,121 Q 178.5,153.0 210,137 Q 209.5,48.5 167,2" fill="none" stroke="black" stroke-width="2" /><path d="M 106,37 Q 95.0,82.5 132,80 Q 124.5,131.0 201,98 Q 137.5,67.0 30,80 Q 80.0,95.5 42,23" fill="none" stroke="black" stroke-width="2" /></g></svg>