<?xml version="1.0" encoding="utf-8" ?>
<svg baseProfile="full" height="210mm" version="1.1" viewBox="0 0 297 210" width="297mm" xmlns="http://www.w3.org/2000/svg" xmlns:ev="http://www.w3.org/2001/xml-events" xmlns:xlink="http://www.w3.org/1999/xlink"><defs /><g transform="translate(43,30)"><path d="M 86,28 Q 79.5,101.5 127,121 Q 141.0,33.0 67,33 Q 86.5,-24.5 16,8 Q 1.5,87.5 87,67" fill="none" stroke="black" stroke-width="2" /><path d="M 147,8 Q 125.0,56.5 149,59 Q 138.0,6.5 63,18 Q 61.5,59.0 124,36 Q 51.0,53.0 44,136" fill="none" stroke="black" stroke-width="2" /><path d="M 83,108 Q 92.5,151.0 148,148 Q 137.0,54.0 40,46 Q 111.0,78.0 90,18 Q 84.0,69.0 138,60" fill="none" stroke="black" stroke-width="2" /><path d="M 153,108 Q 127.0,17.5 11,17 Q -22.5,-4.5 8,38 Q 73.0,69.5 52,15 Q 51.5,83.5 125,78" fill="none" stroke="black" stroke-width="2" /></g></svg>