<?xml version="1.0" encoding="utf-8" ?>
<svg baseProfile="full" height="210mm" version="1.1" viewBox="0 0 297 210" width="297mm" xmlns="http://www.w3.org/2000/svg" xmlns:ev="http://www.w3.org/2001/xml-events" xmlns:xlink="http://www.w3.org/1999/xlink"><defs /><g transform="translate(43,30)"><path d="M 84,81 Q 162.0,97.5 140,14 Q 98.0,116.5 142,133 Q 82.5,106.5 91,148 Q 125.5,125.0 116,58" fill="none" stroke="black" stroke-width="2" /><path d="M 107,5 Q 132.5,77.0 202,105 Q 177.5,50.0 73,75 Q 176.5,108.5 196,58 Q 235.5,64.0 209,4" fill="none" stroke="black" stroke-width="2" /><path d="M 35,11 Q 87.0,71.5 201,70 Q 169.5,69.0 178,108 Q 196.5,52.0 133,78 Q 27.5,58.0 14,130" fill="none" stroke="black" stroke-width="2" /><path d="M 150,105 Q 151.5,58.5 109,56 Q 124.0,9.5 75,27 Q 35.0,109.5 91,96 Q 43.5,151.5 92,111" fill="none" stroke="black" stroke-width="2" /></g></svg>