<?xml version="1.0" encoding="utf-8" ?>
<svg baseProfile="full" height="210mm" version="1.1" viewBox="0 0 297 210" width="297mm" xmlns="http://www.w3.org/2000/svg" xmlns:ev="http://www.w3.org/2001/xml-events" xmlns:xlink="http://www.w3.org/1999/xlink"><defs /><g transform="translate(43,30)"><path d="M 194,15 Q 195.5,-13.5 141,14 Q 58.5,44.0 28,126 Q 53.0,131.0 34,92 Q 70.0,135.0 164,120" fill="none" stroke="black" stroke-width="2" /><path d="M 163,58 Q 57.0,40.0 29,100 Q 85.5,141.0 206,118 Q 117.0,87.0 110,138 Q 190.5,147.5 199,85" fill="none" stroke="black" stroke-width="2" /><path d="M 16,119 Q 93.5,138.0 81,67 Q 88.0,96.0 149,71 Q 109.5,44.5 132,80 Q 104.0,22.0 18,22" fill="none" stroke="black" stroke-width="2" /><path d="M 0,31 Q -13.5,78.5 41,58 Q 74.5,105.0 198,62 Q 123.5,55.0 129,128 Q 123.5,33.5 38,19" fill="none" stroke="black" stroke-width="2" /></g></svg>