<?xml version="1.0" encoding="utf-8" ?>
<svg baseProfile="full" height="210mm" version="1.1" viewBox="0 0 297 210" width="297mm" xmlns="http://www.w3.org/2000/svg" xmlns:ev="http://www.w3.org/2001/xml-events" xmlns:xlink="http://www.w3.org/1999/xlink"><defs /><g transform="translate(43,30)"><path d="M 170,99 Q 114.0,59.0 58,99 Q 76.5,146.0 175,113 Q 146.5,12.0 26,3 Q 41.5,75.5 119,86" fill="none" stroke="black" stroke-width="2" /><path d="M 7,38 Q 102.5,51.5 148,15 Q 112.0,52.0 116,129 Q 152.0,29.5 98,20 Q 58.0,51.0 84,148" fill="none" stroke="black" stroke-width="2" /><path d="M 200,31 Q 173.0,1.5 90,28 Q 27.5,9.5 49,75 Q 70.0,124.0 181,83 Q 214.5,110.5 188,78" fill="none" stroke="black" stroke-width="2" /><path d="M 190,32 Q 77.5,2.5 27,35 Q 70.5,103.0 158,127 Q 163.5,62.0 113,53 Q 86.5,121.5 154,96" fill="none" stroke="black" stroke-width="2" /></g></svg>