<?xml version="1.0" encoding="utf-8" ?>
<svg baseProfile="full" height="210mm" version="1.1" viewBox="0 0 297 210" width="297mm" xmlns="http://www.w3.org/2000/svg" xmlns:ev="http://www.w3.org/2001/xml-events" xmlns:xlink="http://www.w3.org/1999/xlink"><defs /><g transform="translate(43,30)"><path d="M 185,15 Q 156.5,66.5 198,48 Q 140.5,31.5 129,61 Q 45.0,60.5 17,116 Q 70.5,119.0 68,66" fill="none" stroke="black" stroke-width="2" /><path d="M 188,17 Q 79.5,19.5 31,82 Q 143.0,76.0 187,2 Q 98.0,16.0 77,98 Q 179.0,95.0 205,16" fill="none" stroke="black" stroke-width="2" /><path d="M 80,106 Q 127.0,97.0 88,2 Q 27.5,-14.5 49,51 Q 79.5,113.0 190,95 Q 126.0,58.0 20,63" fill="none" stroke="black" stroke-width="2" /><path d="M 64,71 Q 113.0,87.0 110,51 Q 63.0,26.0 96,81 Q 111.5,43.0 59,73 Q 132.0,86.5 119,14" fill="none" stroke="black" stroke-width="2" /></g></svg>