<?xml version="1.0" encoding="utf-8" ?>
<svg baseProfile="full" height="210mm" version="1.1" viewBox="0 0 297 210" width="297mm" xmlns="http://www.w3.org/2000/svg" xmlns:ev="http://www.w3.org/2001/xml-events" xmlns:xlink="http://www.w3.org/1999/xlink"><defs /><g transform="translate(43,30)"><path d="M 2,21 Q 36.0,63.5 130,46 Q 174.0,76.5 134,23 Q 131.0,-14.5 58,18 Q 58.5,61.0 119,44" fill="none" stroke="black" stroke-width="2" /><path d="M 51,57 Q 53.0,125.5 141,108 Q 192.0,110.0 153,22 Q 124.5,30.0 140,82 Q 94.5,53.0 115,90" fill="none" stroke="black" stroke-width="2" /><path d="M 161,98 Q 173.5,30.5 90,59 Q 65.0,140.0 140,121 Q 118.0,58.0 40,51 Q -2.5,22.5 25,64" fill="none" stroke="black" stroke-width="2" /><path d="M 37,111 Q 156.5,108.5 210,40 Q 163.5,-16.0 45,0 Q 91.5,77.5 210,83 Q 106.5,67.0 49,97" fill="none" stroke="black" stroke-width="2" /></g></svg>