<?xml version="1.0" encoding="utf-8" ?>
<svg baseProfile="full" height="210mm" version="1.1" viewBox="0 0 297 210" width="297mm" xmlns="http://www.w3.org/2000/svg" xmlns:ev="http://www.w3.org/2001/xml-events" xmlns:xlink="http://www.w3.org/1999/xlink"><defs /><g transform="translate(43,30)"><path d="M 163,42 Q 200.0,-2.0 155,36 Q 130.5,75.0 158,62 Q 53.0,45.5 12,93 Q 100.0,111.0 106,47" fill="none" stroke="black" stroke-width="2" /><path d="M 113,109 Q 192.0,121.0 195,57 Q 141.5,70.5 138,134 Q 152.0,57.0 124,22 Q 100.5,74.0 159,44" fill="none" stroke="black" stroke-width="2" /><path d="M 187,107 Q 141.0,123.0 187,139 Q 172.0,50.0 65,53 Q 22.5,143.0 80,133 Q 125.5,121.0 125,63" fill="none" stroke="black" stroke-width="2" /><path d="M 104,77 Q 110.5,32.5 41,64 Q 80.5,89.5 56,51 Q 73.0,86.5 144,68 Q 116.5,82.0 131,138" fill="none" stroke="black" stroke-width="2" /></g></svg>