<?xml version="1.0" encoding="utf-8" ?>
<svg baseProfile="full" height="210mm" version="1.1" viewBox="0 0 297 210" width="297mm" xmlns="http://www.w3.org/2000/svg" xmlns:ev="http://www.w3.org/2001/xml-events" xmlns:xlink="http://www.w3.org/1999/xlink"><defs /><g transform="translate(43,30)"><path d="M 71,53 Q 53.0,121.5 127,98 Q 177.5,96.0 188,54 Q 103.5,59.5 99,145 Q 105.5,75.5 12,106" fill="none" stroke="black" stroke-width="2" /><path d="M 121,109 Q 104.5,44.0 8,59 Q 60.0,110.0 156,117 Q 198.5,92.5 189,16 Q 158.0,-13.0 187,18" fill="none" stroke="black" stroke-width="2" /><path d="M 173,2 Q 52.0,11.0 27,116 Q 141.5,150.0 168,96 Q 134.0,55.0 24,90 Q 60.5,90.0 31,24" fill="none" stroke="black" stroke-width="2" /><path d="M 42,70 Q 8.5,135.5 49,127 Q 111.0,138.5 87,64 Q 99.5,145.0 194,144 Q 178.5,79.0 97,80" fill="none" stroke="black" stroke-width="2" /></g></svg>