<?xml version="1.0" encoding="utf-8" ?>
<svg baseProfile="full" height="210mm" version="1.1" viewBox="0 0 297 210" width="297mm" xmlns="http://www.w3.org/2000/svg" xmlns:ev="http://www.w3.org/2001/xml-events" xmlns:xlink="http://www.w3.org/1999/xlink"><defs /><g transform="translate(43,30)"><path d="M 106,123 Q 185.0,129.5 192,64 Q 162.5,1.5 53,19 Q 65.0,103.0 143,121 Q 140.5,36.5 72,18" fill="none" stroke="black" stroke-width="2" /><path d="M 144,84 Q 155.0,47.0 120,56 Q 52.5,75.5 25,135 Q 116.5,129.0 108,23 Q 163.5,43.0 163,7" fill="none" stroke="black" stroke-width="2" /><path d="M 50,14 Q 66.5,-10.0 43,6 Q 9.5,111.5 62,131 Q 113.5,106.5 93,10 Q 32.0,10.0 21,60" fill="none" stroke="black" stroke-width="2" /><path d="M 121,69 Q 108.0,110.5 165,82 Q 162.0,18.0 83,30 Q 60.5,91.0 116,74 Q 153.0,20.5 92,65" fill="none" stroke="black" stroke-width="2" /></g></svg>