<?xml version="1.0" encoding="utf-8" ?>
<svg baseProfile="full" height="210mm" version="1.1" viewBox="0 0 297 210" width="297mm" xmlns="http://www.w3.org/2000/svg" xmlns:ev="http://www.w3.org/2001/xml-events" xmlns:xlink="http://www.w3.org/1999/xlink"><defs /><g transform="translate(43,30)"><path d="M 148,134 Q 169.0,58.0 124,48 Q 137.5,24.0 107,44 Q 86.0,15.5 19,33 Q 40.0,-9.0 7,3" fill="none" stroke="black" stroke-width="2" /><path d="M 132,39 Q 114.0,98.5 146,108 Q 203.5,149.5 167,97 Q 174.5,40.0 124,41 Q 130.5,115.0 203,123" fill="none" stroke="black" stroke-width="2" /><path d="M 181,55 Q 114.0,54.0 97,103 Q 72.5,138.0 102,119 Q 171.0,135.0 190,101 Q 186.0,69.5 122,98" fill="none" stroke="black" stroke-width="2" /><path d="M 73,67 Q 25.0,43.5 27,70 Q 123.0,98.0 119,26 Q 39.0,38.5 53,145 Q 129.0,171.0 137,129" fill="none" stroke="black" stroke-width="2" /></g></svg>