<?xml version="1.0" encoding="utf-8" ?>
<svg baseProfile="full" height="210mm" version="1.1" viewBox="0 0 297 210" width="297mm" xmlns="http://www.w3.org/2000/svg" xmlns:ev="http://www.w3.org/2001/xml-events" xmlns:xlink="http://www.w3.org/1999/xlink"><defs /><g transform="translate(43,30)"><path d="M 105,35 Q 65.0,13.5 101,68 Q 116.0,136.5 197,139 Q 163.0,46.5 45,38 Q 117.0,64.0 103,4" fill="none" stroke="black" stroke-width="2" /><path d="M 167,35 Q 134.0,84.5 173,62 Q 96.5,40.5 118,117 Q 161.5,115.5 121,30 Q 34.0,5.5 3,37" fill="none" stroke="black" stroke-width="2" /><path d="M 135,58 Q 51.0,55.0 53,138 Q 97.5,122.5 68,33 Q 18.0,40.5 68,48 Q 51.5,103.5 103,91" fill="none" stroke="black" stroke-width="2" /><path d="M 49,1 Q -8.5,13.0 10,101 Q 68.0,140.0 196,109 Q 180.5,88.0 165,109 Q 218.0,116.0 179,31" fill="none" stroke="black" stroke-width="2" /></g></svg>