<?xml version="1.0" encoding="utf-8" ?>
<svg baseProfile="full" height="210mm" version="1.1" viewBox="0 0 297 210" width="297mm" xmlns="http://www.w3.org/2000/svg" xmlns:ev="http://www.w3.org/2001/xml-events" xmlns:xlink="http://www.w3.org/1999/xlink"><defs /><g transform="translate(43,30)"><path d="M 33,101 Q 22.0,151.5 101,112 Q 72.5,87.5 4,103 Q 68.5,139.5 39,82 Q 96.5,110.5 196,97" fill="none" stroke="black" stroke-width="2" /><path d="M 7,10 Q -30.5,104.0 30,100 Q 51.0,139.0 126,124 Q 112.0,79.5 14,119 Q 35.0,49.5 8,28" fill="none" stroke="black" stroke-width="2" /><path d="M 83,1 Q 50.0,108.5 95,138 Q 123.0,100.5 109,21 Q 62.5,32.5 80,108 Q 110.0,135.5 192,111" fill="none" stroke="black" stroke-width="2" /><path d="M 129,60 Q 123.5,131.0 174,146 Q 214.5,154.5 197,105 Q 180.5,16.0 70,21 Q 93.0,124.0 210,133" fill="none" stroke="black" stroke-width="2" /></g></svg>