<?xml version="1.0" encoding="utf-8" ?>
<svg baseProfile="full" height="210mm" version="1.1" viewBox="0 0 297 210" width="297mm" xmlns="http://www.w3.org/2000/svg" xmlns:ev="http://www.w3.org/2001/xml-events" xmlns:xlink="http://www.w3.org/1999/xlink"><defs /><g transform="translate(43,30)"><path d="M 61,143 Q 116.5,144.5 92,66 Q 166.5,98.0 163,52 Q 195.0,54.5 185,15 Q 96.5,18.0 96,109" fill="none" stroke="black" stroke-width="2" /><path d="M 10,15 Q 62.0,63.0 166,59 Q 115.0,41.0 138,97 Q 44.0,76.5 24,130 Q 47.0,156.0 70,130" fill="none" stroke="black" stroke-width="2" /><path d="M 122,144 Q 87.0,103.0 4,110 Q 71.5,143.0 59,96 Q 41.5,52.0 24,96 Q 73.0,103.0 40,28" fill="none" stroke="black" stroke-width="2" /><path d="M 54,101 Q 100.0,82.0 84,1 Q 35.0,34.0 26,107 Q 54.5,85.0 41,21 Q 10.0,112.5 73,110" fill="none" stroke="black" stroke-width="2" /></g></svg>