<?xml version="1.0" encoding="utf-8" ?>
<svg baseProfile="full" height="210mm" version="1.1" viewBox="0 0 297 210" width="297mm" xmlns="http://www.w3.org/2000/svg" xmlns:ev="http://www.w3.org/2001/xml-events" xmlns:xlink="http://www.w3.org/1999/xlink"><defs /><g transform="translate(43,30)"><path d="M 116,25 Q 108.5,80.5 201,36 Q 115.5,47.0 90,118 Q 133.5,35.5 85,45 Q 119.0,-2.5 65,38" fill="none" stroke="black" stroke-width="2" /><path d="M 164,64 Q 214.0,92.0 170,26 Q 63.5,26.5 31,101 Q 17.5,140.0 66,117 Q 12.5,98.0 1,121" fill="none" stroke="black" stroke-width="2" /><path d="M 126,76 Q 14.5,48.5 3,121 Q 73.5,137.0 76,85 Q 91.5,34.0 33,57 Q 41.5,95.5 118,66" fill="none" stroke="black" stroke-width="2" /><path d="M 186,70 Q 88.5,39.5 81,99 Q 106.0,95.0 91,51 Q 25.5,66.0 26,147 Q 143.5,164.0 189,109" fill="none" stroke="black" stroke-width="2" /></g></svg>