<?xml version="1.0" encoding="utf-8" ?>
<svg baseProfile="full" height="210mm" version="1.1" viewBox="0 0 297 210" width="297mm" xmlns="http://www.w3.org/2000/svg" xmlns:ev="http://www.w3.org/2001/xml-events" xmlns:xlink="http://www.w3.org/1999/xlink"><defs /><g transform="translate(43,30)"><path d="M 66,141 Q 154.0,147.5 142,54 Q 50.5,33.5 7,61 Q 45.0,108.5 127,112 Q 192.5,106.0 182,24" fill="none" stroke="black" stroke-width="2" /><path d="M 13,129 Q 126.5,117.5 180,46 Q 128.0,31.5 168,109 Q 124.0,76.0 162,125 Q 145.5,66.5 41,96" fill="none" stroke="black" stroke-width="2" /><path d="M 151,62 Q 223.5,88.5 196,15 Q 166.0,106.5 202,132 Q 176.0,75.0 104,64 Q 142.0,88.0 112,44" fill="none" stroke="black" stroke-width="2" /><path d="M 89,84 Q 108.0,19.0 53,28 Q 55.0,69.5 113,55 Q 80.5,47.0 92,83 Q 109.5,-4.0 33,3" fill="none" stroke="black" stroke-width="2" /></g></svg>