<?xml version="1.0" encoding="utf-8" ?>
<svg baseProfile="full" height="210mm" version="1.1" viewBox="0 0 297 210" width="297mm" xmlns="http://www.w3.org/2000/svg" xmlns:ev="http://www.w3.org/2001/xml-events" xmlns:xlink="http://www.w3.org/1999/xlink"><defs /><g transform="translate(43,30)"><path d="M 52,109 Q 105.0,148.0 210,135 Q 154.5,28.0 1,19 Q -4.0,72.0 53,63 Q 52.5,130.5 128,122" fill="none" stroke="black" stroke-width="2" /><path d="M 151,94 Q 202.0,70.0 207,0 Q 137.0,21.5 163,139 Q 183.0,48.0 159,1 Q 54.5,-38.0 48,21" fill="none" stroke="black" stroke-width="2" /><path d="M 43,74 Q 74.0,109.5 173,77 Q 185.5,5.0 110,21 Q 34.0,28.0 48,125 Q 50.0,165.5 122,136" fill="none" stroke="black" stroke-width="2" /><path d="M 81,85 Q 136.5,106.5 142,78 Q 151.0,119.0 210,110 Q 165.5,59.5 59,71 Q 11.5,53.5 44,116" fill="none" stroke="black" stroke-width="2" /></g></svg>