<?xml version="1.0" encoding="utf-8" ?>
<svg baseProfile="full" height="210mm" version="1.1" viewBox="0 0 297 210" width="297mm" xmlns="http://www.w3.org/2000/svg" xmlns:ev="http://www.w3.org/2001/xml-events" xmlns:xlink="http://www.w3.org/1999/xlink"><defs /><g transform="translate(43,30)"><path d="M 143,51 Q 114.0,128.5 159,132 Q 183.5,96.5 158,111 Q 137.0,162.0 210,119 Q 218.5,68.5 183,62" fill="none" stroke="black" stroke-width="2" /><path d="M 162,35 Q 66.5,27.0 45,93 Q 145.0,95.5 191,44 Q 66.0,36.5 19,107 Q 89.0,144.0 81,103" fill="none" stroke="black" stroke-width="2" /><path d="M 92,4 Q 69.5,18.5 89,75 Q 90.0,98.0 133,79 Q 109.0,144.0 175,119 Q 162.5,39.5 50,60" fill="none" stroke="black" stroke-width="2" /><path d="M 68,19 Q 67.0,-10.5 20,6 Q 61.0,94.0 178,106 Q 204.5,29.0 141,42 Q 121.5,-5.5 22,27" fill="none" stroke="black" stroke-width="2" /></g></svg>