<?xml version="1.0" encoding="utf-8" ?>
<svg baseProfile="full" height="210mm" version="1.1" viewBox="0 0 297 210" width="297mm" xmlns="http://www.w3.org/2000/svg" xmlns:ev="http://www.w3.org/2001/xml-events" xmlns:xlink="http://www.w3.org/1999/xlink"><defs /><g transform="translate(43,30)"><path d="M 32,105 Q 100.5,116.0 111,69 Q 36.5,60.5 8,98 Q -6.5,140.5 33,129 Q 133.5,119.0 182,57" fill="none" stroke="black" stroke-width="2" /><path d="M 187,39 Q 219.0,65.5 197,38 Q 209.5,-2.0 178,2 Q 74.0,-9.0 42,52 Q -7.5,62.0 7,136" fill="none" stroke="black" stroke-width="2" /><path d="M 31,69 Q 86.5,89.5 98,66 Q 80.5,134.0 149,116 Q 65.0,99.5 31,133 Q 83.0,151.0 73,107" fill="none" stroke="black" stroke-width="2" /><path d="M 81,138 Q 112.0,37.0 53,26 Q 37.0,58.0 75,36 Q 63.5,126.5 130,139 Q 130.0,75.5 32,110" fill="none" stroke="black" stroke-width="2" /></g></svg>