<?xml version="1.0" encoding="utf-8" ?>
<svg baseProfile="full" height="210mm" version="1.1" viewBox="0 0 297 210" width="297mm" xmlns="http://www.w3.org/2000/svg" xmlns:ev="http://www.w3.org/2001/xml-events" xmlns:xlink="http://www.w3.org/1999/xlink"><defs /><g transform="translate(43,30)"><path d="M 87,28 Q 113.5,96.0 194,110 Q 138.5,70.0 179,126 Q 148.5,63.0 60,58 Q 41.5,123.5 71,141" fill="none" stroke="black" stroke-width="2" /><path d="M 14,76 Q 72.5,83.0 51,10 Q -16.5,-5.5 12,75 Q -22.0,118.5 30,76 Q 47.5,125.0 109,130" fill="none" stroke="black" stroke-width="2" /><path d="M 97,148 Q 133.0,164.0 125,136 Q 151.0,54.0 117,32 Q 64.0,23.0 109,112 Q 197.0,124.5 201,53" fill="none" stroke="black" stroke-width="2" /><path d="M 209,9 Q 113.0,-1.0 107,79 Q 64.5,45.0 100,89 Q 82.0,46.5 22,46 Q 33.5,139.5 141,137" fill="none" stroke="black" stroke-width="2" /></g></svg>