<?xml version="1.0" encoding="utf-8" ?>
<svg baseProfile="full" height="210mm" version="1.1" viewBox="0 0 297 210" width="297mm" xmlns="http://www.w3.org/2000/svg" xmlns:ev="http://www.w3.org/2001/xml-events" xmlns:xlink="http://www.w3.org/1999/xlink"><defs /><g transform="translate(43,30)"><path d="M 72,107 Q 72.5,45.0 5,51 Q 68.5,112.5 202,104 Q 132.5,71.0 23,78 Q -25.5,53.5 22,125" fill="none" stroke="black" stroke-width="2" /><path d="M 180,2 Q 98.0,6.5 110,105 Q 90.0,51.0 18,49 Q 50.0,124.5 162,120 Q 188.5,58.0 127,84" fill="none" stroke="black" stroke-width="2" /><path d="M 48,2 Q 60.5,77.5 163,63 Q 125.0,29.0 27,55 Q 56.0,116.0 167,95 Q 104.0,73.5 119,130" fill="none" stroke="black" stroke-width="2" /><path d="M 171,32 Q 92.0,14.0 77,60 Q 57.5,123.0 134,90 Q 60.0,65.5 52,107 Q 108.0,132.5 64,58" fill="none" stroke="black" stroke-width="2" /></g></svg>