<?xml version="1.0" encoding="utf-8" ?>
<svg baseProfile="full" height="210mm" version="1.1" viewBox="0 0 297 210" width="297mm" xmlns="http://www.w3.org/2000/svg" xmlns:ev="http://www.w3.org/2001/xml-events" xmlns:xlink="http://www.w3.org/1999/xlink"><defs /><g transform="translate(43,30)"><path d="M 112,126 Q 125.5,69.0 83,68 Q 57.0,126.0 95,120 Q 133.5,55.5 90,73 Q 112.0,20.0 60,41" fill="none" stroke="black" stroke-width="2" /><path d="M 165,26 Q 133.0,31.0 157,92 Q 176.5,51.5 154,53 Q 150.5,14.5 95,28 Q 48.5,0.0 70,40" fill="none" stroke="black" stroke-width="2" /><path d="M 148,106 Q 160.0,32.5 74,57 Q 116.0,53.0 116,7 Q 52.0,-14.0 78,55 Q 107.5,55.5 93,12" fill="none" stroke="black" stroke-width="2" /><path d="M 172,132 Q 202.0,62.5 166,59 Q 84.5,56.0 53,103 Q 91.0,103.0 85,59 Q 119.5,123.0 198,143" fill="none" stroke="black" stroke-width="2" /></g></svg>