<?xml version="1.0" encoding="utf-8" ?>
<svg baseProfile="full" height="210mm" version="1.1" viewBox="0 0 297 210" width="297mm" xmlns="http://www.w3.org/2000/svg" xmlns:ev="http://www.w3.org/2001/xml-events" xmlns:xlink="http://www.w3.org/1999/xlink"><defs /><g transform="translate(43,30)"><path d="M 71,100 Q 87.5,30.5 56,9 Q 96.5,29.0 89,1 Q 100.5,51.5 184,30 Q 186.5,-21.0 103,14" fill="none" stroke="black" stroke-width="2" /><path d="M 136,94 Q 91.0,82.5 86,111 Q 123.0,31.5 76,36 Q 115.0,92.5 200,103 Q 153.5,59.5 45,78" fill="none" stroke="black" stroke-width="2" /><path d="M 142,69 Q 120.0,0.5 14,16 Q 39.0,63.5 120,55 Q 35.0,35.5 14,80 Q 42.5,20.5 3,29" fill="none" stroke="black" stroke-width="2" /><path d="M 105,61 Q 72.0,126.0 131,99 Q 136.0,141.5 185,140 Q 166.5,53.0 92,22 Q 45.0,72.5 94,27" fill="none" stroke="black" stroke-width="2" /></g></svg>