<?xml version="1.0" encoding="utf-8" ?>
<svg baseProfile="full" height="210mm" version="1.1" viewBox="0 0 297 210" width="297mm" xmlns="http://www.w3.org/2000/svg" xmlns:ev="http://www.w3.org/2001/xml-events" xmlns:xlink="http://www.w3.org/1999/xlink"><defs /><g transform="translate(43,30)"><path d="M 33,27 Q 22.5,67.5 72,48 Q 90.5,124.5 187,123 Q 144.0,69.5 49,68 Q -6.0,21.0 35,70" fill="none" stroke="black" stroke-width="2" /><path d="M 75,46 Q 93.0,13.0 61,30 Q 20.5,52.5 36,131 Q 126.0,150.0 126,79 Q 175.0,82.0 180,41" fill="none" stroke="black" stroke-width="2" /><path d="M 164,103 Q 160.5,11.0 65,11 Q 83.0,108.0 161,145 Q 143.0,45.0 43,27 Q 76.5,86.0 166,89" fill="none" stroke="black" stroke-width="2" /><path d="M 60,139 Q 91.5,180.0 199,145 Q 169.5,62.5 94,26 Q 88.5,99.0 159,96 Q 163.0,63.5 121,77" fill="none" stroke="black" stroke-width="2" /></g></svg>