<?xml version="1.0" encoding="utf-8" ?>
<svg baseProfile="full" height="210mm" version="1.1" viewBox="0 0 297 210" width="297mm" xmlns="http://www.w3.org/2000/svg" xmlns:ev="http://www.w3.org/2001/xml-events" xmlns:xlink="http://www.w3.org/1999/xlink"><defs /><g transform="translate(43,30)"><path d="M 112,41 Q 17.0,21.5 22,102 Q 68.5,148.0 171,138 Q 171.5,37.0 108,0 Q 43.0,41.0 34,138" fill="none" stroke="black" stroke-width="2" /><path d="M 42,107 Q 112.0,135.5 120,102 Q 140.0,23.0 98,6 Q 9.5,-7.5 11,69 Q 84.5,61.5 118,14" fill="none" stroke="black" stroke-width="2" /><path d="M 32,143 Q 104.0,158.0 130,127 Q 138.0,83.0 90,95 Q 126.5,101.0 123,67 Q 115.5,9.0 18,41" fill="none" stroke="black" stroke-width="2" /><path d="M 103,134 Q 173.0,126.0 165,40 Q 133.5,38.5 156,91 Q 215.5,126.5 185,72 Q 68.0,34.0 33,78" fill="none" stroke="black" stroke-width="2" /></g></svg>