<?xml version="1.0" encoding="utf-8" ?>
<svg baseProfile="full" height="210mm" version="1.1" viewBox="0 0 297 210" width="297mm" xmlns="http://www.w3.org/2000/svg" xmlns:ev="http://www.w3.org/2001/xml-events" xmlns:xlink="http://www.w3.org/1999/xlink"><defs /><g transform="translate(43,30)"><path d="M 109,109 Q 105.0,43.0 23,55 Q 34.0,98.0 117,69 Q 161.5,103.5 120,52 Q 81.5,35.0 105,80" fill="none" stroke="black" stroke-width="2" /><path d="M 193,29 Q 237.5,62.0 202,15 Q 83.0,-5.0 40,51 Q 37.0,97.0 84,93 Q 78.0,149.5 152,126" fill="none" stroke="black" stroke-width="2" /><path d="M 6,6 Q 48.5,75.0 183,52 Q 104.5,26.0 90,64 Q 129.0,60.5 114,3 Q 50.0,22.5 40,96" fill="none" stroke="black" stroke-width="2" /><path d="M 159,105 Q 109.5,74.0 12,91 Q 139.0,122.0 194,81 Q 184.0,23.5 126,14 Q 119.0,83.5 176,89" fill="none" stroke="black" stroke-width="2" /></g></svg>