<?xml version="1.0" encoding="utf-8" ?>
<svg baseProfile="full" height="210mm" version="1.1" viewBox="0 0 297 210" width="297mm" xmlns="http://www.w3.org/2000/svg" xmlns:ev="http://www.w3.org/2001/xml-events" xmlns:xlink="http://www.w3.org/1999/xlink"><defs /><g transform="translate(43,30)"><path d="M 195,92 Q 117.0,81.5 111,143 Q 169.0,179.5 133,122 Q 152.0,18.5 73,13 Q 108.5,106.5 202,142" fill="none" stroke="black" stroke-width="2" /><path d="M 128,70 Q 134.0,15.5 46,55 Q 3.5,48.0 37,117 Q 110.5,129.5 94,52 Q 86.5,97.5 161,61" fill="none" stroke="black" stroke-width="2" /><path d="M 114,17 Q 66.0,109.5 118,102 Q 63.5,69.0 91,118 Q 96.5,160.5 170,135 Q 139.5,60.0 45,49" fill="none" stroke="black" stroke-width="2" /><path d="M 31,141 Q 136.5,116.5 188,38 Q 216.5,-9.5 171,17 Q 147.5,60.5 208,20 Q 171.0,61.5 208,103" fill="none" stroke="black" stroke-width="2" /></g></svg>