<?xml version="1.0" encoding="utf-8" ?>
<svg baseProfile="full" height="210mm" version="1.1" viewBox="0 0 297 210" width="297mm" xmlns="http://www.w3.org/2000/svg" xmlns:ev="http://www.w3.org/2001/xml-events" xmlns:xlink="http://www.w3.org/1999/xlink"><defs /><g transform="translate(43,30)"><path d="M 21,1 Q 70.5,89.0 168,129 Q 201.0,124.0 180,65 Q 89.0,45.5 94,122 Q 173.0,129.0 172,56" fill="none" stroke="black" stroke-width="2" /><path d="M 146,74 Q 95.0,44.0 140,110 Q 104.5,31.5 19,3 Q 42.5,63.5 164,26 Q 120.5,48.5 129,123" fill="none" stroke="black" stroke-width="2" /><path d="M 183,42 Q 75.0,36.5 13,77 Q 84.5,65.5 114,12 Q 108.0,54.5 152,47 Q 66.5,49.5 57,128" fill="none" stroke="black" stroke-width="2" /><path d="M 195,69 Q 183.0,21.5 119,26 Q 158.5,-35.0 98,4 Q 109.5,83.5 207,77 Q 83.5,72.5 28,136" fill="none" stroke="black" stroke-width="2" /></g></svg>