<?xml version="1.0" encoding="utf-8" ?>
<svg baseProfile="full" height="210mm" version="1.1" viewBox="0 0 297 210" width="297mm" xmlns="http://www.w3.org/2000/svg" xmlns:ev="http://www.w3.org/2001/xml-events" xmlns:xlink="http://www.w3.org/1999/xlink"><defs /><g transform="translate(43,30)"><path d="M 41,107 Q 74.0,162.0 185,139 Q 198.5,66.5 130,76 Q 123.0,22.0 48,36 Q 67.5,87.0 165,60" fill="none" stroke="black" stroke-width="2" /><path d="M 48,97 Q 90.0,79.0 90,19 Q 69.0,60.5 112,38 Q 49.0,22.5 56,77 Q 14.0,68.0 14,101" fill="none" stroke="black" stroke-width="2" /><path d="M 134,79 Q 114.5,142.0 153,147 Q 124.0,104.0 43,113 Q 92.0,115.5 57,34 Q 42.5,109.0 98,114" fill="none" stroke="black" stroke-width="2" /><path d="M 122,43 Q 137.0,96.0 200,101 Q 143.5,81.5 173,148 Q 230.0,177.5 209,129 Q 166.5,19.5 28,6" fill="none" stroke="black" stroke-width="2" /></g></svg>