<?xml version="1.0" encoding="utf-8" ?>
<svg baseProfile="full" height="210mm" version="1.1" viewBox="0 0 297 210" width="297mm" xmlns="http://www.w3.org/2000/svg" xmlns:ev="http://www.w3.org/2001/xml-events" xmlns:xlink="http://www.w3.org/1999/xlink"><defs /><g transform="translate(43,30)"><path d="M 11,130 Q 57.5,154.0 146,136 Q 78.0,100.0 86,140 Q 169.5,163.5 167,101 Q 151.0,17.5 69,0" fill="none" stroke="black" stroke-width="2" /><path d="M 83,72 Q 97.0,32.5 43,61 Q 76.0,92.5 171,62 Q 186.5,5.0 136,14 Q 188.5,44.5 169,3" fill="none" stroke="black" stroke-width="2" /><path d="M 117,36 Q 61.5,33.0 48,72 Q 98.0,79.5 102,41 Q 28.0,17.5 48,88 Q 102.5,99.0 109,62" fill="none" stroke="black" stroke-width="2" /><path d="M 51,85 Q 50.5,157.5 132,148 Q 163.5,83.0 127,86 Q 178.0,126.0 131,68 Q 129.0,105.0 177,92" fill="none" stroke="black" stroke-width="2" /></g></svg>