<?xml version="1.0" encoding="utf-8" ?>
<svg baseProfile="full" height="210mm" version="1.1" viewBox="0 0 297 210" width="297mm" xmlns="http://www.w3.org/2000/svg" xmlns:ev="http://www.w3.org/2001/xml-events" xmlns:xlink="http://www.w3.org/1999/xlink"><defs /><g transform="translate(43,30)"><path d="M 43,18 Q 12.0,83.0 55,74 Q 58.0,141.0 161,108 Q 192.5,66.0 158,90 Q 171.5,14.0 121,2" fill="none" stroke="black" stroke-width="2" /><path d="M 140,55 Q 27.5,52.5 3,138 Q 112.0,171.5 121,105 Q 108.0,18.5 15,12 Q -8.0,103.0 23,140" fill="none" stroke="black" stroke-width="2" /><path d="M 29,91 Q -16.5,61.0 22,115 Q -18.0,168.0 42,121 Q 48.5,89.0 11,101 Q -20.5,78.0 8,115" fill="none" stroke="black" stroke-width="2" /><path d="M 80,3 Q 95.0,71.5 186,64 Q 150.0,5.5 26,35 Q 21.5,126.5 97,138 Q 123.0,74.0 71,88" fill="none" stroke="black" stroke-width="2" /></g></svg>