<?xml version="1.0" encoding="utf-8" ?>
<svg baseProfile="full" height="210mm" version="1.1" viewBox="0 0 297 210" width="297mm" xmlns="http://www.w3.org/2000/svg" xmlns:ev="http://www.w3.org/2001/xml-events" xmlns:xlink="http://www.w3.org/1999/xlink"><defs /><g transform="translate(43,30)"><path d="M 176,93 Q 139.0,143.5 196,100 Q 136.5,56.0 35,54 Q 40.5,89.5 104,67 Q 70.0,36.5 102,72" fill="none" stroke="black" stroke-width="2" /><path d="M 53,85 Q 80.5,143.5 170,140 Q 203.0,96.5 186,3 Q 64.5,24.5 11,114 Q 64.0,125.0 29,48" fill="none" stroke="black" stroke-width="2" /><path d="M 138,92 Q 122.0,142.0 182,116 Q 144.5,90.5 65,107 Q 96.0,30.0 41,39 Q 96.5,63.5 98,34" fill="none" stroke="black" stroke-width="2" /><path d="M 163,142 Q 214.0,154.5 173,75 Q 75.0,61.5 23,94 Q 49.5,130.0 146,96 Q 83.0,84.0 76,128" fill="none" stroke="black" stroke-width="2" /></g></svg>