<?xml version="1.0" encoding="utf-8" ?>
<svg baseProfile="full" height="210mm" version="1.1" viewBox="0 0 297 210" width="297mm" xmlns="http://www.w3.org/2000/svg" xmlns:ev="http://www.w3.org/2001/xml-events" xmlns:xlink="http://www.w3.org/1999/xlink"><defs /><g transform="translate(43,30)"><path d="M 137,45 Q 54.5,41.0 12,77 Q -0.5,126.0 61,101 Q -8.5,78.5 14,148 Q 105.5,157.5 113,83" fill="none" stroke="black" stroke-width="2" /><path d="M 102,132 Q 178.0,144.0 158,60 Q 69.5,48.0 51,106 Q 95.5,130.0 180,114 Q 60.5,68.5 41,123" fill="none" stroke="black" stroke-width="2" /><path d="M 52,86 Q 32.5,132.0 65,126 Q 60.5,153.0 100,136 Q 102.5,73.5 59,57 Q 83.5,12.5 52,24" fill="none" stroke="black" stroke-width="2" /><path d="M 203,102 Q 211.5,46.0 156,54 Q 59.5,46.0 11,86 Q 28.5,112.0 94,90 Q 154.0,94.0 148,32" fill="none" stroke="black" stroke-width="2" /></g></svg>