<?xml version="1.0" encoding="utf-8" ?>
<svg baseProfile="full" height="210mm" version="1.1" viewBox="0 0 297 210" width="297mm" xmlns="http://www.w3.org/2000/svg" xmlns:ev="http://www.w3.org/2001/xml-events" xmlns:xlink="http://www.w3.org/1999/xlink"><defs /><g transform="translate(43,30)"><path d="M 26,96 Q 94.0,129.5 202,123 Q 211.5,45.0 153,35 Q 117.5,124.0 172,123 Q 201.5,61.5 171,60" fill="none" stroke="black" stroke-width="2" /><path d="M 201,94 Q 223.0,17.5 171,15 Q 81.0,36.0 45,111 Q 60.5,80.5 36,90 Q 145.0,102.0 154,14" fill="none" stroke="black" stroke-width="2" /><path d="M 176,24 Q 211.5,52.0 185,18 Q 140.5,1.5 172,61 Q 119.0,56.0 132,117 Q 161.5,99.5 143,34" fill="none" stroke="black" stroke-width="2" /><path d="M 98,75 Q 104.0,49.5 60,74 Q 76.5,38.5 49,47 Q 88.0,76.5 175,58 Q 173.5,-10.5 82,11" fill="none" stroke="black" stroke-width="2" /></g></svg>