<?xml version="1.0" encoding="utf-8" ?>
<svg baseProfile="full" height="210mm" version="1.1" viewBox="0 0 297 210" width="297mm" xmlns="http://www.w3.org/2000/svg" xmlns:ev="http://www.w3.org/2001/xml-events" xmlns:xlink="http://www.w3.org/1999/xlink"><defs /><g transform="translate(43,30)"><path d="M 55,144 Q 83.0,59.0 49,36 Q 126.5,69.5 120,19 Q 44.0,-6.0 50,51 Q 144.0,81.5 172,46" fill="none" stroke="black" stroke-width="2" /><path d="M 22,56 Q 74.5,106.0 203,80 Q 174.5,114.5 204,91 Q 168.5,23.0 73,15 Q 11.5,2.0 0,39" fill="none" stroke="black" stroke-width="2" /><path d="M 135,29 Q 47.5,41.0 2,95 Q 133.5,131.0 173,75 Q 150.0,14.5 61,20 Q 30.0,2.0 53,38" fill="none" stroke="black" stroke-width="2" /><path d="M 188,33 Q 143.0,38.5 140,86 Q 32.0,37.0 24,88 Q 123.5,82.5 153,7 Q 133.5,-24.0 56,3" fill="none" stroke="black" stroke-width="2" /></g></svg>