<?xml version="1.0" encoding="utf-8" ?>
<svg baseProfile="full" height="210mm" version="1.1" viewBox="0 0 297 210" width="297mm" xmlns="http://www.w3.org/2000/svg" xmlns:ev="http://www.w3.org/2001/xml-events" xmlns:xlink="http://www.w3.org/1999/xlink"><defs /><g transform="translate(43,30)"><path d="M 113,12 Q 39.5,2.0 44,70 Q 38.0,106.0 102,72 Q 127.5,20.0 57,64 Q 98.5,114.0 186,118" fill="none" stroke="black" stroke-width="2" /><path d="M 78,80 Q 175.0,95.0 182,20 Q 123.0,-13.5 4,13 Q -19.0,55.0 18,37 Q 54.0,93.0 146,93" fill="none" stroke="black" stroke-width="2" /><path d="M 99,60 Q 69.0,110.5 121,79 Q 99.0,140.0 135,143 Q 92.5,107.5 0,122 Q 61.0,132.0 36,56" fill="none" stroke="black" stroke-width="2" /><path d="M 97,111 Q 129.5,22.0 84,11 Q 61.0,49.0 112,13 Q 41.0,-34.0 70,19 Q 12.0,18.0 24,87" fill="none" stroke="black" stroke-width="2" /></g></svg>