<?xml version="1.0" encoding="utf-8" ?>
<svg baseProfile="full" height="210mm" version="1.1" viewBox="0 0 297 210" width="297mm" xmlns="http://www.w3.org/2000/svg" xmlns:ev="http://www.w3.org/2001/xml-events" xmlns:xlink="http://www.w3.org/1999/xlink"><defs /><g transform="translate(43,30)"><path d="M 202,49 Q 219.5,9.5 193,14 Q 166.0,-36.5 51,1 Q -16.0,-16.5 13,62 Q -12.0,120.5 53,89" fill="none" stroke="black" stroke-width="2" /><path d="M 154,102 Q 124.5,52.0 9,88 Q -2.0,139.0 41,136 Q 80.5,39.0 30,32 Q -19.0,11.0 26,84" fill="none" stroke="black" stroke-width="2" /><path d="M 181,72 Q 97.5,46.0 96,102 Q 109.0,10.0 38,2 Q 29.5,106.5 121,111 Q 115.5,34.5 52,16" fill="none" stroke="black" stroke-width="2" /><path d="M 107,0 Q 48.5,-8.0 46,40 Q 146.0,74.0 152,14 Q 83.5,-3.5 57,21 Q 33.5,72.0 90,43" fill="none" stroke="black" stroke-width="2" /></g></svg>