<?xml version="1.0" encoding="utf-8" ?>
<svg baseProfile="full" height="210mm" version="1.1" viewBox="0 0 297 210" width="297mm" xmlns="http://www.w3.org/2000/svg" xmlns:ev="http://www.w3.org/2001/xml-events" xmlns:xlink="http://www.w3.org/1999/xlink"><defs /><g transform="translate(43,30)"><path d="M 184,51 Q 106.0,36.0 122,115 Q 142.5,141.0 207,123 Q 154.5,43.5 42,24 Q 31.0,75.0 70,76" fill="none" stroke="black" stroke-width="2" /><path d="M 141,134 Q 209.0,153.0 203,98 Q 154.0,43.0 33,60 Q -6.0,51.5 9,97 Q 40.0,164.5 157,146" fill="none" stroke="black" stroke-width="2" /><path d="M 5,14 Q 58.0,79.0 195,60 Q 137.5,55.5 142,113 Q 105.5,65.5 13,74 Q 100.0,84.5 117,25" fill="none" stroke="black" stroke-width="2" /><path d="M 72,46 Q 20.0,16.5 60,79 Q 90.0,9.0 38,21 Q 25.0,125.5 108,134 Q 181.5,98.0 203,10" fill="none" stroke="black" stroke-width="2" /></g></svg>