<?xml version="1.0" encoding="utf-8" ?>
<svg baseProfile="full" height="210mm" version="1.1" viewBox="0 0 297 210" width="297mm" xmlns="http://www.w3.org/2000/svg" xmlns:ev="http://www.w3.org/2001/xml-events" xmlns:xlink="http://www.w3.org/1999/xlink"><defs /><g transform="translate(43,30)"><path d="M 13,84 Q 13.0,108.0 59,86 Q 153.5,73.5 206,19 Q 86.0,48.5 16,128 Q 62.0,46.0 12,60" fill="none" stroke="black" stroke-width="2" /><path d="M 200,54 Q 187.0,-1.0 76,42 Q 28.0,43.5 36,101 Q 71.5,92.5 37,14 Q 17.5,67.0 84,34" fill="none" stroke="black" stroke-width="2" /><path d="M 92,98 Q 140.0,77.0 144,12 Q 201.5,58.5 161,7 Q 140.0,116.5 199,146 Q 161.0,103.5 67,117" fill="none" stroke="black" stroke-width="2" /><path d="M 59,25 Q 49.0,69.5 125,28 Q 121.5,77.5 168,77 Q 96.0,37.0 108,81 Q 11.5,66.5 9,146" fill="none" stroke="black" stroke-width="2" /></g></svg>