<?xml version="1.0" encoding="utf-8" ?>
<svg baseProfile="full" height="210mm" version="1.1" viewBox="0 0 297 210" width="297mm" xmlns="http://www.w3.org/2000/svg" xmlns:ev="http://www.w3.org/2001/xml-events" xmlns:xlink="http://www.w3.org/1999/xlink"><defs /><g transform="translate(43,30)"><path d="M 36,119 Q 94.0,125.0 108,87 Q 63.5,66.5 105,132 Q 21.0,97.0 19,144 Q 91.5,146.0 92,76" fill="none" stroke="black" stroke-width="2" /><path d="M 95,132 Q 91.5,83.5 26,97 Q 90.0,123.5 66,62 Q 70.5,24.0 3,58 Q -31.0,41.5 1,91" fill="none" stroke="black" stroke-width="2" /><path d="M 12,57 Q 54.0,64.0 56,31 Q 5.5,38.5 7,98 Q 92.5,93.5 96,7 Q 31.0,16.5 36,96" fill="none" stroke="black" stroke-width="2" /><path d="M 52,129 Q 86.5,117.5 65,50 Q 132.5,93.0 200,50 Q 95.0,51.5 64,127 Q 128.5,150.0 113,93" fill="none" stroke="black" stroke-width="2" /></g></svg>