<?xml version="1.0" encoding="utf-8" ?>
<svg baseProfile="full" height="210mm" version="1.1" viewBox="0 0 297 210" width="297mm" xmlns="http://www.w3.org/2000/svg" xmlns:ev="http://www.w3.org/2001/xml-events" xmlns:xlink="http://www.w3.org/1999/xlink"><defs /><g transform="translate(43,30)"><path d="M 210,104 Q 161.0,82.5 168,117 Q 188.0,19.5 108,22 Q 74.5,-10.0 107,24 Q 103.5,-4.0 100,24" fill="none" stroke="black" stroke-width="2" /><path d="M 198,21 Q 164.5,46.0 179,119 Q 217.5,116.0 200,57 Q 69.0,10.5 34,60 Q 124.0,64.5 156,11" fill="none" stroke="black" stroke-width="2" /><path d="M 144,51 Q 87.0,39.5 74,72 Q 89.0,128.5 164,125 Q 149.0,151.0 184,127 Q 187.0,32.5 94,34" fill="none" stroke="black" stroke-width="2" /><path d="M 81,48 Q 9.5,36.5 6,93 Q 131.0,124.0 178,77 Q 158.5,133.0 203,125 Q 120.0,104.0 89,135" fill="none" stroke="black" stroke-width="2" /></g></svg>