<?xml version="1.0" encoding="utf-8" ?>
<svg baseProfile="full" height="210mm" version="1.1" viewBox="0 0 297 210" width="297mm" xmlns="http://www.w3.org/2000/svg" xmlns:ev="http://www.w3.org/2001/xml-events" xmlns:xlink="http://www.w3.org/1999/xlink"><defs /><g transform="translate(43,30)"><path d="M 30,58 Q 37.5,123.5 89,145 Q 107.5,62.5 34,72 Q 2.5,113.5 35,91 Q 5.5,164.5 68,146" fill="none" stroke="black" stroke-width="2" /><path d="M 180,131 Q 170.5,59.5 81,68 Q 57.0,127.5 107,113 Q 142.5,97.5 122,26 Q 54.5,13.0 31,44" fill="none" stroke="black" stroke-width="2" /><path d="M 155,54 Q 124.5,20.5 30,51 Q 96.5,76.5 111,50 Q 177.5,75.0 148,4 Q 115.0,13.5 122,63" fill="none" stroke="black" stroke-width="2" /><path d="M 182,119 Q 189.5,42.5 113,50 Q 66.5,49.0 60,88 Q 83.5,160.0 199,140 Q 187.0,84.0 95,108" fill="none" stroke="black" stroke-width="2" /></g></svg>