<?xml version="1.0" encoding="utf-8" ?>
<svg baseProfile="full" height="210mm" version="1.1" viewBox="0 0 297 210" width="297mm" xmlns="http://www.w3.org/2000/svg" xmlns:ev="http://www.w3.org/2001/xml-events" xmlns:xlink="http://www.w3.org/1999/xlink"><defs /><g transform="translate(43,30)"><path d="M 104,122 Q 115.0,60.0 58,66 Q 118.0,59.0 136,10 Q 131.5,42.0 189,12 Q 124.5,9.5 144,91" fill="none" stroke="black" stroke-width="2" /><path d="M 97,11 Q 46.5,-4.0 58,43 Q 169.0,64.0 210,15 Q 80.0,33.5 36,138 Q 69.5,144.5 51,99" fill="none" stroke="black" stroke-width="2" /><path d="M 201,144 Q 146.0,89.5 51,75 Q 121.5,70.5 130,4 Q 44.5,36.0 23,132 Q 71.5,26.5 22,19" fill="none" stroke="black" stroke-width="2" /><path d="M 86,100 Q 101.5,147.0 201,110 Q 169.5,59.0 44,102 Q 113.0,135.0 102,88 Q 148.0,92.0 126,28" fill="none" stroke="black" stroke-width="2" /></g></svg>