<?xml version="1.0" encoding="utf-8" ?>
<svg baseProfile="full" height="210mm" version="1.1" viewBox="0 0 297 210" width="297mm" xmlns="http://www.w3.org/2000/svg" xmlns:ev="http://www.w3.org/2001/xml-events" xmlns:xlink="http://www.w3.org/1999/xlink"><defs /><g transform="translate(43,30)"><path d="M 202,143 Q 87.5,109.5 45,148 Q 96.0,144.5 67,61 Q 33.0,63.0 67,65 Q 77.5,13.0 20,29" fill="none" stroke="black" stroke-width="2" /><path d="M 179,10 Q 117.0,12.5 109,69 Q 104.0,108.0 163,83 Q 170.5,15.5 88,38 Q 179.5,57.0 207,12" fill="none" stroke="black" stroke-width="2" /><path d="M 59,0 Q -17.5,23.5 2,143 Q 120.0,155.5 172,102 Q 155.0,144.5 190,135 Q 214.0,83.0 150,119" fill="none" stroke="black" stroke-width="2" /><path d="M 149,102 Q 157.5,35.0 122,12 Q 94.5,91.5 155,83 Q 217.5,109.5 190,46 Q 65.5,51.0 15,130" fill="none" stroke="black" stroke-width="2" /></g></svg>