<?xml version="1.0" encoding="utf-8" ?>
<svg baseProfile="full" height="210mm" version="1.1" viewBox="0 0 297 210" width="297mm" xmlns="http://www.w3.org/2000/svg" xmlns:ev="http://www.w3.org/2001/xml-events" xmlns:xlink="http://www.w3.org/1999/xlink"><defs /><g transform="translate(43,30)"><path d="M 205,32 Q 198.0,-12.5 121,13 Q 95.5,73.0 138,65 Q 115.0,23.0 20,53 Q 119.5,92.5 123,36" fill="none" stroke="black" stroke-width="2" /><path d="M 153,123 Q 197.5,113.5 184,46 Q 178.5,-12.5 99,3 Q 70.0,18.5 93,86 Q 128.5,39.0 82,74" fill="none" stroke="black" stroke-width="2" /><path d="M 195,66 Q 122.5,35.0 140,94 Q 133.0,151.0 200,134 Q 110.0,91.5 118,147 Q 112.5,38.0 19,17" fill="none" stroke="black" stroke-width="2" /><path d="M 200,40 Q 160.0,53.0 182,128 Q 153.0,94.5 78,107 Q 160.5,79.0 201,9 Q 162.5,50.5 206,10" fill="none" stroke="black" stroke-width="2" /></g></svg>