<?xml version="1.0" encoding="utf-8" ?>
<svg baseProfile="full" height="210mm" version="1.1" viewBox="0 0 297 210" width="297mm" xmlns="http://www.w3.org/2000/svg" xmlns:ev="http://www.w3.org/2001/xml-events" xmlns:xlink="http://www.w3.org/1999/xlink"><defs /><g transform="translate(43,30)"><path d="M 22,11 Q -3.0,10.0 16,53 Q 47.5,107.0 161,79 Q 62.5,69.0 16,111 Q 103.5,117.5 107,40" fill="none" stroke="black" stroke-width="2" /><path d="M 73,38 Q 86.0,104.0 183,86 Q 142.5,21.5 16,43 Q 0.0,132.0 60,145 Q 129.0,146.0 122,71" fill="none" stroke="black" stroke-width="2" /><path d="M 82,127 Q 156.5,142.5 177,104 Q 180.5,15.0 94,16 Q 53.5,48.0 79,146 Q 149.0,139.0 165,78" fill="none" stroke="black" stroke-width="2" /><path d="M 108,67 Q 131.0,21.0 70,59 Q 6.5,51.0 9,109 Q 37.5,66.0 6,83 Q -35.0,147.0 20,115" fill="none" stroke="black" stroke-width="2" /></g></svg>