<?xml version="1.0" encoding="utf-8" ?>
<svg baseProfile="full" height="210mm" version="1.1" viewBox="0 0 297 210" width="297mm" xmlns="http://www.w3.org/2000/svg" xmlns:ev="http://www.w3.org/2001/xml-events" xmlns:xlink="http://www.w3.org/1999/xlink"><defs /><g transform="translate(43,30)"><path d="M 39,14 Q 1.0,62.5 53,21 Q 31.5,77.0 104,39 Q 100.0,78.0 160,53 Q 225.5,85.5 199,26" fill="none" stroke="black" stroke-width="2" /><path d="M 150,147 Q 137.5,60.0 41,57 Q 111.5,73.5 98,6 Q 91.0,43.5 150,15 Q 140.0,84.5 178,106" fill="none" stroke="black" stroke-width="2" /><path d="M 26,47 Q -11.0,104.5 46,68 Q 149.0,90.5 152,13 Q 49.5,-6.0 3,31 Q 7.5,90.5 58,104" fill="none" stroke="black" stroke-width="2" /><path d="M 146,139 Q 123.0,76.0 6,107 Q 136.5,136.5 203,102 Q 162.5,31.0 38,44 Q 18.5,97.5 53,97" fill="none" stroke="black" stroke-width="2" /></g></svg>