<?xml version="1.0" encoding="utf-8" ?>
<svg baseProfile="full" height="210mm" version="1.1" viewBox="0 0 297 210" width="297mm" xmlns="http://www.w3.org/2000/svg" xmlns:ev="http://www.w3.org/2001/xml-events" xmlns:xlink="http://www.w3.org/1999/xlink"><defs /><g transform="translate(43,30)"><path d="M 72,35 Q -2.5,0.0 23,65 Q 41.5,12.5 18,2 Q 22.0,41.0 86,20 Q 90.0,-18.5 36,1" fill="none" stroke="black" stroke-width="2" /><path d="M 6,71 Q 95.0,87.5 104,24 Q 112.5,102.5 195,107 Q 189.0,8.0 85,7 Q 65.0,84.0 107,99" fill="none" stroke="black" stroke-width="2" /><path d="M 49,109 Q 162.5,110.5 180,16 Q 106.0,-3.5 84,29 Q 144.5,60.5 137,24 Q 102.0,43.0 135,130" fill="none" stroke="black" stroke-width="2" /><path d="M 130,73 Q 77.0,72.0 70,117 Q 142.0,99.0 164,31 Q 101.0,44.5 126,146 Q 106.5,73.5 31,57" fill="none" stroke="black" stroke-width="2" /></g></svg>