<?xml version="1.0" encoding="utf-8" ?>
<svg baseProfile="full" height="210mm" version="1.1" viewBox="0 0 297 210" width="297mm" xmlns="http://www.w3.org/2000/svg" xmlns:ev="http://www.w3.org/2001/xml-events" xmlns:xlink="http://www.w3.org/1999/xlink"><defs /><g transform="translate(43,30)"><path d="M 53,63 Q 56.0,124.0 145,99 Q 63.5,65.0 70,119 Q 13.0,84.0 46,139 Q 118.0,120.5 92,4" fill="none" stroke="black" stroke-width="2" /><path d="M 53,38 Q 9.0,88.0 57,46 Q 6.0,39.0 19,96 Q 110.0,112.0 125,52 Q 126.0,104.0 197,86" fill="none" stroke="black" stroke-width="2" /><path d="M 171,145 Q 125.0,64.0 33,29 Q 25.5,65.0 80,39 Q 36.5,18.5 49,54 Q 66.5,115.0 156,104" fill="none" stroke="black" stroke-width="2" /><path d="M 53,92 Q 88.0,109.0 59,62 Q 31.5,122.0 88,98 Q 66.0,144.0 116,118 Q 155.5,144.5 117,93" fill="none" stroke="black" stroke-width="2" /></g></svg>