<?xml version="1.0" encoding="utf-8" ?>
<svg baseProfile="full" height="210mm" version="1.1" viewBox="0 0 297 210" width="297mm" xmlns="http://www.w3.org/2000/svg" xmlns:ev="http://www.w3.org/2001/xml-events" xmlns:xlink="http://www.w3.org/1999/xlink"><defs /><g transform="translate(43,30)"><path d="M 79,133 Q 89.5,45.0 16,41 Q 146.5,74.0 197,27 Q 85.0,33.5 29,96 Q 98.0,108.5 69,23" fill="none" stroke="black" stroke-width="2" /><path d="M 183,44 Q 111.0,47.5 101,113 Q 159.0,126.5 175,98 Q 59.5,77.0 36,148 Q 137.0,123.0 160,20" fill="none" stroke="black" stroke-width="2" /><path d="M 58,119 Q 134.5,92.0 169,23 Q 149.5,83.5 208,66 Q 192.5,18.0 119,28 Q 119.5,108.5 164,145" fill="none" stroke="black" stroke-width="2" /><path d="M 151,47 Q 100.0,43.0 111,101 Q 43.5,83.5 22,112 Q 33.0,161.0 130,124 Q 180.5,120.5 153,39" fill="none" stroke="black" stroke-width="2" /></g></svg>