<?xml version="1.0" encoding="utf-8" ?>
<svg baseProfile="full" height="210mm" version="1.1" viewBox="0 0 297 210" width="297mm" xmlns="http://www.w3.org/2000/svg" xmlns:ev="http://www.w3.org/2001/xml-events" xmlns:xlink="http://www.w3.org/1999/xlink"><defs /><g transform="translate(43,30)"><path d="M 120,28 Q 96.5,84.5 155,59 Q 172.0,-4.0 115,7 Q 44.0,2.5 63,88 Q 111.5,112.5 102,79" fill="none" stroke="black" stroke-width="2" /><path d="M 23,132 Q 87.5,173.0 64,126 Q 171.0,169.0 180,114 Q 108.0,79.5 130,139 Q 139.5,80.0 81,89" fill="none" stroke="black" stroke-width="2" /><path d="M 109,75 Q 34.5,86.0 8,145 Q 37.0,171.0 66,145 Q 96.0,42.5 64,2 Q 109.5,53.5 205,55" fill="none" stroke="black" stroke-width="2" /><path d="M 106,15 Q 118.0,-12.5 80,10 Q 22.0,-15.5 32,27 Q 53.5,97.5 145,98 Q 148.0,63.0 95,84" fill="none" stroke="black" stroke-width="2" /></g></svg>