<?xml version="1.0" encoding="utf-8" ?>
<svg baseProfile="full" height="210mm" version="1.1" viewBox="0 0 297 210" width="297mm" xmlns="http://www.w3.org/2000/svg" xmlns:ev="http://www.w3.org/2001/xml-events" xmlns:xlink="http://www.w3.org/1999/xlink"><defs /><g transform="translate(43,30)"><path d="M 53,13 Q 82.5,79.0 156,101 Q 200.0,101.5 184,42 Q 83.0,54.0 40,124 Q 80.0,121.0 66,64" fill="none" stroke="black" stroke-width="2" /><path d="M 210,41 Q 131.0,13.5 132,66 Q 162.0,72.5 140,27 Q 42.0,22.5 8,82 Q 37.0,101.5 18,73" fill="none" stroke="black" stroke-width="2" /><path d="M 4,99 Q 129.5,104.0 183,37 Q 170.5,-18.5 84,0 Q 21.5,-27.5 35,21 Q 69.0,51.5 149,36" fill="none" stroke="black" stroke-width="2" /><path d="M 51,97 Q 63.5,129.5 140,98 Q 100.0,61.5 4,81 Q -13.5,115.5 29,90 Q 42.0,30.5 11,15" fill="none" stroke="black" stroke-width="2" /></g></svg>