<?xml version="1.0" encoding="utf-8" ?>
<svg baseProfile="full" height="210mm" version="1.1" viewBox="0 0 297 210" width="297mm" xmlns="http://www.w3.org/2000/svg" xmlns:ev="http://www.w3.org/2001/xml-events" xmlns:xlink="http://www.w3.org/1999/xlink"><defs /><g transform="translate(43,30)"><path d="M 13,137 Q 86.5,172.5 60,108 Q 148.0,120.5 142,39 Q 175.5,-16.5 115,22 Q 66.5,129.5 118,137" fill="none" stroke="black" stroke-width="2" /><path d="M 140,61 Q 117.5,12.5 39,20 Q 111.0,58.0 89,2 Q 16.5,24.0 6,108 Q 71.0,132.5 84,105" fill="none" stroke="black" stroke-width="2" /><path d="M 164,40 Q 154.0,102.5 186,123 Q 177.0,45.5 126,10 Q 78.5,37.0 85,118 Q 109.0,59.0 37,96" fill="none" stroke="black" stroke-width="2" /><path d="M 38,37 Q 50.5,126.0 135,143 Q 122.0,75.0 23,93 Q 145.5,106.5 168,20 Q 80.5,13.5 81,95" fill="none" stroke="black" stroke-width="2" /></g></svg>