<?xml version="1.0" encoding="utf-8" ?>
<svg baseProfile="full" height="210mm" version="1.1" viewBox="0 0 297 210" width="297mm" xmlns="http://www.w3.org/2000/svg" xmlns:ev="http://www.w3.org/2001/xml-events" xmlns:xlink="http://www.w3.org/1999/xlink"><defs /><g transform="translate(43,30)"><path d="M 188,119 Q 220.5,27.0 155,33 Q 93.5,37.5 120,130 Q 170.0,94.0 178,16 Q 88.0,-18.0 74,24" fill="none" stroke="black" stroke-width="2" /><path d="M 93,50 Q 133.5,7.0 90,48 Q 156.0,52.5 178,13 Q 143.0,57.0 194,15 Q 144.5,7.5 155,60" fill="none" stroke="black" stroke-width="2" /><path d="M 97,25 Q 104.0,93.5 193,80 Q 82.5,62.0 46,118 Q 122.0,140.5 144,109 Q 145.0,19.0 56,19" fill="none" stroke="black" stroke-width="2" /><path d="M 42,8 Q 58.0,125.0 170,146 Q 210.0,100.5 202,7 Q 97.5,7.5 51,66 Q 37.0,141.0 99,140" fill="none" stroke="black" stroke-width="2" /></g></svg>