<?xml version="1.0" encoding="utf-8" ?>
<svg baseProfile="full" height="210mm" version="1.1" viewBox="0 0 297 210" width="297mm" xmlns="http://www.w3.org/2000/svg" xmlns:ev="http://www.w3.org/2001/xml-events" xmlns:xlink="http://www.w3.org/1999/xlink"><defs /><g transform="translate(43,30)"><path d="M 178,65 Q 153.5,20.5 67,38 Q 82.5,127.0 168,146 Q 173.0,99.5 86,145 Q 126.5,34.5 71,20" fill="none" stroke="black" stroke-width="2" /><path d="M 142,82 Q 110.5,85.5 129,139 Q 125.0,101.5 59,126 Q 119.0,106.5 95,3 Q 111.0,53.5 167,64" fill="none" stroke="black" stroke-width="2" /><path d="M 122,72 Q 150.0,6.0 88,30 Q 90.0,86.5 164,71 Q 219.0,105.5 174,40 Q 65.5,12.0 15,42" fill="none" stroke="black" stroke-width="2" /><path d="M 185,24 Q 127.0,19.0 131,76 Q 43.0,60.5 55,145 Q 56.0,114.5 15,126 Q 114.0,138.0 133,70" fill="none" stroke="black" stroke-width="2" /></g></svg>