<?xml version="1.0" encoding="utf-8" ?>
<svg baseProfile="full" height="210mm" version="1.1" viewBox="0 0 297 210" width="297mm" xmlns="http://www.w3.org/2000/svg" xmlns:ev="http://www.w3.org/2001/xml-events" xmlns:xlink="http://www.w3.org/1999/xlink"><defs /><g transform="translate(43,30)"><path d="M 15,141 Q 115.0,137.0 119,37 Q 76.0,102.0 127,73 Q 161.0,4.5 105,26 Q 66.0,13.0 67,40" fill="none" stroke="black" stroke-width="2" /><path d="M 96,45 Q 41.0,57.5 30,114 Q 26.0,149.0 64,142 Q 125.5,171.5 107,121 Q 138.0,139.0 123,111" fill="none" stroke="black" stroke-width="2" /><path d="M 191,4 Q 162.0,60.0 193,56 Q 162.0,74.5 185,147 Q 150.5,54.0 52,25 Q 68.5,83.0 149,77" fill="none" stroke="black" stroke-width="2" /><path d="M 55,117 Q -2.0,97.0 5,141 Q 113.5,136.5 124,34 Q 114.5,66.0 145,58 Q 96.0,47.5 107,97" fill="none" stroke="black" stroke-width="2" /></g></svg>