<?xml version="1.0" encoding="utf-8" ?>
<svg baseProfile="full" height="210mm" version="1.1" viewBox="0 0 297 210" width="297mm" xmlns="http://www.w3.org/2000/svg" xmlns:ev="http://www.w3.org/2001/xml-events" xmlns:xlink="http://www.w3.org/1999/xlink"><defs /><g transform="translate(43,30)"><path d="M 74,67 Q 96.5,20.0 43,49 Q 106.5,81.0 70,13 Q 80.0,91.0 150,109 Q 177.0,71.5 132,106" fill="none" stroke="black" stroke-width="2" /><path d="M 154,141 Q 215.0,134.5 190,42 Q 96.5,20.5 51,47 Q 133.0,69.5 165,42 Q 142.5,68.5 172,43" fill="none" stroke="black" stroke-width="2" /><path d="M 46,105 Q 62.5,34.5 33,10 Q -13.5,15.0 2,82 Q 150.5,119.0 205,62 Q 182.5,3.0 94,10" fill="none" stroke="black" stroke-width="2" /><path d="M 90,78 Q 176.0,120.0 172,72 Q 81.0,66.0 42,112 Q 64.0,42.5 38,21 Q 58.5,65.5 163,26" fill="none" stroke="black" stroke-width="2" /></g></svg>