<?xml version="1.0" encoding="utf-8" ?>
<svg baseProfile="full" height="210mm" version="1.1" viewBox="0 0 297 210" width="297mm" xmlns="http://www.w3.org/2000/svg" xmlns:ev="http://www.w3.org/2001/xml-events" xmlns:xlink="http://www.w3.org/1999/xlink"><defs /><g transform="translate(43,30)"><path d="M 53,71 Q 57.0,148.0 141,145 Q 165.0,88.5 115,106 Q 162.5,78.0 166,6 Q 65.5,47.5 9,133" fill="none" stroke="black" stroke-width="2" /><path d="M 172,9 Q 122.5,-3.5 125,36 Q 82.0,24.5 81,55 Q 119.5,87.5 208,70 Q 152.0,17.0 26,34" fill="none" stroke="black" stroke-width="2" /><path d="M 89,38 Q 81.5,61.0 116,42 Q 109.5,102.5 161,105 Q 176.0,30.5 139,8 Q 125.0,-43.0 15,2" fill="none" stroke="black" stroke-width="2" /><path d="M 113,143 Q 182.0,152.0 179,89 Q 210.0,12.5 143,34 Q 102.5,-1.0 0,26 Q -9.0,111.5 46,133" fill="none" stroke="black" stroke-width="2" /></g></svg>