<?xml version="1.0" encoding="utf-8" ?>
<svg baseProfile="full" height="210mm" version="1.1" viewBox="0 0 297 210" width="297mm" xmlns="http://www.w3.org/2000/svg" xmlns:ev="http://www.w3.org/2001/xml-events" xmlns:xlink="http://www.w3.org/1999/xlink"><defs /><g transform="translate(43,30)"><path d="M 201,78 Q 223.0,19.0 179,26 Q 150.5,48.0 178,126 Q 133.0,103.5 150,143 Q 100.5,53.0 7,7" fill="none" stroke="black" stroke-width="2" /><path d="M 132,57 Q 194.5,78.5 165,8 Q 60.5,-10.5 54,69 Q 133.0,103.0 112,37 Q 49.0,6.0 56,45" fill="none" stroke="black" stroke-width="2" /><path d="M 22,39 Q 127.5,81.5 135,26 Q 104.5,-9.5 18,11 Q -21.0,101.0 36,95 Q 138.5,93.0 195,45" fill="none" stroke="black" stroke-width="2" /><path d="M 47,27 Q 12.5,131.0 66,147 Q 84.5,71.0 57,41 Q 93.5,-28.5 30,2 Q 37.5,41.0 85,40" fill="none" stroke="black" stroke-width="2" /></g></svg>