<?xml version="1.0" encoding="utf-8" ?>
<svg baseProfile="full" height="210mm" version="1.1" viewBox="0 0 297 210" width="297mm" xmlns="http://www.w3.org/2000/svg" xmlns:ev="http://www.w3.org/2001/xml-events" xmlns:xlink="http://www.w3.org/1999/xlink"><defs /><g transform="translate(43,30)"><path d="M 190,93 Q 189.5,30.5 101,56 Q 119.5,5.0 42,50 Q 86.5,90.0 209,52 Q 139.0,44.0 143,110" fill="none" stroke="black" stroke-width="2" /><path d="M 32,121 Q 79.5,111.0 37,11 Q 21.0,50.5 65,30 Q 18.0,16.0 15,46 Q 21.5,88.5 102,57" fill="none" stroke="black" stroke-width="2" /><path d="M 118,143 Q 155.0,57.5 110,54 Q 27.0,26.0 44,98 Q 139.5,85.5 187,25 Q 160.5,86.5 208,74" fill="none" stroke="black" stroke-width="2" /><path d="M 100,122 Q 139.5,57.5 87,85 Q 52.0,60.5 73,92 Q 119.5,112.5 116,83 Q 135.0,15.0 100,1" fill="none" stroke="black" stroke-width="2" /></g></svg>