<?xml version="1.0" encoding="utf-8" ?>
<svg baseProfile="full" height="210mm" version="1.1" viewBox="0 0 297 210" width="297mm" xmlns="http://www.w3.org/2000/svg" xmlns:ev="http://www.w3.org/2001/xml-events" xmlns:xlink="http://www.w3.org/1999/xlink"><defs /><g transform="translate(43,30)"><path d="M 169,8 Q 112.0,56.0 95,144 Q 82.0,63.0 19,32 Q 17.5,76.5 84,53 Q 104.5,115.0 185,117" fill="none" stroke="black" stroke-width="2" /><path d="M 163,62 Q 113.0,42.0 149,108 Q 205.0,138.5 161,69 Q 110.5,24.0 60,69 Q 82.0,131.5 200,98" fill="none" stroke="black" stroke-width="2" /><path d="M 10,88 Q 104.0,99.0 100,12 Q 106.5,49.0 181,18 Q 90.0,-21.0 91,32 Q 78.0,57.5 115,33" fill="none" stroke="black" stroke-width="2" /><path d="M 182,146 Q 166.5,93.5 51,141 Q 131.5,137.0 130,51 Q 125.5,125.0 193,127 Q 180.5,59.5 108,52" fill="none" stroke="black" stroke-width="2" /></g></svg>