<?xml version="1.0" encoding="utf-8" ?>
<svg baseProfile="full" height="210mm" version="1.1" viewBox="0 0 297 210" width="297mm" xmlns="http://www.w3.org/2000/svg" xmlns:ev="http://www.w3.org/2001/xml-events" xmlns:xlink="http://www.w3.org/1999/xlink"><defs /><g transform="translate(43,30)"><path d="M 168,125 Q 192.5,39.0 121,49 Q 95.0,121.5 145,118 Q 149.5,69.0 78,96 Q 143.0,106.5 148,57" fill="none" stroke="black" stroke-width="2" /><path d="M 154,113 Q 177.0,46.5 104,76 Q 112.5,22.5 63,27 Q 27.5,84.0 84,49 Q 112.0,14.0 78,41" fill="none" stroke="black" stroke-width="2" /><path d="M 19,114 Q 56.0,127.5 23,71 Q 74.5,119.0 188,105 Q 220.0,115.5 206,80 Q 86.0,74.0 36,138" fill="none" stroke="black" stroke-width="2" /><path d="M 167,109 Q 190.5,65.0 144,91 Q 58.0,51.5 60,100 Q 91.0,62.0 60,24 Q 52.5,81.0 125,58" fill="none" stroke="black" stroke-width="2" /></g></svg>