<?xml version="1.0" encoding="utf-8" ?>
<svg baseProfile="full" height="210mm" version="1.1" viewBox="0 0 297 210" width="297mm" xmlns="http://www.w3.org/2000/svg" xmlns:ev="http://www.w3.org/2001/xml-events" xmlns:xlink="http://www.w3.org/1999/xlink"><defs /><g transform="translate(43,30)"><path d="M 58,35 Q 44.0,101.0 80,117 Q 73.5,59.0 13,55 Q 15.5,120.0 98,105 Q 153.5,110.0 121,27" fill="none" stroke="black" stroke-width="2" /><path d="M 125,74 Q 96.5,143.0 164,116 Q 121.5,37.0 37,0 Q 71.0,98.5 161,141 Q 153.0,65.5 81,54" fill="none" stroke="black" stroke-width="2" /><path d="M 116,58 Q 58.0,25.0 0,58 Q 73.5,77.5 55,5 Q 23.0,-7.0 35,25 Q 11.5,57.5 42,36" fill="none" stroke="black" stroke-width="2" /><path d="M 149,101 Q 101.0,70.5 133,120 Q 121.0,30.0 17,32 Q 119.0,80.5 123,31 Q 134.0,-5.5 73,30" fill="none" stroke="black" stroke-width="2" /></g></svg>