<?xml version="1.0" encoding="utf-8" ?>
<svg baseProfile="full" height="210mm" version="1.1" viewBox="0 0 297 210" width="297mm" xmlns="http://www.w3.org/2000/svg" xmlns:ev="http://www.w3.org/2001/xml-events" xmlns:xlink="http://www.w3.org/1999/xlink"><defs /><g transform="translate(43,30)"><path d="M 49,77 Q 112.5,84.0 130,45 Q 65.5,15.5 61,46 Q 41.5,115.5 104,103 Q 176.5,96.0 199,39" fill="none" stroke="black" stroke-width="2" /><path d="M 163,5 Q 153.0,36.5 195,16 Q 72.5,40.5 26,141 Q 50.5,68.5 17,54 Q 69.5,117.5 190,113" fill="none" stroke="black" stroke-width="2" /><path d="M 181,114 Q 151.0,153.0 189,124 Q 199.5,37.5 128,33 Q 52.0,10.5 44,56 Q -9.0,22.0 38,88" fill="none" stroke="black" stroke-width="2" /><path d="M 100,110 Q 128.0,33.0 88,24 Q 101.0,60.5 160,51 Q 85.5,47.0 103,135 Q 203.5,136.0 204,37" fill="none" stroke="black" stroke-width="2" /></g></svg>