<?xml version="1.0" encoding="utf-8" ?>
<svg baseProfile="full" height="210mm" version="1.1" viewBox="0 0 297 210" width="297mm" xmlns="http://www.w3.org/2000/svg" xmlns:ev="http://www.w3.org/2001/xml-events" xmlns:xlink="http://www.w3.org/1999/xlink"><defs /><g transform="translate(43,30)"><path d="M 132,17 Q 116.5,63.5 191,20 Q 115.5,30.5 108,109 Q 125.0,152.0 190,147 Q 155.5,101.0 75,101" fill="none" stroke="black" stroke-width="2" /><path d="M 108,16 Q 84.0,82.0 110,98 Q 100.0,147.5 176,111 Q 160.0,43.0 58,61 Q -1.5,45.0 35,125" fill="none" stroke="black" stroke-width="2" /><path d="M 161,112 Q 111.0,100.5 103,131 Q 144.5,126.0 132,67 Q 105.0,114.0 154,85 Q 119.5,21.5 31,12" fill="none" stroke="black" stroke-width="2" /><path d="M 123,131 Q 132.5,66.0 46,97 Q 89.0,94.5 60,20 Q 18.5,52.0 27,134 Q 122.5,124.5 140,37" fill="none" stroke="black" stroke-width="2" /></g></svg>