<?xml version="1.0" encoding="utf-8" ?>
<svg baseProfile="full" height="210mm" version="1.1" viewBox="0 0 297 210" width="297mm" xmlns="http://www.w3.org/2000/svg" xmlns:ev="http://www.w3.org/2001/xml-events" xmlns:xlink="http://www.w3.org/1999/xlink"><defs /><g transform="translate(43,30)"><path d="M 139,16 Q 134.5,-11.5 90,1 Q 27.5,7.0 45,93 Q 93.5,110.0 52,37 Q 68.5,120.5 151,138" fill="none" stroke="black" stroke-width="2" /><path d="M 147,22 Q 86.5,6.0 94,58 Q 49.5,71.5 67,147 Q 158.5,161.5 186,112 Q 204.5,24.5 155,5" fill="none" stroke="black" stroke-width="2" /><path d="M 99,143 Q 144.5,108.5 132,16 Q 108.5,110.0 155,134 Q 128.5,80.0 52,76 Q 58.0,25.0 0,38" fill="none" stroke="black" stroke-width="2" /><path d="M 134,10 Q 74.5,-2.5 55,25 Q 70.5,133.5 184,144 Q 144.5,61.5 45,39 Q 155.0,61.5 193,12" fill="none" stroke="black" stroke-width="2" /></g></svg>