<?xml version="1.0" encoding="utf-8" ?>
<svg baseProfile="full" height="210mm" version="1.1" viewBox="0 0 297 210" width="297mm" xmlns="http://www.w3.org/2000/svg" xmlns:ev="http://www.w3.org/2001/xml-events" xmlns:xlink="http://www.w3.org/1999/xlink"><defs /><g transform="translate(43,30)"><path d="M 19,25 Q -31.0,24.0 17,121 Q 114.0,139.0 139,85 Q 128.5,51.0 74,61 Q 15.5,70.5 1,124" fill="none" stroke="black" stroke-width="2" /><path d="M 69,20 Q 81.0,-25.5 15,7 Q 48.5,92.0 168,91 Q 144.5,34.5 81,18 Q 49.0,7.5 67,47" fill="none" stroke="black" stroke-width="2" /><path d="M 65,85 Q 70.0,29.0 31,17 Q 14.0,104.5 79,110 Q 132.5,138.0 118,98 Q 128.0,31.0 86,16" fill="none" stroke="black" stroke-width="2" /><path d="M 165,142 Q 174.0,55.0 109,42 Q 55.5,63.0 66,148 Q 123.0,167.0 132,138 Q 104.0,99.5 32,105" fill="none" stroke="black" stroke-width="2" /></g></svg>