<?xml version="1.0" encoding="utf-8" ?>
<svg baseProfile="full" height="210mm" version="1.1" viewBox="0 0 297 210" width="297mm" xmlns="http://www.w3.org/2000/svg" xmlns:ev="http://www.w3.org/2001/xml-events" xmlns:xlink="http://www.w3.org/1999/xlink"><defs /><g transform="translate(43,30)"><path d="M 193,37 Q 117.0,15.5 91,44 Q 20.5,41.0 8,96 Q 9.0,140.0 84,110 Q 123.0,129.0 96,82" fill="none" stroke="black" stroke-width="2" /><path d="M 13,67 Q 69.0,95.5 165,84 Q 146.5,23.5 28,63 Q 112.5,86.0 143,55 Q 76.0,65.0 81,147" fill="none" stroke="black" stroke-width="2" /><path d="M 54,100 Q 161.0,123.5 172,51 Q 113.0,20.0 136,71 Q 116.0,124.5 158,116 Q 91.0,85.0 116,146" fill="none" stroke="black" stroke-width="2" /><path d="M 201,123 Q 110.5,82.0 110,131 Q 154.0,80.0 110,29 Q 61.5,48.0 83,137 Q 110.0,79.5 55,104" fill="none" stroke="black" stroke-width="2" /></g></svg>