<?xml version="1.0" encoding="utf-8" ?>
<svg baseProfile="full" height="210mm" version="1.1" viewBox="0 0 297 210" width="297mm" xmlns="http://www.w3.org/2000/svg" xmlns:ev="http://www.w3.org/2001/xml-events" xmlns:xlink="http://www.w3.org/1999/xlink"><defs /><g transform="translate(43,30)"><path d="M 5,138 Q 47.0,127.5 45,73 Q 144.0,82.0 165,13 Q 95.0,25.5 65,78 Q 90.0,37.5 45,67" fill="none" stroke="black" stroke-width="2" /><path d="M 174,98 Q 136.5,52.0 45,60 Q 35.0,115.5 99,97 Q 102.0,10.5 7,22 Q 30.0,96.0 95,128" fill="none" stroke="black" stroke-width="2" /><path d="M 5,33 Q 58.5,41.5 66,4 Q 34.5,45.0 81,8 Q 66.0,89.0 141,80 Q 117.0,16.0 9,36" fill="none" stroke="black" stroke-width="2" /><path d="M 78,4 Q 48.0,18.5 62,77 Q 66.5,16.5 7,20 Q 25.5,76.5 124,53 Q 48.5,55.5 25,110" fill="none" stroke="black" stroke-width="2" /></g></svg>