<?xml version="1.0" encoding="utf-8" ?>
<svg baseProfile="full" height="210mm" version="1.1" viewBox="0 0 297 210" width="297mm" xmlns="http://www.w3.org/2000/svg" xmlns:ev="http://www.w3.org/2001/xml-events" xmlns:xlink="http://www.w3.org/1999/xlink"><defs /><g transform="translate(43,30)"><path d="M 17,125 Q 77.0,107.0 57,9 Q 91.0,39.5 177,18 Q 101.5,55.5 74,141 Q 137.0,102.0 160,23" fill="none" stroke="black" stroke-width="2" /><path d="M 144,105 Q 144.5,76.0 89,103 Q 11.0,77.0 3,121 Q -4.5,166.0 56,143 Q 79.0,57.0 24,49" fill="none" stroke="black" stroke-width="2" /><path d="M 57,39 Q 56.0,126.0 139,129 Q 211.0,159.0 197,103 Q 185.0,45.5 93,68 Q 86.0,104.5 127,93" fill="none" stroke="black" stroke-width="2" /><path d="M 116,97 Q 78.0,152.5 136,112 Q 141.5,43.0 93,28 Q 103.5,70.0 164,62 Q 129.5,13.0 9,50" fill="none" stroke="black" stroke-width="2" /></g></svg>