<?xml version="1.0" encoding="utf-8" ?>
<svg baseProfile="full" height="210mm" version="1.1" viewBox="0 0 297 210" width="297mm" xmlns="http://www.w3.org/2000/svg" xmlns:ev="http://www.w3.org/2001/xml-events" xmlns:xlink="http://www.w3.org/1999/xlink"><defs /><g transform="translate(43,30)"><path d="M 38,50 Q 111.5,71.0 107,14 Q 139.5,-27.5 92,11 Q 37.5,-6.0 43,37 Q -12.5,11.5 28,82" fill="none" stroke="black" stroke-width="2" /><path d="M 209,9 Q 88.0,3.0 63,93 Q 135.5,117.0 136,69 Q 110.5,32.0 39,41 Q 66.5,121.5 194,102" fill="none" stroke="black" stroke-width="2" /><path d="M 145,44 Q 72.0,50.5 51,109 Q 63.5,75.0 20,97 Q 74.5,132.5 51,90 Q 25.5,158.5 88,139" fill="none" stroke="black" stroke-width="2" /><path d="M 65,130 Q 178.0,157.0 193,86 Q 143.5,59.5 188,127 Q 209.5,41.5 153,34 Q 123.0,-13.0 23,10" fill="none" stroke="black" stroke-width="2" /></g></svg>