<?xml version="1.0" encoding="utf-8" ?>
<svg baseProfile="full" height="210mm" version="1.1" viewBox="0 0 297 210" width="297mm" xmlns="http://www.w3.org/2000/svg" xmlns:ev="http://www.w3.org/2001/xml-events" xmlns:xlink="http://www.w3.org/1999/xlink"><defs /><g transform="translate(43,30)"><path d="M 168,141 Q 193.5,58.5 157,38 Q 156.0,66.0 205,44 Q 75.5,30.0 32,102 Q 68.0,131.5 158,107" fill="none" stroke="black" stroke-width="2" /><path d="M 168,103 Q 73.5,66.0 77,127 Q 86.5,167.0 172,131 Q 189.5,65.0 157,49 Q 222.5,83.5 200,30" fill="none" stroke="black" stroke-width="2" /><path d="M 74,1 Q 57.5,72.0 93,91 Q 117.0,90.5 99,48 Q 152.0,90.0 109,36 Q 105.5,122.0 168,142" fill="none" stroke="black" stroke-width="2" /><path d="M 24,34 Q 20.0,112.0 68,138 Q 95.5,181.5 203,145 Q 239.0,48.0 199,27 Q 79.0,27.5 15,84" fill="none" stroke="black" stroke-width="2" /></g></svg>