<?xml version="1.0" encoding="utf-8" ?>
<svg baseProfile="full" height="210mm" version="1.1" viewBox="0 0 297 210" width="297mm" xmlns="http://www.w3.org/2000/svg" xmlns:ev="http://www.w3.org/2001/xml-events" xmlns:xlink="http://www.w3.org/1999/xlink"><defs /><g transform="translate(43,30)"><path d="M 120,140 Q 145.0,37.5 72,33 Q 124.5,56.5 129,32 Q 112.0,100.5 183,81 Q 176.0,30.5 87,62" fill="none" stroke="black" stroke-width="2" /><path d="M 89,32 Q 30.0,18.0 35,68 Q 106.5,101.0 78,34 Q 73.5,68.0 115,56 Q 102.5,29.5 46,47" fill="none" stroke="black" stroke-width="2" /><path d="M 5,52 Q -13.5,110.5 56,81 Q 106.5,89.5 111,52 Q 27.5,29.0 0,62 Q 45.5,125.5 143,137" fill="none" stroke="black" stroke-width="2" /><path d="M 193,118 Q 199.0,28.5 123,21 Q 101.0,109.5 171,106 Q 130.5,76.0 32,104 Q 65.0,100.5 44,43" fill="none" stroke="black" stroke-width="2" /></g></svg>