<?xml version="1.0" encoding="utf-8" ?>
<svg baseProfile="full" height="210mm" version="1.1" viewBox="0 0 297 210" width="297mm" xmlns="http://www.w3.org/2000/svg" xmlns:ev="http://www.w3.org/2001/xml-events" xmlns:xlink="http://www.w3.org/1999/xlink"><defs /><g transform="translate(43,30)"><path d="M 117,126 Q 133.0,79.5 73,109 Q 136.0,149.5 107,98 Q 154.0,94.0 157,46 Q 140.0,86.5 163,87" fill="none" stroke="black" stroke-width="2" /><path d="M 189,135 Q 184.0,55.5 91,64 Q 154.5,83.5 174,59 Q 120.5,28.0 165,95 Q 109.0,67.0 147,133" fill="none" stroke="black" stroke-width="2" /><path d="M 49,28 Q 78.5,119.5 174,145 Q 144.0,104.0 52,125 Q 114.5,97.5 129,22 Q 82.0,-10.0 127,50" fill="none" stroke="black" stroke-width="2" /><path d="M 86,113 Q 140.0,141.5 106,82 Q 81.5,115.0 107,98 Q 57.0,71.0 101,138 Q 133.5,130.5 112,69" fill="none" stroke="black" stroke-width="2" /></g></svg>