<?xml version="1.0" encoding="utf-8" ?>
<svg baseProfile="full" height="210mm" version="1.1" viewBox="0 0 297 210" width="297mm" xmlns="http://www.w3.org/2000/svg" xmlns:ev="http://www.w3.org/2001/xml-events" xmlns:xlink="http://www.w3.org/1999/xlink"><defs /><g transform="translate(43,30)"><path d="M 91,41 Q 75.0,101.5 141,80 Q 57.0,55.0 69,126 Q 161.5,123.5 182,49 Q 137.5,123.0 191,99" fill="none" stroke="black" stroke-width="2" /><path d="M 78,109 Q 104.5,31.5 49,36 Q 5.0,36.0 37,112 Q 114.0,150.5 97,95 Q 158.0,122.5 143,74" fill="none" stroke="black" stroke-width="2" /><path d="M 186,40 Q 103.5,39.0 95,112 Q 190.0,133.5 185,55 Q 148.5,41.0 170,85 Q 121.0,24.5 18,18" fill="none" stroke="black" stroke-width="2" /><path d="M 35,90 Q 0.5,79.5 22,125 Q 65.5,149.5 149,134 Q 137.0,29.5 33,17 Q 161.5,58.5 196,6" fill="none" stroke="black" stroke-width="2" /></g></svg>