<?xml version="1.0" encoding="utf-8" ?>
<svg baseProfile="full" height="210mm" version="1.1" viewBox="0 0 297 210" width="297mm" xmlns="http://www.w3.org/2000/svg" xmlns:ev="http://www.w3.org/2001/xml-events" xmlns:xlink="http://www.w3.org/1999/xlink"><defs /><g transform="translate(43,30)"><path d="M 116,43 Q 38.5,23.0 39,81 Q 128.0,75.0 165,17 Q 70.5,35.5 30,108 Q 136.0,109.0 168,36" fill="none" stroke="black" stroke-width="2" /><path d="M 7,130 Q 46.5,131.5 40,87 Q 84.0,33.5 32,76 Q 67.0,149.5 196,129 Q 175.5,158.5 205,138" fill="none" stroke="black" stroke-width="2" /><path d="M 43,137 Q 165.0,183.5 193,136 Q 157.5,45.5 64,13 Q 61.5,114.0 145,129 Q 70.0,114.5 41,146" fill="none" stroke="black" stroke-width="2" /><path d="M 3,59 Q 29.5,124.5 102,144 Q 161.5,175.0 121,106 Q 62.0,76.5 75,119 Q 83.5,29.0 16,15" fill="none" stroke="black" stroke-width="2" /></g></svg>