<?xml version="1.0" encoding="utf-8" ?>
<svg baseProfile="full" height="210mm" version="1.1" viewBox="0 0 297 210" width="297mm" xmlns="http://www.w3.org/2000/svg" xmlns:ev="http://www.w3.org/2001/xml-events" xmlns:xlink="http://www.w3.org/1999/xlink"><defs /><g transform="translate(43,30)"><path d="M 56,24 Q 17.5,71.0 63,34 Q 105.5,101.0 192,124 Q 219.5,35.0 153,40 Q 200.0,73.5 167,27" fill="none" stroke="black" stroke-width="2" /><path d="M 26,25 Q 77.5,102.0 197,111 Q 163.0,104.5 175,144 Q 214.0,152.5 183,91 Q 167.0,23.0 99,7" fill="none" stroke="black" stroke-width="2" /><path d="M 204,38 Q 146.5,46.5 151,117 Q 78.0,105.5 49,138 Q 166.5,159.5 198,95 Q 130.0,41.0 18,31" fill="none" stroke="black" stroke-width="2" /><path d="M 112,51 Q 32.5,42.5 29,110 Q 126.5,115.0 138,34 Q 57.5,47.0 41,124 Q 159.0,133.5 203,69" fill="none" stroke="black" stroke-width="2" /></g></svg>