<?xml version="1.0" encoding="utf-8" ?>
<svg baseProfile="full" height="210mm" version="1.1" viewBox="0 0 297 210" width="297mm" xmlns="http://www.w3.org/2000/svg" xmlns:ev="http://www.w3.org/2001/xml-events" xmlns:xlink="http://www.w3.org/1999/xlink"><defs /><g transform="translate(43,30)"><path d="M 120,104 Q 94.5,163.5 153,139 Q 187.0,66.0 143,71 Q 118.5,6.0 24,11 Q 74.5,96.0 189,117" fill="none" stroke="black" stroke-width="2" /><path d="M 160,131 Q 120.0,81.0 22,89 Q 78.5,105.0 47,33 Q 75.5,80.5 168,64 Q 61.5,41.0 7,70" fill="none" stroke="black" stroke-width="2" /><path d="M 87,136 Q 11.0,106.5 1,143 Q 105.5,135.5 126,44 Q 153.5,77.0 181,44 Q 70.0,32.5 1,63" fill="none" stroke="black" stroke-width="2" /><path d="M 178,73 Q 207.0,61.0 196,9 Q 115.0,1.5 118,78 Q 73.5,145.5 123,119 Q 151.0,39.0 115,23" fill="none" stroke="black" stroke-width="2" /></g></svg>