<?xml version="1.0" encoding="utf-8" ?>
<svg baseProfile="full" height="210mm" version="1.1" viewBox="0 0 297 210" width="297mm" xmlns="http://www.w3.org/2000/svg" xmlns:ev="http://www.w3.org/2001/xml-events" xmlns:xlink="http://www.w3.org/1999/xlink"><defs /><g transform="translate(43,30)"><path d="M 92,33 Q 105.0,-0.5 56,28 Q 91.5,73.0 197,48 Q 95.5,36.0 34,64 Q 137.5,109.0 147,60" fill="none" stroke="black" stroke-width="2" /><path d="M 81,68 Q 160.0,89.0 141,12 Q 67.0,28.0 45,96 Q 111.5,79.0 116,0 Q 124.5,77.5 199,89" fill="none" stroke="black" stroke-width="2" /><path d="M 28,117 Q 146.5,133.0 185,69 Q 150.5,13.5 22,52 Q 32.0,103.5 100,97 Q 97.0,56.5 40,70" fill="none" stroke="black" stroke-width="2" /><path d="M 48,130 Q 162.5,154.0 209,110 Q 99.0,77.5 75,131 Q 31.0,186.5 87,142 Q 74.5,82.0 4,80" fill="none" stroke="black" stroke-width="2" /></g></svg>