<?xml version="1.0" encoding="utf-8" ?>
<svg baseProfile="full" height="210mm" version="1.1" viewBox="0 0 297 210" width="297mm" xmlns="http://www.w3.org/2000/svg" xmlns:ev="http://www.w3.org/2001/xml-events" xmlns:xlink="http://www.w3.org/1999/xlink"><defs /><g transform="translate(43,30)"><path d="M 87,117 Q 133.5,137.5 134,112 Q 159.5,84.0 135,6 Q 90.0,-15.0 91,10 Q 79.5,99.0 110,146" fill="none" stroke="black" stroke-width="2" /><path d="M 196,66 Q 231.0,12.0 168,56 Q 73.0,39.0 38,82 Q 75.0,44.0 38,6 Q -25.0,18.0 0,118" fill="none" stroke="black" stroke-width="2" /><path d="M 157,5 Q 54.0,-11.5 51,72 Q 81.5,4.0 18,30 Q 67.0,67.5 156,65 Q 143.5,29.5 81,44" fill="none" stroke="black" stroke-width="2" /><path d="M 93,97 Q 65.5,79.0 86,109 Q 132.0,23.5 84,32 Q 123.5,53.5 101,13 Q 105.0,95.5 179,108" fill="none" stroke="black" stroke-width="2" /></g></svg>