<?xml version="1.0" encoding="utf-8" ?>
<svg baseProfile="full" height="210mm" version="1.1" viewBox="0 0 297 210" width="297mm" xmlns="http://www.w3.org/2000/svg" xmlns:ev="http://www.w3.org/2001/xml-events" xmlns:xlink="http://www.w3.org/1999/xlink"><defs /><g transform="translate(43,30)"><path d="M 122,13 Q 134.0,-19.5 86,8 Q 39.5,2.5 53,57 Q 59.0,138.0 141,143 Q 180.5,98.0 168,1" fill="none" stroke="black" stroke-width="2" /><path d="M 95,123 Q 93.5,59.5 6,82 Q 88.0,92.5 100,33 Q 130.5,74.0 205,71 Q 134.5,52.5 112,82" fill="none" stroke="black" stroke-width="2" /><path d="M 75,57 Q 176.0,72.0 201,11 Q 103.5,-20.5 72,14 Q 67.5,73.0 147,48 Q 82.0,5.5 107,53" fill="none" stroke="black" stroke-width="2" /><path d="M 83,141 Q 80.5,80.5 32,66 Q 102.0,68.0 124,22 Q 81.0,80.0 134,42 Q 88.0,30.0 128,104" fill="none" stroke="black" stroke-width="2" /></g></svg>