<?xml version='1.0' encoding='UTF-8'?>
<svg xmlns="http://www.w3.org/2000/svg" xmlns:xlink="http://www.w3.org/1999/xlink" width="297" height="210" viewBox="0 0 297 210">
  <rect x="0" y="0" width="297" height="210" fill="white"/>
  <g transform="translate(74.5,31.0) scale(0.20555555555555555)"><g id="Слой_3">
	<path d="M619.1,616.8c-3.7-12.4-11.7-23-18.8-32.3l-63.3-83.4c4.3,2.7,8.9,5,13.8,6.6c18.1,5.9,42.4,0.5,50.2-18.5   c8.2-20-6.1-40.4-19.5-56L491.3,328c6.5,2.5,13.3,4.3,20.3,4.8c15.1,1,28.8-5.6,34.8-16.8c6.8-12.6,3.8-28.5-9.1-48.9   c-16.4-25.9-35.4-49.8-56.8-71.6c3.6-0.4,7.1-1.6,10.2-4c8.1-6.4,9-17.7,6.4-26c-2.7-8.5-8.5-15.2-13.6-21.2L384,28.3   c-0.7-0.8-1.8-1.3-2.9-1.3h-0.8c-1.1,0-2.2,0.5-2.9,1.3l-99.6,115.9c-5.1,6-11,12.8-13.6,21.2c-2.6,8.4-1.7,19.6,6.4,26   c3,2.4,6.6,3.7,10.2,4c-21.4,21.8-40.4,45.7-56.8,71.6c-12.9,20.3-15.8,36.3-9.1,48.9c6,11.1,19.7,17.7,34.8,16.8   c7.1-0.4,13.9-2.3,20.3-4.8l-90.2,105.1c-13.4,15.6-27.6,36-19.5,56c7.8,19.1,32.1,24.5,50.2,18.5c4.9-1.6,9.5-3.9,13.8-6.6   l-63.3,83.4c-7.1,9.3-15.1,19.9-18.8,32.3c-4.2,14.2-1.3,29,7.4,37.7c11.8,11.7,30.3,10.8,45,8.7c46.8-6.7,92-20.8,134.4-41.7   c1.9-0.9,2.7-3.2,1.7-5.1c-0.9-1.9-3.2-2.7-5.1-1.7c-41.7,20.6-86.1,34.3-132.1,41c-13,1.9-29.1,2.8-38.6-6.5   c-6.8-6.7-8.9-18.5-5.5-30.1c3.3-11,10.6-20.6,17.6-29.9l87.1-114.7c1.2-1.6,1-3.9-0.6-5.2c-1.6-1.3-3.9-1.2-5.3,0.3   c-11.2,12-23.9,25.5-40.2,30.9c-14.9,4.9-34.8,0.4-40.7-14.2c-6.6-16.1,6.2-34.2,18.2-48.1l101.2-117.9c1.2-1.4,1.2-3.4,0.1-4.8   c-1.1-1.4-3-1.9-4.7-1.1c-10.6,5-21.5,10.2-33.1,10.9c-10,0.6-22.4-3.1-27.6-12.8c-5.3-9.9-2.5-23.4,8.8-41.2   c17.9-28.3,39.1-54.4,63.1-77.7c1.2-0.5,2.3-1,3.4-1.7c7.6-4.3,12.9-11.3,17.6-17.5c1.2-1.6,1-3.8-0.4-5.1   c-1.4-1.3-3.6-1.4-5.1-0.1c-6.7,5.7-13.3,11.7-19.7,17.8c-4.6,1.5-10.2,1.6-14.1-1.5c-5.2-4.1-5.6-12-3.8-17.7   c2.2-7,7.3-12.9,12.2-18.6l97.1-113l97.1,113c4.9,5.7,10,11.6,12.2,18.6c1.8,5.7,1.4,13.6-3.8,17.7c-3.9,3.1-9.4,3-14.1,1.5   c-6.4-6.1-12.9-12.1-19.6-17.8c-1.5-1.3-3.7-1.2-5.1,0.1c-1.4,1.3-1.6,3.5-0.4,5.1c4.7,6.2,10,13.2,17.6,17.5   c1.1,0.6,2.2,1.2,3.4,1.7c24,23.3,45.2,49.3,63.1,77.7c11.3,17.8,14.1,31.2,8.8,41.2c-5.2,9.7-17.6,13.4-27.6,12.8   c-11.6-0.7-22.5-5.9-33.1-10.9c-1.6-0.8-3.6-0.3-4.7,1.1c-1.1,1.4-1,3.4,0.1,4.8l101.2,117.9c11.9,13.9,24.8,31.9,18.2,48.1   c-5.9,14.5-25.9,19.1-40.7,14.2c-16.3-5.4-29-18.9-40.2-30.9c-1.4-1.5-3.7-1.6-5.3-0.3c-1.6,1.3-1.8,3.6-0.6,5.2l87.1,114.7   c7,9.2,14.3,18.8,17.6,29.9c3.4,11.5,1.3,23.3-5.5,30.1c-9.4,9.4-25.6,8.4-38.6,6.5c-46-6.6-90.4-20.4-132.1-41   c-1.9-0.9-4.2-0.2-5.1,1.7c-0.9,1.9-0.2,4.2,1.7,5.1c42.4,20.9,87.6,34.9,134.4,41.7c5,0.7,10.4,1.3,15.9,1.3   c10.6,0,21.3-2.2,29.1-10C620.4,645.8,623.3,631,619.1,616.8"/>
</g>
<g id="Слой_2">
	<path d="M474.9,567.2c0.4,0.1,0.8,0.2,1.2,0.2c1.6,0,3.1-1,3.6-2.6c0.7-2-0.4-4.2-2.4-4.9c-41.5-14.3-76.4-47-93.5-87.4   c-0.3-0.8-0.9-1.4-1.6-1.8V368.6c19.3,37.1,53.2,66.8,92.7,80.4c0.4,0.1,0.8,0.2,1.2,0.2c1.6,0,3.1-1,3.6-2.6   c0.7-2-0.4-4.2-2.4-4.9c-41.5-14.3-76.4-47-93.5-87.4c-0.4-0.8-1-1.5-1.7-1.9V226.1c14.6,35.4,39.2,63.5,67.7,76.8   c0.5,0.2,1.1,0.4,1.6,0.4c1.4,0,2.8-0.8,3.5-2.2c0.9-1.9,0.1-4.2-1.9-5.1c-30.6-14.2-56.4-46.8-69.1-87.2c-0.3-1-1-1.8-1.8-2.2   v-50.1c0-2.1-1.7-3.8-3.8-3.8c-2.1,0-3.8,1.7-3.8,3.8v46.8c-1,0.4-1.8,1.1-2.3,2.2c-14.2,35.4-41,62.2-71.6,71.6   c-2,0.6-3.1,2.8-2.5,4.8c0.5,1.6,2,2.7,3.7,2.7c0.4,0,0.8-0.1,1.1-0.2c30.1-9.3,55.7-32.8,71.7-65.4v133.5c-1.3,0-2.7,0.7-3.4,2   c-20,36.5-56,65-96.1,76c-2,0.6-3.2,2.7-2.7,4.7c0.5,1.7,2,2.8,3.7,2.8c0.3,0,0.7,0,1-0.1c40.6-11.2,75.8-38,97.5-74v106.7   c-1.2,0.1-2.4,0.8-3,2c-26.2,47.8-73.2,84.9-125.7,99.4c-2,0.6-3.2,2.7-2.7,4.7c0.5,1.7,2,2.8,3.7,2.8c0.3,0,0.7,0,1-0.1   c52.1-14.4,98.9-50.3,126.6-96.7v207.3c0,2.1,1.7,3.8,3.8,3.8c2.1,0,3.8-1.7,3.8-3.8V487C401.6,524,435.4,553.5,474.9,567.2"/>
</g>
</g>
</svg>
