<?xml version='1.0' encoding='UTF-8'?>
<svg xmlns="http://www.w3.org/2000/svg" xmlns:xlink="http://www.w3.org/1999/xlink" width="297" height="210" viewBox="0 0 297 210">
  <rect x="0" y="0" width="297" height="210" fill="white"/>
  <g transform="translate(103.27958115003821,31.0) scale(0.25359922412345487)"><path d="M54.852,276.64c-15.208,26.296-29.969,52.852-44.949,79.281c-0.795,1.403-1.612,2.839-2.67,4.038  c-1.468,1.665-3.422,1.899-5.126,0.932c-1.832-1.039-2.591-3.059-1.792-5.254c0.411-1.128,1.095-2.162,1.694-3.216  c23.343-41.088,46.7-82.169,70.035-123.262c16.672-29.359,32.238-59.304,47.45-89.437c19.327-38.284,34.915-78.093,48.522-118.713  c1.844-5.505,3.845-10.951,6.067-16.316c0.932-2.252,2.31-3.927,4.797-4.504c2.727-0.632,4.451,0.302,5.253,2.996  c0.461,1.549,0.804,3.134,1.211,4.699c5.37,20.677,12.945,40.62,20.2,60.67c10.705,29.583,23,58.53,34.941,87.621  c10.472,25.511,22.356,50.321,35.99,74.3c18.051,31.747,38.626,61.827,60.058,91.347c5.395,7.431,10.883,14.796,16.329,22.19  c0.32,0.435,0.67,0.85,0.97,1.298c1.727,2.586,1.771,4.566,0.155,6.238c-1.6,1.655-4.401,1.693-6.684,0.076  c-0.776-0.55-1.577-1.148-1.891-2.063c-1.26-3.676-3.941-6.424-6.169-9.446c-20.6-27.946-40.598-56.297-58.761-85.911  c-19.103-31.148-35.325-63.727-49.176-97.532c-9.774-23.854-19.773-47.625-28.891-71.733c-6.824-18.042-13.733-36.08-19.316-54.57  c-1.44-4.771-2.654-9.611-4.13-14.999c-1.491,2.3-1.804,4.177-2.359,5.953c-14.058,44.942-32.104,88.236-53.399,130.222  C101.705,193.95,78.651,235.491,54.852,276.64z M20.765,382.322c23.743-27.911,45.873-57.019,65.587-87.943  c34.832-54.64,61.885-113.155,86.42-172.936c0.489-1.193,0.577-2.619,2.405-4.02c3.62,20.547,10.339,39.661,16.333,58.994  c10.462,33.748,25.222,65.449,44.261,95.182c29.466,46.017,65.826,85.86,107.963,120.526c1.143,0.94,2.225,2.022,3.693,2.435  c1.836,0.516,3.512,0.206,4.709-1.415c1.072-1.45,1.081-3.066,0.229-4.576c-0.448-0.794-1.214-1.438-1.921-2.051  c-4.388-3.804-8.793-7.589-13.206-11.364c-31.469-26.922-58.974-57.417-82.822-91.276c-19.303-27.406-35.654-56.408-47.059-87.953  c-10.279-28.431-19.616-57.196-25.894-86.841c-0.578-2.728-1.823-5.065-3.287-7.31c-1.594-2.444-4.348-2.558-6.071-0.342  c-0.565,0.726-0.91,1.646-1.252,2.519c-10.297,26.279-21.972,51.965-33.589,77.671c-18.603,41.165-40.056,80.8-64.918,118.535  c-17.483,26.535-36.889,51.64-57.467,75.844c-0.873,1.027-1.795,2.04-2.486,3.186c-1.135,1.884-0.848,3.785,0.575,5.183  c1.418,1.394,3.439,1.665,5.191,0.471C19.144,384.17,19.984,383.24,20.765,382.322z M356.124,434.566  c-0.494-1.012-1.321-1.678-2.175-2.35c-9.444-7.43-18.821-14.946-28.328-22.294c-27.166-20.993-51.371-44.981-72.891-71.708  c-20.945-26.013-37.581-54.695-52.354-84.525c-5.637-11.383-10.547-23.077-14.185-35.266c-2.005-6.717-4.294-13.347-5.728-20.242  c-0.525-2.523-1.482-5.394-4.776-5.866c-2.228-0.319-3.865,1.463-5.225,5.313c-0.27,0.763-0.526,1.531-0.786,2.298  c-2.471,7.289-5.237,14.468-8.356,21.501c-10.127,22.835-21.558,45.035-32.813,67.324c-18.212,36.065-41.239,68.701-69.219,97.836  c-13.188,13.732-26.464,27.38-39.692,41.074c-0.842,0.871-1.728,1.733-2.398,2.73c-1.41,2.099-1.135,4.441,0.54,5.845  c1.608,1.348,3.665,1.325,5.564-0.136c0.637-0.49,1.175-1.113,1.738-1.694c11.559-11.927,23.113-23.859,34.672-35.785  c9.684-9.992,19.027-20.29,27.863-31.043c12.537-15.259,24.002-31.276,33.895-48.379c17.453-30.174,32.712-61.467,47.154-93.165  c2.283-5.011,4.013-10.274,6.14-15.784c1.001,1.318,1.136,2.402,1.425,3.437c2.06,7.408,4.03,14.84,6.846,22.018  c6.722,17.132,15.348,33.318,24.152,49.438c21.224,38.862,48.349,73.097,80.386,103.566c19.126,18.19,40.46,33.677,60.927,50.225  c0.821,0.664,1.82,1.187,2.821,1.532c1.711,0.591,3.227,0.016,4.343-1.35C356.784,437.744,356.918,436.192,356.124,434.566z   M193.341,493.631c-0.813-24.022-0.999-48.065-0.728-72.1c0.111-9.842,0.002-19.717,1.203-29.526c0.13-1.065,0.187-2.17,0.06-3.23  c-0.251-2.093-1.732-3.554-3.625-3.785c-1.929-0.235-3.656,0.809-4.406,2.805c-0.328,0.873-0.523,1.826-0.606,2.757  c-0.325,3.63-0.797,7.264-0.83,10.899c-0.342,37.128-1.169,74.264,1.375,111.355c0.942,13.735,1.728,27.482,3.032,41.193  c0.485,5.103,0.714,10.238,0.84,15.364c0.081,3.283-0.313,3.662-3.607,4.152c-6.283,0.934-12.602,1.502-16.995,1.363  c-7.508-0.119-13.052-0.157-18.517-1.186c-4.357-0.82-4.95-1.581-4.631-5.936c0.632-8.615,1.285-17.229,1.996-25.839  c0.855-10.357,1.755-20.711,2.676-31.062c1.497-16.808,3.809-33.518,6.005-50.245c3.074-23.414,5.942-46.855,8.885-70.287  c0.151-1.203,0.289-2.426,0.238-3.631c-0.098-2.29-1.376-3.757-3.27-3.973c-1.834-0.209-3.457,1.016-4.104,3.163  c-0.193,0.642-0.241,1.327-0.364,1.99c-1.816,9.823-3.277,19.701-4.562,29.606c-1.823,14.052-3.625,28.107-5.415,42.163  c-1.841,14.458-3.999,28.877-5.275,43.404c-1.216,13.849-2.514,27.691-3.7,41.542c-0.702,8.203-1.416,16.411-1.829,24.632  c-0.33,6.566,2.294,10.016,8.516,12.074c1.021,0.338,2.075,0.606,3.134,0.791c9.095,1.593,18.269,1.823,27.446,1.171  c4.833-0.343,9.702-0.686,14.431-1.92c4.482-1.169,6.675-3.582,7.253-8.107c0.187-1.467,0.178-2.963,0.202-4.447  c0.117-7.171-0.709-14.289-1.266-21.419C195.505,529.466,193.948,511.571,193.341,493.631z M298.075,443.776  c-18.39-17.12-36.405-34.599-53.069-53.446c-17.264-19.525-31.93-40.824-44.184-63.779c-5.91-11.07-11.581-22.298-14.505-34.638  c-0.776-3.277-1.348-6.603-2.033-9.903c-0.483-2.322-1.974-3.628-4.465-4.008c-2.164-0.33-3.663,0.578-4.63,2.459  c-0.369,0.718-0.683,1.469-0.962,2.227c-7.111,19.285-16.025,37.754-25.323,56.05c-13.989,27.526-30.026,53.726-49.968,77.413  c-7.566,8.987-15.048,18.044-22.521,27.108c-1.542,1.87-3.015,3.829-4.264,5.902c-1.667,2.766-1.125,5.504,1.063,6.743  c2.216,1.256,5,0.391,6.465-2.286c1.18-2.158,2.664-4.063,4.201-5.936c5.14-6.262,10.214-12.584,15.518-18.706  c18.732-21.618,35.009-44.926,48.537-70.132c10.724-19.981,21.405-39.988,29.222-61.358c0.253-0.691,0.312-1.579,1.17-1.948  c0.991,0.561,0.888,1.607,1.124,2.489c1.684,6.272,3.874,12.364,6.642,18.235c12.856,27.265,29.018,52.392,48.62,75.311  c18.734,21.905,39.506,41.79,60.568,61.393c0.296,0.276,0.588,0.562,0.913,0.802c2.244,1.657,4.64,1.595,6.194-0.148  c1.448-1.624,1.427-3.915-0.27-5.875C300.886,446.322,299.458,445.063,298.075,443.776z M174.715,541.294  c-0.062,0.532-0.009,1.078-0.009,0.949c0.224,3.628,0.316,6.6,0.617,9.551c0.297,2.902,2.034,4.462,4.394,4.228  c2.18-0.216,3.623-1.885,3.527-4.638c-0.121-3.501-0.43-7.005-0.87-10.481c-0.322-2.537-1.897-3.826-4.001-3.722  C176.307,537.281,175.013,538.719,174.715,541.294z M174.797,422.207c-1.976-0.132-3.465,1.008-3.914,3.293  c-0.533,2.713-0.526,5.523-0.252,8.265c0.226,2.258,0.935,4.564,3.618,4.709c1.967,0.107,3.798-1.337,4.103-3.684  c0.399-3.068,0.319-6.191-0.07-9.259C178.045,423.654,176.872,422.345,174.797,422.207z M166.382,518.458  c0.473-2.784,0.668-5.625,0.238-8.446c-0.299-1.964-1.497-3.147-3.5-3.317c-2.529-0.214-3.63,1.893-3.973,4.081  c-0.357,2.273-0.39,5.099-0.077,7.37c0.274,1.987,1.693,3.181,3.525,3.257C164.423,521.478,166.054,520.392,166.382,518.458z   M166.332,557.211c1.894,0.043,3.483-1.247,3.902-3.414c0.253-1.31,0.201-2.678,0.244-3.364c0-1.603,0.083-2.554-0.017-3.486  c-0.219-2.047-1.445-3.37-3.211-3.608c-1.862-0.251-3.587,0.919-4.136,3.056c-0.606,2.358-0.797,4.802-0.496,7.219  C162.894,555.828,164.415,557.168,166.332,557.211z M177.208,487.393c-1.789,0.117-3.146,1.048-3.475,2.836  c-0.486,2.645-0.749,5.352-0.208,8.019c0.394,1.941,1.962,3.106,3.728,3.067c1.738-0.038,3.285-1.292,3.657-3.198  c0.229-1.176,0.168-2.408,0.24-3.654c-0.07-1.309,0.001-2.678-0.246-3.986C180.54,488.555,178.95,487.278,177.208,487.393z   M166.97,459.824c-1.86,0.021-3.403,1.363-3.702,3.58c-0.25,1.851-0.31,3.754-0.199,5.619c0.143,2.406,1.737,3.918,3.775,3.902  c1.899-0.015,3.353-1.355,3.711-3.56c0.171-1.054,0.15-2.139,0.179-2.606c0-1.409,0.075-2.221-0.014-3.016  C170.44,461.235,169.035,459.8,166.97,459.824z M156.707,560.457c-2.332-0.042-4.738,2.927-4.594,5.67  c0.117,2.246,2.097,4.122,4.223,4.003c2.354-0.132,4.023-2.494,3.997-5.655C160.314,562.185,158.789,560.495,156.707,560.457z   M174.279,393.274c-2.286-0.092-3.943,1.848-3.928,4.597c0.015,2.674,1.63,4.775,3.771,4.903c2.26,0.136,3.802-1.735,3.814-4.63  C177.948,395.244,176.537,393.365,174.279,393.274z"/>
<g>
</g>
<g>
</g>
<g>
</g>
<g>
</g>
<g>
</g>
<g>
</g>
</g>
</svg>
