<?xml version='1.0' encoding='UTF-8'?>
<svg xmlns="http://www.w3.org/2000/svg" width="297" height="210" viewBox="0 0 297 210">
  <rect x="0" y="0" width="297" height="210" fill="white"/>
  <g transform="translate(62.6251133272892,30.999999999999986) scale(0.13417951042611062)"><path d="M0 0 C5.52 0.52 9.46 2.56 14.19 5.25 C15.36 5.91 15.36 5.91 16.57 6.59 C33.38 16.27 48.71 28.13 64 40 C64.68 40.53 65.37 41.06 66.08 41.6 C74.58 48.17 82.85 55 91 62 C91.7 62.59 92.41 63.18 93.13 63.79 C103.85 72.89 113.33 83 121.72 94.28 C122.93 95.91 124.17 97.51 125.41 99.12 C144.86 125.02 157.8 155.31 164 187 C164.65 190 165.32 193 166 196 C166.57 195.83 167.15 195.66 167.74 195.48 C170.41 194.69 173.08 193.91 175.75 193.12 C176.65 192.86 177.55 192.59 178.48 192.31 C190.4 188.84 201.71 187.63 214.12 187.69 C215.15 187.69 215.15 187.69 216.19 187.69 C233.74 187.77 249.26 190.99 266 196 C266.1 195.41 266.21 194.83 266.32 194.23 C274.01 152.09 290.88 113.82 319.97 82.21 C321.78 80.24 323.52 78.23 325.25 76.19 C333.69 66.54 342.93 57.91 353 50 C354.13 49.08 355.26 48.16 356.39 47.24 C365.26 40 374.42 33.22 383.76 26.6 C385.92 25.06 388.07 23.5 390.22 21.93 C397.82 16.43 405.57 11.23 413.56 6.31 C414.38 5.79 415.2 5.28 416.05 4.74 C421.15 1.67 425.04 0.29 431 0 C440.26 13.89 436.33 45 436.38 61.06 C436.38 62.13 436.39 63.19 436.4 64.29 C436.51 83.87 434.87 103.06 430.25 122.12 C429.87 123.74 429.87 123.74 429.48 125.38 C421.03 159.91 405.74 191.18 381 217 C380.13 217.94 379.27 218.88 378.38 219.85 C368.41 230.46 355.76 240.82 342 246 C341.34 246 340.68 246 340 246 C340.61 246.78 341.21 247.55 341.84 248.35 C344.58 251.88 347.29 255.44 350 259 C350.42 259.54 350.83 260.09 351.26 260.65 C372.85 289.1 388.82 323.56 394 359 C394.18 360.18 394.35 361.36 394.53 362.58 C396.05 373.62 396.37 384.59 396.37 395.73 C396.37 398.67 396.41 401.61 396.45 404.54 C396.63 435.36 387.54 464.68 375.06 492.62 C372.17 499.7 370.53 505.2 373.38 512.58 C375.04 516.07 376.89 519.45 378.78 522.83 C380.81 526.45 382.75 530.13 384.69 533.81 C385.1 534.59 385.51 535.38 385.94 536.18 C416.22 593.85 435.4 655.9 449.01 719.39 C451.2 732.03 451.2 732.03 457 743 C458.42 743.25 459.84 743.44 461.27 743.61 C481.48 746.16 498.26 751.11 513 766 C513.77 766.74 514.54 767.47 515.34 768.23 C528.58 781.71 534.06 800.92 537.13 819.11 C538.16 822.53 539.32 823.68 542 826 C544.42 827.32 544.42 827.32 547.12 828.33 C548.13 828.73 549.13 829.14 550.17 829.55 C551.79 830.18 551.79 830.18 553.44 830.81 C555.12 831.47 555.12 831.47 556.83 832.14 C579.44 840.89 602.2 847.48 626.19 851.25 C627.63 851.48 627.63 851.48 629.09 851.71 C632.39 852.19 635.69 852.61 639 853 C639.74 853.09 640.48 853.18 641.24 853.27 C657.59 855.17 673.81 855.18 690.25 855 C695.28 854.95 700.3 854.91 705.33 854.88 C706.47 854.86 707.62 854.84 708.8 854.82 C709.85 854.82 710.9 854.81 711.98 854.8 C713.37 854.79 713.37 854.79 714.78 854.77 C717 855 717 855 719 857 C718.82 859.65 718.32 860.71 716.34 862.5 C663.24 896.28 595.48 907.93 533.96 896.98 C524.56 895.14 524.56 895.14 515.51 897.2 C512.66 899.25 510.83 901.41 508.69 904.19 C494.03 922.53 474.71 935.84 452 942 C451.13 942.24 450.25 942.49 449.36 942.74 C436.31 945.74 421.55 945.06 408.71 941.56 C405.88 940.97 404.59 940.73 402 942 C400.05 944.33 400.05 944.33 398.25 947.19 C392.01 956.06 384.45 960.92 374 964 C365.11 965.43 356.05 965.16 347.07 965.17 C345.44 965.17 343.8 965.17 342.17 965.18 C338.75 965.18 335.33 965.19 331.92 965.19 C327.57 965.19 323.23 965.2 318.89 965.22 C315.51 965.23 312.13 965.23 308.76 965.23 C307.16 965.23 305.56 965.23 303.96 965.24 C287.38 965.32 271.94 964.68 259.12 952.88 C251.21 944.31 247 933.66 247 922 C235.6 919.49 224.65 918.49 213 918.31 C211.43 918.28 209.87 918.24 208.3 918.21 C204.54 918.13 200.77 918.06 197 918 C197.02 918.93 197.04 919.86 197.07 920.83 C197.24 932.67 195.56 941.33 187.62 950.5 C186.11 952.03 184.57 953.53 183 955 C182.45 955.52 181.89 956.05 181.32 956.59 C166.83 968.48 142.36 965.16 124.9 965.13 C121.34 965.13 117.78 965.13 114.22 965.14 C63.35 965.15 63.35 965.15 49.62 952.06 C46.37 948.64 44.11 945.22 42 941 C38.07 941.51 34.24 942.16 30.37 943.02 C11.36 946.83 -8.71 943.47 -26 935 C-26.9 934.57 -27.79 934.14 -28.72 933.7 C-55.91 919.83 -76.68 893.61 -86.38 864.94 C-94.6 839.09 -95.2 809.81 -83 785 C-72.3 765.88 -57.07 753.21 -36.19 746.75 C-30.25 745.12 -24.38 744.29 -18.24 743.95 C-16.05 743.81 -16.05 743.81 -13 743 C-5.54 732.9 -3.84 717.35 -1.35 705.27 C10.06 650.33 28.82 597.24 52.81 546.56 C53.24 545.65 53.68 544.73 54.12 543.78 C56.72 538.36 59.59 533.21 62.77 528.11 C65.62 523.22 65.5 518.49 65 513 C62.77 504.95 58.92 497.55 55.19 490.12 C41.61 462.35 35.15 432.82 34 402 C33.95 400.7 33.89 399.4 33.84 398.06 C32.66 343.52 54.24 288.04 91 248 C90.19 247.54 90.19 247.54 89.37 247.07 C78.03 240.57 67.52 233.99 58 225 C57.2 224.26 57.2 224.26 56.39 223.51 C19.53 189.29 1.65 139.96 -4 91 C-4.1 90.22 -4.19 89.45 -4.29 88.65 C-5.33 79.11 -5.24 69.52 -5.25 59.94 C-5.25 59 -5.25 58.06 -5.26 57.1 C-5.26 43.85 -4.81 30.7 -3.62 17.5 C-3.56 16.77 -3.5 16.05 -3.43 15.3 C-2.39 3.58 -2.39 3.58 0 0 Z M415 14 C398.19 25.03 381.77 36.52 366 49 C365.37 49.49 364.75 49.99 364.1 50.5 C354.7 57.96 345.66 65.69 337 74 C336.49 74.48 335.98 74.97 335.45 75.46 C328.02 82.52 321.5 90 315.36 98.2 C314.01 99.99 312.63 101.75 311.25 103.52 C292.75 127.51 273.57 164.87 274.06 195.94 C275.37 200.22 277.92 201.83 281.78 204 C283.82 205.06 285.88 206.1 287.94 207.12 C300.46 213.58 311.27 221.93 322 231 C323.72 227.56 321.95 223.75 321.12 220.12 C312.85 180.86 322.91 145.33 344 112 C347.16 107.2 350.55 102.59 354 98 C354.93 96.74 355.87 95.48 356.8 94.21 C366.39 81.29 376.23 68.56 386.44 56.12 C397.27 42.91 407.46 29.17 417 15 C416.01 14.5 416.01 14.5 415 14 Z M4 15 C0.89 44.66 -0.26 75.55 5 105 C5.17 106.02 5.34 107.03 5.52 108.08 C13.05 152.02 34.47 200.19 71.69 227.23 C82.74 235.26 82.74 235.26 95 241 C95.99 240.67 96.98 240.34 98 240 C108.5 217.21 110.07 183.99 103 160 C102.81 159.34 102.61 158.67 102.41 157.99 C97.64 142.04 89.71 127.48 80 114 C79.24 112.94 79.24 112.94 78.46 111.87 C71.3 101.97 63.94 92.23 56.33 82.67 C54.04 79.79 51.77 76.89 49.5 74 C46.81 70.58 44.13 67.16 41.43 63.75 C30.11 49.43 18.89 35.02 8.54 19.98 C7.38 18.3 6.19 16.65 5 15 C4.67 15 4.34 15 4 15 Z M14 15 C22.39 28.95 32.56 41.57 42.85 54.14 C47.16 59.4 51.35 64.75 55.52 70.11 C57.12 72.16 58.73 74.2 60.34 76.24 C91.82 116.31 118.28 156.53 112.38 209.6 C111.52 216.44 110.35 223.24 109 230 C112.44 228.49 114.93 226.46 117.75 224 C127.69 215.76 138.85 209.32 150.43 203.67 C153.59 201.62 154.64 200.54 156 197 C156.81 189.52 155.6 182.63 153.62 175.44 C153.23 173.97 153.23 173.97 152.83 172.48 C139.7 125.63 112.08 86.58 73.72 56.91 C70.53 54.43 67.4 51.88 64.28 49.31 C51.54 38.82 38.38 28.98 24.44 20.12 C23.62 19.61 22.81 19.09 21.97 18.55 C18.25 15.95 18.25 15.95 14 15 Z M425 15 C424.68 15.45 424.36 15.89 424.03 16.35 C409.7 36.26 395.13 55.91 379.93 75.16 C377.61 78.1 375.3 81.05 373 84 C372.4 84.76 371.81 85.52 371.2 86.31 C342.37 123.27 320.6 158.36 325 207 C326.75 218.64 329.65 230.06 334 241 C367.53 229.95 390.81 197.5 406.52 167.54 C423.2 134.16 428.59 97.37 428.28 60.44 C428.25 56.65 428.24 52.85 428.23 49.06 C428.23 46.6 428.21 44.15 428.2 41.7 C428.2 40.58 428.19 39.47 428.19 38.32 C428.7 26.11 428.7 26.11 425 15 Z M123 228 C122.14 228.63 121.29 229.27 120.41 229.92 C97.49 247.6 79.41 270.51 66 296 C65.64 296.69 65.28 297.37 64.9 298.08 C49.27 328.28 41.52 361.21 41.69 395.12 C41.69 395.93 41.69 396.74 41.69 397.58 C41.94 455.07 65.17 508.2 105.06 549.31 C109.77 553.87 114.86 557.94 120 562 C120.55 562.44 121.1 562.87 121.67 563.32 C123.38 564.68 125.09 566.03 126.81 567.38 C127.85 568.19 128.89 569 129.96 569.84 C132.87 571.91 135.76 573.5 139 575 C137.11 568.53 134.56 562.91 131.12 557.12 C130.66 556.32 130.19 555.51 129.7 554.69 C125.49 547.58 120.87 540.77 116.06 534.06 C115.53 533.3 115 532.55 114.46 531.78 C113.98 531.12 113.51 530.46 113.02 529.78 C112 528 112 528 112 525 C117.19 525.68 118.84 527.47 122.06 531.4 C141.91 558 155.11 589.09 155.25 622.5 C155.27 623.68 155.29 624.86 155.31 626.07 C155.38 640.79 151.48 654.45 147.38 668.44 C146.56 671.21 145.76 673.97 144.96 676.75 C144.61 677.95 144.26 679.15 143.89 680.39 C142.93 684.28 142.42 688.02 142 692 C142.97 691.48 143.94 690.96 144.94 690.43 C181.38 671.3 226.35 670.12 265.48 681.44 C273.8 684.04 281.41 687.77 289 692 C287.59 683.19 284.81 674.87 282 666.44 C269.92 630.13 273.04 596.23 290 562 C296.8 548.53 304.93 534.4 316 524 C316.99 524.33 317.98 524.66 319 525 C318.57 530.24 315.74 533.44 312.69 537.5 C307.84 544.16 303.47 550.98 299.38 558.12 C298.87 559 298.36 559.88 297.83 560.78 C295.19 565.46 293.21 569.75 292 575 C336.08 551.79 366.24 503.91 381.15 457.82 C390.87 425.66 392.82 387.98 386 355 C385.83 354.15 385.67 353.31 385.5 352.44 C381.71 333.52 374.75 316.32 366.5 298.94 C365.98 297.83 365.46 296.73 364.92 295.59 C359.95 285.36 353.83 275.96 346.75 267.06 C346.29 266.49 345.84 265.91 345.37 265.31 C340.66 259.45 335.61 253.91 330.41 248.48 C329.1 247.11 327.81 245.73 326.51 244.35 C298.87 215.67 259.44 195.57 219.32 194.66 C183.92 194.31 150.89 206.29 123 228 Z M363 513 C361.97 514.54 361.97 514.54 360.91 516.11 C354.85 525.07 348.49 533.48 341.52 541.76 C339.57 544.3 339 546.05 338.69 549.25 C340.34 553.96 342.94 556.39 346.34 559.97 C364.99 580.46 376.22 610.92 380 638 C380.09 638.66 380.19 639.32 380.28 640 C385.54 681.38 374.58 725.43 349.47 758.86 C345.86 763.46 342.05 767.79 338 772 C337.21 772.83 336.42 773.66 335.6 774.52 C308.85 801.99 274.91 816.18 237.44 821.96 C233.99 822.52 231.96 823.03 229 825 C228.38 827.65 228.38 827.65 228.12 830.69 C227.15 837.41 225.37 841.46 219.8 845.66 C216.23 847.37 213.51 847.4 209.56 847.38 C208.29 847.38 207.01 847.39 205.69 847.4 C200.27 846.81 196.31 844.95 192.81 840.75 C188.42 835.26 186.68 830.08 186.6 823.11 C185.66 819.8 183.86 818.83 181 817 C178.33 816.02 175.72 815.17 173 814.38 C148.53 806.7 128.67 793.34 110 776 C109.35 775.41 108.69 774.82 108.02 774.21 C96.59 763.48 88.08 749.87 81 736 C80.68 735.37 80.35 734.73 80.02 734.08 C70.1 714.38 63.99 692.53 63.76 670.39 C63.75 669.59 63.74 668.79 63.73 667.96 C63.41 635.22 63.41 635.22 68 620 C68.2 619.28 68.4 618.57 68.6 617.83 C73.63 599.78 81.96 582.13 93 567 C95.96 562.79 98.13 559.63 98.46 554.46 C97.53 549.53 93.81 546.27 90.5 542.69 C88.79 540.77 87.2 538.77 85.61 536.74 C84.74 535.64 84.74 535.64 83.86 534.52 C82.71 533.06 81.57 531.6 80.43 530.13 C79.9 529.46 79.37 528.8 78.82 528.11 C78.35 527.51 77.88 526.91 77.39 526.29 C75.95 524.66 75.95 524.66 73 525 C55.26 558.38 40.23 592.22 28 628 C27.59 629.18 27.19 630.36 26.77 631.57 C15.21 665.42 6.86 700.11 -0.42 735.09 C-0.58 735.87 -0.74 736.64 -0.91 737.44 C-1.71 741.19 -1.71 741.19 -2 745 C-0.81 745.34 0.37 745.68 1.59 746.03 C14.68 749.91 26.29 754.97 38 762 C38.66 758.04 39.32 754.08 40 750 C41.32 749.67 42.64 749.34 44 749 C44.65 769.84 45.09 790.68 45.28 811.54 C45.29 812.6 45.3 813.65 45.31 814.74 C45.39 823.47 45.46 832.2 45.53 840.92 C45.78 874.7 45.78 874.7 46.47 908.46 C46.49 909.19 46.51 909.92 46.53 910.67 C46.43 930.53 46.43 930.53 55.46 947.55 C63.04 954.66 71.06 957.2 81.35 957.62 C82.57 957.67 82.57 957.67 83.82 957.73 C93.9 958.15 103.98 958.15 114.07 958.13 C117.36 958.13 120.66 958.13 123.95 958.14 C130.3 958.14 136.65 958.09 143 958 C144 957.99 144.99 957.97 146.02 957.96 C148.86 957.91 151.7 957.83 154.54 957.74 C155.37 957.73 156.19 957.71 157.05 957.7 C166.98 957.3 174.81 952.65 182 946 C187.28 940.09 189.2 934.11 189.41 926.17 C189.43 925.51 189.45 924.86 189.47 924.19 C189.53 922.04 189.58 919.9 189.63 917.76 C189.67 916.26 189.72 914.77 189.76 913.28 C189.87 909.36 189.97 905.45 190.06 901.53 C190.17 897.53 190.28 893.53 190.39 889.52 C190.6 881.68 190.8 873.84 191 866 C191.99 865.67 192.98 865.34 194 865 C194.66 865.33 195.32 865.66 196 866 C196.33 880.85 196.66 895.7 197 911 C213.5 911 230 911 247 911 C247.66 896.15 248.32 881.3 249 866 C250.32 865.67 251.64 865.34 253 865 C253.01 865.81 253.02 866.63 253.04 867.46 C253.15 875.17 253.3 882.88 253.47 890.59 C253.56 894.55 253.64 898.51 253.69 902.47 C253.75 906.3 253.83 910.13 253.93 913.97 C253.96 915.42 253.98 916.87 254 918.32 C254.1 929.45 256.18 938.35 263.56 947 C264.37 947.66 265.17 948.32 266 949 C266.72 949.68 267.44 950.36 268.19 951.06 C277.91 957.76 287.81 957.56 299.17 957.46 C300.93 957.46 302.7 957.46 304.47 957.46 C308.16 957.46 311.85 957.44 315.54 957.41 C320.23 957.38 324.91 957.37 329.6 957.37 C333.25 957.37 336.89 957.36 340.54 957.35 C342.27 957.34 343.99 957.34 345.72 957.33 C368.87 957.86 368.87 957.86 388.75 947.75 C397.19 938.69 397.05 928.45 397.54 916.68 C397.59 915.68 397.63 914.69 397.67 913.67 C398.11 902.43 398.2 891.2 398.26 879.95 C398.28 876.07 398.31 872.19 398.34 868.31 C398.4 860.06 398.45 851.81 398.5 843.56 C398.57 832.71 398.64 821.86 398.72 811 C398.73 809.71 398.74 808.41 398.75 807.08 C398.89 788.04 399.19 769.02 400 750 C401.65 749.67 403.3 749.34 405 749 C405.33 753.29 405.66 757.58 406 762 C406.94 761.48 407.89 760.96 408.86 760.43 C419.81 754.45 430.44 749.31 442.7 746.58 C444.95 746.22 444.95 746.22 446 745 C446.12 734.97 443.17 724.89 440.94 715.19 C440.74 714.3 440.53 713.42 440.33 712.51 C425.3 646.79 403.34 583.01 371.44 523.5 C370.94 522.56 370.44 521.61 369.92 520.64 C369.22 519.35 369.22 519.35 368.5 518.03 C368.09 517.27 367.67 516.52 367.25 515.74 C366.03 513.69 366.03 513.69 363 513 Z M320 563 C317.95 564.57 315.91 566.15 313.86 567.72 C312.37 568.87 310.87 570.02 309.39 571.17 C305.31 574.32 301.22 577.21 296.81 579.88 C288.75 584.91 285.34 589.94 282.82 599.15 C276.84 627.34 283.38 652.22 292.52 678.9 C296.37 690.37 301.62 706.32 296.56 718.19 C288.84 731.29 273.4 736.14 259.53 739.91 C250.39 742.22 241 743.42 231.64 744.52 C230.96 744.6 230.28 744.68 229.58 744.77 C227.76 744.98 225.93 745.18 224.1 745.38 C220.62 746.08 218.71 746.69 216 749 C212.98 755.03 212.49 760.39 212.56 767.06 C212.57 767.99 212.58 768.91 212.59 769.86 C212.78 778.1 214.29 785.19 217 793 C217.45 794.42 217.9 795.84 218.36 797.27 C221.3 806.91 221.3 806.91 227.95 814.09 C240.95 819.87 264.61 810.77 277.1 806 C297.06 797.87 314.61 785.97 330 771 C330.55 770.47 331.11 769.93 331.68 769.39 C359.35 742.39 373.29 704.07 375 666 C375.04 665.11 375.09 664.22 375.13 663.3 C376.03 624.98 361.59 586.5 336 558 C329.02 555.32 325.36 558.84 320 563 Z M106 561 C91.18 576.42 80.39 598.5 75 619 C74.77 619.85 74.55 620.7 74.31 621.58 C63.9 662.21 70.04 705.73 91.38 741.81 C111.75 775.07 144.84 801.35 183 811 C194.58 813.7 206.11 815.6 218 816 C216.82 809.78 215.01 804.2 212.56 798.38 C206.22 782.58 202.67 765.39 209 749 C209.33 748.01 209.66 747.02 210 746 C209.22 745.91 208.44 745.81 207.64 745.71 C151.69 738.77 151.69 738.77 137 721.81 C131.65 714.29 132.43 707.02 133.91 698.18 C134.07 697.36 134.22 696.53 134.38 695.69 C134.54 694.79 134.7 693.89 134.87 692.96 C137.1 681.49 140.32 670.25 143.47 659.01 C146.99 646.45 149.38 634.89 149.31 621.75 C149.31 620.56 149.3 619.38 149.3 618.16 C149.2 600.28 149.2 600.28 141 585 C137.5 582.07 133.79 579.53 130 577 C127.79 575.48 125.58 573.96 123.38 572.44 C122.29 571.7 121.21 570.95 120.1 570.19 C116.52 567.66 113.1 564.99 109.71 562.21 C108.08 560.81 108.08 560.81 106 561 Z M144.95 698.82 C141.34 702.8 138.9 706.48 139.12 712 C141.43 719.92 148.57 723.57 155.4 727.32 C161.06 730.1 166.89 731.98 172.94 733.69 C173.65 733.89 174.37 734.09 175.1 734.3 C187.93 737.76 200.29 738.37 213.5 738.31 C214.84 738.31 214.84 738.31 216.2 738.31 C239.83 738.23 269.33 736.75 287.66 719.5 C290.77 716.02 291.95 713.28 292.12 708.62 C289.89 701.43 285.47 697.56 278.96 693.89 C244.19 675.76 176.33 670.91 144.95 698.82 Z M-41 756 C-42.17 756.47 -43.34 756.95 -44.54 757.44 C-61.17 764.97 -72.06 777.81 -78.88 794.56 C-83.08 805.79 -84.53 816.81 -84.44 828.75 C-84.43 830.07 -84.42 831.39 -84.41 832.75 C-84.24 842.68 -83.31 851.63 -80 861 C-79.77 861.68 -79.54 862.35 -79.3 863.05 C-73.29 880.24 -63.85 895.17 -51 908 C-50.35 908.72 -49.7 909.45 -49.02 910.19 C-36.97 923.3 -17.39 932.92 0 936 C1.03 936.19 1.03 936.19 2.09 936.39 C13.23 938.12 28.52 938.73 38 932 C39.65 928.69 39.1 925.01 39.06 921.38 C39.06 920.57 39.05 919.77 39.05 918.95 C39.04 916.96 39.02 914.98 39 913 C38.34 913.2 37.67 913.41 36.99 913.62 C36.11 913.89 35.22 914.16 34.31 914.44 C33.44 914.7 32.57 914.97 31.68 915.25 C17.3 919.3 2.83 917.58 -10.19 910.31 C-25.93 900.17 -37.41 885.24 -42 867 C-45.08 849.42 -43.04 832.72 -32.81 817.81 C-23.28 808.28 -13.03 803.66 0.38 803.5 C13.56 803.65 23.21 807.55 34 815 C35.66 816.01 37.33 817.01 39 818 C39.03 813.77 39.05 809.54 39.06 805.31 C39.08 803.54 39.08 803.54 39.09 801.74 C40.05 783.56 40.05 783.56 33.55 767.36 C14.09 751.28 -17.87 746.59 -41 756 Z M410 768 C408.73 769.86 408.73 769.86 408.19 771.88 C407.97 772.51 407.76 773.15 407.54 773.8 C406.1 779.63 405.86 785.16 405.9 791.12 C405.9 791.97 405.91 792.83 405.91 793.71 C405.91 796.43 405.92 799.15 405.94 801.88 C405.94 803.73 405.95 805.58 405.95 807.43 C405.96 811.95 405.98 816.48 406 821 C406.8 820.39 406.8 820.39 407.62 819.78 C408.33 819.24 409.04 818.71 409.77 818.16 C410.81 817.37 410.81 817.37 411.88 816.56 C426.04 806.11 440.48 801.45 458 804 C469.56 806.89 479.34 815.35 485.47 825.41 C492.7 839.03 492.5 854.4 489.16 869.2 C483.88 886.42 472.76 901.56 457.21 910.87 C444.91 917.15 430.56 919.26 417.07 915.71 C413.26 914.4 409.62 912.76 406 911 C405.78 913.37 405.57 915.75 405.38 918.12 C405.28 919.12 405.28 919.12 405.18 920.14 C404.83 924.58 405.19 927.92 407 932 C416.14 939.36 434.03 936.74 445 936 C450.7 935.19 455.74 933.34 461 931 C461.68 930.7 462.35 930.4 463.05 930.09 C475.35 924.53 485.69 917.86 495 908 C496.24 906.79 496.24 906.79 497.5 905.56 C498.33 904.72 499.15 903.87 500 903 C500.57 902.44 501.14 901.87 501.73 901.29 C521.95 880.18 529.71 850.22 529.34 821.78 C528.63 801.07 519.62 782.11 504.7 767.79 C477.65 744.64 437.67 747.22 410 768 Z M-27 821 C-36.06 831.84 -38.23 845.22 -37 859 C-34.45 875.11 -26.52 889.5 -14 900 C-2.57 908.03 9.03 911.99 23 911 C28.09 910.01 32.58 909.09 36 905 C38.15 898.56 38.38 891.55 38.62 884.81 C38.66 883.9 38.7 882.98 38.74 882.03 C39.03 874.35 39.18 866.69 39 859 C38.98 858.22 38.96 857.45 38.95 856.64 C39.36 837.4 39.36 837.4 31.56 821 C13.6 807.93 -10.02 804.22 -27 821 Z M411 825.66 C404.8 832.94 405.84 844.66 405.83 853.7 C405.83 854.7 405.83 855.7 405.82 856.73 C405.82 858.84 405.81 860.94 405.81 863.05 C405.81 866.23 405.79 869.41 405.78 872.59 C405.13 888.04 405.13 888.04 408 903 C416.02 910.36 425.13 910.68 435.55 910.34 C448.5 909.58 459.43 903.06 468.25 893.81 C479.18 881.11 485.94 865.93 485 849 C484.04 836.78 480.4 826.16 471.22 817.69 C451.48 802.67 427.97 810.66 411 825.66 Z M193 823 C192.75 828.08 193.53 832 196.81 835.94 C199.72 839.1 202.32 840.78 206.62 841.34 C212.66 841.46 212.66 841.46 218.12 839.12 C221.22 835.61 221.11 833.49 221.06 828.88 C221.05 827.78 221.04 826.68 221.04 825.55 C221.02 824.71 221.01 823.87 221 823 C206.38 820.67 206.38 820.67 193 823 Z M537 832 C536.84 833.01 536.68 834.01 536.52 835.05 C533.57 853.13 528.96 869.47 521 886 C528.8 888.97 536.55 890.2 544.81 891.19 C545.52 891.27 546.23 891.36 546.96 891.45 C571.82 894.4 597.34 894.58 622 890 C623.36 889.76 623.36 889.76 624.75 889.51 C650.08 884.92 673.73 875.81 697 865 C697 864.67 697 864.34 697 864 C691.04 863.1 685.18 862.84 679.16 862.71 C630.03 861.6 581.82 852.6 537 832 Z " fill="#000000" transform="translate(374,47)"/>
<path d="M0 0 C4.42 2.52 6.87 5.8 8.75 10.5 C10.36 16.88 10.16 21.71 6.75 27.5 C3.06 31.78 -0.6 34.66 -6 36.38 C-11.79 36.6 -17.03 34.72 -21.62 31.19 C-25.94 26.77 -27.43 23.25 -27.75 17.12 C-27.58 11.47 -26.04 7.69 -22.25 3.5 C-15.47 -1.79 -8.08 -3.48 0 0 Z " fill="#000000" transform="translate(730.25,443.5)"/>
<path d="M0 0 C4.59 2.64 7.99 6.18 10.38 10.94 C10.86 16.74 11.23 22.09 8.75 27.44 C0.89 35.71 0.89 35.71 -4.23 36.18 C-14.78 36.43 -14.78 36.43 -19.62 31.94 C-23.75 27.62 -26.57 23.9 -26.66 17.77 C-26.22 11.21 -24.06 7.19 -19.19 2.69 C-12.93 -1.59 -7.19 -2.11 0 0 Z " fill="#000000" transform="translate(465.625,443.0625)"/>
<path d="M0 0 C5.03 2.77 7.9 6.54 9.57 12 C10.9 18.16 9.97 23.51 7 29 C3.42 32.89 -0.77 34.66 -6 35 C-10.93 34.36 -14.22 32.23 -17.44 28.5 C-21.12 23.03 -21.74 17.12 -20.59 10.7 C-18.98 5.57 -16.38 3.01 -12 0 C-7.77 -1.41 -4.29 -1.14 0 0 Z M-11.38 8.94 C-13.57 13.07 -13.81 16.41 -13 21 C-11.63 24.11 -11.63 24.11 -9 26 C-5.55 27.24 -5.55 27.24 -2 27 C1.26 24.94 1.89 23.39 2.94 19.69 C3.02 15.11 2.19 12.99 0 9 C-4.22 6.18 -7.3 5.61 -11.38 8.94 Z " fill="#000000" transform="translate(376,813)"/>
<path d="M0 0 C3.59 4.43 4.59 7.61 4.44 13.25 C3.72 18.73 1.17 22.49 -2.5 26.5 C-7.24 29.49 -12.27 31.29 -17.93 30.25 C-22.08 28.68 -24.54 26.31 -26.88 22.62 C-27.62 20.75 -27.62 20.75 -27.88 18.62 C-28 17.59 -28.12 16.56 -28.25 15.5 C-27.67 9.54 -25.45 4.2 -21.16 -0.09 C-14.19 -5.35 -6.85 -5.66 0 0 Z M-18.77 8.55 C-20.72 12.21 -20.55 14.53 -19.88 18.62 C-18.42 21.25 -18.42 21.25 -15.88 22.62 C-12.92 23.38 -12.92 23.38 -9.88 22.62 C-6.3 19.78 -3.94 17.11 -2.88 12.62 C-2.94 8.97 -2.94 8.97 -3.88 5.62 C-10.03 1.52 -14.56 2.98 -18.77 8.55 Z " fill="#000000" transform="translate(873.875,826.375)"/>
<path d="M0 0 C5.22 3.06 7.2 7.17 8.81 12.88 C9.21 19.56 7.17 24.76 3 30 C-0.76 33.76 -3.66 34.91 -9 35 C-14.41 33.51 -17.01 31.32 -20.05 26.82 C-22.48 22.16 -22.47 17.13 -22 12 C-20.19 6.56 -16.62 3.22 -12 0 C-7.81 -1.4 -4.27 -0.96 0 0 Z M-11.81 9 C-14.5 12.68 -15.45 15.45 -15 20 C-13.31 23.57 -12.17 25.42 -8.62 27.19 C-4.62 26.9 -2.8 24.73 0 22 C1.59 18.82 1.28 15.46 1 12 C-0.01 9.19 -0.33 8.33 -3 7 C-6.95 6.47 -8.52 6.66 -11.81 9 Z " fill="#000000" transform="translate(832,813)"/>
<path d="M0 0 C1.97 3.95 1.44 8.7 1 13 C-1.66 18.42 -5.34 21.84 -10.88 24.25 C-17.21 25.77 -21.64 25.27 -27.27 22.12 C-30.33 20.14 -31.58 18.56 -32.53 15.03 C-33.42 10.02 -33.05 6.29 -30.5 1.86 C-26.95 -2.54 -22.25 -5.26 -16.94 -7 C-9.71 -7 -5.15 -5.03 0 0 Z M-25 7 C-25.55 11.62 -25.55 11.62 -23.75 15.69 C-20.99 17.75 -18.64 17.53 -15.29 17.43 C-11.43 16.71 -9.68 14.81 -7 12 C-5.59 9.17 -5.68 7.13 -6 4 C-8.29 1.25 -9.83 1.02 -13.38 0.56 C-18.47 1.18 -21.43 3.43 -25 7 Z " fill="#000000" transform="translate(897,864)"/>
<path d="M0 0 C4.74 3.9 8.39 7.63 9.12 13.98 C9.51 23.32 9.51 23.32 5.94 27.5 C2.57 30.84 0.3 31.5 -4.44 31.62 C-10.37 31.56 -13.44 30.12 -17.62 25.85 C-22.28 20.65 -22.66 15.87 -22.6 9.08 C-21.93 4.58 -19.67 2.09 -16.19 -0.69 C-10.89 -4.04 -5.24 -2.77 0 0 Z M-14.19 6.75 C-15.74 10.72 -15.28 14.24 -14.19 18.31 C-12.37 21.13 -11.18 22.82 -8.19 24.31 C-4.08 24.7 -4.08 24.7 -0.38 23.19 C1.35 20.47 1.69 18.54 1.81 15.31 C0.67 11.76 -0.43 9.15 -2.94 6.38 C-6.84 4.53 -10.6 4.17 -14.19 6.75 Z " fill="#000000" transform="translate(340.1875,824.6875)"/>
<path d="M0 0 C3.29 3.19 5.46 5.57 6.06 10.25 C5.87 15.67 4.67 19.17 1.06 23.25 C-3.66 25.98 -8.53 27 -13.94 26.25 C-20.26 24.1 -24.99 21.37 -28.16 15.36 C-29.71 11.16 -29.82 7.59 -28.2 3.3 C-26.16 -0.68 -24.03 -3 -19.94 -4.75 C-12.27 -7.02 -5.98 -5.02 0 0 Z M-20.5 4.38 C-22.14 7.16 -22.14 7.16 -22.06 10.25 C-20.53 14.33 -18.55 15.87 -14.94 18.25 C-10.58 19.58 -7.96 19.37 -3.94 17.25 C-1.67 15.38 -1.67 15.38 -1.56 12.44 C-2.03 8.5 -3.16 7.03 -5.94 4.25 C-9.01 1.95 -12.28 1.77 -16.03 1.87 C-18.23 2.15 -18.23 2.15 -20.5 4.38 Z " fill="#000000" transform="translate(325.9375,862.75)"/>
<path d="M0 0 C4.08 3.15 5.97 5.97 7 11 C7.76 18.51 6.93 24.48 3 31 C1 33 1 33 -2.88 33.44 C-6.19 33.35 -6.78 33.2 -9.38 30.88 C-13.36 23.83 -14.25 16.55 -12.46 8.62 C-11.46 5.65 -10.29 3.32 -8.19 1 C-5.15 -0.39 -3.3 -0.54 0 0 Z M-4 8 C-6.34 12.54 -6.64 16.99 -6 22 C-4.68 24.52 -4.68 24.52 -3 26 C-0.6 22.4 -0.76 20.7 -0.81 16.44 C-0.82 15.28 -0.83 14.12 -0.83 12.93 C-0.8 10.07 -0.8 10.07 -2 8 C-2.66 8 -3.32 8 -4 8 Z " fill="#000000" transform="translate(625,743)"/>
<path d="M0 0 C3.95 3.36 5.03 5.95 5.45 11.04 C5.5 12.54 5.54 14.05 5.56 15.56 C5.58 16.29 5.59 17.03 5.61 17.78 C5.51 22.93 4.34 25.9 1 30 C-1.44 32 -1.44 32 -4 33 C-8.5 32.12 -10.48 29.69 -13 26 C-14.19 22.43 -14.21 19.45 -14.25 15.69 C-14.28 14.39 -14.3 13.1 -14.33 11.76 C-13.91 6.95 -12.48 3.64 -9.25 0.06 C-5.72 -1.61 -3.69 -1.16 0 0 Z M-5 7 C-6.85 10.15 -7.25 12.43 -7.19 16.06 C-7.18 16.92 -7.17 17.78 -7.17 18.66 C-7.09 21.15 -7.09 21.15 -6 24 C-5.01 23.67 -4.02 23.34 -3 23 C-2.03 20.09 -1.8 18.03 -1.75 15 C-1.72 14.13 -1.7 13.27 -1.67 12.38 C-2.06 9.57 -2.83 8.74 -5 7 Z " fill="#000000" transform="translate(562,744)"/>
</g>
</svg>
