<?xml version='1.0' encoding='UTF-8'?>
<svg xmlns="http://www.w3.org/2000/svg" width="297" height="210" viewBox="0 0 297 210">
  <rect x="0" y="0" width="297" height="210" fill="white"/>
  <g transform="translate(74.5,31.0) scale(0.115625)"><path d="M0 0 C1.87 0.01 1.87 0.01 3.78 0.03 C35.46 0.6 64.84 13.84 87.75 35.44 C88.35 35.99 88.96 36.54 89.58 37.11 C101.4 48.29 110.56 62.81 115.81 78.19 C117.41 82.32 119.17 84.22 123.08 86.29 C127.97 88.39 132.93 90.23 137.94 92.02 C140.81 93.06 143.48 94.26 146.19 95.69 C155.64 100.04 168.51 99.9 178.75 99.44 C179.88 99.4 181.01 99.36 182.18 99.31 C185.72 99.13 189.22 98.83 192.75 98.44 C193.72 98.33 194.69 98.23 195.69 98.12 C198.51 97.59 200.37 97.06 202.75 95.44 C204.42 92.58 205.47 89.77 206.55 86.64 C211.97 72.17 224.24 63.83 237.66 57.63 C245.62 54.03 253.73 50.93 261.94 47.94 C276.39 42.61 288.49 36.03 300.7 26.66 C304.58 23.83 307.68 22.94 312.5 23.05 C318.1 24.02 322.16 27.51 325.7 31.79 C336.89 48.23 340.52 70.13 337.1 89.65 C333.44 107.12 324.61 121.36 309.75 131.44 C306.31 133.5 302.79 135.42 299.25 137.31 C298.33 137.81 297.41 138.31 296.47 138.82 C294.23 140.03 291.99 141.24 289.75 142.44 C292.86 146.67 295.95 150.81 299.56 154.62 C304.54 160.16 308.72 166.19 312.75 172.44 C313.4 173.44 314.04 174.44 314.71 175.47 C328.25 197.79 335.98 223.72 344.77 248.15 C361.94 297.49 361.94 297.49 389.99 341.12 C397.89 350.66 402.84 359.81 401.75 372.44 C399.76 383.01 394.19 392.73 385.75 399.44 C382.36 401.75 378.92 403.94 375.45 406.11 C367.86 410.85 360.51 415.91 353.62 421.62 C341.91 431.13 329.66 434.83 314.75 435.44 C313.75 435.48 312.76 435.52 311.73 435.56 C290.55 435.99 270.72 430.76 250.58 424.72 C227.6 417.83 204.76 414.44 180.75 414.12 C179.94 414.11 179.14 414.09 178.31 414.07 C173.05 414.08 169.37 414.87 164.75 417.44 C155.73 426.88 155.65 439.62 155.84 451.9 C156 463.44 155.34 474.24 151.44 485.25 C143.17 508.85 148.33 534.48 152.75 558.44 C152.88 559.15 153.01 559.86 153.15 560.59 C160.25 599 171.71 635.61 186.19 671.85 C200.96 708.9 200.96 708.9 194.75 724.44 C192.87 727.69 192.87 727.69 190.75 730.44 C190.05 731.41 189.35 732.38 188.62 733.38 C180.99 742.24 170.12 746.83 158.75 748.44 C156.37 748.53 153.98 748.57 151.59 748.57 C150.93 748.57 150.26 748.57 149.58 748.57 C148.18 748.57 146.78 748.57 145.38 748.57 C143.26 748.56 141.13 748.57 139 748.57 C137.64 748.57 136.27 748.57 134.91 748.57 C133.06 748.57 133.06 748.57 131.18 748.57 C127.75 748.44 127.75 748.44 124.49 747.87 C120.6 747.26 118.98 748.24 115.75 750.44 C114.61 752.13 113.47 753.83 112.33 755.54 C105.84 763.34 94.54 767.59 84.69 768.66 C63.65 770.17 43.11 763.81 26.75 750.44 C22.78 746.96 18.96 743.34 15.16 739.67 C12.14 736.77 9 734.08 5.75 731.44 C5.83 732.32 5.91 733.21 6 734.12 C5.96 743.41 2.26 752.85 -4.25 759.44 C-12.97 767.5 -22.88 769.66 -34.22 771.72 C-40.64 772.95 -46.62 774.8 -52.75 777.06 C-84.45 788.68 -115.38 779.12 -144.92 765.98 C-145.56 765.7 -146.19 765.42 -146.85 765.13 C-148.59 764.35 -150.34 763.56 -152.08 762.78 C-158.9 759.89 -164.84 758.34 -172.25 759.44 C-175.08 761.44 -175.08 761.44 -177.25 764.44 C-193.28 781.57 -219.72 787.81 -242.3 788.69 C-290.28 789.7 -341.23 770.89 -380.34 743.67 C-390.73 736.98 -404.71 741.03 -415.95 743.26 C-420.19 744.1 -424.45 744.89 -428.7 745.69 C-429.53 745.84 -430.37 746 -431.23 746.16 C-468.1 752.99 -506.11 753.35 -543.5 754.06 C-544.66 754.08 -545.83 754.11 -547.03 754.13 C-661.28 756.21 -661.28 756.21 -694.25 725.44 C-697.76 721.16 -700.52 716.82 -700.88 711.19 C-699.99 705.89 -697.94 702.98 -694.01 699.4 C-685.67 693.48 -673.41 692.54 -663.5 690.96 C-662.22 690.75 -660.93 690.54 -659.61 690.33 C-646.4 688.21 -633.12 686.54 -619.84 684.89 C-545.7 679.78 -545.7 679.78 -481.81 649.88 C-478.31 644.41 -478.56 638.72 -479.25 632.44 C-480.53 627.13 -482.49 622.02 -484.36 616.9 C-493.19 592.58 -499.29 568.17 -502.25 542.44 C-502.37 541.41 -502.49 540.38 -502.61 539.32 C-504.54 521.25 -504.48 503.08 -504.56 484.94 C-504.57 483.74 -504.58 482.54 -504.59 481.3 C-504.73 461.19 -503.35 442.16 -497.81 422.75 C-497.53 421.69 -497.24 420.63 -496.94 419.53 C-495.58 414.59 -494.07 409.84 -492.09 405.11 C-489.6 399.08 -489.19 393.32 -489.01 386.88 C-488.31 364.37 -480.33 344.05 -466.25 326.44 C-460.03 318.04 -456.17 309.25 -453.58 299.14 C-447.12 273.96 -433.01 252.79 -413.18 236.08 C-406.55 230.44 -402.59 224.98 -398.81 217.12 C-394.97 209.48 -391.08 202.76 -385.25 196.44 C-384.56 195.63 -383.86 194.82 -383.14 193.98 C-373.61 183 -363.3 174.43 -350.59 167.41 C-349.65 166.88 -349.65 166.88 -348.69 166.35 C-346.91 165.36 -345.11 164.4 -343.32 163.43 C-339.27 160.8 -337.1 157.78 -334.56 153.75 C-305.73 110.1 -233.19 89.08 -185.25 76.44 C-184.1 76.13 -182.95 75.83 -181.77 75.52 C-145.25 66.04 -107.17 61.96 -69.58 59.86 C-68.82 59.81 -68.06 59.77 -67.27 59.73 C-63.73 59.53 -60.18 59.35 -56.64 59.21 C-47.7 58.78 -38.81 58.19 -32.25 51.44 C-29.09 46.14 -28.17 41.33 -28 35.23 C-27.97 34.25 -27.94 33.27 -27.9 32.26 C-27.84 30.23 -27.79 28.19 -27.73 26.16 C-27.21 11.01 -27.21 11.01 -23.06 5.56 C-15.66 -0.03 -9.05 -0.08 0 0 Z M-12.25 13.44 C-16.36 19.61 -15.46 27.32 -15.57 34.5 C-15.59 35.68 -15.61 36.86 -15.63 38.08 C-15.67 40.59 -15.71 43.1 -15.75 45.61 C-15.81 49.37 -15.88 53.13 -15.94 56.89 C-16.14 68.19 -16.29 79.5 -16.34 90.8 C-16.34 91.68 -16.35 92.56 -16.35 93.46 C-16.37 111.06 -9.37 129.49 2.75 142.44 C3.31 143.09 3.86 143.75 4.43 144.43 C18.66 160.19 42.73 167.52 62.75 172.44 C63.74 172.44 64.73 172.44 65.75 172.44 C63.49 178.1 63.49 178.1 59.85 179.77 C52.35 183.8 49.69 195.15 47.33 202.91 C38.2 234.54 35.48 265.25 43.75 297.44 C43.98 298.35 44.21 299.26 44.45 300.2 C52.46 331.26 71.35 359.39 99.06 376.19 C101.6 377.66 104.16 379.06 106.75 380.44 C107.41 380.79 108.07 381.14 108.75 381.5 C133.93 394.65 161.62 397.97 189.47 401.19 C212.81 403.9 234.97 408.43 257.43 415.41 C262.86 417.09 268.3 418.71 273.75 420.31 C274.7 420.6 275.65 420.88 276.62 421.18 C286.82 424.19 296.54 425.81 307.19 425.75 C308.19 425.75 309.2 425.74 310.24 425.74 C321.73 425.55 330.73 423.05 340.75 417.44 C340.75 417.11 340.75 416.78 340.75 416.44 C339.48 416.4 338.21 416.36 336.9 416.32 C309.13 415.34 285.33 407.83 265.56 387.31 C263.14 384.42 262.76 383.49 262.19 379.56 C262.75 376.44 262.75 376.44 264.75 374.44 C265.59 375.19 266.42 375.94 267.29 376.71 C287.72 394.79 307.65 406.11 335.75 404.44 C351.51 403 364.03 398.3 377.75 390.44 C377.75 389.78 377.75 389.12 377.75 388.44 C376.66 388.22 375.57 388 374.45 387.77 C362.61 385.27 352.71 382.1 343.5 373.88 C337.46 368.68 331.2 366.93 323.64 364.94 C298.11 358.19 277.96 343.08 261.75 322.44 C260.35 320.79 258.96 319.15 257.56 317.5 C249.64 307.82 242.73 297.32 235.72 286.98 C230.41 279.14 225.01 271.57 218.75 264.44 C218.18 263.78 217.61 263.13 217.02 262.46 C208.71 253.54 197.64 247.68 185.62 245.88 C184.43 245.69 184.43 245.69 183.2 245.5 C175.56 244.4 167.89 243.91 160.19 243.44 C124.77 241.23 124.77 241.23 110.75 229.44 C110.16 228.98 109.58 228.53 108.98 228.06 C99.03 219.44 92.76 202.74 91.52 190.04 C90.67 177.54 92.17 167.03 96.75 155.44 C97.42 153.7 98.09 151.97 98.76 150.24 C99.11 149.34 99.45 148.44 99.81 147.51 C109.19 123.16 111.41 99.2 101.19 74.53 C89.06 48.53 67.64 29.58 41.1 19.29 C25.67 13.7 3.63 7.28 -12.25 13.44 Z M298.69 43.25 C289.64 51.22 276.9 55.07 265.7 59.06 C238.02 67.51 238.02 67.51 217.23 85.98 C215.47 89.88 214.77 93.03 214.56 97.31 C216.16 101.52 218.84 102.64 222.75 104.44 C226.05 105.65 229.39 106.66 232.75 107.69 C246.07 111.96 257.25 117.78 268.16 126.55 C273.3 130.29 277.97 131.12 284.23 131 C295.36 129.21 306.59 121.95 313.75 113.44 C324.7 98.19 327.68 81.03 325.24 62.61 C323.35 52.55 320.45 43.94 312.3 37.4 C307.67 34.53 302 40.12 298.69 43.25 Z M-80.19 71.12 C-81.04 71.21 -81.9 71.3 -82.78 71.39 C-161.94 79.63 -251.29 96.53 -314.25 148.44 C-315.31 149.31 -315.31 149.31 -316.39 150.2 C-325.1 158.05 -328.53 169.02 -329.25 180.44 C-331.32 271.55 -289.95 370.63 -233.25 449.44 C-232.76 450.11 -232.26 450.79 -231.75 451.49 C-222.88 463.63 -213.4 475.07 -203.27 486.2 C-201.52 488.14 -199.82 490.12 -198.12 492.12 C-194.53 496.25 -190.68 500.12 -186.81 504 C-185.88 504.94 -185.88 504.94 -184.93 505.9 C-180.53 510.28 -175.97 514.41 -171.25 518.44 C-170.29 519.26 -170.29 519.26 -169.32 520.09 C-154.23 532.87 -138.57 544.83 -121.25 554.44 C-120.39 554.92 -119.53 555.39 -118.65 555.89 C-108.88 561.29 -99.06 566.55 -88.5 570.25 C-87.82 570.5 -87.15 570.75 -86.45 571 C-76.95 574.06 -67.64 571.23 -58.44 568.38 C-33.26 560.72 -7.89 554.65 17.86 549.28 C24.63 547.87 31.39 546.45 38.15 545.02 C38.87 544.87 39.59 544.72 40.34 544.56 C49.67 542.58 58.96 540.5 68.21 538.19 C69.13 537.96 70.05 537.73 71 537.5 C96.41 531.01 120.43 521.89 134.97 498.56 C145.24 481.18 148.61 460.32 144.38 440.56 C140.54 425.79 131.75 408.16 118.51 399.95 C115.1 398.08 111.62 396.39 108.12 394.69 C94.61 388.1 82.89 379.49 71.75 369.44 C70.95 368.72 70.15 368.01 69.33 367.27 C53.71 352.51 42.85 332.52 35.75 312.44 C35.37 311.39 34.99 310.33 34.61 309.25 C30.24 296.16 28.33 282.19 27.75 268.44 C27.69 267.09 27.69 267.09 27.62 265.71 C26.97 236.56 34.54 208.09 46.11 181.54 C47.02 179.28 47.02 179.28 45.75 176.44 C43.34 175.27 43.34 175.27 40.35 174.39 C39.23 174.02 38.11 173.65 36.96 173.27 C35.77 172.89 34.59 172.51 33.38 172.12 C20.12 167.89 9.27 162.62 -1.25 153.44 C-1.94 152.87 -2.63 152.3 -3.34 151.71 C-19.28 137.4 -24.91 114.12 -26.96 93.66 C-27.89 82.74 -27.89 82.74 -33.93 73.89 C-39.52 69.61 -44.35 69.25 -51.32 69.27 C-52.51 69.27 -52.51 69.27 -53.72 69.28 C-62.6 69.36 -71.37 70.19 -80.19 71.12 Z M118.75 98.44 C118.75 101.08 118.75 103.72 118.75 106.44 C124.2 105.45 124.2 105.45 129.75 104.44 C129.75 103.78 129.75 103.12 129.75 102.44 C126.12 101.12 122.49 99.8 118.75 98.44 Z M118.75 123.44 C116.61 127.87 115.06 132.37 113.56 137.06 C111.12 144.6 108.3 151.99 105.43 159.38 C105.1 160.24 104.76 161.1 104.42 161.98 C104.12 162.74 103.83 163.51 103.52 164.29 C99.02 176.85 100.89 192.59 106.11 204.55 C111.48 215.88 118.04 222.05 128.94 228.25 C142.17 232.37 156.84 231.99 170.58 232.47 C194.35 233.32 211.05 239.25 227.75 256.44 C228.45 257.14 229.16 257.85 229.88 258.57 C239.66 268.97 247.44 281.47 255.44 293.25 C262.6 303.79 270.06 313.86 278.74 323.22 C280.75 325.44 280.75 325.44 282.69 327.95 C286.43 332.46 291.15 335.85 295.75 339.44 C296.67 340.16 297.58 340.88 298.53 341.62 C316.29 355.1 337.84 359.03 359.75 357.44 C366.61 356.43 373.65 354.81 379.75 351.44 C376.55 345.89 373.34 340.37 369.96 334.93 C354.21 309.39 344.05 282.07 334.29 253.83 C317.33 204.74 298 152.17 248.65 127.2 C219.25 113 145.58 95.75 118.75 123.44 Z M-368.25 192.44 C-368.98 193.09 -369.71 193.75 -370.46 194.43 C-379.52 202.8 -385.69 214.09 -390.25 225.44 C-390.68 226.43 -391.12 227.42 -391.56 228.44 C-394.24 240.11 -390.4 251.6 -387.5 262.88 C-387.26 263.84 -387.01 264.8 -386.76 265.79 C-377.58 301.9 -364.85 336.08 -348.25 369.44 C-347.84 370.27 -347.42 371.11 -347 371.97 C-329.96 406.2 -307.39 438.63 -281.59 466.86 C-280.32 468.26 -279.05 469.67 -277.82 471.11 C-272.92 476.83 -267.67 482.17 -262.33 487.48 C-260.82 489 -259.3 490.52 -257.79 492.04 C-252.45 497.38 -247.03 502.57 -241.25 507.44 C-240.62 507.98 -239.98 508.52 -239.33 509.07 C-206.46 536.96 -148.83 584.28 -102.94 583.5 C-101.11 583.47 -101.11 583.47 -99.25 583.44 C-98.59 582.12 -97.93 580.8 -97.25 579.44 C-98.36 578.96 -99.48 578.49 -100.62 578 C-134.77 563.29 -162.96 540.32 -190.25 515.44 C-191.17 514.61 -192.09 513.78 -193.04 512.93 C-204.58 502.48 -215.72 491.79 -225.25 479.44 C-226.21 478.22 -227.17 477 -228.12 475.79 C-287.08 400.34 -329.71 307.61 -338.94 204.75 C-339.25 201.2 -339.57 197.65 -339.9 194.1 C-340.09 191.92 -340.29 189.74 -340.48 187.56 C-340.9 182.81 -341.36 178.13 -342.25 173.44 C-351.07 173.44 -362.15 186.57 -368.25 192.44 Z M-414.25 249.44 C-415.27 250.38 -415.27 250.38 -416.3 251.33 C-430.46 264.85 -443.53 287.42 -444.88 307.38 C-441.75 356.77 -398.82 413.13 -367.25 448.44 C-366.3 449.52 -366.3 449.52 -365.33 450.62 C-359.59 457.09 -353.61 463.27 -347.49 469.38 C-345.88 471 -344.27 472.62 -342.66 474.25 C-336.18 480.77 -329.45 486.71 -322.25 492.44 C-321.15 493.37 -320.05 494.31 -318.96 495.27 C-294.97 516.19 -267.33 533.02 -239.46 548.23 C-238.05 549 -236.65 549.77 -235.25 550.55 C-197.9 571.17 -157.95 587.32 -116.25 596.44 C-116.25 595.12 -116.25 593.8 -116.25 592.44 C-121.35 588.03 -127.85 586.07 -134.06 583.69 C-151.73 576.74 -168.02 568.54 -184.46 559.04 C-187.03 557.57 -189.59 556.1 -192.17 554.65 C-213.6 542.47 -234.79 529.52 -252.88 512.63 C-254.82 510.83 -256.79 509.11 -258.8 507.39 C-263.85 502.99 -268.57 498.27 -273.3 493.52 C-274.81 492 -276.33 490.49 -277.85 488.97 C-283.19 483.63 -288.35 478.19 -293.25 472.44 C-294.27 471.28 -295.29 470.13 -296.32 468.97 C-347.45 411.04 -385.23 335.87 -399.58 259.86 C-400.72 254.03 -401.98 248.24 -403.25 242.44 C-408.18 242.44 -410.79 246.18 -414.25 249.44 Z M-455.25 326.44 C-468.95 345.49 -480.31 367.37 -478.25 391.44 C-473.58 415.82 -455.96 437.26 -439.51 455 C-437.59 457.07 -435.72 459.17 -433.88 461.31 C-424.7 471.86 -415.23 482.31 -404.61 491.42 C-402.82 492.95 -401.06 494.49 -399.3 496.05 C-329.77 557.3 -238.5 589.81 -148 603.25 C-147.26 603.36 -146.51 603.47 -145.75 603.59 C-143.62 603.9 -141.49 604.21 -139.36 604.52 C-138.13 604.7 -136.9 604.87 -135.64 605.06 C-132.47 605.41 -129.43 605.51 -126.25 605.44 C-128.76 602.44 -131.2 601.57 -134.89 600.42 C-136.04 600.06 -137.18 599.7 -138.35 599.33 C-139.58 598.95 -140.8 598.58 -142.06 598.19 C-143.34 597.79 -144.61 597.39 -145.88 596.98 C-149.67 595.79 -153.46 594.61 -157.25 593.44 C-208.98 577.32 -257.26 555.29 -301.25 523.44 C-302.08 522.84 -302.9 522.25 -303.75 521.64 C-313.95 514.3 -323.81 506.73 -333.25 498.44 C-333.98 497.8 -334.71 497.17 -335.47 496.52 C-337.41 494.84 -339.33 493.14 -341.25 491.44 C-341.95 490.83 -342.64 490.23 -343.36 489.61 C-349.09 484.57 -354.53 479.26 -359.94 473.88 C-360.65 473.17 -361.36 472.46 -362.1 471.73 C-366.69 467.13 -371.02 462.37 -375.25 457.44 C-376.18 456.39 -377.1 455.34 -378.03 454.3 C-407.35 420.93 -435.15 379.69 -448.14 336.9 C-449.62 332.28 -451.6 329.61 -455.25 326.44 Z M382.1 360.45 C373.8 363.94 365.42 367.03 356.75 369.44 C362.1 374.79 370.47 374.74 377.62 374.81 C378.73 374.83 378.73 374.83 379.86 374.85 C382.98 374.83 385.38 374.62 388.2 373.23 C390.18 370.94 390.43 369.44 390.69 366.44 C390.82 365.14 390.82 365.14 390.96 363.81 C390.96 361.37 390.96 361.37 389.32 359.62 C386.58 357.55 385.08 359.16 382.1 360.45 Z M-484.25 409.44 C-489.88 436.65 -493.51 462.78 -493.56 490.62 C-493.57 491.63 -493.57 492.64 -493.57 493.68 C-493.61 512.21 -492.76 530.83 -489.56 549.12 C-489.39 550.1 -489.22 551.08 -489.05 552.09 C-480.58 598.89 -464.6 645.23 -434.25 682.44 C-433.27 683.72 -433.27 683.72 -432.27 685.04 C-421.66 698.66 -408.91 710.9 -395.01 721.13 C-393.14 722.52 -391.3 723.95 -389.46 725.38 C-364.89 744.44 -337.52 756.33 -308.25 766.44 C-307.03 766.86 -307.03 766.86 -305.79 767.29 C-273.85 778.14 -234.18 781.87 -202.73 767.87 C-188.51 760.74 -179.55 750.91 -174.23 735.98 C-172.32 729.07 -171.57 721.95 -170.67 714.86 C-166.7 683.88 -166.7 683.88 -162.25 669.44 C-162.03 668.74 -161.82 668.04 -161.6 667.31 C-156.41 651.09 -147.34 637.23 -137.77 623.27 C-136.89 621.98 -136.89 621.98 -136 620.66 C-135.47 619.9 -134.94 619.13 -134.39 618.34 C-133.08 616.52 -133.08 616.52 -133.25 614.44 C-134.54 614.26 -135.83 614.08 -137.16 613.89 C-195.72 605.67 -250.97 593.29 -305.25 569.44 C-306.15 569.04 -307.04 568.65 -307.96 568.25 C-321.55 562.22 -334.43 554.95 -347.25 547.44 C-348.07 546.95 -348.9 546.47 -349.75 545.98 C-373.63 531.91 -395.8 515.13 -416.25 496.44 C-417.17 495.62 -418.1 494.8 -419.05 493.95 C-431.19 483.08 -442.13 471.22 -451.93 458.19 C-453.26 456.43 -454.6 454.68 -455.95 452.93 C-464.48 441.73 -471.5 429.67 -478.53 417.5 C-479.47 415.86 -479.47 415.86 -480.44 414.19 C-480.97 413.25 -481.5 412.32 -482.04 411.36 C-482.44 410.73 -482.84 410.09 -483.25 409.44 C-483.58 409.44 -483.91 409.44 -484.25 409.44 Z M144.75 409.44 C146.15 412.98 146.15 412.98 147.75 416.44 C148.41 416.44 149.07 416.44 149.75 416.44 C151.21 413.79 151.75 412.54 151.75 409.44 C149.44 409.44 147.13 409.44 144.75 409.44 Z M127.75 521.75 C122.54 526.37 116.99 529.64 110.88 532.94 C103.66 536.91 98.52 540.31 95.75 548.44 C95.51 549.13 95.27 549.81 95.02 550.52 C80.28 600.89 101.3 673.89 117 722.19 C117.21 722.84 117.42 723.49 117.64 724.17 C119.29 728.95 121.47 733.56 124.75 737.44 C127.49 738.81 127.49 738.81 130.5 738.94 C131.56 739.04 132.63 739.15 133.72 739.26 C134.72 739.32 135.72 739.38 136.75 739.44 C137.47 739.51 138.19 739.57 138.93 739.64 C152.65 740.37 168.16 736.54 178.84 727.71 C184.15 722.02 186.1 715.54 185.97 707.89 C185.58 703.6 184.18 699.77 182.69 695.75 C182.34 694.78 182 693.81 181.64 692.82 C178.74 684.83 175.58 676.96 172.43 669.07 C153.81 622.54 141.01 576.76 137.06 526.6 C136.76 523.51 136.3 520.49 135.75 517.44 C131.65 517.44 130.75 519.01 127.75 521.75 Z M72.27 545.89 C71.6 546.04 70.93 546.2 70.24 546.36 C68.02 546.87 65.79 547.39 63.57 547.91 C62 548.27 60.44 548.64 58.87 549 C55.56 549.77 52.26 550.54 48.95 551.32 C44.8 552.29 40.65 553.25 36.5 554.21 C21.02 557.81 5.55 561.43 -9.88 565.25 C-10.97 565.51 -12.06 565.78 -13.18 566.05 C-26.46 568.5 -26.46 568.5 -37.25 575.44 C-46.61 599.77 -28.71 636.9 -18.97 659.12 C-17.5 662.39 -15.99 665.63 -14.46 668.87 C-13.17 671.61 -11.9 674.37 -10.62 677.12 C2.08 704.42 20.04 739.78 49.94 751.75 C65.29 756.7 81.63 758.7 97.12 753.25 C102.26 749.71 105.79 745.38 107.75 739.44 C110.02 725.32 103.83 710.62 99.97 697.27 C85.61 647.39 84.01 595.94 80.75 544.44 C77.81 544.44 75.13 545.22 72.27 545.89 Z M-69.25 583.44 C-68.93 592.05 -65.76 599.21 -62.38 607 C-61.78 608.38 -61.19 609.76 -60.6 611.14 C-59.11 614.6 -57.61 618.06 -56.1 621.5 C-55.31 623.31 -54.52 625.11 -53.74 626.92 C-46.42 643.65 -38.51 659.97 -27.25 674.44 C-25.74 671.41 -27.1 669.32 -28.12 666.27 C-28.56 664.99 -28.56 664.99 -29 663.68 C-29.61 661.85 -30.23 660.02 -30.84 658.19 C-31.16 657.23 -31.48 656.27 -31.82 655.28 C-39.26 633.12 -45.32 611.18 -49.69 588.19 C-49.88 587.19 -50.07 586.19 -50.27 585.16 C-50.44 584.27 -50.6 583.38 -50.77 582.47 C-51.06 580.45 -51.06 580.45 -52.25 579.44 C-58.71 578.91 -63.58 580.6 -69.25 583.44 Z M-89.88 591.38 C-90.5 591.79 -91.12 592.2 -91.76 592.63 C-100.91 598.8 -109.18 605.92 -117.25 613.44 C-117.97 614.11 -118.7 614.78 -119.45 615.47 C-123.98 619.82 -128.74 624.59 -131.25 630.44 C-131.19 635.34 -128.23 638.27 -125.12 641.75 C-124.66 642.28 -124.2 642.81 -123.73 643.36 C-122.76 644.47 -121.79 645.57 -120.81 646.67 C-119.74 647.88 -118.68 649.1 -117.62 650.33 C-106.91 662.75 -95.27 674.33 -82.07 684.08 C-80.09 685.56 -78.13 687.06 -76.17 688.57 C-70.49 692.94 -64.81 697.3 -59.04 701.54 C-32.6 720.97 -32.6 720.97 -30.25 733.44 C-30.15 735.99 -30.11 738.51 -30.12 741.06 C-30.13 741.77 -30.13 742.48 -30.13 743.21 C-30.18 748.66 -30.52 754.03 -31.25 759.44 C-24.53 759.86 -19.35 758.98 -14.04 754.62 C-8.56 749.08 -6.62 744.16 -6.25 736.44 C-6.2 735.73 -6.14 735.03 -6.09 734.3 C-6.36 718.81 -21.02 702.36 -29.62 690.3 C-48.3 664.06 -63.56 636.47 -73.44 605.7 C-73.79 604.59 -74.15 603.48 -74.52 602.34 C-75.2 600.2 -75.87 598.04 -76.51 595.89 C-76.96 594.45 -76.96 594.45 -77.43 592.98 C-77.81 591.7 -77.81 591.7 -78.2 590.39 C-79.08 588.28 -79.08 588.28 -81.17 587.55 C-84.65 587.36 -87.11 589.48 -89.88 591.38 Z M-139.25 643.44 C-144.05 651.75 -148.16 660.17 -151.62 669.12 C-151.96 669.97 -152.29 670.81 -152.63 671.67 C-157.01 683.29 -157.75 695.55 -158.81 707.81 C-159 709.95 -159.19 712.09 -159.38 714.23 C-159.56 716.16 -159.72 718.08 -159.89 720.01 C-160.22 723.18 -160.71 726.29 -161.25 729.44 C-161.68 735.18 -162.06 740.5 -159.81 745.88 C-148.01 757.67 -129.21 762.98 -113.25 766.44 C-111.8 766.76 -111.8 766.76 -110.32 767.08 C-94.06 770.08 -67.85 773.67 -52.85 764.69 C-46.7 759.88 -42.19 753.12 -40.9 745.33 C-40.56 737.73 -43.47 733.1 -48.25 727.62 C-56.42 718.93 -65.27 711.56 -74.76 704.4 C-84.6 696.96 -93.82 688.82 -102.95 680.52 C-104.49 679.13 -106.05 677.75 -107.62 676.39 C-111.8 672.76 -115.59 669.07 -119.16 664.85 C-121.99 661.58 -124.93 658.42 -127.88 655.25 C-128.43 654.66 -128.98 654.06 -129.54 653.45 C-132.71 650.04 -135.94 646.71 -139.25 643.44 Z M-498.01 672.29 C-500.91 677.31 -498.77 684.13 -497.56 689.52 C-493.8 702.87 -487.09 715.44 -480.25 727.44 C-489.95 717.49 -496.66 706.72 -501.82 693.91 C-503.93 688.75 -506.23 684.87 -510.81 681.62 C-519.68 678.56 -527.98 680.48 -536.25 684.44 C-540.33 686.76 -543.47 688.97 -545.25 693.44 C-547.42 706.7 -540.69 720.67 -535.25 732.44 C-540.41 729.54 -542.81 726.52 -545.31 721.12 C-545.65 720.43 -545.99 719.73 -546.34 719.01 C-549.15 713.05 -551.17 706.98 -552.95 700.64 C-554.66 696.42 -557.14 693.49 -561.25 691.44 C-570.9 690.49 -579.16 692.11 -587.31 697.44 C-591.72 701.99 -591.57 706.21 -591.56 712.35 C-591.43 718.94 -590.04 725.11 -588.25 731.44 C-589.38 729.57 -590.51 727.69 -591.62 725.81 C-592.25 724.77 -592.88 723.72 -593.52 722.65 C-596.71 716.72 -597.69 711.16 -598.38 704.56 C-598.46 703.78 -598.55 703 -598.64 702.19 C-598.85 700.27 -599.05 698.35 -599.25 696.44 C-603.08 696.69 -606.92 696.97 -610.75 697.25 C-612.37 697.36 -612.37 697.36 -614.02 697.46 C-621.38 698.02 -627.62 698.76 -633.72 703.26 C-636.86 707.73 -635.82 713.23 -635.25 718.44 C-634.26 723.21 -632.8 727.82 -631.25 732.44 C-633.12 732.19 -633.12 732.19 -635.25 731.44 C-636.38 729.7 -636.38 729.7 -637.25 727.44 C-637.57 726.63 -637.89 725.82 -638.21 724.99 C-638.54 724.11 -638.86 723.22 -639.19 722.31 C-639.54 721.35 -639.89 720.39 -640.25 719.39 C-641.19 716.61 -641.91 713.84 -642.62 711 C-643.69 707.32 -644.15 706.52 -647.19 703.88 C-657.06 699.24 -669.95 700.99 -680.25 703.44 C-683.97 705.64 -683.97 705.64 -687.25 708.44 C-686.94 713.79 -686.09 716.69 -682.25 720.44 C-651.32 746.13 -594.6 742.84 -556.63 742.7 C-554.34 742.69 -552.05 742.68 -549.76 742.68 C-527.54 742.63 -505.4 742.36 -483.25 740.44 C-481.69 740.31 -480.14 740.18 -478.58 740.05 C-459.1 738.39 -439.73 736.09 -420.38 733.31 C-419.47 733.18 -418.57 733.06 -417.63 732.92 C-415.09 732.56 -412.55 732.19 -410.01 731.8 C-409.25 731.7 -408.49 731.59 -407.71 731.48 C-403.54 730.9 -403.54 730.9 -400.25 728.44 C-401.37 727.65 -401.37 727.65 -402.5 726.84 C-419.88 714.07 -435.53 697.8 -448.25 680.44 C-458.61 666.51 -458.61 666.51 -474 660.06 C-482.8 661.08 -491.91 665.88 -498.01 672.29 Z " fill="#000000" transform="translate(747.25,163.5625)"/>
<path d="M0 0 C6.08 4.82 9.88 12.22 11.26 19.79 C12.14 29.99 11.26 39.9 6.57 49.11 C-0.77 57.65 -8.35 62.38 -19.68 63.67 C-29.87 64.18 -37.89 62.52 -45.74 55.79 C-53.27 48.66 -57.76 42.2 -58.21 31.66 C-58.32 23.73 -57.42 16.94 -53.74 9.79 C-53.41 9.14 -53.08 8.49 -52.75 7.82 C-48.35 0.53 -40.04 -3.77 -32.11 -6.14 C-20.33 -8.84 -10.19 -6.48 0 0 Z M-40.45 11.16 C-42.71 14.02 -42.93 16.22 -42.74 19.79 C-40.18 25.46 -36.32 27.67 -30.74 29.79 C-26.88 31.08 -22.95 31.01 -18.93 31.04 C-18.24 31.06 -17.55 31.08 -16.85 31.11 C-11.76 31.14 -8.24 30.21 -3.74 27.79 C-1.24 24.05 -1.11 21.13 -1.74 16.79 C-3.49 11.56 -5.94 7.7 -10.74 4.79 C-21.61 0.77 -32.02 3.23 -40.45 11.16 Z " fill="#000000" transform="translate(948.73828125,434.20703125)"/>
<path d="M0 0 C22.95 8.88 40.32 25.69 50.31 48 C60.1 72.24 66.12 108.7 56 134 C54.08 136.39 53.53 136.94 50.44 137.31 C48 137 48 137 46 135 C45.41 131.96 45.04 128.92 44.66 125.85 C43.93 122.71 43.4 122.01 41 120 C39.07 119 39.07 119 36.89 118.24 C36.06 117.93 35.24 117.62 34.39 117.3 C33.5 116.97 32.61 116.65 31.69 116.31 C30.76 115.97 29.84 115.62 28.89 115.26 C23.98 113.43 19.05 111.66 14.11 109.91 C-17.96 98.56 -17.96 98.56 -25 85 C-27.89 77.32 -28.38 70.15 -28 62 C-26.02 61.5 -26.02 61.5 -24 61 C-21.59 65.64 -19.45 70.28 -17.5 75.12 C-13.68 84.2 -10.46 88.33 -1.24 92.14 C14.12 98.01 30.54 103.63 47 105 C46.55 75.09 42.88 47.19 21.07 24.85 C12.94 17 2.72 12.12 -7.49 7.56 C-12.82 5.18 -12.82 5.18 -15 3 C-14.75 0.94 -14.75 0.94 -14 -1 C-9.72 -3.14 -4.4 -1.19 0 0 Z " fill="#000000" transform="translate(774,196)"/>
<path d="" fill="#000000" transform="translate(0,0)"/>
</g>
</svg>
