<?xml version='1.0' encoding='UTF-8'?>
<svg xmlns="http://www.w3.org/2000/svg" width="297" height="210" viewBox="0 0 297 210">
  <rect x="0" y="0" width="297" height="210" fill="white"/>
  <g transform="translate(92.2484375,31.0) scale(0.115625)"><path d="M0 0 C7.8 4.6 12.44 9.97 15.68 18.49 C19.09 31.85 16.06 44.58 9.28 56.33 C3.9 64.5 -3.18 69.73 -12.44 72.94 C-18.65 74.01 -24.13 73.47 -29.6 70.25 C-37.14 64.87 -40.68 58.31 -44.44 49.94 C-51.17 51.24 -57.16 53.21 -63.44 55.94 C-64.35 56.33 -65.26 56.73 -66.2 57.14 C-86.32 66.08 -102.64 78.79 -118.44 93.94 C-119.26 94.72 -120.08 95.5 -120.93 96.31 C-125.69 100.93 -129.93 105.83 -134.07 111 C-136.13 113.55 -138.24 116.05 -140.38 118.53 C-145.05 123.96 -149.5 129.52 -153.81 135.25 C-154.3 135.9 -154.79 136.54 -155.29 137.21 C-158.59 141.64 -161.58 146.21 -164.44 150.94 C-161.58 152.84 -159.75 153.53 -156.48 154.38 C-155.48 154.65 -154.48 154.92 -153.45 155.2 C-152.38 155.48 -151.3 155.77 -150.19 156.06 C-104.77 168.49 -68.78 187.5 -40.44 225.94 C-39.94 226.6 -39.44 227.26 -38.93 227.95 C-5.7 272.35 19.49 322.88 28.56 377.94 C28.68 378.63 28.8 379.32 28.92 380.03 C32.33 401.07 31.35 423.77 29.56 444.94 C30.39 444 30.39 444 31.23 443.05 C37.64 435.92 44.31 429.05 51.06 422.25 C51.93 421.37 52.79 420.49 53.68 419.59 C59.66 413.6 65.94 408.2 72.56 402.94 C73.84 401.89 75.12 400.84 76.39 399.79 C84.77 392.93 93.4 386.71 102.56 380.94 C103.31 380.46 104.06 379.99 104.83 379.5 C145.84 353.69 191.65 339.07 239.98 349.46 C262.53 354.71 283.3 365.48 300.56 380.94 C301.05 381.37 301.54 381.79 302.04 382.23 C336.09 412.2 354.19 452.98 362.56 496.94 C362.76 497.92 362.96 498.91 363.16 499.92 C366.7 518.28 366.96 536.55 367 555.19 C367.01 556.95 367.01 556.95 367.02 558.75 C367.09 580 365.53 601.09 361.31 621.94 C361 623.52 361 623.52 360.68 625.13 C351.7 668.94 335.68 710.14 304.56 742.94 C304.1 743.43 303.64 743.93 303.16 744.44 C286.6 762.07 266.9 774.38 245 784.44 C244.11 784.85 243.22 785.26 242.3 785.68 C236.5 788.26 230.68 790.26 224.56 791.94 C224.76 792.92 224.96 793.91 225.16 794.92 C229.12 814.86 232.79 834.66 234.56 854.94 C234.63 855.69 234.7 856.45 234.77 857.22 C235.18 861.79 235.41 866.35 235.56 870.94 C235.59 871.67 235.62 872.39 235.65 873.14 C237.91 941.64 220.19 1011.59 190.56 1072.94 C190.2 1073.7 189.83 1074.46 189.45 1075.24 C187.53 1079.2 185.55 1083.14 183.54 1087.05 C182.88 1088.33 182.22 1089.61 181.57 1090.89 C163.32 1126.89 139.37 1160.23 113.17 1190.86 C110.8 1193.63 108.52 1196.47 106.25 1199.31 C101.38 1205.31 96.08 1210.88 90.79 1216.5 C87.89 1219.58 85.09 1222.72 82.33 1225.92 C79.95 1228.63 77.51 1231.28 75.06 1233.94 C71.42 1237.9 67.82 1241.89 64.3 1245.95 C61.53 1249.12 58.71 1252.24 55.89 1255.36 C54.34 1257.08 52.8 1258.81 51.27 1260.55 C36.56 1277.24 36.56 1277.24 26.7 1278.22 C14.58 1278.59 3.5 1275.7 -8.19 1272.75 C-34 1266.33 -59.86 1261.73 -86.2 1258.06 C-136.04 1251.1 -184.7 1241.97 -230.44 1219.94 C-231.49 1219.44 -231.49 1219.44 -232.56 1218.93 C-248.43 1211.38 -263.41 1202.54 -277.44 1191.94 C-278.02 1191.5 -278.59 1191.07 -279.19 1190.62 C-288.1 1183.9 -296.41 1176.69 -304.44 1168.94 C-305.06 1168.34 -305.68 1167.74 -306.32 1167.12 C-314.22 1159.46 -321.77 1151.72 -328.44 1142.94 C-328.94 1142.29 -329.43 1141.64 -329.95 1140.97 C-363.59 1097 -386.69 1046.81 -402.44 993.94 C-402.75 992.89 -403.06 991.84 -403.39 990.76 C-414.41 953.18 -420.56 913.96 -423.44 874.94 C-424.14 874.95 -424.84 874.96 -425.56 874.97 C-468.49 875.41 -510.43 847.08 -540.99 819.16 C-543.99 816.43 -547.06 813.79 -550.14 811.15 C-577.54 784.77 -595.03 747.56 -603.44 710.94 C-603.62 710.17 -603.8 709.41 -603.98 708.62 C-613.86 664.13 -603.92 613.51 -579.68 575.32 C-566.47 555.13 -549.72 538.87 -529.44 525.94 C-528.85 525.56 -528.26 525.18 -527.65 524.79 C-509.04 513.07 -486.59 505.68 -464.5 505.88 C-463.47 505.88 -463.47 505.88 -462.43 505.89 C-460.76 505.9 -459.1 505.92 -457.44 505.94 C-457.7 505.35 -457.97 504.75 -458.24 504.14 C-471.06 475.53 -480.11 447.25 -483.44 415.94 C-483.53 415.1 -483.63 414.27 -483.72 413.41 C-484.55 405.41 -484.68 397.41 -484.69 389.38 C-484.69 388.66 -484.69 387.94 -484.69 387.19 C-484.61 331.55 -466.38 279.08 -428.44 237.94 C-424.35 233.34 -420.35 228.68 -416.44 223.94 C-422.49 216.26 -428.87 209.2 -435.81 202.31 C-437.12 201 -437.12 201 -438.45 199.66 C-444.46 193.66 -450.78 188.21 -457.44 182.94 C-458.01 182.47 -458.59 182 -459.18 181.52 C-476.71 167.34 -496.2 154.87 -516.44 144.94 C-516.64 145.72 -516.85 146.5 -517.06 147.31 C-521.3 158.47 -528.9 168.37 -539.62 173.94 C-541.22 174.63 -542.82 175.31 -544.44 175.94 C-545.53 176.37 -546.62 176.8 -547.75 177.25 C-560.15 179.56 -571.24 177.67 -581.75 170.62 C-592.95 162.19 -599.65 152.88 -602.44 138.94 C-603.81 126.26 -601.81 114.53 -594.44 103.94 C-586.63 94.5 -578.14 90.86 -566.11 89.71 C-551.85 89.17 -536.08 93.47 -525.38 103.25 C-520.8 108.48 -517.72 114.24 -516.83 121.16 C-515.53 129.9 -515.53 129.9 -510.3 136.71 C-504.67 140.22 -498.6 142.8 -492.55 145.48 C-487.59 147.8 -483 150.64 -478.38 153.56 C-477.5 154.11 -476.63 154.66 -475.74 155.22 C-468.44 159.86 -461.34 164.72 -454.44 169.94 C-453.86 170.37 -453.28 170.81 -452.69 171.26 C-445.14 176.97 -438 182.99 -431.1 189.46 C-428.93 191.48 -426.72 193.41 -424.44 195.31 C-420.7 198.55 -417.36 202.12 -414 205.75 C-413.47 206.33 -412.93 206.9 -412.38 207.5 C-408.57 211.67 -408.57 211.67 -407.44 213.94 C-402.07 213.54 -398.79 210.47 -394.69 207.31 C-363.79 184.35 -328 166.76 -291.44 154.94 C-290.68 154.69 -289.93 154.44 -289.15 154.18 C-258.15 143.92 -222.74 141.65 -190.68 148.07 C-186.64 148.81 -183.39 149.36 -179.44 147.94 C-177.34 145.94 -177.34 145.94 -175.69 143.25 C-175.01 142.25 -174.33 141.26 -173.63 140.23 C-172.91 139.14 -172.18 138.06 -171.44 136.94 C-169.85 134.63 -168.24 132.34 -166.62 130.06 C-166.21 129.47 -165.79 128.89 -165.36 128.28 C-158.8 119.15 -151.29 110.75 -143.73 102.45 C-142.13 100.69 -140.54 98.92 -138.96 97.14 C-131.58 88.9 -123.67 81.33 -115.44 73.94 C-114.62 73.2 -114.62 73.2 -113.79 72.46 C-98.12 58.51 -79.51 43 -58.67 38.24 C-55.23 37.44 -52.58 36.62 -49.44 34.94 C-47.3 31.24 -46.3 27.87 -45.36 23.74 C-43.2 14.83 -37.86 8.15 -30.44 2.94 C-21.11 -2.53 -10.2 -4.79 0 0 Z M-266.44 154.94 C-267.31 155.13 -268.18 155.32 -269.08 155.52 C-316.7 166.34 -362.3 189.66 -400.44 219.94 C-399.9 224.16 -398.55 226.48 -395.94 229.81 C-390.88 236.55 -386.63 243.64 -382.44 250.94 C-382.05 251.6 -381.66 252.27 -381.26 252.96 C-380.11 254.94 -378.99 256.94 -377.88 258.94 C-377.53 259.54 -377.18 260.13 -376.82 260.75 C-374.53 264.95 -373.95 268.19 -374.44 272.94 C-376.19 274.94 -376.19 274.94 -378.44 275.94 C-380.4 275.79 -380.4 275.79 -382.44 274.94 C-383.94 272.93 -383.94 272.93 -385.36 270.3 C-385.88 269.34 -386.41 268.37 -386.96 267.38 C-387.51 266.35 -388.06 265.31 -388.62 264.25 C-389.78 262.14 -390.94 260.03 -392.11 257.93 C-392.67 256.9 -393.24 255.87 -393.82 254.81 C-398.48 246.52 -403.79 238.59 -409.44 230.94 C-419.23 232.19 -425.71 243.71 -431.44 250.94 C-432.22 251.89 -433 252.85 -433.81 253.83 C-464.04 291.56 -477.97 338.89 -477.75 386.81 C-477.75 387.66 -477.75 388.5 -477.74 389.37 C-477.53 450.05 -457.56 508.37 -415.44 552.94 C-414.24 554.31 -413.06 555.68 -411.88 557.06 C-371.38 603.3 -308.11 622.16 -248.74 626.76 C-172.97 630.9 -101.82 611.87 -44.31 561.22 C-41.8 558.97 -39.34 556.66 -36.9 554.33 C-35.93 553.4 -34.95 552.48 -33.96 551.56 C2.6 517.38 22.72 466.83 24.52 417.24 C24.88 389.47 20.08 362.3 11.56 335.94 C11.29 335.09 11.02 334.24 10.74 333.37 C-3.76 288.82 -29.82 245.36 -61.44 210.94 C-61.95 210.38 -62.45 209.83 -62.98 209.26 C-89.24 181.05 -130.45 163.2 -168.44 157.94 C-172.61 160.85 -174.47 165.45 -176.56 169.94 C-176.94 170.74 -177.32 171.55 -177.72 172.38 C-181.79 181.24 -184.96 190.44 -188.07 199.68 C-188.67 201.42 -188.67 201.42 -189.27 203.19 C-189.79 204.74 -189.79 204.74 -190.32 206.33 C-191.41 208.88 -192.27 210.24 -194.44 211.94 C-196.63 212.45 -196.63 212.45 -199 212.62 C-199.79 212.69 -200.57 212.76 -201.38 212.82 C-202.73 212.9 -204.08 212.94 -205.44 212.94 C-206.05 205.54 -203.95 200.09 -201.12 193.31 C-200.46 191.69 -200.46 191.69 -199.79 190.03 C-196.2 181.36 -192.14 172.96 -187.75 164.67 C-187.31 163.81 -186.86 162.95 -186.39 162.07 C-185.99 161.31 -185.59 160.56 -185.18 159.79 C-184.93 159.18 -184.69 158.57 -184.44 157.94 C-184.77 157.28 -185.1 156.62 -185.44 155.94 C-190.67 154.39 -195.9 153.45 -201.32 152.83 C-202.05 152.75 -202.78 152.66 -203.54 152.58 C-211.77 151.7 -219.98 151.58 -228.25 151.62 C-229.43 151.63 -229.43 151.63 -230.63 151.63 C-242.79 151.68 -254.54 152.22 -266.44 154.94 Z M93.56 394.94 C92.88 395.43 92.19 395.93 91.49 396.44 C84.01 401.87 76.73 407.39 69.97 413.71 C68 415.53 66 417.29 63.96 419.04 C58.68 423.64 53.71 428.55 48.75 433.5 C48.27 433.98 47.78 434.47 47.28 434.97 C35.04 447.23 25.13 459.05 19.31 475.56 C18.91 476.65 18.91 476.65 18.5 477.76 C17.03 481.91 15.95 485.48 16.56 489.94 C17.87 492.03 17.87 492.03 19.75 493.75 C22.65 496.7 24 498.94 25.38 502.81 C26.46 505.21 26.46 505.21 28.56 506.94 C33.75 508.14 38.89 508.39 44.19 508.73 C63.68 510.42 81.49 520.45 94.31 534.97 C105.34 548.18 113.11 565.15 115.48 582.17 C117.62 596.98 120.18 604.89 131.8 614.39 C134.65 616.9 136.9 619.79 139.19 622.81 C139.63 623.39 140.07 623.97 140.52 624.56 C141.42 625.75 142.31 626.93 143.2 628.12 C144.6 629.98 146.02 631.83 147.45 633.67 C177.27 672.35 198.96 716.84 214.56 762.94 C214.93 764.02 215.29 765.09 215.67 766.21 C217.66 772.11 219.63 778.02 221.56 783.94 C225.32 784.94 227.41 784.97 230.98 783.42 C232.23 782.88 232.23 782.88 233.5 782.33 C234.39 781.94 235.27 781.54 236.19 781.12 C237.11 780.71 238.04 780.3 239 779.88 C260.65 770.16 279.56 758.57 296.56 741.94 C297.34 741.23 298.11 740.51 298.91 739.78 C343.38 697.89 358.75 627.11 360.68 568.25 C362.22 505.94 350.5 441.73 306.56 394.94 C283.05 370.78 249.59 353.53 215.5 352.64 C213 352.62 210.5 352.61 208 352.62 C207.34 352.63 206.69 352.63 206.01 352.63 C164.25 352.88 126.85 370.73 93.56 394.94 Z M12.56 495.94 C12.21 496.57 11.86 497.21 11.5 497.86 C-5.12 527.71 -24.01 554.2 -51.82 574.73 C-53.41 575.92 -54.97 577.16 -56.52 578.4 C-98.42 611.8 -147.61 627.12 -200.44 631.94 C-201.16 632.01 -201.88 632.08 -202.63 632.15 C-262.9 637.95 -332.85 624.97 -382.92 589.57 C-385.37 587.98 -387.7 586.92 -390.44 585.94 C-395.3 593.33 -395.12 601.3 -394.44 609.94 C-393.26 614.54 -391.42 618.76 -389.47 623.08 C-386.67 629.66 -387.57 635.08 -389.56 641.81 C-391.27 648.36 -390.73 655.3 -387.44 661.25 C-383.1 667.33 -377.16 670.48 -370.12 672.5 C-366.61 673.78 -365.68 674.42 -364.06 677.86 C-363.39 680.16 -362.78 682.48 -362.22 684.8 C-360.74 690.73 -357.6 694.61 -352.44 697.94 C-346.2 700.87 -340.09 701.34 -333.26 701.53 C-330.44 701.94 -330.44 701.94 -328.7 703.23 C-327.36 705.04 -326.19 706.87 -325.06 708.81 C-319.8 717.36 -312.19 722.56 -302.65 725.44 C-298.32 726.41 -294.24 726.18 -289.89 725.6 C-283.04 724.7 -283.04 724.7 -279.81 726 C-278.64 726.96 -278.64 726.96 -277.44 727.94 C-276.17 728.95 -274.9 729.95 -273.62 730.94 C-272.72 731.68 -272.72 731.68 -271.79 732.44 C-265.38 736.52 -259.25 737.46 -251.75 737.38 C-250.44 737.37 -250.44 737.37 -249.1 737.37 C-242.58 737.23 -237.25 736.15 -231.16 733.71 C-226.41 732.36 -222.54 733.61 -218.31 735.94 C-209.51 740.75 -196.39 740.36 -186.81 737.81 C-181.45 735.85 -176.91 732.53 -172.97 728.41 C-169.73 725.21 -167.53 723.55 -162.88 723.49 C-161.25 723.57 -159.62 723.68 -158 723.81 C-149.3 724.46 -143.81 722.86 -137.06 717.25 C-136.2 716.49 -135.33 715.72 -134.44 714.94 C-131.97 713.7 -130.28 713.8 -127.52 713.76 C-110.73 713.41 -93.66 712.69 -80.44 700.94 C-79.63 699.93 -79.63 699.93 -78.8 698.9 C-75.57 696.22 -72.34 695.99 -68.31 695.5 C-57.79 693.91 -48.46 690.35 -41.44 681.94 C-39.76 678.88 -38.31 675.82 -36.96 672.61 C-35.14 669.41 -33.77 668.44 -30.44 666.94 C-28.35 666.41 -26.24 665.95 -24.12 665.56 C-16.66 663.93 -10.37 661.17 -5.51 655.01 C-3.99 652.08 -3.32 649.07 -2.5 645.88 C-0.48 638.21 -0.48 638.21 2.31 635.81 C5.42 634.02 8.56 632.44 11.8 630.89 C15.21 629.04 16.24 626.9 17.44 623.31 C17.59 619.27 16.64 616.21 15.35 612.4 C13.79 607.53 13.79 607.53 13.56 604.94 C15.81 601.8 19.36 600.15 22.62 598.22 C25.84 596.09 27.33 594.64 28.56 590.94 C28.97 584.89 28.05 581.54 25.56 575.94 C24.8 571.57 25.8 569.3 28 565.62 C31.65 559.4 32.29 554.03 30.69 547 C28.9 541.63 25.53 538.06 21.62 534.07 C19.56 531.94 19.56 531.94 17.56 528.94 C17.83 525.44 18.36 522.46 19.62 519.19 C21.22 513.66 21.79 507.89 19.55 502.48 C16.99 498.13 16.99 498.13 12.56 495.94 Z M-551.44 550.94 C-552.16 551.58 -552.89 552.22 -553.63 552.88 C-565.32 563.8 -574.24 577.77 -581.44 591.94 C-581.75 592.55 -582.07 593.17 -582.4 593.8 C-604.41 637.06 -605.09 686.46 -590.74 732.16 C-581.84 759.17 -567 783.38 -547.44 803.94 C-546.93 804.47 -546.43 805 -545.91 805.55 C-537.66 814.19 -529.03 821.83 -519.44 828.94 C-518.89 829.35 -518.34 829.77 -517.77 830.2 C-492.96 848.97 -460.12 868.41 -428.13 868.37 C-427.24 868.23 -426.35 868.08 -425.44 867.94 C-422.98 864.26 -423.07 861.39 -423.06 857.12 C-423.04 856.43 -423.01 855.73 -422.99 855.01 C-422.95 848.88 -425.05 845.4 -429.34 840.98 C-430.01 840.37 -430.68 839.76 -431.38 839.12 C-458.93 812.11 -477.02 772.05 -477.75 733.5 C-476.81 700.15 -461.49 672.82 -437.62 650.25 C-427.62 641.53 -416.7 635.83 -404.44 630.94 C-402.64 630.16 -400.85 629.37 -399.06 628.56 C-397.87 628.03 -396.67 627.49 -395.44 626.94 C-396.08 623.23 -397.15 619.95 -398.5 616.44 C-402.01 605.94 -401.03 597.08 -397.21 586.81 C-396.31 583.46 -396.1 582.15 -397.44 578.94 C-399.62 576.43 -402.07 574.26 -404.56 572.06 C-405.88 570.88 -407.19 569.69 -408.51 568.51 C-409.16 567.92 -409.81 567.33 -410.49 566.73 C-417.14 560.63 -422.84 554 -428.44 546.94 C-429.26 545.91 -430.07 544.89 -430.92 543.83 C-436.17 537.18 -440.88 530.34 -445.33 523.13 C-449.08 517.19 -449.08 517.19 -454.44 512.94 C-491.58 509.81 -524.65 526.6 -551.44 550.94 Z M27.81 514.64 C25.63 518.67 23.78 522.29 23.56 526.94 C24.93 529.3 26.56 530.87 28.52 532.75 C32.88 537.42 35.11 543.74 37.73 549.51 C40 554.32 42.56 558.33 45.88 562.5 C54.99 574.35 60.25 588.46 63.56 602.94 C63.76 603.78 63.95 604.62 64.16 605.49 C70.2 632.84 70.12 663.71 63.56 690.94 C63.32 691.96 63.08 692.98 62.83 694.04 C57.09 717.82 49.2 740.9 38.56 762.94 C38.23 763.63 37.9 764.33 37.55 765.05 C35.31 769.72 32.97 774.35 30.56 778.94 C29.99 780.03 29.99 780.03 29.4 781.15 C22.18 794.8 14.08 807.22 3.86 818.85 C2.37 820.82 2.37 820.82 2.61 822.97 C3.83 825.5 5.36 826.92 7.44 828.81 C18.92 839.99 28.4 853.61 35.56 867.94 C36.22 867.94 36.88 867.94 37.56 867.94 C46.85 850.53 55.44 832.92 63.56 814.94 C64.29 813.34 64.29 813.34 65.02 811.72 C72.43 795.34 79.16 778.73 85.56 761.94 C85.93 760.98 86.3 760.03 86.68 759.05 C101.05 721.52 113.57 680.09 113.77 639.6 C113.77 638.64 113.78 637.68 113.78 636.69 C113.79 634.67 113.8 632.65 113.8 630.63 C113.81 627.6 113.84 624.58 113.88 621.56 C113.96 605.37 112.82 589.21 107.88 573.69 C107.49 572.46 107.49 572.46 107.1 571.21 C100.19 549.96 88.11 532.1 67.88 521.62 C59.57 517.56 35.31 507.35 27.81 514.64 Z M36.56 562.94 C32.81 567.12 32.05 570.37 32.29 575.77 C32.65 578.64 33.61 581.21 34.56 583.94 C35.22 589.89 33.9 594.08 30.56 598.94 C28.67 600.89 26.78 602.32 24.56 603.94 C23.23 604.94 21.89 605.94 20.56 606.94 C20.8 607.77 21.04 608.61 21.29 609.46 C23.12 616.43 24.52 622.16 21.56 628.94 C18.66 633.72 15.94 635.33 10.94 637.75 C7.04 639.69 7.04 639.69 4.36 642.96 C3.91 644.47 3.5 645.98 3.14 647.51 C1.17 655.75 -3.29 662.39 -10.44 666.94 C-15.62 669.38 -20.5 670.85 -26.19 671.38 C-28.44 671.69 -28.44 671.69 -30.44 672.94 C-32.51 676.07 -34.08 679.3 -35.72 682.68 C-40.49 691.73 -50.16 696.42 -59.44 699.94 C-61.86 700.33 -64.3 700.65 -66.75 700.88 C-73.15 701.52 -75.82 703.4 -80.24 707.91 C-90.35 717.26 -107.34 719.08 -120.5 718.81 C-127.69 718.77 -131.73 719.42 -137.12 724.44 C-143.34 729.86 -151.92 730.08 -159.75 729.69 C-164.38 729.47 -164.38 729.47 -168.46 731.27 C-169.54 732.48 -170.59 733.72 -171.61 734.99 C-179.03 742.9 -190.88 744.95 -201.19 745.31 C-209.32 745.21 -216.65 743.11 -224.04 739.76 C-226.77 738.82 -228.05 738.95 -230.81 739.69 C-231.52 739.87 -232.23 740.05 -232.96 740.23 C-234.9 740.78 -236.83 741.38 -238.75 742 C-249.5 744.74 -263.22 743.91 -273.04 738.51 C-275.93 736.61 -278.67 734.72 -281.1 732.24 C-284.87 730.14 -288.66 730.85 -292.88 731.06 C-304.66 731.34 -314.22 728.72 -323.43 721.05 C-326.54 717.78 -328.78 714.09 -331.03 710.2 C-332.24 707.82 -332.24 707.82 -334.44 706.94 C-336.46 706.81 -338.48 706.71 -340.5 706.62 C-349.71 705.96 -357.23 702.96 -363.44 695.94 C-366.84 690.76 -368.64 684.82 -370.44 678.94 C-381 679.12 -390.7 683.98 -398.44 691.06 C-407.84 701.32 -410.84 714.55 -410.75 728.06 C-410.74 728.98 -410.74 729.9 -410.73 730.85 C-410.42 748.34 -404.91 764.66 -397 780.12 C-396.48 781.17 -396.48 781.17 -395.95 782.23 C-392.23 789.19 -387.77 793.41 -380.19 795.88 C-378.13 796.44 -376.07 796.98 -374 797.5 C-372.31 797.94 -372.31 797.94 -370.59 798.38 C-348.28 803.9 -325.35 806.68 -302.44 807.94 C-301.75 807.98 -301.06 808.02 -300.35 808.06 C-284.28 809.01 -268.22 809.18 -252.12 809.19 C-251.44 809.19 -250.76 809.19 -250.06 809.19 C-204.15 809.22 -158.02 807.61 -112.44 801.94 C-111.69 801.84 -110.93 801.75 -110.16 801.65 C-75.22 797.26 -41.72 788.81 -8.16 778.29 C-6.38 777.73 -4.59 777.18 -2.81 776.62 C6.24 773.8 15.23 770.84 24.06 767.4 C24.76 767.14 25.46 766.88 26.18 766.62 C30.96 764.68 33.12 762.5 35.56 758 C36.32 756.1 37.08 754.19 37.75 752.25 C38.68 749.59 39.72 746.98 40.75 744.36 C50.45 719.59 58.08 694.36 61.56 667.94 C61.7 666.95 61.83 665.96 61.96 664.94 C65.67 631.63 60.44 592.94 41.32 564.86 C40.74 564.23 40.16 563.59 39.56 562.94 C38.57 562.94 37.58 562.94 36.56 562.94 Z M120.56 613.94 C120.55 614.84 120.53 615.75 120.52 616.68 C119.94 648.76 116.41 679.27 108.11 710.41 C107.42 713.16 107.42 713.16 107.56 716.94 C111.66 715.28 114.59 712.36 117.75 709.38 C118.33 708.83 118.9 708.29 119.5 707.73 C120.66 706.64 121.82 705.55 122.97 704.45 C124.32 703.17 125.67 701.9 127.03 700.64 C136.28 691.75 143.72 681.25 151.19 670.88 C151.71 670.16 152.23 669.45 152.77 668.71 C153.49 667.69 153.49 667.69 154.23 666.65 C154.65 666.06 155.08 665.46 155.52 664.84 C156.82 662.47 157.35 660.64 157.56 657.94 C156.65 655.7 156.65 655.7 155.05 653.64 C154.49 652.83 153.92 652.03 153.33 651.2 C152.71 650.35 152.08 649.5 151.44 648.62 C150.8 647.74 150.17 646.86 149.52 645.96 C143.97 638.31 138.14 630.9 132.04 623.69 C131.01 622.46 129.99 621.22 129 619.97 C128.48 619.34 127.97 618.7 127.44 618.05 C126.98 617.48 126.52 616.9 126.05 616.31 C124.28 614.68 122.91 614.33 120.56 613.94 Z M-398.95 634.65 C-412.51 639.87 -424.66 646.02 -435.44 655.94 C-435.93 656.39 -436.42 656.83 -436.93 657.3 C-456.85 675.7 -470.53 701.09 -471.66 728.49 C-472.56 763.38 -459.14 794.44 -438.44 821.94 C-437.8 822.8 -437.16 823.67 -436.5 824.56 C-425.45 838.82 -411.86 852.04 -397.25 862.62 C-395.26 864.07 -393.31 865.55 -391.35 867.03 C-361.09 889.71 -325.64 907.56 -289.88 919.75 C-288.79 920.12 -288.79 920.12 -287.68 920.5 C-283.59 921.82 -283.59 921.82 -279.44 920.94 C-279.37 920.31 -279.3 919.68 -279.23 919.04 C-277.65 905.15 -275.6 891.56 -272.44 877.94 C-279.29 874.72 -286.29 872.17 -293.44 869.69 C-323.37 859.04 -349.52 843 -372.44 820.94 C-373.56 819.9 -373.56 819.9 -374.71 818.85 C-398.27 796.61 -415.59 763.75 -416.91 731.07 C-417.09 717.06 -414.21 703.73 -406.44 691.94 C-405.57 690.58 -405.57 690.58 -404.69 689.19 C-398.35 682.85 -390.51 678.66 -382.44 674.94 C-383.14 674.28 -383.84 673.62 -384.56 672.94 C-390.45 667.01 -395.09 661.14 -395.67 652.54 C-395.52 640.64 -395.52 640.64 -394.44 634.94 C-396.47 633.64 -396.47 633.64 -398.95 634.65 Z M161.56 666.94 C157.33 672.12 153.23 677.36 149.27 682.76 C143.46 690.63 137.37 697.9 130.56 704.94 C129.69 705.86 128.82 706.78 127.92 707.73 C122.42 713.43 116.72 718.39 110.33 723.06 C102.69 728.77 100.43 735.77 97.69 744.62 C85.35 782.88 68.36 819.84 50.18 855.62 C49.35 857.25 49.35 857.25 48.5 858.92 C47.45 861 46.38 863.08 45.31 865.15 C41.34 872.94 39.88 877.81 42.38 886.38 C51.18 919.6 48.9 959.23 32.4 989.89 C26.59 999.53 19.54 1007.28 8.56 1010.94 C-6.82 1012.27 -17.56 1007.86 -29.44 997.94 C-54.5 975.94 -67.25 941.92 -73.44 909.94 C-73.6 909.1 -73.76 908.27 -73.93 907.41 C-79.06 880.04 -80.78 844.53 -65.62 820.06 C-59.73 811.87 -52.54 807.07 -42.94 804.19 C-29.78 802.87 -20.47 806.82 -9.44 813.94 C-8.74 814.53 -8.05 815.11 -7.34 815.72 C-5.53 817.14 -5.53 817.14 -3.41 816.85 C7.54 811.79 15.59 793.66 21.69 783.69 C22.27 782.74 22.27 782.74 22.87 781.77 C25.07 778.12 25.07 778.12 25.56 773.94 C18.82 775.32 12.4 777.18 5.87 779.35 C3.79 780.03 1.7 780.72 -0.38 781.4 C-1.46 781.75 -2.54 782.11 -3.66 782.47 C-24.08 789.14 -44.42 795.38 -65.44 799.94 C-66.51 800.17 -67.58 800.41 -68.69 800.66 C-118.23 811.38 -170.77 814.09 -221.35 814.11 C-223.38 814.11 -225.41 814.11 -227.43 814.12 C-231.65 814.12 -235.87 814.12 -240.09 814.12 C-244.35 814.12 -248.61 814.13 -252.87 814.14 C-276.47 814.22 -299.93 814.25 -323.44 811.94 C-324.22 811.86 -325.01 811.79 -325.82 811.71 C-329.96 811.3 -334.07 810.78 -338.19 810.19 C-339.36 810.02 -340.53 809.86 -341.73 809.69 C-353.09 808.01 -364.18 805.38 -375.26 802.42 C-377.55 801.83 -377.55 801.83 -380.44 801.94 C-378.25 806.7 -374.98 810.12 -371.44 813.94 C-370.68 814.77 -369.91 815.59 -369.13 816.45 C-346.3 840.28 -316.18 855.93 -285.44 866.94 C-284.71 867.2 -283.99 867.46 -283.25 867.72 C-275.47 870.69 -275.47 870.69 -267.44 869.94 C-265.88 868.24 -265.88 868.24 -264.79 866 C-264.12 864.79 -264.12 864.79 -263.44 863.55 C-262.99 862.69 -262.53 861.83 -262.06 860.94 C-261.1 859.19 -260.12 857.45 -259.15 855.7 C-258.45 854.45 -258.45 854.45 -257.74 853.18 C-255.36 849.08 -252.6 845.45 -249.44 841.94 C-248.63 841.01 -248.63 841.01 -247.81 840.07 C-240.18 831.84 -230.93 827.02 -219.69 826.56 C-205.95 826.87 -195.64 834.31 -186.38 843.94 C-166.25 867.09 -156.14 897.92 -152.44 927.94 C-152.33 928.83 -152.21 929.72 -152.1 930.63 C-148.8 962.37 -151.77 999.8 -170.38 1026.74 C-175.54 1033.1 -181.76 1036.38 -189.44 1038.94 C-207.44 1040.31 -222.31 1034.56 -236.11 1022.98 C-236.88 1022.31 -237.64 1021.63 -238.44 1020.94 C-239.45 1020.07 -239.45 1020.07 -240.49 1019.18 C-260.91 1000.31 -271.1 969.64 -276.58 943.12 C-276.73 942.44 -276.88 941.76 -277.03 941.06 C-277.44 938.94 -277.44 938.94 -277.67 936.55 C-277.99 934.09 -278.37 932.18 -279.44 929.94 C-282.18 927.86 -285.18 926.97 -288.44 925.94 C-290.25 925.26 -292.06 924.58 -293.86 923.89 C-295.83 923.18 -297.79 922.46 -299.75 921.75 C-340.1 906.79 -382.42 885.84 -414.05 856.05 C-415.4 854.73 -415.4 854.73 -417.44 854.94 C-417.79 865.23 -416.74 875.4 -415.75 885.62 C-415.66 886.55 -415.57 887.47 -415.48 888.43 C-412.34 920.87 -406.56 952.64 -398.31 984.19 C-397.99 985.44 -397.66 986.7 -397.33 987.99 C-394.64 999.44 -394.64 999.44 -387.43 1008.15 C-386.21 1008.76 -384.99 1009.33 -383.75 1009.88 C-383.06 1010.2 -382.37 1010.52 -381.66 1010.85 C-326.65 1035.77 -264.01 1043.56 -204.44 1048.94 C-203.4 1049.04 -202.36 1049.14 -201.29 1049.24 C-130.82 1055.97 -58.9 1046.8 8.56 1025.94 C9.23 1025.73 9.9 1025.52 10.59 1025.31 C80.4 1003.64 154.34 971.37 209.56 922.94 C210.51 922.12 211.45 921.3 212.43 920.45 C222.33 912.63 222.33 912.63 227.71 901.97 C227.72 901.16 227.73 900.35 227.74 899.52 C227.75 898.6 227.76 897.68 227.78 896.73 C227.79 895.72 227.79 894.71 227.8 893.68 C227.82 892.11 227.82 892.11 227.83 890.51 C228 867.31 227.78 844.81 223.56 821.94 C223.35 820.73 223.13 819.53 222.91 818.28 C219.69 800.46 215.12 783.16 209.56 765.94 C209.25 764.95 208.93 763.96 208.6 762.95 C199.12 733.8 186.38 705.52 171 679 C170.62 678.34 170.24 677.68 169.85 677 C167.48 673.04 164.91 670.04 161.56 666.94 Z M-58.91 819.95 C-74.91 840.86 -72.49 875.19 -69.31 900.05 C-64.35 933.22 -52.3 966.66 -28.44 990.94 C-27.38 992.02 -27.38 992.02 -26.29 993.12 C-18.27 1000.77 -8.37 1006.34 2.86 1006.22 C10.37 1005.43 16.61 1001.25 21.55 995.7 C37 975.06 41.01 949.84 40.88 924.62 C40.87 923.55 40.87 923.55 40.87 922.44 C40.71 884.83 25.88 855.97 0.12 829.19 C-11.32 818.07 -23.51 809.45 -39.79 809.6 C-47.57 810.32 -53.7 814.24 -58.91 819.95 Z M-245.64 845.74 C-249.78 850.8 -253.12 856.33 -256.44 861.94 C-257.13 863.07 -257.13 863.07 -257.83 864.23 C-273.16 889.7 -276.8 920.02 -269.94 948.94 C-262.38 978.09 -248.42 1010.59 -221.56 1026.66 C-210.25 1032.66 -198.82 1035.95 -186.19 1032.29 C-176.32 1028.1 -171.03 1018.5 -167.04 1009.07 C-151.91 971.07 -153.69 923.76 -168.31 885.88 C-169.33 883.55 -170.37 881.24 -171.44 878.94 C-171.72 878.31 -172 877.67 -172.29 877.02 C-179.97 859.78 -191.63 841.16 -209.78 833.81 C-223.68 829.23 -235.97 835.5 -245.64 845.74 Z M218.25 923.25 C216.97 924.36 215.69 925.47 214.41 926.58 C212.57 928.18 210.74 929.78 208.91 931.39 C195.51 943.13 181.03 953.12 165.56 961.94 C164.89 962.32 164.22 962.7 163.53 963.1 C151.74 969.81 139.76 976.13 127.69 982.33 C125.59 983.41 123.5 984.49 121.4 985.58 C92.73 1000.43 63.09 1013.4 32.56 1023.94 C31.42 1024.34 30.29 1024.73 29.11 1025.15 C-16.8 1041.08 -64.12 1050.45 -112.44 1054.94 C-113.48 1055.04 -114.53 1055.15 -115.61 1055.25 C-128.51 1056.38 -141.5 1056.18 -154.44 1056.19 C-156.41 1056.19 -156.41 1056.19 -158.42 1056.19 C-180.24 1056.18 -201.76 1055.38 -223.44 1052.94 C-224.6 1052.81 -224.6 1052.81 -225.78 1052.68 C-337.05 1040.47 -337.05 1040.47 -381.73 1016.14 C-384.74 1014.8 -385.43 1014.99 -388.44 1015.94 C-382.99 1031.13 -377.36 1046.1 -370.48 1060.71 C-369.48 1062.84 -368.51 1064.99 -367.55 1067.14 C-356.52 1091.64 -342.08 1114.86 -325.44 1135.94 C-324.72 1136.84 -324.01 1137.75 -323.28 1138.68 C-317.63 1145.71 -311.65 1152.4 -305.44 1158.94 C-304.92 1159.48 -304.41 1160.03 -303.87 1160.59 C-286.99 1178.29 -271.8 1184.29 -248 1187.44 C-247.24 1187.54 -246.49 1187.64 -245.71 1187.75 C-226.34 1190.37 -206.9 1192.27 -187.44 1193.94 C-186.17 1194.05 -184.9 1194.16 -183.6 1194.27 C-165.59 1195.76 -147.55 1196.38 -129.5 1197.06 C-128.33 1197.11 -127.16 1197.15 -125.96 1197.2 C-105.03 1197.99 -84.11 1198.5 -63.19 1197.19 C-62.5 1197.14 -61.81 1197.1 -61.1 1197.06 C0.33 1193.14 64.01 1174.26 119.56 1147.94 C120.98 1147.27 120.98 1147.27 122.43 1146.58 C125.38 1145.17 128.32 1143.75 131.25 1142.31 C132.15 1141.88 133.04 1141.45 133.97 1141.01 C144.42 1135.81 151.39 1129.87 157.56 1119.94 C158.09 1119.09 158.63 1118.23 159.18 1117.36 C193.5 1061.2 228.93 985.75 226.56 917.94 C223.07 917.94 220.77 921.03 218.25 923.25 Z M131.55 1148.36 C71.77 1178.2 2.45 1199.26 -64.44 1203.06 C-65.16 1203.1 -65.88 1203.15 -66.62 1203.19 C-94.3 1204.76 -121.78 1203.38 -149.44 1201.94 C-150.42 1201.89 -151.4 1201.84 -152.42 1201.78 C-186.64 1200 -220.67 1197.01 -254.57 1191.88 C-258.56 1191.29 -262.39 1190.76 -266.44 1190.94 C-216.2 1232.15 -146.06 1243.02 -83.77 1251.9 C-62.49 1254.94 -41.36 1257.95 -20.44 1262.94 C-19.75 1263.1 -19.07 1263.26 -18.36 1263.43 C-9.09 1265.63 0.18 1267.88 9.43 1270.18 C17.44 1272.11 25.84 1273.89 33.37 1269.58 C41.38 1263.57 47.89 1255.73 54.08 1247.93 C57.72 1243.54 61.64 1239.43 65.55 1235.28 C69.03 1231.58 72.44 1227.85 75.75 1224 C78.19 1221.22 80.73 1218.52 83.25 1215.81 C88.49 1210.18 93.52 1204.39 98.5 1198.53 C100.56 1196.1 102.64 1193.7 104.75 1191.32 C112.81 1182.18 120.28 1172.7 127.56 1162.94 C128.37 1161.86 128.37 1161.86 129.2 1160.76 C130.76 1158.68 132.32 1156.59 133.88 1154.5 C134.35 1153.87 134.82 1153.23 135.31 1152.58 C137.76 1149.58 137.76 1149.58 138.56 1145.94 C135.76 1145.94 134.05 1147.09 131.55 1148.36 Z " fill="#000000" transform="translate(606.4375,2.0625)"/>
<path d="M0 0 C7.24 4.54 10.82 13.16 13.56 21 C14.88 29.35 15.35 39.68 11.24 47.28 C8.46 51 5.05 54 0.89 56.08 C-5.1 56.14 -9.5 55.07 -14.11 51.08 C-22.51 42.15 -25.22 31.12 -25.11 19.08 C-24.59 11.99 -21.73 6.44 -17.11 1.08 C-11.69 -3.02 -6.04 -2.64 0 0 Z " fill="#000000" transform="translate(257.109375,371.921875)"/>
<path d="M0 0 C8.7 5.56 13.07 14.69 15.44 24.44 C15.65 27.13 15.77 29.69 15.75 32.38 C15.74 33.43 15.74 33.43 15.74 34.51 C15.57 42.15 13.89 47.82 8.44 53.44 C4.19 55.98 0.27 56.1 -4.56 55.44 C-13.16 51.22 -17.11 43.96 -20.58 35.4 C-23.76 25.81 -23.6 15.73 -19.56 6.44 C-14.78 -1.28 -8.56 -3.75 0 0 Z " fill="#000000" transform="translate(492.5625,314.5625)"/>
<path d="M0 0 C1.88 0 1.88 0 4 1 C6.68 5.78 7.59 9.45 7 15 C4.98 21.78 1.26 25.59 -4.78 29 C-12.05 32.19 -21.2 33.1 -28.88 31.06 C-33.92 29.05 -36.88 25.3 -40 21 C-40.64 20.13 -41.28 19.27 -41.94 18.38 C-43.25 15.45 -43.22 13.17 -43 10 C-39.66 10.29 -38.36 10.57 -36.16 13.18 C-35.61 14.07 -35.06 14.96 -34.5 15.88 C-32.09 19.77 -30.21 22.07 -26 24 C-18.33 25.2 -10.66 24.09 -4 20 C-1.27 17.44 -1.01 16.16 -0.74 12.36 C-0.77 11.01 -0.82 9.66 -0.88 8.31 C-0.95 5.87 -0.99 3.44 -1 1 C-0.67 0.67 -0.34 0.34 0 0 Z " fill="#000000" transform="translate(405,383)"/>
<path d="M0 0 C3.01 0.32 4.59 0.59 6.77 2.76 C16.94 17.78 24.91 36.68 26 55 C25.34 55.99 24.68 56.98 24 58 C22.68 57.67 21.36 57.34 20 57 C19.82 56.32 19.64 55.64 19.45 54.94 C12.7 29.65 12.7 29.65 0.44 6.71 C-1 4 -1 4 -0.72 1.64 C-0.48 1.1 -0.25 0.56 0 0 Z " fill="#000000" transform="translate(912,421)"/>
<path d="M0 0 C0.99 0.33 1.98 0.66 3 1 C2.44 5.47 0.71 8.33 -1.75 12.06 C-9.3 24.01 -12.53 36.34 -15.51 50.04 C-16 52 -16 52 -17 54 C-18.65 53.67 -20.3 53.34 -22 53 C-23.56 36.91 -16.39 19.14 -7 6.26 C-2.89 1.44 -2.89 1.44 0 0 Z " fill="#000000" transform="translate(67,578)"/>
<path d="M0 0 C0.99 0.66 1.98 1.32 3 2 C2.65 8.63 2.04 14.05 -1 20 C-2.32 20 -3.64 20 -5 20 C-6.38 16.2 -5.65 13.31 -4.75 9.44 C-4.5 8.3 -4.24 7.17 -3.98 6 C-3.03 3.1 -2.35 1.86 0 0 Z " fill="#000000" transform="translate(76,607)"/>
<path d="M0 0 C2.48 0.28 3.65 0.56 5.23 2.53 C7.73 7.68 8.74 12.29 9 18 C7.35 18.33 5.7 18.66 4 19 C3.16 16.94 2.33 14.88 1.5 12.81 C1.04 11.66 0.57 10.52 0.09 9.33 C-0.91 6.27 -1.33 4.18 -1 1 C-0.67 0.67 -0.34 0.34 0 0 Z " fill="#000000" transform="translate(901,442)"/>
</g>
</svg>
