<?xml version='1.0' encoding='UTF-8'?>
<svg xmlns="http://www.w3.org/2000/svg" xmlns:xlink="http://www.w3.org/1999/xlink" width="297" height="210" viewBox="0 0 297 210">
  <rect x="0" y="0" width="297" height="210" fill="white"/>
  <g transform="translate(74.5,31.0) scale(0.20555555555555555)"><g id="Слой_2">
	<path d="M688.6,400.1c-8.7-24-35.8-36.6-58.4-44.9c-22.3-8.2-45.5-9.6-69.3-10.4c-5.9-0.2-11.5-0.6-17-1c-2.2-0.2-4.5-0.3-6.7-0.4   c-5.4-19.9-10.5-40-15.4-60.3c4.5,0.3,9.1,0.5,13.6,0.5c28.5,0,57-5.7,83.3-16.9c8.4-3.6,19.1-8.7,27.3-17.1   c8.8-9,13.3-20.7,12.1-31.4c-0.1-0.5-0.2-1.1-0.3-1.6c1-19.9-10.4-37.5-23-53.5c-29.4-37.5-59.1-66.7-90.8-89.2   c-37.1-26.3-77.8-43.4-117.5-49.3c-55-8.2-113,3.7-163.4,33.5c-29.9,17.7-56.6,41.5-77.7,69.2c-5,4.8-8.8,10.9-9.9,18.7   c-1.9,13.9,6.1,28.4,23.3,41.7c40.9,31.8,96,46,147.4,37.9c1.6-0.2,3-0.8,4.3-1.7c-1.5,9.1-3.5,18.1-5.5,27l-13.3,60   c-8.7-8.2-18.8-15.5-29.9-21.3c-26.9-14.2-59.8-20.5-95.3-18.5c-45.6,2.7-85.2,19-111.5,46.1c-25.8,26.5-40.6,65.9-40.8,108.1   c-0.1,16.6,2.1,29.5,6.9,40.8c7.2,17,22.1,33.2,40.1,33.2c1.3,0,2.6-0.1,3.9-0.3c3.1-0.4,6.2-0.9,9.3-1.3l-22.1,74.7   c-2.8,9.3-6.9,23.4-1.2,35.5c7.4,15.8,27.1,19.9,41.3,21.6c23.1,2.8,46.4,4.2,69.7,4.2c16.8,0,33.5-0.7,50.2-2.2   c22.3-1.9,45.6-5.5,64.8-18.2c18-11.9,29.1-29.9,35.2-48.7c19.6,12.1,42.5,18.6,65.5,18.6c0,0,0.1,0,0.1,0   c0.2,12.8,2,25.2,5.5,36.7c2.2,7.2,7.1,13.1,13.7,16.8c39.1,21.8,84.3,33.3,129.1,33.3c17,0,34.1-1.7,50.7-5   c13.5-2.7,30.4-7.5,40.6-20.5c6.2-7.8,9-17.2,11.1-26.3c11.9-50.8,6.9-99.7-14.7-145.6c10.9-0.1,20-4.5,26.7-13   C693.2,443.9,694.5,416.4,688.6,400.1 M509.6,229.3c-0.6-3-1.2-5.9-1.9-8.9C509.1,223.2,509.7,226.3,509.6,229.3 M268.1,66.3   c48.5-28.7,104.2-40.1,157-32.2c38.3,5.7,77.5,22.2,113.4,47.6c30.9,21.9,60,50.5,88.8,87.3c5.7,7.3,11.2,14.9,15.1,22.8   c-4.7-4.1-9.8-7.6-14.7-10.6c-87-54.3-191.3-79.9-293.5-72.1c-38.5-3.4-78.3-6.9-117.1,2.3c-2.1,0.5-4.6,1.2-7.5,2.1   C226.8,95.2,246.5,79.1,268.1,66.3 M347.5,181.2c-5.8,7.9-6.2,18.5-1.2,32.3c0.3,0.7,0,1.3-0.2,1.5c-0.2,0.3-0.6,0.8-1.3,0.9   c-48.8,7.7-101.2-5.7-140-35.9c-9.9-7.8-21.4-19.7-19.6-32.8c0.3-2,0.8-3.8,1.6-5.6c0,0,0,0,0,0c1.9-2.8,4-5.5,6-8.1   c8-7.4,20.1-11.1,26.5-12.6c37.4-8.9,76.6-5.4,114.4-2.1c0.3,0,0.5,0,0.8,0c100.3-7.8,202.6,17.3,288,70.6   c12,7.5,24.4,16.9,25.9,29.9c0.9,7.8-2.6,16.6-9.3,23.5c-6.9,7.1-16.1,11.5-24.2,14.9c-30.1,12.7-63,18-95.6,15.4   c-2.2-9.4-4.3-18.7-6.4-28.1c3.2-3.1,5.3-7.2,6.1-12c1.2-7.5-1-15.8-5.6-21.8c-2.9-3.8-6.5-6.7-10.4-9.2c-0.6-0.6-1.4-1.1-2.3-1.3   c-5.6-3.1-11.6-5.4-17.3-7.3c-31.6-10.5-64.5-18.1-97.6-22.4C373.7,169.6,356.5,168.9,347.5,181.2 M353.2,191   c0.1,3.7,0,7.5-0.2,11.2C352.2,197.8,352.3,194.1,353.2,191 M104,489.4c-14.6,1.9-27.8-12.7-33.9-27.1c-4.2-10-6.2-21.8-6.1-37   c0.1-39.7,14-76.6,38.1-101.4c24.6-25.3,61.9-40.6,105.1-43.1c4.2-0.2,8.3-0.4,12.5-0.4c28.9,0,55.6,6.1,77.8,17.7   c28.8,15.2,49.9,40,57.8,68c3.4,11.9,3.1,21.6-0.7,28.8c-4.2,8-13,13.3-21.7,18.1c-35.1,19.2-72.3,35.4-110.5,48.2   C181,475.2,141.2,484.6,104,489.4 M311.8,605.2c-17.3,11.5-39.2,14.8-60.2,16.6c-39.2,3.4-78.8,2.7-117.9-2   c-12.9-1.5-28.3-4.8-33.7-16.1c-3.8-8.1-1.3-18.1,1.7-28.6l23.4-79.2c32-5.4,65.6-13.9,100.2-25.5c33.7-11.3,66.5-25.2,97.9-41.4   c11.9,29.3,23.8,59.5,25.2,91.3c0.5,10.1-0.4,21.3-3,32.4c-0.3,0.2-0.6,0.4-0.8,0.7c-0.9,1.3-1,2.9-0.5,4.3   C339,576.3,328.9,593.9,311.8,605.2 M355,554.8c2.7-11.9,3.7-23.9,3.2-34.7c-1.5-33.7-14.4-66.4-26.3-95.5c1.8-1,3.7-1.9,5.5-2.9   c10-5.5,20.2-11.7,25.6-22.1c5-9.5,5.5-21.6,1.4-36c-4.5-16.1-13.1-31.2-24.6-44.3l14.7-66.3c4.9-22,10.3-46.8,7.7-71.2   c5.2-2,12.5-2.3,22.4-1c32.5,4.2,64.7,11.6,95.7,22c5.2,1.7,10.4,3.6,15.1,6.2c4.7,23.3,9.8,46.8,15.4,70.1c0,0.1,0.1,0.3,0.1,0.4   c5.1,21.3,10.5,42.5,16.2,63.5c-12-0.4-24.1,0.2-37.1,3.8c-27.9,7.8-50.1,24.5-60.8,46c-7.5,15.1-9.3,36,3.8,49   c7.1,7,17,9.9,25.7,11.7c2.8,0.6,5.6,1.1,8.3,1.6c-20.3,27.1-34,52.5-41.7,77.3c-4.2,13.6-6.6,27.5-7.2,41   C395.8,573.4,373.7,566.9,355,554.8 M659.2,616c-1.9,7.9-4.3,16.2-9.2,22.5c-8.3,10.5-23,14.6-34.9,17   c-58.1,11.7-121.2,1.8-173.2-27.2c-4.4-2.5-7.7-6.5-9.1-11.2c-3.7-12-5.4-25-5.2-38.6c0-0.1,0.1-0.3,0.1-0.4c0-0.1-0.1-0.2-0.1-0.3   c0.3-13.9,2.6-28.3,7-42.5c7.9-25.4,21.8-50.5,43.4-78.6c7.1,0.8,14.2,1.4,21.4,1.5c12.3,0.2,24.5-0.6,36.4-1.4   c9.1-0.6,18.6-1.2,27.8-1.4c28.3-0.4,54.1,1.9,75.6,6.5c-0.3,1.1-0.2,2.4,0.4,3.5C665.3,513.2,671.7,562.4,659.2,616 M673.1,453.6   c-4,5-9.1,8-15.1,9c-0.2-3.6-2.6-6.7-6.2-7.6c-22.8-6.2-50.1-9.4-81.5-9.4c-2.3,0-4.6,0-7,0c-9.5,0.1-19,0.8-28.3,1.4   c-11.7,0.8-23.8,1.6-35.6,1.4c-6.6-0.1-13.2-0.6-19.8-1.4c-0.1-0.1-0.1-0.2-0.2-0.3c-1.5-1.2-3.6-1.3-5.2-0.5   c-4.5-0.7-9.1-1.4-13.5-2.4c-7.7-1.7-15.6-3.9-20.9-9.1c-9.6-9.5-7.7-26.2-1.9-37.8c9.5-19,29.5-33.9,54.8-41   c14-3.9,26.8-4,40.6-3.2c0.1,0,0.2,0,0.3,0c0.1,0,0.1,0,0.2,0c3.2,0.2,6.4,0.4,9.7,0.6c5.6,0.4,11.3,0.8,17.3,1   c23.9,0.8,45.3,2.1,66.3,9.8c20.6,7.6,45.2,18.8,52.6,39.1C684.6,417.3,683.2,440.9,673.1,453.6"/>
</g>
</g>
</svg>
