<?xml version='1.0' encoding='UTF-8'?>
<svg xmlns="http://www.w3.org/2000/svg" xmlns:xlink="http://www.w3.org/1999/xlink" width="297" height="210" viewBox="0 0 297 210">
  <rect x="0" y="0" width="297" height="210" fill="white"/>
  <g transform="translate(74.5,31.0) scale(0.20555555555555555)"><path d="M579,360.6c1.8-10.8,4.3-25.5-2.2-38.1c-7.2-13.9-24.5-21.1-39.5-16.2c-10,3.2-18.2,11.9-21.4,22.5c-0.1,0.2-0.1,1-1.2,0.9  c-0.7,0-1.1-0.3-1.3-1c-0.4-1.4-0.5-2.9-0.5-4.3c0.3-5.5,3-10.9,5.7-16.6c0.7-1.4,1.4-2.8,2-4.1c17.2-36.9,12.8-81.9-11.2-114.7  c-8.9-12.1-18.3-18.3-28.7-18.7c-7.3-0.3-14.2,2.8-18.3,8.3c-5.6,7.4-3.9,14.8-2.5,20.7c0.4,2,0.9,3.8,1,5.5  c0.2,2.1-0.7,4.7-1.9,5.8c-0.4,0.3-0.5,0.3-0.6,0.3c-0.6-0.1-1.2-0.1-1.7-0.1c-0.7,0.1-1.7,0-2.9-1.1c-2.2-2.1-3.7-6.5-3.4-10.2  c0.2-2.5,0.7-5.1,1.3-7.9c1.2-5.7,2.4-11.6,1-17.8c-0.2-0.7-0.4-1.3-0.7-1.9c-5.3-10.9-12.5-14.6-17.7-15.8  c-6.5-1.5-13.4,0.2-19,4.6c-1.2,0.9-2.4,0.8-3.1,0.6c-1.2-0.3-2.2-1.1-2.8-2.2l-9.4-20.1c-1.6-3.4-4.6-6-8.1-7.1  c-3.6-1.1-7.5-0.7-10.7,1.2l-0.7-0.4c0.9-3.9,1.4-7.5,1.4-10.9c0-11.2-5.5-21.3-14-25.6c-5.4-2.7-12.3-2.7-18,0  c-2.1,1-4.3,0.3-5.2-1.5c-3.3-6.7-10.9-10-18-7.8l-1.7,0.5c-2.4,0.7-4.9,1.4-7.3,2.6c-2.8,1.3-6.3,1-9-0.8c-0.6-0.4-1.2-0.7-1.9-0.8  c-11-2.4-19.5,7.9-21.9,18.9c-0.4,1.7-0.7,3.4-1,5.1c-1,5.6-1.9,10.9-5.2,13.8c-3.2,2.9-8.6,3.2-14.3,3.6  c-9.3,0.6-22.1,1.5-26.9,16.3c-2.8,8.6-1.1,18.5,4.6,26.4c4,5.5,6.8,16.6,4.5,23.1c-1.1,3.1-2.9,3.9-4.2,4.3  c-4.4,1.2-8.4-2.4-14.6-8.4c-7-6.9-15.8-15.5-28.2-11.8c-5.7,1.7-10.5,5.8-13.4,11.6c-4.5,9-4.3,17.9-4,26.5  c0.1,3.9,0.2,7.6-0.1,11.1c-0.3,3.7-1.4,7.2-3,10.1c-1.9,3.3-2.3,7.3-1.2,11c1.1,3.5,3.5,6.4,6.7,8c5.9,3,10.1,8.5,10.9,14.4  c0.3,2.2,0.3,4.6,0.2,7.1c0,2.1-0.1,4.3,0.1,6.4c1,13.3,8.9,26.4,22.5,37.1c6.8,5.3,14.3,9.6,21.4,13.8c4.3,2.5,8.7,5,12.9,7.7  c6.9,4.5,14.3,10.2,16.9,18.7c1.3,4.3,0.8,8.7-1.3,12c-6.7,10.1-24.1,4.2-33.2-0.9l-0.6-0.4c-14.3-7.9-32-17.8-47.8-7.3  c-7.3,4.8-11.9,13.3-12.3,22.6c-0.6,13.5,5.8,26.3,19.5,38.9c3.7,3.4,9.1,5.7,14.3,7.8c3.5,1.5,10.1,4.2,10.6,6.2  c-4.5,12.3-4.6,21.4-0.3,27.7c6.3,9.3,19.4,9.7,32,10.1c8.4,0.3,17.1,0.5,21.5,3.5c5,3.4,12.2,2.6,19.2,1.9  c3.5-0.4,8.5-0.9,10.9-0.3c-0.2,0.9-0.7,2.2-1.1,3.2c-2.3,6.4-6.6,18.4,7.6,27.7c16.9,11.2,38.8,8.5,60.1,6  c10-1.2,20.3-2.4,29.5-2.1c2.8,0.1,5.3,1.6,6.7,4.1c1.2,2.2,1.2,4.7-0.1,6.9c-2.1,3.6-3.4,7.6-3.8,11.5c-1.3,12.2,5.9,24.7,17,29.8  c11.9,5.4,24.8,2.1,36.2-0.9c2.6-0.7,5.2-1.4,7.8-1.9c9.9-2.2,20.3-0.5,25.2,4c2.9,2.6,4,6.2,3.4,11c-0.6,5.1,0.8,10.2,4.1,14  c7.6,9.1,17.7,4.1,23.8,1.1l2.2-1.1c7.4-3.5,16.9-3.1,25.3,1.2c8.4,4.2,14.4,11.5,16,19.6c0.5,2.6,2.8,4.4,5.4,4.4  c0.4,0,0.7,0,1.1-0.1c2.1-0.4,3.7-2,4.2-3.9c0.8-1.1,1.1-2.6,0.9-4c-2.3-13-0.4-25.4,1.2-35.4c1.5-10,2.7-17.9-0.2-24  c-3.1-6.4-8-11.7-14.2-15.5c-6-3.6-9.2-10.3-8.1-16.8L579,360.6z M554.4,549.7c4.4,2.6,7.9,6.5,10,10.8c1.5,3,0.4,10.1-0.8,17.6  c-0.9,5.7-1.8,12-2.2,18.9c-2.2-2.1-4.8-4-7.4-5.6c1.1-0.1,2.2-0.4,3.2-1.2c2.4-1.9,2.7-5.4,0.8-7.7  c-2.5-3.1-249.8-310.6-268.3-427.9c-0.5-3-3.3-5-6.3-4.6c-3,0.5-5,3.3-4.6,6.3c18.6,118.3,252.8,410.9,269.9,432.3  c-5.6-2.5-11.6-3.8-17.4-3.8c-5.5,0-10.8,1.1-15.6,3.4c-0.8,0.4-1.6,0.8-2.4,1.2c-7.2,3.6-8.9,3.6-10.5,1.7  c-1.3-1.5-1.9-3.6-1.6-5.6c1.3-10.5-3-16.9-6.9-20.5c-9.3-8.5-24.7-8.9-35-6.6c-2.7,0.6-5.4,1.3-8.2,2c-10.5,2.7-20.5,5.3-28.8,1.5  c-6.9-3.1-11.4-11.1-10.6-18.6c0.3-2.4,1.1-4.9,2.4-7.1c3.2-5.5,3.3-12.1,0.2-17.7c-3.2-5.9-9.1-9.6-15.9-9.8  c-10.1-0.4-20.8,0.9-31.2,2.2c-20.1,2.4-39.2,4.7-52.7-4.2c-6.7-4.4-5.7-8.1-3.3-14.9c1.5-4.2,4.1-11.3-2.2-15.6  c-5-3.5-12.2-2.7-19.2-1.9c-4,0.4-10.1,1.1-11.8,0c-7-4.8-17.3-5.1-27.3-5.4c-9.9-0.3-20.1-0.6-23.3-5.3c-2.1-3.2-1.6-9.3,1.5-17.9  c4.2-11.5-8.4-16.7-16.7-20.1c-4.3-1.8-8.8-3.6-11.1-5.8c-11.2-10.3-16.4-20.3-16-30.4c0.3-5.8,3-11.1,7.4-14  c10.2-6.8,24.1,0.9,36.4,7.8l0.6,0.4c15.5,8.6,37.2,13.1,47.7-2.6c4-6,5-13.8,2.7-21.3c-3.7-11.8-13.4-19.4-21.4-24.6  c-4.4-2.9-9-5.5-13.4-8.1c-7.2-4.2-14-8.1-20.2-12.9c-6.4-5-17.3-15.5-18.3-29.2c-0.1-1.8-0.1-3.6-0.1-5.5c0-2.8,0.1-5.8-0.4-8.8  c-1.4-9.3-7.8-18-16.8-22.6c-0.7-0.4-1.1-1-1.2-1.5c-0.2-0.8-0.1-1.7,0.3-2.4c2.3-4.2,3.8-9.2,4.3-14.4c0.4-4.2,0.3-8.4,0.1-12.5  c-0.2-7.6-0.5-14.7,2.8-21.2c1.6-3.1,4-5.2,6.8-6c5.9-1.7,10.5,2.3,17.5,9.1c6.5,6.3,14.5,14.2,25.3,11.1c5.6-1.6,9.5-5.5,11.5-11.2  c3.6-10.4-0.2-25-6-33.1c-3.7-5.1-4.8-11.3-3.1-16.6c2.4-7.4,7.6-8.1,17.2-8.8c6.9-0.5,14.8-1,20.8-6.4c6.1-5.4,7.5-13.2,8.7-20.1  c0.3-1.6,0.6-3.1,0.9-4.6c1.1-5.2,4.8-10.5,8.2-10.6c5.7,3.3,12.7,3.7,18.6,0.9c1.7-0.8,3.7-1.4,5.8-2l1.8-0.5c2-0.6,4.1,0.3,5,2.2  c3.6,7.3,12.3,10.2,19.8,6.6c2.7-1.3,5.9-1.3,8.3-0.1c5.5,2.8,8,9.9,8,15.8c0,2.6-0.4,5.3-1.1,8.4c-1.1,4.5,0.6,9,4.3,11.7  c3.7,2.7,8.6,3,12.5,0.8c0.8-0.5,1.6-0.3,2-0.2c0.4,0.1,1.1,0.5,1.5,1.3l9.4,20.1c2,4.2,5.7,7.2,10.2,8.3c4.4,1,8.9,0,12.4-2.7  c3-2.3,6.5-3.2,9.8-2.5c4,0.9,7.6,4.4,10.1,9.5c0.9,3.9,0,8.4-1,13.1c-0.6,3-1.3,6.1-1.5,9.3c-0.6,7.1,2.1,14.6,6.7,19  c3.1,3,6.9,4.4,11,4.2c3.3,0.4,6.5-0.7,9.2-3c3.8-3.4,6-9.4,5.6-15c-0.2-2.5-0.7-4.8-1.3-7c-1.3-5.5-1.8-8.5,0.6-11.7  c2-2.6,5.4-4.1,9.1-3.9c7,0.3,13.5,4.8,20.3,14.2c21.3,29.2,25.4,70.8,10.1,103.6c-0.6,1.3-1.3,2.6-1.9,4c-3.1,6.4-6.4,13-6.8,20.7  c-0.2,2.6,0.1,5.2,0.8,7.8c1.4,5.4,6.1,9,11.7,9.1c5.7,0.1,10.3-3.4,11.9-8.7c2.2-7.2,7.6-13,14.3-15.2c9.8-3.2,21.6,1.7,26.3,10.8  c4.4,8.6,3.1,19.2,1.1,31.2l-27.1,162.9C539.3,532.7,544.5,543.7,554.4,549.7"/>
<path d="M500.5,363.6c-2.9-1-6,0.5-7,3.4c-11.3,32.8-4.1,112.4-3.8,115.7c0.3,2.8,2.7,5,5.5,5c0.2,0,0.3,0,0.5,0c3-0.3,5.2-2.9,5-6  c-0.1-0.8-7.3-80.5,3.3-111.2C504.9,367.8,503.3,364.6,500.5,363.6"/>
<path d="M401.8,184.8c-2.5-1.7-5.9-1-7.6,1.5c-16.9,25.6-4,130.6-2.4,142.4c0.4,2.8,2.7,4.8,5.4,4.8c0.2,0,0.5,0,0.7,0  c3-0.4,5.1-3.1,4.7-6.1c-4-31.2-11.7-116.2,0.7-135C405,189.9,404.4,186.5,401.8,184.8"/>
<path d="M289,432.9c-3,0.2-5.3,2.8-5.1,5.9c0.2,3,2.9,5.3,5.9,5.1c44.7-3.2,159.6,45.8,160.8,46.2c0.7,0.3,1.4,0.4,2.2,0.4  c2.1,0,4.1-1.2,5-3.3c1.2-2.8-0.1-6-2.9-7.2C450,478,336.4,429.5,289,432.9"/>
<path d="M212.4,239.4c-3,0.3-5.2,3-4.9,6c0.3,3,3,5.2,6,4.9c18.2-1.9,100.9,50.3,109.5,57.2c1,1,2.4,1.5,3.8,1.5  c1.1,0,2.2-0.3,3.1-1c2.5-1.7,3.1-5.1,1.4-7.6C328.4,296,237.2,236.7,212.4,239.4"/>
</g>
</svg>
