<?xml version='1.0' encoding='UTF-8'?>
<svg xmlns="http://www.w3.org/2000/svg" width="297" height="210" viewBox="0 0 297 210">
  <rect x="0" y="0" width="297" height="210" fill="white"/>
  <g transform="translate(64.75110521662245,31.0) scale(0.13085764809902742)"><path d="M0 0 C2.66 1.42 5.27 2.91 7.88 4.44 C8.89 5.01 9.9 5.58 10.95 6.18 C24.03 14 34.27 24.67 40.88 38.44 C41.33 37.56 41.79 36.68 42.27 35.77 C43.19 34.03 43.19 34.03 44.12 32.25 C45.03 30.53 45.03 30.53 45.95 28.77 C48.19 24.89 50.26 21.42 54.12 19.06 C57.85 18.22 61.29 18.15 64.88 19.44 C74.49 26.29 78.28 37.6 80.41 48.84 C80.74 51.42 80.98 53.88 81.09 56.48 C81.12 57.15 81.15 57.82 81.18 58.51 C81.25 60.39 81.26 62.28 81.27 64.16 C82.06 68.46 83.53 69.68 86.88 72.44 C90.3 73.64 90.3 73.64 94.14 74.21 C95.19 74.4 95.19 74.4 96.27 74.6 C97.77 74.88 99.27 75.14 100.78 75.4 C104.77 76.1 108.74 76.87 112.71 77.63 C113.5 77.78 114.3 77.94 115.11 78.09 C144.71 83.82 175.95 94.52 201.58 110.6 C203.87 111.66 203.87 111.66 206.32 110.94 C209.6 109.01 211.99 106.51 214.56 103.75 C229.38 88.5 249.1 78.65 270.51 78.02 C288.85 77.88 301.83 82.91 315.11 95.57 C325.55 106.54 329.43 120.98 329.29 135.88 C328.59 155.74 319.43 174.13 305.88 188.44 C302.37 191.69 298.73 194.62 294.88 197.44 C293.76 198.26 293.76 198.26 292.63 199.09 C291.06 200.23 289.47 201.34 287.88 202.44 C290.16 208.48 292.47 214.5 294.98 220.46 C309.74 255.87 320.09 292.96 328.62 330.31 C330.84 339.96 334.2 348.9 337.94 358.04 C352.47 393.62 360.62 432.06 345.83 469.06 C336.12 491.82 321.66 510.47 301.88 525.44 C300.94 526.17 300.01 526.91 299.05 527.66 C288.23 536.06 276.66 542.66 264.39 548.69 C254.44 553.18 254.44 553.18 247.88 561.44 C244.97 570.16 247.44 579.78 249.31 588.5 C249.66 590.19 249.66 590.19 250.01 591.91 C250.99 597.32 250.99 597.32 252.88 602.44 C253.31 601.87 253.74 601.3 254.19 600.72 C257.69 596.11 261.19 591.52 264.7 586.92 C267.04 583.84 269.38 580.77 271.71 577.68 C287.28 557.1 305.22 536.89 324.89 520.14 C327.2 518.16 329.44 516.11 331.69 514.06 C336.94 509.33 342.35 504.84 347.88 500.44 C348.53 499.91 349.18 499.39 349.84 498.85 C381.98 473.08 420.96 448.35 463.88 451.44 C495.55 455.09 518.56 472.07 540.62 493.94 C541.5 494.8 542.38 495.67 543.28 496.56 C570.52 523.94 594.07 558.79 594.26 598.63 C593.76 628.74 575.53 658.03 556.88 680.44 C555.71 681.88 555.71 681.88 554.52 683.36 C547.85 691.48 540.55 698.95 533.12 706.38 C532.63 706.87 532.13 707.37 531.62 707.88 C525.89 713.62 520.05 719.18 513.88 724.44 C512.79 725.39 511.71 726.34 510.63 727.29 C501.69 735.09 492.4 742.36 482.88 749.44 C482.14 749.99 481.4 750.53 480.64 751.1 C462.25 764.7 443.12 776.88 422.92 787.62 C421.93 788.15 420.93 788.69 419.9 789.23 C417.97 790.26 416.03 791.28 414.08 792.29 C407.4 795.69 407.4 795.69 402.88 801.44 C403.2 804.6 403.2 804.6 404.5 807.88 C414.57 839.39 409.19 874.99 394.63 904.19 C388.37 916.28 380.23 926.57 370.88 936.44 C370.43 936.91 369.99 937.39 369.54 937.88 C349.06 959.76 321.26 974.27 291.04 975.72 C281.51 975.99 273.12 974.85 263.88 972.44 C260.49 971.57 259.47 971.58 255.88 972.44 C253.59 974.99 251.75 977.69 249.86 980.55 C243.32 990.07 232.61 995.76 221.44 998.05 C216.4 998.81 211.34 998.93 206.25 999.06 C204.39 999.12 204.39 999.12 202.49 999.18 C180.07 999.77 157.61 999.77 135.19 999.06 C133.56 999.02 133.56 999.02 131.9 998.97 C115.93 998.36 102.75 995.7 90.88 984.44 C83.04 975.76 78.75 965.69 78.25 954.06 C78.21 953.33 78.17 952.59 78.13 951.83 C78.04 950.03 77.96 948.24 77.88 946.44 C57.06 946.01 57.06 946.01 36.31 947.25 C35.28 947.36 35.28 947.36 34.23 947.46 C29.94 948.01 26.45 948.96 22.88 951.44 C21.75 954.35 21.75 954.35 21.44 957.75 C18.92 972.13 11.7 983.17 -0.27 991.61 C-9.89 997.79 -18.59 998.64 -29.81 999 C-31.76 999.06 -31.76 999.06 -33.75 999.13 C-57.69 999.84 -81.69 999.79 -105.62 999.06 C-107.33 999.02 -107.33 999.02 -109.07 998.97 C-125.43 998.37 -137.33 994.15 -148.79 982.14 C-150.72 979.91 -152.32 977.74 -153.88 975.25 C-155.87 972.12 -155.87 972.12 -159.31 971.88 C-162.11 972.29 -164.8 972.78 -167.56 973.38 C-195.7 979.27 -222.88 971.69 -246.94 957 C-278.05 936.37 -299.7 903.78 -307.26 867.21 C-312.59 838.95 -308.9 808.65 -293.38 784.19 C-279.69 764.77 -260.67 751.25 -236.99 746.86 C-218.85 744.89 -202.31 746.58 -185.12 752.44 C-185.03 751.81 -184.94 751.18 -184.85 750.53 C-183.4 741.21 -181.33 732.05 -179.24 722.86 C-178.56 719.89 -177.9 716.93 -177.23 713.96 C-175.33 705.52 -173.42 697.09 -171.52 688.66 C-166.81 667.87 -162.12 647.09 -158.07 626.16 C-157.93 625.44 -157.79 624.71 -157.64 623.96 C-154.4 607.11 -151.91 590.68 -151.75 573.5 C-151.74 572.42 -151.72 571.33 -151.71 570.21 C-151.61 561.33 -151.61 561.33 -155.12 553.44 C-158.35 551.12 -161.81 549.58 -165.44 548 C-167.45 547.06 -169.45 546.12 -171.45 545.16 C-172.43 544.7 -173.4 544.24 -174.41 543.77 C-189.08 536.57 -202.32 525.61 -214.12 514.44 C-214.95 513.67 -215.77 512.9 -216.61 512.11 C-233.56 495.77 -243.83 477 -250.12 454.44 C-250.32 453.75 -250.51 453.06 -250.71 452.35 C-259.63 418.8 -248.73 384.02 -235.94 353.12 C-230.59 340.15 -227.4 326.66 -224.07 313.06 C-219.38 293.95 -214.29 275.14 -208.12 256.44 C-207.76 255.33 -207.4 254.23 -207.03 253.09 C-202.51 239.3 -197.45 225.91 -191.4 212.71 C-190.95 211.68 -190.49 210.66 -190.02 209.6 C-189.4 208.25 -189.4 208.25 -188.76 206.87 C-187.89 204.46 -187.89 204.46 -188.87 202.23 C-190.59 199.77 -192.64 198.47 -195.12 196.81 C-212.69 184.33 -224 166.85 -228.5 145.81 C-231.07 128.11 -227.87 112.38 -217.24 97.87 C-208.64 87.6 -197.22 81.23 -184.12 78.44 C-160.76 76.73 -140.67 81.15 -122.12 95.94 C-117.26 100.18 -112.33 104.53 -108.12 109.44 C-108.12 110.1 -108.12 110.76 -108.12 111.44 C-101.37 111.06 -96.58 108.25 -90.75 105 C-63.4 90.29 -34.32 82.01 -4.12 75.44 C-4.58 75.06 -5.04 74.68 -5.52 74.29 C-19.76 62.33 -29.84 45.05 -32.12 26.44 C-32.33 23.29 -32.4 20.15 -32.44 17 C-32.47 16.18 -32.5 15.36 -32.53 14.51 C-32.59 8.62 -31.55 5.27 -28.12 0.44 C-19.58 -6.65 -9.25 -4.7 0 0 Z M-21.31 6.97 C-23.76 10.3 -23.77 13.2 -23.69 17.19 C-23.68 17.94 -23.67 18.68 -23.66 19.46 C-23.02 36.73 -14.68 53.73 -2.12 65.44 C7.85 74.82 7.85 74.82 19.88 79.44 C19.55 80.1 19.21 80.76 18.88 81.44 C16.39 82 16.39 82 13.05 82.45 C11.81 82.62 10.57 82.8 9.29 82.98 C8.62 83.08 7.95 83.17 7.27 83.27 C-29.77 88.54 -69.15 99.9 -100.57 120.8 C-102.99 122.37 -104.97 123.41 -107.81 123.96 C-110.12 123.44 -110.12 123.44 -111.86 121.53 C-112.38 120.68 -112.9 119.82 -113.44 118.94 C-123.46 103.68 -139.91 93.23 -157.44 88.56 C-172.64 85.48 -188.9 86.8 -202.12 95.44 C-211.66 102.79 -218.17 114.15 -219.91 126.1 C-219.98 126.87 -220.05 127.64 -220.12 128.44 C-220.19 129.2 -220.26 129.96 -220.34 130.75 C-221.12 149.12 -213.33 166.09 -201.12 179.44 C-200.6 180.05 -200.07 180.65 -199.52 181.28 C-193.32 188 -184.77 194.4 -176.12 197.44 C-177.94 204.06 -180.22 210.13 -183.19 216.31 C-198.68 249.84 -209.98 287.86 -217.53 324 C-220.85 339.82 -226.03 354.19 -232.04 369.13 C-235.22 377.09 -237.8 385.19 -240.12 393.44 C-240.45 394.53 -240.77 395.61 -241.11 396.73 C-248.76 425.18 -243.31 456.06 -229.12 481.44 C-223.28 491.07 -215.91 499.35 -208.12 507.44 C-207.48 508.14 -206.84 508.85 -206.18 509.57 C-192.08 524.62 -172.54 534.71 -154.12 543.44 C-153.44 543.77 -152.76 544.09 -152.05 544.43 C-111.36 563.86 -66.84 570 -22.32 573.28 C-20.88 573.38 -19.44 573.49 -18 573.6 C31.5 577.36 81.42 576.27 130.88 572.44 C131.7 572.37 132.53 572.31 133.38 572.25 C202.36 567 274.48 547.94 321.34 493.58 C327.48 485.81 331.8 477.4 335.88 468.44 C336.3 467.52 336.72 466.6 337.16 465.65 C349.71 436.42 345.18 400.77 333.73 371.94 C332.23 368.26 330.7 364.59 329.16 360.92 C328.39 359.09 327.63 357.27 326.88 355.44 C326.45 354.42 326.03 353.4 325.59 352.35 C322.46 344.59 320.48 336.94 318.81 328.75 C309.71 286.15 296.58 242.83 277.75 203.46 C276.89 201.47 276.34 199.56 275.88 197.44 C276.76 197.18 277.64 196.93 278.54 196.66 C293.39 191.2 306.92 176.03 313.69 162.12 C320.06 146.7 322.84 130.45 316.88 114.44 C310.53 100.86 300.22 93.64 286.5 88.56 C269.8 84.04 252.49 88.8 237.82 96.89 C228.17 102.44 221.18 108.72 214.63 117.69 C210.55 123.21 210.55 123.21 206.88 124.44 C204.98 123.8 204.98 123.8 203 122.54 C201.88 121.86 201.88 121.86 200.74 121.16 C199.94 120.65 199.14 120.15 198.31 119.62 C165.89 100.07 129.81 89.08 92.53 83.57 C91.8 83.45 91.07 83.34 90.32 83.22 C88.33 82.91 86.34 82.62 84.36 82.33 C79.16 81 75.85 78.91 72.88 74.44 C72.59 72.54 72.59 72.54 72.53 70.41 C72.5 69.62 72.48 68.84 72.45 68.03 C72.42 67.19 72.4 66.36 72.38 65.5 C71.85 52.91 70.72 41.25 63.94 30.31 C62.01 28.16 62.01 28.16 59.25 28.32 C58.46 28.36 57.68 28.4 56.88 28.44 C50.04 40.71 47.41 51.58 47.9 65.52 C47.96 67.49 47.92 69.47 47.88 71.44 C45.52 73.8 44.1 73.93 40.88 74.44 C40.66 73.42 40.44 72.4 40.21 71.35 C34.72 46.54 27.74 27.72 5.59 13.49 C-7.33 5.31 -7.33 5.31 -21.31 6.97 Z M425.88 465.44 C425.19 465.67 424.51 465.91 423.81 466.15 C416.01 468.88 408.37 471.96 400.88 475.44 C402.58 481.8 404.88 486.54 410.49 490.09 C420.22 495.13 430.19 498.14 440.74 501.01 C445.75 502.38 450.75 503.8 455.75 505.22 C457.21 505.63 457.21 505.63 458.7 506.06 C473.93 510.42 488.9 515.65 503.2 522.5 C506.9 524.3 506.9 524.3 510.88 523.44 C500.31 489.14 500.31 489.14 477.88 463.44 C461.74 458.4 441.67 459.91 425.88 465.44 Z M498.88 472.44 C499.5 476.9 501.26 480.57 503.25 484.56 C507.61 493.51 511.28 502.71 514.84 511.99 C520.49 526.32 528.71 534.81 542.5 541.56 C553.94 547.34 564.91 553.81 575.88 560.44 C576.2 559.78 576.53 559.12 576.88 558.44 C575.76 555.82 574.58 553.38 573.25 550.88 C572.85 550.12 572.45 549.36 572.03 548.59 C567.22 539.85 561.18 532.14 554.88 524.44 C554.39 523.84 553.91 523.25 553.41 522.64 C529.56 493.45 529.56 493.45 498.88 472.44 Z M386.19 484.38 C385.38 484.92 384.57 485.47 383.74 486.03 C383.12 486.49 382.51 486.96 381.88 487.44 C381.88 487.77 381.88 488.1 381.88 488.44 C387.15 489.1 392.43 489.76 397.88 490.44 C396.27 484.74 396.27 484.74 393.88 481.44 C390.26 481.44 389.13 482.36 386.19 484.38 Z M343.88 515.44 C342.68 516.42 342.68 516.42 341.47 517.43 C340.76 518.03 340.05 518.63 339.31 519.25 C338.69 519.77 338.07 520.29 337.43 520.83 C334.48 523.87 333.56 526.75 333.44 530.94 C333.65 540.32 338.34 549.78 344.88 556.44 C355.51 565.83 369.48 568.76 382.94 572 C397.2 575.51 411.11 579.92 425.03 584.58 C426.18 584.96 426.18 584.96 427.36 585.35 C428.8 585.83 430.24 586.32 431.69 586.81 C434.55 587.77 436.83 588.44 439.88 588.44 C438.34 580.61 435.92 573.22 433.31 565.69 C433.09 565.05 432.87 564.42 432.65 563.76 C428.88 552.9 424.7 542.27 419.94 531.8 C418.87 529.44 417.84 527.06 416.82 524.69 C412.17 514.11 407.83 505.31 396.75 500.44 C375 492.13 360.19 501.67 343.88 515.44 Z M415.88 503.44 C417.3 508.42 419.51 512.86 421.81 517.48 C429.81 533.54 435.95 550.08 441.8 567.01 C444.84 575.69 447.77 583.38 453.88 590.44 C454.37 591.05 454.87 591.67 455.38 592.3 C462.41 600.24 472.98 604.53 482.34 609.11 C495.57 615.58 508.12 622.93 520.71 630.54 C524 632.52 527.31 634.48 530.62 636.42 C531.6 637 532.59 637.58 533.6 638.18 C535.59 639.52 535.59 639.52 536.88 639.44 C536.43 614.06 530.2 588.88 523.88 564.44 C523.63 563.48 523.39 562.52 523.14 561.53 C522.5 559.01 521.85 556.51 521.19 554 C521.01 553.3 520.83 552.61 520.65 551.89 C518.26 543.18 513.28 538.15 505.88 533.44 C481.61 519.87 443.97 503.44 415.88 503.44 Z M319.3 537.78 C318.26 538.83 317.22 539.88 316.19 540.94 C315.65 541.48 315.11 542.03 314.56 542.59 C309.66 547.59 304.77 552.6 300.88 558.44 C318.31 560.85 318.31 560.85 335.88 561.44 C332.09 552.65 328.3 543.92 323.88 535.44 C321.54 535.21 321.54 535.21 319.3 537.78 Z M526.88 543.44 C527.08 544.26 527.29 545.07 527.5 545.92 C528.19 548.63 528.87 551.35 529.54 554.07 C530.51 558.01 531.52 561.94 532.52 565.87 C535.77 578.73 538.57 591.52 540.62 604.62 C540.78 605.61 540.78 605.61 540.94 606.61 C541.89 612.73 542.79 618.85 543.67 624.97 C545.58 637.88 547.73 647.96 558.57 656.21 C559.71 656.82 559.71 656.82 560.88 657.44 C564.26 656.31 564.46 655.95 566.11 653 C566.52 652.28 566.92 651.56 567.34 650.81 C567.76 650.03 568.19 649.25 568.62 648.44 C569.07 647.63 569.51 646.83 569.96 646 C580.23 626.84 589.9 602.46 583.79 580.44 C577.61 566.88 556.28 558.28 543.78 551.48 C541.87 550.43 539.96 549.38 538.05 548.32 C532.74 544.92 532.74 544.92 526.88 543.44 Z M-133.12 561.44 C-136.79 574.52 -139.76 587.74 -142.75 600.98 C-143.29 603.38 -143.83 605.78 -144.37 608.18 C-145.81 614.54 -147.25 620.9 -148.68 627.26 C-149.56 631.19 -150.45 635.12 -151.33 639.04 C-155.03 655.43 -158.72 671.81 -162.4 688.2 C-163.07 691.21 -163.75 694.23 -164.43 697.25 C-166.44 706.2 -168.45 715.15 -170.44 724.11 C-170.98 726.52 -171.51 728.93 -172.05 731.34 C-172.77 734.55 -173.49 737.77 -174.2 740.99 C-174.4 741.88 -174.6 742.78 -174.81 743.7 C-175.74 748 -176.51 752.01 -176.12 756.44 C-174.63 758.09 -174.63 758.09 -172.5 759.06 C-171.77 759.46 -171.05 759.86 -170.3 760.27 C-169.58 760.65 -168.86 761.04 -168.12 761.44 C-166.99 762.19 -165.86 762.96 -164.75 763.75 C-162.36 765.62 -162.36 765.62 -160.12 765.44 C-159.47 759.83 -158.81 754.22 -158.12 748.44 C-156.14 748.11 -154.16 747.78 -152.12 747.44 C-152.12 748.18 -152.12 748.92 -152.11 749.68 C-152.01 768.01 -151.9 786.34 -151.79 804.67 C-151.73 813.54 -151.68 822.4 -151.63 831.27 C-151.51 852.31 -151.36 873.36 -151.18 894.4 C-151.14 899.75 -151.1 905.1 -151.07 910.45 C-151.02 917.31 -150.96 924.17 -150.88 931.03 C-150.85 933.5 -150.83 935.97 -150.82 938.44 C-150.8 941.8 -150.76 945.15 -150.71 948.51 C-150.72 949.47 -150.72 950.42 -150.72 951.41 C-150.5 962.14 -146.88 971.87 -139.12 979.44 C-124.18 990.8 -108.37 989.6 -90.46 989.61 C-88.46 989.61 -86.46 989.61 -84.45 989.62 C-80.27 989.62 -76.09 989.62 -71.91 989.62 C-66.57 989.62 -61.23 989.64 -55.89 989.65 C-51.76 989.66 -47.63 989.67 -43.5 989.67 C-41.53 989.67 -39.56 989.67 -37.59 989.68 C-34.84 989.69 -32.08 989.69 -29.33 989.68 C-28.52 989.69 -27.72 989.69 -26.9 989.7 C-15.2 989.63 -6 986.15 2.69 978.19 C12.01 968.21 11.98 956.62 12.34 943.71 C12.42 941.21 12.5 938.71 12.58 936.21 C12.7 932.3 12.81 928.39 12.92 924.48 C13.74 896.51 13.74 896.51 15.88 884.44 C17.19 884.77 18.51 885.1 19.88 885.44 C20.67 891.81 21.07 898.08 21.19 904.5 C21.22 905.73 21.22 905.73 21.25 906.98 C21.32 909.99 21.38 912.99 21.44 916 C21.65 926.12 21.65 926.12 21.88 936.44 C40.68 936.44 59.5 936.44 78.88 936.44 C79.37 911.19 79.37 911.19 79.88 885.44 C81.52 885.11 83.17 884.78 84.88 884.44 C86.69 888.33 87.14 891.43 87.18 895.71 C87.19 896.95 87.21 898.2 87.23 899.48 C87.24 900.83 87.25 902.19 87.25 903.54 C87.27 904.94 87.29 906.34 87.31 907.74 C87.35 911.43 87.39 915.12 87.42 918.81 C87.47 924.69 87.54 930.57 87.61 936.45 C87.63 938.49 87.64 940.52 87.66 942.56 C87.74 961.74 87.74 961.74 97.5 977.62 C111.94 991.09 130.4 989.75 148.89 989.74 C150.89 989.74 152.88 989.75 154.88 989.75 C159.03 989.76 163.18 989.76 167.34 989.75 C172.64 989.75 177.94 989.76 183.24 989.79 C187.34 989.8 191.45 989.8 195.56 989.8 C197.52 989.8 199.47 989.81 201.42 989.82 C217.02 989.89 228.84 988.97 240.7 977.71 C250.02 967.47 250.01 956.37 250.42 943.13 C250.46 941.81 250.5 940.5 250.55 939.15 C251.01 924.03 251.08 908.92 251.15 893.79 C251.16 889.73 251.19 885.66 251.21 881.59 C251.28 870.44 251.33 859.29 251.39 848.15 C251.44 837.89 251.49 827.64 251.55 817.38 C251.58 813.37 251.6 809.35 251.61 805.34 C251.7 786.35 252.02 767.41 252.88 748.44 C254.95 747.88 256.72 747.44 258.88 747.44 C259.2 753.38 259.54 759.32 259.88 765.44 C263.68 763.91 267.05 762.34 270.62 760.38 C271.59 759.85 272.55 759.32 273.55 758.78 C275.76 757.64 275.76 757.64 276.88 756.44 C276.71 749.59 275.25 742.89 273.72 736.24 C273.5 735.27 273.28 734.3 273.06 733.3 C272.33 730.09 271.6 726.88 270.87 723.68 C270.35 721.39 269.84 719.11 269.32 716.83 C267.94 710.73 266.56 704.63 265.17 698.53 C263.74 692.23 262.31 685.93 260.89 679.64 C259.18 672.07 257.46 664.51 255.75 656.95 C252.58 642.98 249.43 629.01 246.31 615.03 C245.74 612.45 245.16 609.88 244.59 607.3 C244.4 606.48 244.22 605.67 244.03 604.83 C243.68 603.23 243.32 601.64 242.97 600.04 C242.12 596.26 241.28 592.46 240.44 588.67 C239.81 585.85 239.19 583.03 238.55 580.21 C238 577.73 237.45 575.25 236.9 572.77 C236.54 571.17 236.54 571.17 236.17 569.53 C235.97 568.61 235.77 567.69 235.55 566.75 C234.93 564.19 234.93 564.19 232.88 561.44 C232.09 561.68 231.3 561.92 230.49 562.17 C211.43 567.97 192.47 572.75 172.88 576.44 C173.48 579.42 174.39 581.51 176.1 584.02 C176.55 584.7 177 585.37 177.47 586.07 C177.95 586.79 178.44 587.51 178.94 588.25 C202.1 623.44 211.67 665.84 203.91 707.68 C198.12 735.55 186.12 760.65 167.88 782.44 C167.23 783.23 166.58 784.02 165.91 784.84 C142.57 812.52 104.63 831.52 68.88 835.44 C63.76 835.75 58.64 835.77 53.52 835.75 C51.21 835.75 48.89 835.77 46.58 835.8 C32.41 835.86 18.92 833.69 5.31 829.69 C4.43 829.43 3.55 829.17 2.64 828.91 C-16.38 823.15 -34.17 813.6 -49.12 800.44 C-49.95 799.72 -50.78 799 -51.63 798.26 C-54.16 796.02 -56.65 793.74 -59.12 791.44 C-59.89 790.73 -60.65 790.02 -61.44 789.29 C-71.67 779.44 -79.24 767.76 -86.12 755.44 C-86.47 754.81 -86.82 754.19 -87.18 753.55 C-106.7 718.15 -111.32 674.78 -100.71 635.87 C-94.88 615.76 -86.05 597.83 -73.78 580.91 C-71.94 578.66 -71.94 578.66 -72.12 576.44 C-72.73 576.34 -73.33 576.24 -73.96 576.14 C-94.15 572.74 -113.53 567.29 -133.12 561.44 Z M279.86 581.83 C273.55 590.45 270.29 598.35 271.46 609.26 C273.03 617.48 276.86 629.41 282.88 635.44 C285.35 636.13 287.53 636.57 290.06 636.89 C290.78 637 291.5 637.11 292.24 637.22 C293.79 637.46 295.34 637.68 296.89 637.9 C301 638.49 305.09 639.14 309.19 639.8 C310.02 639.93 310.84 640.07 311.69 640.2 C323.61 642.16 335.23 645.27 346.88 648.44 C349.08 649.03 351.29 649.62 353.49 650.21 C358.63 651.6 363.75 653.01 368.88 654.44 C367.25 645.1 364.54 636.17 361.75 627.12 C361.51 626.33 361.26 625.53 361.01 624.71 C353.66 595.2 353.66 595.2 336.88 571.44 C333.91 570.38 330.98 569.87 327.88 569.44 C327.15 569.33 326.42 569.22 325.67 569.1 C308.11 566.89 292.09 567.28 279.86 581.83 Z M351.88 573.44 C353.53 579.46 355.52 585.34 357.7 591.2 C358.09 592.26 358.09 592.26 358.49 593.34 C359.04 594.83 359.59 596.32 360.14 597.81 C365.36 611.9 370.05 626.01 373.9 640.54 C376.58 651.39 376.58 651.39 383.61 659.66 C385.66 660.74 387.71 661.6 389.88 662.44 C390.64 662.75 391.4 663.06 392.19 663.38 C393.88 664.07 395.58 664.76 397.28 665.43 C414.04 672.11 430.01 680.32 446.06 688.5 C450.65 690.84 455.26 693.14 459.88 695.44 C459.28 673.5 456.05 651.8 451.44 630.38 C451.3 629.72 451.16 629.06 451.02 628.38 C447.91 610.97 447.91 610.97 437.88 597.44 C434.25 595.74 430.54 594.41 426.75 593.12 C425.65 592.74 424.55 592.36 423.41 591.96 C400.41 584.05 376.18 575.97 351.88 573.44 Z M-65.75 584.44 C-79.7 602.05 -89.15 621.5 -94.12 643.44 C-94.43 644.69 -94.73 645.94 -95.04 647.22 C-99.82 669.33 -98.76 694.66 -93.12 716.44 C-92.94 717.17 -92.75 717.9 -92.56 718.65 C-86.82 740.19 -76.26 759.3 -62.12 776.44 C-60.96 777.86 -60.96 777.86 -59.76 779.3 C-53.31 786.76 -46.02 792.62 -38.12 798.44 C-37.1 799.21 -36.07 799.98 -35.01 800.78 C-19.13 812.27 -2.87 819.17 16.15 823.77 C18.37 824.31 20.55 824.9 22.75 825.53 C44.48 831.06 68.47 827.81 89.88 822.44 C90.67 822.24 91.47 822.04 92.29 821.84 C112.76 816.57 130.91 805.05 146.88 791.44 C147.71 790.74 148.54 790.05 149.39 789.33 C155.66 783.91 160.86 778.02 165.88 771.44 C166.68 770.4 167.48 769.36 168.31 768.29 C185.48 745.57 197.14 717.11 197.88 688.44 C197.9 687.66 197.93 686.88 197.95 686.08 C199.03 650.41 189.53 618.08 169.32 588.66 C168.94 588.1 168.56 587.54 168.16 586.96 C164.76 582.93 159.99 581.16 154.88 580.44 C151.72 580.28 148.57 580.27 145.41 580.28 C144.48 580.28 143.55 580.28 142.59 580.29 C133.46 580.36 124.4 581.02 115.3 581.72 C71.82 584.94 27.55 585.04 -15.9 581.51 C-25.06 580.76 -34.16 580.28 -43.35 580.22 C-44.29 580.21 -45.24 580.2 -46.21 580.19 C-56.59 580.2 -56.59 580.2 -65.75 584.44 Z M454.88 605.44 C455.92 611.38 457.04 617.3 458.24 623.2 C460.97 636.68 463.41 650.11 465.12 663.75 C465.29 665.04 465.45 666.34 465.62 667.67 C466.29 673.14 466.92 678.61 467.35 684.1 C467.89 694.13 467.89 694.13 472.71 702.64 C481.94 710.3 491.41 718.04 503.88 718.44 C510.38 715.69 514.83 711.25 519.88 706.44 C520.42 705.92 520.97 705.41 521.53 704.88 C523.29 703.22 525.02 701.55 526.75 699.88 C527.3 699.36 527.84 698.84 528.41 698.31 C536.06 690.76 538.8 681.62 539.25 671.06 C539.01 660.5 534.43 651.92 527.04 644.62 C509.15 629.13 485.29 618.76 464.06 608.69 C463.36 608.35 462.65 608.02 461.92 607.67 C458.54 606 458.54 606 454.88 605.44 Z M259.88 608.44 C256.03 613.99 256.23 618.88 256.88 625.44 C258.1 629.19 258.77 630.77 262.12 632.81 C265.43 633.56 268.5 633.48 271.88 633.44 C270.45 629.64 269.01 625.85 267.56 622.06 C267.16 620.98 266.75 619.9 266.34 618.79 C265.94 617.76 265.55 616.73 265.14 615.66 C264.59 614.23 264.59 614.23 264.04 612.78 C262.97 610.14 262.97 610.14 259.88 608.44 Z M260.88 641.44 C263.43 654.92 266.21 668.34 269.38 681.69 C269.65 682.86 269.92 684.04 270.2 685.25 C274.15 702.82 274.15 702.82 283.88 717.44 C287.83 719.01 291.69 719.77 295.88 720.44 C294.48 709.45 291.95 698.85 289.25 688.12 C288.92 686.81 288.92 686.81 288.59 685.47 C284.52 662.39 284.52 662.39 274.88 642.44 C272.53 642.2 270.17 642.02 267.81 641.88 C266.52 641.79 265.23 641.71 263.9 641.62 C262.4 641.53 262.4 641.53 260.88 641.44 Z M284.88 644.44 C285.08 645.05 285.29 645.66 285.5 646.29 C291.51 664.28 296.6 682.43 300.65 700.96 C300.9 702.11 301.15 703.25 301.41 704.43 C301.62 705.45 301.84 706.47 302.07 707.53 C304.42 716.02 309.33 722.07 316.88 726.44 C324.14 729.76 331.65 732.51 339.13 735.28 C350.74 739.59 362.14 744.15 373.35 749.44 C374.19 749.84 375.02 750.23 375.89 750.64 C376.61 750.99 377.34 751.33 378.09 751.69 C379.86 752.57 379.86 752.57 381.88 752.44 C381.28 729.47 379.53 706.57 375.88 683.88 C375.72 682.9 375.57 681.93 375.41 680.92 C373.96 672.46 373.96 672.46 368.92 665.71 C357.11 658.82 343.56 655.62 330.38 652.38 C329.69 652.2 329 652.03 328.3 651.86 C306.84 646.13 306.84 646.13 284.88 644.44 Z M546.88 658.44 C547.2 664.05 547.53 669.66 547.88 675.44 C553.74 670.61 553.74 670.61 556.88 664.44 C555.59 663.43 554.3 662.43 553 661.44 C552.28 660.88 551.56 660.32 550.82 659.75 C548.99 658.25 548.99 658.25 546.88 658.44 Z M380.88 668.44 C381.04 669.46 381.21 670.47 381.38 671.52 C384.71 692.09 387.56 712.54 388.85 733.34 C389.45 746.99 389.45 746.99 394.88 759.2 C399.33 762.53 403.97 765.42 408.75 768.25 C409.72 768.85 410.69 769.44 411.68 770.06 C418.77 774.35 418.77 774.35 426.88 774.44 C429.35 773.43 431.46 772.44 433.75 771.12 C434.69 770.6 434.69 770.6 435.66 770.06 C437.75 768.88 439.81 767.66 441.88 766.44 C442.64 765.98 443.41 765.53 444.21 765.06 C446.57 763.65 448.91 762.21 451.25 760.75 C451.99 760.3 452.74 759.85 453.5 759.38 C454.19 758.94 454.88 758.5 455.59 758.05 C456.2 757.67 456.81 757.28 457.44 756.89 C461.96 752.32 460.14 742.52 460.17 736.46 C460.18 734.95 460.2 733.45 460.23 731.94 C460.47 719.64 459.08 710.87 450.38 701.62 C445.44 697.31 439.68 694.4 433.88 691.44 C433.24 691.11 432.6 690.78 431.95 690.44 C427.29 688.04 422.59 685.72 417.88 683.44 C417.19 683.1 416.5 682.77 415.78 682.42 C407.78 678.55 399.71 674.86 391.5 671.44 C390.78 671.13 390.06 670.83 389.32 670.52 C386.35 669.3 384.12 668.44 380.88 668.44 Z M468.88 711.44 C468.54 723.32 468.22 735.2 467.88 747.44 C470.8 745.97 473 744.72 475.55 742.79 C476.58 742.02 476.58 742.02 477.62 741.24 C478.67 740.44 478.67 740.44 479.75 739.62 C480.44 739.1 481.14 738.58 481.86 738.04 C485.96 734.95 489.95 731.76 493.88 728.44 C489.57 723.64 484.58 720.49 479.12 717.12 C478.25 716.58 477.37 716.03 476.47 715.46 C472.9 712.79 472.9 712.79 468.88 711.44 Z M279.88 725.44 C280.65 729.56 281.45 733.69 282.25 737.81 C282.47 738.99 282.69 740.16 282.92 741.38 C283.14 742.5 283.36 743.62 283.59 744.77 C283.78 745.81 283.98 746.85 284.19 747.92 C284.69 750.58 284.69 750.58 286.88 752.44 C292.78 750.87 292.78 750.87 297.94 747.75 C299.89 742.94 299.4 738.83 297.62 734.12 C294.48 729.29 291.16 728.01 285.62 726.75 C284.55 726.5 283.47 726.25 282.36 725.99 C281.54 725.81 280.72 725.62 279.88 725.44 Z M306.88 733.44 C307.1 735.04 307.36 736.65 307.62 738.25 C307.76 739.14 307.9 740.04 308.05 740.96 C309.08 744.05 310.11 744.76 312.88 746.44 C315.23 746.87 315.23 746.87 317.77 746.81 C319.19 746.83 319.19 746.83 320.64 746.85 C321.65 746.86 322.65 746.87 323.69 746.88 C343.45 747.43 360.04 753.61 375.64 765.77 C377.66 767.28 379.59 768.4 381.88 769.44 C381.99 767.14 381.99 767.14 380.88 764.44 C376.04 759.94 370.32 756.87 364.38 754.12 C363.57 753.75 362.76 753.37 361.92 752.98 C351.47 748.21 340.68 744.31 329.88 740.44 C328.9 740.08 327.92 739.73 326.91 739.36 C324.13 738.36 321.35 737.36 318.56 736.38 C317.73 736.08 316.89 735.78 316.03 735.47 C315.26 735.2 314.49 734.93 313.7 734.65 C313.03 734.42 312.36 734.18 311.67 733.94 C309.7 733.3 309.7 733.3 306.88 733.44 Z M-279.33 780.3 C-292.46 795.89 -299.4 817.24 -300.12 837.44 C-300.16 838.27 -300.2 839.1 -300.25 839.95 C-301.12 874.24 -286.41 907.36 -263.05 931.98 C-243.27 952.09 -218.11 965.42 -189.49 965.67 C-188.3 965.68 -187.1 965.68 -185.88 965.69 C-184.7 965.71 -183.52 965.73 -182.31 965.75 C-175.2 965.78 -168.7 965.35 -162.12 962.44 C-159.46 959.77 -159.2 957.77 -158.99 954.07 C-158.99 953.24 -159 952.42 -159 951.56 C-159 950.74 -158.99 949.92 -158.99 949.07 C-159.14 946.14 -159.59 943.33 -160.12 940.44 C-161.53 940.87 -161.53 940.87 -162.96 941.31 C-180.72 946.47 -196.98 946.32 -213.62 937.61 C-233.46 925.97 -245.64 908.3 -252.12 886.44 C-255.23 872.89 -254.82 856.18 -249.12 843.44 C-248.85 842.71 -248.57 841.99 -248.29 841.24 C-244.02 831.21 -234.76 822.63 -225.06 817.96 C-210.75 812.33 -194.07 812.13 -179.68 817.66 C-174.12 820.44 -169.03 823.81 -163.98 827.43 C-161.57 829.53 -161.57 829.53 -160.12 829.44 C-160.08 823.94 -160.04 818.45 -160.02 812.95 C-160.01 811.09 -159.99 809.22 -159.97 807.36 C-158.93 788.76 -158.93 788.76 -166.12 772.44 C-200.33 747.3 -249.84 749.23 -279.33 780.3 Z M264.88 773.44 C257.4 784.27 259.64 800.67 259.75 813.19 C259.76 815.16 259.77 817.12 259.78 819.09 C259.8 823.88 259.83 828.66 259.88 833.44 C260.68 832.83 260.68 832.83 261.51 832.21 C262.22 831.67 262.94 831.14 263.67 830.59 C264.73 829.79 264.73 829.79 265.81 828.98 C280.93 817.68 295.94 811.14 315.18 813.91 C328.44 816.5 339.82 823.26 347.91 834.19 C357.23 849.08 359.9 867 356.68 884.14 C351.86 903.78 340.78 922.65 323.57 933.88 C308.48 942.62 291.64 947.61 274.27 943.61 C271.41 942.66 268.65 941.59 265.88 940.44 C263.88 939.76 261.88 939.09 259.88 938.44 C259.79 941.5 259.73 944.56 259.69 947.62 C259.66 948.49 259.64 949.35 259.61 950.24 C259.6 951.09 259.59 951.93 259.58 952.79 C259.57 953.56 259.55 954.33 259.53 955.13 C259.99 958.22 260.95 959.98 262.88 962.44 C270.79 966.11 280.13 965.95 288.69 965.88 C290.54 965.86 290.54 965.86 292.42 965.85 C306.72 965.59 318.14 961.94 330.88 955.44 C331.8 954.99 332.72 954.54 333.67 954.07 C361.93 939.61 383.65 912.22 393.63 882.34 C401.23 858.31 403.68 832.49 394.88 808.44 C394.52 807.45 394.52 807.45 394.16 806.45 C386.41 785.36 371.34 770.55 351.31 760.91 C346.6 758.89 341.9 757.46 336.88 756.44 C335.98 756.26 335.09 756.07 334.18 755.89 C310.72 752.69 283.74 758.45 264.88 773.44 Z M390.88 767.44 C389.63 774.43 389.95 779.39 393.06 785.94 C395.23 787.73 396.83 788.05 399.63 787.9 C404.61 786.87 409.37 784.78 413.88 782.44 C414.21 781.78 414.53 781.12 414.88 780.44 C411.06 778.27 407.25 776.1 403.44 773.94 C402.35 773.32 401.26 772.7 400.14 772.06 C399.1 771.47 398.07 770.89 397 770.28 C396.05 769.74 395.09 769.19 394.1 768.63 C392.15 767.36 392.15 767.36 390.88 767.44 Z M265.44 840.88 C256.83 851.62 259.69 871.1 259.69 884.06 C259.69 887.1 259.67 890.14 259.65 893.18 C259.62 902.19 259.71 911.17 260.57 920.14 C260.63 920.83 260.68 921.52 260.73 922.23 C261.15 925.79 261.71 927.28 264.3 929.82 C266.81 931.39 269.17 932.58 271.94 933.62 C272.77 933.95 273.61 934.27 274.47 934.61 C287.05 938.96 300.02 936.82 311.88 931.44 C329.17 922.08 340.55 907.01 346.85 888.59 C351.38 872.24 350.26 855.91 342.56 840.87 C336.73 831.07 327.71 825.38 316.88 822.44 C297.8 818.06 278.47 827.06 265.44 840.88 Z M-233.12 833.44 C-244.9 847.39 -245.99 861.92 -245.12 879.44 C-243.57 893.3 -235.58 907.41 -226.12 917.44 C-225.41 918.2 -224.7 918.97 -223.96 919.76 C-212.37 931.18 -197.6 936.88 -181.51 936.8 C-175.54 936.65 -170.11 935.99 -165.12 932.44 C-157.45 921.64 -159.81 901.88 -159.86 889.3 C-159.87 886.08 -159.86 882.85 -159.85 879.62 C-158.63 856.18 -158.63 856.18 -166.96 835.43 C-187.37 820.28 -212.72 815.39 -233.12 833.44 Z " fill="#000000" transform="translate(550.125,42.5625)"/>
<path d="M0 0 C2.53 1.2 5.1 2.31 7.67 3.44 C43.58 19.3 76.24 41.44 91.1 79.29 C96.91 95.03 98.46 111.19 91.83 126.85 C85.99 138.51 77.15 145.23 65.81 151.07 C64.19 151.9 62.6 152.76 61 153.63 C36.36 166.16 5.78 166.49 -21.22 166.31 C-24.91 166.28 -28.59 166.29 -32.28 166.29 C-49.86 166.27 -66.99 165.42 -84.2 161.66 C-85.71 161.33 -85.71 161.33 -87.26 161 C-104.57 157.17 -119.17 151.73 -131.95 138.97 C-132.69 138.24 -133.44 137.5 -134.21 136.75 C-141.02 129.62 -144.52 121.89 -144.95 111.97 C-145 111.11 -145.05 110.26 -145.1 109.37 C-145.96 82.88 -133.98 60.58 -116.49 41.6 C-99.85 24.04 -79.53 12.77 -57.4 3.44 C-54.57 2.24 -51.79 0.97 -49.01 -0.34 C-34.57 -6.67 -14.15 -6.76 0 0 Z M-56.07 13.72 C-59.08 16.61 -59.88 17.68 -60.88 21.85 C-58.77 37.04 -40.44 50.98 -29.82 60.97 C-27.18 62.38 -25.79 61.76 -22.95 60.97 C-10.42 53.82 4.75 38.25 10.35 24.89 C11.4 21.81 11.4 21.81 9.55 18.41 C5 11.56 -1.13 8.09 -8.95 5.97 C-25.26 2.72 -42.53 2.98 -56.07 13.72 Z M-108.63 46.16 C-124.07 61.67 -135.47 81.93 -136.2 104.16 C-136.03 116.13 -132.23 127.13 -123.57 135.6 C-101.01 153.65 -67.24 157.06 -39.38 157.18 C-38.3 157.18 -37.22 157.19 -36.11 157.19 C-33.83 157.2 -31.55 157.21 -29.27 157.21 C-25.88 157.22 -22.48 157.25 -19.09 157.28 C12.7 157.44 52.04 155.14 77.05 132.66 C85.16 123.9 86.53 112.91 86.32 101.55 C85.22 75.57 68.12 54.63 50.01 37.72 C40.85 29.52 30.09 24.17 19.05 18.97 C19.01 20.23 18.97 21.49 18.93 22.78 C17.31 36.43 6.13 45.94 -3.11 55.11 C-3.83 55.82 -4.54 56.54 -5.28 57.27 C-6.7 58.67 -8.12 60.07 -9.55 61.45 C-15.54 67.23 -15.54 67.23 -18.45 74.85 C-17.66 79.79 -15.21 83.11 -11.37 86.27 C-6.33 89.51 -0.68 90.73 5.23 89.53 C11.94 87.32 15.48 83.33 18.74 77.16 C20.81 72.82 22.1 68.68 23.05 63.97 C26.02 63.48 26.02 63.48 29.05 62.97 C30.23 73.13 27.6 80.65 22.05 88.97 C17.65 93.8 12.3 95.91 6.16 97.82 C3.89 98.82 3.89 98.82 2.85 101.12 C1.54 105.83 0.88 110.65 0.13 115.48 C-1.33 120.21 -3.63 121.67 -7.81 124.02 C-17.67 127.69 -29.91 127.18 -39.87 124.12 C-43.46 122.14 -46.32 119.97 -47.59 115.93 C-48.2 112.76 -48.67 109.59 -49.07 106.39 C-49.47 104.02 -49.85 102.12 -50.95 99.97 C-53.48 98.33 -56.04 97.71 -58.95 96.97 C-66.86 93.16 -73.62 87.26 -77.27 79.12 C-78.85 74.13 -79.62 68.98 -77.95 63.97 C-76.3 63.97 -74.65 63.97 -72.95 63.97 C-72.67 64.96 -72.39 65.95 -72.1 66.97 C-69.54 75.57 -67.08 83.2 -59.04 88.15 C-54 90.42 -49.24 90.36 -43.95 88.97 C-37.72 86.55 -34.12 82.33 -30.57 76.85 C-29.73 74.33 -29.97 73.46 -30.95 70.97 C-32.72 68.99 -34.49 67.18 -36.42 65.35 C-37.56 64.24 -38.7 63.13 -39.84 62.01 C-41.63 60.29 -43.42 58.56 -45.21 56.84 C-56.49 46 -67.3 35.19 -68.95 18.97 C-81.79 18.97 -100.08 37.83 -108.63 46.16 Z M-25.95 84.97 C-27.1 86.4 -28.25 87.83 -29.38 89.27 C-31.13 91.17 -32.98 92.42 -35.13 93.85 C-38.73 96.46 -40.19 98.49 -40.9 102.88 C-40.99 107.23 -40.11 111.13 -37.76 114.85 C-31.56 118.69 -23.61 119.05 -16.63 117.44 C-12.52 116.05 -10.15 114.69 -7.95 110.97 C-7.22 106.6 -7.43 102.39 -8.95 98.22 C-11.35 95.52 -14 93.55 -16.95 91.46 C-18.76 90.11 -20.27 88.73 -21.82 87.1 C-22.52 86.4 -23.22 85.69 -23.95 84.97 C-24.61 84.97 -25.27 84.97 -25.95 84.97 Z " fill="#000000" transform="translate(624.9462890625,431.02783203125)"/>
<path d="M0 0 C5.69 5.24 7.97 10.72 8.35 18.39 C8.13 25.04 5.79 30.17 1.6 35.27 C-4.93 40.59 -10.6 43.01 -19.09 42.46 C-26.39 40.93 -32.02 37.79 -36.37 31.64 C-39.63 25.86 -40.79 19.62 -39.68 13.07 C-37.68 6.05 -33.72 0.83 -27.46 -2.92 C-18.01 -7.47 -8.47 -6.26 0 0 Z " fill="#000000" transform="translate(471.0859375,404.54296875)"/>
<path d="M0 0 C6.56 4.97 10.17 10.26 11.34 18.38 C11.82 25.96 9.32 32.09 4.43 37.86 C-0.48 42.49 -5.98 44.76 -12.7 45.16 C-20.6 44.88 -26.21 42.04 -31.6 36.29 C-35.65 31.06 -37.28 25.75 -36.94 19.12 C-36.06 12.45 -33.18 6.69 -28.19 2.12 C-19.3 -3.8 -9.67 -5.04 0 0 Z " fill="#000000" transform="translate(758,402)"/>
<path d="M0 0 C4.39 3.44 7.91 7.54 11.39 11.87 C11.88 12.47 12.37 13.06 12.87 13.67 C14.52 15.85 15.38 17.39 15.41 20.15 C13.85 24.31 10.78 26.38 7.39 29.12 C6 30.28 4.62 31.45 3.25 32.61 C2.58 33.17 1.91 33.74 1.22 34.32 C-5.95 40.4 -11.5 47.07 -16.63 54.91 C-18.77 58.02 -19.98 59.61 -23.54 61.05 C-27.53 60.82 -29.95 59.26 -33.05 56.93 C-33.62 56.52 -34.19 56.1 -34.78 55.68 C-43.92 48.83 -51 39.98 -53.28 28.53 C-54.26 18.74 -53.24 11.03 -47.45 2.95 C-35.06 -11.07 -14.7 -9.49 0 0 Z M-40.61 8.87 C-44.67 15.77 -45.51 22.12 -43.61 29.87 C-40.69 38.09 -35.84 44.05 -28.61 48.87 C-26.14 49 -26.14 49 -23.61 47.87 C-21.75 45.97 -20.17 44.15 -18.55 42.06 C-14.64 37.21 -10.59 32.63 -6.18 28.25 C-5.68 27.75 -5.18 27.25 -4.67 26.74 C-2.12 24.23 0.46 21.93 3.39 19.87 C2.55 14.05 -2.36 10.51 -6.61 6.87 C-17.34 -0.03 -31.32 -0.92 -40.61 8.87 Z " fill="#000000" transform="translate(407.61328125,160.12890625)"/>
<path d="M0 0 C5.24 4.01 10.39 9.72 11.73 16.32 C12.85 27.57 11.34 37.83 4.54 47.07 C-2.02 54.79 -9.42 60.45 -18.27 65.32 C-21.39 62.42 -23.58 59.44 -25.83 55.82 C-32.67 45.45 -41.06 37.12 -50.67 29.33 C-53.62 26.92 -55.96 24.97 -57.27 21.32 C-49.28 9.48 -40.12 -0.67 -25.71 -4.32 C-16.72 -5.62 -7.86 -4.84 0 0 Z M-43.27 17.32 C-44.53 19.47 -44.53 19.47 -45.27 21.32 C-44.46 22.13 -43.65 22.94 -42.82 23.77 C-36.38 30.21 -36.38 30.21 -34.79 31.81 C-33.44 33.16 -32.08 34.49 -30.72 35.83 C-28.93 37.65 -27.21 39.49 -25.52 41.4 C-25.05 41.92 -24.59 42.44 -24.12 42.98 C-23.17 44.05 -22.22 45.13 -21.29 46.21 C-19.4 48.33 -17.73 50.1 -15.17 51.37 C-10.96 51.27 -8.03 47.17 -5.27 44.32 C0.85 37.43 3.23 31.01 2.97 21.75 C2.43 16.28 0.39 12.66 -3.58 9.01 C-17 -1.49 -33.12 6.05 -43.27 17.32 Z " fill="#000000" transform="translate(834.26953125,157.67578125)"/>
<path d="M0 0 C4.13 3.74 6.27 6.73 7.01 12.21 C7.26 18.76 6.66 24.08 2.62 29.38 C-2.16 34.46 -6.69 37.37 -13.75 37.75 C-19.77 37.6 -23.28 35.25 -27.75 31.25 C-30.71 26.02 -30.93 20.1 -29.81 14.25 C-27.66 7.13 -22.76 1.92 -16.38 -1.62 C-10.81 -3.48 -5.21 -2.51 0 0 Z M-16.38 9.38 C-19.23 12.61 -20.63 15.17 -20.88 19.44 C-20.32 23.82 -19.84 25.62 -16.38 28.38 C-12.27 28.45 -10.01 27.79 -6.56 25.56 C-3.23 22.23 -2.09 19.52 -2.06 14.81 C-2.05 14.05 -2.03 13.28 -2.01 12.5 C-2.46 9.85 -3.29 9.01 -5.38 7.38 C-9.89 5.67 -12.43 6.78 -16.38 9.38 Z " fill="#000000" transform="translate(915.375,826.625)"/>
<path d="M0 0 C5.76 4.03 9.53 9.22 11.74 15.88 C12.53 22.39 11.53 27.47 7.74 32.88 C3.15 37.24 -0.69 38.25 -6.85 38.14 C-12.85 37.47 -16.91 34.71 -20.63 30.06 C-24.81 23.91 -26.3 17.23 -25.26 9.88 C-23.42 4.55 -20.13 1.57 -15.26 -1.12 C-10.15 -2.83 -4.85 -2.41 0 0 Z M-15.26 9.88 C-16.44 15.04 -16.05 20.23 -13.76 25 C-10.44 27.49 -7.39 28.55 -3.26 28.88 C0.2 27.87 0.68 26.96 2.74 23.88 C2.55 18.01 1.6 14.49 -2.26 9.88 C-7.2 6.26 -10.35 5.97 -15.26 9.88 Z " fill="#000000" transform="translate(307.2578125,826.125)"/>
<path d="M0 0 C5.07 5.36 6.46 8.88 6.69 16.25 C6.47 23.02 5.44 27.84 0.76 32.83 C-3.85 36.96 -7.57 38.55 -13.69 38.31 C-19.16 37.61 -22.35 35.55 -25.81 31.31 C-29.51 25.35 -29.62 19.21 -28.81 12.31 C-27.06 6.05 -23.13 1.88 -17.81 -1.69 C-11.69 -4.88 -5.73 -3.44 0 0 Z M-18.81 11.31 C-20.46 16.24 -20.63 20.58 -18.44 25.25 C-16.97 27.41 -16.97 27.41 -14.81 28.31 C-10.98 28.74 -9.28 28.62 -6 26.5 C-3 23.5 -2.65 21.02 -2.56 16.94 C-2.63 12.94 -2.92 10.3 -5.81 7.31 C-12.14 5.16 -14.51 6.81 -18.81 11.31 Z " fill="#000000" transform="translate(872.8125,815.6875)"/>
<path d="M0 0 C5.15 2.09 8.96 5.12 11.56 10.06 C13.91 16.49 14.54 24.02 12.05 30.47 C9.38 34.99 6.17 39.14 0.93 40.56 C-5.73 41.65 -9.96 39.84 -15.69 36.38 C-20.38 31.55 -22.23 26.12 -22.5 19.44 C-22.25 13.45 -20.7 8.76 -16.47 4.43 C-11.13 -0.16 -6.91 -1.01 0 0 Z M-10.31 10.88 C-13.32 14.66 -13.32 17.18 -13 22 C-11.43 26.08 -9.93 28.92 -6 31 C-3.5 31.58 -3.5 31.58 -1 31 C1.79 28.75 2.86 27.42 4 24 C4.5 17.88 4.07 14.91 0 10 C-3.82 8.09 -6.99 8.18 -10.31 10.88 Z " fill="#000000" transform="translate(347,813)"/>
<path d="M0 0 C5.86 3.65 9.75 8.38 11.91 14.95 C12.88 19.73 11.83 23 9.42 27.18 C6.38 31.76 3.64 33.72 -1.75 34.94 C-8.76 35.68 -15.06 34.87 -20.7 30.39 C-25.38 25.96 -28.81 21.59 -29.12 14.94 C-28.91 10.34 -27.62 6.83 -24.32 3.5 C-17.72 -2.25 -8.16 -3.15 0 0 Z M-17.52 9.18 C-19.48 12 -19.28 14.45 -19.16 17.79 C-18.89 20.2 -18.89 20.2 -16.56 22.38 C-11.75 25.05 -8.33 26.42 -2.75 25.94 C0.46 24.73 0.46 24.73 2.25 21.94 C2.64 17.86 2.7 15.65 0.5 12.13 C-3.07 8.65 -5.84 7.65 -10.81 7.63 C-11.67 7.61 -12.52 7.6 -13.41 7.58 C-15.78 7.77 -15.78 7.77 -17.52 9.18 Z " fill="#000000" transform="translate(286.74609375,866.05859375)"/>
<path d="M0 0 C3.85 2.29 5.8 5.04 8.03 8.86 C9.45 14.55 8.5 19.77 5.65 24.86 C2.21 29.89 -2.58 32.71 -8.29 34.61 C-15.12 35.35 -20.62 34.68 -26.29 30.61 C-30.95 25.59 -31.71 22.22 -31.62 15.5 C-30.88 9.09 -27.26 5.04 -22.35 1.11 C-15.7 -2.98 -7.1 -3 0 0 Z M-21.29 13.61 C-22.74 16.52 -22.74 18.39 -22.29 21.61 C-19.71 24.19 -17.78 25.48 -14.09 25.81 C-10.14 25.58 -7.02 24.83 -3.79 22.49 C-0.76 19.01 -0.12 17.2 -0.29 12.61 C-1.4 9.49 -1.4 9.49 -4.29 7.61 C-11.65 5.93 -16.49 7.96 -21.29 13.61 Z " fill="#000000" transform="translate(937.28515625,866.38671875)"/>
</g>
</svg>
