<?xml version='1.0' encoding='UTF-8'?>
<svg xmlns="http://www.w3.org/2000/svg" xmlns:xlink="http://www.w3.org/1999/xlink" width="297" height="210" viewBox="0 0 297 210">
  <rect x="0" y="0" width="297" height="210" fill="white"/>
  <g transform="translate(74.5,31.0) scale(0.20555555555555555)"><path d="M275.8,375.5L275.8,375.5c-14.4-3.3-32.2,40.2-42.2,84.8c-10,44.6-12.5,91.4,2.1,94.7c0.5,0.1,1,0.2,1.5,0.2  c14.2,0,31-42,40.6-85C287.8,425.6,290.3,378.7,275.8,375.5 M272.6,469c-11.7,52.4-28.9,82.3-35.8,80.8c-7.1-1.6-9.7-35.9,2-88.3  c11.4-51.1,27.9-80.8,35.3-80.8c0.2,0,0.4,0,0.5,0.1C281.7,382.3,284.3,416.6,272.6,469"/>
<path d="M652.4,131.9L652.4,131.9c-0.3-0.3-0.6-0.5-0.9-0.6c-1.2-0.5-2.5,0-3.2,1c-0.1,0.1-0.2,0.3-0.2,0.4  c-4.9,4.6-46.1,31.2-100.5,65.5c-0.3-3.6-1.9-8.3-4.9-14c-4.9-9.1-12.8-19.9-22.3-30.4c-9.5-10.4-19.5-19.3-28.2-25  c-9.9-6.5-16.7-8.1-20.4-4.7c-8.1,7.4,7.3,31.7,25.1,51.1c12.8,14,28.1,27,38.8,30.5c-6.2,3.9-12.6,7.9-19.1,12  c-2.2-14.9-28.2-41-57.3-62.4c-18.2-13.3-36.5-24.2-51.7-30.5c-16.7-7-27.3-7.7-31.4-2.1c-4.1,5.6-0.3,15.5,11.4,29.3  c10.6,12.6,26.4,26.9,44.6,40.2c24.3,17.9,51.2,32.7,68,35.8c-10.1,6.3-20.5,12.8-30.9,19.3c-0.7-8.6-10.9-19.3-20.3-27.3  c-15.2-13.1-37.1-27.1-61.6-39.6c-45.3-23-97.8-39-105.9-23.1c-8.1,15.9,35.7,49,81,72.1c24.5,12.5,48.8,21.9,68.3,26.5  c6.4,1.5,13.6,2.8,20,2.9c-15,9.3-30.1,18.7-44.9,27.8c-0.3-9.3-11.1-20.8-21-29.5c-15.9-13.9-38.9-28.8-64.7-42  c-47.6-24.2-103-40.7-111.8-23.4c-8.8,17.3,37.1,52.3,84.8,76.6c25.8,13.1,51.4,23,72,27.6c6.7,1.5,14.2,2.8,20.9,2.9  c-15.7,9.7-30.9,19-45.2,27.6c-1.3-6.1-7.9-14.1-19.9-23.9c-14.7-12-35.7-25.1-59-37c-44.2-22.5-92.7-38.1-99.8-24.3  c-3.3,6.4,3.3,16.3,19.4,29.4c14.7,12,35.7,25.1,59,37c30.7,15.6,63.4,27.9,82.9,29.4c-16.4,10-31.2,18.9-43.6,26.2  c2.6-14.3-39-34-82.3-46.3c-43.9-12.5-90.5-17.7-94.6-3.4c-4.1,14.3,38.3,34.5,82.2,47c25.4,7.2,51.7,12,70.1,12  c3.6,0,6.9-0.2,9.8-0.6c-3.8,2.2-7.2,4.2-10.1,5.8c-4.7,2.5-8,4.4-10,5.4c-11.7-9.7-59.8,9.5-91.2,25.8  c-33.3,17.3-80.2,48.3-72.8,62.6c1.7,3.3,5.9,4.8,11.8,4.8c19.1,0,55.7-15.2,81.2-28.5c31.4-16.3,74.8-44.8,73.5-59.9  c2.8-1.5,6.6-3.5,11.4-6.2c13.3-7.3,35.6-19.4,63-34.6c-8.9,16.8-14.2,53.3-15.2,89.7c-1.3,49.6,5.4,100.1,20.9,100.5h0.2  c15.4,0,24.8-49.8,26.1-99.2c1.2-45.4-4.3-91.3-17.1-99.2c14.9-8.3,31-17.3,47.8-26.8c-10.7,19.4-17.1,59.2-18.1,97.4  c-1.4,53.4,7.5,110.5,26.8,111c0.1,0,0.2,0,0.3,0c19.2,0,31.1-56.2,32.5-109.4c1.3-49.2-6.1-101.4-22.4-109.8  c15.4-8.8,31.3-17.9,47.1-27.1c-3.2,5.9-5.7,13.4-7.6,20.2c-5.3,19.4-8.6,45.2-9.3,72.7c-0.7,27.5,1.2,53.4,5.4,73.1  c3.2,14.7,9.1,32.2,19.3,32.5h0.2c17.7,0,28.7-53.5,30.1-104.1c0.7-27.5-1.2-53.4-5.4-73c-2.7-12.7-7.5-27.4-15.3-31.4  c11.3-6.6,22.5-13.3,33.6-19.9c-6.3,15.4-6.3,47.8-2,79.3c3.1,22.3,8,43.1,14,58.4c6.3,16,12.7,24.1,19.2,24.1c0.4,0,0.7,0,1.1-0.1  c6.9-0.9,11.3-10.5,13.1-28.6c1.7-16.4,0.9-37.7-2.1-60c-3-22.3-8-43.1-14-58.4c-5-12.8-10.2-20.6-15.4-23.1c7.8-4.7,15.5-9.4,23-14  c-4.5,9.4-0.2,32.3,7,52.9c8.1,23.3,20.8,46.8,30.9,46.8c0.7,0,1.4-0.1,2-0.3c4.7-1.6,6.6-8.4,5.6-20.2c-0.9-10.3-3.9-23.3-8.5-36.7  c-7.9-22.7-20.3-45.5-30.2-46.7c48.9-30.3,89.5-57.7,107.6-75.1c1.2-0.4,2.5-1.2,3-2.7C656.8,136.9,654.4,133.9,652.4,131.9   M500.8,171.7c-21.5-23.6-28.1-41.2-25.4-43.6c0.2-0.2,0.6-0.3,1.3-0.3c1.9,0,5.8,1.1,12.6,5.5c8.3,5.5,17.9,14,27.2,24.2  c9.2,10.1,16.9,20.5,21.5,29.3c5.3,9.9,4.6,13.7,3.9,14.4C539.3,203.5,522.4,195.3,500.8,171.7 M431.9,250.7  c-19.1-4.5-43-13.8-67.1-26.1c-52.3-26.6-83.4-55.6-78.6-64.9c1.3-2.5,5.1-3.7,11.1-3.7c16.5,0,49.3,9.6,87.6,29.1  c24.1,12.3,45.7,26.1,60.6,38.9c16.1,13.8,19.9,22.5,18.1,26C461.8,253.5,452.5,255.6,431.9,250.7 M295.4,263.6  c-55.1-28.1-87.7-59.1-82.4-69.5c1.5-2.9,5.9-4.3,12.8-4.3c17.9,0,52,9.8,91.9,30.1c25.4,12.9,48,27.6,63.7,41.2  c16.9,14.8,20.8,24.3,18.8,28.2s-12,6.4-33.9,1.4C346,286.2,320.8,276.5,295.4,263.6 M186.5,355.4c-51.6-14.7-80.5-33.5-78.5-40.4  c0.8-3,7.5-4.8,18.9-4.8c15.4,0,39.5,3.4,69.2,11.9c51.6,14.7,80.5,33.5,78.6,40.5C272.5,369.4,238.1,370.1,186.5,355.4   M171.3,443.2c-47.7,24.8-82.7,32-85.8,26c-3.1-6,22.8-30.6,70.5-55.4c37.2-19.4,66.7-28,79.4-28c3.6,0,5.8,0.7,6.5,2  C245,393.8,219.1,418.3,171.3,443.2 M348.3,437.9c-1.6,58.4-13.1,94.1-20.8,94.1h-0.1c-7.6-0.2-17.3-36.5-15.7-95.1  c1.6-58.4,13.1-94.1,20.8-94.1h0.1C340.2,343.1,349.9,379.3,348.3,437.9 M420.5,410.9c-1.7,61.6-15.6,104.3-27.2,104.3  c0,0-0.1,0-0.1,0c-11.6-0.3-23.3-43.8-21.7-105.6c1.7-61.6,15.6-104.3,27.2-104.3c0,0,0.1,0,0.1,0  C410.4,305.6,422.1,349.1,420.5,410.9 M478,296.5c4.1,19.2,6,44.7,5.3,71.8c-1.6,58.6-14.5,99.1-24.8,98.9c-4-0.1-9.8-7.6-14.2-28.3  c-4.1-19.2-6-44.7-5.3-71.8c0.7-27.1,4-52.4,9.1-71.4c5.5-20.3,11.7-27.5,15.6-27.5h0.1C467.7,268.3,473.5,275.8,478,296.5   M525.8,260.8c5.8,14.9,10.7,35.3,13.7,57.2c3,21.9,3.8,42.8,2.1,58.8c-1.7,17-5.7,23.5-8.6,23.8c-2.9,0.4-8.4-4.8-14.7-20.7  c-5.8-14.9-10.7-35.2-13.7-57.2c-6.8-49.7-0.8-81.6,6.5-82.6C514.2,239.8,519.6,244.9,525.8,260.8 M570.3,266  c4.5,12.9,7.4,25.5,8.3,35.4c1,11.2-1.2,14.4-2.1,14.7c-3.4,1.3-15.7-13-26.2-43.2c-10.5-30.2-9.6-48.9-6.2-50.1  C547.6,221.6,559.9,235.8,570.3,266 M435.3,188c-17.8-13.1-33.4-27.1-43.7-39.4c-11-13-12.9-20.4-11.2-22.7c0.7-0.9,2.3-1.6,5-1.6  c4.1,0,10.6,1.4,20.1,5.4c14.8,6.2,32.8,16.8,50.6,29.9c39.2,28.8,58,54.5,55.1,61.5c-1.1,0.7-2.3,1.4-3.4,2.1  C498.2,224.6,470.3,213.7,435.3,188 M242.8,303c-23-11.7-43.6-24.6-58-36.4c-16.5-13.4-19.1-20.7-18-22.9c0.8-1.6,3.5-2.5,7.9-2.5  c14,0,44.9,8.8,84.8,29.1c23,11.7,43.6,24.6,58,36.4c16.5,13.4,19.1,20.7,18,22.9c-0.1,0.1-0.2,0.2-0.2,0.3  c-0.9,0.6-1.8,1.1-2.7,1.7C322.2,334.3,288.3,326.2,242.8,303 M649.6,138.2c-33.7,33-155.5,105.3-257.1,163  c23.4-14.4,47.7-29.5,71.4-44.2c17-10.6,32.5-20.2,46.6-29.1c1.9-0.6,3.5-1.5,4.6-2.9c99-62,127.2-81.2,135.1-87.7  c0.1,0.1,0.1,0.2,0.2,0.3C650,137.8,649.8,138,649.6,138.2"/>
</g>
</svg>
