<?xml version='1.0' encoding='UTF-8'?>
<svg xmlns="http://www.w3.org/2000/svg" xmlns:xlink="http://www.w3.org/1999/xlink" width="297" height="210" viewBox="0 0 297 210">
  <rect x="0" y="0" width="297" height="210" fill="white"/>
  <g transform="translate(74.5,31.0) scale(0.148)"><style type="text/css">
	.st0{fill:none;stroke:#000000;stroke-width:5;stroke-miterlimit:10;}
	.st1{fill:none;stroke:#000000;stroke-width:5;stroke-linecap:round;stroke-linejoin:round;stroke-miterlimit:10;}
</style>
<path class="st0" d="M425.71,382.53c0,0,9.81,41.87,37.26,41.87c17.74,0,48.18,3.89,67.5,6.64c15.78,2.25,31.74-4.37,40.63-17.6  c3.89-5.78,6.23-13.43,4.64-20.44"/>
<ellipse class="st0" cx="399.84" cy="302.51" rx="81.39" ry="85.15"/>
<ellipse class="st0" cx="609.76" cy="315.74" rx="81.39" ry="85.15"/>
<path class="st0" d="M401.2,387.44c5.94,5.94,6.74,24.88,7.48,36.86c0.17,2.76-1.89,5.15-4.65,5.4  c-48.59,4.57-73.48,27.35-84.25,41.06c-4.24,5.39-12.02,6.37-17.38,2.08l-30.85-24.68c-4.38-3.5-5.75-9.55-3.31-14.6  c10.8-22.32,36.77-84.18,18.87-131.06c-21.84-57.2-108.06-144.03-145.78-55.26c-1.18,2.77-0.46,6.01,1.84,7.95  c11.67,9.86,18.38,20.14,21.84,26.68c2.12,4,2.79,8.59,1.94,13.04l-0.22,1.15c-0.66,3.46,1.08,6.9,4.21,8.52  c9.44,4.89,26.6,20.44,12.87,66.53c-2.52-6.3,9.54-10.17-38.78-30.36c-3.35-1.4-5.41-4.8-5.07-8.41  c1.26-13.36,2.47-43.54-19.54-47.17c-2.93-0.48-5.23-2.76-5.74-5.69c-3.34-19.07-0.45-42.82-17.15-40.43  c0,0-64.07,56.22-33.99,128.13c29.32,70.11,93.44,116.61,159.04,95.26c3.24-1.05,6.78-0.63,9.62,1.25l52.46,34.74  c8.26,5.47,11.49,15.97,7.85,25.19c-8.34,21.09-18.32,65.69-1.14,141.01c25.5,111.79,179.45,126.5,320.66,94.14  c121.37-27.81,99.3-179.5,90.71-221.58c-1.35-6.61,1.48-13.37,7.14-17.04l56.87-36.84c1.96-1.27,4.4-1.54,6.6-0.74  c15.87,5.78,83.34,27.53,129.63-1.54c51.85-32.56,120.23-134.04,25.81-153.75c-2.95-0.62-5.98,0.72-7.44,3.35  c-7.4,13.37-16.18,21.95-21.92,26.62c-3.51,2.85-7.89,4.41-12.41,4.45l-1.17,0.01c-3.52,0.03-6.56,2.4-7.54,5.79  c-2.96,10.21-14.87,30.07-62.75,25.58c5.69-3.7,11.84,7.37,22.22-43.95c0.72-3.55,3.65-6.24,7.26-6.61  c13.35-1.36,43.18-6.06,42.46-28.35c-0.1-2.97,1.69-5.67,4.46-6.74c18.06-6.99,41.91-8.78,36.32-24.7c0,0-67.62-51.89-132.3-8.39  s-100.86,115.07-62.74,176.15l0,0c1.25,1.83,0.71,4.33-1.18,5.49l-40.41,24.57c-4.95,3.1-11.44,2.15-15.27-2.26  c-21.15-24.37-40.95-24.27-62.39-32.31c-23.53-8.83-8.83-46.07-8.83-46.07"/>
<path class="st0" d="M709.68,621.48c0,0,86.28,86.67,55.26,117.69c-3.86,3.92-12.36,8.8-27.39-21.42s-34.83-49.35-34.83-49.35"/>
<path class="st0" d="M699.5,678.05c0,0,50.78,68.69,23.67,95.81c-4.58,2.58-12.71,9.47-39.04-64.1"/>
<path class="st0" d="M676.9,720.45c0,0,24.34,49.45,0,67.1c-24.34,17.65-29.27-42.45-29.27-42.45"/>
<path class="st0" d="M709.96,602.57c0,0,42.06,9.17,85.52,103.98c2.81,6.12,9.88,9.37,16.16,6.92c12.9-5.03,13.23-29.45-2.18-56.95  c-19.61-35.01-49.91-80.82-101.77-87.99"/>
<path class="st0" d="M283.58,614.65c0,0-87.28,86.67-56.26,117.69c3.86,3.92,12.36,8.8,27.39-21.42  c15.04-30.22,36.83-49.35,36.83-49.35"/>
<path class="st0" d="M292.77,669.21c0,0-50.78,70.69-23.67,97.81c4.58,2.58,12.71,10.47,39.04-63.1"/>
<path class="st0" d="M315.37,713.62c0,0-24.34,49.45,0,67.1c24.34,17.65,29.27-42.45,29.27-42.45"/>
<path class="st0" d="M282.3,595.73c0,0-42.06,9.17-85.52,103.98c-2.81,6.12-9.88,9.37-16.16,6.92c-12.9-5.03-13.23-29.45,2.18-56.95  c19.61-35.01,49.91-80.82,101.77-87.99"/>
<path class="st1" d="M386,614.65c0,0,93.23,184.44,203.53,0"/>
<path d="M634.83,306.26c-1.43-16.6-14.88-29.01-30.03-27.7c-15.16,1.31-26.28,15.83-24.85,32.43s14.88,29.01,30.03,27.7  C625.14,337.39,636.26,322.87,634.83,306.26z M596.93,321.59c-1.94,0.35-3.83-1.21-4.24-3.47c-0.41-2.26,0.84-4.38,2.77-4.73  c1.94-0.35,3.83,1.21,4.24,3.47C600.1,319.13,598.86,321.24,596.93,321.59z M616.53,312.44c-5.16,0.92-10.22-3.22-11.3-9.26  c-1.08-6.04,2.23-11.68,7.39-12.6c5.16-0.92,10.22,3.22,11.3,9.26C624.99,305.87,621.69,311.52,616.53,312.44z"/>
<path d="M424.08,300.77c-5.18-15.84-21.1-24.85-35.56-20.12c-14.46,4.73-21.98,21.4-16.8,37.24s21.1,24.85,35.56,20.12  C421.74,333.28,429.26,316.61,424.08,300.77z M390.67,324.34c-1.81,0.78-4.01-0.3-4.92-2.41s-0.19-4.46,1.62-5.24  c1.81-0.78,4.01,0.3,4.92,2.41C393.2,321.21,392.47,323.56,390.67,324.34z M407.66,310.96c-4.81,2.08-10.69-0.8-13.12-6.43  c-2.43-5.63-0.5-11.88,4.32-13.96c4.81-2.08,10.69,0.8,13.12,6.43C414.41,302.63,412.48,308.88,407.66,310.96z"/>
</g>
</svg>
