<?xml version='1.0' encoding='UTF-8'?>
<svg xmlns="http://www.w3.org/2000/svg" xmlns:xlink="http://www.w3.org/1999/xlink" width="297" height="210" viewBox="0 0 297 210">
  <rect x="0" y="0" width="297" height="210" fill="white"/>
  <g transform="translate(103.4577503049687,31.0) scale(0.3792887822779879)"><path d="M236.664,44.065c-1.171-1.56-3.172-2.216-5.058-1.392c-1.216,0.531-2.35,1.331-3.388,2.173  c-2.936,2.382-5.782,4.874-8.704,7.273c-4.475,3.674-9.171,7.044-14.413,10.01c1.139-7.538,1.921-15.053,4.549-22.192  c1.021-2.773,0.222-4.857-1.977-5.767c-2.32-0.961-4.97-0.07-6.2,2.298c-0.674,1.299-1.113,2.754-1.45,4.188  c-1.915,8.155-3.12,16.441-4.131,24.742c-0.33,2.71-1.304,4.449-3.661,5.758c-5.427,3.015-10.728,6.255-16.139,9.298  c-7.068,3.974-14.31,7.601-22.06,10.08c-1.04,0.332-2.124,1.259-3.305,0.505c-0.235-0.816,0.053-1.434,0.247-2.077  c3.039-10.078,5.899-20.206,8.472-30.415c4.357-17.282,7.092-34.911,11.205-52.244c0.215-0.905,0.262-1.877,0.217-2.809  c-0.081-1.655-1.015-2.796-2.567-3.283c-1.721-0.54-3.215-0.033-4.301,1.424c-0.822,1.103-1.113,2.434-1.461,3.744  c-2.424,9.132-4.552,18.334-6.612,27.553c-0.262,1.174-0.054,2.681-1.559,3.678c-1.116-1.38-2.174-2.596-3.129-3.887  c-3.453-4.667-6.825-9.395-10.321-14.029c-2.115-2.805-4.819-3.405-6.942-1.758c-2.026,1.572-2.182,4.11-0.358,6.871  c0.743,1.125,1.567,2.201,2.409,3.256c4.462,5.594,8.914,11.197,13.426,16.751c2.279,2.805,3.297,5.729,2.076,9.37  c-0.984,2.932-1.492,6.021-2.295,9.018c-11.826,44.148-28.053,86.762-45.041,129.11c-0.24,0.599-0.438,1.26-1.503,1.444  c-1.499-8.088-3.054-16.162-4.486-24.257c-4.906-27.736-7.129-55.677-6.298-83.846c0.036-1.21,0.199-2.424-0.164-3.621  c-0.52-1.713-1.611-2.803-3.407-3.035c-1.677-0.217-3.447,0.929-4.042,2.738c-0.331,1.007-0.382,2.117-0.476,3.188  c-0.98,11.189-0.757,22.394-0.481,33.602c0.034,1.403,0.481,2.884-0.168,4.208c-1.304,0.183-1.964-0.622-2.712-1.121  c-7.746-5.16-15.755-9.982-21.591-17.528c-1.413-1.826-3.399-1.974-5.059-0.899c-1.579,1.023-2.116,2.937-1.436,5.03  c0.386,1.188,1.148,2.136,1.925,3.067c2.253,2.701,4.677,5.232,7.394,7.48c5.104,4.225,10.35,8.309,16.02,11.692  c4.885,2.915,7.212,6.393,7.712,12.375c1.494,17.897,5.142,35.511,8.597,53.125c0.698,3.561,0.823,7.336,2.548,10.58  c0.845,1.59,0.594,2.702,0.006,4.103c-12.431,29.658-26.32,58.603-42.317,86.516c-0.635,1.108-0.956,2.506-2.547,3.215  c-2.691-4.691-5.399-9.344-8.043-14.034c-7.165-12.707-13.908-25.62-19.2-39.249c-0.739-1.904-0.72-3.319,0.412-5.193  c7.671-12.708,14.265-26.051,22.588-38.382c1.43-2.119,1.157-4.097-0.443-5.451c-1.545-1.307-3.791-1.255-5.526,0.352  c-0.974,0.902-1.736,2.056-2.492,3.167c-6.078,8.935-11.788,18.098-17.054,27.538c-0.605,1.085-0.861,2.559-2.572,3.009  c-3.468-11.59-6.806-23.113-8.301-35.079c-0.318-2.544-0.433-5.117-0.849-7.642c-0.355-2.154-2.016-3.504-3.901-3.418  c-2.018,0.092-3.269,1.272-3.706,3.156c-0.269,1.161-0.323,2.417-0.228,3.61c0.269,3.363,0.579,6.727,1.025,10.07  c2.17,16.281,6.858,31.91,12.617,47.222c4.055,10.779,9.131,21.14,14.594,31.267c2.761,5.118,5.623,10.181,8.509,15.23  c1.413,2.472,2.837,4.937,4.248,7.409c1.853,3.246,4.606,4.411,2.249,8.412c-1.358,2.307-2.602,4.637-3.912,6.973  c-2.16,3.85-4.413,7.646-6.713,11.413c-4.534,7.428-9.252,14.74-13.818,22.148c-6.435,10.439-12.146,21.365-20.179,30.776  c-1.878,2.2-0.984,5.764,1.388,7.017c1.951,1.031,4.309,0.541,6.076-1.726c2.57-3.297,5.074-6.674,7.283-10.218  c19.497-31.28,38.725-62.723,56.135-95.229c1.847-3.448,4.311-5.612,7.778-7.163c11.36-5.083,23.118-9.042,34.977-12.73  c8.248-2.565,8.229-2.491,15.752,1.959c9.438,5.584,18.174,12.155,26.853,18.817c1.175,0.902,2.358,1.839,3.663,2.519  c2.072,1.081,4.23,0.691,5.576-0.774c1.84-2.003,1.395-4.89-1.311-6.954c-8.263-6.304-16.385-12.814-25.504-17.905  c-1.611-0.899-3.343-1.66-4.876-3.188c1.37-1.066,2.878-1.251,4.253-1.629c11.059-3.039,22.135-6.018,33.205-9.016  c1.042-0.282,2.106-0.504,3.12-0.865c2.891-1.028,4.139-3.004,3.545-5.496c-0.573-2.406-2.811-3.652-5.724-3.137  c-0.928,0.164-1.838,0.437-2.753,0.672c-11.895,3.05-23.758,6.215-35.541,9.681c-17.473,5.139-35.106,9.795-51.78,17.321  c-0.511,0.231-0.995,0.368-1.488-0.276c0.164-0.426,0.316-0.938,0.548-1.412c14.86-30.323,27.883-61.438,40.085-92.908  c1.286-3.316,1.321-3.431,5.012-2.995c12.634,1.494,25.063,0.082,37.409-2.512c5.548-1.166,11.014-2.671,16.382-4.512  c1.306-0.448,2.436-0.767,3.687,0.44c7.204,6.949,15.928,11.499,24.969,15.514c1.106,0.491,2.247,0.977,3.422,1.221  c2.173,0.45,4.156-0.638,4.988-2.54c0.839-1.918,0.282-3.994-1.679-5.3c-1.22-0.812-2.622-1.384-3.998-1.922  c-5.935-2.322-11.461-5.428-16.867-8.759c-1.188-0.732-2.554-1.351-3.347-2.907c1.262-0.65,2.321-1.212,3.395-1.745  c8.099-4.022,16.203-8.036,24.3-12.061c1.327-0.66,2.711-1.248,3.746-2.363c1.577-1.701,1.792-4.177,0.546-5.961  c-1.192-1.707-3.118-2.161-5.422-1.212c-0.745,0.306-1.421,0.775-2.145,1.139c-9.525,4.792-18.974,9.744-28.714,14.096  c-15.344,6.856-31.54,10.194-48.228,11.297c-4.12,0.272-8.289,0.396-12.363-0.298c-0.39-1.248,0.163-2.101,0.484-2.947  c6.505-17.164,12.415-34.539,18.359-51.9c0.787-2.299,2.142-3.162,4.258-3.667c7.107-1.696,14.054-3.947,20.623-7.142  c23.315-11.339,44.756-25.548,64.381-42.493c0.406-0.35,0.806-0.73,1.119-1.161C237.797,47.681,237.81,45.592,236.664,44.065z"/>
<g>
</g>
<g>
</g>
<g>
</g>
<g>
</g>
<g>
</g>
<g>
</g>
</g>
</svg>
