<?xml version='1.0' encoding='UTF-8'?>
<svg xmlns="http://www.w3.org/2000/svg" width="297" height="210" viewBox="0 0 297 210">
  <rect x="0" y="0" width="297" height="210" fill="white"/>
  <g transform="translate(74.96249999999999,31.0) scale(0.115625)"><path d="M0 0 C1.66 1.49 3.31 2.99 4.93 4.52 C6.87 6.36 8.88 8.04 10.95 9.74 C31.05 27.45 47.03 55.31 52.07 81.55 C52.22 82.29 52.36 83.02 52.51 83.78 C59.17 118.44 54.03 156.24 33.97 185.92 C25.98 197 17.6 208.29 7.01 217.05 C4.27 219.39 3.29 220.31 2.07 223.55 C1.86 226.13 1.86 226.13 2.02 228.92 C2.05 229.96 2.07 231.01 2.1 232.08 C2.13 233.19 2.17 234.29 2.2 235.43 C2.37 245.32 1.56 253.24 -1.93 262.55 C-1.15 262.54 -0.37 262.53 0.43 262.52 C56.17 261.87 96.11 279.42 138.87 314.67 C166.48 337.41 193.84 353.91 228.96 362.25 C233.97 363.45 233.97 363.45 235.07 364.55 C235.54 368.28 235.46 370.01 233.27 373.12 C226.84 379.37 220.08 384.64 212.65 389.67 C211.94 390.15 211.23 390.62 210.5 391.12 C209.87 391.54 209.23 391.96 208.57 392.4 C206.92 393.5 206.92 393.5 206.07 395.55 C206.91 395.94 206.91 395.94 207.76 396.34 C229.1 407.54 247.23 429.95 257.43 451.41 C258.32 454.37 257.81 456.59 257.07 459.55 C256.07 460.55 256.07 460.55 253.13 460.6 C251.82 460.57 250.52 460.54 249.17 460.51 C247.72 460.48 246.26 460.46 244.81 460.43 C244.05 460.42 243.28 460.41 242.5 460.4 C229.23 460.21 216.75 460.22 204.07 464.55 C203.26 464.82 202.45 465.09 201.62 465.36 C182.12 471.95 164.86 482 147.27 492.51 C137.53 498.33 127.66 503.84 117.65 509.17 C115.15 510.51 112.66 511.87 110.17 513.24 C84.87 527 58.2 537.43 30.95 546.6 C29.97 546.94 28.99 547.28 27.98 547.63 C27.11 547.93 26.24 548.23 25.34 548.53 C21.72 550.16 20.2 552.23 18.07 555.55 C15.57 563.05 17.48 570.8 19.2 578.3 C19.42 579.29 19.64 580.28 19.86 581.3 C21.64 589.15 23.77 596.88 26.19 604.55 C28.12 610.86 29.46 616.56 26.57 622.8 C20.87 629.07 11.96 631.04 4.14 633.61 C-5.32 636.8 -14.54 640.34 -23.68 644.36 C-24.72 644.82 -25.76 645.27 -26.83 645.74 C-37.86 650.69 -44.02 655.68 -49.05 666.93 C-62.69 703.69 -58.42 747.9 -56.71 786.21 C-56.54 790.1 -56.37 793.99 -56.21 797.89 C-56 802.77 -55.79 807.65 -55.57 812.53 C-55.1 823.45 -54.64 834.38 -54.2 845.31 C-54.09 847.8 -53.99 850.29 -53.89 852.78 C-53.34 866.2 -53.34 866.2 -53.11 871.91 C-52.96 875.6 -52.81 879.3 -52.66 883 C-52.58 884.98 -52.5 886.96 -52.42 888.94 C-52.27 892.48 -52.11 896.01 -51.93 899.55 C-51.87 900.74 -51.81 901.94 -51.76 903.17 C-51.69 904.32 -51.62 905.47 -51.55 906.65 C-51.46 908.18 -51.46 908.18 -51.38 909.74 C-49.67 920.35 -37.92 928.8 -30.53 935.88 C-28.79 937.69 -27.28 939.43 -25.93 941.55 C-26.55 944.24 -26.55 944.24 -27.93 946.55 C-35.62 949.12 -44.38 948.64 -52.44 948.95 C-74.1 949.77 -94.84 951.22 -116.01 956.17 C-118.34 956.63 -120.55 956.7 -122.93 956.55 C-123.59 954.9 -124.25 953.25 -124.93 951.55 C-121.87 947.11 -118.49 944.92 -113.74 942.62 C-112.69 942.1 -112.69 942.1 -111.62 941.56 C-109.4 940.44 -107.16 939.34 -104.93 938.24 C-80.67 927.05 -80.67 927.05 -64.93 906.55 C-63.65 901.92 -63.94 897.54 -64.24 892.8 C-64.29 892 -64.34 891.19 -64.39 890.37 C-64.83 880.42 -64.83 880.42 -69.18 871.74 C-73.83 868.03 -78.55 865.11 -83.93 862.55 C-83.43 855.1 -81.51 848.84 -78.93 841.86 C-74.93 830.96 -71.47 820.27 -75.69 808.88 C-79.42 801.86 -85.84 796.38 -91.85 791.31 C-94.14 789.37 -96.34 787.34 -98.55 785.3 C-104.75 779.71 -111.3 774.62 -117.93 769.55 C-118.54 769.08 -119.16 768.6 -119.79 768.12 C-140.42 752.32 -161.84 737.74 -184.41 724.85 C-193.85 719.41 -193.85 719.41 -196.05 715.61 C-195.89 712.88 -194.67 711.79 -192.74 709.95 C-188.7 706.84 -183.96 704.88 -179.36 702.74 C-178.2 702.19 -177.04 701.63 -175.84 701.06 C-168.82 697.75 -161.76 694.57 -154.66 691.43 C-153.88 691.08 -153.09 690.73 -152.28 690.37 C-148.42 688.66 -144.55 686.97 -140.68 685.28 C-126.42 679.06 -113.1 672.36 -100.93 662.55 C-100.27 662.06 -99.62 661.57 -98.95 661.07 C-86.46 651.33 -79.08 636 -76.93 620.55 C-76.67 616.84 -76.64 613.15 -76.68 609.43 C-76.69 607.92 -76.69 607.92 -76.7 606.39 C-76.85 583.29 -76.85 583.29 -86.93 563.55 C-92.73 561.77 -98.95 561.26 -104.97 560.61 C-155.61 555.14 -209.25 535.68 -243.64 496.43 C-260.67 474.94 -265.13 449.33 -262.3 422.61 C-261.43 415.69 -259.96 408.95 -258.32 402.17 C-258.06 401.09 -257.8 400 -257.53 398.89 C-254.46 386.36 -250.83 373.99 -247.18 361.61 C-246.16 358.18 -245.15 354.74 -244.15 351.3 C-243.53 349.19 -242.91 347.08 -242.29 344.97 C-230.45 304.52 -244.05 264.25 -256.11 225.49 C-272.75 171.94 -276.03 117.19 -250.93 65.55 C-250.57 64.82 -250.21 64.09 -249.85 63.33 C-244.77 53.03 -238.92 43.65 -231.93 34.55 C-231.24 33.64 -230.56 32.74 -229.86 31.8 C-219.68 18.8 -207.55 6.89 -193.93 -2.45 C-193.34 -2.85 -192.75 -3.26 -192.15 -3.67 C-134.73 -42.61 -54.72 -45.81 0 0 Z M-135.93 -18.45 C-136.67 -18.25 -137.41 -18.05 -138.18 -17.85 C-156.05 -12.9 -174.11 -4.63 -188.93 6.55 C-189.99 7.32 -191.06 8.1 -192.15 8.89 C-230.12 37.03 -250.13 77.73 -257.93 123.55 C-258.1 124.57 -258.1 124.57 -258.29 125.61 C-264.04 159.7 -256.13 192.66 -246.09 225.09 C-245.74 226.22 -245.39 227.34 -245.03 228.5 C-243.27 234.16 -241.5 239.81 -239.7 245.46 C-229.87 276.54 -223.82 307.16 -230.93 339.55 C-231.1 340.36 -231.28 341.18 -231.46 342.02 C-233.87 352.74 -236.83 363.3 -239.88 373.86 C-240.27 375.23 -240.27 375.23 -240.68 376.63 C-242.01 381.24 -243.34 385.83 -244.7 390.43 C-247.72 400.74 -250.21 410.94 -251.93 421.55 C-252.13 422.79 -252.13 422.79 -252.33 424.05 C-255.36 444.29 -252.5 466.2 -241.01 483.43 C-239.07 485.9 -237.04 488.23 -234.93 490.55 C-234.27 491.34 -233.62 492.14 -232.95 492.96 C-200.9 530.95 -143.5 547.33 -95.9 551.54 C-25.51 557.12 41.91 535.92 104.07 504.55 C104.97 504.1 105.86 503.65 106.79 503.19 C117.41 497.82 127.69 491.91 137.95 485.88 C172.19 465.78 203.78 450.61 244.07 449.55 C235.12 430.59 218.21 413.04 200.07 402.55 C194.08 400.55 188.87 401.73 182.96 403.33 C165.76 407.93 145.77 409.94 129.07 402.55 C123.94 400.34 119.62 399.23 114.07 400.55 C109.59 403.57 106.03 407.43 102.38 411.39 C88.7 425.96 65.98 435.59 46.23 436.71 C18.03 437.12 18.03 437.12 4.57 431.86 C-0.09 430.11 -0.09 430.11 -4.93 430.55 C-6.22 432.18 -7.51 433.82 -8.78 435.47 C-11.72 438.32 -14.97 439.98 -18.61 441.8 C-19.26 442.13 -19.91 442.46 -20.57 442.8 C-30.54 447.59 -40.04 449.06 -51.05 448.93 C-52.24 448.92 -53.43 448.91 -54.65 448.9 C-64.04 448.73 -72.84 447.89 -81.93 445.55 C-83.05 445.27 -83.05 445.27 -84.19 444.98 C-116.16 436.7 -148.04 421.46 -172.93 399.55 C-173.62 398.95 -174.31 398.35 -175.03 397.74 C-184.62 388.87 -194.72 374.92 -195.43 361.55 C-194.47 342.92 -176.24 329.6 -163.93 317.55 C-167.21 315.36 -170.03 314.51 -173.8 313.36 C-184.04 310.09 -195.62 305.54 -202.3 296.74 C-203.56 292.33 -203.37 287.9 -201.93 283.55 C-194.86 280.04 -186.52 279.85 -178.8 279.36 C-177.65 279.28 -176.51 279.2 -175.32 279.12 C-172.53 278.92 -169.73 278.73 -166.93 278.55 C-168.16 274.54 -169.7 270.79 -171.49 267 C-190.27 226.88 -200.14 179.13 -185.47 136.18 C-176.24 110.72 -160.68 90.5 -135.93 78.79 C-129.86 76.29 -123.57 74.55 -117.25 72.82 C-112.32 71.36 -109.6 70.2 -106.93 65.55 C-105.48 62.26 -104.16 58.93 -102.93 55.55 C-101.61 55.55 -100.29 55.55 -98.93 55.55 C-98.73 60.7 -99.39 64.91 -100.74 69.86 C-109.68 105.34 -109.14 146.06 -90.93 178.55 C-87.51 184.09 -83.6 189.03 -78.93 193.55 C-76.04 192.24 -73.92 190.78 -71.61 188.61 C-66.23 183.89 -60.19 181.58 -52.98 181.53 C-37.42 182.54 -23.69 189.1 -12.93 200.55 C-11 203.08 -9.21 205.66 -7.47 208.32 C-6.09 210.31 -4.7 211.91 -2.93 213.55 C8.93 203.02 19.29 192.56 27.07 178.55 C27.68 177.46 28.29 176.37 28.91 175.25 C45.2 144.39 48.94 108.19 38.87 74.79 C32.15 53.78 21.17 36.54 6.07 20.55 C5.4 19.81 4.73 19.08 4.04 18.32 C-20.12 -7.19 -56.57 -21.54 -91.29 -22.77 C-106.5 -23.09 -121.16 -22.46 -135.93 -18.45 Z M-151.93 100.55 C-152.53 101.06 -153.13 101.57 -153.75 102.09 C-173 119.63 -181.47 147.51 -182.82 172.65 C-183.95 203.53 -177.47 244.92 -158.93 270.55 C-154.92 273.8 -151.98 273.84 -146.93 273.55 C-128.61 268.63 -106.55 258.79 -96.8 241.99 C-86.08 223.77 -86.08 223.77 -83.93 203.55 C-85.53 200.38 -87.66 197.85 -89.99 195.18 C-91.19 193.69 -92.39 192.21 -93.59 190.71 C-94.17 190 -94.75 189.29 -95.34 188.55 C-115.28 163.33 -117.38 126.33 -113.85 95.8 C-113.25 91.04 -112.62 86.29 -111.93 81.55 C-126.61 81.55 -141.39 91.36 -151.93 100.55 Z M-67.93 195.55 C-71.71 201.25 -73.51 207.17 -75.49 213.68 C-78.19 222.15 -81.35 230.11 -85.49 237.99 C-86.14 239.24 -86.14 239.24 -86.8 240.51 C-92.75 251.43 -100.24 259.99 -110.74 266.68 C-114.18 268.94 -116.52 270.53 -117.93 274.55 C-119.48 285.69 -114.85 297.43 -108.6 306.47 C-106.49 309.15 -105.21 310.46 -101.93 311.55 C-87.59 312.52 -73.94 308.09 -60.93 302.55 C-60.22 302.26 -59.52 301.96 -58.8 301.66 C-37.06 292.39 -18.84 278.4 -9.43 256.11 C-4.96 243.64 -6.25 230.22 -11.37 218.15 C-17.98 205.01 -27.86 196.02 -41.79 191.29 C-50.53 189.24 -61.38 188.34 -67.93 195.55 Z M-10.88 275.75 C-11.5 276.57 -12.11 277.39 -12.74 278.24 C-33.21 304.49 -65.03 315.82 -97.1 319.82 C-103.32 320.52 -109.42 320.63 -115.68 320.51 C-117.71 320.49 -119.74 320.46 -121.77 320.44 C-124.92 320.41 -128.07 320.36 -131.22 320.3 C-134.29 320.25 -137.36 320.22 -140.43 320.2 C-141.37 320.17 -142.3 320.15 -143.26 320.12 C-151.04 320.09 -156.47 322.17 -162.23 327.4 C-163.29 328.46 -164.33 329.53 -165.36 330.61 C-165.92 331.18 -166.47 331.75 -167.04 332.34 C-180.73 345.69 -180.73 345.69 -186.39 362.98 C-184.47 373.57 -177.31 382.2 -169.93 389.55 C-169.12 390.45 -169.12 390.45 -168.29 391.37 C-159.11 401.34 -146.7 408.14 -134.88 414.49 C-133.03 415.5 -131.19 416.53 -129.35 417.57 C-106.45 430.44 -80.73 439.68 -54.3 439.8 C-53.19 439.82 -52.08 439.84 -50.93 439.86 C-38.85 439.92 -27.03 437.49 -16.93 430.55 C-9.3 422.05 -9.2 412.93 -9.69 402.03 C-10.28 395.85 -12.55 390.26 -14.93 384.55 C-15.7 382.7 -16.47 380.84 -17.24 378.99 C-17.72 377.83 -17.72 377.83 -18.21 376.65 C-19.15 373.89 -19.23 371.43 -18.93 368.55 C-16.95 368.55 -14.97 368.55 -12.93 368.55 C0.28 394.1 0.28 394.1 0.2 408.43 C0.2 409.11 0.21 409.79 0.21 410.49 C0.2 414.94 -0.2 419.16 -0.93 423.55 C27.99 430.86 56 429.64 82.07 414.55 C101.89 402.19 114.91 382.47 122.31 360.63 C123.07 358.55 123.07 358.55 124.07 357.55 C127.07 357.43 127.07 357.43 130.07 357.55 C130.4 357.88 130.73 358.21 131.07 358.55 C130.88 364.29 129.74 368.73 127.57 374.05 C125.42 379.39 124.07 383.77 124.07 389.55 C126.26 392.57 129 393.48 132.45 394.68 C133.39 395.01 134.32 395.34 135.29 395.68 C154.46 401.64 176.57 397.7 194.39 389.36 C201.75 385.42 208.42 380.57 215.07 375.55 C215.87 375 216.66 374.45 217.47 373.88 C218.27 373.22 218.27 373.22 219.07 372.55 C219.07 371.89 219.07 371.23 219.07 370.55 C218.53 370.41 217.99 370.27 217.43 370.13 C199.5 365.43 183.12 359.63 168.07 348.55 C166.63 347.51 165.19 346.47 163.75 345.43 C155.69 339.57 147.74 333.56 139.89 327.43 C115.52 308.4 90.51 288.95 61.07 278.55 C60.01 278.17 58.95 277.8 57.85 277.41 C42.01 272.16 25.44 270.38 8.82 270.3 C7.09 270.27 7.09 270.27 5.32 270.24 C3.64 270.23 3.64 270.23 1.93 270.22 C0.93 270.21 -0.08 270.2 -1.11 270.19 C-5.43 270.74 -8.03 272.54 -10.88 275.75 Z M-127.93 274.55 C-128.88 275.02 -129.84 275.49 -130.82 275.98 C-148.4 284.5 -165.65 286.42 -184.98 287.85 C-185.98 287.93 -186.98 288.01 -188.01 288.09 C-188.91 288.15 -189.81 288.22 -190.73 288.29 C-192.97 288.43 -192.97 288.43 -194.93 289.55 C-194.57 292.21 -194.12 293.36 -192.17 295.26 C-173.14 308.64 -150.1 311.41 -127.43 312.11 C-125.48 312.18 -125.48 312.18 -123.49 312.24 C-120.3 312.35 -117.11 312.45 -113.93 312.55 C-114.72 311.04 -114.72 311.04 -115.54 309.5 C-120.02 300.68 -123.04 292.39 -124.73 282.62 C-125.37 278.14 -125.37 278.14 -127.93 274.55 Z M-2.8 553.79 C-4.21 554.06 -5.61 554.32 -7.01 554.58 C-8.11 554.79 -8.11 554.79 -9.23 555 C-25.96 558.14 -42.45 560.45 -59.47 561.3 C-62.68 561.53 -65.76 561.96 -68.93 562.55 C-69.06 571.83 -68.64 581.05 -68.09 590.32 C-68 591.8 -67.91 593.29 -67.82 594.78 C-67.64 597.88 -67.46 600.97 -67.27 604.07 C-67.03 608.02 -66.8 611.97 -66.57 615.92 C-66.39 618.98 -66.21 622.05 -66.03 625.11 C-65.94 626.57 -65.86 628.02 -65.77 629.48 C-65.36 636.53 -64.93 643.55 -63.93 650.55 C-56.29 648.23 -49.3 645 -42.11 641.55 C-31.03 636.29 -19.82 631.58 -8.34 627.24 C3.56 623.06 3.56 623.06 13.7 615.93 C17.12 607.54 14.68 599.23 12.72 590.76 C10.74 581.83 9.9 572.81 9.03 563.72 C8.91 562.56 8.8 561.4 8.69 560.2 C8.59 559.16 8.5 558.12 8.4 557.05 C8.21 554.56 8.21 554.56 7.07 552.55 C3.63 552.55 0.58 553.15 -2.8 553.79 Z M-84.56 670.86 C-85.73 671.38 -85.73 671.38 -86.91 671.92 C-89.48 673.08 -92.05 674.25 -94.61 675.43 C-96.41 676.24 -98.2 677.06 -100 677.87 C-102.8 679.14 -105.59 680.41 -108.39 681.68 C-114.83 684.61 -121.28 687.51 -127.74 690.4 C-144.56 697.94 -161.36 705.47 -177.93 713.55 C-177.93 714.54 -177.93 715.53 -177.93 716.55 C-175.37 718.26 -172.86 719.76 -170.18 721.24 C-168.6 722.14 -167.02 723.04 -165.44 723.95 C-164.28 724.61 -164.28 724.61 -163.09 725.29 C-158.2 728.14 -153.57 731.33 -148.93 734.55 C-148.3 734.98 -147.68 735.41 -147.04 735.85 C-132.48 745.92 -118.32 756.46 -104.91 768 C-102.1 770.4 -99.24 772.73 -96.36 775.05 C-91.3 779.17 -86.52 783.53 -81.73 787.96 C-75.78 793.87 -75.78 793.87 -68.93 798.55 C-68.81 784.01 -69.14 769.52 -69.77 754.99 C-69.85 752.9 -69.94 750.81 -70.03 748.73 C-70.21 744.39 -70.39 740.06 -70.58 735.72 C-70.82 730.2 -71.05 724.68 -71.28 719.16 C-71.46 714.87 -71.64 710.57 -71.82 706.27 C-71.91 704.24 -71.99 702.2 -72.08 700.17 C-72.54 689.28 -73.05 678.41 -73.93 667.55 C-77.95 667.55 -80.97 669.21 -84.56 670.86 Z M-67.93 835.55 C-69.1 838.84 -70.26 842.13 -71.43 845.43 C-71.76 846.36 -72.09 847.3 -72.44 848.27 C-72.91 849.61 -72.91 849.61 -73.39 850.98 C-73.69 851.81 -73.98 852.64 -74.28 853.49 C-75.02 855.51 -75.02 855.51 -74.93 857.55 C-74.37 857.83 -73.82 858.11 -73.25 858.39 C-69.09 860.47 -69.09 860.47 -64.93 862.55 C-65.59 853.64 -66.25 844.73 -66.93 835.55 C-67.26 835.55 -67.59 835.55 -67.93 835.55 Z M-64.11 926.49 C-71.01 931.49 -78.46 935.47 -85.93 939.55 C-85.93 939.88 -85.93 940.21 -85.93 940.55 C-65.63 939.56 -65.63 939.56 -44.93 938.55 C-44.93 934.71 -46.43 933.65 -49.04 931.02 C-49.6 930.47 -50.16 929.93 -50.74 929.36 C-51.29 928.8 -51.83 928.25 -52.4 927.67 C-57.07 923.03 -58.94 922.56 -64.11 926.49 Z " fill="#000000" transform="translate(687.92578125,217.44921875)"/>
<path d="M0 0 C24.58 0.22 46.97 13.34 64 30.38 C70.77 37.87 76.1 46.24 80.77 55.16 C81.76 57.23 81.76 57.23 82.94 58.31 C83.12 60.24 83.21 62.19 83.25 64.12 C83.31 65.71 83.31 65.71 83.36 67.33 C82.85 70.94 81.71 72.05 78.94 74.31 C78.94 72.99 78.94 71.67 78.94 70.31 C78.32 70.06 77.71 69.82 77.08 69.56 C74.53 68.08 73.93 66.98 72.68 64.35 C72.28 63.55 71.89 62.76 71.49 61.94 C71.08 61.09 70.67 60.25 70.25 59.38 C66.22 51.41 62.08 44.84 55.94 38.31 C55.12 37.4 54.3 36.49 53.46 35.56 C39.02 20.23 21.05 12.01 1.06 6.35 C0.29 6.13 -0.48 5.9 -1.27 5.67 C-1.96 5.48 -2.64 5.29 -3.35 5.09 C-5.06 4.31 -5.06 4.31 -7.06 1.31 C-5.23 -0.52 -2.47 0.05 0 0 Z " fill="#000000" transform="translate(613.0625,207.6875)"/>
<path d="M0 0 C0.72 1.7 0.72 1.7 1 4 C-0.41 6.33 -0.41 6.33 -2.5 8.81 C-3.24 9.69 -3.97 10.57 -4.73 11.47 C-6.69 13.66 -8.7 15.72 -10.81 17.75 C-15.33 22.2 -17.15 25.86 -17.25 32.25 C-17.2 35.76 -17.2 35.76 -16 39 C-11.76 40.41 -7.42 40.25 -2.98 40.25 C1.13 40.4 2.83 40.85 6.01 43.55 C6.67 44.36 7.32 45.17 8 46 C6.73 49.9 5.6 51.94 2 54 C-6.6 56.16 -16.11 56.22 -24 52 C-29.36 46.88 -31.61 41.42 -32.44 34.19 C-31.93 22.91 -25.56 14.17 -17.62 6.75 C-6.75 -2.53 -6.75 -2.53 0 0 Z " fill="#000000" transform="translate(682,334)"/>
</g>
</svg>
