<?xml version='1.0' encoding='UTF-8'?>
<svg xmlns="http://www.w3.org/2000/svg" width="297" height="210" viewBox="0 0 297 210">
  <rect x="0" y="0" width="297" height="210" fill="white"/>
  <g transform="translate(112.078125,31.0) scale(0.115625)"><path d="M0 0 C17.77 8.99 33.15 27.43 45.9 42.3 C46.87 43.42 47.85 44.54 48.82 45.66 C61.87 60.72 73.49 76.3 83.9 93.3 C89.84 92.32 95.78 91.33 101.72 90.3 C107.78 89.27 113.83 88.27 119.9 87.3 C121.02 87.13 121.02 87.13 122.17 86.94 C204.55 74.34 309.67 95.22 377.49 144.77 C379.97 146.61 382.44 148.45 384.9 150.3 C388.61 148.76 390.88 146.5 393.65 143.62 C397.91 139.28 402.27 135.23 406.9 131.3 C407.78 130.53 408.67 129.76 409.58 128.96 C427.2 113.64 446.35 99.72 466.65 88.18 C467.61 87.63 467.61 87.63 468.6 87.07 C474.8 83.64 479.8 81.66 486.85 82.71 C488.9 83.3 488.9 83.3 491.27 85.3 C494.86 91.92 496.26 98.69 497.52 106.05 C497.65 106.77 497.77 107.48 497.9 108.22 C499.85 120.38 500.14 132.64 500.15 144.93 C500.15 146.07 500.15 146.07 500.15 147.24 C500.13 161.75 499.08 175.95 496.9 190.3 C496.64 192.01 496.64 192.01 496.38 193.76 C491.85 222.98 485.64 255.56 468.75 280.47 C466.07 284.57 465.8 287.04 466.21 291.8 C466.31 292.98 466.41 294.15 466.51 295.35 C466.78 298.08 467.07 300.79 467.41 303.51 C475.23 367.27 455.65 422.18 418.33 473.33 C416.84 475.39 415.36 477.46 413.89 479.54 C412.91 480.9 411.94 482.26 410.96 483.62 C410.31 484.54 410.31 484.54 409.64 485.49 C406.33 490.04 403.03 493.26 397.96 495.74 C394.42 497.55 391.88 499.68 388.9 502.3 C390.32 506.51 392.5 510.04 394.83 513.79 C407.56 534.26 425.03 563.21 420.8 588.25 C420.94 592.61 422.75 595.57 424.9 599.3 C425.27 599.95 425.64 600.59 426.02 601.26 C426.79 602.59 427.57 603.91 428.35 605.24 C455.66 652.26 462.68 711.13 448.88 763.5 C445.4 775.96 440.38 787.67 435.02 799.43 C434.59 800.38 434.59 800.38 434.15 801.36 C433.39 803.05 432.61 804.74 431.83 806.42 C430.75 809.75 430.74 811.02 431.9 814.3 C433.22 816.82 434.58 819.24 436.02 821.68 C460.14 863.7 468.23 913.19 455.66 960.14 C444.75 999.16 425.74 1035.12 399.9 1066.3 C399.11 1067.26 398.33 1068.22 397.52 1069.21 C385.98 1083.18 373.5 1096.32 359.9 1108.3 C359.36 1108.79 358.81 1109.27 358.25 1109.77 C317.86 1145.54 270.65 1173.14 219.9 1191.3 C218.53 1191.81 218.53 1191.81 217.13 1192.32 C192.87 1201.08 167.31 1206.07 142.24 1211.93 C111.24 1219.17 82.57 1227.33 55.9 1245.3 C55.02 1245.89 55.02 1245.89 54.12 1246.49 C46.05 1251.96 38.52 1258 31.03 1264.25 C12.25 1279.88 12.25 1279.88 3.91 1279.61 C-1.4 1278.8 -5.23 1274.65 -8.47 1270.64 C-39.42 1226.32 -36.52 1158.08 -27.71 1107.57 C-21.69 1075.1 -11.1 1042.05 7.61 1014.53 C9.15 1012.3 9.15 1012.3 8.9 1009.3 C7.99 1008.85 7.99 1008.85 7.07 1008.39 C-17.58 996.01 -39.2 981.39 -59.1 962.3 C-60.34 961.13 -60.34 961.13 -61.6 959.93 C-66.75 954.93 -71.37 949.6 -75.8 943.96 C-76.72 942.79 -77.64 941.63 -78.57 940.48 C-116.93 892.71 -130.45 834.73 -130.48 774.43 C-130.48 773.42 -130.48 772.41 -130.48 771.37 C-130.48 754.01 -129.6 736.99 -125.54 720.05 C-123.59 711.67 -122.08 703.66 -121.81 695.04 C-120.07 639.01 -100.13 584.17 -61.1 543.3 C-60.35 542.67 -59.6 542.04 -58.82 541.39 C-53.01 536.45 -52.49 532.78 -51.85 525.32 C-51.19 520.47 -48.92 516.53 -46.66 512.24 C-42.57 504.37 -41.02 497.31 -40.05 488.54 C-38.83 477.79 -34.58 471.02 -27.1 463.3 C-29.19 461.16 -31.37 459.22 -33.66 457.3 C-47.36 445.31 -57.7 430.34 -66.1 414.3 C-66.43 413.67 -66.77 413.04 -67.11 412.39 C-76.88 393.51 -82.26 373.12 -86.1 352.3 C-86.3 351.25 -86.3 351.25 -86.5 350.18 C-94.55 305.33 -85.45 246.62 -59.31 208.7 C-53.76 200.44 -53.07 193.67 -52.95 184.02 C-52.89 179.7 -52.71 175.39 -52.54 171.08 C-52.51 170.19 -52.48 169.3 -52.45 168.38 C-50.77 122.97 -47.59 37.52 -15.49 2.45 C-10.94 -1.63 -5.77 -1.91 0 0 Z M-15.1 11.3 C-16.61 14.16 -17.81 17.1 -18.98 20.12 C-19.32 20.99 -19.66 21.86 -20.01 22.76 C-39.08 73.11 -48.11 134.55 -47.1 188.3 C-43.47 184.82 -40.35 181.16 -37.35 177.12 C-33.52 172.04 -29.49 167.24 -25.17 162.56 C-23.33 160.56 -21.59 158.51 -19.85 156.43 C2.78 130.64 35.06 110.89 67.44 100.33 C68.41 100.01 69.37 99.68 70.36 99.34 C71.21 99.07 72.07 98.79 72.95 98.51 C75.13 97.44 75.13 97.44 75.79 94.9 C75.96 90.85 73.81 88.12 71.65 84.87 C71.19 84.16 70.74 83.46 70.27 82.74 C65.57 75.59 60.36 68.89 54.9 62.3 C54.43 61.74 53.97 61.18 53.49 60.6 C43.91 49.06 33.85 38.04 23.29 27.4 C22.11 26.21 20.94 25.02 19.77 23.82 C8.12 11.41 8.12 11.41 -6.98 4.49 C-11.11 5.57 -12.8 7.89 -15.1 11.3 Z M441.9 111.3 C441.22 111.81 440.54 112.32 439.85 112.84 C430.25 120.02 420.95 127.45 411.9 135.3 C411.18 135.93 410.45 136.55 409.71 137.19 C408.45 138.28 407.19 139.38 405.95 140.49 C404.32 141.94 402.66 143.36 401 144.78 C399.99 145.66 398.97 146.55 397.96 147.43 C396.56 148.64 396.56 148.64 395.12 149.88 C392.66 152.56 392.12 153.72 391.9 157.3 C393.14 159.32 393.14 159.32 395.13 161.02 C395.85 161.7 396.56 162.38 397.3 163.08 C398.07 163.79 398.85 164.51 399.65 165.24 C430.44 194.81 450.16 235.71 461.9 276.3 C465.56 275.08 466.93 273.07 468.69 269.71 C469 269.06 469.32 268.41 469.65 267.74 C469.99 267.05 470.33 266.35 470.68 265.63 C492.92 218.22 505.7 141.72 487.9 91.3 C486.66 89.41 486.66 89.41 484.9 88.3 C470.21 88.3 453.24 102.77 441.9 111.3 Z M143.77 91.05 C143.08 91.1 142.39 91.14 141.68 91.18 C121.02 92.5 100.83 95.65 80.9 101.3 C79.84 101.6 79.84 101.6 78.77 101.9 C50.27 110.01 24.31 123.91 1.9 143.3 C1.12 143.97 0.34 144.65 -0.47 145.34 C-11.91 155.39 -22.88 166.17 -32.1 178.3 C-32.52 178.84 -32.93 179.39 -33.36 179.94 C-44.7 194.69 -54.25 210.44 -62.1 227.3 C-62.62 228.42 -63.14 229.53 -63.68 230.68 C-86.63 281.94 -88.78 341.1 -68.94 393.7 C-61.49 412.66 -51.66 429.1 -38.1 444.3 C-37.07 445.53 -37.07 445.53 -36.03 446.78 C-31.8 452.01 -31.8 452.01 -26.1 455.3 C-17.43 454.91 -9.26 452.33 -0.98 449.93 C-0.21 449.71 0.55 449.49 1.34 449.26 C48.95 435.51 121.04 414.16 156.9 378.3 C156.98 376.66 157.04 375.01 157.09 373.37 C157.75 365.84 160.56 360.45 166.06 355.27 C177.65 346.39 193.01 343.91 207.23 345.73 C218.79 347.84 230.17 351.93 237.66 361.41 C240.87 366.33 242.65 371.53 241.48 377.43 C241.29 378.11 241.1 378.79 240.9 379.49 C239.89 383.35 239.69 384.63 240.9 388.3 C247.34 396.93 255.75 403.96 264.02 410.76 C265.93 412.33 267.82 413.91 269.71 415.49 C284.66 427.89 300.43 439.03 316.9 449.3 C317.51 449.69 318.12 450.07 318.74 450.46 C323.08 453.16 327.47 455.76 331.9 458.3 C332.64 458.73 333.38 459.16 334.15 459.6 C346.45 466.65 359.08 472.9 371.9 478.93 C372.65 479.28 373.4 479.64 374.17 480 C376.33 481.02 378.49 482.03 380.65 483.03 C381.29 483.33 381.93 483.63 382.6 483.95 C391.45 488.15 391.45 488.15 400.9 487.3 C403.28 485.15 404.95 482.6 406.71 479.93 C407.25 479.14 407.79 478.36 408.35 477.55 C409.56 475.79 410.75 474.02 411.94 472.24 C413.67 469.65 415.42 467.08 417.18 464.51 C442.31 427.79 461.75 390.59 462.14 345.02 C462.15 343.58 462.15 343.58 462.17 342.1 C462.49 312.48 462.49 312.48 457.9 283.3 C457.54 281.8 457.54 281.8 457.18 280.26 C448.45 243.86 430.91 207.38 405.9 179.3 C405.05 178.34 404.2 177.37 403.33 176.37 C350.34 116.67 262.46 95.71 185.6 90.97 C171.6 90.18 157.77 90.19 143.77 91.05 Z M153.71 386.66 C152.86 387.17 152.01 387.68 151.14 388.21 C150.21 388.78 149.29 389.35 148.34 389.93 C98.91 419.61 45.53 443.16 -10.36 457.52 C-13.03 458.28 -15.55 459.23 -18.1 460.3 C-16.76 463.41 -15.4 465.15 -12.71 467.19 C-12.03 467.71 -11.35 468.23 -10.65 468.77 C-9.91 469.32 -9.17 469.87 -8.41 470.43 C-7.27 471.29 -7.27 471.29 -6.09 472.17 C66.09 525.95 157.25 545.85 245.9 533.3 C275.79 528.91 305.56 523.56 334.9 516.3 C336.1 516.01 337.3 515.71 338.53 515.41 C364.89 509.04 364.89 509.04 387.9 495.3 C387.9 493.98 387.9 492.66 387.9 491.3 C386.68 490.81 385.47 490.31 384.22 489.79 C346.2 473.96 310.6 453.32 277.9 428.3 C277.21 427.78 276.52 427.25 275.81 426.71 C269.01 421.5 262.43 416.15 256.12 410.35 C254.08 408.48 252 406.67 249.9 404.87 C244.99 400.6 240.46 395.95 235.9 391.3 C232.57 392.58 229.47 394.04 226.34 395.74 C211.92 402.92 196.58 403.13 181.38 398.57 C173.54 395.72 167.03 392.54 162.12 385.62 C161.51 384.97 161.51 384.97 160.9 384.3 C157.51 384.3 156.54 384.91 153.71 386.66 Z M-26.04 470.87 C-27.07 471.86 -27.07 471.86 -28.13 472.87 C-32.95 478.82 -33.53 484.7 -34.23 492.05 C-35.13 499.97 -37.08 506.21 -40.79 513.24 C-45.46 522.19 -46.99 528.99 -44.39 539.07 C-33.52 569.47 2.54 588.15 29.9 601.3 C94.57 631.49 172.79 649.74 244.15 644.43 C245.22 644.35 246.29 644.27 247.4 644.19 C255.75 643.9 255.75 643.9 262.9 640.3 C263.69 635.66 264.11 631.05 264.4 626.35 C264.46 625.38 264.46 625.38 264.52 624.39 C264.65 622.28 264.78 620.17 264.9 618.05 C264.94 617.32 264.98 616.59 265.03 615.84 C266.25 595.12 266.98 574.44 267.02 553.68 C267.03 552.87 267.03 552.06 267.03 551.22 C267.04 548.92 267.04 546.63 267.03 544.33 C267.03 543.63 267.04 542.94 267.04 542.22 C267.3 538.98 267.3 538.98 265.9 536.3 C256.23 536.37 246.52 537.91 236.95 539.2 C152.96 550.25 61.57 530.1 -6.2 478.21 C-8.58 476.35 -10.94 474.48 -13.28 472.58 C-19.63 466.78 -19.63 466.78 -26.04 470.87 Z M381.9 506.3 C381.9 538.31 381.9 570.32 381.9 603.3 C386.54 604.46 388.82 603.52 393.02 601.74 C394.02 601.33 394.02 601.33 395.03 600.91 C406.59 596.15 406.59 596.15 414.9 587.3 C419.37 564.9 401.54 535.78 390.52 517.24 C390.01 516.38 389.5 515.52 388.97 514.63 C388.49 513.83 388 513.03 387.5 512.21 C387.07 511.5 386.64 510.79 386.2 510.07 C384.85 508.02 384.85 508.02 381.9 506.3 Z M364.59 512.37 C337.22 522.79 307.85 527.76 279.17 533.2 C275.74 533.62 275.74 533.62 272.9 535.3 C272.79 536.73 272.74 538.15 272.72 539.58 C272.71 540.49 272.7 541.41 272.68 542.35 C272.67 543.36 272.66 544.36 272.65 545.4 C272.62 547.55 272.59 549.7 272.56 551.85 C272.54 552.98 272.53 554.12 272.51 555.28 C272.22 575.9 271.65 596.42 270.07 616.97 C269.88 619.52 269.7 622.07 269.51 624.61 C267.77 648.48 265.59 672.28 262.84 696.05 C262.71 697.12 262.59 698.2 262.46 699.3 C261.09 711.06 259.61 722.79 257.86 734.5 C255.81 745.16 255.81 745.16 258.65 755.12 C270.48 763.08 281.04 766.79 295.21 764.12 C302.19 762.97 307.68 763.94 313.85 767.4 C319.05 769.7 325.79 768.73 331.15 767.3 C336.51 765.9 341.86 766.29 347.35 766.53 C352.56 766.2 355.71 764.43 359.46 760.87 C367.43 750.51 368.99 736.93 369.93 724.33 C370.01 723.27 370.09 722.2 370.18 721.1 C371.22 706.79 371.75 692.45 372.31 678.12 C372.57 671.43 372.84 664.75 373.12 658.06 C373.15 657.33 373.18 656.6 373.21 655.85 C373.79 641.78 374.59 627.73 375.45 613.68 C376.62 594.65 376.99 575.68 377.02 556.62 C377.03 555.63 377.03 554.65 377.03 553.64 C377.06 539.17 376.64 524.75 375.9 510.3 C371.58 508.87 368.62 510.75 364.59 512.37 Z M-54.23 544.04 C-60.82 550.68 -66.66 557.7 -72.1 565.3 C-72.57 565.95 -73.03 566.6 -73.52 567.27 C-95.7 598.49 -109.44 634.31 -114.1 672.3 C-114.24 673.37 -114.24 673.37 -114.39 674.46 C-115.37 682.8 -115.35 691.17 -115.35 699.55 C-115.35 700.35 -115.35 701.15 -115.35 701.97 C-115.3 745.5 -102.27 789.08 -71.23 820.68 C-61.2 830.54 -50.28 838.21 -37.1 843.3 C-36.24 843.64 -35.37 843.98 -34.48 844.33 C-28.66 846.26 -22.99 846.6 -16.91 846.68 C-16.17 846.69 -15.42 846.71 -14.65 846.72 C-9.2 846.68 -5.05 845.61 -0.1 843.3 C0.5 842.34 1.09 841.37 1.71 840.37 C4.2 836.88 5.2 836.62 9.15 835.37 C15.43 833.36 20.7 830.08 24.09 824.27 C25.29 821.36 25.34 819.43 24.9 816.3 C22.47 812.89 20.38 810.63 16.9 808.3 C17.3 804.41 18.27 801.26 19.9 797.74 C23.01 790.99 24.1 784.85 21.65 777.62 C19.43 773.42 17.73 771.04 13.28 769.25 C10.11 768.36 7.11 767.94 3.83 767.67 C-6.46 766.82 -14.26 765.04 -21.23 756.87 C-47.48 721.09 -47.8 678.75 -42.1 636.3 C-40.78 635.97 -39.46 635.64 -38.1 635.3 C-38 641.61 -38.39 647.67 -39.1 653.93 C-41.59 678.43 -40.81 703.05 -32.1 726.3 C-31.65 727.52 -31.19 728.73 -30.73 729.98 C-26.38 740.8 -19.85 754.81 -8.91 760.43 C-5.26 761.57 -1.63 761.85 2.15 762.18 C10.18 763.01 16.31 764.5 22.77 769.55 C26.98 775 28.47 780.54 28.36 787.39 C27.77 791.13 26.39 794.48 25.02 797.99 C23.07 802.79 23.07 802.79 23.87 807.75 C25.43 809.52 27.02 810.88 28.9 812.3 C30.79 816.1 30.5 820.18 29.9 824.3 C26.19 833.18 18.73 837.52 10.4 841.49 C6.64 842.92 6.64 842.92 5.9 846.3 C3.9 847.3 3.9 847.3 0.9 848.3 C0.26 848.55 -0.38 848.79 -1.04 849.04 C-6.56 851.07 -11.42 851.82 -17.29 851.74 C-18.12 851.73 -18.94 851.72 -19.79 851.71 C-38.37 851.2 -54.09 841.84 -68.1 830.3 C-69.03 829.55 -69.95 828.79 -70.9 828 C-97.33 805.16 -112.37 769.57 -117.86 735.74 C-118 734.91 -118.14 734.08 -118.28 733.22 C-118.45 732.12 -118.45 732.12 -118.62 731 C-118.78 730.44 -118.94 729.88 -119.1 729.3 C-119.76 728.97 -120.42 728.64 -121.1 728.3 C-123.89 744.09 -124.31 759.87 -124.29 775.87 C-124.29 776.7 -124.29 777.53 -124.29 778.39 C-124.13 842.15 -106.88 902.46 -62.63 949.59 C-60.49 951.88 -58.44 954.22 -56.41 956.62 C-52.96 960.59 -49.12 963.92 -45.1 967.3 C-44.15 968.14 -43.21 968.98 -42.23 969.84 C-16.37 992.64 -16.37 992.64 13.98 1004.2 C16.56 1003 17.88 1001.41 19.71 999.24 C20.41 998.42 21.11 997.61 21.84 996.76 C22.52 995.95 23.2 995.14 23.9 994.3 C37.66 978.09 53.31 964.72 71.9 954.3 C72.62 953.89 73.35 953.48 74.1 953.05 C109.97 932.72 150.54 924.11 191.52 924.05 C192.73 924.05 192.73 924.05 193.95 924.05 C208.63 924.03 223.2 924.83 237.84 925.8 C294.73 929.57 356.8 930.78 402.44 890.96 C407.07 886.89 411.56 882.69 415.9 878.3 C416.56 878.63 417.22 878.96 417.9 879.3 C413.85 893.7 394.48 904.51 382.37 911.43 C352.42 927.8 318.62 932.51 284.96 932.55 C284.11 932.56 283.25 932.56 282.37 932.56 C268.22 932.58 254.19 931.85 240.09 930.8 C209.86 928.6 178.88 926.96 148.9 932.3 C147.9 932.48 146.91 932.65 145.89 932.82 C92.86 942.22 46.43 969.46 15.35 1013.7 C-8.73 1048.65 -20.47 1090.49 -25.1 1132.3 C-25.25 1133.53 -25.25 1133.53 -25.39 1134.77 C-26.07 1140.84 -26.22 1146.82 -26.16 1152.93 C-26.16 1153.84 -26.16 1154.75 -26.15 1155.68 C-26.14 1157.89 -26.12 1160.1 -26.1 1162.3 C-23.32 1158.85 -23.32 1158.85 -20.64 1155.32 C-18.08 1151.98 -16.64 1150.48 -12.54 1149.12 C-8.22 1149.35 -7.18 1150.31 -4.1 1153.3 C-2.54 1155.77 -1.32 1158.35 -0.1 1160.99 C0.59 1162.43 1.28 1163.86 1.98 1165.3 C2.31 1165.99 2.64 1166.68 2.97 1167.39 C4.15 1169.82 5.37 1172.23 6.65 1174.62 C6.99 1175.27 7.34 1175.93 7.7 1176.61 C9.25 1178.8 10.52 1180.02 12.9 1181.3 C18.65 1181.32 22.85 1178.18 27.52 1175.18 C29.13 1174.18 30.73 1173.18 32.34 1172.18 C34.48 1170.83 36.63 1169.47 38.77 1168.12 C49.79 1161.18 49.79 1161.18 56.9 1161.3 C59.34 1162.05 59.34 1162.05 60.9 1163.3 C63.43 1170.91 60.85 1177.84 58.68 1185.19 C57.2 1190.41 56.56 1194.87 56.9 1200.3 C57.23 1200.63 57.56 1200.96 57.9 1201.3 C67.4 1201.17 76.79 1198.88 86.05 1196.95 C101.34 1193.93 101.34 1193.93 107.9 1198.3 C109.38 1203.38 108.64 1208.17 107.9 1213.3 C112.61 1212.68 117.2 1211.85 121.83 1210.77 C122.48 1210.62 123.14 1210.47 123.81 1210.31 C125.97 1209.81 128.12 1209.31 130.28 1208.8 C131.4 1208.54 131.4 1208.54 132.55 1208.27 C136.55 1207.34 140.54 1206.4 144.54 1205.46 C147.78 1204.7 151.02 1203.94 154.26 1203.19 C170.74 1199.37 187.15 1195.44 203.36 1190.57 C205.11 1190.04 205.11 1190.04 206.9 1189.5 C251.43 1175.8 294.36 1153.18 330.9 1124.3 C331.71 1123.67 332.53 1123.03 333.37 1122.38 C355.51 1104.9 377.67 1085.73 394.9 1063.3 C395.81 1062.21 396.72 1061.11 397.63 1060.02 C435.72 1014.2 458.54 955.87 454.7 896.16 C454.16 890.78 453.17 885.56 451.9 880.3 C451.69 879.45 451.49 878.59 451.28 877.71 C446.3 857.24 439.67 836.96 427.9 819.3 C426.91 819.3 425.92 819.3 424.9 819.3 C424.69 819.85 424.48 820.39 424.27 820.94 C422.07 826.66 419.86 832.37 417.65 838.08 C416.83 840.2 416.01 842.32 415.19 844.44 C396.41 893.32 396.41 893.32 377.13 902.36 C369.92 905.41 359.9 905.7 352.4 903.18 C346.25 899.88 341.14 896.16 338.9 889.3 C338.39 883.52 339.03 878.03 339.9 872.3 C338.73 872.13 337.56 871.96 336.36 871.79 C334.81 871.55 333.26 871.3 331.71 871.05 C330.56 870.89 330.56 870.89 329.38 870.72 C324.53 869.93 321.49 868.9 317.9 865.3 C316.27 862.5 315.89 860.79 315.96 857.55 C317.26 853.07 319.5 849.29 321.9 845.3 C320.61 844.58 320.61 844.58 319.3 843.84 C311.29 839.19 303.51 834.29 299.9 825.3 C299.18 819.16 299.18 813.46 302.9 808.3 C307.83 802.6 313.5 800.28 320.9 799.3 C323.82 799.28 326.73 799.39 329.65 799.49 C336.15 799.8 336.15 799.8 341.9 797.18 C343.44 795.5 343.44 795.5 344.9 793.3 C345.66 792.25 346.41 791.19 347.2 790.11 C351.55 783.79 354.96 777.79 356.9 770.3 C355.85 770.47 354.79 770.63 353.71 770.8 C349.91 771.3 346.23 771.31 342.4 771.24 C338.69 771.2 335.45 771.23 331.9 772.3 C325.1 774.29 316.93 774.81 310.59 771.37 C309.97 771 309.35 770.64 308.71 770.27 C303.7 767.6 298.96 768.19 293.65 769.3 C281.05 771.8 270.1 768.44 259.3 761.68 C256.14 759.39 254.09 757.59 251.9 754.3 C251.01 745.12 252.37 735.84 253.58 726.74 C253.75 725.37 253.93 724 254.1 722.63 C254.56 719.06 255.02 715.48 255.49 711.91 C256.32 705.54 257.14 699.17 257.95 692.8 C258.04 692.12 258.13 691.44 258.22 690.74 C259.28 682.41 260.31 674.07 261.16 665.71 C261.28 664.56 261.28 664.56 261.4 663.38 C261.82 659.01 262.14 654.69 261.9 650.3 C260.01 647.95 260.01 647.95 256.84 648.28 C255.54 648.38 254.23 648.48 252.88 648.58 C251.4 648.69 249.93 648.79 248.45 648.89 C247.67 648.95 246.88 649.01 246.08 649.07 C186.38 653.38 126.24 641.83 69.9 622.3 C68.89 621.97 67.89 621.63 66.86 621.28 C31.71 609.43 -2.33 593.23 -30.1 568.3 C-30.85 567.65 -31.6 567 -32.37 566.33 C-39.44 559.78 -45.01 551 -49.1 542.3 C-52.17 541.99 -52.17 541.99 -54.23 544.04 Z M409.25 599.13 C408.56 599.52 407.87 599.9 407.16 600.3 C406.43 600.72 405.71 601.13 404.96 601.55 C398.52 605.12 392.49 607.7 385.34 609.55 C382.75 610.14 382.75 610.14 380.9 612.3 C380.46 614.5 380.46 614.5 380.32 617.09 C380.24 618.11 380.17 619.13 380.09 620.18 C380.01 621.31 379.94 622.44 379.87 623.6 C379.79 624.79 379.7 625.98 379.62 627.2 C378.49 644.47 377.94 661.77 377.31 679.06 C375.1 740.11 375.1 740.11 366.43 760.58 C364.94 764.12 363.73 767.72 362.52 771.37 C358.55 782.61 351.91 796.29 342.21 803.57 C337.88 804.95 333.31 804.38 328.8 804.23 C320.9 804.07 314.23 805.15 307.9 810.3 C304.73 814 304.36 817.39 304.56 822.11 C305.52 828.4 310.5 832.02 315.3 835.62 C319.59 838.4 324.18 840.39 328.9 842.3 C328.37 846.19 327.41 848.24 324.84 851.18 C322.53 854.12 321.9 855.29 321.21 859.12 C321.57 862.37 321.57 862.37 323.86 863.93 C327.93 865.77 331.74 866.07 336.15 866.43 C344.79 867.2 344.79 867.2 345.9 868.3 C346.13 871.63 345.98 874.07 344.9 877.24 C343.35 881.99 343.35 885.7 344.96 890.43 C347.98 894.91 351.79 897.6 356.9 899.3 C367.83 900.16 375.46 899.09 384.02 892.18 C398.52 878.51 404.61 857.72 411.55 839.57 C415.62 828.94 419.92 818.47 424.65 808.12 C438.97 776.64 449.37 746.77 449.27 711.93 C449.27 711.15 449.27 710.37 449.27 709.57 C449.15 670.7 438.64 629.91 416.9 597.3 C413.09 597.3 412.29 597.38 409.25 599.13 Z M-13.1 1154.3 C-19.93 1161.29 -26.07 1172.11 -26.12 1181.97 C-25.03 1210.51 -20.73 1247.84 -1.1 1270.3 C1.27 1272.31 2.52 1273.23 5.59 1273.87 C13.59 1272.51 19.64 1265.9 25.61 1260.76 C32.44 1254.92 39.61 1249.56 46.9 1244.3 C47.49 1243.87 48.09 1243.44 48.7 1243 C62.09 1233.38 77.01 1224.89 92.59 1219.43 C96.3 1218.09 97.79 1217.41 100.65 1214.55 C102.19 1210.55 103.16 1206.62 102.9 1202.3 C101.12 1200.07 101.12 1200.07 98.76 1200.24 C90.13 1201.15 81.71 1202.82 73.22 1204.58 C59.18 1207.4 59.18 1207.4 54.02 1204.93 C51.9 1203.3 51.9 1203.3 50.9 1201.3 C51.15 1193.53 53.07 1186.42 55.26 1178.99 C56.91 1173.2 56.91 1173.2 55.9 1167.3 C52.99 1165.99 52.99 1165.99 50.51 1167.17 C44.45 1170.24 38.87 1173.59 33.27 1177.43 C20.38 1186.23 20.38 1186.23 12.09 1186.37 C7.39 1184.8 4.97 1182.26 2.64 1178.01 C0.9 1174.36 -0.72 1170.66 -2.35 1166.96 C-4.68 1161.84 -6.66 1157.85 -11.1 1154.3 C-11.76 1154.3 -12.42 1154.3 -13.1 1154.3 Z " fill="#000000" transform="translate(130.1015625,0.6953125)"/>
<path d="M0 0 C5.62 5.21 8.69 11.8 11 19 C11.19 19.6 11.39 20.19 11.59 20.81 C13.18 29.25 13.15 39.42 9 47 C6.38 50.52 4.34 52.22 0.06 53 C-4.06 53.25 -6.56 52.39 -10 50 C-17.22 43.16 -21.85 33.88 -22.3 23.88 C-22.32 22.44 -22.32 21 -22.31 19.56 C-22.31 18.81 -22.3 18.06 -22.3 17.29 C-22.16 11.28 -21.85 6.15 -17.61 1.46 C-11.72 -3.86 -6.74 -3.68 0 0 Z " fill="#000000" transform="translate(192,284)"/>
<path d="M0 0 C4.71 1.98 6.5 4.41 8.38 9 C11.84 19.92 10.55 31.48 5.68 41.8 C2.81 46.87 0.03 50.98 -5 54 C-9.55 55.1 -12.28 54.42 -16.31 52.06 C-21.73 46.74 -22.21 39.96 -22.44 32.69 C-22.21 22.55 -19.41 13.01 -13 5 C-8.63 1.04 -5.96 -0.57 0 0 Z " fill="#000000" transform="translate(505,307)"/>
<path d="M0 0 C2.77 1.22 4.91 2.74 7.25 4.62 C11.37 7.59 13.99 7.81 19 7 C21.77 4.65 21.77 4.65 24 2 C26.31 1.19 26.31 1.19 28 1 C28.97 4.1 29.17 5.57 27.94 8.62 C25.02 12.2 22.26 13.61 17.7 14.39 C11.6 14.81 7.74 13.36 2.85 9.73 C0.42 7.45 -0.88 5.13 -2 2 C-1.34 1.34 -0.68 0.68 0 0 Z " fill="#000000" transform="translate(303,468)"/>
</g>
</svg>
