<?xml version='1.0' encoding='UTF-8'?>
<svg xmlns="http://www.w3.org/2000/svg" xmlns:xlink="http://www.w3.org/1999/xlink" width="297" height="210" viewBox="0 0 297 210">
  <rect x="0" y="0" width="297" height="210" fill="white"/>
  <g transform="translate(74.5,31.0) scale(0.20555555555555555)"><g id="Слой_16">
	<path d="M361.2,308.2c0.4,0.6,1.1,1,1.9,1c0.1,0,0.1,0,0.2,0c0.7,0,1.3-0.3,1.8-0.7c9.2-8.7,16.6-25.5,21.2-37.9   c1.6-4.4,1.3-9.4-0.8-13.6c-2.1-4.1-5.7-7.1-10.2-8.4c-7-2-14.1-2.3-21.1-0.9c-1.4,0.3-2.8,0.6-4.2,1c-4.4,1.3-8.2,4.5-10.2,8.7   c-2.1,4.2-2.3,9.1-0.6,13.5C345.9,288.2,360.6,307.4,361.2,308.2 M344.5,259.7c1.4-2.9,3.9-5.1,7-6c1.2-0.4,2.5-0.7,3.7-0.9   c2.5-0.5,5.1-0.8,7.7-0.8c3.7,0,7.4,0.5,11.1,1.6c3,0.9,5.5,2.9,6.9,5.7c1.5,2.9,1.7,6.4,0.5,9.5c-5.6,15.2-11.9,27-17.9,33.8   c-4.2-5.7-14.4-20.5-19.5-33.6C342.9,266,343.1,262.6,344.5,259.7"/>
</g>
<g id="Слой_15">
	<path d="M581.5,324.6c18.3-24.3,29.7-54.1,30.9-86.4c1.7-44.4-17.2-87.7-51.9-119.5c30.9-19.5,54.6-54.4,60.9-89.8   c0.3-1.5-0.5-3-2-3.6c-1.4-0.6-3.1-0.1-3.9,1.1c-8.4,12-22.9,20.7-40.9,24.5c-16.4,3.5-33.6,2.9-50.2,2.3c-7.9-0.3-16-1.2-23.9-2   c-20.7-2.2-42-4.5-62.7,3c-43.4-26.9-98.2-26.8-151.1,0.2c-8.1-8.2-20.9-12.3-35.6-11.1c-8.9,0.7-17.5,3.1-25.8,5.3   c-3.9,1.1-7.8,2.1-11.8,3c-35.5,8.1-73.6,2-104.7-16.9c-1.1-0.7-2.6-0.6-3.6,0.2c-1.1,0.8-1.6,2.1-1.2,3.4   c7.5,31.1,25.7,62.7,48.8,85.4c-29.2,30.1-44.6,69.6-43.3,111.7c1,34.9,13.9,66.9,34.6,92.2c-70.9,100.4-51.6,187-22.8,242.2   c31.4,60.1,80.6,96.7,81.1,97.1c0.6,0.4,1.3,0.6,1.9,0.6c1,0,2-0.4,2.6-1.3c3.1-4,6-8.1,8.8-12.1c11.3,7.4,23.3,13.7,35.7,19   c2.5,4.2,5.7,7.8,9.5,11.7c8.7,8.8,19.2,14.4,29.7,15.8c1.3,0.2,2.7,0.3,4.3,0.3c7.6,0,18-2.1,24.1-7.6c1.1-1,2-2.1,2.8-3.3   c5.6,0.4,11.3,0.7,16.9,0.7l48.3,0.1h0.4c6.7,0,12.6-0.3,19.7-0.9c0.8,1.2,1.7,2.4,2.8,3.4c6.1,5.5,16.5,7.6,24.1,7.6   c1.6,0,3-0.1,4.3-0.3c10.5-1.4,21-7,29.7-15.8c4.2-4.3,7.6-8.2,10.2-12.9c11.5-5.1,22.7-11.4,33.3-18.6c2.4,3.4,4.9,6.9,7.6,10.3   c0.6,0.8,1.6,1.3,2.6,1.3c0.7,0,1.4-0.2,1.9-0.6c0.5-0.4,49.8-37,81.1-97.1C633.5,512,652.7,425.2,581.5,324.6 M112.3,44.3   C143.5,61,180.5,66,215,58.1c4.1-0.9,8.1-2,12-3.1c8.4-2.3,16.3-4.5,24.5-5.1c13.5-1.1,25.4,2.9,31.8,10.7c1,1.2,2.7,1.5,4.1,0.8   c52-27.3,106-27.6,148.2-0.8c0.9,0.6,2,0.7,2.9,0.3c19.7-7.6,39.9-5.5,61.2-3.2c8,0.9,16.2,1.7,24.4,2c17,0.6,34.6,1.3,51.9-2.4   c14.3-3.1,26.7-9.1,36-17.3c-8.8,29.8-30,57.9-56.5,74.1c-28.6-17.9-58.6-8.2-70.4-3.1c-33.2,14.4-60.7,37.8-81.7,69.8   c-10.5,16-16.8,31.7-23.2,50.3c-0.7,1.9-10.1,4.6-21.7,3.5c-8.5-0.8-11.4-3.1-11.5-3.8c-1.1-7-2.6-14-4.5-20.8c0,0,0,0,0,0   c0,0,0,0,0,0c-1.1-3.9-2.3-7.7-3.6-11.4c-0.1-0.3-0.2-0.5-0.3-0.8c-1.2-3.5-2.6-6.9-4-10.1c-0.2-0.5-0.4-0.9-0.6-1.4   c-0.5-1.2-1.1-2.4-1.6-3.6c-0.2-0.4-0.4-0.8-0.6-1.2c-0.7-1.5-1.4-2.9-2.2-4.3c-0.2-0.4-0.4-0.8-0.6-1.2c-0.6-1.1-1.2-2.1-1.8-3.2   c-0.2-0.4-0.5-0.8-0.7-1.2c-0.8-1.3-1.6-2.7-2.5-3.9c-1.3-2-2.7-3.9-4.1-5.7c-6.8-8.7-17.5-21.5-30.7-31.3c0,0,0,0,0,0   c-39.1-31.6-85.7-35.5-131.3-11c0,0,0,0,0,0C137.2,99.7,120.6,72.1,112.3,44.3 M159.2,126.5c0.6-0.2,1.2-0.6,1.8-0.9   c41.3-22.1,85.4-18.4,124.2,10.3c10.8,8.7,20.7,18.9,29.6,30.2c1.3,1.7,2.6,3.4,3.8,5.3c0.8,1.2,1.6,2.5,2.4,3.7   c0.2,0.4,0.5,0.8,0.7,1.2c0.6,1,1.2,2,1.7,3c0.2,0.4,0.4,0.7,0.6,1.1c0.7,1.4,1.4,2.7,2.1,4.2c0.1,0.3,0.3,0.6,0.4,0.9   c0.6,1.2,1.2,2.5,1.7,3.7c0.2,0.3,0.3,0.7,0.5,1c1.4,3.2,2.7,6.6,3.9,10c0,0.1,0,0.1,0.1,0.2c1.3,3.6,2.4,7.4,3.5,11.2c0,0,0,0,0,0   c1.8,6.5,3.2,13.2,4.3,20c1.1,6.9,11.6,8.9,17.8,9.4c1.7,0.1,3.5,0.2,5.4,0.2c9.4,0,20.6-2,22.7-8.2c6.3-18.6,12.3-33.3,22.4-48.8   c20.2-30.9,46.8-53.5,78.8-67.4c10.8-4.7,38.4-13.6,64.4,2.8c0.2,0.4,0.5,0.7,0.8,1c35.3,30.6,54.6,73.3,52.9,117.1   c-1.2,31.5-12.5,60.6-30.6,84.1c-0.3,0.3-0.5,0.6-0.7,0.9c-26,33.1-65.7,54.9-110.3,56.6c-37.4,1.4-73.6-11.3-101.9-35.6   c-1.2-1.1-3-1.1-4.3,0c-25.8,21.7-58.6,33.9-92.4,34.4c-0.8,0-1.5,0-2.3,0c-44.3,0-84.5-20-111.7-51.5c-0.1-0.9-0.5-1.8-1.3-2.3   c-0.3-0.2-0.6-0.4-1-0.5c-20-24.3-32.4-55.1-33.4-88.6C114.8,194.1,130.1,155.5,159.2,126.5 M291.4,694.2   c-9-1.2-18.2-6.1-25.9-13.9c-3.4-3.5-6.1-6.5-8.3-10c-0.1-0.9-0.6-1.6-1.3-2.2c-0.8-1.5-1.5-3-2.1-4.7c-0.9-2.4-0.6-4.6,0.1-5.5   c0.2-0.2,0.4-0.4,0.9-0.4c0.1,0,0.2,0,0.3,0c4.3,0.4,8.4,2.4,11.2,5.4c1.2,1.3,3.2,1.6,4.7,0.6c1.5-1,2.1-2.9,1.3-4.6l-6.3-13.6   c-2.3-4.9-4.6-9.9-3.6-15.1c0.2-0.9,0.5-1.8,1-2.6c0.8-1.2,2-2.7,3.3-2.8c0.8,0,3,0.3,6.8,5c1.3,1.5,3.8,5.7,6.4,10.1   c2.6,4.3,5.5,9.2,8.1,13c1.4,2,3.9,2.8,6.2,1.7c2.3-1,3.4-3.4,2.8-5.8l-5-20.3c-0.4-1.4-0.2-2.9,0.4-4c0.7-1.2,1.5-1.9,2.2-2   c0.9-0.1,2.2,0.5,3.3,1.6c8.8,8.8,18.9,51,19.2,58c0.1,2.5-0.8,4.5-2.9,6.4C309.1,693.5,297.6,695,291.4,694.2 M463.2,680.3   c-7.6,7.8-16.8,12.7-25.9,13.9c-6.2,0.8-17.6-0.7-23.1-5.7c-0.9-0.8-1.5-1.7-2-2.6c-0.1-0.4-0.2-0.8-0.5-1.2   c-0.3-0.8-0.4-1.7-0.4-2.6c0.3-7,10.4-49.2,19.2-58c1.1-1.1,2.4-1.7,3.3-1.6c0.8,0.1,1.5,0.8,2.2,2c0.6,1.1,0.8,2.5,0.4,4l-5,20.3   c-0.6,2.4,0.6,4.8,2.8,5.8c2.3,1,4.8,0.3,6.2-1.7c2.6-3.8,5.5-8.6,8.1-12.9c2.7-4.4,5.2-8.6,6.4-10.1c3.9-4.7,6.1-5,6.8-5   c1.3,0.1,2.5,1.6,3.3,2.8c0.5,0.8,0.9,1.7,1,2.6c1,5.2-1.3,10.2-3.6,15.1l-6.3,13.6c-0.8,1.6-0.2,3.6,1.3,4.6   c1.5,1,3.5,0.7,4.7-0.6c2.8-3,6.8-5,11.2-5.4c0.8-0.1,1,0.2,1.2,0.4c0.7,0.9,1,3.1,0.1,5.5C472.4,670.2,468.7,674.7,463.2,680.3    M598.9,564c-26.6,51-66.4,84.7-76.8,93c-2.4-3.2-4.7-6.4-7-9.7c-0.1-0.2-0.2-0.3-0.3-0.5c-0.1-0.1-0.2-0.3-0.3-0.4   c-78.4-114.3-42.1-234.9-41.7-236.2c0.5-1.7-0.4-3.6-2.2-4.1c-1.7-0.5-3.6,0.4-4.1,2.2c-0.4,1.4-10.4,33.9-9.1,81.9   c0.1,3.9,0.3,7.9,0.6,12.1c-0.3-0.2-0.6-0.4-1-0.5c-1.7-0.5-3.6,0.6-4,2.3c-2,7.2-9.1,12.6-16.5,12.6h0c-7.4,0-14.5-5.4-16.5-12.6   c-0.5-1.7-2.3-2.8-4-2.3c-1.7,0.5-2.8,2.3-2.3,4c2.8,9.9,12.6,17.4,22.9,17.4h0.1c9.5,0,18.5-6.4,22-15.1   c3.4,39,15.4,89.6,49.1,139.7c-8.4,5.7-17.1,10.7-26,15.1c0.6-3.5,0-6.8-1.7-9.1c-1.7-2.2-4.2-3.2-7-2.9c-2.2,0.2-4.3,0.7-6.3,1.5   l2-4.3c2.6-5.6,5.5-11.9,4.1-19.1c-0.3-1.7-1-3.4-1.9-4.9c-2.3-3.7-5.1-5.7-8.4-5.9c-4-0.2-8,2.1-12.3,7.4c-1.6,1.9-4,5.9-7,10.9   c-0.9,1.5-1.9,3.2-2.9,4.8l2.8-11.2c0.8-3.1,0.4-6.3-1.1-8.8c-2.2-3.8-5.1-4.9-7.1-5.2c-3-0.4-6.3,0.9-8.8,3.4   c-10.5,10.5-20.8,54.2-21.1,62.4c0,0.6,0,1.1,0,1.7c-6.3,0.5-11.8,0.8-18,0.7l-48.3-0.1c-4.9,0-9.9-0.2-14.8-0.6   c0-0.6,0.1-1.2,0-1.8c-0.3-8.2-10.7-51.9-21.1-62.4c-2.5-2.5-5.8-3.8-8.8-3.4c-2,0.3-4.8,1.4-7.1,5.2c-1.5,2.6-1.9,5.7-1.1,8.8   l2.8,11.2c-1-1.6-2-3.2-2.9-4.8c-3-5-5.4-9-7-10.9c-4.3-5.2-8.4-7.6-12.3-7.4c-3.3,0.2-6.1,2.2-8.4,5.9c-0.9,1.5-1.6,3.1-1.9,4.9   c-1.4,7.3,1.5,13.6,4.1,19.1l2,4.3c-2-0.8-4.1-1.3-6.3-1.5c-2.9-0.3-5.3,0.8-7,2.9c-2,2.5-2.5,6.5-1.5,10.3   c-9.7-4.5-19.1-9.6-28-15.5c38.1-57.6,47.8-115.7,48.9-155.8c1.3-48-8.7-80.5-9.1-81.9c-0.5-1.7-2.4-2.7-4.1-2.2   c-1.7,0.5-2.7,2.4-2.2,4.1c0.4,1.3,38.9,129.4-49.3,246.7c-10.4-8.3-50.2-42-76.8-93c-40.2-77.2-32.9-155.8,21.5-233.8   c28.4,31.8,69.6,51.9,115,51.9c0.8,0,1.6,0,2.4,0c34.3-0.5,67.7-12.7,94.3-34.2c27.7,23,62.4,35.5,98.5,35.5c1.9,0,3.9,0,5.8-0.1   c45.2-1.7,85.7-23.2,112.8-56.1C631.9,408,639.2,486.7,598.9,564"/>
</g>
<g id="Слой_14">
	<path d="M483.1,290.6c25.3,0,45.8-20.5,45.8-45.8s-20.5-45.8-45.8-45.8c-25.3,0-45.8,20.5-45.8,45.8S457.8,290.6,483.1,290.6    M499,223.5c9.5,0,17.3,7.7,17.3,17.3c0,9.5-7.7,17.3-17.3,17.3c-9.5,0-17.3-7.7-17.3-17.3C481.7,231.2,489.5,223.5,499,223.5"/>
</g>
<g id="Слой_13">
	<path d="M229.5,290.6c25.3,0,45.8-20.5,45.8-45.8c0-25.3-20.5-45.8-45.8-45.8c-25.3,0-45.8,20.5-45.8,45.8   C183.7,270.1,204.2,290.6,229.5,290.6 M248,223.5c9.5,0,17.3,7.7,17.3,17.3c0,9.5-7.7,17.3-17.3,17.3c-9.5,0-17.3-7.7-17.3-17.3   C230.8,231.2,238.5,223.5,248,223.5"/>
</g>
<g id="Слой_12">
	<path d="M427,438.1c-1.7-0.5-3.6,0.6-4,2.3c-2,7.2-9.1,12.6-16.5,12.6h0c-7.4,0-14.5-5.4-16.5-12.6c-0.5-1.7-2.3-2.8-4-2.3   c-1.7,0.5-2.8,2.3-2.3,4c2.8,9.9,12.6,17.4,22.9,17.4h0c10.3,0,20.1-7.5,22.8-17.5C429.8,440.4,428.8,438.6,427,438.1"/>
</g>
<g id="Слой_11">
	<path d="M305.5,459.7L305.5,459.7c10.4,0,20.2-7.5,22.9-17.5c0.5-1.7-0.6-3.6-2.3-4c-1.8-0.5-3.6,0.6-4,2.3   c-2,7.2-9.1,12.6-16.5,12.6h0c-7.4,0-14.5-5.4-16.5-12.6c-0.5-1.7-2.3-2.8-4-2.3c-1.7,0.5-2.8,2.3-2.3,4   C285.4,452.2,295.3,459.7,305.5,459.7"/>
</g>
<g id="Слой_10">
	<path d="M356,459.7L356,459.7c10.3,0,20.2-7.5,22.9-17.5c0.5-1.7-0.6-3.6-2.3-4c-1.7-0.5-3.6,0.6-4,2.3c-2,7.2-9.1,12.6-16.5,12.6   h0c-7.4,0-14.5-5.4-16.5-12.6c-0.5-1.7-2.3-2.8-4-2.3c-1.7,0.5-2.8,2.3-2.3,4C335.9,452.2,345.7,459.7,356,459.7"/>
</g>
<g id="Слой_9">
	<path d="M410.4,576.6c-7.4,0-14.5-5.4-16.5-12.6c-0.5-1.7-2.3-2.8-4-2.3c-1.7,0.5-2.8,2.3-2.3,4c2.8,9.9,12.6,17.4,22.9,17.4h0   c10.3,0,20.1-7.5,22.8-17.5c0.5-1.7-0.6-3.6-2.3-4c-1.8-0.5-3.6,0.6-4,2.3C425,571.1,417.9,576.6,410.4,576.6L410.4,576.6z"/>
</g>
<g id="Слой_8">
	<path d="M330.1,561.6c-1.8-0.5-3.6,0.6-4,2.3c-2,7.2-9.1,12.6-16.5,12.6h0c-7.4,0-14.5-5.4-16.5-12.6c-0.5-1.7-2.3-2.8-4-2.3   c-1.7,0.5-2.8,2.3-2.3,4c2.7,9.9,12.6,17.4,22.9,17.4h0c10.3,0,20.1-7.5,22.8-17.5C332.9,563.9,331.8,562.1,330.1,561.6"/>
</g>
<g id="Слой_7">
	<path d="M380.6,561.6c-1.8-0.5-3.6,0.6-4,2.3c-2,7.2-9.1,12.6-16.5,12.6h0c-7.4,0-14.5-5.4-16.5-12.6c-0.5-1.7-2.3-2.8-4-2.3   c-1.7,0.5-2.8,2.3-2.3,4c2.7,9.9,12.6,17.4,22.9,17.4h0c10.3,0,20.1-7.5,22.8-17.5C383.3,563.9,382.3,562.1,380.6,561.6"/>
</g>
<g id="Слой_6">
	<path d="M291.8,523.4c10.3,0,20.1-7.5,22.8-17.5c0.5-1.7-0.6-3.6-2.3-4c-1.7-0.5-3.6,0.6-4,2.3c-2,7.2-9.1,12.6-16.5,12.6h0   c-7.4,0-14.5-5.4-16.5-12.6c-0.5-1.7-2.3-2.8-4-2.3c-1.7,0.5-2.8,2.3-2.3,4C271.7,515.9,281.5,523.4,291.8,523.4L291.8,523.4z"/>
</g>
<g id="Слой_5">
	<path d="M354.8,504.2c-2,7.2-9.1,12.6-16.5,12.6h0c-7.4,0-14.5-5.4-16.5-12.6c-0.5-1.7-2.3-2.8-4-2.3c-1.7,0.5-2.8,2.3-2.3,4   c2.8,9.9,12.6,17.4,22.9,17.4h0.1c10.3,0,20.1-7.5,22.8-17.5c0.5-1.7-0.6-3.6-2.3-4S355.3,502.4,354.8,504.2"/>
</g>
<g id="Слой_4">
	<path d="M388.8,523.4c10.3,0,20.1-7.5,22.8-17.5c0.5-1.7-0.6-3.6-2.3-4c-1.7-0.5-3.6,0.6-4,2.3c-2,7.2-9.1,12.6-16.5,12.6h0   c-7.4,0-14.5-5.4-16.5-12.6c-0.5-1.7-2.3-2.8-4-2.3c-1.7,0.5-2.8,2.3-2.3,4C368.6,515.9,378.4,523.4,388.8,523.4L388.8,523.4z"/>
</g>
<g id="Слой_3">
	<path d="M486.4,329.7c45.7,0,82.9-37.2,82.9-82.9c0-45.7-37.2-82.9-82.9-82.9c-45.7,0-82.9,37.2-82.9,82.9   C403.4,292.5,440.6,329.7,486.4,329.7 M486.4,170.4c42.1,0,76.4,34.3,76.4,76.4c0,42.1-34.3,76.4-76.4,76.4   c-42.1,0-76.4-34.3-76.4-76.4C410,204.6,444.3,170.4,486.4,170.4"/>
</g>
<g id="Слой_2">
	<path d="M227.5,329.7c45.7,0,82.9-37.2,82.9-82.9c0-45.7-37.2-82.9-82.9-82.9c-45.7,0-82.9,37.2-82.9,82.9   C144.5,292.5,181.7,329.7,227.5,329.7 M227.5,170.4c42.1,0,76.4,34.3,76.4,76.4c0,42.1-34.3,76.4-76.4,76.4   c-42.1,0-76.4-34.3-76.4-76.4C151.1,204.6,185.4,170.4,227.5,170.4"/>
</g>
</g>
</svg>
