<?xml version='1.0' encoding='UTF-8'?>
<svg xmlns="http://www.w3.org/2000/svg" width="297" height="210" viewBox="0 0 297 210">
  <rect x="0" y="0" width="297" height="210" fill="white"/>
  <g transform="translate(100.053125,31.0) scale(0.115625)"><path d="M0 0 C1.52 2.77 2.35 5.15 2.82 8.27 C2.94 9.09 3.06 9.91 3.19 10.75 C3.31 11.62 3.44 12.48 3.56 13.38 C3.76 14.72 3.76 14.72 3.95 16.1 C10.6 63.7 2.49 109.65 -26 148.75 C-43.34 171.01 -66.11 188.9 -91 202 C-90.55 202.67 -90.1 203.34 -89.64 204.03 C-87.84 206.72 -86.04 209.41 -84.25 212.11 C-83.42 213.37 -82.58 214.64 -81.73 215.9 C-50.21 263.32 -31.1 315.65 -23 372 C-22.83 373.15 -22.67 374.29 -22.5 375.47 C-12.99 444.85 -20.81 533.92 -64.27 591.68 C-64.67 592.18 -65.07 592.68 -65.48 593.19 C-73.22 603.04 -71.99 612.48 -70.62 624.26 C-68.52 640.69 -65.31 656.96 -62.07 673.2 C-61.88 674.15 -61.69 675.1 -61.49 676.08 C-56.61 700.46 -51.15 724.7 -45.66 748.94 C-44.6 753.63 -43.55 758.33 -42.5 763.02 C-37.1 787.03 -31.67 811.04 -26 835 C-16.29 830.09 -7.11 825.4 1 818 C1.61 817.47 2.21 816.95 2.84 816.4 C10.42 809.4 20.45 797.21 21.16 786.55 C21.08 780.04 20.8 773.57 20.34 767.07 C20.28 766.08 20.21 765.09 20.14 764.07 C19.93 760.94 19.72 757.82 19.5 754.69 C19.28 751.54 19.07 748.4 18.86 745.25 C18.73 743.3 18.59 741.36 18.46 739.41 C17.53 725.68 17.53 725.68 21 721 C24.13 719.43 27.44 719.73 30.88 719.69 C31.6 719.66 32.32 719.63 33.06 719.6 C36.63 719.56 38.58 719.68 41.45 721.89 C43 724 43 724 44 726 C44.33 725.37 44.65 724.75 44.99 724.1 C45.43 723.28 45.86 722.47 46.31 721.62 C46.74 720.81 47.17 720 47.61 719.16 C49 717 49 717 52 715 C58.9 714.15 64.3 715.98 70 720 C71.74 722.4 72.05 723.51 71.76 726.47 C71.55 727.33 71.34 728.18 71.12 729.06 C70.46 731.87 70 734.1 70 737 C70.52 736.48 71.03 735.97 71.56 735.44 C74 734 74 734 77.25 733.88 C82.85 735.55 86.95 739.06 90.29 743.86 C91.31 746.94 90.87 748.9 90 752 C84.79 760.16 77.2 767.19 70.57 774.21 C68.26 776.65 65.97 779.11 63.71 781.6 C63.2 782.17 62.68 782.74 62.15 783.32 C61.14 784.43 60.13 785.54 59.13 786.65 C56.5 789.51 53.84 791.98 50.75 794.31 C46.42 797.91 44.47 802.7 42.13 807.67 C29.64 833.92 7.41 849.49 -18 862 C-18.55 870.67 -16.88 878.6 -15 887 C-13.76 886.65 -12.52 886.3 -11.24 885.94 C-9.6 885.48 -7.95 885.02 -6.31 884.56 C-5.5 884.33 -4.68 884.1 -3.84 883.87 C14.54 878.73 35.48 879.21 53.03 887.42 C55.45 889.36 55.63 889.95 56 893 C55.61 895.59 55.14 898.06 54.57 900.61 C54.33 901.7 54.33 901.7 54.09 902.81 C53.59 905.13 53.08 907.44 52.56 909.75 C52.22 911.32 51.88 912.89 51.54 914.46 C50.7 918.31 49.85 922.16 49 926 C49.88 925.7 50.77 925.39 51.67 925.08 C54.96 923.96 58.25 922.84 61.54 921.73 C62.96 921.25 64.39 920.76 65.81 920.27 C67.85 919.57 69.9 918.88 71.95 918.19 C73.18 917.77 74.41 917.35 75.68 916.92 C78.68 916.09 80.92 915.7 84 916 C91.26 921.47 93.71 933.34 95.62 941.71 C99.06 971.54 91.69 999.48 73.37 1023.29 C69.51 1028.12 65.33 1032.6 61 1037 C60.3 1037.72 59.59 1038.43 58.87 1039.17 C39.31 1057.76 12.2 1066.85 -14.46 1066.25 C-28.94 1065.64 -42.03 1061.06 -54 1053 C-53.95 1053.79 -53.91 1054.58 -53.86 1055.39 C-53.35 1070.89 -59.3 1085.91 -68.94 1098.06 C-77.9 1107.41 -89.19 1111.03 -101.9 1111.52 C-113 1111.68 -120.57 1110.4 -128.81 1102.56 C-129.89 1101.39 -130.96 1100.2 -132 1099 C-132.51 1098.44 -133.02 1097.87 -133.54 1097.29 C-137 1093.33 -137 1093.33 -137 1091 C-140.24 1093.36 -142.85 1095.9 -145.44 1098.94 C-150.76 1105.12 -156.29 1110.25 -164.68 1111.35 C-180.06 1112.32 -191.51 1111.66 -203.81 1101.73 C-214.55 1091.84 -220.81 1078.8 -222.81 1064.44 C-223.56 1060.52 -223.56 1060.52 -226.81 1058 C-228.76 1057.4 -228.76 1057.4 -231 1057 C-232.38 1056.72 -232.38 1056.72 -233.79 1056.43 C-249.16 1053.72 -264.88 1053.8 -280.44 1053.81 C-281.35 1053.81 -282.27 1053.81 -283.22 1053.81 C-294.33 1053.83 -305.41 1053.96 -316.5 1054.81 C-317.45 1054.88 -318.39 1054.95 -319.36 1055.02 C-325.34 1055.57 -331.58 1056.28 -337 1059 C-338.71 1061.7 -338.71 1061.7 -339 1065 C-339.43 1066.72 -339.43 1066.72 -339.86 1068.48 C-340.15 1069.7 -340.45 1070.93 -340.75 1072.19 C-344.55 1086.87 -353.12 1098.83 -366 1107 C-373.05 1111.08 -379.39 1111.64 -387.44 1111.56 C-388.51 1111.59 -389.57 1111.61 -390.67 1111.63 C-399.4 1111.62 -405.72 1109.41 -412.55 1103.97 C-413.13 1103.34 -413.71 1102.71 -414.31 1102.06 C-414.95 1101.38 -415.58 1100.7 -416.24 1100 C-418.55 1097.38 -420.81 1094.73 -423 1092 C-426.26 1094.37 -428.89 1096.94 -431.5 1100 C-436.51 1105.82 -441.77 1110.36 -449.62 1111.32 C-452.65 1111.48 -455.66 1111.52 -458.69 1111.5 C-459.76 1111.49 -460.83 1111.49 -461.93 1111.48 C-469.99 1111.3 -476.1 1110.42 -483 1106 C-483.81 1105.49 -484.62 1104.98 -485.46 1104.46 C-497.64 1095.92 -504.35 1081.44 -506.88 1067.12 C-507.75 1062.05 -508.12 1057.14 -508 1052 C-508.93 1052.53 -509.86 1053.06 -510.82 1053.61 C-531.62 1065.23 -554.72 1069.54 -578.13 1063.45 C-608.65 1054.78 -632.56 1035.01 -648.21 1007.51 C-660.44 985.31 -665.03 957.46 -657.89 932.79 C-655.84 926.84 -653.41 921.3 -650 916 C-641.43 916.3 -633.92 918.75 -625.88 921.56 C-624.63 921.99 -623.39 922.41 -622.11 922.85 C-619.07 923.89 -616.03 924.94 -613 926 C-613.38 924.51 -613.38 924.51 -613.77 922.99 C-620.59 896.17 -620.59 896.17 -620 890 C-616.3 884.57 -607.13 883.1 -601.06 881.75 C-586.91 879.51 -572.86 880.79 -559 884 C-557.42 884.35 -555.85 884.7 -554.27 885.05 C-553.47 885.23 -552.67 885.41 -551.84 885.59 C-551.23 885.73 -550.63 885.86 -550 886 C-534.22 818.86 -518.68 751.61 -505 684 C-504.82 683.09 -504.63 682.18 -504.44 681.24 C-500.99 664.23 -497.84 647.21 -495.56 630 C-495.4 628.77 -495.23 627.54 -495.06 626.28 C-493.37 612.55 -492.55 602.72 -500.62 591.12 C-530.71 546.74 -543.18 490.75 -544.62 437.81 C-544.66 436.62 -544.66 436.62 -544.69 435.4 C-546.91 350.73 -522.49 270.6 -473 202 C-474.11 201.42 -475.23 200.83 -476.38 200.23 C-500.84 187.19 -523.04 169.01 -540 147 C-540.41 146.47 -540.82 145.95 -541.23 145.41 C-563.19 116.81 -570.23 81.86 -570.19 46.44 C-570.19 45.64 -570.19 44.84 -570.19 44.02 C-570.15 7.15 -570.15 7.15 -564 1 C-532.58 -3.9 -489.93 14.79 -464.56 32.32 C-449.41 43.43 -437.37 56.43 -427 72 C-424.13 76.67 -424.13 76.67 -420 80 C-412.59 80.7 -406.78 78.45 -399.88 75.94 C-389.72 72.39 -379.6 69.47 -369.12 67.06 C-367.91 66.78 -366.69 66.5 -365.44 66.21 C-354.85 63.83 -344.23 61.89 -333.38 61.38 C-332.71 61.34 -332.06 61.3 -331.38 61.26 C-283.16 58.67 -213.89 69.32 -176 102 C-173.75 104.04 -171.55 106.12 -169.38 108.25 C-168.87 108.75 -168.36 109.24 -167.83 109.75 C-164.99 112.63 -163.2 115.13 -162 119 C-161.34 119 -160.68 119 -160 119 C-159.84 118.32 -159.67 117.65 -159.5 116.95 C-157.78 110.19 -155.49 104.07 -152.44 97.81 C-152 96.91 -151.56 96 -151.11 95.07 C-142.74 78.07 -132 62.8 -119 49 C-118.34 48.26 -117.68 47.53 -117 46.77 C-90.03 17.91 -38.93 -0.68 0 0 Z M-559 9 C-561.2 19.68 -561.34 30.19 -561.32 41.05 C-561.31 43.97 -561.34 46.88 -561.36 49.79 C-561.42 66.31 -560.11 82.92 -555.31 98.81 C-554.93 100.1 -554.93 100.1 -554.55 101.41 C-551.96 109.77 -548.35 117.43 -544 125 C-543.45 125.97 -542.89 126.94 -542.32 127.94 C-540.64 130.7 -538.86 133.35 -537 136 C-535.96 137.49 -535.96 137.49 -534.89 139.01 C-519.11 160.61 -498.71 177.7 -475.7 191.01 C-472.38 192.95 -469.12 194.98 -465.86 197 C-464.06 198.16 -464.06 198.16 -462 198 C-462.54 201.73 -463.42 203.99 -465.74 206.94 C-466.3 207.68 -466.87 208.42 -467.46 209.18 C-468.07 209.96 -468.68 210.75 -469.31 211.56 C-500.07 252.27 -518.95 301.28 -529 351 C-529.21 352.01 -529.41 353.02 -529.63 354.07 C-541.62 414.29 -537.63 476.56 -518.62 534.81 C-518.39 535.55 -518.15 536.28 -517.9 537.04 C-516.85 540.73 -516.85 540.73 -514 543 C-513.49 542.22 -512.98 541.45 -512.45 540.65 C-497.89 519 -479.18 499.25 -458 484 C-456.85 483.15 -455.71 482.3 -454.56 481.44 C-446.37 475.39 -437.87 470 -429 465 C-428.25 464.58 -427.51 464.15 -426.74 463.72 C-370.02 431.78 -297.29 418.84 -233 431 C-232.04 431.17 -231.08 431.34 -230.1 431.52 C-177.11 441.14 -127.42 463.57 -87.82 500.4 C-85.49 502.55 -83.11 504.63 -80.69 506.69 C-76.72 510.14 -73.38 513.97 -70 518 C-69.15 518.98 -68.31 519.96 -67.43 520.98 C-61.31 528.1 -55.54 535.41 -50 543 C-46.41 537.62 -45.05 531.04 -43.19 524.88 C-42.96 524.13 -42.74 523.39 -42.51 522.62 C-38.48 509.2 -35.21 495.84 -33 482 C-32.81 480.87 -32.61 479.74 -32.41 478.58 C-26.53 443.23 -25.76 404.32 -32 369 C-32.2 367.82 -32.41 366.64 -32.62 365.43 C-41.88 313.23 -59.56 259.73 -91.63 216.84 C-93.86 213.85 -96.03 210.8 -98.19 207.75 C-98.9 206.75 -99.62 205.76 -100.36 204.73 C-101.97 202.05 -102.62 200.08 -103 197 C-102.33 196.74 -101.66 196.49 -100.97 196.22 C-80.21 187.67 -63.22 174.28 -47 159 C-46.34 158.38 -45.68 157.77 -45 157.13 C-36.95 149.36 -30.12 140.33 -24 131 C-23.44 130.16 -22.87 129.31 -22.29 128.45 C-6.65 103.51 -2.78 73.79 -2.81 44.94 C-2.81 44.17 -2.81 43.39 -2.81 42.6 C-2.81 31.29 -3.19 20.18 -5 9 C-43.88 12.1 -83.98 26.26 -112 54 C-112.65 54.59 -113.3 55.18 -113.97 55.79 C-138.83 78.71 -150.7 114.65 -160 146 C-162.97 145.67 -165.94 145.34 -169 145 C-169.68 146.18 -169.68 146.18 -170.38 147.38 C-181.79 164.22 -201.71 175.24 -219 185 C-219.83 185.47 -220.65 185.94 -221.5 186.42 C-263.32 209.85 -308.22 222 -356 221 C-356.74 220.99 -357.48 220.97 -358.25 220.96 C-368.91 220.74 -379.38 219.7 -389.94 218.19 C-391.04 218.03 -392.14 217.88 -393.27 217.72 C-409.04 215.33 -409.04 215.33 -416 212 C-416.91 209.99 -416.91 209.99 -417 208 C-414.01 201 -407.78 195.3 -402.64 189.81 C-396.89 184.55 -396.89 184.55 -394 178 C-394.62 177.83 -395.24 177.67 -395.88 177.5 C-398.73 176.73 -401.58 175.96 -404.44 175.19 C-405.41 174.93 -406.39 174.67 -407.39 174.4 C-412.67 172.97 -417.87 171.44 -423.02 169.59 C-426.57 168.53 -429.31 168.57 -433 169 C-435.75 170.85 -435.75 170.85 -438 173 C-447.48 176.21 -458.12 173.84 -467 170 C-492.98 156.31 -513.26 132.62 -523.38 105.12 C-527.16 92.28 -528.26 79.41 -528.31 66.06 C-528.32 64.93 -528.32 63.8 -528.33 62.63 C-528.25 53.81 -528.25 53.81 -526 50 C-518.99 50.44 -512.71 51.68 -506.06 53.94 C-505.16 54.24 -504.26 54.55 -503.33 54.86 C-474.02 65.22 -452.45 84.22 -438.89 112.2 C-435.79 118.74 -432.82 125.33 -430 132 C-424.41 130.6 -420.28 127.76 -416 124 C-414.19 120.37 -414.34 116.89 -415 113 C-417.54 106.66 -420.65 100.56 -424.81 95.12 C-427 92 -427 92 -427.79 88.32 C-428.96 83.33 -431.54 79.76 -434.56 75.69 C-435.37 74.58 -435.37 74.58 -436.19 73.45 C-440.58 67.45 -445.09 61.59 -450 56 C-450.89 54.98 -450.89 54.98 -451.8 53.94 C-477.18 26.87 -518.11 13.38 -554 9 C-555.67 8.98 -557.33 8.98 -559 9 Z M-520 59 C-523.4 85.45 -515.51 111.36 -499.31 132.36 C-487.34 147.3 -469.84 164.84 -449.8 167.27 C-446.05 167.24 -443.17 167.11 -440 165 C-440 164.34 -440 163.68 -440 163 C-447.92 159.53 -447.92 159.53 -456 156 C-456 151 -456 151 -453.99 148.94 C-453.11 148.3 -452.22 147.66 -451.31 147 C-450.4 146.31 -449.49 145.62 -448.55 144.91 C-447.71 144.28 -446.87 143.65 -446 143 C-442.52 140.16 -441.25 138.77 -439.88 134.5 C-438.94 118.88 -454.03 99.66 -463.7 88.46 C-476.7 73.89 -497.78 62.49 -517 59 C-517.99 59 -518.98 59 -520 59 Z M-415 91 C-415 91.99 -415 92.98 -415 94 C-413.18 95.67 -411.42 97.11 -409.44 98.56 C-408.86 99 -408.29 99.43 -407.7 99.88 C-404.49 102.28 -401.21 104.54 -397.83 106.7 C-397.15 107.14 -396.47 107.58 -395.77 108.03 C-394.44 108.87 -393.11 109.7 -391.76 110.51 C-388.81 112.38 -387.19 113.41 -386.08 116.79 C-386.05 117.52 -386.03 118.25 -386 119 C-389.65 122.13 -393.74 123.72 -398.12 125.56 C-413.6 132.28 -432.14 140.68 -444 153 C-436.24 156.71 -428.41 159.75 -420.25 162.44 C-418.51 163.02 -418.51 163.02 -416.73 163.61 C-407.92 166.5 -399.04 168.95 -389.98 170.97 C-389.09 171.18 -388.2 171.4 -387.28 171.61 C-386.5 171.79 -385.71 171.96 -384.91 172.14 C-382.42 173.26 -381.95 174.51 -381 177 C-386.62 184.29 -392.62 190.82 -399.3 197.14 C-402.49 200.22 -404.76 202.61 -406 207 C-335.42 222.32 -267.49 207.27 -206.62 168.77 C-191.81 159.13 -173.66 146.39 -168.3 128.68 C-167.96 124.8 -169.3 122.13 -171.44 119.06 C-172.6 117.69 -173.79 116.33 -175 115 C-175.62 114.28 -176.24 113.56 -176.88 112.81 C-206.01 81.03 -267.13 71.35 -308 69.12 C-345.16 67.68 -381.03 76.44 -415 91 Z M-407 111 C-406.01 113.64 -405.02 116.28 -404 119 C-402.35 118.34 -400.7 117.68 -399 117 C-402.48 113.22 -402.48 113.22 -407 111 Z M-442 482 C-442.73 482.51 -443.46 483.03 -444.22 483.55 C-453.8 490.32 -462.9 497.32 -471.34 505.48 C-474 508 -474 508 -476.65 510.11 C-478.79 511.83 -480.48 513.53 -482.25 515.62 C-484.88 518.71 -487.57 521.71 -490.31 524.69 C-493.85 528.6 -497.16 532.64 -500.38 536.81 C-500.79 537.35 -501.21 537.89 -501.64 538.45 C-507.2 545.71 -507.2 545.71 -508.4 554.45 C-504.77 577.72 -484.07 600.92 -469 618 C-468.27 618.86 -467.53 619.71 -466.77 620.6 C-450.36 639.42 -430.05 654.43 -408 666 C-407.13 666.46 -406.26 666.92 -405.37 667.39 C-382.27 679.4 -357.57 687.22 -332 692 C-331.31 692.13 -330.62 692.26 -329.91 692.4 C-316.57 694.88 -303.52 695.44 -289.97 695.34 C-286.7 695.31 -283.44 695.32 -280.17 695.32 C-261.24 695.3 -242.3 694.46 -223.75 690.44 C-222.54 690.18 -221.33 689.92 -220.08 689.65 C-177.72 680.16 -137.77 659.77 -106.52 629.48 C-105 628 -103.46 626.54 -101.92 625.07 C-94.5 617.94 -88.13 610.24 -82 602 C-81.36 601.15 -81.36 601.15 -80.71 600.29 C-62.82 577.65 -62.82 577.65 -55.3 551.29 C-59.77 536.65 -75.72 522.95 -86 512 C-86.92 511.02 -86.92 511.02 -87.86 510.01 C-92.83 504.86 -98.39 500.43 -104 496 C-104.62 495.51 -105.23 495.01 -105.87 494.51 C-128.77 476.24 -154.47 462.02 -182 452 C-182.73 451.73 -183.46 451.46 -184.21 451.18 C-266.88 420.87 -369.47 430.92 -442 482 Z M-481 619 C-494.38 677.66 -507.63 736.36 -520.77 795.08 C-523.26 806.21 -525.75 817.34 -528.25 828.47 C-529.81 835.41 -531.36 842.34 -532.91 849.28 C-533.78 853.18 -534.66 857.08 -535.54 860.98 C-536.33 864.51 -537.12 868.05 -537.91 871.59 C-538.33 873.46 -538.75 875.32 -539.17 877.19 C-539.42 878.29 -539.66 879.39 -539.91 880.52 C-540.12 881.47 -540.34 882.41 -540.55 883.39 C-541 886.02 -541.24 888.34 -541 891 C-537.88 894.02 -534.22 896.18 -530.56 898.5 C-524.19 902.69 -518.55 907.52 -512.84 912.56 C-510.28 914.96 -510.28 914.96 -508 916 C-507.99 915.05 -507.98 914.11 -507.97 913.13 C-507.87 904.23 -507.77 895.33 -507.66 886.43 C-507.61 881.85 -507.55 877.27 -507.5 872.7 C-507.46 868.28 -507.4 863.87 -507.35 859.45 C-507.33 857.76 -507.31 856.08 -507.29 854.39 C-507.27 852.03 -507.24 849.68 -507.21 847.32 C-507.2 846.62 -507.19 845.92 -507.19 845.2 C-507.14 842.19 -506.96 839.87 -506 837 C-504.68 837 -503.36 837 -502 837 C-501.02 839.94 -500.87 841.85 -500.85 844.91 C-500.84 845.92 -500.83 846.94 -500.82 847.98 C-500.82 849.09 -500.81 850.21 -500.81 851.35 C-500.8 852.52 -500.79 853.7 -500.79 854.91 C-500.76 858.14 -500.75 861.37 -500.73 864.59 C-500.71 868.01 -500.69 871.42 -500.66 874.84 C-500.61 882.82 -500.56 890.81 -500.51 898.79 C-500.35 941.72 -500.35 941.72 -499.7 984.65 C-499.66 986.7 -499.63 988.76 -499.59 990.81 C-499.19 1005.62 -495.52 1019.46 -485.12 1030.5 C-477.25 1037.75 -469.93 1040.15 -459.41 1040.16 C-458.55 1040.17 -457.68 1040.17 -456.79 1040.18 C-453.93 1040.19 -451.06 1040.2 -448.2 1040.2 C-446.21 1040.21 -444.22 1040.21 -442.22 1040.22 C-438.04 1040.23 -433.87 1040.24 -429.69 1040.24 C-424.34 1040.25 -419 1040.27 -413.65 1040.3 C-409.54 1040.32 -405.42 1040.32 -401.3 1040.32 C-399.33 1040.33 -397.36 1040.33 -395.39 1040.35 C-392.63 1040.36 -389.87 1040.36 -387.11 1040.36 C-386.3 1040.37 -385.49 1040.37 -384.66 1040.38 C-373.86 1040.31 -367.47 1035.45 -360 1028 C-359.11 1027.13 -359.11 1027.13 -358.21 1026.24 C-347.96 1015.34 -346.74 1000.81 -346.59 986.55 C-346.57 985.41 -346.55 984.27 -346.53 983.1 C-346.47 979.5 -346.42 975.91 -346.38 972.31 C-346.34 969.86 -346.3 967.4 -346.26 964.95 C-346.16 958.96 -346.08 952.98 -346 947 C-344.33 946.96 -342.67 946.96 -341 947 C-339.21 948.79 -339.78 951.46 -339.7 953.88 C-339.66 955.15 -339.63 956.41 -339.59 957.71 C-339.55 959.11 -339.51 960.51 -339.47 961.91 C-339.43 963.35 -339.39 964.8 -339.35 966.24 C-338.89 982.33 -338.66 998.41 -338.44 1014.5 C-338.22 1029.6 -338.22 1029.6 -338 1045 C-300.05 1045 -262.1 1045 -223 1045 C-223.04 1013.5 -223.04 1013.5 -223.09 981.99 C-223.09 975.91 -223.09 975.91 -223.1 973.06 C-223.1 971.07 -223.1 969.08 -223.11 967.08 C-223.11 964.07 -223.11 961.05 -223.11 958.04 C-223.12 956.7 -223.12 956.7 -223.12 955.34 C-223.11 949.23 -223.11 949.23 -222 947 C-220.68 947 -219.36 947 -218 947 C-217.06 949.82 -216.87 951.6 -216.84 954.52 C-216.83 955.9 -216.83 955.9 -216.81 957.3 C-216.8 958.29 -216.8 959.28 -216.79 960.3 C-216.76 962.41 -216.73 964.53 -216.7 966.64 C-216.66 969.96 -216.63 973.28 -216.6 976.6 C-216.42 996.7 -215.92 1014.37 -201.4 1029.73 C-193.61 1037.08 -186.25 1040.31 -175.49 1040.27 C-174.66 1040.28 -173.82 1040.28 -172.97 1040.29 C-170.22 1040.3 -167.48 1040.3 -164.73 1040.3 C-162.82 1040.3 -160.9 1040.31 -158.98 1040.31 C-154.96 1040.32 -150.94 1040.32 -146.93 1040.32 C-141.8 1040.31 -136.67 1040.33 -131.54 1040.35 C-127.58 1040.36 -123.62 1040.37 -119.65 1040.36 C-117.77 1040.36 -115.88 1040.37 -113.99 1040.38 C-99.44 1040.45 -87.48 1039.79 -76.28 1029.41 C-65.38 1017.62 -63.92 1002.68 -63.44 987.37 C-63.38 985.53 -63.38 985.53 -63.32 983.65 C-62.93 971.1 -62.81 958.54 -62.74 945.98 C-62.72 941.9 -62.69 937.81 -62.66 933.73 C-62.59 923.62 -62.53 913.51 -62.47 903.39 C-62.43 895.47 -62.38 887.54 -62.32 879.61 C-62.3 876.21 -62.28 872.82 -62.26 869.43 C-62.24 865.67 -62.22 861.91 -62.19 858.14 C-62.18 856.49 -62.18 856.49 -62.18 854.8 C-62.13 848.79 -61.78 842.96 -61 837 C-59.68 837 -58.36 837 -57 837 C-55.52 839.97 -55.79 842.71 -55.7 846.02 C-55.68 846.74 -55.66 847.46 -55.64 848.21 C-55.58 850.6 -55.52 852.99 -55.46 855.38 C-55.42 857.04 -55.38 858.7 -55.33 860.35 C-55.22 864.71 -55.11 869.08 -55 873.44 C-54.89 877.89 -54.78 882.34 -54.66 886.79 C-54.44 895.53 -54.22 904.26 -54 913 C-50.13 910.74 -46.88 908.27 -43.5 905.31 C-38.19 900.74 -32.61 897.15 -26.52 893.69 C-23.72 892.19 -23.72 892.19 -23 889 C-23.31 886.92 -23.71 884.86 -24.17 882.81 C-24.31 882.18 -24.45 881.54 -24.59 880.89 C-25.07 878.73 -25.55 876.58 -26.04 874.43 C-26.39 872.86 -26.73 871.29 -27.08 869.72 C-28.05 865.36 -29.02 861.01 -30 856.65 C-30.84 852.92 -31.67 849.19 -32.5 845.46 C-35.37 832.54 -38.27 819.62 -41.17 806.7 C-42.03 802.88 -42.89 799.05 -43.74 795.22 C-49.35 770.2 -54.97 745.19 -60.59 720.18 C-60.74 719.52 -60.89 718.86 -61.04 718.18 C-62.66 711.01 -64.27 703.84 -65.89 696.68 C-66.46 694.14 -67.03 691.61 -67.6 689.07 C-68.03 687.21 -68.03 687.21 -68.45 685.31 C-70.19 677.63 -71.91 669.94 -73.62 662.25 C-74.73 657.26 -75.84 652.27 -76.96 647.27 C-77.49 644.92 -78.01 642.57 -78.53 640.22 C-79.24 637.01 -79.95 633.8 -80.67 630.59 C-80.88 629.64 -81.09 628.69 -81.3 627.71 C-81.5 626.85 -81.69 625.99 -81.89 625.1 C-82.06 624.35 -82.23 623.6 -82.4 622.83 C-82.92 620.78 -82.92 620.78 -85 619 C-85.94 619.96 -85.94 619.96 -86.89 620.94 C-109.36 643.9 -109.36 643.9 -122 653 C-123.71 654.28 -125.42 655.56 -127.13 656.84 C-128.64 657.98 -130.15 659.1 -131.67 660.22 C-134.03 661.94 -134.03 661.94 -136 664 C-136.22 670.28 -134.32 674.77 -131.44 680.25 C-109.89 721.44 -106.47 769.26 -119.91 813.65 C-133.03 854.66 -161.66 891.72 -199.98 911.95 C-201.32 912.63 -202.66 913.32 -204 914 C-204.67 914.35 -205.35 914.7 -206.05 915.06 C-245.8 935.43 -292.25 938.06 -334.76 925.03 C-366.42 914.81 -395.99 894.73 -416 868 C-416.77 867.02 -417.55 866.03 -418.34 865.02 C-441.77 834.47 -452.5 796 -452.38 757.88 C-452.37 757.16 -452.37 756.45 -452.37 755.71 C-452.23 727.55 -444.94 697.14 -429.78 673.06 C-428.49 669.64 -428.09 666.52 -429 663 C-431.07 660.48 -433.59 658.83 -436.31 657.06 C-437.69 656.12 -439.06 655.17 -440.43 654.22 C-441.52 653.46 -441.52 653.46 -442.64 652.69 C-452 645.98 -460.06 638.16 -468.06 629.94 C-470.09 627.86 -472.12 625.78 -474.16 623.71 C-475.04 622.81 -475.93 621.9 -476.84 620.97 C-478.76 618.78 -478.76 618.78 -481 619 Z M-423.06 677.06 C-437.05 698.71 -444.59 727.45 -445 753 C-445.04 754.1 -445.08 755.19 -445.12 756.32 C-446.09 803.11 -426.77 846.67 -394.79 880.2 C-368.72 906.38 -327.15 924.89 -290.09 925.19 C-241.62 925.14 -199.02 908.8 -164.19 874.62 C-153.28 863.59 -145.09 850.74 -138 837 C-137.68 836.38 -137.36 835.76 -137.03 835.13 C-116.8 795.34 -115.16 749.34 -128 707 C-133.8 688.63 -133.8 688.63 -146 675 C-154.58 673.19 -161.85 677.05 -169.5 680.5 C-172.08 681.62 -174.67 682.72 -177.26 683.82 C-177.91 684.09 -178.56 684.37 -179.23 684.65 C-232.98 707.08 -296.86 709 -353 695 C-354.46 694.64 -354.46 694.64 -355.95 694.27 C-370.3 690.59 -383.73 685.44 -397.28 679.45 C-410.67 672.77 -410.67 672.77 -423.06 677.06 Z M55 727.16 C46.97 738.56 43.43 753.91 39 767 C38.67 767 38.34 767 38 767 C37.34 754.13 36.68 741.26 36 728 C33.03 728 30.06 728 27 728 C25.15 759.08 25.15 759.08 33.93 787.33 C36.83 789.67 38.24 790.22 42 790 C45.08 788.13 47.47 785.55 50 783 C51.13 781.9 52.25 780.8 53.38 779.7 C59.5 773.68 65.54 767.63 71 761 C71.71 760.17 72.42 759.33 73.16 758.47 C73.89 757.59 74.62 756.72 75.38 755.81 C76.04 755.01 76.71 754.22 77.4 753.39 C79.09 750.86 79.63 749 80 746 C78.68 745.34 77.36 744.68 76 744 C71.45 747.71 67.55 751.52 63.76 755.99 C61.5 758.57 59.08 760.94 56.63 763.33 C55.06 764.94 53.65 766.61 52.25 768.38 C50 771 50 771 47 772 C47.62 770.28 47.62 770.28 48.25 768.53 C49.8 764.26 51.33 759.99 52.87 755.72 C53.54 753.88 54.2 752.03 54.87 750.19 C55.83 747.53 56.79 744.87 57.74 742.21 C58.04 741.4 58.33 740.58 58.64 739.74 C60.27 735.2 61.73 730.66 63 726 C61.96 724.76 61.96 724.76 59.69 724.62 C56.82 724.74 56.82 724.74 55 727.16 Z M26 799.21 C24.16 801.77 22.54 804.35 20.94 807.06 C12.13 821.03 0.04 831.19 -14.47 838.86 C-18.16 840.83 -21.41 842.62 -24 846 C-23.85 849.69 -23.85 849.69 -23 853 C-9.32 849.97 1.62 842.06 12 833 C12.69 832.45 13.39 831.9 14.11 831.33 C24.76 822.72 31.43 811.3 37 799 C32.92 796.28 29.54 795.29 26 799.21 Z M-605.44 893.94 C-608.49 897.97 -608.33 902.15 -608 907 C-607.46 910.55 -606.74 914.05 -606 917.56 C-604.76 923.48 -603.73 928.95 -604 935 C-607.83 936.43 -610.41 935.53 -614.23 934.35 C-616.06 933.8 -616.06 933.8 -617.91 933.24 C-619.19 932.85 -620.47 932.46 -621.75 932.06 C-633.98 927.55 -633.98 927.55 -646.36 929.11 C-653.99 937.91 -652.83 954.41 -652.23 965.24 C-651.24 977.02 -648.27 988.4 -643 999 C-642.56 999.91 -642.12 1000.82 -641.66 1001.75 C-629.29 1025.81 -607.84 1044.05 -582.48 1053.28 C-561.64 1059.95 -539.83 1058.66 -520.24 1049.04 C-516.64 1047.17 -513.9 1045.64 -512 1042 C-511.01 1038.63 -511.01 1038.63 -510.38 1034.81 C-510.14 1033.56 -509.9 1032.31 -509.65 1031.02 C-507.52 1016.48 -507.84 1001.63 -507.87 986.97 C-507.87 983.64 -507.87 980.3 -507.86 976.97 C-505.97 947.42 -505.97 947.42 -515 921 C-515.44 920.49 -515.87 919.97 -516.32 919.44 C-530.53 903.94 -555.09 890.87 -576.31 889.89 C-579 889.83 -581.68 889.81 -584.38 889.81 C-585.28 889.8 -586.19 889.79 -587.12 889.78 C-593.57 889.76 -600.19 889.77 -605.44 893.94 Z M-46.74 918.38 C-58.11 932.99 -54.2 962.76 -54.19 980.31 C-54.19 981.37 -54.19 982.43 -54.19 983.52 C-54.17 995.93 -54.09 1008.31 -53.19 1020.69 C-53.12 1021.68 -53.05 1022.67 -52.98 1023.69 C-52.32 1036.59 -52.32 1036.59 -46.54 1047.29 C-31.41 1057.47 -11.22 1059.55 6.48 1056.27 C31.65 1050.75 55.41 1035.32 70.06 1014 C79.45 999.21 87.58 981.85 88 964 C88.06 962.74 88.06 962.74 88.12 961.45 C88.4 950.52 87.42 938.71 82 929 C75.66 925.83 67.91 928.92 61.62 930.88 C44.85 936 44.85 936 39 936 C39.4 930.16 40.28 924.59 41.56 918.88 C44.39 905.75 44.39 905.75 41.98 893.17 C15.82 877.66 -28.6 898.6 -46.74 918.38 Z M-500 1026 C-501.19 1054.84 -501.19 1054.84 -493 1082 C-492.49 1082.97 -491.99 1083.94 -491.47 1084.93 C-486.67 1093.28 -480.45 1098.63 -471.38 1101.94 C-463.64 1103.9 -452.97 1104.82 -445.5 1101.5 C-437.48 1096.47 -431.69 1088.39 -426 1081 C-420.03 1081.96 -417.75 1084.92 -414 1089.38 C-407.98 1096.39 -401.64 1102.35 -392.03 1103.17 C-380.1 1103.28 -369.56 1100.75 -360.47 1092.62 C-349.95 1081.03 -346.79 1066.23 -346.9 1051 C-346.9 1050.28 -346.91 1049.56 -346.91 1048.81 C-346.91 1046.54 -346.92 1044.27 -346.94 1042 C-346.94 1040.45 -346.95 1038.89 -346.95 1037.34 C-346.96 1033.56 -346.98 1029.78 -347 1026 C-349.56 1028.53 -351.92 1031.09 -354.19 1033.88 C-359.91 1040.46 -368.07 1046.33 -376.9 1047.33 C-385.67 1047.94 -394.38 1048.15 -403.17 1048.13 C-404.59 1048.13 -406.01 1048.13 -407.42 1048.14 C-410.37 1048.14 -413.32 1048.14 -416.27 1048.13 C-419.99 1048.12 -423.71 1048.13 -427.43 1048.13 C-472.71 1048.19 -472.71 1048.19 -481 1043 C-481.73 1042.6 -482.46 1042.2 -483.21 1041.79 C-489.17 1038.26 -493.06 1033.65 -497.25 1028.2 C-498.12 1027.11 -498.12 1027.11 -499 1026 C-499.33 1026 -499.66 1026 -500 1026 Z M-216 1026 C-216.98 1062.12 -216.98 1062.12 -200.99 1093.25 C-197.36 1096.44 -193.3 1098.83 -189 1101 C-187.88 1101.56 -187.88 1101.56 -186.74 1102.14 C-179.28 1104.48 -168.35 1104.4 -161 1101.69 C-155.23 1098.51 -151.15 1092.98 -147 1088 C-145.79 1086.6 -144.58 1085.21 -143.38 1083.81 C-142.59 1082.88 -141.81 1081.96 -141 1081 C-138.23 1081.06 -136.47 1081.59 -134.37 1083.42 C-132.55 1085.35 -130.8 1087.31 -129.06 1089.31 C-122.62 1096.65 -117.03 1102.34 -106.72 1103.19 C-96.02 1103.46 -87.38 1101.88 -79 1095 C-78.3 1094.43 -77.6 1093.87 -76.88 1093.29 C-70.86 1087.89 -67.9 1081.45 -65 1074 C-64.65 1073.15 -64.3 1072.29 -63.94 1071.41 C-62.71 1066.95 -62.75 1062.83 -62.8 1058.23 C-62.81 1057.3 -62.81 1056.38 -62.81 1055.43 C-62.82 1052.49 -62.85 1049.56 -62.88 1046.62 C-62.89 1044.63 -62.89 1042.63 -62.9 1040.64 C-62.92 1035.76 -62.96 1030.88 -63 1026 C-65.56 1028.52 -67.88 1031.07 -70.12 1033.88 C-78.46 1043.42 -88.46 1045.73 -100.53 1046.79 C-108.04 1047.25 -115.57 1047.21 -123.1 1047.24 C-124 1047.24 -124.91 1047.25 -125.84 1047.25 C-130.61 1047.27 -135.39 1047.29 -140.17 1047.3 C-145.08 1047.31 -149.98 1047.34 -154.89 1047.38 C-158.69 1047.41 -162.49 1047.41 -166.3 1047.42 C-168.11 1047.42 -169.91 1047.43 -171.72 1047.45 C-186.65 1047.6 -196.82 1045.71 -208 1035 C-210.02 1032.63 -211.9 1030.22 -213.72 1027.69 C-214.14 1027.13 -214.57 1026.57 -215 1026 C-215.33 1026 -215.66 1026 -216 1026 Z " fill="#000000" transform="translate(702,146)"/>
<path d="M0 0 C3.25 3.25 2.29 7.15 2.33 11.57 C2.32 12.87 2.32 14.16 2.31 15.5 C2.31 16.82 2.3 18.14 2.3 19.5 C1.96 46.91 -5.7 72.14 -24 93 C-24.62 93.76 -25.25 94.51 -25.89 95.29 C-30.99 101.32 -36.75 106.19 -43 111 C-43.9 111.7 -44.8 112.41 -45.73 113.13 C-56.57 121.35 -67.56 127.4 -81.54 126.91 C-87.74 125.96 -91.99 122.71 -96 118 C-101.49 108.73 -99.92 95.52 -97.44 85.44 C-91.28 65.14 -81.15 45.92 -66 31 C-65.34 30.27 -64.67 29.53 -63.99 28.78 C-51.79 15.51 -32.14 7.57 -15.19 2.44 C-13.94 2.06 -13.94 2.06 -12.67 1.68 C-8.38 0.45 -4.5 -0.49 0 0 Z M-21.44 13.5 C-22.42 13.86 -23.4 14.22 -24.41 14.59 C-36.62 19.21 -47.18 25.3 -57 34 C-57.66 34.57 -58.32 35.13 -59 35.72 C-77.77 53 -89.6 79.34 -91.25 104.51 C-90.89 109.53 -89.19 112.71 -85.81 116.38 C-82.08 118.53 -79.15 118.69 -75 118 C-51.18 111.57 -31.15 92.14 -18.74 71.3 C-7.79 52.07 -5.39 31.73 -6 10 C-11.68 9.76 -16.17 11.56 -21.44 13.5 Z " fill="#000000" transform="translate(664,195)"/>
<path d="M0 0 C5.53 3.41 10.81 9.19 13.06 15.32 C14.55 22.74 14.88 31.15 10.82 37.76 C5.3 45.04 -0.6 49.36 -9.79 50.88 C-17.39 51.3 -24.44 48.39 -30.38 43.75 C-35.27 39.2 -38.04 33.08 -38.7 26.46 C-38.88 18.28 -37.11 11.11 -31.34 5.07 C-22.81 -2.24 -10.55 -4.58 0 0 Z " fill="#000000" transform="translate(596.5,468.5)"/>
<path d="M0 0 C5.94 5.25 9.29 11.95 9.99 19.9 C10.03 28.8 6.33 34.53 0.3 40.76 C-4.96 45.66 -10.48 47.53 -17.76 47.32 C-25.13 46.28 -31.92 43.45 -37 38 C-42.14 30.32 -44.14 23.04 -42.64 13.8 C-40.84 6.86 -36.65 2.27 -31 -2 C-20.26 -7.96 -10.06 -6.74 0 0 Z " fill="#000000" transform="translate(272,472)"/>
<path d="M0 0 C2.38 0.45 2.38 0.45 5 2 C6.13 4.86 6.48 7.84 6.94 10.88 C8.8 21.27 11.52 30.97 20 38 C20.47 38.47 20.93 38.93 21.41 39.41 C31.83 49.42 44.41 51.49 58.16 51.27 C70.62 50.79 81.83 44.7 90.38 35.75 C97.62 26.92 99.77 17.54 101.42 6.53 C102 3 102 3 103 1 C104.98 1 106.96 1 109 1 C112.02 7.04 110.14 15.44 108.38 21.62 C103.44 35.99 93.63 48.51 80.07 55.6 C66.6 61.76 50.79 63.85 36.38 59.38 C34.56 58.64 32.77 57.84 31 57 C30.07 56.58 29.14 56.15 28.19 55.71 C14.82 49.05 4.83 38.22 -0.44 24.19 C-2.45 17.4 -3.48 10.08 -3 3 C-1.5 1.07 -1.5 1.07 0 0 Z " fill="#000000" transform="translate(366,747)"/>
<path d="M0 0 C5.74 3.72 8.42 8.32 10.59 14.74 C12.3 24.12 12.43 35.85 7 44 C3.42 47.87 0.1 50.8 -5.25 51.31 C-9.84 50.93 -11.56 50.06 -15 47 C-21.44 38.26 -22.68 28.79 -21.6 18.19 C-20.4 11.8 -17.81 6.26 -12.88 1.94 C-8.21 -1.21 -5.43 -1.29 0 0 Z M-8.35 9.29 C-13.01 16.22 -13.91 23.77 -12.48 31.95 C-11.36 36.06 -10.44 39.28 -7 42 C-4.45 42.07 -4.45 42.07 -2 41 C3.02 35.62 2.4 28.89 2.29 21.98 C1.86 16.07 0.24 12.24 -4 8 C-6.95 7.65 -6.95 7.65 -8.35 9.29 Z " fill="#000000" transform="translate(541,639)"/>
<path d="M0 0 C6.61 5.34 10.44 12.8 11.34 21.18 C11.61 30.74 10.12 39.4 4 47 C1.11 50 -1.84 50.7 -5.98 51.06 C-10.66 50.92 -13.39 48.57 -16.69 45.5 C-22.34 38.1 -22.85 27.93 -22 19 C-20.78 11.41 -17.74 6.12 -12 1 C-7.88 -1.57 -4.61 -1.43 0 0 Z M-8 8 C-8.64 9.07 -9.28 10.14 -9.94 11.25 C-10.3 11.85 -10.66 12.46 -11.03 13.08 C-14.24 19.43 -14.18 28.13 -12.14 34.82 C-10.5 38.69 -10.5 38.69 -8 42 C-5.63 42.58 -5.63 42.58 -3 42 C2.74 34.98 2.71 27.77 2 19 C1.17 15.32 0.18 12.1 -2 9 C-5.11 7.7 -5.11 7.7 -8 8 Z " fill="#000000" transform="translate(309,639)"/>
</g>
</svg>
