<?xml version='1.0' encoding='UTF-8'?>
<svg xmlns="http://www.w3.org/2000/svg" width="297" height="210" viewBox="0 0 297 210">
  <rect x="0" y="0" width="297" height="210" fill="white"/>
  <g transform="translate(43.5,32.23828125) scale(0.1640625)"><path d="M0 0 C3.43 2.9 6.73 5.92 10 9 C10.61 9.54 11.21 10.08 11.84 10.64 C21.74 19.84 29.6 32.36 33.71 45.23 C34.56 47.83 35.42 49.63 37.76 51.13 C40.14 52.22 42.54 53.11 45 54 C47.02 54.85 49.04 55.7 51.06 56.56 C62.16 61.15 71.2 63.18 83.25 63.19 C84.33 63.2 85.41 63.21 86.53 63.22 C98.32 63.32 98.32 63.32 109 59 C109.69 57.22 109.69 57.22 110.12 55.12 C113.42 44.54 121.4 36.19 131 31 C139.45 26.76 148.18 23.27 157.05 20 C169.14 15.53 179.58 10.46 189.88 2.56 C194.48 -0.86 197.22 -2.39 203 -2 C210.87 1.26 215.24 6.83 218.69 14.5 C225.74 32.78 226.3 52.04 218.68 70.14 C210.88 85.42 198.13 92.89 183 100 C185.01 103.6 187.2 106.42 190.06 109.38 C193.75 113.43 197 117.59 200.06 122.12 C200.62 122.94 200.62 122.94 201.2 123.77 C208.89 135.41 214.22 148.42 219.06 161.44 C219.61 162.89 220.16 164.34 220.71 165.79 C224.13 174.86 227.44 183.95 230.74 193.06 C238.53 214.6 238.53 214.6 247 235.88 C247.41 236.87 247.82 237.86 248.24 238.88 C252.27 248.29 257.74 256.66 264.06 264.69 C264.92 265.79 265.78 266.89 266.63 267.99 C268.04 269.78 269.45 271.57 270.87 273.36 C276.71 280.87 279.78 288.28 278.67 297.86 C276.32 309.57 269.78 317.44 260.05 324.05 C256.15 326.54 252.26 329.03 248.35 331.49 C244.08 334.21 240.09 337.18 236.12 340.31 C224.57 349.37 213.98 351.36 199.38 351.31 C198.42 351.33 197.47 351.34 196.49 351.36 C180.36 351.37 165.07 346.83 149.73 342.33 C130.77 336.8 112.42 333.82 92.62 333.81 C91.37 333.8 90.11 333.79 88.82 333.78 C87.01 333.77 87.01 333.77 85.16 333.77 C84.08 333.77 82.99 333.76 81.87 333.76 C79 334 77.39 334.44 75 336 C73.49 338.02 73.49 338.02 72.31 340.38 C71.9 341.15 71.48 341.92 71.05 342.71 C69.16 346.82 68.86 350.44 68.79 354.95 C68.09 386.05 68.09 386.05 62 401 C51.94 449.16 76.77 509.32 93.82 553.29 C94.27 554.45 94.72 555.61 95.19 556.81 C96.03 558.98 96.88 561.15 97.74 563.31 C102.69 575.96 106.41 586.89 101 600 C96.43 608.5 87.95 615.04 78.81 617.94 C71.5 619.87 64.14 620.16 56.62 620.12 C55.79 620.13 54.96 620.13 54.1 620.13 C49.69 620.11 45.49 619.88 41.12 619.19 C37.64 618.77 37.34 618.74 34.38 621 C33.59 621.99 32.81 622.98 32 624 C26.86 629.13 21.86 632.58 15 635 C14.05 635.34 14.05 635.34 13.07 635.68 C-1.8 640.15 -18.67 635.38 -32.1 628.56 C-42.42 622.89 -50.79 614.31 -59 606 C-60.55 607.55 -60.42 609.3 -60.75 611.44 C-62.3 619.35 -65.32 626.71 -71.88 631.7 C-79.36 636.3 -87.12 638.38 -95.7 639.76 C-102.55 640.94 -108.87 643.25 -115.36 645.7 C-140.95 654.86 -169.27 643.88 -192.6 633.36 C-199.55 630.23 -206.29 627.35 -214 629 C-215.8 630.5 -216.97 632.1 -218.34 634 C-228.91 646.71 -249.91 651.94 -265.76 653.54 C-285.32 655.08 -304.24 652.55 -323 647 C-324.11 646.68 -324.11 646.68 -325.25 646.34 C-348.57 639.41 -371.76 628.87 -391.97 615.28 C-400.64 609.83 -413.58 613.37 -422.94 615.31 C-425.32 615.78 -427.71 616.24 -430.09 616.7 C-431.26 616.92 -432.43 617.14 -433.64 617.38 C-451.27 620.65 -469.11 622.09 -487 623 C-487.85 623.04 -488.71 623.09 -489.59 623.13 C-507.77 624.02 -525.94 624.19 -544.14 624.19 C-547.26 624.19 -550.39 624.19 -553.51 624.21 C-596.73 624.39 -596.73 624.39 -616.88 619.75 C-617.83 619.54 -618.78 619.32 -619.77 619.1 C-635.05 615.5 -653.91 609.31 -663.41 596.02 C-665.32 592.66 -665.99 590.34 -666.12 586.44 C-664.67 581.98 -662.46 579.14 -659 576 C-656.24 574.75 -654.14 574.01 -651.25 573.38 C-650.44 573.18 -649.63 572.99 -648.79 572.78 C-630.02 568.54 -610.66 566.59 -591.6 564.15 C-532.89 558.09 -532.89 558.09 -479 536 C-475.74 530.43 -475.06 525.78 -476.62 519.51 C-478.22 514.14 -480.05 508.86 -481.87 503.56 C-500.51 449.13 -508.26 378.22 -486.84 323.41 C-484.96 318.35 -484.46 313.93 -484.44 308.56 C-483.81 288.95 -476.19 271.96 -464.11 256.6 C-459 249.93 -456.83 242.96 -454.58 235.01 C-448.9 215.35 -439.71 200.18 -424.88 186.11 C-416.29 177.95 -409.05 170.43 -404.44 159.35 C-402.37 154.53 -399.45 150.9 -396 147 C-395.33 146.2 -394.67 145.41 -393.98 144.59 C-385.37 134.56 -375.78 127.03 -364.23 120.79 C-356.94 116.79 -356.94 116.79 -352.12 110.25 C-341.9 92.32 -320.56 83.12 -303 74 C-301.99 73.47 -300.98 72.94 -299.94 72.4 C-260.3 51.68 -217.3 39.73 -173 34 C-171.95 33.86 -170.9 33.72 -169.81 33.58 C-154.26 31.56 -138.7 30.44 -123.04 29.73 C-107.49 29.55 -107.49 29.55 -94 23 C-90.79 18.57 -89.91 14.68 -89.75 9.3 C-89.72 8.4 -89.69 7.5 -89.65 6.57 C-89.59 4.71 -89.54 2.84 -89.48 0.97 C-88.96 -12.8 -88.96 -12.8 -84.44 -17.88 C-62.68 -33.45 -18.32 -14.33 0 0 Z M-76.73 -9.54 C-78.65 -5.7 -78.48 -2.06 -78.51 2.18 C-78.53 3.09 -78.55 4 -78.57 4.95 C-78.62 7.92 -78.66 10.9 -78.69 13.88 C-78.72 15.92 -78.75 17.97 -78.78 20.02 C-78.84 24.11 -78.89 28.2 -78.93 32.28 C-78.98 36.55 -79.05 40.81 -79.15 45.07 C-79.22 48.38 -79.27 51.69 -79.31 55 C-79.34 56.15 -79.37 57.29 -79.4 58.47 C-79.52 75.18 -72 91.89 -60.4 103.86 C-46.76 116.01 -26.88 123.18 -9 126 C-9.62 128.88 -9.62 128.88 -11 132 C-12.43 132.44 -12.43 132.44 -13.9 132.89 C-17.7 134.25 -18.28 135.23 -20 138.81 C-28.05 156.45 -31.97 176.71 -33 196 C-33.05 196.73 -33.11 197.46 -33.16 198.22 C-34.3 227.18 -22.65 260.58 -3.12 281.88 C23.76 310.07 56.84 316.99 94.17 321.52 C115.21 324.13 135.45 328.18 155.75 334.32 C156.41 334.52 157.08 334.72 157.76 334.92 C161.01 335.91 164.26 336.91 167.5 337.93 C185.13 343.39 205.47 346.8 222.81 338.31 C223.53 337.88 224.26 337.45 225 337 C225 336.34 225 335.68 225 335 C223.97 334.97 222.94 334.95 221.88 334.92 C200.9 334.19 182.43 329.19 166.56 314.81 C165.76 314.08 165.76 314.08 164.93 313.34 C161.67 310.18 159.93 307.46 159 303 C159.33 302.01 159.66 301.02 160 300 C163.77 301.3 166.1 302.79 168.94 305.56 C182.53 318 198.78 325.74 217.5 325.19 C232.61 324.05 244.94 320.71 258 313 C258 312.34 258 311.68 258 311 C256.96 310.77 255.92 310.54 254.85 310.3 C243.45 307.68 234.65 304.59 225.9 296.56 C221.99 293.35 217.27 292.36 212.5 291 C197.55 286.62 184.52 280.74 173 270 C171.57 268.69 171.57 268.69 170.12 267.36 C157.54 255.51 148.02 241.16 138.39 226.91 C122.33 202.73 122.33 202.73 97.3 189.55 C87.6 187.94 77.77 187.28 67.98 186.54 C66.47 186.42 66.47 186.42 64.93 186.3 C63 186.15 61.06 186 59.13 185.87 C46.7 184.9 35.17 181.72 26.31 172.5 C15.56 159.2 11.32 142.84 13 126 C14.44 118.1 17.42 110.9 20.56 103.56 C28.64 84.63 29.26 64.47 22.24 45.02 C13 22.47 -4.26 6.74 -26.15 -3.47 C-38.82 -8.7 -51.75 -11.33 -65.44 -11.5 C-66.34 -11.52 -67.25 -11.54 -68.18 -11.56 C-69.03 -11.55 -69.87 -11.54 -70.75 -11.53 C-71.87 -11.52 -71.87 -11.52 -73.02 -11.52 C-75.1 -11.12 -75.1 -11.12 -76.73 -9.54 Z M189.71 15.93 C179.96 23.39 167.57 27.18 156.1 31.16 C136.37 37.71 136.37 37.71 121 51 C118.8 55.67 118.35 58.9 119 64 C123.78 68.06 129.2 69.52 135.12 71.31 C146.16 74.82 155.19 79.47 164.28 86.74 C168.69 89.98 172.37 90.61 177.79 90.51 C187.77 88.92 197.71 82.55 203.83 74.64 C213.09 61.19 214.51 46.93 213 31 C211.51 23.45 208.42 14.81 202 10 C196.52 10 193.81 12.47 189.71 15.93 Z M-295 80 C-295.79 80.4 -296.58 80.8 -297.39 81.21 C-321.9 93.45 -321.9 93.45 -341.19 112.25 C-341.66 112.94 -342.12 113.62 -342.61 114.33 C-346.95 122.66 -347.48 130.24 -347.38 139.56 C-347.36 140.84 -347.35 142.12 -347.34 143.44 C-346.03 225.78 -305.98 313.57 -255 377 C-253.9 378.39 -253.9 378.39 -252.78 379.8 C-247.57 386.29 -242.03 392.42 -236.37 398.51 C-234.16 400.92 -231.99 403.37 -229.81 405.81 C-226.4 409.57 -222.91 413.02 -219.03 416.28 C-216.81 418.16 -214.69 420.14 -212.56 422.12 C-191.93 440.71 -157.84 468.66 -128.61 468.35 C-122.13 467.72 -116.05 465.62 -109.86 463.67 C-88.09 456.86 -65.94 452.08 -43.63 447.49 C-29.52 444.58 -15.5 441.5 -1.59 437.79 C-0.35 437.47 0.88 437.14 2.15 436.8 C22.78 431.2 39.86 422.32 51.19 403.5 C59.59 388.63 62.05 369.87 57.56 353.31 C51.77 337.33 44.87 325.51 29.56 317.75 C-1.9 301.23 -24.99 276.8 -36.25 242.62 C-36.86 240.42 -37.45 238.22 -38 236 C-38.45 234.27 -38.45 234.27 -38.91 232.5 C-43.25 212.56 -42.66 189.83 -38 170 C-37.74 168.82 -37.49 167.64 -37.23 166.43 C-34.31 154.26 -29.52 142.65 -25 131 C-27.59 129.27 -29.38 128.43 -32.28 127.48 C-33.12 127.21 -33.95 126.93 -34.82 126.64 C-35.7 126.35 -36.59 126.05 -37.5 125.75 C-58.12 118.67 -71.92 108.06 -81.65 88.3 C-85.68 79.69 -87.03 71.24 -87.94 61.88 C-89.09 49.84 -89.09 49.84 -96.06 40.44 C-142.89 17.52 -252.44 58.26 -295 80 Z M36 63 C36 64.98 36 66.96 36 69 C40.46 68.5 40.46 68.5 45 68 C45 67.34 45 66.68 45 66 C42.03 65.01 39.06 64.02 36 63 Z M36.91 84 C33.4 88.32 31.94 93.03 30.38 98.31 C29.82 100.1 29.27 101.89 28.71 103.68 C28.3 104.99 28.3 104.99 27.88 106.34 C26.71 109.86 25.32 113.27 23.88 116.69 C19.22 128.95 20.34 142.04 25.25 154.07 C29.72 162.81 35.96 169.95 45 174 C54.18 176.72 63.95 176.6 73.44 177 C96.64 177.98 113.84 181.15 130.63 198.76 C139.01 208.12 145.91 218.67 153 229 C161.92 242.01 161.92 242.01 172.13 254.01 C174 256 174 256 176.38 259.06 C190.3 274.64 208.43 283.01 229 285 C229.74 285.07 230.48 285.14 231.25 285.22 C240.17 285.62 250.85 283.63 259 280 C257.6 275.04 255.31 271.08 252.5 266.81 C237.47 243.2 228.15 217.58 219.24 191.2 C205.26 149.85 187.81 107.75 146.82 86.89 C122.18 74.87 58.93 60.77 36.91 84 Z M-381.88 143.31 C-391.97 153.55 -401.78 168.19 -402 183 C-401.61 186.48 -400.86 189.84 -400.06 193.25 C-399.84 194.24 -399.61 195.23 -399.38 196.25 C-388.47 243 -371.02 287.55 -345 328 C-344.34 329.04 -343.68 330.07 -343 331.14 C-334.31 344.44 -324.98 357.27 -314.51 369.22 C-313.36 370.57 -312.24 371.95 -311.14 373.35 C-305.32 380.66 -299.02 387.29 -292.39 393.87 C-290.63 395.62 -288.88 397.38 -287.12 399.15 C-280.39 405.89 -273.49 412.09 -266 418 C-264.86 418.95 -263.72 419.91 -262.59 420.87 C-246.2 434.58 -227.6 446.52 -209 457 C-208.38 457.36 -207.75 457.72 -207.11 458.09 C-198.39 463.07 -189.47 467.2 -180.12 470.88 C-178.72 471.43 -178.72 471.43 -177.28 471.99 C-164.5 477.13 -164.5 477.13 -151 478 C-150.34 477.01 -149.68 476.02 -149 475 C-150.16 474.48 -151.33 473.96 -152.52 473.42 C-179.43 461.13 -201.77 444.05 -223.52 424.23 C-224.92 422.97 -226.32 421.73 -227.74 420.5 C-241.15 408.94 -253.58 396.33 -264 382 C-265.03 380.61 -266.06 379.23 -267.09 377.84 C-317.9 309.02 -349.08 231.19 -356.69 146.05 C-356.81 144.72 -356.81 144.72 -356.94 143.35 C-357.09 141.67 -357.23 139.99 -357.38 138.31 C-357.72 134.47 -358.14 130.76 -359 127 C-366.45 127 -376.79 138.32 -381.88 143.31 Z M-423.63 194.57 C-434.64 206.04 -445.61 225.15 -446.56 241.25 C-444.05 294.88 -392.55 353.68 -355 389 C-324.79 416.17 -291.2 437.74 -255 456 C-253.28 456.87 -253.28 456.87 -251.53 457.75 C-235.38 465.87 -219.13 473.15 -202 479 C-201.15 479.29 -200.29 479.59 -199.42 479.89 C-188.1 483.74 -176.71 486.62 -165 489 C-165.45 485.96 -165.45 485.96 -167.54 483.85 C-168.19 483.56 -168.84 483.26 -169.51 482.96 C-170.24 482.63 -170.96 482.3 -171.71 481.96 C-174.6 480.75 -177.51 479.61 -180.44 478.52 C-217.32 464.64 -255.56 441.69 -284.64 415.14 C-286.69 413.28 -288.77 411.48 -290.88 409.69 C-298.5 403.03 -305.69 395.75 -312.24 388.04 C-314.35 385.59 -316.55 383.24 -318.75 380.88 C-324.53 374.52 -329.83 367.85 -335 361 C-335.51 360.33 -336.02 359.65 -336.54 358.96 C-350.48 340.38 -362.3 320.59 -373 300 C-373.45 299.14 -373.9 298.28 -374.37 297.39 C-391.52 264.2 -403.44 228.23 -409.54 191.44 C-409.97 188.87 -409.97 188.87 -411 186 C-416.36 186 -419.98 190.93 -423.63 194.57 Z M-456 258 C-472.93 285.96 -472.93 285.96 -474.45 317.99 C-470.15 332.72 -460.78 346.39 -451 358 C-450.51 358.58 -450.02 359.17 -449.52 359.77 C-441.34 369.48 -432.76 378.81 -424 388 C-423.18 388.87 -422.35 389.73 -421.5 390.62 C-416.9 395.35 -412.02 399.58 -406.86 403.7 C-403.98 406.01 -401.18 408.41 -398.38 410.81 C-343.78 456.28 -272.84 482.11 -203.44 493.38 C-202.26 493.57 -202.26 493.57 -201.06 493.76 C-192.06 495.21 -183.11 496.43 -174 497 C-174.82 494.83 -174.82 494.83 -176.97 494.15 C-177.83 493.87 -178.69 493.59 -179.57 493.3 C-180.54 492.98 -181.51 492.66 -182.5 492.34 C-183.55 492 -184.6 491.66 -185.69 491.31 C-186.77 490.96 -187.85 490.6 -188.97 490.24 C-195.08 488.24 -201.2 486.31 -207.33 484.4 C-247.48 471.83 -284.43 453.99 -319 430 C-320.19 429.18 -320.19 429.18 -321.4 428.34 C-340.66 414.9 -358.23 399.79 -374.88 383.25 C-375.48 382.65 -376.09 382.05 -376.71 381.43 C-381.01 377.11 -385.05 372.63 -389 368 C-389.55 367.36 -390.09 366.72 -390.65 366.06 C-404.26 350 -416.48 333.24 -427 315 C-427.49 314.14 -427.99 313.29 -428.5 312.41 C-437.5 296.66 -445.73 280.36 -451.05 262.96 C-452.24 260.5 -453.8 259.56 -456 258 Z M258.38 288.31 C253.74 290.78 249.26 292.16 244.15 293.32 C243.09 293.66 243.09 293.66 242 294 C241.67 294.66 241.34 295.32 241 296 C248.73 299.26 256.68 300.23 265 299 C267.58 297.12 268.79 296.04 269.43 292.89 C269.57 289.14 269.57 289.14 268 286 C264.05 285.64 261.79 286.38 258.38 288.31 Z M58 329 C58.99 330.98 59.98 332.96 61 335 C61.66 335 62.32 335 63 335 C63.66 333.35 64.32 331.7 65 330 C63.87 328.64 63.87 328.64 60.94 328.94 C59.97 328.96 59 328.98 58 329 Z M-480 330 C-481.49 334.17 -482.5 338.22 -483.25 342.58 C-483.47 343.82 -483.68 345.07 -483.9 346.35 C-484.12 347.64 -484.34 348.92 -484.56 350.25 C-484.78 351.52 -485 352.79 -485.23 354.11 C-487.02 364.55 -488.15 374.72 -488.2 385.31 C-488.21 386.26 -488.22 387.22 -488.22 388.21 C-488.62 458.02 -472.88 526.81 -424 579 C-416.29 586.71 -407.71 593.46 -399 600 C-398.34 600.5 -397.67 601 -396.99 601.51 C-359.19 629.65 -306.6 648.96 -258.96 642.23 C-247.33 640.25 -235.76 636.13 -227 628 C-226.31 627.37 -225.63 626.73 -224.92 626.08 C-214.04 615.02 -212.83 600.46 -211 585.81 C-208.93 569.34 -206.5 552.74 -199.06 537.69 C-198.7 536.93 -198.33 536.17 -197.96 535.39 C-193.26 525.99 -187.19 517.41 -181.14 508.85 C-179.83 507.08 -179.83 507.08 -180 505 C-180.57 504.91 -181.13 504.83 -181.72 504.74 C-216.16 499.44 -249.85 494.05 -283 483 C-284.12 482.63 -285.24 482.26 -286.39 481.88 C-349.13 460.87 -414.11 424.06 -453.8 369.64 C-454.98 368.03 -456.18 366.45 -457.39 364.87 C-463.84 356.31 -469.15 347.13 -474.44 337.82 C-475.02 336.81 -475.6 335.8 -476.19 334.76 C-476.71 333.84 -477.23 332.93 -477.76 331.98 C-478.17 331.33 -478.58 330.67 -479 330 C-479.33 330 -479.66 330 -480 330 Z M49 421 C48.15 421.7 47.3 422.4 46.43 423.12 C40.33 428.08 34.44 432.47 27.44 436.06 C20.93 439.65 18.07 442.89 16 450 C15.76 450.76 15.52 451.52 15.28 452.31 C6.95 486.76 17.74 528.4 25.44 562.19 C25.62 562.99 25.8 563.79 25.99 564.62 C28.02 573.57 30.31 582.41 33.04 591.18 C33.39 592.33 33.39 592.33 33.75 593.5 C36.58 602.53 36.58 602.53 42.12 609.97 C46.42 611.51 50.47 611.49 55 611.44 C55.94 611.43 56.87 611.42 57.84 611.42 C69.67 611.14 80.63 608.19 89.31 599.75 C93.43 593.04 94.41 587.98 92.86 580.27 C91.32 574.39 89.1 568.77 86.86 563.13 C85.98 560.89 85.11 558.64 84.24 556.39 C81.59 549.56 78.9 542.75 76.2 535.95 C62.65 501.67 54.58 466.69 51.79 429.91 C51.71 429.03 51.64 428.16 51.56 427.26 C51.5 426.49 51.44 425.71 51.38 424.92 C51.14 422.77 51.14 422.77 49 421 Z M-5.31 446.37 C-6.26 446.59 -6.26 446.59 -7.24 446.82 C-9.35 447.3 -11.47 447.8 -13.58 448.29 C-15.07 448.63 -16.55 448.98 -18.04 449.32 C-21.18 450.05 -24.31 450.78 -27.44 451.51 C-30.61 452.24 -33.78 452.98 -36.95 453.71 C-47.31 456.1 -57.66 458.52 -68 461 C-69.84 461.44 -69.84 461.44 -71.71 461.89 C-74.93 462.67 -78.15 463.47 -81.36 464.27 C-82.27 464.49 -83.18 464.71 -84.11 464.94 C-89.75 466.39 -95.06 468 -98.38 473.12 C-105.94 507.95 -77 559.88 -59 588 C-48.01 604.52 -33.47 620.54 -13.55 624.92 C-2.97 626.95 9.05 627.77 19 623 C23.52 619.39 25.43 615.51 27 610 C27.49 600.35 24.66 591.2 21.94 582.06 C20.76 578.09 19.63 574.1 18.51 570.11 C18.29 569.32 18.07 568.54 17.84 567.72 C9.63 538.26 7.71 507.87 5.94 477.48 C5.72 473.8 5.5 470.11 5.28 466.43 C4.84 459.29 4.42 452.14 4 445 C0.67 445 -2.07 445.62 -5.31 446.37 Z M-117.94 475.44 C-119.28 475.84 -119.28 475.84 -120.65 476.25 C-122.99 476.93 -122.99 476.93 -125 478 C-124.55 485.33 -122.11 491.25 -119.19 497.94 C-118.7 499.07 -118.21 500.2 -117.71 501.36 C-106.2 530.79 -106.2 530.79 -88 556 C-90.08 547.93 -92.59 540.03 -95.22 532.12 C-99.98 517.69 -104.2 503.25 -106.86 488.27 C-106.99 487.53 -107.12 486.78 -107.26 486.02 C-107.6 484.03 -107.91 482.04 -108.23 480.05 C-109 477.02 -109.5 475.81 -112 474 C-114.02 474 -116.02 474.86 -117.94 475.44 Z M-141.57 483.92 C-142.21 484.36 -142.86 484.81 -143.52 485.26 C-144.53 486 -144.53 486 -145.56 486.75 C-146.27 487.25 -146.97 487.75 -147.7 488.26 C-154.29 493.03 -160.19 498.31 -166 504 C-167.18 505.12 -167.18 505.12 -168.38 506.26 C-172.13 509.88 -175.61 513.33 -178 518 C-177.84 523.03 -174.83 526 -171.62 529.56 C-170.82 530.48 -170.82 530.48 -169.99 531.41 C-168.34 533.28 -166.67 535.14 -165 537 C-164.04 538.09 -163.07 539.18 -162.11 540.27 C-150.48 553.3 -137.03 563.91 -122.95 574.15 C-116.17 579.09 -109.47 584.08 -103.06 589.5 C-102.22 590.2 -102.22 590.2 -101.36 590.92 C-97.04 594.66 -93.82 598.54 -92 604 C-91.92 605.92 -91.89 607.84 -91.9 609.76 C-91.91 611.44 -91.91 611.44 -91.91 613.15 C-91.92 614.9 -91.92 614.9 -91.94 616.69 C-91.94 617.87 -91.95 619.05 -91.95 620.26 C-91.96 623.17 -91.98 626.09 -92 629 C-90.57 628.88 -89.14 628.75 -87.71 628.61 C-86.91 628.54 -86.11 628.46 -85.29 628.39 C-80.74 627.62 -77.92 624.92 -74.75 621.75 C-71.35 616.4 -70.27 610.27 -71 604 C-74.67 592.08 -82.08 582.05 -89.25 572.03 C-100.14 556.81 -110.25 541.07 -118 524 C-118.33 523.28 -118.66 522.56 -118.99 521.82 C-124.69 509.2 -129.02 496.26 -133 483 C-136.65 482.01 -138.43 481.73 -141.57 483.92 Z M-185 530 C-194.27 548.13 -199.76 563.42 -201.56 583.81 C-201.75 585.91 -201.94 588 -202.13 590.09 C-202.31 591.97 -202.47 593.86 -202.64 595.75 C-202.95 598.55 -203.41 601.24 -204 604 C-204.51 609.66 -204.47 614.27 -201 619 C-184.61 634.17 -155.79 637.15 -134.56 637.25 C-133.49 637.27 -132.43 637.29 -131.33 637.31 C-123.04 637.35 -115.81 636.37 -108.69 631.94 C-104.27 627.11 -100.78 621.45 -100.5 614.75 C-102.2 602.01 -114.51 593.37 -124 586 C-158.89 558.85 -158.89 558.85 -171.21 544.12 C-173.69 541.18 -176.28 538.34 -178.88 535.5 C-179.36 534.96 -179.85 534.42 -180.36 533.86 C-181.55 532.55 -182.77 531.27 -184 530 C-184.33 530 -184.66 530 -185 530 Z M-492 554 C-494.94 559.88 -492.39 567.34 -490.56 573.19 C-487.27 582.98 -482 592 -477 601 C-484.71 593.4 -489.41 585.59 -494.07 575.9 C-498.27 566.9 -498.27 566.9 -506 561 C-514.14 559.46 -522.31 562.59 -529.06 567 C-531.72 569.74 -532.94 571.73 -533.12 575.59 C-532.2 586.55 -528.69 596.13 -524 606 C-533.23 599.85 -536.29 589.12 -538.95 578.81 C-540.37 575.02 -542.38 572.81 -546 571 C-554.48 570.14 -562.08 570.59 -569 576 C-573.23 581.54 -572.59 587.32 -572 594 C-571.23 597.75 -570.22 601.37 -569 605 C-576.79 597.21 -578.13 585.45 -579 575 C-595.05 574.74 -595.05 574.74 -608.8 580.83 C-611.53 585.77 -610.44 591.27 -609.1 596.54 C-608.12 599.72 -607.1 602.87 -606 606 C-609.6 603.4 -611.62 601.51 -613.12 597.31 C-613.45 596.44 -613.77 595.57 -614.11 594.67 C-614.68 592.94 -615.23 591.2 -615.74 589.45 C-617.08 584.76 -617.08 584.76 -620.06 581 C-627.14 578.59 -633.97 578.9 -641.31 579.69 C-641.99 579.75 -642.68 579.82 -643.38 579.89 C-648 580.47 -650.73 581.69 -654 585 C-655.33 587.9 -655.33 587.9 -654.06 590.25 C-641.81 606.59 -620.04 608.64 -601.17 611.36 C-587.18 613.29 -573.29 614.16 -559.17 614.2 C-557.66 614.21 -556.15 614.22 -554.64 614.22 C-549.82 614.24 -545.01 614.25 -540.19 614.25 C-539.37 614.25 -538.55 614.25 -537.7 614.25 C-512.35 614.26 -487.21 613.88 -462 611 C-461.14 610.9 -460.29 610.81 -459.41 610.71 C-442.89 608.83 -426.37 606.9 -410 604 C-410 603.01 -410 602.02 -410 601 C-411.78 599.27 -411.78 599.27 -414.19 597.56 C-426.84 587.8 -437.69 576.6 -447.5 564 C-456.62 551.15 -456.62 551.15 -470 544 C-478.4 544 -485.89 548.42 -492 554 Z " fill="#000000" transform="translate(832,72)"/>
<path d="M0 0 C7.03 4.85 11.17 11.34 12.77 19.75 C13.67 28.95 12.37 39.79 6.43 47.21 C-0.53 53.63 -7.66 55.95 -16.92 56.06 C-17.7 56.09 -18.48 56.12 -19.28 56.15 C-26.29 56.22 -31.13 54.16 -36.62 49.89 C-43.4 43 -46.94 36.72 -47.42 27 C-47.24 18.3 -45.06 11.36 -39.23 4.75 C-27.88 -5.05 -13.3 -7.47 0 0 Z M-31.98 11.71 C-33.98 14.96 -33.88 17.02 -33.23 20.75 C-30.3 24.88 -26.47 26.99 -21.61 28.18 C-14.24 29.27 -6.34 29.64 0.14 25.68 C1.93 22.44 2.15 20.44 1.4 16.8 C-0.12 11.89 -1.82 8.62 -6.36 5.81 C-15.33 2.77 -25.5 4.43 -31.98 11.71 Z " fill="#000000" transform="translate(936.234375,280.25390625)"/>
<path d="M0 0 C12.54 -0.95 24.03 5.58 33.7 13.1 C47.76 25.29 56.75 40.91 61 59 C61.26 60.09 61.26 60.09 61.54 61.2 C63.29 69.35 63.3 77.41 63.26 85.72 C63.25 88.13 63.26 90.54 63.27 92.95 C63.29 111.68 63.29 111.68 59.19 117.62 C57 119 57 119 54.36 118.59 C53.58 118.39 52.8 118.2 52 118 C51.95 117.13 51.89 116.26 51.84 115.37 C51.33 111.54 50.62 108.51 49 105 C45.45 102.28 41.62 101.04 37.37 99.73 C32.64 98.27 27.98 96.61 23.31 95 C22.31 94.66 21.31 94.32 20.28 93.97 C13.41 91.59 7.07 89.07 1 85 C0.41 84.6 -0.19 84.21 -0.8 83.8 C-6.97 79.19 -10.34 72.77 -11.73 65.32 C-12.17 61.52 -12.12 57.82 -12 54 C-10.68 54 -9.36 54 -8 54 C-5.87 58.19 -3.79 62.39 -1.88 66.69 C-1.54 67.44 -1.21 68.18 -0.86 68.95 C0 71 0 71 0.94 73.94 C2.43 76.84 3.93 76.89 7 78 C8.33 78.52 9.65 79.03 10.98 79.55 C19.3 82.73 27.64 85.63 36.25 87.94 C37.41 88.25 37.41 88.25 38.59 88.58 C43.19 89.76 47.25 90.21 52 90 C52.88 66.17 48.48 43.24 32.59 24.63 C25.07 17 15.85 12.05 6.12 7.83 C4.14 6.92 4.14 6.92 1 5 C0.05 2.27 0.05 2.27 0 0 Z " fill="#000000" transform="translate(777,77)"/>
</g>
</svg>
