<?xml version='1.0' encoding='UTF-8'?>
<svg xmlns="http://www.w3.org/2000/svg" xmlns:xlink="http://www.w3.org/1999/xlink" width="297" height="210" viewBox="0 0 297 210">
  <rect x="0" y="0" width="297" height="210" fill="white"/>
  <g transform="translate(74.5,31.0) scale(0.20555555555555555)"><g id="Слой_3">
	<path d="M590.1,384.2c5.9-1.1,9.3-9.6,7.5-19c-1.8-9.4-8-16.1-14-15c-5.9,1.1-9.3,9.6-7.6,19C577.9,378.6,584.1,385.3,590.1,384.2"/>
</g>
<g id="Слой_2">
	<path d="M648.4,373.9c-0.1,0-0.2,0-0.3,0c-9.3-34.9-41-60.7-78.7-60.9c0.7-25.2,8.1-50.7,21.2-72.2c5.2-8.5,10.2-14.6,15.7-19   c6.6-5.3,14.1-8.3,21.2-8.4h0.2c7.6,0,14.8,3.6,18.4,9.3c3.8,5.9,3.3,14.1-1.1,18.6c-0.2,0.2-0.4,0.4-0.5,0.5   c-2.6,2.3-6,2.7-9.2,1.2c-2.6-1.3-5.4-4.2-5.1-8.6l0.2-3.7c0.1-2.6-1.8-4.8-4.4-4.9c-2.5-0.2-4.8,1.8-4.9,4.4l-0.2,3.7   c-0.4,7.4,3.7,14.3,10.4,17.5c6.6,3.2,14,2.2,19.4-2.6c0.4-0.3,0.7-0.7,1-1c7.4-7.7,8.4-20.6,2.2-30.2   c-5.4-8.4-15.4-13.5-26.3-13.5h-0.2c-9.2,0.1-18.8,3.8-27,10.5c-1.1,0.9-2.2,2-3.3,3c-0.6-6.7-3.9-13.3-9.4-17.8   c-7.8-6.3-19.1-8-29.5-4.4c-8.7,3-16.6,9.6-22.3,18.5c-4.4,6.9-7.6,15.2-10,26c-6.3,27.6-4.9,56.4,4,83.2   c-14.8,8.1-27.1,20.7-34.7,36.3c-12-12.3-25.4-22.9-40.1-31.6c0.7-1.5,1.3-3,1.9-4.5c0.7-1.9,1.4-3.7,2.2-4.9   c2.2-3.5,4.8-6.8,7.6-10.3l2.3-2.9c22.4-28.2,36-62.1,38.5-95.4c2.6-35.9-7.9-71.9-28.8-98.6c-17.6-22.6-41.6-38.3-64.8-53.5   c-5.4-3.5-13.4-8.8-22.4-7.5c-7.1,1-12.6,6-16.6,10.1c-15.7,16.2-26.5,37.7-30.8,61c-21.7-5.4-44.2-6.3-66-7.1   c-6.4-0.2-16.1-0.6-23,5.2c-5.5,4.5-7.7,11.2-9.1,17.3c-10.6,45.7,8.8,96.6,47,123.7c12,8.5,25.3,14.6,38,20.5l4.2,1.9   c14.2,6.6,28.5,13.1,42.7,19.7c-16.3-1.7-32.9-1.5-49.1,1c-35.9,5.5-70.9,21.3-101.1,45.7c-25.8,20.9-48.4,48.6-65.7,80.4   l-71.4,8.8c-2.2,0.3-4,2.1-4.1,4.4c-0.1,2.3,1.4,4.3,3.6,4.8l81.3,18.8c6,9.6,13.1,18.6,21.5,26.9c16,16.1,33.3,32.4,52.8,45.9   c-33.5,14.2-66.1,31.1-97,50.4c-2.2,1.4-2.8,4.2-1.5,6.4c0.9,1.4,2.4,2.2,4,2.2c0.8,0,1.7-0.2,2.5-0.7c0.7-0.5,1.5-0.9,2.2-1.4   l-0.8,2.2c-0.9,2.4,0.4,5.1,2.8,6c0.5,0.2,1,0.3,1.6,0.3c1.9,0,3.7-1.2,4.4-3.1l4.6-13c27.8-16.4,56.8-30.8,86.6-43.1   c2.8,1.7,5.6,3.4,8.5,5c1.4,0.8,2.9,1.4,4.3,2.2c-34.8,13.6-63.9,41.4-78.7,75.8c-1,2.4,0.1,5.1,2.4,6.1c0.6,0.3,1.2,0.4,1.8,0.4   c1.8,0,3.5-1.1,4.3-2.8c0.1-0.3,0.2-0.5,0.3-0.8l0.7,2.8c0.5,2.1,2.4,3.6,4.5,3.6c0.4,0,0.7,0,1.1-0.1c2.5-0.6,4-3.1,3.5-5.6   l-3.2-13.5c16.3-28.1,43.1-50,74.2-59.9c0.3-0.1,0.6-0.3,0.9-0.5c23.1,9.7,48.1,14.7,73.2,14.7c26.5,0,53-5.5,77.1-16.5   c40.4-18.5,73.8-52.5,92.3-93.8c13.7,9.5,29.6,14.5,46.4,14.5c45.1,0,81.9-36.7,81.9-81.9c0-2.3-0.2-4.5-0.3-6.7   c3-0.9,5.2-3.7,5.2-7C655.7,377.2,652.4,373.9,648.4,373.9 M535,242c2.2-9.7,5-17.1,8.8-23c4.5-7.2,10.7-12.4,17.4-14.7   c7.2-2.5,15.3-1.4,20.6,2.9c5.5,4.4,7.6,12.3,4.9,18c-0.1,0.2-0.2,0.5-0.4,0.7c-1.7,3-4.8,4.5-8.3,4c-2.9-0.4-6.4-2.3-7.6-6.5   l-1-3.6c-0.7-2.5-3.2-3.9-5.7-3.3c-2.5,0.7-4,3.2-3.3,5.7l1,3.6c2,7.1,8,12.4,15.4,13.3c1.4,0.2,2.7,0.1,4,0   c-13.2,22.7-20.3,48.3-20.8,74.5c-7.5,0.8-14.8,2.7-21.6,5.4C530.5,294.4,529.3,267.2,535,242 M381.8,66.8c3.2-3.3,7-6.7,11.3-7.4   c5-0.7,10.5,2.5,16,6.1c22.6,14.8,45.9,30.1,62.6,51.5c19.5,25,29.3,58.6,26.8,92.2c-2.3,31.5-15.2,63.6-36.5,90.3l-2.3,2.8   c-2.8,3.4-5.6,6.9-8.1,10.8c0-1.3,0.1-2.6,0.3-3.9c0.1-0.6,0.1-1.2,0.1-1.8c0.2-2,0.5-4.1,0.8-6.2l0.5-3.6   c4.6-35.7-1.2-71.8-16.4-101.6c-13.2-26.1-33.9-47.7-58.2-61.4c-5.6-3.2-11.4-5.9-17.4-8.2c-2.5-0.9-4.9-1.8-7.4-2.6   c-0.3-0.1-0.5-0.2-0.8-0.3C357.1,101.9,367.2,81.9,381.8,66.8 M410.9,307.8c-5.9-3-12.1-6.1-18.1-8.9   c-17.9-8.2-35.8-16.5-53.7-24.7l-4.2-1.9c-12.4-5.7-25.2-11.6-36.5-19.6c-35.2-25-53.1-71.9-43.3-114c1-4.5,2.6-9.4,5.9-12.2   c3.1-2.6,7.8-3.1,12.8-3.1c1.3,0,2.6,0,3.9,0.1c22.9,0.9,46.6,1.7,68.8,8c3.8,1,7.6,2.3,11.4,3.7c29.6,11.3,55.3,35,70.6,65.1   c1.8,3.5,3.4,7.1,5,10.8c6,14.8,9.9,30.8,11.3,47.4c0.4,4.1,0.6,8.3,0.6,12.5c0.1,8.4-0.3,16.9-1.4,25.4l-0.5,3.5   c-0.6,4.5-1.3,9.2-1.4,14c0,2.3,0.4,4.7,0.8,7c0,0.1,0,0.1,0,0.2c-8.7-4.3-17.8-8-27.1-10.9C414.3,309.5,412.6,308.6,410.9,307.8    M118,444.3l40.4-5c0,0,0,0.1,0,0.2c1.9,5.4,4.3,10.7,6.9,15.8L118,444.3z M167.9,438.2c17-32.5,39.7-60.8,65.8-81.9   c6.1-4.9,12.3-9.4,18.8-13.5c-3.3,12.9-5.3,26.1-6.9,39.3c-4.6,37.4-6.8,75.5-0.5,112.6c2.3,13.5,5.9,26.9,10.8,39.8   c-20.8-13.6-39.2-30.9-56.2-47.9C185.4,472.3,174.7,456,167.9,438.2 M295.2,553.8c-8.9-18-15-37.6-18.4-57.4   c-6.4-37.1-4.2-75.2,0.5-112.6c2.2-17.7,4.9-35.3,10.6-52.2c1-2.9,2.1-5.8,3.3-8.7c12.8-4.9,25.9-8.4,39.1-10.4   c5.3-0.8,10.7-1.4,16.1-1.7c-4.3,13.4-7.3,27.2-9.5,41.1c-11.3,70.9-2.1,144.9,25.6,211.1C339.8,564.2,316.8,561.1,295.2,553.8    M426.4,547.7c-8.4,3.8-17.1,6.9-26,9.3c-7.9-13.3-13.6-28-17.5-43.1c-6.5-25.3-12.8-54-14.5-80.1c-2.7-41.5-2-82.8,9-122.1   c11.9,1.3,23.6,3.8,35,7.3c3,1.5,6,3,9.1,4.4c1,68.3,16.5,136.4,45.1,198.4C454.5,532.3,440.9,541,426.4,547.7 M486.3,502.3   c-24.4-52.3-37.4-110-38-167.7c16,9.1,30.5,20.6,43.1,34.3c-0.3,0.8-0.5,1.7-0.7,2.5c-0.3,0.9-0.6,1.8-0.8,2.8   c-0.4,1.4-0.7,2.8-1,4.2c-0.2,0.9-0.4,1.8-0.5,2.6c-0.3,1.6-0.5,3.1-0.6,4.7c-0.1,0.8-0.2,1.5-0.3,2.3c-0.2,2.3-0.3,4.7-0.3,7   c0,3,0.2,6.1,0.5,9c0.1,1,0.3,1.9,0.5,2.9c0.3,2,0.6,4,1,5.9c0.3,1.1,0.6,2.2,0.9,3.4c0.5,1.7,0.9,3.5,1.5,5.2   c0.4,1.2,0.9,2.3,1.4,3.5c0.6,1.6,1.2,3.2,2,4.8c0.5,1.2,1.2,2.3,1.8,3.4c0.8,1.5,1.5,3,2.4,4.4c0.7,1.1,1.4,2.2,2.2,3.3   c0.9,1.4,1.8,2.7,2.8,4c0.8,1.1,1.7,2.1,2.6,3.1c1.1,1.3,2.1,2.5,3.3,3.7c0.9,1,1.9,1.9,2.9,2.9c0.8,0.7,1.4,1.5,2.2,2.2   C507.8,473.2,498,488.6,486.3,502.3 M569.1,467.5c-16.7,0-32.4-5.5-45.4-16c-17.3-13.9-27.1-34.5-27.1-56.6   c0-8.8,1.6-17.4,4.6-25.5c10.5-28.1,37.9-47,67.9-47c40,0,72.6,32.5,72.6,72.6c0,3.9-0.4,7.7-1,11.4c-3.6,6.6-10.4,11.6-17.7,13   c-6.9,1.3-14.5-0.4-20.2-4.6c0.6-3.5,0.2-7.2-1.2-10.5c-1-2.4-3.8-3.5-6.1-2.4c-2.4,1-3.5,3.8-2.4,6.1c0.9,2.2,1,4.8,0.1,7   c-0.9,2.2-2.7,4.1-4.9,5c-2.4,1-3.5,3.7-2.5,6.1c0.8,1.8,2.5,2.9,4.3,2.9c0.6,0,1.2-0.1,1.8-0.4c2.7-1.1,5.1-3,6.9-5.2   c5.8,3.8,12.6,5.8,19.4,5.8c2.2,0,4.4-0.2,6.6-0.6c3.7-0.7,7.3-2.1,10.6-3.9C623.8,449.9,598.5,467.5,569.1,467.5"/>
</g>
</g>
</svg>
