<?xml version='1.0' encoding='UTF-8'?>
<svg xmlns="http://www.w3.org/2000/svg" width="297" height="210" viewBox="0 0 297 210">
  <rect x="0" y="0" width="297" height="210" fill="white"/>
  <g transform="translate(68.63490725126475,31.0) scale(0.12478920741989882)"><path d="M0 0 C0.95 0.5 0.95 0.5 1.92 1.01 C3.5 1.84 5.07 2.71 6.63 3.57 C13.81 6.25 20.21 4.22 27.22 2.05 C29.09 1.5 30.96 0.95 32.84 0.39 C33.79 0.11 34.75 -0.18 35.73 -0.47 C111.11 -22.83 199.46 -27.84 270.6 10.68 C271.21 11.01 271.83 11.34 272.46 11.68 C309.59 31.76 332.96 63.77 353.6 99.68 C354.05 100.46 354.49 101.23 354.96 102.03 C385.94 156.28 398.87 226.31 382.3 287.22 C377.58 303.72 369.93 318.73 358.6 331.68 C358.01 332.38 357.43 333.09 356.82 333.82 C352.79 338.61 348.37 342.64 343.6 346.68 C342.44 347.68 341.29 348.69 340.14 349.69 C334.48 354.63 328.83 359.54 322.97 364.24 C317.62 368.57 312.61 373.21 307.59 377.91 C305.29 380.05 302.94 382.1 300.54 384.12 C274.72 406.68 261.57 435.71 259.12 469.64 C258.66 476.97 258.3 484.3 257.94 491.64 C256.93 511.84 255.85 531.67 243.6 548.68 C243.19 549.25 242.79 549.82 242.37 550.41 C225.08 572.55 192.71 581.46 166.23 585 C159.58 585.75 152.97 585.83 146.29 585.8 C145.25 585.81 144.21 585.81 143.14 585.82 C137.63 585.81 132.19 585.61 126.7 585.17 C125.55 585.08 124.4 584.99 123.22 584.89 C122.35 584.82 121.49 584.75 120.6 584.68 C123.55 594.06 126.51 603.43 129.47 612.8 C129.69 613.49 129.91 614.18 130.13 614.89 C136.21 634.12 142.33 653.34 148.87 672.42 C149.54 674.5 150.1 676.56 150.6 678.68 C173.64 680.06 192.66 673.02 210.11 657.89 C222.24 646.94 226.41 635.77 229.04 619.87 C229.24 618.68 229.45 617.49 229.66 616.26 C230.68 610.32 231.65 604.38 232.56 598.42 C232.99 595.67 233.42 592.92 233.85 590.18 C234.16 588.21 234.44 586.25 234.72 584.28 C234.91 583.08 235.1 581.88 235.29 580.65 C235.52 579.06 235.52 579.06 235.76 577.44 C236.75 574.18 237.95 572.79 240.6 570.68 C246.67 569.52 252.42 570.22 257.6 573.68 C260.09 576.17 259.96 577.35 260.22 580.8 C260.3 581.71 260.37 582.62 260.45 583.56 C260.5 584.26 260.55 584.96 260.6 585.68 C261.13 584.92 261.66 584.16 262.21 583.38 C263.27 581.89 263.27 581.89 264.35 580.37 C265.04 579.38 265.74 578.39 266.46 577.38 C269.36 573.72 271.21 571.92 275.85 571.12 C280.86 571.87 284.04 574.12 287.6 577.68 C289.36 580.17 289.61 581.39 289.48 584.47 C288.39 588.43 286.65 591.56 284.54 595.05 C284.16 595.7 283.78 596.34 283.39 597 C282.47 598.56 281.53 600.12 280.6 601.68 C281.25 601.31 281.9 600.93 282.57 600.55 C289.53 596.78 289.53 596.78 293.79 596.37 C298.25 598.45 301.02 601.51 303.6 605.68 C304.7 608.78 305.36 611.45 304.6 614.68 C301.26 618.63 297.28 621.45 292.97 624.24 C292.33 624.66 291.69 625.09 291.03 625.52 C286.51 628.48 281.94 631.35 277.36 634.21 C269.13 639.36 261.23 644.66 253.6 650.68 C253.01 651.1 252.42 651.52 251.82 651.96 C248.49 654.44 246.29 657.39 243.91 660.74 C233.32 675.66 220.15 687.68 203.6 695.68 C207 699.16 210.54 702.37 214.22 705.55 C236.47 725.62 247.07 756.33 248.6 785.68 C250.38 826.82 235.16 868.77 207.66 899.37 C206.94 900.13 206.21 900.9 205.47 901.69 C203.43 903.79 203.43 903.79 201.22 906.74 C197.15 911.3 192.4 914.92 187.6 918.68 C186.66 919.43 185.71 920.17 184.74 920.94 C154.33 944.46 120.02 953.18 81.82 948.79 C79.47 948.54 79.47 948.54 76.85 949.62 C74.15 952.09 71.84 954.78 69.46 957.56 C60.34 967.91 48.75 973.89 35.02 974.96 C22.27 975.75 9.54 975.88 -3.23 975.92 C-4.89 975.92 -4.89 975.92 -6.58 975.93 C-12.4 975.95 -18.23 975.97 -24.05 975.97 C-30.03 975.99 -36 976.02 -41.98 976.06 C-46.62 976.09 -51.26 976.09 -55.9 976.1 C-58.1 976.1 -60.3 976.11 -62.5 976.13 C-83.57 976.3 -100.09 972.91 -115.67 957.6 C-123.26 949.74 -127.72 940.16 -129.84 929.47 C-130.2 927.39 -130.2 927.39 -131.4 924.68 C-138.51 920.66 -145.36 920.54 -153.3 920.58 C-154.72 920.58 -154.72 920.58 -156.17 920.59 C-159.18 920.59 -162.2 920.6 -165.21 920.62 C-167.26 920.62 -169.31 920.63 -171.36 920.63 C-176.38 920.64 -181.39 920.66 -186.4 920.68 C-186.45 921.48 -186.5 922.27 -186.55 923.09 C-187.58 937.92 -194.08 951.45 -204.97 961.77 C-217.8 971.86 -231 975.83 -247.16 975.82 C-248.23 975.83 -249.29 975.83 -250.38 975.84 C-253.88 975.84 -257.38 975.85 -260.88 975.85 C-263.32 975.85 -265.77 975.85 -268.21 975.86 C-273.34 975.86 -278.46 975.87 -283.59 975.86 C-290.12 975.86 -296.66 975.88 -303.2 975.9 C-308.25 975.91 -313.3 975.91 -318.35 975.91 C-320.76 975.91 -323.17 975.91 -325.58 975.92 C-349.65 975.99 -368.73 975.15 -386.78 957.49 C-388.7 955.55 -390.29 953.86 -391.69 951.5 C-394.33 948.69 -396.62 948.86 -400.4 948.68 C-403.22 948.87 -405.99 949.27 -408.78 949.68 C-439.92 953.53 -473.1 943.47 -498.03 924.61 C-500.88 922.37 -503.66 920.05 -506.4 917.68 C-507.19 917 -507.19 917 -508 916.3 C-531.28 896.04 -549.75 869.49 -558.4 839.68 C-558.63 838.91 -558.86 838.14 -559.09 837.35 C-569.04 803.26 -569.07 765.21 -552.21 733.18 C-539.34 710.11 -519.22 690.67 -493.41 683.14 C-490.18 682.26 -486.94 681.46 -483.68 680.69 C-482.59 680.42 -482.59 680.42 -481.48 680.14 C-479.4 679.68 -479.4 679.68 -475.78 679.23 C-467.26 675.32 -463.65 663.23 -460.57 654.91 C-460.15 653.79 -459.73 652.68 -459.3 651.54 C-454.48 638.52 -450.4 625.28 -446.37 612.01 C-445.36 608.68 -444.34 605.35 -443.31 602.03 C-441.33 595.58 -439.36 589.13 -437.4 582.68 C-438.07 582.82 -438.73 582.95 -439.41 583.1 C-440.3 583.28 -441.18 583.46 -442.09 583.64 C-442.96 583.82 -443.83 584 -444.72 584.18 C-474.33 589.68 -508.04 584.93 -535.4 572.68 C-536.01 572.41 -536.61 572.15 -537.23 571.87 C-546.03 567.94 -553.37 563.26 -560.4 556.68 C-561.19 555.94 -561.99 555.21 -562.8 554.45 C-573 544.07 -578.39 530.94 -580.4 516.68 C-580.58 515.47 -580.76 514.25 -580.95 513 C-582.22 503.43 -582.7 493.81 -583.22 484.17 C-585.32 445.35 -592.83 417.36 -620.4 388.68 C-620.89 388.17 -621.38 387.66 -621.88 387.13 C-627.76 381.03 -633.78 375.37 -640.42 370.09 C-649.28 362.94 -657.77 355.31 -666.2 347.66 C-668.29 345.78 -670.4 343.95 -672.53 342.12 C-700.74 317.29 -710.69 282.59 -713.26 246.04 C-717.4 176.55 -691.28 105.14 -645.84 52.72 C-643.09 49.64 -640.25 46.66 -637.4 43.68 C-636.87 43.12 -636.34 42.55 -635.79 41.97 C-599.57 3.66 -545.53 -14.42 -493.61 -16.43 C-490.72 -16.48 -487.83 -16.51 -484.94 -16.52 C-483.87 -16.53 -482.81 -16.54 -481.72 -16.54 C-437.01 -16.77 -437.01 -16.77 -416.4 -13.32 C-415.17 -13.12 -413.94 -12.91 -412.67 -12.7 C-392.92 -9.34 -373.75 -4.42 -354.61 1.46 C-353.68 1.74 -352.75 2.02 -351.79 2.3 C-350.07 2.82 -348.36 3.35 -346.65 3.9 C-338.62 6.32 -330.21 7.55 -322.54 3.51 C-320.9 2.52 -319.27 1.52 -317.65 0.49 C-281.28 -20.83 -238.86 -31.83 -197.4 -37.32 C-196.57 -37.44 -195.73 -37.56 -194.87 -37.68 C-128.2 -46.95 -58.92 -31.31 0 0 Z M-295.4 -0.32 C-296.29 0.09 -297.18 0.5 -298.1 0.92 C-312.61 7.72 -326.11 15.74 -339.4 24.68 C-340.45 25.38 -340.45 25.38 -341.51 26.1 C-350.29 32.06 -358.43 38.68 -366.4 45.68 C-367.22 46.4 -368.03 47.11 -368.88 47.85 C-371.41 50.1 -373.91 52.38 -376.4 54.68 C-377 55.23 -377.61 55.78 -378.23 56.35 C-425.6 99.84 -456.91 158.5 -468.4 221.68 C-468.57 222.6 -468.74 223.51 -468.92 224.46 C-476.75 268.41 -472.04 315.15 -459.4 357.68 C-459.15 358.55 -458.89 359.42 -458.63 360.31 C-441.63 417.3 -401.9 473.91 -353.4 508.68 C-352.29 509.51 -351.18 510.33 -350.07 511.16 C-327.85 527.62 -302.33 542.56 -276.26 551.92 C-275.19 552.31 -274.12 552.69 -273.01 553.09 C-270.91 553.84 -268.8 554.57 -266.69 555.27 C-258.74 558.07 -253.4 561.71 -249.32 569.2 C-248.73 570.43 -248.15 571.68 -247.59 572.93 C-246.92 574.34 -246.25 575.74 -245.57 577.15 C-245.05 578.25 -245.05 578.25 -244.51 579.38 C-232.19 604.94 -216.25 629.33 -193.4 646.68 C-192.37 647.48 -191.33 648.28 -190.26 649.11 C-175.14 660.54 -158.47 668.15 -140.4 673.68 C-139.17 674.07 -137.94 674.46 -136.68 674.86 C-117.93 680.14 -96.82 682.17 -77.4 682.68 C-76.18 682.72 -74.96 682.76 -73.71 682.8 C-52.36 683.17 -26.49 682.66 -8.66 669.38 C-2.5 663.19 -2.1 652.75 -1.96 644.49 C-2.01 637.03 -3.39 631.38 -8.12 625.57 C-11.04 623.15 -13.4 622.59 -17.09 621.74 C-17.77 621.58 -18.45 621.42 -19.14 621.26 C-23.61 620.23 -28.09 619.35 -32.59 618.49 C-67.6 611.85 -67.6 611.85 -78.74 596.39 C-84.54 586.93 -87.92 577.44 -90.4 566.68 C-89.64 566.49 -88.88 566.3 -88.09 566.1 C-39.68 553.92 4.91 534.83 43.6 502.68 C44.54 501.9 45.48 501.13 46.46 500.33 C53.92 494.15 60.94 487.65 67.77 480.77 C69.35 479.17 70.95 477.58 72.55 476 C79.01 469.55 84.95 462.86 90.6 455.68 C91.47 454.61 92.34 453.54 93.21 452.46 C120.87 417.28 139.9 375.57 149.29 331.87 C149.57 330.56 149.57 330.56 149.86 329.22 C153.68 310.48 155.12 291.89 154.97 272.8 C154.97 271.23 154.97 271.23 154.96 269.63 C154.88 254.13 154.41 238.96 151.6 223.68 C151.35 222.25 151.35 222.25 151.09 220.79 C142.6 172.89 122.47 127.45 92.02 89.46 C90.78 87.91 89.56 86.35 88.34 84.78 C73.43 65.94 55.82 49.06 36.6 34.68 C35.93 34.18 35.27 33.67 34.59 33.15 C-52.54 -32.82 -169.47 -47.11 -295.4 -0.32 Z M-520.4 -4.32 C-521.28 -4.18 -522.16 -4.03 -523.07 -3.88 C-535.82 -1.74 -548.13 1.64 -560.4 5.68 C-561.08 5.9 -561.76 6.12 -562.46 6.34 C-594.66 16.85 -622.74 36.99 -643.4 63.68 C-643.82 64.21 -644.23 64.74 -644.65 65.29 C-673.35 102.47 -694.66 147.03 -701.4 193.68 C-701.52 194.49 -701.64 195.31 -701.76 196.15 C-703.56 209.33 -703.63 222.59 -703.71 235.87 C-703.72 236.71 -703.73 237.54 -703.74 238.41 C-703.9 254.34 -702.26 269.96 -697.78 285.3 C-697.53 286.17 -697.27 287.04 -697.01 287.93 C-692.77 301.7 -685.52 313.59 -676.4 324.68 C-675.8 325.43 -675.19 326.18 -674.56 326.95 C-671.19 330.96 -667.55 334.45 -663.56 337.84 C-661.19 339.86 -658.89 341.95 -656.59 344.05 C-653.11 347.2 -649.55 350.22 -645.9 353.18 C-641.47 356.77 -637.2 360.49 -632.98 364.34 C-630.87 366.26 -628.74 368.13 -626.58 369.99 C-595.89 396.82 -577.77 426.45 -574.86 467.48 C-574.52 472.66 -574.22 477.85 -573.94 483.04 C-572.5 519.69 -572.5 519.69 -553.4 549.68 C-552.69 550.42 -551.98 551.16 -551.25 551.93 C-528.79 574.04 -490.76 576.15 -461.14 575.99 C-450.84 575.87 -441.27 574.73 -431.4 571.68 C-430.75 571.49 -430.11 571.31 -429.44 571.11 C-421.02 568.65 -414.2 565.21 -407.4 559.68 C-406.27 558.77 -406.27 558.77 -405.11 557.84 C-400.02 553.56 -395.85 548.81 -391.73 543.6 C-389.31 540.57 -386.8 537.63 -384.28 534.68 C-374.24 522.78 -374.24 522.78 -370.89 508.06 C-371.89 503.39 -375.57 500.88 -379.09 497.93 C-380.66 496.54 -382.22 495.14 -383.79 493.75 C-384.57 493.06 -385.35 492.38 -386.16 491.67 C-389.35 488.84 -392.39 485.89 -395.4 482.87 C-395.93 482.34 -396.45 481.82 -396.99 481.28 C-401.83 476.37 -406.15 471.11 -410.4 465.68 C-412.03 463.62 -413.66 461.64 -415.4 459.68 C-416.06 459.68 -416.72 459.68 -417.4 459.68 C-418.97 461.23 -418.97 461.23 -420.59 463.24 C-421.22 463.97 -421.85 464.7 -422.5 465.46 C-423.66 466.82 -424.82 468.18 -425.96 469.56 C-436.11 480.87 -454.87 484.94 -469.51 485.8 C-494.17 486.7 -519.47 482.6 -538.4 465.68 C-539.06 465.68 -539.72 465.68 -540.4 465.68 C-540.68 465.09 -540.96 464.5 -541.25 463.89 C-542.3 461.87 -543.47 460.11 -544.78 458.24 C-553.05 444.73 -552.49 429.02 -553.4 413.68 C-555.14 385.1 -565.48 364.42 -587.28 345.12 C-590.36 342.5 -593.51 339.97 -596.65 337.43 C-618.93 319.25 -635.89 299.29 -639.16 269.74 C-642.93 222.41 -631.14 178.4 -603.4 139.68 C-602.66 138.64 -601.91 137.59 -601.14 136.52 C-592.65 124.93 -582.76 114.16 -570.4 106.68 C-569.84 106.33 -569.28 105.99 -568.71 105.63 C-534.37 84.68 -494.9 80.49 -455.46 83.55 C-454.45 83.63 -453.43 83.71 -452.38 83.79 C-446.25 84.31 -440.23 85.14 -434.17 86.24 C-425.12 87.68 -425.12 87.68 -416.71 84.8 C-413.17 81.81 -410.44 78.13 -407.61 74.47 C-397.33 61.48 -385.09 49.08 -372.1 38.82 C-369.21 36.52 -366.4 34.14 -363.59 31.74 C-357.13 26.33 -350.32 21.49 -343.4 16.68 C-344.29 14.35 -344.29 14.35 -347.3 13.54 C-348.6 13.11 -349.9 12.7 -351.21 12.29 C-352.26 11.95 -352.26 11.95 -353.33 11.61 C-355.65 10.87 -357.96 10.15 -360.28 9.43 C-361.07 9.18 -361.86 8.94 -362.68 8.68 C-397.98 -2.28 -433.65 -7.55 -470.59 -7.57 C-472.12 -7.57 -472.12 -7.57 -473.68 -7.57 C-489.46 -7.56 -504.82 -6.99 -520.4 -4.32 Z M23.6 13.68 C27.17 17.45 30.94 20.49 35.22 23.43 C44.43 29.89 52.96 36.99 61.27 44.57 C63.33 46.44 65.42 48.25 67.54 50.05 C76.19 57.61 84.74 65.96 91.48 75.29 C95.12 80.23 97.96 83.95 104.09 85.42 C109.97 86.03 115.74 85.18 121.57 84.42 C164.87 78.83 216.07 82.92 252.04 110.55 C253.59 111.9 255.1 113.27 256.6 114.68 C257.07 115.12 257.54 115.56 258.02 116.02 C269.63 127.01 279.07 139.2 287.6 152.68 C288.28 153.74 288.96 154.81 289.66 155.91 C306.18 183.24 314.55 213.97 315.6 245.68 C315.66 247.05 315.66 247.05 315.72 248.45 C316.4 275.53 310.2 300.48 291.7 320.77 C287.31 325.3 282.54 329.26 277.64 333.21 C252.93 353.23 233.1 372.35 229.6 405.68 C229.21 410.72 228.9 415.76 228.6 420.8 C226.58 454.26 226.58 454.26 214.16 466.37 C194.61 482.68 168.4 487.23 143.6 485.68 C127.76 484.09 110.22 479.63 99.35 467.24 C98.41 466.07 97.49 464.89 96.6 463.68 C93.1 466.32 90.44 468.95 87.79 472.43 C79.03 483.34 68.88 493.11 57.95 501.8 C51.46 506.97 51.46 506.97 47.22 513.93 C48.28 524.5 58.44 533.47 65.24 541.14 C66.95 543.07 68.61 545.03 70.29 546.99 C71.38 548.23 72.49 549.45 73.6 550.68 C74.23 551.41 74.87 552.13 75.53 552.88 C89.35 567.79 110.66 574.82 130.6 575.68 C147.79 576.29 164.7 576.13 181.6 572.68 C182.28 572.54 182.97 572.4 183.67 572.26 C203.68 567.99 225.63 557.88 237.35 540.49 C245.54 526.77 247.73 512.99 248.6 497.3 C248.68 495.94 248.76 494.57 248.85 493.21 C249.18 487.74 249.51 482.28 249.82 476.81 C252.33 432.59 267.47 401.07 300.38 371.06 C302.43 369.24 304.51 367.46 306.6 365.68 C307.67 364.75 308.75 363.82 309.83 362.89 C315.24 358.23 320.66 353.6 326.22 349.12 C331.3 345 336.09 340.62 340.87 336.16 C343.6 333.68 343.6 333.68 346.12 331.73 C359.42 320.69 368.06 302.88 373.04 286.68 C373.37 285.6 373.37 285.6 373.71 284.5 C378.17 268.64 379.11 252.62 378.97 236.24 C378.97 234.81 378.97 234.81 378.96 233.35 C378.88 217.31 378.11 201.54 375.6 185.68 C375.4 184.39 375.4 184.39 375.19 183.07 C368.14 139.92 345.27 93.51 316.6 60.68 C315.94 59.92 315.29 59.15 314.61 58.36 C312.32 55.75 309.97 53.21 307.6 50.68 C307.11 50.15 306.61 49.62 306.11 49.07 C269.52 9.84 214.71 -4.83 162.6 -7.32 C114.25 -8.94 69.45 -1.77 23.6 13.68 Z M-516.4 94.68 C-517.34 94.88 -518.27 95.09 -519.23 95.3 C-531.9 98.15 -543.8 101.83 -555.4 107.68 C-556.45 108.2 -557.51 108.72 -558.59 109.26 C-566.44 113.47 -572.59 119.02 -578.9 125.22 C-580.25 126.53 -581.63 127.81 -583.02 129.08 C-608.26 152.74 -624.99 189.76 -629.4 223.68 C-629.5 224.38 -629.59 225.08 -629.69 225.8 C-630.58 233.33 -630.62 240.88 -630.64 248.45 C-630.65 250.71 -630.68 252.97 -630.71 255.23 C-630.9 280.11 -624.26 299.25 -606.81 317.26 C-601.6 322.51 -595.98 327.24 -590.21 331.87 C-567.73 350.14 -548.96 370.74 -545.8 400.7 C-545.12 408.74 -544.64 416.8 -544.19 424.86 C-543.06 443.83 -543.06 443.83 -533.4 459.68 C-515.02 474.49 -489.99 479.4 -466.84 477.21 C-448.08 475.19 -435.29 468.44 -423.4 453.68 C-423.07 452.69 -422.74 451.7 -422.4 450.68 C-423.41 448.59 -423.41 448.59 -425.02 446.43 C-425.6 445.58 -426.18 444.74 -426.78 443.87 C-427.42 442.96 -428.06 442.05 -428.71 441.12 C-452.86 405.67 -469.13 365.05 -476.65 322.87 C-476.8 322.02 -476.95 321.18 -477.11 320.31 C-479.79 304.31 -480.79 288.39 -480.71 272.18 C-480.71 271.27 -480.71 270.35 -480.71 269.41 C-480.46 210.2 -463.18 149.15 -427.95 100.98 C-426.22 98.87 -426.22 98.87 -426.4 96.68 C-429.86 96.03 -433.32 95.38 -436.78 94.74 C-438.23 94.47 -438.23 94.47 -439.7 94.19 C-464.15 89.68 -492.06 89.31 -516.4 94.68 Z M107.6 96.68 C108.25 97.59 108.91 98.5 109.58 99.44 C141.53 144.53 162.33 200.48 162.87 256.07 C162.88 257.24 162.9 258.41 162.91 259.62 C163.12 283.83 163.21 307.02 157.6 330.68 C157.15 332.78 156.72 334.89 156.28 337 C151.27 360.39 143.18 383.23 132.6 404.68 C132.03 405.83 132.03 405.83 131.46 407.01 C126.14 417.81 120.06 427.99 113.42 438.03 C107.44 447.15 107.44 447.15 104.1 457.43 C105.22 462.47 109.39 465.55 113.54 468.24 C133.52 480.4 159.24 479.33 181.22 473.99 C193.73 470.41 206.41 464.64 214.03 453.61 C217.72 446.74 218.84 439.19 219.31 431.51 C219.42 429.95 219.53 428.39 219.64 426.83 C219.69 426.03 219.75 425.23 219.8 424.4 C221.92 393.9 226.61 370.34 248.6 347.68 C249.44 346.8 250.28 345.92 251.14 345.02 C256.11 339.91 261.33 335.34 266.88 330.89 C287.77 313.93 302.42 296.81 306.6 269.68 C306.99 264.15 307.03 258.66 306.97 253.12 C306.97 252.38 306.96 251.63 306.96 250.87 C306.7 208.7 291.7 167.22 264.6 134.68 C263.97 133.89 263.34 133.09 262.69 132.27 C241.43 106.63 207.45 95.24 175.29 92.12 C167.54 91.52 159.79 91.46 152.02 91.44 C149.5 91.43 146.98 91.4 144.46 91.37 C125.37 90.95 125.37 90.95 107.6 96.68 Z M-364.14 523.31 C-367.68 527.02 -370.69 531.1 -373.75 535.2 C-378.04 540.91 -382.74 546.27 -387.4 551.68 C-388.05 552.44 -388.7 553.21 -389.37 553.99 C-391.02 555.91 -392.71 557.8 -394.4 559.68 C-394.93 560.32 -395.46 560.96 -396.01 561.62 C-400.41 566.58 -405.18 569.27 -411.03 572.18 C-417.52 575.47 -422.13 577.93 -425.4 584.68 C-425.96 585.75 -426.52 586.82 -427.09 587.92 C-434.67 603.24 -439.39 620 -444.61 636.23 C-445.41 638.71 -446.21 641.18 -447.02 643.66 C-448.32 647.7 -449.62 651.75 -450.91 655.8 C-451.4 657.34 -451.89 658.87 -452.39 660.4 C-453.07 662.53 -453.75 664.67 -454.42 666.8 C-454.99 668.62 -454.99 668.62 -455.58 670.47 C-456.33 673.38 -456.58 675.7 -456.4 678.68 C-455.81 678.76 -455.21 678.85 -454.59 678.94 C-437 681.5 -421.34 686.07 -405.34 693.83 C-403.45 694.81 -403.45 694.81 -401.4 694.68 C-401.36 693.74 -401.36 693.74 -401.33 692.77 C-401.21 689.89 -401.09 687 -400.96 684.12 C-400.93 683.13 -400.89 682.14 -400.85 681.12 C-400.62 675.9 -400.26 670.83 -399.4 665.68 C-396.43 664.69 -396.43 664.69 -393.4 663.68 C-393.39 664.99 -393.38 666.29 -393.37 667.64 C-393.15 698.69 -392.92 729.75 -392.69 760.8 C-392.66 764.63 -392.63 768.46 -392.6 772.29 C-392.59 773.43 -392.59 773.43 -392.59 774.59 C-392.49 786.91 -392.4 799.23 -392.32 811.54 C-392.23 824.19 -392.13 836.84 -392.03 849.49 C-391.97 857.29 -391.92 865.08 -391.86 872.88 C-391.82 878.87 -391.78 884.87 -391.73 890.86 C-391.71 893.31 -391.69 895.75 -391.68 898.2 C-392.72 920.6 -392.72 920.6 -386.84 941.55 C-386.51 942.16 -386.18 942.76 -385.84 943.39 C-385.05 944.83 -384.23 946.26 -383.4 947.68 C-379.94 946.53 -379.59 945.81 -377.65 942.87 C-374.19 938.07 -370.78 935.77 -365.09 933.93 C-357.32 933.21 -350.9 932.82 -344.4 937.68 C-336.62 944.81 -332.68 952.52 -330.89 962.83 C-330.51 964.91 -330.51 964.91 -328.4 966.68 C-326.33 966.62 -326.33 966.62 -324.4 965.68 C-323.23 963 -322.3 960.45 -321.4 957.68 C-317.8 947.35 -313.48 939.68 -303.4 934.68 C-296.29 932.31 -289.07 933.48 -282.4 936.68 C-273.88 941.65 -270.29 951.21 -267.65 960.3 C-267.45 961.1 -267.25 961.9 -267.04 962.72 C-266.5 964.88 -266.5 964.88 -264.4 966.68 C-262.33 966.95 -262.33 966.95 -260.4 965.68 C-259.42 963.14 -258.69 960.8 -258.03 958.18 C-255.4 949 -252.62 942.38 -244.21 937.18 C-237.6 933.52 -231.42 932.4 -223.99 934.29 C-217.83 936.69 -214.43 940.59 -210.4 945.68 C-209.09 947.03 -207.76 948.37 -206.4 949.68 C-197.17 936.77 -196.31 925.91 -196.12 910.3 C-196.1 909.12 -196.08 907.95 -196.07 906.75 C-196.01 903.02 -195.95 899.29 -195.9 895.55 C-195.7 881.37 -195.49 867.18 -194.93 853 C-194.9 851.98 -194.86 850.97 -194.82 849.92 C-194.78 848.99 -194.74 848.07 -194.7 847.11 C-194.67 846.3 -194.63 845.49 -194.6 844.65 C-194.4 842.68 -194.4 842.68 -193.4 840.68 C-191.75 841.01 -190.1 841.34 -188.4 841.68 C-187.19 855.8 -187.07 869.95 -186.84 884.12 C-186.7 892.55 -186.55 900.99 -186.4 909.68 C-167.92 909.68 -149.44 909.68 -130.4 909.68 C-130.34 905.37 -130.28 901.06 -130.22 896.62 C-130.17 893.16 -130.12 889.71 -130.06 886.26 C-130.01 882.62 -129.95 878.98 -129.91 875.35 C-129.86 871.84 -129.8 868.33 -129.75 864.82 C-129.72 862.84 -129.69 860.86 -129.67 858.89 C-129.57 852.74 -129.34 846.76 -128.4 840.68 C-126.75 840.68 -125.1 840.68 -123.4 840.68 C-122.49 843.41 -122.22 845.27 -122.1 848.1 C-122.04 849.46 -122.04 849.46 -121.98 850.85 C-121.94 851.85 -121.9 852.84 -121.86 853.87 C-121.82 854.92 -121.78 855.98 -121.74 857.06 C-121.42 865.8 -121.28 874.53 -121.19 883.27 C-121.18 884.62 -121.16 885.96 -121.15 887.31 C-121.09 892.82 -121.03 898.32 -121 903.83 C-120.98 906.59 -120.96 909.36 -120.93 912.12 C-120.9 914.69 -120.88 917.26 -120.87 919.82 C-120.74 929.04 -119.22 936.29 -114.34 944.18 C-113.83 945.01 -113.33 945.85 -112.8 946.71 C-111.55 948.8 -111.55 948.8 -109.4 949.68 C-108.69 948.44 -108.69 948.44 -107.96 947.18 C-104.34 941.76 -99.26 937.14 -93.46 934.18 C-84.56 932.73 -77.97 933.44 -70.4 938.68 C-62.7 945.46 -59.6 953.95 -57.31 963.71 C-56.59 965.89 -56.59 965.89 -54.31 966.46 C-53.68 966.53 -53.05 966.61 -52.4 966.68 C-50.21 963.55 -49.06 960.64 -48.09 956.99 C-45.62 948.4 -41.11 940.53 -33.4 935.68 C-26.85 933.01 -19.94 932.61 -13.21 934.87 C-5.24 938.31 -1.07 943.98 2.6 951.68 C3.77 955.09 4.8 958.51 5.74 961.99 C6.41 964.8 6.41 964.8 8.6 966.68 C10.67 966.94 10.67 966.94 12.6 965.68 C13.56 963.16 14.26 960.84 14.91 958.24 C17.57 948.88 21.12 941.67 29.41 936.05 C36.07 932.49 42.07 932.8 49.22 934.74 C54.27 936.62 57.82 939.93 61.6 943.68 C62.42 944.48 63.25 945.29 64.1 946.12 C64.59 946.63 65.09 947.15 65.6 947.68 C66.57 946.38 67.53 945.06 68.47 943.74 C69.01 943.01 69.54 942.28 70.09 941.53 C74.26 933.65 74 924.63 74.19 915.94 C74.23 914.48 74.27 913.02 74.3 911.55 C74.87 887.99 74.91 864.42 75.06 840.86 C75.14 828.09 75.24 815.32 75.33 802.56 C75.35 800.45 75.36 798.34 75.38 796.23 C75.55 773.65 75.76 751.06 76.07 728.48 C76.1 726.35 76.12 724.21 76.15 722.08 C76.32 708.97 76.57 695.87 77.07 682.77 C77.12 681.23 77.12 681.23 77.18 679.67 C77.39 674.61 77.77 669.68 78.6 664.68 C80.58 664.18 80.58 664.18 82.6 663.68 C83.26 673.91 83.92 684.14 84.6 694.68 C87.38 693.46 90.17 692.25 93.04 690.99 C108.29 684.51 123.19 680.89 139.6 678.68 C137.59 670.25 135.24 661.97 132.65 653.71 C132.08 651.9 132.08 651.9 131.51 650.06 C130.71 647.53 129.92 645 129.12 642.47 C127.92 638.66 126.74 634.84 125.55 631.03 C121.24 617.24 116.55 603.84 110.6 590.68 C110.13 589.61 109.66 588.54 109.18 587.44 C105.66 579.73 98.87 577.53 91.5 574.5 C77.48 568.46 67.84 558.49 58.6 546.68 C57.62 545.45 56.63 544.22 55.65 543 C55.14 542.36 54.63 541.72 54.1 541.07 C53.58 540.42 53.07 539.78 52.54 539.12 C49.72 535.61 46.92 532.09 44.16 528.54 C43.46 527.63 42.76 526.73 42.04 525.8 C41.14 524.63 41.14 524.63 40.22 523.44 C38.62 521.42 38.62 521.42 35.6 520.68 C36.04 527.58 37.27 534.07 39.05 540.73 C42.44 554.06 42.98 567.63 42.91 581.3 C42.91 582.48 42.91 582.48 42.9 583.68 C42.85 596.54 42.13 609.04 39.6 621.68 C39.43 622.53 39.27 623.39 39.09 624.27 C28.99 674.7 -1.46 721.88 -44.15 750.87 C-73.4 770.35 -109.12 785.63 -144.79 785.85 C-145.82 785.85 -145.82 785.85 -146.87 785.86 C-149.09 785.87 -151.31 785.87 -153.53 785.87 C-154.29 785.87 -155.05 785.87 -155.83 785.86 C-196.33 785.76 -236.01 776.68 -269.4 752.68 C-270.03 752.23 -270.66 751.78 -271.31 751.32 C-318.89 717.06 -348.4 670.57 -358.4 612.68 C-362.43 586.02 -359.98 559.93 -354.81 533.69 C-354.63 532.72 -354.44 531.75 -354.25 530.75 C-354.08 529.88 -353.91 529.01 -353.73 528.11 C-353.27 524.73 -353.67 522 -354.4 518.68 C-359.48 518.68 -360.54 520 -364.14 523.31 Z M22.22 528.85 C-7.97 548.62 -41.28 563.48 -76.41 571.99 C-78.6 572.49 -78.6 572.49 -79.4 574.68 C-74.58 586.56 -68.29 597.93 -56.73 604.34 C-46.84 608.32 -35.95 609.85 -25.52 611.77 C-24.57 611.95 -23.63 612.12 -22.66 612.3 C-20.87 612.63 -19.08 612.94 -17.28 613.25 C-8.24 614.85 -2.72 618.14 2.6 625.68 C9.25 638.83 7.17 654.71 2.75 668.27 C-0.71 676.04 -7.39 680.27 -15 683.52 C-33.26 689.75 -52.94 691.1 -72.09 691.05 C-72.93 691.05 -73.78 691.05 -74.65 691.05 C-126.51 690.93 -176.6 676.08 -214.4 639.68 C-215.04 639.09 -215.68 638.5 -216.34 637.89 C-232.18 622.94 -243.27 602.31 -252.3 582.73 C-252.9 581.44 -253.49 580.16 -254.1 578.88 C-254.9 577.18 -255.69 575.47 -256.47 573.77 C-261.08 566.41 -266.99 563.72 -275.03 561.18 C-297.12 553.65 -319.58 542.76 -338.72 529.38 C-341.3 527.41 -341.3 527.41 -344.4 527.68 C-358.13 579.59 -352.42 634.41 -325.79 681.31 C-317.16 696.07 -306.66 708.78 -294.53 720.8 C-293.61 721.73 -292.69 722.65 -291.75 723.61 C-276.21 739.11 -258.48 751.76 -238.4 760.68 C-237.28 761.18 -237.28 761.18 -236.13 761.69 C-199.26 777.9 -158.79 782.2 -119.4 773.68 C-118.52 773.49 -117.64 773.31 -116.73 773.11 C-85.67 766.35 -58.44 752.48 -34.4 731.68 C-33.61 731 -32.82 730.32 -32 729.61 C4.14 697.81 26.96 655.6 33.6 607.68 C33.7 606.96 33.8 606.24 33.91 605.5 C36.8 582.9 37.77 547.51 26.6 526.68 C24.87 526.68 23.63 527.91 22.22 528.85 Z M244.6 579.68 C244.51 580.27 244.41 580.87 244.32 581.48 C243.36 587.73 242.38 593.97 241.4 600.22 C241.04 602.54 240.68 604.86 240.32 607.19 C234.64 644 234.64 644 226.6 653.68 C225.94 654.49 225.28 655.3 224.6 656.13 C213.23 669.39 199.06 678.91 182.6 684.68 C185.64 687.86 186.99 688.61 191.54 689.12 C206.53 688.83 221.89 672.06 231.7 661.89 C235.09 658.24 237.89 654.24 240.74 650.16 C249.19 638.86 263.16 632.05 274.93 624.75 C276.01 624.07 277.1 623.4 278.21 622.71 C280.36 621.37 282.51 620.04 284.66 618.72 C285.65 618.11 286.64 617.5 287.65 616.87 C288.53 616.32 289.42 615.78 290.32 615.22 C292.35 613.85 293.95 612.48 295.6 610.68 C294.28 609.36 292.96 608.04 291.6 606.68 C281.96 612.76 272.52 619.1 263.14 625.57 C258.66 628.65 254.13 631.67 249.6 634.68 C250.81 631.47 252.13 628.62 254 625.74 C254.47 625 254.94 624.26 255.43 623.5 C256.19 622.32 256.19 622.32 256.97 621.12 C261.44 614.12 265.85 607.09 270.16 599.99 C270.66 599.18 271.16 598.37 271.68 597.53 C274.59 592.7 276.78 588.02 278.6 582.68 C277.28 582.35 275.96 582.02 274.6 581.68 C269.51 588.65 264.9 595.88 260.31 603.19 C255.15 611.41 249.89 619.55 244.6 627.68 C245.03 624.43 245.47 621.18 245.91 617.93 C246.04 616.94 246.18 615.96 246.31 614.94 C247.35 607.32 248.47 599.71 249.68 592.12 C250.58 586.43 250.58 586.43 250.6 580.68 C249.53 579.38 249.53 579.38 247.04 579.62 C246.23 579.64 245.43 579.66 244.6 579.68 Z M-519.4 707.68 C-520.24 708.36 -521.08 709.03 -521.95 709.73 C-543.39 727.91 -553.5 754.01 -555.99 781.45 C-559.1 822.35 -543.78 862.68 -517.65 893.74 C-495.96 918.79 -465.65 936.74 -432.4 940.68 C-429.57 940.84 -426.74 940.86 -423.9 940.87 C-423.2 940.88 -422.5 940.89 -421.78 940.9 C-414.08 940.92 -407.25 939.73 -399.4 938.68 C-400.39 920.86 -400.39 920.86 -401.4 902.68 C-405.92 903.67 -405.92 903.67 -410.53 904.68 C-434.81 909.66 -457.76 904.15 -478.4 890.68 C-482.26 887.87 -485.86 884.87 -489.4 881.68 C-490.23 880.94 -491.06 880.21 -491.92 879.45 C-512.15 860.46 -524.69 832.27 -525.74 804.6 C-525.77 802.54 -525.78 800.49 -525.78 798.43 C-525.78 797.34 -525.77 796.26 -525.77 795.14 C-525.64 786.1 -524.33 778.24 -521.4 769.68 C-521.1 768.75 -520.8 767.83 -520.49 766.88 C-514.26 749.56 -501.35 736.32 -484.96 728.37 C-467.14 720.73 -445.71 719.51 -427.4 726.68 C-422.63 728.74 -418.04 731.11 -413.47 733.58 C-409.49 735.7 -405.44 737.68 -401.4 739.68 C-401.2 734.93 -401.06 730.18 -400.96 725.43 C-400.92 723.81 -400.87 722.2 -400.8 720.58 C-400.06 711.67 -400.06 711.67 -402.89 703.62 C-405.02 702.24 -406.98 701.46 -409.4 700.68 C-410.92 699.99 -412.44 699.29 -413.96 698.58 C-448.58 684.31 -489.12 682.58 -519.4 707.68 Z M96.6 698.68 C95.74 699.03 94.88 699.38 93.99 699.74 C90.5 701.27 88.75 702.45 86.66 705.68 C85.02 710.32 84.48 714.02 84.5 718.98 C84.5 720.18 84.51 721.39 84.51 722.63 C84.52 723.88 84.53 725.14 84.54 726.43 C84.54 727.7 84.54 728.97 84.55 730.28 C84.56 733.41 84.58 736.55 84.6 739.68 C91.6 736.21 91.6 736.21 98.51 732.58 C116.46 722.97 138.03 718.35 158.13 724.17 C161.04 725.17 163.81 726.37 166.6 727.68 C167.59 728.14 168.58 728.59 169.59 729.07 C186.72 737.74 197.86 751.81 204.32 769.67 C210.2 787.61 210.73 807.48 205.6 825.68 C205.4 826.38 205.2 827.09 205 827.81 C200.16 844.53 192.71 858.34 181.6 871.68 C180.88 872.56 180.16 873.45 179.42 874.36 C165.12 891.17 141.74 904.6 119.6 906.68 C107.34 907.4 96.49 905.66 84.6 902.68 C84.54 903.49 84.49 904.29 84.43 905.12 C84.18 908.81 83.92 912.49 83.66 916.18 C83.57 917.45 83.49 918.72 83.4 920.02 C82.96 926.27 82.47 932.48 81.6 938.68 C110.1 946.28 139.76 937.96 164.79 923.93 C173.98 918.59 181.9 911.97 189.6 904.68 C190.53 903.82 191.47 902.96 192.43 902.07 C212.77 882.96 225.91 857.69 233.97 831.24 C234.21 830.46 234.45 829.68 234.7 828.88 C237.98 817.58 238.97 806.47 238.97 794.75 C238.97 792.51 239.01 790.27 239.05 788.03 C239.25 761.68 229.15 736.25 211.6 716.68 C211.04 716.05 210.47 715.41 209.89 714.76 C193.87 697.76 171.84 689.18 148.73 688.44 C129.41 688.12 114.2 690.92 96.6 698.68 Z M-497.61 746.58 C-513.14 764.72 -519.07 785.99 -517.4 809.68 C-514.12 837.64 -499.36 861.98 -478.34 880.4 C-463.49 891.92 -446.19 898.05 -427.46 897.99 C-425.93 898.02 -425.93 898.02 -424.37 898.04 C-417.69 898.05 -411.6 897.34 -405.4 894.68 C-402.37 891.64 -402.66 887.97 -402.29 883.87 C-402.21 882.98 -402.13 882.08 -402.04 881.16 C-401.18 871.32 -401.11 861.5 -401.14 851.63 C-401.14 849.67 -401.13 847.72 -401.13 845.76 C-401.13 841.69 -401.13 837.62 -401.14 833.55 C-401.15 828.41 -401.15 823.27 -401.13 818.12 C-398.23 781.68 -398.23 781.68 -406.67 747.98 C-417.91 736.73 -438.57 730.64 -453.9 730.43 C-469.38 730.62 -486.2 735.5 -497.61 746.58 Z M89.6 747.68 C87.47 751.39 87.08 755.28 86.54 759.49 C86.38 760.65 86.22 761.82 86.06 763.01 C84.68 775.66 84.44 788.32 84.43 801.02 C84.43 802.65 84.42 804.27 84.42 805.89 C84.41 809.28 84.41 812.66 84.41 816.04 C84.41 819.45 84.41 822.86 84.39 826.28 C81.42 862.1 81.42 862.1 90.01 894.36 C97.59 900.67 112.43 898.31 121.6 897.68 C126.8 896.98 131.67 895.49 136.6 893.68 C137.65 893.31 138.7 892.93 139.79 892.55 C164.73 882.94 181.83 861.87 192.91 838.22 C197.56 827.72 200.12 816.15 200.6 804.68 C200.64 803.98 200.68 803.29 200.72 802.57 C201.35 782.23 194.78 762.74 180.88 747.93 C169.11 736.31 154.26 730.74 137.85 730.24 C120.97 730.41 102.37 736.27 89.6 747.68 Z M-373.47 950.8 C-374.59 952.71 -374.59 952.71 -374.4 955.2 C-372.64 959.58 -368.61 960.52 -364.52 962.39 C-356.05 965.9 -348.57 965.91 -339.4 965.68 C-340.54 957.36 -342.71 951.1 -348.96 945.3 C-358.66 938.84 -366.15 942.61 -373.47 950.8 Z M-307.65 947.87 C-311.29 953.71 -313.27 958.86 -314.4 965.68 C-301.53 965.68 -288.66 965.68 -275.4 965.68 C-278.71 952.86 -278.71 952.86 -287.17 943.53 C-294.98 939.83 -301.65 942.03 -307.65 947.87 Z M-244.59 948.87 C-248.68 953.85 -250.4 959.28 -250.4 965.68 C-238.63 966.27 -225.72 965.97 -216.4 957.68 C-215.07 955.86 -215.07 955.86 -215.4 953.68 C-218.33 948.18 -222.4 943.68 -228.4 941.68 C-235.83 940.98 -239.64 943.63 -244.59 948.87 Z M-97.28 947.55 C-100.58 951.41 -100.58 951.41 -101.34 956.27 C-99.79 960.24 -96.79 960.94 -93.06 962.61 C-84.15 966.2 -75.86 965.89 -66.4 965.68 C-67.36 957.47 -69.67 950.46 -76.28 945.12 C-84.01 940.03 -90.86 941.14 -97.28 947.55 Z M-36.12 949.79 C-39.67 955.02 -40.5 959.39 -41.4 965.68 C-28.53 965.68 -15.66 965.68 -2.4 965.68 C-6.55 951.65 -6.55 951.65 -16.53 942.68 C-24.73 939.83 -31.03 943.34 -36.12 949.79 Z M28.91 948.37 C24.51 953.66 22.39 958.7 22.6 965.68 C34.25 966.24 44.42 964.52 54.6 958.68 C56.96 956.77 56.96 956.77 56.72 953.49 C55.15 948.15 52.33 945.52 47.6 942.68 C39.73 940.08 34.44 942.51 28.91 948.37 Z " fill="#000000" transform="translate(776.40234375,164.3203125)"/>
<path d="M0 0 C5.6 3.31 9.67 8.01 12.12 14 C13.44 22.16 12.94 28.39 8.47 35.42 C4.77 40.23 0.56 42.96 -5.31 44.5 C-13.64 45.53 -19.54 44.09 -26.5 39.31 C-31.77 34.04 -33.95 28.45 -34.41 21.02 C-34.16 14.36 -31.66 8.82 -27.09 4.01 C-19.66 -2.29 -9.01 -3.91 0 0 Z " fill="#000000" transform="translate(437.3125,522.5)"/>
<path d="M0 0 C5.04 5.76 5.28 11.4 5.22 18.77 C4.8 24.9 2.43 29.69 -2 34 C-8.72 38.55 -14.95 40.25 -23 39 C-29.76 37.19 -34.16 33.8 -38 28 C-41.17 22.41 -41.99 17.3 -41 11 C-38.37 3.05 -33.88 -2.5 -26.44 -6.31 C-16.08 -9.23 -8.19 -6.94 0 0 Z " fill="#000000" transform="translate(827,528)"/>
</g>
</svg>
