<?xml version='1.0' encoding='UTF-8'?>
<svg xmlns="http://www.w3.org/2000/svg" width="297" height="210" viewBox="0 0 297 210">
  <rect x="0" y="0" width="297" height="210" fill="white"/>
  <g transform="translate(74.5,31.0) scale(0.115625)"><path d="M0 0 C9.44 5.17 13.31 16.66 16.66 26.25 C17.7 29.16 18.81 31.81 20.19 34.56 C21.86 38.22 22.66 41.8 23.42 45.74 C23.55 46.4 23.68 47.05 23.81 47.72 C25.41 56.04 26.94 64.37 28.45 72.7 C28.83 74.78 29.21 76.86 29.6 78.94 C29.82 80.16 30.04 81.37 30.27 82.62 C30.92 85.97 30.92 85.97 32.03 88.97 C33.15 92.48 33.54 95.9 33.88 99.55 C34.98 109.88 36.95 120 38.94 130.19 C39.29 132.01 39.64 133.84 39.99 135.67 C40.97 140.78 41.98 145.89 43 151 C43.22 152.09 43.22 152.09 43.44 153.21 C43.83 155.16 44.23 157.12 44.64 159.07 C44.97 160.67 44.97 160.67 45.3 162.31 C46.48 166.86 48.16 169.69 52.05 172.46 C55.2 174.11 58.25 175.11 61.64 176.14 C114.56 192.26 153.06 229.99 178.77 277.9 C180.2 280.6 181.6 283.29 183 286 C183.38 286.74 183.76 287.47 184.16 288.23 C207.42 333.67 217.16 388.19 218 439 C218.02 439.99 218.04 440.98 218.06 442.01 C218.71 477.83 215.59 512.95 208 548 C209.18 547.94 209.18 547.94 210.38 547.88 C214 547.7 217.63 547.54 221.25 547.38 C223.1 547.28 223.1 547.28 224.99 547.18 C238.03 546.63 249.33 547.62 259.81 555.81 C264.05 559.73 265.88 563.14 266.12 568.88 C265.18 593.44 247.01 610.02 230.81 626.31 C230.06 627.07 229.32 627.82 228.55 628.59 C223.86 633.27 219.03 637.7 214 642 C212.92 642.94 211.84 643.88 210.75 644.82 C193.23 659.92 175.29 674.36 156.5 687.88 C154.29 689.47 152.08 691.06 149.88 692.65 C148.33 693.77 146.77 694.88 145.22 695.98 C136.03 702.78 129.11 711.75 122.19 720.72 C118.27 725.76 114.07 730.44 109.7 735.09 C107.77 737.17 105.92 739.27 104.07 741.44 C98.85 747.44 93.15 753 87.52 758.61 C85.57 760.56 83.62 762.51 81.67 764.47 C75.62 770.52 69.57 776.5 63 782 C62.04 782.85 61.07 783.69 60.08 784.56 C-6.06 841.56 -88.39 879.17 -249 912 C-250.19 912.13 -250.19 912.13 -251.41 912.25 C-294.63 916.78 -338.62 916.76 -381.85 912.22 C-383.98 912 -386.12 911.79 -388.26 911.58 C-468.78 903.55 -548.48 876.65 -621 830 C-621.65 829.58 -622.3 829.16 -622.97 828.73 C-631.63 823.14 -639.96 817.19 -648.13 810.91 C-652.08 807.93 -655.89 805.49 -660.39 803.39 C-664.47 801.45 -665.85 800.01 -668 796 C-670.59 793.71 -673.39 791.72 -676.19 789.69 C-691.26 778.48 -691.26 778.48 -694 773 C-702.34 774.28 -709.89 777.01 -717.75 780 C-720.42 781 -723.1 781.99 -725.78 782.98 C-726.46 783.23 -727.14 783.48 -727.84 783.74 C-747.88 791.13 -768.06 797.65 -789 802 C-789.9 802.19 -790.8 802.39 -791.73 802.58 C-808.51 805.95 -826.96 806.2 -842 797.25 C-847.09 793.57 -850.03 788.9 -852 783 C-852.69 772 -852.25 762.33 -848 752 C-847.65 751.13 -847.3 750.26 -846.94 749.37 C-843.77 742.34 -839.02 736.79 -834 731 C-833.42 730.29 -832.85 729.58 -832.25 728.84 C-827.49 723.08 -821.91 718.54 -816 714 C-815.28 713.44 -814.55 712.88 -813.81 712.3 C-787.51 692.92 -756.49 682.14 -725.28 673.69 C-723.06 673.21 -723.06 673.21 -722 672 C-721.88 669.96 -721.82 667.91 -721.79 665.86 C-721.76 664.57 -721.74 663.28 -721.71 661.96 C-721.7 661.27 -721.68 660.58 -721.67 659.88 C-720.65 611.57 -704.68 572.2 -670 538 C-666.81 535.07 -663.55 532.48 -660 530 C-659.03 529.3 -658.06 528.61 -657.06 527.89 C-647.36 521.37 -636.45 516.88 -624.56 518.44 C-614.62 520.78 -607.97 525.76 -602 534 C-587.94 557.07 -597.7 591.05 -603.38 615.31 C-603.56 616.12 -603.75 616.94 -603.95 617.77 C-606.43 628.39 -609.35 638.71 -613 649 C-611.71 648.84 -610.42 648.69 -609.09 648.52 C-605.08 648.08 -601.1 647.85 -597.06 647.71 C-558.28 646.36 -525.37 633.26 -496 608 C-495.08 607.23 -494.15 606.46 -493.2 605.67 C-474.46 589.58 -461.26 567.71 -450 546 C-449.17 544.41 -449.17 544.41 -448.33 542.78 C-431.16 509.57 -417.32 475.07 -403.92 440.2 C-391.83 408.76 -379.66 377.35 -365 347 C-364.62 346.22 -364.25 345.44 -363.86 344.64 C-361.94 340.7 -359.98 336.77 -357.97 332.87 C-357.3 331.58 -356.64 330.29 -355.98 328.99 C-342.98 303.34 -326.64 277.48 -307.12 256.3 C-305.2 254.22 -303.34 252.09 -301.5 249.94 C-269.72 213.53 -223.08 188.6 -178 173 C-177.09 172.68 -176.18 172.37 -175.25 172.04 C-147.37 162.54 -116.81 156.34 -87.36 155.75 C-86.51 155.73 -85.66 155.71 -84.78 155.69 C-80.52 155.61 -76.26 155.56 -71.99 155.55 C-70.41 155.54 -68.83 155.52 -67.25 155.5 C-66.18 155.52 -66.18 155.52 -65.09 155.53 C-59.68 155.45 -55.55 153.94 -51 151 C-42.94 142.26 -41.74 129 -40.64 117.68 C-40.41 115.51 -40.19 113.34 -39.96 111.18 C-39.84 110.06 -39.73 108.94 -39.61 107.78 C-37.72 89.52 -35.52 71.35 -32.38 53.25 C-32.24 52.43 -32.1 51.62 -31.95 50.78 C-30.5 42.4 -28.87 34.07 -26.96 25.78 C-26.81 25.09 -26.66 24.41 -26.5 23.7 C-24.38 14.77 -20.97 6.72 -13.61 0.99 C-9.15 -1.74 -4.89 -1.08 0 0 Z M-7 15 C-10.53 20.52 -12.17 25.63 -13.56 32 C-13.77 32.92 -13.98 33.84 -14.19 34.78 C-14.81 37.52 -15.41 40.26 -16 43 C-16.17 43.78 -16.35 44.57 -16.53 45.37 C-18.71 53.66 -18.71 53.66 -18 62 C-13.61 58.25 -9.24 54.48 -4.9 50.67 C-3.74 49.65 -2.57 48.63 -1.39 47.61 C4.11 43.08 4.11 43.08 6.44 36.69 C3.35 28.77 -0.02 21.15 -6 15 C-6.33 15 -6.66 15 -7 15 Z M-8.81 72.44 C-25.47 89.26 -28.83 112.39 -29.03 135.37 C-29.02 136.24 -29.01 137.11 -29 138 C-14.13 129.11 9.29 114.57 14.38 97 C16.69 83.77 12.81 69.87 10 57 C4.61 57 -4.87 68.56 -8.81 72.44 Z M19 115 C17.55 116.47 16.16 118 14.81 119.56 C14 120.48 13.18 121.4 12.34 122.35 C11.57 123.23 10.8 124.1 10 125 C0.9 135.09 -10.4 142.91 -21.94 149.93 C-25.59 152.4 -29 155 -31 159 C-31.37 161.69 -31.68 164.36 -31.94 167.06 C-32.02 167.93 -32.11 168.81 -32.19 169.7 C-33.71 186.75 -34.24 203.9 -35 221 C-29.93 219.46 -26.55 217.31 -22.62 213.81 C-22.1 213.36 -21.57 212.9 -21.03 212.43 C-19.93 211.47 -18.84 210.51 -17.75 209.55 C-16.53 208.47 -15.31 207.4 -14.08 206.34 C-0.85 194.91 10.8 182.44 20.98 168.23 C23.22 165.76 24.92 165.12 28 164 C27.4 153.46 25.67 143.15 23.94 132.75 C23.65 131.02 23.37 129.29 23.08 127.57 C22.39 123.38 21.7 119.19 21 115 C20.34 115 19.68 115 19 115 Z M-208 201 C-208.79 201.37 -209.58 201.74 -210.4 202.13 C-234.23 213.39 -256.79 227.86 -276 246 C-277.23 247.05 -278.45 248.09 -279.69 249.12 C-291.02 259.06 -301.06 269.89 -310 282 C-310.51 282.67 -311.01 283.35 -311.54 284.04 C-320.21 295.55 -327.88 307.48 -335 320 C-335.52 320.9 -336.03 321.81 -336.56 322.74 C-358.98 362.39 -375.45 405.11 -392 447.45 C-405.58 482.18 -419.38 516.59 -436 550 C-436.52 551.06 -437.04 552.11 -437.58 553.2 C-447.86 573.97 -460.39 595.38 -477.41 611.44 C-479.14 613.14 -480.64 614.94 -482.19 616.81 C-490.33 626.07 -499.96 632.43 -510.44 638.75 C-511.47 639.38 -512.51 640 -513.58 640.65 C-523.98 646.8 -534.56 652.02 -546.25 655.19 C-547.6 655.56 -547.6 655.56 -548.99 655.94 C-569.59 661.47 -590.99 663.66 -612.31 662.75 C-613.22 662.71 -614.13 662.67 -615.06 662.63 C-620.47 662.32 -625 662 -629 658 C-629.43 650.18 -626.56 642.43 -624.31 635.06 C-620.21 621.16 -616.89 607.2 -614 593 C-613.82 592.15 -613.64 591.29 -613.46 590.42 C-611.63 581.6 -610.73 573.01 -610.62 564 C-610.61 563.15 -610.6 562.3 -610.58 561.43 C-610.65 552.64 -612.57 543.41 -619 537 C-624.56 533.07 -629.39 532.88 -636 534 C-647.32 537.66 -655.8 544.67 -664 553 C-664.76 553.71 -665.53 554.41 -666.32 555.14 C-688.39 575.83 -700.46 603.79 -706 633 C-706.18 633.89 -706.37 634.77 -706.56 635.68 C-707.15 640.11 -707.06 644.43 -706.99 648.89 C-706.97 650.81 -706.96 652.74 -706.94 654.67 C-706.91 657.69 -706.87 660.71 -706.83 663.73 C-706.79 666.66 -706.76 669.58 -706.74 672.51 C-706.71 673.87 -706.71 673.87 -706.69 675.26 C-706.68 676.1 -706.68 676.94 -706.68 677.81 C-706.66 678.92 -706.66 678.92 -706.65 680.05 C-707.11 682.58 -707.99 683.43 -710 685 C-712.94 686.04 -712.94 686.04 -716.55 686.98 C-717.89 687.34 -719.23 687.7 -720.57 688.06 C-721.28 688.24 -721.98 688.42 -722.7 688.61 C-761.81 698.93 -813.02 717.29 -835 754 C-835.42 754.69 -835.84 755.38 -836.27 756.09 C-839.48 761.84 -840.9 767.35 -839.3 773.84 C-837.07 780.4 -835.02 785.4 -828.69 788.75 C-822.19 790.95 -816.07 791.15 -809.31 790.81 C-808.61 790.79 -807.9 790.78 -807.17 790.76 C-790.83 789.97 -774.91 785.08 -759.5 779.94 C-758.64 779.66 -757.79 779.37 -756.9 779.08 C-739.69 773.42 -722.89 766.97 -706.17 759.98 C-705.47 759.7 -704.77 759.41 -704.05 759.11 C-702.32 758.39 -700.6 757.66 -698.88 756.93 C-695.58 755.86 -693.46 755.59 -690 756 C-687.89 757.62 -686.29 759.07 -684.52 761 C-683.76 761.78 -683.76 761.78 -683 762.57 C-681.4 764.22 -679.82 765.89 -678.25 767.56 C-647.05 800.43 -599.37 797.71 -556.5 798.86 C-485.43 800.58 -414.74 794.88 -345 780.94 C-343.3 780.61 -343.3 780.61 -341.57 780.27 C-330.52 777.97 -319.43 774.82 -311 767 C-310.45 766.49 -309.89 765.98 -309.32 765.45 C-301.89 757.72 -300.04 746.02 -297.56 735.94 C-297.26 734.73 -296.96 733.53 -296.65 732.29 C-294.31 722.71 -292.36 713.07 -290.69 703.35 C-289.74 698.06 -288.77 693.63 -286 689 C-280.55 688.64 -280.55 688.64 -278.19 690.19 C-275.45 694.36 -276.02 698.4 -276.9 703.11 C-277.13 704.32 -277.35 705.54 -277.59 706.78 C-277.85 708.11 -278.11 709.43 -278.38 710.75 C-278.51 711.43 -278.64 712.1 -278.78 712.8 C-286.84 753.62 -297.93 802.38 -325.58 834.39 C-328.34 837.47 -328.34 837.47 -328.81 841.4 C-328.54 841.93 -328.27 842.46 -328 843 C-302.58 848.56 -264.7 828.07 -244 815 C-226.18 803.36 -208.33 789.92 -193.55 774.55 C-191.88 772.88 -190.12 771.39 -188.31 769.88 C-182.92 765.23 -178.25 759.91 -173.48 754.64 C-172.11 753.12 -170.72 751.61 -169.32 750.1 C-164.5 744.87 -159.86 739.54 -155.41 733.99 C-153.68 731.84 -151.93 729.72 -150.16 727.61 C-138 712.99 -128.29 697.91 -123.81 679.25 C-123 676 -123 676 -121 674 C-117.38 673.88 -117.38 673.88 -114 674 C-110.35 681.52 -112.13 687.67 -114.58 695.3 C-116.5 700.31 -118.86 705.05 -121.36 709.79 C-123.32 713.21 -123.32 713.21 -124 717 C-116.77 714.7 -109.82 711.92 -102.81 709 C1.83 665.93 1.83 665.93 52.9 685.66 C70.9 693.42 83.59 705.38 92.34 722.74 C93.94 726.03 93.94 726.03 96 729 C104.9 718.17 113.6 707.22 122 696 C122.54 695.29 123.07 694.57 123.62 693.84 C170.32 631.39 201.93 551.72 202.2 473.15 C202.21 471.22 202.21 471.22 202.22 469.24 C202.23 466.52 202.24 463.79 202.24 461.07 C202.24 458.34 202.26 455.61 202.28 452.89 C202.88 380.55 185.49 299.99 137 244 C136.28 243.17 135.57 242.34 134.83 241.49 C132.59 238.96 130.31 236.47 128 234 C127.2 233.14 126.41 232.28 125.59 231.39 C113.52 218.79 99.52 208.88 84 201 C83.32 200.65 82.64 200.3 81.94 199.94 C71.29 194.53 60.4 190.52 49 187 C47.71 191.34 48.37 195.19 49 199.6 C49.23 201.37 49.46 203.15 49.69 204.92 C49.81 205.85 49.94 206.78 50.06 207.74 C52.03 222.86 53.53 237.87 53.56 253.12 C53.57 253.82 53.58 254.52 53.59 255.24 C53.66 263.36 53.21 269.95 49 277 C48.53 277.8 48.06 278.6 47.58 279.42 C38.09 292.05 24.21 296.25 9.07 298.72 C3.62 299.45 -1.86 299.44 -7.35 299.39 C-9.43 299.38 -11.51 299.39 -13.6 299.41 C-24.81 299.43 -38.33 299.19 -48 293 C-55.27 280.94 -49.4 255.9 -48.73 242.26 C-48.59 239.53 -48.47 236.79 -48.34 234.06 C-47.63 219.06 -46.8 204.08 -45.63 189.11 C-45.16 183.05 -44.91 177.08 -45 171 C-100.19 166.03 -158.08 177.05 -208 201 Z M29 180 C27.17 182.2 25.43 184.42 23.69 186.69 C11.41 202.21 -2.9 216.45 -19 228 C-21.09 229.5 -23.17 231.01 -25.25 232.52 C-26.59 233.48 -27.94 234.44 -29.29 235.39 C-33.03 237.99 -33.03 237.99 -35 242 C-36.23 250.04 -36.13 258.26 -36.19 266.38 C-36.2 267.42 -36.21 268.47 -36.23 269.55 C-36.23 274.76 -36.12 279.13 -34 284 C-27.56 282.17 -22.29 279.67 -16.75 275.94 C-16.02 275.45 -15.28 274.97 -14.53 274.47 C3.54 262.37 18.99 248.3 32.27 231.03 C34 229 34 229 37 227 C35.02 211.49 33.04 195.98 31 180 C30.34 180 29.68 180 29 180 Z M37 246 C35.14 247.96 33.31 249.93 31.5 251.94 C22.29 261.98 12.83 270.74 2 279 C0.21 280.37 -1.59 281.75 -3.38 283.12 C-4.08 283.66 -4.79 284.2 -5.52 284.76 C-6.01 285.17 -6.5 285.58 -7 286 C-7 286.33 -7 286.66 -7 287 C7.88 287.47 21.39 285.6 33.37 276.12 C37.01 272.61 39.76 269.49 40.27 264.3 C40.23 257.88 39.65 252.2 38 246 C37.67 246 37.34 246 37 246 Z M203 568 C201.49 570.58 201.49 570.58 200.44 573.5 C200.03 574.56 199.61 575.63 199.19 576.72 C197.72 580.77 196.32 584.84 194.97 588.93 C186.47 614.72 175.35 640.93 160.3 663.66 C159.87 664.43 159.44 665.21 159 666 C159.33 666.66 159.66 667.32 160 668 C181.02 652.13 181.02 652.13 201 635 C202.29 633.87 203.58 632.75 204.88 631.62 C216.66 621.32 227.19 610.77 236.81 598.38 C237.64 597.32 237.64 597.32 238.48 596.24 C243.79 589.29 247.72 582.89 248 574 C247.33 569.51 246.73 567.64 243.31 564.62 C232.26 559.2 212.27 559.53 203 568 Z M-24 697 C-24.91 697.24 -25.81 697.47 -26.74 697.72 C-73.63 710.41 -133.7 727.8 -166 766 C-176.12 777.7 -186.95 789.21 -199.14 798.76 C-201.27 800.43 -203.33 802.12 -205.39 803.87 C-223.55 819.23 -243.55 831.76 -265 842 C-265.66 842.32 -266.32 842.64 -267 842.97 C-283.64 850.9 -304.44 856.13 -322.88 856.25 C-324.02 856.28 -324.02 856.28 -325.19 856.31 C-330.79 856.35 -334.9 855.34 -340 853 C-343.45 849.37 -345.55 846.32 -345.47 841.18 C-344.01 834.39 -338.46 828.48 -334.12 823.25 C-327.79 815.52 -315 799.25 -315 789 C-320.38 789.61 -325.62 790.47 -330.91 791.64 C-332.45 791.97 -333.99 792.3 -335.53 792.63 C-336.34 792.8 -337.15 792.97 -337.98 793.15 C-382.31 802.58 -427.75 808.39 -473 811 C-473.66 811.04 -474.32 811.08 -475.01 811.12 C-490 812.03 -504.98 812.28 -520 812.31 C-521.26 812.32 -522.53 812.32 -523.83 812.32 C-549 812.36 -574.05 811.07 -599.16 809.42 C-599.87 809.38 -600.58 809.33 -601.3 809.28 C-604.62 809.06 -607.94 808.84 -611.26 808.61 C-617.19 808.2 -623.06 807.9 -629 808 C-565.82 859.94 -471.88 888.76 -391.75 898.25 C-390.47 898.4 -389.2 898.55 -387.89 898.71 C-383.59 899.18 -379.3 899.61 -375 900 C-374.06 900.09 -373.12 900.18 -372.15 900.27 C-354.81 901.83 -337.55 902.32 -320.16 902.26 C-316.75 902.25 -313.34 902.26 -309.93 902.27 C-291.88 902.32 -273.98 901.59 -256 900 C-255.18 899.93 -254.35 899.86 -253.51 899.79 C-175.55 892.97 -96.8 868.02 -29 829 C-28.16 828.52 -27.32 828.03 -26.46 827.54 C-1.67 813.17 22.14 796.94 44.14 778.56 C45.91 777.08 47.69 775.61 49.48 774.15 C56.51 768.32 63.12 762.1 69.62 755.69 C70.4 754.93 71.17 754.18 71.96 753.41 C79.44 745.95 79.44 745.95 82.25 736.06 C80.3 724.51 72.76 712.24 63.61 705.15 C48.78 694.96 32.27 692.57 14.69 692.62 C13.98 692.63 13.28 692.63 12.56 692.63 C0.02 692.69 -11.85 693.82 -24 697 Z " fill="#000000" transform="translate(960,85)"/>
<path d="M0 0 C2.51 3.37 3.61 6.62 4.54 10.68 C4.79 11.77 5.04 12.85 5.3 13.97 C5.55 15.12 5.8 16.26 6.06 17.44 C6.33 18.61 6.59 19.79 6.86 21 C12.26 45.54 15.19 75 1.4 97.62 C-7.84 110.1 -18.84 115.55 -34 118 C-46.58 119.17 -56.66 116.1 -67 109 C-68.58 107.92 -68.58 107.92 -70.19 106.81 C-89.41 87.59 -95.46 56.62 -96.88 30.62 C-96.92 29.79 -96.97 28.95 -97.02 28.09 C-97.23 22.65 -97.04 17.12 -95 12 C-92.19 10.25 -92.19 10.25 -89 10 C-86.25 10.94 -86.25 10.94 -84 13 C-81.55 19.39 -81.5 25.92 -81.12 32.69 C-79.78 53.24 -76.64 72.55 -65 90 C-64.42 90.91 -63.85 91.82 -63.25 92.75 C-55.59 100.41 -47.63 102.3 -37.21 102.32 C-31.14 102.21 -26.31 101.06 -21 98 C-20.28 97.59 -19.57 97.17 -18.83 96.75 C-11.45 91.87 -7.52 84.76 -5.12 76.38 C-1.31 57.12 -3.94 36.54 -9.19 17.81 C-10.63 12.64 -11.82 8.35 -11 3 C-8.08 -0.74 -4.49 -0.65 0 0 Z " fill="#000000" transform="translate(1071,498)"/>
<path d="M0 0 C2 1.44 2 1.44 3 4 C2.89 10.2 1.34 16.06 -0.5 21.94 C-0.76 22.79 -1.03 23.64 -1.3 24.52 C-8.06 46.17 -16.05 67.17 -25 88 C-25.43 89.02 -25.87 90.03 -26.32 91.08 C-27.49 93.81 -28.68 96.53 -29.88 99.25 C-30.21 100.02 -30.54 100.78 -30.88 101.57 C-33.45 107.28 -36.53 113.53 -41 118 C-47.16 117.66 -47.16 117.66 -50 115.44 C-51.81 111.03 -50.72 106.77 -48.98 102.49 C-47.6 99.59 -46.15 96.73 -44.69 93.88 C-30.84 65.83 -20.07 35.97 -11.64 5.85 C-9.6 -0.08 -5.83 -0.85 0 0 Z " fill="#000000" transform="translate(607,506)"/>
<path d="M0 0 C6.23 0.35 6.23 0.35 8.7 2.44 C10.74 6.45 10.49 10.37 10.44 14.81 C10.43 15.75 10.43 16.68 10.42 17.64 C10.17 28.86 8.48 40.5 0.21 48.79 C-6.26 53.7 -12.84 56.39 -21.06 56.06 C-29.08 54.88 -35.33 49.59 -40.36 43.46 C-45.46 35.8 -49.37 27.29 -48 18 C-46.68 16.29 -46.68 16.29 -45 15 C-38.91 14.35 -38.91 14.35 -36.43 16.13 C-34.48 18.68 -33.63 21.29 -32.56 24.31 C-29.23 33.65 -29.23 33.65 -22 40 C-17.28 40.53 -14.99 40.47 -10.69 38.44 C-6.83 34.94 -5.26 31.46 -4.72 26.36 C-4.55 22.33 -4.51 18.3 -4.47 14.27 C-4.25 4.25 -4.25 4.25 0 0 Z " fill="#000000" transform="translate(942,445)"/>
<path d="M0 0 C3.75 2.82 3.96 6.22 4.65 10.64 C5.91 22.7 6.36 36.05 -0.69 46.5 C-4.7 51.31 -9.93 53.76 -16 55 C-25.16 55.81 -31.54 54.27 -38.69 48.44 C-44.78 42.72 -48.51 35.21 -50 27 C-49.74 18.74 -49.74 18.74 -48 17 C-46.04 16.8 -46.04 16.8 -43.62 16.75 C-42.83 16.72 -42.04 16.7 -41.23 16.67 C-39 17 -39 17 -37.33 18.12 C-35.49 20.72 -34.92 23.3 -34.12 26.38 C-32.57 31.71 -31.5 34.74 -27 38 C-26.4 38.45 -25.8 38.91 -25.19 39.38 C-21.7 40.37 -18.32 40.39 -15 39 C-11.39 35.7 -9.72 33.58 -9.48 28.65 C-9.5 27.08 -9.55 25.51 -9.62 23.94 C-9.64 23.15 -9.65 22.36 -9.67 21.54 C-9.77 17.58 -10.11 13.88 -11 10 C-11.55 3.68 -11.55 3.68 -9.44 1.06 C-6.1 -0.39 -3.6 -0.39 0 0 Z " fill="#000000" transform="translate(1116,403)"/>
<path d="M0 0 C2.68 2.24 2.96 3.6 3.31 7.06 C3 10 3 10 1 13 C-2.57 13.93 -4.95 14.4 -8.44 13.06 C-10.53 10.3 -10.51 8.28 -10.31 4.88 C-10 3 -10 3 -8.94 1 C-5.83 -0.6 -3.42 -0.43 0 0 Z " fill="#000000" transform="translate(545,647)"/>
</g>
</svg>
