<?xml version='1.0' encoding='UTF-8'?>
<svg xmlns="http://www.w3.org/2000/svg" width="297" height="210" viewBox="0 0 297 210">
  <rect x="0" y="0" width="297" height="210" fill="white"/>
  <g transform="translate(91.6703125,31.0) scale(0.115625)"><path d="M0 0 C1.67 -0 1.67 -0 3.37 -0 C84.4 0.08 163.58 23.89 230.86 69.15 C231.76 69.76 231.76 69.76 232.69 70.38 C234.33 71.49 235.97 72.6 237.62 73.71 C239.92 75.42 239.92 75.42 242.12 75.25 C243.63 73.77 243.63 73.77 245.19 71.81 C262.3 51.9 284.8 39.22 311.12 36.25 C341.94 34.36 368.82 42.66 392.12 63.25 C392.74 63.78 393.35 64.31 393.98 64.85 C412.4 81.92 423.3 107.88 424.35 132.7 C425.08 160.27 416.77 185.63 398.12 206.25 C397.3 207.17 396.48 208.08 395.64 209.02 C387.25 217.89 377.26 225.18 366.12 230.25 C365.47 230.25 364.8 230.25 364.12 230.25 C364.39 230.91 364.65 231.57 364.92 232.25 C374.69 257.21 382.22 282.67 386.12 309.25 C386.27 310.19 386.42 311.13 386.57 312.1 C399.99 399.58 374.18 489.31 322.67 560.26 C306.2 582.61 286.67 605.3 264.64 622.27 C262.35 624.07 260.16 625.95 257.97 627.87 C257.25 628.51 256.53 629.14 255.79 629.79 C254.96 630.51 254.96 630.51 254.12 631.25 C264.12 676.42 274.2 721.56 284.38 766.69 C284.9 769.03 285.43 771.37 285.96 773.71 C288.08 783.12 290.2 792.54 292.32 801.95 C297.38 824.36 302.43 846.77 307.47 869.19 C308.69 874.65 309.92 880.11 311.15 885.57 C312.29 890.62 313.43 895.67 314.56 900.72 C314.98 902.57 315.39 904.42 315.81 906.27 C316.38 908.77 316.94 911.28 317.5 913.79 C317.67 914.52 317.84 915.26 318.01 916.02 C319.12 921.02 319.12 921.02 319.12 923.25 C344.06 921.13 361.18 908.8 377.5 890.45 C383.15 883.72 388.09 876.43 393.12 869.25 C394.2 867.73 395.28 866.2 396.36 864.68 C397.37 863.24 398.37 861.81 399.38 860.38 C399.84 859.72 400.31 859.06 400.79 858.38 C402.86 855.37 404.56 852.88 405.12 849.25 C404.66 847.29 404.19 845.34 403.65 843.4 C400.01 828.6 402.12 811.67 409.12 798.25 C416.15 788.43 424.76 783.54 435.75 779.19 C444.93 775.54 451.85 772.3 456.75 763.25 C458.59 758.78 458.96 754.01 459.5 749.24 C460.15 746.13 461.03 744.59 463.12 742.25 C466.44 742.38 466.44 742.38 470.12 743.25 C471.56 745.75 471.56 745.75 473.12 749.25 C474.41 750.7 475.72 752.11 477.06 753.5 C481.22 758.06 483.41 762.35 485.12 768.25 C485.35 769.02 485.57 769.79 485.8 770.59 C491.02 793.19 486.11 818.84 474.07 838.37 C465 851.81 452.51 864.08 436.21 867.94 C435.18 868.09 435.18 868.09 434.12 868.25 C434.01 868.96 433.9 869.67 433.78 870.4 C433.07 873.49 431.97 875.96 430.57 878.79 C429.78 880.39 429.78 880.39 428.97 882.02 C428.4 883.15 427.84 884.28 427.25 885.44 C426.67 886.6 426.08 887.76 425.48 888.96 C416.68 906.21 406.54 921.42 394.12 936.25 C395.28 936.62 396.43 936.99 397.62 937.38 C399.46 937.99 401.29 938.62 403.12 939.25 C404.34 939.66 405.55 940.08 406.79 940.5 C437.29 951.23 460.63 972.78 475.02 1001.62 C481.06 1014.42 484.99 1028.28 487.12 1042.25 C487.31 1043.39 487.49 1044.54 487.68 1045.71 C489.87 1064.02 489.15 1084.28 485.12 1102.25 C484.94 1103.1 484.75 1103.95 484.56 1104.83 C473.57 1152.77 443.61 1197.61 401.79 1224.04 C379.9 1237.43 355.05 1247.33 329.12 1248.25 C328.12 1248.3 327.12 1248.35 326.09 1248.41 C308.4 1248.9 291.71 1245.11 275.12 1239.25 C274.8 1240 274.47 1240.75 274.13 1241.52 C270.5 1249.34 266.24 1255.2 260.12 1261.25 C259.13 1262.3 259.13 1262.3 258.11 1263.37 C253.67 1267.72 248.86 1270.73 243.38 1273.56 C242.76 1273.89 242.14 1274.21 241.5 1274.55 C231.09 1279.64 220.02 1280.7 208.59 1280.65 C207.3 1280.66 206.02 1280.67 204.69 1280.67 C201.21 1280.69 197.73 1280.69 194.24 1280.69 C191.32 1280.68 188.39 1280.69 185.46 1280.69 C178.55 1280.71 171.63 1280.71 164.72 1280.7 C157.63 1280.68 150.53 1280.7 143.44 1280.73 C137.31 1280.75 131.19 1280.75 125.06 1280.75 C121.42 1280.75 117.77 1280.75 114.13 1280.76 C90.56 1280.87 70.67 1279.5 52.12 1263.25 C51.51 1262.72 50.9 1262.19 50.26 1261.64 C34.61 1247.1 32.15 1228.71 31.12 1208.25 C5.38 1208.25 -20.36 1208.25 -46.88 1208.25 C-46.88 1211.22 -46.88 1214.19 -46.88 1217.25 C-48.17 1235.61 -54.66 1251.14 -68.09 1263.9 C-79.48 1273.52 -94.36 1280.34 -109.48 1280.39 C-111.15 1280.4 -111.15 1280.4 -112.86 1280.41 C-114.07 1280.41 -115.29 1280.41 -116.54 1280.41 C-117.82 1280.42 -119.11 1280.42 -120.44 1280.43 C-123.96 1280.44 -127.49 1280.45 -131.01 1280.45 C-133.22 1280.45 -135.43 1280.46 -137.64 1280.46 C-144.56 1280.48 -151.48 1280.49 -158.4 1280.49 C-166.37 1280.49 -174.33 1280.51 -182.29 1280.54 C-188.46 1280.56 -194.63 1280.57 -200.8 1280.57 C-204.48 1280.57 -208.16 1280.58 -211.84 1280.6 C-215.95 1280.62 -220.06 1280.61 -224.18 1280.61 C-225.38 1280.62 -226.57 1280.62 -227.81 1280.63 C-238.78 1280.58 -249.28 1278.74 -259.06 1273.62 C-260.07 1273.11 -260.07 1273.11 -261.1 1272.58 C-267.2 1269.32 -272.11 1265.26 -276.88 1260.25 C-277.6 1259.51 -278.33 1258.76 -279.08 1258 C-283.61 1253.17 -286.96 1248.18 -289.88 1242.25 C-290.84 1242.52 -291.81 1242.78 -292.81 1243.05 C-331.47 1253.36 -368.7 1246.67 -403.3 1227.24 C-416.06 1219.8 -427.28 1210.48 -437.88 1200.25 C-438.65 1199.53 -439.43 1198.8 -440.23 1198.05 C-451.15 1187.59 -459.87 1175.03 -467.88 1162.25 C-468.44 1161.35 -468.44 1161.35 -469.02 1160.43 C-486.43 1132.47 -495.37 1099.32 -495.19 1066.5 C-495.19 1065.8 -495.18 1065.11 -495.18 1064.39 C-495 1027.69 -483.03 993.48 -456.88 967.25 C-456.05 966.4 -455.22 965.55 -454.37 964.67 C-430.77 941.73 -399.77 934.58 -367.84 934.97 C-353.8 935.24 -340.87 938.53 -327.75 943.3 C-324.9 944.41 -324.9 944.41 -321.88 944.25 C-321.64 943.2 -321.41 942.14 -321.16 941.06 C-310.49 893.23 -299.82 845.4 -289.09 797.59 C-287.61 790.99 -286.14 784.39 -284.66 777.78 C-279.51 754.72 -274.3 731.68 -268.93 708.67 C-267.26 701.52 -265.61 694.36 -263.96 687.21 C-262.38 680.39 -260.78 673.58 -259.16 666.77 C-258.18 662.59 -257.21 658.41 -256.25 654.23 C-255.81 652.29 -255.35 650.35 -254.88 648.41 C-254.24 645.77 -253.63 643.13 -253.04 640.48 C-252.74 639.33 -252.74 639.33 -252.45 638.16 C-251.87 635.76 -251.87 635.76 -251.88 632.25 C-254.01 629.32 -254.01 629.32 -256.88 627.25 C-257.81 626.38 -258.74 625.5 -259.71 624.6 C-260.7 623.69 -261.69 622.78 -262.69 621.88 C-263.17 621.43 -263.65 620.99 -264.15 620.53 C-266.94 617.98 -269.77 615.48 -272.64 613.01 C-277.57 608.71 -282.19 604.12 -286.81 599.5 C-287.7 598.61 -288.59 597.72 -289.5 596.81 C-294.6 591.66 -299.45 586.52 -303.89 580.79 C-305.78 578.37 -307.77 576.05 -309.79 573.74 C-332.95 547.06 -350.77 514.9 -363.88 482.25 C-364.23 481.37 -364.58 480.49 -364.95 479.59 C-373.2 458.84 -378.9 437.17 -382.75 415.19 C-382.94 414.1 -383.13 413.01 -383.33 411.88 C-386.19 394.38 -387.26 376.9 -387.19 359.19 C-387.19 358.26 -387.18 357.33 -387.18 356.37 C-387.04 313.44 -378.32 272.45 -362.68 232.54 C-361.76 230.34 -361.76 230.34 -361.88 228.25 C-363.93 226.86 -366 225.58 -368.12 224.31 C-390.87 210.22 -406.77 187.71 -413.25 161.81 C-414.54 156.32 -415.64 150.89 -415.88 145.25 C-415.95 143.77 -415.95 143.77 -416.03 142.27 C-416.76 115.73 -408.22 91.33 -390.88 71.25 C-389.97 70.13 -389.97 70.13 -389.05 68.99 C-375.78 53.04 -356.72 43.27 -336.88 38.25 C-335.92 38.01 -334.96 37.76 -333.98 37.51 C-308.92 32.27 -281.4 37.57 -259.88 51.25 C-252.35 56.3 -245.94 61.82 -239.88 68.53 C-238.34 70.23 -238.34 70.23 -235.88 72.25 C-232.93 71.9 -230.86 70.78 -228.43 69.13 C-227.78 68.7 -227.12 68.26 -226.45 67.81 C-225.39 67.1 -225.39 67.1 -224.31 66.38 C-215.05 60.27 -205.56 54.66 -195.88 49.25 C-195.14 48.83 -194.4 48.42 -193.64 47.99 C-145.77 21.23 -91.21 6.56 -36.88 1.25 C-35.5 1.11 -35.5 1.11 -34.1 0.96 C-22.76 -0.08 -11.38 0.01 0 0 Z M-53.88 14.25 C-55.06 14.42 -56.24 14.58 -57.46 14.75 C-119.34 23.78 -180.11 46.76 -230.69 83.87 C-233.52 85.66 -235.66 86.36 -239 86.06 C-240.88 85.25 -240.88 85.25 -241.75 83.49 C-249.47 68.15 -268 57.82 -283.47 51.87 C-286.59 50.87 -289.69 50.01 -292.88 49.25 C-293.71 49.03 -294.55 48.8 -295.42 48.57 C-319.48 43.09 -344.23 49.6 -364.88 62.25 C-385.22 76.52 -398.47 97.24 -403.55 121.49 C-407.55 144.32 -403.32 169.08 -389.88 188.25 C-387.62 191.32 -385.29 194.31 -382.88 197.25 C-382.11 198.22 -381.35 199.18 -380.56 200.18 C-377.84 203.43 -374.78 206.03 -371.44 208.62 C-370.54 209.33 -370.54 209.33 -369.62 210.06 C-364.25 214.18 -358.58 217.36 -352.54 220.4 C-349.88 222.25 -349.88 222.25 -349.08 224.49 C-348.82 227.95 -349.63 230.03 -350.94 233.24 C-351.4 234.41 -351.87 235.58 -352.34 236.78 C-352.59 237.4 -352.84 238.01 -353.1 238.65 C-354.42 241.91 -355.68 245.19 -356.95 248.47 C-357.2 249.13 -357.45 249.79 -357.72 250.47 C-366.95 274.72 -372.07 300.51 -374.88 326.25 C-374.97 327.11 -375.07 327.98 -375.17 328.87 C-376.1 338.48 -376.12 348.1 -376.12 357.75 C-376.13 358.65 -376.13 359.56 -376.13 360.49 C-376.11 376.25 -375.3 391.65 -372.88 407.25 C-372.71 408.32 -372.54 409.39 -372.37 410.5 C-365.49 453.03 -350.04 494.86 -326.88 531.25 C-326.28 532.19 -326.28 532.19 -325.67 533.15 C-310.84 556.37 -293.12 577.18 -273.71 596.66 C-272.07 598.31 -270.44 599.97 -268.81 601.63 C-261.31 609.2 -253.37 615.83 -244.88 622.25 C-243.35 623.44 -241.83 624.62 -240.32 625.82 C-231.42 632.71 -222.38 639.23 -212.88 645.25 C-212.02 645.8 -212.02 645.8 -211.14 646.36 C-199.46 653.73 -187.19 660.02 -174.88 666.25 C-173.66 666.87 -173.66 666.87 -172.42 667.5 C-89.09 709.7 15.36 717.92 127.08 686.6 C168.61 672.89 207.65 653.32 242.12 626.25 C243.02 625.56 243.91 624.86 244.84 624.15 C262.49 610.26 279.29 595.13 294.12 578.25 C294.58 577.73 295.04 577.22 295.51 576.68 C307.18 563.39 317.63 549.16 327.12 534.25 C327.49 533.68 327.86 533.1 328.24 532.51 C352.28 494.45 368 451.92 374.94 407.5 C375.04 406.83 375.15 406.15 375.26 405.46 C377.62 390.14 378.37 375.16 378.38 359.69 C378.38 358.73 378.38 357.78 378.38 356.8 C378.36 341.09 377.64 325.78 375.12 310.25 C374.96 309.2 374.79 308.14 374.62 307.06 C370.78 283.49 364.43 260.62 355.19 238.6 C354.77 237.59 354.36 236.58 353.93 235.54 C353.56 234.66 353.19 233.78 352.8 232.87 C351.96 229.61 352.19 227.47 353.12 224.25 C355.64 222.64 357.79 221.52 360.5 220.38 C367.71 217.05 373.95 213.29 380.12 208.25 C380.98 207.56 381.83 206.88 382.7 206.17 C399.69 191.71 411.05 169.47 413.12 147.25 C414.73 121.35 407.89 97.66 390.69 77.94 C389.19 76.36 387.67 74.79 386.12 73.25 C385.01 72.11 385.01 72.11 383.86 70.95 C372.14 59.72 358.62 53.51 343.12 49.25 C342.17 48.98 341.22 48.72 340.24 48.44 C317.14 43.19 292.95 49.29 273.07 61.31 C263.03 67.93 253.93 76.27 247.12 86.25 C247.12 86.91 247.12 87.57 247.12 88.25 C243.71 89.12 241.79 89.55 238.52 88.1 C237.24 87.21 237.24 87.21 235.94 86.31 C234.97 85.66 234 85 233.01 84.32 C230.41 82.46 227.86 80.55 225.31 78.62 C178.27 44.06 118.61 23.67 61.38 15 C59.89 14.77 59.89 14.77 58.37 14.54 C39.51 11.86 20.66 10.87 1.62 10.94 C0.59 10.94 -0.45 10.94 -1.52 10.94 C-19.14 10.99 -36.41 11.78 -53.88 14.25 Z M238.62 641.56 C212.54 660.64 183.74 675.49 154.12 688.25 C157.26 692.65 160.54 696.75 164.25 700.69 C175.25 712.8 183.64 726.77 191.12 741.25 C191.48 741.91 191.83 742.58 192.19 743.26 C208.71 774.88 216.88 812.6 215.12 848.25 C215.08 849.1 215.04 849.95 215 850.83 C211.71 911.78 184.81 965.21 140.12 1006.25 C98.59 1042.47 42.52 1060.32 -12.23 1056.94 C-71.31 1052.77 -123.48 1025.65 -162.57 981.33 C-165.55 977.78 -168.24 974.07 -170.88 970.25 C-171.27 969.69 -171.67 969.12 -172.08 968.54 C-195.36 935.48 -211.76 895.12 -212.11 854.29 C-212.12 853.34 -212.13 852.4 -212.14 851.43 C-212.47 811.97 -212.47 811.97 -207.88 793.25 C-207.66 792.36 -207.45 791.46 -207.23 790.55 C-205.7 784.36 -203.89 778.3 -201.88 772.25 C-201.6 771.41 -201.32 770.57 -201.03 769.71 C-193.64 747.91 -182.93 727.47 -168.88 709.25 C-168.15 708.29 -167.42 707.33 -166.66 706.34 C-162.02 700.39 -156.98 694.8 -151.88 689.25 C-153.22 686.55 -154.54 686.37 -157.3 685.22 C-158.23 684.83 -159.16 684.43 -160.12 684.03 C-161.13 683.61 -162.15 683.18 -163.19 682.75 C-187.7 672.28 -210.99 659.68 -232.74 644.21 C-234.11 643.24 -234.11 643.24 -235.5 642.25 C-236.3 641.67 -237.09 641.1 -237.91 640.5 C-239.77 639.07 -239.77 639.07 -241.88 639.25 C-247.47 662.99 -252.86 686.78 -258.22 710.58 C-258.95 713.79 -259.67 717.01 -260.4 720.23 C-270.68 765.86 -280.9 811.51 -291.11 857.15 C-291.58 859.24 -292.05 861.33 -292.51 863.42 C-294.01 870.11 -295.5 876.79 -297 883.47 C-299.56 894.94 -302.13 906.41 -304.75 917.86 C-305.19 919.76 -305.62 921.65 -306.05 923.55 C-306.83 926.94 -307.61 930.33 -308.39 933.72 C-308.73 935.19 -309.07 936.66 -309.4 938.13 C-309.69 939.38 -309.98 940.62 -310.27 941.9 C-310.85 945.1 -310.99 948.01 -310.88 951.25 C-308.59 952.59 -306.29 953.92 -304 955.25 C-303.35 955.63 -302.7 956.01 -302.03 956.41 C-298.67 958.53 -298.67 958.53 -294.88 959.25 C-294.85 958.62 -294.82 958 -294.8 957.35 C-294.68 954.53 -294.56 951.7 -294.44 948.88 C-294.4 947.89 -294.36 946.91 -294.32 945.89 C-294.28 944.95 -294.23 944.01 -294.19 943.04 C-294.15 942.17 -294.12 941.3 -294.08 940.4 C-293.88 938.25 -293.88 938.25 -292.88 936.25 C-290.5 935.44 -290.5 935.44 -287.88 935.25 C-285.74 936.81 -284.97 937.73 -284.5 940.35 C-284.5 941.17 -284.49 941.99 -284.49 942.84 C-284.48 944.25 -284.48 944.25 -284.47 945.7 C-284.47 946.75 -284.48 947.79 -284.48 948.86 C-284.47 950.52 -284.47 950.52 -284.46 952.21 C-284.45 955.93 -284.45 959.66 -284.46 963.38 C-284.45 966.04 -284.44 968.71 -284.43 971.37 C-284.41 977.11 -284.4 982.86 -284.4 988.61 C-284.4 996.93 -284.38 1005.26 -284.36 1013.58 C-284.32 1027.12 -284.29 1040.65 -284.28 1054.18 C-284.26 1067.29 -284.24 1080.39 -284.21 1093.49 C-284.21 1094.3 -284.21 1095.1 -284.21 1095.93 C-284.19 1104.74 -284.17 1113.55 -284.15 1122.35 C-284.15 1123.13 -284.15 1123.91 -284.14 1124.71 C-284.14 1127.81 -284.13 1130.92 -284.12 1134.02 C-284.1 1143.08 -284.08 1152.15 -284.07 1161.21 C-284.07 1166.91 -284.06 1172.61 -284.04 1178.3 C-284.04 1181.58 -284.03 1184.86 -284.03 1188.14 C-284.82 1223.73 -284.82 1223.73 -268.14 1254.21 C-263.97 1258.29 -259.09 1260.92 -253.94 1263.56 C-253.28 1263.9 -252.63 1264.24 -251.95 1264.59 C-242.82 1269.04 -234.01 1269.55 -223.96 1269.54 C-222.69 1269.55 -221.43 1269.55 -220.12 1269.56 C-216.67 1269.58 -213.22 1269.58 -209.77 1269.58 C-207.61 1269.59 -205.44 1269.59 -203.28 1269.6 C-195.71 1269.61 -188.14 1269.62 -180.57 1269.62 C-173.55 1269.62 -166.53 1269.64 -159.51 1269.67 C-153.45 1269.7 -147.4 1269.71 -141.34 1269.71 C-137.73 1269.71 -134.13 1269.71 -130.53 1269.73 C-126.5 1269.76 -122.47 1269.75 -118.44 1269.74 C-117.27 1269.75 -116.1 1269.76 -114.89 1269.77 C-98.75 1269.65 -84.9 1264.15 -73.06 1253.19 C-62.2 1241.81 -58.6 1228.75 -58.5 1213.38 C-58.47 1211.48 -58.47 1211.48 -58.45 1209.55 C-58.41 1206.85 -58.38 1204.15 -58.35 1201.44 C-58.31 1197.24 -58.26 1193.03 -58.2 1188.82 C-58.18 1187.42 -58.17 1186.01 -58.15 1184.6 C-58.14 1183.91 -58.13 1183.21 -58.12 1182.5 C-58.09 1180.4 -58.06 1178.29 -58.04 1176.19 C-57.9 1165.27 -57.71 1154.35 -57.44 1143.43 C-57.4 1141.77 -57.36 1140.11 -57.32 1138.45 C-57.27 1136.2 -57.21 1133.95 -57.16 1131.7 C-57.13 1130.47 -57.1 1129.23 -57.06 1127.96 C-56.88 1125.25 -56.88 1125.25 -55.88 1124.25 C-52.88 1124.12 -52.88 1124.12 -49.88 1124.25 C-43.44 1130.69 -47.44 1160.84 -47.31 1169.19 C-47.17 1178.12 -47.02 1187.05 -46.88 1196.25 C-21.13 1196.25 4.61 1196.25 31.12 1196.25 C31.41 1177 31.41 1177 31.69 1157.75 C31.73 1155.32 31.77 1152.88 31.81 1150.45 C31.83 1149.21 31.84 1147.97 31.86 1146.69 C32.2 1126.18 32.2 1126.18 34.12 1124.25 C37.12 1124.12 37.12 1124.12 40.12 1124.25 C42.35 1126.47 41.55 1131.74 41.67 1134.83 C41.71 1135.88 41.76 1136.93 41.8 1138.01 C42.13 1147.23 42.21 1156.45 42.25 1165.68 C42.27 1168.22 42.28 1170.75 42.29 1173.29 C42.3 1175.01 42.31 1176.73 42.32 1178.45 C42.33 1179.31 42.33 1180.17 42.34 1181.06 C42.36 1185.46 42.38 1189.86 42.38 1194.26 C42.37 1198.6 42.4 1202.94 42.44 1207.28 C42.45 1208.91 42.45 1210.54 42.44 1212.16 C42.38 1227.55 45.99 1240.28 56.56 1251.94 C57.41 1252.7 58.25 1253.46 59.12 1254.25 C59.6 1254.72 60.08 1255.19 60.57 1255.67 C72.37 1266.73 87.65 1269.71 103.29 1269.65 C104.55 1269.66 105.8 1269.67 107.1 1269.67 C110.51 1269.69 113.92 1269.69 117.33 1269.69 C120.2 1269.68 123.06 1269.69 125.93 1269.69 C132.7 1269.71 139.46 1269.71 146.23 1269.7 C153.17 1269.68 160.12 1269.7 167.06 1269.73 C173.06 1269.75 179.06 1269.75 185.05 1269.75 C188.62 1269.75 192.18 1269.75 195.75 1269.76 C199.73 1269.78 203.72 1269.77 207.7 1269.75 C209.43 1269.77 209.43 1269.77 211.2 1269.78 C227.51 1269.64 242 1263.94 253.84 1252.73 C263.82 1241.91 267.7 1229.78 267.86 1215.3 C267.88 1213.93 267.91 1212.57 267.94 1211.2 C268.04 1206.22 268.08 1201.24 268.12 1196.25 C268.13 1195.26 268.14 1194.26 268.15 1193.24 C268.31 1176.43 268.37 1159.62 268.42 1142.81 C268.44 1135.66 268.47 1128.52 268.5 1121.38 C268.54 1108.64 268.59 1095.91 268.63 1083.18 C268.67 1070.84 268.71 1058.49 268.75 1046.15 C268.76 1045 268.76 1045 268.76 1043.83 C268.77 1039.99 268.79 1036.15 268.8 1032.31 C268.92 1000.62 269.02 968.94 269.12 937.25 C273.75 935.12 273.75 935.12 277.12 936.25 C278.52 939.04 278.34 941.45 278.44 944.57 C278.48 945.83 278.53 947.08 278.57 948.38 C278.61 949.7 278.65 951.02 278.69 952.38 C278.73 953.71 278.77 955.05 278.82 956.39 C278.92 959.68 279.03 962.96 279.12 966.25 C279.81 965.81 280.5 965.36 281.2 964.9 C287.19 961.05 293.24 957.41 299.5 954 C301.03 953.16 302.56 952.32 304.09 951.48 C304.74 951.13 305.4 950.77 306.08 950.4 C308.46 949.06 310.79 947.66 313.12 946.25 C302.25 897.15 291.3 848.07 280.31 799 C280.07 797.92 280.07 797.92 279.83 796.83 C267.99 743.95 256.09 691.09 244.12 638.25 C242.1 638.25 240.14 640.42 238.62 641.56 Z M-143.29 695.16 C-150.41 702.44 -156.85 710.04 -162.88 718.25 C-163.29 718.81 -163.7 719.36 -164.12 719.93 C-189.72 755.06 -202.37 797.21 -202.19 840.38 C-202.19 841.28 -202.18 842.19 -202.18 843.12 C-202.13 856.37 -201.79 869.27 -198.88 882.25 C-198.69 883.13 -198.5 884.01 -198.31 884.92 C-186.73 937.88 -154.58 984.95 -109.27 1014.73 C-88.87 1027.65 -67.23 1036.36 -43.88 1042.25 C-42.87 1042.5 -42.87 1042.5 -41.85 1042.76 C8.03 1054.94 62.99 1044.04 106.5 1017.81 C114.1 1013.1 121.24 1007.96 128.12 1002.25 C129.01 1001.51 129.01 1001.51 129.92 1000.76 C148.88 984.95 165.02 966.68 177.11 945.06 C178.1 943.29 179.12 941.54 180.14 939.79 C189.61 923.14 195.95 904.89 200.12 886.25 C200.42 884.99 200.72 883.73 201.02 882.43 C211.89 831.14 201.65 774.18 173.3 730.05 C171.31 727.06 169.24 724.14 167.12 721.25 C166.72 720.69 166.31 720.13 165.9 719.55 C159.85 711.27 153.2 703.67 146.12 696.25 C145.67 695.62 145.21 695 144.75 694.35 C143.04 692.96 143.04 692.96 140.16 693.34 C134.84 694.37 129.71 696.2 124.56 697.88 C95.44 707.04 65.54 712.71 35.12 715.25 C33.81 715.36 32.5 715.47 31.15 715.59 C-24.48 719.74 -81.75 712.6 -134.32 693.99 C-138.13 692.89 -140.12 692.65 -143.29 695.16 Z M469.12 762.25 C468.75 763.05 468.37 763.84 467.99 764.66 C461.57 777.96 454.88 783.63 441.14 789.06 C430.21 793.41 421.32 797.75 416 808.88 C411.95 821.1 412.02 837.12 417 849.06 C419.25 853.43 420.76 855.6 425.25 857.75 C435.27 859.04 443.94 853.13 451.66 847.35 C465.12 836.16 473.6 818.78 475.88 801.5 C476.87 788.43 477.81 773.57 470.12 762.25 C469.79 762.25 469.47 762.25 469.12 762.25 Z M411.12 862.25 C409.42 864.55 407.82 866.86 406.25 869.25 C396.62 883.55 386.51 897.19 374.12 909.25 C373.6 909.83 373.08 910.41 372.54 911.01 C359.17 925.39 341.34 932.42 322.12 934.25 C322.46 936.89 322.78 939.53 323.12 942.25 C327.94 941.31 332.75 940.36 337.53 939.21 C346.37 937.18 354.51 936.13 363.61 936.23 C374.23 936.74 374.23 936.74 383.87 933.12 C386.29 930.54 388.14 928.15 389.96 925.14 C391.22 923.1 392.61 921.21 394.07 919.3 C401.44 909.53 407.48 899.09 413.12 888.25 C413.52 887.5 413.91 886.74 414.31 885.97 C415.45 883.77 416.57 881.58 417.69 879.38 C418.02 878.71 418.36 878.05 418.7 877.37 C420.19 874.38 421.52 871.55 422.12 868.25 C420.67 867.24 419.21 866.25 417.75 865.25 C416.94 864.69 416.13 864.14 415.29 863.56 C413.26 862.08 413.26 862.08 411.12 862.25 Z M-448.88 975.25 C-449.62 975.92 -450.37 976.6 -451.14 977.29 C-472.03 996.79 -482.59 1027.48 -484.04 1055.5 C-485.49 1098.63 -473.01 1138.81 -446.88 1173.25 C-446.29 1174.06 -445.7 1174.87 -445.1 1175.7 C-422.88 1205.27 -391.34 1224.99 -355.88 1234.25 C-355 1234.49 -354.12 1234.72 -353.21 1234.96 C-335.36 1239.16 -310.56 1239.59 -293.88 1231.25 C-294.21 1221.35 -294.53 1211.45 -294.88 1201.25 C-299.82 1202.74 -299.82 1202.74 -304.88 1204.25 C-326.1 1209.75 -347.84 1205.7 -366.88 1195.25 C-371.79 1192.24 -376.35 1188.81 -380.88 1185.25 C-381.64 1184.65 -382.41 1184.06 -383.21 1183.44 C-402.42 1167.64 -415.32 1141.62 -418.88 1117.25 C-420.28 1091.96 -418.08 1068.31 -400.86 1048.35 C-389.04 1035.84 -373.64 1027.71 -356.26 1027.01 C-335.39 1026.57 -317.53 1031.37 -300.3 1043.61 C-297.9 1045.39 -297.9 1045.39 -294.88 1046.25 C-294.55 1036.89 -294.3 1027.53 -294.15 1018.16 C-294.08 1013.81 -293.98 1009.47 -293.82 1005.12 C-293.67 1000.92 -293.58 996.72 -293.55 992.51 C-293.52 990.92 -293.47 989.32 -293.39 987.72 C-292.8 979.17 -292.8 979.17 -296.25 971.7 C-300.09 968.5 -304.37 966.37 -308.88 964.25 C-310.26 963.46 -311.63 962.67 -313 961.87 C-323.6 956.49 -334.48 952.59 -345.88 949.25 C-347.08 948.89 -348.29 948.52 -349.53 948.15 C-385.32 939.21 -422.65 950.15 -448.88 975.25 Z M293.56 969.38 C292.92 969.77 292.28 970.17 291.61 970.57 C290.41 971.34 289.22 972.13 288.05 972.95 C286.12 974.25 286.12 974.25 284.26 975.17 C281.84 976.64 280.64 977.83 279.12 980.25 C278.11 986.27 278.31 992.24 278.44 998.34 C278.45 1000.12 278.46 1001.91 278.47 1003.69 C278.5 1008.38 278.57 1013.06 278.64 1017.75 C278.72 1022.53 278.75 1027.32 278.78 1032.11 C278.86 1041.49 278.98 1050.87 279.12 1060.25 C280.24 1059.3 281.36 1058.34 282.48 1057.39 C283.1 1056.86 283.73 1056.33 284.37 1055.78 C286.5 1053.92 288.52 1051.96 290.56 1050 C309.47 1033.04 331.58 1026.18 356.67 1027.11 C373.45 1028.09 388.19 1036.92 399.69 1048.75 C414.04 1065.28 419.48 1087.73 418.12 1109.25 C416.07 1132.66 407.11 1155.77 391.12 1173.25 C390.63 1173.79 390.14 1174.33 389.64 1174.88 C373.78 1192.06 352.77 1205.47 328.73 1206.49 C311.81 1206.87 298.71 1204.12 284.12 1195.25 C282.48 1194.26 280.83 1193.27 279.12 1192.25 C278.79 1203.8 278.47 1215.35 278.12 1227.25 C305.13 1240.75 336.02 1239.34 364.2 1230.04 C377.76 1225.27 390.44 1218.6 402.12 1210.25 C402.95 1209.67 402.95 1209.67 403.79 1209.07 C441.82 1181.79 467.11 1138.84 475.61 1093.07 C478.82 1073.49 478.58 1052.61 474.12 1033.25 C473.96 1032.54 473.8 1031.84 473.64 1031.11 C466.93 1003.01 450.45 977.48 426.04 961.62 C414.86 954.8 402.03 949.56 389.12 947.25 C387.62 946.98 387.62 946.98 386.09 946.7 C352.29 942.84 322.09 951.77 293.56 969.38 Z M-393.88 1056.25 C-404.97 1069.59 -409.47 1085.16 -409.38 1102.31 C-409.37 1103.49 -409.36 1104.67 -409.36 1105.88 C-409.01 1122.72 -404.14 1136.73 -395.88 1151.25 C-395.06 1152.73 -395.06 1152.73 -394.23 1154.23 C-382.67 1173.77 -362.95 1188.85 -341 1194.69 C-326.92 1198.06 -312.71 1197.25 -299.69 1190.68 C-298.78 1190.22 -297.88 1189.77 -296.96 1189.3 C-296.27 1188.96 -295.58 1188.61 -294.88 1188.25 C-294.55 1171.88 -294.3 1155.51 -294.15 1139.14 C-294.08 1131.54 -293.98 1123.94 -293.82 1116.34 C-293.68 1109.71 -293.59 1103.08 -293.56 1096.45 C-293.54 1092.94 -293.5 1089.44 -293.39 1085.93 C-292.21 1070.6 -292.21 1070.6 -297.91 1057.14 C-301.27 1054.17 -304.86 1052.22 -308.88 1050.25 C-310.57 1049.14 -312.26 1048.02 -313.94 1046.88 C-340.81 1031.61 -372.01 1033.5 -393.88 1056.25 Z M292.38 1062.62 C291.86 1063.13 291.34 1063.63 290.8 1064.15 C289.78 1065.19 288.79 1066.25 287.83 1067.34 C286.7 1068.6 285.53 1069.83 284.32 1071.01 C276.72 1079.67 278.05 1090.49 278.09 1101.35 C278.08 1103.51 278.06 1105.67 278.05 1107.83 C278.02 1112.35 278.03 1116.86 278.05 1121.38 C278.07 1127.15 278.02 1132.92 277.94 1138.7 C277.89 1143.15 277.89 1147.61 277.9 1152.07 C277.9 1154.2 277.89 1156.33 277.85 1158.45 C277.35 1170.02 277.35 1170.02 281.29 1180.52 C283.8 1182.83 286.16 1184.57 289.12 1186.25 C290.25 1186.95 290.25 1186.95 291.41 1187.67 C293.29 1188.81 295.19 1189.76 297.19 1190.69 C297.88 1191.02 298.58 1191.35 299.3 1191.69 C314.43 1198.68 331.6 1197.91 347.12 1192.25 C358 1187.92 367.26 1181.82 376.12 1174.25 C376.79 1173.69 377.45 1173.13 378.13 1172.55 C393.34 1158.51 405.99 1134.24 407.3 1113.44 C407.74 1091.68 406.68 1073.15 391.75 1055.88 C381.46 1045.17 368.89 1037.7 353.71 1036.91 C329.52 1036.44 309.6 1045.74 292.38 1062.62 Z " fill="#000202" transform="translate(494.875,-0.24999999999999997)"/>
<path d="M0 0 C0.73 0.15 1.45 0.29 2.2 0.44 C7.29 1.54 12.06 3.19 16.93 5.02 C19.65 6.02 22.37 6.95 25.12 7.85 C69.44 22.53 109.4 49.41 130.9 92.04 C134.28 99.12 136.6 106.54 138.75 114.06 C139.26 115.79 139.26 115.79 139.79 117.55 C144.02 134.61 143.73 155.22 138.75 172.06 C138.46 173.09 138.46 173.09 138.16 174.14 C130.03 202.64 112.22 227.13 88.75 245.06 C87.86 245.78 86.98 246.49 86.06 247.23 C59.35 268.23 26.06 280.68 -7.25 286.06 C-9.2 286.38 -9.2 286.38 -11.19 286.71 C-66.53 294.86 -127.35 283.98 -173.25 251.06 C-174.7 250.06 -174.7 250.06 -176.17 249.04 C-192.43 237.26 -207.02 222.38 -217.25 205.06 C-217.62 204.45 -217.99 203.84 -218.37 203.21 C-233.69 177.63 -238.91 145.69 -232.09 116.58 C-222.12 78.14 -195.49 47.57 -161.76 27.33 C-147.36 18.96 -132.31 12.44 -116.44 7.43 C-112.86 6.29 -109.42 4.92 -105.94 3.5 C-72.64 -8.62 -34.13 -6.89 0 0 Z M-101.06 15.44 C-102.5 18.62 -102.17 19.75 -101.25 23.06 C-97.39 30.74 -91.04 37.35 -85.61 43.95 C-82.61 47.61 -79.66 51.32 -76.75 55.06 C-72.67 60.28 -68.54 65.47 -64.38 70.62 C-63.84 71.29 -63.3 71.96 -62.75 72.65 C-57.14 80.35 -57.14 80.35 -49.08 84.3 C-48.23 84.33 -47.38 84.35 -46.5 84.38 C-45.66 84.41 -44.82 84.45 -43.95 84.49 C-37.54 83.48 -33.86 78.76 -30.19 73.81 C-29.23 72.56 -28.27 71.3 -27.31 70.05 C-26.81 69.4 -26.32 68.75 -25.8 68.07 C-23.17 64.66 -20.42 61.34 -17.69 58 C-12.51 51.65 -7.41 45.27 -2.5 38.71 C-1.62 37.56 -0.74 36.4 0.15 35.26 C1.57 33.41 2.98 31.55 4.38 29.69 C4.81 29.13 5.25 28.57 5.7 27.99 C7.84 25.09 8.76 22.98 9.34 19.4 C9.07 15.96 9.07 15.96 6.6 13.94 C3.47 11.88 1.24 11.24 -2.44 10.61 C-3.63 10.41 -4.83 10.2 -6.06 9.98 C-7.3 9.78 -8.54 9.58 -9.81 9.38 C-11.02 9.16 -12.24 8.95 -13.49 8.73 C-36.36 4.84 -82.15 -0.54 -101.06 15.44 Z M20.75 18.06 C20.6 18.68 20.46 19.3 20.3 19.93 C17.22 31.57 9.56 40.01 2.2 49.24 C0.36 51.56 -1.46 53.89 -3.28 56.22 C-9.83 64.59 -16.48 72.88 -23.25 81.06 C-23.69 81.59 -24.12 82.13 -24.57 82.68 C-25.72 84.07 -26.89 85.44 -28.06 86.81 C-28.69 87.55 -29.31 88.29 -29.96 89.05 C-32.1 90.93 -33.86 91.96 -36.39 93.19 C-37.12 93.54 -37.84 93.89 -38.58 94.26 C-39.41 94.66 -39.41 94.66 -40.25 95.06 C-40.38 101.68 -40.46 108.29 -40.52 114.91 C-40.55 117.16 -40.58 119.4 -40.63 121.65 C-40.92 137.34 -40.79 149.49 -30.25 162.03 C-21.51 170.9 -11.14 175.17 1.25 175.56 C13.29 175.17 22.85 171.23 31.75 163.06 C38.34 155.37 42.08 147.5 43.12 137.44 C43 136.32 42.88 135.21 42.75 134.06 C40.55 132.33 40.55 132.33 37.75 131.06 C34.94 128.75 34.94 128.75 32.75 126.06 C32.44 122.75 32.44 122.75 32.75 120.06 C38.01 118.66 38.01 118.66 41.21 120.41 C44.1 122.92 46.95 125.45 49.75 128.06 C50.72 128.95 50.72 128.95 51.72 129.85 C53.81 131.77 55.88 133.72 57.94 135.69 C58.95 136.62 58.95 136.62 59.97 137.57 C63.33 140.86 64.66 142.2 65.18 147.02 C65.04 148.03 64.89 149.03 64.75 150.06 C59.39 150.57 57.05 149.12 52.75 146.06 C52.22 147.42 52.22 147.42 51.68 148.81 C45.53 163.99 36.78 174.5 21.84 181.84 C9.33 186.8 -5.68 186.97 -18.33 182.38 C-29.73 177.23 -39.68 169.44 -45.25 158.06 C-45.91 158.06 -46.57 158.06 -47.25 158.06 C-48.77 159.94 -48.77 159.94 -50.25 162.31 C-51.02 163.5 -51.02 163.5 -51.81 164.7 C-53.27 166.98 -53.27 166.98 -54.19 169.23 C-55.55 171.58 -56.8 171.97 -59.25 173.06 C-60.8 174.17 -62.35 175.3 -63.88 176.44 C-75.99 185.03 -88.79 186.21 -103.25 185.06 C-107.53 184.21 -111.3 182.9 -115.25 181.06 C-116.03 180.71 -116.82 180.36 -117.62 180 C-131.38 173.12 -139.84 161.4 -144.62 147.08 C-144.83 146.42 -145.04 145.75 -145.25 145.06 C-147.48 146.13 -149.25 147.06 -151.12 148.69 C-153.93 150.5 -155.98 150.29 -159.25 150.06 C-159.38 143.44 -159.38 143.44 -158.25 140.06 C-157.68 139.78 -157.1 139.49 -156.51 139.2 C-153.42 137.64 -151.51 135.43 -149.12 132.94 C-145.51 129.26 -141.86 125.67 -137.94 122.31 C-137.18 121.66 -136.42 121 -135.64 120.33 C-132.48 118.66 -130.63 119.18 -127.25 120.06 C-126.94 122.75 -126.94 122.75 -127.25 126.06 C-129.36 128.51 -131.49 130.49 -134.06 132.44 C-136.08 135.19 -135.75 137.85 -135.25 141.06 C-132.66 152.01 -127.72 161.38 -118.29 167.82 C-107.18 174.59 -95.93 176.98 -82.96 174.41 C-70.64 170.7 -62.58 163.57 -55.86 152.84 C-50.36 142.03 -51.71 130.11 -51.94 118.31 C-51.96 116.05 -51.99 113.8 -52.01 111.54 C-52.06 106.05 -52.14 100.55 -52.25 95.06 C-52.87 94.73 -53.48 94.4 -54.12 94.06 C-55.33 93.4 -55.33 93.4 -56.57 92.72 C-57.78 92.07 -57.78 92.07 -59.01 91.4 C-62.03 89.6 -64.17 87.44 -66.5 84.81 C-66.95 84.3 -67.41 83.79 -67.87 83.27 C-72.23 78.27 -76.22 73 -80.2 67.7 C-84.13 62.47 -88.24 57.4 -92.44 52.38 C-109.9 31.33 -109.9 31.33 -113.25 19.06 C-119.43 19.6 -124.47 21.57 -130.12 24.06 C-131.05 24.46 -131.97 24.87 -132.92 25.28 C-168.49 41.04 -201.3 66.3 -216.18 103.39 C-226.02 129.62 -226.48 157.8 -215.72 183.85 C-201.11 215.78 -176.08 238.95 -145.25 255.06 C-144.6 255.41 -143.96 255.75 -143.29 256.1 C-93.97 281.87 -31.62 284.39 21.01 268.06 C62.04 254.65 99.61 230.3 119.75 191.06 C132.5 164.84 134.45 136.35 125.65 108.6 C111.92 70.15 79.98 43.99 44.19 26.81 C36.57 23.23 28.8 20.5 20.75 18.06 Z " fill="#000202" transform="translate(542.25,380.9375)"/>
<path d="M0 0 C13.18 11.18 22.34 27.84 23.86 45.14 C25.1 63.9 20.03 81.73 7.71 96.15 C-0.61 105.34 -13 115.64 -25.86 116.39 C-31.06 114.58 -32.38 111.09 -34.88 106.38 C-35.91 104.54 -36.96 102.7 -38.01 100.87 C-38.55 99.93 -39.09 98.98 -39.64 98.01 C-49.53 81.31 -61.98 65.84 -75.12 51.59 C-76.36 50.23 -77.6 48.86 -78.79 47.45 C-82.02 43.67 -85.36 40.11 -88.97 36.68 C-89.76 35.92 -90.56 35.16 -91.38 34.38 C-93.02 32.82 -94.68 31.26 -96.34 29.72 C-97.13 28.97 -97.91 28.21 -98.72 27.43 C-99.43 26.76 -100.15 26.09 -100.88 25.39 C-102.31 23.19 -102.31 23.19 -102.13 20.07 C-101.23 16.9 -100.1 15.14 -98 12.62 C-97.41 11.9 -96.81 11.18 -96.2 10.43 C-95.58 9.69 -94.95 8.95 -94.31 8.19 C-93.38 6.95 -93.38 6.95 -92.43 5.69 C-68.89 -22.16 -27.14 -20.51 0 0 Z M-88.02 17.34 C-89.5 19.08 -89.5 19.08 -89.31 21.19 C-87.79 22.72 -87.79 22.72 -85.8 24.3 C-81.4 28.05 -77.44 32.08 -73.5 36.31 C-72.8 37.06 -72.1 37.81 -71.39 38.58 C-55.64 55.55 -41.75 73.82 -29.43 93.42 C-27.13 97.05 -24.72 100.62 -22.31 104.19 C-14.32 100.81 -8.43 96.3 -2.31 90.19 C-1.74 89.62 -1.16 89.06 -0.56 88.47 C8.87 78.43 12.64 64.62 13.06 51.12 C12.58 36.47 7.23 22.96 -2.97 12.31 C-16.23 0.27 -30.56 -5.09 -48.44 -4.29 C-64.49 -3.03 -77.7 5.27 -88.02 17.34 Z " fill="#000202" transform="translate(861.3125,85.8125)"/>
<path d="M0 0 C0.77 0.28 1.54 0.56 2.33 0.84 C14.81 5.91 26.48 14.72 34 26 C34.61 28.71 34.61 28.71 34 32 C31.71 34.91 28.97 37.26 26.19 39.69 C24.62 41.11 23.05 42.53 21.49 43.95 C20.72 44.64 19.95 45.33 19.16 46.04 C16.32 48.62 13.59 51.29 10.88 54 C9.7 55.18 9.7 55.18 8.49 56.38 C-9.02 74.82 -23.9 95.36 -37.18 117 C-37.87 118.11 -37.87 118.11 -38.57 119.25 C-38.97 119.91 -39.37 120.56 -39.78 121.23 C-41.06 123.08 -42.27 124.56 -44 126 C-53.03 126.38 -60.68 119.31 -67.19 113.75 C-80.77 101.05 -88.7 84.2 -89.48 65.63 C-89.69 46.91 -83.11 30.93 -70.8 16.79 C-63.21 9.22 -54.02 3.78 -44 0 C-43.21 -0.32 -42.42 -0.64 -41.61 -0.96 C-28.99 -5.27 -12.43 -4.53 0 0 Z M-66.15 28.29 C-71.94 36.77 -77.28 46.62 -78 57 C-78.12 58.71 -78.12 58.71 -78.24 60.45 C-78.77 75.56 -74.62 89.72 -64.31 101.05 C-59.95 105.61 -55.52 109.85 -50 113 C-45.82 111.61 -44.75 108.68 -42.62 105.06 C-35.13 92.69 -26.69 80.86 -17.36 69.8 C-15.77 67.92 -14.2 66.02 -12.63 64.12 C-5.79 55.84 1.54 48.22 9.19 40.69 C10.34 39.54 11.5 38.4 12.65 37.25 C15.43 34.5 18.21 31.75 21 29 C16.16 18.79 5.42 14.02 -4.54 9.96 C-26.65 2.59 -51.45 10.5 -66.15 28.29 Z " fill="#000202" transform="translate(203,74)"/>
<path d="M0 0 C7.35 5.49 12.13 12.76 13.49 21.93 C13.83 29.95 11.14 37.36 6.15 43.61 C0.54 49.31 -5.54 52.86 -13.69 53.6 C-21.45 53.62 -28.66 51.3 -34.85 46.61 C-40.76 40.46 -43.98 33.86 -44.29 25.29 C-44.05 16.79 -41.97 10.52 -36.16 4.23 C-26.2 -4.79 -11.93 -7.07 0 0 Z " fill="#000202" transform="translate(749.8515625,353.39453125)"/>
<path d="M0 0 C6.42 4.61 11.19 9.72 13.15 17.54 C14.28 26.64 13.43 33.94 8.15 41.54 C5.65 44.42 5.65 44.42 3.15 46.54 C2.32 47.26 1.5 47.99 0.65 48.73 C-5.08 52.88 -11.4 53.92 -18.38 53.33 C-27.01 51.92 -33.16 48.12 -38.6 41.3 C-43.06 35.03 -44.35 29.15 -43.85 21.54 C-41.79 11.98 -37.79 5.31 -29.85 -0.46 C-21.08 -5.94 -8.74 -5.18 0 0 Z " fill="#000202" transform="translate(272.8515625,353.45703125)"/>
<path d="M0 0 C6.13 5.26 10.08 11.92 11 20 C11.13 29.89 8.4 38.22 1.62 45.5 C-3.51 50.27 -8.33 51.78 -15.23 52.15 C-21.83 51.79 -26.4 48.99 -30.88 44.25 C-37.28 36.14 -38.03 28.23 -37 18 C-35.24 10.95 -32.03 4.66 -25.82 0.56 C-17.09 -4.48 -8.95 -5.69 0 0 Z M-22 12 C-25.98 17.68 -26.66 23.19 -26 30 C-24.43 34.16 -22.54 37.27 -19 40 C-15.31 41.2 -13.54 41.19 -9.88 39.88 C-5.63 37.11 -2.93 33.66 -1 29 C-0.11 21.63 -0.46 15.97 -5 10 C-10.81 6.12 -17.23 6.81 -22 12 Z " fill="#000202" transform="translate(863,971)"/>
<path d="M0 0 C4.78 3.4 7.72 7.17 9.56 12.75 C10.53 22.66 9.98 30.78 3.95 38.93 C-1.28 45.26 -7.12 49.96 -15.5 51.01 C-21.51 51.32 -26.37 50.01 -31.44 46.75 C-36.19 42.46 -39.09 38.01 -39.77 31.55 C-39.9 20.59 -38.06 12.62 -30.44 4.51 C-21.83 -3.06 -10.37 -6.19 0 0 Z M-21.44 11.75 C-26.62 17.28 -28.76 21.97 -28.65 29.53 C-28.24 33.78 -26.4 35.92 -23.25 38.62 C-19.37 40.18 -16.31 40.15 -12.44 38.75 C-7.43 35.49 -3.25 31.54 -1.44 25.75 C-0.78 20.66 -0.88 16.92 -3.12 12.25 C-5.54 9.64 -7.02 8.63 -10.44 7.75 C-14.8 7.75 -17.86 9.31 -21.44 11.75 Z " fill="#000202" transform="translate(922.4375,986.25)"/>
<path d="M0 0 C5.84 4.74 10.39 10.96 11.76 18.49 C12.35 26.42 12.9 34 7.76 40.49 C2.76 45.89 -2.15 48.46 -9.55 48.87 C-17.33 48.65 -23.81 44.91 -29.38 39.65 C-35.76 32.26 -38.24 24.53 -37.75 14.83 C-36.8 8.58 -34.87 3.78 -30.05 -0.42 C-20.02 -7.42 -10.13 -6.82 0 0 Z M-23.24 8.49 C-26.62 12.21 -26.81 16.09 -26.66 20.93 C-25.76 26.49 -22.41 30.61 -18.43 34.43 C-14.32 37.09 -12.14 37.49 -7.24 37.49 C-4.1 36.23 -2.61 34.93 -0.43 32.37 C1.52 27.64 1.61 23.2 0.07 18.31 C-2.56 12.49 -6.16 9 -11.93 6.18 C-16.58 4.8 -19.21 6.05 -23.24 8.49 Z " fill="#000202" transform="translate(93.2421875,988.5078125)"/>
<path d="M0 0 C6.14 6.34 8.99 13.72 9.09 22.52 C8.94 30.92 7.2 37.39 1.53 43.71 C-3.68 48.4 -9.31 50.11 -16.28 49.84 C-22.9 48.86 -27.88 45.7 -32.11 40.55 C-38.37 31.47 -39.12 23.54 -38.28 12.77 C-36.7 6 -32.68 1.05 -27.28 -3.23 C-18.31 -8.21 -7.74 -6.5 0 0 Z M-23.28 7.77 C-27.47 12.82 -27.96 17.35 -27.74 23.83 C-26.89 29.31 -24.19 32.92 -20.28 36.71 C-16.94 38.49 -14.51 39.05 -10.78 38.21 C-6.56 35.78 -3.84 32.44 -2.28 27.77 C-1.55 21 -2.11 15.32 -6.28 9.77 C-12.23 4.94 -16.56 3.3 -23.28 7.77 Z " fill="#000202" transform="translate(153.28125,973.2265625)"/>
<path d="M0 0 C4.85 3.04 8.3 7.18 10.75 12.31 C12.53 21.23 11.11 27.79 6.09 35.38 C1.73 40.99 -4.56 45.18 -11.62 46.44 C-28.33 47.61 -28.33 47.61 -34.62 42.44 C-40.24 36.98 -42.76 33.22 -42.94 25.25 C-42.85 17.17 -40.79 12.56 -35.38 6.69 C-26.57 -1.62 -11.34 -5.17 0 0 Z M-29.62 17.44 C-32.08 21.13 -32.44 24.16 -31.62 28.44 C-29.88 31.46 -27.79 33.85 -24.62 35.44 C-17.46 36.17 -11.54 35.75 -5.62 31.44 C-2.3 28.64 -0.39 25.67 0.38 21.38 C0.38 17.15 0.09 15.61 -2.62 12.44 C-6.61 8.82 -10.84 8.99 -15.97 9.15 C-22.11 9.81 -25.62 12.98 -29.62 17.44 Z " fill="#000202" transform="translate(953.625,1040.5625)"/>
<path d="M0 0 C7.61 4.06 14.29 10.13 17.06 18.44 C17.7 26.15 17.99 32.25 13.06 38.44 C7.78 43.82 3.18 46.64 -4.56 46.87 C-12.51 46.89 -18.18 46.03 -24.94 41.44 C-25.84 40.88 -26.75 40.32 -27.69 39.75 C-32.99 34.3 -36.49 27.88 -37.25 20.31 C-36.77 14.37 -35.34 8.88 -31.07 4.54 C-22.26 -2.27 -10.53 -4.28 0 0 Z M-23.94 13.44 C-26.01 16.05 -25.94 17.37 -25.88 20.75 C-24.56 25.94 -22.49 29.51 -18.18 32.77 C-12.97 35.76 -7.85 36.29 -1.94 35.44 C1.34 33.97 3.76 32.18 6.06 29.44 C7.02 24.92 6.45 21.24 4.44 17.12 C0.6 12.78 -3.55 9.76 -9.43 9.2 C-15.44 9.04 -19.3 9.16 -23.94 13.44 Z " fill="#000202" transform="translate(59.9375,1040.5625)"/>
</g>
</svg>
