<?xml version='1.0' encoding='UTF-8'?>
<svg xmlns="http://www.w3.org/2000/svg" width="297" height="210" viewBox="0 0 297 210">
  <rect x="0" y="0" width="297" height="210" fill="white"/>
  <g transform="translate(74.44214229867083,31.0) scale(0.11571540265832682)"><path d="M0 0 C1.11 0 1.11 0 2.23 0 C20.06 0.05 37.25 2.23 54.38 7.31 C55.42 7.6 56.46 7.88 57.53 8.18 C74.37 13.25 91.02 21.83 104.38 33.31 C105.22 34.03 106.06 34.74 106.92 35.48 C109.46 37.71 111.93 39.99 114.38 42.31 C115.27 43.16 116.17 44 117.09 44.87 C148.35 75.12 163.64 119.62 164.64 162.61 C164.7 166.86 164.71 171.12 164.69 175.38 C164.69 176.27 164.68 177.17 164.68 178.09 C164.6 200.98 162.66 224.44 155.38 246.31 C156.52 248.24 156.52 248.24 158.19 250.12 C164.37 257.48 164.05 266.13 163.57 275.26 C162.33 288.27 152.96 299.2 143.38 307.31 C132.87 314.31 122.92 316.37 110.38 315.31 C103.66 313.73 99.06 310.11 95.38 304.31 C94.5 302 94.5 302 94.38 299.31 C94.3 298.63 94.23 297.94 94.16 297.24 C93.29 283.79 101.33 270.77 109.7 260.72 C118.17 251.16 128.66 243.67 141.38 241.31 C145.22 225.05 148.54 208.93 150.38 192.31 C150.51 191.19 150.64 190.07 150.77 188.92 C153.03 166.58 151 143.02 145.38 121.31 C145.22 120.68 145.07 120.06 144.91 119.41 C139.82 99.55 130.68 79.98 117.38 64.31 C116.65 63.45 115.92 62.58 115.17 61.69 C90.14 32.94 51.67 17.71 14.17 14.91 C-29.22 12.11 -73.14 23.2 -107.62 50.31 C-108.99 51.35 -108.99 51.35 -110.39 52.41 C-124.56 63.5 -136.23 76.7 -146.62 91.31 C-147.3 92.26 -147.3 92.26 -148 93.23 C-170.12 124.58 -184.96 161.3 -192.56 198.81 C-192.77 199.86 -192.99 200.9 -193.2 201.98 C-194.2 207.18 -194.87 212.02 -194.62 217.31 C-194.03 217.61 -193.44 217.9 -192.83 218.21 C-158.37 235.51 -128.75 258 -101.53 285.22 C-99.93 286.82 -98.33 288.41 -96.72 290 C-90.23 296.44 -84.29 303.12 -78.62 310.31 C-77.6 311.57 -76.57 312.82 -75.54 314.07 C-63.89 328.38 -53.71 343.5 -43.91 359.12 C-41.92 362.27 -39.92 365.41 -37.84 368.51 C-37.43 369.13 -37.02 369.75 -36.59 370.39 C-35.53 371.98 -34.47 373.56 -33.39 375.14 C-31.98 377.68 -31.08 379.72 -30.21 382.44 C-29.19 385.56 -28.16 388.68 -27.09 391.79 C-25.66 395.93 -24.25 400.07 -22.84 404.21 C-22.24 405.99 -21.63 407.77 -21.01 409.54 C-20.12 412.13 -19.24 414.72 -18.36 417.32 C-18.09 418.1 -17.81 418.88 -17.53 419.69 C-15.84 424.76 -15.18 428.96 -15.62 434.31 C-18.42 437.1 -20.26 436.62 -24.16 436.73 C-25.47 436.77 -26.77 436.8 -28.11 436.84 C-29.49 436.88 -30.87 436.91 -32.25 436.94 C-33.64 436.98 -35.03 437.01 -36.41 437.05 C-39.82 437.15 -43.22 437.23 -46.62 437.31 C-42.66 444.24 -38.71 451.17 -34.62 458.31 C-29.68 458.31 -28.2 456.51 -24.88 453.25 C-23.88 452.3 -22.89 451.35 -21.89 450.4 C-21.37 449.9 -20.85 449.4 -20.31 448.89 C-18.5 447.2 -16.64 445.58 -14.76 443.96 C-10.4 440.16 -6.28 436.15 -2.19 432.06 C-1.44 431.32 -0.7 430.58 0.07 429.82 C4.94 424.91 9.35 419.92 13.42 414.32 C15.97 411.71 17.77 410.86 21.38 410.31 C25.58 412.23 26.87 415.06 28.47 419.18 C29.15 421.17 29.8 423.18 30.44 425.19 C30.95 426.79 30.95 426.79 31.48 428.43 C37.16 446.68 39.35 465.28 40.38 484.31 C40.42 485.06 40.46 485.8 40.5 486.57 C43.81 556.8 16.57 629.94 -25.62 685.31 C-26.1 685.94 -26.58 686.57 -27.07 687.22 C-35.39 698.13 -44.01 709.13 -53.94 718.62 C-55.68 720.36 -57.26 722.18 -58.85 724.05 C-62.41 728.15 -66.21 731.88 -70.19 735.56 C-70.88 736.21 -71.58 736.86 -72.3 737.52 C-147.69 807.18 -247.03 847.84 -380.62 864.31 C-381.68 864.41 -382.74 864.51 -383.83 864.61 C-395.88 865.58 -407.96 865.5 -420.05 865.5 C-423.82 865.5 -427.6 865.52 -431.37 865.54 C-453.77 865.59 -476.02 864.37 -498.19 861.06 C-498.92 860.96 -499.64 860.85 -500.39 860.74 C-565.06 851.22 -627.89 824.8 -678.62 783.31 C-679.57 782.56 -680.51 781.81 -681.48 781.03 C-686.82 776.73 -691.98 772.27 -697.04 767.65 C-698.43 766.39 -699.82 765.15 -701.25 763.94 C-707.46 758.64 -713.2 752.89 -718.95 747.12 C-720.68 745.38 -722.42 743.65 -724.16 741.92 C-729.86 736.22 -735.45 730.5 -740.62 724.31 C-741.16 723.68 -741.7 723.05 -742.26 722.4 C-751.28 711.76 -759.64 700.75 -767.62 689.31 C-768.07 688.69 -768.51 688.06 -768.97 687.42 C-781.56 669.59 -793.81 649.08 -799.01 627.71 C-799.61 625.37 -800.37 623.19 -801.25 620.94 C-803.45 615.15 -804 609.43 -804.62 603.31 C-808.25 603.91 -811.16 604.9 -814.44 606.54 C-815.36 606.99 -816.28 607.44 -817.23 607.91 C-818.2 608.39 -819.18 608.88 -820.19 609.38 C-856.18 626.88 -894.82 638.5 -935.06 638.62 C-936.38 638.63 -937.69 638.64 -939.05 638.64 C-963.35 638.46 -989.13 633.17 -1007.62 616.31 C-1008.44 615.59 -1009.26 614.86 -1010.11 614.11 C-1017.95 606.75 -1023.81 598.25 -1027.69 588.19 C-1028.89 585.19 -1028.89 585.19 -1031.38 583.27 C-1032.02 583.04 -1032.66 582.8 -1033.31 582.56 C-1034.95 581.94 -1034.95 581.94 -1036.62 581.31 C-1037.56 578.62 -1037.56 578.62 -1037.62 576.31 C-1034.98 574.85 -1033.73 574.31 -1030.62 574.31 C-1031.12 572.83 -1031.12 572.83 -1031.62 571.31 C-1033.07 549.48 -1030.16 529.06 -1023.62 508.31 C-1023.39 507.55 -1023.15 506.8 -1022.91 506.02 C-1008.87 461.84 -984.66 421.9 -956.62 385.31 C-956.16 384.7 -955.69 384.08 -955.2 383.44 C-948.76 374.99 -942.03 366.94 -934.62 359.31 C-933.78 358.43 -932.93 357.54 -932.05 356.62 C-923.39 348.13 -912.74 341.04 -900.31 340.44 C-888.47 341.23 -880.23 348.84 -871.62 356.31 C-870.45 357.33 -869.27 358.34 -868.09 359.36 C-865.54 361.56 -863 363.76 -860.47 365.97 C-856.77 369.19 -853.04 372.38 -849.31 375.56 C-845.3 378.99 -841.34 382.45 -837.44 386 C-833.27 389.78 -828.96 393.34 -824.59 396.88 C-821.91 399.08 -819.29 401.33 -816.68 403.61 C-780.99 434.68 -738.43 460.89 -689.62 458.31 C-669.64 456.71 -652.93 446.48 -637.62 434.31 C-636.72 433.6 -635.82 432.89 -634.89 432.16 C-622.09 421.92 -610.49 410.35 -598.93 398.75 C-596.74 396.55 -594.54 394.35 -592.34 392.16 C-590.91 390.74 -589.49 389.31 -588.07 387.89 C-587.1 386.93 -587.1 386.93 -586.12 385.94 C-582.32 382.12 -578.7 378.19 -575.19 374.1 C-572.8 371.37 -570.22 368.85 -567.62 366.31 C-564.4 363.13 -561.23 359.97 -558.31 356.5 C-554.24 351.7 -549.71 347.35 -545.22 342.94 C-542.14 339.91 -539.18 336.84 -536.37 333.56 C-532.74 329.39 -528.92 325.46 -525 321.56 C-523.95 320.5 -523.95 320.5 -522.87 319.42 C-521.39 317.95 -519.92 316.47 -518.44 314.99 C-516.19 312.76 -513.95 310.51 -511.72 308.27 C-510.27 306.82 -508.83 305.38 -507.38 303.93 C-506.72 303.27 -506.06 302.61 -505.38 301.93 C-501.52 298.09 -497.55 294.42 -493.42 290.87 C-490.65 288.46 -487.99 285.95 -485.31 283.44 C-480.55 279.01 -475.69 274.78 -470.61 270.71 C-468.38 268.92 -466.18 267.12 -463.98 265.29 C-421.5 230.09 -371.97 202.33 -316.62 195.31 C-315.61 195.17 -315.61 195.17 -314.57 195.03 C-284.34 191.15 -252.36 195.73 -223.67 205.61 C-220.65 206.65 -217.61 207.57 -214.56 208.5 C-212.87 209.02 -212.87 209.02 -211.15 209.54 C-210.32 209.8 -209.48 210.05 -208.62 210.31 C-208.58 209.65 -208.54 208.98 -208.49 208.29 C-207.97 201.43 -206.83 194.97 -205.12 188.31 C-204.86 187.29 -204.6 186.27 -204.34 185.21 C-192.97 141.87 -174.05 101.35 -144.62 67.31 C-144.16 66.77 -143.7 66.24 -143.22 65.68 C-138.05 59.73 -132.67 54.36 -126.62 49.31 C-125.24 48.08 -125.24 48.08 -123.84 46.83 C-90.06 16.93 -45 -0.21 0 0 Z M-16.62 1.31 C-12.62 2.31 -12.62 2.31 -12.62 2.31 Z M151.38 147.31 C152.38 150.31 152.38 150.31 152.38 150.31 Z M152.38 159.31 C153.38 162.31 153.38 162.31 153.38 162.31 Z M152.38 180.31 C153.38 183.31 153.38 183.31 153.38 183.31 Z M151.38 192.31 C152.38 196.31 152.38 196.31 152.38 196.31 Z M-307.62 195.31 C-307.62 195.64 -307.62 195.97 -307.62 196.31 C-304.99 196.31 -302.35 196.31 -299.62 196.31 C-299.62 195.98 -299.62 195.65 -299.62 195.31 C-302.26 195.31 -304.9 195.31 -307.62 195.31 Z M-286.62 195.31 C-286.62 195.64 -286.62 195.97 -286.62 196.31 C-283.99 196.31 -281.35 196.31 -278.62 196.31 C-278.62 195.98 -278.62 195.65 -278.62 195.31 C-281.26 195.31 -283.9 195.31 -286.62 195.31 Z M-207.62 204.31 C-206.62 206.31 -206.62 206.31 -206.62 206.31 Z M-448.62 271.31 C-449.53 272.04 -450.44 272.77 -451.38 273.52 C-454.14 275.77 -456.89 278.03 -459.62 280.31 C-460.13 280.73 -460.63 281.15 -461.16 281.58 C-471.48 290.15 -481.52 299.03 -490.91 308.63 C-492.65 310.34 -494.46 311.93 -496.32 313.52 C-500.62 317.26 -504.67 321.21 -508.69 325.25 C-509.36 325.91 -510.02 326.58 -510.71 327.26 C-514.62 331.18 -518.32 335.22 -521.94 339.41 C-525.03 342.9 -528.39 346.12 -531.73 349.38 C-534.62 352.23 -537.38 355.14 -540.03 358.22 C-544.32 363.18 -548.99 367.72 -553.66 372.31 C-554.67 373.3 -554.67 373.3 -555.69 374.31 C-556.28 374.89 -556.87 375.47 -557.47 376.06 C-559.34 378.02 -561.11 380.02 -562.88 382.06 C-566.58 386.31 -570.48 390.31 -574.46 394.29 C-575.55 395.38 -575.55 395.38 -576.66 396.49 C-578.19 398.01 -579.71 399.54 -581.24 401.06 C-583.56 403.37 -585.87 405.69 -588.18 408 C-589.67 409.49 -591.16 410.98 -592.65 412.47 C-593.33 413.16 -594.01 413.84 -594.71 414.54 C-598.65 418.46 -602.69 422.2 -606.9 425.82 C-609.18 427.8 -611.37 429.87 -613.56 431.94 C-631.54 448.23 -651.29 461.23 -674.62 468.31 C-675.79 468.67 -676.96 469.03 -678.17 469.4 C-696.51 473.98 -717.64 472.94 -735.62 467.31 C-736.68 466.99 -736.68 466.99 -737.77 466.66 C-748.61 463.31 -758.64 458.68 -768.62 453.31 C-769.75 452.72 -770.88 452.13 -772.04 451.52 C-788.19 442.67 -802.87 431.46 -816.97 419.68 C-819.18 417.85 -821.43 416.08 -823.69 414.31 C-825.34 412.98 -826.98 411.65 -828.62 410.31 C-829.6 409.52 -830.58 408.73 -831.58 407.92 C-838.15 402.48 -844.3 396.7 -850.29 390.63 C-850.89 390.03 -851.49 389.42 -852.1 388.8 C-855.12 385.74 -858.13 382.67 -861.11 379.58 C-878.01 362.03 -878.01 362.03 -900.06 353.75 C-909.3 354.26 -916.1 360.19 -922.69 366.13 C-924.61 368.3 -925.26 369.48 -925.62 372.31 C-916.91 379.75 -907.93 386.77 -898.79 393.67 C-896.69 395.26 -894.6 396.86 -892.51 398.46 C-883.77 405.11 -874.87 411.4 -865.62 417.31 C-864.87 417.8 -864.11 418.28 -863.33 418.78 C-840.87 433.08 -817.58 445.61 -793.66 457.27 C-789.74 459.2 -789.74 459.2 -788.62 460.31 C-788.58 461.98 -788.58 463.65 -788.62 465.31 C-793.89 465.75 -797.54 464.29 -802.14 461.94 C-802.85 461.58 -803.57 461.23 -804.31 460.86 C-806.65 459.69 -808.98 458.5 -811.31 457.31 C-812.11 456.91 -812.92 456.5 -813.74 456.08 C-852.55 436.43 -889.33 412.27 -922.36 383.93 C-925.05 381.62 -927.76 379.4 -930.62 377.31 C-933.79 378.68 -935.53 380.09 -937.62 382.81 C-938.45 383.88 -938.45 383.88 -939.3 384.98 C-939.88 385.75 -940.46 386.52 -941.06 387.31 C-941.67 388.11 -942.28 388.9 -942.91 389.72 C-948.83 397.49 -954.58 405.38 -960.22 413.35 C-961.17 414.67 -962.13 415.98 -963.1 417.28 C-965.94 420.89 -965.94 420.89 -966.62 425.31 C-964.31 426.97 -964.31 426.97 -961.31 428.5 C-957.07 430.86 -953.16 433.3 -949.31 436.25 C-937.91 444.71 -924.9 450.11 -911.8 455.32 C-909.27 456.33 -906.74 457.35 -904.22 458.37 C-902.61 459.02 -901 459.67 -899.39 460.31 C-898.63 460.62 -897.88 460.92 -897.11 461.23 C-893.48 462.77 -893.48 462.77 -889.62 463.31 C-889.29 463.97 -888.97 464.63 -888.62 465.31 C-886.4 466.25 -884.2 467.08 -881.93 467.88 C-875.21 470.32 -868.56 472.91 -861.95 475.62 C-860.58 476.18 -860.58 476.18 -859.18 476.74 C-855.4 478.29 -851.62 479.83 -847.84 481.38 C-845.04 482.52 -842.24 483.66 -839.45 484.8 C-838.16 485.33 -838.16 485.33 -836.84 485.87 C-836.06 486.2 -835.27 486.52 -834.45 486.85 C-833.76 487.13 -833.07 487.41 -832.35 487.71 C-830.62 488.42 -830.62 488.42 -828.62 488.31 C-828.29 488.97 -827.97 489.63 -827.62 490.31 C-825.49 491.24 -823.31 492.08 -821.12 492.88 C-814.71 495.22 -814.71 495.22 -813.62 496.31 C-813.58 498.31 -813.58 500.31 -813.62 502.31 C-818.74 501.76 -822.91 500.58 -827.64 498.57 C-828.64 498.14 -828.64 498.14 -829.66 497.71 C-831.12 497.1 -832.57 496.48 -834.02 495.86 C-838.02 494.14 -842.04 492.46 -846.05 490.77 C-846.9 490.41 -847.75 490.05 -848.62 489.68 C-857.8 485.8 -867.02 482.04 -876.24 478.28 C-879.06 477.13 -881.88 475.97 -884.7 474.82 C-892.22 471.74 -899.75 468.66 -907.28 465.62 C-926.15 457.98 -942.84 449.87 -959.51 438.17 C-960.23 437.67 -960.95 437.17 -961.69 436.65 C-963.26 435.57 -964.81 434.47 -966.37 433.36 C-969.34 431.98 -970.55 432.23 -973.62 433.31 C-975.59 435.68 -975.59 435.68 -977.16 438.77 C-977.47 439.34 -977.78 439.9 -978.11 440.49 C-979.13 442.36 -980.13 444.24 -981.12 446.12 C-981.83 447.43 -982.53 448.73 -983.24 450.04 C-995.94 472.89 -995.94 472.89 -1004.62 497.31 C-985.28 510.47 -985.28 510.47 -963.62 517.31 C-963.29 517.97 -962.97 518.63 -962.62 519.31 C-960.69 520.11 -958.71 520.82 -956.73 521.48 C-955.53 521.88 -954.32 522.28 -953.09 522.69 C-952.14 522.99 -952.14 522.99 -951.18 523.31 C-949.26 523.93 -947.35 524.57 -945.44 525.21 C-939.16 527.47 -939.16 527.47 -932.62 528.31 C-932.29 528.97 -931.97 529.63 -931.62 530.31 C-929.07 530.7 -929.07 530.7 -926.12 530.81 C-923.09 530.97 -923.09 530.97 -920.62 531.31 C-920.3 531.97 -919.97 532.63 -919.62 533.31 C-917.1 533.91 -917.1 533.91 -913.94 534.25 C-912.04 534.49 -912.04 534.49 -910.11 534.74 C-909.4 534.83 -908.69 534.92 -907.96 535.01 C-905.41 535.34 -902.87 535.7 -900.33 536.07 C-898.45 536.34 -896.57 536.61 -894.69 536.88 C-893.39 537.07 -893.39 537.07 -892.06 537.26 C-877.9 539.23 -863.88 539.43 -849.62 539.22 C-847.51 539.19 -845.4 539.17 -843.29 539.15 C-841.44 539.13 -841.44 539.13 -839.55 539.1 C-836.62 539.31 -836.62 539.31 -834.62 541.31 C-834.5 543.94 -834.5 543.94 -834.62 546.31 C-890.81 553.78 -956.49 537.9 -1003.54 506.61 C-1005.5 505.14 -1005.5 505.14 -1007.62 505.31 C-1013.24 520.29 -1016.99 536.29 -1017.62 552.31 C-1017.66 553.01 -1017.7 553.71 -1017.75 554.44 C-1017.97 561.63 -1017.86 571.84 -1014.62 578.31 C-1012.59 578.94 -1012.59 578.94 -1010.09 579.31 C-1008.67 579.56 -1008.67 579.56 -1007.22 579.81 C-1006.2 579.98 -1005.18 580.14 -1004.12 580.31 C-1003.08 580.49 -1002.03 580.66 -1000.96 580.84 C-943.98 590.17 -882.72 586.79 -827.87 568.41 C-826.99 568.12 -826.1 567.83 -825.2 567.54 C-824.43 567.27 -823.66 567.01 -822.88 566.75 C-820.19 566.23 -818.25 566.63 -815.62 567.31 C-815.62 569.29 -815.62 571.27 -815.62 573.31 C-842.21 581.6 -869.06 588.25 -896.75 591.44 C-897.41 591.51 -898.06 591.59 -898.74 591.67 C-912.34 593.12 -925.95 593.52 -939.62 593.5 C-940.43 593.5 -941.23 593.5 -942.06 593.5 C-960.74 593.47 -979.03 592.03 -997.5 589.28 C-1001.92 588.62 -1006.14 588.15 -1010.62 588.31 C-1005.97 600.9 -997.75 609.43 -985.71 615.24 C-944.15 633.63 -892.89 623.21 -852.07 607.99 C-840.9 603.66 -829.88 599.04 -819.19 593.62 C-818.59 593.31 -817.99 593.01 -817.37 592.7 C-814.51 591.24 -811.67 589.75 -808.83 588.24 C-807.83 587.71 -806.82 587.18 -805.78 586.64 C-804.9 586.16 -804.02 585.69 -803.12 585.2 C-800.15 584.14 -798.61 584.4 -795.62 585.31 C-794.97 585.64 -794.31 585.97 -793.62 586.31 C-792.57 589.48 -792.49 591.86 -792.38 595.19 C-791.33 610.75 -786.78 626.04 -780.62 640.31 C-780.15 641.41 -780.15 641.41 -779.67 642.52 C-769.06 666.7 -754.52 688.71 -737.13 708.54 C-736.01 709.86 -734.92 711.22 -733.84 712.58 C-727.49 720.62 -720.41 727.8 -713.14 735 C-711.06 737.07 -708.98 739.14 -706.91 741.21 C-705.56 742.56 -704.22 743.9 -702.87 745.23 C-702.26 745.84 -701.65 746.45 -701.03 747.08 C-676.68 771.15 -647.78 791.25 -617.62 807.31 C-616.84 807.73 -616.05 808.15 -615.24 808.59 C-596.67 818.44 -577.21 826.19 -557.31 832.94 C-556.62 833.17 -555.93 833.41 -555.22 833.65 C-552.02 834.69 -549.04 835.39 -545.71 835.84 C-544.69 835.99 -543.67 836.15 -542.62 836.31 C-542.3 836.97 -541.96 837.63 -541.62 838.31 C-539.32 838.97 -539.32 838.97 -536.56 839.38 C-535.08 839.62 -535.08 839.62 -533.57 839.88 C-531.05 840.25 -528.53 840.55 -526 840.81 C-524.89 840.98 -523.77 841.14 -522.62 841.31 C-522.3 841.97 -521.96 842.63 -521.62 843.31 C-519.61 843.58 -517.58 843.83 -515.55 844.01 C-512.15 844.36 -508.79 844.89 -505.41 845.43 C-504.05 845.65 -502.68 845.86 -501.32 846.08 C-499.25 846.41 -497.18 846.74 -495.12 847.08 C-473.12 850.68 -451.07 851.7 -428.81 851.62 C-427.67 851.62 -426.53 851.62 -425.35 851.62 C-405.31 851.58 -385.54 850.59 -365.62 848.31 C-363.97 848.13 -363.97 848.13 -362.28 847.94 C-355.71 847.19 -349.17 846.3 -342.62 845.31 C-341.73 845.18 -340.83 845.05 -339.9 844.92 C-310.53 840.64 -281.88 833.3 -253.62 824.31 C-251.82 823.76 -250.02 823.2 -248.22 822.64 C-188.62 803.91 -131.09 772.56 -85.36 729.86 C-82.77 727.45 -80.15 725.1 -77.5 722.75 C-69.69 715.73 -62.43 708.3 -55.62 700.31 C-54.73 699.3 -53.84 698.28 -52.95 697.27 C-32.63 674.05 -15.74 648.24 -2.62 620.31 C-2.33 619.69 -2.04 619.07 -1.74 618.42 C8.86 595.61 16.26 571.78 21.12 547.12 C21.32 546.13 21.52 545.13 21.73 544.11 C24.86 527.47 25.75 510.9 25.69 494 C25.69 493.06 25.69 492.12 25.68 491.15 C25.66 478.06 25.21 465.28 22.76 452.39 C22.38 450.32 22.08 448.25 21.8 446.16 C21.24 441.71 21.24 441.71 20.38 437.31 C19.71 436.98 19.06 436.65 18.38 436.31 C17.75 434.25 17.75 434.25 17.38 432.31 C13.88 435.8 10.4 439.3 6.92 442.8 C5.34 444.39 3.76 445.97 2.18 447.56 C1.11 448.64 0.03 449.72 -1.04 450.81 C-7.05 456.86 -13.07 462.84 -19.62 468.31 C-20.5 469.05 -21.38 469.78 -22.29 470.54 C-25.06 472.8 -27.84 475.06 -30.62 477.31 C-31.77 478.25 -32.92 479.19 -34.07 480.13 C-43.29 487.65 -52.82 494.59 -62.62 501.31 C-63.45 501.88 -64.27 502.45 -65.12 503.04 C-83.41 515.69 -101.36 525.65 -122.62 532.31 C-123.86 532.71 -125.09 533.11 -126.36 533.52 C-155.11 542.34 -188.14 543.28 -217.31 535.94 C-218.52 535.64 -218.52 535.64 -219.76 535.34 C-225.21 533.85 -225.21 533.85 -227.15 531.31 C-227.8 528.58 -227.57 526.95 -226.62 524.31 C-223.1 520.61 -218.88 520.71 -214.06 520.38 C-176.55 517.02 -142.6 500.99 -113.62 477.31 C-113.07 476.86 -112.52 476.41 -111.95 475.95 C-99.59 465.82 -87.77 454.69 -77.62 442.31 C-76.82 441.37 -76.01 440.42 -75.18 439.45 C-68.22 431.15 -62.12 422.32 -56.12 413.31 C-55.73 412.72 -55.34 412.13 -54.93 411.52 C-52.47 407.81 -50.03 404.07 -47.62 400.31 C-47.16 399.6 -46.69 398.89 -46.21 398.16 C-43.83 394.35 -42.83 391.77 -43.62 387.31 C-45.09 383.84 -46.89 380.59 -48.75 377.31 C-49.29 376.35 -49.82 375.39 -50.38 374.4 C-65.31 347.96 -82.78 322.96 -103.44 300.68 C-105.33 298.64 -107.14 296.56 -108.94 294.44 C-116.46 285.79 -124.8 277.63 -133.62 270.31 C-134.14 269.88 -134.65 269.44 -135.18 268.99 C-210.85 204.52 -307.75 189.2 -448.62 271.31 Z M148.38 214.31 C149.38 216.31 149.38 216.31 149.38 216.31 Z M146.38 224.31 C147.38 226.31 147.38 226.31 147.38 226.31 Z M112.34 280.87 C107.9 288.64 107.9 288.64 108 297.31 C108.45 298.3 108.91 299.29 109.38 300.31 C116.61 302.72 124.09 301.8 130.96 298.7 C139.73 293.66 146.26 285.95 149.38 276.31 C149.61 273.58 149.74 270.98 149.75 268.25 C149.79 267.19 149.79 267.19 149.82 266.11 C149.84 262.65 149.64 260.68 147.57 257.86 C144.97 256.03 142.9 255.57 139.72 255.73 C127.14 258.84 118.68 270.45 112.34 280.87 Z M150.38 264.31 C150.38 266.62 150.38 268.93 150.38 271.31 C150.7 271.31 151.04 271.31 151.38 271.31 C151.38 269 151.38 266.69 151.38 264.31 C151.05 264.31 150.71 264.31 150.38 264.31 Z M-36.62 409.31 C-38.18 411.29 -39.7 413.28 -41.19 415.31 C-41.61 415.88 -42.04 416.46 -42.47 417.05 C-43.53 418.47 -44.58 419.89 -45.62 421.31 C-43.74 423.64 -43.74 423.64 -40.59 423.51 C-37.27 423.44 -33.95 423.38 -30.62 423.31 C-32.27 418.69 -33.92 414.07 -35.62 409.31 C-35.96 409.31 -36.28 409.31 -36.62 409.31 Z M-61.62 442.31 C-63.01 444.27 -64.35 446.27 -65.62 448.31 C-61.23 449.88 -61.23 449.88 -56.62 450.31 C-57.17 446.94 -57.68 445.23 -59.62 442.31 C-60.28 442.31 -60.95 442.31 -61.62 442.31 Z M-56.62 450.31 C-56.62 450.97 -56.62 451.63 -56.62 452.31 C-55.63 451.98 -54.64 451.65 -53.62 451.31 C-54.62 450.98 -55.61 450.65 -56.62 450.31 Z M24.38 460.31 C25.38 463.31 25.38 463.31 25.38 463.31 Z M-66.62 462.31 C-66.04 466.73 -64.92 470.46 -63.19 474.56 C-62.76 475.6 -62.32 476.64 -61.88 477.7 C-60.76 480.4 -60.76 480.4 -58.62 482.31 C-58.62 481.65 -58.62 480.99 -58.62 480.31 C-57.78 479.92 -57.78 479.92 -56.92 479.52 C-54.38 478.19 -52.17 476.66 -49.88 474.94 C-49.08 474.35 -48.28 473.77 -47.45 473.16 C-45.16 471.27 -45.16 471.27 -45.62 467.31 C-48.75 466.48 -51.87 465.64 -55 464.81 C-56.33 464.45 -56.33 464.45 -57.7 464.09 C-58.55 463.86 -59.4 463.64 -60.27 463.41 C-61.06 463.2 -61.84 462.99 -62.65 462.77 C-64.61 462.24 -64.61 462.24 -66.62 462.31 Z M-84.57 468.06 C-85.65 469.18 -85.65 469.18 -86.75 470.31 C-87.47 471.06 -88.2 471.8 -88.95 472.56 C-89.5 473.14 -90.05 473.72 -90.62 474.31 C-88.67 476.67 -88.67 476.67 -85.06 476.81 C-83.93 476.98 -82.79 477.14 -81.62 477.31 C-81.29 477.97 -80.97 478.63 -80.62 479.31 C-78.31 480.04 -75.98 480.71 -73.62 481.31 C-75.84 476.25 -78.1 471.23 -80.62 466.31 C-82.81 466.09 -82.81 466.09 -84.57 468.06 Z M25.38 469.31 C26.38 472.31 26.38 472.31 26.38 472.31 Z M26.38 483.31 C26.38 490.24 26.38 497.17 26.38 504.31 C26.7 504.31 27.04 504.31 27.38 504.31 C27.38 497.38 27.38 490.45 27.38 483.31 C27.05 483.31 26.71 483.31 26.38 483.31 Z M-93.62 488.31 C-93.11 492.69 -92.57 497 -91.62 501.31 C-89.92 502.15 -89.92 502.15 -87.62 502.31 C-84.73 500.9 -84.73 500.9 -81.88 498.88 C-80.89 498.22 -79.91 497.56 -78.89 496.88 C-78.14 496.36 -77.4 495.85 -76.62 495.31 C-79.66 492.8 -82.54 491.43 -86.25 490.12 C-87.21 489.78 -88.17 489.44 -89.16 489.08 C-91.51 488.21 -91.51 488.21 -93.62 488.31 Z M-114.25 493.81 C-115.07 494.46 -115.88 495.11 -116.73 495.78 C-117.35 496.29 -117.98 496.79 -118.62 497.31 C-115.61 499.32 -113.41 500.04 -109.94 500.94 C-108.18 501.39 -106.43 501.85 -104.62 502.31 C-105.62 498.35 -106.61 494.39 -107.62 490.31 C-110.62 490.31 -111.95 491.97 -114.25 493.81 Z M-104.62 502.31 C-103.62 504.31 -103.62 504.31 -103.62 504.31 Z M-137.34 509.22 C-138.08 509.63 -138.82 510.04 -139.58 510.46 C-140.38 510.91 -141.18 511.35 -142 511.81 C-151.54 517 -161.35 520.9 -171.55 524.56 C-173.93 525.42 -176.28 526.35 -178.62 527.31 C-178.62 527.64 -178.62 527.97 -178.62 528.31 C-155.92 527.09 -134.03 522.92 -112.62 515.31 C-116.01 512.42 -119.5 511.09 -123.69 509.62 C-125.53 508.97 -125.53 508.97 -127.41 508.3 C-131.64 507 -133.6 507.09 -137.34 509.22 Z M25.38 515.31 C26.38 518.31 26.38 518.31 26.38 518.31 Z M-222.62 521.31 C-222.62 521.64 -222.62 521.97 -222.62 522.31 C-220.64 522.31 -218.66 522.31 -216.62 522.31 C-216.62 521.98 -216.62 521.65 -216.62 521.31 C-218.61 521.31 -220.59 521.31 -222.62 521.31 Z M24.38 525.31 C25.38 528.31 25.38 528.31 25.38 528.31 Z M-165.62 527.31 C-161.62 528.31 -161.62 528.31 -161.62 528.31 Z M-1029.62 536.31 C-1028.62 538.31 -1028.62 538.31 -1028.62 538.31 Z M-873.62 539.31 C-873.62 539.64 -873.62 539.97 -873.62 540.31 C-871.98 540.31 -870.33 540.31 -868.62 540.31 C-868.62 539.98 -868.62 539.65 -868.62 539.31 C-870.27 539.31 -871.92 539.31 -873.62 539.31 Z M-845.62 539.31 C-845.62 539.64 -845.62 539.97 -845.62 540.31 C-843.98 540.31 -842.33 540.31 -840.62 540.31 C-840.62 539.98 -840.62 539.65 -840.62 539.31 C-842.27 539.31 -843.92 539.31 -845.62 539.31 Z M22.38 539.31 C23.38 541.31 23.38 541.31 23.38 541.31 Z M-985.62 583.31 C-981.62 584.31 -981.62 584.31 -981.62 584.31 Z M-961.62 585.31 C-961.62 585.64 -961.62 585.97 -961.62 586.31 C-959.98 586.31 -958.33 586.31 -956.62 586.31 C-956.62 585.98 -956.62 585.65 -956.62 585.31 C-958.27 585.31 -959.92 585.31 -961.62 585.31 Z M-924.62 585.31 C-924.62 585.64 -924.62 585.97 -924.62 586.31 C-922.64 586.31 -920.66 586.31 -918.62 586.31 C-918.62 585.98 -918.62 585.65 -918.62 585.31 C-920.61 585.31 -922.59 585.31 -924.62 585.31 Z M-950.62 624.31 C-950.62 624.64 -950.62 624.97 -950.62 625.31 C-948.64 625.31 -946.66 625.31 -944.62 625.31 C-944.62 624.98 -944.62 624.65 -944.62 624.31 C-946.61 624.31 -948.59 624.31 -950.62 624.31 Z M-927.62 624.31 C-927.62 624.64 -927.62 624.97 -927.62 625.31 C-925.32 625.31 -923 625.31 -920.62 625.31 C-920.62 624.98 -920.62 624.65 -920.62 624.31 C-922.93 624.31 -925.25 624.31 -927.62 624.31 Z M-472.62 850.31 C-472.62 850.64 -472.62 850.97 -472.62 851.31 C-470.98 851.31 -469.33 851.31 -467.62 851.31 C-467.62 850.98 -467.62 850.65 -467.62 850.31 C-469.27 850.31 -470.92 850.31 -472.62 850.31 Z M-387.62 850.31 C-387.62 850.64 -387.62 850.97 -387.62 851.31 C-385.64 851.31 -383.66 851.31 -381.62 851.31 C-381.62 850.98 -381.62 850.65 -381.62 850.31 C-383.61 850.31 -385.59 850.31 -387.62 850.31 Z M-458.62 851.31 C-454.62 852.31 -454.62 852.31 -454.62 852.31 Z M-401.62 851.31 C-401.62 851.64 -401.62 851.97 -401.62 852.31 C-399.98 852.31 -398.33 852.31 -396.62 852.31 C-396.62 851.98 -396.62 851.65 -396.62 851.31 C-398.27 851.31 -399.92 851.31 -401.62 851.31 Z " fill="#373A3D" transform="translate(1051.625,205.6875)"/>
<path d="M0 0 C0 0.66 0 1.32 0 2 C0.64 2.31 1.28 2.62 1.94 2.94 C4 4 4 4 5 5 C5.4 8.61 5.34 10.46 3.38 13.57 C2.64 14.41 1.89 15.26 1.12 16.12 C-0.12 17.57 -0.12 17.57 -1.38 19.04 C-2.25 20.01 -3.11 20.99 -4 22 C-16.35 36.33 -27.18 51.54 -36.74 67.86 C-37.56 69.24 -38.38 70.63 -39.2 72.01 C-51.07 91.8 -60.67 113.85 -63 137 C-63.08 137.74 -63.17 138.48 -63.25 139.24 C-64.03 152.53 -58.24 166.41 -50.31 176.75 C-43.28 184.34 -33.77 188.18 -24.29 191.74 C-21 193 -21 193 -19.06 194.11 C-5.69 199.91 16.31 197.52 29.6 192.54 C68.5 174.9 90.03 133.26 104.68 95.27 C107.41 88 109.94 80.65 112.31 73.26 C115.1 64.82 115.1 64.82 119 62 C121.5 61.5 121.5 61.5 124 62 C126.31 63.56 126.31 63.56 128 66 C128.56 72.02 127.07 76.84 125.12 82.44 C124.81 83.34 124.5 84.25 124.18 85.19 C111.61 121.2 94.41 154.26 68 182 C67.27 182.79 66.55 183.58 65.8 184.4 C50.53 200.51 30.03 211.07 7.73 212.16 C-16.24 212.74 -38.55 204.74 -56.76 189.17 C-57.5 188.46 -58.24 187.74 -59 187 C-59 186.34 -59 185.68 -59 185 C-59.66 185 -60.32 185 -61 185 C-67.17 177.62 -72.79 169.88 -74.51 160.31 C-74.96 157.9 -74.96 157.9 -76.04 155.34 C-79.54 143.19 -77.38 127.91 -74 116 C-73.79 115.25 -73.58 114.5 -73.36 113.72 C-65.83 87.52 -52.49 63.3 -37 41 C-36.5 40.28 -36 39.55 -35.48 38.81 C-28.56 28.91 -21.31 19.48 -13.29 10.46 C-11.46 8.39 -9.67 6.29 -7.88 4.19 C-5.27 1.15 -4.17 0 0 0 Z M-75 124 C-74 126 -74 126 -74 126 Z M-76 131 C-75 133 -75 133 -75 133 Z M-3 198 C-3 198.33 -3 198.66 -3 199 C1.62 199 6.24 199 11 199 C11 198.67 11 198.34 11 198 C6.38 198 1.76 198 -3 198 Z " fill="#373A3D" transform="translate(580,761)"/>
<path d="M0 0 C1.88 1.19 1.88 1.19 3 3 C3.46 5.75 3.46 5.75 3 9 C0.93 11.24 -0.94 12.96 -3.31 14.81 C-4.27 15.6 -4.27 15.6 -5.25 16.4 C-7.16 17.95 -9.07 19.48 -11 21 C-27.39 34.1 -43.54 48.72 -57.12 64.78 C-58.68 66.63 -60.27 68.44 -61.88 70.25 C-71.11 80.68 -79.45 91.61 -87.54 102.94 C-88.12 103.76 -88.71 104.59 -89.32 105.43 C-90.46 107.03 -91.59 108.63 -92.72 110.24 C-93.24 110.96 -93.75 111.68 -94.29 112.43 C-94.74 113.07 -95.19 113.71 -95.66 114.37 C-97 116 -97 116 -100 118 C-103.57 117.85 -105.52 117.34 -108.44 115.25 C-110 113 -110 113 -109.93 110.84 C-108.6 106.77 -106.27 103.69 -103.75 100.25 C-103.22 99.51 -102.68 98.77 -102.13 98 C-100.43 95.66 -98.72 93.33 -97 91 C-96.46 90.27 -95.91 89.53 -95.35 88.77 C-87.96 78.84 -80.2 69.28 -72 60 C-71.25 59.15 -70.51 58.31 -69.74 57.44 C-67.52 54.94 -65.26 52.47 -63 50 C-62.5 49.45 -62.01 48.91 -61.49 48.34 C-14.35 -3.52 -14.35 -3.52 0 0 Z " fill="#373A3D" transform="translate(583,547)"/>
<path d="M0 0 C3.85 1.88 3.85 1.88 5.56 4.25 C5.98 7.02 6.25 9.66 6.44 12.44 C7.56 24.87 10.38 38.39 18.56 48.25 C25.64 52.92 33.31 52.79 41.56 52.25 C48.1 50.31 52.59 44.87 55.79 39 C59.2 31.1 60.76 22.52 62.05 14.05 C63.16 6.83 63.16 6.83 65.38 3.62 C67.92 2.03 69.55 1.33 72.56 1.25 C74.69 2.36 74.69 2.36 76.56 4.25 C79.39 18.91 73.31 37.85 65.75 50.22 C59.93 58.69 53.58 64.51 43.56 67.25 C40.4 67.67 37.31 67.73 34.12 67.69 C33.29 67.68 32.45 67.67 31.58 67.66 C25.51 67.5 20.62 66.85 15.56 63.25 C14.89 62.79 14.23 62.32 13.54 61.85 C-1.58 50 -5.66 31.22 -8.44 13.25 C-9.34 5.45 -9.34 5.45 -6.56 1.75 C-2.84 -0.88 -2.84 -0.88 0 0 Z M-7.44 9.25 C-6.44 13.25 -6.44 13.25 -6.44 13.25 Z M63.56 9.25 C64.56 12.25 64.56 12.25 64.56 12.25 Z M62.56 17.25 C63.56 20.25 63.56 20.25 63.56 20.25 Z M-6.44 18.25 C-5.44 20.25 -5.44 20.25 -5.44 20.25 Z " fill="#373A3D" transform="translate(757.4375,543.75)"/>
<path d="M0 0 C3.94 1.66 3.94 1.66 5.38 4 C6.58 26 -9.19 48.92 -22.62 65 C-23.14 65.64 -23.65 66.28 -24.18 66.93 C-33.69 78.5 -33.69 78.5 -39.94 79.56 C-42.62 79 -42.62 79 -45.62 77 C-45.62 76.34 -45.62 75.68 -45.62 75 C-46.28 75 -46.95 75 -47.62 75 C-47.25 69.52 -45.55 67.42 -41.56 63.75 C-40.55 62.79 -39.54 61.82 -38.54 60.85 C-38.04 60.37 -37.54 59.89 -37.03 59.4 C-23.34 45.79 -15.11 28.44 -9.5 10.25 C-7.86 5.18 -6.14 0 0 0 Z " fill="#373A3D" transform="translate(1026.625,785)"/>
<path d="M0 0 C4.56 0.56 4.56 0.56 6 2 C6.95 8.16 4.03 11.81 0.75 16.69 C-0.36 18.39 -1.47 20.09 -2.57 21.79 C-3.14 22.65 -3.71 23.52 -4.3 24.41 C-6.95 28.44 -9.5 32.54 -12.06 36.62 C-16.06 42.95 -20.07 49.27 -24.12 55.56 C-24.82 56.64 -24.82 56.64 -25.52 57.75 C-27.21 60.36 -28.79 62.79 -31 65 C-33.5 64.94 -33.5 64.94 -36 64 C-37.48 61.98 -37.48 61.98 -38 59 C-36.71 55.86 -34.79 53.17 -32.88 50.38 C-31.75 48.66 -30.62 46.95 -29.49 45.24 C-28.91 44.37 -28.33 43.5 -27.73 42.6 C-25.08 38.61 -22.54 34.56 -20 30.5 C-19.01 28.94 -18.03 27.38 -17.04 25.82 C-14.9 22.43 -12.77 19.04 -10.65 15.65 C-10.1 14.78 -9.55 13.91 -8.99 13.01 C-7.93 11.33 -6.88 9.65 -5.83 7.96 C-5.36 7.21 -4.89 6.46 -4.4 5.68 C-3.98 5.02 -3.57 4.35 -3.14 3.67 C-2 2 -2 2 0 0 Z " fill="#373A3D" transform="translate(575,829)"/>
<path d="M0 0 C1.91 0.81 3.52 1.52 5 3 C5.36 6.04 5.29 7.55 3.6 10.15 C2.95 10.88 2.3 11.62 1.62 12.38 C-11.57 28.16 -20.94 46.63 -30 65 C-32.88 65.12 -32.88 65.12 -36 65 C-36.66 64.34 -37.32 63.68 -38 63 C-35.9 42.98 -18.12 21.46 -6 6 C-4.95 4.63 -4.95 4.63 -3.87 3.23 C-2 1 -2 1 0 0 Z " fill="#373A3D" transform="translate(601,839)"/>
<path d="M0 0 C2.48 1.49 2.48 1.49 5 3 C4.49 7.89 3.52 11.55 1.23 15.89 C0.65 16.98 0.08 18.08 -0.51 19.2 C-1.12 20.35 -1.74 21.5 -2.38 22.69 C-3.01 23.88 -3.64 25.08 -4.27 26.28 C-19.94 55.94 -19.94 55.94 -22 58 C-24.38 58.25 -24.38 58.25 -27 58 C-28.81 56.5 -28.81 56.5 -30 55 C-28.33 49.09 -25.48 43.9 -22.62 38.5 C-21.84 37 -21.84 37 -21.03 35.47 C-19.36 32.31 -17.68 29.16 -16 26 C-15.17 24.44 -15.17 24.44 -14.33 22.84 C-12.73 19.83 -11.12 16.82 -9.5 13.81 C-8.76 12.42 -8.76 12.42 -8.01 11.01 C-5.73 6.81 -3.72 3.12 0 0 Z " fill="#373A3D" transform="translate(621,855)"/>
<path d="M0 0 C1.14 0.01 1.14 0.01 2.3 0.02 C8.33 0.18 13.53 0.75 18.36 4.76 C19.69 6.38 19.69 6.38 20.06 9.88 C19.69 13.38 19.69 13.38 18.69 15.38 C15.4 17.02 12.17 15.97 8.69 15.38 C7.04 15.17 5.4 14.98 3.75 14.81 C2.91 14.72 2.07 14.63 1.21 14.54 C-1.28 14.38 -3.63 14.51 -6.12 14.69 C-8.79 14.75 -9.88 14.72 -11.98 13.04 C-13.38 11.38 -13.38 11.38 -15.31 8.38 C-14.42 5.37 -13.73 3.7 -11.25 1.73 C-7.47 -0.01 -4.08 -0.08 0 0 Z " fill="#373A3D" transform="translate(1113.3125,437.625)"/>
<path d="M0 0 C0.84 0.16 1.68 0.32 2.55 0.49 C6.26 1.29 9.53 2.02 12 5 C12.75 11 12.75 11 10.73 13.7 C6.45 16.92 -0.08 15.16 -5.07 14.46 C-6.51 14.23 -7.94 13.99 -9.38 13.75 C-10.06 13.64 -10.75 13.53 -11.47 13.42 C-15.8 12.61 -18.36 11.59 -21 8 C-21.17 4.02 -20.43 2.49 -17.81 -0.5 C-12.52 -3.6 -5.62 -1.16 0 0 Z " fill="#373A3D" transform="translate(1107,482)"/>
<path d="M0 0 C2.8 0.91 3.92 1.32 5.5 3.81 C5.92 7.07 6.17 9.64 4.5 12.57 C3.11 14.34 1.66 15.98 0.12 17.62 C-0.38 18.2 -0.89 18.77 -1.41 19.36 C-7.14 25.77 -7.14 25.77 -10.88 26.25 C-14.5 25.81 -14.5 25.81 -17 23.62 C-18.5 20.81 -18.5 20.81 -18.46 18.59 C-17.05 14.52 -14.46 11.81 -11.62 8.62 C-10.81 7.68 -10.81 7.68 -9.98 6.72 C-3.85 -0.29 -3.85 -0.29 0 0 Z " fill="#373A3D" transform="translate(1118.5,520.1875)"/>
<path d="M0 0 C1.55 1.47 1.55 1.47 2.88 3.5 C6.19 8.32 9.86 12.86 14 17 C14.46 22.24 14.46 22.24 12.88 24.88 C10.13 26.52 8.16 26.28 5 26 C-1.29 22.15 -6.92 15.71 -10 9 C-10.12 5.62 -10.12 5.62 -9 3 C-6.19 -0.01 -4.03 -0.46 0 0 Z " fill="#373A3D" transform="translate(1212,538)"/>
<path d="M0 0 C2.53 1.02 4.8 2.05 7.19 3.31 C8.11 3.78 8.11 3.78 9.05 4.25 C14.96 7.29 14.96 7.29 17 10 C17.39 13.12 17.5 15.11 15.94 17.88 C12.9 19.64 10.48 19.25 7 19 C4.27 18.14 1.75 16.96 -0.81 15.69 C-1.48 15.38 -2.15 15.07 -2.83 14.75 C-6.2 13.14 -7.89 12.17 -10 9 C-10.38 6 -10.38 6 -10 3 C-7.03 -0.42 -4.34 -0.36 0 0 Z " fill="#373A3D" transform="translate(1248,504)"/>
<path d="M0 0 C2.31 1.56 2.31 1.56 4 4 C5.17 10.86 2.31 17.6 0 24 C-1 25 -1 25 -4.81 25.31 C-7.8 25.25 -8.91 25.05 -11.56 23.5 C-13.68 19.81 -13.03 16.93 -12 13 C-7.76 -1.14 -7.76 -1.14 0 0 Z " fill="#373A3D" transform="translate(1168,540)"/>
<path d="M0 0 C2.5 1.25 2.5 1.25 4.5 4.25 C5.06 8.57 4.98 10.55 2.5 14.19 C-1.67 17.05 -3.51 17.04 -8.5 16.25 C-11.06 14.06 -11.06 14.06 -12.5 11.25 C-12.69 8.81 -12.69 8.81 -11.5 6.25 C-4.19 -1.26 -4.19 -1.26 0 0 Z " fill="#373A3D" transform="translate(619.5,525.75)"/>
<path d="M0 0 C1.81 1.12 1.81 1.12 3 3 C3.63 8.91 3.63 8.91 1.88 11.94 C-0.94 13.53 -2.83 13.45 -6 13 C-8.44 11.44 -8.44 11.44 -10 9 C-10 5.15 -9.82 2.93 -7.25 0 C-4.33 -1.3 -2.98 -1.07 0 0 Z " fill="#373A3D" transform="translate(954,889)"/>
<path d="M0 0 C1.98 0 3.96 0 6 0 C6 0.33 6 0.66 6 1 C4.02 1 2.04 1 0 1 C0 0.67 0 0.34 0 0 Z " fill="#373A3D" transform="translate(148,546)"/>
<path d="M0 0 C0.33 0 0.66 0 1 0 C1 1.98 1 3.96 1 6 C0.67 6 0.34 6 0 6 C0 4.02 0 2.04 0 0 Z " fill="#373A3D" transform="translate(1145,499)"/>
<path d="" fill="#373A3D" transform="translate(0,0)"/>
<path d="" fill="#373A3D" transform="translate(0,0)"/>
<path d="" fill="#373A3D" transform="translate(0,0)"/>
<path d="" fill="#373A3D" transform="translate(0,0)"/>
<path d="" fill="#373A3D" transform="translate(0,0)"/>
<path d="" fill="#373A3D" transform="translate(0,0)"/>
<path d="" fill="#373A3D" transform="translate(0,0)"/>
<path d="" fill="#373A3D" transform="translate(0,0)"/>
</g>
</svg>
