<?xml version='1.0' encoding='UTF-8'?>
<svg xmlns="http://www.w3.org/2000/svg" width="297" height="210" viewBox="0 0 297 210">
  <rect x="0" y="0" width="297" height="210" fill="white"/>
  <g transform="translate(103.86875,31.0) scale(0.115625)"><path d="M0 0 C5.46 0.73 10.73 2.01 16.04 3.44 C17.03 3.7 18.02 3.96 19.03 4.23 C22.22 5.07 25.41 5.93 28.6 6.79 C29.69 7.08 30.78 7.37 31.91 7.67 C66.26 16.89 99.72 27.29 131.78 42.97 C146.9 50.23 159.12 48.75 175.22 45.41 C191.9 41.97 207.86 40.47 224.85 40.54 C225.77 40.54 226.69 40.54 227.64 40.54 C248.99 40.61 269.38 42.93 290.32 47.22 C304.18 50 312.99 48.71 325.47 42.29 C358.59 25.33 395.25 15.9 431.01 6.32 C434.64 5.35 438.26 4.35 441.88 3.32 C443.57 2.84 445.27 2.37 446.96 1.9 C448.1 1.57 448.1 1.57 449.26 1.22 C454.08 -0.1 457.57 -0.19 462.47 0.85 C464.91 6.82 465.32 12.99 465.97 19.35 C466.15 20.93 466.15 20.93 466.33 22.55 C468.75 45.54 469.83 68.53 469.79 91.64 C469.79 95.48 469.81 99.33 469.83 103.17 C469.88 123.14 468.09 142.65 465.29 162.41 C463.82 173.38 464.3 180.67 468.67 190.93 C480.35 218.93 486.69 247.98 486.66 278.35 C486.66 279.05 486.66 279.76 486.66 280.49 C486.66 290.26 486.3 299.87 484.91 309.55 C484.54 312.38 484.44 315 484.47 317.85 C485.42 317.6 486.36 317.35 487.33 317.1 C490.84 316.18 494.36 315.28 497.87 314.38 C499.39 313.99 500.91 313.59 502.42 313.19 C504.61 312.62 506.8 312.06 508.98 311.5 C510 311.23 510 311.23 511.03 310.96 C514.85 310 517.68 309.72 521.47 310.85 C521.47 312.5 521.47 314.15 521.47 315.85 C519.85 316.36 518.22 316.87 516.6 317.37 C515.17 317.82 513.74 318.27 512.31 318.72 C508.58 319.89 504.84 321.04 501.09 322.15 C500.39 322.37 499.69 322.58 498.97 322.79 C497.01 323.38 495.05 323.96 493.09 324.54 C485.66 327.16 485.66 327.16 480.7 333.08 C480.09 334.95 480.09 334.95 479.47 336.85 C479.25 337.51 479.03 338.18 478.8 338.86 C478.12 340.93 477.48 343.01 476.85 345.1 C476.42 346.5 475.99 347.9 475.56 349.3 C475.2 350.47 474.84 351.64 474.47 352.85 C474.14 353.84 473.81 354.83 473.47 355.85 C474.14 355.84 474.81 355.84 475.5 355.84 C482.46 355.79 489.42 355.76 496.38 355.74 C498.98 355.73 501.58 355.72 504.18 355.7 C507.91 355.67 511.64 355.66 515.37 355.65 C516.53 355.64 517.7 355.63 518.9 355.62 C519.98 355.62 521.06 355.62 522.18 355.62 C523.13 355.62 524.08 355.61 525.06 355.61 C527.47 355.85 527.47 355.85 530.47 357.85 C530.14 359.17 529.81 360.49 529.47 361.85 C524.79 362.76 520.23 363.01 515.47 363.06 C513.91 363.09 512.35 363.12 510.78 363.15 C508.36 363.19 505.93 363.22 503.51 363.25 C484.72 363 484.72 363 468.47 370.85 C465.54 374.64 463.56 378.52 461.9 383 C461.63 383.72 461.36 384.44 461.09 385.18 C460.89 385.73 460.68 386.28 460.47 386.85 C466.2 388.25 471.92 389.63 477.65 391.01 C479.59 391.48 481.53 391.95 483.47 392.43 C506.65 398.62 506.65 398.62 530.22 397.35 C556.92 391.71 589.67 395.93 613.74 409 C618.98 412.55 621.47 416.49 623.91 422.22 C624.96 428.96 624.56 435.43 620.77 441.25 C616.6 446.38 611.86 450.05 605.25 451.26 C596.13 451.61 588.08 448.37 579.56 445.53 C560.8 439.41 539.33 440.77 521.47 448.85 C499.2 461.37 489.52 484.36 482.88 507.79 C482.06 510.8 481.26 513.82 480.47 516.85 C480.28 517.6 480.08 518.34 479.87 519.11 C474.29 541.22 476.56 567.15 479.24 589.58 C479.72 594.24 479.86 598.93 479.96 603.61 C480.04 607.31 480.04 607.31 481.77 610.44 C483.52 611.89 485.05 612.73 487.13 613.61 C487.84 613.92 488.55 614.23 489.27 614.55 C490.02 614.88 490.77 615.2 491.54 615.54 C498.72 618.81 504.67 622.42 510.47 627.85 C511.32 628.62 512.17 629.39 513.05 630.19 C524.35 640.89 530.78 653.74 535.22 668.47 C535.54 669.51 535.54 669.51 535.86 670.57 C544.06 699.03 536.38 729.89 522.85 755.3 C518.49 763.17 513.51 770.18 507.47 776.85 C506.97 777.41 506.47 777.96 505.95 778.53 C488.45 797.58 464.02 812.98 437.64 814.18 C426.41 814.47 416.36 813.59 405.47 810.85 C402.27 810.21 400.78 810.2 397.47 810.85 C395.7 812.64 394.4 814.52 393.02 816.62 C388.1 823.72 380.65 828.36 372.47 830.85 C362.94 832.44 353.1 832.03 343.47 832.05 C342.57 832.06 341.66 832.06 340.73 832.06 C335.95 832.08 331.16 832.09 326.38 832.09 C321.46 832.1 316.55 832.12 311.63 832.15 C307.83 832.17 304.02 832.17 300.22 832.17 C298.4 832.18 296.59 832.18 294.78 832.2 C280.4 832.29 269.15 831.16 257.47 821.85 C249.09 813.36 245.4 804.44 243.47 792.85 C235.29 789.71 227.67 789.39 218.97 789.47 C217.72 789.46 216.46 789.45 215.17 789.44 C207.77 789.46 201.41 790.19 194.47 792.85 C194.38 793.57 194.29 794.29 194.2 795.03 C192.79 805.38 188.7 814.86 180.95 822.03 C171.62 828.88 162.43 831.99 150.93 832.03 C150.08 832.03 149.23 832.04 148.35 832.05 C145.55 832.07 142.74 832.08 139.94 832.09 C138.49 832.09 138.49 832.09 137.02 832.1 C131.92 832.12 126.83 832.14 121.73 832.14 C116.49 832.16 111.25 832.19 106.01 832.23 C101.96 832.26 97.91 832.26 93.86 832.27 C91.93 832.27 90 832.28 88.07 832.3 C72.22 832.45 59.77 830.86 47.47 819.85 C45.24 817.31 43.28 814.71 41.47 811.85 C40.28 811.99 39.08 812.14 37.85 812.29 C37.18 812.37 36.5 812.45 35.81 812.53 C34.18 812.75 32.55 813.04 30.94 813.36 C4 817.13 -22.45 810.51 -44.43 794.46 C-70.39 774.2 -88.78 744.67 -93.53 711.85 C-95.06 682.78 -92.14 656.77 -72.53 633.85 C-71.91 633.12 -71.3 632.4 -70.67 631.65 C-57.61 617.45 -38.11 609.55 -19.1 608.56 C-6.46 608.19 5.77 609.83 17.47 614.85 C17.6 613.7 17.73 612.55 17.86 611.36 C18.4 607.06 19.27 602.9 20.25 598.69 C20.43 597.92 20.61 597.14 20.79 596.35 C21.17 594.67 21.56 593 21.94 591.33 C22.56 588.66 23.18 585.98 23.79 583.31 C25.53 575.7 27.28 568.09 29.03 560.49 C45.27 503.15 45.27 503.15 41.29 445.6 C39.27 442.53 36.99 440.21 34.35 437.68 C31.18 434.59 28.35 431.21 25.47 427.85 C24.64 426.9 23.8 425.95 22.94 424.98 C17.33 418.56 12.35 412.05 8 404.7 C6.22 401.83 4.8 400.03 1.81 398.42 C-6.83 396.94 -14.72 398.21 -23.21 400.04 C-24.29 400.26 -25.36 400.48 -26.47 400.71 C-32.02 401.86 -37.56 403.08 -43.09 404.33 C-44.13 404.56 -45.17 404.8 -46.24 405.04 C-48.22 405.49 -50.2 405.94 -52.18 406.41 C-53.07 406.62 -53.97 406.82 -54.89 407.03 C-55.66 407.21 -56.44 407.39 -57.24 407.58 C-59.88 407.89 -61.96 407.49 -64.53 406.85 C-64.86 405.86 -65.19 404.87 -65.53 403.85 C-65.2 403.19 -64.87 402.53 -64.53 401.85 C-61.64 400.89 -58.78 400.06 -55.84 399.29 C-54.91 399.04 -53.98 398.79 -53.02 398.53 C-36.94 394.3 -20.72 390.62 -4.53 386.85 C-4.53 382.38 -6.63 379.2 -8.65 375.29 C-9.22 374.12 -9.22 374.12 -9.8 372.92 C-12.19 368.29 -12.19 368.29 -16.39 365.38 C-22.89 364.27 -29.14 363.69 -35.71 363.6 C-37.48 363.57 -39.25 363.54 -41.02 363.5 C-43.78 363.46 -46.54 363.41 -49.29 363.37 C-51.98 363.33 -54.66 363.28 -57.34 363.23 C-58.16 363.22 -58.97 363.21 -59.81 363.2 C-64.73 363.1 -68.85 362.41 -73.53 360.85 C-73.53 359.53 -73.53 358.21 -73.53 356.85 C-70.53 355.85 -68.45 355.7 -65.32 355.64 C-64.26 355.62 -63.2 355.6 -62.11 355.58 C-60.39 355.56 -60.39 355.56 -58.64 355.53 C-56.88 355.5 -56.88 355.5 -55.09 355.47 C-51.34 355.4 -47.59 355.35 -43.84 355.29 C-41.3 355.24 -38.76 355.2 -36.22 355.16 C-29.99 355.05 -23.76 354.95 -17.53 354.85 C-18.43 351.79 -19.36 348.74 -20.29 345.69 C-20.54 344.83 -20.8 343.97 -21.06 343.08 C-23.33 335.7 -26.32 329.66 -33.37 325.85 C-39.52 322.93 -45.87 321.31 -52.46 319.72 C-54.52 319.23 -56.57 318.73 -58.62 318.22 C-59.51 318 -60.41 317.79 -61.33 317.56 C-63.53 316.85 -63.53 316.85 -65.53 314.85 C-65.15 312.72 -65.15 312.72 -64.53 310.85 C-60.46 309.22 -56.77 310.49 -52.7 311.5 C-51.95 311.68 -51.2 311.86 -50.43 312.04 C-48.04 312.62 -45.66 313.2 -43.28 313.79 C-41.66 314.18 -40.04 314.57 -38.42 314.96 C-34.45 315.91 -30.49 316.88 -26.53 317.85 C-26.66 317.23 -26.79 316.61 -26.93 315.98 C-27.19 314.71 -27.19 314.71 -27.46 313.41 C-27.64 312.59 -27.81 311.76 -27.99 310.92 C-29.22 303.91 -29.7 296.95 -29.77 289.85 C-29.77 289.01 -29.78 288.18 -29.79 287.32 C-29.96 269.14 -29.78 251.63 -25.53 233.85 C-25.31 232.89 -25.09 231.93 -24.86 230.94 C-21.34 215.72 -16.75 200.82 -10.09 186.66 C-4.86 173.25 -9.63 156.13 -11.55 142.34 C-13.42 128.42 -13.8 114.62 -13.84 100.6 C-13.84 99.58 -13.85 98.57 -13.85 97.52 C-13.87 79.37 -12.95 61.33 -11.65 43.22 C-11.56 42 -11.48 40.79 -11.39 39.53 C-8.85 4.6 -8.85 4.6 -6.27 1.19 C-3.95 -0.59 -2.86 -0.37 0 0 Z M-1.53 6.85 C-6.58 56.88 -9.89 107.12 -2.45 157.09 C-0.42 171.2 -0.49 182.75 -6.53 195.85 C-13.19 211.38 -20.53 229.75 -20.53 246.85 C14.61 247.55 14.61 247.55 49.47 243.85 C50.58 243.66 51.68 243.46 52.82 243.26 C77.8 238.73 101.71 231.08 124.47 219.85 C125.38 219.41 126.29 218.97 127.22 218.51 C150.92 206.87 172.56 192.4 191.81 174.32 C193.97 172.32 196.15 170.42 198.41 168.54 C228.62 142.13 250.34 103.52 263.04 65.91 C263.38 64.89 263.73 63.86 264.09 62.81 C264.4 61.84 264.72 60.88 265.04 59.88 C265.32 59.03 265.6 58.18 265.88 57.3 C266.5 54.73 266.58 52.48 266.47 49.85 C254.3 47.98 242.4 47.49 230.1 47.54 C229.18 47.54 228.26 47.54 227.31 47.54 C203.35 47.62 178.38 49.21 155.47 56.85 C149.85 57.38 146.1 56.92 140.9 54.68 C139.85 54.22 138.79 53.77 137.7 53.3 C133.66 51.49 129.65 49.61 125.65 47.7 C115.24 42.76 104.74 38.21 93.97 34.1 C92.91 33.69 91.85 33.28 90.75 32.85 C69.11 24.75 46.74 18.94 24.35 13.35 C21.82 12.71 19.29 12.07 16.75 11.44 C10.66 9.9 4.57 8.37 -1.53 6.85 Z M442.98 10.16 C442.04 10.4 441.11 10.64 440.15 10.89 C437.11 11.68 434.07 12.48 431.04 13.29 C430 13.56 428.96 13.83 427.89 14.11 C393.11 23.28 359.46 33.81 326.92 49.32 C313.76 55.55 303.63 56.86 289.31 54.31 C284.46 53.52 280.3 53.08 275.66 55.04 C270.69 59.15 269.24 65.12 267.29 71.04 C257.59 99.41 243.3 125.54 224.47 148.85 C224.05 149.37 223.64 149.9 223.2 150.43 C209.9 166.93 194.68 182.45 177.47 194.85 C176.38 195.67 175.3 196.48 174.21 197.3 C164.44 204.58 154.04 210.82 143.47 216.85 C142.65 217.32 141.83 217.79 140.98 218.28 C90.3 246.88 36.57 253.13 -20.53 253.85 C-22.17 256.74 -22.78 258.82 -22.79 262.14 C-22.79 262.97 -22.8 263.81 -22.8 264.68 C-22.8 265.58 -22.8 266.48 -22.79 267.41 C-22.79 268.35 -22.8 269.29 -22.8 270.26 C-22.8 272.25 -22.8 274.24 -22.79 276.24 C-22.78 279.24 -22.79 282.25 -22.8 285.26 C-23.85 302.81 -23.85 302.81 -17.9 318.35 C-11.96 322.45 -4.41 323.97 2.47 325.85 C4.15 326.32 5.84 326.8 7.52 327.27 C11.83 328.49 16.15 329.67 20.47 330.85 C20.8 332.5 21.13 334.15 21.47 335.85 C11.14 334.2 1.03 332.11 -9.1 329.48 C-10.31 329.16 -10.31 329.16 -11.55 328.84 C-12.63 328.55 -12.63 328.55 -13.73 328.26 C-15.55 327.77 -15.55 327.77 -17.53 327.85 C-16.16 334.83 -14.7 341.77 -12.71 348.6 C-12.44 349.56 -12.17 350.53 -11.88 351.52 C-10.69 354.06 -10.69 354.06 -7.98 355.14 C-3.69 356.02 0.48 356.31 4.85 356.47 C5.68 356.51 6.51 356.55 7.37 356.59 C9.4 356.69 11.44 356.77 13.47 356.85 C13.47 358.5 13.47 360.15 13.47 361.85 C6.87 362.18 0.27 362.51 -6.53 362.85 C-2.54 374.2 -2.54 374.2 5.2 383.05 C8.36 384.16 10.91 383.81 14.22 383.47 C15.39 383.36 16.56 383.25 17.77 383.14 C18.66 383.04 19.55 382.95 20.47 382.85 C20.8 384.17 21.13 385.49 21.47 386.85 C15.04 388.83 15.04 388.83 8.47 390.85 C15.15 407.53 29.17 422.03 41.47 434.85 C42.73 436.3 42.73 436.3 44.01 437.78 C46.25 440.11 46.25 440.11 48.88 439.85 C81.25 427.35 110.56 400.91 131.47 373.85 C132.05 373.16 132.63 372.46 133.23 371.75 C138.54 365.32 142.85 358.57 147.1 351.41 C163.3 324.52 183.64 294.84 215.76 286.24 C234.47 283.57 250.96 287.86 266.35 298.92 C283.75 312.73 295.48 329.39 307.04 348.12 C314.92 360.88 323.63 372.55 333.47 383.85 C334.06 384.55 334.66 385.26 335.27 385.98 C352.41 406.21 373.6 421.69 396.47 434.85 C397.54 435.5 398.61 436.14 399.71 436.81 C400.68 437.38 401.66 437.95 402.66 438.54 C403.5 439.04 404.34 439.53 405.2 440.05 C407.42 441.08 407.42 441.08 409.48 440.27 C417.77 434.35 424.24 425.8 430.47 417.85 C430.88 417.33 431.29 416.82 431.71 416.29 C437.7 408.72 443.24 400.97 448.47 392.85 C447.65 390.64 447.65 390.64 445.29 390 C444.4 389.74 443.51 389.49 442.6 389.22 C441.27 388.83 441.27 388.83 439.92 388.44 C437.41 387.73 437.41 387.73 434.47 387.85 C434.47 386.2 434.47 384.55 434.47 382.85 C435.9 383.01 435.9 383.01 437.36 383.17 C439.24 383.35 439.24 383.35 441.16 383.54 C443.02 383.73 443.02 383.73 444.92 383.92 C448.87 383.84 450.41 383.28 453.47 380.85 C458.08 375.56 460.66 369.56 462.47 362.85 C461.44 362.79 460.4 362.73 459.33 362.67 C457.96 362.58 456.59 362.5 455.22 362.41 C454.2 362.35 454.2 362.35 453.16 362.29 C449.83 362.08 446.67 361.83 443.47 360.85 C443.14 359.53 442.81 358.21 442.47 356.85 C443.46 356.82 444.45 356.8 445.47 356.77 C456.26 356.7 456.26 356.7 465.47 351.85 C469.46 346.1 472.29 338.75 473.47 331.85 C473.17 330.51 472.85 329.17 472.47 327.85 C471.46 328.09 470.46 328.33 469.42 328.58 C465.67 329.48 461.92 330.38 458.17 331.27 C456.54 331.65 454.92 332.04 453.3 332.43 C450.97 332.99 448.64 333.55 446.3 334.1 C445.58 334.27 444.86 334.45 444.11 334.63 C440.77 335.42 437.93 335.85 434.47 335.85 C434.8 334.2 435.13 332.55 435.47 330.85 C436.24 330.66 437 330.48 437.79 330.29 C441.31 329.42 444.83 328.54 448.35 327.66 C449.55 327.37 450.76 327.08 452 326.78 C460.27 324.69 468.51 322.42 474.97 316.6 C488.08 292.57 478.98 245.59 472.16 220.88 C468.56 208.71 464.27 196.03 458.39 184.77 C452.85 173.12 459.18 152.88 460.99 140.71 C462.2 131.01 462.64 121.4 462.68 111.63 C462.68 110.38 462.69 109.14 462.7 107.86 C462.71 103.83 462.72 99.81 462.72 95.79 C462.72 95.1 462.72 94.42 462.73 93.71 C462.75 75.18 462.46 56.72 461.1 38.22 C461.04 37.36 460.97 36.49 460.91 35.59 C460.21 26.26 459.24 17.05 457.47 7.85 C452.4 7.47 447.83 8.87 442.98 10.16 Z M177.92 318.94 C169.85 328.54 162.95 338.58 156.16 349.11 C147.92 361.86 139.4 374.34 129.47 385.85 C128.82 386.62 128.16 387.39 127.48 388.18 C115.38 401.97 102.43 414.22 87.47 424.85 C86.85 425.3 86.22 425.75 85.57 426.22 C75.42 433.46 64.6 439.24 53.47 444.85 C55.37 449.07 58.2 451.42 61.79 454.22 C62.45 454.74 63.11 455.26 63.79 455.8 C120.71 499.82 192.23 518.57 263.47 509.85 C270.87 508.82 278.18 507.42 285.47 505.85 C286.43 505.64 287.39 505.44 288.38 505.22 C327.26 496.66 375.36 477.85 402.47 446.85 C402.47 446.19 402.47 445.53 402.47 444.85 C401.98 444.6 401.49 444.36 400.98 444.11 C389.17 438.17 378.1 431.73 367.47 423.85 C366.87 423.4 366.26 422.95 365.63 422.49 C356.73 415.82 348.51 408.53 340.47 400.85 C339.8 400.21 339.12 399.58 338.42 398.92 C333.29 393.98 328.91 388.42 324.47 382.85 C323.58 381.75 322.69 380.65 321.81 379.56 C313.67 369.44 306.51 358.82 299.73 347.76 C292.38 335.82 284.1 325.07 274.47 314.85 C273.79 314.09 273.11 313.33 272.4 312.55 C263.63 303.18 252.84 296.37 240.47 292.85 C239.58 292.57 239.58 292.57 238.67 292.28 C214.24 287.54 193.42 301.25 177.92 318.94 Z M449.68 401.21 C448.78 402.67 448.78 402.67 447.85 404.16 C441.09 414.61 433.5 424.08 424.98 433.15 C422.95 435.34 421.01 437.56 419.1 439.85 C416.97 442.39 414.75 444.47 412.16 446.51 C411.27 447.25 411.27 447.25 410.36 447.99 C409.18 448.95 407.97 449.88 406.74 450.76 C403.76 453.22 402.61 454.96 402.02 458.84 C401.86 467.65 403.16 476.31 404.66 484.97 C404.79 485.71 404.91 486.45 405.04 487.2 C409.11 511.11 414.58 534.76 419.83 558.42 C421.15 564.38 422.46 570.35 423.75 576.33 C424.67 580.56 425.59 584.79 426.52 589.02 C426.94 590.98 427.37 592.94 427.79 594.9 C428.37 597.57 428.96 600.25 429.55 602.92 C429.8 604.09 429.8 604.09 430.05 605.29 C430.94 609.49 430.94 609.49 433.47 612.85 C434.43 607.44 434.49 602.45 434.16 596.97 C434.11 596.12 434.07 595.26 434.02 594.37 C433.68 588.42 433.2 582.48 432.68 576.53 C428.38 526.53 437.32 472.3 470.47 432.85 C471.08 432.1 471.68 431.35 472.3 430.58 C481.39 419.69 493.12 412.48 505.47 405.85 C500.27 402.38 493.84 401.59 487.79 400.22 C487.08 400.06 486.38 399.9 485.66 399.74 C466.33 394.42 466.33 394.42 449.68 401.21 Z M524.47 405.85 C522.66 406.34 522.66 406.34 520.81 406.85 C494.08 414.84 473.36 433.98 460.18 458.23 C445.29 486.77 437.27 518.11 437.29 550.29 C437.29 550.95 437.28 551.6 437.28 552.28 C437.29 561.08 437.64 569.73 438.69 578.46 C439.95 589.21 440.14 600.04 440.47 610.85 C441.21 610.78 441.96 610.71 442.72 610.63 C449.58 610.01 456.34 609.72 463.22 609.79 C464.12 609.79 465.02 609.8 465.95 609.8 C468.12 609.81 470.3 609.83 472.47 609.85 C472.69 600.3 472.47 590.97 471.47 581.47 C467.25 538.17 471.73 493.21 499.47 457.85 C511.95 443.23 528.52 436.38 547.47 434.85 C562.86 433.86 577.1 437.07 591.61 441.87 C597.11 443.64 602.09 444.92 607.8 443.11 C612.24 440.77 615.31 438.91 617.16 434.04 C618.01 428.13 617.75 423.94 614.47 418.85 C593.37 400.06 550.09 398.33 524.47 405.85 Z M58.47 460.85 C55.52 473.89 52.56 486.94 49.6 499.98 C48.23 506.04 46.86 512.1 45.48 518.17 C42.57 531 39.67 543.83 36.77 556.66 C35.5 562.3 34.22 567.95 32.94 573.59 C31.74 578.89 30.54 584.2 29.35 589.5 C28.91 591.45 28.47 593.41 28.02 595.36 C27.42 598.03 26.82 600.71 26.22 603.38 C26.04 604.16 25.86 604.93 25.68 605.73 C24.77 609.83 24.13 613.65 24.47 617.85 C26.03 619.6 26.03 619.6 28.22 620.66 C29.27 621.26 29.27 621.26 30.33 621.87 C32.38 622.81 34.29 623.34 36.47 623.85 C36.5 623.04 36.52 622.23 36.55 621.4 C36.66 617.76 36.79 614.12 36.91 610.47 C36.95 609.2 36.99 607.93 37.03 606.62 C37.09 604.81 37.09 604.81 37.16 602.95 C37.19 601.83 37.23 600.71 37.27 599.55 C37.47 596.85 37.47 596.85 38.47 594.85 C39.46 594.52 40.45 594.19 41.47 593.85 C42.08 624.5 42.55 655.14 42.75 685.79 C42.76 687.22 42.77 688.65 42.78 690.09 C42.86 701.68 42.93 713.28 43 724.87 C43.05 732.95 43.1 741.02 43.15 749.1 C43.17 752.52 43.2 755.95 43.21 759.38 C41.45 789.68 41.45 789.68 53.34 815.99 C61.06 822.72 68.81 825 78.79 824.99 C80.04 825 80.04 825 81.32 825 C84.09 825.01 86.85 825.02 89.61 825.02 C91.54 825.02 93.47 825.02 95.39 825.03 C99.43 825.03 103.47 825.04 107.51 825.03 C112.67 825.03 117.83 825.05 122.99 825.07 C126.97 825.08 130.95 825.08 134.93 825.08 C136.83 825.08 138.74 825.08 140.64 825.09 C143.31 825.1 145.97 825.1 148.64 825.09 C149.42 825.1 150.2 825.1 151 825.11 C160.35 825.06 169.13 822.7 176.22 816.41 C176.97 815.57 177.71 814.72 178.47 813.85 C179.15 813.09 179.83 812.32 180.54 811.54 C186.58 803.16 187.12 796.35 187.27 786.21 C187.3 784.79 187.34 783.38 187.38 781.97 C187.47 778.27 187.55 774.57 187.62 770.87 C187.73 764.93 187.88 758.99 188.03 753.06 C188.08 750.99 188.12 748.92 188.16 746.86 C188.2 744.97 188.2 744.97 188.24 743.05 C188.27 741.4 188.27 741.4 188.3 739.71 C188.45 737.26 188.77 735.19 189.47 732.85 C190.13 732.85 190.79 732.85 191.47 732.85 C192.4 735.62 192.65 737.53 192.77 740.41 C192.81 741.35 192.85 742.28 192.89 743.24 C192.93 744.22 192.97 745.2 193.01 746.2 C193.05 747.11 193.08 748.01 193.12 748.94 C193.27 752.3 193.4 755.67 193.54 759.04 C193.85 766.56 194.15 774.09 194.47 781.85 C210.97 781.85 227.47 781.85 244.47 781.85 C244.8 766.01 245.13 750.17 245.47 733.85 C246.79 733.52 248.11 733.19 249.47 732.85 C250.59 738.29 250.66 743.59 250.72 749.12 C250.75 751.16 250.79 753.21 250.82 755.25 C250.87 758.44 250.91 761.63 250.95 764.82 C250 788.88 250 788.88 257.47 810.85 C257.86 811.45 258.25 812.05 258.65 812.66 C263.46 819.23 271.6 823.18 279.47 824.85 C282.25 824.95 285 825.01 287.77 825.01 C288.61 825.02 289.44 825.02 290.3 825.03 C293.06 825.04 295.82 825.05 298.58 825.05 C300.5 825.06 302.43 825.06 304.35 825.07 C308.38 825.08 312.42 825.09 316.45 825.09 C321.6 825.1 326.76 825.12 331.91 825.15 C335.89 825.17 339.86 825.17 343.84 825.17 C345.73 825.18 347.63 825.18 349.53 825.2 C352.2 825.21 354.86 825.21 357.53 825.21 C358.3 825.22 359.08 825.22 359.88 825.23 C370.1 825.16 378.77 821.13 386.23 814.22 C397.97 801.51 395.63 783.78 395.68 767.66 C395.69 765.75 395.7 763.85 395.71 761.95 C395.74 756.82 395.76 751.69 395.78 746.56 C395.8 741.18 395.83 735.81 395.85 730.44 C395.9 720.28 395.95 710.11 395.99 699.95 C396.04 688.38 396.09 676.81 396.15 665.23 C396.26 641.44 396.37 617.64 396.47 593.85 C397.79 594.18 399.11 594.51 400.47 594.85 C400.8 605.74 401.13 616.63 401.47 627.85 C405.77 626.13 409.71 624.18 413.72 621.91 C414.36 621.56 415 621.22 415.65 620.86 C419.56 618.75 419.56 618.75 421.47 614.85 C424.18 577.17 408.76 534.83 400.47 498.35 C400.3 497.6 400.13 496.85 399.96 496.08 C398.97 491.75 397.99 487.42 397 483.08 C396.69 481.75 396.39 480.42 396.08 479.08 C395.66 477.24 395.24 475.4 394.82 473.57 C394.47 472.01 394.47 472.01 394.1 470.43 C393.49 467.76 393.49 467.76 392.47 464.85 C388.76 466.17 386.01 467.8 382.91 470.22 C376.68 474.89 370.04 478.77 363.29 482.64 C362.04 483.37 362.04 483.37 360.75 484.11 C360 484.55 359.25 484.98 358.48 485.42 C356.22 487.03 354.89 488.47 353.47 490.85 C353.47 497.35 355.38 502.8 357.52 508.9 C366.21 534.12 365.98 563.19 359.47 588.85 C359.3 589.53 359.13 590.2 358.95 590.9 C351.17 620 332.72 647.04 308.47 664.85 C307.94 665.25 307.4 665.64 306.84 666.05 C282.74 683.58 255.01 692.3 225.22 692.16 C223.33 692.15 223.33 692.15 221.39 692.15 C188.49 691.74 154.27 679.2 130.97 655.35 C130.15 654.52 129.32 653.7 128.47 652.85 C127.81 652.85 127.15 652.85 126.47 652.85 C126.12 652.01 126.12 652.01 125.76 651.15 C124.17 648.31 122.18 646.31 119.91 643.97 C95.07 617.41 85.44 579.32 86.34 543.83 C87.05 527.77 90.6 510.66 97.16 495.94 C98.74 492.23 98.87 490.63 97.47 486.85 C93.32 483.03 88.86 480.12 84.04 477.22 C77.48 473.23 71.27 468.91 65.17 464.25 C62.16 461.7 62.16 461.7 58.47 460.85 Z M106.47 490.85 C91.31 527.32 86.48 565.67 101.92 603.3 C107.24 615.46 113.72 626.82 122.47 636.85 C123.17 637.66 123.87 638.47 124.59 639.3 C133.06 648.9 141.59 658 152.47 664.85 C153.67 665.66 153.67 665.66 154.89 666.48 C169.09 675.5 186.76 682.65 203.47 684.85 C204.42 684.98 204.42 684.98 205.38 685.12 C239.67 689.49 274.22 682.43 302.09 661.52 C307.53 657.3 312.52 652.63 317.47 647.85 C318.34 647.05 319.2 646.25 320.09 645.42 C342.12 624.46 356.33 593.28 357.6 562.87 C358.08 542.29 356 524.65 349.97 505.02 C349.76 504.31 349.54 503.6 349.32 502.87 C348.31 500.47 347.25 498.75 345.47 496.85 C337.49 494.34 328.18 499 320.71 501.69 C290.99 512.33 261.05 517.43 229.45 517.24 C226.28 517.22 223.1 517.24 219.92 517.26 C201.77 517.28 184.41 515.07 166.72 510.97 C165.58 510.71 164.43 510.45 163.25 510.18 C159.98 509.42 156.73 508.64 153.47 507.85 C152.66 507.65 151.84 507.45 151 507.25 C139.45 504.35 128.64 499.75 117.71 495.06 C114.01 493.47 110.33 492.02 106.47 490.85 Z M-67.85 638.71 C-85.56 658.73 -87.67 684.27 -86.53 709.85 C-86.12 715.03 -85.06 719.88 -83.53 724.85 C-83.2 725.91 -83.2 725.91 -82.88 727 C-77.48 744.28 -68.87 760.51 -56.53 773.85 C-55.3 775.21 -55.3 775.21 -54.05 776.6 C-36.74 794.96 -12 806.84 13.25 807.96 C20.78 807.93 30.69 807.24 37.47 803.85 C37.14 796.59 36.81 789.33 36.47 781.85 C34.12 782.36 31.77 782.88 29.35 783.41 C15.34 786.15 2.15 784.48 -10.35 777.21 C-12.84 775.52 -15.18 773.74 -17.53 771.85 C-18.55 771.08 -18.55 771.08 -19.6 770.3 C-30.41 761.72 -36.22 749.61 -40.53 736.85 C-40.93 735.7 -40.93 735.7 -41.34 734.53 C-45.62 719.42 -42.32 703.12 -35.18 689.58 C-29.79 680.7 -20.99 675.01 -11.15 671.97 C4.53 668.31 18.97 672.71 32.47 680.85 C33.8 681.52 35.14 682.19 36.47 682.85 C36.55 677.96 36.6 673.07 36.64 668.18 C36.65 666.53 36.67 664.87 36.7 663.21 C37.43 645.88 37.43 645.88 31.18 630.26 C3.16 605.27 -43.59 613.58 -67.85 638.71 Z M407.47 632.85 C396.52 646.66 401.36 675.37 401.47 691.85 C404.67 690.34 406.43 688.92 408.72 686.22 C418.55 676.18 433.91 670.94 447.72 670.54 C459.15 671 469.44 675.3 477.92 683.1 C486.63 692.88 490.2 704.93 489.91 717.79 C489.89 718.85 489.88 719.9 489.86 721 C489.39 739.25 482.28 755.45 469.21 768.33 C457.56 779.04 443.43 785.21 427.52 784.99 C419.5 784.61 413.79 782.23 406.86 778.19 C404.45 776.74 404.45 776.74 401.47 775.85 C401.33 779.95 401.24 784.06 401.16 788.16 C401.12 789.33 401.08 790.5 401.03 791.7 C401.02 792.82 401 793.94 400.98 795.09 C400.96 796.12 400.93 797.15 400.91 798.21 C401.22 801.06 401.22 801.06 403.84 802.65 C420.09 810.06 440.91 808.5 457.47 802.85 C461.97 801.12 466.22 799.11 470.47 796.85 C472 796.04 472 796.04 473.56 795.22 C500.17 780.47 518.57 755.02 527.25 726.18 C534.6 700.5 533.18 674.48 520.35 650.79 C509.98 633.8 494.33 622.23 475.02 617.41 C452.52 612.47 425.5 618.05 407.47 632.85 Z M-27.34 689.72 C-36.71 701.16 -37.78 714.56 -36.53 728.85 C-33.63 744.84 -24.48 759.06 -11.76 769.01 C-1.88 775.65 9.47 779.92 21.47 778.85 C28.59 777.6 28.59 777.6 34.47 773.85 C37.32 761.98 36.78 749.4 36.73 737.29 C36.72 733.99 36.73 730.69 36.75 727.38 C38.06 707.1 38.06 707.1 32.04 689 C14.11 673.96 -10.7 671.7 -27.34 689.72 Z M407.74 695.63 C401.51 703.38 402.07 714.6 401.79 724.04 C401.75 725.25 401.71 726.47 401.67 727.72 C401.45 735.71 401.47 743.67 401.79 751.66 C401.82 752.59 401.85 753.52 401.89 754.48 C402.23 763.12 402.23 763.12 405.96 770.7 C415.03 777.32 425.38 780.06 436.39 778.41 C452.28 775.37 464.41 766.99 473.58 753.89 C482.04 740.29 486.11 725.26 484 709.29 C481.09 696.84 475.46 688.1 464.72 681.11 C444.98 670.02 422.1 680.85 407.74 695.63 Z " fill="#000000" transform="translate(121.52685546875,305.150634765625)"/>
<path d="M0 0 C2.32 2.56 3.91 4.49 4.13 8.03 C3.58 14.26 1.6 17.9 -2.31 22.69 C-2.84 23.36 -3.37 24.04 -3.92 24.74 C-5.59 26.85 -7.29 28.93 -9 31 C-9.55 31.67 -10.11 32.35 -10.68 33.04 C-20.09 44.44 -20.09 44.44 -23.31 46.41 C-25.37 48.02 -25.37 48.02 -25.53 51.48 C-25.55 52.86 -25.54 54.24 -25.5 55.62 C-25.49 56.34 -25.48 57.06 -25.46 57.8 C-25.19 65.27 -23.47 70.42 -18.25 75.88 C-11.11 80.54 -4.56 82.09 4 81 C10.54 79.18 15.52 74.75 19 69 C20.04 65.86 20.78 62.79 21.39 59.54 C22 57 22 57 24 55 C26.62 55.38 26.62 55.38 29 56 C28.79 65.85 26.49 73.56 19.69 80.88 C12.33 87.7 4.45 89.38 -5.36 89.27 C-15.14 88.55 -21.23 83.74 -28 77 C-28.58 76.42 -29.16 75.85 -29.75 75.25 C-30.17 74.84 -30.58 74.43 -31 74 C-31.41 74.52 -31.82 75.04 -32.25 75.57 C-38.51 83.13 -45.26 88.15 -55.23 89.41 C-65.11 89.68 -72.57 87.68 -80.16 81.14 C-85.79 75.17 -89.21 68.71 -89.25 60.44 C-89.19 58.96 -89.11 57.48 -89 56 C-86.52 55.5 -86.52 55.5 -84 55 C-82.47 57.78 -81.72 60.12 -81.25 63.25 C-79.89 69.71 -76.22 74.69 -70.81 78.44 C-64.62 81.88 -57.48 82 -50.61 80.47 C-44.38 78.28 -40.52 75.32 -37.19 69.69 C-34.11 63.18 -33.98 56.04 -35 49 C-36.5 46.92 -38.22 45.84 -40.29 44.32 C-43.9 41.23 -46.54 37.67 -49.38 33.88 C-49.95 33.12 -50.52 32.36 -51.1 31.58 C-65.23 12.79 -65.23 12.79 -64 4 C-61.87 0.03 -60.6 -1.38 -56.43 -3 C-53.63 -3.79 -50.86 -4.45 -48 -5 C-47.11 -5.18 -46.22 -5.37 -45.3 -5.56 C-31.48 -7.41 -11.95 -8.29 0 0 Z M-57 6 C-56.51 11.01 -55.04 13.93 -52.12 18 C-51.73 18.55 -51.34 19.1 -50.93 19.66 C-49.64 21.46 -48.32 23.23 -47 25 C-46.53 25.64 -46.05 26.27 -45.56 26.93 C-44.12 28.86 -42.66 30.78 -41.19 32.69 C-40.73 33.29 -40.28 33.89 -39.81 34.51 C-36.6 38.73 -36.6 38.73 -32 41 C-28.27 40.89 -26.5 40.41 -23.61 38.02 C-18.87 32.56 -14.34 26.98 -10 21.19 C-9.53 20.57 -9.06 19.94 -8.58 19.3 C-5.97 15.72 -3.79 12.45 -3 8 C-4.36 4.93 -5.54 4.18 -8.65 2.95 C-22.96 -0.11 -44.18 -2.55 -57 6 Z " fill="#000000" transform="translate(380,637)"/>
<path d="M0 0 C4.75 1.05 9.43 2.28 14.12 3.56 C14.78 3.74 15.44 3.92 16.11 4.1 C34.14 9.01 51.58 14.72 68.69 22.25 C69.84 22.76 70.99 23.27 72.18 23.79 C84.86 29.52 84.86 29.52 87.12 34.44 C86.98 37.51 86.05 38.47 83.86 40.54 C79.55 43.91 74.59 46.36 69.81 49 C53.62 58.11 38.88 68.65 25 81 C24.48 81.46 23.96 81.91 23.43 82.38 C15.73 89.19 8.49 96.32 2.1 104.4 C-2.28 109.85 -2.28 109.85 -6.25 110.69 C-9.35 109.91 -10.11 109.52 -12 107 C-18.45 84.54 -17.59 59.01 -16.26 35.91 C-16.13 33.64 -16.01 31.36 -15.89 29.09 C-14.52 4.21 -14.52 4.21 -11.7 0.11 C-8.18 -2.19 -3.92 -0.72 0 0 Z M-7 7 C-7.44 12.63 -7.86 18.27 -8.28 23.9 C-8.42 25.81 -8.57 27.72 -8.72 29.62 C-10.04 46.66 -10.69 63.52 -9.12 80.56 C-9.05 81.54 -8.97 82.51 -8.89 83.52 C-8.34 89.79 -7.37 95.86 -6 102 C-2.58 99.33 0.38 96.66 3.19 93.36 C14.78 79.97 27.53 68.19 42 58 C42.61 57.56 43.23 57.13 43.86 56.68 C54.75 48.97 66.36 42.49 78 36 C62 18.85 20.55 11.1 -2 7 C-3.67 6.96 -5.33 6.94 -7 7 Z " fill="#000000" transform="translate(153,343)"/>
<path d="M0 0 C8.24 8.24 4.37 45.42 4.38 56.75 C4.33 92.62 4.33 92.62 -1 104 C-5.14 103.49 -7.03 102.46 -9.88 99.44 C-10.92 98.34 -10.92 98.34 -11.99 97.22 C-13.71 95.32 -15.4 93.39 -17.06 91.44 C-26.46 80.59 -36.77 70.77 -48.31 62.25 C-49.94 61.05 -51.54 59.8 -53.14 58.56 C-61.47 52.21 -70.47 47.31 -79.74 42.47 C-80.73 41.94 -81.73 41.42 -82.75 40.88 C-83.64 40.42 -84.53 39.96 -85.45 39.49 C-88.2 37.89 -90.57 36.04 -93 34 C-93.02 31.77 -93.02 31.77 -92 29 C-89.46 27.12 -86.63 25.94 -83.75 24.69 C-82.9 24.3 -82.05 23.92 -81.17 23.52 C-60.06 14.12 -38.22 7.27 -15.88 1.5 C-14.86 1.23 -13.85 0.96 -12.8 0.69 C-11.86 0.45 -10.91 0.21 -9.93 -0.03 C-9.1 -0.24 -8.26 -0.46 -7.41 -0.67 C-4.67 -1.04 -2.65 -0.73 0 0 Z M-13.91 8.34 C-15.71 8.81 -15.71 8.81 -17.56 9.3 C-18.87 9.66 -20.19 10.02 -21.5 10.38 C-22.16 10.56 -22.83 10.74 -23.51 10.92 C-43.61 16.38 -63.45 22.4 -82 32 C-78.99 34.42 -75.81 36.31 -72.47 38.21 C-58.87 45.96 -45.94 54.86 -34 65 C-33.28 65.61 -32.55 66.22 -31.81 66.86 C-24.87 72.92 -18.44 79.5 -11.98 86.06 C-11.22 86.82 -10.46 87.59 -9.68 88.38 C-9 89.08 -8.31 89.77 -7.61 90.49 C-6.25 92.11 -6.25 92.11 -5 92 C-3.08 79.64 -2.68 67.56 -2.75 55.06 C-2.75 54.12 -2.75 53.19 -2.76 52.22 C-2.79 37.4 -3.37 22.74 -5 8 C-8.67 6.78 -10.19 7.35 -13.91 8.34 Z " fill="#000000" transform="translate(556,346)"/>
<path d="M0 0 C4.61 4.45 7.89 9.81 8.06 16.31 C7.69 23.96 5 29.07 -0.44 34.38 C-6 37.9 -11.53 38.87 -18 38 C-25.19 35.81 -29.62 31.01 -33.38 24.69 C-34.93 18.01 -34.78 11.84 -31.33 5.82 C-23.42 -4.99 -11.41 -6.73 0 0 Z " fill="#000000" transform="translate(511,593)"/>
<path d="M0 0 C4.56 4.25 8.66 8.2 9.24 14.64 C9.4 21.35 9.08 26.5 5 32 C0.5 36.5 -4.94 39.1 -11.31 39.5 C-17.53 39.26 -23.39 36.73 -27.71 32.21 C-32.48 25.74 -32.57 19.77 -32 12 C-29.74 5.47 -25.09 1.12 -19 -2 C-12.71 -4.31 -5.67 -3.44 0 0 Z " fill="#000000" transform="translate(213,592)"/>
<path d="M0 0 C4.11 3.64 6.4 6.7 7.1 12.12 C7.3 18.56 6.65 23.1 2.31 28.09 C-1.44 31.78 -4.76 33.42 -10.04 33.67 C-13.98 33.25 -16.09 31.84 -19.25 29.44 C-23.18 24.2 -23.92 18.9 -23.25 12.44 C-21.33 6.47 -18.49 2.79 -13.44 -0.88 C-8.45 -2.44 -4.61 -2.22 0 0 Z M-14.25 8.44 C-16.59 11.45 -16.67 14.72 -16.56 18.47 C-16.04 21.74 -14.71 23.3 -12.25 25.44 C-9.36 26.77 -9.36 26.77 -6.25 26.44 C-3.59 24.37 -1.79 22.68 -0.44 19.56 C-0.38 18.86 -0.31 18.16 -0.25 17.44 C-0.13 16.3 -0 15.17 0.12 14 C0.05 10.3 0.05 10.3 -2.5 7.5 C-7.04 4.09 -10 5.31 -14.25 8.44 Z " fill="#000000" transform="translate(580.25,939.5625)"/>
<path d="M0 0 C3.54 2.93 5.52 4.99 6.07 9.75 C6.26 15.28 5.58 18.34 1.84 22.7 C-3.81 27.77 -7.88 29.17 -15.4 29.01 C-19.68 28.52 -21.77 27.38 -25.16 24.7 C-28.15 20.36 -28.72 16.9 -28.16 11.7 C-25.93 5.24 -21.31 1.3 -15.35 -1.74 C-10.01 -2.68 -4.77 -2.88 0 0 Z M-19.6 10.01 C-21.43 12.63 -21.43 12.63 -21.16 15.82 C-20.36 18.69 -20.36 18.69 -18.6 20.57 C-15.05 22.21 -11.94 22.55 -8.16 21.7 C-5.23 20.14 -3.12 18.38 -1.16 15.7 C-0.16 12.11 -0.16 12.11 -1.16 8.7 C-3.54 6.05 -5.09 4.89 -8.6 4.26 C-13.17 5.04 -16.25 6.83 -19.6 10.01 Z " fill="#000000" transform="translate(639.1640625,985.3046875)"/>
<path d="M0 0 C5.68 2.04 9.3 5.6 12 11 C13.05 24.38 13.05 24.38 10.25 28.69 C9.51 29.45 8.76 30.21 8 31 C7.44 31.6 6.89 32.2 6.31 32.81 C2.66 34.69 -0.92 35.11 -5 35 C-10.28 33.27 -12.82 30.36 -16 26 C-18.08 19.75 -18.11 12.42 -15.38 6.44 C-10.55 1.49 -7.06 -0.88 0 0 Z M-8.44 8.31 C-10.85 12.47 -10.72 16.32 -10 21 C-8.17 25.01 -7.19 26.54 -3.06 28.12 C0.05 28.17 0.05 28.17 2.88 26.81 C5.84 22.88 5.56 19.69 5.57 14.88 C4.87 11.35 3.81 10.17 1 8 C-2.82 6.91 -4.89 6.4 -8.44 8.31 Z " fill="#000000" transform="translate(121,938)"/>
<path d="M0 0 C4.01 2.09 6.42 4.09 8.1 8.28 C9.66 13.66 9.36 17.5 6.97 22.59 C4.86 26.37 2.84 28.97 -0.9 31.28 C-1.5 31.69 -2.1 32.1 -2.71 32.53 C-6.13 33.7 -9.38 33.83 -12.9 33.28 C-17.39 30.9 -20.76 28.29 -22.59 23.46 C-23.56 16.67 -22.76 11.91 -18.9 6.28 C-13.72 0.79 -7.63 -2.9 0 0 Z M-12.9 10.28 C-15.34 13.82 -15.92 15.65 -15.78 19.96 C-14.84 23.9 -14.84 23.9 -11.9 26.28 C-7.71 27.02 -6.22 26.49 -2.65 24.09 C0.03 21.35 1.3 19.98 2.1 16.28 C1.95 11.32 1.95 11.32 -0.71 7.34 C-5.83 4.85 -8.87 7.02 -12.9 10.28 Z " fill="#000000" transform="translate(615.90234375,948.72265625)"/>
<path d="M0 0 C4.86 2.43 7.31 5.31 10 10 C11.56 14.69 11.84 19.12 11 24 C8.73 27.75 5.96 31.02 2 33 C-3.33 33.66 -7.86 33.37 -12.43 30.41 C-16.49 26.77 -19.67 21.38 -20.2 15.91 C-20.33 9.63 -19.23 6.51 -15 1.75 C-10.55 -2.14 -5.42 -1.08 0 0 Z M-11.25 7.5 C-13.26 10.38 -13.58 12.47 -13.39 15.97 C-12.74 19.36 -11.26 21.44 -9 24 C-5.94 25.85 -4.39 26.03 -0.81 25.75 C2.11 25.22 2.11 25.22 4 23 C4.8 18.37 4.38 14.77 2.31 10.56 C-0.12 7.87 -1.51 6.87 -5 6 C-8.9 5.63 -8.9 5.63 -11.25 7.5 Z " fill="#000000" transform="translate(86,949)"/>
<path d="M0 0 C4.43 2.26 7.87 5.78 9.77 10.34 C10.57 14.82 10.87 19.17 8.78 23.31 C5.89 26.98 2.86 29.07 -1.74 29.68 C-8.97 29.78 -14.45 28.98 -19.79 23.84 C-23.32 19.51 -24.73 14.92 -24.23 9.34 C-23 5.64 -21.14 3.02 -17.98 0.68 C-12.57 -1.94 -5.72 -1.69 0 0 Z M-16.23 8.34 C-17.45 11.86 -17.54 13.58 -16.1 17.03 C-13.55 20.18 -11.38 22.03 -7.27 22.63 C-4.06 22.77 -1.65 22.56 1.21 21.09 C3.03 19.06 3.61 18.07 3.77 15.34 C2.66 10.88 0.68 8.72 -3.23 6.34 C-8.19 4.87 -12.25 4.6 -16.23 8.34 Z " fill="#000000" transform="translate(69.2265625,984.65625)"/>
</g>
</svg>
