<?xml version='1.0' encoding='UTF-8'?>
<svg xmlns="http://www.w3.org/2000/svg" width="297" height="210" viewBox="0 0 297 210">
  <rect x="0" y="0" width="297" height="210" fill="white"/>
  <g transform="translate(74.5,31.0) scale(0.115625)"><path d="M0 0 C5.33 8.47 0.24 23.98 -1.54 33.15 C-7.13 61.89 -5.81 93.51 9.17 119.38 C14.63 127.22 22.4 136.7 31 141 C34.35 141.2 37.7 141.35 41.06 141.43 C44.14 141.57 46.64 141.83 49.45 143.16 C51.7 145.83 51.87 147.51 52 151 C51.54 154.15 50.82 157.22 50.06 160.31 C48.51 166.71 47.78 172.4 48 179 C53.8 179.96 58.45 179.91 64.19 178.75 C64.92 178.61 65.65 178.48 66.41 178.33 C72.08 177.25 77.68 175.93 83.27 174.45 C86.17 173.97 88.18 174.24 91 175 C91.74 177.25 91.74 177.25 92 180 C90.45 182.03 90.45 182.03 88.12 183.94 C87.29 184.63 86.46 185.33 85.61 186.04 C83.26 187.8 80.9 189.27 78.38 190.75 C72.31 194.6 68.52 201.3 66.33 208.06 C65.44 213.26 65.05 218.21 67.56 222.94 C73.72 228.15 79.79 228.43 87.48 228.44 C89.55 228.5 89.55 228.5 93 229 C94.54 230.89 94.54 230.89 95 233 C93.56 236.46 91.2 238.86 88.69 241.56 C82.19 248.8 77.7 257.95 77.77 267.71 C78.09 270.9 79.4 273.26 81 276 C81 276.66 81 277.32 81 278 C85.3 279.75 89.65 281.38 94 283 C98.35 284.62 102.7 286.25 107 288 C107 292.79 105.34 294.97 102.19 298.31 C94.42 306.65 91.12 317.98 90.62 329.31 C91.51 338.06 94.89 342.47 100.84 348.7 C104 352.06 105.99 354.49 107 359 C132.87 345.98 157.32 331.65 176 309 C176.77 308.11 177.54 307.22 178.33 306.3 C183.6 300.12 188.34 293.77 192.9 287.05 C203.47 271.69 203.47 271.69 208.75 270.25 C209.49 270.17 210.24 270.08 211 270 C215.86 274.86 217.57 279.13 218 286 C217.82 294.38 214.16 302.07 210.92 309.66 C203.5 327.24 204.13 346.07 211.09 363.77 C212.78 367.91 214.52 372.02 216.27 376.14 C223.59 393.35 228.75 409.5 222 428 C219.37 433.95 216.13 438.98 211.94 443.94 C203.71 454.03 201.84 463.83 202.73 476.5 C203.2 480.89 204.11 485.18 205 489.5 C207.92 503.94 211.35 523.61 202.86 536.69 C201.94 537.83 201.94 537.83 201 539 C200.44 539.75 199.88 540.5 199.3 541.28 C193.85 547.57 186.7 551.29 179.59 555.42 C164.25 564.4 152.6 576.79 142 591 C135.55 590.84 132.56 587.3 128.25 583 C126.83 581.62 125.4 580.24 123.98 578.86 C123.29 578.19 122.61 577.52 121.9 576.83 C119.54 574.56 117.1 572.4 114.62 570.25 C100.8 557.81 91.52 542.76 82 527 C81.45 536.21 81.01 544.42 87 552 C89.88 554.68 92.76 557.16 95.87 559.58 C98 562 98 562 98 564.95 C96.97 568.09 95.69 570.74 94.06 573.62 C89.2 583.02 87.48 593.61 90.12 603.94 C94.17 616.31 104.74 624.21 115.91 629.97 C116.6 630.31 117.29 630.65 118 631 C116.52 635.12 114.48 638.57 112.12 642.25 C102.76 657.24 99.52 672.6 103.26 690.18 C105.78 699.77 108.79 706.73 116.11 713.59 C118.63 716.81 118.99 718.93 119 723 C117.52 726.04 117.52 726.04 115.38 729.06 C107.18 741.36 102.3 756.9 104.48 771.77 C107.41 784.27 118.71 792.97 128 801 C127.63 803.6 127.22 804.78 125.32 806.64 C124.6 807.17 123.87 807.7 123.12 808.25 C122.32 808.85 121.51 809.45 120.68 810.07 C118.83 811.4 116.98 812.73 115.13 814.05 C103.73 822.24 93.7 832.61 91 847 C89.79 862.9 92.89 875.63 102 889 C104 892 104 892 104.07 895.44 C103 899 103 899 99.96 901.15 C98.63 901.77 97.29 902.37 95.94 902.94 C94.48 903.61 93.01 904.29 91.55 904.96 C90.42 905.47 90.42 905.47 89.27 905.98 C73.61 913 59.58 920 52.84 936.91 C49.12 950.59 53.41 965.56 59.88 977.75 C60.31 978.47 60.74 979.18 61.18 979.92 C62.3 982.77 62.09 984.15 61 987 C56.98 991.24 51.79 992.83 46.44 994.81 C34.33 999.5 22 1004.51 15.12 1016.19 C11.28 1025.8 12.47 1036.46 14.56 1046.38 C15.8 1052.25 16.42 1057.1 15 1063 C11.56 1065.29 10.12 1065.02 6.13 1064.48 C4 1064 4 1064 1.65 1062.98 C-5.66 1060.28 -14.12 1061.26 -21.25 1064.06 C-41.24 1073.55 -51.08 1090.52 -59.25 1110.21 C-60.28 1112.66 -61.35 1115.08 -62.44 1117.5 C-63.21 1119.23 -63.21 1119.23 -64 1121 C-70.01 1121.09 -75.73 1120.78 -81.69 1120 C-105.57 1117.17 -129.87 1119.79 -151.41 1130.83 C-158.59 1134.49 -165.13 1136.15 -173.25 1136.62 C-174.43 1136.7 -175.61 1136.77 -176.83 1136.85 C-221.58 1138.79 -264.46 1128.02 -297.94 1097.69 C-298.82 1096.87 -299.7 1096.04 -300.61 1095.2 C-302.57 1093.4 -304.55 1091.72 -306.62 1090.06 C-320.27 1078.39 -329.55 1061.07 -337 1045 C-337.84 1043.24 -337.84 1043.24 -338.69 1041.44 C-349.03 1018.67 -351.07 994.29 -342.25 970.69 C-332.41 945.71 -315.71 926.61 -291.62 914.62 C-270.49 905.62 -245.36 904.51 -223.81 912.85 C-214.36 916.72 -205.93 921.51 -198 928 C-197.22 928.59 -196.45 929.18 -195.65 929.79 C-186.77 936.96 -179.21 947.85 -177.52 959.26 C-176.29 975.13 -179.83 987.43 -190.09 999.84 C-190.72 1000.55 -191.35 1001.27 -192 1002 C-192.69 1002.79 -193.38 1003.57 -194.09 1004.38 C-199.99 1010.68 -206.55 1016.06 -215.5 1016.56 C-221.79 1016.17 -227.59 1013.78 -232.62 1010.06 C-234.39 1007.41 -234.42 1006.14 -234 1003 C-232.17 1000.86 -232.17 1000.86 -229.75 998.75 C-224.02 993.29 -220.95 988.19 -220.44 980.19 C-220.76 972.81 -223.93 965.45 -228.25 959.5 C-232.91 955.27 -237.57 953.28 -243.81 952.56 C-253.62 953.15 -263.3 955.91 -270.08 963.25 C-277.13 973.34 -277.26 988.17 -276 1000 C-273.18 1013.93 -263.24 1025.99 -252 1034.19 C-240.58 1041.58 -228.53 1045.76 -215.5 1049.25 C-214.59 1049.5 -213.68 1049.74 -212.73 1050 C-197.99 1053.76 -183.67 1054.27 -168.56 1054.12 C-166.75 1054.11 -164.94 1054.11 -163.13 1054.1 C-158.75 1054.08 -154.38 1054.04 -150 1054 C-149.71 1053.21 -149.42 1052.42 -149.12 1051.61 C-147.81 1048.56 -146.54 1047.5 -143.88 1045.56 C-142.67 1044.67 -142.67 1044.67 -141.45 1043.77 C-140.64 1043.18 -139.83 1042.6 -139 1042 C-137.58 1040.94 -136.16 1039.88 -134.75 1038.81 C-134.15 1038.37 -133.54 1037.92 -132.92 1037.46 C-132.29 1036.98 -131.65 1036.5 -131 1036 C-130.18 1035.38 -129.37 1034.76 -128.52 1034.12 C-124.02 1030.33 -120.61 1025.62 -117 1021 C-116.57 1020.47 -116.15 1019.93 -115.71 1019.38 C-85.83 981.65 -68.04 926.28 -73.43 877.94 C-76.18 860 -84.93 843.34 -97 830 C-97.86 829.02 -98.72 828.04 -99.61 827.04 C-107.52 818.38 -116.74 812.55 -127 807 C-128.13 806.39 -128.13 806.39 -129.28 805.76 C-139.52 800.3 -149.85 796.67 -161.02 793.58 C-205.01 781.32 -246.97 755.35 -279 723 C-279.61 722.4 -280.22 721.8 -280.85 721.18 C-308.92 691.68 -317.86 648.18 -317.25 608.91 C-316.7 589.45 -313.18 570.73 -308 552 C-307.78 551.2 -307.56 550.4 -307.33 549.58 C-297.32 514.3 -276.98 484.44 -252.45 457.73 C-249.36 454.29 -246.44 450.74 -243.55 447.14 C-241.61 444.74 -239.63 442.37 -237.64 440.02 C-221.58 420.99 -221.58 420.99 -213 398 C-213.64 397.97 -214.28 397.93 -214.94 397.9 C-238.89 396.53 -262 392.28 -285.37 387.02 C-301.8 383.37 -316.6 384.01 -331.13 393.06 C-347.48 404.12 -358.44 418.02 -369.12 434.25 C-376.42 445.21 -383.47 454.7 -396.61 458.53 C-403.65 459.92 -410.06 459.87 -416.35 456.2 C-421.76 452.28 -424.2 446.42 -425.69 440.06 C-426.07 436.35 -426.02 432.73 -426 429 C-427.13 429.07 -428.27 429.14 -429.44 429.21 C-443.96 429.84 -443.96 429.84 -449.65 424.7 C-452.81 420.71 -453.27 417.72 -453.25 412.62 C-453.26 411.52 -453.26 410.42 -453.27 409.29 C-452.75 402.96 -450.54 397.49 -446 393 C-436.73 385.78 -426.07 383.06 -414.92 379.93 C-394.89 374.24 -380.13 364.68 -369.78 346.37 C-366.92 341.1 -364.72 335.73 -363 330 C-362.74 329.16 -362.74 329.16 -362.47 328.3 C-361.83 325.16 -361.86 322.16 -361.84 318.96 C-361.84 318.26 -361.83 317.56 -361.83 316.84 C-361.82 315.31 -361.81 313.79 -361.8 312.27 C-361.79 309.84 -361.77 307.41 -361.75 304.98 C-361.69 298.07 -361.63 291.16 -361.6 284.26 C-361.4 246.63 -361.4 246.63 -358 232 C-357.74 230.87 -357.48 229.75 -357.21 228.59 C-356.47 225.63 -355.64 222.73 -354.75 219.81 C-354.45 218.8 -354.15 217.8 -353.84 216.76 C-349.93 204.05 -344.42 192.61 -338 181 C-341.89 181.48 -345.79 181.98 -349.68 182.49 C-351.63 182.74 -353.59 182.98 -355.55 183.23 C-374.08 185.64 -374.08 185.64 -389 196 C-391.69 200.06 -394 204.33 -396.25 208.65 C-398 212 -398 212 -399 213 C-401.38 213.31 -401.38 213.31 -404 213 C-407 209.94 -407.43 207.59 -407.44 203.38 C-407.14 192.78 -402.57 184.32 -394.99 177.08 C-387.39 170.63 -378.64 165.89 -370 161 C-374.03 161.1 -378.07 161.2 -382.1 161.32 C-383.47 161.36 -384.84 161.39 -386.2 161.42 C-398.2 161.7 -409.9 162.05 -420.88 167.29 C-423.35 168.12 -424.58 167.86 -427 167 C-428.31 162.58 -428.31 162.58 -426.95 160.04 C-409.92 141.49 -389 137.15 -365 135 C-373.16 121.09 -385.61 115.84 -400.75 111.81 C-401.98 111.5 -403.22 111.2 -404.49 110.88 C-409.04 109.74 -413.52 108.39 -418 107 C-418.33 105.35 -418.66 103.7 -419 102 C-414.24 98.25 -409.67 98.5 -403.88 98.56 C-402.9 98.57 -401.93 98.58 -400.93 98.58 C-391.29 98.79 -382.27 100.44 -373 103 C-372 103.27 -372 103.27 -370.98 103.55 C-355.69 107.87 -342.22 114.91 -330 125 C-329.24 125.62 -328.48 126.24 -327.7 126.88 C-323.31 130.57 -319.62 134.56 -316 139 C-317.92 122.85 -324.73 111.7 -334.43 99.15 C-338.02 94.38 -338.02 94.38 -337.81 90.56 C-337.54 89.72 -337.28 88.87 -337 88 C-326.28 85.16 -314.31 95.14 -305.22 100.31 C-303.31 101.39 -301.39 102.47 -299.48 103.54 C-298.36 104.18 -297.23 104.82 -296.07 105.48 C-293.29 106.86 -291.06 107.59 -288 108 C-286.92 104.75 -286.73 102.06 -286.54 98.64 C-286.46 97.38 -286.38 96.12 -286.3 94.82 C-286.14 92.17 -285.99 89.52 -285.84 86.87 C-284.85 71.12 -284.85 71.12 -281.81 66 C-278.72 64.29 -276.46 64.53 -273 65 C-269.28 67.48 -266.77 70.26 -263.94 73.69 C-260.79 77.38 -257.32 80.35 -253.5 83.31 C-252.97 83.73 -252.43 84.15 -251.88 84.59 C-247.06 88.24 -242.5 90.87 -236.38 91.19 C-232.25 89.74 -231.22 88.44 -229.18 84.68 C-224.91 75 -222.34 64.86 -220.09 54.56 C-218.84 50.48 -217.05 47.05 -214 44 C-210.75 43.88 -210.75 43.88 -207 45 C-204.78 47.73 -203.45 50.81 -202 54 C-201.14 55.75 -200.28 57.49 -199.41 59.23 C-199 60.07 -198.59 60.9 -198.17 61.76 C-195.97 65.99 -193.27 69.56 -190 73 C-189.35 73.69 -188.71 74.37 -188.04 75.08 C-184.85 78.18 -182.75 79.82 -178.38 80.88 C-173.68 79.66 -171.67 76.85 -169 73 C-166.58 68.69 -164.44 64.27 -162.31 59.81 C-161.19 57.48 -160.06 55.16 -158.93 52.83 C-158.19 51.3 -158.19 51.3 -157.44 49.73 C-156.12 47.23 -154.9 45.09 -153 43 C-149.94 42.56 -149.94 42.56 -147 43 C-144.9 46.15 -144.56 47.74 -144.04 51.41 C-143.87 52.48 -143.71 53.56 -143.55 54.66 C-143.39 55.78 -143.23 56.91 -143.06 58.06 C-142 71.44 -142 71.44 -136.1 82.75 C-132.87 84.67 -130.71 84.43 -127 84 C-123.87 82.92 -120.96 81.49 -118 80 C-117.17 79.6 -116.34 79.19 -115.49 78.78 C-110.84 76.5 -106.29 74.08 -101.77 71.55 C-95.87 68.27 -90.93 65.55 -84 66 C-81.21 67.82 -80.3 69.04 -79.31 72.19 C-78.91 75.84 -79.65 78.74 -80.5 82.31 C-82.86 93.31 -80.97 100.34 -75 110 C-72.83 112.58 -70.53 114.8 -68 117 C-66.88 109.59 -65.88 102.18 -65.07 94.72 C-64.99 94.02 -64.92 93.31 -64.84 92.58 C-64.52 89.68 -64.2 86.79 -63.9 83.89 C-61.07 56.62 -51.58 30.99 -30.31 12.69 C-21.94 6.34 -10.62 -0.24 0 0 Z M-30.77 24.68 C-50.34 45.04 -54.89 70.62 -57.25 97.82 C-59.93 128.55 -66.69 156.19 -90.8 177.47 C-95.36 181.26 -99.96 184.87 -105 188 C-104.34 188.33 -103.68 188.66 -103 189 C-100.99 188.23 -100.99 188.23 -98.78 186.97 C-97.51 186.28 -97.51 186.28 -96.22 185.58 C-95.32 185.08 -94.42 184.58 -93.5 184.06 C-92.59 183.56 -91.68 183.05 -90.74 182.53 C-84.27 178.87 -78.48 175.06 -73 170 C-72.42 169.51 -71.84 169.02 -71.24 168.52 C-48.41 147.91 -40.58 116.62 -36.27 87.57 C-33.89 72.02 -28.63 58.11 -18.86 45.65 C-10.36 34.75 -7.58 23.87 -7 10 C-14.89 10 -25.49 19.6 -30.77 24.68 Z M-15 52 C-23.02 64.19 -26.4 75.74 -29 90 C-29.97 95.31 -30.94 100.63 -31.94 105.94 C-32.13 106.95 -32.13 106.95 -32.32 107.98 C-34.2 117.92 -36.49 126.91 -41 136 C-41.5 137.12 -42 138.24 -42.51 139.39 C-47.16 149.42 -53.35 158.21 -60 167 C-60.68 167.9 -61.36 168.8 -62.06 169.73 C-70.18 179.61 -81.73 186.2 -92.93 192.04 C-97.01 194.06 -97.01 194.06 -99 198 C-92.58 196.72 -86.69 194.96 -80.62 192.5 C-79.77 192.15 -78.91 191.81 -78.03 191.45 C-64.54 185.86 -51.34 179.29 -40 170 C-39.16 169.34 -38.33 168.68 -37.47 168 C-22.19 155.19 -8.94 133.04 -6.23 113.17 C-5.78 107.9 -6.81 103.59 -8.31 98.56 C-12.5 83.29 -13.23 67.75 -14 52 C-14.33 52 -14.66 52 -15 52 Z M-212 56 C-212.13 56.54 -212.25 57.09 -212.38 57.65 C-220.02 90.4 -220.02 90.4 -231 98 C-237.21 100.07 -242.35 99.04 -248.2 96.51 C-258.56 90.92 -266.97 82.47 -275 74 C-277 77.36 -277.33 80.11 -277.53 83.98 C-277.6 85.15 -277.67 86.31 -277.74 87.51 C-277.87 89.94 -278 92.37 -278.12 94.81 C-279.09 110.69 -279.09 110.69 -283.81 116.06 C-286.9 117.39 -288.61 117.37 -292 117 C-295.58 115.52 -298.93 113.68 -302.31 111.81 C-303.21 111.33 -304.11 110.85 -305.04 110.35 C-310.72 107.29 -316.36 104.15 -322 101 C-320.51 104.03 -318.87 106.92 -317.13 109.82 C-310.73 120.63 -308.53 130.5 -307 143 C-304.22 141.2 -301.51 139.41 -298.93 137.34 C-278.38 121.23 -251.39 111.9 -226 107 C-225.18 106.84 -224.35 106.67 -223.5 106.5 C-198.9 101.82 -171.53 102.05 -147 107 C-146 107.2 -145.01 107.4 -143.98 107.6 C-120.96 112.34 -99.12 119.6 -81 135 C-79.79 136 -78.58 137 -77.38 138 C-76.59 138.66 -75.81 139.32 -75 140 C-71.87 137.14 -71.12 135.02 -70.62 130.75 C-71.1 125.97 -72.79 123.48 -76 120 C-76.8 119.4 -77.61 118.8 -78.44 118.19 C-83.88 113.54 -87.04 106.79 -89 100 C-89.23 97.02 -89.23 97.02 -89.2 93.95 C-89.19 92.28 -89.19 92.28 -89.18 90.59 C-89.15 88.87 -89.15 88.87 -89.12 87.12 C-89.12 85.96 -89.11 84.79 -89.1 83.59 C-89.07 80.73 -89.04 77.86 -89 75 C-94.46 76.57 -99.16 79.11 -104.12 81.81 C-126.32 93.62 -126.32 93.62 -136 92 C-140.21 90.26 -142.58 87.83 -145 84 C-148.28 75.94 -150.19 67.49 -152 59 C-155.64 63.39 -157.96 68.56 -160.51 73.62 C-166.87 85.97 -166.87 85.97 -173 88 C-179.78 89.24 -184.91 87.81 -190.56 84.01 C-198.8 77.22 -204.01 68.02 -209.25 58.89 C-209.83 57.94 -210.4 56.98 -211 56 C-211.33 56 -211.66 56 -212 56 Z M-224 114 C-224.79 114.11 -225.59 114.21 -226.41 114.32 C-251.69 117.84 -279.1 129.46 -297.79 146.94 C-299.54 148.57 -301.31 150.08 -303.19 151.56 C-306.86 154.74 -309.88 158.29 -313 162 C-313.76 162.88 -314.53 163.75 -315.32 164.66 C-325.91 176.99 -334.28 190.2 -341 205 C-341.28 205.62 -341.57 206.24 -341.86 206.87 C-348.77 222.21 -351.77 238.43 -352.54 255.16 C-352.58 256.06 -352.62 256.95 -352.67 257.87 C-353 265.66 -353.12 273.45 -353.21 281.25 C-353.23 283.1 -353.23 283.1 -353.25 284.99 C-353.31 290.1 -353.37 295.21 -353.4 300.32 C-353.6 327.18 -356.32 347.27 -375.53 367.69 C-387.8 379.51 -401.23 384.4 -417.25 388.77 C-426.13 391.24 -434.91 393.7 -441 401.06 C-441.56 401.71 -442.11 402.36 -442.69 403.04 C-445.36 407.03 -445.5 411.29 -445 416 C-443 418.69 -441.41 420.65 -438.06 421.48 C-435.84 421.68 -433.67 421.75 -431.44 421.75 C-422.78 421.94 -422.78 421.94 -419 423 C-417.91 426.6 -417.8 430.07 -417.62 433.81 C-417.15 441.34 -417.15 441.34 -414 448 C-409.02 451.32 -404.65 451.46 -398.77 450.69 C-385.95 447.49 -378.66 434.71 -372.07 424.31 C-368.4 418.54 -364.47 413.18 -360 408 C-359.31 407.17 -358.61 406.34 -357.89 405.49 C-345.2 390.8 -327.72 378.08 -307.94 376.06 C-293.55 375.48 -279.66 379.5 -265.77 382.8 C-215.07 394.65 -161 391.16 -115.97 363.27 C-105.07 356.22 -95.41 347.9 -86 339 C-84.06 337.27 -82.13 335.54 -80.19 333.81 C-76.45 330.42 -73.07 326.94 -69.82 323.08 C-65.13 317.72 -60.02 311.89 -54 308 C-51.75 308.31 -51.75 308.31 -50 309 C-50.53 312.66 -51.23 314.75 -53.73 317.47 C-54.37 318.16 -55 318.85 -55.65 319.56 C-60.21 324.3 -64.81 328.99 -69.46 333.64 C-71.24 335.43 -73.01 337.21 -74.78 339 C-81.54 345.79 -88.41 352.14 -96 358 C-96.62 358.48 -97.25 358.97 -97.89 359.47 C-103.92 364.04 -110.11 368.13 -116.69 371.85 C-128.91 378.77 -133.72 384.23 -138.11 397.61 C-141.82 408.82 -146.84 419.39 -152 430 C-152.49 431 -152.97 432 -153.47 433.03 C-159.94 446.19 -167.07 458.36 -176 470 C-176.45 470.59 -176.9 471.18 -177.37 471.79 C-180.04 475.26 -182.76 478.69 -185.49 482.11 C-222.45 528.43 -242.99 579.16 -236.28 639.39 C-230.84 679.08 -214.51 723.44 -188 754 C-186.9 755.28 -186.9 755.28 -185.79 756.58 C-170.85 773.61 -151.76 785.55 -131.74 795.75 C-104.75 809.52 -80.76 827.66 -70.39 857.38 C-69.05 861.54 -67.97 865.74 -67 870 C-66.63 871.62 -66.63 871.62 -66.26 873.27 C-59.8 909.2 -69.42 948.2 -84 981 C-84.37 981.86 -84.75 982.72 -85.14 983.6 C-95.6 1007.39 -113.28 1039.66 -138 1051 C-134.78 1052.07 -134.19 1051.99 -131.11 1051.03 C-129.97 1050.67 -129.97 1050.67 -128.79 1050.31 C-127.98 1050.04 -127.16 1049.78 -126.31 1049.5 C-125.04 1049.09 -125.04 1049.09 -123.74 1048.67 C-104.2 1042.19 -86.05 1033.21 -71 1019 C-70.35 1018.39 -69.71 1017.78 -69.05 1017.16 C-56.23 1004.96 -45.95 992.33 -37 977 C-36.33 975.87 -35.66 974.73 -34.97 973.56 C-32.93 970.07 -30.96 966.54 -29 963 C-28.44 961.98 -27.87 960.97 -27.29 959.92 C-9.34 925.81 1.35 886.26 5 848 C5.1 847 5.19 846 5.29 844.97 C7.62 817.06 7.65 787.64 3 760 C2.8 758.8 2.6 757.6 2.4 756.37 C-1.51 733.41 -7.49 711.08 -13.97 688.73 C-15.02 685.09 -16.07 681.45 -17.12 677.81 C-17.39 676.91 -17.65 676.01 -17.92 675.08 C-22.22 660.16 -25.96 645.23 -29 630 C-29.16 629.19 -29.33 628.38 -29.49 627.55 C-30.13 624.37 -30.76 621.2 -31.36 618.02 C-31.95 614.97 -31.95 614.97 -33.02 611.98 C-36.41 600.14 -35.22 586.34 -35.24 574.13 C-35.25 571.1 -35.28 568.07 -35.31 565.04 C-35.51 527.97 -25.5 496.74 -10.08 463.42 C7.87 424.66 22.48 385.62 22.38 342.38 C22.37 341.53 22.37 340.68 22.37 339.81 C22.33 323.94 20.98 308.62 18 293 C17.79 291.87 17.57 290.75 17.35 289.58 C12.35 261.24 12.35 261.24 -2.69 237.62 C-9.53 234.27 -17.87 236.2 -25.25 237 C-43.73 238.84 -62.31 237.98 -80.56 234.37 C-83.4 233.94 -86.13 233.94 -89 234 C-89.66 236.31 -90.32 238.62 -91 241 C-92.65 240.67 -94.3 240.34 -96 240 C-96.96 237.11 -97.17 234.68 -97.29 231.66 C-97.87 217.52 -100.32 205.88 -111.12 195.88 C-115.48 192.34 -120.51 189.73 -125.4 187.03 C-128 185 -128 185 -128.38 182.25 C-128.25 181.51 -128.13 180.77 -128 180 C-124.53 180.46 -121.33 180.89 -118 182 C-111.33 182.95 -107.57 181.23 -102.07 177.45 C-88.29 166.48 -88.29 166.48 -79 152 C-79.13 148.43 -79.55 146.57 -81.79 143.76 C-120.99 109.81 -174.82 107.08 -224 114 Z M-375 112 C-374.28 112.56 -373.56 113.11 -372.82 113.68 C-369.99 116.01 -367.4 118.46 -364.81 121.06 C-363.95 121.92 -363.09 122.78 -362.21 123.66 C-359.07 126.98 -357.72 128.97 -357.75 133.5 C-357.74 134.66 -357.74 134.66 -357.73 135.84 C-358 138 -358 138 -360 141 C-362.3 141.81 -362.3 141.81 -365.31 142.44 C-366.47 142.69 -367.63 142.93 -368.82 143.19 C-371.94 143.81 -375.08 144.38 -378.21 144.94 C-379.58 145.19 -379.58 145.19 -380.98 145.44 C-382.79 145.76 -384.59 146.08 -386.4 146.38 C-392.4 147.45 -397.55 149.28 -403 152 C-403 152.33 -403 152.66 -403 153 C-383.65 153.69 -365.1 151.76 -346 149 C-346.45 155.42 -346.45 155.42 -348.87 157.97 C-349.67 158.48 -350.48 158.98 -351.32 159.5 C-352.22 160.08 -353.13 160.66 -354.06 161.25 C-355.03 161.83 -356 162.41 -357 163 C-357.96 163.57 -358.91 164.14 -359.89 164.73 C-363.9 167.09 -367.94 169.38 -371.99 171.66 C-382.49 177.63 -382.49 177.63 -392 185 C-392 185.99 -392 186.98 -392 188 C-391.49 187.61 -390.98 187.23 -390.45 186.83 C-379.44 178.94 -366.58 176.9 -353.51 174.38 C-341.6 171.96 -330.52 169.06 -322 160 C-321.15 159.13 -320.31 158.27 -319.44 157.38 C-317.76 155.13 -317.76 155.13 -318.2 152.68 C-322.51 138.27 -338.56 127.77 -351 121 C-358.74 116.95 -366.29 113.37 -375 112 Z M0 121 C-0.23 121.59 -0.45 122.18 -0.68 122.78 C-15.87 162.01 -37.46 181.46 -75.55 198.93 C-79.87 200.82 -84.3 202.36 -88.8 203.77 C-91.28 204.82 -91.28 204.82 -91.83 207.64 C-91.88 208.42 -91.94 209.2 -92 210 C-58.45 206.38 -32 191.52 -10.34 165.67 C-7.65 162.32 -5.12 158.86 -2.62 155.38 C-2.12 154.68 -1.62 153.99 -1.11 153.28 C3.23 147.08 7.9 139.91 7.54 132.06 C6.44 127.84 3.77 124.31 1 121 C0.67 121 0.34 121 0 121 Z M15 141 C13.87 142.59 12.78 144.22 11.72 145.86 C11.04 146.9 10.36 147.93 9.66 148.99 C8.25 151.16 6.84 153.33 5.43 155.5 C-15.63 187.54 -41.81 207.92 -79.35 215.97 C-81.74 216.46 -84.14 216.92 -86.54 217.36 C-87.35 217.57 -88.16 217.78 -89 218 C-89.5 218.99 -89.5 218.99 -90 220 C-66.75 225.65 -44.04 218.37 -24.01 206.48 C-0.6 192.18 23.62 174.07 39 151 C38.26 150.86 37.52 150.73 36.76 150.59 C29.52 149.05 24.17 146.63 18.08 142.43 C16.28 140.91 16.28 140.91 15 141 Z M38 164 C37.08 165.02 36.19 166.07 35.31 167.12 C25.28 178.67 14.39 188.52 2.03 197.52 C0.15 198.89 -1.71 200.28 -3.56 201.68 C-21.2 214.87 -40.49 224.25 -62 229 C-62 229.33 -62 229.66 -62 230 C-32.7 230.99 -32.7 230.99 -4 226 C-3.23 225.77 -2.45 225.55 -1.66 225.32 C17.75 219.41 34.94 208.35 52.19 197.94 C52.81 197.56 53.43 197.19 54.07 196.81 C55.83 195.74 57.59 194.67 59.36 193.59 C60.37 192.97 61.39 192.35 62.44 191.71 C64.59 190.27 66.28 188.92 68 187 C67.35 187.07 66.69 187.14 66.02 187.22 C60.87 187.74 55.73 188.14 50.56 188.31 C49.11 188.37 49.11 188.37 47.63 188.43 C44.24 187.88 43.13 186.62 41 184 C39.88 181.76 39.81 180.35 39.68 177.87 C39.64 177.06 39.6 176.26 39.56 175.43 C39.52 174.58 39.48 173.74 39.44 172.88 C39.39 172.03 39.35 171.18 39.31 170.3 C39.2 168.2 39.1 166.1 39 164 C38.67 164 38.34 164 38 164 Z M52.05 206.47 C50.8 207.22 49.54 207.96 48.29 208.7 C46.32 209.87 44.36 211.04 42.39 212.21 C30.6 219.24 18.62 225.56 6 231 C6.57 232.61 7.15 234.21 7.75 235.81 C8.07 236.71 8.4 237.6 8.73 238.52 C10.46 241.9 12.38 243.44 15.96 244.67 C33.75 247.53 52.37 240.37 69 235 C66.81 232.81 64.62 230.64 62.38 228.5 C58.36 224.27 57.74 221.45 57.81 215.62 C57.82 214.52 57.83 213.42 57.83 212.29 C57.99 209.12 58.41 206.12 59 203 C56.71 203 53.89 205.37 52.05 206.47 Z M69.5 242.39 C68.62 242.69 67.75 242.98 66.84 243.29 C65.9 243.6 64.97 243.92 64 244.25 C48.28 249.41 32.43 252.26 16 254 C16.23 254.91 16.46 255.82 16.7 256.76 C17.03 258.07 17.36 259.38 17.69 260.69 C17.86 261.39 18.04 262.1 18.22 262.82 C19.27 267.01 20.29 271.21 21.27 275.42 C21.49 276.34 21.7 277.25 21.92 278.2 C22.34 279.98 22.75 281.77 23.16 283.55 C25.03 293.55 25.03 293.55 30 302 C33.08 302.46 36.2 302.33 39.31 302.31 C40.25 302.31 41.18 302.3 42.15 302.3 C67.75 301.91 67.75 301.91 90 291 C89.26 290.62 88.53 290.25 87.77 289.86 C80.17 285.88 72.85 281.56 70 273 C69.12 260.59 72.16 251.86 78 241 C74.47 241 72.71 241.28 69.5 242.39 Z M208 281 C202.23 287.44 197.02 294.25 191.99 301.28 C185.87 309.63 179.06 317.44 172 325 C171.55 325.5 171.09 326 170.63 326.51 C156.91 341.5 139.6 351.18 122 361 C121.31 361.39 120.62 361.77 119.92 362.17 C113.38 365.84 106.98 369.1 99.88 371.56 C94.11 373.66 91.78 375.53 89 381 C88.64 382.33 88.29 383.66 88 385 C123.61 384.2 153.18 378.11 178.73 352.24 C190.63 339.63 196.96 325.57 202.41 309.34 C203.82 305.2 205.32 301.24 207.2 297.29 C208.91 293.55 209.44 290.6 209.25 286.44 C209.21 285.4 209.18 284.37 209.14 283.31 C209.09 282.55 209.05 281.78 209 281 C208.67 281 208.34 281 208 281 Z M81 303.81 C66.89 308.6 52.01 309.46 37.22 309.84 C34.44 310.04 31.74 310.51 29 311 C29.03 311.94 29.06 312.88 29.09 313.85 C29.21 317.43 29.32 321.01 29.43 324.59 C29.47 326.13 29.52 327.66 29.57 329.19 C29.93 340.13 30.06 351.05 30 362 C52.18 362.59 72.53 361.09 94 355 C93.58 354.48 93.16 353.96 92.73 353.42 C85.31 344.1 82.1 334.9 83 323 C84.18 315.68 85.67 308.66 89 302 C85.78 302 84 302.68 81 303.81 Z M196 343 C194.66 344.77 193.36 346.57 192.06 348.38 C173.23 373.8 147.89 385.69 117.25 390.25 C110.09 391.28 102.98 392.17 95.75 392.56 C90.8 392.84 87.22 393.31 83 396 C81.81 398.54 81.81 398.54 81 401 C126.07 407.84 166.25 403.92 207 382 C206.48 375.62 205.29 370.19 203.12 364.19 C200.69 357.2 198.62 350.23 197 343 C196.67 343 196.34 343 196 343 Z M79.42 365.84 C78.57 366.02 77.72 366.19 76.84 366.37 C75.97 366.56 75.09 366.75 74.19 366.94 C64.07 369.07 54.32 370.2 43.98 370.43 C37.85 370.67 32.52 371.48 28 376 C27.31 378.36 27.31 378.36 26.81 381.15 C26.59 382.23 26.37 383.3 26.15 384.4 C25.91 385.57 25.68 386.74 25.44 387.94 C21.27 407.56 15.06 426.42 6.66 444.64 C6.29 445.44 5.93 446.24 5.55 447.06 C5.07 448.1 5.07 448.1 4.57 449.16 C3.74 451.2 3.74 451.2 5 454 C22.28 456.39 38.76 456.45 55.94 453.19 C56.76 453.03 57.58 452.88 58.43 452.72 C63.44 451.67 67.04 450.3 71 447 C71.97 443.51 72.18 440.96 71.52 437.39 C67.71 412.5 75.46 390.82 87.24 369.29 C89.08 366.47 89.08 366.47 89 365 C85.67 364.92 82.68 365.15 79.42 365.84 Z M-152.44 388.25 C-165.58 392.8 -179.33 395.2 -193.18 396.23 C-197.52 396.6 -200.52 397.33 -204 400 C-206.33 403.5 -206.59 404.89 -206 409 C-202.22 413.39 -197.57 414.49 -192 415 C-178.16 415.27 -161.47 412.92 -151 403 C-149 400.47 -147.46 397.87 -146 395 C-145.4 393.91 -144.8 392.81 -144.19 391.69 C-142.8 389.03 -142.8 389.03 -143 386 C-146.61 386 -149.04 387.01 -152.44 388.25 Z M205.75 390.84 C204.93 391.26 204.1 391.68 203.25 392.11 C201.92 392.8 201.92 392.8 200.56 393.5 C160.77 413.19 122.23 414.51 79 409 C78.78 410.59 78.58 412.19 78.39 413.79 C78.28 414.68 78.16 415.57 78.05 416.48 C77.79 419.26 77.79 419.26 79.75 422.38 C87.29 429.7 101.05 430.83 111 433 C111.79 433.17 112.58 433.35 113.39 433.53 C127.84 436.7 142.3 439.2 157 441 C158.37 441.17 158.37 441.17 159.76 441.35 C169.1 442.51 178.4 443.19 187.81 443.31 C189.04 443.34 189.04 443.34 190.29 443.37 C196.29 443.36 201.02 442.41 205.82 438.53 C214.58 427.85 218.28 415.77 217 402 C216.18 397.94 215.16 393.97 214 390 C210.54 388.77 208.97 389.16 205.75 390.84 Z M-160.62 416.88 C-175.85 423.13 -191.83 423.23 -207.64 419.35 C-210.1 418.74 -210.1 418.74 -212.38 420.31 C-218.18 426.26 -223.77 433.76 -225.69 441.94 C-224.56 446.96 -221.13 449.19 -217 452 C-207.54 457.93 -194.63 457.18 -183.94 455.38 C-174.45 452.66 -168.8 446.28 -164 438 C-156.76 427 -156.76 427 -153 415 C-156.19 415 -157.73 415.62 -160.62 416.88 Z M79 433 C79.14 434.42 79.29 435.85 79.43 437.27 C79.51 438.07 79.59 438.86 79.68 439.68 C80.78 447.61 85.08 451.29 91 456 C94.76 458.73 98.62 461.32 102.5 463.88 C104.1 464.93 104.1 464.93 105.72 466 C131.28 482.74 166.45 501.61 198 500 C197.69 497.79 197.38 495.58 197.06 493.38 C196.8 491.53 196.8 491.53 196.54 489.65 C196.22 487.47 195.86 485.29 195.45 483.12 C194.85 478.96 194.82 474.88 194.81 470.69 C194.8 469.88 194.79 469.08 194.78 468.25 C194.77 467.45 194.77 466.65 194.77 465.82 C194.77 465.11 194.76 464.4 194.76 463.67 C195.12 459.7 196.08 455.87 197 452 C195.9 451.91 194.79 451.81 193.65 451.71 C154.59 448.32 117.14 442.06 79 433 Z M-235 449 C-237.07 451.1 -238.94 453.18 -240.81 455.44 C-241.35 456.07 -241.88 456.71 -242.43 457.36 C-250.29 466.38 -250.29 466.38 -254.5 477.25 C-253.98 481.18 -253.81 481.69 -251.06 484.19 C-240.96 491.73 -227.48 494.41 -215 493 C-201.23 490.59 -193.13 480.53 -185 470 C-183.99 468.34 -182.98 466.68 -182 465 C-183.19 464.94 -183.19 464.94 -184.41 464.88 C-188.07 464.69 -191.72 464.47 -195.38 464.25 C-196.63 464.19 -197.88 464.13 -199.17 464.06 C-208.91 463.45 -217.27 461.82 -224.94 455.44 C-225.65 454.86 -226.36 454.28 -227.09 453.68 C-229 452 -229 452 -230.57 450.29 C-232.05 448.67 -232.05 448.67 -235 449 Z M72.12 460.69 C70.68 463.65 71.09 464.87 72 468 C73.22 469.88 73.22 469.88 74.88 471.56 C75.51 472.25 76.15 472.94 76.8 473.65 C77.53 474.43 78.25 475.2 79 476 C79.8 476.89 80.6 477.78 81.42 478.69 C91.87 490.28 102.63 501.44 115 511 C116.33 512.05 117.67 513.1 119 514.16 C120.46 515.29 121.92 516.43 123.38 517.56 C124.03 518.08 124.69 518.6 125.37 519.13 C135.49 526.92 146.53 533.08 157.99 538.64 C159.9 539.58 161.81 540.54 163.71 541.5 C164.95 542.11 166.19 542.71 167.43 543.32 C168.53 543.86 169.62 544.4 170.75 544.96 C174.61 546.2 177.08 545.9 181 545 C188.02 541.38 194.77 534.44 197.94 527.19 C199.47 522.35 199.98 516.99 199 512 C197.34 509.28 195.83 508.23 192.76 507.37 C189.83 506.78 186.89 506.29 183.94 505.81 C151.62 499.94 122.01 486.4 95 468 C93.03 466.7 91.05 465.41 89.06 464.12 C87.78 463.29 87.78 463.29 86.47 462.45 C81.97 459.81 76.58 456.68 72.12 460.69 Z M41.16 461.93 C30.83 463.31 20.93 463.21 10.59 462.09 C6.02 461.71 3.56 462.09 0 465 C-5.06 469.89 -8.07 475.48 -11 481.81 C-11.64 483.18 -11.64 483.18 -12.3 484.58 C-17.08 495.01 -22.1 506.43 -23 518 C-20.8 521.72 -19.16 522.63 -15.05 523.94 C13.9 530.93 47.71 528.85 74 514 C73.09 509.73 70.97 506.42 68.69 502.75 C62.72 492.98 57.8 484.81 59 473 C60.11 468.59 61.49 464.29 63 460 C55.62 459.75 48.45 460.91 41.16 461.93 Z M66 474 C64.88 495.25 87.15 519.86 98.5 537 C99.13 537.96 99.77 538.92 100.42 539.91 C111.26 556.09 123.61 570.3 140 581 C140.65 580.19 141.31 579.38 141.98 578.54 C149.19 569.76 156.8 561.75 165.85 554.82 C166.56 554.22 167.27 553.62 168 553 C168 552.34 168 551.68 168 551 C166.92 550.5 166.92 550.5 165.82 550 C145.92 540.77 127.26 530.69 110 517 C109.12 516.32 108.23 515.64 107.32 514.94 C97.14 506.91 87.89 497.62 79.51 487.73 C76.84 484.66 73.91 481.85 71 479 C70.02 478.02 69.04 477.04 68.06 476.06 C67.38 475.38 66.7 474.7 66 474 Z M-264 484 C-272.37 494.04 -282.48 507 -285 520 C-283.7 524.39 -280.46 526.5 -276.65 528.73 C-263.77 534.89 -248.6 538.41 -234.39 535.46 C-228.27 532.93 -225.99 527.57 -223 522 C-221.06 518.74 -219.06 515.5 -217.07 512.27 C-215.05 508.93 -213.32 505.67 -212 502 C-215.13 501.02 -218.16 500.84 -221.43 500.71 C-237.05 500.07 -249.93 496.27 -261.54 485.32 C-262.8 483.89 -262.8 483.89 -264 484 Z M67.18 525.29 C39.33 536.06 10.17 536.64 -19 531 C-21.33 530.64 -23.66 530.32 -26 530 C-29.91 553.58 -29.91 553.58 -25 576 C-19.24 582.07 -9.32 581.77 -1.41 582.19 C2.16 582.27 5.73 582.28 9.31 582.25 C10.58 582.24 11.84 582.24 13.15 582.23 C39.05 581.94 62.77 575.33 86 564 C85.64 563.54 85.27 563.08 84.9 562.6 C74.39 548.97 71.98 539.94 74 523 C71.63 523 69.37 524.42 67.18 525.29 Z M-291 529 C-300.36 548.49 -300.36 548.49 -302 569 C-295.34 580.68 -280.63 586.21 -268.41 589.75 C-261.93 591.26 -254.55 592.27 -248 591 C-244.66 587.52 -243.31 584.54 -242.22 579.88 C-241.94 578.7 -241.65 577.52 -241.36 576.31 C-240.94 574.46 -240.94 574.46 -240.5 572.56 C-239.9 570.04 -239.29 567.51 -238.68 564.99 C-238.25 563.18 -238.25 563.18 -237.81 561.33 C-236.39 555.5 -234.74 549.74 -233 544 C-234.31 543.97 -235.61 543.95 -236.96 543.92 C-257.52 543.34 -273.37 539.72 -291 529 Z M77.73 575.59 C56.97 585.78 35.45 589.57 12.41 589.34 C9.87 589.31 7.33 589.32 4.79 589.32 C-5.94 589.3 -16.38 588.5 -27 587 C-27.31 597.47 -26.51 607.22 -24.69 617.56 C-24.47 618.89 -24.26 620.21 -24.04 621.54 C-22.14 633.17 -22.14 633.17 -14.69 641.98 C-7.31 646.44 2.32 645.35 10.62 645.31 C11.74 645.31 11.74 645.31 12.88 645.31 C43.03 645.18 72.92 640.97 102 633 C99.3 629.81 96.6 626.64 93.74 623.59 C85.09 614.34 81.8 606.98 81.81 594.44 C81.81 593.54 81.81 592.65 81.81 591.73 C81.86 585.32 82.4 579.23 84 573 C81.75 573 79.72 574.6 77.73 575.59 Z M-306 579 C-306.32 580.94 -306.63 582.87 -306.94 584.81 C-307.11 585.89 -307.29 586.97 -307.46 588.08 C-308.68 596.99 -309.2 605.83 -309.25 614.81 C-309.27 615.81 -309.29 616.81 -309.31 617.83 C-309.35 624.28 -308.71 628.62 -304.55 633.8 C-286.65 649.91 -266.16 652.7 -243 652 C-243.14 649.9 -243.29 647.79 -243.44 645.69 C-243.52 644.52 -243.6 643.34 -243.68 642.14 C-243.84 639.94 -244.03 637.75 -244.26 635.56 C-245.04 627.97 -245.12 620.45 -245.06 612.81 C-245.06 611.57 -245.05 610.34 -245.05 609.06 C-245.04 606.04 -245.02 603.02 -245 600 C-245.96 599.9 -245.96 599.9 -246.95 599.8 C-268.12 597.6 -286.43 594.2 -303.32 580.32 C-304.77 578.9 -304.77 578.9 -306 579 Z M-307 643 C-305.87 652.34 -303.72 660.92 -300.69 669.81 C-300.31 670.97 -299.93 672.14 -299.54 673.33 C-295.72 685.4 -295.72 685.4 -287 694 C-284.29 694.95 -281.64 695.79 -278.88 696.56 C-278.11 696.78 -277.34 697 -276.56 697.22 C-260.4 701.73 -245.52 702.63 -229 700 C-229.94 693.38 -232.08 687.21 -234.18 680.89 C-234.88 678.81 -235.55 676.72 -236.23 674.63 C-236.67 673.3 -237.11 671.97 -237.55 670.64 C-237.95 669.44 -238.35 668.24 -238.76 667 C-239.91 664.22 -240.61 662.76 -243 661 C-247.23 660.01 -251.11 660.01 -255.44 660.12 C-272.5 660.23 -286.64 654.23 -301.07 645.67 C-303.92 643.92 -303.92 643.92 -307 643 Z M91.07 643.21 C89.9 643.46 88.72 643.72 87.5 643.98 C86.24 644.26 84.98 644.53 83.69 644.81 C63.34 649.16 42.81 651.98 21.99 652.32 C20.35 652.35 20.35 652.35 18.67 652.38 C15.22 652.44 11.77 652.5 8.31 652.56 C5.95 652.61 3.6 652.65 1.24 652.69 C-4.51 652.8 -10.25 652.9 -16 653 C-15.84 653.59 -15.67 654.17 -15.5 654.78 C-13.77 660.98 -12.03 667.17 -10.29 673.37 C-9.65 675.68 -9 677.98 -8.36 680.28 C-7.73 682.52 -7.11 684.75 -6.48 686.99 C-5.86 689.2 -5.24 691.4 -4.62 693.61 C-3.23 698.55 -1.86 703.5 -0.57 708.47 C-0.35 709.3 -0.13 710.13 0.09 710.98 C0.49 712.48 0.87 713.98 1.24 715.49 C2.39 719.82 3.91 722.75 7 726 C31.51 739.62 82.88 725.25 108 719 C107.55 718.36 107.11 717.71 106.64 717.05 C98.1 704.28 93.59 691.02 93.69 675.69 C93.69 674.77 93.7 673.84 93.7 672.9 C93.86 663.02 95.89 654.62 100.23 645.74 C101.13 644.01 101.13 644.01 101 642 C97.37 642 94.59 642.43 91.07 643.21 Z M-283 704 C-280.04 710.44 -275.83 714.9 -271 720 C-270.12 720.97 -270.12 720.97 -269.23 721.96 C-259.35 732.52 -244.61 745.25 -230 748 C-221.69 748 -214.52 746.42 -207 743 C-210.81 734.42 -214.7 726.02 -219.81 718.12 C-220.37 717.26 -220.37 717.26 -220.94 716.38 C-224.09 711.4 -224.09 711.4 -228.86 708.29 C-231.41 707.95 -233.63 708.14 -236.19 708.44 C-244.69 709.42 -252.64 708.97 -261.06 707.62 C-261.91 707.5 -262.76 707.37 -263.63 707.24 C-267.6 706.63 -271.48 705.92 -275.37 704.9 C-279.02 703.84 -279.02 703.84 -283 704 Z M94.57 729.27 C71.65 734.1 48.44 735.3 25.09 735.9 C19.05 736.09 13.02 736.51 7 737 C7.17 738.27 7.34 739.53 7.52 740.84 C7.76 742.68 8.01 744.53 8.25 746.38 C8.38 747.37 8.52 748.37 8.65 749.39 C9.51 755.9 10.28 762.4 10.98 768.92 C11.15 770.46 11.32 772 11.5 773.53 C11.75 775.82 12 778.11 12.23 780.4 C12.46 782.56 12.7 784.72 12.94 786.88 C13.07 788.13 13.2 789.39 13.34 790.68 C14.22 795.09 15.94 797.83 18.94 801.12 C43.93 816.43 88.45 807.66 115 802 C113.52 798.49 111.54 796.44 108.75 793.88 C99.42 784.71 96.09 775.85 95.56 763 C95.74 750.61 99.83 738.69 106 728 C102 727.77 98.45 728.45 94.57 729.27 Z M-214.25 753 C-215.37 753.29 -215.37 753.29 -216.51 753.58 C-218.34 754.05 -220.17 754.52 -222 755 C-222 755.66 -222 756.32 -222 757 C-208.53 764.43 -195.08 771.77 -181 778 C-180.09 778.42 -179.17 778.84 -178.23 779.27 C-175.87 780.29 -175.87 780.29 -173 779 C-174.22 777.89 -174.22 777.89 -175.46 776.76 C-183.75 769.17 -191.99 761.51 -199.56 753.18 C-204 749.21 -209 751.63 -214.25 753 Z M15 811 C14.01 817.87 13.63 824.73 13.24 831.65 C12.67 841.67 11.96 851.58 10.38 861.5 C7.91 875.26 7.91 875.26 10.09 888.72 C16.36 896.2 29.99 896.21 39 897 C57.34 898.13 74.96 896.23 93 893 C92.45 889.88 91.76 887.13 90.44 884.26 C90.14 883.58 89.83 882.91 89.52 882.21 C89.05 881.18 89.05 881.18 88.56 880.12 C82.02 865.86 80.14 850.04 85.6 834.96 C89.5 826.71 95.03 819.82 101 813 C100.07 813.14 99.14 813.29 98.18 813.44 C72.9 816.91 46.11 816.7 21.15 811.37 C18.71 810.89 18.71 810.89 15 811 Z M2 905 C0.7 907.55 -0.22 910.18 -1.11 912.9 C-1.5 914.03 -1.5 914.03 -1.9 915.18 C-2.44 916.77 -2.98 918.36 -3.5 919.95 C-4.31 922.37 -5.14 924.78 -5.98 927.19 C-6.5 928.74 -7.03 930.29 -7.55 931.84 C-7.8 932.55 -8.04 933.26 -8.3 934 C-10.05 939.33 -11.2 944.39 -8.76 949.71 C0.43 961.69 17.26 969.26 31 974.56 C31.86 974.9 32.72 975.23 33.6 975.58 C39.11 977.6 44.15 978.57 50 979 C49.81 978.36 49.61 977.72 49.41 977.06 C49.02 975.76 49.02 975.76 48.62 974.44 C48.37 973.59 48.11 972.74 47.85 971.87 C47.57 970.92 47.29 969.98 47 969 C46.65 967.89 46.3 966.78 45.95 965.64 C42.15 951.04 43.66 936.45 50.95 923.27 C55.83 915.5 62.16 910.56 70 906 C70 905.67 70 905.34 70 905 C68.66 904.98 68.66 904.98 67.29 904.96 C35.9 904.39 35.9 904.39 21.19 901.72 C19.79 901.48 18.4 901.24 17 901 C15.73 900.76 15.73 900.76 14.43 900.51 C13.11 900.3 13.11 900.3 11.78 900.09 C10.98 899.96 10.19 899.82 9.37 899.68 C5.6 900.19 4.33 902.08 2 905 Z M-285 921 C-285.68 921.28 -286.36 921.56 -287.06 921.84 C-309.36 931.3 -323.7 948.57 -333.5 970.33 C-341.81 991.21 -342.08 1014.39 -333.31 1035.13 C-326.98 1049.34 -319.32 1063.3 -309 1075 C-307.92 1076.24 -307.92 1076.24 -306.82 1077.51 C-304.58 1080.04 -302.3 1082.53 -300 1085 C-299.33 1085.74 -298.65 1086.48 -297.96 1087.24 C-269.99 1116.73 -231.23 1126.55 -192 1128.19 C-176.76 1128.47 -163.19 1126.3 -149.03 1120.78 C-138.91 1116.89 -128.67 1113.92 -118 1112 C-116.98 1111.81 -115.95 1111.62 -114.9 1111.43 C-109.3 1110.81 -103.75 1110.86 -98.12 1110.88 C-96.99 1110.87 -95.86 1110.87 -94.69 1110.86 C-88.38 1110.87 -82.26 1111.16 -76 1112 C-77.34 1108.34 -79 1105.34 -81.19 1102.12 C-90.69 1087.39 -95.63 1071.68 -98.39 1054.46 C-98.8 1051.16 -98.8 1051.16 -100 1049 C-104.9 1049.63 -109.28 1051.09 -113.88 1052.81 C-154.55 1067.5 -203.31 1066.28 -242.79 1048.18 C-260.95 1039.62 -274.77 1027.15 -282 1008 C-286.84 994.08 -285.64 977.99 -280.2 964.44 C-275.85 955.58 -270.25 951.02 -260.94 947.81 C-251.51 944.77 -241.07 942.71 -231.69 946.94 C-223.04 951.95 -218.4 959.35 -214.42 968.3 C-212.55 971.86 -210.68 974.35 -206.86 975.83 C-206.16 975.97 -205.47 976.11 -204.75 976.25 C-203.51 976.5 -202.27 976.74 -201 977 C-201 978.65 -201 980.3 -201 982 C-203.97 982.99 -203.97 982.99 -207 984 C-206.5 984.37 -206.01 984.74 -205.5 985.12 C-203.4 987.75 -203.78 989.74 -204 993 C-207.3 992.67 -210.6 992.34 -214 992 C-214.71 993.03 -214.71 993.03 -215.43 994.08 C-216.05 994.98 -216.67 995.88 -217.31 996.81 C-217.93 997.71 -218.54 998.6 -219.18 999.52 C-220.68 1001.56 -222.15 1003.28 -224 1005 C-219.42 1007.68 -216.3 1008.49 -211 1008 C-197.85 1000.43 -190.64 987.93 -186 974 C-185.06 962.3 -186.61 952.2 -194.2 942.96 C-208.38 927.55 -228.33 916.63 -249.53 915.63 C-262.18 915.37 -273.26 916.14 -285 921 Z M-17 955 C-17.28 955.57 -17.55 956.14 -17.84 956.73 C-23.96 969.37 -30.44 981.55 -38.05 993.36 C-40.38 997.39 -40.85 1001.5 -40 1006 C-35.95 1015.54 -29.12 1022.71 -22 1030 C-20.92 1031.19 -20.92 1031.19 -19.82 1032.4 C-12.64 1040.11 -3.05 1047.49 7 1051 C6.77 1049.77 6.54 1048.54 6.31 1047.27 C3.7 1032.59 2.53 1021.1 11 1008 C16.68 1000.41 24.81 996.37 33 992 C34.79 991 36.59 990 38.38 989 C39.58 988.33 40.79 987.67 42 987 C39.23 985.15 36.8 984.21 33.66 983.2 C16.27 977.56 1.27 968.75 -12.62 956.94 C-14.75 954.79 -14.75 954.79 -17 955 Z M-50 1008 C-52.04 1010.11 -53.99 1012.24 -55.94 1014.44 C-62.45 1021.61 -69.41 1027.61 -77.21 1033.37 C-77.75 1033.77 -78.29 1034.17 -78.84 1034.58 C-80.34 1035.68 -81.86 1036.77 -83.37 1037.86 C-87.55 1041.26 -90.07 1043.86 -90.85 1049.28 C-91.17 1053.92 -90.54 1058.06 -89.44 1062.56 C-89.16 1063.72 -89.16 1063.72 -88.88 1064.91 C-85.18 1079.9 -79.51 1096.24 -68 1107 C-67.68 1106.39 -67.36 1105.78 -67.03 1105.16 C-54.73 1081.98 -54.73 1081.98 -48 1074 C-47.43 1073.3 -46.85 1072.61 -46.26 1071.89 C-36.81 1061.44 -22.93 1054.48 -9 1053 C-9 1052.34 -9 1051.68 -9 1051 C-10.73 1049.63 -12.51 1048.33 -14.31 1047.06 C-28.85 1036.41 -38.11 1022.83 -48 1008 C-48.66 1008 -49.32 1008 -50 1008 Z " fill="#000000" transform="translate(824,111)"/>
<path d="M0 0 C11.36 9.54 11.36 9.54 12 15 C8.79 13.49 5.94 11.66 3 9.69 C1.01 8.44 -0.99 7.21 -3 6 C-4.28 5.22 -4.28 5.22 -5.58 4.43 C-16.24 -1.02 -30.06 -0.54 -41.61 1.7 C-44.27 2.59 -46.56 3.61 -49 5 C-49.78 5.44 -50.56 5.87 -51.36 6.32 C-59.91 11.58 -66.28 18.86 -72 27 C-73.47 22.69 -72.26 20.4 -70.36 16.43 C-63.92 4.9 -54.31 -3.51 -41.79 -7.75 C-27.42 -11.49 -12.07 -8.53 0 0 Z " fill="#000000" transform="translate(628,362)"/>
<path d="M0 0 C0.66 0 1.32 0 2 0 C2 0.66 2 1.32 2 2 C1.34 2 0.68 2 0 2 C0 1.34 0 0.68 0 0 Z " fill="#000000" transform="translate(758,1045)"/>
</g>
</svg>
