<?xml version='1.0' encoding='UTF-8'?>
<svg xmlns="http://www.w3.org/2000/svg" width="297" height="210" viewBox="0 0 297 210">
  <rect x="0" y="0" width="297" height="210" fill="white"/>
  <g transform="translate(74.5,31.0) scale(0.115625)"><path d="M0 0 C0.68 -0 1.36 -0.01 2.05 -0.01 C5.66 -0.02 9.27 -0.03 12.88 -0.04 C15.79 -0.04 18.7 -0.06 21.61 -0.08 C124.57 -0.88 124.57 -0.88 151.31 23.68 C154.66 26.5 158.18 27.51 162.41 28.41 C163.15 28.59 163.89 28.76 164.65 28.94 C166.22 29.31 167.79 29.67 169.37 30.03 C173.45 30.95 177.52 31.94 181.59 32.94 C182.38 33.13 183.18 33.32 183.99 33.52 C200.67 37.64 220.71 43.97 230.55 59.2 C232.79 65.53 232.81 69.86 230.61 76.2 C230.28 77.19 229.95 78.18 229.61 79.2 C230.56 79.59 231.51 79.98 232.48 80.38 C252.1 88.62 271.16 98.17 283.61 116.08 C285.31 121.39 285.8 127.15 283.75 132.43 C282.56 134.53 281.32 136.49 279.61 138.2 C279.38 143.6 281.01 146.04 284.61 150.02 C286.27 151.76 287.93 153.49 289.61 155.2 C299.32 165.28 309.35 177.23 309.99 191.83 C309.81 197.04 308.37 201.45 304.61 205.2 C303.65 211.86 306.2 215.53 309.74 220.83 C325.89 246.09 325.89 246.09 323.61 260.2 C321.89 265.09 320.03 269.08 315.93 272.33 C313.61 273.2 313.61 273.2 311.61 273.2 C311.88 273.67 312.15 274.13 312.43 274.61 C329.56 304.82 329.56 304.82 327.61 318.2 C325.8 324.06 322.76 327.94 317.61 331.2 C315.55 331.62 315.55 331.62 313.41 331.83 C312.16 331.95 310.9 332.08 309.61 332.2 C309.84 332.85 310.07 333.49 310.3 334.15 C322.74 369.72 326.33 405.7 312.24 441.45 C310.61 445.76 310.08 448.7 311.61 453.2 C314.76 456.62 318.17 459.56 321.8 462.45 C326.43 466.2 330.89 470.08 335.29 474.1 C337.33 475.94 339.4 477.73 341.49 479.52 C355.13 491.48 375.42 509.72 376.82 529.01 C376.97 539.35 376.97 539.35 373.61 544.2 C373.04 544.68 372.46 545.15 371.86 545.64 C370.31 547.27 370.31 547.27 370.43 550.27 C371.76 557 377.77 562.1 382.13 567.07 C396.76 583.84 417.04 608.31 416.01 631.92 C415.18 636.69 412.97 640.61 409.86 644.27 C407.95 647.22 408.07 649.83 408.61 653.2 C410.07 657.4 411.91 661.41 413.74 665.45 C417.27 673.52 420.63 681.53 423.24 689.95 C423.47 690.71 423.71 691.46 423.95 692.24 C426.49 700.72 429.11 711.5 425.41 719.94 C422.94 723.75 420.44 726.7 416.61 729.2 C415.95 729.2 415.29 729.2 414.61 729.2 C414.9 729.88 415.18 730.55 415.47 731.24 C434.17 776.2 434.17 776.2 427.05 794.52 C424.45 799.19 420.38 802.82 415.61 805.2 C415.41 811.73 416.06 817.42 417.55 823.77 C420.9 838.43 424.33 857.59 416.86 871.45 C411.75 877.7 408.3 879.7 400.39 881.04 C397.31 881.22 394.63 880.82 391.61 880.2 C391.69 881.16 391.76 882.12 391.83 883.11 C395 928.18 395 928.18 384.61 942.2 C380.58 946.13 376.37 948.2 370.63 948.2 C365.81 947.76 362.02 946.17 357.61 944.2 C357.65 945.26 357.68 946.31 357.72 947.39 C358.05 961.96 357.15 979.27 347.8 991.2 C344.13 995.02 340.37 996.98 335.02 997.41 C328.24 997.52 328.24 997.52 325.61 996.2 C325.57 997.44 325.57 997.44 325.54 998.7 C324.87 1012.26 323.01 1029.48 312.47 1039.17 C308.07 1042.35 304.15 1044.3 298.61 1044.2 C295.51 1043.44 292.58 1042.39 289.61 1041.2 C288.1 1040.62 288.1 1040.62 286.55 1040.02 C285.59 1039.61 285.59 1039.61 284.61 1039.2 C284.53 1040.46 284.45 1041.72 284.36 1043.02 C283.14 1053.92 278.66 1062.85 270.39 1070 C265.83 1073.08 259.9 1072.78 254.61 1072.2 C249.1 1070.44 245.57 1067.39 241.61 1063.2 C240.95 1063.2 240.29 1063.2 239.61 1063.2 C239.1 1064.31 239.1 1064.31 238.58 1065.44 C235.46 1072.18 232.34 1078.91 229.2 1085.63 C227.46 1089.38 225.73 1093.13 224.02 1096.89 C211.35 1124.44 194.94 1156.16 169.61 1174.2 C159.24 1170.65 152.03 1160.64 145.61 1152.2 C144.83 1151.19 144.05 1150.17 143.25 1149.13 C138.08 1142.23 133.67 1135.02 129.43 1127.52 C128.91 1126.61 128.4 1125.7 127.87 1124.77 C124.11 1118.12 124.11 1118.12 122.56 1115.27 C119.29 1109.26 116.24 1104.6 109.73 1101.94 C96.42 1098.79 81.78 1101.68 68.37 1103.06 C56.46 1104.28 44.59 1104.96 32.61 1105.2 C31.15 1105.24 31.15 1105.24 29.66 1105.27 C6.27 1105.73 -17.11 1104.31 -40.28 1101.17 C-51.32 1099.61 -51.32 1099.61 -62.2 1101.39 C-63.26 1101.72 -63.26 1101.72 -64.34 1102.06 C-69.9 1105.17 -72.41 1111.78 -75.26 1117.2 C-84 1133.4 -94.07 1148.51 -106.39 1162.2 C-107.7 1163.74 -109.01 1165.29 -110.32 1166.83 C-113.32 1170.33 -115.62 1172.94 -120.33 1173.64 C-126.07 1172.82 -129.46 1168.19 -133.39 1164.2 C-134.39 1163.19 -134.39 1163.19 -135.42 1162.16 C-160.37 1135.63 -178.42 1096.71 -191.39 1063.2 C-195.27 1065.1 -198.71 1067.41 -202.27 1069.86 C-207.26 1073.02 -212.68 1072.95 -218.39 1072.2 C-225.06 1069.92 -228.27 1065.39 -231.32 1059.27 C-234.41 1052.67 -236.75 1046.56 -236.39 1039.2 C-236.9 1039.49 -237.41 1039.78 -237.93 1040.08 C-244.39 1043.37 -250.19 1044.29 -257.39 1043.2 C-263.63 1041.12 -267 1036.76 -270.08 1031.13 C-274.05 1022.25 -275.85 1012.56 -277.77 1003.07 C-278.34 1000.15 -278.34 1000.15 -279.39 997.2 C-280.1 997.25 -280.81 997.3 -281.55 997.34 C-288.2 997.59 -292.05 997.26 -297.39 993.2 C-310 981.49 -309.72 961.14 -310.39 945.2 C-311 945.43 -311.62 945.66 -312.26 945.89 C-319.67 948.41 -325.37 949.09 -332.57 945.7 C-341.13 938.09 -344.38 928.34 -345.39 917.2 C-345.54 914.43 -345.58 911.67 -345.57 908.89 C-345.57 908.13 -345.58 907.37 -345.58 906.59 C-345.5 897.73 -344.48 888.98 -343.39 880.2 C-344.3 880.26 -345.22 880.32 -346.17 880.38 C-358.55 880.83 -358.55 880.83 -363.7 876.96 C-371.93 868.35 -372.75 859.68 -372.61 848.36 C-372.31 838.29 -370.55 828.23 -368.32 818.41 C-366.83 811.85 -366.83 811.85 -367.39 805.2 C-370.06 802.9 -370.06 802.9 -373.39 801.2 C-378.69 795.96 -380.88 791.03 -381.41 783.7 C-381.31 768.85 -376.85 754.78 -371.56 741.05 C-369.87 736.66 -368.87 732.85 -368.39 728.2 C-369.11 728.04 -369.83 727.87 -370.57 727.7 C-374.93 725.38 -376.81 722.9 -378.39 718.2 C-381.8 695.07 -370.11 672.8 -359.7 652.92 C-358.6 650.63 -357.86 648.68 -357.39 646.2 C-357.94 646 -358.5 645.79 -359.07 645.58 C-362.77 643.38 -365.46 640.07 -367.39 636.2 C-369.72 615.53 -356.78 595.66 -344.54 580.12 C-343.49 578.82 -342.44 577.51 -341.39 576.2 C-340.84 575.51 -340.28 574.82 -339.72 574.1 C-333.93 566.83 -328.07 559.65 -321.78 552.8 C-320.3 551.24 -320.3 551.24 -319.39 549.2 C-319.96 549 -320.54 548.79 -321.14 548.58 C-325.25 546.06 -326.96 542.27 -328.7 537.89 C-330.88 526.21 -324.91 516.05 -318.62 506.52 C-316.95 504.33 -315.21 502.26 -313.39 500.2 C-312.39 499.04 -312.39 499.04 -311.37 497.86 C-302.14 487.35 -292.31 477.94 -281.39 469.2 C-270.16 460.65 -270.16 460.65 -262.39 449.2 C-262.77 444.94 -264 441.48 -265.7 437.58 C-269.21 428.75 -270.79 419.53 -272.39 410.2 C-272.68 408.56 -272.68 408.56 -272.98 406.88 C-275.69 382.38 -272.53 354.49 -261.39 332.2 C-262.38 332.16 -263.37 332.12 -264.39 332.08 C-269.38 331.35 -272.87 328.71 -276.39 325.2 C-280.45 318.6 -280.32 312.22 -278.61 304.86 C-275.39 294.16 -270.04 284.79 -264.39 275.2 C-265.56 274.28 -265.56 274.28 -266.75 273.34 C-272.03 269.06 -274.41 264.95 -275.39 258.2 C-275.92 251.84 -275.03 246.95 -272.45 241.14 C-271.99 240.06 -271.99 240.06 -271.51 238.95 C-268.6 232.33 -265.15 226.03 -261.5 219.79 C-261.16 219.2 -260.81 218.6 -260.46 217.99 C-259.72 216.75 -258.95 215.53 -258.16 214.33 C-256.82 212.3 -256.82 212.3 -255.39 209.2 C-255.87 206.93 -255.87 206.93 -257.39 205.2 C-261.25 198.87 -262.5 193.64 -261.39 186.2 C-256.63 169.14 -242.96 154.14 -229.39 143.2 C-230.51 140.68 -231.71 138.81 -233.45 136.64 C-237.52 131.53 -236.93 125.45 -236.39 119.2 C-233.32 107.27 -220.29 99.21 -210.39 93.2 C-201.05 87.79 -191.47 83.07 -181.39 79.2 C-181.9 78.07 -182.42 76.93 -182.95 75.77 C-184.98 70.26 -184.82 65.5 -182.48 60.1 C-177.84 51.96 -170.99 47.25 -162.82 43.08 C-162.22 42.77 -161.61 42.45 -160.99 42.13 C-148.12 35.85 -134.32 32.9 -120.39 30.08 C-117.92 29.58 -115.45 29.07 -112.99 28.56 C-111.47 28.24 -109.95 27.94 -108.44 27.63 C-102.37 26.37 -96.67 24.65 -91.95 20.45 C-73.82 6.58 -47.39 3.66 -25.39 1.2 C-24.61 1.12 -23.82 1.03 -23.02 0.94 C-15.34 0.16 -7.71 0.03 0 0 Z M-38.39 14.2 C-39.36 14.35 -40.34 14.49 -41.34 14.64 C-56.78 17 -77.96 20.41 -88.7 32.89 C-93.18 36.75 -98.7 37.13 -104.39 38.2 C-140.45 44.27 -140.45 44.27 -171.39 62.2 C-172.94 65.3 -172.68 67.78 -172.39 71.2 C-169.52 76.44 -164.54 78.62 -159.39 81.2 C-164.38 83.77 -169.4 86.1 -174.59 88.25 C-203.93 99.58 -203.93 99.58 -225.39 121.2 C-225.97 124.58 -225.97 124.58 -225.39 128.2 C-221.25 132.87 -216.4 134.79 -210.39 136.2 C-209.4 136.2 -208.41 136.2 -207.39 136.2 C-213.15 142.97 -219.09 149.52 -225.95 155.2 C-235.81 163.55 -248.65 178.35 -250.95 191.39 C-250.13 195.5 -248.82 196.8 -245.39 199.2 C-242.05 199.9 -238.79 200.13 -235.39 200.2 C-237.66 204.47 -240.17 208.33 -243.07 212.2 C-253.34 226.13 -265.42 243.18 -263.39 261.2 C-260.96 263.63 -260.29 263.5 -256.95 263.52 C-252.92 263.42 -249.41 262.8 -245.54 261.68 C-244.57 261.41 -243.6 261.13 -242.6 260.85 C-241.87 260.64 -241.14 260.42 -240.39 260.2 C-241.04 261.1 -241.04 261.1 -241.7 262.01 C-249.07 272.25 -256.38 282.46 -262.26 293.64 C-262.86 294.76 -262.86 294.76 -263.47 295.91 C-267.05 302.97 -269.76 310.56 -267.82 318.52 C-266 320.65 -264.41 321.06 -261.65 321.31 C-254.98 320.99 -248.52 318.7 -242.39 316.2 C-242.84 317.27 -242.84 317.27 -243.3 318.35 C-259.6 356.82 -269.99 394.62 -254.39 435.2 C-253.08 438.08 -251.75 440.93 -250.3 443.74 C-248.94 447.4 -248.75 450.6 -250.2 454.26 C-255.78 462.81 -263.09 468.88 -271.1 475.06 C-275.64 478.57 -279.94 482.27 -284.16 486.16 C-286.19 488.03 -288.28 489.8 -290.39 491.58 C-297.81 498.09 -304.08 505.52 -309.82 513.52 C-310.24 514.09 -310.65 514.66 -311.08 515.26 C-314.81 520.58 -317.81 525.19 -317.89 531.83 C-317.93 533.21 -317.93 533.21 -317.98 534.62 C-317.57 537.38 -317.57 537.38 -315.31 539.46 C-311.82 541.54 -309.1 542 -305.07 542.45 C-303.82 542.6 -302.57 542.75 -301.27 542.91 C-300.32 543 -299.37 543.1 -298.39 543.2 C-301.52 546.96 -304.68 550.54 -308.2 553.95 C-312.11 557.81 -315.55 561.95 -318.98 566.24 C-321.05 568.79 -323.17 571.27 -325.33 573.74 C-346.75 598.38 -346.75 598.38 -356.76 628.45 C-356.37 632.38 -355.99 634.26 -353.39 637.2 C-348.99 639.3 -345.19 639.27 -340.39 639.2 C-341.06 640.54 -341.06 640.54 -341.75 641.89 C-343.55 645.47 -345.33 649.05 -347.11 652.64 C-347.98 654.39 -348.85 656.13 -349.73 657.88 C-363.57 684.25 -363.57 684.25 -367.39 713.2 C-366.22 715.68 -365.29 717.3 -363.39 719.2 C-358.21 719.51 -354.24 718.79 -349.39 717.2 C-350.79 721.9 -352.73 726.22 -354.81 730.64 C-358.57 738.64 -362.11 746.62 -364.89 755.02 C-365.12 755.71 -365.35 756.41 -365.58 757.13 C-368.1 765.06 -369.75 772.67 -369.76 781.02 C-369.79 781.75 -369.81 782.49 -369.84 783.25 C-369.86 786.82 -369.71 788.79 -367.49 791.65 C-363.66 794.48 -361.14 794.44 -356.39 794.2 C-354.37 793.57 -352.37 792.91 -350.39 792.2 C-350.65 793.22 -350.91 794.23 -351.18 795.27 C-352.17 799.1 -353.15 802.93 -354.12 806.76 C-354.54 808.4 -354.96 810.05 -355.39 811.69 C-363.2 839.22 -363.2 839.22 -358.39 866.2 C-356.06 868.86 -354.76 869.14 -351.26 869.7 C-342.09 868.52 -335.41 862.81 -328.39 857.2 C-328.5 857.88 -328.62 858.56 -328.74 859.26 C-329.27 862.39 -329.8 865.51 -330.32 868.64 C-330.51 869.71 -330.69 870.78 -330.88 871.88 C-332.66 882.5 -333.62 892.68 -333.68 903.47 C-333.69 904.83 -333.71 906.19 -333.74 907.55 C-333.94 916.82 -334 927.31 -327.98 935 C-325.65 936.76 -323.4 936.74 -320.55 936.6 C-312.9 935.19 -307.62 928.68 -302.49 923.31 C-300.39 921.2 -300.39 921.2 -298.39 920.2 C-298.4 921.44 -298.42 922.67 -298.43 923.94 C-298.49 928.58 -298.52 933.22 -298.55 937.86 C-298.57 939.86 -298.59 941.85 -298.61 943.85 C-299.34 965.3 -299.34 965.3 -290.39 984.2 C-287.11 985.84 -283.91 985.87 -280.39 985.2 C-277.42 983.53 -274.95 981.43 -272.39 979.2 C-270.72 977.87 -269.06 976.53 -267.39 975.2 C-267.42 976.1 -267.46 977 -267.49 977.93 C-267.85 994.94 -267.58 1017.4 -256.39 1031.2 C-253.98 1032.41 -252.74 1032.25 -250.07 1032.02 C-249.31 1031.96 -248.56 1031.9 -247.77 1031.85 C-242.12 1030.32 -239.01 1025.67 -235.7 1021.14 C-234.93 1020.1 -234.17 1019.05 -233.38 1017.98 C-232.01 1016.08 -230.68 1014.15 -229.39 1012.2 C-229.32 1012.92 -229.25 1013.63 -229.17 1014.37 C-228.08 1039.55 -228.08 1039.55 -216.57 1060.7 C-213.05 1061.51 -210.89 1061.2 -207.39 1060.2 C-204.11 1057.82 -201.25 1055.07 -198.39 1052.2 C-198.1 1047.3 -198.67 1043.55 -200.33 1038.94 C-200.74 1037.75 -201.16 1036.57 -201.59 1035.34 C-201.81 1034.72 -202.03 1034.1 -202.26 1033.46 C-210.72 1009.62 -216.39 985.16 -220.39 960.2 C-220.54 959.25 -220.7 958.29 -220.85 957.3 C-224.24 935.46 -224.56 913.26 -225.39 891.2 C-219.87 895.93 -214.58 900.82 -209.45 905.95 C-208.75 906.65 -208.05 907.35 -207.33 908.08 C-202.74 912.72 -198.48 917.45 -194.45 922.59 C-192.23 925.4 -189.91 928.11 -187.57 930.83 C-177.12 943.41 -168.36 957.19 -159.64 971 C-158.99 972.04 -158.33 973.07 -157.66 974.14 C-157.08 975.07 -156.49 975.99 -155.89 976.95 C-154.44 979.28 -154.44 979.28 -152.39 981.2 C-152.24 980.27 -152.1 979.35 -151.95 978.39 C-145.67 938.47 -138.86 895.59 -120.39 859.2 C-105.55 898.18 -94.13 937.61 -89.39 979.2 C-88.4 979.2 -87.41 979.2 -86.39 979.2 C-84.47 976.77 -84.47 976.77 -82.57 973.52 C-81.77 972.23 -80.97 970.94 -80.17 969.65 C-79.73 968.94 -79.29 968.23 -78.83 967.5 C-62.96 942.26 -45.02 919.68 -24.39 898.2 C-23.83 897.62 -23.28 897.04 -22.71 896.44 C-20.3 893.94 -18.73 892.32 -15.39 891.2 C-17.77 949.69 -24.98 1004.35 -48.39 1058.57 C-48.74 1059.37 -49.08 1060.17 -49.44 1060.99 C-51.16 1064.96 -52.89 1068.92 -54.65 1072.87 C-55.28 1074.31 -55.92 1075.76 -56.55 1077.2 C-56.86 1077.87 -57.16 1078.53 -57.47 1079.22 C-59.23 1083.09 -59.23 1083.09 -58.39 1087.2 C-54.49 1087.84 -50.6 1088.46 -46.7 1089.08 C-45.1 1089.34 -45.1 1089.34 -43.47 1089.61 C-39.78 1090.19 -36.09 1090.71 -32.39 1091.2 C-31.33 1091.34 -31.33 1091.34 -30.25 1091.49 C-14.06 1093.55 2.16 1093.55 18.46 1093.52 C21.5 1093.51 24.55 1093.52 27.6 1093.54 C53.72 1093.69 81.12 1093.58 106.61 1087.2 C106.94 1086.54 107.27 1085.88 107.61 1085.2 C106.77 1082.86 105.86 1080.63 104.85 1078.36 C104.23 1076.91 103.6 1075.46 102.98 1074.01 C102.64 1073.23 102.31 1072.46 101.96 1071.67 C76.81 1013.42 65.6 954.47 63.61 891.2 C76.3 902.01 88.6 913.85 98.61 927.2 C99.34 928.15 99.34 928.15 100.08 929.12 C108.85 940.64 116.96 952.55 124.92 964.64 C128.39 969.9 131.97 975.07 135.61 980.2 C136.27 979.87 136.93 979.54 137.61 979.2 C138.26 976.3 138.26 976.3 138.66 972.72 C138.84 971.33 139.02 969.94 139.21 968.55 C139.31 967.81 139.4 967.07 139.5 966.31 C144.31 929.62 155.38 894.99 167.61 860.2 C168.27 860.2 168.93 860.2 169.61 860.2 C182.72 894.52 192.22 928.86 197.66 965.22 C197.78 965.99 197.89 966.76 198.01 967.55 C198.23 968.99 198.45 970.43 198.65 971.87 C199.17 975.32 199.81 978.2 201.61 981.2 C202.26 980.12 202.9 979.05 203.56 977.93 C214.19 960.25 225.75 943.33 238.61 927.2 C239.07 926.62 239.54 926.04 240.01 925.45 C246.73 917.09 254.17 909.47 261.74 901.89 C262.21 901.42 262.69 900.94 263.17 900.45 C271.24 892.39 271.24 892.39 273.61 891.2 C271.81 940.69 265.9 987.44 250.43 1034.74 C248.5 1040.82 246.29 1048 248.8 1054.08 C249.4 1054.78 250 1055.48 250.61 1056.2 C251.17 1056.95 251.73 1057.69 252.3 1058.45 C255.59 1060.94 258.51 1061.63 262.61 1061.2 C269.42 1057.41 271.18 1051.23 273.23 1044.04 C274.81 1037.19 275.29 1030.14 275.92 1023.16 C275.99 1022.32 276.07 1021.48 276.15 1020.62 C276.21 1019.86 276.28 1019.11 276.35 1018.33 C276.61 1016.23 277.05 1014.25 277.61 1012.2 C278.24 1013.14 278.87 1014.09 279.52 1015.05 C286.08 1025.18 286.08 1025.18 295.61 1032.2 C299.24 1033.12 299.24 1033.12 302.61 1032.2 C309.9 1026.95 311.78 1018.63 313.24 1010.2 C315.11 998.63 315.82 986.89 316.61 975.2 C317.38 975.98 318.15 976.76 318.95 977.56 C324.79 983.36 324.79 983.36 332.43 985.64 C336.03 985.58 336.51 985.29 339.43 982.77 C348.18 970.14 346.89 952.53 346.74 937.89 C346.73 936.17 346.72 934.44 346.71 932.72 C346.69 928.55 346.65 924.38 346.61 920.2 C351.36 924.34 356.08 928.5 360.75 932.72 C363.85 935.19 366.11 936.14 370.05 936.64 C373.73 936.5 373.73 936.5 376.43 934.02 C386.83 920.64 381.76 896.91 379.82 881.29 C378.8 873.26 377.73 865.23 376.61 857.2 C377.08 857.53 377.55 857.86 378.03 858.2 C380.16 859.68 382.29 861.16 384.43 862.64 C385.16 863.16 385.9 863.67 386.66 864.21 C387.37 864.7 388.09 865.19 388.82 865.7 C389.47 866.15 390.13 866.61 390.8 867.08 C394.68 869.49 398.15 869.59 402.61 869.2 C406.23 867.19 407.37 865.9 408.73 861.97 C413.95 839.7 404.62 813.22 397.61 792.2 C398.6 792.53 399.59 792.86 400.61 793.2 C404.8 794.38 408.26 794.63 412.61 794.2 C415.58 792 416.44 790.72 417.61 787.2 C420.11 764.68 407.84 741.15 398.53 721.38 C397.61 719.2 397.61 719.2 397.61 717.2 C398.25 717.53 398.89 717.86 399.55 718.2 C403.53 719.5 407.46 719.93 411.61 719.2 C414.07 717.29 414.6 716.24 415.61 713.2 C416.01 706.79 414.93 701.46 413.11 695.33 C412.84 694.4 412.57 693.48 412.29 692.53 C409.51 683.36 405.77 674.83 401.61 666.2 C400.78 664.45 399.94 662.71 399.11 660.96 C395.64 653.69 392.13 646.44 388.61 639.2 C389.38 639.15 390.14 639.1 390.93 639.04 C391.92 638.96 392.92 638.88 393.95 638.8 C394.94 638.73 395.93 638.65 396.95 638.57 C399.73 638.36 399.73 638.36 402.24 636.64 C405.02 631.71 405.08 627.12 403.74 621.77 C397.64 603.82 385.67 588.51 373.61 574.2 C372.78 573.2 371.95 572.19 371.1 571.16 C365.37 564.26 359.39 557.64 353.21 551.14 C352.64 550.54 352.07 549.94 351.48 549.32 C350.98 548.79 350.47 548.26 349.95 547.71 C348.61 546.2 348.61 546.2 346.61 543.2 C347.57 543.12 348.52 543.03 349.5 542.94 C350.75 542.8 352.01 542.66 353.3 542.52 C354.54 542.39 355.78 542.26 357.06 542.13 C361.29 541.03 362.93 539.61 365.61 536.2 C367.17 527.01 361.98 519.96 356.86 512.7 C346.77 499.29 334.57 486.83 321.4 476.42 C317.63 473.42 313.99 470.29 310.33 467.16 C306.45 463.85 302.44 460.81 298.22 457.93 C295.83 455.36 295.65 453.71 295.61 450.2 C296.54 447.27 297.87 444.58 299.24 441.83 C315.55 407.05 312.05 373.04 299.29 337.68 C295.4 326.75 295.4 326.75 290.61 316.2 C291.63 316.56 292.64 316.93 293.68 317.3 C295.03 317.77 296.39 318.23 297.74 318.7 C298.74 319.06 298.74 319.06 299.75 319.43 C303.83 320.82 307.25 321.59 311.61 321.2 C314.21 320.02 314.21 320.02 315.61 317.2 C318.93 299 302.47 280.26 292.78 266.2 C291.39 264.2 290.01 262.2 288.61 260.2 C289.35 260.42 290.09 260.63 290.84 260.85 C291.82 261.12 292.8 261.4 293.8 261.68 C294.76 261.96 295.73 262.23 296.72 262.52 C300.66 263.45 304.59 263.85 308.61 263.2 C311.77 261.59 311.77 261.59 312.12 259.13 C312.58 238.61 296.88 218.8 284.66 203.62 C283.61 202.2 283.61 202.2 283.61 201.2 C284.88 200.91 284.88 200.91 286.17 200.62 C287.26 200.36 288.36 200.1 289.49 199.83 C290.58 199.57 291.67 199.32 292.79 199.05 C295.72 198.41 295.72 198.41 297.61 196.2 C299.27 189.47 297.49 183.83 294.05 178.02 C286.66 166.16 276.25 156.23 265.77 147.1 C257.37 139.72 257.37 139.72 255.61 136.2 C256.27 136.09 256.92 135.98 257.59 135.87 C262.7 134.94 267.12 133.97 271.61 131.2 C273.55 127.32 273.51 123.4 272.61 119.2 C261.02 101.28 229.1 88.91 209.61 83.2 C208.62 83.2 207.63 83.2 206.61 83.2 C209.84 79.55 213.61 77.15 217.69 74.57 C219.74 73.34 219.74 73.34 220.61 71.2 C221.1 68.23 221.14 66.13 219.62 63.46 C212.76 54.75 202.34 51 192.11 47.7 C190.95 47.32 189.79 46.93 188.59 46.54 C179.31 43.55 169.95 41.25 160.37 39.49 C153.74 38.16 149.17 36.02 143.81 31.88 C129.2 20.7 107.36 17.68 89.61 15.2 C88.31 15.02 87.01 14.84 85.67 14.65 C45.18 9.13 2.07 7.88 -38.39 14.2 Z M168.61 889.2 C165.4 896.01 163.4 903.16 161.36 910.39 C161.07 911.43 161.07 911.43 160.77 912.48 C152.14 943.25 147.32 974.7 145.26 1006.56 C145.15 1008.19 145.15 1008.19 145.04 1009.85 C144.98 1010.81 144.92 1011.77 144.86 1012.76 C144.61 1015.2 144.61 1015.2 143.61 1018.2 C143.16 1017.28 142.71 1016.36 142.25 1015.41 C126.6 983.55 107.64 953.37 84 926.79 C81.91 924.4 79.87 921.96 77.83 919.51 C77.43 919.08 77.03 918.65 76.61 918.2 C76.28 918.2 75.95 918.2 75.61 918.2 C71.11 995.4 111.04 1096.03 161.61 1154.2 C163.56 1156.27 165.55 1158.24 167.61 1160.2 C182.61 1153.81 193.69 1130.08 201.32 1116.49 C202.2 1114.94 203.08 1113.39 203.97 1111.85 C237.87 1052.9 260.4 985.47 262.61 917.2 C232.03 940.99 210.93 983.49 193.61 1017.2 C192.48 1013.8 192.3 1010.88 192.07 1007.3 C191.97 1005.86 191.87 1004.41 191.76 1002.97 C191.71 1002.2 191.66 1001.44 191.6 1000.65 C188.82 962.68 181.24 925.46 169.61 889.2 C169.28 889.2 168.95 889.2 168.61 889.2 Z M-121.39 890.2 C-125.5 902.7 -129.05 915.19 -131.95 928.02 C-132.24 929.27 -132.24 929.27 -132.53 930.56 C-139.05 959.3 -145.11 989.57 -144.39 1019.2 C-145.05 1019.2 -145.71 1019.2 -146.39 1019.2 C-146.66 1018.49 -146.94 1017.78 -147.22 1017.05 C-160.88 983.72 -181.88 953.38 -205.14 926.08 C-205.61 925.52 -206.09 924.96 -206.58 924.38 C-208.99 921.6 -211.42 919.35 -214.39 917.2 C-211.34 974.88 -196.2 1028.53 -171.59 1080.63 C-170.5 1082.96 -169.43 1085.3 -168.38 1087.66 C-150.51 1127.7 -150.51 1127.7 -121.39 1159.2 C-116.33 1158.72 -113.55 1154.82 -110.39 1151.2 C-108.15 1148.33 -106.1 1145.36 -104.07 1142.33 C-103.51 1141.49 -102.94 1140.64 -102.36 1139.78 C-61.55 1078.56 -26.4 999.43 -27.32 924.58 C-27.33 923.5 -27.33 923.5 -27.34 922.4 C-27.35 920.67 -27.37 918.94 -27.39 917.2 C-56.04 945.29 -77.73 982.5 -95.39 1018.2 C-95.52 1016.71 -95.52 1016.71 -95.66 1015.19 C-99.15 977.01 -104.51 939.44 -115.64 902.64 C-115.98 901.51 -116.32 900.38 -116.67 899.21 C-117 898.18 -117.32 897.14 -117.65 896.07 C-117.94 895.16 -118.23 894.24 -118.52 893.29 C-119.19 891.03 -119.19 891.03 -121.39 890.2 Z " fill="#000000" transform="translate(648.38671875,53.796875)"/>
<path d="M0 0 C10.83 9.07 17.91 19.53 20.69 33.44 C21.92 47.43 19.91 60.13 12 72 C8.75 75.82 5.24 79.28 1.62 82.75 C0.72 83.64 -0.19 84.54 -1.12 85.46 C-5.7 89.94 -10.37 94.28 -15.22 98.46 C-22.12 104.42 -28.76 110.67 -35.14 117.18 C-37.01 119.01 -38.94 120.69 -40.94 122.38 C-44.93 125.81 -48.36 129.64 -51.84 133.59 C-53.71 135.68 -55.62 137.66 -57.62 139.62 C-61.3 143.24 -64.65 147.08 -68 151 C-68.78 151.89 -69.56 152.78 -70.36 153.7 C-78.78 163.39 -86.39 173.66 -94 184 C-94.7 184.95 -94.7 184.95 -95.42 185.91 C-108.22 203.16 -119.24 221.61 -129.58 240.42 C-130.83 242.69 -132.09 244.95 -133.36 247.21 C-145.44 269.08 -154.8 292.44 -163 316 C-163.57 317.64 -163.57 317.64 -164.15 319.32 C-169.09 333.62 -173.61 348.03 -177.82 362.56 C-184.36 384.91 -184.36 384.91 -189 388 C-192.44 388.44 -192.44 388.44 -196 388 C-201.43 383.78 -202.36 375.54 -203.27 369.06 C-203.95 363.36 -204.17 357.74 -204.2 352 C-204.21 351.06 -204.22 350.12 -204.22 349.15 C-204.8 250.3 -178.39 152.7 -90.11 28.32 C-88.27 26.3 -86.47 24.25 -84.69 22.19 C-83.46 20.79 -82.23 19.39 -81 18 C-80.57 17.51 -80.15 17.02 -79.71 16.52 C-58.67 -7.49 -29.08 -20.29 0 0 Z M-83 36 C-83.8 36.93 -84.61 37.85 -85.43 38.8 C-141.94 104.1 -177.54 191.52 -192 300 C-192.1 300.96 -192.21 301.92 -192.32 302.91 C-193.33 313.6 -193.15 324.34 -193.13 335.07 C-193.12 338.52 -193.13 341.97 -193.14 345.42 C-193.14 347.63 -193.13 349.83 -193.13 352.03 C-193.13 353.06 -193.14 354.09 -193.14 355.14 C-193.14 356.1 -193.13 357.06 -193.13 358.05 C-193.13 358.89 -193.13 359.72 -193.13 360.59 C-192.99 363.14 -192.56 365.51 -192 368 C-189.66 364.48 -188.68 360.96 -187.53 356.94 C-187.04 355.27 -186.55 353.6 -186.07 351.94 C-185.68 350.62 -185.68 350.62 -185.29 349.28 C-161.87 269.03 -123.44 195.9 -67 134 C-66.26 133.17 -65.53 132.34 -64.77 131.49 C-58.35 124.33 -51.6 117.5 -44.81 110.69 C-44.34 110.21 -43.87 109.74 -43.38 109.25 C-38.32 104.16 -33.22 99.2 -27.78 94.53 C-25.12 92.25 -22.57 89.87 -20 87.5 C-16.6 84.37 -13.19 81.27 -9.69 78.25 C-2.7 72.13 2.67 66.33 7 58 C7.38 57.29 7.75 56.58 8.14 55.86 C10.98 46.45 10.72 33.05 6.5 24.19 C4.87 21.46 4.87 21.46 3 19 C2.42 18.19 1.84 17.37 1.24 16.53 C-5.19 8.46 -14.29 2.67 -24.58 1.21 C-25.38 1.14 -26.18 1.07 -27 1 C-27.79 0.92 -28.58 0.84 -29.39 0.75 C-52.65 -0.48 -69.39 19.69 -83 36 Z " fill="#000000" transform="translate(668,418)"/>
<path d="M0 0 C6.64 4.5 11.73 11.54 14.29 19.16 C16.35 30.3 15.74 41.38 9.29 50.88 C3.72 57.9 -4.35 63.23 -13.24 64.71 C-25.88 65.56 -34.18 64.21 -43.94 55.97 C-52.55 47.53 -55.09 38.53 -55.24 26.71 C-54.61 16.88 -50.04 9.08 -42.99 2.34 C-30.31 -8.07 -14.03 -8.04 0 0 Z " fill="#000000" transform="translate(879.2421875,337.28515625)"/>
<path d="M0 0 C7.92 5.66 12.89 13.22 14.78 22.71 C16.25 33.2 13.96 42.84 7.85 51.43 C2.95 57.53 -3.25 61.9 -10.69 64.38 C-23.8 65.29 -34.33 63.97 -44.75 55.23 C-51.72 48.56 -54.98 40.59 -55.69 31.02 C-55.69 20.71 -52.43 11.69 -45.52 4.04 C-32.62 -7.7 -14.76 -8.97 0 0 Z " fill="#000000" transform="translate(505.6875,337.625)"/>
</g>
</svg>
