<?xml version='1.0' encoding='UTF-8'?>
<svg xmlns="http://www.w3.org/2000/svg" width="297" height="210" viewBox="0 0 297 210">
  <rect x="0" y="0" width="297" height="210" fill="white"/>
  <g transform="translate(74.5,31.0) scale(0.115625)"><path d="M0 0 C0.94 1.81 0.94 1.81 1 4 C-1.03 8.14 -3.34 10.25 -7.12 12.81 C-15.81 18.93 -22.78 25.37 -29 34 C-27.77 33.65 -26.54 33.3 -25.27 32.94 C-23.64 32.48 -22.01 32.02 -20.38 31.56 C-19.16 31.22 -19.16 31.22 -17.93 30.87 C-1.63 26.3 14.91 26.69 31 32 C33 34 33 34 33.5 36.88 C33 40 33 40 30.62 42.06 C27.08 44.09 23.36 45.83 19.66 47.56 C17.39 48.79 15.42 50.08 13.33 51.59 C12.71 52.04 12.08 52.49 11.44 52.96 C10.96 53.3 10.49 53.65 10 54 C11.03 53.99 12.07 53.98 13.13 53.97 C17.01 53.93 20.89 53.91 24.78 53.89 C26.45 53.88 28.12 53.87 29.79 53.85 C53.9 53.6 53.9 53.6 58.77 57.37 C60 59 60 59 60.19 62.31 C58.73 66.85 57.07 67.77 53.26 70.35 C46.23 75.49 42.02 82.45 38 90 C38.46 90.35 38.93 90.7 39.4 91.07 C62.46 108.62 85.47 126.72 102.74 150.28 C104.05 152.06 105.38 153.81 106.72 155.57 C113.85 164.96 120.05 174.82 126 185 C126.42 185.71 126.84 186.43 127.28 187.17 C141.78 211.92 163 248.71 163 278 C163.73 277.79 164.45 277.59 165.2 277.37 C168.51 276.43 171.82 275.5 175.12 274.56 C176.84 274.07 176.84 274.07 178.59 273.58 C179.69 273.26 180.8 272.95 181.95 272.63 C182.96 272.34 183.98 272.05 185.02 271.76 C191.36 270.15 197.38 269.79 203.88 269.75 C204.73 269.73 205.59 269.71 206.48 269.69 C213.14 269.65 218.6 270.53 224.14 274.55 C237.24 289.44 239.77 315.8 238.81 335.06 C237.88 344.73 236.28 351.95 229.35 359.09 C217.92 368.39 199.06 367.65 185 367 C182.65 366.73 180.33 366.38 178 366 C178.16 366.72 178.32 367.43 178.49 368.17 C178.99 370.92 179.15 373.44 179.18 376.23 C179.19 377.25 179.2 378.28 179.22 379.34 C179.22 380.44 179.23 381.55 179.24 382.69 C179.25 383.85 179.26 385.01 179.27 386.21 C179.44 412.41 179.17 438.1 175 464 C174.82 465.16 174.64 466.32 174.45 467.52 C167.94 507.68 153.5 537.54 120.65 561.72 C108.9 570.12 96.3 577.37 83 583 C86.25 586.86 89.57 590.63 93 594.33 C97.26 598.92 101.37 603.55 105.14 608.56 C106.98 610.98 108.88 613.34 110.79 615.7 C139.91 652 159.27 695.18 174 739 C174.59 740.74 174.59 740.74 175.19 742.51 C188.18 781.02 196.98 820.88 204.69 860.73 C209.93 887.44 216.71 912.8 233 935 C233.57 935.83 234.13 936.67 234.72 937.53 C239.55 943.9 245.31 946.02 252.62 948.48 C269.39 954.13 284.64 962.54 293.19 978.62 C300.98 995.17 302.36 1012.46 302.32 1030.47 C302.31 1033.1 302.34 1035.73 302.36 1038.35 C302.46 1065.53 297.05 1091.9 280.45 1113.98 C278.36 1116.81 278.36 1116.81 277 1120 C278.08 1122.42 278.08 1122.42 279.94 1124.94 C287.23 1136.75 290.72 1150.5 293.5 1164 C293.76 1165.25 293.76 1165.25 294.02 1166.52 C295.46 1174.13 295.46 1174.13 294 1178 C290.59 1180.28 287.54 1180.86 283.59 1181.59 C282.47 1181.8 282.47 1181.8 281.33 1182.02 C278.86 1182.48 276.4 1182.93 273.94 1183.38 C273.09 1183.53 272.25 1183.68 271.38 1183.84 C259.17 1186.07 246.95 1187.95 234.62 1189.38 C233.95 1189.45 233.27 1189.53 232.57 1189.61 C228.05 1190.13 223.53 1190.59 219 1191 C217.88 1191.1 216.75 1191.21 215.59 1191.31 C202.22 1192.34 188.8 1192.19 175.4 1192.19 C172.52 1192.19 169.65 1192.19 166.78 1192.21 C152.56 1192.27 138.38 1192.25 124.19 1191.16 C123.23 1191.09 122.26 1191.02 121.27 1190.94 C115.27 1190.42 109.54 1189.33 103.69 1187.91 C94.59 1185.59 94.59 1185.59 85.76 1187.72 C82.54 1189.77 79.65 1192.18 76.74 1194.64 C51.53 1214.26 10.57 1213.56 -19.33 1210.02 C-32.22 1208.23 -44.93 1205.43 -57.62 1202.62 C-58.46 1202.44 -59.29 1202.26 -60.15 1202.07 C-83.06 1197.01 -107.67 1191.06 -122.79 1171.71 C-125.35 1167.59 -126.23 1163.99 -126.81 1159.19 C-127.76 1151.91 -131.43 1146.61 -136 1141 C-136.66 1140.67 -137.32 1140.34 -138 1140 C-138.11 1140.87 -138.22 1141.74 -138.34 1142.64 C-140.38 1153.02 -146.94 1162.42 -155.31 1168.75 C-165.98 1175.6 -178.47 1177.95 -190.71 1180.5 C-192.21 1180.81 -193.71 1181.13 -195.21 1181.45 C-199.14 1182.29 -203.06 1183.11 -206.99 1183.94 C-213.22 1185.25 -219.46 1186.57 -225.69 1187.89 C-227.95 1188.37 -230.21 1188.85 -232.47 1189.32 C-241.79 1191.3 -251.1 1193.33 -260.38 1195.52 C-288.48 1202.07 -315.69 1196.06 -340 1181 C-377.21 1156.39 -396.49 1116.43 -405.41 1073.94 C-424.36 980.01 -402.34 873.68 -329.57 745.28 C-326.47 740.62 -323.35 735.98 -320.23 731.33 C-315.06 723.61 -310 715.83 -305 708 C-304.29 706.9 -304.29 706.9 -303.57 705.77 C-275.21 661.4 -246.46 612.68 -250.21 557.98 C-250.71 554.89 -250.71 554.89 -253.08 553.33 C-254.44 552.69 -254.44 552.69 -255.83 552.03 C-256.85 551.53 -257.86 551.03 -258.91 550.51 C-260.01 549.99 -261.11 549.47 -262.25 548.94 C-264.55 547.8 -266.85 546.65 -269.14 545.5 C-270.3 544.92 -271.45 544.34 -272.64 543.74 C-292.42 533.48 -310.77 520.06 -328 506 C-328.55 505.56 -329.09 505.12 -329.66 504.66 C-345.33 491.91 -360.37 477.59 -372 461 C-372.39 460.44 -372.79 459.88 -373.19 459.3 C-391.28 433.19 -398.96 405.55 -393.5 373.81 C-385.89 333.12 -370.18 293.58 -351 257 C-351.54 256.88 -352.07 256.75 -352.62 256.62 C-366.78 252.9 -384.88 244.69 -393 232 C-397.21 221.49 -394.57 210.99 -390.34 200.91 C-383.23 184.81 -371.72 163.49 -355 156 C-342.9 153.1 -332.19 159.07 -322 165 C-316.68 168.45 -311.78 172.28 -307 176.44 C-304.22 179.13 -304.22 179.13 -301 180 C-300.59 179.12 -300.59 179.12 -300.16 178.21 C-299.06 176.11 -297.88 174.41 -296.38 172.57 C-295.86 171.92 -295.35 171.28 -294.81 170.62 C-294.25 169.94 -293.7 169.26 -293.12 168.56 C-292.55 167.86 -291.97 167.15 -291.38 166.42 C-286.67 160.7 -281.72 155.22 -276.64 149.82 C-274.49 147.53 -272.42 145.2 -270.38 142.81 C-264.43 135.96 -257.92 129.63 -251.02 123.75 C-249.65 122.56 -248.3 121.34 -246.98 120.1 C-212.65 87.87 -160.21 56.51 -111.92 55.84 C-102.08 56.19 -102.08 56.19 -93.36 52.63 C-90.7 49.08 -89.29 45.06 -87.8 40.92 C-85.71 35.91 -81.61 31.96 -78 28 C-77.33 27.23 -76.65 26.47 -75.96 25.68 C-61.99 10.66 -20.54 -13.57 0 0 Z M-67.66 32.5 C-79.93 45.26 -86.85 59.97 -90.19 77.25 C-91.02 80.08 -91.61 81.31 -94 83 C-98.42 82.58 -98.42 82.58 -100 81 C-100.18 75.85 -99.85 71.08 -99 66 C-106.57 65.78 -113.68 66.33 -121.12 67.69 C-122.13 67.87 -123.13 68.05 -124.16 68.23 C-132.99 69.89 -141.5 72.11 -150 75 C-150.76 75.26 -151.53 75.51 -152.31 75.78 C-162.94 79.4 -173.07 83.62 -182.97 88.92 C-184.35 89.65 -185.73 90.38 -187.12 91.1 C-205.32 100.6 -221.74 112.3 -237 126 C-238.42 127.23 -239.83 128.46 -241.25 129.69 C-242.5 130.79 -243.75 131.89 -245 133 C-245.81 133.72 -246.62 134.44 -247.46 135.18 C-254.4 141.37 -260.95 147.68 -267.01 154.73 C-269.32 157.36 -271.72 159.89 -274.12 162.44 C-280.39 169.18 -285.88 176.48 -291.39 183.85 C-292.93 185.91 -294.5 187.96 -296.07 190.01 C-311.5 210.19 -324.73 231.82 -336.94 254.07 C-337.64 255.34 -338.34 256.61 -339.05 257.87 C-356.46 289.03 -371.1 324.13 -379 359 C-379.36 360.51 -379.36 360.51 -379.72 362.05 C-386.87 392.99 -385.56 417.92 -369.06 445.21 C-367.11 448.2 -365.09 451.11 -363 454 C-362.26 455.02 -361.53 456.05 -360.77 457.1 C-348.44 473.82 -333.41 488.33 -317 501 C-317 497.17 -318.13 496.28 -320.5 493.31 C-332.87 476.69 -339.29 457.8 -337 437 C-334.71 423.78 -329.07 412.28 -320.52 401.97 C-318.93 400.07 -318.93 400.07 -318.05 397.87 C-316.72 395.49 -315.45 395.11 -313 394 C-311.87 393.01 -310.77 391.99 -309.69 390.94 C-290.36 373.85 -262.8 366.68 -237.56 365.44 C-236.74 365.39 -235.91 365.35 -235.06 365.31 C-233.04 365.2 -231.02 365.1 -229 365 C-230.19 361.88 -231.52 358.86 -232.95 355.84 C-238.46 344.15 -242.8 332.52 -246 320 C-246.27 318.97 -246.53 317.95 -246.81 316.89 C-250.51 299.27 -249.69 279.8 -239.75 264.46 C-233.45 255.6 -226.71 248.53 -218 242 C-217.22 241.4 -216.44 240.79 -215.64 240.17 C-199.1 227.87 -179 221.03 -159 217 C-157.47 216.68 -157.47 216.68 -155.92 216.35 C-109.99 207.93 -56.21 217.74 -15 239 C-14.36 239.33 -13.72 239.65 -13.06 239.99 C15.61 254.87 39.27 277.65 49.38 308.91 C54.85 327.26 52.71 343.61 43.88 360.56 C33.42 379.82 18.12 394.9 0 407 C-2.34 408.65 -4.67 410.32 -7 412 C-4.28 413.45 -1.73 414.44 1.25 415.19 C30.8 422.97 56.16 436.71 79 457 C80.02 457.89 80.02 457.89 81.05 458.8 C93.73 470.59 102.65 487.8 104.28 504.96 C105.02 527.81 94.67 548.16 80 565 C77.4 567.74 74.72 570.38 72 573 C71 574 70 575 69 576 C91.59 572.16 114.48 554.19 131 539 C131.83 538.27 132.65 537.53 133.5 536.78 C139.71 530.99 143.93 524.4 148 517 C148.45 516.19 148.9 515.37 149.36 514.53 C158.16 496.87 162 476.33 165 457 C165.17 455.95 165.33 454.91 165.5 453.83 C171.04 416.6 170.3 376.23 165 339 C164.82 337.75 164.65 336.5 164.46 335.21 C155.77 275.56 137.07 215 101 166 C100.59 165.44 100.17 164.87 99.75 164.29 C86.04 145.74 70.45 127.95 52 114 C51.45 113.58 50.9 113.16 50.33 112.73 C44.55 108.31 38.76 103.99 32.48 100.29 C31.38 99.63 31.38 99.63 30.25 98.96 C28.82 98.13 27.38 97.31 25.93 96.52 C23.97 95.39 23.97 95.39 21 93 C20.43 89.83 20.43 89.83 21 87 C21.66 86.34 22.32 85.68 23 85 C24.21 85.08 24.21 85.08 25.45 85.16 C26.71 85.08 26.71 85.08 28 85 C29.68 83.08 29.68 83.08 30.88 80.5 C33.36 75.95 36.13 72.35 39.68 68.59 C41.21 67.09 41.21 67.09 41 65 C26.45 63.36 12.73 64.3 -1.51 67.48 C-5.01 68 -7.57 67.79 -11 67 C-11.69 64.77 -11.69 64.77 -12 62 C-10.18 58.61 -7.55 55.86 -5 53 C-4.44 52.36 -3.87 51.73 -3.29 51.07 C0.49 47.07 4.61 44.08 9.28 41.16 C9.85 40.78 10.41 40.4 11 40 C11 39.67 11 39.34 11 39 C-8.04 38.16 -25.27 42.27 -40.79 53.73 C-44.01 56.01 -45.18 56.58 -49 56 C-50.21 53.98 -50.21 53.98 -51 51 C-50.02 48.22 -49.01 45.94 -47.62 43.38 C-47.25 42.67 -46.88 41.96 -46.5 41.23 C-41.49 31.89 -35.19 23.94 -27.98 16.19 C-26.18 14.2 -24.57 12.17 -23 10 C-38.95 10 -56.69 22.2 -67.66 32.5 Z M-361.54 175.16 C-372.14 187.38 -384.88 206.15 -384 222.88 C-383.24 227.31 -381.6 229.21 -378 232 C-377.38 232.52 -376.75 233.04 -376.11 233.57 C-370.58 237.87 -364.58 240.74 -358.19 243.5 C-357.36 243.86 -356.54 244.23 -355.69 244.6 C-354.9 244.93 -354.11 245.26 -353.29 245.59 C-352.23 246.04 -352.23 246.04 -351.15 246.49 C-348.33 247.16 -346.72 247 -344 246 C-342.17 243.86 -342.17 243.86 -340.77 241.08 C-340.22 240.07 -339.66 239.07 -339.09 238.03 C-338.24 236.44 -338.24 236.44 -337.38 234.81 C-336.52 233.25 -336.52 233.25 -335.64 231.65 C-334.07 228.78 -332.52 225.9 -331 223 C-330.43 221.96 -329.86 220.92 -329.28 219.84 C-327.69 217.04 -327.69 217.04 -328.59 213.96 C-330.02 210.62 -331.46 207.29 -333 204 C-333.47 202.98 -333.95 201.97 -334.43 200.92 C-339.3 191.28 -345.03 186.84 -355 183 C-355 182.01 -355 181.02 -355 180 C-349.48 179.13 -345.94 181.22 -341.45 184.13 C-332.71 190.81 -328.58 201.31 -324 211 C-320.47 206.74 -317.36 202.25 -314.25 197.69 C-313.74 196.95 -313.24 196.21 -312.71 195.44 C-311.47 193.63 -310.24 191.82 -309 190 C-312.13 185.68 -315.6 182.72 -319.88 179.62 C-320.86 178.91 -320.86 178.91 -321.86 178.18 C-336.07 168.11 -347.83 161.1 -361.54 175.16 Z M-181 228 C-181.7 228.26 -182.41 228.52 -183.13 228.78 C-205.34 237.08 -228.59 251.63 -239.29 273.64 C-248.22 294.99 -242.29 320.36 -234.15 341.06 C-231.4 347.64 -228.02 353.92 -224.56 360.15 C-224.1 360.98 -223.63 361.82 -223.16 362.68 C-222.74 363.42 -222.33 364.16 -221.9 364.92 C-221 367 -221 367 -221 371 C-221.67 370.98 -222.34 370.97 -223.03 370.95 C-255.31 370.3 -286.3 375.89 -310.75 398.79 C-324.12 411.96 -332.16 428.03 -332.31 447 C-332.29 473.78 -314.68 494.65 -297 513 C-296.46 513.58 -295.93 514.16 -295.37 514.75 C-291.21 519.11 -286.88 522.28 -281.69 525.31 C-280.9 525.78 -280.11 526.25 -279.3 526.73 C-276.88 528.17 -274.44 529.59 -272 531 C-271.29 531.42 -270.58 531.83 -269.85 532.26 C-258.79 538.72 -247.34 544.32 -235.77 549.8 C-234.65 550.33 -233.53 550.86 -232.37 551.41 C-231.36 551.89 -230.35 552.36 -229.31 552.85 C-227 554 -227 554 -226 555 C-225.88 558 -225.88 558 -226 561 C-227 562 -227 562 -229.75 562.12 C-232.64 562.01 -235.18 561.6 -238 561 C-238.04 561.74 -238.08 562.48 -238.12 563.24 C-240.14 599.28 -248.44 629.79 -265 662 C-265.4 662.8 -265.8 663.59 -266.22 664.41 C-276.18 684.11 -288.2 702.49 -300.5 720.78 C-311.62 737.33 -322.52 754.04 -333 771 C-333.41 771.66 -333.81 772.31 -334.23 772.99 C-371.86 833.97 -393.81 903.6 -399 975 C-399.06 975.73 -399.12 976.47 -399.18 977.23 C-402.3 1017.54 -400.77 1061.63 -387 1100 C-386.43 1101.63 -386.43 1101.63 -385.86 1103.29 C-378.28 1124.1 -366.81 1143.41 -351 1159 C-350.04 1159.96 -350.04 1159.96 -349.06 1160.93 C-329.68 1179.03 -305.22 1188.31 -278.82 1187.46 C-245.38 1185.43 -220.22 1168.04 -198 1144 C-196.98 1142.68 -195.98 1141.35 -195 1140 C-193.68 1140.33 -192.36 1140.66 -191 1141 C-192.38 1145.3 -194.35 1147.62 -197.62 1150.69 C-199.12 1152.09 -200.59 1153.52 -202 1155 C-202 1155.66 -202 1156.32 -202 1157 C-202.83 1157.35 -202.83 1157.35 -203.67 1157.7 C-206.63 1159.35 -208.79 1161.43 -211.25 1163.75 C-215.64 1167.82 -220.11 1171.55 -225 1175 C-221.94 1176.53 -219.12 1175.43 -215.89 1174.78 C-215.17 1174.64 -214.45 1174.5 -213.71 1174.35 C-211.37 1173.89 -209.03 1173.41 -206.69 1172.94 C-205.89 1172.78 -205.1 1172.62 -204.29 1172.45 C-194.74 1170.51 -185.21 1168.51 -175.81 1165.94 C-175.01 1165.73 -174.22 1165.52 -173.4 1165.31 C-164.45 1162.71 -157.48 1156.87 -152.75 1148.89 C-147.05 1138.12 -143.53 1126.52 -139.69 1115 C-138.95 1112.82 -138.22 1110.65 -137.48 1108.47 C-136.15 1104.51 -134.81 1100.55 -133.49 1096.58 C-133.09 1095.39 -133.09 1095.39 -132.69 1094.18 C-131.38 1090.04 -130.82 1086.42 -130.75 1082.06 C-130.72 1081.04 -130.7 1080.02 -130.67 1078.97 C-131.05 1075.52 -131.89 1073.74 -134 1071 C-138.44 1068.28 -142.76 1068.67 -147.81 1068.69 C-148.69 1068.67 -149.57 1068.66 -150.47 1068.64 C-156.09 1068.63 -160 1069.41 -165 1072 C-164.54 1076.71 -164.54 1076.71 -162.88 1081.06 C-161.6 1083.89 -162.33 1086.05 -163 1089 C-165.69 1089.5 -165.69 1089.5 -169 1089 C-175.7 1082.86 -176.73 1071.7 -177.21 1063.2 C-177.33 1057.02 -177.05 1050.83 -176.76 1044.66 C-176.07 1029.6 -175.81 1014.57 -175.81 999.5 C-175.81 995.77 -175.79 992.03 -175.78 988.3 C-175.72 966.29 -176.57 944.18 -179.75 922.38 C-179.92 921.2 -180.09 920.02 -180.26 918.8 C-185.44 884.19 -195.52 850.92 -212 820 C-212.49 819.05 -212.49 819.05 -213 818.09 C-218.51 807.58 -225.05 797.95 -231.96 788.3 C-238.45 779.19 -238.45 779.19 -238 774 C-235.03 774 -232.06 774 -229 774 C-228.34 775.32 -227.68 776.64 -227 778 C-225.48 780.27 -223.95 782.52 -222.38 784.75 C-221.95 785.35 -221.53 785.95 -221.1 786.57 C-220.07 788.05 -219.04 789.53 -218 791 C-217.34 790.67 -216.68 790.34 -216 790 C-215.39 787.46 -214.9 784.95 -214.44 782.38 C-212.82 773.96 -210.53 765.83 -208.05 757.64 C-197.13 721.54 -198.7 687.56 -210.4 651.74 C-211.05 648.76 -210.88 646.91 -210 644 C-209 643 -209 643 -206.44 642.94 C-205.63 642.96 -204.83 642.98 -204 643 C-200.65 649.15 -198.64 655.1 -196.94 661.88 C-196.68 662.88 -196.42 663.89 -196.16 664.92 C-193.05 677.39 -190.59 690.15 -190 703 C-189.92 704.71 -189.92 704.71 -189.84 706.45 C-189.41 724.79 -192.85 742.48 -198 760 C-198.3 761.01 -198.59 762.02 -198.89 763.06 C-199.21 764.13 -199.52 765.2 -199.84 766.31 C-200.32 767.93 -200.32 767.93 -200.8 769.58 C-201.42 771.69 -202.05 773.8 -202.68 775.91 C-206.37 788.34 -209.75 804.04 -203.34 816.1 C-202.14 818.15 -200.92 820.19 -199.7 822.23 C-185.52 846.29 -178.12 875.75 -173 903 C-172.82 903.94 -172.64 904.88 -172.45 905.85 C-166.79 936.05 -165.72 966.18 -165.75 996.81 C-165.75 997.84 -165.75 997.84 -165.75 998.89 C-165.76 1019.28 -166.23 1039.63 -167 1060 C-166.39 1059.93 -165.79 1059.86 -165.16 1059.79 C-164.36 1059.7 -163.56 1059.61 -162.73 1059.51 C-161.94 1059.42 -161.15 1059.33 -160.33 1059.24 C-149.76 1058.16 -136.27 1057.54 -127.24 1063.96 C-122.61 1068.17 -121.76 1071.85 -120 1078 C-113.73 1077.34 -107.46 1076.68 -101 1076 C-98.36 1062.24 -96.38 1048.55 -94.94 1034.62 C-94.85 1033.81 -94.77 1032.99 -94.68 1032.15 C-93.81 1023.67 -93 1015.19 -92.29 1006.7 C-87.79 952.62 -78.55 898.97 -60.02 847.85 C-59.68 846.91 -59.35 845.97 -59 845 C-58.61 844.04 -58.21 843.08 -57.81 842.09 C-56.8 838.24 -57.26 835.64 -58.01 831.74 C-58.14 831.05 -58.27 830.36 -58.4 829.65 C-58.68 828.16 -58.96 826.68 -59.24 825.2 C-60 821.23 -60.7 817.25 -61.39 813.27 C-61.54 812.47 -61.68 811.67 -61.82 810.85 C-65.17 791.69 -66.28 772.85 -66.38 753.44 C-66.39 752.05 -66.39 752.05 -66.4 750.64 C-66.58 722.81 -62.31 690.9 -42 670 C-33.75 661.96 -21.9 653.81 -10 653 C-9.01 653.66 -8.02 654.32 -7 655 C-6.81 658.62 -6.81 658.62 -7 662 C-7.59 662.15 -8.19 662.29 -8.8 662.45 C-25.4 666.94 -35.93 676.13 -44.59 690.68 C-47.76 696.51 -49.93 702.45 -51.75 708.81 C-52.05 709.84 -52.05 709.84 -52.35 710.89 C-56.17 725.14 -56.37 739.55 -56.31 754.19 C-56.31 755.15 -56.31 756.12 -56.31 757.11 C-56.26 779.05 -54.34 800.47 -50 822 C-47.01 819.21 -44.94 816.46 -42.88 812.94 C-39.02 806.78 -34.71 800.57 -29 796 C-25.75 795.64 -25.75 795.64 -23 796 C-22 797 -22 797 -21.94 800 C-22.67 804.66 -25.63 807.13 -28.76 810.46 C-32.92 815.18 -35.99 820.5 -39 826 C-39.37 826.68 -39.75 827.36 -40.13 828.06 C-69.83 883.29 -76.87 951.13 -82.75 1012.39 C-87.2 1058.75 -93.9 1100.3 -113.99 1142.76 C-116.76 1148.89 -117.08 1155.75 -115.42 1162.29 C-110.43 1173.7 -97.92 1179.52 -87 1184 C-81.07 1186.04 -74.98 1187.41 -68.88 1188.81 C-67.33 1189.18 -65.79 1189.55 -64.25 1189.93 C-52 1192.87 -39.71 1195.72 -27.25 1197.62 C-26.49 1197.75 -25.73 1197.87 -24.95 1197.99 C10.35 1203.49 49.19 1202.12 79.07 1180.45 C100.29 1164.48 110.48 1140.03 119.12 1115.68 C120.04 1113.08 120.97 1110.48 121.91 1107.89 C122.91 1105.11 123.91 1102.34 124.91 1099.56 C128.38 1089.93 131.93 1080.32 135.48 1070.72 C136.56 1067.81 137.64 1064.9 138.71 1061.99 C141.78 1053.7 144.84 1045.41 147.93 1037.13 C153.53 1022.08 159.11 1007.03 164.25 991.81 C164.61 990.76 164.97 989.71 165.34 988.63 C168.63 978.71 170.35 969.2 170.31 958.75 C170.33 957.92 170.34 957.1 170.36 956.25 C170.37 942.36 166.1 929.2 161.69 916.19 C161.43 915.42 161.17 914.65 160.9 913.85 C155.08 896.56 148.25 879.74 141 863 C140.73 862.37 140.46 861.74 140.18 861.1 C123.23 821.92 104.39 783.21 82.51 746.55 C79.54 741.53 76.71 736.43 73.87 731.34 C72.89 729.6 71.92 727.86 70.88 726.15 C68.28 721.83 67.59 719.06 68 714 C71.19 714.07 71.19 714.07 75 715 C77.07 717.32 78.46 719.24 80 721.88 C80.46 722.62 80.91 723.36 81.38 724.12 C87.65 734.47 93.43 745.13 99.22 755.76 C100.77 758.59 102.34 761.41 103.92 764.22 C124 800.14 141.49 837.55 156.71 875.77 C157.99 878.99 159.3 882.19 160.62 885.39 C168.44 904.51 175.49 923.82 180 944 C180.82 943.93 181.64 943.86 182.48 943.78 C196.64 942.71 210.81 942.91 225 943 C224.61 942.43 224.23 941.85 223.83 941.26 C206.23 915.06 199.14 886.82 192.71 856.29 C191.08 848.58 189.42 840.88 187.75 833.19 C187.59 832.43 187.43 831.68 187.26 830.9 C171.83 759.6 150.82 685.87 106 627 C105.35 626.14 105.35 626.14 104.69 625.26 C94.5 611.8 83 599.83 71 588 C65.65 589.6 60.3 591.21 54.96 592.87 C29.48 600.68 0.99 609.08 -26 607 C-27 606 -27 606 -27.06 602.94 C-27.04 601.97 -27.02 601 -27 600 C-23.54 597.95 -20.43 597.53 -16.45 597.11 C-15.14 596.96 -13.84 596.81 -12.49 596.66 C-11.8 596.58 -11.1 596.5 -10.39 596.43 C18.22 593.6 18.22 593.6 45 584 C46.73 583.09 46.73 583.09 48.5 582.15 C55.48 578.36 61.95 574.17 68 569 C68.81 568.33 69.62 567.67 70.45 566.98 C86.66 553.16 97.38 533.23 99.27 511.91 C99.85 493.24 91.94 478.33 79.69 464.75 C58.8 442.58 30.16 427.92 1 420 C-0.16 419.67 -1.33 419.35 -2.53 419.01 C-8.35 417.46 -14 416.5 -20 416 C-19.06 412.27 -18.26 411.16 -14.95 409.08 C-13.68 408.46 -12.4 407.85 -11.12 407.25 C14.97 394.15 35.66 370.83 45.29 343.3 C50.57 325.78 45.94 309.96 37.75 294.19 C33.93 287.1 29.4 280.99 24 275 C23.35 274.22 22.71 273.45 22.04 272.65 C-8.3 236.68 -61.38 223.63 -106.23 219.72 C-131.56 217.93 -157 219.19 -181 228 Z M191.38 281.75 C190.5 281.93 189.62 282.11 188.72 282.29 C177.04 284.05 177.04 284.05 167 289 C167.07 297.12 169.2 305.14 171 313 C175.1 310.32 179 307.5 182.88 304.5 C191.35 298.11 198.08 294.83 208.81 294.94 C209.97 294.95 211.14 294.96 212.33 294.96 C213.21 294.98 214.09 294.99 215 295 C215 296.65 215 298.3 215 300 C214.18 299.95 213.36 299.91 212.51 299.86 C199.03 299.42 191.44 303.86 181 312 C180.17 312.53 179.34 313.07 178.49 313.62 C176.14 315.26 174.57 316.59 173 319 C172.45 322.7 172.99 326.08 173.63 329.75 C174.25 333.53 174.69 337.33 175.16 341.12 C175.74 345.75 176.37 350.38 177 355 C200.13 357.28 200.13 357.28 222 351 C229.65 341.33 228.42 328.09 227.3 316.49 C226.02 305.79 223.8 293.2 218 284 C209.77 278.19 200.7 279.81 191.38 281.75 Z M181 955 C180.91 956.13 180.83 957.26 180.74 958.42 C180.6 960.01 180.46 961.6 180.31 963.19 C180.26 963.92 180.21 964.65 180.15 965.4 C178.52 982.72 172.83 999.26 166.75 1015.44 C166.05 1017.33 165.35 1019.23 164.65 1021.12 C163.19 1025.07 161.72 1029.02 160.25 1032.97 C158 1038.99 155.78 1045.01 153.56 1051.03 C150.7 1058.79 147.83 1066.55 144.95 1074.31 C141.43 1083.83 137.93 1093.35 134.44 1102.88 C134.2 1103.51 133.97 1104.15 133.73 1104.81 C132.48 1108.21 131.24 1111.6 130 1115 C133.73 1116.24 135.52 1115.58 139.31 1114.62 C155.85 1110.51 155.85 1110.51 163.31 1113.19 C166.24 1115.16 167.47 1116.85 169 1120 C174.3 1119.32 179.1 1117.74 184.12 1116 C185.71 1115.46 187.3 1114.92 188.88 1114.38 C189.58 1114.14 190.27 1113.9 190.99 1113.65 C195.81 1112.09 200.32 1111.75 205.38 1111.69 C206.12 1111.66 206.86 1111.63 207.62 1111.6 C212.92 1111.54 215.75 1112.59 220 1116 C221.42 1117.11 221.42 1117.11 222.88 1118.25 C223.58 1118.83 224.28 1119.4 225 1120 C225.57 1119.6 226.14 1119.2 226.72 1118.79 C236.57 1112.04 244.97 1109.19 257 1110 C258.92 1110.48 260.84 1110.98 262.75 1111.5 C266.59 1112.28 266.59 1112.28 270.04 1110.74 C272 1108.61 273.49 1106.46 275 1104 C275.51 1103.2 276.02 1102.4 276.55 1101.57 C286.55 1084.58 291.1 1065.01 291.2 1045.41 C291.21 1044.51 291.21 1043.6 291.22 1042.67 C291.23 1040.77 291.24 1038.86 291.24 1036.96 C291.25 1034.1 291.28 1031.25 291.31 1028.39 C291.42 1010.15 290.38 989.56 278 974.99 C259.62 956.69 230.85 952.88 206.12 952.81 C193.37 952.62 193.37 952.62 181 955 Z M-120 1089 C-121.31 1090.92 -121.31 1090.92 -122.04 1093.33 C-122.36 1094.23 -122.68 1095.13 -123.01 1096.06 C-123.5 1097.51 -123.5 1097.51 -124 1099 C-124.35 1099.99 -124.7 1100.97 -125.06 1101.99 C-126.15 1105.09 -127.21 1108.2 -128.25 1111.31 C-128.61 1112.37 -128.98 1113.43 -129.35 1114.52 C-129.69 1115.54 -130.04 1116.56 -130.39 1117.61 C-130.86 1118.99 -130.86 1118.99 -131.33 1120.39 C-132.37 1124.46 -132.58 1126.99 -130.47 1130.68 C-129.82 1131.55 -129.17 1132.42 -128.5 1133.31 C-127.85 1134.2 -127.2 1135.08 -126.53 1135.99 C-126.03 1136.65 -125.52 1137.32 -125 1138 C-120.94 1134.34 -119.08 1129.55 -116.75 1124.69 C-116.02 1123.17 -116.02 1123.17 -115.28 1121.62 C-107.27 1104.95 -107.27 1104.95 -104 1087 C-109.44 1086.71 -114.97 1086.77 -120 1089 Z M230 1129 C232.07 1135.43 234.41 1141.71 236.88 1148 C240.44 1157.2 243.4 1166.48 246 1176 C254.37 1175.68 262.45 1174.5 270.69 1173 C271.67 1172.82 272.65 1172.64 273.66 1172.46 C278.47 1171.67 278.47 1171.67 283 1170 C280.99 1154.19 276.33 1134.07 264 1123 C252.2 1116.02 239.6 1120.36 230 1129 Z M174 1130 C174.68 1137.76 176.24 1145.21 177.94 1152.81 C179.7 1160.74 181.35 1168.64 182.57 1176.68 C182.89 1179.01 182.89 1179.01 184 1181 C194.8 1181.28 205.48 1180.81 216.25 1180.06 C217.52 1179.98 218.8 1179.89 220.11 1179.8 C227.6 1179.26 227.6 1179.26 235 1178 C234.46 1170.27 232.03 1163.28 229.5 1156 C229.28 1155.36 229.06 1154.72 228.83 1154.05 C223.14 1136.36 223.14 1136.36 212 1122 C199.5 1118.82 185.43 1125.22 174 1130 Z M139.75 1124.38 C138.88 1124.6 138.01 1124.82 137.11 1125.05 C134.73 1125.66 132.36 1126.28 130 1127 C129.13 1127.25 128.27 1127.5 127.38 1127.76 C124.24 1129.4 123.73 1130.88 122.42 1134.14 C121.99 1135.18 121.55 1136.23 121.11 1137.31 C120.66 1138.42 120.21 1139.54 119.75 1140.69 C114.38 1153.5 108.14 1164.74 100 1176 C122.94 1182.96 148.31 1181.15 172 1181 C173.49 1178.02 172.59 1175.93 171.96 1172.69 C171.59 1170.75 171.59 1170.75 171.21 1168.76 C170.93 1167.36 170.65 1165.96 170.38 1164.56 C170.24 1163.86 170.1 1163.16 169.96 1162.44 C168.28 1153.91 166.52 1145.41 164.31 1137 C164.12 1136.27 163.93 1135.55 163.74 1134.8 C162.51 1130.33 160.9 1126.21 159 1122 C152.15 1121.74 146.36 1122.6 139.75 1124.38 Z " fill="#000202" transform="translate(697,20)"/>
<path d="M0 0 C7.56 3.73 15.3 3.5 23.61 3.5 C37.23 3.55 47.4 6.39 57.4 15.85 C65.61 24.53 70.08 33.93 73.69 45.12 C76.17 52.72 78.31 57.45 85.25 61.81 C99.44 73.1 113.61 92.84 116.96 111.06 C119.36 134.17 113.26 155.79 98.65 174.05 C80.15 195.38 56.44 208.42 28.25 211.81 C27.34 211.92 26.43 212.03 25.49 212.15 C-14.9 216.41 -58.72 203.93 -90.76 179.03 C-113.21 160.82 -131.18 137.18 -134.75 107.81 C-136.12 89.05 -130.43 72.32 -118.75 57.81 C-118.17 57.05 -117.58 56.29 -116.98 55.51 C-107.1 43.42 -91.79 33.7 -76.97 28.91 C-73.96 27.42 -73.3 25.76 -71.88 22.75 C-69.04 17.2 -65.81 12.52 -61.75 7.81 C-61.16 7.11 -60.56 6.41 -59.95 5.69 C-43.91 -11.85 -19.62 -11.03 0 0 Z M-51.75 13.81 C-52.43 14.48 -53.11 15.15 -53.81 15.84 C-59 21.27 -63.64 27.52 -65.75 34.81 C-64.12 42.29 -59.03 48.57 -52.75 52.81 C-51.26 53.31 -51.26 53.31 -49.75 53.81 C-49.75 55.13 -49.75 56.45 -49.75 57.81 C-55.14 57.42 -59.02 55.67 -62.75 51.81 C-65.65 47.6 -68.24 43.27 -70.75 38.81 C-83.23 42.26 -94.11 49.3 -103.75 57.81 C-104.37 58.34 -105 58.87 -105.64 59.41 C-116.46 69.29 -122.76 83.81 -123.95 98.28 C-124.41 122.27 -113.17 140.6 -97.75 157.81 C-96.78 158.91 -96.78 158.91 -95.79 160.03 C-75.63 181.51 -46.78 192.35 -18.75 198.81 C-17.73 199.05 -16.71 199.28 -15.66 199.53 C14.2 205.39 45.63 201.21 71.41 184.8 C89.96 171.82 102.26 153.19 106.25 130.81 C108.13 114.17 102.99 98.58 92.67 85.42 C86.3 77.62 79.45 69.72 71.25 63.81 C68.82 64.94 66.84 66.12 64.69 67.75 C57.74 72.44 49.4 73.21 41.25 72.81 C41.58 71.49 41.91 70.17 42.25 68.81 C43 68.73 43.75 68.64 44.52 68.55 C51.97 67.53 60.47 66.14 65.68 60.18 C66.62 56.27 65.13 53.03 63.81 49.31 C63.39 48.11 63.39 48.11 62.97 46.88 C58.7 35.03 52.59 23.47 41.06 17.38 C36.11 15.05 31.34 14.7 25.91 14.74 C2.03 14.63 2.03 14.63 -7.68 8.6 C-11.27 6.51 -14.69 5.41 -18.69 4.38 C-19.87 4.07 -21.06 3.76 -22.28 3.44 C-34.22 1.28 -43.51 5.28 -51.75 13.81 Z " fill="#000202" transform="translate(573.75,397.1875)"/>
<path d="M0 0 C0.74 0.6 1.48 1.21 2.24 1.83 C2.88 2.33 3.52 2.83 4.17 3.34 C10.59 8.99 15.49 18.45 17.24 26.83 C18.18 42.22 16.6 54.67 6.24 66.83 C-0.61 74.2 -9.58 80.07 -19.84 81.02 C-35.53 81.59 -47.14 79.97 -59.38 69.22 C-69.04 59.5 -73.05 47.97 -73.07 34.54 C-72.86 21.79 -67.59 11.92 -59.13 2.64 C-42.89 -12.95 -17.57 -13.36 0 0 Z M-56.72 8.84 C-58.12 10.46 -59.45 12.14 -60.76 13.83 C-60.43 14.49 -60.1 15.15 -59.76 15.83 C-58.64 15.2 -58.64 15.2 -57.49 14.55 C-56.51 14 -55.52 13.46 -54.51 12.89 C-53.53 12.35 -52.56 11.8 -51.55 11.24 C-44.68 7.77 -36.38 7.7 -28.96 9.51 C-22.9 11.78 -15.79 15.17 -12.54 21.02 C-12.28 21.61 -12.02 22.21 -11.76 22.83 C-12.64 22.89 -13.53 22.95 -14.45 23.02 C-18.68 24.05 -20.16 25.34 -22.76 28.83 C-24.16 33.01 -24.06 36 -22.57 40.14 C-20.74 42.85 -19.54 44.16 -16.76 45.83 C-13.94 46.19 -13.94 46.19 -11.01 46.02 C-10.02 45.99 -9.04 45.96 -8.02 45.93 C-6.9 45.88 -6.9 45.88 -5.76 45.83 C-9.2 55.36 -13.14 64.09 -22.58 68.95 C-27.52 70.94 -32.64 72.38 -37.76 73.83 C-37.76 74.16 -37.76 74.49 -37.76 74.83 C-25.29 76.5 -14.21 75.29 -3.76 67.83 C3.85 61.8 8.19 53.97 11.24 44.83 C12.08 32.05 11.38 20.98 2.93 10.67 C-4.36 2.7 -12.84 -2.65 -23.86 -3.38 C-37.19 -3.55 -47.17 -0.96 -56.72 8.84 Z " fill="#000202" transform="translate(559.7578125,304.171875)"/>
<path d="M0 0 C10.69 8.08 17.29 18.1 19.47 31.42 C20.98 44.24 17.72 55.78 10.04 66.12 C3.06 74.58 -6.26 81.13 -17.25 82.81 C-30.73 83.94 -42.9 82.23 -53.97 73.79 C-64.17 64.95 -70.43 54.52 -71.47 40.97 C-71.91 26.73 -67.31 15.44 -57.68 5.14 C-41.98 -9.91 -18.17 -11.86 0 0 Z M-54.34 9.77 C-60.12 15.98 -63.54 22.33 -64.25 30.81 C-62.71 28.78 -61.19 26.73 -59.74 24.63 C-54.99 18.01 -49.45 13.33 -41.25 11.81 C-30.98 10.84 -22.91 11.75 -14.25 17.81 C-12.2 19.73 -10.82 21.46 -9.25 23.81 C-10.47 23.89 -11.68 23.98 -12.94 24.06 C-17.05 24.57 -19.28 25.84 -22.25 28.81 C-24.1 32.52 -23.71 36.77 -23.25 40.81 C-21.48 43.97 -20.05 45.32 -17 47.19 C-13.07 48.08 -10.22 47.58 -6.25 46.81 C-5.26 46.15 -4.27 45.49 -3.25 44.81 C-5.74 55.29 -9.67 62.75 -18.91 68.62 C-24.1 71.26 -28.49 72.07 -34.31 72 C-35.5 71.99 -36.69 71.99 -37.91 71.98 C-40.81 71.83 -43.43 71.48 -46.25 70.81 C-41.9 75.59 -36.79 76.59 -30.49 77.14 C-18.25 77.63 -7.73 74.86 1.75 66.81 C10.42 57.87 14.11 47.25 13.96 34.97 C13.27 24.66 8.55 15.04 1 8 C-16 -5.6 -38.28 -5.22 -54.34 9.77 Z M-65.25 31.81 C-64.25 33.81 -64.25 33.81 -64.25 33.81 Z " fill="#000202" transform="translate(683.25,329.1875)"/>
<path d="M0 0 C1.65 0.33 3.3 0.66 5 1 C4.97 2 4.97 2 4.93 3.01 C4.65 9.79 4.65 9.79 7 16 C10.62 18.5 14.45 18.34 18.69 18.31 C19.47 18.31 20.25 18.31 21.05 18.31 C27.8 18.2 34.38 17.4 41.06 16.5 C76.41 11.91 103.42 20.26 135.55 34 C153.62 42.88 153.62 42.88 173 45 C177.97 41.5 179.86 36.5 182 31 C183.32 31 184.64 31 186 31 C187.56 35.46 186.16 38.33 184.38 42.52 C181.76 47.24 178.09 50.3 173 52 C167.04 52.53 161.77 51.74 156.12 49.75 C155.37 49.49 154.62 49.24 153.84 48.97 C146.73 46.45 139.92 43.32 133.06 40.19 C119.68 34.09 106.08 29.21 92 25 C91.28 24.78 90.56 24.56 89.82 24.33 C73.79 19.56 56.5 21.76 40.22 23.92 C33.42 24.79 26.73 25.33 19.88 25.38 C19.08 25.39 18.28 25.4 17.45 25.42 C10.82 25.36 6.09 23.96 1.12 19.31 C-1.79 14.77 -2.51 10.93 -1.6 5.71 C-1.13 3.79 -0.57 1.89 0 0 Z " fill="#000202" transform="translate(474,478)"/>
<path d="M0 0 C6.89 4.62 12.3 13.23 14.3 21.2 C14.45 26.06 12.23 29.87 9.38 33.69 C6.56 35.81 6.56 35.81 4.38 36.69 C-5.95 31.61 -20.01 22.77 -24.62 11.69 C-24.53 8.1 -23.73 6.81 -21.38 4.06 C-14.55 -1.83 -8.63 -3.13 0 0 Z " fill="#000202" transform="translate(554.625,415.3125)"/>
<path d="M0 0 C5.15 4.27 7.17 7.47 8.35 14.04 C7.72 17.54 7.72 17.54 4.72 20.16 C-1.79 23.7 -9.18 25.54 -16.28 27.54 C-16.99 27.75 -17.71 27.95 -18.44 28.16 C-20.78 28.64 -23.02 28.75 -25.4 28.79 C-26.27 28.81 -27.14 28.84 -28.04 28.87 C-28.78 28.76 -29.51 28.65 -30.28 28.54 C-33.43 23.8 -33.77 19.18 -33.28 13.54 C-29.96 6.3 -22.33 1.66 -15.21 -1.46 C-9.81 -3.18 -4.84 -3.11 0 0 Z " fill="#000202" transform="translate(611.27734375,427.4609375)"/>
<path d="M0 0 C5.72 3.52 9.63 8.73 12 15 C12.13 17.78 12.13 17.78 12 20 C8.86 20.99 7.46 21.21 4.42 19.81 C3.54 19.21 2.66 18.62 1.75 18 C0.32 17.04 0.32 17.04 -1.14 16.05 C-11.05 8.95 -11.05 8.95 -15 5 C-15 3.06 -15 3.06 -14 1 C-9.2 -2.51 -5.27 -2.39 0 0 Z " fill="#000202" transform="translate(689,296)"/>
<path d="M0 0 C2.62 2.31 2.62 2.31 4 5 C3.59 7.17 3.59 7.17 3 9 C-14.15 13.57 -14.15 13.57 -23 14 C-23.81 11.81 -23.81 11.81 -24 9 C-18.05 1.38 -9.45 -2.5 0 0 Z " fill="#000202" transform="translate(531,270)"/>
<path d="M0 0 C1.57 1.07 3.14 2.15 4.69 3.25 C4.36 4.57 4.03 5.89 3.69 7.25 C-0.96 6.42 -4.96 3.96 -9.09 1.78 C-14.63 -1.08 -19.08 -1.88 -25.27 -1.85 C-26.38 -1.84 -27.49 -1.84 -28.64 -1.84 C-29.79 -1.83 -30.94 -1.82 -32.12 -1.81 C-33.29 -1.81 -34.46 -1.8 -35.67 -1.8 C-38.55 -1.79 -41.43 -1.77 -44.31 -1.75 C-44.64 -2.41 -44.97 -3.07 -45.31 -3.75 C-44.31 -5.75 -44.31 -5.75 -41.29 -6.85 C-27.16 -10.52 -12.19 -7.65 0 0 Z " fill="#000202" transform="translate(583.3125,532.75)"/>
</g>
</svg>
