<?xml version='1.0' encoding='UTF-8'?>
<svg xmlns="http://www.w3.org/2000/svg" xmlns:xlink="http://www.w3.org/1999/xlink" width="297" height="210" viewBox="0 0 297 210">
  <rect x="0" y="0" width="297" height="210" fill="white"/>
  <g transform="translate(74.5,31.0) scale(0.20555555555555555)"><path d="M628.5,400.8c-22.2-15.6-52.3-21.2-82.7-15.4c-11.3,2.2-24.9,5.5-38.8,10.4c9.4-10.9,16.8-22.6,21-37.1  c8.3-28.2,1.4-66.8-27.7-82.6c-5-2.7-10.2-4.5-15.2-6.3c-5.4-1.9-10.5-3.7-14.9-6.4c-15.4-9.6-21-29.9-26.4-49.5l-0.5-1.8  c-5.5-19.9-15.7-47.2-40.3-55.3c-12.1-4-24.4-2-36.2-0.2c-10.9,1.7-21.1,3.3-30.1,0.1c-15.1-5.3-23.4-23.1-28.3-36.1l-2-5.2  c-6-16-12.2-32.6-26.2-43.7c-10.7-8.5-24.9-12.2-39.9-10.3c-18.9,2.4-37,12.9-48.5,28.1c-20.2,26.6-22.7,61.8-22.6,89.5  c0.3,105.6,31.1,202.8,89.3,284.5c-7.4-0.8-14.8,0.4-21.5,3.6c-23.5-12.4-47.4-25.5-65.2-45.1c-14.4-15.9-27.2-41.1-22.2-66.2  c0.3-0.1,0.7-0.2,1-0.3c3.2-1.4,6.3-3.9,8.6-7.2c2.4-3.2,3.9-6.9,4.3-10.3c0.6-4.8-1-9-4.4-11.5c-6-4.4-14.9-1.7-20.9,6.3  c-5,6.7-5.7,14.4-2.3,19.3c-6.5,30.4,8.3,60.5,25.3,79.2c17.8,19.6,41.3,33.3,63.3,45c-0.8,0.9-1.7,1.6-2.4,2.6  c-3,4.1-5.2,8.6-6.4,13.4c-49.3-7.9-98-40.8-124.3-84.1c2-5.9-0.9-13.1-7.6-18.1c-8-5.9-17.5-5.8-22.1,0.4c-4.6,6.2-2,15.3,6,21.3  c3.3,2.4,7.1,4,10.7,4.3c0.5,0,0.9,0.1,1.4,0.1c0,0,0,0,0.1,0c28.7,46.7,81.5,82.1,134.8,90.2c0.1,0.6,0,1.3,0.1,1.9  c1.6,10.4,7.1,19.7,15.6,26c6.9,5.1,15.1,7.8,23.5,7.8c2,0,3.9-0.1,5.9-0.4c4.1-0.6,7.9-2,11.5-3.7c2.9,3.6,6.5,6.4,10.2,8.7  c1.2,1.9,3.3,3.3,5.8,3.3h0.1c0,0,0,0,0.1,0c3.9,1.9,7.7,3.4,11,4.6l18.6,7.1c0.3,0.2,0.6,0.6,1,0.8c2,1,4.1,1.6,6.3,2l41.9,16  c0.4,0.2,0.7,0.5,1.1,0.6c0.5,0.2,1,0.2,1.4,0.4l53.6,20.4c3.5,1.3,7.5,2.9,12.1,3.2c0.5,0,1.1,0.1,1.6,0.1c5.4,0,10.3-2,13.6-5.5  c5-5.3,5.9-13.8,2.2-21.1c-1.3-2.5-2.9-4.6-4.8-6.5c14.4,3,29.2,4.5,44,4.5c44.8,0,89.8-13.4,126-39c25.2-17.8,40.2-37.8,44.6-59.5  C667.4,449.8,654.1,418.8,628.5,400.8 M203,98c9.1-12.1,24.1-20.7,39.1-22.6c8-1,19.5-0.5,29.5,7.4c11,8.7,16.5,23.4,21.8,37.7  l2,5.3c5.9,15.6,16.2,37.1,36.8,44.3c12.4,4.3,24.9,2.4,37,0.5c10.7-1.7,20.7-3.2,29.7-0.3c13.9,4.5,23.8,19,31.2,45.7l0.5,1.8  c5.8,21.2,12.5,45.2,32.5,57.7c5.7,3.6,11.8,5.7,17.7,7.7c4.7,1.6,9.1,3.2,13.1,5.4c22.7,12.3,27.7,43.4,21,66.4  c-6,20.6-19.8,35.1-37.6,51.6c0.4-0.8,0.8-1.6,1.2-2.4c2-4.2,4.2-8.6,6.6-13.6c10.8-22.8,14.8-55.1-0.5-75.9  c-8.4-11.3-20.9-17.4-32.9-23.3c-11.8-5.8-22.9-11.2-28.8-21c-4.4-7.3-5.5-16.4-6.6-26c-1.2-10.3-2.5-20.9-7.9-30.5  c-12-21.4-38.6-27.8-60.6-30.9c-20.5-2.9-41.8-5.9-53.4-20.3c-5.1-6.3-7.9-14.4-10.9-22.9c-1.1-3.2-2.2-6.3-3.5-9.4  c-6.7-17.1-16.9-27.7-29.4-30.8c-17.2-4.2-33.9,7.3-41.5,21c-7.5,13.5-8.5,29.2-8.8,42.9c-2.8,116.1,31.5,230.8,96.8,326.4  C222.8,403.8,183.5,296.7,183.2,179C183.1,153.5,185.3,121.3,203,98 M391.8,565c-5.4,3.7-12.6,4.8-18.9,3.1l-24.9-9.5  c3.3-2.4,6.5-5.5,9.4-9.2c2.4-3.1,4.4-6.4,6.2-9.8c3.9,2.1,7.9,4.2,11.8,6.3l23.4,12.7C396.6,561,394.3,563.3,391.8,565   M290.2,535.7c-3-1.7-5.6-3.7-7.6-6c1.1-1.2,2.2-2.2,3.2-3.5c3.9-5.2,6.1-11.2,7.1-17.2c1.3,0.4,2.6,0.7,3.8,1  c0.5,0.3,1.1,0.4,1.7,0.5c3.9,1.2,7.8,2.5,11.7,4c-0.5,5.2-2.6,10.3-6.1,14.1C300.4,532.4,295.4,534.9,290.2,535.7 M342.3,513.1  C315.5,458,294,400,278.5,340.7c-4.6-17.6-9.4-38.1-9.1-58.5c0.2-10.2,1.8-19.9,4.7-28.7c1.7-5.2,6.1-6.8,9.7-6.6  c3.6,0.2,7.9,2.3,9.1,8c5.2,24.8,16.7,31.3,25.4,32.3c9.7,1.2,17.3-4.1,24.1-8.7c4.9-3.4,9.5-6.6,13.9-6.6c0,0,0.1,0,0.1,0  c6.7,0,12.3,7.8,13.3,15.2c1,7.6-0.9,15.5-3,24c-0.4,1.8-0.9,3.5-1.3,5.3c-2.5,10.7-4.4,24.5,2.2,36.4c7.1,12.8,20.9,18.2,33.1,23  c1.7,0.7,3.3,1.3,4.9,2c10.8,4.4,22.1,12.5,21.5,22.3c-0.2,3.5-2.1,7.4-3.9,11.1c-7.8,16-17.2,39.3-26.2,61.7  c-8.1,20.2-16.4,40.9-23.6,56.2C363.3,523.5,352.9,518.1,342.3,513.1 M402.5,544.5c-0.2-0.1-0.3,0-0.5,0l-14.3-7.7  c30.3-37.7,77.1-54.2,111.6-56.9c11.2-0.9,18.1,0.4,22.6,4.2c6.5,5.5,6.6,16,3.4,23.1c-3.4,7.6-10.3,14.2-21,20.3  C478.3,542.2,430.1,552.9,402.5,544.5 M511.3,539.5c13.4-7.6,22.2-16.4,26.9-26.7c5.4-12.1,4.7-29.6-7.2-39.6  c-9.7-8.1-22.6-8.3-32.7-7.4c-29.9,2.4-68.3,14.3-99.4,39.9c3.7-9,7.5-18.4,11.2-27.7c8.9-22.2,18.2-45.2,25.8-60.8  c2.2-4.5,4.9-10,5.3-16.3c1-14.6-10.3-28.1-30.2-36.2c-1.7-0.7-3.4-1.4-5.1-2c-10.9-4.3-21.3-8.3-25.9-16.7  c-4.3-7.8-2.7-18.3-0.8-26.6c0.4-1.7,0.8-3.4,1.2-5.1c2.3-9.3,4.6-19,3.2-29.2c-1.8-13.5-12.5-27.3-27.1-27.3c-0.1,0-0.3,0-0.4,0  c-8.6,0.1-15.6,4.9-21.7,9.1c-5.4,3.7-10,6.9-14.5,6.4c-8-1-11.8-13.8-13.4-21.7c-2.2-10.6-11.1-18.2-22-18.8  c-10.9-0.6-20.4,5.9-23.8,16.2c-3.3,10.1-5.1,21.2-5.4,32.8c-0.4,22.1,4.7,43.7,9.5,62.3c13.7,52.5,32,104,54.5,153.4  c-71-96.3-108.5-214.3-105.6-334.1c0.3-12.6,1.1-25.7,7-36.4c4.9-8.8,15.6-16.7,25.9-14.2c10,2.5,16.3,13.5,19.8,22.3  c1.2,2.9,2.2,5.9,3.2,8.9c3.2,9.3,6.6,18.9,13.2,27.1c15.1,18.7,40.2,22.3,62.5,25.4c19.8,2.8,41.2,7.9,50.2,23.9  c4,7.2,5.1,16,6.2,25.3c1.3,10.7,2.6,21.7,8.6,31.6c8,13.3,21.6,19.9,34.6,26.3c11,5.4,21.4,10.5,27.8,19.1  c11.9,16,7.9,43.1-0.9,61.5c-2.4,5-4.5,9.4-6.5,13.5c-6.4,13.1-11.9,24.5-20.9,46.6c-1.1,2.7-0.4,5.9,1.8,7.9c2.2,2,5.4,2.4,8,1  c28.2-15.1,62.2-19.9,93.4-13.1c15.4,3.4,25.4,9.4,29.7,17.9c7.9,15.8-5.9,35.4-10.3,41.1c-16.6,21.3-41.8,37.4-68.9,46.6  C503,543.8,507.4,541.7,511.3,539.5 M257.8,527.9c-6.8,1-13.5-0.7-19-4.8c-5.5-4.1-9-10-10-16.8c-1-6.7,0.7-13.5,4.8-19  c5-6.7,12.7-10.3,20.6-10.3c5.3,0,10.6,1.6,15.2,5c11.3,8.4,13.7,24.4,5.3,35.7C270.5,523.4,264.5,526.9,257.8,527.9 M314.2,538.1  c4.8-5.1,7.8-11.5,9.2-18.3c9.4,4,18.6,8.5,27.8,13.2c-1.4,2.7-2.9,5.3-4.8,7.7c-3.4,4.4-7,7.4-10.8,9c-2.6,1.1-5.2,1.5-7.6,1.2  l-19.8-7.6C310.3,541.9,312.4,540.1,314.2,538.1 M439.4,590.1c-0.7,0.7-2.3,1.2-4,1c-2.5-0.2-5.2-1.2-8.1-2.3l-29.4-11.2  c0.6-0.3,1.2-0.6,1.7-1c4.7-3.2,8.3-7.2,11.6-11.3l0.1,0c6.9,3.7,14.1,7.6,20.5,12.1c2.9,2,6.1,4.5,7.5,7.4  C440.3,586.7,440.4,589.1,439.4,590.1 M648,475.2c-3.7,18.1-16.8,35.2-38.9,50.9c-34.1,24.1-76.5,36.6-118.7,36.4  c34.4-8.9,67.4-28.2,88-54.7c7.3-9.4,23-33.5,11.8-56c-6.2-12.5-19.4-21-39.2-25.3c-28.5-6.2-59.1-3.7-86.4,6.8  c0.6-1.4,1.2-2.7,1.8-4c2.3,1.1,5,1,7.2-0.6c22.5-16.7,53.1-25.2,74.9-29.4c26.7-5.1,52.9-0.4,72,13.1  C641.2,426.9,652.5,452.8,648,475.2"/>
</g>
</svg>
