<?xml version='1.0' encoding='UTF-8'?>
<svg xmlns="http://www.w3.org/2000/svg" xmlns:xlink="http://www.w3.org/1999/xlink" width="297" height="210" viewBox="0 0 297 210">
  <rect x="0" y="0" width="297" height="210" fill="white"/>
  <g transform="translate(74.5,31.0) scale(0.148)"><style type="text/css">
	.st0{fill:none;stroke:#000000;stroke-width:5;stroke-miterlimit:10;}
	.st1{fill:none;stroke:#020202;stroke-width:5;stroke-miterlimit:10;}
</style>
<ellipse transform="matrix(0.9943 -0.1068 0.1068 0.9943 -26.6754 39.1748)" class="st0" cx="352.29" cy="268.55" rx="277.61" ry="246.76"/>
<path class="st0" d="M146.73,437.85c0,0-47.53,36.88-30.1,85.84c17.43,48.96,76.34,30.7,76.34,30.7s8.3,63.06,68.04,63.06  s70.53-57.26,70.53-57.26s39.83,44.81,89.62,32.36c49.79-12.45,61.99-73.85,61.99-73.85s47.54,15.77,80.73,0  c33.19-15.77,6.64-58.92,6.64-58.92s46.47,29.04,78,5.81s0-63.06,0-63.06s70.53,18.26,82.98-19.09c12.45-37.34-39-81.32-39-81.32  s53.94-18.26,27.38-54.77c-26.55-36.51-96.47-27.69-96.47-27.69"/>
<path class="st1" d="M313.64,595.15c0,0,15.13,56.05-31.33,51.62c-46.47-4.43-83.53-32.64-106.21,16.6  c-17.01,36.93-10.37,58.29,4.51,64.57c8.49,3.58,18.3-0.75,22.02-9.18c8.34-18.93,15.96-37.49,57-30.49  c48.68,8.3,100.28-1.9,98.15-107.16"/>
<path class="st1" d="M375.34,589.53c0,0,12.61,149.63-27.77,193.88s-30.43,107.32,0,104.55s102.85-149.37,64.7-294.25"/>
<path class="st1" d="M425.12,589.53c0,0,57.19,164.97,38.38,236.33s-26.92,114.51,3.69,120.04c30.61,5.53,56.61-114.22,34.48-218.36  s-44.19-159.12-44.19-159.12"/>
<path class="st1" d="M470.49,550.28c0,0,81.71,154.21,68.99,258.77c-11.67,95.88,33.89,155.48,73.52,158.3  c7.93,0.57,14.87-5.42,15.2-13.36c0.37-8.68-3.3-19.34-17.92-23.79c-25.45-7.74-49.79-66.94-37.06-153.79  s-49.71-253.53-78.19-254.48"/>
<path class="st1" d="M543.24,524.56c0,0,20.47,91.23,73.2,129.32c53.1,38.35,69.15,161.43,55.87,237.77  c-7.47,42.94,13.59,54.55,33.45,56.49c13.49,1.32,23.1-12.99,17.04-25.11c-8.94-17.88-18.41-43.88-13.99-67.89  c7.74-42.04,28.21-131.11-30.98-185.32c-59.19-54.21-101.68-163.14-101.68-163.14"/>
<path class="st1" d="M731.5,624.71c-15.69-9.94-74.62-63.28-90.43-155.31"/>
<path class="st1" d="M601.57,472.4c0,0,30.64,120.42,73.23,163.58c31.12,31.53,136.13,60.36,176.92,147.53  c1.43,3.06,4.31,5.28,7.66,5.69c23,2.82,34.84-51.4-13.68-94.31c-44.9-39.7-102.16-62.1-114.2-70.19"/>
<path class="st1" d="M658.76,454.23c-0.63,1.81,25.33,85.8,86.57,56.46c6.53-3.13,12.84-5.54,18.78-7.56  c32.19-10.95,67.39-2.2,92.38,20.85c7.69,7.1,17.25,10.98,26.59,1.64c20.74-20.74,19.91-54.83-39.28-71.39  c-35.01-9.8-68.47-1.65-89.97,6.65c-39.08,15.08-81.88-12.6-83.13-54.47c-0.03-1-0.05-2.01-0.06-3.04"/>
<path class="st1" d="M280.1,418.1c0,0,217.41,84.46,250.6-136.07"/>
<line class="st1" x1="280.1" y1="403.37" x2="280.1" y2="433.99"/>
<line class="st1" x1="516.12" y1="277.35" x2="545.27" y2="286.7"/>
<path d="M422.15,186.66c-3.14-16.37-17.79-27.32-32.73-24.46c-14.94,2.86-24.51,18.45-21.37,34.82  c3.14,16.37,17.79,27.32,32.73,24.46C415.72,218.62,425.29,203.03,422.15,186.66z M386.03,205.82c-1.89,0.54-3.94-0.81-4.58-3.02  c-0.64-2.21,0.38-4.44,2.27-4.99c1.89-0.54,3.94,0.81,4.58,3.02C388.93,203.04,387.92,205.27,386.03,205.82z M404.58,194.7  c-5.04,1.45-10.5-2.15-12.2-8.04c-1.7-5.89,1.01-11.85,6.05-13.3c5.04-1.45,10.5,2.15,12.2,8.04  C412.32,187.29,409.62,193.25,404.58,194.7z"/>
<path d="M284.08,283.54c-3.14-16.37-17.79-27.32-32.73-24.46c-14.94,2.86-24.51,18.45-21.37,34.82  c3.14,16.37,17.79,27.32,32.73,24.46C277.65,315.5,287.22,299.91,284.08,283.54z M247.96,302.69c-1.89,0.54-3.94-0.81-4.58-3.02  c-0.64-2.21,0.38-4.44,2.27-4.99c1.89-0.54,3.94,0.81,4.58,3.02C250.86,299.91,249.85,302.15,247.96,302.69z M266.51,291.57  c-5.04,1.45-10.5-2.15-12.2-8.04c-1.7-5.89,1.01-11.85,6.05-13.3c5.04-1.45,10.5,2.15,12.2,8.04  C274.25,284.17,271.55,290.12,266.51,291.57z"/>
</g>
</svg>
