<?xml version='1.0' encoding='UTF-8'?>
<svg xmlns="http://www.w3.org/2000/svg" width="297" height="210" viewBox="0 0 297 210">
  <rect x="0" y="0" width="297" height="210" fill="white"/>
  <g transform="translate(110.28593749999999,31.0) scale(0.115625)"><path d="M0 0 C26.58 14.72 47.24 40.89 62.83 66.42 C63.41 67.33 63.98 68.24 64.58 69.18 C65.83 71.42 65.83 71.42 65.83 73.42 C66.68 72.94 66.68 72.94 67.55 72.46 C93.5 58.09 122.25 47.2 151.83 43.42 C152.91 43.28 152.91 43.28 154.02 43.14 C180.4 40.24 208.9 40.81 234.83 46.42 C235.97 46.65 237.11 46.89 238.28 47.13 C263.24 52.44 285.22 62.06 307.54 74.25 C309.92 75.46 312.34 76.46 314.83 77.42 C315.19 76.62 315.54 75.82 315.91 74.99 C323.56 58.65 334.88 44.8 346.83 31.42 C347.73 30.4 348.63 29.38 349.53 28.36 C354.33 22.96 359.21 17.97 364.83 13.42 C366.23 12.25 366.23 12.25 367.66 11.05 C379.32 1.5 393.41 -7.21 408.87 -6.89 C415.65 -6.18 420.61 -2.66 425.17 2.27 C436.85 17.39 438.07 38.09 438.08 56.42 C438.09 57.48 438.09 57.48 438.09 58.56 C438.05 85.63 436.01 120.43 416.83 141.42 C416.14 142.19 415.45 142.96 414.74 143.75 C407.78 151.14 400.1 155.54 390.83 159.42 C391.16 160.05 391.48 160.68 391.81 161.33 C418.54 214.27 426.04 273.52 408.08 330.7 C399.03 358.15 385.68 383.21 366.59 404.98 C361.83 410.43 357.96 414.96 357.83 422.42 C359.31 427.71 361.87 432.44 364.52 437.23 C367.98 443.92 370.36 450.71 372.45 457.93 C372.78 459.07 373.12 460.22 373.47 461.41 C378.27 478.09 382.43 494.94 386.66 511.78 C387.57 515.44 388.5 519.09 389.43 522.75 C390.32 526.29 391.21 529.82 392.1 533.36 C392.53 535.04 392.95 536.72 393.38 538.4 C393.96 540.72 394.54 543.05 395.13 545.37 C395.3 546.06 395.47 546.75 395.65 547.46 C396.83 552.19 396.83 552.19 396.83 554.42 C413.49 545.92 425.41 535.03 433.05 517.66 C434.11 513.26 433.84 509.28 433.52 504.79 C433.47 503.9 433.42 503.01 433.36 502.09 C433.07 497.46 432.71 492.85 432.27 488.23 C431.84 483.27 431.66 478.33 431.58 473.36 C431.56 472.62 431.54 471.88 431.52 471.12 C431.5 468.19 431.49 465.98 433.04 463.45 C435.41 462.09 437.11 461.99 439.83 461.98 C440.7 461.96 441.57 461.94 442.46 461.92 C444.83 462.42 444.83 462.42 446.6 464.21 C448.27 467.21 448.51 470.04 448.83 473.42 C449.17 472.5 449.51 471.59 449.86 470.65 C450.53 468.86 450.53 468.86 451.21 467.04 C451.65 465.86 452.09 464.68 452.55 463.46 C453.83 460.42 453.83 460.42 455.83 458.42 C460.2 458.56 462.98 459 466.9 460.92 C469.07 463.72 469.11 464.23 468.83 467.61 C468.02 472.38 466.53 476.9 464.83 481.42 C465.38 480.92 465.92 480.43 466.48 479.92 C467.19 479.28 467.91 478.64 468.65 477.98 C469.35 477.34 470.06 476.71 470.79 476.05 C472.83 474.42 472.83 474.42 475.83 473.42 C477.88 474.68 477.88 474.68 480.02 476.54 C481.1 477.44 481.1 477.44 482.19 478.36 C483.83 480.42 483.83 480.42 484.35 482.83 C483.62 486.48 481.92 488.01 479.33 490.67 C478.86 491.17 478.38 491.67 477.88 492.19 C476.81 493.31 475.73 494.43 474.65 495.55 C471.94 498.34 469.26 501.16 466.58 503.99 C465.2 505.45 463.8 506.91 462.41 508.37 C456.26 514.83 451.84 520.8 448.58 529.11 C443.49 541.32 435.37 550.42 425.83 559.42 C428.58 562.17 431.93 563.46 435.4 565.11 C441.83 568.25 447.49 571.58 452.83 576.42 C453.84 577.29 453.84 577.29 454.87 578.18 C469.78 591.9 477.26 613.44 478.15 633.25 C479.03 665.66 468.56 695.57 446.21 719.32 C439.64 726.14 433.07 732.63 424.83 737.42 C424.23 737.77 423.63 738.12 423.02 738.49 C409.79 746.16 395.22 752.97 379.63 752.2 C378.22 752.15 376.82 752.11 375.41 752.07 C373.22 752 371.03 751.92 368.84 751.79 C360.07 751.11 360.07 751.11 352.22 754.34 C350.25 756.61 348.55 758.95 346.83 761.42 C344.11 763.5 344.11 763.5 341.77 764.79 C341 765.23 340.22 765.68 339.42 766.13 C338.14 766.77 338.14 766.77 336.83 767.42 C335.78 767.95 334.73 768.49 333.64 769.04 C329.15 770.9 324.77 770.99 319.96 771.11 C318.42 771.16 318.42 771.16 316.84 771.21 C304.51 771.53 292.17 771.52 279.83 771.54 C278.25 771.55 278.25 771.55 276.64 771.55 C230.49 771.64 230.49 771.64 217.64 759.31 C208.94 749.99 205.83 741.1 205.83 728.42 C192.3 728.42 178.77 728.42 164.83 728.42 C165.16 730.4 165.49 732.38 165.83 734.42 C165.24 744.39 159.07 754.75 151.83 761.42 C138.26 772.11 124.16 771.58 107.46 771.55 C106.01 771.55 104.56 771.55 103.1 771.55 C100.07 771.56 97.05 771.55 94.02 771.55 C90.17 771.54 86.33 771.55 82.49 771.55 C79.49 771.56 76.49 771.56 73.5 771.55 C72.08 771.55 70.67 771.55 69.25 771.55 C35.58 771.6 35.58 771.6 21.83 758.42 C21.2 757.35 20.57 756.28 19.91 755.17 C17.99 752.82 17.03 752.45 13.96 751.99 C10.28 751.93 6.64 752.06 2.96 752.23 C-7.59 752.48 -17.01 752.57 -27.17 749.42 C-27.8 749.23 -28.43 749.03 -29.08 748.83 C-45.28 743.72 -58.17 735.31 -70.17 723.42 C-71.06 722.57 -71.96 721.72 -72.88 720.85 C-92.13 702.36 -105.58 673.63 -106.5 646.78 C-106.67 633.76 -106.58 621.77 -102.17 609.42 C-101.81 608.38 -101.46 607.35 -101.1 606.29 C-94.28 588.13 -81.62 573.11 -64.17 564.42 C-56.01 560.9 -47.72 558.88 -38.87 558.07 C-35.47 557.25 -34.44 556.06 -32.17 553.42 C-28.31 546.02 -25.91 537.92 -23.67 529.92 C-23.34 528.78 -23.02 527.64 -22.68 526.46 C-20.3 517.91 -18.13 509.31 -16.01 500.7 C-15.73 499.57 -15.45 498.43 -15.16 497.27 C-13.76 491.57 -12.37 485.87 -11 480.16 C-6.04 459.71 0.14 439.36 11.9 421.67 C14.03 418.78 14.03 418.78 13.73 416.52 C12.49 413.62 10.66 411.86 8.46 409.61 C-2.58 397.86 -11.09 384.31 -19.17 370.42 C-19.54 369.78 -19.91 369.15 -20.29 368.5 C-47.83 321.21 -53.02 260.92 -39.3 208.56 C-35.21 194.02 -29.9 179.98 -22.83 166.63 C-20.22 161.59 -18.9 158.15 -19.17 152.42 C-20.25 152.05 -20.25 152.05 -21.36 151.67 C-32.53 146.69 -40.33 134.59 -44.98 123.7 C-51.72 105.09 -54.45 85.13 -55.17 65.42 C-55.21 64.33 -55.25 63.25 -55.29 62.13 C-55.66 42.56 -54.79 16.7 -41.25 1.23 C-28.48 -10.6 -14.28 -7.51 0 0 Z M-36.92 5.79 C-53.34 26.49 -49.59 62.27 -46.98 86.54 C-44.45 107.8 -39.79 128.55 -23.17 143.42 C-19.62 145.99 -15.97 148.25 -12.17 150.42 C-11.18 151.08 -10.19 151.74 -9.17 152.42 C-9.7 155.74 -11.15 158.19 -12.89 161.03 C-24.56 180.22 -31.94 202.44 -36.17 224.42 C-36.29 225.08 -36.42 225.75 -36.56 226.43 C-38.98 239.19 -39.69 251.63 -39.6 264.61 C-39.6 265.55 -39.6 266.48 -39.59 267.45 C-39.52 282.1 -38.67 296.14 -35.17 310.42 C-34.95 311.34 -34.74 312.26 -34.52 313.2 C-28.03 340.62 -16.32 366.99 0.52 389.65 C1.78 391.34 3 393.05 4.23 394.77 C16.13 411.01 31.37 425.84 47.83 437.42 C48.48 437.89 49.13 438.35 49.8 438.83 C65.16 449.8 81.74 458.81 99.27 465.79 C100.49 466.28 100.49 466.28 101.74 466.78 C105.58 468.27 109.39 469.61 113.35 470.71 C124.19 473.86 124.19 473.86 127.21 478.74 C128.57 481.31 129.75 483.94 130.94 486.59 C136.56 498.77 149.39 506.25 161.51 510.8 C180.72 516.43 201.7 514.92 219.4 505.57 C228.44 500.18 235.59 492.49 240.83 483.42 C245.95 474.94 251.97 472.85 261.02 469.98 C286.08 461.63 309.41 449.15 329.83 432.42 C330.39 431.96 330.95 431.51 331.53 431.04 C375.19 395.17 403.61 345.32 410.44 288.88 C411.17 280.8 411.08 272.65 411.08 264.54 C411.09 263.67 411.09 262.8 411.09 261.9 C411.07 249.17 410.68 236.88 407.83 224.42 C407.66 223.62 407.49 222.82 407.31 222 C402.81 201.3 395.3 182.33 385.83 163.42 C385.44 162.63 385.05 161.84 384.64 161.03 C383.71 159.16 382.77 157.29 381.83 155.42 C382.66 155.13 383.48 154.84 384.33 154.54 C399.67 148.9 413.19 140.49 420.83 125.42 C434.57 92.83 437.91 46.53 424.83 13.42 C421.7 7.07 418.42 3.14 411.83 0.42 C400.32 -2.18 391.58 2.45 381.83 8.42 C369.2 16.79 357.33 27.6 347.83 39.42 C346.93 40.52 346.02 41.61 345.11 42.71 C333.99 56.23 323.19 70.54 317.83 87.42 C313.7 85.96 310.44 83.89 306.83 81.42 C283.9 66.3 256.58 56.95 229.83 51.42 C228.99 51.24 228.15 51.06 227.29 50.88 C202.36 45.86 172.89 46.17 147.83 50.42 C147.01 50.55 146.18 50.69 145.32 50.83 C118.3 55.42 88.76 65.13 65.83 80.42 C64.84 80.42 63.85 80.42 62.83 80.42 C62.35 79.41 61.86 78.41 61.36 77.37 C53.17 60.95 42.43 46.7 29.83 33.42 C28.66 32.05 27.49 30.67 26.33 29.29 C15.37 16.78 -2.29 1.79 -19.48 -0.71 C-26.43 -0.9 -32 0.77 -36.92 5.79 Z M18.83 422.42 C10.45 436.72 3.74 450.63 -0.79 466.62 C-1.13 467.83 -1.47 469.03 -1.82 470.27 C-6.01 485.12 -9.74 500.1 -13.46 515.07 C-14.48 519.18 -15.51 523.28 -16.54 527.38 C-17.34 530.58 -18.14 533.77 -18.94 536.97 C-19.32 538.49 -19.7 540 -20.08 541.52 C-20.6 543.61 -21.12 545.7 -21.64 547.8 C-21.94 548.99 -22.23 550.17 -22.54 551.39 C-23.3 554.56 -23.3 554.56 -23.17 558.42 C-21.35 558.86 -21.35 558.86 -19.5 559.3 C-10.19 561.61 -1.47 564.25 7.24 568.28 C9.67 569.55 9.67 569.55 11.83 569.42 C12.16 561.17 12.49 552.92 12.83 544.42 C13.82 544.09 14.81 543.76 15.83 543.42 C16.57 565.14 17 586.85 17.1 608.58 C17.12 612.37 17.15 616.16 17.17 619.95 C17.24 630.31 17.29 640.67 17.35 651.03 C17.4 660.59 17.45 670.15 17.51 679.7 C17.54 683.44 17.56 687.18 17.57 690.91 C17.61 698.89 17.67 706.87 17.79 714.85 C17.82 717.19 17.84 719.52 17.86 721.86 C17.9 725 17.96 728.14 18.04 731.29 C18.05 732.62 18.05 732.62 18.05 733.99 C18.28 740.72 20.46 745.63 23.83 751.42 C27.65 750.15 28.82 748.2 31.24 745.11 C33.53 742.68 35.62 741.61 38.91 741.08 C44.69 740.98 49.21 741.8 53.83 745.42 C58.83 750.97 61.13 757.24 62.83 764.42 C64.15 764.42 65.47 764.42 66.83 764.42 C67.31 763.12 67.31 763.12 67.79 761.79 C73.74 745.76 73.74 745.76 80.92 742.11 C85.9 740.31 90.22 740.9 94.96 742.92 C100.3 745.92 103.79 750.29 105.73 756.09 C106.2 757.82 106.62 759.56 107 761.32 C107.66 763.6 107.66 763.6 109.92 764.71 C110.87 765.06 110.87 765.06 111.83 765.42 C112.23 764.3 112.62 763.19 113.02 762.04 C116.02 754.17 118.67 747.25 125.83 742.42 C130.4 740.9 135.14 740.51 139.77 742.07 C144.49 744.53 147.63 748.24 150.83 752.42 C153.15 750.29 154.58 748.3 155.96 745.48 C156.29 744.81 156.62 744.14 156.97 743.45 C158.71 739.37 158.98 735.7 159.04 731.27 C159.06 730.03 159.08 728.79 159.1 727.51 C159.12 726.16 159.13 724.81 159.15 723.47 C159.17 722.08 159.19 720.7 159.21 719.31 C159.27 715.68 159.32 712.04 159.37 708.4 C159.42 704.69 159.47 700.98 159.53 697.26 C159.64 689.98 159.74 682.7 159.83 675.42 C161.15 675.09 162.47 674.76 163.83 674.42 C164.82 698.18 164.82 698.18 165.83 722.42 C179.03 722.42 192.23 722.42 205.83 722.42 C205.98 717.8 206.12 713.18 206.27 708.42 C207.28 677.52 207.28 677.52 208.83 674.42 C209.49 674.42 210.15 674.42 210.83 674.42 C211.66 682.14 211.99 689.78 212.05 697.55 C212.07 699.84 212.1 702.14 212.13 704.43 C212.17 708 212.21 711.56 212.24 715.13 C212.26 718.6 212.31 722.08 212.36 725.55 C212.36 727.14 212.36 727.14 212.37 728.75 C212.52 737.71 214.19 745.31 219.83 752.42 C220.49 752.42 221.15 752.42 221.83 752.42 C222.43 751.51 223.03 750.6 223.65 749.67 C226.45 745.51 229.06 743.01 233.83 741.42 C240.09 740.89 244.76 741.52 249.83 745.42 C254.84 750.96 257.13 757.25 258.83 764.42 C260.15 764.42 261.47 764.42 262.83 764.42 C262.99 763.87 263.15 763.33 263.31 762.77 C267.85 748.12 267.85 748.12 273.96 743.92 C278.94 741.32 283.29 740.69 288.83 741.42 C292.27 743.42 292.27 743.42 294.83 745.42 C295.49 745.42 296.15 745.42 296.83 745.42 C298.35 748.34 299.63 751.3 300.83 754.36 C301.16 755.19 301.49 756.02 301.83 756.88 C302.16 757.72 302.49 758.56 302.83 759.42 C303.5 761.09 304.17 762.75 304.83 764.42 C306.15 764.42 307.47 764.42 308.83 764.42 C309.05 763.65 309.27 762.87 309.5 762.07 C311.94 754.05 314.75 747.95 321.15 742.42 C326.43 740.45 331.18 740.94 336.52 742.48 C340.58 744.85 343.05 747.69 345.83 751.42 C350.37 747.36 352.86 743.22 353.34 737.11 C353.41 735.48 353.47 733.84 353.51 732.21 C353.56 730.89 353.56 730.89 353.61 729.54 C353.92 720.63 354.01 711.72 354.04 702.81 C354.05 701.05 354.06 699.3 354.07 697.54 C354.1 692.84 354.12 688.14 354.14 683.45 C354.16 678.51 354.19 673.58 354.21 668.64 C354.26 659.33 354.31 650.01 354.35 640.7 C354.4 630.08 354.46 619.47 354.51 608.85 C354.62 587.04 354.73 565.23 354.83 543.42 C355.82 543.75 356.81 544.08 357.83 544.42 C358.81 547.34 359.03 549.47 359.15 552.52 C359.19 553.51 359.23 554.49 359.28 555.5 C359.32 556.53 359.36 557.55 359.4 558.61 C359.44 559.64 359.48 560.68 359.53 561.74 C359.63 564.3 359.74 566.86 359.83 569.42 C363.7 568.19 367.45 566.78 371.19 565.21 C377.11 562.74 382.67 560.73 389.08 559.84 C389.95 559.63 389.95 559.63 390.83 559.42 C392.49 556.11 390.84 552.77 389.93 549.34 C389.72 548.5 389.5 547.67 389.28 546.81 C388.57 544.02 387.84 541.24 387.11 538.46 C386.61 536.51 386.11 534.57 385.6 532.62 C384.54 528.53 383.48 524.43 382.41 520.34 C381.06 515.15 379.72 509.96 378.38 504.77 C377.33 500.74 376.29 496.71 375.24 492.68 C374.75 490.77 374.25 488.86 373.76 486.95 C371.22 477.14 368.59 467.36 365.74 457.63 C365.5 456.83 365.27 456.03 365.04 455.21 C361.74 444.17 356.21 433.98 349.83 424.42 C347.06 425.71 344.83 427.1 342.52 429.1 C341.62 429.87 341.62 429.87 340.7 430.66 C340.09 431.2 339.47 431.74 338.83 432.29 C338.22 432.82 337.6 433.35 336.97 433.9 C329.91 439.59 329.91 439.59 325.83 447.42 C325.95 450.12 325.95 450.12 326.58 452.92 C328.91 464.75 330.21 476.09 330.15 488.17 C330.14 488.87 330.14 489.58 330.14 490.3 C330.09 500.96 329.58 511.07 326.83 521.42 C326.65 522.16 326.47 522.91 326.28 523.68 C319.78 549.82 306.75 571.58 288.83 591.42 C288.1 592.24 287.36 593.07 286.6 593.91 C262.79 619.07 226.08 633.54 191.85 634.62 C152.12 635.21 115.34 622.6 86.4 594.92 C85.55 594.09 84.71 593.27 83.83 592.42 C83.13 591.78 82.43 591.14 81.71 590.48 C58.42 568.69 42.84 532.63 41.71 500.98 C41.63 496.81 41.59 492.65 41.58 488.48 C41.58 487.74 41.58 487.01 41.58 486.25 C41.57 476.5 42.09 467.24 44.15 457.69 C45.29 452.21 45.76 447.06 43.9 441.73 C41.36 438.89 38.57 436.73 35.52 434.47 C31.83 431.66 28.33 428.65 24.82 425.62 C22.2 423.15 22.2 423.15 18.83 422.42 Z M51.83 448.42 C51.18 451.23 50.54 454.04 49.9 456.86 C49.71 457.64 49.53 458.42 49.34 459.23 C41.18 495.3 49.19 532.99 68.42 564.16 C79.42 581.49 93.35 596.52 110.83 607.42 C111.76 608 111.76 608 112.71 608.59 C146.05 629.14 183.67 633.33 221.48 624.64 C242.84 619.38 262.63 608.28 278.83 593.42 C279.34 592.95 279.85 592.49 280.37 592.01 C306.64 567.64 323.1 533.24 324.94 497.31 C325.42 480.7 323.42 464.62 319.83 448.42 C315.24 450.04 311.34 452.46 307.21 454.98 C292.43 463.79 277.15 470.3 260.91 475.97 C259.8 476.36 258.7 476.75 257.56 477.16 C256.58 477.5 255.59 477.84 254.58 478.19 C249.88 480.29 246.75 482.88 244.58 487.54 C236.67 502.6 222.25 511.44 206.48 516.49 C203.61 517.24 200.75 517.88 197.83 518.42 C197.14 518.55 196.45 518.68 195.74 518.81 C176.95 521.71 157.16 517.03 141.46 506.41 C133.26 500.18 127.69 493.24 122.82 484.3 C118.45 477.95 111.87 476.2 104.9 473.86 C87.85 467.87 71.79 460.19 56.72 450.22 C54.12 448.24 54.12 448.24 51.83 448.42 Z M458.83 465.42 C455.18 473.42 452.31 481.65 449.52 489.98 C449.16 491.05 448.8 492.12 448.43 493.23 C447.92 494.75 447.92 494.75 447.41 496.3 C447.11 497.21 446.8 498.12 446.49 499.07 C445.7 501.49 445.7 501.49 445.83 504.42 C445.17 504.42 444.51 504.42 443.83 504.42 C443.81 503.82 443.78 503.22 443.76 502.61 C443.29 491.53 442.81 480.47 441.83 469.42 C440.51 469.42 439.19 469.42 437.83 469.42 C437.69 476.75 438.15 483.93 438.83 491.23 C439.1 494.38 439.36 497.52 439.61 500.67 C439.79 502.91 439.98 505.14 440.18 507.38 C440.88 521.63 432.9 533.18 423.97 543.59 C419.29 548.59 413.95 552.2 408.18 555.85 C407.4 556.37 406.63 556.89 405.83 557.42 C405.83 557.75 405.83 558.08 405.83 558.42 C414.61 559.03 419.14 556 425.71 550.48 C434.71 542.15 440.92 531.59 445.71 520.38 C448.56 514.01 453.08 509.44 457.83 504.42 C459.72 502.38 461.59 500.34 463.46 498.29 C463.92 497.79 464.39 497.28 464.87 496.76 C467.57 493.8 470.28 490.84 472.96 487.86 C473.5 487.26 474.04 486.66 474.59 486.04 C476.05 484.32 476.05 484.32 476.83 481.42 C473.78 481.1 473.78 481.1 471.82 483.11 C471.08 483.87 470.34 484.63 469.58 485.42 C468.39 486.66 468.39 486.66 467.17 487.92 C464.59 490.68 462.07 493.49 459.61 496.36 C456.4 500.09 453.11 503.74 449.83 507.42 C452.04 499 454.62 490.74 457.4 482.49 C459.28 476.75 460.38 471.45 460.83 465.42 C460.17 465.42 459.51 465.42 458.83 465.42 Z M-84.03 588.7 C-98.99 607.78 -102.31 631.01 -99.48 654.48 C-95.5 678.28 -84.86 698.97 -68.17 716.42 C-67.49 717.17 -66.82 717.92 -66.12 718.69 C-52.45 733.34 -30.4 745.37 -10.17 746.42 C-2.77 746.62 4.54 746.71 11.83 745.42 C13.07 744.41 13.07 744.41 12.86 742.38 C12.79 741.07 12.79 741.07 12.71 739.73 C12.67 738.78 12.62 737.84 12.57 736.87 C12.48 735.38 12.48 735.38 12.4 733.86 C12.34 732.86 12.29 731.86 12.24 730.83 C12.11 728.36 11.97 725.89 11.83 723.42 C10.51 723.64 10.51 723.64 9.16 723.86 C-12.91 727.27 -30.9 723.33 -49.17 710.42 C-66.45 696.49 -78.41 676.66 -81.17 654.42 C-82.44 634.52 -80.16 616.83 -66.92 601.11 C-58.21 591.91 -45.94 585.95 -33.27 585.18 C-18.61 584.81 -6.53 587.52 6.23 594.93 C8.82 596.52 8.82 596.52 11.83 597.42 C12.62 586.43 12.62 586.43 8.83 576.42 C-2.45 565.92 -20.77 563.74 -35.49 564.11 C-54.79 565.06 -71.5 574.22 -84.03 588.7 Z M369.83 571.42 C369.13 571.7 368.43 571.99 367.71 572.28 C364.24 573.92 362.81 575.46 360.9 578.79 C359.03 584.78 359.6 591.23 359.83 597.42 C360.8 596.89 361.77 596.36 362.77 595.81 C375.87 588.83 388.74 584.15 403.83 585.42 C404.87 585.49 405.9 585.56 406.97 585.63 C418.96 586.92 430.72 592.33 438.83 601.42 C451.28 617.05 454.62 635.93 452.83 655.42 C449.55 678.57 436.81 698.08 418.48 712.2 C403.86 723.03 387.09 727.13 369.1 724.97 C366 724.49 362.92 723.98 359.83 723.42 C359.74 724.96 359.74 724.96 359.65 726.52 C359.57 727.88 359.48 729.25 359.4 730.61 C359.36 731.28 359.32 731.95 359.28 732.65 C359.05 736.32 358.66 739.84 357.83 743.42 C365.68 748.65 380.53 746.76 389.42 745.2 C408.04 740.96 422.93 732.29 436.83 719.42 C438.07 718.31 438.07 718.31 439.32 717.18 C459.49 698.16 471.23 668.82 472.19 641.35 C472.46 618.57 464.33 597.86 448.81 581.25 C435.79 568.72 418.13 564.04 400.47 564.2 C389.91 564.84 379.54 567.19 369.83 571.42 Z M-56.17 599.42 C-56.8 599.87 -57.44 600.32 -58.09 600.79 C-68.74 609.12 -74.5 622.21 -76.17 635.42 C-77.53 659.34 -70.43 680.11 -54.76 698.2 C-43.79 709.74 -28.27 719.21 -12 719.68 C-10.18 719.69 -8.36 719.68 -6.54 719.67 C-5.17 719.68 -5.17 719.68 -3.77 719.69 C1.17 719.68 5.21 719.35 9.83 717.42 C16.26 685.7 17.43 634.43 8.22 603.35 C6.03 600.3 2.88 598.96 -0.42 597.36 C-1.13 597.01 -1.84 596.66 -2.58 596.3 C-20.27 587.97 -39.97 587.75 -56.17 599.42 Z M364.83 601.42 C361.62 605.4 361.18 609.46 360.83 614.42 C360.78 615.14 360.73 615.87 360.67 616.62 C356.73 666.88 356.73 666.88 362.83 716.42 C367.38 720.97 374.97 719.73 380.99 719.73 C397.66 719.48 412.33 711.97 424.05 700.36 C435.16 688.86 443.73 674.21 446.83 658.42 C447.06 657.28 447.29 656.15 447.52 654.98 C448.98 638.32 447.16 621.46 436.3 608.09 C426.67 597.1 416.22 591.75 401.62 590.18 C388.92 589.74 375.11 593.92 364.83 601.42 Z M76.83 753.42 C74.55 757.07 73.83 760.06 73.83 764.42 C83.07 764.42 92.31 764.42 101.83 764.42 C100.62 756.83 100.62 756.83 96.96 751.48 C96.47 750.94 95.97 750.39 95.47 749.83 C92.86 747.58 90.77 746.54 87.34 746.1 C82.7 746.69 79.86 750.06 76.83 753.42 Z M124.83 750.42 C121.18 754.88 119.98 758.89 118.83 764.42 C128.34 764.86 137.17 764.63 144.83 758.42 C144.64 754.27 144.09 752.69 141.21 749.61 C135.25 745.22 130.37 745.63 124.83 750.42 Z M227.9 752.36 C226.67 754.4 226.67 754.4 226.65 756.92 C228.51 760.83 231.88 761.99 235.83 763.42 C239.5 764.34 242.88 764.53 246.65 764.48 C247.62 764.47 248.6 764.46 249.6 764.45 C250.34 764.44 251.08 764.43 251.83 764.42 C251.62 758.5 250.51 754.69 246.71 750.07 C239.85 744.03 233.8 746.46 227.9 752.36 Z M276.83 749.42 C271.62 754.52 271.58 756.56 269.83 764.42 C279.07 764.42 288.31 764.42 297.83 764.42 C296.79 757.07 294.8 752.02 288.83 747.42 C283.72 746.02 280.98 746.04 276.83 749.42 Z M318.58 753.17 C316.55 756.95 315.7 760.22 314.83 764.42 C324.29 765.24 332.06 764.27 339.83 758.42 C340.96 756.51 340.96 756.51 340.83 754.42 C339.1 750.92 336.49 748.1 332.86 746.61 C326.35 745.4 322.67 748.17 318.58 753.17 Z M34.83 749.42 C32.34 751.72 32.34 751.72 30.83 754.42 C30.87 756.47 30.87 756.47 31.83 758.42 C38.79 764.04 47.25 764.28 55.83 764.42 C55.46 758.46 53.84 753.95 49.83 749.42 C44.1 745.72 40.6 746.07 34.83 749.42 Z " fill="#000000" transform="translate(142.16552734375,327.581298828125)"/>
<path d="M0 0 C19.01 12.31 29.45 38.95 34.01 60.15 C34.17 60.91 34.33 61.66 34.5 62.44 C34.66 63.14 34.82 63.83 34.99 64.55 C39.79 85.46 41.26 111.65 30.75 131 C25.03 139.55 17.07 145.15 7.12 147.69 C-1.41 149.33 -11.84 149.6 -19.62 145.25 C-21.71 143.75 -23.6 142.17 -25.5 140.44 C-26.22 139.79 -26.93 139.14 -27.67 138.48 C-32.43 133.95 -35.98 129.98 -36.97 123.25 C-37.06 113.38 -34.67 106.27 -30.56 97.41 C-29.53 95.19 -28.51 92.97 -27.5 90.75 C-27.16 90 -26.81 89.24 -26.46 88.47 C-20.83 75.8 -17.3 62.33 -17.31 48.44 C-17.31 47.6 -17.31 46.76 -17.31 45.9 C-17.36 39.72 -18.06 33.81 -19.04 27.71 C-20.34 18.44 -20.49 9.66 -15.5 1.44 C-10.79 -2.89 -5.63 -2.51 0 0 Z M-11.31 7.19 C-13.8 11.89 -13.51 16.1 -13.12 21.31 C-13.08 22.01 -13.04 22.7 -12.99 23.42 C-12.79 26.38 -12.53 29.28 -11.98 32.21 C-9.74 47.24 -10.75 63.02 -15.5 77.44 C-15.82 78.42 -15.82 78.42 -16.15 79.43 C-19.08 88.19 -22.82 96.56 -26.87 104.86 C-30.16 111.6 -32.04 118.11 -29.89 125.55 C-26.69 132.79 -20.74 137.9 -13.47 140.85 C-9.88 141.92 -6.34 141.92 -2.62 141.88 C-1.43 141.86 -1.43 141.86 -0.21 141.85 C5.76 141.68 10.51 140.92 15.5 137.44 C16.2 136.95 16.91 136.47 17.63 135.96 C26.67 128.91 30.04 118.49 31.5 107.44 C34.21 75.12 26.46 40.56 6.44 14.68 C0.86 8.09 0.86 8.09 -6.81 4.75 C-9.57 5.22 -9.57 5.22 -11.31 7.19 Z " fill="#000000" transform="translate(328.5,649.5625)"/>
<path d="M0 0 C24.7 17.25 35.89 60.51 46.12 87.66 C46.38 88.32 46.63 88.98 46.88 89.67 C49.69 97.19 51.38 105.02 49.13 112.98 C45.92 119.4 39.22 122.53 32.74 124.82 C20.53 127.2 9.04 124.68 -1.26 117.82 C-2.12 117.26 -2.99 116.7 -3.88 116.13 C-22.93 97.58 -25.14 62.71 -25.5 37.65 C-25.58 11.22 -25.58 11.22 -18.26 1.82 C-12.83 -3.27 -6.43 -3.37 0 0 Z M-13.26 5.82 C-16.83 10.66 -18.03 16.19 -18.57 22.07 C-18.65 22.84 -18.72 23.62 -18.8 24.42 C-21.01 50.79 -18.08 86.46 -2.38 108.45 C-0.19 110.89 1.8 112.36 4.62 114 C5.44 114.49 6.26 114.98 7.11 115.48 C15.05 119.5 23.54 120.05 32.25 118.32 C36.78 116.8 39.97 114.68 42.74 110.82 C47.26 98.36 37.41 81.59 32.55 70.19 C31.88 68.59 31.2 66.98 30.52 65.38 C28.89 61.52 27.25 57.67 25.6 53.83 C24.84 52.05 24.08 50.27 23.33 48.48 C13.38 23.61 13.38 23.61 -4.57 4.82 C-8.33 3.42 -9.87 3.75 -13.26 5.82 Z " fill="#000000" transform="translate(131.2578125,343.18359375)"/>
<path d="M0 0 C12.02 13.64 9.14 35.68 8.31 52.62 C6.64 72.92 3.51 101.31 -12.36 115.88 C-22.28 123.33 -33.61 126.88 -45.91 125.35 C-52.81 124.11 -57.93 121.16 -63.06 116.44 C-66.84 109.9 -67.07 103.8 -65.49 96.57 C-63.86 90.58 -61.53 84.83 -59.25 79.06 C-58.99 78.39 -58.72 77.71 -58.45 77.02 C-30.99 6.93 -30.99 6.93 -14.12 -1.56 C-8.85 -2.81 -4.94 -2.53 0 0 Z M-21.74 14.26 C-36.6 35.94 -45.65 61.73 -55.33 86 C-55.65 86.81 -55.98 87.62 -56.31 88.46 C-56.76 89.59 -56.76 89.59 -57.22 90.74 C-57.48 91.4 -57.74 92.06 -58.01 92.73 C-60.18 98.79 -61 105.55 -58.44 111.56 C-54.31 116.43 -49.77 118.31 -43.43 118.96 C-31.18 119.1 -22.74 116.76 -13.84 108.09 C1.13 90.96 2.49 57.54 2.5 35.69 C2.52 34.01 2.52 34.01 2.54 32.31 C2.55 23.25 2.08 14.56 -2.69 6.62 C-4.6 4.33 -4.6 4.33 -7.81 4.06 C-14.5 5.03 -17.7 9.08 -21.74 14.26 Z " fill="#000000" transform="translate(552.6875,343.375)"/>
<path d="M0 0 C4.9 4.33 8.33 7.7 8.76 14.36 C8.56 20.12 6.66 24.29 2.69 28.38 C-1.25 31.44 -5.36 32.5 -10.31 32.38 C-16.2 31.34 -19.54 28.62 -23.18 24 C-26.14 19.75 -25.73 15.39 -25.31 10.38 C-23.52 5.09 -20.7 2.58 -16.31 -0.62 C-10.76 -2.47 -5.28 -2.59 0 0 Z " fill="#000000" transform="translate(484.3125,653.625)"/>
<path d="M0 0 C5.28 1.79 7.8 4.61 11 9 C12.84 14.52 12.79 19.94 10.44 25.31 C7.31 30.83 3.1 32.42 -2.81 34.06 C-8.22 34.51 -12.65 31.99 -17 29 C-20.89 24.74 -22.05 20.65 -22 15 C-21.24 8.79 -18.51 6.18 -13.88 2.38 C-9.54 -0.82 -5.22 -0.43 0 0 Z " fill="#000000" transform="translate(187,652)"/>
</g>
</svg>
