<?xml version='1.0' encoding='UTF-8'?>
<svg xmlns="http://www.w3.org/2000/svg" xmlns:xlink="http://www.w3.org/1999/xlink" width="297" height="210" viewBox="0 0 297 210">
  <rect x="0" y="0" width="297" height="210" fill="white"/>
  <g transform="translate(74.5,31.0) scale(0.1712962962962963)"><style type="text/css">
	.st0{fill:#050505;}
</style>
<g>
	<path class="st0" d="M260.96,662.8c-3.36-4.86-2.17-11.34,2.7-14.6c8.62-7.18,73.63-82.9,95.04-128.55   c-84.88,32.23-165.54,56.36-171.93,58.25c-5.64,1.68-11.58-1.53-13.24-7.17c-1.74-5.59,1.51-11.56,7.17-13.24   c2.74-0.81,250.52-74.86,335.15-136.28c-154.72-8.41-339.19,0.26-497.68,60.09c-5.5,2.08-11.65-0.7-13.73-6.21   c-2.18-5.62,0.7-11.67,6.21-13.73c114.69-43.3,242.55-60.26,363.35-63.46C309.52,331.4,106.93,274,104.73,273.38   c-5.7-1.61-8.94-7.49-7.39-13.13c1.59-5.68,7.46-8.98,13.13-7.39c5.98,1.68,92.78,26.36,171.96,62.97   c-14.5-42.33-51.64-92.73-61.71-100.53c-4.65-3.6-5.5-10.29-1.9-14.94c3.6-4.65,10.29-5.5,14.94-1.9   c14.76,11.43,64.07,79.51,73.83,129.61c40.36,20.62,75.6,44.22,93.37,69.29c48.83-0.49,96.14,1.19,140.7,4.16   c0.81-0.12,1.46,0.09,2.28,0.16c55.71,3.78,106.9,9.56,150.96,15.75c-11.04-30.03-30.76-57.33-54.35-81.27   c-72.04,24.58-174.35-8.38-188.57-18.22c-4.87-3.35-6.1-10.05-2.7-14.82c3.35-4.85,9.99-6.05,14.82-2.7   c10.7,7.42,96.79,33.27,158.52,18.71c-62.33-55.32-139.11-89.09-149.47-91.73c-4.27,0.04-8.33-2.55-9.98-6.79   c-2.15-5.58,0.57-11.67,6.07-13.79c2.96-1.15,9.13-3.55,52.95,18.99c38.9,20.01,165.66,92.32,196.39,195.07   c80.77,12.27,132.29,24.8,133.85,25.19c4.39,1.08,7.46,4.76,8,8.99c0.16,1.28,0.1,2.59-0.24,3.91c-1.41,5.72-7.2,9.2-12.9,7.76   c-2.45-0.61-130.03-31.66-300.75-43.63c-28.58,28.41-94.09,59.58-161.98,86.53c-13.05,51.98-101.33,151.06-108.6,155.93   C271.06,668.83,264.22,667.69,260.96,662.8z"/>
</g>
</g>
</svg>
