<?xml version='1.0' encoding='UTF-8'?>
<svg xmlns="http://www.w3.org/2000/svg" width="297" height="210" viewBox="0 0 297 210">
  <rect x="0" y="0" width="297" height="210" fill="white"/>
  <g transform="translate(74.5,31.0) scale(0.115625)"><path d="M0 0 C1.19 0.4 2.38 0.79 3.61 1.2 C25.73 8.64 47.72 18.78 67 32 C67.62 32.42 68.24 32.84 68.88 33.27 C79.16 40.25 88.75 47.71 98 56 C98.87 56.77 98.87 56.77 99.75 57.55 C109.81 66.44 109.81 66.44 111 70 C111.99 70.33 112.98 70.66 114 71 C115.95 73.12 115.95 73.12 118.12 75.88 C121.61 80.27 121.61 80.27 125.2 84.58 C177.9 146.38 194.35 239.99 188.3 318.79 C186.31 343.03 182 366.45 176 390 C176.67 390.13 177.35 390.25 178.04 390.38 C178.94 390.56 179.83 390.73 180.75 390.91 C181.63 391.07 182.51 391.24 183.42 391.42 C186.42 392.09 189.14 393.13 191.99 394.28 C194.88 395.32 197.82 395.9 200.82 396.47 C203.34 397.08 205.6 398.02 208 399 C208.78 399.31 209.57 399.62 210.37 399.94 C245.25 413.79 278.22 432.05 305.3 458.35 C306.49 459.51 307.69 460.66 308.9 461.81 C323.15 475.37 334.49 490.16 344.95 506.78 C346.68 509.75 346.68 509.75 348 511 C348.04 510.36 348.09 509.71 348.13 509.05 C349.85 487 356.41 465.66 364 445 C364.4 443.89 364.4 443.89 364.81 442.76 C373.33 419.69 387.81 400.87 410.21 390.22 C419.02 386.37 429.24 385.25 438.65 387.69 C440.9 388.64 442.92 389.72 445 391 C445.72 391.4 446.45 391.8 447.19 392.21 C466.92 404.05 476.19 427.14 481.73 448.39 C485.27 462.79 489 478.09 489 493 C489.63 492.91 490.27 492.82 490.92 492.72 C516.01 489.18 543.05 485.84 564.71 502.05 C572.02 508.29 579.3 516.19 580.19 526.16 C581.14 553.54 569.48 570.77 551.28 590.46 C543.83 598.43 536.27 605.97 527.73 612.77 C525 615 522.44 617.34 519.88 619.75 C504.57 633.81 487.04 645.75 469 656 C468.42 656.34 467.83 656.68 467.23 657.03 C459.3 661.56 451.44 664.53 442.65 667.05 C429.34 670.9 420.49 675.01 411.35 685.49 C409.64 687.4 407.78 689.05 405.81 690.69 C402.55 693.5 399.36 696.4 396.19 699.31 C395.67 699.78 395.16 700.25 394.63 700.74 C392.14 703.03 389.66 705.32 387.17 707.61 C381.87 712.49 376.46 717.16 370.85 721.67 C368.39 723.68 366 725.74 363.62 727.83 C342.06 746.58 316.5 761.92 289.09 770.31 C287.04 770.81 287.04 770.81 286 772 C285.71 773.75 285.42 775.51 285.15 777.27 C283.9 785.3 281.97 791.41 277 798 C276.56 798.63 276.12 799.26 275.66 799.91 C266.99 811.29 253.09 815.22 239.56 817.25 C220 819.49 200.88 816.89 181.75 812.76 C178.84 812.14 175.93 811.56 173 811 C172.18 810.84 171.36 810.67 170.52 810.5 C162.98 809.33 156.58 811.36 149.38 813.5 C146.69 814.26 144 815 141.3 815.74 C140.27 816.03 140.27 816.03 139.22 816.32 C105.58 825.57 70.68 830.7 36 834 C35.09 834.09 34.18 834.18 33.24 834.28 C26.17 834.99 19.09 835.53 12 836 C11.34 836.04 10.69 836.09 10.01 836.14 C-73.76 841.82 -161.93 841.76 -324.41 800.84 C-326.94 799.77 -326.94 799.77 -329.37 800.55 C-332.89 802.49 -336.22 804.65 -339.56 806.88 C-369.35 826.39 -400.72 844.12 -434.56 855.5 C-435.77 855.91 -436.99 856.32 -438.24 856.74 C-452.03 861.23 -465.11 863.52 -479.62 863.44 C-480.93 863.46 -482.23 863.48 -483.57 863.5 C-496.2 863.49 -507 860.9 -517 853 C-517.69 852.48 -518.37 851.95 -519.08 851.41 C-528.31 843.91 -535.56 832.73 -538 821 C-539.17 805.06 -538.39 790.07 -533 775 C-532.66 774.01 -532.66 774.01 -532.3 773 C-528.98 763.66 -524.61 754.82 -520.05 746.03 C-519.02 744.04 -518.02 742.05 -517.02 740.05 C-499.08 704.79 -474.8 671.68 -450.31 640.71 C-447.09 636.5 -446.64 634.28 -447 629 C-447.64 627.32 -448.31 625.66 -449 624 C-449.2 622.67 -449.36 621.34 -449.5 620 C-449.76 617.55 -450.05 615.87 -451 613.56 C-452.21 610.45 -452.42 607.59 -452.66 604.28 C-452.91 601.96 -452.91 601.96 -453.93 599.82 C-455.21 596.45 -455.88 593.07 -456.52 589.53 C-456.65 588.79 -456.79 588.05 -456.93 587.29 C-457.38 584.84 -457.81 582.39 -458.25 579.94 C-458.4 579.08 -458.56 578.22 -458.71 577.34 C-464 547.48 -467.82 517.49 -470.75 487.31 C-470.85 486.28 -470.95 485.26 -471.06 484.2 C-471.78 476.8 -472.42 469.41 -473 462 C-473.09 460.81 -473.19 459.62 -473.29 458.39 C-475 435.87 -475.35 413.41 -475.32 390.84 C-475.31 387.03 -475.32 383.23 -475.34 379.43 C-475.67 308.35 -466.81 236.22 -437 171 C-436.57 170.06 -436.15 169.11 -435.71 168.14 C-424.03 142.5 -409.31 119.31 -390.26 98.48 C-388.82 96.9 -387.39 95.3 -385.99 93.68 C-375.01 81.04 -362.41 69.98 -349 60 C-348.33 59.5 -347.67 59 -346.98 58.48 C-312.77 32.81 -274.6 14.22 -234 1 C-233.08 0.7 -232.16 0.39 -231.22 0.08 C-157.98 -24.02 -73.13 -25.83 0 0 Z M-129 -17 C-129 -16.67 -129 -16.34 -129 -16 C-125.37 -16 -121.74 -16 -118 -16 C-118 -16.33 -118 -16.66 -118 -17 C-121.63 -17 -125.26 -17 -129 -17 Z M-110 -17 C-110 -16.67 -110 -16.34 -110 -16 C-106.37 -16 -102.74 -16 -99 -16 C-99 -16.33 -99 -16.66 -99 -17 C-102.63 -17 -106.26 -17 -110 -17 Z M-146 -16 C-146 -15.67 -146 -15.34 -146 -15 C-144.35 -15 -142.7 -15 -141 -15 C-141 -15.33 -141 -15.66 -141 -16 C-142.65 -16 -144.3 -16 -146 -16 Z M-87 -16 C-87 -15.67 -87 -15.34 -87 -15 C-85.35 -15 -83.7 -15 -82 -15 C-82 -15.33 -82 -15.66 -82 -16 C-83.65 -16 -85.3 -16 -87 -16 Z M-332 69 C-333.02 69.76 -334.05 70.51 -335.1 71.29 C-342.18 76.58 -348.72 82.26 -355.12 88.34 C-358 91 -358 91 -360.67 93.12 C-362.84 94.87 -364.53 96.61 -366.31 98.75 C-368.68 101.53 -371.11 104.11 -373.75 106.62 C-379.44 112.25 -384.17 118.64 -389 125 C-389.69 125.9 -389.69 125.9 -390.39 126.81 C-445.92 199.4 -461.25 297.25 -461.32 393.27 C-461.31 395.6 -461.31 397.94 -461.31 400.28 C-461.27 425.29 -460.53 450.1 -458 475 C-457.83 476.75 -457.65 478.5 -457.48 480.25 C-452.82 526.64 -444.76 572.64 -434 618 C-429.9 617.18 -428.43 615.63 -425.69 612.44 C-424.91 611.54 -424.13 610.64 -423.32 609.71 C-422.56 608.82 -421.79 607.92 -421 607 C-419.1 604.9 -417.21 602.79 -415.31 600.69 C-413.79 598.92 -413.79 598.92 -413 596 C-410.14 595.37 -407.89 594.88 -405 595 C-402 597.06 -402 597.06 -400 600 C-399.41 603.96 -399.63 605.49 -402.02 608.75 C-402.94 609.68 -403.86 610.61 -404.81 611.56 C-405.83 612.62 -406.85 613.67 -407.86 614.73 C-408.39 615.27 -408.91 615.81 -409.45 616.36 C-411.9 618.95 -414.21 621.65 -416.5 624.38 C-416.95 624.91 -417.41 625.45 -417.88 626.01 C-421.59 630.45 -425.18 634.99 -428.74 639.57 C-431.68 643.35 -434.69 647.07 -437.74 650.76 C-444.66 659.17 -451.08 667.87 -457.39 676.74 C-458.96 678.94 -460.55 681.12 -462.14 683.3 C-470.54 694.75 -478.46 706.49 -486.26 718.35 C-487.72 720.57 -489.19 722.79 -490.66 725.01 C-505.53 747.52 -520.38 773.65 -523 801 C-523.08 801.79 -523.16 802.58 -523.25 803.39 C-523.91 815.81 -519.5 830.38 -511.41 839.86 C-500.75 849.97 -486.37 849.43 -472.7 849.27 C-464.35 849.04 -456.92 847.57 -449 845 C-448.23 844.76 -447.46 844.52 -446.67 844.27 C-407.6 831.87 -372.81 809.91 -339.1 787.1 C-336.31 785.21 -333.5 783.33 -330.7 781.46 C-317.73 772.75 -305.43 763.3 -293.38 753.38 C-289.47 750.22 -285.58 748.04 -281 746 C-280.67 746.66 -280.34 747.32 -280 748 C-279.15 748.58 -278.31 749.15 -277.44 749.75 C-275 752 -275 752 -274.63 754.92 C-275.07 758.57 -275.64 759.28 -278.44 761.56 C-279.25 762.24 -280.07 762.91 -280.91 763.6 C-282.44 764.79 -282.44 764.79 -284 766 C-284.94 766.73 -284.94 766.73 -285.9 767.48 C-290.9 771.37 -295.94 775.19 -301 779 C-301.64 779.48 -302.28 779.97 -302.94 780.46 C-306.29 782.98 -309.64 785.5 -313 788 C-311.5 791.01 -309.32 791.2 -306.21 792.35 C-304.43 793.01 -304.43 793.01 -302.61 793.68 C-301.98 793.91 -301.36 794.13 -300.72 794.37 C-298.83 795.05 -296.96 795.75 -295.08 796.46 C-288.49 798.94 -288.49 798.94 -281.66 800.51 C-280.78 800.67 -279.9 800.83 -279 801 C-278.67 801.66 -278.34 802.32 -278 803 C-275.89 803.66 -275.89 803.66 -273.38 804.06 C-272.03 804.31 -272.03 804.31 -270.65 804.57 C-268.42 804.93 -266.19 805.23 -263.94 805.5 C-262.97 805.66 -262 805.83 -261 806 C-260.67 806.66 -260.34 807.32 -260 808 C-257.52 808.59 -257.52 808.59 -254.47 808.94 C-249.32 809.66 -244.21 810.47 -239.09 811.4 C-214.41 815.85 -189.86 818.73 -164.81 820.12 C-163.78 820.18 -163.78 820.18 -162.72 820.24 C-134.5 821.78 -106.24 822.21 -77.99 822.19 C-75.58 822.19 -73.17 822.19 -70.76 822.19 C-45.82 822.18 -20.94 821.76 3.95 820.13 C5.88 820.01 7.8 819.89 9.73 819.77 C17.17 819.32 24.58 818.72 32 818 C33.31 817.87 34.62 817.75 35.98 817.62 C64.23 814.86 92.41 811.04 120.12 804.81 C121.73 804.46 121.73 804.46 123.38 804.09 C124.35 803.86 125.32 803.63 126.32 803.39 C127.58 803.1 127.58 803.1 128.86 802.8 C131.22 801.92 132.38 800.9 134 799 C133.4 798.76 132.8 798.51 132.18 798.26 C92.59 781.93 54.34 763.36 19 739 C17.72 738.13 16.44 737.26 15.15 736.39 C-5.97 722.03 -5.97 722.03 -10 718 C-10.16 714.47 -10.04 711.38 -9 708 C-5.38 706.88 -3.27 706.39 0.21 708.07 C2.71 709.73 5.11 711.49 7.5 713.31 C9.3 714.62 11.1 715.93 12.89 717.24 C13.77 717.89 14.65 718.54 15.55 719.2 C68.6 758.95 68.6 758.95 129 779 C129.33 779.66 129.66 780.32 130 781 C131.15 781.16 132.31 781.33 133.5 781.5 C134.65 781.66 135.81 781.83 137 782 C137.33 782.66 137.66 783.32 138 784 C140 784.81 140 784.81 142.44 785.44 C143.33 785.69 144.23 785.94 145.16 786.2 C146.09 786.47 147.03 786.73 148 787 C150.63 787.81 153.25 788.63 155.87 789.45 C158.12 790.13 158.12 790.13 161 790 C161.33 790.66 161.66 791.32 162 792 C164.9 792.92 164.9 792.92 168.31 793.62 C170.04 794.02 170.04 794.02 171.8 794.41 C175.11 795.12 175.11 795.12 179 795 C179.33 795.66 179.66 796.32 180 797 C181.9 797.29 183.8 797.56 185.7 797.75 C187.94 797.99 190.12 798.33 192.33 798.72 C193.06 798.85 193.79 798.97 194.54 799.1 C195.29 799.23 196.04 799.37 196.81 799.5 C216.98 802.91 241.06 805.81 259 794 C264.7 789.4 267.47 783.05 269 776 C272.21 745.55 255.93 716.02 239 692 C238.24 690.9 237.47 689.8 236.71 688.7 C229.72 678.71 222.26 669.06 214.83 659.39 C213.26 657.34 211.7 655.28 210.14 653.22 C205.17 646.67 199.99 640.35 194.64 634.11 C192.25 631.31 189.93 628.44 187.62 625.56 C185.06 622.38 182.42 619.35 179.59 616.41 C178.99 615.8 178.4 615.18 177.79 614.54 C176.62 613.33 175.44 612.13 174.25 610.95 C170.91 607.48 168.99 605.06 169 600 C171.12 597.12 171.12 597.12 174 595 C177.09 594.55 178.45 594.6 180.99 596.47 C181.92 597.47 181.92 597.47 182.88 598.5 C183.56 599.23 184.25 599.97 184.96 600.73 C187.38 603.43 189.8 606.13 192.16 608.88 C194.2 611.22 196.28 613.52 198.38 615.81 C234.39 655.78 269.57 703.06 285 755 C330.32 737.96 365.1 709.92 399.06 676.06 C399.57 675.55 400.09 675.05 400.61 674.52 C402.09 673.05 403.56 671.57 405.04 670.1 C405.9 669.24 406.75 668.38 407.64 667.49 C410.04 665.03 410.04 665.03 412.15 662.29 C419.02 653.79 433.81 650.93 443.76 647.93 C455.68 644.31 466.03 639.78 476.38 632.81 C477.37 632.15 478.37 631.49 479.4 630.8 C491.04 623.04 502.31 615.05 513 606 C513.83 605.31 513.83 605.31 514.67 604.6 C535.34 587.31 561.55 563.31 564.21 534.73 C564.51 528.01 563.02 522.72 559 517.31 C544.72 506.3 524.6 505.39 507.29 507.3 C503.66 507.79 500.04 508.32 496.43 508.93 C492.17 509.64 487.95 510.17 483.62 510.34 C482.83 510.38 482.04 510.41 481.23 510.44 C478.05 509.81 476.94 508.56 475 506 C474.23 503.21 474.23 503.21 473.84 500.01 C473.69 498.84 473.53 497.66 473.38 496.45 C473.23 495.21 473.09 493.97 472.94 492.69 C472.61 490.15 472.28 487.61 471.95 485.07 C471.71 483.24 471.71 483.24 471.47 481.38 C470.73 476.09 469.67 470.9 468.52 465.69 C468 463 468 463 468 459 C467.34 459 466.68 459 466 459 C466 456.36 466 453.72 466 451 C465.34 451 464.68 451 464 451 C464.33 450.01 464.66 449.02 465 448 C464.34 448 463.68 448 463 448 C462.67 445.03 462.34 442.06 462 439 C461.34 439 460.68 439 460 439 C460 437.35 460 435.7 460 434 C459.34 434 458.68 434 458 434 C457.78 433.2 457.78 433.2 457.55 432.38 C454.34 421.7 448.36 410.95 438.56 405.12 C432.7 402.16 427.66 401.27 421.23 403.15 C400.47 411.04 388.87 429.64 380 449 C368.76 474.85 363.55 503.57 360.49 531.48 C360.41 532.2 360.33 532.93 360.24 533.67 C360.03 535.66 359.83 537.64 359.63 539.63 C358.98 543.11 358.19 545.22 356 548 C352.62 548.69 352.62 548.69 349 548 C346.72 546.18 345.63 544.52 344 542 C344 541.01 344 540.02 344 539 C343.34 539 342.68 539 342 539 C341.87 538.27 341.75 537.53 341.62 536.78 C337.11 516.46 321.65 497.16 308 482 C307.05 480.93 306.1 479.85 305.15 478.78 C270.4 440.01 218.37 415.45 168.22 404.08 C167.32 403.86 166.41 403.64 165.48 403.42 C164.69 403.24 163.89 403.06 163.07 402.88 C160.4 401.74 159.42 400.51 158 398 C158.25 391.67 160.05 385.77 161.75 379.69 C171.09 345 173.45 310.76 173 275 C172.99 274.11 172.99 273.23 172.98 272.31 C172.84 260.48 171.29 248.88 169.62 237.19 C169.47 236.08 169.47 236.08 169.31 234.94 C168.01 225.92 166.47 216.99 164.56 208.07 C164 205 164 205 164 201 C163.34 201 162.68 201 162 201 C161.89 199.86 161.78 198.72 161.66 197.55 C161.08 192.92 159.84 188.63 158.44 184.19 C156 176.38 156 176.38 156 173 C155.34 173 154.68 173 154 173 C153.67 170.36 153.34 167.72 153 165 C152.34 165 151.68 165 151 165 C150.67 162.36 150.34 159.72 150 157 C149.34 157 148.68 157 148 157 C147.86 156.02 147.86 156.02 147.71 155.02 C146.77 151.04 145.21 147.48 143.56 143.75 C143.25 143.02 142.94 142.29 142.62 141.53 C141.12 137.57 141.12 137.57 138 135 C137.32 133 136.66 131 136 129 C134.76 126.51 133.49 124.1 132.12 121.69 C131.74 121 131.35 120.31 130.95 119.6 C119.55 99.87 104.69 80.48 87 66 C85.85 65.03 84.7 64.05 83.55 63.07 C6.35 -1.72 -101.74 -13.13 -332 69 Z M168 224 C169 226 169 226 169 226 Z M169 230 C170 232 170 232 170 232 Z M170 237 C171 239 171 239 171 239 Z M171 244 C172 248 172 248 172 248 Z M-461 245 C-460 247 -460 247 -460 247 Z M173 268 C173 270.31 173 272.62 173 275 C173.33 275 173.66 275 174 275 C174 272.69 174 270.38 174 268 C173.67 268 173.34 268 173 268 Z M-466 270 C-465 272 -465 272 -465 272 Z M-467 276 C-466 278 -466 278 -466 278 Z M-469 289 C-468 292 -468 292 -468 292 Z M-470 297 C-469 299 -469 299 -469 299 Z M173 304 C173 306.31 173 308.62 173 311 C173.33 311 173.66 311 174 311 C174 308.69 174 306.38 174 304 C173.67 304 173.34 304 173 304 Z M-471 306 C-470 308 -470 308 -470 308 Z M-472 315 C-471 319 -471 319 -471 319 Z M-473 329 C-472 331 -472 331 -472 331 Z M171 331 C172 334 172 334 172 334 Z M-474 341 C-474 343.97 -474 346.94 -474 350 C-473.67 350 -473.34 350 -473 350 C-473 347.03 -473 344.06 -473 341 C-473.33 341 -473.66 341 -474 341 Z M169 346 C170 348 170 348 170 348 Z M168 352 C169 354 169 354 169 354 Z M166 362 C167 364 167 364 167 364 Z M-474 419 C-474 422.3 -474 425.6 -474 429 C-473.67 429 -473.34 429 -473 429 C-473 425.7 -473 422.4 -473 419 C-473.33 419 -473.66 419 -474 419 Z M-473 441 C-472 444 -472 444 -472 444 Z M-472 456 C-472 457.98 -472 459.96 -472 462 C-471.67 462 -471.34 462 -471 462 C-471 460.02 -471 458.04 -471 456 C-471.33 456 -471.66 456 -472 456 Z M-471 470 C-470 474 -470 474 -470 474 Z M-470 482 C-469 485 -469 485 -469 485 Z M-469 492 C-468 496 -468 496 -468 496 Z M351 494 C352 496 352 496 352 496 Z M474 498 C475 501 475 501 475 501 Z M349 505 C350 507 350 507 350 507 Z M-467 512 C-466 514 -466 514 -466 514 Z M-466 520 C-465 523 -465 523 -465 523 Z M-465 528 C-464 530 -464 530 -464 530 Z M-464 536 C-463 538 -463 538 -463 538 Z M564 537 C565 539 565 539 565 539 Z M-463 543 C-462 545 -462 545 -462 545 Z M-461 556 C-460 558 -460 558 -460 558 Z M-458 574 C-457 576 -457 576 -457 576 Z M-537 794 C-536 796 -536 796 -536 796 Z M212 802 C212 802.33 212 802.66 212 803 C213.65 803 215.3 803 217 803 C217 802.67 217 802.34 217 802 C215.35 802 213.7 802 212 802 Z M233 802 C237 803 237 803 237 803 Z M-196 818 C-192 819 -192 819 -192 819 Z M32 818 C36 819 36 819 36 819 Z M-172 820 C-172 820.33 -172 820.66 -172 821 C-170.02 821 -168.04 821 -166 821 C-166 820.67 -166 820.34 -166 820 C-167.98 820 -169.96 820 -172 820 Z M6 820 C6 820.33 6 820.66 6 821 C7.98 821 9.96 821 12 821 C12 820.67 12 820.34 12 820 C10.02 820 8.04 820 6 820 Z M-154 821 C-154 821.33 -154 821.66 -154 822 C-151.36 822 -148.72 822 -146 822 C-146 821.67 -146 821.34 -146 821 C-148.64 821 -151.28 821 -154 821 Z M-11 821 C-11 821.33 -11 821.66 -11 822 C-9.02 822 -7.04 822 -5 822 C-5 821.67 -5 821.34 -5 821 C-6.98 821 -8.96 821 -11 821 Z M-126 822 C-126 822.33 -126 822.66 -126 823 C-121.38 823 -116.76 823 -112 823 C-112 822.67 -112 822.34 -112 822 C-116.62 822 -121.24 822 -126 822 Z M-38 822 C-38 822.33 -38 822.66 -38 823 C-34.7 823 -31.4 823 -28 823 C-28 822.67 -28 822.34 -28 822 C-31.3 822 -34.6 822 -38 822 Z M-487 850 C-487 850.33 -487 850.66 -487 851 C-482.05 851 -477.1 851 -472 851 C-472 850.67 -472 850.34 -472 850 C-476.95 850 -481.9 850 -487 850 Z " fill="#373A3B" transform="translate(618,216)"/>
<path d="M0 0 C0.9 0.13 1.8 0.25 2.73 0.38 C7.38 1.08 11.61 2.05 16.06 3.62 C18.21 3.99 18.21 3.99 20.19 4.12 C23.66 4.57 25.09 5.12 28.06 6.62 C30.18 7.16 32.3 7.56 34.45 7.96 C63.74 15.37 94.8 35.04 111.38 60.31 C121.05 77.49 122.15 97.72 117.06 116.51 C113.47 128.69 106.94 138.53 97.06 146.62 C95.02 147.52 92.97 148.4 90.91 149.27 C86.82 151.63 85.34 152.81 83.8 157.33 C83.14 161.19 82.9 165.08 82.73 168.99 C82.59 172.49 82.31 175.98 82.05 179.47 C81.91 181.26 81.78 183.04 81.66 184.83 C81.08 193.21 79.97 201.46 78.62 209.75 C78.47 210.74 78.47 210.74 78.3 211.75 C73.91 238.7 68.09 273.18 47.06 292.62 C43.51 294.4 39.92 294.38 36.06 293.62 C29.13 289.32 26.18 282 24.24 274.41 C22.24 265.11 21.68 256.3 21.84 246.76 C21.86 245.25 21.87 243.74 21.88 242.23 C21.92 238.19 21.97 234.16 22.03 230.13 C22.09 225.91 22.13 221.7 22.17 217.48 C22.27 208.01 22.39 198.54 22.53 189.06 C22.59 184.59 22.65 180.12 22.71 175.64 C22.82 166.97 22.94 158.3 23.06 149.62 C22.52 149.37 21.98 149.12 21.43 148.87 C18.94 147.71 16.46 146.55 13.98 145.39 C13.13 145 12.29 144.6 11.41 144.2 C4.46 140.94 -1.72 137.15 -7.94 132.62 C-8.69 132.09 -9.44 131.56 -10.22 131.02 C-11.8 129.9 -13.37 128.76 -14.94 127.62 C-18.86 129.85 -22.29 132.43 -25.81 135.25 C-31.57 139.76 -37.55 143.61 -43.84 147.32 C-44.45 147.69 -45.06 148.05 -45.69 148.43 C-47.94 149.62 -47.94 149.62 -51.11 150.9 C-57.97 153.77 -57.97 153.77 -62.19 159.53 C-62.72 163.14 -62.84 166.58 -62.83 170.23 C-62.87 171.55 -62.92 172.86 -62.97 174.22 C-63.09 177.71 -63.13 181.19 -63.16 184.68 C-63.2 188.2 -63.31 191.71 -63.42 195.23 C-63.57 200.41 -63.68 205.59 -63.75 210.77 C-63.86 216.22 -64.22 221.6 -64.71 227.02 C-64.99 230.21 -65.1 233.39 -65.15 236.59 C-66.23 286.19 -66.23 286.19 -78.35 299.16 C-80.64 301.27 -81.94 301.63 -85.06 302.12 C-90.64 301.41 -93.29 298.77 -96.94 294.62 C-101.41 288.47 -104.38 281.76 -106.94 274.62 C-107.37 273.45 -107.37 273.45 -107.81 272.24 C-109.42 267.69 -110.25 263.42 -110.94 258.62 C-111.63 256.34 -112.41 254.09 -113.22 251.84 C-122.33 223.81 -121.24 192.68 -120.94 163.62 C-121.52 163.52 -122.11 163.41 -122.71 163.3 C-135.79 160.66 -144.41 152.5 -151.75 141.69 C-153.98 137.94 -155.18 134.08 -156.32 129.88 C-156.93 127.5 -156.93 127.5 -158.06 124.81 C-163.3 111.73 -160.37 94.09 -155.08 81.59 C-139.38 46.53 -107.41 23.97 -72.43 10.29 C-48.74 1.43 -25.25 -3.55 0 0 Z M-124.3 62.2 C-136.53 77.24 -145.21 95.65 -143.62 115.36 C-142.32 127.04 -139.24 136.9 -129.94 144.62 C-118.13 151.68 -100.8 150.61 -87.94 147.62 C-65.77 141.75 -46.55 131.16 -28.94 116.62 C-28.02 115.93 -27.1 115.23 -26.15 114.52 C-25.42 113.89 -24.69 113.27 -23.94 112.62 C-23.94 111.97 -23.94 111.31 -23.94 110.62 C-19.48 109.14 -16.46 108.22 -11.94 109.62 C-9.94 111.19 -9.94 111.19 -7.94 113.19 C5.98 126.05 24.01 132.94 42.06 137.62 C42.94 137.87 43.82 138.12 44.73 138.38 C57.17 141.45 73.09 141.21 84.58 135.34 C93.96 129.52 98.71 122.08 102.06 111.62 C103.02 106.49 103.22 101.51 103.19 96.31 C103.19 95.57 103.18 94.83 103.18 94.07 C103.14 88.53 102.76 83.12 102.06 77.62 C101.4 77.62 100.74 77.62 100.06 77.62 C99.95 76.91 99.83 76.2 99.71 75.47 C96.11 59.65 83.1 48.11 69.94 39.76 C9.63 3.22 -75.97 6.13 -124.3 62.2 Z M103.06 85.62 C104.06 87.62 104.06 87.62 104.06 87.62 Z M-158.94 98.62 C-157.94 101.62 -157.94 101.62 -157.94 101.62 Z M103.06 104.62 C104.06 106.62 104.06 106.62 104.06 106.62 Z M-158.94 115.62 C-157.94 117.62 -157.94 117.62 -157.94 117.62 Z M-101.94 149.62 C-97.94 150.62 -97.94 150.62 -97.94 150.62 Z M24.06 152.62 C24.06 156.91 24.06 161.21 24.06 165.62 C24.39 165.62 24.72 165.62 25.06 165.62 C25.06 161.34 25.06 157.04 25.06 152.62 C24.73 152.62 24.4 152.62 24.06 152.62 Z M41.06 153.62 C38.56 156.13 38.82 157.62 38.79 161.03 C38.8 161.79 38.8 162.54 38.8 163.32 C38.8 164.11 38.8 164.91 38.79 165.73 C38.78 168.38 38.79 171.03 38.8 173.68 C38.8 175.54 38.79 177.4 38.79 179.27 C38.79 183.19 38.79 187.11 38.8 191.04 C38.81 195.98 38.81 200.93 38.79 205.87 C38.74 231.88 38.74 231.88 39.95 257.85 C40.03 258.96 40.11 260.06 40.19 261.21 C40.47 264.94 40.47 264.94 41.06 268.62 C41.72 268.95 42.38 269.28 43.06 269.62 C45.29 268.78 45.29 268.78 46.04 266.33 C46.37 265.33 46.71 264.32 47.05 263.29 C47.42 262.17 47.8 261.06 48.18 259.91 C48.58 258.7 48.97 257.49 49.38 256.25 C49.98 254.39 49.98 254.39 50.6 252.49 C51.77 248.87 52.92 245.25 54.06 241.62 C54.33 240.78 54.6 239.93 54.87 239.05 C62.75 213.42 68.41 182.43 68.06 155.62 C66.14 155.53 66.14 155.53 64.19 155.44 C62.48 155.36 60.77 155.27 59.06 155.19 C58.22 155.15 57.38 155.11 56.52 155.07 C52.49 154.87 48.55 154.58 44.56 153.96 C43.41 153.85 42.25 153.74 41.06 153.62 Z M68.06 160.62 C69.06 162.62 69.06 162.62 69.06 162.62 Z M-87.14 163.01 C-92.68 164.23 -98.32 164.87 -103.94 165.62 C-109.95 186.76 -104.78 216.75 -98.94 237.62 C-98.43 239.43 -98.43 239.43 -97.92 241.27 C-93.05 259.15 -93.05 259.15 -86.94 276.62 C-77.63 239.93 -78.58 200.26 -76.94 162.62 C-80.7 161.44 -83.33 162.07 -87.14 163.01 Z M-119.94 164.62 C-119.94 167.92 -119.94 171.23 -119.94 174.62 C-119.61 174.62 -119.28 174.62 -118.94 174.62 C-118.94 171.33 -118.94 168.02 -118.94 164.62 C-119.27 164.62 -119.6 164.62 -119.94 164.62 Z M66.06 177.62 C67.06 181.62 67.06 181.62 67.06 181.62 Z M-77.94 184.62 C-77.94 186.27 -77.94 187.92 -77.94 189.62 C-77.61 189.62 -77.28 189.62 -76.94 189.62 C-76.94 187.98 -76.94 186.33 -76.94 184.62 C-77.27 184.62 -77.6 184.62 -77.94 184.62 Z M-119.94 191.62 C-119.94 194.6 -119.94 197.57 -119.94 200.62 C-119.61 200.62 -119.28 200.62 -118.94 200.62 C-118.94 197.65 -118.94 194.68 -118.94 191.62 C-119.27 191.62 -119.6 191.62 -119.94 191.62 Z M64.06 193.62 C65.06 195.62 65.06 195.62 65.06 195.62 Z M-78.94 205.62 C-78.94 208.26 -78.94 210.9 -78.94 213.62 C-78.61 213.62 -78.28 213.62 -77.94 213.62 C-77.94 210.99 -77.94 208.35 -77.94 205.62 C-78.27 205.62 -78.6 205.62 -78.94 205.62 Z M-118.94 209.62 C-117.94 213.62 -117.94 213.62 -117.94 213.62 Z M61.06 211.62 C62.06 213.62 62.06 213.62 62.06 213.62 Z M-117.94 219.62 C-116.94 221.62 -116.94 221.62 -116.94 221.62 Z M-79.94 224.62 C-78.94 228.62 -78.94 228.62 -78.94 228.62 Z M-116.94 226.62 C-115.94 229.62 -115.94 229.62 -115.94 229.62 Z M23.06 227.62 C23.06 230.92 23.06 234.23 23.06 237.62 C23.39 237.62 23.72 237.62 24.06 237.62 C24.06 234.33 24.06 231.02 24.06 227.62 C23.73 227.62 23.4 227.62 23.06 227.62 Z M-80.94 236.62 C-79.94 239.62 -79.94 239.62 -79.94 239.62 Z M-81.94 245.62 C-80.94 249.62 -80.94 249.62 -80.94 249.62 Z M23.06 257.62 C23.06 259.27 23.06 260.92 23.06 262.62 C23.39 262.62 23.72 262.62 24.06 262.62 C24.06 260.98 24.06 259.33 24.06 257.62 C23.73 257.62 23.4 257.62 23.06 257.62 Z M-83.94 261.62 C-82.94 263.62 -82.94 263.62 -82.94 263.62 Z M43.06 269.62 C42.73 270.94 42.4 272.26 42.06 273.62 C42.72 273.3 43.38 272.96 44.06 272.62 C43.73 271.63 43.4 270.64 43.06 269.62 Z " fill="#373A3B" transform="translate(496.9375,454.375)"/>
<path d="M0 0 C8.55 5.85 14.81 13.03 20.44 21.67 C20.97 22.48 21.5 23.29 22.04 24.12 C24.84 28.73 26.31 32.14 25.44 37.67 C23.94 40.84 22.91 41.49 19.62 42.73 C15.96 42.66 14.64 41.65 11.94 39.27 C9.31 36.46 7.73 33.15 6 29.73 C2.2 22.62 -0.98 17.96 -8.44 14.23 C-16.29 12.82 -22.23 14.87 -29.05 18.87 C-36.29 24.04 -40.86 33.01 -42.56 41.67 C-42.82 45 -43.01 48.33 -43.18 51.67 C-43.56 54.67 -43.56 54.67 -45.56 57.67 C-49.12 58.52 -51.54 59.06 -55 57.73 C-55.77 57.2 -55.77 57.2 -56.56 56.67 C-56.56 56.01 -56.56 55.35 -56.56 54.67 C-57.22 54.67 -57.88 54.67 -58.56 54.67 C-61.68 48.44 -59.98 38.95 -58 32.54 C-51.8 16.27 -42.67 6.48 -27.14 -0.8 C-18.11 -4.67 -8.66 -4.95 0 0 Z M-58.56 38.67 C-57.56 40.67 -57.56 40.67 -57.56 40.67 Z " fill="#373A3B" transform="translate(384.5625,372.33203125)"/>
<path d="M0 0 C10.4 9.92 13.19 23.34 13.62 37.19 C13.71 42.07 13.71 42.07 12.01 44.44 C9.13 46.46 6.7 46.04 3.31 45.62 C-0.15 42.91 -2.46 40.03 -3.18 35.62 C-3.31 34.45 -3.43 33.27 -3.56 32.06 C-4.29 26.42 -5.54 21.69 -7.88 16.52 C-8.69 14.62 -8.69 14.62 -8.69 12.62 C-9.64 12.32 -10.59 12.01 -11.56 11.69 C-14.69 10.62 -14.69 10.62 -16.69 9.62 C-26.49 8.67 -35.5 10.24 -43.56 16.12 C-47.39 19.68 -48.95 24.3 -50.74 29.11 C-51.69 31.62 -51.69 31.62 -52.69 32.62 C-56.42 33.23 -60.13 33.6 -63.43 31.53 C-65.86 28.95 -66.67 26.94 -66.88 23.44 C-63.46 12.48 -57.61 4.72 -47.72 -1.13 C-32.27 -9.21 -14.41 -11.27 0 0 Z " fill="#373A3B" transform="translate(628.6875,377.375)"/>
<path d="M0 0 C1.48 0.22 2.96 0.43 4.44 0.64 C5.24 0.75 6.03 0.86 6.85 0.98 C17.56 2.36 28.26 2.47 39.04 2.44 C41.54 2.44 44.04 2.44 46.54 2.45 C48.2 2.45 49.85 2.45 51.51 2.45 C52.32 2.45 53.14 2.45 53.97 2.45 C58.25 2.42 62.48 2.26 66.74 1.91 C67.6 1.84 68.46 1.77 69.34 1.7 C70.98 1.57 72.62 1.41 74.25 1.22 C78.39 0.88 80.09 1.05 83.44 3.61 C85.44 6.31 85.44 6.31 86 9.31 C85.29 13.11 84.19 14.6 81.44 17.31 C78.8 18.03 76.71 18.4 74.02 18.61 C73.28 18.68 72.54 18.75 71.78 18.82 C62.22 19.64 52.64 19.66 43.06 19.62 C42.1 19.62 41.15 19.62 40.16 19.62 C-6.77 19.53 -6.77 19.53 -15.06 12.06 C-16.56 9.31 -16.56 9.31 -16.19 6.25 C-12.26 -0.85 -7.2 -1.2 0 0 Z M17.44 3.31 C17.44 3.64 17.44 3.97 17.44 4.31 C19.09 4.31 20.74 4.31 22.44 4.31 C22.44 3.98 22.44 3.65 22.44 3.31 C20.79 3.31 19.14 3.31 17.44 3.31 Z M61.44 3.31 C61.44 3.64 61.44 3.97 61.44 4.31 C63.09 4.31 64.74 4.31 66.44 4.31 C66.44 3.98 66.44 3.65 66.44 3.31 C64.79 3.31 63.14 3.31 61.44 3.31 Z " fill="#373A3B" transform="translate(448.5625,997.6875)"/>
<path d="M0 0 C2.9 2.59 3.85 4.42 4.81 8.19 C3.73 13.28 1.12 15.46 -2.43 19.15 C-14.25 32.25 -21.59 49.42 -26.65 66.08 C-26.92 66.94 -27.18 67.79 -27.46 68.68 C-27.68 69.44 -27.91 70.2 -28.14 70.99 C-29.12 73.29 -30.02 74.48 -32 76 C-35.18 76.46 -36.98 76.7 -40 76 C-43.91 73.03 -43.91 73.03 -45 70 C-44.59 63.08 -41.91 56.29 -39.44 49.88 C-39.09 48.96 -38.74 48.05 -38.37 47.12 C-33.38 34.52 -16.14 -4.52 0 0 Z " fill="#373A3B" transform="translate(245,358)"/>
<path d="M0 0 C0 0.66 0 1.32 0 2 C0.62 2.12 1.24 2.25 1.88 2.38 C4 3 4 3 6 5 C6.12 7.7 6.14 10.3 6.06 13 C5.7 18.15 5.7 18.15 7 23 C7.95 23.47 8.9 23.95 9.88 24.44 C14.37 26.69 14.37 26.69 16 29 C17.05 32.46 17.18 34.41 16.12 37.88 C13.65 40.35 13.01 40.35 9.62 40.44 C3.76 40.27 -0.09 38.33 -4.19 34.19 C-4.86 33.52 -5.54 32.85 -6.23 32.17 C-10.22 27.28 -10.34 22.61 -10.31 16.56 C-10.33 15.82 -10.34 15.09 -10.36 14.33 C-10.37 9.5 -9.68 6.17 -7 2 C-4 0 -4 0 0 0 Z M-9 8 C-8 10 -8 10 -8 10 Z " fill="#373A3B" transform="translate(378,543)"/>
<path d="M0 0 C1.65 0.01 1.65 0.01 3.34 0.02 C16.65 0.29 33.06 2.56 42.94 12.44 C43.19 14.94 43.19 14.94 42.94 17.44 C42.28 18.1 41.62 18.76 40.94 19.44 C35.96 19.09 31.7 17.77 27.06 16 C18.2 12.62 10.34 11.11 0.88 11.25 C-0.39 11.25 -0.39 11.25 -1.69 11.25 C-5.69 11.28 -9.54 11.46 -13.5 12.07 C-17.06 12.44 -17.06 12.44 -20.06 10.44 C-20.06 9.78 -20.06 9.12 -20.06 8.44 C-20.72 8.44 -21.38 8.44 -22.06 8.44 C-21.73 6.79 -21.4 5.14 -21.06 3.44 C-14 0.51 -7.6 -0.07 0 0 Z " fill="#373A3B" transform="translate(686.0625,595.5625)"/>
<path d="M0 0 C1.51 2.66 1.26 4.88 1.06 7.88 C-4.56 9.59 -10.19 10.76 -15.96 11.82 C-16.91 12 -17.86 12.17 -18.84 12.35 C-20.83 12.72 -22.83 13.08 -24.82 13.44 C-27.86 14 -30.9 14.56 -33.94 15.13 C-35.88 15.49 -37.83 15.84 -39.78 16.2 C-40.68 16.36 -41.58 16.53 -42.5 16.71 C-47.73 17.64 -52.62 18.22 -57.94 17.88 C-60.44 15.88 -60.44 15.88 -61.94 13.88 C-61.24 11.47 -61.24 11.47 -59.94 8.88 C-57.81 7.86 -57.81 7.86 -55.05 7.29 C-53.97 7.06 -52.89 6.84 -51.78 6.6 C-50.51 6.36 -49.24 6.12 -47.94 5.88 C-46.43 5.58 -44.92 5.29 -43.41 4.99 C-39.2 4.18 -34.98 3.41 -30.75 2.66 C-28.11 2.19 -25.47 1.7 -22.83 1.22 C-21.13 0.91 -19.43 0.61 -17.73 0.3 C-16.95 0.16 -16.17 0.01 -15.37 -0.13 C-3.75 -2.18 -3.75 -2.18 0 0 Z " fill="#373A3B" transform="translate(263.9375,580.125)"/>
<path d="M0 0 C2.36 0.8 2.36 0.8 4.36 2.8 C4.7 5.21 4.7 5.21 4.36 7.8 C2.92 9.59 2.92 9.59 0.91 11.21 C0.17 11.81 -0.56 12.4 -1.31 13.02 C-4.96 15.8 -8.64 18.52 -12.39 21.17 C-18.91 25.79 -18.91 25.79 -25.26 30.64 C-26.3 31.45 -27.33 32.27 -28.39 33.11 C-29.27 33.83 -30.15 34.54 -31.06 35.28 C-34.2 37.12 -36.06 37.33 -39.64 36.8 C-41.64 33.8 -41.64 33.8 -41.75 30.98 C-40.1 26.24 -36.91 24.56 -32.83 21.86 C-31.19 20.73 -29.55 19.61 -27.92 18.48 C-27.06 17.89 -26.2 17.3 -25.32 16.69 C-22.54 14.72 -19.85 12.67 -17.17 10.58 C-16.28 9.89 -15.39 9.19 -14.47 8.48 C-12.73 7.12 -11 5.76 -9.28 4.38 C-8.48 3.77 -7.69 3.15 -6.87 2.52 C-6.17 1.97 -5.48 1.42 -4.76 0.85 C-2.64 -0.2 -2.64 -0.2 0 0 Z " fill="#373A3B" transform="translate(264.639404296875,627.20458984375)"/>
<path d="M0 0 C1.19 1.75 1.19 1.75 1.06 4.31 C0.19 6.75 0.19 6.75 -2.81 8.75 C-4.4 9.25 -6 9.69 -7.61 10.08 C-8.56 10.32 -9.51 10.56 -10.49 10.81 C-11.51 11.06 -12.52 11.31 -13.56 11.56 C-21.82 13.64 -29.85 15.96 -37.85 18.87 C-40.73 19.73 -42.84 20.09 -45.81 19.75 C-48.38 17.18 -48.35 15.27 -48.81 11.75 C-42.45 7.59 -35.71 5.7 -28.44 3.62 C-27.26 3.28 -26.08 2.93 -24.86 2.57 C-4.74 -3.27 -4.74 -3.27 0 0 Z " fill="#373A3B" transform="translate(262.8125,608.25)"/>
<path d="M0 0 C12.23 2.58 30.27 8.53 39.21 17.46 C39.46 19.96 39.46 19.96 39.21 22.46 C38.55 23.12 37.89 23.78 37.21 24.46 C31.28 24.36 27.35 22.68 22.18 19.93 C13.63 15.71 4.35 12.54 -4.88 10.2 C-7.14 9.33 -8.3 8.38 -9.79 6.46 C-9.67 3.9 -9.67 3.9 -8.79 1.46 C-5.37 -0.82 -3.95 -0.63 0 0 Z " fill="#373A3B" transform="translate(673.79296875,620.53515625)"/>
<path d="M0 0 C3.62 1.13 6.8 2.81 10.08 4.68 C10.77 5.07 11.46 5.46 12.17 5.86 C17.55 9 22.68 12.44 27.71 16.11 C28.75 16.86 28.75 16.86 29.8 17.61 C34.49 21.14 34.49 21.14 35.84 24.6 C35.77 26.86 35.77 26.86 33.77 28.86 C28.56 29.55 26.18 28.17 22.08 25.05 C15.69 20.33 8.96 16.39 2.04 12.49 C1.26 12.05 0.47 11.61 -0.34 11.15 C-1.04 10.76 -1.74 10.36 -2.47 9.96 C-4.23 8.86 -4.23 8.86 -6.23 6.86 C-6.04 4.36 -6.04 4.36 -5.23 1.86 C-2.23 -0.14 -2.23 -0.14 0 0 Z " fill="#373A3B" transform="translate(672.23046875,649.13671875)"/>
<path d="M0 0 C3.04 2.08 3.84 3.46 4.88 7 C5.06 11.51 5.06 11.51 3 14 C-2.17 16.89 -6.11 17.59 -12 17 C-14 15.62 -14 15.62 -15 14 C-15 13.34 -15 12.68 -15 12 C-15.66 12 -16.32 12 -17 12 C-16.69 8.58 -16.38 6.49 -14.25 3.75 C-9.71 0.22 -5.73 -0.63 0 0 Z " fill="#373A3B" transform="translate(590,994)"/>
<path d="M0 0 C3.5 3.1 4.86 6.1 5.56 10.69 C5 14 5 14 3.38 16.44 C0.18 18.54 -1.23 18.74 -5 18 C-9.31 15.5 -11.65 13.2 -13.06 8.38 C-12.97 3.54 -12.97 3.54 -11 1 C-7.42 -1.78 -4.19 -1.25 0 0 Z " fill="#373A3B" transform="translate(203,453)"/>
<path d="M0 0 C3.27 2.47 4.78 3.96 5.62 8 C4.78 12.08 3.36 13.59 0 16 C-3.72 16.08 -5.39 15.48 -8.31 13.19 C-11 9.7 -11 9.7 -11 7 C-8.06 1.82 -6.18 -0.86 0 0 Z " fill="#373A3B" transform="translate(421,569)"/>
<path d="M0 0 C0.33 0 0.66 0 1 0 C1 6.93 1 13.86 1 21 C0.67 21 0.34 21 0 21 C0 14.07 0 7.14 0 0 Z " fill="#373A3B" transform="translate(142,589)"/>
<path d="M0 0 C0.33 0 0.66 0 1 0 C1 3.63 1 7.26 1 11 C0.67 11 0.34 11 0 11 C0 7.37 0 3.74 0 0 Z " fill="#373A3B" transform="translate(79,1019)"/>
<path d="M0 0 C1.65 0 3.3 0 5 0 C5 0.33 5 0.66 5 1 C3.35 1 1.7 1 0 1 C0 0.67 0 0.34 0 0 Z " fill="#373A3B" transform="translate(684,595)"/>
<path d="" fill="#373A3B" transform="translate(0,0)"/>
<path d="M0 0 C2 1 2 1 2 1 Z " fill="#373A3B" transform="translate(586,993)"/>
<path d="M0 0 C2 1 2 1 2 1 Z " fill="#373A3B" transform="translate(480,561)"/>
<path d="" fill="#373A3B" transform="translate(0,0)"/>
<path d="" fill="#373A3B" transform="translate(0,0)"/>
<path d="" fill="#373A3B" transform="translate(0,0)"/>
</g>
</svg>
