<?xml version='1.0' encoding='UTF-8'?>
<svg xmlns="http://www.w3.org/2000/svg" xmlns:xlink="http://www.w3.org/1999/xlink" width="297" height="210" viewBox="0 0 297 210">
  <rect x="0" y="0" width="297" height="210" fill="white"/>
  <g transform="translate(43.5,35.0) scale(0.1077752117013087)"><g id="Layer_1">
</g>
<g id="Layer_2">
	<g>
		<path d="M1475.87,487.13c-9.03-16.1-18.48-31.17-28.33-45.22c1.78-1.38,3.45-2.93,4.99-4.65c8.2-9.16,12.35-23.82,11.4-40.23    c-1.32-22.77-12.01-45.14-28.6-59.84c-15.89-14.14-37.37-21.52-58.76-20.23c-16.85,1.01-31.53,7.26-40.28,17.15    c-0.37,0.41-0.7,0.83-1.03,1.24c-22.48-12.84-46.18-22.26-71.05-28.22c-131.18-31.43-246.41,44.18-251.25,47.42l-1,0.82    c-1.65,1.65-3.2,3.16-4.67,4.57l-0.03-0.03l-4.22,3.97c-1.38,1.3-2.75,2.57-4.12,3.84c-3.93,3.62-7.83,7.09-11.7,10.43    c-0.25,0.22-0.51,0.44-0.76,0.65c-37.7,32.32-73.05,51.48-110,59.8c-3.74,0.81-7.39,1.52-11.04,2.13l-0.67,0.11    c-0.77,0.13-1.52,0.25-2.28,0.37c-7.53-4.89-16.34-9.48-26.37-13.67c-59.14-24.72-110.84-27.74-138.34-8.09    c-6.35,4.54-11.25,10.21-14.66,16.87c-20.17,1.9-39.3,6.25-58.38,13.27C503.27,494.28,488.01,641.91,486.22,686.1    c-0.27,6.65-4.24,12.6-10.38,15.53c-0.23,0.11-0.48,0.23-0.71,0.35c-4.86-1.98-10.24-3.09-15.89-3.09    c-21.73,0-39.41,16.29-39.41,36.3c0,9.78,4.23,18.66,11.08,25.19c3.02,23.8,20.33,58.27,53.31,84.27    c22.83,17.99,60.11,37.14,115.39,37.14c12.52,0,25.97-0.98,40.38-3.18c44.21-6.73,122.69-12.68,233.27-17.69l6.72,1.29    c29.6,5.7,57.56,11.08,83.27,15.84c65.93,12.13,117.46,19.65,156.93,19.65c41.18,0,69.21-8.19,86.7-27.87    c4.91-5.46,8.9-11.74,12.04-18.95c41.4-0.79,73.14-1.2,88.11-1.34c13.96,20.63,33,41.3,55.31,46.26c7.19,1.6,16.41,2.7,26.81,2.7    c29.56,0,68.7-8.93,98.3-40.88c23.62-25.49,45.49-72,35.08-155.24C1538.65,643.48,1522.97,571.08,1475.87,487.13z M1377.36,330.13    c17.99-1.07,35.91,5.09,49.21,16.92c14.02,12.43,23.07,31.4,24.18,50.74c0.75,12.92-2.19,24.1-8.05,30.66    c-0.91,1.02-1.88,1.91-2.89,2.73c-27.98-37.63-59.06-67.33-93.06-88.92C1353.19,335.42,1364.55,330.9,1377.36,330.13z     M705.44,430.18c23.39-16.72,71.5-13.07,125.57,9.54c33.1,13.84,51.43,31.88,49.01,48.26c-2.65,17.95-30.46,32.23-70.85,36.39    c-85.2,8.77-117.4-51.21-118.42-58.43c-0.51-7.81,0.41-14.67,2.74-20.55c0.12-0.25,0.23-0.51,0.31-0.77    C696.26,438.79,700.14,433.96,705.44,430.18z M459.24,712.08c4.3,0,8.37,0.93,11.95,2.56c0.61,0.45,1.29,0.8,2.01,1.02    c7.34,4.1,12.23,11.32,12.23,19.53c0,12.74-11.75,23.1-26.2,23.1c-6.6,0-12.64-2.17-17.25-5.73c-0.37-0.39-0.79-0.74-1.25-1.03    c-4.75-4.18-7.7-9.96-7.7-16.34C433.03,722.44,444.79,712.08,459.24,712.08z M637.99,865.54    c-73.32,11.21-119.66-10.82-145.61-31.27c-25.04-19.74-40.26-45.09-46.07-64.8c4.05,1.3,8.39,2.01,12.92,2.01    c21.73,0,39.4-16.28,39.4-36.3c0-9.84-4.28-18.77-11.2-25.31c7.15-5.59,11.6-14.01,11.97-23.24    c1.7-42.11,16.1-182.78,129.88-224.66c16.13-5.94,32.31-9.85,49.2-11.89c-0.99,5.22-1.31,10.82-0.91,16.78v0    c0.52,7.73,11.04,26.7,29.45,42.23c16.52,13.93,44.12,29.35,85.37,29.35c5.77,0,11.81-0.3,18.12-0.95    c36.93-3.8,63.7-15.21,75.77-31.58c32.68,164.03-4.13,311.71-12.49,341.75C762.15,852.71,682.81,858.72,637.99,865.54z     M1197.03,861.01c-30.09,33.87-101.52,27.94-231.39,4.04c-24.39-4.51-50.84-9.6-78.81-14.98c10.22-37.27,53.21-215.28-0.66-400.25    c0.28-0.07,0.55-0.15,0.83-0.22c0.56-0.15,1.11-0.3,1.67-0.45c0.78-0.21,1.55-0.43,2.33-0.65c0.57-0.16,1.14-0.33,1.71-0.5    c0.76-0.22,1.53-0.46,2.29-0.69c0.57-0.18,1.15-0.35,1.72-0.54c0.76-0.24,1.51-0.49,2.27-0.73c0.58-0.19,1.15-0.38,1.72-0.57    c0.76-0.26,1.52-0.52,2.28-0.79c0.57-0.2,1.13-0.39,1.7-0.6c0.77-0.28,1.54-0.57,2.32-0.85c0.55-0.21,1.11-0.41,1.66-0.62    c0.82-0.31,1.63-0.63,2.45-0.96c0.5-0.2,1.01-0.39,1.51-0.6c1.28-0.52,2.57-1.05,3.85-1.59c0.52-0.22,1.04-0.46,1.57-0.68    c0.79-0.34,1.57-0.68,2.36-1.03c0.65-0.29,1.3-0.59,1.95-0.89c0.65-0.3,1.31-0.6,1.96-0.9c0.69-0.32,1.38-0.66,2.06-0.99    c0.61-0.29,1.23-0.59,1.84-0.89c0.71-0.35,1.43-0.71,2.14-1.07c0.58-0.29,1.17-0.59,1.75-0.89c0.74-0.38,1.47-0.76,2.21-1.15    c0.56-0.29,1.12-0.59,1.68-0.89c0.76-0.4,1.51-0.81,2.27-1.23c0.53-0.29,1.07-0.59,1.6-0.88c0.78-0.43,1.56-0.87,2.34-1.32    c0.5-0.28,1-0.57,1.5-0.86c0.81-0.47,1.63-0.94,2.44-1.43c0.45-0.27,0.9-0.54,1.35-0.81c0.86-0.52,1.73-1.04,2.59-1.57    c0.36-0.22,0.73-0.45,1.09-0.68c0.95-0.59,1.9-1.18,2.84-1.78c0.17-0.11,0.35-0.23,0.52-0.34c4.75-3.04,9.52-6.28,14.3-9.72    c0.14-0.1,0.29-0.2,0.43-0.31c1.02-0.73,2.04-1.48,3.05-2.23c0.3-0.22,0.6-0.44,0.9-0.66c0.95-0.71,1.9-1.42,2.85-2.15    c0.37-0.28,0.74-0.56,1.1-0.84c0.91-0.69,1.82-1.4,2.73-2.11c0.42-0.32,0.83-0.65,1.25-0.98c0.88-0.69,1.76-1.39,2.64-2.09    c0.45-0.36,0.91-0.73,1.36-1.09c0.85-0.69,1.7-1.38,2.55-2.08c0.5-0.41,0.99-0.82,1.49-1.23c0.82-0.68,1.63-1.35,2.45-2.04    c0.56-0.47,1.11-0.94,1.67-1.41c0.76-0.65,1.52-1.29,2.28-1.95c0.66-0.57,1.33-1.15,1.99-1.73c0.66-0.57,1.32-1.15,1.98-1.73    c0.92-0.81,1.85-1.64,2.78-2.47c0.4-0.36,0.81-0.71,1.21-1.08c1.38-1.25,2.77-2.51,4.16-3.79c44.75,40.8,84.34,144.22,54.11,309.1    c-3.8,20.74,9.28,40.19,29.78,44.28c49.59,9.9,131.22,35.48,120.71,95.63c-0.96,5.39-2.24,10.32-3.87,14.83    c-0.21,0.41-0.37,0.85-0.49,1.31C1205.24,849.85,1201.62,855.92,1197.03,861.01z M1223.44,837.58c0.73-2.8,1.36-5.71,1.9-8.74    l0-0.02c12.44-71.2-76.82-100.01-131.13-110.85c-13.36-2.67-21.87-15.38-19.38-28.95c31-169.11-10.41-276.72-57.43-320.5    c1.09-1.05,2.21-2.15,3.4-3.33c8.48-5.43,119.28-74.29,240.45-45.2c81.03,19.45,149.37,77.86,203.1,173.59    c35.65,63.55,52.72,119.84,51,167.93c-3.05-13.76-6.87-28.34-11.56-43.8c-9.66-31.8-31.24-57.82-59.19-71.38    c-24.95-12.11-52.71-14.3-82.52-6.5l-0.09,0.03c-2.49,0.69-61.3,17.63-90.41,77.34c-23.87,48.96-20.41,111.37,10.25,185.44    c0.57,1.42,6.62,16.26,16.92,33.77C1282.59,836.6,1256.24,836.96,1223.44,837.58z M1477.75,848.64    c-36.03,38.88-89.37,39.41-112.56,34.26c-39.97-8.88-70.81-84.42-71.14-85.24c-29.14-70.39-32.73-129.1-10.68-174.49    c26.11-53.76,80.41-70.07,82.13-70.57c26.64-6.95,51.31-5.06,73.34,5.63c24.65,11.96,43.72,35.05,52.31,63.34    C1522.98,726.29,1518.35,804.82,1477.75,848.64z"/>
		<path d="M653.8,615.13c-24.81-11.35-55.25-6.44-75.78,12.24c-28.76,26.16-60.34,68.24-47.5,120.09    c5.7,23.02,22.96,41.7,46.17,49.96c13.61,4.85,31.44,9.39,50.47,9.39c32.21,0,67.85-13.04,92.16-59.69    c10.14-19.47,10.82-42.82,1.82-62.48C710.92,662.32,690.94,632.14,653.8,615.13z M707.61,741.03    c-32.34,62.06-86.64,58.15-126.49,43.96c-19.03-6.78-33.15-21.99-37.78-40.7c-11.28-45.53,17.47-83.4,43.57-107.14v0    c10.71-9.74,24.71-14.88,38.68-14.88c7.78,0,15.55,1.6,22.72,4.88c33.45,15.32,51.54,42.72,60.82,63.01    C716.45,706.12,715.88,725.15,707.61,741.03z"/>
		<path d="M569.86,694.8c-3.18,1.78-4.32,5.8-2.54,8.98c1.79,3.19,5.81,4.32,8.99,2.54c0.42-0.23,42.19-22.99,77.15,10.12    c1.28,1.21,2.91,1.81,4.54,1.81c1.75,0,3.49-0.69,4.79-2.06c2.51-2.65,2.39-6.83-0.25-9.33    C620.62,667.15,570.37,694.52,569.86,694.8z"/>
	</g>
</g>
</g>
</svg>
