<?xml version='1.0' encoding='UTF-8'?>
<svg xmlns="http://www.w3.org/2000/svg" width="297" height="210" viewBox="0 0 297 210">
  <rect x="0" y="0" width="297" height="210" fill="white"/>
  <g transform="translate(74.5,31.0) scale(0.115625)"><path d="M0 0 C0.73 -0 1.45 -0 2.2 -0 C14.73 0.04 26.23 1.34 38.12 5.44 C38.94 5.72 39.76 6 40.6 6.28 C51.53 10.13 61.77 15.06 71.8 20.84 C77.67 24.11 82.43 25.27 89.12 25.44 C90.1 25.47 91.08 25.51 92.09 25.55 C96.34 25.69 100.6 25.8 104.85 25.87 C113.93 26.13 123.02 27.3 130.12 33.44 C137.85 41.68 139.07 52.92 139.28 63.78 C139.31 65.13 139.31 65.13 139.34 66.5 C139.36 68.26 139.35 70.03 139.31 71.79 C139.33 74.18 139.41 76.15 140.12 78.44 C142.2 80.48 144.41 81.45 147.12 82.44 C148 82.77 148.88 83.11 149.79 83.45 C150.58 83.67 151.37 83.9 152.19 84.12 C153.38 84.47 153.38 84.47 154.6 84.82 C175.22 89.83 197.87 85.24 218.12 80.44 C217.97 79.78 217.81 79.12 217.64 78.44 C215.16 64.07 217.46 50.04 225.43 37.72 C231.06 30.13 237.66 24.32 247.12 22.44 C256.7 21.58 264.34 22.88 272.12 28.67 C280.54 35.94 287.2 48.52 288.34 59.5 C289.5 76.06 285.32 89.69 274.88 102.69 C270.02 107.99 264.02 111.82 257 113.44 C252.2 115.1 250.66 119.13 248.4 123.41 C233.88 150.94 210.96 173.99 184.12 189.44 C183 190.09 181.87 190.75 180.71 191.43 C149.61 209.08 113.29 215.93 78.12 219.44 C77.4 219.51 76.68 219.58 75.94 219.66 C68.99 220.32 62.1 220.58 55.12 220.44 C55.03 221.09 54.93 221.74 54.83 222.41 C53.89 227.92 52.91 232.12 49.12 236.44 C46.41 238.08 44.18 239.26 41.04 239.78 C39 240.25 39 240.25 38.16 242.04 C37.93 242.73 37.71 243.42 37.48 244.13 C37.22 244.9 36.96 245.67 36.69 246.47 C36.42 247.3 36.15 248.14 35.88 249 C29.06 268.66 18.89 286.78 5.12 302.44 C4.12 303.61 4.12 303.61 3.09 304.8 C-6.24 315.44 -16.23 326.33 -27.88 334.44 C-27.54 335.49 -27.22 336.54 -26.88 337.62 C-26.04 340.83 -25.68 343.18 -25.88 346.44 C-24.76 346.36 -23.65 346.27 -22.5 346.19 C-13.03 346.22 -5.01 351.52 1.62 357.88 C5.73 362.37 8.06 367.43 8.19 373.5 C5.36 381.31 -0.65 384.67 -7.4 388.73 C-13.14 392.32 -17.32 396.81 -21.67 401.93 C-24.27 404.88 -26 406.26 -29.88 407.06 C-37.63 406.82 -44.34 398.99 -49.56 393.94 C-60.19 384.17 -74.91 379.07 -88.88 376.44 C-88.46 388.95 -85.69 395 -77 403.95 C-72.99 408.65 -71.19 413.29 -70.88 419.44 C-71.59 425.1 -73.58 429.81 -76.88 434.44 C-86.33 441.38 -97.7 441.93 -109.03 441.83 C-111.17 441.81 -113.31 441.83 -115.45 441.85 C-125.95 441.86 -138.05 441.78 -146.88 435.44 C-152.34 428.89 -153.52 420.31 -155.06 412.19 C-155.55 409.7 -156.05 407.22 -156.54 404.73 C-156.75 403.64 -156.96 402.56 -157.18 401.43 C-157.85 398.56 -158.53 396.06 -159.88 393.44 C-162.51 392.18 -164.87 391.24 -167.62 390.38 C-175.34 387.85 -181.63 385.16 -185.81 377.84 C-186.99 375.19 -187.29 373.05 -187.51 370.16 C-187.58 369.28 -187.66 368.39 -187.73 367.47 C-187.8 366.46 -187.8 366.46 -187.88 365.44 C-189.59 365.54 -189.59 365.54 -191.34 365.64 C-207.11 366.5 -222.88 366.75 -238.67 366.94 C-241.07 366.97 -243.47 367 -245.87 367.03 C-298.34 367.7 -350.81 367.77 -403.28 367.95 C-421.93 368.01 -440.58 368.08 -459.23 368.16 C-461.02 368.16 -461.02 368.16 -462.85 368.17 C-504.53 368.34 -546.2 368.73 -587.88 369.44 C-587.97 370.47 -587.97 370.47 -588.07 371.52 C-588.15 372.42 -588.24 373.32 -588.33 374.25 C-588.46 375.59 -588.46 375.59 -588.59 376.96 C-589.82 387.56 -596.12 399.24 -603.88 406.44 C-602.81 409.45 -601.66 411.74 -599.81 414.38 C-596.86 419.04 -596.57 422.6 -597.5 427.94 C-598.84 433.14 -601.1 436.65 -605.71 439.62 C-618.95 446.34 -634.61 444.55 -648.91 443.62 C-651.56 443.46 -654.21 443.36 -656.87 443.27 C-658.29 443.18 -659.71 443.09 -661.12 443 C-662.33 442.94 -663.53 442.88 -664.77 442.82 C-669.01 440.94 -669.96 438.66 -671.79 434.5 C-673.78 428.88 -675 423.14 -676.19 417.31 C-676.45 416.07 -676.71 414.83 -676.99 413.55 C-677.63 410.51 -678.26 407.48 -678.88 404.44 C-679.38 404.68 -679.89 404.93 -680.41 405.18 C-712.88 420.9 -712.88 420.9 -727.88 420.56 C-728.65 420.55 -729.42 420.54 -730.22 420.54 C-732.11 420.51 -733.99 420.48 -735.88 420.44 C-735.83 421.65 -735.79 422.87 -735.74 424.12 C-735.75 431.76 -740.13 438.41 -745.21 443.9 C-750.46 448.75 -755.64 451.67 -762.88 451.44 C-771.03 445.87 -772.96 434.11 -775.25 425.12 C-777.66 415.91 -780.2 406.77 -783.01 397.67 C-784.9 391.5 -786.04 386 -786.12 379.5 C-786.15 378.32 -786.18 377.13 -786.2 375.91 C-785.71 370.69 -783.97 367.51 -780.25 363.88 C-777.06 361.38 -773.55 359.55 -769.93 357.75 C-767.5 356.2 -766.25 354.97 -764.88 352.44 C-764.84 349.82 -764.84 349.82 -765.5 346.94 C-765.71 345.79 -765.91 344.63 -766.12 343.45 C-766.24 342.81 -766.36 342.17 -766.49 341.51 C-770.63 319.31 -774.11 296.34 -760.94 276.56 C-758.33 272.79 -755.64 269.09 -752.88 265.44 C-757.57 263.63 -762.28 261.95 -767.05 260.34 C-802.09 248.56 -836.04 234.35 -867.88 215.44 C-868.69 214.96 -869.5 214.48 -870.33 213.99 C-888.67 203.2 -905.69 191.02 -921.43 176.67 C-923.02 175.22 -924.62 173.78 -926.23 172.36 C-936.39 163.4 -946.19 153.85 -954.88 143.44 C-955.63 142.57 -956.38 141.71 -957.16 140.82 C-971.1 124.59 -982.82 107.58 -982.18 85.42 C-981.53 76.95 -979.01 70.43 -972.59 64.74 C-968.6 61.71 -965.01 60.94 -959.96 61.15 C-947.85 62.82 -938.33 76.63 -930.88 85.44 C-929.98 86.47 -929.07 87.51 -928.17 88.55 C-922.66 94.9 -917.32 101.34 -912.16 107.98 C-906.22 115.59 -900.06 123.02 -893.88 130.44 C-893.36 131.06 -892.84 131.69 -892.31 132.33 C-858.27 173.35 -811.85 197.53 -758.68 202.87 C-745.13 204.11 -732.97 204.02 -720.5 198.06 C-714.39 195.19 -708.53 193.51 -701.89 192.38 C-700.47 192.13 -700.47 192.13 -699.02 191.88 C-687.76 189.97 -676.42 188.85 -665.06 187.75 C-662.93 187.54 -660.79 187.32 -658.65 187.11 C-653.89 186.63 -649.12 186.15 -644.36 185.7 C-642.74 185.53 -641.14 185.32 -639.53 185.08 C-634.65 184.36 -631.02 184.73 -626.26 185.95 C-621.71 186.88 -617.12 186.6 -612.5 186.49 C-610.17 186.46 -607.84 186.44 -605.51 186.41 C-604.27 186.39 -603.03 186.38 -601.75 186.36 C-569.51 185.97 -537.44 187.44 -505.26 189.2 C-503.63 189.29 -502.01 189.38 -500.38 189.46 C-499.58 189.51 -498.78 189.55 -497.96 189.6 C-473.75 190.91 -449.57 191.61 -425.32 191.57 C-421.53 191.56 -417.75 191.57 -413.96 191.57 C-399.67 191.58 -385.4 191.35 -371.11 190.96 C-355.7 190.53 -340.3 190.31 -324.89 190.19 C-323.81 190.18 -322.74 190.17 -321.64 190.17 C-311.72 190.09 -301.81 190.02 -291.9 189.96 C-206.84 193.53 -206.84 193.53 -132.14 160.84 C-125.14 153.59 -125.14 153.59 -121.88 144.44 C-122.97 142.07 -124.12 139.92 -125.44 137.69 C-129.82 129.87 -133.1 121.94 -135.88 113.44 C-136.22 112.42 -136.56 111.4 -136.91 110.35 C-141.71 93.37 -140.42 74.55 -132.19 59 C-127.01 51.07 -119.39 48.02 -110.81 44.77 C-106.79 43.24 -102.94 41.54 -99.08 39.63 C-92.09 36.16 -85.65 34.3 -77.88 33.44 C-66.66 32.02 -61.29 27.11 -53.94 18.94 C-39.42 2.85 -20.96 -0.01 0 0 Z M-47 27.19 C-49.09 29.21 -49.09 29.21 -48.88 31.44 C-47.52 31.5 -47.52 31.5 -46.14 31.57 C-42.73 31.75 -39.33 31.93 -35.92 32.13 C-34.45 32.21 -32.99 32.28 -31.53 32.36 C-5.71 33.64 -5.71 33.64 1.82 39.94 C5.43 44.08 6.41 48.6 6.12 54 C3.9 69.4 -3.71 84.5 -10.83 98.17 C-16.03 108.17 -19.82 118.6 -23.68 129.18 C-43.35 182.91 -43.35 182.91 -56.88 191.44 C-62.5 193.48 -67.56 191.65 -72.88 189.44 C-88.19 181.55 -100.18 167.62 -110.88 154.44 C-113.52 156.88 -115.41 159.59 -117.44 162.56 C-128.49 177.76 -143.99 185.68 -161.88 190.44 C-162.64 190.64 -163.41 190.85 -164.2 191.07 C-196.73 199.53 -232.04 200.33 -265.5 201 C-266.53 201.02 -267.55 201.04 -268.61 201.07 C-286.45 201.44 -304.27 201.44 -322.11 201.36 C-337.28 201.31 -352.38 201.59 -367.53 202.29 C-419.87 204.71 -471.99 203.36 -524.3 201.03 C-558.1 199.53 -591.91 198.28 -625.75 198.19 C-626.72 198.18 -627.69 198.18 -628.7 198.17 C-648.39 198.09 -667.74 199.45 -687.08 203.3 C-690.31 203.94 -693.55 204.54 -696.79 205.15 C-702.23 206.17 -707.67 207.21 -713.1 208.25 C-739.11 213.22 -766.04 215.87 -791.88 208.44 C-792.6 208.23 -793.33 208.03 -794.08 207.82 C-824.86 198.97 -853.37 183.79 -877.4 162.73 C-878.77 161.53 -880.14 160.35 -881.52 159.16 C-893 149.13 -902.18 137.66 -911.29 125.53 C-920.28 113.64 -929.56 101.91 -939.62 90.92 C-941.15 89.24 -942.65 87.53 -944.12 85.8 C-950.98 77.83 -950.98 77.83 -959.88 72.44 C-963.09 72.74 -964.52 73.16 -967.06 75.19 C-972.14 81.49 -971.38 88.74 -970.88 96.44 C-968.51 115.2 -950.04 133.02 -937.86 146.27 C-935.96 148.35 -934.13 150.48 -932.31 152.62 C-929.44 155.92 -926.35 158.79 -923.01 161.61 C-920.74 163.55 -918.56 165.59 -916.38 167.62 C-887.44 193.68 -851.24 211.97 -815.89 227.55 C-814.46 228.18 -813.03 228.81 -811.6 229.45 C-776.78 245.29 -776.78 245.29 -740.29 256.49 C-736.88 257.44 -736.88 257.44 -734.88 260.06 C-734.54 260.85 -734.22 261.63 -733.88 262.44 C-735.86 265.02 -737.85 267.41 -740.19 269.69 C-753.15 282.96 -758.28 298.52 -758.25 316.81 C-758.25 317.85 -758.25 318.89 -758.25 319.95 C-758.1 330.09 -756.34 339.64 -753.88 349.44 C-753.68 350.21 -753.49 350.98 -753.3 351.77 C-752.83 353.66 -752.35 355.55 -751.88 357.44 C-752.72 358.15 -753.57 358.86 -754.44 359.6 C-766.57 367.97 -766.57 367.97 -774.11 378.78 C-774.58 398.5 -766.41 417.15 -759.88 435.44 C-754.98 434.87 -754.98 434.87 -751.12 431.81 C-747.92 427.49 -747.09 423.02 -746.38 417.75 C-746.54 416.66 -746.71 415.56 -746.88 414.44 C-749.82 412.23 -749.82 412.23 -752.88 410.44 C-752.88 409.12 -752.88 407.8 -752.88 406.44 C-748.08 406.28 -743.48 406.31 -738.73 406.99 C-721.02 409.51 -705.36 406.19 -690.31 395.88 C-666.74 377.58 -655.18 353.38 -649.27 324.53 C-648.51 320.91 -647.79 317.63 -645.88 314.44 C-645.21 314.44 -644.56 314.44 -643.88 314.44 C-640.87 323.45 -641.98 331.1 -643.88 340.25 C-644.25 342.11 -644.63 343.97 -645 345.83 C-645.17 346.65 -645.34 347.46 -645.51 348.3 C-645.96 350.57 -645.96 350.57 -645.88 353.44 C-641.7 353.85 -637.53 354.26 -633.36 354.66 C-631.95 354.8 -630.54 354.94 -629.13 355.08 C-609.65 357.02 -590.23 357.59 -570.66 357.48 C-568.52 357.47 -566.37 357.46 -564.22 357.45 C-558.41 357.43 -552.6 357.4 -546.8 357.37 C-540.58 357.34 -534.35 357.31 -528.13 357.29 C-514.06 357.23 -499.98 357.16 -485.91 357.09 C-478.31 357.06 -470.72 357.02 -463.13 356.98 C-460.36 356.97 -457.59 356.96 -454.82 356.94 C-454.13 356.94 -453.45 356.94 -452.74 356.94 C-445.11 356.9 -437.48 356.86 -429.84 356.83 C-429.16 356.82 -428.47 356.82 -427.76 356.82 C-418.05 356.77 -408.33 356.72 -398.62 356.67 C-367.7 356.52 -336.79 356.39 -305.87 356.31 C-293.47 356.28 -281.07 356.23 -268.66 356.18 C-259.11 356.14 -249.57 356.12 -240.02 356.11 C-233.62 356.1 -227.22 356.08 -220.82 356.04 C-217.21 356.02 -213.59 356.01 -209.98 356.02 C-206.13 356.02 -202.29 356 -198.44 355.97 C-196.77 355.98 -196.77 355.98 -195.07 355.99 C-189.1 355.94 -189.1 355.94 -183.74 353.52 C-181.58 351.11 -179.88 348.67 -178.18 345.93 C-176.55 344.06 -175.28 343.82 -172.88 343.44 C-173.25 349.78 -174.23 354.6 -176.88 360.44 C-177.86 364.46 -178.13 366.68 -176.81 370.62 C-173.61 375.28 -171.03 377.03 -165.55 378.07 C-163.11 378.47 -160.67 378.83 -158.21 379.14 C-154.15 380.72 -153.03 382.17 -150.97 385.91 C-148.81 390.9 -147.55 396.11 -146.25 401.38 C-145.4 404.72 -144.55 408.06 -143.67 411.4 C-143.17 413.31 -142.7 415.23 -142.28 417.15 C-141.22 421.48 -141.22 421.48 -138.25 424.59 C-136.13 425.46 -134.12 425.99 -131.88 426.44 C-130.72 426.68 -130.72 426.68 -129.54 426.93 C-127.08 427.4 -124.61 427.78 -122.12 428.12 C-120.81 428.31 -120.81 428.31 -119.46 428.51 C-108.5 430 -97.5 430.93 -87.44 425.62 C-84.56 423.17 -83.54 422.15 -82.88 418.44 C-83.05 414.44 -83.71 410.95 -86.19 407.73 C-90.39 403.89 -95.4 401.51 -100.41 398.89 C-103.34 397.17 -105.16 395.38 -106.88 392.44 C-106.88 391.78 -106.88 391.12 -106.88 390.44 C-105.74 390.31 -104.61 390.19 -103.44 390.06 C-102.26 389.86 -101.09 389.65 -99.88 389.44 C-97.05 383.78 -100.66 372.44 -102.44 366.5 C-106.43 355.51 -112.58 345.18 -120.44 336.55 C-122.18 333.99 -122.17 332.47 -121.88 329.44 C-114.31 331.37 -110.88 336.11 -106.81 342.5 C-103.49 348.07 -103.49 348.07 -98.88 352.44 C-95.87 352.22 -93.5 351.82 -90.62 351.06 C-89.83 350.86 -89.03 350.67 -88.2 350.46 C-55.32 342.01 -26.44 322.41 -5.88 295.44 C-5.07 294.43 -4.26 293.43 -3.43 292.39 C7.73 278.47 15.73 262.85 23.81 247 C24.66 245.35 25.51 243.7 26.38 242.06 C28.53 238.15 28.53 238.15 28.94 233.81 C28.67 233.03 28.4 232.25 28.12 231.44 C27.78 229.44 27.44 227.44 27.12 225.44 C28.12 225.52 29.12 225.61 30.15 225.69 C31.44 225.79 32.73 225.9 34.06 226 C35.35 226.1 36.64 226.21 37.96 226.32 C39.01 226.36 40.05 226.4 41.12 226.44 C42.46 225.32 42.46 225.32 42.31 222.44 C41.32 215.97 34.31 211.87 29.44 208.15 C23.66 203.55 20.28 197.89 16.49 191.63 C15.99 190.85 15.5 190.07 14.99 189.26 C14.56 188.55 14.13 187.84 13.68 187.11 C11.61 184.88 10.13 184.61 7.12 184.44 C4.53 186.28 4.53 186.28 2.12 188.44 C0 189.38 0 189.38 -1.88 189.44 C-3.62 188 -3.62 188 -4.88 186.44 C-2 179.8 4.13 176.61 10.62 174 C15.6 172.32 19.04 172.29 24.12 173.44 C24.44 175.75 24.44 175.75 24.12 178.44 C21.62 180.25 21.62 180.25 19.12 181.44 C23.58 188.52 28.48 195.25 34.12 201.44 C34.61 201.98 35.1 202.52 35.6 203.08 C38.87 206.35 41.31 207.82 45.97 208.13 C47.85 208.12 49.74 208.08 51.62 208 C52.66 207.98 53.69 207.95 54.76 207.93 C110.97 206.19 169.24 193.03 210.7 152.81 C211.95 151.6 213.23 150.44 214.52 149.27 C224.39 140.07 231.74 128.23 238.38 116.56 C238.95 115.55 238.95 115.55 239.54 114.53 C241.13 111.63 242.12 109.8 242.12 106.44 C240.66 105.09 240.66 105.09 238.69 103.88 C235.07 101.35 232.25 98.53 229.34 95.22 C228.55 94.33 227.75 93.43 226.93 92.5 C226.34 91.82 225.74 91.14 225.12 90.44 C224.38 90.61 223.64 90.78 222.87 90.96 C158.07 105.8 158.07 105.8 134.08 90.92 C129.24 87.25 125.21 82.85 121.44 78.12 C119.35 75.38 119.35 75.38 116.78 74.15 C113.52 72.05 111.59 69.41 109.38 66.31 C88.26 38.08 51.19 17.16 16.39 11.94 C-4.4 9.25 -31.06 12.18 -47 27.19 Z M236.12 41.44 C229.34 52.23 227.79 63.52 230.31 75.88 C232.78 85.74 236.8 92.46 245.12 98.44 C249.1 100.69 252.64 101.65 257.12 100.44 C266.66 94.45 274.09 86.36 277.12 75.44 C277.54 72.46 277.6 69.56 277.56 66.56 C277.55 65.77 277.54 64.98 277.54 64.17 C277.24 54.35 274.2 47.52 267.41 40.36 C258.19 32.62 244.59 32.27 236.12 41.44 Z M93.12 37.44 C94.17 38.24 94.17 38.24 95.23 39.06 C98.46 41.72 101.42 44.54 104.38 47.5 C104.94 48.07 105.51 48.64 106.1 49.22 C110.44 53.62 114.34 58.21 118.19 63.05 C120.66 66.1 123.21 68.81 126.12 71.44 C126.79 71.44 127.44 71.44 128.12 71.44 C130.38 64.68 129.31 57.08 127.12 50.44 C123.56 43.92 119.05 40.18 112.02 37.96 C105.8 36.83 99.42 37.23 93.12 37.44 Z M-105.88 56.44 C-106.99 57 -108.11 57.56 -109.26 58.14 C-118.78 63.16 -123.51 67.43 -126.96 77.67 C-131.32 95.71 -125.86 114.14 -116.89 129.81 C-115.14 132.61 -113.01 134.91 -110.72 137.26 C-108.21 140.22 -106.37 143.46 -104.44 146.81 C-94.62 163.63 -80.91 177.52 -61.88 183.44 C-59.78 183.64 -59.78 183.64 -57.88 182.44 C-56.16 180.25 -54.74 178.18 -53.31 175.81 C-52.88 175.1 -52.45 174.38 -52 173.65 C-42.58 157.76 -35.72 140.83 -29.18 123.61 C-24.97 112.52 -20.38 101.7 -15.38 90.94 C-9.01 77.22 -3.46 63.58 -1.88 48.44 C-35.93 36.57 -73.78 40.13 -105.88 56.44 Z M-40.88 340.44 C-41.51 340.95 -42.14 341.45 -42.79 341.98 C-56.53 352.55 -72.46 356.68 -88.88 361.44 C-86.12 363.28 -83.88 364.1 -80.74 364.98 C-62.78 370.06 -47.14 379.52 -32.88 391.44 C-30 390.1 -27.65 388.59 -25.2 386.57 C-24.51 386.02 -23.83 385.46 -23.13 384.88 C-22.43 384.3 -21.72 383.72 -21 383.12 C-20.31 382.56 -19.61 381.99 -18.89 381.4 C-17.53 380.28 -16.16 379.15 -14.8 378.03 C-13.57 377.01 -12.32 376 -11.06 375 C-7.73 372.4 -7.73 372.4 -6 368.62 C-5.96 367.9 -5.92 367.18 -5.88 366.44 C-6.74 365.65 -7.61 364.87 -8.5 364.06 C-8.99 363.62 -9.47 363.18 -9.98 362.73 C-15.12 359.24 -20.75 359.06 -26.75 358.81 C-27.53 358.77 -28.32 358.74 -29.12 358.7 C-31.04 358.6 -32.96 358.52 -34.88 358.44 C-34.97 357.31 -35.07 356.17 -35.17 355.01 C-35.32 353.53 -35.47 352.04 -35.62 350.56 C-35.72 349.44 -35.72 349.44 -35.81 348.3 C-36.04 345.86 -36.04 345.86 -36.88 342.44 C-38.81 340.84 -38.81 340.84 -40.88 340.44 Z M-648.88 361.44 C-649.19 361.94 -649.5 362.45 -649.82 362.98 C-651.29 365.36 -652.77 367.74 -654.25 370.12 C-654.79 370.99 -655.32 371.86 -655.88 372.75 C-658.39 376.75 -660.9 380.61 -663.97 384.21 C-664.44 384.76 -664.91 385.32 -665.39 385.89 C-666.67 387.34 -667.99 388.77 -669.3 390.19 C-671.74 395.23 -670.25 399.18 -668.88 404.44 C-668.63 405.43 -668.39 406.42 -668.15 407.45 C-667.4 410.47 -666.61 413.49 -665.81 416.5 C-665.54 417.53 -665.27 418.56 -665 419.62 C-663.77 424.65 -663.77 424.65 -661.88 429.44 C-659.72 430 -659.72 430 -657.09 430.29 C-656.09 430.42 -655.09 430.55 -654.06 430.68 C-652.99 430.81 -651.92 430.93 -650.81 431.06 C-649.18 431.26 -649.18 431.26 -647.52 431.46 C-630.25 433.82 -630.25 433.82 -613.88 429.44 C-610.86 426.91 -610.64 424.45 -610.19 420.69 C-610.07 419.27 -609.96 417.86 -609.88 416.44 C-612.65 414.89 -614.84 414.18 -618 413.94 C-621.88 413.44 -621.88 413.44 -623.88 411.44 C-623.78 408.35 -622.74 407.29 -620.62 405.03 C-619.67 404.15 -618.72 403.28 -617.75 402.38 C-607.67 392.69 -600.28 380.47 -598.88 366.44 C-615.53 364.63 -632.2 363.03 -648.88 361.44 Z " fill="#000100" transform="translate(986.875,414.5625)"/>
<path d="M0 0 C6.54 6.69 9.48 14.09 10.04 23.41 C9.97 27.96 9.32 31.68 6 35 C4 35 4 35 2 34 C0.3 30.52 -0 28.07 0.12 24.19 C0.29 18.17 -2.28 13.02 -6.12 8.5 C-9.33 5.94 -11.8 5.64 -15.91 5.74 C-19.58 6.2 -21.31 7.49 -24 10 C-29.15 17.31 -30.16 25.28 -31 34 C-33.31 33.81 -33.31 33.81 -36 33 C-39.76 28.42 -39.5 24.04 -39.34 18.35 C-38.45 9.47 -35.05 4.31 -28.32 -1.41 C-19.13 -7.73 -8.54 -6.99 0 0 Z " fill="#000100" transform="translate(1036,499)"/>
<path d="M0 0 C5.48 4.33 8.63 9.99 10 16.81 C10.6 23.55 9.74 28.64 7 34.81 C5.35 34.48 3.7 34.15 2 33.81 C0.1 27.49 -0.37 21.47 -0.66 14.88 C-0.78 11.64 -0.78 11.64 -3 8.81 C-5.44 8.44 -5.44 8.44 -8.12 8.62 C-9.49 8.66 -9.49 8.66 -10.88 8.7 C-11.58 8.74 -12.28 8.77 -13 8.81 C-13.18 9.62 -13.36 10.43 -13.55 11.26 C-13.8 12.33 -14.05 13.4 -14.31 14.5 C-14.56 15.55 -14.8 16.61 -15.05 17.7 C-16 20.81 -17.13 23.15 -19 25.81 C-19.66 26.14 -20.32 26.47 -21 26.81 C-23.61 24.79 -25.67 23.11 -26.51 19.82 C-26.88 12.77 -24.16 6.34 -19.47 1.1 C-13.44 -4.23 -6.81 -4.05 0 0 Z " fill="#000100" transform="translate(1092,500.19140625)"/>
</g>
</svg>
