<?xml version='1.0' encoding='UTF-8'?>
<svg xmlns="http://www.w3.org/2000/svg" width="297" height="210" viewBox="0 0 297 210">
  <rect x="0" y="0" width="297" height="210" fill="white"/>
  <g transform="translate(66.9151593453919,31.0) scale(0.12747631352282515)"><path d="M0 0 C0.56 0.41 1.12 0.81 1.7 1.23 C8.98 6.54 15.72 12.31 22.28 18.47 C24.58 20.61 26.92 22.66 29.31 24.69 C32.48 27.45 35.26 30.39 37.97 33.6 C39.53 35.44 41.11 37.26 42.72 39.06 C50.25 47.56 56.83 56.47 63 66 C63.38 66.58 63.76 67.17 64.16 67.77 C102.99 127.49 113.98 210.24 119 280 C119.05 280.71 119.1 281.42 119.15 282.15 C125.04 365.46 118.28 448.99 46 694 C45.59 694.9 45.18 695.81 44.76 696.74 C38.3 710.96 30.87 724.51 23 738 C22.5 738.87 21.99 739.74 21.48 740.64 C11.62 757.67 0.78 774 -12 789 C-13.34 790.66 -14.67 792.33 -16 794 C-9.04 795.97 -2.12 796.8 5.06 797.56 C6.19 797.69 7.31 797.81 8.47 797.94 C22.71 799.49 36.88 800.23 51.19 800.25 C51.98 800.25 52.78 800.25 53.6 800.26 C69.38 800.27 85.06 799.32 100.79 798.07 C149.26 794.25 192.79 805.86 230.29 837.79 C240.91 847.05 251.83 858.9 253.37 873.52 C253.56 884.22 251.81 891.11 244.56 899.06 C214.09 927.32 163.38 932.87 124 936 C122.98 936.09 122.98 936.09 121.93 936.18 C39.49 942.94 -48.79 926.98 -117.32 879.04 C-119.14 877.83 -119.14 877.83 -122 877 C-124.41 877.82 -124.41 877.82 -127.03 879.18 C-128.06 879.67 -129.08 880.16 -130.13 880.67 C-131.24 881.21 -132.36 881.75 -133.5 882.31 C-185.8 907.08 -245.35 921.41 -303.21 924.34 C-315.16 924.99 -323.79 926.83 -334.12 932.91 C-382.78 961.04 -445.52 969.37 -501 970 C-502.57 970.02 -502.57 970.02 -504.16 970.04 C-555.78 970.38 -628.02 968.46 -668.06 931.15 C-674.4 924.13 -677.41 917.15 -677.27 907.77 C-675.99 894.79 -667.36 884.04 -658.72 874.9 C-656.89 873.3 -656.89 873.3 -657 872 C-661.44 871.35 -665.87 870.71 -670.31 870.06 C-672.18 869.79 -672.18 869.79 -674.08 869.51 C-688.37 867.45 -702.27 866.76 -716.69 866.75 C-717.65 866.75 -718.6 866.75 -719.59 866.75 C-734.28 866.76 -748.51 867.34 -763 870 C-763.84 870.14 -764.69 870.29 -765.55 870.44 C-781.07 873.13 -800.85 876.93 -810.75 890.37 C-814.97 897.65 -816.22 904.6 -814.35 912.87 C-807.85 934.25 -790.11 949.97 -771.16 960.59 C-757.89 967.58 -743.73 970.95 -729.18 973.98 C-706.65 978.72 -706.65 978.72 -700.34 986.82 C-694.5 996.32 -696.05 1010.18 -698.5 1020.5 C-707.51 1050.5 -733.41 1070.63 -760 1085 C-793.97 1102.92 -830.15 1113.2 -868 1119 C-868.83 1119.13 -869.67 1119.27 -870.53 1119.4 C-911.89 1125.72 -962.78 1123.51 -997.93 1098.61 C-1012.81 1087.06 -1023.58 1072.15 -1026.73 1053.23 C-1027.82 1044.26 -1027.44 1035.08 -1027.38 1026.06 C-1027.37 1024.32 -1027.37 1024.32 -1027.36 1022.55 C-1027.28 1004.51 -1026.62 986.86 -1024 969 C-1023.83 967.81 -1023.67 966.61 -1023.5 965.38 C-1017.81 925.25 -1006.39 886.63 -989 850 C-988.52 848.98 -988.04 847.97 -987.54 846.92 C-972.3 815.02 -952.87 784.99 -930 758 C-929.11 756.93 -928.22 755.87 -927.32 754.8 C-921.69 748.07 -915.91 741.49 -910 735 C-909.2 734.12 -908.4 733.23 -907.58 732.33 C-901.34 725.45 -894.93 718.78 -888.36 712.23 C-886.8 710.67 -885.25 709.12 -883.7 707.56 C-878.84 702.7 -873.95 697.95 -868.73 693.48 C-866.15 691.27 -863.68 688.94 -861.19 686.62 C-856.54 682.33 -851.76 678.27 -846.84 674.3 C-844.3 672.24 -841.8 670.14 -839.32 668.02 C-832.04 661.8 -824.58 655.84 -817 650 C-816.22 649.39 -815.43 648.79 -814.62 648.17 C-802.57 638.89 -790.41 629.79 -778 621 C-776.77 620.13 -776.77 620.13 -775.51 619.24 C-752.42 602.92 -728.85 587.2 -705 572 C-703.76 571.21 -703.76 571.21 -702.49 570.4 C-696.89 566.82 -691.28 563.25 -685.67 559.69 C-683.21 558.13 -680.75 556.57 -678.29 555 C-668.24 548.62 -658.12 542.36 -647.97 536.14 C-637.61 529.77 -627.29 523.33 -616.99 516.87 C-613.94 514.96 -610.89 513.05 -607.83 511.15 C-596.35 503.98 -584.88 496.8 -573.45 489.55 C-570.79 487.87 -568.13 486.2 -565.46 484.53 C-549.74 474.66 -534.94 464.26 -521 452 C-520.01 451.13 -519.01 450.26 -517.99 449.37 C-513.26 445.15 -508.8 440.88 -504.72 436.03 C-502.84 433.81 -500.86 431.69 -498.88 429.56 C-494.95 425.2 -491.32 420.66 -487.75 416 C-487.27 415.38 -486.8 414.76 -486.31 414.12 C-475.21 399.47 -464.8 384.4 -454.69 369.06 C-452.47 365.7 -450.24 362.33 -448.01 358.97 C-447.48 358.18 -446.96 357.38 -446.41 356.56 C-443.54 352.25 -440.6 348.02 -437.52 343.85 C-434.31 339.51 -431.56 335.07 -429 330.31 C-428.58 329.54 -428.16 328.77 -427.73 327.98 C-423.63 320.41 -419.72 312.76 -416 305 C-415.64 304.26 -415.28 303.52 -414.91 302.76 C-400.59 273.16 -390.45 241.73 -379.98 210.63 C-358.84 147.89 -335.61 83.82 -289.48 34.66 C-287.45 32.49 -285.53 30.28 -283.62 28 C-269.81 12.2 -252.12 -0.59 -234 -11 C-233.23 -11.45 -232.45 -11.89 -231.66 -12.35 C-210.12 -24.61 -187.22 -32.07 -163 -37 C-162.17 -37.18 -161.33 -37.36 -160.48 -37.54 C-105.11 -48.99 -45.24 -32.78 0 0 Z M-222.29 -7.91 C-223.81 -7.1 -225.34 -6.32 -226.88 -5.55 C-240.49 1.5 -252.57 10.87 -264 21 C-264.88 21.77 -265.77 22.54 -266.68 23.34 C-276.32 31.87 -285.07 40.86 -293 51 C-293.49 51.62 -293.98 52.24 -294.48 52.87 C-331.42 99.64 -352.05 154.43 -370.94 210.31 C-382.74 245.23 -394.75 279.92 -410.62 313.25 C-411.11 314.28 -411.6 315.32 -412.11 316.38 C-419.81 332.23 -429.39 346.85 -439.31 361.38 C-440.43 363.02 -441.55 364.66 -442.66 366.3 C-444.82 369.48 -446.99 372.65 -449.15 375.83 C-451.45 379.2 -453.74 382.57 -456.02 385.95 C-465.86 400.5 -475.98 414.85 -487.51 428.11 C-489.8 430.77 -491.96 433.49 -494.12 436.25 C-503.73 448.04 -514.94 458.76 -527 468 C-527.92 468.75 -528.84 469.5 -529.79 470.27 C-539.06 477.69 -549.05 483.9 -559.11 490.19 C-562.81 492.51 -566.49 494.86 -570.17 497.21 C-588.21 508.73 -606.39 520.03 -624.64 531.23 C-631.75 535.6 -638.83 540.02 -645.89 544.5 C-652.18 548.49 -658.49 552.43 -664.81 556.38 C-672.71 561.3 -680.59 566.25 -688.44 571.25 C-689.25 571.77 -690.07 572.28 -690.9 572.82 C-705.31 582 -719.6 591.33 -733.81 600.81 C-734.6 601.34 -735.38 601.86 -736.19 602.4 C-748.24 610.44 -760.22 618.57 -772 627 C-772.75 627.54 -773.51 628.07 -774.28 628.62 C-785.37 636.52 -796.25 644.65 -807 653 C-807.61 653.47 -808.22 653.94 -808.84 654.43 C-826.15 667.88 -843.18 681.69 -859.3 696.55 C-861.4 698.45 -863.51 700.31 -865.66 702.15 C-870.01 705.95 -874.11 709.97 -878.19 714.06 C-879.31 715.18 -879.31 715.18 -880.46 716.33 C-882.03 717.9 -883.6 719.47 -885.17 721.04 C-887.56 723.43 -889.94 725.81 -892.33 728.2 C-893.87 729.73 -895.41 731.27 -896.94 732.81 C-897.65 733.51 -898.35 734.21 -899.08 734.94 C-903.58 739.46 -907.85 744.15 -912 749 C-912.46 749.53 -912.92 750.06 -913.39 750.61 C-974.75 821.8 -1013.74 907.97 -1019.44 1027.62 C-1019.45 1028.53 -1019.46 1029.43 -1019.47 1030.36 C-1019.7 1050.28 -1016.66 1068.85 -1002.26 1083.77 C-1001.14 1084.87 -1001.14 1084.87 -1000 1086 C-999.42 1086.61 -998.84 1087.23 -998.24 1087.86 C-974.09 1111.47 -932.63 1113.55 -901.12 1113.21 C-839.52 1112.22 -770.28 1092.67 -724.94 1049.31 C-712.22 1036.02 -705.18 1020.4 -705 1002 C-705.51 995.82 -706.27 992.19 -711 988 C-718.5 984.26 -726.92 982.79 -735.06 981.12 C-757.35 976.34 -776.19 969.59 -794 955 C-794.85 954.31 -795.7 953.63 -796.58 952.92 C-807.6 943.56 -815.81 932.5 -821 919 C-821.45 917.85 -821.91 916.69 -822.38 915.5 C-824.32 904.62 -823.51 894.65 -817.22 885.38 C-800.95 865.49 -770.86 861.96 -746.91 859.4 C-737.32 858.52 -727.68 858.66 -718.06 858.69 C-716.98 858.69 -715.9 858.69 -714.78 858.69 C-696.61 858.73 -679.02 859.69 -661.14 863.11 C-652.06 865.13 -652.06 865.13 -643.08 863.98 C-640.7 862.34 -640.7 862.34 -638.54 860.3 C-635.31 857.37 -631.82 855.26 -628.06 853.06 C-627.34 852.64 -626.61 852.21 -625.87 851.77 C-614.62 845.34 -602.61 840.69 -590.31 836.69 C-589.61 836.46 -588.92 836.23 -588.2 835.99 C-573.21 831.34 -558.87 830.54 -543.31 830.69 C-541.3 830.7 -539.28 830.7 -537.27 830.71 C-525.38 830.79 -513.62 831.29 -501.78 832.28 C-439.54 837.16 -376.78 826.7 -317.87 806.79 C-316.78 806.43 -315.68 806.06 -314.56 805.69 C-313.6 805.36 -312.65 805.04 -311.66 804.7 C-308.99 804 -306.75 803.87 -304 804 C-303.45 806.08 -303 807.84 -303 810 C-303.54 810.16 -304.09 810.32 -304.65 810.49 C-309.84 812.04 -315.03 813.63 -320.21 815.23 C-352.46 825.22 -384.75 833.17 -418.31 837.25 C-419 837.33 -419.68 837.42 -420.39 837.5 C-437.18 839.52 -453.73 840.2 -470.62 840.19 C-471.67 840.19 -472.72 840.19 -473.79 840.19 C-485.72 840.19 -497.55 840.05 -509.44 839 C-533.34 836.92 -559.79 834.95 -583 842 C-584.07 842.3 -584.07 842.3 -585.17 842.6 C-614.65 850.81 -649.91 869.19 -665.62 896.81 C-668.65 903.46 -669.3 909.82 -668 917 C-663.95 926.08 -653.85 932.6 -645.31 937 C-644.5 937.42 -643.68 937.85 -642.84 938.28 C-633.57 942.93 -623.95 946.17 -614 949 C-613.19 949.23 -612.39 949.46 -611.56 949.7 C-600.08 952.89 -588.39 954.87 -576.62 956.69 C-575.33 956.89 -574.03 957.09 -572.69 957.3 C-551.52 960.49 -530.45 961.38 -509.06 961.31 C-507.81 961.31 -506.56 961.31 -505.27 961.31 C-486 961.26 -467.1 960.71 -448 958 C-446.78 957.83 -445.56 957.67 -444.31 957.5 C-374.25 947.68 -299.23 919.13 -254.86 861.27 C-253.55 859.52 -252.27 857.77 -251 856 C-250.57 855.4 -250.14 854.8 -249.69 854.19 C-239.4 839.75 -223 815.04 -223 797 C-221.02 797.66 -219.04 798.32 -217 799 C-217.59 804.67 -219.06 809.61 -221.06 814.94 C-221.53 816.18 -221.53 816.18 -222 817.45 C-225.11 825.6 -228.86 833.33 -233 841 C-233.81 842.53 -233.81 842.53 -234.64 844.1 C-241.23 855.98 -249.74 866.9 -258.98 876.83 C-260.91 878.9 -262.74 881.03 -264.56 883.19 C-268.07 887.19 -271.92 890.59 -276 894 C-276.87 894.75 -277.75 895.5 -278.65 896.27 C-286.48 902.93 -294.66 909.01 -303 915 C-299.98 916.51 -297.51 915.77 -294.17 915.4 C-293.13 915.28 -293.13 915.28 -292.06 915.17 C-289.77 914.91 -287.48 914.64 -285.19 914.38 C-284.4 914.28 -283.62 914.19 -282.81 914.1 C-201.78 904.64 -120.17 878.65 -58 824 C-57.29 823.39 -56.58 822.78 -55.85 822.15 C-53.88 820.45 -51.94 818.73 -50 817 C-49.13 816.24 -48.27 815.48 -47.38 814.69 C-34.26 802.96 -22.53 790.08 -12 776 C-11.55 775.41 -11.1 774.82 -10.64 774.21 C43.01 703.36 72.4 614.76 109.25 418.81 C109.37 417.51 109.37 417.51 109.5 416.17 C109.74 413.64 109.97 411.11 110.2 408.58 C110.27 407.87 110.34 407.15 110.4 406.41 C111.65 392.27 112.17 378.18 112.2 363.99 C112.21 362.75 112.21 362.75 112.21 361.48 C112.23 357.07 112.24 352.66 112.24 348.25 C112.24 344.71 112.26 341.16 112.28 337.62 C112.44 312.26 111.42 287.24 109 262 C108.9 260.92 108.8 259.84 108.69 258.72 C108.15 253.22 107.53 247.73 106.81 242.25 C106.71 241.45 106.61 240.66 106.5 239.84 C102.75 210.78 97.03 182.18 90 153.75 C89.76 152.77 89.52 151.8 89.28 150.79 C84.7 132.24 79.32 113.55 70.81 96.38 C70.13 94.98 70.13 94.98 69.43 93.55 C61.63 77.91 52.25 63.36 41 50 C40.28 49.13 40.28 49.13 39.54 48.23 C21.2 26.11 -0.1 8.33 -25 -6 C-25.62 -6.36 -26.24 -6.73 -26.88 -7.1 C-86.1 -41.71 -162.4 -39.75 -222.29 -7.91 Z M-43.84 821.39 C-48.37 826.6 -53.52 830.82 -59 835 C-60.42 836.12 -61.84 837.25 -63.27 838.37 C-79.07 850.6 -95.65 861.13 -113 871 C-109.54 874.86 -105.58 877.35 -101.19 880 C-100.4 880.47 -99.62 880.95 -98.8 881.44 C-57.46 906.08 -11.75 920.46 36 926 C37.11 926.13 37.11 926.13 38.24 926.26 C54.86 928.16 71.42 928.4 88.12 928.38 C88.8 928.37 89.48 928.37 90.18 928.37 C135.92 928.35 202.74 927.34 238.06 893.44 C242.53 888.64 245.09 884.9 245.44 878.25 C244.93 864.59 235.29 853.61 225.88 844.54 C215.57 835.46 204.17 828.29 192 822 C191.39 821.68 190.77 821.36 190.14 821.03 C182.83 817.28 175.38 814.28 167.56 811.75 C166.85 811.52 166.13 811.28 165.4 811.04 C151.33 806.7 137.76 805.52 123.12 805.69 C121.38 805.7 119.64 805.7 117.89 805.71 C108.74 805.78 99.68 806.12 90.56 807 C64.63 809.45 37.79 809.26 11.88 806.69 C10.64 806.57 9.41 806.46 8.15 806.34 C2.59 805.75 -2.58 804.93 -7.93 803.29 C-25.47 798.31 -33.18 808.96 -43.84 821.39 Z " fill="#000100" transform="translate(1027,40)"/>
<path d="M0 0 C2.46 2.25 4.88 4.55 7.29 6.84 C8.07 7.56 8.85 8.28 9.65 9.01 C30.5 28.75 42.89 56.34 44.58 84.88 C45.22 113.01 36 139.11 18.29 160.84 C17.68 161.62 17.07 162.4 16.43 163.2 C12.56 167.87 8.22 171.71 3.48 175.47 C2.93 175.9 2.39 176.33 1.83 176.78 C-0.85 178.84 -3.36 180.68 -6.42 182.16 C-10.76 184.39 -14.03 186.09 -15.84 190.77 C-16.39 194.44 -16.6 198.01 -16.7 201.72 C-16.78 203.11 -16.86 204.5 -16.95 205.89 C-17.13 208.85 -17.27 211.81 -17.39 214.78 C-17.58 219.45 -17.84 224.12 -18.12 228.79 C-18.4 233.55 -18.67 238.31 -18.93 243.07 C-19.69 257.34 -20.85 271.56 -22.21 285.78 C-22.31 286.88 -22.42 287.98 -22.52 289.11 C-31.01 378.61 -31.01 378.61 -42.15 389.15 C-44.71 390.84 -44.71 390.84 -48.21 391.09 C-52.41 389.59 -53.47 388.4 -55.53 384.56 C-74.6 340.73 -74.83 284.72 -79.71 237.84 C-79.89 236.1 -80.07 234.36 -80.26 232.62 C-80.71 228.28 -81.15 223.94 -81.58 219.59 C-81.7 218.41 -81.83 217.22 -81.95 216 C-82.56 209.59 -82.86 203.28 -82.71 196.84 C-83.34 196.74 -83.98 196.64 -84.63 196.54 C-99.96 193.97 -113.92 186.83 -125.71 176.84 C-126.9 175.86 -126.9 175.86 -128.1 174.86 C-137.77 166.53 -146.05 156.72 -152.71 145.84 C-154.66 148.28 -156.61 150.72 -158.53 153.17 C-173.51 172.16 -189.11 185.16 -211.71 193.84 C-213.38 194.51 -215.04 195.18 -216.71 195.84 C-216.75 196.75 -216.79 197.65 -216.83 198.58 C-223.05 334.21 -223.05 334.21 -231.21 369.91 C-231.4 370.74 -231.59 371.57 -231.78 372.43 C-233.23 378.19 -235.45 382.59 -239.71 386.84 C-242.46 387.41 -242.46 387.41 -245.71 386.84 C-250.31 382.86 -252.93 377.98 -254.71 372.22 C-254.95 371.45 -255.2 370.69 -255.45 369.9 C-270.41 320.56 -274.14 266.28 -280.15 215.34 C-280.28 214.23 -280.41 213.12 -280.55 211.97 C-280.92 208.83 -281.28 205.7 -281.64 202.56 C-281.75 201.63 -281.86 200.7 -281.97 199.75 C-282.07 198.89 -282.17 198.04 -282.27 197.16 C-282.36 196.41 -282.44 195.67 -282.53 194.91 C-282.71 192.9 -282.71 190.87 -282.71 188.84 C-283.96 188.48 -283.96 188.48 -285.24 188.11 C-309.74 179.16 -327.92 156.1 -338.66 133.28 C-348.34 110.84 -348.84 85.02 -339.98 62.3 C-330.8 39.97 -315.23 20.24 -296.71 4.84 C-295.77 4.01 -294.83 3.18 -293.85 2.33 C-285.94 -4.62 -277.63 -10.57 -268.71 -16.16 C-268.09 -16.55 -267.46 -16.95 -266.82 -17.35 C-184.06 -69.48 -74.72 -67.07 0 0 Z M-239.71 -23.16 C-240.8 -22.62 -240.8 -22.62 -241.92 -22.08 C-263.74 -11.33 -283.14 3.11 -300.71 19.84 C-301.5 20.58 -302.29 21.32 -303.1 22.08 C-321.39 39.62 -337.02 65.4 -337.91 91.19 C-338.33 116.07 -330.17 139.52 -312.86 157.7 C-311.49 159.1 -310.1 160.47 -308.71 161.84 C-307.9 162.66 -307.08 163.47 -306.24 164.31 C-287.36 182.24 -261.74 190.73 -235.98 190.09 C-213.21 189.06 -193.76 178.45 -177.71 162.84 C-177.03 162.22 -176.34 161.6 -175.64 160.96 C-169.62 155.32 -165.23 148.68 -160.71 141.84 C-160.08 140.91 -159.45 139.97 -158.81 139.01 C-157.43 136.96 -156.07 134.91 -154.71 132.84 C-152.48 132.92 -152.48 132.92 -149.71 133.84 C-148.07 136.14 -146.77 138.25 -145.46 140.72 C-132.52 163.56 -112.43 180.87 -86.99 188.07 C-61.21 194.18 -35.52 190.05 -12.71 176.84 C11.42 161.3 27.35 139.17 33.88 111.33 C39.67 83 33.88 55.82 18.13 31.87 C-5.37 -2.36 -44.76 -24.25 -83.71 -36.16 C-84.56 -36.42 -85.41 -36.69 -86.29 -36.96 C-139.27 -53.23 -190.15 -47.6 -239.71 -23.16 Z M-35.9 194.77 C-45.02 197.34 -53.95 198.19 -63.4 198.47 C-64.49 198.51 -65.59 198.55 -66.72 198.59 C-69.38 198.68 -72.04 198.77 -74.71 198.84 C-70.62 292.2 -70.62 292.2 -47.71 381.84 C-45.37 380.96 -45.37 380.96 -44.6 377.86 C-30.98 331.99 -29.92 281.69 -26.33 234.22 C-26.23 232.89 -26.23 232.89 -26.13 231.53 C-25.68 225.6 -25.25 219.67 -24.81 213.74 C-24.73 212.59 -24.73 212.59 -24.64 211.4 C-24.48 209.23 -24.32 207.06 -24.17 204.89 C-24.08 203.67 -23.99 202.45 -23.9 201.19 C-23.72 198.06 -23.67 194.97 -23.71 191.84 C-28.06 191.84 -31.79 193.41 -35.9 194.77 Z M-273.71 192.84 C-273.15 202.57 -272.3 212.2 -271.07 221.87 C-270.91 223.16 -270.75 224.45 -270.59 225.77 C-270.16 229.21 -269.73 232.65 -269.29 236.09 C-269.02 238.24 -268.75 240.38 -268.48 242.53 C-261.25 300.49 -261.25 300.49 -250.08 357.78 C-249.9 358.57 -249.72 359.37 -249.53 360.18 C-248.12 365.96 -246.03 371.37 -243.71 376.84 C-243.05 376.84 -242.39 376.84 -241.71 376.84 C-228.35 331.09 -228.83 279.38 -226.52 232.03 C-226.48 231.17 -226.44 230.31 -226.39 229.43 C-225.86 218.56 -225.6 207.73 -225.71 196.84 C-226.44 196.86 -227.18 196.88 -227.93 196.89 C-241.9 197.15 -255.1 197.22 -268.71 193.84 C-270.38 193.51 -272.04 193.17 -273.71 192.84 Z " fill="#000100" transform="translate(1056.709716796875,234.1552734375)"/>
<path d="M0 0 C2.5 2.62 2.5 2.62 3.62 5.56 C3.41 10.89 0.26 14.08 -3.44 17.62 C-8.53 21.77 -14.44 24.21 -20.5 26.62 C-22.04 27.25 -22.04 27.25 -23.61 27.89 C-40.64 33.79 -60.77 32.23 -77.09 25.05 C-83.18 22.01 -89.2 18.84 -92.5 12.62 C-93.19 9.5 -93.19 9.5 -92.5 6.62 C-86.76 -0.68 -78.08 -3.68 -69.5 -6.38 C-68.56 -6.68 -67.63 -6.98 -66.66 -7.29 C-46.68 -12.65 -17.32 -12.72 0 0 Z " fill="#000100" transform="translate(952.5,209.375)"/>
<path d="M0 0 C5.1 4.01 8.19 8.8 9.39 15.19 C9.89 22.27 7.41 27.4 2.94 32.8 C-1.53 36.84 -7.17 38.03 -13.06 37.8 C-20.11 36.68 -23.97 32.39 -28.06 26.8 C-30.39 22.13 -29.76 15.37 -28.41 10.45 C-25.64 4.33 -21.09 0.42 -15.25 -2.7 C-9.83 -3.54 -4.78 -2.77 0 0 Z " fill="#000100" transform="translate(733.05859375,174.1953125)"/>
<path d="M0 0 C4.61 3.03 8.4 7.16 10.15 12.41 C10.63 18.72 9.59 23.5 5.53 28.34 C1.84 32.16 -1.14 35.08 -6.59 35.75 C-13.16 35.83 -18.62 35.7 -23.85 31.41 C-28.25 26.95 -30.25 22.68 -30.6 16.41 C-30.25 10.15 -28.26 5.85 -23.85 1.41 C-16.51 -4.27 -8.1 -3.96 0 0 Z " fill="#000100" transform="translate(1080.8515625,172.58984375)"/>
<path d="M0 0 C3.62 2.77 5.71 5.59 6.62 10.06 C5.56 15.09 3.23 18.18 -1 21 C-5.69 21.77 -9.2 21.41 -13.44 19.25 C-17.28 15.88 -17.28 15.88 -18 13 C-18 6.22 -18 6.22 -15.7 3.41 C-10.82 -0.76 -6.15 -2.07 0 0 Z " fill="#000100" transform="translate(1035,272)"/>
<path d="M0 0 C3.9 2.93 5.76 5.78 6.69 10.56 C5.78 15.09 4.25 16.75 1 20 C-2.47 21.73 -6.21 21.48 -10 21 C-15.46 18.07 -15.46 18.07 -17 15 C-17.54 10.49 -17.6 7.05 -15.31 3.06 C-10.71 -1.05 -5.93 -2.16 0 0 Z " fill="#000100" transform="translate(797,345)"/>
<path d="M0 0 C2.76 1.82 4.52 3.04 6 6 C6.68 11.86 6.68 11.86 4.95 14.76 C2.59 17.64 0.78 19.76 -2.99 20.27 C-7.48 20.47 -9.35 20.51 -13 17.62 C-15.91 13.81 -16.46 11.81 -16 7 C-14.38 3.99 -12.9 1.74 -10.25 -0.44 C-6.72 -1.32 -3.46 -0.97 0 0 Z " fill="#000100" transform="translate(1036,350)"/>
<path d="M0 0 C2.87 2.45 4.61 4.25 5.44 8 C5.66 11.69 5.11 13.83 3.12 16.94 C-0.34 20.3 -2.99 20.41 -7.67 20.34 C-11.79 19.74 -13.3 18.17 -16 15 C-17.2 11.04 -17.47 9.04 -15.75 5.25 C-11.32 -0.45 -7.28 -2.26 0 0 Z " fill="#000100" transform="translate(795,268)"/>
<path d="M0 0 C2.71 1.82 4.54 3.07 6 6 C6.43 9.87 6.32 11.52 4.12 14.81 C1.25 17.77 0.46 17.95 -3.75 18.38 C-6.97 18.33 -8.86 17.82 -11.44 15.88 C-14.29 12.68 -15.09 11.26 -15 7 C-13.69 3.88 -12.34 2.28 -9.75 0.12 C-6.02 -1.4 -3.86 -1.03 0 0 Z " fill="#000100" transform="translate(1066,314)"/>
<path d="M0 0 C3.19 0.64 4.96 2.1 7.16 4.43 C8.73 7.57 8.51 9.97 8.16 13.43 C5.92 16.37 4.18 18 0.78 19.43 C-3.79 19.43 -7.42 17.72 -10.78 14.68 C-12.36 11.35 -12.35 9.07 -11.84 5.43 C-8.61 0.54 -5.58 -0.31 0 0 Z " fill="#000100" transform="translate(755.84375,309.56640625)"/>
<path d="M0 0 C6.04 0.39 11.67 2.1 17 5 C19.12 7.75 19.12 7.75 20 10 C19.01 11.48 19.01 11.48 18 13 C11.04 12.48 3.11 11.11 -2 6 C-1.44 1.44 -1.44 1.44 0 0 Z " fill="#000100" transform="translate(264,1074)"/>
<path d="M0 0 C6.46 0.14 12.11 2.77 17 7 C17.91 9.58 17.91 9.58 18 12 C17.34 12.66 16.68 13.32 16 14 C11.1 13.73 7.76 11.97 3.62 9.44 C2.57 8.8 1.51 8.16 0.41 7.5 C-0.78 6.76 -0.78 6.76 -2 6 C-1.12 1.12 -1.12 1.12 0 0 Z " fill="#000100" transform="translate(230,1056)"/>
<path d="M0 0 C13.11 4.11 13.11 4.11 17 8 C16.88 10 16.88 10 16 12 C14.39 13.29 14.39 13.29 12 14 C9.4 13.29 7.24 12.52 4.81 11.44 C4.17 11.18 3.53 10.93 2.87 10.67 C-0.17 9.36 -1.75 8.56 -3.11 5.47 C-3 3 -3 3 -1.56 1.19 C-1.05 0.8 -0.53 0.4 0 0 Z " fill="#000100" transform="translate(253,1024)"/>
<path d="M0 0 C3.77 0.55 5.23 1.99 7.62 4.88 C8.22 5.57 8.81 6.27 9.41 6.99 C11 9 11 9 13 12 C12.62 14.69 12.62 14.69 12 17 C9.76 17.76 9.76 17.76 7 18 C4.83 16.3 4.83 16.3 2.81 13.88 C1.8 12.7 1.8 12.7 0.77 11.49 C-0.99 9.02 -2.16 6.92 -3 4 C-1.62 1.69 -1.62 1.69 0 0 Z " fill="#000100" transform="translate(217,1100)"/>
<path d="M0 0 C3.12 1.64 4.18 3.16 5.96 6.18 C6.48 7.03 7.01 7.88 7.55 8.76 C8.76 11.79 8.52 13.29 7.59 16.36 C5.94 16.69 4.29 17.02 2.59 17.36 C-5.52 7.81 -5.52 7.81 -5.29 2.49 C-4.03 -0.58 -3.18 -0.84 0 0 Z " fill="#000100" transform="translate(186.4140625,1007.63671875)"/>
<path d="M0 0 C5.87 0.39 10.87 1.01 16 4 C17.06 6.56 17.06 6.56 17 9 C15 11 15 11 13.08 11.08 C7.89 10.46 3.59 9.58 -1 7 C-2.06 5 -2.06 5 -2 3 C-1.34 2.01 -0.68 1.02 0 0 Z " fill="#000100" transform="translate(287,1037)"/>
<path d="M0 0 C3.42 0.47 4.53 1.64 6.89 4.11 C7.92 5.15 7.92 5.15 8.97 6.22 C10.65 8.37 11.36 9.67 11.64 12.36 C10.52 14.17 10.52 14.17 8.64 15.36 C5.67 15.52 4.11 14.73 1.8 12.9 C-1.01 10.26 -3.05 8.18 -4.42 4.55 C-4.33 1.27 -3.15 0.48 0 0 Z " fill="#000100" transform="translate(205.359375,1033.640625)"/>
<path d="M0 0 C2.69 0.88 2.69 0.88 5 2 C5.22 4.1 5.43 6.21 5.62 8.31 C5.74 9.48 5.86 10.66 5.98 11.86 C6 15 6 15 4 18 C1.5 18.38 1.5 18.38 -1 18 C-3.38 14.43 -3.3 12.67 -3.31 8.44 C-3.33 7.28 -3.35 6.12 -3.36 4.93 C-3.24 3.97 -3.12 3 -3 2 C-2.01 1.34 -1.02 0.68 0 0 Z " fill="#000100" transform="translate(114,1096)"/>
<path d="M0 0 C3.34 0.41 4.82 1.54 7.42 3.64 C8.2 4.26 8.98 4.87 9.78 5.51 C11.67 7.33 11.67 7.33 12.67 10.33 C12.34 11.32 12.01 12.31 11.67 13.33 C8.47 14.36 7.12 14.55 4.03 13.07 C3.17 12.46 2.31 11.84 1.42 11.21 C0.55 10.61 -0.32 10.01 -1.22 9.39 C-3.66 7.01 -4.22 5.72 -4.33 2.33 C-2.33 0.33 -2.33 0.33 0 0 Z " fill="#000100" transform="translate(227.328125,1008.66796875)"/>
<path d="M0 0 C1.94 1 1.94 1 3.19 3.56 C4.14 7.94 5.01 12.85 2.94 17 C1.06 17.75 1.06 17.75 -1.06 18 C-4.06 16 -4.06 16 -4.73 14.2 C-5.1 11.74 -5.27 9.36 -5.31 6.88 C-5.34 6.01 -5.36 5.14 -5.39 4.24 C-5.28 3.5 -5.17 2.76 -5.06 2 C-2.06 0 -2.06 0 0 0 Z " fill="#000100" transform="translate(119.0625,1124)"/>
<path d="M0 0 C3.85 2.29 5.15 5.42 6.62 9.56 C7 12.44 7 12.44 6.62 14.56 C5.97 15.22 5.31 15.88 4.62 16.56 C2.18 16.48 2.18 16.48 -0.38 15.56 C-1.99 13.45 -1.99 13.45 -3.25 10.81 C-3.68 9.95 -4.11 9.09 -4.55 8.2 C-5.49 5.18 -5.39 3.54 -4.38 0.56 C-2.38 -0.44 -2.38 -0.44 0 0 Z " fill="#000100" transform="translate(169.375,1118.4375)"/>
<path d="M0 0 C4.71 0.71 4.71 0.71 6 2 C5.96 7.13 5.47 12.03 2 16 C-0.56 16.94 -0.56 16.94 -3 17 C-3.66 16.34 -4.32 15.68 -5 15 C-4.68 10.52 -3.28 3.28 0 0 Z " fill="#000100" transform="translate(34,988)"/>
<path d="M0 0 C4.31 1.63 6.72 5.02 8.81 9.06 C9.11 11.7 9.11 11.7 8.81 14.06 C8.15 14.72 7.49 15.38 6.81 16.06 C3.61 15.92 2.23 15.49 -0.02 13.17 C-0.53 12.39 -1.04 11.61 -1.56 10.81 C-2.09 10.04 -2.61 9.28 -3.15 8.48 C-4.41 5.54 -4.15 4.08 -3.19 1.06 C-2.19 0.06 -2.19 0.06 0 0 Z " fill="#000100" transform="translate(209.1875,988.9375)"/>
<path d="M0 0 C2.38 0.31 2.38 0.31 5 1 C7 4 7 4 6.61 6.63 C6.33 7.6 6.04 8.57 5.75 9.56 C5.34 11.02 5.34 11.02 4.92 12.5 C4 15 4 15 2 17 C-0.93 16.63 -1.86 16.14 -4 14 C-3.83 11.5 -3.83 11.5 -3.25 8.56 C-3.07 7.59 -2.89 6.63 -2.7 5.63 C-2 3 -2 3 0 0 Z " fill="#000100" transform="translate(48,1061)"/>
<path d="M0 0 C3.16 0.23 4.61 0.61 6.87 2.89 C7.65 4.06 7.65 4.06 8.44 5.25 C8.97 6.02 9.51 6.79 10.06 7.58 C11 10 11 10 10.16 12.8 C9.78 13.52 9.39 14.25 9 15 C6.71 15.26 6.71 15.26 4 15 C2.16 13.21 2.16 13.21 0.62 10.81 C0.1 10.04 -0.42 9.26 -0.96 8.46 C-2.22 5.49 -1.97 4.03 -1 1 C-0.67 0.67 -0.34 0.34 0 0 Z " fill="#000100" transform="translate(199,1076)"/>
<path d="M0 0 C3.37 1.49 4.41 3.75 6.12 6.94 C7 10.69 7 10.69 7.12 13.94 C6.47 14.6 5.81 15.26 5.12 15.94 C2.68 15.86 2.68 15.86 0.12 14.94 C-1.49 12.79 -1.49 12.79 -2.75 10.12 C-3.18 9.25 -3.61 8.38 -4.05 7.48 C-4.94 4.74 -5.02 3.55 -3.88 0.94 C-1.88 -0.06 -1.88 -0.06 0 0 Z " fill="#000100" transform="translate(149.875,992.0625)"/>
<path d="M0 0 C3.29 1.56 4.75 2.47 6.31 5.81 C7.01 9.03 7.3 11.72 7 15 C5 17 5 17 2.56 17.06 C0 16 0 16 -1.81 12.88 C-3.14 9.19 -3.46 5.92 -3 2 C-2.01 1.34 -1.02 0.68 0 0 Z " fill="#000100" transform="translate(170,981)"/>
<path d="M0 0 C2.44 0 2.44 0 5 1 C7.97 5.3 8.5 8.85 8 14 C6 16 6 16 3.56 16.12 C0.53 14.8 0.36 14.22 -0.81 11.25 C-1.81 8.09 -2.49 5.32 -2 2 C-1.34 1.34 -0.68 0.68 0 0 Z " fill="#000100" transform="translate(131,1032)"/>
<path d="M0 0 C2.68 1.2 3.4 2.58 4.8 5.14 C5.24 5.91 5.68 6.68 6.13 7.47 C7.15 10.36 6.83 11.98 5.99 14.89 C4.3 15.7 4.3 15.7 1.99 15.89 C-2.07 12.51 -4.7 9.54 -5.32 4.27 C-5.22 3.48 -5.12 2.7 -5.01 1.89 C-2.01 -0.11 -2.01 -0.11 0 0 Z " fill="#000100" transform="translate(178.01171875,1048.109375)"/>
<path d="M0 0 C3.03 1.33 3.2 1.91 4.38 4.88 C5.37 8.03 6.05 10.8 5.56 14.12 C3.56 16.12 3.56 16.12 1.12 16.19 C-1.44 15.12 -1.44 15.12 -3.25 11.94 C-4.37 8.34 -4.87 5.84 -4.44 2.12 C-2.44 0.12 -2.44 0.12 0 0 Z " fill="#000100" transform="translate(158.4375,1091.875)"/>
<path d="M0 0 C2.83 1.31 3.5 2.97 4.87 5.74 C5.32 6.61 5.77 7.48 6.23 8.38 C6.99 10.93 6.99 10.93 6.26 13.2 C4.99 14.93 4.99 14.93 2.87 15.68 C1.94 15.8 1.94 15.8 0.99 15.93 C-4.76 9.03 -4.76 9.03 -5.32 4.3 C-5.22 3.52 -5.11 2.73 -5.01 1.93 C-2.01 -0.07 -2.01 -0.07 0 0 Z " fill="#000100" transform="translate(145.0078125,1062.07421875)"/>
<path d="M0 0 C4.88 0.88 4.88 0.88 6 2 C5.96 7.32 5.23 11.64 2 16 C-2.88 15.12 -2.88 15.12 -4 14 C-3.98 11.86 -3.98 11.86 -3.75 9.19 C-3.68 8.31 -3.62 7.44 -3.55 6.54 C-2.93 3.69 -1.9 2.19 0 0 Z " fill="#000100" transform="translate(24,1052)"/>
<path d="M0 0 C3.62 1.47 4.36 3.51 5.91 6.99 C6.77 9.47 7.02 11.46 6.62 14.06 C5.62 15.06 5.62 15.06 2.56 15.12 C1.59 15.1 0.62 15.08 -0.38 15.06 C-3.09 10.29 -4.94 6.72 -4.38 1.06 C-2.38 0.06 -2.38 0.06 0 0 Z " fill="#000100" transform="translate(162.375,1021.9375)"/>
<path d="M0 0 C2.38 -0.12 2.38 -0.12 5 0 C7 2 7 2 7.27 4.75 C7.26 5.82 7.26 6.89 7.25 8 C7.26 9.07 7.26 10.14 7.27 11.25 C7 14 7 14 5 16 C2.38 15.62 2.38 15.62 0 15 C-2.28 5.98 -2.28 5.98 -1.12 1.88 C-0.75 1.26 -0.38 0.64 0 0 Z " fill="#000100" transform="translate(125,1001)"/>
<path d="M0 0 C0.78 0.04 1.57 0.08 2.38 0.12 C4 3.03 4.72 5.44 5.06 8.75 C5.15 9.53 5.24 10.3 5.32 11.1 C5.38 13.12 5.38 13.12 4.38 15.12 C2.56 16 2.56 16 0.38 16.12 C-1.81 14.81 -1.81 14.81 -3.62 12.12 C-4.37 8.8 -4.8 5.54 -4.62 2.12 C-2.62 0.12 -2.62 0.12 0 0 Z " fill="#000100" transform="translate(111.625,1066.875)"/>
<path d="M0 0 C2.47 0.99 2.47 0.99 5 2 C5.08 3.94 5.14 5.87 5.19 7.81 C5.22 8.89 5.26 9.97 5.29 11.08 C5 14 5 14 3.49 15.89 C3 16.25 2.51 16.62 2 17 C-0.47 16.01 -0.47 16.01 -3 15 C-3.08 13.06 -3.14 11.13 -3.19 9.19 C-3.22 8.11 -3.26 7.03 -3.29 5.92 C-3 3 -3 3 -1.49 1.11 C-1 0.75 -0.51 0.38 0 0 Z " fill="#000100" transform="translate(79,1031)"/>
<path d="M0 0 C2.44 0.19 2.44 0.19 3.44 1.19 C3.59 2.95 3.66 4.73 3.69 6.5 C3.73 7.95 3.73 7.95 3.77 9.43 C3.39 12.56 2.52 13.88 0.44 16.19 C-4.26 14.74 -4.26 14.74 -5.44 12.56 C-5.63 8.96 -5.2 5.75 -4.56 2.19 C-2.56 0.19 -2.56 0.19 0 0 Z " fill="#000100" transform="translate(78.5625,1094.8125)"/>
<path d="M0 0 C3.74 1.47 3.74 1.47 5 4 C5.07 5.71 5.08 7.42 5.06 9.12 C5.05 10.04 5.04 10.95 5.04 11.88 C5.02 12.58 5.01 13.28 5 14 C2.69 15.12 2.69 15.12 0 16 C-3 14 -3 14 -3.58 11.98 C-3.66 11.2 -3.73 10.42 -3.81 9.62 C-3.9 8.85 -3.99 8.08 -4.08 7.29 C-3.99 4.66 -3.41 3.2 -2 1 C-1.34 0.67 -0.68 0.34 0 0 Z " fill="#000100" transform="translate(78,1065)"/>
<path d="M0 0 C2.69 0.88 2.69 0.88 5 2 C5.05 3.96 5.09 5.92 5.12 7.88 C5.15 8.97 5.17 10.06 5.2 11.18 C5 14 5 14 3 16 C0.44 16.19 0.44 16.19 -2 16 C-3.88 14.12 -3.22 11.07 -3.25 8.56 C-3.28 7.39 -3.3 6.21 -3.33 5 C-3.22 4.01 -3.11 3.02 -3 2 C-2.01 1.34 -1.02 0.68 0 0 Z " fill="#000100" transform="translate(106,1034)"/>
<path d="M0 0 C1 1 1 1 1.1 3.72 C1.09 4.82 1.07 5.93 1.06 7.06 C1.05 8.17 1.04 9.27 1.04 10.41 C1.02 11.26 1.01 12.12 1 13 C-0.98 13.99 -0.98 13.99 -3 15 C-4.98 13.89 -4.98 13.89 -7 12 C-7.39 9.08 -7.39 9.08 -7.25 5.81 C-7.21 4.73 -7.18 3.64 -7.14 2.52 C-7.09 1.69 -7.05 0.86 -7 0 C-4.32 -1.34 -2.85 -0.73 0 0 Z " fill="#000100" transform="translate(107,1005)"/>
<path d="M0 0 C3.68 1.46 4.46 3.47 6.04 6.98 C6.87 9.65 6.66 11.47 5.69 14.06 C3.94 14.81 3.94 14.81 1.69 15.06 C-1.57 12.57 -3.25 10.01 -4.31 6.06 C-3.63 0.1 -3.63 0.1 0 0 Z " fill="#000100" transform="translate(194.3125,966.9375)"/>
<path d="M0 0 C4.88 0.88 4.88 0.88 6 2 C5.96 3.82 5.85 5.63 5.69 7.44 C5.57 8.92 5.57 8.92 5.45 10.43 C5 13 5 13 3 15 C-1.56 14.44 -1.56 14.44 -3 13 C-3.36 7.6 -3.36 4.48 0 0 Z " fill="#000100" transform="translate(51,1031)"/>
<path d="M0 0 C1.65 0.33 3.3 0.66 5 1 C6.49 5.32 5.53 8.2 4.08 12.33 C3 14 3 14 1.07 14.86 C-1 15 -1 15 -4 13 C-3.41 3.41 -3.41 3.41 0 0 Z " fill="#000100" transform="translate(40,1110)"/>
<path d="M0 0 C4.56 0.56 4.56 0.56 6 2 C6.12 3.81 6.18 5.62 6.19 7.44 C6.2 8.43 6.22 9.41 6.23 10.43 C6 13 6 13 4 15 C0.88 14.62 0.88 14.62 -2 14 C-2.05 12.04 -2.09 10.08 -2.12 8.12 C-2.15 7.03 -2.17 5.94 -2.2 4.82 C-2 2 -2 2 0 0 Z " fill="#000100" transform="translate(42,1089)"/>
<path d="M0 0 C4.88 0.88 4.88 0.88 6 2 C6.41 7.25 5.66 10.46 3 15 C-1.88 14.12 -1.88 14.12 -3 13 C-3.41 7.75 -2.66 4.54 0 0 Z " fill="#000100" transform="translate(54,999)"/>
<path d="M0 0 C1.94 0.88 1.94 0.88 3.94 3.88 C4.39 10.2 4.39 10.2 1.94 13.88 C-0.56 14.25 -0.56 14.25 -3.06 13.88 C-5.6 10.08 -5.66 7.33 -5.06 2.88 C-3.53 0.34 -2.96 -0.18 0 0 Z " fill="#000100" transform="translate(79.0625,1122.125)"/>
<path d="M0 0 C0.9 0.53 0.9 0.53 1.81 1.06 C2.29 9.26 2.29 9.26 0.31 12.62 C-0.18 13.1 -0.68 13.57 -1.19 14.06 C-4.05 13.49 -5.05 13.2 -7.19 11.06 C-7.2 8.97 -7.2 8.97 -6.88 6.56 C-6.78 5.77 -6.68 4.97 -6.57 4.16 C-6.19 2.06 -6.19 2.06 -5.19 0.06 C-2.19 -0.94 -2.19 -0.94 0 0 Z " fill="#000100" transform="translate(80.1875,1004.9375)"/>
<path d="M0 0 C2.38 0.31 2.38 0.31 3.38 1.31 C3.32 3.31 3.32 3.31 3.06 5.75 C2.98 6.55 2.91 7.36 2.82 8.18 C2.38 10.31 2.38 10.31 0.38 12.31 C-2.19 12.5 -2.19 12.5 -4.62 12.31 C-5.62 11.31 -5.62 11.31 -5.88 8 C-5.62 4.31 -5.62 4.31 -4.44 1.88 C-2.62 0.31 -2.62 0.31 0 0 Z " fill="#000100" transform="translate(29.625,1023.6875)"/>
<path d="M0 0 C1.14 0.34 1.14 0.34 2.31 0.69 C3 2.31 3 2.31 3.31 4.69 C1.88 7.94 1.88 7.94 0.31 10.69 C-2.06 10.81 -2.06 10.81 -4.69 10.69 C-5.35 10.03 -6.01 9.37 -6.69 8.69 C-6.49 5.58 -6.14 3.38 -4.44 0.75 C-2.69 -0.31 -2.69 -0.31 0 0 Z " fill="#000100" transform="translate(23.6875,1078.3125)"/>
</g>
</svg>
