<?xml version="1.0" encoding="UTF-8"?>
<!-- Generator: visioncortex VTracer 0.6.3 -->
<svg version="1.1" xmlns="http://www.w3.org/2000/svg" width="1280" height="1280">
<path d="M0 0 C2.86 1.01 4.22 0.14 6.93 -1.11 C16.52 -5.45 23.88 -4.77 33.71 -1.56 C44.84 2.72 54.77 10.45 61 20.7 C61 21.36 61 22.02 61 22.7 C62.51 22.46 62.51 22.46 64.06 22.2 C81.52 20.17 95.75 22.8 110 33.7 C116.53 39.03 122.65 46.65 124.84 54.86 C125.75 57.9 125.75 57.9 128.57 59.32 C129.6 59.74 130.63 60.15 131.68 60.58 C139.73 64.26 144.63 69.46 148 77.7 C149.17 81.18 148.77 83.9 148.37 87.52 C148.21 90.72 148.21 90.72 149 93.7 C151.48 96.03 154.03 97.41 157.03 99 C164.55 103.32 170.17 111.23 172.52 119.56 C172.99 121.68 173.2 123.65 173.31 125.81 C173.38 126.94 173.38 126.94 173.44 128.1 C173.48 128.87 173.52 129.65 173.56 130.45 C173.62 131.64 173.62 131.64 173.69 132.86 C173.8 134.8 173.9 136.75 174 138.7 C174.61 138.95 175.23 139.2 175.86 139.46 C178.38 140.93 178.92 142.05 180.18 144.64 C182.71 148.97 185.02 149.71 189.72 150.95 C195.36 152.82 198.82 156.91 201.43 162.08 C201.95 163.27 202.46 164.47 203 165.7 C203.5 165.29 204.01 164.88 204.54 164.46 C210.69 159.65 215.76 157.17 223.69 157.39 C229.16 158.13 233.43 160.58 236.93 164.83 C240.05 169.76 240.6 175.18 239.62 180.88 C237.9 186.43 234.29 189.93 230 193.7 C230.67 194.06 231.35 194.41 232.04 194.77 C237.95 198.04 241.57 200.31 244 206.7 C244.58 211.85 244.17 214.39 241.87 218.95 C240.93 221.23 240.93 221.23 241 223.7 C242.89 226.88 245.27 229.45 247.78 232.13 C251.56 236.2 254.71 240.69 257.93 245.2 C263.51 252.89 269.36 259.91 276 266.7 C276.64 267.4 277.29 268.1 277.96 268.82 C281.92 272.99 286.21 276.51 290.75 280.02 C304.52 290.67 318.96 302.18 321.38 320.6 C321.59 325.66 321.29 329.94 318.39 334.21 C313.12 339.86 306.16 342.2 298.62 343.11 C281.85 343.54 265.28 338.33 250 331.7 C250.05 332.61 250.05 332.61 250.1 333.54 C250.35 341.15 249.55 348.25 244.92 354.51 C242.65 358.28 242.45 361.3 242.43 365.58 C242.04 376.34 239.38 382.76 232 390.7 C227.95 394.31 224.09 396.81 219 398.7 C219.04 399.59 219.09 400.47 219.14 401.38 C219.5 413.42 217.53 421.8 209.3 430.77 C206.79 432.88 204.53 433.71 201.5 434.89 C198.77 436.12 198.77 436.12 197 438.7 C196.05 444.22 196.57 449.77 196.94 455.32 C197.25 461.61 195.64 465.99 192.37 471.39 C188.01 475.63 182.58 478.1 177 480.39 C173.9 481.36 173.9 481.36 173 483.7 C172.73 485.7 172.48 487.7 172.25 489.7 C170.81 499.11 167.72 506.3 160.15 512.3 C153.07 516.91 145.25 517.3 137 517.7 C136.64 518.68 136.29 519.66 135.93 520.67 C133.22 527.96 130.58 534.09 125.32 539.97 C123.69 541.74 123.69 541.74 124 544.7 C125.53 546.11 125.53 546.11 127.56 547.39 C136.56 553.86 141.77 561.66 144.25 572.45 C146.77 588.86 145.55 605.51 139.3 620.93 C137.89 624.96 137.89 624.96 139 628.7 C140.64 630.41 140.64 630.41 142.68 631.95 C153.29 640.89 159.58 653.91 161 667.7 C161.99 684.05 161.47 699.39 155.25 714.7 C153.28 719.59 152.27 722.54 154 727.7 C155.2 730.42 156.45 733.12 157.72 735.8 C165.79 754.18 164.16 775.22 157.61 793.76 C153.64 803.84 148.47 813.77 141.31 821.94 C139.82 823.94 139.39 825.25 139 827.7 C139.36 829.71 139.36 829.71 140.14 831.71 C140.41 832.47 140.67 833.23 140.94 834.01 C141.23 834.8 141.51 835.58 141.81 836.39 C147.82 853.17 150.58 871.88 143 888.7 C139.23 896.48 133.86 902.45 128 908.7 C123.06 913.54 123.06 913.54 120.99 919.71 C121.04 920.53 121.1 921.34 121.15 922.18 C121.21 923.09 121.26 924 121.32 924.94 C121.38 925.91 121.43 926.89 121.5 927.89 C122.62 949.86 120.63 970.71 105.62 988.08 C91.25 1003 72.94 1010.39 52.68 1013.39 C51.78 1013.52 50.88 1013.66 49.95 1013.8 C45.73 1014.37 41.7 1014.78 37.44 1014.58 C30.5 1014.11 30.5 1014.11 24.49 1017.05 C21.53 1020.67 19.37 1024.71 17.14 1028.8 C14.91 1032.51 11.78 1035.43 8.71 1038.46 C4.97 1043.36 5.97 1049.76 6.31 1055.61 C6.36 1056.49 6.4 1057.37 6.45 1058.27 C6.6 1061.18 6.76 1064.08 6.92 1066.99 C7.03 1069.04 7.14 1071.1 7.25 1073.15 C7.54 1078.59 7.83 1084.03 8.13 1089.46 C8.42 1094.85 8.71 1100.23 8.99 1105.62 C9.8 1120.72 10.61 1135.82 11.46 1150.92 C11.64 1154.28 11.83 1157.65 12.02 1161.01 C12.14 1163.25 12.27 1165.48 12.4 1167.72 C15.18 1217.23 15.18 1217.23 6 1227.7 C-0.26 1232.32 -6.5 1232.12 -14 1231.7 C-16.43 1231.2 -18.64 1230.47 -21 1229.7 C-23.5 1228.95 -23.5 1228.95 -26 1229.7 C-27.89 1231.38 -29.59 1233.17 -31.31 1235.01 C-34.34 1238.04 -36.74 1238.68 -40.94 1238.77 C-46.35 1236.89 -48.7 1233.17 -51.32 1228.23 C-70.4 1183.97 -69.73 1118.7 -66.67 1071.11 C-66.58 1069.78 -66.58 1069.78 -66.5 1068.41 C-66.38 1066.74 -66.25 1065.07 -66.1 1063.41 C-65.88 1061 -65.88 1061 -66 1057.7 C-68.67 1055.5 -68.67 1055.5 -70.93 1055.77 C-73.87 1057.09 -75.19 1059.03 -77.13 1061.58 C-77.81 1062.46 -78.5 1063.35 -79.2 1064.26 C-82.34 1068.51 -83.25 1070.19 -82.69 1075.45 C-82.54 1076.96 -82.54 1076.96 -82.39 1078.5 C-82.14 1080.6 -81.83 1082.7 -81.47 1084.79 C-80.8 1090.37 -80.82 1095.9 -80.82 1101.52 C-80.8 1102.64 -80.79 1103.77 -80.78 1104.92 C-80.75 1123.23 -80.75 1123.23 -86 1129.7 C-89.42 1132.27 -92.85 1132 -97 1131.7 C-97.98 1131.2 -97.98 1131.2 -98.97 1130.68 C-102.64 1128.91 -106.14 1129.79 -110 1130.7 C-112.06 1131.52 -114.1 1132.37 -116.13 1133.27 C-120.64 1135.23 -124.02 1136.7 -129 1135.7 C-134.96 1132.15 -136.27 1128.21 -138 1121.7 C-138.69 1118.32 -139.18 1114.93 -139.63 1111.52 C-139.75 1110.6 -139.88 1109.69 -140.01 1108.75 C-140.87 1102.28 -141.46 1095.84 -141.79 1089.32 C-141.91 1086.59 -141.91 1086.59 -143 1083.7 C-144.74 1082.58 -144.74 1082.58 -146.9 1081.73 C-147.69 1081.39 -148.48 1081.05 -149.29 1080.69 C-150.13 1080.35 -150.96 1080 -151.82 1079.64 C-153.45 1078.94 -155.08 1078.24 -156.71 1077.54 C-157.44 1077.24 -158.16 1076.93 -158.91 1076.62 C-161 1075.7 -161 1075.7 -163.1 1074.58 C-166.03 1073.23 -167.92 1073.91 -171 1074.7 C-173.52 1075.76 -175.98 1076.85 -178.44 1078.02 C-197.9 1086.87 -218.97 1090 -239.44 1082.52 C-245.26 1080.18 -250.64 1077.26 -256.03 1074.06 C-260.78 1071.89 -264.22 1072.31 -269.02 1074.02 C-270.43 1074.57 -271.85 1075.13 -273.25 1075.7 C-280.79 1078.7 -280.79 1078.7 -283 1078.7 C-283.04 1079.67 -283.09 1080.65 -283.13 1081.65 C-283.74 1094.81 -285.01 1107.89 -286.3 1120.99 C-286.98 1127.9 -287.65 1134.81 -288.32 1141.72 C-288.39 1142.44 -288.45 1143.16 -288.53 1143.91 C-289.64 1155.54 -290.66 1167.19 -291.63 1178.84 C-291.76 1180.43 -291.9 1182.02 -292.03 1183.61 C-292.54 1189.8 -293.06 1195.99 -293.56 1202.17 C-297.11 1246.61 -297.11 1246.61 -304 1253.7 C-307.84 1256.13 -311.54 1256.17 -316 1255.7 C-320.35 1253.35 -323.83 1250.16 -327.39 1246.78 C-327.92 1246.42 -328.46 1246.07 -329 1245.7 C-332.17 1246.51 -332.17 1246.51 -334.38 1249.14 C-337.83 1252.51 -340.29 1253.45 -345 1254.14 C-349.27 1253.52 -350.4 1252.13 -353 1248.7 C-360.06 1235.6 -360.79 1219.29 -362 1204.7 C-362.06 1203.99 -362.12 1203.28 -362.18 1202.55 C-365.26 1163.64 -363.34 1121.74 -356.78 1083.25 C-356.58 1082.06 -356.38 1080.87 -356.17 1079.65 C-355.78 1077.42 -355.37 1075.2 -354.92 1072.98 C-353.74 1066.69 -353.74 1066.69 -355.69 1060.79 C-356.45 1059.77 -357.22 1058.75 -358 1057.7 C-358.59 1056.85 -359.18 1056 -359.79 1055.12 C-360.64 1054.02 -360.64 1054.02 -361.5 1052.89 C-362.07 1052.14 -362.64 1051.39 -363.22 1050.62 C-366.17 1047.45 -369.02 1046.49 -373.28 1046.25 C-374.1 1046.19 -374.91 1046.13 -375.76 1046.07 C-376.62 1046.01 -377.49 1045.95 -378.38 1045.89 C-391.03 1044.81 -402.72 1041.98 -412 1032.7 C-413.5 1035.69 -413.15 1038.42 -413.16 1041.75 C-413.17 1042.47 -413.17 1043.2 -413.18 1043.95 C-413.19 1045.53 -413.2 1047.1 -413.2 1048.68 C-413.21 1051.19 -413.23 1053.7 -413.26 1056.2 C-413.32 1063.33 -413.37 1070.46 -413.41 1077.59 C-413.43 1081.95 -413.46 1086.31 -413.51 1090.67 C-413.52 1092.32 -413.53 1093.98 -413.53 1095.63 C-413.58 1116.5 -413.58 1116.5 -419.5 1123.77 C-423.4 1126.79 -426.82 1127.08 -431.59 1127.08 C-435.13 1126.53 -437.42 1124.79 -440.18 1122.6 C-440.78 1122.31 -441.38 1122.01 -442 1121.7 C-444.69 1122.62 -445.88 1123.56 -447.75 1125.7 C-450.85 1128.46 -453.88 1129.44 -458 1129.7 C-463.15 1127.71 -466.01 1123.59 -468.53 1118.81 C-475.81 1101.48 -478.55 1082.36 -480 1063.7 C-480.09 1062.72 -480.18 1061.75 -480.27 1060.74 C-481.27 1048.26 -481.11 1035.78 -481.07 1023.27 C-481.06 1020.97 -481.06 1018.68 -481.05 1016.39 C-481.04 1010.83 -481.03 1005.26 -481 999.7 C-481.78 999.41 -482.55 999.12 -483.35 998.81 C-492.25 995.08 -498.9 986.15 -503 977.7 C-507.22 967.21 -510.18 955.92 -509.92 944.57 C-509.37 934.51 -509.37 934.51 -513.45 925.82 C-516.55 923.84 -519.67 922.26 -523 920.7 C-532.84 913.85 -539.05 903.21 -542 891.7 C-542.16 889.62 -542.3 887.54 -542.44 885.45 C-543.01 881.46 -543.41 880.16 -546.66 877.67 C-548.93 876.51 -551.23 875.39 -553.55 874.34 C-563.5 869.63 -573.16 860.76 -577.44 850.52 C-580.78 840.92 -581.21 830.65 -578.44 820.84 C-577.85 817.93 -577.64 815.66 -578 812.7 C-580.09 810.08 -580.09 810.08 -582.94 807.7 C-596.85 794.73 -604.1 777.45 -605.19 758.49 C-605.6 738.08 -598.67 722.55 -585 707.7 C-585.41 706.72 -585.82 705.75 -586.25 704.74 C-594.77 684.14 -596.55 664.3 -588.48 643.06 C-582.6 629.68 -572.64 618.44 -558.88 612.84 C-556.93 612.1 -554.97 611.4 -553 610.7 C-553.07 609.81 -553.07 609.81 -553.14 608.91 C-554.61 588.93 -553.04 572.23 -540.76 555.68 C-534.43 548.39 -527.34 543.4 -519 538.7 C-519.05 537.52 -519.1 536.33 -519.14 535.11 C-519.69 515.38 -515.42 497.16 -502.38 481.77 C-489 468.19 -471.5 461.83 -453 458.7 C-452.23 458.57 -451.46 458.44 -450.66 458.3 C-439.9 456.82 -428.75 457.45 -418 458.7 C-418.04 457.69 -418.07 456.67 -418.11 455.62 C-418.48 440.2 -415.8 427.09 -405.44 415.14 C-387.01 395.87 -365.42 389.58 -339.44 388.85 C-336.63 388.79 -333.82 388.74 -331 388.7 C-331.54 388.13 -332.08 387.55 -332.63 386.96 C-336.56 382.66 -339.95 378.71 -342.44 373.39 C-342.91 372.4 -343.39 371.42 -343.88 370.4 C-347.65 361.38 -346.74 352.22 -343.17 343.27 C-342 340.7 -342 340.7 -340.11 337.8 C-339.56 336.27 -339.56 336.27 -339 334.7 C-340.24 332.11 -341.35 330.31 -343.07 328.08 C-350.63 317.24 -353.54 307.05 -352 293.7 C-349.69 282.3 -344.31 272.33 -336.5 263.77 C-333.75 261.11 -333.75 261.11 -334.14 258.74 C-335.16 256.33 -336.42 254.95 -338.25 253.08 C-346.3 244.17 -349.58 233.54 -349.32 221.66 C-348.02 209.35 -341.92 196.19 -332.21 188.23 C-327.45 184.7 -327.45 184.7 -325 184.7 C-324.82 183.44 -324.64 182.17 -324.45 180.86 C-324.2 179.16 -323.95 177.46 -323.69 175.77 C-323.57 174.93 -323.46 174.1 -323.33 173.25 C-322.46 167.49 -321.02 162.17 -319 156.7 C-319.7 156.56 -320.39 156.41 -321.1 156.26 C-334.89 153.1 -346.65 148.2 -358 139.7 C-358.7 139.19 -359.4 138.67 -360.12 138.14 C-366.03 133.47 -370.41 127.12 -372 119.7 C-373.02 110.01 -371.11 101.2 -365 93.45 C-353.77 81.84 -336.55 77.6 -321 75.7 C-320.2 75.59 -319.39 75.48 -318.56 75.37 C-296.92 72.86 -274.61 75.21 -253.31 79.27 C-247.39 80.5 -247.39 80.5 -241.96 78.31 C-240.45 77.08 -238.96 75.84 -237.47 74.59 C-231.74 70.21 -224.8 67.9 -218 65.7 C-219.02 65.47 -220.03 65.24 -221.07 65 C-235.24 61.62 -235.24 61.62 -240.44 54.83 C-241.35 51.39 -240.93 49.13 -240 45.7 C-237.52 41.94 -235.34 39.15 -231 37.7 C-224.09 36.97 -219.67 37.65 -214 41.7 C-212.99 42.69 -211.98 43.68 -211 44.7 C-210.55 43.61 -210.09 42.51 -209.61 41.38 C-208.99 39.92 -208.37 38.47 -207.75 37.02 C-207.45 36.29 -207.15 35.57 -206.84 34.83 C-204.54 29.46 -202.23 25.14 -197.19 21.89 C-193.47 20.51 -190.94 20.19 -187 20.7 C-183.91 22.74 -183.15 24.25 -182 27.77 C-182 33.29 -183.93 37.65 -186 42.7 C-186.33 43.69 -186.66 44.68 -187 45.7 C-185.83 45.36 -185.83 45.36 -184.62 45.01 C-178.67 43.38 -174.05 42.19 -168 43.7 C-167.83 43.12 -167.66 42.54 -167.49 41.95 C-164.44 32.13 -159.13 24.77 -150 19.7 C-142.34 16.79 -135.14 16.32 -127 16.7 C-126.65 15.98 -126.3 15.25 -125.94 14.51 C-121.33 5.49 -117.52 0.7 -107.88 -2.73 C-95.7 -6.07 -84.55 -3.35 -73.63 2.52 C-71.12 3.85 -71.12 3.85 -68.63 3.77 C-66.08 2.73 -64.52 1.64 -62.38 -0.05 C-43.26 -15.03 -19.53 -12.64 0 0 Z M-62.82 9.39 C-66.07 11.35 -69.27 11.86 -73 11.7 C-75.7 10.93 -78.05 9.73 -80.5 8.39 C-88.14 4.38 -95.26 2 -104 2.7 C-109.48 4.56 -112.84 7.99 -116 12.7 C-117.07 15.04 -118.01 17.36 -118.85 19.79 C-120.52 22.56 -121.88 22.92 -125 23.7 C-127.8 23.74 -130.53 23.7 -133.32 23.58 C-140.86 23.44 -145.74 24.04 -151.59 29.07 C-156.01 33.58 -158.11 39.11 -160.41 44.91 C-162 47.7 -162 47.7 -164.35 49.09 C-167.17 49.74 -169.49 49.8 -172.38 49.64 C-178.23 49.57 -182.36 50.31 -186.84 54.37 C-190.74 58.5 -193.14 62.59 -195.08 67.92 C-196 69.7 -196 69.7 -199 70.7 C-197.7 79.96 -191.23 87.25 -184 92.7 C-184.05 91.81 -184.1 90.92 -184.14 90 C-184.18 88.83 -184.22 87.66 -184.25 86.45 C-184.3 85.29 -184.35 84.13 -184.39 82.94 C-184 79.7 -184 79.7 -182.17 77.34 C-179.34 75.2 -177.55 74.77 -174 74.7 C-169.98 75.91 -167.76 77.53 -165.63 81.08 C-162.65 87.76 -163.32 95.74 -164.75 102.77 C-165.35 105.75 -165.35 105.75 -163.35 107.7 C-160.89 109.8 -158.52 111.23 -155.65 112.72 C-154.64 113.25 -153.62 113.78 -152.57 114.32 C-151.52 114.86 -150.47 115.4 -149.38 115.95 C-148.32 116.51 -147.25 117.06 -146.16 117.63 C-141.32 120.5 -141.32 120.5 -136 121.7 C-137.39 117.45 -137.39 117.45 -139.13 113.33 C-140.4 109.51 -140.39 106.74 -140 102.7 C-138 99.53 -135.73 98.41 -132.25 97.27 C-127.6 96.29 -124.04 97.28 -120 99.7 C-114.69 105.16 -114.8 109.97 -114.84 117.25 C-115.06 121.87 -115.87 126.23 -117 130.7 C-112.25 133.85 -107.09 135.85 -101.82 137.95 C-100.9 138.33 -99.99 138.71 -99.04 139.09 C-98.17 139.44 -97.3 139.79 -96.4 140.16 C-95.6 140.48 -94.81 140.8 -93.99 141.13 C-91.95 141.96 -91.95 141.96 -90 140.7 C-90.44 139.95 -90.87 139.2 -91.32 138.43 C-94.99 131.68 -97.16 126.42 -96 118.7 C-95.51 117.22 -95.51 117.22 -95 115.7 C-89.2 114.25 -84.14 113.63 -78.75 116.33 C-72.61 121.64 -70.36 127.87 -69 135.7 C-68.86 138.91 -68.87 142.06 -69 145.27 C-69.19 147.71 -69.19 147.71 -68 149.7 C-65.2 150.62 -65.2 150.62 -61.94 151.33 C-60.84 151.59 -59.73 151.85 -58.59 152.12 C-57.74 152.31 -56.88 152.5 -56 152.7 C-57.13 149.83 -58.31 147.09 -59.69 144.33 C-61.21 140.14 -61.31 137.94 -60 133.7 C-56.98 131.19 -53.94 129.79 -50 129.7 C-44.79 131.47 -40.88 133.92 -38 138.7 C-35.55 144.28 -34.66 149.46 -34.61 155.54 C-34.18 157.87 -34.18 157.87 -32.04 159.32 C-28.06 161.13 -24.03 162.28 -19.82 163.39 C-19 163.62 -18.18 163.84 -17.33 164.07 C-13.22 165.27 -13.22 165.27 -9 165.7 C-9.41 164.71 -9.41 164.71 -9.82 163.7 C-10.21 162.71 -10.6 161.72 -11 160.7 C-11.4 159.81 -11.4 159.81 -11.8 158.91 C-13.92 153.88 -14.99 149.15 -14 143.7 C-11.81 140.67 -10.55 139.89 -7 138.7 C-2.45 138.17 1.05 138.27 5.25 140.2 C10.17 144.68 13.67 150 14.14 156.76 C14.15 157.48 14.16 158.19 14.17 158.93 C14.2 159.71 14.22 160.5 14.24 161.31 C14.29 162.95 14.32 164.59 14.34 166.24 C14.4 170.76 14.4 170.76 16.54 174.56 C20 176.17 23.48 177.63 27.06 178.95 C27.78 179.23 28.5 179.52 29.24 179.8 C33.55 181.51 33.55 181.51 38 180.7 C37.5 179.88 37.01 179.05 36.5 178.2 C34.44 173.41 34.24 169.51 35.62 164.39 C38.17 161.26 41.2 159.94 45.18 159.41 C50.16 159.23 53.86 159.7 58 162.7 C64.24 170.25 65.2 178.4 65.36 187.87 C66.24 191.81 67.86 193.21 71 195.7 C74.46 197.39 74.46 197.39 78.18 198.58 C79.41 199.01 80.65 199.44 81.91 199.88 C84.88 201.04 84.88 201.04 87 199.7 C86.65 199.21 86.3 198.71 85.94 198.2 C82.95 193.74 81 190.24 81 184.7 C81.94 181.42 82.76 179.49 85.7 177.63 C90.78 175.42 94.64 175.41 100 176.7 C106.68 179.91 110.31 185.91 113.25 192.52 C114.22 196.67 114.79 200.86 115.34 205.09 C115.77 208.04 115.77 208.04 119 209.7 C121.81 209.98 121.81 209.98 124.98 209.9 C126.14 209.89 127.3 209.89 128.5 209.88 C129.72 209.86 130.93 209.85 132.18 209.83 C133.41 209.82 134.64 209.81 135.9 209.8 C138.93 209.78 141.96 209.74 145 209.7 C145.43 208.82 145.87 207.94 146.32 207.04 C151.11 197.68 154.95 192.52 165 188.7 C164.01 186.05 163.05 183.79 161.43 181.45 C159.12 177.03 158.46 172.52 159.4 167.59 C161.12 162.35 164.19 158.62 168 154.7 C168.74 153.94 168.74 153.94 169.5 153.16 C170.65 151.99 171.82 150.84 173 149.7 C172.29 148.92 172.29 148.92 171.57 148.13 C164.61 140.33 164.61 140.33 163 136.7 C163.29 135.36 163.63 134.03 164 132.7 C164.99 124.32 162.62 116.81 157.56 110.08 C153.69 105.87 148.62 103.15 143.73 100.3 C141 98.7 141 98.7 140 97.7 C140.03 95.56 140.1 93.41 140.18 91.27 C140.21 83.82 139.33 77.78 134.52 71.9 C131.23 68.77 128.09 67.31 123.81 65.89 C119.4 64.28 119.4 64.28 117.64 61.74 C116.67 59.42 115.84 57.07 115 54.7 C109.47 43.64 99.82 35.13 88.34 30.67 C78.61 27.65 69.48 28.24 59.68 30.45 C54.28 29.35 52.93 26.03 49.96 21.59 C43.41 11.95 33.99 5.79 22.66 3.11 C15.93 2.08 10.76 3.37 4.92 6.77 C2.47 7.96 0.74 8.56 -2 8.7 C-5.02 7.16 -5.02 7.16 -8.25 4.95 C-13.33 1.62 -18.09 -0.84 -24 -2.3 C-25.21 -2.64 -25.21 -2.64 -26.44 -2.98 C-41.13 -4.78 -51.98 -0.68 -62.82 9.39 Z M-194 28.7 C-199.84 39.12 -199.84 39.12 -202 50.7 C-196.86 46.29 -192.66 40.35 -191.69 33.5 C-191.66 31.41 -191.66 31.41 -192 28.7 C-192.66 28.7 -193.32 28.7 -194 28.7 Z M-228 43.7 C-229.71 44.74 -229.71 44.74 -231 46.7 C-231.25 50.25 -231.25 50.25 -230 53.7 C-225.3 57.32 -219.73 57.37 -214 57.7 C-214.91 52.92 -217.47 49.94 -221 46.7 C-223.32 45.38 -225.46 44.57 -228 43.7 Z M-238.75 85.39 C-246.8 95.18 -246.74 106.62 -247 118.7 C-252.29 121.77 -257.47 122.74 -263.38 123.89 C-280.56 127.55 -295.37 134.74 -305.7 149.56 C-311.35 158.84 -314.17 168.82 -315.31 179.61 C-316.08 185.88 -316.08 185.88 -318.88 188.37 C-320.44 189.35 -322.02 190.31 -323.62 191.23 C-332.05 196.45 -337.1 206.17 -339.38 215.58 C-341.04 225.91 -339.24 235.64 -334 244.7 C-331.75 247.41 -329.43 249.91 -326.89 252.35 C-324.54 255.28 -323.95 256.94 -324 260.7 C-325.85 263.42 -325.85 263.42 -328.5 266.2 C-337.62 276.28 -343.59 288.65 -343.32 302.45 C-342.25 313.52 -337.97 321.35 -330.57 329.33 C-329 331.7 -329 331.7 -328.94 334.58 C-330.09 337.96 -331.66 340.11 -333.79 342.93 C-337.94 349 -337.87 357.04 -336.57 364.03 C-333.42 375.17 -323.42 385.2 -314 391.52 C-311 393.7 -311 393.7 -310.21 395.68 C-310 397.7 -310 397.7 -311.63 400.2 C-314 402.7 -314 402.7 -316.5 404.58 C-320.77 408.21 -323.01 412.39 -324 417.83 C-324.69 427.56 -320.16 437.39 -314 444.7 C-307.47 451.72 -298.66 455.02 -290 458.7 C-290.03 459.77 -290.03 459.77 -290.05 460.86 C-290.11 464.12 -290.15 467.38 -290.19 470.64 C-290.22 471.76 -290.24 472.87 -290.27 474.03 C-290.37 485.4 -288.34 492.21 -280.39 500.47 C-271.23 509.04 -260.04 510.72 -248 512.7 C-247.86 513.3 -247.71 513.89 -247.56 514.5 C-243.55 529.3 -235.22 541.41 -221.87 549.23 C-211.13 554.75 -199.33 557.15 -187.53 553.68 C-183.43 552 -179.62 550.04 -175.75 547.89 C-171.95 546.25 -168.98 545.52 -165 546.7 C-161.06 549.38 -157.58 552.55 -154 555.7 C-143.93 563.78 -131.24 570.04 -118 568.7 C-112.61 567.42 -107.8 565.25 -103.02 562.47 C-100.17 561.39 -98.03 561.4 -95 561.7 C-92.36 563.06 -92.36 563.06 -89.75 564.89 C-78.34 572.69 -78.34 572.69 -65 574.7 C-58 573.13 -53.56 569.87 -48.89 564.51 C-45.74 561.49 -43 560.68 -38.69 560.77 C-35.41 561.6 -33.8 562.33 -31.07 564.14 C-24.85 568.25 -18.97 569.35 -11.57 568.36 C-4.45 566.54 0.83 561.97 6.06 557.02 C10.27 553.13 14.09 550.02 20 549.7 C23.06 550.46 25.38 551.96 28 553.7 C28.93 554.3 29.87 554.89 30.84 555.5 C32.76 556.73 34.67 557.96 36.58 559.21 C41.72 562.38 47.12 562.65 53 561.7 C59.38 558.32 63.31 551.81 67.23 545.96 C69 543.7 69 543.7 72 542.7 C76.47 542.33 79.77 542.87 84.06 544.2 C92.81 546.72 102.71 547.49 110.97 543.08 C118.83 537.73 122.58 531.42 126 522.7 C126.67 521.01 127.36 519.32 128.06 517.64 C128.34 516.93 128.62 516.21 128.91 515.48 C130.38 513.08 131.32 512.6 134 511.7 C137.54 511.26 141.06 510.92 144.62 510.67 C150.52 510.12 154.49 508.44 158.61 503.94 C162.11 498.03 162.82 492.3 163.28 485.56 C163.69 480.19 163.69 480.19 165.19 477.81 C167.61 476.32 170.01 475.65 172.75 474.89 C178.08 473.19 182.59 471.3 186 466.7 C187.81 462.39 188.24 458.74 188.18 454.08 C188.17 452.42 188.17 452.42 188.16 450.73 C188.02 448.18 187.72 446.13 187 443.7 C186.18 440.39 186.18 440.39 187 436.7 C189.83 434.59 192.74 432.99 195.88 431.38 C200.77 428.75 204.14 426.14 206.75 421.2 C207.15 420.45 207.56 419.7 207.98 418.92 C209.63 415.32 210.15 412.15 210.18 408.2 C210.2 407.07 210.2 407.07 210.23 405.92 C209.96 403.4 209.36 401.83 208 399.7 C205.46 398.42 205.46 398.42 203 397.7 C203 396.71 203 395.72 203 394.7 C206.74 393.23 209.89 392.64 213.87 392.52 C219.92 392.01 223.01 389.03 227 384.7 C227.78 383.86 228.56 383.01 229.37 382.14 C232.85 376.93 233.14 372.41 232.81 366.27 C232.65 360.81 233.01 357.49 236.68 353.34 C242.58 346 241.82 334.57 241 325.7 C239.7 320.59 237.35 317.84 233.25 314.64 C230.27 312.31 230.05 312.09 229.5 308.08 C230 304.7 230 304.7 230.5 302.77 C231.94 296.81 231.34 291.83 228.39 286.52 C225.88 283.24 222.63 281.54 219 279.7 C218.24 279.31 217.48 278.92 216.7 278.51 C214.81 277.55 212.9 276.62 211 275.7 C211.05 274.16 211.05 274.16 211.1 272.59 C211.36 261.78 210.44 252.3 205 242.7 C204.2 242.75 203.4 242.8 202.58 242.84 C197.74 243.01 193.99 243.13 189.5 241.2 C186.32 238.03 184.69 234.82 183 230.7 C182.38 229.22 182.38 229.22 181.75 227.7 C181.5 227.04 181.25 226.38 181 225.7 C180.46 225.92 179.93 226.14 179.38 226.36 C172.24 229.03 165.41 229.81 158 227.7 C159.05 233.6 160.41 239.36 162 245.14 C175.55 294.94 161.62 348.21 136.86 392.19 C113.27 433.01 80.13 464.26 34 476.7 C19.26 480.29 4.15 483.64 -11 484.7 C-11.92 484.77 -12.83 484.83 -13.77 484.9 C-76.49 489.07 -140.52 466.86 -189 426.7 C-189.58 426.24 -190.15 425.77 -190.74 425.29 C-209.02 410.33 -223.46 392.08 -235 371.49 C-235.67 370.3 -236.34 369.12 -237.02 367.94 C-258.41 331.05 -269.34 280.47 -259.97 238.28 C-259.65 237.1 -259.33 235.92 -259 234.7 C-258.66 233.43 -258.32 232.16 -257.97 230.85 C-249.6 201.4 -235.67 174.1 -214.32 152.08 C-213.22 150.93 -212.14 149.75 -211.06 148.57 C-198.47 135.1 -182.34 125.84 -166 117.7 C-166.33 116.71 -166.66 115.72 -167 114.7 C-170.96 115.12 -174.47 115.54 -178.29 116.72 C-182.23 117.76 -185.89 118.05 -189.94 118.02 C-190.64 118.01 -191.34 118.01 -192.07 118.01 C-197.96 117.88 -203.13 117.31 -207.65 113.21 C-209.36 111.31 -209.78 110.26 -210 107.7 C-209.63 104.64 -209.63 104.64 -208 101.7 C-205.12 100.24 -202.13 99.49 -199 98.7 C-197.24 98.12 -197.24 98.12 -195.44 97.52 C-194.64 97.25 -193.83 96.98 -193 96.7 C-193.85 95.78 -194.7 94.85 -195.57 93.89 C-201.04 87.51 -205.41 80.28 -209 72.7 C-210.05 71.45 -210.05 71.45 -212.38 71.39 C-223.17 72.32 -231.41 77.78 -238.75 85.39 Z M-348 89.7 C-348.66 90.06 -349.31 90.41 -349.98 90.77 C-353.13 92.67 -354.51 94.41 -356 97.7 C-355.2 98.01 -355.2 98.01 -354.38 98.33 C-342.29 103.09 -330.58 108.36 -319 114.27 C-303.25 122.99 -303.25 122.99 -286 125.7 C-283.41 124.78 -283.41 124.78 -280.82 123.45 C-272.56 119.79 -263.83 118.36 -255 116.7 C-254.97 115.66 -254.93 114.63 -254.89 113.55 C-254.57 106.25 -254.12 99.57 -251.62 92.62 C-250.85 90.56 -250.85 90.56 -251 87.7 C-257.01 86.09 -262.97 85 -269.13 84.14 C-270.06 84.01 -270.99 83.88 -271.94 83.75 C-279.29 82.75 -286.59 81.97 -294 81.7 C-294.72 81.68 -295.44 81.65 -296.18 81.62 C-313.42 81.05 -332.54 81.21 -348 89.7 Z M-176 82.7 C-175.59 87.67 -175.21 92.15 -173 96.7 C-172.67 96.7 -172.34 96.7 -172 96.7 C-171.66 91.05 -172.57 87.67 -175 82.7 C-175.33 82.7 -175.66 82.7 -176 82.7 Z M-201 105.7 C-200.89 107.66 -200.89 107.66 -200 109.7 C-195.83 111.96 -192.06 111.94 -187.38 111.89 C-185.41 111.88 -185.41 111.88 -183.4 111.87 C-180.02 111.86 -180.02 111.86 -177 110.7 C-177.68 107.67 -177.68 107.67 -179.72 106.54 C-186.74 103.31 -193.98 101.68 -201 105.7 Z M-132 103.7 C-131.73 111.03 -129.04 115.68 -125 121.7 C-124.34 121.37 -123.68 121.04 -123 120.7 C-122.2 112.91 -122.2 112.91 -125.25 106.02 C-127.92 103.27 -127.92 103.27 -132 103.7 Z M-362 104.7 C-363.19 113.26 -363.64 119.5 -358.59 126.72 C-348.38 139.35 -332.4 145.89 -317 149.7 C-316.01 149.7 -315.02 149.7 -314 149.7 C-312.62 147.97 -312.62 147.97 -311.38 145.7 C-308.46 141.03 -305.01 137.8 -300.76 134.33 C-300.18 133.79 -299.6 133.26 -299 132.7 C-299 132.04 -299 131.38 -299 130.7 C-300.07 130.28 -301.14 129.85 -302.25 129.41 C-312.17 125.37 -321.77 120.89 -331.32 116.02 C-345.96 107.96 -345.96 107.96 -362 104.7 Z M-166.94 124.2 C-167.61 124.56 -168.28 124.93 -168.97 125.3 C-179.47 131.07 -188.92 137.9 -198 145.7 C-198.86 146.44 -199.72 147.17 -200.6 147.92 C-229.44 173.2 -249.47 212.59 -254 250.7 C-254.29 255.64 -254.34 260.57 -254.32 265.52 C-254.31 266.19 -254.31 266.87 -254.31 267.56 C-254.09 311.25 -240.35 353.7 -214 388.7 C-213.54 389.33 -213.07 389.95 -212.58 390.59 C-204.87 400.76 -196.96 410.63 -187 418.7 C-186.08 419.45 -185.16 420.2 -184.21 420.97 C-132.59 462.08 -68.16 485.26 -2.13 478.08 C33.69 473.78 66.39 462.87 93 437.7 C93.79 436.98 94.57 436.25 95.39 435.51 C103.25 428.02 109.64 419.48 116 410.7 C116.5 410.01 117 409.32 117.52 408.61 C136.86 381.75 150.03 351.23 156 318.7 C156.27 317.28 156.27 317.28 156.56 315.83 C158.12 307.03 158.34 298.39 158.31 289.48 C158.31 287.04 158.33 284.6 158.36 282.16 C158.45 259.56 153.14 238.3 144 217.7 C141.22 214.93 133.6 216 129.63 215.82 C128.14 215.74 126.64 215.65 125.14 215.55 C116.56 214.68 116.56 214.68 108.61 217.15 C106.91 218.92 105.48 220.76 104 222.7 C95.3 228.33 84.33 233.04 73.82 231.27 C72 230.7 72 230.7 69.87 229.02 C68.62 225.71 68.84 224.05 70 220.7 C74.85 215.33 81.34 213.23 88 210.7 C85.99 206.68 79.73 205.91 75.68 204.52 C74.62 204.13 73.57 203.75 72.47 203.36 C71.45 203.01 70.43 202.65 69.38 202.29 C68.45 201.96 67.51 201.63 66.55 201.29 C62.94 200.46 61.01 201.08 57.91 202.97 C57.15 203.48 56.4 203.99 55.62 204.52 C46.65 210.06 34.6 213.45 24 212.7 C18.77 210.48 18.77 210.48 17 208.7 C16.59 205.15 16.71 203.21 18.5 200.08 C23.46 195.36 29.45 193.34 36 191.7 C36 191.04 36 190.38 36 189.7 C32.09 188.14 28.17 186.6 24.25 185.08 C23.13 184.63 22.02 184.19 20.88 183.73 C19.81 183.31 18.74 182.9 17.64 182.48 C16.65 182.09 15.67 181.7 14.65 181.3 C12.04 180.46 12.04 180.46 9.76 181.5 C7.74 182.88 5.91 184.41 4.06 186.02 C-3.84 192.31 -14.85 196.54 -25 195.7 C-27.81 194.69 -28.67 194.37 -30 191.7 C-30.4 188.13 -30.3 186.23 -28.5 183.08 C-23.54 178.36 -17.55 176.34 -11 174.7 C-11.81 172.54 -11.81 172.54 -13.87 171.93 C-14.67 171.68 -15.48 171.44 -16.3 171.2 C-17.18 170.93 -18.05 170.67 -18.96 170.39 C-19.88 170.13 -20.8 169.86 -21.75 169.58 C-22.66 169.3 -23.57 169.02 -24.5 168.74 C-28.79 167.47 -32.49 166.39 -37 166.7 C-38.72 168 -38.72 168 -40.13 169.83 C-46.37 176.49 -53.84 180.15 -62.91 180.99 C-65 180.7 -65 180.7 -66.79 179.35 C-68 177.7 -68 177.7 -67.94 175.33 C-65.83 169.41 -61.88 166.77 -56.61 163.82 C-56.08 163.45 -55.55 163.08 -55 162.7 C-55 162.04 -55 161.38 -55 160.7 C-57.71 159.86 -60.42 159.03 -63.13 158.2 C-63.89 157.96 -64.65 157.73 -65.43 157.48 C-72.62 155.31 -77.27 154.98 -84.02 158.5 C-84.72 158.88 -85.41 159.25 -86.13 159.64 C-87.53 160.38 -88.92 161.12 -90.32 161.86 C-90.94 162.19 -91.55 162.52 -92.18 162.86 C-97.48 165.31 -103.28 165.3 -109 164.7 C-112.71 162.98 -114.43 162.02 -116.07 158.27 C-115.98 154.9 -115.03 153.36 -113 150.7 C-110.53 148.55 -107.97 147.08 -105 145.7 C-108.25 143.02 -111.54 141.45 -115.44 139.89 C-117.11 139.2 -117.11 139.2 -118.81 138.5 C-124.33 137.12 -127.99 140.2 -132.62 142.93 C-142.02 148.44 -150.78 152.96 -162 151.7 C-164 150.7 -164 150.7 -164.82 149.02 C-165.1 145.5 -163.86 143.67 -162 140.7 C-158.96 138.69 -158.96 138.69 -155.38 137.02 C-154.76 136.72 -154.14 136.43 -153.5 136.12 C-148.76 133.93 -144.01 132.17 -139 130.7 C-142.42 127.92 -146.15 125.97 -150.07 124.02 C-150.69 123.7 -151.32 123.37 -151.96 123.04 C-158.25 119.89 -161.04 120.99 -166.94 124.2 Z M-88 120.7 C-87.87 128.91 -85 134.24 -80 140.7 C-79.34 141.03 -78.68 141.36 -78 141.7 C-77.56 134.75 -78.34 129.72 -82 123.7 C-84.59 121.15 -84.59 121.15 -88 120.7 Z M-52 136.7 C-51.73 143.26 -49.19 146.77 -45 151.7 C-44.34 151.37 -43.68 151.04 -43 150.7 C-44.64 144.1 -46.36 140.59 -52 136.7 Z M-155 143.7 C-155 144.36 -155 145.02 -155 145.7 C-148.12 145.4 -142.72 142.43 -137 138.7 C-136.67 138.04 -136.34 137.38 -136 136.7 C-142.93 136.7 -149.67 139.35 -155 143.7 Z M-6 144.7 C-5.7 153.93 -2 161.67 4 168.7 C4.66 168.7 5.32 168.7 6 168.7 C6.28 161.11 6.24 154.47 2.25 147.77 C-0.49 145.26 -2.35 144.95 -6 144.7 Z M-107 153.7 C-106.66 155.68 -106.66 155.68 -106 157.7 C-102.44 159.49 -98.66 159.17 -94.87 158.1 C-91.58 156.9 -88.94 155.66 -86 153.7 C-86 153.04 -86 152.38 -86 151.7 C-93.13 149.63 -100.67 149.59 -107 153.7 Z M170 161.7 C167.27 166.18 167.24 170.61 168 175.7 C169.84 180.08 172.61 184.58 177 186.7 C179.92 186.2 182.32 185.14 184.93 183.77 C187.9 182.24 190.87 180.88 194 179.7 C194.35 173.24 194.34 167.42 191 161.7 C187.41 158.21 184.67 156.89 179.68 156.33 C174.74 156.83 173.44 158.18 170 161.7 Z M209 170.7 C207.23 173.58 205.67 176.37 205 179.7 C206.07 182.74 207.87 184.89 210 187.27 C211.87 189.37 213.42 191.34 215 193.7 C220.93 192.26 225.91 189.05 229.17 183.81 C230.91 179.37 231.02 174.19 229.19 169.75 C226.92 166.51 224.37 165.2 220.62 164.45 C215.17 164.22 212.25 166.51 209 170.7 Z M-47 164.7 C-48.45 165.61 -49.88 166.53 -51.32 167.45 C-52.52 168.22 -52.52 168.22 -53.74 169 C-56.01 170.71 -57.43 172.36 -59 174.7 C-53.41 173.34 -50.09 170.55 -46 166.7 C-46.33 166.04 -46.66 165.38 -47 164.7 Z M44 165.7 C42.53 169.98 43.1 172.61 44.93 176.58 C47.75 181.81 51.45 185.9 56 189.7 C56.33 189.7 56.66 189.7 57 189.7 C57.38 181.74 56.34 175.59 52.18 168.7 C49.49 166.24 47.59 165.95 44 165.7 Z M-20.63 184.89 C-21.08 185.49 -21.54 186.09 -22 186.7 C-21.67 187.69 -21.34 188.68 -21 189.7 C-13.96 189.37 -8.76 187.91 -3 183.7 C-2.34 182.71 -1.68 181.72 -1 180.7 C-2.06 179.44 -2.06 179.44 -4.44 179.45 C-10.36 179.87 -16.01 181.05 -20.63 184.89 Z M91 181.7 C89.57 183.76 89.57 183.76 89 186.7 C91.12 194.32 97.53 201.4 104 205.7 C104.66 205.7 105.32 205.7 106 205.7 C106.65 198.16 104.16 191.95 100 185.7 C98.03 183.74 96.6 182.63 94 181.7 C93.01 181.7 92.02 181.7 91 181.7 Z M185 191.7 C183.15 195.39 183.63 199.67 184 203.7 C185.45 206.96 187.25 209.42 190 211.7 C193.7 212.94 197.15 213.28 201 212.7 C203.96 210.5 204.82 209.22 206 205.7 C206.52 200.74 206.53 196.82 204.37 192.27 C201.13 188.76 198.17 187.14 193.5 186.2 C189.66 186.97 187.82 189.01 185 191.7 Z M157.18 200.95 C155.07 205.86 154.35 209.85 156.12 214.95 C158.53 218.48 161.18 220.79 165 222.7 C169.49 223.07 171.94 223.27 175.93 221.14 C178.66 217.91 179 215.91 179 211.7 C178.01 209.69 177.01 207.7 176 205.7 C175.59 203.06 175.37 200.45 175.21 197.78 C175.22 195.71 175.22 195.71 174 194.7 C166.75 193.77 161.92 195.07 157.18 200.95 Z M26 201.7 C26 203.02 26 204.34 26 205.7 C33.74 207.64 41.55 205.5 48.68 202.14 C51.11 200.91 51.11 200.91 52 198.7 C44.43 194.92 32.65 197.27 26 201.7 Z M216 201.7 C214.44 205.24 213.08 208.51 212.81 212.39 C214.8 216.26 218.11 217.95 222 219.7 C224.95 220.62 226.82 220.76 230 220.7 C232.71 219.1 233.61 217.82 234.63 214.86 C235.27 211.83 235.51 209.68 234.04 206.89 C231.89 204.2 230.28 202.8 227 201.7 C225.1 201.63 223.2 201.62 221.31 201.64 C220.31 201.65 219.32 201.66 218.3 201.67 C217.54 201.68 216.78 201.69 216 201.7 Z M88.43 216.52 C87.32 216.85 86.2 217.19 85.05 217.54 C82.22 218.62 80.29 219.75 78 221.7 C78.33 223.02 78.66 224.34 79 225.7 C86.2 225.35 91.95 223.75 98 219.7 C99.76 217.64 99.76 217.64 101 215.7 C99.98 214.47 99.98 214.47 97.84 214.53 C94.49 214.73 91.64 215.52 88.43 216.52 Z M195.25 219.2 C194.26 219.3 193.28 219.39 192.26 219.48 C191.14 219.59 191.14 219.59 190 219.7 C190.25 226.19 190.73 230.67 195 235.7 C198.12 237.27 200.55 237.06 204 236.7 C207.18 234.01 207.91 232.4 208.43 228.27 C207.97 224.47 206.91 221.98 205 218.7 C201.68 218.7 198.54 218.89 195.25 219.2 Z M217 225.7 C216.68 227.06 216.37 228.41 216.06 229.77 C215.88 230.52 215.71 231.27 215.53 232.05 C215.35 232.93 215.18 233.8 215 234.7 C214.77 235.82 214.54 236.94 214.31 238.09 C213.49 247.58 219.03 256.72 224.69 263.98 C228.97 269.04 233.43 273.9 238 278.7 C238.58 279.35 239.16 280 239.76 280.66 C253.19 295.1 270.84 300.98 288.92 307.37 C296.26 309.99 303.22 312.83 310 316.7 C308.07 303.79 295.58 294.25 286 286.7 C271.41 275.2 259.42 263.24 248.79 248.03 C241.46 237.4 241.46 237.4 233 227.7 C231.06 227.49 229.12 227.33 227.18 227.2 C223.67 226.96 220.39 226.69 217 225.7 Z M240 292.7 C239.52 294.93 239.09 297.16 238.68 299.39 C238.44 300.63 238.2 301.87 237.95 303.15 C237.62 306.83 237.62 306.83 240.25 309.31 C241.61 310.5 241.61 310.5 243 311.7 C244.13 313.53 245.21 315.38 246.25 317.27 C249.85 323 252.65 324.76 259 326.7 C260.38 327.18 261.77 327.67 263.15 328.16 C267.74 329.76 272.36 331.25 277 332.7 C278.63 333.22 278.63 333.22 280.3 333.75 C287.97 335.95 296.07 336.84 304 335.7 C307.38 333.81 307.38 333.81 310 331.7 C309.92 329.11 309.47 327.29 307.83 325.25 C299.05 317.03 286.32 313.64 275.18 309.89 C264.37 306.15 254.64 301.84 245 295.7 C243.33 294.7 241.67 293.7 240 292.7 Z M-399.95 420.84 C-408.24 431.12 -409.06 442.78 -409.61 455.47 C-409.9 461.5 -409.9 461.5 -411 463.7 C-414.54 464.88 -417.29 464.78 -421.02 464.73 C-422.45 464.72 -423.88 464.71 -425.31 464.69 C-427.55 464.67 -429.78 464.64 -432.01 464.61 C-454.4 464.29 -475.87 467.34 -492.72 483.36 C-503.33 494.24 -508.96 507.51 -510 522.7 C-509.89 526.93 -509.42 531.09 -508.84 535.28 C-509 538.7 -509 538.7 -511.19 541.5 C-513.63 543.41 -515.89 544.91 -518.63 546.33 C-531.36 553.8 -538.63 564.39 -543.14 578.19 C-545.61 588.26 -545.11 598.37 -543.87 608.56 C-544 611.7 -544 611.7 -545.63 613.98 C-548.25 615.88 -550.65 616.92 -553.69 618.02 C-566.38 623.12 -574.06 632.13 -579.88 644.39 C-585.95 658.86 -587 676.07 -581.86 691.03 C-580.64 693.96 -579.34 696.83 -578 699.7 C-576.96 702.36 -575.98 705.03 -575 707.7 C-575.44 708.19 -575.88 708.67 -576.32 709.17 C-588.52 722.9 -597.1 737.64 -596.32 756.64 C-594.14 777.47 -586.13 792.87 -571.28 807.39 C-569.88 808.83 -569.88 808.83 -568 811.7 C-568.05 814.73 -568.29 816.84 -569 819.7 C-571.97 831.76 -572.09 842.29 -565.5 853.27 C-560.56 860.11 -554.23 865.35 -546.55 868.78 C-536.96 873.07 -536.96 873.07 -534 875.7 C-532.67 879.46 -532.67 882.24 -532.87 886.2 C-533.2 894.95 -528.61 902.34 -523 908.7 C-522.27 909.58 -522.27 909.58 -521.52 910.47 C-517.01 915.42 -511.57 918.55 -505.8 921.81 C-502.87 923.8 -502.21 924.5 -501 927.7 C-500.75 930.4 -500.75 930.4 -500.73 933.47 C-500.71 934.6 -500.7 935.73 -500.68 936.89 C-500.65 938.69 -500.65 938.69 -500.63 940.52 C-500.19 957.29 -497.65 975.36 -485 987.7 C-474.4 996.07 -463.66 998.89 -450.38 998.83 C-449.05 998.83 -449.05 998.83 -447.7 998.83 C-441.87 998.8 -436.18 998.47 -430.41 997.63 C-427.02 997.73 -425.63 998.53 -423 1000.7 C-421.34 1003.27 -420.06 1006 -418.75 1008.77 C-413.35 1019.53 -406.72 1027.84 -396 1033.7 C-394.99 1034.29 -394.99 1034.29 -393.95 1034.88 C-387.16 1038.19 -379.92 1038.48 -372.49 1038.93 C-366.58 1039.33 -361.9 1040.06 -357.35 1044.21 C-356.93 1044.74 -356.5 1045.28 -356.07 1045.83 C-355.57 1046.44 -355.07 1047.05 -354.55 1047.68 C-353.49 1049.06 -352.46 1050.46 -351.46 1051.88 C-342.06 1064.83 -328.45 1071.45 -312.96 1074.2 C-297.4 1076.18 -283.11 1073.84 -268.68 1067.69 C-263.01 1065.36 -258.02 1064.48 -252.2 1066.84 C-251.37 1067.35 -250.55 1067.86 -249.69 1068.39 C-248.75 1068.94 -247.81 1069.48 -246.84 1070.05 C-245.9 1070.59 -244.97 1071.14 -244 1071.7 C-228.44 1080.17 -210.33 1081.99 -193.23 1077.42 C-186.22 1075.17 -179.56 1071.81 -172.94 1068.6 C-168.12 1066.38 -163.79 1065.73 -158.68 1067.52 C-156.09 1068.65 -153.54 1069.84 -151 1071.08 C-137.29 1077.63 -121.73 1081.18 -106.75 1076.08 C-104.28 1075 -104.28 1075 -102 1073.7 C-101.23 1073.28 -100.46 1072.85 -99.67 1072.42 C-92.05 1067.75 -85.11 1061.03 -80 1053.7 C-80 1053.04 -80 1052.38 -80 1051.7 C-72.04 1048.48 -66.6 1047.98 -58.32 1050.7 C-46.39 1054.23 -31.52 1054.91 -20 1049.7 C-18.77 1049.18 -18.77 1049.18 -17.51 1048.64 C-2.91 1041.91 6.84 1030.55 15.52 1017.39 C16.01 1016.69 16.49 1015.99 17 1015.27 C17.61 1014.34 17.61 1014.34 18.25 1013.39 C24.32 1007.53 32.52 1008.13 40.43 1007.77 C61.02 1006.52 82.01 1002.13 97 986.7 C111.75 969.08 113.7 949.28 112.19 927.07 C111.56 916.35 111.56 916.35 115 911.7 C116.64 909.98 118.36 908.31 120.12 906.7 C131.09 896.18 137.76 884.38 138.34 868.93 C138.52 856.54 135.99 845.04 130.98 833.7 C129.79 830.07 129.53 827.51 130 823.7 C131.9 820.74 131.9 820.74 134.5 817.77 C148.73 800.54 155.65 777.92 153.54 755.67 C152.56 747.6 150.49 739.86 146.25 732.89 C143.56 728.3 142.9 724.95 144 719.7 C145.16 716.33 146.41 713.02 147.71 709.7 C154.44 692.46 154.72 670.16 147.48 652.99 C144.39 646.15 140.88 640.44 135 635.7 C134.23 635.06 133.47 634.42 132.68 633.77 C131.05 632.53 131.05 632.53 129 632.7 C127.25 627.62 129.03 623.93 130.81 619.14 C136.78 602.11 139.63 581.26 131.81 564.27 C129.22 559.64 126.09 556.05 122 552.7 C121.16 552.02 121.16 552.02 120.31 551.32 C117.84 549.59 115.76 548.64 112.73 548.88 C110.44 549.38 108.24 550.02 106 550.7 C95.2 553.29 84.53 551.64 74 548.7 C73.46 549.5 72.93 550.3 72.38 551.12 C66.8 559.06 61.49 564.54 52 567.7 C39.89 568.98 31.59 566.02 22 558.77 C19.34 556.48 19.34 556.48 17.07 556.84 C14.42 557.94 12.82 559.47 10.75 561.45 C1.31 570.07 -8.99 575.01 -22 574.7 C-27.45 573.82 -32.26 572.33 -36.94 569.39 C-37.95 568.83 -38.96 568.28 -40 567.7 C-43.31 568.89 -45.95 571.07 -48.75 573.14 C-56.67 578.71 -64.85 581.69 -74.66 580.34 C-82.95 578.4 -90.56 574.26 -97.19 568.95 C-98.09 568.33 -98.09 568.33 -99 567.7 C-101.77 568.23 -101.77 568.23 -105 569.7 C-106.85 570.4 -108.71 571.09 -110.57 571.77 C-111.48 572.11 -112.38 572.45 -113.32 572.8 C-125.48 576.89 -136.77 573.91 -148.07 568.58 C-155.61 564.65 -161.74 559.5 -168.06 553.88 C-169.9 552.51 -169.9 552.51 -171.89 552.86 C-175.57 554.33 -179.2 555.87 -182.84 557.45 C-195.99 562.65 -210.02 562.3 -223 556.7 C-238.23 549.51 -247.95 538.14 -254.07 522.58 C-255.48 519.28 -255.48 519.28 -258.5 517.33 C-259.66 517.12 -260.81 516.92 -262 516.7 C-270.38 514.98 -276.97 512.62 -284 507.7 C-285.08 506.96 -286.15 506.22 -287.25 505.45 C-295.92 496.79 -298.68 486.64 -299 474.7 C-298.82 471.01 -298.47 467.37 -298 463.7 C-299.14 463.15 -300.27 462.59 -301.44 462.02 C-315.89 454.77 -323.68 447.87 -330 432.7 C-332.76 424.04 -332.91 416.96 -329 408.7 C-327.17 405.89 -325.17 403.27 -323 400.7 C-329.25 394.46 -342.03 396.39 -350.19 396.39 C-370.93 396.67 -386.26 405.82 -399.95 420.84 Z M-471 1003.7 C-473.02 1005.72 -472.17 1009.83 -472.17 1012.6 C-472.18 1013.42 -472.18 1014.23 -472.18 1015.07 C-472.19 1017.74 -472.19 1020.41 -472.19 1023.08 C-472.19 1023.98 -472.19 1024.89 -472.19 1025.82 C-472.18 1037.29 -471.99 1048.7 -471.13 1060.14 C-471.05 1061.2 -470.97 1062.25 -470.89 1063.34 C-470.39 1069.27 -469.58 1074.95 -468 1080.7 C-457.06 1086.17 -435.41 1080.89 -424 1078.7 C-422.32 1077.02 -422.77 1074.91 -422.67 1072.6 C-422.6 1070.96 -422.6 1070.96 -422.53 1069.28 C-422.36 1064.22 -422.2 1059.16 -422.06 1054.1 C-421.99 1051.44 -421.89 1048.79 -421.77 1046.13 C-420.54 1024.49 -420.54 1024.49 -430 1005.7 C-433.46 1003.4 -434 1003.57 -437.94 1004.08 C-443.77 1004.68 -449.52 1004.82 -455.38 1004.83 C-456.23 1004.83 -457.09 1004.84 -457.97 1004.84 C-462.45 1004.83 -466.58 1004.47 -471 1003.7 Z M-5 1048.7 C-5.77 1049.09 -6.53 1049.48 -7.32 1049.88 C-24.1 1058.03 -38.55 1059.3 -57 1058.7 C-57.93 1071.39 -58.21 1083.99 -58 1096.7 C-57.99 1097.62 -57.98 1098.53 -57.97 1099.47 C-57.68 1116.28 -56.38 1133.01 -55.07 1149.77 C-54.98 1150.87 -54.9 1151.98 -54.81 1153.12 C-54.56 1156.33 -54.3 1159.53 -54.04 1162.74 C-53.97 1163.69 -53.89 1164.65 -53.81 1165.64 C-53.3 1171.77 -52.34 1177.7 -51 1183.7 C-43.91 1185.89 -37.21 1186.04 -29.82 1186.02 C-28.67 1186.03 -27.53 1186.05 -26.35 1186.06 C-18.22 1186.07 -10.83 1184.92 -3 1182.7 C-2.3 1182.51 -1.59 1182.32 -0.87 1182.12 C1.15 1181.4 1.15 1181.4 3 1178.7 C3.79 1169.45 2.8 1159.95 2.18 1150.7 C0.91 1130.65 -0 1110.59 -0.95 1090.52 C-1.24 1084.32 -1.54 1078.12 -1.85 1071.92 C-1.99 1069 -2.12 1066.08 -2.25 1063.16 C-2.32 1061.61 -2.39 1060.07 -2.47 1058.52 C-2.53 1057.25 -2.58 1055.97 -2.64 1054.66 C-2.8 1051.52 -2.8 1051.52 -5 1048.7 Z M-345 1069.7 C-346.4 1074.29 -347.4 1078.66 -348 1083.44 C-348.25 1085.36 -348.25 1085.36 -348.5 1087.32 C-348.67 1088.7 -348.84 1090.07 -349 1091.45 C-349.09 1092.17 -349.18 1092.88 -349.27 1093.62 C-349.79 1097.99 -350.3 1102.36 -350.78 1106.74 C-350.98 1108.49 -351.18 1110.23 -351.38 1111.98 C-353.14 1127.94 -353.28 1143.98 -353.41 1160.02 C-353.43 1162.47 -353.46 1164.92 -353.5 1167.37 C-353.54 1170.84 -353.56 1174.3 -353.56 1177.77 C-353.58 1178.82 -353.6 1179.88 -353.62 1180.97 C-353.6 1183.64 -353.56 1186.09 -353 1188.7 C-344.67 1196.14 -327.41 1195.2 -317 1194.7 C-308.76 1193.97 -308.76 1193.97 -302 1189.7 C-301.41 1186.92 -301.06 1184.45 -300.86 1181.64 C-300.79 1180.84 -300.71 1180.04 -300.64 1179.21 C-300.49 1177.54 -300.34 1175.86 -300.21 1174.18 C-300.02 1171.87 -299.8 1169.55 -299.58 1167.24 C-299.14 1162.74 -298.72 1158.24 -298.31 1153.74 C-298.16 1152.09 -298.01 1150.44 -297.86 1148.79 C-297.54 1145.37 -297.23 1141.95 -296.92 1138.53 C-296.52 1134.18 -296.12 1129.83 -295.72 1125.48 C-295.33 1121.28 -294.95 1117.07 -294.56 1112.87 C-294.49 1112.08 -294.42 1111.3 -294.34 1110.5 C-294.01 1106.86 -293.68 1103.23 -293.36 1099.59 C-293.13 1097.09 -292.89 1094.58 -292.65 1092.08 C-292.5 1090.46 -292.5 1090.46 -292.34 1088.82 C-292.25 1087.89 -292.16 1086.97 -292.07 1086.02 C-291.87 1083.54 -291.87 1083.54 -293 1080.7 C-294.2 1080.74 -295.4 1080.77 -296.63 1080.81 C-314.37 1081.17 -329.19 1078.05 -345 1069.7 Z M-100.69 1079.08 C-109.23 1082.68 -116.48 1083.96 -125.63 1084.36 C-129.11 1084.22 -129.11 1084.22 -132 1085.7 C-132.1 1087.51 -132.13 1089.33 -132.13 1091.14 C-132.13 1092.13 -132.13 1093.12 -132.14 1094.14 C-132.18 1096.69 -132.18 1096.69 -131 1098.7 C-122.4 1098.91 -113.94 1098.76 -105.38 1097.83 C-104.63 1097.75 -103.89 1097.67 -103.12 1097.59 C-98.86 1097.09 -95.05 1096.22 -91 1094.7 C-90.98 1092.64 -90.96 1090.58 -90.94 1088.52 C-90.93 1087.37 -90.92 1086.22 -90.91 1085.04 C-90.99 1082.11 -91.33 1079.54 -92 1076.7 C-95.52 1076.7 -97.48 1077.66 -100.69 1079.08 Z M-439.94 1086.64 C-448.95 1087.65 -457.95 1088.26 -467 1088.7 C-465.14 1100.67 -462.48 1111.26 -456 1121.7 C-452.73 1120.94 -452.73 1120.94 -450.88 1117.7 C-448.73 1115.06 -447.11 1114.08 -443.75 1113.45 C-438.75 1113.16 -435.85 1115.31 -432.05 1118.36 C-429.86 1120.07 -429.86 1120.07 -426 1119.7 C-422.02 1109.12 -421.49 1098.99 -422 1087.7 C-422.5 1086.71 -422.5 1086.71 -423 1085.7 C-428.74 1085.61 -434.25 1085.97 -439.94 1086.64 Z M-101.06 1102.64 C-108.09 1103.98 -115.14 1104.44 -122.28 1104.91 C-123.26 1104.99 -124.25 1105.06 -125.26 1105.14 C-126.15 1105.2 -127.04 1105.26 -127.95 1105.32 C-128.97 1105.51 -128.97 1105.51 -130 1105.7 C-131.62 1108.93 -130.36 1112.16 -129.69 1115.58 C-129.56 1116.3 -129.43 1117.02 -129.29 1117.76 C-128.33 1122.99 -128.33 1122.99 -126 1127.7 C-122.68 1129.15 -120.64 1128.94 -117.27 1127.68 C-115.33 1126.79 -113.4 1125.88 -111.49 1124.93 C-108.06 1123.24 -105.41 1122.57 -101.63 1122.58 C-100.88 1122.58 -100.13 1122.57 -99.36 1122.57 C-96.83 1122.71 -94.47 1123.15 -92 1123.7 C-90.3 1116.69 -89.44 1109.93 -90 1102.7 C-91.03 1101.45 -91.03 1101.45 -93.25 1101.58 C-95.96 1101.7 -98.41 1102.09 -101.06 1102.64 Z M-6.32 1189.14 C-13.04 1191.13 -19.46 1191.83 -26.47 1191.8 C-27.49 1191.8 -27.49 1191.8 -28.52 1191.8 C-30.66 1191.79 -32.8 1191.78 -34.94 1191.77 C-36.4 1191.76 -37.86 1191.76 -39.33 1191.75 C-42.89 1191.74 -46.44 1191.72 -50 1191.7 C-49.53 1198.78 -48.61 1205.48 -46.75 1212.33 C-46.54 1213.15 -46.32 1213.97 -46.09 1214.81 C-44.47 1220.67 -42.37 1225.61 -39 1230.7 C-35.84 1229.95 -35.84 1229.95 -34.07 1227.27 C-31.63 1224.24 -29.77 1222.96 -25.92 1222.4 C-19.34 1222.37 -13.53 1223.65 -7.2 1225.44 C-3.94 1226.01 -3.94 1226.01 -1.21 1224.16 C2.85 1219.64 3.25 1214.89 3.19 1208.99 C3.18 1207.13 3.18 1207.13 3.17 1205.22 C3.16 1203.94 3.14 1202.65 3.12 1201.33 C3.11 1200.02 3.1 1198.71 3.09 1197.36 C3.07 1194.14 3.04 1190.92 3 1187.7 C-0.62 1187.7 -2.91 1188.13 -6.32 1189.14 Z M-353 1197.7 C-352.13 1221.89 -352.13 1221.89 -345 1244.7 C-344.01 1245.36 -343.02 1246.02 -342 1246.7 C-341.56 1246.15 -341.11 1245.59 -340.65 1245.02 C-334.36 1237.48 -334.36 1237.48 -330 1236.7 C-324.89 1237.05 -322.83 1238.35 -319.44 1242.14 C-316.46 1245.45 -314.27 1247.33 -310 1248.7 C-307.01 1242.72 -306.12 1237.07 -305.38 1230.45 C-305.25 1229.41 -305.13 1228.36 -305 1227.28 C-303.91 1217.77 -303.33 1208.27 -303 1198.7 C-309.68 1199.32 -309.68 1199.32 -316.32 1200.27 C-328.8 1201.75 -340.71 1199.76 -353 1197.7 Z " fill="#000000" transform="translate(757.00390625,24.296875)"/>
<path d="M0 0 C6.39 4.26 11.32 8.52 12.99 16.29 C12.71 24.97 9.51 31.61 3.17 37.55 C-3.77 43.07 -11.48 46.97 -20.01 49.29 C-20.7 49.49 -21.4 49.69 -22.12 49.9 C-23.74 50.38 -25.38 50.83 -27.01 51.29 C-22.76 59.05 -16.16 62.77 -7.95 65.66 C1.9 68.45 11.97 67.88 21.99 66.29 C22.32 67.94 22.65 69.59 22.99 71.29 C16.57 74.64 11.77 75.5 4.55 75.54 C3.35 75.55 3.35 75.55 2.13 75.56 C-2.88 75.52 -7.17 74.9 -12.01 73.47 C-16.68 72.2 -18.96 72.2 -23.26 74.47 C-24.05 74.95 -24.85 75.44 -25.67 75.93 C-31.86 79.51 -39.77 80.34 -46.64 78.63 C-54.76 76.06 -59.68 72.39 -63.88 64.97 C-65.07 61.07 -65.54 57.48 -65.8 53.42 C-65.88 51.23 -65.88 51.23 -67.01 49.29 C-68.54 48.46 -70.11 47.7 -71.7 46.97 C-76.11 44.81 -79.61 42.86 -83.01 39.29 C-83.88 35.97 -83.88 35.97 -84.01 33.29 C-81.3 32.06 -81.3 32.06 -78.01 31.29 C-75.66 32.7 -75.66 32.7 -73.38 34.91 C-64.77 42.37 -55.14 43.89 -44.01 44.29 C-44.48 43.55 -44.95 42.81 -45.43 42.05 C-51.67 31.89 -56.29 21.2 -53.5 9.09 C-51.47 2.97 -48.07 -1.86 -42.38 -5.09 C-28.92 -10.41 -12.14 -6.92 0 0 Z M-49.82 50.79 C-50.98 50.88 -52.14 50.97 -53.34 51.07 C-54.66 51.17 -54.66 51.17 -56.01 51.29 C-56.38 55.97 -56.49 59.33 -54.32 63.6 C-49.89 68.74 -45.87 71.5 -39.01 72.29 C-33.72 72.29 -29.24 71.7 -25.01 68.29 C-25.01 67.63 -25.01 66.97 -25.01 66.29 C-26.2 65.22 -27.44 64.21 -28.7 63.22 C-33.11 59.5 -35.57 55.46 -38.01 50.29 C-41.97 50.23 -45.87 50.47 -49.82 50.79 Z " fill="#000000" transform="translate(725.0078125,321.71484375)"/>
<path d="M0 0 C1 0 2 0.01 3.02 0.01 C32.04 0.47 57.75 12.04 78.75 31.81 C93.8 47.81 101.58 67.21 101.35 89.01 C100.76 105.61 93.67 118.97 82.88 131.31 C82.04 132.27 82.04 132.27 81.2 133.25 C76.46 138.34 70.86 141.84 64.88 145.31 C64.09 145.77 63.31 146.22 62.51 146.69 C57.5 149.38 52.34 151.28 46.94 153 C46.31 153.2 45.67 153.41 45.02 153.61 C17.04 162.12 -12.55 157.6 -38.17 144.25 C-47.21 139.19 -54.83 132.6 -62.12 125.31 C-63.23 124.22 -63.23 124.22 -64.37 123.11 C-78.86 107.91 -85.15 87.93 -85.12 67.31 C-84.14 49.11 -74.58 33.95 -61.75 21.59 C-45.06 7.09 -21.88 -0.13 0 0 Z M-61.12 31.31 C-73.48 45.95 -76.29 62.79 -75.12 81.31 C-72.79 101.09 -59.48 117.97 -44.34 129.97 C-20.91 147.05 6.63 153.81 35.47 149.54 C54.63 146.11 71.1 135.31 82.76 119.81 C91.5 106.12 94.11 89.23 91.26 73.32 C85.98 51.31 71.89 34.23 53.08 22.16 C17.61 0.49 -31.13 0.13 -61.12 31.31 Z " fill="#000000" transform="translate(677.125,300.6875)"/>
<path d="M0 0 C2.81 1.69 2.81 1.69 4.52 3.29 C8.28 5.58 12.13 4.85 16.41 4.66 C20.17 4.54 21.59 4.54 24.81 6.69 C24.73 9.49 24.27 11.2 22.33 13.25 C19.87 15.35 17.45 17.32 14.64 18.95 C11.96 21.49 12.13 23.69 11.81 27.31 C11.09 33.48 9.83 38.28 6.81 43.69 C6.24 44.74 5.66 45.79 5.06 46.88 C0.51 52.56 -4.89 56.52 -12.19 57.69 C-17.87 57.76 -21.82 56.47 -26.19 52.69 C-32.33 44.87 -34.2 36.5 -33.19 26.69 C-31.2 17.09 -27.8 10.18 -20.81 3.38 C-14.29 -0.82 -7.51 -3.09 0 0 Z " fill="#000000" transform="translate(866.1875,288.3125)"/>
<path d="M0 0 C0.8 0.85 1.61 1.69 2.44 2.56 C5.8 5.72 9.06 5.2 13.5 5.06 C15.4 4.93 15.4 4.93 17.34 4.79 C22.7 5.1 25.58 7.5 29.19 11.31 C34.41 19.06 34.91 25.72 34 35 C32.1 43.13 28.67 50.05 22.12 55.31 C16.05 58.59 10.67 59.87 4 58 C-1.19 55.2 -4.87 52.12 -6.91 46.48 C-9.72 36.91 -9.09 30.49 -5.88 21.09 C-5.04 18.15 -4.68 16.02 -5 13 C-6.3 10.98 -7.64 8.98 -9 7 C-10.3 2.6 -10.3 2.6 -9 0 C-5.36 -1.21 -3.69 -1.01 0 0 Z " fill="#000000" transform="translate(574,209)"/>
<path d="M0 0 C0.04 1.41 0.04 1.41 0.08 2.85 C0.26 12.25 0.26 12.25 5 20 C11.33 25.45 16.27 28.3 24.81 28.12 C25.97 28.11 27.14 28.09 28.33 28.07 C29.65 28.04 29.65 28.04 31 28 C31.43 29.05 31.87 30.1 32.31 31.19 C34.73 36.69 36.88 40.88 42.15 44.08 C46.84 45.6 51.6 45.23 56.48 44.9 C61.91 44.62 64.63 45.43 69 49 C72.92 51.96 76.03 52.57 80.85 52.43 C84.31 51.74 85.88 49.7 88 47 C90.38 44.62 91.72 44.41 95 44 C95.66 44.33 96.32 44.66 97 45 C96.74 48.67 96.25 50.67 94 53.62 C87.68 58.63 81.75 60.7 73.65 60.39 C68.76 59.67 64.81 57.61 61.13 54.34 C58.25 52.53 56.64 52.95 53.31 53.44 C45.7 54.25 40.09 53.76 33.75 49.25 C29.37 45.68 26.13 41.7 23 37 C20.39 36.34 20.39 36.34 17.38 36.06 C7.22 34.57 -0.08 30.05 -6.38 21.94 C-9.61 16.1 -9.74 10.08 -8.19 3.62 C-7.8 2.76 -7.4 1.89 -7 1 C-4 0 -4 0 0 0 Z " fill="#000000" transform="translate(342,858)"/>
<path d="M0 0 C0.81 1.62 0.81 1.62 1 4 C-2.22 9.61 -6.65 11.8 -12.59 14.09 C-18.98 15.8 -26.44 16.46 -32.66 13.91 C-36.13 12.56 -37.91 13.54 -41.22 14.94 C-41.97 15.29 -42.72 15.64 -43.5 16 C-51.34 19.65 -59.54 20.35 -67.88 17.69 C-70.53 16.72 -72.17 15.87 -74.44 14.12 C-77.57 12.75 -78.07 13.18 -81.19 14.31 C-86.24 16.06 -90.89 16.38 -96.19 16.44 C-97.33 16.47 -97.33 16.47 -98.49 16.5 C-104.1 16.49 -107.39 15.21 -112 12 C-113.44 9.75 -113.44 9.75 -114 8 C-111.87 6.39 -111.87 6.39 -109 5 C-106.13 5.58 -106.13 5.58 -103.12 6.81 C-94.32 10.03 -88.92 8.9 -80.18 5.88 C-76.05 4.74 -72.73 4.18 -68.77 6.06 C-67.8 6.74 -67.8 6.74 -66.81 7.44 C-61.33 11.23 -56.55 11.57 -50 11 C-47.15 9.88 -44.85 8.57 -42.33 6.88 C-39.05 4.79 -37.24 3.99 -33.31 4.12 C-30 5 -30 5 -28.13 6.03 C-23.99 7.91 -19.44 7.54 -15 7 C-11.61 5.33 -11.61 5.33 -9 3 C-5.43 0.62 -4.43 0 0 0 Z " fill="#000000" transform="translate(703,955)"/>
<path d="M0 0 C1 3 1 3 -0.19 5.5 C-4.43 11.35 -10.11 12.87 -17 14 C-21.4 14.24 -25.78 14.13 -30.18 14.01 C-33.38 14 -35.92 14.28 -39 15 C-45.61 15.77 -50.92 14.28 -57.11 11.97 C-63.12 9.95 -66.86 9.93 -72.94 11.88 C-84.11 15.41 -96.16 17.32 -107 12 C-108.71 10.39 -108.71 10.39 -110 9 C-109.09 6.66 -108.54 5.3 -106.31 4.06 C-104 4 -104 4 -101.06 5.44 C-91.6 9.81 -79.56 6.64 -70 4 C-68.49 3.42 -66.99 2.82 -65.5 2.19 C-61.3 0.76 -59.95 1.15 -56 3 C-48.5 6.35 -40.22 8.94 -32.19 5.96 C-27.46 4.54 -23.28 5.35 -18.44 5.91 C-14.74 6.01 -12.36 5.52 -9 4 C-8.34 3.01 -7.68 2.02 -7 1 C-4 0 -4 0 0 0 Z " fill="#000000" transform="translate(713,806)"/>
<path d="M0 0 C2.26 2.1 3.89 3.77 5.25 6.56 C7.8 10.12 10.83 11.23 15 12 C17.11 11.93 19.21 11.82 21.31 11.69 C28.17 11.46 31.62 13.83 36.76 18.15 C40.91 21.57 45.08 21.12 50.19 21.06 C50.94 21.06 51.69 21.05 52.46 21.05 C54.31 21.04 56.15 21.02 58 21 C58.5 22.98 58.5 22.98 59 25 C52.55 29.01 47.51 29.7 40 29 C35.04 27.75 30.53 26.36 26.67 22.92 C23.27 20.47 20.24 20.28 16.19 20 C3.13 18.69 3.13 18.69 -1.58 13.14 C-4.08 9.48 -5.71 6.55 -5 2 C-3.35 1.34 -1.7 0.68 0 0 Z " fill="#000000" transform="translate(521,678)"/>
<path d="M0 0 C2.43 0.93 2.43 0.93 3.55 3.07 C3.92 4.39 3.92 4.39 4.3 5.74 C5.81 9.9 7.03 12.3 11.25 14.28 C13.94 15.08 16.59 15.43 19.37 15.8 C25.51 16.64 28.87 18.91 33.43 22.93 C36.5 24.46 39.7 24.03 43.05 23.99 C43.76 23.98 44.47 23.98 45.2 23.97 C46.94 23.96 48.68 23.94 50.43 23.93 C50.09 26.32 50.09 26.32 49.43 28.93 C45.28 31.69 41.39 32.84 36.43 32.93 C31.45 31.65 26.87 30.15 22.93 26.8 C20.12 24.69 18.67 24.53 15.24 24.05 C7.75 22.9 1.97 19.71 -3.13 14.11 C-4.96 10.06 -5.37 6.34 -5.57 1.93 C-2.57 -0.07 -2.57 -0.07 0 0 Z " fill="#000000" transform="translate(307.5703125,731.07421875)"/>
</svg>
