<?xml version="1.0" encoding="UTF-8"?>
<!-- Generator: visioncortex VTracer 0.6.3 -->
<svg version="1.1" xmlns="http://www.w3.org/2000/svg" width="1280" height="1280">
<path d="M0 0 C13.19 6.51 18.32 22.46 23.25 35.25 C23.51 35.91 23.77 36.57 24.03 37.25 C25.64 41.52 26.42 45.5 27 50 C27.72 53.49 28.52 56.96 29.31 60.44 C31.45 69.97 33.17 79.52 34.57 89.19 C35.31 94.62 35.31 94.62 37.62 99.49 C39.21 102.38 39.08 103.56 38.94 106.8 C38.86 113.63 40.03 120.05 41.3 126.74 C41.54 128.03 41.77 129.31 42.02 130.64 C42.52 133.34 43.02 136.05 43.53 138.75 C44.18 142.18 44.82 145.6 45.45 149.03 C46.06 152.35 46.68 155.67 47.3 158.99 C47.53 160.2 47.75 161.41 47.98 162.66 C49.46 170.49 51.15 178.25 53 186 C53.95 186.17 53.95 186.17 54.92 186.34 C65.65 188.28 76.03 191.61 86 196 C86.65 196.28 87.3 196.57 87.98 196.86 C147.34 223.03 187.27 274.85 210.46 334.23 C229.16 383.43 236.24 435 236.19 487.38 C236.19 488.58 236.19 489.78 236.19 491.02 C236.14 524.96 232.77 557.72 226 591 C226.6 590.86 227.2 590.71 227.82 590.56 C235.13 589.06 242.24 588.78 249.69 588.75 C251.15 588.74 251.15 588.74 252.64 588.72 C263.27 588.77 273.05 590.4 281.05 597.93 C287.12 604.59 288.42 609.7 288.25 618.66 C287.22 632.6 279.03 643.87 270 654 C269.49 654.57 268.99 655.13 268.47 655.72 C260.38 664.72 251.83 673.09 242.91 681.24 C240.96 683.04 239.03 684.85 237.11 686.67 C229.96 693.43 222.69 699.87 215 706 C213.82 706.97 212.64 707.94 211.47 708.91 C200.9 717.62 190.01 725.85 179 734 C178.15 734.63 177.3 735.26 176.42 735.91 C173.91 737.78 171.39 739.64 168.88 741.5 C168.08 742.09 167.29 742.68 166.47 743.29 C162.49 746.22 158.47 749.01 154.31 751.69 C149.92 754.74 147.24 758.39 144.25 762.79 C129.93 783.26 112.2 801.84 94.62 819.5 C93.98 820.15 93.34 820.79 92.68 821.46 C88.86 825.26 84.93 828.87 80.85 832.4 C78.39 834.53 76.01 836.73 73.62 838.94 C68.58 843.53 63.38 847.81 58 852 C56.69 853.04 55.38 854.08 54.07 855.12 C27.7 875.97 -0.49 893.96 -30 910 C-30.79 910.43 -31.57 910.86 -32.38 911.3 C-103.5 950.12 -183.78 972.01 -264 981 C-264.99 981.11 -265.97 981.22 -266.99 981.34 C-284.62 983.31 -302.28 984.17 -320 984.62 C-320.86 984.65 -321.72 984.67 -322.61 984.69 C-417.53 987.02 -513.68 969.38 -673 887 C-673.68 886.52 -674.37 886.05 -675.08 885.56 C-682.36 880.5 -689.56 875.37 -696.56 869.94 C-699.83 867.45 -702.67 865.51 -706.56 864.19 C-710.1 862.96 -711.34 862.31 -713 859 C-713 858.01 -713 857.02 -713 856 C-713.54 855.75 -714.09 855.51 -714.65 855.25 C-725.04 849.71 -736.1 840.47 -743 831 C-743 830.34 -743 829.68 -743 829 C-743.76 829.31 -744.52 829.62 -745.31 829.94 C-811.72 856.98 -811.72 856.98 -846.79 862.64 C-848.78 862.96 -850.76 863.32 -852.74 863.68 C-867.05 866.09 -886.79 868.08 -899.31 859.38 C-905.73 853.88 -911.41 848.5 -913 840 C-913.33 839.67 -913.66 839.34 -914 839 C-916.04 821.24 -907.85 803.91 -897.1 790.2 C-868.21 754.91 -819.81 734.2 -776 725 C-774.68 725 -773.36 725 -772 725 C-772.24 723.64 -772.24 723.64 -772.48 722.26 C-778.31 681.04 -764.11 637.49 -739.7 604.52 C-724.49 584.46 -705.42 564.09 -680 558 C-668.69 556.82 -660.66 559.29 -651.85 566.32 C-643.62 573.81 -639.4 584.36 -638.82 595.4 C-638.53 614.33 -638.73 632.45 -643 651 C-643.26 652.13 -643.51 653.26 -643.78 654.42 C-647.19 669.16 -651.18 683.66 -656 698 C-634.42 697.48 -634.42 697.48 -613 695 C-611.83 694.82 -610.65 694.64 -609.44 694.45 C-592.32 691.45 -576.18 685.36 -561 677 C-559.95 676.44 -558.89 675.87 -557.8 675.29 C-486.91 635.86 -458.1 544.8 -430.92 473.62 C-421.35 448.58 -411.76 423.55 -401 399 C-400.43 397.69 -400.43 397.69 -399.84 396.36 C-397.29 390.54 -394.67 384.76 -392 379 C-391.58 378.09 -391.16 377.17 -390.72 376.23 C-373.75 339.72 -353.16 304.21 -325.5 274.68 C-323.36 272.39 -321.29 270.06 -319.25 267.69 C-313.65 261.25 -307.52 255.49 -301 250 C-300.47 249.55 -299.94 249.1 -299.39 248.63 C-251.51 208.22 -192.35 183.05 -131 172 C-129.86 171.79 -128.73 171.58 -127.56 171.36 C-109.29 168.04 -91.49 167.65 -72.99 167.92 C-72.17 167.93 -71.35 167.94 -70.51 167.96 C-69.31 167.97 -69.31 167.97 -68.09 167.99 C-60.36 168.07 -52.7 167.62 -45 167 C-44.95 166.4 -44.9 165.8 -44.84 165.18 C-41.5 126.39 -38.17 87.74 -31 49.44 C-30.84 48.56 -30.68 47.69 -30.51 46.79 C-23.64 9.99 -23.64 9.99 -12.12 1.88 C-8.06 -0.28 -4.51 -1.2 0 0 Z M-5 17 C-9 23.37 -11.14 29.28 -12.62 36.62 C-12.83 37.58 -13.03 38.54 -13.24 39.53 C-13.65 41.45 -14.05 43.38 -14.45 45.31 C-14.94 47.71 -15.46 50.12 -15.98 52.52 C-17.24 58.44 -18.15 63.91 -18 70 C-17.31 69.3 -16.61 68.59 -15.89 67.87 C-12.9 64.87 -9.8 61.99 -6.69 59.12 C-6.12 58.6 -5.55 58.08 -4.97 57.54 C-1.16 54.04 2.69 50.59 6.61 47.21 C7.43 46.5 8.23 45.77 9 45 C8.84 35.81 5.54 26.01 -0.58 19.08 C-2.72 16.78 -2.72 16.78 -5 17 Z M-28 39 C-27 41 -27 41 -27 41 Z M10 43 C11 45 11 45 11 45 Z M5.88 67.56 C4.69 68.68 3.5 69.79 2.32 70.9 C1.46 71.71 1.46 71.71 0.58 72.53 C-1.9 74.84 -4.46 77.06 -7.03 79.28 C-9.45 81.4 -11.85 83.54 -14.25 85.69 C-15.06 86.41 -15.87 87.14 -16.7 87.89 C-17.46 88.58 -18.22 89.28 -19 90 C-19.68 90.58 -20.37 91.16 -21.07 91.76 C-23.45 94.53 -23.73 96.29 -24.2 99.88 C-24.35 101.04 -24.51 102.2 -24.67 103.4 C-24.82 104.63 -24.97 105.86 -25.12 107.12 C-25.37 109.01 -25.37 109.01 -25.62 110.93 C-26.1 114.62 -26.55 118.31 -27 122 C-27.18 123.46 -27.18 123.46 -27.37 124.95 C-27.67 127.38 -27.97 129.81 -28.25 132.25 C-28.33 132.93 -28.41 133.61 -28.49 134.32 C-28.99 138.92 -29.22 143.38 -29 148 C-28.34 148.66 -27.68 149.32 -27 150 C-27 149.34 -27 148.68 -27 148 C-25.95 147.64 -25.95 147.64 -24.88 147.28 C-14.38 142.62 -5.23 132.9 3 125 C3.73 124.3 3.73 124.3 4.48 123.59 C7.73 120.47 10.89 117.27 14 114 C14.75 113.23 15.5 112.46 16.28 111.66 C18.86 108.74 20.83 106.52 21.27 102.57 C21.05 99.96 20.6 97.55 20 95 C19.64 93.25 19.29 91.5 18.94 89.75 C18.76 88.93 18.58 88.11 18.4 87.26 C17.91 84.49 18 81.81 18 79 C17.68 78.4 17.36 77.8 17.04 77.19 C15.77 74.52 15.62 72.31 15.44 69.38 C15.26 65.54 15.26 65.54 14 62 C10.5 62 8.3 65.25 5.88 67.56 Z M15 68 C16 70 16 70 16 70 Z M-34 72 C-33 75 -33 75 -33 75 Z M-36 87 C-35 89 -35 89 -35 89 Z M-37 94 C-36 97 -36 97 -36 97 Z M-38 104 C-37 106 -37 106 -37 106 Z M-39 112 C-38 115 -38 115 -38 115 Z M-40 122 C-39 125 -39 125 -39 125 Z M24 124 C23.35 124.74 22.69 125.48 22.02 126.24 C8.15 141.73 -7.16 154.14 -24.99 164.83 C-28.58 166.82 -28.58 166.82 -31 170 C-31.02 171.6 -30.99 173.21 -30.94 174.81 C-30.89 178.88 -31.2 182.61 -31.93 186.61 C-33.27 194.95 -33.67 203.31 -34.06 211.74 C-34.19 214.46 -34.33 217.17 -34.47 219.89 C-34.56 221.63 -34.65 223.38 -34.73 225.12 C-34.77 225.92 -34.82 226.73 -34.86 227.56 C-35.05 231.86 -34.9 235.75 -34 240 C-33.5 239.01 -33.5 239.01 -33 238 C-31.67 237.33 -30.33 236.66 -29 236 C-19.66 229.41 -11.21 221.93 -3 214 C-2.38 213.4 -1.76 212.8 -1.11 212.18 C8.67 202.69 17.82 193.04 25.42 181.66 C27.61 179.36 30.13 178.3 33 177 C31.8 165.63 30.19 154.37 28.32 143.09 C27.58 138.45 26.89 134.05 27.07 129.35 C27.05 128.24 27.02 127.14 27 126 C26.01 125.34 25.02 124.68 24 124 Z M27 132 C28 134 28 134 28 134 Z M28 138 C29 140 29 140 29 140 Z M-42 143 C-42 144.65 -42 146.3 -42 148 C-41.67 148 -41.34 148 -41 148 C-41 146.35 -41 144.7 -41 143 C-41.33 143 -41.66 143 -42 143 Z M30 151 C31 153 31 153 31 153 Z M-43 156 C-42 158 -42 158 -42 158 Z M31 157 C32 160 32 160 32 160 Z M-102 169 C-102 169.33 -102 169.66 -102 170 C-100.35 170 -98.7 170 -97 170 C-97 169.67 -97 169.34 -97 169 C-98.65 169 -100.3 169 -102 169 Z M-44 167 C-44 167.66 -44 168.32 -44 169 C-45.65 169 -47.3 169 -49 169 C-49 169.33 -49 169.66 -49 170 C-47.02 170 -45.04 170 -43 170 C-43.33 169.01 -43.66 168.02 -44 167 Z M33 171 C34 173 34 173 34 173 Z M-283 256 C-283.95 256.75 -284.91 257.49 -285.89 258.26 C-301.56 270.98 -316.97 285.93 -328.78 302.33 C-330.11 304.15 -331.49 305.92 -332.89 307.7 C-340.87 317.93 -347.56 328.75 -354 340 C-354.43 340.75 -354.86 341.5 -355.3 342.27 C-358.27 347.48 -361.15 352.73 -364 358 C-364.44 358.81 -364.88 359.62 -365.34 360.46 C-379.79 387.04 -391.96 414.85 -403 443 C-403.42 444.08 -403.42 444.08 -403.86 445.18 C-409.96 460.71 -416.01 476.26 -422.02 491.83 C-435.13 525.78 -448.59 559.49 -465 592 C-465.43 592.86 -465.87 593.73 -466.31 594.62 C-478.42 618.56 -493.65 640.41 -512 660 C-512.49 660.52 -512.97 661.05 -513.47 661.59 C-542.28 692.51 -579.73 707.06 -621 712 C-622 712.13 -623 712.27 -624.03 712.4 C-636.69 713.87 -649.9 713.55 -662.56 712.25 C-663.26 712.19 -663.95 712.13 -664.67 712.06 C-667.81 711.69 -669.89 711.07 -672.53 709.3 C-674.55 706.14 -673.78 704.6 -673 701 C-672.52 699.23 -672.01 697.48 -671.47 695.73 C-667.06 681.12 -663.38 666.47 -660.12 651.56 C-659.93 650.69 -659.74 649.81 -659.54 648.91 C-656.27 633.99 -653.65 619.72 -653.75 604.38 C-653.74 603.12 -653.73 601.87 -653.73 600.58 C-653.73 599.39 -653.73 598.19 -653.73 596.96 C-653.74 595.35 -653.74 595.35 -653.74 593.7 C-653.81 590.78 -653.81 590.78 -656 588 C-656.61 586.69 -657.22 585.38 -657.81 584.06 C-660.32 578.99 -663.86 576.25 -669 574 C-679.05 571.86 -687.79 576.72 -696 582 C-700.66 585.31 -704.85 589.09 -709 593 C-709.85 593.77 -710.7 594.54 -711.57 595.33 C-723.85 606.93 -733.4 620.99 -741 636 C-741.32 636.63 -741.64 637.26 -741.98 637.91 C-748 649.89 -752.28 662.25 -755.25 675.31 C-755.41 676.03 -755.58 676.75 -755.74 677.48 C-757.71 686.64 -758.16 695.72 -758.12 705.06 C-758.13 705.99 -758.13 706.92 -758.14 707.88 C-758.13 712.99 -757.86 717.96 -757.24 723.04 C-756.94 725.51 -756.8 727.95 -756.75 730.44 C-756.71 731.67 -756.71 731.67 -756.67 732.93 C-756.83 733.96 -756.83 733.96 -757 735 C-759.77 736.85 -761.27 737.45 -764.41 738.19 C-765.75 738.52 -765.75 738.52 -767.12 738.85 C-768.09 739.09 -769.06 739.32 -770.06 739.56 C-790.49 744.72 -810.02 751.89 -829 761 C-830.37 761.64 -831.75 762.28 -833.12 762.92 C-859.14 775.27 -887.15 792.74 -899 820 C-901.23 826.69 -900.78 833.18 -897.69 839.5 C-896.11 842.42 -894.56 844.85 -892 847 C-890.34 847.36 -888.67 847.69 -887 848 C-886.67 848.66 -886.34 849.32 -886 850 C-862.63 854.67 -838.99 847.13 -817 840 C-816.23 839.75 -815.47 839.5 -814.67 839.25 C-792.82 832.15 -771.37 824.62 -750.49 814.99 C-746.85 813.54 -744.01 812.85 -740.12 813.44 C-736.49 815.26 -734.85 817.23 -732.3 820.33 C-723.84 830.15 -714.3 839.13 -704 847 C-703.42 847.51 -702.84 848.02 -702.25 848.54 C-699.39 850.4 -697.15 850.66 -693.77 851.06 C-692.51 851.22 -691.25 851.37 -689.95 851.53 C-688.57 851.69 -687.19 851.85 -685.81 852 C-684.37 852.17 -682.93 852.34 -681.49 852.51 C-643.62 856.92 -605.74 859.37 -567.61 859.26 C-563.71 859.25 -559.82 859.26 -555.92 859.27 C-534.54 859.32 -513.32 858.54 -492 857 C-491.06 856.93 -490.12 856.87 -489.15 856.8 C-484.41 856.45 -479.67 856.06 -474.94 855.62 C-474.25 855.56 -473.57 855.5 -472.87 855.44 C-467.91 854.98 -462.95 854.5 -458 854 C-456.05 853.8 -456.05 853.8 -454.06 853.6 C-421.36 850.2 -388.9 844.47 -356.75 837.69 C-355.97 837.52 -355.19 837.36 -354.38 837.19 C-350.81 836.43 -347.25 835.66 -343.7 834.83 C-341.36 834.31 -339.02 833.83 -336.66 833.42 C-331.46 832.47 -331.46 832.47 -327.56 829.19 C-326.44 826.82 -325.7 824.52 -325 822 C-324.73 821.19 -324.46 820.37 -324.19 819.54 C-323.3 816.81 -322.52 814.07 -321.75 811.31 C-321.31 809.75 -321.31 809.75 -320.87 808.15 C-318.1 797.91 -315.86 787.57 -313.69 777.19 C-313.43 775.97 -313.43 775.97 -313.17 774.72 C-311.42 766.33 -309.72 757.98 -308.6 749.47 C-307.88 746.52 -306.77 744.46 -305 742 C-302.12 740.88 -302.12 740.88 -299 741 C-296.06 742.81 -296.06 742.81 -294 746 C-293.64 754.23 -296.23 762.88 -297.94 770.88 C-298.09 771.58 -298.24 772.29 -298.39 773.02 C-319.22 870.12 -319.22 870.12 -348.25 898.85 C-350.23 901.28 -350.75 902.9 -351 906 C-349.22 907.78 -346.86 907.34 -344.44 907.44 C-319.65 907.19 -293.46 895.73 -272 884 C-270.26 883.06 -270.26 883.06 -268.48 882.11 C-235.76 864.03 -204.75 837.39 -180.63 808.91 C-178.66 806.6 -176.61 804.37 -174.56 802.12 C-170.83 797.99 -167.33 793.72 -163.89 789.35 C-162.21 787.27 -160.48 785.29 -158.69 783.31 C-145.62 768.51 -133.82 751.66 -131.69 731.63 C-130.84 728.37 -129.62 727.07 -127 725 C-123.85 724.55 -121.96 724.3 -119.34 726.22 C-116.18 730.42 -117.71 736.91 -118.4 741.83 C-120.06 749.72 -123.52 756.47 -127.26 763.53 C-128.6 766.2 -129.38 768.16 -130 771 C-126.15 771 -123.2 769.6 -119.7 768.14 C-118.97 767.84 -118.24 767.54 -117.48 767.23 C-115.9 766.58 -114.31 765.93 -112.73 765.27 C-108.53 763.54 -104.32 761.83 -100.12 760.11 C-99.26 759.77 -98.41 759.42 -97.53 759.06 C-60.14 743.83 -60.14 743.83 -42.11 738.61 C-39.97 737.99 -37.83 737.33 -35.7 736.68 C-11.71 729.44 15.08 725.62 40 730 C40.33 730.66 40.66 731.32 41 732 C43.33 732.39 43.33 732.39 46 732.5 C48.75 732.66 48.75 732.66 51 733 C51.33 733.66 51.66 734.32 52 735 C53.75 735.7 53.75 735.7 55.88 736.25 C75.38 742.5 90.52 757.05 100.27 774.61 C102.01 778.03 103.53 781.46 105 785 C107.86 782.23 110.43 779.35 112.94 776.25 C113.72 775.28 114.51 774.31 115.32 773.3 C115.75 772.77 116.18 772.24 116.62 771.7 C118.09 769.9 119.57 768.11 121.05 766.32 C128.88 756.87 136.09 747.13 143 737 C143.5 736.26 144.01 735.53 144.53 734.77 C151.82 724.11 158.63 713.24 165 702 C165.46 701.2 165.92 700.4 166.39 699.58 C194.3 650.85 210.84 596.57 218 541 C218.27 539.07 218.27 539.07 218.54 537.11 C220.44 522.32 220.39 507.47 220.38 492.59 C220.37 490.42 220.38 488.24 220.38 486.07 C220.38 465.9 219.68 446.14 216.45 426.2 C215.82 421.73 215.56 417.26 215.34 412.75 C215 410.01 214.31 408.39 213 406 C212.59 403.2 212.59 403.2 212.38 400.25 C212.26 398.77 212.26 398.77 212.15 397.27 C212.1 396.52 212.05 395.77 212 395 C211.34 395 210.68 395 210 395 C209.9 393.93 209.79 392.86 209.69 391.75 C209.11 386.96 207.88 382.39 206.62 377.73 C206 375 206 375 206 371 C205.34 371 204.68 371 204 371 C204 368.69 204 366.38 204 364 C203.34 364 202.68 364 202 364 C202.33 363.01 202.66 362.02 203 361 C202.34 361 201.68 361 201 361 C201 359.02 201 357.04 201 355 C200.34 355 199.68 355 199 355 C199 353.02 199 351.04 199 349 C198.34 349 197.68 349 197 349 C196.67 346.36 196.34 343.72 196 341 C195.34 341 194.68 341 194 341 C193.88 340.29 193.76 339.57 193.64 338.84 C192.97 335.88 191.99 333.35 190.78 330.57 C190.33 329.54 189.87 328.5 189.41 327.43 C188.92 326.34 188.44 325.25 187.94 324.12 C187.44 323 186.94 321.87 186.42 320.71 C174.65 294.46 159.02 270.71 139 250 C138.33 249.28 137.65 248.55 136.96 247.8 C116.78 226.6 88.02 210.94 60 203 C58.33 202.96 56.67 202.95 55 203 C54.74 211.32 55.63 219.39 56.65 227.63 C58.27 240.73 59.74 253.78 60 267 C60.02 267.81 60.04 268.63 60.06 269.47 C60.12 272.02 60.16 274.57 60.19 277.12 C60.21 278.26 60.21 278.26 60.23 279.42 C60.24 289.15 58.03 297.25 52 305 C37.28 319.75 15.49 323.08 -4.56 323.31 C-39.39 323.22 -39.39 323.22 -49.1 315.28 C-51.45 312.46 -51.48 311.16 -51.44 307.53 C-51.43 306.43 -51.42 305.34 -51.42 304.21 C-51.39 303.02 -51.36 301.83 -51.33 300.61 C-51.32 299.37 -51.3 298.12 -51.28 296.84 C-51.06 282.97 -50.41 269.11 -49.69 255.25 C-49.59 253.26 -49.49 251.27 -49.39 249.27 C-48.28 227.49 -46.83 205.74 -45 184 C-52.31 182.84 -59.49 182.8 -66.88 182.81 C-67.94 182.81 -67.94 182.81 -69.03 182.82 C-145.96 183.03 -222.73 207.86 -283 256 Z M34 194 C32.71 195.64 31.49 197.34 30.31 199.06 C27.37 203.22 24.39 206.83 20.71 210.33 C18.9 212.1 17.27 213.95 15.62 215.88 C9.28 223.19 2.44 229.64 -5.12 235.68 C-8.11 238.09 -11.02 240.57 -13.94 243.06 C-27.71 254.57 -27.71 254.57 -35 257 C-36.3 260.26 -36.2 263.74 -36.32 267.21 C-36.36 268.43 -36.4 269.65 -36.44 270.91 C-36.48 272.19 -36.52 273.48 -36.56 274.81 C-36.6 276.12 -36.65 277.42 -36.69 278.77 C-36.96 287.52 -37.14 296.25 -37 305 C-30.9 306.19 -27.98 306.14 -22.5 302.81 C-21.91 302.45 -21.32 302.1 -20.71 301.73 C0.92 288.28 22.66 270.27 37.27 249.29 C39 247 39 247 42 245 C41.31 238.86 40.61 232.72 39.92 226.59 C39.68 224.5 39.45 222.41 39.21 220.33 C38.87 217.32 38.53 214.31 38.19 211.31 C38.09 210.38 37.98 209.46 37.88 208.5 C37.32 203.65 36.72 198.83 36 194 C35.34 194 34.68 194 34 194 Z M-46 195 C-45 197 -45 197 -45 197 Z M-47 207 C-47 208.98 -47 210.96 -47 213 C-46.67 213 -46.34 213 -46 213 C-46 211.02 -46 209.04 -46 207 C-46.33 207 -46.66 207 -47 207 Z M38 208 C39 210 39 210 39 210 Z M39 216 C40 219 40 219 40 219 Z M-48 224 C-48 225.98 -48 227.96 -48 230 C-47.67 230 -47.34 230 -47 230 C-47 228.02 -47 226.04 -47 224 C-47.33 224 -47.66 224 -48 224 Z M41 232 C42 235 42 235 42 235 Z M42 240 C43 243 43 243 43 243 Z M-49 245 C-48 247 -48 247 -48 247 Z M-50 260 C-50 263.3 -50 266.6 -50 270 C-49.67 270 -49.34 270 -49 270 C-49 266.7 -49 263.4 -49 260 C-49.33 260 -49.66 260 -50 260 Z M43 265 C42.6 265.46 42.2 265.92 41.79 266.4 C39.86 268.6 37.93 270.8 36 273 C35.3 273.81 34.6 274.61 33.88 275.44 C23.64 287.08 11.47 298.04 -1.88 306.06 C-2.91 306.7 -3.94 307.34 -5 308 C-5 308.66 -5 309.32 -5 310 C-2.29 311.35 0.01 311.07 3 311 C3 310.67 3 310.34 3 310 C4.16 309.84 5.32 309.68 6.52 309.52 C21.07 307.4 32.76 304.34 43 293 C45.9 289.07 46.44 286.03 46.69 281.19 C46.75 280.03 46.82 278.86 46.89 277.67 C46.92 276.79 46.96 275.91 47 275 C46.67 275 46.34 275 46 275 C46.06 273.91 46.12 272.81 46.19 271.69 C46.39 268.08 46.39 268.08 44.49 266.27 C43.75 265.64 43.75 265.64 43 265 Z M-51 285 C-51 287.31 -51 289.62 -51 292 C-50.67 292 -50.34 292 -50 292 C-50 289.69 -50 287.38 -50 285 C-50.33 285 -50.66 285 -51 285 Z M213 404 C214 406 214 406 214 406 Z M216 421 C217 423 217 423 217 423 Z M218 436 C219 438 219 438 219 438 Z M219 444 C220 448 220 448 220 448 Z M221 472 C221 483.88 221 495.76 221 508 C221.33 508 221.66 508 222 508 C222 496.12 222 484.24 222 472 C221.67 472 221.34 472 221 472 Z M219 531 C220 535 220 535 220 535 Z M218 541 C219 543 219 543 219 543 Z M216 555 C217 557 217 557 217 557 Z M214 567 C215 569 215 569 215 569 Z M213 572 C214 574 214 574 214 574 Z M232 605.31 C231.16 605.43 230.33 605.55 229.46 605.67 C228.67 605.79 227.88 605.92 227.06 606.05 C226 606.22 226 606.22 224.91 606.38 C222.42 607.19 221.57 607.88 220 610 C219.02 612.49 218.16 614.92 217.36 617.46 C217.12 618.21 216.88 618.95 216.64 619.71 C216.12 621.29 215.61 622.88 215.1 624.47 C213.78 628.61 212.41 632.74 211.05 636.86 C210.78 637.67 210.52 638.48 210.24 639.31 C207.23 648.39 203.85 657.25 200 666 C199.35 667.48 199.35 667.48 198.69 668.99 C192.9 682.06 186.73 694.81 179.66 707.24 C179.18 708.08 178.7 708.93 178.2 709.81 C177.78 710.55 177.35 711.29 176.91 712.05 C175.79 714.09 175.79 714.09 176 717 C176.66 717 177.32 717 178 717 C178 716.34 178 715.68 178 715 C178.59 714.72 179.18 714.44 179.78 714.16 C181.86 713.07 183.63 711.9 185.5 710.5 C186.48 709.76 186.48 709.76 187.48 709.02 C188.51 708.23 188.51 708.23 189.56 707.44 C190.28 706.9 190.99 706.36 191.73 705.8 C197.61 701.34 203.36 696.76 209 692 C209.53 691.55 210.07 691.1 210.62 690.64 C224.51 678.94 238.28 666.93 250 653 C250.49 652.41 250.99 651.83 251.5 651.23 C253.22 649.18 254.92 647.12 256.62 645.06 C257.18 644.41 257.73 643.75 258.29 643.07 C265.9 633.8 269.67 626.06 269 614 C268.78 611.08 268.78 611.08 267 609 C255.85 602.47 244.32 603.49 232 605.31 Z M-655 625 C-654 627 -654 627 -654 627 Z M-771 682 C-770 684 -770 684 -770 684 Z M-772 692 C-771 694 -771 694 -771 694 Z M-629 698 C-625 699 -625 699 -625 699 Z M-772 716 C-771 718 -771 718 -771 718 Z M174 718 C173.67 718.66 173.34 719.32 173 720 C173.66 720 174.32 720 175 720 C174.67 719.34 174.34 718.68 174 718 Z M-75.06 767.52 C-90.61 773.71 -106.32 779.46 -122.04 785.23 C-125.58 786.53 -129.12 787.83 -132.66 789.14 C-134.79 789.92 -136.93 790.7 -139.07 791.47 C-140.22 791.89 -141.36 792.31 -142.55 792.75 C-143.98 793.27 -143.98 793.27 -145.43 793.8 C-150.35 796.1 -153.59 799.51 -156.88 803.75 C-162.02 810.17 -167.62 816.09 -173.27 822.05 C-176.1 825.03 -178.87 828.04 -181.62 831.09 C-185.39 835.27 -189.16 839.22 -193.52 842.78 C-196.39 845.15 -198.92 847.86 -201.48 850.55 C-206.13 855.35 -211.18 859.54 -216.4 863.71 C-218.08 865.07 -219.75 866.44 -221.41 867.82 C-256.64 896.83 -305.69 924.58 -353 921 C-359.04 920.03 -363.25 917.89 -366.96 912.95 C-368.77 909.56 -368.87 906.63 -368 903 C-366.1 897.64 -362.74 893.62 -358.96 889.44 C-348.98 878.37 -341.66 865.48 -335.78 851.81 C-335.22 850.52 -334.63 849.25 -334 848 C-341.26 849.11 -348.45 850.47 -355.64 851.95 C-380.34 857.04 -405.02 861.58 -430 865 C-430.72 865.1 -431.43 865.2 -432.17 865.3 C-442.43 866.7 -452.7 867.91 -463 869 C-464.97 869.21 -464.97 869.21 -466.97 869.43 C-512.06 874.15 -557.73 874.92 -603 873 C-603.81 872.97 -604.63 872.93 -605.47 872.9 C-626.14 872.03 -646.7 870.46 -667.27 868.24 C-670.21 867.94 -670.21 867.94 -674 868 C-672.87 871.38 -672.41 871.66 -669.52 873.46 C-668.41 874.16 -668.41 874.16 -667.28 874.87 C-666.46 875.37 -665.65 875.86 -664.81 876.38 C-663.96 876.9 -663.11 877.43 -662.23 877.97 C-659.5 879.66 -656.75 881.33 -654 883 C-653.14 883.53 -652.27 884.06 -651.38 884.61 C-636.31 893.82 -620.79 902.08 -605 910 C-604.07 910.47 -603.15 910.93 -602.19 911.41 C-582.88 921.03 -562.83 928.91 -542.62 936.44 C-541.55 936.84 -540.48 937.24 -539.37 937.65 C-526.98 942.78 -526.98 942.78 -514 945 C-513.67 945.66 -513.34 946.32 -513 947 C-511.02 947 -509.04 947 -507 947 C-506.67 947.66 -506.34 948.32 -506 949 C-503.67 949.39 -503.67 949.39 -501 949.5 C-498.25 949.66 -498.25 949.66 -496 950 C-495.67 950.66 -495.34 951.32 -495 952 C-492.45 952.39 -492.45 952.39 -489.5 952.5 C-486.47 952.66 -486.47 952.66 -484 953 C-483.67 953.66 -483.34 954.32 -483 955 C-480.43 955.59 -480.43 955.59 -477.31 955.95 C-471.38 956.77 -465.57 957.87 -459.72 959.11 C-374.69 976.99 -284.97 974.59 -3.33 876.91 C21.69 860.52 45.51 842.5 67.53 822.25 C69.59 820.37 71.69 818.55 73.81 816.75 C75.21 815.51 76.61 814.26 78 813 C78.57 812.5 79.14 812 79.72 811.48 C81.7 809.72 83.63 807.93 85.56 806.12 C86.53 805.28 86.53 805.28 87.52 804.41 C90.92 801.18 90.92 801.18 92.26 796.82 C92.05 794.45 91.62 792.3 91 790 C90.83 789.33 90.65 788.67 90.47 787.98 C86.32 773.85 78.99 762.49 66 755 C64.83 754.31 64.83 754.31 63.64 753.61 C20.98 730.43 -33.78 751.03 -75.06 767.52 Z M-308 747 C-307 749 -307 749 -307 749 Z M-311 763 C-310 765 -310 765 -310 765 Z M-313 773 C-312 775 -312 775 -312 775 Z M-316 787 C-315 789 -315 789 -315 789 Z M-913 826 C-912 828 -912 828 -912 828 Z M-640 857 C-640 857.33 -640 857.66 -640 858 C-638.35 858 -636.7 858 -635 858 C-635 857.67 -635 857.34 -635 857 C-636.65 857 -638.3 857 -640 857 Z M-492 857 C-492 857.33 -492 857.66 -492 858 C-490.02 858 -488.04 858 -486 858 C-486 857.67 -486 857.34 -486 857 C-487.98 857 -489.96 857 -492 857 Z M-626 858 C-622 859 -622 859 -622 859 Z M-504 858 C-500 859 -500 859 -500 859 Z M-607 859 C-607 859.33 -607 859.66 -607 860 C-604.69 860 -602.38 860 -600 860 C-600 859.67 -600 859.34 -600 859 C-602.31 859 -604.62 859 -607 859 Z M-526 859 C-526 859.33 -526 859.66 -526 860 C-523.69 860 -521.38 860 -519 860 C-519 859.67 -519 859.34 -519 859 C-521.31 859 -523.62 859 -526 859 Z M-574 860 C-574 860.33 -574 860.66 -574 861 C-566.74 861 -559.48 861 -552 861 C-552 860.67 -552 860.34 -552 860 C-559.26 860 -566.52 860 -574 860 Z M-347 908 C-347 908.33 -347 908.66 -347 909 C-345.02 909 -343.04 909 -341 909 C-341 908.67 -341 908.34 -341 908 C-342.98 908 -344.96 908 -347 908 Z M-404 968 C-400 969 -400 969 -400 969 Z M-381 970 C-381 970.33 -381 970.66 -381 971 C-379.02 971 -377.04 971 -375 971 C-375 970.67 -375 970.34 -375 970 C-376.98 970 -378.96 970 -381 970 Z M-299 970 C-299 970.33 -299 970.66 -299 971 C-297.02 971 -295.04 971 -293 971 C-293 970.67 -293 970.34 -293 970 C-294.98 970 -296.96 970 -299 970 Z M-362 971 C-362 971.33 -362 971.66 -362 972 C-359.03 972 -356.06 972 -353 972 C-353 971.67 -353 971.34 -353 971 C-355.97 971 -358.94 971 -362 971 Z M-321 971 C-321 971.33 -321 971.66 -321 972 C-318.03 972 -315.06 972 -312 972 C-312 971.67 -312 971.34 -312 971 C-314.97 971 -317.94 971 -321 971 Z " fill="#373A3B" transform="translate(952,147)"/>
<path d="M0 0 C3.71 0.93 5.07 2.69 7.5 5.62 C8.74 8.55 9.44 11.53 10.12 14.62 C10.43 15.95 10.43 15.95 10.74 17.31 C11.36 20.07 11.94 22.85 12.5 25.62 C12.67 26.45 12.84 27.28 13.01 28.13 C17.98 53.75 19.74 85.22 4.77 107.89 C2.91 110.43 0.84 112.51 -1.5 114.62 C-2.07 115.19 -2.65 115.76 -3.24 116.34 C-14.19 126.72 -28.11 128.23 -42.57 127.93 C-53.12 127.45 -60.79 123.69 -68.5 116.62 C-69.64 115.6 -69.64 115.6 -70.81 114.56 C-81.81 104.19 -88.15 90.93 -92.5 76.62 C-92.77 75.77 -93.04 74.91 -93.31 74.02 C-94.58 69.9 -95.71 65.86 -96.5 61.62 C-96.62 61 -96.74 60.38 -96.86 59.74 C-98.77 49.41 -99.85 39.2 -100 28.69 C-100.03 27.66 -100.06 26.64 -100.09 25.58 C-100.09 20.79 -100.08 18.41 -97.16 14.47 C-94.5 12.62 -94.5 12.62 -91.44 12.06 C-87.67 12.78 -86.74 13.5 -84.5 16.62 C-83.91 19.89 -83.95 23.13 -83.94 26.44 C-83.28 51.96 -80.39 84.16 -61.5 103.62 C-58.6 105.98 -58.6 105.98 -55.5 107.62 C-54.66 108.15 -53.81 108.67 -52.95 109.2 C-48.34 111.11 -44.31 111.12 -39.38 111.06 C-38.44 111.05 -37.51 111.05 -36.54 111.04 C-26.45 110.79 -17.7 108.97 -10.25 101.74 C1.06 88.06 1.68 70.13 0.12 53.18 C-0.81 44.04 -2.17 35.05 -4.03 26.05 C-4.41 24.07 -4.69 22.07 -4.94 20.06 C-5.29 16.77 -5.29 16.77 -6.56 14.62 C-8.05 11.46 -7.92 9.07 -7.5 5.62 C-5.21 2.56 -3.74 0.94 0 0 Z M-0.5 37.62 C0.5 39.62 0.5 39.62 0.5 39.62 Z M-98.5 38.62 C-97.5 41.62 -97.5 41.62 -97.5 41.62 Z M-97.5 47.62 C-96.5 50.62 -96.5 50.62 -96.5 50.62 Z M1.5 51.62 C1.5 53.61 1.5 55.59 1.5 57.62 C1.83 57.62 2.16 57.62 2.5 57.62 C2.5 55.64 2.5 53.66 2.5 51.62 C2.17 51.62 1.84 51.62 1.5 51.62 Z M1.5 70.62 C1.5 72.27 1.5 73.92 1.5 75.62 C1.83 75.62 2.16 75.62 2.5 75.62 C2.5 73.98 2.5 72.33 2.5 70.62 C2.17 70.62 1.84 70.62 1.5 70.62 Z M-41.5 112.62 C-41.5 112.96 -41.5 113.28 -41.5 113.62 C-38.86 113.62 -36.22 113.62 -33.5 113.62 C-33.5 113.29 -33.5 112.97 -33.5 112.62 C-36.14 112.62 -38.78 112.62 -41.5 112.62 Z " fill="#373A3B" transform="translate(1069.5,590.375)"/>
<path d="M0 0 C1.81 1.12 1.81 1.12 3 3 C3.66 10.4 1.62 16.72 -0.56 23.75 C-1.11 25.55 -1.11 25.55 -1.67 27.39 C-4.84 37.7 -8.22 47.9 -12 58 C-12.39 59.04 -12.78 60.08 -13.18 61.16 C-19.36 77.52 -26.11 93.53 -33.7 109.29 C-34.84 111.67 -35.96 114.07 -37.07 116.48 C-37.64 117.66 -38.22 118.84 -38.81 120.06 C-39.27 121.02 -39.73 121.98 -40.21 122.97 C-42 125 -42 125 -45.52 125.91 C-49 126 -49 126 -51.88 124.44 C-54.46 121.47 -54.73 119.89 -55 116 C-54.09 113.27 -54.09 113.27 -52.64 110.46 C-52.11 109.4 -51.57 108.34 -51.03 107.25 C-50.15 105.55 -50.15 105.55 -49.25 103.81 C-48.03 101.37 -46.82 98.92 -45.61 96.46 C-45.31 95.84 -45 95.21 -44.68 94.57 C-31.89 68.4 -22.1 39.9 -14.14 11.89 C-11.2 1.69 -11.2 1.69 -7.12 -1.44 C-4.12 -2.23 -2.7 -1.45 0 0 Z " fill="#373A3B" transform="translate(575,601)"/>
<path d="M0 0 C2.26 1.74 2.93 2.57 3.39 5.43 C3.39 6.38 3.39 7.33 3.4 8.3 C3.4 9.36 3.41 10.41 3.42 11.49 C3.4 12.61 3.39 13.73 3.38 14.88 C3.36 16.01 3.35 17.14 3.34 18.31 C3.09 32.21 1.09 43.29 -9.19 53.38 C-15.06 58.01 -22.27 59.33 -29.62 59.06 C-37.92 57.95 -44.03 52.86 -49.23 46.54 C-51.49 43.3 -53.47 39.96 -55.38 36.5 C-55.89 35.57 -55.89 35.57 -56.42 34.63 C-59.23 29.31 -60.55 24.18 -59.5 18.12 C-58 16 -58 16 -54.69 14.44 C-51 14 -51 14 -48.49 15.48 C-45.35 18.65 -44.04 21.76 -42.44 25.88 C-39.2 34.65 -39.2 34.65 -33.02 41.34 C-29.27 42.56 -25.88 42.73 -22 42 C-17.53 39.71 -15.44 37.32 -13.84 32.55 C-12.38 25.97 -12.57 19.19 -12.43 12.49 C-12.39 10.94 -12.39 10.94 -12.34 9.36 C-12.33 8.43 -12.31 7.49 -12.29 6.53 C-11.99 3.87 -11.44 2.24 -10 0 C-6.06 -2.34 -3.97 -2.19 0 0 Z M-11 15 C-11 16.98 -11 18.96 -11 21 C-10.67 21 -10.34 21 -10 21 C-10 19.02 -10 17.04 -10 15 C-10.33 15 -10.66 15 -11 15 Z M-12 28 C-11 30 -11 30 -11 30 Z " fill="#373A3B" transform="translate(943,536)"/>
<path d="M0 0 C3.7 2.54 4.72 5.41 5.63 9.73 C7.61 21.86 9.39 37.55 2.31 48.38 C-3.56 55.64 -9.87 59.06 -19.1 60.28 C-27.14 60.68 -33.16 58.05 -39.19 52.94 C-46.67 45.79 -51.84 37.34 -52.44 26.88 C-52.35 23.2 -52.24 22.3 -49.88 19.31 C-46.29 17.68 -44.72 17.74 -41 19 C-38.48 20.68 -37.26 22 -36.49 24.95 C-36.2 26.48 -35.91 28.01 -35.62 29.55 C-34.44 34.21 -32.27 39.48 -28.18 42.22 C-23.87 43.76 -19.48 43.78 -15 43 C-11.7 40.72 -10.26 37.78 -9 34 C-8.77 30.86 -8.81 27.71 -8.81 24.56 C-8.79 23.27 -8.79 23.27 -8.78 21.96 C-8.77 21.13 -8.77 20.3 -8.77 19.44 C-8.77 18.69 -8.76 17.93 -8.76 17.15 C-9.03 14.72 -9.91 13.17 -11 11 C-10.68 4.88 -10.68 4.88 -8.56 2.12 C-5.61 0 -3.62 -0.43 0 0 Z M-23 45 C-23 45.33 -23 45.66 -23 46 C-21.35 46 -19.7 46 -18 46 C-18 45.67 -18 45.34 -18 45 C-19.65 45 -21.3 45 -23 45 Z " fill="#373A3B" transform="translate(1121,489)"/>
<path d="M0 0 C2.9 2.59 3.87 4.22 4.5 8.06 C4 11 4 11 2.44 13.44 C0 15 0 15 -3.62 15 C-7 14 -7 14 -8.44 11.94 C-8.62 11.3 -8.81 10.66 -9 10 C-9.66 10 -10.32 10 -11 10 C-10.52 3.59 -10.52 3.59 -8.31 1.06 C-5.23 -0.35 -3.35 -0.56 0 0 Z " fill="#373A3B" transform="translate(508,752)"/>
<path d="M0 0 C7.92 0 15.84 0 24 0 C24 0.33 24 0.66 24 1 C16.08 1 8.16 1 0 1 C0 0.67 0 0.34 0 0 Z " fill="#373A3B" transform="translate(867,314)"/>
<path d="M0 0 C1 4 1 4 1 4 Z " fill="#373A3B" transform="translate(1068,513)"/>
<path d="M0 0 C3 1 3 1 3 1 Z " fill="#373A3B" transform="translate(947,146)"/>
<path d="M0 0 C2 1 2 1 2 1 Z " fill="#373A3B" transform="translate(504,751)"/>
<path d="" fill="#373A3B" transform="translate(0,0)"/>
<path d="" fill="#373A3B" transform="translate(0,0)"/>
<path d="" fill="#373A3B" transform="translate(0,0)"/>
<path d="" fill="#373A3B" transform="translate(0,0)"/>
<path d="" fill="#373A3B" transform="translate(0,0)"/>
<path d="" fill="#373A3B" transform="translate(0,0)"/>
</svg>
