<?xml version="1.0" encoding="UTF-8"?>
<!-- Generator: visioncortex VTracer 0.6.3 -->
<svg version="1.1" xmlns="http://www.w3.org/2000/svg" width="977" height="1280">
<path d="M0 0 C5.89 4.09 5.89 4.09 12.8 4.18 C14.64 2.63 16.21 0.93 17.85 -0.83 C31.47 -14.76 52.1 -21.74 71.12 -22.29 C91.83 -22.49 110.66 -16.61 125.82 -1.97 C142.8 15.15 151.11 35.23 151.11 59.4 C150.77 77.12 143.37 93.89 131.8 107.18 C131.11 108.07 131.11 108.07 130.41 108.99 C125.15 115.72 117.86 121.31 109.8 124.18 C109.05 132.72 111.23 139.56 114.05 147.55 C117.89 159.04 121.02 170.2 122.8 182.18 C122.94 183.13 123.09 184.09 123.24 185.07 C127.28 212.39 127.76 240.95 122.8 268.18 C122.63 269.12 122.47 270.06 122.31 271.03 C118.18 294.81 110.45 317.54 99.8 339.18 C99.23 340.34 99.23 340.34 98.65 341.53 C87.87 363.57 73.75 383.75 57.07 401.72 C55.04 403.92 53.06 406.15 51.11 408.43 C41.71 419.21 30.65 427.97 19.49 436.83 C17.25 438.61 15.02 440.39 12.8 442.18 C14.2 446.39 16.21 449.01 19.17 452.3 C41.51 478.16 54.42 511.26 61.63 544.19 C62.44 547.89 63.27 551.59 64.11 555.28 C65.2 560.12 66.29 564.95 67.37 569.78 C71.02 586.16 74.7 602.47 79.92 618.43 C80.23 619.39 80.55 620.35 80.87 621.33 C83.46 628.9 86.87 638.71 93.8 643.18 C124.77 648.91 164.27 628.98 189.07 612.39 C192.39 610.09 195.6 607.66 198.8 605.18 C199.46 604.69 200.13 604.21 200.81 603.72 C214 593.55 222.64 577.48 224.8 561.18 C226.11 544.22 224.38 528.7 214.8 514.18 C214.27 513.37 213.74 512.57 213.19 511.74 C209.17 507.44 204.02 504.84 198.97 501.9 C189.09 495.94 183.57 488.54 179.55 477.86 C177.42 467.42 178.86 457.2 184.12 447.82 C190.38 438.98 199.01 432.25 209.8 430.18 C230.99 428.64 246.18 438.9 261.8 452.18 C280.03 468.16 291.34 490.7 297.55 513.8 C297.84 514.91 297.84 514.91 298.15 516.04 C301.13 527.77 302.16 539.28 302.11 551.36 C302.11 552.04 302.1 552.72 302.1 553.42 C301.89 590.76 287.22 624.86 261.26 651.66 C259.75 653.22 258.26 654.81 256.77 656.39 C248.84 664.7 240.24 671.66 230.8 678.18 C230.08 678.67 229.37 679.16 228.63 679.67 C215.42 688.68 201.32 695.54 186.8 702.18 C188.13 704.88 189.53 707.53 191 710.16 C208.1 741.23 210.53 773.88 201.11 807.99 C198.59 816.6 195.21 824.43 190.85 832.26 C189.78 834.21 188.76 836.18 187.74 838.16 C172.32 867.6 144.45 892.7 112.54 902.9 C102.49 905.94 93.04 908.39 82.43 908.11 C81.03 908.1 79.64 908.09 78.25 908.08 C76.08 908.08 73.92 908.05 71.76 907.97 C62.75 907.57 62.75 907.57 54.95 911.56 C52.57 914.43 52.57 914.43 50.67 917.43 C43.99 927.23 30.68 931.58 19.53 933.75 C15.23 934.42 10.99 934.46 6.64 934.44 C5.2 934.44 5.2 934.44 3.73 934.45 C0.58 934.45 -2.56 934.45 -5.7 934.44 C-7.91 934.44 -10.11 934.45 -12.32 934.45 C-16.92 934.45 -21.53 934.45 -26.13 934.44 C-32.02 934.43 -37.9 934.43 -43.79 934.44 C-48.33 934.45 -52.88 934.45 -57.43 934.44 C-59.6 934.44 -61.76 934.44 -63.93 934.45 C-66.97 934.45 -70.01 934.45 -73.05 934.44 C-73.93 934.44 -74.81 934.44 -75.72 934.45 C-90.23 934.35 -105.82 929.75 -116.31 919.33 C-125.19 909.21 -129.37 899.39 -130.22 885.93 C-130.98 882.85 -130.98 882.85 -134.33 881.38 C-153.13 874.83 -179.4 876.39 -198.2 882.18 C-198.37 883.22 -198.54 884.25 -198.72 885.33 C-201.59 902.16 -206.98 914.72 -221.2 925.18 C-230.66 930.8 -239.54 933.38 -250.43 933.79 C-251.3 933.83 -252.17 933.86 -253.06 933.9 C-262.54 934.28 -272.03 934.36 -281.51 934.38 C-282.88 934.38 -282.88 934.38 -284.28 934.39 C-289.1 934.4 -293.92 934.41 -298.74 934.42 C-303.67 934.42 -308.6 934.45 -313.53 934.47 C-317.38 934.49 -321.22 934.5 -325.06 934.5 C-326.88 934.5 -328.7 934.51 -330.51 934.52 C-343.61 934.61 -356.12 934.28 -367.64 927.3 C-368.75 926.64 -369.87 925.99 -371.01 925.31 C-377.71 920.83 -381.72 916.27 -385.98 909.5 C-388.08 906.91 -388.08 906.91 -391.49 906.26 C-395.48 906.17 -398.76 906.72 -402.64 907.61 C-432.77 913.85 -462.61 903.28 -487.77 886.93 C-494 882.52 -499.66 877.42 -505.2 872.18 C-506.22 871.24 -506.22 871.24 -507.25 870.29 C-529.8 848.78 -544.09 817.63 -549.2 787.18 C-549.4 786.08 -549.4 786.08 -549.6 784.96 C-549.93 782.69 -550.09 780.47 -550.2 778.18 C-550.27 776.95 -550.33 775.73 -550.4 774.47 C-551.35 746.78 -544.1 718.04 -525.2 697.18 C-524.48 696.36 -523.75 695.54 -523 694.7 C-507.03 677.67 -484.42 667.94 -461.13 666.9 C-444.82 666.46 -430.48 669.69 -415.2 675.18 C-415.1 674.57 -415 673.97 -414.9 673.34 C-413.54 665.55 -411.8 657.85 -409.99 650.15 C-409.44 647.8 -408.89 645.45 -408.35 643.09 C-407.56 639.72 -406.78 636.35 -405.99 632.98 C-400.35 608.82 -394.79 584.68 -389.85 560.37 C-381.61 519.85 -367.95 484.57 -343.2 451.18 C-343.79 450.9 -344.37 450.62 -344.97 450.33 C-372.08 436.29 -398.41 409.71 -416.2 385.18 C-416.69 384.51 -417.18 383.85 -417.68 383.16 C-450.14 338.8 -468.74 288.24 -471.2 233.18 C-471.24 232.42 -471.27 231.67 -471.31 230.89 C-472.51 200 -466.49 169.16 -456.83 139.96 C-453.89 132.08 -453.89 132.08 -455.2 124.18 C-457.76 121.97 -460.43 120.09 -463.23 118.19 C-479.75 107.01 -488.48 90.15 -493.2 71.18 C-493.5 70.04 -493.5 70.04 -493.79 68.87 C-496.99 47.86 -492.11 27.74 -480.22 10.27 C-478.31 7.8 -476.32 5.48 -474.2 3.18 C-473.53 2.41 -472.85 1.64 -472.16 0.85 C-459.99 -12.23 -441.37 -21.46 -423.42 -22.16 C-399.92 -22.5 -380.84 -18.09 -363.06 -1.86 C-362.02 -0.91 -362.02 -0.91 -360.95 0.05 C-360.35 0.63 -359.75 1.2 -359.13 1.79 C-356.75 3.5 -355.11 3.87 -352.2 4.18 C-350.02 3.4 -350.02 3.4 -347.97 2 C-347.18 1.51 -346.39 1.01 -345.57 0.51 C-344.73 -0.04 -343.88 -0.58 -343.02 -1.14 C-341.21 -2.26 -339.4 -3.37 -337.59 -4.49 C-336.23 -5.34 -336.23 -5.34 -334.84 -6.2 C-294.56 -30.99 -249.93 -43.6 -203.2 -48.82 C-202.35 -48.93 -201.49 -49.03 -200.6 -49.14 C-131.13 -56.73 -58.14 -38.26 0 0 Z M-195.89 -40.89 C-196.56 -40.84 -197.23 -40.8 -197.92 -40.75 C-199.85 -40.63 -201.79 -40.49 -203.72 -40.36 C-204.84 -40.28 -205.97 -40.2 -207.14 -40.12 C-209.89 -39.85 -212.51 -39.42 -215.2 -38.82 C-214.63 -38.41 -214.05 -38 -213.45 -37.57 C-208.95 -34.07 -206.54 -31.49 -205.2 -25.82 C-204.18 -15.22 -208.82 -6.53 -215.08 1.61 C-218.19 3.9 -220.36 4.18 -224.2 4.18 C-229.26 1.66 -233.28 -1.35 -237.39 -5.2 C-237.9 -5.65 -238.41 -6.11 -238.93 -6.58 C-244.07 -11.33 -247.69 -15.83 -248.24 -22.86 C-248.19 -25.89 -247.55 -28.13 -246.2 -30.82 C-244.08 -32.2 -244.08 -32.2 -242.2 -32.82 C-245.69 -34.57 -249.49 -32.56 -253.08 -31.51 C-254.46 -31.11 -254.46 -31.11 -255.87 -30.7 C-291.67 -20.04 -324.18 -5.15 -354.2 17.18 C-354.81 17.62 -355.41 18.07 -356.03 18.52 C-362.57 23.38 -368.83 28.46 -374.82 33.98 C-376.39 35.43 -377.98 36.85 -379.59 38.25 C-392.49 49.49 -403.1 62.42 -413.2 76.18 C-414.22 77.55 -414.22 77.55 -415.26 78.95 C-428.32 97.07 -440.04 118.01 -447.2 139.18 C-447.51 140.09 -447.82 141 -448.14 141.94 C-469.98 207.36 -466.32 276.32 -435.66 338.42 C-430.76 348.05 -425.32 357.27 -419.2 366.18 C-418.8 366.76 -418.4 367.35 -417.99 367.95 C-406.31 384.86 -393.08 400.82 -377.44 414.21 C-375.29 416.1 -373.21 418.06 -371.13 420.03 C-330.6 458.13 -274.38 480.39 -220.2 489.18 C-218.66 489.43 -218.66 489.43 -217.09 489.68 C-138.24 501.81 -55.59 481.13 8.61 434.18 C16.66 428.2 24.33 421.86 31.8 415.18 C32.34 414.7 32.88 414.21 33.44 413.72 C38.98 408.8 44.36 403.86 49.12 398.16 C50.28 396.78 51.49 395.44 52.73 394.13 C84.92 359.94 104.91 314.87 113.8 269.18 C113.96 268.34 114.13 267.5 114.3 266.64 C119.41 239.62 119.32 208.11 113.8 181.18 C113.59 180.18 113.39 179.18 113.18 178.16 C105.85 143.52 92.61 110.01 71.8 81.18 C71.33 80.52 70.85 79.87 70.37 79.2 C56.05 59.46 40.11 41.2 20.8 26.18 C19 24.68 17.21 23.18 15.42 21.68 C-8.11 2.46 -35.9 -12.1 -64.2 -22.82 C-65.07 -23.15 -65.93 -23.48 -66.81 -23.81 C-108.03 -39.16 -152.23 -43.71 -195.89 -40.89 Z M-230.2 -30.82 C-232.61 -27.32 -233.76 -25.09 -233.2 -20.82 C-231.63 -18.96 -231.63 -18.96 -229.45 -17.57 C-228.76 -17.07 -228.06 -16.57 -227.34 -16.06 C-225.24 -14.84 -223.6 -14.18 -221.2 -13.82 C-218.54 -14.81 -217.49 -15.25 -216.2 -17.82 C-216.16 -20.16 -216.16 -22.49 -216.2 -24.82 C-217.78 -25.64 -219.37 -26.45 -220.95 -27.26 C-221.84 -27.71 -222.72 -28.17 -223.63 -28.63 C-225.85 -29.66 -227.82 -30.34 -230.2 -30.82 Z M17.8 12.18 C24.56 19.56 24.56 19.56 33.8 22.18 C36.13 20.71 37.95 19.35 39.98 17.55 C52.03 7.64 65.2 3.75 80.8 5.18 C94.09 7.78 107.66 15.42 115.55 26.67 C123.19 39.84 125.94 53.48 122.61 68.43 C119.02 80.89 112.45 90.36 101.73 97.8 C98.37 100.33 97.9 100.73 96.92 105.05 C97.48 109.98 100.14 114.08 102.8 118.18 C108.33 117.19 112.4 113.48 116.8 110.18 C117.49 109.66 118.19 109.15 118.91 108.61 C130.72 99.15 139.83 83.13 141.8 68.18 C143.26 47.31 140.84 28.19 127.39 11.42 C121.2 4.32 114.1 -1.34 105.8 -5.82 C104.94 -6.29 104.08 -6.76 103.19 -7.25 C72.32 -22.7 40.12 -11.25 17.8 12.18 Z M-466.52 6.99 C-480.26 21.05 -485.49 37.6 -485.45 57.06 C-485.15 76.22 -477.85 92.06 -465.2 106.18 C-459.75 111.35 -454.06 115.13 -447.2 118.18 C-446.35 116.67 -445.52 115.14 -444.7 113.61 C-444.24 112.77 -443.78 111.92 -443.3 111.05 C-441.9 107.37 -441.58 105.08 -442.2 101.18 C-444.06 98.77 -446.34 97 -448.7 95.11 C-460.9 84.55 -465.84 72.76 -467.44 56.81 C-467.94 43.92 -462.63 31.07 -454.36 21.43 C-444.43 11.08 -431.94 5.4 -417.64 4.8 C-403.55 5.11 -391.28 9.47 -380.95 19.18 C-378.32 21.46 -378.32 21.46 -374.89 21.43 C-369.8 19.7 -366.23 16.67 -362.2 13.18 C-371.01 -0.28 -385.45 -8.98 -401.08 -12.33 C-425.89 -16.27 -448.42 -10.7 -466.52 6.99 Z M-449.64 28.27 C-456.88 37.1 -459.86 47.5 -459.55 58.8 C-458.57 68.34 -455.5 76.01 -449.2 83.18 C-448.42 84.23 -447.64 85.28 -446.83 86.36 C-443.66 89.76 -440.23 91.92 -436.2 94.18 C-432.44 90.66 -429.64 87.02 -426.95 82.61 C-417.72 67.91 -406.51 54.9 -394.83 42.11 C-394.35 41.59 -393.88 41.07 -393.39 40.53 C-390.2 37.08 -386.85 34.11 -383.2 31.18 C-384.01 25.45 -388.87 22.51 -393.2 19.18 C-411.98 7.2 -434.93 12.74 -449.64 28.27 Z M40.8 27.55 C40.14 28.42 39.48 29.28 38.8 30.18 C43.11 35.1 47.47 39.9 52.16 44.46 C66.47 58.38 78.18 75.23 88.49 92.27 C89.66 94.31 89.66 94.31 91.8 95.18 C103.68 87.82 110.83 79.56 115.47 66.25 C117.55 53.11 115.7 40.85 107.98 29.8 C99.84 20.01 89.82 14.15 76.99 12.9 C63.02 12.44 50.03 16.71 40.8 27.55 Z M195 448.07 C189.13 455.44 187.06 462.35 187.33 471.79 C188.4 479.56 191.88 486.06 197.98 490.99 C201.38 493.35 204.91 495.49 208.42 497.68 C221.19 505.71 228.08 517.84 231.98 532.24 C236.07 550.43 234.26 568.16 225.66 584.61 C221.81 591.51 221.81 591.51 220.8 599.18 C221.86 602.01 223.16 604.64 224.53 607.34 C227.09 613.07 227.66 618.76 225.55 624.68 C224.97 625.83 224.39 626.99 223.8 628.18 C222.97 630.95 222.25 633.73 221.54 636.53 C220.8 639.18 220.8 639.18 219.76 641.67 C218.73 644.35 218.35 646.77 217.98 649.61 C217.06 654.79 215.86 657.62 211.8 661.18 C203.51 666.94 194.24 668.3 184.36 666.58 C174.17 663.81 164.61 658.23 158.8 649.18 C158.19 647.62 157.64 646.04 157.14 644.45 C156.88 643.65 156.63 642.84 156.36 642.02 C156.18 641.41 155.99 640.8 155.8 640.18 C154.72 640.56 153.64 640.95 152.53 641.35 C130.71 649.01 108.66 651.63 85.8 654.18 C86.19 656.12 86.61 658.05 87.05 659.99 C87.28 661.07 87.51 662.15 87.75 663.26 C88.93 666.55 89.69 667.62 92.8 669.18 C95.07 669.34 95.07 669.34 97.53 668.9 C104.34 668.08 111.1 667.78 117.96 667.66 C119.39 667.63 120.82 667.58 122.24 667.52 C132.44 667.07 139.02 668.48 147.61 674.1 C151.01 676.32 154.37 677.97 158.05 679.68 C163.56 682.38 168.15 685.49 172.81 689.48 C176.86 692.94 179.19 693.61 184.34 693.48 C188.56 692.96 192.03 691.27 195.8 689.36 C196.62 688.96 197.44 688.56 198.28 688.14 C217.59 678.41 235.26 665.15 250.8 650.18 C251.51 649.51 252.22 648.85 252.96 648.17 C272.45 629.61 287.95 601.94 291.8 575.18 C291.06 575.21 290.32 575.25 289.57 575.28 C279.61 575.56 279.61 575.56 275.8 572.18 C274.28 570.44 272.81 568.67 271.35 566.88 C269.83 565.21 268.4 564.11 266.48 562.93 C263.8 561.18 263.8 561.18 262.8 558.18 C261.05 557.16 259.3 556.15 257.49 555.24 C255.8 554.18 255.8 554.18 253.8 551.18 C252.92 544.07 254.89 539.11 258.8 533.18 C264.58 526.13 270.91 521.13 280.1 520.11 C281.16 520.02 281.16 520.02 282.23 519.93 C283.33 519.81 283.33 519.81 284.45 519.69 C286.23 519.51 288.01 519.34 289.8 519.18 C285.54 499.96 277.93 482.89 264.8 468.18 C264.06 467.31 263.33 466.45 262.58 465.56 C251.95 453.24 236.45 440.57 219.8 438.18 C209.97 437.8 201.83 440.87 195 448.07 Z M0.69 449.13 C-0.11 449.63 -0.92 450.13 -1.75 450.64 C-2.65 451.19 -3.55 451.74 -4.48 452.31 C-5.44 452.9 -6.4 453.5 -7.39 454.11 C-15.38 458.97 -23.41 463.45 -31.82 467.52 C-36.04 469.58 -40.14 471.83 -44.2 474.18 C-39.48 482.17 -39.48 482.17 -32.2 487.18 C-31.5 486.17 -30.8 485.16 -30.08 484.11 C-26.12 479.44 -20.98 477.28 -15.54 474.75 C-12.26 473.33 -12.26 473.33 -9.84 471.47 C-5.89 469.53 -2.34 469.94 1.98 470.24 C3.25 470.32 3.25 470.32 4.55 470.4 C12.25 470.99 18.35 472.88 24.8 477.18 C21.33 467.3 12.95 456.75 5.8 449.18 C2.91 447.84 2.91 447.84 0.69 449.13 Z M-301.2 474.18 C-300.4 475.17 -299.6 476.16 -298.77 477.18 C-295.88 481.17 -295.46 484.31 -295.2 489.18 C-292.22 489.5 -292.22 489.5 -290.56 487.75 C-289.77 486.82 -289.77 486.82 -288.95 485.86 C-288.14 484.94 -288.14 484.94 -287.31 484 C-286.95 483.4 -286.58 482.8 -286.2 482.18 C-286.89 478.95 -286.89 478.95 -289.86 477.79 C-290.94 477.36 -292.02 476.93 -293.14 476.49 C-294.76 475.83 -294.76 475.83 -296.42 475.17 C-299.03 474.07 -299.03 474.07 -301.2 474.18 Z M-60.02 479.93 C-126.49 504.95 -203.16 508.06 -270.75 484.84 C-274.44 483.84 -274.44 483.84 -278.2 484.18 C-280.32 486.26 -282 488.19 -283.77 490.55 C-284.54 491.56 -284.54 491.56 -285.33 492.58 C-313.4 529.53 -326.17 570.72 -320.43 617.35 C-315.87 647.99 -303.54 677.5 -282.2 700.18 C-281.22 701.23 -281.22 701.23 -280.22 702.3 C-252.13 732.18 -213.38 751.75 -171.92 753.3 C-156.52 753.65 -141.26 753.78 -126.2 750.18 C-125.02 749.89 -125.02 749.89 -123.81 749.61 C-84.85 739.91 -48.04 714.75 -27.2 680.18 C-5.74 643.69 4.04 599.25 -6.56 557.55 C-14.37 528.73 -27.93 505.04 -48.2 483.18 C-48.74 482.6 -49.27 482.03 -49.81 481.44 C-50.9 480.31 -52.04 479.23 -53.2 478.18 C-55.79 478.18 -57.6 479.01 -60.02 479.93 Z M-6.2 478.18 C-9.94 482.4 -14.12 487.41 -15.83 492.86 C-14.9 497.78 -11.93 499.47 -7.97 502.31 C-7.06 502.92 -6.14 503.54 -5.2 504.18 C-4.11 504.99 -4.11 504.99 -3 505.83 C0.33 508.2 2.27 509.14 6.42 509.43 C10.99 507.74 13.33 505.34 15.8 501.18 C17.19 496.21 17 492.84 14.8 488.18 C11.95 486.55 11.95 486.55 8.55 485.61 C3.19 483.79 -0.14 482.02 -4.2 478.18 C-4.86 478.18 -5.52 478.18 -6.2 478.18 Z M25.8 478.18 C26.8 480.18 26.8 480.18 26.8 480.18 Z M-316.2 485.86 C-316.93 486.2 -317.65 486.54 -318.4 486.89 C-322.71 489.02 -325.18 490.63 -327.2 495.18 C-327.59 496.04 -327.97 496.9 -328.37 497.78 C-328.71 498.63 -329.04 499.49 -329.39 500.36 C-329.74 501.22 -330.08 502.08 -330.43 502.97 C-331.31 505.1 -331.31 505.1 -331.2 507.18 C-324.03 506.95 -324.03 506.95 -317.27 504.8 C-314.62 501.43 -313.48 498 -312.2 493.93 C-310.61 489.52 -309.13 486.8 -305.2 484.18 C-305.2 483.52 -305.2 482.86 -305.2 482.18 C-309.46 482.18 -312.44 484 -316.2 485.86 Z M-337.76 458.73 C-348.19 471.6 -356.23 486.2 -363.2 501.18 C-363.74 502.31 -364.27 503.45 -364.82 504.62 C-370.88 518.14 -374.86 532.08 -377.99 546.53 C-378.52 548.94 -379.04 551.34 -379.57 553.74 C-379.98 555.59 -379.98 555.59 -380.39 557.47 C-381.7 563.43 -383.04 569.38 -384.39 575.34 C-391.27 605.8 -391.27 605.8 -397.96 636.31 C-398.37 638.2 -398.78 640.09 -399.2 641.98 C-404 662.24 -404 662.24 -401.2 682.18 C-397.63 685.25 -397.63 685.25 -393.2 686.18 C-392.87 681.89 -392.54 677.6 -392.2 673.18 C-390.55 673.18 -388.9 673.18 -387.2 673.18 C-386.54 674.17 -385.88 675.16 -385.2 676.18 C-383.16 676.4 -383.16 676.4 -381.87 675 C-378.16 670.74 -375.72 666.5 -373.48 661.31 C-371.97 658.78 -370.96 658.14 -368.2 657.18 C-359.76 655.56 -351.98 659.34 -344.87 663.56 C-336.8 669.2 -332.02 676.83 -329.2 686.18 C-328.64 689.93 -328.55 693.58 -328.58 697.36 C-328.55 698.31 -328.51 699.26 -328.48 700.23 C-328.47 705.1 -328.82 708.36 -331.93 712.22 C-334.45 714.72 -336.73 716.27 -340.14 717.36 C-343.32 718.47 -346.14 719.61 -349.02 721.36 C-356.68 725.72 -364.2 724.61 -372.39 722.36 C-376.8 721.1 -380.32 719.59 -384.2 717.18 C-384.23 734.06 -384.25 750.95 -384.26 767.83 C-384.26 775.67 -384.27 783.52 -384.28 791.36 C-384.29 798.22 -384.3 805.07 -384.3 811.93 C-384.3 815.54 -384.3 819.15 -384.31 822.77 C-384.34 838.34 -384.21 853.9 -383.76 869.47 C-383.74 870.17 -383.72 870.88 -383.7 871.61 C-383.71 893.72 -383.71 893.72 -373.18 912.33 C-361.84 922.95 -348.41 925.31 -333.41 925.35 C-332.47 925.36 -331.52 925.37 -330.55 925.37 C-327.44 925.39 -324.33 925.41 -321.22 925.42 C-320.15 925.42 -319.09 925.42 -317.99 925.43 C-312.33 925.45 -306.67 925.46 -301.02 925.47 C-295.21 925.48 -289.39 925.52 -283.58 925.56 C-279.08 925.58 -274.59 925.59 -270.09 925.6 C-267.95 925.6 -265.81 925.61 -263.67 925.63 C-247.38 925.76 -234.27 925.03 -221.2 914.18 C-220.22 913.37 -220.22 913.37 -219.21 912.56 C-212.44 906.48 -208.77 897.86 -208.01 888.86 C-207.97 888.06 -207.94 887.26 -207.91 886.44 C-207.87 885.52 -207.83 884.6 -207.79 883.65 C-207.75 882.66 -207.71 881.67 -207.68 880.65 C-207.64 879.6 -207.59 878.55 -207.55 877.46 C-207.07 864.54 -206.86 851.61 -206.64 838.68 C-206.6 836.18 -206.55 833.69 -206.51 831.2 C-206.41 825.19 -206.3 819.18 -206.2 813.18 C-204.22 813.18 -202.24 813.18 -200.2 813.18 C-199.87 831.66 -199.54 850.14 -199.2 869.18 C-176.43 869.18 -153.66 869.18 -130.2 869.18 C-129.92 854.07 -129.92 854.07 -129.64 838.96 C-129.6 837.05 -129.56 835.15 -129.52 833.24 C-129.5 832.27 -129.49 831.29 -129.47 830.29 C-129.36 824.84 -128.99 819.57 -128.2 814.18 C-126.55 814.51 -124.9 814.84 -123.2 815.18 C-122.18 822.87 -122.01 830.47 -121.92 838.23 C-121.9 839.58 -121.89 840.93 -121.87 842.28 C-121.81 846.54 -121.76 850.8 -121.7 855.05 C-121.64 859.98 -121.58 864.92 -121.51 869.85 C-121.49 871.8 -121.47 873.76 -121.44 875.71 C-121.24 890.73 -120.67 901.49 -110.08 912.99 C-96.08 926.1 -79.07 925.48 -61.13 925.44 C-59.08 925.44 -57.02 925.45 -54.97 925.45 C-50.68 925.45 -46.38 925.45 -42.09 925.44 C-36.63 925.43 -31.18 925.43 -25.72 925.44 C-21.48 925.45 -17.24 925.45 -13 925.44 C-10.99 925.44 -8.98 925.44 -6.97 925.45 C20.34 925.89 20.34 925.89 43.61 913.05 C56.6 899.08 54.94 881.94 55 864.16 C55.01 862.39 55.02 860.62 55.03 858.86 C55.06 854.11 55.08 849.36 55.1 844.61 C55.12 839.63 55.15 834.65 55.18 829.67 C55.22 820.26 55.27 810.85 55.31 801.45 C55.36 790.72 55.42 780 55.47 769.28 C55.59 747.25 55.69 725.21 55.8 703.18 C53.54 703.6 51.29 704.04 49.05 704.49 C47.79 704.73 46.54 704.98 45.25 705.23 C41.96 706.13 40.36 707.03 37.8 709.18 C35.07 709.87 35.07 709.87 32.17 710.3 C28.35 710.83 28.35 710.83 24.8 712.18 C18.3 712.99 14.54 711.52 9.07 707.97 C4.97 704.74 2.46 701.16 0.8 696.18 C0.66 692.49 0.63 689.69 1.8 686.18 C2.49 676.82 2.49 676.82 0.23 667.86 C-1.58 663.21 -1.68 659.94 -0.2 655.18 C2.99 648.96 7.29 645.54 13.8 643.18 C16.17 642.43 16.17 642.43 18.8 642.18 C19.44 642.11 20.09 642.05 20.76 641.99 C32.37 641.39 45.69 644.76 54.8 652.18 C59.26 657.43 59.07 662.59 59.42 669.24 C59.51 672.3 59.51 672.3 61.8 674.18 C62.42 676.3 62.42 676.3 62.8 678.18 C64.11 677.94 65.42 677.69 66.73 677.43 C67.83 677.22 67.83 677.22 68.95 677 C71.61 676.23 73.95 675.26 76.47 674.12 C77.69 673.58 77.69 673.58 78.93 673.02 C79.54 672.74 80.16 672.46 80.8 672.18 C76.97 650.84 72.2 629.73 67.37 608.6 C66.27 603.8 65.18 599 64.1 594.2 C60.05 576.35 55.96 558.51 51.59 540.73 C51.23 539.25 50.87 537.77 50.51 536.29 C46.86 521.26 42.11 506.85 34.92 493.11 C34.42 492.14 33.93 491.17 33.41 490.17 C32.22 487.83 31.01 485.5 29.8 483.18 C28.69 486.5 28.97 487.95 29.48 491.36 C30.6 503.67 26.6 515.64 18.8 525.18 C14.83 529.36 10.7 533.06 4.7 533.24 C-1.19 532.92 -4.06 531.32 -8.2 527.18 C-7.56 529.14 -6.91 531.1 -6.25 533.06 C-5.68 534.77 -5.1 536.49 -4.55 538.21 C-3.83 540.47 -3.08 542.73 -2.33 544.99 C-2.1 545.73 -1.86 546.47 -1.63 547.24 C-0.03 551.95 1.48 554.39 5.8 557.18 C6.56 557.68 7.32 558.18 8.11 558.7 C8.85 559.17 9.59 559.63 10.36 560.11 C17.14 564.63 19.73 569.84 22.8 577.18 C23.13 577.84 23.46 578.5 23.8 579.18 C24.14 581.94 24.4 584.66 24.61 587.43 C24.69 588.18 24.76 588.93 24.84 589.7 C25.23 595.09 24.44 597.93 20.8 602.18 C18.9 603.79 18.9 603.79 16.98 604.93 C16.05 605.51 16.05 605.51 15.09 606.1 C12.08 607.51 9 608.33 5.8 609.18 C5.57 610.31 5.57 610.31 5.34 611.46 C-1.26 644.24 -10.86 675.45 -33.2 701.18 C-33.91 701.99 -34.62 702.81 -35.35 703.65 C-37.6 706.2 -39.89 708.69 -42.2 711.18 C-42.94 711.98 -43.68 712.78 -44.43 713.61 C-69.65 740.05 -104.61 754.71 -140.2 760.18 C-141.44 760.37 -142.67 760.56 -143.95 760.76 C-161.11 762.79 -179.36 762.05 -196.2 758.18 C-197.06 757.98 -197.92 757.79 -198.8 757.59 C-231.31 750.01 -258.19 734.08 -282.2 711.18 C-283 710.44 -283.79 709.7 -284.6 708.94 C-309.83 684.73 -321.91 651.8 -328.2 618.18 C-336.33 620.8 -336.33 620.8 -341.58 627.18 C-344.63 632.41 -347.92 633.25 -353.64 634.86 C-360.43 635.69 -366.15 635.59 -372.2 632.18 C-379.66 625.39 -381.51 615.6 -382.32 605.9 C-382.14 601.72 -380.97 599.04 -378.2 595.93 C-376.24 593.22 -375.84 592.09 -375.27 588.93 C-373.72 580.88 -369.95 574.88 -363.2 570.18 C-360.71 568.77 -358.14 567.58 -355.52 566.43 C-354.52 565.97 -354.52 565.97 -353.51 565.51 C-348.08 563.05 -344.19 561.96 -338.2 562.18 C-337.54 562.51 -336.88 562.84 -336.2 563.18 C-332.75 563.59 -332.75 563.59 -329.2 563.18 C-326.8 560.61 -325.68 558.15 -324.74 554.8 C-324.38 553.55 -324.38 553.55 -324.01 552.27 C-323.76 551.39 -323.52 550.52 -323.27 549.61 C-321.36 543 -319.36 536.5 -316.87 530.08 C-316.09 528.2 -316.09 528.2 -316.2 526.18 C-316.88 526.13 -317.56 526.08 -318.25 526.03 C-319.14 525.95 -320.04 525.88 -320.95 525.8 C-321.84 525.73 -322.72 525.66 -323.63 525.59 C-327.16 525.02 -329.37 524.32 -331.51 521.37 C-331.89 520.69 -332.26 520.01 -332.64 519.3 C-334.73 515.73 -336.91 513.71 -340.2 511.18 C-341.54 509.18 -342.87 507.18 -344.2 505.18 C-345.09 504.56 -345.98 503.94 -346.89 503.3 C-349.62 500.8 -350.11 498.92 -350.33 495.25 C-349.99 489.8 -347.04 485.06 -343.47 481.08 C-335.9 474.73 -326.45 470.44 -317.2 467.18 C-320.13 464.05 -323.46 462.34 -327.27 460.49 C-327.9 460.17 -328.54 459.85 -329.2 459.52 C-333.67 456.83 -333.67 456.83 -337.76 458.73 Z M279.8 539.18 C275.79 544.4 274.79 550.81 273.8 557.18 C278.61 557.06 282 556.67 286.17 554.11 C291.66 547.97 292.32 541.18 292.8 533.18 C287.16 533.18 283.99 535.56 279.8 539.18 Z M-332.33 573.93 C-335.47 576.38 -338.75 578.31 -342.27 580.18 C-342.92 580.53 -343.57 580.88 -344.25 581.24 C-349.25 583.84 -354.26 585.71 -359.72 587.19 C-362.72 588.38 -364.21 589.64 -366.2 592.18 C-367.77 596.48 -366.86 600.44 -365.95 604.8 C-365.83 605.47 -365.71 606.14 -365.58 606.83 C-365.02 609.59 -364.45 611.82 -362.82 614.15 C-360.38 615.7 -358.2 615.15 -355.45 614.71 C-353.11 614.15 -350.95 613.39 -348.7 612.55 C-345.4 611.34 -343.39 611.12 -339.95 611.86 C-338.1 612.02 -338.1 612.02 -336.2 612.18 C-332.26 608.82 -331.01 606.66 -330.39 601.49 C-329.96 596.08 -329.81 590.66 -329.64 585.24 C-329.58 583.35 -329.58 583.35 -329.51 581.43 C-329.41 578.35 -329.3 575.26 -329.2 572.18 C-330.53 572.07 -330.53 572.07 -332.33 573.93 Z M4.8 575.18 C5.13 579.14 5.46 583.1 5.8 587.18 C9.36 585.4 11.15 584.01 13.8 581.18 C12.87 580.56 11.94 579.94 10.98 579.3 C8.92 577.93 6.86 576.55 4.8 575.18 Z M199.37 615.59 C198.51 616.11 197.65 616.62 196.76 617.15 C195.87 617.69 194.97 618.24 194.05 618.8 C193.16 619.32 192.28 619.85 191.37 620.38 C181.58 625.85 181.58 625.85 175.67 634.74 C175.82 638.77 176.06 640.2 178.8 643.18 C183.47 645.98 188.28 648.16 193.8 647.18 C196.89 645.41 199.46 643.48 202.11 641.11 C204.67 639.27 206.5 638.5 209.46 637.56 C210.68 637.16 210.68 637.16 211.92 636.76 C212.85 636.47 212.85 636.47 213.8 636.18 C213.01 632.9 212.22 629.63 211.42 626.36 C211.2 625.44 210.98 624.51 210.75 623.55 C210.53 622.66 210.31 621.76 210.08 620.84 C209.89 620.02 209.69 619.2 209.48 618.35 C208.83 615.92 208.83 615.92 206.8 613.18 C203.37 613.18 202.27 613.86 199.37 615.59 Z M20.95 664.45 C20.41 665.29 19.86 666.12 19.3 666.99 C16.65 670.94 13.91 674.59 10.8 678.18 C12.15 681.26 13.65 683.23 16.13 685.49 C16.78 686.09 17.44 686.69 18.11 687.31 C18.79 687.93 19.47 688.54 20.17 689.18 C21.51 690.41 22.85 691.63 24.19 692.86 C25.14 693.72 25.14 693.72 26.1 694.6 C27.49 695.89 28.83 697.25 30.15 698.61 C31.66 700.41 31.66 700.41 33.8 700.18 C35.15 698.87 36.48 697.53 37.8 696.18 C38.76 695.45 39.73 694.73 40.73 693.99 C44.09 691.2 45.64 687.97 47.11 683.93 C47.36 683.27 47.61 682.61 47.87 681.93 C49.7 676.96 50.61 672.45 50.8 667.18 C41.89 661.04 29.4 654.04 20.95 664.45 Z M-518.08 701.61 C-536.63 724.05 -543.52 752.03 -540.98 780.69 C-538.92 798.76 -534.05 815.3 -525.2 831.18 C-524.63 832.23 -524.63 832.23 -524.04 833.31 C-518.43 843.61 -512.17 852.58 -504.2 861.18 C-503.42 862.05 -502.63 862.92 -501.81 863.81 C-485.71 880.8 -464.61 891.99 -442.2 898.18 C-441.26 898.44 -440.31 898.71 -439.34 898.98 C-424.35 902.39 -406.71 901.01 -392.2 896.18 C-392.53 888.59 -392.86 881 -393.2 873.18 C-397.66 874.17 -397.66 874.17 -402.2 875.18 C-421 878.97 -437.82 874.83 -454.2 865.18 C-472.94 852.1 -485.15 832.86 -489.83 810.61 C-492.6 792.61 -490.11 775.52 -480.2 760.18 C-472.32 749.52 -461.4 741.58 -448.2 739.18 C-428.28 737.29 -411.76 741.85 -395.2 753.18 C-394.54 753.18 -393.88 753.18 -393.2 753.18 C-393.15 746.81 -393.12 740.44 -393.09 734.07 C-393.08 731.91 -393.07 729.75 -393.05 727.58 C-393.03 724.46 -393.02 721.34 -393.01 718.22 C-393 717.26 -392.99 716.31 -392.98 715.32 C-392.93 704.19 -392.93 704.19 -397.34 694.33 C-400.76 691.76 -404.22 689.65 -408.02 687.68 C-408.76 687.29 -409.5 686.9 -410.27 686.5 C-445.29 668.75 -490.29 672.29 -518.08 701.61 Z M69.61 687.05 C64.53 695.81 63.64 703.28 63.7 713.17 C63.7 714.11 63.7 715.06 63.7 716.04 C63.71 719.04 63.72 722.05 63.73 725.05 C63.74 727.1 63.74 729.14 63.75 731.18 C63.76 736.18 63.78 741.18 63.8 746.18 C65.21 745.71 66.62 745.25 68.04 744.78 C68.83 744.52 69.61 744.26 70.42 743.99 C73.22 743.03 75.95 741.95 78.68 740.83 C93.21 736.38 110.12 738.16 123.42 744.93 C137.31 752.93 145.3 765.64 149.91 780.85 C154.72 801.18 149.01 822.51 138.8 840.18 C127.08 858.76 110.56 869.42 89.94 875.75 C87.24 876.29 84.7 876.29 81.94 876.27 C80.82 876.27 79.71 876.27 78.56 876.26 C77.4 876.26 76.24 876.25 75.05 876.24 C73.87 876.23 72.7 876.23 71.49 876.23 C68.59 876.21 65.69 876.2 62.8 876.18 C62.8 883.77 62.8 891.36 62.8 899.18 C88.84 904.39 115.05 895.25 136.8 881.18 C170.02 858.07 189.9 824.65 197.34 785.27 C201.07 759.69 196.08 731.9 180.99 710.63 C167.27 692.87 149.38 680.56 126.98 676.65 C110.98 674.59 81.35 673.91 69.61 687.05 Z M-376.2 681.18 C-377.47 683.15 -377.47 683.15 -376.6 685.35 C-374.25 691.27 -372.01 696.65 -366.51 700.3 C-363.26 701.53 -360.23 701.54 -356.77 701.68 C-349.17 701.98 -344.98 703.22 -339.2 708.18 C-338.54 707.19 -337.88 706.2 -337.2 705.18 C-337.66 704.52 -338.12 703.87 -338.59 703.2 C-339.21 702.33 -339.82 701.45 -340.45 700.55 C-341.1 699.64 -341.75 698.72 -342.42 697.78 C-344.2 695.18 -344.2 695.18 -346.08 691.86 C-352.66 683.55 -363.32 682.54 -373.2 681.18 C-374.19 681.18 -375.18 681.18 -376.2 681.18 Z M-454.2 749.18 C-454.89 749.42 -455.58 749.66 -456.28 749.92 C-466.84 754.44 -474.98 763.66 -479.2 774.18 C-482.07 781.76 -482.75 788.79 -482.7 796.86 C-482.7 798.01 -482.69 799.16 -482.69 800.34 C-482.49 809.5 -481.17 816.83 -477.2 825.18 C-476.42 826.86 -476.42 826.86 -475.63 828.58 C-467.4 845.03 -454.21 858.94 -436.76 865.47 C-425.29 869.1 -415.47 870.16 -403.77 867.43 C-403.06 867.27 -402.35 867.11 -401.61 866.95 C-397.72 866.08 -397.72 866.08 -395.03 863.37 C-391.91 855.11 -393.04 845.01 -393.04 836.33 C-393.03 834.9 -393.03 833.47 -393.03 832.04 C-393.02 829.06 -393.02 826.08 -393.02 823.1 C-393.02 819.33 -393.01 815.56 -392.99 811.79 C-392.98 808.84 -392.97 805.9 -392.98 802.95 C-392.97 801.56 -392.97 800.17 -392.96 798.79 C-392.18 777.74 -392.18 777.74 -400.01 759.33 C-411.19 749.96 -425.8 745.47 -440.29 745.89 C-445.15 746.37 -449.61 747.54 -454.2 749.18 Z M76.8 750.18 C75.49 750.59 75.49 750.59 74.17 751.02 C71.33 752.15 69.23 753.28 67.86 756.09 C66.29 761.13 65.12 766.05 64.62 771.32 C64.54 772.14 64.46 772.97 64.38 773.82 C63.14 788.93 63.54 804.17 63.6 819.31 C63.61 822.82 63.61 826.32 63.61 829.83 C63.61 833.23 63.62 836.63 63.62 840.03 C63.63 841.64 63.63 843.26 63.63 844.87 C63.63 847.11 63.64 849.36 63.65 851.61 C63.65 852.88 63.66 854.15 63.66 855.46 C63.53 862.28 63.53 862.28 65.8 868.18 C82.14 870.51 96.91 867.98 110.48 858.36 C112.27 856.99 114.04 855.59 115.8 854.18 C116.58 853.57 117.36 852.97 118.17 852.34 C127.14 844.97 133.05 835.47 137.73 824.99 C138.02 824.36 138.3 823.73 138.59 823.08 C144.24 809.7 145.47 791.43 141.3 777.49 C135.89 764.42 127.58 754.64 114.52 749.18 C101.46 744.38 89.77 745.99 76.8 750.18 Z " fill="#000000" transform="translate(613.2041015625,198.8232421875)"/>
<path d="M0 0 C0.85 -0.03 1.7 -0.05 2.58 -0.08 C5.91 0.34 7.47 1.25 10.19 3.25 C11.88 5.62 13.31 7.87 14.73 10.39 C15.15 11.13 15.58 11.87 16.01 12.64 C21.96 23.17 27.22 34.08 32.56 44.94 C52.19 89.63 52.19 89.63 84.93 124.05 C91.13 128.24 96.64 133.25 102.19 138.25 C102.96 138.94 103.74 139.63 104.54 140.34 C112.17 147.52 118.42 156.93 123.19 166.25 C123.19 166.91 123.19 167.57 123.19 168.25 C139.9 171.83 157.8 161.56 172.74 155.14 C175.52 153.96 178.29 152.79 181.07 151.63 C181.92 151.26 182.76 150.89 183.63 150.51 C189.5 148.07 189.5 148.07 193.26 149.04 C193.89 149.44 194.53 149.84 195.19 150.25 C195.12 152.5 195.12 152.5 194.19 155.25 C188.68 158.82 182.71 161.31 176.69 163.88 C175.69 164.31 174.7 164.74 173.67 165.18 C168.42 167.45 163.15 169.69 157.88 171.91 C156.87 172.35 155.85 172.78 154.8 173.23 C152.87 174.05 150.93 174.87 148.99 175.67 C142.88 178.29 137.62 181.42 132.19 185.25 C132.52 190.2 132.85 195.15 133.19 200.25 C134.34 200.72 135.5 201.2 136.69 201.69 C137.34 201.95 137.99 202.22 138.66 202.5 C145.66 204.58 153.06 204.43 160.31 204.53 C161.9 204.56 161.9 204.56 163.52 204.59 C166.89 204.65 170.25 204.7 173.62 204.75 C198.89 205.14 198.89 205.14 209.22 205.72 C209.93 205.76 210.63 205.79 211.36 205.83 C216.06 206.13 216.06 206.13 217.19 207.25 C217.31 209.75 217.31 209.75 217.19 212.25 C213.04 216.4 199.21 214.44 193.67 214.5 C191.26 214.53 188.85 214.56 186.44 214.6 C182.69 214.64 178.94 214.69 175.19 214.73 C153.47 213.55 153.47 213.55 133.19 219.25 C132.18 222.13 132.18 222.13 131.94 225.5 C131.79 226.62 131.64 227.74 131.48 228.89 C132.41 233.34 134.23 234.44 137.91 236.9 C141.34 238.93 144.81 240.72 148.44 242.38 C149.23 242.74 150.01 243.11 150.83 243.49 C159.69 247.57 168.68 251.37 177.67 255.18 C179.39 255.9 179.39 255.9 181.14 256.65 C182.17 257.08 183.19 257.51 184.24 257.95 C192.55 261.61 192.55 261.61 195.19 264.25 C194.81 266.87 194.81 266.87 194.19 269.25 C186.39 268.94 180.2 266.49 173.08 263.39 C169.88 261.99 166.66 260.64 163.44 259.28 C162.81 259.02 162.18 258.75 161.53 258.47 C156.47 256.34 151.37 254.37 146.19 252.56 C145.53 252.33 144.88 252.1 144.2 251.86 C138.16 249.79 131.42 247.78 125.14 249.96 C122.58 251.65 121.88 253.31 120.56 256.06 C106.04 283.93 78.2 302.14 49.19 312.25 C33.07 317.26 16.88 319.64 0 319.56 C-0.68 319.56 -1.35 319.56 -2.05 319.56 C-36.4 319.38 -69.38 308.57 -95.81 286.25 C-96.62 285.58 -97.44 284.92 -98.27 284.23 C-110.48 273.84 -121.52 259.81 -125.81 244.25 C-126.7 244.62 -127.59 244.98 -128.51 245.36 C-129.77 245.88 -131.04 246.4 -132.3 246.93 C-132.98 247.21 -133.67 247.49 -134.37 247.78 C-138.17 249.34 -141.97 250.91 -145.77 252.47 C-147.34 253.11 -148.9 253.76 -150.47 254.4 C-151.26 254.73 -152.05 255.05 -152.86 255.38 C-157.23 257.18 -161.59 258.99 -165.95 260.82 C-167.82 261.61 -169.69 262.39 -171.57 263.17 C-173.85 264.12 -176.13 265.08 -178.41 266.05 C-179.43 266.47 -180.46 266.9 -181.52 267.34 C-182.4 267.71 -183.28 268.08 -184.19 268.46 C-187.19 269.36 -189.69 269.46 -192.81 269.25 C-193.81 268.25 -193.81 268.25 -194.25 265.94 C-193.81 263.25 -193.81 263.25 -191.38 261.34 C-187.25 258.75 -182.78 256.97 -178.28 255.13 C-176.9 254.56 -176.9 254.56 -175.5 253.98 C-172.59 252.77 -169.67 251.57 -166.75 250.38 C-162.92 248.8 -159.1 247.22 -155.28 245.63 C-153.9 245.07 -153.9 245.07 -152.5 244.49 C-146.28 241.9 -140.15 239.17 -134.08 236.24 C-131.81 235.25 -131.81 235.25 -129.81 235.25 C-131.13 229.97 -132.45 224.69 -133.81 219.25 C-152.85 213.84 -172.9 214.97 -192.53 214.7 C-196.2 214.65 -199.86 214.59 -203.53 214.53 C-204.64 214.52 -205.76 214.5 -206.91 214.49 C-212.62 214.4 -218.16 214.09 -223.81 213.25 C-224.94 208.5 -224.94 208.5 -223.81 206.25 C-213.4 205.53 -203.02 205.16 -192.59 205.04 C-190.84 205.02 -190.84 205.02 -189.05 205 C-184.21 204.94 -179.37 204.88 -174.53 204.85 C-154.33 205.45 -154.33 205.45 -134.81 201.25 C-132.83 197.74 -132.48 194.43 -132.19 190.44 C-132.08 188.97 -132.08 188.97 -131.96 187.48 C-131.89 186.38 -131.89 186.38 -131.81 185.25 C-146.38 174.86 -163.72 168.78 -180.14 161.97 C-181.2 161.53 -182.25 161.09 -183.34 160.63 C-184.28 160.24 -185.21 159.86 -186.18 159.46 C-188.89 158.21 -191.38 156.98 -193.81 155.25 C-194.12 152.06 -194.12 152.06 -193.81 149.25 C-186.84 148.54 -181.53 151.06 -175.19 153.75 C-172.96 154.67 -170.72 155.58 -168.49 156.5 C-166.82 157.19 -166.82 157.19 -165.11 157.9 C-160.2 159.91 -155.26 161.85 -150.31 163.75 C-149.48 164.08 -148.66 164.4 -147.8 164.74 C-136.5 169.17 -136.5 169.17 -124.81 168.25 C-123.32 166.55 -122.32 164.79 -121.23 162.81 C-111.13 144.6 -96.14 129.45 -77.92 119.43 C-70.95 114.54 -66.49 107.63 -62.25 100.38 C-61.49 99.1 -61.49 99.1 -60.72 97.79 C-52.03 82.93 -43.84 67.77 -36.5 52.19 C-32.19 43.04 -27.76 33.95 -23.19 24.92 C-22.45 23.45 -21.71 21.97 -20.98 20.49 C-10.93 0.2 -10.93 0.2 0 0 Z M-7.81 13.25 C-9.68 16.08 -11.14 19.06 -12.61 22.12 C-13.25 23.41 -13.25 23.41 -13.9 24.73 C-15.28 27.52 -16.64 30.32 -18 33.12 C-18.95 35.06 -19.9 37 -20.86 38.93 C-25.9 49.17 -30.89 59.44 -35.75 69.77 C-38.5 75.58 -41.35 81.34 -44.25 87.08 C-44.64 87.85 -45.03 88.63 -45.43 89.43 C-47.39 93.31 -49.35 97.19 -51.33 101.07 C-52.05 102.49 -52.76 103.91 -53.48 105.33 C-53.82 105.98 -54.15 106.64 -54.5 107.31 C-55.94 110.17 -56.81 112.01 -56.81 115.25 C-52.96 115.74 -49.1 116.21 -45.25 116.69 C-43.65 116.89 -43.65 116.89 -42.02 117.1 C-28.33 118.77 -14.66 119.48 -0.88 119.5 C0.2 119.5 0.2 119.5 1.3 119.51 C19.69 119.52 37.99 117.91 56.19 115.25 C55.59 111.56 54.56 108.64 52.85 105.32 C52.36 104.36 51.87 103.39 51.37 102.4 C50.86 101.4 50.34 100.4 49.81 99.38 C45.76 91.45 41.84 83.47 38.01 75.43 C32.73 64.33 27.34 53.3 21.86 42.3 C20.86 40.28 19.86 38.26 18.86 36.24 C17.39 33.25 15.9 30.27 14.42 27.29 C13.98 26.39 13.54 25.5 13.09 24.58 C8.45 14.88 8.45 14.88 0.69 7.94 C-3.07 8.41 -5.3 10.57 -7.81 13.25 Z M-57.81 123.25 C-55.76 127.8 -53.4 131.12 -49.98 134.75 C-49.5 135.26 -49.03 135.77 -48.53 136.3 C-43.08 142.09 -37.5 147.78 -31.89 153.42 C-30.11 155.2 -28.34 157 -26.58 158.8 C-15.29 170.49 -15.29 170.49 0 174.5 C1.53 174.54 1.53 174.54 3.08 174.58 C9.68 173.88 13.88 170.06 18.5 165.62 C19.42 164.75 19.42 164.75 20.37 163.85 C26.52 157.97 32.58 151.99 38.62 145.99 C39.74 144.88 40.86 143.77 41.98 142.67 C50.31 134.56 50.31 134.56 57.19 125.25 C57.19 124.59 57.19 123.93 57.19 123.25 C56.42 123.34 55.66 123.42 54.87 123.51 C16.92 127.74 -19.86 128.28 -57.81 123.25 Z M67.19 123.25 C66.64 124.21 66.64 124.21 66.08 125.2 C62.77 130.72 59.24 135.54 54.82 140.21 C54.31 140.77 53.79 141.32 53.26 141.89 C51.57 143.69 49.88 145.47 48.19 147.25 C47.62 147.85 47.04 148.45 46.46 149.07 C42.87 152.82 39.25 156.54 35.61 160.24 C34.36 161.5 33.13 162.77 31.9 164.05 C24.69 171.52 18.37 177.48 8.71 181.63 C5.95 183.08 5.95 183.08 4.85 186.16 C2.53 196.98 2.6 210.84 8.52 220.41 C14.04 227.6 22.49 232.05 31.44 233.25 C38.68 233.56 45.39 231.74 51.19 227.25 C59.25 219.54 62.33 212.09 64.19 201.25 C65.84 201.25 67.49 201.25 69.19 201.25 C71.22 208.96 69.06 216.66 65.31 223.51 C63.57 226.2 61.61 228.16 59.19 230.25 C58.34 230.99 58.34 230.99 57.48 231.75 C49.34 238.4 40.79 240.94 30.33 240.57 C18.36 239.35 10.23 233.84 2.19 225.25 C1.19 224.25 0.19 223.25 -0.81 222.25 C-1.2 222.83 -1.59 223.41 -1.99 224.01 C-6.46 230.24 -10.98 233.85 -17.81 237.25 C-18.42 237.59 -19.04 237.93 -19.67 238.28 C-26.98 241.77 -37.05 241.36 -44.79 239.56 C-54.02 236.15 -62.65 229.63 -67.07 220.71 C-69.59 214.45 -70.34 208.96 -69.81 202.25 C-67.34 201.75 -67.34 201.75 -64.81 201.25 C-64.52 202.23 -64.23 203.21 -63.93 204.21 C-60.95 213.87 -57.8 223.55 -48.81 229.25 C-43.76 231.76 -39.62 232.77 -33.94 232.69 C-32.89 232.68 -32.89 232.68 -31.82 232.67 C-24.48 232.44 -19.61 230.61 -14.06 225.94 C-6.08 216.41 -4.47 209.43 -4.56 197 C-4.55 195.91 -4.55 194.82 -4.54 193.7 C-4.54 192.66 -4.54 191.62 -4.55 190.55 C-4.55 189.13 -4.55 189.13 -4.55 187.68 C-4.65 184.99 -4.65 184.99 -6.81 182.25 C-8.5 181.45 -10.21 180.71 -11.94 180 C-21.07 175.57 -27.7 168.35 -34.81 161.25 C-36.26 159.83 -37.7 158.41 -39.14 157 C-59.94 136.47 -59.94 136.47 -66.81 124.25 C-87.84 130.65 -104.76 150.65 -114.81 169.25 C-125.61 191.48 -128.07 214.02 -119.97 237.66 C-112.14 259.18 -96.51 276.44 -77.81 289.25 C-76.96 289.84 -76.11 290.44 -75.23 291.05 C-59.72 300.95 -40.87 306.44 -22.81 309.25 C-21.6 309.44 -20.39 309.63 -19.14 309.83 C16.44 314.01 54.06 306.66 83.19 285.25 C86.67 282.39 89.96 279.39 93.19 276.25 C94.03 275.45 94.88 274.64 95.75 273.81 C96.55 272.97 97.36 272.12 98.19 271.25 C99.17 270.26 99.17 270.26 100.17 269.25 C117.02 251.59 124.71 229.68 124.61 205.46 C124.4 196.95 122.85 189.31 120.19 181.25 C119.91 180.36 119.63 179.46 119.35 178.54 C111.22 155.38 90.1 135.07 68.77 124 C68.25 123.75 67.73 123.5 67.19 123.25 Z " fill="#000000" transform="translate(442.8125,333.75)"/>
<path d="M0 0 C3.88 3.48 7.56 7.8 8.29 13.12 C8.6 28.65 7.28 41.29 -3.95 53.04 C-9.02 57.73 -12.85 59.9 -19.88 60.12 C-24.54 59.37 -26.79 56.63 -29.87 53.24 C-32.08 50.91 -34.4 49.02 -36.94 47.06 C-53.81 33.77 -53.81 33.77 -55.41 23.34 C-55.72 17.62 -55 13.39 -51.62 8.71 C-47.88 4.76 -43.29 2.48 -38.31 0.44 C-35 -1 -32.78 -2.74 -30 -5 C-21.9 -8.2 -7.1 -4.39 0 0 Z M-28.62 5.54 C-34.71 12.07 -34.71 12.07 -36.99 20.35 C-35.53 24.27 -32.54 25.96 -29.19 28.19 C-28.56 28.63 -27.93 29.06 -27.28 29.51 C-21.66 33.63 -21.66 33.63 -15.06 34.94 C-10.58 33.56 -8.33 30.9 -5.69 27.12 C-4.47 23.36 -4.48 19.67 -5.66 15.9 C-7.59 13.17 -9.55 12.96 -12.75 12.12 C-18.49 10.41 -21.13 8.48 -25 4 C-27.13 3.77 -27.13 3.77 -28.62 5.54 Z " fill="#000000" transform="translate(335,934)"/>
<path d="M0 0 C1.13 0.04 2.27 0.08 3.44 0.12 C7.9 1.22 9.66 2.82 12.48 6.36 C16.52 13.38 17.91 22.49 16.71 30.49 C14.24 39.26 9.5 48.49 1.56 53.38 C-4.29 56.02 -10.74 55.88 -17 55 C-20.66 53.39 -22.53 51.21 -24 47.44 C-24.86 44.69 -24.86 44.69 -28 43.06 C-31.59 40.6 -31.77 39.04 -33 35 C-34.88 33.89 -34.88 33.89 -37 33 C-40.14 30.12 -41.31 27.87 -41.56 23.69 C-41.3 18.43 -39.24 15.04 -36 11 C-35.5 10.38 -35.01 9.76 -34.5 9.12 C-25.71 -0.69 -12.34 -4.37 0 0 Z M-13.94 18.5 C-16.89 22.84 -22 30.74 -22 36 C-16.07 36.49 -11.92 35.44 -7 32 C-3.95 28.54 -2.74 25.31 -1.56 20.94 C-0.29 16.26 1.26 14.03 5 11 C-1.68 11 -8.91 14.22 -13.94 18.5 Z " fill="#000000" transform="translate(612,914)"/>
<path d="M0 0 C5.85 4.2 9.58 9.49 11.16 16.55 C12.16 24.4 10.37 31.26 5.97 37.8 C0.24 43.4 -5.43 46.67 -13.53 46.8 C-21.52 46.68 -26.28 45.3 -32.16 39.8 C-38.52 32.87 -39.48 27.36 -39.26 18.06 C-38.49 11.52 -35.87 6.06 -30.97 1.61 C-21.2 -4.84 -10.47 -6.05 0 0 Z " fill="#000000" transform="translate(633.84375,427.453125)"/>
<path d="M0 0 C6.59 4.57 10.51 10.53 12 18.39 C12.95 26.24 11.24 32.78 6.44 39.07 C1.11 44.78 -5.22 47.64 -13 48.01 C-21.29 47.61 -27.41 44.47 -33 38.39 C-38.83 31.43 -38.77 24.14 -38 15.39 C-36.29 8.3 -30.75 3.52 -25 -0.61 C-17.41 -4.43 -7.47 -3.91 0 0 Z " fill="#000000" transform="translate(275,426.61328125)"/>
<path d="M0 0 C6.02 0.1 10.61 4.17 14.8 8.15 C18.23 11.91 20.23 15.63 22 20.44 C22.56 21.61 23.11 22.79 23.69 24 C25.84 29.93 25.91 36.24 25 42.44 C22.37 47.72 17.64 51.06 12.19 53.12 C3.36 54.39 -3.97 52.78 -11.31 47.69 C-16.64 43.36 -18.97 39.18 -19.88 32.38 C-20.22 26.62 -19.16 22.71 -15.56 18.19 C-13 15.44 -13 15.44 -10 13.44 C-8.88 11.46 -7.85 9.43 -6.88 7.38 C-3.6 0.53 -3.6 0.53 0 0 Z M2 17.44 C1.61 19.56 1.24 21.69 0.88 23.81 C0.67 25 0.46 26.18 0.24 27.4 C0.16 28.4 0.08 29.4 0 30.44 C0.66 31.1 1.32 31.76 2 32.44 C6.16 32.34 7.73 31.68 10.88 28.88 C11.58 28.07 12.28 27.27 13 26.44 C12.11 25.88 11.23 25.32 10.31 24.75 C7.16 22.66 4.6 20.19 2 17.44 Z " fill="#000000" transform="translate(633,241.5625)"/>
<path d="M0 0 C3.83 2.11 5.83 4.41 7.81 8.38 C10.29 17.89 8.89 28.26 4.49 37 C0.98 42.6 -2.64 46.32 -9.12 48.25 C-13.7 48.44 -17.4 48.01 -20.89 44.82 C-27.06 37.83 -28.27 31.69 -28.19 22.38 C-26.76 12.99 -23.06 6.68 -15.87 0.57 C-10.98 -2.91 -5.24 -2.36 0 0 Z " fill="#000000" transform="translate(861.1875,656.625)"/>
<path d="M0 0 C3.09 1.06 4.61 3.15 6.5 5.74 C9.86 10.28 12.25 12.09 17.86 13.16 C25.97 15.03 25.97 15.03 28.92 18.66 C31.04 24.36 31.69 29.76 29.92 35.66 C27.41 40.16 24.79 43.71 19.92 45.66 C13.88 46.36 9.8 45.06 4.92 41.66 C-3.51 34.51 -12.34 24.98 -14.08 13.66 C-14.15 10.07 -13.94 7.79 -11.73 4.89 C-8.2 1.45 -5 -0.38 0 0 Z " fill="#000000" transform="translate(253.08203125,994.33984375)"/>
<path d="M0 0 C1.98 0.63 1.98 0.63 5.11 2.76 C7.81 4.91 7.81 4.91 10.86 4.57 C13.81 3.75 13.81 3.75 15.89 2.81 C19.54 1.25 21.56 0.59 25.61 1.01 C30.94 3.58 33.87 7.25 36.36 12.57 C37.35 17.43 37.82 21.7 35.79 26.38 C32.71 30.21 30.36 32.26 25.54 33.57 C16.07 34.24 7.18 31.13 -1.08 26.82 C-1.7 26.5 -2.32 26.18 -2.96 25.85 C-8.18 22.96 -12.06 19.44 -14.02 13.7 C-14.02 8.51 -12.21 4.99 -8.83 1.13 C-5.64 -0.57 -3.55 -0.63 0 0 Z " fill="#000000" transform="translate(430.01953125,999.3671875)"/>
<path d="M0 0 C3.91 2.66 6.37 5.75 7.88 10.28 C8.37 15.46 8.48 19.9 6.38 24.71 C1.13 30.09 -3.49 31.54 -11 31.84 C-18.4 31.61 -24.28 29.83 -29.78 24.75 C-33.05 21.03 -34.85 17.87 -35.69 13.03 C-34.78 6.94 -31.07 3.57 -26.34 -0.12 C-18.48 -4.85 -7.96 -4.11 0 0 Z " fill="#000000" transform="translate(572.125,201.72265625)"/>
<path d="M0 0 C1.13 0.03 1.13 0.03 2.29 0.05 C13.67 0.46 13.67 0.46 17.75 3.44 C22.01 8.77 22.33 15.1 22.07 21.7 C21.4 27.48 18.97 30.75 14.52 34.37 C11.45 36.22 8.27 36.14 4.81 36 C3.75 35.98 3.75 35.98 2.66 35.95 C-3.74 35.66 -7.25 34.54 -11.73 29.91 C-15.77 25.28 -16.42 22.69 -16.5 16.62 C-16.53 15.4 -16.55 14.18 -16.58 12.92 C-16.11 7.98 -14.44 5.69 -11.08 2.15 C-7.38 -0.09 -4.19 -0.13 0 0 Z M0.75 14.44 C1.08 15.76 1.41 17.08 1.75 18.44 C3.07 18.11 4.39 17.78 5.75 17.44 C5.75 16.12 5.75 14.8 5.75 13.44 C2.82 13.21 2.82 13.21 0.75 14.44 Z " fill="#000000" transform="translate(223.25,266.5625)"/>
<path d="M0 0 C6.33 3.34 12.43 7.73 15.53 14.33 C16.14 17.37 15.99 19.15 15.53 22.33 C12.31 25.83 8.45 28.15 3.63 28.45 C-2.06 28.47 -7.54 27.96 -13.16 27.08 C-14.38 26.92 -14.38 26.92 -15.63 26.75 C-20.73 25.97 -24.53 24.9 -28.47 21.33 C-29.94 16.24 -28.97 10.7 -26.85 5.89 C-20.9 -4.44 -9.7 -4.23 0 0 Z " fill="#000000" transform="translate(593.47265625,1041.66796875)"/>
<path d="M0 0 C3.66 2.99 5.13 5.34 6.06 9.94 C6.36 14.4 4.87 17.63 2 21 C-1.45 24.1 -4.77 25.97 -9.06 27.69 C-10.08 28.1 -11.11 28.52 -12.16 28.95 C-17.28 30.84 -21.99 31.27 -27.44 31.38 C-28.19 31.41 -28.94 31.45 -29.71 31.49 C-33.95 31.56 -35.54 31.35 -39.02 28.68 C-41 26 -41 26 -41.25 22.69 C-37.97 13.01 -29.79 8.35 -21 4 C-14.38 0.94 -7.35 -1.72 0 0 Z " fill="#000000" transform="translate(298,231)"/>
<path d="M0 0 C4.94 1.86 7.09 6.67 9.23 11.16 C12.12 18.95 12.69 28.75 9.3 36.47 C7.08 39.99 5.03 41.66 0.92 42.72 C-3.84 42.45 -7.84 41.41 -12.02 39.1 C-16.03 34.48 -17.63 29.15 -17.37 23 C-16.33 14.88 -14.54 7.48 -8.89 1.35 C-5.53 -0.59 -3.75 -0.73 0 0 Z " fill="#000000" transform="translate(324.078125,1010.27734375)"/>
<path d="M0 0 C5.2 3.75 7.59 8.89 9 15 C9.31 17.92 9.41 20.81 9.44 23.75 C9.45 24.47 9.46 25.19 9.47 25.93 C9.38 31.63 8.23 35.81 4.12 39.85 C0.24 41.96 -3.72 41.6 -8 41 C-12.86 38.66 -15.56 35.79 -18 31 C-19.93 25.17 -18.74 19.65 -17.38 13.81 C-17.22 13.14 -17.07 12.46 -16.91 11.76 C-15.62 6.75 -13.64 3.69 -10 0 C-6.15 -1.28 -3.93 -0.95 0 0 Z " fill="#000000" transform="translate(579,968)"/>
<path d="M0 0 C5.58 3.16 5.58 3.16 7 6 C7.76 14.64 4.67 21.53 -0.53 28.37 C-5.42 33.8 -10.7 37.18 -18 38 C-21.68 36.68 -24.56 35.09 -27 32 C-28.92 26.24 -29.53 19.2 -26.86 13.61 C-20.8 6.13 -9.85 -0.97 0 0 Z " fill="#000000" transform="translate(289,288)"/>
<path d="M0 0 C4.79 3.18 8.33 6.39 10 12 C10.83 19.55 10.88 26.84 6 33 C1.77 36.75 -2.4 38.27 -8 38 C-12.08 36.64 -15.42 34.51 -18.08 31.06 C-20.51 25.6 -19.81 18.96 -18.27 13.33 C-16.04 7.89 -12.97 4.01 -8.06 0.69 C-4.98 -0.34 -3.26 -0.56 0 0 Z " fill="#000000" transform="translate(453,169)"/>
<path d="M0 0 C6.11 3.52 10.13 8.72 12.28 15.4 C13.69 21.47 13.09 26.17 10 31.61 C7.22 35.68 4.92 37.91 0.16 39.07 C-7.41 40.05 -12 38.59 -18.38 34.38 C-22.81 30.4 -25.6 24.89 -26.7 19.07 C-27.06 11.93 -24.29 6.77 -19.69 1.5 C-14.3 -3.06 -6.27 -2.83 0 0 Z M-17.25 11.44 C-18.12 14.96 -18.12 17.91 -17.25 21.44 C-14.93 25.12 -12.19 28.47 -8.25 30.44 C-4.88 31.02 -4.88 31.02 -1.25 30.44 C2.35 27.3 3.51 25.74 4.38 21.06 C3.56 16.34 1.87 13.06 -1.25 9.44 C-4.19 7.48 -6.37 6.61 -9.81 5.94 C-13.69 6.73 -14.99 8.21 -17.25 11.44 Z " fill="#000000" transform="translate(133.25,905.5625)"/>
<path d="M0 0 C5.42 2.52 8.54 6.27 10.72 11.85 C12.74 18.55 12.17 24.88 9.31 31.25 C6.7 35.99 3.34 38.74 -1.44 41.31 C-7.44 42.92 -11.87 42.13 -17.21 39.2 C-21.42 36.38 -23.42 32.69 -25 28 C-25.84 20.41 -25.86 13.2 -21 7 C-14.38 0.28 -9.44 -0.88 0 0 Z M-11.81 9.69 C-16.05 14.16 -17.08 18.94 -17 25 C-15.85 28.34 -15 30.24 -12.19 32.38 C-9.2 33.23 -7.1 33.44 -4 33 C0.48 29.64 2.07 26.47 3 21 C3.06 17.06 2.61 13.91 0.38 10.56 C-3.88 7.77 -7.37 7.02 -11.81 9.69 Z " fill="#000000" transform="translate(722,892)"/>
<path d="M0 0 C5.66 2.67 9.57 7.07 12.31 12.69 C14.05 21.05 13.77 28.71 9 36 C6.24 39.09 3.24 41.61 -1 42 C-2.61 42.15 -2.61 42.15 -4.25 42.31 C-9.79 41.85 -13.83 40.2 -17.77 36.2 C-22.68 30.05 -24.69 23.92 -24 16 C-22.48 9.9 -19.66 4.33 -14.21 0.86 C-9.67 -0.91 -4.77 -0.51 0 0 Z M-11.69 10.38 C-15.29 14.47 -15.34 17.14 -15.29 22.45 C-14.87 26.13 -13.4 28.25 -11 31 C-7.28 33.48 -5.4 33.46 -1 33 C1.36 31.13 2.66 29.68 4 27 C4.48 21.62 4.92 16.7 2.31 11.88 C-2.23 8.19 -6.85 6.1 -11.69 10.38 Z " fill="#000000" transform="translate(177,892)"/>
<path d="M0 0 C3.78 2.88 5.28 6.91 6.76 11.34 C7.52 18.81 4.8 24.81 1.14 31.16 C-3.38 35.32 -9.12 38.56 -15.36 38.91 C-21.56 38.01 -25.69 36.25 -29.68 31.34 C-32.86 25.23 -33.04 19.5 -31.11 12.84 C-28.72 6.34 -25.11 1.99 -18.86 -1.09 C-12.12 -3.7 -6.41 -3.53 0 0 Z M-19.24 9.34 C-22.08 12.72 -23.15 15.59 -23.68 19.97 C-23.21 23.56 -22.42 25.49 -20.24 28.34 C-16.98 29.97 -14.86 29.81 -11.24 29.34 C-7.2 26.67 -3.79 24 -2.24 19.34 C-1.76 15.05 -1.46 11.54 -3.86 7.84 C-9.59 4.22 -14.14 5.03 -19.24 9.34 Z " fill="#000000" transform="translate(773.23828125,906.65625)"/>
<path d="M0 0 C3.94 2.72 6.1 5.11 7.62 9.69 C8.46 15.73 7.64 19.92 4.11 24.9 C-0.7 30.7 -6.21 33.95 -13.61 35.01 C-19.31 35.3 -23.72 34.01 -28.38 30.69 C-32.15 27.1 -34.16 23.82 -34.69 18.56 C-34.18 12.25 -32.08 7.56 -27.81 2.88 C-19.2 -3.37 -9.35 -5.49 0 0 Z M-24.38 11.5 C-25.86 14.75 -25.82 17.16 -25.38 20.69 C-23.11 23.55 -21.12 25.47 -17.42 25.93 C-11.85 26.11 -8.76 25.45 -4.38 21.69 C-1.75 18.89 -0.56 16.55 -0.38 12.69 C-1.6 9.91 -2.69 8.2 -5.12 6.38 C-12.5 4.12 -18.85 6.49 -24.38 11.5 Z " fill="#000000" transform="translate(797.375,949.3125)"/>
<path d="M0 0 C5.88 2.67 10.27 6.26 13.06 12.16 C14.43 17.13 14.38 21.01 13 25.98 C10.09 30.77 6.97 33.36 1.81 35.54 C-7.08 37.02 -14.4 35.09 -21.94 30.16 C-26.18 25.81 -28.23 21.88 -28.31 15.79 C-28.21 10.77 -27.38 7.98 -23.94 4.16 C-16.94 -2 -9 -2.56 0 0 Z M-18.94 11.16 C-20.14 14.68 -20.28 16.36 -18.81 19.79 C-15.91 23.46 -12.52 26.84 -7.73 27.44 C-3.14 27.62 -0.7 27.68 3.19 25.04 C5.2 22.31 5.2 22.31 5.75 19.29 C4.76 14.8 2.43 12.21 -0.94 9.16 C-6.95 5.53 -14.24 5.75 -18.94 11.16 Z " fill="#000000" transform="translate(109.9375,947.8359375)"/>
<path d="M0 0 C3.56 3.34 4.83 6.51 5.44 11.31 C4.75 16.88 2.6 20.35 -1.44 24.19 C-5.93 27.15 -9.62 28.17 -15 28.19 C-16.01 28.2 -17.02 28.22 -18.06 28.24 C-22.2 27.73 -24.8 25.99 -27.81 23.19 C-29.56 19.78 -29.52 16.58 -29 12.88 C-26.8 6.64 -22.65 3.66 -17.31 0.06 C-11.63 -1.98 -5.68 -2.13 0 0 Z " fill="#000000" transform="translate(346,190.125)"/>
<path d="M0 0 C8.02 3.19 17.57 7.3 22.18 14.96 C23.5 18.23 22.83 20.64 22 24 C19.94 27.78 18.67 28.78 14.56 30.12 C5.51 30.7 -3.58 25.37 -10.25 19.69 C-13.66 16.4 -14.83 14.19 -15.5 9.5 C-14.87 5.1 -13.4 3.75 -10 1 C-6.61 -0.69 -3.64 -0.66 0 0 Z " fill="#000000" transform="translate(573,241)"/>
<path d="M0 0 C3.37 2.75 4.3 5.4 4.94 9.56 C5.46 17.84 3.52 26.67 -2 33 C-5.19 35.75 -6.67 36 -10.94 36 C-15.51 35.2 -17.81 33.34 -21 30 C-23.3 26.02 -23.45 22.54 -23 18 C-20.67 9.95 -17.03 4.69 -10 0 C-6.17 -1.28 -3.91 -0.96 0 0 Z " fill="#000000" transform="translate(536,995)"/>
<path d="M0 0 C3.71 2.76 5.97 5.41 7.44 9.81 C7.84 14.4 7.96 18.5 6.25 22.81 C4 25.29 2.72 26.08 -0.56 26.81 C-10.43 26.48 -19.29 22.46 -26.56 15.81 C-28.04 12.85 -28 11.11 -27.56 7.81 C-21.43 -2.09 -10.69 -3.56 0 0 Z " fill="#000000" transform="translate(375.5625,973.1875)"/>
<path d="M0 0 C5.3 3.64 10.66 8.95 13 15.06 C13.6 19.81 13.88 24.39 11.62 28.69 C7.51 30.84 3.62 31.35 -1 31.06 C-7.83 28.28 -13.99 23.05 -17 16.19 C-18.37 11.75 -18.55 7.48 -17 3.06 C-11.92 -2.01 -6.5 -2.03 0 0 Z " fill="#000000" transform="translate(570,288.9375)"/>
<path d="M0 0 C5.49 6.75 7.09 14.44 7 23 C6.43 26.22 5.71 29.19 4 32 C1.29 33.77 0.07 34 -3.25 34 C-9.29 32.39 -13.54 29.26 -16.94 24 C-19.06 18 -19.28 14.09 -17.08 8.12 C-14.91 3.87 -11.6 1.86 -7.44 -0.38 C-4.4 -1.15 -2.92 -1.2 0 0 Z " fill="#000000" transform="translate(630,1004)"/>
<path d="M0 0 C5.36 2.2 11.44 6.76 14.06 12 C14.72 16.75 14.76 19.98 12 24 C8.25 26.56 6.65 27.22 2.06 27 C-6.14 24.09 -14.9 19.08 -18.94 11 C-19.31 8.19 -19.31 8.19 -18.94 5 C-13.52 -1.42 -7.9 -2.47 0 0 Z " fill="#000000" transform="translate(497.9375,184)"/>
<path d="M0 0 C3.56 1 3.56 1 5.94 3.38 C8.67 9.47 9.56 15.91 7.5 22.38 C5.68 26.37 3.31 28.67 -0.44 31 C-4.52 32.31 -7.72 32.25 -11.81 30.81 C-14.59 28.9 -15.27 28.07 -16.44 25 C-16.85 16.82 -14.26 10.16 -8.88 4.12 C-4.14 0 -4.14 0 0 0 Z " fill="#000000" transform="translate(419.4375,289)"/>
<path d="M0 0 C3.6 2.27 5.54 3.84 7.12 7.81 C6.93 12.89 5 16.89 1.5 20.59 C-2.87 24.37 -6.28 25.18 -11.94 25.31 C-12.98 25.35 -14.02 25.39 -15.09 25.43 C-18 25 -18 25 -20.35 23.22 C-22.36 20.52 -22.57 18.42 -22.38 15.09 C-21.55 10.48 -19.68 7.31 -16.06 4.49 C-10.73 1.07 -6.47 -0.66 0 0 Z " fill="#000000" transform="translate(340,305)"/>
<path d="M0 0 C3.26 1.76 4.46 3.68 5.92 7.04 C6.77 11.53 6.28 14.33 4.17 18.41 C0.87 22.25 0.87 22.25 -2.08 23.04 C-9.38 23.04 -15.63 17.9 -21.21 13.66 C-23.41 10.58 -23.89 8.71 -23.62 4.97 C-22.86 2.21 -21.38 0.5 -19.05 -1.12 C-13.03 -3.7 -5.92 -2.25 0 0 Z " fill="#000000" transform="translate(673.08203125,295.96484375)"/>
<path d="M0 0 C3.31 2.39 4.82 5.01 5.56 9.06 C4.85 12.76 3.54 14.24 1 17 C-4.75 20.74 -10.99 24.29 -18 23 C-20.83 21.74 -22.47 20.67 -24.38 18.25 C-25.33 14.81 -24.89 12.45 -24 9 C-20.84 3.81 -17.33 1.65 -11.63 -0.36 C-7.51 -1.36 -4.01 -1.49 0 0 Z " fill="#000000" transform="translate(336,259)"/>
<path d="M0 0 C2.52 2.52 2.35 3.51 2.44 7 C2.25 15.28 -0.97 21.4 -6.88 27.12 C-9.8 29.47 -10.97 30 -14.81 30.62 C-18.21 29.96 -18.99 29.68 -21 27 C-22.36 20.17 -20.91 14.22 -17.57 8.23 C-12.75 1.38 -8.31 -1.63 0 0 Z " fill="#000000" transform="translate(381,1035)"/>
<path d="M0 0 C3.72 2.75 6.62 5.66 7.38 10.35 C7.14 14.62 6.29 16.64 3.56 20 C-0.56 23.22 -3.86 23.54 -9 23 C-13.53 21.1 -16.31 18.07 -19 14 C-19.89 10.45 -19.8 7.48 -18.04 4.23 C-12.99 -2.35 -7.35 -3.24 0 0 Z " fill="#000000" transform="translate(522,316)"/>
<path d="M0 0 C4.76 2.47 7.63 5.18 10 10 C10.82 13.93 10.98 17.34 8.89 20.88 C6.28 23.79 4.29 24.91 0.5 26.06 C-3.79 25.99 -5.57 25.61 -9 23 C-12.92 17.32 -15.19 11.88 -14 5 C-9.9 0.67 -5.88 -0.58 0 0 Z " fill="#000000" transform="translate(530,246)"/>
<path d="M0 0 C4.14 2.61 7.43 5.3 9 10 C9.47 15.4 9.82 20.3 7.44 25.25 C5 27 5 27 1.62 27.62 C-3.79 26.69 -6.32 24.24 -9.48 20.02 C-12.6 15.08 -13.56 10.97 -13.57 5.16 C-13 3 -13 3 -11.23 1.25 C-7.48 -0.85 -4.17 -0.97 0 0 Z " fill="#000000" transform="translate(469,226)"/>
<path d="M0 0 C2.2 2.9 2.12 5.21 1.95 8.79 C1.14 13.57 -1.87 16.69 -5.25 19.94 C-9.09 22.5 -10.91 22.8 -15.44 22.06 C-18.44 20.26 -20.03 18.75 -21.81 15.75 C-22.66 12.12 -22.42 9.66 -21.44 6.06 C-15.94 0.24 -7.73 -2.97 0 0 Z " fill="#000000" transform="translate(384.4375,224.9375)"/>
<path d="M0 0 C3.26 2.6 4.69 4.06 6 8 C6.37 12.97 6.24 16.11 3 20 C0.25 22 0.25 22 -3 23 C-8.24 21.71 -11.14 19.57 -14.06 15.04 C-16 10.84 -16.79 6.27 -15.25 1.86 C-11.46 -3.76 -5.55 -1.92 0 0 Z " fill="#000000" transform="translate(493,276)"/>
<path d="M0 0 C2.76 2.39 2.98 3.78 3.31 7.44 C2.91 12.07 2.27 14.69 -1 18.06 C-5.68 21.08 -11.02 24.32 -16.73 23.71 C-19 23 -19 23 -20.38 21.38 C-21.48 17.17 -20.97 13.77 -18.87 9.95 C-14.54 3.69 -8.14 -3.22 0 0 Z " fill="#000000" transform="translate(880,799)"/>
<path d="M0 0 C2.17 3.25 2.46 4.96 1.85 8.8 C0.03 13.52 -3.77 16.44 -8 19 C-11.45 20.11 -14.4 20.5 -18 20 C-20.62 18.44 -20.62 18.44 -22 16 C-22.78 12.01 -22.25 10.41 -20.12 6.94 C-14.9 1.32 -7.57 -2.52 0 0 Z " fill="#000000" transform="translate(416,247)"/>
<path d="M0 0 C3.01 2.52 4.77 4.24 5.29 8.22 C5.11 12.36 4.37 15.22 1.31 18.12 C-2 20 -2 20 -5.06 20.19 C-8.9 18.64 -11.03 16.56 -13 13 C-14.39 9.19 -15.65 5.72 -14.17 1.81 C-10.78 -3.44 -4.95 -2.24 0 0 Z " fill="#000000" transform="translate(630,319)"/>
</svg>
