<?xml version="1.0" encoding="UTF-8"?>
<!-- Generator: visioncortex VTracer 0.6.3 -->
<svg version="1.1" xmlns="http://www.w3.org/2000/svg" width="1197" height="1280">
<path d="M0 0 C1.74 0.82 1.74 0.82 3.51 1.65 C4.12 1.93 4.73 2.22 5.35 2.51 C19.26 9.13 31.86 17.93 44.51 26.65 C45.2 27.12 45.89 27.6 46.61 28.09 C56.08 34.64 65.18 41.69 74.32 48.69 C78.15 51.62 82 54.51 85.87 57.39 C93.44 63.01 100.8 68.85 108.08 74.84 C108.68 75.32 109.28 75.8 109.89 76.29 C111.51 77.65 111.51 77.65 113.84 80.02 C120.6 84.14 130.56 81.26 138.01 80.21 C217.44 69.8 320.6 82.84 387.51 129.65 C388.11 130.12 388.72 130.59 389.35 131.08 C392.57 133.84 392.57 133.84 396.54 134.43 C399.75 133.15 401.95 130.65 404.38 128.27 C410.49 122.47 416.89 117.25 423.58 112.14 C425.63 110.55 427.66 108.95 429.69 107.34 C504.79 47.95 504.79 47.95 535.51 50.65 C539.42 51.63 541.55 53.38 543.97 56.58 C558.52 81.56 545.69 120.93 538.94 146.97 C527.33 190.92 512.72 236.7 491.57 277.09 C488.29 283.68 488.24 288.46 489.51 295.65 C489.68 296.82 489.68 296.82 489.86 298.02 C490.2 300.32 490.57 302.61 490.95 304.9 C497.56 348.33 496.82 393.88 486.51 436.65 C486.34 437.37 486.17 438.09 485.99 438.83 C485.2 442.11 484.39 445.39 483.51 448.65 C497.7 437.23 511.31 425.21 524.51 412.65 C525.3 411.9 526.09 411.15 526.91 410.38 C539.69 397.97 550.22 382.79 560 367.96 C576.94 342.24 576.94 342.24 593.01 337.65 C600.35 337.65 606.68 339.83 612.04 344.9 C616.58 350.3 618.51 356.46 618.82 363.41 C618.87 364.3 618.91 365.19 618.95 366.11 C618.99 367.03 619.03 367.95 619.07 368.9 C619.14 370.3 619.14 370.3 619.2 371.73 C619.31 374.04 619.41 376.34 619.51 378.65 C622.15 379.97 624.57 380.05 627.51 380.4 C635.92 381.68 642.72 383.88 648.07 390.77 C652.87 397.76 652.45 407.12 651.06 415.27 C650.58 417.08 650.05 418.86 649.51 420.65 C649.51 421.97 649.51 423.29 649.51 424.65 C650.43 424.94 650.43 424.94 651.38 425.24 C658.77 427.85 666.06 431.82 669.73 439.07 C671.49 444.93 671.5 451.31 668.88 456.9 C668.13 458.17 667.34 459.42 666.51 460.65 C666.14 461.22 665.78 461.79 665.4 462.38 C657.01 473.69 641.96 478.82 629.56 484.2 C610.87 492.35 596.02 502.82 580.62 516 C577.81 518.41 574.95 520.75 572.07 523.09 C567.88 526.49 563.78 529.99 559.7 533.52 C554.56 537.96 549.32 542.21 543.96 546.37 C540.05 549.4 536.23 552.52 532.44 555.69 C517.44 568.21 501.53 579.49 485.51 590.65 C484.88 591.09 484.25 591.53 483.6 591.98 C471.03 600.73 458.27 609.18 445.51 617.65 C447.76 623.48 450.15 629.11 453.07 634.65 C469.14 666.27 479.75 700.12 487.79 734.57 C488.65 738.27 489.57 741.96 490.51 745.65 C490.83 744.86 490.83 744.86 491.16 744.05 C504.76 711.01 522.62 681.39 547.51 655.65 C548.14 655 548.77 654.34 549.42 653.67 C557.4 645.46 565.46 637.69 574.51 630.65 C575.61 629.75 576.71 628.84 577.81 627.93 C595.88 613.1 615.61 600.47 635.14 587.68 C638 585.8 640.86 583.93 643.72 582.05 C645.67 580.78 647.61 579.51 649.55 578.24 C660.53 571.08 671.28 563.86 681.51 555.65 C683.19 554.33 684.88 553.02 686.57 551.71 C694.3 545.49 701.51 538.67 708.51 531.65 C709.41 530.82 709.41 530.82 710.32 529.97 C722.65 518.42 731.66 503.45 739.76 488.77 C746.12 477.24 752.38 466.03 760.51 455.65 C761.06 454.92 761.61 454.19 762.17 453.43 C766.63 447.79 772.71 443.24 780 442.34 C790.78 441.87 798.44 445.77 806.57 452.65 C860.78 504.78 879.95 609.16 882.61 681.56 C882.67 684.52 882.7 687.47 882.71 690.43 C882.72 692.06 882.72 692.06 882.73 693.71 C882.75 697.19 882.76 700.67 882.76 704.15 C882.76 705.93 882.76 705.93 882.76 707.75 C882.74 725.25 882.39 742.35 879.51 759.65 C879.33 760.74 879.15 761.83 878.97 762.96 C876.5 777.82 873.07 792.29 868.51 806.65 C868.26 807.45 868.01 808.26 867.75 809.09 C857.58 841.58 840.03 871.24 817.51 896.65 C817.03 897.19 816.54 897.74 816.05 898.3 C792.2 925.11 762.7 944.24 730.51 959.65 C729.7 960.04 728.89 960.42 728.06 960.82 C706.85 970.96 685.14 979 662.16 984.06 C660.53 984.42 658.9 984.8 657.28 985.19 C599.61 999.07 537.86 974.07 486.18 950.76 C483.68 949.52 483.68 949.52 481.51 949.65 C477.11 956.9 474 963.05 473.82 971.65 C473.19 999.64 463.68 1028.18 456.83 1055.18 C455.51 1060.38 454.2 1065.58 452.88 1070.77 C452.72 1071.42 452.56 1072.07 452.39 1072.74 C447.04 1093.91 442.06 1115.09 438.51 1136.65 C438.32 1137.72 438.32 1137.72 438.14 1138.8 C437.1 1145.65 437.26 1152.62 437.26 1159.52 C437.26 1160.22 437.26 1160.91 437.25 1161.62 C437.27 1172.58 438.12 1182.94 440.51 1193.65 C447.21 1225.01 447.21 1225.01 438.38 1239.02 C432.77 1244.15 426.8 1246.49 419.38 1247.84 C413.16 1249.21 410.94 1252.12 407.38 1257.2 C403.88 1261.77 399.15 1264.57 393.51 1265.65 C392.16 1265.74 390.8 1265.78 389.45 1265.77 C388.65 1265.77 387.85 1265.78 387.02 1265.78 C384.51 1265.65 384.51 1265.65 382.18 1265.18 C374.25 1263.69 368.11 1266.19 360.85 1269.2 C355.09 1271.48 350.58 1272.2 344.51 1270.65 C338.98 1267.99 336.06 1264.09 333.51 1258.65 C332.54 1255.67 331.94 1252.75 331.51 1249.65 C331.34 1248.45 331.17 1247.25 331 1246.02 C330.29 1239.54 330.35 1233.04 330.34 1226.54 C330.33 1224.13 330.32 1221.72 330.3 1219.31 C330.25 1212.46 330.2 1205.62 330.18 1198.77 C330.1 1168.37 328.33 1138.34 322.01 1108.52 C321.7 1107.03 321.4 1105.53 321.1 1104.03 C320.26 1099.9 319.39 1095.77 318.51 1091.65 C318.27 1090.55 318.04 1089.46 317.8 1088.33 C316.75 1083.43 315.66 1078.53 314.51 1073.65 C307.32 1074.31 300.6 1076.12 293.63 1077.96 C280.01 1081.45 266.46 1083.95 252.51 1085.65 C251.29 1085.8 250.07 1085.95 248.81 1086.1 C220.96 1089.38 193.1 1089.98 165.19 1086.83 C161.3 1086.57 157.41 1086.62 153.51 1086.65 C153.36 1088.35 153.36 1088.35 153.2 1090.08 C152.98 1092.59 152.76 1095.1 152.54 1097.61 C152.09 1102.59 151.65 1107.58 151.22 1112.57 C150.34 1122.61 149.42 1132.65 148.35 1142.68 C146.05 1164.61 145.11 1186.2 145.48 1208.26 C146.16 1253.68 146.16 1253.68 133.51 1269.65 C128.5 1274.3 124.32 1276.79 117.38 1276.84 C116.49 1276.85 115.6 1276.86 114.69 1276.88 C112.04 1276.69 109.94 1276.28 107.4 1275.63 C100.71 1274.05 93.95 1274.63 87.13 1274.9 C80.83 1275.04 77.31 1274.85 72.51 1270.65 C71.6 1269.93 70.69 1269.2 69.76 1268.46 C69.02 1267.86 68.27 1267.26 67.51 1266.65 C64.95 1265.37 62.62 1265.46 59.79 1265.36 C49.99 1264.99 40.39 1264.63 32.97 1257.41 C25.31 1248.21 25.97 1234.88 25.12 1223.48 C25.05 1222.6 24.98 1221.72 24.9 1220.82 C24.77 1219.17 24.65 1217.52 24.56 1215.87 C23.26 1199.69 17.08 1183.85 11.98 1168.57 C-9.74 1103.36 -28.55 1036.76 -38.49 968.65 C-38.71 967.16 -38.71 967.16 -38.93 965.64 C-41.42 947.86 -41.45 929.27 -39.89 911.41 C-39.42 905.34 -39.86 899.88 -40.87 893.9 C-42.75 881.16 -43.25 868.51 -43.49 855.65 C-43.51 854.67 -43.54 853.7 -43.56 852.7 C-44.69 797.67 -34.93 736.96 -17.49 684.65 C-18.01 684.52 -18.52 684.4 -19.05 684.27 C-50.25 675.87 -77.01 655.88 -101.49 635.65 C-103.2 634.25 -104.91 632.86 -106.62 631.46 C-109.89 628.79 -113.16 626.1 -116.4 623.39 C-142.97 601.27 -166.26 584.98 -201.8 583.65 C-222.75 582.86 -245.15 581.24 -261.37 566.34 C-266.32 560.98 -268.67 555.37 -269.05 548.09 C-268.81 542.51 -267.26 538.76 -263.49 534.65 C-260.94 532.45 -258.31 530.49 -255.49 528.65 C-255.82 527.79 -255.82 527.79 -256.15 526.92 C-258.79 519.22 -260.36 510.86 -257.54 503 C-255.61 499.33 -253.69 496.83 -250.62 494.02 C-248.08 491.74 -248.08 491.74 -248.62 488.09 C-249.06 486.33 -249.51 484.58 -250.03 482.85 C-251.94 473.79 -251.01 464.72 -246.49 456.65 C-244.24 453.52 -244.24 453.52 -242.49 451.65 C-244.06 447.27 -247.5 444.91 -250.99 442.09 C-271.25 425.15 -291.4 399.16 -299.55 373.65 C-301.2 368.61 -303.95 365.62 -307.59 361.85 C-315.16 353.1 -315.12 341.78 -314.66 330.83 C-314.03 322.76 -310.45 316.41 -304.89 310.66 C-298.58 305.36 -291.32 301.59 -282.93 302.2 C-274.61 303.73 -268.17 307.41 -262.49 313.65 C-261.62 315.2 -260.77 316.77 -259.93 318.34 C-258.17 321.02 -257.25 322.4 -254.17 323.41 C-251.31 323.63 -248.58 323.56 -245.71 323.38 C-244.66 323.35 -243.6 323.32 -242.52 323.29 C-239.15 323.18 -235.79 323.01 -232.43 322.84 C-230.23 322.76 -228.02 322.69 -225.82 322.62 C-215.51 322.26 -205.24 321.64 -194.97 320.69 C-193.74 320.57 -193.74 320.57 -192.48 320.46 C-167.04 317.91 -146.42 308.37 -129.93 288.27 C-128.45 286.4 -126.97 284.52 -125.49 282.65 C-124.08 280.96 -122.66 279.27 -121.24 277.59 C-111.25 265.35 -102.43 252.16 -93.44 239.19 C-87.77 231.01 -81.99 222.92 -76.12 214.89 C-74.4 212.52 -72.68 210.14 -70.96 207.77 C-62.8 196.54 -54.24 185.93 -44.99 175.59 C-44.28 174.79 -43.57 174 -42.84 173.18 C-41.09 171.29 -39.31 169.5 -37.45 167.71 C-36.68 166.95 -36.68 166.95 -35.9 166.17 C-34.45 164.73 -32.97 163.31 -31.48 161.9 C-28.58 157.16 -29.46 153.94 -30.49 148.65 C-30.7 147.55 -30.9 146.45 -31.11 145.31 C-31.7 142.19 -32.33 139.07 -32.96 135.96 C-40.58 98.45 -43.41 61.16 -36.18 23.34 C-35.99 22.32 -35.8 21.3 -35.61 20.25 C-33.99 12.34 -31.58 4.12 -25.43 -1.48 C-17.46 -6.3 -7.93 -3.39 0 0 Z M-24.49 6.65 C-33.69 25.54 -33.91 48.75 -33.87 69.34 C-33.87 70.27 -33.87 71.21 -33.87 72.18 C-33.79 98.97 -29.31 124.56 -23.49 150.65 C-18.49 150.65 -16.95 148.73 -13.49 145.52 C0.69 132.9 16.76 122.54 33.51 113.65 C34.47 113.13 35.44 112.62 36.44 112.09 C59.39 100.08 83.48 92.08 108.51 85.65 C108.51 84.66 108.51 83.67 108.51 82.65 C106.22 80.54 103.95 78.62 101.51 76.71 C100.78 76.13 100.06 75.56 99.31 74.96 C93.23 70.15 87.05 65.49 80.83 60.88 C77.69 58.55 74.59 56.18 71.5 53.8 C60.78 45.53 49.91 37.61 38.65 30.09 C36.67 28.75 34.69 27.4 32.73 26.04 C25.59 21.14 18.25 16.62 10.76 12.27 C9.48 11.52 9.48 11.52 8.18 10.76 C-8.45 1.14 -8.45 1.14 -24.49 6.65 Z M422.36 121.11 C420.53 122.63 418.68 124.15 416.84 125.66 C415.68 126.61 414.53 127.57 413.38 128.52 C412.39 129.35 411.4 130.17 410.38 131.02 C407.12 134.01 404.31 137.23 401.51 140.65 C402.96 141.99 402.96 141.99 404.44 143.36 C408.48 147.11 412.5 150.87 416.51 154.65 C417.44 155.53 418.38 156.41 419.34 157.31 C426.13 163.88 431.87 171.1 437.51 178.65 C437.94 179.23 438.37 179.8 438.82 180.4 C445.33 189.13 451.15 198.17 456.51 207.65 C456.9 208.33 457.29 209.02 457.69 209.73 C468 227.95 476.39 247.54 481.67 267.82 C482.2 269.79 482.84 271.72 483.51 273.65 C484.5 273.98 485.49 274.31 486.51 274.65 C493.32 260.06 499.25 245.26 504.82 230.15 C505.23 229.04 505.64 227.93 506.07 226.78 C532.62 156.61 532.62 156.61 542.82 82.77 C542.85 81.76 542.88 80.75 542.91 79.71 C542.97 72.53 542.02 66.01 538.51 59.65 C534.84 56.41 532.39 56.01 527.59 56.18 C490.41 61.8 450.31 97.86 422.36 121.11 Z M44.51 113.65 C43.8 113.99 43.08 114.34 42.35 114.69 C24.88 123.22 8.52 134.33 -6.49 146.65 C-7.06 147.11 -7.62 147.57 -8.2 148.05 C-22.91 160.21 -36.77 173.57 -48.49 188.65 C-49.51 189.89 -50.54 191.14 -51.56 192.38 C-58.11 200.3 -64.33 208.36 -70.2 216.8 C-72.07 219.48 -73.96 222.15 -75.85 224.81 C-79.4 229.83 -82.93 234.85 -86.46 239.88 C-117.66 284.2 -117.66 284.2 -132.49 299.65 C-133.47 300.74 -133.47 300.74 -134.46 301.84 C-149.77 318.38 -171.78 324.57 -193.52 326.7 C-194.36 326.78 -195.21 326.87 -196.09 326.95 C-208.34 328.09 -220.64 328.37 -232.93 328.75 C-236.12 328.86 -239.31 328.97 -242.5 329.09 C-243.48 329.11 -244.45 329.14 -245.46 329.17 C-246.36 329.2 -247.25 329.24 -248.18 329.27 C-248.96 329.29 -249.75 329.32 -250.56 329.35 C-252.73 329.49 -252.73 329.49 -254.49 331.65 C-254.7 334.44 -254.7 334.44 -254.55 337.65 C-254.46 342.8 -254.7 347.72 -255.37 352.82 C-255.41 353.42 -255.45 354.03 -255.49 354.65 C-254.34 356.03 -254.34 356.03 -251.16 355.76 C-249.64 355.76 -248.12 355.76 -246.6 355.75 C-245.77 355.74 -244.94 355.74 -244.08 355.74 C-242.26 355.74 -240.44 355.73 -238.62 355.72 C-235.71 355.71 -232.79 355.7 -229.88 355.7 C-225.72 355.69 -221.57 355.68 -217.41 355.67 C-206.66 355.63 -195.91 355.63 -185.16 355.62 C-184.11 355.62 -183.06 355.62 -181.97 355.62 C-159.14 355.62 -136.32 355.87 -113.49 356.65 C-112.55 356.68 -111.6 356.71 -110.63 356.74 C-95.58 357.25 -80.53 357.89 -65.49 358.65 C-64.55 358.7 -63.6 358.74 -62.62 358.79 C30.94 363.54 124.42 376.41 280.51 418.65 C281.42 418.95 282.34 419.24 283.28 419.55 C336.76 436.98 393.73 456.4 440.87 487.87 C441.84 488.52 442.82 489.17 443.82 489.84 C444.64 490.41 445.46 490.98 446.31 491.57 C448.41 492.82 448.41 492.82 450.57 492.57 C463.93 486.2 472.2 460.85 476.76 448.01 C500.92 376.21 490.76 288.02 457.88 221.06 C450.53 206.29 441.77 192.56 431.51 179.65 C430.45 178.3 430.45 178.3 429.38 176.93 C421.27 166.81 412.64 156.8 402.51 148.65 C401.52 147.83 400.53 147.01 399.5 146.17 C332.65 91.77 231.07 77.48 44.51 113.65 Z M575.94 355.55 C574.29 357.74 572.7 359.96 571.13 362.21 C570.28 363.41 570.28 363.41 569.41 364.64 C565.63 369.98 561.99 375.39 558.39 380.86 C547.77 396.58 535.33 412.54 520.69 424.79 C518.36 426.78 516.12 428.85 513.88 430.95 C506.43 437.92 498.74 444.51 490.55 450.6 C481.08 457.77 475.75 464 470.51 474.65 C466.43 481.83 461.96 488.59 456.88 495.09 C456.44 495.65 456 496.22 455.54 496.8 C453.23 499.7 450.83 502.36 448.17 504.93 C445.27 507.25 445.27 507.25 445.51 509.65 C444.85 509.65 444.19 509.65 443.51 509.65 C443.51 510.31 443.51 510.97 443.51 511.65 C442.91 511.91 442.32 512.18 441.71 512.45 C439.42 513.7 438.06 514.96 436.29 516.86 C376.33 578.44 263.54 588.46 182.22 589.7 C134.56 590.25 87.07 587.19 40.47 576.85 C39.42 576.62 39.42 576.62 38.35 576.38 C36.44 575.97 34.53 575.54 32.62 575.11 C28.94 574.56 28.94 574.56 25.51 575.65 C24.11 578.31 23.04 580.79 22.01 583.59 C21.67 584.46 21.34 585.33 20.99 586.23 C19.81 589.36 18.65 592.5 17.51 595.65 C17.06 596.88 16.61 598.11 16.15 599.38 C12.49 609.43 8.97 619.53 5.51 629.65 C5.27 630.35 5.03 631.05 4.78 631.77 C-23.58 714.84 -45.3 806.81 -12.87 963.65 C-4.94 979.42 4.76 994.43 16.51 1007.65 C17.27 1008.5 18.03 1009.36 18.81 1010.24 C20.33 1011.94 21.85 1013.62 23.39 1015.3 C25.33 1017.45 27.2 1019.63 29.07 1021.84 C54.39 1050.83 96.01 1069.55 133.51 1075.65 C135.17 1075.69 136.84 1075.7 138.51 1075.65 C135.85 1072.84 133.03 1070.47 129.94 1068.15 C106.32 1050.37 89.2 1026.59 75.51 1000.65 C75.15 999.98 74.79 999.31 74.42 998.62 C57.84 967.38 50.05 931.42 45.51 896.65 C45.39 895.79 45.27 894.93 45.15 894.05 C35.82 824.51 47.41 737.33 89.51 679.65 C92.98 675.14 96.72 670.89 100.51 666.65 C101.23 665.78 101.96 664.91 102.71 664.01 C126.51 635.98 163.08 625.07 198.45 621.96 C200.47 621.84 202.49 621.73 204.51 621.65 C205.89 621.59 205.89 621.59 207.31 621.52 C255.15 620.51 305.8 634.86 341.51 667.65 C342.93 668.92 342.93 668.92 344.37 670.23 C356.42 681.61 364.8 695.6 371.51 710.65 C371.84 711.38 372.17 712.12 372.51 712.88 C387.74 747.32 392.54 785.19 395.63 822.4 C395.71 823.31 395.78 824.21 395.86 825.15 C397.37 844.68 397.7 864.21 397.69 883.8 C397.69 886.52 397.7 889.25 397.71 891.98 C397.82 914.31 397.36 936.68 393.76 958.77 C393.59 959.84 393.41 960.91 393.24 962.01 C389.66 983.28 383.15 1003.47 376.21 1023.84 C375.99 1024.51 375.76 1025.18 375.52 1025.87 C374.36 1029.26 373.14 1032.61 371.84 1035.95 C370.34 1039.46 370.34 1039.46 370.51 1042.65 C375.6 1042.05 379.68 1039.72 384.13 1037.34 C384.96 1036.9 385.79 1036.45 386.65 1036 C405.87 1025.63 423.23 1013.18 439.51 998.65 C440.71 997.58 440.71 997.58 441.94 996.48 C481.27 959.24 492.88 903.33 494.43 851.38 C495.96 768.76 475.05 684.4 434.6 612.46 C434.13 611.63 433.66 610.8 433.18 609.94 C432.3 608.37 431.4 606.8 430.5 605.24 C427.51 599.97 427.51 599.97 427.51 596.65 C428.83 596.65 430.15 596.65 431.51 596.65 C432.79 598.03 432.79 598.03 433.87 599.93 C434.26 600.61 434.65 601.28 435.06 601.98 C435.45 602.7 435.85 603.41 436.26 604.15 C436.67 604.86 437.08 605.58 437.5 606.32 C438.52 608.09 439.51 609.87 440.51 611.65 C445.31 610.29 449.11 608.17 453.17 605.35 C453.8 604.93 454.42 604.5 455.07 604.06 C457.09 602.68 459.11 601.29 461.13 599.9 C462.54 598.94 463.95 597.97 465.35 597.01 C468.8 594.65 472.24 592.28 475.67 589.91 C478.2 588.17 480.73 586.44 483.26 584.71 C495.3 576.41 506.95 567.62 518.51 558.65 C519.2 558.11 519.9 557.57 520.61 557.02 C531.16 548.82 541.5 540.38 551.68 531.73 C555.05 528.87 558.45 526.06 561.88 523.27 C564.93 520.8 567.93 518.3 570.86 515.69 C590.26 498.47 609.99 485.3 634.11 475.72 C645.5 471.11 657.21 465.27 663.45 454.21 C665.06 448.8 665.44 444.82 663.13 439.46 C659.48 435.55 655.35 433.79 650.51 431.65 C644.61 428.75 644.61 428.75 643.51 427.65 C643.11 423.35 643.26 419.47 644.51 415.34 C646.24 408.96 646.45 402.43 644.32 396.15 C639.52 389.52 633.18 387.43 625.36 386.12 C623.28 385.82 621.2 385.53 619.11 385.27 C616.16 384.57 615.33 384.01 613.51 381.65 C613.14 379.43 613.14 379.43 613.14 376.86 C613.12 375.92 613.1 374.97 613.08 374 C613.07 372.04 613.07 370.08 613.07 368.11 C612.93 361.06 611.99 354.38 606.99 349.02 C602.55 345.22 599.63 344.29 593.95 344.37 C586.76 345.2 580.45 350.1 575.94 355.55 Z M-269.33 370.03 C-274.04 373.56 -279.13 373.95 -284.87 374.27 C-286.74 374.39 -286.74 374.39 -288.64 374.5 C-290.05 374.57 -290.05 374.57 -291.49 374.65 C-290.88 379.51 -288.83 383.33 -286.55 387.59 C-286.16 388.33 -285.76 389.08 -285.35 389.85 C-245.75 462.38 -157.19 495.76 -85.47 527.76 C-83.55 528.62 -81.63 529.48 -79.72 530.34 C-1.65 565.35 79.12 584.48 164.82 584.04 C167.31 584.02 169.8 584.02 172.29 584.01 C196.78 583.94 221.16 583.62 245.51 580.65 C246.77 580.5 246.77 580.5 248.07 580.34 C270.77 577.57 293.28 574.11 315.51 568.65 C316.59 568.38 317.68 568.12 318.8 567.85 C364.01 556.7 406.59 538.12 440.51 505.65 C441.47 504.8 442.43 503.95 443.41 503.07 C445.75 500.94 445.75 500.94 445.41 498.71 C442.28 491.58 430.24 487.1 423.63 483.59 C422.6 483.03 421.56 482.48 420.49 481.91 C417.17 480.14 413.84 478.39 410.51 476.65 C408.91 475.81 408.91 475.81 407.28 474.95 C326.91 432.84 236.29 407.09 -146.35 361.45 C-148.68 361.45 -151.02 361.44 -153.36 361.44 C-160.72 361.42 -168.08 361.41 -175.43 361.41 C-183.86 361.41 -192.29 361.39 -200.73 361.36 C-207.3 361.34 -213.88 361.33 -220.46 361.33 C-224.37 361.32 -228.27 361.32 -232.18 361.3 C-235.83 361.28 -239.48 361.28 -243.14 361.29 C-245.11 361.29 -247.08 361.28 -249.05 361.26 C-250.82 361.27 -250.82 361.27 -252.62 361.28 C-254.15 361.28 -254.15 361.28 -255.71 361.28 C-261.55 362.06 -265.24 366.12 -269.33 370.03 Z M761.29 464.45 C754.77 474.55 748.92 485.08 743.1 495.59 C739.82 501.47 736.33 507.11 732.51 512.65 C733.17 512.98 733.83 513.31 734.51 513.65 C737.47 512.27 740.32 510.76 743.19 509.19 C749.87 505.66 749.87 505.66 753.51 506.65 C758.82 511.12 761.82 517.49 764.88 523.59 C765.33 524.46 765.78 525.34 766.25 526.24 C767.34 528.37 768.43 530.51 769.51 532.65 C772.83 531.54 773.35 530.9 775.36 528.18 C775.9 527.47 776.44 526.76 776.99 526.02 C777.55 525.26 778.12 524.5 778.7 523.71 C779.86 522.16 781.03 520.6 782.2 519.05 C782.77 518.3 783.34 517.54 783.92 516.76 C785.94 514.07 787.99 511.42 790.07 508.77 C790.94 507.66 790.94 507.66 791.82 506.53 C794.67 503.35 796.41 501.71 800.76 501.46 C810.88 504.67 816.72 516.22 822.55 524.5 C824.77 527.64 827.06 530.68 829.51 533.65 C833.25 532.18 834.75 530.3 836.82 526.9 C837.62 525.64 837.62 525.64 838.43 524.35 C840.14 520.05 838.94 516.73 837.25 512.53 C836.73 511.43 836.2 510.34 835.66 509.21 C835.38 508.61 835.09 508.02 834.8 507.4 C833.88 505.48 832.94 503.56 832.01 501.65 C831.69 501 831.37 500.34 831.05 499.67 C826.45 490.25 821.74 481.11 815.51 472.65 C814.85 471.75 814.18 470.85 813.5 469.92 C806.25 460.51 798.23 450.43 785.93 448.18 C774.54 447.5 767.26 455.6 761.29 464.45 Z M-240.12 458.21 C-244.7 464.27 -245.24 471.3 -244.49 478.65 C-243.79 481.52 -242.98 484.3 -242.05 487.11 C-241.4 490.09 -241.5 491.76 -242.49 494.65 C-244.27 496.68 -244.27 496.68 -246.43 498.59 C-251.01 502.97 -252.22 506.02 -252.87 512.34 C-252.79 516.95 -251.07 520.84 -249.27 525.04 C-248.35 528.11 -248.36 529.65 -249.49 532.65 C-251.45 534.34 -251.45 534.34 -253.87 535.77 C-259.48 539.1 -259.48 539.1 -262.49 544.65 C-263.08 550.43 -262.52 553.86 -259.15 558.64 C-248.83 571.15 -235.15 574.56 -219.64 576.35 C-211.65 577.1 -203.61 577.49 -195.58 577.83 C-182.11 578.45 -169.58 580.29 -157.49 586.65 C-156.19 587.29 -156.19 587.29 -154.86 587.95 C-142.66 594.24 -131.98 602.87 -121.49 611.65 C-119.7 613.11 -117.91 614.57 -116.12 616.02 C-112.65 618.86 -109.21 621.73 -105.81 624.64 C-98.52 630.85 -91.11 636.85 -83.49 642.65 C-82.82 643.16 -82.15 643.67 -81.46 644.2 C-65.07 656.64 -47.65 667.07 -28.49 674.65 C-27.48 675.07 -27.48 675.07 -26.44 675.5 C-22.66 677.01 -19.65 678.04 -15.49 677.65 C-12.3 668.3 -9.25 658.92 -6.36 649.48 C0.38 627.47 7.57 605.66 16.46 584.41 C16.86 583.45 17.26 582.48 17.67 581.49 C18.03 580.65 18.38 579.8 18.75 578.94 C19.72 576.42 19.72 576.42 19.51 572.65 C18.92 572.46 18.33 572.28 17.72 572.09 C-30.31 556.99 -75.91 538.1 -121.49 516.65 C-122.48 516.19 -123.46 515.72 -124.48 515.25 C-203.6 477.95 -203.6 477.95 -230.22 457.83 C-234.53 454.95 -236.31 454.49 -240.12 458.21 Z M795.78 509.14 C795.27 509.83 794.76 510.52 794.24 511.23 C793.66 512 793.09 512.76 792.5 513.54 C791.9 514.36 791.31 515.18 790.7 516.02 C789.45 517.68 788.21 519.33 786.96 520.99 C786.37 521.79 785.77 522.59 785.16 523.42 C783.12 526.17 781.05 528.89 778.95 531.59 C778.11 532.68 778.11 532.68 777.25 533.8 C775.13 536.04 773.35 537.42 770.51 538.65 C768.02 538.42 768.02 538.42 765.51 536.65 C763.49 533.69 761.95 530.55 760.38 527.34 C759.53 525.63 758.67 523.93 757.81 522.22 C757.41 521.43 757.01 520.63 756.6 519.81 C754.22 514.47 754.22 514.47 749.51 511.65 C746.89 512.96 744.44 514.32 741.95 515.84 C737.52 518.49 733.32 520.77 728.44 522.48 C723 524.58 719.92 527.77 716.2 532.15 C714.9 533.6 713.6 535.04 712.29 536.48 C711.66 537.19 711.02 537.9 710.36 538.63 C700.89 548.95 689.76 557.39 678.51 565.65 C677.54 566.36 677.54 566.36 676.56 567.08 C663.99 576.27 650.88 584.66 637.84 593.16 C611.82 610.14 586.49 627.64 563.51 648.65 C562.53 649.53 561.54 650.4 560.53 651.31 C554.1 657.08 548.1 663.05 542.51 669.65 C542.03 670.2 541.56 670.75 541.07 671.32 C531.82 682.11 523.93 693.55 516.51 705.65 C515.87 706.68 515.87 706.68 515.23 707.73 C508.08 719.45 502.69 731.96 497.51 744.65 C497.01 745.86 496.5 747.08 495.99 748.33 C491.53 760.2 493.64 772.45 495.45 784.71 C497.31 797.74 498.57 810.62 499.07 823.77 C499.11 824.86 499.15 825.95 499.2 827.07 C499.53 836.27 499.7 845.44 499.51 854.65 C499.5 855.42 499.48 856.19 499.47 856.98 C498.9 885.89 493.61 914.24 484.51 941.65 C487.93 944.58 491.14 946.58 495.28 948.35 C496.4 948.83 497.53 949.31 498.68 949.81 C500.48 950.57 500.48 950.57 502.32 951.34 C503.25 951.73 503.25 951.73 504.19 952.13 C552.57 972.61 605.57 990.06 658.51 978.65 C659.28 978.49 660.06 978.33 660.86 978.16 C704.78 968.83 749.68 948.1 784.51 919.65 C785.28 919.03 785.28 919.03 786.06 918.41 C800.56 906.76 813.5 893.64 824.51 878.65 C825.36 877.52 826.2 876.39 827.05 875.26 C874.46 811.34 883.23 727.64 873.38 650.65 C873.28 649.8 873.17 648.95 873.06 648.07 C867.13 584.52 867.13 584.52 842.51 528.65 C841.99 529.35 841.47 530.05 840.93 530.77 C839.89 532.13 839.89 532.13 838.82 533.52 C838.14 534.43 837.45 535.33 836.75 536.27 C834.41 538.75 832.74 539.66 829.51 540.65 C824.45 536.83 821.15 532.7 817.63 527.46 C816.59 525.94 815.54 524.43 814.5 522.92 C813.74 521.82 813.74 521.82 812.96 520.71 C809.77 516.19 806.42 511.56 802.51 507.65 C799.54 507.29 798.09 507.14 795.78 509.14 Z M172.51 630.65 C171.75 630.81 170.99 630.98 170.2 631.15 C146.52 636.54 126.8 647.77 109.51 664.65 C108.45 665.61 108.45 665.61 107.38 666.59 C88.7 684.06 77.41 709.18 68.51 732.65 C68.21 733.43 67.92 734.21 67.61 735.01 C57.19 762.99 51.93 792.97 49.51 822.65 C49.45 823.35 49.39 824.05 49.33 824.77 C43.65 897.37 57.77 977.86 104.51 1035.65 C106.81 1038.34 109.15 1040.96 111.56 1043.55 C113.3 1045.43 114.94 1047.35 116.57 1049.34 C127.91 1062.64 146.88 1078.46 164.51 1080.65 C165.62 1080.82 166.73 1080.98 167.88 1081.15 C173.64 1081.87 179.42 1081.85 185.22 1081.89 C186.45 1081.9 187.68 1081.91 188.94 1081.92 C192.92 1081.94 196.9 1081.96 200.88 1081.96 C201.56 1081.96 202.24 1081.96 202.93 1081.96 C234.34 1082 263.92 1079.25 294.51 1071.65 C295.56 1071.39 296.62 1071.13 297.7 1070.86 C314.4 1066.63 330.49 1060.95 346.51 1054.65 C347.6 1054.23 348.7 1053.81 349.83 1053.37 C350.89 1052.95 351.95 1052.53 353.05 1052.09 C354 1051.72 354.96 1051.35 355.94 1050.96 C361.17 1048.29 363.07 1044.99 365.02 1039.57 C365.47 1038.36 365.91 1037.15 366.36 1035.9 C366.83 1034.59 367.29 1033.27 367.76 1031.96 C368.24 1030.6 368.73 1029.24 369.22 1027.88 C370.67 1023.81 372.09 1019.73 373.51 1015.65 C374.1 1013.95 374.1 1013.95 374.7 1012.21 C382.48 989.51 387.91 966.51 390.51 942.65 C390.6 941.92 390.68 941.18 390.77 940.43 C391.77 931.13 391.69 921.82 391.71 912.48 C391.71 911.55 391.72 910.63 391.72 909.68 C391.73 904.76 391.74 899.85 391.75 894.94 C391.75 890.96 391.77 886.99 391.79 883.01 C392.16 817.44 392.18 732.81 346.51 680.65 C345.9 679.89 345.28 679.14 344.65 678.36 C319.98 648.63 275.29 632.18 238.04 628.12 C216.59 626.29 193.59 625.94 172.51 630.65 Z M-33.49 928.65 C-34.09 948.35 -32.83 967.21 -29.49 986.65 C-29.38 987.34 -29.26 988.02 -29.14 988.73 C-18.74 1049.25 -1.26 1108.78 18.04 1166.97 C24.93 1187.75 30.39 1206.95 31.63 1228.94 C32.46 1241.99 32.46 1241.99 37.63 1253.71 C44.19 1258.13 50.34 1258.8 58.07 1259.09 C66.06 1259.4 71.41 1260.35 76.97 1266.28 C81.45 1270.05 86.84 1269.1 92.38 1268.84 C99.56 1268.57 105.6 1268.61 112.51 1270.65 C117.83 1271.34 121.99 1270.66 126.51 1267.65 C136.71 1257.45 138.84 1242.26 138.85 1228.38 C138.83 1227.17 138.82 1225.97 138.81 1224.73 C138.81 1222.71 138.81 1220.7 138.82 1218.69 C138.82 1216.56 138.82 1214.43 138.82 1212.3 C138.81 1183.48 140.43 1155.08 143.43 1126.43 C145.18 1109.7 145.18 1109.7 145.88 1092.9 C145.89 1092.08 145.91 1091.25 145.92 1090.41 C145.94 1087.95 145.94 1087.95 145.51 1084.65 C142.49 1082.64 140.85 1082.16 137.36 1081.49 C107.05 1075.39 76.66 1066.32 51.51 1047.65 C50.46 1046.88 49.41 1046.11 48.32 1045.32 C40.59 1039.57 33.47 1033.3 26.51 1026.65 C25.65 1025.85 24.8 1025.05 23.92 1024.22 C17.03 1017.58 11.23 1010.29 5.51 1002.65 C5.08 1002.09 4.66 1001.54 4.23 1000.96 C-12.26 979.17 -24.09 954.57 -32.49 928.65 C-32.82 928.65 -33.15 928.65 -33.49 928.65 Z M465.51 976.65 C463.93 978.46 462.4 980.29 460.88 982.15 C459.96 983.26 459.04 984.38 458.11 985.5 C457.44 986.31 457.44 986.31 456.75 987.15 C422.06 1029.1 371.66 1051.52 321.51 1069.65 C321.34 1074.73 321.9 1079.28 323.08 1084.2 C323.42 1085.68 323.76 1087.16 324.1 1088.65 C324.28 1089.42 324.46 1090.19 324.64 1090.99 C327.83 1104.87 330.5 1118.73 332.45 1132.84 C332.55 1133.57 332.65 1134.29 332.75 1135.05 C335.98 1158.53 336.66 1181.78 336.51 1205.46 C334.33 1235.51 334.33 1235.51 343.51 1262.65 C346.23 1265.37 347.65 1265.47 351.51 1265.65 C354.75 1264.75 357.82 1263.45 360.95 1262.21 C370.13 1258.8 378.21 1258.03 387.95 1258.56 C394.72 1258.96 394.72 1258.96 400.51 1255.65 C402.96 1252.9 405.18 1250.15 407.21 1247.08 C410.2 1243.91 412.53 1243.54 416.76 1242.65 C425.16 1240.69 431.62 1238.08 436.51 1230.65 C441.14 1216.75 435.92 1200.34 432.92 1186.55 C423.43 1142.07 440.56 1094.84 451.32 1051.99 C458.42 1024.06 458.42 1024.06 464.69 995.94 C464.89 994.99 465.08 994.05 465.29 993.07 C466.37 987.5 466.67 982.32 466.51 976.65 C466.18 976.65 465.85 976.65 465.51 976.65 Z " fill="#000000" transform="translate(314.4921875,3.3515625)"/>
<path d="M0 0 C6.11 4.98 9.81 9.9 10.71 17.95 C10.84 28.35 8.93 38.05 2.14 46.25 C-2.05 50.27 -6.87 53.15 -12.75 53.5 C-18.74 52.63 -22.14 50.78 -25.94 46.06 C-30.25 38.08 -31.02 29.75 -28.9 20.93 C-25.75 11.76 -21.98 5.04 -13.62 -0.06 C-8.95 -1.62 -4.56 -1.84 0 0 Z " fill="#000000" transform="translate(318.625,241.0625)"/>
<path d="M0 0 C5.18 4.6 8.55 10.11 9.09 17.09 C9.45 27.98 8.12 36.92 1.5 46 C-2.83 50.03 -6.87 52.18 -12.75 53 C-17.89 52.25 -21.49 50.64 -24.7 46.59 C-29.95 38.51 -30.07 29.91 -29.19 20.5 C-27.36 12.78 -23.38 5.93 -17.06 1.12 C-11.35 -2.1 -5.94 -2.8 0 0 Z " fill="#000000" transform="translate(584.1875,293.5)"/>
<path d="M0 0 C1.32 0 2.64 0 4 0 C4.17 1.06 4.34 2.12 4.52 3.22 C6.47 16.27 6.47 16.27 13.88 26.88 C20.57 31.42 27.08 31.79 35 31 C39.99 29.82 43.76 27.94 46.75 23.69 C50.1 17.56 51.97 10.65 54 4 C56.48 4.5 56.48 4.5 59 5 C58.54 15.79 55.79 24.2 48.18 32.08 C41.38 38.07 34.56 38.65 25.66 38.38 C18.31 37.61 11.99 34.95 6.54 29.91 C1.39 23.49 -1.14 15.47 -1.12 7.38 C-1.13 5.62 -1.13 5.62 -1.13 3.84 C-1 1 -1 1 0 0 Z " fill="#000000" transform="translate(350,449)"/>
</svg>
