<?xml version="1.0" encoding="UTF-8"?>
<!-- Generator: visioncortex VTracer 0.6.3 -->
<svg version="1.1" xmlns="http://www.w3.org/2000/svg" width="772" height="1280">
<path d="M0 0 C0.83 0.48 1.65 0.96 2.51 1.46 C8.87 5.26 14.38 9.42 19.5 14.81 C20.24 15.58 20.97 16.34 21.73 17.12 C25.7 21.41 28.84 25.61 31.5 30.81 C31.94 29.99 32.37 29.17 32.82 28.33 C39.02 17.12 39.02 17.12 44.5 14.81 C49.34 13.49 52.49 13.4 57.19 15.31 C67.11 22.07 71.3 33.25 73.95 44.55 C74.78 49.51 74.97 54.45 75.09 59.46 C75.54 63.17 76.04 65 78.5 67.81 C83.1 69.64 87.84 70.23 92.72 70.95 C108.74 73.39 124.08 77.93 139.5 82.81 C140.51 83.13 141.52 83.45 142.56 83.78 C178.85 95.53 213.16 115.88 241.23 141.73 C243.33 143.65 245.46 145.52 247.62 147.38 C255.43 154.21 262.03 161.71 268.5 169.81 C269.47 171.01 270.45 172.2 271.42 173.39 C304.75 214.34 327.13 265.51 328.5 318.81 C328.53 319.85 328.55 320.89 328.58 321.96 C329.97 385 311.06 446.6 269.5 494.81 C268.58 495.92 267.66 497.02 266.74 498.13 C261 504.99 255.02 511.49 248.6 517.73 C245.68 520.48 245.68 520.48 243.5 523.81 C244.81 523.92 246.11 524.02 247.46 524.13 C252.32 524.68 256.57 525.95 261.12 527.69 C261.93 527.99 262.74 528.3 263.57 528.61 C291.79 539.55 318.56 554.81 340.5 575.81 C341.29 576.54 342.09 577.27 342.91 578.03 C355.81 590.29 365.17 605.21 373.5 620.81 C374.13 621.98 374.13 621.98 374.77 623.17 C385.94 644.2 400.62 676.61 398.5 700.81 C396.89 703.44 395.63 704.46 392.68 705.38 C390.46 705.85 388.25 706.19 386 706.5 C385.26 706.62 384.52 706.73 383.76 706.85 C372.19 708.6 360.62 709.05 348.94 709.06 C348.22 709.06 347.51 709.06 346.77 709.07 C319.34 709.04 289.46 706.29 264.5 693.81 C264.78 695.06 264.78 695.06 265.07 696.34 C266.84 704.18 268.6 712.02 270.37 719.86 C271.27 723.9 272.18 727.93 273.09 731.96 C273.97 735.85 274.84 739.74 275.72 743.63 C276.05 745.12 276.39 746.6 276.72 748.09 C277.19 750.16 277.66 752.24 278.12 754.32 C278.52 756.1 278.52 756.1 278.93 757.91 C279.5 760.81 279.5 760.81 279.5 763.81 C286.25 759.39 292.21 754.51 298.05 748.95 C300.9 746.46 302.89 744.95 306.68 744.62 C310.84 744.97 313.65 745.34 316.5 748.56 C319.15 752.87 319.57 756.69 319.89 761.66 C322.13 794.45 322.13 794.45 339.52 821.34 C348.87 828.28 361.18 830.61 372.66 830.99 C373.37 831.01 374.08 831.04 374.82 831.06 C376.27 831.1 377.73 831.13 379.18 831.15 C384.66 831.37 387.97 832.7 392.5 835.81 C394.16 839.13 394.22 842.25 393.5 845.81 C388.93 854.12 378.88 860.14 371.5 865.81 C370.48 866.6 370.48 866.6 369.44 867.4 C365.93 870.09 362.41 872.78 358.89 875.46 C354.4 878.88 349.95 882.34 345.5 885.81 C337.52 892.04 329.48 898.19 321.44 904.33 C316.45 908.15 311.48 911.98 306.5 915.81 C303.79 917.9 301.08 919.98 298.37 922.07 C295.71 924.11 293.05 926.16 290.39 928.21 C282.24 934.48 274.08 940.73 265.91 946.98 C264.23 948.26 262.55 949.54 260.87 950.83 C229.5 974.82 229.5 974.82 218.5 973.81 C215.56 972.5 215.56 972.5 213.5 970.81 C212.99 970.41 212.49 970.01 211.97 969.6 C206.32 962.73 206.45 947.27 205.31 938.75 C205.05 936.83 205.05 936.83 204.78 934.88 C203.39 924.67 203.39 924.67 203.5 919.81 C202.78 919.99 202.06 920.17 201.32 920.36 C120.47 940.43 34.94 943.93 -119.5 919.81 C-119.54 920.57 -119.59 921.33 -119.64 922.12 C-120.22 930.9 -121.42 939.5 -122.88 948.19 C-123.09 949.51 -123.3 950.84 -123.51 952.17 C-124.73 959.54 -125.85 965.94 -130.12 972.19 C-133.83 974.72 -137.06 975.14 -141.5 974.81 C-148.45 972.25 -154.24 968.02 -159.94 963.38 C-161.51 962.12 -163.08 960.88 -164.65 959.63 C-165.45 958.99 -166.25 958.36 -167.07 957.71 C-170.98 954.65 -174.99 951.73 -179 948.81 C-186.81 943.1 -194.47 937.22 -202.08 931.26 C-206.47 927.83 -210.89 924.44 -215.31 921.06 C-216.02 920.52 -216.72 919.99 -217.45 919.43 C-218.82 918.39 -220.19 917.34 -221.56 916.29 C-225.52 913.27 -229.46 910.23 -233.41 907.19 C-235.46 905.61 -237.51 904.04 -239.56 902.46 C-246.68 897 -253.77 891.5 -260.85 885.99 C-265.22 882.58 -269.6 879.19 -274 875.81 C-275.57 874.61 -277.14 873.4 -278.71 872.19 C-280.02 871.18 -281.33 870.18 -282.64 869.17 C-307.26 850.3 -307.26 850.3 -309.5 845.81 C-310.2 838.7 -310.2 838.7 -307.19 834.88 C-303.42 831.98 -300.61 831.7 -295.95 831.52 C-280.68 830.93 -262.79 829.26 -251.5 817.81 C-240.69 802.58 -237.47 784.65 -236.05 766.36 C-235.97 765.46 -235.9 764.57 -235.83 763.64 C-235.7 761.93 -235.58 760.21 -235.5 758.49 C-235.07 752.68 -233.83 749.8 -229.5 745.81 C-227.25 744.87 -227.25 744.87 -225.06 744.69 C-224.34 744.6 -223.62 744.52 -222.88 744.43 C-217.24 745.34 -213.11 749.96 -209.12 753.75 C-204.81 757.75 -200.61 760.92 -195.5 763.81 C-195.39 763.11 -195.28 762.4 -195.17 761.67 C-193.89 753.69 -192.25 745.83 -190.46 737.95 C-190.18 736.68 -189.89 735.41 -189.6 734.1 C-188.85 730.77 -188.09 727.44 -187.34 724.1 C-186.56 720.68 -185.79 717.26 -185.02 713.84 C-183.52 707.17 -182.01 700.49 -180.5 693.81 C-181.71 694.29 -182.92 694.77 -184.17 695.26 C-185.78 695.9 -187.4 696.54 -189.02 697.17 C-189.81 697.49 -190.6 697.8 -191.42 698.13 C-206.01 703.85 -220.99 706.07 -236.5 707.81 C-237.34 707.91 -238.18 708.01 -239.05 708.11 C-247.19 708.96 -255.33 709.01 -263.5 709 C-264.59 709 -264.59 709 -265.7 709 C-277.08 708.99 -288.24 708.47 -299.5 706.81 C-300.64 706.68 -301.77 706.55 -302.94 706.41 C-307.25 705.82 -309.78 705.4 -313.19 702.62 C-316.37 695.81 -313.7 688.27 -312 681.31 C-311.73 680.22 -311.47 679.12 -311.19 677.99 C-304.11 649.83 -292.63 621.43 -275.5 597.81 C-275.11 597.28 -274.72 596.74 -274.32 596.19 C-250.37 563.48 -214.85 542.03 -177.38 527.81 C-176.62 527.52 -175.86 527.23 -175.08 526.93 C-169.87 525.03 -165.03 524.25 -159.5 523.81 C-163.03 519.66 -166.62 515.63 -170.5 511.81 C-174.38 507.97 -177.99 503.99 -181.5 499.81 C-181.96 499.28 -182.41 498.74 -182.88 498.19 C-211.77 464.04 -231.72 423.73 -240.5 379.81 C-240.7 378.84 -240.9 377.86 -241.1 376.86 C-246.5 349.1 -246.49 319.64 -241.5 291.81 C-241.34 290.91 -241.19 290 -241.03 289.06 C-234.3 251.02 -218.61 214.7 -195.5 183.81 C-195.03 183.19 -194.57 182.56 -194.09 181.92 C-187.42 173.05 -180.21 164.79 -172.5 156.81 C-171.87 156.16 -171.24 155.51 -170.59 154.83 C-162.62 146.63 -154.61 138.75 -145.5 131.81 C-144.82 131.28 -144.13 130.74 -143.42 130.19 C-108.14 102.68 -69.37 85.64 -26.19 74.62 C-23.77 73.89 -21.71 73.03 -19.5 71.81 C-19.92 71.42 -20.35 71.03 -20.79 70.63 C-34.97 57.1 -44.61 37.52 -45.5 17.81 C-45.58 16.71 -45.58 16.71 -45.66 15.58 C-45.93 9.02 -45.14 2.87 -40.73 -2.24 C-27.37 -14.57 -13.8 -8.04 0 0 Z M-34.31 2.13 C-38.61 8.22 -38.01 16.83 -37.11 23.86 C-33.93 41.97 -23.14 60.83 -8.03 71.57 C-6.46 72.6 -4.88 73.6 -3.29 74.59 C-1.5 75.81 -1.5 75.81 -0.5 77.81 C-1.06 77.9 -1.62 77.98 -2.2 78.07 C-59.3 86.87 -111.85 110.66 -154.5 149.81 C-155.59 150.8 -156.68 151.78 -157.77 152.77 C-163.1 157.6 -168.31 162.39 -172.92 167.93 C-173.99 169.2 -175.1 170.45 -176.24 171.67 C-192.71 189.3 -205.35 211.03 -215.5 232.81 C-216.02 233.91 -216.54 235.01 -217.07 236.14 C-236.44 279.04 -241.85 329.58 -233.5 375.81 C-233.33 376.76 -233.17 377.7 -233 378.67 C-229.12 400.02 -221.94 420.31 -212.5 439.81 C-212.17 440.5 -211.84 441.19 -211.5 441.89 C-199.66 466.15 -183.13 487.43 -164.5 506.81 C-164.03 507.3 -163.57 507.79 -163.09 508.29 C-156.63 515.02 -149.83 521.05 -142.5 526.81 C-141.41 527.7 -140.31 528.58 -139.22 529.46 C-126.14 540 -112.3 548.89 -97.5 556.81 C-96.89 557.14 -96.27 557.48 -95.64 557.82 C-65.32 574.1 -32.29 583.27 1.5 588.81 C2.38 588.96 3.26 589.11 4.17 589.26 C29.09 593.18 57.61 592.69 82.5 588.81 C84.02 588.58 84.02 588.58 85.57 588.34 C136.98 580.14 184.86 560.59 225.5 527.81 C226.98 526.64 226.98 526.64 228.48 525.45 C242.73 513.82 256.49 500.57 267.5 485.81 C268.57 484.43 269.64 483.05 270.71 481.67 C310.93 429.19 327.58 364.07 319.09 298.64 C318.15 292.31 316.92 286.06 315.5 279.81 C315.32 279.01 315.14 278.22 314.96 277.39 C305.53 236.39 284.81 195.22 254.4 165.71 C252.5 163.81 250.75 161.85 249 159.81 C208.69 113.24 142.69 85.08 82.76 77.33 C73.22 75.99 73.22 75.99 69.5 71.81 C68.58 69.06 68.29 67.03 68.11 64.16 C67.02 49.1 65.85 34.83 55.12 23.25 C52.49 21.59 52.49 21.59 49.06 21.44 C44.4 23.24 43.16 25.35 40.85 29.67 C35.1 43.04 33.13 56.66 36.5 70.81 C35.84 70.81 35.18 70.81 34.5 70.81 C34.39 69.71 34.28 68.61 34.16 67.48 C31.51 46.46 24.1 27.4 7.5 13.81 C-2.35 6.31 -14.68 -1.78 -27.47 -1.52 C-30.28 -1.06 -32.27 0.17 -34.31 2.13 Z M222.19 539.25 C202.23 554.65 179.98 565.62 157.5 576.81 C159.69 580.32 161.99 583.41 164.78 586.47 C168.46 590.64 171.5 595.04 174.44 599.75 C175.21 600.99 175.21 600.99 176 602.25 C184.23 615.66 190.16 629.7 194.5 644.81 C194.87 646.04 194.87 646.04 195.24 647.28 C205.52 682.63 199.05 719.71 187.5 753.81 C188.51 753.82 188.51 753.82 189.55 753.83 C198.24 754 202.73 758.11 208.72 764 C218.76 773.66 231.03 780.21 245.12 780.1 C252.66 779.46 260.24 777.12 266.5 772.81 C274.91 757.19 264.14 727.64 260.63 711.68 C259.86 708.2 259.11 704.71 258.35 701.23 C257.87 699.01 257.38 696.78 256.9 694.56 C256.56 693 256.56 693 256.21 691.42 C256 690.46 255.79 689.5 255.58 688.52 C255.39 687.68 255.21 686.84 255.02 685.97 C254.49 683.65 254.49 683.65 253.5 680.81 C254.1 681.09 254.69 681.37 255.31 681.65 C268.51 687.72 281.28 692.82 295.5 695.81 C296.49 696.04 297.48 696.26 298.5 696.5 C314.13 700 329.15 701.28 345.12 701.25 C346.36 701.25 346.36 701.25 347.63 701.25 C356.72 701.22 365.73 700.82 374.77 699.91 C375.55 699.83 376.32 699.76 377.12 699.68 C381.77 699.16 386.03 698.22 390.5 696.81 C386.76 652.02 361.51 602.36 327.25 572.93 C306.21 556.71 281.67 543.61 256.69 534.69 C255.52 534.26 255.52 534.26 254.32 533.83 C241.22 529.37 232.87 530.66 222.19 539.25 Z M-260.46 590.6 C-284.04 620.29 -303.31 658.58 -306.5 696.81 C-304.54 697.3 -302.58 697.78 -300.62 698.25 C-299.53 698.52 -298.44 698.78 -297.32 699.06 C-258.88 706.64 -214.04 701.02 -178.67 684.79 C-175.63 683.42 -172.57 682.12 -169.5 680.81 C-169.71 681.71 -169.92 682.61 -170.14 683.53 C-173.98 699.95 -177.74 716.38 -180.94 732.94 C-181.31 734.84 -181.31 734.84 -181.68 736.77 C-185.74 755.04 -185.74 755.04 -182.5 772.81 C-173.45 779.21 -162.36 781.17 -151.5 779.81 C-138.06 775.8 -127.94 767.49 -118.01 757.91 C-115.5 755.81 -113.63 754.7 -110.5 753.81 C-106.69 754.19 -106.69 754.19 -103.5 754.81 C-104.98 749.87 -106.46 744.94 -108 740.02 C-117.43 709.31 -119.31 675.89 -110.5 644.81 C-110.28 644 -110.05 643.19 -109.82 642.36 C-103.64 620.7 -93.05 601.24 -78.41 584.18 C-76.51 581.83 -74.99 579.44 -73.5 576.81 C-74.39 576.37 -75.28 575.94 -76.19 575.48 C-79.78 573.71 -83.36 571.91 -86.93 570.1 C-88.68 569.23 -90.43 568.35 -92.18 567.48 C-110.29 558.45 -127.04 547.87 -143.24 535.74 C-172.78 513.98 -242.59 568.55 -260.46 590.6 Z M140.62 582.38 C139.93 582.55 139.24 582.73 138.53 582.92 C134.45 583.99 130.39 585.12 126.33 586.28 C69.28 602.42 7.48 602.69 -49.08 584.23 C-55.8 582.14 -60.84 581.09 -67.5 583.81 C-87.26 594.38 -97.43 626.24 -103.5 645.81 C-107.41 659.87 -108.74 673.58 -108.75 688.12 C-108.75 688.89 -108.75 689.65 -108.75 690.43 C-108.74 702.13 -108.23 713.38 -105.5 724.81 C-105.35 725.49 -105.2 726.16 -105.04 726.86 C-99.57 750.79 -86.39 772.41 -70.5 790.81 C-69.82 791.61 -69.14 792.42 -68.44 793.24 C-64.13 798.24 -59.6 802.64 -54.5 806.81 C-53.49 807.66 -52.48 808.5 -51.45 809.38 C-21.05 834.43 18.23 844.63 57.16 841.61 C75.41 839.7 93.06 833.83 109.5 825.81 C110.14 825.5 110.79 825.19 111.45 824.87 C125.56 817.93 137.17 808.61 148.5 797.81 C149.69 796.72 149.69 796.72 150.9 795.61 C161.89 785.2 169.56 772.13 176.5 758.81 C176.86 758.13 177.22 757.44 177.59 756.74 C181.58 749.01 184.94 741.26 187.31 732.88 C187.5 732.23 187.68 731.59 187.87 730.93 C191.67 716.37 193.05 701.93 192.94 686.94 C192.93 685.7 192.93 685.7 192.93 684.43 C192.87 671.83 192.09 659.95 188.5 647.81 C188.18 646.61 187.87 645.41 187.54 644.17 C181.12 622.31 169.38 601.93 154.5 584.81 C154 584.24 153.5 583.66 152.99 583.07 C149.01 579.72 145.33 581.13 140.62 582.38 Z M-225.5 752.81 C-227.72 756.14 -227.88 757.71 -228.21 761.63 C-228.32 762.8 -228.43 763.97 -228.54 765.17 C-228.65 766.41 -228.76 767.66 -228.88 768.94 C-230.84 788.77 -233.86 811.41 -248.83 826.1 C-262.67 837.18 -280.18 837.96 -297.14 839.5 C-299.51 839.68 -299.51 839.68 -301.5 840.81 C-300.24 849.23 -288.53 855.19 -282.21 859.99 C-278.03 863.16 -273.89 866.4 -269.75 869.62 C-261.74 875.86 -253.7 882.04 -245.63 888.19 C-242 890.96 -238.37 893.73 -234.75 896.5 C-234.04 897.04 -233.33 897.59 -232.59 898.15 C-227.34 902.17 -222.1 906.2 -216.86 910.23 C-210.81 914.89 -204.74 919.52 -198.67 924.15 C-195.89 926.28 -193.1 928.41 -190.32 930.54 C-188.22 932.15 -186.12 933.75 -184.02 935.36 C-180.79 937.82 -177.57 940.29 -174.36 942.77 C-169.94 946.16 -165.51 949.53 -161.06 952.88 C-159.38 954.15 -157.7 955.43 -156.02 956.71 C-153.74 958.45 -151.44 960.17 -149.12 961.88 C-148.12 962.65 -148.12 962.65 -147.09 963.45 C-143.49 966.07 -142.15 966.84 -137.52 966.62 C-136.53 966.35 -135.53 966.09 -134.5 965.81 C-131.7 958.36 -130.48 951.11 -129.44 943.23 C-129.25 941.86 -129.07 940.5 -128.88 939.13 C-128.37 935.39 -127.87 931.65 -127.38 927.91 C-126.95 924.75 -126.53 921.59 -126.1 918.42 C-122.29 890.25 -118.64 862.06 -115 833.88 C-114.87 832.86 -114.74 831.85 -114.6 830.8 C-113.84 824.9 -113.08 819 -112.32 813.1 C-112.09 811.3 -111.86 809.51 -111.63 807.72 C-110.48 798.82 -109.37 789.92 -108.35 781.01 C-108.27 780.28 -108.18 779.55 -108.1 778.8 C-107.46 773.12 -107.27 767.52 -107.5 761.81 C-112.39 762.24 -115.03 764.69 -118.5 767.88 C-130.7 778.62 -144.25 787.27 -160.87 787.09 C-181.97 785.5 -200.52 771.84 -215.35 757.69 C-218.61 754.84 -221.1 752.81 -225.5 752.81 Z M304.68 753.75 C304.06 754.24 303.45 754.74 302.81 755.25 C301.76 756.09 301.76 756.09 300.68 756.95 C298.55 758.77 296.49 760.66 294.44 762.56 C279.45 776.05 259.24 787.97 238.59 787.19 C224.1 785.41 212.29 775.92 201.5 766.81 C199.21 764.97 197 763.38 194.5 761.81 C193.51 762.14 192.52 762.47 191.5 762.81 C191.21 771.97 192.33 780.85 193.48 789.91 C193.7 791.63 193.91 793.34 194.13 795.06 C194.71 799.7 195.29 804.34 195.88 808.98 C196.25 811.88 196.62 814.79 196.98 817.69 C200.86 848.5 204.91 879.29 209.06 910.06 C209.19 911.03 209.32 911.99 209.46 912.99 C210.21 918.56 210.96 924.13 211.72 929.7 C211.95 931.38 212.17 933.06 212.4 934.74 C213.39 942.05 214.4 949.37 215.53 956.66 C215.67 957.57 215.81 958.48 215.95 959.41 C216.51 961.87 217.12 963.71 218.5 965.81 C222.48 967 224.61 967.24 228.39 965.43 C229.36 964.71 230.32 963.99 231.31 963.25 C231.85 962.85 232.4 962.45 232.95 962.04 C234.82 960.66 236.66 959.24 238.5 957.81 C239.21 957.26 239.92 956.72 240.66 956.15 C244.53 953.17 248.38 950.18 252.22 947.16 C256.56 943.76 260.96 940.44 265.38 937.15 C275.37 929.66 285.24 922.02 295.12 914.41 C299.08 911.37 303.04 908.34 307 905.31 C314.18 899.83 321.34 894.32 328.5 888.81 C330.67 887.15 332.83 885.48 335 883.81 C336.08 882.98 337.17 882.15 338.25 881.31 C344.75 876.31 344.75 876.31 346.38 875.06 C347.46 874.23 348.54 873.4 349.62 872.57 C352.36 870.46 355.11 868.35 357.86 866.24 C367.67 858.72 377.34 851.13 386.5 842.81 C384.76 840.64 383.79 839.88 381.03 839.28 C380.05 839.2 379.08 839.12 378.08 839.04 C377 838.94 375.92 838.84 374.8 838.74 C373.65 838.64 372.5 838.54 371.31 838.44 C356 836.88 340.2 834.83 329.52 822.53 C318.07 807.1 315.22 788.85 312.82 770.29 C312.35 766.69 311.83 763.1 311.31 759.5 C311.04 757.6 310.77 755.71 310.5 753.81 C308.09 752.92 307.01 752.55 304.68 753.75 Z M-99.5 763.81 C-100.62 772.99 -101.75 782.18 -102.86 791.36 C-103.39 795.63 -103.91 799.89 -104.43 804.16 C-105.8 815.38 -107.16 826.59 -108.5 837.81 C-108.58 838.5 -108.67 839.19 -108.75 839.9 C-111.18 859.17 -111.18 859.17 -111.88 878.56 C-111.86 879.63 -111.85 880.7 -111.84 881.8 C-111.63 892.96 -110.78 903.51 -104.49 913.08 C-97.96 918.78 -87.76 919.29 -79.5 920.75 C-78.78 920.88 -78.06 921.01 -77.32 921.14 C-38.99 927.99 -0.24 931.04 38.69 931 C40.25 931 40.25 931 41.85 931 C60.47 930.97 78.95 930.37 97.5 928.81 C98.65 928.72 98.65 928.72 99.82 928.62 C119.13 927.02 138.31 924.91 157.44 921.81 C158.18 921.69 158.93 921.57 159.69 921.45 C167.78 920.14 175.82 918.63 183.82 916.88 C184.53 916.73 185.24 916.58 185.97 916.43 C190.26 915.45 192.82 914.34 195.5 910.81 C202.88 889.08 195.81 861.17 192.92 839.01 C192.16 833.17 191.42 827.32 190.68 821.47 C189.76 814.23 188.84 806.98 187.91 799.73 C186.37 787.77 184.87 775.8 183.5 763.81 C181.38 765.81 179.79 767.75 178.3 770.25 C177.7 771.25 177.7 771.25 177.09 772.26 C176.67 772.96 176.25 773.65 175.81 774.38 C154.37 809.28 119.94 834.45 80.17 844.4 C38.45 854.15 -4.77 847.54 -41.34 825.19 C-64.35 810.46 -81.39 791.07 -95.72 768.08 C-96.62 766.64 -97.56 765.22 -98.5 763.81 C-98.83 763.81 -99.16 763.81 -99.5 763.81 Z " fill="#000000" transform="translate(344.5,232.1875)"/>
<path d="M0 0 C0.73 0.57 1.45 1.13 2.2 1.71 C8.72 6.65 14.99 7.25 23 8 C25.67 8.29 28.33 8.61 31 8.94 C32.79 9.14 32.79 9.14 34.62 9.34 C40.33 10.46 44.12 12.6 47.81 17.06 C48.4 17.75 48.98 18.45 49.58 19.16 C53.52 24.27 52.69 30.86 52 37 C49.55 43.17 44.98 48.13 39 51 C35.91 52.08 32.81 53.09 29.69 54.06 C21.35 56.74 15.12 61.1 8.31 66.5 C-7.01 78.25 -24.35 79.14 -43 78 C-47.63 77.39 -51.77 75.97 -56 74 C-56.9 73.59 -57.8 73.17 -58.72 72.75 C-64.19 69.98 -69.03 66.56 -73.94 62.94 C-79.08 59.14 -84.04 56.43 -90.05 54.13 C-100.15 50.26 -108.32 46.35 -112.94 36.19 C-114.48 31.32 -114.57 26.87 -113 22 C-109.29 15.71 -104.41 11.86 -97.47 9.7 C-92.08 8.62 -86.65 8.13 -81.17 7.77 C-72.58 7.15 -66.55 3.92 -59.62 -0.94 C-39.26 -14.86 -20.16 -13.99 0 0 Z M-58.47 7.29 C-68.19 14.08 -75.46 15.64 -87.33 16.13 C-93.49 16.49 -97.26 16.97 -102 21 C-102.6 21.41 -103.2 21.83 -103.81 22.25 C-105.85 25.25 -106.1 28.48 -106 32 C-104.63 36.85 -103.12 39.3 -98.87 41.99 C-95.19 43.98 -91.23 45.31 -87.31 46.75 C-79.11 49.89 -72.81 53.42 -66 59 C-51.97 69.48 -36.24 72.47 -19 70 C-9.39 67.92 -1.09 64.25 6.48 57.93 C14.06 51.66 21.71 48.44 30.99 45.27 C37 43.14 40.6 41.51 44 36 C45.6 31.16 45.54 27.2 43.44 22.56 C37.87 16.71 31.83 16.45 24.19 16 C13.36 15.35 5.31 13.43 -3.56 7.06 C-22.63 -6.42 -39.46 -6.02 -58.47 7.29 Z " fill="#000000" transform="translate(417,655)"/>
<path d="M0 0 C6.74 3.87 11.93 8.14 14.75 15.55 C16.58 22.55 15.81 28.53 12.57 34.97 C9.46 40.08 4.27 44.72 -1.52 46.53 C-9.42 48.07 -16.66 47.03 -23.62 42.94 C-28.7 38.62 -32.18 33.03 -32.91 26.33 C-33.16 18.57 -31.76 13.1 -27.44 6.69 C-19.93 -0.65 -10.05 -2.95 0 0 Z " fill="#000000" transform="translate(244.625,592.0625)"/>
<path d="M0 0 C5.28 3.51 9.22 8.34 11.11 14.4 C11.91 22.24 12.23 30.02 7.11 36.4 C2.49 41.25 -1.86 44.92 -8.69 45.74 C-16.65 45.84 -22.86 45.03 -28.93 39.57 C-35.1 32.94 -36.32 27.24 -36.14 18.3 C-35.56 11.45 -32.06 5.8 -26.89 1.4 C-18.28 -3.65 -9 -4.49 0 0 Z " fill="#000000" transform="translate(542.890625,593.59765625)"/>
</svg>
