<?xml version="1.0" encoding="UTF-8"?>
<!-- Generator: visioncortex VTracer 0.6.3 -->
<svg version="1.1" xmlns="http://www.w3.org/2000/svg" width="1016" height="1280">
<path d="M0 0 C6.27 0.3 11.57 2.06 17.39 4.32 C18.27 4.66 19.16 5 20.08 5.35 C22.95 6.45 25.82 7.57 28.69 8.69 C30.16 9.26 30.16 9.26 31.66 9.84 C53.81 18.46 76.19 27.69 96 41 C96.67 41.45 97.35 41.9 98.04 42.37 C145.32 74.25 183.07 120.98 202.23 174.94 C202.82 176.96 202.82 176.96 204 178 C204.57 177.02 204.57 177.02 205.14 176.02 C218.51 153.85 239.41 138.7 264.4 132.39 C278.69 130.23 292.75 132.02 305 140 C294.2 116.11 275.49 98.61 252.69 86.25 C251.77 85.74 251.77 85.74 250.83 85.22 C234.59 76.72 216.82 73.66 199 70.25 C195.27 69.53 191.54 68.81 187.82 68.08 C185.52 67.63 183.21 67.18 180.91 66.75 C179.88 66.55 178.86 66.35 177.8 66.14 C176.89 65.97 175.99 65.8 175.06 65.62 C174.38 65.41 173.7 65.21 173 65 C172.67 64.34 172.34 63.68 172 63 C179.63 61.87 187.26 60.75 194.89 59.64 C197.49 59.26 200.08 58.88 202.67 58.49 C206.41 57.94 210.15 57.39 213.89 56.85 C215.04 56.68 216.19 56.51 217.37 56.33 C271.17 48.51 324.17 59.63 367.99 92.22 C370.38 94.09 372.7 96.01 375 98 C375.79 98.68 376.58 99.36 377.4 100.07 C389.37 110.62 400.13 121.69 409 135 C404.74 104.51 386.98 81.2 363.92 61.64 C361.57 59.64 359.29 57.57 357 55.5 C350.77 49.88 344.48 44.34 338 39 C341.35 37.88 341.77 38.04 344.88 39.3 C345.65 39.62 346.43 39.93 347.23 40.25 C348.49 40.77 348.49 40.77 349.78 41.3 C350.66 41.66 351.54 42.02 352.45 42.39 C354.32 43.15 356.2 43.92 358.07 44.69 C360.86 45.84 363.66 46.98 366.46 48.12 C375.67 51.87 384.82 55.74 393.89 59.8 C394.7 60.16 395.5 60.52 396.33 60.88 C436.64 79.11 459.84 112.09 475.41 152.41 C475.6 152.93 475.8 153.46 476 154 C481.02 140.09 478.78 126.52 473.31 113.06 C471.26 107.98 470.03 104.45 471 99 C473.45 95.51 475.25 94.27 479.25 92.81 C485.92 93.15 489.81 96.81 494.41 101.41 C518.76 128.89 529.74 167.06 527.66 203.28 C526.6 218.06 523.51 231.91 519 246 C519.59 246.17 520.19 246.33 520.8 246.5 C548.02 254.36 573.48 268.44 597 284 C597.28 281.27 597.55 278.54 597.81 275.81 C597.9 274.9 597.99 274 598.08 273.06 C598.68 266.78 599.2 260.5 599.66 254.21 C604.38 190.38 624.04 132.1 669 85 C670.22 83.61 671.43 82.22 672.62 80.81 C678.86 73.64 685.71 67.09 693 61 C693.49 60.58 693.98 60.17 694.49 59.74 C720.49 37.84 750.45 23.17 782 11 C783.31 10.49 784.62 9.97 785.93 9.46 C789.26 8.15 792.6 6.85 795.94 5.56 C797.22 5.07 798.5 4.57 799.77 4.07 C801.55 3.38 803.33 2.7 805.12 2.02 C806.13 1.63 807.15 1.24 808.2 0.84 C811.08 -0.02 813.03 -0.5 816 0 C817.8 1.81 817.8 1.81 819.42 4.32 C820.02 5.24 820.61 6.16 821.23 7.1 C823.99 11.63 826.67 16.18 829.25 20.81 C829.81 21.81 830.37 22.82 830.95 23.85 C840.46 40.93 849.15 58.26 857.27 76.05 C859.54 81.02 861.84 85.97 864.15 90.93 C885.47 136.8 904.97 182.94 914 233 C914.22 234.19 914.22 234.19 914.45 235.41 C918.19 256.57 917.64 281.04 913 302 C912.82 302.8 912.65 303.6 912.46 304.43 C903.65 343.02 881.73 375.43 851 400 C849.91 400.9 848.82 401.81 847.73 402.71 C837.79 410.92 827.26 418.14 816.54 425.3 C814.34 426.77 812.15 428.26 809.96 429.75 C794.24 440.46 777.73 449.97 761 459 C760.14 459.47 759.27 459.94 758.38 460.42 C747.19 466.47 735.88 472.1 724.25 477.25 C723.17 477.73 722.09 478.21 720.98 478.7 C713.38 482 713.38 482 710 482 C711.22 487.35 712.45 492.71 713.68 498.06 C714.1 499.87 714.51 501.69 714.93 503.51 C716.26 509.34 717.62 515.18 719 521 C719.26 522.08 719.51 523.17 719.78 524.28 C721.56 531.3 724.32 537.76 727.25 544.38 C744.23 583.7 753.76 626.56 738 668 C737.63 668.98 737.63 668.98 737.25 669.98 C725.06 701.36 701.05 725.51 673.56 744.12 C673.01 744.5 672.47 744.87 671.9 745.25 C667.62 748.08 663.2 750.63 658.74 753.16 C658.09 753.53 657.44 753.9 656.77 754.28 C655.18 755.19 653.59 756.1 652 757 C654.66 769.02 657.33 781.04 660 793.06 C660.3 794.42 660.3 794.42 660.61 795.81 C667.25 825.71 673.94 855.6 680.7 885.48 C681.31 888.22 681.93 890.95 682.55 893.68 C682.69 894.33 682.84 894.98 682.99 895.65 C686.03 909.09 689.02 922.54 692 936 C697.27 931.52 697.27 931.52 702.4 926.88 C702.97 926.34 703.55 925.81 704.14 925.26 C704.73 924.7 705.33 924.14 705.94 923.56 C707.25 922.33 708.56 921.1 709.88 919.86 C710.55 919.23 711.22 918.6 711.92 917.94 C714.02 915.98 716.13 914.04 718.25 912.11 C740.07 892.09 752.89 869.18 754.85 839.34 C755.47 824.58 752.55 810.25 749 796 C752.61 798.01 755.44 800.18 758.36 803.1 C759.17 803.9 759.97 804.7 760.8 805.53 C762.05 806.78 762.05 806.78 763.31 808.06 C764.13 808.87 764.95 809.68 765.79 810.51 C773.57 818.32 780.37 826.51 786 836 C793.25 801.56 778.4 754.66 759.76 725.89 C757.23 722.07 754.63 718.31 751.96 714.58 C751 713 751 713 751 711 C770.36 717.88 788.01 734.42 803 748 C804.15 749.04 804.15 749.04 805.33 750.11 C820.59 764.65 832.54 783.85 843 802 C843.39 786.25 842.66 771.09 840.36 755.51 C839.86 752.01 839.43 748.51 839 745 C842.34 746.11 843.06 746.97 845.25 749.62 C847.48 752.27 849.72 754.72 852.25 757.06 C878.56 783.14 896.18 824.24 898 861 C898.08 862.29 898.08 862.29 898.16 863.6 C899.4 901.84 882.36 943.77 856.39 971.51 C855.6 972.33 854.81 973.15 854 974 C853.11 974.96 852.22 975.91 851.3 976.89 C843.9 984.66 835.77 990.86 827 997 C825.66 997.99 824.33 998.99 823 1000 C824.07 1001.31 824.07 1001.31 825.16 1002.64 C847.83 1030.67 856.81 1064.79 853.54 1100.51 C849.43 1138.99 832.63 1174.95 806 1203 C805.54 1203.5 805.07 1203.99 804.6 1204.5 C778.19 1232.63 742.28 1249.99 703.5 1251.25 C690.06 1250.81 677.73 1248.18 665 1244 C664.6 1244.68 664.2 1245.36 663.79 1246.05 C653.85 1262.32 640.92 1274.36 622.06 1279.05 C616.36 1280.28 610.78 1280.29 604.97 1280.27 C603.8 1280.28 602.63 1280.28 601.42 1280.29 C597.56 1280.3 593.71 1280.3 589.86 1280.3 C587.84 1280.3 585.83 1280.31 583.82 1280.31 C577.5 1280.32 571.18 1280.32 564.86 1280.32 C558.37 1280.31 551.87 1280.32 545.38 1280.34 C539.78 1280.36 534.18 1280.37 528.59 1280.36 C525.25 1280.36 521.92 1280.37 518.59 1280.38 C514.86 1280.39 511.14 1280.38 507.42 1280.37 C505.79 1280.38 505.79 1280.38 504.14 1280.4 C486.9 1280.28 471.76 1273.98 459.62 1261.81 C446.46 1247.71 444 1233.12 444 1214 C420.24 1214 396.48 1214 372 1214 C372 1219.28 372 1224.56 372 1230 C368.97 1246.83 360.74 1259.76 347.06 1269.94 C335.12 1277.71 323.04 1280.3 309.02 1280.29 C307.85 1280.3 306.68 1280.3 305.48 1280.31 C301.64 1280.33 297.8 1280.33 293.96 1280.34 C291.95 1280.34 289.95 1280.35 287.94 1280.35 C281.63 1280.37 275.33 1280.37 269.02 1280.37 C262.55 1280.37 256.09 1280.39 249.62 1280.42 C244.04 1280.45 238.45 1280.46 232.87 1280.46 C229.55 1280.46 226.23 1280.46 222.9 1280.48 C199.61 1280.61 181.17 1278.87 163.74 1261.88 C158.63 1256.51 154.59 1250.97 152 1244 C150.9 1244.34 149.8 1244.68 148.66 1245.02 C114.85 1255.08 81.4 1251 50.21 1234.52 C37.45 1227.57 26.54 1218.98 16 1209 C15.51 1208.55 15.02 1208.1 14.52 1207.63 C-17.37 1178.1 -36.39 1134.33 -38.16 1091.1 C-39.06 1057.21 -29.3 1023.86 -5.84 998.8 C13.79 978.58 39.55 967.37 67.76 966.65 C81.47 966.54 94.24 968.44 107.3 972.57 C108.04 972.8 108.78 973.04 109.55 973.28 C111.36 973.85 113.18 974.43 115 975 C122.36 943.67 129.45 912.29 136.44 880.88 C137.81 874.72 139.19 868.55 140.56 862.39 C143.48 849.31 146.39 836.24 149.3 823.17 C149.96 820.16 150.63 817.15 151.3 814.15 C155.54 795.1 159.78 776.05 164 757 C163.37 756.63 162.74 756.26 162.09 755.88 C159.2 754.19 156.31 752.49 153.42 750.8 C152.42 750.22 151.43 749.64 150.41 749.04 C143.19 744.79 136.51 740.28 130 735 C129.15 734.36 128.31 733.71 127.44 733.05 C96.1 708.61 75.22 675.52 70.25 635.88 C67.9 602.8 76.53 571.67 90.04 541.74 C93.43 534.04 95.65 526.31 97.51 518.15 C98.01 515.94 98.53 513.74 99.06 511.54 C100.13 507.03 101.19 502.52 102.25 498 C102.62 496.43 102.98 494.87 103.35 493.3 C104.24 489.54 105.12 485.77 106 482 C105.28 481.88 104.55 481.75 103.81 481.62 C66.91 473.43 24.25 444.24 -5.26 422.04 C-7.44 420.42 -9.63 418.85 -11.87 417.31 C-55.85 386.87 -88.21 349.25 -98.24 295.62 C-110.11 226.12 -78.56 156.84 -50.08 95.34 C-49.07 93.14 -48.06 90.95 -47.05 88.76 C-43.85 81.82 -40.64 74.89 -37.39 67.97 C-36.05 65.12 -34.73 62.26 -33.41 59.4 C-10.73 10.73 -10.73 10.73 0 0 Z M3 13 C-1.36 18.82 -4.92 25.18 -8.38 31.56 C-9.13 32.96 -9.13 32.96 -9.91 34.39 C-21.96 56.83 -32.94 79.76 -43.32 103.02 C-45.32 107.5 -47.36 111.97 -49.41 116.43 C-64.62 149.67 -78.37 184.17 -86 220 C-86.21 220.97 -86.42 221.93 -86.64 222.93 C-89.68 237.44 -90.39 251.79 -90.44 266.56 C-90.44 267.4 -90.45 268.24 -90.46 269.11 C-90.51 280.72 -89.44 291.65 -87 303 C-86.81 303.9 -86.61 304.8 -86.41 305.72 C-85.93 307.81 -85.4 309.87 -84.81 311.94 C-84.61 312.67 -84.4 313.4 -84.19 314.16 C-77.36 337.19 -64.48 357.67 -48 375 C-47.53 375.5 -47.05 376 -46.56 376.52 C-39.2 384.26 -31.49 391.16 -22.94 397.55 C-20.92 399.06 -18.91 400.6 -16.91 402.13 C6.02 419.51 31.02 436.51 57 449 C60.74 444.82 63.63 440.69 64 435 C62.29 428.47 58.65 422.65 55.48 416.74 C36.96 382.05 31.14 337.24 26.25 298.69 C26.15 297.9 26.05 297.11 25.94 296.3 C22.8 271.53 21.62 246.83 21.69 221.88 C21.69 220.53 21.69 219.18 21.69 217.83 C21.73 197.73 22.28 177.94 25 158 C25.17 156.67 25.35 155.33 25.52 154 C28.94 127.91 33.79 101.84 41.22 76.58 C41.46 75.78 41.69 74.97 41.93 74.14 C42.14 73.46 42.35 72.77 42.56 72.06 C43.29 68.63 43.53 66.06 41.92 62.87 C41.17 61.81 41.17 61.81 40.39 60.73 C39.83 59.94 39.26 59.14 38.68 58.31 C38.07 57.47 37.45 56.62 36.81 55.75 C36.18 54.87 35.55 53.98 34.9 53.07 C28.78 44.58 22.46 36.23 16 28 C15.43 27.28 14.87 26.55 14.28 25.81 C12.61 23.68 10.93 21.56 9.25 19.44 C8.48 18.46 8.48 18.46 7.69 17.47 C6.49 15.96 5.25 14.48 4 13 C3.67 13 3.34 13 3 13 Z M812 13 C802.79 23.93 794 35.07 785.67 46.69 C784.03 48.96 782.34 51.2 780.64 53.44 C779.61 54.84 778.59 56.23 777.56 57.62 C777.08 58.24 776.6 58.85 776.11 59.49 C773.73 62.81 772.67 65.12 773.02 69.25 C773.98 74.71 775.58 80 777.12 85.31 C784.36 111.29 789 138.06 791.78 164.86 C791.94 166.38 792.1 167.89 792.26 169.39 C794 185.66 794.36 201.82 794.32 218.17 C794.31 220.22 794.31 222.27 794.31 224.32 C794.27 244.95 793.74 265.41 791.25 285.9 C790.99 288.1 790.73 290.3 790.48 292.5 C785.49 335.38 779.14 385.31 757.45 423.14 C753.3 429.75 753.3 429.75 752.25 437.21 C753.68 441.71 756.07 445.33 759 449 C762.07 447.34 765.14 445.67 768.2 443.99 C769.96 443.02 771.74 442.06 773.51 441.09 C783.97 435.35 793.92 428.98 803.81 422.31 C804.99 421.52 804.99 421.52 806.2 420.71 C853.45 389.02 892.84 354.35 904.56 296.21 C906.3 286.43 906.4 276.72 906.38 266.81 C906.37 265.93 906.37 265.05 906.37 264.14 C906.33 249.09 905.2 234.75 902 220 C901.8 219.05 901.6 218.1 901.4 217.12 C892.52 175.56 874.72 136.41 856.89 98.07 C855.13 94.29 853.39 90.5 851.66 86.7 C836.46 45.65 836.46 45.65 812 13 Z M19 16 C21.22 20.35 23.72 23.96 26.88 27.69 C89.2 102.42 122.29 201.42 113.75 298.38 C109.7 342.51 97.36 384.73 79 425 C78.58 425.93 78.15 426.86 77.71 427.83 C71.07 442.3 71.07 442.3 67.68 447.77 C65.83 450.69 65.83 450.69 66.05 453.01 C67.48 456.01 69.51 456.62 72.48 458.02 C73.62 458.57 74.76 459.11 75.93 459.67 C77.16 460.24 78.39 460.81 79.62 461.38 C80.86 461.96 82.1 462.54 83.34 463.12 C91.77 467.08 100.26 470.79 109 474 C109.18 473.4 109.36 472.8 109.54 472.18 C138.95 374.46 138.95 374.46 166 335 C166.47 334.31 166.94 333.63 167.42 332.92 C178.28 317.33 191.47 303.92 207.38 293.43 C209.44 291.94 209.44 291.94 209.31 288.25 C209.12 284.46 208.62 280.74 208 277 C205.99 279.01 205.1 280.59 203.88 283.12 C203.52 283.85 203.17 284.57 202.8 285.32 C202.54 285.87 202.27 286.43 202 287 C200.74 282.99 199.5 278.97 198.26 274.95 C197.85 273.59 197.42 272.23 197 270.87 C193.18 258.72 190.59 246.63 190.69 233.81 C190.69 233.02 190.69 232.24 190.7 231.43 C190.9 220.07 192.27 208 196.55 197.4 C197.83 190.59 195.59 183.82 193.19 177.5 C192.89 176.7 192.59 175.9 192.28 175.08 C181.51 147.29 166.47 121.58 147 99 C146.07 97.9 146.07 97.9 145.11 96.78 C133.51 83.48 120.95 70.59 106.65 60.2 C104.98 58.99 103.34 57.75 101.7 56.5 C81.05 41.09 57.57 30.19 33.69 20.81 C33.07 20.57 32.44 20.32 31.8 20.07 C25.57 17.24 25.57 17.24 19 16 Z M722 51 C721.12 51.59 721.12 51.59 720.22 52.2 C697.45 67.6 676.09 87.68 660 110 C659.1 111.17 658.2 112.34 657.3 113.51 C621.01 160.87 611.86 214.56 607.73 272.57 C607.66 273.61 607.58 274.64 607.51 275.7 C607.32 278.47 607.15 281.23 607 284 C606.95 284.78 606.9 285.56 606.84 286.37 C606.67 290.39 606.67 290.39 608.31 293.96 C608.92 294.4 609.52 294.85 610.15 295.31 C610.82 295.82 611.49 296.34 612.18 296.87 C612.91 297.39 613.63 297.9 614.38 298.44 C615.86 299.57 617.33 300.7 618.81 301.83 C619.53 302.37 620.26 302.92 621 303.48 C640.78 318.56 653.72 339.21 665 361 C665.59 362.14 665.59 362.14 666.19 363.3 C684.06 398.29 695.93 436.42 707 474 C722.06 468.16 736.51 461.1 751 454 C750.09 452.07 749.17 450.14 748.26 448.21 C747.45 446.5 746.64 444.79 745.83 443.08 C743.82 438.81 741.79 434.55 739.71 430.32 C697.64 343.94 689.06 246.23 721.28 148.31 C737.54 101.64 764.07 57.71 795.67 19.82 C797.2 18.11 797.2 18.11 797 16 C774.93 16 739.38 39 722 51 Z M226 65 C228.58 66.34 231.12 67.45 233.88 68.38 C251.19 74.34 267.07 81.98 281 94 C281.54 94.46 282.08 94.91 282.63 95.38 C295.51 106.38 305.21 119 313 134 C313.47 134.9 313.94 135.8 314.43 136.73 C321.05 150.3 325 165.88 325 181 C324.52 179.96 324.03 178.92 323.53 177.85 C316.07 162.2 306.83 149.36 290 143 C273.19 138.36 257.89 142.78 243.09 151.09 C238.35 154.02 234.14 157.28 230 161 C229.09 161.81 228.19 162.62 227.25 163.46 C211.08 178.76 200.9 200.36 199.87 222.75 C199.55 235.8 199.49 248.35 203 261 C205.63 257.86 207.37 254.44 209.21 250.81 C216.94 235.51 226.45 221.49 237 208 C237.5 207.33 237.99 206.65 238.5 205.96 C243.1 200.03 250.45 194.24 258 193 C269.77 191.84 279.9 195.56 289 203 C296.69 210.2 301.79 219.49 303 230 C303.05 232.43 303.06 234.86 303.04 237.3 C303.04 238.55 303.03 239.81 303.02 241.1 C303.02 242.06 303.01 243.02 303 244 C303.78 243.78 304.56 243.57 305.37 243.34 C320.04 239.33 334.67 235.61 349.69 233.12 C350.83 232.93 351.97 232.74 353.15 232.55 C371.27 229.69 389.17 228.62 407.5 228.69 C408.55 228.69 409.6 228.69 410.68 228.69 C441.11 228.78 470.43 232.62 499.86 240.48 C503.39 241.41 506.32 242 510 242 C522.04 205.76 521.14 167.92 504.06 133.44 C498.56 122.79 492.02 112.04 483 104 C482.01 104 481.02 104 480 104 C480.41 105.12 480.82 106.25 481.24 107.4 C487.19 123.84 491.57 139.79 485 157 C481.63 163.74 477.52 169.98 473 176 C471.39 171.82 469.86 167.64 468.53 163.36 C455.85 122.8 434.44 91.97 396.81 71.72 C391.98 69.19 391.98 69.19 387 67 C386.34 67.33 385.68 67.66 385 68 C385.91 68.93 385.91 68.93 386.84 69.88 C406.25 90.4 418.52 115.46 418.23 143.93 C418.04 150.52 416.97 157.06 414 163 C413.47 161.94 412.93 160.87 412.38 159.77 C405.7 146.66 398.14 135.02 388.07 124.23 C386.19 122.2 384.4 120.12 382.62 118 C354.4 85.94 310.99 67.71 269 64 C266.16 63.88 263.33 63.86 260.49 63.87 C259.72 63.87 258.95 63.87 258.16 63.86 C256.55 63.86 254.94 63.87 253.32 63.87 C250.87 63.88 248.42 63.87 245.97 63.86 C244.4 63.86 242.82 63.87 241.24 63.87 C240.52 63.87 239.8 63.86 239.05 63.86 C234.59 63.88 230.39 64.28 226 65 Z M50 78 C39.77 112.62 33.95 148.06 31 184 C30.93 184.84 30.86 185.69 30.78 186.55 C25.74 248.14 33.37 312.42 49 372 C49.36 373.42 49.36 373.42 49.73 374.88 C54.04 391.72 59.88 408.58 68 424 C68.66 424 69.32 424 70 424 C85.02 389.72 97.27 355.11 103 318 C103.25 316.44 103.25 316.44 103.5 314.84 C108.35 282.82 108.35 247.94 103 216 C102.8 214.79 102.6 213.57 102.4 212.32 C95.7 172.42 81.33 106.48 50 78 Z M765 78 C760.96 84.98 756.97 91.98 753 99 C752.38 100.09 752.38 100.09 751.74 101.21 C729.31 140.91 716.26 185.87 711 231 C710.9 231.87 710.79 232.75 710.69 233.65 C707.92 261.17 708.56 290.72 713 318 C713.3 319.84 713.3 319.84 713.6 321.73 C719.56 357.4 731.36 391.01 746 424 C746.66 424 747.32 424 748 424 C753.66 412.64 758.11 401.07 762 389 C762.29 388.11 762.58 387.21 762.88 386.29 C789.85 301.57 793.3 206.15 769.69 89.88 C769.45 88.89 769.2 87.9 768.95 86.88 C768.73 85.99 768.5 85.1 768.26 84.18 C768.07 83.41 767.87 82.65 767.67 81.86 C767.07 79.79 767.07 79.79 765 78 Z M248.19 208.79 C242.49 214.55 237.62 220.67 233.19 227.44 C232.68 228.2 232.17 228.97 231.65 229.76 C220.85 244.32 220.85 244.32 216.09 260.76 C216.13 261.72 216.17 262.67 216.22 263.65 C216.27 264.66 216.32 265.66 216.38 266.69 C216.42 267.67 216.46 268.65 216.51 269.66 C216.76 274.83 217.16 279.89 218 285 C222.99 282.32 227.84 279.48 232.62 276.44 C247.46 267.29 263.02 259.68 279.19 253.21 C280.62 252.64 280.62 252.64 282.07 252.06 C282.9 251.73 283.74 251.4 284.59 251.07 C289.99 248.77 289.99 248.77 293.29 244.2 C295.63 233.67 294.1 224.7 288.53 215.59 C283.55 208.53 277 203.89 268.62 201.62 C259.71 200.09 254.63 203.09 248.19 208.79 Z M288 259 C288.84 262.84 290.39 266.14 292.06 269.68 C295.33 277.76 295.39 288.23 292.44 296.38 C288.24 305.35 281.36 311.45 272.23 315.11 C260.95 318.22 249.62 316.26 239.57 310.64 C232.8 306.4 226.7 301.19 223 294 C218.53 295.48 215.18 297.95 211.56 300.88 C210.96 301.36 210.35 301.84 209.73 302.34 C207.81 303.89 205.9 305.44 204 307 C203.39 307.5 202.78 308 202.15 308.51 C182.62 324.54 169.56 343.68 158 366 C157.6 366.77 157.2 367.54 156.79 368.33 C133.13 414.68 119.16 466.45 107.59 516.95 C107.17 518.8 107.17 518.8 106.73 520.7 C106.3 522.64 105.89 524.59 105.52 526.54 C104.29 533 101.64 538.62 98.88 544.56 C81.74 582.5 72.13 624.66 86.62 665.12 C99.72 698.75 126.41 723.95 157 742 C158.14 742.68 158.14 742.68 159.31 743.37 C198.65 766.38 251.78 785.47 298 784 C295.03 780.94 292 778.12 288.7 775.41 C281.85 769.77 275.44 763.68 269.13 757.43 C267.73 756.04 266.32 754.66 264.9 753.27 C248.07 736.42 236.75 717.3 236.5 693 C236.72 673.28 243.92 654.1 258 640 C296 603.97 353.19 603.43 402.21 603.61 C407.03 603.63 411.85 603.62 416.67 603.6 C464.82 603.45 520.77 604.69 558 640 C572.08 654.1 579.28 673.28 579.5 693 C579.31 711.46 573.21 728.03 561 742 C560.41 742.69 559.83 743.39 559.23 744.1 C547.84 757.2 535.47 769.75 521.49 780.07 C518.94 781.76 518.94 781.76 518 784 C582.12 782.87 651.55 756.17 698 712 C699.06 711.04 699.06 711.04 700.14 710.05 C721.75 689.77 735.25 659.35 736.35 629.91 C736.62 616.38 736.27 603.17 733 590 C732.79 589.14 732.58 588.28 732.36 587.39 C727.83 569.3 720.95 551.84 713.05 534.97 C710.76 530.05 709.87 525.04 708.88 519.75 C692.25 436.65 665.46 341.54 592 292 C506.98 235.49 395.52 220.41 288 259 Z M269.84 266.2 C268.83 266.68 267.82 267.16 266.77 267.66 C265.69 268.18 264.61 268.71 263.5 269.25 C262.4 269.78 261.29 270.32 260.15 270.86 C249.73 275.98 239.8 281.79 230 288 C235.04 297.4 241.79 303.53 252 307 C259.55 309.21 266.97 308.35 274 305 C280.14 301.12 283.61 295.89 285.58 288.95 C287.31 280.89 284.72 272.63 280.61 265.64 C280.08 265.1 279.55 264.56 279 264 C274.95 264 273.41 264.51 269.84 266.2 Z M334 615.81 C332.98 615.98 331.95 616.16 330.9 616.33 C305.76 620.73 281.41 629.69 263 648 C262.38 648.59 261.75 649.18 261.11 649.79 C250.05 661.12 245.14 677.41 244.56 692.88 C245.31 721.72 264.88 741.74 284.54 760.63 C288.5 764.33 292.73 767.67 297 771 C298.51 772.2 298.51 772.2 300.05 773.43 C312.92 783.58 326.54 792.29 341 800 C341.65 800.35 342.3 800.7 342.97 801.05 C373.26 817.1 404.73 826.21 438.59 815.84 C446.96 813.07 455.02 809.74 463 806 C463.68 805.69 464.35 805.38 465.05 805.06 C482.95 796.73 499.55 786.26 515 774 C515.99 773.22 516.99 772.44 518.01 771.63 C524.96 766.06 531.54 760.12 538 754 C538.5 753.53 539 753.05 539.52 752.57 C556.81 736.16 570.66 717.72 571.5 693 C570.86 674.97 563.95 658.6 551 646 C550 644.97 550 644.97 548.99 643.93 C514.66 610.64 456.25 611.6 411.91 611.74 C408.18 611.75 404.45 611.74 400.72 611.73 C378.43 611.67 356.03 612.04 334 615.81 Z M779 741 C780.45 745.37 781.9 749.74 783.43 754.08 C796.89 792.62 799.36 831.26 790.55 871.14 C789.87 874.17 789.87 874.17 790 878 C789.34 878 788.68 878 788 878 C787.89 876.73 787.78 875.45 787.66 874.14 C785.57 855.47 778.45 837.24 765 824 C763.75 826.49 763.99 828.52 764.07 831.25 C764.82 859.21 755.55 887.08 736.36 907.76 C730.45 913.95 724.32 919.9 717.79 925.43 C715.06 927.83 712.55 930.44 710.01 933.03 C707.47 935.52 704.79 937.8 702.05 940.07 C701.04 941.02 701.04 941.02 700 942 C699.45 942.43 698.9 942.86 698.33 943.3 C696.31 945.13 695.13 946.51 694 949 C694.13 953.68 695.35 957.95 696.62 962.44 C696.94 963.65 697.25 964.85 697.57 966.1 C698.35 969.08 699.16 972.04 700 975 C704.71 974.42 709.03 973.48 713.56 972.06 C741.7 963.93 771.84 966.93 797.63 980.83 C802.67 983.66 807.24 986.98 811.73 990.63 C813.84 992.19 813.84 992.19 815.98 991.9 C846.87 978.08 867.45 945.68 879.14 915.34 C881.48 908.99 883.39 902.57 885 896 C885.16 895.34 885.33 894.69 885.5 894.01 C894.24 857.49 883.52 821.54 865 790 C861.57 784.5 857.97 779.13 854 774 C853.67 774 853.34 774 853 774 C852.98 775.13 852.96 776.26 852.94 777.43 C851.99 830.04 851.99 830.04 849 839 C848.71 838.26 848.42 837.51 848.12 836.74 C840.41 816.71 840.41 816.71 830 798 C829.28 796.91 829.28 796.91 828.55 795.8 C817.08 778.45 805.05 761.45 789 748 C786.88 746.1 784.77 744.2 782.66 742.29 C781.09 740.8 781.09 740.8 779 741 Z M173 761 C171.17 769.03 169.35 777.06 167.52 785.1 C166.68 788.83 165.83 792.56 164.98 796.28 C164.16 799.88 163.35 803.48 162.53 807.08 C162.22 808.45 161.91 809.83 161.59 811.2 C161.15 813.12 160.72 815.05 160.29 816.97 C160.04 818.06 159.79 819.16 159.53 820.29 C158.9 823.03 158.9 823.03 159 826 C160.96 827.42 160.96 827.42 163.5 828.69 C174.09 834.82 179.39 842.83 184 854 C186.78 864.65 185.14 874.83 179.68 884.29 C175.03 891.07 168.88 894.86 161 897 C157.88 897.36 154.76 897.5 151.62 897.62 C150.79 897.66 149.96 897.7 149.11 897.74 C147.07 897.84 145.04 897.92 143 898 C141.28 901.97 140.25 905.88 139.3 910.1 C139.15 910.79 138.99 911.49 138.83 912.2 C138.32 914.49 137.81 916.78 137.3 919.06 C136.95 920.66 136.59 922.25 136.24 923.85 C135.49 927.19 134.75 930.52 134.01 933.86 C133.07 938.14 132.11 942.41 131.15 946.69 C130.42 949.98 129.69 953.27 128.96 956.56 C128.61 958.14 128.26 959.71 127.9 961.29 C127.41 963.49 126.92 965.7 126.44 967.9 C126.16 969.16 125.88 970.41 125.59 971.7 C125.08 974.57 124.87 977.1 125 980 C125.52 980.29 126.04 980.57 126.57 980.87 C128.95 982.18 131.32 983.5 133.69 984.81 C134.5 985.26 135.32 985.72 136.16 986.18 C137.36 986.84 137.36 986.84 138.57 987.52 C139.67 988.12 139.67 988.12 140.78 988.74 C143.21 990.12 145.61 991.55 148 993 C148.02 992.1 148.02 992.1 148.03 991.19 C148.14 984.99 148.25 978.8 148.37 972.6 C148.42 970.29 148.46 967.97 148.5 965.66 C148.55 962.34 148.62 959.02 148.68 955.7 C148.7 954.66 148.72 953.62 148.73 952.54 C148.75 951.58 148.77 950.62 148.79 949.63 C148.81 948.79 148.83 947.94 148.84 947.06 C149 945 149 945 150 943 C151.98 943 153.96 943 156 943 C156.01 944.03 156.01 945.06 156.02 946.12 C156.18 971.23 156.37 996.34 156.58 1021.44 C156.68 1033.58 156.77 1045.73 156.84 1057.87 C156.91 1068.45 156.99 1079.04 157.09 1089.62 C157.14 1095.22 157.18 1100.82 157.21 1106.43 C157.23 1111.71 157.28 1116.98 157.33 1122.26 C157.35 1124.19 157.36 1126.13 157.37 1128.06 C157.4 1141.71 158.74 1152.64 167 1164 C167.43 1164.59 167.86 1165.19 168.3 1165.8 C176.42 1176.12 188.38 1181.31 201 1184 C202.62 1184.1 204.23 1184.14 205.85 1184.15 C207.32 1184.17 207.32 1184.17 208.81 1184.18 C210.4 1184.19 210.4 1184.19 212.03 1184.19 C213.72 1184.21 213.72 1184.21 215.44 1184.22 C219.18 1184.24 222.91 1184.26 226.64 1184.27 C227.92 1184.28 229.2 1184.28 230.51 1184.29 C235.89 1184.31 241.27 1184.33 246.66 1184.34 C254.33 1184.36 262 1184.39 269.67 1184.45 C275.74 1184.49 281.81 1184.51 287.88 1184.51 C290.45 1184.52 293.01 1184.54 295.58 1184.56 C315.65 1184.74 332.17 1183.63 348 1170 C356.65 1161.31 361.25 1151.04 363 1139 C365.64 1139 368.28 1139 371 1139 C371.33 1160.45 371.66 1181.9 372 1204 C395.76 1204 419.52 1204 444 1204 C444 1182.55 444 1161.1 444 1139 C446.97 1139 449.94 1139 453 1139 C453.15 1139.81 453.29 1140.62 453.45 1141.46 C456.36 1155.83 462.67 1166.74 474.69 1175.25 C486.52 1182.79 498.42 1184.14 512.12 1184.19 C513.21 1184.2 514.29 1184.21 515.41 1184.22 C518.99 1184.24 522.58 1184.26 526.16 1184.27 C527.39 1184.28 528.62 1184.28 529.88 1184.29 C535.73 1184.31 541.58 1184.33 547.42 1184.35 C553.46 1184.36 559.49 1184.39 565.53 1184.43 C572.03 1184.48 578.54 1184.51 585.04 1184.51 C587.51 1184.52 589.98 1184.54 592.44 1184.56 C609.78 1184.72 625.88 1184.42 640 1173 C640.61 1172.55 641.22 1172.1 641.85 1171.64 C650.5 1164.89 655.66 1155.61 658 1145 C658.74 1138.4 658.62 1131.73 658.64 1125.09 C658.66 1123.1 658.68 1121.11 658.7 1119.12 C658.75 1113.74 658.78 1108.37 658.81 1102.99 C658.84 1097.36 658.89 1091.73 658.95 1086.11 C659.04 1075.46 659.11 1064.81 659.18 1054.17 C659.26 1042.04 659.35 1029.92 659.45 1017.79 C659.66 992.86 659.84 967.93 660 943 C661.98 943 663.96 943 666 943 C667.2 945.4 667.16 946.96 667.21 949.63 C667.23 950.59 667.25 951.55 667.27 952.54 C667.28 953.58 667.3 954.62 667.32 955.7 C667.34 956.76 667.36 957.82 667.38 958.92 C667.44 962.32 667.5 965.72 667.56 969.12 C667.61 971.43 667.65 973.73 667.69 976.04 C667.8 981.69 667.9 987.34 668 993 C668.79 992.53 669.59 992.07 670.41 991.59 C680.91 985.44 680.91 985.44 686.25 982.56 C687.16 982.07 688.08 981.58 689.02 981.07 C689.67 980.71 690.33 980.36 691 980 C690.45 972.01 688.91 964.39 687.13 956.59 C686.85 955.34 686.56 954.09 686.27 952.81 C685.68 950.19 685.08 947.57 684.48 944.95 C683.71 941.59 682.95 938.22 682.2 934.86 C681.47 931.64 680.74 928.43 680 925.21 C679.73 924 679.46 922.79 679.18 921.55 C678.93 920.44 678.67 919.33 678.4 918.19 C678.18 917.21 677.96 916.23 677.73 915.22 C677.49 914.49 677.25 913.75 677 913 C676.34 912.67 675.68 912.34 675 912 C672.89 912.74 672.89 912.74 670.62 913.88 C661.47 918.25 651.39 918.38 641.69 915.38 C629.01 910.57 620.92 902.8 615.16 890.67 C611.46 882.17 611.51 871.18 614.06 862.32 C618.25 853.39 624.62 847.04 633.95 843.65 C642.76 841.77 652.18 842.58 661 844 C659.54 834.33 657.48 824.83 655.3 815.3 C654.95 813.72 654.59 812.15 654.24 810.57 C653.31 806.47 652.38 802.37 651.45 798.26 C650.49 794.06 649.54 789.86 648.59 785.65 C646.73 777.43 644.87 769.22 643 761 C641.98 761.42 641.98 761.42 640.93 761.84 C615.96 771.96 615.96 771.96 603.81 775.88 C602.69 776.24 601.57 776.61 600.42 776.99 C592.67 779.51 584.89 781.92 577 784 C577.85 785.71 577.85 785.71 578.72 787.45 C587.32 804.95 593.73 822.97 598 842 C598.17 842.71 598.33 843.42 598.5 844.15 C609.24 892.37 597.23 945.66 571.66 987.18 C565.53 996.75 558.55 1005.51 551 1014 C550.13 1014.99 549.26 1015.98 548.37 1017 C543.55 1022.42 538.65 1027.45 533 1032 C532.1 1032.73 531.21 1033.47 530.28 1034.23 C488.6 1067.38 437.75 1081.37 384.91 1076.54 C336.17 1070.81 289.58 1045.43 258.86 1007.13 C251.49 997.71 245.02 987.97 239.03 977.61 C237.97 975.83 237.97 975.83 236 974 C234.99 975.45 234 976.91 233 978.38 C232.44 979.19 231.89 980 231.31 980.84 C229.83 982.86 229.83 982.86 230 985 C229.42 985.29 228.85 985.57 228.25 985.87 C226.83 986.58 225.41 987.3 224 988.04 C223.34 988.37 222.68 988.71 222 989.06 C221.34 989.4 220.68 989.75 220 990.1 C213.02 993.25 205.27 992.75 198.2 990.1 C192.11 987.06 187.41 982.43 184.68 976.17 C182.23 968.38 182.57 961.27 185.97 953.9 C189.52 947.48 194.35 944.67 200.88 941.69 C208.57 940 215.46 941.19 223 943 C222.75 941.89 222.49 940.77 222.23 939.62 C217.88 920.42 214.76 902 214.75 882.25 C214.75 881.42 214.75 880.6 214.75 879.75 C214.77 860.07 217.25 841.85 223 823 C223.21 822.29 223.43 821.59 223.65 820.86 C227.56 808.36 233.19 796.71 239 785 C236.07 783.04 234 782.3 230.64 781.37 C229.02 780.91 229.02 780.91 227.35 780.44 C226.19 780.11 225.02 779.78 223.81 779.44 C208.4 774.98 193.46 769.55 178.66 763.36 C177.59 762.92 176.53 762.48 175.43 762.02 C174.63 761.68 173.83 761.35 173 761 Z M248 787 C222.28 831.53 216.67 883.84 229.69 933.38 C243.34 981.89 276.82 1022.35 320.32 1047.13 C344.75 1060.55 373.21 1068.05 401 1069 C402.28 1069.05 403.55 1069.11 404.87 1069.16 C451.66 1070.49 498.62 1051.91 532.69 1020.09 C534.13 1018.73 535.57 1017.37 537 1016 C537.83 1015.23 538.66 1014.47 539.52 1013.68 C567.36 987.19 584.65 949.5 591 912 C591.12 911.33 591.23 910.65 591.35 909.96 C595.82 883.16 593.32 855.06 586 829 C585.81 828.31 585.61 827.61 585.41 826.9 C579.46 805.38 579.46 805.38 568 787 C560.16 787.21 552.35 788.65 544.62 789.88 C537.2 791.05 529.82 792.07 522.32 792.61 C508.82 793.61 498.64 794.57 487.7 802.78 C462.31 820.96 424.8 832.95 393.62 828.18 C365.72 823.36 338.44 810.63 315 795 C313.05 794.55 313.05 794.55 310.89 794.36 C310.06 794.27 309.24 794.18 308.39 794.09 C307.05 793.95 307.05 793.95 305.68 793.82 C304.75 793.72 303.82 793.61 302.86 793.51 C299.86 793.19 296.87 792.87 293.88 792.56 C289.98 792.15 286.08 791.74 282.18 791.32 C281.23 791.21 280.28 791.11 279.3 791 C272.61 790.25 266.01 789.24 259.41 787.94 C255.54 787.19 251.93 786.87 248 787 Z M157 835 C155.07 840.35 153.82 845.78 152.58 851.32 C152.36 852.31 152.14 853.29 151.91 854.3 C151.45 856.37 150.98 858.44 150.52 860.51 C149.81 863.69 149.09 866.86 148.37 870.03 C147.92 872.05 147.47 874.06 147.02 876.07 C146.8 877.02 146.58 877.97 146.36 878.95 C146.17 879.83 145.97 880.72 145.77 881.62 C145.6 882.4 145.43 883.17 145.25 883.97 C144.83 886.2 144.83 886.2 146 889 C154.65 889.59 162.15 888.97 169.07 883.3 C174.28 877.91 176.67 872.02 177.16 864.56 C176.83 856.32 173.28 848.58 167.74 842.53 C164.37 839.46 161.17 836.9 157 835 Z M626 859 C620.63 866.84 619.77 874.19 621.44 883.45 C624 892.68 630.45 899.43 638.33 904.55 C646.24 908.84 654.21 909.98 663 908 C667.23 906.45 671.17 904.59 674 901 C674.04 898.77 674.04 898.77 673.39 896.3 C673.08 894.84 673.08 894.84 672.76 893.34 C672.51 892.24 672.26 891.14 672 890 C671.62 888.11 671.23 886.21 670.86 884.32 C670.3 881.61 669.72 878.9 669.13 876.2 C668.83 874.81 668.54 873.41 668.26 872.02 C667.84 869.97 667.4 867.93 666.95 865.88 C666.57 864.08 666.57 864.08 666.18 862.24 C664.54 857.72 661.97 854.95 657.64 852.86 C646.49 849.74 634.49 849.79 626 859 Z M195.19 956.06 C191.48 961.04 191.37 964.89 192 971 C193.57 976.21 196.99 979.49 201.66 982.12 C206.69 984.01 211.97 983.97 217.08 982.34 C221.6 980.07 225.07 976.65 227 972 C227.88 966.66 227.71 962.44 225.31 957.56 C221.53 953.37 218.32 950.27 212.51 949.8 C205.14 949.67 200.2 950.26 195.19 956.06 Z M0 1006 C-19.79 1028.18 -28.44 1056.3 -28.31 1085.69 C-28.31 1087.01 -28.3 1088.32 -28.3 1089.68 C-28.01 1112.73 -22.07 1134.31 -12 1155 C-11.7 1155.62 -11.41 1156.23 -11.1 1156.87 C-3.22 1173.07 7.37 1187.21 20 1200 C20.54 1200.56 21.08 1201.12 21.64 1201.7 C44.54 1225.18 76.78 1240.45 109.68 1241.47 C123.65 1241.61 136.12 1239.52 149 1234 C148.67 1224.76 148.34 1215.52 148 1206 C145 1207 141.99 1208 139 1209.04 C137.51 1209.54 137.51 1209.54 136 1210.06 C135.01 1210.4 134.02 1210.75 133 1211.1 C114.74 1216.59 95.36 1211.74 79 1203 C55.59 1189.4 40.17 1166.89 33 1141 C27.81 1120.5 30.5 1098.63 40.56 1080.12 C46.73 1069.85 54.37 1062.5 65 1057 C65.75 1056.61 66.51 1056.22 67.28 1055.82 C84.52 1047.53 103.3 1050.28 120.83 1055.91 C130.19 1059.32 138.28 1064.97 145.54 1071.71 C146.8 1073.11 146.8 1073.11 148 1073 C148.35 1064.18 148.61 1055.36 148.78 1046.53 C148.86 1042.43 148.96 1038.33 149.13 1034.23 C150.91 1015.91 150.91 1015.91 144.96 999.76 C141.88 997.34 138.61 995.87 134.9 994.65 C132.26 993.75 129.93 992.39 127.5 991.01 C125.86 990.22 124.22 989.45 122.56 988.69 C121.67 988.27 120.78 987.86 119.86 987.43 C79.47 969.11 31.94 972.96 0 1006 Z M672 1001 C671.31 1001.37 670.62 1001.75 669.92 1002.14 C667.69 1003.93 667.69 1003.93 667.52 1007.13 C667.53 1008.42 667.54 1009.71 667.55 1011.04 C667.55 1011.75 667.54 1012.47 667.54 1013.2 C667.55 1015.55 667.58 1017.91 667.61 1020.26 C667.62 1021.89 667.62 1023.53 667.63 1025.16 C667.64 1029.45 667.68 1033.75 667.73 1038.05 C667.77 1042.43 667.78 1046.81 667.8 1051.2 C667.85 1059.8 667.92 1068.4 668 1077 C668.71 1076.39 668.71 1076.39 669.42 1075.77 C670.05 1075.23 670.67 1074.7 671.31 1074.14 C672.23 1073.35 672.23 1073.35 673.17 1072.54 C690.96 1057.57 711.44 1049.23 734.74 1050.78 C750.08 1052.29 763.68 1059.62 774 1071 C788.01 1089.11 791.79 1110.56 789 1133 C785.03 1158.43 770.67 1181.93 750.26 1197.48 C734.25 1208.97 714.06 1215.37 694.39 1212.47 C684.84 1210.55 676.68 1207.34 668 1203 C667.67 1213.23 667.34 1223.46 667 1234 C692.93 1245.11 721 1242.81 746.98 1232.98 C765.36 1225.61 780.66 1214.54 795 1201 C795.75 1200.31 796.5 1199.61 797.27 1198.89 C817.85 1179.13 832.38 1151.8 839.75 1124.44 C839.95 1123.71 840.15 1122.98 840.35 1122.22 C843.39 1110.33 844.37 1098.43 844.31 1086.19 C844.3 1084.21 844.3 1084.21 844.3 1082.2 C843.97 1056.35 836.34 1029.77 819 1010 C818.13 1008.92 818.13 1008.92 817.25 1007.82 C801.59 988.96 778.16 978.94 754.2 976.46 C724.42 973.76 696.3 984.53 672 1001 Z M53 1077 C41.38 1091.95 37.76 1109.75 39.47 1128.29 C41.86 1145.02 48.17 1160.97 59 1174 C60.07 1175.29 60.07 1175.29 61.16 1176.61 C72.93 1190.27 88.78 1201.36 107 1204 C120.26 1204.94 131.89 1204.03 143.69 1197.41 C144.5 1196.96 145.31 1196.51 146.14 1196.05 C146.75 1195.7 147.37 1195.36 148 1195 C148.23 1180.96 148.41 1166.92 148.52 1152.88 C148.57 1146.36 148.64 1139.84 148.75 1133.32 C148.86 1127.03 148.92 1120.73 148.95 1114.44 C148.97 1112.04 149 1109.64 149.06 1107.24 C149.97 1094.23 149.97 1094.23 145.83 1082.34 C143.35 1079.81 140.99 1077.89 138 1076 C137.36 1075.51 136.73 1075.02 136.07 1074.52 C110.93 1055.38 75.42 1051.93 53 1077 Z M697 1067 C696.16 1067.44 695.32 1067.88 694.45 1068.34 C687.83 1072.06 682.45 1076.75 677 1082 C676.22 1082.75 675.44 1083.51 674.63 1084.29 C668.72 1090.09 667.84 1092.86 667.73 1101.2 C667.71 1102.16 667.7 1103.11 667.68 1104.1 C667.54 1112.91 667.46 1121.72 667.4 1130.53 C667.36 1136.45 667.3 1142.36 667.19 1148.28 C667.09 1154.01 667.03 1159.73 667.01 1165.45 C667 1167.63 666.96 1169.81 666.91 1171.99 C666.14 1183.55 666.14 1183.55 670.17 1193.87 C672.75 1195.71 675.04 1196.91 678 1198 C679.13 1198.57 680.26 1199.15 681.43 1199.74 C682.38 1200.12 683.33 1200.49 684.31 1200.88 C685.28 1201.26 686.24 1201.65 687.24 1202.05 C702.32 1207.22 719.71 1204.18 733.72 1197.42 C756.17 1185.87 769.76 1166.11 778.21 1142.82 C783.53 1123.8 782.64 1104.09 773.94 1086.25 C767.18 1074.51 756.85 1065.37 743.88 1061.19 C739.57 1060.05 735.44 1059.35 731 1059 C730.34 1058.95 729.68 1058.89 729 1058.84 C717.73 1058.36 706.86 1061.77 697 1067 Z M157 1167 C156.9 1183.98 156.88 1200.96 157.25 1217.94 C157.26 1219.19 157.28 1220.44 157.29 1221.73 C157.61 1233.56 160.89 1242.58 168 1252 C168.6 1252.82 169.2 1253.63 169.81 1254.47 C172.3 1257.35 174.89 1259.37 178 1261.56 C179.03 1262.31 180.06 1263.05 181.12 1263.82 C190.02 1269.28 199.46 1270.59 209.71 1270.53 C210.91 1270.54 212.12 1270.55 213.37 1270.56 C216.64 1270.58 219.92 1270.58 223.2 1270.57 C225.95 1270.57 228.7 1270.57 231.46 1270.58 C237.96 1270.6 244.47 1270.59 250.97 1270.58 C257.64 1270.56 264.31 1270.58 270.98 1270.61 C276.75 1270.63 282.51 1270.64 288.27 1270.63 C291.7 1270.63 295.13 1270.63 298.55 1270.65 C319.28 1270.75 334.37 1269.69 350 1255 C366.06 1236.58 363.15 1212.8 363.06 1189.94 C363.06 1187.7 363.05 1185.47 363.05 1183.23 C363.04 1177.82 363.02 1172.41 363 1167 C359.56 1170.41 359.56 1170.41 356.25 1173.96 C345.93 1185.28 331.26 1191.66 316.06 1192.38 C308.73 1192.6 301.4 1192.58 294.07 1192.57 C292.04 1192.57 290.01 1192.57 287.97 1192.58 C281.6 1192.6 275.22 1192.59 268.84 1192.58 C262.31 1192.56 255.78 1192.58 249.25 1192.61 C243.6 1192.63 237.95 1192.64 232.3 1192.63 C228.94 1192.63 225.58 1192.63 222.23 1192.65 C201.9 1192.75 183.09 1191.76 167.14 1177.43 C164.7 1175.01 162.33 1172.53 160 1170 C159 1169 158 1168 157 1167 Z M658 1167 C656.65 1168.5 655.32 1170.03 654 1171.56 C643.7 1183.06 630.69 1190.76 615.06 1192.29 C611.91 1192.4 608.77 1192.43 605.62 1192.42 C604.44 1192.43 603.25 1192.44 602.03 1192.45 C598.14 1192.47 594.25 1192.47 590.36 1192.47 C588.33 1192.47 586.29 1192.48 584.26 1192.49 C577.86 1192.5 571.47 1192.51 565.07 1192.5 C558.52 1192.49 551.96 1192.52 545.41 1192.55 C539.75 1192.59 534.08 1192.6 528.42 1192.59 C525.05 1192.59 521.69 1192.6 518.32 1192.62 C493.63 1192.77 476.28 1189.64 458 1172 C456.66 1170.67 455.33 1169.34 454 1168 C453.16 1173.1 452.87 1178.02 452.92 1183.19 C452.93 1183.97 452.93 1184.74 452.94 1185.54 C452.95 1188.03 452.98 1190.51 453 1193 C453.01 1194.65 453.02 1196.29 453.03 1197.94 C453.07 1202.1 453.13 1206.26 453.21 1210.42 C453.24 1212.11 453.26 1213.8 453.27 1215.5 C453.39 1229.78 455.29 1240.27 464 1252 C464.93 1253.33 464.93 1253.33 465.88 1254.69 C473.29 1262.75 484.55 1269.37 495.61 1270.19 C498.79 1270.28 501.96 1270.3 505.14 1270.31 C506.95 1270.32 506.95 1270.32 508.8 1270.33 C512.1 1270.35 515.39 1270.36 518.69 1270.37 C520.76 1270.37 522.83 1270.38 524.89 1270.38 C532.13 1270.41 539.36 1270.42 546.59 1270.43 C553.3 1270.43 560.01 1270.46 566.72 1270.5 C572.5 1270.54 578.28 1270.55 584.07 1270.55 C587.51 1270.55 590.96 1270.56 594.4 1270.59 C614.96 1270.73 630.4 1269.83 646.06 1255.06 C653.43 1247.22 658.19 1237.05 658.32 1226.26 C658.33 1225.62 658.34 1224.97 658.35 1224.31 C658.38 1222.2 658.4 1220.09 658.41 1217.98 C658.43 1216.51 658.45 1215.03 658.47 1213.56 C658.52 1209.71 658.56 1205.85 658.6 1201.99 C658.64 1198.05 658.69 1194.11 658.74 1190.17 C658.84 1182.45 658.92 1174.72 659 1167 C658.67 1167 658.34 1167 658 1167 Z " fill="#000302" transform="translate(100,0)"/>
<path d="M0 0 C4.27 3.97 6.91 7.81 7.78 13.66 C7.95 31.43 -0.06 44.8 -12.06 57.38 C-22.9 67.74 -37.45 76 -52.75 76.62 C-53.39 76.58 -54.03 76.54 -54.69 76.5 C-54.36 77.49 -54.03 78.48 -53.69 79.5 C-53.59 81.19 -53.51 82.87 -53.44 84.56 C-52.77 92.17 -50.06 98.6 -44.5 103.94 C-39.18 108 -32.87 109.89 -26.19 109.5 C-17.77 108.09 -11.29 104.03 -6.02 97.4 C-2.83 92.85 -2.16 88.1 -1.25 82.71 C-0.69 80.5 -0.69 80.5 1.31 78.5 C4.38 78.75 4.38 78.75 7.31 79.5 C9.79 84.46 8.4 89.93 6.75 94.94 C2.59 105.45 -4.23 111.9 -14.29 116.75 C-24.04 120.78 -33.29 120.82 -43.07 116.84 C-48.87 113.87 -54.09 109.99 -57.69 104.5 C-57.69 103.84 -57.69 103.18 -57.69 102.5 C-58.35 102.5 -59.01 102.5 -59.69 102.5 C-59.96 103.09 -60.22 103.68 -60.5 104.29 C-64.64 112 -72.49 116.55 -80.64 119.11 C-90.57 120.99 -99.5 119.14 -108.13 114.06 C-115.26 109.04 -120.73 101.77 -123.12 93.31 C-124.63 83.13 -124.63 83.13 -122.5 79.44 C-120.69 78.5 -120.69 78.5 -118.12 78.5 C-115.69 79.5 -115.69 79.5 -114.5 81.5 C-113.83 83.96 -113.31 86.38 -112.81 88.88 C-111.12 96.68 -107.35 102.03 -100.69 106.5 C-94.24 109.71 -86.11 109.66 -79.21 107.85 C-73.01 105.05 -68.6 100.02 -65.81 93.88 C-63.92 88.29 -64.45 82.31 -64.69 76.5 C-65.46 76.36 -66.24 76.23 -67.04 76.09 C-80.47 73.41 -91.53 67.63 -101.69 58.5 C-102.3 57.98 -102.91 57.46 -103.54 56.93 C-113.57 47.81 -121.69 33.45 -122.93 19.89 C-123.13 12.36 -122.11 7.28 -116.99 1.63 C-90.74 -23.09 -27.13 -23.26 0 0 Z M-110.69 8.5 C-113.97 13.42 -113.2 18.75 -112.69 24.5 C-110.82 32.66 -105.78 39.03 -100.69 45.5 C-100.06 46.34 -99.43 47.18 -98.79 48.04 C-90.46 57.79 -77.32 65.44 -64.46 66.72 C-46.31 67.63 -33.36 63.09 -19.44 51.19 C-9.64 42.01 -2.65 30.54 -1.54 17.01 C-1.81 12.46 -3.3 9.93 -6.31 6.56 C-31.4 -13.55 -86.5 -11.48 -110.69 8.5 Z " fill="#000302" transform="translate(565.6875,665.5)"/>
<path d="M0 0 C6.07 4.67 10.61 12.35 12.25 19.81 C13.42 29.42 10.95 37.1 5.62 45.06 C0.51 51.47 -7.81 56.14 -15.95 57.06 C-24.56 57.5 -32.36 55.11 -39.06 49.62 C-46.55 42.43 -50.23 35.27 -51.06 24.94 C-50.74 15.71 -47.22 8.33 -40.75 1.81 C-27.93 -8.6 -13.85 -8.73 0 0 Z " fill="#000302" transform="translate(337.75,525.1875)"/>
<path d="M0 0 C7.76 5.67 13.04 12.06 15.69 21.44 C16.83 30.82 14.94 38.77 9.81 46.81 C4.25 53.9 -4.39 58.04 -13.18 59.32 C-21.3 59.76 -29.06 56.95 -35.31 51.81 C-42.51 44.91 -46.87 37.32 -47.38 27.25 C-47.12 17.96 -43.6 10.6 -37.22 3.95 C-26.61 -5.34 -12.37 -7.12 0 0 Z " fill="#000302" transform="translate(713,523)"/>
<path d="M0 0 C8.92 5.39 13.68 14.53 16.41 24.31 C19.34 38.59 17.43 52.79 9.94 65.31 C6.27 70.54 1.27 73.68 -4.38 76.5 C-11.8 77.2 -18.3 77.14 -24.38 72.5 C-33.36 64.51 -37.8 53.06 -38.59 41.25 C-38.96 27.21 -35.93 14.66 -26.21 4.27 C-19.09 -2.59 -9.26 -4.04 0 0 Z M-20.38 11.5 C-27.83 21.55 -30.44 32.18 -28.75 44.56 C-27.24 52.35 -24.1 60.01 -18.11 65.43 C-14.71 67.53 -11.3 67.9 -7.38 67.5 C-1.2 64.72 2.79 59.33 5.67 53.32 C9.39 42.93 9.13 29.58 4.62 19.5 C2.86 16.19 2.86 16.19 0.62 13.5 C-0.1 12.57 -0.82 11.64 -1.56 10.69 C-7.47 6.09 -14.83 6.18 -20.38 11.5 Z " fill="#000302" transform="translate(328.375,1035.5)"/>
<path d="M0 0 C6.02 3.69 11.55 9.75 13.56 16.56 C14.37 25.41 14.5 33.86 9.56 41.56 C9.15 42.26 8.74 42.95 8.31 43.67 C3.9 50.35 -2.26 53.61 -9.38 56.94 C-16.92 58.48 -24.64 58.48 -31.44 54.56 C-38.11 49.94 -41.87 44.8 -44.19 37.06 C-45.13 27.63 -43.19 20.68 -38.69 12.31 C-29.23 0.76 -14.95 -6.41 0 0 Z M-29.44 16.56 C-34.26 23.26 -35.23 28.42 -34.44 36.56 C-33.16 40.76 -30.82 43.6 -27.12 45.94 C-22.01 48.45 -17.52 49.09 -12 47.56 C-5.25 45.01 -0.17 40.67 3.06 34.19 C5.43 27.97 5.64 22.39 2.94 16.25 C0.3 11.54 -3.36 9.25 -8.44 7.56 C-17.42 6.8 -23.53 9.67 -29.44 16.56 Z " fill="#000302" transform="translate(722.4375,1075.4375)"/>
<path d="M0 0 C6.51 4.68 11.36 9.94 13 18 C13.88 26.98 11.5 34.15 5.84 41.17 C0.4 46.59 -5.49 48.31 -13.06 48.56 C-22.52 48.16 -28.8 45.27 -35.27 38.34 C-39.59 32.49 -41.94 25.26 -41 18 C-39.41 10.22 -35.6 4.32 -29.13 -0.35 C-19.91 -5.86 -9.08 -5.65 0 0 Z M-25.75 8.75 C-29.59 12.59 -31.17 16.11 -31.38 21.5 C-31.14 27.33 -29.36 30.7 -25.12 34.75 C-19.87 38.53 -15.51 39.81 -9 39 C-3.32 37 0.31 33.39 3 28 C3.77 21.13 3.13 16.58 -1 11 C-7.64 3.77 -17.81 3.7 -25.75 8.75 Z " fill="#000302" transform="translate(647,302)"/>
<path d="M0 0 C7.08 4.4 12.31 10.3 14.5 18.44 C15.54 25.87 14.46 32.05 10.5 38.44 C6.67 42.97 2.16 46.55 -3.5 48.44 C-13.23 49.14 -20.55 49.08 -28.39 42.96 C-33.85 38.12 -36.69 32.33 -37.88 25.15 C-38.27 18.04 -36.17 11.42 -31.41 6.1 C-22.95 -1.7 -11.03 -5.05 0 0 Z M-26 14 C-28.13 18.88 -28.27 23.19 -27.5 28.44 C-25.17 33.36 -22.18 35.75 -17.5 38.44 C-12.52 40.1 -8.2 40.04 -3.31 38.31 C0.76 35.59 3.68 33.02 5.17 28.33 C6.05 23.23 5.32 19.63 2.74 15.16 C-0.15 11.15 -3.79 8.78 -8.5 7.44 C-15.77 6.61 -20.98 8.85 -26 14 Z " fill="#000302" transform="translate(492.5,264.5625)"/>
<path d="M0 0 C5.08 3 7.38 6.27 9.25 11.88 C10.07 18.57 7.88 23.4 4.25 28.88 C-3.04 37.06 -12.23 41.03 -23 42.1 C-30.42 42.39 -36.86 40.68 -42.69 36 C-46.58 32.32 -47.56 29.51 -48.19 24.19 C-48 18.08 -45.14 12.58 -41.14 8.05 C-30.47 -1.65 -13.49 -6.24 0 0 Z M-36.75 17.88 C-38.42 20.98 -39.03 23.61 -38.25 27.12 C-35.36 30.5 -32.4 31.68 -28 32.2 C-18.72 32.54 -12.49 30.31 -5.31 24.5 C-2.18 21.57 -0.23 19.28 0.25 14.88 C-1.02 11.45 -2.38 10.13 -5.38 8.06 C-16.66 4.09 -29.27 8.78 -36.75 17.88 Z " fill="#000302" transform="translate(608.75,1087.125)"/>
<path d="M0 0 C5.98 3.47 11.66 8.38 14.42 14.84 C16.21 21.92 16.28 30.03 12.48 36.45 C7.8 41.92 1.91 44.86 -5.18 45.42 C-13.35 44.88 -20.1 41.91 -25.99 36.17 C-31.59 28.83 -32.83 22.34 -31.99 13.17 C-29.95 6.27 -26.01 2.83 -19.8 -0.58 C-13.47 -3.09 -6.21 -2.68 0 0 Z M-20.8 11.36 C-22.8 14.4 -23.08 17.62 -22.99 21.17 C-21.29 27.31 -18.01 30.56 -12.99 34.17 C-9.26 36.03 -5.05 35.73 -0.99 35.17 C2.64 33.29 4.7 31.09 6.01 27.17 C6.66 21.63 5.58 18.42 2.49 13.96 C-0.7 10.1 -4.11 8.12 -8.99 7.23 C-13.83 6.83 -16.84 8.76 -20.8 11.36 Z " fill="#000302" transform="translate(729.98828125,788.83203125)"/>
<path d="M0 0 C5.07 3.88 8.2 8.65 10.05 14.75 C10.96 21.91 11.08 28.88 7.25 35.2 C4.04 39.32 -0.21 42.33 -5.4 43.12 C-13.47 43.32 -19.55 41.48 -25.77 36.21 C-31.09 30.59 -34.09 23.4 -34.45 15.69 C-34.14 9.55 -32.51 4.25 -28.05 -0.11 C-18.69 -7.44 -9.71 -6.22 0 0 Z M-22.95 8.75 C-25.25 14.4 -25.22 18.04 -23 23.71 C-20.38 28.81 -16.27 31.83 -10.95 33.75 C-6.91 33.68 -4.77 33.39 -1.58 30.88 C1.4 26.98 1.44 23.52 1.05 18.75 C-0.91 12.84 -3.95 9.34 -8.95 5.75 C-14.31 3.07 -19.15 4.41 -22.95 8.75 Z " fill="#000302" transform="translate(146.953125,1016.25)"/>
<path d="M0 0 C4.97 4.41 8.37 9.71 9.35 16.38 C9.67 21.92 8.78 25.71 5.57 30.24 C1.75 34.52 -2.73 37.7 -8.57 38.24 C-18.31 38.48 -26.28 36.48 -33.53 29.7 C-37.66 24.92 -39.89 19.32 -40 13 C-38.78 6.84 -36.48 2.37 -32 -2 C-21.62 -8.27 -9.81 -6.68 0 0 Z M-28 7 C-30.39 10.16 -30.46 13.13 -30 17 C-27.11 22.36 -23.7 25.74 -18.19 28.31 C-13.07 29.42 -8.91 28.83 -4.12 26.75 C-1.53 24.61 -0.76 23.27 0 20 C0.12 14.51 -2.58 11.52 -6.18 7.7 C-10.29 3.86 -14.36 3.61 -19.78 3.75 C-23.05 4.12 -25.3 5.16 -28 7 Z " fill="#000302" transform="translate(123,1067)"/>
<path d="M0 0 C6.11 3.51 10.12 9.7 12.28 16.31 C14.04 24.46 13.13 32.35 8.75 39.5 C4.88 43.78 1.23 47.16 -4.7 47.74 C-10.94 47.9 -15.42 47.66 -20.25 43.5 C-27.12 36.77 -29.63 31.18 -30.28 21.57 C-30.21 14.39 -27.33 7.6 -22.25 2.5 C-15.65 -2.48 -7.58 -3.24 0 0 Z M-16.25 10.5 C-19.96 14.74 -20.61 18.61 -20.53 24.09 C-19.89 29.62 -17.5 33.36 -13.44 37.06 C-9.4 38.88 -7.47 38.8 -3.25 37.5 C0.64 34.82 2.1 32.22 3.25 27.75 C4.08 22.43 3.4 18.21 0.75 13.5 C-1.78 10.39 -4.47 8.75 -8.31 7.5 C-11.93 7.5 -13.42 8.28 -16.25 10.5 Z " fill="#000302" transform="translate(196.25,998.5)"/>
<path d="M0 0 C5.15 3.54 8.58 7.96 9.74 14.16 C10.47 22.76 8.64 29.84 3.13 36.49 C-2.42 42.4 -7.34 45.39 -15.57 45.76 C-21.59 45.57 -25.11 44.14 -29.54 39.93 C-34 35.02 -35.52 30.06 -35.33 23.47 C-34.27 14.52 -29.94 7.3 -23 1.65 C-15.7 -3.38 -7.86 -4.35 0 0 Z M-22.4 13.86 C-25.65 18.68 -25.87 23.67 -25.07 29.32 C-23.84 32.29 -22.84 33.7 -20.39 35.7 C-16.77 36.68 -13.6 36.45 -10.07 35.32 C-5.28 32.4 -1.87 28.7 -0.07 23.32 C0.63 18.42 0.42 15.24 -1.95 10.82 C-4.75 7.53 -5.4 7.39 -9.76 6.95 C-15.39 7.04 -18.82 9.7 -22.4 13.86 Z " fill="#000302" transform="translate(898.07421875,1013.67578125)"/>
<path d="M0 0 C4.66 3.28 8.93 7.46 10.75 12.94 C11.49 19.78 10.93 25.34 6.75 30.94 C0.97 37.24 -4.57 41.33 -13.14 42.25 C-19.68 42.52 -24.96 42 -30.25 37.94 C-35.17 33.11 -37.41 29.79 -37.62 22.81 C-37.56 16.44 -36.5 12.66 -32.25 7.94 C-31.75 7.38 -31.26 6.83 -30.75 6.26 C-22.11 -2.12 -11.15 -3.65 0 0 Z M-25.69 14.56 C-28.34 18.6 -28.66 21.05 -28.25 25.94 C-26.35 29.22 -24.89 30.62 -21.5 32.31 C-16.02 33.37 -11.42 32.77 -6.5 30.25 C-2.38 27.32 0.22 24.81 1.16 19.69 C1.31 17.28 1.28 15.29 0.75 12.94 C-2.62 9.39 -5.55 7.78 -10.38 7.62 C-16.77 7.71 -21.36 9.9 -25.69 14.56 Z " fill="#000302" transform="translate(926.25,1063.0625)"/>
<path d="M0 0 C5.83 3.9 9.42 8.68 11.25 15.44 C12.31 25.26 10.84 32.8 5 40.75 C0.1 45.54 -4.36 47.65 -11.25 48 C-16.82 47.76 -20.69 46.29 -24.75 42.44 C-31.05 34.37 -31.62 26.4 -30.75 16.44 C-28.41 8.38 -23.51 3.27 -16.44 -0.94 C-10.92 -2.22 -5.15 -2.67 0 0 Z M-17.75 11.44 C-21.66 16.65 -22.46 21.99 -21.75 28.44 C-20.35 31.96 -18.94 35.27 -15.75 37.44 C-11.94 38.43 -9.71 38.86 -6.06 37.25 C-1.52 33.69 0.9 31.18 2.25 25.44 C2.91 19.52 1.6 15.26 -1.75 10.44 C-7.45 5.87 -12.21 7.29 -17.75 11.44 Z " fill="#000302" transform="translate(842.75,998.5625)"/>
<path d="M0 0 C6.47 2.82 11.7 8.51 14.82 14.76 C17.14 21.14 17.55 26.65 15.03 33.04 C12.41 38.46 9.27 41.25 3.71 43.73 C-3.14 45.27 -9.07 44.47 -15.35 41.42 C-21.91 36.93 -26.74 31.37 -28.35 23.42 C-29.06 16.56 -28.42 11.11 -24.35 5.42 C-17.35 -1.23 -9.34 -2.32 0 0 Z M-18.35 13.42 C-19.67 17.62 -19.53 19.83 -18.22 24.04 C-15.68 28.61 -12.49 32.8 -7.35 34.42 C-1.52 35 -1.52 35 3.59 32.54 C6.39 29.66 6.62 28.84 6.96 24.73 C6.88 20.25 5.6 16.81 2.65 13.42 C-1 10.28 -4.22 8.61 -8.97 7.79 C-13.43 8.62 -15.34 10.05 -18.35 13.42 Z " fill="#000302" transform="translate(461.34765625,1077.58203125)"/>
<path d="M0 0 C4.58 4.28 8.6 8.19 9.27 14.64 C9.51 21.85 8.85 26.53 4 32 C-0.7 36.81 -5.06 39.05 -11.75 39.38 C-17.97 39.22 -23.16 37.57 -27.82 33.35 C-32.83 27.8 -34.5 23.02 -34.31 15.56 C-33.6 9.69 -30.92 5.57 -26.62 1.62 C-19.08 -4.26 -8.26 -5.2 0 0 Z M-18.06 7.81 C-18.75 8.15 -19.45 8.49 -20.16 8.83 C-22.31 10.02 -22.31 10.02 -24 13 C-24.55 16.39 -24.55 19.61 -24 23 C-21.81 25.82 -20.17 27.42 -17 29 C-12.17 29.52 -8.26 29.73 -4 27.25 C-1.23 24.13 -0.17 22.28 0.38 18.12 C-0.12 14.03 -1.31 12.11 -4 9 C-8.93 6.01 -12.86 5.21 -18.06 7.81 Z " fill="#000302" transform="translate(416,1137)"/>
<path d="M0 0 C5 3.59 8.75 8.19 9.86 14.33 C9.93 20.4 8.84 24.59 4.86 29.33 C0.37 33.92 -3.69 35.9 -10.14 36.33 C-16.78 35.74 -21.77 32.78 -26.39 28.02 C-29.89 22.66 -30.59 17.68 -29.68 11.47 C-28.3 5.97 -24.7 2.44 -20.14 -0.67 C-13.65 -4.28 -6.33 -3.57 0 0 Z M-18.14 9.33 C-20.66 13.1 -20.67 14.86 -20.14 19.33 C-18.36 22.31 -16.29 24.76 -13.14 26.33 C-8.58 26.46 -5.15 26.17 -1.58 23.21 C0.24 19.56 0.43 17.37 -0.14 13.33 C-2.51 9.38 -4.72 7.58 -9.14 6.33 C-12.9 6.33 -14.91 7.47 -18.14 9.33 Z " fill="#000302" transform="translate(574.14453125,250.66796875)"/>
</svg>
