<?xml version="1.0" encoding="UTF-8"?>
<!-- Generator: visioncortex VTracer 0.6.3 -->
<svg version="1.1" xmlns="http://www.w3.org/2000/svg" width="845" height="1280">
<path d="M0 0 C8 2.75 12.29 9.16 15.96 16.49 C21.41 28 25.67 40.04 30 52 C30.46 50.78 30.91 49.55 31.38 48.29 C37.39 32.31 37.39 32.31 44 29 C48.49 28.63 51 28.51 55.06 30.5 C67.93 41.45 74.23 57.47 80 73 C80.41 71.82 80.82 70.65 81.25 69.44 C84.94 59.7 84.94 59.7 88.75 56.56 C94.11 55.22 98.25 55.23 103.06 57.94 C110.59 63.32 115.21 71.54 119.38 79.62 C119.84 80.51 120.3 81.4 120.77 82.32 C134 108.38 134 108.38 134 117 C134.66 117 135.32 117 136 117 C136.08 116.26 136.16 115.52 136.25 114.75 C137.21 111.21 137.91 110.03 141 108 C146.13 107.02 150.63 107.38 155.19 110 C162.41 115.35 167.22 122.34 171.31 130.25 C171.77 131.13 172.24 132.02 172.71 132.93 C177.72 142.88 181.32 153.31 184.91 163.83 C185.28 164.9 185.65 165.97 186.03 167.07 C186.62 168.85 187.16 170.64 187.63 172.45 C188.44 175.33 189.3 177.49 191.77 179.28 C194.09 180.45 196.44 181.39 198.88 182.31 C200.7 183.07 202.52 183.83 204.33 184.59 C205.27 184.98 206.21 185.37 207.17 185.78 C211.74 187.75 216.15 190 220.56 192.31 C221.42 192.76 222.29 193.21 223.17 193.67 C230.38 197.51 237.24 201.83 243.96 206.47 C244.7 206.96 245.43 207.45 246.19 207.96 C247.15 208.62 247.15 208.62 248.14 209.3 C250.02 210.24 250.02 210.24 252 209.26 C252.66 208.85 253.32 208.43 254 208 C254.61 207.66 255.22 207.32 255.85 206.97 C256.48 206.6 257.12 206.24 257.77 205.86 C280.52 192.88 306.26 180.65 333.17 186.19 C343.8 189.24 352.2 194.72 357.94 204.2 C363.99 215.39 366.58 226.47 366.5 239.19 C366.49 240.31 366.49 241.42 366.48 242.58 C365.86 271.54 356.24 302.07 337.59 324.51 C335.76 326.78 335.76 326.78 336.27 328.87 C337.07 331.19 338.04 333.3 339.14 335.49 C353.15 363.73 353.15 363.73 351 378 C348.89 382.46 346.58 385.08 342 387 C335.29 388.05 330.68 385.14 325 382 C323.67 381.33 322.34 380.66 321 380 C321.42 380.84 321.85 381.68 322.29 382.54 C331.13 400.49 336.4 419.36 340 439 C340.13 439.7 340.27 440.41 340.4 441.13 C346.56 475.43 343.56 512.16 323.63 540.99 C322.32 542.84 320.98 544.68 319.62 546.5 C319.22 547.06 318.82 547.62 318.4 548.19 C317.23 549.72 317.23 549.72 315 552 C311 552 311 552 309.42 550.44 C308.92 549.73 308.42 549.01 307.91 548.27 C307.35 547.49 306.8 546.7 306.22 545.89 C305.37 544.65 305.37 544.65 304.5 543.38 C303.65 542.16 303.65 542.16 302.78 540.93 C299.79 536.66 296.87 532.35 294 528 C294.09 528.73 294.17 529.46 294.26 530.21 C297.57 558.63 297.57 558.63 298 572 C298.02 572.67 298.04 573.34 298.07 574.03 C299.56 627.15 288.55 690.42 251.32 730.61 C241.09 741.14 229.18 749.64 217.45 758.39 C216.73 758.94 216 759.48 215.25 760.04 C213.87 761.07 212.48 762.1 211.09 763.13 C210.46 763.6 209.84 764.06 209.2 764.54 C208.38 765.15 208.38 765.15 207.54 765.76 C205.91 767.08 204.45 768.49 203 770 C203.31 770.87 203.62 771.74 203.94 772.64 C207.43 782.72 209.99 792.85 212.31 803.25 C212.7 804.94 213.08 806.63 213.46 808.32 C214.25 811.8 215.04 815.28 215.82 818.76 C216.99 823.95 218.17 829.14 219.36 834.32 C219.55 835.14 219.73 835.96 219.93 836.8 C220.29 838.4 220.66 840 221.03 841.6 C221.88 845.31 222.72 849.01 223.57 852.71 C223.98 854.54 223.98 854.54 224.41 856.41 C224.6 857.26 224.8 858.12 225 859 C225.53 858.2 226.06 857.4 226.6 856.58 C251.39 819.23 282.89 789.7 328 780.19 C333.66 779.17 339.25 778.28 345 778 C346.59 777.92 346.59 777.92 348.21 777.84 C376.54 777.13 405.36 785.18 427 804 C427.81 804.69 428.61 805.37 429.45 806.08 C445.08 819.74 463.39 842.05 465.34 863.73 C465.63 876.38 463.31 884.49 454.45 893.8 C445.58 901.79 436.42 902.71 424.94 902.17 C417.54 901.52 411.47 897.67 406.16 892.66 C402.08 887.63 399.6 881.73 396.89 875.88 C390.85 863.15 382.52 854.52 369.19 849.69 C353.04 845.1 336.2 847.72 321.31 855.06 C314.26 859.11 308.68 864.26 303 870 C302.28 870.7 301.56 871.39 300.82 872.11 C280.7 892.92 273.4 924.51 268 952 C268.6 952.04 269.21 952.08 269.83 952.12 C276.19 952.65 282.02 953.87 288.12 955.69 C289.04 955.96 289.95 956.22 290.89 956.5 C323.07 966.12 355.03 982.41 372.01 1012.81 C384.37 1036.14 386.38 1063.52 380 1089 C379.75 1090.01 379.75 1090.01 379.5 1091.04 C369.59 1129.96 347.35 1163.26 321 1193 C320.46 1193.61 319.93 1194.21 319.38 1194.83 C300.75 1215.75 275.08 1235.09 246.01 1237.14 C224.19 1238.12 205.5 1232.91 189 1218 C187.99 1217.01 186.99 1216.01 186 1215 C185.85 1216.09 185.71 1217.18 185.55 1218.3 C183.5 1232.24 179.69 1244.1 168 1253 C160.36 1257.31 153.97 1259.17 145.25 1259.06 C144.55 1259.06 143.86 1259.05 143.14 1259.05 C141.42 1259.04 139.71 1259.02 138 1259 C137.73 1259.74 137.47 1260.48 137.2 1261.25 C133.68 1269.33 126.64 1274.6 118.73 1277.97 C108.98 1281.38 99.06 1281.18 89.51 1277.28 C86.29 1275.64 83.53 1273.68 80.75 1271.37 C76.4 1267.97 73.47 1267.86 67.94 1268.12 C57.1 1268.35 49.45 1265.23 41.23 1258.22 C36.54 1253.55 33.18 1248.25 31 1242 C31 1241.01 31 1240.02 31 1239 C30.3 1238.92 29.6 1238.84 28.88 1238.75 C22.45 1237.07 18.93 1233.02 15.1 1227.9 C14 1226 14 1226 14 1223 C6.41 1223 -1.18 1223 -9 1223 C-9.33 1224.65 -9.66 1226.3 -10 1228 C-13.33 1233.02 -17.27 1236.92 -23 1239 C-23.99 1239 -24.98 1239 -26 1239 C-26.1 1239.88 -26.2 1240.76 -26.31 1241.66 C-28.12 1250.39 -34.73 1258.08 -42 1263 C-48.43 1266.47 -53.66 1268.14 -60.99 1267.73 C-68.04 1267.28 -68.04 1267.28 -74.58 1269.41 C-76.52 1271.22 -76.52 1271.22 -78.23 1273.18 C-83.49 1278.59 -91.76 1280.14 -99 1280.31 C-110.79 1280.17 -119.61 1276.24 -128 1268 C-133 1262.21 -133 1262.21 -133 1259 C-133.96 1259.05 -134.91 1259.09 -135.89 1259.14 C-148.08 1259.48 -157.73 1257.5 -167 1249 C-175.96 1240.32 -178.83 1231.29 -180 1219 C-180.03 1217 -180.04 1215 -180 1213 C-180.68 1213.57 -181.36 1214.14 -182.05 1214.72 C-185.01 1217.18 -188 1219.6 -191 1222 C-191.8 1222.64 -192.6 1223.28 -193.43 1223.95 C-209.6 1236.09 -229.11 1238.96 -248.78 1236.54 C-268.14 1232.79 -285.16 1223.88 -300 1211 C-300.78 1210.34 -301.57 1209.67 -302.38 1208.99 C-323.41 1190.73 -341.57 1167.35 -355 1143 C-355.47 1142.17 -355.93 1141.33 -356.41 1140.47 C-367.12 1121.17 -374.99 1101.74 -379 1080 C-379.17 1079.06 -379.35 1078.12 -379.53 1077.15 C-383.42 1051.23 -378.74 1024.35 -363.11 1003.09 C-340.9 974.3 -304.56 957.09 -269 952 C-266.86 951.91 -264.72 951.87 -262.58 951.87 C-260.79 951.87 -260.79 951.87 -258.97 951.86 C-257.74 951.87 -256.52 951.87 -255.25 951.88 C-253.38 951.87 -253.38 951.87 -251.48 951.86 C-250.3 951.86 -249.11 951.87 -247.89 951.87 C-246.81 951.87 -245.73 951.87 -244.61 951.87 C-242 952 -242 952 -240 953 C-239.94 952.16 -239.94 952.16 -239.87 951.31 C-239.22 943.74 -237.86 936.37 -236.41 928.91 C-236.15 927.55 -235.88 926.18 -235.62 924.81 C-234.92 921.17 -234.21 917.53 -233.5 913.88 C-233.06 911.61 -232.62 909.34 -232.18 907.07 C-227.44 882.73 -222.3 858.51 -216.56 834.38 C-215.62 830.41 -214.7 826.44 -213.78 822.47 C-212.15 815.48 -210.51 808.5 -208.84 801.51 C-208.31 799.29 -207.78 797.07 -207.25 794.85 C-204.76 784.3 -201.94 774.11 -198 764 C-198.48 763.66 -198.95 763.32 -199.45 762.97 C-248.2 728.03 -272.09 691.15 -282.53 630.96 C-283.5 624.99 -284.35 619.01 -285 613 C-285.09 612.14 -285.19 611.29 -285.29 610.41 C-286.2 600.95 -286.24 591.49 -286.25 582 C-286.25 581.13 -286.25 580.25 -286.26 579.35 C-286.27 564.53 -285.33 550.08 -283.28 535.39 C-282.92 532.74 -282.92 532.74 -283 529 C-283.7 529.89 -284.4 530.79 -285.12 531.71 C-287.09 534.22 -289.06 536.72 -291.03 539.22 C-292.84 541.52 -294.65 543.84 -296.44 546.16 C-297.49 547.5 -297.49 547.5 -298.56 548.88 C-299.18 549.68 -299.8 550.48 -300.44 551.3 C-300.96 551.86 -301.47 552.42 -302 553 C-302.66 553 -303.32 553 -304 553 C-305.29 551.48 -305.29 551.48 -306.76 549.34 C-307.3 548.55 -307.84 547.77 -308.39 546.96 C-309.25 545.68 -309.25 545.68 -310.12 544.38 C-311 543.07 -311 543.07 -311.89 541.74 C-313.61 539.17 -315.31 536.59 -317 534 C-317.44 533.34 -317.88 532.68 -318.33 532 C-336.89 503.7 -333.21 460.88 -326.88 429.19 C-323.21 411.89 -317.45 395.03 -310 379 C-310.53 379.41 -311.06 379.82 -311.61 380.24 C-312.32 380.78 -313.02 381.32 -313.75 381.88 C-314.45 382.41 -315.14 382.94 -315.86 383.49 C-320.87 387.02 -324.92 387.86 -331 387 C-335.53 384.73 -337.72 382.46 -340 378 C-343.06 362.94 -333.52 346.07 -327 333 C-327.5 332.54 -327.99 332.08 -328.5 331.6 C-349.9 311.06 -362.51 276.99 -363.2 247.61 C-363.22 245.18 -363.24 242.75 -363.25 240.31 C-363.27 239.11 -363.29 237.91 -363.31 236.67 C-363.38 222.09 -360.01 208.08 -349.88 197.12 C-341.96 189.81 -332.66 185.99 -322 185 C-321.2 184.92 -320.4 184.84 -319.57 184.75 C-294.73 183.51 -266.11 196.02 -247.37 211.73 C-245.07 213.29 -245.07 213.29 -242.58 212.46 C-239.57 210.76 -236.69 208.93 -233.81 207 C-220.45 198.23 -205.19 188.38 -189.95 183.32 C-186.92 181.27 -186.58 178.74 -185.52 175.29 C-185.2 174.28 -185.2 174.28 -184.87 173.24 C-184.41 171.79 -183.96 170.34 -183.51 168.89 C-182.34 165.1 -181.11 161.33 -179.88 157.56 C-179.63 156.81 -179.39 156.07 -179.14 155.3 C-173.56 138.49 -166.03 118.37 -150.07 108.85 C-146.15 107.24 -142.14 107.21 -138 108 C-135.13 110.11 -133.59 112.83 -132 116 C-131.56 114.9 -131.56 114.9 -131.12 113.78 C-112.16 66.18 -112.16 66.18 -99 57 C-95.26 55.75 -91.88 55.36 -88 56 C-82.03 59.72 -79.88 64.23 -78.31 70.94 C-78.21 71.62 -78.11 72.3 -78 73 C-75.93 68.96 -73.93 64.93 -72.18 60.74 C-61.44 35.11 -61.44 35.11 -50.98 29.67 C-46.53 28.17 -42.8 28.41 -38.31 29.88 C-32.24 35.46 -30.03 44.24 -28 52 C-26.1 49.14 -25.05 46.71 -23.86 43.51 C-23.45 42.42 -23.05 41.33 -22.62 40.2 C-22.19 39.04 -21.76 37.88 -21.31 36.69 C-10.88 9.33 -10.88 9.33 0 0 Z M1 13 C-2.26 16.75 -4.46 20.6 -6.44 25.12 C-6.93 26.24 -6.93 26.24 -7.43 27.37 C-11.83 37.57 -15.56 48.06 -19.34 58.5 C-22.25 66.49 -25.3 74.33 -29 82 C-31.77 79.23 -32.17 76.06 -33.06 72.36 C-33.34 71.22 -33.34 71.22 -33.63 70.06 C-34.45 66.81 -35.24 63.55 -36.04 60.3 C-36.62 57.92 -37.22 55.55 -37.81 53.17 C-37.98 52.44 -38.16 51.72 -38.34 50.96 C-39.42 46.66 -40.75 42.87 -43 39 C-43.66 38.67 -44.32 38.34 -45 38 C-53.25 42.02 -57.01 50.65 -60.73 58.62 C-61.07 59.35 -61.42 60.09 -61.77 60.84 C-65.49 68.91 -68.78 77.14 -72.01 85.41 C-73.02 87.99 -74.04 90.57 -75.06 93.15 C-75.71 94.79 -76.35 96.44 -77 98.09 C-77.3 98.86 -77.61 99.62 -77.92 100.42 C-79.46 104.1 -79.46 104.1 -80 108 C-80.66 108 -81.32 108 -82 108 C-82.17 106.19 -82.17 106.19 -82.35 104.35 C-83.06 97.97 -84.22 91.68 -85.38 85.38 C-85.69 83.59 -85.69 83.59 -86.01 81.77 C-87.1 75.8 -88.27 70.44 -91 65 C-97.26 66.52 -100.74 71.42 -104.03 76.64 C-114.88 94.89 -121.55 115.45 -128.62 135.38 C-128.9 136.13 -129.17 136.89 -129.44 137.67 C-130.21 139.83 -130.97 141.99 -131.73 144.15 C-131.96 144.8 -132.19 145.45 -132.43 146.11 C-133.39 148.89 -134 151.03 -134 154 C-134.66 154 -135.32 154 -136 154 C-136.08 153.44 -136.15 152.88 -136.23 152.31 C-137.79 140.78 -139.54 129.37 -142 118 C-142.99 117.67 -143.98 117.34 -145 117 C-167.3 129.99 -174.77 169.86 -180.9 193.06 C-188.23 217.23 -188.23 217.23 -191 242 C-187.52 240.37 -184.41 238.34 -181.19 236.25 C-158.63 222.12 -132.43 219.64 -106.71 225.48 C-84.27 231.16 -62.91 240.15 -42.53 251.01 C-22.36 261.72 -2.65 268.78 20.48 262.71 C30.84 259.4 40.38 253.74 49.96 248.68 C69.9 238.15 90.85 229.63 113 225 C113.84 224.82 114.69 224.64 115.56 224.45 C138.1 219.94 162.78 222.58 182.43 235.13 C184.5 236.51 186.55 237.92 188.57 239.36 C190.97 241.14 190.97 241.14 194 242 C193.34 234.7 191.99 227.7 190.38 220.56 C190.11 219.38 189.84 218.2 189.57 216.99 C179.04 162.89 179.04 162.89 150 118 C147.92 117.37 147.92 117.37 146 117 C143.34 124.22 141.95 131.28 140.81 138.88 C140.55 140.56 140.55 140.56 140.28 142.29 C139.33 148.12 139.33 148.12 139 154 C138.34 154 137.68 154 137 154 C136.85 153.39 136.69 152.79 136.54 152.16 C134.29 143.58 131.45 135.23 128.5 126.88 C128.11 125.76 128.11 125.76 127.71 124.63 C117.37 91.13 117.37 91.13 96 65 C94.51 65.5 94.51 65.5 93 66 C91.89 68.59 91.89 68.59 91.12 71.94 C90.96 72.57 90.8 73.2 90.64 73.86 C87.95 84.79 86.04 95.93 84 107 C79.99 99.54 76.91 91.82 73.95 83.91 C69.59 72.29 65.14 60.82 59 50 C58.2 48.59 58.2 48.59 57.39 47.16 C54.56 42.54 52.29 39.89 47 38 C43.96 41.44 42.83 45.16 41.62 49.5 C41.31 50.6 41.31 50.6 40.99 51.72 C39.04 58.59 37.33 65.53 35.7 72.49 C35.51 73.29 35.31 74.1 35.11 74.93 C34.95 75.64 34.78 76.36 34.61 77.09 C34 79 34 79 32 82 C27.45 72.26 23.57 62.31 19.84 52.24 C14.45 37.6 14.45 37.6 8.5 23.19 C8.2 22.48 7.9 21.77 7.59 21.04 C5.95 17.39 4.48 15.05 1 13 Z M193 190 C193.7 197.49 195.52 204.64 197.31 211.94 C199.98 222.93 202.16 233.87 203.58 245.11 C204.36 250.77 205.36 254.41 209 259 C228.74 288.48 242.72 326.16 236.1 361.99 C227.46 403.88 198.81 445.01 166 472 C165.04 472.83 164.07 473.66 163.08 474.51 C162.29 475.19 162.29 475.19 161.47 475.89 C160.36 476.84 159.25 477.8 158.15 478.76 C155.35 481.17 152.6 483.31 149.41 485.19 C143.91 488.56 140.16 491.29 138.47 497.77 C137.56 502.31 136.97 506.88 136.38 511.47 C133.91 527.91 124.57 545.63 115 559 C114.27 560.02 113.55 561.04 112.8 562.09 C106.18 571.16 98.39 580.74 89 587 C89.14 588.52 89.29 590.04 89.44 591.56 C89.52 592.41 89.6 593.26 89.68 594.13 C89.79 595.08 89.89 596.02 90 597 C90.09 598.74 90.09 598.74 90.19 600.52 C91.23 605.01 92.95 606.3 96.5 609.19 C109.32 620.19 119.88 635.93 122 653 C123.66 675.16 118.63 692.91 104 710 C103.36 710.83 102.72 711.66 102.06 712.52 C82.91 735.55 48.37 746.39 19.73 749.53 C-19.28 753.09 -61.05 745.25 -91.81 719.69 C-100.41 712.23 -107.27 704.07 -112.44 693.94 C-112.76 693.31 -113.07 692.69 -113.4 692.05 C-117.79 682.89 -119.55 673.8 -119.44 663.69 C-119.43 662.68 -119.42 661.68 -119.41 660.65 C-118.98 641.58 -110.41 625.32 -97 612 C-95.33 610.71 -93.64 609.44 -91.94 608.19 C-87.68 604.41 -85.77 600.17 -84.94 594.62 C-84.86 589.62 -86.5 586.94 -89.78 583.23 C-93.92 579.03 -98.3 575.11 -102.68 571.17 C-121.18 553.86 -134.88 521.66 -136.18 496.43 C-137.26 491.92 -139.61 490.28 -143.25 487.75 C-144.54 486.8 -145.83 485.84 -147.11 484.88 C-148.09 484.16 -148.09 484.16 -149.09 483.43 C-189.49 453.22 -227.06 406.12 -234.53 354.88 C-237.96 326.54 -227.55 290.78 -212 267 C-210.42 265.03 -208.81 263.07 -207.19 261.12 C-202.26 254.75 -201.43 248.54 -200.42 240.79 C-199.53 234.92 -198.23 229.12 -197 223.31 C-196.75 222.11 -196.5 220.92 -196.24 219.68 C-194.53 211.45 -192.77 203.22 -191 195 C-196.23 196.67 -200.85 198.82 -205.69 201.38 C-206.93 202.03 -206.93 202.03 -208.2 202.7 C-226.74 212.67 -244.7 224.54 -260.79 238.13 C-262.51 239.59 -264.31 240.97 -266.12 242.31 C-270.74 246.63 -274.51 251.74 -278 257 C-278 257.66 -278 258.32 -278 259 C-270.88 258.07 -264.12 256.53 -257.25 254.5 C-248.89 252.05 -240.66 250.79 -232 250 C-232.5 250.34 -233 250.67 -233.52 251.02 C-248.96 261.39 -263.56 272.12 -277 285 C-277.53 285.5 -278.06 286.01 -278.61 286.52 C-286.37 293.92 -293.31 301.66 -299.71 310.26 C-300.55 311.4 -301.4 312.52 -302.25 313.64 C-312.31 326.84 -321.08 341.3 -327.19 356.75 C-327.47 357.45 -327.75 358.15 -328.03 358.88 C-329.83 363.72 -331.2 368.8 -331 374 C-330.34 374.99 -329.68 375.98 -329 377 C-322.87 376.62 -319.72 374.79 -315 371 C-290.25 352 -290.25 352 -280 352 C-280.62 352.76 -281.23 353.53 -281.87 354.32 C-308.7 388.02 -321.21 429.6 -321.25 472.44 C-321.25 473.14 -321.25 473.84 -321.25 474.56 C-321.24 486.24 -320.58 497.58 -318 509 C-317.76 510.1 -317.51 511.21 -317.26 512.35 C-315.52 518.63 -312.47 523.83 -308.94 529.25 C-308.5 529.92 -308.07 530.59 -307.62 531.28 C-306.5 532.91 -305.26 534.47 -304 536 C-300.93 536.35 -300.93 536.35 -299.16 534.19 C-295.14 529.15 -291.33 524.07 -287.69 518.75 C-273.3 497.77 -273.3 497.77 -265 495 C-265.16 495.62 -265.32 496.24 -265.49 496.88 C-279.82 552.82 -281.69 611.49 -264 667 C-263.75 667.8 -263.49 668.61 -263.23 669.44 C-251.77 704.75 -230.99 728.88 -201 750 C-199.56 751.01 -198.13 752.03 -196.69 753.04 C-194.59 754.53 -192.49 756.01 -190.38 757.49 C-186.82 759.99 -183.29 762.51 -179.78 765.08 C-162.71 777.57 -145.14 789.21 -127.03 800.13 C-110.64 810.01 -94.43 820.67 -80.41 833.77 C-78.39 835.64 -76.34 837.44 -74.25 839.23 C-69.8 843.12 -65.61 847.25 -61.44 851.44 C-60.72 852.15 -60.01 852.86 -59.27 853.6 C-27.1 885.82 -6.76 933.5 5 977 C7.67 974.33 8.07 971.42 9 967.88 C16.1 942.49 28.81 918.35 40.41 894.78 C41.28 892.99 42.15 891.21 43.02 889.42 C56.54 862.23 85.99 834.89 111 818 C112.23 817.15 113.46 816.29 114.69 815.44 C125.39 808.12 136.47 801.35 147.46 794.46 C158.08 787.79 168.64 781.07 179 774 C179.84 773.43 180.68 772.86 181.55 772.27 C195.7 762.6 209.51 752.57 223 742 C223.75 741.41 224.51 740.82 225.29 740.21 C237.34 730.76 248.88 721.2 257 708 C257.34 707.45 257.68 706.9 258.04 706.33 C292.38 650.27 295.3 573.65 280.41 511.16 C279 505.42 277.53 499.71 276 494 C285.89 501.44 293.11 509.34 299.84 519.71 C302.3 523.46 304.88 527.11 307.5 530.75 C307.95 531.37 308.39 531.99 308.85 532.63 C309.9 534.09 310.95 535.54 312 537 C315.15 535.66 316.68 534.46 318.47 531.55 C318.9 530.87 319.32 530.18 319.76 529.48 C320.19 528.76 320.62 528.05 321.06 527.31 C321.5 526.62 321.93 525.92 322.38 525.21 C326.63 518.28 329.41 511.66 330.62 503.62 C330.75 502.81 330.87 502 331 501.16 C337.9 451.77 327.15 399.22 297 359 C296.06 357.87 295.11 356.74 294.14 355.62 C292 353 292 353 292 351 C303.79 356.26 314.41 363 325.04 370.27 C326.11 371 327.18 371.72 328.29 372.46 C329.25 373.12 330.2 373.78 331.19 374.45 C334.21 376.11 336.58 376.73 340 377 C341.6 375.4 341.36 373.85 341.5 371.62 C341.08 339.04 308.95 304.81 287.41 283.42 C276.57 272.92 264.62 264.22 252 256.02 C251.27 255.54 250.53 255.06 249.77 254.57 C248.79 253.93 248.79 253.93 247.79 253.28 C245.99 252 244.51 250.6 243 249 C243.66 249.33 244.32 249.66 245 250 C247.06 250.31 249.13 250.58 251.2 250.84 C258.87 251.89 266.26 253.66 273.75 255.62 C276.22 256.26 278.7 256.9 281.17 257.54 C282.78 257.96 282.78 257.96 284.42 258.39 C286.88 259.08 286.88 259.08 289 259 C282.99 236.48 247.14 218.84 228.95 208.17 C211.66 196.49 211.66 196.49 193 190 Z M-344 205 C-355.16 219.66 -355.35 238.11 -353.05 255.69 C-349.46 279.96 -340.47 307.03 -322 324 C-321.34 324 -320.68 324 -320 324 C-318.62 321.9 -318.62 321.9 -318 319 C-319.06 316.36 -320.16 314.13 -321.56 311.69 C-325.84 303.69 -328.72 295.76 -331 287 C-331.32 285.8 -331.64 284.6 -331.97 283.36 C-335.12 269.88 -336.31 254.05 -331 241 C-330.66 240.13 -330.32 239.26 -329.97 238.37 C-326.42 230.34 -321.27 225.17 -313.25 221.56 C-299.09 217.09 -284.82 219.91 -271.16 224.59 C-266.67 226.24 -266.67 226.24 -262 227 C-259.46 225.61 -259.46 225.61 -257.19 223.56 C-256 222.57 -256 222.57 -254.79 221.57 C-254.2 221.05 -253.61 220.53 -253 220 C-256.92 215.68 -261.03 212.92 -266.12 210.12 C-266.91 209.69 -267.69 209.26 -268.5 208.82 C-289.77 197.45 -324.04 184.61 -344 205 Z M260 216 C264.96 221.25 264.96 221.25 271 225 C273.81 224.61 276.33 223.89 279.02 222.99 C286.19 220.6 292.42 219.66 299.94 219.69 C300.78 219.67 301.62 219.66 302.49 219.64 C312.84 219.63 320.53 222.84 328 230 C336.11 238.83 337.69 253.64 337.32 265.1 C336.24 278.32 333.26 290.41 328.76 302.86 C327.45 306.55 326.23 310.28 325 314 C326.65 315.65 328.3 317.3 330 319 C348.42 296.67 358.84 262.89 357 234 C355.95 224.68 354.04 216.05 349 208 C348.44 207.09 347.89 206.19 347.31 205.25 C338.76 196.92 329.08 194.58 317.47 194.64 C296.89 195.25 276.78 204.57 260 216 Z M-317.94 235.56 C-326.75 247.24 -326.43 261.52 -324.69 275.52 C-322.75 287.59 -318.61 299.15 -313 310 C-309.7 308.61 -308.08 307.14 -306 304.25 C-297.53 293 -288.08 282.81 -278 273 C-276.35 271.35 -274.7 269.7 -273 268 C-282.9 268.5 -282.9 268.5 -293 269 C-282.88 246.73 -282.88 246.73 -274.06 238.06 C-273.04 237.04 -273.04 237.04 -272 236 C-272 235.34 -272 234.68 -272 234 C-286.49 228.33 -305.47 222.59 -317.94 235.56 Z M280 233 C280.97 233.74 281.94 234.49 282.94 235.25 C293.31 244.27 298.54 255.7 304 268 C297.73 268 291.46 268 285 268 C290.1 273.95 290.1 273.95 295.5 279.52 C296.3 280.32 297.11 281.11 297.94 281.93 C299.6 283.55 301.26 285.18 302.92 286.8 C308.09 291.89 312.71 297.15 317 303 C317.99 302.67 318.98 302.34 320 302 C327.44 285.45 332.55 261.48 325.91 243.9 C322.85 237.51 318.9 233 312.56 229.75 C303.55 227.11 287.24 225.76 280 233 Z M-167.62 238.69 C-168.35 239.03 -169.07 239.38 -169.82 239.74 C-175.9 242.75 -180.96 246.45 -186 251 C-187 251.79 -187 251.79 -188.03 252.6 C-211.74 271.67 -221.98 306.08 -226 335 C-229.89 372.87 -207.02 409.33 -184.16 437.52 C-173.13 450.87 -160.8 463.51 -147 474 C-146.22 474.62 -145.43 475.23 -144.62 475.87 C-141.18 478.9 -141.18 478.9 -137 480 C-136.82 478.57 -136.82 478.57 -136.63 477.11 C-135.63 469.36 -134.5 461.67 -133 454 C-134.02 453.27 -134.02 453.27 -135.05 452.53 C-165.57 430.55 -187.8 405.75 -194.23 367.54 C-197.77 342.9 -193.6 317.67 -178.97 297.15 C-165.13 279.44 -145.47 270.03 -123.39 267.31 C-90.47 264.28 -56.68 275.76 -28 291 C-13 298.73 0.78 301.97 17.19 296.94 C24.1 294.59 30.5 291.39 36.97 288.05 C68.95 271.63 109.2 260.09 144.62 271.19 C157.66 275.88 167.38 282.26 177 292 C177.59 292.58 178.19 293.17 178.8 293.77 C193.76 309.7 198.76 333.32 198.25 354.47 C196.95 384.3 184.25 412.07 163 433 C155.73 439.48 147.82 445.21 140 451 C138.67 452 137.33 453 136 454 C136.52 457.98 137.17 461.88 138 465.81 C139.04 470.85 139.59 475.88 140 481 C144.34 478.21 148.33 475.18 152.25 471.81 C153.1 471.09 153.1 471.09 153.97 470.35 C167.05 459.12 179.37 447.61 190 434 C190.79 433.03 191.58 432.06 192.39 431.05 C212.78 405.47 232.15 370.76 229 337 C224.67 306.99 215.46 278.12 194 256 C193.07 254.96 193.07 254.96 192.11 253.89 C181.11 241.99 163.33 232.99 147.06 231.78 C111.57 230.48 78.48 242.07 47.88 259.69 C28.27 270.97 5.12 277.07 -17.31 271.44 C-28.72 268.3 -39.12 263.15 -49.31 257.25 C-66.57 247.34 -85.83 240.25 -105 235 C-106.17 234.66 -107.34 234.32 -108.55 233.98 C-116.9 231.92 -125.11 231.7 -133.69 231.62 C-134.82 231.61 -135.94 231.6 -137.11 231.58 C-148.03 231.64 -157.81 233.93 -167.62 238.69 Z M-168.88 298.94 C-184.68 317.59 -187.04 339.38 -186 363 C-184.06 385.59 -173.07 405.63 -158 422 C-157.22 422.86 -156.44 423.72 -155.64 424.61 C-150.7 429.81 -145.32 434.24 -139.62 438.56 C-138.93 439.09 -138.24 439.61 -137.53 440.15 C-136.87 440.64 -136.22 441.13 -135.54 441.63 C-134.95 442.06 -134.37 442.5 -133.76 442.94 C-131.86 444.09 -130.17 444.57 -128 445 C-127.45 443.97 -126.91 442.95 -126.35 441.89 C-121.64 433.18 -116.72 425.34 -110 418 C-109.16 417.06 -108.31 416.13 -107.45 415.16 C-94.83 401.82 -78.48 393.19 -60 392 C-50.99 391.92 -43.03 393.22 -34.51 396.16 C-32.13 397.11 -32.13 397.11 -30 397 C-30.02 396.42 -30.05 395.83 -30.07 395.23 C-30.37 381.82 -27.97 368.61 -19.25 358 C-13.59 352.19 -8.15 349.85 -0.06 349.44 C8.02 349.76 14.2 352.77 19.81 358.56 C25.4 365.49 28.9 374.66 29.32 383.55 C29.36 384.39 29.4 385.24 29.44 386.11 C29.48 386.98 29.52 387.85 29.56 388.75 C29.61 389.64 29.65 390.53 29.69 391.44 C29.8 393.63 29.9 395.81 30 398 C30.94 397.71 30.94 397.71 31.91 397.41 C34.6 396.59 37.3 395.8 40 395 C41.86 394.44 41.86 394.44 43.75 393.88 C61.5 389.67 79.18 392.87 94.69 402.25 C100.27 406 105.21 410.29 110 415 C110.75 415.74 111.5 416.47 112.27 417.23 C119.9 425.21 126.3 434.99 131 445 C151.07 438.16 169.45 414.54 178.7 396.73 C189.32 374.62 193.55 347.76 185.74 324.01 C178.96 305.49 167.26 290.77 149.12 282.28 C118.39 269.67 84.34 277 54.65 289.3 C47.52 292.36 40.58 295.69 33.69 299.25 C17.99 307.27 2.25 311.28 -15.06 306 C-21.25 303.94 -27.02 301.16 -32.79 298.16 C-73.96 276.8 -132.55 260.37 -168.88 298.94 Z M-11.69 363.12 C-20.2 373.71 -21.96 384.75 -20.72 398.04 C-20.46 400.25 -20.2 402.46 -19.93 404.66 C-15.31 443.05 -19.7 480.29 -26.64 518.04 C-27.19 521.06 -27.74 524.08 -28.28 527.1 C-29.17 532.07 -30.08 537.04 -31 542 C-26.1 541.53 -21.2 541.04 -16.32 540.43 C-0.59 538.55 14.43 538.92 30 542 C29.51 532.07 27.5 522.4 25.68 512.65 C18.74 475.28 15.7 439.15 20.34 401.29 C21.88 387.97 21.07 376.64 13.67 365.1 C10.46 361.07 6.95 359.62 2.06 358.06 C-3.39 357.95 -7.45 359.77 -11.69 363.12 Z M-62 401 C-60.73 405.2 -59.08 409 -57.13 412.91 C-47.66 431.98 -40.92 452.05 -35.47 472.6 C-34.18 477.47 -32.66 482.24 -31 487 C-30.67 487 -30.34 487 -30 487 C-27.43 470.96 -26.71 455.22 -26.75 439 C-26.75 438.08 -26.75 437.17 -26.75 436.22 C-26.77 430.48 -26.84 424.74 -27 419 C-27.03 417.89 -27.06 416.78 -27.09 415.63 C-27.28 410.86 -27.28 410.86 -29.83 407.04 C-30.63 406.71 -31.43 406.39 -32.25 406.06 C-33.15 405.7 -34.06 405.34 -34.99 404.96 C-44.08 402.06 -52.44 400.48 -62 401 Z M28 410 C27.03 415.76 26.82 421.45 26.76 427.28 C26.75 428.16 26.74 429.04 26.73 429.95 C26.71 432.8 26.7 435.65 26.69 438.5 C26.68 439.47 26.68 440.44 26.68 441.44 C26.66 454.63 27.17 467.6 28.88 480.69 C28.96 481.37 29.05 482.06 29.14 482.76 C29.85 488.42 29.85 488.42 31 494 C31.66 494.33 32.32 494.66 33 495 C33.18 494.1 33.18 494.1 33.36 493.18 C39.51 462.96 49.61 434.24 62.88 406.43 C64.08 403.94 64.08 403.94 65 401 C53.89 400.26 36.4 401.71 28 410 Z M75 403 C53.46 432.52 33.24 491.97 37.3 528.72 C37.76 531.26 38.32 533.75 38.94 536.25 C39.13 537.1 39.33 537.95 39.53 538.83 C40 540.89 40.5 542.95 41 545 C42.32 545.33 43.64 545.66 45 546 C45.18 545.29 45.35 544.57 45.53 543.84 C56.56 499.32 74.64 459.35 107 426 C100.63 414.16 87.75 408.25 76 403 C75.67 403 75.34 403 75 403 Z M-100 420 C-101.36 421.64 -102.7 423.3 -104 425 C-101.01 429.16 -97.93 433.13 -94.44 436.88 C-80.1 452.8 -69.01 471.64 -60 491 C-59.67 491.72 -59.33 492.43 -58.99 493.17 C-51.2 510.13 -46.43 527.92 -42 546 C-31.4 526.42 -35.68 504.32 -41 484 C-41.29 482.87 -41.57 481.73 -41.86 480.57 C-48.73 453.5 -58.2 427.32 -72 403 C-81.02 403 -94 414.16 -100 420 Z M-111 433 C-112.72 435.51 -114.28 438 -115.81 440.62 C-116.26 441.39 -116.71 442.16 -117.17 442.95 C-124.63 455.8 -124.63 455.8 -126 470 C-123.81 472.88 -121.21 475.25 -118.56 477.69 C-117.08 479.11 -115.6 480.54 -114.12 481.98 C-113.4 482.67 -112.69 483.36 -111.95 484.07 C-107.9 488.08 -104.43 492.47 -101 497 C-100.38 497.8 -100.38 497.8 -99.74 498.62 C-85.42 517.04 -73.9 538.04 -66 560 C-60.91 557.14 -55.94 554.12 -51 551 C-51.49 543.99 -52.67 537.45 -54.56 530.69 C-54.82 529.74 -55.09 528.8 -55.36 527.82 C-59.93 511.84 -66.1 496.62 -74 482 C-74.48 481.1 -74.48 481.1 -74.97 480.19 C-79.94 470.92 -85.7 462.41 -92 454 C-92.65 453.13 -92.65 453.13 -93.31 452.25 C-100.63 442.16 -100.63 442.16 -109 433 C-109.66 433 -110.32 433 -111 433 Z M112 433 C99.56 445.76 88.71 460.45 80 476 C79.59 476.73 79.17 477.46 78.75 478.21 C59.14 512.91 59.14 512.91 54 551 C56.51 553.47 56.51 553.47 59.81 555.38 C60.89 556.06 61.97 556.75 63.08 557.46 C65.89 559.23 65.89 559.23 69 559 C69.28 558.34 69.55 557.68 69.84 557.01 C81.41 529.57 95.46 505.87 115.56 483.81 C116.02 483.31 116.48 482.8 116.96 482.28 C119.74 479.25 122.67 476.52 125.75 473.81 C127.74 471.83 128.85 470.69 129.44 467.93 C128.73 455.86 120.61 441.13 112 433 Z M-128 481 C-129.53 513.66 -114.23 544.93 -92.89 568.91 C-89.52 572.58 -85.93 575.93 -82 579 C-81.44 578.3 -80.89 577.6 -80.31 576.88 C-78 574 -78 574 -76.59 572.54 C-74.95 570.88 -74.95 570.88 -73 568 C-73.33 563.79 -74.54 560.29 -76.22 556.44 C-76.67 555.4 -77.13 554.36 -77.59 553.29 C-78.08 552.21 -78.56 551.12 -79.06 550 C-79.56 548.88 -80.06 547.75 -80.58 546.6 C-89.34 527.15 -100.88 509.94 -115 494 C-115.84 493.04 -116.68 492.07 -117.55 491.08 C-122.38 485.61 -122.38 485.61 -128 481 Z M122.99 487.75 C117.11 493.76 112.02 500.27 107 507 C106.57 507.56 106.15 508.12 105.71 508.69 C96.09 521.37 88.62 535.11 82 549.56 C81.63 550.37 81.25 551.18 80.87 552.01 C77.39 559.73 77.39 559.73 76 568 C77.42 571.37 77.42 571.37 79.88 574.06 C80.64 575 81.4 575.94 82.18 576.91 C82.78 577.6 83.38 578.29 84 579 C109.17 558.41 126.43 528.9 130.69 496.38 C131.16 491.26 131.09 486.13 131 481 C128.4 481 124.84 485.91 122.99 487.75 Z M-65 572 C-74.66 582.98 -79.18 594.11 -78.48 608.65 C-77.67 618.1 -73.19 626 -67 633 C-66.38 633.73 -65.75 634.46 -65.11 635.21 C-50.28 651.33 -26.7 658.65 -5.31 659.81 C19.7 660.79 45.12 655.29 64.65 638.76 C73.48 630.46 80.25 620.52 81.34 608.2 C81.49 592.88 77.01 582.18 66.44 570.94 C47.59 552.79 21.6 547.46 -3.76 547.79 C-26.04 548.44 -48.89 556.29 -65 572 Z M-92.12 619.81 C-103.63 631.5 -110.84 646.87 -111.31 663.31 C-110.9 681.97 -102.17 697.35 -89 710 C-88.33 710.66 -87.66 711.33 -86.98 712.01 C-60.38 736.98 -21.41 741.92 13.27 741.13 C38.61 740.24 66.44 731.39 86 715 C86.86 714.29 87.72 713.58 88.6 712.85 C101.97 701.34 112.32 686.4 113.75 668.38 C114.81 649.76 107.99 634.48 95.93 620.62 C93.58 618.18 93.58 618.18 91 616 C90.34 616 89.68 616 89 616 C88.56 617.14 88.56 617.14 88.12 618.31 C85.41 625.14 82.44 631.14 78 637 C77.52 637.65 77.05 638.31 76.55 638.98 C67.5 650.38 54.35 656.99 41 662 C39.94 662.4 38.89 662.8 37.8 663.21 C28.11 666.51 18.11 667.62 8 669 C7.67 680.88 7.34 692.76 7 705 C22.56 705 38.86 699.02 50.16 688.09 C55.23 682.32 57.48 676.51 58.64 668.97 C59 667 59 667 60 666 C62.5 665.88 62.5 665.88 65 666 C66.59 667.59 66.25 669.23 66.31 671.44 C66.14 681.26 62.04 687.79 55.35 694.75 C44.82 704.84 32.2 710.12 18 713 C17.34 713.13 16.69 713.27 16.01 713.41 C-5.63 717.56 -28.81 712.24 -47 700 C-54.93 694.61 -60.49 686.23 -63 677 C-63.23 674.26 -63.23 674.26 -63.19 671.69 C-63.18 670.83 -63.17 669.96 -63.17 669.07 C-63 667 -63 667 -62 666 C-60.33 665.96 -58.67 665.96 -57 666 C-56.74 667.04 -56.49 668.08 -56.22 669.15 C-53.1 680.88 -48.58 688.73 -38 695.38 C-36.35 696.28 -34.68 697.15 -33 698 C-32.28 698.38 -31.56 698.76 -30.82 699.14 C-21.51 703.69 -12.3 705 -2 705 C-2 693.12 -2 681.24 -2 669 C-5.47 668.61 -8.93 668.22 -12.5 667.81 C-36.59 664.78 -59.34 655.71 -75.7 637.08 C-79.65 631.78 -82.3 626.02 -85 620 C-85.66 618.66 -86.32 617.33 -87 616 C-89.06 616 -90.77 618.5 -92.12 619.81 Z M-189 770 C-192.75 776.69 -194.58 783.33 -196.34 790.77 C-196.78 792.62 -196.78 792.62 -197.24 794.5 C-198.17 798.33 -199.09 802.17 -200 806 C-200.55 808.29 -201.11 810.57 -201.67 812.86 C-203.35 819.79 -204.99 826.74 -206.62 833.69 C-206.92 834.94 -207.21 836.2 -207.52 837.49 C-212.44 858.5 -216.9 879.59 -221.12 900.75 C-221.26 901.43 -221.4 902.11 -221.54 902.81 C-225.01 920.16 -228.22 937.53 -231 955 C-229.28 955.83 -229.28 955.83 -227.53 956.67 C-220.18 960.23 -213.26 963.69 -207 969 C-206.19 969.62 -205.37 970.23 -204.54 970.87 C-191.41 981.91 -184.16 1001.36 -182 1018 C-180.77 1034.66 -183.04 1049.14 -188 1065 C-194.01 1084.53 -193.76 1099.55 -185.88 1118.56 C-185.39 1119.77 -184.9 1120.98 -184.4 1122.22 C-182.94 1125.82 -181.47 1129.41 -180 1133 C-178.8 1135.96 -177.61 1138.93 -176.42 1141.9 C-175.74 1143.59 -175.06 1145.27 -174.37 1146.96 C-174.07 1147.7 -173.77 1148.45 -173.46 1149.22 C-173.2 1149.86 -172.94 1150.5 -172.67 1151.15 C-171.97 1153.08 -171.46 1155 -171 1157 C-167.73 1155.91 -167.25 1155.34 -165.19 1152.75 C-155.04 1140.86 -142.94 1131.62 -130 1123 C-131.48 1113.34 -134.03 1104 -136.6 1094.59 C-137.07 1092.85 -137.54 1091.11 -138.01 1089.38 C-139.02 1085.66 -140.03 1081.94 -141.04 1078.22 C-142.65 1072.3 -144.25 1066.37 -145.85 1060.45 C-147.82 1053.2 -149.78 1045.96 -151.74 1038.72 C-155.33 1025.49 -158.9 1012.27 -162.47 999.04 C-162.73 998.07 -162.99 997.11 -163.26 996.11 C-166.08 985.66 -168.9 975.22 -171.71 964.77 C-171.96 963.86 -172.2 962.95 -172.45 962.02 C-174.44 954.61 -174.44 954.61 -175.34 951.29 C-178.02 941.34 -180.71 931.39 -183.43 921.46 C-184.72 916.75 -185.99 912.04 -187.27 907.33 C-187.83 905.26 -188.4 903.2 -188.97 901.14 C-189.73 898.42 -190.46 895.7 -191.2 892.98 C-191.41 892.21 -191.63 891.44 -191.86 890.65 C-192.67 887.57 -193.2 885.56 -192.11 882.5 C-191.75 882.01 -191.38 881.51 -191 881 C-188.69 881 -188.69 881 -186 882 C-183.79 887.15 -182.23 892.43 -180.79 897.84 C-180.59 898.59 -180.39 899.33 -180.18 900.1 C-179.51 902.57 -178.85 905.04 -178.2 907.51 C-177.72 909.28 -177.24 911.05 -176.77 912.82 C-175.48 917.59 -174.2 922.36 -172.93 927.14 C-171.58 932.16 -170.23 937.19 -168.88 942.21 C-166.94 949.44 -165 956.66 -163.06 963.89 C-159.83 975.93 -156.59 987.96 -153.34 1000 C-145.32 1029.74 -137.31 1059.48 -129.38 1089.24 C-128.64 1092.05 -127.89 1094.86 -127.14 1097.67 C-126.11 1101.5 -125.1 1105.33 -124.08 1109.16 C-123.78 1110.28 -123.48 1111.4 -123.17 1112.55 C-122.9 1113.59 -122.62 1114.62 -122.34 1115.68 C-122.1 1116.57 -121.87 1117.46 -121.62 1118.37 C-120.94 1121.23 -120.45 1124.1 -120 1127 C-120.52 1127.34 -121.04 1127.68 -121.58 1128.03 C-135.27 1136.84 -135.27 1136.84 -147 1148 C-147 1148.33 -147 1148.66 -147 1149 C-146.3 1149.05 -145.6 1149.1 -144.88 1149.15 C-143.97 1149.22 -143.06 1149.3 -142.12 1149.38 C-141.22 1149.44 -140.32 1149.51 -139.38 1149.59 C-137 1150 -137 1150 -135 1152 C-134.28 1158.11 -135.95 1160.98 -139 1166 C-138.67 1166.66 -138.34 1167.32 -138 1168 C-137.28 1167.57 -136.55 1167.13 -135.8 1166.69 C-134.35 1165.85 -134.35 1165.85 -132.88 1165 C-131.45 1164.16 -131.45 1164.16 -129.99 1163.31 C-126.73 1161.88 -124.52 1161.75 -121 1162 C-121.62 1169.41 -122.7 1176.68 -124 1184 C-120.41 1181.08 -117.02 1178.05 -113.78 1174.74 C-113.21 1174.16 -112.64 1173.58 -112.05 1172.98 C-110.9 1171.79 -109.76 1170.6 -108.62 1169.41 C-108.08 1168.85 -107.54 1168.3 -106.99 1167.73 C-106.51 1167.23 -106.03 1166.73 -105.54 1166.21 C-103.7 1164.76 -102.31 1164.32 -100 1164 C-99.34 1164.33 -98.68 1164.66 -98 1165 C-97.38 1167.7 -96.87 1170.33 -96.44 1173.06 C-96.31 1173.8 -96.19 1174.54 -96.06 1175.3 C-95.24 1180.19 -94.59 1185.08 -94 1190 C-93.34 1190 -92.68 1190 -92 1190 C-88.37 1183.07 -84.74 1176.14 -81 1169 C-75 1169 -75 1169 -72.4 1171.23 C-71.59 1172.21 -70.78 1173.18 -69.94 1174.19 C-66.74 1177.96 -63.54 1181.55 -60 1185 C-59.61 1184.15 -59.23 1183.29 -58.83 1182.41 C-58.05 1180.75 -58.05 1180.75 -57.25 1179.06 C-56.74 1177.96 -56.23 1176.86 -55.7 1175.72 C-54 1173 -54 1173 -51.94 1172 C-50 1172 -50 1172 -47.75 1173.88 C-46.82 1174.9 -45.91 1175.95 -45 1177 C-44.31 1177.77 -43.62 1178.54 -42.9 1179.34 C-40.92 1181.55 -38.96 1183.77 -37 1186 C-35 1183 -34.69 1181.97 -34.37 1178.54 C-34.28 1177.68 -34.2 1176.81 -34.11 1175.92 C-34.03 1175.02 -33.96 1174.12 -33.88 1173.19 C-33.75 1171.85 -33.75 1171.85 -33.61 1170.49 C-33.38 1167.99 -33.18 1165.5 -33 1163 C-32.9 1161.92 -32.81 1160.85 -32.71 1159.74 C-33.7 1150.32 -44.69 1140.77 -51.01 1134.17 C-51.46 1133.68 -51.91 1133.19 -52.38 1132.69 C-53.44 1131.59 -54.53 1130.51 -55.66 1129.48 C-61.86 1123.33 -63.53 1115.96 -65.62 1107.77 C-66.03 1106.22 -66.44 1104.67 -66.86 1103.13 C-67.75 1099.79 -68.63 1096.45 -69.5 1093.11 C-70.9 1087.7 -72.33 1082.31 -73.77 1076.92 C-75.82 1069.22 -77.85 1061.52 -79.88 1053.82 C-82.92 1042.27 -86.01 1030.74 -89.12 1019.21 C-89.38 1018.27 -89.63 1017.33 -89.89 1016.36 C-90.92 1012.54 -91.95 1008.71 -92.98 1004.89 C-95.59 995.23 -98.18 985.58 -100.77 975.92 C-105.22 959.33 -109.68 942.75 -114.15 926.17 C-115.89 919.73 -117.62 913.29 -119.36 906.84 C-120.74 901.7 -122.13 896.55 -123.52 891.4 C-124.81 886.61 -126.11 881.81 -127.4 877.02 C-127.87 875.27 -128.34 873.52 -128.81 871.77 C-130.05 867.19 -131.27 862.62 -132.47 858.03 C-132.82 856.69 -133.18 855.34 -133.55 854.01 C-134.04 852.19 -134.52 850.36 -134.99 848.54 C-135.26 847.53 -135.53 846.53 -135.81 845.49 C-136 843 -136 843 -134.69 841.16 C-133 840 -133 840 -130.97 839.87 C-127.8 841.69 -127.41 844.79 -126.5 848.12 C-126.29 848.83 -126.09 849.54 -125.87 850.27 C-125.23 852.51 -124.61 854.75 -124 857 C-123.8 857.73 -123.6 858.47 -123.39 859.23 C-122.22 863.47 -121.1 867.73 -120 872 C-118.9 870.89 -118.9 870.89 -117.77 869.76 C-116.11 868.11 -114.44 866.46 -112.76 864.83 C-112.08 864.17 -111.39 863.5 -110.69 862.81 C-109.99 862.14 -109.29 861.46 -108.57 860.77 C-106.78 859.15 -106.78 859.15 -107 857 C-106.42 856.75 -105.83 856.49 -105.23 856.23 C-102.74 854.86 -101.19 853.32 -99.25 851.25 C-95.46 847.35 -91.42 844.15 -87 841 C-91.31 835.61 -95.79 831.53 -101.38 827.5 C-102.19 826.9 -103.01 826.31 -103.86 825.69 C-114.22 818.25 -125.11 811.64 -136 805 C-152.27 795.05 -168.11 784.77 -183.39 773.35 C-185.95 771.04 -185.95 771.04 -189 770 Z M185.87 779.72 C184.36 780.74 182.84 781.76 181.33 782.77 C180.13 783.58 180.13 783.58 178.91 784.4 C167.36 792.17 155.79 799.88 143.94 807.19 C126.38 818.03 109.83 829.75 94 843 C97.14 846.15 100.3 849.28 103.47 852.4 C105.15 854.06 106.82 855.72 108.5 857.38 C109.34 858.2 110.18 859.02 111.05 859.88 C115.55 864.34 119.52 868.7 123 874 C125.63 871.37 125.91 869.17 126.84 865.57 C127.18 864.26 127.53 862.96 127.87 861.66 C128.41 859.61 128.94 857.56 129.47 855.51 C129.98 853.52 130.5 851.55 131.03 849.57 C131.33 848.38 131.64 847.19 131.96 845.97 C132.95 843.13 133.56 841.72 136 840 C138.19 840.31 138.19 840.31 140 841 C140.95 844.02 141.01 845.92 140.19 848.97 C139.99 849.75 139.78 850.53 139.57 851.34 C139.34 852.19 139.1 853.04 138.86 853.92 C138.62 854.83 138.38 855.73 138.13 856.67 C137.32 859.7 136.5 862.73 135.68 865.76 C135.1 867.9 134.53 870.05 133.95 872.19 C132.41 877.97 130.85 883.74 129.29 889.52 C127.66 895.56 126.04 901.6 124.41 907.64 C121.2 919.62 117.97 931.59 114.74 943.56 C113.19 949.29 111.65 955.01 110.11 960.74 C105.93 976.28 101.73 991.81 97.52 1007.34 C94.65 1017.91 91.79 1028.48 88.94 1039.05 C86.65 1047.56 84.35 1056.06 82.05 1064.57 C80.64 1069.77 79.24 1074.97 77.84 1080.17 C76.53 1085.04 75.21 1089.9 73.9 1094.77 C73.41 1096.56 72.93 1098.36 72.44 1100.16 C65.88 1124.62 65.88 1124.62 58.88 1132.19 C54.7 1136.87 50.9 1141.68 47.38 1146.88 C46.95 1147.48 46.52 1148.09 46.09 1148.71 C41.3 1155.89 41.89 1162.47 42.88 1170.62 C42.97 1171.46 43.06 1172.29 43.15 1173.15 C43.6 1177.14 44.12 1181.07 45 1185 C47.44 1182.63 49.75 1180.31 51.9 1177.66 C52.57 1176.85 53.25 1176.03 53.94 1175.19 C54.57 1174.4 55.19 1173.61 55.84 1172.79 C58 1171 58 1171 61.25 1170.74 C62.61 1170.87 62.61 1170.87 64 1171 C64.18 1171.6 64.36 1172.21 64.55 1172.83 C64.8 1173.63 65.05 1174.43 65.31 1175.25 C65.56 1176.04 65.8 1176.83 66.05 1177.64 C67.05 1180.13 68.31 1181.93 70 1184 C71.23 1182.54 71.23 1182.54 72.48 1181.04 C73.57 1179.76 74.66 1178.47 75.75 1177.19 C76.29 1176.54 76.83 1175.9 77.38 1175.24 C83.05 1168.57 83.05 1168.57 86 1167 C87.96 1167.18 87.96 1167.18 90 1168 C91.36 1169.83 91.36 1169.83 92.54 1172.18 C93.19 1173.45 93.19 1173.45 93.86 1174.74 C94.52 1176.08 94.52 1176.08 95.19 1177.44 C95.86 1178.76 95.86 1178.76 96.55 1180.12 C97.71 1182.41 98.86 1184.7 100 1187 C100.33 1187.66 100.66 1188.32 101 1189 C101.66 1189 102.32 1189 103 1189 C103.09 1188.35 103.17 1187.7 103.26 1187.03 C103.65 1184.08 104.04 1181.13 104.44 1178.19 C104.57 1177.16 104.71 1176.14 104.85 1175.08 C104.98 1174.1 105.11 1173.12 105.25 1172.11 C105.37 1171.2 105.49 1170.29 105.61 1169.36 C106 1167 106 1167 107 1164 C109.06 1163.12 109.06 1163.12 112 1163 C116.93 1165.96 120.55 1170.7 124.22 1175.03 C126.91 1178.01 129.9 1180.47 133 1183 C132.77 1181.83 132.54 1180.66 132.31 1179.46 C132.02 1177.91 131.73 1176.36 131.44 1174.81 C131.29 1174.04 131.13 1173.27 130.98 1172.48 C130.22 1168.36 129.76 1165.11 131 1161 C134 1160 134 1160 136.85 1161.25 C137.91 1161.83 138.97 1162.4 140.06 1163 C142.01 1164.06 143.99 1165.07 146 1166 C146.66 1165.67 147.32 1165.34 148 1165 C147.01 1163.55 147.01 1163.55 146 1162.06 C143.43 1157.64 143.69 1154.03 144 1149 C148.29 1148.67 152.58 1148.34 157 1148 C150.02 1138.56 139.57 1131.6 128.79 1127.13 C127 1126 127 1126 126.33 1124.19 C125.96 1121.73 126.22 1120.17 126.85 1117.76 C127.07 1116.92 127.29 1116.07 127.51 1115.2 C127.76 1114.28 128.01 1113.35 128.26 1112.4 C128.52 1111.41 128.78 1110.42 129.04 1109.4 C129.91 1106.06 130.8 1102.72 131.69 1099.38 C132.33 1096.95 132.96 1094.52 133.6 1092.1 C135.71 1084.06 137.85 1076.03 140 1068 C140.18 1067.33 140.36 1066.65 140.55 1065.96 C145.73 1046.58 150.98 1027.21 156.24 1007.85 C159.01 997.67 161.77 987.48 164.53 977.29 C167.08 967.86 169.64 958.42 172.2 948.98 C173.79 943.14 175.37 937.31 176.95 931.47 C178.44 925.95 179.94 920.43 181.44 914.91 C182 912.87 182.55 910.82 183.11 908.77 C183.87 905.95 184.64 903.13 185.41 900.3 C185.63 899.49 185.85 898.67 186.07 897.83 C187.53 892.49 189.2 887.24 191 882 C192.66 881.62 194.32 881.29 196 881 C197 882 197 882 197.22 884.9 C197.14 889.97 195.74 894.69 194.42 899.55 C194.01 901.13 194.01 901.13 193.58 902.74 C192.65 906.26 191.7 909.79 190.75 913.31 C190.24 915.21 189.74 917.11 189.23 919.01 C186.84 928.01 184.42 937 182 946 C181.62 947.41 181.24 948.81 180.86 950.22 C176.45 966.61 172.02 982.99 167.58 999.38 C162 1019.98 156.43 1040.58 150.87 1061.19 C149.46 1066.45 148.04 1071.7 146.62 1076.96 C145.28 1081.9 143.94 1086.85 142.61 1091.8 C142.12 1093.63 141.62 1095.46 141.13 1097.29 C140.44 1099.81 139.77 1102.32 139.09 1104.84 C138.89 1105.57 138.69 1106.3 138.49 1107.05 C137.34 1111.37 136.55 1115.58 136 1120 C136.68 1120.41 137.36 1120.83 138.05 1121.25 C151.69 1129.71 166.1 1140.04 173 1155 C175.6 1152.4 176.2 1150.04 177.44 1146.56 C180.73 1137.49 184.41 1128.58 188.13 1119.67 C197.12 1097.88 196.12 1082.14 189.44 1059.88 C182.15 1035.47 182.37 1012.19 194 989 C203.41 972.07 215.9 963.11 233 955 C232.46 946.13 231.15 937.57 229.45 928.86 C229.19 927.51 228.93 926.15 228.67 924.8 C227.97 921.19 227.27 917.59 226.56 913.99 C226.12 911.73 225.68 909.48 225.24 907.22 C220.62 883.5 215.58 859.9 209.98 836.39 C208.36 829.55 206.79 822.7 205.23 815.85 C204.56 812.89 203.88 809.93 203.21 806.97 C202.79 805.1 202.36 803.24 201.94 801.38 C198.94 787.88 198.94 787.88 194 775 C191.39 775 188.07 778.24 185.87 779.72 Z M253 836 C245.37 845.04 238.67 854.87 232.99 865.23 C232.3 866.46 231.57 867.66 230.81 868.83 C227.21 874.82 228.12 879.2 229.62 885.81 C230.11 888.17 230.6 890.53 231.08 892.88 C231.38 894.28 231.67 895.67 231.97 897.06 C233.24 903.07 234.4 909.09 235.57 915.12 C235.8 916.27 236.02 917.42 236.25 918.61 C236.71 920.96 237.17 923.3 237.62 925.65 C238.74 931.37 239.86 937.08 240.99 942.79 C241.19 943.82 241.39 944.85 241.6 945.91 C242.07 948.28 242.53 950.64 243 953 C245.1 952.86 247.21 952.71 249.31 952.56 C250.48 952.48 251.66 952.4 252.86 952.32 C256.03 952.11 256.03 952.11 259 951 C259.11 950.37 259.22 949.74 259.33 949.09 C265.61 913.69 277.35 876 307 853.06 C319.3 844.62 332.9 838.69 348 838 C348.65 837.95 349.31 837.9 349.98 837.84 C364.59 837.19 379.34 841.77 390.88 850.75 C397.75 857.35 402.22 865.14 406.06 873.75 C409.85 882.14 413.29 887.56 421.94 891.44 C429.74 894.17 436.51 893.44 444 890 C450.18 885.96 453.93 880.49 455.64 873.32 C457.59 858.48 448.41 842.91 439.84 831.3 C436.41 827.02 432.77 822.98 429 819 C428.01 817.93 428.01 817.93 427 816.84 C409.4 798.42 383.31 788.69 358.18 787.71 C316.47 786.79 280.65 805.22 253 836 Z M-102 866 C-105.12 869.24 -108.09 872.57 -111 876 C-111.57 876.59 -112.14 877.18 -112.73 877.79 C-114.75 880.07 -116.04 882.02 -115.91 885.12 C-114.09 894.17 -111.68 903.04 -109.26 911.94 C-108.78 913.72 -108.3 915.49 -107.82 917.27 C-106.53 922.04 -105.23 926.81 -103.93 931.59 C-102.57 936.6 -101.21 941.61 -99.86 946.63 C-97.92 953.8 -95.97 960.97 -94.03 968.14 C-90.85 979.86 -87.68 991.58 -84.52 1003.3 C-76.69 1032.37 -68.82 1061.42 -60.81 1090.44 C-60.47 1091.69 -60.12 1092.94 -59.77 1094.23 C-58.81 1097.69 -57.85 1101.16 -56.89 1104.62 C-56.61 1105.64 -56.33 1106.66 -56.04 1107.71 C-55.66 1109.09 -55.66 1109.09 -55.26 1110.51 C-55.04 1111.31 -54.82 1112.11 -54.59 1112.94 C-54.1 1114.64 -53.56 1116.32 -53 1118 C-51.17 1119.02 -51.17 1119.02 -48.87 1119.72 C-48.01 1120.01 -47.15 1120.3 -46.26 1120.6 C-44.86 1121.05 -44.86 1121.05 -43.44 1121.5 C-42.49 1121.81 -41.54 1122.12 -40.56 1122.43 C-12.04 1131.45 16.57 1130.62 45 1122 C45.68 1121.81 46.35 1121.61 47.05 1121.41 C48.88 1120.87 50.69 1120.28 52.5 1119.69 C53.5 1119.36 54.5 1119.04 55.53 1118.7 C60.77 1115.09 61.89 1106.13 63.49 1100.15 C63.72 1099.3 63.95 1098.44 64.18 1097.57 C64.95 1094.74 65.7 1091.91 66.46 1089.09 C67 1087.07 67.55 1085.05 68.09 1083.03 C69.55 1077.61 71.01 1072.18 72.47 1066.76 C73.99 1061.09 75.51 1055.43 77.04 1049.77 C79.51 1040.58 81.98 1031.39 84.45 1022.2 C88.12 1008.55 91.8 994.9 95.48 981.25 C97.68 973.07 99.88 964.89 102.08 956.7 C102.9 953.65 103.72 950.6 104.54 947.55 C104.83 946.46 104.83 946.46 105.13 945.34 C107.64 935.99 110.19 926.66 112.77 917.33 C113.57 914.44 114.36 911.56 115.15 908.67 C115.84 906.18 116.54 903.7 117.25 901.21 C117.64 899.78 118.04 898.35 118.43 896.91 C118.76 895.73 119.09 894.54 119.44 893.32 C120.26 888.45 119.97 884.54 117.32 880.33 C116.6 879.5 115.87 878.67 115.12 877.81 C114.31 876.87 113.5 875.93 112.66 874.96 C111.34 873.5 111.34 873.5 110 872 C109.11 870.98 108.23 869.96 107.34 868.94 C101.42 862.2 95.14 856.47 88 851 C84.98 852.32 83.24 853.63 81.19 856.19 C78.14 859.81 74.89 863.12 71.51 866.41 C52.96 884.54 43.57 907.68 33 931 C32.52 932.05 32.05 933.09 31.56 934.17 C30.23 937.09 28.92 940.01 27.62 942.94 C27.26 943.75 26.89 944.56 26.51 945.4 C18.98 962.59 14.44 980.52 10.56 998.81 C10.11 1000.88 9.66 1002.96 9.21 1005.03 C8.13 1010.02 7.06 1015.01 6 1020 C3.66 1010.86 1.46 1001.71 -0.53 992.49 C-6.92 963.18 -18.28 936.67 -31.17 909.69 C-31.84 908.3 -32.49 906.91 -33.15 905.52 C-39.45 892.2 -46.81 879.48 -57.25 868.94 C-58.19 867.97 -58.19 867.97 -59.14 866.97 C-61.08 864.97 -63.04 862.98 -65 861 C-65.67 860.32 -66.34 859.64 -67.02 858.93 C-72.94 852.9 -72.94 852.9 -79 847 C-85.36 847 -97.22 861.31 -102 866 Z M-339 992 C-339.91 992.73 -340.82 993.46 -341.76 994.21 C-357.98 1007.98 -367.48 1027.31 -370.75 1048.12 C-374.17 1101.06 -345.14 1147.23 -311.69 1185.66 C-309.49 1188.14 -307.26 1190.58 -305 1193 C-304.17 1193.89 -303.34 1194.79 -302.49 1195.71 C-287.36 1211.48 -264.76 1226.67 -242.19 1227.24 C-222.7 1227.62 -206.82 1224.2 -192.22 1210.36 C-180.44 1198.66 -178.17 1185.97 -177.81 1169.84 C-177.87 1165.48 -178.63 1161.78 -180 1157.62 C-180.33 1156.62 -180.33 1156.62 -180.67 1155.59 C-183.1 1148.37 -185.99 1141.31 -188.87 1134.25 C-191.1 1128.78 -193.25 1123.27 -195.38 1117.75 C-195.88 1116.46 -195.88 1116.46 -196.39 1115.15 C-204.22 1094.69 -200.79 1076.8 -194.59 1056.34 C-187.88 1033.9 -189.01 1012.38 -199.75 991.19 C-207.93 977.15 -220.89 967.36 -236.5 963.03 C-271.08 955.28 -312.02 970.24 -339 992 Z M211.33 979.37 C207.59 983.6 204.68 988.04 202 993 C201.31 994.24 201.31 994.24 200.61 995.51 C188.58 1019.27 193.22 1043.38 200.57 1067.7 C202.84 1075.2 204.2 1082.07 204.31 1089.94 C204.34 1090.6 204.37 1091.25 204.4 1091.93 C204.57 1105.58 198.35 1118.65 193.06 1130.94 C189.44 1139.39 185.89 1147.83 183 1156.57 C182.58 1157.8 182.17 1159.04 181.75 1160.32 C180.65 1165.74 181.42 1170.07 183.02 1175.38 C184.46 1180.69 184.63 1186.05 184.86 1191.53 C185.35 1198.27 187.52 1202.02 192 1207 C192.91 1208.11 192.91 1208.11 193.84 1209.25 C204.72 1220.74 219.7 1226.97 235.35 1227.47 C263.84 1227.76 286.01 1214.37 306 1195 C306.68 1194.36 307.36 1193.72 308.06 1193.06 C312.3 1188.99 315.97 1184.49 319.64 1179.91 C321.14 1178.06 322.66 1176.25 324.23 1174.47 C344.39 1151.47 360.14 1123.24 369 1094 C369.24 1093.24 369.47 1092.47 369.71 1091.69 C376.74 1067.89 375.6 1040.68 364.2 1018.58 C361.06 1012.83 357.45 1007.82 353 1003 C352.13 1002.04 351.25 1001.07 350.36 1000.08 C328.8 976.99 293 962.35 261.67 960.84 C242.49 960.39 225.18 965.79 211.33 979.37 Z M41.59 1132.06 C40.68 1132.28 39.77 1132.5 38.84 1132.73 C36.93 1133.19 35.02 1133.66 33.12 1134.13 C22.6 1136.69 12.63 1137.27 1.81 1137.31 C0.76 1137.32 0.76 1137.32 -0.32 1137.33 C-11.27 1137.36 -21.57 1136.31 -32.24 1133.78 C-35.91 1132.69 -35.91 1132.69 -39 1134 C-38.18 1134.93 -38.18 1134.93 -37.35 1135.88 C-18.51 1158 -8.28 1184.15 -6 1213 C-0.39 1213 5.22 1213 11 1213 C11.34 1209.1 11.34 1209.1 11.69 1205.12 C14.44 1179.18 25.22 1156.12 43.12 1137.19 C44.84 1135.18 45.95 1133.42 47 1131 C45.16 1131 43.37 1131.62 41.59 1132.06 Z M154 1157 C156.87 1162.5 160.21 1166.73 164.5 1171.19 C165.07 1171.79 165.64 1172.39 166.22 1173.01 C169.1 1176.06 172.02 1179.06 175 1182 C173.54 1173.1 170.18 1163.89 163 1158 C160.66 1157.31 160.66 1157.31 158.25 1157.25 C157.05 1157.16 157.05 1157.16 155.83 1157.08 C155.22 1157.05 154.62 1157.03 154 1157 Z M-162.56 1162.25 C-163.89 1164.46 -163.89 1164.46 -165 1167 C-165.47 1168 -165.94 1169 -166.42 1170.03 C-173.88 1186.97 -173.89 1213.29 -168 1231 C-164.5 1239.25 -159.36 1244.04 -151.62 1248.31 C-143.04 1250.56 -136.39 1249.82 -128 1247 C-127.79 1247.63 -127.58 1248.26 -127.37 1248.91 C-124.34 1257.32 -120.26 1263.41 -112.44 1268 C-105.45 1271.14 -97.67 1271.28 -90.32 1269.27 C-83.87 1266.61 -79.09 1262.64 -75 1257 C-74.39 1257.16 -73.79 1257.31 -73.16 1257.47 C-63.68 1259.68 -55.97 1259.33 -47.32 1254.57 C-39.83 1249.51 -36.17 1242.67 -34 1234 C-34 1232.68 -34 1231.36 -34 1230 C-32.97 1230.06 -31.94 1230.12 -30.88 1230.19 C-26.59 1229.98 -24.52 1229.43 -21 1227 C-14.95 1219.02 -15.19 1209.57 -16 1200 C-17.45 1190.72 -20.53 1181.7 -24 1173 C-24.33 1173 -24.66 1173 -25 1173 C-25.11 1173.74 -25.22 1174.48 -25.34 1175.25 C-25.84 1178.6 -26.36 1181.96 -26.88 1185.31 C-27.05 1186.48 -27.22 1187.65 -27.4 1188.85 C-27.58 1189.97 -27.75 1191.09 -27.93 1192.24 C-28.17 1193.79 -28.17 1193.79 -28.41 1195.36 C-29 1198 -29 1198 -31 1201 C-33.42 1201.39 -33.42 1201.39 -36 1201 C-37.76 1199.62 -37.76 1199.62 -39.33 1197.72 C-39.9 1197.04 -40.47 1196.37 -41.06 1195.67 C-41.64 1194.95 -42.22 1194.24 -42.81 1193.5 C-43.41 1192.78 -44.01 1192.07 -44.62 1191.33 C-46.1 1189.57 -47.55 1187.79 -49 1186 C-51.94 1187.47 -52.33 1189.59 -53.62 1192.56 C-54.07 1193.57 -54.52 1194.59 -54.98 1195.63 C-55.48 1196.8 -55.48 1196.8 -56 1198 C-60.47 1198.39 -60.47 1198.39 -62.82 1196.65 C-63.37 1196.04 -63.92 1195.42 -64.48 1194.79 C-65.09 1194.12 -65.69 1193.45 -66.32 1192.77 C-66.94 1192.06 -67.55 1191.35 -68.19 1190.62 C-68.82 1189.93 -69.44 1189.23 -70.09 1188.51 C-71.26 1187.21 -72.42 1185.91 -73.57 1184.6 C-74.67 1183.37 -75.83 1182.17 -77 1181 C-78.92 1184.5 -80.83 1188 -82.75 1191.5 C-83.29 1192.48 -83.83 1193.46 -84.38 1194.48 C-87.37 1199.93 -90.26 1205.42 -93 1211 C-94.98 1211 -96.96 1211 -99 1211 C-101.03 1200.7 -102.73 1190.42 -104 1180 C-107.75 1181.55 -110.04 1183.86 -112.84 1186.75 C-113.76 1187.69 -114.68 1188.63 -115.62 1189.59 C-117.07 1191.08 -118.51 1192.57 -119.95 1194.06 C-121.34 1195.51 -122.75 1196.94 -124.16 1198.38 C-124.99 1199.24 -125.82 1200.1 -126.68 1200.99 C-130.11 1203.96 -130.11 1203.96 -133 1204 C-134.79 1202.89 -134.79 1202.89 -136 1201 C-135.96 1198.6 -135.96 1198.6 -135.38 1195.78 C-135.09 1194.26 -135.09 1194.26 -134.79 1192.71 C-134.46 1191.12 -134.46 1191.12 -134.12 1189.5 C-133.7 1187.41 -133.29 1185.31 -132.88 1183.22 C-132.69 1182.29 -132.5 1181.36 -132.3 1180.4 C-131.81 1177.86 -131.81 1177.86 -133 1175 C-134.1 1175.63 -134.1 1175.63 -135.22 1176.27 C-137.94 1177.83 -140.67 1179.38 -143.41 1180.93 C-144.59 1181.6 -145.76 1182.27 -146.94 1182.94 C-148.64 1183.92 -150.34 1184.88 -152.04 1185.84 C-153.57 1186.71 -153.57 1186.71 -155.14 1187.6 C-157.85 1188.93 -160.01 1189.68 -163 1190 C-163.66 1189.67 -164.32 1189.34 -165 1189 C-165.44 1186.44 -165.44 1186.44 -165 1183 C-163.53 1181.15 -161.88 1179.65 -160.14 1178.05 C-154.32 1172.47 -149.26 1165.85 -145 1159 C-154.75 1157.61 -154.75 1157.61 -162.56 1162.25 Z M32 1167 C24.74 1183.3 17.01 1202 22.19 1220.06 C23.69 1223.9 25.76 1226.41 29 1229 C32.47 1230.16 35.36 1230.07 39 1230 C39.07 1230.69 39.15 1231.38 39.23 1232.09 C40.49 1241.13 43.64 1247.52 50.75 1253.38 C59.71 1259.49 67.85 1259.29 78.12 1257.44 C79.05 1257.22 79.05 1257.22 80 1257 C81.11 1258.55 81.11 1258.55 82.25 1260.12 C87.36 1265.99 93.87 1269.36 101.54 1270.55 C110.67 1270.9 117.42 1269.11 124.25 1262.98 C128.83 1258.18 131.76 1253.23 134 1247 C134.67 1247.32 135.35 1247.64 136.04 1247.98 C142.72 1250.29 152.18 1250.38 158.62 1247.25 C159.77 1246.54 160.9 1245.79 162 1245 C163.3 1244.16 163.3 1244.16 164.62 1243.31 C174.14 1234.05 175.92 1223.16 176.15 1210.34 C176.25 1202.23 176.15 1194.11 176 1186 C175.34 1186.66 174.68 1187.32 174 1188 C169.02 1188.58 166.05 1187.33 161.73 1184.94 C160 1183.99 160 1183.99 158.23 1183.02 C157.03 1182.35 155.83 1181.67 154.62 1181 C153.4 1180.32 152.18 1179.65 150.95 1178.98 C147.96 1177.33 144.98 1175.67 142 1174 C140.87 1177.38 141.15 1178.81 141.81 1182.25 C142 1183.27 142.19 1184.29 142.38 1185.34 C142.69 1186.94 142.69 1186.94 143 1188.56 C143.4 1190.67 143.8 1192.77 144.19 1194.88 C144.37 1195.81 144.55 1196.75 144.73 1197.71 C145 1200 145 1200 144 1202 C141.09 1202.42 138.91 1202.62 136.4 1200.91 C134.71 1199.34 133.13 1197.7 131.56 1196 C130.99 1195.41 130.43 1194.82 129.84 1194.21 C126.26 1190.44 122.77 1186.6 119.46 1182.59 C117.8 1180.79 115.99 1179.42 114 1178 C112.18 1179.82 112.42 1182.66 112.1 1185.12 C111.93 1186.36 111.76 1187.61 111.59 1188.89 C111.24 1191.54 110.89 1194.19 110.55 1196.83 C110.29 1198.71 110.29 1198.71 110.04 1200.62 C109.88 1201.77 109.73 1202.92 109.58 1204.1 C109 1207 109 1207 107 1210 C102.41 1209.5 102.41 1209.5 100.59 1207.3 C100.23 1206.57 99.87 1205.85 99.5 1205.1 C99.09 1204.29 98.68 1203.49 98.26 1202.66 C97.63 1201.37 97.63 1201.37 97 1200.06 C96.57 1199.2 96.13 1198.34 95.68 1197.45 C94.44 1194.97 93.22 1192.49 92 1190 C90.96 1187.94 89.92 1185.87 88.88 1183.81 C88.25 1182.54 87.62 1181.27 87 1180 C83.72 1181.41 81.85 1183.03 79.56 1185.75 C78.66 1186.81 78.66 1186.81 77.73 1187.89 C76.67 1189.19 75.63 1190.49 74.61 1191.82 C72.59 1194.46 71.42 1195.87 68.19 1196.88 C67.47 1196.92 66.74 1196.96 66 1197 C63.32 1193.11 61.04 1189.28 59 1185 C54.03 1188.73 50.64 1192.93 47.03 1197.99 C45 1200 45 1200 42.25 1200.29 C41.51 1200.2 40.77 1200.1 40 1200 C37.51 1193.43 36.27 1187.09 35.44 1180.12 C35.21 1178.27 34.98 1176.42 34.75 1174.57 C34.65 1173.76 34.55 1172.96 34.45 1172.13 C34.08 1169.71 34.08 1169.71 32 1167 Z " fill="#000302" transform="translate(380,0)"/>
<path d="M0 0 C12.68 8.14 20.28 20.73 24.19 35.11 C27.68 51.48 25.5 68.94 17.02 83.5 C15.04 86.5 12.99 89.41 10.88 92.31 C9.56 94.19 8.25 96.06 6.94 97.94 C6.37 98.73 5.81 99.53 5.22 100.35 C2.31 104.58 2.09 108.28 2.88 113.31 C7.26 123.51 17.78 132.38 25.69 139.94 C30.34 144.55 33.71 149.6 36.88 155.31 C37.31 156.06 37.75 156.8 38.2 157.57 C42.65 166.53 42.32 178.29 40.03 187.86 C35.3 200.25 26 210.08 13.97 215.66 C9 217.56 4.2 218.92 -1.12 219.31 C-1.76 219.36 -2.4 219.42 -3.06 219.47 C-26.83 220.52 -46.47 206.08 -63.19 190.94 C-92.77 163.63 -121.91 115.32 -125.43 74.81 C-125.76 65.74 -124.4 57.41 -118.94 49.94 C-113.23 44.61 -106.77 41.12 -98.88 41.25 C-97.02 41.28 -97.02 41.28 -95.12 41.31 C-95.25 39.92 -95.25 39.92 -95.38 38.5 C-95.34 28.77 -90.05 20.31 -83.43 13.59 C-77.42 8.09 -71.05 5.7 -62.94 5.06 C-58.04 5.38 -53.76 6.75 -49.12 8.31 C-48.14 8.64 -47.14 8.97 -46.12 9.31 C-45.77 8.61 -45.42 7.91 -45.06 7.19 C-34.47 -8.53 -15.24 -8.55 0 0 Z M-37.12 12.31 C-38.03 15.35 -38.46 18.42 -38.88 21.56 C-39 22.4 -39.13 23.24 -39.25 24.11 C-39.56 26.17 -39.84 28.24 -40.12 30.31 C-42.58 27.93 -44.79 25.52 -46.88 22.81 C-50.62 18.45 -54.65 15.9 -60.36 14.93 C-67.47 14.55 -72.52 17.12 -77.88 21.62 C-82.24 26.84 -85.13 32.09 -85.44 38.98 C-85.48 39.87 -85.53 40.77 -85.57 41.69 C-85.61 42.61 -85.65 43.54 -85.69 44.5 C-85.73 45.44 -85.77 46.38 -85.82 47.35 C-85.92 49.67 -86.03 51.99 -86.12 54.31 C-93.87 52.44 -93.87 52.44 -96.12 51.31 C-101.37 50.91 -104.69 51.45 -109.12 54.31 C-115.18 60.88 -115.89 66.77 -115.6 75.4 C-112.9 112.6 -83.63 156.67 -58.12 182.31 C-57.64 182.8 -57.16 183.29 -56.66 183.79 C-42.9 197.47 -25.7 209.07 -5.81 209.69 C5.4 209.5 13.76 206.05 21.88 198.31 C28.14 191.71 31.94 183.39 32.38 174.25 C31.8 162.23 24.25 152.3 15.88 144.28 C13.29 141.73 10.95 139 8.59 136.24 C6.92 134.36 5.15 132.66 3.31 130.94 C-2.65 125.09 -7.18 117.69 -7.5 109.25 C-7.37 100.26 -3.02 94.37 2.31 87.44 C12.41 74.28 17.33 59.97 15.88 43.31 C13.98 30.06 7.58 17.54 -3.12 9.31 C-14.14 2.36 -28.43 1.08 -37.12 12.31 Z " fill="#000302" transform="translate(147.125,985.6875)"/>
<path d="M0 0 C4.29 3.03 7.13 6.12 9.73 10.68 C10.59 10.39 11.44 10.1 12.33 9.8 C22.41 6.53 29.79 5.53 39.73 9.68 C48.85 15 54.86 22.52 57.73 32.68 C58.27 36.01 58.59 39.3 58.73 42.68 C59.84 42.59 60.96 42.51 62.11 42.43 C69.63 42.48 75.74 45.36 81.17 50.49 C87.78 57.67 89.17 65.86 88.99 75.41 C87.69 91.91 80.48 106.8 73.73 121.68 C73.23 122.78 72.73 123.89 72.21 125.03 C62.57 146.1 51.65 165.28 35.84 182.38 C33.94 184.45 32.15 186.57 30.36 188.74 C26.02 193.7 20.93 197.66 15.73 201.68 C14.85 202.37 13.97 203.06 13.07 203.78 C-2.55 215.7 -19.55 222.25 -39.33 220.11 C-52.07 217.96 -62.7 211.27 -70.34 200.85 C-77.21 189.86 -79.79 178.71 -77.33 166.05 C-73.42 151.81 -63.24 142.18 -52.91 132.27 C-49.8 129.25 -46.93 126.09 -44.27 122.68 C-43.77 122.04 -43.27 121.4 -42.75 120.74 C-39.93 116.76 -38.24 113.17 -38.52 108.22 C-40.08 102.93 -43.79 98.62 -47.08 94.27 C-58.57 78.9 -63.52 62.54 -61.81 43.35 C-60.95 37.52 -59.37 32.16 -57.27 26.68 C-56.78 25.38 -56.78 25.38 -56.28 24.07 C-51.02 12.06 -40.8 2.52 -28.74 -2.34 C-18.91 -5.66 -9.1 -5.31 0 0 Z M-41.15 17.83 C-51.05 31.03 -53.85 45.97 -51.84 62.09 C-49.45 74.15 -43.14 84.05 -35.73 93.66 C-31.2 99.67 -28.45 105.98 -29.27 113.68 C-32.01 124.78 -39.68 132.26 -47.58 140.01 C-57.39 149.66 -68.22 160.69 -68.58 175.24 C-68.5 184.64 -64.89 192.91 -58.33 199.68 C-49.12 208.38 -39.96 211.29 -27.42 211.02 C-11.67 210.13 2.15 200.63 13.73 190.68 C14.54 189.99 15.35 189.3 16.19 188.59 C43.51 164.75 60.62 131.5 73.42 98.05 C73.73 97.23 74.05 96.41 74.37 95.56 C78.12 85.39 81.07 73.88 78.01 63.14 C76.07 58.95 73.67 56.2 69.73 53.68 C64.23 51.84 59.96 52.47 54.73 54.68 C53.06 54.72 51.4 54.72 49.73 54.68 C49.72 53.42 49.7 52.16 49.69 50.87 C49.35 36.02 49.35 36.02 41.8 23.6 C36.28 18.46 31.65 16.13 24.05 16.38 C15.11 17.52 10.18 24.06 4.73 30.68 C3.06 26.87 2.22 23.25 1.48 19.18 C0.31 13.69 0.31 13.69 -3.14 9.49 C-16.78 1.58 -31.15 6.37 -41.15 17.83 Z " fill="#000302" transform="translate(652.26953125,984.32421875)"/>
<path d="M0 0 C6.32 6.67 9.63 13.82 9.45 22.95 C8.72 31.67 4.68 37.59 -1.75 43.38 C-7.69 47.7 -14.67 48.97 -21.92 48.12 C-30.54 46.27 -36.87 41.65 -41.75 34.38 C-45.38 26.88 -45.67 18.94 -42.96 11.08 C-39.57 3.71 -33.85 -0.95 -26.75 -4.62 C-17.1 -7.69 -8.42 -4.97 0 0 Z " fill="#000302" transform="translate(302.75,332.625)"/>
<path d="M0 0 C6.44 3.73 10.88 9.3 13.29 16.32 C15.27 24.5 14.06 31.82 9.73 39.01 C5.26 45.22 -1.03 49.68 -8.61 51.14 C-17.04 51.88 -23.94 50 -30.62 44.86 C-36.2 39.83 -39.07 33.99 -40.09 26.55 C-40.48 17.55 -37.46 10.45 -31.43 3.83 C-22.57 -3.94 -10.48 -4.74 0 0 Z " fill="#000302" transform="translate(490.7109375,329.67578125)"/>
<path d="M0 0 C12.68 7.93 22.29 20.24 25.74 34.9 C26.42 40.85 26.24 45.84 22.74 50.9 C20.43 53.74 18.71 54.74 15.1 55.36 C7.12 55.81 1.88 53.96 -4.26 48.9 C-13.71 40.33 -22.29 28.05 -23.26 14.9 C-23.32 9.29 -22.01 5.15 -18.26 0.9 C-12.14 -2.82 -6.41 -3.11 0 0 Z M-13.26 9.9 C-14.42 19.18 -9.59 27.25 -4.25 34.5 C1.99 42.1 1.99 42.1 10.68 46.03 C13.85 46.24 13.85 46.24 15.74 43.9 C17.19 34.25 12.38 26.13 7 18.4 C2.79 13.28 -2.4 8.49 -9.13 7.46 C-11.46 7.74 -11.46 7.74 -13.26 9.9 Z " fill="#000302" transform="translate(347.2578125,584.09765625)"/>
<path d="M0 0 C4.09 5.24 3.53 11.19 3 17.56 C1.17 25.7 -2.93 32.06 -8 38.56 C-8.73 39.54 -8.73 39.54 -9.47 40.53 C-14.29 46.64 -21.23 52.08 -29 53.56 C-35.17 53.56 -38.11 52.25 -42.65 48.13 C-45.86 44.4 -45.39 39.54 -45.34 34.89 C-43.91 20.88 -33.4 8.32 -23 -0.44 C-15 -4.82 -7.5 -6.09 0 0 Z M-29 19.56 C-32.9 26 -35.86 31.97 -36 39.56 C-35.67 40.55 -35.34 41.54 -35 42.56 C-32.14 43.49 -29.97 43.93 -27.1 42.83 C-17.32 37.17 -10.99 27.97 -7 17.56 C-6.21 14.36 -6 11.9 -6 8.56 C-7.62 5.4 -7.62 5.4 -10.12 5.06 C-18.35 6.49 -24.27 13.09 -29 19.56 Z " fill="#000302" transform="translate(435,586.4375)"/>
</svg>
