<?xml version="1.0" encoding="UTF-8"?>
<!-- Generator: visioncortex VTracer 0.6.3 -->
<svg version="1.1" xmlns="http://www.w3.org/2000/svg" width="933" height="1280">
<path d="M0 0 C1.69 1.06 3.39 2.12 5.08 3.19 C8.04 4.83 9.95 5.08 13.26 4.4 C15.29 3.46 17.29 2.47 19.26 1.4 C28.49 -1.46 37.65 0.58 46.26 4.4 C56.87 10 64.42 17.66 71.26 27.4 C72.27 27.24 73.28 27.08 74.32 26.92 C91.14 24.69 104.88 28.02 118.45 38.07 C125.94 44.27 130.83 51.53 134.54 60.49 C136.65 64.05 138.29 64.77 142.07 66.34 C150.02 70.04 154.09 74.75 157.56 82.75 C158.43 86.04 158.26 89 158.2 92.4 C158.38 96.99 158.54 98.72 161.92 101.91 C163.61 103.06 165.34 104.1 167.1 105.14 C175.31 110.02 180.49 117.56 182.9 126.8 C183.31 129.75 183.14 132.44 182.95 135.4 C182.76 140.59 183.91 142.96 187.2 146.96 C187.93 147.75 188.66 148.53 189.41 149.34 C191.26 151.4 191.26 151.4 192.26 154.4 C194.32 155.39 194.32 155.39 196.82 156.15 C202.94 158.46 208.31 161.66 211.42 167.63 C212.26 169.84 212.26 169.84 213.26 173.4 C213.78 173 214.3 172.6 214.83 172.19 C216.28 171.09 217.73 170.01 219.19 168.93 C220.67 167.83 222.13 166.69 223.57 165.52 C229.02 163.24 235.02 163.68 240.57 165.46 C244.94 168.61 248.54 172.24 250.26 177.4 C250.97 185.37 249.67 190.45 244.7 196.77 C243.89 197.64 243.09 198.51 242.26 199.4 C241.6 199.4 240.94 199.4 240.26 199.4 C241.52 201.93 242.51 202.1 245.07 203.21 C249.49 205.37 252.02 207.58 254.04 212.18 C255.7 217.19 254.97 220.45 252.89 225.22 C252.04 228.14 252.25 229.51 253.26 232.4 C254.99 234.8 256.73 237.02 258.63 239.27 C262.92 244.47 267.02 249.73 270.95 255.21 C275.35 261.31 280.04 266.96 285.26 272.4 C286.01 273.21 286.77 274.01 287.55 274.84 C292.12 279.6 296.91 283.82 302.13 287.84 C314.67 297.5 328.41 308.2 332.26 324.4 C332.93 330.64 333.23 336.23 330.63 342.02 C324.32 348.33 317.91 350.68 309.07 350.84 C293.63 350.83 275.03 345.29 261.26 338.4 C261.35 340.25 261.35 340.25 261.45 342.15 C261.42 349.64 260.1 357.24 255.57 363.34 C252.46 367.77 253.13 371.86 253.32 377.09 C253.15 386.18 248.56 394.07 242.26 400.4 C238.49 403.38 234.83 405.87 230.26 407.4 C229.19 410.59 229.28 412.56 229.45 415.9 C229.48 425.91 226.28 433.13 219.56 440.47 C217.04 442.58 214.81 443.37 211.76 444.52 C209.01 445.75 209.01 445.75 207.26 448.4 C206.53 453.14 206.8 457.88 207.19 462.65 C207.71 470.14 206.42 475.1 202.26 481.4 C199.24 484.71 197.35 486.04 193.09 487.43 C189.28 488.75 186.43 489.9 183.26 492.4 C181.47 496.43 181.29 500.85 180.83 505.18 C180.09 511.87 177.15 516.75 172.22 521.26 C166.91 525.19 161.74 526.62 155.26 527.4 C154.39 527.51 153.52 527.62 152.62 527.73 C150.51 527.98 148.38 528.19 146.26 528.4 C145.97 529.23 145.68 530.07 145.38 530.93 C142.47 538.9 139.34 546.32 133.26 552.4 C133.45 555.03 133.92 556.09 135.89 557.86 C136.57 558.3 137.25 558.75 137.95 559.21 C146.64 565.47 151.74 573.56 153.8 584.23 C155.97 599.36 155.02 614.91 150.26 629.4 C149.67 631.4 149.09 633.4 148.51 635.4 C148.1 636.73 147.68 638.07 147.26 639.4 C147.9 639.93 148.54 640.47 149.2 641.02 C162.69 652.64 169.71 666.54 171.26 684.4 C172.06 698.77 170.65 712.44 165.57 725.96 C162.37 734.53 162.37 734.53 164.51 743.28 C165.58 745.5 166.65 747.72 167.72 749.94 C175.96 768.51 173.69 790.96 166.75 809.55 C162.79 819.51 157.36 828.27 150.49 836.52 C148.72 839.21 149.15 841.5 149.61 844.59 C150.56 848.7 151.99 852.62 153.38 856.6 C158.67 872.05 159.23 889.65 152.64 904.84 C147.99 913.48 141.43 920.57 134.32 927.24 C131.69 929.99 130.33 931.98 130.14 935.83 C130.2 936.73 130.26 937.62 130.32 938.55 C130.37 939.55 130.43 940.54 130.49 941.57 C130.59 943.16 130.59 943.16 130.7 944.77 C131.87 967.29 129.42 987.47 114.29 1005.22 C96.18 1024.65 71.34 1029.45 45.85 1030.49 C44.68 1030.55 43.5 1030.61 42.28 1030.68 C41.22 1030.72 40.16 1030.76 39.06 1030.81 C34.6 1031.75 32.92 1034.43 30.43 1038.06 C29.82 1039.04 29.2 1040.02 28.57 1041.02 C25.14 1046.29 21.35 1050.87 17.04 1055.44 C13.53 1059.3 14.24 1062.84 14.46 1067.78 C14.51 1069.11 14.51 1069.11 14.56 1070.48 C14.68 1073.49 14.81 1076.51 14.95 1079.52 C14.99 1080.57 15.03 1081.62 15.08 1082.7 C16.09 1106.89 17.46 1131.07 18.85 1155.25 C20.33 1181.05 20.33 1181.05 20.87 1193.36 C20.91 1194.23 20.94 1195.1 20.98 1196 C22.7 1237.15 22.7 1237.15 13.76 1247.21 C8.92 1251.44 3.37 1250.77 -2.74 1250.4 C-5.08 1249.76 -7.42 1249.1 -9.74 1248.4 C-13.85 1247.69 -13.85 1247.69 -17.74 1248.4 C-20.02 1250.29 -21.89 1252.28 -23.79 1254.55 C-26.12 1256.76 -27.57 1257.15 -30.74 1257.4 C-36.05 1255.41 -38.22 1251.17 -40.74 1246.4 C-59.42 1205.21 -56.88 1148.43 -56.93 1103.84 C-56.93 1102.66 -56.93 1102.66 -56.93 1101.46 C-56.93 1091.73 -56.58 1082.1 -55.74 1072.4 C-61.45 1071.79 -61.45 1071.79 -66.3 1074.34 C-67.11 1075.35 -67.91 1076.36 -68.74 1077.4 C-69.66 1078.4 -69.66 1078.4 -70.6 1079.42 C-74.93 1084.36 -74.93 1084.36 -76.3 1090.59 C-76.09 1093.21 -75.68 1095.77 -75.27 1098.38 C-73.04 1112.48 -70.2 1133.21 -77.49 1146.15 C-79.74 1148.4 -79.74 1148.4 -82.68 1149.4 C-85.74 1149.4 -85.74 1149.4 -88.05 1148.46 C-92.99 1146.51 -97.54 1146.53 -102.49 1148.48 C-104.36 1149.38 -106.23 1150.29 -108.1 1151.2 C-111.9 1152.92 -114.55 1153.47 -118.74 1153.4 C-122.98 1151.69 -125.01 1149.5 -126.93 1145.46 C-131.19 1133.49 -131.89 1119.72 -132.53 1107.11 C-132.72 1104.65 -132.88 1102.71 -133.74 1100.4 C-135.46 1099.15 -135.46 1099.15 -137.64 1098.33 C-138.43 1097.99 -139.22 1097.65 -140.03 1097.3 C-140.87 1096.96 -141.7 1096.62 -142.55 1096.27 C-144.19 1095.58 -145.82 1094.89 -147.45 1094.2 C-148.18 1093.9 -148.9 1093.6 -149.65 1093.3 C-151.74 1092.4 -151.74 1092.4 -153.84 1091.31 C-156.68 1089.95 -158.61 1090.05 -161.74 1090.4 C-164.5 1091.44 -167.07 1092.79 -169.68 1094.15 C-188.45 1103.46 -208.38 1106.04 -228.74 1100.4 C-235.89 1097.95 -242.78 1094.9 -248.8 1090.28 C-253.44 1088.17 -257.93 1089.31 -262.55 1090.89 C-264.24 1091.53 -265.93 1092.18 -267.62 1092.84 C-268.48 1093.16 -269.35 1093.49 -270.24 1093.82 C-274.29 1095.12 -274.29 1095.12 -277.74 1097.4 C-278.01 1099.17 -278.21 1100.96 -278.39 1102.74 C-278.5 1103.91 -278.62 1105.07 -278.74 1106.27 C-278.87 1107.56 -279 1108.85 -279.12 1110.18 C-279.26 1111.55 -279.4 1112.92 -279.53 1114.29 C-279.91 1118.04 -280.27 1121.79 -280.64 1125.54 C-280.87 1127.89 -281.1 1130.25 -281.33 1132.61 C-283.23 1151.92 -285.02 1171.24 -286.66 1190.58 C-286.73 1191.49 -286.81 1192.41 -286.89 1193.35 C-287.65 1202.3 -288.41 1211.26 -289.13 1220.22 C-289.41 1223.56 -289.69 1226.91 -289.97 1230.25 C-290.1 1231.79 -290.22 1233.33 -290.34 1234.87 C-292.68 1264.53 -292.68 1264.53 -299.74 1273.4 C-303.06 1275.06 -306.18 1275.15 -309.74 1274.4 C-314.69 1271.45 -318.72 1267.49 -322.74 1263.4 C-325.97 1264.81 -328.06 1266.56 -330.55 1269.02 C-333.42 1271.57 -334.57 1272.36 -338.43 1273.21 C-341.98 1272.34 -343.51 1271.32 -345.63 1268.35 C-349.72 1261.18 -351.63 1253.55 -352.87 1245.46 C-353.03 1244.41 -353.2 1243.36 -353.37 1242.28 C-354.77 1232.6 -355.45 1222.91 -355.99 1213.15 C-356.03 1212.41 -356.07 1211.67 -356.12 1210.91 C-358.17 1172.81 -355.53 1133.94 -349.61 1096.26 C-349.32 1094.31 -349.03 1092.35 -348.74 1090.4 C-348.58 1089.43 -348.41 1088.46 -348.24 1087.46 C-347.42 1081.73 -347.51 1078.27 -351.01 1073.55 C-351.48 1072.99 -351.95 1072.42 -352.43 1071.84 C-353.1 1070.93 -353.1 1070.93 -353.79 1070.01 C-356.82 1066.07 -359.19 1063.86 -364.1 1062.98 C-365.39 1062.85 -365.39 1062.85 -366.71 1062.72 C-368.15 1062.57 -368.15 1062.57 -369.61 1062.41 C-370.62 1062.3 -371.64 1062.2 -372.68 1062.09 C-386.24 1060.46 -396.21 1057.45 -406.74 1048.4 C-407.73 1047.74 -408.72 1047.08 -409.74 1046.4 C-409.75 1047.39 -409.75 1048.38 -409.76 1049.41 C-409.82 1058.79 -409.89 1068.18 -409.98 1077.56 C-410.02 1082.39 -410.06 1087.21 -410.09 1092.04 C-410.11 1096.7 -410.16 1101.36 -410.21 1106.02 C-410.22 1107.8 -410.23 1109.57 -410.24 1111.34 C-410.33 1134.99 -410.33 1134.99 -418.74 1143.4 C-422.26 1145.15 -426.02 1144.33 -429.74 1143.4 C-431.71 1142.18 -431.71 1142.18 -433.49 1140.77 C-436.08 1138.7 -436.08 1138.7 -439.37 1138.21 C-442.81 1139.93 -444.39 1142.35 -446.74 1145.4 C-449.63 1146.84 -451.54 1146.78 -454.74 1146.4 C-466.96 1137.84 -469.63 1117.22 -472.05 1103.52 C-474.92 1085.98 -475.81 1068.26 -476.37 1050.52 C-476.39 1049.81 -476.41 1049.1 -476.44 1048.37 C-476.65 1041.76 -476.86 1035.18 -476.45 1028.57 C-475.69 1020.76 -475.69 1020.76 -478.72 1013.83 C-481.29 1011.78 -483.94 1010.11 -486.74 1008.4 C-500.01 996.65 -504.22 978.07 -505.37 961.12 C-505.7 954.87 -505.77 948.65 -505.74 942.4 C-506.48 942.12 -507.22 941.84 -507.98 941.56 C-520.61 936.26 -530.3 925.62 -535.7 913.19 C-536.91 909.87 -537.72 907 -537.87 903.45 C-538.07 900.05 -538.39 897.54 -539.74 894.4 C-542.97 891.89 -546.27 890.19 -549.92 888.39 C-559.08 883.84 -567.09 876.54 -571.74 867.4 C-572.15 866.6 -572.56 865.81 -572.98 864.99 C-576.93 855.96 -577.33 844.74 -574.66 835.25 C-573.72 831.31 -573.46 829.22 -574.74 825.4 C-576.96 822.76 -576.96 822.76 -579.8 820.34 C-592.46 808.44 -600.39 791.17 -601.08 773.76 C-601.38 753.6 -598.01 738.25 -584.22 722.73 C-582.74 721.4 -582.74 721.4 -580.74 721.4 C-581.07 720.58 -581.39 719.75 -581.73 718.91 C-590.28 697.07 -593.29 676.34 -584.42 654.09 C-576.82 637.8 -565.13 628.18 -548.74 621.4 C-548.81 620.51 -548.81 620.51 -548.88 619.6 C-550.5 597.52 -547.74 578.88 -532.88 561.51 C-527.29 555.98 -520.54 552.24 -513.74 548.4 C-513.77 547.79 -513.79 547.17 -513.82 546.54 C-514.32 533.18 -513.93 521.8 -508.74 509.4 C-508.37 508.47 -508 507.54 -507.61 506.59 C-500.34 490.37 -485.94 479.8 -469.74 473.4 C-460.19 470.17 -450.63 468.22 -440.54 468.34 C-439.39 468.34 -439.39 468.34 -438.21 468.35 C-435.79 468.36 -433.36 468.38 -430.93 468.4 C-427.71 468.42 -424.5 468.44 -421.29 468.46 C-420.17 468.47 -420.17 468.47 -419.04 468.49 C-417.27 468.49 -415.51 468.45 -413.74 468.4 C-411.82 466.48 -412.54 463.63 -412.45 461.06 C-411.83 442.1 -406.09 430.22 -392.28 417.05 C-375.62 402.47 -356.39 398.17 -334.74 398.34 C-333.01 398.34 -333.01 398.34 -331.24 398.35 C-328.41 398.36 -325.57 398.38 -322.74 398.4 C-323.36 397.77 -323.98 397.15 -324.62 396.51 C-332.41 388.54 -339.52 378.37 -339.88 366.83 C-339.44 359.05 -338.06 352.98 -333.67 346.47 C-332.41 343.66 -332.77 342.29 -333.74 339.4 C-335.22 337.05 -335.22 337.05 -337.05 334.77 C-344.42 324.65 -347.08 312.94 -345.35 300.61 C-342.98 289.33 -337.39 278.09 -328.99 270.11 C-327.28 267.76 -327.37 266.24 -327.74 263.4 C-328.88 262.23 -330.03 261.06 -331.24 259.96 C-339.49 251.35 -342.28 240.56 -342.23 228.99 C-341.79 216.56 -336.57 205.04 -327.66 196.37 C-326.34 195.21 -325 194.07 -323.64 192.97 C-323.01 192.45 -322.39 191.93 -321.74 191.4 C-321.04 190.84 -320.33 190.29 -319.61 189.72 C-317.01 186.49 -316.66 183.14 -316.12 179.15 C-315.9 177.68 -315.68 176.22 -315.45 174.76 C-315.34 174.04 -315.24 173.33 -315.12 172.59 C-314.52 169.14 -313.64 165.78 -312.74 162.4 C-313.31 162.22 -313.88 162.05 -314.46 161.87 C-332.41 156.27 -352.76 149.77 -362.74 132.4 C-366.04 125.48 -367.05 118.28 -365.05 110.82 C-361.1 100.04 -354.95 93.62 -344.74 88.4 C-328.64 81.55 -312.94 80.17 -295.62 80.15 C-294.57 80.15 -294.57 80.15 -293.5 80.14 C-277.73 80.14 -262.32 81.74 -246.87 84.98 C-242.48 85.84 -239.86 86.05 -235.93 83.77 C-234.88 82.99 -233.83 82.21 -232.74 81.4 C-224.9 75.58 -216.31 71.55 -206.74 69.4 C-207.43 69.37 -208.12 69.35 -208.83 69.32 C-217.08 68.82 -223.44 67.29 -229.74 61.77 C-232.37 58.65 -232.96 57.16 -232.74 53.15 C-232.27 49.46 -231.42 47.44 -228.74 44.84 C-225.24 42.27 -222.33 41.57 -218.02 41.87 C-212.07 43.25 -207.89 47.12 -203.74 51.4 C-203.29 50.26 -203.29 50.26 -202.82 49.09 C-195.05 29.93 -195.05 29.93 -187.74 25.4 C-184.12 24.71 -184.12 24.71 -180.74 25.4 C-177.87 28.42 -176.87 30.54 -176.24 34.65 C-177.1 41.05 -179.83 46.68 -182.74 52.4 C-181.63 51.69 -181.63 51.69 -180.49 50.96 C-175.77 48.28 -171.91 48.29 -166.49 48.34 C-164.6 48.35 -164.6 48.35 -162.66 48.36 C-161.7 48.37 -160.74 48.39 -159.74 48.4 C-159.61 47.86 -159.47 47.33 -159.33 46.78 C-156.57 37.21 -151.56 29.95 -143.15 24.55 C-137.25 21.72 -132.69 21.34 -126.24 22.02 C-122.32 22.24 -122.32 22.24 -118.74 21.4 C-116.15 18.61 -114.8 15.91 -113.21 12.46 C-110.6 7.01 -106.47 3.98 -101.05 1.52 C-90.49 -1.87 -79.07 0.69 -69.39 5.59 C-68.72 5.96 -68.06 6.33 -67.37 6.71 C-63.04 8.73 -61.26 8.88 -56.74 7.4 C-54.95 6.04 -53.34 4.56 -51.69 3.02 C-37.68 -8.65 -15.34 -8.96 0 0 Z M-54.37 12.84 C-57.07 15.22 -57.58 15.39 -61.43 15.65 C-66.28 14.62 -70.56 12.11 -74.93 9.83 C-82.06 6.2 -90.25 4.76 -98.05 7.09 C-105.91 10.65 -109.17 16.78 -112.63 24.32 C-113.74 26.4 -113.74 26.4 -115.74 27.4 C-117.65 27.38 -119.55 27.35 -121.46 27.28 C-130.18 27.01 -137.59 27.21 -144.65 32.95 C-148.22 36.61 -150.07 40.15 -151.9 44.91 C-153.24 48.23 -154.45 50.58 -156.74 53.4 C-160.96 54.51 -164.6 54.55 -168.92 54.44 C-173.81 54.39 -177.07 55.13 -180.74 58.4 C-184.06 62.35 -186.49 66.54 -188.37 71.34 C-189.74 74.4 -189.74 74.4 -191.93 75.84 C-192.53 76.02 -193.13 76.21 -193.74 76.4 C-191.37 85.65 -184.97 93.36 -177.74 99.4 C-176.26 99.89 -176.26 99.89 -174.74 100.4 C-174.91 99.41 -175.07 98.42 -175.24 97.4 C-175.92 92.54 -176.29 87.78 -175.18 82.96 C-173.74 81.4 -173.74 81.4 -170.37 80.52 C-166.73 80.4 -165.67 80.46 -162.74 82.4 C-158.11 88.73 -157.01 94.75 -157.74 102.4 C-157.82 103.34 -157.9 104.28 -157.98 105.25 C-158.21 107.64 -158.47 110.02 -158.74 112.4 C-152.04 117.11 -145.08 121.02 -137.8 124.77 C-136.77 125.32 -135.73 125.86 -134.65 126.43 C-129.93 129.24 -129.93 129.24 -124.74 130.4 C-125.8 126.87 -127.06 123.78 -128.87 120.59 C-131.1 116.22 -131.67 112.23 -130.74 107.4 C-128.75 104.33 -127.38 103.61 -123.93 102.46 C-119.78 102.38 -117.36 103.39 -113.74 105.4 C-110.41 108.73 -108.68 111.79 -107.74 116.4 C-107.85 120.1 -108.29 123.73 -108.74 127.4 C-108.93 129.29 -109.12 131.19 -109.3 133.09 C-109.45 134.52 -109.6 135.96 -109.74 137.4 C-103.56 140.64 -97.28 143.21 -90.74 145.65 C-89.78 146.01 -88.81 146.38 -87.82 146.75 C-85.46 147.64 -83.1 148.52 -80.74 149.4 C-80.41 148.41 -80.08 147.42 -79.74 146.4 C-80.65 144.49 -80.65 144.49 -82.05 142.59 C-85.78 136.92 -87.25 132.26 -86.74 125.4 C-85.72 122.64 -85.38 121.72 -82.74 120.4 C-78.24 120.02 -75.68 119.97 -71.55 121.84 C-65.23 127.6 -62.54 134.99 -61.74 143.4 C-61.78 145.38 -61.85 147.36 -61.93 149.34 C-62.03 152.03 -62.03 152.03 -61.74 154.4 C-59.78 156.68 -59.78 156.68 -56.74 157.4 C-55.59 157.79 -54.43 158.18 -53.24 158.59 C-50.2 159.29 -47.83 159.47 -44.74 159.4 C-45.19 158.54 -45.63 157.68 -46.09 156.8 C-46.66 155.66 -47.22 154.51 -47.8 153.34 C-48.37 152.21 -48.94 151.09 -49.53 149.93 C-50.92 145.88 -50.72 143.52 -49.74 139.4 C-48.62 137.46 -48.62 137.46 -46.74 136.4 C-42.49 135.74 -39.64 136.12 -36.05 138.4 C-31.43 142.04 -29.56 146.95 -27.74 152.4 C-27.52 154.46 -27.34 156.52 -27.18 158.59 C-27.1 159.67 -27.01 160.76 -26.93 161.88 C-26.87 162.71 -26.8 163.54 -26.74 164.4 C-21.1 166.97 -15.38 168.83 -9.43 170.59 C-8.07 170.99 -8.07 170.99 -6.69 171.41 C-2.29 172.85 -2.29 172.85 2.26 173.4 C1.84 170.06 0.88 167.61 -0.74 164.71 C-3.62 159.14 -4.6 153.41 -2.87 147.34 C-0.03 144.75 2.2 144.47 5.98 144.27 C10.91 144.55 13.55 146.69 16.95 150.09 C22.38 157.18 22.69 164.58 22.7 173.13 C22.72 175.73 22.72 175.73 23.26 179.4 C26 182 28.94 183.19 32.46 184.44 C33.44 184.79 34.42 185.14 35.43 185.51 C36.45 185.86 37.46 186.22 38.51 186.59 C39.54 186.95 40.57 187.32 41.63 187.7 C44.17 188.61 46.71 189.51 49.26 190.4 C49.59 189.74 49.92 189.08 50.26 188.4 C49.48 186.65 49.48 186.65 48.32 184.77 C45.99 180.31 45.68 177.4 46.26 172.4 C47.59 169.18 48.55 167.83 51.51 166.02 C56.43 164.91 60.03 165.75 64.45 168.09 C71.1 173.56 72.77 180.2 74.26 188.4 C74.51 191.31 74.69 194.2 74.75 197.12 C75.07 199.47 75.07 199.47 76.76 201.01 C80.3 202.98 83.99 204.28 87.82 205.59 C88.59 205.86 89.36 206.13 90.15 206.41 C94.59 207.97 94.59 207.97 99.26 208.4 C98.14 205.33 96.91 202.86 95.13 200.09 C92.75 195.98 92.65 193.11 93.26 188.4 C95.38 184.96 96.41 183.68 100.26 182.4 C105.66 181.76 108.95 182.71 113.33 185.71 C121.54 192.91 123.38 202.31 124.7 212.67 C124.88 213.57 125.07 214.47 125.26 215.4 C129.48 217.51 134.99 216.63 139.63 216.64 C141.68 216.65 143.73 216.68 145.78 216.71 C147.07 216.72 148.36 216.72 149.69 216.73 C150.88 216.74 152.06 216.75 153.29 216.75 C156.23 216.65 156.23 216.65 158.09 215.05 C159.76 212.7 160.79 210.17 161.95 207.52 C165.75 199.68 170.44 197.46 178.26 194.4 C177.82 193.65 177.39 192.9 176.95 192.12 C173.31 185.45 170.77 180.05 172.26 172.4 C174.18 166.11 177.97 162.16 183.26 158.4 C183.92 158.07 184.58 157.74 185.26 157.4 C184.93 154.36 184.77 152.84 182.41 150.79 C181.31 150.01 181.31 150.01 180.2 149.21 C177.93 147.11 176.43 145.56 175.96 142.44 C175.9 140.12 175.96 137.84 176.07 135.52 C176.42 127.97 176.17 122.57 171.26 116.4 C166.51 111.22 161.24 107.5 155.01 104.31 C153.26 103.4 153.26 103.4 152.26 102.4 C152.26 100.04 152.31 97.69 152.38 95.34 C152.48 87.76 151.95 82.5 146.82 76.59 C145.97 75.86 145.13 75.14 144.26 74.4 C143.39 73.62 143.39 73.62 142.51 72.84 C139.58 70.97 136.49 69.69 133.28 68.36 C131.26 67.4 131.26 67.4 129.26 65.4 C128.75 63.78 128.28 62.15 127.82 60.52 C124 49.78 115.18 41.98 105.3 36.73 C93.59 31.6 83.6 31.94 71.32 34.09 C69.26 34.06 69.26 34.06 67.26 33.4 C65.21 31.16 63.7 28.77 62.08 26.2 C55.69 16.38 46.25 10.17 35.12 6.74 C27.93 5.42 23.15 6.22 16.63 9.65 C10.93 12.49 10.93 12.49 7.93 12.08 C5.84 11.03 4.1 9.85 2.26 8.4 C-15.64 -3.98 -38.65 -2.49 -54.37 12.84 Z M-187.55 32.77 C-193.23 39.58 -197.17 48.5 -196.74 57.4 C-196.08 57.4 -195.42 57.4 -194.74 57.4 C-193.15 55.54 -191.69 53.68 -190.24 51.71 C-189.84 51.18 -189.44 50.65 -189.02 50.1 C-185.49 45.35 -183.44 41.55 -183.62 35.59 C-183.64 34.4 -183.64 34.4 -183.67 33.19 C-183.7 32.6 -183.72 32.01 -183.74 31.4 C-185.86 31.2 -185.86 31.2 -187.55 32.77 Z M-224.62 49.52 C-226.34 52.39 -226.34 54.13 -225.74 57.4 C-220.94 61.35 -217.16 62.53 -211.05 62.46 C-210.06 62.45 -209.07 62.44 -208.04 62.43 C-207.28 62.42 -206.52 62.41 -205.74 62.4 C-206.24 58.05 -207.53 56.14 -210.68 53.15 C-211.39 52.46 -212.1 51.78 -212.83 51.07 C-215.31 48.9 -216.36 48.43 -219.68 48.15 C-222.67 48.16 -222.67 48.16 -224.62 49.52 Z M-191.74 61.4 C-194.74 64.47 -194.74 64.47 -195.74 68.4 C-194.75 68.4 -193.76 68.4 -192.74 68.4 C-192.08 66.09 -191.42 63.78 -190.74 61.4 C-191.07 61.4 -191.4 61.4 -191.74 61.4 Z M-231.06 87.43 C-239.58 96.35 -241.22 104.92 -241.33 116.89 C-241.34 117.68 -241.36 118.48 -241.37 119.3 C-241.37 120.02 -241.37 120.73 -241.37 121.47 C-241.87 124.05 -242.64 124.85 -244.74 126.4 C-247.12 127.16 -247.12 127.16 -249.94 127.72 C-250.98 127.94 -252.02 128.16 -253.08 128.39 C-254.74 128.73 -254.74 128.73 -256.43 129.09 C-275.12 133.28 -291.91 140.81 -302.74 157.4 C-307.55 165.99 -309.59 174.21 -310.63 183.91 C-311.22 188.86 -312.05 191.77 -315.74 195.4 C-316.65 195.98 -317.56 196.55 -318.49 197.15 C-327.86 203.64 -333.58 213.21 -335.74 224.4 C-336.79 236.77 -334.52 246.84 -326.5 256.44 C-325.39 257.67 -324.28 258.9 -323.14 260.11 C-319.72 263.86 -319.72 263.86 -319.82 266.72 C-321.03 270.23 -322.94 272.22 -325.43 274.96 C-335.64 286.61 -339.75 299.02 -338.93 314.35 C-338.01 324.47 -331.77 333.37 -324.74 340.4 C-325.07 344.41 -326.61 347.17 -328.74 350.52 C-333.29 357.72 -333.39 363.98 -332.74 372.4 C-329.66 384.8 -318.64 394 -309.01 401.54 C-306.74 403.4 -306.74 403.4 -305.62 405.34 C-305.79 408.12 -307.14 409.1 -309.14 410.92 C-315.14 416.45 -319.25 421.32 -320.05 429.65 C-319.14 440.66 -314.45 450.25 -306.37 457.77 C-300.09 463 -293.31 465.59 -285.74 468.4 C-285.76 469.1 -285.78 469.8 -285.81 470.52 C-285.89 473.75 -285.94 476.98 -285.99 480.21 C-286.03 481.31 -286.06 482.41 -286.09 483.54 C-286.22 493.93 -284.15 502.96 -276.78 510.62 C-269.25 517.2 -260.9 520.17 -251.15 521.84 C-249.96 522.06 -249.96 522.06 -248.74 522.27 C-248.04 522.37 -247.34 522.47 -246.62 522.58 C-243.05 524.14 -242.03 527.69 -240.64 531.12 C-240.1 532.56 -240.1 532.56 -239.55 534.02 C-233.56 548.49 -223.63 557.4 -209.3 563.43 C-198.37 567.56 -188.76 567.16 -177.74 563.4 C-174.6 561.9 -171.56 560.32 -168.53 558.61 C-165.25 557.18 -163.29 556.89 -159.74 557.4 C-157.1 559.12 -157.1 559.12 -154.49 561.46 C-141.69 572.48 -129.83 579.97 -112.59 579.69 C-106.57 579.23 -101.94 577.12 -96.7 574.3 C-93.33 572.75 -90.29 572.59 -86.74 573.4 C-84.06 574.95 -81.67 576.7 -79.21 578.58 C-71.27 584.44 -63.5 586.42 -53.74 585.4 C-46.89 583.3 -42.22 579.38 -37.53 574.07 C-35.44 572.11 -34.62 571.47 -31.74 571.4 C-29.27 572.43 -27.02 573.5 -24.68 574.77 C-16.76 578.96 -10.78 580.4 -1.74 579.4 C6.67 576.75 12.78 571.58 18.98 565.57 C21.67 563.01 23.36 561.5 27.11 561.07 C30.82 561.46 32.59 562.52 35.63 564.65 C43.27 569.79 50.68 574.58 60.26 573.4 C68.54 570.93 73.3 564.45 77.82 557.46 C80.26 554.4 80.26 554.4 82.88 553.27 C86.98 553.43 90.48 554.47 94.4 555.62 C104.46 558.36 114.25 557.89 123.51 552.84 C132.29 547.01 136.01 539.54 139.22 529.81 C140.97 524.59 140.97 524.59 144.26 522.4 C146.83 522.04 149.36 521.76 151.95 521.52 C159.4 520.71 165.03 519.63 170.57 514.09 C174.76 507.42 175.66 502.33 176.05 494.48 C176.24 491.7 176.64 489.12 177.26 486.4 C178.45 486.14 178.45 486.14 179.67 485.88 C188.85 483.78 194.67 481.07 200.26 473.4 C201.33 470.24 201.39 467.28 201.38 463.96 C201.39 462.57 201.39 462.57 201.39 461.15 C201.26 458.46 200.85 456.03 200.26 453.4 C199.16 448.17 199.16 448.17 200.26 445.4 C203.08 443.22 205.96 441.64 209.14 440.04 C214.06 437.45 217.4 434.84 220.01 429.9 C220.42 429.15 220.82 428.39 221.24 427.62 C223.62 422.43 223.95 417.03 223.26 411.4 C221.18 408.53 219.22 407.37 216.26 405.4 C216.59 404.41 216.92 403.42 217.26 402.4 C217.96 402.37 218.66 402.35 219.38 402.32 C228.53 401.77 234.13 399.9 240.57 393.27 C246.19 386.5 247.43 380.38 247.13 371.71 C246.99 366.42 247.53 364.23 250.95 360.33 C255.22 354.04 256.26 343.87 255.26 336.4 C253.92 330.18 251.69 325.93 247.26 321.4 C246.47 320.97 245.69 320.53 244.88 320.09 C243.26 318.4 243.26 318.4 243.23 316.61 C243.42 315.07 243.64 313.53 243.88 312 C244.84 305.41 245.53 298.62 241.65 292.89 C237.24 288.16 231.13 285.8 225.26 283.4 C224.93 283.07 224.6 282.74 224.26 282.4 C224.28 280.57 224.31 278.75 224.37 276.92 C224.68 267.13 223.85 257.79 218.26 249.4 C215.79 249.15 215.79 249.15 213.01 249.4 C208.23 249.5 205.19 249.39 201.26 246.4 C197.69 241.86 195.37 236.74 193.26 231.4 C192.35 231.85 192.35 231.85 191.42 232.31 C183.53 235.89 177.86 235.75 169.63 233.34 C168.85 233.03 168.07 232.72 167.26 232.4 C168.07 239.61 170.07 246.44 172 253.42 C175.45 266.25 176.64 278.67 176.57 291.9 C176.57 292.65 176.57 293.39 176.56 294.16 C176.51 306.45 175.82 318.34 173.26 330.4 C172.96 331.82 172.96 331.82 172.66 333.26 C163.71 374.51 143.86 412.04 115.34 443.07 C113.91 444.67 112.54 446.31 111.21 447.99 C85.82 479.33 38.56 489.96 0.73 494.01 C-6.81 494.73 -14.36 494.75 -21.93 494.71 C-22.74 494.71 -23.54 494.71 -24.37 494.7 C-88.32 494.43 -152.15 463.68 -197.74 419.65 C-235.57 381.23 -255.26 325.38 -255.04 272.07 C-254.23 228.41 -233.79 184.67 -202.74 154.4 C-202.19 153.79 -201.64 153.18 -201.07 152.56 C-188.66 139.28 -172.9 130.34 -156.74 122.4 C-156.74 121.74 -156.74 121.08 -156.74 120.4 C-161.04 119.39 -163.72 119.19 -167.87 120.77 C-177.18 124.19 -187.61 124.62 -196.74 120.4 C-199.85 117.81 -200.65 116.98 -201.3 112.9 C-200.74 109.4 -200.74 109.4 -198.93 107.15 C-194.42 104.67 -189.73 103.55 -184.74 102.4 C-186.22 99.08 -188.13 96.64 -190.49 93.9 C-194.37 89.18 -196.9 84.36 -199.32 78.77 C-200.51 76.32 -200.51 76.32 -202.54 75.46 C-212.23 75.19 -223.92 81.17 -231.06 87.43 Z M-351.74 100.4 C-351.74 101.72 -351.74 103.04 -351.74 104.4 C-350.9 104.64 -350.06 104.89 -349.2 105.14 C-334.84 109.6 -321.61 116.4 -308.24 123.21 C-293.27 131.06 -293.27 131.06 -277.02 130.19 C-275.76 129.67 -274.5 129.13 -273.24 128.59 C-266.83 125.96 -260.67 124.38 -253.79 123.51 C-250.04 123.02 -250.04 123.02 -247.29 120.6 C-246.69 118.19 -246.65 116.31 -246.8 113.84 C-246.92 108.86 -245.95 104.68 -244.5 99.94 C-243.75 97.44 -243.24 94.96 -242.74 92.4 C-271.02 85.36 -328.55 75.48 -351.74 100.4 Z M-169.74 86.4 C-171.01 90.74 -170.39 93.37 -168.87 97.59 C-168.5 98.63 -168.13 99.68 -167.75 100.75 C-166.82 103.32 -166.82 103.32 -165.74 105.4 C-165.08 105.4 -164.42 105.4 -163.74 105.4 C-163.66 103.17 -163.6 100.94 -163.55 98.71 C-163.52 97.47 -163.49 96.23 -163.45 94.95 C-163.76 91.19 -164.36 89.3 -166.74 86.4 C-167.73 86.4 -168.72 86.4 -169.74 86.4 Z M-194.74 111.4 C-194.74 112.72 -194.74 114.04 -194.74 115.4 C-190.44 117.51 -186.5 117.7 -181.8 117.65 C-181.11 117.66 -180.42 117.66 -179.71 117.67 C-175.35 117.66 -171.8 117 -167.74 115.4 C-167.74 114.74 -167.74 114.08 -167.74 113.4 C-168.81 112.76 -169.89 112.12 -170.99 111.46 C-171.6 111.1 -172.2 110.74 -172.82 110.37 C-180.09 106.69 -187.74 107.83 -194.74 111.4 Z M-125.74 109.4 C-125.74 117.08 -122.36 123.35 -117.74 129.4 C-116.75 129.4 -115.76 129.4 -114.74 129.4 C-112.66 121.87 -112.66 121.87 -113.93 114.4 C-115.87 110.92 -115.87 110.92 -118.74 108.4 C-122.54 107.84 -122.54 107.84 -125.74 109.4 Z M-358.74 111.4 C-359.79 120.71 -359.13 127.77 -353.38 135.15 C-342.93 146.77 -326.71 152.63 -311.91 156.36 C-308.69 156.74 -308.69 156.74 -306.62 154.62 C-306.04 153.77 -305.46 152.91 -304.87 152.02 C-300.95 146.59 -296.57 142.02 -291.74 137.4 C-294.41 134.06 -297.94 132.98 -301.8 131.52 C-309.76 128.4 -317.32 124.66 -324.93 120.77 C-341.83 110.58 -341.83 110.58 -358.74 111.4 Z M-80.74 125.4 C-82.32 131.31 -80.55 135.14 -77.74 140.4 C-75.3 143.94 -72.76 147.33 -69.74 150.4 C-69.08 150.4 -68.42 150.4 -67.74 150.4 C-67.32 141.84 -68.04 135.77 -72.55 128.46 C-75.25 125.92 -77.11 125.65 -80.74 125.4 Z M-160.99 129.9 C-161.64 130.26 -162.28 130.62 -162.95 130.99 C-205.7 155.29 -232.49 193.55 -245.74 240.4 C-257.77 286.11 -244.68 339.09 -221.41 379.04 C-214.52 390.5 -206.48 401.28 -197.74 411.4 C-196.65 412.67 -196.65 412.67 -195.54 413.97 C-158.82 455.89 -95.08 484.88 -40.08 489.2 C7.58 492 61.42 484.95 98.67 452.57 C108.67 443.66 117.3 434.13 125.26 423.4 C125.75 422.74 126.24 422.08 126.75 421.41 C134.55 410.89 141.25 400.03 147.26 388.4 C147.64 387.67 148.02 386.94 148.42 386.19 C158.6 366.61 165.74 345.19 169.26 323.4 C169.43 322.39 169.43 322.39 169.6 321.37 C175.13 287.9 170.06 254.2 156.26 223.4 C155.26 222.18 155.26 222.18 153.28 222.3 C152.43 222.31 151.58 222.32 150.7 222.34 C149.28 222.35 149.28 222.35 147.84 222.36 C145.86 222.38 143.88 222.41 141.91 222.44 C136.32 222.48 130.96 222.25 125.43 221.42 C122.8 221.39 121.47 222.01 119.26 223.4 C118.49 224.16 117.73 224.92 116.95 225.71 C109.34 233.31 100.64 237.55 89.76 237.84 C84.84 237.83 84.84 237.83 82.44 236.05 C80.56 233.42 80.82 231.54 81.26 228.4 C84.93 221.55 93.38 219.09 100.26 216.4 C95.94 213.52 91.24 212 86.38 210.21 C85.39 209.83 84.4 209.45 83.37 209.06 C82.41 208.7 81.45 208.35 80.45 207.98 C79.58 207.65 78.7 207.33 77.8 206.99 C74.89 206.31 73.1 206.56 70.26 207.4 C68.18 208.65 68.18 208.65 66.2 210.21 C56.84 216.73 45.51 219.08 34.26 218.4 C31.26 217.77 31.26 217.77 29.26 216.4 C27.76 213.59 27.76 213.59 27.26 210.4 C28.79 205.92 31.99 203.85 35.92 201.54 C39.87 199.62 44.01 198.47 48.26 197.4 C45.89 194.67 43.7 193.59 40.33 192.36 C39.37 192 38.41 191.65 37.42 191.29 C36.42 190.93 35.41 190.58 34.38 190.21 C33.39 189.84 32.4 189.47 31.37 189.1 C24.99 186.69 24.99 186.69 18.26 186.4 C17.7 187.1 17.14 187.8 16.57 188.52 C11.12 195.3 0.45 200.71 -8.23 201.68 C-11.93 201.73 -15.17 201.38 -18.74 200.4 C-20.09 193.19 -20.09 193.19 -18.63 189.83 C-16.33 186.87 -14.24 185.75 -10.87 184.15 C-9.84 183.65 -8.81 183.15 -7.75 182.63 C-5.04 181.52 -2.62 180.84 0.26 180.4 C-0.58 178.17 -0.58 178.17 -3 177.51 C-6.18 176.57 -9.36 175.63 -12.55 174.71 C-13.66 174.38 -14.77 174.04 -15.91 173.7 C-16.97 173.39 -18.04 173.08 -19.14 172.76 C-20.6 172.33 -20.6 172.33 -22.1 171.9 C-24.79 171.39 -26.21 171.41 -28.74 172.4 C-30.53 174.05 -30.53 174.05 -32.24 176.09 C-37.56 181.61 -44.97 186.58 -52.87 186.96 C-53.82 186.78 -54.76 186.59 -55.74 186.4 C-57.74 183.4 -57.74 183.4 -57.87 180.65 C-56.43 176.49 -54.22 174.81 -50.85 172.11 C-48.66 170.33 -46.71 168.42 -44.74 166.4 C-47.94 165.36 -51.15 164.34 -54.37 163.34 C-55.72 162.89 -55.72 162.89 -57.11 162.44 C-63.85 160.35 -63.85 160.35 -70.74 161.4 C-73.23 162.67 -73.23 162.67 -75.55 164.27 C-82.72 168.74 -89.24 171.22 -97.74 170.4 C-100.31 169.62 -102.34 168.67 -104.74 167.4 C-106.31 164.26 -106.09 161.86 -105.74 158.4 C-102.87 154.71 -100.19 152.8 -95.74 151.4 C-95.74 150.74 -95.74 150.08 -95.74 149.4 C-98.11 148.39 -100.49 147.39 -102.87 146.4 C-103.86 145.97 -103.86 145.97 -104.88 145.53 C-108.97 143.85 -112.27 142.65 -116.74 143.4 C-119.97 144.94 -122.97 146.8 -125.99 148.71 C-134.6 154.12 -143.65 159.1 -154.12 156.9 C-154.65 156.73 -155.19 156.57 -155.74 156.4 C-156.21 152.5 -155.94 150.72 -153.87 147.34 C-148.38 141.43 -140.27 139.01 -132.68 137.07 C-130.54 136.58 -130.54 136.58 -129.74 134.4 C-132.23 133.04 -134.73 131.72 -137.24 130.4 C-137.94 130.02 -138.63 129.64 -139.35 129.24 C-147.24 125.15 -153.15 125.33 -160.99 129.9 Z M-43.74 141.4 C-44.07 141.73 -44.4 142.06 -44.74 142.4 C-44.38 148.54 -42.69 152.66 -38.14 156.88 C-36.71 158.09 -35.23 159.25 -33.74 160.4 C-32.19 156.04 -33.13 152.76 -34.65 148.56 C-36.4 145.1 -38.53 143.52 -41.74 141.4 C-42.4 141.4 -43.06 141.4 -43.74 141.4 Z M-148.74 149.4 C-148.74 150.06 -148.74 150.72 -148.74 151.4 C-140.08 151.25 -134.04 147.72 -126.74 143.4 C-126.74 143.07 -126.74 142.74 -126.74 142.4 C-134.4 141.57 -142.52 145.11 -148.74 149.4 Z M3.26 149.4 C1.07 152.06 1.07 152.06 1.29 154.31 C3.23 163.21 8.02 170.82 14.26 177.4 C14.92 177.4 15.58 177.4 16.26 177.4 C16.37 174.54 16.45 171.69 16.51 168.84 C16.54 168.04 16.57 167.24 16.61 166.41 C16.71 160.53 15.66 157.22 12.26 152.4 C8.84 149.75 7.67 149.4 3.26 149.4 Z M-99.74 159.4 C-100.79 161.42 -100.79 161.42 -100.74 163.4 C-98.92 165.22 -96.26 164.7 -93.8 164.77 C-87.03 164.76 -82.41 162.98 -76.74 159.4 C-77.07 158.41 -77.4 157.42 -77.74 156.4 C-80.28 156.32 -82.82 156.26 -85.37 156.21 C-86.44 156.17 -86.44 156.17 -87.53 156.13 C-92.34 156.07 -95.57 156.73 -99.74 159.4 Z M181.26 166.4 C178.28 170.41 176.91 174 177.26 179.02 C178.31 185.04 181.12 188.73 186.01 192.27 C187.08 192.97 188.15 193.68 189.26 194.4 C189.92 193.99 190.58 193.57 191.26 193.15 C196.4 190.15 201.68 187.49 207.26 185.4 C207.62 178.94 207.61 173.11 204.26 167.4 C199.48 162.86 196.22 162.03 189.8 162.13 C185.95 162.54 184.05 163.74 181.26 166.4 Z M54.26 170.4 C51.97 172.69 51.87 173.28 51.7 176.4 C51.82 182.68 55.36 186.74 59.26 191.4 C59.73 191.97 60.21 192.55 60.7 193.14 C62.04 194.7 62.04 194.7 64.26 196.4 C65.58 196.4 66.9 196.4 68.26 196.4 C68.78 187.87 68.67 180.43 62.8 173.73 C59.75 170.96 58.47 170.4 54.26 170.4 Z M219.51 177.15 C215.93 182.32 215.93 182.32 215.26 188.4 C216.77 190.54 218.44 192.08 220.43 193.79 C222.62 195.72 223.93 197.81 225.26 200.4 C232.38 200.04 236.8 195.79 241.7 191.02 C243.76 187.56 244.45 184.38 244.26 180.4 C243.1 176.48 242.13 174.17 239.07 171.46 C230.56 168.24 225.62 171.03 219.51 177.15 Z M-51.74 179.4 C-51.74 180.06 -51.74 180.72 -51.74 181.4 C-45.21 180.15 -40.53 177 -35.74 172.4 C-35.74 171.74 -35.74 171.08 -35.74 170.4 C-41.72 170.4 -47.63 175.49 -51.74 179.4 Z M-13.74 192.4 C-13.41 193.72 -13.08 195.04 -12.74 196.4 C-4.76 196.13 1.49 193.64 8.26 189.4 C8.92 188.41 9.58 187.42 10.26 186.4 C3.05 182.79 -8.43 187.08 -13.74 192.4 Z M98.26 190.4 C98.42 198.24 102.77 202.86 108.1 208.27 C111.31 211.2 113.75 213.13 118.26 213.4 C118.83 205.79 117.29 198.76 112.87 192.4 C110.52 189.83 108.43 188.46 105.13 187.34 C101.79 187.41 100.63 188.12 98.26 190.4 Z M195.61 198.2 C193.1 202.28 193.67 206.79 194.26 211.4 C196.12 215.58 197.59 217 201.51 219.34 C205.81 220.56 209.01 220.89 213.26 219.4 C216.62 216.61 219.05 214.45 219.5 210.01 C219.62 205.42 219.59 202.14 217.7 197.9 C214.17 194.28 210.64 192.81 205.7 191.96 C201.48 192.72 198.46 195.08 195.61 198.2 Z M167.32 207.52 C165 211.63 164.62 215.79 165.26 220.4 C167.29 224.24 169.38 227.35 173.26 229.4 C179.28 230.78 182.74 230.58 188.26 227.4 C190.86 225.23 190.86 225.23 192.26 222.4 C192.18 218.78 191.25 216.38 189.76 213.09 C188.02 208.81 187.56 204.97 187.26 200.4 C178.75 199.61 173.17 201.11 167.32 207.52 Z M33.26 209.4 C33.26 210.39 33.26 211.38 33.26 212.4 C39.7 215.62 47.48 212.43 53.89 210.57 C57.19 209.42 60.18 208.03 63.26 206.4 C63.26 205.74 63.26 205.08 63.26 204.4 C52.66 200.87 42.24 203.41 33.26 209.4 Z M227.26 207.4 C226.56 208.98 225.87 210.56 225.2 212.15 C224.81 213.03 224.43 213.91 224.04 214.82 C223.2 217.59 223.14 218.76 224.26 221.4 C229.44 226.3 234.15 227.87 241.17 227.73 C243.49 227.53 243.49 227.53 245.76 225.52 C248.48 221.66 248.73 219.15 248.26 214.4 C246.25 210.92 244.14 208.69 240.26 207.4 C238.03 207.33 235.8 207.31 233.57 207.34 C232.39 207.34 231.21 207.35 230 207.36 C229.09 207.37 228.19 207.39 227.26 207.4 Z M87.26 228.4 C86.93 229.39 86.6 230.38 86.26 231.4 C87.42 232.76 87.42 232.76 90.57 232.77 C99.02 232.67 107.37 228.29 113.26 222.4 C113.26 222.07 113.26 221.74 113.26 221.4 C103.71 220.65 95.18 222.91 87.26 228.4 Z M212.26 225.4 C210.22 225.47 208.17 225.48 206.13 225.46 C205.04 225.45 203.94 225.44 202.81 225.43 C201.55 225.42 201.55 225.42 200.26 225.4 C199.78 231.9 200.71 236.83 204.26 242.4 C206.85 244.4 208.26 244.49 211.47 244.19 C214.93 243.59 217.54 242.96 220.32 240.77 C222.3 235.75 221.82 231.71 219.76 226.9 C219.26 226.07 218.77 225.25 218.26 224.4 C214.48 224.1 214.48 224.1 212.26 225.4 Z M228.26 231.4 C226.67 232.99 226.68 234.91 226.26 237.09 C226.09 237.94 225.93 238.78 225.76 239.66 C225.59 240.56 225.43 241.47 225.26 242.4 C225.02 243.34 224.79 244.28 224.55 245.25 C224.18 249.27 225.2 252.34 226.63 256.02 C226.9 256.73 227.18 257.43 227.46 258.15 C230.31 265.12 234.33 270.72 239.26 276.4 C239.71 276.93 240.17 277.46 240.64 278.01 C255.91 295.66 272.09 305.64 294.04 313.19 C302.41 316.1 310.69 319.27 318.38 323.71 C321.63 325.76 321.63 325.76 325.26 326.4 C324.65 314.85 314.97 306.3 307.01 298.95 C303.28 295.65 299.31 292.7 295.32 289.72 C278.58 277.02 266.34 260.27 254.32 243.25 C253.66 242.34 253.66 242.34 252.99 241.42 C251.85 239.83 250.72 238.24 249.6 236.64 C246.52 233.69 244.45 233.67 240.26 233.4 C237.08 232.84 233.91 232.28 230.73 231.7 C229.92 231.6 229.1 231.5 228.26 231.4 Z M230.26 276.4 C230.59 277.72 230.92 279.04 231.26 280.4 C233.24 280.89 233.24 280.89 235.26 281.4 C234.47 279.4 234.47 279.4 233.26 277.4 C232.27 277.07 231.28 276.74 230.26 276.4 Z M250.26 296.4 C250.27 297 250.28 297.61 250.29 298.23 C250.34 302.86 250.16 307.15 249.38 311.71 C249.03 314.17 249.03 314.17 249.26 316.4 C251.61 318.87 251.61 318.87 253.59 320.06 C255.7 321.76 256.39 323.45 257.51 325.9 C262.22 334.76 273.17 336.54 282.16 339.3 C283.79 339.78 285.42 340.27 287.05 340.75 C288.91 341.3 290.77 341.87 292.62 342.45 C301.14 344.89 312.39 346.96 320.57 342.65 C323.01 340.61 324.29 339.4 325.26 336.4 C318.1 326.38 305.11 322.24 293.81 318.55 C278.78 313.62 265.19 308.32 253.02 297.87 C251.51 296.29 251.51 296.29 250.26 296.4 Z M-393.48 425.99 C-405.13 438.41 -406.18 452.3 -406.58 468.5 C-406.74 470.4 -406.74 470.4 -407.74 473.4 C-411.4 474.62 -414.7 474.45 -418.5 474.36 C-420.09 474.33 -421.68 474.31 -423.28 474.29 C-425.77 474.25 -428.25 474.21 -430.74 474.15 C-445.6 473.81 -461.03 474.82 -474.3 482.21 C-474.96 482.56 -475.61 482.9 -476.28 483.26 C-491.78 491.69 -500.79 503.4 -506.12 520.21 C-508.14 527.99 -507.9 535.56 -507.24 543.54 C-507.1 546.35 -507.06 548.67 -507.74 551.4 C-510.08 553.81 -512.71 555.03 -515.74 556.4 C-529.09 565 -538.6 576.16 -542.37 591.84 C-543.32 598.41 -542.8 605.17 -542.63 611.79 C-542.58 613.8 -542.55 615.81 -542.52 617.82 C-542.49 619.01 -542.46 620.2 -542.43 621.43 C-542.74 624.4 -542.74 624.4 -544.08 626.24 C-546.49 627.92 -549.02 628.63 -551.8 629.52 C-563.92 634.03 -572.84 644.13 -578.49 655.59 C-585.07 671.19 -585.76 688.25 -580.74 704.4 C-579.26 707.86 -577.68 711.22 -575.95 714.56 C-574.68 717.55 -574.17 719.2 -574.74 722.4 C-576.46 724.43 -576.46 724.43 -578.8 726.46 C-589.78 736.93 -594.64 750.5 -595.21 765.46 C-595.45 785.2 -588.36 802.99 -574.74 817.4 C-573.62 818.41 -572.48 819.39 -571.3 820.34 C-567.55 823.36 -567.55 823.36 -566.74 826.4 C-567.03 830.13 -567.75 833.44 -568.8 837.02 C-571.3 846.78 -570.6 857.71 -565.52 866.51 C-557.58 877.88 -545.52 885.46 -532.74 890.4 C-532.72 891.28 -532.69 892.16 -532.66 893.07 C-531.98 907.48 -528 918.6 -517.32 928.69 C-512.67 932.55 -507.85 935.68 -502.46 938.39 C-500.74 939.4 -500.74 939.4 -499.74 941.4 C-499.62 942.94 -499.56 944.48 -499.53 946.03 C-498.96 966.87 -498.05 989.82 -481.83 1005.21 C-466.93 1017.06 -448.41 1016.56 -430.37 1014.71 C-429.39 1014.58 -428.41 1014.46 -427.41 1014.32 C-423.88 1014.42 -422.46 1015.13 -419.74 1017.4 C-418.19 1019.83 -417.04 1022.39 -415.87 1025.02 C-409.23 1039.01 -401.04 1047.69 -386.44 1053.45 C-381.69 1055.12 -377.62 1055.56 -372.55 1055.77 C-358.94 1056.59 -358.94 1056.59 -354.15 1060.8 C-352.56 1062.6 -351.15 1064.45 -349.74 1066.4 C-338.69 1081.48 -325.07 1089.02 -306.69 1091.89 C-292.54 1093.7 -279.57 1091.46 -266.43 1086.21 C-254.79 1081.68 -254.79 1081.68 -248.74 1083.4 C-245.1 1085.22 -241.65 1087.23 -238.19 1089.36 C-222.87 1098.65 -204.81 1098.9 -187.84 1094.96 C-180.36 1092.96 -173.12 1089.78 -166.37 1086.02 C-161.27 1083.74 -156.71 1083.38 -151.36 1085.22 C-148.92 1086.33 -146.55 1087.52 -144.18 1088.77 C-130.23 1095.98 -115.25 1098.09 -99.8 1093.96 C-88.71 1089.91 -80 1082.57 -72.74 1073.4 C-67.9 1067.48 -67.9 1067.48 -65.74 1066.4 C-59.65 1065.86 -54.5 1066.87 -48.62 1068.4 C-31.43 1072.72 -15.31 1070.38 0.12 1061.51 C12.03 1053.49 20.78 1042.49 28.52 1030.53 C31.21 1027.24 33.91 1025.61 38.13 1024.94 C39.16 1024.9 40.2 1024.85 41.27 1024.81 C42.43 1024.75 43.59 1024.69 44.79 1024.63 C46.02 1024.57 47.24 1024.52 48.51 1024.46 C69.6 1023.21 88.53 1019.25 105.26 1005.4 C105.9 1004.88 106.55 1004.36 107.21 1003.82 C118.82 993.44 123.71 977.41 125.07 962.4 C125.31 957.74 125.22 953.21 124.95 948.55 C124.89 947.53 124.83 946.5 124.77 945.44 C124.64 943.41 124.49 941.37 124.31 939.34 C124.01 934.78 123.89 932.13 125.98 927.97 C128.05 925.63 130.14 923.45 132.45 921.34 C144.25 909.7 150.53 897.31 150.76 880.59 C150.65 868.37 147.75 857.66 143.02 846.44 C141.94 843.54 141.7 841.45 142.26 838.4 C144.2 835.32 146.28 832.37 148.41 829.43 C162.46 809.92 168.69 787.78 165.83 763.83 C164.34 756.38 161.39 750.24 157.68 743.69 C155.15 737.84 155.97 733.43 158.24 727.6 C158.51 726.92 158.79 726.23 159.07 725.52 C166.76 705.02 167.9 682.9 159.26 662.4 C155.53 654.67 150.6 648.39 143.02 644.14 C141.26 642.4 141.26 642.4 140.86 639.14 C141.27 635.24 142.19 632.22 143.63 628.59 C149.79 611.93 151.52 590.73 144.13 574.09 C141.4 569.06 137.81 565.77 133.26 562.4 C132.45 561.74 131.65 561.08 130.82 560.4 C126.03 558.53 121.01 559.81 116.26 561.4 C113.03 561.63 109.8 561.58 106.57 561.59 C105.7 561.6 104.82 561.61 103.92 561.62 C98.32 561.64 93.65 560.85 88.26 559.4 C85.62 558.71 85.62 558.71 83.26 559.4 C81.42 561.44 79.96 563.33 78.45 565.59 C73.92 571.91 69.88 575.86 62.26 578.4 C49.79 579.66 41.76 575.14 31.92 567.91 C29.46 566.22 29.46 566.22 27.16 566.44 C24.76 567.65 23.13 569.15 21.2 571.02 C11 580.38 1.93 584.9 -11.97 584.72 C-18.32 584.18 -23.29 582.03 -28.55 578.52 C-30.68 577.15 -30.68 577.15 -33.05 577.77 C-35.54 579.28 -37.36 580.82 -39.49 582.77 C-46.9 589.37 -53.39 591.11 -63.32 590.78 C-72.26 589.79 -82.36 584.78 -88.74 578.4 C-92.88 578.65 -95.77 579.29 -99.37 581.34 C-108.24 586.02 -118.29 586.22 -127.74 583.4 C-138.43 579.76 -147.48 574.27 -155.99 566.9 C-159.62 563.93 -159.62 563.93 -164.18 563.09 C-168.25 564.58 -172.14 566.35 -176.06 568.19 C-187.37 573.29 -200.2 572.57 -211.74 568.4 C-224.35 562.87 -235.06 554.62 -241.74 542.4 C-242.56 539.94 -243.37 537.48 -244.18 535.02 C-246 530.47 -246.79 528.82 -251.32 526.79 C-254.79 525.89 -258.31 525.33 -261.84 524.76 C-271.35 522.94 -279.58 515.68 -285.41 508.29 C-292.67 497.33 -292.02 484.95 -290.74 472.4 C-292.35 471.64 -292.35 471.64 -294 470.86 C-308.35 463.97 -316.91 457.24 -323.18 441.96 C-325.64 434.49 -326.11 426.94 -323.05 419.59 C-321 415.56 -318.49 411.98 -315.74 408.4 C-322.05 405.66 -327.52 404.81 -334.37 404.59 C-335.34 404.55 -336.31 404.52 -337.31 404.48 C-359.27 403.9 -377.4 410.89 -393.48 425.99 Z M-468.74 1019.4 C-470.28 1022.48 -469.93 1025.73 -469.95 1029.11 C-469.95 1029.9 -469.96 1030.7 -469.97 1031.51 C-469.98 1034.12 -469.99 1036.73 -469.99 1039.34 C-469.99 1040.22 -469.99 1041.11 -470 1042.02 C-469.99 1055.13 -469.52 1068.15 -468.43 1081.21 C-468.37 1081.96 -468.31 1082.72 -468.25 1083.49 C-468.08 1085.62 -467.89 1087.74 -467.69 1089.86 C-467.58 1091.05 -467.47 1092.25 -467.36 1093.48 C-466.71 1096.54 -466.31 1097.66 -463.74 1099.4 C-461.1 1099.71 -458.76 1099.82 -456.12 1099.77 C-455.35 1099.77 -454.58 1099.76 -453.78 1099.75 C-442.19 1099.5 -428.79 1099.08 -417.74 1095.4 C-417.7 1093.88 -417.7 1093.88 -417.67 1092.34 C-417.59 1089.33 -417.51 1086.32 -417.44 1083.31 C-417.35 1079.9 -417.27 1076.48 -417.19 1073.07 C-416.85 1058.66 -416.85 1058.66 -416.14 1051.86 C-414.86 1039.51 -416.73 1030.29 -424.74 1020.4 C-428.48 1018.71 -432.29 1019.62 -436.26 1020.13 C-440.58 1020.6 -444.9 1020.54 -449.24 1020.52 C-450.13 1020.53 -451.01 1020.53 -451.93 1020.54 C-457.61 1020.53 -463.11 1020.12 -468.74 1019.4 Z M5.26 1064.4 C3.16 1065.39 1.1 1066.47 -0.93 1067.59 C-14.93 1074.86 -29.07 1077.05 -44.62 1074.77 C-45.65 1074.65 -46.68 1074.53 -47.74 1074.4 C-53.06 1079.72 -50.85 1095.32 -50.87 1102.59 C-50.85 1106.86 -50.8 1111.13 -50.74 1115.4 C-50.73 1116.4 -50.72 1117.4 -50.7 1118.43 C-50.44 1135.34 -49.16 1152.17 -47.8 1169.02 C-47.72 1170.11 -47.63 1171.19 -47.55 1172.3 C-47.3 1175.43 -47.04 1178.56 -46.78 1181.69 C-46.7 1182.62 -46.63 1183.55 -46.55 1184.51 C-46.03 1190.58 -45.06 1196.45 -43.74 1202.4 C-37.28 1204.88 -31.08 1204.73 -24.28 1204.71 C-22.14 1204.71 -20.01 1204.73 -17.88 1204.76 C-6.79 1204.81 3.9 1203.85 13.26 1197.4 C16.23 1191.46 14.13 1181.89 13.71 1175.38 C13.59 1173.39 13.46 1171.41 13.34 1169.43 C13.28 1168.39 13.21 1167.34 13.15 1166.27 C12.15 1150.19 11.22 1134.1 10.43 1118.01 C10.39 1117.33 10.36 1116.65 10.32 1115.95 C9.96 1108.61 9.61 1101.28 9.26 1093.94 C9.2 1092.7 9.14 1091.47 9.08 1090.19 C8.97 1087.88 8.86 1085.57 8.75 1083.26 C8.46 1077.28 8.17 1071.33 7.26 1065.4 C6.6 1065.07 5.94 1064.74 5.26 1064.4 Z M-340.74 1085.4 C-352.27 1114.61 -349.99 1155.37 -350.18 1186.21 C-350.19 1187.25 -350.2 1188.3 -350.22 1189.37 C-350.25 1192.33 -350.25 1195.28 -350.24 1198.23 C-350.25 1199.12 -350.26 1200 -350.27 1200.91 C-350.33 1205.61 -350.33 1205.61 -347.91 1209.41 C-334.1 1215.69 -314.29 1215.24 -299.96 1211.35 C-297.4 1210.25 -296.4 1209.65 -294.74 1207.4 C-294.24 1204.71 -293.9 1202.2 -293.68 1199.48 C-293.56 1198.29 -293.56 1198.29 -293.45 1197.07 C-293.28 1195.37 -293.13 1193.68 -292.97 1191.98 C-292.75 1189.49 -292.51 1186.99 -292.26 1184.5 C-291.74 1179.35 -291.25 1174.2 -290.76 1169.04 C-290.67 1168.11 -290.59 1167.19 -290.5 1166.24 C-290.03 1161.37 -289.58 1156.5 -289.12 1151.63 C-288.74 1147.62 -288.36 1143.61 -287.97 1139.61 C-287.51 1134.72 -287.04 1129.84 -286.59 1124.95 C-286.41 1123.11 -286.24 1121.26 -286.06 1119.41 C-285.81 1116.84 -285.57 1114.26 -285.33 1111.69 C-285.26 1110.93 -285.18 1110.18 -285.1 1109.4 C-284.73 1105.21 -284.85 1101.52 -285.74 1097.4 C-287.02 1097.43 -288.3 1097.47 -289.62 1097.5 C-306.98 1097.84 -324.26 1095.97 -338.74 1085.4 C-339.4 1085.4 -340.06 1085.4 -340.74 1085.4 Z M-94.19 1096.89 C-101.71 1100.08 -108.73 1100.73 -116.83 1100.96 C-120.62 1101.12 -122.52 1101.25 -125.74 1103.4 C-126.15 1106 -126.15 1106 -125.99 1108.9 C-125.98 1109.88 -125.96 1110.86 -125.95 1111.87 C-125.9 1114.39 -125.9 1114.39 -124.74 1116.4 C-114.85 1116.72 -105.24 1116.45 -95.43 1115.09 C-94.54 1114.97 -93.65 1114.85 -92.74 1114.73 C-88.21 1114.05 -84.35 1113.44 -80.74 1110.4 C-79.98 1104.22 -81.36 1098.42 -82.74 1092.4 C-86.78 1092.4 -90.62 1095.15 -94.19 1096.89 Z M-434.05 1103.34 C-443.93 1104.53 -453.81 1105 -463.74 1105.4 C-465.07 1109.39 -464.08 1112.44 -463.12 1116.4 C-462.94 1117.16 -462.75 1117.92 -462.57 1118.7 C-460.58 1126.62 -457.84 1133.94 -452.74 1140.4 C-449.38 1138.96 -447.15 1137.15 -444.74 1134.4 C-444.74 1133.74 -444.74 1133.08 -444.74 1132.4 C-442 1131.46 -440.59 1131.1 -437.74 1131.4 C-434.54 1133.05 -431.6 1134.91 -428.61 1136.93 C-425.87 1138.62 -425.87 1138.62 -422.98 1138.32 C-420.38 1137.52 -420.38 1137.52 -418.99 1134.21 C-416.33 1127.36 -416.62 1120.25 -416.68 1113.02 C-416.68 1112 -416.69 1110.98 -416.69 1109.93 C-416.71 1107.42 -416.72 1104.91 -416.74 1102.4 C-422.62 1102.31 -428.23 1102.58 -434.05 1103.34 Z M-89.13 1118.92 C-89.98 1119.06 -90.83 1119.19 -91.7 1119.33 C-93.05 1119.55 -93.05 1119.55 -94.43 1119.77 C-102.16 1120.98 -109.76 1121.81 -117.59 1121.93 C-119.77 1121.97 -119.77 1121.97 -122.74 1122.4 C-125.06 1125.88 -124.74 1127.14 -124 1131.11 C-123.85 1131.82 -123.71 1132.54 -123.55 1133.27 C-123.43 1133.98 -123.3 1134.69 -123.17 1135.42 C-122.36 1139.58 -121.39 1142.98 -118.74 1146.4 C-112.82 1147.63 -108.8 1145.14 -103.52 1142.59 C-98.63 1140.5 -94.02 1139.64 -88.93 1141.34 C-88.21 1141.69 -87.49 1142.04 -86.74 1142.4 C-85.42 1142.4 -84.1 1142.4 -82.74 1142.4 C-80.97 1137.08 -80.48 1132.54 -80.62 1126.96 C-80.63 1126.23 -80.64 1125.5 -80.64 1124.74 C-80.67 1122.96 -80.7 1121.18 -80.74 1119.4 C-83.79 1118.46 -85.99 1118.4 -89.13 1118.92 Z M3.23 1207.32 C-6.28 1209.94 -15.45 1209.85 -25.24 1209.65 C-26.95 1209.63 -28.66 1209.61 -30.37 1209.59 C-34.5 1209.55 -38.62 1209.48 -42.74 1209.4 C-42.29 1216.88 -41.42 1223.92 -39.43 1231.15 C-39.23 1231.93 -39.03 1232.72 -38.82 1233.53 C-37.2 1239.58 -35.25 1245.89 -30.74 1250.4 C-28.15 1250.19 -27.06 1249.76 -25.32 1247.8 C-24.88 1247.18 -24.44 1246.55 -23.99 1245.9 C-21.59 1242.98 -20.86 1242.44 -17.05 1241.27 C-12.63 1241.06 -8.69 1242.42 -4.49 1243.68 C-0.51 1244.72 3.19 1245.26 7.26 1244.4 C11.06 1241.73 12.68 1239.15 13.88 1234.7 C14.74 1229.51 14.46 1224.21 14.38 1218.96 C14.37 1217.75 14.36 1216.54 14.36 1215.3 C14.33 1212.33 14.3 1209.37 14.26 1206.4 C10.23 1204.8 7.25 1206.11 3.23 1207.32 Z M-348.74 1215.4 C-349.51 1228.91 -349.4 1254.62 -340.12 1265.26 C-339.66 1265.64 -339.21 1266.01 -338.74 1266.4 C-333.71 1265.18 -331.57 1262.03 -328.59 1258.08 C-326.74 1256.4 -326.74 1256.4 -324.34 1255.89 C-320.79 1256.59 -319.26 1258.21 -316.68 1260.71 C-311.68 1266.11 -311.68 1266.11 -305.18 1268.59 C-301.95 1267.01 -301.57 1265.08 -300.43 1261.8 C-299.2 1257.48 -298.65 1253.1 -298.12 1248.65 C-297.99 1247.66 -297.87 1246.66 -297.74 1245.64 C-296.57 1235.91 -296.05 1226.18 -295.74 1216.4 C-297.57 1216.62 -297.57 1216.62 -299.43 1216.84 C-300.11 1216.92 -300.8 1217 -301.5 1217.08 C-303.08 1217.31 -304.65 1217.59 -306.21 1217.92 C-318.1 1220.17 -331.27 1218.86 -342.94 1216.05 C-345.75 1215.28 -345.75 1215.28 -348.74 1215.4 Z " fill="#000000" transform="translate(600.7421875,5.6015625)"/>
<path d="M0 0 C7.44 3.97 13.53 8.44 16.3 16.76 C17.14 24.68 14.6 30.4 9.84 36.71 C0.78 46.6 -11.02 50.17 -23.7 52.76 C-21.42 59.19 -17.79 62.25 -11.71 65.22 C-5.92 67.67 -0.66 69.88 5.68 69.89 C6.5 69.9 7.32 69.9 8.17 69.9 C9.02 69.89 9.87 69.89 10.74 69.89 C12.01 69.89 12.01 69.89 13.31 69.9 C17.43 69.89 21.28 69.8 25.3 68.76 C25.96 70.08 26.62 71.4 27.3 72.76 C23.23 77.45 17.53 77.57 11.62 78.07 C6.55 77.96 1.67 76.61 -3.23 75.42 C-9.38 74.25 -13.76 74.37 -19.38 77.2 C-26.94 80.95 -34.02 82.05 -42.39 80.15 C-49.55 77.66 -54.19 73.46 -57.75 66.78 C-58.93 63.96 -59.72 61.62 -59.63 58.54 C-59.56 55.87 -59.63 54.23 -60.7 51.76 C-63.83 49.31 -66.88 47.55 -70.4 45.68 C-73.79 43.71 -76.17 41.75 -78.7 38.76 C-78.51 35.95 -78.51 35.95 -77.7 33.76 C-74.15 34.36 -72.36 35.71 -69.7 38.07 C-60.26 45.55 -50.41 46.39 -38.7 45.76 C-39.75 43.64 -40.82 41.53 -41.91 39.43 C-42.34 38.61 -42.76 37.79 -43.2 36.95 C-43.62 36.14 -44.04 35.33 -44.48 34.49 C-48.25 26.04 -49.42 16.22 -47.01 7.19 C-44.56 1.83 -40.75 -1.72 -35.47 -4.35 C-24.09 -8 -10.5 -4.82 0 0 Z M-45.23 52.54 C-47.7 52.76 -47.7 52.76 -50.44 52.73 C-52.67 52.5 -52.67 52.5 -53.7 53.76 C-54.3 59.65 -53.24 64.07 -49.7 68.76 C-44.33 73.14 -39.16 75.1 -32.26 75.06 C-27.75 74.53 -23.78 72.67 -19.7 70.76 C-19.7 69.77 -19.7 68.78 -19.7 67.76 C-20.42 67.18 -21.14 66.61 -21.88 66.01 C-26.63 62.22 -29.77 57.54 -31.7 51.76 C-36.27 51.64 -40.69 52.03 -45.23 52.54 Z " fill="#000000" transform="translate(572.6953125,309.23828125)"/>
<path d="M0 0 C0.5 0.43 1 0.87 1.51 1.31 C2.35 2.03 3.18 2.75 4.04 3.49 C15.21 13.9 22.07 26.87 26.51 41.31 C26.78 42.17 27.05 43.03 27.32 43.91 C31.58 60.91 28.23 79.17 19.63 94.17 C15.84 99.79 11.33 104.56 6.51 109.31 C5.83 109.99 5.15 110.67 4.45 111.37 C-13.67 128.33 -38.72 132.07 -62.53 131.69 C-87.36 130.73 -111.06 119.65 -129.49 103.31 C-130.19 102.69 -130.9 102.06 -131.63 101.42 C-146.12 87.81 -155.43 68.45 -156.72 48.65 C-157.13 27.7 -149.66 11 -135.18 -4.1 C-98.12 -39.63 -36.58 -31.25 0 0 Z M-111.49 -12.69 C-112.42 -12.27 -113.35 -11.85 -114.31 -11.42 C-122.26 -7.48 -128.27 -1.9 -134.49 4.31 C-135.11 4.92 -135.73 5.53 -136.36 6.15 C-146.27 16.7 -150.08 31.45 -149.99 45.56 C-149.98 46.56 -149.97 47.56 -149.97 48.6 C-149.76 57.3 -148.14 64.34 -144.49 72.31 C-143.74 73.98 -143.74 73.98 -142.98 75.69 C-138.78 84.26 -133.2 90.67 -126.49 97.31 C-125.3 98.52 -125.3 98.52 -124.08 99.74 C-105.18 117.9 -78.98 126.04 -53.15 125.72 C-29.97 124.97 -8.71 117.41 7.51 100.31 C10.14 97.12 12.39 93.85 14.51 90.31 C14.99 89.53 15.46 88.75 15.94 87.95 C23.67 73.96 24.41 57.53 20.42 42.29 C17.13 30.93 11.47 21.05 3.51 12.31 C2.7 11.41 1.89 10.5 1.05 9.57 C-16.29 -8.79 -41.8 -19.85 -66.93 -20.91 C-82.6 -21.33 -97.14 -19.25 -111.49 -12.69 Z " fill="#000000" transform="translate(601.4853515625,316.68896484375)"/>
<path d="M0 0 C2.75 1.69 2.75 1.69 4.45 3.29 C8.22 5.58 12.06 4.85 16.35 4.66 C20.11 4.54 21.52 4.54 24.75 6.69 C24.5 10.43 24.33 12.16 21.5 14.73 C20.59 15.3 19.68 15.86 18.75 16.44 C15.14 18.5 15.14 18.5 12.75 21.69 C12.51 23.81 12.28 25.94 12.06 28.06 C10.59 38.62 6.39 48.1 -2.25 54.69 C-6.95 57.58 -11.9 57.3 -17.25 56.69 C-23.29 53.89 -26.9 49 -29.37 42.95 C-30.37 39.23 -30.59 35.76 -30.56 31.94 C-30.56 31.23 -30.55 30.53 -30.55 29.8 C-30.3 19.01 -27.13 11.42 -19.41 3.89 C-13.52 -1.35 -7.54 -3.05 0 0 Z " fill="#000000" transform="translate(719.25,277.3125)"/>
<path d="M0 0 C3.72 0.22 5.04 1.04 7.88 3.56 C11.65 6.5 14.76 6.15 19.44 5.94 C25.48 5.74 28.97 6.02 33.48 10.14 C39.87 17.97 40.59 26.2 40 36 C38.71 44.37 34.71 50.89 28.34 56.45 C23.59 59.65 18.49 59.89 13 59 C7.45 56.28 3.23 52.03 0.88 46.25 C-1.6 37.09 -0.69 27.84 3.22 19.27 C4.13 16.63 4.01 15.57 3 13 C2.35 11.83 1.66 10.69 0.94 9.56 C-0.83 6.58 -1.52 4.53 -1 1 C-0.67 0.67 -0.34 0.34 0 0 Z " fill="#000000" transform="translate(418,196)"/>
<path d="M0 0 C2.12 0.38 2.12 0.38 4 1 C4.03 1.94 4.05 2.88 4.08 3.85 C4.24 13.28 4.24 13.28 9 21 C16.62 26.8 21.41 28.11 30.97 27.74 C34 28 34 28 35.82 29.19 C37.74 32.13 38.27 35.33 39.06 38.72 C39.79 41.08 39.79 41.08 41.66 42.12 C42.43 42.41 43.2 42.7 44 43 C45.58 43.81 45.58 43.81 47.19 44.64 C51.48 46.46 55.37 46.1 59.94 45.81 C69.53 45.47 69.53 45.47 73.94 48.94 C74.96 49.96 75.98 50.98 77 52 C81.71 53.57 85.53 53.55 90.19 51.81 C93.19 49.88 94.96 47.91 97 45 C98.65 45.33 100.3 45.66 102 46 C101.58 50.73 99.54 53.95 96 57 C90.32 60.25 84.22 61.08 77.89 59.46 C74.57 58.32 72.37 57.35 69.78 54.89 C66.08 52.37 63.03 52.72 58.75 53 C49.05 53.31 42.71 51.2 35.43 44.59 C33.39 42.32 32.23 39.78 31 37 C28.48 35.74 26.24 35.61 23.44 35.25 C14.15 33.73 6.82 29.49 1 22 C-1.76 17.44 -2.39 14.06 -2.31 8.75 C-2.31 7.53 -2.3 6.31 -2.3 5.05 C-2 2 -2 2 0 0 Z " fill="#000000" transform="translate(185,854)"/>
<path d="M0 0 C0.81 1.62 0.81 1.62 1 4 C-2.86 9.97 -7.81 12.77 -14.56 14.75 C-19.7 15.28 -23.76 15.21 -28.62 13.44 C-32.21 12.16 -34.34 11.55 -38 13 C-40.38 14.27 -42.68 15.63 -45 17 C-51.31 19.1 -59.73 19.27 -65.96 16.85 C-67.61 15.93 -69.25 15 -70.87 14.05 C-74.2 12.41 -76.5 13.04 -80 14 C-89.82 16.55 -98.62 17.44 -108 13 C-110.5 11.31 -110.5 11.31 -112 10 C-111.67 8.68 -111.34 7.36 -111 6 C-108.03 6.41 -105.39 6.84 -102.61 8.02 C-94.94 10.9 -87.74 8.82 -80.44 5.91 C-77.4 4.78 -75.2 4.39 -72 5 C-69.44 6.88 -69.44 6.88 -67 9 C-60.8 12.04 -53.08 12.3 -46.52 10.21 C-43.65 8.8 -41.31 7.26 -38.88 5.19 C-37 4 -37 4 -34.25 4.12 C-31.7 4.81 -29.59 5.6 -27.19 6.62 C-21.41 8.88 -16.34 7.93 -10.69 5.69 C-7.94 4.11 -7.94 4.11 -5.88 1.81 C-4 0 -4 0 0 0 Z " fill="#000000" transform="translate(554,952)"/>
<path d="M0 0 C1.32 0.66 2.64 1.32 4 2 C2.55 7.45 2.55 7.45 0.25 9.75 C-5.73 13.07 -11.03 13.23 -17.69 13.06 C-19.38 13.03 -21.07 13 -22.76 12.97 C-23.5 12.95 -24.25 12.94 -25.01 12.92 C-27.21 12.92 -27.21 12.92 -30 14 C-39.48 14.83 -46.47 14.09 -55.2 10 C-59.72 8.39 -63.14 9.96 -67.5 11.5 C-73.82 13.73 -79.65 14.23 -86.31 14.31 C-87.54 14.36 -87.54 14.36 -88.79 14.4 C-94.4 14.46 -99.55 13.71 -104 10 C-104.72 7.86 -104.72 7.86 -105 6 C-102.75 5.38 -102.75 5.38 -100 5 C-99.45 5.32 -98.89 5.63 -98.32 5.96 C-94.97 7.46 -91.68 7.34 -88.06 7.31 C-86.94 7.31 -86.94 7.31 -85.79 7.3 C-78.34 7.17 -70.58 6.3 -63.85 2.92 C-60.78 1.39 -58.37 1.66 -55 2 C-52.87 2.88 -50.9 3.89 -48.89 5.03 C-44.95 7.05 -41.33 7.14 -36.94 7.12 C-35.37 7.13 -35.37 7.13 -33.78 7.13 C-30.91 7.12 -30.91 7.12 -28 6 C-24.28 6.01 -20.58 6.07 -16.87 6.21 C-10.72 6.33 -5.86 5.49 -1.06 1.31 C-0.71 0.88 -0.36 0.45 0 0 Z " fill="#000000" transform="translate(561,801)"/>
<path d="M0 0 C3.83 1.45 5.19 3.38 7 7 C7 7.66 7 8.32 7 9 C12.53 11.25 16.69 12.15 22.69 11.94 C28.11 11.81 30.81 12.32 35 16 C41.06 20.16 44.91 21.15 52.19 21.06 C52.94 21.06 53.69 21.05 54.46 21.05 C56.31 21.04 58.15 21.02 60 21 C60.5 22.49 60.5 22.49 61 24 C57.57 27.58 55.53 28.19 50.56 28.31 C43.34 28.25 36.19 26.84 30.67 21.92 C27.27 19.48 24.24 19.27 20.19 19 C13.2 18.31 7.49 17.54 2.42 12.39 C0.01 9.39 -0.94 7.51 -1.38 3.62 C-1 1 -1 1 0 0 Z " fill="#000000" transform="translate(369,672)"/>
<path d="M0 0 C1.89 0.2 1.89 0.2 4 1 C4.95 3.11 4.95 3.11 5.69 5.75 C7.56 10.84 9.58 12.82 14.44 15.13 C18.02 16.35 21.61 16.8 25.35 17.34 C29.08 18.27 31.47 20.17 34.34 22.66 C37.92 25.55 41.61 25.15 46 25 C48.01 24.71 50.01 24.39 52 24 C52.5 26.48 52.5 26.48 53 29 C49.04 32.17 45.59 32.56 40.7 32.43 C35.02 31.53 30.2 28.49 25.5 25.31 C22.93 23.96 21.03 23.6 18.19 23.12 C12.92 22.18 9.25 20.19 5 17 C4.22 16.46 3.43 15.93 2.62 15.38 C-0.08 11.42 -0.62 6.72 -1 2 C-0.67 1.34 -0.34 0.68 0 0 Z " fill="#000000" transform="translate(152,725)"/>
</svg>
