<?xml version="1.0" encoding="UTF-8"?>
<!-- Generator: visioncortex VTracer 0.6.3 -->
<svg version="1.1" xmlns="http://www.w3.org/2000/svg" width="1280" height="887">
<path d="M0 0 C0.27 -0.64 0.54 -1.28 0.81 -1.94 C2 -4 2 -4 5 -5 C13.38 -5.57 18.89 -3.26 26 1 C26.99 1 27.98 1 29 1 C29.72 0.17 30.44 -0.65 31.19 -1.5 C34.35 -4.31 35.71 -4.38 39.82 -4.24 C43.41 -3.84 46.59 -2.75 49.94 -1.44 C50.64 -1.17 51.34 -0.9 52.06 -0.62 C57.86 1.74 62.38 4.76 67 9 C67.83 9.7 68.66 10.41 69.52 11.13 C74.43 15.35 78.46 19.67 82.29 24.89 C84.05 27.06 85.89 28.68 88.06 30.44 C95.04 36.29 98.6 44.73 102 53 C103.45 52.31 103.45 52.31 104.93 51.61 C106.24 50.99 107.56 50.37 108.88 49.75 C109.51 49.45 110.14 49.15 110.79 48.84 C119.5 44.74 128.28 41.45 137.56 38.88 C138.44 38.62 139.32 38.37 140.23 38.11 C151.9 34.82 164.46 31.43 176.62 33.69 C179.99 34.32 179.99 34.32 182.56 32.56 C183.93 31.13 185.27 29.68 186.54 28.16 C191.86 21.83 198.12 15.59 206.74 14.73 C215.06 14.46 215.06 14.46 217.86 16.08 C219.19 17.44 219.19 17.44 221 20 C221.33 20.33 221.66 20.66 222 21 C222.07 22.69 222.08 24.38 222.06 26.06 C222.05 26.98 222.04 27.9 222.04 28.85 C222.02 29.91 222.02 29.91 222 31 C222.91 31.01 222.91 31.01 223.83 31.03 C226.6 31.08 229.36 31.17 232.12 31.25 C233.08 31.26 234.03 31.28 235.01 31.29 C240.92 31.5 244.24 32.22 249 36 C254.03 38.95 258.78 39.86 264.44 40.81 C274.93 42.74 284.53 45.76 293.79 51.19 C296.68 53.16 296.68 53.16 299 53 C299.27 52.19 299.54 51.38 299.81 50.54 C303.62 39.79 308.24 31.23 318 25 C319.83 22.84 321.51 20.59 323.21 18.31 C327.42 12.87 332.11 8.58 338 5 C338.74 4.52 339.48 4.03 340.25 3.53 C348.13 -1.49 355.61 -4.99 365.11 -3.53 C367.51 -2.86 369.03 -1.49 371 0 C374.88 -0.09 376.83 -0.89 380.06 -3.06 C385.06 -6.13 391.37 -6.04 397 -5 C398.89 -2.97 398.89 -2.97 400 -1 C401.03 -1.22 402.07 -1.43 403.13 -1.66 C420.87 -5.13 443.04 -7.85 459.25 1.97 C462.53 4.39 464.23 6.31 466 10 C466.03 12.84 465.58 15.19 465 18 C466.24 18.04 467.48 18.08 468.75 18.12 C476.39 18.98 483.85 22.76 489.62 27.81 C492.06 31.07 492.18 31.69 492.5 35.44 C492.77 37.84 492.77 37.84 494 40 C496.67 41.66 499.38 42.94 502.26 44.19 C512.23 48.66 520.17 57.07 526.36 65.96 C527.31 69 526.67 71.56 526.19 74.69 C525.67 79.89 525.67 79.89 527.41 84.67 C528.66 86.16 529.95 87.63 531.27 89.06 C534.27 92.42 534.98 95.8 535.02 100.22 C534.68 105.6 533.17 108.56 530 113 C530.48 113.93 530.96 114.86 531.46 115.82 C532.1 117.06 532.74 118.31 533.38 119.56 C533.85 120.48 533.85 120.48 534.34 121.41 C537.55 127.73 539.65 133.81 539 141 C537.55 144.59 536.1 147.62 533 150 C531.34 150.69 529.68 151.36 528 152 C528.34 152.77 528.68 153.55 529.02 154.34 C529.69 155.91 529.69 155.91 530.38 157.5 C530.82 158.52 531.26 159.54 531.71 160.59 C535.02 169.33 535.37 177.13 535.38 186.44 C535.4 187.71 535.42 188.98 535.45 190.29 C535.47 198.4 534.86 205.13 529.69 211.65 C526.84 214.45 524.49 215.29 520.62 215.31 C519.43 215.21 518.23 215.11 517 215 C517.33 215.66 517.66 216.32 518 217 C518.76 228.72 518.04 238.56 510.89 248.21 C509 250 509 250 505.48 251.77 C501.44 253.98 500.31 256.99 499 261.25 C496.54 268.22 493.59 274.15 487.09 278.19 C484.68 279.12 482.82 279.17 480.25 279.19 C475.92 279.51 474.06 280.45 471 283.5 C467.29 287.16 464.56 287.91 459.41 288.09 C456.19 287.97 453.16 287.62 450 287 C449.67 287.89 449.67 287.89 449.34 288.79 C447.09 294.38 445.27 297.92 440 301 C434.09 302.09 430.25 300.84 425 298 C424.85 299.23 424.71 300.47 424.55 301.74 C421.73 323.71 414.73 344.36 401 362 C399.95 363.37 399.95 363.37 398.88 364.77 C394.61 370.18 390.23 374.84 384.85 379.15 C382.65 381.35 381.8 382.99 381 386 C381.37 389.83 382.76 393.19 384.19 396.75 C385.64 400.42 387.04 404.05 388.21 407.82 C391.7 418.93 397.04 428.5 402.88 438.55 C410.44 451.61 417.43 466.3 419.73 481.35 C421.04 489.6 421.04 489.6 426.23 495.9 C429.42 498.09 432.76 499.98 436.13 501.87 C442.13 505.49 447.9 510.66 451 517 C451.08 519.14 451.08 519.14 450.81 521.25 C450.62 526.27 452.51 528.81 455.41 532.77 C466.13 547.82 466.92 571.01 464.08 588.75 C460.18 610.56 451.66 632.18 437 649 C436.52 649.61 436.04 650.22 435.55 650.85 C427.26 661.28 415.54 668.91 403.34 674 C401.86 674.63 400.4 675.29 398.95 675.98 C393.36 678.65 387.96 680.09 381.88 681.19 C381.02 681.35 380.17 681.52 379.29 681.69 C361.78 685.01 338.67 687.43 323 677 C319.91 674.77 316.95 672.42 314 670 C312.67 668.99 311.34 667.99 310 667 C309.48 667.72 308.95 668.44 308.41 669.19 C305.72 672.33 302.75 674.65 299.38 677 C298.76 677.44 298.14 677.87 297.5 678.32 C287.13 685.5 276.89 690.29 264 689 C262.85 688.46 262.85 688.46 261.68 687.92 C257.3 686.42 252.96 687.65 248.5 688.46 C242.77 689.32 239.27 688.45 234 686 C233.36 685.44 232.72 684.89 232.06 684.31 C229.62 682.76 228.71 682.92 225.88 683.06 C219.86 683.28 213.85 681.41 209.21 677.49 C208 676 208 676 208 674 C207.05 673.71 206.1 673.42 205.12 673.12 C202 672 202 672 200 670 C198.92 670.9 198.92 670.9 197.81 671.81 C195.28 673.78 192.74 675.35 190 677 C189.13 677.7 188.27 678.4 187.38 679.12 C182.77 682.76 177.87 682.24 172.23 682.43 C168.43 683.1 166.84 684.48 164 687 C160.55 688.15 157.82 688.13 154.19 688.12 C152.98 688.13 151.78 688.13 150.54 688.13 C147 688 147 688 143.75 687.43 C140.89 686.78 140.89 686.78 137.75 687.94 C127.93 690.72 120.03 688.41 111 684 C106.46 681.29 102.37 678.16 98.34 674.74 C97.02 673.63 97.02 673.63 95.69 672.5 C94.52 671.46 94.52 671.46 93.32 670.41 C91.1 668.78 91.1 668.78 88.54 669.04 C85.47 670.2 83.33 671.78 80.75 673.81 C65.69 685.17 47.09 685.63 28.84 683.78 C24.48 683.17 20.25 682.14 16 681 C15.04 680.75 15.04 680.75 14.07 680.5 C-13.52 673.16 -33.45 657.46 -48 633 C-48.63 631.95 -49.26 630.9 -49.91 629.81 C-64.45 604.26 -69.36 573.76 -61.71 545.24 C-59.71 538.94 -56.51 533.02 -52.29 527.93 C-50.71 525.56 -50.77 524.36 -51 521.56 C-51.16 515.76 -48.98 512.95 -45.19 508.75 C-41.25 504.88 -36.7 502.09 -31.98 499.28 C-26.39 495.89 -23 492.24 -21 486 C-20.56 484.1 -20.11 482.19 -19.71 480.28 C-15.79 461.89 -7.36 445.14 2.31 429.11 C6.33 422.44 9.14 416.21 11.27 408.78 C13.16 402.21 15.65 395.86 19.21 390.02 C20.35 387.11 20.17 385.92 19 383 C16.89 380.68 14.51 378.71 12.12 376.69 C-3.71 362.52 -16.12 341.71 -21 321 C-21.28 319.83 -21.57 318.65 -21.86 317.45 C-23.41 310.66 -24.54 303.95 -25 297 C-25.41 297.48 -25.81 297.95 -26.23 298.45 C-29.34 301.18 -32.99 301.11 -37 301 C-42.17 299.47 -45.24 297.67 -48 293 C-48.75 289.19 -48.75 289.19 -49 286 C-50.01 286.33 -51.02 286.66 -52.06 287 C-57.09 288.41 -61.25 288.69 -66.19 286.75 C-68.91 285.05 -70.94 283.46 -73 281 C-73 280.34 -73 279.68 -73 279 C-74.07 279.18 -74.07 279.18 -75.16 279.36 C-84.89 280.67 -84.89 280.67 -89.45 277.48 C-95.15 272.04 -98.8 264.5 -101 257 C-101 255.68 -101 254.36 -101 253 C-102.33 252.63 -102.33 252.63 -103.69 252.25 C-109.13 250.2 -112.43 247.29 -115.15 242.1 C-118.51 233.79 -118.25 224.81 -118 216 C-119.01 215.87 -119.01 215.87 -120.05 215.74 C-127.34 214.59 -127.34 214.59 -130.44 211.81 C-138.21 197.83 -137.85 180.53 -133.71 165.34 C-132.23 160.33 -130.33 155.66 -128 151 C-128.72 150.94 -129.44 150.88 -130.19 150.81 C-133.95 149.73 -135.54 148.01 -138 145 C-138.81 142.62 -138.81 142.62 -139 140 C-139.08 138.93 -139.17 137.85 -139.25 136.75 C-138.79 129.82 -136.14 123.88 -132.87 117.82 C-131.92 115.84 -131.29 114.18 -131 112 C-132.02 110.33 -133.03 108.65 -134.06 106.98 C-136.08 102.72 -135.77 98.26 -134.27 93.86 C-132.61 90.31 -131.06 88.05 -128.19 85.31 C-125.58 81.36 -125.93 80.31 -126.5 75.75 C-127.34 68.84 -125.97 64.66 -122 59 C-119.44 56.12 -119.44 56.12 -117 54 C-116.42 53.34 -115.85 52.68 -115.25 52 C-111.18 48.38 -106.26 45.95 -101.26 43.85 C-98.65 42.73 -96.32 41.65 -94 40 C-92.93 36.56 -92.93 36.56 -92.64 34.18 C-91.19 29.27 -86.96 26 -83 23 C-77.19 19.87 -71.54 17.93 -65 17 C-65.05 16.32 -65.09 15.65 -65.14 14.95 C-65.43 7.73 -65.43 7.73 -63.62 4.69 C-62.76 4.13 -61.89 3.57 -61 3 C-60.1 2.39 -60.1 2.39 -59.18 1.77 C-41.8 -8.55 -18.45 -5.63 0 0 Z M8 3 C10.27 5.27 12.49 6.47 15.31 8 C16.26 8.52 17.2 9.03 18.18 9.56 C20.74 10.87 23.31 11.98 26 13 C20 6.83 16.64 3.59 8 3 Z M382.81 5.31 C382.12 5.76 381.42 6.21 380.71 6.68 C378.87 7.91 378.87 7.91 378 10 C382.5 8.31 386.73 6.18 391 4 C387.41 2.67 385.95 3.22 382.81 5.31 Z M-57 11 C-57 11.99 -57 12.98 -57 14 C-53.38 15.57 -49.91 16.53 -46.04 17.29 C-44.38 17.62 -44.38 17.62 -42.67 17.95 C-41.52 18.17 -40.37 18.4 -39.19 18.62 C-38.02 18.85 -36.85 19.08 -35.64 19.32 C-32.76 19.88 -29.88 20.44 -27 21 C-27 21.99 -27 22.98 -27 24 C-28.22 24.02 -29.43 24.04 -30.69 24.06 C-31.37 24.07 -32.06 24.09 -32.76 24.1 C-35 24 -35 24 -37.25 23.48 C-51.02 21.06 -68.5 24.52 -80.32 31.7 C-82.59 33.46 -83.87 35.37 -85 38 C-84.07 38.18 -84.07 38.18 -83.13 38.37 C-77.4 39.5 -71.7 40.71 -66 42 C-66 42.99 -66 43.98 -66 45 C-66.73 44.98 -67.45 44.95 -68.2 44.93 C-86.26 44.61 -100.29 49.95 -114 62 C-116.93 65.59 -118 68.27 -118 73 C-111.24 73.32 -106.28 72.43 -100 70 C-96.12 68.58 -93.14 67.76 -89 68 C-89 68.99 -89 69.98 -89 71 C-89.86 71.27 -90.72 71.54 -91.61 71.81 C-105.5 76.42 -119.24 83.06 -126.12 96.75 C-127.28 99.95 -127.28 99.95 -126.19 102.94 C-125.8 103.62 -125.4 104.3 -125 105 C-120.44 104.5 -118.26 102.83 -114.88 99.81 C-109.57 95.33 -104.26 91.99 -98 89 C-96.42 88.23 -96.42 88.23 -94.82 87.45 C-86.74 83.77 -86.74 83.77 -83.15 84.88 C-82.08 85.43 -82.08 85.43 -81 86 C-82.45 88.91 -84.36 89.05 -87.38 90.19 C-105.72 97.64 -120.1 111.39 -129 129 C-130.75 133.53 -131.22 136.24 -130 141 C-129.67 141.33 -129.34 141.66 -129 142 C-123.03 141.7 -119.21 139.71 -114.25 136.5 C-107.28 132.09 -107.28 132.09 -104 131 C-105.57 135.91 -107.47 138.66 -111.25 142.19 C-121.76 152.27 -127.68 166.66 -128.2 181.17 C-128.5 193.4 -128.5 193.4 -125 205 C-124.34 205.66 -123.68 206.32 -123 207 C-118.98 207 -117.4 206.39 -114.5 203.56 C-112.48 200.88 -110.81 198.03 -109.12 195.12 C-106.67 190.93 -103.95 187.39 -100.66 183.82 C-99.13 182.15 -97.76 180.42 -96.38 178.62 C-93.96 175.95 -92.47 174.85 -89 174 C-88.34 174.33 -87.68 174.66 -87 175 C-88.56 178.56 -90.73 181.18 -93.25 184.12 C-97.42 189.16 -100.92 194.24 -104 200 C-104.39 200.72 -104.78 201.43 -105.18 202.17 C-110.59 213.03 -111.43 225.96 -107.75 237.5 C-105.9 241.2 -104.74 242.38 -101 244 C-99.17 240.35 -99.24 236 -98.79 231.97 C-98 229 -98 229 -95.95 227.81 C-95.31 227.55 -94.66 227.28 -94 227 C-94.02 227.63 -94.04 228.27 -94.06 228.92 C-94.83 245.93 -94.83 245.93 -90 262 C-89.61 262.81 -89.23 263.62 -88.83 264.45 C-86.81 268.19 -85.89 269.71 -81.75 271.06 C-79.09 271.32 -79.09 271.32 -78 270 C-77.85 267.94 -77.77 265.87 -77.72 263.8 C-77.66 261.89 -77.66 261.89 -77.61 259.95 C-77.57 258.59 -77.53 257.23 -77.5 255.88 C-77.43 253.25 -77.36 250.62 -77.28 247.99 C-77.25 246.82 -77.22 245.65 -77.19 244.44 C-77 240.91 -76.55 237.49 -76 234 C-74.68 234 -73.36 234 -72 234 C-72.03 234.74 -72.05 235.49 -72.08 236.26 C-73.5 257.95 -73.5 257.95 -65.14 277.29 C-62.65 279.28 -61.18 279.87 -58 280 C-49.98 276.57 -46.74 267.09 -43.47 259.67 C-41.88 256.35 -41.88 256.35 -42 254 C-40.02 254.99 -40.02 254.99 -38 256 C-38.29 257.28 -38.58 258.56 -38.88 259.88 C-39.25 261.58 -39.63 263.29 -40 265 C-40.19 265.84 -40.38 266.68 -40.58 267.54 C-42.45 276.17 -42.8 282.83 -39 291 C-36.26 293.26 -36.26 293.26 -33.56 292.88 C-29.76 291.58 -27.95 289.73 -26.02 286.2 C-23.12 280 -21.8 273.91 -20.62 267.19 C-18.22 254.35 -15.05 241.82 -10.32 229.63 C-8.83 226.17 -8.83 226.17 -9 223 C-10.32 223.33 -11.64 223.66 -13 224 C-13 224.66 -13 225.32 -13 226 C-13.64 226.23 -14.28 226.45 -14.94 226.69 C-17.52 227.79 -19.72 229.01 -22.12 230.44 C-29.01 234.32 -37.04 236.99 -45 236 C-46.94 234.94 -46.94 234.94 -48 233 C-48.48 227.99 -47.96 223.64 -46 219 C-42.87 217.06 -42.87 217.06 -40 216 C-40.88 220.75 -40.88 220.75 -42 223 C-42.04 225.33 -42.04 227.67 -42 230 C-26.58 228.95 -13.89 219.14 -4 208 C0.07 202.74 5 194.79 5 188 C4.34 187.67 3.68 187.34 3 187 C3.61 183.64 4.82 181.65 6.94 179 C8.98 176.43 10.62 173.99 12 171 C1.98 174.01 -7.69 177.62 -14.7 185.68 C-15.13 186.12 -15.56 186.55 -16 187 C-16.66 187 -17.32 187 -18 187 C-18.33 186.01 -18.66 185.02 -19 184 C-15.84 179.6 -12.23 176.35 -8 173 C-11.73 170.51 -15.27 169.87 -19.6 168.88 C-20.39 168.59 -21.18 168.3 -22 168 C-22.33 167.01 -22.66 166.02 -23 165 C-21.65 165.02 -21.65 165.02 -20.27 165.03 C-16.89 165.07 -13.52 165.09 -10.14 165.11 C-8.68 165.12 -7.23 165.13 -5.77 165.15 C-3.67 165.18 -1.57 165.19 0.54 165.2 C1.8 165.21 3.06 165.22 4.36 165.23 C11.17 164.85 11.17 164.85 16.62 161.2 C16.96 160.49 17.31 159.77 17.66 159.04 C18.26 157.84 18.26 157.84 18.87 156.63 C19.26 155.78 19.66 154.93 20.06 154.06 C20.92 152.33 21.78 150.59 22.64 148.86 C23.05 148.02 23.45 147.18 23.87 146.32 C25.27 143.44 26.77 140.62 28.31 137.81 C28.99 136.57 28.99 136.57 29.68 135.29 C31.35 132.38 33.19 129.6 35.12 126.85 C36.25 124.48 36.15 122.59 36 120 C18.84 120.54 4.88 124.64 -10 133 C-10.99 133.55 -10.99 133.55 -12 134.12 C-29.06 143.15 -29.06 143.15 -40 158 C-39.61 160.64 -39.61 160.64 -39 163 C-40.65 163 -42.3 163 -44 163 C-45.47 160.67 -46.04 159.42 -45.76 156.64 C-43.75 149.64 -38.08 144.59 -32 141 C-31.59 140.57 -31.17 140.14 -30.75 139.7 C-22.57 131.76 -11.78 126.63 -1.36 122.38 C1.17 121.34 3.59 120.27 6 119 C6 118.67 6 118.34 6 118 C5.04 117.76 4.07 117.52 3.08 117.27 C1.81 116.93 0.55 116.6 -0.75 116.25 C-2 115.93 -3.26 115.6 -4.55 115.27 C-8.08 113.97 -9.69 112.92 -12 110 C-13.06 107.06 -13.06 107.06 -13 104 C-9.61 98.85 -4.44 97.28 1.16 95.11 C3.53 94.19 5.75 93.18 8 92 C-1.4 91.89 -7.83 93.87 -15.91 98.31 C-18.57 99.76 -21.16 100.95 -24 102 C-23.94 99.75 -23.94 99.75 -23 97 C-20.77 95.32 -18.53 94.24 -16 93 C-16.48 90.5 -16.48 90.5 -18 88 C-22.1 86.36 -26.18 85.77 -30.55 85.28 C-33.81 84.91 -37.06 84.49 -40.31 84.06 C-42.1 83.83 -42.1 83.83 -43.93 83.6 C-47 83 -47 83 -50 81 C-50 80.01 -50 79.02 -50 78 C-44.91 78.51 -39.91 79.17 -34.88 80.06 C-30.49 80.82 -26.44 81.2 -22 81 C-24.23 76.21 -26.49 72.01 -30 68 C-29.5 67.01 -29.5 67.01 -29 66 C-26.47 66.38 -25.25 66.75 -23.44 68.6 C-22.96 69.27 -22.49 69.94 -22 70.62 C-21.49 71.34 -20.97 72.06 -20.44 72.8 C-19.15 74.76 -18.03 76.74 -16.94 78.81 C-14.41 82.98 -12.41 84.39 -7.7 85.58 C-2.84 86.61 2.07 87.36 7 88 C7 87.34 7 86.68 7 86 C6.01 85.46 5.02 84.93 4 84.38 C-3.16 80.25 -8.95 75.55 -14 69 C-14.8 68.01 -15.61 67.02 -16.44 66 C-18.43 62.18 -18.12 60.1 -17 56 C-8.91 51.95 5.13 55.16 13.18 57.62 C30.19 63.58 46.06 72.68 55 89 C56.92 93.19 57.18 96.38 57 101 C54.42 100.02 53.24 99.52 52.05 96.97 C51.81 96.15 51.56 95.34 51.31 94.5 C47.49 84.2 39.05 77.67 30 72 C29.15 71.45 28.3 70.91 27.43 70.34 C22.44 67.23 17.61 64.75 12 63 C11.18 62.72 10.36 62.44 9.52 62.16 C2.27 59.89 -4.45 59.68 -12 60 C-10.9 67.8 -4.64 71.63 1.25 76.31 C11.31 83.68 22.98 91.21 35.57 92.59 C41.62 93.62 47.28 97.18 52 101 C54.26 104.27 54.41 107.09 54 111 C52.5 113.25 52.5 113.25 51 115 C51 115.66 51 116.32 51 117 C50.38 117.26 49.76 117.52 49.12 117.78 C46.23 119.44 45.47 121.74 44.12 124.69 C42.97 127.07 41.67 129.26 40.27 131.5 C27.42 152.76 18.06 175.94 9 199 C8.74 199.67 8.48 200.33 8.21 201.02 C4.7 209.97 1.3 218.96 -2 228 C-2.35 228.94 -2.69 229.88 -3.05 230.85 C-10.04 250.01 -15.83 270.49 -16 291 C-16.06 292.2 -16.12 293.4 -16.18 294.63 C-17.12 321.85 -3.82 346.72 14.04 366.39 C21.79 374.65 30.4 381.05 40 387 C40.79 387.49 41.59 387.99 42.41 388.5 C77.36 409.95 119.18 421.42 159.9 424.81 C162.93 425.08 165.95 425.44 168.97 425.78 C171.37 426.04 173.78 426.21 176.19 426.38 C180.33 426.77 183.4 427.82 187 430 C187 430.66 187 431.32 187 432 C184.67 433.16 183.53 433.07 180.95 432.95 C180.12 432.91 179.28 432.87 178.42 432.83 C177.52 432.79 176.62 432.74 175.69 432.69 C174.76 432.64 173.82 432.59 172.86 432.54 C155.65 431.6 138.65 430.07 121.93 425.72 C118.25 424.82 114.55 424.18 110.82 423.54 C106.64 422.74 102.54 421.67 98.43 420.59 C96.09 419.92 96.09 419.92 94 420 C91.92 426.76 91.79 432.96 92 440 C92.99 439.67 93.98 439.34 95 439 C97.13 443.36 98.32 447.36 99.25 452.12 C101.49 462.24 106.38 472.78 115 479 C118.23 480.47 118.23 480.47 121 481 C121 478.36 121 475.72 121 473 C121.99 473 122.98 473 124 473 C124.21 473.56 124.42 474.11 124.63 474.69 C128.83 485.09 135.14 490.87 145 496 C145.64 496.35 146.29 496.71 146.95 497.07 C151.26 499.22 154.37 499.04 159 498 C157.64 494.95 156.07 492.88 153.75 490.5 C145.46 481.2 141.72 470.14 141.83 457.85 C142 456 142 456 143 454 C143.99 453.67 144.98 453.34 146 453 C145.92 454.05 145.84 455.1 145.75 456.19 C145.77 468.35 152.01 480.46 160.02 489.34 C163.27 492.07 166.9 493.11 171 494 C172.47 491.06 171.85 488.63 171.56 485.38 C171.46 484.19 171.36 483 171.25 481.77 C171.13 480.4 171.13 480.4 171 479 C172.65 479 174.3 479 176 479 C176.04 479.68 176.07 480.36 176.11 481.05 C177.02 493.83 180.25 502.35 189 512 C192.47 515.01 195.53 516.66 200 517.69 C208.09 515.83 213.7 508.72 218 502 C219.86 498.41 221.48 494.75 223 491 C223.36 490.14 223.72 489.27 224.1 488.38 C225.15 485.61 225.59 482.93 226 480 C227.32 480 228.64 480 230 480 C229.67 484.62 229.34 489.24 229 494 C236.83 492.43 241.95 486.91 246.55 480.52 C249.62 475.18 254 467.22 254 461 C254.99 461 255.98 461 257 461 C258.01 472.07 252.59 482.43 246 491 C244.08 492.93 242.23 494.42 240 496 C240.33 496.99 240.66 497.98 241 499 C248.77 498.82 254.31 496.85 261 493 C262.74 492.18 262.74 492.18 264.52 491.35 C268.9 488.85 270.46 485.23 272.44 480.75 C272.79 480 273.14 479.26 273.5 478.49 C274.35 476.67 275.18 474.84 276 473 C276.99 473 277.98 473 279 473 C279.07 476.34 279.07 478.8 278 482 C287.12 479.05 292.84 471.31 297.19 463.12 C300.18 456.76 302.56 450.11 302 443 C303.21 442.57 303.21 442.57 304.44 442.12 C307.13 441.27 307.13 441.27 308 439 C308.12 436.92 308.18 434.83 308.19 432.75 C308.2 431.63 308.22 430.51 308.23 429.36 C307.99 425.92 307.23 423.2 306 420 C299.69 421.19 293.47 422.6 287.25 424.16 C262.57 430.32 237.46 433.61 212 433 C212 431.68 212 430.36 212 429 C213.19 428.88 214.37 428.76 215.59 428.63 C219.89 428.19 224.19 427.73 228.49 427.27 C230.63 427.04 232.77 426.82 234.91 426.6 C246.72 425.27 258.34 422.96 269.98 420.61 C272.54 420.09 275.09 419.6 277.65 419.1 C287.3 417.17 296.67 414.39 306.06 411.5 C307.3 411.12 308.54 410.74 309.81 410.35 C316.43 408.27 322.75 405.99 329 403 C329.93 402.57 330.85 402.15 331.81 401.71 C349.85 393.38 365.51 384.75 380.35 371.46 C382.12 369.9 383.92 368.38 385.73 366.86 C402.53 352.48 412.1 326.83 415.75 305.69 C415.94 304.58 415.94 304.58 416.14 303.44 C417.73 293.44 416.58 284.15 415.06 274.19 C414.96 273.49 414.85 272.78 414.74 272.06 C412.45 257.43 408.2 243.85 403 230 C402.26 227.97 401.51 225.94 400.77 223.9 C398.94 218.94 397.07 214 395.18 209.07 C393.94 205.85 392.72 202.62 391.49 199.39 C383.98 179.64 376.2 160.52 366 142 C365.47 141.02 365.47 141.02 364.92 140.02 C359.64 130.34 353.88 120.78 346.75 112.34 C345 110 345 110 344.69 106.62 C346.99 100.27 352.43 97.33 358.25 94.31 C361.48 93.18 364.71 92.21 368 91.25 C383.39 86.56 402.03 78.12 411 64 C411.68 61.87 411.68 61.87 412 60 C407 58.81 402.97 59.33 398.06 60.56 C396.95 60.83 396.95 60.83 395.82 61.11 C384.76 63.95 374.07 67.89 365 75 C364.33 75.52 363.65 76.04 362.96 76.58 C355.43 82.79 349.22 90.04 345.89 99.29 C345 101 345 101 342 102 C343.05 94.5 344.77 86.27 351.07 81.4 C352.03 80.71 352.03 80.71 353 80 C353.47 79.2 353.95 78.39 354.44 77.56 C356.99 73.38 360.57 70.97 365 69 C365 68.34 365 67.68 365 67 C366 66.61 366 66.61 367.02 66.21 C369.9 65.04 372.73 63.77 375.57 62.49 C388.85 56.52 400.36 53.82 415 55 C417 57 417 57 417.5 59.5 C416.17 68.83 409.25 75.56 402 81 C399.71 82.49 397.44 83.75 395 85 C395 85.33 395 85.66 395 86 C405.02 85.86 405.02 85.86 414 82 C416.82 78.6 418.62 74.89 420.52 70.93 C422 69 422 69 424.66 68.23 C425.43 68.15 426.21 68.08 427 68 C426.39 72.86 424.27 76.74 422 81 C432.36 81.55 445.4 80.37 453.71 73.61 C456.06 70.89 457 69.43 457 65.81 C455.97 62.9 455.42 61.83 453 60 C450.43 59.6 450.43 59.6 447.62 59.75 C446.69 59.77 445.75 59.78 444.79 59.8 C442.12 59.99 439.61 60.41 437 61 C437 60.01 437 59.02 437 58 C441.64 55.08 444.61 53.51 450.12 54.44 C454.87 55.67 457.63 57.46 461 61 C462.66 65.98 462.47 69.69 460.69 74.62 C457.12 80.09 451 82.1 444.86 83.48 C436.96 85.04 428.98 86.02 421 87 C421 87.99 421 88.98 421 90 C417.7 90.66 414.4 91.32 411 92 C411 92.66 411 93.32 411 94 C409.54 93.86 408.08 93.71 406.62 93.56 C405.41 93.44 405.41 93.44 404.16 93.32 C402 93 402 93 400 92 C397.67 91.96 395.33 91.96 393 92 C393.33 92.66 393.66 93.32 394 94 C396.05 94.62 398.11 95.17 400.19 95.69 C405.45 97.25 408.97 98.64 412.15 103.2 C413 105 413 105 413.5 108.12 C411.05 112.82 406.83 114.21 402 116 C399 116.85 396.08 117.45 393 118 C395.77 119.85 398.11 120.88 401.19 122.06 C413.24 127.03 424.14 133.47 434 142 C434.65 142.49 435.31 142.98 435.98 143.48 C440.98 147.29 444.19 151.93 446 158 C444.95 162.01 442.72 163.3 439.31 165.31 C438.22 165.87 437.13 166.43 436 167 C436.64 167.6 437.28 168.2 437.94 168.81 C440 171 440 171 441 174 C436.54 173.48 433.79 172.33 430 170 C425.19 168.48 420.59 169.31 415.69 169.94 C414.85 170.04 414.02 170.14 413.15 170.24 C411.1 170.49 409.05 170.74 407 171 C408.17 174.5 409.3 174.84 412.26 176.74 C420.59 182.79 425.72 193.13 428.9 202.71 C430.33 205.7 432.02 206.69 434.81 208.44 C441 212.56 445.3 216.88 448 224 C448.53 228.32 448.48 231.27 446 235 C437.18 237.34 428.79 234.14 421 230 C416.49 227.23 412.22 224.19 408 221 C409.55 227.06 411.31 232.97 413.38 238.88 C417.1 249.71 419.64 260.97 421.84 272.21 C423.09 278.57 424.21 283.68 428 289 C428.45 289.64 428.91 290.28 429.38 290.94 C431.96 292.63 434 292.38 437 292 C441 288.87 441.29 284.78 442 280 C442.66 273.38 440.97 268.36 438.89 262.08 C437.85 258.47 437.66 255.71 438 252 C440.46 254.22 441.74 256.24 443.05 259.27 C443.42 260.1 443.79 260.92 444.17 261.77 C444.93 263.5 445.68 265.22 446.42 266.95 C448.86 272.37 451.01 275.7 456 279 C459.59 279.83 459.59 279.83 463 279 C468.79 273.71 471.67 265.71 472.21 258.05 C472.24 256.98 472.28 255.92 472.32 254.82 C472.38 253.09 472.38 253.09 472.44 251.32 C472.5 249.52 472.5 249.52 472.56 247.69 C472.63 245.86 472.63 245.86 472.69 244 C472.8 241 472.9 238 473 235 C473.99 235.33 474.98 235.66 476 236 C477.34 239.32 477.19 242.88 477.28 246.41 C477.34 248.27 477.34 248.27 477.39 250.16 C477.46 252.76 477.54 255.37 477.61 257.98 C477.64 259.21 477.68 260.45 477.72 261.72 C477.75 262.85 477.78 263.99 477.81 265.15 C477.88 268.07 477.88 268.07 479 271 C482.29 270.73 483.7 270.3 486.06 267.94 C494.36 255.36 495.82 241.79 493 227 C494.88 227.12 494.88 227.12 497 228 C499.3 232.98 500 238.63 501 244 C502.95 243.83 502.95 243.83 505 243 C506.32 241.03 506.32 241.03 507.19 238.62 C507.51 237.83 507.83 237.04 508.17 236.23 C512.26 225.27 509.08 211.58 505 201 C500.63 192.01 494.27 183.83 487 177 C487.33 176.34 487.66 175.68 488 175 C494.73 176.15 499.41 181.89 503.34 187.11 C504.88 189.31 506.37 191.55 507.86 193.79 C509.78 196.67 511.74 199.48 513.81 202.25 C514.6 203.31 514.6 203.31 515.39 204.39 C517.27 206.27 518.36 206.81 521 207 C524.9 204.12 526.8 201.25 527.71 196.46 C529.88 177.74 525.51 160.64 514.06 145.69 C510.34 141.2 506.29 136.65 501 134 C500.38 131.94 500.38 131.94 500 130 C506.27 131.21 510.21 133.14 515.19 137.06 C520.49 141.46 520.49 141.46 527 143 C528.88 141.9 528.88 141.9 530 140 C531.18 131.76 528.39 125.91 524 119 C521.24 115.4 518.23 112.18 515 109 C514.2 108.22 513.41 107.43 512.59 106.62 C501.01 95.74 488 89.75 473 85 C473.33 84.01 473.66 83.02 474 82 C490.01 83.5 504.75 91.98 517 102 C519.03 103.71 519.03 103.71 521 105 C523.17 104.75 524.44 104.56 526 103 C526.76 98.64 525.73 96.11 523.44 92.5 C516.45 82.79 506.26 76.68 494.68 73.84 C493 73 493 73 492.26 70.91 C492.13 69.97 492.13 69.97 492 69 C496.45 69.4 500.3 70.01 504.5 71.56 C508.85 73.12 512.4 73.25 517 73 C517.77 71.22 517.77 71.22 518 69 C512.41 58.08 499.54 50.79 488.24 47.1 C485.51 46.33 482.77 45.64 480 45 C479.11 44.79 478.22 44.59 477.3 44.38 C475.21 43.9 473.1 43.45 471 43 C471 42.34 471 41.68 471 41 C472.03 40.93 472.03 40.93 473.08 40.85 C473.98 40.78 474.88 40.7 475.81 40.62 C477.15 40.52 477.15 40.52 478.52 40.41 C481.24 40.13 481.24 40.13 484 38 C483.63 35.51 483.25 34.25 481.46 32.44 C467.66 22.93 452.68 23.52 436.62 24.05 C433.96 24 431.59 23.6 429 23 C429.33 22.01 429.66 21.02 430 20 C434.37 18.54 438.91 18.33 443.49 17.93 C448.53 17.4 452.43 16.21 457 14 C456.9 12.07 456.9 12.07 456 10 C453.68 8.45 453.68 8.45 450.81 7.31 C449.87 6.9 448.93 6.48 447.96 6.05 C434.14 1.14 417.65 3.46 403.9 7.45 C402.13 7.96 400.34 8.42 398.55 8.88 C390.97 10.93 384.75 14.15 378.09 18.2 C375.43 19.75 372.89 20.95 370 22 C370 22.66 370 23.32 370 24 C369.3 24.23 368.6 24.45 367.88 24.69 C365.37 25.83 363.91 26.8 361.88 28.56 C359 31 359 31 356 32 C357 27.38 358.49 24.05 361.06 20.06 C363.9 15.53 364.9 12.33 365 7 C364.67 6.34 364.34 5.68 364 5 C353.13 4.05 343.76 10.08 335.51 16.67 C325.76 25.26 319.12 38.3 317 51 C315.68 51 314.36 51 313 51 C312.67 49.02 312.34 47.04 312 45 C308.48 49.02 305.83 54.11 306.14 59.52 C307.26 62.74 308.69 63.71 311.44 65.69 C317.97 70.63 324.43 76.14 329 83 C329 84.32 329 85.64 329 87 C324.18 86.56 322.38 84.71 319.19 81.19 C301.96 63.13 279.49 50.84 254.69 47.56 C250.87 48.18 249.51 50.16 247 53 C243.6 56.12 240.35 56.8 235.88 57.69 C234.63 57.94 233.39 58.19 232.12 58.45 C229 59 229 59 227 59 C228.05 55.66 229.06 54.96 232.19 53.22 C234.1 52.34 236.02 51.49 237.95 50.64 C241.75 48.89 241.75 48.89 244.44 45.78 C244.62 45.19 244.81 44.61 245 44 C241.66 40.51 239.68 39.84 234.79 39.71 C225.4 39.62 216.53 40.61 208.32 45.64 C206 47 206 47 203 47 C202.69 44.69 202.69 44.69 203 42 C204.67 41 206.33 40 208 39 C211.38 34.8 213.87 30.5 214 25 C213.34 24.34 212.68 23.68 212 23 C204.76 23.11 199.01 25.92 194 31 C190.17 35.69 186.56 40.49 184 46 C183.34 46 182.68 46 182 46 C181.39 45.04 181.39 45.04 180.77 44.06 C179.12 41.74 179.12 41.74 176.17 41.29 C166.96 40.69 158.95 41.84 150 44 C148.82 44.25 147.63 44.51 146.41 44.77 C140.59 46.02 135.46 47.57 130 50 C128.93 50.44 127.85 50.87 126.75 51.32 C110.2 58.14 96.84 67.43 83.37 79.1 C82.81 79.58 82.25 80.06 81.67 80.56 C80.55 81.52 79.44 82.5 78.34 83.48 C74.33 87 74.33 87 71 87 C71.53 83.09 72.45 81.02 75.12 78.12 C75.76 77.44 76.39 76.76 77.04 76.05 C77.69 75.37 78.33 74.7 79 74 C79.88 73.06 79.88 73.06 80.77 72.11 C83.63 69.14 86.4 66.66 89.88 64.44 C93.19 62.34 93.19 62.34 93.84 59.24 C94.03 55.42 93.24 53.22 91.69 49.75 C91.01 48.2 91.01 48.2 90.32 46.61 C89.13 43.92 89.13 43.92 87 42 C86.67 44.64 86.34 47.28 86 50 C85.34 50 84.68 50 84 50 C83.8 49.48 83.6 48.95 83.39 48.41 C77.63 33.56 77.63 33.56 68 21 C67.37 20.37 66.75 19.74 66.11 19.1 C59.33 12.8 50.88 6.79 42 4 C38.15 4.12 38.15 4.12 35 6 C34.39 12.11 35.94 15.61 38.94 20.69 C43.14 28.01 43.14 28.01 44 32 C40.21 30.68 37.69 29.07 34.69 26.44 C14.54 9.95 -33.64 -9.76 -57 11 Z M-6 104 C-6 104.99 -6 105.98 -6 107 C8.87 114.03 26.78 117.94 42.81 112.69 C45.99 111.01 47.03 109.87 49 107 C42.25 99.75 35.58 97.58 25.83 96.72 C14.63 96.38 3.74 98.35 -6 104 Z M354 103 C351.91 105.55 351.91 105.55 351 108 C361.82 115.36 371.16 115.67 383.75 113.81 C384.62 113.68 385.49 113.56 386.39 113.42 C393.48 112.28 399.59 110.3 406 107 C405.02 104.48 404.38 103.23 402.04 101.8 C386.66 95.88 368.66 94.05 354 103 Z M364 120 C366.62 123.51 369.16 126.07 372.75 128.56 C376.14 130.95 379.5 133.36 382.79 135.9 C397.48 147.24 414.32 159.02 433.69 159.19 C434.45 159.2 435.22 159.22 436.01 159.23 C438.23 159.18 438.23 159.18 440 157 C431.35 144.63 420.1 138 407.01 131.07 C405.38 130.21 403.78 129.31 402.18 128.39 C390.44 121.93 377.18 120.38 364 120 Z M369 132 C371.14 137.59 373.97 142.74 376.81 148 C377.33 148.98 377.86 149.97 378.39 150.98 C382.23 158.28 382.23 158.28 388 164 C390.81 164.73 393.1 165.15 395.94 165.38 C396.68 165.45 397.42 165.52 398.19 165.6 C406.88 166.34 415.47 165.85 424 164 C421.54 161.54 419.92 161.36 416.56 160.5 C403.67 156.67 391.12 149.85 381 141 C379 139.35 377 137.7 375 136.06 C373.61 134.9 373.61 134.9 372.19 133.72 C370.33 131.9 370.33 131.9 369 132 Z M389 171 C390.45 175.39 392.69 178.31 395.69 181.81 C396.14 182.34 396.59 182.87 397.05 183.42 C398.36 184.95 399.68 186.47 401 188 C401.9 189.06 401.9 189.06 402.83 190.14 C410.06 198.51 417.51 206.76 425.54 214.38 C427 216 427 216 428 219 C421.68 216.23 417.64 213.06 413 208 C412.22 207.22 411.43 206.43 410.62 205.62 C406.08 201.08 401.54 196.54 397 192 C398.63 203.03 406.76 212.06 415 219 C424.01 225.65 431.72 229.71 443 229 C440.41 221.09 437.18 216.51 430.44 211.69 C425.65 208.09 423.98 204.53 422 199 C416.61 185.61 405.75 177.26 392.85 171.66 C391.01 170.89 391.01 170.89 389 171 Z M28 390 C26.88 392.24 25.78 394.49 24.69 396.75 C24.38 397.36 24.07 397.98 23.75 398.61 C18.42 409.73 17.11 421.88 15.81 434 C15.73 434.8 15.64 435.59 15.55 436.41 C9.92 489.62 17.38 540.49 44.76 587.11 C46.47 590.03 48.09 593 49.68 595.99 C58.88 613.23 68.36 630.58 81.48 645.18 C83.96 647.96 86.26 650.83 88.56 653.75 C98.68 666.09 114.05 679.08 130.38 681.5 C133.06 681.14 133.06 681.14 135.38 679.62 C137.92 675.51 137.82 671.71 137 667 C135.16 662.64 132.52 659.52 129.19 656.19 C128.1 655.1 128.1 655.1 127 654 C127 653.01 127 652.02 127 651 C132.22 652.02 135.03 654.35 138.34 658.31 C141.08 662.75 142.32 667.61 143.66 672.61 C145.18 676.45 146.52 677.85 150 680 C155.78 680.87 160.32 679.35 165 676 C167.61 672.09 167.53 667.57 167 663 C165.75 657.35 163.6 653.12 160.07 648.57 C158.64 646.48 158.23 644.51 158 642 C164.2 645.1 168.86 650.37 171.43 656.83 C172.49 660.87 172.81 665.05 173.18 669.21 C173.72 672.2 173.72 672.2 176.41 673.46 C179.06 674.27 179.06 674.27 181.62 672.88 C185.38 669.91 186.73 668.19 187.81 663.44 C188.33 658.17 187.14 653.13 186 648 C188.72 649.18 190.09 649.81 192 652 C193.14 655.96 193.63 659.91 194 664 C197.65 660.35 197.23 655.27 197.38 650.31 C197.3 642.61 195.63 636.81 190.25 631.16 C188.55 629.67 186.84 628.32 185 627 C184.06 626.22 184.06 626.22 183.11 625.43 C180.01 623.33 176.74 622.73 173.14 621.84 C172.44 621.57 171.73 621.29 171 621 C170.67 620.01 170.34 619.02 170 618 C171 617 171 617 173.75 616.88 C176.63 616.99 179.2 617.34 182 618 C181.88 616.54 181.76 615.08 181.62 613.62 C181.52 612.41 181.52 612.41 181.41 611.16 C180.83 606.73 179.91 602.38 179 598 C178.83 597.16 178.66 596.31 178.48 595.44 C172.84 567.75 165.08 540.97 153.25 515.25 C152.9 514.47 152.55 513.69 152.18 512.89 C148.95 506.11 144.67 503.25 138.12 499.69 C134.31 497.52 131.29 495.53 128.38 492.25 C125.12 488.67 121.95 487.83 117.34 486.65 C109.12 484.37 102.97 476.48 98.42 469.62 C95.15 463.64 93.93 457.6 92.87 450.91 C92.58 449.95 92.3 448.99 92 448 C91.35 447.7 90.7 447.4 90.04 447.09 C88 446 88 446 86.74 442.48 C85.59 436.91 86 431.36 86.34 425.71 C86.54 420.78 86.54 420.78 84.09 416.65 C79.99 414.46 75.81 412.91 71.44 411.38 C63.83 408.59 56.49 405.5 49.25 401.88 C48.45 401.48 47.66 401.08 46.84 400.68 C41.96 398.19 37.43 395.38 32.94 392.24 C30.92 390.84 30.92 390.84 28 390 Z M364.31 393.81 C350.63 402.87 335.29 409.74 319.68 414.72 C317.21 415.5 317.21 415.5 314 417 C312.66 420.36 313.24 423.19 313.73 426.72 C314.52 433.4 314.9 439.22 311 445 C310.01 445.66 309.02 446.32 308 447 C307.19 449.93 307.19 449.93 306.69 453.38 C304.38 465.01 299.42 473.71 291 482 C290.22 482.78 289.43 483.57 288.62 484.38 C286.05 485.97 284.27 486.48 281.38 487.19 C275.63 488.72 271.93 491.95 267.54 495.84 C264.21 498.67 261.32 500.66 257.06 501.75 C253.23 503.31 252.41 504.77 250.46 508.37 C249.88 509.45 249.29 510.53 248.69 511.65 C246.13 516.74 243.76 521.87 241.56 527.12 C241.09 528.24 240.63 529.36 240.14 530.51 C232.39 549.42 227.08 569 223 589 C222.71 590.42 222.71 590.42 222.41 591.86 C221.82 594.7 221.25 597.53 220.69 600.38 C220.52 601.22 220.34 602.07 220.17 602.95 C219.19 608.06 218.84 612.8 219 618 C219.5 617.84 219.99 617.67 220.5 617.5 C224.03 616.79 227.4 616.94 231 617 C231.33 617.99 231.66 618.98 232 620 C231.39 620.15 230.79 620.29 230.16 620.45 C220.58 623.01 211.38 627.3 206 636 C201.81 643.93 201.29 651.23 203 660 C203.96 662.29 203.96 662.29 205 664 C205.33 664 205.66 664 206 664 C206.04 663.32 206.07 662.65 206.11 661.95 C206.18 661.06 206.24 660.17 206.31 659.25 C206.37 658.37 206.43 657.49 206.49 656.58 C207.07 653.62 207.9 652.14 210 650 C210.99 650 211.98 650 213 650 C212.46 652.95 211.82 655.45 210.69 658.25 C209.75 663.38 211.39 666.6 214 671 C216.24 673.24 216.96 673.37 220 673.75 C221.05 673.9 221.05 673.9 222.12 674.05 C224.25 674.21 224.25 674.21 226 672 C226.34 669.84 226.6 667.67 226.81 665.5 C227.98 656.59 230.77 648.71 238 643 C238.99 643 239.98 643 241 643 C240.68 646.53 239.67 648.63 237.56 651.38 C232.8 657.79 232.01 665.2 233 673 C235.02 676.53 237.08 678.8 241 680 C245.13 680.33 248.28 680.15 252.31 679.31 C256.24 675.93 256.35 672.2 257.3 667.23 C258.69 660.82 261.97 656.25 267 652 C267.99 652 268.98 652 270 652 C269.35 655.52 267.89 658.04 266 661.06 C263.48 665.09 261.86 668.2 261.81 673 C261.8 673.68 261.78 674.36 261.77 675.06 C261.89 677.33 261.89 677.33 264 680 C275.21 682.16 284.36 676.67 293.46 670.88 C296.27 668.8 298.57 666.51 301 664 C302.1 662.94 303.21 661.88 304.31 660.83 C318.56 647.1 329.24 632.26 339.03 615.09 C341.42 610.92 344 606.93 346.74 602.97 C347.95 601.08 348.84 599.26 349.69 597.19 C351 594 351 594 352.43 592.1 C354.07 589.9 355.21 587.75 356.38 585.28 C356.82 584.36 357.26 583.44 357.72 582.49 C358.18 581.5 358.65 580.52 359.12 579.5 C359.85 577.96 359.85 577.96 360.59 576.39 C361.59 574.28 362.58 572.17 363.57 570.05 C364.87 567.27 366.19 564.51 367.51 561.74 C375.97 543.8 380.84 525.54 384 506 C384.16 505.09 384.31 504.18 384.47 503.24 C389 476.27 386.48 448.97 383 422 C382.85 420.79 382.85 420.79 382.7 419.56 C381.26 408.71 376.96 399.63 372 390 C368.81 390 366.91 392.02 364.31 393.81 Z M7 438 C8 440 8 440 8 440 Z M6 440 C-1.34 452.23 -6.82 464.36 -11 478 C-11.21 478.67 -11.41 479.34 -11.62 480.03 C-12.65 483.47 -13.22 486.4 -13 490 C-7.09 488.84 -1.49 487.5 4 485 C5.86 482.18 6.28 479.81 6.41 476.46 C6.45 475.58 6.49 474.7 6.53 473.79 C6.56 472.85 6.59 471.91 6.62 470.94 C6.66 469.97 6.7 469 6.74 468.01 C7.08 458.67 7.1 449.34 7 440 C6.67 440 6.34 440 6 440 Z M393 440 C392.84 455.02 393.34 469.99 394 485 C395.57 485.48 397.14 485.95 398.71 486.43 C399.59 486.69 400.46 486.96 401.36 487.23 C404.88 488.26 408.43 489.14 412 490 C412.49 473.11 403.86 453.52 394 440 C393.67 440 393.34 440 393 440 Z M393 493 C392.86 494.02 392.86 494.02 392.71 495.05 C389.81 515.5 386 535.11 379.14 554.61 C377.89 557.72 377.89 557.72 378 560 C378.82 560.23 379.64 560.46 380.49 560.7 C396.91 565.49 407.9 572.2 417 587 C421.58 595.53 422.12 604.55 421 614 C418.18 623.08 412.11 628.08 405 634 C404.22 634.78 403.44 635.56 402.64 636.37 C387.12 651.82 367.62 667.56 345.01 668.07 C338.61 667.77 333.81 666.31 329 662 C326.8 659.45 324.84 656.81 323 654 C319.72 654.75 319.72 654.75 318 658 C318.42 662.24 320.82 664.44 323.8 667.26 C336.13 677.01 352.41 676.81 367.3 675.35 C382.83 673.36 397.59 668.71 410.84 660.33 C413 659 413 659 415.14 657.96 C417.98 656.5 419.8 654.3 422 652 C422.59 651.44 423.18 650.89 423.78 650.32 C441.6 633.31 454.9 607.41 456.18 582.55 C456.23 579.33 456.28 576.11 456.3 572.89 C456.31 571.51 456.33 570.14 456.36 568.77 C456.62 556.54 455.03 544.04 446.77 534.4 C445.17 532.76 443.57 531.11 441.96 529.46 C439.89 526.87 439.34 525.26 439 522 C440.32 521.67 441.64 521.34 443 521 C437.66 508.65 421.44 501.86 409.74 497.08 C404.22 494.99 398.96 493 393 493 Z M-33.03 510.55 C-33.68 511.03 -34.33 511.51 -35 512 C-35.76 512.56 -36.53 513.12 -37.32 513.7 C-39.22 515.12 -41.12 516.55 -43 518 C-42.67 518.99 -42.34 519.98 -42 521 C-37.22 519.09 -33.28 516.89 -29 514 C-28.34 514 -27.68 514 -27 514 C-27.08 516.2 -27.08 516.2 -28 519 C-30.21 520.82 -32.3 522.34 -34.69 523.88 C-46.81 532.16 -53.03 542.25 -55.88 556.88 C-60.73 585.13 -51.48 613.68 -35.38 636.91 C-33.07 640.07 -30.58 643.06 -28 646 C-27.3 646.81 -26.59 647.63 -25.87 648.47 C-17.77 657.19 -7.09 663.79 4 668 C4.81 668.34 5.63 668.67 6.46 669.02 C18.69 673.83 30.34 675.26 43.38 675.31 C45.03 675.32 45.03 675.32 46.72 675.33 C60.27 675.21 69.39 672.22 79.75 663.53 C81.39 661.87 81.39 661.87 80.88 658.44 C80.34 654.75 80.34 654.75 77 653 C76.59 653.68 76.17 654.35 75.75 655.05 C71.33 661.87 67.83 665.55 59.91 667.52 C44.37 670.07 31.17 662.59 19 654 C10.67 647.89 2.78 641.22 -5.06 634.51 C-6.56 633.23 -8.05 631.96 -9.59 630.74 C-16.61 625.15 -20.58 617.8 -22 609 C-22.18 606.28 -22.14 603.74 -22 601 C-21.67 600.67 -21.34 600.34 -21 600 C-20.73 598.67 -20.48 597.34 -20.25 596 C-17.85 584.94 -10.39 575.91 -1.3 569.44 C6.03 564.84 13.73 561.48 22 559 C21.71 558.26 21.42 557.51 21.12 556.75 C18.22 549.04 15.89 541.28 13.81 533.31 C13.56 532.36 13.31 531.41 13.06 530.44 C10.68 521.15 8.99 511.83 7.88 502.31 C7.79 501.6 7.7 500.89 7.61 500.15 C7.41 498.43 7.2 496.72 7 495 C-4.33 490.93 -23.99 504.21 -33.03 510.55 Z M162 504 C159.31 505.19 159.31 505.19 157 506 C157.25 506.55 157.49 507.1 157.75 507.67 C172.31 540.28 184.85 576.57 187.76 612.41 C188.6 620.43 193.2 625.65 199 631 C204.06 628.7 207.79 625.55 211 621 C212.42 616.64 212.88 612.3 213.31 607.75 C213.57 605.43 213.84 603.11 214.11 600.8 C214.25 599.66 214.38 598.52 214.52 597.34 C215.13 593.12 216.13 589.07 217.23 584.95 C218.01 581.97 218.68 578.99 219.32 575.98 C223.41 557.19 228.87 539.15 236.25 521.38 C236.57 520.61 236.88 519.85 237.21 519.06 C238.65 515.7 240.16 512.62 242.23 509.6 C244.19 507.25 244.19 507.25 244 505 C242.91 504.71 241.81 504.42 240.69 504.12 C237 503 237 503 234 501 C231.71 500.76 231.71 500.76 229.31 500.88 C228.1 500.9 228.1 500.9 226.86 500.93 C226.25 500.95 225.63 500.98 225 501 C224.5 502.13 224.01 503.27 223.5 504.44 C219.17 513.03 212.23 520.39 203.07 523.7 C197.99 524.82 194.07 523.38 189.6 520.92 C182.73 515.84 177.57 508.69 174 501 C172.56 500.92 171.13 500.86 169.69 500.81 C168.89 500.78 168.09 500.74 167.26 500.71 C164.47 501.07 163.82 501.94 162 504 Z M-5 582 C-11.59 590.14 -15.58 598.94 -14.82 609.52 C-12.44 625.36 4.27 636.67 16.33 645.74 C17.89 646.91 19.44 648.1 20.98 649.29 C33.39 658.63 45.23 663.69 61 662 C65.48 659.88 68.28 657.13 71 653 C71.84 650.24 72.23 648.64 71.25 645.89 C70.84 645.21 70.42 644.52 70 643.81 C69.53 643.03 69.07 642.25 68.59 641.45 C66.42 638.11 64.15 634.86 61.83 631.63 C59.27 627.95 56.97 624.11 54.68 620.25 C52.88 617.84 51.88 616.82 49 616 C46.78 616.48 46.78 616.48 44.62 617.62 C43.84 618 43.06 618.38 42.25 618.77 C40.29 619.84 38.46 620.97 36.62 622.25 C34 624 34 624 31 624 C31.61 621.04 32.25 619.62 34 617 C32.68 616.67 31.36 616.34 30 616 C30.06 614.25 30.06 614.25 31 612 C35.84 608.64 40.27 607.21 46 606 C45.67 605.01 45.34 604.02 45 603 C42.41 602.11 42.41 602.11 39.31 601.56 C34.31 600.44 30.97 599.2 27 596 C27.08 597.07 27.16 598.14 27.25 599.25 C27 603 27 603 25.5 605.44 C21.86 607.71 19.24 607.28 15 607 C15.31 607.54 15.62 608.07 15.94 608.62 C17.81 612.81 18.33 615.78 17.12 620.25 C14.47 623.68 12.67 624.27 8.48 624.95 C2.96 625.06 -1.44 623.06 -5.94 620 C-9.96 616.1 -10.73 612.85 -11.14 607.46 C-11 605 -11 605 -9.25 601.81 C-4.43 599.13 -0.29 600.06 5 601 C4.5 599.82 4.01 598.65 3.5 597.44 C2.03 593.47 1.43 590.26 2 586 C3.96 583.05 5.19 582.19 8.62 581.38 C13.77 582.33 17.69 585.14 22 588 C21.94 586.99 21.88 585.98 21.81 584.94 C22.03 580.36 22.87 578.02 25 574 C25.99 573.34 26.98 572.68 28 572 C27.34 570.35 26.68 568.7 26 567 C15.36 566.01 2.08 574.73 -5 582 Z M29 578 C26.68 580.86 26.68 580.86 27.06 584.31 C28.47 589.86 31.2 592.8 36 596 C38.63 596.17 38.63 596.17 41 596 C39.76 593.37 38.51 590.74 37.25 588.12 C36.9 587.38 36.55 586.63 36.2 585.86 C35.67 584.79 35.67 584.79 35.14 583.7 C34.83 583.04 34.51 582.38 34.19 581.7 C32.73 579.62 31.32 578.95 29 578 Z M369 578 C364.92 583.76 361.63 589.45 359 596 C363.92 595.57 366.49 593.36 370 590 C372.29 586.77 372.42 583.91 372 580 C371.01 579.34 370.02 578.68 369 578 Z M8 587 C6.71 588.09 6.71 588.09 6.62 590.69 C7.13 595.13 8.88 596.88 12 600 C15.26 602.32 18.07 602.18 22 602 C21.48 597.69 20.12 595.47 17.25 592.25 C16.57 591.47 15.9 590.69 15.2 589.89 C12.74 587.78 11.21 587.24 8 587 Z M386.87 588.26 C381.61 593.01 381.61 593.01 378 599 C378.21 601.25 378.21 601.25 379 603 C384.81 602.21 388.2 599.34 392 595 C393.15 592.58 393.56 590.68 394 588 C390.32 586.85 390.32 586.85 386.87 588.26 Z M374 566 C372.53 568.66 372.53 568.66 372 572 C373.25 573.38 374.51 574.76 375.82 576.08 C378.32 580.14 377.33 585.4 377 590 C377.47 589.58 377.94 589.16 378.43 588.72 C379.05 588.17 379.67 587.63 380.31 587.06 C380.93 586.52 381.54 585.97 382.18 585.41 C385.86 582.56 389.51 582.61 394 583 C396.44 584.56 396.44 584.56 398 587 C398.68 592.24 397.64 595.49 395 600 C395.75 599.95 396.5 599.91 397.27 599.86 C405.16 599.57 405.16 599.57 408.69 601.38 C410.72 605.45 410.76 609.54 410 614 C407.25 619.84 402.72 622.38 397 625 C391.76 625.79 388.47 624.81 384 622 C381.53 618.3 381.69 616.38 382 612 C382.66 610.68 383.32 609.36 384 608 C380.7 608 377.4 608 374 608 C373.5 602.06 373.5 602.06 373 596 C372.09 596.6 371.18 597.2 370.25 597.81 C367.76 599.32 366.14 599.99 363.21 600.27 C359.52 600.63 357.25 601.14 354 603 C350.12 608.03 347.68 614.04 345.05 619.79 C343.44 623.18 341.39 626.17 339.23 629.23 C338.03 630.96 337.01 632.72 336 634.56 C334.36 637.38 332.75 639.53 330.69 642 C328.42 644.97 328.01 645.72 327.88 649.62 C329.43 654.28 331.23 657.7 335.23 660.64 C341.3 663.62 348.72 662.85 355.12 661.19 C368.86 655.91 380.44 645.48 391.97 636.56 C394.72 634.45 397.5 632.38 400.28 630.32 C402.78 628.4 404.89 626.33 407 624 C407.52 623.44 408.03 622.88 408.57 622.3 C413.02 617.01 414.87 611.93 415 605 C413.65 595 408.93 585.93 401.63 578.98 C393.57 572.91 383.65 568.76 374 566 Z M-5 605 C-6.24 607.94 -6.01 608.97 -4.81 612 C-1.95 616.92 -1.95 616.92 2.89 619.57 C6.45 620.19 8.31 620.4 11.5 618.56 C12 618.05 12.49 617.53 13 617 C12.44 613.53 11.39 612.09 8.69 609.88 C8.09 609.38 7.5 608.88 6.89 608.37 C2.81 605.41 0.07 604.77 -5 605 Z M388 612 C386.71 614.11 386.71 614.11 386 616 C387.02 618.14 387.02 618.14 389 620 C392.65 620.72 394.95 620.61 398.2 618.72 C402.2 615.89 402.2 615.89 405 612 C405.04 609.67 405.04 607.33 405 605 C397.83 603.91 393.24 607.29 388 612 Z " fill="#000000" transform="translate(466,73)"/>
<path d="M0 0 C8.32 6.24 13.05 14.82 15 25 C15.75 35.87 14.94 42.78 7.94 51.19 C0.53 58.86 -5.81 61.47 -16.38 61.69 C-25.77 61.59 -32.89 59.37 -40.14 53.17 C-46.79 46.3 -49.21 38.89 -49.44 29.44 C-49.1 18.83 -46.45 11.7 -39 4 C-27.5 -5.96 -13.2 -7.46 0 0 Z M-13.81 7.19 C-15.4 9.61 -15.36 11.15 -15 14 C-13.06 16.38 -13.06 16.38 -9.5 16.25 C-5.94 16.38 -5.94 16.38 -4 14 C-3.64 11.15 -3.6 9.61 -5.19 7.19 C-8.22 5.2 -10.78 5.2 -13.81 7.19 Z " fill="#000000" transform="translate(576,320)"/>
<path d="M0 0 C7.58 6.82 11.99 13.76 13.41 23.91 C13.88 32.93 11.18 42.09 5.81 49.44 C-3.47 57.89 -11.94 59.38 -24.23 59.28 C-32.08 58.7 -38.54 55.71 -44 50 C-50.52 40.57 -51.87 33.48 -51 22 C-48.91 12.69 -44.39 4.03 -36.44 -1.44 C-24.38 -8.98 -11.24 -8.92 0 0 Z M-18 5 C-18.94 7.74 -19.14 9.43 -18.44 12.25 C-17.03 14.28 -17.03 14.28 -14.06 14.94 C-11.09 15.24 -11.09 15.24 -9.06 14 C-7.36 10.8 -8.13 8.41 -9 5 C-13.01 2.33 -13.99 2.33 -18 5 Z " fill="#000000" transform="translate(792,322)"/>
<path d="M0 0 C3.52 3.09 5.74 6.67 7.99 10.75 C8.51 11.65 9.02 12.56 9.55 13.5 C13.55 20.99 15.97 28.53 17.99 36.75 C18.22 37.64 18.45 38.54 18.68 39.46 C21.86 52.06 24.5 64.7 26.43 77.56 C26.61 78.68 26.78 79.81 26.96 80.97 C28.83 94.26 28.06 105.52 20.43 116.75 C12.35 126.94 0.84 134.5 -12.01 136.75 C-16.86 137.23 -20.78 137.02 -25.32 135.18 C-29.83 133.43 -31.24 133.99 -35.51 135.81 C-44.65 138.26 -53.68 137.21 -62.01 132.75 C-65.9 129.98 -69.44 126.92 -73.01 123.75 C-74.13 122.88 -74.13 122.88 -75.27 121.99 C-81.56 117.03 -86.67 109.8 -88.01 101.75 C-88.84 89.14 -87.23 77.47 -84.54 65.18 C-84.04 62.9 -83.57 60.62 -83.11 58.34 C-81.17 48.91 -81.17 48.91 -80.01 47.75 C-79.69 46.08 -79.39 44.41 -79.11 42.73 C-76.53 27.19 -72.27 10.2 -59.63 -0.32 C-55.06 -3.49 -50.31 -5.6 -45.01 -7.25 C-44.26 -7.49 -43.52 -7.73 -42.75 -7.97 C-28.29 -11.7 -12.07 -8.61 0 0 Z M-58.26 7.81 C-74.18 28.8 -82 71.55 -80.88 97.75 C-80 103.96 -77.23 108.21 -73.01 112.75 C-72.44 113.36 -71.88 113.98 -71.29 114.62 C-62.91 122.84 -52.67 125.32 -41.2 125.21 C-37.64 124.69 -35.17 123.42 -32.01 121.75 C-29.32 121.94 -27.6 122.39 -25.3 123.77 C-18.19 126.8 -8.52 125.37 -1.57 122.62 C3.31 120.3 8.15 117.6 11.99 113.75 C11.99 113.09 11.99 112.43 11.99 111.75 C12.65 111.75 13.31 111.75 13.99 111.75 C21.87 98.93 20.77 86.11 17.99 71.75 C17.77 70.51 17.56 69.27 17.33 68 C15.89 59.82 14.11 51.79 12.02 43.76 C11.31 41.06 10.68 38.36 10.09 35.64 C7.45 23.62 3.22 11.42 -7.01 3.75 C-21.63 -5.57 -45.89 -5.3 -58.26 7.81 Z " fill="#000000" transform="translate(696.0078125,312.25390625)"/>
</svg>
