<?xml version="1.0" encoding="UTF-8"?>
<!-- Generator: visioncortex VTracer 0.6.3 -->
<svg version="1.1" xmlns="http://www.w3.org/2000/svg" width="1280" height="715">
<path d="M0 0 C1.34 0.41 2.68 0.81 4.03 1.22 C26.86 8.21 48.93 16.79 70.44 27.19 C72.19 28.02 73.95 28.85 75.7 29.68 C97.82 40.3 118 54.04 136.44 70.19 C137.23 70.87 138.02 71.55 138.84 72.25 C151.3 83.16 163.43 94.97 173.44 108.19 C174.35 109.35 175.26 110.51 176.18 111.67 C186.1 124.41 194.51 138.14 202.44 152.19 C206.07 150.98 206.66 149.81 208.88 146.75 C222.67 129.13 243.58 119.78 264.65 113.94 C265.74 113.64 266.82 113.34 267.94 113.02 C282.01 109.15 296.19 105.73 310.38 102.31 C338.68 95.5 338.68 95.5 365.31 83.94 C366.18 83.48 367.04 83.01 367.94 82.54 C375.81 78.22 382.66 73.05 389.44 67.19 C390.22 66.54 391.01 65.89 391.82 65.22 C396.54 61.27 400.47 56.88 404.44 52.19 C405.44 51.03 406.44 49.88 407.45 48.73 C412.52 42.92 417.53 37.11 422.31 31.06 C426.56 25.86 430.07 21.72 437 20.62 C444.56 21.86 448.99 27.38 453.44 33.19 C472.5 59.8 478.46 91.08 473.26 123.34 C472.45 127.66 471.51 131.93 470.44 136.19 C470.26 136.89 470.08 137.6 469.9 138.33 C461.55 170.43 443.18 199.04 420.09 222.5 C418.51 224.12 416.94 225.75 415.38 227.39 C408.82 234.22 401.8 240.17 394.22 245.84 C392.49 247.15 390.77 248.49 389.06 249.83 C359.94 272.3 325.37 286.44 290.94 298.53 C255.81 310.64 255.81 310.64 224.44 330.19 C223.57 330.76 222.7 331.33 221.8 331.92 C216.18 335.97 214.41 340.31 212.54 346.73 C212.29 347.57 212.03 348.4 211.77 349.27 C209.25 357.63 206.89 366.04 204.54 374.45 C192.96 415.78 179.33 456.13 161.44 495.19 C160.7 496.84 159.95 498.49 159.21 500.14 C146.17 528.75 129.41 555.61 107.87 578.57 C105.92 580.67 104.07 582.79 102.25 585 C98.99 588.83 95.31 592 91.44 595.19 C90.45 596.01 89.46 596.84 88.45 597.69 C54.79 625.3 14.67 636.68 -27.85 641.93 C-29.07 642.08 -30.29 642.23 -31.55 642.39 C-33.18 642.59 -33.18 642.59 -34.85 642.79 C-37.65 643.12 -37.65 643.12 -40.56 644.19 C-20.09 654.81 1.8 662.83 24.41 667.57 C29.03 668.58 31.99 669.93 35.44 673.19 C35.06 675.88 35.06 675.88 33.44 679.19 C26.91 683.44 19.17 685.97 11.88 688.56 C10.79 688.95 9.71 689.33 8.59 689.73 C-65.73 715.73 -151.04 720.59 -223.27 686.25 C-227.29 684.31 -231.29 682.33 -235.27 680.33 C-237.91 679.02 -240.55 677.71 -243.19 676.4 C-245.09 675.46 -246.97 674.49 -248.86 673.52 C-250.02 672.94 -251.18 672.36 -252.38 671.77 C-253.4 671.24 -254.43 670.72 -255.49 670.18 C-260.17 668.67 -263.76 669.41 -268.23 671.34 C-269.06 671.81 -269.9 672.29 -270.76 672.78 C-271.71 673.31 -272.66 673.84 -273.64 674.39 C-274.65 674.96 -275.65 675.53 -276.69 676.12 C-278.85 677.32 -281.02 678.51 -283.19 679.7 C-284.27 680.3 -285.35 680.89 -286.46 681.5 C-308.59 693.54 -331.97 701.91 -356.69 706.69 C-358.48 707.03 -358.48 707.03 -360.31 707.39 C-379.07 710.76 -397.71 711.56 -416.75 711.5 C-417.89 711.5 -419.03 711.5 -420.2 711.49 C-503.58 711.24 -583.25 690.83 -650.14 639.77 C-654.15 636.71 -658.3 633.89 -662.56 631.19 C-663.42 631.87 -664.29 632.54 -665.18 633.24 C-688.05 650.85 -715.52 661.86 -743.56 668.19 C-744.33 668.36 -745.09 668.54 -745.88 668.72 C-756.58 671.09 -767.25 671.46 -778.19 671.5 C-779.47 671.51 -780.75 671.51 -782.07 671.52 C-798.08 671.39 -798.08 671.39 -804.12 667.56 C-806.28 664 -806.53 661.14 -805.56 657.19 C-801.67 649.1 -795.64 642.68 -789.56 636.19 C-788.41 634.86 -787.26 633.53 -786.12 632.19 C-780.77 626.05 -775.02 620.22 -768.81 614.94 C-757.2 604.93 -746.27 594.13 -739.56 580.19 C-740.78 579.84 -742 579.49 -743.25 579.12 C-750.4 576.75 -759.73 573.2 -764.56 567.19 C-765.66 563.88 -765.69 561.45 -765.7 557.96 C-765.72 556.58 -765.73 555.2 -765.75 553.81 C-765.76 553.06 -765.77 552.3 -765.78 551.52 C-766.14 525.12 -768.22 498.8 -770.08 472.48 C-773.43 425.08 -773.46 379.26 -766.19 332.19 C-766.05 331.26 -765.91 330.34 -765.76 329.38 C-763.14 312.35 -758.83 296.58 -752.44 280.56 C-751.96 279.37 -751.49 278.18 -751 276.95 C-731.4 228.31 -700.5 183.8 -653.56 158.19 C-652.62 157.67 -652.62 157.67 -651.66 157.15 C-641.03 151.4 -630.02 146.99 -618.56 143.19 C-617.42 142.81 -617.42 142.81 -616.25 142.42 C-592.56 134.68 -567.44 130.83 -542.81 127.38 C-541.77 127.23 -541.77 127.23 -540.7 127.07 C-520.15 124.18 -499.53 122.77 -478.78 122.8 C-477.73 122.8 -476.69 122.8 -475.61 122.8 C-448.94 122.84 -422.44 124.93 -395.87 127.13 C-390.76 127.54 -385.64 127.94 -380.53 128.34 C-263.08 137.48 -263.08 137.48 -218.56 169.19 C-217.45 169.97 -216.33 170.74 -215.21 171.52 C-203.59 179.66 -192.41 188.26 -182 197.93 C-179.92 199.86 -177.79 201.72 -175.62 203.56 C-166.35 211.66 -158.16 220.51 -150.56 230.19 C-149.73 231.2 -148.91 232.21 -148.05 233.25 C-129.41 256.16 -115.14 282.32 -100.48 307.85 C-97.99 312.19 -95.48 316.52 -92.98 320.85 C-90.48 325.18 -87.98 329.51 -85.49 333.84 C-84.18 336.11 -82.88 338.37 -81.57 340.63 C-79.54 344.15 -77.52 347.67 -75.5 351.19 C-75 352.06 -75 352.06 -74.49 352.95 C-69.61 361.47 -64.92 370.08 -60.31 378.75 C-45.89 405.77 -31.51 427.62 -0.94 437.5 C31.22 447.24 68.34 440.91 97.62 425.32 C107.87 419.67 116.99 413.37 125.44 405.19 C126.05 404.65 126.66 404.11 127.29 403.56 C145.75 386.74 154.85 357.09 158.44 333.19 C158.58 332.36 158.72 331.53 158.86 330.68 C159.54 323.4 155.36 318 151.44 312.19 C151.06 311.63 150.69 311.07 150.3 310.49 C123.81 271.33 87.7 247.99 45.6 228.02 C26.85 219.12 8.31 209.74 -7.56 196.19 C-8.1 195.74 -8.63 195.28 -9.18 194.82 C-37.7 170.46 -53.19 135.28 -56.19 98.19 C-57.91 69.35 -56.29 28.05 -39.56 3.19 C-29.11 -8.35 -13.23 -4.14 0 0 Z M-33.56 7.19 C-51.75 32.85 -51.9 82.79 -46.97 112.23 C-42.51 136.28 -33.48 157.43 -17.56 176.19 C-16.45 177.52 -16.45 177.52 -15.32 178.87 C4.42 201.65 33.41 214.58 60.12 227.25 C83.91 238.57 107.16 251.39 125.68 270.51 C128.04 273.42 128.04 273.42 130.44 273.19 C130.7 273.78 130.95 274.37 131.22 274.97 C132.54 277.37 133.93 278.78 135.94 280.62 C144.14 288.65 150.64 298.09 156.57 307.87 C157.48 309.34 158.45 310.77 159.44 312.19 C160.1 312.19 160.76 312.19 161.44 312.19 C161.62 303.91 161.62 303.91 160.94 295.69 C160.15 290.21 160.36 284.72 160.44 279.19 C161.76 279.52 163.08 279.85 164.44 280.19 C173.53 313.46 165.48 351.78 150.44 382.19 C149.94 383.19 149.94 383.19 149.44 384.22 C144.19 394.73 137.81 402.99 129.44 411.19 C128.59 412.06 127.74 412.93 126.86 413.83 C106.55 433.64 75.38 445.5 47.44 448.19 C46.17 448.32 44.91 448.45 43.61 448.59 C15.71 451.11 -12.7 445.13 -34.89 427.52 C-48.87 415.32 -57.23 399.24 -65.75 383.08 C-70.4 374.27 -75.29 365.65 -80.35 357.07 C-84.61 349.85 -88.74 342.57 -92.81 335.25 C-97.01 327.71 -101.26 320.2 -105.67 312.78 C-108.18 308.55 -110.65 304.3 -113.09 300.04 C-137.11 258.04 -163.94 218.99 -202.9 189.46 C-204.5 188.23 -206.08 186.97 -207.66 185.71 C-257.36 146.19 -312.19 141.05 -373.3 136.32 C-377.73 135.98 -382.16 135.63 -386.59 135.27 C-399.91 134.22 -413.24 133.19 -426.56 132.19 C-427.78 132.1 -427.78 132.1 -429.02 132 C-444.74 130.83 -460.41 129.82 -476.19 129.94 C-477 129.94 -477.82 129.94 -478.66 129.95 C-535.86 130.23 -600.74 137.35 -651.56 165.19 C-652.18 165.52 -652.8 165.86 -653.44 166.21 C-676.61 178.9 -697.6 198.48 -712.56 220.19 C-712.96 220.75 -713.36 221.32 -713.77 221.9 C-725.5 238.56 -734.57 256.47 -742.56 275.19 C-743.04 276.3 -743.52 277.4 -744.01 278.54 C-750.11 292.87 -755.03 306.55 -757.12 322 C-757.64 325.74 -758.23 329.46 -758.83 333.18 C-761.21 348.14 -763.39 363.08 -764.56 378.19 C-764.67 379.46 -764.78 380.73 -764.9 382.05 C-767.12 411.98 -764.82 441.84 -762.62 471.69 C-762.06 479.36 -761.51 487.04 -760.97 494.72 C-760.91 495.65 -760.84 496.58 -760.77 497.55 C-759.4 517.41 -758.85 537.28 -758.56 557.19 C-757.14 557.68 -755.72 558.16 -754.3 558.65 C-753.51 558.92 -752.72 559.19 -751.91 559.47 C-720.73 569.05 -688.73 554.18 -661.63 540.41 C-646.99 533.04 -631.84 527.55 -615.56 525.19 C-614.83 525.08 -614.1 524.97 -613.35 524.86 C-569 518.63 -524.35 529.34 -481.89 541.25 C-439.07 553.23 -405.17 550.9 -363.5 536.56 C-356.24 534.07 -348.95 531.64 -341.65 529.27 C-339.76 528.65 -337.87 528.02 -335.99 527.4 C-324.81 523.76 -313.35 520.74 -301.56 520.19 C-300.28 520.12 -299 520.06 -297.68 519.99 C-285.6 519.59 -274.32 521.56 -262.56 524.19 C-262.89 525.84 -263.22 527.49 -263.56 529.19 C-269.43 528.74 -275.2 528.11 -281 527.12 C-307.39 523 -332.51 532.28 -357.06 540.81 C-357.88 541.1 -358.71 541.38 -359.55 541.67 C-361.92 542.49 -364.29 543.33 -366.66 544.16 C-367.36 544.41 -368.07 544.65 -368.8 544.91 C-376.08 547.52 -381.02 551.31 -385.81 557.38 C-413.27 590.62 -458.85 601.47 -499.95 605.63 C-557.59 610.85 -618.39 606.93 -673.56 589.19 C-674.59 588.86 -675.62 588.53 -676.67 588.19 C-686.83 584.9 -696.86 581.51 -706.55 577.02 C-722.12 569.81 -735.32 566.12 -752.56 566.19 C-750 568.21 -747.62 569.74 -744.61 570.99 C-743.83 571.32 -743.06 571.65 -742.27 571.99 C-741.02 572.52 -741.02 572.52 -739.75 573.06 C-715.34 583.78 -692.36 598.2 -671.45 614.7 C-667.14 618.1 -662.77 621.44 -658.41 624.78 C-657.08 625.79 -655.76 626.8 -654.45 627.82 C-601.61 668.44 -547.61 691.1 -481.56 700.19 C-480.85 700.29 -480.14 700.38 -479.41 700.48 C-442.65 705.5 -404.3 707.17 -367.56 701.19 C-365.98 700.93 -365.98 700.93 -364.36 700.67 C-342.47 696.97 -321.53 690.93 -301.56 681.19 C-300.73 680.78 -299.89 680.37 -299.03 679.95 C-289.42 675.26 -279.88 670.44 -270.56 665.19 C-271.3 661.8 -271.3 661.8 -275.08 660.39 C-276.65 659.73 -278.23 659.08 -279.81 658.44 C-280.66 658.09 -281.51 657.74 -282.39 657.38 C-299.7 650.4 -317.63 645.28 -335.56 640.19 C-335.56 638.87 -335.56 637.55 -335.56 636.19 C-304.51 638.2 -274.36 653.42 -246.9 667.06 C-212.03 684.35 -178.71 698.22 -139.56 702.19 C-137.69 702.38 -137.69 702.38 -135.79 702.59 C-132.38 702.89 -128.99 703.07 -125.56 703.19 C-124.49 703.23 -124.49 703.23 -123.41 703.27 C-82.48 704.62 -9.34 701.79 23.44 675.19 C22.42 674.92 21.4 674.65 20.34 674.38 C-8.02 666.79 -33.77 655.74 -59.9 642.56 C-61.11 641.95 -62.33 641.34 -63.54 640.73 C-66.1 639.44 -68.64 638.15 -71.16 636.8 C-84.1 629.96 -97.57 627.17 -111.88 624.94 C-114.25 624.56 -116.63 624.17 -119 623.79 C-120.46 623.55 -121.92 623.32 -123.38 623.09 C-128.34 622.3 -128.34 622.3 -130.56 621.19 C-131.19 619.12 -131.19 619.12 -131.56 617.19 C-110.68 616.27 -87.86 621.59 -69.12 630.83 C-68.19 631.29 -67.25 631.75 -66.29 632.22 C-64.48 633.13 -62.68 634.06 -60.9 635.02 C-60.08 635.45 -59.25 635.87 -58.4 636.31 C-57.68 636.69 -56.97 637.08 -56.23 637.48 C-52.22 638.55 -48.62 637.8 -44.56 637.19 C-43.1 637 -41.64 636.81 -40.17 636.62 C15.51 629.03 69.01 615.53 106.44 570.19 C107.17 569.34 107.9 568.5 108.66 567.62 C121.46 552.69 131.79 536.3 141.44 519.19 C142.1 518.02 142.1 518.02 142.77 516.82 C170.77 466.68 187.36 410.38 202.47 355.3 C207 338.84 212.1 322.66 218.12 306.69 C218.58 305.49 219.03 304.29 219.49 303.05 C225.63 287.11 225.63 287.11 228.44 283.19 C230.59 282.42 230.59 282.42 232.44 282.19 C232.8 287.27 231.57 291.05 229.56 295.63 C229.27 296.33 228.98 297.02 228.68 297.73 C227.44 300.68 226.18 303.61 224.92 306.54 C224 308.69 223.09 310.85 222.18 313.01 C221.89 313.67 221.6 314.33 221.31 315.01 C220.17 317.73 219.37 319.67 219.77 322.64 C220.1 323.4 220.1 323.4 220.44 324.19 C221.16 323.65 221.87 323.12 222.61 322.57 C239.61 310.33 257.83 302.82 277.51 295.87 C346.96 271.31 417.49 237.01 451.44 167.19 C466.43 135.08 474.16 97.31 461.75 63.06 C456.94 50.61 449.79 35.76 438.44 28.19 C435.17 28.32 433.76 28.9 431.3 31.09 C430.25 32.31 430.25 32.31 429.19 33.56 C428.41 34.47 427.63 35.37 426.82 36.31 C423.78 39.98 420.77 43.68 417.77 47.39 C414.54 51.27 411.13 54.98 407.7 58.7 C405.89 60.69 404.18 62.71 402.5 64.81 C398.41 69.61 393.41 73.35 388.44 77.19 C386.91 78.4 386.91 78.4 385.35 79.63 C378.76 84.71 371.86 88.75 364.38 92.38 C363.6 92.75 362.83 93.13 362.04 93.53 C346.6 100.73 329.92 105.08 313.42 109.07 C310.54 109.77 307.67 110.48 304.8 111.19 C296.84 113.15 288.89 115.09 280.92 116.98 C251.08 124.13 226.51 134.32 207.44 159.19 C205.44 161.19 205.44 161.19 203.02 161.57 C200.44 161.19 200.44 161.19 198.7 159.49 C198.18 158.69 197.66 157.89 197.12 157.06 C196.53 156.14 195.93 155.23 195.31 154.28 C193.02 150.49 190.85 146.64 188.69 142.78 C172.91 114.97 149.73 88.68 124.44 69.19 C123.43 68.39 122.43 67.59 121.4 66.77 C99.78 49.69 -13.18 -13.19 -33.56 7.19 Z M-635.44 536 C-636.7 536.43 -636.7 536.43 -637.98 536.86 C-648.57 540.65 -658.57 545.83 -668.64 550.8 C-680.69 556.73 -692.57 562.22 -705.76 565 C-707.37 565.34 -708.97 565.76 -710.56 566.19 C-710.89 566.85 -711.22 567.51 -711.56 568.19 C-679.28 581.88 -646.43 592.54 -611.56 597.19 C-610.47 597.34 -609.38 597.49 -608.26 597.65 C-587.72 600.34 -567.11 600.5 -546.43 600.56 C-544.29 600.56 -542.15 600.57 -540.02 600.59 C-489.8 600.84 -435.51 595.24 -396.59 560.33 C-394.48 558.1 -393.03 555.87 -391.56 553.19 C-396.43 553.67 -401.19 554.29 -406 555.2 C-412.97 556.37 -419.81 556.56 -426.88 556.56 C-428.06 556.59 -429.24 556.61 -430.46 556.64 C-449.52 556.7 -467.94 551.85 -486.15 546.67 C-504.81 541.39 -523.43 536.42 -542.56 533.19 C-543.55 533.02 -544.53 532.84 -545.55 532.67 C-559.47 530.33 -573.35 529.89 -587.44 529.81 C-588.25 529.8 -589.06 529.8 -589.89 529.79 C-605.24 529.67 -620.85 530.91 -635.44 536 Z M-733.56 584.19 C-735.51 587.17 -737.24 590.27 -739 593.37 C-744.43 602.05 -752.46 609.21 -759.73 616.34 C-761.44 618.04 -763.16 619.74 -764.88 621.44 C-767.54 624.07 -770.2 626.7 -772.87 629.32 C-775.47 631.88 -778.07 634.46 -780.66 637.03 C-781.85 638.19 -781.85 638.19 -783.05 639.36 C-789.54 645.82 -796.4 653.04 -798.56 662.19 C-792.16 664.09 -786.35 664.5 -779.69 664.44 C-778.17 664.43 -778.17 664.43 -776.61 664.41 C-741.9 663.9 -694.95 652.58 -669.56 627.19 C-669.49 625.23 -669.49 625.23 -670.56 623.19 C-683.1 611.32 -715.73 584.19 -733.56 584.19 Z " fill="#000000" transform="translate(805.5625,3.8125)"/>
<path d="M0 0 C11.66 8.19 16.5 19.25 19 33 C20.52 47.82 16.59 61.42 7.69 73.31 C0.86 80.14 -5.78 83.42 -15.38 84.31 C-24.52 83.52 -31.45 80.49 -38 74 C-47.47 62.44 -51.16 48.79 -50 34 C-48.31 22.16 -43.65 9.9 -33.9 2.38 C-23.14 -5.12 -11.7 -6.7 0 0 Z M-33 23 C-34.98 28.97 -35.21 36.44 -32.38 42.12 C-30.23 45.17 -30.23 45.17 -27.06 46.25 C-23.85 46.26 -23.85 46.26 -21.25 44 C-16.98 38.3 -16.64 33.15 -17.52 26.3 C-18.36 22.3 -20.16 19.84 -23 17 C-28.38 15.84 -30.11 18.82 -33 23 Z M-4 52 C-5.21 52.98 -5.21 52.98 -5.1 54.85 C-5.09 55.58 -5.07 56.31 -5.06 57.06 C-5.04 58.36 -5.02 59.66 -5 61 C-3.68 61 -2.36 61 -1 61 C-1 58.36 -1 55.72 -1 53 C-1.99 52.67 -2.98 52.34 -4 52 Z " fill="#000000" transform="translate(505,412)"/>
<path d="M0 0 C12.61 8.9 17.84 21.02 20.75 35.81 C21.86 49.96 19.01 63.97 10.15 75.38 C4.19 81.82 -2.02 85.1 -10.81 85.62 C-19.78 85.27 -27.21 81.3 -33.38 74.88 C-43.7 62.06 -47.26 47.2 -46 31 C-44.15 19.02 -39.61 8.66 -30 1 C-20.03 -5.24 -10.53 -5.37 0 0 Z M-27 21 C-29.72 26.5 -29.65 31.99 -29 38 C-27.55 42.28 -25.08 45.9 -21 48 C-18.54 48.75 -18.54 48.75 -16 48 C-10.57 42.45 -9.65 38.36 -9.71 30.86 C-10.24 25.61 -12.3 21.7 -16 18 C-20.86 15.57 -23.51 17.6 -27 21 Z M-2.69 55 C-4.85 58.29 -4.31 61.12 -4 65 C-3.34 65.66 -2.68 66.32 -2 67 C0.58 66.83 0.58 66.83 3 66 C4.11 63.77 4.16 62.47 4.19 60 C4.2 59.3 4.22 58.6 4.23 57.88 C4.17 55.75 4.17 55.75 2 54 C-0.9 53.75 -0.9 53.75 -2.69 55 Z " fill="#000000" transform="translate(106,431)"/>
<path d="M0 0 C4.79 2.57 8.82 5.08 11.31 10.06 C11.71 13.68 11.83 15.39 9.56 18.31 C2.54 23.78 -6.18 22.74 -14.69 22.06 C-25.6 20.63 -38.43 16.87 -45.98 8.53 C-48.05 5.54 -48.69 3.69 -48.69 0.06 C-39.93 -14.76 -12.17 -5.76 0 0 Z M-39.61 1.58 C-39.97 2.07 -40.32 2.56 -40.69 3.06 C-34.69 10.84 -23.8 13.34 -14.46 14.79 C-8.57 15.37 -2.36 15.95 3.31 14.06 C2.94 11.69 2.66 10.39 0.89 8.72 C-8.89 2.73 -19.45 -0.04 -30.88 -0.19 C-32.09 -0.21 -33.3 -0.24 -34.54 -0.27 C-37.68 -0.22 -37.68 -0.22 -39.61 1.58 Z " fill="#000000" transform="translate(825.6875,463.9375)"/>
<path d="M0 0 C2.83 3.11 3.97 4.78 4.06 9 C2.08 14.61 -0.94 17.67 -6.12 20.31 C-10.81 22.47 -14.63 23.18 -19.81 23.25 C-21.62 23.29 -21.62 23.29 -23.46 23.33 C-28.5 22.86 -31.74 21.16 -35.44 17.75 C-37 15 -37 15 -37.06 11.56 C-35.58 6.58 -33.39 3.49 -29.03 0.77 C-20.24 -3.79 -8.83 -5.54 0 0 Z M-29 10 C-28.66 12.47 -28.66 12.47 -28 15 C-23.55 17.22 -17.34 16.55 -12.6 15.43 C-9.1 14.19 -6.3 12.95 -4 10 C-4 8.68 -4 7.36 -4 6 C-12.16 2.04 -22.3 3.88 -29 10 Z " fill="#000000" transform="translate(900,458)"/>
<path d="M0 0 C5.38 3.01 8.79 6.3 11.31 11.94 C12.09 15.41 11.98 17.59 11 21 C9.32 23.56 8.14 23.96 5.19 24.88 C1.11 25.03 -0.6 24.26 -4 22 C-8.31 17.65 -11.13 14.37 -11.38 8.12 C-11.33 4.36 -11.29 3.36 -8.88 0.31 C-5.25 -1.34 -3.77 -1.23 0 0 Z M-4 7 C-3.68 10.53 -3.35 12.56 -1.12 15.38 C0.95 17.3 0.95 17.3 4 17 C3.73 13.06 3.45 11.44 0.56 8.62 C-1.78 6.82 -1.78 6.82 -4 7 Z " fill="#000000" transform="translate(716,428)"/>
<path d="M0 0 C2.77 1.4 3.89 2.57 6 5 C6.69 7.94 6.69 7.94 6 11 C4.15 13.92 2.14 16.43 -1 18 C-3.1 18.17 -5.21 18.27 -7.31 18.31 C-8.44 18.35 -9.57 18.39 -10.74 18.43 C-14.66 17.91 -16.24 16.78 -19 14 C-20.21 10.45 -20.33 8.78 -18.88 5.31 C-13.81 -0.93 -7.44 -1.83 0 0 Z M-12 8 C-11.67 8.99 -11.34 9.98 -11 11 C-6.35 11.27 -6.35 11.27 -2 10 C-2 9.01 -2 8.02 -2 7 C-6.08 6.07 -8.42 5.66 -12 8 Z " fill="#000000" transform="translate(859,487)"/>
<path d="M0 0 C5.24 1.89 7.97 4.46 11 9 C11.62 12.06 11.62 12.06 11 15 C8.61 18.17 6.91 19.7 3.12 20.94 C-2.18 21.04 -5.74 20.07 -9.81 16.62 C-12.7 13.16 -14 11.56 -14 7 C-13 4 -13 4 -10.38 1.62 C-6.47 -0.26 -4.29 -0.54 0 0 Z M-5 7 C-5 8.32 -5 9.64 -5 11 C-3.1 13.35 -3.1 13.35 0.12 13.12 C1.55 13.06 1.55 13.06 3 13 C2.72 11.06 2.72 11.06 2 9 C-0.95 6.63 -0.95 6.63 -5 7 Z " fill="#000000" transform="translate(760,429)"/>
</svg>
