<?xml version="1.0" encoding="UTF-8"?>
<!-- Generator: visioncortex VTracer 0.6.3 -->
<svg version="1.1" xmlns="http://www.w3.org/2000/svg" width="1280" height="836">
<path d="M0 0 C-4.57 15.79 -19.04 25.86 -32.62 33.69 C-44.11 40.01 -56.4 44.4 -68.75 48.73 C-69.42 48.97 -70.1 49.21 -70.8 49.46 C-74.18 50.64 -77.55 51.82 -80.94 52.97 C-96.22 58.23 -107.93 63.97 -117.55 77.18 C-119 79 -119 79 -121 80 C-120.48 75.11 -119.05 71.9 -116.44 67.75 C-116.09 67.19 -115.74 66.63 -115.38 66.06 C-112.39 61.39 -109.03 57.07 -105.47 52.83 C-103.9 51.26 -103.9 51.26 -104 50 C-112.53 55.57 -120.14 61.56 -127.51 68.6 C-128.99 69.99 -130.5 71.34 -132.03 72.69 C-142.72 82.12 -151.95 92.55 -159 105 C-159.33 105.56 -159.65 106.12 -159.99 106.7 C-168.07 120.75 -171.71 135.9 -173 152 C-173.99 152 -174.98 152 -176 152 C-176.33 144.41 -176.66 136.82 -177 129 C-179.07 133.03 -181.14 137.06 -183.19 141.1 C-183.89 142.47 -184.59 143.84 -185.29 145.2 C-192.24 158.68 -196.54 170.54 -196.62 185.94 C-196.68 188.41 -196.74 190.87 -196.8 193.34 C-196.83 194.5 -196.86 195.66 -196.89 196.85 C-197.41 211.79 -202.22 224.62 -208.18 238.15 C-211.79 246.46 -213.37 253.68 -213.31 262.75 C-213.31 263.63 -213.3 264.51 -213.3 265.41 C-213.11 276.17 -211.16 287.26 -203.75 295.5 C-202.88 296.24 -202.88 296.24 -202 297 C-201.74 296.38 -201.49 295.76 -201.22 295.13 C-199.82 292.69 -198.93 292.12 -196.41 290.96 C-195.7 290.63 -194.99 290.3 -194.25 289.96 C-189.93 288.12 -185.57 286.39 -181.18 284.73 C-174.07 281.92 -169.28 278.47 -166.14 271.38 C-165.84 270.7 -165.55 270.01 -165.25 269.31 C-161.7 261.6 -157.45 256.59 -151 251 C-150.34 250.34 -149.68 249.68 -149 249 C-149.66 248.01 -150.32 247.02 -151 246 C-151 245.01 -151 244.02 -151 243 C-150.34 243 -149.68 243 -149 243 C-148.63 243.47 -148.26 243.95 -147.88 244.44 C-144.9 246.92 -141.81 246.69 -138 247 C-138.52 246.01 -139.03 245.02 -139.56 244 C-141.44 239.65 -141.03 236.58 -140 232 C-139.34 231.67 -138.68 231.34 -138 231 C-137.87 231.9 -137.87 231.9 -137.74 232.83 C-136.79 238.28 -136.79 238.28 -133.38 242.56 C-132.59 243.04 -131.81 243.51 -131 244 C-131.43 243.16 -131.43 243.16 -131.88 242.3 C-135.34 234.82 -135.42 228.16 -135 220 C-134.34 219.67 -133.68 219.34 -133 219 C-132.84 219.97 -132.68 220.93 -132.52 221.93 C-130.49 233.54 -127.18 242.25 -119 251 C-119.91 248.11 -119.91 248.11 -120.94 245.87 C-123.55 239.88 -124.72 234.53 -125 228 C-124.34 228 -123.68 228 -123 228 C-122.72 228.96 -122.44 229.91 -122.15 230.89 C-118.83 241.8 -114.43 250.44 -106.56 258.88 C-101.44 264.38 -97.8 270.55 -94 277 C-87.79 287.69 -87.79 287.69 -78.67 295.86 C-76.07 297.63 -75.02 299.02 -74 302 C-73.77 308.35 -74.78 313.09 -79 318 C-86.96 325.61 -95.41 327.3 -106.05 327.23 C-113.19 326.81 -120.24 325.75 -127.32 324.75 C-132.86 323.98 -138.42 323.46 -144 323 C-144 322.34 -144 321.68 -144 321 C-139.36 319.84 -134.83 319.81 -130.08 319.75 C-128.31 319.72 -126.55 319.69 -124.78 319.65 C-122.02 319.61 -119.26 319.56 -116.49 319.52 C-113.81 319.48 -111.13 319.43 -108.45 319.38 C-107.23 319.37 -107.23 319.37 -105.99 319.35 C-98.5 319.19 -91.25 318.44 -85 314 C-86.79 314.29 -88.58 314.58 -90.38 314.88 C-91.37 315.04 -92.37 315.2 -93.4 315.37 C-95.33 315.71 -97.25 316.06 -99.16 316.5 C-106.39 318.15 -113.41 318.38 -120.81 318.38 C-122.09 318.38 -123.36 318.38 -124.67 318.38 C-134.22 318.27 -143.06 317.03 -152.35 314.96 C-158.85 313.53 -165.36 313.2 -172 313 C-148.87 332.79 -107.93 336.86 -79.1 342.54 C-77 343 -77 343 -74 344 C-74 344.66 -74 345.32 -74 346 C-91.49 345.58 -108.68 343.32 -126 341 C-125.35 341.94 -124.7 342.87 -124.02 343.84 C-121.98 347.03 -121.53 348.21 -121.75 351.88 C-121.79 352.66 -121.82 353.44 -121.86 354.24 C-121.91 354.82 -121.95 355.4 -122 356 C-122.66 356 -123.32 356 -124 356 C-124.33 355.01 -124.66 354.02 -125 353 C-135.27 364.63 -145.08 376.61 -153 390 C-153.84 387.62 -154.11 386.34 -153.35 383.9 C-152.99 383.16 -152.64 382.42 -152.27 381.66 C-151.88 380.85 -151.49 380.03 -151.08 379.19 C-150.66 378.34 -150.24 377.5 -149.81 376.62 C-149.41 375.79 -149.01 374.95 -148.6 374.09 C-146.36 369.47 -143.97 365.19 -141 361 C-173.1 383.22 -188.11 420.87 -195 458 C-195.77 462.32 -196.45 466.65 -197 471 C-196.34 471 -195.68 471 -195 471 C-194.91 472.26 -194.81 473.53 -194.71 474.83 C-192.38 508.71 -192.38 508.71 -186 542 C-185.73 543.02 -185.47 544.04 -185.19 545.1 C-181.91 557.37 -178.23 569.41 -173 581 C-172.71 581.64 -172.42 582.29 -172.12 582.95 C-154.03 622.59 -119 649.29 -78.98 664.55 C-56.56 672.73 -33.49 676.19 -9.76 676.19 C-7.07 676.19 -4.38 676.21 -1.7 676.22 C7.06 676.25 15.45 676.17 24 674 C23.4 673.52 22.8 673.04 22.19 672.54 C14.23 666.06 4.63 655.54 3 645 C1.38 622.99 10.3 604.78 24 588 C26.25 585.74 28.43 583.9 31 582 C29.73 585.53 28.24 588.17 25.94 591.12 C22.43 596.01 19.82 601.14 17.25 606.56 C16.87 607.35 16.5 608.14 16.11 608.96 C10.74 620.53 6.06 633.31 10.38 646 C16.44 659.38 29.18 667.29 42.17 672.94 C61.02 680.01 82.61 680.61 101.12 672.47 C119.44 663.14 129.75 643.8 136 625 C137.16 621.17 138.17 617.32 139.14 613.44 C140.02 609.93 140.99 606.47 142 603 C142.33 603 142.66 603 143 603 C143.33 607.62 143.66 612.24 144 617 C148.64 605.8 153.04 594.78 156 583 C156.66 583.33 157.32 583.66 158 584 C155.57 604.54 148.35 621.62 139 640 C161.5 624.67 176.15 605.77 185 580 C185.36 578.98 185.72 577.95 186.09 576.9 C188.99 568.1 190.67 559.15 192 550 C192.1 549.36 192.2 548.72 192.3 548.06 C193.25 541.01 193.15 533.91 193.13 526.81 C193.12 524.61 193.13 522.4 193.14 520.2 C193.14 518.79 193.13 517.38 193.13 515.98 C193.13 514.71 193.13 513.44 193.13 512.14 C193.14 508.97 193.14 508.97 192 506 C193.08 504.34 193.08 504.34 194.81 502.38 C205.32 489.49 217.58 470.14 217 453 C216.56 453.71 216.13 454.43 215.68 455.16 C212.15 460.84 208.63 466.15 204 471 C203.34 471 202.68 471 202 471 C203.64 466.22 206.27 462.21 209 458 C208.3 458.6 207.6 459.2 206.88 459.81 C201.74 463.72 197.42 465.36 191 466 C191.64 460.94 193.16 456.55 194.94 451.81 C199.24 439.87 203.18 424.54 199 412 C198.42 412.74 197.84 413.47 197.24 414.23 C189.12 424.38 189.12 424.38 184 428 C183.34 428 182.68 428 182 428 C184.13 423.26 187.25 419.1 190.19 414.84 C196.1 406.33 196.1 406.33 198.75 396.5 C198.83 395.35 198.91 394.19 199 393 C207.52 403.32 208.84 420.09 208 433 C207.45 438.68 206.74 444.34 206 450 C212.11 442.71 218.23 434.81 219 425 C225.24 431.24 224.33 446.77 224.38 455.06 C224.18 477.92 217.13 495.64 203.85 513.96 C200.52 519.43 199.76 524.73 199.73 531.06 C199.71 532.42 199.69 533.77 199.67 535.13 C199.67 535.83 199.66 536.54 199.65 537.26 C199.18 576.01 190.13 608.76 162.15 636.86 C158.11 640.6 153.68 643.64 149.06 646.62 C148.46 647.02 147.85 647.41 147.22 647.81 C143.88 649.93 140.55 651.67 136.94 653.25 C132.1 655.94 130.8 659.75 129.13 664.87 C128.74 666.24 128.37 667.62 128 669 C127.77 669.84 127.55 670.68 127.31 671.54 C125.62 677.98 124.21 684.45 123 691 C122.79 692.04 122.79 692.04 122.58 693.1 C121.84 697.06 121.6 700.19 123 704 C126 707.1 129.09 709.43 132.68 711.79 C135.48 713.65 137.47 715.32 139.69 717.81 C148.66 727.13 160.11 727 172.26 727.27 C173.21 727.28 174.16 727.3 175.14 727.32 C176.14 727.34 177.15 727.36 178.18 727.38 C181.35 727.44 184.52 727.5 187.69 727.56 C189.85 727.61 192.02 727.65 194.19 727.69 C199.46 727.8 204.73 727.9 210 728 C210.33 728.66 210.66 729.32 211 730 C197.8 730.66 184.6 731.32 171 732 C183.81 736.66 194.55 738.2 207.91 738.66 C213.97 738.87 219.97 739.32 226 740 C226 740.33 226 740.66 226 741 C208.67 741.5 208.67 741.5 191 742 C203.3 743.7 203.3 743.7 215.56 744.41 C216.36 744.43 217.16 744.45 217.98 744.47 C220.47 744.53 222.95 744.58 225.44 744.62 C227.15 744.66 228.87 744.7 230.58 744.74 C234.72 744.84 238.86 744.92 243 745 C243 745.66 243 746.32 243 747 C241.38 747.04 241.38 747.04 239.73 747.08 C235.7 747.17 231.66 747.27 227.63 747.37 C225.89 747.42 224.15 747.46 222.41 747.5 C219.9 747.56 217.39 747.62 214.88 747.68 C214.11 747.7 213.34 747.72 212.55 747.73 C207.64 747.87 202.87 748.32 198 749 C198.4 750.58 198.4 750.58 198.81 752.19 C199 756 199 756 196.75 758.88 C193.17 761.64 190.73 762.13 186.34 762.11 C185.4 762.11 184.46 762.11 183.49 762.11 C182.48 762.11 181.47 762.1 180.43 762.1 C179.39 762.1 178.35 762.09 177.28 762.09 C173.96 762.09 170.63 762.08 167.31 762.06 C165.06 762.06 162.81 762.05 160.56 762.05 C155.04 762.04 149.52 762.02 144 762 C144.32 763.1 144.65 764.19 144.98 765.32 C147.08 772.92 146.52 780.58 144 788 C141.32 792.59 139.12 796.29 134 798 C123.58 799.32 114.69 795.07 106.48 789 C95.73 780.36 95.73 780.36 91.75 774.94 C86.62 771.32 81 771.99 75 773 C70.2 774.81 65.84 777.14 61.38 779.66 C27.71 798.59 27.71 798.59 15 797 C12.08 795.6 10.28 794.28 8 792 C6.27 783.66 9.67 776.93 14 770 C16.53 766.54 19.18 763.23 22 760 C13.06 759.91 4.17 759.83 -4.75 760.5 C-20.55 761.64 -33.57 760.43 -48.29 754.52 C-57.48 750.6 -57.48 750.6 -67 752 C-71.82 754.7 -76.22 757.93 -80.65 761.23 C-93.21 770.59 -107.57 781.21 -124 779 C-128.31 776.89 -130.48 773.85 -132.94 769.81 C-133.92 766.3 -134.11 763.85 -134.07 760.26 C-134.05 758.78 -134.05 758.78 -134.04 757.27 C-134.03 756.52 -134.01 755.77 -134 755 C-153.69 756.18 -153.69 756.18 -173.25 758.62 C-195.96 762.16 -195.96 762.16 -206 757 C-208.2 755.14 -209.34 753.42 -211 751 C-211 750.01 -211 749.02 -211 748 C-226.88 746.97 -242.75 746.7 -258.65 746.47 C-262.09 746.42 -265.52 746.36 -268.96 746.31 C-275.64 746.2 -282.32 746.1 -289 746 C-286.28 743.28 -284.7 743.64 -280.88 743.43 C-279.91 743.38 -279.91 743.38 -278.91 743.32 C-267.5 742.72 -256.08 742.35 -244.66 741.95 C-221.38 742.43 -221.38 742.43 -202 732 C-201.67 731.67 -201.34 731.34 -201 731 C-218.32 730.5 -218.32 730.5 -236 730 C-236.33 729.34 -236.66 728.68 -237 728 C-235.93 727.95 -234.85 727.9 -233.75 727.85 C-229.73 727.66 -225.71 727.46 -221.69 727.26 C-219.95 727.17 -218.22 727.09 -216.49 727.01 C-213.98 726.89 -211.48 726.76 -208.97 726.63 C-207.83 726.58 -207.83 726.58 -206.66 726.53 C-198.36 726.08 -191.35 724.5 -184 720.5 C-165.65 710.99 -146.53 704.65 -126.62 699.4 C-125.88 699.2 -125.15 699 -124.39 698.8 C-123.02 698.43 -121.64 698.07 -120.26 697.72 C-116.04 696.58 -113.19 695 -110 692 C-108.22 688.45 -109.17 684.77 -110 681 C-112.41 674.36 -114.76 670.57 -121 667 C-124.25 665.5 -127.56 664.16 -130.88 662.81 C-151.9 653.98 -172.83 642.3 -181.95 619.99 C-184.7 612.14 -185.16 604.02 -185.18 595.76 C-185.23 580.76 -187.12 561.89 -198.39 550.61 C-199.96 549.17 -201.57 547.77 -203.19 546.38 C-219.53 531.68 -230.72 510.99 -232.14 488.8 C-233.26 461.44 -226.6 437.77 -208.75 416.75 C-204.06 411.74 -198.7 407.66 -193.23 403.54 C-187.59 399.19 -184.15 394.83 -180.94 388.56 C-170.31 369.01 -154.1 356.82 -135 346 C-136.42 345.43 -136.42 345.43 -137.87 344.84 C-141.46 343.39 -145.06 341.92 -148.65 340.46 C-150.19 339.83 -151.73 339.21 -153.27 338.58 C-161.53 335.25 -169.69 331.79 -177.66 327.81 C-178.61 327.34 -178.61 327.34 -179.58 326.85 C-198.49 317.23 -214.73 304.21 -221.86 283.5 C-223.8 276.79 -224.51 270.6 -224.44 263.62 C-224.43 262.61 -224.42 261.6 -224.4 260.55 C-224.01 244.76 -216.97 232.15 -210.06 218.25 C-207.87 213.61 -207.93 209.58 -208 204.56 C-208 202.83 -208 201.09 -208 199.36 C-208 196.75 -208 194.14 -208.04 191.54 C-208.45 155.36 -186 116.24 -162.5 89.84 C-160.1 87.11 -157.86 84.3 -155.62 81.44 C-134.58 55.75 -103.59 38.12 -73 26.38 C-72.36 26.13 -71.72 25.88 -71.06 25.62 C-67.59 24.35 -64.69 23.73 -61 24 C-64.35 27.6 -68.08 30.34 -72.06 33.19 C-78.58 37.9 -84.85 42.82 -91 48 C-90.46 47.77 -89.92 47.53 -89.36 47.29 C-87.69 46.56 -86.02 45.83 -84.35 45.11 C-82.33 44.23 -80.31 43.35 -78.29 42.46 C-73 40.15 -67.71 37.87 -62.37 35.66 C-41.99 27.2 -19.7 17.7 -4.34 1.22 C-3 0 -3 0 0 0 Z M-144.12 258.38 C-145.83 260.76 -146.83 262.84 -148 265.5 C-155.41 280.74 -171.38 289.87 -186.75 295.38 C-187.77 295.72 -187.77 295.72 -188.81 296.06 C-192.21 297.21 -194.75 298.13 -197 301 C-196.67 301.99 -196.34 302.98 -196 304 C-192.1 304.72 -188.38 305.13 -184.41 305.18 C-172.04 305.42 -159.97 306.09 -147.73 307.78 C-124.62 310.96 -103.97 310.17 -81 306 C-82.56 302.67 -83.8 300.92 -87 299 C-89.65 298.29 -89.65 298.29 -92 298 C-92 297.34 -92 296.68 -92 296 C-91.01 295.67 -90.02 295.34 -89 295 C-89.74 294.16 -89.74 294.16 -90.5 293.31 C-91.18 292.55 -91.86 291.79 -92.56 291 C-93.3 290.18 -94.03 289.35 -94.79 288.5 C-96.71 286.33 -98.61 284.14 -100.5 281.94 C-101.66 280.62 -102.83 279.31 -104 278 C-104.56 277.36 -105.11 276.73 -105.69 276.07 C-109.85 271.59 -114.45 268.1 -119.5 264.69 C-120.12 264.27 -120.73 263.85 -121.37 263.41 C-127.64 259.3 -136.96 253.74 -144.12 258.38 Z M-192 413 C-194.36 415.64 -196.69 418.31 -199 421 C-199.65 421.75 -200.3 422.5 -200.96 423.27 C-218.94 444.76 -223.83 469.42 -222 497 C-219.59 516.54 -210.19 535.34 -196 549 C-195.34 548.67 -194.68 548.34 -194 548 C-194.21 546.9 -194.43 545.8 -194.65 544.67 C-197.43 529.2 -197.34 513.93 -197.19 498.25 C-197.17 495.6 -197.16 492.94 -197.15 490.29 C-197.11 483.86 -197.06 477.43 -197 471 C-198.6 474.06 -199.39 476.55 -199.85 479.98 C-199.98 480.92 -200.11 481.85 -200.24 482.82 C-200.37 483.78 -200.49 484.75 -200.62 485.75 C-200.76 486.73 -200.89 487.72 -201.03 488.73 C-201.36 491.15 -201.68 493.58 -202 496 C-203.1 469.79 -198.53 443.23 -191.38 418.07 C-190.79 415.82 -190.79 415.82 -192 413 Z M204 451 C205 453 205 453 205 453 Z M204 500 C203.03 500.78 202.06 501.57 201.06 502.38 C200.52 502.82 199.97 503.26 199.41 503.71 C197.87 504.97 197.87 504.97 197 507 C196.96 509.33 196.96 511.67 197 514 C197.99 514.5 197.99 514.5 199 515 C200.03 512.88 201.05 510.75 202.06 508.62 C202.63 507.44 203.2 506.26 203.79 505.04 C204.19 504.04 204.59 503.03 205 502 C204.67 501.34 204.34 500.68 204 500 Z M-179 593 C-178.3 609.2 -170.8 623.96 -159 635 C-150.13 641.31 -140.53 647.09 -130 650 C-133.26 646.64 -136.64 643.56 -140.21 640.55 C-154.19 628.76 -164.76 615.78 -173.98 600 C-175.5 597.41 -176.87 595.13 -179 593 Z M-106 666 C-105.57 667.24 -105.13 668.48 -104.69 669.75 C-98.29 689.14 -98.29 689.14 -100.81 699.25 C-105.89 705.63 -115.44 707.65 -123 710 C-123 710.66 -123 711.32 -123 712 C-121.51 712.99 -121.51 712.99 -120 714 C-120.33 714.33 -120.66 714.66 -121 715 C-121.7 714.48 -122.4 713.97 -123.12 713.44 C-126.61 711.7 -128.3 712.05 -132 713 C-132.33 716 -132.33 716 -130.5 717.69 C-130 718.12 -129.51 718.55 -129 719 C-129.33 719.33 -129.66 719.66 -130 720 C-130.68 719.34 -131.36 718.68 -132.06 718 C-135.82 715.44 -137.49 715.64 -142 716 C-145.22 716.81 -148.32 717.88 -151.44 719 C-152.26 719.29 -153.09 719.57 -153.94 719.87 C-155.97 720.57 -157.98 721.28 -160 722 C-159.01 722.5 -159.01 722.5 -158 723 C-158 723.66 -158 724.32 -158 725 C-158.58 725.18 -159.16 725.36 -159.76 725.55 C-164.39 727.04 -168.7 728.68 -173 731 C-173.5 730.5 -173.5 730.5 -174 730 C-173.34 729.34 -172.68 728.68 -172 728 C-176.55 728.62 -180.28 730.47 -184.31 732.56 C-184.96 732.89 -185.6 733.22 -186.27 733.56 C-187.85 734.37 -189.42 735.18 -191 736 C-190.34 736.33 -189.68 736.66 -189 737 C-192.75 740.88 -192.75 740.88 -195 742 C-195 742.66 -195 743.32 -195 744 C-192.03 743.01 -189.06 742.02 -186 741 C-190 745 -190 745 -193 746 C-196.75 745.62 -196.75 745.62 -200 745 C-200.33 746.65 -200.66 748.3 -201 750 C-194.11 752.3 -186.2 751.01 -179.12 749.94 C-177.88 749.75 -177.88 749.75 -176.62 749.57 C-167.46 748.09 -158.51 745.74 -149.56 743.34 C-135.55 739.64 -135.55 739.64 -130.19 742.5 C-129.47 743 -128.74 743.49 -128 744 C-127.34 744 -126.68 744 -126 744 C-124.89 742.37 -123.87 740.7 -122.88 739 C-118.62 732.13 -113.98 725.53 -106 723 C-99.03 722.01 -92.98 723.27 -87 727 C-86.67 727.66 -86.34 728.32 -86 729 C-86.55 728.71 -87.09 728.42 -87.65 728.12 C-93.43 725.28 -97.58 724.59 -104 725 C-104 725.33 -104 725.66 -104 726 C-102.02 726.33 -100.04 726.66 -98 727 C-100.64 727.33 -103.28 727.66 -106 728 C-106 728.99 -106 729.98 -106 731 C-107.5 732.24 -109 733.47 -110.53 734.66 C-112.54 736.49 -113.26 738.42 -114 741 C-114 739.68 -114 738.36 -114 737 C-114.33 736.34 -114.66 735.68 -115 735 C-116.13 737.18 -117.26 739.37 -118.38 741.56 C-118.85 742.48 -118.85 742.48 -119.34 743.41 C-122.35 749.35 -124.28 755.07 -124.31 761.81 C-124.34 763.21 -124.34 763.21 -124.36 764.64 C-124.24 765.42 -124.12 766.2 -124 767 C-120.59 769.28 -118.76 769.35 -114.76 768.77 C-103.45 765.6 -93.53 756.89 -84.21 750.07 C-82.8 749.05 -81.4 748.02 -80 747 C-79.44 746.59 -78.87 746.17 -78.29 745.75 C-72.13 741.3 -66.79 738.18 -59 739 C-55.17 739.96 -51.64 741.49 -48 743 C-44.8 744.24 -41.59 745.43 -38.38 746.62 C-37.19 747.08 -37.19 747.08 -35.99 747.54 C-28.81 750.23 -21.74 752.4 -14 752 C-14.16 750.02 -14.16 750.02 -15 748 C-16.99 747.04 -16.99 747.04 -19.38 746.56 C-23.76 745.31 -23.76 745.31 -26.06 742.31 C-26.37 741.55 -26.68 740.79 -27 740 C-26.24 740.66 -25.47 741.32 -24.69 742 C-22.16 744.3 -22.16 744.3 -19 744 C-19 743.34 -19 742.68 -19 742 C-19.66 741.67 -20.32 741.34 -21 741 C-21.62 739.92 -21.62 739.92 -22.25 738.83 C-24.43 735.31 -27.06 732.64 -30 729.75 C-30.58 729.18 -31.15 728.6 -31.75 728.01 C-36.04 723.82 -40.53 719.99 -45.23 716.25 C-48.37 713.7 -51.38 711.04 -54.38 708.31 C-55.33 707.44 -56.29 706.57 -57.27 705.68 C-59.27 703.72 -60.9 701.91 -62.6 699.73 C-65.11 696.88 -65.59 696.78 -69 696 C-70.2 693.96 -70.2 693.96 -71.12 691.38 C-71.64 690.02 -71.64 690.02 -72.16 688.64 C-73 686 -73 686 -73.5 682.19 C-75.7 677.52 -78.97 676.91 -83.68 675.2 C-87.87 673.69 -91.81 671.76 -95.82 669.82 C-96.9 669.41 -96.9 669.41 -98 669 C-98.66 669.33 -99.32 669.66 -100 670 C-99.49 670.91 -99.49 670.91 -98.98 671.84 C-96.13 677.18 -94.31 681.98 -93.36 687.97 C-93.09 690.06 -93.09 690.06 -92 692 C-95.32 689.31 -96.56 685.95 -98 682 C-97.67 681.34 -97.34 680.68 -97 680 C-98.11 676.87 -98.11 676.87 -99.75 673.44 C-100.55 671.67 -100.55 671.67 -101.36 669.87 C-102.74 666.72 -102.74 666.72 -106 666 Z M-71 680 C-70.67 682.97 -70.34 685.94 -70 689 C-69.67 689 -69.34 689 -69 689 C-69.33 686.03 -69.66 683.06 -70 680 C-70.33 680 -70.66 680 -71 680 Z M109 678 C106.96 682.36 106 686.18 106 691 C106.66 691 107.32 691 108 691 C107.01 694.3 106.02 697.6 105 701 C103.82 694.17 104.26 687.87 105 681 C104.31 681.34 103.62 681.68 102.91 682.02 C96.95 684.85 91.49 686.83 85 688 C85 691.3 85 694.6 85 698 C84.01 693.54 84.01 693.54 83 689 C82.01 689.33 81.02 689.66 80 690 C80.22 690.65 80.43 691.31 80.66 691.98 C82.73 698.78 84.49 705.92 83 713 C79.67 718.04 76.01 720.6 70.44 722.94 C69.65 723.27 68.86 723.61 68.05 723.95 C57.82 727.92 46.94 729.64 36.16 731.48 C16.45 734.83 16.45 734.83 -1 744 C-1.33 744.99 -1.66 745.98 -2 747 C8.19 747.28 18.33 746.87 28.5 746.25 C29.7 746.19 30.91 746.13 32.15 746.06 C39.05 745.6 44.12 744.63 50 741 C58.19 736.7 65.88 732.95 75 731 C75 731.66 75 732.32 75 733 C74.15 733.25 73.3 733.49 72.43 733.75 C68.69 735.11 65.47 736.95 62.12 739.06 C61.53 739.43 60.94 739.79 60.33 740.17 C58.86 741.08 57.43 742.04 56 743 C56 743.33 56 743.66 56 744 C58.97 744.66 61.94 745.32 65 746 C65 746.66 65 747.32 65 748 C64.67 747.67 64.34 747.34 64 747 C59.71 746.16 56.27 746.18 52.54 748.6 C51.01 749.88 49.5 751.2 48.04 752.57 C47.37 753.04 46.69 753.51 46 754 C45.36 753.81 44.72 753.62 44.06 753.42 C43.38 753.28 42.7 753.14 42 753 C39.37 754.94 39.37 754.94 36.81 757.75 C36.33 758.25 35.85 758.75 35.36 759.26 C22.75 771.48 22.75 771.48 17 787 C23.45 787.42 28.08 786.67 33.88 783.88 C34.62 783.53 35.36 783.19 36.12 782.84 C44.79 778.77 53.25 774.26 61.7 769.75 C70.96 764.84 79.27 761.18 90 763 C93.27 764.8 95.52 767.24 98 770 C105.83 778.36 114.88 787.48 126.94 788.25 C130.51 788.22 132.4 787.6 135 785 C134.67 784.01 134.34 783.02 134 782 C134 782.66 134 783.32 134 784 C131.03 783.5 131.03 783.5 128 783 C128 781.35 128 779.7 128 778 C128.66 777.67 129.32 777.34 130 777 C129.67 777.99 129.34 778.98 129 780 C129.99 780.33 130.98 780.66 132 781 C132 779.35 132 777.7 132 776 C132.99 776.33 133.98 776.66 135 777 C135.79 767.1 133.01 756.92 127 749 C123.48 746.65 121.49 746.62 117.31 746.38 C116.13 746.3 114.95 746.23 113.74 746.15 C112.38 746.07 112.38 746.07 111 746 C114.06 744.22 116.22 743.77 119.75 743.88 C120.55 743.89 121.35 743.91 122.17 743.93 C122.78 743.95 123.38 743.98 124 744 C124.5 742.51 124.5 742.51 125 741 C125.52 741.46 126.04 741.92 126.57 742.39 C128.01 743.66 129.46 744.92 130.91 746.17 C132.53 747.59 134.11 749.04 135.69 750.5 C137.88 752.29 137.88 752.29 140.34 751.6 C141.22 751.4 142.09 751.2 143 751 C151.46 750.53 159.94 751.34 168.38 752 C170.84 752.19 173.31 752.38 175.77 752.56 C177.39 752.69 177.39 752.69 179.04 752.82 C181.7 752.98 184.33 753.03 187 753 C186.26 749.69 186.26 749.69 182.87 748.14 C181.54 747.5 180.21 746.87 178.88 746.25 C178.22 745.92 177.57 745.59 176.9 745.25 C172.07 742.99 169.33 743.18 164 744 C160.77 743.46 157.69 742.53 154.56 741.56 C153.74 741.32 152.91 741.08 152.06 740.83 C150.03 740.23 148.02 739.62 146 739 C152.93 739.5 152.93 739.5 160 740 C155.42 737.71 150.89 736.72 145.93 735.68 C138.68 734 135.02 730.3 130.44 724.5 C126.49 719.5 126.49 719.5 122 715 C121.34 715 120.68 715 120 715 C117.68 718.22 117.68 718.22 117 722 C116.32 722.27 115.64 722.54 114.94 722.81 C112.77 723.69 110.63 724.61 108.5 725.56 C101.04 728.62 93.99 728.07 86 728 C90.62 727.34 95.24 726.68 100 726 C100 725.67 100 725.34 100 725 C93.73 724.67 87.46 724.34 81 724 C81.66 722.35 82.32 720.7 83 719 C83.5 720.98 83.5 720.98 84 723 C99.24 722.96 99.24 722.96 112.74 716.62 C115.04 713.65 114.23 710.63 114 707 C113.67 706.34 113.34 705.68 113 705 C112.87 702.03 112.81 699.1 112.81 696.12 C112.81 695.27 112.81 694.42 112.81 693.54 C112.87 686.88 113.54 680.51 115 674 C112.42 674 110.68 676.36 109 678 Z M-60 684 C-57.76 690.72 -53.86 694.65 -48.81 699.5 C-48.08 700.22 -47.35 700.94 -46.6 701.68 C-43.16 705.05 -39.67 708.32 -36.02 711.47 C-31.43 715.44 -27.15 719.7 -22.88 724 C-21.72 725.15 -21.72 725.15 -20.54 726.33 C-16.14 730.73 -11.98 735.22 -8 740 C-7.43 739.6 -6.87 739.2 -6.28 738.79 C9.6 727.72 26.95 723.03 45.75 719.5 C53.17 718.1 60.39 716.56 67.5 714 C68.49 713.66 68.49 713.66 69.5 713.32 C71.5 712.6 71.5 712.6 74 711 C75.23 708.1 75.13 706.55 74.4 703.5 C71.47 696.32 71.47 696.32 66 691 C63.62 690.29 61.28 689.85 58.83 689.46 C55.73 688.96 52.73 688.26 49.69 687.5 C48.72 687.26 47.76 687.03 46.76 686.78 C44 686 44 686 41.71 684.91 C35.13 682.7 28.12 684.2 21.48 685.48 C10.84 687.32 0.33 687.46 -10.43 687.39 C-13.63 687.37 -16.82 687.39 -20.02 687.41 C-30.82 687.42 -41.07 686.91 -51.65 684.64 C-54.55 684.09 -57.06 683.87 -60 684 Z M-69 690 C-68 692 -68 692 -68 692 Z M-68 693 C-67 695 -67 695 -67 695 Z M-67 695 C-66 697 -66 697 -66 697 Z M117 713 C118 716 118 716 118 716 Z M116 716 C114.51 717.98 114.51 717.98 113 720 C114.32 719.34 115.64 718.68 117 718 C116.67 717.34 116.34 716.68 116 716 Z M107 723 C109.47 722.66 109.47 722.66 112 722 C112.33 721.34 112.66 720.68 113 720 C110.24 720 109.11 721.31 107 723 Z M100 724 C104 725 104 725 104 725 Z M-109 728 C-110.65 729.65 -112.3 731.3 -114 733 C-113.67 733.66 -113.34 734.32 -113 735 C-111.35 733.35 -109.7 731.7 -108 730 C-108.33 729.34 -108.66 728.68 -109 728 Z M-144 752 C-144 752.33 -144 752.66 -144 753 C-141.36 753 -138.72 753 -136 753 C-136 752.67 -136 752.34 -136 752 C-138.64 752 -141.28 752 -144 752 Z M0 756 C0 756.33 0 756.66 0 757 C13.51 759.18 13.51 759.18 26 756 C17.42 756 8.84 756 0 756 Z " fill="#000000" transform="translate(670,8)"/>
<path d="M0 0 C7.01 1.88 13.4 4.34 19.88 7.62 C20.75 8.07 21.62 8.51 22.52 8.96 C46.79 21.55 68.29 46.2 77.58 72.1 C78.49 75.05 79.32 77.98 80 81 C80.07 79.61 80.07 79.61 80.15 78.19 C80.22 76.99 80.3 75.8 80.38 74.56 C80.44 73.37 80.51 72.17 80.59 70.94 C80.72 69.97 80.86 69 81 68 C81.66 67.67 82.32 67.34 83 67 C83.55 98.9 76.3 127.78 54.14 151.84 C42.36 163.69 28.83 170.78 11.97 171.03 C-15.68 170.94 -41.45 157.81 -62 140 C-62.61 139.54 -63.22 139.07 -63.84 138.59 C-73.48 131.14 -80.79 119.83 -86 109 C-86.43 108.15 -86.85 107.31 -87.29 106.44 C-90.18 100.48 -92.18 94.37 -94.05 88.04 C-95.38 83.68 -96.99 79.67 -99 75.56 C-105.18 62.79 -108.18 49.46 -108.12 35.31 C-108.13 34.36 -108.13 33.41 -108.14 32.44 C-108.14 31.52 -108.13 30.61 -108.13 29.68 C-108.13 28.85 -108.13 28.02 -108.13 27.17 C-108 25 -108 25 -107 22 C-106.34 22 -105.68 22 -105 22 C-104.93 23.06 -104.85 24.11 -104.77 25.2 C-102.26 55.28 -90.33 82.77 -70 105 C-69.27 105.81 -68.54 106.62 -67.79 107.46 C-49 127.37 -21.04 138.89 6 141 C17.25 141.28 24.83 138.6 33 131 C34.81 128.84 34.81 128.84 36 127 C33.03 126.34 30.06 125.68 27 125 C27 124.34 27 123.68 27 123 C27.81 122.81 28.62 122.61 29.45 122.41 C31.05 122.02 31.05 122.02 32.69 121.62 C33.74 121.37 34.8 121.11 35.89 120.85 C38.7 120.08 41.32 119.15 44 118 C41.03 117.34 38.06 116.68 35 116 C35 115.34 35 114.68 35 114 C35.94 113.83 36.88 113.66 37.85 113.48 C47.14 111.68 52.91 110.29 58.38 102.25 C59.26 100.84 60.14 99.43 61 98 C59.78 98.04 58.57 98.08 57.31 98.12 C53.78 98.14 51.2 97.6 48 96 C48 95.34 48 94.68 48 94 C48.89 93.76 48.89 93.76 49.79 93.52 C56.56 91.52 60.26 89.17 63.75 82.81 C66.21 76.32 67.04 69.37 64.23 62.89 C61.53 58.73 57.43 55.22 53 53 C53 52.34 53 51.68 53 51 C54.98 51 56.96 51 59 51 C48.73 40.25 38.34 31.81 25 25 C25 24.34 25 23.68 25 23 C32.07 24.25 37.71 26.56 44 30 C32.26 16.83 15.35 9.12 0 1 C0 0.67 0 0.34 0 0 Z M70 71 C70.06 71.97 70.12 72.94 70.19 73.94 C70.15 82.92 66.15 88.85 60 95 C60.99 95.99 61.98 96.98 63 98 C60.45 108.53 53.5 115.58 45 122 C43.99 122.6 42.98 123.2 41.94 123.81 C39.16 125.88 38.24 126.99 36.56 129.88 C32.68 136.49 27.9 140.1 20.63 142.39 C15.7 143.53 10.79 143.53 5.75 143.5 C4.04 143.49 4.04 143.49 2.3 143.48 C-26.59 142.88 -53.39 129.89 -74 110 C-76.2 107.7 -78.31 105.38 -80.35 102.94 C-82.13 100.84 -84.04 98.92 -86 97 C-82.75 107.67 -76.27 116.66 -69 125 C-68.49 125.59 -67.99 126.18 -67.46 126.79 C-50.83 144.74 -23.93 158.34 0.59 159.34 C15.74 159.62 15.74 159.62 30 155 C30.98 154.53 31.95 154.05 32.96 153.56 C44.74 147.27 53.98 138.34 61 127 C61.39 126.43 61.77 125.85 62.17 125.26 C65.52 120.18 67.73 115.04 69.75 109.31 C70.05 108.48 70.36 107.66 70.67 106.8 C74.92 94.99 75.97 82.79 71 71 C70.67 71 70.34 71 70 71 Z " fill="#000000" transform="translate(782,409)"/>
<path d="M0 0 C0.66 0 1.32 0 2 0 C5.23 6.46 2.02 17.9 0 24.44 C-4.49 36.79 -11.17 48.25 -20 58 C-20.74 58.82 -21.47 59.63 -22.23 60.48 C-31.18 69.91 -41.61 76.87 -53 83 C-52.35 83.07 -51.7 83.14 -51.03 83.21 C-24.4 86.15 -3.98 93.07 19.01 106.77 C25.39 110.54 31.8 114.07 38.5 117.25 C39.25 117.61 39.99 117.97 40.76 118.34 C51.6 123.35 64.25 125.27 75.94 121.94 C85.59 117.97 92.39 110.21 97 101 C97.66 101 98.32 101 99 101 C102.39 114.51 100.08 128.95 96 142 C97.32 139.25 98.63 136.5 99.94 133.75 C100.31 132.97 100.68 132.2 101.07 131.39 C101.43 130.64 101.78 129.89 102.15 129.11 C102.48 128.42 102.81 127.73 103.15 127.01 C103.99 125.03 104.54 123.1 105 121 C105.66 121 106.32 121 107 121 C107.86 137.26 103.29 149.3 93.22 161.68 C91.18 163.81 89.71 164.93 87 166 C87.33 164.35 87.66 162.7 88 161 C87.22 161.82 86.43 162.65 85.62 163.5 C83 166 83 166 81 166 C82.28 162.46 83.82 159.7 86.06 156.69 C88.44 153.18 89.62 150.55 89.86 146.23 C90.04 143.45 90.55 140.8 91.06 138.06 C91.94 132.95 92.17 128.18 92 123 C91.47 123.46 90.93 123.92 90.38 124.39 C84.93 128.88 79.73 131.84 73 134 C72.11 134.29 72.11 134.29 71.2 134.58 C47.72 139.04 27.78 126.52 8.5 115.01 C-5.75 106.53 -19.91 98.37 -36 94 C-37.05 93.7 -38.1 93.39 -39.18 93.08 C-54.41 89.05 -70.76 88.87 -86 93 C-83 105.9 -76.15 115.62 -67 125 C-68.49 125.5 -68.49 125.5 -70 126 C-72.33 124.65 -74.41 123.28 -76.56 121.69 C-77.18 121.24 -77.8 120.78 -78.44 120.32 C-92.7 109.7 -92.7 109.7 -96 102 C-95.34 101.34 -94.68 100.68 -94 100 C-94.66 98.35 -95.32 96.7 -96 95 C-97.38 94.93 -97.38 94.93 -98.79 94.86 C-116.33 93.98 -133.67 92.99 -151 90 C-151 89.34 -151 88.68 -151 88 C-149.54 87.93 -149.54 87.93 -148.06 87.86 C-105.82 85.87 -62.55 83.21 -30 53 C-29.1 52.2 -28.21 51.39 -27.29 50.57 C-20.47 44.18 -15.61 37.05 -11 29 C-10.5 28.13 -10.5 28.13 -10 27.25 C-5.05 18.45 -2.21 9.78 0 0 Z M94 143 C95 145 95 145 95 145 Z " fill="#000000" transform="translate(756,271)"/>
<path d="M0 0 C0.66 0 1.32 0 2 0 C-0.35 12.21 -5.31 23.21 -13 33 C2.7 29.38 16.88 20.5 29.05 10.22 C30.02 9.62 30.02 9.62 31 9 C31.99 9.33 32.98 9.66 34 10 C19.25 40.87 19.25 40.87 9 46 C10.39 46.1 10.39 46.1 11.8 46.21 C52.37 49.35 52.37 49.35 70.81 55.41 C74.8 56.49 78.89 56.75 83 57 C81.68 57.66 80.36 58.32 79 59 C79 59.66 79 60.32 79 61 C78.41 61.04 77.82 61.09 77.21 61.13 C70.54 61.7 64.19 62.94 57.69 64.5 C55.77 64.95 53.86 65.4 51.95 65.84 C51.12 66.04 50.29 66.24 49.43 66.44 C46.96 67.01 44.49 67.51 42 68 C44.44 70.77 47.05 72.14 50.31 73.81 C78.64 90.21 95.28 127.88 103.85 157.99 C106.78 169.06 109.16 179.92 109.13 191.41 C109.13 192.2 109.14 193 109.14 193.81 C109.14 196.38 109.13 198.94 109.12 201.5 C109.12 202.8 109.12 202.8 109.12 204.13 C109.11 217.78 108.81 231.38 108 245 C105.39 243.7 105.33 242.72 104.34 240.01 C104.02 239.17 103.71 238.33 103.38 237.46 C103.05 236.54 102.72 235.63 102.38 234.69 C101.67 232.78 100.95 230.87 100.24 228.96 C99.88 227.98 99.51 227 99.13 225.98 C97 220.36 94.72 214.79 92.44 209.22 C92.12 208.43 91.8 207.65 91.47 206.83 C91.04 205.79 91.04 205.79 90.61 204.73 C90 203 90 203 90 201 C93.69 202.46 95.16 204.3 97.25 207.62 C98.03 208.85 98.03 208.85 98.83 210.1 C99.21 210.73 99.6 211.35 100 212 C101.79 175.16 85.8 133.18 64 104 C63.36 103.07 62.73 102.14 62.07 101.18 C57.28 94.35 51.78 88.43 45.94 82.5 C45.18 81.72 44.43 80.94 43.65 80.14 C36.64 73.17 30.94 69.61 21 69.25 C20.32 69.22 19.64 69.19 18.94 69.16 C17.29 69.09 15.65 69.04 14 69 C14.5 67.52 14.5 67.52 15 66 C17.92 64.94 17.92 64.94 21.75 64 C22.42 63.83 23.08 63.67 23.77 63.5 C25.84 62.98 27.92 62.49 30 62 C31.28 61.7 32.57 61.39 33.89 61.08 C36.92 60.37 39.96 59.68 43 59 C43 58.67 43 58.34 43 58 C30.18 56.14 17.47 54.7 4.5 54.69 C2.97 54.68 2.97 54.68 1.41 54.67 C-4.68 54.73 -10.1 55.47 -16 57 C-15.5 56.01 -15.5 56.01 -15 55 C-18.63 54.67 -22.26 54.34 -26 54 C-23.21 51.21 -20.81 51.36 -16.94 50.75 C-5.26 48.64 1.54 41.94 10 34 C5.97 34 2.93 35.7 -0.69 37.31 C-7.18 40.12 -13.04 41.69 -20.04 42.73 C-27.45 43.99 -33.57 47.49 -40.12 51.03 C-44.6 53.34 -49.31 55.15 -54 57 C-52.67 53 -50.83 52.34 -47.31 50.06 C-30.39 38.74 -17.56 24.64 -6 8 C-4.84 6.37 -3.68 4.74 -2.5 3.12 C-1.83 2.2 -1.83 2.2 -1.16 1.26 C-0.58 0.64 -0.58 0.64 0 0 Z " fill="#000000" transform="translate(670,17)"/>
<path d="M0 0 C9.07 7.63 12.97 18.42 14 30 C14.36 36.65 13.74 42.58 12 49 C13.61 49.06 13.61 49.06 15.26 49.11 C36.94 50.03 36.94 50.03 46 55 C46 55.66 46 56.32 46 57 C45.39 56.86 44.78 56.71 44.15 56.56 C36.98 55.11 29.99 54.75 22.69 54.69 C21.75 54.67 20.8 54.65 19.83 54.63 C12.36 54.64 7.04 55.93 1.25 60.94 C-6.88 67.2 -15.89 69.22 -26 68 C-33.43 66.51 -40.48 64.6 -47.12 60.86 C-49.38 59.83 -51.48 59.5 -53.94 59.12 C-59.47 58.17 -63.83 55.76 -68 52 C-69.25 49.8 -69.25 49.8 -70 48 C-67.19 49.07 -64.63 50.21 -62 51.69 C-58.61 53.17 -57.47 52.87 -54 52 C-53.96 51.34 -53.92 50.68 -53.88 50 C-51.66 14.85 -51.66 14.85 -38.19 2.19 C-26.72 -7.28 -12.28 -8.78 0 0 Z M-37.82 8.94 C-44.43 17.97 -47.09 29.96 -47.31 41 C-47.35 42.2 -47.39 43.39 -47.43 44.62 C-46.92 48.62 -45.81 50.18 -43 53 C-40.54 54.45 -40.54 54.45 -38 55 C-36.51 54.5 -36.51 54.5 -35 54 C-35.52 53.22 -35.52 53.22 -36.06 52.43 C-42.34 42.81 -41.88 33.09 -39.81 21.96 C-37.65 14.04 -33.43 8.25 -26.36 4.06 C-21.29 1.78 -16.88 1.74 -11.44 2.5 C-3.84 5.81 0.68 10.97 4.04 18.46 C7.43 27.39 9.01 37.27 5.06 46.25 C1.22 53.07 -5.25 58.17 -12.72 60.57 C-22.12 62.34 -31.72 60.7 -41 59 C-36.04 63.96 -29.13 64.23 -22.44 64.31 C-12.64 64.07 -5.65 62.41 2 56 C8.98 48.67 10.44 41.36 10.25 31.41 C9.51 21.26 6.62 11.11 -1.11 4.08 C-12.78 -4.39 -28.06 -1.45 -37.82 8.94 Z M-31.81 14.69 C-33.24 16.97 -33.24 16.97 -32.81 19.69 C-32.24 22.17 -32.24 22.17 -30 23 C-27.88 22.11 -27.88 22.11 -26 21 C-26 18.36 -26 15.72 -26 13 C-29.92 12.55 -29.92 12.55 -31.81 14.69 Z " fill="#000000" transform="translate(657,218)"/>
<path d="M0 0 C9.06 4.78 13.69 14.89 16.76 24.33 C22.42 44.1 24.65 64.5 24 85 C23.67 85 23.34 85 23 85 C22.01 80.38 21.02 75.76 20 71 C20.25 72.86 20.25 72.86 20.5 74.75 C22.36 92.09 22.36 92.09 18 99 C11.59 102.36 3.34 102.03 -3.44 99.94 C-10.71 94.44 -14.17 87.96 -16 79 C-16.59 71.87 -15.39 64.95 -14.19 57.94 C-14.02 56.9 -13.86 55.86 -13.69 54.79 C-10.9 38.21 -10.9 38.21 -5 34 C-1.25 32.78 0.44 32.78 4.12 34.25 C6.55 35.72 8.75 37.28 11 39 C6.51 18.69 6.51 18.69 -6 3 C-5.01 2.34 -4.02 1.68 -3 1 C-2.01 1.33 -1.02 1.66 0 2 C0 1.34 0 0.68 0 0 Z M-5.59 40.62 C-11.77 51.01 -12.26 67.8 -9.47 79.3 C-9.32 79.86 -9.16 80.42 -9 81 C-8.67 81 -8.34 81 -8 81 C-7.95 79.88 -7.9 78.75 -7.85 77.6 C-6.9 57.84 -6.9 57.84 -1.8 48.63 C-0.85 47 -0.85 47 -1 45 C-0.38 44.71 0.24 44.42 0.88 44.12 C3.13 43.06 3.13 43.06 5 41 C1.45 38.63 -2.25 37.21 -5.59 40.62 Z M16 47 C17 50 17 50 17 50 Z M3 51 C2.67 52.32 2.34 53.64 2 55 C3.32 55 4.64 55 6 55 C5.67 53.68 5.34 52.36 5 51 C4.34 51 3.68 51 3 51 Z M17 52 C17 53.65 17 55.3 17 57 C17.33 57 17.66 57 18 57 C18 55.35 18 53.7 18 52 C17.67 52 17.34 52 17 52 Z M18 57 C18 58.98 18 60.96 18 63 C18.33 63 18.66 63 19 63 C19 61.02 19 59.04 19 57 C18.67 57 18.34 57 18 57 Z M-10 86 C-9 88 -9 88 -9 88 Z M-8 89 C-6.84 92.26 -5.05 94.32 -2.12 96.18 C2.6 98.01 7.97 98.21 13 98 C13.66 97.34 14.32 96.68 15 96 C13.89 96.06 12.77 96.12 11.62 96.19 C4.26 96.17 -2.64 94.19 -8 89 Z " fill="#000000" transform="translate(486,166)"/>
<path d="M0 0 C-0.33 0.66 -0.66 1.32 -1 2 C-2 1.65 -3 1.3 -4.04 0.94 C-5.38 0.48 -6.72 0.02 -8.06 -0.44 C-8.72 -0.67 -9.38 -0.9 -10.05 -1.13 C-27.79 -7.16 -46.43 -4.57 -63.19 3.06 C-83.84 14 -94.26 34.5 -101 56 C-102.02 59.33 -103.02 62.66 -104 66 C-104.33 66 -104.66 66 -105 66 C-105.59 44.74 -95 23.35 -80.62 8.12 C-58.58 -12.74 -25.77 -15.67 0 0 Z " fill="#000000" transform="translate(697,189)"/>
<path d="M0 0 C7.44 7.14 8.84 17.28 9.11 27.31 C9.05 40.59 6.47 53.99 4 67 C3.01 67 2.02 67 1 67 C0.11 63.18 -0.12 59.66 -0.11 55.74 C-0.11 54.5 -0.11 53.26 -0.11 51.98 C-0.11 50.64 -0.1 49.29 -0.1 47.95 C-0.1 46.57 -0.09 45.18 -0.09 43.8 C-0.09 40.17 -0.08 36.54 -0.07 32.92 C-0.06 29.21 -0.05 25.5 -0.05 21.79 C-0.04 14.53 -0.02 7.26 0 0 Z " fill="#000000" transform="translate(760,230)"/>
<path d="M0 0 C12.31 2.79 24.81 3.33 37.39 3.93 C37.06 4.59 36.73 5.25 36.39 5.93 C25.68 8.92 13.61 6.55 2.83 5.06 C1.5 4.88 0.16 4.7 -1.17 4.53 C-7.04 3.74 -12.88 2.9 -18.71 1.84 C-25.25 0.72 -31.74 0.48 -38.36 0.31 C-40.14 0.25 -40.14 0.25 -41.95 0.19 C-44.84 0.1 -47.72 0.01 -50.61 -0.07 C-50.61 -0.73 -50.61 -1.39 -50.61 -2.07 C-34.54 -5.74 -15.83 -3.69 0 0 Z " fill="#000000" transform="translate(529.608154296875,308.069580078125)"/>
<path d="M0 0 C9.18 7.09 14.01 17.34 16.07 28.6 C16.21 30.96 16.17 33.23 16.07 35.6 C15.41 35.27 14.75 34.94 14.07 34.6 C13.39 32.27 12.81 29.97 12.26 27.6 C10.7 21.33 8.75 15.99 5.07 10.6 C4.71 10.03 4.34 9.46 3.96 8.87 C0.59 4.19 -3.42 1.88 -8.93 0.6 C-20.21 -0.68 -30.65 -0.33 -39.83 6.88 C-44.67 11.11 -48.53 15.18 -51.93 20.6 C-52.26 19.61 -52.59 18.62 -52.93 17.6 C-47.75 7.45 -37.71 0.48 -27.17 -2.97 C-18.27 -4.66 -7.89 -4.79 0 0 Z " fill="#000000" transform="translate(657.92578125,210.3984375)"/>
<path d="M0 0 C4.33 1.96 4.33 1.96 5.62 4.19 C6.17 7.84 6.31 11 4.44 14.25 C1.87 15.58 0.45 14.8 -2.38 14.19 C-4.73 14.38 -7.05 14.69 -9.39 15.03 C-11.38 15.19 -11.38 15.19 -13.38 14.19 C-13.46 10.67 -12.77 8.66 -10.52 5.97 C-4.52 0.25 -4.52 0.25 0 0 Z M1.62 10.19 C2.62 12.19 2.62 12.19 2.62 12.19 Z " fill="#000000" transform="translate(551.375,278.8125)"/>
<path d="M0 0 C1.24 3.73 0.55 4.79 -0.88 8.38 C-7.34 24.78 -5.05 44.47 0 61 C0.31 62.08 0.62 63.15 0.93 64.26 C1.59 66.52 2.27 68.76 3 71 C2.34 71 1.68 71 1 71 C-8.51 52.6 -11.57 30.8 -6 10.62 C-4.48 6.65 -2.49 3.44 0 0 Z " fill="#000000" transform="translate(673,411)"/>
<path d="M0 0 C12.84 1.01 22.89 5.89 32 15 C32.68 17.18 32.68 17.18 33 19 C32.31 18.61 31.62 18.23 30.91 17.83 C22.45 13.14 14.49 9.07 5 7 C5.33 6.01 5.66 5.02 6 4 C3.69 3.34 1.38 2.68 -1 2 C-0.67 1.34 -0.34 0.68 0 0 Z " fill="#000000" transform="translate(786,457)"/>
<path d="M0 0 C1.15 0.08 2.29 0.17 3.47 0.25 C5 0.36 6.53 0.46 8.06 0.56 C8.81 0.62 9.57 0.67 10.34 0.73 C15.08 1.04 19.33 0.84 24 0 C24.33 1.65 24.66 3.3 25 5 C18.42 8.61 11.92 8.31 4.75 6.77 C4.17 6.51 3.6 6.26 3 6 C2.67 5.01 2.34 4.02 2 3 C1.34 2.67 0.68 2.34 0 2 C0 1.34 0 0.68 0 0 Z M20 3 C24 4 24 4 24 4 Z M8 4 C8 4.33 8 4.66 8 5 C11.96 5 15.92 5 20 5 C20 4.67 20 4.34 20 4 C16.04 4 12.08 4 8 4 Z " fill="#000000" transform="translate(576,708)"/>
<path d="M0 0 C4.45 0.29 8.15 0.59 12 3 C8.25 6 8.25 6 6 6 C5.85 6.96 5.85 6.96 5.69 7.94 C5.46 8.62 5.23 9.3 5 10 C4.01 10.33 3.02 10.66 2 11 C2 10.34 2 9.68 2 9 C1.34 9 0.68 9 0 9 C-0.33 8.01 -0.66 7.02 -1 6 C-1.66 6 -2.32 6 -3 6 C-2.43 3.13 -2.14 2.14 0 0 Z M2 7 C3 9 3 9 3 9 Z " fill="#000000" transform="translate(609,722)"/>
<path d="M0 0 C-2.44 7.46 -8.7 12.1 -15.33 15.91 C-18.19 17.35 -21.07 18.71 -24 20 C-24.66 19.34 -25.32 18.68 -26 18 C-25.27 17.62 -24.55 17.24 -23.8 16.86 C-16.93 13.09 -11.42 9.02 -5.83 3.56 C-2.18 0 -2.18 0 0 0 Z " fill="#000000" transform="translate(520,282)"/>
<path d="M0 0 C0.33 0.99 0.66 1.98 1 3 C-1.48 4.49 -1.48 4.49 -4 6 C-0.37 6.2 1.87 5.86 5 4 C4.05 7.19 3.3 8.75 0.69 10.88 C-2.41 12.17 -3.84 11.99 -7 11 C-7.33 9.35 -7.66 7.7 -8 6 C-2.25 1.12 -2.25 1.12 0 0 Z " fill="#000000" transform="translate(700,779)"/>
<path d="M0 0 C1.94 1.62 1.94 1.62 3 3 C2.67 3.66 2.34 4.32 2 5 C1.22 4.48 0.43 3.97 -0.38 3.44 C-7.21 0.73 -14.21 2.78 -21 5 C-18.1 0.34 -14.94 -0.34 -9.8 -1.59 C-5.79 -2.18 -3.67 -1.68 0 0 Z " fill="#000000" transform="translate(795,759)"/>
<path d="M0 0 C7.13 -0.66 11.96 1.19 18 5 C19.79 6.54 19.79 6.54 21 8 C21 8.66 21 9.32 21 10 C17.96 8.86 15.07 7.55 12.19 6.06 C8.22 4.05 4.19 2.5 0 1 C0 0.67 0 0.34 0 0 Z " fill="#000000" transform="translate(785,467)"/>
<path d="M0 0 C0.33 0 0.66 0 1 0 C1.33 1.98 1.66 3.96 2 6 C3.65 6 5.3 6 7 6 C7.33 5.01 7.66 4.02 8 3 C8.66 3 9.32 3 10 3 C9.38 5.88 9.38 5.88 8 9 C4.38 10.77 2.86 11.29 -1 10 C-2.23 4.58 -2.23 4.58 -1.06 1.62 C-0.54 0.82 -0.54 0.82 0 0 Z " fill="#000000" transform="translate(549,763)"/>
<path d="M0 0 C0 0.66 0 1.32 0 2 C-1.98 2.99 -1.98 2.99 -4 4 C-3.67 4.66 -3.34 5.32 -3 6 C-4.98 6 -6.96 6 -9 6 C-9 4.68 -9 3.36 -9 2 C-5.87 0.14 -3.63 -0.2 0 0 Z " fill="#000000" transform="translate(688,746)"/>
<path d="M0 0 C4.38 1.34 6.58 3.09 9 7 C8.75 9.31 8.75 9.31 8 11 C5 7.25 5 7.25 5 5 C4.38 4.71 3.76 4.42 3.12 4.12 C1 3 1 3 -1 1 C-0.67 0.67 -0.34 0.34 0 0 Z " fill="#000000" transform="translate(738,748)"/>
<path d="M0 0 C1 3 1 3 -0.36 5.88 C-1.01 6.95 -1.65 8.02 -2.31 9.12 C-2.95 10.2 -3.58 11.28 -4.24 12.38 C-6 15 -6 15 -8 16 C-6.43 10.03 -3.25 5.17 0 0 Z " fill="#000000" transform="translate(512,259)"/>
<path d="M0 0 C4.28 2.51 6.65 4.12 8 9 C4.21 7.51 2.32 5.31 0 2 C0 1.34 0 0.68 0 0 Z " fill="#000000" transform="translate(735,750)"/>
<path d="M0 0 C1.11 0.34 1.11 0.34 2.25 0.69 C2.25 1.68 2.25 2.67 2.25 3.69 C-0.72 3.36 -3.69 3.03 -6.75 2.69 C-4.3 0.41 -3.41 -0.39 0 0 Z " fill="#000000" transform="translate(533.75,725.3125)"/>
<path d="M0 0 C3.65 1.25 4.78 1.67 7 5 C6.67 5.99 6.34 6.98 6 8 C4.02 5.36 2.04 2.72 0 0 Z " fill="#000000" transform="translate(744,748)"/>
<path d="M0 0 C2.38 0.25 2.38 0.25 5 1 C6.31 3.06 6.31 3.06 7 5 C3.35 3.75 2.22 3.33 0 0 Z " fill="#000000" transform="translate(540,722)"/>
<path d="M0 0 C0.99 0.33 1.98 0.66 3 1 C0.03 3.48 0.03 3.48 -3 6 C-2.43 3.13 -2.14 2.14 0 0 Z " fill="#000000" transform="translate(772,758)"/>
<path d="M0 0 C0.33 0 0.66 0 1 0 C0.89 1.48 0.76 2.96 0.62 4.44 C0.52 5.67 0.52 5.67 0.41 6.93 C0.28 7.62 0.14 8.3 0 9 C-0.99 9.5 -0.99 9.5 -2 10 C-1.34 6.7 -0.68 3.4 0 0 Z " fill="#000000" transform="translate(778,705)"/>
<path d="M0 0 C0.66 0 1.32 0 2 0 C3.06 1.81 3.06 1.81 4 4 C3.67 4.99 3.34 5.98 3 7 C0 2.25 0 2.25 0 0 Z " fill="#000000" transform="translate(572,699)"/>
<path d="M0 0 C0.99 0.33 1.98 0.66 3 1 C2.01 1.99 1.02 2.98 0 4 C-0.33 3.01 -0.66 2.02 -1 1 C-0.67 0.67 -0.34 0.34 0 0 Z " fill="#000000" transform="translate(552,764)"/>
<path d="M0 0 C0.99 0.33 1.98 0.66 3 1 C3 1.66 3 2.32 3 3 C2.01 2.67 1.02 2.34 0 2 C0 1.34 0 0.68 0 0 Z " fill="#000000" transform="translate(571,705)"/>
<path d="" fill="#000000" transform="translate(0,0)"/>
<path d="" fill="#000000" transform="translate(0,0)"/>
<path d="" fill="#000000" transform="translate(0,0)"/>
<path d="" fill="#000000" transform="translate(0,0)"/>
<path d="" fill="#000000" transform="translate(0,0)"/>
</svg>
