<?xml version="1.0" encoding="UTF-8"?>
<!-- Generator: visioncortex VTracer 0.6.3 -->
<svg version="1.1" xmlns="http://www.w3.org/2000/svg" width="989" height="1280">
<path d="M0 0 C0.33 0 0.66 0 1 0 C1.1 5.89 0.73 11.57 0.08 17.42 C-0.12 19.3 -0.32 21.19 -0.52 23.08 C-0.63 24.07 -0.74 25.06 -0.85 26.09 C-1.43 31.46 -1.99 36.83 -2.55 42.2 C-2.79 44.49 -3.03 46.77 -3.27 49.05 C-3.39 50.2 -3.51 51.34 -3.64 52.52 C-3.88 54.83 -4.12 57.15 -4.36 59.46 C-10.81 110.33 -10.81 110.33 -6 161 C-5.83 161.74 -5.67 162.47 -5.5 163.23 C2.71 198.64 24.89 233.21 54 255 C54.52 255.4 55.04 255.79 55.58 256.2 C70.28 267.33 85.9 275.2 103 282 C104.01 282.4 105.01 282.81 106.05 283.22 C107.02 283.61 107.02 283.61 108 284 C105.95 276.41 103.15 269.35 99.94 262.19 C99.45 261.1 98.97 260 98.47 258.88 C95.79 252.86 93.01 246.89 90.11 240.97 C78.06 216.29 64.53 186.03 72 158 C72.33 158 72.66 158 73 158 C73.06 159 73.06 159 73.12 160.03 C73.97 173.67 74.96 186.89 79 200 C79.2 200.66 79.4 201.33 79.61 202.01 C85.51 220.84 95.08 238.55 103.58 256.3 C120.6 292.01 128.89 330.66 132 370 C132.09 371.09 132.18 372.17 132.28 373.29 C132.88 381.32 133.05 389.27 132.96 397.32 C132.95 398.31 132.94 399.3 132.93 400.33 C132.88 404.44 132.83 408.55 132.75 412.67 C132.53 425.19 132.91 436.09 137 448 C140.99 460.88 143.15 473.33 143.12 486.8 C143.12 487.66 143.12 488.51 143.12 489.39 C143.04 501.44 142.39 513.47 141.75 525.5 C141.68 526.75 141.62 528 141.55 529.29 C139.11 574.24 133.16 613.89 114 655 C114.67 654.8 115.33 654.59 116.02 654.38 C128.26 650.8 139.3 649.3 150.96 655.6 C157.15 659.72 160.99 664.23 164.66 670.68 C165.92 673.09 165.92 673.09 168 675 C176.37 666.63 177.97 654.94 178.12 643.56 C178.1 640.27 177.94 637.08 177.5 633.81 C176.05 621.54 176.34 612.19 182 601 C187.37 589.77 183.58 575.7 181 564.18 C179.48 557.39 178.21 550.64 177.25 543.75 C177.13 542.94 177.02 542.13 176.9 541.3 C175.19 528.7 174.76 516.2 174.75 503.5 C174.75 502.65 174.75 501.79 174.75 500.91 C174.75 481.59 176.41 462.68 180 443.68 C181.89 433.53 182.54 424.08 180.48 413.94 C179.67 408.98 179.84 404.02 180 399 C180.66 399 181.32 399 182 399 C183 401.46 184 403.92 185 406.38 C185.29 407.07 185.57 407.77 185.87 408.49 C188 413.77 188 413.77 188 416 C188.66 416 189.32 416 190 416 C190.54 405.52 189.63 398 184.19 389 C183.8 388.34 183.4 387.68 183 387 C183.33 386.34 183.66 385.68 184 385 C192.28 393.73 194.52 399.27 194.3 411.38 C193.93 415.83 192.95 419.01 191 423 C188 422 188 422 186 419 C186.32 419.85 186.64 420.71 186.98 421.59 C189.74 430.8 188.13 439.5 185.07 448.38 C181.02 462.12 181.67 477.13 181.75 491.31 C181.75 492.32 181.76 493.33 181.76 494.37 C181.86 522.13 183.42 549.68 189.75 576.81 C192.39 588.87 191.28 597.03 185.63 607.79 C183.05 612.87 182.86 616.59 182.88 622.31 C182.87 623.59 182.87 624.86 182.87 626.18 C183 629.86 183.47 633.35 184 637 C184.78 649.51 184.73 663.97 177.19 674.62 C176.16 675.78 175.1 676.91 174 678 C173.49 678.54 172.97 679.08 172.45 679.63 C162.31 689.3 147.48 692.03 133.94 692.38 C123.32 692.09 112.71 690.94 105 683 C104.44 682.46 103.87 681.92 103.29 681.37 C101.23 677.58 101.35 674.14 102 670 C103.42 665.33 105.25 660.87 107.12 656.38 C107.64 655.11 108.15 653.85 108.66 652.59 C110.69 647.56 112.77 642.55 114.86 637.54 C134.66 589.44 136.13 534.56 136.38 483.19 C136.38 482.45 136.39 481.71 136.4 480.95 C136.5 468.74 134.96 457.21 130.44 445.81 C128.23 439.93 126.85 434.22 126 428 C113.5 443.54 108.81 460.35 108 480 C107.96 480.98 107.91 481.97 107.87 482.98 C107.52 490.99 107.23 498.99 107 507 C106.96 508.21 106.96 508.21 106.92 509.43 C106.3 532.12 108.1 554.39 115.31 575.94 C117.62 583.25 117.53 589.24 114.19 596.19 C112.88 598.55 111.48 600.78 109.99 603.04 C107.27 607.8 106.77 612.89 106 618.25 C103.51 633.78 99.65 645.09 87.22 655.44 C73.93 664.79 55.54 667.86 39.66 665.5 C29.84 663.47 19.77 659.5 13.62 651.12 C12.5 647.29 12.09 643.83 13.93 640.15 C17 635.35 20.35 630.93 24 626.56 C51.25 593.41 62.34 563.98 64.12 521.06 C64.17 520.09 64.21 519.12 64.25 518.12 C65.32 493.15 65.53 468.16 64.62 443.19 C64.59 442.29 64.56 441.39 64.53 440.46 C64.14 432.04 63.56 423.53 58.88 416.31 C56.28 411.8 54.71 408.21 56 403 C57.15 399.85 58.42 396.79 59.81 393.73 C68.4 374.02 57.42 348.24 51.44 329.31 C46.55 313.8 42.71 298.71 40.58 282.58 C40.45 281.65 40.33 280.71 40.2 279.75 C39.56 275.01 38.96 270.27 38.41 265.52 C38.18 263.74 37.95 261.97 37.72 260.2 C37.6 258.98 37.6 258.98 37.47 257.75 C36.29 249 30.85 243.71 24.88 237.56 C-3.25 207.58 -18.14 167.01 -17.18 126.03 C-16.39 105.44 -13.5 84.96 -10.87 64.55 C-10.46 61.39 -10.06 58.24 -9.66 55.09 C-6.23 28.01 -6.23 28.01 -4.4 15.8 C-4.3 15.1 -4.2 14.39 -4.1 13.67 C-3.33 8.79 -1.83 4.55 0 0 Z M43 256 C44.86 284.42 51.92 312.05 60.43 339.1 C66.27 357.76 72.82 379.57 63.91 398.29 C63.55 398.96 63.19 399.62 62.81 400.31 C60.8 404.11 60.33 406.64 61 411 C62.13 413.66 63.36 416.21 64.71 418.77 C73.22 440.12 70.33 467.89 70.26 490.63 C70.25 494.43 70.26 498.24 70.27 502.05 C70.37 543.89 68.27 582.02 40 615 C38.99 616.32 37.98 617.65 37 619 C38.05 619.23 39.1 619.46 40.18 619.7 C52.16 622.43 62.3 625.79 70 636 C73.32 641.5 76.17 647.24 79 653 C88.22 648.02 94.1 641.66 97.93 631.76 C99.57 626.01 100.4 620.14 101.33 614.24 C102.6 606.9 104.84 601.12 108.51 594.68 C111.45 589.4 111.91 583.75 110.48 577.86 C109.76 575.6 108.98 573.36 108.19 571.12 C96.58 535.94 94.62 477.44 110 443 C112.24 438.72 114.79 434.71 117.58 430.77 C122.66 423.53 127.33 415.1 126 406 C125.52 405.54 125.04 405.08 124.55 404.61 C119.63 399.49 120.71 388.54 120.8 381.93 C121.03 377.47 121.49 373.06 122 368.62 C124.41 347.03 121.31 327.28 115.94 306.31 C115.57 304.87 115.57 304.87 115.19 303.4 C114.95 302.5 114.71 301.6 114.46 300.68 C114.25 299.89 114.04 299.11 113.83 298.3 C112.37 294.26 111.2 291.66 107.34 289.55 C105.76 288.97 105.76 288.97 104.14 288.39 C102.97 287.95 101.8 287.51 100.59 287.06 C99.97 286.83 99.36 286.61 98.72 286.38 C95.51 285.22 92.33 283.99 89.14 282.77 C88.52 282.53 87.89 282.3 87.25 282.05 C71.95 276.18 58.48 267.94 45.86 257.47 C44.26 255.9 44.26 255.9 43 256 Z M126 379 C124.94 382.19 124.87 384.52 124.88 387.88 C124.87 388.9 124.87 389.93 124.87 390.99 C124.99 393.77 125.37 396.29 126 399 C126.66 398.67 127.32 398.34 128 398 C127.67 391.73 127.34 385.46 127 379 C126.67 379 126.34 379 126 379 Z M107 671 C107.33 673.31 107.66 675.62 108 678 C108.99 678 109.98 678 111 678 C111 677.34 111 676.68 111 676 C110.34 676 109.68 676 109 676 C108.67 674.35 108.34 672.7 108 671 C107.67 671 107.34 671 107 671 Z " fill="#000000" transform="translate(316,520)"/>
<path d="M0 0 C0.33 0 0.66 0 1 0 C1.04 1.25 1.04 1.25 1.08 2.54 C1.91 19.53 7.51 32.65 14.95 47.75 C26.17 70.55 34.2 92.55 27 118 C19.24 140.59 2.89 158.06 -16 172 C-14.44 174.07 -12.88 176.13 -11.31 178.19 C-10.88 178.77 -10.44 179.34 -9.99 179.94 C-6.46 184.57 -2.89 188.74 2 192 C2 192.66 2 193.32 2 194 C-0.97 194.99 -3.94 195.98 -7 197 C-4.69 197.99 -2.38 198.98 0 200 C-0.38 201.94 -0.38 201.94 -1 204 C-3.37 205.18 -4.87 205.13 -7.5 205.12 C-8.29 205.13 -9.09 205.13 -9.91 205.13 C-12 205 -12 205 -14 204 C-14.17 204.76 -14.34 205.52 -14.52 206.31 C-15.7 211.35 -16.87 216.04 -19.19 220.69 C-21.89 226.4 -21.36 231.44 -20.5 237.57 C-18.79 251.05 -19.29 265.18 -21.93 278.5 C-23.94 288.82 -22.95 297.77 -20.08 307.82 C-19.78 308.93 -19.48 310.03 -19.17 311.17 C-18.21 314.68 -17.23 318.18 -16.25 321.69 C-12.52 335.05 -8.87 348.33 -6.56 362.02 C-6.32 363.44 -6.32 363.44 -6.08 364.89 C-4.66 373.93 -4.61 382.88 -5 392 C1.94 391.45 8.28 389.57 14.94 387.59 C28.73 383.51 42.64 380.13 56.69 377.06 C57.56 376.87 58.43 376.68 59.32 376.48 C113.63 364.6 157.84 375.65 208 398 C208.84 398.37 209.68 398.74 210.54 399.12 C234.29 409.72 258.83 422.22 278 440 C278.94 440.85 279.88 441.7 280.86 442.57 C308.89 469.03 319.7 509.33 321.22 546.76 C322.1 580.55 312.69 611.36 299.71 642.12 C295.84 651.31 292.18 660.54 289 670 C288.64 671.06 288.28 672.12 287.91 673.22 C283.32 689.34 285.28 706.3 289.71 722.16 C291.6 729.01 292.83 735.68 293.5 742.75 C293.59 743.63 293.68 744.5 293.77 745.4 C294.12 749.69 294.19 752.19 292 756 C289.47 752.22 286.95 748.42 284.44 744.62 C283.71 743.54 282.99 742.46 282.24 741.35 C281.22 739.8 281.22 739.8 280.18 738.23 C279.55 737.27 278.92 736.32 278.26 735.34 C277.85 734.57 277.43 733.8 277 733 C277.33 732.34 277.66 731.68 278 731 C281.96 735.46 281.96 735.46 286 740 C285.46 733.37 284.12 727.56 282.06 721.25 C272.34 690.06 280.43 665.23 292.23 635.94 C313.04 584.25 321.28 532.33 298.92 479.44 C279.33 434.27 231.59 411.45 187.89 393.67 C148.9 378.29 111.75 370.02 70 379 C68.9 379.23 67.79 379.46 66.66 379.7 C48.94 383.45 31.6 388.27 14.25 393.44 C13.46 393.68 12.66 393.91 11.85 394.16 C10.35 394.6 8.86 395.05 7.37 395.5 C4.47 396.36 2.04 397 -1 397 C0.36 401.75 1.8 406.47 3.43 411.14 C6.75 420.7 9.39 429.98 11 440 C11.13 440.82 11.26 441.63 11.4 442.47 C12.27 448.95 12.09 455.48 12 462 C7.97 458.31 5.64 454.78 3 450 C3.16 451.25 3.31 452.49 3.47 453.78 C4.49 462.43 5.26 470.91 4.75 479.62 C4.71 480.34 4.67 481.06 4.63 481.79 C4.26 486.74 4.26 486.74 2 489 C-1.47 484.05 -1.47 484.05 -5 479 C-5.03 480.06 -5.05 481.13 -5.08 482.23 C-5.63 498.14 -9.58 510.55 -18 524 C-18.99 524 -19.98 524 -21 524 C-21.65 522.11 -22.29 520.21 -22.94 518.31 C-23.3 517.26 -23.66 516.2 -24.03 515.11 C-27.01 505.58 -26.87 495.86 -24.5 486.19 C-22.54 478.1 -22.73 470.26 -23 462 C-22.34 462.33 -21.68 462.66 -21 463 C-18.44 471.14 -19.15 478.34 -20.82 486.47 C-22.94 497.17 -23.37 507.8 -19 518 C-10.22 499.31 -8.93 483.38 -12 463 C-12.38 460.44 -12.75 457.88 -13.12 455.31 C-13.29 454.19 -13.46 453.08 -13.63 451.93 C-14 449 -14 449 -14 445 C-13.34 445 -12.68 445 -12 445 C-11.8 446.1 -11.61 447.2 -11.41 448.34 C-9.19 459.85 -5.41 469.63 0 480 C0.45 468.94 -0.5 458.29 -1.93 447.31 C-2.76 440.83 -3.2 434.54 -3 428 C-0.91 430.09 -0.33 431.37 0.69 434.1 C1.15 435.3 1.15 435.3 1.62 436.53 C1.93 437.36 2.24 438.2 2.56 439.06 C3.19 440.72 3.81 442.38 4.44 444.04 C4.72 444.77 4.99 445.51 5.28 446.27 C5.87 448 5.87 448 7 449 C6.65 446.08 6.27 443.17 5.88 440.25 C5.78 439.46 5.69 438.68 5.59 437.87 C3.17 420.37 -3.72 404.25 -11.12 388.38 C-14.1 381.92 -17.06 375.47 -20 369 C-20.47 367.97 -20.94 366.95 -21.42 365.89 C-23.74 360.49 -24.64 355.74 -24.75 349.88 C-24.79 348.73 -24.79 348.73 -24.84 347.55 C-24.91 345.7 -24.96 343.85 -25 342 C-22.51 344.49 -22.27 346.29 -21.38 349.69 C-19.02 357.74 -15.14 364.74 -11 372 C-11.54 364.65 -12.8 357.66 -14.5 350.5 C-14.75 349.41 -15.01 348.32 -15.27 347.2 C-17.63 337.26 -20.2 327.38 -22.81 317.5 C-23.01 316.74 -23.21 315.98 -23.42 315.2 C-23.99 313.04 -24.57 310.88 -25.14 308.72 C-25.48 307.47 -25.81 306.22 -26.16 304.94 C-26.88 302.1 -26.88 302.1 -28 300 C-28.48 300.89 -28.97 301.79 -29.47 302.71 C-39.09 320.19 -50.06 333.21 -69.79 339.14 C-74.44 340.23 -78.99 340.38 -83.75 340.38 C-85.07 340.37 -85.07 340.37 -86.41 340.37 C-96 340.19 -104.35 337.95 -112 332 C-108.93 330.46 -106.66 331.65 -103.38 332.44 C-95.69 334.16 -89.76 334.35 -82 333 C-82.55 332.86 -83.1 332.72 -83.67 332.58 C-120.38 323.12 -120.38 323.12 -130.71 308.59 C-133.66 303.31 -135.24 298.05 -134 292 C-133.34 291.34 -132.68 290.68 -132 290 C-131.91 290.7 -131.83 291.4 -131.74 292.12 C-130.4 301.16 -128.05 307 -120.62 312.56 C-106.81 321.53 -91.68 327.27 -75.12 327.44 C-74.35 327.45 -73.58 327.46 -72.78 327.47 C-62.8 327.32 -55.18 323.87 -48 317 C-44.85 313.44 -41.89 309.77 -39 306 C-40.18 306.61 -40.18 306.61 -41.39 307.24 C-59.78 316.34 -79.79 315.33 -99 309 C-120.87 300.93 -120.87 300.93 -127 292.12 C-129.25 285.11 -128.14 278.58 -125 272 C-124.34 271.67 -123.68 271.34 -123 271 C-123.11 272.09 -123.21 273.17 -123.32 274.29 C-123.45 275.73 -123.57 277.18 -123.69 278.62 C-123.76 279.34 -123.83 280.05 -123.91 280.79 C-124.29 285.68 -123.79 288.76 -121 293 C-118.63 295.15 -115.82 296.5 -113 298 C-112.11 298.5 -111.22 298.99 -110.3 299.5 C-98.65 305.71 -86.3 309.2 -73.06 309.06 C-71.35 309.05 -71.35 309.05 -69.6 309.04 C-68.74 309.02 -67.88 309.01 -67 309 C-65.11 302.02 -63.04 292.95 -66 286 C-67.97 285.02 -67.97 285.02 -70.5 284.44 C-78.52 281.82 -85.17 277 -92.09 272.29 C-93.32 271.46 -94.55 270.64 -95.8 269.84 C-98.88 267.86 -100.74 266.53 -102 263 C-96.75 256.11 -96.75 256.11 -92 255 C-86.11 254.52 -82.3 255.1 -77 258 C-74.27 260.41 -72.14 262.8 -70 265.75 C-68.17 268.13 -68.17 268.13 -65.56 269.06 C-61.86 268.97 -60.62 267.56 -58 265 C-56.3 263.03 -54.65 261.01 -53 259 C-50.16 257.58 -48.15 257.69 -45 258 C-41.84 260.08 -41.13 261.45 -40.25 265.12 C-41.74 272.81 -47.88 278.45 -54 283 C-56.99 284.42 -58.68 285 -62 285 C-61.83 285.95 -61.67 286.9 -61.5 287.88 C-60.43 295.63 -60.33 301.97 -64 309 C-53.32 308.02 -43.86 305.65 -36.44 297.44 C-31.92 291.85 -31.73 286.6 -31.88 279.69 C-31.88 278.85 -31.89 278.02 -31.9 277.15 C-31.93 275.1 -31.96 273.05 -32 271 C-33.98 272.65 -35.96 274.3 -38 276 C-37.67 275.11 -37.34 274.23 -37 273.31 C-34.33 263.58 -35.56 255.4 -40.2 246.56 C-44.44 240.53 -49.78 238.86 -56.56 236.93 C-60.7 235.68 -63.22 234.33 -66 231 C-65.67 230.34 -65.34 229.68 -65 229 C-63.37 229.75 -61.74 230.5 -60.12 231.25 C-57.45 232.2 -54.8 232.59 -52 233 C-52.31 232.45 -52.61 231.9 -52.93 231.33 C-70.15 200.1 -70.15 200.1 -67.52 186.52 C-65.01 178.91 -60.84 175.16 -54 171 C-50.54 169.85 -47.77 169.83 -44.12 169.81 C-42.91 169.8 -41.7 169.78 -40.45 169.77 C-37.16 169.99 -34.95 170.58 -32 172 C-32 172.33 -32 172.66 -32 173 C-33.36 173.04 -33.36 173.04 -34.75 173.08 C-44.5 173.53 -52.85 174.85 -60 182 C-62.83 186.58 -62.64 191.81 -62 197 C-58.33 212.09 -50.99 224.9 -41.39 236.95 C-33.56 246.94 -27.97 257.18 -27 270 C-25.91 265.61 -25.87 261.34 -25.9 256.86 C-25.9 256.09 -25.91 255.32 -25.91 254.52 C-25.91 252.08 -25.92 249.63 -25.94 247.19 C-25.94 245.52 -25.95 243.86 -25.95 242.2 C-25.96 238.13 -25.98 234.07 -26 230 C-26.76 230.33 -27.53 230.66 -28.31 231 C-31.76 232.28 -33.5 232.09 -37 231 C-41.12 227.72 -42.64 225.01 -44 220 C-44.28 217.35 -44.5 214.78 -44.62 212.12 C-44.66 211.44 -44.7 210.75 -44.74 210.04 C-44.84 208.36 -44.92 206.68 -45 205 C-45.99 204.67 -46.98 204.34 -48 204 C-37.96 185.73 -37.96 185.73 -31 183 C-26.03 182.04 -21.72 182.28 -17.25 184.75 C-15.64 185.86 -15.64 185.86 -14 187 C-12.86 187.75 -11.71 188.5 -10.56 189.25 C-9.72 189.83 -8.87 190.41 -8 191 C-7.67 190.67 -7.34 190.34 -7 190 C-7.58 189.35 -7.58 189.35 -8.17 188.68 C-8.69 188.08 -9.21 187.49 -9.75 186.88 C-10.26 186.29 -10.77 185.71 -11.3 185.12 C-13 183 -13 183 -14.79 180 C-17.38 176.48 -19.71 175.1 -23.56 173.06 C-24.82 172.37 -26.08 171.68 -27.34 170.99 C-28.27 170.49 -28.27 170.49 -29.22 169.97 C-50.76 158.2 -70.72 136.18 -78.33 112.48 C-79.36 108.67 -80.24 104.87 -81 101 C-85.55 108.53 -86.63 116.44 -88 125 C-95.12 118.58 -95.19 106.94 -96 98 C-96.03 95.67 -96.04 93.33 -96 91 C-97.32 92.32 -98.64 93.64 -100 95 C-100.99 94.5 -100.99 94.5 -102 94 C-98.15 85.37 -98.15 85.37 -94 83 C-93.13 85.61 -92.77 87.57 -92.54 90.27 C-92.46 91.1 -92.38 91.92 -92.3 92.77 C-92.14 94.5 -91.99 96.23 -91.84 97.95 C-91.42 102.3 -90.96 106.02 -89 110 C-85.69 101.77 -85.69 101.77 -85 93 C-84.01 91.51 -84.01 91.51 -83 90 C-82.34 90 -81.68 90 -81 90 C-80.01 92.64 -79.02 95.28 -78 98 C-77.67 98 -77.34 98 -77 98 C-76.84 97.07 -76.68 96.14 -76.52 95.18 C-70.38 61.61 -48.51 42.08 -22.25 22.67 C-14.78 17.12 -8.21 11.79 -3 4 C-2.03 2.64 -1.04 1.3 0 0 Z M-4 13 C-5.31 14.46 -6.6 15.95 -7.88 17.44 C-13.69 23.96 -20.28 29.21 -27.25 34.45 C-41.51 45.24 -54.37 57.19 -63 73 C-63.5 73.9 -64 74.79 -64.51 75.72 C-71.25 89.12 -74.33 105.1 -70.44 119.69 C-68.3 125.93 -65.29 130.07 -61 135 C-60 136.26 -59 137.52 -58.01 138.79 C-48.38 151.05 -38.6 160.32 -25 168 C-24.3 168.42 -23.59 168.85 -22.87 169.29 C-20.46 170.21 -19.42 169.82 -17 169 C-14.82 167.09 -12.82 165.2 -10.81 163.12 C-10.24 162.54 -9.66 161.95 -9.07 161.34 C9.18 142.5 22.48 121.72 22.36 94.85 C22.06 78.48 15.59 65.04 8.82 50.46 C3.14 38.12 -0.81 26.42 -3 13 C-3.33 13 -3.66 13 -4 13 Z M-36.88 192.12 C-38.17 193.92 -38.17 193.92 -38 196 C-33.92 194.7 -33.92 194.7 -30 193 C-24.01 192.59 -20.36 193.32 -15 196 C-15.88 192.48 -16.71 190.31 -19.19 187.62 C-26.19 183.58 -31.88 186.46 -36.88 192.12 Z M-40 222 C-39.44 224.49 -39.44 224.49 -38 227 C-34.97 228.37 -34.97 228.37 -32 229 C-30.68 227.68 -29.36 226.36 -28 225 C-29.3 225.09 -29.3 225.09 -30.62 225.19 C-34.44 224.98 -36.71 223.88 -40 222 Z M-22 355 C-22 358 -22 358 -22 358 Z M-19 364 C-18 366 -18 366 -18 366 Z M-18 366 C-17 368 -17 368 -17 368 Z M-17 368 C-16 370 -16 370 -16 370 Z M-16 370 C-15 372 -15 372 -15 372 Z M-15 372 C-14 374 -14 374 -14 374 Z M-14 374 C-13 376 -13 376 -13 376 Z M-13 376 C-12 378 -12 378 -12 378 Z M-12 378 C-11 380 -11 380 -11 380 Z M-11 380 C-10 382 -10 382 -10 382 Z M-10 382 C-9 384 -9 384 -9 384 Z M-9 384 C-8 386 -8 386 -8 386 Z M-8 386 C-7 388 -7 388 -7 388 Z M1 446 C2 448 2 448 2 448 Z " fill="#000000" transform="translate(474,60)"/>
<path d="M0 0 C0.99 0.5 0.99 0.5 2 1 C1.29 1.71 1.29 1.71 0.57 2.44 C-28.74 33.46 -37.95 88.02 -37.25 129.18 C-35.5 156.35 -21 179.36 -7.41 202.23 C7.17 226.78 22.9 257.56 17.43 287.05 C15.69 293.19 15.69 293.19 13.47 295.79 C10.65 300.04 11.53 305.09 12 310 C12.87 314.19 14.08 318.23 15.38 322.31 C20.02 337.14 21.31 351.31 21.27 366.73 C21.27 368.3 21.27 369.87 21.27 371.43 C21.27 374.7 21.27 377.96 21.26 381.22 C21.25 385.34 21.26 389.46 21.27 393.58 C21.37 436.14 21.37 436.14 16.44 454 C13.8 464.38 12.27 473.18 14.51 483.77 C16.19 494.9 17.15 512.7 12 523 C12.51 522.8 13.02 522.59 13.55 522.38 C24.18 518.44 34.31 517.94 45 522 C51.7 525.36 56.39 530.17 61 536 C67.46 517.71 66.9 503.47 59.87 485.34 C58.29 481.08 57.86 477.41 57.79 472.86 C57.4 454.86 56.13 438.6 50.54 421.44 C48.9 416.31 48.9 416.31 50 413 C51.65 415.64 53.3 418.28 55 421 C55.1 414.37 54.8 408.05 53.91 401.49 C53.8 400.64 53.68 399.79 53.57 398.91 C53.22 396.23 52.86 393.55 52.5 390.88 C52.26 389.04 52.02 387.21 51.78 385.38 C51.19 380.92 50.6 376.46 50 372 C50.66 372 51.32 372 52 372 C53.98 375.96 55.96 379.92 58 384 C58.33 384 58.66 384 59 384 C58.81 383.47 58.63 382.93 58.43 382.38 C57.59 379.96 56.77 377.54 55.94 375.12 C55.64 374.28 55.35 373.44 55.04 372.57 C54.77 371.77 54.5 370.96 54.21 370.13 C53.96 369.39 53.7 368.65 53.44 367.88 C53 366 53 366 54 364 C60.39 373.05 63.25 383 64 394 C61.12 392.71 59.13 391.34 57 389 C57.13 389.64 57.27 390.27 57.4 390.93 C58.83 398.79 59.22 406.46 59.44 414.44 C59.71 423.89 60.51 433.07 61.91 442.42 C63.28 451.65 64.16 460.84 63.88 470.19 C63.82 477.21 65.77 483.86 68.31 490.36 C75.03 507.85 73.2 524.89 65.77 541.81 C62.17 548.91 57.55 552.77 50.03 555.42 C37.95 558.87 22.41 558.65 11.08 553.05 C7.93 551.15 6.34 549.37 5 546 C3.9 536.61 5.94 526.97 7.29 517.7 C9.05 505.53 10.37 493.94 7 482 C5.7 471.57 7.09 461.62 10.05 451.6 C13.93 438.19 14.33 424.3 14.62 410.44 C14.66 408.95 14.7 407.46 14.74 405.98 C15.12 391.3 15.07 376.62 14.74 361.94 C14.7 360.36 14.68 358.77 14.65 357.19 C14.73 339.64 14.73 339.64 10 323 C8.87 325.18 7.77 327.36 6.69 329.56 C6.22 330.45 6.22 330.45 5.75 331.35 C0.19 342.76 -0.47 355.94 -0.91 368.41 C-0.97 369.83 -1.03 371.26 -1.1 372.68 C-1.25 376.39 -1.4 380.1 -1.54 383.81 C-1.71 388.29 -1.9 392.78 -2.08 397.26 C-2.23 400.75 -2.37 404.24 -2.51 407.74 C-3.71 438.13 -3.71 438.13 -9.75 450.94 C-12.66 457.59 -11.9 462.96 -11 470 C-10 485.98 -14.4 498.87 -24.94 510.94 C-30.22 516.5 -35.31 520.58 -43.19 521.16 C-69.92 521.63 -69.92 521.63 -81 514 C-82.76 510.48 -81.77 506.72 -81 503 C-79.73 499.31 -78.13 495.79 -76.5 492.25 C-75.59 490.2 -74.67 488.16 -73.76 486.11 C-72.84 484.08 -71.92 482.04 -71 480 C-53.31 440.66 -46.55 401.04 -46 358 C-45.98 356.72 -45.98 356.72 -45.97 355.41 C-45.38 306.37 -45.57 261.94 -73.34 219.65 C-101 177.43 -101 177.43 -101 157 C-102.24 157.35 -102.24 157.35 -103.5 157.7 C-106.62 158.57 -109.73 159.44 -112.84 160.31 C-114.18 160.68 -115.52 161.06 -116.86 161.43 C-123.94 163.42 -130.99 165.34 -138.25 166.61 C-140.02 166.84 -140.02 166.84 -141 168 C-141.2 169.4 -141.35 170.81 -141.46 172.23 C-141.54 173.09 -141.62 173.96 -141.7 174.86 C-141.86 176.68 -142.01 178.5 -142.16 180.32 C-142.63 185.46 -143.39 190.1 -145 195 C-145.66 195 -146.32 195 -147 195 C-147.38 194.21 -147.75 193.43 -148.14 192.62 C-148.65 191.57 -149.16 190.52 -149.69 189.44 C-150.44 187.89 -150.44 187.89 -151.2 186.31 C-152.57 183.79 -153.94 181.6 -155.61 179.29 C-156.28 178.36 -156.28 178.36 -156.97 177.41 C-157.48 176.71 -157.48 176.71 -158 176 C-157.79 177.02 -157.58 178.04 -157.36 179.09 C-155.24 189.8 -154.48 200.09 -154.56 211 C-154.56 211.8 -154.57 212.59 -154.57 213.41 C-154.64 231.48 -157.02 248.62 -162 266 C-164.98 263.5 -165.95 260.95 -167.19 257.31 C-167.53 256.32 -167.88 255.32 -168.23 254.3 C-168.48 253.54 -168.74 252.78 -169 252 C-169.01 252.87 -169.03 253.74 -169.04 254.64 C-169.11 257.94 -169.18 261.23 -169.26 264.53 C-169.3 265.95 -169.32 267.36 -169.35 268.77 C-169.75 292.75 -169.75 292.75 -175 298 C-175.08 296.97 -175.16 295.94 -175.24 294.89 C-175.55 291.02 -175.86 287.15 -176.17 283.28 C-176.31 281.61 -176.44 279.95 -176.57 278.29 C-177.31 268.77 -178.18 259.39 -180 250 C-177.7 252.81 -176.38 255.28 -175.31 258.75 C-175.06 259.55 -174.81 260.35 -174.55 261.17 C-174.28 262.08 -174.28 262.08 -174 263 C-173.75 243.97 -173.75 243.97 -175 225 C-174.34 225 -173.68 225 -173 225 C-172.77 225.9 -172.54 226.79 -172.3 227.72 C-169.81 237.24 -167 246.63 -164 256 C-160.19 244.57 -163.65 231.23 -166.51 219.97 C-167.49 216.01 -168.23 212 -169 208 C-165.66 210.68 -164.74 213.91 -163.38 217.88 C-162.95 219.09 -162.52 220.3 -162.09 221.55 C-161.19 224.39 -160.55 227.09 -160 230 C-159.45 206.43 -160.41 184.31 -166.58 161.39 C-167.03 158.85 -166.69 157.44 -166 155 C-165.6 155.64 -165.19 156.27 -164.78 156.92 C-162.94 159.82 -161.09 162.72 -159.25 165.62 C-158.62 166.62 -157.98 167.62 -157.33 168.65 C-156.71 169.63 -156.09 170.6 -155.45 171.6 C-154.86 172.54 -154.26 173.48 -153.64 174.45 C-152.31 176.52 -150.94 178.56 -149.55 180.59 C-148 183 -148 183 -148 185 C-147.34 185 -146.68 185 -146 185 C-146.46 164.76 -148.74 147.18 -154.75 127.84 C-155.21 126.36 -155.21 126.36 -155.67 124.85 C-155.95 123.96 -156.23 123.07 -156.52 122.16 C-157 120 -157 120 -156 118 C-151.75 125.7 -148.3 133.37 -145.62 141.75 C-145.37 142.52 -145.12 143.28 -144.87 144.07 C-143.14 149.68 -142.4 155.15 -142 161 C-125.22 156.86 -108.77 151.82 -92.31 146.56 C-91.33 146.25 -90.35 145.94 -89.34 145.62 C-78.22 142.07 -67.14 138.41 -56.11 134.59 C-54.61 134.07 -54.61 134.07 -53.08 133.55 C-52.17 133.23 -51.25 132.91 -50.31 132.58 C-49.5 132.3 -48.69 132.02 -47.85 131.73 C-46.02 131.15 -46.02 131.15 -45 130 C-44.76 128.02 -44.58 126.03 -44.42 124.04 C-44.32 122.77 -44.21 121.51 -44.1 120.21 C-44.04 119.54 -43.99 118.86 -43.93 118.16 C-40.65 79.83 -32.79 31.05 -4 3 C-2.69 1.97 -1.36 0.96 0 0 Z M-50.77 139.62 C-51.73 140 -52.69 140.37 -53.68 140.76 C-54.72 141.17 -55.75 141.58 -56.81 142 C-66.15 145.63 -75.52 148.88 -85.13 151.7 C-85.99 151.96 -86.85 152.22 -87.74 152.49 C-88.49 152.71 -89.24 152.93 -90.02 153.16 C-92.28 154.12 -93.51 155.05 -95 157 C-94.03 176.36 -82.74 194.6 -72.19 210.12 C-31.56 270.17 -33.47 355.99 -46.44 425.15 C-50.03 443.39 -55.34 461.48 -64.05 477.98 C-65.14 479.93 -65.14 479.93 -65 482 C-64.17 481.98 -63.33 481.95 -62.47 481.93 C-50.99 481.75 -42.31 482.78 -33 490 C-30.19 493.07 -27.86 496.28 -26 500 C-22.78 499.31 -22.78 499.31 -21.65 496.42 C-21.23 495.35 -20.81 494.29 -20.38 493.19 C-19.95 492.13 -19.52 491.07 -19.09 489.98 C-17.37 485.28 -16.91 481.72 -17.08 476.69 C-17.1 475.45 -17.13 474.2 -17.16 472.93 C-17.22 470.34 -17.3 467.75 -17.39 465.17 C-17.52 457.45 -16.57 452.04 -13.3 445.07 C-8.97 434.82 -8.5 423.35 -8.03 412.37 C-7.93 410.05 -7.82 407.74 -7.71 405.43 C-7.54 402.22 -7.39 399 -7.23 395.79 C-6.9 388.95 -6.52 382.12 -6.12 375.28 C-6 373.26 -5.89 371.24 -5.78 369.23 C-4.03 339.19 -4.03 339.19 3.06 327.94 C7.05 321.56 8.71 316.38 7.06 308.94 C6.87 308.11 6.67 307.27 6.46 306.42 C5.72 302.57 6.11 299.83 7 296 C7.96 294.61 7.96 294.61 8.94 293.19 C14.83 284.09 13.62 271.8 11.5 261.6 C5.58 236.41 -7.35 214.58 -20.25 192.41 C-29.13 177.13 -37.63 162.29 -41.42 144.88 C-41.86 142.9 -42.42 140.94 -43 139 C-46.59 137.8 -47.34 138.26 -50.77 139.62 Z M10 540 C10.33 541.98 10.66 543.96 11 546 C11.99 545.67 12.98 545.34 14 545 C12.68 543.35 11.36 541.7 10 540 Z " fill="#000000" transform="translate(686,623)"/>
<path d="M0 0 C0.99 0.33 1.98 0.66 3 1 C4.07 3.56 4.07 3.56 5.12 7 C11.32 25.68 22.35 40.23 35.74 54.34 C49.32 68.73 59.84 84.09 66 103 C66.4 104.23 66.4 104.23 66.81 105.49 C68.7 112.46 68.17 119.84 68 127 C66.51 127.5 66.51 127.5 65 128 C64.89 127.45 64.77 126.91 64.65 126.34 C59.04 100.08 49.29 79.86 30.58 60.29 C15.98 45.01 6.07 30 -1 10 C-27.32 69.36 -27.32 69.36 -26.25 132.19 C-20.4 145.31 -12.09 154.93 -1 164 C-0.38 164.51 0.24 165.02 0.88 165.54 C2.98 167.26 5.11 168.95 7.25 170.62 C7.94 171.18 8.62 171.74 9.33 172.32 C11.18 173.74 12.9 174.99 15 176 C18.74 175.36 21.04 173.38 23.81 170.88 C24.42 170.34 25.02 169.8 25.64 169.24 C26.09 168.83 26.54 168.42 27 168 C26.32 167.49 25.64 166.98 24.95 166.45 C5.18 151.01 -5.68 130.65 -9 106 C-9.34 101.64 -9.43 97.31 -9.44 92.94 C-9.44 91.1 -9.44 91.1 -9.45 89.23 C-9.26 73.64 -6.64 58.33 -4 43 C-0.76 44.08 -0.33 44.53 1.57 47.18 C2.05 47.83 2.53 48.49 3.02 49.17 C3.53 49.87 4.04 50.58 4.56 51.31 C8.29 56.41 12.06 61.35 16.19 66.12 C33.52 86.7 49.87 118.42 49 146 C47.67 156.49 41.08 162.68 33.09 168.94 C31.9 169.86 30.71 170.78 29.51 171.69 C25.11 175.06 20.95 178.61 16.88 182.38 C16.34 182.86 15.81 183.35 15.26 183.85 C12.21 186.7 9.53 189.68 7 193 C11.23 192.55 13.21 191.87 16.12 188.66 C16.84 187.72 17.57 186.78 18.31 185.81 C25.52 176.48 35.32 170.24 47 168 C63.36 166.86 76.47 170.3 89.33 180.93 C101.19 191.95 117.48 214.95 119.24 231.2 C119.45 238.37 118.23 243.47 113.32 248.84 C112.12 250.02 110.9 251.18 109.68 252.34 C105.24 256.74 102.87 261.39 102.75 267.69 C102.78 272.74 103.96 276.4 106 281 C102.66 279.89 102.38 279.57 100.81 276.62 C98.05 270.63 97.79 264.62 99.88 258.36 C102.32 253.1 105.52 249.04 109.42 244.8 C112.8 240.95 114.41 237.3 114.32 232.16 C113.62 227.41 111.4 223.09 109.44 218.75 C108.98 217.72 108.52 216.69 108.05 215.63 C104.88 208.65 101.62 202.14 97 196 C96.33 195.07 95.65 194.15 94.96 193.19 C86.56 182.23 75.83 174.26 62 172 C48.79 170.91 36.65 173.98 26 182 C21.19 186.24 17.15 190.38 14 196 C17.69 193.97 21.15 191.93 24.5 189.38 C30.44 185.12 36.12 184.54 43.23 185.41 C51.93 187.26 58 192.86 63 200 C65.02 203.53 66.75 207.17 68.46 210.86 C69.77 213.54 71.11 215.71 73 218 C67.8 216.64 64.9 214.53 61 211 C60.83 211.81 60.66 212.62 60.48 213.45 C58.01 224.35 58.01 224.35 54 228 C49.7 230.5 45.87 230.89 41 230 C34.37 226.84 30.62 221.17 27 215 C28.64 221.55 32.25 226.62 37.31 231 C41.26 232.47 44.85 232.7 49 232 C52.33 230.12 52.33 230.12 55 228 C55.99 228 56.98 228 58 228 C55.92 232.05 54.26 234.28 50 236 C43.57 236.8 38.71 235.98 33 233 C33.54 263.02 46.88 288.88 67.81 309.81 C70.08 312.08 72.04 314.47 74 317 C65.09 315.74 57.14 304.21 51.93 297.46 C37.77 278.51 31.13 257.63 28.22 234.45 C27.4 228.49 25.92 223.71 23.07 218.38 C21.25 214.34 21.19 210.39 21 206 C16.55 207.98 16.55 207.98 12 210 C11.72 219.74 12.43 228.77 14.12 238.38 C14.35 239.67 14.57 240.97 14.81 242.31 C19.8 270.65 25.58 301.85 49.88 320.17 C58.05 325.72 66.76 329.93 75.74 334.02 C81.9 336.85 87.48 340.06 93 344 C91 345 91 345 88.82 344.4 C87.93 344.06 87.04 343.72 86.12 343.38 C85.12 343 84.13 342.63 83.1 342.24 C81.5 341.63 81.5 341.63 79.88 341 C78.79 340.59 77.71 340.17 76.59 339.74 C50.75 329.79 50.75 329.79 41 322 C40.32 321.49 39.64 320.98 38.93 320.46 C27.3 311.22 21.52 297.75 17 284 C16.18 287.83 15.37 291.67 14.56 295.5 C14.33 296.58 14.1 297.66 13.87 298.77 C11.93 307.96 10.84 316.6 10.94 326 C10.94 326.87 10.95 327.74 10.95 328.64 C10.96 330.76 10.98 332.88 11 335 C11.79 332.65 12.58 330.29 13.38 327.94 C13.6 327.28 13.82 326.62 14.05 325.95 C15.48 321.66 16.79 317.36 18 313 C18.33 313 18.66 313 19 313 C19.72 327.39 13.96 339.26 8 352 C3.82 347.82 4.92 339.77 4.81 334.12 C5.02 316.48 7.32 298.25 13.22 281.55 C15.21 272.48 12.31 262.7 10.56 253.75 C7.98 240.14 5.53 226.92 6 213 C3.69 213.33 1.38 213.66 -1 214 C-0.67 207.7 2.67 203.15 6 198 C5.4 198.33 4.8 198.66 4.19 199 C2 200 2 200 -1 200 C0.28 196.55 1.76 193.61 3.81 190.56 C4.29 189.84 4.77 189.12 5.27 188.38 C7.39 185.47 9.67 182.75 12 180 C11.43 179.63 10.86 179.27 10.28 178.89 C-11.41 164.83 -31.5 151.7 -37.88 125 C-45.21 84.96 -21.98 32.52 0 0 Z M-1 53 C-6.56 85.75 -6.97 118.94 12.75 147.1 C17.46 153.16 22.58 159.72 29 164 C31.65 163.69 31.65 163.69 34 163 C34.44 158.9 34.44 158.9 31.62 156.25 C31.18 155.82 30.74 155.39 30.29 154.95 C26.67 149.47 26.49 141.7 25.82 135.3 C25.61 133.43 25.4 131.57 25.19 129.7 C24.88 126.79 24.56 123.89 24.25 120.99 C21.51 95.62 16.49 73.34 0 53 C-0.33 53 -0.66 53 -1 53 Z M18.95 196.78 C16.92 198.05 14.87 199.02 12.69 200 C9.19 201.67 7.61 203.38 6 207 C11.86 204.8 17.43 201.94 23.05 199.19 C24.28 198.6 24.28 198.6 25.53 198 C26.27 197.64 27.01 197.28 27.77 196.91 C37.05 193.13 46.87 194.67 56 198 C52.93 193.79 50.09 191.17 45.19 189.31 C34.97 187.85 27.38 191.17 18.95 196.78 Z M50 207 C50 208.32 50 209.64 50 211 C51.65 210.67 53.3 210.34 55 210 C54.67 209.01 54.34 208.02 54 207 C52.68 207 51.36 207 50 207 Z " fill="#000000" transform="translate(259,56)"/>
<path d="M0 0 C3.45 3.83 4.8 8.4 6.44 13.19 C6.74 14.08 7.05 14.97 7.36 15.89 C16.05 41.75 17.96 66.49 6.66 92.04 C1.94 101.35 -5.15 110.77 -15 115 C-17.4 115.6 -19.52 115.84 -22 116 C-22 115.34 -22 114.68 -22 114 C-20.28 112.74 -20.28 112.74 -17.94 111.31 C-4.03 102.27 2.98 88.09 6.41 72.09 C10.47 50.81 8.13 29.08 0 9 C-0.5 8.5 -0.5 8.5 -1 8 C-10.59 25.43 -15.26 43.56 -19 63 C-18.34 63.33 -17.68 63.66 -17 64 C-17.34 64.91 -17.68 65.81 -18.02 66.75 C-22.97 80.26 -25.57 92.42 -23.43 106.87 C-23 110 -23 110 -24 112 C-27.77 112 -29.96 111.85 -32.92 109.43 C-41.38 100.22 -42.13 90.01 -42 78 C-40.11 47.53 -19.35 21.97 0 0 Z " fill="#000000" transform="translate(463,99)"/>
<path d="M0 0 C0.66 0 1.32 0 2 0 C13.57 15.37 17.4 32.76 17.12 51.69 C17.12 52.88 17.11 54.07 17.1 55.29 C17.07 58.2 17.04 61.1 17 64 C16.34 64 15.68 64 15 64 C13.49 62.03 13.49 62.03 11.88 59.5 C11.34 58.66 10.8 57.83 10.24 56.97 C9.83 56.32 9.42 55.67 9 55 C9.36 55.85 9.72 56.7 10.09 57.58 C14.43 68.91 15.71 80.69 13.5 92.73 C12.88 96.76 12.81 100.69 12.75 104.76 C12.72 106.45 12.69 108.15 12.65 109.84 C12.61 112.49 12.56 115.14 12.52 117.79 C12.48 120.36 12.43 122.94 12.38 125.51 C12.37 126.3 12.36 127.09 12.35 127.91 C12.27 131.73 12.15 134.76 10 138 C8.02 135.52 8.02 135.52 6 133 C6.25 134.24 6.25 134.24 6.5 135.51 C7.05 139.32 7.11 143.03 7.06 146.88 C7.06 147.56 7.05 148.25 7.05 148.96 C7.04 150.64 7.02 152.32 7 154 C5.86 152.82 5.86 152.82 4.69 151.62 C2.09 148.93 2.09 148.93 -1 147 C-0.73 147.61 -0.47 148.21 -0.2 148.84 C6.08 163.73 5.92 178.11 3.62 193.88 C3.5 194.75 3.37 195.62 3.24 196.52 C3.05 197.75 3.05 197.75 2.85 198.99 C2.68 200.08 2.68 200.08 2.5 201.19 C2 203 2 203 0 205 C-1.59 201.2 -3.18 197.39 -4.75 193.57 C-5.29 192.28 -5.83 190.98 -6.38 189.69 C-7.15 187.83 -7.92 185.96 -8.69 184.1 C-9.16 182.98 -9.62 181.86 -10.1 180.71 C-11 178 -11 178 -10 176 C-9.04 177.41 -8.08 178.83 -7.12 180.25 C-6.32 181.43 -6.32 181.43 -5.51 182.64 C-4.18 184.72 -3.05 186.78 -2 189 C0.64 186.36 0.12 179.31 0.25 175.62 C0.06 161.98 -3.59 148.8 -8 136 C-7.34 136 -6.68 136 -6 136 C-4.34 137.68 -4.34 137.68 -2.5 139.88 C-0.71 141.99 1.04 144.04 3 146 C2.36 138.03 0.36 130.9 -2 123.29 C-2.27 122.39 -2.54 121.49 -2.82 120.57 C-3.07 119.76 -3.32 118.96 -3.58 118.13 C-4 116 -4 116 -3 113 C-2.45 113.92 -1.89 114.83 -1.32 115.77 C-0.59 116.97 0.14 118.17 0.88 119.38 C1.24 119.98 1.6 120.58 1.98 121.2 C3.51 123.71 4.92 125.92 7 128 C7.2 122.21 6.6 117.38 5.06 111.81 C2.79 103.26 2.79 103.26 2 99 C4.4 101.88 6.47 104.56 8 108 C8.17 101.92 7.55 96.3 6.5 90.31 C4.79 80.39 4.79 80.39 5 76 C8.09 78.53 8.91 81.22 10 85 C11.09 70.69 6.02 57.18 1 44 C4.45 45.48 6.65 47.44 9.25 50.12 C9.96 50.85 10.66 51.57 11.39 52.32 C11.92 52.87 12.45 53.43 13 54 C11.64 35.04 8.89 17.12 0 0 Z M4 130 C5 132 5 132 5 132 Z " fill="#000000" transform="translate(751,798)"/>
<path d="M0 0 C0.33 0 0.66 0 1 0 C1.03 1.56 1.05 3.12 1.06 4.69 C1.07 5.56 1.09 6.43 1.1 7.32 C1 10 0.53 12.37 0 15 C-0.23 17.59 -0.42 20.16 -0.56 22.75 C-0.6 23.48 -0.65 24.21 -0.69 24.97 C-1.12 32.98 -1.09 40.98 -1 49 C-0.65 48.24 -0.65 48.24 -0.3 47.46 C0.75 45.15 1.81 42.86 2.88 40.56 C3.24 39.76 3.6 38.96 3.98 38.13 C4.51 36.99 4.51 36.99 5.05 35.82 C5.54 34.76 5.54 34.76 6.04 33.67 C7 32 7 32 9 31 C8.94 31.6 8.89 32.2 8.83 32.81 C8.57 35.6 8.32 38.4 8.06 41.19 C7.98 42.13 7.89 43.07 7.8 44.04 C7.62 46.01 7.44 47.98 7.27 49.95 C7.1 51.92 6.91 53.89 6.71 55.85 C5.72 66.66 5.89 77.47 5.94 88.31 C5.94 90.32 5.95 92.34 5.95 94.35 C5.96 99.23 5.98 104.12 6 109 C7.97 106.04 8.44 104.58 9.04 101.18 C9.2 100.23 9.37 99.28 9.55 98.31 C9.72 97.32 9.89 96.33 10.06 95.31 C10.24 94.34 10.41 93.38 10.59 92.38 C11.35 88.04 12.05 83.74 12.5 79.36 C12.66 78.25 12.83 77.14 13 76 C13.99 75.5 13.99 75.5 15 75 C16.01 91.49 13.23 110.03 6 125 C5.03 126.03 4.03 127.03 3 128 C1.18 113.85 0.8 99.8 0.81 85.56 C0.81 84.71 0.81 83.86 0.81 82.98 C0.81 72.27 1.17 61.68 2 51 C0.02 54.96 -1.96 58.92 -4 63 C-4.33 63 -4.66 63 -5 63 C-7.64 49.17 -5.59 34.85 -4 21 C-5.49 23.48 -5.49 23.48 -7 26 C-8.35 21.95 -7.04 19.15 -5.75 15.25 C-5.53 14.56 -5.31 13.87 -5.09 13.16 C-3.64 8.64 -1.93 4.33 0 0 Z M-3 16 C-2 18 -2 18 -2 18 Z M3 47 C4 49 4 49 4 49 Z " fill="#000000" transform="translate(285,383)"/>
<path d="M0 0 C1.34 3.82 0.77 7.06 0.22 11.02 C0.04 12.44 -0.15 13.86 -0.33 15.28 C-0.48 16.39 -0.48 16.39 -0.63 17.52 C-2.56 32.09 -3.54 46.29 -3 61 C-0.16 50.37 2.63 39.75 5 29 C5.33 29 5.66 29 6 29 C6.93 44.9 3.1 60.79 -4 75 C-4.66 75 -5.32 75 -6 75 C-7.96 67.59 -8.39 60.65 -8.38 53 C-8.37 51.78 -8.37 50.56 -8.37 49.3 C-8.15 32.64 -5.86 15.68 0 0 Z " fill="#000000" transform="translate(304,481)"/>
<path d="M0 0 C7.83 6.04 10.29 17 11.73 26.39 C12.38 32.64 12.04 38.7 11.5 44.94 C10.76 53.62 10.92 62.3 11 71 C10.01 71 9.02 71 8 71 C7.89 70.35 7.78 69.69 7.67 69.02 C5.28 55.18 2.15 42.56 -3.52 29.69 C-4.25 27.86 -4.25 27.86 -5 26 C-4.67 25.34 -4.34 24.68 -4 24 C0.08 29.76 3.37 35.45 6 42 C6.95 36.25 6.94 31.58 5.81 25.88 C5.68 25.15 5.54 24.42 5.4 23.67 C4.23 17.58 2.6 11.68 0.77 5.76 C0 3 0 3 0 0 Z " fill="#000000" transform="translate(535,687)"/>
<path d="M0 0 C0.33 0 0.66 0 1 0 C1.07 4.51 1.03 8.84 0.52 13.32 C-1.36 31.41 -1.99 51.67 4 69 C4.83 71.46 5.65 73.91 6.48 76.37 C7.02 77.96 7.58 79.54 8.16 81.12 C9.5 84.87 10.22 87.19 9 91 C-5.81 62.06 -8.31 31.36 0 0 Z " fill="#000000" transform="translate(318,543)"/>
<path d="M0 0 C3.91 1.27 5.7 2.36 7.75 5.94 C8.16 6.63 8.56 7.32 8.98 8.03 C11.91 13.72 11.84 19.78 10.25 25.89 C8.43 31.1 6.33 35.6 3 40 C2.67 39.34 2.34 38.68 2 38 C2.59 36.4 3.25 34.82 3.94 33.25 C6.81 25.68 7.84 17.12 4.47 9.58 C3.99 8.73 3.5 7.88 3 7 C1.32 12.31 0.45 17.41 -0.12 22.94 C-0.25 24.11 -0.25 24.11 -0.39 25.3 C-0.6 27.2 -0.8 29.1 -1 31 C-4.92 25.12 -3.58 16.72 -2.32 9.96 C-1.61 6.63 -0.84 3.31 0 0 Z " fill="#000000" transform="translate(344,136)"/>
<path d="M0 0 C4.4 3.49 5.73 7.71 7 13 C7.19 16.06 7.19 16.06 7 18 C4.28 15.65 3.19 13.38 2 10 C-0.67 17.69 0.23 25.05 1 33 C-2.28 30.14 -3.62 28.36 -4 24 C-3.96 15.62 -2.88 7.87 0 0 Z " fill="#000000" transform="translate(333,146)"/>
<path d="M0 0 C6.05 6.05 5.37 17.45 5.44 25.44 C5.36 39.13 2.09 49.2 -5 61 C-5.33 60.34 -5.66 59.68 -6 59 C-5.32 57.26 -4.55 55.56 -3.75 53.88 C3.73 36.43 2.71 18.4 0 0 Z " fill="#000000" transform="translate(442,540)"/>
<path d="M0 0 C0.66 0.33 1.32 0.66 2 1 C1.58 1.6 1.16 2.21 0.72 2.83 C0.17 3.63 -0.37 4.43 -0.94 5.25 C-1.48 6.04 -2.03 6.83 -2.59 7.64 C-5.38 12.31 -5.12 16.94 -5.06 22.25 C-5.06 23 -5.05 23.74 -5.05 24.51 C-5.04 26.34 -5.02 28.17 -5 30 C-7 29 -7 29 -8.12 26.62 C-9.59 20.57 -9.89 14.63 -7.88 8.69 C-5.55 5.35 -2.97 2.77 0 0 Z " fill="#000000" transform="translate(375,142)"/>
<path d="M0 0 C1 3 1 3 -0.14 5.81 C-0.69 6.86 -1.25 7.92 -1.81 9 C-2.36 10.05 -2.9 11.1 -3.46 12.19 C-5 15 -5 15 -7 18 C-7.66 17.67 -8.32 17.34 -9 17 C-6.03 11.39 -3.06 5.78 0 0 Z " fill="#000000" transform="translate(457,171)"/>
<path d="" fill="#000000" transform="translate(0,0)"/>
<path d="" fill="#000000" transform="translate(0,0)"/>
</svg>
