<?xml version="1.0" encoding="UTF-8"?>
<!-- Generator: visioncortex VTracer 0.6.3 -->
<svg version="1.1" xmlns="http://www.w3.org/2000/svg" width="649" height="1280">
<path d="M0 0 C6.47 6.82 6.87 12.73 6.66 21.96 C5.42 35.33 -3.5 43.96 -13.14 52.43 C-13.98 53.17 -14.82 53.92 -15.69 54.69 C-16.85 55.69 -16.85 55.69 -18.04 56.72 C-19.87 58.52 -19.87 58.52 -19.86 60.7 C-19.65 61.74 -19.65 61.74 -19.44 62.81 C-18.61 67.81 -18.59 72.64 -18.69 77.69 C-17.81 77.53 -16.92 77.37 -16.02 77.2 C10.09 73.51 34.61 78.96 59.31 86.69 C59.43 85.81 59.55 84.94 59.68 84.04 C60.29 80.79 61.21 78.06 62.45 74.99 C62.86 73.95 63.27 72.9 63.7 71.82 C64.57 69.64 65.45 67.46 66.34 65.28 C66.75 64.23 67.15 63.19 67.57 62.12 C67.96 61.17 68.34 60.22 68.73 59.25 C69.54 56.72 69.54 56.72 68.55 54.5 C67.26 52.54 67.26 52.54 65.31 50.31 C60.6 44.12 60.55 37.2 61.31 29.69 C63.47 21.45 69.08 14.69 76 9.88 C87.32 3.38 99.1 3.72 111.29 6.85 C124.92 10.65 137 19.43 144.31 31.69 C148.89 40.62 150.4 49.41 148.11 59.23 C144.82 69.35 138.54 76.6 129.31 81.69 C120.99 85.56 112.27 84.99 103.31 84.69 C103.04 85.57 102.76 86.46 102.47 87.37 C101.13 91.21 99.34 94.64 97.43 98.22 C96.3 100.72 95.74 102.98 95.31 105.69 C96.58 106.56 96.58 106.56 97.88 107.45 C111.57 116.97 123.72 127.72 135.31 139.69 C139.77 138.14 143.48 135.73 147.38 133.12 C217.71 86.88 217.71 86.88 244.38 91.69 C257.3 94.86 267.51 102.35 274.56 113.56 C284.29 130.82 286.11 150.39 281.29 169.57 C279.05 177.44 275.37 184.61 271.31 191.69 C270.83 192.54 270.35 193.39 269.85 194.27 C257.22 214.62 236.27 227.96 213.31 233.69 C212.57 233.88 211.83 234.08 211.06 234.28 C206.88 234.9 202.72 234.79 198.5 234.75 C197.62 234.75 196.73 234.74 195.82 234.74 C193.65 234.72 191.48 234.71 189.31 234.69 C189.59 235.42 189.87 236.16 190.16 236.91 C202.21 270.63 206.72 307.14 209.31 342.69 C209.41 343.99 209.5 345.3 209.6 346.65 C210.55 360.71 210.55 374.79 210.56 388.88 C210.56 390.16 210.57 391.44 210.57 392.76 C210.57 414.85 210.01 436.6 205.69 458.33 C205.21 460.95 205.21 460.95 205.31 464.69 C206.17 464.12 206.17 464.12 207.04 463.55 C216.72 457.45 226.96 453.3 238.31 451.69 C239.03 451.58 239.75 451.47 240.48 451.35 C254.54 449.56 272.49 448.15 284.66 456.37 C286.4 457.75 287.9 458.96 289.31 460.69 C288.8 463.8 288.13 466.65 287.31 469.69 C286.87 471.66 286.44 473.64 286.02 475.61 C282.16 492.79 278.32 508.8 262.62 519 C250.82 525.51 237.59 527.98 224.31 525.69 C224.64 526.29 224.96 526.9 225.3 527.52 C232.23 540.8 235.85 555.7 232.07 570.55 C229.97 576.45 226.62 581.28 221.31 584.69 C214.82 586.95 208.2 582.75 202.38 580 C188.15 572.66 180.87 563.44 175.31 548.69 C174.57 550.12 174.57 550.12 173.81 551.58 C173.12 552.89 172.44 554.19 171.75 555.5 C171.22 556.52 171.22 556.52 170.67 557.57 C167.96 562.7 164.86 567.35 161.27 571.93 C159.74 576.34 161.54 579.53 163.31 583.69 C163.65 584.49 163.99 585.3 164.34 586.13 C165.54 588.87 166.77 591.59 168 594.31 C172.49 604.37 176.73 614.52 180.87 624.72 C189.26 645.38 198.13 665.81 207.2 686.18 C208.3 688.66 209.4 691.14 210.51 693.62 C219.65 714.21 228.94 734.73 238.34 755.2 C240.67 760.27 242.97 765.35 245.27 770.43 C255.79 793.63 266.83 816.54 278.11 839.38 C310.16 904.35 336.6 972.28 338.31 1045.69 C338.35 1046.94 338.39 1048.19 338.43 1049.48 C339.12 1089.14 330.53 1129.87 304.31 1160.69 C303.57 1161.58 302.83 1162.47 302.07 1163.39 C287.58 1180.22 268.02 1192.16 247.31 1199.69 C246.32 1200.06 245.33 1200.43 244.31 1200.81 C238.89 1202.66 234.12 1203.76 228.41 1204.19 C217.62 1204.59 217.62 1204.59 208.61 1209.53 C206.08 1213.96 204.97 1218.63 203.9 1223.58 C202.34 1229.15 198.21 1233.75 193.31 1236.69 C186.42 1239.37 179.3 1240.44 172 1241.31 C171.06 1241.43 170.11 1241.55 169.14 1241.68 C157.15 1243.18 145.27 1243.86 133.19 1243.81 C131.29 1243.81 131.29 1243.81 129.36 1243.8 C94.41 1243.59 94.41 1243.59 87.53 1238.32 C81.65 1232.28 79.52 1223.8 78.31 1215.69 C63.25 1214.84 48.21 1214.56 33.13 1214.51 C31.14 1214.5 29.16 1214.49 27.18 1214.48 C16.03 1214.41 5.31 1214.62 -5.69 1216.69 C-5.88 1217.55 -6.07 1218.41 -6.26 1219.29 C-7.93 1226.72 -9.37 1232.15 -15.62 1236.94 C-25.74 1242.09 -38.97 1241.05 -50.06 1241 C-50.86 1241 -51.66 1241 -52.49 1241 C-116.31 1240.78 -116.31 1240.78 -130.69 1227.69 C-131.86 1225.96 -131.86 1225.96 -132.88 1224.19 C-135.23 1220.41 -138.48 1219.29 -142.5 1217.81 C-174.13 1206.17 -194.74 1181.63 -208.64 1151.68 C-213.5 1140.86 -216.77 1129.93 -219.38 1118.38 C-219.58 1117.49 -219.78 1116.6 -219.99 1115.68 C-223.3 1100.23 -224.07 1084.7 -224 1068.94 C-224 1068.05 -224 1067.16 -223.99 1066.25 C-223.71 983.57 -193.96 904.94 -166.65 828.05 C-166.42 827.4 -166.19 826.74 -165.95 826.07 C-164.76 822.72 -163.57 819.38 -162.38 816.04 C-156.19 798.61 -150.04 781.17 -144 763.69 C-130.75 725.38 -117.32 687.14 -103.36 649.08 C-98.94 637.01 -94.65 624.92 -90.69 612.69 C-91.33 612.05 -91.97 611.42 -92.63 610.77 C-99.33 604.18 -99.33 604.18 -101.91 600.67 C-104.7 597.32 -107.33 596.45 -111.59 595.41 C-112.58 595.16 -112.58 595.16 -113.6 594.9 C-115.01 594.54 -116.43 594.19 -117.85 593.85 C-121.61 592.94 -125.34 591.95 -129.07 590.97 C-129.82 590.78 -130.56 590.59 -131.33 590.39 C-166.29 581.24 -198.07 565.06 -224.26 540.05 C-225.63 538.74 -227.03 537.44 -228.43 536.14 C-254.06 511.62 -276.38 473.92 -277.69 437.69 C-277.73 436.66 -277.77 435.63 -277.81 434.57 C-278.83 381.63 -249.49 333.92 -221.43 291.18 C-203.46 263.77 -188.76 234.66 -175.16 204.89 C-172.58 199.29 -169.92 193.74 -167.23 188.19 C-165.35 184.6 -165.35 184.6 -164.69 180.69 C-165.9 180.28 -167.11 179.86 -168.35 179.44 C-194.95 170.15 -215.05 155.43 -227.69 129.69 C-233.51 116.78 -236.94 100.93 -235.69 86.69 C-235.55 85.02 -235.55 85.02 -235.41 83.32 C-233.4 64.72 -227.1 48.87 -214.69 34.69 C-213.84 33.71 -213.84 33.71 -212.97 32.72 C-205.39 24.59 -195.12 18.74 -183.94 18.19 C-168.56 18.67 -156.98 29.41 -146.23 39.35 C-144.15 41.27 -142.03 43.14 -139.89 45 C-135.73 48.63 -131.66 52.35 -127.62 56.12 C-126.96 56.74 -126.29 57.36 -125.6 57.99 C-121.57 61.76 -117.85 65.67 -114.26 69.85 C-112.22 72.23 -110.08 74.52 -107.94 76.81 C-103.97 81.16 -100.22 85.64 -96.56 90.25 C-95.83 91.16 -95.83 91.16 -95.09 92.09 C-91.69 96.44 -91.69 96.44 -91.69 98.69 C-90.74 98.32 -89.8 97.96 -88.82 97.59 C-81.2 94.68 -73.55 91.9 -65.81 89.31 C-65.03 89.05 -64.26 88.79 -63.45 88.52 C-57.94 86.69 -57.94 86.69 -55.69 86.69 C-56.35 78.11 -57.01 69.53 -57.69 60.69 C-60.66 59.7 -60.66 59.7 -63.69 58.69 C-72.48 52.32 -78.14 45.24 -80.69 34.69 C-81.83 23.09 -80.74 13.56 -73.67 3.94 C-65.4 -5.79 -55.2 -12.08 -42.5 -14.19 C-26.92 -15.3 -11.49 -10.7 0 0 Z M-65.69 8.69 C-70.87 16.61 -71.55 24.43 -70.69 33.69 C-68.62 40.66 -64.74 45.71 -58.69 49.69 C-56.38 50.93 -54.08 52.12 -51.7 53.22 C-48.75 55.37 -47.94 57.25 -46.69 60.69 C-46.23 64.1 -46.13 67.5 -46.06 70.94 C-46.01 72.73 -45.96 74.53 -45.9 76.33 C-45.88 77.12 -45.86 77.91 -45.85 78.72 C-45.8 80.76 -45.8 80.76 -44.69 82.69 C-39.18 82.1 -34.04 81.12 -28.69 79.69 C-28.8 78.63 -28.8 78.63 -28.91 77.55 C-30.93 56 -30.93 56 -27.88 50.31 C-25.29 47.89 -22.27 45.97 -19.38 43.94 C-11.34 38.25 -5.22 31.32 -2.69 21.69 C-2.14 16.47 -2.77 12.1 -5.69 7.69 C-12.26 0.36 -20.81 -3.96 -30.63 -4.55 C-45.29 -4.91 -55.54 -2.82 -65.69 8.69 Z M78.31 20.69 C73.49 25.9 70.92 30.34 71.03 37.63 C71.5 41.05 73.12 43.08 75.31 45.69 C76.2 46.35 77.09 47.01 78 47.69 C80.31 49.69 80.31 49.69 81.08 52.43 C81.35 56.18 80.69 58.37 79.33 61.86 C78.89 63.02 78.45 64.18 77.99 65.37 C77.52 66.57 77.05 67.77 76.56 69 C75.65 71.37 74.74 73.74 73.83 76.11 C73.39 77.23 72.96 78.36 72.51 79.51 C70.99 83.54 69.63 87.59 68.31 91.69 C70.94 93.03 73.56 94.36 76.19 95.69 C77.31 96.26 77.31 96.26 78.45 96.84 C79.16 97.2 79.88 97.57 80.62 97.94 C81.61 98.44 81.61 98.44 82.62 98.95 C84.31 99.82 84.31 99.82 86.31 99.69 C87.77 96.63 89.23 93.56 90.69 90.5 C91.1 89.64 91.51 88.77 91.94 87.88 C92.34 87.04 92.74 86.2 93.15 85.33 C93.52 84.56 93.88 83.79 94.26 83 C95.36 80.59 96.35 78.15 97.31 75.69 C98.63 75.73 99.94 75.78 101.3 75.83 C112.39 76.1 122.3 76.26 131.69 69.5 C136.77 64.05 139.87 58.05 140.62 50.62 C139.79 40.15 134.9 31.58 127.06 24.71 C113.86 14.73 92.63 9.96 78.31 20.69 Z M-204.69 38.69 C-217.68 51.27 -224.58 69.42 -225.03 87.34 C-225.26 108.89 -220.13 128.7 -204.89 144.54 C-203.5 145.94 -202.09 147.31 -200.69 148.69 C-199.9 149.5 -199.1 150.31 -198.29 151.15 C-187.25 161.9 -172.98 168.27 -157.69 169.69 C-156.52 167.9 -155.35 166.11 -154.19 164.31 C-153.21 162.82 -153.21 162.82 -152.22 161.29 C-150.52 158.9 -150.52 158.9 -150.69 156.69 C-152.1 156.27 -152.1 156.27 -153.55 155.84 C-169.02 151.08 -181.07 144.64 -189 129.94 C-194.48 118.21 -196.95 105.18 -192.69 92.69 C-190.76 88.52 -188.73 85.48 -185.06 82.69 C-177.62 80.48 -170.77 80.91 -163.85 84.44 C-156.22 88.83 -149.62 94.15 -142.96 99.88 C-139.98 102.45 -136.94 104.95 -133.88 107.44 C-129.39 111.09 -125.01 114.84 -120.69 118.69 C-117.29 117.16 -114.63 115.16 -111.75 112.81 C-110.92 112.13 -110.08 111.46 -109.22 110.76 C-108.39 110.07 -107.55 109.39 -106.69 108.69 C-105.02 107.35 -103.36 106.02 -101.69 104.69 C-108.71 96.05 -115.72 87.43 -123.31 79.28 C-125.23 77.19 -127.09 75.07 -128.95 72.91 C-132.83 68.47 -136.94 64.29 -141.12 60.12 C-141.84 59.41 -142.55 58.69 -143.28 57.96 C-147.37 53.87 -151.56 49.97 -155.93 46.2 C-158.03 44.39 -160.04 42.51 -162.06 40.62 C-176.48 27.87 -189.86 24.94 -204.69 38.69 Z M-40.69 92.69 C-40.23 99.63 -39.2 106.57 -35.69 112.69 C-31.11 116.55 -26.59 117.74 -20.88 118.88 C-20.12 119.04 -19.36 119.2 -18.58 119.37 C-0.07 123.4 -0.07 123.4 17.57 119.29 C23.62 113.74 28.14 105.24 29 97.06 C29.13 95.93 29.13 95.93 29.26 94.77 C29.44 92.49 29.44 92.49 28.31 89.69 C19.88 87.81 11.75 87.3 3.12 87.31 C1.17 87.31 1.17 87.31 -0.82 87.31 C-14.33 87.41 -27.6 89.33 -40.69 92.69 Z M-182.5 91.69 C-186.82 97.61 -187.42 104.55 -186.69 111.69 C-184.78 122.59 -179.64 132.9 -170.69 139.69 C-163.52 144.04 -154.28 148.97 -145.64 148.6 C-142.6 147.18 -141.29 144.85 -139.38 142.12 C-136.13 137.57 -132.73 133.39 -128.8 129.41 C-127.5 127.75 -127.5 127.75 -127.71 125.71 C-129.07 122.89 -130.89 121.64 -133.38 119.75 C-138.02 116.1 -142.34 112.26 -146.62 108.19 C-159.72 95.5 -159.72 95.5 -176.31 89.19 C-179.79 89.44 -179.79 89.44 -182.5 91.69 Z M40.31 92.69 C40.17 93.64 40.02 94.6 39.87 95.58 C37.99 106.38 35.17 116.42 26.31 123.69 C13.66 132.33 -7.25 127.72 -21.36 125.15 C-30.02 123.43 -38.61 121.72 -43.82 114.01 C-47.01 108.31 -48.26 102.01 -49.69 95.69 C-89.35 105.8 -118.41 125.37 -139.53 160.52 C-140.93 162.9 -142.31 165.29 -143.69 167.69 C-144.11 168.41 -144.52 169.14 -144.95 169.88 C-152.11 182.47 -157.85 195.68 -163.62 208.94 C-178.54 243.19 -195.74 274.76 -216.67 305.69 C-219.55 309.97 -222.38 314.29 -225.19 318.62 C-225.63 319.3 -226.06 319.97 -226.52 320.67 C-228.42 323.61 -230.16 326.54 -231.69 329.69 C-223.15 329.06 -214.73 327.86 -206.27 326.59 C-183.46 323.19 -160.74 321.31 -137.69 320.69 C-136.9 320.66 -136.1 320.64 -135.29 320.62 C-61.67 318.72 13.45 334.52 80.06 365.64 C82.21 366.64 84.36 367.61 86.52 368.57 C126.77 386.73 163.37 412.32 194.31 443.69 C195.31 444.69 196.31 445.69 197.31 446.69 C204.46 432.39 200.67 408.38 200.63 392.47 C200.62 390.16 200.62 387.85 200.62 385.55 C200.59 362.82 200.1 340.27 197.31 317.69 C197.16 316.43 197.01 315.17 196.86 313.88 C190.94 265.38 177.78 216.31 150.88 175 C150.46 174.36 150.05 173.72 149.62 173.05 C148.35 171.11 148.35 171.11 146.31 168.69 C142.4 168.69 141.76 169.89 139 172.56 C134.17 176.96 131.14 178.69 124.5 178.69 C121.13 178.14 118.92 176.96 116.12 175.02 C115.34 174.48 114.55 173.94 113.74 173.39 C112.94 172.83 112.14 172.26 111.31 171.69 C110.17 170.9 110.17 170.9 109 170.11 C106.69 168.53 104.41 166.92 102.12 165.31 C101.36 164.79 100.59 164.26 99.8 163.72 C92.92 158.84 87.19 153.19 85.31 144.69 C84.52 136.71 84.38 129.32 89.31 122.69 C91.56 120.19 91.56 120.19 93.31 118.69 C91.97 114.66 89.43 113.6 85.94 111.56 C84.94 110.98 84.94 110.98 83.93 110.38 C63.26 98.03 63.26 98.03 40.31 92.69 Z M171.31 134.69 C170.69 135.07 170.06 135.45 169.42 135.85 C161.38 140.79 153.34 145.73 145.31 150.69 C146.94 155.02 149.03 158.2 151.88 161.88 C156.24 167.53 156.24 167.53 157.31 169.69 C162.49 169.12 166.52 166.59 171 164.12 C208.01 144.24 208.01 144.24 221.31 146.69 C225.95 148.09 229.21 149.93 231.75 154.12 C235.3 162.21 235.09 169.82 232.34 178.11 C227.29 190.74 218.7 198.21 206.57 204.01 C198.17 207.53 189.14 209.53 180.31 211.69 C181.12 213.67 181.94 215.65 182.75 217.62 C183.2 218.73 183.65 219.83 184.12 220.96 C185.06 223.55 185.06 223.55 186.31 224.69 C207.96 226.4 230.33 220.08 246.96 205.93 C261.88 192.63 272.33 173.35 273.52 153.24 C273.71 137.75 270.41 124.28 259.63 112.73 C251.53 105.58 243.34 103.27 232.79 103.43 C211.08 105.06 189.46 123.55 171.31 134.69 Z M98.11 128.79 C94.64 132.46 92.53 136.76 92.16 141.83 C92.6 147.58 94.88 151.44 99.05 155.3 C103.74 159.14 108.82 162.45 113.94 165.69 C114.87 166.3 114.87 166.3 115.82 166.93 C119.03 168.9 121.11 169.69 124.9 169.66 C128.55 168.62 131.12 167.25 134.25 165.12 C135.69 164.16 135.69 164.16 137.15 163.18 C137.87 162.69 138.58 162.2 139.31 161.69 C137.8 156.48 134.48 153.3 130.81 149.5 C130.18 148.84 129.55 148.18 128.91 147.5 C127.05 145.55 125.18 143.62 123.31 141.69 C122.82 141.17 122.33 140.66 121.82 140.13 C116.39 134.46 110.8 129.15 104.31 124.69 C101.95 124.69 99.78 127.32 98.11 128.79 Z M192.62 165.94 C191.59 166.42 190.55 166.89 189.48 167.39 C181.01 171.32 172.63 175.42 164.31 179.69 C164.84 180.68 165.37 181.67 165.92 182.69 C166.64 184.02 167.35 185.35 168.06 186.69 C168.58 187.66 168.58 187.66 169.12 188.65 C171.6 193.29 173.98 197.97 176.31 202.69 C201.18 198.57 201.18 198.57 220.23 183.05 C223.36 177.95 225.45 173.81 225.5 167.75 C225.51 166.9 225.53 166.04 225.54 165.16 C225.3 162.51 224.72 160.93 223.31 158.69 C214.59 152.87 200.86 162.11 192.62 165.94 Z M-152.12 329.44 C-152.96 329.48 -153.8 329.52 -154.67 329.57 C-198.43 330.51 -198.43 330.51 -239.69 341.69 C-241.22 343.51 -241.22 343.51 -242.3 345.77 C-242.74 346.61 -243.18 347.45 -243.63 348.31 C-244.08 349.22 -244.53 350.13 -245 351.06 C-245.48 352 -245.96 352.94 -246.45 353.91 C-264.15 389.38 -273.58 427.97 -261.44 466.81 C-254.15 488.48 -241.31 508.15 -225.69 524.69 C-224.56 526.02 -223.43 527.35 -222.31 528.69 C-175.91 581.57 -89.34 595.38 -22.94 599.94 C38.29 603.66 99.07 591.98 146.38 551.05 C151.78 546.25 156.77 541.31 161.31 535.69 C162.08 534.76 162.85 533.82 163.64 532.86 C178.51 514.49 196.96 483.17 195.31 458.69 C193.66 455.39 193.66 455.39 190.88 452.62 C190.38 452.09 189.89 451.55 189.39 451 C187.73 449.2 186.02 447.44 184.31 445.69 C183.39 444.71 183.39 444.71 182.44 443.72 C173.68 434.5 164.58 426.19 154.31 418.69 C153.72 418.24 153.12 417.79 152.5 417.33 C80.41 363.49 -9.94 334.29 -99.25 329.5 C-100.05 329.46 -100.85 329.41 -101.67 329.37 C-118.53 328.48 -135.27 328.58 -152.12 329.44 Z M204.31 479.69 C203.69 480.23 203.06 480.78 202.42 481.34 C195.61 488.11 192.36 498.47 190.31 507.69 C206.61 517.1 226.48 521.23 245.1 518.04 C255.93 515.02 264.44 509.33 270.31 499.69 C273.63 493.24 275.66 486.55 277.5 479.56 C277.76 478.61 278.02 477.66 278.29 476.68 C279.63 471.69 280.72 466.82 281.31 461.69 C261.73 445.6 219.42 466.15 204.31 479.69 Z M185.31 517.69 C184.67 520.1 184.02 522.52 183.38 524.94 C183.1 525.96 183.1 525.96 182.82 527 C182.32 528.9 181.81 530.79 181.31 532.69 C181.07 533.36 180.83 534.03 180.59 534.73 C179.5 542.49 184.36 553.16 188.58 559.49 C193.69 565.96 200.07 570.38 207 574.69 C207.94 575.29 207.94 575.29 208.91 575.89 C212.85 578.25 215.72 579.32 220.31 578.69 C224.68 574.92 225.77 570.22 226.31 564.69 C226.63 551.58 222.55 537.08 214.31 526.69 C209.96 522.25 205.11 521.28 199.25 519.94 C198.35 519.72 197.45 519.5 196.53 519.27 C192.62 518.33 189.36 517.69 185.31 517.69 Z M166.31 542.69 C167.31 544.69 167.31 544.69 167.31 544.69 Z M165.31 544.69 C164.5 545.55 163.69 546.41 162.85 547.29 C145.55 565.26 125.75 578.08 103.31 588.69 C102.22 589.21 101.13 589.73 100 590.27 C85.07 597.05 69.18 601.35 53.12 604.5 C52.14 604.69 51.16 604.89 50.15 605.09 C33.18 608.22 16.16 609.07 -1.06 609 C-2.02 609 -2.97 609 -3.96 608.99 C-33.66 608.89 -62.46 604.57 -91.69 599.69 C-87.95 604.88 -84.06 609.64 -79.5 614.12 C-78.93 614.68 -78.37 615.24 -77.78 615.82 C-72.69 620.8 -67.34 625.35 -61.69 629.69 C-61.16 630.1 -60.63 630.51 -60.09 630.93 C-31.19 653.24 2.14 669.08 35.18 684.23 C37.82 685.46 40.43 686.73 43.03 688.04 C47.75 690.41 51.04 691.29 56.31 690.69 C63.02 686.91 68.46 680.85 73.82 675.44 C75.24 674.01 76.66 672.6 78.09 671.18 C84.27 664.99 89.87 658.52 95.31 651.69 C96.39 650.39 97.46 649.1 98.54 647.82 C107.1 637.53 114.8 626.75 122.31 615.69 C123.07 614.58 123.07 614.58 123.84 613.45 C132.94 600.04 141.62 586.36 150.31 572.69 C150.91 571.74 151.51 570.8 152.13 569.83 C153.78 567.24 155.42 564.65 157.06 562.06 C157.54 561.31 158.02 560.56 158.51 559.79 C159.79 557.76 161.05 555.73 162.31 553.69 C162.72 553.03 163.14 552.37 163.56 551.68 C164.54 550.06 165.44 548.38 166.31 546.69 C165.98 546.03 165.65 545.37 165.31 544.69 Z M148.31 590.69 C146.56 593.07 144.93 595.45 143.32 597.93 C142.83 598.68 142.33 599.43 141.82 600.2 C140.76 601.82 139.7 603.43 138.65 605.05 C135.91 609.22 133.16 613.38 130.4 617.54 C129.86 618.35 129.32 619.16 128.77 620 C119.77 633.56 110.14 646.43 99.74 658.95 C98.48 660.49 97.23 662.04 95.99 663.6 C90.03 671.07 83.57 678.03 76.98 684.94 C75.47 686.52 73.99 688.12 72.51 689.73 C66.43 696.15 61.32 700.04 52.44 701.19 C43.54 700.69 34.79 695.66 27 691.69 C26.06 691.21 25.12 690.73 24.14 690.24 C13.74 684.95 3.5 679.37 -6.69 673.69 C-7.6 673.18 -8.51 672.67 -9.45 672.15 C-20.87 665.79 -31.98 659.18 -42.69 651.69 C-43.27 651.28 -43.85 650.88 -44.45 650.46 C-52.29 645.01 -59.87 639.28 -67.34 633.33 C-69.83 631.35 -72.35 629.43 -74.9 627.52 C-75.61 626.99 -76.32 626.46 -77.06 625.91 C-77.59 625.5 -78.13 625.1 -78.69 624.69 C-80.83 630.33 -82.97 635.97 -85.1 641.61 C-85.82 643.53 -86.55 645.45 -87.28 647.37 C-88.33 650.13 -89.37 652.89 -90.41 655.64 C-90.73 656.5 -91.06 657.36 -91.4 658.25 C-91.7 659.05 -92 659.85 -92.31 660.68 C-92.58 661.38 -92.84 662.08 -93.12 662.81 C-93.83 664.84 -93.83 664.84 -93.69 667.69 C-91.73 669.3 -91.73 669.3 -89.19 670.81 C-77.07 679.04 -69.2 691.77 -66.12 706.11 C-64.42 720.04 -64.92 733.42 -69.69 746.69 C-70.05 747.73 -70.41 748.77 -70.79 749.85 C-75.51 762.27 -83.67 772.29 -92.35 782.16 C-93.61 783.6 -94.86 785.06 -96.11 786.52 C-104.79 796.5 -112.08 801.57 -125.44 803.12 C-131.94 802.89 -138.47 800.5 -144.69 798.69 C-148.34 807.28 -151.74 815.94 -155 824.69 C-155.45 825.89 -155.91 827.09 -156.38 828.32 C-156.81 829.48 -157.23 830.63 -157.68 831.81 C-158.06 832.85 -158.45 833.88 -158.85 834.95 C-159.88 837.85 -159.88 837.85 -159.69 841.69 C-158.11 843.09 -158.11 843.09 -156 844.12 C-147.84 848.87 -141.99 856.34 -138.81 865.25 C-135.52 877.93 -137.21 891.16 -143.27 902.69 C-150.15 914.09 -158.61 921.25 -171.62 925 C-175.21 925.71 -178.8 925.96 -182.44 926.23 C-183.61 926.32 -184.78 926.4 -185.99 926.49 C-186.88 926.56 -187.77 926.62 -188.69 926.69 C-209.75 1002.06 -228.87 1091.53 -188.06 1166.36 C-185.04 1171.5 -181.54 1176.14 -177.69 1180.69 C-176.98 1181.55 -176.28 1182.42 -175.55 1183.31 C-167.1 1193.26 -156.75 1200.68 -144.69 1205.69 C-144.03 1205.69 -143.37 1205.69 -142.69 1205.69 C-143.33 1202.12 -144.26 1198.81 -145.45 1195.39 C-154.55 1168.54 -161.59 1141.12 -168.69 1113.69 C-169 1112.49 -169.31 1111.29 -169.63 1110.05 C-171.42 1103.12 -173.2 1096.18 -174.94 1089.24 C-175.48 1087.09 -176.02 1084.95 -176.57 1082.81 C-177.32 1079.85 -178.06 1076.89 -178.79 1073.93 C-179.01 1073.06 -179.24 1072.19 -179.47 1071.29 C-180.34 1067.66 -180.85 1065.35 -179.93 1061.67 C-178.69 1059.69 -178.69 1059.69 -176.69 1058.69 C-173.75 1058.31 -173.75 1058.31 -170.69 1058.69 C-167.59 1062.69 -166.55 1067.27 -165.37 1072.09 C-165.15 1072.94 -164.94 1073.79 -164.71 1074.67 C-164.24 1076.53 -163.77 1078.38 -163.3 1080.24 C-162.01 1085.37 -160.7 1090.48 -159.38 1095.59 C-159.09 1096.69 -158.81 1097.8 -158.51 1098.93 C-154.88 1112.9 -151.01 1126.8 -147.14 1140.69 C-146.56 1142.75 -145.99 1144.8 -145.42 1146.86 C-144.34 1150.73 -143.26 1154.6 -142.18 1158.47 C-141.86 1159.64 -141.53 1160.8 -141.2 1162 C-140.75 1163.61 -140.75 1163.61 -140.28 1165.25 C-139.89 1166.65 -139.89 1166.65 -139.49 1168.08 C-138.69 1170.68 -137.73 1173.17 -136.69 1175.69 C-124.32 1175.82 -111.96 1175.95 -99.6 1176.08 C-93.85 1176.14 -88.11 1176.2 -82.37 1176.26 C-76.8 1176.32 -71.24 1176.38 -65.68 1176.44 C-63.58 1176.46 -61.48 1176.48 -59.37 1176.5 C-44.48 1176.66 -29.58 1176.72 -14.69 1176.69 C-13.03 1161.94 -11.83 1147.17 -10.69 1132.38 C-9.05 1111.27 -7.27 1090.18 -5 1069.12 C-4.9 1068.15 -4.8 1067.18 -4.69 1066.18 C-4.4 1063.47 -4.1 1060.77 -3.8 1058.06 C-3.72 1057.28 -3.63 1056.49 -3.55 1055.68 C-3.09 1051.72 -2.39 1048.3 -0.69 1044.69 C6.06 1043.56 6.06 1043.56 8.31 1044.69 C8.41 1052.43 8.19 1060.06 7.54 1067.78 C7.45 1068.84 7.36 1069.9 7.27 1071 C6.98 1074.54 6.68 1078.08 6.38 1081.62 C6.22 1083.47 6.22 1083.47 6.06 1085.36 C3.66 1113.65 0.63 1141.89 -2.43 1170.12 C-2.83 1173.75 -3.22 1177.38 -3.61 1181.01 C-3.89 1183.52 -4.17 1186.04 -4.44 1188.56 C-4.61 1190.08 -4.77 1191.61 -4.94 1193.14 C-5.02 1193.82 -5.09 1194.5 -5.17 1195.2 C-5.58 1199.05 -5.76 1202.82 -5.69 1206.69 C-2.56 1206.72 0.56 1206.73 3.69 1206.75 C4.54 1206.76 5.39 1206.77 6.27 1206.78 C12.08 1206.8 17.85 1206.57 23.66 1206.22 C34.24 1205.58 44.83 1205.35 55.44 1205.12 C57.38 1205.08 59.32 1205.04 61.26 1204.99 C65.95 1204.89 70.63 1204.79 75.31 1204.69 C75.19 1203.63 75.07 1202.58 74.94 1201.49 C73.58 1189.57 72.44 1177.64 71.44 1165.69 C71.35 1164.69 71.27 1163.7 71.19 1162.67 C69.64 1144.05 68.36 1125.41 67.2 1106.75 C67.07 1104.67 66.93 1102.58 66.79 1100.5 C65.81 1085.41 65.15 1070.37 65.14 1055.25 C65.14 1054.57 65.14 1053.89 65.14 1053.18 C65.13 1044.83 65.13 1044.83 65.31 1041.69 C66.31 1040.69 66.31 1040.69 69.75 1040.5 C73.31 1040.69 73.31 1040.69 75.31 1042.69 C75.77 1045.28 75.77 1045.28 76.06 1048.68 C76.17 1050 76.29 1051.31 76.4 1052.67 C76.52 1054.15 76.64 1055.64 76.75 1057.12 C76.81 1057.89 76.87 1058.65 76.94 1059.43 C79.59 1092.46 81.17 1125.67 82.02 1158.79 C82.16 1164.23 82.43 1169.63 82.83 1175.05 C82.92 1176.3 83.01 1177.55 83.1 1178.83 C83.17 1179.77 83.24 1180.72 83.31 1181.69 C104.94 1182.65 126.4 1182.63 148.04 1181.89 C151.74 1181.76 155.45 1181.65 159.15 1181.54 C175.87 1181.01 192.59 1180.39 209.31 1179.69 C211.45 1174.27 213.1 1168.99 214.36 1163.32 C214.54 1162.53 214.72 1161.74 214.91 1160.93 C215.49 1158.37 216.06 1155.81 216.62 1153.25 C216.92 1151.93 216.92 1151.93 217.22 1150.57 C225.5 1113.35 232.54 1075.54 231.19 1037.22 C231.15 1036.14 231.12 1035.07 231.08 1033.96 C231.03 1033.02 230.98 1032.07 230.93 1031.09 C231.31 1028.69 231.31 1028.69 233.2 1026.87 C236.88 1024.81 239.28 1025.71 243.31 1026.69 C246.35 1031.06 245.65 1036.2 245.62 1041.31 C245.62 1042.38 245.61 1043.44 245.61 1044.53 C245.36 1061.06 243.24 1077.25 239.73 1093.39 C239.34 1095.18 239.34 1095.18 238.95 1097 C235.74 1111.58 232.07 1126.04 228.37 1140.5 C227.62 1143.43 226.88 1146.36 226.14 1149.29 C222.5 1163.71 218.77 1178.08 214.33 1192.28 C213.22 1195.41 213.22 1195.41 213.31 1197.69 C241.97 1196.98 268.39 1182.39 288.31 1162.69 C289.04 1162.04 289.76 1161.38 290.51 1160.71 C313.04 1140 323.31 1106.67 325.18 1076.96 C325.23 1075.88 325.27 1074.8 325.31 1073.69 C325.39 1071.71 325.39 1071.71 325.47 1069.7 C325.61 1064.36 325.47 1059.03 325.31 1053.69 C325.28 1052.31 325.25 1050.94 325.22 1049.57 C325.13 1045.77 324.96 1041.97 324.74 1038.18 C324.66 1036.65 324.61 1035.13 324.58 1033.61 C324.46 1028.65 324.12 1024.33 322.31 1019.69 C319.18 1017.06 316.3 1015.58 312.51 1014.06 C304.52 1010.62 300.46 1002.97 297.28 995.24 C294.33 987.43 292.29 979.34 295.75 971.38 C299.2 967.76 303.07 965.28 307.31 962.69 C308.3 962.03 309.29 961.37 310.31 960.69 C308.99 951.35 306.25 942.62 303.31 933.69 C302.09 933.73 300.87 933.78 299.61 933.83 C281.43 934.32 265.7 929.69 251.45 917.77 C244.5 910.98 240.64 901.58 237.12 892.69 C236.67 891.54 236.21 890.4 235.74 889.22 C208.75 820.66 208.75 820.66 216.75 797.06 C221.47 787.69 229.13 781.4 238.31 776.69 C236.41 770.56 234.12 764.79 231.34 759 C230.97 758.22 230.59 757.44 230.21 756.64 C229.04 754.17 227.87 751.71 226.69 749.25 C225.89 747.57 225.09 745.9 224.3 744.22 C220.85 736.93 220.85 736.93 217.31 729.69 C216.51 729.93 215.71 730.17 214.89 730.41 C204.81 733.13 196.52 733.36 187.25 728.12 C185.58 727.02 183.93 725.87 182.31 724.69 C180.92 723.68 180.92 723.68 179.49 722.64 C168.01 713.8 161.3 703.14 159.31 688.69 C158.02 673.12 162.41 658.95 170.31 645.69 C171.09 644.86 171.86 644.02 172.66 643.17 C173.48 641.94 173.48 641.94 174.31 640.69 C172.98 634.94 169.95 629.71 167.3 624.48 C166.82 623.51 166.33 622.54 165.83 621.54 C164.29 618.46 162.74 615.39 161.19 612.31 C160.14 610.22 159.09 608.13 158.04 606.04 C155.47 600.92 152.89 595.8 150.31 590.69 C149.65 590.69 148.99 590.69 148.31 590.69 Z M180.31 654.69 C178.85 657.7 177.39 660.73 175.94 663.75 C175.52 664.6 175.11 665.45 174.69 666.32 C169.94 676.24 167.02 686.44 170.07 697.42 C175.03 709.07 185.21 714.62 196.31 719.69 C200.42 720.92 204.04 720.89 208.31 720.69 C209.3 720.03 210.29 719.37 211.31 718.69 C209.44 712.63 207.19 706.98 204.36 701.31 C203.99 700.54 203.61 699.78 203.22 698.98 C202.03 696.55 200.83 694.12 199.62 691.69 C198.45 689.29 197.27 686.9 196.09 684.5 C195.32 682.92 194.54 681.34 193.76 679.76 C191.8 675.78 189.88 671.78 188.02 667.75 C187.65 666.96 187.29 666.17 186.91 665.36 C186.22 663.86 185.54 662.36 184.86 660.85 C183.34 657.1 183.34 657.1 180.31 654.69 Z M-99.69 680.69 C-109.1 704.3 -118.47 727.92 -127.5 751.69 C-127.82 752.54 -128.15 753.39 -128.48 754.27 C-129.99 758.25 -131.5 762.23 -133 766.21 C-134.14 769.25 -135.3 772.29 -136.47 775.32 C-136.75 776.05 -137.03 776.79 -137.32 777.55 C-137.85 778.94 -138.38 780.32 -138.92 781.7 C-140 784.53 -140.69 786.63 -140.69 789.69 C-136.11 790.98 -131.67 790.95 -126.94 791 C-126.07 791.03 -125.2 791.06 -124.3 791.09 C-115.64 791.17 -109.98 788.35 -103.69 782.44 C-102.84 781.65 -102 780.85 -101.13 780.04 C-99.92 778.88 -99.92 778.88 -98.69 777.69 C-97.63 776.71 -97.63 776.71 -96.55 775.71 C-83 762.8 -73.87 746.46 -73.34 727.58 C-73.19 711.81 -77.56 699.7 -88.75 688.12 C-92.16 684.76 -95.38 682.76 -99.69 680.69 Z M242.31 788.69 C234.07 793.49 228.38 802.87 225.38 811.69 C218.68 838.69 238.8 876.79 251.38 899.69 C259.11 912.44 272.17 920.43 286.25 924.75 C290.94 925.84 294.63 925.81 299.31 924.69 C300.61 922.66 300.61 922.66 299.61 920.21 C299.02 918.62 299.02 918.62 298.42 917 C297.97 915.79 297.51 914.57 297.05 913.32 C296.53 911.96 296.02 910.61 295.5 909.25 C295.24 908.56 294.97 907.86 294.7 907.14 C287.12 887.1 278.71 867.4 270.31 847.69 C269.78 846.44 269.78 846.44 269.24 845.18 C265.45 836.27 261.64 827.37 257.8 818.48 C255.93 814.15 254.09 809.8 252.27 805.45 C251.8 804.36 251.34 803.27 250.87 802.14 C250.03 800.16 249.19 798.16 248.37 796.17 C248 795.32 247.64 794.46 247.27 793.59 C246.96 792.85 246.65 792.11 246.33 791.36 C245.35 789.34 245.35 789.34 242.31 788.69 Z M-165.69 854.69 C-176.51 885.43 -176.51 885.43 -185.69 916.69 C-179.56 919.48 -174.37 918.96 -168.06 916.78 C-159.23 912.8 -154.13 906.7 -150.41 897.86 C-146.94 887.47 -148.11 876.26 -152.75 866.43 C-155.51 861.64 -159.07 857.76 -163.69 854.69 C-164.35 854.69 -165.01 854.69 -165.69 854.69 Z M305.31 978.69 C303.1 983.1 303.79 988.67 305 993.32 C308.11 1001.76 312.14 1006.87 320.31 1010.69 C319.02 998.52 316.84 986.66 314.31 974.69 C310.28 974.69 308.5 976.33 305.31 978.69 Z M-133.69 1186.69 C-131.99 1194.48 -129.71 1202.05 -127.25 1209.62 C-126.96 1210.54 -126.67 1211.45 -126.38 1212.39 C-124.15 1219.19 -124.15 1219.19 -119.69 1224.69 C-112.26 1227.17 -104.68 1227.68 -96.94 1228.31 C-96.16 1228.38 -95.38 1228.44 -94.58 1228.51 C-79.13 1229.76 -63.69 1230.02 -48.19 1230.06 C-46.49 1230.07 -46.49 1230.07 -44.75 1230.09 C-41.51 1230.1 -38.27 1230.1 -35.03 1230.09 C-33.57 1230.09 -33.57 1230.09 -32.08 1230.1 C-27.16 1230.05 -23.64 1229.97 -19.69 1226.69 C-16.95 1222.17 -17 1216.59 -16.56 1211.44 C-16.43 1210.08 -16.43 1210.08 -16.3 1208.7 C-15.78 1203.01 -15.61 1197.4 -15.69 1191.69 C-16.64 1191.61 -17.6 1191.53 -18.58 1191.44 C-23.03 1191.07 -27.49 1190.69 -31.94 1190.31 C-32.74 1190.24 -33.54 1190.18 -34.37 1190.11 C-43.52 1189.33 -52.67 1188.52 -61.81 1187.56 C-85.79 1185.1 -109.64 1185.36 -133.69 1186.69 Z M84.31 1191.69 C84.93 1204.49 86.69 1220.4 93.31 1231.69 C98.63 1235.23 104.87 1234.85 111.11 1234.89 C111.84 1234.9 112.58 1234.9 113.33 1234.91 C115.72 1234.93 118.11 1234.94 120.5 1234.94 C121.32 1234.94 122.14 1234.94 122.98 1234.94 C138.26 1234.94 153.18 1233.85 168.31 1231.69 C169.22 1231.56 170.12 1231.44 171.05 1231.32 C181.93 1230 181.93 1230 191.31 1224.69 C192.97 1222.31 194.18 1219.82 195.38 1217.19 C195.71 1216.48 196.05 1215.78 196.39 1215.05 C201.9 1204.75 201.9 1204.75 204.31 1193.69 C176.82 1191.9 149.37 1190.38 121.81 1190.44 C120.78 1190.44 119.74 1190.44 118.68 1190.44 C107.18 1190.47 95.77 1190.72 84.31 1191.69 Z " fill="#000000" transform="translate(298.6875,25.3125)"/>
<path d="M0 0 C4.02 2.14 7.72 4.56 11.38 7.27 C12.02 7.72 12.66 8.17 13.32 8.63 C18.38 12.51 21.48 17.17 23.38 23.27 C24.28 32.12 19.97 39.41 15.19 46.52 C8.58 52.97 0.58 57.04 -8.69 57.7 C-19.92 57.4 -34.64 50.98 -42.73 43.25 C-46.38 38.7 -47.94 34.93 -47.43 29.02 C-45.87 18.45 -39.81 9.94 -31.62 3.27 C-21.51 -3.34 -11.3 -5.14 0 0 Z M-35.62 19.27 C-38.5 23.54 -39 28.02 -39.22 33.05 C-38.16 36.99 -35.25 39.21 -31.9 41.38 C-30.02 42.46 -28.12 43.47 -26.19 44.45 C-25.54 44.8 -24.9 45.14 -24.24 45.49 C-17.39 49.07 -11 51.79 -3.2 49.58 C4.81 46.67 10.18 42.93 14.31 35.39 C16.47 30.58 17.39 27.49 16.38 22.27 C11.89 14.85 4.06 9.51 -3.62 5.83 C-17.44 3.24 -26.87 8.58 -35.62 19.27 Z " fill="#000000" transform="translate(326.625,177.734375)"/>
<path d="M0 0 C7.54 4.05 16.33 9.19 20.04 17.26 C21.16 21.23 21.11 23.61 20 27.62 C14.67 36.63 7.66 42.45 -2.45 45.49 C-9.74 46.94 -17.68 47.34 -24.22 43.38 C-30.88 38.2 -34.75 32.41 -36 24 C-36.38 14.52 -32.85 4.17 -26.46 -2.79 C-18.93 -9 -7.43 -3.51 0 0 Z M-22.63 4.22 C-25.93 8.51 -26.76 14.32 -27.5 19.56 C-26.47 26.62 -22.41 32.44 -17 37 C-10.39 39.2 -4.4 38.42 1.79 35.33 C6.98 32.21 11.12 29.25 13.38 23.5 C12.93 19.39 12.1 17.77 9.28 14.84 C2.44 9.32 -13.93 -2.29 -22.63 4.22 Z " fill="#000000" transform="translate(438,778)"/>
<path d="M0 0 C7.85 6.18 9.65 13.63 11.04 23.22 C12.83 39.04 12.83 39.04 9.79 43.59 C6.79 44.53 6.79 44.53 3.79 44.59 C0.98 41.79 1.46 39.04 1.35 35.28 C1.03 22.53 1.03 22.53 -4.05 11.32 C-7.51 8.55 -10.83 7.83 -15.21 7.59 C-23.92 8.86 -29.47 14.12 -34.59 20.91 C-35.46 22.14 -36.34 23.36 -37.21 24.59 C-38.21 25.59 -38.21 25.59 -40.52 25.97 C-43.21 25.59 -43.21 25.59 -45.52 23.09 C-46.08 22.27 -46.64 21.44 -47.21 20.59 C-44.43 11.7 -36.94 3.71 -28.84 -0.7 C-18.94 -5.21 -9.52 -6.05 0 0 Z " fill="#000000" transform="translate(399.2109375,342.40625)"/>
<path d="M0 0 C9.08 6.36 14.14 15.03 16.51 25.82 C17.16 30.58 17.16 30.58 16.88 32.94 C15.07 35.3 14.35 35.87 11.38 36.31 C8.28 35.85 7.76 35.42 5.88 32.94 C4.76 29.65 3.82 26.36 2.95 23.01 C1.28 17.15 -1.13 12.71 -6.56 9.5 C-9.86 8.78 -11.9 8.91 -15.12 9.94 C-18.85 13.71 -20.09 17.51 -21.19 22.56 C-23 30.76 -23 30.76 -26.12 32.94 C-28.62 33.44 -28.62 33.44 -31.12 32.94 C-33.25 30.74 -34.07 29.06 -34.22 25.99 C-33.57 17.12 -30.63 8.14 -24.12 1.94 C-16.43 -3.44 -8.37 -4.84 0 0 Z " fill="#000000" transform="translate(165.125,296.0625)"/>
<path d="M0 0 C4.37 2.75 7.29 6.14 9.13 10.96 C9.13 15.19 7.86 17.52 5.07 20.65 C-1.49 24.41 -8.6 22.11 -15.56 20.52 C-16.65 20.28 -16.65 20.28 -17.75 20.02 C-22.9 18.77 -27.73 17.26 -31.75 13.65 C-33.42 10.21 -33.69 7.08 -32.87 3.34 C-25.08 -5.37 -9.84 -4.57 0 0 Z " fill="#000000" transform="translate(366.87109375,430.6640625)"/>
<path d="M0 0 C4.27 2.43 7.37 5.08 10.12 9.21 C10.46 11.15 10.46 11.15 10.5 13.21 C10.53 13.89 10.56 14.57 10.59 15.27 C10.12 17.21 10.12 17.21 8.45 18.81 C5.6 20.53 3.83 20.6 0.51 20.61 C-1.11 20.62 -1.11 20.62 -2.77 20.62 C-3.9 20.61 -5.03 20.6 -6.19 20.59 C-7.3 20.6 -8.42 20.61 -9.57 20.62 C-17.04 20.59 -22.5 20.15 -28.31 15.09 C-30.49 11.09 -30.83 7.67 -29.88 3.21 C-22.9 -5.84 -9.55 -4.43 0 0 Z " fill="#000000" transform="translate(137.875,385.7890625)"/>
</svg>
