<?xml version="1.0" encoding="UTF-8"?>
<!-- Generator: visioncortex VTracer 0.6.3 -->
<svg version="1.1" xmlns="http://www.w3.org/2000/svg" width="735" height="1280">
<path d="M0 0 C6.44 5.01 12.84 10.72 17.84 17.2 C21.16 19.85 24.11 19.54 28.16 19.38 C29.79 19.35 31.42 19.32 33.05 19.29 C33.91 19.27 34.77 19.24 35.66 19.22 C49.46 18.87 62.99 19.09 76.71 20.59 C90.82 22.09 104.84 22.4 119.02 22.4 C120.03 22.41 121.03 22.41 122.06 22.41 C135.13 22.44 147.96 21.75 160.96 20.32 C171.8 19.2 182.69 18.96 193.59 18.84 C194.67 18.82 195.75 18.8 196.86 18.77 C203.27 18.75 208.68 19.48 214.76 21.54 C217.61 22.18 219.42 21.92 222.21 21.09 C224.18 19.53 224.18 19.53 225.84 17.59 C228.09 15.1 228.95 14.18 232.21 13.09 C233.88 13.09 235.54 13.09 237.21 13.09 C243.42 12.65 248.06 10.53 253.52 7.78 C264.23 2.39 275.1 -1.41 287.21 -1.91 C288.16 -1.96 289.11 -2.01 290.08 -2.07 C308.16 -2.6 325.42 2.03 339.21 14.09 C343.64 19.03 345.24 23.36 345.73 29.96 C344.86 33.51 343.05 34.85 340.21 37.09 C337.04 38.42 333.79 39.29 330.46 40.15 C320.44 42.64 320.44 42.64 311.21 47.09 C309.94 49.57 309.94 49.57 310.02 52.34 C309.39 58.35 307.47 61.84 303.21 66.09 C301.26 67.65 299.38 68.85 297.21 70.09 C298.28 72.81 299.16 74.05 301.52 75.85 C314.25 86.47 321.34 107.05 323.74 122.93 C324.85 126.12 324.85 126.12 327.03 127.1 C329.4 127.9 331.77 128.51 334.21 129.09 C335.69 129.53 337.17 129.99 338.65 130.45 C339.39 130.67 340.13 130.9 340.89 131.13 C368.39 139.55 391.33 152.22 412.21 172.09 C412.85 172.67 413.48 173.25 414.13 173.85 C446.31 204.27 473.96 255.98 475.55 300.49 C475.93 327.71 475.93 327.71 467.21 338.59 C459.51 346.32 450.48 348.78 439.77 349.15 C421.44 348.83 406.23 342.08 391.21 332.09 C390.62 331.7 390.03 331.31 389.42 330.9 C380.12 324.64 371.53 317.61 363.21 310.09 C362.34 309.3 361.47 308.51 360.57 307.7 C344.34 292.27 332.56 272.2 321.21 253.09 C320.15 260.15 319.17 267.2 318.42 274.3 C316.08 296.23 311.99 317.57 307.21 339.09 C306.87 340.63 306.53 342.17 306.19 343.71 C302.05 362.44 297.33 380.89 291.21 399.09 C290.95 399.88 290.68 400.67 290.41 401.48 C284.88 417.68 276.95 435.6 266.15 449.03 C264.09 452.28 263.98 453.38 264.64 457.05 C265.79 461.15 267.81 464.85 269.73 468.63 C275.15 479.66 279.59 490.94 283.84 502.46 C284.4 503.99 284.4 503.99 284.98 505.55 C300.38 547.02 314.89 588.55 323.21 632.09 C323.4 633.08 323.59 634.07 323.79 635.08 C338.03 711.28 343.94 805.63 311.55 877.83 C309.99 881.63 310.05 883.19 311.21 887.09 C312.76 890.58 314.49 893.96 316.23 897.36 C323.4 913.4 325.69 931.26 328.77 948.4 C329.48 952.28 330.19 956.16 330.9 960.03 C331.36 962.54 331.81 965.06 332.27 967.57 C333.75 975.69 335.31 983.79 336.98 991.88 C338.17 997.68 339.34 1003.52 339.4 1009.46 C339.41 1010.13 339.43 1010.8 339.44 1011.49 C339.22 1013.94 338.7 1015.98 338.05 1018.35 C336.89 1023.42 337.88 1026.74 339.65 1031.53 C341.88 1038.15 343.64 1044.75 345 1051.6 C345.15 1052.35 345.3 1053.1 345.45 1053.87 C346.18 1057.62 346.89 1061.37 347.59 1065.13 C349.63 1075.92 352.19 1085.04 360.66 1092.52 C362.4 1094.28 363.31 1095.79 364.21 1098.09 C364.12 1102.76 363.28 1106.08 360.03 1109.55 C350.1 1117.95 336.75 1123.03 323.68 1122.48 C318.44 1121.66 314.72 1119.51 310.9 1115.9 C306.01 1107.75 304.96 1098.05 303.34 1088.82 C302.59 1084.59 301.81 1080.35 301.04 1076.12 C300.16 1071.3 299.28 1066.47 298.42 1061.64 C297.71 1057.7 296.96 1053.77 296.21 1049.84 C296.01 1048.69 295.81 1047.54 295.6 1046.35 C294.25 1039.46 292.13 1034.73 287.73 1029.22 C286.23 1027.11 285.64 1025.62 285.21 1023.09 C284.55 1023.09 283.89 1023.09 283.21 1023.09 C283.23 1024.15 283.26 1025.21 283.28 1026.3 C283.99 1074.34 283.99 1074.34 275.52 1089.09 C269.94 1099.22 273.56 1115.06 274.64 1126.24 C274.79 1127.84 274.94 1129.43 275.09 1131.03 C275.4 1134.34 275.72 1137.66 276.04 1140.97 C276.45 1145.2 276.84 1149.43 277.23 1153.66 C277.53 1156.94 277.84 1160.22 278.16 1163.51 C278.31 1165.06 278.46 1166.62 278.6 1168.18 C279.24 1181.44 279.24 1181.44 285.7 1192.38 C286.63 1192.96 287.56 1193.55 288.52 1194.15 C294.49 1198.2 299.47 1201.98 301.77 1209.03 C302.61 1213.67 301.75 1217.14 299.21 1221.09 C293.86 1227.25 287.95 1230.73 280.21 1233.09 C279.55 1233.31 278.89 1233.54 278.21 1233.77 C266.11 1237.22 249.95 1236.48 238.74 1230.85 C233.54 1227.75 233.54 1227.75 232.21 1225.09 C232.07 1222.6 232 1220.14 231.96 1217.65 C231.94 1216.49 231.94 1216.49 231.92 1215.31 C231.88 1213.63 231.85 1211.95 231.83 1210.27 C231.78 1207.56 231.73 1204.86 231.67 1202.16 C231.52 1194.47 231.37 1186.78 231.24 1179.09 C230.89 1159.01 230.36 1139 228.7 1118.98 C228.64 1118.19 228.57 1117.39 228.5 1116.57 C228.01 1108.21 228.01 1108.21 226.21 1100.09 C224.73 1098.85 224.73 1098.85 222.96 1097.65 C205.45 1082.71 207.29 1042.15 205.57 1020.9 C204.8 1010.97 204.38 1001.04 204.21 991.09 C203.53 991.38 202.86 991.66 202.16 991.96 C128.56 1022.92 52.55 1035.96 -23.79 1008.09 C-23.78 1008.96 -23.77 1009.82 -23.76 1010.72 C-23.58 1045.87 -23.38 1105.48 -42.98 1135.94 C-47.03 1142.31 -47.65 1147.83 -47.9 1155.27 C-47.98 1157.02 -47.98 1157.02 -48.07 1158.8 C-48.25 1162.52 -48.39 1166.24 -48.54 1169.96 C-48.65 1172.39 -48.76 1174.82 -48.88 1177.25 C-49.16 1183.3 -49.41 1189.35 -49.64 1195.4 C-49.79 1199.21 -49.96 1203.02 -50.12 1206.83 C-50.23 1209.29 -50.33 1211.76 -50.43 1214.22 C-50.48 1215.37 -50.53 1216.52 -50.59 1217.71 C-50.63 1218.77 -50.67 1219.82 -50.71 1220.91 C-50.77 1222.31 -50.77 1222.31 -50.83 1223.73 C-50.9 1226.24 -50.9 1226.24 -49.79 1229.09 C-48.02 1230.47 -48.02 1230.47 -45.91 1231.78 C-42.28 1234.43 -40.34 1236.61 -39.06 1240.94 C-38.41 1246.11 -39.85 1250.47 -42.41 1254.9 C-52.93 1264.59 -67.53 1262.52 -80.79 1262.09 C-88.79 1261.6 -99.9 1260.48 -105.5 1254.15 C-107.46 1251.01 -107.73 1248.81 -107.79 1245.09 C-106.22 1239.05 -104.26 1234.45 -98.79 1231.09 C-95.54 1229.41 -95.54 1229.41 -95.1 1226.34 C-94.8 1223.19 -94.74 1220.19 -94.84 1217.02 C-94.88 1215.84 -94.92 1214.66 -94.96 1213.44 C-95 1212.18 -95.05 1210.91 -95.09 1209.61 C-95.14 1208.27 -95.18 1206.94 -95.23 1205.6 C-95.32 1202.8 -95.41 1199.99 -95.51 1197.19 C-95.64 1193.66 -95.76 1190.12 -95.87 1186.59 C-96.11 1179.26 -96.38 1171.93 -96.66 1164.59 C-96.78 1161.43 -96.88 1158.27 -96.98 1155.11 C-97.04 1153.42 -97.11 1151.73 -97.17 1150.04 C-97.19 1149.31 -97.21 1148.59 -97.23 1147.84 C-97.45 1142.89 -98.72 1139.5 -100.79 1135.09 C-105.59 1112.34 -100.65 1087.26 -97.18 1064.64 C-96.07 1057.41 -95.01 1050.18 -93.94 1042.95 C-93.55 1040.36 -93.16 1037.78 -92.76 1035.19 C-91.23 1025.16 -90.23 1015.24 -89.79 1005.09 C-90.15 1005.86 -90.5 1006.62 -90.87 1007.41 C-92.23 1010.3 -93.59 1013.19 -94.96 1016.08 C-95.54 1017.32 -96.13 1018.56 -96.71 1019.8 C-101.14 1029.3 -105.58 1038.51 -113.59 1045.49 C-118.09 1049.83 -118.31 1054.71 -118.91 1060.71 C-119.06 1061.92 -119.21 1063.12 -119.36 1064.35 C-120.42 1073.36 -121.2 1082.41 -122.04 1091.44 C-122.14 1092.61 -122.25 1093.79 -122.37 1095 C-122.91 1100.94 -123.45 1106.88 -123.95 1112.83 C-124.15 1115.07 -124.35 1117.3 -124.54 1119.54 C-124.62 1120.55 -124.71 1121.57 -124.79 1122.62 C-125.43 1129.77 -126.19 1137.64 -130.62 1143.53 C-140.19 1151.08 -149.8 1151.28 -161.6 1151.34 C-162.63 1151.36 -163.66 1151.38 -164.72 1151.4 C-172.8 1151.44 -180.85 1150.76 -187.35 1145.53 C-190.46 1142.42 -191.01 1140.81 -191.23 1136.53 C-191.16 1130.4 -188.71 1126.64 -184.79 1122.09 C-184.29 1121.71 -183.78 1121.33 -183.26 1120.94 C-180.4 1118.64 -178.97 1117.04 -178.26 1113.37 C-178.08 1110.02 -178.06 1106.7 -178.1 1103.34 C-178.07 1100.89 -178.03 1098.45 -177.98 1096 C-177.95 1094.81 -177.93 1093.62 -177.91 1092.4 C-177.29 1074.96 -172.22 1056.17 -165.36 1040.21 C-164.3 1036.26 -165.65 1033.37 -167.35 1029.78 C-170.7 1021.2 -168.1 1013.34 -164.79 1005.09 C-163.37 1001.91 -161.87 998.78 -160.35 995.65 C-150.89 976.1 -148.03 957.59 -145.79 936.13 C-145.67 935.01 -145.56 933.9 -145.44 932.75 C-145.34 931.76 -145.23 930.76 -145.13 929.74 C-144.83 927.44 -144.37 925.33 -143.79 923.09 C-142.93 915.42 -145.65 910.54 -149.16 903.84 C-163.08 876.03 -171.85 845.75 -176.79 815.09 C-176.91 814.4 -177.02 813.71 -177.14 812.99 C-183.93 771.76 -174.86 729.12 -161.79 690.09 C-161.43 689.02 -161.08 687.95 -160.71 686.85 C-150.05 655.02 -136.28 624.33 -121.79 594.09 C-120.73 591.86 -119.67 589.63 -118.61 587.41 C-111.26 572.01 -103.66 556.73 -96.04 541.46 C-95.56 540.49 -95.07 539.52 -94.57 538.52 C-88.14 525.63 -81.56 512.82 -74.79 500.09 C-74.09 498.78 -73.4 497.46 -72.7 496.15 C-70.82 492.6 -68.93 489.06 -67.04 485.53 C-66.73 484.95 -66.42 484.36 -66.1 483.76 C-62.55 477.09 -58.96 470.57 -54.75 464.29 C-53.51 461.44 -53.86 460.02 -54.79 457.09 C-56.09 454.69 -57.44 452.36 -58.85 450.03 C-69.63 431.36 -75.17 410.76 -80.79 390.09 C-81.03 389.21 -81.27 388.33 -81.52 387.42 C-94.36 340.27 -102.11 294.41 -103.45 245.44 C-103.48 244.37 -103.51 243.31 -103.54 242.21 C-103.58 240.79 -103.58 240.79 -103.62 239.35 C-103.65 237.06 -103.65 237.06 -104.79 235.09 C-105.06 235.58 -105.34 236.07 -105.62 236.58 C-115.03 253.28 -125.08 268.73 -137.79 283.09 C-138.53 283.95 -139.26 284.81 -140.02 285.7 C-160.22 308.88 -189.7 332.06 -220.79 337.09 C-232.46 337.78 -242.73 337.36 -252.1 329.69 C-257.75 324.33 -259.75 317.96 -260.16 310.4 C-261.29 262.13 -235.35 215.22 -202.79 181.09 C-201.99 180.24 -201.19 179.39 -200.37 178.51 C-194.26 172.17 -187.63 166.76 -180.62 161.47 C-179.42 160.57 -178.23 159.66 -177.04 158.74 C-161.12 146.51 -143.72 136.6 -126.41 126.5 C-89.77 105.83 -89.77 105.83 -62.29 74.78 C-60.99 72.75 -59.69 70.72 -58.39 68.7 C-57.77 67.73 -57.15 66.77 -56.52 65.78 C-47.05 51.05 -47.05 51.05 -42.16 46.59 C-39.52 44.38 -39.52 44.38 -39.79 41.71 C-42.66 34.2 -55.42 28.96 -62.34 25.76 C-69.75 22.5 -77.46 19.93 -85.13 17.37 C-97.5 13.13 -97.5 13.13 -100.85 7.21 C-100.71 2.5 -98.57 -1 -95.6 -4.47 C-68.6 -27.87 -27.57 -18.89 0 0 Z M-91.22 -0.73 C-93.36 1.75 -93.79 3.86 -93.79 7.09 C-89.95 9.43 -87.39 10.45 -82.92 9.68 C-78.26 8.39 -73.98 6.15 -69.66 4.03 C-68.65 3.54 -67.63 3.04 -66.59 2.54 C-59.02 -1.18 -51.8 -5.22 -44.79 -9.91 C-58.29 -18.91 -80.4 -10.53 -91.22 -0.73 Z M-39.44 -6.86 C-40.19 -6.41 -40.94 -5.96 -41.71 -5.51 C-42.52 -5.02 -43.33 -4.54 -44.16 -4.04 C-52.12 0.67 -60.22 4.92 -68.55 8.92 C-69.35 9.3 -70.16 9.69 -70.98 10.09 C-71.7 10.43 -72.41 10.77 -73.14 11.12 C-74.97 11.99 -74.97 11.99 -75.79 14.09 C-74.94 14.45 -74.94 14.45 -74.08 14.81 C-71.52 15.88 -68.97 16.95 -66.41 18.03 C-65.52 18.4 -64.64 18.77 -63.72 19.16 C-62.87 19.52 -62.02 19.87 -61.14 20.24 C-60.36 20.57 -59.57 20.9 -58.76 21.24 C-57.42 21.82 -56.09 22.44 -54.79 23.09 C-37.69 23.54 -17.04 17.59 -2.79 8.09 C-4.12 4.91 -5.24 3.48 -8.28 1.87 C-8.98 1.5 -9.68 1.12 -10.4 0.74 C-11.15 0.36 -11.89 -0.02 -12.66 -0.41 C-13.42 -0.8 -14.18 -1.2 -14.97 -1.61 C-27.01 -8.34 -27.01 -8.34 -39.44 -6.86 Z M277.84 5.59 C277.1 5.73 276.36 5.88 275.61 6.02 C273.81 6.37 272.01 6.73 270.21 7.09 C269.89 10.07 269.89 10.07 271.6 11.74 C272.24 12.33 272.88 12.92 273.54 13.52 C274.23 14.17 274.93 14.82 275.65 15.49 C276.39 16.16 277.14 16.83 277.9 17.53 C278.62 18.2 279.34 18.86 280.08 19.55 C287.05 26.16 287.05 26.16 295.21 31.09 C300.27 33.53 304.03 36.41 307.21 41.09 C308.67 40.67 310.13 40.22 311.59 39.78 C312.4 39.53 313.21 39.29 314.05 39.04 C316.54 38.18 316.54 38.18 318.21 35.09 C317.56 34.34 316.9 33.58 316.23 32.81 C310.23 25.85 304.58 18.73 299.18 11.3 C298.71 10.65 298.23 10 297.74 9.33 C297.33 8.75 296.91 8.17 296.48 7.58 C294.4 5.13 292.74 4.13 289.55 3.87 C285.56 4.13 281.75 4.8 277.84 5.59 Z M302.21 5.09 C303.51 7.83 304.94 10.24 306.75 12.66 C307.24 13.33 307.74 13.99 308.25 14.68 C310.39 17.51 312.55 20.34 314.73 23.15 C316 24.81 317.23 26.49 318.46 28.18 C321.7 32.54 321.7 32.54 326.52 34.47 C330.68 34.13 336.17 33.13 339.21 30.09 C339.21 24.25 337.35 21.2 333.35 17.01 C324.95 9.47 313.56 4.65 302.21 5.09 Z M253.21 14.09 C253.21 18.8 253.78 19.1 256.96 22.28 C260.95 26.53 263.25 30.63 265.21 36.09 C269.12 35.28 271.11 33.6 274.21 31.09 C276.19 30.05 278.18 29.03 280.21 28.09 C278.68 24.33 276.42 22.24 273.4 19.59 C272.55 18.84 271.69 18.08 270.82 17.31 C269.96 16.58 269.1 15.84 268.21 15.09 C266.94 13.96 266.94 13.96 265.64 12.81 C260.99 9.51 257.73 11.63 253.21 14.09 Z M-6.54 15.78 C-18.14 21.43 -29.97 25.27 -42.79 27.09 C-43.1 30.1 -43.1 30.1 -41.29 31.95 C-40.61 32.57 -39.93 33.2 -39.23 33.84 C-38.57 34.47 -37.9 35.11 -37.22 35.76 C-33.68 37.7 -31.66 37.07 -27.79 36.09 C-25.2 35 -22.75 33.69 -20.29 32.34 C-10.26 27.09 0.15 23.57 11.21 21.09 C10.38 16.82 8.56 14.89 5.21 12.09 C0.5 12.09 -2.45 13.71 -6.54 15.78 Z M229.21 22.09 C227.03 24.8 226.28 26.73 225.65 30.15 C226.8 38.19 230.91 45.9 237.21 51.09 C239.88 50.07 242.35 49.01 244.84 47.59 C249.49 45.52 254.2 44.85 259.21 44.09 C260.77 39.4 258.92 35.59 257.21 31.09 C254.1 25.48 250.14 21.6 244.21 19.09 C238.7 18.4 233.55 18.27 229.21 22.09 Z M-40.23 52.53 C-45.28 58.56 -49.3 65.43 -53.5 72.07 C-58.57 80.05 -63.97 87.74 -69.6 95.34 C-86.33 117.94 -96.29 135.95 -97.34 164.74 C-97.39 165.87 -97.43 167 -97.47 168.17 C-97.89 180.41 -97.94 192.65 -97.92 204.9 C-97.91 208.68 -97.92 212.46 -97.93 216.25 C-97.93 228.9 -97.78 241.48 -96.79 254.09 C-94.54 251.16 -92.63 248.16 -90.78 244.96 C-86.42 237.41 -81.63 230.61 -75.79 224.09 C-75.17 223.37 -74.54 222.66 -73.9 221.92 C-63.55 210.71 -47.76 202.86 -32.45 201.95 C-12.3 201.19 7.52 202.65 23.46 216.34 C42.79 234.96 50.78 261.66 51.57 288.06 C51.8 314.59 44.37 340.75 38.24 366.37 C34.93 380.22 31.85 393.94 30.21 408.09 C30.12 408.84 30.03 409.59 29.93 410.36 C26.67 438.94 28.23 469.5 46.5 493.04 C58.47 506.96 75.79 515.2 94.05 516.96 C111.77 518.02 132.14 515.98 146.16 504.02 C161.32 489.78 166.9 471.63 169.72 451.51 C169.85 450.61 169.98 449.71 170.11 448.78 C171.59 437.86 172.45 426.89 173.27 415.9 C173.36 414.8 173.44 413.71 173.53 412.57 C175.6 385.53 176.93 358.48 177.65 331.38 C178.35 305.33 179.85 279 191.21 255.09 C191.5 254.47 191.8 253.85 192.1 253.22 C200.74 235.26 211.88 221.16 231.21 214.09 C248.33 208.58 266.62 208.8 283.21 216.09 C296.19 222.79 304.9 233.41 313.21 245.09 C313.87 244.76 314.53 244.43 315.21 244.09 C316.52 236.4 316.31 228.69 316.24 220.91 C316.23 219.52 316.23 218.14 316.22 216.76 C316.2 210.95 316.16 205.14 316.11 199.33 C315.99 182.72 316.21 166.29 317.73 149.73 C320.1 123.74 315.18 102.35 299.18 81.31 C296.47 78.25 293.7 76.2 290.21 74.09 C289.55 74.42 288.89 74.75 288.21 75.09 C288.61 75.49 289.01 75.89 289.42 76.3 C294.06 81.28 297 86.3 297.3 93.23 C296.93 98.12 295.33 101.38 292.21 105.09 C287.88 108.73 283.84 110.19 278.21 110.09 C272.62 109.41 268.78 107.41 264.21 104.09 C262.89 103.4 261.56 102.73 260.21 102.09 C259.99 102.75 259.77 103.42 259.55 104.1 C257.11 110.88 254.82 114.79 248.21 118.09 C241.08 118.82 235.09 118.43 229.21 114.09 C225.03 110.19 222.43 105.9 221.98 100.15 C221.99 99.14 222.01 98.13 222.02 97.09 C222.03 96.08 222.04 95.07 222.04 94.03 C222.2 91.28 222.6 88.76 223.21 86.09 C222.35 86.12 221.5 86.16 220.61 86.2 C208.7 86.48 208.7 86.48 203.21 83.09 C198.8 78.68 197.39 74.36 196.9 68.21 C197.09 61.68 199.51 55.66 204.21 51.09 C210.35 46.69 216.84 46.34 224.21 46.09 C224.07 45.38 223.92 44.67 223.77 43.94 C223.4 42.08 223.08 40.21 222.81 38.34 C221.8 32.6 221.8 32.6 217.96 28.52 C200.46 21.47 179.26 24.92 160.9 26.53 C132.9 28.95 105.9 29.08 77.88 26.51 C37.63 22.92 -9.98 20.64 -40.23 52.53 Z M268.21 43.31 C267.01 45.05 267.01 45.05 267.4 47.12 C268.24 49.41 268.24 49.41 270.65 52.15 C274.04 56.65 274.55 61.62 275.21 67.09 C284.03 67.71 290.87 67.36 298.21 62.09 C301.08 59.38 304.06 56.3 304.34 52.21 C304 46.25 302.27 42.99 298.09 38.75 C292.99 34.23 288.48 33.53 281.82 33.75 C275.7 34.55 272.16 38.96 268.21 43.31 Z M242.21 56.09 C240.47 59.9 239.74 63.23 240.78 67.34 C242.3 70.81 243.8 72.78 246.84 75.09 C252.8 76.86 257.96 77.15 263.65 74.46 C267.34 71.04 268.92 68.07 269.65 63.09 C269.08 59.18 267.71 57.13 265.21 54.09 C257.94 48.83 247.86 48.8 242.21 56.09 Z M204.9 58.21 C202.17 62.86 201.54 67.9 202.65 73.19 C203.72 76.06 205.08 77.97 207.34 80.03 C215.09 82.89 221.17 80.67 228.51 77.48 C229.4 77.02 230.29 76.56 231.21 76.09 C231.98 75.71 232.76 75.33 233.55 74.93 C236.21 71.99 235.63 68.65 235.46 64.9 C235.44 64.15 235.42 63.4 235.41 62.63 C235.36 60.78 235.29 58.94 235.21 57.09 C233.94 56.44 232.67 55.8 231.4 55.15 C230.69 54.79 229.98 54.43 229.25 54.06 C220.01 49.66 212.17 51.53 204.9 58.21 Z M265.21 79.09 C263.24 80.15 261.25 81.17 259.21 82.09 C259.55 89.85 263.26 96.14 268.71 101.59 C273.66 104.56 277.65 105.54 283.31 104.64 C286.24 103.79 288.09 102.22 290.21 100.09 C292.28 95.95 291.93 90.45 290.6 86.09 C287.8 80.57 282.91 76.46 277.12 74.32 C271.43 73.15 269.18 75.3 265.21 79.09 Z M233.19 82.04 C228.86 86.53 227.01 90.92 226.71 97.15 C226.95 102.23 228.08 105.07 231.21 109.09 C235.36 112.72 239.67 113.79 245.12 113.55 C248.55 112.79 250.15 110.8 252.21 108.09 C254.09 104.34 253.48 99.84 253.52 95.71 C253.57 94.28 253.57 94.28 253.61 92.81 C253.75 87.35 253.75 87.35 251.45 82.57 C249.36 81.19 247.34 79.92 245.09 78.84 C244.06 78.34 244.06 78.34 243.02 77.82 C238.56 76.01 236.38 79.14 233.19 82.04 Z M-89.79 111.09 C-90.29 111.41 -90.79 111.72 -91.3 112.05 C-101.95 118.74 -112.68 125.23 -123.6 131.46 C-146.89 144.81 -170.18 158.56 -189.79 177.09 C-191.18 178.3 -192.58 179.51 -193.98 180.71 C-225.36 208.29 -251.09 255.52 -253.95 297.5 C-254.07 300.03 -254.13 302.55 -254.16 305.09 C-254.18 305.87 -254.19 306.64 -254.21 307.45 C-254.15 313.62 -253.05 319.2 -249.18 324.15 C-248.62 324.6 -248.05 325.06 -247.48 325.53 C-246.65 326.24 -246.65 326.24 -245.8 326.96 C-243.19 328.43 -240.74 328.73 -237.79 329.09 C-237.23 328.18 -236.68 327.28 -236.1 326.34 C-224.1 307.04 -208.66 297.67 -189.56 285.96 C-173.11 275.8 -157.94 264.27 -143.79 251.09 C-142.98 250.34 -142.16 249.6 -141.33 248.83 C-117.44 226.03 -103.15 194.29 -102.19 161.54 C-101.64 144.73 -98.61 129.32 -89.61 114.8 C-89.34 114.23 -89.07 113.67 -88.79 113.09 C-89.12 112.43 -89.45 111.77 -89.79 111.09 Z M325.21 134.09 C319.19 146.13 321.93 166.24 322.01 179.32 C322.02 182.81 322.03 186.3 322.03 189.79 C322.03 192.04 322.04 194.29 322.04 196.54 C322.04 197.57 322.05 198.6 322.05 199.65 C321.51 211.09 321.51 211.09 325.96 220.9 C326.59 221.55 327.23 222.2 327.88 222.87 C328.65 223.6 329.42 224.34 330.21 225.09 C331.63 226.47 331.63 226.47 333.07 227.87 C344.15 238.46 356.29 247.48 368.73 256.39 C378.42 263.35 387.49 270.94 396.21 279.09 C397.15 279.96 398.08 280.83 399.05 281.73 C411.54 293.62 421.16 307.94 431.19 321.89 C433.87 325.63 436.58 329.34 439.34 333.03 C440.02 333.94 440.7 334.86 441.41 335.8 C444.56 340.04 444.56 340.04 449.4 341.59 C455.38 340.81 459.36 337.99 463.52 333.71 C472.65 319.52 470.43 298.56 467.25 282.62 C464.14 268.52 459.55 255.05 453.21 242.09 C452.62 240.88 452.62 240.88 452.02 239.65 C439.68 214.66 423.92 192.77 404.21 173.09 C403.71 172.54 403.2 171.99 402.68 171.42 C385.96 153.4 360.82 143 337.77 136.09 C337.08 135.88 336.39 135.67 335.68 135.46 C332.11 134.45 328.93 133.86 325.21 134.09 Z M-104.79 202.09 C-105.18 202.95 -105.18 202.95 -105.58 203.83 C-112.78 219.54 -120.5 232.9 -131.79 246.09 C-132.47 246.9 -133.15 247.7 -133.86 248.53 C-138.17 253.52 -142.71 257.89 -147.79 262.09 C-148.32 262.54 -148.86 263 -149.41 263.46 C-162.7 274.71 -176.81 284.08 -191.66 293.12 C-215.14 306.61 -215.14 306.61 -230.79 328.09 C-230.79 329.08 -230.79 330.07 -230.79 331.09 C-206.4 332.8 -182.47 316.19 -164.79 301.09 C-164.04 300.45 -163.29 299.81 -162.52 299.16 C-139.24 278.73 -122.22 255.4 -107.79 228.09 C-107.31 227.21 -106.84 226.34 -106.35 225.44 C-102.78 217.97 -103.43 210.17 -103.79 202.09 C-104.12 202.09 -104.45 202.09 -104.79 202.09 Z M-76.23 231.87 C-90.91 250.45 -97.39 269.1 -94.7 292.76 C-94.61 293.51 -94.52 294.25 -94.43 295.02 C-94.17 297.23 -93.93 299.43 -93.7 301.64 C-91.28 323.49 -86.35 344.87 -80.87 366.12 C-79.98 369.59 -79.1 373.05 -78.22 376.52 C-75.26 388.16 -72.1 399.72 -68.59 411.21 C-68.27 412.26 -67.94 413.31 -67.61 414.4 C-64.73 423.66 -61.15 432.44 -56.79 441.09 C-56.45 441.77 -56.12 442.44 -55.77 443.14 C-43.05 468.38 -20.47 491.21 1.21 509.09 C2.03 509.78 2.03 509.78 2.86 510.47 C32.64 535.51 70.78 558.92 111.21 556.09 C117.32 555.22 123.27 553.71 129.21 552.09 C129.91 551.9 130.61 551.71 131.33 551.52 C151.85 545.83 172.2 535.89 189.21 523.09 C189.77 522.68 190.33 522.27 190.9 521.85 C205.19 511.36 218.19 498.95 229.86 485.63 C231.31 483.98 232.77 482.35 234.24 480.72 C284.27 424.64 304.12 351.62 311.89 278.06 C312.18 275.41 312.5 272.77 312.84 270.12 C314.13 258.8 311.36 250.86 304.4 241.9 C303.01 240.29 301.62 238.68 300.21 237.09 C299.57 236.31 298.93 235.52 298.27 234.71 C289.69 224.46 279.39 218.43 266.21 216.09 C247.1 214.65 230.41 216.89 214.86 228.91 C191.82 249.7 185.01 285.23 183.33 314.64 C182.92 322.81 182.72 330.98 182.45 339.16 C181.63 364.36 180.35 389.51 178.4 414.66 C178.22 417.01 178.04 419.36 177.86 421.72 C173.29 482.03 173.29 482.03 153.21 505.09 C137.56 518.11 116.44 523.78 96.21 522.09 C75.71 519.87 55.55 512.65 42.21 496.09 C21.31 466.55 20.79 430.53 26.44 395.95 C29.61 378.14 34.08 360.52 38.31 342.94 C38.61 341.67 38.92 340.39 39.24 339.08 C39.81 336.68 40.39 334.29 40.98 331.89 C48.98 298.61 49.17 263.21 31.21 233.09 C22.9 220.22 11.74 212.56 -2.95 208.67 C-31.73 202.8 -56.66 209.57 -76.23 231.87 Z M323.21 227.09 C321.44 228.86 321.71 231.05 321.52 233.46 C321.68 249.61 335.23 265.43 344.21 278.09 C344.71 278.79 345.21 279.5 345.72 280.22 C355.43 293.8 365.85 305.97 379.21 316.09 C379.77 316.52 380.32 316.95 380.89 317.39 C396.13 329.18 414.4 341.76 434.21 343.09 C436.93 342.68 436.93 342.68 439.21 342.09 C438.68 341.39 438.68 341.39 438.13 340.67 C434.77 336.23 431.53 331.72 428.37 327.14 C418.16 312.36 407.69 298.04 395.21 285.09 C394.6 284.44 393.99 283.79 393.36 283.12 C382.68 272 369.49 263.19 357.12 254.08 C350.44 249.14 343.9 244.12 337.59 238.71 C337.03 238.24 336.47 237.76 335.9 237.27 C333.13 234.86 330.5 232.38 327.94 229.74 C325.61 226.86 325.61 226.86 323.21 227.09 Z M257.21 461.09 C253.31 465.47 249.52 469.91 245.84 474.46 C242.16 478.98 238.37 483.34 234.45 487.63 C232.98 489.25 231.52 490.88 230.07 492.52 C220.83 502.95 211.19 512.49 200.21 521.09 C199.24 521.89 198.27 522.69 197.27 523.52 C188.57 530.59 179.17 535.98 169.21 541.09 C168.44 541.49 167.67 541.88 166.87 542.29 C134.38 558.75 102.88 566.29 67.42 554.71 C57.6 551.32 48.3 547.12 39.21 542.09 C38.59 541.75 37.97 541.4 37.33 541.05 C26.97 535.27 17.54 528.41 8.21 521.09 C7.22 520.32 6.23 519.54 5.21 518.75 C-6.04 509.73 -16.31 499.67 -26.54 489.53 C-27.41 488.67 -28.29 487.8 -29.19 486.92 C-34.47 481.65 -39.29 476.19 -43.89 470.32 C-45.77 467.9 -45.77 467.9 -48.79 466.09 C-54.61 475.23 -59.77 484.56 -64.66 494.21 C-65.72 496.28 -66.78 498.35 -67.84 500.42 C-68.54 501.78 -69.23 503.14 -69.92 504.5 C-72.59 509.71 -75.3 514.91 -78.04 520.09 C-78.82 521.57 -79.6 523.05 -80.38 524.53 C-80.77 525.27 -81.16 526 -81.56 526.76 C-95.07 552.36 -108.11 578.14 -120.14 604.48 C-121.25 606.91 -122.37 609.34 -123.49 611.77 C-147.47 663.55 -171.18 719.23 -172.79 777.09 C-172.83 778.16 -172.87 779.22 -172.91 780.32 C-174.06 837.95 -152.78 902.38 -113.92 945.14 C-94.24 965.58 -67.84 979.51 -42.79 992.09 C-41.82 992.58 -40.85 993.07 -39.84 993.58 C-19.43 1003.82 1.37 1011.67 23.9 1015.78 C24.55 1015.9 25.2 1016.02 25.88 1016.14 C92.78 1027.57 175.32 1006.84 230.61 968.05 C247.97 955.5 264.03 941 277.21 924.09 C277.92 923.21 278.62 922.34 279.35 921.43 C308.61 884.03 325.19 833.42 326.6 786.13 C326.64 784.87 326.64 784.87 326.68 783.58 C329.6 684.56 312 594.46 277.34 502.03 C276.99 501.11 276.65 500.19 276.3 499.24 C272.65 489.46 268.78 479.82 264.39 470.34 C264.02 469.53 263.65 468.71 263.26 467.87 C262.91 467.12 262.55 466.38 262.19 465.61 C261.72 464.62 261.72 464.62 261.25 463.62 C260.21 461.75 260.21 461.75 257.21 461.09 Z M305.21 891.09 C304.43 892.21 303.69 893.37 302.98 894.54 C302.3 895.64 302.3 895.64 301.62 896.76 C299.84 899.7 298.08 902.64 296.32 905.59 C291.86 913 287.22 920.08 281.89 926.9 C277.05 933.21 279.22 942.23 280.09 949.71 C280.89 957.07 281.34 964.4 281.61 971.79 C281.65 972.66 281.68 973.52 281.72 974.41 C282 981.56 282 981.56 282.09 984.98 C282.49 999.81 284.05 1017.48 294.86 1028.82 C295.31 1029.24 295.75 1029.66 296.21 1030.09 C299.78 1029.01 301.74 1027.59 304.27 1024.96 C306.72 1022.72 307.83 1022.12 311.19 1021.88 C313.31 1021.98 315.43 1022.08 317.55 1022.2 C320.45 1022.39 320.45 1022.39 322.46 1019.71 C323.04 1018.85 323.62 1017.98 324.21 1017.09 C326.87 1016.06 329.38 1015.61 332.21 1015.09 C333.07 1001.11 330.43 988.22 327.59 974.59 C326.89 971.17 326.2 967.76 325.5 964.34 C325.04 962.08 324.58 959.82 324.12 957.57 C322.81 951.15 321.56 944.72 320.42 938.27 C320.29 937.56 320.17 936.84 320.04 936.1 C319.79 934.73 319.55 933.36 319.31 931.99 C316.74 917.57 313.81 903.75 306.21 891.09 C305.88 891.09 305.55 891.09 305.21 891.09 Z M-137.79 926.09 C-139.91 933.35 -140.5 940.58 -141.16 948.09 C-142.85 965.48 -146.51 980 -154.04 995.82 C-161.81 1010.73 -161.81 1010.73 -161.87 1026.88 C-160.98 1029.01 -160.98 1029.01 -159.79 1030.09 C-157.87 1030.2 -155.96 1030.27 -154.04 1030.34 C-148.19 1030.78 -148.19 1030.78 -144.85 1033.4 C-143.83 1034.73 -143.83 1034.73 -142.79 1036.09 C-140.7 1038.59 -140.7 1038.59 -137.79 1040.09 C-135.2 1040 -132.72 1039.64 -130.16 1039.26 C-126.91 1039.03 -125.32 1040.15 -122.79 1042.09 C-121.47 1042.46 -120.13 1042.8 -118.79 1043.09 C-104.59 1029.21 -96.38 1007.45 -90.73 988.78 C-90.52 988.11 -90.32 987.45 -90.11 986.77 C-88.77 982.02 -88.31 977.97 -88.79 973.09 C-90.35 970.7 -90.35 970.7 -92.73 969.03 C-93.55 968.36 -94.38 967.7 -95.23 967.02 C-96.5 966.06 -96.5 966.06 -97.79 965.09 C-99.27 963.94 -100.75 962.8 -102.23 961.65 C-102.97 961.08 -103.71 960.52 -104.47 959.93 C-108.76 956.52 -112.78 952.83 -116.79 949.09 C-117.54 948.39 -118.29 947.69 -119.07 946.97 C-124.1 942.14 -128.38 936.95 -132.52 931.34 C-134.72 928.24 -134.72 928.24 -137.79 926.09 Z M269.65 940.48 C268.73 941.44 268.73 941.44 267.79 942.42 C267.1 943.13 266.41 943.84 265.7 944.58 C264.96 945.34 264.22 946.11 263.46 946.9 C256.15 954.35 248.63 960.94 240.21 967.09 C239.06 967.95 237.91 968.81 236.76 969.66 C230.05 974.61 223.15 979.08 215.92 983.22 C212.48 985.06 212.48 985.06 210.21 988.09 C209.29 999.72 210.98 1011.7 211.96 1023.28 C212.05 1024.35 212.14 1025.42 212.23 1026.52 C213.22 1062.61 213.22 1062.61 227.21 1094.09 C230.96 1093.71 234.21 1093.09 237.77 1091.84 C242.09 1090.9 243.41 1092.07 247.21 1094.09 C252.15 1094.09 253.93 1092.42 257.43 1089.15 C260.46 1087.35 263.55 1087.99 266.94 1088.4 C269.43 1088.33 269.43 1088.33 270.91 1085.94 C280.6 1064.66 277.59 1035.21 277.52 1012.4 C277.52 1010.51 277.52 1010.51 277.52 1008.58 C277.5 988.37 276.73 968.31 274.96 948.18 C274.87 947.13 274.87 947.13 274.78 946.06 C274.46 942.46 274.46 942.46 273.21 939.09 C271.11 938.87 271.11 938.87 269.65 940.48 Z M-81.79 978.09 C-81.83 978.96 -81.88 979.83 -81.93 980.72 C-82.1 984.09 -82.29 987.45 -82.48 990.82 C-82.56 992.25 -82.63 993.67 -82.71 995.1 C-83.91 1018.39 -87.48 1041.43 -90.91 1064.46 C-91.63 1069.26 -92.34 1074.06 -93.05 1078.86 C-93.21 1079.93 -93.37 1081 -93.53 1082.1 C-95.14 1092.99 -95.97 1103.7 -95.98 1114.71 C-95.99 1115.78 -96 1116.85 -96.01 1117.95 C-96.03 1124.11 -95.91 1130.23 -93.79 1136.09 C-93.13 1136.75 -92.47 1137.41 -91.79 1138.09 C-88.03 1137.88 -85.47 1137.53 -82.29 1135.46 C-78.74 1133.51 -76.66 1134.14 -72.79 1135.09 C-71.88 1135.6 -70.98 1136.12 -70.04 1136.64 C-66.11 1138.39 -63.44 1138.36 -59.16 1138.09 C-57.87 1138.03 -56.58 1137.97 -55.25 1137.9 C-51.76 1137.37 -51.76 1137.37 -49.58 1135.15 C-45.03 1127.37 -42.77 1119.03 -40.85 1110.28 C-40.6 1109.13 -40.35 1107.99 -40.09 1106.81 C-35.26 1083.95 -32.51 1060.38 -30.79 1037.09 C-30.73 1036.33 -30.68 1035.58 -30.62 1034.8 C-30.26 1029.9 -30 1025 -29.79 1020.09 C-29.72 1018.85 -29.66 1017.6 -29.59 1016.32 C-29.55 1015.17 -29.52 1014.02 -29.48 1012.84 C-29.44 1011.84 -29.4 1010.85 -29.36 1009.82 C-29.94 1006.14 -31.11 1004.68 -33.79 1002.09 C-36.25 1000.75 -38.6 999.62 -41.16 998.53 C-48.43 995.28 -55.44 991.68 -62.41 987.84 C-63.34 987.33 -64.26 986.83 -65.21 986.3 C-69.11 984.15 -72.98 981.98 -76.81 979.73 C-79.51 977.93 -79.51 977.93 -81.79 978.09 Z M321.21 1027.09 C318.06 1028.14 316.6 1028.21 313.4 1027.21 C309.46 1027.06 308.83 1027.91 305.96 1030.46 C304.96 1031.44 304.96 1031.44 303.95 1032.43 C302.21 1034.09 302.21 1034.09 300.21 1035.09 C299.99 1041.29 300.76 1046.77 302.11 1052.81 C302.3 1053.72 302.5 1054.62 302.7 1055.55 C303.11 1057.45 303.53 1059.35 303.95 1061.25 C304.58 1064.15 305.21 1067.04 305.84 1069.94 C306.24 1071.79 306.64 1073.65 307.05 1075.5 C307.33 1076.79 307.33 1076.79 307.61 1078.1 C309.17 1085.16 309.17 1085.16 311.21 1092.09 C313.23 1093.39 313.23 1093.39 315.64 1092.33 C317.14 1091.73 317.14 1091.73 318.66 1091.11 C319.76 1090.66 320.85 1090.22 321.98 1089.77 C323.13 1089.3 324.28 1088.83 325.46 1088.34 C327.16 1087.66 327.16 1087.66 328.89 1086.96 C334.11 1084.84 339.2 1082.65 344.21 1080.09 C339.69 1050.91 339.69 1050.91 330.21 1023.09 C325.41 1023.09 324.81 1024.2 321.21 1027.09 Z M-158.79 1039.09 C-160.24 1042.1 -161.22 1045.22 -162.23 1048.4 C-162.53 1049.32 -162.82 1050.25 -163.13 1051.2 C-168.4 1067.91 -171.98 1084.48 -171.91 1102.03 C-171.92 1103.08 -171.92 1104.13 -171.93 1105.22 C-171.92 1106.22 -171.92 1107.21 -171.92 1108.24 C-171.92 1109.15 -171.92 1110.06 -171.92 1110.99 C-172.02 1113.08 -172.02 1113.08 -170.79 1114.09 C-161.71 1114.52 -152.55 1113.96 -143.48 1113.59 C-141.63 1113.52 -141.63 1113.52 -139.75 1113.45 C-136.76 1113.33 -133.78 1113.21 -130.79 1113.09 C-130.61 1111.56 -130.61 1111.56 -130.43 1110 C-130.26 1108.56 -130.09 1107.13 -129.92 1105.7 C-129.79 1104.55 -129.79 1104.55 -129.65 1103.38 C-129.1 1098.73 -128.55 1094.07 -127.98 1089.42 C-127.63 1086.47 -127.28 1083.52 -126.93 1080.57 C-126.75 1079.08 -126.57 1077.58 -126.39 1076.09 C-123.33 1060.46 -123.33 1060.46 -126.17 1046.25 C-128.4 1044.65 -129.83 1044.89 -132.54 1045.09 C-137.57 1045.22 -140.45 1044.69 -144.79 1042.09 C-145.81 1040.51 -145.81 1040.51 -146.85 1038.9 C-148.52 1035.78 -148.52 1035.78 -151.79 1035.53 C-155.26 1036.18 -156.31 1036.59 -158.79 1039.09 Z M334.77 1089.71 C334.08 1089.98 333.39 1090.25 332.67 1090.52 C325.78 1093.2 318.98 1096.11 312.21 1099.09 C312.48 1105.14 313.14 1109.32 317.21 1114.09 C320.74 1116.86 324.93 1116.44 329.21 1116.09 C339.34 1114.79 349.75 1111.26 356.59 1103.34 C357.12 1102.6 357.66 1101.85 358.21 1101.09 C356.83 1096.94 354.96 1094.38 351.9 1091.28 C351.14 1090.49 350.38 1089.7 349.6 1088.88 C347.38 1086.94 347.38 1086.94 344.88 1086.66 C341.33 1087.23 338.11 1088.4 334.77 1089.71 Z M256.99 1096.87 C253.78 1099.07 250.03 1099.36 246.21 1099.09 C244.87 1098.43 243.54 1097.77 242.21 1097.09 C238.59 1097.08 238.59 1097.08 235.21 1098.09 C232.98 1100.78 233.23 1102.45 233.42 1105.97 C233.61 1107.53 233.81 1109.09 234.02 1110.65 C235.2 1120.48 235.82 1130.27 236.27 1140.15 C236.33 1141.44 236.33 1141.44 236.4 1142.75 C237.37 1163.18 237.83 1183.63 238.21 1204.09 C241.8 1203.46 243.7 1203.01 246.27 1200.4 C253.83 1193.58 263.43 1190.29 273.21 1188.09 C274.17 1184.22 274.19 1181 273.79 1177.04 C273.62 1175.22 273.62 1175.22 273.44 1173.35 C273.3 1172.02 273.16 1170.68 273.02 1169.34 C272.89 1167.94 272.75 1166.54 272.61 1165.15 C272.31 1162.11 272.01 1159.07 271.71 1156.03 C270.9 1148.06 270.13 1140.08 269.35 1132.09 C269.09 1129.46 268.83 1126.82 268.57 1124.19 C268.41 1122.53 268.24 1120.87 268.08 1119.2 C268 1118.41 267.92 1117.62 267.84 1116.8 C267.28 1111.06 266.83 1105.31 266.46 1099.55 C266.29 1096.96 266.29 1096.96 265.21 1094.09 C261.35 1091.8 259.89 1094.22 256.99 1096.87 Z M-158.41 1119.1 C-169.75 1118.95 -169.75 1118.95 -179.34 1124.35 C-182.67 1128.35 -184.58 1131.52 -185.29 1136.84 C-185.09 1140.07 -185.09 1140.07 -183.23 1141.9 C-176.27 1145.29 -169.72 1145.44 -162.1 1145.4 C-160.5 1145.39 -160.5 1145.39 -158.87 1145.39 C-146.17 1145.39 -146.17 1145.39 -135.16 1139.84 C-131.93 1133.38 -131.2 1127.23 -131.79 1120.09 C-133.39 1118.49 -135.1 1118.96 -137.32 1118.96 C-138.27 1118.95 -139.22 1118.95 -140.19 1118.95 C-144.39 1118.97 -148.58 1119 -152.78 1119.05 C-154.66 1119.08 -156.53 1119.09 -158.41 1119.1 Z M-85.6 1142.59 C-86.58 1143.05 -87.55 1143.52 -88.56 1144 C-89.29 1144.36 -90.03 1144.72 -90.79 1145.09 C-90.75 1146.79 -90.7 1148.49 -90.66 1150.19 C-90.62 1151.74 -90.59 1153.29 -90.55 1154.84 C-90.44 1159.24 -90.33 1163.65 -90.21 1168.05 C-89.99 1176.55 -89.78 1185.06 -89.62 1193.56 C-89.55 1197.15 -89.48 1200.74 -89.4 1204.32 C-89.37 1206.04 -89.34 1207.76 -89.31 1209.48 C-89.27 1211.87 -89.22 1214.27 -89.17 1216.67 C-89.16 1217.74 -89.16 1217.74 -89.14 1218.83 C-89.05 1222.45 -88.86 1223.99 -86.79 1227.09 C-83.88 1227.51 -83.88 1227.51 -80.47 1227.38 C-79.21 1227.37 -77.96 1227.36 -76.66 1227.35 C-75.34 1227.33 -74.02 1227.3 -72.66 1227.28 C-71.32 1227.26 -69.98 1227.25 -68.64 1227.24 C-65.36 1227.2 -62.07 1227.15 -58.79 1227.09 C-56.71 1221.88 -56.38 1217.15 -56.19 1211.62 C-56.15 1210.7 -56.11 1209.78 -56.07 1208.83 C-55.95 1205.9 -55.84 1202.96 -55.73 1200.03 C-55.65 1198.11 -55.57 1196.2 -55.49 1194.28 C-55.37 1191.42 -55.25 1188.55 -55.14 1185.69 C-54.84 1178.13 -54.49 1170.58 -54.11 1163.03 C-53.58 1153.56 -53.58 1153.56 -53.79 1144.09 C-54.28 1143.59 -54.28 1143.59 -54.79 1143.09 C-56.83 1143.1 -58.87 1143.15 -60.91 1143.21 C-66.54 1143.28 -69.84 1142.57 -74.79 1140.09 C-79.03 1139.63 -81.8 1140.76 -85.6 1142.59 Z M239.14 1213.4 C237.46 1216.45 237.58 1218.74 238.21 1222.09 C242.37 1227.08 246.98 1228.09 253.21 1229.09 C266.53 1230.18 280.11 1229.25 291.21 1221.09 C294.37 1218.09 295.14 1216.56 295.84 1212.21 C295.59 1208.05 294.05 1205.77 291.18 1202.83 C284.01 1196.2 284.01 1196.2 274.96 1193.34 C261.17 1194.63 247.66 1202.54 239.14 1213.4 Z M-99.66 1239.84 C-101.47 1243.46 -101.24 1246.06 -100.79 1250.09 C-96.57 1255.15 -88.7 1255.3 -82.54 1255.88 C-78.1 1256.22 -73.68 1256.31 -69.23 1256.34 C-68.35 1256.36 -67.46 1256.38 -66.56 1256.4 C-59.47 1256.44 -52.76 1255.63 -47.23 1250.9 C-45.33 1247.19 -44.69 1244.17 -45.79 1240.09 C-51.51 1233.97 -57.71 1232.41 -65.88 1231.98 C-84.16 1231.27 -84.16 1231.27 -99.66 1239.84 Z " fill="#000000" transform="translate(259.7890625,17.91015625)"/>
<path d="M0 0 C5.68 4.43 9.58 9 11.19 16.12 C11.58 22.87 7.85 28.1 3.7 33.09 C-3.57 40.77 -11.89 46.74 -21.94 50.25 C-22.93 50.25 -23.92 50.25 -24.94 50.25 C-22.9 57.34 -20.99 62.06 -14.81 66.5 C-9.27 69.41 -2.9 70.14 3.12 68.38 C11.29 64.76 17.11 56.38 22.06 49.25 C24.04 49.75 24.04 49.75 26.06 50.25 C24.92 59.13 17.55 66.28 11.02 71.91 C4.37 76.46 -3.22 76 -10.94 75.25 C-19.81 72.73 -25.33 66.71 -29.88 58.94 C-30.94 56.25 -30.94 56.25 -30.94 53.25 C-31.93 53.25 -32.92 53.25 -33.94 53.25 C-34.22 54.27 -34.22 54.27 -34.5 55.31 C-37.94 62.33 -43.8 66.43 -50.91 69.36 C-58.37 71.55 -65.43 71.34 -72.5 68.06 C-76.11 65.99 -78.88 63.97 -80.94 60.25 C-80.61 59.26 -80.28 58.27 -79.94 57.25 C-75.4 57.78 -72.65 59.67 -68.94 62.25 C-62.98 64.23 -56.29 64.27 -50.56 61.56 C-45.24 58.47 -42 54.51 -38.94 49.25 C-39.52 48.79 -40.1 48.33 -40.7 47.85 C-50.02 40.06 -57.92 28.31 -59.18 15.88 C-59.35 10.1 -58.92 6.76 -54.94 2.25 C-50.03 -2.78 -44.58 -4.7 -37.94 -6.75 C-37.32 -6.94 -36.71 -7.14 -36.07 -7.34 C-23.16 -9.82 -10.84 -7.34 0 0 Z " fill="#000000" transform="translate(386.9375,412.75)"/>
<path d="M0 0 C7.15 2.81 10.9 8.07 14.12 14.84 C18.03 24.43 18.04 34.5 15.12 44.38 C13.1 49.09 9.66 53.67 5 56 C0.07 56.81 -3.96 56.53 -8.19 53.75 C-16.72 46.43 -18.8 36.22 -19.77 25.57 C-19.96 22.69 -20.06 19.88 -20 17 C-20.6 16.69 -21.21 16.37 -21.83 16.05 C-30.46 11.43 -30.46 11.43 -33 8 C-33 6.68 -33 5.36 -33 4 C-29.6 2.87 -27.46 3.3 -24 4 C-14.63 4.83 -8.56 -1.2 0 0 Z " fill="#000000" transform="translate(237,238)"/>
<path d="M0 0 C0.67 1.74 0.67 1.74 1 4 C-0.11 6.07 -0.11 6.07 -1.75 8.12 C-2.28 8.81 -2.81 9.49 -3.36 10.2 C-5 12 -5 12 -8 14 C-8.35 15.95 -8.35 15.95 -8.15 18.18 C-8.11 19.44 -8.11 19.44 -8.06 20.73 C-8.02 21.62 -7.98 22.52 -7.94 23.44 C-7.75 31.38 -8.19 37.85 -12 45 C-12.32 45.62 -12.65 46.24 -12.98 46.88 C-15.06 50.4 -17.2 52.51 -21 54 C-25.25 54.72 -29.11 54.91 -33.06 53 C-39.28 48.27 -41.69 41.07 -42.88 33.56 C-43.51 24.48 -41.15 15.52 -36 8 C-32.24 4.17 -28.44 2.25 -23 2 C-22.01 2.33 -21.02 2.66 -20 3 C-14.16 3.5 -10.86 2.84 -5.86 -0.22 C-3.52 -1.2 -2.35 -0.83 0 0 Z " fill="#000000" transform="translate(541,249)"/>
<path d="M0 0 C3.69 3.57 6.58 6.75 7.18 12 C7.22 21.93 7.22 21.93 3.88 25.38 C-2.92 27.28 -10.43 27.08 -17.46 27.48 C-19.23 27.58 -21.01 27.69 -22.78 27.81 C-25.35 27.98 -27.92 28.13 -30.5 28.27 C-31.29 28.33 -32.08 28.39 -32.89 28.44 C-37.56 28.68 -40.42 28.32 -44.12 25.38 C-46.71 21.65 -46.34 18.4 -45.77 14.05 C-44.39 8.41 -41.6 4.11 -36.82 0.78 C-25.89 -5.04 -10.64 -8.11 0 0 Z M-34.75 6.82 C-39.32 11.75 -39.34 14.82 -39.12 21.38 C-36.56 22.66 -34.92 22.42 -32.06 22.3 C-31.04 22.25 -30.01 22.21 -28.95 22.16 C-27.87 22.11 -26.79 22.06 -25.68 22.01 C-24.64 21.96 -23.6 21.92 -22.52 21.88 C-17.35 21.64 -12.18 21.35 -7.02 20.97 C-6.15 20.9 -5.28 20.84 -4.38 20.77 C-1.85 20.49 -1.85 20.49 0.88 18.38 C1.44 14.19 1.15 11.91 -0.81 8.13 C-4.55 3.69 -7.49 2.29 -13.18 1.51 C-20.64 1.02 -28.72 2.08 -34.75 6.82 Z " fill="#000000" transform="translate(243.12109375,181.6171875)"/>
<path d="M0 0 C7.4 5.48 13.39 11.14 14.94 20.5 C15.26 24.99 14.24 28.06 12 32 C9.24 35.18 7.48 36.83 3.25 37.31 C-0.83 36.92 -2.71 35.4 -6 33 C-9.88 30.69 -13.51 29.61 -17.88 28.62 C-24.92 26.93 -30.14 24.99 -34.06 18.69 C-35.36 13.57 -35.57 9.71 -32.87 5.04 C-25.22 -4.88 -10.64 -5.82 0 0 Z M-27 7 C-28.81 10.35 -28.81 10.35 -29 14 C-27.34 18.31 -25.01 19.92 -21 22 C-18.56 22.69 -16.1 23.31 -13.62 23.88 C-9.25 24.93 -5.45 25.96 -1.88 28.81 C0.76 31.24 0.76 31.24 3.75 31.19 C6.21 30.09 6.21 30.09 7.94 27.5 C9.37 22.77 8.87 19.54 7 15 C3.49 9.34 -1.49 5.37 -7.91 3.42 C-15.13 1.97 -21.2 2.29 -27 7 Z " fill="#000000" transform="translate(545,193)"/>
</svg>
