<?xml version="1.0" encoding="UTF-8"?>
<!-- Generator: visioncortex VTracer 0.6.3 -->
<svg version="1.1" xmlns="http://www.w3.org/2000/svg" width="1280" height="1280">
<path d="M0 0 C1.04 0.31 1.04 0.31 2.09 0.63 C23.45 7.32 41.5 19.97 52 40 C61.88 60.41 62.41 85.02 58 107 C57.67 107.66 57.34 108.32 57 109 C57.6 109.07 58.19 109.15 58.81 109.23 C93.69 114.51 125.24 137.58 145.76 165.37 C151.13 172.88 155.63 180.88 160 189 C160.36 189.66 160.72 190.32 161.09 190.99 C170.58 208.51 177.29 227.29 183.09 246.3 C185.18 252.96 187.73 258.85 191.2 264.89 C202.7 285.07 205.35 311.93 200.04 334.42 C197.02 344.83 193.24 354.32 187.52 363.55 C186.21 365.66 185.07 367.76 184 370 C184.49 370.5 184.97 371 185.48 371.52 C211.71 399.51 230.92 435.99 237 474 C237.19 475.21 237.39 476.42 237.59 477.66 C238.12 482.08 237.96 486.44 237.83 490.88 C237.51 503.6 238.87 514.78 242.47 526.97 C243 529 243 529 243.37 532.39 C243.76 535.14 243.76 535.14 246.04 536.69 C247.32 537.34 247.32 537.34 248.62 538 C253.34 540.56 257.04 543.39 261 547 C264.06 545.79 267.09 544.54 270.12 543.27 C287.96 535.84 305.84 530.56 325 528 C325.92 527.87 326.84 527.74 327.79 527.6 C366.04 523.11 406.89 532.32 437.47 556.19 C438.59 557.08 439.69 557.99 440.79 558.9 C443.92 561.46 444.77 562 449 562 C450.96 560.56 450.96 560.56 452.88 558.56 C474.52 538.57 506.89 527.9 536 527 C536.71 526.97 537.42 526.95 538.15 526.92 C581.17 525.54 621.14 540.16 653 569 C657.69 573.4 661.99 577.98 666 583 C669.44 581.69 672.72 580.17 676.01 578.54 C692.65 570.39 710.11 567.6 728.56 567.69 C729.88 567.69 731.19 567.7 732.54 567.7 C769.67 568.16 804.53 580.86 832 606 C833.21 607.11 833.21 607.11 834.45 608.24 C847.81 621.01 856.55 636.27 864 653 C864.67 652.98 865.35 652.96 866.04 652.94 C884.76 652.43 899.89 653.83 917 662 C917.9 662.43 918.8 662.86 919.73 663.3 C940.4 673.88 956.36 690.98 964 713 C967.34 724 969.19 734.77 969.12 746.25 C969.12 747.08 969.12 747.9 969.12 748.75 C969.07 755.2 968.72 761.59 968 768 C968.62 768.33 969.23 768.66 969.87 769 C983.74 776.79 992.97 788.78 997.53 804.04 C997.76 805.01 997.76 805.01 998 806 C998.18 806.74 998.36 807.47 998.55 808.23 C1000.12 817.83 1000.53 828.66 995 837 C994.3 838.07 993.6 839.14 992.88 840.25 C982.9 849.79 970.15 850.49 957.11 850.24 C939.32 849.58 925.11 842.97 912 831 C911.49 830.41 910.99 829.82 910.47 829.22 C909.05 827.8 909.05 827.8 906.95 827.89 C906.2 828.01 905.46 828.13 904.69 828.25 C903.95 828.36 903.21 828.47 902.45 828.58 C900.72 828.88 898.99 829.19 897.26 829.51 C891.4 830.39 885.48 830.24 879.56 830.25 C878.89 830.25 878.21 830.25 877.51 830.25 C867.68 830.24 858.47 829.92 849 827 C847.81 826.64 846.62 826.27 845.39 825.9 C829.6 820.65 818.11 812.73 807.89 799.55 C806.11 797.74 806.11 797.74 803.71 798.07 C802.81 798.38 801.92 798.68 801 799 C799.83 799.37 798.66 799.74 797.46 800.12 C793.11 802.49 791.83 804.83 789.62 809.12 C785.36 816.78 780.47 824.01 772.44 828.12 C767.49 829.38 763.72 829.46 759.15 827.01 C755.04 823.95 753 820.35 750.79 815.77 C750.26 814.69 749.74 813.61 749.19 812.5 C748.8 811.67 748.41 810.85 748 810 C746.96 809.99 745.93 809.97 744.86 809.96 C704.56 809.34 704.56 809.34 688 806 C687.18 805.84 686.36 805.67 685.52 805.5 C669.92 802.2 656.21 796.39 644 786 C643.01 785.34 642.02 784.68 641 784 C640.12 784.54 639.24 785.09 638.33 785.64 C637.16 786.37 635.99 787.09 634.81 787.81 C633.95 788.35 633.95 788.35 633.06 788.89 C630.47 790.49 627.92 792.04 625.2 793.41 C622.28 795.52 621.92 797.24 621 800.69 C618.87 807.67 616.76 813.72 610.25 817.62 C605.51 819.65 601.69 818.84 597 817 C593.98 815.37 591.67 813.98 589.71 811.11 C587.93 808.69 586.66 807.46 584 806 C581.23 806.09 578.77 806.34 576.06 806.79 C565.63 808.2 555.33 808.36 544.81 808.31 C543.4 808.31 543.4 808.31 541.95 808.31 C515.54 808.21 490.68 804.55 465.75 795.5 C464.97 795.22 464.18 794.94 463.38 794.65 C458.72 792.89 455.09 790.69 451 787.81 C448.29 786.08 448.29 786.08 445 786 C438.75 788.48 433.31 792.62 428.01 796.69 C425.97 798.02 424.33 798.42 422 799 C421.03 801.08 421.03 801.08 420.56 803.62 C418.89 809.9 416.61 814.16 411.25 817.94 C406.05 819.64 401.56 820.18 396.48 817.84 C394.84 816.94 393.23 815.99 391.65 815 C387.94 813.6 384.79 814.29 381 815 C379.6 815.24 378.2 815.48 376.79 815.72 C375.69 815.91 375.69 815.91 374.56 816.1 C330.6 823.43 272.78 820.37 235 794 C232.3 791.77 232.3 791.77 229.83 792.12 C226.7 793.09 223.95 794.41 221.03 795.88 C173.18 820.03 111.74 827.5 60.47 810.84 C34.87 802.15 13.71 787.49 -4 767 C-8.4 768.65 -12.51 770.74 -16.69 772.88 C-41.37 785.32 -41.37 785.32 -54 782 C-58.34 779.68 -60.5 776.63 -62 772 C-65.12 749.29 -51.05 724.29 -39 706 C-37.62 704.2 -36.22 702.41 -34.81 700.62 C-32.33 697.16 -31.69 695.3 -32.31 691.08 C-35.67 663.13 -32.35 634.82 -21 609 C-22.16 608.81 -23.31 608.63 -24.5 608.44 C-44.39 603.98 -61.24 591.5 -74 576 C-77.33 577.5 -80.23 579.47 -83.23 581.53 C-101.14 593.83 -101.14 593.83 -112 592 C-116.54 589.77 -118.81 587.51 -121 583 C-121.35 580.39 -121.52 578.11 -121.5 575.5 C-121.49 574.76 -121.49 574.03 -121.48 573.27 C-120.77 550.75 -110.36 518.93 -95 502 C-94.34 502 -93.68 502 -93 502 C-93.02 501.17 -93.02 501.17 -93.05 500.31 C-93.59 478.08 -92.37 453.78 -81 434 C-81.55 433.9 -82.1 433.79 -82.67 433.69 C-88.31 432.54 -93.33 430.83 -98.56 428.44 C-99.33 428.09 -100.11 427.74 -100.9 427.38 C-113.33 421.63 -124.85 415.31 -135 406 C-135.48 405.56 -135.97 405.13 -136.47 404.68 C-154.61 388.17 -165.92 366.52 -167.11 341.71 C-167.53 324.5 -167.15 304.94 -157.43 290.02 C-154.06 284.14 -153.96 277.78 -153.57 271.16 C-153.34 267.36 -153.04 263.56 -152.73 259.76 C-152.65 258.63 -152.65 258.63 -152.56 257.47 C-149.7 221.79 -140.36 184.38 -115 158 C-113.95 156.76 -112.91 155.51 -111.88 154.25 C-108.92 150.76 -105.55 147.87 -102 145 C-103.51 140.61 -105.86 137.04 -108.56 133.31 C-109.23 132.39 -109.23 132.39 -109.91 131.45 C-118.72 119.45 -128.8 108.15 -144 105 C-161.13 103.06 -172.98 108.38 -186.44 118.91 C-191.57 123.25 -195.7 128.15 -199.89 133.39 C-206.51 141.56 -215.76 150.95 -226.65 152.34 C-233.07 152.43 -236.84 151.92 -242 148 C-246.86 143.16 -249.29 138.94 -249.44 132.06 C-249.12 115.55 -238.93 102.25 -227.62 91.08 C-221.33 85.12 -214.5 80.34 -207 76 C-206.37 75.64 -205.75 75.27 -205.1 74.9 C-186.91 64.59 -164.32 57.58 -143.36 61.72 C-140.15 62.66 -137.09 63.74 -134 65 C-132.73 65.51 -132.73 65.51 -131.43 66.03 C-107.25 76.94 -88.01 102.13 -76 125 C-76 125.66 -76 126.32 -76 127 C-75.24 126.67 -74.47 126.34 -73.69 125.99 C-52.26 116.73 -31.24 109.3 -8 106 C-7.33 105.9 -6.66 105.81 -5.96 105.71 C0.55 104.87 7.01 104.89 13.56 104.94 C15.22 104.94 15.22 104.94 16.91 104.95 C19.61 104.96 22.3 104.98 25 105 C24.18 78.4 24.18 78.4 13 55 C12.13 53.7 12.13 53.7 11.25 52.38 C1.55 42.14 -9.66 38.9 -23.33 38.53 C-35.15 38.43 -45.71 39.61 -57 43 C-75.14 48.11 -75.14 48.11 -83.88 44.81 C-89.78 41.39 -93.03 37.58 -95 31 C-95.49 24.74 -93.52 20.12 -89.85 15.13 C-69.11 -8.72 -27.95 -8.66 0 0 Z M-83.85 16.83 C-87.22 20.62 -88.86 23.15 -89.25 28.38 C-88.98 32.3 -88.45 33.96 -86 37 C-82.07 40.15 -77.94 40.91 -73 41 C-69.57 40.51 -66.28 39.65 -62.94 38.75 C-61.06 38.28 -59.19 37.81 -57.32 37.35 C-55.54 36.9 -53.77 36.45 -52 36 C-33.99 31.46 -13.21 30.17 3.63 39.43 C16.16 47.71 24.43 59.09 27.6 73.77 C29.18 83.16 29.23 92.33 29.12 101.81 C29.11 103.39 29.11 104.97 29.1 106.55 C29.08 110.37 29.04 114.18 29 118 C27.51 118.5 27.51 118.5 26 119 C24.93 115.8 24.93 113.34 25 110 C-8.44 109.08 -42.58 115.68 -72 132 C-71.34 135.3 -70.68 138.6 -70 142 C-74 141 -74 141 -75.27 139.23 C-75.64 138.46 -76 137.7 -76.38 136.91 C-76.8 136.05 -77.22 135.19 -77.65 134.31 C-78.1 133.38 -78.54 132.45 -79 131.5 C-85.74 118.07 -93.8 105.93 -104.13 94.99 C-106 93 -106 93 -108.38 89.94 C-119.52 77.46 -135.27 67.9 -152 66 C-180.52 65.85 -207.02 78.28 -227.21 98.18 C-236.1 107.75 -242.95 118.69 -244.44 131.88 C-243.71 137.07 -241.9 140.44 -237.94 143.81 C-233.65 147 -231.73 147.3 -226.55 146.61 C-213.97 143.6 -204.63 131.15 -196.55 121.79 C-195.78 120.9 -195.78 120.9 -195 120 C-194.51 119.43 -194.02 118.86 -193.52 118.27 C-183.96 107.91 -169.67 99.96 -155.53 98.8 C-139.91 98.51 -127.16 104.14 -115.89 114.85 C-107.59 123.55 -101 134.08 -94.75 144.31 C-94.38 144.92 -94.01 145.52 -93.63 146.14 C-91.7 149.4 -90.48 152.24 -90 156 C-91.81 155.81 -91.81 155.81 -94 155 C-95.75 152.44 -95.75 152.44 -97 150 C-111.7 154.73 -122.81 174.66 -129.52 187.65 C-140.72 210.23 -146.32 237.27 -147.34 262.36 C-148.34 286.05 -148.34 286.05 -155.02 297.41 C-164.47 313.66 -163.87 340.21 -159.5 357.81 C-155.57 370.53 -149.97 382.1 -141 392 C-140.1 393.11 -140.1 393.11 -139.18 394.25 C-112.86 426.03 -65.84 435.26 -27.1 439.13 C-4.31 441.11 19.35 441.35 42 438 C43.04 437.85 44.09 437.7 45.17 437.54 C95.02 430.11 146.97 408.96 178.32 367.6 C193.72 346.24 199.49 321.91 195.68 295.92 C193.32 282.32 188.89 269.33 181.49 257.6 C179.98 254.96 179.13 252.59 178.31 249.67 C177.86 248.12 177.86 248.12 177.4 246.54 C177.08 245.43 176.77 244.33 176.44 243.19 C163.05 198.34 139.46 152.08 96.99 128.75 C83.98 121.89 70.44 116.82 56 114 C55.34 116.64 54.68 119.28 54 122 C52.68 122.33 51.36 122.66 50 123 C50.16 122.01 50.16 122.01 50.33 121 C51.56 113.33 52.62 105.64 53.62 97.94 C53.76 96.95 53.9 95.95 54.03 94.93 C56.69 74.21 54.77 52.8 43 35 C40.2 31.45 37.2 28.2 34 25 C33.36 24.36 32.72 23.72 32.07 23.07 C18.97 10.84 1.35 4.96 -16 2 C-17.06 1.82 -18.12 1.63 -19.21 1.44 C-41.01 -1.1 -67.36 0.51 -83.85 16.83 Z M179 374 C178.29 374.79 177.57 375.57 176.84 376.38 C175.87 377.44 174.91 378.5 173.94 379.56 C173.47 380.08 173.01 380.59 172.53 381.12 C166.28 387.96 159.92 394.07 152.5 399.62 C151.78 400.17 151.06 400.72 150.32 401.28 C149.6 401.82 148.89 402.36 148.16 402.91 C147.46 403.45 146.77 403.99 146.06 404.54 C144 406 144 406 141.91 406.98 C139.65 408.11 138.46 408.91 137 411 C136.16 416.09 136.53 421.07 136.88 426.19 C136.95 427.71 137.03 429.24 137.1 430.76 C137.34 435.51 137.67 440.25 138 445 C138.1 446.48 138.2 447.95 138.29 449.43 C142.65 517.27 142.65 517.27 176 574 C178.35 575.98 178.35 575.98 181 577 C193.25 574.1 205.34 560.47 213 551 C210.37 548.2 207.92 546.22 204.56 544.38 C190.83 536.35 171.2 522.82 164.94 507.88 C163.27 500.97 163.41 496.33 167 490 C169.78 486.46 172.87 483.24 176 480 C176.52 479.44 177.04 478.88 177.58 478.3 C186.24 469.95 199.34 464.57 211.24 464.73 C215.58 465.16 217.57 466.27 221 469 C224.41 474.4 226.67 479.96 228.89 485.92 C230.09 489.66 230.09 489.66 233 492 C230.2 453.32 216.24 418.4 192 388 C191.2 386.99 190.4 385.97 189.58 384.93 C184.83 378.91 184.83 378.91 179 374 Z M126.6 416.44 C89.16 437.26 46.42 444.45 4.06 444.31 C2.93 444.31 1.81 444.31 0.65 444.31 C-25.25 444.24 -49.64 441.33 -75 436 C-92.08 459.9 -90.92 501.3 -86.41 528.78 C-83.33 545.54 -78.77 561.47 -68 575 C-67.43 575.75 -66.86 576.49 -66.27 577.26 C-47.71 599.94 -17.11 606.76 10.6 609.78 C14.35 610.12 18.08 610.18 21.84 610.2 C22.66 610.21 23.48 610.22 24.33 610.22 C27.01 610.24 29.69 610.25 32.38 610.25 C33.3 610.25 34.23 610.25 35.18 610.25 C83.72 610.2 132.54 603.77 176 581 C173.96 578.41 171.96 575.96 169.62 573.62 C132 536 133.85 463.28 132 414 C129.98 414 128.32 415.47 126.6 416.44 Z M173.18 488.87 C169.44 493.21 168.33 496.61 168.3 502.31 C170.2 509.62 175.62 515.15 180.88 520.31 C181.53 520.96 182.18 521.6 182.85 522.27 C195.74 534.74 213.18 549.22 231.8 549.4 C234.5 548.91 235.35 548.16 237 546 C239.58 538.25 237.9 529.64 236.06 521.88 C235.85 520.95 235.63 520.02 235.41 519.06 C229.45 491.68 229.45 491.68 214 470 C198.59 465.87 183.3 478.51 173.18 488.87 Z M-94 510 C-105.31 530.32 -118.25 555.97 -116 580 C-114.77 582.96 -113.77 584.38 -111.31 586.38 C-106.42 587.7 -101.94 586.43 -97.47 584.4 C-96.35 583.73 -95.22 583.06 -94.06 582.38 C-93.46 582.02 -92.87 581.67 -92.25 581.3 C-87.19 578.26 -82.51 574.81 -78 571 C-79.41 566.6 -81.08 562.38 -82.88 558.12 C-89.2 542.51 -91.19 526.64 -93 510 C-93.33 510 -93.66 510 -94 510 Z M310 536 C309.2 536.18 308.41 536.35 307.59 536.54 C293.22 539.84 278.57 544.11 266 552 C266.8 553.03 267.61 554.06 268.44 555.12 C284.65 576.83 295.19 600.54 301 627 C301.17 627.75 301.33 628.5 301.5 629.28 C307.58 658.52 305.28 691.1 294.84 719.11 C293.84 722.53 293.94 725.33 294.12 728.88 C294.2 734.76 293.94 739.41 290 744 C287.13 745.83 284.44 746.84 281.25 748 C278.68 748.9 278.68 748.9 277 752 C301.96 765.25 329.65 774.26 358 776 C357.36 773.01 356.33 770.59 354.94 767.88 C352.69 762.87 352.11 758.43 353 753 C356.99 744.35 365.46 740.4 373.95 737.12 C385.71 732.8 398.35 728.97 411 731 C414.9 733.14 417.57 735.15 419.81 739 C420.21 739.66 420.61 740.32 421.02 741 C422.79 744.62 423.19 748.22 423.54 752.2 C423.67 753.67 423.67 753.67 423.8 755.17 C423.89 756.19 423.97 757.2 424.06 758.25 C424.2 759.8 424.2 759.8 424.34 761.38 C424.56 763.92 424.78 766.46 425 769 C437.97 766.4 449.8 760.96 461.46 754.84 C465 753 465 753 467.5 751.94 C476.49 747.71 480.16 734.73 483.31 726 C493.2 693.9 491.14 656.73 481 625 C480.78 624.31 480.56 623.61 480.33 622.9 C469.75 590.45 446.11 564.61 416.03 549.03 C406.73 544.31 397.39 540.61 387.38 537.69 C386.55 537.44 385.73 537.2 384.88 536.95 C372.37 533.47 359.81 532.62 346.88 532.69 C345.79 532.69 345.79 532.69 344.69 532.69 C332.92 532.74 321.51 533.43 310 536 Z M511 536 C510.29 536.17 509.59 536.33 508.86 536.5 C487.96 541.63 467.09 551.33 452 567 C453.48 570.41 455.42 572.65 458 575.31 C474.25 593.1 483.91 614.85 489.25 638.12 C489.4 638.78 489.55 639.43 489.71 640.11 C492.61 653.69 493.41 667.28 493.38 681.12 C493.37 681.93 493.37 682.74 493.37 683.57 C493.34 696.71 492.45 709.26 489 722 C488.81 722.7 488.63 723.4 488.43 724.13 C485.79 733.65 481.64 742.32 477 751 C503.41 765.35 534.98 772.6 565 772 C564.71 771.33 564.42 770.67 564.12 769.98 C560.81 761.76 559.54 754.85 562.12 746.25 C567.24 738.71 579.88 735.3 588.26 733.49 C592.17 732.79 596.03 732.24 600 732 C601.11 731.92 601.11 731.92 602.24 731.84 C609.31 731.56 615.32 732.89 620.94 737.31 C624.81 742.35 625.34 747.68 625.62 753.88 C625.66 754.56 625.7 755.25 625.74 755.96 C625.84 757.64 625.92 759.32 626 761 C630.79 760.4 634.93 759.01 639.31 757.06 C640.34 756.61 640.34 756.61 641.39 756.15 C649.62 752.41 657.34 747.78 665 743 C666.1 742.34 667.2 741.67 668.34 740.99 C672.85 737.62 674.06 733.15 676 728 C676.24 727.36 676.49 726.73 676.73 726.07 C690.41 689.56 692.09 646.53 676.25 610.43 C670 596.83 661.33 585.72 651 575 C650.04 573.94 650.04 573.94 649.05 572.86 C627.1 549.43 590.6 534.09 558.67 532.87 C554.68 532.79 550.68 532.75 546.69 532.75 C545.97 532.75 545.26 532.75 544.53 532.75 C533.13 532.77 522.12 533.34 511 536 Z M243 541 C242.83 541.61 242.66 542.23 242.48 542.86 C240.55 549.33 240.55 549.33 238.38 552 C233.06 554.24 228.16 554.34 222.69 552.75 C220.39 552.29 220.39 552.29 218 553 C215.31 555.39 213.05 557.88 210.72 560.61 C202.45 570.35 191.66 577.12 181 584 C182.57 611.1 186.48 637.88 194 664 C194.38 665.33 194.38 665.33 194.77 666.69 C201.8 690.61 212.4 713.08 230 731 C230.92 731.94 230.92 731.94 231.85 732.89 C243.07 743.49 256.76 749.17 272 750 C272.66 748.68 273.32 747.36 274 746 C273.29 745.66 272.59 745.31 271.86 744.96 C260.86 739.35 250.97 732.25 241 725 C240.32 724.5 239.63 724.01 238.93 723.5 C221.78 710.97 221.78 710.97 220.2 702.14 C219.19 691.12 223.69 681.83 230.15 673.09 C237.17 664.91 245.17 658.8 256 657 C261.2 656.86 265.63 658.19 270 661 C277.96 668.77 281.04 680.5 284.62 690.75 C288.05 700.48 288.05 700.48 292 710 C306.26 688.61 301.03 649.29 296.31 625.62 C292.86 609.5 286.89 594.44 279 580 C278.12 578.36 278.12 578.36 277.22 576.7 C273.42 569.9 269.01 563.95 264 558 C262.82 556.45 262.82 556.45 261.62 554.88 C256.37 549.12 250.22 544.04 243 541 Z M670 588 C671.36 591.75 673.13 595.11 675.07 598.57 C680.34 608.04 684.07 617.58 687 628 C687.32 629.12 687.63 630.25 687.96 631.4 C697.25 669.36 689.61 707.6 675 743 C690.82 755.32 707 763.64 726 770 C727.07 770.36 728.14 770.72 729.25 771.1 C733.35 772.41 736.66 773.13 741 773 C741.01 772.43 741.02 771.85 741.03 771.26 C741.08 768.63 741.17 766 741.25 763.38 C741.26 762.47 741.28 761.57 741.29 760.64 C741.5 754.97 742.15 751.44 746 747 C752.85 741.07 763.31 741.69 771.78 742.25 C781.84 743.41 794.2 745 802 752 C806.22 757.56 806.77 762.12 806 769 C805.49 771.44 804.82 773.64 804 776 C810.34 776.19 816.26 775.54 822.5 774.44 C823.4 774.31 824.3 774.17 825.22 774.04 C834.86 772.32 840.53 766.35 846.21 758.7 C863.14 733.19 868.48 701.97 863 672 C856.57 641.12 838.59 614.71 812.34 597.17 C811.24 596.45 810.14 595.74 809 595 C808.06 594.38 807.12 593.75 806.16 593.11 C766.49 568.32 710.95 565.24 670 588 Z M172.57 588.21 C132.17 608.42 85.59 613.67 41 615 C40.27 615.02 39.54 615.05 38.79 615.07 C20.86 615.57 2.68 613.97 -15 611 C-31.85 646.18 -32.22 689.62 -19.63 726.39 C-13.02 744.64 -3.32 759.85 10 774 C10.54 774.6 11.08 775.21 11.63 775.83 C37.05 803.16 76.95 812.39 112.65 814.18 C163.06 815.22 220.87 799.47 258.57 764.54 C261.46 761.77 264.26 758.91 267 756 C263.46 754.05 259.79 752.95 255.94 751.75 C230.63 743.47 214.85 724.01 203 701 C188.31 671.27 181.76 637.71 178 605 C177.85 603.67 177.85 603.67 177.69 602.32 C177.1 597.22 176.54 592.11 176 587 C174.7 586.93 174.7 586.93 172.57 588.21 Z M865 659 C865.12 659.6 865.24 660.2 865.37 660.82 C872.21 695.63 870.19 729.37 851 760 C847.68 764.69 844.11 768.99 840 773 C841.92 779.66 845.5 783.85 850 789 C850.67 789.77 851.34 790.54 852.04 791.33 C865.59 805.82 883.9 812.96 903.02 816.62 C904.83 816.97 906.64 817.36 908.44 817.75 C918.13 819.28 925.31 815.47 933 810 C950.26 796.8 960.15 779.39 963.29 758 C965.9 736.65 961.73 711.81 948.72 694.28 C945.72 690.6 942.42 687.29 939 684 C938.2 683.19 937.39 682.38 936.57 681.54 C920.73 666.28 898.07 657.78 876.25 657.88 C875.39 657.87 874.53 657.87 873.64 657.86 C872.81 657.86 871.99 657.87 871.14 657.87 C870.02 657.87 870.02 657.87 868.88 657.87 C866.91 657.89 866.91 657.89 865 659 Z M232 678 C227.07 686.1 223.95 693.44 225 703 C229.54 712.26 238.84 718.29 247.12 723.94 C248.14 724.64 249.16 725.34 250.21 726.06 C266.18 738.54 266.18 738.54 285 742 C287.94 739.35 289.55 736.93 290 733 C290.38 719.22 285.66 706.53 281.12 693.69 C280.71 692.52 280.3 691.35 279.88 690.15 C274.81 675.06 274.81 675.06 265 663 C251.15 658.38 240.35 667.75 232 678 Z M-31 704 C-43.34 722.44 -57.68 745.98 -57 769 C-56.08 773.47 -55.81 774.46 -52 777 C-40 779.02 -28.8 773.03 -18.31 767.94 C-17.63 767.61 -16.95 767.28 -16.24 766.94 C-12.62 765.12 -10.1 763.52 -8 760 C-8.76 758.71 -8.76 758.71 -9.54 757.39 C-19.47 740.42 -25.91 723.22 -30 704 C-30.33 704 -30.66 704 -31 704 Z M372.75 742.5 C372.05 742.78 371.34 743.07 370.62 743.36 C364.77 745.85 359.51 748.88 357 755 C357.29 761.56 359.2 766.27 362.31 772 C362.75 772.82 363.2 773.65 363.65 774.49 C371.65 788.96 384.27 809.02 401 814 C405.37 814.14 407.16 813.6 410.69 811.06 C419.34 799.61 419.34 784.82 419.26 771.06 C419.25 768.81 419.26 766.55 419.27 764.29 C419.6 750.33 419.6 750.33 414 738 C402.57 730.1 384.39 737.77 372.75 742.5 Z M566.31 748.69 C563.93 754.71 565.35 760.89 567.71 766.79 C568.44 768.41 569.18 770.02 569.94 771.62 C570.34 772.49 570.73 773.35 571.14 774.23 C582.06 797.32 582.06 797.32 601 813 C604.88 813.68 606.26 813.5 609.51 811.29 C619.3 802.29 620.11 783.02 620.88 770.46 C621.03 766.18 621.14 761.91 621.19 757.62 C621.2 756.88 621.21 756.13 621.23 755.35 C621.23 750.59 620.67 746.53 619 742 C613.02 736.32 607.56 736.59 599.74 736.72 C588.21 737.19 574.63 740.37 566.31 748.69 Z M747 753 C741.31 770.07 748.1 797.99 755.44 813.62 C757.5 817.38 759.46 820.47 763 823 C766.54 823.73 768.73 823.64 771.98 822 C785.45 812.85 791.77 794.6 797.44 780 C797.78 779.13 798.12 778.26 798.47 777.36 C800.68 771.51 802.75 765.61 801.44 759.31 C796.7 751.7 789.3 750.05 781 748 C776.14 746.99 771.45 746.82 766.5 746.81 C765.77 746.8 765.03 746.79 764.28 746.78 C757.33 746.76 752.19 748.11 747 753 Z M672 748 C670.56 749.91 669.24 751.82 667.94 753.81 C661.59 763.21 654.91 771.88 646 779 C650.09 784.73 654.83 787.72 661 791 C661.8 791.43 662.6 791.87 663.43 792.31 C676.16 798.65 690.94 801.56 705 803 C706.04 803.11 707.09 803.22 708.16 803.34 C715.82 804.01 723.45 804.1 731.12 804.12 C732.13 804.13 733.14 804.13 734.18 804.14 C735.61 804.14 735.61 804.14 737.07 804.13 C737.92 804.13 738.78 804.13 739.66 804.13 C742.31 804.06 742.31 804.06 746 803 C744.68 795.08 743.36 787.16 742 779 C737.14 777.76 737.14 777.76 732.19 776.5 C712.06 771.13 692.63 762.74 676.29 749.69 C674.21 747.8 674.21 747.8 672 748 Z M657.15 752.8 C647.16 758.74 636.86 762.85 626 767 C625.34 773.6 624.68 780.2 624 787 C640.57 779.29 654.27 767.65 664 752 C664 751.34 664 750.68 664 750 C661.21 750 659.49 751.4 657.15 752.8 Z M473 756 C472.4 756.8 472.4 756.8 471.79 757.62 C465.25 766.19 458.4 774.21 450 781 C463.48 797.35 502.34 800.59 521.92 802.48 C537.9 803.77 554.23 803.74 570.19 802.12 C570.96 802.05 571.74 801.97 572.54 801.89 C576.72 801.45 576.72 801.45 580 799 C579.4 798 578.79 797 578.17 795.96 C577.36 794.62 576.56 793.28 575.75 791.94 C575.35 791.28 574.96 790.62 574.55 789.95 C574.16 789.29 573.76 788.64 573.36 787.96 C572.96 787.31 572.56 786.66 572.14 785.98 C571 784 571 784 570.1 781.97 C569.16 779.76 569.16 779.76 567 777 C563.98 776.37 561.89 776.21 558.88 776.31 C531.15 775.97 504.21 768.72 478.89 757.74 C476.95 756.98 475.03 756.46 473 756 Z M270.56 759.39 C269.52 760.49 268.48 761.59 267.44 762.69 C262.33 767.95 256.96 772.62 251.12 777.06 C250.42 777.6 249.72 778.13 249 778.68 C244.82 781.81 240.58 784.51 236 787 C254.66 807.43 295.07 811.42 320.97 812.88 C341.3 813.71 362.16 814.14 382 809 C380.59 805.83 378.9 803.68 376.5 801.19 C373.8 798.34 371.77 795.71 370.09 792.18 C366.38 784.64 366.38 784.64 359.61 780.13 C353.57 778.9 347.42 778.69 341.28 778.3 C319.59 776.3 297.06 767.89 277.67 758.25 C273.75 756.42 273.75 756.42 270.56 759.39 Z M462 760 C461.48 760.24 460.97 760.48 460.43 760.73 C448.79 766.14 437.18 770.91 425 775 C424.34 780.61 423.68 786.22 423 792 C428.48 790.17 431.95 788.34 436.56 785.12 C437.26 784.64 437.95 784.16 438.67 783.67 C447.61 777.34 455.29 769.75 463 762 C462.5 761.01 462.5 761.01 462 760 Z M965 773 C964.58 774.04 964.15 775.08 963.71 776.15 C960.26 784.45 956.68 791.95 951 799 C950.42 799.76 949.84 800.51 949.24 801.29 C940.66 811.75 927.78 819.74 915 824 C918.94 832.94 928.4 837.42 937 841 C951.45 845.94 966.38 846.67 981 842 C986.79 839 990.81 834.88 993.31 828.81 C996.13 813.18 991.09 798.83 982.56 785.8 C978.18 780.25 971.71 775.24 965 773 Z M835 778 C834.27 778.57 833.55 779.14 832.8 779.72 C825.8 785.1 818.74 789.73 811 794 C816.68 806.2 829.57 814.26 841.75 818.94 C853.9 822.9 865.89 825.2 878.69 825.19 C879.56 825.19 880.43 825.19 881.32 825.19 C888.37 825.13 895.08 824.41 902 823 C902 822.34 902 821.68 902 821 C900.96 820.79 899.92 820.58 898.84 820.37 C874.85 815.32 853.6 804 839.62 783.31 C838.21 781.3 836.8 779.66 835 778 Z M802 782 C799.25 784.75 798.39 787.17 798 791 C798 791.66 798 792.32 798 793 C802.82 792.37 806.67 790.37 810.94 788.19 C811.63 787.84 812.32 787.5 813.03 787.15 C817.23 785.02 821.13 782.69 825 780 C817.96 777.9 808.82 779.51 802 782 Z " fill="#000100" transform="translate(265,132)"/>
<path d="M0 0 C6.32 0.53 10.74 2.52 15.12 7.19 C16.12 10.06 16.12 10.06 16.12 12.19 C14.3 12.88 14.3 12.88 12.12 13.19 C10.48 11.71 10.48 11.71 9.12 10.19 C1.15 19.77 0.55 26.95 1.01 39.08 C1.46 51.93 -2.74 63.7 -11.26 73.38 C-27.22 88.21 -50.67 90.92 -71.41 90.32 C-84.35 89.61 -96.21 83.74 -104.88 74.19 C-107.69 70.25 -110.33 66.27 -111.58 61.57 C-113.54 57.99 -116.63 57.45 -120.32 56.31 C-127.57 53.86 -133.62 50.63 -139.88 46.19 C-140.87 45.53 -141.86 44.87 -142.88 44.19 C-143.54 46.17 -144.2 48.15 -144.88 50.19 C-146.2 49.86 -147.52 49.53 -148.88 49.19 C-148.76 43.1 -146.76 40.31 -142.67 35.89 C-140.88 34.19 -140.88 34.19 -137.88 32.19 C-135.7 32.56 -135.7 32.56 -133.88 33.19 C-133.88 37.19 -133.88 37.19 -135.38 38.94 C-135.88 39.35 -136.37 39.76 -136.88 40.19 C-115.15 55.8 -88.98 57.93 -63.01 54.06 C-38.28 49.81 -17.82 38.91 -3.14 18.18 C-0.72 14.66 1.29 11.05 3.12 7.19 C2.15 6.92 1.18 6.65 0.18 6.38 C-0.83 5.98 -1.84 5.59 -2.88 5.19 C-3.21 4.2 -3.54 3.21 -3.88 2.19 C-1.88 0.19 -1.88 0.19 0 0 Z M-5.88 30.19 C-7.21 31.52 -8.52 32.88 -9.82 34.25 C-29.96 54.45 -57.98 60.94 -85.76 61.31 C-92.48 61.25 -99.18 60.69 -105.88 60.19 C-103.56 68.35 -98.62 73.78 -91.53 78.35 C-81.7 83.86 -81.7 83.86 -70.88 84.19 C-67.96 81.57 -66.02 78.45 -63.88 75.19 C-50.02 58.21 -26.27 54.36 -5.88 51.19 C-5.1 48.41 -4.76 45.96 -4.79 43.08 C-4.79 42.32 -4.79 41.57 -4.79 40.79 C-4.8 40.02 -4.81 39.24 -4.82 38.44 C-4.82 37.64 -4.83 36.85 -4.83 36.04 C-4.85 34.09 -4.86 32.14 -4.88 30.19 C-5.21 30.19 -5.54 30.19 -5.88 30.19 Z M-60.88 78.19 C-63.94 81.26 -63.94 81.26 -64.88 85.19 C-46.95 84.67 -28.22 81.49 -14.7 68.69 C-11.37 65.08 -9.37 61.85 -7.88 57.19 C-26.54 56.39 -47.7 65.21 -60.88 78.19 Z " fill="#000100" transform="translate(333.8828125,440.8125)"/>
<path d="M0 0 C13.72 7.08 23.49 18.38 28.99 32.78 C33.3 46.67 34.37 60.61 28.47 74.21 C23.73 82.85 16.1 90.12 6.7 93.39 C-5.64 96.88 -17.06 95.51 -28.3 89.39 C-39.16 82.4 -46 72.86 -49.3 60.39 C-52.32 43.26 -50.73 25.33 -41.3 10.39 C-31.63 -2.51 -14.61 -6.05 0 0 Z M-35.7 11.88 C-43.27 21.47 -44.51 33.26 -44.62 45.02 C-44.65 46.05 -44.68 47.08 -44.71 48.14 C-44.8 60.17 -40.71 70.56 -32.46 79.36 C-24.08 87.21 -15.03 89.79 -3.76 89.66 C6.5 88.85 13.45 84.19 20.19 76.73 C27.21 67.9 27.51 57.25 26.7 46.39 C24.43 30.87 16.46 18.56 4.59 8.63 C-8.17 -0.14 -24.92 0.38 -35.7 11.88 Z " fill="#000100" transform="translate(302.3046875,310.609375)"/>
<path d="M0 0 C9.93 5.88 16.16 15.12 19.19 26.25 C20.53 32.3 20.91 38.19 20.88 44.38 C20.87 45.29 20.87 46.21 20.86 47.16 C20.75 53.79 20.1 59.75 17.56 65.94 C17.27 66.66 16.98 67.38 16.68 68.12 C12.22 78.01 5.65 83.02 -4.44 86.94 C-14.93 89.08 -24.69 87.9 -34.06 82.39 C-42.06 76.49 -47.13 69.63 -49.44 59.94 C-49.84 56.32 -49.87 52.76 -49.81 49.12 C-49.8 48.15 -49.79 47.18 -49.78 46.18 C-49.45 30.9 -44.76 17.3 -33.97 6.14 C-24.3 -2.27 -12.03 -5.48 0 0 Z M-34.44 14.94 C-37.97 20.21 -40.55 25.89 -42.44 31.94 C-42.64 32.58 -42.85 33.22 -43.06 33.88 C-46.28 45.68 -45.55 58.32 -39.75 69.06 C-34.46 75.64 -28.93 80.48 -20.44 81.94 C-12.19 82.77 -4.59 82.45 2.56 77.94 C10.57 71.37 13.2 63.28 15.31 53.44 C16.4 38.27 15.45 23.87 5.64 11.51 C0.64 6.2 -4.31 2.93 -11.75 2.5 C-21.44 2.91 -28.52 7.47 -34.44 14.94 Z " fill="#000100" transform="translate(195.4375,317.0625)"/>
<path d="M0 0 C6.54 3.73 10.31 8.99 12.34 16.19 C13.92 23.71 12.59 29.79 8.81 36.44 C4.97 41.05 0.79 43.49 -5.19 44.44 C-12.25 44.44 -16.82 41.98 -22.19 37.44 C-27.03 31.48 -28.7 25.6 -28.49 18.02 C-27.59 10.33 -23.93 5.59 -18.09 0.75 C-12.77 -2.92 -5.72 -2.58 0 0 Z M-18.19 12.44 C-18.85 16.02 -18.93 19.22 -17 22.38 C-14.61 23.78 -12.97 24.3 -10.19 24.44 C-7.9 23.3 -6 22.25 -4.19 20.44 C-3.82 16.58 -3.63 14.28 -5.81 11 C-10.12 8.16 -14.84 8.32 -18.19 12.44 Z " fill="#000100" transform="translate(310.1875,346.5625)"/>
<path d="M0 0 C5.46 3.19 8.75 7.02 10.77 13.09 C11.4 20.66 11.8 27.97 6.77 34.09 C1.5 38.93 -2.82 41.45 -10.18 41.3 C-15.16 40.8 -18.24 38.31 -21.48 34.72 C-25.6 29.53 -26.71 25.32 -26.53 18.71 C-25.64 11 -21.98 6.26 -16.13 1.41 C-11.44 -1.83 -5.22 -2.13 0 0 Z M-15.23 11.09 C-15.82 15.78 -15.82 15.78 -13.98 19.97 C-11.91 21.3 -10.7 21.95 -8.23 22.09 C-5.98 20.95 -4.02 19.88 -2.23 18.09 C-1.83 14.49 -1.78 12.72 -3.91 9.72 C-6.11 7.93 -6.11 7.93 -8.73 7.66 C-11.82 8.2 -13.15 8.71 -15.23 11.09 Z " fill="#000100" transform="translate(193.2265625,351.90625)"/>
<path d="M0 0 C11.03 6.18 17.52 16.89 20.95 28.79 C22.17 34.91 22.35 39.68 20 45.5 C16.66 49.8 13.2 51.91 8 53.5 C-1.3 53.5 -8.57 49.18 -15.25 42.94 C-23.96 33.78 -27.41 24.03 -27.27 11.64 C-26.91 7.49 -25.94 5.44 -23 2.5 C-15.45 -2.79 -8.48 -3.72 0 0 Z M-20.81 8.69 C-23.42 14.86 -22.23 19.48 -19.88 25.5 C-15.5 35.19 -10.19 41.04 -1 46.5 C2.71 47.74 6.15 48.19 10 47.5 C13.18 44.93 15.69 42.7 16.27 38.54 C16.71 28.11 12.42 19.33 5.84 11.41 C1.28 6.67 -3.18 3.68 -9.88 3.25 C-14.86 3.33 -17.62 4.83 -20.81 8.69 Z " fill="#000100" transform="translate(695,711.5)"/>
<path d="M0 0 C6.71 6.47 10.06 12.25 10.38 21.62 C10.23 26.12 9.72 29.29 7 33 C2.18 37.35 -2.69 38.23 -9 38 C-19.08 36.28 -27.6 30.92 -34 23 C-37.65 16.99 -39.9 11.14 -39 4 C-37.57 -0.53 -35.73 -3.39 -32.06 -6.44 C-21.14 -12.01 -9.1 -7.12 0 0 Z M-32 1 C-34.19 6.09 -34.36 8.93 -32.44 14.12 C-28.57 22.47 -23.12 26.95 -15 31 C-9.43 32.81 -3.25 33.06 2.06 30.56 C4.88 26.83 5.26 23.62 5 19 C3.7 12.46 1.34 7.26 -4.3 3.44 C-12.26 -1.47 -24.57 -8.28 -32 1 Z " fill="#000100" transform="translate(1038,742)"/>
<path d="M0 0 C7.1 2.81 11.69 8.27 15 15 C18.07 22.7 19.09 30.11 16.28 38.04 C14.43 41.79 11.95 44.48 8.18 46.33 C2.61 48.04 -3.13 48.16 -8.56 45.96 C-16.31 41.26 -21.03 33.86 -23.53 25.25 C-24.88 18.8 -24.53 13.61 -21.28 7.79 C-15.77 0.08 -9.03 -1.13 0 0 Z M-15 8 C-18.95 13.43 -18.85 18.52 -18 25 C-15.84 31.87 -12.08 37.1 -6 41 C-2.38 42.21 0.19 42.32 4 42 C8.02 39.88 10.34 38.22 12 34 C13.15 25.55 11.41 18.89 6.57 11.96 C3.8 8.48 1.47 6.01 -3 5 C-7.85 4.48 -10.9 5.36 -15 8 Z " fill="#000100" transform="translate(815,749)"/>
<path d="M0 0 C-0.5 2.48 -0.5 2.48 -1 5 C-3.86 4.39 -6.14 3.51 -8.69 2.07 C-9.73 1.5 -9.73 1.5 -10.79 0.91 C-11.52 0.51 -12.25 0.1 -13 -0.31 C-30.61 -9.81 -49.29 -13.71 -69 -9 C-80.62 -5.44 -90.63 0.1 -99.15 8.81 C-101 10 -101 10 -103.73 9.69 C-104.48 9.46 -105.23 9.23 -106 9 C-102.76 -0.98 -90.72 -6.61 -81.8 -11.16 C-54.62 -23.88 -23.91 -15.69 0 0 Z " fill="#000100" transform="translate(280,416)"/>
<path d="M0 0 C6.25 4.06 11.89 10.26 14.1 17.46 C15.13 22.88 15.15 27.72 13.31 32.94 C10.92 36.4 8.26 38.68 4.5 40.56 C-2.01 41.39 -7.14 40.38 -12.5 36.56 C-18.28 31.53 -21.76 24.7 -22.85 17.13 C-23.1 10.69 -21.31 6.6 -17 1.75 C-11.91 -2.7 -5.96 -2.45 0 0 Z M-15.5 7.56 C-17.66 12.08 -17.89 16.33 -16.56 21.12 C-14.25 26.97 -10.33 31.79 -5 35.12 C-1.48 35.74 1.05 35.5 4.5 34.56 C7.43 31.94 8.37 30.03 9.44 26.25 C9.56 19.11 6.38 12.73 1.5 7.56 C-4.66 2.87 -9.51 2.22 -15.5 7.56 Z " fill="#000100" transform="translate(513.5,715.4375)"/>
<path d="M0 0 C7.92 3.68 13.21 7.8 16.89 15.77 C18.4 20.43 17.87 24.46 15.89 28.9 C12.84 32.47 10.22 34.12 5.64 34.9 C-2.41 35.34 -9.23 32.54 -15.41 27.52 C-19.81 23.32 -22.22 18.72 -22.42 12.59 C-22.36 7.97 -21.21 5.42 -18.11 1.9 C-12.88 -2.72 -6.25 -2.22 0 0 Z M-15.11 6.9 C-17.13 9.47 -17.11 10.9 -17.11 14.21 C-15.6 19.75 -12.86 23.14 -8.02 26.23 C-2.95 28.75 2.26 30.19 7.89 28.9 C10.94 26.38 11.74 24.83 12.39 20.96 C11.55 15.76 8.84 12.82 5.14 9.21 C-1.39 4.56 -8.03 1.69 -15.11 6.9 Z " fill="#000100" transform="translate(820.10546875,693.1015625)"/>
<path d="M0 0 C4.96 3.6 9.09 7.12 10.54 13.29 C11.31 18.29 11.44 22.31 8.49 26.59 C5.47 29.46 2.08 30.49 -2 31 C-9.59 30.58 -15.11 27.24 -20.19 21.69 C-23.98 16.98 -26.33 12.6 -26.06 6.44 C-25.41 2.2 -23.77 -0.03 -20.67 -2.91 C-13.97 -7.3 -6.13 -3.81 0 0 Z M-18.56 2.5 C-20.59 6.03 -20.6 7.97 -20 12 C-17.55 17.57 -14.39 21.07 -9 24 C-4.68 25.44 -0.83 25.75 3.44 24 C5.45 21.42 5.56 19.27 5.38 16.05 C4.31 10.21 -0.15 6.49 -4.78 3.21 C-9.38 0.71 -13.94 -0.2 -18.56 2.5 Z " fill="#000100" transform="translate(643,718)"/>
<path d="M0 0 C2.81 2.25 2.81 2.25 5 5 C5.76 5.85 6.53 6.69 7.31 7.56 C10.29 13.63 9.96 20.17 7.81 26.5 C5.18 30.13 3.28 32.63 -1.34 33.38 C-7.06 33.64 -10.57 32.9 -15 29 C-20.25 23.32 -21.46 18.24 -21.32 10.66 C-20.75 5.94 -18.42 3.29 -15 0.19 C-9.93 -2.82 -5.35 -1.94 0 0 Z M-15 8 C-16.23 12.71 -16.28 15.01 -14.94 19.69 C-12.59 23.7 -10.9 25.48 -7 28 C-3.91 28.75 -3.91 28.75 -1 28 C1.85 25.77 2.85 24.45 4 21 C4.4 15.75 3.87 12.45 1 8 C-1.68 5.25 -3.2 4.13 -7 3.5 C-10.87 4.15 -12.41 5.04 -15 8 Z " fill="#000100" transform="translate(461,543)"/>
<path d="M0 0 C4.35 2.26 7.16 4.4 9 9 C9.71 13.74 9.47 17.06 7.31 21.38 C4.3 24.79 2.29 26.69 -2.33 27.32 C-9.18 27.63 -12.63 25.91 -17.81 21.44 C-20.33 18.4 -20.33 14.87 -20.29 11.06 C-19.69 6.77 -17.09 3.96 -13.94 1.19 C-9.29 -1.66 -5.12 -1.13 0 0 Z M-12.44 6.62 C-14.35 9.53 -14.86 11.54 -15 15 C-14.17 18.21 -13.09 18.94 -10.31 20.81 C-6.27 22.26 -4.11 22.22 0 21 C2.66 19.01 2.66 19.01 4 16 C4.07 11.79 3.67 9.79 0.94 6.56 C-3.65 4.12 -7.88 3.59 -12.44 6.62 Z " fill="#000100" transform="translate(877,699)"/>
<path d="M0 0 C3.75 2.02 5.64 3.45 8 7 C8.77 11.22 8.83 15.25 6.97 19.18 C4.32 22.73 1.9 24.43 -2.5 25.19 C-7.06 25.35 -9.58 24.09 -13 21 C-15.37 18.07 -15.96 16.32 -16.44 12.56 C-15.82 7.52 -13.65 4.77 -10.25 1.12 C-6.86 -0.57 -3.66 -0.65 0 0 Z M-10 9 C-11.16 10.88 -11.16 10.88 -11 13 C-9.85 15.24 -8.79 17.21 -7 19 C-3.58 19.5 -3.58 19.5 0 19 C2.62 16.22 3.01 14.68 2.94 10.88 C1.86 7.58 1.03 6.61 -2 5 C-5.97 5 -7.16 6.31 -10 9 Z " fill="#000100" transform="translate(606,676)"/>
</svg>
