<?xml version="1.0" encoding="UTF-8"?>
<!-- Generator: visioncortex VTracer 0.6.3 -->
<svg version="1.1" xmlns="http://www.w3.org/2000/svg" width="939" height="1280">
<path d="M0 0 C0.84 0 1.67 0 2.53 0.01 C44.78 0.16 82.67 10.32 113.25 40.56 C119.86 47.22 125.83 54.17 131.42 61.7 C132.57 63.23 133.76 64.73 134.95 66.23 C184.26 128.11 195.17 197.5 200.62 274.31 C200.75 276.06 200.75 276.06 200.89 277.84 C201.61 288.3 201.82 298.71 201.86 309.19 C201.87 310.51 201.87 310.51 201.88 311.85 C201.91 318.53 201.93 325.2 201.94 331.88 C201.94 332.86 201.94 333.85 201.94 334.86 C201.97 366.67 201.09 398.1 197.97 429.78 C197.59 433.64 197.23 437.51 196.86 441.37 C195.69 453.77 194.51 466.16 193.26 478.55 C187.6 535.01 190.61 593.12 227.68 639.17 C236.95 650.35 247.17 660.37 258.62 669.31 C259.23 669.79 259.84 670.28 260.46 670.77 C285.01 690.3 312.38 704.25 340.36 718.14 C353.56 724.7 366.6 731.39 379.28 738.92 C381.6 740.3 383.93 741.64 386.26 742.98 C407.65 755.47 426.53 771.65 444.59 788.5 C447.34 791.06 450.13 793.56 452.94 796.06 C459.99 802.4 466.49 809.09 472.62 816.31 C473.73 817.59 473.73 817.59 474.86 818.89 C501.97 850.58 517.66 888.37 533.1 926.64 C536.91 936.05 540.84 945.42 544.79 954.78 C550.34 967.95 555.87 981.14 561.12 994.44 C561.5 995.39 561.5 995.39 561.88 996.36 C565.44 1005.37 568.78 1014.46 572.07 1023.58 C572.46 1024.66 572.86 1025.74 573.26 1026.85 C575.19 1032.19 577.11 1037.54 579.01 1042.9 C587.91 1067.78 599.17 1086.75 618.49 1104.9 C625.07 1111.22 630.39 1117.8 632.42 1126.88 C632.29 1135.02 630.32 1139.76 625.62 1146.31 C624.67 1147.87 623.74 1149.43 622.81 1151 C622.31 1151.82 621.81 1152.64 621.3 1153.49 C620.05 1155.6 618.85 1157.71 617.67 1159.86 C611.99 1169.98 605.2 1177.53 596.5 1185.18 C593.99 1188.04 592.57 1191.26 591 1194.69 C578.06 1221.56 555.27 1237.44 529.62 1251.31 C528.94 1251.68 528.26 1252.05 527.56 1252.43 C498.63 1267.9 468.23 1275.55 435.69 1278.56 C434.84 1278.64 433.99 1278.72 433.11 1278.81 C418.77 1279.97 404.28 1279.41 389.94 1278.62 C389.19 1278.58 388.43 1278.54 387.66 1278.5 C368.86 1277.45 350.24 1275.06 331.62 1272.31 C330.45 1272.14 329.28 1271.97 328.07 1271.79 C284.26 1265.15 239.71 1250.04 202.62 1225.31 C201.63 1225.31 200.64 1225.31 199.62 1225.31 C199.59 1226.21 199.55 1227.1 199.51 1228.02 C198.83 1240.53 196.9 1251.66 187.44 1260.56 C173.12 1271.94 151.88 1270.28 134.75 1268.81 C133.75 1268.73 132.75 1268.65 131.71 1268.57 C129.5 1268.38 127.28 1268.18 125.07 1267.96 C116.39 1267.47 111.07 1269.13 103.66 1273.17 C83.13 1284.26 57.71 1282.21 35.82 1276.28 C21.82 1271.97 9.07 1265.47 -2.38 1256.31 C-3.02 1255.83 -3.66 1255.36 -4.32 1254.86 C-11.3 1249.4 -18.48 1240.85 -19.71 1231.85 C-19.8 1226.12 -19.32 1222.78 -15.38 1218.31 C-10.42 1213.48 -4.72 1210.23 2.11 1208.79 C9.29 1207.26 12.11 1203.99 16.23 1198 C19.91 1193.87 23.66 1191.59 29.25 1191.07 C32.11 1191.06 34.95 1191.16 37.81 1191.31 C45.04 1191.96 45.04 1191.96 51.52 1189.38 C52.56 1188.35 52.56 1188.35 53.62 1187.31 C58.18 1185.79 61.62 1185.82 65.94 1187.94 C70.65 1192.1 73.33 1196.39 75.88 1202.12 C76.4 1203.29 76.92 1204.45 77.45 1205.64 C78.03 1206.97 78.03 1206.97 78.62 1208.31 C80.27 1208.31 81.93 1208.31 83.62 1208.31 C83.89 1207.61 84.15 1206.92 84.42 1206.2 C85.73 1203.07 87.28 1200.17 88.88 1197.19 C91.89 1191.35 94.13 1185.38 96.12 1179.12 C96.53 1177.89 96.53 1177.89 96.93 1176.62 C97.17 1175.85 97.41 1175.07 97.66 1174.27 C97.87 1173.58 98.08 1172.89 98.3 1172.18 C98.82 1170.09 98.82 1170.09 97.62 1167.31 C95.81 1166.01 95.81 1166.01 93.52 1164.89 C92.22 1164.2 92.22 1164.2 90.88 1163.49 C89.93 1163 88.98 1162.51 88 1162 C69.32 1152.05 51.48 1141.12 34.62 1128.31 C33.65 1127.58 33.65 1127.58 32.66 1126.82 C25.9 1121.67 19.35 1116.35 13.1 1110.58 C11.07 1108.72 9.01 1106.92 6.93 1105.12 C-4.79 1094.9 -15.93 1083.67 -25.38 1071.31 C-26.25 1070.23 -27.12 1069.15 -28 1068.07 C-78.74 1005.2 -102.26 921.59 -110.38 842.31 C-110.5 841.07 -110.5 841.07 -110.64 839.81 C-112.13 825.14 -112.74 810.61 -112.69 795.88 C-112.69 794.85 -112.68 793.83 -112.68 792.77 C-112.64 777.74 -112.19 763.12 -109.38 748.31 C-109.12 746.88 -109.12 746.88 -108.85 745.41 C-101.82 706.65 -87.03 671.02 -69.83 635.82 C-36.81 568.25 4.6 471.83 -6.38 382.31 C-10.56 371.37 -17.41 363.61 -26.24 356.12 C-28.66 354.07 -31.02 351.95 -33.38 349.81 C-36.36 347.12 -39.35 344.45 -42.38 341.81 C-46.19 338.49 -49.94 335.11 -53.69 331.72 C-55.13 330.43 -56.57 329.14 -58.04 327.89 C-63.92 322.86 -69.39 317.45 -74.85 311.97 C-76.43 310.38 -78.03 308.79 -79.62 307.21 C-85.08 301.75 -90.39 296.22 -95.38 290.31 C-96.4 289.12 -97.42 287.94 -98.44 286.75 C-99.42 285.6 -100.4 284.46 -101.38 283.31 C-102.42 282.1 -103.46 280.89 -104.5 279.67 C-106.2 277.69 -107.89 275.7 -109.56 273.7 C-110.16 273 -110.76 272.29 -111.38 271.56 C-112.12 270.67 -112.12 270.67 -112.88 269.77 C-116.18 266.56 -119.83 265.93 -124.27 265.27 C-125.46 265.09 -126.64 264.9 -127.86 264.72 C-129.15 264.52 -130.43 264.33 -131.75 264.12 C-271.92 241.79 -271.92 241.79 -304.38 207.31 C-307.95 202.33 -308.19 197.25 -307.38 191.31 C-303.98 182.6 -296.42 178.12 -288.25 174.19 C-247.9 156.64 -200.15 154.21 -156.76 151.96 C-156.08 151.92 -155.4 151.88 -154.7 151.85 C-152.85 151.75 -151 151.66 -149.16 151.56 C-146.42 151.49 -146.42 151.49 -144.38 150.31 C-143.45 147.64 -143.45 147.64 -142.68 144.36 C-142.36 143.11 -142.04 141.86 -141.71 140.57 C-141.54 139.91 -141.38 139.24 -141.21 138.56 C-131.22 98.93 -114.94 63.99 -86.38 34.31 C-85.74 33.61 -85.1 32.91 -84.44 32.18 C-61.84 8.08 -32.09 -0.14 0 0 Z M-74.38 32.31 C-75.21 33.01 -76.05 33.71 -76.91 34.43 C-83.17 39.85 -88.3 45.78 -93.38 52.31 C-94.19 53.32 -95 54.33 -95.84 55.38 C-102.14 63.25 -107.56 71.45 -112.38 80.31 C-112.77 81.03 -113.16 81.75 -113.56 82.5 C-134.04 120.99 -144.36 164.34 -135.38 207.31 C-135.14 208.44 -135.14 208.44 -134.9 209.6 C-129.49 234.42 -115.3 256.73 -98.84 275.62 C-97.31 277.39 -95.8 279.17 -94.29 280.96 C-89.44 286.7 -84.57 292.29 -79.17 297.52 C-77.31 299.38 -75.59 301.32 -73.88 303.31 C-68.6 309.42 -62.88 314.95 -56.76 320.21 C-53.63 322.97 -50.6 325.83 -47.56 328.69 C-43.46 332.53 -39.33 336.24 -34.94 339.75 C-27.72 345.55 -21.01 351.87 -14.38 358.31 C-13.55 359.11 -12.73 359.9 -11.89 360.72 C-4.27 368.65 1.21 379.37 2.62 390.31 C2.73 391 2.84 391.69 2.95 392.4 C14.02 472.96 -33.73 575.72 -69.14 650.11 C-76.68 665.91 -83.73 681.73 -89.38 698.31 C-89.72 699.32 -90.07 700.33 -90.43 701.37 C-94.77 714.15 -98.17 727.01 -100.75 740.25 C-100.99 741.47 -101.23 742.69 -101.47 743.94 C-104.5 760.29 -105.74 776.51 -105.62 793.12 C-105.62 793.96 -105.62 794.8 -105.61 795.67 C-105.26 869.49 -89.63 946.64 -55.36 1012.4 C-54.35 1014.37 -53.36 1016.35 -52.37 1018.33 C-43.91 1035.11 -33.23 1050.75 -21.38 1065.31 C-20.96 1065.83 -20.54 1066.34 -20.11 1066.87 C-6.91 1083.02 7.41 1097.91 23.71 1110.97 C25.73 1112.59 27.72 1114.23 29.7 1115.91 C48.03 1131.24 68.7 1143.89 89.62 1155.31 C91.45 1156.32 93.27 1157.33 95.1 1158.34 C105.98 1164.32 116.98 1170.06 128.04 1175.71 C141.12 1182.4 154.03 1189.28 166.74 1196.64 C169.9 1198.47 173.06 1200.28 176.21 1202.1 C184.96 1207.12 193.7 1212.15 202.37 1217.31 C254.31 1248.16 307.68 1263.72 367.62 1270.31 C368.42 1270.4 369.21 1270.49 370.03 1270.58 C377.35 1271.32 384.62 1271.49 391.98 1271.52 C393.24 1271.52 394.5 1271.53 395.8 1271.53 C398.45 1271.54 401.11 1271.55 403.77 1271.55 C407.76 1271.56 411.74 1271.59 415.72 1271.62 C435.74 1271.71 455.56 1270.61 475.06 1265.75 C476.08 1265.5 477.1 1265.25 478.15 1264.99 C509.15 1256.92 544.08 1240.61 566.62 1217.31 C567.46 1216.48 568.29 1215.64 569.15 1214.78 C579.39 1204.34 579.39 1204.34 584.62 1191.31 C583.98 1191.51 583.34 1191.7 582.68 1191.9 C580 1192.71 577.31 1193.51 574.62 1194.31 C573.93 1194.53 573.23 1194.74 572.51 1194.96 C569.76 1195.78 567.52 1196.31 564.62 1196.31 C566.04 1191.68 566.04 1191.68 568.61 1190.05 C569.4 1189.75 570.2 1189.45 571.03 1189.14 C571.91 1188.79 572.8 1188.44 573.71 1188.08 C574.65 1187.72 575.59 1187.37 576.56 1187 C590.5 1181.36 602.21 1173.94 609.62 1160.31 C609.62 1159.65 609.62 1158.99 609.62 1158.31 C606.04 1159.49 602.47 1160.72 598.9 1161.97 C589.18 1165.34 579.93 1168.38 569.62 1169.31 C569.62 1167.99 569.62 1166.67 569.62 1165.31 C571.1 1164.86 571.1 1164.86 572.6 1164.39 C576.2 1163.28 579.8 1162.15 583.4 1161.01 C585.45 1160.37 587.51 1159.74 589.57 1159.11 C602.75 1154.97 616.35 1149.71 623.62 1137.31 C624.51 1134.66 624.85 1132.87 624.94 1130.12 C624.99 1129.05 624.99 1129.05 625.05 1127.96 C623.65 1119.27 617.7 1113.99 611.56 1108.19 C588.97 1086.16 578.4 1062 568.11 1032.48 C561.91 1014.71 554.89 997.32 547.71 979.93 C546.58 977.21 545.46 974.48 544.34 971.76 C539.93 961.05 535.51 950.35 531.08 939.65 C528.89 934.36 526.7 929.07 524.52 923.77 C510.07 887.55 510.07 887.55 491.62 853.31 C490.68 851.81 490.68 851.81 489.71 850.28 C474.6 826.99 455.36 805.88 434.35 787.8 C432.19 785.94 430.1 784 428 782.06 C400.63 757.41 368.66 740.26 335.87 723.96 C303.35 707.78 271.8 690.69 244.62 666.31 C244.08 665.83 243.54 665.35 242.98 664.85 C236.78 659.35 230.85 653.78 225.62 647.31 C225.22 646.82 224.81 646.33 224.4 645.82 C217.75 637.72 211.77 629.47 206.62 620.31 C206.3 619.74 205.97 619.17 205.64 618.57 C175.26 564.3 183.36 499.19 189.6 440.04 C189.96 436.64 190.32 433.23 190.68 429.83 C190.77 429 190.85 428.17 190.94 427.32 C193.3 404.9 194.69 382.41 195.25 359.88 C195.29 358.48 195.33 357.09 195.36 355.69 C195.46 351.9 195.55 348.11 195.62 344.31 C195.64 343.45 195.66 342.58 195.68 341.69 C195.77 336.56 195.73 331.44 195.62 326.31 C195.6 325.1 195.58 323.9 195.55 322.65 C193.55 215.54 193.55 215.54 159.62 115.31 C159.31 114.73 159 114.14 158.67 113.54 C136.88 72.99 103.97 28.75 58.59 14.23 C13.93 0.97 -37.56 1.15 -74.38 32.31 Z M-153.91 158.49 C-154.81 158.55 -155.71 158.62 -156.63 158.68 C-157.61 158.76 -158.58 158.83 -159.59 158.91 C-160.61 158.99 -161.63 159.07 -162.69 159.15 C-166.04 159.4 -169.4 159.67 -172.75 159.94 C-173.89 160.03 -175.04 160.12 -176.22 160.21 C-241.41 162.55 -241.41 162.55 -298.06 188.69 C-300.39 191.78 -301.35 194.38 -301.01 198.27 C-298.76 205.49 -291.91 209.6 -285.71 213.18 C-280.97 215.48 -276.96 215.29 -271.79 214.88 C-262.45 214.25 -253.15 214.17 -243.79 214.18 C-242.04 214.18 -240.28 214.18 -238.53 214.18 C-234.87 214.18 -231.21 214.18 -227.55 214.18 C-222.98 214.19 -218.41 214.18 -213.83 214.18 C-194.18 214.16 -174.55 214.31 -154.91 215.05 C-154.22 215.08 -153.53 215.1 -152.81 215.13 C-150.96 215.19 -149.11 215.26 -147.25 215.34 C-144.3 215.46 -144.3 215.46 -141.38 214.31 C-141.15 209.24 -141.79 204.75 -142.8 199.79 C-145.55 186.23 -145.83 173.11 -145.38 159.31 C-148.37 158.42 -150.8 158.26 -153.91 158.49 Z M-262.38 221.31 C-261.56 223.49 -261.56 223.49 -259.39 224.18 C-258.5 224.47 -257.61 224.76 -256.7 225.05 C-255.15 225.56 -255.15 225.56 -253.57 226.08 C-252.41 226.44 -251.26 226.81 -250.06 227.19 C-248.23 227.77 -248.23 227.77 -246.36 228.37 C-185.47 249.59 -185.47 249.59 -122.38 258.31 C-122.04 257.65 -121.72 256.99 -121.38 256.31 C-122.45 254.08 -123.59 251.96 -124.81 249.81 C-128.55 243.08 -131.75 236.21 -134.76 229.13 C-136.54 224.89 -136.54 224.89 -139.38 221.31 C-142.49 221.06 -145.51 220.94 -148.62 220.9 C-149.6 220.88 -150.57 220.86 -151.57 220.84 C-154.84 220.78 -158.11 220.73 -161.38 220.69 C-163.66 220.65 -165.95 220.61 -168.24 220.57 C-187.19 220.29 -206.14 220.21 -225.09 220.19 C-227.31 220.19 -229.53 220.18 -231.75 220.18 C-235.93 220.17 -240.1 220.18 -244.28 220.18 C-245.53 220.18 -246.78 220.18 -248.07 220.17 C-249.23 220.18 -250.38 220.18 -251.57 220.18 C-253.08 220.18 -253.08 220.18 -254.62 220.19 C-257.3 220.31 -259.76 220.71 -262.38 221.31 Z M106.62 1172.31 C103.58 1176.44 102.31 1181.04 100.81 1185.88 C93.06 1209.89 93.06 1209.89 83.63 1215.5 C80.59 1216.73 78.72 1216.28 75.62 1215.31 C72.46 1211.91 70.78 1208.65 69.19 1204.31 C66.61 1197.86 66.61 1197.86 61.62 1193.31 C58.57 1193.07 58.57 1193.07 55.62 1194.31 C54.98 1194.99 54.33 1195.67 53.66 1196.38 C48.99 1199.35 44.52 1198.62 39.12 1198.38 C30.29 1197.61 30.29 1197.61 22.62 1201.31 C20.52 1203.74 18.73 1206.14 17.06 1208.88 C13.28 1212.65 8.63 1213.68 3.62 1215.31 C-2.55 1217.46 -7.12 1219.24 -11.38 1224.31 C-11.87 1224.81 -11.87 1224.81 -12.38 1225.31 C-13.33 1232.85 -10.82 1237.32 -6.38 1243.31 C8.7 1262.05 35.64 1270.82 58.62 1273.75 C74.55 1275.43 93.51 1273.66 106.7 1263.93 C116.86 1255.43 118.9 1243.74 120.77 1231.08 C120.94 1229.97 121.11 1228.85 121.29 1227.7 C121.64 1225.36 122 1223.02 122.34 1220.68 C122.88 1217.12 123.42 1213.56 123.98 1210 C124.32 1207.72 124.67 1205.43 125.02 1203.14 C125.18 1202.09 125.34 1201.04 125.51 1199.95 C126.38 1194.01 126.96 1188.32 126.62 1182.31 C124.81 1180.11 124.81 1180.11 122.12 1179 C121.22 1178.54 120.31 1178.07 119.38 1177.6 C118.47 1177.17 117.56 1176.75 116.62 1176.31 C115.84 1175.9 115.06 1175.48 114.25 1175.06 C110.63 1173.01 110.63 1173.01 106.62 1172.31 Z M133.62 1187.31 C132.85 1190.96 132.2 1194.62 131.62 1198.31 C131.47 1199.22 131.31 1200.12 131.14 1201.06 C130.86 1203.8 130.79 1205.68 131.62 1208.31 C135.82 1212.3 141.75 1215.45 147.62 1215.31 C150.92 1213.85 151.53 1212.54 152.88 1209.19 C153.47 1206.1 153.71 1203.67 153.67 1200.57 C153.67 1199.77 153.66 1198.97 153.65 1198.15 C153.64 1197.54 153.63 1196.94 153.62 1196.31 C150.86 1194.8 148.09 1193.31 145.31 1191.81 C144.53 1191.38 143.74 1190.95 142.93 1190.51 C141.8 1189.9 141.8 1189.9 140.64 1189.28 C139.94 1188.9 139.24 1188.53 138.53 1188.14 C136.51 1187.11 136.51 1187.11 133.62 1187.31 Z M161.62 1201.31 C158.93 1205.36 158.07 1209.61 156.82 1214.28 C155.53 1217.56 154.65 1218.61 151.62 1220.31 C146.12 1222.1 141.75 1220.53 136.62 1218.31 C135.63 1217.65 134.64 1216.99 133.62 1216.31 C132.31 1216.31 130.99 1216.31 129.62 1216.31 C129.46 1217.23 129.3 1218.15 129.14 1219.09 C128.53 1222.54 127.91 1225.99 127.28 1229.44 C127.01 1230.92 126.75 1232.4 126.49 1233.89 C125.12 1241.71 123.73 1249.17 120.29 1256.42 C119.35 1258.49 119.35 1258.49 120.62 1261.31 C153.53 1265.04 153.53 1265.04 183.71 1255.19 C190.88 1248.15 191.83 1238.81 192 1229.31 C192.04 1228.52 192.07 1227.72 192.11 1226.91 C192.17 1223.01 192.05 1220.93 189.8 1217.67 C185.23 1214.27 180.43 1211.41 175.5 1208.56 C174.5 1207.97 173.5 1207.38 172.46 1206.78 C167.23 1203.66 167.23 1203.66 161.62 1201.31 Z " fill="#000000" transform="translate(307.375,-0.3125)"/>
<path d="M0 0 C1.32 0 2.64 0 4 0 C7.18 7.16 10.16 14.34 12.88 21.68 C16.38 31.13 20.26 40.16 24.98 49.06 C26.01 51.03 27.01 53.01 28.01 54.99 C37.54 73.76 49.4 91.17 62 108 C62.67 108.9 62.67 108.9 63.36 109.82 C71.67 120.93 80.61 131.47 89.95 141.73 C91.87 143.86 93.75 146.01 95.62 148.19 C98.38 151.35 101.28 154.3 104.27 157.23 C106.01 159.01 107.63 160.85 109.25 162.75 C115.65 170.15 122.67 176.98 130.11 183.32 C132.16 185.14 134.08 187.05 136 189 C139.11 192.14 142.29 195.11 145.65 197.98 C147.42 199.5 149.17 201.03 150.91 202.58 C183.12 230.92 227.62 265.44 272.69 265.38 C273.73 265.37 274.78 265.37 275.86 265.37 C286.39 265.22 295.27 263.01 305 259 C301.77 256.85 298.41 255.2 294.94 253.5 C281.11 246.63 267.89 239.06 254.88 230.75 C253.82 230.08 252.76 229.4 251.68 228.71 C245.95 225.01 240.38 221.2 235 217 C235.33 215.35 235.66 213.7 236 212 C241.16 212.52 244.85 215.11 249.12 217.81 C249.92 218.3 250.71 218.79 251.53 219.3 C255.55 221.8 259.55 224.35 263.53 226.94 C288.29 243.02 317.23 261.06 348.06 255.35 C356.87 253.21 364.28 249.64 372 245 C372 244.01 372 243.02 372 242 C371.07 241.51 370.13 241.03 369.17 240.52 C353.5 232.14 339.58 221.39 326 210 C323.17 207.71 320.34 205.42 317.51 203.14 C314.85 200.87 312.34 198.6 310 196 C310.19 193.19 310.19 193.19 311 191 C315.06 191.59 317.51 193.69 320.69 196.19 C321.25 196.63 321.82 197.07 322.4 197.52 C325.59 200.02 328.71 202.59 331.79 205.21 C351.9 222.32 378.58 244.23 406.39 244.1 C407.6 244.09 408.8 244.09 410.04 244.09 C411.91 244.08 411.91 244.08 413.81 244.06 C415.08 244.06 416.34 244.05 417.65 244.05 C420.76 244.04 423.88 244.02 427 244 C426.47 243.69 425.93 243.38 425.39 243.06 C405.83 231.59 388.88 219.68 373.38 203.06 C372.88 202.53 372.38 202 371.87 201.45 C369.17 198.49 366.79 195.6 365 192 C365.31 189.19 365.31 189.19 366 187 C369.62 187.57 371.17 188.86 373.61 191.54 C374.28 192.26 374.96 192.99 375.65 193.74 C376.34 194.51 377.04 195.27 377.75 196.06 C390.57 210.04 403.41 221.6 420 231 C420.57 231.33 421.15 231.65 421.74 231.99 C440.69 242.59 467.3 253.57 489.31 249.31 C494.12 247.6 496.79 245.38 499.11 240.82 C505.03 222.08 495.31 198.35 486.98 181.74 C483.33 174.73 479.23 168.04 474.88 161.44 C474.4 160.71 473.92 159.99 473.43 159.24 C470.37 154.72 467.05 150.74 463.23 146.84 C462 145 462 145 462.31 142.77 C462.54 142.18 462.76 141.6 463 141 C469.36 141.88 472.02 145.17 476 150 C492.93 172.48 508.43 200.8 508.31 229.62 C508.33 230.42 508.34 231.21 508.36 232.03 C508.37 238.72 506.83 243.85 503.44 249.69 C497.26 255.55 490.16 257.8 481.74 258.13 C470.2 257.72 459.28 255.3 448.37 251.64 C441.79 249.49 436.92 249.24 430.26 250.98 C426.13 252.04 422.12 252.51 417.88 252.75 C417.14 252.79 416.41 252.83 415.65 252.87 C405.86 253.28 396.48 251.9 387.28 248.49 C383.19 247.61 380.04 248.41 376.43 250.45 C375.59 251.05 374.74 251.64 373.88 252.25 C357.82 262.85 339.58 266.36 320.69 263.19 C315.36 262.53 311.23 264.53 306.39 266.59 C281.46 276.97 256.35 274.46 231.87 264.48 C214.53 257.1 198.32 247.94 183 237 C182.21 236.44 181.42 235.88 180.61 235.3 C170.49 228.09 160.84 220.51 151.51 212.31 C149.29 210.39 146.99 208.57 144.69 206.75 C137.51 200.92 130.91 194.47 124.22 188.1 C122.02 186.02 119.81 183.97 117.6 181.91 C116.53 180.93 116.53 180.93 115.45 179.92 C114.11 178.69 112.78 177.45 111.44 176.22 C107.56 172.62 104.03 168.84 100.58 164.82 C98.65 162.6 96.61 160.54 94.5 158.5 C90.45 154.49 86.69 150.33 83 146 C82.11 144.97 81.21 143.94 80.32 142.91 C60.37 119.91 42.14 95.46 27 69 C26.26 67.71 26.26 67.71 25.5 66.39 C17.15 51.69 10.1 36.76 4 21 C3.7 20.24 3.4 19.48 3.09 18.69 C-1.41 7.16 -1.41 7.16 -1 1 C-0.67 0.67 -0.34 0.34 0 0 Z " fill="#000000" transform="translate(332,844)"/>
<path d="M0 0 C5.37 3.03 8.47 7.55 10.37 13.34 C11.24 20.73 11 26.4 6.37 32.34 C1.34 37.48 -3.03 40.33 -10.32 40.77 C-17.14 40.59 -22.81 38.29 -27.55 33.32 C-31.22 28.32 -33.08 23.57 -32.63 17.34 C-31.47 10.86 -28.7 5.58 -23.63 1.34 C-15.54 -3.64 -8.66 -3.72 0 0 Z " fill="#000000" transform="translate(281.62890625,108.6640625)"/>
<path d="M0 0 C8.73 7.13 18.07 15.84 19.56 27.59 C19.78 31.16 19.45 33.39 17.69 36.5 C13.64 40.12 10.01 40.85 4.69 40.62 C-8.35 38.87 -20.61 29.42 -28.47 19.13 C-32.55 13.47 -35.82 8.83 -35.88 1.69 C-35.89 0.83 -35.9 -0.02 -35.92 -0.9 C-35.67 -3.58 -35.15 -5.13 -33.69 -7.38 C-22.89 -14.57 -9.09 -6.84 0 0 Z M-29.69 0.62 C-26.85 12.06 -19.05 21.5 -9.01 27.65 C-0.4 32.7 -0.4 32.7 9.31 33.62 C10.3 32.97 11.29 32.31 12.31 31.62 C12.05 24.44 9.68 20.25 5.31 14.62 C4.55 13.64 3.79 12.66 3 11.64 C-3.41 4.02 -13.58 -2.24 -23.44 -3.81 C-26.5 -3.22 -27.72 -1.71 -29.69 0.62 Z " fill="#000000" transform="translate(420.6875,59.375)"/>
<path d="M0 0 C10.57 4.45 15.64 13.94 20 24 C23.01 31.55 23.79 41.82 20.59 49.29 C18.17 53.42 16.49 55.49 11.88 57.06 C5.31 56.96 0.49 54.37 -4.24 49.86 C-12.8 39.85 -17.67 26.92 -16.88 13.69 C-16.15 8.33 -13.91 5.04 -10.25 1.12 C-6.81 -0.59 -3.7 -0.71 0 0 Z M-9 10 C-11.88 17.34 -9.41 25.89 -7 33 C-4.05 39.37 -0.21 45.42 6 49 C9.17 49.84 9.17 49.84 12 49 C15.12 45.84 15.43 43.35 15.44 39 C15.14 27.55 11.36 18.58 3.46 10.4 C1.16 8.28 -0.59 7.08 -3.69 6.5 C-6.45 7.1 -7.36 7.71 -9 10 Z " fill="#000000" transform="translate(447,126)"/>
<path d="M0 0 C10.3 4.99 18.1 14.34 22 25 C23.16 29.53 23.6 32.69 21.62 37 C20 39 20 39 19 40 C12.83 40.52 9.97 39.99 5 36 C3.55 34.98 3.55 34.98 2.06 33.94 C-4.68 28.21 -10.46 18.19 -11.38 9.38 C-10.97 5.75 -10.2 3.87 -8 1 C-5.01 -0.5 -3.36 -0.43 0 0 Z M-3 7 C-4.51 11.4 -3.27 14.11 -1.51 18.26 C1.72 24.12 6.43 29.29 12 33 C13.32 33 14.64 33 16 33 C15.36 23.04 10.06 16.62 3.18 9.75 C1.03 8.02 -0.3 7.39 -3 7 Z " fill="#000000" transform="translate(397,111)"/>
<path d="M0 0 C0.99 0.66 1.98 1.32 3 2 C2.94 5.31 2.94 5.31 2 9 C-2.02 11.57 -3.99 12.03 -8.75 11.88 C-12 11 -12 11 -14 9.75 C-15 8 -15 8 -14.94 5.5 C-13.81 2.5 -12.73 1.61 -10 0 C-6.25 -1.25 -3.85 -0.76 0 0 Z " fill="#000000" transform="translate(147,192)"/>
<path d="M0 0 C1.32 0 2.64 0 4 0 C11.32 17.13 11.32 17.13 11 26 C9.35 26.33 7.7 26.66 6 27 C3.63 22.6 2.05 18.25 0.81 13.44 C0.64 12.79 0.46 12.14 0.28 11.48 C-0.66 7.92 -1.31 4.68 -1 1 C-0.67 0.67 -0.34 0.34 0 0 Z " fill="#000000" transform="translate(229,842)"/>
<path d="M0 0 C2.58 0.37 3.74 0.7 5.49 2.68 C7.02 5.11 8.53 7.53 10 10 C10.58 10.97 11.16 11.94 11.75 12.94 C14.96 18.53 14.96 18.53 16 21 C15.67 21.99 15.34 22.98 15 24 C12.68 24.25 12.68 24.25 10 24 C8.41 22.34 8.41 22.34 7.07 20.02 C6.59 19.18 6.1 18.35 5.6 17.49 C5.11 16.61 4.63 15.72 4.12 14.81 C3.61 13.95 3.1 13.08 2.58 12.19 C-1.09 5.72 -1.09 5.72 -0.63 2.21 C-0.42 1.48 -0.22 0.75 0 0 Z " fill="#000000" transform="translate(293,1006)"/>
<path d="M0 0 C7.34 2.07 12.83 8.67 18 14 C17.34 15.32 16.68 16.64 16 18 C11.37 17.52 9.17 15.77 5.81 12.62 C4.95 11.83 4.09 11.04 3.21 10.23 C1 8 1 8 -1 5 C-0.62 2.31 -0.62 2.31 0 0 Z " fill="#000000" transform="translate(382,1082)"/>
<path d="M0 0 C1.94 0.06 1.94 0.06 4 1 C5.75 5.24 6.37 9.2 6.69 13.75 C6.77 14.88 6.86 16.01 6.95 17.17 C7 20 7 20 6 22 C4.35 21.67 2.7 21.34 1 21 C-0.78 16.41 -1.24 12.6 -1.19 7.69 C-1.18 6.45 -1.17 5.22 -1.17 3.95 C-1 1 -1 1 0 0 Z " fill="#000000" transform="translate(269,870)"/>
<path d="M0 0 C2.65 1 3.8 1.65 5.23 4.14 C7.1 9.11 8.67 13.68 9 19 C8.67 19.66 8.34 20.32 8 21 C6.35 20.67 4.7 20.34 3 20 C2.13 17.59 1.28 15.17 0.44 12.75 C0.19 12.07 -0.06 11.39 -0.31 10.68 C-2.5 4.32 -2.5 4.32 -1 1 C-0.67 0.67 -0.34 0.34 0 0 Z " fill="#000000" transform="translate(248,792)"/>
<path d="M0 0 C4.91 0.42 6.78 2.39 10 6 C10.56 6.58 11.11 7.15 11.68 7.75 C12.24 8.35 12.8 8.94 13.38 9.56 C13.9 10.12 14.42 10.68 14.96 11.25 C16 13 16 13 15.66 15.21 C15.44 15.8 15.23 16.39 15 17 C11.06 16.76 9.38 16.36 6.48 13.6 C5.72 12.62 4.97 11.64 4.19 10.62 C3.42 9.65 2.65 8.67 1.86 7.66 C0 5 0 5 -1 2 C-0.67 1.34 -0.34 0.68 0 0 Z " fill="#000000" transform="translate(332,1068)"/>
<path d="M0 0 C2.29 0.11 2.29 0.11 5 1 C6.8 3.77 6.8 3.77 8.31 7.25 C8.82 8.39 9.34 9.53 9.86 10.7 C10.92 13.76 11.26 15.82 11 19 C9.68 19.33 8.36 19.66 7 20 C3.05 14.42 0.24 8.78 -1 2 C-0.67 1.34 -0.34 0.68 0 0 Z " fill="#000000" transform="translate(302,944)"/>
<path d="M0 0 C2.24 -0.27 2.24 -0.27 5 0 C7.17 1.86 7.17 1.86 9.19 4.31 C9.86 5.11 10.54 5.91 11.23 6.74 C13 9 13 9 15 12 C14.62 14.69 14.62 14.69 14 17 C10.69 16.69 9.25 16.24 6.8 13.93 C6.12 13.06 5.45 12.2 4.75 11.31 C4.06 10.46 3.38 9.61 2.67 8.74 C0.85 5.75 0.34 3.46 0 0 Z " fill="#000000" transform="translate(412,1052)"/>
<path d="M0 0 C1.68 0.29 3.34 0.62 5 1 C5.68 2.87 6.34 4.75 7 6.62 C7.37 7.67 7.74 8.71 8.12 9.79 C9 13.02 9.16 15.67 9 19 C7.68 19.33 6.36 19.66 5 20 C2.63 17.13 1.35 14.63 0.31 11.06 C0.06 10.23 -0.19 9.39 -0.45 8.54 C-1.02 5.93 -1.17 3.66 -1 1 C-0.67 0.67 -0.34 0.34 0 0 Z " fill="#000000" transform="translate(343,938)"/>
<path d="M0 0 C2.36 0.21 2.36 0.21 5 1 C7.89 5.51 9.74 11.66 10 17 C9.34 17.99 8.68 18.98 8 20 C6.14 19.82 6.14 19.82 4 19 C1.28 13.93 -0.56 7.73 -1 2 C-0.67 1.34 -0.34 0.68 0 0 Z " fill="#000000" transform="translate(259,936)"/>
<path d="M0 0 C2.12 0.38 2.12 0.38 4 1 C5.96 16.09 5.96 16.09 4 20 C1.56 19.62 1.56 19.62 -1 19 C-2.52 15.97 -2.18 12.82 -2.19 9.5 C-2.2 8.81 -2.21 8.12 -2.22 7.41 C-2.23 5.61 -2.12 3.8 -2 2 C-1.34 1.34 -0.68 0.68 0 0 Z " fill="#000000" transform="translate(273,749)"/>
<path d="M0 0 C1.32 0 2.64 0 4 0 C5.57 3.14 5.42 6.54 5.62 10 C5.68 10.74 5.73 11.47 5.78 12.23 C6.12 17.75 6.12 17.75 5 20 C0.12 19.12 0.12 19.12 -1 18 C-1.1 15.16 -1.14 12.34 -1.12 9.5 C-1.13 8.7 -1.13 7.9 -1.14 7.08 C-1.13 1.13 -1.13 1.13 0 0 Z " fill="#000000" transform="translate(284,817)"/>
<path d="M0 0 C4.61 1.38 6.57 3.46 9.38 7.31 C10.08 8.26 10.79 9.2 11.52 10.18 C13 13 13 13 12.73 15.86 C12.37 16.92 12.37 16.92 12 18 C8.5 17.73 7.23 17.24 4.76 14.67 C3.73 13.23 3.73 13.23 2.69 11.75 C1.99 10.8 1.29 9.84 0.57 8.86 C-1.07 5.87 -1.44 4.35 -1 1 C-0.67 0.67 -0.34 0.34 0 0 Z " fill="#000000" transform="translate(355,1027)"/>
<path d="M0 0 C1.88 0.12 1.88 0.12 4 1 C8.1 6.61 8.11 11.29 8 18 C7.01 18.33 6.02 18.66 5 19 C2.25 16.64 1.31 14.59 0.31 11.12 C0.06 10.28 -0.19 9.44 -0.45 8.57 C-1.01 5.95 -1.17 3.67 -1 1 C-0.67 0.67 -0.34 0.34 0 0 Z " fill="#000000" transform="translate(303,897)"/>
<path d="M0 0 C0.99 0.33 1.98 0.66 3 1 C3.5 7.12 2.25 10.02 -1 15 C-2.32 15 -3.64 15 -5 15 C-6.48 11.17 -5.75 8.87 -4.19 5.25 C-2.31 1.15 -2.31 1.15 0 0 Z " fill="#000000" transform="translate(228,753)"/>
</svg>
