<?xml version="1.0" encoding="utf-8"?>
<!-- Generator: Adobe Illustrator 25.2.1, SVG Export Plug-In . SVG Version: 6.00 Build 0)  -->
<svg version="1.1" id="Layer_2" xmlns="http://www.w3.org/2000/svg" xmlns:xlink="http://www.w3.org/1999/xlink" x="0px" y="0px"
	 viewBox="0 0 1000 1000" style="enable-background:new 0 0 1000 1000;" xml:space="preserve">
<style type="text/css">
	.st0{fill:none;stroke:#000000;stroke-width:5;stroke-miterlimit:10;}
	.st1{fill:none;stroke:#000000;stroke-width:5;stroke-linecap:round;stroke-miterlimit:10;}
	.st2{fill:none;stroke:#000000;stroke-width:5;stroke-linejoin:bevel;stroke-miterlimit:10;}
</style>
<path class="st0" d="M251.94,434.48c5.47-18.16,14.62-33.26,27.21-48.13c37.68-44.5,106.31-95.44,220.6-88.83
	c144.66,8.37,221.44,115.89,252.52,173.81c25.56,47.63,22.62,106.01-9.35,149.6c-30.49,41.58-92.54,79.34-216.84,82.21
	c-140.97,3.26-212.39-58.39-248.58-122.34l-1.03-0.3c0,0-104.07-23.12-108.3-106.24c-4.23-83.13-2.11-109.17-68.33-115.51
	c-66.21-6.34-60.93-71.3-28.18-112.7c37.33-47.19,140.18-91.57,198.64-9.86s-13.38,123.27-28.18,150.04s155.69,466.32,523.2,186.72"
	/>
<path class="st1" d="M49.14,316.49c0,0,23.23,28.18,44.37-5.64"/>
<path class="st0" d="M279.76,252.24c0,0,77.19-118.19,184.26-99.87c108.07,18.49-73.64,125.07-62.92,155.47"/>
<path class="st0" d="M641.94,345.58c0,0,35.52-59.56,110.18-39.74s157.79,51.1,135.95,98.5c-21.84,47.4-130.54-36.59-164.04,23.37"
	/>
<path class="st0" d="M748.13,611.69c0,0,57.52,32.35,126.55-41.61s110.59,25.36,42.26,93.68s-161.17,158.9-242.25,9.57"/>
<path class="st0" d="M360.54,665.53c0,0-69.8,125.02,35.15,167.99s219.07,42.97,211.32-23.25
	c-7.75-66.21-149.77-23.95-167.16-114.46"/>
<path class="st0" d="M461.61,296.73c0,0-35.68,80.07,29.44,122s139.17,17.65,167.71-62.19"/>
<path class="st0" d="M277.26,489.59c60.11-13.07,213.19-49.34,196.7,169.13"/>
<path class="st0" d="M561.66,664.53c1.1-32.94,21.65-62.55,54.42-74.87c33.22-12.49,69.37-2.57,91.84,22.23"/>
<path class="st1" d="M381.91,358c0,0-69.37-3.65-57.2,51.12s80.32,64.5,90.06,6.09S381.91,358,381.91,358z"/>
<path class="st1" d="M678.52,473.4c0,0-46.73-2.46-38.53,34.43s54.11,43.45,60.66,4.1C707.21,472.58,678.52,473.4,678.52,473.4z"/>
<path class="st1" d="M472.7,494.77c-0.96-12.94,4.6-25.63,14.59-33.89c10-8.26,26.66-15.32,51.72-6.71
	c27.26,9.36,41.75,23.15,49.06,32.88c4.82,6.42,7.61,14.11,8.15,22.11c1.21,17.83-2.85,50.82-52.62,37.89
	C491.94,533.63,474.22,515.48,472.7,494.77z"/>
<path class="st2" d="M287.47,322.63c0,0,5.11,37.44,44.37,16.76"/>
<path d="M159.7,276.38c5.4-12.96,0.19-27.45-11.64-32.38c-11.83-4.93-25.79,1.58-31.19,14.54c-5.4,12.96-0.19,27.45,11.64,32.38
	C140.34,295.85,154.3,289.34,159.7,276.38z M125.43,273.07c-1.58-0.5-2.39-2.4-1.81-4.24c0.58-1.85,2.33-2.95,3.91-2.45
	c1.58,0.5,2.39,2.4,1.81,4.24C128.76,272.47,127.01,273.57,125.43,273.07z M143.63,273.87c-4.21-1.32-6.38-6.38-4.84-11.31
	c1.54-4.93,6.21-7.85,10.42-6.54c4.21,1.32,6.38,6.38,4.84,11.31C152.51,272.26,147.84,275.19,143.63,273.87z"/>
</svg>
