<?xml version="1.0" encoding="utf-8"?>
<!-- Generator: Adobe Illustrator 23.0.1, SVG Export Plug-In . SVG Version: 6.00 Build 0)  -->
<svg version="1.0" id="Слой_1" xmlns="http://www.w3.org/2000/svg" xmlns:xlink="http://www.w3.org/1999/xlink" x="0px" y="0px"
	 viewBox="0 0 720 720" style="enable-background:new 0 0 720 720;" xml:space="preserve">
<g id="Слой_14">
	<path d="M361.8,346.9c-58,0-105.2,25.7-105.2,57.4c0,31.6,47.2,57.4,105.2,57.4c58,0,105.2-25.7,105.2-57.4
		C467,372.7,419.8,346.9,361.8,346.9 M361.8,455.9c-54.8,0-99.5-23.1-99.5-51.6c0-28.4,44.6-51.6,99.5-51.6
		c54.8,0,99.5,23.1,99.5,51.6C461.2,432.8,416.6,455.9,361.8,455.9"/>
</g>
<g id="Слой_13">
	<path d="M440.7,326.2c8.2,0,14.9-6.7,14.9-14.9c0-8.2-6.7-14.9-14.9-14.9c-8.2,0-14.9,6.7-14.9,14.9
		C425.8,319.5,432.5,326.2,440.7,326.2"/>
</g>
<g id="Слой_12">
	<path d="M286.4,326.2c8.2,0,14.9-6.7,14.9-14.9c0-8.2-6.7-14.9-14.9-14.9c-8.2,0-14.9,6.7-14.9,14.9
		C271.5,319.5,278.2,326.2,286.4,326.2"/>
</g>
<g id="Слой_11">
	<path d="M657.3,377.2l-97.1-7.1c0.3-2.9,0.6-5.8,0.6-8.7c0-1.9-0.1-3.8-0.2-5.7l93.7-17.6c1.6-0.3,2.6-1.8,2.3-3.4
		c-0.3-1.6-1.8-2.6-3.4-2.3l-93.3,17.5c-2.2-14.3-8.5-28.1-18.9-41.1v-0.3c0-34.3-9.9-66.3-26.9-93.4c1.1,0,2.1,0.1,3.1,0.1
		c39,0,76.1-29.7,83.3-68.4c3.4-18.2,0.7-38.2-7.7-56.2C573.1,47.8,521.5,22.1,475.4,32c-46.1,9.9-82.5,54.6-82.9,101.8
		c0,0.3,0,0.5,0.1,0.8c-9.1-1.4-18.4-2.2-27.9-2.2c-5.5,0-10.9,0.3-16.3,0.8c1.8-46-30.4-91.7-74.6-105
		c-45.1-13.6-98.6,7.8-121.8,48.9c-9.8,17.3-14.1,37-12.2,55.4c4.2,40.2,40.4,73.5,80.5,75.1c-19.9,28.4-31.1,62-31.8,97.3
		c-8.7,9.9-15,20.5-18.8,31.5L64.4,323.5c-1.6-0.2-3,0.9-3.2,2.5c-0.2,1.6,0.9,3,2.5,3.2l104.4,12.7c-1.6,6.1-2.5,12.4-2.6,18.6
		c-29.1,6.9-58,14.8-86.4,23.9c-1.5,0.5-2.4,2.1-1.9,3.6c0.4,1.2,1.5,2,2.7,2c0.3,0,0.6,0,0.9-0.1c27.8-8.9,56.2-16.7,84.8-23.5
		c0.4,5.4,1.3,10.7,2.8,15.8c-26.4,12.6-52.4,26.3-77.7,40.8c-1.4,0.8-1.9,2.6-1.1,3.9c0.5,0.9,1.5,1.4,2.5,1.4c0.5,0,1-0.1,1.4-0.4
		c24.9-14.3,50.6-27.8,76.6-40.3c13.5,37,55.1,68,112.4,83.4c0,0,0,0,0,0c-3.1,10.1-5.6,20.4-7.8,30.7c-14,31.2-18.1,43.1-21,74.5
		c-12.9-7.3-30.7-6-43.5,3.7c-12.7,9.6-20.2,26.5-19.7,44.3c0.6,21,12,41.1,29.7,52.4c10.4,6.7,22.7,10.1,35.1,10.1
		c7.6,0,15.2-1.3,22.4-4c7.5,10.4,19.4,17.1,31.7,17.6c0.5,0,0.9,0,1.4,0c13.7,0,26.9-8,32.5-19.9c1.4-2.9,2.3-6,2.9-9.1
		c6.8-0.2,13.7-0.2,20.4-0.2c6.6,0,13.4-0.1,20.2-0.2c0.6,3.3,1.5,6.5,2.9,9.5c5.6,11.9,18.9,19.9,32.5,19.9c0.5,0,0.9,0,1.4,0
		c13.4-0.5,26.2-8.3,33.5-20.4c7.5,3,15.5,4.4,23.6,4.4c12.3,0,24.6-3.4,35.1-10.1c17.7-11.3,29-31.4,29.7-52.4
		c0.5-17.8-7-34.7-19.7-44.3c-3-2.3-6.3-4.1-9.7-5.4c10.4-2,20.6-5,27.4-11.7c23.2-22.9,12.1-56.8,7.9-69.6
		c-0.3-0.9-0.6-1.7-0.8-2.4c-3.9-12.6-3.7-31.4,3.4-41.3c6.2-8.7,15.6-13.7,25.5-18.9c1.8-1,3.7-2,5.5-3c1.2-0.7,1.8-2.2,1.3-3.5
		c-0.5-1.3-1.9-2.1-3.3-1.8c-10.8,2.1-20.4,4.3-29.4,8.6c-10.7,5.2-18.7,12.9-22.5,21.9c-5.2,12.3-2.6,26.3-0.1,35.7
		c0.7,2.7,1.5,5.5,2.3,8.2c2.4,8.4,4.7,16.4,5,24.7c0.3,9.1-2.9,21.6-12.6,26.9c-2.4,1.3-5.3,2.2-9.1,2.9c-3,0.5-6.2,0.4-10-0.2
		c-10.1-1.7-19.3,0.6-26.8,6.7c-2.3-16.2-4.7-24.3-15.5-48.2c-0.1-0.1-0.2-0.3-0.2-0.4c-2-13.7-4.8-26.9-8.5-39.3
		c48.5-15.6,84.3-43,98.6-75.2l94.6,27.1c0.3,0.1,0.5,0.1,0.8,0.1c1.3,0,2.4-0.8,2.8-2.1c0.4-1.5-0.4-3.1-2-3.6l-94-26.9
		c1.3-3.7,2.4-7.5,3.2-11.3l97.6,7.2c0.1,0,0.1,0,0.2,0c1.5,0,2.8-1.2,2.9-2.7C660.1,378.7,658.9,377.3,657.3,377.2 M505.1,202.1
		c-18.9-24.9-44.4-44.7-73.7-56.7c0-28.6,23.6-55.2,52-58.3c28.8-3.2,58,18.2,63.8,46.6c5.7,28.4-13,59.4-40.8,67.6
		C505.8,201.5,505.4,201.8,505.1,202.1 M398.2,133.8c0.4-44.5,34.8-86.8,78.4-96.2c43.5-9.4,92.3,14.9,111,55.4
		c7.9,17,10.4,35.7,7.3,52.7c-7.1,37.8-46.6,67.2-84.8,63.3c-0.5-0.8-1.1-1.6-1.6-2.3c30.3-9.2,50.6-43.1,44.3-74.1
		c-6.3-31.3-38.3-54.7-70.1-51.2c-30.5,3.4-56,31.3-57.1,61.8c-9-3.3-18.3-5.9-27.9-7.7C398,135,398.2,134.4,398.2,133.8
		 M145.6,131.8c-1.8-17.2,2.3-35.7,11.5-52C179,41,229.6,20.7,272.2,33.6c42,12.7,72.5,56.4,70.4,100.2c-9.1,1.1-18.1,3-26.9,5.5
		c0.7-31.3-24.4-61.1-55.5-65.3c-31.6-4.3-64.3,18.3-71.3,49.4c-6.8,29.8,11,62.7,39.2,74c-1.2,1.5-2.4,2.9-3.5,4.4
		C186.3,202.3,149.6,169.9,145.6,131.8 M232.1,192.7c-26.7-9.6-43.8-40.3-37.5-68.1c6.4-28.3,36.2-48.9,64.9-45
		c28.8,3.9,51.9,31.7,50.5,60.7c0,0.2,0,0.5,0.1,0.7c-25.7,8.4-49.3,22.6-69,42.1C237.9,186.2,234.9,189.4,232.1,192.7 M223.4,671.9
		c-16.1-10.3-26.5-28.6-27-47.8c-0.5-15.9,6.2-31.1,17.4-39.5c12.2-9.2,29.7-9.6,40.7-0.9c0.8,0.7,2,0.8,2.9,0.4
		c1-0.4,1.6-1.3,1.7-2.4c2.1-25.3,4.5-37.7,11.4-55.3c-6.5,45.8-5.5,89.8-3.9,116.2c0.7,11.3,2,24.2,7.9,35.3
		C257.7,683.8,238.5,681.6,223.4,671.9 M480.7,562.4c6.8-6.8,15.2-9.5,24.8-7.8c4.4,0.8,8.4,0.8,12,0.2c4.4-0.8,7.8-1.9,10.8-3.5
		c9.9-5.4,16.1-18,15.6-32.1c-0.3-9-2.8-17.7-5.2-26.1c-0.8-2.7-1.5-5.4-2.2-8.1c-2.2-8.6-4.7-21.3-0.1-32
		c3.3-7.7,10.2-14.4,19.7-19c2.4-1.2,4.9-2.2,7.5-3.1c-5.4,3.5-10.3,7.7-14.3,13.1c-8.4,11.7-8.4,32.6-4.2,46.3
		c0.2,0.7,0.5,1.5,0.8,2.5c3.9,11.8,14.1,43.2-6.5,63.7c-7.8,7.7-22.1,9.9-34.7,11.9c-2.5,0.4-5,0.8-7.4,1.2
		c-5.4,0.5-10.6,2-15.2,4.6c-0.3-2.1-0.5-4.1-0.7-5.9c-0.3-2.1-0.5-4-0.7-5.8C480.7,562.4,480.7,562.4,480.7,562.4 M475.6,569
		c0.4,3.2,0.8,6.7,1.3,10.6c0.1,1,0.8,1.9,1.8,2.3c1,0.4,2.1,0.2,2.9-0.4c2.5-2,5.4-3.5,8.5-4.6c0.1,0,0.2,0.1,0.3,0.1
		c0.3,0,0.5,0,0.8-0.1c2.1-0.6,4.6-1.1,7.3-1.6c8.2-0.5,16.9,1.9,23.8,7.1c11.2,8.5,17.9,23.6,17.4,39.5
		c-0.6,19.1-10.9,37.4-27,47.8c-15.5,10-35.6,12-52.8,5.4c4.7-10.4,5.8-22.1,6.5-32.4c2.2-35.2,3.7-76.5,0-115.7
		C472.3,541.8,473.2,549.3,475.6,569 M460.6,642.3c-0.7,11.3-2,24.3-8.2,34.7c-6.2,10.4-17.6,17.3-29,17.8
		c-11.9,0.5-23.6-6.3-28.5-16.6c-1.6-3.3-2.4-6.7-2.8-10.3c0-0.1,0-0.2,0-0.3c-0.8-8.1,0.8-17,2.9-26.7l12.5-57.5
		c0.3-1.6-0.7-3.1-2.2-3.4c-1.6-0.3-3.1,0.7-3.4,2.2l-12.5,57.4c-1.6,7.4-3.6,16.6-3.2,25.7c-6.6,0.1-13.2,0.2-19.6,0.2
		c-6.5,0-13.1,0.1-19.7,0.2c0.5-9.3-1.5-18.6-3.2-26.1l-12.5-57.4c-0.3-1.6-1.9-2.6-3.4-2.2c-1.6,0.3-2.5,1.9-2.2,3.4l12.5,57.5
		c3.1,14,5.2,26.5,0.1,37.3c-4.8,10.2-16.5,17.1-28.5,16.6c-10.6-0.4-21.1-6.5-27.6-15.7c0-0.3-0.1-0.7-0.2-1
		c-0.3-0.7-0.8-1.1-1.4-1.4c-6.1-10.3-7.4-23.2-8.1-34.4c-1.9-30.8-2.9-85.4,7.9-138.6c0,0,0,0,0-0.1c0.2-0.4,0.3-0.9,0.2-1.3
		c2.1-9.9,4.5-19.8,7.5-29.4c0-0.1,0-0.2,0.1-0.3c9.3,2.3,18.9,4.2,28.9,5.6c15,2.2,30.6,3.3,46.1,3.3c18.1,0,35.9-1.5,53.1-4.4
		c11.8-2,23-4.6,33.7-7.8C465.7,521.1,463.9,588.9,460.6,642.3 M550.6,385.5l-31.5-9c-1.5-0.4-3.1,0.4-3.6,2c-0.4,1.5,0.5,3.1,2,3.6
		l30.8,8.8c-17.3,38.2-67.2,69.4-133.2,80.6c-16.8,2.8-34.4,4.3-52.1,4.3c-15.3,0-30.5-1.1-45.3-3.2c-41.3-6-78.7-20.3-105.3-40.3
		c-18.5-14-31.1-29.9-37.1-46.8c13.7-6.5,27.4-12.7,41.2-18.6c1.5-0.6,2.2-2.3,1.5-3.8c-0.6-1.5-2.3-2.2-3.8-1.5
		c-13.7,5.8-27.2,11.9-40.7,18.3c-1.3-4.8-2.1-9.7-2.3-14.7c14.2-3.3,28.5-6.4,42.8-9.1c1.6-0.3,2.6-1.8,2.3-3.4
		c-0.3-1.6-1.8-2.6-3.4-2.3c-13.9,2.7-27.9,5.6-41.7,8.8c0.2-5.6,1.1-11.1,2.6-16.6l39.7,4.8c0.1,0,0.2,0,0.4,0
		c1.4,0,2.7-1.1,2.9-2.5c0.2-1.6-0.9-3-2.5-3.2l-38.6-4.7c3.7-10.1,9.8-20,18-29.1c0.5-0.5,0.7-1.2,0.7-1.9
		c1.4-92.6,77.8-167.9,170.4-167.9c94,0,170.4,76.5,170.4,170.4c0,0.4,0,0.7,0,1.1c0,0.7,0.2,1.4,0.6,2
		c10.2,12.4,16.3,25.6,18.4,39.3l-33.2,6.2c-1.6,0.3-2.6,1.8-2.3,3.4c0.3,1.4,1.5,2.4,2.8,2.4c0.2,0,0.4,0,0.5-0.1l32.8-6.2
		c0.1,1.6,0.2,3.1,0.2,4.7c0,2.8-0.2,5.5-0.5,8.3l-33.1-2.4c-1.6-0.1-3,1.1-3.1,2.7c-0.1,1.6,1.1,3,2.7,3.1l32.6,2.4
		C552.8,378.8,551.8,382.2,550.6,385.5"/>
</g>
<g id="Слой_10">
	<path d="M384.2,402.9L384.2,402.9c-1.7,0-2.9,1.4-2.9,3c0.1,4.1-2.9,8.2-6.8,9.4c-3.9,1.2-8.7-0.7-10.8-4.2c-1-1.6-1.5-3.5-1.6-5.7
		c0.1-1,0.1-2,0-3.1c0.1-1,0.2-2,0.4-3.1c0.1-0.4,0.1-0.7,0-1c5-2.5,14.7-7.9,14.8-12.8c0.1-6.6-7.7-12-17.3-12.1
		c-9.7-0.1-17.6,5.1-17.7,11.6c-0.1,4.7,8.7,10.1,13.8,12.8c-0.1,0.4-0.2,0.9-0.1,1.4c0.2,1.1,0.3,2.2,0.4,3.2
		c-0.1,1.1-0.1,2.1,0,3.1c-0.2,2.2-0.8,4.1-1.8,5.6c-2.2,3.4-7,5.1-10.9,3.8c-3.9-1.3-6.8-5.5-6.6-9.6c0.1-1.6-1.1-3-2.7-3
		c-1.6-0.1-3,1.1-3,2.7c-0.4,6.7,4.2,13.3,10.5,15.4c1.5,0.5,3,0.7,4.5,0.7c0.3,0,0.6,0,1-0.1c0,1.4,0.4,2.8,1.2,4.1
		c1.5,2.6,4.3,4.6,7.3,5.1c0.8,0.2,1.7,0.2,2.6,0.2c0.7,0,1.3,0,2-0.1c5-0.6,9-4.3,10.3-9c0.5,0,1,0.1,1.5,0.1
		c1.4,0,2.8-0.2,4.1-0.6c6.4-1.9,11.1-8.4,11-15.1C387.1,404.1,385.8,402.9,384.2,402.9 M359.5,424.5c-1,0.1-1.9,0.1-2.8-0.1
		c-1.3-0.3-2.7-1.2-3.4-2.4c-0.4-0.7-0.5-1.4-0.3-2c0.1-0.3,0.1-0.5,0.1-0.8c2.3-1.1,4.4-2.8,5.9-4.9c1.5,2.3,3.6,4,6,5.2
		C364.4,422.2,362.2,424.2,359.5,424.5"/>
</g>
<g id="Слой_9">
	<path d="M471.1,658.5c0,2.7,1.3,5.3,3.6,6.7c0.6,0.4,1.6,0.6,2.7,0.6c6.7,0,20.6-6.5,29-13.1c10.9-8.5,14.9-18,11.8-27.3
		c-3.2-9.5-13.7-16.4-24.4-16.1c-10.6,0.4-20.3,8.6-22.1,18.7c-1.2,6.6-0.9,13.8-0.7,20.8C471.1,652.2,471.2,655.4,471.1,658.5
		 M477.4,629.1c1.3-7.6,8.6-13.7,16.6-13.9c8.2-0.3,16.3,4.9,18.8,12.1c1.7,4.9,0.4,9.9-3.8,15c-8.9,10.8-27.5,17.8-31.4,17.8h0
		c-0.4-0.4-0.7-0.9-0.7-1.5c0.1-3.2,0-6.6-0.1-9.9C476.5,642,476.3,635.1,477.4,629.1"/>
</g>
<g id="Слой_8">
	<path d="M261.7,646.7c-0.5-7-1-14.1-2.9-20.6c-2.8-9.9-13.3-17-23.9-16.3c-10.7,0.8-20.4,8.7-22.6,18.5
		c-2.2,9.6,2.9,18.5,14.6,25.9c8.5,5.3,21.8,10.1,28.9,10.1c1.8,0,3.1-0.3,3.9-0.9c2.1-1.7,3.2-4.4,2.9-7
		C262.2,653.3,262,650.1,261.7,646.7 M256.4,658.6c-3.8,0.4-23.1-4.5-33.1-14.4c-4.7-4.6-6.5-9.5-5.3-14.5c1.7-7.4,9.2-13.4,17.4-14
		c0.4,0,0.8,0,1.2,0c7.6,0,14.8,5.2,16.8,12.2c1.7,5.8,2.2,12.7,2.7,19.4c0.2,3.3,0.5,6.7,0.9,9.9
		C256.9,657.6,256.8,658.2,256.4,658.6"/>
</g>
<g id="Слой_7">
	<path d="M494.9,605c2.9,0.6,5.8-1.9,6.6-5.7c0.8-3.8-0.9-7.3-3.7-7.9c-2.9-0.6-5.8,1.9-6.6,5.7C490.3,600.8,492,604.3,494.9,605"/>
</g>
<g id="Слой_6">
	<path d="M518.9,606.3c2.5-2.9,2.8-6.8,0.5-8.7c-2.2-1.9-6-1.1-8.6,1.8c-2.5,2.9-2.8,6.8-0.5,8.7C512.5,610,516.4,609.2,518.9,606.3
		"/>
</g>
<g id="Слой_5">
	<path d="M516.8,620.7c0.8,2.8,4.5,4.2,8.2,3.1c3.7-1.1,6-4.3,5.2-7.1c-0.8-2.8-4.5-4.2-8.2-3.1C518.3,614.7,516,617.9,516.8,620.7"
		/>
</g>
<g id="Слой_4">
	<path d="M236.1,608.3c2.9-0.4,4.8-3.8,4.3-7.6c-0.5-3.8-3.3-6.6-6.2-6.1c-2.9,0.4-4.8,3.8-4.3,7.6
		C230.5,606,233.2,608.7,236.1,608.3"/>
</g>
<g id="Слой_3">
	<path d="M220.5,610.3c2.3-1.8,2.4-5.7,0.1-8.7c-2.3-3.1-6.1-4.1-8.4-2.4c-2.3,1.8-2.4,5.7-0.1,8.7C214.4,611,218.2,612,220.5,610.3
		"/>
</g>
<g id="Слой_2">
	<path d="M213.1,622.4c1-2.7-1-6.1-4.6-7.4c-3.6-1.4-7.3-0.2-8.4,2.5c-1,2.7,1,6.1,4.6,7.4C208.4,626.3,212.1,625.2,213.1,622.4"/>
</g>
</svg>
