<?xml version="1.0" encoding="utf-8"?>
<!-- Generator: Adobe Illustrator 23.0.1, SVG Export Plug-In . SVG Version: 6.00 Build 0)  -->
<svg version="1.0" id="Слой_1" xmlns="http://www.w3.org/2000/svg" xmlns:xlink="http://www.w3.org/1999/xlink" x="0px" y="0px"
	 viewBox="0 0 720 720" style="enable-background:new 0 0 720 720;" xml:space="preserve">
<path d="M571.3,169.5c-20.7-4-44.3,1-70.2,14.7c-1.6,0.9-3.3,1.8-4.9,2.7c-1.9-1.4-14.2-10.3-23.9-11.6c1.6-3.3,1.9-7,1-10.5
	c-2.3-8.1-11-12.9-19.4-10.5c-4.1,1.1-7.5,3.7-9.6,7.3c-2.1,3.6-2.7,7.8-1.6,11.7c1.9,6.7,8.1,11.1,15,11.1c1.4,0,2.9-0.2,4.4-0.6
	c3.4-1,6.4-3,8.5-5.7c7.9,0.4,19,7.8,22.7,10.4c-7.4,4.3-14.7,8.9-21.8,13.4c-1.8,1.1-3.6,2.3-5.4,3.4c-3.5-2.5-13.6-9.2-22-10.8
	c1.8-3.4,2.2-7.3,1.2-10.9c-2.3-8.1-10.9-12.9-19.4-10.5c-4.1,1.1-7.5,3.7-9.6,7.3c-2.1,3.6-2.7,7.8-1.6,11.7
	c1.9,6.7,8.1,11.1,15,11.1c1.4,0,2.9-0.2,4.4-0.6c3.3-0.9,6.1-2.8,8.2-5.4c7.2,0.8,16.8,6.8,21.1,9.7c-7.9,5-16,9.8-24.3,14.1
	c-1.2,0.6-2.4,1.2-3.6,1.8c-0.7-0.6-13.2-9.8-23.3-11.7c1.8-3.4,2.2-7.3,1.2-10.9c-1.1-4-3.7-7.2-7.4-9.2c-3.7-2-7.9-2.4-12-1.3
	c-6.9,1.9-11.4,7.9-11.7,14.5c-3.8-4.9-10.4-7.3-16.8-5.5c-4.1,1.1-7.5,3.7-9.6,7.3c-2.1,3.6-2.7,7.8-1.6,11.7
	c1.9,6.7,8.1,11.1,15,11.1c1.4,0,2.9-0.2,4.4-0.6c4.1-1.1,7.5-3.7,9.6-7.3c0,0,0,0,0,0c7.1,2.3,15.5,10.2,18.9,13.7
	c-11.3,2.9-23.2,5.1-35.2,6.4c-3.2-3.3-11.4-11.1-19.1-14.2c0.1-0.2,0.3-0.4,0.4-0.6c2.1-3.6,2.7-7.8,1.6-11.7
	c-2.3-8.1-10.9-12.9-19.4-10.5c-4.1,1.1-7.5,3.7-9.6,7.3c-2.1,3.6-2.7,7.8-1.6,11.7c1.9,6.7,8.1,11.1,15,11.1c1.4,0,2.9-0.2,4.4-0.6
	c2.8-0.8,5.3-2.3,7.3-4.3c6.2,2.1,13.3,8.4,17.2,12.2c-9,0.9-18,1.3-26.9,1.2c0,0,0,0,0,0c-0.1-0.1-0.2-0.3-0.5-0.5
	c-0.1-0.3-0.4-0.6-0.7-0.7c-3.2-3.3-12.2-12-20.3-14.8c0.7-0.8,1.3-1.6,1.8-2.5c2.1-3.6,2.7-7.8,1.6-11.7
	c-2.3-8.1-10.9-12.9-19.4-10.5c-4.1,1.1-7.5,3.7-9.6,7.3c-2.1,3.6-2.7,7.8-1.6,11.7c0.6,2.1,1.6,3.9,2.9,5.4c-1.9-0.2-3.9,0-5.8,0.5
	c-4.1,1.1-7.5,3.7-9.6,7.3c-2.1,3.6-2.7,7.8-1.6,11.7c1.9,6.7,8.1,11.1,15,11.1c1.4,0,2.9-0.2,4.4-0.6c4.1-1.1,7.5-3.7,9.6-7.3
	c1.1-1.9,1.8-4,2-6.2c9,1.5,18.4,2.3,28.1,2.6c-1.2,7.5-4.7,14.5-10.1,19.8c-3.5-1.9-7.8-2.5-12-1.4c-4.1,1.1-7.5,3.7-9.6,7.3
	c-2.1,3.6-2.7,7.8-1.6,11.7c1.9,6.7,8.1,11.1,15,11.1c1.4,0,2.9-0.2,4.4-0.6c8.4-2.3,13.4-10.9,11.1-19c-0.8-3-2.6-5.6-4.9-7.5
	c5.7-5.8,9.4-13.4,10.6-21.4c1.1,0,2.2,0.1,3.4,0.1c8.2,0,16.6-0.4,24.9-1.2c-0.9,8-4.6,15.5-10.3,21.2c-3.2-1.4-7-1.7-10.6-0.7
	c-4.1,1.1-7.5,3.7-9.6,7.3c-2.1,3.6-2.7,7.8-1.6,11.7c1.9,6.7,8.1,11.1,15,11.1c1.4,0,2.9-0.2,4.4-0.6c4.1-1.1,7.5-3.7,9.6-7.3
	c2.1-3.6,2.7-7.8,1.6-11.7c-1-3.5-3.2-6.4-6-8.4c5.8-6,9.5-13.9,10.5-22.1c0.2,0.1,0.3,0.1,0.5,0.1c0.4,0,0.7-0.1,1-0.4
	c0.2-0.2,0.4-0.5,0.4-0.8c11.7-1.4,23.2-3.5,34.2-6.3c1.1,7.5-0.2,15.3-3.8,22.1c-2.8-0.8-5.9-0.9-9-0.1c-4.1,1.1-7.5,3.7-9.6,7.3
	c-2.1,3.6-2.7,7.8-1.6,11.7c1.1,4,3.7,7.2,7.4,9.2c2.3,1.3,4.9,1.9,7.6,1.9c1.5,0,2.9-0.2,4.4-0.6c4.1-1.1,7.5-3.7,9.6-7.3
	c2.1-3.6,2.7-7.8,1.6-11.7c-1.2-4.2-4-7.5-7.7-9.3c3.8-7.3,5.2-15.8,3.9-23.9c9.8-2.7,19-5.9,27.5-9.6c1.1,7.4-0.3,15.1-3.8,21.8
	c-2.2-0.3-4.4-0.2-6.6,0.4c-8.4,2.3-13.4,10.9-11.1,19c1.1,4,3.7,7.2,7.4,9.2c2.3,1.3,4.9,1.9,7.6,1.9c1.5,0,2.9-0.2,4.4-0.6
	c4.1-1.1,7.5-3.7,9.6-7.3c2.1-3.6,2.7-7.8,1.6-11.7c-1.1-4-3.7-7.2-7.4-9.2c-0.8-0.4-1.6-0.8-2.4-1c3.7-7.3,5-15.7,3.7-23.7
	c1.5-0.7,3-1.4,4.5-2.2c8.4-4.3,16.6-9.2,24.5-14.2c1.3,7.7,0,15.8-3.7,22.7c-2.8-0.8-5.9-0.9-9-0.1c-4.1,1.1-7.5,3.7-9.6,7.3
	c-2.1,3.6-2.7,7.8-1.6,11.7c1.1,4,3.7,7.2,7.4,9.2c2.3,1.3,4.9,1.9,7.6,1.9c1.5,0,2.9-0.2,4.4-0.6c8.4-2.3,13.4-10.9,11.1-19
	c-1.2-4.2-4-7.5-7.7-9.3c4-7.7,5.3-16.6,3.7-25.1c0.1-0.2,0.2-0.4,0.2-0.6c1.7-1.1,3.5-2.2,5.2-3.3c7.2-4.6,14.6-9.2,22.1-13.6
	c1.4,7.8,0.1,16-3.6,23c-2.1-0.3-4.4-0.2-6.6,0.4c-4.1,1.1-7.5,3.7-9.6,7.3c-2.1,3.6-2.7,7.8-1.6,11.7c1.9,6.7,8.1,11.1,15,11.1
	c1.4,0,2.9-0.2,4.4-0.6c4.1-1.1,7.5-3.7,9.6-7.3c2.1-3.6,2.7-7.8,1.6-11.7c-1.4-5-5.2-8.6-9.8-10.2c3.9-7.7,5.1-16.7,3.4-25.2
	c1.5-0.8,3-1.7,4.5-2.5c25.3-13.4,48.3-18.2,68.3-14.4c0.8,0.1,1.6-0.4,1.7-1.2C572.6,170.5,572.1,169.7,571.3,169.5 M461.3,181
	c-6.8,1.9-13.9-1.9-15.7-8.5c-0.9-3.2-0.4-6.5,1.3-9.4c1.7-2.9,4.5-5,7.8-6c1.2-0.3,2.4-0.5,3.6-0.5c5.6,0,10.7,3.5,12.2,9
	c0.9,3.2,0.4,6.5-1.3,9.4C467.4,177.9,464.7,180.1,461.3,181 M337.9,230.8c-6.9,1.9-13.9-1.9-15.7-8.5c-0.9-3.2-0.4-6.5,1.3-9.4
	c1.7-2.9,4.5-5,7.8-6c6.9-1.9,13.9,1.9,15.7,8.5c0.9,3.2,0.4,6.5-1.3,9.4c-0.2,0.4-0.5,0.8-0.8,1.2c-0.7,0-1.3,0.4-1.5,1.1
	c0,0.2-0.1,0.4,0,0.6C341.9,229.1,340,230.2,337.9,230.8 M327.1,275.2c1.8,6.6-2.3,13.5-9.1,15.4c-6.9,1.9-13.9-1.9-15.7-8.5
	c-0.9-3.2-0.4-6.5,1.3-9.4c1.7-2.9,4.5-5,7.8-6c3.4-0.9,6.8-0.5,9.6,1c0,0.3,0.1,0.5,0.3,0.8c0.3,0.3,0.7,0.5,1.1,0.5
	c0.1,0,0.3,0,0.4-0.1C324.8,270.5,326.3,272.6,327.1,275.2 M332.1,242.6c-9.5-0.3-18.8-1.1-27.6-2.6c-0.1-0.9-0.2-1.8-0.5-2.6
	c-0.6-2.1-1.6-3.9-2.8-5.5c0.5,0,0.9,0.1,1.4,0.1c1.4,0,2.9-0.2,4.4-0.6c1.9-0.5,3.7-1.4,5.2-2.5c0.1,0,0.1,0.1,0.2,0.1
	C319.5,230.6,328.3,238.7,332.1,242.6 M291.8,210.6c1.7-2.9,4.5-5,7.8-6c6.9-1.9,13.9,1.9,15.7,8.5c0.9,3.2,0.4,6.5-1.3,9.4
	c-1.7,2.9-4.5,5-7.8,6c-6.9,1.9-13.9-1.9-15.7-8.5C289.6,216.9,290.1,213.5,291.8,210.6 M292.1,253.5c-6.9,1.9-13.9-1.9-15.7-8.5
	c-0.9-3.2-0.4-6.5,1.3-9.4c1.7-2.9,4.5-5,7.8-6c1.2-0.3,2.4-0.5,3.6-0.5c5.6,0,10.7,3.5,12.2,9c0.2,0.6,0.3,1.2,0.3,1.8
	c-0.3,0.2-0.5,0.5-0.5,0.9c-0.1,0.6,0.2,1.1,0.6,1.4c-0.1,1.8-0.7,3.6-1.7,5.3C298.2,250.5,295.5,252.6,292.1,253.5 M359.4,276.2
	c0.9,3.2,0.4,6.5-1.3,9.4c-1.7,2.9-4.5,5-7.8,6c-6.9,1.9-13.9-1.9-15.7-8.5c-0.9-3.2-0.4-6.5,1.3-9.4c1.7-2.9,4.5-5,7.8-6
	c1.2-0.3,2.4-0.5,3.6-0.5c1.7,0,3.3,0.4,4.8,0.9c0.1,0.2,0.2,0.4,0.3,0.6c0.3,0.3,0.7,0.5,1.1,0.5c0.2,0,0.4,0,0.5-0.1
	C356.6,270.7,358.6,273.1,359.4,276.2 M406.7,270.8c0.9,3.2,0.4,6.5-1.3,9.4c-1.7,2.9-4.5,5-7.8,6c-3.3,0.9-6.8,0.5-9.8-1.1
	c-3-1.6-5.1-4.2-6-7.4c-0.9-3.2-0.4-6.5,1.3-9.4c1.7-2.9,4.5-5,7.8-6c2.6-0.7,5.2-0.6,7.5,0.1c0.1,0.2,0.3,0.4,0.5,0.5
	c0.2,0.1,0.5,0.2,0.7,0.2c0.1,0,0.2-0.1,0.3-0.1C403.2,264.5,405.7,267.2,406.7,270.8 M439.3,260.6c0.9,3.2,0.4,6.5-1.3,9.4
	c-1.7,2.9-4.5,5-7.8,6c-3.3,0.9-6.8,0.5-9.8-1.1c-3-1.6-5.1-4.2-6-7.4c-1.8-6.6,2.3-13.5,9.1-15.4c1.7-0.5,3.4-0.6,5.1-0.4
	c0.1,0.2,0.3,0.4,0.5,0.5c0.2,0.1,0.5,0.2,0.7,0.2c0.3,0,0.6-0.1,0.8-0.3c0.9,0.3,1.7,0.6,2.5,1
	C436.3,254.8,438.4,257.4,439.3,260.6 M394.8,192.6c1.2-0.3,2.4-0.5,3.6-0.5c2.2,0,4.3,0.5,6.2,1.6c3,1.6,5.1,4.2,6,7.4
	c0.9,3.2,0.4,6.5-1.3,9.4c-0.1,0.3-0.3,0.5-0.5,0.7c-0.2,0.2-0.4,0.4-0.5,0.6c-1.7,2.2-4.1,3.8-6.9,4.6c-6.8,1.9-13.9-1.9-15.7-8.5
	C383.9,201.4,387.9,194.5,394.8,192.6 M372.9,225.5c-6.9,1.9-13.9-1.9-15.7-8.5c-0.9-3.2-0.4-6.5,1.3-9.4c1.7-2.9,4.5-5,7.8-6
	c6.9-1.9,13.9,1.9,15.7,8.5c0.8,2.7,0.5,5.5-0.6,8.1c-0.2,0.2-0.3,0.4-0.4,0.7c0,0.1,0,0.1,0,0.2c-0.1,0.2-0.2,0.3-0.3,0.5
	C379,222.4,376.3,224.6,372.9,225.5 M384.5,218.3c0.5-1.5,0.8-3,0.9-4.5c2.9,3.8,7.5,6.1,12.4,6.1c1.4,0,2.9-0.2,4.4-0.6
	c3.3-0.9,6.1-2.8,8.2-5.4c7.8,0.8,18.3,7.8,22,10.4c-8.3,3.7-17.4,6.9-26.9,9.5C403.3,231.5,393.4,221.4,384.5,218.3 M468.9,243.5
	c1.8,6.6-2.3,13.5-9.1,15.4c-3.3,0.9-6.8,0.5-9.8-1.1c-3-1.6-5.1-4.2-6-7.4c-0.9-3.2-0.4-6.5,1.3-9.4c1.7-2.9,4.5-5,7.8-6
	c1.2-0.3,2.4-0.5,3.6-0.5c1.4,0,2.7,0.2,3.9,0.6c0.1,0.2,0.3,0.4,0.5,0.5c0.2,0.1,0.5,0.2,0.7,0.2c0.1,0,0.2-0.1,0.3-0.1
	C465.3,237.2,467.9,240,468.9,243.5 M433.4,199.8c-6.8,1.9-13.9-1.9-15.7-8.5c-0.9-3.2-0.4-6.5,1.3-9.4c1.7-2.9,4.5-5,7.8-6
	c1.2-0.3,2.4-0.5,3.6-0.5c5.6,0,10.7,3.5,12.2,9c0.9,3.2,0.4,6.5-1.3,9.4c-0.2,0.3-0.3,0.5-0.5,0.7c-0.2,0.2-0.4,0.4-0.5,0.6
	C438.5,197.4,436.1,199.1,433.4,199.8 M501.5,225.6c0.9,3.2,0.4,6.5-1.3,9.4c-1.7,2.9-4.5,5-7.8,6c-6.9,1.9-13.9-1.9-15.7-8.5
	c-0.9-3.2-0.4-6.5,1.3-9.4c1.7-2.9,4.5-5,7.8-6c1.7-0.5,3.5-0.6,5.1-0.4c0.1,0.2,0.3,0.4,0.5,0.5c0.2,0.1,0.5,0.2,0.7,0.2
	c0.3,0,0.6-0.1,0.8-0.3C497,218.3,500.3,221.4,501.5,225.6"/>
<path d="M270.8,410.2c-5.6-4-13-6.1-21.2-5.9c0.2-0.2,0.4-0.3,0.6-0.5c8.8-7.3,14.3-17.8,14.7-28.1c0.4-11.5-5.7-22.6-15.2-27.5
	c-10.4-5.4-24.5-3.5-35.1,4.9c-7.9,6.2-14,15.4-18.6,28.1c-0.1-0.8-0.2-1.6-0.2-2.5c-1.4-13.2-7.2-24.4-15.9-30.9
	c-10.4-7.7-25.3-7.6-34,0c-9.4,8.3-10,22.3-7.5,32.8c5.7,23.5,23,33.9,41.8,43.4c2.5,1.3,5,2.6,7.5,3.9
	c-15.7,69-12,140.9,10.6,207.9c0.1,0.2,0.2,0.4,0.5,0.5l4.3,2.2c0.1,0.1,0.3,0.1,0.4,0.1c0.2,0,0.4-0.1,0.6-0.2
	c0.3-0.2,0.4-0.6,0.3-1c-2.1-6.2-4-12.5-5.8-18.8c0.1-0.1,0.2-0.1,0.3-0.2c0.9-0.9,22.7-21.2,28.3-27c7.5-7.8,13.5-16.7,17.8-26.3
	c9.2-20.8,10.3-45,3-66.5c-0.3-0.8-1.1-1.3-1.9-1.2c-23.7,2.6-45.3,21.4-53.6,46.8c-2.6,7.9-4,16.4-4.2,25.3
	c-6.6-45.9-4.8-92.8,5.5-138.4c14.5,7.7,28.3,14.8,45.3,18.4c4.4,0.9,9.3,1.7,14.4,1.7c3,0,6-0.3,9-1c8.8-2.1,15.7-8,17.9-15.4
	C282.7,426.2,278.8,415.9,270.8,410.2 M195.6,545.2c7.8-23.6,27.4-41.1,49.1-44.1c6.5,20.3,5.3,43-3.3,62.5
	c-4.1,9.3-9.9,17.8-17.1,25.3c-4.1,4.2-17.4,16.8-24.1,23.1l5.6-37.7c1.2-8.2,2.5-16.8,5.7-24.6c3.5-8.6,9.2-15.1,15.9-18.4
	c0.4-0.2,0.6-0.8,0.4-1.2c-0.2-0.4-0.8-0.6-1.2-0.4c-7.1,3.5-13,10.4-16.7,19.4c-3.3,8-4.6,16.7-5.8,25l-5.7,38.7
	c-1.8-8-5.7-25.6-6.3-31.4C190.7,568.3,192,556.2,195.6,545.2 M191.5,598.9c1.9,9,4,17.9,4.1,18.5c0.1,0.5,0.4,0.9,0.8,1.1
	c1.6,5.8,3.4,11.5,5.3,17.2l-2-1c-22.3-66.5-26-137.7-10.6-206.1l1.4,0.7c0.4,0.2,0.8,0.4,1.3,0.7
	C179.1,485.8,179.1,543.5,191.5,598.9 M276.6,433.6c-1.9,6-7.9,11.1-15.3,12.9c-7.4,1.8-15.2,0.6-21.8-0.8
	c-17.1-3.6-31.1-11-46-18.8c-3.9-2-7.8-4.2-11.9-6.2c-18-9.1-34.6-19.1-39.9-41.1c-2.3-9.4-1.8-22,6.4-29.2c3.7-3.3,8.7-4.9,14-4.9
	c5.3,0,10.9,1.7,15.4,5.1c7.9,5.9,13.2,16.2,14.5,28.4c0.7,6.4,0.9,12.3,0.4,18.2c-0.6,4.5-1.3,9.2-3.5,14.9v0c0,0,0,0,0,0
	c-0.1,0.2-0.1,0.4-0.1,0.6c0,0.7,0.4,1.4,1.2,1.7c0.9,0.4,2-0.1,2.3-1.1c2.1-5.5,3.2-10.8,3.7-16.1c0-0.4,0.1-0.8,0.1-1.2
	c0.5-4,1-7.8,2.3-11.8c4.5-13.1,10.5-22.4,18.2-28.5c9.5-7.5,22-9.3,31.2-4.5c8.3,4.3,13.6,14.1,13.2,24.2
	c-0.3,9.3-5.3,18.8-13.4,25.4c-1.8,1.5-3.8,2.9-5.9,4.1c-7.7,1.4-15,4.3-22.1,7c-0.8,0.3-1.3,1.2-1.1,2.1c0.2,0.9,1.1,1.5,2,1.4
	c8.3-1,16-3.4,22.4-7.1c0.7-0.1,1.4-0.2,2.2-0.3c9.1-1.1,17.4,0.6,23.3,4.8C275.4,418,278.8,426.6,276.6,433.6"/>
<path d="M521.4,520.6c-11.1-20.2-24.3-44.1-43.5-61.6c0.1-0.2,0.1-0.4,0.1-0.6c-0.2-12.8-2.1-25.6-5.4-38.1c0.3-0.2,0.6-0.4,0.7-0.6
	c2.7-4.4,4.4-9.4,5.1-14.6c1.6,0.7,3.3,1.1,5,1.2c0.2,0,0.4,0,0.7,0c3.5,0,6.8-1.3,9.4-3.7c2.7-2.6,4.2-6.1,4.2-9.8
	c0-2.9-0.8-5.7-2.4-8.1c0.5,0,1.1-0.1,1.5-0.3c0.4-0.2,0.6-0.6,0.5-1.1c-0.4-1.5-2.2-2.7-3.7-2.4l0,0c1-0.5,0.6-1.9-0.5-1.8
	c-0.3,0-0.6,0-0.8,0c-0.6-0.1-1.1-0.3-1.5-0.7c-0.4-0.4-2.6-0.1,0.1-2.7c-0.3-1-1.4-1.1-2.1-0.5c-0.7-0.5-1.9-0.5-2.8,0.5
	c-0.7,0.8-0.9,1.7-0.7,2.6c-4.1-0.6-8.4,0.5-11.6,3.5c-0.2,0.2-0.4,0.5-0.7,0.7c0.3-3.9-1-7.9-4-11c-1.4-1.5-3.2-2.7-5.1-3.5
	c0.7-0.4,1.3-0.8,1.7-1.4c0.2-0.4,0.2-0.9-0.1-1.2c-1.2-1.1-3.3-1.1-4.5,0l0,0c0.6-0.9-0.6-1.9-1.4-1.3c-0.2,0.2-0.5,0.4-0.7,0.4
	c-0.5,0.2-1.1,0.4-1.7,0.2c-0.6-0.1-2.2,1.3-1.4-2.3c-0.8-0.6-1.8-0.1-2,0.7c-0.9-0.1-1.9,0.6-2.1,1.9c-0.2,1.2,0.3,2.2,1.1,2.8
	c-1.4,0.6-2.7,1.5-3.9,2.6c-2.7,2.6-4.2,6.1-4.2,9.8c0,1,0.1,2,0.3,3c-5.3-3.2-12.2-2.7-16.8,1.7c-0.1,0.1-0.2,0.2-0.3,0.3
	c-0.1-0.8-0.3-1.5-0.7-2.1c-0.3-0.4-0.7-0.5-1.1-0.3c-1.4,0.7-2.2,2.6-1.7,4.1l0,0c-0.6-0.9-2-0.2-1.7,0.8c0.1,0.3,0.1,0.6,0.1,0.8
	c0,0.6-0.1,1.2-0.4,1.7c-0.3,0.5,0.4,2.6-2.7,0.4c-0.9,0.5-0.8,1.6-0.1,2.2c-0.4,0.8-0.2,2,1,2.7c1.1,0.7,2.3,0.5,3.3-0.1
	c0.1,3.6,1.5,7,4,9.6c2.9,3,6.7,4.6,10.6,4.6c3.4,0,6.8-1.2,9.4-3.7c1.3-1.3,2.3-2.7,3-4.3c2.2,2,5.7,5.4,9,8.7
	c2.9,2.9,5.8,5.7,7.9,7.7c3.6,12.3,5.6,25,6,37.7c-5.1-4.2-10.5-8-16.5-11.1c-5.1-2.7-10.5-4.9-15.8-7c-4.4-1.8-8.9-3.6-13.2-5.7
	c-11.7-5.8-30.2-22.6-42.1-41.7c8-5.4,13.7-14,15.5-23.5c0.1,0,0.2,0,0.4,0c0.2,0,0.4,0,0.7,0c3.5,0,6.8-1.3,9.4-3.7
	c2.7-2.6,4.2-6.1,4.2-9.8c0-3.8-1.4-7.4-4-10.1c-1.5-1.6-3.2-2.7-5.2-3.5c0.5-0.4,0.8-0.7,1.1-1.2c0.2-0.4,0.1-0.9-0.2-1.2
	c-1.2-1-3.3-0.9-4.4,0.3l0,0c0.5-0.9-0.7-1.9-1.5-1.2c-0.2,0.2-0.5,0.4-0.7,0.5c-0.5,0.2-1.1,0.4-1.7,0.4c-0.6-0.1-2.1,1.4-1.5-2.2
	c-0.8-0.6-1.8,0-2,0.9c-0.9,0-1.8,0.7-1.9,2.1c-0.1,1,0.2,1.7,0.8,2.3c-1,0.5-1.9,1.2-2.8,2c-5.6,5.3-5.7,14.2-0.2,20
	c1.7,1.8,3.7,3,5.9,3.8c-1.6,8.5-6.7,16.2-13.8,21c-5.6-9.9-9.4-20.2-9.4-29.9c2.5-0.5,4.8-1.6,6.7-3.4c5.6-5.3,5.7-14.2,0.2-20
	c-1.5-1.6-3.3-2.7-5.2-3.5c0.2-0.2,0.3-0.3,0.4-0.5c0.2-0.4,0.1-0.9-0.2-1.2c-1.2-1-3.3-0.9-4.5,0.3l0,0c0.5-0.9-0.7-1.9-1.5-1.2
	c-0.2,0.2-0.5,0.4-0.7,0.5c-0.5,0.2-1.1,0.4-1.7,0.4c-0.6-0.1-2.1,1.4-1.5-2.2c-0.8-0.6-1.8,0-2,0.9c-0.9,0-1.8,0.7-1.9,2.1
	c-0.1,0.9,0.2,1.6,0.6,2.1c-0.7,0.4-1.3,1-2,1.5c-5.6,5.3-5.7,14.2-0.2,20c2.6,2.8,6,4.3,9.5,4.5c0.1,8,2.4,16.4,6.2,24.5
	c-7.5,1.4-15.7-1.7-20.4-7.8c3.9-5.3,3.5-13-1.4-18.2c-5.4-5.7-14.3-6.1-19.8-1c-0.1-0.4-0.3-0.7-0.5-1c-0.3-0.4-0.7-0.5-1.1-0.3
	c-1.4,0.7-2.2,2.6-1.7,4.1l0,0c-0.6-0.9-2-0.2-1.7,0.8c0.1,0.3,0.1,0.6,0.1,0.8c0,0.6-0.1,1.2-0.4,1.7c-0.3,0.5,0.4,2.6-2.7,0.4
	c-0.9,0.5-0.8,1.6-0.1,2.2c-0.4,0.8-0.2,2,1,2.7c0.9,0.6,1.8,0.5,2.7,0.2c0.3,3.2,1.7,6.2,4,8.6c2.9,3,6.7,4.6,10.6,4.6
	c3,0,5.9-1,8.4-2.9c4.6,5.8,12,9.2,19.4,9.2c1.6,0,3.2-0.2,4.8-0.5c0.2,0,0.3-0.1,0.5-0.2c2.1,4,4.5,8,7.2,11.9
	c-2-0.7-4.2-1-6.3-0.8c0.1-0.4,0.2-0.7,0.2-1.1c0-0.4-0.3-0.8-0.7-0.9c-1.6-0.3-3.3,0.9-3.7,2.4v0c0-1.1-1.5-1.3-1.8-0.3
	c-0.1,0.3-0.2,0.6-0.4,0.7c-0.4,0.4-0.7,0.9-1.3,1.1c-0.5,0.2-1.2,2.3-2.4-1.2c-1-0.1-1.6,0.8-1.3,1.7c-0.8,0.4-1.3,1.5-0.7,2.8
	c0.4,0.8,1,1.3,1.7,1.6c-1.1,2-1.8,4.3-1.8,6.7c0,0.9,0.1,1.9,0.2,2.8c-4.5-1.1-9.3,0-12.8,3.3c0,0-0.1,0.1-0.1,0.1
	c-0.2-0.5-0.4-1-0.7-1.4c-0.3-0.3-0.8-0.5-1.2-0.2c-1.4,0.8-2.1,2.8-1.4,4.2l0,0c-0.7-0.8-2-0.1-1.6,0.9c0.1,0.3,0.2,0.6,0.2,0.8
	c0,0.6,0,1.2-0.3,1.7c-0.3,0.5,0.5,2.5-2.6,0.6c-0.8,0.5-0.7,1.6,0.1,2.2c-0.3,0.8,0,2,1.2,2.6c0.8,0.4,1.6,0.4,2.3,0.2
	c0.3,3.1,1.7,6.1,3.9,8.4c2.9,3,6.7,4.6,10.6,4.6c3.4,0,6.8-1.2,9.4-3.7c0.6-0.6,1.2-1.2,1.6-1.9c0,0,0,0.1,0.1,0.1
	c8.9,5.5,18.8,8.9,29.1,10.3c-3.8,4.7-10.1,7.3-16.1,6.8c-0.6-2.3-1.8-4.4-3.5-6.1c-2.6-2.8-6.1-4.4-9.9-4.6
	c-3.8-0.2-7.4,1.1-10.1,3.7c-1.9,1.8-3.1,3.9-3.7,6.2c-0.3-0.3-0.7-0.6-1-0.7c-0.4-0.2-0.9-0.1-1.2,0.3c-0.9,1.3-0.6,3.4,0.6,4.4
	l0,0c-1-0.4-1.8,0.8-1.1,1.5c0.2,0.2,0.4,0.4,0.5,0.6c0.3,0.5,0.5,1.1,0.5,1.6c0,0.6,1.6,2-2.1,1.7c-0.5,0.8,0.1,1.8,1,1.9
	c0.1,0.9,0.8,1.8,2.2,1.8c1.2,0,2-0.5,2.5-1.4c0.5,0.7,1,1.3,1.5,1.9c2.6,2.8,6.1,4.4,9.9,4.6c0.2,0,0.4,0,0.7,0
	c3.5,0,6.8-1.3,9.4-3.7c2.7-2.6,4.2-6.1,4.2-9.8c0-0.1,0-0.1,0-0.2c0.3,0,0.6,0,1,0c7.4,0,14.8-4,18.8-10.2c2.1,0.2,4.1,0.3,6.2,0.3
	c8.4,0,16.8-1.4,24.8-4.2c0.1-0.1,0.3-0.1,0.4-0.2c4.8,2,9.7,4,14.4,6.4c29.8,15.7,47.8,48.3,62.2,74.4c0.3,0.6,1,1,1.6,1
	c0.3,0,0.6-0.1,0.9-0.2C521.5,522.6,521.8,521.5,521.4,520.6 M476.2,384.4c1.9-1.8,4.4-2.7,6.9-2.7c2.8,0,5.7,1.2,7.9,3.4
	c2,2.1,3,4.8,3,7.6c0,2.8-1.1,5.3-3.1,7.2c-2,1.9-4.6,2.8-7.3,2.7c-2.8-0.1-5.4-1.3-7.4-3.4C472.1,394.9,472.1,388.3,476.2,384.4
	 M473.4,401.7c0.4,0.5,0.9,0.9,1.4,1.3c0,0,0,0.1,0,0.1c-0.3,4.4-1.6,8.7-3.6,12.6c-2.2-7.2-4.9-14.3-8.1-21.1c2-0.6,4-1.6,5.6-3.1
	c0.2-0.2,0.4-0.5,0.7-0.7C469.2,394.6,470.5,398.6,473.4,401.7 M451.6,373.3c1.8-1.8,4.3-2.7,6.9-2.7c0.2,0,0.3,0,0.5,0
	c2.8,0.1,5.4,1.3,7.4,3.4c4,4.3,4,10.9-0.1,14.7c-4.1,3.9-10.7,3.5-14.7-0.7c-2-2.1-3-4.8-3-7.6
	C448.5,377.7,449.6,375.2,451.6,373.3 M445.5,403.3c-4.1,3.9-10.7,3.5-14.7-0.7c-2-2.1-3-4.8-3-7.6c0-2.8,1.1-5.3,3.1-7.2
	c1.9-1.8,4.4-2.7,6.9-2.7c2.8,0,5.7,1.2,7.9,3.4C449.6,392.8,449.6,399.4,445.5,403.3 M462.7,407.7c-4.2-4.2-8.2-8.1-10.4-9.8
	c-0.1,0-0.1-0.1-0.2-0.1c0.2-1.5,0.1-3.1-0.2-4.7c2.3,1.3,4.8,2,7.4,2c2.4,5,4.5,10.2,6.3,15.4C464.7,409.6,463.7,408.7,462.7,407.7
	 M395.3,344.9c1.8-1.8,4.3-2.7,6.9-2.7c0.2,0,0.3,0,0.5,0c2.8,0.1,5.4,1.3,7.4,3.4c2,2.1,3,4.8,3,7.6c0,2.8-1.1,5.3-3.1,7.2
	c-2,1.9-4.6,2.8-7.3,2.7c-2.8-0.1-5.4-1.3-7.4-3.4C391.2,355.4,391.3,348.8,395.3,344.9 M338.6,372.5c-2-2.1-3-4.8-3-7.6
	c0-2.8,1.1-5.3,3.1-7.2c1.9-1.8,4.4-2.7,6.9-2.7c2.8,0,5.7,1.2,7.9,3.4c4,4.3,4,10.9-0.1,14.7C349.2,377.1,342.6,376.8,338.6,372.5
	 M383.6,463.2c-2,1.9-4.6,2.8-7.3,2.7c-2.8-0.1-5.4-1.3-7.4-3.4c-4-4.3-4-10.9,0.1-14.7c1.8-1.8,4.3-2.7,6.9-2.7c0.2,0,0.3,0,0.5,0
	c2.8,0.1,5.4,1.3,7.4,3.4c1.4,1.5,2.4,3.4,2.8,5.3c0,0.2,0,0.4,0.1,0.5c0.1,0.6,0.2,1.1,0.1,1.7
	C386.7,458.8,385.6,461.3,383.6,463.2 M364.8,335.6c1.9-1.8,4.3-2.7,6.9-2.7c0.2,0,0.3,0,0.5,0c2.8,0.1,5.4,1.3,7.4,3.4
	c4,4.3,4,10.9-0.1,14.7c-4.1,3.9-10.7,3.5-14.7-0.7C360.7,346,360.7,339.4,364.8,335.6 M371.7,409.8c0-2.8,1.1-5.3,3.1-7.2
	c1.9-1.8,4.4-2.7,6.9-2.7c2.8,0,5.7,1.2,7.9,3.4c4,4.3,4,10.9-0.1,14.7c-3.3,3.1-8.2,3.5-12.1,1.3c-0.6-0.9-1.2-1.8-2-2.6
	c-0.8-0.8-1.6-1.5-2.5-2.1C372.1,413.1,371.7,411.5,371.7,409.8 M372.6,434c-4.1,3.9-10.7,3.5-14.7-0.7c-2-2.1-3-4.8-3-7.6
	c0-2.8,1.1-5.3,3.1-7.2c1.9-1.8,4.4-2.7,6.9-2.7c1.8,0,3.6,0.5,5.2,1.4c0.6,0.9,1.2,1.8,2,2.6c0.8,0.8,1.6,1.5,2.5,2.1
	C376.5,426.1,375.9,430.9,372.6,434 M378.5,431.6c0.9-2.4,1.1-5,0.6-7.5c1.1,0.3,2.3,0.4,3.4,0.4c1.4,0,2.8-0.3,4.1-0.7
	c0.1,0.3,0.2,0.7,0.4,0.9c3.4,4,5.8,8.8,6.9,13.9c-5.3-1.7-10.4-4-15.1-6.9C378.7,431.7,378.6,431.7,378.5,431.6 M409.8,441.9
	c-0.3-0.1-0.6-0.1-0.9-0.1c-3.7-0.4-7.4-1.1-11.1-2c0-0.1,0-0.2,0-0.4c-1-6.3-3.8-12.2-8-17.1c0.7-0.5,1.4-1,2-1.6
	c3.2-3,4.6-7.2,4.2-11.4c10.5,12.1,22.3,21.6,30.9,25.9c3.1,1.5,6.2,2.8,9.3,4.1C427.8,441.9,418.7,442.7,409.8,441.9"/>
</svg>
