<?xml version="1.0" encoding="UTF-8"?>
<!-- Generator: visioncortex VTracer 0.6.3 -->
<svg version="1.1" xmlns="http://www.w3.org/2000/svg" width="732" height="1280">
<path d="M0 0 C12.04 4.29 23.34 12.15 31.06 22.38 C31.51 21.83 31.96 21.29 32.42 20.73 C39.91 11.87 39.91 11.87 45.88 10.94 C50.12 11.52 53.37 13.27 57.06 15.38 C57.06 16.03 57.06 16.69 57.06 17.38 C58.14 17.72 58.14 17.72 59.24 18.07 C62.63 19.64 64.64 21.59 67.25 24.25 C68.54 25.55 68.54 25.55 69.86 26.87 C71.77 29.04 72.84 30.8 74.06 33.38 C74.72 33.7 75.38 34.03 76.06 34.38 C77.25 36.23 77.25 36.23 78.5 38.56 C78.91 39.32 79.32 40.08 79.75 40.86 C81.22 43.68 82.65 46.52 84.06 49.38 C85.12 49.16 86.19 48.94 87.28 48.72 C88.71 48.44 90.14 48.16 91.56 47.88 C92.26 47.73 92.95 47.59 93.67 47.44 C101.06 46.01 107.89 45.62 115.06 48.38 C119.62 51.54 120.62 56.27 122.06 61.38 C128.43 54.66 128.43 54.66 133.75 47.12 C136.65 42.56 140.26 38.87 144.06 35.06 C144.66 34.46 145.25 33.86 145.86 33.25 C149.37 29.8 152.91 27.05 157.06 24.38 C158.74 22.95 160.41 21.52 162.06 20.06 C172.27 11.68 184.09 5.66 197.59 6.54 C204.41 7.73 210.4 11.3 215.06 16.38 C216.09 18.03 217.09 19.69 218.06 21.38 C218.68 22.2 219.3 23.03 219.94 23.88 C241.35 56.15 233.72 107.02 227.06 142.38 C226.01 147.46 224.63 152.42 223.06 157.38 C222.83 158.11 222.6 158.84 222.37 159.59 C217.7 174.33 217.7 174.33 214.81 180.06 C211.95 186 211.71 192.9 211.06 199.38 C208.09 199.71 205.12 200.03 202.06 200.38 C203.03 201.28 204 202.19 205 203.12 C209.96 208.08 213.96 213.71 218.06 219.38 C218.67 220.17 219.28 220.96 219.91 221.77 C228.01 232.58 233.25 245.5 237.06 258.38 C237.48 259.61 237.89 260.85 238.31 262.12 C239.4 266.82 239.65 271.08 238.44 275.81 C236.29 278.25 234.23 278.1 231.06 278.38 C227.92 277.63 227.92 277.63 224.81 276.5 C223.78 276.13 222.74 275.76 221.67 275.38 C219.06 274.38 219.06 274.38 217.06 273.38 C217.07 274.22 217.09 275.07 217.1 275.94 C217.18 286.33 217.18 286.33 216.44 290.88 C216.02 294.76 216.61 295.85 218.06 299.38 C221.2 309.96 225.86 325.9 220.6 336.26 C219.06 338.38 219.06 338.38 218.06 339.38 C210.67 338.78 210.67 338.78 207.06 336.38 C207.07 337.22 207.07 337.22 207.08 338.08 C207.15 344.04 207.19 349.99 207.23 355.95 C207.24 358.16 207.26 360.37 207.29 362.58 C207.48 378.85 206.95 394.26 201.5 409.75 C201.09 410.95 200.67 412.16 200.25 413.4 C199.06 416.38 199.06 416.38 197.06 419.38 C194.08 442.11 209.15 467.59 217.85 487.88 C225.33 505.4 232.15 523.3 235.59 542.09 C235.84 544.33 235.84 544.33 237.06 545.38 C237.43 546.99 237.76 548.62 238.06 550.25 C238.59 553.07 239.15 555.65 240.06 558.38 C240.21 560.2 240.28 562.04 240.31 563.88 C240.34 564.83 240.36 565.79 240.39 566.78 C240 569.87 239.48 570.5 237.06 572.38 C234.8 572.89 234.8 572.89 232.38 573.06 C231.57 573.13 230.76 573.19 229.93 573.26 C229.31 573.3 228.7 573.34 228.06 573.38 C228.21 573.92 228.37 574.46 228.52 575.02 C234.32 596.1 234.32 596.1 233.06 605.38 C232.06 606.38 232.06 606.38 228.46 606.47 C226.98 606.47 225.49 606.45 224 606.44 C223.24 606.43 222.48 606.43 221.7 606.42 C219.82 606.41 217.94 606.39 216.06 606.38 C218.36 621.33 221.56 635.9 225.33 650.55 C226.91 656.7 228.36 662.87 229.75 669.06 C229.95 669.95 230.15 670.84 230.35 671.76 C230.74 673.48 231.12 675.2 231.51 676.91 C233.65 686.4 235.9 695.86 238.29 705.29 C238.87 707.59 239.43 709.9 240 712.21 C241.56 718.62 243.19 724.96 245.19 731.25 C246.32 734.85 247.32 738.35 248 742.06 C248.85 746.71 250.09 751.21 251.38 755.75 C255.1 768.9 258.4 782.15 261.38 795.48 C261.82 797.33 262.29 799.16 262.8 800.99 C273.85 840.34 269.35 883.61 250.34 919.63 C247.5 924.52 247.5 924.52 246.06 926.38 C245.4 926.38 244.74 926.38 244.06 926.38 C243.76 927.63 243.76 927.63 243.44 928.91 C241.69 933.32 239.14 936.25 236 939.75 C235.42 940.41 234.84 941.07 234.24 941.74 C222.66 954.67 222.66 954.67 215.06 957.38 C215.06 958.03 215.06 958.7 215.06 959.38 C214.09 959.64 213.12 959.91 212.12 960.19 C211.11 960.58 210.1 960.97 209.06 961.38 C208.73 962.37 208.4 963.36 208.06 964.38 C205.56 965.55 203.01 966.48 200.41 967.41 C194.23 972.58 195.29 986.19 194.62 993.68 C194.5 995.04 194.37 996.41 194.24 997.78 C193.91 1001.35 193.59 1004.93 193.26 1008.51 C192.74 1014.22 192.22 1019.93 191.69 1025.64 C191.51 1027.61 191.33 1029.58 191.15 1031.55 C190.51 1038.55 189.66 1045.48 188.54 1052.42 C188.04 1055.54 187.58 1058.67 187.13 1061.8 C181.56 1100.18 181.56 1100.18 171.38 1111.31 C158.42 1119.38 145.7 1120.72 130.72 1120.64 C128.57 1120.63 126.41 1120.64 124.26 1120.65 C109.49 1120.67 96.07 1119.14 84.05 1109.82 C69.48 1094.52 67.69 1067.58 64.61 1047.78 C64.12 1044.71 63.58 1041.66 63.01 1038.6 C61.9 1032.61 61.04 1026.59 60.21 1020.56 C59.67 1016.83 59.06 1013.38 57.97 1009.77 C56.9 1005.76 56.92 1002.5 57.06 998.38 C56.07 998.58 55.07 998.78 54.05 999 C34.78 1002.78 15.16 1003.14 -4.38 1001.5 C-5.46 1001.41 -6.55 1001.32 -7.67 1001.23 C-15.15 1000.59 -22.55 999.76 -29.94 998.38 C-29.95 999.48 -29.97 1000.59 -29.98 1001.74 C-30.28 1013.87 -31.65 1025.75 -33.38 1037.75 C-33.48 1038.52 -33.59 1039.29 -33.71 1040.08 C-34.74 1047.32 -35.85 1054.35 -37.94 1061.38 C-38.22 1062.68 -38.49 1063.99 -38.72 1065.31 C-38.84 1065.98 -38.96 1066.65 -39.08 1067.34 C-39.2 1068.01 -39.32 1068.68 -39.44 1069.38 C-40.33 1074.49 -41.43 1079.4 -42.94 1084.38 C-43.29 1085.58 -43.65 1086.78 -44.02 1088.02 C-47.63 1099.52 -52.11 1109.5 -63.08 1115.56 C-81.44 1123.86 -111.24 1123.49 -130.22 1117.3 C-138.56 1114.08 -144.55 1110.42 -148.94 1102.38 C-150.05 1099.37 -151.05 1096.34 -152.01 1093.28 C-152.86 1090.45 -152.86 1090.45 -153.93 1088.14 C-155.47 1083.93 -156.16 1079.59 -156.94 1075.19 C-157.11 1074.22 -157.29 1073.24 -157.47 1072.24 C-158.67 1065.39 -159.61 1058.55 -160.25 1051.63 C-160.61 1047.87 -161.14 1044.22 -161.88 1040.52 C-162.81 1035.57 -163.38 1030.63 -163.87 1025.62 C-163.94 1024.83 -164.02 1024.04 -164.1 1023.22 C-164.42 1019.94 -164.74 1016.65 -165.04 1013.36 C-166.91 986.5 -166.91 986.5 -180.12 964.25 C-181.71 962.94 -183.32 961.65 -184.94 960.38 C-203.35 945.89 -203.35 945.89 -204.43 941.23 C-204.6 940.62 -204.77 940.01 -204.94 939.38 C-206.27 938.7 -207.6 938.04 -208.94 937.38 C-211.08 934.88 -211.08 934.88 -213.19 931.94 C-213.89 930.97 -214.6 930 -215.33 929 C-216.94 926.38 -216.94 926.38 -216.94 923.38 C-217.6 923.38 -218.26 923.38 -218.94 923.38 C-219.88 921.5 -220.81 919.62 -221.74 917.74 C-222.49 916.26 -223.27 914.78 -224.07 913.32 C-242.71 878.63 -243.55 833.11 -233.95 795.58 C-232.82 791.07 -232.05 786.52 -231.31 781.94 C-231.19 781.17 -231.07 780.41 -230.94 779.63 C-230.71 778.18 -230.48 776.73 -230.25 775.29 C-229.1 768.21 -227.44 761.3 -225.66 754.36 C-224.77 750.67 -224.05 746.97 -223.37 743.24 C-222.94 741.38 -222.94 741.38 -221.94 740.38 C-221.58 738.57 -221.28 736.76 -221 734.94 C-219.58 725.8 -217.61 716.78 -215.62 707.75 C-214.24 701.42 -212.87 695.1 -211.57 688.75 C-211.24 687.14 -211.24 687.14 -210.9 685.49 C-210.48 683.42 -210.05 681.34 -209.64 679.27 C-208.66 674.5 -207.52 669.98 -205.94 665.38 C-205.45 663.11 -204.99 660.84 -204.56 658.56 C-203.2 651.47 -201.59 644.46 -199.9 637.45 C-198.49 631.52 -197.2 625.58 -195.9 619.63 C-195.56 618.07 -195.22 616.5 -194.88 614.94 C-194.7 614.14 -194.53 613.34 -194.35 612.51 C-193.05 606.6 -193.05 606.6 -191.94 604.38 C-192.87 604.71 -193.79 605.03 -194.75 605.38 C-200.53 607 -207.17 607.79 -212.62 605 C-218.07 594.1 -210.44 576.17 -206.94 565.38 C-207.61 565.4 -208.29 565.42 -208.98 565.45 C-210.32 565.47 -210.32 565.47 -211.69 565.5 C-212.57 565.52 -213.45 565.55 -214.36 565.57 C-217.05 565.37 -218.64 564.74 -220.94 563.38 C-221.71 556.51 -220.98 552.73 -216.86 547.25 C-210.47 537.68 -205.89 526.14 -201.94 515.38 C-202.67 515.41 -203.41 515.44 -204.17 515.48 C-213.89 515.75 -213.89 515.75 -217.94 512.38 C-218.94 511.38 -218.94 511.38 -219.44 508.44 C-219.38 502.75 -215.21 498.7 -211.94 494.38 C-205.15 484.37 -200.78 473.63 -196.67 462.33 C-195.6 459.47 -194.45 456.65 -193.31 453.81 C-190.61 446.81 -188.7 439.66 -186.94 432.38 C-186.72 431.68 -186.5 430.98 -186.27 430.26 C-184.42 423.85 -185.63 419.8 -188.12 413.75 C-194.26 397.67 -196.12 381.9 -196.07 364.77 C-196.06 362.51 -196.07 360.25 -196.07 357.99 C-196.08 350.07 -195.87 342.25 -194.94 334.38 C-195.68 334.7 -196.42 335.04 -197.19 335.38 C-202.39 336.76 -207.58 336.92 -212.94 336.38 C-214.94 334.38 -214.94 334.38 -215.19 330.81 C-215.02 324.7 -213.62 319.07 -211.38 313.41 C-209.36 307.43 -209.61 301.55 -209.75 295.31 C-209.76 294.16 -209.78 293.01 -209.79 291.82 C-209.83 289.01 -209.88 286.19 -209.94 283.38 C-210.82 283.78 -211.7 284.19 -212.61 284.61 C-213.77 285.11 -214.93 285.61 -216.12 286.12 C-217.27 286.64 -218.42 287.15 -219.61 287.67 C-222.94 288.38 -222.94 288.38 -225.74 286.89 C-229.18 282.95 -229.98 279.96 -229.84 274.75 C-227.1 254.17 -219.66 236.13 -205.94 220.38 C-204.22 218.07 -202.58 215.73 -200.94 213.38 C-201.67 213.2 -202.41 213.03 -203.17 212.86 C-213.6 210.27 -213.6 210.27 -216.94 206.38 C-217.81 203.55 -217.81 203.55 -217.94 200.38 C-216.28 197.81 -216.28 197.81 -213.88 195.38 C-212.64 194.09 -212.64 194.09 -211.38 192.77 C-209.92 191.34 -208.46 189.93 -206.96 188.54 C-205.13 186.88 -205.13 186.88 -202.94 184.38 C-203.34 180.92 -204.93 177.66 -206.19 174.44 C-206.64 173.27 -207.09 172.1 -207.55 170.89 C-208.39 168.76 -209.26 166.62 -210.17 164.51 C-214.58 153.95 -216.85 142.83 -219.35 131.69 C-219.85 129.37 -219.85 129.37 -220.94 127.38 C-224.64 105.73 -226.15 81.15 -222.94 59.38 C-222.61 59.05 -222.28 58.72 -221.94 58.38 C-221.85 56.9 -221.8 55.42 -221.75 53.94 C-220.5 39.01 -213.97 22.24 -202.95 11.96 C-197.08 7.33 -190.51 6.35 -183.2 6.05 C-179.85 6.53 -176.97 7.96 -173.94 9.38 C-172.77 9.92 -171.6 10.46 -170.4 11.02 C-169.24 11.59 -168.07 12.16 -166.88 12.75 C-165.71 13.31 -164.54 13.88 -163.34 14.46 C-159.73 16.49 -157.04 18.64 -153.94 21.38 C-153.31 21.91 -152.67 22.45 -152.02 23.01 C-149.98 24.79 -147.96 26.58 -145.94 28.38 C-144.55 29.6 -144.55 29.6 -143.14 30.85 C-134.17 38.88 -125.5 47.21 -118.94 57.38 C-114.16 63.67 -114.16 63.67 -107.25 67.06 C-106.44 67.31 -105.63 67.57 -104.8 67.82 C-104.19 68.01 -103.57 68.19 -102.94 68.38 C-103.02 67.48 -103.02 67.48 -103.11 66.57 C-103.76 54.21 -99.75 40.09 -91.94 30.38 C-89.06 27.69 -89.06 27.69 -85.94 26.38 C-79.86 26.7 -75.33 28.23 -69.94 30.94 C-69.26 31.27 -68.58 31.6 -67.88 31.94 C-66.23 32.74 -64.58 33.56 -62.94 34.38 C-62.91 33.73 -62.89 33.09 -62.86 32.43 C-62.46 26.32 -61.49 22.39 -57.94 17.38 C-54.14 14.85 -51.32 14.79 -46.94 15.38 C-41.12 16.97 -35.52 19.11 -29.94 21.38 C-29.98 20.71 -30.03 20.04 -30.08 19.36 C-30.36 12.05 -29.26 5.94 -25.94 -0.62 C-19.11 -4.04 -7.01 -2.02 0 0 Z M-14.94 12.38 C-15.4 26.14 -14.28 41.12 -8.85 53.94 C-7.5 57.54 -7.81 60.55 -7.94 64.38 C-8.19 63.61 -8.45 62.85 -8.71 62.07 C-11.71 53.99 -15.34 48.88 -21.94 43.38 C-23.19 42.33 -23.19 42.33 -24.47 41.25 C-31.31 35.93 -38.7 32.05 -46.94 29.38 C-49.07 30.16 -49.07 30.16 -49.55 32.03 C-51.45 43.47 -49.26 53.82 -44.94 64.38 C-45.89 63.53 -46.84 62.68 -47.81 61.81 C-54.65 56 -61.92 51.24 -69.81 47 C-70.46 46.65 -71.1 46.31 -71.76 45.95 C-76.14 43.48 -76.14 43.48 -80.94 42.38 C-84.49 44.6 -85.02 48.34 -86.06 52.19 C-86.56 53.99 -86.56 53.99 -87.07 55.83 C-88.56 61.92 -89.12 67.58 -89.12 73.81 C-89.14 74.54 -89.15 75.26 -89.16 76.01 C-89.18 80.84 -88.47 84.79 -86.94 89.38 C-86.28 89.38 -85.62 89.38 -84.94 89.38 C-84.61 91.36 -84.28 93.33 -83.94 95.38 C-85.56 94.27 -85.56 94.27 -87.21 93.14 C-99.91 84.78 -111.98 80.71 -126.94 78.38 C-127.17 84.39 -126.47 89.42 -124.81 95.19 C-124.59 95.98 -124.37 96.76 -124.13 97.57 C-122.21 104.04 -119.58 109.69 -115.94 115.38 C-115.45 116.18 -114.97 116.99 -114.47 117.83 C-110.83 123.67 -106.65 129.14 -99.94 131.38 C-99.94 132.03 -99.94 132.69 -99.94 133.38 C-101.21 132.78 -102.48 132.17 -103.75 131.56 C-104.46 131.23 -105.17 130.89 -105.89 130.54 C-107.96 129.36 -109.27 128.04 -110.94 126.38 C-118.42 123.88 -127.77 124.53 -135.09 127.38 C-137.99 128.94 -139.83 130.86 -141.94 133.38 C-141.38 133.68 -140.82 133.98 -140.25 134.29 C-125.4 142.44 -125.4 142.44 -123.94 145.38 C-124.83 145.56 -125.73 145.74 -126.66 145.93 C-140.67 149.19 -152.4 155.27 -162.78 165.34 C-164.75 167.2 -166.7 168.67 -168.94 170.19 C-173.07 173.17 -176.06 176.97 -179.22 180.91 C-182.25 184.66 -185.46 187.78 -189.18 190.84 C-191.78 193.11 -193.82 195.66 -195.94 198.38 C-182.98 199.72 -171.16 199.45 -158.94 194.38 C-157.95 194.38 -156.96 194.38 -155.94 194.38 C-156.6 194.83 -157.27 195.29 -157.95 195.77 C-158.83 196.38 -159.72 196.99 -160.62 197.62 C-161.5 198.23 -162.37 198.83 -163.26 199.45 C-165.9 201.35 -168.42 203.33 -170.94 205.38 C-171.8 206.06 -172.66 206.75 -173.55 207.45 C-181.68 214 -188.79 220.7 -195.19 228.94 C-195.6 229.47 -196.01 230 -196.44 230.54 C-204.48 241.14 -213.37 255.69 -212.94 269.38 C-209.24 268.82 -206.81 267.89 -203.75 265.75 C-202.6 264.95 -202.6 264.95 -201.43 264.14 C-200.61 263.56 -199.78 262.98 -198.94 262.38 C-198.01 261.73 -197.09 261.09 -196.13 260.42 C-193.73 258.75 -191.33 257.06 -188.94 255.38 C-189.44 256.36 -189.44 256.36 -189.96 257.36 C-194.29 266.22 -196.75 275.43 -195.94 285.38 C-195.3 287.05 -194.64 288.72 -193.94 290.38 C-183.87 286.96 -183.87 286.96 -174.94 281.38 C-174.94 280.71 -174.94 280.06 -174.94 279.38 C-174.07 279.28 -174.07 279.28 -173.19 279.18 C-167.64 277.19 -164.11 269.69 -161.57 264.67 C-157.65 255.33 -157.81 246.37 -157.94 236.38 C-157.28 236.38 -156.62 236.38 -155.94 236.38 C-155.92 237.03 -155.91 237.68 -155.89 238.36 C-155.25 250.73 -150.16 261.15 -141.94 270.38 C-141.28 270.38 -140.62 270.38 -139.94 270.38 C-138.61 268.57 -138.61 268.57 -137.31 266.19 C-134.89 261.99 -132.36 257.9 -129.75 253.81 C-125.02 246.12 -123.02 239.3 -121.53 230.48 C-120.83 226.8 -119.95 223.18 -119 219.56 C-118.68 218.34 -118.36 217.12 -118.04 215.86 C-116.97 212.47 -115.52 209.54 -113.94 206.38 C-113.94 205.38 -113.94 204.39 -113.94 203.38 C-113.28 203.38 -112.62 203.38 -111.94 203.38 C-111.94 205.36 -111.94 207.34 -111.94 209.38 C-112.6 209.38 -113.26 209.38 -113.94 209.38 C-117.08 221.12 -118.56 233.39 -113.19 244.81 C-112.47 246.02 -111.72 247.21 -110.94 248.38 C-110.45 249.17 -109.96 249.96 -109.45 250.78 C-106.35 255.68 -106.35 255.68 -101.94 259.38 C-97.23 251.94 -93.73 244.01 -90.44 235.88 C-83.19 218 -83.19 218 -79.94 216.38 C-80 217.19 -80.05 218 -80.11 218.84 C-80.65 232.39 -77.49 246.52 -68.94 257.38 C-66.3 259.93 -66.3 259.93 -63.94 261.38 C-61.08 258.52 -60.42 255.02 -59.25 251.25 C-57.18 244.79 -54.87 238.52 -52.12 232.31 C-51.82 231.63 -51.52 230.94 -51.21 230.24 C-49.09 225.53 -49.09 225.53 -47.94 224.38 C-47.88 225.55 -47.88 225.55 -47.82 226.75 C-47.22 236.44 -45.64 242.04 -38.94 249.38 C-38.19 250.2 -37.45 251.02 -36.69 251.88 C-33.06 255.17 -29.07 257.75 -24.94 260.38 C-22.96 259.87 -22.96 259.87 -20.94 258.38 C-19.84 255.96 -18.98 253.75 -18.19 251.25 C-17.97 250.59 -17.75 249.93 -17.52 249.25 C-16.98 247.63 -16.46 246 -15.94 244.38 C-11.7 248.36 -9.15 252.26 -6.46 257.36 C-5.96 258.03 -5.46 258.69 -4.94 259.38 C0.67 259.38 2.87 256.85 7.06 253.38 C7.91 252.7 8.76 252.02 9.63 251.32 C17.22 244.96 21.8 238.76 22.88 228.75 C22.96 227.29 23.03 225.83 23.06 224.38 C23.72 224.38 24.38 224.38 25.06 224.38 C25.08 224.96 25.09 225.54 25.11 226.14 C25.91 240.01 32.35 249.12 42.06 258.38 C44.73 260.63 45.6 261.32 49.12 261.75 C52.04 261.61 52.04 261.61 53.94 260.06 C55.34 258.3 55.34 258.3 55.06 255.38 C56.05 255.04 57.04 254.72 58.06 254.38 C65.63 243.02 66.32 230.71 66.06 217.38 C66.35 217.97 66.65 218.56 66.95 219.18 C69.74 224.82 72.67 230.36 75.7 235.88 C77.23 238.68 78.67 241.51 80.06 244.38 C80.72 244.38 81.38 244.38 82.06 244.38 C82.06 245.03 82.06 245.69 82.06 246.38 C82.72 246.38 83.38 246.38 84.06 246.38 C84.72 242.75 85.38 239.12 86.06 235.38 C88.06 235.38 88.06 235.38 89.68 236.91 C93.15 240.89 95.99 244.51 98.06 249.38 C100.32 248.52 100.32 248.52 101.13 245.88 C103.39 238.65 104.46 232.12 104.5 224.56 C104.51 223.4 104.51 223.4 104.53 222.21 C104.46 217.17 103.5 213.02 101.7 208.31 C101.06 206.38 101.06 206.38 101.06 203.38 C105.29 209.99 109.21 216.52 112.56 223.62 C115.63 229.91 119.51 237.12 126.05 240.36 C128.06 241.38 128.06 241.38 129.84 243.18 C132.79 246.09 136.1 248.19 139.56 250.44 C140.89 251.3 142.21 252.17 143.53 253.04 C144.15 253.44 144.76 253.84 145.4 254.25 C146.77 255.18 148.1 256.17 149.41 257.18 C150.99 258.57 150.99 258.57 153.06 258.38 C153.7 242.32 150.08 225.6 139.06 213.38 C141.06 213.38 141.06 213.38 143.25 215.31 C152.92 225.5 157.62 235.74 160.62 249.31 C163.7 262.98 171.36 270.94 183.06 278.38 C190.07 282.78 194.59 285.53 203.06 285.38 C203.59 271.02 201.55 260.9 194.06 248.38 C193.4 248.38 192.74 248.38 192.06 248.38 C191.7 247.29 191.7 247.29 191.32 246.18 C189.92 243.06 188.25 241.06 185.94 238.56 C185.21 237.77 184.49 236.98 183.74 236.17 C183.19 235.58 182.63 234.98 182.06 234.38 C184.9 235.71 187.33 237.21 189.81 239.12 C190.51 239.65 191.2 240.18 191.91 240.73 C192.62 241.27 193.33 241.81 194.06 242.38 C200.21 247.05 206.42 251.42 213.06 255.38 C215.73 257.03 218.4 258.7 221.06 260.38 C223.05 254.43 218.75 247.79 216.07 242.36 C211.18 232.94 205.86 223 197.44 216.29 C195.06 214.38 195.06 214.38 193.25 211.56 C190.97 208.23 188.63 206.09 185.56 203.52 C183.56 201.81 181.64 200.06 179.72 198.26 C179.14 197.71 178.56 197.17 177.96 196.6 C176.79 195.5 175.62 194.4 174.46 193.29 C171.72 190.34 171.72 190.34 168.06 189.38 C169.92 186.96 171.02 186.39 174.03 185.64 C181.42 184.69 188.61 184.1 196.06 184.38 C192.66 172.37 184.21 164.52 173.75 158.38 C164.68 153.33 155.17 149.73 145.06 147.38 C146.09 146.78 147.11 146.19 148.17 145.58 C149.53 144.78 150.89 143.99 152.25 143.19 C153.26 142.61 153.26 142.61 154.29 142.01 C158.49 139.54 161.77 136.98 165.06 133.38 C162.08 130.08 159.16 128.15 155.19 126.19 C154.18 125.68 153.17 125.17 152.13 124.64 C145.54 121.92 138.11 121.52 131.06 122.38 C128.04 123.67 125.62 125.34 123.06 127.38 C121.58 128.37 121.58 128.37 120.06 129.38 C120.62 128.64 121.18 127.9 121.75 127.14 C123.35 125 124.95 122.87 126.55 120.73 C128.1 118.65 129.67 116.6 131.27 114.55 C139.39 103.93 144.64 91.89 144.06 78.38 C135.91 78.66 129.41 79.85 122.06 83.38 C121.49 83.65 120.91 83.92 120.32 84.2 C112.1 87.91 112.1 87.91 105.06 93.38 C104.07 93.38 103.08 93.38 102.06 93.38 C102.4 92.88 102.74 92.38 103.09 91.87 C103.53 91.19 103.98 90.51 104.44 89.81 C105.1 88.82 105.1 88.82 105.77 87.81 C108.85 81.99 109.36 76.42 109.25 70 C109.25 69.28 109.25 68.55 109.25 67.81 C109.53 64.3 109.53 64.3 108.06 61.38 C100.21 60.51 94.06 61.86 87.06 65.38 C85.99 65.89 84.92 66.41 83.81 66.94 C79.62 70.65 77.49 75.39 75.06 80.38 C74.96 79.29 74.87 78.2 74.77 77.08 C72.81 57.16 66.37 42.82 51.54 29.02 C49.27 27.2 49.27 27.2 46.96 27.3 C39.84 31.31 36.86 43.11 34.66 50.56 C34.18 52.18 33.62 53.78 33.06 55.38 C32.07 55.87 32.07 55.87 31.06 56.38 C30.86 55.3 30.65 54.23 30.44 53.12 C26.81 38.72 17.38 25.96 4.69 18.35 C-1.79 14.84 -7.52 12.5 -14.94 12.38 Z M-187.12 49.75 C-194.91 57.02 -197.69 65.76 -198.08 76.24 C-198.1 77.63 -198.1 79.02 -198.11 80.41 C-198.11 81.16 -198.11 81.91 -198.12 82.69 C-198.12 84.28 -198.12 85.87 -198.12 87.46 C-198.12 89.84 -198.14 92.22 -198.16 94.6 C-198.22 108.94 -196.28 122.57 -193.44 136.62 C-193.22 137.72 -193.01 138.82 -192.79 139.96 C-192.48 141.53 -192.48 141.53 -192.16 143.14 C-191.97 144.08 -191.78 145.01 -191.59 145.98 C-191.01 148.61 -191.01 148.61 -188.94 151.38 C-187 156.25 -185.61 161.16 -184.94 166.38 C-181.94 165.01 -179.69 163.45 -177.25 161.25 C-176.55 160.63 -175.84 160 -175.12 159.36 C-173.71 158.08 -172.32 156.78 -170.95 155.45 C-164.32 149.2 -156.81 144.86 -148.94 140.38 C-149.59 139.64 -150.25 138.91 -150.93 138.16 C-153.04 135.23 -153.47 134.35 -153.06 130.88 C-152.46 127.28 -151.95 126.39 -149.38 123.56 C-143.72 119.62 -137.27 117.01 -130.94 114.38 C-136.5 99.08 -145.59 81.36 -156.94 69.38 C-157.6 69.38 -158.26 69.38 -158.94 69.38 C-159.28 68.3 -159.28 68.3 -159.63 67.2 C-161.2 63.8 -163.16 61.75 -165.81 59.12 C-166.68 58.25 -167.54 57.38 -168.43 56.48 C-170.86 54.44 -171.97 54.04 -174.94 53.38 C-175.27 52.38 -175.6 51.4 -175.94 50.38 C-181.54 48.19 -181.54 48.19 -187.12 49.75 Z M182.06 54.38 C181.24 54.93 180.41 55.49 179.56 56.06 C176.6 58.8 174.31 61.8 171.89 65.02 C170.18 67.22 168.38 69.26 166.5 71.31 C159.94 78.83 156.61 85.97 154.47 95.6 C153.61 99.42 152.61 102.75 150.75 106.19 C150.19 107.24 149.64 108.29 149.06 109.38 C149.39 110.37 149.72 111.35 150.06 112.38 C152.53 113.52 154.96 114.53 157.5 115.5 C165.04 118.57 173.24 122.73 177.06 130.38 C177.59 133.6 177.6 135.59 175.72 138.32 C174.22 140.07 172.68 141.74 171.06 143.38 C172.81 144.33 174.56 145.29 176.31 146.25 C177.29 146.78 178.26 147.32 179.27 147.87 C181.51 149.08 183.77 150.25 186.06 151.38 C186.06 152.03 186.06 152.69 186.06 153.38 C188.08 155.19 188.08 155.19 190.56 157 C191.82 157.95 191.82 157.95 193.09 158.91 C193.74 159.4 194.39 159.88 195.06 160.38 C195.72 160.05 196.38 159.72 197.06 159.38 C197.84 157.08 197.84 157.08 198.44 154.25 C199.53 149.58 200.74 144.98 202.06 140.38 C209 114.57 214.24 78.79 201.44 54.16 C199.82 52.06 198.53 51.3 196.06 50.38 C190.11 49.7 186.8 51.09 182.06 54.38 Z M113.06 242.38 C112.75 243.17 112.43 243.97 112.11 244.79 C106.43 258.86 106.43 258.86 101.62 261.94 C99.06 262.38 99.06 262.38 96.31 261.12 C94.06 259.38 94.06 259.38 93.06 257.38 C89.81 258.46 89.81 258.46 87.06 260.38 C84.31 260.75 84.31 260.75 81.06 260.38 C78.5 258.19 78.5 258.19 76.06 255.38 C74.67 253.98 74.67 253.98 73.25 252.56 C72.53 251.84 71.81 251.12 71.06 250.38 C70.81 250.98 70.55 251.59 70.29 252.21 C66.28 260.99 60.01 270.1 51.06 274.38 C48.44 274.19 48.44 274.19 46.06 273.38 C45.3 273.19 44.54 273 43.75 272.81 C43.19 272.67 42.64 272.52 42.06 272.38 C42.06 271.71 42.06 271.06 42.06 270.38 C40.24 269.03 40.24 269.03 37.94 267.69 C33.43 264.79 30.28 261.63 27.06 257.38 C26.44 256.57 25.82 255.77 25.19 254.94 C24.82 254.42 24.44 253.91 24.06 253.38 C20.84 254.77 18.96 256.39 16.62 259 C10.6 265.19 1.97 271.95 -6.94 272.38 C-9.69 270.06 -9.69 270.06 -11.94 267.38 C-12.93 266.38 -12.93 266.38 -13.94 265.38 C-14.45 266.37 -14.97 267.36 -15.5 268.38 C-17.94 271.38 -17.94 271.38 -21.06 272.06 C-30.25 270.43 -36.41 265.48 -42.91 259.12 C-45.27 256.83 -46.77 255.43 -49.94 254.38 C-50.94 257.33 -51.94 260.29 -52.94 263.25 C-53.22 264.09 -53.51 264.93 -53.8 265.8 C-54.08 266.61 -54.35 267.41 -54.62 268.24 C-54.88 268.99 -55.13 269.73 -55.39 270.5 C-56.03 272.37 -56.03 272.37 -55.94 274.38 C-61.85 275.03 -65 274.84 -69.81 271.19 C-72.91 268.52 -75.09 266.06 -76.94 262.38 C-77.45 261.86 -77.97 261.34 -78.5 260.81 C-80.15 259.16 -80.99 257.5 -81.94 255.38 C-82.6 255.38 -83.26 255.38 -83.94 255.38 C-84.43 252.9 -84.43 252.9 -84.94 250.38 C-88.41 252.11 -89.49 255.91 -90.94 259.38 C-91.75 262.03 -92.35 264.65 -92.94 267.38 C-93.6 267.38 -94.26 267.38 -94.94 267.38 C-95.35 268.2 -95.76 269.02 -96.19 269.88 C-97.94 272.38 -97.94 272.38 -100.81 272.94 C-104.53 272.27 -106.15 270.85 -108.94 268.38 C-109.6 268.38 -110.26 268.38 -110.94 268.38 C-111.19 267.65 -111.43 266.93 -111.69 266.19 C-113.43 262.27 -115.92 259.39 -118.94 256.38 C-119.51 257.34 -120.07 258.31 -120.66 259.3 C-122.66 262.7 -124.71 266.07 -126.76 269.43 C-127.79 271.14 -128.79 272.87 -129.78 274.6 C-133.64 280.92 -133.64 280.92 -137.16 282.16 C-141.28 282.43 -144.09 281.65 -147.31 279.06 C-148.18 278.18 -149.05 277.29 -149.94 276.38 C-150.56 275.78 -151.18 275.18 -151.81 274.56 C-152.18 274.17 -152.56 273.78 -152.94 273.38 C-152.94 274.04 -152.94 274.69 -152.94 275.38 C-153.56 275.6 -154.18 275.83 -154.81 276.06 C-157.56 277.76 -157.87 279.4 -158.94 282.38 C-159.93 282.87 -159.93 282.87 -160.94 283.38 C-160.94 284.03 -160.94 284.69 -160.94 285.38 C-161.6 285.38 -162.26 285.38 -162.94 285.38 C-162.94 286.03 -162.94 286.69 -162.94 287.38 C-163.56 287.52 -164.18 287.66 -164.81 287.81 C-166.97 288.31 -166.97 288.31 -168.94 289.38 C-168.61 290.69 -168.28 292.01 -167.94 293.38 C-168.93 293.38 -169.92 293.38 -170.94 293.38 C-171.08 294.15 -171.22 294.92 -171.36 295.71 C-172.01 299.24 -172.66 302.78 -173.31 306.31 C-173.53 307.52 -173.76 308.74 -173.98 309.99 C-175.85 320.12 -175.85 320.12 -177.03 324.67 C-178.5 331.12 -178.61 337.81 -178.94 344.4 C-179.06 346.74 -179.19 349.07 -179.32 351.41 C-180.32 369.47 -180.89 387.33 -173.94 404.38 C-173.55 405.32 -173.17 406.26 -172.78 407.24 C-166.73 421.3 -157.38 432.49 -144.94 441.38 C-144.19 441.93 -143.44 442.48 -142.68 443.04 C-124.8 455.96 -105.89 463.82 -84.94 470.38 C-83.17 470.93 -83.17 470.93 -81.36 471.5 C-55.41 479.25 -29.32 481.9 -2.31 481.77 C1.66 481.75 5.63 481.77 9.6 481.79 C62.82 481.83 113.46 470.5 157.69 439.83 C158.27 439.43 158.85 439.03 159.44 438.61 C161.14 437.32 162.58 435.9 164.06 434.38 C165.2 433.43 166.35 432.49 167.5 431.56 C170.71 428.83 172.84 425.98 175.06 422.38 C175.72 421.57 176.38 420.77 177.06 419.94 C196.54 394.98 192.06 357.13 188.63 327.67 C186.18 303.42 186.18 303.42 173.88 283.94 C172.89 283.15 171.91 282.37 170.9 281.56 C168.63 279.81 166.35 278.13 164 276.5 C161.06 274.38 161.06 274.38 159.06 271.38 C157.21 270.83 157.21 270.83 155.06 270.62 C150.03 269.65 146.79 267.4 142.73 264.36 C139.93 262.27 137.05 260.35 134.12 258.44 C118.47 248.04 118.47 248.04 113.06 242.38 Z M198.06 297.38 C198.55 302.16 199.18 305.94 201.06 310.38 C201.39 311.77 201.7 313.16 202 314.56 C202.67 318.59 202.67 318.59 206.06 320.38 C205.22 312.53 204.11 305.29 200.06 298.38 C199.4 298.05 198.74 297.71 198.06 297.38 Z M-190.94 300.38 C-194.93 309.03 -194.93 309.03 -195.94 318.38 C-192.94 317.7 -192.94 317.7 -191.8 315.81 C-189.37 310.91 -188.33 306.83 -187.94 301.38 C-188.93 301.05 -189.92 300.71 -190.94 300.38 Z M-171.94 438.38 C-172.18 439.43 -172.42 440.48 -172.67 441.56 C-174.3 448.44 -175.9 455.01 -179.02 461.39 C-179.95 463.41 -180.61 465.38 -181.25 467.5 C-185.03 479.25 -191.39 490.39 -196.94 501.38 C-192.32 501.05 -187.7 500.72 -182.94 500.38 C-185.31 510.07 -188.21 519.49 -191.44 528.94 C-191.82 530.07 -192.2 531.2 -192.59 532.36 C-194.52 537.94 -196.45 542.62 -199.94 547.38 C-199.94 548.03 -199.94 548.69 -199.94 549.38 C-193.29 547.66 -188.82 545.22 -183.94 540.38 C-183.94 544.05 -185.03 546.27 -186.44 549.69 C-189.72 558.02 -192.03 566.6 -194.31 575.25 C-194.49 575.93 -194.67 576.61 -194.86 577.31 C-197 584.25 -197 584.25 -197.94 591.38 C-192.93 590.9 -189.87 589.52 -185.94 586.38 C-183.42 582.65 -181.76 578.72 -180.06 574.56 C-174.19 560.5 -174.19 560.5 -169.94 558.38 C-170.13 558.98 -170.32 559.59 -170.52 560.21 C-171.37 562.92 -172.16 565.64 -172.94 568.38 C-173.15 569.11 -173.36 569.84 -173.58 570.6 C-178.09 588.97 -175.23 611.48 -165.62 627.75 C-164.43 629.64 -163.21 631.53 -161.94 633.38 C-158.91 631.03 -156.17 628.73 -153.69 625.81 C-153.19 625.23 -152.69 624.65 -152.17 624.06 C-150.74 622.28 -150.74 622.28 -149.94 619.38 C-149.47 618.93 -149 618.48 -148.51 618.01 C-146.51 615.93 -145.77 613.89 -144.75 611.19 C-144.41 610.29 -144.06 609.39 -143.71 608.46 C-143.33 607.43 -143.33 607.43 -142.94 606.38 C-142.87 606.97 -142.8 607.56 -142.73 608.17 C-140.79 624.26 -138.23 638.73 -130.94 653.38 C-125.69 649.5 -122.11 645.1 -118.94 639.38 C-118.94 638.72 -118.94 638.06 -118.94 637.38 C-117.95 637.04 -116.96 636.72 -115.94 636.38 C-114.6 634.77 -114.6 634.77 -113.44 632.88 C-111.27 629.49 -111.27 629.49 -107.94 628.38 C-108 629.07 -108.06 629.76 -108.12 630.47 C-108.4 633.62 -108.67 636.78 -108.94 639.94 C-109.03 641.02 -109.13 642.11 -109.23 643.23 C-109.69 648.63 -110.06 653.95 -109.94 659.38 C-97.33 651.89 -87.67 641.03 -80.56 628.25 C-78.94 625.38 -78.94 625.38 -76.94 624.38 C-77.1 625.34 -77.26 626.31 -77.42 627.3 C-80.18 646.79 -75.55 662.1 -66.94 679.38 C-63.93 676.55 -62.48 673.7 -60.75 669.94 C-60.22 668.8 -59.69 667.67 -59.14 666.5 C-57.7 663.31 -57.7 663.31 -57.94 659.38 C-57.28 659.38 -56.62 659.38 -55.94 659.38 C-55.83 660.09 -55.72 660.8 -55.61 661.54 C-54.66 667.25 -53.48 672.17 -50.94 677.38 C-47.32 674.06 -44.82 670.4 -42.19 666.31 C-37.96 659.85 -33.55 653.57 -28.94 647.38 C-27.46 650.33 -27.43 653.29 -27.06 656.56 C-26.41 661.96 -25.52 666.56 -22.94 671.38 C-22.28 671.38 -21.62 671.38 -20.94 671.38 C-20.71 672.28 -20.48 673.19 -20.25 674.12 C-18.76 677.82 -17.18 679.15 -13.94 681.38 C-2.5 674.17 2.93 664.29 6.06 651.38 C6.35 650.32 6.35 650.32 6.65 649.25 C7.64 644.76 7.52 639.74 6.06 635.38 C11.92 640.52 14.72 649.11 17.19 656.31 C18.61 660.42 20.23 663.04 23.06 666.38 C24.07 668.17 25.04 669.99 26 671.81 C28.31 676.17 30.73 679.75 34.06 683.38 C42.27 676.39 43.92 663.47 44.84 653.38 C44.91 652.39 44.99 651.4 45.06 650.38 C45.39 651.47 45.71 652.57 46.05 653.7 C46.49 655.15 46.93 656.61 47.38 658.06 C47.59 658.78 47.8 659.5 48.02 660.25 C49.26 664.3 50.52 667.92 53.06 671.38 C53.72 671.38 54.38 671.38 55.06 671.38 C55.25 672.06 55.43 672.74 55.62 673.44 C58.27 678.84 63.44 684.09 69.06 686.38 C71.56 685.52 72.76 684.93 74.04 682.59 C74.25 681.89 74.47 681.18 74.7 680.45 C75.07 679.29 75.07 679.29 75.45 678.09 C75.69 677.28 75.94 676.46 76.19 675.62 C76.44 674.83 76.69 674.03 76.95 673.2 C77.44 671.63 77.93 670.06 78.41 668.49 C78.94 666.78 79.53 665.08 80.14 663.4 C81.41 659.23 82.02 655.05 82.62 650.75 C82.75 649.84 82.88 648.93 83.02 648 C84.3 638.48 84.76 628.96 85.06 619.38 C85.74 621.22 85.74 621.22 86.43 623.11 C92.14 638.27 102.35 649.53 116.5 657.25 C121.31 658.77 126.04 659.11 131.06 659.38 C131.41 657.46 131.74 655.54 132.06 653.62 C132.25 652.56 132.43 651.49 132.62 650.39 C133.36 645.09 133.14 639.72 133.06 634.38 C133.93 634.68 134.8 634.98 135.69 635.29 C138.91 636.41 142.13 637.53 145.34 638.65 C146.74 639.13 148.13 639.62 149.52 640.1 C151.52 640.8 153.52 641.49 155.52 642.19 C156.73 642.61 157.93 643.03 159.17 643.46 C161.87 644.48 161.87 644.48 164.06 644.38 C165.43 639.61 165.25 634.92 165.25 630 C165.26 629.07 165.27 628.13 165.29 627.17 C165.3 622.17 165.05 618.07 163.06 613.38 C163.99 614.2 164.92 615.02 165.88 615.88 C173.44 622.36 181.73 627.93 190.06 633.38 C191.05 634.03 192.04 634.69 193.06 635.38 C195.22 635.07 195.22 635.07 197.06 634.38 C198.81 627.37 199.68 620.58 200.06 613.38 C200.16 611.83 200.16 611.83 200.26 610.25 C200.75 596.4 197.29 584.8 188.06 574.38 C186.19 572.43 184.31 570.54 182.31 568.71 C181.06 567.38 181.06 567.38 181.06 565.38 C188.43 569.97 195.75 575.03 201.06 582 C204.87 586.52 210.2 590.26 216.06 591.38 C215.46 585.21 214.17 579.55 212.38 573.62 C211.98 572.31 211.98 572.31 211.58 570.97 C209.68 564.84 207.37 559.31 204.26 553.69 C203.16 551.56 202.52 549.72 202.06 547.38 C202.57 547.67 203.08 547.96 203.61 548.26 C209.99 551.85 216.5 555.14 223.06 558.38 C223.39 557.72 223.72 557.06 224.06 556.38 C223.43 554.7 222.75 553.03 222.06 551.38 C221.57 549.39 221.12 547.4 220.7 545.4 C219.13 538.44 217.12 531.71 214.88 524.94 C214.67 524.31 214.46 523.69 214.25 523.05 C210.09 510.54 205.02 498.45 199.82 486.35 C193.09 470.67 187.23 454.95 183.06 438.38 C182.43 438.92 182.43 438.92 181.79 439.47 C180.55 440.53 179.32 441.59 178.08 442.65 C176.8 443.74 175.53 444.83 174.26 445.93 C158.91 459.06 142.41 468.1 124.06 476.38 C123.3 476.72 122.53 477.07 121.74 477.43 C105.37 484.83 87.49 489.41 69.73 491.92 C66.88 492.37 66.88 492.37 63.39 493.33 C59.33 494.36 55.27 495.01 51.11 495.48 C50.38 495.57 49.65 495.65 48.89 495.74 C41.01 496.58 33.16 496.68 25.24 496.68 C23.68 496.68 22.13 496.68 20.57 496.69 C17.33 496.7 14.09 496.7 10.85 496.69 C7.59 496.69 4.32 496.69 1.05 496.71 C-17.49 496.81 -35.61 496.61 -53.94 493.38 C-54.64 493.25 -55.34 493.13 -56.06 493.01 C-64.52 491.55 -72.85 489.48 -81.19 487.44 C-82.18 487.2 -83.18 486.96 -84.2 486.71 C-93.36 484.42 -102.09 481.34 -110.67 477.4 C-112.44 476.6 -114.23 475.83 -116.03 475.09 C-135.63 466.69 -154.98 455.68 -169.54 439.85 C-170 439.36 -170.46 438.88 -170.94 438.38 C-171.27 438.38 -171.6 438.38 -171.94 438.38 Z M-180.94 623.38 C-181.16 624.47 -181.38 625.57 -181.61 626.7 C-182.45 630.85 -183.29 635.01 -184.14 639.16 C-184.5 640.94 -184.86 642.72 -185.22 644.51 C-187 653.32 -188.8 662.11 -191.04 670.82 C-192.81 677.74 -194.23 684.67 -195.5 691.69 C-196.79 698.78 -198.23 705.72 -200.19 712.65 C-201.48 717.35 -202.48 722.11 -203.5 726.88 C-203.71 727.83 -203.92 728.79 -204.13 729.77 C-205.37 735.51 -206.49 741.25 -207.49 747.03 C-208.1 750.21 -209.05 753.27 -209.94 756.38 C-210.26 758.04 -210.56 759.71 -210.85 761.38 C-211.89 767.2 -213.09 772.97 -214.31 778.75 C-216.66 789.93 -218.99 801.12 -220.94 812.38 C-221.06 813.06 -221.18 813.74 -221.3 814.45 C-224.71 834.84 -224.86 857.25 -219.94 877.38 C-219.65 878.62 -219.65 878.62 -219.35 879.88 C-215.03 897.99 -207.43 913.07 -196.14 927.8 C-195 929.29 -193.9 930.79 -192.8 932.3 C-186.98 939.92 -178.29 949.26 -168.94 952.38 C-168.94 946.43 -168.94 940.5 -168.94 934.38 C-168.28 934.38 -167.62 934.38 -166.94 934.38 C-166.88 935.47 -166.81 936.56 -166.75 937.69 C-166.06 943.41 -163.48 948.27 -160.94 953.38 C-160.55 954.14 -160.17 954.91 -159.78 955.7 C-159.5 956.25 -159.22 956.81 -158.94 957.38 C-158.28 957.38 -157.62 957.38 -156.94 957.38 C-156.88 958.08 -156.81 958.78 -156.75 959.5 C-155.68 963.27 -153.52 965.54 -150.94 968.38 C-150.41 969 -149.88 969.62 -149.33 970.25 C-143.51 977.06 -137.67 983.73 -129.94 988.38 C-129.15 987.5 -129.15 987.5 -128.36 986.61 C-126.35 984.38 -124.34 982.15 -122.33 979.92 C-120.88 978.31 -119.44 976.69 -118 975.07 C-117.02 973.99 -116.04 972.9 -115.06 971.81 C-114.6 971.29 -114.13 970.76 -113.66 970.22 C-111.43 967.76 -110.15 966.44 -106.94 965.38 C-106.94 972.96 -106.94 980.56 -106.94 988.38 C-99.8 984.97 -93.27 981.47 -86.9 976.79 C-84.94 975.38 -84.94 975.38 -82.94 974.38 C-83.1 975.01 -83.27 975.65 -83.44 976.31 C-84.1 980.35 -84.02 984.29 -83.94 988.38 C-61.99 978.08 -45.66 957.57 -36.94 935.38 C-35.09 930.25 -33.76 925.85 -33.94 920.38 C-33.28 920.38 -32.62 920.38 -31.94 920.38 C-31.96 920.94 -31.98 921.51 -32 922.09 C-32.19 928.03 -32.37 933.97 -32.53 939.91 C-32.59 942.12 -32.66 944.33 -32.74 946.54 C-32.84 949.73 -32.93 952.92 -33.01 956.12 C-33.05 957.09 -33.09 958.07 -33.12 959.08 C-33.29 966.87 -32.58 974.28 -27.38 980.38 C-15.98 987.01 0.32 985.57 13.06 985.56 C14.07 985.56 14.07 985.56 15.11 985.56 C23.61 985.55 32.09 985.37 40.56 984.56 C41.34 984.49 42.11 984.42 42.91 984.35 C48.75 983.7 53.99 982.39 58.31 978.19 C63.21 970.32 64.22 962.45 64.16 953.36 C64.16 952.5 64.16 951.64 64.16 950.75 C64.15 948.02 64.14 945.29 64.12 942.56 C64.12 940.71 64.12 938.85 64.11 936.99 C64.1 932.45 64.08 927.91 64.06 923.38 C65.05 923.38 66.04 923.38 67.06 923.38 C67.08 923.96 67.09 924.54 67.11 925.14 C67.92 939.14 75.55 951.6 84.06 962.38 C84.67 963.18 85.28 963.99 85.91 964.82 C93.02 974.07 101.53 982.11 112.06 987.38 C113.38 980.81 112.59 976.54 110.06 970.38 C111.71 970.7 113.36 971.04 115.06 971.38 C115.06 972.04 115.06 972.69 115.06 973.38 C116.61 974.76 116.61 974.76 118.64 976.12 C119.39 976.65 120.14 977.18 120.91 977.72 C122.1 978.54 122.1 978.54 123.31 979.38 C124.09 979.92 124.87 980.47 125.67 981.03 C129.05 983.39 132.33 985.6 136.06 987.38 C137.3 983.66 137.42 980.06 137.62 976.19 C137.67 975.44 137.71 974.69 137.76 973.92 C137.86 972.07 137.96 970.22 138.06 968.38 C142.37 968.38 146.15 973.48 149.06 976.38 C150.46 978.33 151.81 980.33 153.06 982.38 C154.92 984.82 154.92 984.82 157.06 986.38 C162.88 986.06 166.98 979.93 170.69 975.92 C174.18 971.99 177.16 967.74 180.06 963.38 C180.61 962.6 181.15 961.82 181.71 961.02 C186.52 953.72 188.72 945.71 191.06 937.38 C191.39 937.38 191.72 937.38 192.06 937.38 C192.06 943.32 192.06 949.25 192.06 955.38 C193.44 954.45 194.83 953.52 196.25 952.56 C198.66 950.95 201.05 949.38 203.57 947.93 C213.38 941.8 222.82 932.06 229.06 922.38 C229.75 921.39 230.43 920.41 231.14 919.39 C241.06 904.75 247.73 888.28 250.63 870.82 C251.06 868.38 251.06 868.38 251.57 866.61 C257.44 839.73 250.17 803.21 240.06 778.38 C239.74 777.05 239.44 775.72 239.19 774.38 C238.41 770.67 237.37 767.15 236.19 763.56 C234.39 757.89 233.17 752.22 232.06 746.38 C230.76 739.53 229.16 732.98 226.99 726.36 C225.73 722.3 224.83 718.19 223.91 714.04 C222.68 708.75 221.28 703.51 219.86 698.26 C218.45 692.99 217.21 687.71 216.06 682.38 C215.09 677.89 214.11 673.42 213.12 668.94 C212.87 667.77 212.62 666.61 212.36 665.41 C210.87 658.63 209.18 651.99 207.06 645.38 C204.82 645.15 204.82 645.15 202.94 647.38 C202.32 648.03 201.7 648.7 201.06 649.38 C196.24 648.17 192.14 646.54 187.76 644.18 C186.07 643.23 186.07 643.23 184.06 643.38 C184.06 642.72 184.06 642.05 184.06 641.38 C182.86 640.94 182.86 640.94 181.62 640.5 C179.06 639.38 179.06 639.38 178.06 637.38 C177.07 637.38 176.08 637.38 175.06 637.38 C174.76 639.07 174.76 639.07 174.44 640.8 C174.17 642.29 173.9 643.77 173.62 645.25 C173.42 646.37 173.42 646.37 173.22 647.51 C172.18 653.15 172.18 653.15 171.06 655.38 C164.53 655.89 159.4 654.44 153.21 652.35 C150.16 651.41 147.22 650.83 144.06 650.38 C143.9 651.32 143.9 651.32 143.73 652.28 C142.68 657.93 141.37 663.1 139.06 668.38 C133.04 671.39 122.91 669.99 116.5 668.61 C108.83 665.94 102.84 661.6 96.64 656.48 C94.27 654.39 94.27 654.39 92.06 653.38 C91.88 654.36 91.88 654.36 91.7 655.36 C86.19 684.83 86.19 684.83 77.06 697.38 C72.76 699.24 69.36 697.84 65.06 696.38 C61.89 694.42 61.89 694.42 58.88 692.12 C57.87 691.38 56.87 690.63 55.83 689.86 C52.85 687.19 51.12 684.77 49.06 681.38 C46.16 682.83 45.55 684.96 44.06 687.81 C41.27 693.17 41.27 693.17 39.06 695.38 C33.28 695.26 30.02 693.38 26.06 689.38 C24.17 686.97 22.51 684.46 20.88 681.88 C20.45 681.22 20.03 680.57 19.59 679.9 C17.34 676.44 15.16 672.93 13.06 669.38 C9.23 670.65 8.56 672.2 6.31 675.5 C2.92 680.3 -0.58 684.45 -4.94 688.38 C-5.8 689.16 -6.67 689.94 -7.56 690.75 C-10.31 692.63 -11.58 693.45 -14.94 693.38 C-21.69 690.91 -24.84 686.04 -28.3 680 C-29.93 677.39 -31.68 675.46 -33.94 673.38 C-34.52 674.3 -34.52 674.3 -35.11 675.24 C-35.63 676.05 -36.15 676.85 -36.69 677.69 C-37.45 678.89 -37.45 678.89 -38.23 680.11 C-39.94 682.38 -41.66 683.72 -43.94 685.38 C-44.31 686.43 -44.31 686.43 -44.69 687.5 C-45.94 689.38 -45.94 689.38 -47.84 689.85 C-49.86 690.1 -51.9 690.24 -53.94 690.38 C-54.27 689.72 -54.6 689.06 -54.94 688.38 C-55.6 688.38 -56.26 688.38 -56.94 688.38 C-57.37 689.34 -57.8 690.31 -58.25 691.31 C-59.94 694.38 -59.94 694.38 -62.94 695.38 C-67.84 693.25 -70.71 689.46 -73.94 685.38 C-74.46 684.74 -74.98 684.11 -75.51 683.46 C-81.94 675.34 -84.83 666.15 -87.94 656.38 C-88.4 656.78 -88.86 657.19 -89.33 657.62 C-90.25 658.43 -90.25 658.43 -91.19 659.25 C-91.79 659.78 -92.39 660.32 -93.02 660.87 C-94.94 662.38 -94.94 662.38 -96.98 663.38 C-99.09 664.45 -100.3 665.69 -101.94 667.38 C-107.87 671.47 -112.85 671.77 -119.94 671.38 C-120.93 665.93 -120.93 665.93 -121.94 660.38 C-122.56 661.16 -123.18 661.94 -123.81 662.75 C-127.48 667.28 -127.48 667.28 -130.25 667.88 C-133.53 667.26 -134.67 665.95 -136.62 663.32 C-137.27 662.36 -137.27 662.36 -137.94 661.38 C-138.42 660.68 -138.91 659.99 -139.41 659.28 C-144.08 652.13 -146.5 644.48 -148.94 636.38 C-151.94 638.1 -154.3 639.71 -156.88 642.06 C-159.94 644.38 -159.94 644.38 -163.06 645 C-166.94 644.16 -167.77 642.63 -169.94 639.38 C-170.9 638.29 -170.9 638.29 -171.88 637.19 C-174.35 633.81 -176.03 630.27 -177.79 626.48 C-178.76 624.23 -178.76 624.23 -180.94 623.38 Z M-46.94 969.25 C-48.64 970.97 -50.23 972.72 -51.78 974.58 C-59.61 983.85 -74.07 997.13 -86.6 998.71 C-88.94 998.38 -88.94 998.38 -91.25 995.38 C-91.81 994.38 -92.36 993.39 -92.94 992.38 C-96.33 993.58 -99.25 995.15 -102.31 997 C-106.5 999.39 -109.18 999.88 -113.94 999.38 C-114.6 995.41 -115.26 991.45 -115.94 987.38 C-119.61 990.06 -121.67 992.47 -123.94 996.38 C-127.22 998.56 -128.13 998.93 -131.94 998.38 C-134.55 996.62 -134.55 996.62 -137.25 994.25 C-141.7 990.44 -146.21 986.83 -150.94 983.38 C-150.98 984.67 -151.02 985.97 -151.06 987.31 C-151.1 988.41 -151.1 988.41 -151.13 989.53 C-151 992.57 -151 992.57 -150.02 996.19 C-148.56 1002.44 -148.19 1008.81 -147.68 1015.19 C-147.11 1040.43 -147.11 1040.43 -136.38 1061.81 C-129.96 1065.93 -122.22 1064.52 -114.94 1063.88 C-103.26 1062.91 -91.63 1063.15 -79.96 1064.14 C-69 1065.05 -69 1065.05 -58.66 1061.93 C-53.52 1057.27 -52.19 1051.39 -51.31 1044.81 C-51.13 1043.59 -51.13 1043.59 -50.95 1042.35 C-49.91 1034.95 -49.26 1027.52 -48.64 1020.08 C-48.25 1015.48 -47.79 1010.97 -46.94 1006.44 C-45.86 1000.58 -45.34 994.68 -44.81 988.75 C-44.72 987.78 -44.64 986.82 -44.55 985.82 C-44.02 979.66 -43.83 973.56 -43.94 967.38 C-45.27 967.26 -45.27 967.26 -46.94 969.25 Z M75.06 968.38 C75.46 984.18 76 999.89 77.6 1015.63 C78.01 1019.67 78.25 1023.69 78.44 1027.75 C78.87 1034.57 79.86 1041.26 80.94 1048 C81.1 1049.04 81.26 1050.09 81.43 1051.17 C82.55 1058.23 82.55 1058.23 86.06 1064.38 C88.58 1065.63 90.09 1065.4 92.9 1065.25 C93.93 1065.21 94.95 1065.16 96.01 1065.11 C97.14 1065.05 98.27 1065 99.44 1064.94 C122.57 1063.94 145.97 1063.48 169.06 1065.38 C171.3 1053.41 173.38 1041.51 174.38 1029.38 C174.74 1025.1 175.29 1020.94 176.05 1016.71 C177.26 1009.71 177.74 1002.71 178.19 995.62 C178.32 993.7 178.32 993.7 178.45 991.74 C178.66 988.62 178.86 985.5 179.06 982.38 C178.63 982.75 178.21 983.12 177.77 983.5 C173.69 987.01 169.59 990.47 165.38 993.81 C164.82 994.27 164.27 994.73 163.69 995.2 C159.68 998.36 159.68 998.36 156.89 998.41 C154.51 997.06 153.15 995.45 151.44 993.31 C150.35 991.97 149.24 990.64 148.06 989.38 C147.4 989.38 146.74 989.38 146.06 989.38 C145.93 990.01 145.8 990.65 145.66 991.31 C145.4 992.55 145.4 992.55 145.12 993.81 C144.95 994.64 144.78 995.46 144.6 996.31 C144.06 998.38 144.06 998.38 143.06 999.38 C136.75 999.26 133.21 997.56 128.14 993.85 C126.18 992.46 124.24 991.39 122.06 990.38 C121.47 992.08 121.47 992.08 120.88 993.81 C119.06 997.38 119.06 997.38 116.88 998.5 C109.63 998.18 104.75 994.69 99.34 990.24 C97.9 989.06 96.42 987.91 94.91 986.82 C89.22 982.69 84.62 977.87 79.96 972.64 C78.68 971.21 77.37 969.79 76.06 968.38 C75.73 968.38 75.4 968.38 75.06 968.38 Z " fill="#000000" transform="translate(374.9375,72.625)"/>
<path d="M0 0 C9.11 6.48 15.41 15.15 17.55 26.22 C18.77 38.33 14.55 47.91 7.8 57.71 C0.49 64.84 -7.9 67.74 -17.88 68.15 C-28.76 67.96 -38.59 63.53 -46.2 55.71 C-51.37 48.59 -54.59 41.97 -54.57 33.09 C-54.57 32.38 -54.57 31.68 -54.57 30.95 C-54.39 23.14 -52.44 15.71 -47.2 9.71 C-46.54 9.71 -45.88 9.71 -45.2 9.71 C-44.96 8.95 -44.72 8.19 -44.47 7.41 C-41.9 1.99 -35.84 -0.28 -30.44 -2.34 C-20.09 -5.46 -9.55 -5.61 0 0 Z M-15.2 6.71 C-17.74 10.14 -17.64 13.57 -17.2 17.71 C-15.84 20.31 -15.84 20.31 -13.2 21.71 C-9.43 22.39 -6.3 22.16 -2.76 20.71 C-0.35 17.62 0.11 14.58 -0.2 10.71 C-1.52 7.64 -1.52 7.64 -4.2 5.71 C-8.39 4.59 -11.63 3.94 -15.2 6.71 Z " fill="#000000" transform="translate(504.1953125,360.2890625)"/>
<path d="M0 0 C7.51 6.65 12.39 14.6 13.34 24.62 C13.93 36.44 11.91 45.47 3.67 54.57 C-4.38 62 -4.38 62 -10 62 C-10 62.66 -10 63.32 -10 64 C-21.48 66.12 -31.76 66.06 -42 60 C-49.36 54.77 -53.49 49.23 -57 41 C-57.33 40.67 -57.66 40.34 -58 40 C-59.23 19.67 -59.23 19.67 -54 12 C-53.36 10.98 -53.36 10.98 -52.71 9.94 C-46.55 0.85 -38.29 -4.32 -27.75 -6.75 C-17.25 -7.45 -8.85 -5.97 0 0 Z M-18.88 3.31 C-21.39 7.08 -21.08 10.62 -21 15 C-20.01 15.33 -19.02 15.66 -18 16 C-17.67 16.99 -17.34 17.98 -17 19 C-11.68 19.44 -11.68 19.44 -6.77 17.83 C-4.39 15.37 -4.43 13.88 -4.44 10.5 C-4.54 6.18 -4.54 6.18 -7.06 2.81 C-11.2 1.67 -15.17 0.72 -18.88 3.31 Z " fill="#000000" transform="translate(298,363)"/>
<path d="M0 0 C1.02 -0.02 2.03 -0.03 3.08 -0.05 C10.81 -0.05 20.44 0.17 26.31 5.88 C29.4 9.88 29.44 12.15 28.81 17.06 C28 19.98 26.48 21.59 24 23.32 C19.62 25.72 15.03 27.15 10.19 28.31 C8.41 33.63 7.93 38.17 8.06 43.75 C8.07 44.48 8.08 45.21 8.09 45.97 C8.11 47.75 8.15 49.53 8.19 51.31 C15.89 54.61 22 54.66 30.06 52.56 C35.25 49.51 36.99 44.6 39.19 39.31 C40.18 38.32 40.18 38.32 41.19 37.31 C44.19 37.5 44.19 37.5 47.19 38.31 C49.66 42.02 49.45 43.58 48.85 47.84 C47.03 54.67 42.26 60.1 36.55 64.09 C32.04 66.42 27.14 67.37 22.19 68.31 C21.86 69.96 21.53 71.61 21.19 73.31 C20.53 73.31 19.87 73.31 19.19 73.31 C19.02 74.01 18.86 74.72 18.69 75.44 C16.09 80.41 11.93 83.28 6.72 85.24 C0.79 86.72 -3.5 86.36 -8.81 83.31 C-13 80.47 -14.94 78.15 -17.38 73.75 C-20.71 68.42 -24.75 67.74 -30.62 66.26 C-37.18 64.32 -42.13 59.93 -45.84 54.24 C-47.62 50.73 -48.64 47.25 -48.81 43.31 C-47.75 40.31 -47.75 40.31 -45.81 38.31 C-43.38 37.25 -43.38 37.25 -40.81 37.31 C-37.31 39.61 -36.22 42.66 -34.62 46.38 C-32.79 50.2 -31.54 52 -27.5 53.44 C-22.12 54.69 -17.13 55.32 -11.94 53.06 C-9.09 50.72 -7.95 48.71 -7.59 45.02 C-7.6 43.8 -7.6 43.8 -7.62 42.55 C-7.63 41.21 -7.63 41.21 -7.64 39.85 C-7.65 38.93 -7.67 38.01 -7.69 37.06 C-7.7 36.13 -7.71 35.19 -7.71 34.23 C-7.74 31.92 -7.77 29.62 -7.81 27.31 C-9.12 27.07 -9.12 27.07 -10.45 26.83 C-22.55 24.38 -22.55 24.38 -26.81 19.31 C-28.64 15.29 -29.14 13.36 -27.81 9.12 C-21.19 -0.19 -10.38 -0.03 0 0 Z M-5.31 63 C-7.04 65.21 -7.04 65.21 -6.81 67.88 C-5.58 70.87 -4.69 71.84 -1.81 73.31 C2.08 73.89 3.67 73.65 7 71.5 C9.4 69.43 9.4 69.43 10.19 66.31 C6.05 62.26 6.05 62.26 0.56 60.75 C-2.84 61.08 -2.84 61.08 -5.31 63 Z " fill="#000000" transform="translate(379.8125,412.6875)"/>
<path d="M0 0 C2.31 1.79 3.78 3.26 4.82 6.01 C4.86 6.56 4.9 7.12 4.94 7.7 C1.57 7.29 -0.95 6.75 -4 5.2 C-13.9 0.34 -26.01 2.28 -36.06 5.7 C-37.36 6.24 -37.36 6.24 -38.69 6.8 C-41.06 7.7 -41.06 7.7 -44.06 7.7 C-42.93 2.92 -40.25 0.76 -36.39 -1.95 C-24.19 -9.05 -11.64 -7.38 0 0 Z " fill="#000000" transform="translate(400.05859375,401.3046875)"/>
<path d="M0 0 C8.42 2.42 17.1 2.96 25.25 -0.44 C28.56 -0.06 28.56 -0.06 31.25 0.56 C31.19 2.81 31.19 2.81 30.25 5.56 C22.42 10.98 14.61 11.19 5.25 10.56 C0.48 9.58 -3.6 8.45 -6.75 4.56 C-6.94 1.88 -6.94 1.88 -6.75 -0.44 C-3.98 -1.82 -2.9 -0.97 0 0 Z " fill="#000000" transform="translate(368.75,511.4375)"/>
<path d="M0 0 C0.33 0.99 0.66 1.98 1 3 C0.34 3 -0.32 3 -1 3 C-0.67 2.01 -0.34 1.02 0 0 Z " fill="#000000" transform="translate(449,155)"/>
<path d="M0 0 C0.66 0 1.32 0 2 0 C2 0.66 2 1.32 2 2 C1.34 2 0.68 2 0 2 C0 1.34 0 0.68 0 0 Z " fill="#000000" transform="translate(482,629)"/>
<path d="M0 0 C0.66 0 1.32 0 2 0 C2 0.66 2 1.32 2 2 C1.34 2 0.68 2 0 2 C0 1.34 0 0.68 0 0 Z " fill="#000000" transform="translate(473,272)"/>
<path d="M0 0 C0.66 0 1.32 0 2 0 C1.67 0.66 1.34 1.32 1 2 C0.67 1.34 0.34 0.68 0 0 Z " fill="#000000" transform="translate(448,330)"/>
</svg>
