<?xml version="1.0" encoding="utf-8"?>
<!-- Generator: Adobe Illustrator 23.0.1, SVG Export Plug-In . SVG Version: 6.00 Build 0)  -->
<svg version="1.0" id="Слой_1" xmlns="http://www.w3.org/2000/svg" xmlns:xlink="http://www.w3.org/1999/xlink" x="0px" y="0px"
	 viewBox="0 0 720 720" style="enable-background:new 0 0 720 720;" xml:space="preserve">
<g id="Слой_12">
	<path d="M346.7,307.2c8.5,0.1,15.6-9.2,15.7-20.9c0.2-11.7-6.6-21.2-15.1-21.4c-8.5-0.1-15.6,9.3-15.7,20.9
		C331.4,297.6,338.2,307.1,346.7,307.2 M351.3,276.1c3.1,0.1,5.6,3.4,5.6,7.4c-0.1,4.1-2.7,7.3-5.8,7.2c-3.2,0-5.7-3.4-5.6-7.4
		C345.6,279.3,348.2,276.1,351.3,276.1"/>
</g>
<g id="Слой_11">
	<path d="M178.7,265c-8.5-0.1-15.6,9.3-15.8,20.9c-0.2,11.7,6.6,21.2,15.2,21.4c8.5,0.1,15.6-9.2,15.7-20.9
		C194,274.7,187.2,265.1,178.7,265 M190,282.9c-0.1,4-2.6,7.3-5.8,7.2c-3.1,0-5.6-3.4-5.6-7.4c0.1-4,2.6-7.3,5.8-7.2
		C187.5,275.6,190,278.9,190,282.9"/>
</g>
<g id="Слой_10">
	<path d="M429.9,561.7c-20.3-0.1-36.8,22.8-25.1,21.1c37.8-5.6,57,15.3,2.2,44.2c-5,2.6,10.9,3.8,16.7,3.3
		c11.8-1.1,23.2-7.1,30.1-16.7c6.9-9.6,8.7-22.8,4-33.7C453.2,569.1,441.7,561.7,429.9,561.7"/>
</g>
<g id="Слой_9">
	<path d="M106.2,566.9c-11.8,0.1-23.3,7.4-27.9,18.3c-4.7,10.8-2.8,24.1,4,33.7c6.9,9.6,18.3,15.6,30.1,16.7
		c5.7,0.5,21.7-0.6,16.7-3.3c-54.7-28.9-35.6-49.8,2.2-44.2C143,589.7,126.5,566.8,106.2,566.9"/>
</g>
<g id="Слой_8">
	<path d="M433.1,558.1c3.7,0.8,7.6-2.5,8.6-7.4c1-4.9-1.1-9.4-4.8-10.2c-3.7-0.8-7.6,2.5-8.6,7.4
		C427.3,552.7,429.4,557.3,433.1,558.1"/>
</g>
<g id="Слой_7">
	<path d="M464.2,559.7c3.3-3.8,3.6-8.8,0.7-11.3c-2.9-2.5-7.8-1.4-11.1,2.3c-3.3,3.8-3.6,8.8-0.7,11.3
		C456,564.5,461,563.5,464.2,559.7"/>
</g>
<g id="Слой_6">
	<path d="M468.2,569.3c-4.8,1.4-7.8,5.5-6.7,9.1c1.1,3.6,5.8,5.4,10.6,4c4.8-1.4,7.8-5.5,6.7-9.1C477.7,569.6,473,567.8,468.2,569.3
		"/>
</g>
<g id="Слой_5">
	<path d="M101.6,562c3.7-0.8,5.9-5.4,4.8-10.2c-1-4.9-4.9-8.2-8.6-7.4c-3.7,0.8-5.9,5.4-4.8,10.2C94.1,559.5,97.9,562.8,101.6,562"
		/>
</g>
<g id="Слой_4">
	<path d="M81.6,566c2.9-2.5,2.5-7.5-0.7-11.3c-3.3-3.8-8.2-4.8-11.1-2.3c-2.9,2.5-2.6,7.5,0.7,11.3C73.8,567.4,78.8,568.5,81.6,566"
		/>
</g>
<g id="Слой_3">
	<path d="M66.5,573.2c-4.8-1.4-9.5,0.4-10.6,4c-1.1,3.6,1.9,7.7,6.7,9.1c4.8,1.4,9.5-0.4,10.6-4C74.3,578.7,71.3,574.6,66.5,573.2"
		/>
</g>
<g id="Слой_2">
	<path d="M694,438.1C637.9,395,585.8,379.2,539.1,391c-61.9,15.6-101.3,75.6-123.9,124.7c-0.3-2.6-0.6-5-0.9-7.3
		c-4-32.3-5.1-42.1-21.9-79.3c-0.2-0.4-0.5-0.8-0.9-1c-2.1-11.8-4.9-23.5-8.3-34.9c28.8-11.9,57.8-28.1,86.7-48.9l3.1-2.2
		c13.7-9.8,29.2-20.9,48.2-30.1c0.7-0.3,1.2-1,1.4-1.7c0.2-0.8,0-1.6-0.5-2.2c-0.3-0.3-26.3-34-66.8-68.4c-0.2-0.6-0.5-1.1-1.1-1.5
		c-0.3-0.2-0.5-0.3-0.8-0.5c0-0.1,0-0.2,0-0.3c-0.5-14.4-2.8-27.8-6.3-40c0.1-0.1,0.2-0.2,0.2-0.3c23-44.4,24.1-99.7,2.9-147.8
		c-3.9-8.8-9.6-13.3-15.6-12.3c-1.8,0.3-3.3,1.1-4.5,1.7c-26.9,13.6-51.5,32.9-71.2,55.8c-1.2-0.6-2.4-1.1-3.5-1.5
		c-22.4-9.3-57.5-15.6-81.7-14.7c-24.7,0.9-50.9,2.5-75.1,10.8c-5.2,1.8-10.4,4-15.4,6.4c-19.6-22.5-43.9-41.5-70.5-55
		c-1.2-0.6-2.7-1.4-4.5-1.7c-6-1-11.7,3.4-15.6,12.3C71.5,99,72.6,154.2,95.6,198.7c0.1,0.2,0.3,0.4,0.5,0.6
		c-4,11.8-7.1,24.3-9.2,37.1c-0.1,0.6,0,1.1,0.3,1.6c-21.1,17.8-42.1,38.9-62.6,62.8c-0.5,0.6-0.7,1.3-0.6,2.1
		c0.1,0.8,0.6,1.4,1.2,1.8c0.2,0.1,21.7,13.4,42.7,31.1c29.1,24.4,59.1,43.4,89.6,56.8c-3,9.8-5.6,19.9-7.9,30.3
		c-18.2,40.4-23.7,56.5-27.5,100c-16.4-10.2-39.9-8.8-56.6,3.8c-16.1,12.2-25.7,33.8-25,56.4c0.8,26.8,15.3,52.5,37.9,67
		c13.3,8.5,28.5,12.9,43.8,12.9c10.2,0,20.3-1.9,30-5.8c9.5,14,25,22.9,41,23.6c0.6,0,1.2,0,1.8,0c17.3,0,34-10.1,41.1-25.1
		c1.9-4,3.1-8.2,3.8-12.4c9.1-0.2,18.4-0.3,27.3-0.3c8.9,0,18-0.1,27.1-0.3c0.7,4.4,1.9,8.8,3.9,13c7.1,15,23.8,25.1,41.1,25.1
		c0.6,0,1.2,0,1.8,0c17-0.7,33.4-10.7,42.7-26.1c0.1-0.2,0.2-0.3,0.3-0.5c9.9,4,20.4,6,31,6c15.7,0,31.4-4.4,44.8-12.9
		c8.6-5.5,16-12.6,21.9-20.8c39.2-7.8,79.4-40.9,102.4-84.5c47.3-89.4,108.2-99,108.8-99.1c1-0.1,1.9-0.9,2.2-1.9
		C695.2,439.8,694.8,438.7,694,438.1 M432.6,43.2c1.2-0.6,2.1-1,3-1.2c5-0.9,8.8,6.8,9.9,9.2c19.9,45.1,19.6,96.7-0.6,139
		c-3-8.7-6.6-16.8-10.7-24.4c11-28.1,12.4-58.3,4.2-87.1c-1.1-3.9-2.8-8.2-6.9-10.1c-4.8-2.1-9.8,0.4-13.1,2.4
		c-14.7,9-26.9,22.4-34.8,37.8c-6.9-5-13.5-9-19.6-12.1C383,74.8,406.7,56.3,432.6,43.2 M387.8,112c7.4-14.8,19.2-27.8,33.3-36.5
		c3.7-2.3,6.3-3,8.2-2.1c2.2,1,3.3,4,4.1,6.8c7.5,26.4,6.6,53.9-2.6,79.8C418.5,139.5,402.8,123.5,387.8,112 M200.4,93.8
		c23.5-8.1,49.3-9.7,73.6-10.5c23.5-0.8,57.7,5.3,79.5,14.3c31.2,12.9,90.4,57.9,94.5,136.7c-37.9-22.7-71.1-28.1-98.8-16
		c-41.6,18.1-58,69.7-62.9,89c-3.6-1.7-8-2.8-12.7-2.8c-5.5-0.1-10.5,1.2-14.5,3.3c-4-18.8-18.8-72-60.5-91.6
		c-28.3-13.3-63.1-8.1-103.4,15.6c-0.5,0.1-0.9,0.2-1.3,0.5c-0.3,0.2-0.6,0.5-0.9,0.7c-0.2,0.1-0.3,0.2-0.4,0.3
		c5.6-31.3,17.3-60,34-83.2c15.2-21.1,34.8-38,56.5-49c0.4-0.1,0.8-0.3,1.1-0.5c0,0,0,0,0.1-0.1C189.7,97.9,195,95.7,200.4,93.8
		 M112.2,163.2c-9.1-26.1-10.1-54.8-2.5-81.4c0.8-2.8,1.9-5.8,4.1-6.7c1.9-0.9,4.5-0.2,8.2,2.1c13.9,8.6,25.6,21.3,33,35.9
		c-12.1,9.6-23.1,21-32.4,34C118.8,152.2,115.4,157.6,112.2,163.2 M97.5,53c1.1-2.4,4.9-10.1,9.9-9.2c0.9,0.2,1.9,0.6,3,1.2
		c25.6,13,49.1,31.2,68.1,52.8c-6.7,3.5-13.1,7.6-19.3,12.2c-7.8-15.1-20-28.2-34.5-37.1c-3.4-2.1-8.4-4.6-13.1-2.4
		c-4.1,1.8-5.8,6.1-6.9,10.1c-8.3,29.1-6.8,60.7,4.2,88.9c-3.9,7.4-7.4,15.2-10.4,23.3C77.9,150.2,77.5,98.4,97.5,53 M30.6,301.9
		c21.5-24.9,43.6-46.7,65.7-64.7c39.5-23.6,73.2-29.1,100.3-16.4c40.8,19.2,54.9,75,58,90.3c-2.4,2.4-3.8,5.3-3.9,8.4
		c-0.1,6.4,12.5,13.9,18.9,17.2c-0.1,0.3-0.1,0.7-0.1,1.1c0.3,1.5,0.4,2.9,0.5,4.3c-0.1,1.4-0.1,2.8-0.1,4c-0.3,3.1-1.1,5.8-2.5,7.9
		c-3.2,4.9-10,7.3-15.5,5.5c-5.5-1.8-9.6-7.8-9.3-13.6c0.1-1.4-1-2.7-2.5-2.7c-1.5-0.1-2.7,1-2.7,2.5c-0.4,8.2,5.1,16.3,12.9,18.8
		c1.8,0.6,3.7,0.9,5.5,0.9c6.3,0,12.5-3.1,16-8.4c0.2-0.4,0.4-0.7,0.6-1.1c0.2,0.4,0.4,0.8,0.6,1.1c3.4,5.5,9.8,8.9,16.3,8.9
		c1.7,0,3.4-0.2,5-0.7c7.9-2.3,13.6-10.3,13.4-18.4c0-1.4-1.3-2.6-2.7-2.5c-1.4,0-2.6,1.2-2.5,2.7c0.1,5.8-4.1,11.7-9.7,13.3
		c-5.6,1.6-12.3-0.9-15.4-5.9c-1.4-2.2-2.1-4.9-2.3-8c0.1-1.3,0.1-2.6,0.1-4c0.1-1.4,0.3-2.8,0.6-4.3c0-0.2,0-0.4,0-0.6
		c6.1-2.9,20.2-10.4,20.3-17.1c0.1-3.8-1.9-7.2-5.1-9.9c4.2-16.9,20.1-69.7,60.3-87.2c27-11.8,60.1-5.6,98.2,18.2
		c0.1,0.2,0.3,0.5,0.5,0.6c34.7,29.2,59,58.1,65.9,66.7c-18.1,9.1-32.9,19.7-46,29.1L467,340c-136.4,97.5-273.2,94.7-395.6-8.2
		C54.3,317.5,37,306,30.6,301.9 M81.2,645.7c-21.1-13.6-34.7-37.6-35.5-62.7c-0.6-21,8.2-40.9,22.9-52.1c16.2-12.2,39.4-12.7,54-1.2
		c0.8,0.6,1.8,0.7,2.7,0.3c0.9-0.4,1.5-1.2,1.6-2.2c3.1-37.1,7-54.4,18.1-81.2c-7.9,46.5-9.9,99.4-6.1,160.1
		c0.9,14.8,2.6,31.6,10.4,45.8C127,661.3,101.6,658.8,81.2,645.7 M340.7,675.4c-15.9,0.7-31.5-8.5-37.9-22.1
		c-6.7-14.2-3.8-31.3,0-49l16.2-74.4c0.3-1.4-0.6-2.8-2-3.1c-1.4-0.3-2.8,0.6-3.1,2l-16.2,74.4c-2.1,9.8-4.8,22.1-4,34.1
		c-8.9,0.2-17.8,0.2-26.5,0.3c-8.8,0-17.8,0.1-26.7,0.3c0.9-12.2-1.8-24.7-4-34.7l-16.2-74.4c-0.3-1.4-1.7-2.3-3.1-2
		c-1.4,0.3-2.3,1.7-2,3.1l16.2,74.4c3.8,17.7,6.7,34.7,0,49c-6.5,13.7-22,22.7-37.9,22.1c-15.1-0.6-30.2-9.9-38.4-23.6
		c-8.2-13.7-9.9-30.6-10.8-45.4c-5.3-84.6,0.7-153.9,18.3-211.7c19.2,8.1,38.7,13.9,58.3,17.5c16.1,3,32.3,4.5,48.6,4.5
		c36,0,72.4-7.3,109-21.7c20.4,68.6,15.5,147.7,11.5,211.4c-0.9,14.8-2.6,31.8-10.8,45.4C370.8,665.6,355.8,674.8,340.7,675.4
		 M456.8,642.7c-20.7,13.3-47.6,15.8-70.5,6.7c6.5-13.5,8-29,8.8-42.6c3-48.1,6.5-105-0.7-159.8c10,24.2,11.3,34.7,14.6,62
		c0.6,4.8,1.2,10.1,2,16.1c0.1,0.9,0.7,1.7,1.6,2.1c0.9,0.4,1.9,0.2,2.6-0.4c14.6-11.6,37.8-11.1,54,1.2
		c14.8,11.2,23.6,31.1,22.9,52.1C491.5,605.1,477.9,629.1,456.8,642.7 M579.4,539.4c-21.3,40.3-57.6,71.4-93.7,80.6
		c7.2-12,11.4-25.7,11.8-39.8c0.7-22.6-8.9-44.2-25-56.4c-15.4-11.6-36.5-13.6-52.6-5.9c21.6-46.8,58.7-103.7,116-120.5
		c0.4,0.5,1,0.9,1.7,1c20.3,2.8,39.7,10.6,56.3,22.7c-19.4,4.7-34.8,24.3-33.6,44.4c0.1,1.1,0.8,2,1.9,2.4c1.1,0.3,2.2-0.1,2.8-1
		c10.3-14.4,31.4-19.8,47.5-12.9c-14,15.6-20.5,37.6-17.2,58.3c0,0.1,0.1,0.3,0.1,0.4C590,520.5,584.6,529.5,579.4,539.4
		 M599.9,506.1c-1.5-18.7,5.5-38,18.8-51.2c0.6-0.6,0.9-1.4,0.7-2.2c-0.1-0.8-0.6-1.5-1.3-1.9c-16.4-9.1-38.7-5.6-52.3,7.1
		c2.7-16.7,17.6-31.5,34.6-32.7c1.1-0.1,2-0.8,2.3-1.8c0.3-1,0-2.1-0.9-2.8c-16.1-12.9-34.9-21.8-55-25.9
		c42.2-8.1,89,6.7,139.4,44.2C672.3,442.6,635.4,456.6,599.9,506.1"/>
</g>
</svg>
