<?xml version="1.0" encoding="UTF-8"?>
<!-- Generator: visioncortex VTracer 0.6.3 -->
<svg version="1.1" xmlns="http://www.w3.org/2000/svg" width="1009" height="1280">
<path d="M0 0 C15.82 5.62 29.04 20.11 39 33 C39.68 33.85 40.37 34.71 41.07 35.59 C45.15 40.69 49 45.95 52.81 51.25 C53.69 52.46 53.69 52.46 54.58 53.7 C56 56 56 56 56.45 58.17 C56.82 60.18 56.82 60.18 58.82 61 C59.54 61.33 60.26 61.66 61 62 C65.95 66.65 69.77 71.74 72.7 77.86 C73.99 80.18 73.99 80.18 76.38 82.36 C79.22 85.22 81.16 88.12 83.25 91.56 C83.94 92.68 84.62 93.79 85.33 94.94 C87 98 87 98 87.42 100.28 C87.61 100.85 87.8 101.41 88 102 C89.66 102.69 91.33 103.35 93 104 C97.76 108.77 105 116.87 105 124 C106.1 124.38 106.1 124.38 107.23 124.76 C115.38 128.41 120.54 136.87 125.08 144.2 C127.12 147.18 129.43 149.48 132 152 C135.71 156.74 138.39 161.78 140.88 167.25 C143.26 172.18 145.23 174.32 150 176.84 C159.24 182.2 164.75 195 169.11 204.38 C170.3 206.55 172.06 207.35 174.11 208.64 C184.27 215.93 192.2 227.07 197.57 238.27 C199 241 200.06 242.18 202.5 244 C211.94 251.87 219.61 263.03 225 274 C225 274.66 225 275.32 225 276 C226.65 276.33 228.3 276.66 230 277 C230.04 276.06 230.07 275.11 230.11 274.14 C231.19 253.19 238.08 236 253.52 221.58 C271.32 205.85 292.91 200.55 316.27 201.78 C330.31 202.92 341.93 209.52 350.99 220.19 C362.83 236.75 363.15 256.5 360.37 275.89 C359.77 279.32 358.9 282.64 358 286 C359.65 285.67 361.3 285.34 363 285 C363.19 283.04 363.19 283.04 363.39 281.03 C363.9 276.42 364.77 271.98 365.82 267.47 C366.09 266.29 366.09 266.29 366.36 265.09 C366.94 262.56 367.53 260.03 368.12 257.5 C368.33 256.63 368.53 255.77 368.74 254.88 C381.57 199.9 381.57 199.9 393 189 C396.48 187.26 400.19 187.56 404 188 C412.41 191.96 416.2 200.24 420.25 208.12 C427.37 221.91 436.76 233.42 447 245 C448.17 246.33 449.33 247.67 450.5 249 C451.03 249.6 451.56 250.2 452.11 250.82 C453.66 252.61 455.2 254.4 456.74 256.21 C462.37 262.81 468.05 269.33 473.94 275.7 C475.76 277.73 477.41 279.79 479 282 C480.01 281.88 481.02 281.75 482.06 281.62 C482.79 281.54 483.52 281.45 484.27 281.36 C486.33 281.09 488.37 280.77 490.41 280.42 C508.72 277.48 522.45 282.33 537.19 292.91 C540 295 540 295 541.94 296.84 C545.1 298.62 547.48 297.66 551 297 C568.08 295.58 581.96 298.68 596 309 C596.82 309.6 597.63 310.19 598.48 310.8 C607.85 317.98 615.99 325.98 622.71 335.65 C629.04 344.67 633.15 347.88 644.04 350.44 C660.62 355.14 674.86 367.33 687 379 C687.97 379.85 687.97 379.85 688.95 380.73 C701.36 392.03 711 410.68 716.21 426.41 C716.57 427.49 716.94 428.57 717.31 429.69 C718.01 431.81 718.65 433.94 719.25 436.08 C721.11 441.86 721.11 441.86 725.76 445.45 C727.87 446.12 729.99 446.73 732.13 447.27 C743.84 450.24 752.95 462.52 759.12 472.19 C765.73 483.45 770.42 494.78 774.56 507.12 C775.15 508.86 775.15 508.86 775.74 510.64 C777.54 516.12 779.19 521.57 780.48 527.2 C782.28 536.72 782.28 536.72 787.68 544.31 C790.72 545.8 790.72 545.8 793.91 546.84 C808.51 552.3 817.51 570.22 823.84 583.45 C838.48 615.64 844.69 655.26 845.09 690.5 C844.75 700.81 844.75 700.81 849.19 709.62 C850.46 710.75 851.73 711.88 853 713 C872.43 738.93 873.28 779.06 874 810 C874.03 811.14 874.06 812.29 874.09 813.47 C874.2 822.32 873.55 831.17 873 840 C873.64 839.86 874.27 839.71 874.93 839.56 C897.46 835.26 921.28 836.83 942 847 C942.93 847.45 943.86 847.9 944.82 848.37 C951.56 851.84 957.27 856.07 963 861 C963.82 861.68 964.65 862.36 965.5 863.05 C989.62 883.61 1001.84 916.99 1004.79 947.95 C1007.49 986.98 1002.02 1028.17 975.52 1058.71 C960.13 1075.85 939.19 1087 916 1089 C900.98 1089.8 887.74 1086.86 874 1081 C874.33 1081.66 874.66 1082.32 875 1083 C878.75 1113.6 874.28 1146.57 855.58 1171.85 C841.67 1189.17 824.59 1200.53 803 1206 C802.25 1206.19 801.51 1206.38 800.74 1206.58 C783.27 1210.58 763.04 1209.48 746 1204 C745.32 1203.79 744.63 1203.57 743.93 1203.35 C729.7 1198.77 717.31 1191.81 706 1182 C704.79 1181 704.79 1181 703.55 1179.99 C695.45 1173.11 688.89 1164.83 683 1156 C681.89 1158.23 681.7 1159.87 681.42 1162.34 C677.23 1197.42 665.39 1229.11 637.81 1252.62 C610.83 1273.73 579.41 1283.01 545.21 1279.73 C527.28 1277.34 510.61 1270.41 495.58 1260.49 C494.98 1260.11 494.39 1259.72 493.78 1259.32 C492 1258 492 1258 490.31 1256.21 C488.23 1254.16 486.75 1253.01 484 1252 C479.38 1252.51 475.18 1253.92 470.84 1255.48 C467.18 1256.79 463.47 1257.97 459.78 1259.18 C459.03 1259.42 458.29 1259.67 457.52 1259.92 C439.92 1265.69 421.39 1268.94 403 1271 C402.19 1271.09 401.37 1271.19 400.54 1271.29 C392.28 1272.15 384.04 1272.24 375.75 1272.25 C375 1272.25 374.26 1272.25 373.49 1272.25 C332.76 1272.19 293.49 1261.44 264 1232 C256.9 1224.31 251.12 1216.11 246 1207 C245.11 1205.42 245.11 1205.42 244.2 1203.8 C233.15 1183.03 227.02 1158.42 226.76 1134.9 C226.75 1134.15 226.74 1133.4 226.73 1132.62 C226.56 1116.09 226.54 1100.06 231 1084 C231.26 1083.07 231.52 1082.13 231.78 1081.17 C238.86 1056.44 250.58 1034.18 265 1013 C265.54 1012.21 266.07 1011.42 266.63 1010.61 C273.1 1001.16 279.95 992.03 287 983 C288.23 981.4 289.46 979.79 290.69 978.19 C294.51 973.2 298.37 968.25 302.25 963.31 C314.02 948.35 325.67 933.3 337 918 C337.55 917.26 338.1 916.52 338.67 915.75 C356.15 892.09 372.37 867.62 385 841 C385.33 840.32 385.66 839.63 386 838.93 C390.27 830.08 393.82 821.13 396.75 811.75 C397.02 810.91 397.29 810.07 397.57 809.2 C400.61 799.01 402.2 788.46 404 778 C327.43 774.23 264.72 774.91 201.93 824.48 C199.56 826.35 197.16 828.18 194.76 830.01 C187.32 835.67 180.03 841.51 172.95 847.62 C156.11 862.14 137.47 878.13 113.81 876.94 C103.71 875.65 96.35 872.01 88.41 865.71 C86.11 864.08 84.78 863.22 82 863 C80.09 863.67 80.09 863.67 78.25 864.81 C68.91 869.75 58.23 870.6 47.9 868.31 C36.27 864.39 29.27 858.41 23.75 847.53 C20.64 840.92 18.62 834.38 16.81 827.31 C14.25 817.89 10.79 810.5 5.3 802.48 C-4.46 788.2 -6.02 770.8 -3.38 754.08 C4.73 722.87 28.57 702.06 55.27 686.14 C79.16 671.77 97.1 652.67 113 630 C113.79 628.87 114.59 627.75 115.38 626.62 C116.93 624.42 118.47 622.21 120 620 C118.82 619.75 117.65 619.5 116.44 619.25 C91.37 613.6 69.03 605.75 54.25 583.19 C47.05 571.75 41.83 558.6 41 545 C40.95 544.15 40.89 543.31 40.84 542.44 C40.42 529.08 42.98 515.94 49 504 C49.47 503.03 49.94 502.06 50.42 501.05 C59.1 484.59 73.83 473.53 91.36 467.74 C106.97 463.35 123.05 463.51 137.56 471.38 C149.76 479.46 155.95 491.14 158.9 505.12 C159.67 509.07 160.36 513.03 161 517 C166.89 503.46 171.88 489.96 175.62 475.69 C175.89 474.7 175.89 474.7 176.15 473.7 C178.27 465.95 178.27 465.95 179 458 C177.9 458.42 177.9 458.42 176.77 458.84 C175.79 459.2 174.82 459.56 173.81 459.94 C172.85 460.3 171.89 460.66 170.89 461.03 C154.4 466.57 134.99 463.39 119.62 456.19 C114.26 453.32 109.56 450.02 105 446 C104.24 445.33 103.48 444.66 102.69 443.98 C91.14 433.18 85.41 419.62 84.75 403.94 C85.01 388.66 90.71 375.42 101.23 364.48 C108.67 357.82 118.74 352 129 352 C127.94 355.25 126.86 358.29 125.38 361.38 C122.53 368.95 122.57 379.66 125.69 387.12 C129.07 393.3 132.72 397.7 139.36 400.3 C148.39 402.7 156.1 401.45 164.19 396.91 C169.17 393.52 174.67 389.51 176.87 383.71 C177.05 379.94 176.08 376.68 174.94 373.12 C174.71 372.4 174.48 371.68 174.24 370.94 C172.71 366.42 171.08 363.25 167.67 359.87 C159.15 350.33 153.42 336.1 152.38 323.56 C151.43 316.08 147.42 311.51 142.89 305.76 C136.24 297.29 131.91 288.4 129.04 278.01 C127.65 274 125.47 271.08 122.93 267.71 C117.57 260.19 113.36 251.98 110.94 243.06 C109.49 237.82 107.63 235.04 103.87 231.21 C98.7 225.1 95.28 216.92 93.5 209.19 C92.31 204.19 90.12 201.32 86.84 197.44 C82.25 191.35 79.42 183.97 77.5 176.62 C76.59 173.32 75.68 171.34 73.31 168.88 C66.41 161.59 61.93 151.03 60.54 141.21 C59.69 137.76 57.65 135.32 55.57 132.49 C53.72 129.56 52.65 126.64 51.5 123.38 C49.77 118.59 48.04 115.49 44.54 111.87 C41.18 107.8 39.23 102.74 37 98 C36.34 96.66 35.67 95.33 35 94 C34.69 93.38 34.38 92.77 34.07 92.13 C33.22 90.45 32.38 88.77 31.53 87.09 C28.85 81.78 26.34 76.47 24 71 C21.22 65.23 18.33 59.55 15.12 54 C7.71 40.79 2.88 27.71 0.12 12.81 C-0.01 12.11 -0.14 11.4 -0.28 10.67 C-0.92 6.84 -1.06 3.75 0 0 Z M9 16 C10.91 29.38 19.1 41.62 26 53 C29.13 48.92 30.96 46.02 31.06 40.75 C28.39 31.32 19.17 23.39 12 17 C11.01 16.67 10.02 16.34 9 16 Z M38 49 C33.35 57.58 33.35 57.58 33 67 C34.78 70.49 36.81 73.76 39 77 C42.76 72.07 45.7 67.7 45.5 61.23 C44.48 56.67 41.76 52.73 39 49 C38.67 49 38.34 49 38 49 Z M51 67 C50.57 68.2 50.13 69.39 49.69 70.62 C48.72 73.27 47.72 75.48 46.31 77.94 C44.51 82.13 44.09 85.51 45 90 C47.88 96.49 47.88 96.49 53 101 C59.06 90.63 59.06 90.63 59.93 79.14 C57.98 74.65 55.16 70.71 52 67 C51.67 67 51.34 67 51 67 Z M66 86 C65.79 87.11 65.59 88.23 65.38 89.38 C64.48 93.07 63.01 95.76 60.94 98.94 C58.05 103.62 56.15 107.42 57 113 C59.32 119.21 62.09 124.49 67 129 C68.69 125.82 70.35 122.63 72 119.44 C72.48 118.54 72.95 117.65 73.45 116.72 C76.05 111.65 77.83 107.84 77 102 C74.9 95.91 71.41 90.65 67 86 C66.67 86 66.34 86 66 86 Z M83 111 C82.69 111.86 82.69 111.86 82.37 112.73 C80.37 118 78.03 122.75 75.19 127.62 C71.89 133.54 71.89 133.54 72.22 140.03 C74.86 146.68 77.51 152.29 83 157 C83.36 156.31 83.73 155.62 84.1 154.91 C86.63 150.18 89.15 145.72 92.38 141.44 C95.06 137.45 95.9 134.35 95.59 129.55 C93.94 122.41 88.88 116.3 84 111 C83.67 111 83.34 111 83 111 Z M102 136 C101.85 136.54 101.7 137.08 101.54 137.64 C99.65 143.86 96.86 148.98 93.38 154.44 C92.38 156.02 91.39 157.6 90.4 159.18 C89.96 159.87 89.53 160.56 89.08 161.26 C86.65 165.19 86.17 168.48 87 173 C89.91 180.28 93.18 186.66 99 192 C99.42 191.12 99.85 190.23 100.29 189.32 C103.67 182.38 107.24 175.76 111.52 169.3 C114.39 164.84 115.93 161.37 115 156 C112.67 148.72 109.49 141.47 104 136 C103.34 136 102.68 136 102 136 Z M122 162 C121.87 162.59 121.73 163.18 121.59 163.79 C119.65 171.27 116.16 177.05 111.88 183.44 C110.6 185.37 109.33 187.31 108.05 189.25 C107.49 190.09 106.93 190.93 106.35 191.8 C103.53 196.4 103.44 200.76 104 206 C106.06 214.15 110.89 220.48 116 227 C117.67 224.49 119.15 221.95 120.61 219.32 C123.58 213.99 126.65 208.95 130.31 204.06 C134.89 197.92 137.94 192.96 137 185 C134.65 176.38 129.53 167.02 122 162 Z M143 190 C142.98 190.56 142.96 191.12 142.94 191.69 C142.53 197.88 140.85 201.8 137.38 206.88 C136.93 207.56 136.48 208.25 136.01 208.96 C134.69 210.98 133.35 212.99 132 215 C123.92 226.11 123.92 226.11 122.16 239.2 C124.9 248.34 129.68 256.9 136 264 C137.65 261.52 138.96 259.14 140.31 256.5 C143.86 249.91 148.12 243.84 152.42 237.73 C158.84 228.64 158.84 228.64 160.54 217.9 C158.57 207.26 151.29 197.67 144 190 C143.67 190 143.34 190 143 190 Z M396.05 201.84 C393.23 206.18 391.72 210.66 390.12 215.56 C389.78 216.62 389.43 217.68 389.07 218.77 C383.35 236.81 380.26 255.47 376.89 274.05 C373.29 293.95 368.61 312.78 362.12 331.96 C350.62 366.58 362.08 399.62 372.45 433.12 C374.48 440.01 375.84 446.58 372.29 453.18 C370.89 455.21 369.44 457.21 367.95 459.18 C364.17 464.66 363.49 469.54 364 476 C365.7 480.67 368.59 482.16 372.87 484.2 C377.72 486.02 382.68 486.26 387.81 486.56 C388.51 486.61 389.2 486.65 389.91 486.69 C391.61 486.8 393.3 486.9 395 487 C392.9 495.11 390.83 501.86 385 508 C384.36 508.69 383.73 509.38 383.07 510.09 C373.38 519.64 361.14 522.26 347.99 522.25 C341.61 522.16 335.98 521.36 330 519 C329.16 518.67 328.33 518.34 327.46 518 C316.22 512.98 309.09 505.07 304 494 C301.06 496.53 299.74 499.35 298.06 502.81 C285.31 526.95 261.17 543.56 235.75 552.09 C231.47 553.26 227.51 553.98 223.06 554.19 C215.02 554.55 215.02 554.55 208.07 558.41 C205.5 561.52 203.26 564.65 201 568 C187.73 585.17 167.9 607.37 146 612.56 C134.67 615.32 130.28 621.58 124 631 C122.45 633.28 120.9 635.55 119.35 637.82 C116.86 641.48 114.38 645.14 111.94 648.84 C97.75 670.21 80.82 685.9 59.01 699.21 C37.24 712.63 17.23 730.16 9.97 755.61 C6.34 771.24 8.24 785.64 16.43 799.58 C17.42 801.12 18.46 802.63 19.54 804.11 C25.3 811.98 27.35 821.13 29.95 830.38 C32.68 839.4 36.42 846.36 44.88 851.06 C53.76 854.93 62.05 852.93 71 850 C85.03 844.44 97.66 836.93 109 827 C109.77 826.38 110.54 825.75 111.33 825.11 C120.09 817.82 127.48 808.49 132 798 C132.85 808.89 129.95 817.54 122.89 825.89 C122.26 826.59 121.64 827.28 121 828 C120.45 828.65 119.9 829.31 119.33 829.98 C112.39 837.64 102.96 842.67 94.01 847.67 C93.02 848.33 93.02 848.33 92 849 C92 849.66 92 850.32 92 851 C100.84 858.66 109.21 861.61 120.81 861.28 C140.57 859.56 156.31 844.26 171 832.26 C176.32 827.91 181.72 823.66 187.15 819.44 C188.43 818.44 189.71 817.44 190.99 816.44 C233.53 783 278.82 764.68 333.25 764.88 C334.37 764.88 334.37 764.88 335.51 764.88 C344.68 764.89 353.83 765.06 363 765.5 C374.99 766.05 386.98 766.18 398.98 766.23 C401.16 766.24 403.35 766.26 405.53 766.28 C435.27 766.57 466.67 763.36 490 743 C490.6 742.53 491.2 742.06 491.81 741.58 C507.47 729.1 516.8 708.59 523 690 C524.16 710.7 516.79 728.42 503.5 743.91 C480.91 767.78 449.68 774.99 418 777 C417.87 777.71 417.73 778.41 417.59 779.14 C407.78 829.78 385.32 873.56 355 915 C354.47 915.73 353.93 916.47 353.38 917.23 C341.8 933.14 329.86 948.79 317.75 964.31 C311.39 972.46 305.14 980.69 299 989 C298.49 989.68 297.98 990.37 297.46 991.07 C257.12 1044.6 257.12 1044.6 240.88 1108.12 C240.89 1109.06 240.91 1109.99 240.93 1110.95 C240.95 1111.62 240.98 1112.3 241 1113 C243.24 1110.11 245.13 1107.14 247 1104 C258.63 1085.69 275.73 1074.55 296.7 1069.49 C313.94 1065.82 330.5 1067.95 345.37 1077.53 C355.16 1084.54 361.7 1095.16 364 1107 C364.93 1119.75 363.5 1130.88 354.98 1140.9 C349.23 1146.99 343.71 1151.64 336 1155 C336.05 1154.05 336.05 1154.05 336.11 1153.09 C336.43 1142.3 335.29 1130.49 328 1122 C323.48 1117.9 320.58 1116.57 314.57 1116.66 C306.91 1117.66 301.12 1122.06 296.4 1127.95 C291.42 1135.23 290.14 1143.33 291 1152 C293.28 1161.9 298.14 1168.73 306.62 1174.25 C332.03 1188.48 367.66 1183.04 394.47 1175.83 C414.78 1170.11 433.09 1161.67 450 1149 C450.89 1148.34 451.77 1147.68 452.68 1147 C475.25 1129.33 495.71 1105.29 499.62 1075.9 C501.05 1061.29 499.21 1047.39 493 1034 C492.36 1034.45 491.71 1034.89 491.05 1035.36 C470.65 1049 446.67 1051.95 422.88 1047.34 C404.71 1043.49 387.2 1035.65 376.61 1019.82 C368.31 1005.22 366.75 989.17 371.03 973.08 C375.93 956.42 385.21 941.67 397 929 C397.66 928.67 398.32 928.34 399 928 C398.69 928.68 398.38 929.36 398.06 930.06 C393.32 943.17 396.55 958.15 402.09 970.42 C407.06 980.16 413.72 987.08 424 991 C432.29 993.42 439.4 991.75 447 988 C460.28 979.6 467.89 965.97 471.42 950.96 C475.28 931.25 473.02 912.2 469.5 892.69 C460.21 840.82 479.08 805.83 508 764 C511.74 758.66 515.58 753.4 519.44 748.15 C543.48 715.14 564.74 681.17 570.81 640.06 C570.94 639.22 571.06 638.38 571.19 637.52 C572.01 631.33 572.13 625.24 572 619 C571.12 619.02 570.24 619.04 569.33 619.06 C536.53 619.74 536.53 619.74 523 615 C521.93 614.63 520.85 614.25 519.75 613.87 C499.95 606.23 484.99 593.54 476.14 574.13 C472.56 564.31 471.48 555.52 471.56 545.06 C471.57 544.38 471.57 543.7 471.57 542.99 C471.66 531.26 472.84 520.32 476 509 C476.27 508.02 476.54 507.05 476.81 506.04 C480.76 491.85 485.33 477.87 489.9 463.87 C494.94 448.45 499.12 433.43 499.2 417.1 C499.21 415.68 499.21 415.68 499.22 414.23 C499.51 385.47 499.51 385.47 496 357 C495.8 355.92 495.59 354.84 495.38 353.72 C489.38 322.61 478.63 299.75 457.18 276.43 C454.07 272.96 451.17 269.33 448.24 265.71 C446.11 263.13 443.89 260.65 441.62 258.19 C436.55 252.61 431.92 246.71 427.33 240.73 C426.08 239.1 424.81 237.48 423.55 235.86 C416.23 226.35 410.48 216.34 405.36 205.5 C404.09 203.17 403.1 201.61 401 200 C397.92 199.66 397.92 199.66 396.05 201.84 Z M257.07 234.49 C245.26 248.82 243.56 264.05 245 282 C245.8 287.83 247.26 293.39 249 299 C249.43 300.43 249.43 300.43 249.88 301.88 C253.11 311.09 259.16 320.55 267.97 325.18 C273.26 326.61 278.26 325.6 283.57 324.79 C289.75 323.84 295.95 323.37 302.19 322.94 C303.38 322.85 304.57 322.77 305.79 322.69 C322.84 321.59 339.93 321.33 357 321 C358.01 317.75 359.01 314.5 360 311.25 C360.29 310.33 360.57 309.41 360.87 308.46 C361.14 307.57 361.41 306.68 361.69 305.77 C361.94 304.95 362.19 304.13 362.45 303.29 C363.16 300.74 363.16 300.74 363 297 C356.64 296.8 351.33 297.45 345.19 299 C331.76 302.09 315.12 304.02 302.77 296.68 C296.23 292.14 292.53 286.9 291 279 C290.11 270.6 290.95 263.95 296 257 C300.1 252.77 305.13 250.57 311 250 C319.41 249.9 326.25 251.45 332.44 257.31 C334.41 260.7 334.93 263.08 335 267 C333.81 270.38 333.81 270.38 332 273 C329.81 273.88 329.81 273.88 328 274 C328.5 273.01 328.5 273.01 329 272 C329.67 266.39 329.67 266.39 327.19 261.62 C320.82 258.38 314.54 257.25 307.56 259.06 C302.63 260.82 300.33 263.34 298 268 C297.34 273.82 297.6 279.03 300.54 284.18 C304.51 289.12 310.83 292.79 317 294 C326.07 294.72 334.2 294.1 341.69 288.56 C348.31 282.42 351.7 273.28 352.2 264.43 C352.38 249.73 349.61 237.79 340.75 225.69 C330.55 215.72 317.44 212.64 303.57 212.79 C286 213.84 269.19 221.69 257.07 234.49 Z M167 218 C167.06 218.73 167.11 219.46 167.17 220.21 C167.24 231.91 161.37 239.64 155 249 C153.58 251.12 152.16 253.24 150.75 255.36 C149.9 256.62 149.04 257.89 148.17 259.14 C143.36 266.17 142.13 271.57 143 280 C145.08 289.17 151.36 297.63 157 305 C157.66 305 158.32 305 159 305 C159.28 304.34 159.56 303.69 159.86 303.01 C165.18 291.49 172.95 281.7 180.55 271.61 C181.26 270.67 181.96 269.72 182.69 268.75 C183.29 267.96 183.89 267.17 184.51 266.36 C187.72 261.28 188.82 255.94 188 250 C184.76 237.71 177.96 227.87 169 219 C168.34 218.67 167.68 218.34 167 218 Z M194 252 C194.07 252.73 194.14 253.45 194.21 254.2 C194.94 267.71 188 276.42 179.89 286.4 C176.96 290.01 174.21 293.72 171.5 297.5 C171.09 298.06 170.68 298.63 170.26 299.21 C164.97 306.63 162.97 311.96 164 321 C166.46 332.3 172.52 344.2 180 353 C180.57 351.83 181.14 350.65 181.73 349.44 C187.28 338.32 193.67 328.69 201.42 319 C203.93 315.82 206.32 312.55 208.69 309.25 C209.1 308.69 209.51 308.13 209.93 307.55 C214.7 300.89 216.7 294.37 215.64 286.21 C212.64 272.31 205.07 261.66 195 252 C194.67 252 194.34 252 194 252 Z M222 290 C222.06 290.75 222.12 291.5 222.18 292.27 C222.86 307.83 212.81 318.08 204 330 C189.98 347.14 189.98 347.14 186.42 367.84 C188 375.32 191 381.53 195 388 C195.82 389.33 195.82 389.33 196.65 390.69 C198.7 393.93 198.7 393.93 201 397 C201.66 397 202.32 397 203 397 C203.69 395.42 203.69 395.42 204.4 393.81 C213.62 373.23 227.17 352.19 246.19 339.44 C248.64 337.59 249.8 336.66 250.7 333.7 C251.27 321.44 243.71 311.73 236 303 C231.83 298.51 227.51 294.16 223 290 C222.67 290 222.34 290 222 290 Z M486 296 C486.84 297.64 486.84 297.64 487.69 299.31 C500.08 324.19 508.04 351.06 508.2 379 C508.21 380.25 508.21 380.25 508.22 381.53 C508.24 384.21 508.25 386.88 508.25 389.56 C508.25 390.94 508.25 390.94 508.25 392.34 C508.24 406.76 507.65 420.8 505 435 C504.83 435.94 504.66 436.88 504.48 437.84 C501.15 455.56 496.05 472.77 489.88 489.69 C479.83 517.31 474.18 549.51 486.56 577.25 C494.99 593.35 510.4 602.54 527.16 607.96 C545.24 612.87 567.38 614.19 585 607 C586.05 606.58 587.09 606.15 588.17 605.71 C605.83 597.68 618.81 582.01 625.58 563.98 C631.12 548.18 633.15 529.65 626 514 C618.32 498.95 606.23 491.88 591.07 485.83 C577.61 481.68 559.82 481.99 547 488 C543.74 489.74 540.87 491.67 538 494 C537.37 494.5 536.75 495 536.11 495.52 C527.67 503.07 523.66 513.98 522.75 525.02 C522.37 535.13 524.12 543.97 530.62 551.94 C537.33 558.83 546.66 562.88 556.27 563.3 C557.78 563.32 559.3 563.32 560.81 563.31 C561.61 563.31 562.4 563.3 563.22 563.3 C572.96 563.09 581.71 560.84 589 554 C592.39 549.27 594.92 544 594.48 538.07 C593.08 532.02 590.44 526.66 585.38 522.94 C580.12 519.92 575.94 519.44 570 520 C566.47 521.24 564.57 522.37 562.06 525.12 C560.21 530.13 561.35 535.04 563 540 C556.53 536.65 556.53 536.65 554.56 534.25 C553.28 529.14 553.31 525.44 555.56 520.75 C560.3 515.41 565.6 513.23 572.62 512.75 C581.35 512.91 588.7 516.01 595 522 C600.13 527.68 602.53 533.99 602.32 541.75 C601.23 549.43 598.21 556.53 592.2 561.48 C580.46 570.14 565.58 572.14 551.38 570.38 C539.53 568.18 530.06 563.54 522.44 554.06 C515.08 543.25 514.11 529.48 516.39 516.83 C519 505.92 524.57 496.43 533 489 C533.92 488.17 533.92 488.17 534.85 487.32 C544.49 479.14 555.65 476.35 568 475 C569.51 470.77 570.51 466.67 571.25 462.24 C571.47 460.95 571.68 459.67 571.9 458.35 C572.07 457.35 572.07 457.35 572.23 456.33 C572.56 454.33 572.9 452.34 573.23 450.34 C580.72 405 575.34 362.13 549 324 C546.16 320.17 543.18 316.54 540 313 C539.28 312.2 538.56 311.4 537.82 310.57 C529.07 301.32 519.02 294.56 506.1 293.76 C499.04 293.59 492.79 294.1 486 296 Z M552 311 C554.12 314.69 556.49 317.97 559.12 321.31 C583.27 353.35 590.04 393.31 584.82 432.56 C582.94 445.15 580.33 457.59 577.4 469.98 C576.9 472.15 576.9 472.15 577 475 C578.23 475.3 579.46 475.61 580.73 475.92 C600.48 480.87 618.74 487.79 630.25 505.75 C639.56 522.19 639.93 540.63 635.32 558.54 C629.2 580.17 615.92 598.57 596.59 610.18 C591.59 612.87 586.25 614.88 581 617 C580.94 617.7 580.87 618.39 580.8 619.11 C576.34 665.99 561.04 704.54 532.78 742.27 C528.22 748.36 523.89 754.62 519.52 760.85 C518.02 762.97 516.51 765.08 515 767.19 C489.15 803.21 467.78 839.2 475.31 884.97 C476.31 890.85 477.44 896.69 478.59 902.54 C483.65 928.4 482.38 956.74 467.44 979.23 C460.06 989.88 450.93 996.82 438.08 999.59 C427.36 1001.01 418.6 998.39 409.88 992.25 C397.17 982.12 391.14 967.87 389 952 C380.71 959.38 377.27 974.19 376.61 984.92 C376.16 998.36 377.78 1009.66 387 1020 C387.46 1020.58 387.91 1021.16 388.38 1021.76 C397.2 1032.01 412.23 1036.33 425 1039 C425.92 1039.19 426.83 1039.38 427.77 1039.58 C446.69 1042.03 467.87 1040.29 483.81 1028.94 C485.98 1026.82 486.92 1025.72 487.26 1022.69 C487.07 1020.74 486.81 1018.79 486.52 1016.85 C476.13 939.37 514.86 857.63 558.95 797.19 C563.05 791.58 567.04 785.89 571.04 780.2 C573 777.41 574.97 774.63 576.96 771.86 C629.69 698.1 659.65 612.27 653.75 458.88 C645.79 412.7 633.67 349.79 592.57 320.49 C586.45 316.31 580.31 312.63 573 311 C572.21 310.82 571.41 310.63 570.6 310.45 C567.85 309.97 565.29 309.87 562.5 309.88 C561.58 309.87 560.66 309.87 559.72 309.87 C557.05 310 554.6 310.41 552 311 Z M236.21 362.41 C209.14 394.13 198.47 435.02 187.32 474.34 C182.9 489.86 178.21 505.48 171.06 520 C170.64 520.87 170.21 521.75 169.78 522.65 C166.37 529.52 162.63 535.87 158 542 C157.29 542.94 156.58 543.88 155.86 544.85 C146.83 556.34 136.72 565.95 122 569 C113.71 569.77 106.3 567.11 99.86 561.93 C92.58 554.38 90.04 544.67 89.69 534.5 C89.82 528.01 91.36 522.74 94.69 517.19 C99.81 512.34 104.5 510.72 111.56 510.38 C116.87 510.55 120.08 511.34 123.76 515.23 C126.56 519.24 127.04 522.76 126.88 527.56 C125.87 531.52 124.63 533.88 122 537 C118.75 538.88 118.75 538.88 116 540 C116.64 538.99 117.28 537.98 117.94 536.94 C120.28 532.79 121.79 528.83 120.45 524.04 C119.04 520.33 119.04 520.33 116 518 C111.21 517.32 107.23 517.39 103.12 520.12 C99.05 523.55 97.26 526.56 96.69 531.96 C96.36 540.85 98.02 547.28 103.38 554.38 C107.82 558.82 111.41 560.2 117.62 560.56 C126.68 560.35 134.3 555.86 141 550 C147.73 541.84 149.56 531.87 149.44 521.56 C149.43 520.64 149.42 519.72 149.41 518.78 C149.09 505.49 143.58 494.75 134 485.57 C124.09 477.77 113.13 477 101 478 C85.4 481.01 72.4 491.03 63.09 503.57 C53.52 518.77 50.48 535.26 53.72 552.92 C54.65 556.05 55.72 559 57 562 C57.34 562.84 57.68 563.68 58.03 564.55 C65.56 581.36 80.18 595.54 97.25 602.29 C113.42 607.82 129.86 607.68 146 602 C147.05 601.64 148.09 601.28 149.17 600.9 C171.93 592.21 188.99 572.25 203 553 C203.77 551.96 204.53 550.93 205.32 549.86 C219.87 529.53 229.68 505.59 240.08 482.98 C277.68 401.27 277.68 401.27 316 386 C326.64 382.54 336.85 381.37 348 381 C348.01 380.1 348.03 379.21 348.04 378.28 C348.11 374.89 348.18 371.49 348.26 368.1 C348.3 366.64 348.32 365.18 348.35 363.73 C348.49 354.75 349.23 346.51 351.37 337.76 C352.11 334.98 352.11 334.98 352 332 C310.82 327.05 266.44 330.44 236.21 362.41 Z M638 362 C639.76 367.34 641.57 372.66 643.42 377.97 C655.3 412.41 664.11 447.56 667 484 C667.09 485.08 667.17 486.15 667.26 487.26 C667.94 496.61 668.24 505.94 668.25 515.31 C668.25 516.06 668.25 516.81 668.25 517.57 C668.12 611.95 633.42 702.22 564.06 801.75 C554.3 815.59 544.82 829.55 536 844 C535.54 844.76 535.08 845.51 534.6 846.29 C505.17 895.19 485.61 967.07 499.36 1023.88 C500.61 1028.76 501.94 1033.62 503.3 1038.48 C504.22 1041.79 505.05 1045.11 505.88 1048.44 C506.1 1049.34 506.32 1050.25 506.55 1051.18 C506.7 1051.78 506.85 1052.38 507 1053 C515.71 1044.29 516.34 1023.26 518.44 1011.38 C528.12 956.81 547.26 908.64 584.9 867.31 C586.7 865.34 588.45 863.34 590.19 861.31 C594.21 856.7 598.41 852.25 602.59 847.78 C608.11 841.89 613.57 835.96 619 830 C620.17 828.72 620.17 828.72 621.36 827.42 C625.9 822.43 630.26 817.34 634.5 812.09 C636.32 809.84 638.15 807.61 640 805.38 C662.08 778.67 681.22 749.38 696 718 C696.54 716.85 696.54 716.85 697.1 715.68 C710.96 686.1 720.07 655.32 725 623 C725.16 621.96 725.33 620.93 725.5 619.86 C730.58 586.29 729.69 550.56 725 517 C724.83 515.8 724.67 514.61 724.5 513.37 C713.49 436.67 713.49 436.67 668.62 376.39 C660.61 370.66 648.18 362 638 362 Z M111 370 C102.35 378.85 97.53 389.64 96.75 401.94 C97.13 413.89 101.32 423.94 109 433 C109.75 433.9 109.75 433.9 110.52 434.81 C119.78 444.93 133.1 450.5 146.66 451.38 C161.44 451.93 175.45 448.74 187 439 C188.67 436.01 189.72 432.78 190.88 429.56 C191.21 428.7 191.54 427.84 191.88 426.96 C192.19 426.13 192.49 425.3 192.8 424.44 C193.22 423.31 193.22 423.31 193.65 422.15 C194.1 419.39 193.45 418.36 192 416 C191.66 415.38 191.32 414.75 190.96 414.11 C190.42 413.15 190.42 413.15 189.87 412.18 C189.28 411.13 189.28 411.13 188.67 410.06 C188.27 409.34 187.86 408.62 187.44 407.88 C186.62 406.44 185.81 405 185 403.55 C184.64 402.92 184.28 402.29 183.91 401.63 C183.24 400.44 182.61 399.22 182 398 C178.66 399.48 176.25 401.42 173.5 403.81 C163.93 411.53 153.62 414.69 141.38 413.81 C132.53 412.49 124.73 407.92 119.24 400.84 C112.73 391.2 111.61 381.45 112 370 C111.67 370 111.34 370 111 370 Z M293 411 C292.04 411.86 291.09 412.72 290.11 413.61 C269.58 432.79 257.3 460.26 247.25 486 C239.95 504.64 231.42 522.78 220.93 539.84 C219.49 542.2 218.17 544.5 217 547 C236.59 546.54 254.43 537.64 269 525 C270.01 524.24 271.02 523.47 272.06 522.69 C287.61 508.46 296.16 489.69 302 469.88 C307.91 449.98 316.53 435.68 335 425 C342.4 421 349.78 417.87 358 416 C357.41 414.24 357.41 414.24 356.81 412.44 C354.54 405.62 352.27 398.81 350 392 C328.21 391.1 309.48 395.97 293 411 Z M339.16 432.69 C331.83 436.52 325.78 441.04 320 447 C319.34 447.65 318.69 448.29 318.01 448.96 C310.18 457.18 306.75 466.69 307 478 C307.77 487.73 313.02 497 320.17 503.51 C331.22 512.51 344.04 515.27 358.05 514.24 C368.37 512.99 375.94 507.54 382.58 499.9 C384.19 497.95 384.19 497.95 385 495 C383.87 494.83 382.73 494.66 381.56 494.48 C363.18 491.59 363.18 491.59 357.56 485.25 C354.16 478.18 354.82 472.62 356.84 465.23 C358.53 460.51 360.88 456.25 363.38 451.91 C363.91 450.95 364.45 449.99 365 449 C365.67 447.85 365.67 447.85 366.35 446.67 C367.36 442.54 366.07 439.23 364.81 435.25 C364.59 434.47 364.37 433.69 364.14 432.89 C363.53 430.89 362.78 428.94 362 427 C354.89 424.63 345.68 429.47 339.16 432.69 Z M722 457 C722.13 457.65 722.25 458.29 722.38 458.95 C738.7 543.59 742.35 628.65 673 774 C668.82 780.11 664.46 786.09 660 792 C659.54 792.61 659.09 793.22 658.61 793.85 C652.93 801.39 647.06 808.76 641 816 C640.56 816.53 640.12 817.05 639.67 817.6 C632.77 825.82 625.59 833.73 618.24 841.55 C614.9 845.09 611.65 848.71 608.41 852.35 C605.92 855.09 603.39 857.78 600.85 860.48 C595.39 866.27 590.09 872.12 585.13 878.35 C583.67 880.17 582.18 881.95 580.65 883.71 C544.87 925.1 532.13 977.63 520.87 1029.79 C511.92 1071.21 500.69 1110.48 471 1142 C470.41 1142.65 469.82 1143.3 469.22 1143.98 C458.49 1155.41 444.87 1163.92 431 1171 C430.37 1171.32 429.73 1171.65 429.08 1171.98 C395.86 1188.7 351.67 1196.86 315.46 1185.93 C301.94 1181.14 292.8 1174.58 285.84 1161.89 C282.18 1153.13 282.65 1140.86 285.62 1131.94 C289.86 1122.12 296.69 1114.88 306.64 1110.79 C314.03 1108.31 319.94 1108.7 327 1112 C334.67 1115.88 338.44 1122.63 341.26 1130.54 C342.24 1133.68 343.15 1136.82 344 1140 C349.04 1138.32 350.68 1133.56 353 1129 C357.44 1118.62 357.19 1108.26 353.25 1097.76 C349.67 1089.87 344.57 1085.11 337 1081 C336.27 1080.58 335.54 1080.17 334.79 1079.74 C320.41 1073.08 300.37 1076.25 285.88 1081.03 C270.13 1086.98 258.44 1098.07 251 1113 C240.2 1137.67 243.83 1165.54 253.09 1190.08 C258.6 1203.9 266.37 1215.71 276 1227 C276.58 1227.68 277.16 1228.37 277.76 1229.07 C295.9 1248.67 325.29 1259.15 351.43 1260.22 C356.47 1260.37 361.51 1260.39 366.56 1260.38 C367.92 1260.37 367.92 1260.37 369.3 1260.37 C385.18 1260.33 400.38 1259.06 416 1256 C417.59 1255.7 417.59 1255.7 419.22 1255.4 C433.92 1252.6 448.2 1248.61 462.5 1244.25 C463.3 1244.01 464.11 1243.76 464.93 1243.51 C467.22 1242.81 469.5 1242.1 471.78 1241.39 C472.81 1241.07 472.81 1241.07 473.86 1240.75 C476.95 1239.77 479.28 1238.81 482 1237 C481.86 1236.41 481.72 1235.83 481.58 1235.22 C476.58 1212.65 480.2 1190.73 492 1171 C494.13 1167.78 496.41 1164.86 499 1162 C499.85 1161.05 499.85 1161.05 500.71 1160.08 C510.99 1149.17 524.6 1145.25 539.31 1144.81 C549.95 1145.01 559.94 1147.39 567.95 1154.81 C570.51 1157.69 572.35 1160.52 574 1164 C574.66 1164 575.32 1164 576 1164 C579.23 1148.33 579.3 1133.08 579.06 1117.12 C578.79 1096.47 578.76 1076.09 583.25 1055.81 C583.47 1054.81 583.68 1053.81 583.91 1052.78 C590.56 1023.16 603.96 996.81 623.56 973.71 C625.5 971.4 627.38 969.05 629.25 966.69 C632.62 962.47 636.03 958.28 639.46 954.11 C647 944.9 654.51 935.67 661.83 926.29 C665.35 921.79 668.95 917.36 672.56 912.94 C677.68 906.66 682.69 900.33 687.58 893.88 C688.61 892.52 689.63 891.17 690.66 889.81 C737.87 827.72 772.73 762.72 779 684 C779.09 682.9 779.19 681.8 779.28 680.66 C780.13 669.55 780.24 658.45 780.25 647.31 C780.25 645.79 780.25 645.79 780.25 644.24 C780.28 548.39 780.28 548.39 738 466 C737.4 465.39 736.8 464.78 736.19 464.15 C733.09 461.24 730.35 459.61 726.28 458.34 C725.48 458.08 724.67 457.83 723.85 457.57 C723.24 457.38 722.63 457.19 722 457 Z M784 554 C784.05 554.69 784.1 555.39 784.15 556.1 C786.5 589.02 788.65 621.98 788 655 C787.98 656.1 787.96 657.19 787.94 658.33 C785.93 757.45 744.45 834.2 684.33 910.31 C683 912 681.68 913.69 680.36 915.38 C674.76 922.58 669.02 929.65 663.2 936.67 C659.5 941.15 655.88 945.67 652.31 950.25 C648.81 954.76 645.21 959.16 641.5 963.5 C636.25 969.64 631.22 975.94 626.28 982.34 C625.09 983.89 623.87 985.42 622.66 986.95 C600.36 1015.64 586.89 1052.91 586.83 1089.38 C586.83 1090.15 586.82 1090.92 586.82 1091.71 C586.81 1094.18 586.81 1096.65 586.81 1099.12 C586.81 1099.97 586.81 1100.82 586.81 1101.69 C586.81 1112.64 587.16 1123.43 588.28 1134.33 C590.04 1151.7 590.23 1169.33 582.96 1185.57 C581.85 1188.39 581.25 1191.16 580.62 1194.12 C578.98 1200.91 576.54 1205.76 570.53 1209.56 C561.23 1214.38 551.26 1215.72 540.97 1213.28 C535.36 1211.19 530.76 1208.53 528 1203 C527.72 1198.17 528.24 1194.5 530 1190 C530.66 1190 531.32 1190 532 1190 C532.08 1191.2 532.16 1192.39 532.25 1193.62 C532.93 1198.94 535.05 1202.43 539.25 1205.81 C545.65 1208.58 550.53 1208.39 556.9 1205.94 C564.31 1202.63 568.4 1197.5 572.38 1190.62 C574.16 1183.14 573.37 1177.06 569.61 1170.32 C563.52 1161.55 554.24 1157.08 544.12 1154.54 C532.86 1152.58 522.32 1153.35 512.57 1159.54 C510.25 1161.25 508.12 1163.05 506 1165 C505.09 1165.83 505.09 1165.83 504.17 1166.67 C492.51 1178.59 486.15 1197.95 485.96 1214.3 C486.7 1228.95 491.99 1240.68 502.75 1250.75 C519.12 1264.03 538.58 1268.41 559.25 1268.31 C561.03 1268.31 561.03 1268.31 562.84 1268.3 C591.01 1267.92 616.99 1257.37 637.38 1238 C663.91 1210.08 667.04 1169.6 669.97 1133.21 C670.05 1132.16 670.14 1131.1 670.23 1130.01 C670.65 1124.69 671.07 1119.36 671.47 1114.04 C672.23 1104.04 673.14 1094.09 674.46 1084.15 C674.57 1083.29 674.68 1082.42 674.8 1081.53 C681.26 1035.29 711.24 993.68 736.06 955.53 C741.79 946.71 747.44 937.84 753.1 928.97 C754.8 926.32 756.5 923.67 758.2 921.02 C770.67 901.53 782.21 881.46 793 861 C793.5 860.06 793.99 859.11 794.51 858.14 C814.33 820.26 828.6 780.61 833 738 C833.11 736.95 833.11 736.95 833.22 735.87 C838.31 684.08 835.16 613.55 802.12 570.69 C794.16 561 794.16 561 784 554 Z M841 720 C840.99 720.71 840.97 721.42 840.96 722.15 C839 807.59 795.36 876.4 749.79 945.72 C744.48 953.79 739.19 961.86 734 970 C733.44 970.88 732.87 971.76 732.29 972.67 C723.26 986.8 714.7 1001.09 707 1016 C706.49 1016.98 705.99 1017.95 705.46 1018.96 C695.13 1039.04 686.17 1060.48 683 1083 C682.73 1084.83 682.73 1084.83 682.45 1086.7 C679.49 1111.19 683.53 1135.99 698.34 1156.19 C714.68 1176.97 739.79 1190.76 766 1194 C789.11 1195.8 811.88 1192.54 830.62 1177.94 C832.1 1176.65 833.56 1175.34 835 1174 C835.63 1173.45 836.26 1172.9 836.91 1172.33 C852.8 1157.66 861.27 1131.11 862.12 1109.97 C862.21 1106.29 862.23 1102.62 862.25 1098.94 C862.27 1097.7 862.29 1096.47 862.31 1095.2 C862.36 1083.51 860.9 1072.16 855.31 1061.75 C854.96 1061.08 854.62 1060.42 854.26 1059.73 C848.18 1048.44 840.4 1039.66 827.98 1035.46 C824.52 1034.65 821.55 1034.7 818 1035 C817.01 1035.66 816.02 1036.32 815 1037 C815.64 1037.49 816.28 1037.97 816.94 1038.48 C826.98 1046.7 832.51 1057.02 833.91 1069.97 C834.14 1077.64 832.42 1083.76 827.91 1090.02 C822.7 1095.43 815.57 1097.66 808.24 1098.2 C798.66 1098.36 790.39 1097.08 782.82 1090.84 C775.13 1083.04 772.12 1072.45 771.62 1061.69 C773.16 1029.01 793.87 997.37 812.82 971.94 C839.93 935.46 852.51 896.91 859 852 C859.13 851.1 859.27 850.19 859.4 849.26 C863.21 821.86 863.2 791.17 858 764 C857.83 763.11 857.67 762.21 857.5 761.29 C853.16 738.75 853.16 738.75 841 720 Z M871 852 C869.7 852.29 869.7 852.29 868.37 852.59 C865.65 853.85 865.65 853.85 864.98 857.26 C864.77 858.66 864.58 860.07 864.41 861.48 C864.3 862.24 864.19 862.99 864.08 863.77 C863.84 865.4 863.62 867.03 863.4 868.65 C862.84 872.89 862.19 877.11 861.55 881.34 C861.36 882.59 861.36 882.59 861.16 883.87 C859.33 895.71 856.41 907.37 852.32 918.63 C848.27 930.65 852.72 946.2 857.43 957.41 C863.8 970.24 873.35 980.87 886.9 986.12 C895.92 988.67 904.86 987.5 913 983 C924.94 975.66 932.06 964.48 935.88 951.12 C937.83 942.2 938.79 932.29 934.39 923.96 C929.26 916.72 922.77 913.02 914.18 911.5 C905.66 910.45 898.17 911.26 891.19 916.56 C885.93 921.52 882.2 929.11 881.9 936.36 C881.91 937.15 881.93 937.94 881.94 938.75 C881.95 939.55 881.96 940.35 881.96 941.17 C881.98 941.78 881.99 942.38 882 943 C877.34 938.96 876.27 935.28 875.56 929.25 C875.79 922.18 879.55 916 884.56 911.19 C894.99 903.03 906.17 901.47 919 903 C927.69 904.86 933.71 910.08 939.31 916.75 C946.18 929.97 945.44 945.21 941.32 959.17 C936.57 973.67 927.61 984.99 914.07 992 C903.89 996.4 892.8 995.68 882.69 991.69 C867.36 984.68 855.67 972.96 849.41 957.17 C848.19 953.8 847.09 950.41 846 947 C845.35 945.33 844.69 943.66 844 942 C840.71 945.91 838.07 950.01 835.44 954.38 C832.03 959.93 828.46 965.28 824.56 970.5 C791.73 1014.46 791.73 1014.46 782 1067 C783.81 1074.91 786.93 1080.63 793.19 1085.81 C800.11 1088.74 806.71 1088.44 813.73 1086.02 C818.51 1083.87 822.02 1080.94 824 1076 C825.45 1066.75 823.07 1059.7 818 1052 C813.37 1045.98 808.4 1041.08 802 1037 C803 1034 803 1034 805.58 1032.43 C806.65 1031.92 807.71 1031.4 808.81 1030.88 C809.87 1030.36 810.93 1029.84 812.02 1029.3 C819.66 1025.96 827.65 1025.93 835.56 1028.56 C851.59 1035.09 859.63 1047.14 867 1062 C867.39 1063.1 867.39 1063.1 867.78 1064.23 C869.8 1067.16 872.94 1068.18 876.12 1069.5 C876.84 1069.8 877.56 1070.1 878.3 1070.41 C897.39 1078.16 917.93 1080.46 937.41 1072.63 C946.55 1068.48 952.98 1063.03 960 1056 C960.65 1055.42 961.31 1054.83 961.98 1054.23 C983.11 1035.1 991.77 999.71 993.13 972.47 C993.9 945.85 990.06 921.38 977 898 C976.46 897.01 975.91 896.03 975.35 895.01 C962.35 873.1 940.23 857.97 915.85 851.42 C900.95 847.86 885.82 848.47 871 852 Z " fill="#000100" transform="translate(4,0)"/>
<path d="M0 0 C0.33 0.99 0.66 1.98 1 3 C-0.82 5.58 -2.77 7.77 -5 10 C14.41 9.46 14.41 9.46 32 2 C32.66 1.67 33.32 1.34 34 1 C34.46 6.72 33.72 9.6 30 14 C28.06 15.53 26.13 16.74 24 18 C34.75 17.63 43.29 15.42 52 9 C51.42 15.23 47.74 20.72 43.12 24.81 C32.92 31.96 21.54 32.17 9.62 30.14 C-5.12 27.44 -5.12 27.44 -8 26 C-8.16 27.15 -8.33 28.31 -8.5 29.5 C-11.98 45.04 -22.12 60.07 -34.98 69.12 C-45.33 75.55 -56.3 77.39 -68.31 77.38 C-69.92 77.38 -69.92 77.38 -71.55 77.38 C-81.31 77.25 -90.81 76.01 -100.43 74.42 C-110.96 72.7 -120.23 72.8 -130.75 74.44 C-131.66 74.57 -132.56 74.71 -133.5 74.85 C-137.11 75.39 -140.72 75.95 -144.32 76.59 C-146.97 77 -149.5 77.17 -152.19 77.19 C-153.03 77.2 -153.87 77.22 -154.73 77.23 C-157 77 -157 77 -160 75 C-160 74.34 -160 73.68 -160 73 C-159.17 72.79 -158.33 72.58 -157.47 72.37 C-141.85 68.09 -133.94 58.7 -126.08 44.98 C-125.05 43.15 -124.02 41.33 -123 39.5 C-114.25 23.93 -106.26 12.13 -88.25 6.85 C-78.36 4.28 -68.64 3.74 -58.46 3.91 C-55.92 3.93 -53.37 3.95 -50.83 3.97 C-46.87 4.01 -42.92 4.06 -38.97 4.12 C-35.12 4.17 -31.26 4.19 -27.4 4.22 C-25.65 4.26 -25.65 4.26 -23.87 4.29 C-15.75 4.34 -7.39 3.7 0 0 Z M-89.44 23.56 C-91.6 26.94 -91.56 29.06 -91 33 C-89.58 35.58 -89.58 35.58 -87 37 C-83.06 37.56 -80.94 37.6 -77.56 35.44 C-75.4 32.06 -75.44 29.94 -76 26 C-77.42 23.42 -77.42 23.42 -80 22 C-83.94 21.44 -86.06 21.4 -89.44 23.56 Z M-31 19 C-30.92 20.71 -30.83 22.42 -30.75 24.19 C-30.77 34.55 -33.57 44.52 -41 52 C-48.66 58.83 -57 62.45 -67.34 62.27 C-76.82 61.3 -85.4 57.95 -92 51 C-97.25 44.34 -99.39 37.24 -101 29 C-105.02 30.34 -105.83 32.26 -108.19 35.75 C-108.58 36.33 -108.97 36.9 -109.37 37.5 C-112.79 42.58 -116.01 47.78 -119.18 53.03 C-121.05 56.07 -123 59.04 -125 62 C-124.07 62.1 -124.07 62.1 -123.11 62.21 C-112.26 63.45 -101.54 64.77 -90.88 67.19 C-74.14 70.82 -55.93 71.49 -41 62.06 C-28.02 52.55 -20.99 37.97 -16 23 C-20.95 21.68 -25.9 20.36 -31 19 Z M-71 37 C-71.33 39.5 -71.33 39.5 -71 42 C-69.17 44.25 -69.17 44.25 -66.5 44.25 C-63.83 44.25 -63.83 44.25 -62 42 C-61.75 38.96 -61.75 38.96 -62 36 C-63.11 34.67 -63.11 34.67 -65.94 34.81 C-69.11 34.67 -69.11 34.67 -71 37 Z " fill="#000100" transform="translate(372,548)"/>
<path d="M0 0 C3 1 3 1 4.38 3.37 C4.84 4.41 5.31 5.45 5.79 6.52 C6.57 8.26 6.57 8.26 7.38 10.03 C7.79 10.95 7.79 10.95 8.21 11.9 C9.65 15.12 11.12 18.33 12.59 21.55 C13.02 22.51 13.02 22.51 13.47 23.49 C15.94 28.9 18.52 34.25 21.19 39.56 C21.59 40.36 21.99 41.16 22.41 41.98 C24.77 46.64 27.19 51.26 29.64 55.87 C47.29 89.04 63.48 122.86 63.38 161.12 C63.37 161.85 63.37 162.58 63.37 163.33 C63.34 174.66 62.52 185.18 59 196 C58.64 197.17 58.28 198.34 57.9 199.54 C53.67 211.79 45.43 225.97 33.44 232.06 C32.63 232.37 31.83 232.68 31 233 C32.34 229.33 34.01 226.3 36.19 223.06 C52.46 197.75 58.02 169.04 52.04 139.42 C46.31 113.87 34.05 90.72 22.31 67.54 C19.5 61.98 16.69 56.41 13.89 50.84 C12.92 48.93 11.95 47.01 10.97 45.1 C7.65 38.52 4.57 31.92 2 25 C1.86 25.75 1.72 26.49 1.58 27.26 C-1.77 45.06 -6.13 62.43 -11.13 79.84 C-20.76 113.58 -19.23 145.44 -16 180 C-15.8 182.19 -15.6 184.38 -15.4 186.57 C-15.32 187.44 -15.24 188.31 -15.16 189.2 C-15.11 189.79 -15.06 190.39 -15 191 C-17 190 -17 190 -17.81 188.08 C-18.06 187.24 -18.32 186.4 -18.59 185.54 C-19.02 184.13 -19.02 184.13 -19.46 182.7 C-19.76 181.68 -20.06 180.67 -20.38 179.62 C-20.69 178.59 -21 177.56 -21.31 176.5 C-33.57 134.81 -28.6 98.87 -16.23 58.05 C-11.53 42.56 -7.35 27.22 -4.68 11.23 C-4.42 9.68 -4.42 9.68 -4.14 8.1 C-3.92 6.73 -3.92 6.73 -3.69 5.33 C-2.93 2.76 -2.04 1.69 0 0 Z " fill="#000100" transform="translate(404,237)"/>
<path d="M0 0 C5.41 1.87 8.71 5.45 12 10 C13.75 15.26 14.03 20.37 11.98 25.6 C5.37 37.4 -7.1 46.3 -19.86 50.56 C-24.57 51.53 -29.24 51.77 -34 51 C-37.49 47.92 -38.86 45.22 -39.38 40.62 C-39.21 30.64 -33.25 22.29 -27 15 C-26.26 13.99 -25.52 12.98 -24.75 11.94 C-18.33 4.24 -10.05 -1.17 0 0 Z " fill="#000100" transform="translate(76,734)"/>
</svg>
