<?xml version="1.0" encoding="utf-8"?>
<!-- Generator: Adobe Illustrator 23.0.1, SVG Export Plug-In . SVG Version: 6.00 Build 0)  -->
<svg version="1.0" id="Слой_1" xmlns="http://www.w3.org/2000/svg" xmlns:xlink="http://www.w3.org/1999/xlink" x="0px" y="0px"
	 viewBox="0 0 720 720" style="enable-background:new 0 0 720 720;" xml:space="preserve">
<g id="Слой_16">
	<path d="M648.9,400.5l-6.2-21c-0.2-0.8-0.5-1.6-0.7-2.4c-1.3-4.6-2.6-9.4-5.9-13.2c-10.1-11.5-26.3-9.7-27-9.6
		c-0.2,0-0.3,0.1-0.4,0.1c0.5-36.8-5.3-73.5-15.4-105.7c5,7.3,11,13.8,18.7,18.4c5.5,3.2,10.4,4.8,14.9,4.8c1.5,0,3-0.2,4.5-0.6
		c7.8-2,13.4-10.1,12.4-18.1c-0.9-8-8.2-14.6-16.3-14.8c-4.9-0.2-9.4,2.2-11.6,5.9c-1.3,2.2-1.7,5.1-0.9,7.7
		c0.7,2.3,2.1,4.2,4.1,5.2c1.1,0.6,2.4,0.2,3-0.9c0.6-1.1,0.1-2.4-0.9-3c-0.9-0.5-1.6-1.4-1.9-2.5c-0.4-1.4-0.2-3.1,0.5-4.2
		c1.4-2.3,4.4-3.8,7.7-3.7c5.8,0.1,11.3,5.1,12,10.9c0.7,5.8-3.5,11.9-9.2,13.4c-4.5,1.2-9.7-0.1-16-3.8
		c-14.5-8.5-22.9-25.2-29.7-40.3c-0.2-0.4-0.5-0.7-0.8-0.9c-10.1-24.2-22.5-44.6-36-58.5c2,0.8,4.2,1.4,6.3,1.7
		c1.2,0.1,2.4,0.2,3.6,0.2c5,0,9.3-1.3,13.8-2.6c5-1.5,10.3-3,17.5-3.2c1.5,0,2.8-1,3.2-2.5c0.4-1.5-0.3-3-1.6-3.7l-19.1-10.7
		c-0.7-0.4-1.4-0.8-2.2-1.3c-4.2-2.4-8.4-4.9-13.4-5.3c-13.8-1.1-23.6,9.2-25.6,11.5c-29-23.5-63.6-40.5-99.9-49.4
		c1.6-0.4,3.1-0.9,4.5-1.6c6.1-3,9.6-7,13.3-11.4c3.4-4,7-8.1,13.1-12.2c1.3-0.9,1.8-2.4,1.3-3.8s-1.9-2.3-3.3-2.3l-21.9,1.3
		c-0.8,0.1-1.7,0.1-2.5,0.1c-4.8,0.2-9.7,0.4-14.2,2.8h0c-10.9,5.9-14.2,17.6-15.1,22.2c-14.3-2-28.6-2.8-42.9-2.2
		c-0.7,0-1.3,0.1-2,0.1c5.4-2.5,10.4-5.6,14.7-9.7c6.2-5.9,9.3-11.6,9.5-17.4c0.2-8-6-15.7-13.9-17c-7.9-1.3-16.3,3.8-18.7,11.5
		c-1.5,4.6-0.5,9.7,2.4,12.8c1.8,1.9,4.4,3,7.1,3c2.5,0.1,4.6-0.9,6.1-2.5c0.8-0.9,0.8-2.3-0.1-3.1c-0.9-0.8-2.3-0.8-3.1,0.1
		c-0.7,0.7-1.8,1.1-2.9,1.1c-1.5,0-3-0.6-3.9-1.7c-1.8-2-2.4-5.3-1.4-8.4c1.7-5.6,8.1-9.5,13.8-8.5c5.7,1,10.5,6.7,10.3,12.5
		c-0.1,4.6-2.8,9.3-8.1,14.3c-8.4,8-19.9,12.1-31.5,14.6c-30.4,4-58.6,13.9-86.5,30.7c2.6-3.5,4.8-7.6,5.7-11.8
		c1.3-6.6,0.2-11.9-1-17.5c-1.1-5.2-2.2-10.5-1.8-17.7c0.1-1.5-0.8-2.9-2.3-3.4c-1.4-0.5-3,0-3.8,1.3l-12.2,18.2
		c-0.5,0.7-0.9,1.4-1.4,2.1c-2.7,3.9-5.5,8-6.3,13c-1.9,12.1,5.2,21.7,8.4,25.3c-8.7,6-17.4,12.6-26.2,19.9
		c-10.3,8.6-19.6,18.5-27.8,29.3c-6.4,7.4-12.3,15.3-17.5,23.7c0-5-0.6-10.6-2.8-15c-3-6-7.1-9.5-11.5-13.2
		c-4-3.4-8.2-6.9-12.3-12.9c-0.9-1.3-2.4-1.8-3.8-1.3c-1.4,0.5-2.3,1.9-2.2,3.4l1.5,21.8c0.1,0.8,0.1,1.7,0.1,2.5
		c0.3,4.8,0.5,9.7,3,14.1c5.2,9.5,14.8,13.1,20.3,14.4c-6.6,13.1-11.8,27.1-15.3,41.7c-5,20.9-8.4,40.6-10.4,59.4
		c-1.5-5.8-3.8-11.4-7.1-16.5c-4.7-7.1-9.8-11.1-15.6-12.3c-7.9-1.6-16.4,3.3-19.1,10.9c-2.7,7.6,1,16.7,8.1,20.4
		c4.3,2.2,9.4,2.1,13-0.2c2.2-1.4,3.7-3.9,4.2-6.5c0.4-2.4-0.1-4.7-1.4-6.5c-0.7-1-2.1-1.2-3.1-0.5c-1,0.7-1.2,2.1-0.5,3.1
		c0.6,0.8,0.8,1.9,0.6,3.1c-0.3,1.5-1.1,2.8-2.3,3.6c-2.2,1.5-5.6,1.5-8.6,0c-5.2-2.7-7.9-9.6-6-15.1c1.9-5.5,8.4-9.2,14.1-8
		c4.5,0.9,8.7,4.3,12.8,10.4c6.9,10.3,8.8,23.2,9.2,35.9c-0.5,12.6-0.3,24.8,0.6,36.5c-1.5-2.7-3.4-5.2-5.6-7.1
		c-5.1-4.4-10.3-6-15.7-7.8c-5-1.6-10.2-3.2-16.3-7.2c-1.3-0.8-2.9-0.7-4,0.3c-1.1,1-1.4,2.6-0.8,4l9.8,19.6
		c0.4,0.7,0.7,1.5,1.1,2.3c2.1,4.3,4.3,8.8,8.2,11.9c6,4.7,12.8,6,18.3,6c3.2,0,5.9-0.4,7.7-0.8c2.1,12.5,5.2,24.5,9.2,36
		c4.7,13.2,10.6,26.2,17.4,38.7c-2.8-2.6-6-5-9.4-6.3c-6.3-2.4-11.7-2.2-17.4-1.9c-5.3,0.2-10.7,0.4-17.8-1.2
		c-1.5-0.4-3,0.3-3.7,1.7c-0.7,1.3-0.5,2.9,0.6,4l15.9,15.1c0.6,0.6,1.2,1.2,1.8,1.8c3.4,3.3,7,6.8,11.7,8.4c2.9,1,5.7,1.4,8.4,1.4
		c10,0,18-5.4,19.5-6.5c12.5,19.6,27.2,37.2,42.7,50.8c10,8.7,22.2,16.6,35.9,23.3c-2.2-0.1-4.4,0-6.5,0.4c-6.6,1.4-11,4.5-15.7,7.8
		c-4.3,3-8.8,6.2-15.6,8.6c-1.4,0.5-2.3,1.9-2.2,3.4c0.1,1.5,1.2,2.7,2.7,3l21.5,4.1c0.8,0.2,1.6,0.3,2.5,0.5
		c3.1,0.6,6.4,1.3,9.6,1.3c1.6,0,3.2-0.2,4.8-0.6c13.7-3.5,19.6-16.7,20.7-19.2c17.5,6.4,36.4,11.1,55.7,13.5
		c-10.5,1.5-20.7,4.4-29.2,10.7c-6.9,5-10.7,10.3-11.6,16.1c-1.2,7.9,4,16.3,11.7,18.6c1.5,0.4,3,0.7,4.5,0.7
		c6.4,0,12.8-3.8,15.5-9.7c2-4.4,1.7-9.5-0.8-13c-1.5-2.1-4-3.6-6.7-3.9c-2.4-0.3-4.7,0.3-6.4,1.7c-0.9,0.8-1.1,2.1-0.3,3.1
		c0.8,0.9,2.1,1.1,3.1,0.3c0.8-0.6,1.9-0.9,3.1-0.7c1.5,0.2,2.9,1,3.7,2.1c1.6,2.2,1.7,5.5,0.3,8.6c-2.4,5.3-9.2,8.4-14.8,6.7
		c-5.6-1.7-9.5-8-8.6-13.7c0.7-4.6,3.9-8.9,9.8-13.2c13.6-9.9,32.3-11,48.8-11.3c0.6,0,1.1-0.3,1.5-0.7c8.8,0.6,17.3,1,25.5,1
		c17.3,0,33-1.5,47.2-4.4c-2.8,2.6-5.4,5.5-7,8.9c-2.9,6.1-3.1,11.5-3.3,17.2c-0.2,5.3-0.4,10.7-2.6,17.6c-0.5,1.5,0.1,3,1.4,3.8
		c0.6,0.4,1.2,0.5,1.8,0.5c0.8,0,1.6-0.3,2.2-0.9l16.3-14.7c0.6-0.6,1.3-1.1,1.9-1.7c3.6-3.2,7.3-6.4,9.3-11
		c4.2-9.9,1.2-19.7-1.1-24.8c2.7-0.9,5.3-1.8,7.9-2.9c15-5.9,28.5-12.8,40.6-20.2c16.7-9.1,31-19.4,43.3-30.4
		c-1.7,5.4-3.1,12.3-1.8,18.2c1.4,6.6,4.6,11,7.9,15.6c3.1,4.3,6.2,8.7,8.8,15.5c0.5,1.3,1.7,2.2,3.1,2.2c0.1,0,0.2,0,0.3,0
		c1.5-0.1,2.7-1.2,3-2.7l3.9-21.6c0.1-0.8,0.3-1.6,0.5-2.5c0.9-4.7,1.9-9.6,0.6-14.4c-2.9-11-12.1-16.9-16.9-19.3
		c26.8-27.3,42.6-58.2,51.7-86.8c0.5,5.9,1.8,11.7,4.2,17.3c3.4,7.8,7.8,12.6,13.2,14.8c1.8,0.7,3.8,1.1,5.8,1.1
		c6,0,12-3.2,14.9-8.5c3.9-7,1.9-16.7-4.5-21.5c-3.9-2.9-8.9-3.7-12.8-2.1c-2.4,1-4.3,3.2-5.3,5.7c-0.8,2.3-0.7,4.6,0.3,6.6
		c0.5,1.1,1.8,1.5,2.9,1c1.1-0.5,1.5-1.9,1-2.9c-0.4-0.9-0.5-2-0.1-3.2c0.5-1.4,1.6-2.6,2.9-3.2c2.5-1.1,5.8-0.5,8.4,1.5
		c4.6,3.5,6.2,10.8,3.3,15.9c-2.8,5.1-9.8,7.6-15.3,5.5c-4.3-1.7-7.8-5.8-10.8-12.5c-4.5-10.1-4.7-21.6-3.4-32.8
		c0.8-3.4,1.5-6.8,2.2-10c2.5-12.5,4-25.3,4.8-38.2c0.9,5.3,2.8,11.5,6.3,15.9c4.2,5.2,9,7.8,14.1,10.5c4.7,2.5,9.5,5,14.8,10
		c0.6,0.6,1.5,0.9,2.3,0.9c0.6,0,1.2-0.2,1.8-0.5C648.7,403.4,649.3,401.9,648.9,400.5 M422.7,75.1c3.5-1.9,7.8-2.1,12.3-2.3
		c0.9,0,1.7-0.1,2.6-0.1l18.2-1.1c-4.8,3.7-8,7.4-10.9,10.8c-3.6,4.2-6.7,7.8-11.9,10.3c-7.2,3.5-18.4,2-23,1.1
		C410.8,89.7,413.8,79.9,422.7,75.1 M235.4,108.5c0.6-4,3-7.5,5.6-11.2c0.5-0.7,1-1.4,1.5-2.1l10.1-15.1c0,6.1,1.1,10.9,2,15.2
		c1.1,5.4,2.1,10,1,15.8c-1.6,7.8-9.6,15.9-13,19C239.9,126.8,233.9,118.5,235.4,108.5 M112.9,391.9c-3.1-2.5-5-6.3-7-10.4
		c-0.4-0.8-0.7-1.5-1.1-2.3l-8.2-16.3c5.3,3,10,4.4,14.2,5.8c5.2,1.7,9.8,3.1,14.2,6.9c6,5.2,9.1,16.1,10.1,20.6
		C131,397,120.8,398.2,112.9,391.9 M145.9,492.4c-3.8-1.3-6.8-4.2-10.1-7.4c-0.6-0.6-1.2-1.2-1.9-1.8l-13.2-12.5
		c6,1,10.9,0.8,15.3,0.6c5.5-0.2,10.2-0.4,15.7,1.7c7.5,2.8,14,12.1,16.6,15.9C164.7,491.1,155.5,495.6,145.9,492.4 M251,589.7
		L251,589.7c-3.9,1-8.1,0.1-12.5-0.8c-0.8-0.2-1.7-0.3-2.5-0.5l-17.9-3.4c5.6-2.4,9.6-5.2,13.2-7.8c4.5-3.2,8.4-5.9,14.1-7.1
		c7.8-1.6,18.3,2.6,22.5,4.5C266.1,578.5,260.9,587.3,251,589.7 M555.4,140.5c4,0.3,7.7,2.4,11.6,4.7c0.7,0.4,1.5,0.9,2.2,1.3
		l15.9,8.9c-6,0.5-10.8,1.9-15,3.2c-5.3,1.6-9.8,2.9-15.6,2.2c-7.9-0.9-16.6-8.3-19.9-11.4C537.6,146.4,545.4,139.7,555.4,140.5
		 M487.2,150.1c2.6,5.2,2.8,10,3.1,15.5c0.2,4.4,0.5,9.4,2,15.2l-13.7-12c-0.6-0.6-1.3-1.1-2-1.7c-3.4-2.9-6.7-5.7-8.3-9.3
		c-4.1-9.2-0.4-18.8,1.4-22.6C473.9,137.2,483.7,142.9,487.2,150.1 M467,131c-0.4,0.6-8.8,14.5-2.7,28.5c2,4.6,5.8,7.8,9.4,10.9
		c0.6,0.5,1.3,1.1,1.9,1.7l16.5,14.4c0.6,0.6,1.4,0.8,2.2,0.8c0.6,0,1.3-0.2,1.8-0.6c1.3-0.8,1.8-2.4,1.3-3.8
		c-2.3-6.9-2.6-12.3-2.8-17.6c-0.3-5.7-0.6-11.1-3.5-17.2c-1.6-3.2-4.1-6-6.8-8.5c13.5,7.8,26.3,16.9,38,27.1c0,0.4,0,0.8,0.3,1.2
		c8.4,14.2,17.1,30.8,15.7,47.5c-0.6,7.3-2.7,12.3-6.2,15.3c-4.5,3.8-11.9,3.6-16.2-0.3c-4.3-3.9-5.2-11.3-2-16.1
		c1.9-2.7,4.8-4.4,7.5-4.2c1.4,0.1,2.8,0.9,3.7,2.1c0.8,0.9,1.1,2,1,3c-0.2,1.2,0.7,2.3,1.9,2.5c1.2,0.2,2.3-0.7,2.5-1.9
		c0.3-2.2-0.4-4.5-1.9-6.3c-1.7-2.1-4.2-3.5-6.8-3.7c-4.2-0.3-8.7,2-11.5,6.1c-4.5,6.7-3.3,16.4,2.7,21.8c3.1,2.8,7.1,4.1,11.2,4.1
		c3.9,0,7.8-1.3,10.8-3.8c4.5-3.8,7-9.7,7.7-18.2c1.2-14.1-4.1-27.7-10.6-40c22.4,22.8,41.9,63.6,52.3,110.8
		c-4.3,1.2-17,5.1-23.1,13c-4.1,5.3-5.5,10.6-6.9,16.1c-1.3,5.1-2.7,10.4-6.3,16.7c-0.8,1.3-0.5,2.9,0.5,4c0.6,0.6,1.5,1,2.3,1
		c0.6,0,1.1-0.1,1.7-0.4l19-10.9c0.7-0.4,1.5-0.8,2.2-1.2c4.2-2.3,8.5-4.7,11.4-8.8c1.5-2.1,2.5-4.3,3.3-6.5
		c5,33.3,5.2,68.7-1.3,102.4c-2.6,13.4-6.6,27.9-12.5,42.8c-2.2-1.6-14.2-9.7-27.7-5.3c-4.8,1.5-8.4,5-11.8,8.3
		c-0.6,0.6-1.2,1.2-1.8,1.7l-16.1,14.9c-1.1,1-1.4,2.6-0.7,4c0.6,1.1,1.7,1.8,2.9,1.8c0.2,0,0.5,0,0.7-0.1c7.1-1.6,12.5-1.3,17.8-1
		c5.7,0.3,11.1,0.6,17.5-1.7c5.7-2.1,10.8-7.1,14.5-11.5c-14.2,30.7-37.5,61.9-75.1,86.5c-14.2,6.8-30.3,13.3-45.8,10.7
		c-7.2-1.2-12-3.6-14.8-7.3c-3.4-4.7-2.7-12.1,1.5-16.1c4.2-4,11.6-4.4,16.2-0.7c2.6,2.1,4,5.1,3.6,7.8c-0.2,1.4-1.1,2.7-2.3,3.6
		c-1,0.7-2.1,0.9-3.1,0.7c-1.2-0.3-2.4,0.5-2.6,1.7c-0.3,1.2,0.5,2.3,1.7,2.6c2.2,0.5,4.5,0,6.5-1.4c2.2-1.5,3.8-4,4.2-6.5
		c0.7-4.2-1.4-8.9-5.2-11.9c-6.3-5-16.1-4.5-22,1c-5.8,5.6-6.7,15.4-2,21.9c3.4,4.7,9.2,7.7,17.6,9.1c2.6,0.4,5.3,0.6,7.9,0.6
		c3.1,0,6.2-0.3,9.3-0.8c-1.9,0.8-3.7,1.6-5.7,2.3c-22.2,8.7-49.3,12.6-81.9,11.6c0.7-4.7,1.3-16.8-7.1-25.9
		c-3.4-3.7-8-5.5-12.5-7.3c-0.8-0.3-1.6-0.6-2.3-0.9l-20.2-8.3c-1.4-0.6-3-0.2-3.9,1c-0.9,1.2-0.9,2.8,0,4.1
		c4.4,5.8,6.4,10.8,8.4,15.7c2.1,5.3,4.1,10.4,8.9,15.1c2.2,2.2,5,3.9,7.9,5.2c-5.9-0.5-11.9-1.1-18.1-1.9
		c-44.3-5.5-86.7-22.7-113.3-46c-1.6-1.4-3.2-2.9-4.8-4.4c0.2-0.1,0.5-0.2,0.6-0.4c0.5-0.5,12.1-11.9,9.5-27
		c-0.8-4.9-3.7-9-6.5-12.9c-0.5-0.7-1-1.4-1.5-2.1l-12.4-18c-0.9-1.3-2.4-1.8-3.8-1.3c-1.4,0.5-2.3,1.9-2.2,3.4
		c0.5,7.3-0.5,12.6-1.5,17.8c-1.1,5.6-2.2,10.9-0.8,17.5c0.4,1.8,1,3.5,1.8,5.2c-9.7-11.5-18.7-24.5-26.6-38.2
		c-4.4-15.3-8.1-32.4-2.9-47.5c2.4-6.9,5.6-11.3,9.7-13.3c5.2-2.6,12.4-0.6,15.7,4.2c3.3,4.8,2.3,12.2-2,16.1
		c-2.5,2.2-5.7,3.1-8.3,2.2c-1.3-0.4-2.5-1.6-3.1-2.9c-0.5-1.1-0.6-2.2-0.2-3.1c0.4-1.1-0.1-2.4-1.2-2.9c-1.1-0.4-2.4,0.1-2.9,1.2
		c-0.8,2.1-0.7,4.4,0.3,6.6c1.1,2.4,3.3,4.4,5.7,5.2c4,1.4,9,0.2,12.6-3.1c6-5.4,7.2-15.1,2.7-21.8c-4.5-6.7-14-9.2-21.2-5.7
		c-5.3,2.6-9.2,7.7-12,15.8c-3.7,10.8-3.3,22.3-1.2,33.4c-4.7-9.6-8.9-19.4-12.3-29.3c-14.3-40.8-16.3-88.3-6-144.6
		c2.4,0.8,6.6,2,11.8,2c4.6,0,9.9-1,14.9-4.1c0,0,0,0,0,0c4.3-2.7,6.9-6.8,9.5-10.9c0.5-0.7,0.9-1.4,1.4-2.1l12-18.3
		c0.8-1.3,0.7-2.9-0.3-4c-1-1.1-2.6-1.5-4-0.8c-6.5,3.2-11.9,4.3-17,5.3c-5.6,1.1-10.9,2.1-16.5,5.9c-3.2,2.2-5.8,5.4-8,8.8
		c0.8-3.7,1.7-7.4,2.6-11.2c6-24.7,16.9-47.8,31.7-67.4c5.7-6.5,11.8-12.5,18.3-18c4.1-3.5,8.2-6.7,12.3-9.9
		c5.1-3,10.6-5.3,16.4-6.3c7.2-1.3,12.5-0.7,16.4,2c4.8,3.3,6.6,10.5,4,15.7c-2.6,5.2-9.5,8-15,6.1c-3.1-1.1-5.5-3.5-6-6.1
		c-0.3-1.4,0.1-3,1-4.2c0.7-1,1.6-1.6,2.6-1.7c1.2-0.2,2-1.3,1.9-2.5c-0.2-1.2-1.2-2-2.5-1.9c-2.2,0.3-4.2,1.5-5.6,3.5
		c-1.6,2.2-2.2,5-1.8,7.5c0.8,4.2,4.3,7.9,8.9,9.5c1.6,0.6,3.3,0.8,5.1,0.8c6.2,0,12.5-3.5,15.3-9.1c3.6-7.2,1.2-16.7-5.5-21.3
		c-4.8-3.3-11.2-4.2-19.6-2.7c-0.5,0.1-0.9,0.2-1.4,0.3c23-15.7,45.8-26.5,69.8-33.1c1.7,5.3,5,11.8,11.6,16.1
		c4.2,2.7,9.1,3.4,13.9,4c0.8,0.1,1.7,0.2,2.5,0.3l21.7,3.1c0.2,0,0.3,0,0.5,0c1.3,0,2.5-0.8,3-2c0.6-1.4,0.2-3-1-3.9
		c-5.7-4.5-8.9-9-12-13.2c-2.7-3.8-5.4-7.4-9.3-10.4c5.9-0.7,11.8-1.2,17.9-1.5c39.2-1.7,79.2,7,115.1,24.2
		C467.2,130.8,467.1,130.9,467,131 M581.7,313.5L581.7,313.5c-2.3,3.3-6,5.3-10,7.5c-0.8,0.4-1.5,0.8-2.3,1.3l-15.8,9
		c2.7-5.4,3.9-10.2,5-14.5c1.4-5.3,2.6-9.9,6.1-14.5c4.9-6.3,15.6-9.9,20.1-11.2C585.9,295.2,587.6,305.3,581.7,313.5 M570.8,457.4
		c-2.6,3.9-9.2,13-16.7,15.8c-5.5,2-10.2,1.8-15.7,1.5c-4.4-0.2-9.4-0.5-15.4,0.4l13.4-12.4c0.6-0.6,1.2-1.2,1.9-1.8
		c3.3-3.1,6.3-6,10.2-7.3C558,450.5,567.2,455.1,570.8,457.4 M373.8,580c-4.6-0.7-15.7-2.9-21.3-8.6c-4.1-4.1-5.9-8.5-7.9-13.6
		c-1.6-4.1-3.5-8.7-6.8-13.8l16.9,6.9c0.8,0.3,1.6,0.6,2.4,1c4.2,1.7,8.1,3.2,10.9,6.2C374.7,565.5,374.4,575.7,373.8,580
		 M206.8,503.6c-1.2-5.7-0.3-10.4,0.8-15.8c0.9-4.4,1.8-9.2,1.8-15.3l10.3,15c0.5,0.7,1,1.4,1.5,2.1c2.6,3.7,5.1,7.1,5.7,11.1
		c1.7,10-4.2,18.3-6.9,21.6C216.5,519.3,208.4,511.4,206.8,503.6 M175.4,276.2L175.4,276.2c-8.6,5.3-18.5,3.1-22.6,1.8
		c1.5-4.4,5.8-14.9,12.4-19.4c4.8-3.3,9.5-4.2,14.9-5.3c4.4-0.9,9.2-1.8,14.8-4.1l-10,15.3c-0.5,0.7-0.9,1.4-1.4,2.2
		C181,270.5,178.8,274.1,175.4,276.2 M329.2,109.7c5,3,7.8,6.8,11,11.3c2.6,3.6,5.5,7.6,10,11.7l-18-2.6c-0.8-0.1-1.7-0.2-2.6-0.3
		c-4.5-0.6-8.7-1.1-12-3.3c-5.5-3.6-8.3-9-9.7-13.5c6.5-1.6,13.1-2.9,19.9-3.9C328.2,109.1,328.7,109.4,329.2,109.7 M306.7,108.6
		c-0.1-0.7-0.2-1.4-0.3-2c2.2-0.2,6-0.5,10-0.2C313.2,107,309.9,107.8,306.7,108.6 M302.4,109.7c-18.5,5-36.3,12.5-54,22.8
		c17.7-11.4,35.3-20,53.5-26.1C302,107.3,302.2,108.4,302.4,109.7 M143.8,203.4c-1.9-3.5-2.2-7.8-2.4-12.2c0-0.9-0.1-1.7-0.2-2.6
		l-1.3-18.2c3.7,4.8,7.5,8,10.9,10.8c4.2,3.6,7.8,6.6,10.4,11.8c3.3,6.7,2.3,16.9,1.5,21.9c-0.2,0.3-0.3,0.6-0.5,0.9
		C158,215,148.6,212,143.8,203.4 M330.4,584.1c-43.9-5.3-85.9-22.2-112.4-45.2c-28.7-25-54.3-63.8-68.5-103.9
		c-8.3-23.5-12.5-49.3-12.6-77.7c0.1-0.3,0.2-0.6,0.2-0.9c0.1-4.4,0.2-8.9,0.1-13.5c1.1-24.7,5-51.4,11.9-80.2
		c1.8-7.7,4.2-15.3,7-22.6c-1.2,3.8-2.3,7.7-3.2,11.6c-17,70.3-17.1,128-0.1,176.5c5.4,15.4,12.4,30.7,20.7,45.1
		c0.2,0.6,0.4,1.3,0.5,1.9c0.2,0.7,0.8,1.3,1.4,1.5c13.4,22.7,29.8,43.2,47.4,58.6c27.3,23.9,70.6,41.5,115.7,47.1
		c17.7,2.2,34.1,3.3,49.2,3.3c12.1,0,23.3-0.7,33.8-2.1C396.4,588.2,366.2,588.5,330.4,584.1 M440.8,605.3c-1.6,3.7-4.8,6.5-8.2,9.5
		c-0.7,0.6-1.3,1.1-1.9,1.7l-13.5,12.2c1.5-5.9,1.6-10.8,1.8-15.3c0.2-5.5,0.4-10.2,2.9-15.5c2.7-5.6,9.1-10.4,13.8-13.2
		c1.3-0.4,2.6-0.8,3.8-1.1C441.5,587.8,444.5,596.6,440.8,605.3 M557.4,540.3c1,3.9,0.2,8-0.6,12.5c-0.2,0.9-0.3,1.7-0.5,2.5
		l-3.2,17.9c-2.5-5.5-5.3-9.5-7.9-13.2c-3.2-4.5-6-8.3-7.2-14c-1.7-7.8,2.4-18.4,4.3-22.6C546,525.3,554.8,530.5,557.4,540.3
		 M600.7,396.3c-0.4,0.3-0.7,0.7-0.8,1.3c-1.2,5.6-2.3,11.4-3,17.4c-7.3,30.3-21.7,64.9-49.5,95.6c25.8-32.3,38.3-67.8,44.1-97.8
		c18.3-94.2-15.7-201.5-58.9-242.6c-47.7-45.4-115.3-70.9-180.6-68.1c-8.1,0.3-16.1,1.1-23.9,2.3c-3.5-1.4-7.5-2.1-11.2-2.3
		c2.9-0.7,5.7-1.4,8.6-2c0,0,0,0,0,0c0.1,0,0.2,0,0.3,0c5-0.7,10.3-1.5,15.5-2.7c7-0.9,14.1-1.5,21.3-1.8
		c64.9-2.6,131.8,22.9,179,68.1C583.1,203.3,615.7,304.9,600.7,396.3 M630.7,389.9c-4.9-2.6-9.1-4.8-12.7-9.3
		c-5-6.2-6-17.5-6.3-22.1c4.3-0.1,14.5,0.7,21.1,8.2c2.6,3,3.8,7.1,5,11.4c0.2,0.8,0.5,1.7,0.7,2.5l5.1,17.5
		C638.9,394.3,634.6,392,630.7,389.9"/>
</g>
<g id="Слой_15">
	<path d="M184.8,217.1c-3.2,0-5.7,2.6-5.7,5.7c0,3.2,2.6,5.7,5.7,5.7c3.2,0,5.7-2.6,5.7-5.7C190.5,219.6,187.9,217.1,184.8,217.1"/>
</g>
<g id="Слой_14">
	<path d="M190.9,149.9c3.2,0,5.7-2.6,5.7-5.7c0-3.2-2.6-5.7-5.7-5.7c-3.2,0-5.7,2.6-5.7,5.7C185.1,147.3,187.7,149.9,190.9,149.9"/>
</g>
<g id="Слой_13">
	<path d="M287.1,92.6c3.2,0,5.7-2.6,5.7-5.7c0-3.2-2.6-5.7-5.7-5.7c-3.2,0-5.7,2.6-5.7,5.7C281.3,90.1,283.9,92.6,287.1,92.6"/>
</g>
<g id="Слой_12">
	<path d="M498.5,104.8c3.2,0,5.7-2.6,5.7-5.7c0-3.2-2.6-5.7-5.7-5.7c-3.2,0-5.7,2.6-5.7,5.7C492.8,102.3,495.4,104.8,498.5,104.8"/>
</g>
<g id="Слой_11">
	<path d="M404.6,136.9c3.2,0,5.7-2.6,5.7-5.7c0-3.2-2.6-5.7-5.7-5.7c-3.2,0-5.7,2.6-5.7,5.7C398.9,134.3,401.5,136.9,404.6,136.9"/>
</g>
<g id="Слой_10">
	<path d="M129,270.5c3.2,0,5.7-2.6,5.7-5.7c0-3.2-2.6-5.7-5.7-5.7c-3.2,0-5.7,2.6-5.7,5.7C123.3,267.9,125.9,270.5,129,270.5"/>
</g>
<g id="Слой_9">
	<path d="M163.4,366.7c-3.2,0-5.7,2.6-5.7,5.7c0,3.2,2.6,5.7,5.7,5.7c3.2,0,5.7-2.6,5.7-5.7C169.1,369.3,166.5,366.7,163.4,366.7"/>
</g>
<g id="Слой_8">
	<path d="M516.5,512.4c3.1,0.8,6.2-1.1,7-4.2c0.8-3.1-1.1-6.2-4.2-7c-3.1-0.8-6.2,1.1-6.9,4.2C511.5,508.6,513.4,511.7,516.5,512.4"
		/>
</g>
<g id="Слой_7">
	<path d="M494.1,576.1c-3.1-0.8-6.2,1.1-6.9,4.2c-0.8,3.1,1.1,6.2,4.2,6.9c3.1,0.8,6.2-1.1,6.9-4.2
		C499.1,580,497.2,576.9,494.1,576.1"/>
</g>
<g id="Слой_6">
	<path d="M386.9,608.1c-3.1-0.8-6.2,1.1-7,4.2c-0.8,3.1,1.1,6.2,4.2,6.9c3.1,0.8,6.2-1.1,7-4.2C391.8,612,390,608.9,386.9,608.1"/>
</g>
<g id="Слой_5">
	<path d="M193.8,539.6c-3.1-0.8-6.2,1.1-6.9,4.2c-0.8,3.1,1.1,6.2,4.2,7c3.1,0.8,6.2-1.1,6.9-4.2
		C198.8,543.4,196.9,540.3,193.8,539.6"/>
</g>
<g id="Слой_4">
	<path d="M283.7,536.5c-3.1-0.8-6.2,1.1-7,4.2c-0.8,3.1,1.1,6.2,4.2,6.9c3.1,0.8,6.2-1.1,7-4.2C288.6,540.4,286.8,537.3,283.7,536.5
		"/>
</g>
<g id="Слой_3">
	<path d="M594,489.2c-3.1-0.8-6.2,1.1-6.9,4.2c-0.8,3.1,1.1,6.2,4.2,7c3.1,0.8,6.2-1.1,7-4.2C598.9,493,597,489.9,594,489.2"/>
</g>
<g id="Слой_2">
	<path d="M622.9,301.7c-0.8,3.1,1.1,6.2,4.2,6.9c3.1,0.8,6.2-1.1,7-4.2c0.8-3.1-1.1-6.2-4.2-7C626.8,296.8,623.7,298.6,622.9,301.7"
		/>
</g>
</svg>
