<?xml version="1.0" encoding="UTF-8"?>
<!-- Generator: visioncortex VTracer 0.6.3 -->
<svg version="1.1" xmlns="http://www.w3.org/2000/svg" width="1280" height="1280">
<path d="M0 0 C7.37 2.27 14.73 4.39 22.23 6.18 C23.24 6.42 23.24 6.42 24.28 6.67 C51.34 12.9 76.75 4.43 102.64 -2.95 C120.68 -8.08 138.6 -12.98 157.13 -16.09 C157.83 -16.22 158.54 -16.35 159.27 -16.48 C179.73 -20.12 205 -20.52 225.13 -15.09 C226.1 -14.84 226.1 -14.84 227.09 -14.59 C253.08 -7.83 275.77 7.89 290.31 30.66 C303.23 53.31 308.94 83.76 303.1 109.42 C301.84 113.77 300.13 117.85 298.13 121.91 C297.77 122.63 297.42 123.35 297.05 124.09 C294.88 128.46 292.57 132.73 290.19 136.98 C288.61 139.84 287.11 142.74 285.63 145.66 C285.16 146.56 284.7 147.46 284.22 148.39 C280.92 155.98 281.65 165.12 284.05 172.9 C284.73 174.56 285.44 176.2 286.19 177.82 C287.13 179.91 287.13 179.91 287.44 182.06 C287.66 182.67 287.89 183.28 288.13 183.91 C290.43 184.97 290.43 184.97 293.13 185.91 C293.91 186.2 294.69 186.49 295.49 186.79 C296.3 187.08 297.1 187.38 297.93 187.68 C298.82 188.01 299.72 188.34 300.64 188.68 C302.49 189.37 304.34 190.05 306.2 190.72 C313.41 193.41 320.66 196.41 325.56 202.6 C326.04 203.18 326.51 203.76 327 204.36 C329.2 207.38 329.24 209.53 329.38 213.22 C329.8 218.56 331.06 220.34 335.13 223.91 C336.88 228.06 337.22 231.09 336.56 235.47 C335.91 239.87 336.99 241.98 339.13 245.91 C339.76 251.95 339.76 251.95 337.63 255.16 C335.9 258.33 336.04 259.79 336.19 263.35 C336.33 268.43 335.57 270.98 332.13 274.91 C331.42 275.53 330.72 276.15 330 276.78 C327.66 279.44 327.4 281.61 326.69 285 C325.87 287.77 324.4 289.2 322.13 290.91 C321.47 290.91 320.81 290.91 320.13 290.91 C320.04 291.96 319.96 293.01 319.88 294.1 C319.04 298.32 318.14 299.9 315.13 302.91 C314.16 303.51 313.19 304.1 312.19 304.72 C309.2 306.85 308.35 307.95 306.63 311.03 C304.36 315.01 302.53 315.63 298.13 316.91 C296.94 319.28 296.94 319.28 296.13 321.91 C293.4 325.29 291.45 326.43 287.13 326.91 C287 328.24 287 328.24 286.88 329.6 C285.99 333.51 285.08 335.18 282.13 337.91 C278.53 339.31 275 339.91 271.13 339.91 C270.84 340.53 270.55 341.15 270.25 341.78 C269.13 343.91 269.13 343.91 267.13 345.91 C264.83 346.45 262.54 346.8 260.22 347.15 C257.96 347.71 257.96 347.71 257.03 349.85 C256.73 350.53 256.43 351.21 256.13 351.91 C253.25 353.82 252.01 354.24 248.75 354.78 C244.61 355.62 242.28 357.03 239.13 359.91 C236.13 360.91 236.13 360.91 232.31 360.72 C228.93 360.66 228.25 360.82 225.31 362.85 C221.3 365.44 218.21 365.47 213.52 365.63 C210.94 365.68 210.94 365.68 209.13 367.91 C204.58 368.71 201.56 369.02 197.13 367.91 C196.53 368.23 195.93 368.55 195.32 368.88 C192.73 370.09 191.14 370.02 188.31 369.85 C184.85 369.75 182.48 369.93 179.38 371.47 C175.1 373.36 172.57 372.66 168.24 371.33 C165.81 370.85 163.94 371.05 161.5 371.41 C157.34 372.02 157.34 372.02 155.13 370.91 C153.41 371.05 151.7 371.25 150 371.47 C146.34 371.86 143.47 371.97 139.94 370.91 C136.47 370 135.31 369.88 132 370.47 C127.47 370.98 126.07 369.96 122.13 367.91 C119.43 367.68 116.84 367.82 114.13 367.91 C112.78 367.61 111.45 367.29 110.13 366.91 C107.23 415.81 104.53 464.58 105.44 513.6 C105.45 514.59 105.47 515.58 105.49 516.6 C104.96 534.9 104.96 534.9 110.13 551.91 C112.35 553.07 112.35 553.07 114.94 553.85 C120.54 555.92 123.51 558.46 126.81 563.47 C128.4 567.62 128.86 571.6 129.3 576.01 C130.76 581.14 134.07 583.31 138.59 585.86 C139.89 586.49 141.19 587.11 142.5 587.72 C143.93 588.41 145.35 589.1 146.77 589.79 C147.86 590.32 147.86 590.32 148.96 590.85 C165.17 598.77 165.17 598.77 171.99 604.23 C174.85 606.48 177.84 608.56 180.81 610.66 C185.07 613.67 189.24 616.75 193.34 619.97 C201.7 626.92 201.7 626.92 211.81 630.16 C217.65 627.01 220.23 618.72 222.69 612.85 C232.57 590.09 244.67 567.64 261.13 548.91 C261.96 547.94 262.8 546.97 263.66 545.97 C272.26 536.2 282.84 524.25 296.42 522.63 C304.03 522.32 308.09 524.42 313.74 529.31 C331.61 547.54 330.9 583.86 331.78 607.69 C331.84 611.93 331.84 611.93 333.13 615.91 C333.85 615.11 334.58 614.31 335.33 613.49 C338.57 609.94 341.84 606.42 345.13 602.91 C345.63 602.36 346.14 601.82 346.66 601.26 C357.41 589.82 370.37 577.92 386.77 576.87 C392.68 576.96 396.98 578.76 401.13 582.91 C414.72 600.02 410.32 626.85 408.13 646.91 C407.26 653.93 406.24 660.92 405.13 667.91 C406.14 667.3 407.16 666.7 408.2 666.08 C421.86 658.1 435.79 651.27 451.97 655.19 C456.64 656.74 458.54 658.88 460.94 663.1 C465.5 677.52 460.75 692.2 456.13 705.91 C455.8 706.88 455.48 707.85 455.15 708.85 C449.52 725.67 442.58 741.82 435.13 757.91 C434.38 759.52 434.38 759.52 433.63 761.16 C426.16 777.32 417.76 792.8 408.81 808.17 C403.26 817.74 399.49 827.29 396.13 837.83 C385.48 870.98 367.17 902.75 343.13 927.91 C341.93 929.17 341.93 929.17 340.71 930.45 C336.72 934.55 332.81 938.1 327.95 941.13 C323.03 945.92 321.44 952.81 319.88 959.28 C311.94 989.53 292.09 1017.68 265.13 1033.91 C255.38 1039.44 245.44 1044.74 235 1048.85 C223.5 1053.41 218.57 1065.57 213.88 1076.28 C189.56 1130.4 189.56 1130.4 169.07 1146.19 C166.1 1147.29 164.14 1146.78 161.13 1145.91 C145.81 1134.05 135.19 1110.78 126.53 1093.88 C126.11 1093.07 125.68 1092.26 125.24 1091.42 C124.44 1089.88 123.66 1088.34 122.91 1086.78 C119.28 1079.84 113.98 1077.15 106.68 1074.8 C105.65 1074.59 104.62 1074.38 103.56 1074.16 C102.01 1073.83 102.01 1073.83 100.43 1073.49 C93.11 1072.21 86.09 1071.76 78.67 1071.75 C77.66 1071.74 76.64 1071.74 75.6 1071.73 C72.26 1071.72 68.92 1071.71 65.59 1071.7 C63.26 1071.7 60.93 1071.69 58.6 1071.69 C53.73 1071.68 48.86 1071.67 43.99 1071.67 C37.75 1071.66 31.51 1071.64 25.27 1071.61 C20.47 1071.59 15.67 1071.59 10.86 1071.58 C8.56 1071.58 6.26 1071.57 3.96 1071.56 C0.75 1071.54 -2.47 1071.55 -5.68 1071.55 C-6.63 1071.54 -7.58 1071.53 -8.55 1071.52 C-15.13 1071.57 -19.31 1072.77 -24.47 1077.07 C-27.45 1080.58 -29.34 1084.23 -31.37 1088.35 C-40.91 1106.99 -51.39 1125.27 -65.06 1141.22 C-65.82 1142.1 -66.58 1142.99 -67.36 1143.9 C-70.61 1146.49 -72.74 1146.92 -76.87 1146.91 C-100.38 1132.97 -115.54 1090.79 -126.23 1067.46 C-126.77 1066.29 -127.31 1065.12 -127.87 1063.91 C-128.17 1063.23 -128.46 1062.55 -128.76 1061.85 C-132.97 1052.59 -139.65 1049.87 -148.69 1046.22 C-181.11 1032.59 -207.71 1009.58 -221.87 976.91 C-224.23 970.76 -226.2 964.48 -228.15 958.2 C-229.09 955.22 -230.12 952.28 -231.19 949.35 C-231.61 948.17 -231.61 948.17 -232.05 946.97 C-232.32 946.29 -232.59 945.61 -232.87 944.91 C-233.16 944.2 -233.44 943.49 -233.73 942.76 C-235.18 940.42 -236.4 940.09 -238.87 938.91 C-272.73 912.26 -294.39 870.83 -307.01 830.26 C-309.8 821.32 -313.53 813.57 -318.37 805.53 C-319.82 803.08 -321.25 800.61 -322.68 798.15 C-323.04 797.53 -323.4 796.92 -323.77 796.29 C-340.55 767.45 -354.65 736.67 -364.87 704.91 C-365.17 704 -365.47 703.1 -365.77 702.17 C-369.59 690.29 -373.42 675.08 -368.47 663.01 C-366.61 659.4 -365.4 657.93 -361.87 655.91 C-345.85 651.07 -333.92 656.55 -319.75 663.88 C-317.42 665.16 -315.15 666.53 -312.87 667.91 C-312.99 667.13 -313.11 666.35 -313.23 665.54 C-313.76 661.94 -314.29 658.33 -314.81 654.72 C-314.99 653.49 -315.18 652.27 -315.36 651 C-322.42 602.41 -322.42 602.41 -311.37 585.62 C-306.8 579.99 -302.44 577.32 -295.12 576.47 C-279.12 577.21 -266.67 589.38 -255.87 599.91 C-255.01 600.74 -254.15 601.58 -253.26 602.44 C-248.88 606.74 -244.79 611.18 -240.87 615.91 C-240.11 611.74 -239.67 607.66 -239.45 603.43 C-235.96 542.87 -235.96 542.87 -219.94 527.78 C-214.93 523.88 -209.49 522.27 -203.1 522.47 C-183.06 526.38 -166.28 550.46 -155.58 566.31 C-143.81 584.29 -133.53 603.47 -126.01 623.63 C-124.66 626.34 -123.19 627.98 -120.87 629.91 C-117.44 630.68 -116.12 630.91 -112.87 629.91 C-110.36 628.04 -108.21 625.94 -105.98 623.75 C-102.24 620.19 -98.07 617.27 -93.87 614.28 C-93.09 613.72 -92.3 613.16 -91.49 612.58 C-89.96 611.5 -88.44 610.42 -86.91 609.34 C-85.22 608.15 -83.53 606.94 -81.84 605.73 C-71.97 598.69 -61.59 593.15 -50.65 587.96 C-43.46 584.5 -43.46 584.5 -37.87 578.91 C-37 575.82 -37 575.82 -36.81 572.53 C-36.02 566.2 -35.28 561.67 -30.08 557.45 C-26.69 555.17 -24.03 553.94 -20 553.03 C-16.63 552.23 -16.63 552.23 -15.5 549.1 C-13.29 537.51 -13.69 525.38 -13.64 513.63 C-13.63 512.76 -13.63 511.89 -13.62 510.99 C-13.59 504.31 -13.57 497.64 -13.56 490.97 C-13.56 489.5 -13.56 489.5 -13.56 488 C-13.49 452.56 -14.72 417.33 -17.26 381.99 C-17.35 380.87 -17.43 379.75 -17.51 378.6 C-17.58 377.64 -17.65 376.68 -17.72 375.69 C-17.88 372.76 -17.9 369.84 -17.87 366.91 C-24.61 367.42 -24.61 367.42 -31.19 368.91 C-35.73 370.14 -40.11 370.39 -44.79 370.66 C-47.81 370.84 -47.81 370.84 -50.48 371.47 C-53.05 371.94 -54.99 371.79 -57.56 371.41 C-60.84 370.84 -60.84 370.84 -63.87 371.91 C-67.35 371.98 -70.82 371.9 -74.3 371.85 C-77.84 371.81 -77.84 371.81 -81.12 372.5 C-84.41 372.99 -86.04 372.04 -88.95 370.6 C-91.89 369.54 -94.66 369.81 -97.75 369.94 C-99.87 369.91 -99.87 369.91 -103 368.85 C-105.93 367.65 -105.93 367.65 -109.31 368.47 C-113.08 368.93 -114.55 368.33 -117.86 366.66 C-120.41 365.71 -122.72 365.61 -125.44 365.47 C-130.42 365.15 -132.74 363.73 -136.87 360.91 C-139.28 360.56 -139.28 360.56 -141.87 360.47 C-147.02 360.16 -148.98 358.3 -152.87 354.91 C-155.08 354.27 -155.08 354.27 -157.44 353.91 C-162 353.12 -163.64 351.23 -166.87 347.91 C-168.83 347.27 -168.83 347.27 -170.94 346.91 C-174.67 346.18 -174.67 346.18 -176.69 343.47 C-179.28 340.43 -180.56 340.29 -184.37 339.41 C-189.6 338.16 -189.6 338.16 -192.37 335.6 C-193.87 332.91 -193.87 332.91 -195.19 329.85 C-196.94 326.8 -197.48 326.38 -200.44 324.91 C-204.58 322.5 -204.46 321.26 -205.87 316.91 C-208.79 315.66 -208.79 315.66 -211.87 314.91 C-214.27 313.14 -214.91 311.83 -216.06 309.03 C-217.96 305.76 -218.63 305.32 -221.81 303.66 C-226.39 301.09 -227.34 298.1 -228.94 293.26 C-229.8 290.63 -229.8 290.63 -232.5 288.35 C-235.09 285.69 -235.24 284.9 -235.81 281.41 C-236.41 277.86 -237.11 276.23 -239.94 273.97 C-240.91 273.29 -241.88 272.61 -242.87 271.91 C-244.18 269.31 -243.87 267.49 -243.75 264.6 C-243.69 259.97 -244.29 257.78 -246.87 253.91 C-247.34 249.74 -247.11 247.41 -245.31 243.6 C-243.85 239.85 -243.83 238.7 -244.37 234.91 C-245.04 230.07 -244.34 227.24 -241.87 222.91 C-241.15 222.1 -240.43 221.3 -239.69 220.47 C-237.53 217.42 -237.81 215.65 -237.96 212.02 C-237.76 207.22 -235.47 203.47 -232.09 200.16 C-226.04 195.27 -219.95 192.69 -212.62 190.22 C-201.32 186.79 -201.32 186.79 -193.69 178.35 C-189.63 169.4 -188.81 159.48 -190.87 149.91 C-193.82 142.4 -197.88 135.73 -202.46 129.1 C-214.54 110.33 -214.65 86.07 -210.46 64.82 C-204.63 38.44 -190.28 14.04 -167.42 -0.92 C-156.43 -7.81 -144.44 -12.11 -131.87 -15.09 C-131.18 -15.26 -130.49 -15.42 -129.77 -15.59 C-86.63 -25.26 -41.14 -12.7 0 0 Z M-136.87 -4.09 C-137.93 -3.78 -137.93 -3.78 -139.01 -3.46 C-153.72 1.06 -165.98 9.03 -176.87 19.91 C-177.57 20.59 -178.27 21.28 -178.98 21.98 C-195.71 39.52 -202.05 63.45 -202.25 87.03 C-202.26 88.2 -202.28 89.37 -202.29 90.57 C-202.22 103.12 -199.71 113.55 -193.56 124.47 C-192.58 126.28 -191.6 128.09 -190.61 129.9 C-190.14 130.76 -189.67 131.62 -189.19 132.5 C-187.47 135.65 -185.85 138.83 -184.25 142.03 C-183.8 142.92 -183.36 143.81 -182.9 144.73 C-179.02 152.99 -179.6 165.71 -182 174.41 C-182.57 175.93 -183.2 177.43 -183.87 178.91 C-184.28 179.84 -184.68 180.77 -185.09 181.74 C-190.71 193.4 -199.33 196.23 -210.9 200.3 C-219.6 203.38 -219.6 203.38 -226.87 208.91 C-227.8 210.89 -227.8 210.89 -227.87 212.91 C-224.87 215.91 -222.05 215.5 -217.87 215.91 C-217.87 216.57 -217.87 217.23 -217.87 217.91 C-218.6 218.18 -219.33 218.45 -220.08 218.72 C-222.81 219.88 -225.1 221.2 -227.56 222.85 C-228.71 223.6 -228.71 223.6 -229.89 224.37 C-232.12 225.93 -232.12 225.93 -233.87 228.91 C-233.87 230.23 -233.87 231.55 -233.87 232.91 C-231.23 233.57 -228.59 234.23 -225.87 234.91 C-228.65 238.51 -231.62 241.74 -234.87 244.91 C-236.23 246.03 -236.23 246.03 -235.94 248.97 C-235.91 250.42 -235.91 250.42 -235.87 251.91 C-232.9 252.24 -229.93 252.57 -226.87 252.91 C-227.3 253.42 -227.72 253.92 -228.15 254.45 C-228.7 255.14 -229.25 255.82 -229.81 256.53 C-230.36 257.21 -230.9 257.88 -231.46 258.57 C-233.32 261.33 -233.32 261.33 -233.87 266.91 C-229.25 266.91 -224.63 266.91 -219.87 266.91 C-221.44 269.35 -223 271.79 -224.56 274.23 C-226.24 277.16 -226.24 277.16 -225.87 281.91 C-222.24 281.91 -218.61 281.91 -214.87 281.91 C-215.37 282.77 -215.86 283.64 -216.37 284.53 C-217.92 288.02 -218.14 290.16 -217.87 293.91 C-214.45 295.1 -212.5 294.71 -209.12 293.47 C-208.33 293.18 -207.53 292.9 -206.7 292.6 C-206.1 292.37 -205.5 292.14 -204.87 291.91 C-205.03 292.57 -205.19 293.24 -205.35 293.92 C-205.54 294.8 -205.74 295.69 -205.94 296.6 C-206.13 297.47 -206.33 298.34 -206.53 299.23 C-206.9 302.07 -206.58 304.16 -205.87 306.91 C-201.96 306.37 -199.48 305.71 -195.87 303.91 C-195.87 307.87 -195.87 311.83 -195.87 315.91 C-192.18 317.25 -192.18 317.25 -189.95 316.13 C-189.35 315.75 -188.75 315.36 -188.12 314.97 C-187.05 314.29 -185.98 313.61 -184.87 312.91 C-184.87 317.86 -184.87 322.81 -184.87 327.91 C-180.08 329.46 -180.08 329.46 -177.2 327.26 C-176.33 326.5 -175.46 325.75 -174.56 324.97 C-173.68 324.22 -172.8 323.47 -171.89 322.69 C-170.89 321.81 -170.89 321.81 -169.87 320.91 C-170.04 321.44 -170.2 321.97 -170.37 322.52 C-170.99 325.45 -170.97 328.17 -170.94 331.16 C-170.93 332.24 -170.92 333.31 -170.91 334.42 C-170.9 335.24 -170.89 336.06 -170.87 336.91 C-167.01 336.38 -164.92 335.48 -162.06 332.85 C-161.16 332.02 -161.16 332.02 -160.23 331.19 C-159.78 330.76 -159.34 330.34 -158.87 329.91 C-158.89 330.51 -158.9 331.11 -158.91 331.74 C-158.92 332.54 -158.93 333.33 -158.94 334.16 C-158.95 334.95 -158.96 335.74 -158.97 336.55 C-158.88 338.81 -158.51 340.74 -157.87 342.91 C-153.42 342.65 -151.36 342.33 -147.94 339.35 C-147.26 338.54 -146.58 337.74 -145.87 336.91 C-145.21 341.2 -144.55 345.49 -143.87 349.91 C-142.55 350.24 -141.23 350.57 -139.87 350.91 C-137.23 348.68 -137.23 348.68 -134.87 345.91 C-133.87 344.91 -132.87 343.91 -131.87 342.91 C-131.47 344.49 -131.47 344.49 -131.06 346.1 C-130 349.5 -128.92 352.01 -126.87 354.91 C-126.21 355.24 -125.55 355.57 -124.87 355.91 C-120.59 352.13 -120.59 352.13 -118.87 346.91 C-118.21 346.91 -117.55 346.91 -116.87 346.91 C-116.77 347.79 -116.67 348.68 -116.56 349.6 C-115.86 352.97 -114.79 355.08 -112.87 357.91 C-110.99 357.94 -110.99 357.94 -108.87 356.91 C-107.28 354.67 -106.13 352.37 -104.87 349.91 C-104.21 349.91 -103.55 349.91 -102.87 349.91 C-101.55 352.88 -100.23 355.85 -98.87 358.91 C-94.96 359.37 -94.96 359.37 -93.19 357.28 C-91.64 354.49 -91.23 352.06 -90.87 348.91 C-90.21 348.91 -89.55 348.91 -88.87 348.91 C-88.75 349.51 -88.63 350.11 -88.51 350.74 C-88.26 351.93 -88.26 351.93 -88 353.16 C-87.76 354.34 -87.76 354.34 -87.51 355.55 C-86.87 357.93 -86.19 359.83 -84.87 361.91 C-83.88 362.24 -82.89 362.57 -81.87 362.91 C-77.7 359.45 -76.55 355.93 -74.87 350.91 C-74.61 351.53 -74.34 352.16 -74.07 352.81 C-73.54 354.03 -73.54 354.03 -73 355.28 C-72.65 356.1 -72.3 356.91 -71.95 357.74 C-70.95 360.05 -70.95 360.05 -68.87 361.91 C-66.82 362.02 -66.82 362.02 -64.87 360.91 C-63.51 358.37 -63.51 358.37 -62.62 355.35 C-62.29 354.33 -61.95 353.32 -61.61 352.28 C-61.25 351.11 -61.25 351.11 -60.87 349.91 C-60.54 350.53 -60.2 351.16 -59.85 351.81 C-59.18 353.03 -59.18 353.03 -58.5 354.28 C-58.06 355.1 -57.62 355.91 -57.16 356.74 C-55.93 359.02 -55.93 359.02 -53.87 360.91 C-52.55 360.91 -51.23 360.91 -49.87 360.91 C-49.37 359.45 -48.87 357.99 -48.37 356.53 C-48.1 355.72 -47.82 354.91 -47.53 354.07 C-46.78 351.97 -46.78 351.97 -46.87 349.91 C-46.21 349.91 -45.55 349.91 -44.87 349.91 C-44.7 350.53 -44.53 351.16 -44.36 351.81 C-44.12 352.62 -43.87 353.44 -43.62 354.28 C-43.39 355.1 -43.16 355.91 -42.92 356.74 C-41.65 359.37 -40.55 359.9 -37.87 360.91 C-34.18 356.83 -32.62 353.04 -30.87 347.91 C-28.89 351.21 -26.91 354.51 -24.87 357.91 C-23.55 357.58 -22.23 357.25 -20.87 356.91 C-19.77 354.63 -19.77 354.63 -19.19 351.91 C-17.93 346.96 -17.93 346.96 -16.87 345.91 C-15.22 348.88 -13.57 351.85 -11.87 354.91 C-10.22 354.91 -8.57 354.91 -6.87 354.91 C-5.88 352.27 -4.89 349.63 -3.87 346.91 C-2.22 349.22 -0.57 351.53 1.13 353.91 C2.45 353.58 3.77 353.25 5.13 352.91 C6.26 350.83 6.26 350.83 6.88 348.35 C7.24 347.11 7.24 347.11 7.61 345.84 C7.78 345.2 7.95 344.57 8.13 343.91 C8.79 343.91 9.45 343.91 10.13 343.91 C10.37 344.53 10.62 345.15 10.88 345.78 C12.33 348.26 13.5 348.86 16.13 349.91 C17.12 348.59 18.11 347.27 19.13 345.91 C17.81 342.88 16.56 341.18 13.89 339.24 C13.24 338.77 12.59 338.29 11.92 337.8 C11.23 337.3 10.53 336.8 9.81 336.28 C8.35 335.21 6.88 334.14 5.42 333.07 C4.69 332.54 3.96 332 3.21 331.46 C1.35 330.08 -0.46 328.67 -2.26 327.22 C-22.18 311.25 -40.33 305.53 -65.87 306.91 C-68.67 307.26 -71.31 307.81 -74.06 308.41 C-87.93 311.41 -103.24 312.19 -115.87 304.91 C-119.52 302.52 -122.71 299.9 -125.87 296.91 C-127.01 295.83 -127.01 295.83 -128.18 294.73 C-144.2 278.27 -153.36 252.62 -153.17 229.83 C-152.98 221.73 -151.6 214.35 -145.71 208.43 C-138.89 202.8 -129.41 203.4 -121.06 203.47 C-119.75 203.48 -118.43 203.48 -117.08 203.49 C-101.06 203.69 -85.41 206.17 -69.73 209.32 C-68.57 209.55 -67.41 209.79 -66.21 210.03 C-64.02 210.47 -61.84 210.94 -59.66 211.42 C-49.85 213.48 -41.09 213.45 -32.21 208.45 C-19.7 200.18 -13.68 185.32 -6.84 172.49 C23.33 115.91 23.33 115.91 42.13 109.91 C48.61 108.8 53.79 110.13 59.13 113.91 C77.24 128.89 88.33 153.19 99.38 173.46 C111.1 197.29 111.1 197.29 132.13 211.91 C141.91 214.18 151.61 211.48 161.25 209.6 C178.59 206.26 195.41 203.55 213.13 203.6 C214.48 203.58 215.83 203.56 217.18 203.55 C232.68 203.54 232.68 203.54 238.94 209.66 C246.76 221.28 246.26 234.19 243.68 247.53 C239.24 267.98 229.09 290.68 211.13 302.7 C210.47 303.1 209.81 303.5 209.13 303.91 C208.4 304.37 207.68 304.83 206.94 305.3 C192.47 313.58 175.81 310.81 160.25 307.78 C139.53 304.21 121.52 308.32 104.13 319.91 C100.51 322.51 97.05 325.3 93.6 328.12 C89.99 331.06 86.24 333.78 82.44 336.47 C81.85 336.89 81.26 337.31 80.65 337.74 C78.17 339.49 75.66 341.22 73.13 342.91 C73.31 345.35 73.31 345.35 74.13 347.91 C76.09 349.27 76.09 349.27 78.13 349.91 C79.5 348.62 80.83 347.28 82.13 345.91 C82.13 345.25 82.13 344.59 82.13 343.91 C82.79 343.91 83.45 343.91 84.13 343.91 C84.21 344.82 84.29 345.72 84.38 346.66 C85.22 350.31 86.3 351.54 89.13 353.91 C89.91 353.12 90.69 352.34 91.5 351.53 C93.04 349.99 94.58 348.45 96.13 346.91 C97.45 349.55 98.77 352.19 100.13 354.91 C104.49 353.82 104.87 353.49 107.13 349.91 C107.79 348.59 108.45 347.27 109.13 345.91 C111.11 351.35 111.11 351.35 113.13 356.91 C114.45 356.91 115.77 356.91 117.13 356.91 C118.93 354.94 118.93 354.94 120.38 352.41 C120.9 351.57 121.42 350.74 121.95 349.88 C122.34 349.23 122.73 348.58 123.13 347.91 C123.44 348.76 123.75 349.62 124.08 350.5 C124.72 352.15 124.72 352.15 125.38 353.85 C125.79 354.95 126.21 356.05 126.64 357.19 C127.83 360.06 127.83 360.06 130.3 360.79 C130.9 360.83 131.5 360.87 132.13 360.91 C134.65 357.78 136.4 354.53 138.13 350.91 C140.11 355.86 140.11 355.86 142.13 360.91 C146.97 360.51 146.97 360.51 148.49 358.13 C148.8 357.42 149.12 356.7 149.44 355.97 C149.76 355.26 150.09 354.55 150.43 353.82 C151.24 351.93 151.24 351.93 151.13 349.91 C151.79 349.91 152.45 349.91 153.13 349.91 C153.42 350.83 153.42 350.83 153.71 351.77 C153.97 352.58 154.23 353.39 154.5 354.22 C154.88 355.42 154.88 355.42 155.27 356.65 C156.11 359.14 156.11 359.14 158.13 361.91 C160.06 361.7 160.06 361.7 162.13 360.91 C163.47 359.17 163.47 359.17 164.38 357.03 C164.88 355.98 164.88 355.98 165.39 354.92 C166.3 352.79 166.3 352.79 166.13 349.91 C166.79 349.91 167.45 349.91 168.13 349.91 C168.22 350.51 168.32 351.11 168.42 351.74 C169.33 356.61 170 359.75 174.13 362.91 C178.68 358.97 180.28 355.64 182.13 349.91 C182.37 350.46 182.61 351.02 182.86 351.59 C183.36 352.67 183.36 352.67 183.88 353.78 C184.2 354.5 184.52 355.22 184.86 355.96 C186.34 358.25 187.63 358.91 190.13 359.91 C193.58 357.24 193.99 353.98 195.13 349.91 C195.79 349.58 196.45 349.25 197.13 348.91 C197.35 350 197.58 351.09 197.81 352.22 C198.78 356.03 198.78 356.03 201.75 357.85 C202.53 358.2 203.32 358.55 204.13 358.91 C206.88 356.91 207.47 354.98 208.19 351.78 C208.5 350.5 208.81 349.23 209.13 347.91 C209.79 347.58 210.45 347.25 211.13 346.91 C211.39 347.84 211.66 348.76 211.94 349.72 C213.28 353.43 213.28 353.43 216.13 355.91 C218.25 356.15 218.25 356.15 220.13 354.91 C222.02 350.72 222.58 346.45 223.13 341.91 C223.57 342.47 224.02 343.04 224.48 343.62 C225.09 344.36 225.69 345.09 226.31 345.85 C226.9 346.58 227.5 347.31 228.11 348.06 C230.45 350.21 232.01 350.57 235.13 350.91 C237.33 346.35 237.71 341.88 238.13 336.91 C238.66 337.41 239.19 337.92 239.73 338.44 C240.44 339.09 241.15 339.74 241.88 340.41 C242.57 341.06 243.27 341.71 243.98 342.38 C246.23 344.3 246.23 344.3 250.13 343.91 C250.13 339.29 250.13 334.67 250.13 329.91 C252.05 331.47 253.97 333.03 255.89 334.6 C258.51 336.14 260.13 336.16 263.13 335.91 C263.15 333.95 263.17 331.99 263.19 330.03 C263.21 328.4 263.21 328.4 263.22 326.73 C263.32 323.96 263.32 323.96 262.13 321.91 C263.12 322.68 263.12 322.68 264.14 323.47 C265.02 324.13 265.9 324.79 266.81 325.47 C267.68 326.13 268.55 326.79 269.45 327.47 C272.04 329.18 272.04 329.18 274.96 328.62 C275.67 328.39 276.39 328.15 277.13 327.91 C277.33 320.34 277.33 320.34 276.13 312.91 C276.66 313.21 277.19 313.51 277.73 313.82 C278.44 314.2 279.15 314.58 279.88 314.97 C280.57 315.35 281.27 315.74 281.98 316.13 C284.49 317.04 285.66 316.79 288.13 315.91 C288.15 314.67 288.17 313.43 288.19 312.16 C288.21 311.11 288.21 311.11 288.22 310.05 C288.18 307.57 288.18 307.57 287.13 303.91 C290.43 304.9 293.73 305.89 297.13 306.91 C298.33 305.92 298.33 305.92 298.26 304.02 C298.24 299.85 298.17 295.97 297.13 291.91 C298.03 292.25 298.03 292.25 298.95 292.6 C299.75 292.89 300.55 293.17 301.38 293.47 C302.16 293.76 302.95 294.05 303.77 294.35 C306.32 294.95 307.68 294.76 310.13 293.91 C309.94 292.05 309.94 292.05 309.75 290.16 C309.68 289.46 309.61 288.77 309.54 288.05 C309.15 285.5 309.15 285.5 307.13 281.91 C310.43 281.91 313.73 281.91 317.13 281.91 C318.33 277.08 317.61 276.31 315.19 272.16 C314.34 270.68 314.34 270.68 313.47 269.17 C313.03 268.43 312.58 267.68 312.13 266.91 C312.97 266.99 313.81 267.08 314.68 267.16 C315.78 267.26 316.87 267.37 318 267.47 C319.09 267.57 320.18 267.68 321.3 267.79 C324.08 268.13 324.08 268.13 326.13 266.91 C325.63 262.15 324.4 259.36 321.56 255.53 C320.92 254.66 320.28 253.78 319.62 252.88 C319.13 252.23 318.63 251.58 318.13 250.91 C318.79 251.24 319.45 251.57 320.13 251.91 C324.78 252.21 324.78 252.21 329.13 250.91 C328.65 246.22 326.83 244.08 323.63 240.72 C319.19 236.04 319.19 236.04 318.13 233.91 C319.24 233.97 320.35 234.03 321.5 234.1 C322.7 234.03 323.89 233.97 325.13 233.91 C325.79 232.92 326.45 231.93 327.13 230.91 C322.97 225.52 319.1 221.9 312.95 218.92 C311.13 217.91 311.13 217.91 310.13 215.91 C314.58 214.92 314.58 214.92 319.13 213.91 C319.57 210.06 319.57 210.06 317.76 208.38 C309.28 202.24 299.85 198.7 290.07 195.12 C283.89 192.58 281.23 190.17 278.44 184.1 C278.14 183.49 277.85 182.89 277.55 182.27 C273.97 174.81 272.76 168.84 272.75 160.66 C272.73 159.77 272.7 158.88 272.68 157.96 C272.62 145.95 278.68 136.85 284.7 126.85 C295.41 108.67 297.38 85.48 293.05 64.83 C290.78 56.17 287 47.95 283.13 39.91 C282.66 38.91 282.2 37.91 281.73 36.88 C277.82 29.01 272.28 23.07 266.13 16.91 C265.47 16.24 264.81 15.57 264.13 14.88 C241.72 -6.33 209.49 -9.05 180.31 -8.27 C169.78 -7.89 159.45 -6.08 149.13 -4.09 C147.66 -3.82 147.66 -3.82 146.16 -3.54 C126.73 0.16 107.71 5.75 88.68 11.06 C87.59 11.36 86.5 11.66 85.38 11.98 C83.33 12.55 81.28 13.12 79.23 13.7 C64.37 17.85 64.37 17.85 57.19 18.53 C56.46 18.61 55.73 18.68 54.97 18.76 C34.61 19.82 14.95 14.7 -4.41 8.93 C-24.04 3.11 -43.68 -2.59 -63.87 -6.09 C-64.96 -6.29 -64.96 -6.29 -66.07 -6.49 C-88.39 -10.29 -115.12 -10.71 -136.87 -4.09 Z M26.13 134.91 C15.98 149.6 7.69 165.53 -0.84 181.18 C-6.45 191.47 -12.11 201.71 -17.87 211.91 C-18.34 212.74 -18.81 213.57 -19.29 214.43 C-20.45 216.51 -21.65 218.55 -22.87 220.6 C-23.49 221.65 -24.11 222.71 -24.75 223.79 C-26.87 225.91 -26.87 225.91 -30.1 226.12 C-33.71 225.92 -36.91 225.39 -40.43 224.55 C-41.69 224.26 -42.95 223.97 -44.25 223.67 C-45.24 223.44 -45.24 223.44 -46.25 223.2 C-58.5 220.34 -70.76 217.94 -83.19 216.03 C-83.85 215.93 -84.51 215.83 -85.19 215.72 C-97.04 213.89 -108.64 212.73 -120.62 212.72 C-121.61 212.71 -122.6 212.7 -123.62 212.68 C-129.09 212.67 -133.76 212.9 -138.87 214.91 C-143.44 220.22 -145.36 226.46 -145.12 233.45 C-142.87 256.28 -133.7 278.99 -115.87 293.91 C-103.95 302.53 -92.26 302.38 -78.3 300.17 C-75.82 299.75 -73.35 299.33 -70.87 298.91 C-46.92 294.91 -25.46 299.63 -5.59 313.43 C-1.3 316.5 2.88 319.72 7.06 322.93 C25.89 338.09 25.89 338.09 48.44 344.1 C61.94 341.57 73.13 331.75 83.75 323.7 C107.27 305.92 129.05 294.58 159.35 298.3 C163.56 298.95 167.74 299.68 171.92 300.48 C185.2 303.04 195.26 301.92 206.82 294.48 C207.96 293.7 207.96 293.7 209.13 292.91 C209.74 292.5 210.36 292.1 210.99 291.68 C225.77 280.61 233.91 256.17 236.62 238.71 C237.59 230.1 237.15 222.91 231.81 215.85 C218.87 206.52 188.77 213.55 174.13 215.91 C171.44 216.39 168.76 216.91 166.08 217.44 C165.4 217.58 164.71 217.71 164.01 217.85 C160.68 218.52 157.37 219.21 154.06 219.93 C143.71 222.09 131.92 224.41 122.14 219.23 C111.36 212.16 104.86 202.02 99 190.78 C97.87 188.66 96.74 186.53 95.6 184.41 C95.03 183.33 94.46 182.26 93.86 181.15 C76.86 145.27 76.86 145.27 49.13 118.91 C39.44 117.15 31.31 127.92 26.13 134.91 Z M26.56 351.37 C26.09 352 25.61 352.63 25.13 353.28 C23.02 356.06 21.39 357.62 18.13 358.91 C16.42 359.12 16.42 359.12 14.69 359.35 C11.16 359.65 11.16 359.65 8.75 361.47 C5.41 363.3 2.95 363.11 -0.79 362.92 C-3.07 362.8 -3.07 362.8 -5.87 363.91 C-7.78 367.72 -7.07 372.4 -7.06 376.6 C-7.06 377.7 -7.06 378.81 -7.06 379.94 C-7 389.92 -6.42 399.83 -5.67 409.78 C-3.96 433.04 -3.67 456.34 -3.69 479.66 C-3.69 480.35 -3.69 481.04 -3.69 481.75 C-3.71 531.55 -6.08 581.26 -12.62 630.66 C-17.25 661.06 -17.25 661.06 -6.48 688.89 C-5.69 689.89 -5.69 689.89 -4.87 690.91 C-4.4 691.52 -3.92 692.14 -3.43 692.77 C2.22 699.19 11.72 704.19 20.13 705.91 C21.58 706 23.04 706.05 24.5 706.05 C25.36 706.06 26.22 706.07 27.11 706.07 C28.49 706.07 28.49 706.07 29.9 706.08 C31.35 706.08 31.35 706.08 32.82 706.09 C34.86 706.09 36.9 706.09 38.94 706.09 C42.02 706.1 45.1 706.11 48.18 706.13 C66.25 706.19 81.29 705.97 95 692.66 C103.77 683.43 107.53 673.1 107.43 660.47 C107.42 659.25 107.42 659.25 107.41 658.01 C107.25 648.04 105.98 638.19 104.73 628.31 C104.01 622.56 103.33 616.79 102.65 611.03 C102.52 609.89 102.38 608.75 102.24 607.58 C100.46 592.38 99.09 577.18 98.13 561.91 C98.07 561.1 98.02 560.3 97.97 559.47 C94.71 507.37 94.89 454.74 98.41 402.66 C98.97 394.27 99.28 385.94 99.25 377.53 C99.25 376.43 99.26 375.33 99.26 374.19 C99.26 373.14 99.26 372.09 99.26 371.01 C99.26 369.61 99.26 369.61 99.25 368.18 C99.27 365.87 99.27 365.87 98.13 363.91 C95.77 363.55 95.77 363.55 93 363.47 C88.11 363.12 84.6 361.98 80.13 359.91 C78.61 359.64 77.09 359.39 75.56 359.16 C70.98 358.26 69.17 356.26 66.61 352.47 C64.55 350.31 63.07 350.13 60.13 349.91 C57.73 350.42 57.73 350.42 55.38 351.35 C47.66 353.83 41.69 353.53 34.17 350.56 C31.19 349.61 28.96 349.12 26.56 351.37 Z M-214.28 536.94 C-230.32 556.79 -229.28 589.82 -230.06 613.78 C-230.14 616.04 -230.23 618.3 -230.31 620.56 C-230.51 626.01 -230.7 631.46 -230.87 636.91 C-237.49 635.94 -237.49 635.94 -240.25 632.97 C-241.13 632.02 -241.13 632.02 -242.03 631.06 C-244.7 627.94 -247.25 624.73 -249.79 621.51 C-253.3 617.13 -257.04 613 -260.87 608.91 C-261.56 608.17 -261.56 608.17 -262.27 607.41 C-270.11 599.05 -279.29 589.49 -291.12 587.54 C-295.38 587.41 -297.48 587.68 -301.25 589.91 C-310.53 600.52 -308.23 617.06 -307.42 630.14 C-306.54 642.54 -304.93 654.6 -302.55 666.79 C-302.34 667.9 -302.12 669.01 -301.9 670.15 C-301.7 671.12 -301.5 672.09 -301.3 673.08 C-300.85 676.08 -300.73 678.88 -300.87 681.91 C-301.87 682.91 -301.87 682.91 -304.4 683.29 C-309.29 682.75 -312.39 680.46 -316.44 677.78 C-333.84 666.64 -333.84 666.64 -353.87 663.91 C-356.75 665.08 -356.75 665.08 -358.87 666.91 C-368.53 695.88 -340.28 742.6 -327.87 767.91 C-324.66 774.31 -321.3 780.62 -317.87 786.91 C-317.22 788.11 -316.57 789.31 -315.92 790.52 C-314.58 792.99 -313.23 795.45 -311.87 797.91 C-310.37 795.05 -309.26 792.2 -308.19 789.16 C-305.59 782.63 -301.77 777.97 -296.06 773.91 C-288.76 771.62 -282.07 772.92 -274.87 774.91 C-273.55 774.91 -272.23 774.91 -270.87 774.91 C-270.83 774.15 -270.79 773.4 -270.74 772.62 C-267.48 719.25 -267.48 719.25 -254.87 706.91 C-249.85 703.25 -244.86 703.18 -238.87 703.91 C-232.85 705.23 -226.83 706.69 -221.11 709.04 C-218.81 710.09 -218.81 710.09 -215.87 709.91 C-215.64 709.17 -215.41 708.44 -215.18 707.68 C-210.7 693.56 -206.29 679.79 -198.87 666.91 C-198.34 665.98 -197.8 665.05 -197.25 664.09 C-194.08 658.95 -190.97 655.32 -185.1 653.3 C-181.09 652.6 -177.01 653.12 -172.97 653.36 C-169.72 653.2 -169.72 653.2 -167.64 650.67 C-167.06 649.76 -166.48 648.85 -165.87 647.91 C-165.41 647.18 -164.94 646.45 -164.45 645.7 C-164.01 644.98 -163.58 644.27 -163.12 643.53 C-157.17 634.53 -150.88 630.93 -140.5 628.78 C-138.96 628.49 -137.42 628.2 -135.87 627.91 C-137.68 621.42 -139.79 615.3 -142.69 609.22 C-143.07 608.42 -143.45 607.62 -143.84 606.8 C-149.1 596.07 -155.48 585.99 -161.87 575.91 C-162.34 575.16 -162.81 574.42 -163.29 573.66 C-171.09 561.24 -180.09 548.84 -191.87 539.91 C-192.6 539.34 -193.33 538.78 -194.08 538.2 C-200.99 533.18 -207.47 530.14 -214.28 536.94 Z M261.48 564.52 C250.65 579.78 240.99 595.93 233.13 612.91 C232.32 614.65 232.32 614.65 231.49 616.42 C228.44 622.49 228.44 622.49 229.13 628.91 C229.91 629.01 230.7 629.1 231.5 629.2 C240.76 630.52 246.64 632.48 252.65 639.9 C254.81 642.84 256.8 645.89 258.73 648.99 C260.15 651.17 260.15 651.17 263.13 652.91 C265.72 653.08 268.27 653.18 270.88 653.22 C280.89 653.68 280.89 653.68 284.69 657.16 C297.03 672.19 302.31 691.72 308.13 709.91 C311.15 709.34 314.06 708.68 316.98 707.72 C326.29 704.75 334.17 702.32 343.88 704.91 C352.85 710.43 355.7 720.13 358.13 729.91 C361.41 744.66 362.14 759.86 363.13 774.91 C363.94 774.77 364.75 774.63 365.58 774.48 C367.19 774.21 367.19 774.21 368.82 773.93 C370.41 773.65 370.41 773.65 372.03 773.38 C379.12 772.3 384.75 772.18 391.13 775.91 C397.92 781.29 400.27 790.05 403.13 797.91 C405.94 794.45 407.94 790.65 409.97 786.7 C410.33 786 410.7 785.29 411.08 784.57 C412.26 782.27 413.45 779.96 414.63 777.66 C415.03 776.87 415.43 776.08 415.85 775.27 C444.6 724.1 444.6 724.1 451.13 667.91 C449.4 664.66 449.4 664.66 446.13 663.91 C432.78 663.27 422.06 669.12 411.13 675.91 C408.94 677.25 406.76 678.58 404.56 679.91 C403.63 680.49 402.7 681.06 401.75 681.66 C398.93 683 397.21 683.25 394.13 682.91 C393.13 681.91 393.13 681.91 392.91 678.69 C392.99 672.48 394.36 666.44 395.5 660.35 C402.61 625.13 402.61 625.13 394.06 591.35 C392.04 588.81 391.27 588.08 388.13 587.6 C375.93 586.96 367.28 594.84 358.69 602.56 C350.3 610.32 342.81 618.87 335.76 627.85 C331.86 632.77 329.11 635.07 323.13 636.91 C322.42 628.93 322.04 620.98 321.8 612.97 C322.11 571.03 322.11 571.03 305.19 534.66 C288.99 525.4 269.49 553.47 261.48 564.52 Z M-25.87 567.91 C-27.11 571.63 -27.07 575.1 -27.06 578.97 C-27.06 579.74 -27.06 580.5 -27.06 581.29 C-27.02 586.29 -26.51 590.88 -25.32 595.75 C-24.62 599.17 -24.75 602.43 -24.87 605.91 C-29.64 606.06 -33.86 606.01 -38.5 604.91 C-47.29 603 -58.01 601.9 -65.87 606.91 C-68.79 609.35 -68.89 610.97 -69.5 614.78 C-69.17 624.4 -62.43 634.01 -56.16 640.85 C-54.44 643.61 -54.65 645.72 -54.87 648.91 C-56.06 649.27 -57.24 649.63 -58.46 650.01 C-73.87 654.28 -73.87 654.28 -85.56 664.41 C-87.06 668.41 -87.37 669.92 -85.87 673.91 C-79.95 684.08 -67.31 689.11 -56.72 693.01 C-53.91 694.04 -52.02 694.76 -49.87 696.91 C-49.72 700.76 -49.93 702.82 -52.48 705.76 C-53.87 707.07 -55.27 708.37 -56.68 709.67 C-60.51 713.57 -63.12 718.21 -65.87 722.91 C-66.51 723.9 -67.15 724.89 -67.81 725.91 C-69.46 730.55 -69.55 735.04 -68.87 739.91 C-66.36 743.87 -63.27 744.66 -58.87 745.91 C-51.49 746.5 -44.47 746.04 -37.27 744.36 C-33.18 743.59 -29.02 743.55 -24.87 743.91 C-24.54 744.24 -24.21 744.57 -23.87 744.91 C-24 749.36 -24.78 753.68 -25.94 757.97 C-26.96 762.34 -27.13 766.68 -27.19 771.16 C-27.2 771.84 -27.22 772.53 -27.24 773.24 C-27.23 778.67 -25.84 781.8 -22.19 785.72 C-18.3 787.72 -14 787.58 -9.88 786.28 C-7.87 785.41 -5.94 784.44 -4 783.41 C-3.31 783.05 -2.61 782.7 -1.89 782.33 C3.26 779.6 7.58 776.29 12 772.47 C15.08 770.2 17.35 769.91 21.13 769.91 C21.5 771.06 21.87 772.22 22.25 773.41 C28.19 793.82 28.19 793.82 42.13 808.91 C46.34 809.65 48.36 809.28 52.19 807.41 C60.48 800.35 63.14 791.98 66.44 781.92 C67.82 777.85 69.47 773.88 71.13 769.91 C77.61 769.91 80.61 772.67 85.43 776.77 C92.78 782.61 101.58 787.59 111.13 786.91 C114.83 786.15 115.81 785.38 117.94 782.22 C121.11 773.58 119.44 763.14 117.57 754.36 C116.93 750.82 116.99 747.49 117.13 743.91 C122 743.72 126.58 743.62 131.31 744.91 C138.73 746.75 148.14 747.47 155.38 744.66 C158.99 742.42 158.99 742.42 161.13 738.91 C162.52 730.23 158.86 723 154.13 715.91 C151.61 712.65 148.92 709.55 146.13 706.53 C141.69 701.7 141.69 701.7 141.13 697.91 C143.35 694.39 147.45 693.46 151.19 692.1 C160.8 688.41 170.49 683.78 177 675.53 C178.54 671.95 178.73 669.78 178.13 665.91 C174.48 658.85 167.16 655.75 160.13 652.91 C156.65 651.83 153.18 650.84 149.64 649.96 C147.13 648.91 147.13 648.91 146.1 647.05 C146.13 644.2 147.02 643.02 148.69 640.72 C149.52 639.54 149.52 639.54 150.37 638.35 C150.95 637.54 151.53 636.74 152.13 635.91 C160.12 624.49 160.12 624.49 161.13 610.91 C160.66 608.7 160.66 608.7 159.13 606.91 C154.08 604.1 149.77 603.45 144 603.6 C143.26 603.6 142.53 603.61 141.77 603.62 C136.04 603.74 130.49 604.42 124.86 605.47 C122.21 605.89 119.8 606.06 117.13 605.91 C116.8 605.58 116.47 605.25 116.13 604.91 C116.25 600.07 116.96 595.33 118.19 590.66 C119.88 583.45 120.53 574.71 117.94 567.66 C116.33 564.8 116.33 564.8 113.69 563.41 C111.02 562.89 109.69 563.17 107.13 563.91 C109.71 597.3 109.71 597.3 113.31 630.6 C118.9 676.2 118.9 676.2 106.13 692.91 C97.81 703.24 88.53 711.56 75.13 713.91 C73.39 714.05 71.64 714.15 69.9 714.22 C68.88 714.27 67.86 714.31 66.81 714.35 C56.13 714.73 45.44 715.05 34.75 715.16 C33.67 715.18 32.58 715.2 31.46 715.22 C16.24 715.29 2.11 710.42 -9.1 699.85 C-21.7 686.06 -24.42 671.15 -23.87 652.91 C-23.5 648.11 -22.95 643.34 -22.38 638.56 C-22.22 637.21 -22.07 635.87 -21.92 634.52 C-21.51 631.01 -21.1 627.5 -20.69 623.98 C-20.11 619.04 -19.54 614.1 -18.97 609.16 C-18.67 606.54 -18.36 603.92 -18.06 601.3 C-16.87 591.1 -15.69 581 -15.81 570.72 C-15.82 569.96 -15.82 569.2 -15.83 568.41 C-15.84 566.58 -15.86 564.74 -15.87 562.91 C-20.98 562.91 -22.27 564.46 -25.87 567.91 Z M-37.87 592.91 C-38.53 593.57 -39.19 594.23 -39.87 594.91 C-38.55 594.91 -37.23 594.91 -35.87 594.91 C-35.87 594.25 -35.87 593.59 -35.87 592.91 C-36.53 592.91 -37.19 592.91 -37.87 592.91 Z M128.13 592.91 C128.13 593.9 128.13 594.89 128.13 595.91 C129.45 595.25 130.77 594.59 132.13 593.91 C130.81 593.58 129.49 593.25 128.13 592.91 Z M171.13 616.91 C170.81 618 170.81 618 170.5 619.11 C168.32 626.23 165.45 632.16 161.42 638.41 C160.78 639.65 160.78 639.65 160.13 640.91 C160.46 641.9 160.79 642.89 161.13 643.91 C166.88 646.26 172.22 646.3 178.11 644.2 C180.06 643.34 181.97 642.43 183.88 641.47 C184.52 641.16 185.17 640.85 185.83 640.52 C188.94 639.01 192.03 637.46 195.13 635.91 C190.73 630.35 186.15 626.44 180.31 622.47 C179.54 621.93 178.76 621.39 177.96 620.83 C174.79 618.21 174.79 618.21 171.13 616.91 Z M-102.87 634.91 C-100.81 637.16 -99.03 638.48 -96.22 639.66 C-95.53 639.96 -94.83 640.26 -94.12 640.56 C-93.4 640.86 -92.68 641.16 -91.94 641.47 C-90.51 642.08 -89.09 642.68 -87.66 643.29 C-86.99 643.57 -86.33 643.84 -85.64 644.13 C-83.87 644.91 -83.87 644.91 -81.66 646.17 C-79.25 647.17 -77.82 646.79 -75.31 646.16 C-74.17 645.89 -74.17 645.89 -73 645.61 C-70.61 644.93 -70.61 644.93 -67.87 642.91 C-69.18 639.37 -70.76 636.38 -72.81 633.22 C-75.83 628.32 -77.52 623.48 -78.87 617.91 C-87.51 617.91 -96.88 629.29 -102.87 634.91 Z M-152.87 644.91 C-154.53 647.22 -156.02 649.61 -157.5 652.03 C-158.93 654.35 -160.38 656.63 -161.87 658.91 C-162.29 659.55 -162.7 660.18 -163.13 660.84 C-166.64 662.99 -171.45 661.95 -175.45 661.7 C-180.8 661.51 -183.66 662.29 -187.87 665.91 C-199.76 679.35 -203.74 700.66 -208.12 717.6 C-208.87 719.91 -208.87 719.91 -210.87 721.91 C-215.62 721.57 -219.45 719.93 -223.75 717.97 C-231.43 714.57 -238.37 712.07 -246.87 712.91 C-252.23 715.7 -254.05 720.42 -255.87 725.91 C-260.28 742.27 -261.2 759.13 -262.18 775.96 C-262.25 777.23 -262.33 778.5 -262.41 779.81 C-262.48 780.96 -262.54 782.11 -262.61 783.29 C-262.87 785.91 -262.87 785.91 -263.87 786.91 C-270.41 786.59 -275.86 785.05 -281.98 782.75 C-286.62 781.4 -289.74 781.33 -294.06 783.53 C-299.15 787.83 -300.33 792.43 -300.87 798.91 C-302 825.23 -289.59 851.12 -277.87 873.91 C-277.47 874.7 -277.06 875.48 -276.65 876.3 C-268.44 892.03 -258.27 906.23 -245.87 918.91 C-245.03 919.82 -244.18 920.73 -243.3 921.67 C-223.03 942.9 -187.7 965.95 -157.37 967.03 C-156.14 966.97 -156.14 966.97 -154.87 966.91 C-154.95 966.2 -155.02 965.5 -155.09 964.77 C-156.02 954.47 -155.97 944.24 -155.87 933.91 C-153.18 933.71 -151.41 933.61 -149.02 934.95 C-141.24 941.9 -134.75 950.38 -129.11 959.15 C-124.78 966.36 -124.78 966.36 -118.09 970.92 C-115.16 970.97 -112.72 970.58 -109.87 969.91 C-108.98 969.8 -108.09 969.69 -107.17 969.58 C-102.62 968.95 -98.55 968 -95.17 964.65 C-89.11 956.47 -87.45 945.63 -85.12 935.94 C-79.77 913.8 -79.77 913.8 -76.87 910.91 C-74.54 910.87 -72.21 910.87 -69.87 910.91 C-69.71 911.51 -69.55 912.11 -69.38 912.73 C-67.04 921.37 -64.61 929.98 -62.19 938.6 C-61.77 940.09 -61.35 941.58 -60.93 943.07 C-59.91 946.68 -58.89 950.3 -57.87 953.91 C-45.11 949.77 -35.58 941.87 -25.87 932.91 C-25.32 932.39 -24.76 931.88 -24.18 931.35 C6.36 902.96 24.87 859.86 26.66 818.21 C26.79 809.3 25.1 803.04 20.88 795.21 C18.75 791.2 17.42 787.25 16.13 782.91 C15.11 783.47 15.11 783.47 14.07 784.04 C11.1 785.68 8.11 787.3 5.13 788.91 C4.27 789.38 3.41 789.86 2.52 790.35 C-5.06 794.39 -13.2 796.89 -21.87 795.91 C-27.23 793.51 -30.54 790.86 -33.87 785.91 C-36.14 779.05 -36.11 772.58 -36 765.41 C-35.99 764.3 -35.98 763.19 -35.97 762.05 C-35.95 759.33 -35.92 756.62 -35.87 753.91 C-36.87 754.07 -37.87 754.23 -38.89 754.39 C-50.06 755.97 -62.98 756.41 -72.65 749.67 C-75.89 746.64 -77.67 743.46 -78.25 739.1 C-78.51 726.39 -73.83 717.73 -66.64 707.5 C-65.17 705.34 -64.01 703.26 -62.87 700.91 C-63.38 700.64 -63.88 700.38 -64.4 700.1 C-83.66 689.85 -83.66 689.85 -88.87 683.91 C-89.47 683.23 -90.06 682.56 -90.67 681.86 C-94.42 677.01 -95.8 672.91 -95.48 666.77 C-94.38 661.6 -91.73 657.3 -88.87 652.91 C-121.4 635.72 -121.4 635.72 -152.87 644.91 Z M181.13 652.91 C182.35 655.47 183.62 657.62 185.25 659.97 C187.97 664.77 187.98 669.55 187.13 674.91 C184.04 683.86 177.63 689.22 169.38 693.34 C164.67 695.62 159.91 697.79 155.13 699.91 C155.13 703.99 156.77 705.25 159.31 708.41 C167.09 718.35 171.12 728.21 170.13 740.91 C168.15 746.85 164.21 750.32 158.69 753.16 C153.07 754.8 147.45 755.04 141.63 755.03 C139.75 755.04 139.75 755.04 137.84 755.04 C134.17 754.91 130.75 754.5 127.13 753.91 C127.37 755.45 127.37 755.45 127.63 757.03 C128.91 767.48 129.48 778.77 124.31 788.22 C120.71 792.65 118.18 795 112.44 795.78 C98.78 796.55 87.51 789.69 76.13 782.91 C75.83 783.7 75.54 784.48 75.24 785.29 C73.02 791.21 70.7 796.78 67.81 802.41 C58.82 821.96 70.23 852.72 77.18 871.8 C87.01 897.16 101.66 920.72 123.13 937.91 C124.02 938.63 124.91 939.35 125.83 940.09 C136.95 949.27 136.95 949.27 150.13 953.91 C150.56 952.33 150.56 952.33 151 950.71 C152.07 946.78 153.15 942.84 154.23 938.91 C154.7 937.21 155.16 935.52 155.63 933.82 C156.29 931.37 156.97 928.92 157.64 926.47 C157.85 925.72 158.05 924.96 158.26 924.19 C159.54 919.57 161.01 915.22 163.13 910.91 C165.31 909.97 165.31 909.97 167.13 909.91 C171.34 914.31 172.55 918.8 174.06 924.53 C174.32 925.46 174.57 926.38 174.84 927.33 C176.1 931.92 177.29 936.53 178.41 941.16 C181.85 956.57 181.85 956.57 192.13 967.91 C195.4 969 198.72 969.41 202.13 969.91 C203.45 970.26 203.45 970.26 204.8 970.63 C208.2 971.22 209.9 971.22 213.13 969.91 C217.43 965.58 220.49 960.15 223.73 955.01 C226.15 951.35 229.09 948.24 232.11 945.06 C234.67 942.33 236.96 939.39 239.23 936.4 C241.99 934.22 244.69 934.21 248.13 933.91 C248.25 944.96 247.96 955.89 247.13 966.91 C280.89 965.3 312.45 943.41 336.13 920.91 C337.26 919.89 337.26 919.89 338.42 918.85 C350.31 907.75 359.26 893.05 367.13 878.91 C367.56 878.13 368 877.35 368.45 876.55 C381.28 853.47 398.44 819.32 392.13 791.91 C390.76 788.24 388.87 785.61 386 782.91 C378.37 780.26 370.31 783.6 363.01 786.07 C360.13 786.91 360.13 786.91 356.13 786.91 C353.5 777.21 353.19 767.26 352.52 757.28 C351.4 738.11 351.4 738.11 345.13 720.16 C344.63 719.19 344.14 718.23 343.63 717.24 C342.18 714.66 342.18 714.66 339.13 712.91 C333.3 712.49 328.68 713.31 323.19 715.16 C322.49 715.38 321.8 715.61 321.08 715.84 C316.57 717.33 312.25 719.03 308.02 721.21 C305.65 722.08 303.63 721.95 301.13 721.91 C300.69 720.32 300.26 718.73 299.82 717.14 C299.55 716.13 299.27 715.12 298.99 714.09 C298.44 712.06 297.89 710.04 297.35 708.01 C291.2 683.92 291.2 683.92 277.13 663.91 C272.73 661.49 268.66 661.85 263.81 662.28 C263.07 662.34 262.33 662.4 261.57 662.45 C259.75 662.6 257.94 662.75 256.13 662.91 C255.42 661.79 254.72 660.68 254 659.53 C253.54 658.81 253.09 658.08 252.61 657.33 C251.6 655.68 250.62 654.01 249.67 652.33 C246.08 646.01 243.08 641.79 236.38 638.6 C217.8 634.67 197.13 644.4 181.13 652.91 Z M52.13 817.91 C49.57 817.98 47.05 818 44.5 817.97 C43.79 817.97 43.09 817.96 42.36 817.96 C40.61 817.94 38.87 817.93 37.13 817.91 C36.84 819.34 36.55 820.77 36.27 822.2 C36.08 823.12 35.9 824.03 35.71 824.98 C35.33 826.87 34.96 828.76 34.59 830.64 C25.09 878.94 7.07 923.47 -35.09 952.07 C-37.95 954 -40.84 955.88 -43.76 957.72 C-48.27 960.58 -51.61 962.88 -53.87 967.91 C-54.33 975.89 -53.07 983.59 -51.87 991.47 C-51.68 992.77 -51.49 994.06 -51.3 995.39 C-50.83 998.57 -50.35 1001.74 -49.87 1004.91 C-46.68 1001.01 -44.19 997.03 -41.81 992.6 C-31.47 973.79 -15.34 945.1 3.13 933.91 C5.88 933.72 5.88 933.72 8.13 933.91 C10.4 973.5 -1.82 1014.54 -15.82 1051.08 C-16.91 1054 -17.91 1056.95 -18.87 1059.91 C-12.42 1060.87 -6.14 1061.05 0.37 1061.04 C1.47 1061.04 2.57 1061.04 3.71 1061.04 C7.32 1061.05 10.94 1061.04 14.56 1061.04 C17.09 1061.04 19.61 1061.04 22.14 1061.04 C27.42 1061.05 32.71 1061.04 38 1061.04 C44.09 1061.03 50.18 1061.03 56.28 1061.04 C62.16 1061.05 68.05 1061.04 73.93 1061.04 C76.42 1061.04 78.92 1061.04 81.41 1061.04 C84.9 1061.05 88.39 1061.04 91.88 1061.04 C93.42 1061.04 93.42 1061.04 94.98 1061.04 C100.46 1061.03 105.71 1060.72 111.13 1059.91 C110.86 1059.27 110.6 1058.63 110.33 1057.97 C95.36 1020.9 80.79 976.42 84.13 935.91 C84.46 935.25 84.79 934.59 85.13 933.91 C90.45 934.23 93.6 937.22 97.13 940.91 C113.53 960.29 128 981.62 140.13 1003.91 C140.79 1003.91 141.45 1003.91 142.13 1003.91 C143.91 994.3 145.43 984.83 145.5 975.03 C145.51 974.29 145.53 973.55 145.54 972.79 C145.5 968.29 145.02 965.38 142.13 961.91 C139.93 960.31 137.82 958.91 135.5 957.53 C134.23 956.74 132.96 955.95 131.69 955.16 C131.07 954.77 130.46 954.39 129.82 953.99 C121.47 948.65 114.32 941.68 107.13 934.91 C105.98 933.86 105.98 933.86 104.82 932.8 C72.74 902.43 62.21 858.87 55.13 816.91 C53.9 816.83 53.9 816.83 52.13 817.91 Z M166.13 930.91 C164.07 936.14 162.41 941.29 161.19 946.79 C161.02 947.52 160.86 948.25 160.69 949 C160.16 951.34 159.64 953.69 159.13 956.03 C158.95 956.84 158.77 957.64 158.59 958.47 C154.56 976.79 152.05 994.89 150.86 1013.61 C150.17 1023.66 150.17 1023.66 148.13 1027.91 C147.14 1028.24 146.15 1028.57 145.13 1028.91 C141.96 1026.02 140.07 1023.27 138.16 1019.45 C137.6 1018.35 137.03 1017.25 136.46 1016.12 C136.16 1015.54 135.86 1014.96 135.56 1014.35 C129.65 1002.8 123.1 991.81 115.88 981.03 C115.47 980.42 115.06 979.82 114.65 979.19 C110.03 972.28 105.2 965.57 100.08 959.03 C99.6 958.41 99.12 957.8 98.63 957.17 C97.49 955.73 96.31 954.31 95.13 952.91 C94.8 952.91 94.47 952.91 94.13 952.91 C93.77 961.86 95.09 970.38 96.63 979.16 C96.76 979.92 96.89 980.68 97.02 981.47 C101.01 1004.31 106.54 1026.71 116.13 1047.91 C116.62 1049 117.11 1050.09 117.62 1051.21 C123.53 1064.24 129.55 1077.23 136.11 1089.94 C136.84 1091.36 137.57 1092.79 138.3 1094.21 C149.09 1118.02 149.09 1118.02 167.13 1134.91 C207.76 1095.11 235.98 1013.16 238.23 958.24 C238.25 956.46 238.2 954.69 238.13 952.91 C229.6 961.25 222.67 970.66 216.13 980.6 C215.43 981.65 214.74 982.7 214.02 983.78 C208.65 991.96 203.69 1000.26 199.13 1008.91 C198.68 1009.74 198.24 1010.57 197.79 1011.43 C194.88 1016.91 191.99 1022.4 189.13 1027.91 C187.48 1027.91 185.83 1027.91 184.13 1027.91 C182.31 1023.96 181.76 1020.54 181.45 1016.22 C181.35 1014.88 181.24 1013.55 181.14 1012.21 C181.09 1011.51 181.03 1010.81 180.98 1010.09 C178.92 983.16 173.55 957.09 167.13 930.91 C166.8 930.91 166.47 930.91 166.13 930.91 Z M-74.87 931.91 C-81.04 954.66 -85.14 977.01 -87.71 1000.47 C-87.84 1001.7 -87.98 1002.93 -88.11 1004.19 C-88.36 1006.52 -88.61 1008.84 -88.84 1011.17 C-89.4 1016.64 -90.13 1021.69 -91.87 1026.91 C-94.35 1027.4 -94.35 1027.4 -96.87 1027.91 C-97.19 1027.34 -97.5 1026.76 -97.82 1026.17 C-100.4 1021.43 -102.99 1016.68 -105.58 1011.94 C-107.57 1008.3 -109.55 1004.66 -111.51 1001 C-120.82 983.77 -132.07 967.74 -144.87 952.91 C-145.2 952.91 -145.53 952.91 -145.87 952.91 C-144.4 993.44 -131.88 1032.43 -114.87 1068.91 C-114.04 1070.73 -113.21 1072.56 -112.38 1074.39 C-102.54 1095.78 -90.83 1116.64 -75.87 1134.91 C-70.46 1134.06 -68.09 1130.02 -64.87 1125.91 C-62.9 1123.21 -61.09 1120.43 -59.31 1117.6 C-58.81 1116.79 -58.3 1115.99 -57.79 1115.16 C-50.8 1103.78 -44.83 1091.85 -38.87 1079.91 C-38.36 1078.89 -37.86 1077.87 -37.33 1076.83 C-30.35 1062.82 -24.26 1048.6 -18.87 1033.91 C-18.4 1032.64 -18.4 1032.64 -17.92 1031.34 C-10.86 1012.11 -6.05 991.9 -2.94 971.66 C-2.76 970.53 -2.76 970.53 -2.58 969.37 C-1.82 963.87 -1.76 958.45 -1.87 952.91 C-6.54 956.2 -9.39 960.07 -12.56 964.72 C-13.35 965.85 -13.35 965.85 -14.15 967.01 C-15.73 969.3 -17.3 971.61 -18.87 973.91 C-19.75 975.17 -20.62 976.43 -21.49 977.69 C-32.46 993.71 -41.6 1010.87 -50.87 1027.91 C-52.52 1027.91 -54.17 1027.91 -55.87 1027.91 C-57.68 1023.97 -58.24 1020.57 -58.55 1016.26 C-58.65 1014.92 -58.76 1013.59 -58.86 1012.26 C-58.91 1011.56 -58.97 1010.86 -59.02 1010.14 C-61.05 983.62 -65.42 957.47 -72.87 931.91 C-73.53 931.91 -74.19 931.91 -74.87 931.91 Z M-218.87 953.91 C-210.23 986.82 -190.77 1012.19 -161.42 1029.35 C-154.16 1033.46 -146.59 1036.77 -138.87 1039.91 C-137.66 1036.27 -138.22 1035.06 -139.35 1031.45 C-139.69 1030.35 -140.03 1029.24 -140.38 1028.11 C-140.75 1026.93 -141.12 1025.75 -141.5 1024.53 C-144.43 1014.99 -147.1 1005.48 -149.15 995.71 C-150.98 987.38 -153.45 980.74 -160.87 975.91 C-163.78 974.82 -166.72 974.13 -169.75 973.47 C-184.27 969.93 -196.9 964.65 -210.05 957.51 C-210.9 957.05 -211.76 956.58 -212.65 956.1 C-213.42 955.68 -214.18 955.26 -214.97 954.82 C-216.82 953.76 -216.82 953.76 -218.87 953.91 Z M303.35 957.06 C288.63 965.09 273.29 971.4 256.9 975.1 C251.91 976.32 249.22 977.8 246.13 981.91 C242.62 988.77 240.97 996.12 239.31 1003.6 C236.49 1015.89 232.96 1027.9 229.13 1039.91 C235.01 1038.09 240.52 1035.96 246 1033.16 C246.69 1032.81 247.38 1032.46 248.09 1032.1 C257.92 1027.03 266.64 1020.99 275.13 1013.91 C275.79 1013.39 276.46 1012.87 277.14 1012.34 C291.07 1001.07 299.98 984.66 306.63 968.35 C306.98 967.49 307.33 966.63 307.69 965.75 C308.17 964.53 308.17 964.53 308.66 963.28 C309.08 962.2 309.08 962.2 309.52 961.09 C310.21 958.62 310.23 956.46 310.13 953.91 C307.7 953.91 305.45 955.9 303.35 957.06 Z M187.13 976.91 C187.73 986.31 188.8 995.58 190.13 1004.91 C194.27 1001.13 196.63 996.17 199.38 991.35 C199.94 990.37 200.51 989.4 201.09 988.4 C201.63 987.47 202.16 986.55 202.7 985.59 C203.44 984.32 203.44 984.32 204.18 983.02 C204.65 981.97 204.65 981.97 205.13 980.91 C204.8 980.25 204.47 979.59 204.13 978.91 C201.25 978.43 198.45 978.07 195.56 977.78 C194.76 977.7 193.95 977.61 193.12 977.52 C191.12 977.31 189.12 977.11 187.13 976.91 Z M-104.44 977.78 C-105.48 977.9 -105.48 977.9 -106.55 978.02 C-108.34 978.25 -110.11 978.57 -111.87 978.91 C-112.2 979.57 -112.53 980.23 -112.87 980.91 C-111.78 983.38 -111.78 983.38 -110.13 986.13 C-109.54 987.17 -108.95 988.2 -108.34 989.26 C-107.71 990.34 -107.08 991.42 -106.44 992.53 C-105.81 993.62 -105.19 994.71 -104.54 995.83 C-103 998.53 -101.44 1001.22 -99.87 1003.91 C-99.21 1003.91 -98.55 1003.91 -97.87 1003.91 C-97.37 1000.72 -96.87 997.53 -96.37 994.35 C-96.23 993.45 -96.09 992.55 -95.94 991.63 C-95.18 986.66 -94.71 981.94 -94.87 976.91 C-98.09 976.91 -101.25 977.39 -104.44 977.78 Z " fill="#000000" transform="translate(619.874755859375,76.092041015625)"/>
<path d="M0 0 C7.11 6.12 11.16 12 11.96 21.55 C12.05 25.23 12.05 28.89 12 32.56 C12 33.8 12.01 35.03 12.01 36.3 C11.96 44.47 11.16 52.28 9.69 60.31 C10.32 60.16 10.95 60 11.59 59.85 C18.12 58.32 24.58 58.06 31.25 58 C32.12 57.98 33 57.97 33.9 57.95 C42.47 57.95 50.86 59.45 57.29 65.5 C62.88 72.71 62.88 82.93 62.88 91.62 C62.87 92.6 62.87 93.57 62.87 94.57 C62.71 115.26 62.71 115.26 59.69 121.31 C61.59 120.83 61.59 120.83 63.53 120.33 C68.79 119.16 73.82 119.02 79.19 119.06 C80.07 119.05 80.96 119.05 81.87 119.04 C92.52 119.07 101.28 120.91 109 128.62 C113.36 135.58 114.27 141.95 114.25 150 C114.25 151.5 114.25 151.5 114.24 153.03 C113.99 163.72 111.32 173.32 107.69 183.31 C107.44 184.02 107.19 184.72 106.93 185.45 C104.24 192.83 101.16 200.47 94.69 205.31 C92.15 206.2 90.41 206.31 87.69 206.31 C84.35 201.91 84.35 198.03 84.54 192.72 C84.56 191.03 84.59 189.35 84.62 187.66 C84.68 185.01 84.75 182.37 84.82 179.73 C84.89 177.16 84.93 174.6 84.97 172.04 C85 171.25 85.03 170.47 85.06 169.66 C85.13 164.4 84.2 161.47 80.69 157.31 C77.56 155.18 77.56 155.18 74 153.56 C72.84 152.99 71.68 152.42 70.49 151.83 C62.46 148.38 53.87 147.81 45.27 147.1 C44.46 147.03 43.65 146.95 42.82 146.88 C42.1 146.81 41.37 146.75 40.63 146.69 C38.69 146.31 38.69 146.31 35.69 144.31 C34.55 140.52 34.48 136.66 34.29 132.72 C34.22 131.44 34.16 130.16 34.08 128.84 C33.94 126.19 33.82 123.53 33.7 120.88 C33.21 112.15 31.64 104.53 28.69 96.31 C28.36 95.32 28.03 94.33 27.69 93.31 C25.52 92.21 25.52 92.21 22.69 91.31 C21.51 90.82 20.34 90.32 19.12 89.81 C11.13 86.84 2.53 86.13 -5.94 85.85 C-9.17 85.12 -10.23 83.88 -12.31 81.31 C-13.05 78.33 -13.05 78.33 -13.4 74.85 C-13.55 73.57 -13.69 72.3 -13.84 70.98 C-13.98 69.63 -14.12 68.29 -14.25 66.94 C-15.44 55.13 -16.83 42.98 -24.31 33.31 C-24.31 32.65 -24.31 31.99 -24.31 31.31 C-24.85 31.04 -25.38 30.78 -25.94 30.5 C-27.65 29.64 -29.34 28.75 -31.02 27.83 C-34.49 26.23 -37.56 25.49 -41.31 24.81 C-42.63 24.56 -43.95 24.31 -45.27 24.06 C-47.28 23.68 -49.3 23.31 -51.32 22.95 C-53.24 22.61 -55.15 22.24 -57.06 21.88 C-58.19 21.67 -59.32 21.47 -60.48 21.25 C-63.72 20.18 -64.71 19.28 -66.31 16.31 C-66.31 12.92 -65.45 11.49 -63.38 8.81 C-48.01 -3.73 -18.04 -9.19 0 0 Z M-48.31 11.31 C-48.31 11.97 -48.31 12.63 -48.31 13.31 C-47.03 13.55 -45.75 13.8 -44.44 14.05 C-42.73 14.38 -41.02 14.72 -39.31 15.06 C-38.47 15.22 -37.63 15.38 -36.77 15.54 C-26.95 17.52 -20.05 20.92 -14.31 29.31 C-8.97 38.2 -6.96 47.33 -5.17 57.42 C-5.03 58.22 -4.88 59.01 -4.74 59.84 C-4.44 61.56 -4.18 63.28 -3.94 65.01 C-3.29 69.1 -2.88 71.64 -0.16 74.85 C3.26 76.61 6.49 77.25 10.25 77.75 C19.66 79.27 29.55 81.45 35.69 89.31 C36.74 90.64 36.74 90.64 37.81 92 C42.91 101.01 43.31 110.62 43.86 120.74 C44.22 126.22 44.51 130.64 47.69 135.31 C50.53 137.21 51.77 137.68 55 138.24 C55.85 138.4 56.69 138.55 57.56 138.71 C58.44 138.87 59.33 139.02 60.25 139.19 C70.64 141.17 81.09 143.35 88.69 151.31 C92.42 157.19 94.68 162.91 95 169.86 C95.07 171.13 95.07 171.13 95.13 172.42 C95.17 173.29 95.21 174.16 95.25 175.06 C95.31 176.39 95.31 176.39 95.38 177.75 C95.49 179.94 95.59 182.13 95.69 184.31 C98.48 181.52 99.14 178.2 100.25 174.5 C100.47 173.79 100.69 173.08 100.92 172.34 C103.15 165.06 103.9 158.48 103.94 150.88 C103.96 149.95 103.98 149.02 104 148.06 C104.03 142.77 103.97 138.69 100.69 134.31 C94.83 128.92 89.05 128.62 81.38 128.88 C79.92 128.88 79.92 128.88 78.44 128.89 C72.54 128.99 66.96 129.66 61.19 130.88 C57.32 131.55 53.61 131.44 49.69 131.31 C49.54 125.05 50.07 119.4 51.19 113.25 C52.5 105.3 53.02 97.49 53.06 89.44 C53.08 88.42 53.09 87.41 53.1 86.36 C53.07 81.02 53 76.74 49.69 72.31 C43.96 67.85 39.02 67.74 31.94 67.94 C30.96 67.95 29.98 67.96 28.97 67.98 C23.18 68.1 17.68 68.57 12.03 69.87 C7.94 70.65 3.83 70.47 -0.31 70.31 C-1.36 64.98 -1.02 60.81 0.12 55.5 C1.62 47.58 2.06 39.8 2.12 31.75 C2.15 30.66 2.17 29.56 2.19 28.44 C2.18 21.66 1.34 16.13 -2.31 10.31 C-12.79 1.25 -36.68 6.17 -48.31 11.31 Z " fill="#000000" transform="translate(856.3125,767.6875)"/>
<path d="M0 0 C4.71 3.43 4.71 3.43 6 6 C6.26 10.05 6.3 11.54 4 15 C1.57 15.65 -0.71 16.12 -3.19 16.5 C-4.64 16.75 -6.09 17 -7.54 17.25 C-9.02 17.5 -10.51 17.75 -12 18 C-14.71 18.46 -17.42 18.94 -20.12 19.44 C-21.3 19.64 -22.48 19.85 -23.7 20.06 C-29.67 21.76 -33.5 24.94 -37 30 C-42.71 40.41 -44.34 52.07 -45.48 63.73 C-45.56 64.49 -45.64 65.26 -45.72 66.05 C-45.86 67.52 -45.99 68.99 -46.09 70.47 C-46.38 73.56 -46.86 75.77 -48.5 78.42 C-52.21 80.77 -55.75 80.76 -60.06 81 C-70.32 81.83 -81.47 83.55 -88.55 91.81 C-95.44 102.23 -94.14 117.28 -93.84 129.24 C-94.01 133.29 -94.62 136.21 -96 140 C-98.41 141.2 -100.31 141.32 -102.99 141.58 C-117.24 143.07 -129.48 144.71 -141.51 153.08 C-147.34 160.59 -144.83 172.41 -144.31 181.31 C-144.19 183.44 -144.09 185.57 -144 187.7 C-143.93 188.95 -143.86 190.21 -143.78 191.51 C-144.02 195.37 -145.05 197.69 -147 201 C-151.08 200.76 -153.38 200.54 -156.52 197.83 C-169.1 183.45 -174.72 158.77 -173.88 140.19 C-172.99 132.1 -171.18 125.61 -165.06 120 C-157.16 113.77 -148.82 113.84 -139.12 113.88 C-138.17 113.87 -137.21 113.87 -136.23 113.86 C-130.73 113.87 -125.44 114.19 -120 115 C-120.14 114.21 -120.29 113.41 -120.44 112.6 C-122.95 96.81 -125.55 76.71 -118 62 C-114.47 57.35 -110.17 54.7 -104.45 53.43 C-99.89 52.86 -95.4 52.81 -90.81 52.81 C-89.88 52.81 -88.95 52.81 -87.99 52.81 C-81.5 52.86 -75.31 53.35 -69 55 C-69.13 54.26 -69.27 53.52 -69.4 52.76 C-72.31 36.08 -75.14 16.66 -66.54 1.16 C-52.85 -18.01 -17.51 -8.72 0 0 Z M-56 4 C-62.02 11.07 -61.19 18.33 -61.19 27.19 C-61.19 29.07 -61.19 29.07 -61.19 31 C-61.14 39.34 -60.66 47.43 -59.44 55.68 C-59.02 58.83 -58.92 61.82 -59 65 C-63.41 66.26 -66.51 65.61 -70.94 64.56 C-77.84 63.1 -84.57 62.66 -91.62 62.62 C-92.56 62.61 -93.5 62.6 -94.46 62.58 C-100.59 62.62 -104.95 63.48 -109.81 67.5 C-115.51 74.7 -112.54 92.47 -111.7 101.07 C-111.14 105.36 -110.43 109.6 -109.66 113.86 C-109 117.6 -108.8 121.19 -109 125 C-110 126 -110 126 -113.38 126.19 C-116.61 126.16 -119.48 125.72 -122.62 125 C-128.47 123.87 -134.25 123.7 -140.19 123.62 C-141.13 123.6 -142.06 123.57 -143.03 123.55 C-149.97 123.53 -155.41 124.78 -160.67 129.5 C-164.9 134.28 -164.16 143.1 -163.94 149.06 C-163.24 157.29 -161.99 171.01 -156 177 C-155.96 176.43 -155.91 175.86 -155.86 175.28 C-155.65 172.66 -155.42 170.05 -155.19 167.44 C-155.12 166.54 -155.05 165.65 -154.97 164.72 C-154.12 155.36 -151.29 148.25 -144 142 C-135.89 136.79 -127.28 134.93 -117.89 133.47 C-112.93 132.64 -109.56 131.84 -106 128 C-104.33 124.49 -103.71 121.51 -103.51 117.65 C-103.41 116.12 -103.41 116.12 -103.31 114.57 C-103.19 112.46 -103.07 110.36 -102.96 108.25 C-102.33 98.78 -100.23 87.8 -93 81 C-85.07 75.41 -76.55 73.17 -67.12 71.48 C-66.24 71.32 -65.35 71.16 -64.44 71 C-63.26 70.81 -63.26 70.81 -62.06 70.62 C-59.51 69.85 -58.66 69.08 -57 67 C-56.21 64.32 -56.21 64.32 -55.79 61.26 C-55.6 60.11 -55.41 58.97 -55.21 57.79 C-55.02 56.58 -54.82 55.37 -54.62 54.12 C-50.21 28.65 -50.21 28.65 -41 19 C-40.47 18.45 -39.95 17.89 -39.4 17.32 C-31.88 10.67 -20.58 9.51 -11 8 C-11.88 5.67 -11.88 5.67 -14.88 4.96 C-27.41 1.47 -43.93 -3.02 -56 4 Z " fill="#000000" transform="translate(535,773)"/>
<path d="M0 0 C8.38 4.73 12.2 11.21 15.21 20.25 C16.12 30.05 14.62 38.19 8.53 46.06 C3.85 51.11 -2.95 55 -9.86 55.45 C-21.12 55.6 -27.46 54.37 -35.73 46.55 C-41.38 40.22 -44.22 32.74 -43.79 24.25 C-42.43 15.89 -38.43 8.89 -32.47 2.94 C-22.12 -3.56 -11.45 -5.35 0 0 Z " fill="#000000" transform="translate(513.78515625,201.75)"/>
<path d="M0 0 C5.67 4.19 8.86 10.22 11.04 16.82 C12.4 26.36 11.05 33.8 5.75 41.75 C1.45 47.34 -4.33 50.61 -10.96 52.82 C-20.22 53.66 -27.18 53.02 -34.96 47.82 C-35.55 47.45 -36.13 47.08 -36.73 46.69 C-41.99 42.87 -44.95 36.86 -46.96 30.82 C-48.01 20.87 -46.9 13.03 -40.96 4.82 C-29.45 -7.1 -14.07 -8.45 0 0 Z " fill="#000000" transform="translate(849.96484375,204.1796875)"/>
<path d="M0 0 C5.27 4.58 8.62 10.13 9.15 17.16 C9.43 25.9 9.4 33.23 3.88 40.5 C-0.32 44.5 -3.17 45.87 -9.03 45.78 C-13.82 45.14 -16.52 42.27 -19.38 38.62 C-24 30.37 -24.42 21.51 -22.44 12.32 C-20.5 6.36 -18.43 2.88 -13.12 -0.5 C-8.3 -2.11 -4.63 -2.22 0 0 Z M-7.12 8.5 C-11.13 12.2 -12.81 14.25 -13.33 19.61 C-13.44 25.03 -12.83 28.76 -10.12 33.5 C-8.09 34.98 -8.09 34.98 -6.12 35.5 C-0.7 29.03 -0.5 23.75 -1.12 15.5 C-2.21 11.89 -2.21 11.89 -4.12 9.5 C-5.12 9.17 -6.11 8.84 -7.12 8.5 Z " fill="#000000" transform="translate(623.125,330.5)"/>
<path d="M0 0 C5.22 1.81 7.44 4.14 10 9 C13.68 18.01 14.63 27.67 11.19 36.92 C8.68 41.31 4.5 44.75 0 47 C-5.01 47.38 -8 47.13 -12 44 C-17.72 37.78 -19.5 32.3 -19.38 24.06 C-19.39 23.29 -19.4 22.52 -19.41 21.72 C-19.37 14.77 -17.69 9.4 -12.94 4.12 C-12.43 3.55 -11.92 2.98 -11.4 2.38 C-8.17 -0.81 -4.27 -0.43 0 0 Z M-7.19 12.12 C-10.41 17.3 -9.73 24.18 -9 30 C-7.73 33.34 -7.73 33.34 -6 36 C-3.92 36.96 -3.92 36.96 -2 37 C2.3 30.9 3.81 26.53 3 19 C1.94 15.48 0.63 12.63 -2 10 C-5.15 9.65 -5.15 9.65 -7.19 12.12 Z " fill="#000000" transform="translate(719,328)"/>
</svg>
