<?xml version="1.0" encoding="iso-8859-1"?>
<!-- Generator: Adobe Illustrator 26.0.3, SVG Export Plug-In . SVG Version: 6.00 Build 0)  -->
<svg version="1.1" id="Layer_30" xmlns="http://www.w3.org/2000/svg" xmlns:xlink="http://www.w3.org/1999/xlink" x="0px" y="0px"
	 width="596.133px" height="300.188px" viewBox="0 0 596.133 300.188" enable-background="new 0 0 596.133 300.188"
	 xml:space="preserve">
<path d="M595.031,211.732c-2.667-9.751-6.978-18.772-13.477-26.523c-7.27-8.67-16.095-14.837-28.057-14.705
	c-2.359,0.026-3.698-1.033-4.792-2.983c-2.377-4.236-4.742-8.486-7.579-12.446c-4.162-5.81-9.211-10.633-15.824-13.505
	c-2.108-0.916-3.02-2.328-3.7-4.344c-6.097-18.077-15.145-34.59-26.761-49.686c-23.034-29.932-52.602-51.363-87.131-66.078
	C363.12,2.461,316.593-3.414,268.547,1.828c-31.956,3.487-62.465,12.109-91.411,26.12c-28.384,13.739-53.526,31.889-74.666,55.4
	c-13.268,14.756-24.264,31.032-32.586,49.077c-0.773,1.676-1.225,3.284-3.881,3.184c-11.8-0.443-22.18,3.713-31.758,10.32
	c-12.156,8.385-18.101,20.031-18.389,34.666c-0.053,2.702-0.355,3.99-2.71,5.402c-5.491,3.291-8.175,9.82-10.268,15.546
	c-2.71,7.411-3.523,15.313-2.367,23.128c1.617,10.938,5.655,20.856,14.129,28.425c7.524,6.721,15.994,8.633,25.474,4.477
	c1.234-0.541,2.56-0.981,3.632-1.76c1.712-1.245,2.841-0.681,4.174,0.622c3.38,3.302,6.835,6.53,10.339,9.699
	c4.156,3.759,8.906,6.458,14.274,8.214c14.68,4.8,28.683,2.872,41.645-4.949c4.714-2.844,8.89-3.913,13.932-2.203
	c0.509,0.173,1.046,0.276,1.577,0.365c9.386,1.581,18.732,2.467,28.013-0.756c10.529-3.656,19.624-9.455,27.423-17.428
	c7.579-7.748,12.079-16.868,12.755-27.701c0.815-13.082-1.851-24.999-12.219-34.121c-0.282-0.249-0.419-0.662-0.605-0.967
	c0.388-1.17,1.371-1.712,2.17-2.4c4.406-3.795,9.015-7.346,13.985-10.356c43.947-26.618,91.126-34.411,141.303-23.76
	c15.184,3.223,29.355,9.163,42.03,18.313c8.311,6,15.313,13.219,20.308,22.261c0.975,1.764,1.996,3.494,3.111,5.188
	c1.572,2.388,2.058,4.867,0.225,7.785c-3.866,6.152-6.13,13.045-6.121,20.317c0.014,11.153,4.32,20.235,14.537,25.695
	c1.84,0.983,2.903,2.107,3.504,4.047c1.6,5.165,3.373,10.316,6.43,14.809c8.55,12.566,20.294,19.023,35.72,17.962
	c3.785-0.26,7.567-1.031,10.983-2.625c4.442-2.073,8.115-1.406,12.028,1.366c3.951,2.799,8.28,5.08,12.51,7.469
	c11.438,6.46,23.604,8.869,36.681,6.81c14.675-2.311,26.789-8.843,35.718-20.883c4.345-5.859,7.348-12.347,7.83-19.67
	c0.2-3.046,1.24-5.355,3.032-7.664c4.47-5.757,8.892-11.552,12.013-18.218C596.273,226.151,597.031,219.044,595.031,211.732z
	 M77.845,135.476c4.813-10.153,10.445-19.82,16.993-28.947c20.057-27.955,45.793-49.38,75.918-65.675
	c29.658-16.044,61.325-25.848,94.757-30.044c18.812-2.361,37.676-2.986,56.574-1.408C370.533,13.449,415,28.368,453.77,58.367
	c23.565,18.234,42.04,40.663,54.363,67.943c1.657,3.669,3.075,7.445,4.862,11.803c-8.33,0.44-15.589,2.335-22.601,5.305
	c-1.803,0.764-3.567,2.911-5.412,1.97c-1.449-0.74-2.152-2.971-3.148-4.564C450.589,90.839,406.03,58.894,349.44,43.421
	c-20.17-5.515-40.807-7.999-61.716-7.22c-52.548,1.959-98.556,19.8-136.34,57.057c-13.863,13.669-25.002,29.375-33.584,46.858
	c-0.83,1.691-1.824,2.772-3.623,3.407c-5.522,1.949-10.642,4.68-14.875,8.796c-1.483,1.442-2.377,0.987-3.678-0.201
	c-3.289-3.002-6.69-5.884-10.097-8.752c-1.966-1.655-4.095-3.145-6.452-4.154C77.047,138.343,76.985,137.292,77.845,135.476z
	 M474.597,154.193c-1.552,1.623-2.732,1.511-4.472,0.363c-7.168-4.731-14.951-7.5-23.686-6.726c-2.279,0.202-4.549,0.6-6.791,1.064
	c-1.168,0.242-1.989,0.291-2.735-0.88c-10.165-15.957-25.491-25.312-42.24-32.769c-16.135-7.184-33.106-11.504-50.482-14.368
	c-21.014-3.463-42.175-4.331-63.395-3.072c-26.976,1.601-53.302,6.476-78.403,16.879c-7.494,3.106-14.713,6.768-21.555,11.152
	c-7.433,4.762-14.234,10.258-19.949,17.034c-0.821,0.974-1.436,2.427-3.227,1.449c-9.108-4.973-18.906-5.941-29.567-4.755
	c0.608-2.488,1.82-4.134,2.833-5.845c19.634-33.173,47.452-57.079,82.601-72.557c29.877-13.157,61.252-18.108,93.706-15.976
	c69.133,4.543,131.883,42.403,166.857,99.392c0.494,0.805,0.992,1.61,1.458,2.432C478.414,152.062,478.195,150.433,474.597,154.193z
	 M189.373,216.155c0.016,0.405,0.002,0.81,0.002,1.215c0.3,10.138-3.22,18.718-10.325,25.951
	c-6.149,6.26-13.209,11.024-21.335,14.375c-8.23,3.394-16.589,3.174-25.082,1.66c-2.657-0.474-5.352-0.841-7.94-1.575
	c-4.405-1.251-8.083-0.19-11.785,2.395c-6.633,4.633-14.031,7.574-22.195,7.989c-10.203,0.518-19.583-1.788-27.32-8.917
	c-3.874-3.569-7.653-7.238-11.513-10.822c-3.793-3.522-5.724-3.127-10.485-1.101c-13.071,5.559-18.924,3.317-25.141-5.206
	c-8.672-11.89-11.622-32.266-0.549-46.655c1.633-2.122,3.219-4.284,5.84-5.417c1.863-0.805,2.203-2.573,2.149-4.434
	c-0.119-4.064,0.129-8.096,1.026-12.076c1.339-5.943,4.039-11.131,8.399-15.432c7.963-7.854,17.456-12.637,28.566-13.975
	c6.329-0.762,12.002,1.293,17.12,4.922c4.307,3.054,8.135,6.684,12.014,10.248c0.994,0.913,1.945,1.889,3.02,2.698
	c2.63,1.98,5.132,1.915,7.778-0.12c0.533-0.41,1.002-0.903,1.499-1.359c11.759-10.797,25.664-14.545,41.196-11.897
	c12.136,2.069,19.549,9.798,22.912,21.396c1.273,4.389,1.901,8.972,2.693,13.49c0.572,3.259,1.943,5.859,5.02,7.371
	C185.449,196.044,188.941,205.228,189.373,216.155z M409.75,179.495c-0.067,0.257-0.179,0.506-0.303,0.742
	c-0.046,0.087-0.188,0.123-0.37,0.233c-0.284-0.2-0.685-0.36-0.902-0.655c-11.447-15.542-27.011-25.402-44.69-32.3
	c-15.221-5.939-31.075-9.058-47.332-10.148c-31.355-2.102-61.648,2.68-90.814,14.401c-16.28,6.542-31.316,15.197-44.634,26.711
	c-0.68,0.588-1.225,1.501-2.584,1.302c-0.573-2.812-1.191-5.681-1.737-8.564c-1.308-6.912-4.185-13.073-8.659-18.506
	c-1.905-2.313-1.891-2.371,0.042-4.666c4.562-5.414,9.954-9.891,15.831-13.797c13.066-8.686,27.447-14.427,42.442-18.722
	c18.509-5.302,37.418-8.146,56.637-9.208c25.233-1.395,50.195,0.386,74.86,5.921c16.278,3.653,31.977,8.929,46.527,17.255
	c6.709,3.839,12.949,8.321,18.377,13.867c2.273,2.322,4.283,4.851,6.16,7.507c1.021,1.445,0.835,2.26-0.632,3.236
	C418.71,160.263,412.551,168.683,409.75,179.495z M584.852,230.334c-2.39,4.729-5.515,8.958-8.657,13.181
	c-1.289,1.733-2.541,3.502-3.931,5.151c-1.735,2.058-2.617,4.417-2.674,7.052c-0.244,11.367-6.288,19.559-14.643,26.332
	c-7.656,6.205-18.189,9.41-29.865,9.482c-7.417,0.189-14.659-1.798-21.402-5.475c-5.566-3.035-11.096-6.177-16.396-9.647
	c-4.595-3.008-9.135-3.542-14.198-1.565c-3.26,1.273-6.606,2.321-10.113,2.832c-12.314,1.797-21.499-3.445-28.629-12.908
	c-3.278-4.35-4.936-9.604-6.407-14.795c-1.081-3.81-3.033-6.257-6.848-7.765c-6.705-2.649-11.229-11.075-10.448-18.96
	c0.591-5.967,2.149-11.684,5.916-16.549c1.778-2.296,1.6-4.834,0.824-7.323c-3.834-12.299,2.437-31.668,17.693-39.526
	c9.163-4.719,18.351-4.963,27.47,0.164c2.117,1.19,4.169,2.494,6.259,3.733c4.321,2.56,5.944,2.343,9.597-1.278
	c0.575-0.57,1.126-1.166,1.703-1.734c7.673-7.57,17.005-11.843,27.54-13.481c7.972-1.24,14.921,1.308,20.937,6.551
	c3.502,3.052,6.15,6.793,8.504,10.757c1.792,3.018,3.559,6.05,5.346,9.07c1.937,3.273,4.803,5.019,8.609,5.21
	c0.539,0.027,1.078,0.106,1.616,0.103c9.962-0.061,17.118,5.171,22.952,12.524c4.995,6.295,8.458,13.464,10.76,21.177
	C588.185,218.744,587.739,224.621,584.852,230.334z M554.013,267.15c0.731,0.988,0.693,2.008-0.002,2.986
	c-0.307,0.432-0.676,0.842-1.087,1.174c-3.559,2.871-7.174,5.668-11.36,7.598c-1.59,0.733-3.219,1.37-5.568,1.384
	c-0.995-0.021-2.534-0.236-2.892-2.062c-0.317-1.619,0.749-2.643,2.184-2.858c5.205-0.78,8.933-4.125,12.866-7.139
	c0.953-0.731,1.76-1.691,2.986-1.998C552.272,265.951,553.282,266.162,554.013,267.15z M436.826,229.207
	c1.404,1.948,1.286,3.572-0.159,4.558c-1.313,0.897-2.875,0.575-4.132-1.215c-2.78-3.959-5.488-7.979-6.224-12.94
	c-0.201-1.351-0.198-2.672,0.183-3.987c0.33-1.139,1.04-1.848,2.294-2.021c1.565,0.082,2.576,1.056,2.522,2.536
	C431.118,221.391,433.986,225.266,436.826,229.207z M458.125,261.605c0.868,0.775,1.174,1.845,0.566,2.926
	c-0.656,1.167-1.774,1.899-3.038,1.314c-5.189-2.402-10.056-5.25-12.53-10.808c-0.494-1.109-0.761-2.304-0.406-3.538
	c0.347-1.208,1.197-1.705,1.807-1.722c1.663,0.095,2.388,0.678,2.697,1.646c1.343,4.196,4.582,6.476,8.256,8.37
	C456.424,260.281,457.334,260.898,458.125,261.605z M574.85,231.868c-1.271,4.972-3.214,9.509-6.677,13.235
	c-1.484,1.598-3.144,1.765-4.226,0.61c-1.296-1.383-0.739-2.692,0.338-3.912c2.451-2.773,3.913-6.054,4.935-9.566
	c0.186-0.64,0.383-1.288,0.673-1.885c0.656-1.353,1.702-2.11,3.245-1.607C574.692,229.249,575.009,230.506,574.85,231.868z
	 M530.226,256.873c-3.008,0.711-6.031,1.403-9.168,1.318c-1.339-0.09-2.713-0.022-4.008-0.311c-1.532-0.342-2.826-1.252-2.516-3.077
	c0.27-1.592,1.558-2.149,3.046-1.957c3.958,0.511,7.749-0.358,11.567-1.181c2.983-0.642,4.338-0.146,4.803,1.495
	C534.46,254.955,533.346,256.135,530.226,256.873z M447.765,212.273c-1.097-4.202-1.834-8.438-0.937-12.796
	c0.324-1.575,0.905-2.891,2.773-2.906c1.531-0.012,2.249,1.197,2.23,3.602c-0.005,0.674-0.076,1.347-0.154,2.65
	c-0.16,1.826,0.292,4.206,0.829,6.585c0.235,1.044,0.43,2.125,0.424,3.187c-0.006,1.007-0.627,1.746-1.622,2.105
	c-1.024,0.37-1.892,0.029-2.559-0.701C448.31,213.519,447.928,212.896,447.765,212.273z M486.661,171.259
	c0.195-0.949,0.771-1.715,1.424-2.403c3.038-3.202,6.851-5.199,10.895-6.747c1.797-0.688,3.451,0.427,3.607,2.223
	c0.018,1.068-0.567,1.968-1.585,2.478c-3.846,1.927-7.814,3.628-10.678,7.072c-0.625,0.751-1.672,0.768-2.601,0.184
	C486.647,173.391,486.429,172.394,486.661,171.259z M500.552,269.192c-0.287,1.64-1.55,2.033-3.291,2.002
	c-4.402-0.72-8.871-2.109-13.11-4.188c-1.201-0.589-1.807-1.657-1.224-3.01c0.541-1.255,1.619-1.748,2.951-1.585
	c0.523,0.064,1.048,0.248,1.533,0.466c3.451,1.552,7.133,2.313,10.785,3.178C499.846,266.446,500.866,267.393,500.552,269.192z
	 M562.116,205.261c-0.532-0.754-0.826-1.673-1.247-2.508c-1.265-2.511-2.279-5.174-4.758-6.878c-1.081-0.743-1.59-1.858-0.824-3.155
	c0.843-1.425,2.186-1.483,3.532-1.003c0.73,0.26,1.413,0.788,1.984,1.334c2.791,2.668,4.232,6.183,5.851,9.577
	c0.166,0.348,0.15,0.783,0.205,1.096c-0.115,1.278-0.685,2.125-1.861,2.446C563.865,206.479,562.798,206.231,562.116,205.261z
	 M522.58,168.013c0.49-1.082,1.463-1.513,2.976-1.42c1.228,0.112,2.438,0.953,3.534,1.959c2.528,2.319,4.017,5.34,5.487,8.354
	c0.661,1.357,0.477,2.676-0.898,3.512c-1.633,0.993-2.803,0.131-3.721-1.203c-0.454-0.66-0.796-1.397-1.184-2.102
	c-1.294-2.346-2.454-4.758-5.099-6.02C522.483,170.525,521.985,169.325,522.58,168.013z M514.313,187.453
	c-0.173,1.681-1.452,2.163-2.885,2.256c-0.936,0.061-1.885-0.069-2.461-0.096c-2.548-0.233-4.668-0.027-6.712,0.837
	c-1.439,0.608-2.742,0.36-3.372-1.162c-0.603-1.456,0.04-2.709,1.351-3.424c1.048-0.572,2.221-1.013,3.392-1.241
	c2.667-0.518,5.385-0.367,8.068-0.113C513.319,184.664,514.506,185.583,514.313,187.453z M464.759,178.8
	c-3.092,1.286-6.147,2.577-8.588,5.026c-0.937,0.94-2.24,0.875-3.243-0.137c-0.859-0.866-0.816-1.926-0.345-2.983
	c1.106-2.487,8.554-6.984,11.393-6.866c1.581,0.066,2.452,0.893,2.538,2.317C466.472,177.548,465.821,178.358,464.759,178.8z
	 M428.444,189.128c0.731-3.375,2.253-6.655,4.261-9.683c0.806-1.216,2.177-1.611,3.546-0.726c1.218,0.787,1.324,2.048,0.794,3.218
	c-1.38,3.048-3.065,5.949-3.907,9.242c-0.343,1.338-1.573,1.815-2.911,1.391C428.68,192.078,428.368,190.797,428.444,189.128z
	 M535.029,196.232c1.686-0.896,2.827,0.018,3.702,1.336c1.854,2.795,3.638,5.634,3.873,9.205c-0.036,0.457-0.033,0.998-0.13,1.52
	c-0.216,1.164-0.876,1.978-2.098,2.093c-1.395,0.131-2.468-0.553-2.611-1.923c-0.319-3.056-1.869-5.522-3.364-8.068
	C533.268,198.468,533.567,197.008,535.029,196.232z M473.84,243.422c1.249,1.141,1.648,2.527,0.38,3.858
	c-1.265,1.33-2.723,0.909-3.962-0.104c-2.629-2.149-4.588-4.851-6.085-7.879c-0.42-0.85-0.468-1.807-0.176-2.745
	c0.37-1.189,1.29-1.604,2.126-1.769c1.315,0.174,2.033,0.763,2.425,1.665C469.748,239.208,471.645,241.417,473.84,243.422z
	 M554.848,223.642c-0.621,3.579-1.557,7.226-3.536,10.512c-0.703,1.166-1.862,1.647-3.143,1.059
	c-1.257-0.576-1.824-1.776-1.292-3.036c1.317-3.124,2.092-6.398,3.006-9.639c0.421-1.495,1.547-2.195,3.114-1.838
	C554.436,221.027,554.806,222.155,554.848,223.642z M479.954,202.332c1.327,2.618-1.802,3.717-3.566,4.693
	c-0.968,0.535-1.865,1.199-2.661,1.967c-0.615,0.592-1.087,1.587-2.06,1.526c-1.728-0.109-2.51-1.09-2.539-2.623
	c-0.024-1.26,0.603-2.329,1.482-3.206c1.754-1.747,3.969-2.723,6.252-3.523C478.14,200.719,479.327,201.094,479.954,202.332z
	 M163.178,238.609c0.957,1.438,0.434,3.266-1.592,4.794c-2.785,2.101-5.714,4.002-8.847,5.553c-1.697,0.84-3.51,1.323-6.034,1.349
	c-0.188-0.027-0.996-0.079-1.77-0.266c-1.015-0.245-1.62-1.009-1.732-1.997c-0.138-1.211,0.593-2.005,1.626-2.524
	c0.235-0.118,0.511-0.216,0.769-0.215c5.272,0.008,8.83-3.524,12.767-6.226C160.817,237.394,162.216,237.162,163.178,238.609z
	 M92.597,249.647c0.074,1.56-1.171,2.605-3.659,2.937c-1.463,0.196-2.944,0.255-3.862,0.33c-3.682,0.084-6.733-0.184-9.543-1.744
	c-1.512-0.839-2.755-1.838-2.123-3.803c0.461-1.435,1.992-1.901,4.101-0.873c2.694,1.313,5.474,1.151,8.287,1.077
	c0.938-0.025,1.873-0.181,2.812-0.223C91.172,247.232,92.52,248.022,92.597,249.647z M42.737,174.677
	c-0.192,1.099-0.892,1.938-1.471,2.836c-1.606,2.492-3.106,5.025-3.562,8.031c-0.249,1.637-1.053,2.928-2.883,2.617
	c-1.784-0.303-2.143-1.812-2.031-4.234c0.561-4.016,2.897-8.042,5.914-11.708c0.729-0.886,1.869-1.009,2.932-0.336
	C42.676,172.542,42.939,173.523,42.737,174.677z M136.885,184.722c1.068-1.519,2.45-1.249,3.931-0.604
	c3.944,1.716,6.685,4.863,9.523,7.897c0.458,0.49,0.717,1.13,0.66,1.844c-0.09,1.68-1.848,2.722-3.537,2.085
	c-1.178-0.444-1.948-1.408-2.782-2.268c-1.871-1.929-3.775-3.765-6.181-5.085C136.479,187.483,135.981,186.008,136.885,184.722z
	 M102.123,233.77c-0.42,1.335-1.479,1.821-3.315,1.708c-3.728-0.884-7.879-1.945-10.88-5.402c-0.723-0.833-1.241-1.763-1.148-2.907
	c0.147-1.825,2.289-3.112,3.449-1.834c2.802,3.087,6.484,4.083,10.176,5.282C101.788,231.066,102.622,232.187,102.123,233.77z
	 M73.112,159.162c-0.134,1.085-0.785,1.948-1.937,2.193c-3.802,0.808-7.701,1.217-11.104,3.401c-0.832,0.534-1.869,0.155-2.542-0.65
	c-0.667-0.798-0.711-1.745-0.29-2.659c0.661-1.433,1.906-2.345,3.314-2.796c2.943-0.942,5.926-1.805,8.948-2.442
	C71.467,155.795,73.164,157.316,73.112,159.162z M146.465,168.006c0.623-1.499,1.961-1.793,3.372-1.392
	c0.881,0.25,1.716,0.753,2.492,1.264c2.763,1.821,4.569,4.517,6.371,7.197c0.361,0.536,0.507,1.216,0.65,1.574
	c0.01,1.45-0.308,2.429-1.439,2.956c-1.135,0.529-2.099,0.2-2.891-0.683c-0.356-0.397-0.613-0.88-0.931-1.314
	c-1.821-2.486-3.421-5.157-6.404-6.549C146.48,170.497,145.916,169.327,146.465,168.006z M26.568,220.542
	c0.139,0.651,0.376,1.307,0.368,1.958c-0.017,1.325-0.622,2.35-1.999,2.64c-1.36,0.287-2.416-0.303-2.891-1.575
	c-0.941-2.519-1.483-5.131-1.406-7.842c-0.054-1.905,0.147-3.776,1.279-5.369c0.825-1.161,1.946-1.928,3.437-1.164
	c1.279,0.655,1.61,1.863,1.096,3.082C25.27,215.076,25.983,217.794,26.568,220.542z M57.003,235.096
	c-0.084,1.662-1.624,3.024-3.421,2.663c-4.016-0.806-7.725-2.312-10.312-5.745c-0.975-1.294-1.43-2.673-0.059-3.948
	c1.26-1.172,2.587-0.678,3.555,0.393c2.088,2.309,4.715,3.467,7.677,4.089C55.845,232.842,56.978,233.486,57.003,235.096z
	 M176.448,212.401c0.112,1.197,0.022,2.414,0.022,3.622c-0.179,2.418-0.288,4.833-0.982,7.181c-0.458,1.55-1.215,2.824-3.044,2.573
	c-1.941-0.266-2.198-1.79-1.931-3.366c0.564-3.326,0.772-6.673,0.854-10.036c0.036-1.503,0.617-2.721,2.277-2.775
	C175.44,209.54,176.294,210.748,176.448,212.401z M149.184,226.013c-3.058,3.079-6.514,5.584-10.381,6.413
	c-2.053-0.052-3.227-0.691-3.531-2.212c-0.276-1.38,0.51-2.472,1.834-2.707c2.806-0.498,4.818-2.287,6.988-3.864
	c0.649-0.472,1.324-0.945,2.056-1.257c1.08-0.46,2.148-0.297,2.933,0.64C149.871,223.967,149.955,225.237,149.184,226.013z
	 M103.762,182.214c0.13,1.556-1.273,2.748-3.222,2.9c-0.267,0.021-0.537,0.003-1.083,0.003c-2.503-0.406-5.269-1.102-7.919,0.684
	c-0.829,0.559-1.88,0.064-2.491-0.754c-0.715-0.958-0.674-2.085-0.04-3.035c1.125-1.686,2.851-2.466,4.823-2.491
	c2.281-0.029,4.564,0.142,6.847,0.207C102.348,179.777,103.609,180.391,103.762,182.214z M62.65,220.571
	c0.679,1.077,0.472,2.45-0.763,3.212c-1.365,0.843-2.665,0.38-3.605-0.766c-2.375-2.896-3.709-6.235-3.96-10.167
	c0.067-0.501,0.101-1.181,0.258-1.83c0.246-1.015,0.938-1.658,1.974-1.762c1.199-0.121,2.362,0.381,2.504,1.559
	C59.489,214.377,60.747,217.554,62.65,220.571z M63.891,183.333c0.632,1.325,0.076,2.461-0.998,3.13
	c-1.633,1.016-3.328,1.948-4.842,3.141c-0.695,0.548-1.369,1.156-1.953,1.822c-0.47,0.537-0.744,1.299-1.409,1.641
	c-1.513,0.778-3.153-0.358-3.36-1.906c-0.128-0.959,0.188-1.84,0.716-2.652c2.056-3.163,5.131-5.026,8.476-6.459
	C61.87,181.473,63.189,181.861,63.891,183.333z M125.476,162.126c0.147,1.687-0.789,2.685-3.072,2.746
	c-2.111,0.056-3.927,0.732-5.667,1.804c-0.571,0.351-1.139,0.714-1.739,1.009c-1.252,0.615-2.409,0.402-3.203-0.736
	c-0.801-1.148-0.579-2.344,0.443-3.26c2.792-2.5,6.101-3.848,9.916-4.219C124.048,159.467,125.331,160.464,125.476,162.126z
	 M122.983,244.793c0.441,1.348-0.077,2.37-1.237,3.029c-1.534,0.871-3.281,1.017-4.343,1.221c-2.253,0.179-3.718-0.218-4.077-1.943
	c-0.371-1.783,0.856-2.657,2.459-2.999c1.56-0.333,3.122-0.709,4.704-0.874C121.605,243.111,122.59,243.592,122.983,244.793z"/>
<g>
</g>
<g>
</g>
<g>
</g>
<g>
</g>
<g>
</g>
<g>
</g>
</svg>
