<?xml version="1.0" encoding="UTF-8"?>
<!-- Generator: visioncortex VTracer 0.6.3 -->
<svg version="1.1" xmlns="http://www.w3.org/2000/svg" width="1280" height="1280">
<path d="M0 0 C-1.81 5.71 -1.81 5.71 -3.5 8.31 C-5.57 12.03 -6.23 15.85 -7 20 C-6.39 19.73 -5.79 19.47 -5.16 19.2 C7.69 13.78 21.45 11.66 35 16 C35 20 35 20 32.5 22.75 C31.67 23.49 30.85 24.24 30 25 C31.2 24.53 32.39 24.05 33.62 23.56 C49.84 17.13 72.39 19.95 89 24 C89.68 24.16 90.37 24.32 91.07 24.49 C103.64 27.45 103.64 27.45 109 31 C107.48 33.63 106.16 35.84 104 38 C105.15 38.27 106.3 38.54 107.49 38.81 C131.49 44.62 154.1 53.89 167.62 75.94 C169 79 169 79 169 83 C161.08 83.5 161.08 83.5 153 84 C154.51 84.7 156.01 85.4 157.56 86.12 C163.48 89.09 168.27 92.37 171.94 97.94 C173.95 100.43 173.95 100.43 177.69 100.06 C180.76 99.47 183.39 98.45 186.21 97.12 C190.7 95.08 195.23 93.47 199.94 92 C200.75 91.75 201.56 91.49 202.4 91.23 C208.09 89.49 213.82 87.99 219.62 86.69 C220.33 86.53 221.04 86.37 221.77 86.21 C240.78 82.15 263.25 81.73 282 87 C283.54 87.38 285.08 87.76 286.62 88.14 C329.51 98.75 329.51 98.75 340.06 115.19 C341.1 117.04 341.1 117.04 342 119 C342.34 119.74 342.68 120.47 343.04 121.23 C344.89 126.56 344.34 132.28 344.31 137.88 C344.31 139.19 344.3 140.5 344.3 141.85 C344.19 150.95 343.62 159.24 341 168 C340.81 168.64 340.62 169.27 340.43 169.93 C335.6 186.05 327.76 200.82 316 213 C315.22 213.85 314.43 214.69 313.62 215.56 C295.97 231.96 273.21 242.23 249.2 244.48 C248.36 244.56 247.52 244.63 246.65 244.72 C245.02 244.86 243.38 244.99 241.75 245.09 C234.32 245.69 228.4 248.22 223 253.44 C213.63 262 213.63 262 207 262 C207.58 262.87 207.58 262.87 208.17 263.77 C215.31 275 219.94 288.55 219 302 C217 305 217 305 214.88 305.69 C214.26 305.79 213.64 305.89 213 306 C213.99 306.33 214.98 306.66 216 307 C216.33 307.66 216.66 308.32 217 309 C218.65 310.12 218.65 310.12 220.56 311.12 C221.7 311.74 222.83 312.36 224 313 C223.68 318.28 220.72 321.52 217 325 C213.96 326.62 212.44 327 209 327 C209.07 328.22 209.07 328.22 209.14 329.46 C209.57 342.72 205.71 351.99 197 362 C192.68 366 192.68 366 188 366 C187.81 365.37 187.61 364.75 187.41 364.1 C187.15 363.28 186.89 362.47 186.62 361.62 C186.24 360.41 186.24 360.41 185.85 359.16 C185.1 356.84 185.1 356.84 183 355 C180.68 354.28 178.35 353.61 176 353 C176.33 353.48 176.65 353.97 176.99 354.47 C183.69 364.75 185.27 373.87 184 386 C182.18 394.43 177.16 401.04 170.19 406 C168 407 168 407 166 407 C166 404.03 166 401.06 166 398 C161.71 397.34 157.42 396.68 153 396 C153.09 397.67 153.09 397.67 153.19 399.38 C153.15 407.08 150.25 413.6 146.94 420.44 C144.89 424.69 143.57 428.4 142.88 433.06 C142.4 436.23 142.09 437.86 140.38 440.62 C136.93 442.62 133.96 442.74 130 443 C130.33 443.99 130.66 444.98 131 446 C131.08 447.48 131.11 448.97 131.1 450.45 C131.09 451.3 131.09 452.14 131.09 453.02 C131.08 453.9 131.07 454.78 131.06 455.69 C131.06 457.03 131.06 457.03 131.05 458.39 C131.04 460.6 131.02 462.8 131 465 C129.35 465.33 127.7 465.66 126 466 C127.11 471.53 128.79 475.61 131.65 480.45 C133.21 483.39 134.31 486.37 135.44 489.5 C138.41 497.44 142.42 503.35 148.12 509.56 C153.78 515.73 157.16 522.2 157.06 530.69 C157.05 531.68 157.04 532.68 157.04 533.7 C157.02 534.84 157.02 534.84 157 536 C155.68 536 154.36 536 153 536 C153.72 537.47 153.72 537.47 154.45 538.96 C156.24 543.16 156.57 547.11 156.88 551.62 C157.62 559.79 159.68 566.48 163 574 C163.72 575.82 164.43 577.65 165.14 579.48 C167.13 584.61 169.26 589.6 171.71 594.53 C181.92 615.17 184.96 642.09 178.38 664.27 C172.87 679.13 164.72 692.21 153 703 C153.65 703.24 154.3 703.48 154.98 703.73 C164.62 707.43 171.11 711.62 176.01 720.91 C179.14 728.31 180.09 737.27 177.97 745.06 C176.04 748.92 172.91 750.48 169 752 C155.96 755.83 141.38 755.36 128 754 C128.33 755.15 128.66 756.31 129 757.5 C130.81 764.89 130.62 771.19 127 778 C121.09 787.04 112.19 789.85 102 792 C96.24 792.84 90.63 793.18 84.81 793.24 C83.95 793.25 83.09 793.25 82.2 793.26 C80.39 793.28 78.57 793.29 76.76 793.3 C74.93 793.31 73.11 793.33 71.28 793.36 C55.95 793.61 37.2 793.28 25.13 782.3 C20.04 776.69 18.78 772.08 18.73 764.6 C19 762 19 762 21 756 C8.79 755.67 -3.42 755.34 -16 755 C-15.34 757.31 -14.68 759.62 -14 762 C-13.39 767.51 -13.74 772.91 -16 778 C-25.08 789.03 -41.13 792.22 -54.64 793.8 C-74.33 795.44 -98.42 796.07 -115.81 785.25 C-121.03 779.88 -124.12 774.23 -124.19 766.69 C-124.2 765.97 -124.22 765.25 -124.23 764.51 C-123.93 761.19 -122.98 758.18 -122 755 C-123.18 755.02 -123.18 755.02 -124.38 755.05 C-128 755.11 -131.63 755.15 -135.25 755.19 C-137.1 755.23 -137.1 755.23 -138.99 755.26 C-150.65 755.36 -160.81 754.2 -169.81 746.44 C-173.42 742.07 -172.45 735.28 -172 730 C-170 721.26 -166.21 715.14 -159.06 709.81 C-153.23 706.75 -146.37 705.54 -140 704 C-140.51 703.59 -141.02 703.17 -141.54 702.75 C-145.82 699.16 -149.36 695.56 -152.58 690.99 C-154.03 688.9 -154.03 688.9 -155.95 686.7 C-158.28 683.63 -159.96 680.42 -161.56 676.94 C-162.02 675.95 -162.02 675.95 -162.48 674.95 C-171.56 654.71 -172.91 625.83 -165 605 C-160.33 591.91 -157.01 578.49 -156.5 564.56 C-156.09 554.87 -153.45 546.58 -149 538 C-152.3 538.33 -155.6 538.66 -159 539 C-160.05 530.24 -156.24 521.31 -151 514.34 C-150.34 513.57 -149.68 512.8 -149 512 C-147.91 510.57 -146.83 509.13 -145.75 507.69 C-144.97 506.64 -144.97 506.64 -144.17 505.57 C-143.79 505.05 -143.4 504.54 -143 504 C-145.97 503.67 -148.94 503.34 -152 503 C-151.56 496.02 -145.79 490.85 -141.38 485.88 C-140.79 485.21 -140.21 484.54 -139.61 483.85 C-138.29 482.33 -136.96 480.82 -135.62 479.31 C-133.5 474.98 -133.62 471.19 -133.41 466.41 C-132.77 461.08 -130.54 456.68 -128 452 C-128.54 452.22 -129.09 452.43 -129.64 452.66 C-130.72 453.07 -130.72 453.07 -131.81 453.5 C-132.87 453.92 -132.87 453.92 -133.96 454.34 C-136 455 -136 455 -139 455 C-139.13 453.95 -139.27 452.9 -139.4 451.82 C-139.58 450.45 -139.76 449.07 -139.94 447.69 C-140.02 447 -140.11 446.31 -140.2 445.6 C-140.59 442.6 -141.04 439.88 -142 437 C-142.13 434.33 -142.04 431.68 -142 429 C-142.72 429.35 -143.44 429.7 -144.19 430.06 C-147.44 431.15 -148.81 431.23 -152 430 C-155.32 426.68 -156.75 423.48 -158 419 C-158.99 422.63 -159.98 426.26 -161 430 C-162.32 429.67 -163.64 429.34 -165 429 C-166.82 423.53 -166.35 418.03 -164.94 412.56 C-163.93 408.5 -164.07 405.16 -164.71 401.04 C-165 399 -165 399 -165 395 C-171.15 397.97 -173.98 400.79 -176.41 407.21 C-176.6 407.8 -176.8 408.39 -177 409 C-185.17 403.13 -188.43 393.5 -190.54 383.94 C-192.28 372.89 -191.28 361.42 -185 352 C-196.18 351.42 -196.18 351.42 -206 356 C-206.99 355.67 -207.98 355.34 -209 355 C-212.64 345.45 -209.02 333.59 -207 324 C-207.97 324.06 -208.93 324.12 -209.93 324.18 C-218.05 324.46 -225.41 324.56 -232 319 C-232.76 316.83 -232.76 316.83 -233 315 C-232.28 314.42 -231.55 313.83 -230.8 313.23 C-220.44 304.45 -216.36 294.96 -212.75 282.02 C-210.66 274.54 -207.62 266.62 -202 261 C-202.63 260.84 -203.26 260.68 -203.91 260.52 C-213.65 257.86 -221.58 253.04 -228.27 245.41 C-231.53 242.53 -233.17 242.28 -237.45 242 C-238.7 241.9 -239.96 241.8 -241.24 241.7 C-241.9 241.66 -242.55 241.61 -243.23 241.57 C-275.74 239.43 -303.06 229.24 -325.54 204.69 C-344.11 183.15 -352.76 154.12 -351 126 C-349.56 116.66 -345.05 110.01 -337.5 104.44 C-306.94 84.47 -266.68 77.94 -231.06 85.06 C-220.73 87.27 -210.83 90.48 -200.97 94.26 C-198.34 95.25 -195.67 96.13 -193 97 C-192.34 96.32 -191.68 95.64 -191 94.94 C-190 93.96 -189 92.98 -188 92 C-187.45 91.45 -186.91 90.89 -186.34 90.32 C-175.01 79.52 -160.19 76.23 -145.06 75.44 C-144.28 75.39 -143.5 75.35 -142.7 75.31 C-140.8 75.2 -138.9 75.1 -137 75 C-140.34 67.76 -143.53 62.87 -150.24 58.44 C-150.82 57.96 -151.4 57.49 -152 57 C-152 56.01 -152 55.02 -152 54 C-136.89 49.76 -121.99 48.05 -106.33 47.34 C-102.58 46.96 -99.49 46.47 -96 45 C-94.47 42.27 -94.47 42.27 -93.88 38.94 C-90.34 25.49 -82.14 15.3 -71 7 C-69.68 7 -68.36 7 -67 7 C-66.34 12.28 -65.68 17.56 -65 23 C-62.88 23.23 -62.88 23.23 -61.48 21.5 C-60.87 20.82 -60.25 20.14 -59.62 19.44 C-54.72 14.41 -49.22 11.19 -43 8 C-42.24 7.61 -41.49 7.22 -40.71 6.82 C-28.39 1.22 -13.42 -0.88 0 0 Z M-54.62 24.88 C-60.89 31.39 -64.93 38.99 -69 47 C-68.97 46.06 -68.93 45.11 -68.89 44.14 C-68.71 35.59 -69.42 28.24 -72 20 C-75.88 19.57 -75.88 19.57 -77.78 21.51 C-84.21 29.65 -88.22 39.52 -87 50 C-85.8 54.58 -84.18 58.8 -82 63 C-84.47 61.9 -86.25 60.78 -88.31 59 C-100.98 49.57 -123.68 56.18 -138 58 C-137.71 58.58 -137.41 59.17 -137.11 59.77 C-136.13 61.74 -135.19 63.73 -134.26 65.72 C-129.25 76.06 -123.94 82.78 -115 90 C-113.99 90.99 -112.99 91.99 -112 93 C-113.19 92.45 -114.39 91.89 -115.62 91.32 C-117.23 90.59 -118.83 89.86 -120.44 89.12 C-121.61 88.58 -121.61 88.58 -122.81 88.02 C-138.5 80.92 -153.15 82.11 -169.19 88.12 C-175.68 90.96 -180.78 95.28 -186 100 C-184.48 104.55 -181.09 105.48 -177 107.62 C-176.27 108.03 -175.54 108.44 -174.79 108.86 C-168.58 112.15 -162.75 114.05 -155.81 112.11 C-154.88 111.66 -153.96 111.21 -153 110.75 C-151.99 110.29 -150.97 109.82 -149.93 109.35 C-148.96 108.9 -147.99 108.46 -147 108 C-141.48 105.8 -136.96 104.62 -131 105 C-131.74 105.28 -132.48 105.56 -133.24 105.85 C-146.03 110.9 -157.68 117.28 -164 130 C-169.08 143.16 -167.99 157.52 -162.56 170.43 C-159.2 177.06 -155.21 182.48 -150.07 187.84 C-148.31 189.68 -146.74 191.54 -145.19 193.56 C-143.23 196.09 -143.23 196.09 -140.75 196.94 C-140.17 196.96 -139.6 196.98 -139 197 C-137.78 196.01 -137.78 196.01 -137.93 194.1 C-137.96 193.28 -137.98 192.47 -138.01 191.62 C-138.02 190.72 -138.04 189.82 -138.06 188.89 C-138.1 186.99 -138.15 185.1 -138.21 183.21 C-138.31 176.9 -137.41 171.84 -135 166 C-134.67 166 -134.34 166 -134 166 C-134.07 167.3 -134.14 168.61 -134.21 169.95 C-134.69 182.83 -133.63 192.22 -124.5 202.06 C-121.67 204.79 -118.53 206.33 -115 208 C-115.29 206.95 -115.58 205.89 -115.88 204.81 C-118.45 194.97 -119.53 186.18 -119 176 C-118.34 176 -117.68 176 -117 176 C-116.9 176.63 -116.8 177.26 -116.7 177.91 C-114.59 190 -109.18 197.08 -100 205 C-95.64 207.96 -91.26 209.47 -86 210 C-86.43 208.76 -86.87 207.52 -87.31 206.25 C-90.06 197.99 -92.17 189.67 -93 181 C-89.81 182.6 -89.36 185.93 -88.19 189.12 C-84.16 199.47 -80.36 205.14 -70 210 C-63.74 212.54 -57.38 214.8 -51 217 C-50.04 213.96 -50 212.03 -50.81 208.96 C-51 208.22 -51.19 207.47 -51.38 206.7 C-51.69 205.55 -51.69 205.55 -52 204.38 C-54.13 196.26 -54.13 196.26 -53 194 C-52.65 194.78 -52.3 195.57 -51.94 196.38 C-46.27 207.48 -37.19 218.14 -26 224 C-25.34 224 -24.68 224 -24 224 C-22.95 220.86 -22.79 218.36 -22.62 215.06 C-22.17 208.45 -20.79 202.37 -19 196 C-18.66 194.67 -18.33 193.33 -18 192 C-17.34 192 -16.68 192 -16 192 C-16.03 193.18 -16.07 194.37 -16.11 195.59 C-16.38 208.57 -14.87 217.76 -8 229 C-11.94 227.53 -13.02 225.63 -14.75 221.88 C-15.18 220.96 -15.61 220.05 -16.05 219.12 C-16.36 218.42 -16.68 217.72 -17 217 C-17.33 217 -17.66 217 -18 217 C-18.51 224.99 -14.27 231.4 -9.38 237.5 C-7.35 239.63 -5.44 241.38 -3 243 C-0.92 242.59 -0.92 242.59 1 241 C3.11 234.3 1.11 229.95 -1.77 223.73 C-2.79 221.46 -3.5 219.43 -4 217 C-1.62 219.21 0.17 221.26 1.94 224 C4.7 228.02 7.36 230.45 12 232 C13.63 232.15 15.26 232.25 16.89 232.32 C17.82 232.36 18.76 232.4 19.73 232.44 C20.7 232.48 21.68 232.52 22.69 232.56 C24.17 232.63 24.17 232.63 25.68 232.69 C28.12 232.8 30.56 232.9 33 233 C32.69 231.06 32.38 229.12 32.06 227.19 C31.89 226.11 31.71 225.03 31.54 223.92 C31.06 220.95 31.06 220.95 30 218 C34.13 221.31 34.94 224.73 35.75 229.75 C35.88 230.45 36 231.14 36.13 231.86 C36.43 233.57 36.72 235.29 37 237 C40.11 236.31 40.11 236.31 41.35 233.89 C41.98 232.58 41.98 232.58 42.62 231.25 C43.26 229.96 43.26 229.96 43.91 228.64 C45.75 224.18 46.12 220.06 46.1 215.26 C46.09 214.2 46.09 213.13 46.09 212.03 C46.08 210.93 46.07 209.82 46.06 208.69 C46.06 207 46.06 207 46.05 205.29 C46.04 202.52 46.02 199.76 46 197 C48 198 48 198 48.63 199.69 C50.42 208.1 50.18 216.45 50 225 C59.22 216.09 59.98 205.92 60.88 193.69 C61.9 181.87 63.71 170.16 72 161 C72.66 161 73.32 161 74 161 C73.66 161.64 73.32 162.28 72.98 162.94 C68.01 172.57 64.69 182.23 67.94 193.06 C70.63 199.39 76.22 204.22 81 209 C81.4 211.32 81.74 213.66 82 216 C84.27 214.16 84.27 214.16 84.2 211.4 C84.17 210.4 84.15 209.4 84.12 208.38 C84.11 207.37 84.09 206.37 84.07 205.34 C84.05 204.57 84.02 203.79 84 203 C84.66 203.33 85.32 203.66 86 204 C87.59 210.72 86.33 215.59 84 222 C90.66 216.94 95.33 211.02 98 203 C98.12 200.87 98.18 198.74 98.21 196.61 C98.24 195.34 98.27 194.08 98.3 192.77 C98.35 190.11 98.39 187.44 98.43 184.78 C98.64 176.31 98.8 170.49 104.69 164.06 C105.45 163.38 106.21 162.7 107 162 C106.25 163.66 105.5 165.32 104.75 166.98 C102.2 173.81 101.44 183.04 104.25 189.88 C105.12 191.42 105.12 191.42 106 193 C106.87 194.55 106.87 194.55 107.75 196.12 C110.34 199.43 113.16 202.21 117 204 C117.99 203.67 118.98 203.34 120 203 C119.67 202.01 119.34 201.02 119 200 C118.91 197.98 118.87 195.96 118.88 193.94 C118.87 192.87 118.87 191.81 118.87 190.71 C119 188 119 188 120 186 C120.99 185.67 121.98 185.34 123 185 C122.92 186.06 122.84 187.12 122.75 188.22 C122.16 196.31 122.16 196.31 124.56 203.84 C126.28 205.75 127.97 207.43 130 209 C132.21 207.21 132.21 207.21 132.2 204.84 C132.17 204.02 132.15 203.21 132.12 202.38 C132.11 201.56 132.09 200.74 132.07 199.9 C132.05 199.27 132.02 198.65 132 198 C132.66 198 133.32 198 134 198 C134.18 199.23 134.36 200.46 134.55 201.73 C136.17 212.68 136.17 212.68 138.69 223.44 C141.47 234.05 139.83 243.55 137 254 C144.99 250.62 150.88 246.11 157 240 C157.6 239.41 158.2 238.82 158.82 238.21 C166.65 229.9 168.26 219.42 168.15 208.41 C167.75 199.36 165.34 191.37 162 183 C166.39 186.98 169.64 191.54 173.04 196.38 C174.87 198.82 176.79 200.9 179 203 C182.76 195.48 181.94 182.83 179.94 174.88 C176.58 165.06 169.11 158.99 161 153 C167.11 154.04 173.08 155.16 179 157 C177.46 150.97 174.91 147.75 169.55 144.53 C167.82 143.54 166.07 142.57 164.3 141.62 C159.59 138.3 158.25 133.44 157 128 C156.96 126.4 156.92 124.79 156.88 123.19 C156.32 116.64 152.52 112.51 148 108 C146.05 106.46 144.15 105.26 142 104 C141.67 103.34 141.34 102.68 141 102 C142.9 102.74 144.79 103.49 146.69 104.25 C147.74 104.67 148.8 105.09 149.89 105.52 C153.02 107.01 155.32 108.83 158 111 C161.84 111.1 162.95 110.05 165.81 107.44 C166.53 106.63 167.26 105.83 168 105 C161.25 96.98 156.71 92.22 146 91 C141.44 90.75 137.35 90.55 133 92 C134.98 86.39 136.91 83.43 142 80 C147.51 77.88 153.16 77.45 159 77 C142.93 57.31 119.97 47.7 95 45 C92.52 44.94 90.04 44.91 87.56 44.94 C85.71 44.95 85.71 44.95 83.82 44.96 C82.42 44.98 82.42 44.98 81 45 C82.17 44.27 83.33 43.54 84.5 42.81 C85.58 42.13 85.58 42.13 86.69 41.44 C88.22 40.48 89.76 39.55 91.31 38.62 C92.4 37.98 92.4 37.98 93.5 37.31 C94.17 36.92 94.84 36.52 95.53 36.11 C96.26 35.56 96.26 35.56 97 35 C97 34.34 97 33.68 97 33 C73.72 27.63 47.7 22.47 26 35.31 C20.97 38.76 16.64 42.58 13.97 48.14 C13 50 13 50 11 51 C13.85 40.49 17.07 30.75 22 21 C11.41 20.28 0.29 23.11 -8 30 C-10.18 32.21 -12.12 34.53 -14 37 C-14.93 38.21 -14.93 38.21 -15.88 39.44 C-16.43 40.21 -16.43 40.21 -17 41 C-16.24 33.51 -16.24 33.51 -15 30.88 C-13.49 26.55 -13.53 22.24 -13.38 17.69 C-13.32 16.29 -13.32 16.29 -13.26 14.87 C-13.16 12.58 -13.08 10.29 -13 8 C-27.72 8 -43.96 15.07 -54.62 24.88 Z M-336 114 C-342.59 121.55 -342.72 131.14 -342.2 140.73 C-340.13 164.81 -330.65 187.35 -314 205 C-312.36 206.37 -310.7 207.7 -309 209 C-308.14 209.7 -307.27 210.39 -306.38 211.11 C-285.8 227.18 -263.55 232.38 -237.91 232.32 C-235.31 232.31 -232.71 232.34 -230.11 232.36 C-219.38 232.4 -210.02 231.98 -200.69 226.06 C-199.86 225.54 -199.03 225.01 -198.18 224.47 C-195.07 222.37 -192.21 220.05 -189.38 217.6 C-184.23 213.39 -178.95 211.28 -172.66 209.18 C-171.78 208.79 -170.9 208.4 -170 208 C-169.67 207.01 -169.34 206.02 -169 205 C-169.55 205.17 -170.1 205.34 -170.66 205.52 C-173.43 206.36 -176.22 207.18 -179 208 C-180.09 208.32 -181.18 208.65 -182.3 208.98 C-192.75 211.95 -203.24 213.58 -214 215 C-214.69 215.1 -215.38 215.2 -216.09 215.3 C-242.51 218.91 -268.65 213.29 -290.25 197.56 C-297.37 192.06 -302.98 186.46 -308 179 C-304.68 180.11 -304.16 180.78 -302.06 183.44 C-285.22 203.18 -263.53 210.19 -238.58 212.8 C-218.23 214.41 -193.38 211.19 -175 202 C-175.38 199.66 -175.66 198.33 -177.39 196.65 C-178 196.23 -178.62 195.81 -179.25 195.38 C-182.38 193.16 -185.44 190.89 -188.45 188.52 C-196.02 182.57 -203.91 177.21 -212 172 C-213.24 171.19 -213.24 171.19 -214.5 170.36 C-230.73 160.11 -249.93 151.72 -268.89 148.51 C-269.93 148.26 -269.93 148.26 -271 148 C-271.33 147.34 -271.66 146.68 -272 146 C-262.45 147.29 -254.28 148.8 -245.75 153.53 C-243.06 154.97 -240.46 155.97 -237.56 156.94 C-231.62 159.01 -226.27 161.9 -220.8 165 C-218.9 166.05 -216.99 167.08 -215.07 168.1 C-204.39 173.86 -195.17 180.73 -185.81 188.45 C-185.1 189.04 -184.38 189.63 -183.64 190.24 C-182.24 191.39 -180.85 192.54 -179.47 193.71 C-176.12 196.48 -173.23 198.7 -169 200 C-168.03 198.32 -168.03 198.32 -168 196 C-171.86 190.15 -177.5 186.24 -183 182 C-183.85 181.32 -184.7 180.64 -185.58 179.93 C-186.38 179.3 -187.18 178.66 -188 178 C-188.72 177.42 -189.44 176.85 -190.19 176.25 C-191.91 174.81 -191.91 174.81 -194 175 C-194 174.34 -194 173.68 -194 173 C-196.32 171.36 -198.64 169.85 -201.06 168.38 C-201.79 167.93 -202.51 167.49 -203.26 167.03 C-230.91 150.23 -260.25 142.86 -291.93 137.4 C-313.36 133.68 -313.36 133.68 -317.62 129.31 C-318.08 128.55 -318.53 127.79 -319 127 C-318.35 127.2 -317.69 127.4 -317.02 127.61 C-309.98 129.66 -303.16 130.73 -295.88 131.44 C-254.73 135.84 -218.09 143.96 -185 170 C-183.86 170.88 -182.72 171.76 -181.58 172.64 C-180.33 173.61 -179.07 174.59 -177.81 175.56 C-177.22 176.02 -176.62 176.48 -176.01 176.95 C-172.42 179.76 -169.17 182.71 -166 186 C-165.34 186.66 -164.68 187.32 -164 188 C-161.89 187.68 -161.89 187.68 -160 187 C-160.46 186.25 -160.92 185.5 -161.39 184.73 C-171.35 168.11 -175.34 151.19 -170.62 131.94 C-169.89 129.41 -169.11 127.21 -167.9 124.88 C-166.78 122.9 -166.78 122.9 -167 120 C-176.48 114.75 -186.05 110.04 -196.04 105.84 C-197.39 105.26 -198.73 104.66 -200.06 104.04 C-206.14 101.21 -212.32 99.23 -218.75 97.38 C-219.75 97.08 -220.74 96.78 -221.77 96.47 C-233.83 92.96 -245.52 91.63 -258.06 91.69 C-259.33 91.69 -260.59 91.7 -261.89 91.7 C-287.27 92.02 -315.52 97.96 -336 114 Z M214 97 C213.04 97.27 212.07 97.53 211.08 97.81 C208.77 98.48 206.48 99.19 204.19 99.94 C203.39 100.19 202.59 100.45 201.77 100.72 C195.35 102.82 189.14 105.19 183 108 C182.23 108.35 181.46 108.7 180.67 109.06 C178.04 110.26 175.43 111.47 172.81 112.69 C171.54 113.28 171.54 113.28 170.23 113.88 C169.44 114.25 168.65 114.63 167.83 115.01 C167.12 115.35 166.4 115.68 165.67 116.03 C163.82 116.9 163.82 116.9 163 119 C162.1 127.32 162.1 127.32 164.88 134.88 C166.42 135.93 166.42 135.93 168 137 C169.69 138.16 171.38 139.33 173.06 140.5 C173.93 141.1 174.8 141.69 175.69 142.3 C179.95 145.43 182.54 148.94 184 154 C184.45 157.33 184.75 160.65 185 164 C184.01 164 183.02 164 182 164 C182.33 164.99 182.66 165.98 183 167 C186.97 165.61 189.92 163.74 193.25 161.19 C201.64 154.98 210.27 150.74 220 147 C221.65 146.36 221.65 146.36 223.33 145.71 C242.7 138.74 263.11 137.2 283.48 135.48 C292.57 134.69 301.23 133.68 310 131 C310 131.66 310 132.32 310 133 C309.27 133.29 308.54 133.58 307.78 133.88 C306.12 134.55 304.46 135.23 302.82 135.95 C294.32 139.41 285.54 140.58 276.53 141.95 C248.38 146.25 220.84 151.48 197 168 C196 168.67 195.01 169.34 193.98 170.04 C188.5 173.85 188.5 173.85 186.25 179.88 C186.73 183.08 186.73 183.08 189 185 C189.8 184.26 189.8 184.26 190.62 183.5 C213.1 163 213.1 163 224 163 C223.16 163.45 223.16 163.45 222.31 163.92 C217.09 166.78 212 169.78 207 173 C206.17 173.52 205.35 174.04 204.5 174.58 C203.67 175.11 202.85 175.64 202 176.19 C201.24 176.68 200.47 177.16 199.69 177.67 C199.13 178.11 198.57 178.55 198 179 C198 179.66 198 180.32 198 181 C197.44 181.25 196.89 181.5 196.31 181.75 C191.12 184.56 188.01 187.38 186 193 C184.48 200.86 184.48 200.86 187 208 C211.1 218.16 242.91 218.32 266.94 208.69 C272.96 206.14 278.06 203.33 283 199 C284.69 197.69 286.37 196.37 288.06 195.06 C296.83 188.38 296.83 188.38 302 179 C302.66 179 303.32 179 304 179 C304 178.34 304 177.68 304 177 C304.66 177 305.32 177 306 177 C299.1 188.73 291.24 196.39 280 204 C278.8 204.82 278.8 204.82 277.57 205.66 C253.81 220.92 225.32 220.33 198.72 214.62 C179.92 210.33 179.92 210.33 174 207 C174.13 215 176.37 219.33 182 225 C194.19 236.14 215.88 235.17 231.21 235.13 C233.56 235.13 235.91 235.13 238.26 235.14 C265.39 235.15 289.51 226.61 309.25 207.31 C315.37 201.12 319.96 194.75 324 187 C324.55 185.94 325.1 184.88 325.67 183.79 C333.86 167.04 340.35 143.46 334.81 124.81 C329.96 113.34 318.43 108.28 307.5 103.74 C299.79 100.65 292.12 97.8 284 96 C282.89 95.75 281.78 95.5 280.64 95.24 C270.99 93.24 261.76 92.5 251.92 92.55 C249.57 92.56 247.22 92.53 244.87 92.5 C234.06 92.45 224.38 94.07 214 97 Z M-159.12 193.94 C-161.57 197.92 -161.8 201.4 -162 206 C-159.69 206.66 -157.38 207.32 -155 208 C-155 208.33 -155 208.66 -155 209 C-155.83 209.17 -156.67 209.34 -157.53 209.52 C-168.97 211.98 -178.59 215.86 -188 223 C-188 223.66 -188 224.32 -188 225 C-189.98 225.5 -189.98 225.5 -192 226 C-192 226.66 -192 227.32 -192 228 C-192.75 228.27 -193.49 228.54 -194.26 228.82 C-196.86 229.94 -198.61 231.14 -200.81 232.88 C-207.15 237.27 -214.57 238.45 -222 240 C-218.49 246.12 -213.61 250.33 -207 253 C-197.27 255.41 -186.36 253.12 -177 250 C-179.53 252.89 -182.39 254.39 -185.75 256.19 C-199.14 263.91 -203.66 276.11 -208.12 290.31 C-208.79 292.41 -209.46 294.51 -210.13 296.61 C-210.42 297.53 -210.71 298.44 -211 299.39 C-212.06 302.15 -213.47 304.48 -215 307 C-215 307.66 -215 308.32 -215 309 C-215.66 309 -216.32 309 -217 309 C-217.27 309.8 -217.54 310.61 -217.81 311.44 C-218.4 312.71 -218.4 312.71 -219 314 C-220.49 314.5 -220.49 314.5 -222 315 C-222 315.66 -222 316.32 -222 317 C-215.8 319.07 -207.99 318.74 -202 316 C-199.74 314.27 -197.7 312.45 -195.66 310.46 C-194 309 -194 309 -192 309 C-192.58 309.87 -192.58 309.87 -193.17 310.77 C-200.05 321.6 -202.58 332.33 -204 345 C-186.46 345.94 -186.46 345.94 -171 339 C-169.3 337.37 -167.62 335.71 -166 334 C-166.5 338.46 -167.46 341.21 -170.12 344.81 C-171.06 346.1 -171.06 346.1 -172.02 347.41 C-174.43 350.56 -176.89 353.65 -179.42 356.7 C-183.36 362.44 -184.51 367.54 -184.38 374.31 C-184.37 375.05 -184.36 375.8 -184.35 376.56 C-184.21 382.26 -183.6 387.84 -181 393 C-180.34 393.33 -179.68 393.66 -179 394 C-178.7 393.31 -178.39 392.63 -178.08 391.92 C-173.83 382.77 -173.83 382.77 -169 381 C-165.69 380.31 -165.69 380.31 -163 380 C-163.72 380.56 -164.44 381.11 -165.19 381.69 C-167.97 383.98 -170.49 386.41 -173 389 C-169.58 390.71 -166.05 388.75 -162.56 387.69 C-161.4 387.35 -161.4 387.35 -160.21 387 C-156.68 385.95 -154.1 385.07 -151 383 C-151.63 384.14 -151.63 384.14 -152.28 385.31 C-155.68 391.72 -157.76 396.73 -158 404 C-152.87 405.82 -148.82 403.86 -144 402 C-144.42 402.47 -144.84 402.94 -145.28 403.43 C-146.1 404.36 -146.1 404.36 -146.94 405.31 C-147.48 405.93 -148.03 406.54 -148.59 407.18 C-151.03 410.33 -151.16 413.21 -151.19 417.06 C-151.2 417.94 -151.22 418.82 -151.23 419.72 C-151.22 422.2 -151.22 422.2 -149 424 C-142.24 424.12 -138.99 421.9 -133.98 417.5 C-132 416 -132 416 -129 416 C-129.8 416.85 -130.61 417.69 -131.44 418.56 C-136.22 424.36 -135.1 431.87 -135 439 C-131.7 437.02 -128.4 435.04 -125 433 C-126.5 434.92 -127.99 436.84 -129.49 438.76 C-131.33 441.33 -131.33 441.33 -133 446 C-123.1 445.5 -123.1 445.5 -113 445 C-114.24 446.49 -115.48 447.97 -116.75 449.5 C-122.37 456.57 -126.09 462.75 -126 472 C-125.33 475.11 -125.33 475.11 -122.94 476.19 C-122.3 476.46 -121.66 476.72 -121 477 C-122.02 477.35 -123.05 477.7 -124.11 478.06 C-128.69 480.03 -131.26 483.23 -134.31 487.06 C-135.35 488.32 -136.39 489.59 -137.43 490.85 C-137.87 491.4 -138.32 491.96 -138.78 492.54 C-140 494 -140 494 -142 496 C-142 496.99 -142 497.98 -142 499 C-139.9 499.03 -137.79 499.05 -135.69 499.06 C-134.52 499.07 -133.34 499.09 -132.14 499.1 C-128.97 499.15 -128.97 499.15 -126 498 C-126 498.66 -126 499.32 -126 500 C-126.56 500.25 -127.12 500.5 -127.7 500.75 C-138.84 506.8 -146.74 518.76 -152 530 C-152 530.66 -152 531.32 -152 532 C-149.9 532.03 -147.79 532.05 -145.69 532.06 C-144.52 532.07 -143.34 532.09 -142.14 532.1 C-138.97 532.15 -138.97 532.15 -136 531 C-138.06 534.49 -140.25 537.87 -142.5 541.25 C-149.1 551.79 -150.37 561.68 -149 574 C-148.03 577.88 -146.77 581.41 -145 585 C-147.31 584.34 -149.62 583.68 -152 583 C-155.54 596.29 -152.72 613.26 -146 625 C-139 638.2 -139 638.2 -128 647 C-127.82 646.32 -127.64 645.65 -127.45 644.95 C-127.2 644.06 -126.95 643.17 -126.69 642.25 C-126.44 641.37 -126.2 640.49 -125.95 639.58 C-124.98 636.94 -123.79 635.15 -122 633 C-122.16 633.95 -122.33 634.9 -122.5 635.88 C-123.53 643.6 -124.19 649.8 -119.4 656.37 C-116.63 659.59 -114.63 660.79 -110.38 661.34 C-105.95 661.58 -103.01 661.66 -99.25 659.19 C-97.36 654.38 -98.19 650.02 -99 645 C-98.49 645.65 -97.98 646.3 -97.45 646.98 C-91.08 654.64 -83.89 659.94 -74 662.12 C-70.96 662.23 -70.96 662.23 -68.56 660.56 C-66.31 656.88 -66.72 654.27 -67 650 C-66.34 650.33 -65.68 650.66 -65 651 C-64.87 659.04 -64.87 659.04 -66 663 C-55.01 663.62 -45.73 660.93 -37 654 C-34.31 650.86 -32.08 647.57 -30 644 C-29.43 643.13 -29.43 643.13 -28.84 642.23 C-27.51 638.7 -27.57 635.11 -27.56 631.38 C-27.56 630.57 -27.55 629.77 -27.55 628.95 C-27.68 622.38 -29.18 617.43 -33 612 C-28.42 614.23 -26.91 616.32 -25 621 C-24.64 623.67 -24.42 626.12 -24.34 628.8 C-24.31 629.57 -24.27 630.34 -24.24 631.13 C-23.77 643.28 -23.67 655.45 -23.52 667.6 C-23.48 670.84 -23.43 674.09 -23.38 677.33 C-23.37 678.8 -23.37 678.8 -23.35 680.31 C-23.26 685.26 -22.94 689.36 -21 694 C-16.4 694.08 -11.79 694.13 -7.19 694.16 C-5.63 694.18 -4.07 694.2 -2.51 694.23 C13.96 694.72 13.96 694.72 29 689 C29.33 686 29.56 683.89 29 681 C27.16 679.14 27.16 679.14 25 678 C24.67 677.01 24.34 676.02 24 675 C25.98 675.33 27.96 675.66 30 676 C29.24 665.23 29.24 665.23 23.46 656.59 C17.72 650.34 18.33 640.45 18.57 632.48 C18.97 626.49 20.85 621.11 24 616 C24.66 615.67 25.32 615.34 26 615 C25.78 615.68 25.57 616.36 25.34 617.06 C22.19 628.05 20.73 640.3 25.79 650.94 C28.21 655.05 30.31 658.44 35 660 C34.77 659.25 34.54 658.5 34.31 657.73 C31.89 649.12 30.87 641.27 35 633 C35 636 35 636 34.52 637.92 C32.64 645.47 34.31 652.15 38 658.8 C39.69 661.25 41.3 662.8 44.18 663.62 C48.07 664.14 51.23 664.1 55 663 C55.37 656.73 54.24 651.43 52.73 645.34 C51.69 640.59 51.28 635.85 51 631 C54.06 632.53 54.75 635.51 56.12 638.5 C61.06 648.72 67.46 656.22 78 661 C81.22 661.94 83.88 662.56 87 661 C86.34 653.08 85.68 645.16 85 637 C85.66 637 86.32 637 87 637 C87.07 637.63 87.15 638.26 87.23 638.91 C88.39 646.5 90.91 651.55 96.82 656.54 C101.72 659.94 107.02 661.8 113 662 C115.87 661.4 117.44 660.58 120 659 C120.33 658.01 120.66 657.02 121 656 C121.66 656 122.32 656 123 656 C124.49 652.04 124.49 652.04 126 648 C125.67 651.3 125.34 654.6 125 658 C132.5 652.45 137.86 644.73 139.76 635.42 C140.66 626.33 140.29 617.03 139 608 C141.9 612.09 142.61 615.81 143.06 620.69 C143.33 625.82 143.33 625.82 146 630 C156.3 616.69 161.93 605.25 160 588 C158.7 581.76 157.57 576.57 153 572 C151.02 574.64 149.04 577.28 147 580 C147 576.33 147.48 574.08 148.5 570.62 C152.22 555.96 149.75 543.16 142.25 530.19 C141.18 528.45 140.1 526.72 139 525 C139.76 525.15 140.51 525.31 141.29 525.46 C144.19 526.04 147.09 526.53 150 527 C147.11 517.89 142.17 510.26 134 505 C133.01 505 132.02 505 131 505 C131 505.66 131 506.32 131 507 C130.01 507 129.02 507 128 507 C127.73 506.13 127.73 506.13 127.45 505.24 C125.96 500.61 124.32 496.3 122 492 C124.33 494.33 126.67 496.67 129 499 C129.46 490.56 129.46 490.56 126 483 C123.95 481.6 123.95 481.6 122 481 C120.68 481.99 119.36 482.98 118 484 C118.16 483.36 118.33 482.72 118.5 482.06 C119.77 474.26 119.05 469.1 115.48 461.97 C114.16 459.83 114.16 459.83 111.83 459.22 C111.22 459.15 110.62 459.07 110 459 C110 458.01 110 457.02 110 456 C110.8 456.31 111.61 456.62 112.44 456.94 C116.62 458.19 120.66 458.63 125 459 C125.58 448.97 123.89 441.24 118 433 C117.25 430.63 117.25 430.63 117 429 C117.78 429.78 118.57 430.57 119.38 431.38 C124.38 435.58 130.67 436 137 436 C136.06 428.55 134.77 422.53 131 416 C131.93 416.47 132.86 416.95 133.81 417.44 C136.91 419.04 136.91 419.04 140 420 C140 416.04 140 412.08 140 408 C141.32 408.99 142.64 409.98 144 411 C147.49 402.71 146.28 394.45 144 386 C144.7 386.29 145.4 386.58 146.12 386.88 C151.46 388.96 156.12 390.27 161.88 390.62 C163.03 390.7 164.18 390.77 165.37 390.85 C166.67 390.93 166.67 390.93 168 391 C167.69 390.1 167.69 390.1 167.38 389.17 C167.11 388.37 166.84 387.57 166.56 386.75 C166.16 385.57 166.16 385.57 165.75 384.36 C165.08 382.25 164.51 380.15 164 378 C170.18 382.51 170.7 388.78 172 396 C175.46 394.27 175.96 390.54 177.16 387.04 C179.53 378.44 177.94 370.9 174 363 C171.9 359.78 169.53 356.89 167 354 C166.34 353.23 165.67 352.46 164.99 351.66 C163.34 349.76 161.68 347.88 160 346 C163.31 346.25 166.63 346.53 169.94 346.81 C170.86 346.88 171.79 346.95 172.74 347.03 C178.87 347.56 184.27 348.77 190 351 C189.55 346.16 188.4 343.5 185 340 C184.34 340 183.68 340 183 340 C183 339.01 183 338.02 183 337 C186.57 338.98 189.59 340.68 192 344 C192.93 347.63 193.51 351.28 194 355 C201.23 347 203.59 337.66 203.25 327.04 C202.58 321.54 199.78 316.71 197 312 C201.83 316.77 201.83 316.77 203.38 318.81 C206.12 320.82 208.73 320.29 212 320 C213.49 319.01 213.49 319.01 215 318 C215 317.01 215 316.02 215 315 C213.18 313.38 213.18 313.38 210.75 311.88 C206.78 309.23 202.96 306.47 199.19 303.56 C193.84 299.5 188.3 296.02 182.52 292.63 C180 291 180 291 179 289 C180.06 289.47 180.06 289.47 181.14 289.95 C191.17 294.14 201.34 296.1 212 298 C211.51 285.64 208.51 274.31 200 265 C195.33 261.13 190.2 258.1 185 255 C186.24 255.16 187.48 255.33 188.75 255.5 C200.19 256.71 209.08 256.71 218.5 249.5 C220.99 247.01 221.39 246.26 222 243 C220.81 242.84 219.63 242.68 218.41 242.52 C186.52 238.02 186.52 238.02 177.12 226.75 C176.53 226.04 175.93 225.34 175.32 224.61 C174.88 224.08 174.45 223.55 174 223 C170.82 225.65 169.57 228.84 167.88 232.56 C161.66 245.5 152.55 253.19 139.25 258.38 C135.38 259.7 132.13 260.45 128 260 C128.93 257.59 129.9 255.22 130.99 252.88 C132.99 248.56 134.62 244.79 135 240 C135.07 239.22 135.15 238.45 135.23 237.64 C135.66 229.81 133.81 222.87 130 216 C126.64 212.76 123.27 211.1 118.94 209.44 C115.14 207.98 112.22 206.47 109 204 C108.34 204 107.68 204 107 204 C106.34 202.68 105.68 201.36 105 200 C103.15 202.78 101.79 205.57 100.39 208.6 C94.98 220.09 89.67 225.4 77.64 230.05 C75.77 230.73 73.89 231.37 72 232 C72.28 231.39 72.55 230.79 72.84 230.16 C75.74 223.45 78.41 216.22 76 209 C73.91 207.11 73.91 207.11 71.44 205.31 C70.2 204.38 70.2 204.38 68.93 203.43 C68.3 202.96 67.66 202.48 67 202 C66.34 202.33 65.68 202.66 65 203 C64.49 204.98 64.07 206.99 63.69 209 C61.26 219.78 56.97 225.57 48.72 232.66 C45.1 235.8 42.59 238.92 40 243 C37.11 245.98 33.83 248.38 30 250 C30.35 248.95 30.7 247.9 31.06 246.81 C31.97 243.11 31.88 241.57 31 238 C27.75 237.94 24.5 237.91 21.25 237.88 C20.33 237.86 19.41 237.84 18.46 237.82 C17.57 237.82 16.68 237.81 15.77 237.8 C14.95 237.79 14.13 237.78 13.29 237.77 C9.76 238.12 7.67 239.27 5.3 241.88 C4.79 242.58 4.28 243.28 3.75 244 C3.23 244.7 2.71 245.4 2.17 246.12 C0.82 247.91 0.82 247.91 1 250 C-3.15 248.07 -6.51 245.95 -10 243 C-11.21 242.13 -11.21 242.13 -12.44 241.25 C-14.76 239.21 -16.05 237.53 -17.75 235 C-20.58 231.07 -23.18 229.75 -27.63 228.06 C-31.17 226.48 -33.93 224.12 -36.91 221.68 C-39.5 219.59 -42.2 217.79 -45 216 C-45.33 217.65 -45.66 219.3 -46 221 C-53.86 221.77 -59.84 219.01 -67 216 C-68.89 215.25 -70.79 214.5 -72.69 213.75 C-74.84 212.89 -76.93 212.04 -79 211 C-79 212.32 -79 213.64 -79 215 C-88.59 214.2 -96.7 213.27 -105 208 C-105.64 207.6 -106.28 207.2 -106.94 206.79 C-108.31 205.89 -109.66 204.95 -111 204 C-110.01 209.94 -110.01 209.94 -109 216 C-118.38 211.76 -125.39 206.82 -133 200 C-133.99 200.66 -134.98 201.32 -136 202 C-142.96 202.14 -146.95 198.46 -152 194 C-152.99 193.01 -152.99 193.01 -154 192 C-157.11 191.66 -157.11 191.66 -159.12 193.94 Z M166 602 C165.72 602.96 165.44 603.91 165.15 604.89 C161.47 616.96 156.02 627.64 146.53 636.24 C143.71 639.32 142.58 641.91 141.12 645.81 C138.26 653.01 134.87 658.81 127.99 662.7 C124.31 665.53 124.01 666.91 123.29 671.42 C123.13 672.39 123.13 672.39 122.96 673.38 C122.61 675.58 122.3 677.79 122 680 C121.89 680.8 121.77 681.61 121.66 682.44 C120.92 687.79 120.26 693.15 119.64 698.51 C119.31 701.3 118.97 704.08 118.63 706.87 C117.59 715.63 116.79 724.33 116.73 733.17 C116.72 733.92 116.71 734.67 116.71 735.44 C116.74 739.17 116.88 740.82 119 744 C130.92 747 142.92 746.12 155 745 C155 741.37 155 737.74 155 734 C160.02 737.76 159.85 739.14 161 745 C161.99 744.67 162.98 744.34 164 744 C164 739.71 164 735.42 164 731 C167.36 733.24 167.58 733.93 168.69 737.62 C168.94 738.44 169.19 739.26 169.45 740.1 C169.63 740.73 169.81 741.35 170 742 C170.33 742 170.66 742 171 742 C171.66 733.49 171.03 727.07 166 720 C158.52 711.95 150.67 710.98 140.12 710.44 C139.34 710.39 138.56 710.35 137.75 710.31 C135.83 710.2 133.92 710.1 132 710 C132 709.34 132 708.68 132 708 C133.52 706.98 135.1 706.04 136.69 705.12 C143.97 700.61 149.99 695.06 156 689 C156.68 688.32 157.36 687.63 158.06 686.93 C167.47 676.17 173.45 660.11 174 646 C174.03 645.33 174.06 644.66 174.09 643.97 C174.6 630.2 173.43 616.83 168 604 C167.34 603.34 166.68 602.68 166 602 Z M-159 610 C-165.22 635.54 -164.09 658.94 -150.08 682.02 C-143.49 691.47 -134.4 701.8 -124 707 C-123.34 707 -122.68 707 -122 707 C-121.67 708.32 -121.34 709.64 -121 711 C-121.6 711.07 -122.21 711.14 -122.83 711.21 C-142.31 713.19 -142.31 713.19 -160 721 C-163.74 726.21 -164.13 730.43 -164.06 736.75 C-164.05 737.92 -164.04 739.09 -164.04 740.3 C-164.02 741.19 -164.01 742.08 -164 743 C-162.02 739.36 -161.47 736.12 -161 732 C-160.34 732 -159.68 732 -159 732 C-158.89 732.84 -158.78 733.69 -158.67 734.55 C-158.51 735.65 -158.35 736.75 -158.19 737.88 C-158.04 738.97 -157.89 740.06 -157.73 741.18 C-157.25 744.31 -157.25 744.31 -154 746 C-153.76 745.3 -153.52 744.6 -153.27 743.88 C-152.93 742.97 -152.6 742.06 -152.25 741.12 C-151.93 740.22 -151.6 739.32 -151.27 738.38 C-149.83 735.68 -148.83 735.03 -146 734 C-146.33 734.68 -146.66 735.36 -147 736.06 C-148.17 739.51 -148.07 742.38 -148 746 C-143.83 746.2 -139.67 746.38 -135.5 746.56 C-134.33 746.62 -133.15 746.67 -131.95 746.73 C-122.9 747.22 -122.9 747.22 -114 746 C-111.23 743.31 -110.1 741.67 -109.53 737.82 C-109.55 736.61 -109.58 735.39 -109.61 734.13 C-109.63 733.1 -109.63 733.1 -109.65 732.05 C-109.93 722.97 -110.95 713.93 -111.97 704.91 C-112.31 701.87 -112.64 698.84 -112.96 695.8 C-113.61 677.38 -113.61 677.38 -120.94 662 C-121.95 661.34 -122.96 660.68 -124 660 C-124.6 659.08 -125.19 658.16 -125.8 657.22 C-128.2 653.71 -130.99 651.22 -134.19 648.5 C-145.74 638.26 -152.92 624.44 -158 610 C-158.33 610 -158.66 610 -159 610 Z M62 657 C62.35 657.74 62.7 658.49 63.06 659.25 C64.08 662.22 64.2 663.17 63 666 C55.36 670.37 44.28 670.22 36 668 C36.06 668.82 36.06 668.82 36.11 669.65 C39.29 715.78 39.29 715.78 39.38 731.62 C39.39 732.63 39.4 733.63 39.42 734.66 C39.37 741.53 37.65 746.05 33.5 751.56 C33.07 752.16 32.65 752.75 32.21 753.36 C31.23 754.68 30.22 755.97 29.19 757.25 C26.92 762.51 27.22 768.45 28.88 773.88 C36.17 781.17 48.97 784.74 59.07 785.11 C60.13 785.11 61.18 785.1 62.27 785.1 C63.43 785.09 64.58 785.09 65.77 785.09 C66.96 785.08 68.15 785.07 69.38 785.06 C70.59 785.06 71.8 785.05 73.05 785.05 C76.03 785.04 79.02 785.02 82 785 C82 778.73 82 772.46 82 766 C86 768 86 768 87 770 C87.28 772.76 87.45 775.51 87.62 778.27 C87.99 780.95 88.65 782.69 90 785 C91.28 784.75 92.56 784.5 93.88 784.25 C94.95 784.04 94.95 784.04 96.05 783.83 C98.12 783.15 98.12 783.15 99.23 781.28 C100.44 777.69 100.46 774.12 100.66 770.36 C100.83 769.19 100.83 769.19 101 768 C101.66 767.67 102.32 767.34 103 767 C105.09 770.7 105.38 773.8 105.66 777.98 C105.84 780.22 105.84 780.22 108 782 C116.03 778.15 116.03 778.15 121 771 C122.51 761.66 119.05 754.84 113.81 747.38 C106.29 736.37 110.29 719.7 111.81 707.12 C111.99 705.58 112.18 704.03 112.36 702.48 C113.76 690.63 115.3 678.81 117 667 C116.18 666.99 115.36 666.97 114.51 666.96 C107.32 666.65 102.14 665.65 95.93 661.96 C95.29 661.64 94.65 661.33 94 661 C93.34 661.33 92.68 661.66 92 662 C92.5 664.97 92.5 664.97 93 668 C81.02 666.2 72.07 664.05 62 657 Z M-31 654 C-31.54 654.74 -32.07 655.47 -32.62 656.23 C-35.37 659.43 -38.36 661.27 -42 663.25 C-42.62 663.6 -43.23 663.95 -43.87 664.31 C-53.76 669.83 -66.76 669.27 -77.62 666.81 C-82.1 665.53 -85.62 663.66 -89.28 660.79 C-91.03 659.74 -91.03 659.74 -93.05 660.74 C-94.65 661.77 -96.21 662.88 -97.75 664 C-100.53 665.71 -102.14 666.42 -105.2 667.12 C-106.46 667.41 -107.71 667.7 -109 668 C-108.85 669.17 -108.71 670.34 -108.56 671.55 C-103.69 710.81 -103.69 710.81 -103.06 725.69 C-103.02 726.64 -102.97 727.6 -102.93 728.59 C-102.7 736.33 -103.5 742.72 -108.44 749 C-113.54 755.98 -115.7 761.7 -115.41 770.45 C-114.72 774.76 -113.37 776.19 -110 779 C-106.82 780.6 -103.62 782 -100 782 C-99.87 781.08 -99.73 780.17 -99.6 779.23 C-99.42 778.04 -99.24 776.85 -99.06 775.62 C-98.89 774.44 -98.71 773.26 -98.54 772.04 C-98 769 -98 769 -97 767 C-96.01 767 -95.02 767 -94 767 C-94.02 768.06 -94.05 769.12 -94.07 770.21 C-94.09 771.6 -94.11 772.99 -94.12 774.38 C-94.14 775.07 -94.16 775.77 -94.18 776.49 C-94.19 778.33 -94.1 780.17 -94 782 C-92.19 784.24 -92.19 784.24 -89.62 784.2 C-88.71 784.17 -87.81 784.15 -86.88 784.12 C-85.96 784.11 -85.05 784.09 -84.12 784.07 C-83.42 784.05 -82.72 784.02 -82 784 C-81.89 783.11 -81.78 782.22 -81.67 781.3 C-81.43 779.54 -81.43 779.54 -81.19 777.75 C-81.04 776.59 -80.89 775.43 -80.73 774.23 C-80 771.02 -79.18 769.42 -77 767 C-76.99 767.88 -76.97 768.76 -76.96 769.67 C-76.91 770.83 -76.86 771.99 -76.81 773.19 C-76.76 774.91 -76.76 774.91 -76.71 776.67 C-75.79 781.01 -74.62 782.45 -71 785 C-68.02 785.69 -65.18 785.66 -62.12 785.56 C-61.29 785.55 -60.45 785.53 -59.58 785.51 C-47.37 785.08 -32.82 782.13 -23.81 773.25 C-21.69 769.45 -21.55 767.56 -22.28 763.37 C-23.54 759.21 -25.72 755.67 -28 752 C-40.02 731.97 -32.41 696.8 -30.44 674.52 C-30.04 669.9 -29.89 665.38 -29.94 660.75 C-29.95 659.47 -29.96 658.18 -29.96 656.86 C-29.98 655.92 -29.99 654.97 -30 654 C-30.33 654 -30.66 654 -31 654 Z M19.88 697.94 C7.98 700.74 -4.97 700.89 -17 699 C-19.67 698.92 -22.32 698.95 -25 699 C-26.2 706.55 -26.46 714.06 -26.72 721.69 C-26.78 723.36 -26.85 725.03 -26.93 726.7 C-27.04 729.13 -27.13 731.55 -27.21 733.98 C-27.25 734.73 -27.29 735.47 -27.33 736.24 C-27.41 739.65 -27.27 741.62 -25.29 744.45 C-22.71 746.2 -21.29 746.58 -18.2 746.74 C-17.22 746.8 -16.25 746.85 -15.25 746.91 C-9.13 747.08 -3.01 747.14 3.12 747.12 C5.08 747.13 5.08 747.13 7.08 747.14 C19.51 747.72 19.51 747.72 31 744 C33.51 736.52 33.09 729.3 32.69 721.5 C32.64 720.33 32.59 719.16 32.54 717.95 C32.6 707.18 32.6 707.18 30 697 C26.43 696.82 23.32 697.09 19.88 697.94 Z " fill="#000000" transform="translate(645,236)"/>
<path d="M0 0 C1.26 0.86 2.51 1.74 3.75 2.62 C4.74 3.28 5.73 3.95 6.75 4.62 C11.65 8.84 14.59 15.07 17.75 20.62 C18.17 21.33 18.58 22.03 19.01 22.76 C24.38 32.54 26.93 44.42 26.81 55.5 C26.8 56.65 26.79 57.8 26.79 58.99 C26.77 59.86 26.76 60.73 26.75 61.62 C25.67 61.61 24.58 61.59 23.47 61.58 C19.39 61.52 15.31 61.49 11.23 61.46 C9.47 61.45 7.72 61.42 5.97 61.4 C-3.54 61.26 -12.19 61.44 -21.44 63.93 C-25.64 64.97 -29.69 65.16 -34 65.12 C-34.81 65.12 -35.63 65.12 -36.47 65.11 C-44.62 64.87 -49.27 62.54 -55.06 56.88 C-58.43 51.87 -60.83 46.89 -61.94 40.94 C-63.68 36.55 -66.18 35.24 -70.16 32.89 C-72.25 31.62 -72.25 31.62 -74.25 29.62 C-74.25 28.3 -74.25 26.99 -74.25 25.62 C-69.38 27.5 -69.38 27.5 -68.25 28.62 C-66.25 28.67 -64.25 28.67 -62.25 28.62 C-63.22 28.03 -64.19 27.43 -65.19 26.81 C-68.25 24.62 -68.25 24.62 -69.25 21.62 C-68.47 21.71 -67.69 21.79 -66.88 21.88 C-65.87 21.98 -64.86 22.08 -63.81 22.19 C-62.8 22.29 -61.79 22.4 -60.75 22.5 C-59.93 22.54 -59.1 22.58 -58.25 22.62 C-57.92 22.29 -57.59 21.97 -57.25 21.62 C-58.57 20.97 -59.89 20.3 -61.25 19.62 C-61.25 18.63 -61.25 17.64 -61.25 16.62 C-60.12 16.67 -58.98 16.71 -57.81 16.75 C-52.26 16.09 -49.94 12.35 -46.52 8.27 C-34.37 -5.85 -16.13 -9.74 0 0 Z M-39.25 11.62 C-41.34 14.76 -41.52 15.6 -41.5 19.19 C-41.51 19.97 -41.51 20.76 -41.52 21.57 C-41.43 23.85 -41.43 23.85 -39.25 25.62 C-36.24 25.96 -34.15 26.18 -31.25 25.62 C-28 22.94 -27.35 21.27 -26.69 17.12 C-27.39 12.77 -28.87 11.35 -32.25 8.62 C-34.72 8.62 -37.17 10.48 -39.25 11.62 Z M-48.25 23.62 C-52.13 31.09 -54.47 38.03 -52.25 46.38 C-49.01 51.63 -44.41 56.13 -38.25 57.62 C-36.01 57.34 -36.01 57.34 -34.25 56.62 C-35.14 56.01 -36.02 55.39 -36.94 54.75 C-45.37 47.51 -46.11 37.62 -46.99 27.21 C-47.12 25.44 -47.12 25.44 -47.25 23.62 C-47.58 23.62 -47.91 23.62 -48.25 23.62 Z M17.75 37.62 C16.75 39.91 15.75 42.21 14.75 44.5 C14.46 45.15 14.18 45.8 13.88 46.47 C12.29 49.92 12.29 49.92 11.75 53.62 C14.72 53.96 17.69 54.28 20.75 54.62 C20.97 48.53 20.76 43.41 18.75 37.62 C18.42 37.62 18.09 37.62 17.75 37.62 Z M-2.25 47.62 C-2.98 47.92 -3.7 48.22 -4.45 48.52 C-7.73 49.81 -10.55 50.04 -14.06 50.25 C-15.8 50.36 -15.8 50.36 -17.58 50.48 C-18.46 50.53 -19.34 50.57 -20.25 50.62 C-20.25 50.96 -20.25 51.28 -20.25 51.62 C-17.85 51.71 -15.46 51.77 -13.06 51.81 C-12.39 51.84 -11.72 51.86 -11.02 51.89 C-6.54 51.95 -3.86 51.29 -0.25 48.62 C-0.91 48.29 -1.57 47.97 -2.25 47.62 Z " fill="#000000" transform="translate(563.25,523.375)"/>
<path d="M0 0 C4.61 3.84 9.53 8.32 12.25 13.75 C14.61 14.22 14.61 14.22 17.31 14.38 C18.23 14.45 19.15 14.52 20.1 14.6 C20.81 14.65 21.52 14.7 22.25 14.75 C20.93 16.4 19.61 18.05 18.25 19.75 C21.88 19.42 25.51 19.09 29.25 18.75 C28.59 20.4 27.93 22.05 27.25 23.75 C24.12 25.06 24.12 25.06 21.25 25.75 C21.25 26.41 21.25 27.07 21.25 27.75 C26 26.6 30.63 25.37 35.25 23.75 C33.89 28.21 32.05 30.1 28.25 32.75 C27.41 33.17 26.57 33.59 25.7 34.02 C22.59 36.22 22.26 37.73 21.31 41.38 C18.45 50.9 13.97 57.07 5.62 62.44 C-2.99 65.79 -11.53 64.66 -20.38 62.88 C-36 59.87 -50.85 58.9 -66.75 60.75 C-67.6 40.32 -61.68 19.97 -48.44 4.19 C-35.16 -9.62 -15.43 -11.41 0 0 Z M-12.75 9.75 C-14.08 13.5 -13.96 15.22 -12.5 18.94 C-10.55 22.27 -10.55 22.27 -7.75 24.75 C-3.69 25.46 -2.21 25.07 1.19 22.69 C3.57 19.87 3.57 19.87 3.31 16.25 C2.16 12.45 1.17 10.44 -1.75 7.75 C-6.36 6.18 -9.07 6.49 -12.75 9.75 Z M7.25 21.75 C7.22 22.88 7.2 24.02 7.17 25.19 C6.71 39.06 3.95 45.58 -5.75 55.75 C-2.19 56.94 -0.83 56.25 2.48 54.69 C8.95 51.26 11.76 46.6 13.86 39.77 C14.99 34.08 13.21 29.62 10.25 24.75 C8.7 23.03 8.7 23.03 7.25 21.75 Z M-58.75 35.75 C-60.38 41.9 -60.95 47.39 -60.75 53.75 C-56.79 53.25 -56.79 53.25 -52.75 52.75 C-52.75 48.91 -53.2 47.14 -54.62 43.69 C-54.97 42.83 -55.32 41.97 -55.68 41.09 C-56.76 38.56 -56.76 38.56 -58.75 35.75 Z M-13.56 45.19 C-22.56 49.6 -30.54 47.59 -39.75 44.75 C-35.46 49.17 -31.74 51.87 -25.44 52.19 C-20.46 52.01 -15.87 50.57 -11.75 47.75 C-10.48 45.7 -10.48 45.7 -9.75 43.75 C-11.13 43.67 -11.13 43.67 -13.56 45.19 Z " fill="#000000" transform="translate(759.75,526.25)"/>
<path d="M0 0 C0.99 0.33 1.98 0.66 3 1 C3.88 3.37 3.88 3.37 4.56 6.44 C4.81 7.53 5.07 8.62 5.32 9.75 C5.89 12.47 6.39 15.2 6.88 17.94 C10.89 38.35 22.94 55.53 40 67 C42.3 68.43 44.61 69.71 47 71 C48.23 71.79 49.46 72.58 50.69 73.38 C65.88 82.9 83.14 88.26 100 94 C101.19 94.41 102.38 94.81 103.61 95.23 C149.32 110.07 196.89 98.3 238.88 77.5 C247.54 73.08 255.32 67.94 263 62 C263.81 61.47 264.62 60.93 265.46 60.38 C279.55 50.84 287.96 32.21 291.31 16.04 C292.33 10.71 293.21 5.37 294 0 C294.99 0.33 295.98 0.66 297 1 C298.61 22.98 291.04 42.36 277 59 C250.58 86.49 201.45 106.28 163.45 108.18 C125.63 108.79 91.18 101.66 57 85 C56.19 84.64 55.38 84.28 54.55 83.9 C30.28 72.69 12.28 54.01 3 29 C-0 19.81 0.37 9.58 0 0 Z " fill="#000000" transform="translate(493,586)"/>
<path d="M0 0 C0.5 2.48 0.5 2.48 1 5 C-2.78 8.17 -6.75 10.82 -10.91 13.44 C-14.67 16.25 -15.83 18.04 -16.65 22.75 C-16.76 24.17 -16.86 25.58 -16.94 27 C-17.01 27.71 -17.07 28.42 -17.14 29.16 C-17.36 32.57 -17.32 34.54 -15.32 37.38 C-9.6 41.39 -3.83 41.99 3 41 C5.67 39.65 6.89 38.26 9 36 C10.67 34.33 12.33 32.67 14 31 C14.33 31 14.66 31 15 31 C15.44 33.56 15.44 33.56 15 37 C11.47 41.99 6.91 45.42 1 47 C-4.92 47.21 -9.61 46.32 -14.88 43.62 C-18.26 42.1 -19.58 41.89 -23.23 42.85 C-25.49 43.78 -27.73 44.74 -29.96 45.73 C-35.69 48.12 -40 47.59 -45.75 45.31 C-49.51 43.46 -51.91 41.74 -54 38 C-54.75 34.19 -54.75 34.19 -55 31 C-50.23 33.51 -50.23 33.51 -49.06 36 C-47.38 39.18 -45.33 39.79 -42 41 C-35.99 41.81 -31.26 41.01 -26 38 C-23.35 34.38 -23.7 30.3 -23.75 26 C-23.74 25.29 -23.73 24.58 -23.73 23.84 C-23.7 18.56 -23.7 18.56 -26 14 C-28.25 12.59 -28.25 12.59 -30.88 11.5 C-37.78 8.23 -37.78 8.23 -40 5 C-40.05 3.33 -40.06 1.67 -40 0 C-39.05 0.01 -38.1 0.01 -37.13 0.02 C-33.6 0.03 -30.07 0.05 -26.55 0.05 C-25.02 0.06 -23.5 0.07 -21.97 0.08 C-19.78 0.09 -17.59 0.09 -15.39 0.1 C-14.07 0.1 -12.75 0.11 -11.39 0.11 C-0.75 -0.24 -0.75 -0.24 0 0 Z " fill="#000000" transform="translate(661,603)"/>
<path d="M0 0 C0.76 0.03 1.53 0.05 2.31 0.08 C7.48 0.36 11.39 1.22 15.94 3.75 C17.38 5.94 17.38 5.94 17.94 7.75 C17.36 7.55 16.78 7.34 16.18 7.13 C15.01 6.72 15.01 6.72 13.81 6.31 C13.05 6.05 12.28 5.78 11.49 5.5 C5.27 3.67 -0.47 3.68 -6.88 4 C-7.73 4.03 -8.58 4.05 -9.46 4.08 C-15.42 4.36 -20.51 5.58 -26.06 7.75 C-25.79 5.86 -25.79 5.86 -25.06 3.75 C-16.92 -0.11 -8.86 -0.5 0 0 Z " fill="#000000" transform="translate(646.0625,591.25)"/>
<path d="M0 0 C2.86 0.98 3.97 1.96 5.75 4.44 C7.43 9.24 7.81 13.96 7 19 C5.48 20.83 5.48 20.83 4 22 C2.96 18.88 2.99 16.94 3.12 13.69 C3.19 8.98 2.51 6.07 0 2 C0 1.34 0 0.68 0 0 Z " fill="#000000" transform="translate(725,726)"/>
<path d="M0 0 C5.93 5.78 5.93 5.78 6.17 9.9 C6.17 11.05 6.18 12.19 6.19 13.38 C6.2 14.52 6.22 15.66 6.23 16.84 C6.01 19.84 5.57 21.48 4 24 C3.34 23.67 2.68 23.34 2 23 C2.11 22.35 2.21 21.69 2.32 21.02 C3.32 13.4 2.26 7.3 0 0 Z " fill="#000000" transform="translate(755,742)"/>
<path d="M0 0 C0.66 0.33 1.32 0.66 2 1 C2.34 6.48 1.64 10.17 -1 15 C-3.92 17.84 -6.07 19.15 -10 20 C-8.64 18.67 -8.64 18.67 -7.25 17.31 C-2.91 12.33 -1.61 6.28 0 0 Z " fill="#000000" transform="translate(660,734)"/>
<path d="M0 0 C0.66 0.33 1.32 0.66 2 1 C2.63 6.06 0.64 9.83 -2 14 C-4.63 16.55 -5.31 17 -9 17 C-8 14 -8 14 -5.62 11.88 C-2.3 8.23 -1.26 4.7 0 0 Z " fill="#000000" transform="translate(687,818)"/>
<path d="M0 0 C0.66 0 1.32 0 2 0 C1.37 9.9 1.37 9.9 -2 14 C-4.69 15.81 -4.69 15.81 -7 17 C-6.44 13.48 -4.79 10.85 -2.99 7.82 C-1.63 5.32 -0.8 2.72 0 0 Z " fill="#000000" transform="translate(692,763)"/>
<path d="M0 0 C0.33 0 0.66 0 1 0 C1.42 6.06 1.12 9.19 -3 14 C-5.25 15.38 -5.25 15.38 -7 16 C-5.57 12.34 -4.01 8.76 -2.38 5.19 C-1.93 4.21 -1.48 3.24 -1.02 2.23 C-0.52 1.13 -0.52 1.13 0 0 Z " fill="#000000" transform="translate(695,801)"/>
<path d="M0 0 C0.99 0 1.98 0 3 0 C6 5.75 6 5.75 6 8 C6.64 8.27 7.28 8.54 7.94 8.81 C10 10 10 10 11 13 C8.71 12.81 8.71 12.81 6 12 C4.2 9.79 4.2 9.79 2.69 7.06 C2.18 6.17 1.66 5.27 1.14 4.35 C0 2 0 2 0 0 Z " fill="#000000" transform="translate(597,800)"/>
<path d="M0 0 C-1.01 2.94 -1.96 3.98 -4.56 5.75 C-8.85 7.31 -12.49 7.27 -17 7 C-16.67 6.34 -16.34 5.68 -16 5 C-13.53 4.39 -11.06 4.04 -8.54 3.66 C-5.26 2.81 -3.29 0 0 0 Z " fill="#000000" transform="translate(645,910)"/>
<path d="M0 0 C0.99 0.33 1.98 0.66 3 1 C2.91 2.44 2.8 3.88 2.69 5.31 C2.63 6.11 2.57 6.91 2.51 7.74 C1.91 10.39 1.14 11.37 -1 13 C-1.66 13 -2.32 13 -3 13 C-2.69 12.15 -2.38 11.31 -2.06 10.44 C-0.98 6.95 -0.43 3.62 0 0 Z " fill="#000000" transform="translate(638,712)"/>
<path d="M0 0 C2.37 2.37 2.92 4.22 4 7.38 C5.15 10.71 6.34 13.88 8 17 C5.3 15.99 4.19 15.33 2.73 12.79 C2.41 11.93 2.08 11.07 1.75 10.19 C1.25 8.91 1.25 8.91 0.73 7.61 C-0.02 4.94 -0.14 2.75 0 0 Z " fill="#000000" transform="translate(610,818)"/>
<path d="M0 0 C-1.69 2.04 -2.64 2.92 -5.26 3.51 C-6.06 3.57 -6.86 3.63 -7.69 3.69 C-8.5 3.75 -9.3 3.82 -10.14 3.89 C-10.75 3.92 -11.37 3.96 -12 4 C-12 3.34 -12 2.68 -12 2 C-8.1 -0.6 -4.53 -0.15 0 0 Z " fill="#000000" transform="translate(904,385)"/>
<path d="M0 0 C0 2 0 2 -2.38 4.44 C-3.24 5.28 -4.11 6.13 -5 7 C-5.99 8.49 -5.99 8.49 -7 10 C-7.66 10 -8.32 10 -9 10 C-7.81 5.26 -5.67 0 0 0 Z " fill="#000000" transform="translate(557,701)"/>
<path d="M0 0 C0.66 0 1.32 0 2 0 C3.16 3.47 3.07 6.36 3 10 C2.34 10 1.68 10 1 10 C0 3.38 0 3.38 0 0 Z " fill="#000000" transform="translate(775,807)"/>
<path d="M0 0 C0 0.66 0 1.32 0 2 C-6.4 5.08 -6.4 5.08 -9.44 4.69 C-9.95 4.46 -10.47 4.23 -11 4 C-7.25 1.67 -4.51 0 0 0 Z " fill="#000000" transform="translate(883,392)"/>
<path d="M0 0 C3.36 1.12 4.58 2.5 7 5 C7.66 5.33 8.32 5.66 9 6 C8.67 6.66 8.34 7.32 8 8 C2.34 5.66 2.34 5.66 0.62 2.31 C0.42 1.55 0.21 0.79 0 0 Z " fill="#000000" transform="translate(679,743)"/>
<path d="M0 0 C0.66 0 1.32 0 2 0 C2.99 2.97 3.98 5.94 5 9 C4.01 8.67 3.02 8.34 2 8 C0.55 5.1 0 3.26 0 0 Z " fill="#000000" transform="translate(596,746)"/>
<path d="M0 0 C0.33 0.99 0.66 1.98 1 3 C-0.44 5.19 -0.44 5.19 -2 7 C-2.99 6.67 -3.98 6.34 -5 6 C-4.34 5.67 -3.68 5.34 -3 5 C-2.3 3.68 -1.63 2.35 -1 1 C-0.67 0.67 -0.34 0.34 0 0 Z " fill="#000000" transform="translate(637,862)"/>
<path d="M0 0 C0.99 0 1.98 0 3 0 C2.19 1.94 2.19 1.94 1 4 C0.01 4.33 -0.98 4.66 -2 5 C-1.12 1.12 -1.12 1.12 0 0 Z " fill="#000000" transform="translate(582,768)"/>
<path d="M0 0 C0.99 0.5 0.99 0.5 2 1 C2 3.31 2 5.62 2 8 C1.34 8 0.68 8 0 8 C0 5.36 0 2.72 0 0 Z " fill="#000000" transform="translate(694,693)"/>
<path d="M0 0 C0.33 0.99 0.66 1.98 1 3 C-1 5 -1 5 -3.62 5.12 C-4.41 5.08 -5.19 5.04 -6 5 C-5.2 4.36 -4.39 3.72 -3.56 3.06 C-1.72 1.59 -1.72 1.59 0 0 Z " fill="#000000" transform="translate(552,691)"/>
<path d="M0 0 C0.66 0.66 1.32 1.32 2 2 C1.34 3.98 0.68 5.96 0 8 C-0.66 8 -1.32 8 -2 8 C-2 6.68 -2 5.36 -2 4 C-1.34 4 -0.68 4 0 4 C0 2.68 0 1.36 0 0 Z " fill="#000000" transform="translate(736,683)"/>
<path d="M0 0 C2 1.38 2 1.38 4 3 C4 3.66 4 4.32 4 5 C2.68 4.34 1.36 3.68 0 3 C0 2.01 0 1.02 0 0 Z " fill="#000000" transform="translate(520,763)"/>
<path d="M0 0 C1.32 0.66 2.64 1.32 4 2 C4 2.66 4 3.32 4 4 C2.68 3.67 1.36 3.34 0 3 C0 2.01 0 1.02 0 0 Z " fill="#000000" transform="translate(747,672)"/>
<path d="M0 0 C1.98 0.99 1.98 0.99 4 2 C4 2.99 4 3.98 4 5 C3.34 5 2.68 5 2 5 C1.34 3.35 0.68 1.7 0 0 Z " fill="#000000" transform="translate(333,409)"/>
<path d="M0 0 C1.49 0.99 1.49 0.99 3 2 C3 2.99 3 3.98 3 5 C2.34 5 1.68 5 1 5 C0.67 3.35 0.34 1.7 0 0 Z " fill="#000000" transform="translate(639,880)"/>
<path d="M0 0 C0.99 0.33 1.98 0.66 3 1 C3 1.99 3 2.98 3 4 C2.34 4 1.68 4 1 4 C0.67 2.68 0.34 1.36 0 0 Z " fill="#000000" transform="translate(691,687)"/>
<path d="M0 0 C0.66 0 1.32 0 2 0 C2 1.32 2 2.64 2 4 C1.34 4 0.68 4 0 4 C0 2.68 0 1.36 0 0 Z " fill="#000000" transform="translate(519,758)"/>
<path d="M0 0 C0.66 0 1.32 0 2 0 C1.34 1.32 0.68 2.64 0 4 C-0.66 3.67 -1.32 3.34 -2 3 C-1.34 2.01 -0.68 1.02 0 0 Z " fill="#000000" transform="translate(582,741)"/>
<path d="M0 0 C0.99 0.33 1.98 0.66 3 1 C3 1.66 3 2.32 3 3 C2.01 2.67 1.02 2.34 0 2 C0 1.34 0 0.68 0 0 Z " fill="#000000" transform="translate(772,802)"/>
<path d="M0 0 C0.66 0 1.32 0 2 0 C1.67 0.99 1.34 1.98 1 3 C0.34 3 -0.32 3 -1 3 C-0.67 2.01 -0.34 1.02 0 0 Z " fill="#000000" transform="translate(597,732)"/>
<path d="M0 0 C0.66 0 1.32 0 2 0 C2 0.99 2 1.98 2 3 C1.34 3 0.68 3 0 3 C0 2.01 0 1.02 0 0 Z " fill="#000000" transform="translate(584,764)"/>
<path d="M0 0 C0.99 0.33 1.98 0.66 3 1 C2.01 1.33 1.02 1.66 0 2 C0 1.34 0 0.68 0 0 Z " fill="#000000" transform="translate(681,779)"/>
<path d="M0 0 C0.66 0 1.32 0 2 0 C2 0.66 2 1.32 2 2 C1.34 2 0.68 2 0 2 C0 1.34 0 0.68 0 0 Z " fill="#000000" transform="translate(643,885)"/>
<path d="M0 0 C0.66 0 1.32 0 2 0 C2 0.66 2 1.32 2 2 C1.34 2 0.68 2 0 2 C0 1.34 0 0.68 0 0 Z " fill="#000000" transform="translate(597,797)"/>
<path d="M0 0 C0.66 0.66 1.32 1.32 2 2 C1.01 1.67 0.02 1.34 -1 1 C-0.67 0.67 -0.34 0.34 0 0 Z " fill="#000000" transform="translate(522,751)"/>
<path d="M0 0 C0.66 0 1.32 0 2 0 C2 0.66 2 1.32 2 2 C1.34 2 0.68 2 0 2 C0 1.34 0 0.68 0 0 Z " fill="#000000" transform="translate(595,743)"/>
<path d="M0 0 C0.66 0 1.32 0 2 0 C2 0.66 2 1.32 2 2 C1.34 2 0.68 2 0 2 C0 1.34 0 0.68 0 0 Z " fill="#000000" transform="translate(595,740)"/>
<path d="M0 0 C0.66 0 1.32 0 2 0 C2 0.66 2 1.32 2 2 C1.34 2 0.68 2 0 2 C0 1.34 0 0.68 0 0 Z " fill="#000000" transform="translate(540,729)"/>
<path d="M0 0 C0.66 0 1.32 0 2 0 C2 0.66 2 1.32 2 2 C1.34 2 0.68 2 0 2 C0 1.34 0 0.68 0 0 Z " fill="#000000" transform="translate(733,710)"/>
<path d="M0 0 C0.66 0 1.32 0 2 0 C2 0.66 2 1.32 2 2 C1.34 2 0.68 2 0 2 C0 1.34 0 0.68 0 0 Z " fill="#000000" transform="translate(737,705)"/>
<path d="M0 0 C0.99 0.5 0.99 0.5 2 1 C1.34 1.66 0.68 2.32 0 3 C0 2.01 0 1.02 0 0 Z " fill="#000000" transform="translate(606,694)"/>
<path d="M0 0 C0.66 0.66 1.32 1.32 2 2 C1.01 1.67 0.02 1.34 -1 1 C-0.67 0.67 -0.34 0.34 0 0 Z " fill="#000000" transform="translate(887,389)"/>
<path d="M0 0 C0.66 0 1.32 0 2 0 C2 0.66 2 1.32 2 2 C1.34 2 0.68 2 0 2 C0 1.34 0 0.68 0 0 Z " fill="#000000" transform="translate(368,381)"/>
<path d="M0 0 C0.66 0 1.32 0 2 0 C1.67 0.66 1.34 1.32 1 2 C0.67 1.34 0.34 0.68 0 0 Z " fill="#000000" transform="translate(675,834)"/>
<path d="M0 0 C0.66 0.66 1.32 1.32 2 2 C1.34 2 0.68 2 0 2 C0 1.34 0 0.68 0 0 Z " fill="#000000" transform="translate(578,772)"/>
<path d="M0 0 C0.66 0 1.32 0 2 0 C1.67 0.66 1.34 1.32 1 2 C0.67 1.34 0.34 0.68 0 0 Z " fill="#000000" transform="translate(606,698)"/>
<path d="M0 0 C0.33 0.66 0.66 1.32 1 2 C0.34 1.67 -0.32 1.34 -1 1 C-0.67 0.67 -0.34 0.34 0 0 Z " fill="#000000" transform="translate(734,692)"/>
<path d="M0 0 C0.66 0.66 1.32 1.32 2 2 C1.34 2 0.68 2 0 2 C0 1.34 0 0.68 0 0 Z " fill="#000000" transform="translate(364,380)"/>
<path d="M0 0 C2 1 2 1 2 1 Z " fill="#000000" transform="translate(756,766)"/>
<path d="M0 0 C2 1 2 1 2 1 Z " fill="#000000" transform="translate(584,738)"/>
<path d="" fill="#000000" transform="translate(0,0)"/>
</svg>
