<?xml version="1.0" encoding="iso-8859-1"?>
<!-- Generator: Adobe Illustrator 26.0.3, SVG Export Plug-In . SVG Version: 6.00 Build 0)  -->
<svg version="1.1" id="Layer_19" xmlns="http://www.w3.org/2000/svg" xmlns:xlink="http://www.w3.org/1999/xlink" x="0px" y="0px"
	 width="532.835px" height="532.472px" viewBox="0 0 532.835 532.472" enable-background="new 0 0 532.835 532.472"
	 xml:space="preserve">
<path d="M514.033,48.607c-6.828-8.41-14.952-15.194-24.118-20.783c-20.183-12.305-42.09-16.728-65.319-12.683
	c-21.479,3.741-40.439,13.325-56.806,27.718c-14.917,13.119-27.142,28.224-32.83,47.735c-0.615,2.11-1.738,2.631-3.811,2.459
	c-7.13-0.59-14.267-1.171-21.413-1.476c-14.844-0.633-29.698-0.424-44.553-0.364c-14.741,0.059-29.4,1.209-44.073,2.337
	c-5.789,0.445-11.593,0.717-17.369,1.291c-2.203,0.219-3.193-0.531-3.77-2.535c-0.746-2.591-1.72-5.115-2.552-7.682
	c-7.38-22.756-20.718-41.683-37.562-58.334c-3.749-3.706-7.862-7.019-12.223-9.987C130.473,4.622,111.809-1.933,90.78,0.506
	C61.096,3.949,36.463,16.764,19.638,41.892c-24.315,36.312-26.4,74.236-4.299,112.214c12.717,21.854,32.398,36.292,56.012,45.144
	c11.572,4.338,23.615,7.254,36.017,6.745c19.676-0.808,38.398-5.617,55.637-15.485c1.006-0.576,1.897-1.534,3.244-1.388
	c0.669,1.229,0.852,2.57,1.023,3.906c1.322,10.307,2.669,20.611,3.939,30.925c3.877,31.493,8.852,62.807,15.078,93.925
	c6.327,31.625,12.588,63.264,18.804,94.911c0.481,2.448,1.356,4.909,1.041,7.934c-4.285-1.232-8.276-2.317-12.229-3.526
	c-15.868-4.852-31.95-9.031-47.44-15.072c-0.754-0.294-1.513-0.607-2.299-0.783c-2.141-0.482-3.919,0.368-4.691,2.168
	c-0.764,1.781-0.138,3.579,1.773,4.846c0.668,0.443,1.426,0.767,2.172,1.076c2.991,1.24,5.965,2.531,8.998,3.663
	c17.212,6.425,34.902,11.35,52.516,16.489c3.116,0.909,4.508,2.451,4.661,5.488c0.033,0.653,0.412,1.285,0.073,2.047
	c-1.407,0.749-3.058,0.764-4.637,0.932c-16.912,1.796-33.835,3.484-50.74,5.345c-3.377,0.372-6.756,0.025-10.102,0.452
	c-2.465,0.315-3.79,1.898-3.673,4.022c0.11,1.979,1.384,3.291,3.734,3.499c2.552,0.225,5.134,0.456,7.682,0.312
	c15.637-0.883,31.251-2.038,46.778-4.188c3.742-0.518,7.524-0.739,11.279-1.178c2.033-0.238,2.618,0.909,2.774,2.581
	c0.133,1.426,1.463,2.758-0.834,4.084c-15.317,8.841-30.765,17.446-46.226,26.028c-3.186,1.769-6.405,3.483-9.547,5.327
	c-2.198,1.29-2.84,3.185-1.948,5.088c0.873,1.863,2.828,2.649,5.152,1.904c1.277-0.409,2.505-1.009,3.698-1.632
	c16.751-8.751,33.564-17.39,49.726-27.219c0.848-0.515,1.611-1.485,2.957-0.957c0.331,1.264,0.686,2.562,1.011,3.867
	c1.925,7.728,3.765,15.495,6.647,22.927c1.131,2.916,1.017,5.031-0.829,7.719c-3.787,5.516-4.951,11.687-2.033,18.046
	c2.232,4.865,5.562,8.93,9.965,12.036c14.957,10.55,36.27,7.68,47.914-6.441c2-2.426,3.515-5.081,4.131-8.23
	c1.626-8.31-1.145-15.126-6.974-20.929c-2.281-2.271-2.353-2.29-0.746-4.896c5.335-8.654,9.548-17.84,13.119-27.338
	c0.365-0.972,0.467-2.093,1.481-2.756c1.511,0.416,2.495,1.593,3.628,2.512c9.255,7.511,19.019,14.239,29.717,19.553
	c7.253,3.603,14.492,7.235,21.756,10.818c1.082,0.533,2.228,1.035,3.4,1.26c1.914,0.367,3.461-0.425,4.411-2.132
	c0.967-1.738,0.638-3.381-0.639-4.859c-0.819-0.947-1.936-1.457-3.022-1.995c-2.903-1.438-5.805-2.878-8.731-4.267
	c-16.269-7.72-31.874-16.536-46.013-27.782c-0.706-0.561-1.974-0.898-1.647-2.032c0.399-1.384,1.75-0.942,2.776-0.893
	c0.804,0.039,1.602,0.227,2.397,0.375c3.45,0.641,6.886,1.367,10.348,1.927c14.92,2.414,29.888,4.53,44.753,7.285
	c2.388,0.443,4.779,0.952,7.192,1.155c2.529,0.213,4.363-1.271,4.754-3.455c0.394-2.203-0.808-4.142-3.241-4.909
	c-1.408-0.444-2.897-0.632-4.355-0.913c-17.236-3.313-34.621-5.668-51.99-8.13c-3.143-0.445-6.423-0.488-9.582-1.875
	c1.546-4.625,3.102-9.078,4.503-13.58c0.49-1.575,1.361-2.033,2.923-2.107c11.499-0.54,22.732-2.973,34.055-4.801
	c7.303-1.18,14.469-3.226,21.967-3.267c3.341-0.018,4.866-3.635,3.08-6.616c-1.287-2.148-3.306-2.672-5.592-2.398
	c-2.142,0.256-4.273,0.627-6.397,1.016c-13.272,2.43-26.538,4.896-39.815,7.306c-2.086,0.379-4.205,0.864-6.653,0.192
	c0.84-2.686,1.636-5.244,2.439-7.801c8.66-27.549,15.974-55.498,24.778-83.006c13.543-42.312,25.203-85.131,34.184-128.66
	c0.203-0.985-0.049-2.19,0.975-2.884c1.214-0.018,2.129,0.607,3.106,1.02c8.088,3.424,16.349,6.352,24.777,8.824
	c10.817,3.173,21.841,5.168,33.126,4.896c22.938-0.553,44.112-7.178,63.526-19.343c11.399-7.143,20.662-16.382,27.368-28.183
	c8.907-15.674,13.713-32.509,14.925-50.42C534.106,85.354,527.985,65.793,514.033,48.607z M511.702,150.491
	c-5.583,10.634-13.165,19.412-23.122,26.096c-19.468,13.069-40.943,19.911-64.401,19.941c-12.817,0.016-25.101-3.284-37.165-7.398
	c-6.137-2.092-12.127-4.549-18.095-7.07c-1.235-0.522-2.504-1.097-3.811-1.292c-4.615-0.691-7.212,1.174-8.052,5.781
	c-5.867,32.169-14.357,63.7-23.317,95.105c-9.293,32.57-20.091,64.689-29.214,97.316c-7.161,25.608-15.7,50.791-24.677,75.818
	c-3.289,9.168-7.345,17.99-12.527,26.267c-1.858,2.967-1.845,3.007-4.979,1.99c-6.294-2.045-12.691-2.349-19.205-1.332
	c-3.19,0.498-6.433,0.64-9.314,2.388c-1.722,1.044-2.649,0.263-3.229-1.534c-2.159-6.684-3.896-13.481-5.577-20.292
	c-8.928-36.176-15.664-72.811-22.831-109.355c-4.207-21.452-8.312-42.924-12.478-64.384c-3.243-16.703-5.364-33.579-7.802-50.405
	c-2.4-16.557-3.888-33.249-7.329-49.652c-0.47-2.241-0.987-4.476-1.594-6.683c-1.033-3.752-3.735-4.752-7.087-2.665
	c-1.601,0.997-3.122,2.129-4.752,3.075c-12.677,7.362-26.564,11.186-40.851,13.733c-22.355,3.985-42.81-1.808-62.198-12.526
	c-6.516-3.602-12.314-8.28-17.943-13.147C10.839,144.926,0.791,102.083,16.764,64.873C29.788,34.53,52.695,16.297,85.1,10.066
	c19.108-3.675,36.709,0.558,53.133,10.543c4.744,2.884,9.225,6.149,13.277,9.938c16.939,15.838,30.048,34.239,37.47,56.408
	c1.413,4.222,2.762,8.469,4.287,12.652c1.153,3.164,2.709,4.193,5.839,3.776c7.245-0.967,14.549-0.835,21.82-1.311
	c18.051-1.182,36.115-2.105,54.212-2.28c17.429-0.169,34.83,0.299,52.203,1.718c2.691,0.22,5.385,0.411,8.074,0.656
	c2.313,0.211,3.923-0.709,4.807-2.858c0.513-1.247,1.068-2.484,1.475-3.767c6.168-19.461,18.443-34.655,33.676-47.658
	c13.48-11.507,29.029-19.328,46.262-23.218c21.836-4.929,42.678-1.568,62.098,9.67c10.029,5.804,18.666,13.196,25.645,22.598
	c9.858,13.28,14.901,27.996,14.585,44.548C523.711,118.773,519.772,135.119,511.702,150.491z M454.015,117.056
	c-0.229,10.734-4.801,19.823-12.224,27.47c-9.415,9.699-22.977,15.214-36.844,15.118c-8.975-0.075-17.359-2.272-24.998-7.056
	c-18.394-11.518-23.914-34.126-12.68-52.709c8.066-13.342,20.301-20.591,35.48-23.05c11.187-1.812,21.875,0.006,31.621,5.794
	C447.345,90.328,454.34,101.791,454.015,117.056z M177.104,128.156c0.862,8.824-4.282,15.489-12.18,20.882
	c-11.78,8.044-25.009,10.559-38.844,10.264c-18.198-0.387-34.313-13.809-37.731-31.022c-1.662-8.372-0.434-16.372,4.059-23.756
	c7.021-11.541,17.79-17.743,30.426-21.163c7.528-2.038,15.141-2.38,22.81-0.538c12.016,2.887,20.143,10.541,25.728,21.134
	C175.129,111.085,177.15,118.752,177.104,128.156z M228.481,244.916c0.567,1.736,0.394,3.479-0.357,5.119
	c-2.021,4.414-5.897,6.129-10.353,6.614c-8.316,0.906-13.548-10.493-9.311-16.939c2.551-3.88,7.53-5.188,11.806-3.628
	C224.457,237.611,227.108,240.713,228.481,244.916z M318.197,245.738c-0.067,5.581-4.718,9.688-10.851,9.582
	c-5.395-0.093-10.639-5.349-10.396-10.419c0.233-4.871,6.372-10.019,11.74-9.845C313.937,235.225,318.265,240.089,318.197,245.738z
	 M257.868,139.31c0.477,4.543,0.617,9.127,0.207,13.68c-0.205,2.273-1.887,3.497-3.815,3.303c-1.803-0.182-2.811-1.372-2.906-3.697
	c-0.141-3.464-0.13-6.977-0.146-10.447c-0.01-2.264,0.129-5.956,3.148-6.095C255.992,135.979,257.653,137.256,257.868,139.31z
	 M287.29,126.457c-0.834,3.37-0.462,7.142-0.68,10.878c-0.146,2.512-1.307,3.802-3.204,3.9c-2.043,0.106-3.511-1.348-3.546-3.964
	c-0.042-3.208,0.146-6.424,0.354-9.628c0.077-1.184,0.373-2.396,1.112-3.398c0.944-1.281,2.15-2.037,3.801-1.522
	C286.781,123.237,287.393,124.474,287.29,126.457z M198.865,152.455c0.124,1.676,0.226,3.469,0.265,5.248
	c0.036,1.665,0.016,3.318-0.091,4.851c-0.156,2.23-1.631,3.658-3.552,3.633c-1.832-0.023-3.158-1.195-3.231-3.404
	c-0.115-3.496-0.074-7.011,0.154-10.501c0.145-2.213,1.548-3.384,3.324-3.341C197.523,148.983,198.697,150.196,198.865,152.455z
	 M331.119,144.081c-1.77-0.023-3.211-1.353-3.194-3.49c0.026-3.364,0.315-6.736,0.687-10.083c0.199-1.791,1.392-2.968,3.304-2.899
	c1.907,0.068,2.932,1.28,3.067,3.124c0.108,1.476,0.022,2.966,0.022,4.275c-0.111,2.194,0.035,4.233-0.485,6.215
	C334.062,142.968,333.044,144.106,331.119,144.081z M219.239,135.815c-0.39-3.453-0.57-6.951-0.196-10.415
	c0.219-2.038,1.845-3.328,3.532-3.098c3.468,0.474,2.926,4.719,2.998,7.32c0.055,2.011,0.326,3.97,0.232,5.992
	c-0.087,1.859-1.156,2.976-2.971,3.236C221.116,139.095,219.469,137.847,219.239,135.815z M225.707,160.699
	c0.338,0.581,0.471,1.258,0.545,1.926c0.318,2.856,0.373,6.383-0.019,9.234c-0.293,2.132-1.648,3.268-3.444,3.222
	c-1.786-0.046-3.173-1.233-3.23-3.415c-0.083-3.197,0.11-6.413,0.394-9.603c0.145-1.625,1.305-2.625,3.01-2.669
	C224.034,159.366,225.144,159.732,225.707,160.699z M279.28,161.784c1.094,1.845,0.743,3.894,0.815,6.188
	c-0.094,1.168-0.068,2.665-0.368,4.093c-0.369,1.754-1.587,2.868-3.439,2.739c-1.844-0.129-2.904-1.351-3.023-3.178
	c-0.191-2.935,0.233-5.872-0.034-8.825c-0.133-1.471,0.906-2.52,2.371-2.833C277.244,159.62,278.453,160.389,279.28,161.784z
	 M305.897,158.301c-1.143-3.681-1.324-11.259,2.769-11.656c1.679-0.163,2.927,0.801,3.311,2.345
	c0.781,3.139,0.707,6.375,0.188,9.539c-0.257,1.562-1.55,2.526-3.229,2.442c-1.061-0.053-1.962-0.423-2.507-1.378
	C306.239,159.26,306.059,158.819,305.897,158.301z M254.321,189.225c0.233,1.78,0.261,2.968-0.157,4.147
	c-0.511,1.442-1.563,2.218-3.017,2.229c-1.279,0.01-2.397-0.634-2.84-1.889c-1.093-3.095-0.977-6.328-0.627-9.509
	c0.138-1.259,1.377-1.955,2.702-1.994c1.498-0.045,2.519,0.785,3.183,2.066C254.466,186.017,254.125,187.956,254.321,189.225z
	 M337.526,163.014c0.331,2.549,0.427,5.53-0.057,8.055c-0.319,1.666-1.519,2.547-3.185,2.534c-1.69-0.013-2.922-1.003-3.117-2.63
	c-0.336-2.804-0.431-5.663,0.264-8.435c0.401-1.6,1.595-2.511,3.311-2.383C336.722,160.302,337.333,161.531,337.526,163.014z
	 M205.039,193.722c-0.559-1.887-0.816-4.081-0.763-6.04c0.045-1.654,0.736-3.162,2.49-3.5c1.686-0.325,3.212,0.68,3.879,2.751
	c0.621,1.927,0.761,3.963,0.702,5.969c-0.047,1.596-0.852,2.846-2.588,3.122C206.893,196.322,205.56,195.481,205.039,193.722z
	 M300.176,183.971c0.185-1.799,1.131-3.462,3.126-3.439c1.938,0.022,2.993,1.202,3.266,2.963c0.225,1.449,0.292,2.968,0.124,4.42
	c-0.238,2.059-1.733,3.272-3.51,3.171C299.453,190.874,299.907,186.594,300.176,183.971z"/>
<g>
</g>
<g>
</g>
<g>
</g>
<g>
</g>
<g>
</g>
<g>
</g>
</svg>
