<?xml version="1.0" encoding="utf-8"?>
<!-- Generator: Adobe Illustrator 23.0.1, SVG Export Plug-In . SVG Version: 6.00 Build 0)  -->
<svg version="1.1" id="Layer_1" xmlns="http://www.w3.org/2000/svg" xmlns:xlink="http://www.w3.org/1999/xlink" x="0px" y="0px"
	 viewBox="0 0 864 864" style="enable-background:new 0 0 864 864;" xml:space="preserve">
<style type="text/css">
	.st0{fill:#050505;}
</style>
<g>
	<g>
		<g>
			<g>
				<path class="st0" d="M172.74,228.45c-2.94,0-4.52-1.68-5.11-2.48l0,0c-20.91-28.76,1.66-117.56,32.17-153.8
					c13.27-15.76,25.54-23.77,36.46-23.8c0.02,0,0.04,0,0.06,0c8.42,0,12.73,4.77,13.2,5.32c1.39,1.63,1.23,4.06-0.36,5.5
					c-0.05,0.04-5.64,5.18-9.53,13.51c-2.18,4.67,3.74,23.31,10.47,37.91c0.58,1.27,0.46,2.75-0.34,3.9
					c-0.8,1.15-2.12,1.78-3.53,1.69c-0.24-0.03-6.36-0.31-9.31,4.34c-1.05,1.64,0.35,6.8,1.58,11.36c2.05,7.57,4.59,17,1.97,26.36
					c-4.19,14.96-51.65,67.45-66.19,70.06C173.74,228.4,173.22,228.45,172.74,228.45z"/>
			</g>
		</g>
	</g>
	<g>
		<g>
			<path class="st0" d="M327.33,336.09c-2.58-0.07-4.87,1.82-5.04,4.43c0,0.1-0.02,0.91-0.02,1.01
				c-0.01,12.61-2.83,42.09-28.57,43.26c-5.23,0.21-9.73-1.38-13.48-4.96c-12.79-12.21-12.98-41.71-12.98-42
				c0-2.62-2.13-4.74-4.74-4.74c0,0,0,0,0,0c-2.62,0-4.74,2.13-4.74,4.74c0,0.21,0.01,1.18,0.07,2.63l-14.06-3.2
				c-2.54-0.59-5.09,1.02-5.68,3.58c-0.58,2.55,1.02,5.1,3.58,5.68l8.72,1.98l-7.82,3.57c-2.39,1.09-3.43,3.9-2.35,6.29
				c0.8,1.75,2.52,2.77,4.32,2.77c0.66,0,1.32-0.14,1.96-0.43l12.89-5.88c1.85,10.63,5.79,23.76,14.26,31.85
				c5.29,5.06,11.68,7.62,19.01,7.62c0.48,0,0.97-0.01,1.47-0.03c23.52-1.07,37.58-20.78,37.63-53.22
				C331.88,338.47,329.92,336.26,327.33,336.09z"/>
		</g>
	</g>
	<g>
		<g>
			<g>
				<circle class="st0" cx="421.73" cy="408.09" r="18.53"/>
			</g>
		</g>
	</g>
	<g>
		<g>
			<circle class="st0" cx="708.1" cy="649.72" r="8.67"/>
		</g>
	</g>
	<g>
		<g>
			<circle class="st0" cx="672.91" cy="689.51" r="9.86"/>
		</g>
	</g>
	<g>
		<g>
			<circle class="st0" cx="679.22" cy="644.2" r="6.31"/>
		</g>
	</g>
	<g>
		<g>
			<circle class="st0" cx="702.49" cy="679.65" r="7.14"/>
		</g>
	</g>
	<g>
		<g>
			<circle class="st0" cx="725.19" cy="621.07" r="8.41"/>
		</g>
	</g>
	<g>
		<g>
			<circle class="st0" cx="150.99" cy="490.66" r="15.53"/>
		</g>
	</g>
	<g>
		<g>
			<circle class="st0" cx="142.16" cy="528.66" r="6.7"/>
		</g>
	</g>
	<g>
		<g>
			<circle class="st0" cx="173.22" cy="528.66" r="6.7"/>
		</g>
	</g>
	<g>
		<g>
			<circle class="st0" cx="162.1" cy="569.35" r="11.11"/>
		</g>
	</g>
	<g>
		<g>
			<circle class="st0" cx="194.38" cy="496.18" r="5.51"/>
		</g>
	</g>
	<g>
		<g>
			<circle class="st0" cx="202.3" cy="561.43" r="7.92"/>
		</g>
	</g>
	<path class="st0" d="M787.37,518.46c4.76-8.31,14.15-26.39,15.12-41.01c0.31-4.68-1.23-8.86-4.46-12.08
		c-7.26-7.24-21.51-8.26-28.99-8.26c-0.05,0-0.09,0-0.14,0c0.57-10.4,1.73-36.5-0.31-47.7c-2.48-13.65-27.91-16.6-39.41-17.23
		c4.11-32.7,2.26-50.11-5.5-51.77c-2.33-0.5-5.17-0.38-8.47-0.24c-6.11,0.26-13.72,0.57-17.54-3.49c-2.63-2.8-3.6-7.77-2.89-14.78
		c1.45-14.25,15.64-35.95,28.15-55.1c15.13-23.15,25.12-38.45,17.21-44.97c-9.96-8.2-64.46-3.48-88.65-0.92
		c1.32-5.36,2.29-13.04-1.05-18.17c-1.46-2.24-4.36-4.97-9.89-5.2c-13.71-0.7-58.19,24.76-72.88,33.35
		c-2.41-5.71-7.68-14.37-17.54-14.89c-0.1-0.01-0.19-0.01-0.29-0.01c-11.64,0-31.47,36.16-43.89,61.38
		c-1.29-1.03-2.88-1.98-4.83-2.64c-5.18-1.75-11.14-0.86-17.69,2.66c-15.23,8.2-12.4,71.54-10.16,101.47
		c-5.03-2.54-11.72-3.84-19.06-0.7c-1.23,0.53-2.9,1.72-3.82,4.37c-6.89,19.84,41.68,131.05,52.74,151.4
		c5.02,9.24,13.66,21.5,22.81,34.48c15.83,22.46,39.76,56.4,34.69,65.4c-2.24,3.98-6.41,8.12-11.26,12.36
		c-3.36-16.21-8.84-30.85-16.35-43.6c-22.46-38.14-70.07-82.61-108.4-101.25c-10.97-5.34-49.36-20.19-86.52-30.83
		c11.38-1.25,24.26-3.16,33.07-5.84c27.61-8.42,47.88-29.63,55.72-46.92c2.57-5.65,5.05-13.67,2.33-19.72
		c-0.9-1.99-1.93-4.17-3.03-6.48c-5.28-11.09-12.52-26.29-10.28-35.25c0.36-1.45,0.9-3.44,1.56-5.88
		c4.27-15.82,13.4-49.76,13.14-76.54c15.29-35.89,49.9-160.93,43.44-198.15c-1.26-7.23-3.93-11.58-8.18-13.3
		c-22.66-9.2-99.29,53.13-134.62,83.45c-18.92-5.6-34.95-6.65-41.86-6.81c-3.61-27.36-17.68-124.76-36.11-134.34
		c-2.9-1.51-6.78-1.34-11.86,0.51c-34.44,12.5-134.49,108.33-148.69,142.41c-13.59,32.62-10.9,102.59-9.83,122.24
		c-7.66-1.2-15.63-1.12-18.26,3.49c-0.79,1.38-3.11,5.45,8.81,40.09c-0.01,0-0.03,0-0.04,0c-4.81,0-11.26,0.75-15.46,4.19
		c-2.62,2.15-4.1,5.1-4.28,8.55c-0.53,10.13,13.11,26.11,21.05,34.51c-3.19,1.37-6.68,3.71-8.73,7.63
		c-3.06,5.84-2.07,13.3,2.96,22.18c8.7,15.38,27.11,29.58,54.75,42.23c-14.38,25.6-16.66,79.69-13.48,96.51
		c10.41,55.04,29.93,91.6,49.29,120.17c3.53,35.86,10.44,106.99,10.78,117.46c0.1,3.05-3.15,5.76-8.46,9.93
		c-9.75,7.65-24.47,19.22-20.43,47.13c0.38,2.64,1.87,6.38,6.77,9.21c5.75,3.32,14.75,4.47,24.07,4.47c6.66,0,13.43-0.6,19.33-1.41
		c0.1,0.24,0.16,0.45,0.26,0.69c2.41,5.74,8.96,10.05,19.49,12.8c17.41,4.56,46.04,4.14,55.5-3.21c4.36-3.39,7.5-7.95,9.75-12.46
		c1.51,4.73,3.88,9.74,7.6,14.07c7.97,9.27,40.44,12.42,69.47,12.42c15.17,0,29.4-0.86,38.69-2.16
		c46.28-6.48,70.2-13.31,77.57-22.16c8.11-9.74,5.17-23.6,2.87-30.65c13.8-3.68,54.7-17.7,69.2-57.45
		c2.53-6.93,4.66-14.19,6.36-21.66c24.66,15.91,59.82,21.5,97.65,15.32c74.92-12.24,163.88-143.56,165.17-181.35
		C812.1,531.57,796.16,521.7,787.37,518.46z M487.18,284.35c4.5-2.42,8.31-3.15,11.31-2.17c3.3,1.07,4.71,3.93,4.75,4.01
		c0.63,1.4,2.01,2.31,3.55,2.33c1.61,0.07,2.94-0.85,3.61-2.24c14.15-29.41,33.36-61.49,39.31-62.39
		c8.58,0.45,11.93,13.66,11.96,13.78c0.3,1.22,1.15,2.23,2.31,2.71c1.16,0.49,2.48,0.4,3.56-0.25
		c22.85-13.64,62.99-35.14,72.68-34.71c2.32,0.1,3.14,0.91,3.59,1.61c2.2,3.37,0.41,11.97-1.57,17c-0.51,1.29-0.3,2.75,0.54,3.85
		c0.84,1.1,2.21,1.68,3.58,1.52c39.12-4.44,83-6.22,88.59-1.69c1.5,3.91-10.62,22.47-18.64,34.75
		c-13.01,19.9-27.75,42.46-29.4,58.62c-0.97,9.52,0.66,16.39,4.99,20.99c6.3,6.69,16.3,6.27,23.62,5.97
		c2.36-0.1,4.61-0.19,6.02-0.01c2.57,3.82,2.24,25.14-0.77,47.38c-0.15,1.12,0.18,2.25,0.92,3.1c0.74,0.86,1.8,1.36,2.93,1.38
		c1.76,0.03,3.63,0.12,5.57,0.25c-3.12,13.82-9.65,32.87-16.94,35.68c-7.79,2.97-16.52-12.92-18.97-18.72c-0.67-1.59-2.3-2.57-4-2.4
		c-1.71,0.16-3.13,1.41-3.5,3.1c-0.19,0.88-4.91,21.65-23.46,23.95c-2.69,0.34-5.07-0.39-7.28-2.22
		c-9.06-7.51-12.39-30.57-12.92-38.82c-0.13-1.97-1.69-3.55-3.67-3.69c-2.03-0.17-3.75,1.21-4.14,3.14
		c-2.15,10.48-11.29,40.61-24.6,41.54c-1.74,0.12-3.35-0.48-4.95-1.89c-9.04-7.99-12.38-35.73-12.91-45.74
		c-0.1-1.91-1.55-3.47-3.44-3.71c-1.91-0.26-3.69,0.9-4.27,2.72c-7.2,22.6-19.12,47.57-25.82,48.51
		c-3.28,0.6-13.21-18.36-20.16-56.01c-0.33-1.78-1.82-3.11-3.63-3.22c-1.81-0.14-3.46,1.01-4.01,2.73
		c-4.92,15.26-15.65,37-24.11,37.58c-8.15,0.67-19.81-20.68-25.61-36.23C477.84,340.77,478.75,288.89,487.18,284.35z M462.9,69.75
		c1.17,0.48,2.26,2.48,2.98,5.51c7.2,30.17-21.52,135.8-37.12,181.26c-12.49-66.18-53.69-95.13-88.71-107.74
		C385.76,110.06,447.85,63.7,462.9,69.75z M189.12,828.65c-12.86,1.61-29.6,1.94-37.03-2.35c-2.34-1.35-2.77-2.64-2.9-3.5
		c-3.39-23.39,7.7-32.1,17.49-39.78c6.02-4.73,11.71-9.2,11.48-16.4c-0.31-9.56-5.74-66.19-9.45-104.08
		c3.45,4.75,6.84,9.31,10.13,13.71c12.7,17.01,23.67,31.7,30.97,48.46c5.08,11.67,5.08,37.54,5.08,54.66
		c0,5.3-4.79,9.42-10.34,14.18C196.13,800.77,185,810.34,189.12,828.65z M644.68,733.97c-38.36,6.26-73.58-0.05-96.65-17.32
		c-1.09-0.82-2.52-1.01-3.79-0.52c-1.27,0.49-2.2,1.6-2.45,2.93c-1.78,9.13-4.22,18-7.27,26.35
		c-15.63,42.85-67.29,53.38-67.82,53.48c-1.19,0.23-2.21,1-2.76,2.08c-0.55,1.08-0.58,2.35-0.08,3.45
		c0.08,0.17,7.79,17.31-0.06,26.74c-3.97,4.76-19.78,12-72.6,19.39c-33.33,4.66-93.35,1.41-101.08-7.59
		c-8.69-10.11-8.28-25.75-8.28-25.91c0.07-2.1-1.52-3.89-3.61-4.07c-0.11-0.01-0.23-0.01-0.34-0.01c-1.95,0-3.64,1.44-3.91,3.41
		c-0.02,0.16-2.35,16.34-12.05,23.89c-6.11,4.75-30.8,6.48-48.65,1.81c-7.68-2.01-12.86-5.01-14.21-8.22
		c-7.77-18.52,1.15-26.19,10.61-34.3c6.43-5.52,13.09-11.24,13.09-20.17c0-18.84,0-44.64-5.73-57.81
		c-7.66-17.6-19.42-33.36-31.88-50.04c-25.12-33.63-53.59-71.75-67.2-143.73c-3.2-16.9,0.11-73.96,14.7-94.5
		c0.69-0.97,0.9-2.2,0.59-3.34c-0.32-1.15-1.13-2.09-2.22-2.56c-28.37-12.42-46.95-26.13-55.22-40.75
		c-2.48-4.38-4.98-10.47-2.85-14.6c1.98-3.82,7.62-5.17,9.61-5.37c1.53-0.14,2.85-1.16,3.36-2.61c0.51-1.45,0.14-3.07-0.96-4.15
		c-9.95-9.7-23.79-26.44-23.43-33.28c0.07-1.23,0.5-2.11,1.4-2.85c3.26-2.68,11.32-2.69,15.63-2.06c1.36,0.19,2.74-0.34,3.62-1.41
		c0.88-1.07,1.13-2.52,0.67-3.82c-5.47-15.41-11.02-33.92-11.17-39c2.3-0.65,8.79-0.19,14.59,1.09c1.21,0.27,2.49-0.05,3.43-0.86
		c0.94-0.81,1.45-2.02,1.36-3.27c-0.06-0.88-5.91-88.12,8.94-123.75c13.37-32.09,111.68-126.25,144.1-138.02
		c4.25-1.55,5.51-0.93,5.52-0.93c11.47,5.96,25.83,80.65,32.37,131.77c0.26,2.03,2.04,3.51,4.08,3.44
		c1.14-0.04,116.15-3.48,135.74,115.21c4.28,25.92-7.11,68.15-11.97,86.18c-0.67,2.5-1.22,4.54-1.6,6.02
		c-2.93,11.72,4.69,27.71,10.81,40.56c1.07,2.25,2.09,4.38,2.96,6.33c0.89,1.97,0.74,6.47-2.32,13.22
		c-7.11,15.67-25.58,34.92-50.83,42.62c-14.48,4.41-43.33,6.94-54.27,7.41c-1.97,0.08-3.57,1.61-3.76,3.57
		c-0.19,1.96,1.11,3.76,3.03,4.22c42.16,9.91,94.33,29.81,107.31,36.13c37.13,18.05,83.28,61.17,105.05,98.15
		c8.05,13.67,13.64,29.7,16.63,47.66c0.23,1.4,1.19,2.56,2.52,3.05c1.32,0.49,2.81,0.24,3.9-0.67c7.82-6.51,14.59-12.42,18.26-18.94
		c6.99-12.41-9.37-37.29-35.12-73.82c-9.02-12.79-17.53-24.87-22.33-33.71c-17.5-32.2-57.44-133.15-52.29-144.92
		c8.57-3.38,15.07,2.5,16.71,4.2c3.17,8.48,16.86,42.23,33.47,41.13c11.49-0.79,20.78-17.42,26.21-30.06
		c4.86,21.52,13.73,50.7,26.26,48.93c10.32-1.44,20.19-21.6,26.47-37.63c1.99,12.1,5.94,27.14,13.63,33.95
		c3.2,2.83,6.81,4.12,10.74,3.86c13.29-0.93,21.86-16.89,26.73-30.21c2.22,9.61,6.15,20.55,13,26.23c3.31,2.74,7.01,4.13,11.03,4.13
		c0.74,0,1.5-0.05,2.27-0.14c15.21-1.89,23.15-12.88,27-21.06c4.97,8.27,13.81,18.9,24.8,14.67c12.65-4.87,19.74-31.95,22-42.2
		c11.09,1.58,21.81,4.84,22.72,9.81c2.35,12.91-0.03,49.75-0.06,50.12c-0.07,1.14,0.35,2.25,1.15,3.06
		c0.81,0.81,1.93,1.23,3.06,1.14c5.63-0.39,21.51-0.11,27.47,5.83c1.64,1.63,2.32,3.52,2.16,5.97
		c-1.15,17.23-16.47,41.6-16.63,41.84c-0.72,1.14-0.8,2.58-0.22,3.8c0.58,1.22,1.75,2.07,3.09,2.24c0.96,0.12,23.45,3.3,22.37,35.33
		C802.03,595.39,714.79,722.51,644.68,733.97z"/>
	<g>
		<path class="st0" d="M283.92,809.52c-0.33,0-0.67-0.04-1-0.13c-2.11-0.55-3.37-2.71-2.82-4.82c3.47-13.23,31.83-22.06,47.56-25.99
			c-10.12-7.29-28.81-22.13-47.38-44.04c-28.12-33.18,0.11-86.83,1.32-89.1c1.03-1.92,3.42-2.65,5.34-1.62
			c1.92,1.03,2.65,3.42,1.62,5.34c-0.27,0.51-26.89,51.19-2.26,80.27c26,30.68,52.87,47.46,53.14,47.62
			c1.38,0.85,2.1,2.46,1.81,4.05c-0.28,1.59-1.51,2.86-3.1,3.18c-19.56,4-48.13,13.55-50.42,22.29
			C287.27,808.35,285.67,809.52,283.92,809.52z"/>
	</g>
</g>
</svg>
