<?xml version="1.0" encoding="utf-8"?>
<!-- Generator: Adobe Illustrator 23.0.1, SVG Export Plug-In . SVG Version: 6.00 Build 0)  -->
<svg version="1.1" id="Layer_1" xmlns="http://www.w3.org/2000/svg" xmlns:xlink="http://www.w3.org/1999/xlink" x="0px" y="0px"
	 viewBox="0 0 864 864" style="enable-background:new 0 0 864 864;" xml:space="preserve">
<style type="text/css">
	.st0{fill:#050505;}
</style>
<path class="st0" d="M851.31,232.75l-86.65-28.85c15.82-7.21,31.62-14.35,46.81-19.94c6.73-2.49,10.19-9.96,7.72-16.72
	c-2.52-6.76-9.88-10.19-16.72-7.72c-17.77,6.53-36.08,14.55-54.58,23.14l22.06-98.02c1.58-7.01-2.85-13.95-9.86-15.55
	c-6.84-1.37-13.95,2.87-15.55,9.86l-26.69,118.68c-17.38,8.85-34.85,18.09-52.6,28.34c13.42-49.39,29.65-107.78,32.72-114.86
	c3.1-6.4,0.48-14.13-5.92-17.3c-6.43-3.2-14.23-0.64-17.43,5.84c-4.74,9.49-31.69,108.94-41.56,145.66
	c-12.63,7.75-25.22,15.6-37.92,23.89V126.76c0-7.19-5.82-13.01-13.01-13.01s-13.01,5.82-13.01,13.01v159.82
	c-19.03,12.88-37.97,26.17-56.94,39.93l7.18-162.47c0.33-7.19-5.23-13.26-12.4-13.57c-0.2-0.03-0.41-0.03-0.58-0.03
	c-6.94,0-12.68,5.46-13.01,12.43L485.29,346c-16.25,12.13-32.27,24.58-48.28,37.09c-10.77-162.34-11.46-162.84-25.31-162.84
	c-7.19,0-13.01,5.82-13.01,13.01c0,1.58,0.28,3.1,0.79,4.5c2.15,12.82,8.68,104.03,12.73,164.64c-20.32,16.22-40.39,32.59-60.02,49
	c-7.59-56.61-17.06-128.71-17.43-135.5c-0.13-7.06-5.9-12.78-13.01-12.78c-7.19,0-13.01,5.82-13.01,13.01
	c0,6.86,13.23,105.88,19.9,155.37c-17.71,15.05-35.02,29.95-51.86,44.77c-13.92-129.36-17.93-135.74-19.93-138.72
	c-3.94-5.95-12.55-8.49-18.55-4.57c-5.97,3.99-8.11,11.08-4.12,17.08c3.18,9.41,12.56,89.53,18.68,147.43
	c-19.23,17.17-37.67,33.88-55.3,50.14l-14.34-135.6c-0.76-7.14-7.57-12.58-14.31-11.56c-7.14,0.76-12.32,7.17-11.56,14.31
	l16.39,154.91c-17.93,16.76-34.55,32.54-50.13,47.53l-13.77-134.14c-0.74-7.17-7.32-12.63-14.25-11.61
	c-7.17,0.74-12.35,7.11-11.61,14.25l15.85,154.48c-53.37,52.03-87.85,87.99-92.82,93.21c-4.95,5.21-4.75,13.44,0.46,18.4
	c2.52,2.39,5.74,3.58,8.97,3.58c3.43,0,6.86-1.35,9.43-4.04c1.25-1.31,36.25-37.77,91.89-91.8l119.75,24.59
	c0.89,0.18,1.75,0.25,2.64,0.25c6.05,0,11.46-4.24,12.73-10.39c1.42-7.04-3.1-13.92-10.14-15.37l-102.3-21
	c15.92-15.27,32.86-31.35,51.27-48.51l115.85,21.69c0.81,0.15,1.6,0.23,2.41,0.23c6.12,0,11.59-4.37,12.76-10.62
	c1.32-7.06-3.33-13.85-10.39-15.17l-96.73-18.11c17.49-16.09,35.74-32.6,54.79-49.59l126.09,33.86c1.14,0.3,2.26,0.46,3.38,0.46
	c5.74,0,11-3.84,12.55-9.63c1.88-6.94-2.24-14.08-9.17-15.93l-109.6-29.44c17.04-14.98,34.63-30.1,52.55-45.32l90.56,24.15
	c1.12,0.3,2.26,0.43,3.35,0.43c5.77,0,11.03-3.84,12.58-9.66c1.85-6.94-2.29-14.08-9.22-15.93l-73.04-19.47
	c19.1-15.95,38.47-31.88,58.19-47.64l128.68,42.34c1.35,0.46,2.72,0.66,4.07,0.66c5.46,0,10.55-3.48,12.35-8.94
	c2.26-6.84-1.45-14.18-8.28-16.41l-112.12-36.89c15.72-12.31,31.44-24.49,47.37-36.41l119.81,41.15c1.4,0.48,2.82,0.71,4.22,0.71
	c5.41,0,10.44-3.38,12.3-8.79c2.34-6.78-1.27-14.18-8.08-16.52l-102.64-35.27c19.53-14.24,39.02-27.91,58.57-41.18l140.58,44.33
	c1.3,0.41,2.62,0.61,3.91,0.61c5.54,0,10.65-3.56,12.4-9.1c2.16-6.86-1.63-14.15-8.49-16.31l-120.84-38.1
	c11.62-7.58,23.1-14.57,34.63-21.67l109.1,30.28c1.17,0.33,2.34,0.48,3.48,0.48c5.72,0,10.93-3.76,12.53-9.53
	c1.93-6.94-2.13-14.1-9.05-16.01l-85.55-23.74c18.11-10.52,35.88-19.96,53.54-28.94l111.97,37.3c1.37,0.46,2.74,0.66,4.12,0.66
	c5.44,0,10.52-3.46,12.35-8.89C861.8,242.4,858.12,235.03,851.31,232.75z"/>
</svg>
