<?xml version="1.0" encoding="utf-8"?>
<!-- Generator: Adobe Illustrator 23.0.1, SVG Export Plug-In . SVG Version: 6.00 Build 0)  -->
<svg version="1.0" id="Слой_1" xmlns="http://www.w3.org/2000/svg" xmlns:xlink="http://www.w3.org/1999/xlink" x="0px" y="0px"
	 viewBox="0 0 720 720" style="enable-background:new 0 0 720 720;" xml:space="preserve">
<g id="Слой_14">
	<path d="M602.1,396.3c0.5-0.3,1-0.4,1.6-0.5c5.9-0.9,16.1,6.3,19.5,9.1c0.7,0.6,1.7,0.8,2.6,0.4c0.9-0.3,1.5-1.1,1.6-2
		c8.4-53.4-23.4-79.2-34.2-86.2c9.1-4.7,23.7,2.4,23.9,2.5c0.7,0.3,1.4,0.4,2.1,0.1c0.7-0.3,1.2-0.8,1.5-1.5
		c17.6-49.9-23.6-95.1-34.4-105.8c9.4-5.1,22.5-7.8,22.6-7.8c1.3-0.3,2.2-1.4,2.1-2.7c-2.8-33.2-20.6-60.1-51.5-77.8
		c-16.5-9.4-32.4-13.9-40.6-15.7c10.4-6.7,27.1-9.1,27.3-9.2c1-0.1,1.8-0.9,2.1-1.9c0.3-1-0.1-2-0.8-2.7
		c-29.8-24.4-73.7-16.7-90.8-12.3c5-4.3,14.3-10.6,24.6-16.3c0.9-0.5,1.4-1.5,1.3-2.5c-0.1-1-0.8-1.9-1.8-2.2
		c-36.7-10.5-72.8-0.8-87.3,4.2c5.3-7.3,14.9-16,19.1-19.5c0.8-0.6,1.1-1.6,0.9-2.6s-1-1.7-1.9-1.9c-25.5-5.7-41.9,7.1-47.2,12.1
		c-5.8-4.9-24.2-17.8-49.8-12.1c-1,0.2-1.7,1-1.9,1.9c-0.2,1,0.1,2,0.9,2.6c4.2,3.5,13.8,12.2,19.1,19.5c-14.5-5-50.6-14.7-87.3-4.2
		c-1,0.3-1.7,1.1-1.8,2.2c-0.1,1,0.4,2,1.3,2.5c10.3,5.7,19.7,12,24.6,16.3c-17.1-4.3-61-12-90.8,12.3c-0.8,0.6-1.1,1.7-0.8,2.7
		c0.3,1,1.1,1.7,2.1,1.9c0.2,0,16.9,2.5,27.3,9.2c-8.1,1.8-24.1,6.3-40.6,15.7c-30.9,17.7-48.7,44.6-51.5,77.8
		c-0.1,1.3,0.8,2.5,2.1,2.7c0.1,0,13.2,2.7,22.6,7.8c-10.8,10.7-52.1,55.8-34.4,105.8c0.2,0.7,0.8,1.3,1.5,1.5
		c0.7,0.3,1.5,0.2,2.1-0.1c0.2-0.1,14.8-7.2,23.9-2.5c-10.8,7.1-42.6,32.9-34.2,86.2c0.1,0.9,0.8,1.7,1.6,2c0.9,0.3,1.8,0.2,2.6-0.4
		c3.4-2.8,13.5-10,19.5-9.1c0.6,0.1,1.1,0.3,1.6,0.5c-9.1,9.4-45.7,52.6-25.1,125.8c0.3,1.1,1.4,1.9,2.6,1.9c1.2,0,2.2-0.9,2.4-2.1
		c0.1-0.5,2.6-12.2,13.9-14.1c-3.5,15.2-14.7,74.3,18.2,101.2c0.6,0.5,1.5,0.7,2.3,0.5c0.8-0.2,1.5-0.8,1.7-1.6
		c0.7-2.1,1.4-4.1,2-5.9c1.5,8.7,4.4,18.9,9,28.1c8.4,16.4,20.6,26.4,35.5,28.9c0.4,0.1,0.8,0,1.2-0.1c5.1,7.7,11.8,14.5,19.7,19.5
		c10.9,7,23.8,10.6,36.9,10.6c6.2,0,12.4-0.8,18.4-2.5c10.4-2.9,21.2-4.8,29.4-6.2l27.7-4.5c13-2.1,26.2-3.2,39.4-3.2l2.7,0
		c2.8,0,5.5,0,8.2,0c11-0.1,22.2,0.6,33.2,2.1l32.9,4.3c8.9,1.1,18.4,3,30.1,5.8c17.9,4.3,37.7,1.1,53-8.7
		c7.3-4.7,13.6-10.9,18.6-17.9c0.5,0.6,1.2,1,2,1c0.1,0,0.3,0,0.4,0c14.9-2.5,27.1-12.5,35.5-28.9c4.7-9.1,7.6-19.4,9-28.1
		c0.6,1.8,1.3,3.8,2,5.9c0.3,0.8,0.9,1.4,1.7,1.6c0.8,0.2,1.7,0,2.3-0.5c32.9-26.9,21.7-86,18.2-101.2c11.2,2,13.8,13.6,13.9,14.1
		c0.2,1.2,1.2,2,2.4,2.1c1.2,0.1,2.3-0.7,2.6-1.9C647.8,448.8,611.3,405.6,602.1,396.3 M515.8,671.7c-14.1,9-32.4,12-49,8
		c-11.9-2.9-21.6-4.7-30.7-5.9l-32.9-4.3c-11.2-1.5-22.6-2.2-33.9-2.1c-2.7,0-5.5,0-8.2,0l-2.7,0c-13.4,0-26.9,1.2-40.2,3.3
		l-27.7,4.5c-8.3,1.4-19.3,3.3-29.9,6.3c-17.2,4.8-36.3,2-51.1-7.5c-13.6-8.7-23.4-22.9-27.1-38.5c-0.6-3-1.1-6.5-1.5-10.3
		c0-0.7-0.1-1.4-0.1-2.1c-0.5-17,6.6-33.1,18.6-42.2c13.1-9.9,31.8-10.3,43.6-1c1.1,0.9,2.7,0.7,3.6-0.4c0.9-1.1,0.7-2.7-0.4-3.6
		c-13.6-10.7-35-10.4-49.9,0.9c-7.1,5.4-12.7,13-16.2,21.8c1.2-33.7,11.1-89.4,49.8-170c0.1-0.1,0.1-0.2,0.1-0.4
		c0.1-0.3,10.1-34.9-17.4-55.5c-24.6-18.4-32.4-88.7,7.2-148c0,0,0.1-0.1,0.1-0.2c0.3-0.5,28.7-49.9,56.1-50.3c0.1,0,0.2,0,0.4,0
		c9.3,0,17.6,5.9,24.7,17.5c27,44,33,76.3,36.1,132.1c0,0.8,0.4,1.4,1,1.9c0.4,6.7,13.7,14.3,20.3,17.7c-0.1,0.3-0.1,0.7,0,1
		c0.3,1.6,0.5,3.1,0.6,4.6c-0.1,1.5-0.1,2.9,0,4.3c-0.2,3.3-1.1,6.2-2.6,8.5c-3.3,5.2-10.6,7.9-16.5,6.1
		c-5.9-1.8-10.4-8.2-10.1-14.4c0.1-1.4-1.1-2.6-2.5-2.7c-1.4,0-2.6,1.1-2.7,2.5c-0.3,8.6,5.6,16.9,13.8,19.5
		c1.8,0.6,3.6,0.8,5.5,0.8c6.6,0,13.3-3.4,16.9-9c0.3-0.5,0.5-1,0.8-1.5c0.3,0.5,0.5,1,0.8,1.5c3.6,5.6,10.2,9,16.9,9
		c1.9,0,3.7-0.3,5.5-0.8c8.2-2.5,14.1-10.9,13.8-19.5c-0.1-1.4-1.2-2.5-2.7-2.5c-1.4,0.1-2.5,1.3-2.5,2.7
		c0.2,6.2-4.2,12.5-10.1,14.4c-5.9,1.9-13.2-0.8-16.5-6.1c-1.5-2.3-2.3-5.2-2.6-8.5c0.1-1.4,0.1-2.8,0-4.3c0.1-1.5,0.3-3,0.6-4.6
		c0-0.2,0-0.3,0-0.5c6.2-3.1,21.2-11.2,21.3-18.3c0.4-0.4,0.7-1,0.8-1.7c3.3-59.9,12.1-90.7,37.6-132.1
		c7.2-11.7,15.7-17.6,25.1-17.5c27.4,0.5,55.9,49.8,56.1,50.3c0,0.1,0.1,0.1,0.1,0.2c7.7,11.5,13.6,23.5,17.9,35.4
		c0,0.2,0,0.5,0,0.7c0.1,0.5,0.4,1,0.7,1.3c17,48.6,8.1,96-11.4,110.6c-27.5,20.6-17.5,55.1-17.4,55.5c0,0.1,0.1,0.3,0.1,0.4
		c37.8,78.8,48.2,133.9,49.8,167.8c-3.5-8.9-9.1-16.5-16.3-22c-14.9-11.2-36.3-11.6-49.9-0.9c-1.1,0.9-1.3,2.5-0.4,3.6
		c0.9,1.1,2.5,1.3,3.6,0.4c11.8-9.3,30.5-8.9,43.6,1c12,9,19.1,25.2,18.6,42.2C544,641.1,533,660.6,515.8,671.7 M196.2,260.9
		c-4.4-1.2-8.2-4-10.4-7.7c-2.6-4.4-2.7-10.1-0.3-14.2c2.5-4.2,7.7-6.6,12.2-5.7c3.6,0.8,7.1,4.4,6.4,8.1c0,0.2,0,0.4,0,0.5
		C201.1,248.1,198.4,254.5,196.2,260.9 M207.8,234.9c-1.9-3.3-5.4-5.8-9-6.6c-6.7-1.4-14.2,2-17.7,8.1c-3.4,5.8-3.2,13.4,0.3,19.4
		c2.8,4.8,7.6,8.3,13.2,10c-1.4,4.5-2.6,9.1-3.6,13.7c-11.9-7.9-26.6-21-32.3-39.6c-5.4-18,0.3-37.8,13.7-47.3
		c8.7-6.2,20.5-7.9,30.6-4.4c9.4,3.2,16.4,11.1,19.8,22.2c0,0,0,0,0,0.1c-4.2,6.1-6.9,10.7-7.4,11.6
		C212.7,226.2,210.1,230.5,207.8,234.9 M529.8,262.3c5.4-1.7,10.1-5.2,12.9-9.9c3.6-6,3.7-13.6,0.3-19.4c-3.6-6.1-11.1-9.6-17.7-8.1
		c-3.7,0.8-7.3,3.4-9.2,6.9c-1.9-3.3-3.9-6.6-6-9.7c-0.6-1-3.7-6.5-8.8-13.6c3.5-11,10.5-18.8,19.8-22c10.1-3.5,21.9-1.8,30.6,4.4
		c13.4,9.4,19.1,29.3,13.7,47.3c-5.5,18.1-19.5,30.9-31.3,38.9C532.9,272.1,531.4,267.2,529.8,262.3 M519.9,238
		c-0.7-3.7,2.8-7.3,6.4-8.1c4.5-1,9.8,1.5,12.2,5.7c2.4,4.1,2.3,9.8-0.3,14.2c-2.1,3.6-5.9,6.4-10.2,7.6c-2.3-6.3-5-12.5-8.1-18.5
		C520,238.6,520,238.3,519.9,238 M624.2,513.3c-3.3-5.5-9.4-10.9-19.2-10.9c-0.8,0-1.6,0.4-2,1c-0.5,0.6-0.6,1.5-0.4,2.2
		c0.2,0.7,17.8,67.3-12.8,96.9c-1.7-4.9-3.3-9.8-4.5-13.6c-0.1-2.8-0.4-4.9-1-6.1c-0.7-1.5-2-3.9-4.4-2.9c-1.8,0.8-2.6,1.1,0.2,10.1
		c-0.1,7.9-2.4,23.6-9.7,37.9c-6.7,13.1-15.7,21.4-26.7,24.8c2.9-7.4,7.4-23.2,7.1-49c-0.4-33.7-9.4-91.7-50.4-177.1
		c-0.8-2.8-8.2-31.8,15.6-49.7c14-10.5,22.4-34.1,22.4-63c0-10.5-1.1-21-3.2-31.5c12.8-8.4,28.9-22.4,35-42.8
		c6.1-20-0.5-42.3-15.6-53c-10.1-7.1-23.6-9-35.2-5.1c-9.9,3.4-17.5,11.1-21.8,21.8c-11.5-15.1-29.5-34-48-34.3c-0.2,0-0.3,0-0.5,0
		c-11.1,0-20.9,6.7-29.1,19.9c-25,40.6-34.2,71.2-37.9,127.4c-4.3-4.4-11.7-7.4-20.1-7.4c-8.5,0-16,3-20.2,7.5
		c-3.3-52.6-10-84.6-36.4-127.6c-8.2-13.4-18.2-20.1-29.5-19.9c-19.3,0.3-38,20.8-49.4,36.2c-4.3-10.9-11.9-18.6-21.8-22
		c-11.7-4-25.2-2-35.2,5.1c-15.1,10.7-21.7,32.9-15.6,53c6.3,20.9,23.1,35.2,36,43.4c0,0,0.1,0,0.1,0c-1.8,9.7-2.8,19.4-2.8,29.1
		c0,28.9,8.4,52.4,22.4,63c23.8,17.9,16.4,46.9,15.6,49.7c-41,85.4-50,143.4-50.4,177.1c-0.1,8.5,0.3,15.9,1.1,22.3
		c0.2,3.4,0.7,6.8,1.5,10.1c1.4,7.6,3.2,13.1,4.6,16.6c-11-3.4-20-11.7-26.7-24.8c-7.3-14.3-9.6-30-9.7-37.9c2.8-9,2.1-9.4,0.2-10.1
		c-2.4-1-3.6,1.4-4.4,2.9c-0.6,1.2-0.9,3.3-1,6.1c-1.2,3.8-2.8,8.7-4.5,13.6c-30.7-29.7-13-96.2-12.8-96.9c0.2-0.8,0-1.6-0.4-2.2
		c-0.5-0.6-1.2-1-2-1c-9.8,0-15.9,5.4-19.2,10.9c-17.4-74.9,27-114.6,27.5-115c1-0.8,1.2-2.3,0.5-3.4c-1.6-2.3-3.9-3.8-6.6-4.2
		c-6.7-1-15.1,4.1-19.9,7.5c-6.8-56.6,33.7-77.7,35.4-78.6c0.7-0.4,1.3-1.1,1.4-1.9c0.1-0.8-0.1-1.6-0.7-2.2
		c-8.8-8.8-23.8-4.1-29.9-1.7c-16.3-52.6,35.8-99.5,36.4-100c0.6-0.5,0.9-1.3,0.9-2.1c-0.1-0.8-0.5-1.5-1.1-2
		c-8.1-5.4-20-8.6-25-9.8c7.8-74.1,92.2-87.5,93.1-87.6c1-0.1,1.8-0.8,2.1-1.7c0.3-0.9,0.1-1.9-0.6-2.6
		c-7.3-7.3-20.7-11.1-28.5-12.8c35-23.4,87.9-6.2,88.4-6c0.8,0.3,1.6,0.1,2.3-0.4c0.7-0.5,1.1-1.3,1.1-2.1c0-6.1-15-16-25.4-22.1
		c42.6-9.5,84,7.8,84.4,8c0.9,0.4,2,0.2,2.8-0.5c0.7-0.7,1-1.7,0.7-2.7c-2.5-7.6-13.6-18.4-19.7-23.9c25-3,41.6,13.2,41.8,13.4
		c0.5,0.5,1.2,0.8,1.9,0.7c0.7,0,1.4-0.3,1.9-0.9c0.6-0.7,14.4-16.3,38.9-13.2c-6.1,5.5-17.2,16.3-19.7,23.9c-0.3,1,0,2,0.7,2.7
		c0.7,0.7,1.8,0.9,2.8,0.5c0.4-0.2,41.8-17.5,84.4-8c-10.4,6.1-25.4,16-25.4,22.1c0,0.8,0.4,1.6,1.1,2.1c0.7,0.5,1.5,0.6,2.3,0.4
		c0.6-0.2,53.4-17.4,88.4,6c-7.8,1.7-21.2,5.5-28.5,12.8c-0.7,0.7-0.9,1.7-0.6,2.6c0.3,0.9,1.1,1.6,2.1,1.7
		c0.9,0.1,85.3,13.6,93.1,87.6c-5,1.2-16.9,4.4-25,9.8c-0.7,0.4-1.1,1.2-1.1,2c-0.1,0.8,0.3,1.6,0.9,2.1c0.5,0.5,52.7,47.4,36.4,100
		c-6.1-2.5-21.1-7.2-29.9,1.7c-0.6,0.6-0.9,1.4-0.7,2.2c0.1,0.8,0.6,1.5,1.4,1.9c1.8,0.9,42.2,22,35.4,78.6
		c-4.8-3.4-13.2-8.5-19.9-7.5c-2.8,0.4-5.1,1.9-6.6,4.2c-0.7,1.1-0.5,2.5,0.5,3.4C597.2,398.6,641.7,438.4,624.2,513.3"/>
</g>
<g id="Слой_13">
	<path d="M500.1,603.8c3,0.6,6.2-2,7-6c0.9-4-0.9-7.7-3.9-8.4c-3-0.6-6.2,2-7,6C495.3,599.4,497.1,603.1,500.1,603.8"/>
</g>
<g id="Слой_12">
	<path d="M525.5,605.2c2.7-3.1,2.9-7.2,0.6-9.2c-2.3-2-6.4-1.2-9,1.9c-2.7,3.1-2.9,7.2-0.6,9.2C518.8,609.1,522.9,608.2,525.5,605.2
		"/>
</g>
<g id="Слой_11">
	<path d="M528.8,612.9c-3.9,1.2-6.3,4.5-5.4,7.5c0.9,3,4.8,4.4,8.6,3.3c3.9-1.2,6.3-4.5,5.4-7.5
		C536.5,613.3,532.7,611.8,528.8,612.9"/>
</g>
<g id="Слой_10">
	<path d="M225.5,605.5c3-0.6,4.8-4.4,3.9-8.4c-0.9-4-4-6.7-7-6c-3,0.7-4.8,4.4-3.9,8.4C219.4,603.5,222.5,606.2,225.5,605.5"/>
</g>
<g id="Слой_9">
	<path d="M209.2,608.8c2.3-2,2.1-6.2-0.6-9.2c-2.7-3.1-6.7-3.9-9-1.9c-2.3,2-2.1,6.2,0.6,9.2C202.8,610,206.9,610.8,209.2,608.8"/>
</g>
<g id="Слой_8">
	<path d="M196.9,614.7c-3.9-1.2-7.8,0.3-8.6,3.3c-0.9,3,1.6,6.3,5.4,7.5c3.9,1.2,7.8-0.3,8.6-3.3
		C203.2,619.2,200.8,615.8,196.9,614.7"/>
</g>
<g id="Слой_7">
	<path d="M496.7,455.1c-1.4-0.4-2.8,0.4-3.2,1.7c-9.4,32.1-26.2,62.2-48.7,87.1c-3.4,3.8-7.1,7.6-11.8,9.5
		c-3.8,1.5-9.3,1.6-12.4-1.8c-3.1-3.4-2.8-9.2-2.1-14.4c5.7-42.3,23.8-83.6,50.9-116.5c0.9-1.1,0.8-2.7-0.3-3.6s-2.7-0.8-3.6,0.3
		c-27.8,33.6-46.3,75.9-52.1,119.1c-0.9,6.4-1.1,13.5,3.4,18.5c2.9,3.2,7,4.5,10.9,4.5c2.5,0,5-0.5,7.2-1.4
		c5.7-2.3,10-6.8,13.7-10.8c23-25.4,40.2-56.2,49.8-89.1C498.9,456.9,498.1,455.5,496.7,455.1"/>
</g>
<g id="Слой_6">
	<path d="M264.2,415.8c-0.9-1.1-2.5-1.2-3.6-0.3c-1.1,0.9-1.2,2.5-0.3,3.6c27.2,32.9,45.3,74.2,50.9,116.5c0.7,5.2,1,10.9-2.1,14.4
		c-3.1,3.4-8.6,3.3-12.4,1.8c-4.7-1.9-8.4-5.7-11.8-9.5c-22.4-24.8-39.3-54.9-48.7-87.1c-0.4-1.4-1.8-2.1-3.2-1.7
		c-1.4,0.4-2.1,1.8-1.7,3.2c9.6,32.9,26.8,63.7,49.8,89.1c3.6,4,8,8.5,13.7,10.8c2.2,0.9,4.7,1.4,7.2,1.4c4,0,8-1.3,10.9-4.5
		c4.6-5,4.3-12.2,3.4-18.5C310.5,491.7,292,449.4,264.2,415.8"/>
</g>
<g id="Слой_5">
	<path d="M279.8,318.4c9,0,16.3-10,16.3-22.3c0-12.3-7.3-22.3-16.3-22.3s-16.3,10-16.3,22.3C263.5,308.4,270.8,318.4,279.8,318.4
		 M284.1,281.5c3.3,0,6,3.4,6,7.7c0,4.3-2.7,7.7-6,7.7c-3.3,0-6-3.5-6-7.7C278.1,284.9,280.8,281.5,284.1,281.5"/>
</g>
<g id="Слой_4">
	<path d="M439.3,314.9c9,0,16.3-10,16.3-22.3c0-12.3-7.3-22.3-16.3-22.3s-16.3,10-16.3,22.3C423,305,430.3,314.9,439.3,314.9
		 M443.6,278.1c3.3,0,6,3.4,6,7.7c0,4.3-2.7,7.7-6,7.7c-3.3,0-6-3.5-6-7.7C437.6,281.5,440.3,278.1,443.6,278.1"/>
</g>
<g id="Слой_3">
	<path d="M495.8,610.2c-14.2,0-25.7,11.5-25.7,25.7c0,14.2,11.5,25.7,25.7,25.7c14.2,0,25.7-11.5,25.7-25.7
		C521.5,621.7,510,610.2,495.8,610.2"/>
</g>
<g id="Слой_2">
	<path d="M231.7,610.2c-14.2,0-25.7,11.5-25.7,25.7c0,14.2,11.5,25.7,25.7,25.7c14.2,0,25.7-11.5,25.7-25.7
		C257.4,621.7,245.9,610.2,231.7,610.2"/>
</g>
</svg>
