<?xml version="1.0" encoding="UTF-8"?>
<!-- Generator: visioncortex VTracer 0.6.3 -->
<svg version="1.1" xmlns="http://www.w3.org/2000/svg" width="1280" height="960">
<path d="M0 0 C0.95 0.31 1.9 0.62 2.88 0.94 C23.82 7.86 43.64 17.23 62.04 29.41 C63.36 30.27 64.68 31.14 66 32 C67.05 32.69 68.1 33.38 69.19 34.09 C74.51 37.07 80.55 38.39 86.38 40.06 C120.42 50.2 150.63 67.25 177 91 C177.55 91.49 178.09 91.98 178.65 92.48 C182.14 95.62 185.58 98.79 189 102 C189.65 102.61 190.31 103.22 190.98 103.86 C195.26 107.99 198.98 112.51 202.7 117.15 C204.13 118.93 205.59 120.68 207.08 122.41 C253.21 176.33 280.59 257.66 275.65 328.5 C273.28 357.72 273.28 357.72 270 361 C269.75 362.35 269.52 363.71 269.31 365.06 C262.76 398.81 240.02 424.39 212.52 443.22 C200.79 451.12 188.66 458.67 176 465 C177.62 472.69 179.73 480.18 181.96 487.71 C182.23 488.61 182.49 489.51 182.76 490.43 C183.12 491.64 183.12 491.64 183.48 492.87 C184 495 184 495 184 498 C185.6 497.46 185.6 497.46 187.23 496.91 C197.53 493.55 208.9 490 219.44 494.5 C228.17 499.84 233.52 509.38 236.31 519 C238.15 527.88 237.29 535.93 233 544 C223.18 558.28 194.6 561.54 178.95 564.6 C167.39 566.65 153.83 568.67 143.11 562.88 C134.79 555.47 132.9 546.59 130.5 536.12 C130.12 534.52 129.73 532.92 129.35 531.31 C128.39 527.31 127.45 523.29 126.53 519.28 C125.87 516.45 125.21 513.61 124.54 510.78 C123 504.19 121.48 497.6 120 491 C119.18 491.3 118.37 491.6 117.53 491.91 C35.42 522 35.42 522 14 522 C14.09 522.9 14.18 523.8 14.28 524.73 C14.61 528.11 14.95 531.48 15.28 534.86 C15.43 536.32 15.57 537.77 15.72 539.23 C15.93 541.33 16.14 543.43 16.34 545.54 C16.47 546.8 16.6 548.06 16.72 549.36 C16.99 552.92 17.05 556.43 17 560 C18.15 559.95 19.3 559.91 20.48 559.86 C32.33 559.53 44.5 559.89 54 568 C60.48 574.13 63.08 580.62 63.38 589.5 C62.97 600.33 58.89 606.63 51 614 C45.84 618.27 40.47 618.81 34 619 C32.91 619.04 31.82 619.08 30.7 619.12 C21.45 619.28 12.22 618.84 2.98 618.31 C1.6 618.23 0.22 618.15 -1.16 618.08 C-30.09 616.55 -30.09 616.55 -38.31 607.44 C-40.59 604.15 -41.13 601.48 -41.37 597.59 C-41.43 596.69 -41.49 595.8 -41.55 594.88 C-41.63 593.43 -41.63 593.43 -41.72 591.95 C-41.78 590.93 -41.84 589.92 -41.91 588.88 C-42.04 586.73 -42.17 584.57 -42.3 582.42 C-42.5 579.2 -42.69 575.98 -42.89 572.76 C-43.71 559.51 -44.41 546.26 -45 533 C-45.6 533.13 -46.2 533.26 -46.81 533.39 C-53.07 534.69 -59.31 535.64 -65.65 536.4 C-66.65 536.52 -67.65 536.65 -68.68 536.77 C-71.91 537.17 -75.14 537.55 -78.38 537.94 C-79.48 538.07 -80.59 538.2 -81.72 538.34 C-96.24 540.07 -110.75 541.66 -125.31 542.88 C-126.03 542.94 -126.75 543 -127.49 543.06 C-136.34 543.81 -145.12 544.15 -154 544 C-153.87 544.8 -153.74 545.59 -153.6 546.42 C-152.06 556.39 -151.38 566.3 -150.88 576.38 C-150.79 578 -150.7 579.62 -150.61 581.24 C-150.4 585.16 -150.2 589.08 -150 593 C-149.19 593.19 -148.39 593.38 -147.56 593.58 C-146.49 593.84 -145.43 594.09 -144.33 594.36 C-142.75 594.74 -142.75 594.74 -141.14 595.12 C-130.03 598.22 -121.34 604.85 -115.25 614.61 C-111.79 621.22 -109.81 628.55 -111 636 C-112.4 640.39 -114.22 644.04 -117.12 647.62 C-119.46 650.58 -120.1 653.38 -121 657 C-123.86 659.86 -131.97 658.3 -136 658.31 C-136.68 658.32 -137.36 658.32 -138.06 658.32 C-148.82 658.35 -158.74 657.37 -169 654 C-169 653.34 -169 652.68 -169 652 C-169.61 651.97 -170.21 651.93 -170.84 651.9 C-177.31 651.4 -182.92 649.99 -189 647.75 C-189.87 647.43 -190.74 647.12 -191.64 646.8 C-210.17 639.98 -210.17 639.98 -214.1 631.68 C-215.09 628.73 -215.15 626.67 -214.98 623.57 C-214.92 622.54 -214.87 621.5 -214.82 620.43 C-214.76 619.34 -214.69 618.25 -214.62 617.12 C-214.51 614.85 -214.4 612.58 -214.3 610.3 C-214.24 609.21 -214.19 608.11 -214.13 606.99 C-213.25 587.3 -214.68 567.54 -217 548 C-233.32 547.26 -248.77 548.62 -264.85 551.13 C-265.58 551.25 -266.3 551.36 -267.04 551.48 C-269.01 551.79 -270.97 552.11 -272.94 552.43 C-282.24 553.82 -291.58 554.21 -300.97 554.5 C-302.18 554.54 -303.38 554.58 -304.62 554.62 C-309.72 554.8 -314.82 554.96 -319.92 555.12 C-323.67 555.25 -327.41 555.37 -331.16 555.5 C-332.3 555.54 -333.44 555.57 -334.61 555.61 C-340.32 555.8 -345.96 556.17 -351.64 556.78 C-355.58 557.15 -359.51 557.18 -363.47 557.2 C-364.34 557.21 -365.21 557.22 -366.1 557.22 C-385.24 557.35 -404.08 557.26 -423 554 C-423.66 553.89 -424.33 553.77 -425.01 553.65 C-449.48 549.43 -473.47 544.04 -497 536 C-497.2 536.82 -497.39 537.64 -497.59 538.48 C-498.7 543 -499.84 547.5 -501 552 C-501.3 553.15 -501.59 554.29 -501.89 555.48 C-502.72 558.67 -503.57 561.87 -504.42 565.06 C-504.93 566.97 -505.42 568.88 -505.92 570.79 C-508.32 579.69 -510.9 587.81 -519 593 C-525.22 595.14 -532.54 594.24 -539.06 594.25 C-539.83 594.25 -540.6 594.25 -541.4 594.25 C-553.18 594.24 -564.49 593.73 -576 591 C-576.78 590.82 -577.55 590.65 -578.36 590.46 C-592.98 587.06 -604.19 582.47 -612.66 569.44 C-614.55 564.58 -614.48 560.11 -614.44 554.94 C-614.46 553.96 -614.48 552.98 -614.5 551.97 C-614.49 544.76 -614.49 544.76 -612.02 540.96 C-611.35 540.31 -610.69 539.67 -610 539 C-609.22 536.82 -609.22 536.82 -609 535 C-608.01 535.33 -607.02 535.66 -606 536 C-605.62 535.09 -605.62 535.09 -605.23 534.16 C-602.66 529.64 -597.47 527.61 -592.81 525.69 C-580.65 523.49 -566.38 524.97 -555 530 C-554.9 529.16 -554.8 528.31 -554.7 527.45 C-553.79 522.97 -551.96 519.14 -550 515.04 C-548.85 512.53 -547.97 510.56 -548.14 507.77 C-551.16 501.56 -558.14 497.23 -563.42 493.07 C-584.84 475.9 -599 459.38 -607 433 C-607.33 433 -607.66 433 -608 433 C-608 420.13 -608 407.26 -608 394 C-607.34 394 -606.68 394 -606 394 C-605.82 393.15 -605.82 393.15 -605.64 392.28 C-603.47 382.14 -601.21 372.07 -598.06 362.19 C-597.81 361.4 -597.57 360.62 -597.31 359.81 C-596.13 356.19 -594.88 352.64 -593.39 349.13 C-589.55 339.86 -588.26 330.99 -587.44 321 C-583.84 277.75 -568.62 240.2 -547 203 C-547.73 202.98 -548.47 202.96 -549.22 202.94 C-591.28 201.75 -591.28 201.75 -599.77 193.22 C-604.46 188.03 -605.43 183.95 -605.34 176.98 C-604.46 169.21 -600.24 163.28 -594.25 158.47 C-584.19 151.91 -573.91 151.76 -562.31 151.75 C-561.56 151.75 -560.82 151.75 -560.05 151.75 C-544.16 151.76 -530.07 153.84 -515 159 C-514.63 158.16 -514.63 158.16 -514.26 157.3 C-512.76 154.56 -510.93 152.54 -508.81 150.25 C-506.06 147.26 -503.33 144.25 -500.66 141.18 C-490.02 128.98 -478.71 117.54 -466.77 106.62 C-465.19 105.17 -463.61 103.7 -462.04 102.23 C-455.59 96.23 -448.82 90.75 -441.82 85.4 C-440.07 84.06 -438.34 82.7 -436.61 81.34 C-427.67 74.41 -418.34 68.09 -408.94 61.81 C-408.31 61.39 -407.68 60.97 -407.04 60.54 C-336.64 13.46 -257.18 -12.14 -173 -19 C-172.13 -19.07 -171.26 -19.14 -170.37 -19.22 C-113.7 -23.67 -53.97 -17.95 0 0 Z M-178.44 -3.62 C-179.15 -3.56 -179.86 -3.5 -180.59 -3.43 C-196.79 -2.91 -196.79 -2.91 -212 1 C-212.65 2.79 -213.22 4.61 -213.75 6.44 C-218.78 22.03 -228.61 31.53 -243 39 C-247.91 41.35 -252.84 43.31 -258 45 C-258.64 45.21 -259.29 45.42 -259.95 45.64 C-277.55 51.11 -302 52.98 -319 45 C-322.24 43.27 -325.38 41.47 -328.48 39.49 C-331.56 37.59 -331.56 37.59 -335 37 C-337.44 37.98 -339.63 39.01 -341.94 40.25 C-342.64 40.61 -343.33 40.98 -344.05 41.35 C-345.58 42.15 -347.1 42.94 -348.61 43.75 C-351 45 -353.4 46.21 -355.81 47.42 C-371.4 55.31 -386.46 64.31 -401 74 C-400.42 77.64 -399.42 80.35 -397.62 83.56 C-392.77 93.03 -391.46 102.71 -391.56 113.25 C-391.57 114.34 -391.58 115.43 -391.59 116.55 C-391.99 135.48 -398.24 153.84 -411.95 167.31 C-428.76 182.7 -446.79 185.8 -468.81 185.21 C-474.63 184.83 -479.62 183.25 -485 181 C-485.66 181 -486.32 181 -487 181 C-485.17 186.09 -482.55 190.75 -480 195.5 C-474.59 205.6 -474.59 205.6 -473 210 C-469.67 209.38 -466.51 208.59 -463.29 207.55 C-443.83 201.36 -424.4 196.57 -404 195 C-403.3 194.94 -402.6 194.89 -401.89 194.83 C-390.59 193.95 -379.32 193.89 -368 194 C-367.76 193.45 -367.52 192.91 -367.27 192.34 C-359.85 175.63 -350.79 161.43 -339.01 147.49 C-337 145 -335.25 142.43 -333.5 139.75 C-330.69 135.66 -327.78 133.05 -323.78 130.17 C-320 127.22 -316.59 123.93 -313.12 120.62 C-306.96 114.78 -300.7 109.22 -294 104 C-293.39 103.52 -292.78 103.04 -292.15 102.54 C-264.46 80.67 -233.78 64.13 -200.66 52.04 C-199.73 51.7 -198.8 51.35 -197.84 51 C-195.9 50.32 -193.94 49.7 -191.97 49.13 C-186.69 47.67 -186.69 47.67 -182.59 44.27 C-181.6 42.18 -180.9 40.16 -180.25 37.94 C-179.71 36.4 -179.17 34.87 -178.61 33.35 C-178.35 32.6 -178.09 31.86 -177.81 31.09 C-171.9 15.89 -158.96 4.95 -144.57 -1.77 C-141.85 -3 -141.85 -3 -139 -5 C-152.23 -5.39 -165.26 -4.81 -178.44 -3.62 Z M-86 -2 C-83.22 0.19 -80.31 2.03 -77.28 3.85 C-68.26 9.34 -59.91 16.14 -54 25 C-51.92 25.46 -51.92 25.46 -49.48 25.4 C-48.53 25.41 -47.59 25.43 -46.61 25.44 C-45.58 25.44 -44.55 25.44 -43.48 25.44 C-42.41 25.45 -41.34 25.47 -40.24 25.48 C-37.94 25.51 -35.63 25.53 -33.33 25.54 C-27.39 25.58 -21.44 25.66 -15.5 25.75 C-13.75 25.77 -13.75 25.77 -11.96 25.8 C1.4 26.01 14.69 26.84 28 28 C4.74 9.24 -37.56 4.11 -66.19 -0.38 C-67.26 -0.54 -68.32 -0.71 -69.43 -0.88 C-75.02 -1.71 -80.35 -2.18 -86 -2 Z M-246.62 7 C-247.62 7.23 -247.62 7.23 -248.63 7.47 C-271.27 12.82 -293.22 19.84 -315 28 C-315 28.99 -315 29.98 -315 31 C-308.32 33.39 -302.1 35.54 -295 36 C-294.3 36.05 -293.61 36.1 -292.89 36.16 C-273.52 36.94 -250.13 30.19 -235.79 17.01 C-233.09 13.98 -228 8.27 -228 4 C-234.42 3.76 -240.42 5.53 -246.62 7 Z M-157.82 26.11 C-160.96 30.17 -163.71 34.41 -166 39 C-165.67 39.66 -165.34 40.32 -165 41 C-164.38 40.84 -163.76 40.69 -163.12 40.53 C-137.32 34.13 -111.42 30.02 -84.93 27.99 C-83.65 27.88 -82.38 27.78 -81.07 27.68 C-79.94 27.59 -78.82 27.51 -77.66 27.42 C-74.85 27.24 -74.85 27.24 -73 25 C-86.18 13.31 -101.35 6.54 -119.16 6.79 C-135.21 8 -147.33 13.93 -157.82 26.11 Z M-197 65 C-198.07 69.05 -197.73 71.91 -197 76 C-195.4 97.22 -200.24 116.95 -214.25 133.44 C-230.04 149.53 -247.87 156.25 -270 159 C-269.59 159.61 -269.17 160.22 -268.75 160.84 C-258.39 176.57 -250.82 192.08 -250.81 211.19 C-250.8 212.18 -250.79 213.17 -250.78 214.19 C-250.76 220.69 -251.46 226.68 -253 233 C-252.12 233.75 -251.23 234.5 -250.32 235.27 C-228.81 253.6 -228.81 253.6 -221 263 C-219.93 264.2 -219.93 264.2 -218.84 265.43 C-193.63 294.36 -175.27 332.08 -165.81 369.13 C-165.54 369.75 -165.27 370.36 -165 371 C-161.62 372.13 -159.24 372 -155.69 371.88 C-138.79 371.84 -123.03 377.77 -110.18 388.81 C-98.19 400.88 -91.26 416.64 -90.75 433.56 C-90.98 450.31 -97.12 464.36 -108.92 476.21 C-121.3 487.86 -139.07 495.55 -156.06 496.2 C-163.96 496.48 -163.96 496.48 -170.63 500.37 C-172.11 502.41 -173.52 504.5 -174.87 506.63 C-177.12 510.2 -179.59 513.22 -182.44 516.31 C-182.9 516.81 -183.35 517.31 -183.83 517.83 C-187.49 521.7 -191.43 524.74 -195.91 527.6 C-197.88 528.92 -199.36 530.31 -201 532 C-152.02 533.44 -102.37 527.17 -54 520 C-53.91 519.42 -53.81 518.83 -53.71 518.23 C-49.17 490.83 -41.98 463.91 -19 446 C-1.46 433.58 20.53 431.72 41.4 434.5 C65.15 438.81 84.75 452.92 99 472 C99.62 472.81 100.24 473.63 100.88 474.46 C102.27 476.3 103.64 478.14 105 480 C111.86 478.06 118.47 475.78 125.06 473.06 C126 472.68 126.94 472.29 127.9 471.89 C139.49 467.06 150.76 461.59 162 456 C162.85 455.58 163.69 455.16 164.57 454.73 C183.82 445.15 202.62 434 219 420 C219.92 419.22 220.84 418.44 221.78 417.64 C249.48 393.45 258.65 359.25 261.75 323.75 C261.85 321.83 261.94 319.92 262 318 C262.04 317.04 262.08 316.07 262.12 315.08 C263.55 249.04 234.81 176.63 192 127 C191.37 126.25 190.73 125.51 190.08 124.74 C176.76 109.52 162.23 94.78 145 84 C144.34 84 143.68 84 143 84 C141.66 86.04 140.42 88.09 139.19 90.19 C128.84 106.89 114.21 118.12 95 123 C75.46 127.13 53.15 123.21 35.93 113.22 C33.14 111.28 30.57 109.22 28 107 C27.08 106.22 26.15 105.44 25.2 104.64 C7 88.03 2.05 63.54 0 40 C-66.16 36.55 -134.33 42.13 -197 65 Z M15 42 C13.79 59.75 19.76 77.4 31.21 91.05 C42.82 103.7 58.55 109.89 75.53 111.2 C90.56 111.8 104.5 107.27 115.94 97.49 C121.98 91.74 127.28 85.52 131 78 C131 77.01 131 76.02 131 75 C118.03 67.77 105 61.93 91 57 C90.3 56.75 89.6 56.5 88.87 56.24 C66.25 48.17 39.18 41.17 15 42 Z M-213 72 C-233.99 81.75 -254.58 91.87 -273 106 C-273.57 106.43 -274.13 106.86 -274.72 107.31 C-278.87 110.47 -282.95 113.71 -287 117 C-287.98 117.8 -287.98 117.8 -288.98 118.61 C-290.95 120.23 -292.92 121.86 -294.88 123.5 C-295.49 124 -296.1 124.51 -296.73 125.03 C-298.22 126.29 -299.62 127.64 -301 129 C-301 129.99 -301 130.98 -301 132 C-300.45 132.28 -299.91 132.56 -299.35 132.85 C-295.03 135.14 -291.43 137.45 -287.81 140.75 C-280.38 146.67 -270.83 145.37 -261.88 144.38 C-245.27 141.59 -230.93 132.02 -220.75 118.75 C-213.27 108.04 -210.82 98.15 -210.81 85.38 C-210.8 84.31 -210.79 83.25 -210.78 82.16 C-210.77 81.14 -210.77 80.13 -210.77 79.09 C-210.77 78.16 -210.76 77.23 -210.76 76.27 C-210.78 73.8 -210.78 73.8 -213 72 Z M-415 84 C-424.47 91.17 -433.9 98.36 -443 106 C-443.51 106.43 -444.02 106.85 -444.55 107.29 C-460.73 120.81 -475.87 135.34 -490 151 C-490.53 151.57 -491.05 152.13 -491.6 152.72 C-493.18 154.43 -493.18 154.43 -495 157 C-493.34 161.98 -488.61 163.67 -484.18 166.06 C-472.6 171.79 -459.55 173.56 -447.06 170.31 C-446.01 170.04 -446.01 170.04 -444.94 169.76 C-431.47 166.08 -420.4 156.84 -413 145 C-407.95 134.96 -405.61 125.32 -405.69 114.12 C-405.69 113.25 -405.7 112.37 -405.7 111.47 C-405.87 101.65 -408.11 93.52 -413 85 C-413.99 84.5 -413.99 84.5 -415 84 Z M-320.12 146 C-322.35 148.93 -322.35 148.93 -321.88 152.69 C-319.92 158.58 -315.23 162.65 -311 167 C-296.71 182.31 -281.1 200.2 -281.65 222.4 C-283.67 243.13 -296.73 265.11 -307.1 282.76 C-309.42 286.61 -309.42 286.61 -310 291 C-307.69 292.32 -305.38 293.64 -303 295 C-272.17 252.18 -272.17 252.18 -264.35 201.95 C-268.13 184.31 -277.99 171.04 -290 158 C-290.66 157.27 -291.32 156.54 -292 155.78 C-297.73 149.73 -304.41 144.44 -312.88 143.62 C-316.26 143.69 -317.09 144.06 -320.12 146 Z M-334 164 C-335.62 165.96 -337.1 167.92 -338.56 170 C-339 170.62 -339.44 171.24 -339.89 171.87 C-343.23 176.69 -346.25 181.65 -349.12 186.75 C-349.52 187.44 -349.91 188.13 -350.31 188.84 C-352.32 192.22 -352.32 192.22 -353 196 C-352.06 196.14 -352.06 196.14 -351.1 196.29 C-337.84 198.32 -324.9 200.76 -312 204.43 C-309.11 205.25 -306.21 206.03 -303.31 206.81 C-301.87 207.21 -300.44 207.6 -299 208 C-302.14 197.22 -310.5 189.05 -318 181 C-319.77 179.09 -321.55 177.17 -323.31 175.25 C-324.11 174.39 -324.91 173.53 -325.74 172.64 C-328 170 -328 170 -330.17 166.67 C-330.77 165.79 -331.38 164.91 -332 164 C-332.66 164 -333.32 164 -334 164 Z M-589 174 C-590.44 176.87 -590.38 178.82 -590 182 C-585.01 187.13 -580.09 187.15 -573.26 187.43 C-571.7 187.5 -570.14 187.58 -568.58 187.65 C-566.15 187.76 -563.72 187.87 -561.29 187.97 C-543.8 188.71 -522.91 189.89 -509.71 202.95 C-495.79 219.58 -489.96 244.2 -483.8 264.53 C-482.98 267.07 -482.02 269.53 -481 272 C-476.55 271.01 -476.55 271.01 -472 270 C-472.62 262.56 -474.17 255.59 -476.06 248.38 C-476.37 247.2 -476.68 246.02 -477 244.8 C-485.41 213.16 -485.41 213.16 -503 186 C-503.63 185.32 -504.26 184.63 -504.91 183.93 C-518.68 170.39 -539.4 166.52 -558 166 C-559.1 165.95 -560.2 165.9 -561.34 165.84 C-571.52 165.55 -581.68 166.28 -589 174 Z M-532 207 C-548.2 235.21 -563.1 263.67 -569 296 C-566.4 293.62 -564.7 291.07 -562.88 288.06 C-558.92 281.76 -554.56 275.87 -550 270 C-549.36 269.15 -548.72 268.3 -548.06 267.43 C-537.6 254.04 -525.14 241.48 -511 232 C-513.53 222.6 -517.86 214.6 -526 209 C-527.99 208.3 -529.99 207.62 -532 207 Z M-467 224 C-466.36 229.18 -465.3 234.09 -463.93 239.12 C-463.74 239.87 -463.54 240.61 -463.33 241.38 C-462.7 243.73 -462.07 246.08 -461.44 248.44 C-461.01 250.04 -460.58 251.65 -460.15 253.26 C-459.1 257.17 -458.05 261.09 -457 265 C-456.4 264.91 -455.79 264.83 -455.17 264.74 C-413.17 258.81 -369.36 258.81 -330.77 278.9 C-327.54 280.56 -327.54 280.56 -323.99 280.87 C-321.17 279.64 -320.52 278.05 -319.08 275.36 C-318.55 274.38 -318.03 273.4 -317.48 272.39 C-316.93 271.33 -316.38 270.28 -315.81 269.19 C-314.96 267.57 -314.96 267.57 -314.08 265.92 C-308.95 256.15 -304.23 246.2 -300 236 C-299.69 235.28 -299.38 234.55 -299.06 233.8 C-297.47 229.98 -297.47 229.98 -297.09 225.91 C-297.87 223.78 -297.87 223.78 -300.27 222.8 C-301.27 222.47 -302.28 222.15 -303.31 221.82 C-304.44 221.45 -305.56 221.08 -306.72 220.7 C-307.95 220.33 -309.17 219.95 -310.44 219.56 C-311.7 219.17 -312.96 218.78 -314.25 218.37 C-364.48 202.99 -418 204.97 -467 224 Z M-509.1 248.56 C-510.05 249.38 -510.05 249.38 -511.02 250.22 C-531.14 267.76 -546.65 287.94 -560 311 C-560.58 312 -560.58 312 -561.18 313.02 C-581.31 347.93 -600.66 397.24 -590 438 C-587.13 447.35 -582.32 456.45 -574 462 C-574.14 460.96 -574.29 459.91 -574.44 458.84 C-580.78 409.94 -568.98 357.08 -539.04 317.41 C-537.08 314.89 -535.06 312.44 -533 310 C-532.31 309.18 -531.63 308.36 -530.92 307.51 C-522.7 298.01 -513.29 290.49 -502.63 283.95 C-499.75 282.18 -497.33 280.44 -495 278 C-496.1 274.17 -497.21 270.33 -498.31 266.5 C-498.78 264.88 -498.78 264.88 -499.25 263.23 C-500.94 257.38 -502.76 251.67 -505 246 C-506.76 246 -507.81 247.45 -509.1 248.56 Z M-259 247 C-259.5 248 -259.99 249.01 -260.5 250.04 C-262.65 254.37 -264.82 258.69 -267 263 C-267.53 264.05 -268.05 265.1 -268.6 266.18 C-275.42 279.33 -283.74 291.72 -292 304 C-290.71 306.89 -289.42 308.72 -287.06 310.81 C-256.82 340.62 -246.72 386.03 -246 427 C-245.89 460.48 -251.46 498.3 -275.32 523.54 C-279.72 527.96 -284.52 531.7 -289.6 535.29 C-292.04 536.93 -292.04 536.93 -294 539 C-261.4 539.64 -219.74 532.77 -195.3 509.34 C-194.16 508.18 -194.16 508.18 -193 507 C-191.85 505.84 -191.85 505.84 -190.67 504.66 C-174.67 487.82 -167.37 467.84 -167.56 444.81 C-167.57 442.87 -167.57 442.87 -167.58 440.89 C-167.75 427.71 -169.56 414.93 -172 402 C-172.26 400.55 -172.26 400.55 -172.54 399.06 C-177.03 374.88 -184.49 351.24 -195 329 C-195.34 328.27 -195.69 327.54 -196.04 326.79 C-198.26 322.14 -200.58 317.55 -203 313 C-203.61 311.85 -204.22 310.69 -204.86 309.5 C-215.02 291.05 -227.97 274.93 -242.75 260 C-243.46 259.28 -244.17 258.56 -244.9 257.82 C-251.16 250.87 -251.16 250.87 -259 247 Z M-508 305 C-508.79 305.63 -509.57 306.26 -510.38 306.9 C-541.51 333 -557.23 377.55 -561.82 416.76 C-564.03 443.79 -560.77 470.35 -542.79 491.61 C-505.89 531.02 -433.51 540.65 -382.83 543.16 C-348 544.3 -311.46 538.32 -285.19 513.81 C-263.48 491.16 -259.43 454.62 -259.72 424.65 C-260.56 385.56 -271.47 347.66 -299 319 C-299.84 318.09 -300.69 317.19 -301.55 316.25 C-327.6 289.03 -368.16 275.91 -405.19 274.76 C-442.08 274.16 -478.63 281.48 -508 305 Z M-160 386 C-159.09 394.85 -157.77 403.63 -156.46 412.43 C-152.96 436.41 -152.54 459.5 -159 483 C-141.59 480.9 -124.24 473.95 -113 460 C-105.96 449.66 -103.34 438.34 -105.54 425.98 C-108.67 412.35 -115.38 401.32 -127.27 393.54 C-135.75 388.76 -143.54 385.85 -153.25 385.94 C-155.14 385.95 -155.14 385.95 -157.08 385.96 C-158.04 385.98 -159.01 385.99 -160 386 Z M-20 466 C-22.61 469.19 -24.86 472.48 -27 476 C-27.44 476.7 -27.88 477.4 -28.33 478.12 C-31.59 483.91 -33.4 490.15 -35.25 496.5 C-35.51 497.38 -35.77 498.26 -36.03 499.16 C-37.69 505.09 -38.59 510.86 -39 517 C4.49 510.56 47.35 500.01 89 486 C89 480.89 86.84 478.89 83.62 475.25 C83.08 474.63 82.53 474 81.97 473.36 C68.72 458.54 50.82 448.28 30.72 447.04 C29.82 447.03 28.93 447.01 28 447 C27.34 446.98 26.68 446.96 26 446.93 C8.09 446.56 -7.68 452.96 -20 466 Z M153.46 475.41 C152.38 475.9 151.31 476.4 150.21 476.91 C149.09 477.43 147.97 477.96 146.81 478.5 C145.68 479.02 144.55 479.55 143.38 480.09 C140.59 481.39 137.79 482.69 135 484 C135.53 491.45 136.88 498.49 138.65 505.74 C138.91 506.82 139.17 507.91 139.44 509.02 C139.99 511.3 140.54 513.57 141.09 515.84 C141.94 519.32 142.77 522.8 143.61 526.28 C144.14 528.49 144.68 530.71 145.21 532.93 C145.46 533.96 145.71 535 145.97 536.07 C146.32 537.52 146.32 537.52 146.69 539 C146.89 539.85 147.1 540.7 147.31 541.57 C148.78 547.06 148.78 547.06 152.75 550.88 C162.76 554.53 175.96 550.21 185.88 547.81 C186.53 547.66 187.18 547.5 187.85 547.34 C205.57 543.71 205.57 543.71 221 535 C223.3 528.11 221.95 522.74 219.15 516.27 C217.38 512.77 215.57 509.78 212 508 C204.34 506.65 197.65 509.19 190.6 511.87 C185.5 513.74 181.44 514.66 176 514 C172.51 510.64 171.59 506.04 170.3 501.52 C170.06 500.7 169.82 499.88 169.57 499.04 C168.81 496.45 168.06 493.85 167.31 491.25 C166.8 489.49 166.28 487.72 165.76 485.96 C164.5 481.64 163.25 477.32 162 473 C158.48 473 156.64 473.92 153.46 475.41 Z M-535 517 C-535.23 517.6 -535.45 518.21 -535.69 518.83 C-536.73 521.6 -537.77 524.36 -538.81 527.12 C-539.17 528.08 -539.53 529.03 -539.89 530.01 C-544.69 542.69 -544.69 542.69 -547 545 C-552.61 545.47 -556.84 544.89 -562.19 543.12 C-571.13 540.21 -581.08 537.05 -590.16 540.89 C-594.24 543.36 -596.33 546.54 -598.31 550.88 C-599.48 556.18 -599.83 560.16 -597.56 565.19 C-591.53 571.81 -583.61 573.99 -575.06 575.69 C-574.06 575.89 -573.05 576.1 -572.02 576.32 C-547.49 581.94 -547.49 581.94 -524 578 C-522.52 575.07 -521.75 571.99 -520.92 568.83 C-520.66 567.91 -520.41 567 -520.14 566.05 C-519.33 563.12 -518.54 560.19 -517.75 557.25 C-517.2 555.29 -516.66 553.32 -516.11 551.36 C-513.09 540.78 -513.09 540.78 -511 530 C-514.25 528.21 -517.5 526.42 -520.75 524.62 C-521.67 524.12 -522.59 523.61 -523.54 523.09 C-524.43 522.6 -525.32 522.11 -526.23 521.6 C-527.05 521.15 -527.87 520.7 -528.71 520.24 C-530.79 519.11 -532.88 518.04 -535 517 Z M-16 527.38 C-17.82 527.71 -17.82 527.71 -19.68 528.05 C-20.84 528.27 -21.99 528.49 -23.19 528.71 C-24.25 528.91 -25.32 529.11 -26.42 529.31 C-29.14 529.81 -29.14 529.81 -31 532 C-30.97 534.9 -30.83 537.69 -30.57 540.57 C-30.51 541.44 -30.44 542.31 -30.37 543.21 C-30.15 546.03 -29.92 548.86 -29.69 551.69 C-29.39 555.53 -29.09 559.36 -28.8 563.2 C-28.72 564.14 -28.65 565.08 -28.58 566.05 C-27.95 574.26 -27.55 582.46 -27.38 590.69 C-27.25 595.64 -27.25 595.64 -25 600 C-7.52 605.31 23.58 609.92 41 603 C44.47 600.08 47.69 596.44 48.27 591.83 C48.46 587.22 48.37 584.64 46 580.56 C36.19 572.18 22 573.74 9.86 574.45 C7 574 7 574 5.39 572.04 C3.54 568 3.23 564.29 2.87 559.9 C2.74 558.6 2.74 558.6 2.62 557.26 C2.36 554.49 2.12 551.71 1.88 548.94 C1.62 546.16 1.37 543.38 1.11 540.6 C0.95 538.88 0.8 537.15 0.65 535.42 C0.58 534.64 0.51 533.85 0.43 533.05 C0.37 532.36 0.31 531.67 0.25 530.97 C-0.01 528.92 -0.46 526.99 -1 525 C-6.01 525 -11.09 526.45 -16 527.38 Z M-177.76 545.22 C-178.75 545.25 -178.75 545.25 -179.77 545.29 C-181.89 545.36 -184.01 545.43 -186.12 545.5 C-187.56 545.55 -189 545.6 -190.43 545.64 C-193.96 545.76 -197.48 545.88 -201 546 C-200.86 549.42 -200.71 552.83 -200.56 556.25 C-200.52 557.29 -200.47 558.33 -200.43 559.4 C-200.17 565.27 -199.89 571.14 -199.57 577.01 C-198.98 587.93 -198.63 598.79 -199.37 609.71 C-199.46 611.21 -199.46 611.21 -199.56 612.73 C-199.68 614.72 -199.83 616.7 -200 618.68 C-200.08 620.04 -200.08 620.04 -200.17 621.42 C-200.27 622.64 -200.27 622.64 -200.36 623.88 C-200.19 626.12 -200.19 626.12 -198.39 627.64 C-195.53 629.27 -192.73 630.3 -189.61 631.34 C-188.99 631.55 -188.37 631.75 -187.74 631.97 C-185.75 632.63 -183.75 633.29 -181.75 633.94 C-181.07 634.16 -180.39 634.38 -179.7 634.61 C-156.67 643.31 -156.67 643.31 -133 642 C-129.12 639.56 -127.03 637.51 -126 633 C-126 625.97 -128.31 621.22 -133 616 C-140.63 609.12 -153.79 606 -164 606 C-164.8 603.16 -165.16 600.55 -165.27 597.61 C-165.32 596.31 -165.32 596.31 -165.37 594.99 C-165.4 594.07 -165.43 593.14 -165.46 592.19 C-165.54 590.2 -165.62 588.22 -165.7 586.24 C-165.82 583.13 -165.94 580.02 -166.05 576.91 C-166.56 560.85 -166.56 560.85 -169 545 C-171.92 545 -174.84 545.12 -177.76 545.22 Z " fill="#000100" transform="translate(809,195)"/>
<path d="M0 0 C8.69 5.41 14.35 11.97 18.06 21.5 C18.38 22.31 18.7 23.12 19.03 23.96 C24.39 40.87 22.54 62.6 14.81 78.5 C14.24 79.49 13.66 80.48 13.06 81.5 C14.15 81.61 14.15 81.61 15.27 81.73 C24.82 82.98 34.02 85.81 40.81 93 C42.62 95.43 43.09 96.62 43.69 99.69 C42.9 103.22 42.05 104.46 39.06 106.5 C34.17 107.04 31.93 106.15 28.12 103.12 C21.31 98.12 15.99 96.97 7.64 97.97 C3.19 98.89 0.42 100.98 -2.57 104.32 C-7.09 109.33 -7.09 109.33 -10.16 109.95 C-12.38 109.94 -12.38 109.94 -15.94 109.5 C-16.6 108.18 -17.26 106.86 -17.94 105.5 C-18.45 105.66 -18.97 105.82 -19.5 105.98 C-31.49 108.54 -44.32 106.25 -54.69 99.81 C-65.76 91.66 -72.76 82.01 -75.94 68.5 C-77.86 50.83 -73.24 35.1 -62.62 20.88 C-61.42 19.4 -60.19 17.94 -58.94 16.5 C-58.29 15.75 -57.65 15 -56.98 14.22 C-43.22 -0.69 -19.35 -9.14 0 0 Z M-46.94 25.5 C-47.5 26.04 -48.06 26.59 -48.64 27.14 C-58.29 37.19 -61.45 49.84 -61.21 63.29 C-60.99 68.4 -59.73 72.22 -56.94 76.5 C-56.52 77.19 -56.11 77.89 -55.69 78.6 C-50.85 85.94 -43.92 90.13 -35.38 91.94 C-30.36 92.66 -25.92 92.32 -20.94 91.5 C-20.94 91.17 -20.94 90.84 -20.94 90.5 C-21.88 90.37 -21.88 90.37 -22.84 90.24 C-32.71 88.62 -39.05 84.59 -44.94 76.5 C-48.06 70.26 -46.83 59.37 -44.81 52.89 C-43.36 49.92 -41.8 47.23 -39.94 44.5 C-39.47 43.8 -39 43.11 -38.52 42.39 C-34.95 37.71 -30.57 34.3 -24.94 32.5 C-16.75 31.51 -10.62 31.27 -3.94 36.5 C2.99 43.23 3.56 53.35 4.06 62.5 C4.39 62.5 4.72 62.5 5.06 62.5 C7.91 47.47 8.59 32.95 0.06 19.5 C-4.1 14.35 -8.38 11.93 -14.86 11.14 C-28.51 10.54 -37.63 15.92 -46.94 25.5 Z M3.06 62.5 C4.06 65.5 4.06 65.5 4.06 65.5 Z " fill="#000100" transform="translate(354.9375,516.5)"/>
<path d="M0 0 C0.8 0.64 1.61 1.27 2.43 1.93 C3.27 2.59 4.1 3.24 4.96 3.92 C14.21 11.7 20.48 21.18 25.37 32.12 C25.65 32.75 25.94 33.37 26.23 34.02 C32.37 48.59 32.76 66.96 27.68 81.87 C20.61 99.24 7.09 113.31 -10.25 120.68 C-29.03 127.78 -51.58 127.43 -70.04 119.42 C-84.82 111.98 -94.3 102.11 -101.38 87.37 C-101.81 86.47 -101.81 86.47 -102.26 85.55 C-108.84 71.16 -109.34 51.08 -104.5 36.12 C-103.59 33.7 -102.61 31.3 -101.57 28.93 C-101.07 27.8 -100.57 26.66 -100.06 25.5 C-91.6 8.18 -76.83 -3.5 -58.91 -10.04 C-39.16 -16.03 -16.47 -12.28 0 0 Z M-79.12 19.99 C-82.72 24.31 -85.28 28.81 -87.57 33.93 C-87.88 34.62 -88.2 35.3 -88.52 36.01 C-94.52 50.46 -93.95 66.78 -88.28 81.21 C-82 94.51 -72.44 102.55 -58.86 108.15 C-43.59 113.33 -26.85 111.92 -12.24 105.46 C0.24 98.69 9.66 88.31 14.53 74.92 C18.73 60.02 16.41 45.34 9.16 31.78 C1.09 18.46 -10.02 8.25 -25.16 3.89 C-45.76 -0.84 -64.5 4.64 -79.12 19.99 Z " fill="#000100" transform="translate(774.56640625,348.0703125)"/>
<path d="M0 0 C9.8 8.22 17.02 19.09 21.42 31.07 C21.81 32.12 22.2 33.17 22.61 34.25 C28.32 52.08 27.42 71.43 18.88 88.07 C9.79 103.57 -5.08 114.01 -22.26 118.82 C-42.34 123.1 -60.12 118.14 -77.09 107.5 C-90.86 97.63 -98.97 84.56 -102.58 68.07 C-103.47 47.05 -99.58 28.31 -85.33 12.01 C-83.77 10.35 -82.18 8.7 -80.58 7.07 C-79.82 6.28 -79.06 5.5 -78.27 4.69 C-56.82 -16.09 -23.85 -17.82 0 0 Z M-70.55 16.84 C-82.97 30.52 -88.43 44.45 -87.86 62.83 C-87.26 74.16 -82.16 84.12 -73.83 91.88 C-61.96 101.44 -47.92 106.56 -32.72 105.96 C-20.17 104.55 -6.73 97.65 1.24 87.83 C9.9 76.2 13.01 64.02 10.92 49.67 C7.77 33.54 1.35 19.73 -12.08 9.72 C-31.11 -2.85 -54.5 1.41 -70.55 16.84 Z " fill="#000100" transform="translate(991.58203125,435.9296875)"/>
<path d="M0 0 C15.32 10.54 23.83 24.12 28.72 41.87 C28.9 42.5 29.08 43.13 29.26 43.77 C32.39 58.03 29.93 73.56 22.97 86.18 C15.04 98.41 2.7 106.38 -11.46 109.59 C-28.12 112.45 -45.15 110.92 -59.28 101 C-60.97 99.65 -62.64 98.27 -64.28 96.87 C-64.92 96.37 -65.57 95.88 -66.23 95.36 C-70.58 91.63 -73.02 87.03 -75.59 82 C-76.1 81.01 -76.1 81.01 -76.62 80 C-83.71 65.34 -83.34 46.11 -78.28 30.87 C-74.34 20.37 -69.56 11.61 -61.28 3.87 C-60.7 3.29 -60.11 2.71 -59.51 2.11 C-43.19 -13.13 -18.16 -10.71 0 0 Z M-55.28 18.87 C-64.93 32.61 -67.98 47.36 -66.28 63.87 C-64.31 74.53 -59.05 82.32 -50.41 88.75 C-45.9 91.71 -41.5 93.56 -36.28 94.87 C-35.48 95.1 -34.67 95.32 -33.84 95.56 C-20.95 97.13 -8.79 94.59 1.91 87.12 C9.27 81.27 13.79 73.97 15.02 64.57 C15.16 62.25 15.19 59.95 15.16 57.62 C15.15 56.8 15.14 55.97 15.13 55.12 C14.83 43.71 11.26 34.18 4.72 24.87 C4.28 24.24 3.84 23.6 3.39 22.95 C-2.91 14.76 -13.29 9.07 -23.28 6.87 C-36.56 5.38 -46.92 8.14 -55.28 18.87 Z " fill="#000100" transform="translate(489.28125,533.12890625)"/>
<path d="M0 0 C4.19 3.49 6.97 7.62 8 13 C8.4 17.96 8.57 22.41 6.88 27.12 C4.32 29.68 2.58 29.93 -1 30 C-3.31 29.38 -3.31 29.38 -5 28 C-5.75 25.38 -5.75 25.38 -6 23 C-9.51 23.12 -11.08 23.18 -14 25 C-15.47 27.74 -16.56 30.49 -17.65 33.4 C-21.57 43.59 -30.58 52.41 -40.4 57.16 C-47.69 60 -54.16 60.61 -61.94 60.5 C-63.03 60.52 -64.12 60.53 -65.24 60.55 C-78.03 60.49 -88.52 56.63 -98 48 C-105.01 40.53 -111 29.52 -111 19 C-111.87 18.92 -112.73 18.84 -113.62 18.75 C-118.8 17.6 -122.07 15.4 -125 11 C-124.79 8.23 -124.44 6.55 -122.7 4.37 C-120.04 2.23 -117.83 2.61 -114.52 2.72 C-110.18 3.2 -106.15 4.49 -102 5.81 C-74.94 13.97 -45.59 15.9 -17.91 9.37 C-16 9 -16 9 -12 9 C-11.92 7.91 -11.83 6.81 -11.75 5.69 C-11 2 -11 2 -9.38 0 C-5.74 -1.53 -3.75 -1.16 0 0 Z M-94 24 C-94 24.66 -94 25.32 -94 26 C-92.68 25.67 -91.36 25.34 -90 25 C-91.32 24.67 -92.64 24.34 -94 24 Z M-82 39 C-82.33 39.66 -82.66 40.32 -83 41 C-71.16 46.03 -60.62 47.79 -48.09 43.95 C-45.87 42.94 -44.6 41.83 -43 40 C-48.23 38.32 -53.08 37.53 -58.56 37.25 C-59.34 37.21 -60.12 37.17 -60.92 37.12 C-68.03 36.84 -75.09 37.17 -82 39 Z " fill="#000100" transform="translate(450,644)"/>
<path d="M0 0 C10.18 5.8 15.75 14.72 19.12 25.88 C20.99 35.2 20.68 44.65 15.75 52.94 C11.64 58.47 6.46 62.24 -0.25 63.94 C-8.94 64.88 -16.53 64.58 -23.56 59.16 C-31.74 51.74 -35.67 42.43 -36.42 31.48 C-36.51 20.44 -34.34 12.22 -26.48 4.11 C-18.76 -2.83 -9.58 -4.45 0 0 Z M-14.25 21.94 C-13.92 22.93 -13.59 23.92 -13.25 24.94 C-12.59 24.61 -11.93 24.28 -11.25 23.94 C-11.25 23.28 -11.25 22.62 -11.25 21.94 C-12.24 21.94 -13.23 21.94 -14.25 21.94 Z " fill="#000100" transform="translate(476.25,561.0625)"/>
</svg>
