<?xml version="1.0" encoding="utf-8"?>
<!-- Generator: Adobe Illustrator 23.0.1, SVG Export Plug-In . SVG Version: 6.00 Build 0)  -->
<svg version="1.1" id="Layer_1" xmlns="http://www.w3.org/2000/svg" xmlns:xlink="http://www.w3.org/1999/xlink" x="0px" y="0px"
	 viewBox="0 0 864 864" style="enable-background:new 0 0 864 864;" xml:space="preserve">
<style type="text/css">
	.st0{fill:#050505;}
</style>
<g>
	<g>
		<g>
			<path class="st0" d="M390.44,305.47c-10.13,2.9-44.88,26.06-39.09,36.19c5.79,10.13,18.82,47.77,31.85,47.77
				s37.64-30.4,37.64-41.98C420.84,335.87,390.44,305.47,390.44,305.47z"/>
		</g>
	</g>
	<g>
		<g>
			<path class="st0" d="M416.35,505.34c-3.49,0.55-7.03,0.52-10.61-0.21c-22.21-4.54-31.23-22.8-34.87-37.7
				c-13.49,17.49-37.28,41.87-62.65,36.84c-25.24-4.95-33.09-29.94-35.44-47.71c-14.57,13.86-39.71,32.33-62.81,22.87
				c-35.73-14.66-15.93-75.97-15.06-78.57c1.27-3.89,5.5-6.01,9.35-4.71c3.9,1.28,6,5.48,4.73,9.37c-0.17,0.51-16.03,50.9,6.6,60.19
				c20.22,8.25,48.65-20,57.91-31.61c2.03-2.5,5.42-3.44,8.44-2.3c3.01,1.15,4.94,4.12,4.77,7.34c-0.03,0.46-2.13,45.38,24.36,50.59
				c22.93,4.45,49.91-31.95,58.36-46.37c1.7-2.92,5.15-4.32,8.43-3.39c3.25,0.92,5.47,3.93,5.4,7.31
				c-0.01,0.38-0.54,38.02,25.44,43.32c22.08,4.46,51.07-43.06,59.53-60.08c1.83-3.67,6.29-5.15,9.95-3.34
				c3.67,1.82,5.16,6.27,3.34,9.94C478.05,444.12,449.22,500.2,416.35,505.34z"/>
		</g>
	</g>
	<g>
		<g>
			<path class="st0" d="M414.18,616.45c-3.51,0.42-7.05,0.27-10.59-0.58c-22.03-5.32-30.39-23.9-33.49-38.92
				c-14.12,17-38.79,40.45-63.93,34.58c-25.05-5.85-32-31.1-33.73-48.94c-15.04,13.32-40.82,30.92-63.57,20.61
				c-35.19-15.93-13.21-76.49-12.25-79.06c1.41-3.84,5.73-5.79,9.52-4.37c3.85,1.42,5.8,5.69,4.4,9.53
				c-0.19,0.5-17.83,50.29,4.45,60.39c19.98,9.04,49.33-18.26,58.99-29.52c2.12-2.44,5.52-3.24,8.52-2c2.97,1.26,4.79,4.29,4.5,7.5
				c-0.05,0.45-3.74,45.28,22.55,51.42c22.77,5.28,51.02-30.15,59.98-44.26c1.8-2.86,5.3-4.12,8.55-3.08
				c3.22,1.04,5.33,4.13,5.13,7.5c-0.03,0.38-1.91,37.98,23.88,44.2c21.74,5.26,52.56-41.21,61.63-57.92
				c1.97-3.62,6.47-4.93,10.06-2.98c3.6,1.95,4.93,6.45,2.99,10.06C478.03,557.48,447.21,612.49,414.18,616.45z"/>
		</g>
	</g>
	<g>
		<g>
			<path class="st0" d="M341.19,720.03c-1.14,0.06-2.29,0.06-3.45,0c-25.69-1.22-37.1-24.79-42.04-42.03
				c-12.39,15.83-34.61,37.77-58.79,31.79c-37.49-9.28-26.85-72.82-26.38-75.53c0.71-4.03,4.61-6.75,8.57-6.03
				c4.04,0.7,6.75,4.54,6.04,8.58c-0.09,0.53-8.42,52.69,15.32,58.57c21.27,5.27,45.21-26.89,52.67-39.71
				c1.64-2.78,4.86-4.19,8.02-3.51c3.16,0.7,5.48,3.35,5.79,6.57c0.04,0.45,4.52,45.21,31.47,46.48
				c23.84,0.91,44.75-38.89,50.98-54.39c1.26-3.13,4.43-5.04,7.85-4.58c3.36,0.43,5.99,3.09,6.41,6.45c0.05,0.37,5,37.7,31.49,39.15
				c0.52,0.02,1.05,0.03,1.55,0c21.87-1.13,42.83-50.49,48.57-68.13c1.26-3.9,5.48-6.01,9.35-4.76c3.9,1.26,6.03,5.45,4.76,9.35
				c-2.68,8.23-27.42,80.17-65.04,78.36c-22.66-1.24-34.23-18-40.01-32.21C384.02,692.84,365.3,718.78,341.19,720.03z"/>
		</g>
	</g>
	<g>
		<path class="st0" d="M338.05,265.84c-4.52-0.23-7.61,2.86-7.87,6.95c-0.01,0.14-0.03,1.4-0.03,1.54
			c-0.01,19.9-4.42,66.38-45.05,68.24c-8.46,0.46-15.38-2.18-21.29-7.82c-20.17-19.24-20.46-65.74-20.46-66.21
			c0-4.09-3.33-7.41-7.42-7.41c-4.1,0.01-7.42,3.33-7.42,7.42c0,0.33,0.02,1.89,0.12,4.21l-22.22-5.05
			c-4.13-0.88-7.97,1.61-8.88,5.59c-0.91,3.99,1.59,7.97,5.58,8.88l26.9,6.12c0.5,3.79,1.19,7.92,2.08,12.22c-0.01,0-0.03,0-0.04,0
			l-26.98,6.14c-3.99,0.91-6.49,4.89-5.58,8.88c0.67,2.93,2.98,5.05,5.73,5.62c1.01,0.21,2.09,0.21,3.16-0.03l26.98-6.14
			c0.19-0.04,0.33-0.17,0.51-0.23c3.71,11.4,9.25,22.64,17.67,30.69c8.33,7.96,18.39,11.98,29.91,11.98c0.77,0,1.55-0.01,2.32-0.05
			c37.05-1.69,59.2-32.73,59.23-83.81C345.18,269.55,342.1,266.1,338.05,265.84z"/>
	</g>
	<g>
		<path class="st0" d="M570.27,298.41l-24.5-0.64c0.62-3.28,1.12-6.43,1.51-9.38l26.89-6.11c3.99-0.91,6.49-4.89,5.58-8.88
			c-0.91-3.99-4.77-6.52-8.88-5.59l-22.2,5.05c0.1-2.32,0.12-3.89,0.12-4.22c0-4.1-3.32-7.42-7.42-7.42c-4.1,0-7.42,3.32-7.42,7.42
			c0,12.98-3.67,50.17-20.45,66.2c-5.91,5.66-12.82,8.22-21.3,7.83c-40.58-1.85-45.04-48.31-45.07-68.2c0-0.16-0.01-1.46-0.03-1.62
			c-0.28-4-4.12-6.32-7.65-6.35c-4,0.14-7.17,4-7.16,8c0.09,50.28,22.23,81.3,59.24,83c0.77,0.04,1.55,0.05,2.32,0.05
			c11.52,0,21.58-4.02,29.9-11.98c9-8.6,14.74-20.84,18.44-33.03c0.01,0,0.02,0.01,0.03,0.01l27.66,0.72
			c1.1,0.02,2.15-0.19,3.1-0.59c2.59-1.1,4.44-3.63,4.52-6.64C577.59,301.93,574.36,298.52,570.27,298.41z"/>
	</g>
	<path class="st0" d="M643.62,447.36c-2.74-11.53-5.29-20.07-7.36-24.25c-5.79-11.68-4.46-42.64-3.06-75.41
		c2.08-48.64,4.45-103.77-13.23-132.93c-11.17-18.43-23.22-34.23-36.23-47.55c34.67-32.78,63.58-63.18,62.54-72.55
		c-1.56-14.02-22.45-17.49-35.24-18.3c1.14-10.49,1.17-26.85-8.52-32.06c-8.44-4.56-21.69,0.75-30.75,5.58
		c-2.46-11.62-8.98-30.07-25.89-33.69c-2.02-0.43-5.1-0.45-8.49,1.88c-3.03,2.08-16.92,16.09-33.99,101.03
		c-41.63-12.07-118.8-33.52-189.31-16.66c-10.08-49.4-21.41-93.58-30.32-97.8c-12.78-6.03-26.67,9.95-34.05,20.4
		c-8.34-6.47-22.25-15.06-31.77-9.56c-8.31,4.81-10.74,18.87-11.37,29.12c-11.18-4-30.3-8.13-42.26,4.38
		c-1.42,1.48-3.06,4.1-2.85,8.2c0.19,3.78,5.05,23.93,73.77,87.08c-21.78,20.62-40.3,49.21-53.33,88.3
		c-58.82,176.46-36.25,432.93,43.91,498.94c21.05,17.34,60.19,26.97,106.81,30.76c-19.32,74.85-6.25,90.89,0.93,94.24
		c8.21,3.83,15.43,4.07,21.46,0.71c3.33-1.85,5.75-4.54,7.49-7.34c5.3,5.49,12.95,10.24,22.77,10.24c2.11,0,4.32-0.22,6.62-0.7
		c2.4-0.49,5.77-1.97,8.17-6.15c8.29-14.44-2.69-59.41-11.4-89.16c15.54-0.12,31.37-0.73,47.24-1.77
		c-17.64,70.99-5.02,86.55,2.02,89.83c8.21,3.83,15.43,4.07,21.46,0.71c3.33-1.85,5.75-4.54,7.49-7.34
		c5.3,5.49,12.95,10.24,22.76,10.24c2.11,0,4.32-0.22,6.62-0.7c2.4-0.49,5.77-1.97,8.17-6.16c8.56-14.91-3.42-62.38-12.24-92.03
		c16.63-2.13,32.84-4.67,48.29-7.59c8.76,12.8,19.1,20.41,30.96,22.48c0.96,0.17,1.91,0.25,2.84,0.25
		c18.42,0,33.17-31.24,41.05-52.42c2.13,3.36,4.95,6.65,8.69,9.33c8.39,6.02,19.15,7.53,31.95,4.52
		c22.54-5.31,23.62-41.14,22.04-63.36c6.58,4.87,14.78,8.87,22.58,7c7.64-1.83,12.86-8.49,15.5-19.8
		C728.27,605.15,683.72,501.08,643.62,447.36z M544.05,28.47c14.51,4.02,16.79,31.54,16.81,31.82c0.15,2.19,1.45,4.14,3.41,5.12
		c1.97,0.97,4.3,0.84,6.14-0.36c10.5-6.9,23-11.59,26.25-9.86c2.44,1.32,3.47,13.58,1.19,26.02c-0.33,1.8,0.16,3.66,1.33,5.07
		c1.18,1.41,2.91,2.22,4.74,2.23c13.88,0.02,28.4,3.51,29.94,7.07c-2.71,7.32-27.91,33.35-59.14,62.97
		c-17.92-16.23-37.6-28.07-59.3-35.66C525.14,74.92,536.47,33.71,544.05,28.47z M173.8,56.98c11.03-10.25,35.66,2.24,35.91,2.37
		c1.95,1.03,4.3,0.93,6.15-0.22c1.86-1.16,2.97-3.22,2.91-5.42c-0.36-12.57,2.2-25.69,5.37-27.53c2.39-1.39,13.38,4.15,22.78,12.62
		c1.36,1.22,3.17,1.79,5.02,1.53c1.81-0.26,3.42-1.32,4.38-2.87c7.28-11.81,17.82-22.28,21.72-21.77
		c5.06,6.47,14.7,45.01,23.99,90.05c-20.22,6.22-39.68,15.9-57.33,30.23C206.49,100.68,174.32,66.65,173.8,56.98z M389.39,847.34
		c-15.33,3.16-22.66-12.55-22.95-13.19c-1-2.27-3.23-3.69-5.66-3.69c-0.3,0-0.6,0.02-0.91,0.07c-2.76,0.41-4.9,2.62-5.22,5.38
		c-0.2,1.67-1.74,8.36-5.64,10.53c-2.38,1.34-5.82,0.95-10.23-1.11c-7.54-3.52-4.27-39.44,6.54-82.16c9.9,0.57,20.1,0.87,30.46,0.97
		C388.23,805.99,394.42,842.6,389.39,847.34z M493.77,842.99c-15.35,3.15-22.65-12.55-22.94-13.19c-1-2.27-3.23-3.69-5.66-3.69
		c-0.3,0-0.6,0.02-0.91,0.07c-2.76,0.41-4.9,2.62-5.22,5.38c-0.2,1.67-1.74,8.36-5.64,10.53c-2.38,1.34-5.82,0.95-10.23-1.11
		c-7.39-3.45-4.41-38,5.88-79.58c10.3-0.82,20.55-1.83,30.71-2.99C492.47,800.85,498.85,838.21,493.77,842.99z M233.67,721.98
		c-34.31-28.25-60.19-101.65-69.25-196.33c-9.53-99.51,1.12-204.91,29.2-289.17c33.85-101.55,107.96-127.61,178-127.61
		c52.24,0,102.22,14.51,131.47,23.01c42.63,12.38,77.4,41.58,106.31,89.29c15.74,25.96,13.46,79.11,11.46,126
		c-1.41,32.95-2.63,61.73,2.74,77.48c-3.8-3.44-7.46-6.24-10.87-8.11c-33.43-18.39-65.2-8.13-89.44,28.93
		c-18.77,28.69-26.24,208.35,7.27,285.64c1.08,2.48,2.21,4.78,3.36,7.04C425.8,757.74,279.89,760.04,233.67,721.98z M704.07,654.52
		c-0.84,3.59-2.77,9.74-6.33,10.59c-5.88,1.41-17.2-8.12-23.02-15.02c-1.79-2.12-4.77-2.79-7.31-1.63
		c-2.52,1.16-3.96,3.86-3.52,6.61c3.28,20.06,4.97,62.69-10.74,66.39c-9.13,2.15-16.49,1.32-21.84-2.49
		c-8.69-6.18-10.06-18.5-10.07-18.6c-0.28-2.95-2.61-5.28-5.56-5.57c-2.92-0.34-5.68,1.56-6.52,4.4
		c-7.84,26.58-24.62,62.34-35.57,60.43c-12.35-2.16-23.02-13.41-31.71-33.44c-33.23-76.65-23.61-250.51-8.26-273.96
		c14.06-21.49,29.87-32.27,47.22-32.27c8.29,0,16.95,2.46,25.92,7.4C641.5,446.46,719.2,589.62,704.07,654.52z"/>
</g>
</svg>
