<?xml version="1.0" encoding="UTF-8"?>
<!-- Generator: visioncortex VTracer 0.6.3 -->
<svg version="1.1" xmlns="http://www.w3.org/2000/svg" width="972" height="1280">
<path d="M0 0 C15.12 8.37 28.64 18.01 35.44 34.5 C37.18 31.89 38.39 29.47 39.69 26.62 C42.06 21.9 43.82 19.16 48.44 16.5 C51.61 15.82 54.3 15.61 57.44 16.5 C65.33 22 69.75 31.21 71.81 40.5 C72.63 45.76 72.86 51.09 73.09 56.4 C73.45 60.3 73.45 60.3 75.44 63.5 C82.09 66.72 89.13 67.64 96.38 68.81 C125.44 73.81 151.75 81.99 178.44 94.5 C178.67 93.8 178.91 93.11 179.15 92.39 C180.67 88.97 182.71 86.18 185 83.25 C185.45 82.68 185.89 82.11 186.35 81.52 C205.87 56.95 233.98 46.42 264.25 42.1 C277.84 40.55 291.59 41.17 305.12 42.81 C306.12 42.93 307.11 43.05 308.13 43.17 C323.07 45.15 323.07 45.15 327.56 49.61 C328.86 53.88 328.23 57.45 327.5 61.81 C327.36 62.73 327.21 63.64 327.07 64.58 C320.9 101.66 307 136.15 277.44 160.5 C276.78 160.83 276.12 161.16 275.44 161.5 C275.94 165.77 278.4 167.87 281.31 170.88 C285.36 175.15 289.15 179.53 292.75 184.19 C296.9 189.57 301.16 194.84 305.5 200.06 C310.47 206.06 315.3 212.13 320.02 218.33 C323.97 223.5 328.01 228.61 332.04 233.72 C333.45 235.51 334.86 237.31 336.26 239.11 C341.9 246.31 347.59 253.46 353.44 260.5 C354.07 261.26 354.07 261.26 354.72 262.04 C374.61 285.94 396.25 306.54 428.71 309.83 C431.62 310.09 434.52 310.31 437.44 310.5 C436.28 317.4 434.48 323.66 431.81 330.12 C431.46 330.99 431.11 331.86 430.74 332.75 C427.37 340.88 423.59 348.74 419.44 356.5 C419.04 357.24 418.65 357.98 418.24 358.74 C401.07 390.73 377.41 421.15 349.44 444.5 C348.92 444.94 348.39 445.38 347.85 445.84 C330.26 460.66 311.47 473.22 291.44 484.5 C290.45 485.06 289.45 485.62 288.43 486.2 C233.6 517.06 233.6 517.06 207.2 521.91 C206.62 522.11 206.04 522.3 205.44 522.5 C202.73 530.61 204.86 539.84 206.25 548.06 C206.56 549.92 206.56 549.92 206.88 551.82 C209.19 565.16 212.16 578.36 215.12 591.56 C215.37 592.66 215.62 593.76 215.87 594.89 C216.58 598.04 217.29 601.2 218.01 604.35 C218.23 605.3 218.44 606.25 218.66 607.23 C219.64 611.47 220.63 615.52 222.44 619.5 C222.77 619.03 223.1 618.56 223.44 618.07 C239.03 595.94 256.71 574.9 278.44 558.5 C279.77 557.46 281.09 556.41 282.42 555.37 C290.79 548.8 299.21 542.82 308.44 537.5 C309.62 536.79 310.81 536.08 311.99 535.37 C363.03 505.14 425.84 494.52 484.44 495.5 C483.91 502.46 482.41 508.44 480.06 515 C479.54 516.49 479.54 516.49 479 518.01 C466.16 553.44 448.11 587.14 424.44 616.5 C423.26 618 423.26 618 422.05 619.53 C409.56 635.16 395.38 650.38 379.44 662.5 C378.81 662.98 378.18 663.46 377.53 663.95 C361.93 675.73 345.65 685.66 328.06 694.19 C327 694.71 325.93 695.22 324.84 695.76 C323.33 696.47 323.33 696.47 321.79 697.2 C320.9 697.62 320.01 698.04 319.1 698.48 C316.21 699.59 313.49 700.09 310.44 700.5 C313.02 703.17 315.64 705.48 318.62 707.69 C337.29 722.16 346.57 742.22 350 765.26 C353.81 797.53 343.97 829.76 324.44 855.5 C321.59 859 318.58 862.27 315.44 865.5 C314.3 866.73 314.3 866.73 313.14 867.98 C297.87 884.05 274.35 898.47 251.64 899.65 C248.34 899.67 245.05 899.69 241.75 899.69 C240.62 899.7 239.48 899.71 238.31 899.72 C231.43 899.74 225.12 899.14 218.44 897.5 C214.85 896.42 214.85 896.42 211.44 897.5 C209.3 900.06 207.51 902.77 205.65 905.54 C199.49 913.78 189.42 919.28 179.44 921.5 C172.42 922.38 165.31 922.18 158.25 922.13 C156.21 922.13 154.17 922.13 152.13 922.14 C147.88 922.14 143.63 922.12 139.38 922.1 C133.96 922.06 128.55 922.07 123.13 922.09 C118.93 922.1 114.72 922.09 110.52 922.07 C108.53 922.07 106.53 922.07 104.53 922.08 C87.74 922.11 74.5 920.08 61.75 908.25 C54.88 900.9 51.72 893.87 50.73 883.95 C50.49 881.67 50.49 881.67 49.44 878.5 C42.23 873.43 33.06 874.32 24.62 874.31 C23.49 874.3 22.35 874.29 21.18 874.28 C9.75 874.2 9.75 874.2 -0.56 878.5 C-1.41 881.5 -1.41 881.5 -1.94 885 C-4.36 897.13 -9.8 906.4 -19.64 914.13 C-21.57 915.4 -23.49 916.48 -25.56 917.5 C-26.16 917.81 -26.76 918.11 -27.38 918.43 C-37.27 922.79 -49.53 921.65 -60.11 921.63 C-61.37 921.63 -62.63 921.63 -63.92 921.64 C-67.24 921.64 -70.55 921.63 -73.87 921.63 C-77.17 921.62 -80.46 921.63 -83.76 921.64 C-95.82 921.64 -107.87 921.56 -119.92 921.12 C-120.87 921.09 -121.82 921.06 -122.8 921.03 C-135.83 920.47 -146.06 916.79 -155.56 907.5 C-158.02 904.25 -160.33 900.91 -162.56 897.5 C-164.13 897.64 -165.69 897.79 -167.25 897.94 C-168.12 898.02 -168.99 898.1 -169.89 898.18 C-172.52 898.45 -172.52 898.45 -174.9 899 C-200.17 903.7 -226.39 896.15 -247.56 882.5 C-275.94 862.06 -295.07 830.73 -301.11 796.37 C-304.18 769.95 -300.16 742 -283.56 720.5 C-272.24 707 -255.41 694.83 -237.56 692.5 C-220.91 691.16 -205.39 692.22 -189.56 697.5 C-189.45 696.93 -189.34 696.35 -189.23 695.76 C-186.64 682.37 -183.84 669.05 -180.82 655.76 C-180.57 654.66 -180.57 654.66 -180.32 653.54 C-178.77 646.73 -177.21 639.91 -175.65 633.1 C-171.8 616.25 -168.06 599.39 -164.67 582.43 C-164.53 581.7 -164.38 580.98 -164.23 580.22 C-157.96 552.27 -157.96 552.27 -157.95 523.89 C-160.68 519.85 -165.09 519.4 -169.62 518.12 C-185.95 513.11 -201.18 505.82 -216.56 498.5 C-217.64 497.99 -218.72 497.48 -219.82 496.95 C-240.17 487.25 -259.47 475.96 -277.56 462.5 C-278.15 462.07 -278.73 461.63 -279.34 461.18 C-326.53 426.03 -372.91 375.04 -387.56 316.5 C-387.19 313.56 -387.19 313.56 -386.56 311.5 C-383.17 310.49 -379.97 310.33 -376.44 310.19 C-361.07 309.1 -347.9 305.21 -334.56 297.5 C-333.71 297.02 -332.86 296.53 -331.99 296.04 C-325.12 291.78 -319.38 286.05 -313.56 280.5 C-312.9 279.88 -312.24 279.26 -311.56 278.62 C-306.91 274.15 -302.92 269.18 -298.89 264.15 C-297.46 262.37 -296.01 260.6 -294.55 258.83 C-288.37 251.29 -282.34 243.64 -276.45 235.87 C-272.16 230.22 -267.72 224.72 -263.23 219.24 C-259.93 215.21 -256.72 211.14 -253.56 207 C-245.66 196.65 -237.4 186.58 -228.94 176.69 C-228.44 176.11 -227.94 175.53 -227.43 174.93 C-225.59 172.79 -223.76 170.69 -221.73 168.74 C-220.33 167.54 -220.33 167.54 -220.56 165.5 C-222.44 164.15 -224.37 162.87 -226.31 161.62 C-238.26 153.63 -246.95 143.65 -254.56 131.5 C-255.24 130.45 -255.92 129.39 -256.61 128.3 C-268.43 108.89 -283.56 72.85 -278.56 49.5 C-269.99 40.71 -247.73 41.51 -236.14 41.26 C-214.52 41.12 -193.31 44.58 -173.56 53.5 C-172.48 53.99 -171.4 54.47 -170.28 54.97 C-163.68 58.1 -158.09 61.74 -152.56 66.5 C-151.74 67.19 -150.92 67.88 -150.07 68.59 C-140.71 76.68 -133.96 85.98 -127.56 96.5 C-123.32 95.21 -119.44 93.54 -115.45 91.63 C-82.52 76.02 -47.37 69.51 -11.56 64.5 C-11.95 64.06 -12.34 63.63 -12.73 63.18 C-25.63 48.42 -33.22 31.09 -32.84 11.4 C-32.5 6.58 -31.78 3.15 -28.56 -0.5 C-19.42 -8.12 -9.61 -5.09 0 0 Z M-23.56 6.5 C-26.92 14.35 -23.68 25.88 -20.85 33.5 C-15.34 46.38 -8.03 55.95 2.64 64.96 C5.04 67.02 7.24 69.23 9.44 71.5 C8.59 71.55 7.75 71.61 6.88 71.66 C-13.46 73.02 -33.54 75.86 -53.5 79.94 C-54.19 80.08 -54.88 80.22 -55.59 80.36 C-78.14 84.93 -99.03 93.02 -119.6 103.18 C-120.73 103.74 -121.86 104.29 -123.02 104.87 C-124.04 105.37 -125.06 105.88 -126.11 106.4 C-128.56 107.5 -128.56 107.5 -130.56 107.5 C-132 105.25 -133.32 103.01 -134.62 100.69 C-148.63 76.58 -169.15 61.63 -195.87 54.38 C-215.01 49.47 -248.13 44.53 -266.37 53.95 C-268.67 55.32 -268.67 55.32 -269.56 57.5 C-270.73 86.57 -254.53 121.95 -235.27 143.2 C-227.02 151.96 -218.39 158.22 -207.56 163.5 C-209.16 167.36 -211.78 170.08 -214.62 173.06 C-218.96 177.7 -223.07 182.45 -227.06 187.4 C-229.56 190.49 -232.08 193.56 -234.62 196.62 C-239.98 203.1 -245.28 209.62 -250.45 216.26 C-253.93 220.72 -257.48 225.12 -261.06 229.5 C-265.11 234.46 -269.12 239.45 -273.06 244.5 C-278.64 251.64 -284.35 258.66 -290.08 265.68 C-291.41 267.32 -292.74 268.96 -294.07 270.61 C-299.05 276.75 -304.19 282.7 -309.56 288.5 C-310.11 289.11 -310.66 289.73 -311.23 290.36 C-319.86 299.62 -330.95 305.49 -342.23 310.87 C-345.59 312.42 -345.59 312.42 -348.56 314.5 C-301.8 316.56 -258.24 290.76 -224.79 260.17 C-223.28 258.78 -221.77 257.38 -220.25 255.98 C-218.09 253.99 -215.91 252.04 -213.69 250.12 C-210.58 247.44 -207.57 244.65 -204.58 241.84 C-198.11 235.78 -191.52 230 -184.56 224.5 C-183.43 223.58 -182.29 222.67 -181.16 221.75 C-157.92 203.08 -132.08 190.2 -101.56 192.5 C-84.12 194.88 -68.84 203.22 -57.88 217.06 C-41.95 239.53 -36.39 266.75 -40.82 293.91 C-49.65 336.35 -80.39 369.97 -115.64 393.24 C-116.59 393.86 -116.59 393.86 -117.56 394.5 C-118.64 395.21 -118.64 395.21 -119.74 395.93 C-166.38 426.21 -217.56 443.62 -271.56 455.5 C-267.6 459.84 -263.35 462.71 -258.31 465.69 C-257.13 466.4 -257.13 466.4 -255.92 467.12 C-254.27 468.11 -252.63 469.09 -250.98 470.06 C-248.7 471.42 -246.43 472.78 -244.16 474.16 C-235.61 479.3 -226.93 484.02 -217.94 488.35 C-215.23 489.66 -212.54 491 -209.84 492.35 C-187.78 503.26 -165.42 511.43 -141.56 517.5 C-140.53 517.76 -139.5 518.03 -138.43 518.3 C-99.98 527.99 -60.1 532.35 -20.56 534.5 C-19.79 534.54 -19.02 534.58 -18.23 534.63 C-3.77 535.41 10.65 535.7 25.12 535.69 C26.72 535.69 26.72 535.69 28.34 535.69 C47.44 535.66 66.41 535.07 85.44 533.5 C86.21 533.44 86.98 533.37 87.78 533.31 C170.03 526.52 251.86 507.45 319.44 457.5 C319.77 456.84 320.1 456.18 320.44 455.5 C319 455.2 319 455.2 317.53 454.89 C297.79 450.75 278.49 446.2 259.44 439.5 C257.59 438.87 255.74 438.24 253.9 437.61 C208.87 421.94 165.45 398.94 130.82 365.82 C129.62 364.68 128.41 363.55 127.2 362.42 C103.85 340.15 89.53 308.81 88.48 276.73 C88.1 255.08 93.89 231.19 108.94 214.94 C110.74 213.08 112.57 211.29 114.44 209.5 C115.46 208.47 115.46 208.47 116.5 207.42 C129.11 195.38 146.38 191.83 163.24 192.03 C198.31 193.21 227.55 218.07 251.9 241.05 C254.43 243.43 257 245.78 259.56 248.12 C262.46 250.78 265.36 253.43 268.25 256.09 C274.46 261.81 280.84 267.23 287.44 272.5 C288.38 273.28 289.31 274.06 290.28 274.86 C323.1 301.38 363.57 315.53 405.44 314.5 C401.82 311.68 398 309.77 393.88 307.81 C379.12 300.6 366.91 290.29 356.74 277.41 C354.25 274.27 351.67 271.23 349.06 268.19 C344.81 263.2 340.72 258.11 336.7 252.94 C333.22 248.47 329.65 244.07 326.06 239.69 C321.6 234.23 317.26 228.69 313 223.06 C307.49 215.79 301.75 208.72 295.92 201.7 C293.04 198.24 290.21 194.74 287.39 191.23 C279.57 181.5 271.39 172.21 262.44 163.5 C263.97 159.38 266.61 157.64 270.12 155.12 C271.22 154.32 272.32 153.51 273.41 152.71 C275.07 151.49 276.74 150.28 278.4 149.07 C304.15 128.78 315.5 89.43 319.44 58.5 C319.47 56.83 319.48 55.17 319.44 53.5 C307.15 51.2 295.06 50.19 282.56 50.19 C281.29 50.18 280.02 50.18 278.72 50.17 C266.23 50.26 254 51.6 242 55.12 C241.11 55.38 240.23 55.64 239.31 55.91 C225.84 60.03 214.22 66.38 203.44 75.5 C202.31 76.44 202.31 76.44 201.16 77.4 C193.09 84.79 187.4 94.41 181.44 103.5 C177.97 102.91 175.05 102.01 171.87 100.53 C170.99 100.13 170.1 99.73 169.19 99.31 C168.24 98.88 167.29 98.45 166.31 98 C140.37 86.52 113.14 78.79 84.91 75.61 C78.14 74.76 72.14 72.83 66.91 68.31 C64.84 64.35 64.93 60.91 64.94 56.5 C64.66 45.91 63.19 33.52 55.44 25.5 C53.52 24.49 53.52 24.49 51.44 24.5 C48.64 26.48 47.6 29 46.38 32.12 C45.89 33.32 45.89 33.32 45.4 34.54 C43.02 41.84 42.1 48.91 41.81 56.56 C41.77 57.43 41.74 58.29 41.7 59.19 C41.6 61.29 41.52 63.4 41.44 65.5 C39.46 66.16 37.48 66.82 35.44 67.5 C35.2 66.41 34.95 65.32 34.7 64.2 C29.44 40.95 22.93 23.98 2.18 10.73 C-5.81 5.81 -5.81 5.81 -14.81 3.56 C-15.62 3.47 -16.43 3.38 -17.27 3.29 C-20.23 3.56 -21.46 4.41 -23.56 6.5 Z M-210.36 258.21 C-218.73 266.17 -227.34 273.54 -236.56 280.5 C-237.49 281.21 -238.41 281.92 -239.36 282.64 C-246.75 288.19 -254.56 292.9 -262.56 297.5 C-263.69 298.16 -264.82 298.82 -265.98 299.5 C-301.81 319.6 -336.32 324.41 -376.56 320.5 C-364.68 363.18 -334.03 404.98 -300.56 433.5 C-299.34 434.57 -298.12 435.63 -296.89 436.7 C-295.72 437.72 -294.55 438.73 -293.38 439.75 C-292.79 440.27 -292.2 440.78 -291.59 441.31 C-285.73 446.57 -285.73 446.57 -278.38 448.81 C-273.64 448.42 -269.14 447.54 -264.5 446.5 C-263.51 446.28 -262.52 446.06 -261.49 445.83 C-229.03 438.44 -197.72 428.73 -167.56 414.5 C-166.04 413.78 -166.04 413.78 -164.49 413.05 C-137.01 400.01 -111.4 383.83 -89.56 362.5 C-88.58 361.57 -87.59 360.65 -86.6 359.72 C-63.58 337.88 -48.39 309.11 -47.23 277.13 C-46.82 254.47 -53.36 232.4 -68.94 215.62 C-80.89 204.55 -96.11 198.89 -112.27 199.23 C-151.92 201.08 -183.33 232.51 -210.36 258.21 Z M113.5 220.59 C98.09 239.05 95.11 262.28 96.44 285.5 C99.43 313.74 114.2 337.24 133.44 357.5 C133.9 357.99 134.35 358.48 134.83 358.99 C166.78 393.04 212.1 414.99 255.44 430.5 C256.43 430.86 257.43 431.22 258.45 431.59 C274.51 437.33 290.83 441.67 307.44 445.5 C308.28 445.69 309.12 445.89 309.99 446.09 C314.12 447.03 318.25 447.84 322.44 448.5 C323.68 448.74 323.68 448.74 324.94 448.99 C329.96 449.57 332.57 448.03 336.5 444.94 C338.51 443.15 340.48 441.35 342.44 439.5 C343.76 438.27 345.09 437.04 346.41 435.81 C349.14 433.27 351.85 430.72 354.54 428.15 C357.18 425.65 359.87 423.23 362.62 420.86 C372.14 412.59 379.86 402.52 387.44 392.5 C387.85 391.95 388.27 391.4 388.7 390.83 C403.34 371.4 419.31 347.27 425.44 323.5 C425.11 322.51 424.78 321.52 424.44 320.5 C423.31 320.66 422.19 320.82 421.03 320.98 C414.14 321.74 407.23 321.72 400.31 321.74 C397.97 321.75 395.63 321.78 393.29 321.81 C342.69 322.17 298.55 293.36 262.44 260.5 C260.85 259.08 259.27 257.67 257.69 256.25 C254.79 253.65 251.92 251.02 249.08 248.36 C242.08 241.78 234.99 235.45 227.44 229.5 C226.42 228.69 225.41 227.88 224.36 227.04 C191.22 200.83 146.5 184.99 113.5 220.59 Z M448.69 504.5 C446.91 504.64 446.91 504.64 445.09 504.79 C442.21 505.02 439.32 505.26 436.44 505.5 C440.22 514.69 445.6 522.57 451.62 530.44 C452.04 530.98 452.46 531.52 452.89 532.08 C455.23 535.1 457.68 537.87 460.44 540.5 C464.2 533.45 466.94 526.12 469.69 518.62 C470.38 516.77 470.38 516.77 471.08 514.88 C473.43 509.33 473.43 509.33 474.44 503.5 C465.8 503.36 457.29 503.78 448.69 504.5 Z M416.01 508.45 C414.97 508.66 413.93 508.86 412.87 509.08 C411.23 509.41 411.23 509.41 409.56 509.75 C408.45 509.97 407.34 510.2 406.19 510.43 C397.84 512.14 389.62 514.12 381.44 516.5 C394.26 542.04 414.17 565.52 434.44 585.5 C438.05 584.3 438.29 583.52 440.11 580.3 C440.61 579.43 441.1 578.55 441.61 577.65 C442.13 576.72 442.65 575.78 443.19 574.81 C443.99 573.39 443.99 573.39 444.8 571.95 C448.92 564.58 452.8 557.12 456.44 549.5 C453.35 544.59 450.09 540.02 446.31 535.62 C441.42 529.79 437.48 523.45 433.51 516.96 C432.78 515.77 432.78 515.77 432.04 514.56 C431.61 513.85 431.18 513.14 430.74 512.41 C429.4 510.45 428.34 508.94 426.44 507.5 C422.84 507.12 419.53 507.75 416.01 508.45 Z M352.19 525.81 C351.32 526.12 350.44 526.43 349.55 526.75 C345.23 528.31 341.27 529.93 337.44 532.5 C338.98 537.99 341.57 542.56 344.44 547.44 C344.93 548.28 345.42 549.12 345.93 549.98 C357.87 570.19 371.76 589.05 387.44 606.5 C388.28 607.46 389.13 608.42 390 609.4 C392.13 611.79 394.28 614.15 396.44 616.5 C397.39 617.59 397.39 617.59 398.37 618.7 C401.55 622.35 401.55 622.35 405.94 623.88 C413.33 619.81 418.46 611.91 423.44 605.31 C424.13 604.42 424.82 603.53 425.54 602.62 C426.18 601.76 426.83 600.9 427.5 600.02 C428.09 599.25 428.68 598.47 429.29 597.68 C430.64 595.6 430.64 595.6 430.27 593.38 C428.9 590.28 426.37 588.22 423.94 585.94 C419.14 581.29 414.79 576.5 410.64 571.26 C408.36 568.41 406 565.65 403.62 562.88 C394.99 552.53 387.43 541.31 380.25 529.92 C377.82 526.68 375.07 524.31 371.44 522.5 C364.27 522.01 358.87 523.31 352.19 525.81 Z M-142.56 525.5 C-149.87 556.72 -157.01 587.98 -164.08 619.25 C-165.15 623.96 -166.22 628.67 -167.28 633.38 C-168.33 638 -169.38 642.63 -170.43 647.26 C-170.91 649.42 -171.4 651.59 -171.89 653.75 C-173.24 659.68 -174.57 665.6 -175.89 671.53 C-176.6 674.67 -177.32 677.82 -178.04 680.96 C-178.52 683.06 -178.99 685.15 -179.46 687.25 C-179.8 688.7 -179.8 688.7 -180.15 690.19 C-180.35 691.09 -180.55 691.99 -180.76 692.92 C-181.03 694.1 -181.03 694.1 -181.3 695.31 C-181.59 697.71 -181.41 699.25 -180.56 701.5 C-178.4 703.22 -178.4 703.22 -175.75 704.62 C-174.88 705.12 -174 705.62 -173.11 706.13 C-170.95 707.29 -168.76 708.4 -166.56 709.5 C-165.9 704.55 -165.24 699.6 -164.56 694.5 C-162.91 694.17 -161.26 693.84 -159.56 693.5 C-158.66 717.45 -158.42 741.41 -158.28 765.38 C-158.28 766.16 -158.27 766.94 -158.27 767.75 C-158.18 781.68 -158.11 795.61 -158.04 809.55 C-157.99 818.62 -157.94 827.7 -157.88 836.77 C-157.86 841.4 -157.83 846.03 -157.81 850.65 C-157.8 853.53 -157.78 856.4 -157.76 859.28 C-157.75 861.22 -157.75 863.15 -157.74 865.09 C-157.86 885.59 -157.86 885.59 -147.88 902.81 C-130.45 919.03 -98.11 913.6 -76 913.62 C-75.02 913.63 -74.04 913.63 -73.02 913.63 C-46 914.54 -46 914.54 -21.25 905.38 C-11.86 895.33 -9.32 885.36 -9.18 871.93 C-9.17 871.06 -9.15 870.18 -9.13 869.27 C-9.08 866.5 -9.04 863.72 -9 860.94 C-8.66 839.86 -8.66 839.86 -8.1 829.97 C-8.06 829.29 -8.02 828.6 -7.98 827.89 C-7.76 824.35 -7.36 820.96 -6.56 817.5 C-5.24 817.83 -3.92 818.16 -2.56 818.5 C-2.23 833.68 -1.9 848.86 -1.56 864.5 C15.6 864.5 32.76 864.5 50.44 864.5 C50.73 850.15 50.73 850.15 51.01 835.81 C51.04 834.01 51.08 832.22 51.12 830.42 C51.14 829.48 51.15 828.55 51.17 827.59 C51.19 826.69 51.21 825.8 51.23 824.88 C51.25 824.1 51.26 823.33 51.28 822.53 C51.44 820.5 51.44 820.5 52.44 817.5 C53.76 817.5 55.08 817.5 56.44 817.5 C57.17 820.81 57.57 823.91 57.63 827.3 C57.65 828.68 57.65 828.68 57.68 830.1 C57.7 831.59 57.7 831.59 57.72 833.11 C57.74 834.15 57.76 835.19 57.77 836.26 C57.83 839.59 57.89 842.92 57.94 846.25 C58.19 863.74 58.19 863.74 58.83 881.22 C58.89 882.51 58.95 883.79 59.02 885.11 C59.66 890.28 61.51 894.25 64.44 898.5 C64.84 899.09 65.25 899.68 65.67 900.29 C70.98 907.26 78.59 910.77 87.05 912.05 C104.19 913.99 121.65 913.6 138.88 913.62 C139.81 913.63 140.74 913.63 141.7 913.63 C151.28 913.65 160.84 913.58 170.41 913.09 C171.13 913.06 171.86 913.03 172.6 912.99 C182.75 912.41 191.31 908.82 198.44 901.5 C210.01 885.68 206.67 863.25 206.91 844.56 C206.95 841.68 206.99 838.8 207.03 835.92 C207.28 817.85 207.48 799.77 207.66 781.69 C207.69 778.46 207.72 775.23 207.75 772.01 C207.85 762.44 207.94 752.88 208.02 743.32 C208.05 739.31 208.09 735.3 208.13 731.3 C208.15 729.44 208.16 727.58 208.18 725.71 C208.26 714.61 208.61 703.58 209.44 692.5 C211.4 693.28 211.4 693.28 213.44 694.5 C213.9 697.16 214.13 699.45 214.19 702.12 C214.23 703.18 214.23 703.18 214.28 704.27 C214.35 706.01 214.4 707.75 214.44 709.5 C218.23 708.07 221.71 706.34 225.25 704.38 C226.98 703.42 228.71 702.46 230.44 701.5 C228.91 689.72 226.27 678.21 223.67 666.63 C223.19 664.49 222.71 662.35 222.23 660.2 C220.96 654.51 219.69 648.82 218.41 643.14 C217.62 639.62 216.84 636.11 216.05 632.6 C204.2 579.44 204.2 579.44 191.44 526.5 C181.57 527.05 172.04 529 162.38 530.94 C160.78 531.25 159.18 531.57 157.58 531.88 C153.2 532.75 148.82 533.62 144.44 534.5 C142.78 534.83 142.78 534.83 141.09 535.17 C138.87 535.61 136.66 536.06 134.44 536.5 C135.96 540.95 138.4 544.55 141.06 548.38 C162.84 580.46 170.92 618.75 163.98 657.04 C156.64 693.44 136.31 727.53 105.31 748.56 C97.7 753.58 89.74 757.74 81.44 761.5 C80.81 761.78 80.19 762.07 79.55 762.36 C46.38 777.16 7.32 777.01 -26.53 764.41 C-62.75 750.12 -89.76 722.83 -105.56 687.5 C-113.89 668.32 -116.91 649.92 -117 629.12 C-117.01 627.98 -117.01 627.98 -117.02 626.82 C-117.07 616.33 -116.04 606.71 -113.56 596.5 C-113.37 595.68 -113.18 594.87 -112.98 594.03 C-107.7 572.92 -97.59 554.79 -84.56 537.5 C-88.03 535.19 -91.05 534.74 -95.06 534.13 C-95.81 534.01 -96.56 533.89 -97.33 533.77 C-99.74 533.38 -102.15 533 -104.56 532.62 C-106.92 532.26 -109.27 531.88 -111.62 531.5 C-113.08 531.27 -114.54 531.04 -116 530.82 C-124.92 529.39 -133.73 527.39 -142.56 525.5 Z M328.44 536.5 C325.11 537.75 322.01 539.53 318.88 541.19 C317.93 541.69 316.99 542.18 316.02 542.7 C306.94 547.6 298.65 553.29 290.44 559.5 C289.75 560.01 289.07 560.51 288.37 561.04 C286.38 562.51 284.41 564 282.44 565.5 C281.84 565.94 281.25 566.39 280.64 566.85 C278.43 568.57 276.68 569.99 275.46 572.54 C275.36 581.83 285.2 590.35 290.95 596.81 C293.09 599.25 295.1 601.78 297.12 604.31 C300.62 608.62 304.35 612.52 308.32 616.38 C310.31 618.37 312.17 620.42 314 622.56 C319.29 628.7 325.04 634.25 331.18 639.52 C333.41 641.47 335.56 643.48 337.72 645.51 C348.16 656.23 348.16 656.23 361.5 661.38 C371.14 660.46 378.11 653.29 384.83 646.96 C387.66 644.29 390.6 641.77 393.59 639.27 C396.11 636.86 398.24 634.21 400.44 631.5 C399.65 630.73 398.87 629.95 398.06 629.16 C392.29 623.45 386.69 617.69 381.44 611.5 C380.17 610.07 380.17 610.07 378.88 608.6 C361.42 588.77 347.05 567.16 334.27 544.09 C333.8 543.24 333.32 542.4 332.84 541.52 C332.42 540.77 332 540.02 331.58 539.24 C330.54 537.34 330.54 537.34 328.44 536.5 Z M-80.89 544.09 C-81.69 545.19 -82.48 546.31 -83.25 547.44 C-83.68 548.05 -84.1 548.67 -84.54 549.3 C-94.24 563.66 -100.86 578.86 -105.56 595.5 C-105.79 596.27 -106.01 597.03 -106.24 597.82 C-115.01 628.71 -109.91 665.61 -94.7 693.75 C-77.04 725.19 -48.48 751.08 -13.24 761.16 C23.21 770.68 59.85 766.14 92.44 747.5 C125.22 727.48 145.76 698.38 155.44 661.5 C160.32 641.05 160.07 618.96 155.44 598.5 C155.26 597.71 155.08 596.92 154.9 596.11 C152.4 585.56 148.53 576.01 143.56 566.38 C143.08 565.44 142.6 564.5 142.1 563.54 C137.32 554.65 130.56 542.87 120.44 539.5 C117.91 539.39 115.43 539.33 112.9 539.34 C111.77 539.35 111.77 539.35 110.61 539.35 C103.71 539.41 96.88 539.96 90.01 540.57 C45.57 544.47 0.62 543.49 -43.79 539.98 C-50.72 539.45 -57.61 539.2 -64.56 539.19 C-65.45 539.18 -66.33 539.18 -67.24 539.17 C-73.22 539.24 -76.82 539.56 -80.89 544.09 Z M263.7 582.23 C262.99 583.04 262.29 583.85 261.56 584.69 C258.94 587.68 256.31 590.65 253.56 593.53 C248.11 599.25 242.99 605.11 238.25 611.44 C237.78 612.05 237.31 612.67 236.83 613.3 C234.14 616.99 232.39 619.88 232.44 624.5 C233.81 627.68 233.81 627.68 236.06 630.81 C236.46 631.41 236.87 632.01 237.28 632.62 C242.67 640.49 248.49 648.04 254.44 655.5 C254.89 656.08 255.35 656.65 255.82 657.25 C262.77 665.93 270.54 673.81 278.38 681.69 C278.88 682.2 279.39 682.72 279.92 683.25 C281.39 684.73 282.86 686.2 284.34 687.67 C285.2 688.53 286.06 689.39 286.95 690.27 C291.64 694.47 294.89 696.02 301.1 695.79 C304.94 695.31 308.18 694.02 311.69 692.44 C312.47 692.1 313.24 691.76 314.05 691.41 C322.16 687.78 330.09 683.74 338 679.69 C338.65 679.36 339.3 679.02 339.98 678.68 C341.84 677.73 343.71 676.76 345.57 675.79 C346.65 675.23 347.73 674.67 348.85 674.09 C351.67 672.61 351.67 672.61 353.44 669.5 C347.69 664.14 341.96 658.84 335.81 653.94 C331.14 650.18 326.94 646.11 322.75 641.82 C320.8 639.86 318.81 638.08 316.69 636.31 C307.45 628.39 299.36 618.86 291.78 609.38 C288.37 605.19 284.81 601.14 281.26 597.08 C277.08 592.28 273.07 587.38 269.14 582.38 C268.58 581.76 268.02 581.14 267.44 580.5 C265.26 580.27 265.26 580.27 263.7 582.23 Z M225.44 629.5 C224.18 633.13 224.67 635.85 225.41 639.58 C225.64 640.81 225.88 642.04 226.13 643.3 C226.4 644.64 226.67 645.98 226.94 647.31 C227.21 648.69 227.48 650.06 227.75 651.43 C229.65 660.89 231.64 670.33 233.73 679.75 C234.03 681.12 234.34 682.5 234.64 683.87 C235.06 685.78 235.49 687.7 235.92 689.61 C236.17 690.7 236.41 691.8 236.66 692.92 C237.26 695.63 237.26 695.63 239.44 697.5 C242.15 697.02 244.72 696.44 247.38 695.75 C257 693.41 266.58 692.33 276.44 691.5 C275.73 690.8 275.02 690.11 274.3 689.39 C271.35 686.44 268.51 683.39 265.69 680.31 C265.16 679.74 264.64 679.17 264.1 678.58 C263.04 677.42 261.98 676.27 260.92 675.11 C259.62 673.7 258.31 672.29 257.01 670.89 C247.13 660.15 238.95 648.5 231 636.31 C230.42 635.43 229.84 634.54 229.25 633.64 C228.73 632.84 228.21 632.04 227.68 631.22 C227.27 630.65 226.86 630.09 226.44 629.5 C226.11 629.5 225.78 629.5 225.44 629.5 Z M-271.56 720.5 C-272.26 721.16 -272.95 721.83 -273.67 722.51 C-288 737.09 -293.2 759.09 -293.81 778.94 C-292.82 811.64 -279.54 842.09 -255.8 864.59 C-236.3 882.41 -213.08 892.63 -186.53 891.83 C-175.68 891.4 -175.68 891.4 -166.56 886.5 C-165.38 883.16 -165.43 879.9 -165.44 876.38 C-165.43 875.32 -165.43 874.27 -165.43 873.18 C-165.38 870.53 -165.38 870.53 -166.56 868.5 C-167.3 868.7 -168.04 868.91 -168.8 869.12 C-184.26 873.23 -198.81 873.6 -213.56 866.5 C-217.72 864.03 -221.65 861.34 -225.56 858.5 C-226.61 857.76 -227.67 857.01 -228.75 856.25 C-243.06 842.26 -251.33 822.85 -251.75 802.88 C-251.71 796.3 -250.73 789.96 -249.56 783.5 C-250.17 784.28 -250.78 785.05 -251.41 785.86 C-254.59 789.76 -257.19 792.17 -262.34 792.89 C-268.85 793.12 -274.33 792.62 -279.56 788.5 C-283.63 784.39 -285.56 780.38 -285.56 774.5 C-284.63 770.15 -283.29 767.23 -280.12 764.06 C-275.28 761.11 -270.13 760.85 -264.56 761.5 C-259.76 763 -255.63 765.53 -252.53 769.57 C-250.52 773.59 -250.09 778.09 -249.56 782.5 C-247.36 779.68 -245.56 776.8 -243.81 773.69 C-237.25 762.79 -227.86 756.83 -215.56 753.5 C-199.15 751.64 -183.38 755.4 -169.91 765.09 C-168.97 765.77 -168.97 765.77 -168.01 766.46 C-167.53 766.8 -167.05 767.15 -166.56 767.5 C-166.49 762.29 -166.43 757.08 -166.4 751.87 C-166.38 750.1 -166.36 748.33 -166.34 746.57 C-165.44 729.93 -165.44 729.93 -172.28 715.57 C-175.81 713.34 -179.32 711.28 -183.06 709.44 C-183.75 709.09 -184.45 708.75 -185.16 708.4 C-213.7 694.68 -248.87 697.22 -271.56 720.5 Z M217.44 718.5 C212.26 728.85 214.31 744.33 214.38 755.81 C214.38 757.34 214.38 758.87 214.39 760.4 C214.4 764.1 214.42 767.8 214.44 771.5 C215.22 770.9 215.22 770.9 216.02 770.3 C228.78 760.64 243.63 751.54 260.25 752.62 C271.08 754.14 280.49 756.74 288.44 764.5 C289.07 765.12 289.71 765.74 290.36 766.38 C300.47 777.09 304 790.85 303.85 805.35 C303.11 825.05 294.47 842 280.44 855.5 C279.42 856.53 279.42 856.53 278.38 857.58 C273.12 862.6 267.07 865.63 260.44 868.5 C259.29 869.01 259.29 869.01 258.11 869.54 C247.15 873.64 232.13 873.11 221.44 868.5 C220.84 868.24 220.24 867.99 219.62 867.73 C217.89 866.99 216.16 866.24 214.44 865.5 C214.36 868.04 214.3 870.58 214.25 873.12 C214.22 873.84 214.2 874.55 214.17 875.29 C214.11 880.09 214.71 883.38 217.44 887.5 C226.43 893.79 242.99 892.38 253.06 891 C280.03 885.68 304.17 869.53 320.19 847.25 C337.02 821.53 346.88 791.91 341.25 761 C337.54 744 329.72 729.83 317.44 717.5 C316.81 716.85 316.19 716.21 315.55 715.54 C302.66 703.14 283.73 699.85 266.52 700.03 C250.17 700.56 229.54 706.85 217.44 718.5 Z M-234.31 773.06 C-243.52 784.14 -244.56 798.77 -243.56 812.5 C-241.44 829.01 -231.95 844.36 -218.94 854.56 C-206.68 862.84 -194.27 866.72 -179.5 863.92 C-175.37 862.79 -172.33 861.89 -169.56 858.5 C-166.43 849.61 -166.4 840.63 -166.39 831.33 C-166.39 830.17 -166.39 829.01 -166.38 827.82 C-166.38 825.37 -166.38 822.93 -166.38 820.48 C-166.38 816.78 -166.36 813.07 -166.34 809.36 C-166.33 806.97 -166.33 804.59 -166.33 802.2 C-166.32 800.56 -166.32 800.56 -166.31 798.89 C-166.12 786.19 -166.12 786.19 -170.5 774.69 C-190.88 760.13 -214.67 752.95 -234.31 773.06 Z M219.44 778.5 C210.09 794.23 214 822.94 214.81 840.75 C214.84 841.51 214.87 842.27 214.91 843.06 C215.18 848.11 215.71 852.72 217.44 857.5 C220.06 859.69 220.06 859.69 223.31 860.94 C224.89 861.65 224.89 861.65 226.49 862.37 C237.27 866.5 249.04 865.59 259.48 860.97 C260.46 860.49 261.43 860 262.44 859.5 C263.76 858.85 263.76 858.85 265.11 858.18 C280.62 849.72 289.4 835.21 294.53 818.81 C297.89 806.58 297.47 793.21 292.08 781.57 C289.41 776.93 286.49 773.03 282.44 769.5 C281.67 768.82 280.91 768.14 280.12 767.44 C260.6 753.36 234.5 761.5 219.44 778.5 Z M-276.31 770.8 C-277.84 772.61 -277.84 772.61 -278.12 775.88 C-277.86 779.65 -277.86 779.65 -275.12 782.38 C-271.29 785.13 -267.22 785.78 -262.56 785.5 C-259.89 784.72 -259.89 784.72 -258.56 782.5 C-257.81 779.09 -257.81 779.09 -258.56 775.5 C-261.18 772.33 -263.39 769.71 -267.62 769.3 C-268.8 769.27 -268.8 769.27 -270 769.25 C-271.17 769.21 -271.17 769.21 -272.37 769.17 C-274.63 769.33 -274.63 769.33 -276.31 770.8 Z " fill="#000000" transform="translate(413.5625,292.5)"/>
<path d="M0 0 C20.31 16.49 36.36 40.22 39.43 66.68 C41 85.56 37.06 102.58 24.94 117.55 C8.04 136.91 -14.25 148.82 -40 151 C-66.6 152.55 -93.2 146.79 -113.8 129.01 C-114.53 128.35 -115.25 127.68 -116 127 C-116.77 126.33 -117.53 125.65 -118.32 124.96 C-129.05 114.97 -138.03 99.62 -139.18 84.69 C-139.88 55.3 -131.37 31.78 -111.08 10.18 C-109.73 8.77 -108.37 7.39 -107 6 C-106.27 5.26 -105.54 4.52 -104.79 3.75 C-75.17 -24.44 -31.52 -24.05 0 0 Z M-105.62 16.25 C-121.25 32.34 -131.28 54.18 -131.25 76.68 C-130.97 93.23 -124.69 106.46 -113 118 C-111.86 119.16 -111.86 119.16 -110.69 120.34 C-94.36 136.03 -72.08 142.91 -49.75 143.31 C-25.74 142.65 -1.83 134.76 15 117 C27.05 102.88 32.15 87.57 31.2 69.22 C30.22 58.11 26.14 47.81 21 38 C20.5 37 20 36.01 19.48 34.98 C14.89 26.46 8.81 19.78 2 13 C1.24 12.24 0.47 11.47 -0.32 10.68 C-32.95 -20.03 -75.11 -12.62 -105.62 16.25 Z " fill="#000000" transform="translate(488,636)"/>
<path d="M0 0 C4.08 3.24 8.56 9.13 9.25 14.45 C9.58 24.2 4.94 32.08 -0.99 39.6 C-3.83 42.55 -6.79 44.95 -10.4 46.91 C-15.18 49.5 -15.18 49.5 -17.85 54.04 C-18.76 61.77 -18.12 70.7 -13.99 77.47 C-9.53 82.91 -2.79 85.58 4.01 86.66 C10.88 87.04 16.55 84.52 21.89 80.35 C25.67 75.45 27.89 70.83 28.95 64.72 C29.38 62.45 29.38 62.45 30.01 60.6 C32.64 59.04 32.64 59.04 35.01 58.6 C36.85 60.69 37.95 62.01 38.26 64.82 C37.24 74.65 33.41 82.14 26.2 88.91 C18.12 95.15 8.95 96.43 -0.99 95.6 C-9.44 93.76 -15 88.57 -20.99 82.6 C-21.58 82.01 -22.17 81.42 -22.77 80.82 C-23.17 80.42 -23.58 80.01 -23.99 79.6 C-24.24 80.35 -24.48 81.1 -24.74 81.88 C-27.47 87.83 -33.95 91.37 -39.74 94.04 C-48.51 97.18 -57.46 96.64 -65.85 92.71 C-66.55 92.35 -67.26 91.98 -67.99 91.6 C-69.04 91.06 -70.09 90.53 -71.18 89.97 C-78.92 83.43 -83.39 74.74 -84.36 64.72 C-83.99 61.6 -83.99 61.6 -82.49 59.66 C-81.99 59.31 -81.5 58.96 -80.99 58.6 C-78.58 59.25 -78.58 59.25 -75.99 60.6 C-75.05 63.1 -75.05 63.1 -74.55 66.16 C-73.08 72.95 -70.82 78.69 -65.14 83 C-58.59 86.65 -51.99 87.37 -44.8 85.41 C-37.91 83.01 -33.36 80.06 -29.96 73.51 C-27.87 67.25 -26.26 56.75 -28.99 50.6 C-30.08 50.1 -31.17 49.61 -32.3 49.1 C-40.26 45.47 -49.04 36.89 -52.38 28.73 C-54.43 21.54 -56.23 14.65 -52.99 7.6 C-48.03 0.31 -41.14 -3.63 -32.69 -5.9 C-21.32 -8.02 -9.95 -5.84 0 0 Z M-44.99 10.35 C-47.04 14.97 -46.73 19.43 -45.11 24.16 C-41.86 31.2 -37.53 36.16 -31.18 40.54 C-25.81 42.32 -20.82 42.88 -15.55 40.5 C-8.25 35.89 -2.54 29.97 0.01 21.6 C0.61 18.1 0.81 15.07 0.01 11.6 C-3.74 6.31 -10.06 3.41 -16.27 2.13 C-27.36 0.59 -36.58 2.99 -44.99 10.35 Z " fill="#000000" transform="translate(460.98828125,640.40234375)"/>
<path d="M0 0 C7.07 5.96 12.3 12.33 16.69 20.44 C17.03 21.07 17.37 21.7 17.72 22.35 C19.68 26.12 21.02 29.49 21.25 33.75 C17.18 40.17 10.94 44.01 4.79 48.25 C1.69 50.4 -1.19 52.74 -4.06 55.19 C-8.35 58.6 -12.11 61.57 -17.75 61.75 C-26.88 59.83 -34.63 55.68 -41.75 49.75 C-42.79 48.89 -42.79 48.89 -43.86 48.02 C-57.24 35.88 -64.11 15.44 -65.19 -2.19 C-65.06 -5.92 -65.06 -5.92 -62.94 -8.19 C-43.19 -14.77 -17.03 -12.53 0 0 Z M-55.75 -1.25 C-55.12 14.45 -49.68 30.35 -38.77 41.97 C-32.76 47.27 -25.17 52.74 -16.89 52.76 C-12.34 51.3 -9.13 48.6 -5.44 45.62 C-4.69 45.04 -3.94 44.45 -3.17 43.84 C-1.69 42.68 -0.22 41.51 1.25 40.34 C3.75 38.35 6.28 36.39 8.81 34.44 C9.96 33.54 11.11 32.65 12.25 31.75 C6.97 19.96 0.64 8.26 -11.75 2.75 C-22.27 -1.09 -31.93 -2.42 -43.06 -2.38 C-44.06 -2.38 -45.06 -2.38 -46.1 -2.39 C-47.05 -2.39 -48 -2.38 -48.99 -2.38 C-49.85 -2.38 -50.72 -2.38 -51.61 -2.38 C-53.8 -2.39 -53.8 -2.39 -55.75 -1.25 Z " fill="#000000" transform="translate(232.75,383.25)"/>
<path d="M0 0 C3.71 7 1.14 15.1 -0.98 22.36 C-6.95 41.56 -15.65 54.93 -33.31 65.19 C-37.18 67.12 -41.12 66.97 -45.31 66.19 C-49.37 63.99 -52.77 61.12 -56.31 58.19 C-58.43 56.53 -60.56 54.89 -62.69 53.25 C-63.22 52.83 -63.76 52.42 -64.31 51.99 C-69.32 48.11 -74.54 44.58 -79.83 41.1 C-82.31 39.19 -82.31 39.19 -83.31 36.19 C-82.29 33.71 -81.22 31.47 -79.94 29.12 C-79.57 28.45 -79.21 27.78 -78.84 27.09 C-71.31 13.71 -60.04 3.76 -45.31 -0.81 C-31.34 -4.33 -13.13 -7.18 0 0 Z M-64.69 20.18 C-67.79 24.02 -69.98 27.34 -70.88 32.31 C-69.16 41.09 -53.36 49.84 -46.31 54.88 C-43.84 56.44 -42.19 57.22 -39.31 57.94 C-29.88 55.58 -22.25 47.54 -17.23 39.56 C-11.26 29.55 -6.82 17.96 -7.31 6.19 C-26.96 2.17 -50.56 4.73 -64.69 20.18 Z " fill="#000000" transform="translate(706.3125,375.8125)"/>
<path d="M0 0 C4.98 2.98 8.91 7.47 10.57 13.09 C12.1 20.44 11.08 26.86 7.01 33.2 C2.86 37.81 -1.56 40.8 -7.82 41.54 C-15.51 41.64 -20.98 40.9 -26.74 35.59 C-31.91 29.99 -33.56 24.43 -33.36 16.86 C-32.55 11.02 -30.24 6.15 -25.76 2.28 C-17.19 -3.58 -9.44 -4.67 0 0 Z " fill="#000000" transform="translate(292.9921875,597.796875)"/>
<path d="M0 0 C5.44 3.16 8.01 8.18 10 14 C11 20.21 10.51 25.73 7.34 31.21 C3.8 35.95 -0.37 39.17 -6 41 C-13.37 41.87 -19.93 41.54 -26 37 C-31.15 31.97 -34.05 26.21 -34.38 19 C-34.04 12.39 -32.15 7.71 -27.25 3.19 C-18.59 -3.74 -9.98 -4.92 0 0 Z " fill="#000000" transform="translate(606,598)"/>
<path d="M0 0 C5 3.26 7.99 7.26 9.88 12.88 C10.67 19.06 10.4 24.76 7.2 30.21 C4.32 33.83 1.15 35.54 -3.4 36.21 C-8.12 36.41 -11.4 35.98 -15.12 32.88 C-20.9 26.7 -22.61 21.92 -22.44 13.6 C-21.82 8.28 -19.48 5.14 -15.56 1.5 C-10.56 -1.84 -5.62 -2.02 0 0 Z M-11.5 9.25 C-14.03 13.34 -13.98 17.2 -13.12 21.88 C-11.76 24.71 -10.62 25.77 -8.12 27.88 C-5.58 28.71 -5.58 28.71 -3.12 27.88 C-0.49 26.19 0.62 24.81 1.45 21.78 C2.05 17.92 2.18 15.56 0.56 11.94 C-2.03 8.58 -2.03 8.58 -6 7.5 C-9.13 7.67 -9.13 7.67 -11.5 9.25 Z " fill="#000000" transform="translate(210.125,1007.125)"/>
<path d="M0 0 C4.06 2.68 7.19 5.13 8.75 9.81 C9.12 15.43 9.01 19.02 5.75 23.81 C0.42 29.18 -3.27 31.94 -11 32.12 C-16.76 32.05 -19.8 31.52 -24.25 27.81 C-27.24 23.96 -28.6 20.21 -28.44 15.31 C-27.36 9.08 -23.32 5.02 -18.32 1.43 C-12.33 -2 -6.46 -2.36 0 0 Z M-17.69 12.19 C-19.45 15.15 -20.03 16.44 -19.25 19.81 C-16.5 22.9 -14.87 23.74 -10.75 24.25 C-6.97 23.78 -5.17 23.24 -2.25 20.81 C-0.28 17.79 0.71 15.74 0.88 12.12 C-0.16 9.42 -0.16 9.42 -3.75 8 C-9.41 6.08 -13.5 8.11 -17.69 12.19 Z " fill="#000000" transform="translate(743.25,1054.1875)"/>
<path d="M0 0 C4.33 2.97 7.29 6.69 9.25 11.56 C10.19 17.15 10.65 22.75 8.07 27.95 C5.39 31.27 2.51 33.79 -1.75 34.56 C-8.06 34.63 -12.93 33.93 -17.75 29.56 C-22.8 22.75 -24.51 17.04 -23.75 8.56 C-22.13 4.83 -19.81 2.24 -16.75 -0.44 C-11.38 -2.23 -5.19 -2.55 0 0 Z M-14.75 8.56 C-16.28 14.15 -15.55 17.54 -12.75 22.56 C-10.4 25.08 -9.17 25.5 -5.75 26 C-2.72 25.75 -2.72 25.75 -0.31 24.12 C1.75 20.75 1.56 18.59 0.92 14.75 C-0.16 11.23 -1.76 9.65 -4.75 7.56 C-10.04 6.17 -10.04 6.17 -14.75 8.56 Z " fill="#000000" transform="translate(172.75,1018.4375)"/>
<path d="M0 0 C3.66 1.73 5.46 3.28 7.88 6.5 C9.75 12.34 10.34 18.6 8.05 24.41 C5.08 29.43 1.54 32.79 -3.75 35.31 C-8.63 36.34 -13.36 36.45 -17.84 33.99 C-21.14 31.43 -23.1 29.06 -24 25 C-24.76 18.15 -24.11 12.66 -20 7 C-14.09 0.79 -8.39 -1.06 0 0 Z M-13 12 C-15.43 16.15 -16.16 18.1 -15.31 22.88 C-14.36 26.09 -14.36 26.09 -12 27 C-8.63 27.58 -8.63 27.58 -5 27 C-1.97 24.56 -0.23 21.69 1 18 C1.42 13.33 1.42 13.33 -0.12 9.06 C-5.25 6.16 -9.23 8.03 -13 12 Z " fill="#000000" transform="translate(721,1017)"/>
<path d="M0 0 C4.96 2.57 8.49 5.98 11 11 C11.68 18.36 12.22 25.36 7.54 31.45 C3.47 35.55 -0.2 37.22 -6 37.62 C-10.69 37.42 -13.31 36.08 -16.59 32.77 C-20.16 28.28 -21.53 23.78 -21.29 18.05 C-20.47 12.23 -18.17 7.17 -14 3 C-9.46 0.01 -5.32 -0.96 0 0 Z M-12 14 C-13.39 18.01 -13.1 19.71 -11.69 23.75 C-10.21 26.99 -10.21 26.99 -8 29 C-3.25 28.76 -3.25 28.76 0.88 26.62 C3.68 22.57 3.61 17.73 3 13 C1.56 10.31 1.56 10.31 -1 9 C-6.46 7.95 -8.72 9.69 -12 14 Z " fill="#000000" transform="translate(680,1006)"/>
</svg>
