<?xml version="1.0" encoding="iso-8859-1"?>
<!-- Generator: Adobe Illustrator 26.0.3, SVG Export Plug-In . SVG Version: 6.00 Build 0)  -->
<svg version="1.1" id="Layer_23" xmlns="http://www.w3.org/2000/svg" xmlns:xlink="http://www.w3.org/1999/xlink" x="0px" y="0px"
	 width="399.611px" height="588.872px" viewBox="0 0 399.611 588.872" enable-background="new 0 0 399.611 588.872"
	 xml:space="preserve">
<path d="M398.451,224.573c-1.268-13.855-3.193-27.602-5.942-41.255c-4.811-23.893-12.761-46.853-20.234-69.964
	c-5.837-18.053-15.013-34.33-26.094-49.612c-3.501-4.829-7.537-9.177-11.97-13.166c-16.874-15.181-35.559-27.677-55.875-37.763
	c-6.183-3.07-12.575-5.542-19.258-7.341c-14.975-4.032-30.19-5.862-45.692-5.402c-9.99,0.062-19.965,0.513-29.88,1.886
	c-12.652,1.752-24.703,5.63-36.562,10.237c-33.193,12.897-61.16,32.931-83.558,60.709c-10.629,13.183-20.034,27.162-28.187,41.984
	C16.995,147.978,4.065,182.722,1.025,220.778c-1.708,21.379-1.347,42.604,1.572,63.833c1.86,13.529,4.918,26.814,7.908,40.107
	c4.008,17.821,9.747,35.088,17.282,51.754c10.812,23.915,27.628,43.402,45.736,61.884c5.943,6.065,12.513,11.528,18.916,17.129
	c12.307,10.768,24.983,21.068,38.943,29.669c2.409,1.484,4.832,3.037,7.436,4.099c11.913,4.861,22.747,11.834,34.33,17.332
	c5.535,2.627,8.127,6.495,7.606,13.131c-0.855,10.89-1.623,21.81-1.815,32.755c-0.134,7.688,0.294,15.369-0.281,23.073
	c-0.483,6.465,4.174,11.686,10.613,12.816c2.115,0.371,4.306,0.582,6.446,0.489c8.641-0.374,17.233-1.277,25.723-2.97
	c11.593-2.312,15.619-7.132,15.697-18.906c0.075-11.348-0.456-22.677-1.215-33.998c-0.271-4.038-0.282-8.095-0.379-12.144
	c-0.158-6.564,2.638-11.425,8.428-14.564c2.373-1.287,4.708-2.643,7.068-3.955c9.21-5.12,18.275-10.465,26.824-16.655
	c12.038-8.716,23.767-17.827,35.214-27.301c10.532-8.717,20.179-18.344,29.221-28.589c15.486-17.547,26.376-37.846,35.007-59.384
	c13.383-33.396,20.18-68.253,21.921-104.12C399.9,252.36,399.721,238.451,398.451,224.573z M372.46,359.25
	c-13.137,37.033-34.695,68.145-65.328,92.892c-10.718,8.658-21.516,17.204-32.641,25.339c-8.631,6.312-17.745,11.829-27.089,16.994
	c-2.717,1.502-5.414,3.042-8.112,4.578c-8.413,4.788-12.309,12.155-12.449,21.706c-0.113,7.711,0.788,15.369,1.126,23.056
	c0.369,8.369,0.617,16.739,0.413,25.112c-0.128,5.225-1.494,6.886-6.721,8.041c-8.985,1.985-18.092,3.078-27.301,3.228
	c-0.943,0.015-1.902-0.001-2.828-0.156c-2.978-0.5-4.24-1.848-4.341-4.89c-0.258-7.696-0.176-15.388,0.26-23.081
	c0.68-11.997,1.208-24.003,1.913-35.998c0.313-5.323-1.763-9.398-5.766-12.725c-2.407-2-5.025-3.633-7.783-5.081
	c-6.933-3.638-13.851-7.305-20.781-10.949c-1.553-0.816-3.087-1.694-4.707-2.353c-15.595-6.35-28.778-16.389-41.604-27.008
	c-9.575-7.927-19.147-15.881-27.972-24.624c-16.164-16.012-31.107-33.073-41.674-53.448c-9.06-17.471-15.284-36.022-19.707-55.151
	c-3.221-13.933-6.386-27.882-8.327-42.087c-2.7-19.759-2.924-39.519-1.608-59.406c1.487-22.476,7.073-43.889,14.934-64.852
	c12.124-32.331,29.343-61.686,52.11-87.599c20.24-23.036,45.114-39.636,73.753-50.639c12.014-4.616,24.201-8.468,37.031-10.004
	c11.019-1.319,22.082-1.363,33.164-1.393c12.264-0.034,24.184,1.952,36.005,4.936c5.653,1.427,11.1,3.409,16.325,5.965
	c20.5,10.028,39.372,22.487,56.288,37.849c3.611,3.279,6.922,6.837,9.795,10.778c10.637,14.594,19.515,30.109,25.112,47.393
	c7.482,23.108,15.395,46.069,20.225,69.963c4.351,21.524,6.451,43.238,6.869,61.962C390.765,287.955,384.904,324.17,372.46,359.25z
	 M73.646,136.172c0.377,7.123,0.713,14.248,1.054,21.373c0.019,0.401,0.015,0.81-0.038,1.208c-0.216,1.632-0.984,2.917-2.755,2.926
	c-1.823,0.009-2.52-1.295-2.604-2.966c-0.371-7.391-0.718-14.796-0.678-22.198c0.005-0.935-0.028-1.899,0.181-2.798
	c0.23-0.99,1.014-1.56,2.059-1.639c1.056-0.08,1.901,0.408,2.262,1.349C73.455,134.284,73.597,135.247,73.646,136.172z
	 M58.418,183.811c-0.019-1.208-0.145-2.441,0.052-3.617c0.189-1.128,0.998-1.911,2.253-1.96c1.241-0.048,2.025,0.6,2.395,1.758
	c0.123,0.383,0.223,0.783,0.261,1.182c0.603,6.446,1.194,12.893,1.829,19.793c-0.004,1.232-0.38,2.794-1.805,3.849
	c-0.899,0.665-1.927,0.973-3.015,0.295c-0.896-0.559-1.321-1.381-1.169-2.392C60.17,196.362,58.518,190.12,58.418,183.811z
	 M25.634,245.527c0.006,2.303-0.078,4.609-0.113,6.911c-0.071,4.602-0.124,9.205-0.094,13.808c0.015,2.2-0.729,3.331-2.405,3.52
	c-1.844,0.209-3.189-0.935-3.18-3.25c0.029-7.004,0.225-14.007,0.401-21.01c0.016-0.647,0.263-1.33,0.559-1.918
	c0.609-1.21,1.666-1.792,3.001-1.489C25.501,242.486,25.63,244.061,25.634,245.527z M91.818,91.069
	c0.015,3.782,0.436,7.564,0.382,11.342c-0.025,1.734-0.068,3.468-0.1,5.203c-0.048,2.537-1.005,3.798-2.673,3.738
	c-1.611-0.058-2.665-1.422-2.838-3.796c-0.078-1.071-0.024-2.152-0.022-3.228c0.009-4.439,0.016-8.879,0.038-13.319
	c0.005-0.94-0.021-1.895,0.128-2.817c0.232-1.438,0.949-2.608,2.577-2.61c1.669-0.002,2.301,1.177,2.427,2.665
	C91.815,89.183,91.815,90.128,91.818,91.069z M32.067,180.3c0.414,6.574,0.349,13.175,1.105,19.729
	c0.147,1.607-0.685,2.604-2.149,2.945c-1.515,0.353-2.58-0.43-3.224-1.792c-0.539-1.14-0.387-2.371-0.422-3.574
	c-0.168-5.78-0.335-11.56-0.492-17.341c-0.018-0.667-0.086-1.362,0.067-1.996c0.236-0.974,0.879-1.654,1.946-1.782
	c1.028-0.123,1.929,0.206,2.375,1.139C31.67,178.46,32.01,179.393,32.067,180.3z M93.97,183.879
	c-0.063-2.01-0.025-4.025,0.022-6.036c0.092-3.888,0.206-7.777,0.345-11.664c0.038-1.066,0.064-2.173,0.677-3.107
	c0.718-1.093,1.71-1.738,3.067-1.319c1.188,0.367,1.602,1.283,1.592,2.489c0,4.984-0.129,9.967-0.186,14.95
	c-0.019,1.665,0.381,3.98-0.466,5.493c-0.639,1.141-1.542,1.886-2.92,1.703C94.676,186.199,94.012,185.209,93.97,183.879z
	 M171.064,115.146c-1.05-0.054-1.794-0.626-2.131-1.578c-0.263-0.745-0.431-1.557-0.46-2.345c-0.207-5.504-0.372-11.01-0.536-16.516
	c-0.016-0.533,0.025-1.077,0.115-1.603c0.254-1.48,0.983-2.534,2.648-2.445c1.453,0.077,2.087,1.085,2.286,2.387
	c0.121,0.793,0.145,1.606,0.151,2.41c0,4.959,0.561,9.934,0.824,14.889c0.057,1.067,0.134,2.152-0.37,3.164
	C173.07,114.557,172.292,115.209,171.064,115.146z M147.694,157.56c0.115-5.78,0.303-11.558,0.481-17.336
	c0.021-0.666,0.067-1.361,0.272-1.986c0.45-1.371,1.268-2.438,2.903-2.248c3.728,0.435,2.304,8.882,2.129,11.466
	c-0.234,3.444-0.103,6.91-0.371,10.336c-0.129,1.656-0.723,3.304-2.619,3.417C148.759,161.312,147.647,159.909,147.694,157.56z
	 M124.783,233.824c-1.623-0.197-2.068-1.468-2.059-2.964c0.019-3.219,0.006-6.438,0.006-9.657c0.011,0,0.022,0,0.033,0
	c0-3.086-0.05-6.173,0.015-9.257c0.056-2.669,0.917-3.889,2.577-3.739c2.117,0.192,2.445,1.776,2.485,3.491
	c0.135,5.768,0.269,11.535,0.372,17.304c0.014,0.797-0.046,1.623-0.246,2.389C127.548,232.989,126.493,234.032,124.783,233.824z
	 M357.099,289.718c0.006,0,0.011,0,0.016,0c0,2.417,0.008,4.834-0.003,7.25c-0.006,1.229-0.21,2.43-0.97,3.43
	c-0.829,1.091-1.987,1.328-3.247,0.931c-1.167-0.367-1.832-1.288-1.672-2.452c0.811-5.87,0.916-11.767,0.883-17.676
	c-0.007-1.308,0.516-2.432,2.012-2.568c1.852-0.168,2.827,1.047,2.93,2.632C357.231,284.073,357.099,286.9,357.099,289.718z
	 M166.241,24.983c0.228,2.681,0.351,5.37,0.512,7.956c0,2.258,0.006,4.412-0.003,6.565c-0.003,0.946-0.05,1.887-0.648,2.696
	c-0.787,1.065-1.795,1.66-3.129,1.25c-1.287-0.396-2.105-1.278-1.908-2.701c0.689-4.97,0.022-9.943,0.104-14.913
	c0.002-0.135-0.01-0.27-0.004-0.404c0.111-2.284,0.969-3.552,2.476-3.481C165.523,22.04,166.107,23.406,166.241,24.983z
	 M242.611,28.914c0.109,2.493,0.206,4.986,0.207,7.48c0,1.055-0.032,2.022-0.7,2.916c-0.717,0.959-1.645,1.386-2.802,1.107
	c-0.995-0.24-1.666-0.958-1.813-1.947c-0.158-1.054-0.126-2.139-0.138-3.211c-0.044-4.028-0.078-8.056-0.101-12.084
	c-0.005-0.939-0.056-1.896,0.102-2.813c0.248-1.442,1.031-2.553,2.645-2.523c2.25,0.042,2.231,2.086,2.3,3.8
	C242.409,24.064,242.505,26.489,242.611,28.914z M151.171,316.908c-1.808,0.05-2.627-1.208-2.649-4.133
	c-0.026-3.489,0.292-7.006,0.101-10.489c-0.051-0.932-0.097-1.864-0.138-2.796c-0.035-0.796-0.141-1.631,0.044-2.385
	c0.356-1.453,1.321-2.352,2.913-2.201c1.441,0.136,2.088,1.128,2.166,2.469c0.132,2.279,0.237,4.562,0.261,6.844
	c0.029,2.82-0.001,5.642-0.071,8.461C153.726,315.6,152.906,316.86,151.171,316.908z M68.157,274.463
	c0.07,2.551,0.146,5.101,0.222,7.651c0.032,1.081-0.002,2.158-0.432,3.168c-0.577,1.359-1.532,2.285-3.1,1.927
	c-1.364-0.312-1.871-1.385-1.863-2.746c0.016-2.685,0.005-5.371,0.005-8.056c0.01,0,0.02,0,0.03,0c0-2.148-0.009-4.297,0.005-6.446
	c0.005-0.804-0.027-1.624,0.114-2.409c0.239-1.327,1.064-2.234,2.453-2.211c1.384,0.023,2.273,0.92,2.365,2.28
	C68.111,269.896,68.095,272.182,68.157,274.463z M293.009,431.526c0.021,2.308,0.06,4.616,0.168,6.922
	c0.068,1.459-0.261,2.777-1.89,3.113c-1.797,0.371-2.79-0.74-3.233-2.305c-0.289-1.02-0.418-2.111-0.44-3.174
	c-0.06-2.958-0.059-5.918-0.014-8.877c0.016-1.066,0.118-2.158,0.378-3.188c0.394-1.564,1.318-2.815,3.124-2.408
	c2.815,0.634,1.874,5.104,1.887,7.189C292.995,429.708,293,430.617,293.009,431.526z M101.186,237.819
	c0.144,2.643,0.304,4.395,0.314,6.147c0.007,1.226-0.27,2.418-1.278,3.292c-0.896,0.776-1.917,1.015-3.007,0.575
	c-1.144-0.462-1.655-1.425-1.429-2.606c0.853-4.454-0.094-8.866-0.232-13.296c-0.1-3.201,0.593-4.724,2.297-4.934
	c1.75-0.215,2.58,0.996,2.898,4.442C100.972,233.857,101.084,236.286,101.186,237.819z M195.269,201.425
	c0-4.524,0.219-9.025,0.431-13.548c0.031-0.662,0.068-1.347,0.369-1.938c1.351-2.653,4.51-0.344,4.552,1.838
	c0.089,4.576,0.085,9.155,0.031,13.732c-0.019,1.621-0.776,2.899-2.545,3.135C196.6,204.843,195.385,203.535,195.269,201.425z
	 M310.877,217.732c0.091,3.909,0.061,7.821,0.073,11.732c0.003,0.954-0.127,1.885-0.651,2.716c-0.784,1.242-1.811,2.036-3.354,1.535
	c-1.369-0.445-1.767-1.531-1.663-2.879c0.156-2.014,0.296-4.03,0.487-6.662c0-1.817-0.069-4.246,0.025-6.669
	c0.061-1.582,0.66-2.964,2.507-3.152C309.822,214.197,310.824,215.447,310.877,217.732z M99.488,396.761
	c0.229,1.639-0.024,3.001-1.861,3.46c-1.471,0.367-3.073-0.736-3.524-2.609c-0.605-2.51-0.149-5.096-0.231-6.686
	c0-3.113-0.112-5.274,0.033-7.418c0.136-2.007,1.404-3.165,3.021-3.1c1.656,0.066,2.433,1.243,2.297,3.478
	C98.962,388.186,98.891,392.483,99.488,396.761z M55.392,141.773c-1.83,0.087-2.751-1.167-2.8-2.789
	c-0.151-5.106-0.21-10.218-0.168-15.326c0.013-1.631,0.943-2.925,2.769-2.785c1.612,0.123,2.181,1.364,2.18,2.882
	c-0.003,4.704,0.278,9.38,0.457,14.079c0.011,0.277,0.013,0.56,0.001,0.841C57.764,140.212,57.27,141.684,55.392,141.773z
	 M176.519,231.006c-0.049,2.159-0.012,4.32-0.012,6.481c-0.016,0-0.032,0-0.047,0c0,2.296,0.075,4.594-0.022,6.886
	c-0.09,2.138-1.179,3.428-2.658,3.435c-1.501,0.008-2.652-1.252-2.66-3.441c-0.018-4.589,0.08-9.182,0.281-13.767
	c0.099-2.243,1.253-3.454,2.79-3.222C176.269,227.69,176.559,229.237,176.519,231.006z M112.004,147.077
	c-1.566,0.081-2.759-1.131-2.729-3.275c0.061-4.313,0.298-8.625,0.53-12.935c0.087-1.623,0.745-2.99,2.656-2.892
	c1.905,0.097,2.361,1.517,2.372,3.144c0.021,3.242,0.005,6.484-0.061,9.725c-0.016,0.792,0.028,1.821-0.065,2.814
	C114.546,145.369,113.98,146.975,112.004,147.077z M186.169,472.149c0.603,1.54-0.132,2.931-1.804,3.55
	c-1.648,0.61-3.212-0.131-3.813-1.956c-0.9-2.733-0.738-5.602-0.852-8.912c-0.092-1.135-0.323-2.749-0.331-4.364
	c-0.012-2.23,0.917-3.443,2.496-3.56c1.589-0.118,2.374,0.898,2.652,3.285C184.981,464.186,184.65,468.268,186.169,472.149z
	 M49.986,216.64c0.198,4.817-0.073,9.659,0.763,14.649c-0.07,1.477-0.838,2.655-2.566,2.856c-1.814,0.211-2.879-0.896-2.942-2.558
	c-0.188-4.956-0.253-9.918-0.249-14.877c0.001-1.624,0.797-2.921,2.679-2.827C49.32,213.965,49.925,215.147,49.986,216.64z
	 M132.001,352.398c0.121,2.405,0.166,4.81-0.023,7.202c-0.122,1.543-1.012,2.706-2.652,2.682c-1.888-0.028-2.448-1.374-2.509-3
	c-0.16-4.282-0.293-8.565-0.436-12.847c-0.027-0.82,0.113-1.601,0.556-2.307c0.623-0.993,1.495-1.542,2.688-1.354
	c1.554,0.246,1.892,1.585,1.966,2.957C131.711,347.946,131.889,350.172,132.001,352.398z M140.376,65.145
	c0.509,1.75-0.313,2.906-2.003,3.358c-1.588,0.425-3.23-0.659-3.393-2.598c-0.419-4.982-0.238-9.984,0.334-14.949
	c0.167-1.446,1.255-2.452,2.876-2.202c1.421,0.219,1.953,1.296,1.955,2.658c0.004,2.565,0.001,5.13,0.001,7.695
	C140.162,61.117,139.793,63.142,140.376,65.145z M121.986,102.607c-1.12,0.059-2.18-0.577-2.546-1.66
	c-0.209-0.617-0.215-1.282-0.22-1.934c-0.025-3.929,0.022-7.809,0.224-11.731c0.077-1.492,0.842-2.595,2.506-2.559
	c1.433,0.03,2.331,1.054,2.372,2.311c0.146,4.42,0.172,8.848,0.069,13.269C124.363,101.584,123.351,102.534,121.986,102.607z
	 M321.97,384.465c0.331,4.405,0.604,8.816,0.795,13.228c0.064,1.472-0.623,2.629-2.29,2.76c-1.615,0.127-2.564-0.83-2.835-2.271
	c-0.295-1.569-0.338-3.189-0.428-4.791c-0.079-1.403,0.028-2.8-0.07-4.204c-0.099-1.404-0.266-2.843-0.26-4.228
	c0.011-2.295,0.897-3.481,2.474-3.458C321.269,381.53,321.853,382.913,321.97,384.465z M161.998,421.07
	c0.093,2.158,0.203,4.315,0.126,6.475c-0.08,2.243-1.053,3.504-2.594,3.409c-1.831-0.113-2.555-1.373-2.614-3.016
	c-0.154-4.314-0.32-8.631-0.308-12.947c0.006-2.23,1.067-3.284,2.758-3.293c2.91-0.017,2.538,3.295,2.53,5.334
	C161.889,418.379,161.94,419.725,161.998,421.07z M335.528,326.507c0.245,4.035,0.499,8.069,0.736,12.104
	c0.023,0.399-0.005,0.811-0.076,1.205c-0.281,1.548-1.254,2.405-2.799,2.352c-1.433-0.049-2.145-1.039-2.256-2.395
	c-0.27-3.271-0.646-6.594-0.667-9.878c-0.007-1.014-0.006-2.027,0.034-3.04c0.086-2.207,1.075-3.516,2.582-3.439
	C335.005,323.514,335.431,324.901,335.528,326.507z M58.138,356.743c-1.847,0.194-2.832-1.069-2.939-2.627
	c-0.311-4.536-0.457-9.087-0.526-13.634c-0.022-1.44,0.757-2.646,2.419-2.662c2.112-0.02,2.575,1.778,2.568,3.551
	c-0.016,4.118,0.579,8.111,0.806,12.206C60.556,355.212,59.973,356.55,58.138,356.743z M348.174,201.066
	c0.507,4.283,0.963,8.573,1.51,13.503c-0.021,0.966-0.444,2.382-2.303,2.599c-1.849,0.216-2.767-1.016-2.978-2.621
	c-0.528-4.011-0.933-8.038-1.321-12.066c-0.062-0.64,0.111-1.358,0.363-1.961c0.464-1.108,1.418-1.639,2.598-1.528
	C347.251,199.105,348.031,199.858,348.174,201.066z M282.014,361.076c0.137,1.875,0.366,3.75,0.383,5.626
	c0.013,1.453-0.621,2.674-2.249,2.871c-1.848,0.223-2.864-0.95-2.983-2.557c-0.326-4.417-0.511-8.849-0.602-13.278
	c-0.03-1.474,0.87-2.629,2.483-2.628c1.409,0.001,2.199,1.059,2.357,2.344c0.311,2.528,0.453,5.077,0.665,7.617
	C282.051,361.073,282.033,361.075,282.014,361.076z M249.868,417.143c0.05,1.357,0.395,3.3-0.421,4.49
	c-0.414,0.604-1.079,0.917-1.794,0.998c-1.786,0.202-2.841-1.026-2.926-2.627c-0.227-4.276-0.238-8.564-0.31-12.847
	c-0.007-0.389,0.102-0.808,0.261-1.167c0.544-1.231,1.476-1.905,2.859-1.672c1.224,0.207,1.87,1.038,1.894,2.243
	c0.025,1.21,0.027,2.42,0.024,3.631c-0.001,0.522-0.005,1.044-0.007,1.566c0,0.528,0.031,1.06,0.077,1.592
	C249.632,414.613,249.821,415.883,249.868,417.143z M210.542,83.519c0,1.875,0.066,3.754-0.021,5.625
	c-0.071,1.528-0.89,2.531-2.525,2.53c-1.408-0.001-2.366-0.823-2.444-2.176c-0.253-4.41-0.435-8.826-0.493-13.242
	c-0.017-1.289,0.856-2.291,2.262-2.399c1.42-0.109,2.236,0.767,2.561,2.064C210.508,78.416,210.361,80.98,210.542,83.519z
	 M316.015,76.216c-1.831-0.035-2.555-1.103-2.632-2.856c-0.148-3.363-1.043-6.612-1.628-9.908c-0.117-0.659-0.371-1.299-0.433-1.96
	c-0.127-1.336,0.377-2.409,1.695-2.862c1.389-0.477,2.292,0.275,2.952,1.421c0.067,0.116,0.133,0.235,0.177,0.361
	c1.419,4.076,1.867,8.359,2.696,12.289C318.769,74.96,317.687,76.248,316.015,76.216z M31.766,321.643
	c0.172,1.966,0.534,4.787-2.188,5.006c-1.63,0.131-2.482-0.933-2.789-2.354c-0.254-1.171-0.258-2.397-0.35-3.601
	c-0.216-2.812-0.514-5.621-0.595-8.437c-0.062-2.14,1.043-3.502,2.556-3.423c2.02,0.106,2.414,1.922,2.562,3.617
	c0.195,2.227,0.39,4.454,0.585,6.681C31.619,319.968,31.692,320.805,31.766,321.643z M287.05,308.096
	c-1.834-0.057-2.621-1.39-2.556-3.005c0.162-4.017,0.41-8.035,0.816-12.033c0.158-1.55,1.164-2.866,2.945-2.687
	c1.809,0.182,2.328,1.554,2.202,3.234c-0.12,1.604-0.207,3.211-0.306,4.817c-0.109,2.278-0.157,4.561-0.354,6.832
	C289.658,306.869,288.885,308.153,287.05,308.096z M358.791,174.621c-0.573-3.978-1.116-7.961-1.597-11.951
	c-0.177-1.466,0.312-2.735,1.952-3.02c1.613-0.28,2.536,0.689,2.903,2.138c1.022,4.039,1.405,8.181,1.889,12.144
	c0.036,1.788-0.398,3.225-2.244,3.387C359.913,177.476,359.026,176.251,358.791,174.621z M364.338,354.161
	c0.114,1.344,0.266,2.688,0.27,4.039c0.003,0.939,0.002,1.879-0.015,2.818c-0.028,1.513-0.657,2.66-2.296,2.787
	c-1.792,0.139-2.849-0.884-2.941-2.6c-0.195-3.626-0.295-7.259-0.312-10.89c-0.008-1.595,0.674-3.039,2.479-3.138
	c1.899-0.104,2.452,1.374,2.6,2.957C364.249,351.473,364.225,352.82,364.338,354.161z M109.089,289.579c0.033,0,0.067,0,0.1,0
	c0,1.605,0.044,3.212-0.012,4.815c-0.058,1.652-0.764,2.914-2.586,2.959c-1.642,0.04-2.412-1.108-2.495-2.582
	c-0.204-3.605-0.339-7.216-0.403-10.826c-0.028-1.595,0.601-2.934,2.387-3.208c1.528-0.234,2.499,0.899,2.721,3.229
	C108.98,285.83,108.999,287.708,109.089,289.579z M224.082,442.578c0.168,1.601,0.16,3.22,0.084,4.828
	c-0.079,1.683-0.963,2.889-2.707,2.885c-1.575-0.003-2.438-1.255-2.521-2.669c-0.22-3.743-0.29-7.497-0.324-11.247
	c-0.013-1.497,0.756-2.643,2.361-2.727c1.64-0.085,2.394,1.013,2.534,2.523c0.175,1.888,0.271,3.769,0.487,5.652
	c0.021,0.181,0.041,0.362,0.062,0.543C224.067,442.436,224.075,442.507,224.082,442.578z M243.802,200.683
	c0.213-2.608-1.631-12.784,2.925-12.532c1.64,0.091,2.255,1.339,2.32,2.79c0.149,3.347,0.321,6.7,0.261,10.047
	c-0.041,2.302-1.365,3.5-3.174,3.223C244.103,203.901,243.651,202.535,243.802,200.683z M236.022,296.563
	c-0.43,3.109-0.072,6.206-0.061,9.301c0.003,0.942,0.042,1.892-0.064,2.824c-0.151,1.328-0.844,2.349-2.26,2.438
	c-1.595,0.1-2.625-0.869-2.732-2.381c-0.189-2.685-0.177-5.387-0.182-8.082c-0.003-1.613-0.073-3.265,0.241-4.829
	c0.317-1.58,1.47-2.673,3.226-2.349C235.818,293.783,236.18,295.088,236.022,296.563z M341.679,120.553
	c0.313,1.622-0.268,3.024-2.026,3.384c-1.788,0.367-2.85-0.802-3.187-2.357c-0.764-3.528-1.337-7.098-1.98-10.605
	c-0.042-1.656,0.312-3.083,2.18-3.324c1.626-0.21,2.432,0.82,2.751,2.304C340.18,113.486,340.996,117.006,341.679,120.553z
	 M180.381,341.64c-0.229-3.203-0.364-6.413-0.511-9.622c-0.044-0.955,0.188-1.867,0.754-2.656c0.796-1.108,1.894-1.474,3.175-1.077
	c1.179,0.366,1.73,1.298,1.572,2.478c-0.234,1.743-0.16,3.471,0.124,5.207c0,1.74,0.002,3.479-0.001,5.219
	c-0.002,1.624-0.471,3.02-2.32,3.174C181.344,344.516,180.499,343.299,180.381,341.64z M201.315,554.836
	c0.115,1.983-0.089,5.237-2.748,5.276c-1.641,0.024-2.545-1.017-2.602-2.521c-0.152-4.041-0.221-8.089-0.176-12.133
	c0.017-1.494,0.897-2.595,2.572-2.494c1.59,0.096,2.216,1.455,2.357,2.851c0.197,1.944,0.21,3.974,0.363,5.871
	C201.164,552.731,201.253,553.777,201.315,554.836z M118.671,440.559c0.296,2.646,0.711,5.502,0.508,8.119
	c-0.127,1.635-0.746,3.64-2.661,3.819c-1.612,0.15-2.581-0.84-2.685-2.346c-0.229-3.329-0.384-6.67-0.363-10.005
	c0.01-1.593,0.968-2.809,2.698-2.98c0.831-0.082,1.682,0.395,2.053,1.14c0.246,0.495,0.323,1.055,0.38,1.604
	C118.623,440.124,118.646,440.341,118.671,440.559z M282.826,243.014c0.095,1.328-0.002,3.2,0.304,5.083
	c0.343,2.115-0.932,3.74-2.605,3.774c-1.463,0.03-2.712-1.258-2.786-3.342c-0.118-3.36-0.022-6.728,0.023-10.092
	c0.007-0.522,0.114-1.101,0.361-1.552c0.614-1.123,1.501-1.966,2.916-1.632c1.193,0.282,1.768,1.158,1.782,2.369
	C282.841,239.238,282.826,240.852,282.826,243.014z M303.073,127.623c0.942,3.554,0.596,7.261,1.278,10.545
	c0.099,1.775-0.266,3.088-1.845,3.476c-1.817,0.447-3.021-0.722-3.236-2.268c-0.537-3.864-0.844-7.768-1.053-11.666
	c-0.072-1.331,0.884-2.25,2.341-2.272C302.008,125.418,302.73,126.328,303.073,127.623z M282.355,186.438
	c-1.637,0.096-2.659-0.932-2.73-2.386c-0.191-3.896-0.225-7.805-0.146-11.705c0.031-1.521,1.109-2.5,2.697-2.404
	c1.684,0.102,2.189,1.329,2.192,2.838c0.003,1.918,0.208,3.815,0.386,5.718c0.066,0.708,0.128,1.417,0.174,2.128
	C285.055,182.601,285.065,186.279,282.355,186.438z M261.216,107.488c0.375,3.72,0.617,7.46,0.727,11.198
	c0.043,1.476-0.92,2.61-2.509,2.572c-1.535-0.036-2.42-1.124-2.579-2.601c-0.383-3.551-0.635-7.251-0.459-10.82
	c0.063-1.274,0.542-2.387,2.032-2.578C260.099,105.045,261.07,106.05,261.216,107.488z M236.206,249.666
	c0.375,3.72,0.617,7.46,0.727,11.198c0.043,1.476-0.92,2.61-2.509,2.572c-1.535-0.036-2.42-1.124-2.579-2.601
	c-0.383-3.551-0.635-7.251-0.459-10.82c0.063-1.274,0.542-2.387,2.032-2.578C235.09,247.222,236.061,248.227,236.206,249.666z
	 M235.641,351.832c0.011,0,0.021,0,0.031,0c0,1.75,0,3.5,0,5.25c0,1.696-0.644,2.964-2.497,3.007
	c-1.602,0.038-2.479-1.032-2.589-2.544c-0.276-3.76-0.296-7.533,0.021-11.29c0.141-1.668,1.171-2.801,2.958-2.608
	c1.632,0.176,2.119,1.408,2.085,2.935C235.611,348.332,235.641,350.082,235.641,351.832z M205.33,28.189
	c-0.116,1.468-0.859,2.63-2.518,2.639c-1.627,0.009-2.557-1.098-2.618-2.556c-0.129-3.097-0.127-6.21,0.05-9.303
	c0.089-1.556,0.941-2.94,2.804-2.844c1.915,0.099,2.344,1.512,2.331,3.156c-0.01,1.35-0.002,2.7-0.002,4.05c-0.006,0-0.013,0-0.02,0
	C205.359,24.952,205.457,26.579,205.33,28.189z M261.742,460.893c-0.422,2.144-0.086,4.271-0.177,6.402
	c-0.04,0.934,0.043,1.891-0.13,2.799c-0.249,1.304-1.102,2.201-2.481,2.191c-2.456-0.018-2.406-2.539-2.561-4.374
	c-0.22-2.609-0.307-5.251,0.066-7.85c0.259-1.805,1.854-2.958,3.358-2.786C261.44,457.461,262.182,458.654,261.742,460.893z
	 M104.15,57.312c-0.161-1.334-0.374-2.662-0.489-3.469c0-1.199-0.085-1.882,0.019-2.536c0.186-1.182,0.896-1.947,2.131-2.053
	c1.222-0.105,2.269,0.469,2.483,1.613c0.716,3.826,1.315,7.678,1.822,11.538c0.176,1.342-0.596,2.361-2.012,2.572
	c-1.37,0.204-2.339-0.482-2.85-1.737C104.482,61.344,104.391,59.313,104.15,57.312z M220.217,527.26
	c0.169,3.498,0.236,7.001,0.333,10.502c0.007,0.265-0.056,0.536-0.11,0.799c-0.3,1.456-1.061,2.596-2.645,2.558
	c-1.619-0.039-2.318-1.231-2.367-2.736c-0.109-3.389-0.119-6.777-0.14-10.168c-0.01-1.65,0.42-3.412,2.381-3.501
	C219.271,524.641,220.143,525.731,220.217,527.26z M88.068,324.884c-0.065,1.586-0.266,3.109-0.17,4.696
	c0.097,1.594,0.216,3.202,0.034,4.795c-0.151,1.326-1.157,2.705-2.615,2.645c-1.781-0.073-2.663-1.274-2.71-2.894
	c-0.08-2.799-0.01-5.607,0.126-8.405c0.037-0.752,0.44-1.545,0.856-2.204c0.63-0.999,1.644-1.337,2.793-1.033
	C87.589,322.803,88.116,323.702,88.068,324.884z M195.195,285.416c-0.395-0.675-0.704-1.501-0.734-2.272
	c-0.102-2.694-0.086-5.394-0.074-8.092c0.006-1.491,0.547-2.724,2.205-2.878c1.901-0.177,2.635,1.104,2.801,2.742
	c0.251,2.474,0.142,4.967,0.383,7.442c0.163,1.679,0.514,3.662-1.495,4.324C196.934,287.127,195.865,286.563,195.195,285.416z
	 M189.18,142.295c0.076,1.198,0.164,2.398,0.282,3.612c0.165,1.703-0.498,2.943-2.27,3.195c-1.803,0.256-2.874-0.906-3.093-2.476
	c-0.293-2.109-0.231-4.27-0.259-6.41c-0.016-1.201-0.034-2.428,0.182-3.6c0.236-1.279,1.058-2.187,2.486-2.187
	c1.466,0,2.247,0.937,2.337,2.263C188.974,138.578,189.062,140.433,189.18,142.295z M63.026,386.184
	c0.371,3.339,0.729,6.682,0.949,10.033c0.091,1.385-0.85,2.257-2.202,2.447c-1.333,0.188-2.366-0.36-2.877-1.676
	c-0.801-2.065-0.567-4.244-0.721-6.509c0-1.22-0.047-2.567,0.013-3.909c0.068-1.526,0.765-2.607,2.435-2.617
	C62.054,383.944,62.875,384.823,63.026,386.184z M169.037,67.751c0-2.003-0.124-3.363,0.032-4.691
	c0.182-1.546,1.235-2.39,2.791-2.362c1.671,0.03,2.499,1.08,2.32,2.652c-0.343,3.011,0.412,5.911,0.668,8.861
	c0.142,1.634-0.212,3.109-2.041,3.416c-1.788,0.299-2.784-0.86-3.07-2.508C169.393,71.129,169.209,69.112,169.037,67.751z
	 M201.52,392.933c0.307,3.624,0.534,7.263,0.226,10.897c-0.115,1.363-0.982,2.213-2.418,2.223c-1.43,0.01-2.349-0.824-2.455-2.178
	c-0.096-1.177-0.118-2.375-0.068-3.555c0.051-1.207-0.031-2.411-0.091-3.616c-0.062-1.244-0.04-2.491,0.041-3.734
	c0.089-1.363,0.932-2.269,2.356-2.281C200.538,390.679,201.405,391.586,201.52,392.933z M196.345,520.063
	c-0.642-3.593-0.65-7.235,0.088-10.815c0.228-1.108,1.268-1.753,2.503-1.587c1.29,0.174,1.867,1.07,2.088,2.152
	c0.068,0.335,0.102,0.688,0.113,1.043c0.085,2.897,0.235,5.763-0.024,8.649c-0.12,1.331-0.904,2.274-2.346,2.334
	C197.535,521.891,196.54,521.157,196.345,520.063z M163.175,372.845c0.537,3.173,0.43,6.395,0.037,9.579
	c-0.158,1.284-1.105,2.23-2.465,2.233c-1.576,0.004-2.418-1.086-2.591-2.551c-0.14-1.184-0.028-2.398-0.028-3.02
	c0.191-2.186,0.069-3.767-0.221-5.361c-0.308-1.696,0.488-2.943,2.168-3.284C161.885,370.074,162.91,371.277,163.175,372.845z
	 M271.902,70.382c0.286,1.484-0.136,2.767-1.699,3.223c-1.79,0.523-2.959-0.512-3.349-2.093c-0.741-3.007-1.238-6.075-1.828-9.079
	c-0.015-1.521,0.427-2.819,1.977-3.184c1.88-0.443,2.729,0.835,3.09,2.413C270.754,64.557,271.34,67.468,271.902,70.382z
	 M230.326,151.836c-1.786-0.008-2.75-1.106-2.787-2.797c-0.068-3.087-0.025-6.179,0.074-9.266c0.048-1.482,0.805-2.663,2.41-2.715
	c1.899-0.062,2.499,1.308,2.563,2.937c0.063,1.61,0.014,3.224,0.014,5.32c0.077,0.724,0.268,1.919,0.319,3.12
	C233.005,150.426,231.941,151.843,230.326,151.836z M79.739,226.135c-1.451,0.121-2.404-0.737-2.6-1.985
	c-0.477-3.043-0.428-6.118,0.401-9.116c0.315-1.138,1.191-1.791,2.394-1.715c0.872,0.055,1.56,0.863,2.035,2.048
	C83.392,218.921,82.902,225.87,79.739,226.135z M154.462,472.386c0.127,1.495,0.277,2.564,0.296,3.636
	c0.028,1.619-0.96,2.498-2.44,2.695c-1.371,0.183-2.44-0.547-2.692-1.891c-0.574-3.062-0.465-6.159,0.073-9.219
	c0.207-1.177,1.104-1.842,2.325-1.841c1.433,0.001,2.3,0.839,2.409,2.205C154.56,469.574,154.462,471.195,154.462,472.386z
	 M216.033,560.507c0.382,2.77,0.679,5.566,0.759,8.359c0.042,1.454-0.912,2.507-2.514,2.583c-1.429,0.068-2.305-0.829-2.559-2.081
	c-0.565-2.775-0.639-5.673-0.375-8.487c0.119-1.269,0.771-2.213,2.113-2.358C214.854,558.373,215.852,559.193,216.033,560.507z
	 M214.785,482.277c-0.274-1.958-0.404-4.239,0.092-6.177c0.325-1.27,1.209-2.122,2.645-1.978c1.23,0.123,1.938,0.96,2.106,2.115
	c0.29,1.989,0.573,3.993,0.636,5.997c0.053,1.669-0.904,2.854-2.611,3.04c-1.043,0.114-1.954-0.383-2.421-1.327
	C214.976,483.428,214.865,482.851,214.785,482.277z"/>
<g>
</g>
<g>
</g>
<g>
</g>
<g>
</g>
<g>
</g>
<g>
</g>
</svg>
