<?xml version="1.0" encoding="UTF-8"?>
<!-- Generator: visioncortex VTracer 0.6.3 -->
<svg version="1.1" xmlns="http://www.w3.org/2000/svg" width="1136" height="1280">
<path d="M0 0 C1.18 0.36 1.18 0.36 2.38 0.73 C18.66 5.92 33.33 13.41 46 25 C46.89 25.8 47.78 26.59 48.7 27.41 C56.77 35.02 62.86 43.81 69 53 C74.82 52.45 79.47 50.74 84.81 48.44 C118.97 34.37 156.08 26.95 193 26 C194.19 25.97 194.19 25.97 195.41 25.93 C272.76 24.12 357.41 42.12 426.7 76.85 C430.89 78.87 433.51 79.24 438 78 C438.33 77.01 438.66 76.02 439 75 C459.99 54.38 492.72 45.4 521.44 45.65 C552.24 46.49 582.78 57.62 606 78 C606.78 78.65 607.56 79.29 608.36 79.96 C633.61 101.33 650.11 136.49 654 169 C656.54 206.88 644.54 238.07 622 268 C621.56 268.6 621.12 269.19 620.66 269.81 C613.21 279.72 604.06 286.84 594 294 C594.23 294.9 594.46 295.8 594.7 296.73 C595.61 300.31 596.5 303.91 597.38 307.5 C597.79 309.17 598.21 310.83 598.63 312.5 C604.32 335.1 606.9 357.7 606 381 C605.94 382.68 605.94 382.68 605.87 384.39 C602.31 467.82 579.61 540.7 528 607 C527.28 607.94 526.55 608.87 525.8 609.84 C513.1 626 498.42 641.58 482 654 C480.86 654.89 479.72 655.78 478.59 656.67 C461.42 669.98 442.92 681.38 424 692 C424.24 692.94 424.48 693.87 424.73 694.84 C426.92 703.56 428.67 712.31 430.12 721.19 C430.36 722.6 430.36 722.6 430.6 724.04 C433.87 744.69 434.45 765.37 434.44 786.25 C434.44 786.95 434.44 787.65 434.44 788.37 C434.44 844.77 426.74 900.51 419.04 956.27 C406.21 1020.28 406.21 1020.28 419.59 1081.23 C423.73 1086.42 428.86 1090.75 433.84 1095.11 C443.08 1103.4 448.37 1112.44 449.94 1124.81 C450.56 1136.75 446.99 1149.59 439.4 1158.98 C437.64 1161.51 437.19 1163.74 436.56 1166.75 C433.95 1177.8 428.88 1186.2 419.06 1192.31 C412.42 1196 406.48 1197.93 399 1199.31 C393.5 1200.43 390.31 1201.81 386.13 1205.44 C374.98 1213.59 359.28 1214.59 346.02 1212.54 C333.94 1209.27 324.27 1201.23 316.62 1191.62 C307.07 1179.77 295.14 1172.16 282.6 1163.75 C256.18 1145.97 235.33 1125.45 219 1098 C218.61 1097.35 218.22 1096.71 217.82 1096.04 C215 1091.24 215 1091.24 215 1089 C209.7 1093.38 204.83 1098.12 200 1103 C195.16 1107.88 190.32 1112.64 185 1117 C184.49 1117.42 183.98 1117.85 183.45 1118.29 C171.42 1128.27 158.87 1137.04 145.2 1144.62 C142.88 1145.81 142.88 1145.81 142 1148 C140.4 1159.41 140.42 1170.98 140.1 1182.48 C140.01 1185.53 139.89 1188.57 139.76 1191.62 C139.48 1199.7 139.45 1205.67 145 1212 C152.23 1221.89 156.58 1229.37 155 1242 C151.75 1252.28 144.66 1259.47 135.53 1264.77 C129.25 1267.82 123.93 1268.34 117.06 1268.31 C115.76 1268.34 115.76 1268.34 114.43 1268.36 C110.28 1268.36 106.97 1268.22 103.18 1266.42 C99.69 1264.86 98.53 1264.7 95 1266 C92.7 1267.26 92.7 1267.26 90.44 1268.81 C79 1275.81 67.14 1277.82 53.97 1275.46 C50 1274.38 47.28 1273.2 43.94 1270.75 C39.72 1268.24 36.67 1269.01 32 1270 C30.62 1270.35 29.25 1270.71 27.88 1271.06 C15.64 1273.86 4.6 1272.24 -6.25 1266.19 C-15.05 1259.18 -19.97 1252.23 -22 1241 C-22.24 1237.95 -22.24 1234.93 -22.19 1231.88 C-22.19 1231.1 -22.19 1230.33 -22.19 1229.54 C-22.16 1226.13 -22 1223.02 -21.39 1219.66 C-20.8 1215.62 -22.75 1213.16 -25 1210 C-25.45 1209.33 -25.9 1208.66 -26.36 1207.96 C-27.08 1206.99 -27.08 1206.99 -27.81 1206 C-28.25 1205.4 -28.69 1204.8 -29.14 1204.19 C-32.79 1201.85 -37.16 1203.82 -41.15 1204.68 C-42.21 1204.93 -43.28 1205.18 -44.38 1205.44 C-58.34 1208.45 -72.15 1209.3 -86.39 1209.23 C-87.99 1209.23 -89.6 1209.23 -91.2 1209.23 C-94.53 1209.23 -97.86 1209.22 -101.18 1209.21 C-105.41 1209.19 -109.64 1209.18 -113.87 1209.19 C-117.17 1209.19 -120.47 1209.18 -123.77 1209.17 C-125.32 1209.17 -126.88 1209.17 -128.44 1209.17 C-137.67 1209.16 -146.81 1208.87 -156 1208 C-154.01 1214.21 -151.09 1219.57 -147.78 1225.16 C-144.2 1231.24 -143.21 1236.01 -144 1243 C-148.81 1252.61 -158.35 1256.23 -168 1259.5 C-206 1271.34 -248.69 1269.05 -288.04 1269.18 C-290.42 1269.18 -292.81 1269.19 -295.2 1269.21 C-382.81 1269.68 -382.81 1269.68 -410.72 1242.6 C-424.76 1226.59 -429.42 1207.6 -429.19 1186.62 C-429.18 1185.4 -429.17 1184.18 -429.17 1182.93 C-429.11 1175.5 -428.88 1168.1 -428.5 1160.69 C-426.41 1119.98 -432.89 1082.14 -442.38 1042.72 C-446.51 1025.55 -450.45 1008.49 -453 991 C-453.12 990.21 -453.24 989.42 -453.36 988.6 C-463.3 921.24 -445.73 852.03 -423.4 788.82 C-423.18 788.18 -422.95 787.53 -422.71 786.86 C-422.1 785.11 -421.47 783.37 -420.85 781.62 C-419.9 779.14 -419.9 779.14 -420 777 C-420.82 776.88 -421.65 776.75 -422.5 776.62 C-441.29 773.27 -459.91 762.7 -471.13 747.03 C-482.32 729.74 -484.83 709.47 -481.32 689.26 C-480.48 685.41 -479.3 681.71 -478 678 C-477.35 676.13 -477.35 676.13 -476.68 674.23 C-464.12 640.15 -438.45 611.3 -405.69 595.54 C-388.13 588.23 -367.33 584.19 -349 591 C-335.04 596.9 -325.2 604.9 -316 617 C-311.95 615.33 -308.98 612.49 -305.75 609.62 C-287.52 593.75 -267.44 581.06 -246.37 569.32 C-244.36 568.2 -242.35 567.06 -240.35 565.92 C-202.49 544.92 -156.14 526.46 -113 522 C-113.39 520.92 -113.78 519.83 -114.18 518.71 C-145.64 430.41 -156.67 339.44 -124.13 249.43 C-123.85 248.65 -123.57 247.87 -123.29 247.06 C-122.91 246.06 -122.91 246.06 -122.53 245.04 C-121.88 242.54 -121.71 240.57 -122 238 C-123.25 236.13 -123.25 236.13 -125.08 234.57 C-125.74 233.95 -126.4 233.33 -127.08 232.69 C-128.15 231.7 -128.15 231.7 -129.25 230.69 C-146.87 213.73 -159.44 193.27 -167 170 C-167.22 169.32 -167.45 168.63 -167.68 167.93 C-173.9 147.98 -173.08 124.86 -167 105 C-166.65 103.76 -166.3 102.52 -165.94 101.25 C-161.5 86.73 -154.82 72.37 -146 60 C-145.58 59.41 -145.16 58.81 -144.72 58.2 C-134.95 44.52 -124.5 32.15 -111 22 C-109.84 21.11 -109.84 21.11 -108.65 20.21 C-77.95 -2.24 -36.85 -11.41 0 0 Z M-120 39 C-121.15 40.06 -121.15 40.06 -122.32 41.13 C-145.65 63.16 -163.24 98.43 -164.34 130.66 C-164.86 170.67 -148.99 200.29 -122 229 C-121.01 229.99 -121.01 229.99 -120 231 C-117.95 230.98 -117.95 230.98 -116 230 C-114.72 228.26 -114.72 228.26 -113.84 226.01 C-113.47 225.17 -113.09 224.33 -112.7 223.46 C-112.31 222.55 -111.91 221.63 -111.5 220.69 C-101.4 198.53 -87.77 178.51 -72 160 C-71.07 158.89 -70.14 157.79 -69.2 156.68 C-56.47 141.63 -43.18 126.63 -28 114 C-27.5 113.57 -27 113.14 -26.49 112.7 C-6.28 95.36 16.6 80.99 40.5 69.29 C41.14 68.97 41.78 68.66 42.45 68.33 C45.63 66.77 48.82 65.23 52.02 63.72 C53.18 63.16 54.33 62.6 55.52 62.03 C56.55 61.54 57.58 61.05 58.65 60.55 C61.12 59.22 61.12 59.22 61.9 56.95 C62.23 50.38 54.35 43.07 50.21 38.38 C38.87 25.97 26.2 17.94 11 11 C10.13 10.59 9.26 10.18 8.36 9.76 C-2.14 5.16 -14.55 2.4 -26 2 C-27.11 1.96 -28.23 1.92 -29.38 1.88 C-64.99 1.25 -94.65 14.56 -120 39 Z M50 71 C49.03 71.46 48.07 71.92 47.08 72.39 C27.96 81.49 9.89 92.23 -7 105 C-7.58 105.44 -8.16 105.87 -8.75 106.32 C-16.21 111.97 -23.3 117.9 -30.12 124.3 C-32.98 126.98 -35.89 129.58 -38.81 132.19 C-42.63 135.65 -46.09 139.21 -49.4 143.15 C-50.98 144.97 -52.64 146.64 -54.38 148.31 C-58.11 151.99 -61.36 156 -64.63 160.08 C-66.16 161.97 -67.72 163.83 -69.3 165.67 C-121.46 226.2 -142.83 314.56 -137.5 393.45 C-132.98 447.82 -117.58 510.11 -87 556 C-86.62 556.58 -86.23 557.15 -85.84 557.74 C-76.29 571.93 -64.96 584.21 -52.94 596.31 C-52.43 596.82 -51.92 597.34 -51.4 597.86 C-44.6 604.72 -37.55 610.97 -30 617 C-28.9 617.93 -27.8 618.88 -26.71 619.83 C33.88 672.66 114.01 701.63 192.66 712.67 C194.92 712.99 197.17 713.32 199.42 713.65 C243.81 720.02 291.69 719.9 336 713 C337.2 712.82 338.41 712.64 339.65 712.45 C380.59 706.05 419.95 689.51 454 666 C454.69 665.53 455.39 665.05 456.11 664.57 C477.81 649.79 499.19 632.83 515.54 612.11 C517.23 609.97 518.94 607.84 520.68 605.73 C528 596.78 534.64 587.53 541 577.88 C541.71 576.8 541.71 576.8 542.44 575.7 C550.12 564.08 557.62 552.4 564 540 C564.42 539.18 564.84 538.37 565.28 537.52 C601.17 466.38 610.57 369.21 585.88 293.75 C569.38 245 545.85 195.62 510.48 157.7 C508.5 155.54 506.56 153.36 504.64 151.15 C492.24 136.93 479.14 122.62 464.67 110.46 C462.93 108.94 461.39 107.31 459.81 105.62 C444.65 90.22 422.82 81.43 403 73.88 C402.15 73.55 401.31 73.23 400.44 72.89 C351.24 54.11 301.43 40.66 249 35 C247.97 34.88 246.94 34.77 245.88 34.65 C176.95 26.99 112.08 41.04 50 71 Z M441 83 C442.23 86.68 443.06 86.84 446.38 88.62 C462.13 97.73 475.13 111.96 487.91 124.78 C489.82 126.7 491.74 128.61 493.66 130.53 C499.16 136.02 504.62 141.49 509.65 147.42 C511.57 149.67 513.6 151.79 515.62 153.94 C546.25 187.66 567.2 229.49 583.78 271.55 C584.04 272.21 584.3 272.87 584.57 273.55 C585.27 275.34 585.97 277.13 586.67 278.92 C587.91 281.8 589.32 284.37 591 287 C617.63 272.67 635.37 240.12 644 212 C652.74 179.3 645.5 145.84 629.2 116.7 C623.3 106.55 616.1 97.48 608 89 C607.46 88.4 606.93 87.8 606.38 87.18 C586.93 66.23 555.49 54.23 527.39 52.87 C495.96 52.02 463.23 58.97 441 83 Z M-127.25 531 C-128.75 531.33 -128.75 531.33 -130.27 531.67 C-159.28 538.3 -187.21 548.4 -214.25 560.74 C-216.67 561.85 -219.1 562.94 -221.54 564.02 C-233.8 569.54 -245.42 576.2 -257 583 C-257.75 583.44 -258.5 583.88 -259.28 584.34 C-276.02 594.25 -291.52 606.02 -306 619 C-306.52 619.46 -307.03 619.92 -307.56 620.39 C-317.93 629.65 -328.12 639.28 -337 650 C-337.44 650.52 -337.88 651.05 -338.33 651.59 C-352.18 668.2 -364.87 685.45 -376 704 C-376.73 705.22 -376.73 705.22 -377.48 706.46 C-410.68 762.26 -432.63 825.72 -443.31 889.69 C-443.44 890.42 -443.56 891.16 -443.69 891.92 C-446.04 906.11 -447.99 920.43 -448.62 934.81 C-448.66 935.53 -448.7 936.24 -448.74 936.98 C-450.64 975.59 -442.54 1012.48 -433.66 1049.75 C-427.1 1077.31 -421.75 1104.61 -421 1133 C-420.97 1134.02 -420.94 1135.05 -420.91 1136.1 C-420.84 1141.55 -421.09 1146.97 -421.36 1152.4 C-421.85 1162.41 -422.16 1172.4 -422.23 1182.42 C-422.25 1184.44 -422.28 1186.45 -422.31 1188.47 C-422.38 1207.47 -418.08 1224.26 -404.82 1238.31 C-380.01 1262.42 -337.81 1262.15 -305.47 1262.17 C-303.7 1262.17 -301.94 1262.17 -300.17 1262.18 C-296.49 1262.18 -292.8 1262.19 -289.11 1262.19 C-285.4 1262.19 -281.69 1262.19 -277.98 1262.21 C-211.89 1265.39 -211.89 1265.39 -152 1244 C-150.01 1241.49 -149.99 1240.24 -150.11 1237.02 C-150.96 1231.62 -153.99 1227.16 -156.69 1222.5 C-177.44 1185.4 -176.73 1148.27 -174.2 1107.01 C-173.79 1100.17 -173.38 1093.34 -172.97 1086.51 C-172.91 1085.41 -172.91 1085.41 -172.84 1084.28 C-172.14 1072.5 -171.65 1060.73 -171.34 1048.93 C-171.31 1047.83 -171.28 1046.72 -171.24 1045.58 C-171.22 1044.62 -171.2 1043.65 -171.17 1042.66 C-171 1040.03 -170.58 1037.57 -170 1035 C-168.68 1035.33 -167.36 1035.66 -166 1036 C-165.04 1039.17 -164.93 1041.89 -165.07 1045.2 C-165.11 1046.23 -165.15 1047.26 -165.19 1048.32 C-165.24 1049.43 -165.29 1050.54 -165.34 1051.69 C-165.41 1053.43 -165.41 1053.43 -165.49 1055.2 C-165.87 1063.96 -166.39 1072.71 -166.95 1081.46 C-168.28 1101.92 -169.32 1122.36 -169.42 1142.86 C-169.43 1144.96 -169.45 1147.05 -169.47 1149.15 C-170.1 1175.23 -170.1 1175.23 -160.56 1198.68 C-158.33 1200.56 -156.37 1200.71 -153.5 1201.12 C-152.54 1201.27 -151.58 1201.42 -150.59 1201.57 C-141.61 1202.64 -132.74 1203.17 -123.7 1203.2 C-121.97 1203.21 -121.97 1203.21 -120.21 1203.22 C-116.52 1203.24 -112.82 1203.25 -109.12 1203.25 C-107.24 1203.25 -107.24 1203.25 -105.32 1203.25 C-70.37 1204.45 -70.37 1204.45 -37 1196 C-38.27 1191.58 -39.89 1188.46 -42.7 1184.84 C-46.83 1179.31 -50.38 1173.6 -53.81 1167.62 C-54.42 1166.58 -55.02 1165.54 -55.64 1164.46 C-97.02 1092.24 -123.12 1009.21 -146.06 860.81 C-146.06 859.77 -146.05 858.72 -146.05 857.64 C-146.04 855.09 -146.02 852.55 -146 850 C-144.68 850 -143.36 850 -142 850 C-141.91 851.07 -141.82 852.15 -141.73 853.25 C-136.4 916.15 -123.48 976.96 -104 1037 C-103.78 1037.68 -103.56 1038.36 -103.33 1039.06 C-91.87 1074.38 -78.05 1108.98 -61.02 1142 C-59.92 1144.16 -58.83 1146.33 -57.74 1148.5 C-47.4 1168.87 -34.58 1188.17 -19.91 1205.7 C-16.1 1210.29 -14.3 1212.84 -14 1219 C-14.41 1221.28 -14.96 1223.51 -15.51 1225.76 C-17.34 1234.08 -15.66 1243.9 -11.75 1251.4 C-6.35 1259.06 0.42 1263.68 9.57 1265.67 C18.23 1266.51 26.83 1264.81 35 1262 C41.76 1261.1 44.98 1262.88 50.62 1266.53 C58.07 1271.13 65.75 1270.64 73.94 1268.81 C80.68 1267.01 86.38 1264.31 91.62 1259.69 C95.02 1257.28 96.89 1257.46 101 1258 C102.6 1258.63 104.18 1259.3 105.75 1260 C113.83 1263.44 121.6 1262.71 129.79 1259.9 C137.14 1256.91 143.68 1250.7 147.21 1243.55 C148.95 1237.92 149.05 1231.48 146.56 1226.06 C143.88 1221.36 140.4 1217.15 137.02 1212.93 C130.18 1203.02 132.87 1188.91 133.48 1177.4 C134.06 1165.66 134.32 1153.93 134.54 1142.18 C134.58 1139.93 134.62 1137.67 134.67 1135.42 C134.8 1128.24 134.93 1121.06 135.06 1113.88 C135.08 1112.65 135.11 1111.43 135.13 1110.17 C135.81 1072.78 136.42 1035.4 136 998 C135.99 996.87 135.98 995.74 135.96 994.57 C135.69 969.44 135.15 944.35 133.8 919.26 C132.87 901.83 132.78 884.45 133 867 C134.65 867 136.3 867 138 867 C140.03 921.2 142.06 975.34 142.12 1029.59 C142.12 1032 142.13 1034.42 142.13 1036.83 C142.16 1055.26 141.94 1073.66 141.36 1092.08 C141.03 1102.28 140.87 1112.48 140.94 1122.69 C140.94 1124.12 140.95 1125.55 140.95 1126.98 C140.96 1130.32 140.98 1133.66 141 1137 C141.99 1137.33 142.98 1137.66 144 1138 C146.58 1136.65 148.94 1135.27 151.38 1133.69 C152.09 1133.23 152.8 1132.77 153.54 1132.3 C160.33 1127.9 166.74 1123.11 173 1118 C173.53 1117.57 174.05 1117.14 174.6 1116.7 C185.34 1107.9 196.34 1098.76 205.25 1088.07 C207.05 1085.94 208.93 1083.92 210.84 1081.89 C216.31 1076.04 221.32 1069.94 226.2 1063.6 C228.03 1061.23 229.89 1058.9 231.8 1056.59 C254.82 1028.62 272.94 997.35 289 965 C289.51 963.99 290.02 962.97 290.54 961.93 C302.93 937.08 312.79 911.16 322 885 C322.23 884.36 322.45 883.71 322.69 883.05 C330.04 862.09 336.32 840.89 342.21 819.48 C344.09 812.64 346.04 805.82 348 799 C349.65 798.67 351.3 798.34 353 798 C342.87 859.13 317.65 920.84 290 976 C289.49 977.03 288.97 978.06 288.44 979.12 C278.15 999.66 266.42 1019.35 253 1038 C252.46 1038.75 251.93 1039.49 251.38 1040.26 C244.66 1049.59 237.77 1058.72 230.44 1067.57 C229.45 1068.77 228.47 1069.97 227.49 1071.17 C226.43 1072.47 225.35 1073.75 224.26 1075.02 C220.86 1079.04 220.86 1079.04 219.91 1084.06 C221.19 1087.52 222.67 1090.77 224.44 1094 C224.79 1094.65 225.15 1095.3 225.51 1095.97 C241.88 1125.37 267.19 1146.09 294.94 1164.25 C306.43 1171.8 316.64 1180.58 325.5 1191.12 C331.91 1198.52 339.98 1205.1 349.99 1206.22 C364.06 1207.22 376.74 1205.02 388 1196 C388.66 1195.34 389.32 1194.68 390 1194 C392.46 1193.52 394.9 1193.12 397.38 1192.75 C408.02 1190.95 418.49 1187.1 425 1178 C427.81 1173.04 429.92 1168.13 430.88 1162.5 C431.8 1157.47 434.5 1153.89 437.32 1149.71 C439.64 1145.97 440.92 1142.24 442 1138 C442.23 1137.17 442.45 1136.35 442.69 1135.5 C443.96 1125.31 442.33 1115.07 436.19 1106.56 C432.64 1102.37 428.55 1098.76 424.5 1095.06 C409.32 1081.15 404.94 1066.46 403.78 1046.09 C402.71 1011.4 409.3 976.05 413.94 941.81 C415.19 932.59 416.43 923.37 417.65 914.14 C417.88 912.47 417.88 912.47 418.1 910.76 C423.14 872.71 426.91 834.38 428 796 C428.02 795.26 428.05 794.52 428.07 793.76 C428.96 762.31 427.19 727.17 418 697 C413.86 695.82 411.64 696.19 407.71 697.88 C406.7 698.3 405.68 698.73 404.64 699.16 C403.56 699.63 402.48 700.09 401.38 700.56 C365.9 715.22 329.23 720.97 291 723 C289.78 723.07 288.55 723.14 287.29 723.21 C242.91 725.56 198.5 720.8 155 712 C153.98 711.8 152.95 711.6 151.89 711.39 C69.21 694.88 -11.45 650.82 -78 578 C-79.21 576.5 -79.21 576.5 -80.44 574.97 C-90.08 562.87 -97.81 549.83 -104.78 536.03 C-105.17 535.26 -105.56 534.49 -105.97 533.69 C-106.31 533 -106.66 532.31 -107.01 531.6 C-107.91 529.82 -107.91 529.82 -110 529 C-115.98 528.62 -121.42 529.7 -127.25 531 Z M-444.5 632.83 C-450.41 639.73 -455.4 647.18 -460 655 C-460.36 655.61 -460.71 656.21 -461.08 656.84 C-473.14 677.59 -479.1 701.11 -474 725 C-470.26 739.06 -461.32 751.19 -449 759 C-435.89 766.51 -435.89 766.51 -421.31 769.44 C-420.38 769.48 -419.45 769.52 -418.49 769.56 C-415.81 769.25 -415.81 769.25 -414.5 766.8 C-413.05 764.1 -411.73 761.39 -410.47 758.6 C-409.99 757.55 -409.52 756.51 -409.03 755.43 C-408.27 753.76 -408.27 753.76 -407.5 752.06 C-388.46 710.51 -365.14 672.49 -334.25 638.62 C-333.79 638.12 -333.34 637.62 -332.87 637.11 C-330.29 634.3 -327.6 631.72 -324.75 629.19 C-322.26 626.7 -322.03 626.27 -321.62 622.56 C-323.51 617.69 -326.31 614.64 -330 611 C-330.58 610.4 -331.15 609.8 -331.75 609.18 C-343.01 598.34 -356.98 594.58 -372.14 594.63 C-400.45 595.2 -426.13 612.22 -444.5 632.83 Z " fill="#000000" transform="translate(482,4)"/>
<path d="M0 0 C7.76 7.4 11.61 15.25 12.19 26.06 C11.7 36.96 7.24 46.86 -0.25 54.69 C-5.91 59.2 -11.31 61.89 -18.25 63.69 C-18.24 64.39 -18.24 65.1 -18.23 65.83 C-18.07 91.8 -18.54 117.77 -20.25 143.69 C-17.28 143.36 -14.31 143.03 -11.25 142.69 C-10.75 145.16 -10.75 145.16 -10.25 147.69 C-18.39 152.54 -24.67 153.5 -34.25 152.69 C-39.03 151.47 -43.71 150.23 -47.25 146.69 C-46.88 144.56 -46.88 144.56 -46.25 142.69 C-45.12 142.83 -43.98 142.98 -42.81 143.12 C-38.3 143.69 -33.77 144.2 -29.25 144.69 C-23.77 119.35 -26.02 91.44 -26.25 65.69 C-27.35 65.29 -28.45 64.9 -29.59 64.49 C-31.04 63.96 -32.5 63.43 -33.96 62.89 C-34.68 62.64 -35.4 62.38 -36.15 62.11 C-44.88 58.9 -49.92 54.23 -54.24 46 C-58.32 36.66 -58.89 26.49 -55.62 16.75 C-51.44 6.86 -44.13 -1.51 -34.12 -5.69 C-21.73 -10.08 -9.99 -8.69 0 0 Z " fill="#000000" transform="translate(761.25,421.3125)"/>
<path d="M0 0 C7.08 4.04 12.16 9.71 14.4 17.6 C16.28 27.6 14.71 35.71 9.52 44.37 C5.49 50.23 1.42 53.21 -5.57 54.99 C-12.11 55.22 -16.35 54.07 -21.38 49.99 C-26.53 45.15 -29.85 38.96 -30.37 31.86 C-30.52 24.09 -30.3 17.88 -26.13 11.11 C-25.79 10.48 -25.45 9.84 -25.1 9.19 C-20.11 0.88 -9.21 -3.83 0 0 Z " fill="#000000" transform="translate(903.12890625,376.88671875)"/>
<path d="M0 0 C7.08 4.95 10.82 11.44 12.45 19.77 C13.7 28.72 12.22 37.87 6.99 45.39 C2.6 50.54 -1.8 53.43 -8.56 54.37 C-14.35 54.42 -19.33 51.89 -23.63 48.05 C-30.9 39.32 -31.78 29.27 -31.01 18.39 C-29.3 10.68 -24.92 3.62 -18.25 -0.77 C-11.85 -3.86 -6.05 -3.34 0 0 Z " fill="#000000" transform="translate(568.01171875,356.609375)"/>
</svg>
