<?xml version="1.0" encoding="utf-8"?>
<!-- Generator: Adobe Illustrator 23.0.1, SVG Export Plug-In . SVG Version: 6.00 Build 0)  -->
<svg version="1.0" id="Слой_1" xmlns="http://www.w3.org/2000/svg" xmlns:xlink="http://www.w3.org/1999/xlink" x="0px" y="0px"
	 viewBox="0 0 720 720" style="enable-background:new 0 0 720 720;" xml:space="preserve">
<g id="Слой_14">
	<path d="M432.1,328.3c0-35.1-38.5-84.9-74.4-84.9c-36.9,0-76.5,48.6-76.5,82.8c0,34.4,39.6,57.5,76.5,57.5
		C394.2,383.7,432.1,362.9,432.1,328.3 M286.5,326.2c0-31.3,37.5-77.5,71.2-77.5c32.7,0,69.1,47.5,69.1,79.6
		c0,31.3-35.1,50.1-69.1,50.1C323.3,378.3,286.5,357.4,286.5,326.2"/>
</g>
<g id="Слой_13">
	<path d="M432.9,251.7c8.9,0.1,16.2-9.8,16.2-21.9c0.1-12.1-7-22-15.9-22.1c-8.9-0.1-16.2,9.7-16.2,21.9
		C416.9,241.7,424,251.6,432.9,251.7 M437.4,215.3c3.3,0,5.9,3.5,5.9,7.7c0,4.2-2.7,7.6-6,7.6c-3.3,0-5.9-3.5-5.9-7.7
		C431.4,218.7,434.1,215.3,437.4,215.3"/>
</g>
<g id="Слой_12">
	<path d="M300.6,229.8c0.1-12.1-7.1-22-15.9-22.1c-8.9-0.1-16.2,9.7-16.2,21.9c-0.1,12.2,7,22.1,15.9,22.1
		C293.2,251.7,300.5,241.9,300.6,229.8 M288.8,215.3c3.3,0,5.9,3.5,5.9,7.7c0,4.2-2.7,7.6-6,7.6c-3.3,0-5.9-3.5-5.9-7.7
		C282.8,218.7,285.5,215.3,288.8,215.3"/>
</g>
<g id="Слой_11">
	<path d="M359,321.6c4,6.5,11.6,10.4,19.2,10.4c2.1,0,4.1-0.3,6.1-0.9c9.3-2.8,16.1-12.3,15.8-22c0-1.5-1.3-2.6-2.7-2.6
		c-1.5,0-2.6,1.3-2.6,2.7c0.2,7.4-4.9,14.6-12,16.7c-7.1,2.1-15.4-1-19.3-7.2c-1.7-2.7-2.7-6.1-2.9-10c0.1-1.6,0.1-3.2,0-4.9
		c0.1-1.7,0.3-3.4,0.7-5.3c0-0.1,0-0.3,0-0.4c7-3.4,24.9-12.9,25-21.2c0.1-10.3-12.2-18.8-27.5-18.9s-27.7,8.2-27.7,18.5
		c-0.1,7.9,16,17,23.5,20.9c-0.1,0.3-0.1,0.6,0,1c0.3,1.9,0.5,3.6,0.6,5.3c-0.1,1.7-0.1,3.3,0,4.9c-0.3,3.9-1.3,7.2-3.1,9.9
		c-4,6.2-12.3,9.2-19.4,7c-7-2.2-12.1-9.5-11.8-16.9c0.1-1.5-1.1-2.7-2.5-2.8c-1.5,0-2.7,1.1-2.8,2.5c-0.4,9.7,6.2,19.3,15.5,22.2
		c2.1,0.7,4.2,1,6.4,1c7.5,0,15-3.8,19.1-10.1c0.4-0.7,0.8-1.4,1.2-2.1C358.2,320.2,358.6,320.9,359,321.6"/>
</g>
<g id="Слой_10">
	<path d="M596.1,615.2c-5.6-3.4-11.8-3-18-1.1c2.2-3.8,3.4-8.1,3.6-12.4c0.1-4.3-0.6-8.2-2.2-11.5c0-9.3-0.2-16.9-0.5-25
		c-0.2-4.8-0.3-9.8-0.4-15.4c-1.1-57.3-21.8-114-64.9-178.5c-0.2-0.3-0.5-0.6-0.8-0.8c41.3-28.6,64-66.3,64-106.3
		c0-31-13.3-68.8-36.4-104.1c27-9,45.6-34.6,45.6-63.3C586,60,556,30,519.2,30c-29.5,0-55.3,19.2-63.9,47.1
		C425,59.1,393.6,50,361.8,50c-27,0-53.9,6.7-80.1,19.8C271,45.5,247.3,30,220.6,30c-36.8,0-66.8,30-66.8,66.8
		c0,23.8,12.6,45.6,33.1,57.6c-25.6,37.1-40.3,77-40.3,109.9c0,40.8,21.7,78.9,61.1,107.2c2,1.4,4,2.8,6,4.1
		c-0.3,0.2-0.5,0.4-0.7,0.7c-42.5,66.3-61.4,121.2-61.4,178c0,5.6-0.1,10.6-0.1,15.4c-0.1,8.1-0.2,15.7,0,25.1
		c-0.5,2.1-0.7,4.4-0.6,6.8c0.1,4.3,1.4,8.6,3.6,12.4c-6.2-1.9-12.4-2.2-18,1.1c-7.7,4.6-10,14.3-8.8,21.8
		c1.2,7.8,5.5,14.5,9.9,20.5c11.8,16,25,28.3,39.3,36.5c13.7,7.8,28.6,12,42.9,12c3.2,0,6.4-0.2,9.6-0.6c11.9-1.6,23-6.3,31.9-13.4
		c24.8,4.6,49.4,4.1,75.5,3.5c8.5-0.2,17.3-0.4,25.9-0.4c12.9,0,26,0.9,38.7,1.7c12.8,0.8,25.2,1.6,37.2,1.6c11.8,0,23.2-0.8,34.3-3
		c0.6-0.1,1.2-0.5,1.6-1c8.3,5.7,18.1,9.6,28.6,11c3.1,0.4,6.3,0.6,9.6,0.6c14.3,0,29.3-4.1,42.9-12c14.3-8.2,27.6-20.5,39.3-36.5
		c4.4-6,8.7-12.7,9.9-20.5C606.1,629.5,603.8,619.9,596.1,615.2 M519.2,35.3c33.9,0,61.5,27.6,61.5,61.5c0,27-17.7,50.8-43.3,58.7
		c-0.6-0.8-1.1-1.6-1.7-2.4c-0.6-0.8-1.2-1.7-1.8-2.5c-0.8-1.1-1.7-2.3-2.5-3.4c-0.6-0.8-1.1-1.5-1.7-2.3c-1-1.3-2-2.5-2.9-3.8
		c-0.5-0.6-1-1.3-1.5-1.9c-0.5-0.6-0.9-1.1-1.4-1.7c15.2-1.7,25.9-6.7,31.6-14.9c7.5-10.6,10.7-23.4,9-35.9
		c-1.7-12.6-8.2-23.4-18.2-30.4c-20.6-14.5-50-8.4-65.5,13.6c-3.8,5.3-5.5,12.3-5.3,20.7c-0.1-0.1-0.3-0.2-0.4-0.3
		c-0.6-0.4-1.2-0.9-1.8-1.3c-1.1-0.8-2.3-1.6-3.4-2.4c-0.7-0.5-1.4-1-2.1-1.5c-1.1-0.7-2.1-1.4-3.2-2.1c-0.7-0.5-1.5-1-2.2-1.5
		c-0.7-0.5-1.5-1-2.2-1.4C467.5,53.6,491.5,35.3,519.2,35.3 M502.1,113.4c-0.3-0.3-0.6-0.6-0.8-0.8c-1.7-1.6-3.3-3.2-5-4.7
		c-0.5-0.5-1-0.9-1.6-1.4c-1.2-1.1-2.4-2.1-3.5-3.2c-0.7-0.6-1.4-1.2-2.1-1.8c-1-0.9-2.1-1.8-3.1-2.7c-0.7-0.6-1.5-1.2-2.2-1.8
		c-0.9-0.7-1.7-1.4-2.6-2.1c-1-9.3,0.3-16.7,4-21.9c13.8-19.6,39.9-25.1,58.1-12.3c8.8,6.2,14.5,15.7,16,26.8
		c1.5,11.2-1.3,22.5-8,32.1h0c-6.5,9.2-20.3,12.1-31.4,13c-0.8-0.9-1.5-1.8-2.3-2.7c-0.6-0.7-1.2-1.4-1.8-2.1c-1-1.1-2-2.2-3-3.3
		c-0.6-0.6-1.1-1.3-1.7-1.9c-1.1-1.2-2.2-2.3-3.3-3.4c-0.5-0.5-1-1.1-1.5-1.6C504.8,116.1,503.4,114.7,502.1,113.4 M159.1,96.8
		c0-33.9,27.6-61.5,61.5-61.5c24.7,0,46.6,14.4,56.4,36.9c-0.5,0.3-1,0.5-1.5,0.8c-0.6,0.3-1.2,0.7-1.9,1c-0.9,0.5-1.8,1-2.7,1.5
		c-0.6,0.3-1.2,0.7-1.8,1.1c-1,0.6-2,1.2-2.9,1.8c-0.5,0.3-1.1,0.6-1.6,1c-0.4,0.2-0.7,0.4-1.1,0.7c-0.9-3.8-2.3-7.3-4.4-10.2
		c-15.5-22-44.9-28.1-65.5-13.6c-10,7.1-16.5,17.9-18.2,30.4c-1.7,12.5,1.5,25.2,9,35.9c3.8,5.4,9.7,9.4,17.7,12
		c-0.5,0.6-0.9,1.1-1.4,1.7c-0.4,0.5-0.8,1-1.2,1.5c-0.9,1.1-1.8,2.2-2.7,3.4c-0.5,0.6-0.9,1.2-1.4,1.8c-0.8,1-1.6,2.1-2.4,3.1
		c-0.5,0.6-1,1.3-1.4,1.9c-0.5,0.7-1,1.3-1.5,2C170.9,139.1,159.1,118.9,159.1,96.8 M252,87.7c-1.4,1-2.8,2.1-4.2,3.1
		c-1,0.7-2,1.4-2.9,2.2c-1.5,1.2-3,2.4-4.5,3.6c-0.8,0.7-1.7,1.3-2.5,2c-2,1.6-4,3.3-5.9,5.1c-0.3,0.3-0.6,0.5-1,0.8
		c-2.3,2-4.5,4.1-6.7,6.2c-0.7,0.7-1.5,1.4-2.2,2.2c-1.5,1.4-2.9,2.8-4.3,4.3c-0.9,0.9-1.7,1.8-2.6,2.7c-1.3,1.3-2.6,2.7-3.8,4
		c-0.9,1-1.8,2-2.7,3c-1,1.1-2,2.2-3,3.4c-7.9-2.2-13.7-5.8-17.1-10.6c-6.7-9.5-9.6-20.9-8-32.1c1.5-11.1,7.2-20.6,16-26.8
		c6.7-4.7,14.4-6.9,22.1-6.9c13.5,0,27.2,6.8,36,19.2c2,2.8,3.3,6.3,3.9,10.2c-1.2,0.8-2.3,1.6-3.4,2.4
		C254.1,86.2,253.1,86.9,252,87.7 M151.9,264.3c0-32.5,14.9-72.3,41-109.2c4.8-6.8,10.1-13.7,15.8-20.2c2-2.4,4.1-4.7,6.2-7
		c3.2-3.5,6.4-6.8,9.7-10c5.4-5.3,10.9-10.4,16.7-15.1c1.4-1.1,2.8-2.2,4.2-3.3c1-0.8,2-1.6,3-2.4c4.7-3.6,9.6-7,14.5-10.3
		c1.5-1,3.1-2,4.6-2.9c4.7-2.9,9.3-5.5,14-7.9c26.3-13.6,53.2-20.5,80.2-20.5c31.8,0,63.4,9.5,93.7,28.2c7.2,4.5,14.4,9.5,21.3,14.9
		c3.6,2.8,7.1,5.7,10.5,8.7c10.3,9,20.1,19,29.2,29.9c2.9,3.5,5.7,7,8.4,10.6c3.2,4.2,6.2,8.4,9,12.6c0,0,0,0,0,0c0,0,0,0,0,0
		c23.8,35.4,37.5,73.3,37.5,104.2c0,38.6-22.4,75.2-63,102.9c-40.7,27.8-94.4,43.1-151,43.1c-56.1,0-108.2-15.3-146.7-43
		C172.8,339.8,151.9,303.3,151.9,264.3 M228.7,700.1c-15.9,2.1-33.4-1.6-49.2-10.7c-13.7-7.8-26.4-19.6-37.7-35
		c-4-5.5-7.9-11.5-9-18.2c-0.9-5.5,0.7-13,6.3-16.4c2.1-1.2,4.4-1.8,6.8-1.8c5.8,0,12.3,3,18.2,6.3c1.3,0.7,2.8,0.3,3.6-1
		c0.7-1.2,0.4-2.8-0.8-3.6c-6.4-4.2-10.5-11.1-10.7-18.2c-0.2-7.8,2.7-13.1,8.7-15.7c6.1-2.6,19.8,1.6,24,7.3
		c0.2,0.2,0.3,0.4,0.5,0.7c0.8,1.2,2.5,1.5,3.7,0.7c1.2-0.8,1.5-2.4,0.8-3.6c-0.2-0.3-0.3-0.5-0.5-0.7c-4.4-6.5-9.1-17.5-5.2-23.3
		c1.2-1.7,4.6-5.8,11.1-6.5c6.6-0.7,18.1,2.2,35.6,19.3c14.2,13.9,24.1,25.8,36,48.8c8.9,17.3,8.7,31.8-0.6,45.6c0,0,0,0.1-0.1,0.1
		C261.8,688,246.2,697.7,228.7,700.1 M401.7,691.5c-12.8-0.8-25.9-1.7-39-1.7c-8.8,0-17.6,0.2-26.1,0.4c-24.3,0.6-47.4,1.1-70.3-2.7
		c3.2-3.2,6-6.7,8.3-10.5c10.4-15.4,10.6-32.1,0.9-51c-12.2-23.6-22.4-35.8-37-50.2c-15.2-14.9-28.6-21.9-39.9-20.8
		c-8.7,0.9-13.3,6.4-14.9,8.8c-3.6,5.4-2.6,12.7-0.1,19.2c-7-3.1-15.5-4.3-20.8-2c-2.4,1-4.4,2.4-6.1,4.1c0-5.3,0-10.2,0.1-15.3
		c0.1-4.8,0.1-9.9,0.1-15.5c0-53.8,17.4-105.9,56.2-168.2c2,56.7,16.8,120,45.5,193.2c5.4,13.8,12.2,29.4,24.6,40.2
		c9.7,8.4,22,13,34.2,13c4.2,0,8.4-0.5,12.5-1.7c16.6-4.6,29.7-19.2,31.8-35.5c2.4-17.9-7.7-35.3-15-47.9l-36.5-63
		c-0.7-1.3-2.4-1.7-3.6-1c-1.3,0.7-1.7,2.4-1,3.6l36.5,63c9,15.5,16.3,29.6,14.3,44.5c-1.9,14.3-13.4,27.1-28,31.1
		c-13.9,3.8-30.3-0.2-41.8-10.2c-11.5-10-17.9-25-23.1-38.2c-29.7-75.9-44.5-140.9-45.3-198.9c38.1,23.9,87,37,139.3,37
		c56.5,0,110-15,151.3-42.3c0,0.1,0,0.1,0,0.2c-0.3,0.4-0.4,1-0.4,1.5c4.3,69.1-18.2,142.7-36.3,201.8c-4.2,13.6-9.5,29-20.2,39.8
		c-10.7,10.9-26.8,16.1-40.9,13.4c-14.9-2.9-27.3-14.8-30.3-28.9c-3.1-14.7,3.1-29.3,10.9-45.5l31.7-65.7c0.6-1.3,0.1-2.9-1.2-3.6
		c-1.3-0.6-2.9-0.1-3.6,1.2l-31.7,65.7c-6.3,13.2-15,31.2-11.3,48.9c3.4,16.1,17.6,29.7,34.5,33.1c2.9,0.6,5.9,0.9,8.9,0.9
		c13.4,0,26.9-5.6,36.8-15.7c11.5-11.7,17.1-27.8,21.5-42c17.6-57.5,39.3-128.5,36.9-196.5c39.2,60.5,58,114.2,59.1,168.2
		c0.1,5.6,0.3,10.6,0.4,15.4c0.2,6,0.4,11.7,0.4,18.1c-1.3-1-2.8-1.9-4.4-2.6c-5.3-2.3-13.8-1.2-20.8,2c2.5-6.5,3.5-13.8-0.1-19.2
		c-1.6-2.3-6.2-7.9-14.9-8.8c-11.2-1.1-24.7,5.9-39.9,20.8c-14.6,14.3-24.8,26.6-37,50.2c-9.8,18.9-9.5,35.6,0.9,51
		c3.1,5.1,7.1,9.7,11.7,13.6C448.4,694.5,425.7,693,401.7,691.5 M599.7,636.2c-1.1,6.7-4.9,12.7-9,18.2c-11.3,15.4-24,27.2-37.7,35
		c-15.8,9-33.2,12.8-49.2,10.7c-17.6-2.4-33.1-12-41.5-25.9c0,0,0-0.1-0.1-0.1c-9.3-13.9-9.5-28.4-0.6-45.6
		c11.9-23,21.8-34.9,36-48.8c16-15.7,27-19.4,33.8-19.4c0.6,0,1.2,0,1.8,0.1c6.5,0.6,9.9,4.7,11.1,6.5c3.9,5.8-0.8,16.9-5.2,23.3
		c-0.2,0.2-0.4,0.5-0.5,0.7c-0.8,1.2-0.4,2.8,0.8,3.6c1.2,0.8,2.8,0.5,3.7-0.7c0.1-0.2,0.3-0.4,0.5-0.7c4.3-5.7,18-9.9,24-7.3
		c6,2.6,8.9,7.9,8.7,15.7c-0.2,7.1-4.3,14.1-10.7,18.2c-1.2,0.8-1.6,2.4-0.8,3.6c0.7,1.2,2.3,1.7,3.6,1c8.4-4.6,17.9-8.8,25.1-4.6
		C598.9,623.1,600.5,630.6,599.7,636.2"/>
</g>
<g id="Слой_9">
	<path d="M535.5,584.3c4.8-4.7,5.2-12.1,0.9-16.5c-4.3-4.4-11.7-4.1-16.5,0.7c-4.8,4.7-5.2,12.1-0.9,16.5
		C523.3,589.4,530.7,589.1,535.5,584.3"/>
</g>
<g id="Слой_8">
	<path d="M565.2,597.4c-4.3-4.4-11.7-4.1-16.5,0.7c-4.8,4.7-5.2,12.1-0.9,16.5c4.3,4.4,11.7,4.1,16.5-0.7
		C569.1,609.2,569.5,601.8,565.2,597.4"/>
</g>
<g id="Слой_7">
	<path d="M574,630c-4.8,4.7-5.2,12.1-0.9,16.5c4.3,4.4,11.7,4.1,16.5-0.7c4.8-4.7,5.2-12.1,0.9-16.5C586.2,625,578.8,625.3,574,630"
		/>
</g>
<g id="Слой_6">
	<path d="M521.6,632.3c-12.5-11.8-32.1-20.4-45.6,7.6c-8,16.6-6.4,37.6,9.1,45.1c15.5,7.5,43.5,4.4,51.5-12.1
		C542.8,659.9,537.7,647.5,521.6,632.3"/>
</g>
<g id="Слой_5">
	<path d="M211.9,586.6c4.3-4.4,3.9-11.8-0.9-16.5c-4.8-4.7-12.2-5-16.5-0.7c-4.3,4.4-3.9,11.8,0.9,16.5
		C200.2,590.7,207.6,591,211.9,586.6"/>
</g>
<g id="Слой_4">
	<path d="M167.3,597.4c-4.3,4.4-3.9,11.8,0.9,16.5c4.8,4.7,12.2,5,16.5,0.7c4.3-4.4,3.9-11.8-0.9-16.5
		C179,593.3,171.6,593,167.3,597.4"/>
</g>
<g id="Слой_3">
	<path d="M142,629.4c-4.3,4.4-3.9,11.8,0.9,16.5c4.8,4.7,12.2,5,16.5,0.7c4.3-4.4,3.9-11.8-0.9-16.5
		C153.7,625.3,146.3,625,142,629.4"/>
</g>
<g id="Слой_2">
	<path d="M210.9,632.3c-16.1,15.2-21.3,27.5-15,40.6c8,16.6,36.1,19.6,51.5,12.1s17.1-28.5,9.1-45.1
		C243,611.9,223.5,620.5,210.9,632.3"/>
</g>
</svg>
