<?xml version="1.0" encoding="UTF-8"?>
<!-- Generator: visioncortex VTracer 0.6.3 -->
<svg version="1.1" xmlns="http://www.w3.org/2000/svg" width="965" height="1280">
<path d="M0 0 C14.99 10.49 27.3 22.43 36.22 38.57 C36.96 36.94 36.96 36.94 37.72 35.28 C42.1 25.97 45.45 19.67 54.72 14.7 C61.57 12.5 66.48 13.6 72.92 16.37 C76 17.98 78.01 19.91 80.22 22.57 C81.17 23.69 81.17 23.69 82.13 24.83 C97.75 45.38 97.6 71.03 97.22 95.57 C98.34 95.68 99.46 95.8 100.62 95.91 C105.5 96.53 110.12 97.76 114.84 99.14 C115.76 99.4 116.67 99.66 117.6 99.94 C156.98 111.63 192.73 130.96 223.22 158.57 C223.96 159.23 224.71 159.89 225.47 160.57 C235.66 170.12 243.19 182.63 250.22 194.57 C251.07 193.99 251.92 193.41 252.79 192.81 C273.88 178.65 297.61 171.94 323.01 176.3 C331.19 177.96 338.86 180.6 346.22 184.57 C347.48 185.23 347.48 185.23 348.76 185.91 C369.13 197.32 383.3 217.58 389.85 239.68 C397.68 267.91 395.54 295.58 381.86 321.71 C369.34 343.52 351.21 356.02 327.63 363.38 C321.57 364.97 315.45 364.76 309.22 364.57 C309.61 365.66 309.99 366.75 310.39 367.88 C322.62 403.04 324.84 438.22 308.41 472.37 C303.99 481.24 298.62 489.03 292.22 496.57 C291.78 497.09 291.34 497.62 290.88 498.16 C284.63 505.43 277.89 511.78 270.22 517.57 C269.7 517.97 269.18 518.36 268.65 518.77 C232.69 545.87 189.46 560.24 145.22 566.57 C151.43 615.84 167.08 662.05 186.38 707.6 C200.71 741.45 214.52 775.49 226.49 810.26 C228.35 815.64 230.34 820.9 232.54 826.15 C256.14 882.42 274.01 945.6 278.22 1006.57 C279.75 1006.68 279.75 1006.68 281.31 1006.8 C303.32 1008.72 321.72 1016.76 338.22 1031.57 C338.93 1032.2 339.63 1032.82 340.36 1033.46 C347.03 1039.71 353.43 1047.51 356.5 1056.21 C358.3 1061.29 359.81 1065.09 364.46 1067.95 C371.44 1071.27 378.82 1073.42 386.22 1075.57 C388.36 1076.23 390.51 1076.88 392.65 1077.53 C469.96 1100.53 548.24 1090.3 621.3 1057.91 C622.5 1057.38 623.71 1056.85 624.95 1056.3 C626.02 1055.82 627.08 1055.34 628.18 1054.85 C631.17 1053.59 634.09 1052.44 637.22 1051.57 C639.59 1052.64 639.59 1052.64 641.22 1054.57 C641.69 1057.81 641.44 1059.22 639.67 1062.01 C638.95 1062.86 638.22 1063.7 637.47 1064.57 C636.64 1065.54 635.8 1066.51 634.95 1067.51 C634.04 1068.53 633.13 1069.55 632.22 1070.57 C631.36 1071.54 630.5 1072.51 629.62 1073.51 C617.47 1087.02 604.76 1100.62 590.22 1111.57 C589.02 1112.51 587.83 1113.44 586.63 1114.38 C576.95 1121.9 566.86 1128.49 556.22 1134.57 C555.47 1135 554.72 1135.43 553.94 1135.88 C527.92 1150.6 499.55 1159.33 470.22 1164.57 C469.32 1164.74 468.43 1164.91 467.51 1165.08 C435.54 1170.78 400.23 1169.4 368.22 1164.57 C366.82 1164.37 365.41 1164.17 364.01 1163.97 C363.09 1163.84 362.17 1163.71 361.22 1163.57 C361.13 1164.41 361.04 1165.24 360.94 1166.1 C360.11 1170.12 358.53 1173.46 356.66 1177.07 C356.3 1177.77 355.94 1178.47 355.57 1179.19 C354.47 1181.32 353.35 1183.45 352.22 1185.57 C351.9 1186.19 351.57 1186.81 351.24 1187.45 C346.2 1197.02 340.18 1205.33 333.22 1213.57 C332.38 1214.57 331.54 1215.56 330.68 1216.58 C325.05 1223 318.97 1228.37 312.22 1233.57 C310.89 1234.66 310.89 1234.66 309.52 1235.78 C295.85 1246.66 280.05 1254.04 263.22 1258.57 C262.57 1258.75 261.92 1258.93 261.25 1259.11 C237.4 1265.27 211.44 1262.18 189.71 1250.72 C168.41 1238.07 152.09 1219.24 144.22 1195.57 C143.47 1192.25 142.82 1188.92 142.22 1185.57 C141.35 1185.82 140.47 1186.07 139.57 1186.32 C123.99 1190.68 108.45 1194.86 92.47 1197.51 C91.36 1197.7 90.24 1197.88 89.1 1198.08 C69.51 1201.13 49.96 1201.95 30.16 1201.89 C28.99 1201.88 27.83 1201.88 26.63 1201.88 C-7.25 1201.78 -40.06 1197.59 -72.78 1188.57 C-73.15 1190.51 -73.15 1190.51 -73.53 1192.49 C-74.67 1197.63 -76.56 1202.16 -78.84 1206.89 C-79.24 1207.71 -79.63 1208.54 -80.04 1209.39 C-83.54 1216.48 -87.68 1222.51 -92.78 1228.57 C-93.59 1229.62 -93.59 1229.62 -94.41 1230.69 C-108.01 1247.67 -129.09 1257.3 -150.07 1261.18 C-183.97 1264.75 -215.37 1254.68 -241.99 1233.68 C-251.67 1225.84 -260.26 1217.55 -267.78 1207.57 C-268.58 1206.54 -269.38 1205.5 -270.2 1204.44 C-293.55 1173.56 -304.67 1133.83 -299.72 1095.39 C-296.59 1073.99 -288.38 1053.71 -273.78 1037.57 C-273.06 1036.76 -272.33 1035.94 -271.58 1035.1 C-254.78 1017.18 -231.21 1007.4 -206.78 1006.57 C-206.77 1005.74 -206.75 1004.91 -206.74 1004.06 C-204.73 952.16 -187.06 896.69 -169.2 848.28 C-166.16 839.98 -163.62 831.62 -161.22 823.12 C-150.34 784.72 -135.1 747.9 -119.63 711.15 C-100.31 665.26 -80.91 617.52 -75.78 567.57 C-80.71 566.06 -85.64 564.96 -90.71 563.98 C-141.53 554 -198.65 532.04 -229.18 487.53 C-247.32 460.18 -254.23 428.6 -248.27 396.04 C-246.08 385.41 -243.02 374.57 -238.78 364.57 C-239.46 364.62 -240.14 364.67 -240.84 364.71 C-259.69 365.41 -277.67 357.85 -291.78 345.57 C-292.35 345.14 -292.93 344.71 -293.52 344.26 C-311.03 330.7 -320.95 305.89 -323.78 284.57 C-325.71 256.66 -320.28 228.89 -302.45 206.67 C-300.29 204.23 -298.07 201.89 -295.78 199.57 C-295.24 198.96 -294.7 198.35 -294.15 197.72 C-282.26 184.65 -262.87 176.31 -245.4 175.46 C-223.44 174.65 -203.84 178.68 -185.45 190.94 C-183.12 192.37 -181.45 193.13 -178.78 193.57 C-178.37 192.83 -177.96 192.1 -177.53 191.33 C-149.89 142.78 -96.64 114.55 -44.65 99.14 C-42.01 98.34 -39.39 97.46 -36.78 96.57 C-37.73 95.69 -38.68 94.8 -39.66 93.89 C-59.81 73.57 -73.79 44.06 -73.97 15.2 C-73.85 5.15 -71.99 -3.46 -65.21 -11.22 C-46.07 -29.21 -17.59 -11.91 0 0 Z M-60.09 -0.36 C-65.98 9.89 -63.45 25.46 -60.62 36.48 C-53.37 62.41 -38.32 84.73 -15.9 100.01 C-13.78 101.57 -13.78 101.57 -12.78 103.57 C-13.43 103.61 -14.08 103.65 -14.74 103.69 C-22.18 104.23 -29.14 105.62 -36.34 107.51 C-37.51 107.81 -38.67 108.12 -39.87 108.43 C-52.54 111.87 -64.69 116.48 -76.78 121.57 C-77.58 121.91 -78.38 122.24 -79.21 122.59 C-102.16 132.4 -122.79 146.51 -141.78 162.57 C-142.55 163.19 -143.31 163.81 -144.1 164.45 C-154.63 173.25 -161.94 184.83 -168.78 196.57 C-169.31 197.48 -169.84 198.38 -170.39 199.32 C-172.87 203.21 -172.87 203.21 -173.78 207.57 C-170.68 206.13 -168.04 204.39 -165.28 202.39 C-132.98 179.73 -91.77 171.64 -52.94 178.1 C-22.25 183.83 9.12 197.03 31.4 219.46 C33.22 220.81 33.22 220.81 35.71 220.46 C38.54 219.46 39.81 218.39 41.91 216.26 C74.9 185.73 120.48 174.88 164.22 176.57 C170.67 177.04 176.92 178.13 183.22 179.57 C184.03 179.76 184.85 179.94 185.69 180.13 C204.83 184.59 222.97 192.55 238.58 204.58 C240.76 206.23 242.73 207.47 245.22 208.57 C237.99 193.03 229.19 179.84 217.22 167.57 C216.59 166.88 215.96 166.19 215.31 165.47 C208.81 158.51 200.93 153.1 193.22 147.57 C192.62 147.14 192.03 146.71 191.41 146.27 C163.8 126.51 121.27 103.57 86.22 103.57 C86.38 102.93 86.54 102.29 86.71 101.62 C87.37 97.65 87.37 93.79 87.34 89.76 C87.34 88.92 87.34 88.08 87.33 87.21 C87.31 84.66 87.27 82.12 87.22 79.57 C87.2 78.5 87.2 78.5 87.18 77.4 C86.75 58.85 82.82 40.76 70.22 26.57 C67.24 24.31 64.02 24 60.3 24.17 C56.03 25 53.76 27.12 51.22 30.57 C43.42 44.57 40.01 59.39 40.16 75.32 C40.16 76.74 40.16 76.74 40.17 78.19 C40.18 79.93 40.19 81.67 40.2 83.42 C40.22 85.13 40.22 86.85 40.22 88.57 C39.91 87.24 39.91 87.24 39.6 85.89 C31.42 51.03 20.85 25.25 -10.78 5.57 C-16.02 2.38 -21.34 -0.6 -26.78 -3.43 C-28.12 -4.14 -28.12 -4.14 -29.48 -4.87 C-39.79 -9.74 -52.81 -10.02 -60.09 -0.36 Z M-281.78 200.57 C-282.62 201.25 -283.47 201.93 -284.34 202.64 C-302.27 217.92 -311.51 240.46 -313.78 263.57 C-315.06 288.37 -308.9 311.77 -292.41 330.89 C-279.89 344.06 -263.09 354.13 -244.5 354.81 C-240.92 354.86 -237.35 354.76 -233.78 354.57 C-232.46 351.27 -231.14 347.97 -229.78 344.57 C-231.02 344.18 -232.26 343.79 -233.53 343.39 C-235.28 342.79 -237.03 342.18 -238.78 341.57 C-239.71 341.26 -240.64 340.94 -241.59 340.61 C-258.15 334.4 -268.97 322.75 -276.46 306.85 C-284.59 286.68 -283.45 266.03 -275.32 245.98 C-269.15 231.77 -258.01 220.45 -243.8 214.28 C-227.99 208.38 -211.62 209.21 -195.78 214.57 C-194.65 214.95 -193.53 215.32 -192.37 215.71 C-191.09 216.13 -191.09 216.13 -189.78 216.57 C-188.94 214.97 -188.11 213.37 -187.28 211.76 C-186.58 210.42 -186.58 210.42 -185.87 209.05 C-184.58 206.57 -184.58 206.57 -184.78 203.57 C-186.77 201.96 -188.68 200.61 -190.84 199.26 C-191.47 198.86 -192.1 198.47 -192.75 198.06 C-219.91 181.53 -256.18 179.93 -281.78 200.57 Z M-178.78 226.57 C-179.6 227.37 -180.41 228.16 -181.25 228.98 C-189.07 237.45 -192.23 247.83 -195.78 258.57 C-196.36 260.32 -196.36 260.32 -196.96 262.11 C-204.68 285.6 -211.7 309.48 -216.72 333.7 C-218.64 342.93 -221.45 351.14 -225.33 359.74 C-231.66 373.79 -236.41 388.33 -238.78 403.57 C-238.91 404.35 -239.04 405.13 -239.17 405.93 C-243.05 433.45 -235.5 461.8 -218.91 483.99 C-184.81 527.82 -126.32 549.41 -72.85 556.67 C-54.53 558.88 -36.05 560.03 -17.64 561.36 C-15.67 561.51 -13.7 561.67 -11.73 561.84 C-3.21 562.56 5.27 562.77 13.81 562.81 C14.54 562.82 15.27 562.82 16.03 562.83 C21.59 562.86 27.16 562.88 32.72 562.89 C33.54 562.89 34.36 562.89 35.2 562.89 C65.37 562.93 95.2 561.69 125.22 558.57 C126.03 558.49 126.85 558.41 127.68 558.32 C184.36 552.6 246.17 533.73 284.93 489.42 C299.9 470.79 309.89 448.78 310.22 424.57 C310.24 423.83 310.25 423.09 310.27 422.33 C310.57 399.4 303.42 378.25 294.74 357.32 C290.83 347.89 288.15 338.56 285.93 328.6 C280.71 305.27 273.94 282.46 266.47 259.76 C266.24 259.07 266.02 258.37 265.78 257.66 C262.21 246.74 258.74 236.37 250.59 228.01 C249.81 227.19 249.81 227.19 249.01 226.35 C244.11 221.29 238.86 216.8 233.22 212.57 C232.26 211.84 231.3 211.1 230.31 210.34 C200.56 188.52 162.75 182.1 126.72 187.17 C93.06 192.64 59.47 209.38 36.22 234.57 C33.11 233.21 31.24 231.71 28.97 229.2 C18.42 218.44 5.55 210.42 -7.78 203.57 C-8.45 203.22 -9.12 202.87 -9.81 202.51 C-65.88 173.52 -133.79 182.14 -178.78 226.57 Z M258.22 201.57 C257.23 202.23 256.24 202.89 255.22 203.57 C255.83 208.43 257.95 212.31 260.22 216.57 C261.32 216.22 262.41 215.87 263.54 215.51 C265 215.05 266.45 214.59 267.91 214.14 C268.63 213.9 269.35 213.67 270.09 213.44 C287.02 208.1 304.45 209.12 320.34 217.15 C336.35 226.66 345.41 241.48 350.19 259.17 C354.87 279.84 351.95 298.58 341.34 316.81 C338.51 321.26 335.01 324.95 331.22 328.57 C330.69 329.13 330.17 329.69 329.62 330.26 C322.15 337.58 310.37 341.97 300.22 343.57 C300.7 345.03 301.18 346.49 301.66 347.95 C301.92 348.76 302.19 349.57 302.47 350.41 C303.17 352.58 303.17 352.58 304.22 354.57 C323.99 355.68 341.66 350.01 356.76 336.88 C373.36 321.31 383.29 300.02 384.5 277.23 C385.3 251.66 377.41 227.89 360.97 208.26 C347.59 194.09 329.34 186.39 310.07 185.41 C290.88 184.92 273.84 190.67 258.22 201.57 Z M-256.78 234.57 C-267.66 247.56 -273.53 263.86 -273.02 280.9 C-271.46 298.36 -264.16 314.05 -250.63 325.37 C-243.69 330.43 -235.41 333.73 -226.78 333.57 C-226.51 332.47 -226.24 331.37 -225.96 330.23 C-218.06 298.12 -209.48 266.24 -197.37 235.43 C-197.03 234.56 -196.68 233.68 -196.33 232.78 C-196.03 232.03 -195.73 231.28 -195.42 230.51 C-194.62 228.44 -194.62 228.44 -194.78 225.57 C-196.82 224.75 -198.86 223.94 -200.91 223.14 C-202.04 222.68 -203.18 222.23 -204.35 221.76 C-223.02 215.28 -242.71 221.36 -256.78 234.57 Z M265.22 225.57 C266.54 232.29 268.56 238.29 271.09 244.64 C282.21 273.45 289.84 303.63 297.22 333.57 C309.06 332.82 320.23 327.48 328.22 318.57 C338.98 305.39 344.47 289.52 343.04 272.47 C341.43 259.5 336.96 248.11 329.22 237.57 C328.64 236.71 328.06 235.84 327.47 234.95 C319.12 226.13 306.98 220.1 294.84 219.37 C284.04 219.23 275.03 221 265.22 225.57 Z M-64.78 567.57 C-65.82 573.18 -66.82 578.8 -67.75 584.43 C-75.76 631.73 -93.8 676.23 -112.37 720.21 C-129.37 760.49 -145.21 801.23 -156.68 843.48 C-158.44 849.79 -160.72 855.84 -163.09 861.95 C-179.25 903.88 -197.91 961.29 -196.78 1006.57 C-196.14 1006.69 -195.5 1006.81 -194.85 1006.94 C-157.66 1014.03 -126.38 1028.92 -102.78 1059.57 C-102.04 1060.5 -101.3 1061.42 -100.54 1062.37 C-80.08 1088.53 -68.51 1121.71 -68.66 1154.89 C-68.65 1155.73 -68.65 1156.58 -68.64 1157.45 C-68.65 1164.53 -69.17 1171.53 -69.78 1178.57 C-0.32 1196.45 70.41 1196.46 139.22 1175.57 C139.2 1174.67 139.19 1173.77 139.17 1172.84 C138.66 1138.71 138.66 1138.71 142.22 1123.57 C142.39 1122.84 142.55 1122.1 142.72 1121.34 C145.48 1109.45 149.87 1098.52 155.22 1087.57 C155.79 1086.41 156.35 1085.24 156.94 1084.05 C173.93 1050.98 203.68 1024.14 239.17 1012.54 C248.33 1009.75 257.78 1008.14 267.22 1006.57 C267.33 1000.41 267.11 994.54 266.22 988.45 C266.03 987.15 265.85 985.84 265.66 984.5 C265.51 983.54 265.37 982.57 265.22 981.57 C264.38 981.35 263.54 981.13 262.68 980.91 C259.33 980.03 255.98 979.13 252.64 978.22 C250.97 977.77 249.3 977.33 247.63 976.89 C221.54 970.02 221.54 970.02 214.22 961.57 C212.89 956.51 212.61 954.88 214.86 950.06 C222.09 938.25 241.98 934.51 254.22 930.57 C253.64 927.7 253.06 924.82 252.47 921.95 C252.31 921.16 252.16 920.37 251.99 919.56 C250.46 912.11 248.37 904.86 246.22 897.57 C245.18 897.59 244.14 897.61 243.07 897.64 C239.18 897.71 235.28 897.75 231.39 897.79 C229.71 897.81 228.03 897.84 226.36 897.87 C207.39 898.26 207.39 898.26 200.22 893.57 C197.63 890.25 197.24 888.44 197.16 884.26 C201.01 870.9 213.59 862.27 224.71 854.97 C227.9 852.89 227.9 852.89 230.04 849.85 C230.31 846.45 229.1 844.08 227.8 840.94 C227.54 840.31 227.28 839.68 227.01 839.03 C226.46 837.7 225.9 836.37 225.33 835.05 C224.47 833.02 223.63 830.99 222.8 828.95 C220.18 821.43 220.18 821.43 215.22 815.57 C212.39 815.74 209.81 816.03 207.03 816.51 C200.78 817.59 196.3 817.58 190.22 815.57 C187.88 813.66 186.56 812.25 185.22 809.57 C184.88 798.15 191.43 789.71 198.65 781.57 C201.56 778.19 201.56 778.19 202.07 773.93 C200.98 769.65 199.41 765.7 197.71 761.63 C197.35 760.76 197 759.89 196.63 758.99 C195.46 756.14 194.28 753.29 193.09 750.45 C192.28 748.46 191.46 746.47 190.64 744.48 C186.82 735.21 182.97 725.95 179.08 716.71 C171.26 698.16 163.89 679.57 157.22 660.57 C156.82 659.45 156.42 658.33 156.01 657.18 C145.68 628.04 138.47 598.35 135.22 567.57 C131.18 567.83 127.14 568.1 123.1 568.37 C121.73 568.46 120.36 568.55 118.99 568.64 C117.01 568.77 115.03 568.9 113.05 569.04 C111.86 569.12 110.67 569.19 109.45 569.28 C106.64 569.53 103.97 569.95 101.22 570.57 C103.05 577.4 104.96 584.2 106.89 591 C107.92 594.63 108.95 598.26 109.97 601.89 C110.24 602.83 110.5 603.77 110.78 604.74 C114.62 618.42 118.17 632.11 121.16 646 C121.41 647.13 121.66 648.26 121.92 649.42 C122.22 650.89 122.22 650.89 122.54 652.39 C122.76 653.11 122.99 653.83 123.22 654.57 C123.88 654.9 124.54 655.23 125.22 655.57 C126.97 644.51 128.51 633.55 128.93 622.35 C129.07 618.66 129.36 615.17 130.22 611.57 C132.53 610.89 132.53 610.89 135.22 610.57 C136.87 611.77 136.87 611.77 138.22 613.57 C138.54 615.69 138.54 615.69 138.45 618.12 C138.41 619.45 138.41 619.45 138.37 620.82 C138.3 622.18 138.3 622.18 138.22 623.57 C138.18 624.4 138.13 625.24 138.09 626.09 C135.36 668.01 122.46 704.57 99.07 739.24 C67.83 785.08 67.83 785.08 55.22 837.57 C56.44 837.8 57.66 838.03 58.92 838.27 C67.86 840.02 76.23 841.98 84.65 845.52 C86.85 846.42 88.91 847.08 91.22 847.57 C91.77 846.63 91.77 846.63 92.33 845.66 C97.05 837.86 102.62 831.19 108.64 824.37 C111.2 821.46 113.71 818.52 116.22 815.57 C117.22 814.4 118.22 813.24 119.22 812.07 C121.21 809.75 123.2 807.43 125.18 805.11 C131.02 798.29 136.88 791.49 142.77 784.72 C143.28 784.14 143.79 783.55 144.31 782.95 C144.8 782.39 145.29 781.83 145.79 781.25 C146.75 780.12 147.68 778.98 148.59 777.82 C149.74 776.35 150.97 774.96 152.22 773.57 C155.53 773.2 155.53 773.2 158.22 773.57 C158.98 776.22 158.98 776.22 159.22 779.57 C157.49 782.39 157.49 782.39 155.03 785.14 C154.23 786.04 153.44 786.95 152.61 787.89 C150.22 790.57 150.22 790.57 148.04 792.54 C145.22 797.24 146.14 801.46 146.67 806.78 C146.76 807.89 146.85 809 146.95 810.14 C147.25 813.7 147.58 817.26 147.91 820.82 C148.32 825.45 148.71 830.08 149.11 834.71 C149.21 835.87 149.3 837.02 149.41 838.21 C150.94 856.5 151.43 874.84 151.41 893.2 C151.41 894.04 151.41 894.89 151.41 895.76 C151.3 948.45 147.13 1012.18 110.22 1053.57 C109.37 1054.53 108.52 1055.49 107.65 1056.48 C89.53 1075.73 64.45 1084.62 38.46 1085.55 C12.7 1086.05 -12.44 1079.33 -31.78 1061.57 C-32.58 1060.86 -33.39 1060.15 -34.22 1059.41 C-46.05 1048.34 -54.26 1034.28 -60.78 1019.57 C-61.08 1018.89 -61.39 1018.21 -61.7 1017.51 C-72.85 991.96 -77.7 963.24 -79.78 935.57 C-79.87 934.42 -79.96 933.26 -80.05 932.07 C-80.93 919.48 -80.98 906.88 -80.97 894.26 C-80.97 893.14 -80.97 892.02 -80.97 890.87 C-80.95 876.77 -80.77 862.71 -79.97 848.64 C-79.91 847.57 -79.91 847.57 -79.85 846.49 C-79.39 838.23 -78.63 830.06 -77.56 821.86 C-74.59 805.68 -74.59 805.68 -78.23 790.42 C-80.23 787.88 -82.39 785.92 -84.95 783.96 C-87.78 781.57 -87.78 781.57 -88.73 778.38 C-88.78 775.57 -88.78 775.57 -87.78 773.57 C-85.16 773.16 -85.16 773.16 -81.78 773.57 C-79.35 775.46 -77.55 777.8 -75.66 780.2 C-74.51 781.59 -73.36 782.97 -72.21 784.36 C-71.64 785.07 -71.06 785.78 -70.47 786.5 C-67.96 789.57 -65.37 792.57 -62.78 795.57 C-61.79 796.73 -60.8 797.88 -59.81 799.04 C-57.19 802.1 -54.56 805.14 -51.92 808.18 C-50.28 810.07 -48.65 811.96 -47.01 813.85 C-44.9 816.29 -42.77 818.72 -40.64 821.14 C-34.56 828.09 -28.99 835.21 -23.74 842.81 C-21.91 845.56 -21.91 845.56 -19.78 847.57 C-18.4 846.98 -18.4 846.98 -16.99 846.37 C-6.08 841.76 4.45 839.19 16.22 837.57 C7.57 800.7 -9.41 768.15 -30.21 736.78 C-53.54 701.58 -72.81 656.01 -67.78 612.57 C-64.78 610.57 -64.78 610.57 -62.09 610.95 C-61.33 611.15 -60.57 611.36 -59.78 611.57 C-59.7 612.47 -59.62 613.38 -59.54 614.3 C-59.23 617.71 -58.92 621.12 -58.61 624.53 C-58.47 625.99 -58.34 627.46 -58.21 628.92 C-57.38 638.2 -56.33 647.38 -54.78 656.57 C-52.9 653.76 -52.28 652.14 -51.5 648.93 C-51.27 647.99 -51.04 647.04 -50.8 646.07 C-50.56 645.04 -50.31 644.02 -50.06 642.96 C-49.52 640.75 -48.98 638.54 -48.44 636.34 C-48.16 635.18 -47.88 634.02 -47.59 632.83 C-42.74 612.91 -37.64 593.15 -31.4 573.61 C-30.73 571.77 -30.73 571.77 -30.78 570.57 C-42.1 569.22 -53.39 568.16 -64.78 567.57 Z M-20.78 571.57 C-30.16 601.92 -38.54 632.35 -45.34 663.39 C-45.72 665.09 -45.72 665.09 -46.11 666.84 C-48.16 676.5 -48.1 682.96 -44.28 692.07 C-43.91 692.96 -43.55 693.85 -43.17 694.76 C-37.45 708.33 -30.15 720.19 -21.92 732.38 C9.63 779.2 40.41 842.55 29.09 900.87 C26.2 913.4 20.23 922.54 11.22 931.57 C10.34 932.47 10.34 932.47 9.44 933.39 C4.54 937.99 -1.41 941.28 -8.21 941.73 C-14.56 941.29 -18.7 938.96 -22.91 934.14 C-32.05 918.82 -32.53 896.06 -29.28 879.07 C-26.97 866.93 -26.09 856.12 -33.22 845.41 C-34.99 843.06 -36.86 840.82 -38.78 838.57 C-39.59 837.61 -40.39 836.64 -41.22 835.65 C-44.05 832.27 -46.91 828.92 -49.78 825.57 C-50.34 824.92 -50.9 824.26 -51.48 823.59 C-53.22 821.56 -54.97 819.53 -56.72 817.51 C-57.26 816.88 -57.8 816.25 -58.36 815.6 C-61.07 812.47 -63.81 809.45 -66.78 806.57 C-68.93 822.17 -69.87 837.86 -70.78 853.57 C-70.87 855.13 -70.87 855.13 -70.96 856.73 C-74.25 915.42 -77.14 996.45 -35.65 1043.53 C-35.03 1044.2 -34.42 1044.88 -33.78 1045.57 C-33.19 1046.31 -32.61 1047.05 -32 1047.81 C-18.79 1064 1.78 1073.26 22.22 1075.57 C50.95 1076.89 76.07 1072.4 97.99 1052.65 C135.58 1017.58 140.47 956.65 142.22 908.57 C143.25 874.56 140.97 840.37 137.22 806.57 C129.5 814.21 122.33 822.28 115.52 830.74 C113.9 832.74 112.26 834.7 110.58 836.65 C100.65 848.18 97.13 857.32 98.22 872.57 C98.61 875.33 99.15 878.04 99.72 880.76 C103.01 896.68 102.05 916.93 94.22 931.57 C93.64 932.69 93.06 933.8 92.47 934.95 C88.94 939.06 85.27 941.33 79.79 941.77 C70.47 941.27 62.54 936.23 56.22 929.57 C44.02 914.94 39.63 899.26 39.78 880.39 C39.79 879.08 39.8 877.78 39.81 876.45 C40.51 822.54 64.75 772.92 94.2 729.09 C102.11 717.31 109.21 705.67 114.46 692.45 C114.97 691.18 115.52 689.94 116.12 688.71 C121.04 677.73 115.79 664.17 113.22 653.01 C112.92 651.7 112.92 651.7 112.62 650.36 C106.2 608.41 106.2 608.41 90.22 571.57 C88.16 571.47 86.1 571.44 84.03 571.45 C82.34 571.44 82.34 571.44 80.61 571.44 C77.12 571.5 73.66 571.78 70.17 572.07 C60.88 572.76 51.6 572.72 42.29 572.7 C39.25 572.7 36.22 572.7 33.18 572.71 C22.38 572.71 11.63 572.48 0.85 571.92 C-6.37 571.56 -13.55 571.46 -20.78 571.57 Z M205.22 787.57 C203.5 789.65 203.5 789.65 201.78 792.26 C201.19 793.13 200.59 794 199.97 794.9 C199.4 795.78 198.82 796.66 198.22 797.57 C197.65 798.4 197.08 799.24 196.5 800.09 C195.08 802.84 194.96 804.53 195.22 807.57 C197.28 807.6 199.34 807.62 201.41 807.64 C203.13 807.65 203.13 807.65 204.89 807.67 C207.81 807.58 210.38 807.25 213.22 806.57 C211.92 799.86 209.92 793.85 207.22 787.57 C206.56 787.57 205.9 787.57 205.22 787.57 Z M4.16 849.2 C3.05 849.46 3.05 849.46 1.92 849.72 C-5.1 851.47 -11.36 854.22 -17.78 857.57 C-17.83 858.62 -17.88 859.67 -17.93 860.76 C-18 862.17 -18.08 863.59 -18.16 865.01 C-18.19 865.7 -18.22 866.39 -18.25 867.09 C-18.45 870.79 -18.88 874.2 -19.8 877.79 C-23.2 892.24 -22.76 911.81 -16.78 925.57 C-14.46 929.05 -12.77 931.34 -8.53 932.32 C0.44 930.53 6.97 923.76 12.22 916.57 C25.5 895.4 21.61 871 18.22 847.57 C13.34 847.37 8.88 848.08 4.16 849.2 Z M52.22 847.57 C51.9 849.36 51.59 851.16 51.28 852.95 C51.11 853.95 50.93 854.94 50.76 855.97 C47.85 875.5 45.8 899.73 58.22 916.57 C63.87 923.74 69.62 930.64 78.97 932.2 C82.3 931.84 82.3 931.84 84.47 929.57 C90.38 919.43 91.6 908.13 91.53 896.57 C91.53 895.59 91.53 894.6 91.53 893.58 C91.41 884.76 90.27 876.27 88.56 867.63 C88.21 865.5 88.08 863.4 87.93 861.24 C87.59 857.52 87.59 857.52 85.09 855.62 C74.95 851.04 63.49 847.11 52.22 847.57 Z M233.22 860.57 C218.94 870.72 218.94 870.72 207.22 883.57 C207.22 884.56 207.22 885.55 207.22 886.57 C211.42 888.15 214.88 888.82 219.35 888.8 C220.49 888.8 221.62 888.8 222.79 888.8 C223.97 888.78 225.14 888.77 226.34 888.76 C228.11 888.76 228.11 888.76 229.92 888.76 C236.65 888.81 236.65 888.81 243.22 887.57 C241.57 881.13 239.71 874.77 237.66 868.45 C237.45 867.78 237.24 867.12 237.02 866.44 C236.48 864.8 235.86 863.18 235.22 861.57 C234.56 861.24 233.9 860.91 233.22 860.57 Z M225.22 952.57 C223.36 954.64 223.36 954.64 222.22 956.57 C227.65 960.28 232.89 962.8 239.16 964.76 C239.9 965.01 240.65 965.25 241.42 965.51 C251.61 968.85 251.61 968.85 262.22 969.57 C261.62 963.3 260.63 957.28 259.22 951.14 C259.04 950.33 258.86 949.53 258.68 948.71 C257.78 944.53 257.78 944.53 256.22 940.57 C246.42 940.57 233.41 947.51 225.22 952.57 Z M-267.47 1045.54 C-283.44 1064.73 -290.19 1088.88 -290.16 1113.51 C-290.15 1114.19 -290.15 1114.87 -290.15 1115.57 C-290.1 1127.28 -289.07 1138.3 -285.78 1149.57 C-285.43 1150.79 -285.43 1150.79 -285.06 1152.04 C-277.71 1176.55 -264.75 1197.5 -246.78 1215.57 C-246.3 1216.06 -245.82 1216.54 -245.32 1217.05 C-223.97 1238.28 -195.68 1251.15 -165.47 1251.89 C-141.34 1251.46 -120.89 1242.83 -103.78 1225.57 C-92 1213.21 -84.9 1198.01 -80.78 1181.57 C-80.6 1180.87 -80.41 1180.17 -80.22 1179.45 C-78.33 1171.43 -78.38 1163.33 -78.41 1155.14 C-78.41 1154 -78.41 1154 -78.41 1152.84 C-78.45 1141 -79.23 1129.92 -82.78 1118.57 C-83.02 1117.77 -83.26 1116.96 -83.51 1116.13 C-94.64 1079.64 -119.15 1047.97 -152.79 1029.61 C-166.56 1022.45 -182.18 1017.28 -197.78 1016.57 C-198.57 1016.52 -199.35 1016.47 -200.16 1016.42 C-225.43 1015.51 -250.79 1026.58 -267.47 1045.54 Z M186.62 1057.93 C163.74 1083.16 149.98 1115.58 148.22 1149.57 C148.18 1150.37 148.13 1151.17 148.09 1151.99 C147.36 1180.23 156.56 1207.19 175.91 1227.82 C193.33 1244.38 215.38 1252.44 239.34 1251.86 C265.2 1249.96 288.48 1240.39 308.22 1223.57 C309.52 1222.48 309.52 1222.48 310.85 1221.37 C337.46 1198.25 357.46 1163.21 360.22 1127.57 C361.27 1102.14 359.55 1076 344.22 1054.57 C343.71 1053.84 343.2 1053.12 342.68 1052.37 C328.83 1033.59 310.25 1021.63 287.22 1017.57 C248.42 1012.56 213.18 1030.64 186.62 1057.93 Z M613.11 1072.25 C611.8 1072.81 611.8 1072.81 610.47 1073.38 C609.48 1073.79 608.5 1074.21 607.48 1074.63 C606.4 1075.09 605.33 1075.54 604.22 1076.01 C563.25 1092.8 521.18 1100.4 477.1 1099.85 C473.37 1099.81 469.64 1099.79 465.91 1099.77 C458.68 1099.73 451.45 1099.66 444.22 1099.57 C443.93 1105.92 443.65 1112.27 443.37 1118.62 C443.27 1120.78 443.17 1122.93 443.07 1125.09 C442.93 1128.2 442.8 1131.32 442.66 1134.44 C442.61 1135.39 442.57 1136.33 442.52 1137.31 C442.25 1143.74 442.17 1150.14 442.22 1156.57 C450.25 1156.73 457.86 1156.33 465.78 1155.01 C466.85 1154.83 467.91 1154.66 469.01 1154.48 C528.12 1144.23 575.73 1114.89 617.22 1072.57 C615.24 1071.29 615.24 1071.29 613.11 1072.25 Z M367.22 1080.57 C367.36 1081.95 367.51 1083.32 367.66 1084.7 C367.78 1085.85 367.78 1085.85 367.9 1087.02 C368.12 1088.77 368.4 1090.51 368.72 1092.25 C369.28 1095.94 369.42 1099.57 369.46 1103.3 C369.47 1104.03 369.48 1104.76 369.49 1105.52 C369.51 1107.89 369.52 1110.26 369.53 1112.64 C369.54 1113.44 369.54 1114.24 369.54 1115.07 C369.57 1127.95 368.51 1140.06 365.22 1152.57 C370.99 1154.86 376.85 1155.5 382.97 1156.2 C384.12 1156.33 385.28 1156.46 386.47 1156.6 C401.68 1158.15 416.95 1157.84 432.22 1157.57 C432.51 1151.28 432.79 1144.98 433.07 1138.69 C433.17 1136.55 433.27 1134.42 433.37 1132.28 C433.9 1120.71 434.4 1109.16 434.22 1097.57 C433.48 1097.43 432.75 1097.29 431.99 1097.15 C412.23 1093.35 392.45 1089.14 373.65 1081.83 C370.36 1080.4 370.36 1080.4 367.22 1080.57 Z " fill="#000202" transform="translate(323.780029296875,18.427490234375)"/>
<path d="M0 0 C6.16 5.38 11.59 11.04 12.69 19.49 C13.02 26.44 11.14 30.72 6.79 36 C-7.25 51.28 -31.34 60.48 -50.62 67.07 C-51.41 72.28 -51.41 72.28 -49.34 76.88 C-38.4 86.96 -24.33 93.68 -9.44 93.57 C-8.52 93.57 -7.6 93.56 -6.65 93.56 C1.53 93.34 7.96 91.66 15.38 88.07 C16.49 87.54 17.61 87.01 18.77 86.46 C33.3 79.1 42.91 68.9 51.99 55.54 C53.72 53.71 54.88 53.31 57.38 53.07 C59.69 54.7 59.69 54.7 61.38 57.07 C60.64 67.77 48.64 78.93 40.97 85.75 C25.52 98.58 4.5 106.68 -15.62 105.07 C-30.91 102.52 -44.55 96.15 -55.62 85.07 C-59.57 85.33 -62.02 87.79 -65 90.2 C-78.5 100.66 -94.35 106.88 -111.62 105.07 C-127.6 102.77 -142 96.11 -154.62 86.07 C-155.44 85.43 -156.26 84.79 -157.1 84.13 C-162.16 79.88 -166.29 75.25 -170.19 69.95 C-170.62 69.38 -171.05 68.8 -171.49 68.21 C-174.4 64.07 -175.27 60.99 -175.62 56.07 C-173.94 54.45 -173.94 54.45 -171.62 53.07 C-168.08 53.88 -166.77 54.88 -164.52 57.76 C-163.83 58.85 -163.15 59.95 -162.44 61.07 C-151.57 77.5 -135 88.84 -115.62 93.07 C-98.06 94.63 -85.07 91.39 -70.62 81.07 C-69.89 80.57 -69.15 80.06 -68.39 79.54 C-67.74 79.06 -67.1 78.57 -66.44 78.07 C-65.89 77.66 -65.34 77.25 -64.77 76.82 C-62.94 74.03 -63.45 71.31 -63.62 68.07 C-64.64 67.68 -64.64 67.68 -65.67 67.28 C-120.19 46.06 -120.19 46.06 -128.84 30.27 C-131.1 23.95 -130.35 17.91 -127.62 11.89 C-119.9 -1.71 -106.11 -8.34 -91.53 -12.41 C-90.9 -12.58 -90.27 -12.75 -89.62 -12.93 C-88.48 -13.25 -87.34 -13.57 -86.17 -13.9 C-58.68 -20.3 -22.96 -17.94 0 0 Z M-114.62 11.07 C-117.62 14.56 -119.31 17.65 -120.31 22.14 C-118.57 29.59 -112.04 33.57 -105.91 37.45 C-81.05 53.07 -81.05 53.07 -53.62 57.07 C-50.19 55.93 -46.85 54.59 -43.5 53.2 C-42.55 52.8 -41.59 52.41 -40.61 52 C-16.31 42.42 -16.31 42.42 2.38 25.07 C2.38 19.75 1.47 15.99 -1.86 11.8 C-17.19 -3.19 -40.51 -6.2 -60.92 -6.17 C-79.83 -5.94 -100.34 -2.31 -114.62 11.07 Z " fill="#000202" transform="translate(417.625,435.92578125)"/>
<path d="M0 0 C27.01 21.27 45.16 50.45 49.84 84.75 C52.61 108.34 46.93 131.11 32.62 150.11 C21.21 163.87 5.05 172.77 -12.69 175.05 C-42.03 177.45 -67.92 167.19 -90.12 148.41 C-113.08 128.59 -129.62 98.51 -131.92 68.04 C-133.15 42.9 -128.11 20.95 -111.5 1.48 C-103.13 -7.35 -93.07 -12.9 -81.69 -16.95 C-80.38 -17.43 -80.38 -17.43 -79.04 -17.92 C-52.15 -26.22 -21.94 -15.89 0 0 Z M-103.69 9.05 C-104.33 9.66 -104.96 10.28 -105.61 10.91 C-118.8 24.56 -122.19 44.17 -121.9 62.45 C-120.87 92.65 -105.53 119.55 -84.04 140.05 C-66.44 156.21 -43.7 165.54 -19.8 165.33 C-2.23 164.48 12.41 156.63 24.31 144.05 C39.26 126.9 40.63 104.73 39.31 83.05 C36.24 55.63 19.55 29.75 -1.05 12.1 C-31.17 -11.28 -74.25 -21.24 -103.69 9.05 Z " fill="#000202" transform="translate(531.69140625,260.94921875)"/>
<path d="M0 0 C16.43 12.45 27.55 29.91 30.71 50.36 C32.34 65.05 32.25 80.77 28 95 C27.81 95.66 27.61 96.31 27.41 96.99 C21.06 117.99 9.98 135.07 -5 151 C-5.81 151.9 -5.81 151.9 -6.63 152.82 C-19.56 166.73 -37.93 175.96 -56 181 C-56.87 181.25 -57.75 181.49 -58.65 181.75 C-77.57 186.07 -97.66 183.16 -114.68 174.12 C-120.47 170.42 -125.21 165.9 -130 161 C-130.67 160.35 -131.33 159.71 -132.02 159.04 C-148.21 142.27 -150.5 119.48 -150.28 97.38 C-149.91 82.98 -146.07 70 -140 57 C-139.58 56.09 -139.58 56.09 -139.14 55.15 C-126.05 27.63 -102.84 4.3 -74.07 -6.54 C-49.37 -15.26 -22.19 -15.21 0 0 Z M-111.37 31.55 C-132.49 56.52 -142.03 84.3 -140 117 C-139.3 122.21 -137.84 127.09 -136 132 C-135.7 132.83 -135.4 133.66 -135.09 134.52 C-128.92 149.8 -118.59 160.56 -104 168 C-83.62 175.86 -63.46 174.21 -43.61 165.67 C-16.03 152.92 3.76 129.86 15 102 C23.26 79.49 24.31 54.77 14.31 32.71 C6.94 17.39 -4.95 6.76 -21 1 C-54.07 -8.7 -89.14 6.4 -111.37 31.55 Z " fill="#000202" transform="translate(285,253)"/>
<path d="M0 0 C19.64 15.19 31.78 35.64 36.16 60.02 C37.58 79.7 35.61 99.28 22.27 114.82 C13.25 124.8 0.95 133.32 -12.92 134.14 C-34.02 134.86 -51.68 130.12 -67.84 116.02 C-68.8 115.26 -69.76 114.5 -70.75 113.71 C-86 100.99 -96.45 79.55 -98.84 60.02 C-100.15 38.68 -97.5 19.95 -83.09 3.14 C-59.96 -20.87 -25.56 -17.8 0 0 Z M-74.34 8.83 C-85.98 21.79 -89.73 37.69 -89.01 54.7 C-87.86 70.4 -81.16 86.15 -70.84 98.02 C-70.18 98.83 -69.51 99.64 -68.82 100.47 C-57.52 113.71 -41.92 122.71 -24.43 124.34 C-11.52 124.78 0.09 121.24 10.16 113.02 C21.36 101.62 26.35 87.6 26.59 71.77 C26.4 50.66 17.95 32.72 3.72 17.39 C2.87 16.61 2.03 15.83 1.16 15.02 C0.29 14.13 0.29 14.13 -0.59 13.23 C-20.2 -5.9 -53.35 -10.95 -74.34 8.83 Z " fill="#000202" transform="translate(182.84375,1112.98046875)"/>
<path d="M0 0 C12.76 9.63 20.8 22.72 23.97 38.41 C26.88 62.06 22.11 84.47 8.44 104.25 C5.02 108.48 1.24 112.36 -2.56 116.25 C-3.15 116.92 -3.75 117.59 -4.36 118.28 C-15.06 130.01 -32.52 137.83 -48.36 138.59 C-65.25 138.89 -80.2 135.56 -92.81 123.56 C-107.22 108.22 -111.09 90.71 -110.84 70.21 C-110.1 46.77 -97.65 25.54 -81.17 9.48 C-58.5 -9.9 -26.01 -17.79 0 0 Z M-75.82 18.48 C-91.86 34.77 -100.84 54.65 -100.81 77.57 C-100.59 91.47 -96.32 105.19 -86.59 115.44 C-76.14 124.76 -63.9 129.06 -49.96 128.56 C-31.36 126.85 -15.41 116.83 -3.46 102.75 C9.25 86.05 16.66 66.43 14.44 45.25 C12.16 30.39 6.28 17.6 -6.05 8.39 C-29.11 -6.1 -56.41 0.88 -75.82 18.48 Z " fill="#000202" transform="translate(613.55859375,1108.75)"/>
<path d="M0 0 C8.66 6.37 13.15 12.34 15.44 22.75 C16.59 30.96 15.07 38.56 10.25 45.38 C5.09 51.51 -0.79 57.01 -9 58.32 C-18.05 58.98 -26.59 58.8 -34 53 C-42.42 45.27 -46.62 37.77 -47.16 26.31 C-46.75 17.82 -42.97 10.02 -37 4 C-26.03 -4.84 -12.58 -7.47 0 0 Z " fill="#000202" transform="translate(508,307)"/>
<path d="M0 0 C8.51 5.85 13.39 12.91 15.44 23 C16.72 32.86 13.91 40.09 8 48 C2.35 54.23 -3.08 57.45 -11.42 58.38 C-21.6 58.86 -29.36 56.87 -37.16 50.14 C-43.86 43.05 -47.11 34.74 -47 25 C-46.35 16.87 -42.66 9.67 -36.92 3.92 C-25.8 -5.32 -12.89 -6.68 0 0 Z " fill="#000202" transform="translate(241,307)"/>
<path d="M0 0 C5.38 3.26 8.68 6.86 10.43 12.93 C12.02 20.37 11.7 27 8.43 33.93 C5.13 38.95 1.25 42.53 -4.45 44.62 C-10.17 45.46 -14.55 45.16 -19.64 42.41 C-24.02 39.06 -26.85 34.1 -28.57 28.93 C-29.28 19.69 -28.6 12.48 -22.76 5.12 C-16.65 -1.4 -8.43 -3.5 0 0 Z M-16.57 13.93 C-19.15 18.87 -18.88 23.64 -17.57 28.93 C-16.22 32.1 -16.22 32.1 -13.57 33.93 C-9.46 34.66 -9.46 34.66 -5.57 33.93 C-1.13 30.08 0.97 25.82 1.43 19.93 C0.79 15.69 0.08 13.62 -2.88 10.5 C-8.67 7.13 -12.35 9.12 -16.57 13.93 Z " fill="#000202" transform="translate(594.5703125,1053.06640625)"/>
<path d="M0 0 C6.65 2.78 11.05 7.48 14 14 C16.06 20.4 16.2 28.32 13.31 34.44 C10.06 39.94 6.03 43.75 0 46 C-6.34 46.72 -10.75 45.66 -16 42 C-21.38 37.42 -23.95 31.94 -25 25 C-25.23 18.02 -24.09 11.76 -20 6 C-13.94 0.24 -8.23 -1.25 0 0 Z M-13 14 C-14.98 18.56 -15.48 22.58 -13.88 27.31 C-12.38 30.55 -11.06 33.02 -8 35 C-5.2 35.61 -2.8 35.68 0 35 C3.61 31.57 4.88 28.64 5.25 23.69 C4.89 18.39 3.36 15.36 -0.38 11.62 C-5.57 8.41 -8.99 9.55 -13 14 Z " fill="#000202" transform="translate(141,1052)"/>
<path d="M0 0 C5.81 5.61 9.12 9.56 9.31 17.81 C9.26 23.07 8.68 26.03 5 30 C-1.08 35.47 -5.5 36.53 -13.61 36.37 C-20.87 35.58 -26.07 32.34 -31 27.06 C-34.9 22.13 -36.23 18.29 -35.88 12 C-35.15 6.58 -33.58 2.98 -29.13 -0.44 C-20.08 -6.45 -8.97 -6.61 0 0 Z M-25 10 C-25.52 13.26 -25.76 14.93 -25 18 C-22 21.97 -18.64 24.24 -14 26 C-8.99 26.53 -6.03 26.08 -2 23 C-0.57 20.13 -0.69 18.19 -1 15 C-3.47 10.15 -5.83 7.75 -11 6 C-16.65 5.19 -21.26 5.18 -25 10 Z " fill="#000202" transform="translate(78,1114)"/>
<path d="M0 0 C3.74 4.12 4.83 7.98 5.15 13.41 C4.77 19.92 1.89 24.51 -2.81 28.88 C-9.54 34.18 -15.33 35.62 -23.84 35.42 C-29.76 34.64 -33.16 31.74 -37.38 27.75 C-40.02 23.27 -41.39 18.93 -40.7 13.7 C-38.81 6.97 -34.79 1.49 -28.94 -2.35 C-19.13 -7.51 -8.66 -7.36 0 0 Z M-28.94 11.38 C-30.23 14.56 -30.51 16.6 -30 20 C-28.13 22.3 -26.64 23.68 -24 25 C-17.97 25.6 -13.97 24.22 -9 21 C-6.23 18.57 -5.76 16.57 -5.5 13 C-5.65 9.85 -5.92 9.11 -7.94 6.5 C-15.71 2.69 -23.48 4.68 -28.94 11.38 Z " fill="#000202" transform="translate(675,1115)"/>
<path d="M0 0 C4.23 2.36 7.06 5.25 8.95 9.72 C10.63 16.27 10.77 23.46 7.89 29.66 C5.87 33.01 3.59 35.63 0.58 38.16 C0.03 38.63 -0.53 39.09 -1.1 39.57 C-6.1 43.28 -10.48 43.86 -16.65 43.58 C-21.72 42.81 -24.3 40.38 -27.67 36.72 C-31.72 30.79 -32.32 25.19 -31.42 18.16 C-28.87 9.99 -23.74 4.43 -16.54 0 C-11.44 -2.03 -5.14 -1.78 0 0 Z M-18.42 14.16 C-21.69 19.58 -21.89 23.2 -20.42 29.16 C-18.9 31.77 -18.9 31.77 -16.42 33.16 C-12.6 33.82 -10.77 33.34 -7.3 31.6 C-3.4 28.29 -1.03 25.17 -0 20.11 C0.27 16.24 -0.32 14.31 -2.55 11.16 C-5.25 9 -5.25 9 -8.3 8.54 C-12.57 9.39 -15.34 11.09 -18.42 14.16 Z " fill="#000202" transform="translate(643.421875,1065.83984375)"/>
<path d="M0 0 C6.99 4.13 12.3 10.33 14.64 18.13 C15.51 25.24 15 31.27 10.64 37.13 C6.46 41.41 3.11 43.31 -2.86 43.57 C-9.67 43.48 -14.24 41.6 -19.36 37.13 C-25.95 29.23 -27.22 22.31 -26.36 12.13 C-24.8 6.74 -22.12 3.18 -17.36 0.13 C-11.89 -1.69 -5.46 -2.02 0 0 Z M-14.23 11.07 C-16.72 14.66 -17.04 16.64 -16.77 20.92 C-15.85 25.8 -13.19 28.44 -9.48 31.5 C-6 33.31 -4.21 33.8 -0.36 33.13 C1.95 31.26 3.32 29.77 4.64 27.13 C4.7 21.15 3.61 16.76 -0.36 12.13 C-3.11 9.96 -4.9 9.2 -8.36 8.63 C-11.51 8.94 -11.51 8.94 -14.23 11.07 Z " fill="#000202" transform="translate(95.35546875,1065.87109375)"/>
</svg>
