<?xml version="1.0" encoding="utf-8"?>
<!-- Generator: Adobe Illustrator 23.0.1, SVG Export Plug-In . SVG Version: 6.00 Build 0)  -->
<svg version="1.1" id="Layer_1" xmlns="http://www.w3.org/2000/svg" xmlns:xlink="http://www.w3.org/1999/xlink" x="0px" y="0px"
	 viewBox="0 0 864 864" style="enable-background:new 0 0 864 864;" xml:space="preserve">
<style type="text/css">
	.st0{fill:#050505;}
</style>
<g>
	<g>
		<g>
			<ellipse class="st0" cx="265.84" cy="500.75" rx="10.1" ry="36.8"/>
		</g>
		<g>
			<ellipse class="st0" cx="338.49" cy="478.37" rx="10.1" ry="32.72"/>
		</g>
		<g>
			<ellipse class="st0" cx="427.5" cy="397.44" rx="10.1" ry="32.72"/>
		</g>
		<g>
			<ellipse class="st0" cx="437.6" cy="564.47" rx="10.1" ry="32.72"/>
		</g>
		<g>
			<ellipse class="st0" cx="328.39" cy="602" rx="10.1" ry="32.72"/>
		</g>
		<g>
			<ellipse class="st0" cx="200.73" cy="549.07" rx="10.1" ry="32.72"/>
		</g>
		<g>
			<ellipse class="st0" cx="156.63" cy="688.14" rx="10.1" ry="32.72"/>
		</g>
		<g>
			<ellipse class="st0" cx="237.46" cy="647.73" rx="10.1" ry="32.72"/>
		</g>
		<g>
			<ellipse class="st0" cx="265.84" cy="760.31" rx="10.1" ry="32.72"/>
		</g>
		<g>
			<ellipse class="st0" cx="398.67" cy="688.14" rx="10.1" ry="32.72"/>
		</g>
		<g>
			<ellipse class="st0" cx="358.7" cy="793.02" rx="10.1" ry="32.72"/>
		</g>
		<g>
			<ellipse class="st0" cx="129.33" cy="803.04" rx="10.1" ry="32.72"/>
		</g>
		<g>
			<ellipse class="st0" cx="505.92" cy="478.37" rx="10.1" ry="32.72"/>
		</g>
		<g>
			<ellipse class="st0" cx="575.2" cy="511.09" rx="10.1" ry="32.72"/>
		</g>
		<g>
			<ellipse class="st0" cx="505.92" cy="634.71" rx="10.1" ry="32.72"/>
		</g>
		<g>
			<ellipse class="st0" cx="589.88" cy="655.42" rx="10.1" ry="32.72"/>
		</g>
		<g>
			<ellipse class="st0" cx="495.81" cy="763.39" rx="10.1" ry="32.72"/>
		</g>
		<g>
			<ellipse class="st0" cx="688.5" cy="760.31" rx="10.1" ry="32.72"/>
		</g>
		<g>
			<ellipse class="st0" cx="668.3" cy="602" rx="10.1" ry="32.72"/>
		</g>
		<g>
			<ellipse class="st0" cx="742.53" cy="622.71" rx="10.1" ry="32.72"/>
		</g>
	</g>
	<path class="st0" d="M774.61,628.34c-22.9-98.59-57.58-234.87-86.25-321.63c-25.43-76.96-35.01-82.04-43.33-80.54
		c-30.39,5.36-119.9,127.17-148.38,166.89c-4.9-17.89-14.63-53.03-26.78-94.89c-0.01-0.03-0.02-0.06-0.03-0.1
		c-7.89-27.18-16.78-57.16-26.07-87.19c-61.6-199.21-79-204.48-86.43-206.73c-6.37-1.93-11.43,3.98-13.09,5.93
		c-33.11,38.49-129.72,313.56-169.71,430.04c-1.31,3.81-130.55,381.25-122.94,397.24c1.87,3.94,6.15,6.94,13.45,9.45
		c29.37,10.11,123.99,13.76,236.38,13.76c214.28,0,493.12-13.26,507.21-20.3C813.73,837.72,822.25,833.46,774.61,628.34z
		 M646.1,238.74c10.09,8.07,35.47,77.35,72.38,215.84c1.19,27.25-0.39,53.47-3.53,61.27c-8.12-7.16-26.94-40.14-41.02-69.62
		c-1.22-2.56-4.04-3.97-6.8-3.45c-2.79,0.53-4.87,2.87-5.07,5.7c-1.16,16.58-7.49,62.28-22.61,74.53c-2.67,2.15-5.27,2.97-8.25,2.56
		c-16.31-2.28-25.66-71.37-24.97-134.08c0.03-3.01-2.09-5.62-5.05-6.2c-2.94-0.57-5.91,1.03-7.02,3.84
		c-6.79,17.19-25.58,51.01-40.13,46.24c-13.49-4.5-14.51-52.24-10.97-84.1C583.88,297.7,629.23,243.75,646.1,238.74z M354.97,16.76
		c17,11.52,60.49,138.43,102.52,283c-0.57,2.88-3.03,12.93-10.37,17.73c-4.59,3.01-10.62,3.48-17.92,1.42
		c-27.57-7.82-34.45-39.93-34.51-40.24c-0.63-3.12-3.58-5.32-6.67-5c-3.18,0.28-5.63,2.9-5.7,6.09
		c-0.56,25.64-7.42,94.34-32.09,104.23c-28.05,11.29-50.16-34.09-50.38-34.56c-1.18-2.47-3.85-3.93-6.55-3.48
		c-2.71,0.4-4.85,2.51-5.27,5.22c-0.12,0.75-12.18,75.08-49.18,69.76c-10.3-1.47-17.95-5.69-22.75-12.53
		c-8.97-12.8-6.03-31.31-5.54-33.99C297.1,127.41,341.98,27.59,354.97,16.76z M432.9,846.46c-320.1,7.18-363.61-9.22-369.49-14.03
		C65.6,811,123.15,626.91,194.67,420.04c1.87-5.4,3.68-10.62,5.52-15.9c1.3,3.88,3.1,7.75,5.62,11.36
		c6.86,9.83,17.38,15.83,31.27,17.81c1.99,0.28,3.92,0.42,5.79,0.42c32.55-0.01,47.95-41.2,54.09-64.74
		c10.84,15.64,31.46,37.22,57.91,26.6c25.87-10.37,35-58.41,38.22-89.47c6.58,10.06,16.89,20.32,32.7,24.81
		c10.95,3.11,20.42,2.1,28.18-2.98c3.84-2.51,6.76-5.77,9.01-9.14c8.55,29.81,16.99,60.17,25.07,90.27
		c0.63,2.34,2.56,4.11,4.94,4.53c2.4,0.45,4.81-0.57,6.2-2.55c8.85-12.57,19.04-26.63,29.84-41.14
		c-1.37,27.75,0.1,70.34,21.04,77.32c17.99,6.02,33.72-12.55,43.87-29.54c1.22,44.87,7.58,116.37,35.52,120.27
		c1.06,0.15,2.1,0.22,3.15,0.22c5.24,0,10.27-1.86,14.71-5.45c14.53-11.77,21.52-41.38,24.74-62.09
		c12.33,24.03,30,54.93,40.91,58.37c3.08,0.99,6.17,0.42,8.72-1.55c4.85-3.72,7.41-14.51,8.67-27.41
		c2.52,9.82,5.08,19.88,7.69,30.28c38.93,155.01,63.4,277.67,62.79,299.1C775.84,833.21,609.13,842.52,432.9,846.46z"/>
</g>
</svg>
