<?xml version="1.0" encoding="UTF-8"?>
<!-- Generator: visioncortex VTracer 0.6.3 -->
<svg version="1.1" xmlns="http://www.w3.org/2000/svg" width="1280" height="1280">
<path d="M0 0 C7.6 6.54 11.87 15.54 13.69 25.31 C13.71 26.98 13.72 28.65 13.69 30.31 C14.32 30.02 14.95 29.73 15.6 29.44 C23.68 26.09 32.38 24.38 40.96 27.01 C46.33 29.8 49.87 34.18 52 39.75 C54.03 50.25 50.98 58.39 45.69 67.31 C46.38 67.25 47.07 67.19 47.77 67.13 C128.75 60.27 231.46 64.42 297.69 117.31 C298.29 117.79 298.89 118.26 299.5 118.75 C310.5 127.59 318.74 136.95 325.69 149.31 C326.32 148.95 326.95 148.59 327.6 148.21 C360.37 129.8 399.32 122.93 435.9 133.15 C469.03 143.08 494.12 164.52 510.81 194.68 C528.6 228.5 530.31 265.9 519.69 302.31 C512.41 323.87 499.58 343.12 483.69 359.31 C483.03 359.98 482.37 360.65 481.7 361.34 C463.44 378.7 437.66 388.46 412.92 390.77 C412.08 390.85 411.24 390.93 410.37 391.01 C408.7 391.17 407.03 391.31 405.36 391.44 C400.48 391.88 397.03 392.87 392.69 395.31 C392.03 395.31 391.37 395.31 390.69 395.31 C388.94 398.48 387.78 401.79 386.58 405.2 C372.5 445.16 350.62 484.3 317.57 511.73 C315.39 513.56 313.33 515.5 311.25 517.44 C293.09 533.77 272.3 547.62 251.22 559.84 C248.67 561.32 246.14 562.81 243.61 564.3 C221.75 577.09 199.06 587.6 175.69 597.31 C174.73 597.71 173.78 598.11 172.8 598.52 C168.1 600.47 163.4 602.4 158.69 604.31 C160.3 610.44 163.58 615.49 166.81 620.88 C194.83 668.38 216.79 717.17 234.69 769.31 C234.93 770 235.16 770.7 235.41 771.41 C257.25 835.1 266.5 900.3 269.69 967.31 C269.75 968.67 269.75 968.67 269.82 970.05 C270.57 986.02 270.89 1001.96 270.88 1017.94 C270.87 1019.63 270.87 1019.63 270.87 1021.35 C270.83 1050.6 269.16 1078.7 262.69 1107.31 C293.11 1112.85 329.66 1110.53 356.03 1092.94 C382.3 1074.53 396.25 1045.96 403.44 1015.38 C403.64 1014.54 403.84 1013.71 404.04 1012.85 C407.7 996.34 408.06 979.71 408 962.88 C408 961.81 408 960.75 407.99 959.66 C407.91 936.88 405.42 915.16 401.61 892.73 C401.46 891.84 401.31 890.96 401.15 890.05 C397.53 868.83 393.32 847.73 389.06 826.62 C375.84 760.98 375.84 760.98 372.69 729.31 C372.59 728.41 372.49 727.51 372.4 726.57 C371.42 716.09 371.5 705.59 371.5 695.07 C371.5 691.78 371.48 688.5 371.46 685.21 C371.36 646.32 378.05 605.47 397.69 571.31 C398.33 570.12 398.97 568.92 399.61 567.72 C404.18 559.23 409.59 551.73 415.69 544.31 C416.16 543.73 416.64 543.15 417.13 542.55 C443.58 510.22 482.77 485.45 524.81 480.98 C546.73 479.01 572.4 480.42 590.69 494.31 C598.85 501.41 602.04 506.7 602.96 517.54 C603.25 527.14 601.96 535.09 595.74 542.7 C581.95 556.12 561.61 553.44 543.84 553.29 C521.12 553.12 498.4 553.35 480.8 569.95 C468.67 583.51 462.04 602.84 456.44 619.88 C456.18 620.65 455.92 621.42 455.66 622.22 C451.29 635.41 448.15 648.47 446.69 662.31 C446.54 663.48 446.54 663.48 446.4 664.67 C443.11 694.59 445.32 725.63 449.69 755.31 C449.84 756.39 449.84 756.39 450 757.48 C453.58 781.68 458.47 805.65 463.12 829.65 C498.75 1013.43 498.75 1013.43 450.1 1113.28 C446.37 1118.65 442.07 1123.48 437.69 1128.31 C436.85 1129.28 436.02 1130.24 435.16 1131.24 C429.52 1137.68 423.54 1143.18 416.69 1148.31 C416.12 1148.73 415.56 1149.16 414.98 1149.59 C398.78 1161.58 381.16 1170.98 361.69 1176.31 C360.88 1176.54 360.07 1176.76 359.24 1176.99 C324.55 1186.38 285.88 1187.84 250.5 1181.19 C238.64 1179.09 226.94 1180.09 215.15 1182.1 C206.89 1183.43 198.6 1183.99 190.25 1184.5 C189.57 1184.54 188.9 1184.59 188.2 1184.63 C117.72 1189 42.64 1173.06 -23.76 1150.1 C-28.35 1148.56 -32.68 1147.5 -37.5 1147.06 C-38.66 1146.95 -38.66 1146.95 -39.85 1146.83 C-49.34 1146.03 -58.86 1146.22 -68.37 1146.27 C-178.7 1146.88 -178.7 1146.88 -201.31 1127.31 C-204.07 1121.81 -203.07 1113.84 -201.36 1108.14 C-195.09 1094.52 -184.22 1085.36 -171.06 1078.66 C-166.55 1077.04 -162.81 1076.82 -158.06 1076.88 C-157.2 1076.88 -156.33 1076.89 -155.44 1076.89 C-146.12 1077.1 -137.3 1078.98 -128.31 1081.31 C-127.11 1081.62 -125.91 1081.93 -124.68 1082.25 C-122.21 1082.91 -119.76 1083.59 -117.31 1084.31 C-118 1083.44 -118.69 1082.57 -119.4 1081.67 C-121.9 1078.51 -124.38 1075.34 -126.86 1072.16 C-128.1 1070.59 -129.34 1069.02 -130.59 1067.45 C-137.98 1057.94 -144.17 1047.66 -150.31 1037.31 C-150.72 1036.63 -151.13 1035.94 -151.54 1035.24 C-167.36 1008.2 -177.38 972.17 -169.75 941 C-164.66 925.34 -155.61 912.7 -141.31 904.31 C-132.81 900.57 -123.41 901.19 -114.31 901.31 C-118.06 897 -121.84 892.72 -125.69 888.5 C-128.74 885.11 -131.69 881.67 -134.56 878.12 C-136.14 876.19 -137.73 874.25 -139.31 872.31 C-140.06 871.4 -140.06 871.4 -140.83 870.46 C-152.5 856.32 -162.19 848.86 -180.81 846.62 C-181.83 846.5 -182.84 846.37 -183.88 846.23 C-186.36 845.92 -188.83 845.61 -191.31 845.31 C-186.52 862.03 -176.86 870.19 -162.98 880.03 C-161.23 881.37 -159.72 882.6 -158.31 884.31 C-158.22 891.43 -161.05 895.8 -165.06 901.5 C-165.59 902.28 -166.11 903.06 -166.66 903.87 C-173.41 913.72 -173.41 913.72 -178.25 916.38 C-181.7 916.27 -183.83 914.52 -186.31 912.31 C-187.79 910.71 -189.25 909.08 -190.69 907.44 C-199.54 897.42 -207.09 894.49 -220.18 892.35 C-235.27 889.81 -246.74 883.16 -255.9 870.65 C-261.54 862.61 -265.95 854.07 -269.38 844.88 C-271.27 840 -273.94 837.3 -277.94 833.95 C-287.75 825.09 -292.6 811.28 -293.31 798.31 C-294.11 775.72 -294.11 775.72 -288.62 766.81 C-285.75 761.97 -286.19 758.65 -287.31 753.31 C-289.87 738.54 -287.67 722.45 -279.91 709.47 C-278.18 707.13 -276.38 705.7 -274.07 703.93 C-268.67 699.22 -266.01 693.55 -263.16 687.11 C-261.72 683.84 -260.19 680.61 -258.68 677.38 C-258.38 676.75 -258.09 676.12 -257.79 675.48 C-250.52 660.02 -239.52 647.27 -227.85 634.94 C-226.79 633.82 -225.73 632.69 -224.68 631.56 C-210.88 616.82 -193.49 603.63 -172.6 602.03 C-156.74 601.66 -156.74 601.66 -150.25 607.01 C-146.67 610.69 -144.29 614.03 -144.12 619.26 C-145.19 630.9 -153.56 639.46 -161.25 647.62 C-171.18 658.36 -186.87 678.5 -187.44 693.62 C-186.1 698.02 -183.89 700.83 -181.16 704.48 C-175.16 713.66 -173.16 723.57 -172.88 734.29 C-172.59 740.72 -171.01 744.97 -166.27 749.32 C-161.84 752.89 -156.95 755.57 -151.94 758.25 C-150.97 758.77 -150 759.29 -149.01 759.83 C-128.93 770.48 -110.53 775.54 -87.69 775.56 C-86.88 775.56 -86.07 775.56 -85.24 775.57 C-66.84 775.55 -48.6 774.33 -30.31 772.31 C-29.1 772.18 -27.88 772.04 -26.62 771.91 C-7.57 769.65 6.39 764.33 20.69 751.31 C21.98 750.16 21.98 750.16 23.3 748.99 C24.91 747.55 26.51 746.1 28.11 744.65 C29.47 743.41 30.85 742.18 32.26 740.99 C38.95 735.3 45.1 729.05 51.3 722.83 C53.25 720.88 55.2 718.93 57.15 716.98 C73.72 700.45 73.72 700.45 78.19 678.02 C78.23 677.04 78.27 676.06 78.31 675.05 C78.44 671.93 78.56 668.81 78.69 665.69 C79.71 640.04 79.71 640.04 80.69 629.31 C79.79 629.49 78.88 629.67 77.95 629.85 C74.58 630.51 71.2 631.16 67.83 631.82 C66.37 632.1 64.92 632.39 63.46 632.67 C61.36 633.08 59.26 633.49 57.15 633.9 C55.26 634.27 55.26 634.27 53.33 634.65 C46.79 635.84 40.53 636.49 33.91 636.55 C32.65 636.57 32.65 636.57 31.37 636.58 C-37.1 637.22 -141.36 617.08 -195.29 570.61 C-203.7 562.09 -207.93 549.34 -212.38 538.44 C-216.25 529.01 -220.08 520.48 -229.31 515.31 C-232.37 514.35 -235.49 513.72 -238.62 513.06 C-253.39 509.66 -266.11 503.3 -278.31 494.31 C-279.13 493.72 -279.94 493.13 -280.78 492.52 C-293.27 483.01 -303.93 471.58 -312.31 458.31 C-312.7 457.7 -313.09 457.08 -313.5 456.45 C-324.24 439.18 -332.56 417.83 -333.31 397.31 C-333.35 396.37 -333.39 395.42 -333.43 394.45 C-334.08 363.87 -324.68 332.73 -303.27 310.33 C-301.96 308.99 -300.64 307.65 -299.31 306.31 C-298.65 305.59 -297.98 304.86 -297.3 304.11 C-288.78 295 -278.16 288.83 -266.96 283.58 C-262.26 281.27 -260.09 279.47 -258.31 274.31 C-257.85 272.12 -257.46 269.91 -257.12 267.69 C-253.02 244.62 -240.14 221.91 -226.31 203.31 C-225.9 202.74 -225.48 202.18 -225.05 201.59 C-222.22 197.76 -219.3 194.02 -216.31 190.31 C-215.88 189.77 -215.45 189.24 -215 188.68 C-203.25 174.24 -190.09 160.66 -175.31 149.31 C-174.31 148.49 -173.31 147.67 -172.27 146.83 C-157.43 134.73 -141.27 124.2 -124.31 115.31 C-123.67 114.98 -123.03 114.64 -122.37 114.29 C-111.89 108.84 -101.14 104.02 -90.31 99.31 C-91.08 98.3 -91.84 97.29 -92.62 96.25 C-93.44 95.15 -93.44 95.15 -94.27 94.04 C-95.81 91.98 -97.37 89.96 -98.95 87.93 C-109.69 74 -119.5 55.55 -117.31 37.31 C-113.48 21.13 -113.48 21.13 -107.2 16.89 C-99.01 12.13 -90.71 10.91 -81.31 12.31 C-64.14 17.07 -49.92 29.39 -36.31 40.31 C-36.24 39.01 -36.16 37.7 -36.09 36.36 C-35.22 23.98 -33.87 13.24 -24.44 4.25 C-17.31 -1.3 -8.46 -4.31 0 0 Z M-15.6 11.93 C-20.31 15.74 -22.47 22.49 -23.31 28.31 C-23.95 39.49 -24.38 51.54 -17.12 60.75 C-16.6 61.33 -16.07 61.9 -15.52 62.5 C-13.91 64.91 -13.96 66.47 -14.31 69.31 C-16.31 71.31 -16.31 71.31 -19.47 71.38 C-24.71 69.92 -27.14 67.11 -30.75 63.19 C-45.04 48.07 -67.64 25.3 -89.71 24.19 C-95.43 24.49 -98.43 26.15 -102.31 30.31 C-106.22 38.27 -104.8 47.76 -102.48 56.04 C-98.59 66.94 -93.14 76.75 -85.31 85.31 C-84.44 86.32 -84.44 86.32 -83.56 87.34 C-69.21 102.96 -49.25 110.09 -29.31 115.31 C-28.19 121.06 -28.19 121.06 -29.31 123.31 C-41.99 126.38 -57.4 120.03 -68.25 113.5 C-74.2 110.02 -79.58 109.69 -86.25 111.25 C-118.87 121.4 -151.6 142.97 -176.31 166.31 C-177.6 167.42 -178.89 168.53 -180.19 169.62 C-188.48 176.86 -196.3 184.83 -203.31 193.31 C-203.95 194.07 -203.95 194.07 -204.59 194.84 C-243.03 240.79 -250.66 286.66 -245.71 344.94 C-240.44 403.93 -229.16 521.18 -183.26 563.24 C-178.7 567.02 -173.62 569.68 -168.38 572.38 C-166.74 573.21 -166.74 573.21 -165.08 574.07 C-131.16 591.15 -94.01 603.8 -57.31 613.31 C-56.25 613.59 -55.18 613.87 -54.08 614.16 C39.49 638.29 130.65 607.55 240.69 552.31 C266.7 536.9 290.67 519.51 312.84 498.94 C315.52 496.46 318.26 494.04 321 491.62 C325.27 487.77 329.1 483.82 332.69 479.31 C333.47 478.33 334.26 477.34 335.07 476.32 C347.34 460.45 357.26 442.49 365.69 424.31 C365.99 423.66 366.3 423.01 366.61 422.33 C374.34 406.85 374.34 406.85 377.69 390.31 C376.8 390.09 376.8 390.09 375.89 389.86 C343.3 381.51 343.3 381.51 333.69 372.31 C332.08 369.1 332.63 365.88 332.69 362.31 C337.41 362.52 340.31 363.51 344.31 366.06 C368.9 381.55 404.07 381.47 431.69 375.31 C447.22 371.56 459.8 363.82 471.69 353.31 C472.63 352.51 473.56 351.7 474.53 350.87 C498.35 329.97 510.51 299.84 513.44 268.69 C513.55 266.56 513.63 264.44 513.69 262.31 C513.71 261.65 513.74 260.98 513.77 260.29 C514.92 228.13 503.54 198.39 482.11 174.43 C461.56 152.86 434.37 142.08 404.88 141.12 C374.53 140.53 344.66 148.61 322.09 169.82 C304.84 187.7 297.16 209.95 293.99 234.07 C293.59 237.06 293.09 240.03 292.56 243 C292.42 243.83 292.27 244.66 292.12 245.51 C291.69 247.31 291.69 247.31 290.69 248.31 C288.02 248.45 285.36 248.35 282.69 248.31 C281.51 219.39 289.32 189.94 308.67 167.75 C311.78 163.99 313.64 161.57 313.81 156.62 C311.42 143.05 295.24 129.87 284.69 122.31 C279.22 118.63 273.5 115.42 267.69 112.31 C266.93 111.91 266.18 111.5 265.41 111.08 C233.29 94.01 196.55 85.57 160.69 81.31 C159.44 81.16 158.19 81.01 156.91 80.85 C114.35 75.95 69.92 75.96 27.46 81.9 C26.75 81.99 26.04 82.09 25.32 82.19 C23.35 82.46 21.39 82.74 19.43 83.03 C15.25 83.35 11.81 83.02 7.69 82.31 C6.69 81.31 6.69 81.31 6.62 78.25 C6.65 77.28 6.67 76.31 6.69 75.31 C10.7 73.39 14.16 72.17 18.56 71.5 C25.03 70.28 30.27 67.51 34.29 62.2 C37.68 56.47 39.75 50.72 39.62 44 C38.86 41.23 38.86 41.23 36.81 39.31 C31.25 37.53 25.85 38.97 20.56 41.22 C15.15 44.49 13.51 49.48 11.69 55.31 C8.31 55.94 8.31 55.94 4.69 56.31 C2.15 53.77 2.43 52.81 2.38 49.29 C2.36 48.27 2.33 47.26 2.31 46.21 C2.29 45.13 2.27 44.05 2.25 42.94 C2.05 26.51 2.05 26.51 -5.31 12.31 C-8.93 9.87 -11.64 10.01 -15.6 11.93 Z M-286.31 310.31 C-287.02 310.85 -287.73 311.39 -288.45 311.95 C-306.94 326.87 -317.3 350.96 -320.02 374.14 C-321.36 391.18 -321.09 407.12 -315.31 423.31 C-315.06 424.04 -314.81 424.76 -314.55 425.51 C-308.97 441.23 -300.28 454.79 -289.31 467.31 C-288.27 468.57 -288.27 468.57 -287.21 469.86 C-272.14 487.56 -249.35 499.53 -226.31 502.31 C-227.9 493.42 -230.31 484.8 -232.71 476.1 C-244.91 431.64 -252.4 386.99 -258.31 341.31 C-271.11 343.26 -283.29 347.5 -291.31 358.31 C-293.03 361.19 -294.61 364.08 -296.09 367.09 C-297.31 369.31 -297.31 369.31 -299.31 370.31 C-295.42 357.37 -288.94 349.29 -277.31 342.31 C-274.02 340.67 -270.67 339.15 -267.26 337.75 C-264.65 336.63 -262.67 335.79 -260.94 333.48 C-259.44 328.31 -259.19 323.31 -259.21 317.95 C-259.22 316.93 -259.22 316.93 -259.22 315.89 C-259.22 313.74 -259.24 311.59 -259.25 309.44 C-259.26 307.97 -259.26 306.51 -259.26 305.04 C-259.27 301.46 -259.29 297.89 -259.31 294.31 C-268.21 294.31 -279.9 305.17 -286.31 310.31 Z M-211.31 636.31 C-212.7 637.53 -214.1 638.74 -215.5 639.94 C-216.78 641.06 -218.05 642.18 -219.31 643.31 C-219.93 643.87 -220.56 644.42 -221.2 644.99 C-235.71 658.68 -253.67 683.87 -255 704.38 C-254.14 709.33 -252.95 710.93 -249.31 714.31 C-248.32 714.64 -247.33 714.97 -246.31 715.31 C-245.76 713.55 -245.76 713.55 -245.19 711.75 C-232.79 674.95 -210.08 640.9 -174.5 623.25 C-172.44 622.26 -170.38 621.28 -168.31 620.31 C-169.64 624.31 -172.04 625.03 -175.56 626.88 C-206.98 644.07 -229.35 674.7 -240.79 708.25 C-241.65 711.66 -241.5 714.82 -241.31 718.31 C-238.42 719.95 -236.14 720.68 -232.81 720.81 C-231.68 720.89 -231.68 720.89 -230.53 720.97 C-228.03 720.45 -228.03 720.45 -226.17 717.77 C-224.18 714.07 -223.07 710.48 -222.06 706.44 C-217.73 690.66 -209.07 677 -200.31 663.31 C-199.61 662.22 -198.92 661.12 -198.2 659.99 C-193.89 653.51 -193.89 653.51 -191.12 652.57 C-190.52 652.48 -189.93 652.4 -189.31 652.31 C-190.78 655.57 -192.63 658.03 -194.94 660.75 C-207.85 676.76 -221.23 700.38 -222.31 721.31 C-213.74 719.82 -213.74 719.82 -207.28 714.47 C-205.43 710.34 -204.47 705.95 -203.39 701.57 C-197.65 678.35 -187.76 657.83 -171.31 640.31 C-168.93 637.68 -166.6 635.02 -164.31 632.31 C-163.74 631.64 -163.17 630.97 -162.58 630.29 C-159.06 625.93 -157.55 622.94 -157.31 617.31 C-175.29 606.25 -198.89 624.45 -211.31 636.31 Z M528.45 492.45 C494.15 495.27 463.27 514.44 438.69 537.31 C437.97 537.96 437.25 538.61 436.52 539.29 C423.85 551.28 414.53 565.86 406.69 581.31 C406.29 582.08 405.89 582.85 405.48 583.65 C367.24 658.51 386.49 750.2 402.11 828.53 C413.48 885.58 413.48 885.58 416.44 904.5 C416.6 905.55 416.6 905.55 416.77 906.63 C417.48 911.18 418.12 915.74 418.69 920.31 C418.78 921.05 418.87 921.78 418.97 922.54 C420.55 935.41 421.03 948.16 421 961.12 C421 964.18 421.02 967.24 421.05 970.29 C421.19 1012.66 410.45 1055.05 380.69 1086.31 C380.19 1086.84 379.69 1087.36 379.18 1087.9 C357.69 1110.44 329.99 1121.73 298.79 1122.52 C281.61 1122.72 264.65 1122.38 248.69 1115.31 C248.39 1109.41 249.5 1104.44 251 1098.75 C252.87 1091.27 254.39 1083.83 255.44 1076.19 C255.55 1075.38 255.67 1074.57 255.79 1073.74 C258.2 1055.09 257.93 1036.14 257.94 1017.38 C257.94 1016.7 257.94 1016.03 257.94 1015.34 C257.96 974.54 255.75 933.81 250.69 893.31 C250.6 892.6 250.51 891.89 250.42 891.16 C247.56 868.57 243.02 846.44 237.69 824.31 C237.42 823.18 237.15 822.06 236.87 820.89 C225.75 775.23 208.67 730.78 188.69 688.31 C188.36 687.62 188.04 686.93 187.7 686.22 C179.13 668.01 170.4 649.95 160.08 632.66 C158.75 630.42 157.46 628.17 156.17 625.91 C152.21 618.77 152.21 618.77 145.94 613.88 C134.19 611.27 120.72 615.4 110.38 620.88 C100.61 627.2 95.53 637.76 93.14 648.84 C91.2 660.47 90.81 672.24 90.19 684 C88.79 710.16 88.79 710.16 87.32 721.5 C86.74 726.15 86.61 730.63 86.69 735.31 C89.92 731.44 92.64 727.39 95.31 723.12 C99.42 716.58 99.42 716.58 101.69 714.31 C104.81 714.19 104.81 714.19 107.69 714.31 C109.38 720.87 107.74 724.41 104.5 730.19 C104.05 731.01 103.6 731.84 103.13 732.69 C95.19 746.89 85.6 759.43 74.08 770.91 C72.76 772.24 71.45 773.58 70.2 774.98 C50.03 797.14 15.91 805.73 -12.83 807.19 C-14.55 807.25 -14.55 807.25 -16.31 807.31 C-17.8 807.37 -17.8 807.37 -19.32 807.44 C-46.21 808 -72.81 802.4 -98.31 794.31 C-99.12 794.06 -99.93 793.8 -100.76 793.54 C-117.94 788.03 -134.64 780.96 -150.59 772.53 C-151.19 772.21 -151.8 771.89 -152.42 771.56 C-155.36 770 -158.28 768.43 -161.19 766.82 C-167.39 763.48 -172.22 761.39 -179.31 761.31 C-179.64 761.64 -179.97 761.97 -180.31 762.31 C-183.25 762.5 -183.25 762.5 -186.31 762.31 C-188.31 760.31 -188.31 760.31 -188.36 758.43 C-188.26 757.69 -188.16 756.95 -188.06 756.19 C-187.9 754.97 -187.9 754.97 -187.74 753.72 C-187.31 751.31 -187.31 751.31 -186.25 747.62 C-183.31 736.43 -184.82 723.15 -190.5 713.06 C-191.1 712.15 -191.7 711.25 -192.31 710.31 C-192.64 710.31 -192.97 710.31 -193.31 710.31 C-193.45 710.94 -193.58 711.57 -193.71 712.21 C-193.89 713.03 -194.07 713.85 -194.25 714.69 C-194.42 715.5 -194.6 716.31 -194.78 717.15 C-195.31 719.31 -195.31 719.31 -196.31 721.31 C-197.98 721.98 -197.98 721.98 -200.14 722.57 C-201.31 722.89 -201.31 722.89 -202.51 723.22 C-203.33 723.43 -204.15 723.65 -205 723.88 C-206.21 724.21 -206.21 724.21 -207.44 724.54 C-222.55 728.64 -236.84 728.96 -250.7 721.05 C-253.98 718.87 -256.73 716.36 -259.46 713.54 C-261.3 712.05 -261.3 712.05 -263.89 712.46 C-267.16 713.61 -268.38 715.52 -270.31 718.31 C-267.85 725.63 -261.89 731.44 -255.88 736.12 C-253.19 738.42 -252.27 739.96 -251.31 743.31 C-258.62 743.45 -261.87 740.64 -267.11 735.73 C-269.31 733.31 -269.31 733.31 -270.98 730.52 C-271.42 729.79 -271.86 729.06 -272.31 728.31 C-272.97 728.31 -273.63 728.31 -274.31 728.31 C-274.9 733 -274.58 735.47 -271.75 739.31 C-270.63 740.67 -269.48 742 -268.31 743.31 C-267.78 743.91 -267.25 744.51 -266.71 745.13 C-262.68 749.4 -258.25 752.48 -253.25 755.54 C-251.31 757.31 -251.31 757.31 -251.03 760.02 C-251.12 760.78 -251.22 761.53 -251.31 762.31 C-261.1 760.81 -267.8 753.24 -274.31 746.31 C-275.68 749.38 -275.68 749.38 -274.12 752.69 C-264.5 770.59 -244.43 782.51 -225.75 788.62 C-217.28 791.03 -208.85 792.22 -200.06 792.56 C-193.8 793.04 -190.07 795.36 -185.31 799.31 C-184.62 799.86 -183.94 800.42 -183.23 800.98 C-178.4 805.01 -174.31 809.47 -170.31 814.31 C-169.85 814.88 -169.38 815.44 -168.9 816.02 C-163.26 822.87 -157.69 829.76 -152.31 836.81 C-148.48 841.82 -144.58 846.78 -140.62 851.69 C-140.1 852.34 -139.58 853 -139.04 853.67 C-135.87 857.59 -132.51 861.17 -128.91 864.7 C-126.79 866.84 -124.93 869.13 -123.06 871.5 C-118.86 876.72 -114.41 881.64 -109.86 886.55 C-107.83 888.75 -105.84 890.98 -103.88 893.25 C-92.28 906.58 -80.23 919.37 -66.31 930.31 C-65.41 931.07 -64.51 931.82 -63.57 932.6 C-33.78 956.83 8.4 976.39 47.41 974.16 C62.17 971.99 73.5 963.66 83.69 953.31 C84.4 952.67 85.12 952.02 85.85 951.36 C124.5 915.95 136.77 847.12 144.73 797.85 C144.85 797.13 144.97 796.41 145.09 795.67 C145.4 793.73 145.71 791.79 146.02 789.84 C146.7 786.23 147.62 782.83 148.69 779.31 C151.56 778.69 151.56 778.69 154.69 778.31 C157.55 781.17 157.37 783.3 157.69 787.31 C157.55 790.43 157.14 793.48 156.69 796.56 C156.49 797.95 156.49 797.95 156.29 799.37 C148.56 851.02 135.06 907.27 102.69 949.31 C101.58 950.78 101.58 950.78 100.44 952.27 C88.4 967.6 70.33 982.78 50.46 986.03 C17.42 989.39 -14.86 974.46 -43.31 959.31 C-43.91 959 -44.5 958.68 -45.12 958.35 C-58.62 951.1 -70.56 942.26 -82.06 932.17 C-82.59 931.7 -83.13 931.24 -83.67 930.76 C-84.8 929.76 -85.92 928.76 -87.04 927.75 C-98.82 917.28 -111.62 914.12 -127.02 914.05 C-135.11 914.7 -140.75 918.53 -146.2 924.32 C-158.28 938.98 -160.53 956.94 -159.07 975.33 C-153.8 1016.8 -129.31 1052.73 -101.31 1082.31 C-100.67 1082.99 -100.04 1083.67 -99.38 1084.38 C-95.3 1088.6 -90.82 1092.26 -86.25 1095.94 C-83.35 1098.28 -80.52 1100.7 -77.69 1103.12 C-32.79 1140.45 20.97 1151.89 76.88 1162.69 C77.97 1162.9 79.06 1163.11 80.18 1163.33 C98.68 1166.89 117.17 1170.35 136 1171.5 C137.26 1171.58 138.51 1171.66 139.81 1171.74 C167.23 1173.31 194.72 1173.15 221.7 1167.65 C231.59 1165.66 239.34 1166.05 249.13 1168.48 C263.49 1171.84 277.93 1171.65 292.61 1171.63 C296.48 1171.63 300.35 1171.65 304.22 1171.67 C317.69 1171.71 330.52 1171.23 343.69 1168.31 C345.1 1168.02 345.1 1168.02 346.53 1167.73 C348.75 1167.25 350.94 1166.71 353.12 1166.12 C353.9 1165.92 354.67 1165.71 355.47 1165.5 C395.48 1154.25 427.03 1128.52 447.43 1092.56 C460.33 1069.11 467.51 1043.85 470.69 1017.31 C470.78 1016.57 470.88 1015.82 470.97 1015.06 C474.64 981.65 471.32 947.3 466.13 914.27 C465.94 913.06 465.94 913.06 465.75 911.83 C462.47 891.1 458.41 870.52 454.34 849.92 C449.64 826.14 444.96 802.35 440.77 778.47 C440.63 777.66 440.49 776.86 440.34 776.03 C436.28 752.95 433.08 729.78 432.69 706.31 C432.67 705.48 432.65 704.66 432.63 703.8 C431.48 655 440.85 595.46 475.63 558.23 C492.97 541.5 515.93 541.4 538.53 541.1 C539.56 541.09 540.59 541.07 541.65 541.06 C545.91 541 550.17 540.95 554.43 540.91 C557.59 540.88 560.75 540.84 563.91 540.79 C564.86 540.79 565.81 540.78 566.79 540.78 C573.73 540.65 580.71 539.98 586.06 535.19 C589.79 528.59 591.72 521.91 590.69 514.31 C588.5 508 583.91 504.26 578.06 501.4 C576.75 500.81 575.44 500.24 574.12 499.69 C573.43 499.39 572.73 499.09 572.01 498.78 C562.23 494.73 552.24 492.82 541.69 492.31 C540.53 492.25 540.53 492.25 539.34 492.19 C535.7 492.09 532.09 492.3 528.45 492.45 Z M72.11 718.66 C71.07 719.7 70.03 720.76 69 721.81 C68.45 722.36 67.91 722.92 67.35 723.48 C64.53 726.35 61.8 729.26 59.19 732.31 C52.1 740.62 44.11 748.36 35.69 755.31 C35.17 755.75 34.65 756.18 34.11 756.62 C19.36 768.89 4.17 780.67 -15.31 783.44 C-16.35 783.6 -17.39 783.75 -18.46 783.92 C-29.79 785.55 -41.2 786.47 -52.61 787.36 C-53.34 787.42 -54.07 787.48 -54.82 787.54 C-56.82 787.69 -58.82 787.84 -60.82 787.99 C-64.02 788.29 -67.15 788.74 -70.31 789.31 C-70.31 789.64 -70.31 789.97 -70.31 790.31 C-29.07 797.65 15.7 799.82 51.96 775.52 C67.7 764.49 71.23 750.38 74.69 732.31 C75.56 727 76.18 721.67 76.69 716.31 C74.35 716.09 74.35 716.09 72.11 718.66 Z M-277.31 771.31 C-283.65 782.65 -281.65 796.53 -278.43 808.65 C-275.57 818.22 -275.57 818.22 -268.6 824.93 C-261.66 828.51 -255.26 831.69 -247.31 831.31 C-246.98 829.66 -246.65 828.01 -246.31 826.31 C-247.56 825.98 -247.56 825.98 -248.84 825.65 C-263.19 821.6 -263.19 821.6 -268.31 816.31 C-268.31 814.99 -268.31 813.67 -268.31 812.31 C-263.7 812.61 -260.78 813.47 -256.81 815.88 C-252.66 818.35 -250.09 818.82 -245.31 818.31 C-245.11 814.36 -244.97 811.31 -246.25 807.56 C-248.77 804.82 -251.08 803.93 -254.49 802.54 C-258.02 801 -261.38 799.24 -264.75 797.38 C-265.37 797.05 -265.98 796.73 -266.61 796.39 C-269.57 794.74 -271.16 793.61 -272.72 790.56 C-272.92 789.82 -273.11 789.08 -273.31 788.31 C-267.45 788.8 -263.22 790.56 -258.06 793.31 C-252.82 796.1 -252.82 796.1 -247.31 798.31 C-247.39 795.44 -247.39 795.44 -248.31 792.31 C-250.65 790.17 -250.65 790.17 -253.69 788.5 C-260.02 784.57 -265.62 780.1 -271.31 775.31 C-274 772.67 -274 772.67 -277.31 771.31 Z M-233.31 799.31 C-233.33 800.28 -233.35 801.25 -233.37 802.25 C-233.45 805.86 -233.54 809.47 -233.63 813.08 C-233.67 814.64 -233.7 816.2 -233.73 817.76 C-233.78 820.01 -233.84 822.26 -233.9 824.51 C-233.92 825.54 -233.92 825.54 -233.93 826.6 C-234.06 830.87 -234.88 834.32 -236.31 838.31 C-236.31 846.13 -231.69 852.37 -226.94 858.25 C-225.31 860.31 -225.31 860.31 -225.31 863.31 C-230.35 859.83 -232.64 855.56 -235.36 850.27 C-236.7 847.77 -237.87 845.67 -240.11 843.89 C-243.3 843.05 -246.27 843.13 -249.56 843.19 C-250.83 843.21 -252.09 843.22 -253.39 843.24 C-254.35 843.27 -255.32 843.29 -256.31 843.31 C-251.48 857.16 -243.87 868.57 -231 876.12 C-225.86 878.52 -220.48 879.29 -214.94 880.25 C-200.04 882.85 -190.85 888.81 -180.31 899.31 C-176.37 895.58 -176.37 895.58 -175 890.5 C-175.4 886.46 -176.59 885.29 -179.31 882.31 C-181.4 880.69 -183.48 879.15 -185.62 877.62 C-199.58 867.18 -203.02 853.14 -206.54 836.77 C-207.42 833.98 -208.25 832.39 -210.31 830.31 C-213.02 829.19 -213.02 829.19 -216 828.56 C-216.99 828.32 -217.99 828.08 -219.01 827.83 C-219.77 827.66 -220.53 827.49 -221.31 827.31 C-221.06 834.77 -218.71 840.51 -215.59 847.18 C-214.31 850.31 -214.31 850.31 -214.31 854.31 C-214.97 854.31 -215.63 854.31 -216.31 854.31 C-220.44 844.3 -223.54 833.89 -226.32 823.43 C-227.23 820.25 -227.23 820.25 -228.92 817.3 C-230.49 813.93 -230.6 811.8 -230.44 808.12 C-230.31 804.73 -230.23 802.56 -231.31 799.31 C-231.97 799.31 -232.63 799.31 -233.31 799.31 Z M-218.31 803.31 C-218.86 809.25 -218.86 809.25 -216.88 814.69 C-211.03 818.4 -205.17 819.75 -198.31 819.31 C-199.1 812.57 -199.1 812.57 -202.38 806.81 C-207.52 804.18 -212.56 803.31 -218.31 803.31 Z M-186.31 814.31 C-186.36 814.92 -186.41 815.52 -186.46 816.14 C-186.54 816.94 -186.61 817.74 -186.69 818.56 C-186.76 819.35 -186.83 820.14 -186.9 820.95 C-187.86 826.46 -190.14 828.14 -194.31 832.31 C-182.43 833.8 -182.43 833.8 -170.31 835.31 C-172.25 831.43 -174.54 828.21 -177.19 824.81 C-177.62 824.24 -178.06 823.68 -178.5 823.09 C-180.93 819.95 -183.43 817.04 -186.31 814.31 Z M-177.31 1097.31 C-177.93 1097.86 -178.55 1098.41 -179.19 1098.98 C-185.84 1105.26 -189.82 1111.06 -190.31 1120.31 C-185.52 1123.07 -181.73 1123.85 -176.31 1124.31 C-176.1 1123.68 -175.9 1123.05 -175.68 1122.41 C-172.93 1114.75 -169.16 1108.88 -162.31 1104.31 C-160.99 1104.31 -159.67 1104.31 -158.31 1104.31 C-157.94 1106.5 -157.94 1106.5 -158.31 1109.31 C-159.73 1110.5 -161.16 1111.68 -162.64 1112.79 C-165.75 1115.62 -167.9 1119.38 -169.31 1123.31 C-168.9 1125.42 -168.9 1125.42 -168.31 1127.31 C-131.54 1132.45 -94.41 1133.68 -57.31 1133.31 C-79.78 1108.97 -121.29 1092.53 -153.94 1089.38 C-163.78 1089.01 -169.92 1090.74 -177.31 1097.31 Z " fill="#000000" transform="translate(436.3125,35.6875)"/>
<path d="M0 0 C0.86 -0.01 1.71 -0.01 2.6 -0.02 C4.4 -0.03 6.21 -0.03 8.01 -0.04 C10.72 -0.05 13.42 -0.08 16.12 -0.11 C49.29 -0.31 80.47 10.91 106.75 31.2 C108.21 32.32 108.21 32.32 109.71 33.47 C112.45 35.65 115.11 37.9 117.75 40.2 C118.26 40.64 118.76 41.08 119.28 41.53 C157.04 74.52 173.3 118.44 177.44 167.52 C179.88 210.16 171.92 257.06 142.75 290.2 C92.65 344.67 -4.6 387.17 -79.25 391.2 C-87.69 391.43 -95.93 391.03 -104.31 390.02 C-105.42 389.88 -106.53 389.75 -107.67 389.61 C-160.39 383.01 -228.06 366.73 -264.25 324.2 C-270.03 316.31 -273.72 307.88 -277.12 298.77 C-277.51 297.76 -277.51 297.76 -277.9 296.73 C-300.79 236.34 -322.92 160.29 -295.25 98.2 C-287.02 80.14 -272.84 66.53 -254.25 59.2 C-233.56 51.91 -210.88 49.27 -189.12 52.39 C-187.73 52.58 -187.73 52.58 -186.31 52.78 C-178.91 53.85 -171.62 55.34 -164.31 56.89 C-145.99 60.71 -129.6 60.45 -113.25 50.2 C-110 47.66 -106.9 45 -103.8 42.27 C-74.74 16.82 -39.1 0.21 0 0 Z M-100.21 48.06 C-112.45 58.1 -125.39 66.8 -141.75 66.77 C-142.66 66.77 -143.58 66.77 -144.52 66.77 C-157.77 66.48 -170.83 63.51 -183.78 60.87 C-211.63 55.54 -243.15 58.3 -267.25 74.2 C-286.35 88.79 -295.67 110.74 -298.84 134.03 C-299.76 142.4 -299.64 150.85 -299.62 159.27 C-299.62 160.23 -299.62 161.2 -299.62 162.2 C-299.52 203.3 -288.94 242.26 -276.12 281.08 C-275.73 282.28 -275.33 283.49 -274.93 284.73 C-270.57 297.7 -265.91 309.44 -257.25 320.2 C-256.8 320.81 -256.36 321.42 -255.9 322.05 C-246.03 334.86 -230.21 342.79 -216.25 350.2 C-215.56 350.58 -214.86 350.95 -214.15 351.33 C-185.12 366.65 -151.28 375.22 -119.25 381.2 C-117.38 381.57 -117.38 381.57 -115.47 381.95 C-44.88 393.83 48.42 353.43 105.75 314.2 C140.95 288.98 160.66 254.94 168.36 212.66 C169.36 206.32 169.91 200.19 169.92 193.78 C169.92 193 169.93 192.22 169.93 191.41 C169.94 188.9 169.94 186.4 169.94 183.89 C169.94 183.03 169.94 182.18 169.93 181.3 C169.86 148.98 164.57 117.78 148.75 89.2 C148.21 88.23 148.21 88.23 147.66 87.23 C142.78 78.52 137.37 70.71 130.75 63.2 C129.98 62.33 129.22 61.45 128.43 60.55 C126.23 58.07 124 55.63 121.75 53.2 C121.21 52.61 120.67 52.02 120.12 51.41 C96.35 26.33 59.09 8.39 24.48 7.08 C20.53 7 16.58 6.96 12.62 6.95 C11.56 6.95 11.56 6.95 10.48 6.95 C-32.51 7.02 -67.2 20.97 -100.21 48.06 Z " fill="#000000" transform="translate(525.25,241.796875)"/>
<path d="M0 0 C2.62 2.32 3.94 3.95 4.4 7.45 C4.21 8.5 4.21 8.5 4.02 9.57 C-0.17 12.08 -4.83 12.54 -9.58 13.25 C-13.53 13.93 -13.53 13.93 -16.6 16.34 C-18.05 18.69 -18.73 20.61 -19.36 23.29 C-19.58 24.19 -19.8 25.1 -20.02 26.03 C-24.37 45.71 -22.13 60.98 -17.98 80.57 C-2.76 76.3 11.65 71.14 26.02 64.57 C27.52 63.91 29.02 63.24 30.52 62.57 C52.56 52.63 75.55 40.36 86.15 17.63 C87.68 14.47 88.61 12.79 91.76 11.13 C92.51 10.95 93.25 10.76 94.02 10.57 C96.94 13 96.94 13 97.31 15.48 C96.13 26.86 88.63 34.61 81.02 42.57 C80.51 43.17 79.99 43.76 79.45 44.37 C55.76 70.42 6.29 90.72 -28.04 92.76 C-43.28 93.31 -58.6 93.18 -72.98 87.57 C-73.98 86.57 -73.98 86.57 -74.1 83.57 C-73.98 80.57 -73.98 80.57 -72.98 79.57 C-66.94 78.99 -60.95 79.77 -54.98 80.57 C-46.01 81.78 -37.92 81.75 -28.98 80.57 C-29.71 76.78 -30.47 72.99 -31.23 69.2 C-31.43 68.14 -31.64 67.08 -31.85 65.98 C-33.79 56.37 -35.53 47.87 -43.49 41.64 C-47.41 38.39 -50.88 34.68 -54.41 31.02 C-58.18 27.04 -58.18 27.04 -62.98 24.57 C-66.72 24.87 -70.19 25.4 -73.85 26.2 C-75.98 26.57 -75.98 26.57 -77.98 25.57 C-79.29 22.15 -78.98 20.59 -77.79 17.07 C-71.65 5.22 -59.14 0.49 -46.91 -3.4 C-32.66 -7.07 -12.47 -9 0 0 Z M-55.98 7.57 C-57.3 9.59 -57.3 9.59 -57.98 11.57 C-56.3 13.25 -54.28 12.79 -51.98 12.82 C-46.66 12.78 -41.72 12.11 -36.98 9.57 C-36.32 8.58 -35.66 7.59 -34.98 6.57 C-41.05 2.53 -49.68 4.44 -55.98 7.57 Z " fill="#000000" transform="translate(470.9765625,496.42578125)"/>
<path d="M0 0 C5.98 6.25 9.46 13.6 12.75 21.5 C13.13 22.41 13.52 23.33 13.91 24.27 C18.13 36.74 17.32 52.69 11.75 64.5 C11.28 65.55 10.8 66.61 10.31 67.69 C2.49 83.62 -9.71 94.49 -26.37 100.55 C-40.23 105.1 -57.7 104.45 -70.93 98.27 C-85.45 90.53 -96.66 79.06 -102.4 63.41 C-107.27 46.69 -107.98 30.07 -99.64 14.33 C-92.08 0.7 -81.28 -10.41 -66.25 -15.5 C-61.95 -16.69 -57.63 -17.65 -53.25 -18.5 C-52.49 -18.66 -51.73 -18.81 -50.95 -18.98 C-31.78 -22.09 -13.75 -12.51 0 0 Z M-75.25 0.5 C-75.98 1.01 -76.72 1.51 -77.48 2.04 C-88.23 10.44 -94.57 24.17 -96.25 37.5 C-97.7 49.92 -93.73 63.17 -86.31 73.09 C-77.64 83.39 -65.74 90.77 -52.25 92.5 C-34.49 93.76 -22.71 89.8 -9.06 78.25 C0.17 69.68 4.45 59.78 5.07 47.3 C5.5 32.71 3.67 22.32 -5.25 10.5 C-5.69 9.88 -6.13 9.27 -6.58 8.63 C-13.08 0.21 -24.76 -6.51 -35.25 -8.5 C-49.31 -9.5 -63.43 -7.86 -75.25 0.5 Z " fill="#000000" transform="translate(586.25,382.5)"/>
<path d="M0 0 C11.08 6.95 17.58 15.77 22.55 27.66 C23.1 28.93 23.1 28.93 23.65 30.23 C28.59 44.51 26.92 62.16 20.55 75.66 C13.65 89.12 0.57 96.98 -13.45 101.66 C-24.82 102.68 -35.86 102.2 -46.45 97.66 C-47.24 97.33 -48.03 97 -48.85 96.66 C-60.32 91.14 -67.3 81.32 -72.69 70.23 C-73.92 67.73 -75.16 65.45 -76.61 63.08 C-81.97 53.11 -80.63 36.96 -77.48 26.39 C-73.06 14.69 -65.06 3.19 -53.76 -2.76 C-52.85 -3.16 -51.94 -3.56 -51.01 -3.97 C-50.1 -4.37 -49.2 -4.78 -48.26 -5.2 C-32.05 -11.8 -14.99 -8.24 0 0 Z M-62.45 18.66 C-69.92 29.13 -70.6 44.22 -69.45 56.66 C-67.73 64.28 -63.42 69.8 -58.45 75.66 C-57.92 76.36 -57.4 77.06 -56.86 77.79 C-51.06 85.24 -42.26 89.79 -32.98 91.41 C-20.49 92.64 -10.11 91.95 0.3 84.53 C9.97 76.39 14.84 65.63 16.43 53.22 C17.16 39.74 13.08 27.33 4.74 16.72 C-3.77 7.78 -15.53 1.75 -27.95 1.34 C-41.89 1.51 -53.65 8.21 -62.45 18.66 Z " fill="#000000" transform="translate(345.4453125,429.34375)"/>
<path d="M0 0 C7.69 2.76 14.6 8.12 18.47 15.39 C22.27 24.26 23.18 32.48 20.13 41.77 C16.37 50.77 10.84 56.3 2.04 60.39 C-6.55 63.76 -14.81 63.17 -23.29 59.79 C-30.63 55.95 -37.1 49.71 -39.86 41.82 C-43.52 29.5 -43.52 29.5 -40.96 24.39 C-37.44 24.81 -34.3 25.26 -30.96 26.51 C-26.44 27.83 -22.82 27.27 -18.59 25.26 C-16.07 22.35 -16.03 20.21 -15.96 16.39 C-16.73 13.29 -17.8 10.36 -18.96 7.39 C-19.29 6.4 -19.62 5.41 -19.96 4.39 C-20.62 4.39 -21.28 4.39 -21.96 4.39 C-21.59 2.45 -21.59 2.45 -20.96 0.39 C-15.42 -2.39 -5.97 -1.24 0 0 Z " fill="#000000" transform="translate(559.96484375,395.61328125)"/>
<path d="M0 0 C8.12 5.88 13.36 12.04 15 22 C15.83 30.01 15.5 36.04 10.84 42.77 C6.52 47.99 1.89 52.81 -5 54 C-14.12 54.83 -21.85 53.95 -29.26 48.27 C-34.48 43.44 -38.51 37.9 -39.23 30.65 C-39.25 28.77 -39.14 26.88 -39 25 C-38.11 25.02 -37.22 25.05 -36.3 25.07 C-35.13 25.09 -33.96 25.11 -32.75 25.12 C-31.59 25.15 -30.43 25.17 -29.23 25.2 C-26.15 25.01 -24.52 24.72 -22 23 C-20.39 19.79 -20.53 16.49 -21 13 C-23.08 9.06 -25.25 6.41 -29 4 C-28 1 -28 1 -25.78 -0.17 C-16.68 -3.44 -8.91 -4.64 0 0 Z " fill="#000000" transform="translate(340,452)"/>
<path d="M0 0 C7.88 4.63 15.34 10.62 19.06 19.19 C19.38 22.19 19.38 22.19 19.06 24.19 C13.23 23.8 8.76 21.86 3.52 19.34 C0.08 17.72 -2.53 17.07 -6.28 17.11 C-7.16 17.11 -8.03 17.12 -8.93 17.13 C-10.35 17.14 -10.35 17.14 -11.79 17.16 C-13.8 17.17 -15.8 17.19 -17.81 17.2 C-20.96 17.22 -24.12 17.25 -27.27 17.28 C-30.32 17.31 -33.37 17.33 -36.42 17.35 C-37.35 17.36 -38.29 17.37 -39.25 17.39 C-44.83 17.41 -49.59 16.84 -54.94 15.19 C-56.56 13.56 -56.22 11.8 -56.31 9.56 C-56.24 5.04 -55.61 2.17 -52.64 -1.27 C-38.15 -14.36 -15.54 -7.87 0 0 Z " fill="#000000" transform="translate(566.9375,326.8125)"/>
<path d="M0 0 C3.1 2.14 4.83 4.03 6.84 7.27 C6.91 10.85 6.46 12.51 4.17 15.27 C1.41 17.63 -1.14 18.74 -4.51 20.07 C-5.12 20.32 -5.74 20.56 -6.37 20.82 C-8.32 21.6 -10.27 22.37 -12.23 23.14 C-29.31 29.69 -29.31 29.69 -44.04 40.27 C-44.94 41.12 -45.84 41.97 -46.77 42.85 C-49.44 45.54 -51.87 48.26 -54.16 51.27 C-57.16 49.27 -57.16 49.27 -57.63 47.09 C-57.78 34.09 -51.8 23.69 -43.16 14.27 C-36.38 7.94 -28.73 2.85 -20.16 -0.73 C-19.13 -1.17 -18.1 -1.6 -17.04 -2.05 C-10.55 -3.6 -5.78 -3.24 0 0 Z " fill="#000000" transform="translate(305.1640625,382.734375)"/>
<path d="M0 0 C2.06 1.66 3.45 3.39 4.95 5.56 C2.34 4.54 -0.23 3.48 -2.78 2.34 C-3.74 1.92 -4.69 1.5 -5.68 1.06 C-6.62 0.64 -7.56 0.22 -8.53 -0.22 C-32.16 -8.39 -59.35 -3.6 -81.81 5.96 C-86.64 8.35 -90.84 11.23 -95.05 14.56 C-96.11 15.31 -97.16 16.05 -98.24 16.81 C-109.56 27.88 -112.45 41.6 -112.73 56.85 C-112.75 57.67 -112.76 58.5 -112.78 59.35 C-112.79 60.09 -112.79 60.83 -112.8 61.59 C-113.05 63.56 -113.05 63.56 -115.05 66.56 C-120.58 54.05 -118.76 40.01 -114.05 27.56 C-107.51 12.25 -94.41 2.21 -79.28 -3.99 C-53 -14.03 -24.28 -16.01 0 0 Z " fill="#000000" transform="translate(896.0546875,249.4375)"/>
<path d="M0 0 C0.92 0 1.84 0.01 2.79 0.01 C11.51 0.14 20.01 1.09 27.81 5.31 C27.94 7.69 27.94 7.69 27.81 10.31 C27.15 10.97 26.49 11.63 25.81 12.31 C23.11 12.01 20.87 11.34 18.36 10.29 C2.93 6.05 -14.08 9 -28 16.19 C-32.11 18.53 -35.82 21.17 -39.43 24.21 C-41.19 25.31 -41.19 25.31 -45.19 25.31 C-46 23.69 -46 23.69 -46.19 21.31 C-39.17 10.43 -24.62 3.55 -12.38 0.69 C-8.26 -0.01 -4.17 -0.03 0 0 Z " fill="#000000" transform="translate(436.1875,465.6875)"/>
<path d="M0 0 C0.5 2.48 0.5 2.48 1 5 C-11.2 11.48 -24.67 17.57 -38.81 14.06 C-39.86 13.71 -40.92 13.36 -42 13 C-42.04 11.33 -42.04 9.67 -42 8 C-40.09 6.09 -37.26 6.83 -34.71 6.76 C-24.59 6.48 -16.64 5.03 -7.62 0.19 C-4.57 -1.2 -3.14 -1.02 0 0 Z " fill="#000000" transform="translate(484,600)"/>
</svg>
