<?xml version="1.0" encoding="UTF-8"?>
<!-- Generator: visioncortex VTracer 0.6.3 -->
<svg version="1.1" xmlns="http://www.w3.org/2000/svg" width="1280" height="1280">
<path d="M0 0 C11.56 8.42 23.92 12.53 37.56 16.15 C39.13 16.58 40.71 17 42.28 17.43 C54.06 20.63 65.87 23.7 77.7 26.67 C83.44 28.13 89.08 29.67 94.68 31.61 C97.27 32.47 99.9 33.12 102.56 33.76 C117.12 37.28 131.44 41.7 145.63 46.5 C147.15 47.01 148.66 47.51 150.17 48.02 C171.4 55.09 186.99 64.08 197.32 84.52 C198.96 88.06 200.45 91.57 201.68 95.27 C206.13 97.84 211.06 97.8 216.06 98.02 C216.97 98.06 217.89 98.11 218.83 98.15 C244.17 98.98 272.22 95.99 291.68 78.27 C303.93 65.48 307.1 52.48 307.06 35.21 C307.06 34.52 307.06 33.83 307.06 33.11 C307.05 22.92 306.37 13.84 302.68 4.27 C301.17 0.03 300.47 -3.2 300.68 -7.73 C302.68 -8.73 302.68 -8.73 306.12 -7.73 C327.24 0.74 342.77 17.92 353.68 37.27 C354.09 37.98 354.5 38.68 354.92 39.41 C367.24 62.1 367.12 94.37 359.98 118.66 C355.26 134.02 349.23 148.96 338.68 161.27 C337.37 162.96 336.06 164.65 334.75 166.34 C325.39 177.9 313.86 187.3 300.68 194.27 C300.02 194.27 299.36 194.27 298.68 194.27 C298.68 194.93 298.68 195.59 298.68 196.27 C299.37 196.51 300.06 196.75 300.77 197 C317.35 204.25 330.09 219.45 339.68 234.27 C340.1 234.9 340.52 235.53 340.96 236.18 C342.15 239.63 342.47 242.73 341.68 246.27 C339.91 249.17 337.67 251.41 335.25 253.77 C334.61 254.43 333.96 255.08 333.3 255.75 C331.45 257.62 329.58 259.45 327.68 261.27 C326.39 262.53 326.39 262.53 325.07 263.81 C303.26 283.95 275.38 289.57 246.68 290.27 C247.01 291.26 247.34 292.25 247.68 293.27 C248.67 293.6 249.66 293.93 250.68 294.27 C252.68 297.02 252.68 297.02 254.68 300.27 C255.26 301.18 255.84 302.09 256.43 303.02 C257.68 305.27 257.68 305.27 257.68 307.27 C258.34 307.27 259 307.27 259.68 307.27 C267.58 323.36 273.9 338.48 276.68 356.27 C276.87 357.42 277.05 358.57 277.25 359.75 C278.73 371.71 279.21 388.22 273.68 399.27 C273.22 403.13 273.68 405.54 275.54 408.86 C277.94 413.5 279.18 418.2 280.37 423.27 C280.58 424.12 280.8 424.98 281.01 425.85 C283.63 436.6 283.92 447.08 283.93 458.09 C283.94 458.87 283.94 459.65 283.94 460.46 C283.94 471.65 283.29 482.29 281.06 493.28 C279.87 499.54 279.32 505.93 278.68 512.27 C278.59 513.22 278.49 514.17 278.39 515.14 C276.71 532 275.8 548.36 279.34 565.03 C279.85 568.33 279.4 571.03 278.68 574.27 C273.81 574.62 270.91 573.69 266.68 571.27 C266.68 570.61 266.68 569.95 266.68 569.27 C266.11 569.16 265.53 569.05 264.94 568.93 C262.47 568.21 260.75 567.19 258.62 565.77 C256.23 564.19 254.44 563.19 251.68 562.27 C251.85 563.14 252.01 564 252.18 564.89 C257.26 598.81 247.66 644.01 227.43 672.09 C225.46 674.62 223.38 676.52 220.68 678.27 C217.9 678.14 216.23 677.61 213.87 676.15 C212.04 673.26 212.5 670.6 212.68 667.27 C209.27 670.49 206.62 674.26 203.82 678 C201.68 680.27 201.68 680.27 199.11 680.96 C196.08 682.6 196.02 683.46 195.03 686.69 C194.55 688.54 194.11 690.41 193.68 692.27 C193.47 693.19 193.26 694.11 193.04 695.05 C192.39 697.91 191.78 700.78 191.18 703.65 C190.75 705.68 190.32 707.71 189.88 709.74 C189.67 710.7 189.47 711.66 189.25 712.64 C187.73 719.67 186.03 726.37 183.49 733.1 C182.27 736.4 181.14 739.73 180.02 743.06 C179.66 744.12 179.66 744.12 179.3 745.2 C178.8 746.69 178.31 748.17 177.81 749.65 C177.06 751.9 176.3 754.15 175.54 756.41 C175.05 757.85 174.57 759.3 174.08 760.75 C173.86 761.42 173.63 762.08 173.4 762.77 C170.93 770.2 170.18 774.19 173.56 781.4 C177 788.8 177.91 794.4 178 802.52 C178.03 803.44 178.05 804.36 178.08 805.3 C178.15 812.51 176.75 817.79 171.94 823.26 C170.2 824.62 168.47 825.98 166.68 827.27 C165.94 827.83 165.2 828.39 164.43 828.96 C141.84 839.74 103.45 838.7 80.01 831.32 C72.55 827.96 65.48 823.12 62.5 815.34 C58.26 802.96 60.99 790.88 66.43 779.34 C71.01 768.72 67.18 756.43 65.12 745.46 C64.89 744.18 64.65 742.91 64.41 741.59 C63.84 738.48 63.27 735.38 62.68 732.27 C61.76 732.91 60.84 733.55 59.89 734.21 C48.33 742.17 36.84 748.8 23.19 752.5 C15.16 754.74 11.11 758.37 7.06 765.34 C2.37 773.27 2.37 773.27 -1.32 775.27 C-6.33 775.35 -8.28 775.26 -11.94 771.77 C-13.29 769.92 -14.48 768.01 -15.67 766.05 C-21.72 756.33 -28.12 754.22 -38.96 751.5 C-48.48 748.95 -56.82 744.16 -65.32 739.27 C-66.32 738.72 -67.32 738.16 -68.36 737.59 C-69.01 737.16 -69.65 736.72 -70.32 736.27 C-70.32 735.61 -70.32 734.95 -70.32 734.27 C-70.94 733.96 -71.55 733.65 -72.19 733.34 C-73.57 732.65 -74.94 731.96 -76.32 731.27 C-76.5 732.49 -76.68 733.71 -76.87 734.97 C-79.14 749.93 -79.14 749.93 -81 757.27 C-83.48 767.81 -82.82 774.51 -77.82 784.23 C-74.71 790.51 -73.95 795.74 -73.94 802.65 C-73.92 803.46 -73.89 804.27 -73.87 805.11 C-73.83 812.06 -75.64 817.15 -80.18 822.45 C-100.71 839.59 -131.37 836.5 -156.43 834.26 C-169.97 832.84 -180.23 828.88 -189.07 818.15 C-193.63 811.3 -192.08 798.86 -190.79 791.08 C-189.47 786.52 -187.53 782.42 -185.09 778.36 C-182.56 771.53 -185.47 765.32 -187.94 758.96 C-188.68 756.98 -189.42 755 -190.16 753.02 C-190.53 752.04 -190.9 751.06 -191.28 750.05 C-195.51 738.73 -198.92 727.29 -201.94 715.59 C-202.39 713.84 -202.39 713.84 -202.86 712.05 C-204.09 707.24 -205.31 702.43 -206.33 697.56 C-208.35 688.5 -211.67 683.65 -218.32 677.27 C-219.85 675.58 -221.37 673.87 -222.88 672.15 C-223.54 671.4 -224.2 670.66 -224.88 669.89 C-225.36 669.36 -225.83 668.82 -226.32 668.27 C-227.43 670.49 -228.52 672.71 -229.57 674.96 C-231.32 677.27 -231.32 677.27 -234.07 678.59 C-238.62 678.15 -239.72 675.99 -242.56 672.6 C-245.26 669.03 -247.35 665.26 -249.38 661.27 C-249.81 660.44 -250.23 659.61 -250.67 658.76 C-263.87 632.56 -268.57 604.18 -268.38 575.02 C-268.37 573.68 -268.37 572.34 -268.37 571 C-268.35 567.76 -268.34 564.51 -268.32 561.27 C-270.2 562.37 -272.09 563.46 -273.98 564.56 C-275.55 565.47 -275.55 565.47 -277.16 566.41 C-280.85 568.59 -284.46 570.88 -288.06 573.21 C-290.68 574.45 -292.45 574.55 -295.32 574.27 C-296.32 573.27 -296.32 573.27 -296.5 570.09 C-296.47 566.27 -295.93 562.66 -295.32 558.9 C-294.03 550.32 -294.08 541.92 -294.32 533.27 C-294.33 532.57 -294.34 531.86 -294.36 531.13 C-294.71 515.69 -297.31 500.48 -300.02 485.3 C-302.98 467.13 -303.09 447.11 -298.32 429.27 C-298 428.05 -297.69 426.82 -297.37 425.56 C-295.92 420.2 -294.3 415.1 -292.07 410.02 C-289.71 404.41 -289.53 398.89 -290.82 392.95 C-291.32 390.27 -291.45 387.83 -291.45 385.11 C-291.45 384.13 -291.45 383.15 -291.45 382.15 C-291.45 381.14 -291.45 380.13 -291.44 379.09 C-291.45 378.1 -291.45 377.1 -291.45 376.08 C-291.41 344.06 -277.87 315.07 -258.32 290.27 C-259.01 290.23 -259.7 290.19 -260.42 290.15 C-279.26 289.03 -297.09 287.57 -314.32 279.27 C-316.08 278.45 -316.08 278.45 -317.88 277.61 C-324.55 274.44 -330.7 271.1 -336.32 266.27 C-337.52 265.25 -337.52 265.25 -338.74 264.21 C-355.9 249.21 -355.9 249.21 -356.62 242.4 C-355.44 230.16 -339.53 214.72 -330.52 207.03 C-327.88 204.93 -325.2 203.03 -322.32 201.27 C-320.86 200.36 -319.4 199.44 -317.94 198.52 C-316.73 197.77 -315.53 197.02 -314.32 196.27 C-314.89 195.94 -315.46 195.62 -316.05 195.28 C-321.3 192.2 -326.41 188.95 -331.44 185.52 C-332.02 185.13 -332.6 184.75 -333.2 184.35 C-334.61 183.37 -335.97 182.33 -337.32 181.27 C-337.32 180.61 -337.32 179.95 -337.32 179.27 C-338.06 179.02 -338.8 178.76 -339.57 178.5 C-346.86 175.24 -351.79 167.62 -356.32 161.27 C-357.29 159.97 -357.29 159.97 -358.29 158.64 C-378.56 131.43 -384.82 96.47 -380.07 63.21 C-377.04 46.15 -369.81 31.24 -358.32 18.27 C-357.75 17.57 -357.19 16.86 -356.61 16.13 C-351.7 10.07 -345.64 5.78 -339.32 1.27 C-338.62 0.75 -337.92 0.23 -337.2 -0.3 C-333.73 -2.87 -330.21 -4.87 -326.32 -6.73 C-325.99 -7.06 -325.66 -7.39 -325.32 -7.73 C-322.32 -7.85 -322.32 -7.85 -319.32 -7.73 C-318.82 -7.23 -318.82 -7.23 -318.32 -6.73 C-318.78 -0.91 -320.07 4.35 -321.82 9.9 C-326.56 25.13 -328.64 45.15 -322.32 60.27 C-321.35 61.96 -320.35 63.63 -319.32 65.27 C-318.59 66.57 -318.59 66.57 -317.84 67.89 C-309.6 81.88 -295.54 89.49 -280.32 94.27 C-277.36 94.97 -274.39 95.46 -271.38 95.9 C-270.56 96.02 -269.74 96.15 -268.89 96.28 C-243.89 100.57 -243.89 100.57 -220.32 95.27 C-219.09 93.59 -219.09 93.59 -218.25 91.59 C-217.75 90.51 -217.75 90.51 -217.24 89.41 C-216.44 87.57 -215.69 85.7 -214.94 83.84 C-212.86 79.28 -210.22 75.34 -207.32 71.27 C-206.59 70.26 -205.87 69.25 -205.13 68.21 C-185.47 45.53 -143.13 37.77 -115.5 30.09 C-110.71 28.74 -106.2 27.07 -101.61 25.14 C-98.68 24.03 -95.76 23.39 -92.7 22.77 C-89.87 22.18 -87.1 21.46 -84.32 20.71 C-83.39 20.46 -82.46 20.21 -81.5 19.96 C-79.36 19.47 -79.36 19.47 -78.32 18.27 C-79.33 17.96 -80.35 17.64 -81.39 17.32 C-89.73 14.73 -98.05 12.08 -106.32 9.27 C-106.65 7.62 -106.98 5.97 -107.32 4.27 C-77.82 -20.9 -31.04 -23.14 0 0 Z M-73.32 2.27 C-73.32 3.26 -73.32 4.25 -73.32 5.27 C-72.56 5.64 -71.8 6 -71.02 6.38 C-62.92 10.47 -62.92 10.47 -60.07 14.27 C-59.17 17.86 -59.14 19.75 -60.32 23.27 C-65.5 31.64 -74.35 33.13 -83.38 35.34 C-84.03 35.49 -84.68 35.64 -85.34 35.79 C-90.45 36.98 -95.36 38.56 -100.32 40.27 C-101.58 40.7 -102.85 41.13 -104.11 41.56 C-104.75 41.78 -105.38 41.99 -106.03 42.21 C-114.87 45.19 -123.77 47.97 -132.69 50.71 C-144.33 54.3 -155.89 58.04 -167.32 62.27 C-168.48 62.7 -169.65 63.13 -170.85 63.57 C-184.67 68.95 -195.77 77.81 -202.32 91.27 C-203.25 94.66 -203.25 94.66 -203.32 97.27 C-197.21 97.37 -191.37 97.05 -185.32 96.27 C-179.26 95.5 -173.42 95.18 -167.32 95.27 C-167.73 100.56 -168.6 103.45 -172.32 107.27 C-173.8 108.26 -173.8 108.26 -175.32 109.27 C-175.63 111.89 -175.74 114.22 -175.69 116.84 C-175.68 117.97 -175.68 117.97 -175.67 119.13 C-175.39 129.98 -174.22 152.37 -166.32 160.27 C-161.99 154.73 -158.15 149.01 -154.48 143.02 C-152.6 140.03 -151.3 138.26 -148.32 136.27 C-145.34 139.03 -143.41 141.65 -141.5 145.21 C-136.34 153.94 -128.68 156.96 -119.32 160.27 C-115.98 161.1 -112.94 161.39 -109.5 161.34 C-108.71 161.33 -107.92 161.32 -107.11 161.31 C-106.52 161.3 -105.93 161.29 -105.32 161.27 C-106.16 160.3 -107.01 159.33 -107.88 158.34 C-108.42 157.69 -108.97 157.05 -109.53 156.38 C-110.72 154.98 -111.92 153.6 -113.13 152.23 C-118.76 145.56 -121.78 138.41 -122.69 129.71 C-122.16 124.85 -121.29 120.07 -120.32 115.27 C-119.66 115.27 -119 115.27 -118.32 115.27 C-118.36 116.01 -118.41 116.75 -118.46 117.51 C-118.84 128.39 -116.36 136.83 -109.28 145.21 C-100.35 154.58 -89 159.78 -76.02 160.44 C-69.7 160.48 -63.87 160.23 -57.71 158.79 C-53.63 157.91 -49.48 157.61 -45.32 157.27 C-45.51 156.69 -45.7 156.11 -45.9 155.51 C-52.06 136.12 -53.25 114.84 -44.63 96.09 C-41.58 90.28 -37.38 83.3 -31.32 80.27 C-31.67 81.23 -32.02 82.18 -32.38 83.16 C-32.83 84.43 -33.29 85.69 -33.75 86.96 C-33.98 87.59 -34.21 88.21 -34.45 88.86 C-40.03 104.3 -38.01 122 -31.21 136.75 C-20.67 157.14 -1.58 172.96 20.06 180.46 C20.8 180.72 21.55 180.98 22.31 181.25 C27.46 183 32.22 184.07 37.68 184.27 C37 183.59 36.32 182.91 35.62 182.21 C35.16 181.74 34.7 181.28 34.23 180.8 C33.21 179.8 32.17 178.82 31.11 177.88 C21.61 169.15 14.23 157.25 13.38 144.27 C12.81 130.62 16.19 121.07 24.68 110.27 C25.44 109.29 26.2 108.3 26.99 107.28 C29.71 104.04 32.85 101.78 36.37 99.46 C36.95 99.07 37.53 98.67 38.13 98.27 C40.27 96.83 42.37 95.43 44.68 94.27 C43.29 97.32 41.61 99.74 39.5 102.34 C28.96 115.77 24.24 126.93 25.68 144.27 C26.47 148.12 27.49 151.2 30.49 153.9 C40.27 160.01 59.37 158.79 70.34 156.52 C72.94 155.61 75.27 154.6 77.68 153.27 C78.74 152.7 79.79 152.12 80.87 151.52 C88.4 145.5 94.22 139.61 96.43 130.02 C96.78 124.77 96.76 119.54 96.68 114.27 C100.84 118.8 101.82 124.5 101.8 130.46 C101.74 131.88 101.66 133.29 101.56 134.71 C101.51 135.45 101.46 136.2 101.41 136.96 C100.49 148.02 95.52 154.66 87.68 162.27 C101.68 161.85 115 159.72 125.39 149.61 C129.05 145.54 131.92 140.98 134.68 136.27 C136.45 136.37 136.45 136.37 138.68 137.27 C140.12 139.43 141.32 141.48 142.5 143.77 C147.74 154.48 147.74 154.48 156.68 161.27 C165.43 135.24 165.43 135.24 164.68 109.27 C162.74 107.8 160.9 107 158.63 106.12 C156.68 105.27 156.68 105.27 154.68 102.9 C153.53 99.86 153.46 97.5 153.68 94.27 C160.2 94.04 166.47 94.65 172.92 95.56 C176.88 96.11 180.69 96.37 184.68 96.27 C183.57 86.81 177.59 79.11 170.39 73.12 C164.88 69.36 158.83 66.82 152.68 64.27 C151.8 63.91 150.92 63.54 150.01 63.16 C143.23 60.54 136.21 58.66 129.22 56.7 C122.4 54.78 115.63 52.74 108.87 50.65 C100.98 48.22 93.09 46.01 85.06 44.1 C76.39 41.98 76.39 41.98 72.3 40.29 C69.69 39.27 67.2 38.63 64.46 38.05 C63.44 37.82 62.42 37.6 61.37 37.37 C59.73 37.01 59.73 37.01 58.06 36.65 C12.1 26.28 12.1 26.28 -6 12.96 C-27.09 -2.46 -48.72 -2.61 -73.32 2.27 Z M323.68 23.27 C323.66 23.84 323.64 24.41 323.62 24.99 C322.72 49.63 320.13 70.63 302.68 89.27 C299.22 92.37 295.65 94.88 291.68 97.27 C290.86 97.81 290.04 98.35 289.2 98.9 C283.02 102.83 276.5 105.63 269.68 108.27 C270.2 109.28 270.72 110.28 271.26 111.32 C281.41 131.13 286.92 149.51 286.75 171.84 C286.74 172.94 286.74 174.04 286.73 175.18 C286.72 177.88 286.7 180.58 286.68 183.27 C304.53 178.56 319.79 163.42 329.68 148.27 C329.68 147.61 329.68 146.95 329.68 146.27 C330.34 146.27 331 146.27 331.68 146.27 C338.63 133.01 345.68 119.29 347.68 104.27 C347.79 103.55 347.9 102.82 348.02 102.08 C350.99 78.66 347.87 54.26 334.68 34.27 C331.62 30.36 328.28 26.71 324.68 23.27 C324.35 23.27 324.02 23.27 323.68 23.27 Z M-344.92 25.86 C-353.81 35.66 -359.58 45.53 -363.32 58.27 C-363.5 58.88 -363.69 59.48 -363.88 60.11 C-365.82 67.29 -365.69 74.64 -365.69 82.03 C-365.69 84.31 -365.73 86.59 -365.77 88.87 C-365.88 103 -362.88 115.58 -357.44 128.65 C-357.09 129.5 -356.74 130.35 -356.38 131.23 C-348.63 149.69 -336.26 164.29 -319.82 175.59 C-319.21 176.01 -318.61 176.43 -317.98 176.86 C-313.34 179.95 -308.66 181.73 -303.32 183.27 C-303.33 182.47 -303.35 181.67 -303.36 180.85 C-303.87 150.96 -303.87 150.96 -300.32 139.27 C-299.96 138.12 -299.61 136.96 -299.25 135.77 C-296.73 128.19 -293.43 121.25 -289.67 114.23 C-288.04 111.21 -288.04 111.21 -288.32 107.27 C-288.98 107.05 -289.65 106.84 -290.34 106.61 C-310.35 99.72 -326.02 87.3 -335.48 68.18 C-340.34 57.18 -341.32 45.14 -341.88 33.27 C-341.92 32.4 -341.97 31.53 -342.01 30.64 C-342.11 28.52 -342.22 26.39 -342.32 24.27 C-343.57 24.16 -343.57 24.16 -344.92 25.86 Z M-279.32 110.27 C-292.44 125.7 -298.69 146.41 -298.82 166.4 C-298.82 167.35 -298.83 168.29 -298.84 169.27 C-298.73 175.2 -298.1 180.94 -295.32 186.27 C-292.04 188.53 -290.28 189.27 -286.32 189.27 C-286.53 188.65 -286.75 188.03 -286.97 187.39 C-291.46 172.48 -290.34 156.16 -286.32 141.27 C-286.05 140.26 -285.78 139.25 -285.51 138.21 C-283.28 130.77 -279.79 124.18 -276.02 117.43 C-274.25 114.38 -274.25 114.38 -273.32 111.27 C-276.29 110.78 -276.29 110.78 -279.32 110.27 Z M172.68 110.27 C172.36 112.41 172.04 114.54 171.72 116.67 C171.44 118.51 171.17 120.34 170.89 122.18 C170.12 127.22 169.44 132.27 168.81 137.34 C167.67 145.49 165.44 153.38 163.22 161.3 C162.68 163.28 162.18 165.27 161.68 167.27 C162.97 168.28 164.26 169.28 165.56 170.27 C166.28 170.83 167 171.39 167.74 171.96 C169.57 173.46 169.57 173.46 171.68 173.27 C177.26 158.58 182.07 144.18 185 128.71 C185.18 127.76 185.36 126.8 185.55 125.82 C185.72 124.92 185.88 124.01 186.05 123.08 C186.19 122.28 186.34 121.47 186.49 120.64 C186.71 117.92 186.5 115.88 185.68 113.27 C182.52 111.17 181.18 110.94 177.5 110.65 C176.6 110.57 175.69 110.5 174.77 110.42 C174.08 110.37 173.39 110.32 172.68 110.27 Z M-199.32 111.27 C-200.04 124.58 -196.41 137.5 -192.88 150.21 C-192.59 151.25 -192.3 152.29 -192.01 153.37 C-190.16 159.85 -187.95 166.07 -185.32 172.27 C-180.37 171.49 -177.86 169.9 -174.32 166.27 C-172.81 161.74 -173.57 159.54 -175.32 155.27 C-176.31 151.53 -177.09 147.75 -177.88 143.96 C-178.1 142.89 -178.33 141.83 -178.56 140.73 C-180.07 133.25 -180.92 126.04 -181.08 118.42 C-181.31 115.29 -181.98 113.09 -183.32 110.27 C-188.71 110.13 -193.97 110.68 -199.32 111.27 Z M256.68 112.27 C257.21 113.3 257.75 114.33 258.29 115.39 C266.77 131.94 272.24 147.12 272 165.96 C272 167.21 272 168.47 272.01 169.76 C271.97 176.57 271.47 182.69 269.68 189.27 C273.46 189.01 275.36 188.53 278.35 186.14 C281.18 182.66 281.32 181.03 281.31 176.6 C281.32 175.31 281.32 174.01 281.33 172.67 C281.3 171.29 281.28 169.91 281.25 168.52 C281.24 167.82 281.23 167.13 281.22 166.41 C280.98 147.6 277.24 125.6 263.68 111.27 C260.27 109.81 259.95 110.09 256.68 112.27 Z M-266.32 112.27 C-274.22 123.95 -279.77 135.35 -282.32 149.27 C-282.5 150.16 -282.69 151.04 -282.88 151.95 C-283.52 156.81 -283.54 161.63 -283.57 166.52 C-283.59 167.51 -283.61 168.5 -283.63 169.51 C-283.67 177.17 -282.9 184.27 -278.67 190.82 C-275.14 193 -271.71 193.16 -267.63 193.46 C-266.08 193.6 -264.54 193.74 -262.99 193.88 C-262.22 193.94 -261.44 194 -260.65 194.07 C-258.36 194.27 -256.08 194.54 -253.8 194.82 C-244.67 195.83 -235.79 194.99 -226.69 194.02 C-224.91 193.86 -224.91 193.86 -223.09 193.69 C-216.44 192.99 -211.81 192.12 -206.32 188.27 C-205.25 187.6 -204.18 186.93 -203.08 186.24 C-202.06 185.57 -201.05 184.9 -200 184.21 C-198.98 183.54 -197.95 182.87 -196.89 182.18 C-194.13 180.36 -194.13 180.36 -192.32 177.27 C-192 170.67 -194.43 164.35 -196.57 158.21 C-199.29 150.05 -201.46 141.89 -203.19 133.46 C-203.39 132.48 -203.6 131.49 -203.81 130.48 C-204.69 126.04 -205.43 121.64 -205.89 117.14 C-205.88 113.5 -205.88 113.5 -207.32 112.27 C-209.88 112.27 -212.42 112.33 -214.99 112.43 C-216.61 112.48 -218.23 112.54 -219.85 112.59 C-220.71 112.62 -221.56 112.65 -222.44 112.68 C-237.12 113.19 -251.65 113.42 -266.32 112.27 Z M195.68 112.27 C193.31 115.85 192.18 118.74 191.51 122.96 C191.32 124.06 191.14 125.17 190.95 126.3 C190.76 127.47 190.57 128.63 190.37 129.84 C187.7 145.15 184.09 159.94 177.47 174.06 C176.38 176.4 176.38 176.4 177.68 179.27 C179.32 180.56 179.32 180.56 181.36 181.65 C182.11 182.08 182.85 182.5 183.62 182.95 C184.8 183.6 184.8 183.6 186 184.27 C187.54 185.15 189.07 186.02 190.61 186.9 C191.64 187.47 191.64 187.47 192.68 188.06 C194.68 189.27 194.68 189.27 196.55 190.85 C204.49 196.16 218.71 194.59 228.03 194.53 C230.31 194.52 232.59 194.53 234.87 194.55 C248.8 195.19 248.8 195.19 261.45 191.03 C267.69 184.12 267.02 175.33 267 166.65 C267.01 165.44 267.03 164.23 267.04 162.99 C267.05 149.28 263.17 137.67 257.68 125.27 C257.13 123.99 257.13 123.99 256.57 122.68 C253.82 117.31 250.28 115.99 244.72 114.09 C239.98 112.82 235.44 112.67 230.55 112.66 C229.54 112.65 228.54 112.63 227.5 112.61 C224.33 112.57 221.16 112.54 218 112.52 C215.83 112.5 213.66 112.47 211.5 112.43 C206.23 112.36 200.96 112.31 195.68 112.27 Z M-149.32 161.27 C-150.27 162.67 -151.22 164.08 -152.12 165.51 C-157.4 173.29 -165.6 178.2 -173.32 183.27 C-173.88 183.65 -174.45 184.02 -175.03 184.41 C-180.4 187.94 -185.79 191.41 -191.36 194.63 C-192.03 195.02 -192.7 195.41 -193.39 195.81 C-194.67 196.55 -195.96 197.28 -197.26 198 C-201.72 200.59 -204.5 203.02 -207.32 207.27 C-209.08 216.59 -207.3 224.33 -202.32 232.27 C-201.2 234.2 -200.09 236.14 -199 238.09 C-198.49 238.96 -197.98 239.83 -197.45 240.73 C-196.2 243.54 -195.93 245.23 -196.32 248.27 C-197.45 249.95 -198.61 251.61 -199.83 253.22 C-205.36 260.88 -209.09 269.88 -212.94 278.46 C-218.18 290.07 -218.18 290.07 -220.51 294.64 C-222.08 297.75 -223.43 300.88 -224.63 304.15 C-224.98 305.07 -225.32 306 -225.68 306.95 C-226.59 309.27 -226.59 309.27 -225.32 311.27 C-224.99 310.28 -224.66 309.29 -224.32 308.27 C-221.63 307.15 -221.63 307.15 -218.32 306.27 C-216.89 305.84 -216.89 305.84 -215.44 305.4 C-210.97 305.22 -207.92 306.69 -204.32 309.27 C-200.13 314.54 -198.86 318.57 -199.32 325.27 C-200.44 328.52 -200.44 328.52 -202.32 331.27 C-203.24 331.68 -204.17 332.08 -205.12 332.5 C-209.24 334.79 -210.89 337.46 -213.32 341.4 C-214.18 342.76 -215.05 344.11 -215.92 345.47 C-216.54 346.46 -216.54 346.46 -217.17 347.46 C-218.62 349.75 -220.15 351.98 -221.69 354.21 C-225.65 360.16 -228.53 366.58 -231.38 373.12 C-232.2 375 -233.07 376.86 -233.94 378.71 C-236.97 386.56 -237.51 393.99 -237.57 402.34 C-237.58 403.17 -237.58 404.01 -237.59 404.88 C-237.56 411.72 -237.19 418.47 -233.32 424.27 C-233.06 423.68 -232.8 423.08 -232.54 422.47 C-225.65 407.55 -214.95 398.29 -200.32 391.27 C-199.99 391.6 -199.66 391.93 -199.32 392.27 C-199.97 392.89 -200.62 393.51 -201.29 394.14 C-206.7 399.38 -211.76 404.57 -215.32 411.27 C-215.32 411.93 -215.32 412.59 -215.32 413.27 C-215.98 413.27 -216.64 413.27 -217.32 413.27 C-220.28 418.23 -219.28 422.78 -218.32 428.27 C-214.29 444.11 -205.88 460.61 -192.32 470.27 C-189.54 471.71 -189.54 471.71 -187.32 472.27 C-187.32 472.93 -187.32 473.59 -187.32 474.27 C-184.2 475.97 -181.07 477.66 -177.94 479.34 C-177.05 479.82 -176.16 480.31 -175.25 480.81 C-173.97 481.49 -173.97 481.49 -172.67 482.18 C-171.88 482.61 -171.1 483.03 -170.29 483.47 C-169.64 483.73 -168.99 484 -168.32 484.27 C-167.66 483.94 -167 483.61 -166.32 483.27 C-166.53 482.72 -166.75 482.16 -166.97 481.59 C-170.74 471.26 -169.43 463.39 -165.32 453.27 C-162.63 448.66 -159.66 445.36 -155.32 442.27 C-155.73 443.27 -155.73 443.27 -156.16 444.29 C-156.52 445.17 -156.88 446.05 -157.25 446.96 C-157.61 447.83 -157.97 448.7 -158.34 449.6 C-160.81 456.37 -161.59 463.82 -159.07 470.65 C-154.59 477.36 -150.36 478.35 -142.69 479.9 C-141.74 480.1 -140.8 480.31 -139.82 480.52 C-136.99 481.12 -134.15 481.7 -131.32 482.27 C-130.44 482.46 -129.56 482.65 -128.66 482.84 C-123.47 483.94 -118.49 484.61 -113.19 484.9 C-111.89 484.97 -110.59 485.05 -109.25 485.12 C-108.28 485.17 -107.31 485.22 -106.32 485.27 C-109.73 481.86 -109.73 481.86 -113.16 478.46 C-113.71 477.93 -114.25 477.39 -114.82 476.84 C-115.64 476.03 -115.64 476.03 -116.47 475.21 C-121.13 470.32 -124.45 465.65 -127.38 459.59 C-127.72 458.88 -128.07 458.17 -128.42 457.44 C-133.27 447.35 -135.96 437.82 -137.7 426.8 C-138.11 423.44 -138.11 423.44 -139.32 421.27 C-138.66 421.27 -138 421.27 -137.32 421.27 C-137.09 422.49 -136.86 423.71 -136.63 424.96 C-132.64 442.74 -123.02 461.16 -108.32 472.27 C-107.64 472.78 -106.97 473.29 -106.27 473.82 C-97.5 480.03 -87.55 484.15 -77.32 487.27 C-76.66 485.62 -76 483.97 -75.32 482.27 C-73.49 482.48 -73.49 482.48 -71.32 483.27 C-69.86 485.35 -69.86 485.35 -68.5 487.96 C-64.35 495.27 -59.32 499.65 -51.32 502.27 C-48.02 502.53 -48.02 502.53 -45.32 502.27 C-44.66 500.95 -44 499.63 -43.32 498.27 C-38.95 499.6 -36.18 501.93 -32.87 504.93 C-28.99 508.28 -24.55 507.59 -19.65 507.58 C-15.72 507.22 -13.29 506.08 -9.95 504.11 C-8.32 503.27 -8.32 503.27 -5.69 503.34 C-3.32 504.27 -3.32 504.27 -0.75 505.84 C4.95 508.22 11.32 508.63 17.13 506.29 C20.85 504.07 23.12 501.74 25.68 498.27 C27 498.27 28.32 498.27 29.68 498.27 C30.34 499.26 31 500.25 31.68 501.27 C38.38 502.49 42.47 500.29 48 496.56 C51.75 493.37 54.26 489.69 56.83 485.53 C58.68 483.27 58.68 483.27 61.41 482.45 C62.16 482.39 62.91 482.33 63.68 482.27 C64.01 484.25 64.34 486.23 64.68 488.27 C86.85 480.19 106.61 469.45 117.13 447.37 C117.89 445.7 118.63 444.02 119.37 442.34 C119.75 441.51 120.13 440.68 120.51 439.82 C123.06 434.09 125.02 428.32 126.68 422.27 C125.93 442.57 117.46 464.39 102.44 478.36 C101.06 479.56 99.67 480.75 98.25 481.9 C96.56 483.21 96.56 483.21 95.68 485.27 C105.47 484.82 114.67 483.51 124.25 481.4 C126.09 481.01 126.09 481.01 127.97 480.62 C137.23 478.88 137.23 478.88 144.3 473.11 C149.47 463 146.89 456.27 143.52 445.8 C143.11 444.55 143.11 444.55 142.68 443.27 C148.3 448.09 152.39 454.91 153.68 462.27 C154.09 469.89 154.02 476.98 151.68 484.27 C165.41 479.16 177.91 470.11 187.68 459.27 C187.68 458.61 187.68 457.95 187.68 457.27 C188.34 457.27 189 457.27 189.68 457.27 C196.47 446.34 205.44 431.65 203.68 418.27 C200.29 408.73 192.05 397.98 183.68 392.27 C193.61 393.7 203.22 401.95 209.68 409.27 C212.73 413.73 215.24 418.47 217.68 423.27 C218.34 423.27 219 423.27 219.68 423.27 C222.12 416.36 223.18 410.22 223.06 402.9 C223.05 401.98 223.04 401.06 223.03 400.11 C222.87 393.13 222.05 386.87 219.68 380.27 C219.29 379.12 218.9 377.97 218.5 376.78 C215.34 367.97 210.89 360.34 205.76 352.54 C203.68 349.27 203.68 349.27 202.68 346.27 C202.02 346.27 201.36 346.27 200.68 346.27 C200.44 345.57 200.19 344.87 199.93 344.15 C197.81 339.26 195.76 335.64 191 333.09 C187.68 331.27 187.68 331.27 186.68 328.27 C186.54 325.98 186.46 323.69 186.43 321.4 C186.41 320.18 186.38 318.97 186.36 317.72 C186.71 313.99 187.4 312.21 189.68 309.27 C193.37 306.35 197.22 304.9 201.93 305.34 C205.37 306.19 207.17 306.86 209.68 309.27 C210.34 308.94 211 308.61 211.68 308.27 C211.13 306.65 210.56 305.02 210 303.4 C209.53 302.04 209.53 302.04 209.05 300.66 C207.56 296.97 205.82 293.48 204.02 289.93 C201.85 285.62 199.81 281.26 197.75 276.9 C191.52 263.01 191.52 263.01 183.62 250.09 C182.16 247.81 181.64 246.78 181.87 244.07 C183.28 239.37 185.74 235.51 188.41 231.43 C192.35 224.75 195.09 217.06 193.68 209.27 C190.17 200.25 181.29 196.57 173.29 191.89 C165.25 187.18 157.73 182.39 150.68 176.27 C148.75 174.69 146.81 173.1 144.87 171.52 C144 170.81 143.13 170.09 142.23 169.35 C141.39 168.67 140.55 167.98 139.68 167.27 C138.83 166.51 137.98 165.74 137.11 164.95 C134.9 163.02 134.9 163.02 132.76 163.56 C130.75 164.25 128.95 165.05 127.07 166.05 C126.4 166.4 125.73 166.75 125.04 167.11 C123.65 167.84 122.26 168.57 120.88 169.3 C111.01 174.4 101.9 174.6 91 174.52 C90.27 174.52 89.54 174.52 88.79 174.52 C59.11 174.42 59.11 174.42 49.68 171.27 C47.35 171.23 45.02 171.23 42.68 171.27 C44.91 173.68 47.17 175.3 50 176.96 C50.87 177.48 51.74 177.99 52.64 178.53 C54.87 179.81 57.1 181.06 59.35 182.3 C59.97 182.65 60.6 183 61.24 183.35 C62.47 184.04 63.71 184.71 64.95 185.38 C68.31 187.25 70.75 188.9 72.68 192.27 C72.62 194.4 72.62 194.4 71.68 196.27 C62.92 202.44 44.73 200.23 34.73 198.55 C15.47 194.72 -10 185.59 -24.32 171.27 C-27.24 171.14 -30.14 171.08 -33.07 171.09 C-34.44 171.09 -34.44 171.09 -35.84 171.09 C-50.28 171.2 -64.82 172.17 -79.17 173.82 C-85.55 174.47 -91.94 174.53 -98.35 174.57 C-99.78 174.58 -101.21 174.6 -102.64 174.63 C-118.17 174.95 -132.07 172.54 -144.48 162.48 C-146.37 161 -146.37 161 -149.32 161.27 Z M-329.69 227.96 C-330.9 229.4 -332.11 230.83 -333.32 232.27 C-333.84 232.84 -334.37 233.41 -334.92 234 C-336.99 236.26 -338.24 237.85 -338.82 240.9 C-338.22 243.72 -337.31 245.21 -335.32 247.27 C-334.66 247.27 -334 247.27 -333.32 247.27 C-333.32 247.93 -333.32 248.59 -333.32 249.27 C-327.49 254.23 -321.13 258.78 -314.32 262.27 C-313.36 262.82 -312.4 263.36 -311.41 263.92 C-289.16 276.01 -262.58 276.13 -238.32 270.27 C-237.62 270.11 -236.92 269.95 -236.21 269.79 C-227.3 268.28 -227.3 268.28 -220.32 263.27 C-219.13 260.67 -219.13 260.67 -218.32 258.27 C-222.91 258.75 -226.56 259.73 -230.88 261.45 C-255.51 269.83 -283.75 267.88 -307.32 257.27 C-311.2 255.19 -314.75 252.86 -318.32 250.27 C-319.52 249.58 -320.73 248.9 -321.94 248.21 C-324.32 246.27 -324.32 246.27 -325.57 243.46 C-325.19 238.61 -322.91 236.41 -319.32 233.27 C-301.25 219.71 -280.41 213.2 -258.32 210.27 C-259.32 212.27 -259.32 212.27 -261.15 212.91 C-261.94 213.09 -262.74 213.28 -263.56 213.46 C-264.45 213.68 -265.34 213.9 -266.26 214.12 C-267.23 214.36 -268.2 214.59 -269.19 214.84 C-284.28 218.73 -297.9 224.77 -310.32 234.27 C-310.98 234.6 -311.64 234.93 -312.32 235.27 C-312.32 235.93 -312.32 236.59 -312.32 237.27 C-312.94 237.52 -313.55 237.77 -314.19 238.02 C-316.69 239.49 -317.15 240.69 -318.32 243.27 C-307.83 252.04 -295.71 256.97 -282.32 259.27 C-281.16 259.49 -280.01 259.7 -278.82 259.93 C-271.03 261.23 -264.12 261.34 -256.32 260.27 C-254.8 260.1 -253.27 259.92 -251.75 259.74 C-243.07 258.66 -234.76 257.09 -226.44 254.34 C-225.71 254.1 -224.98 253.85 -224.23 253.61 C-219.76 252.03 -216.15 250.06 -212.32 247.27 C-212.86 242.37 -214.38 238.95 -216.75 234.65 C-221.2 226.22 -222.75 217.8 -222.32 208.27 C-224.84 207.01 -226.36 207.57 -229.06 208 C-233.91 208.58 -238.81 208.46 -243.69 208.46 C-245.42 208.46 -245.42 208.46 -247.19 208.46 C-256.39 208.39 -265.23 207.67 -274.32 206.27 C-275.59 206.09 -276.86 205.92 -278.17 205.73 C-286.95 204.46 -286.95 204.46 -289.32 203.27 C-303.23 202.01 -321.03 218.31 -329.69 227.96 Z M264.5 205.21 C246.39 208.79 228.05 209.36 209.68 207.27 C209.59 208.31 209.49 209.35 209.39 210.42 C208.14 222.48 205.12 231.36 198.66 241.73 C197.47 244.23 197.47 244.23 198 246.87 C200.56 250.52 203.83 251.44 207.93 252.9 C209.15 253.35 209.15 253.35 210.39 253.81 C217.38 256.32 224.36 258.08 231.68 259.27 C232.88 259.49 234.08 259.7 235.32 259.93 C244.58 261.41 253.4 261.34 262.68 260.27 C263.37 260.2 264.06 260.13 264.77 260.05 C279.59 258.37 293.25 253.01 304.68 243.27 C301.19 233.59 286.01 227.07 277.37 222.9 C262.6 215.96 262.6 215.96 246.68 213.27 C246.68 212.61 246.68 211.95 246.68 211.27 C247.34 211.6 248 211.93 248.68 212.27 C250.56 212.38 252.43 212.46 254.31 212.52 C268.49 213.57 284.59 219.28 295.95 228.02 C297.73 229.57 297.73 229.57 300.68 229.27 C300.68 229.93 300.68 230.59 300.68 231.27 C303.18 233.33 305.78 235.2 308.4 237.11 C310.96 239.53 311.4 240.82 311.68 244.27 C310.23 245.42 308.77 246.57 307.31 247.71 C306.5 248.35 305.68 248.99 304.85 249.64 C302.68 251.27 302.68 251.27 300.68 252.27 C300.68 252.93 300.68 253.59 300.68 254.27 C299.98 254.55 299.27 254.84 298.55 255.12 C296.66 255.88 294.79 256.65 292.91 257.42 C284.32 260.89 275.7 263.24 266.68 265.27 C265.42 265.57 265.42 265.57 264.13 265.87 C244.1 269.17 222.44 263.86 203.68 257.27 C205.6 262.63 205.6 262.63 209.51 266.55 C212.19 267.72 214.86 268.51 217.68 269.27 C219.52 269.83 219.52 269.83 221.4 270.4 C247.3 277.46 277.46 275.58 300.85 262.34 C315.87 253.85 315.87 253.85 325.68 240.27 C316.19 226.64 304.13 215.41 289.68 207.27 C288.89 206.8 288.1 206.33 287.28 205.84 C279.69 201.61 272.54 203.54 264.5 205.21 Z M217.68 283.27 C218.36 286.49 219.52 289.19 220.95 292.14 C223.98 298.71 226.22 305.46 228.43 312.34 C229.22 314.74 230.01 317.15 230.79 319.56 C231.13 320.61 231.47 321.66 231.82 322.74 C232.6 325.23 232.6 325.23 233.68 327.27 C233.81 330.84 233.81 330.84 233.68 334.27 C233.35 334.6 233.02 334.93 232.68 335.27 C226.04 334.99 221.52 332.98 215.81 329.71 C214.31 328.87 212.82 328.04 211.32 327.21 C210.67 326.84 210.01 326.47 209.34 326.08 C207.69 325.13 207.69 325.13 205.68 325.27 C207.13 328.37 208.86 331.02 210.87 333.77 C216.87 342.27 221.75 351.26 226.34 360.57 C230.07 368.08 233.08 372.04 240.68 375.84 C245.98 378.65 250.33 382.07 254.8 386.02 C257.35 388.53 257.35 388.53 260.68 389.27 C262.57 377.83 262.57 377.83 262.68 366.27 C262.62 365.16 262.55 364.05 262.48 362.91 C259.64 331.89 243.55 305.32 220.65 284.89 C218.98 283.17 218.98 283.17 217.68 283.27 Z M-234.32 286.27 C-235.78 287.66 -237.24 289.06 -238.69 290.46 C-239.5 291.24 -240.32 292.02 -241.15 292.82 C-243.31 295.26 -244.32 297.2 -245.32 300.27 C-245.98 300.27 -246.64 300.27 -247.32 300.27 C-247.58 301.08 -247.85 301.88 -248.13 302.71 C-248.52 303.56 -248.91 304.4 -249.32 305.27 C-250.31 305.6 -251.3 305.93 -252.32 306.27 C-253.84 308.44 -255.18 310.55 -256.5 312.84 C-256.9 313.51 -257.29 314.18 -257.69 314.87 C-258.92 316.99 -260.12 319.13 -261.32 321.27 C-261.69 321.93 -262.05 322.6 -262.43 323.28 C-271.83 340.38 -276.75 358.39 -276.44 377.96 C-276.43 379.06 -276.42 380.15 -276.41 381.28 C-276.39 383.94 -276.36 386.61 -276.32 389.27 C-273.11 387.45 -270.46 385.59 -267.82 383.02 C-262.63 378.38 -255.15 372.95 -248.13 371.96 C-245.01 370.78 -244.4 368.01 -243.07 365.09 C-242.46 363.81 -241.85 362.53 -241.24 361.25 C-240.93 360.59 -240.61 359.93 -240.29 359.25 C-236 350.54 -230.82 342.26 -225.32 334.27 C-224.19 332.59 -223.06 330.9 -221.94 329.21 C-221.07 327.9 -220.19 326.59 -219.32 325.27 C-222.4 326.43 -225.36 327.76 -228.31 329.22 C-229.04 329.57 -229.76 329.93 -230.51 330.29 C-232 331.03 -233.5 331.77 -234.99 332.53 C-239.29 334.61 -242.42 335.75 -247.32 335.27 C-246.15 325.14 -243.6 315.87 -240.32 306.27 C-239.95 305.2 -239.58 304.13 -239.21 303.02 C-237.83 299.12 -236.41 295.46 -234.5 291.77 C-232.94 289.23 -232.94 289.23 -234.32 286.27 Z M-249.32 374.27 C-252.96 377.7 -255.89 381.32 -258.84 385.36 C-260.79 387.88 -263.06 390.02 -265.32 392.27 C-276.03 407.7 -282.29 422.82 -285.32 441.27 C-285.49 442.06 -285.66 442.85 -285.84 443.67 C-288.99 460.84 -285.6 479.2 -282.8 496.17 C-280.74 509.43 -279.98 522.88 -279.32 536.27 C-277.06 535.43 -277.06 535.43 -276.44 532.84 C-275.32 530.27 -275.32 530.27 -273.19 528.96 C-272.57 528.73 -271.95 528.51 -271.32 528.27 C-270.84 533.85 -271.96 537.36 -274.44 542.36 C-275.45 544.23 -275.45 544.23 -275.32 546.27 C-263.5 541.77 -258.86 535.47 -253.46 524.5 C-250.71 518.93 -247.17 514.13 -243.32 509.27 C-242.22 507.85 -242.22 507.85 -241.1 506.41 C-235.03 498.74 -228.62 492.46 -220.32 487.27 C-221.07 488.2 -221.07 488.2 -221.85 489.14 C-222.5 489.94 -223.15 490.75 -223.82 491.59 C-224.47 492.39 -225.12 493.19 -225.79 494.01 C-227.6 496.23 -227.6 496.23 -227.32 499.27 C-227.98 499.27 -228.64 499.27 -229.32 499.27 C-234.24 506.38 -238.02 514.3 -241.32 522.27 C-241.56 522.87 -241.81 523.46 -242.06 524.07 C-246.01 533.68 -248.63 543.01 -250.32 553.27 C-250.49 554.15 -250.66 555.02 -250.84 555.92 C-251.43 560.03 -251.52 564.05 -251.55 568.2 C-251.57 569.49 -251.57 569.49 -251.58 570.81 C-251.75 589.29 -251.84 607.23 -247.32 625.27 C-247.1 626.13 -246.89 626.98 -246.67 627.86 C-244.81 636.77 -244.81 636.77 -240.32 644.27 C-240.27 643.59 -240.22 642.9 -240.17 642.19 C-238.23 617.11 -231.03 598.03 -215.32 578.27 C-214.23 576.88 -214.23 576.88 -213.13 575.46 C-211.6 573.62 -210.05 571.92 -208.32 570.27 C-209.06 574.24 -210.88 577.68 -212.63 581.27 C-220.39 597.72 -223.32 614.07 -222.32 632.27 C-222.26 633.38 -222.2 634.48 -222.14 635.62 C-220.6 651.98 -211.95 665.11 -199.73 675.64 C-190.99 682.86 -181.15 687.94 -170.32 691.27 C-169.33 690.94 -168.34 690.61 -167.32 690.27 C-167.79 689.38 -168.26 688.48 -168.74 687.56 C-169.37 686.34 -170 685.12 -170.63 683.9 C-170.94 683.31 -171.25 682.73 -171.56 682.13 C-176.47 672.52 -177.81 663.51 -178.07 652.77 C-178.13 651.01 -178.13 651.01 -178.2 649.2 C-178.46 640.57 -178.46 640.57 -177.32 638.27 C-177.22 639.14 -177.12 640.02 -177.02 640.91 C-174.62 660 -166.97 676.49 -152.32 689.27 C-145.62 694.42 -138.11 699.01 -130.32 702.27 C-129.65 702.56 -128.98 702.84 -128.29 703.14 C-121.78 705.62 -115.23 705.96 -108.32 706.27 C-110.77 703.71 -113.16 701.64 -116.13 699.71 C-126.73 691.83 -131.16 677.61 -134.32 665.27 C-133.66 664.94 -133 664.61 -132.32 664.27 C-132.25 664.81 -132.19 665.36 -132.12 665.91 C-130.98 669.25 -128.81 671.49 -126.44 674.02 C-125.95 674.55 -125.45 675.08 -124.94 675.63 C-116.22 684.74 -105.98 690.7 -94.32 695.27 C-93.33 695.27 -92.34 695.27 -91.32 695.27 C-91.34 694.34 -91.36 693.41 -91.39 692.45 C-91.69 671.37 -91.69 671.37 -87.32 662.27 C-86.66 661.94 -86 661.61 -85.32 661.27 C-85.35 661.81 -85.39 662.35 -85.42 662.9 C-86.18 684.76 -77.02 702.58 -63.11 718.86 C-61.25 720.77 -59.34 722.54 -57.32 724.27 C-56.54 724.97 -55.76 725.66 -54.96 726.38 C-49.55 730.98 -42.79 736.27 -35.32 736.27 C-35.48 735.15 -35.64 734.03 -35.81 732.87 C-36.4 728.16 -36.43 723.51 -36.38 718.77 C-36.37 717.95 -36.37 717.13 -36.37 716.28 C-36.35 714.28 -36.34 712.28 -36.32 710.27 C-35.66 710.27 -35 710.27 -34.32 710.27 C-34.11 711.51 -33.9 712.75 -33.69 714.02 C-32.34 720.27 -29.33 725.68 -26.32 731.27 C-25.66 731.27 -25 731.27 -24.32 731.27 C-24.11 732 -23.89 732.73 -23.68 733.48 C-21.93 737.07 -19.74 738.61 -16.57 741.02 C-11.32 745.15 -7.57 749.37 -4.32 755.27 C-2.06 752.59 -0.43 750.63 0.68 747.27 C1.28 746.98 1.88 746.7 2.5 746.4 C5.38 744.91 6.69 742.81 8.68 740.27 C9.83 739.41 9.83 739.41 11 738.52 C18.93 731.88 24.62 722.66 25.68 712.27 C26.01 712.27 26.34 712.27 26.68 712.27 C27.92 717.04 27.8 721.7 27.75 726.59 C27.74 727.42 27.74 728.26 27.73 729.12 C27.72 731.17 27.7 733.22 27.68 735.27 C38.54 732.2 46.79 723.89 53.68 715.27 C54.19 714.69 54.7 714.1 55.22 713.49 C62.91 704.12 68.24 692.07 70.68 680.27 C70.89 679.46 71.09 678.64 71.3 677.8 C72.82 671.27 72.89 664.96 72.68 658.27 C73.34 658.27 74 658.27 74.68 658.27 C77.85 670.71 77.82 682.59 76.68 695.27 C81.83 694.7 85.81 693.08 90.37 690.77 C91.07 690.42 91.77 690.06 92.5 689.7 C101.58 684.95 115.15 676.32 118.39 666.01 C118.49 665.44 118.59 664.86 118.68 664.27 C119.34 664.27 120 664.27 120.68 664.27 C112.42 693.6 112.42 693.6 99.87 702.02 C98.82 702.77 97.77 703.51 96.68 704.27 C96.68 704.6 96.68 704.93 96.68 705.27 C111.98 706 125.47 697.93 137.68 689.27 C138.7 688.29 139.71 687.29 140.68 686.27 C141.53 685.65 142.37 685.04 143.25 684.4 C145.85 682.13 146.69 680.54 147.68 677.27 C148.34 677.27 149 677.27 149.68 677.27 C156.26 666.39 161.27 655.58 164.68 643.27 C165.16 659.31 162.83 671.4 156.11 686 C154.55 688.98 154.55 688.98 154.68 691.27 C174.58 685.36 190.07 674.04 200.68 656.27 C201.1 655.64 201.51 655.01 201.94 654.36 C211.52 639.35 208.24 615.71 204.68 599.27 C201.97 589.08 197.71 579.53 192.68 570.27 C213.08 590.07 222.42 613.34 224.68 641.27 C227.07 640.37 227.07 640.37 227.87 637.01 C238.25 601.65 240.79 557.72 225.68 523.27 C225.39 522.6 225.1 521.92 224.79 521.23 C217.65 504.11 217.65 504.11 205.68 491.27 C205.06 489.21 205.06 489.21 204.68 487.27 C206.59 488.94 208.49 490.6 210.39 492.27 C211.86 493.56 213.35 494.83 214.86 496.09 C218.93 499.52 221.82 502.73 224.68 507.27 C225.82 508.36 225.82 508.36 226.98 509.46 C230.14 512.75 232.39 516.21 234.75 520.09 C235.17 520.76 235.59 521.43 236.02 522.13 C238.12 525.53 240.02 528.92 241.72 532.55 C243.34 535.87 245.02 537.89 248.06 540.09 C249.23 540.93 249.23 540.93 250.42 541.8 C253.11 543.55 255.74 544.99 258.68 546.27 C257.69 543.07 256.64 540.18 255.06 537.21 C253.66 534.23 253.4 532.5 253.68 529.27 C255 529.27 256.32 529.27 257.68 529.27 C257.97 530.06 258.26 530.84 258.56 531.65 C259.53 534.37 259.53 534.37 261.68 536.27 C261.7 535.32 261.71 534.37 261.73 533.38 C262.17 517.84 264.57 502.54 266.83 487.18 C271.38 456.24 270.28 422.82 251.81 396.27 C251.01 395.25 251.01 395.25 250.19 394.21 C248.68 392.27 248.68 392.27 247.13 389.68 C243.85 384.23 238.51 380.32 233.68 376.27 C233.9 377.18 234.12 378.1 234.34 379.04 C238.91 399.71 238.63 422.08 227.24 440.62 C224.22 444.84 220.99 448.37 216.68 451.27 C213.58 451.19 212.9 450.49 210.68 448.27 C210.17 449.39 209.65 450.5 209.12 451.65 C204.42 460.99 197.82 468.71 190.68 476.27 C190.19 476.81 189.69 477.35 189.18 477.91 C186.59 480.62 183.91 482.39 180.68 484.27 C179.57 484.95 179.57 484.95 178.43 485.63 C177.67 486.09 176.91 486.55 176.12 487.02 C175.27 487.54 174.41 488.06 173.53 488.6 C171.51 489.79 169.46 490.93 167.4 492.04 C166.32 492.63 165.24 493.23 164.12 493.84 C162.6 494.64 162.6 494.64 161.05 495.46 C158.49 497.07 158.49 497.07 157.82 499.8 C157.68 502.33 158.01 504.59 158.42 507.09 C160.65 525.48 156.95 547.16 145.68 562.27 C143.12 563.28 143.12 563.28 140.68 563.27 C138.06 561.02 138.06 561.02 135.68 558.27 C134.69 557.27 133.69 556.26 132.68 555.27 C132.1 556.82 132.1 556.82 131.5 558.39 C125.6 573.58 117.81 587.48 107.68 600.27 C107 601.15 106.32 602.03 105.62 602.94 C104.94 603.77 104.26 604.6 103.56 605.46 C102.96 606.2 102.36 606.93 101.74 607.69 C98.98 609.81 97.07 609.57 93.68 609.27 C92.2 604.32 92.2 604.32 90.68 599.27 C87.9 600.67 87.24 602.6 85.68 605.27 C80.57 612.8 74.94 619.67 68.68 626.27 C68 627 67.32 627.72 66.62 628.46 C62.29 632.93 57.73 636.66 52.68 640.27 C51.31 641.32 51.31 641.32 49.91 642.39 C48.95 643.11 47.99 643.84 47 644.59 C46.11 645.26 45.21 645.94 44.3 646.64 C41.66 648.29 39.74 648.89 36.68 649.27 C36.56 648.16 36.44 647.06 36.32 645.91 C36.15 644.45 35.98 642.99 35.81 641.52 C35.73 640.79 35.65 640.06 35.57 639.31 C35.13 635.61 34.68 632.47 32.68 629.27 C32.13 629.98 32.13 629.98 31.57 630.71 C23.67 640.37 10.3 651.75 -2.32 654.27 C-14.44 653.82 -26.28 644.58 -34.76 636.56 C-36.24 635.06 -36.24 635.06 -38.32 635.27 C-38.38 636.04 -38.44 636.82 -38.5 637.61 C-38.58 638.61 -38.67 639.62 -38.75 640.65 C-38.88 642.15 -38.88 642.15 -39 643.67 C-39.32 646.27 -39.32 646.27 -40.32 648.27 C-45.6 647.8 -49.04 646.62 -53.5 643.77 C-54.06 643.42 -54.61 643.07 -55.18 642.71 C-63.07 637.6 -70.63 631.96 -77.67 625.73 C-78.87 624.66 -80.1 623.62 -81.34 622.6 C-85.25 619.32 -88.35 616.14 -91.18 611.88 C-92.41 610.04 -92.41 610.04 -94.75 607.9 C-98.19 604.38 -100.69 600.41 -103.32 596.27 C-105.32 599.28 -105.81 600.98 -106.44 604.46 C-106.69 605.81 -106.69 605.81 -106.95 607.19 C-107.07 607.88 -107.19 608.57 -107.32 609.27 C-110.32 610.27 -110.32 610.27 -112.65 609.72 C-116.19 607.8 -118.47 605.14 -121 602.09 C-121.53 601.46 -122.05 600.84 -122.58 600.2 C-133.73 586.67 -142.35 571.76 -148.32 555.27 C-150.74 556.48 -151.16 557.49 -152.44 559.84 C-153.37 561.54 -153.37 561.54 -154.32 563.27 C-156.57 563.64 -156.57 563.64 -159.32 563.27 C-162.6 559.36 -164.89 554.75 -167.32 550.27 C-167.82 549.4 -168.32 548.53 -168.84 547.63 C-175.7 534.47 -176.08 518.94 -173.91 504.59 C-173.62 502.49 -173.45 500.38 -173.32 498.27 C-175.17 495.89 -177.26 494.62 -179.93 493.3 C-180.62 492.96 -181.31 492.62 -182.02 492.26 C-182.74 491.92 -183.45 491.57 -184.19 491.21 C-184.9 490.86 -185.61 490.51 -186.34 490.15 C-189.95 488.37 -193.55 486.7 -197.32 485.27 C-197.32 484.61 -197.32 483.95 -197.32 483.27 C-199.2 481.6 -199.2 481.6 -201.57 479.9 C-212.25 471.97 -221.67 460.84 -226.32 448.27 C-227.2 448.83 -228.09 449.39 -229 449.96 C-230.1 450.39 -231.19 450.83 -232.32 451.27 C-240.89 447.35 -244.84 437.78 -248.27 429.52 C-251.18 420.47 -251.65 411.81 -251.63 402.34 C-251.65 401.14 -251.66 399.94 -251.68 398.71 C-251.68 391.86 -251.04 385.98 -248.86 379.48 C-248.07 377.12 -248.07 377.12 -249.32 374.27 Z M-155.12 495.45 C-157.67 499.34 -158.97 503.85 -160.32 508.27 C-160.52 508.91 -160.73 509.55 -160.94 510.21 C-162.78 520.24 -159.4 530.84 -156.32 540.27 C-155.87 539.89 -155.42 539.5 -154.96 539.1 C-153.71 538.02 -152.45 536.95 -151.19 535.88 C-149.66 534.56 -148.14 533.23 -146.63 531.9 C-144.32 530.27 -144.32 530.27 -140.32 530.27 C-140.06 531.31 -139.81 532.35 -139.55 533.42 C-138.65 537.05 -137.74 540.68 -136.82 544.3 C-136.42 545.86 -136.04 547.43 -135.66 549 C-132.48 561.12 -124.97 578.17 -114.32 585.27 C-114.09 584.2 -113.86 583.13 -113.63 582.02 C-111.24 572.57 -105.68 554.85 -97.32 549.27 C-97.46 549.81 -97.61 550.35 -97.75 550.9 C-100.46 562.34 -101.31 573.88 -95.29 584.34 C-87.35 596.17 -78.33 607.19 -67.32 616.27 C-66.49 616.98 -65.66 617.69 -64.8 618.41 C-63.94 619.13 -63.08 619.85 -62.19 620.59 C-61.01 621.57 -61.01 621.57 -59.81 622.57 C-57.06 624.45 -54.5 625.37 -51.32 626.27 C-51.57 596.92 -51.57 596.92 -60.32 569.27 C-51.05 575.14 -47.6 590.51 -44.33 600.37 C-38.67 616.9 -26.14 629.5 -11.32 638.27 C-6.8 640.38 -4.22 640.52 0.68 639.27 C3.53 637.84 6.08 636.11 8.68 634.27 C9.33 633.85 9.98 633.43 10.65 633 C28.59 620.72 35.5 598.34 40.68 578.27 C40.68 577.28 40.68 576.29 40.68 575.27 C41.34 575.27 42 575.27 42.68 575.27 C42.66 576 42.64 576.72 42.62 577.46 C42.48 585.08 43.27 592.17 44.62 599.65 C46.14 608.54 47.36 617.25 47.68 626.27 C65.3 611.78 82.67 593.19 87.68 570.27 C88.23 563.63 85.65 558.1 82.68 552.27 C90.49 555.66 93.62 563.71 96.58 571.22 C98.13 575.52 99.48 579.86 100.68 584.27 C104.56 580.67 107.48 576.9 110.18 572.34 C110.57 571.68 110.96 571.02 111.36 570.35 C118.67 557.66 121.72 543.66 123.68 529.27 C129.19 531.22 132.75 533.83 136.98 537.85 C138.57 539.49 138.57 539.49 140.68 539.27 C143.94 531.98 145.09 525.5 145.12 517.59 C145.13 516.8 145.14 516.02 145.15 515.21 C145.05 508.23 143.55 501.48 139.43 495.71 C136.87 492.99 136.87 492.99 133.37 492.77 C130.22 493.2 127.24 493.82 124.17 494.63 C111.93 497.78 100.25 498.69 87.62 498.89 C77.67 499.09 69.61 500.52 60.56 504.65 C59.89 504.94 59.23 505.23 58.55 505.53 C55.26 507 52.12 508.56 49.02 510.39 C42.08 514.3 34.75 515.36 26.91 515.96 C23.79 516.4 21.4 517.72 18.68 519.27 C11.59 521.58 3.24 521.06 -3.69 518.59 C-7.56 517.21 -7.56 517.21 -11.5 518.59 C-12.05 518.88 -12.59 519.18 -13.15 519.48 C-19.02 521.62 -26.97 521.37 -32.87 519.44 C-34.29 518.75 -35.69 518.03 -37.08 517.29 C-39.8 516.06 -42.31 515.65 -45.25 515.21 C-54.42 513.83 -61.55 511.24 -69.63 506.77 C-81.34 500.41 -91.76 499.12 -104.93 498.75 C-112.85 498.48 -120.56 497.56 -128.38 496.34 C-129.48 496.17 -130.58 496 -131.71 495.82 C-136.76 495 -141.51 494.06 -146.32 492.27 C-150.31 491.59 -152.36 492.42 -155.12 495.45 Z M-189.32 699.27 C-185.99 713.62 -182.41 727.84 -177.82 741.84 C-177.47 742.94 -177.13 744.05 -176.78 745.18 C-174.76 751.22 -174.76 751.22 -170.19 755.41 C-165.41 756.48 -160.76 757.1 -155.88 757.46 C-154.88 757.54 -153.88 757.62 -152.85 757.7 C-124.07 761.06 -124.07 761.06 -97.32 754.27 C-93.3 744.7 -92.24 732.57 -92.32 722.27 C-93.4 722.16 -93.4 722.16 -94.51 722.05 C-97.86 721.69 -101.22 721.33 -104.57 720.96 C-105.71 720.84 -106.85 720.73 -108.02 720.6 C-126.59 718.55 -126.59 718.55 -134.32 714.21 C-138.36 712.02 -142.27 711.48 -146.79 710.82 C-175.78 706.3 -175.78 706.3 -186.32 699.27 C-187.31 699.27 -188.3 699.27 -189.32 699.27 Z M167.75 700.96 C156.17 706.04 144.08 708.97 131.65 711.04 C126.64 711.94 122.06 713.47 117.31 715.27 C104.9 719.95 91.88 721.52 78.68 722.27 C79.02 729.7 79.62 737.02 80.93 744.34 C81.14 745.54 81.36 746.75 81.57 748 C82.97 752.13 84.11 753.73 87.68 756.27 C96.65 759.35 106.76 758.59 116.12 758.52 C116.92 758.52 117.71 758.52 118.53 758.52 C139.88 759.64 139.88 759.64 159.68 754.27 C160.96 751.88 161.84 749.82 162.68 747.27 C162.93 746.57 163.18 745.86 163.44 745.13 C166 737.69 168.12 730.12 170.1 722.51 C170.68 720.27 171.28 718.03 171.88 715.79 C172.26 714.37 172.63 712.95 173 711.52 C173.32 710.27 173.65 709.02 173.98 707.73 C174.65 704.46 174.82 701.59 174.68 698.27 C172.42 698.27 169.72 700.06 167.75 700.96 Z M-168.32 764.27 C-167.38 768.47 -167.38 768.47 -164.58 771.45 C-161.89 772.43 -159.78 772.52 -156.92 772.52 C-155.85 772.52 -154.77 772.52 -153.66 772.53 C-151.92 772.51 -151.92 772.51 -150.14 772.5 C-148.94 772.5 -147.74 772.5 -146.51 772.5 C-143.97 772.5 -141.44 772.49 -138.9 772.48 C-135.03 772.46 -131.16 772.46 -127.29 772.46 C-124.82 772.45 -122.36 772.45 -119.89 772.44 C-118.16 772.44 -118.16 772.44 -116.39 772.44 C-110.93 772.41 -105.7 772.24 -100.32 771.27 C-99.66 769.29 -99 767.31 -98.32 765.27 C-99.3 765.31 -100.28 765.35 -101.3 765.4 C-123.79 766.3 -145.88 766.19 -168.32 764.27 Z M85.68 765.27 C85.87 767.72 85.87 767.72 86.68 770.27 C89.7 772.28 92.18 772.53 95.75 772.53 C96.76 772.54 97.77 772.54 98.81 772.55 C99.89 772.55 100.98 772.54 102.1 772.54 C103.78 772.54 103.78 772.54 105.51 772.54 C107.89 772.55 110.27 772.54 112.65 772.53 C116.27 772.52 119.89 772.53 123.52 772.55 C125.83 772.55 128.15 772.54 130.47 772.54 C131.55 772.54 132.62 772.55 133.73 772.55 C140.69 772.51 148.32 772.45 154.68 769.27 C155.34 767.25 155.34 767.25 155.68 765.27 C154.7 765.31 153.72 765.34 152.7 765.38 C130.3 766.17 108.08 766.31 85.68 765.27 Z M82.68 783.27 C80.93 785.75 79.85 788.48 78.68 791.27 C78.06 792.67 78.06 792.67 77.43 794.09 C76.03 800.04 75.94 805.86 77.75 811.71 C80.41 815.23 82.64 816.46 86.68 818.27 C89.33 818.41 89.33 818.41 91.68 818.27 C91.7 817.26 91.7 817.26 91.73 816.22 C92.09 809.08 93.43 803.15 97.68 797.27 C101 795.15 101 795.15 103.68 794.27 C103.27 795.27 103.27 795.27 102.84 796.29 C102.48 797.17 102.12 798.05 101.75 798.96 C101.39 799.83 101.03 800.7 100.66 801.6 C98.74 806.88 98.24 811.7 98.68 817.27 C100.18 819.63 100.18 819.63 102.68 821.27 C106.08 821.91 106.08 821.91 109.9 821.84 C110.94 821.85 110.94 821.85 112 821.86 C113.46 821.87 114.92 821.86 116.38 821.85 C118.61 821.84 120.84 821.87 123.06 821.91 C124.49 821.91 125.91 821.91 127.34 821.9 C129.27 821.9 129.27 821.9 131.24 821.9 C135.54 821.12 137.02 819.67 139.68 816.27 C140.63 809.19 138.31 801.81 135.68 795.27 C140.43 797.48 142.63 800.5 144.68 805.27 C145.12 807.51 145.49 809.76 145.81 812.02 C145.98 813.19 146.14 814.36 146.32 815.57 C146.5 816.91 146.5 816.91 146.68 818.27 C153.17 817.94 156.16 817.01 160.68 812.27 C163.52 807.76 163.26 802.42 162.68 797.27 C161.49 792.1 160.34 787.61 156.12 784.21 C147.1 781.75 138.29 780.93 128.97 780.75 C127.8 780.73 126.63 780.7 125.42 780.67 C122.97 780.62 120.51 780.57 118.06 780.53 C114.3 780.46 110.54 780.36 106.78 780.27 C104.39 780.22 101.99 780.17 99.6 780.13 C97.92 780.08 97.92 780.08 96.2 780.03 C94.63 780.01 94.63 780.01 93.03 779.99 C91.66 779.97 91.66 779.97 90.26 779.94 C87.11 780.35 85.25 781.45 82.68 783.27 Z M-170.38 784.27 C-175.9 792.82 -177.32 800.17 -175.69 810.09 C-173.9 814.23 -172.38 815.35 -168.32 817.27 C-165.32 817.85 -162.36 818.14 -159.32 818.27 C-159.28 817.56 -159.24 816.85 -159.2 816.11 C-158.57 806.85 -156.57 801.21 -150.32 794.27 C-149.19 797.58 -149.44 799.26 -150.75 802.46 C-152.43 807.13 -153.05 811.34 -152.32 816.27 C-151.02 818.86 -150.34 819.93 -147.6 820.85 C-142.29 821.83 -136.77 821.5 -131.38 821.52 C-130.1 821.54 -128.83 821.56 -127.51 821.59 C-125.67 821.59 -125.67 821.59 -123.79 821.6 C-122.67 821.61 -121.55 821.62 -120.39 821.63 C-116.92 821.23 -115.06 820.42 -112.32 818.27 C-109.97 810.82 -112.8 804.4 -115.32 797.27 C-115.81 795.79 -115.81 795.79 -116.32 794.27 C-111.14 796.64 -108.48 800.13 -106.32 805.27 C-105.36 809.58 -104.76 813.88 -104.32 818.27 C-98.42 817.92 -95.33 816.66 -91.32 812.27 C-88.88 806.81 -88.21 799.99 -89.92 794.24 C-90.77 792.2 -91.72 790.28 -92.75 788.34 C-93.21 787.33 -93.21 787.33 -93.68 786.3 C-94.73 784.29 -95.7 782.87 -97.32 781.27 C-104.65 779.97 -112.06 780.11 -119.49 780.11 C-120.73 780.1 -121.97 780.1 -123.25 780.1 C-125.86 780.09 -128.47 780.09 -131.07 780.09 C-133.74 780.09 -136.41 780.08 -139.08 780.07 C-142.95 780.05 -146.81 780.04 -150.68 780.04 C-151.87 780.04 -153.06 780.03 -154.29 780.02 C-155.4 780.02 -156.51 780.03 -157.66 780.03 C-158.63 780.03 -159.61 780.03 -160.61 780.03 C-164.69 780.4 -167.44 781.42 -170.38 784.27 Z " fill="#000000" transform="translate(649.31640625,298.7265625)"/>
<path d="M0 0 C9.28 5.21 15.94 13.41 19.25 23.45 C23.15 38.89 20.75 53.08 12.69 66.73 C5.02 78.06 -7.29 85.67 -20.47 88.82 C-25.21 89.64 -30.01 89.71 -34.81 89.85 C-35.87 89.89 -36.93 89.93 -38.03 89.97 C-40.62 90.06 -43.22 90.15 -45.81 90.23 C-45.81 89.57 -45.81 88.91 -45.81 88.23 C-44.78 87.99 -44.78 87.99 -43.74 87.74 C-40.59 87 -37.45 86.24 -34.31 85.48 C-33.23 85.22 -32.16 84.97 -31.05 84.71 C-24.84 83.2 -19.35 81.43 -13.81 78.23 C-12.85 77.7 -11.89 77.17 -10.91 76.62 C0.33 69.77 6.65 61.63 11.19 49.23 C11.19 48.24 11.19 47.25 11.19 46.23 C10.69 46.7 10.19 47.17 9.68 47.65 C9 48.27 8.32 48.9 7.62 49.54 C6.96 50.15 6.3 50.77 5.62 51.4 C-2.81 57.72 -12.73 57.38 -22.81 56.23 C-31.42 53.87 -37.24 46.33 -41.81 39.04 C-43.98 30.78 -44.16 21.91 -40.06 14.25 C-39.65 13.58 -39.24 12.91 -38.81 12.23 C-38.4 11.52 -37.99 10.81 -37.56 10.08 C-29.76 -1.85 -12.9 -5.07 0 0 Z M-8.81 13.23 C-9.65 16.68 -9.65 16.68 -8.81 20.23 C-6.36 23.62 -4.98 25.03 -0.81 25.73 C2.67 25.15 4.53 24.58 7.19 22.23 C8.37 18.24 8.61 16.16 6.88 12.35 C5.36 10.14 5.36 10.14 3.19 9.23 C-2.18 8.72 -5.23 8.99 -8.81 13.23 Z M-32.81 17.23 C-31.81 19.23 -31.81 19.23 -31.81 19.23 Z M-33.81 19.23 C-36.37 24.02 -36.48 28.93 -35.81 34.23 C-33.78 40.03 -29.79 43.39 -24.69 46.54 C-22.63 47.51 -22.63 47.51 -19.81 46.23 C-21.42 45.24 -21.42 45.24 -23.06 44.23 C-28.45 40.3 -30.27 36.08 -31.5 29.6 C-32 26.14 -32.44 22.7 -32.81 19.23 C-33.14 19.23 -33.47 19.23 -33.81 19.23 Z " fill="#000000" transform="translate(526.8125,571.7734375)"/>
<path d="M0 0 C8.3 4.48 12.43 11.58 15.31 20.34 C17.11 27.27 16.09 33.58 13 40 C8.15 47.61 2.83 52.56 -6 55 C-8.82 55.3 -11.61 55.33 -14.44 55.31 C-15.53 55.34 -15.53 55.34 -16.63 55.36 C-23.61 55.37 -28.95 53.15 -34.44 48.81 C-35.12 48.28 -35.8 47.75 -36.5 47.21 C-36.99 46.81 -37.49 46.41 -38 46 C-37.52 51.79 -35.91 55.99 -33 61 C-32.67 61.6 -32.35 62.2 -32.01 62.82 C-28.39 68.7 -22.82 71.55 -17 75 C-16.34 75.47 -15.68 75.93 -15 76.41 C-8.94 80.68 -2.12 82.21 5 84 C6.18 84.3 7.36 84.6 8.57 84.91 C11.38 85.62 14.19 86.32 17 87 C17 87.66 17 88.32 17 89 C-2.51 88.73 -18.46 87.92 -33.36 73.76 C-35.36 71.58 -37.21 69.36 -39 67 C-39.49 66.35 -39.98 65.71 -40.49 65.04 C-44.12 59.77 -45.63 54.19 -47 48 C-47.23 47.03 -47.45 46.06 -47.69 45.06 C-48.99 32.27 -48.02 20.28 -40.31 9.68 C-30.34 -2.5 -14.48 -7.11 0 0 Z M-11 10 C-12.57 13.14 -12.35 15.54 -12 19 C-9.55 22.39 -8.16 23.81 -4 24.5 C-0.7 23.95 1.21 22.77 4 21 C2.96 30.32 1.34 37.14 -5.81 43.5 C-6.53 44 -7.26 44.49 -8 45 C-7.67 45.66 -7.34 46.32 -7 47 C0.49 43.77 5.23 40.22 8.44 32.56 C9.87 23.47 6.66 16.73 2 9 C-2.17 6.91 -7.18 7.36 -11 10 Z M-40 43 C-39 45 -39 45 -39 45 Z " fill="#000000" transform="translate(787,573)"/>
<path d="M0 0 C5 5.12 5 5.12 5 8 C5.66 8 6.32 8 7 8 C19.83 31.07 19.83 31.07 19 42 C16.52 42.5 16.52 42.5 14 43 C11.6 38.28 9.22 33.6 7.25 28.69 C3.47 20.08 -1.87 11.86 -10 7 C-12.03 5.72 -14.04 4.4 -16 3 C-16 2.34 -16 1.68 -16 1 C-16.76 0.75 -17.53 0.5 -18.31 0.25 C-20.35 -0.44 -22.38 -1.15 -24.39 -1.92 C-40.86 -8.2 -57 -9.21 -74.44 -9.19 C-75.18 -9.19 -75.93 -9.19 -76.69 -9.19 C-85.84 -9.17 -94.95 -9.03 -104.06 -8.19 C-104.86 -8.12 -105.65 -8.05 -106.47 -7.98 C-114.46 -7.11 -121.72 -4.32 -129 -1 C-129.74 -0.69 -130.47 -0.37 -131.23 -0.05 C-145.44 6.4 -156.05 17.61 -162 32 C-162.81 34.36 -163.58 36.72 -164.29 39.12 C-165 41 -165 41 -167 43 C-169.62 42.62 -169.62 42.62 -172 42 C-173.13 27.28 -164.72 15.09 -156 4 C-154.95 2.61 -154.95 2.61 -153.88 1.19 C-152.05 -0.94 -150.36 -2.51 -148 -4 C-147.34 -4 -146.68 -4 -146 -4 C-145.67 -4.99 -145.34 -5.98 -145 -7 C-142.89 -8.45 -140.85 -9.71 -138.62 -10.94 C-137.99 -11.29 -137.35 -11.65 -136.7 -12.01 C-98.69 -32.7 -32.39 -29.94 0 0 Z " fill="#000000" transform="translate(719,676)"/>
<path d="M0 0 C2.87 1.59 3.89 2.78 5.88 5.31 C11.02 11.52 18.83 15.48 26.81 16.56 C35.94 17.09 44.68 16.62 53.69 15.06 C64.7 13.18 73.87 13.5 84.83 15.48 C98.84 17.9 113.15 18.08 125.31 9.88 C128.65 6.79 131.2 3.27 133.81 -0.44 C136.19 -0.25 136.19 -0.25 138.81 0.56 C140.31 2.62 140.31 2.62 140.81 5.56 C139.17 13.12 134.8 17.82 128.81 22.56 C119.93 28.01 112.26 29.77 102 29.81 C100.71 29.82 100.71 29.82 99.39 29.83 C92.21 29.78 85.28 28.89 78.19 27.88 C69.8 26.71 62.76 26.56 54.5 28.33 C40.99 31.15 23.22 32.05 10.98 24.91 C7.33 22.44 3.72 19.91 0.81 16.56 C0.81 15.9 0.81 15.24 0.81 14.56 C-0.18 14.23 -1.17 13.9 -2.19 13.56 C-4.56 10 -5.21 8.06 -5 3.75 C-4.73 2.7 -4.46 1.65 -4.19 0.56 C-2.19 -0.44 -2.19 -0.44 0 0 Z " fill="#000000" transform="translate(575.1875,737.4375)"/>
<path d="M0 0 C0.5 0.99 0.5 0.99 1 2 C-0.38 1.86 -1.75 1.71 -3.12 1.56 C-3.89 1.48 -4.66 1.4 -5.45 1.32 C-7.2 1.1 -8.95 0.82 -10.68 0.48 C-31.04 -2.47 -52.06 0.82 -68.76 13.26 C-69.5 13.84 -70.24 14.41 -71 15 C-71.63 15.46 -72.25 15.92 -72.89 16.39 C-85.13 25.98 -93.76 42.76 -96 58 C-96.86 65.98 -97.46 73.99 -98 82 C-98.66 82 -99.32 82 -100 82 C-100.93 75.66 -101.18 69.47 -101.19 63.06 C-101.2 62.12 -101.21 61.19 -101.22 60.22 C-101.26 42.06 -93.72 25.82 -81 13 C-60.41 -6.52 -25.52 -14.97 0 0 Z " fill="#000000" transform="translate(813,537)"/>
<path d="M0 0 C1.46 1.16 2.84 2.43 4.2 3.7 C4.2 4.36 4.2 5.02 4.2 5.7 C4.94 5.92 5.67 6.14 6.42 6.36 C14.38 10.2 20.01 21.79 23.2 29.7 C23.79 31.12 23.79 31.12 24.39 32.56 C29.11 46.02 29.31 63.06 25.2 76.7 C24.87 76.7 24.54 76.7 24.2 76.7 C24.14 75.58 24.14 75.58 24.08 74.43 C22.78 50.96 19.55 29.14 2.2 11.7 C-1.64 8.46 -5.63 5.53 -9.8 2.7 C-10.44 2.26 -11.08 1.82 -11.73 1.36 C-15.86 -1.26 -20.27 -2.42 -24.95 -3.59 C-27.8 -4.3 -27.8 -4.3 -30.88 -5.37 C-36.12 -6.87 -41.52 -6.59 -46.92 -6.55 C-48.03 -6.54 -49.14 -6.54 -50.28 -6.54 C-57.95 -6.45 -65.29 -5.97 -72.8 -4.3 C-72.8 -4.96 -72.8 -5.62 -72.8 -6.3 C-49.74 -18.24 -20.91 -15.1 0 0 Z " fill="#000000" transform="translate(547.79638671875,543.29736328125)"/>
<path d="M0 0 C3 1.8 4.45 2.9 6 6 C6.38 11.01 6.13 14 3 18 C-1.52 22.28 -5.94 24.07 -12.12 24.25 C-17.39 23.91 -17.39 23.91 -20 22 C-22.84 17.74 -22.87 14 -22 9 C-17.26 0.31 -9.28 -1.17 0 0 Z " fill="#000000" transform="translate(682,683)"/>
<path d="M0 0 C4.42 1.84 8.86 4.6 11 9 C11.87 12.57 12.34 15.74 11.38 19.31 C8.61 22.71 6.02 23.88 1.69 24.38 C-2.7 23.93 -5.94 22.71 -10 21 C-10 20.34 -10 19.68 -10 19 C-10.62 18.73 -11.24 18.46 -11.88 18.19 C-14 17 -14 17 -16 14 C-16.82 9.4 -16.58 5.98 -14.19 1.94 C-9.47 -0.93 -5.38 -0.95 0 0 Z " fill="#000000" transform="translate(614,683)"/>
</svg>
