<?xml version="1.0" encoding="UTF-8"?>
<!-- Generator: visioncortex VTracer 0.6.3 -->
<svg version="1.1" xmlns="http://www.w3.org/2000/svg" width="989" height="1280">
<path d="M0 0 C0.66 0 1.32 0 2 0 C2.19 1.11 2.19 1.11 2.38 2.25 C4.35 12.32 8.17 20.99 13 30 C13.57 31.08 14.15 32.17 14.74 33.28 C19.01 40.18 23.67 42.64 30.99 45.43 C37.62 48.01 42 52 47 57 C48.31 58.02 49.64 59.03 51 60 C51.21 59.2 51.41 58.39 51.62 57.56 C56.56 44.77 66.11 36.47 78.34 30.88 C86.02 27.62 94.15 25.76 102.22 23.73 C106.67 22.56 111.05 21.18 115.44 19.81 C140.9 12.01 167.89 10.16 194 16 C194.75 16.17 195.49 16.33 196.26 16.5 C214.12 20.65 229.55 27.77 244 39 C258.9 50.41 271.29 54.69 290 53 C297.05 51.29 302.29 48.49 307 43 C307.66 43 308.32 43 309 43 C307.71 49.72 304.45 53.9 300 59 C299.35 59.76 298.7 60.51 298.03 61.29 C289.88 70.12 279.15 76.95 267 78 C265.16 78.16 265.16 78.16 263.27 78.32 C259.85 78.59 256.43 78.81 253 79 C259.56 84.64 266.17 90.19 273 95.5 C284.12 104.16 294.74 113.34 305 123 C306.19 124.11 306.19 124.11 307.4 125.23 C324.04 141.23 337.42 162.51 338.3 186.12 C338.61 213.65 330.99 238.56 322.25 264.44 C322.01 265.15 321.77 265.87 321.53 266.6 C320.85 268.63 320.15 270.66 319.45 272.68 C319.05 273.85 318.65 275.03 318.24 276.23 C317 279 317 279 314 281 C313.96 279.96 313.93 278.92 313.89 277.84 C313.08 258.97 310.39 240.15 298 225 C287.82 215.81 277.6 212.79 264.12 212.94 C262.95 212.94 262.95 212.94 261.75 212.95 C259.83 212.96 257.92 212.98 256 213 C256.81 213.77 257.62 214.55 258.45 215.34 C273.72 230.14 273.72 230.14 275 241 C274.99 248.46 272.98 254.23 269.62 260.81 C269.23 261.63 268.83 262.45 268.41 263.29 C266.79 266.6 265.13 269.79 263.19 272.93 C261.75 274.94 261.75 274.94 262.31 277.31 C262.54 277.87 262.77 278.43 263 279 C270.47 278.87 273.84 276.25 279 271 C279.62 272.8 279.62 272.8 280 275 C278.13 278.12 278.13 278.12 276 281 C275.67 281.66 275.34 282.32 275 283 C276.98 282.01 278.96 281.02 281 280 C279.86 283.98 278.07 286.5 274.78 289.05 C271.38 290.86 268.8 290.48 265 290 C262.08 288.6 260.28 287.28 258 285 C255.69 287.79 255.69 287.79 256.25 290.8 C257 294.02 257.98 297.06 259.06 300.19 C261.72 308.64 261.54 316.36 260 325 C261.32 323.02 262.64 321.04 264 319 C265.54 323.62 263.41 326.67 261.52 330.99 C258.08 337.81 253.3 341.84 247 346 C247.54 351.52 248.93 355.88 251.31 360.88 C251.66 361.61 252.01 362.34 252.36 363.09 C256.26 371 261.32 377.96 266.56 385.02 C267.92 386.9 269.22 388.8 270.49 390.75 C274.19 396.4 277.58 401.03 283.27 404.8 C286.32 406.92 288.35 409.71 290 413 C291.51 425.43 286.07 437.07 279 447 C275.08 451.39 270.82 455.37 266.44 459.29 C263.47 462.59 261.92 465.92 260.12 469.94 C257.23 476.03 254.86 480.31 249 484 C247.95 484.25 246.9 484.5 245.81 484.75 C242.86 485.7 242.86 485.7 241.95 488.16 C241.31 489.94 240.68 491.73 240.05 493.52 C238.42 497.37 236.52 498.75 233 501 C226.54 503.57 219.99 503.65 213.14 503.92 C211.75 503.97 210.35 504.03 208.96 504.1 C198.21 504.62 190.16 503.72 181.75 496.69 C176.55 491.76 172.43 486.78 168.75 480.62 C161.96 469.81 152.06 463.76 141 458 C140.35 457.66 139.71 457.32 139.04 456.97 C132.3 452.88 132.3 452.88 125 451 C125.07 452.26 125.14 453.52 125.22 454.82 C125.78 465.82 126.03 476.76 125.93 487.77 C125.92 488.81 125.91 489.85 125.9 490.91 C125.87 495.14 125.83 499.36 125.76 503.58 C125.7 506.59 125.67 509.61 125.64 512.62 C125.62 513.52 125.6 514.42 125.57 515.34 C125.53 524.99 129.54 532.62 134.38 540.75 C151.25 570.07 158.08 605.46 150.12 638.68 C144.69 658.53 134.86 676.51 117.06 687.88 C116.38 688.25 115.7 688.62 115 689 C116.36 695.73 118.26 702.07 120.54 708.55 C120.9 709.57 121.26 710.59 121.62 711.64 C122.8 715.01 124 718.38 125.19 721.75 C125.8 723.49 125.8 723.49 126.43 725.26 C133.31 744.74 140.42 764.13 147.67 783.47 C148.44 785.5 149.19 787.53 149.95 789.56 C151.37 793.36 152.81 797.17 154.25 800.97 C154.67 802.1 155.09 803.23 155.53 804.4 C158.44 812.05 161.95 817.66 166.94 824.12 C178.29 839.8 179.38 857.61 176.68 876.2 C174.13 891.38 167.97 906.83 156 917 C150.67 920.7 146.12 922.07 139.69 922.56 C136.64 922.84 136.64 922.84 134 924 C132.09 926.87 131.13 929.62 130.05 932.89 C125.87 945.22 114.17 951.03 103.31 956.59 C97.25 959.74 92.11 963.45 87 968 C86.3 968.59 85.59 969.17 84.87 969.77 C80.07 973.81 76.03 978.21 72 983 C71.16 983.95 70.33 984.89 69.47 985.87 C52.87 1004.64 52.87 1004.64 43.51 1027.14 C44.23 1032.81 46.55 1037.53 48.94 1042.69 C49.87 1044.73 50.79 1046.78 51.71 1048.82 C52.13 1049.72 52.54 1050.62 52.97 1051.55 C55.1 1056.62 55.69 1061.53 55 1067 C54.11 1069.16 53.1 1071.09 51.88 1073.08 C50.69 1075.67 50.6 1077.16 51 1080 C52.28 1082.27 53.57 1084.32 55.06 1086.44 C58.33 1091.31 61.35 1096.21 64 1101.44 C64.84 1103.08 64.84 1103.08 65.69 1104.75 C67.51 1109.27 68.54 1113.2 67.12 1117.94 C58.95 1129.72 46.6 1134.31 33 1137 C11.35 1140.91 -11.3 1136.56 -30.01 1125.14 C-44.4 1114.85 -53.07 1100.51 -56.19 1083.06 C-56.82 1078.91 -57.14 1074.81 -57.38 1070.62 C-57.77 1065.58 -58.7 1062.97 -62 1059 C-63.27 1057.19 -64.54 1055.38 -65.81 1053.56 C-68.7 1049.6 -71.7 1046.17 -75.22 1042.78 C-86.74 1031.26 -93.85 1017.5 -94.31 1001.19 C-93.98 984.63 -86.84 971.77 -77.01 958.89 C-74.23 954.9 -72.04 950.66 -69.88 946.3 C-67.1 940.81 -63.89 936.01 -58.69 932.56 C-55.73 930.25 -55.73 930.25 -55.5 926.94 C-55.91 923.74 -56.43 920.61 -57 917.44 C-58.6 908.29 -59.98 898.24 -55 890 C-53.4 887.94 -51.71 885.98 -50 884 C-47.04 875.13 -49.81 866.57 -53.7 858.45 C-57.89 850.25 -62.67 842.51 -68 835 C-68.72 833.98 -68.72 833.98 -69.46 832.94 C-75.59 824.32 -81.86 815.83 -88.34 807.46 C-110.38 778.87 -110.38 778.87 -115.09 767.33 C-116.9 764.59 -116.9 764.59 -120.71 764.46 C-122.27 764.48 -123.82 764.52 -125.38 764.58 C-126.21 764.59 -127.05 764.61 -127.92 764.62 C-130.61 764.66 -133.31 764.73 -136 764.81 C-139.5 764.9 -143 764.97 -146.5 765.02 C-147.37 765.03 -148.23 765.05 -149.13 765.06 C-157.52 765.13 -165.74 764.3 -174.06 763.24 C-176.77 762.9 -179.48 762.64 -182.19 762.38 C-183.45 762.25 -184.7 762.13 -186 762 C-186.28 762.86 -186.56 763.72 -186.85 764.61 C-191.21 777.46 -196.9 788.79 -206 799 C-207 800.14 -207 800.14 -208.02 801.3 C-217.38 811.34 -228.48 817.33 -241.31 821.71 C-242.53 822.14 -243.74 822.56 -245 823 C-245.64 823.2 -246.28 823.4 -246.94 823.61 C-250.41 824.83 -251.8 825.62 -253.52 828.93 C-253.8 830.04 -254.09 831.16 -254.38 832.31 C-254.67 833.42 -254.97 834.53 -255.27 835.68 C-257.14 844.22 -257.24 852.55 -257.25 861.25 C-257.25 862.03 -257.25 862.81 -257.25 863.62 C-257.23 877.92 -256.21 891.86 -254 906 C-253.84 907.06 -253.68 908.12 -253.51 909.21 C-249.67 933.97 -243.67 958.38 -237.2 982.57 C-236.73 984.32 -236.27 986.07 -235.8 987.83 C-234.92 991.14 -234.02 994.44 -233.1 997.75 C-230.08 1008.88 -228.37 1019.54 -231 1031 C-231.66 1031 -232.32 1031 -233 1031 C-256.16 972.58 -276.85 886.06 -262 824 C-263.65 823.67 -265.3 823.34 -267 823 C-267 822.34 -267 821.68 -267 821 C-265.75 820.6 -264.51 820.2 -263.22 819.79 C-247.25 814.51 -232.71 808.24 -220 797 C-219.33 796.48 -218.66 795.97 -217.97 795.44 C-207.4 787.06 -200.22 774.25 -195 762 C-195 761.34 -195 760.68 -195 760 C-195.93 759.7 -195.93 759.7 -196.87 759.39 C-214.28 753.69 -229.16 747.62 -243.39 736 C-245.9 733.85 -245.9 733.85 -249 733 C-249.34 733.9 -249.68 734.79 -250.03 735.72 C-263.74 771.26 -286.31 802.11 -318.17 823.42 C-319.12 824.07 -319.12 824.07 -320.1 824.72 C-321.37 825.58 -322.65 826.41 -323.94 827.23 C-324.55 827.63 -325.17 828.04 -325.8 828.45 C-326.35 828.8 -326.89 829.15 -327.45 829.5 C-330.68 832.62 -331.9 836.01 -332.36 840.41 C-332.24 848.75 -331.59 856.78 -330.12 865 C-329.91 866.24 -329.7 867.48 -329.48 868.76 C-327.14 882.15 -324.16 895.42 -321.27 908.7 C-317.79 924.72 -314.71 940.68 -313 957 C-312.87 958.11 -312.87 958.11 -312.75 959.24 C-311.97 966.67 -311.85 974.06 -311.83 981.51 C-311.82 983.72 -311.81 985.93 -311.79 988.14 C-311.74 994.41 -311.69 1000.68 -311.67 1006.95 C-311.66 1010.81 -311.63 1014.66 -311.59 1018.52 C-311.58 1019.98 -311.58 1021.44 -311.58 1022.9 C-311.59 1031.58 -311.58 1038.85 -305.51 1045.68 C-293.22 1057.97 -272.08 1061.21 -255.5 1061.25 C-237.03 1061.3 -237.03 1061.3 -221 1053 C-218.65 1049.47 -218.59 1048.16 -219 1044 C-220.4 1040.7 -220.4 1040.7 -222 1038 C-218.73 1038.24 -217.7 1039.28 -215.25 1041.56 C-213.3 1044.07 -212.62 1045.89 -212.5 1049.06 C-213 1053.02 -213.95 1054.7 -216 1058 C-215.69 1062.49 -213.79 1064.89 -211 1068.31 C-207.21 1073.19 -204.01 1078.16 -201 1083.56 C-200.61 1084.25 -200.23 1084.94 -199.83 1085.66 C-196.88 1091.04 -195.48 1094.81 -196 1101 C-198.69 1106.72 -202.3 1108.87 -208 1111 C-231.46 1118.65 -264.01 1116.85 -286.75 1106.75 C-296.7 1101.01 -299.35 1090.76 -302.4 1080.32 C-303.3 1076.83 -303.82 1073.31 -304.38 1069.75 C-305.16 1064.95 -305.16 1064.95 -307.78 1061.02 C-309.16 1060.06 -310.57 1059.15 -312 1058.29 C-317.29 1054.87 -319.21 1049.02 -320.81 1043.19 C-323.31 1031.01 -322.29 1018.19 -321.22 1005.88 C-319.32 972.24 -325.76 938.12 -333.17 905.43 C-333.41 904.37 -333.65 903.31 -333.9 902.21 C-334.11 901.3 -334.32 900.38 -334.54 899.44 C-335 897 -335 897 -335 893 C-335.67 893.52 -336.33 894.04 -337.02 894.57 C-341.92 898.28 -346.37 901.3 -352.12 903.5 C-354.83 904.61 -354.83 904.61 -357 906 C-358.18 909.28 -358.2 910.64 -358 914 C-358.04 915.02 -358.09 916.04 -358.13 917.09 C-359.05 944.83 -353.06 972.84 -346.39 999.63 C-346.16 1000.55 -345.93 1001.47 -345.7 1002.42 C-344.58 1006.94 -343.44 1011.46 -342.25 1015.97 C-339.85 1025.4 -338.48 1033.99 -339.12 1043.75 C-339.39 1049.08 -338.47 1051.7 -335 1056 C-333.96 1057.52 -332.92 1059.04 -331.88 1060.56 C-331.38 1061.29 -330.88 1062.01 -330.37 1062.75 C-327.99 1066.66 -326.69 1070.16 -326.56 1074.75 C-326.52 1075.53 -326.48 1076.31 -326.44 1077.11 C-327.3 1081.56 -329.67 1085.15 -332 1089 C-331.5 1089.72 -331.5 1089.72 -330.99 1090.46 C-313.29 1116.29 -313.29 1116.29 -314 1125 C-317.3 1131.88 -322.47 1133.71 -329.25 1136.19 C-351.75 1141.06 -377.66 1138.37 -400.06 1134.12 C-401.28 1133.9 -401.28 1133.9 -402.53 1133.67 C-409.4 1132.26 -414.47 1129.45 -418.9 1123.82 C-421.1 1120.18 -422.09 1116.14 -423.19 1112.06 C-423.56 1110.76 -423.56 1110.76 -423.94 1109.43 C-425 1105.67 -426.01 1101.95 -426.82 1098.12 C-428.34 1094.11 -430.01 1093.17 -433.69 1091.06 C-443.26 1085.11 -449.41 1077.68 -452.25 1066.69 C-454.01 1057.13 -452.77 1047.8 -451.12 1038.31 C-450.91 1037.04 -450.7 1035.78 -450.47 1034.47 C-448.18 1021.2 -445.33 1008.04 -442.54 994.86 C-439.29 979.54 -436.29 964.18 -433.56 948.75 C-433.32 947.39 -433.32 947.39 -433.07 946 C-430.84 933.36 -428.85 920.7 -427 908 C-428.41 908.74 -428.41 908.74 -429.85 909.5 C-440.85 915.26 -452.35 920.16 -464.96 920.1 C-466.07 920.09 -467.18 920.09 -468.33 920.09 C-469.48 920.08 -470.63 920.07 -471.81 920.06 C-472.98 920.06 -474.15 920.05 -475.36 920.05 C-478.24 920.04 -481.12 920.02 -484 920 C-483 917 -483 917 -480.12 915.46 C-478.89 914.91 -477.67 914.36 -476.44 913.81 C-468.5 910.04 -462.48 905.65 -458.5 897.56 C-454.19 884.99 -457.13 871.27 -461 859 C-461.29 858.05 -461.58 857.09 -461.88 856.11 C-462.77 853.85 -462.77 853.85 -464.8 853.37 C-467.05 852.99 -469.03 852.95 -471.31 853.04 C-485.66 853.47 -498.23 852.09 -510 843 C-512.53 840.47 -514.82 837.84 -517 835 C-516.67 834.34 -516.34 833.68 -516 833 C-513.68 832.49 -511.34 832.07 -509 831.69 C-501.49 830.3 -494.98 828.89 -490.16 822.59 C-486.12 816.13 -484.85 811.56 -484.81 803.94 C-484.8 802.71 -484.78 801.48 -484.77 800.21 C-484.74 796.85 -484.74 796.85 -487 794 C-488.23 794.63 -488.23 794.63 -489.48 795.28 C-490.56 795.83 -491.64 796.37 -492.75 796.94 C-494.35 797.76 -494.35 797.76 -495.98 798.59 C-505.45 803.01 -518.34 801.97 -528.19 799.1 C-539.02 794.87 -546.25 787.9 -551.38 777.56 C-553.33 772.82 -553.79 768.09 -554 763 C-549.47 765.63 -545.23 768.61 -540.99 771.68 C-535.17 775.8 -529.25 778.74 -522 779 C-518.28 778.12 -515.92 777.34 -513.71 774.11 C-508.29 762.92 -509.85 751.43 -513.69 739.93 C-516.79 731.57 -520.72 723.55 -524.58 715.52 C-545.6 671.64 -556.07 627.63 -540 580 C-530.04 552.6 -515.64 528.52 -496 507 C-495.25 506.18 -494.51 505.36 -493.74 504.52 C-474.49 484.41 -447.34 467.66 -418.93 466.8 C-403.89 466.59 -391.96 467.66 -379 476 C-378.34 476.66 -377.68 477.32 -377 478 C-373.87 477.93 -372.81 476.82 -370.51 474.66 C-369.57 473.65 -368.63 472.64 -367.69 471.62 C-343.24 446.36 -307.09 432.93 -272.23 431.8 C-241.26 431.31 -209.18 439.15 -184 458 C-184 458.66 -184 459.32 -184 460 C-188.1 458.75 -191.83 457.17 -195.66 455.28 C-224.56 441.01 -257.34 435.27 -289 443 C-289.97 443.22 -289.97 443.22 -290.96 443.44 C-309.4 447.65 -327.92 456.65 -343 468 C-343.97 468.69 -344.95 469.39 -345.95 470.1 C-380.44 495.1 -398.63 529.82 -407 571 C-407.25 572.14 -407.49 573.27 -407.75 574.44 C-415.09 614.93 -402.4 656.53 -390.06 694.68 C-380.27 725.11 -369.47 761.63 -384.81 791.94 C-387.62 796.72 -390.86 801.28 -395 805 C-395.66 805 -396.32 805 -397 805 C-396.71 804.16 -396.71 804.16 -396.41 803.31 C-393.57 794.98 -391.63 787.86 -392 779 C-392.44 779.61 -392.88 780.21 -393.34 780.84 C-398.94 787.81 -404.8 791.54 -412.79 795.42 C-413.55 795.8 -414.31 796.19 -415.09 796.58 C-415.77 796.9 -416.45 797.23 -417.15 797.56 C-419.86 799.67 -420.76 801.81 -422 805 C-422.91 813.45 -421.9 821.9 -420.58 830.25 C-414.85 866.85 -417.33 904.42 -422 941 C-422.17 942.36 -422.17 942.36 -422.35 943.75 C-424.98 964.66 -428.11 985.46 -431.9 1006.18 C-432.02 1006.87 -432.15 1007.56 -432.28 1008.26 C-433.64 1015.7 -435.02 1023.14 -436.44 1030.57 C-436.68 1031.82 -436.91 1033.08 -437.16 1034.37 C-437.59 1036.7 -438.04 1039.04 -438.5 1041.36 C-440.47 1051.96 -442.22 1063.23 -436.53 1072.89 C-427.73 1085.01 -410.84 1089.77 -396.75 1092.25 C-381.47 1094.15 -364.79 1094.69 -350 1090 C-349.05 1089.7 -348.1 1089.4 -347.12 1089.09 C-340.65 1086.77 -336.85 1083.78 -333 1078 C-331.34 1069.61 -334.79 1063.08 -339 1056 C-339.33 1055.67 -339.66 1055.34 -340 1055 C-340.99 1056.32 -341.98 1057.64 -343 1059 C-344.77 1053.03 -346.4 1047.02 -348 1041 C-348.3 1039.87 -348.6 1038.75 -348.91 1037.58 C-353.71 1019.23 -357.18 1000.84 -359.88 982.06 C-360.02 981.05 -360.17 980.05 -360.31 979.01 C-361.26 972.34 -362.16 965.68 -363 959 C-363.11 958.16 -363.21 957.33 -363.32 956.47 C-364.81 944.47 -365.41 932.59 -365.38 920.5 C-365.37 919.64 -365.37 918.77 -365.37 917.88 C-365.28 890.42 -360.61 864.44 -350 839 C-356.05 840.07 -362.06 841.18 -368.03 842.63 C-370 843 -370 843 -374 843 C-374 842.34 -374 841.68 -374 841 C-373.39 840.75 -372.78 840.5 -372.16 840.24 C-347.21 829.88 -326 817.52 -307 798 C-306.52 797.56 -306.03 797.12 -305.54 796.67 C-284.92 777.47 -272.23 748.43 -268 721 C-267.86 720.26 -267.73 719.52 -267.59 718.75 C-266.93 711.98 -269.69 707.65 -273.22 702.16 C-290.99 674.24 -294.69 639.14 -288.22 607.16 C-284.83 593.29 -279.13 580.73 -271 569 C-270.34 568.01 -269.68 567.02 -269 566 C-268.34 566 -267.68 566 -267 566 C-268.36 570.44 -270.14 574.34 -272.31 578.44 C-280.43 594.35 -285.4 613 -284 631 C-283.92 632.16 -283.84 633.32 -283.75 634.52 C-280.76 665.48 -265.48 696.48 -242 717 C-207.67 744.06 -163.72 752.44 -121 752 C-121.14 751.41 -121.28 750.81 -121.43 750.2 C-122.87 743.71 -123.31 737.58 -123.25 730.94 C-123.26 730.01 -123.27 729.08 -123.27 728.12 C-123.26 723.64 -123.01 719.55 -121.92 715.19 C-121.01 711.46 -120.79 708.74 -122 705 C-123.76 702.6 -123.76 702.6 -126.06 700.44 C-141.86 683.69 -152.37 657.22 -152 634 C-150.23 636.66 -149.63 637.92 -148.96 640.89 C-148.77 641.65 -148.59 642.42 -148.4 643.21 C-148.21 644.03 -148.01 644.84 -147.81 645.69 C-145.48 654.98 -142.19 663.4 -138 672 C-137.53 672.98 -137.06 673.97 -136.57 674.98 C-133.82 680.37 -130.53 685.2 -126.88 690 C-126.46 690.55 -126.04 691.11 -125.6 691.67 C-123.32 694.58 -121.09 696.95 -118 699 C-117.19 697.28 -117.19 697.28 -117 695 C-118.29 692.29 -118.29 692.29 -120.19 689.5 C-124.6 682.29 -128.39 674.63 -128 666 C-124.94 669.68 -123.01 673.79 -120.94 678.06 C-120.24 679.49 -119.54 680.92 -118.84 682.35 C-118.53 682.98 -118.23 683.61 -117.91 684.25 C-116.9 686.26 -116.9 686.26 -115 689 C-113.06 688.72 -113.06 688.72 -111 688 C-110.34 687.01 -109.68 686.02 -109 685 C-108.34 685.33 -107.68 685.66 -107 686 C-107.34 687.05 -107.68 688.11 -108.02 689.19 C-116.44 716.08 -115.34 739.96 -102.32 765.26 C-96.06 776.64 -88.44 787.07 -80.68 797.46 C-39.29 852.93 -39.29 852.93 -41.18 878.48 C-41.96 883.52 -43.64 887.32 -46.12 891.75 C-53.28 905.63 -47.03 921.43 -43.27 935.54 C-37.28 958.24 -37.86 974.57 -49 995.5 C-56.88 1010.31 -61.89 1024.04 -58.38 1041.02 C-53 1056.25 -38.87 1065.57 -24.99 1072.32 C-7.66 1080.4 16.06 1085.06 34.69 1078.31 C40.22 1075.67 44.41 1072.26 47.94 1067.25 C51.43 1056.57 46.89 1047.54 42.82 1037.69 C35.75 1019.83 35.59 1002.37 35.81 983.38 C35.83 981.1 35.84 978.82 35.85 976.54 C35.89 971.03 35.94 965.51 36 960 C35.53 960.41 35.06 960.83 34.57 961.25 C33.95 961.8 33.33 962.34 32.68 962.9 C32.07 963.44 31.45 963.97 30.82 964.53 C28.48 966.42 26.08 967.63 23.31 968.81 C22.4 969.21 21.49 969.61 20.55 970.02 C15.73 971.87 11.76 972.14 6.56 972.12 C5.26 972.13 3.97 972.13 2.63 972.13 C-0.4 972.02 -3.06 971.71 -6 971 C-6 970.34 -6 969.68 -6 969 C-5.03 968.91 -4.07 968.83 -3.07 968.74 C8.04 967.54 16.34 965.05 24.62 957.14 C26 956 26 956 28 956 C28.41 955.13 28.41 955.13 28.82 954.23 C29.98 952.03 31.31 950.23 32.81 948.25 C45.29 929.55 44.49 903.16 40.75 881.94 C38.19 870.69 34.29 864.94 25.59 857.42 C3.05 836.34 8.11 782.71 7.07 754.37 C6.77 744.58 6.83 734.79 7 725 C5.97 725.42 4.95 725.84 3.89 726.28 C-4.09 729.46 -11.28 731.96 -20 732 C-17.38 728.81 -14.36 727.79 -10.56 726.31 C1.78 721.24 11.6 713.32 21 704 C21.88 703.14 22.76 702.27 23.66 701.38 C42.1 682.2 52.12 655.01 52.03 628.53 C51.06 588.36 27.96 554.24 1.53 525.75 C-1.4 522.57 -4.22 519.31 -7 516 C-6.67 515.34 -6.34 514.68 -6 514 C-3.02 516.92 -0.06 519.86 2.91 522.8 C3.91 523.79 4.91 524.78 5.92 525.77 C12.77 532.5 19.04 539.45 25 547 C25.89 548.08 26.78 549.17 27.68 550.25 C48.33 576.12 62.65 608.9 59.69 642.5 C56.58 668.87 46.16 689.78 28 709 C27.38 709.66 26.76 710.32 26.12 711 C23.28 713.95 20.64 716.27 17.12 718.38 C14.81 719.92 14.12 720.59 13.34 723.31 C13.09 725.56 12.97 727.74 13 730 C54.17 713.19 78.23 677.9 98 640 C99.16 643.49 98.85 644.03 97.48 647.29 C97.12 648.14 96.76 648.99 96.4 649.87 C95.8 651.23 95.8 651.23 95.19 652.62 C94.78 653.56 94.37 654.5 93.95 655.46 C88.13 668.56 80.83 680.7 72 692 C71.3 692.9 70.61 693.8 69.89 694.73 C55.71 712.58 38.19 726.47 18 737 C17.34 737 16.68 737 16 737 C15.15 758.87 24.91 772.27 38 789 C39.07 790.38 40.15 791.76 41.22 793.14 C47.49 801.22 47.49 801.22 53.79 809.27 C75.66 837.13 75.66 837.13 74 857 C72.03 865.12 66.42 871.29 60 876.38 C56.73 878.15 53.58 879.03 50 880 C50.14 880.89 50.29 881.78 50.44 882.69 C53.8 905.85 53.86 930.76 42.46 951.86 C40.19 957.2 40.61 962.76 40.67 968.47 C40.67 969.66 40.68 970.86 40.68 972.09 C40.68 974.61 40.7 977.12 40.72 979.64 C40.75 983.49 40.76 987.33 40.77 991.18 C40.77 993.63 40.79 996.08 40.8 998.53 C40.8 999.68 40.81 1000.82 40.81 1002 C40.86 1007.43 41.04 1012.65 42 1018 C42.41 1016.94 42.83 1015.87 43.25 1014.77 C55.42 983.93 75.1 958.14 104.46 942.11 C112.33 937.79 117.97 933.22 122 925 C122.37 923.68 122.72 922.35 123 921 C121.95 920.71 120.9 920.42 119.82 920.12 C107.34 916.53 98.17 912.42 91 901 C88.88 896.73 88.88 896.73 89.38 893.69 C89.58 893.13 89.79 892.57 90 892 C90.34 892.5 90.68 892.99 91.03 893.5 C97.3 902.29 104.09 908.95 115 911 C127.08 912.14 139.65 912.51 149.75 904.94 C163.01 887.63 170.2 868.05 167.38 846.19 C165.78 837.47 161.99 830.15 156.25 823.44 C144.07 808.76 138.1 789.76 132 772 C131.61 770.87 131.22 769.75 130.82 768.59 C122.11 743.29 115.86 717.3 111 691 C108.69 691.33 106.38 691.66 104 692 C104 691.01 104 690.02 104 689 C105.5 687.64 105.5 687.64 107.56 686.25 C128.02 671.47 136.39 644.9 140.31 620.94 C143.83 589.62 138.42 560.48 125 532 C124.81 533.22 124.81 533.22 124.62 534.47 C122.22 549.9 119.75 565.08 115 580 C114.34 579.67 113.68 579.34 113 579 C113.06 578.16 113.12 577.33 113.18 576.46 C113.27 575.3 113.35 574.14 113.44 572.94 C113.52 571.81 113.6 570.69 113.68 569.53 C113.73 568.85 113.78 568.17 113.82 567.47 C113.96 565.62 114.1 563.77 114.25 561.92 C115.11 550.71 115.2 539.55 115.19 528.31 C115.19 526.81 115.19 526.81 115.19 525.28 C115.16 498.42 113.61 471.73 111 445 C110.38 444.82 109.77 444.65 109.14 444.46 C68.19 432.48 31.94 409.87 11.03 371.93 C2.12 355.18 -3.23 336.72 -6 318 C-6.1 317.36 -6.19 316.72 -6.29 316.06 C-7.24 308.87 -7.11 301.68 -7.06 294.44 C-7.06 293.14 -7.05 291.85 -7.05 290.51 C-7.04 287.34 -7.02 284.17 -7 281 C-6.67 281 -6.34 281 -6 281 C-5.89 282.08 -5.78 283.16 -5.67 284.27 C-1.29 326.25 9.99 365.2 43.2 393.79 C63.66 409.9 86.66 420.57 110.56 430.5 C121.25 434.94 131.85 439.41 142 445 C143.13 445.62 144.25 446.24 145.41 446.88 C159.62 455.13 168.27 465.08 177.09 478.64 C182.22 486.45 187.49 492.74 197 495 C203.5 495.7 210.02 495.45 216.54 495.12 C218.58 495.02 220.61 494.97 222.65 494.93 C227.07 494.75 230.12 494.34 233.69 491.62 C236.33 489.21 236.33 489.21 236 486 C234.2 485.85 234.2 485.85 232.37 485.7 C212.27 483.92 193.94 480 180.24 463.93 C177.25 459.93 174.86 455.78 172.66 451.31 C172.24 450.47 171.82 449.63 171.39 448.76 C170.57 447.08 169.76 445.39 168.99 443.69 C165.93 437.42 162.38 434.75 156 432 C156 431.67 156 431.34 156 431 C159.6 430.66 161.71 430.86 165 432.44 C170.47 437.11 173.56 443.11 176.81 449.44 C183.75 462.21 194.15 469.99 207.69 474.88 C209.12 475.28 210.56 475.65 212 476 C212.76 476.2 213.51 476.4 214.29 476.61 C220.54 478.04 226.8 478.27 233.19 478.38 C234.03 478.4 234.87 478.43 235.74 478.45 C241.63 478.47 246.1 477.35 251 474 C253.36 471.3 254.72 468.78 255.93 465.4 C258.92 457.15 263.21 452.14 269.19 445.95 C276.59 438.29 280.82 428.27 281.56 417.56 C280.84 412.98 279.41 411.11 276 408 C269.65 404.9 263.36 405.66 256.69 407.06 C248.61 408.61 241.81 407.78 234.12 404.94 C225.02 401.72 215.93 401.62 207.09 405.75 C201.34 409.19 199.14 414.07 197.5 420.3 C195.87 429.04 197.28 436.63 200 445 C199.01 444.67 198.02 444.34 197 444 C192.4 434.81 191.55 424.73 194.06 414.75 C196.31 408.23 200.62 403.18 206.44 399.5 C214.89 395.88 224.97 396.92 233.32 400.16 C234.69 400.72 236.04 401.28 237.4 401.85 C244.91 404.94 251.18 404.97 258.82 402.44 C262.22 401.76 265.54 401.94 269 402 C268.39 401.16 267.79 400.33 267.16 399.46 C264.42 395.66 261.71 391.83 259 388 C258.55 387.37 258.1 386.74 257.64 386.09 C242.02 364.01 235.71 340.1 240.02 313.19 C243.55 294.12 250.69 276.69 259.68 259.59 C263.67 251.88 265.55 244.61 263.52 235.97 C261.46 231.04 257.72 227.18 254.19 223.25 C253.69 222.69 253.19 222.14 252.68 221.57 C247.77 216.33 242.6 212.66 235.2 212.02 C231.1 211.99 227.06 212.46 223 213 C223.68 213.55 224.36 214.09 225.05 214.65 C228.05 217.08 231.03 219.53 234 222 C234.89 222.74 235.79 223.49 236.71 224.25 C245.46 231.79 253.64 241.33 255.31 253.2 C255.45 257.46 254.57 261.06 253 265 C250.81 262.81 250.1 261.07 248.88 258.25 C244.16 248.76 235.64 245.36 226 242 C214.42 238.72 202.72 236.61 190.85 234.72 C177.43 232.57 163.97 229.64 151.81 223.31 C151.16 222.98 150.51 222.64 149.84 222.3 C138.51 216.26 129.48 208.5 122 198 C121.45 197.23 120.9 196.47 120.33 195.68 C112.15 183.24 109.22 168.73 106.91 154.26 C105.56 146.3 103.65 138.66 97.79 132.78 C89 127.58 81.11 126.58 71 126 C69.52 130.16 68.51 134.23 67.69 138.56 C65.17 150.5 60.46 161.65 54 172 C53.34 172.33 52.68 172.66 52 173 C52.91 167.35 54.96 162.06 56.83 156.68 C63.56 136.98 60.28 116.77 51.41 98.36 C45.38 86.5 37.28 76.21 28.85 66 C15.33 49.53 -0.31 27.89 -0.06 5.69 C-0.05 4.62 -0.04 3.55 -0.04 2.45 C-0.02 1.24 -0.02 1.24 0 0 Z M62.69 66.5 C57.37 72.68 57.37 72.68 54 80 C54.6 82.41 54.6 82.41 56 85 C56.43 85.89 56.43 85.89 56.87 86.8 C57.88 88.85 58.9 90.9 59.94 92.94 C60.46 93.97 60.46 93.97 60.99 95.03 C61.67 96.38 62.35 97.73 63.03 99.09 C64.36 101.72 65.68 104.36 67 107 C67.76 106.48 68.53 105.97 69.31 105.44 C69.87 105.07 70.42 104.71 71 104.33 C72.44 103.37 73.86 102.4 75.29 101.42 C100.39 84.61 132.78 78.68 162.44 84.19 C186.04 90.04 200.69 104.05 216.38 121.67 C230.93 137.97 245.75 148.71 266.31 156.12 C287.77 163.93 300.02 177.16 309.75 197.31 C313.14 204.65 315.39 212.28 317.48 220.07 C318.29 223.06 319.14 226.03 320 229 C320.33 229 320.66 229 321 229 C327.6 201 327.52 174.38 313 149 C306.66 138.96 298.22 130.5 290 122 C288.81 120.77 288.81 120.77 287.61 119.52 C283.99 115.84 280.24 112.4 276.33 109.05 C273.34 106.42 270.42 103.71 267.5 101 C261.69 95.62 255.78 90.37 249.75 85.23 C248.54 84.19 247.33 83.16 246.12 82.12 C245.51 81.6 244.9 81.08 244.27 80.55 C240.79 77.57 237.37 74.54 234 71.44 C221.65 60.3 208.83 50.59 193 45 C192.67 44.34 192.34 43.68 192 43 C194.09 43.45 196.17 43.91 198.25 44.38 C200.09 44.79 201.93 45.2 203.78 45.59 C215.55 48.26 225.79 53.23 236.19 59.19 C245.82 64.68 255.38 68.99 266.64 66.39 C271.8 65.06 271.8 65.06 276 62 C275.2 61.93 274.4 61.85 273.58 61.77 C258.54 59.97 249.03 52.87 237.88 43.15 C187.13 1.06 104.19 21.9 62.69 66.5 Z M59 54 C56.05 57.49 53.53 61.2 51 65 C50.53 64.55 50.05 64.11 49.57 63.64 C41.79 56.25 41.79 56.25 32 53 C33.33 55.9 34.82 58.15 36.93 60.53 C37.5 61.18 38.07 61.82 38.65 62.49 C39.24 63.15 39.83 63.82 40.44 64.5 C41.6 65.82 42.77 67.14 43.93 68.47 C44.47 69.08 45.02 69.7 45.57 70.33 C47 72 47 72 48.79 74.47 C49.19 74.97 49.59 75.48 50 76 C50.66 76 51.32 76 52 76 C52.48 74.97 52.97 73.95 53.47 72.89 C57.63 64.24 62.04 56.56 68 49 C69 47.67 70 46.34 71 45 C66.42 45 62.09 50.93 59 54 Z M69.63 107.99 C67.8 110.24 67.5 111.15 67.62 114 C67.64 114.66 67.65 115.32 67.66 116 C68.05 118.29 68.93 119.95 70 122 C70.64 121.98 71.28 121.97 71.94 121.95 C74.9 121.89 77.85 121.85 80.81 121.81 C81.82 121.79 82.82 121.76 83.86 121.74 C94.61 121.63 104.84 123.55 113 131 C119.45 138.3 120.73 147.45 122.53 156.68 C126.47 176.19 132.54 193.44 149.3 205.68 C163.82 214.84 179.66 218.4 196.19 222.19 C199.55 222.97 202.91 223.76 206.27 224.54 C208.34 225.03 210.41 225.51 212.49 225.98 C219.04 227.5 225.53 229.19 232 231 C227.55 225.38 222.83 221.37 217 217.25 C215.3 216.03 213.61 214.8 211.92 213.57 C211.09 212.97 210.25 212.37 209.4 211.75 C196.08 202.04 184.67 192.17 176 178 C176 177.34 176 176.68 176 176 C176.75 176.82 176.75 176.82 177.51 177.65 C188.18 188.85 202.19 199.44 218.24 200.09 C220.95 200.14 223.66 200.14 226.38 200.12 C227.38 200.12 228.38 200.12 229.42 200.12 C235.72 200.1 241.99 199.88 248.28 199.54 C270.45 198.35 290.78 200.06 308.12 215.38 C309.42 216.58 310.72 217.78 312 219 C313.38 214.87 311.77 212.4 310.06 208.62 C309.74 207.91 309.42 207.2 309.09 206.46 C299.37 185.35 285.77 170.7 264 162 C261.51 161.17 259.01 160.35 256.5 159.56 C235.75 152.84 222.31 138.84 208.38 122.88 C207.85 122.27 207.32 121.67 206.78 121.05 C205.38 119.43 203.98 117.8 202.59 116.17 C188.34 99.73 169.72 90.36 148 88 C121.25 86.53 90.99 90.02 69.63 107.99 Z M313 219 C314 221 314 221 314 221 Z M251 299 C248.77 303.74 247.54 307.72 247 313 C248.98 313.99 248.98 313.99 251 315 C253.31 310.53 253.66 305.95 253 301 C252.34 300.34 251.68 299.68 251 299 Z M-498 524 C-501.71 528.42 -504.94 533.11 -508 538 C-508.38 538.6 -508.76 539.2 -509.16 539.82 C-519.51 556.39 -525.84 574.99 -530 594 C-530.16 594.73 -530.33 595.47 -530.5 596.22 C-535.04 617.41 -534.9 640.13 -529 661 C-528.75 661.88 -528.51 662.77 -528.25 663.68 C-524.32 677.29 -518.88 690.06 -512.94 702.89 C-508.24 713.07 -504 723.18 -501 734 C-500.61 735.37 -500.61 735.37 -500.21 736.77 C-497 750 -498.45 763.51 -504.88 775.5 C-508.93 780.27 -512.81 783.64 -519 785 C-524.61 785.36 -528.58 784.56 -534 783 C-536.15 783.39 -536.15 783.39 -538 784 C-528.05 792.37 -518.83 794.02 -506.01 793.22 C-499.56 792.52 -494.16 790.02 -489 786.19 C-487.51 785.1 -487.51 785.1 -486 784 C-482.47 785.18 -482.14 785.96 -480.31 789.06 C-479.88 789.8 -479.44 790.53 -478.99 791.29 C-478.66 791.85 -478.34 792.42 -478 793 C-476.6 792.86 -475.21 792.71 -473.81 792.56 C-473.04 792.48 -472.26 792.4 -471.46 792.32 C-469.03 792.04 -469.03 792.04 -466.78 791.5 C-462.77 790.78 -458.76 790.63 -454.69 790.44 C-453.85 790.39 -453.02 790.35 -452.15 790.31 C-450.1 790.2 -448.05 790.1 -446 790 C-440.47 777.92 -444.83 760.55 -449.06 748.44 C-453.09 738.78 -459.14 730.19 -465 721.58 C-486.48 689.97 -498.59 656.13 -491.76 617.35 C-490.26 609.93 -488.26 602.86 -485 596 C-485.28 597.15 -485.55 598.29 -485.84 599.47 C-486.21 601 -486.57 602.53 -486.94 604.06 C-487.12 604.81 -487.3 605.57 -487.49 606.34 C-491.91 624.92 -492.16 646.54 -487 665 C-486.82 665.67 -486.65 666.34 -486.46 667.03 C-481.02 687.09 -470.2 704.59 -458.6 721.63 C-443.62 743.7 -438.99 764.62 -442 791 C-437.33 794.12 -433.4 792.9 -428 792 C-424.61 791.32 -421.24 790.55 -417.88 789.75 C-417.04 789.56 -416.21 789.37 -415.35 789.17 C-406.4 786.93 -397.98 783.12 -393 775 C-383.92 751.76 -400.34 720.26 -408 698 C-421.73 658.08 -421.73 658.08 -425 640 C-425.23 638.8 -425.46 637.6 -425.7 636.37 C-431.2 603.53 -426.92 569.6 -414 539 C-413.55 537.92 -413.55 537.92 -413.08 536.82 C-406.46 521.4 -397.79 507.06 -387.44 493.86 C-384.95 490.61 -383.39 488.12 -383 484 C-423.35 460.6 -471.48 494.4 -498 524 Z M18 787 C18.53 792.49 19.07 797.98 19.6 803.47 C19.78 805.33 19.96 807.19 20.14 809.05 C20.23 809.94 20.31 810.84 20.4 811.76 C20.49 812.65 20.58 813.54 20.66 814.47 C20.84 816.28 21.02 818.08 21.21 819.89 C21.66 824.4 22.08 828.9 22.4 833.42 C22.47 834.28 22.54 835.15 22.62 836.03 C22.75 837.66 22.86 839.28 22.96 840.91 C23.3 844.87 23.85 846.82 26.42 849.91 C28.88 851.91 31.38 853.82 33.94 855.69 C39.13 859.78 42.05 864.15 45 870 C45.41 870.8 45.83 871.59 46.25 872.41 C47.19 874.26 48.1 876.13 49 878 C55.17 876.37 58.25 871.84 61.46 866.63 C65.67 858.85 67.06 851.88 64.78 843.24 C60.14 829.87 48.88 819.65 39.42 809.52 C33.27 802.92 27.42 796.16 21.85 789.05 C21.24 788.38 20.63 787.7 20 787 C19.34 787 18.68 787 18 787 Z M-53 941 C-62.36 950.41 -67.08 959.87 -67.25 973.19 C-67.23 978.94 -66.61 983.74 -64.66 989.14 C-64 991 -64 991 -64 993 C-71.11 985.16 -74.03 975.42 -75 965 C-78.05 967.6 -79.41 970.58 -81.06 974.19 C-81.57 975.27 -82.08 976.36 -82.6 977.48 C-87.75 990.42 -88.04 1005.98 -83.27 1019.09 C-79.25 1028.78 -79.25 1028.78 -72 1036 C-71.9 1034.84 -71.8 1033.68 -71.7 1032.48 C-70.01 1014.13 -63.99 1001.08 -53.62 986.06 C-46.55 975.67 -45.39 963 -47.57 950.83 C-48.74 946.67 -49.72 943.91 -53 941 Z M-224 1063 C-226.96 1064.11 -229.83 1065.34 -232.71 1066.64 C-242.82 1070.96 -253.51 1071.36 -264.38 1071.31 C-266.15 1071.31 -266.15 1071.31 -267.95 1071.31 C-275.45 1071.23 -282.25 1070.65 -289.5 1068.66 C-292.21 1067.83 -292.21 1067.83 -296 1068 C-295.19 1078.36 -292.78 1089.62 -285 1097 C-269.14 1109.71 -245.4 1111.24 -226 1110 C-217.92 1108.91 -208.96 1106.96 -203 1101 C-202.22 1095.42 -204.26 1091.73 -206.88 1087 C-207.27 1086.26 -207.67 1085.53 -208.08 1084.77 C-214.4 1072.33 -214.4 1072.33 -224 1063 Z M-53 1069 C-50.96 1083.82 -45.77 1099.03 -34 1109 C-13.6 1124.03 10.63 1131.85 36.06 1128.31 C44.66 1126.7 54.08 1123.72 60 1117 C61.53 1111.61 60.81 1108.62 58.24 1103.9 C57.83 1103.19 57.42 1102.48 57 1101.75 C56.59 1101.01 56.18 1100.27 55.76 1099.51 C52.41 1093.53 48.83 1087.69 45 1082 C40.68 1082.74 37.07 1084.18 33.09 1085.96 C10.36 1093.59 -15.24 1089.3 -36.27 1078.89 C-40.32 1076.81 -44.17 1074.46 -48 1072 C-49.66 1071 -51.33 1069.99 -53 1069 Z M-346.38 1094.31 C-359.44 1099.89 -372.64 1101.19 -386.69 1101.12 C-387.74 1101.12 -388.79 1101.12 -389.87 1101.12 C-397.62 1101.08 -405.29 1100.76 -413 1100 C-410.4 1110.92 -405.39 1119.56 -396 1126 C-377.52 1136.01 -350.94 1136.71 -331 1131 C-327.17 1129.52 -323.94 1127.94 -321 1125 C-320.21 1119.42 -322.25 1115.94 -325 1111.31 C-325.4 1110.62 -325.81 1109.92 -326.23 1109.2 C-331.5 1100.16 -331.5 1100.16 -338 1092 C-341.46 1092 -343.24 1092.89 -346.38 1094.31 Z " fill="#000000" transform="translate(588,76)"/>
<path d="M0 0 C1 3 1 3 -0.32 5.66 C-0.99 6.71 -1.65 7.77 -2.34 8.86 C-2.7 9.43 -3.05 10 -3.42 10.59 C-4.19 11.82 -4.96 13.05 -5.73 14.28 C-7.74 17.46 -9.71 20.67 -11.67 23.88 C-12.25 24.82 -12.25 24.82 -12.84 25.78 C-25.71 46.85 -32.87 69.25 -34 94 C-34.04 94.84 -34.08 95.68 -34.12 96.55 C-34.74 122.06 -27.27 147.49 -12 168 C-11.38 168.84 -10.76 169.68 -10.12 170.55 C-1.74 181.35 8.34 191.5 18.84 200.25 C21.49 202.48 23.57 204.72 25.5 207.62 C26.01 208.36 26.51 209.09 27.03 209.85 C28.2 212.44 27.79 213.36 27 216 C26.6 215.44 26.21 214.87 25.8 214.29 C21.39 208.32 16.62 203.91 10.69 199.5 C9.47 198.57 9.47 198.57 8.23 197.62 C4.28 194.55 4.28 194.55 0 192 C-0.17 192.7 -0.35 193.39 -0.52 194.11 C-1.93 199.75 -3.35 205.38 -4.81 211 C-9.43 228.91 -13.31 246.87 -16.7 265.05 C-18.07 272.36 -19.47 279.66 -20.88 286.96 C-21.02 287.67 -21.15 288.38 -21.29 289.11 C-36.38 367.51 -36.38 367.51 -60 399 C-56.7 399 -53.4 399 -50 399 C-52.88 401.88 -56.49 403 -60.19 404.56 C-74.36 410.74 -86.12 417.98 -97 429 C-97.67 429.65 -98.33 430.31 -99.02 430.98 C-106.22 438.58 -111.04 448.4 -115 458 C-115.66 458 -116.32 458 -117 458 C-117.66 456.35 -118.32 454.7 -119 453 C-119.56 453.17 -120.12 453.34 -120.7 453.52 C-123.79 454.41 -126.89 455.21 -130 456 C-131.01 456.26 -131.01 456.26 -132.05 456.53 C-160.06 463.65 -191.98 461.42 -219 451 C-220.35 450.03 -221.69 449.03 -223 448 C-221.94 448.13 -221.94 448.13 -220.86 448.26 C-217.62 448.65 -214.37 449.05 -211.12 449.44 C-209.46 449.64 -209.46 449.64 -207.77 449.85 C-204.51 450.24 -201.26 450.62 -198 451 C-196.75 451.15 -196.75 451.15 -195.47 451.31 C-176.13 453.51 -155.8 453.31 -137 448 C-135.73 447.64 -134.46 447.28 -133.16 446.91 C-129.01 445.63 -129.01 445.63 -125 444 C-124.67 443.34 -124.34 442.68 -124 442 C-124.68 441.76 -125.35 441.51 -126.05 441.26 C-141.79 434.54 -156.88 423.86 -163.44 407.62 C-166.83 396.38 -165.78 383.53 -163.41 372.18 C-162.74 368.62 -162.77 366.44 -164 363 C-166.15 360.83 -168.42 358.91 -170.77 356.96 C-176.19 352.18 -178 346.03 -179 339 C-179.23 334.58 -179.25 330.16 -179.21 325.74 C-179.19 323.7 -179.19 321.67 -179.19 319.63 C-179.15 311.71 -178.81 303.88 -178 296 C-177.34 296 -176.68 296 -176 296 C-175.71 296.83 -175.42 297.67 -175.12 298.53 C-170.43 311.8 -170.43 311.8 -160.38 321.06 C-154.66 323.61 -149.14 323.48 -143 323 C-142.35 321.59 -141.71 320.17 -141.06 318.75 C-140.7 317.96 -140.34 317.17 -139.97 316.36 C-135.65 305.87 -137.68 292.72 -139.5 281.81 C-141.5 269.57 -141.72 258.87 -138.5 246.82 C-137.01 240.95 -136.6 235.29 -136.44 229.25 C-135.47 196.61 -125.98 168.43 -103.26 144.44 C-100.97 142.03 -100.97 142.03 -98.92 139.39 C-86.66 124.16 -66.96 113.99 -50 105 C-51.64 103.91 -53.29 102.83 -54.98 101.81 C-65 95.58 -71.43 87.86 -74.71 76.54 C-76.98 66.21 -75.71 55.46 -75 45 C-74.34 45 -73.68 45 -73 45 C-72.5 46.16 -72.01 47.32 -71.5 48.51 C-70.81 50.05 -70.12 51.59 -69.44 53.12 C-68.95 54.27 -68.95 54.27 -68.46 55.43 C-65.98 60.9 -63.05 64.67 -58 68 C-54.85 69.05 -52.61 69.1 -49.31 69.06 C-48.32 69.05 -47.32 69.04 -46.3 69.04 C-45.54 69.02 -44.78 69.01 -44 69 C-43.66 67.95 -43.32 66.89 -42.97 65.81 C-34.33 39.81 -18.54 19.85 0 0 Z M-69 67 C-68.59 76.05 -63.75 84.95 -57.65 91.53 C-54.5 94.34 -50.38 98 -46 98 C-45.67 90.74 -45.34 83.48 -45 76 C-47 75.75 -49 75.5 -51.06 75.25 C-58.52 74.11 -63.12 71.71 -69 67 Z M-53.53 117.49 C-54.83 118.3 -54.83 118.3 -56.16 119.11 C-57.08 119.7 -57.99 120.28 -58.94 120.88 C-59.88 121.47 -60.82 122.06 -61.79 122.67 C-73.05 129.82 -83.31 137.82 -93 147 C-93.91 147.85 -94.81 148.71 -95.75 149.59 C-114.58 167.82 -130.71 194.42 -132.12 221.24 C-132.12 222.83 -132.07 224.41 -132 226 C-128.93 223.3 -127 219.94 -124.88 216.5 C-110.89 194.38 -92.22 178.72 -69 167 C-68.34 167 -67.68 167 -67 167 C-67.97 167.75 -68.94 168.51 -69.94 169.28 C-85.34 181.42 -99.23 194.52 -110 211 C-110.44 211.66 -110.87 212.32 -111.32 213 C-123.9 232.4 -132.47 255.52 -129.5 278.94 C-127.77 293.62 -127.91 307.66 -137 320 C-137 320.66 -137 321.32 -137 322 C-128.91 321.02 -121.92 318.58 -114.48 315.44 C-111.35 314.15 -108.22 313.03 -105 312 C-117.53 322.07 -132.2 327.76 -148 330 C-149.94 330.28 -149.94 330.28 -151.93 330.57 C-152.94 330.71 -153.95 330.85 -155 331 C-145.66 341.12 -132.33 345.06 -118.95 346.28 C-103.38 346.79 -88.38 341.85 -76.56 331.62 C-56.09 311.79 -52.85 283.82 -48 257 C-47.61 254.86 -47.22 252.71 -46.83 250.57 C-46.55 249.04 -46.28 247.52 -46 246 C-45.21 277.28 -48.52 310.21 -70.95 334.07 C-82.82 345.6 -99.81 351.3 -116.19 351.44 C-133.69 351.12 -147.9 344.67 -160.38 332.75 C-162.28 330.75 -164 328.8 -165.71 326.66 C-166.47 325.78 -167.22 324.9 -168 324 C-168.66 324 -169.32 324 -170 324 C-172.33 331.29 -170.66 338.08 -168 345 C-163.43 353.46 -156.32 359.23 -148 363.77 C-146 365 -146 365 -145 367 C-148.3 367 -151.6 367 -155 367 C-157.54 372.09 -157.7 376.39 -158 382 C-158.05 382.98 -158.11 383.96 -158.16 384.96 C-158.52 397.36 -155.62 408.31 -147.43 417.82 C-142.39 422.67 -136.22 425.97 -130.17 429.36 C-126.72 431.31 -123.66 433.2 -120.73 435.87 C-118.31 438.25 -118.31 438.25 -115.99 437.85 C-113.53 436.8 -112.81 435.78 -111.37 433.54 C-110.9 432.82 -110.43 432.11 -109.94 431.37 C-109.45 430.61 -108.95 429.85 -108.44 429.06 C-99.17 415.51 -88.44 407.11 -73.07 401.26 C-64.92 398.12 -62.57 390.49 -59.12 382.94 C-46.99 353.42 -40.09 321.51 -32.41 290.62 C-30.78 284.06 -29.14 277.5 -27.5 270.94 C-27.23 269.85 -27.23 269.85 -26.95 268.74 C-14.03 217.14 -14.03 217.14 -3.59 194.17 C-2.84 191.41 -3.15 189.71 -4 187 C-5.75 185.07 -7.46 183.37 -9.38 181.62 C-25.78 165.9 -35.57 146.57 -42 125 C-42.34 123.89 -42.68 122.79 -43.03 121.64 C-43.7 119.43 -44.36 117.22 -45 115 C-49.18 115 -50.13 115.39 -53.53 117.49 Z " fill="#000000" transform="translate(583,87)"/>
<path d="M0 0 C1.8 2.34 3.46 4.7 5.06 7.19 C6.7 10.05 6.7 10.05 9 11 C8.01 10.01 7.02 9.02 6 8 C6.33 7.34 6.66 6.68 7 6 C8.01 6.5 9.02 6.99 10.06 7.5 C15.33 9.72 19.85 9.3 25.31 8 C36.06 5.71 48.86 5.45 59 10 C60.11 10.49 60.11 10.49 61.25 11 C74.46 17.61 83.15 28.66 87.81 42.5 C88.59 44.99 89.3 47.49 90 50 C90.25 50.87 90.5 51.74 90.75 52.63 C93.94 66.41 92.35 82.04 91 96 C91 96.66 91 97.32 91 98 C91.8 98.25 92.61 98.5 93.44 98.75 C94.28 99.16 95.13 99.57 96 100 C96.66 102.08 96.66 102.08 97 104 C96.32 103.72 95.65 103.45 94.95 103.16 C94.06 102.8 93.17 102.44 92.25 102.06 C91.37 101.7 90.49 101.34 89.58 100.97 C84.99 99.24 81.07 98.85 76.14 98.75 C74.79 98.72 73.43 98.69 72.07 98.65 C69.95 98.61 67.83 98.56 65.7 98.52 C50.13 98.22 38.37 96.41 26.69 85.25 C16.35 74.26 10.55 59.99 9 45 C9.05 43.98 9.1 42.95 9.16 41.9 C9.26 38.51 9.23 36.17 8 33 C5.17 31.09 2.52 29.8 -0.62 28.53 C-6.6 26.04 -9.27 22.74 -12 17 C-7.94 18.32 -3.98 19.78 -0.03 21.41 C2.38 22.11 4.51 22.1 7 22 C6.51 21.32 6.01 20.64 5.5 19.95 C1.24 13.76 -1.5 8.67 -1 1 C-0.67 0.67 -0.34 0.34 0 0 Z M17.62 24.38 C11.9 33.63 12.65 41.32 14.76 51.75 C18.13 65.6 23.23 77.62 35.25 85.75 C47.35 93.06 60.29 93.12 74.06 93.56 C75.93 93.63 75.93 93.63 77.84 93.69 C80.89 93.8 83.95 93.9 87 94 C87.83 90.14 88.11 86.64 88.06 82.69 C88.05 81.62 88.04 80.55 88.04 79.45 C88.02 78.64 88.01 77.83 88 77 C85.03 76.67 85.03 76.67 83.46 78.39 C82.64 79.31 82.64 79.31 81.81 80.25 C76.8 85.5 70.83 88.6 63.55 89.2 C51.88 89.41 41.83 86.06 32.99 78.22 C24.78 69.54 21.16 58.4 20.93 46.62 C21.38 34.19 25.26 24.74 34 16 C27.1 15.48 22.32 19.68 17.62 24.38 Z M53 22 C50.69 25.23 50.53 28.11 51 32 C53.08 35.79 55.11 39 59 41 C62.04 41.79 64.86 42.23 68 42 C69.69 40.7 71.36 39.37 73 38 C76.31 38.75 76.31 38.75 79 40 C77.97 33.13 74.02 27.46 68.75 23 C63.95 19.51 58.15 18.18 53 22 Z M38 43 C36.6 45.8 36.75 47.9 37 51 C38.38 52.88 38.38 52.88 40 54 C40.99 53.67 41.98 53.34 43 53 C41.68 49.7 40.36 46.4 39 43 C38.67 43 38.34 43 38 43 Z M79 57 C76.59 60.94 76.59 60.94 76.31 65.38 C76.54 65.91 76.77 66.45 77 67 C78.65 67.33 80.3 67.66 82 68 C84.16 64.77 84.47 63.75 84 60 C82.73 58.14 82.73 58.14 81 57 C80.34 57 79.68 57 79 57 Z " fill="#000000" transform="translate(625,336)"/>
<path d="M0 0 C0.66 0 1.32 0 2 0 C2.28 0.73 2.56 1.46 2.85 2.22 C5.88 9.86 9.59 16.64 14 23.56 C22.34 36.71 28.39 48.53 28.44 64.31 C28.44 65.69 28.44 65.69 28.45 67.09 C28.29 77.3 26.66 87.28 25.14 97.36 C22.71 113.63 21.81 129.62 24 146 C23.34 146 22.68 146 22 146 C20.43 143.91 18.98 141.82 17.56 139.63 C17.13 138.97 16.69 138.31 16.24 137.63 C14.82 135.47 13.41 133.3 12 131.12 C11.52 130.39 11.05 129.66 10.55 128.9 C-13.19 92.4 -13.19 92.4 -13.44 71.69 C-13.45 70.86 -13.46 70.04 -13.47 69.19 C-13.38 63.34 -12.14 58.43 -10 53 C-9.67 53 -9.34 53 -9 53 C-9.02 53.59 -9.04 54.19 -9.06 54.8 C-9.88 81.65 -0.67 100.99 14 123 C14.02 121.25 14.02 121.25 14.04 119.46 C14.32 108.33 15.6 97.65 17.56 86.69 C21.99 61.37 18.1 44.8 7.28 21.79 C3.96 14.64 1.61 7.72 0 0 Z " fill="#000000" transform="translate(588,119)"/>
<path d="M0 0 C16.68 12.86 25.32 32.07 27.99 52.7 C29.76 67.73 29.76 67.73 28 75 C25.76 71.36 25.57 67.96 25.19 63.75 C23.33 46.7 17.07 31.17 6 18 C5.38 17.18 4.77 16.37 4.13 15.52 C-4.59 5.19 -18.07 -1.63 -31.27 -3.77 C-38.02 -4.33 -43.63 -3.89 -50.12 -2.12 C-50.8 -1.95 -51.48 -1.78 -52.18 -1.6 C-56.17 -0.55 -60.09 0.65 -64 2 C-64 1.34 -64 0.68 -64 0 C-45.11 -14.92 -19.21 -12.94 0 0 Z " fill="#000000" transform="translate(709,314)"/>
<path d="M0 0 C6.87 6.54 9.93 15.3 10.19 24.62 C10.25 28.17 10.08 28.88 8 32 C2.04 31.13 -2.02 26.17 -6 22 C-9.78 16.85 -10.72 12.3 -10 6 C-7.7 1.08 -5.56 -0.91 0 0 Z " fill="#000000" transform="translate(806,494)"/>
<path d="M0 0 C0 3.9 -1.3 4.96 -3.69 8 C-12.92 20.36 -16.22 32.67 -15 48 C-12.33 62.2 -5.02 72.02 6 81 C5.01 81.5 5.01 81.5 4 82 C-7.77 76.51 -14.43 67.59 -19.09 55.76 C-23.39 42.71 -20.95 29.97 -15.25 17.81 C-11.45 10.54 -6.65 4.84 0 0 Z " fill="#000000" transform="translate(257,643)"/>
<path d="M0 0 C0.99 0.99 1.98 1.98 3 3 C1.23 10.27 -1.78 14.73 -7 20 C-7.64 20.68 -8.28 21.36 -8.94 22.05 C-12.39 25.64 -12.39 25.64 -14 27 C-14.66 27 -15.32 27 -16 27 C-12.84 16.74 -7.57 7.62 0 0 Z " fill="#000000" transform="translate(864,500)"/>
<path d="M0 0 C3.05 1.45 5.92 3.14 8.82 4.87 C22.5 12.97 34.35 14.88 50 11 C46.88 15.68 42.32 15.93 37 17 C26.87 17.97 16.24 14.99 8 9 C5.16 6.48 2.47 3.88 0 1 C0 0.67 0 0.34 0 0 Z " fill="#000000" transform="translate(561,1005)"/>
<path d="" fill="#000000" transform="translate(0,0)"/>
<path d="" fill="#000000" transform="translate(0,0)"/>
</svg>
