<?xml version="1.0" encoding="UTF-8"?>
<!-- Generator: visioncortex VTracer 0.6.3 -->
<svg version="1.1" xmlns="http://www.w3.org/2000/svg" width="1197" height="1280">
<path d="M0 0 C6.82 5.24 10.72 13.63 12.32 21.95 C12.56 24.27 12.72 26.55 12.73 28.88 C13.57 28.45 13.57 28.45 14.43 28.01 C22.24 24.39 30.92 22.86 39.26 25.77 C43.8 28.32 47.29 31.78 48.73 36.88 C49.96 46.67 48.18 54.7 42.73 62.88 C43.71 62.82 44.68 62.76 45.69 62.7 C123.39 57.92 220.73 59.89 283.02 113.68 C291.33 121.05 299.11 128.61 303.73 138.88 C303.73 139.54 303.73 140.2 303.73 140.88 C304.6 140.36 305.47 139.84 306.37 139.31 C335.48 122.15 371.15 115.37 404.32 123.62 C434.57 131.97 458.43 150.18 474.73 176.88 C475.11 177.5 475.49 178.12 475.88 178.76 C492.87 207.18 496.01 241.44 488.38 273.37 C482.46 296.41 471.24 315 455.73 332.88 C454.83 333.93 454.83 333.93 453.92 334.99 C435.57 354.8 408.49 363.48 382.41 365.72 C376.34 366.3 370.57 366.88 365.73 370.88 C363.91 373.39 362.82 376 361.73 378.88 C361.44 379.59 361.16 380.3 360.86 381.03 C359.94 383.33 359.05 385.64 358.17 387.95 C346.86 416.73 332.42 442.64 310.73 464.88 C310.05 465.58 309.37 466.28 308.67 467 C300.09 475.81 291.56 484.46 281.73 491.88 C280.53 492.81 279.34 493.73 278.14 494.66 C257.31 510.65 234.9 524.55 211.73 536.88 C210.5 537.54 210.5 537.54 209.25 538.21 C189.34 548.76 168.51 557.23 147.73 565.88 C149.81 569.61 151.9 573.34 153.98 577.07 C154.62 578.22 155.26 579.36 155.92 580.54 C158.82 585.72 161.72 590.9 164.73 596.02 C186.3 632.75 202.91 671.67 216.73 711.88 C216.99 712.64 217.25 713.39 217.52 714.17 C228.86 747.01 238.08 780.57 243.73 814.88 C244 816.47 244 816.47 244.27 818.09 C247.51 837.84 249.19 857.67 250.57 877.62 C250.72 879.74 250.88 881.87 251.05 884 C252.78 906.29 252.94 928.59 252.98 950.94 C252.98 953.29 252.99 955.64 253 957.99 C253.06 980.11 252.93 1002.01 248.04 1023.7 C247.58 1025.83 247.11 1027.96 246.66 1030.09 C246.35 1031.44 246.35 1031.44 246.04 1032.82 C245.94 1033.5 245.84 1034.18 245.73 1034.88 C249.7 1038.85 263.42 1037.84 268.79 1037.94 C282.46 1037.9 295.61 1036.84 308.73 1032.88 C309.42 1032.68 310.11 1032.47 310.82 1032.25 C334.88 1024.71 351.96 1008.44 363.89 986.43 C392.38 931.57 381.84 866.3 370.61 808.32 C370.12 805.8 369.64 803.29 369.16 800.77 C366.81 788.49 364.41 776.21 361.96 763.95 C354.28 725.36 354.28 725.36 351.73 708.45 C351.55 707.23 351.36 706.02 351.17 704.78 C350.65 701.15 350.18 697.52 349.73 693.88 C349.64 693.18 349.55 692.48 349.46 691.75 C347.72 677.88 347.39 664.11 347.41 650.14 C347.42 646.59 347.39 643.03 347.37 639.48 C347.32 620.48 348.76 601.8 353.42 583.32 C353.67 582.29 353.92 581.27 354.19 580.21 C358.44 563.64 364.51 547.89 372.73 532.88 C373.59 531.29 373.59 531.29 374.47 529.66 C381.34 517.41 390.1 506.99 399.73 496.88 C400.44 496.11 401.14 495.34 401.87 494.55 C419.3 476.12 443.73 461.98 467.86 454.57 C468.64 454.33 469.43 454.08 470.24 453.83 C494.91 446.66 523.13 446.78 546.25 458.6 C553.58 462.64 560 467.74 562.73 475.88 C564.92 486.82 564.46 496.31 558.48 505.89 C553.65 512.24 546.48 515.56 538.73 516.88 C537.09 516.98 535.44 517.04 533.8 517.06 C532.84 517.07 531.88 517.08 530.9 517.1 C529.88 517.11 528.85 517.12 527.8 517.13 C525.6 517.16 523.4 517.2 521.2 517.23 C517.76 517.28 514.32 517.32 510.87 517.36 C477.85 517.28 477.85 517.28 449.73 532.88 C416.84 570.72 413.99 631.43 417.2 678.82 C418.32 691.94 420.28 704.93 422.39 717.92 C422.51 718.71 422.64 719.5 422.77 720.31 C425.55 737.35 428.8 754.28 432.14 771.21 C469.77 962.3 469.77 962.3 421.06 1040.92 C417.94 1045.53 414.43 1049.73 410.73 1053.88 C409.9 1054.85 409.07 1055.83 408.22 1056.83 C401.5 1064.58 394.03 1070.87 385.73 1076.88 C385.14 1077.31 384.56 1077.74 383.95 1078.19 C365.64 1091.47 345.1 1099.34 323.11 1104.13 C322.42 1104.28 321.72 1104.44 321.01 1104.59 C307.08 1107.41 293.16 1108.23 278.98 1108.13 C278.2 1108.13 277.42 1108.13 276.62 1108.13 C261.82 1108.07 247.34 1107.17 232.73 1104.76 C220.84 1102.86 209.73 1104.28 197.94 1106.13 C188.98 1107.48 180.05 1108.05 170.98 1108.12 C169.99 1108.13 168.99 1108.14 167.96 1108.15 C143.58 1108.34 119.84 1107.51 95.73 1103.88 C94.52 1103.71 93.31 1103.53 92.06 1103.35 C53.38 1097.59 13.75 1088.9 -23.09 1075.59 C-31.14 1072.71 -38.92 1072.73 -47.38 1072.67 C-49.83 1072.65 -52.28 1072.62 -54.73 1072.59 C-56.01 1072.58 -57.29 1072.57 -58.61 1072.55 C-172.16 1071.28 -172.16 1071.28 -188.03 1055.16 C-191.22 1049.31 -190.25 1042.37 -188.51 1036.18 C-183.06 1023.68 -171.81 1014.82 -160.04 1008.73 C-155.95 1007.48 -152.02 1007.46 -147.77 1007.45 C-146.4 1007.44 -146.4 1007.44 -145 1007.44 C-135.41 1007.6 -126.51 1009.77 -117.31 1012.33 C-114.98 1012.96 -112.64 1013.46 -110.27 1013.88 C-110.95 1013.03 -111.63 1012.19 -112.32 1011.31 C-123.11 997.75 -132.76 984 -141.27 968.88 C-141.82 967.91 -141.82 967.91 -142.39 966.92 C-154.16 946.23 -160.4 924.49 -160.52 900.63 C-160.55 899.05 -160.55 899.05 -160.58 897.43 C-160.66 881.16 -155.17 865.83 -143.71 854.07 C-135.47 846.67 -128.26 843.8 -117.27 842.88 C-116.26 842.77 -115.26 842.67 -114.22 842.55 C-111.91 842.31 -109.59 842.08 -107.27 841.88 C-107.91 841.26 -107.91 841.26 -108.55 840.63 C-113.03 836.23 -117.18 831.64 -121.27 826.88 C-122.29 825.72 -123.3 824.55 -124.32 823.39 C-125.45 822.1 -126.58 820.8 -127.71 819.51 C-128.28 818.86 -128.84 818.2 -129.43 817.53 C-132.6 813.89 -135.61 810.18 -138.52 806.32 C-146.89 795.77 -157.59 793.18 -170.39 791.7 C-173.02 791.41 -175.64 791.14 -178.27 790.88 C-176.34 804.65 -167.98 811.61 -157.38 819.61 C-155.84 820.77 -154.29 821.9 -152.74 823.04 C-150.27 824.88 -150.27 824.88 -148.27 826.88 C-147.5 832.3 -149.52 835.82 -152.33 840.26 C-152.74 840.92 -153.15 841.57 -153.57 842.25 C-161.6 854.94 -161.6 854.94 -166.74 856.76 C-169.27 856.88 -169.27 856.88 -171.19 855.77 C-171.79 855.19 -172.4 854.61 -173.02 854.01 C-173.71 853.36 -174.39 852.72 -175.1 852.06 C-176.58 850.57 -178.05 849.07 -179.5 847.55 C-180.25 846.77 -181 846 -181.77 845.2 C-182.44 844.47 -183.11 843.74 -183.8 843 C-190.02 837.67 -196.59 836.21 -204.52 835.01 C-219.8 832.36 -231.14 826.4 -240.2 813.58 C-244.88 806.68 -248.34 799.7 -251.27 791.88 C-253.24 786.79 -255.19 783.79 -259.52 780.38 C-267.43 773.75 -272.79 762.27 -274.1 752.07 C-274.34 747.61 -274.47 743.16 -274.52 738.7 C-274.53 737.85 -274.54 737.01 -274.55 736.14 C-274.51 729.56 -274.06 722.88 -270.14 717.32 C-267.79 713.01 -267.56 709.67 -268.77 704.91 C-271.69 692.98 -269.34 678.05 -263.95 667.23 C-261.56 663.41 -258.83 660.45 -255.47 657.46 C-250.28 652.32 -247.7 646.24 -244.77 639.63 C-236.84 621.96 -226.03 607.49 -212.78 593.48 C-211.75 592.39 -210.73 591.31 -209.72 590.21 C-197.6 577.21 -181.22 564.45 -162.71 563.55 C-161.08 563.52 -159.46 563.51 -157.83 563.51 C-157.02 563.48 -156.22 563.46 -155.38 563.43 C-149.54 563.41 -145.15 564.6 -140.27 567.88 C-136.16 572.2 -134.89 575.71 -135 581.71 C-136.19 591.16 -144.64 599.15 -150.77 605.82 C-160.27 616.29 -173.92 633.96 -175.56 648.46 C-175.21 651.33 -174.47 652.35 -172.58 654.51 C-164.6 664.49 -162.11 675.75 -161.71 688.26 C-160.87 695.19 -157.78 698.86 -152.57 703.19 C-148.68 706.06 -144.52 708.27 -140.21 710.45 C-139.29 710.92 -138.36 711.39 -137.41 711.88 C-118.3 721.52 -101.34 725.44 -79.96 725.26 C-78.55 725.25 -78.55 725.25 -77.12 725.25 C-59.37 725.17 -41.89 724.03 -24.27 721.88 C-23.31 721.78 -22.35 721.67 -21.35 721.56 C-5.77 719.79 5.92 714.39 17.73 703.88 C19 702.76 19 702.76 20.29 701.62 C21.98 700.1 23.67 698.58 25.36 697.04 C27.5 695.09 29.67 693.17 31.86 691.26 C32.5 690.7 33.14 690.14 33.8 689.56 C35.11 688.42 36.43 687.29 37.76 686.18 C41.08 683.35 44.15 680.51 46.97 677.17 C50.73 672.82 54.75 668.78 58.86 664.76 C60.9 662.75 62.94 660.74 64.94 658.69 C66.44 657.17 68.03 655.75 69.64 654.35 C73.64 649.37 72.77 641.68 72.98 635.57 C73.05 634.09 73.12 632.62 73.19 631.14 C73.37 627.43 73.52 623.72 73.65 620 C73.77 616.76 73.9 613.53 74.03 610.29 C74.16 607.01 74.29 603.73 74.39 600.45 C74.42 599.5 74.45 598.56 74.48 597.58 C74.52 596.36 74.52 596.36 74.56 595.11 C74.73 592.93 75.13 590.98 75.73 588.88 C74.79 589.06 73.85 589.24 72.88 589.42 C69.33 590.08 65.78 590.74 62.24 591.39 C60.71 591.67 59.18 591.96 57.66 592.24 C-6.79 604.32 -72.31 584.14 -131.77 560.2 C-132.53 559.89 -133.3 559.58 -134.08 559.27 C-144.75 554.97 -155.04 550.15 -165.27 544.88 C-166.34 544.35 -167.4 543.82 -168.5 543.27 C-184.28 535.35 -190 523.71 -196.71 508.27 C-197.13 507.31 -197.56 506.34 -198 505.35 C-198.82 503.47 -199.63 501.58 -200.42 499.68 C-203.39 492.85 -207.31 485.44 -214.2 481.89 C-216.39 481.17 -216.39 481.17 -219.96 480.63 C-221.36 480.35 -222.77 480.06 -224.18 479.76 C-224.87 479.62 -225.56 479.48 -226.27 479.34 C-253.66 473.12 -278.07 451.26 -292.79 428.05 C-309 401.43 -316.37 369.76 -309.37 338.92 C-302.43 312.16 -286.42 286.32 -262.27 271.88 C-258.32 269.66 -254.35 267.47 -250.34 265.35 C-249.58 264.94 -248.83 264.53 -248.05 264.12 C-247.37 263.76 -246.69 263.4 -245.99 263.03 C-242.89 260.96 -242.25 258.8 -241.45 255.25 C-241.16 253.75 -240.87 252.26 -240.58 250.76 C-238.6 241.24 -235.35 232.68 -231.27 223.88 C-230.96 223.21 -230.65 222.54 -230.33 221.84 C-222.88 205.85 -213.53 191.45 -202.27 177.88 C-201.8 177.31 -201.33 176.73 -200.84 176.14 C-190.12 163.12 -178.53 151.32 -165.27 140.88 C-163.56 139.45 -161.85 138.01 -160.14 136.57 C-137.61 118.22 -111.38 103.4 -84.27 92.88 C-85.1 91.76 -85.93 90.63 -86.77 89.51 C-87.32 88.77 -87.87 88.03 -88.43 87.27 C-89.65 85.69 -90.91 84.14 -92.2 82.62 C-103.52 69.29 -110.2 52.95 -109.65 35.37 C-108.77 27.32 -105.53 20.17 -99.27 14.88 C-92.09 10.76 -83.32 10.39 -75.27 11.88 C-62.72 15.67 -52.12 23.37 -42.04 31.49 C-39.19 33.73 -36.23 35.8 -33.27 37.88 C-33.3 37.07 -33.34 36.26 -33.38 35.43 C-33.67 23.43 -31.95 14.51 -24.02 5.26 C-17.3 -0.55 -8.62 -4.24 0 0 Z M-16.27 12.88 C-21.48 19.73 -21.48 26.4 -21.52 34.63 C-21.54 35.6 -21.56 36.56 -21.58 37.55 C-21.62 45.16 -20.64 51.59 -15.52 57.57 C-13.25 60.53 -13.25 60.53 -13.39 63.76 C-14.27 65.88 -14.27 65.88 -15.27 66.88 C-18.5 67.32 -19.88 67.15 -22.59 65.27 C-23.37 64.52 -24.15 63.78 -24.96 63.01 C-25.83 62.18 -26.71 61.36 -27.61 60.51 C-30.11 58.04 -32.57 55.53 -35.02 53.01 C-47.8 40.13 -66.46 24.2 -85.23 22.78 C-89.27 22.99 -92.05 24.87 -95.08 27.38 C-99.08 32.43 -97.69 40.8 -97.27 46.88 C-93.55 65.23 -81.31 81.25 -66.27 91.88 C-55.13 99.06 -43.47 104.31 -30.41 106.91 C-28.27 107.88 -28.27 107.88 -26.84 110.29 C-26.65 111.14 -26.46 112 -26.27 112.88 C-28.27 115.88 -28.27 115.88 -30.16 116.32 C-41.45 116.34 -51.1 112.58 -61.02 107.63 C-70.01 103.23 -75.64 102.57 -85.33 105.57 C-109.21 114.78 -132.48 128.69 -152.27 144.88 C-153.64 145.97 -153.64 145.97 -155.04 147.08 C-190.14 175.13 -225.17 216.14 -230.67 262.25 C-237.22 341.32 -218.71 443.26 -174.89 523.21 C-169.57 528.71 -163.65 532.09 -156.89 535.57 C-155.37 536.36 -155.37 536.36 -153.81 537.16 C-107.82 560.5 -54.55 577.62 -3.27 582.88 C-2.37 582.98 -1.46 583.07 -0.53 583.16 C53.4 588.39 109.49 569.26 158.73 548.88 C159.7 548.48 160.66 548.09 161.66 547.68 C195.76 533.49 228.72 516.47 258.73 494.88 C259.77 494.14 260.81 493.39 261.88 492.62 C269.85 486.78 277.33 480.42 284.73 473.88 C285.24 473.43 285.75 472.98 286.28 472.52 C289.82 469.37 293.29 466.14 296.73 462.88 C297.61 462.06 297.61 462.06 298.52 461.22 C322.52 438.69 339.08 408.25 350.36 377.51 C350.75 376.46 350.75 376.46 351.14 375.4 C352.49 371.52 352.99 368.83 351.73 364.88 C351.18 364.74 350.63 364.6 350.06 364.46 C340.29 361.94 330.73 359.32 321.67 354.82 C321.02 354.5 320.37 354.19 319.71 353.86 C315.76 351.8 313.11 349.66 310.73 345.88 C310.98 342.57 310.98 342.57 311.73 339.88 C317.01 340.38 320.72 341.66 325.36 344.2 C350.17 357.17 381.82 356.96 408.48 349.89 C422.81 345.26 434 337.21 444.73 326.88 C445.78 326.04 446.84 325.2 447.92 324.38 C466.97 307.45 477.82 278.83 479.73 253.88 C480.43 237.92 480.87 222.17 475.73 206.88 C475.52 206.22 475.3 205.55 475.08 204.86 C470.44 190.58 463.5 178.35 453.73 166.88 C453.07 166.04 452.41 165.19 451.73 164.32 C449.92 162.12 448.13 160.3 445.98 158.45 C445.37 157.91 444.75 157.38 444.12 156.82 C437.96 151.82 431.77 147.51 424.73 143.82 C423.91 143.39 423.09 142.96 422.25 142.52 C398.03 130.18 365.66 128.72 339.73 136.88 C338.56 137.25 337.4 137.61 336.2 137.98 C323.79 142.34 312.57 149.2 302.73 157.88 C302.12 158.4 301.51 158.92 300.88 159.45 C280.68 177.85 276.32 206.33 272.73 231.88 C266.98 232.88 266.98 232.88 264.73 232.88 C258.85 215.37 268.99 190.47 276.68 174.96 C280.06 168.4 283.86 162.57 288.73 157.01 C292.29 152.91 292.29 152.91 293.67 147.82 C291.96 135.13 279.03 124.39 269.5 116.99 C222.34 81.84 157.73 74.36 100.73 72.88 C99.44 72.85 99.44 72.85 98.13 72.81 C73.65 72.24 48.69 73.58 24.44 76.92 C10.4 78.85 10.4 78.85 6.67 76.7 C5.36 74.17 6.1 72.58 6.73 69.88 C7.96 69.58 9.19 69.28 10.46 68.96 C12.09 68.54 13.72 68.12 15.36 67.7 C16.16 67.5 16.97 67.3 17.8 67.1 C24.26 65.39 28.41 63.15 32.38 57.57 C32.76 56.83 33.15 56.08 33.54 55.32 C34.14 54.2 34.14 54.2 34.75 53.07 C36.74 48.64 37 44.74 36.73 39.88 C36.07 38.89 35.41 37.9 34.73 36.88 C29.6 35.94 24.34 36.13 19.73 38.7 C15.78 41.58 13.71 43.26 12.42 48.01 C11.68 50.14 11.68 50.14 10.73 51.88 C7.83 52.83 5.73 52.88 2.73 52.88 C2.71 51.94 2.71 51.94 2.69 50.98 C3.2 29.59 3.2 29.59 -5.27 10.88 C-9.65 8.92 -12.44 10.28 -16.27 12.88 Z M-268.27 290.88 C-268.96 291.42 -269.64 291.97 -270.35 292.52 C-287.26 306.24 -296.49 328.77 -299.27 349.88 C-301.54 384.9 -292.02 412.3 -269.27 438.88 C-254.37 455.61 -233.77 467.56 -211.27 469.88 C-211.84 467.67 -212.42 465.45 -213 463.23 C-213.52 461.2 -214.05 459.17 -214.58 457.13 C-216.06 451.42 -217.58 445.73 -219.17 440.05 C-229.08 404.34 -235.7 367.97 -239.81 331.14 C-239.89 330.4 -239.98 329.65 -240.06 328.88 C-240.29 326.85 -240.51 324.82 -240.73 322.79 C-240.91 321.83 -241.09 320.87 -241.27 319.88 C-243.98 318.53 -245.54 319.39 -248.32 320.27 C-259.71 324.11 -269.45 329.2 -275.52 340.14 C-276.45 342.05 -277.36 343.96 -278.27 345.88 C-279.26 346.38 -279.26 346.38 -280.27 346.88 C-279.53 344.98 -278.78 343.09 -278.02 341.2 C-277.6 340.14 -277.18 339.08 -276.75 338 C-275.26 334.86 -273.46 332.55 -271.27 329.88 C-271.27 329.22 -271.27 328.56 -271.27 327.88 C-270.72 327.62 -270.16 327.36 -269.59 327.09 C-266.99 325.74 -264.6 324.18 -262.14 322.57 C-258.44 320.17 -254.77 318.11 -250.77 316.26 C-246.92 314.37 -244.74 313.1 -243.27 308.88 C-241.18 298.04 -242.28 286.8 -243.27 275.88 C-251.73 275.88 -262.29 285.73 -268.27 290.88 Z M410.73 501.88 C410.05 502.48 409.38 503.09 408.68 503.71 C381.95 528.98 367.09 566.18 361.73 601.88 C361.61 602.66 361.49 603.44 361.37 604.24 C353.21 661.69 364.89 720.02 376.17 776.13 C385.71 823.65 385.71 823.65 389.24 846.12 C389.42 847.27 389.42 847.27 389.61 848.45 C397.42 898.37 398.87 958.93 368.04 1002.13 C363.91 1007.65 359.36 1012.79 354.73 1017.88 C354.12 1018.57 353.5 1019.26 352.87 1019.96 C333.57 1040.41 306.14 1049.09 278.58 1050.1 C263.41 1050.45 247.99 1049.51 233.73 1043.88 C232.73 1042.88 232.73 1042.88 232.55 1039.77 C232.73 1035.8 233.46 1032.57 234.54 1028.76 C236.26 1022.33 237.48 1015.91 238.42 1009.32 C238.54 1008.51 238.66 1007.69 238.78 1006.86 C240.48 994.37 240.89 981.82 240.93 969.23 C240.94 967.86 240.95 966.49 240.95 965.11 C240.97 960.72 240.98 956.34 240.98 951.95 C240.98 951.19 240.98 950.44 240.98 949.67 C241 922.31 240.11 895.15 237.73 867.88 C237.66 867.03 237.59 866.18 237.51 865.3 C230.9 787.87 208.95 714.32 150.17 592.51 C149.6 591.52 149.02 590.53 148.44 589.52 C143.61 580.94 143.61 580.94 136.42 574.51 C130 573.01 123.99 573.98 117.73 575.63 C117.03 575.82 116.33 576 115.61 576.19 C105.44 578.95 97.92 583.12 92.22 592.32 C84.89 607.08 84.99 624.1 84.17 640.2 C83.94 644.44 83.71 648.69 83.48 652.93 C83.39 654.47 83.39 654.47 83.31 656.03 C82.89 663.15 82.25 670.22 81.37 677.3 C80.93 680.85 80.63 684.3 80.73 687.88 C84.74 684.37 87.02 679.55 89.7 675.01 C91.52 672.2 93.15 670.01 95.73 667.88 C100.03 668.18 100.03 668.18 101.73 669.88 C101.41 675.95 99.3 680.24 96.29 685.45 C95.84 686.23 95.4 687.02 94.94 687.83 C87.58 700.54 78.9 711.33 68.73 721.88 C67.84 722.88 67.84 722.88 66.94 723.9 C47.89 744.81 15.74 753.75 -11.5 755.04 C-60.16 756.47 -108.48 741.42 -150.64 717.56 C-158.44 712.88 -158.44 712.88 -167.27 711.88 C-168.14 712.23 -169 712.58 -169.89 712.95 C-172.27 713.88 -172.27 713.88 -175.27 712.88 C-176.31 708.28 -176.09 705.16 -174.83 700.63 C-171.74 688.12 -172.88 676.17 -179.27 664.88 C-181.59 666.83 -181.59 666.83 -181.96 670.32 C-183.27 673.88 -183.27 673.88 -186.08 675.63 C-187.47 676.09 -188.86 676.5 -190.27 676.88 C-191.17 677.16 -192.06 677.44 -192.99 677.72 C-205.47 681.14 -220.61 682.42 -232.27 675.88 C-235.44 673.72 -238.36 671.37 -241.27 668.88 C-243.27 667.13 -243.27 667.13 -245.27 665.88 C-249.09 666.79 -250.05 667.56 -252.27 670.88 C-251.89 677.15 -247.37 681.48 -243.27 685.88 C-241.55 687.2 -241.55 687.2 -239.89 688.13 C-236.61 690.32 -236.13 692.11 -235.27 695.88 C-241.98 694.73 -245.19 692.77 -249.71 687.76 C-251.55 685.79 -253.41 683.83 -255.27 681.88 C-255.6 681.88 -255.93 681.88 -256.27 681.88 C-256.83 684.72 -256.99 686.12 -256.27 688.88 C-251.72 695.3 -244.96 703.15 -237.39 705.95 C-236.69 706.25 -235.99 706.56 -235.27 706.88 C-234.46 709.51 -234.46 709.51 -234.27 711.88 C-235.94 712.57 -235.94 712.57 -238.27 712.88 C-245.7 709.53 -251.38 704.31 -256.27 697.88 C-257.06 699.62 -257.06 699.62 -257.27 701.88 C-249.01 719.91 -230.58 730.37 -212.83 737.21 C-205.88 739.41 -199.19 740.21 -191.96 740.76 C-184.25 741.37 -179.07 742.44 -173.27 747.88 C-172.29 748.66 -172.29 748.66 -171.29 749.45 C-166.38 753.4 -162.53 758.02 -158.62 762.93 C-156.24 765.92 -153.79 768.84 -151.33 771.76 C-147.86 775.92 -144.49 780.14 -141.21 784.45 C-134.21 793.59 -126.96 802.31 -119.06 810.69 C-115.84 814.13 -112.77 817.63 -109.83 821.32 C-105.57 826.64 -100.96 831.58 -96.29 836.54 C-93.34 839.66 -90.43 842.8 -87.64 846.07 C-79.69 855.27 -70.87 863.44 -61.27 870.88 C-60.34 871.62 -59.4 872.36 -58.44 873.12 C-46.01 882.75 -32.46 890.19 -18.27 896.88 C-17.14 897.42 -16.01 897.95 -14.85 898.5 C4.74 907.35 32.14 916.8 53.45 908.91 C85.13 894.59 101.69 862.85 113.57 831.71 C125.03 800.67 131.74 768.64 137.18 736.1 C137.65 733.35 138.17 730.61 138.73 727.88 C145.61 728.76 145.61 728.76 146.73 729.88 C147.46 740.05 146.09 749.79 144.23 759.76 C144.1 760.48 143.97 761.21 143.83 761.96 C134.78 811.55 119.99 865.08 83.73 901.88 C83.09 902.54 82.45 903.19 81.79 903.87 C77.72 907.7 73.16 910.65 68.42 913.57 C67.83 913.94 67.23 914.31 66.62 914.69 C57.38 920.18 48.59 922.6 37.86 922.45 C36.77 922.43 35.68 922.42 34.56 922.41 C14.57 921.86 -3.13 914.78 -21.27 906.88 C-22.15 906.5 -23.03 906.12 -23.94 905.73 C-44.01 896.89 -61.98 885.47 -78.08 870.57 C-89.57 860.01 -101.43 854.74 -117.27 854.88 C-125.67 855.44 -131.29 858.5 -136.92 864.7 C-149.31 880.27 -149.62 897.73 -148.27 916.88 C-147.39 923.47 -145.51 929.65 -143.27 935.88 C-142.99 936.69 -142.7 937.49 -142.41 938.32 C-135.85 956.56 -127.15 973.55 -115.27 988.88 C-114.54 989.82 -113.81 990.76 -113.06 991.73 C-99.41 1008.82 -83.78 1023.8 -66.27 1036.88 C-65.41 1037.53 -65.41 1037.53 -64.54 1038.18 C-20.09 1071.3 33.2 1080.7 86.61 1090.32 C87.98 1090.57 87.98 1090.57 89.39 1090.83 C110.34 1094.63 130.71 1096.24 152.01 1096.2 C155.66 1096.2 159.31 1096.22 162.96 1096.24 C179.86 1096.29 195.9 1094.8 212.43 1091.29 C219.56 1090.03 226.09 1091.15 233.04 1092.82 C246.59 1096.05 260.07 1096.07 273.93 1096.07 C276.89 1096.07 279.86 1096.09 282.83 1096.11 C298.25 1096.15 313.15 1095.31 328.11 1091.26 C329.55 1090.87 329.55 1090.87 331.03 1090.47 C350.43 1085.06 369.54 1076.28 384.73 1062.88 C385.96 1061.84 385.96 1061.84 387.21 1060.77 C420.63 1031.64 437.27 988.36 440.73 944.88 C440.89 941.32 440.94 937.76 440.97 934.2 C440.98 933.2 440.99 932.2 441 931.17 C441.19 907.1 440.6 883.65 436.73 859.88 C436.59 859.05 436.46 858.21 436.32 857.34 C432.71 835.39 428.46 813.56 424.21 791.72 C424.05 790.94 423.9 790.15 423.74 789.34 C422.22 781.5 420.68 773.65 419.13 765.81 C416.22 751.09 413.39 736.36 410.92 721.55 C410.72 720.37 410.52 719.18 410.32 717.96 C406.73 696.01 404.5 674.08 404.54 651.82 C404.54 651.1 404.54 650.39 404.55 649.65 C404.67 605.63 414.65 555.78 444.73 521.88 C458.92 509.84 474.87 506.83 492.87 506.64 C495.02 506.6 497.16 506.57 499.3 506.54 C502.64 506.49 505.97 506.45 509.31 506.41 C530.35 507.52 530.35 507.52 548.73 499.88 C552.76 493.49 552.72 486.24 551.73 478.88 C549.55 472.98 543.92 470.7 538.54 468.13 C493.18 447.79 444.84 471.22 410.73 501.88 Z M-202.27 598.88 C-203.17 599.7 -204.07 600.51 -205 601.35 C-219.5 615.16 -237.28 638.98 -238.61 659.61 C-238 663.68 -235.48 666.43 -232.27 668.88 C-231.61 668.88 -230.95 668.88 -230.27 668.88 C-229.87 667.64 -229.47 666.39 -229.05 665.11 C-217.4 629.84 -195.04 598.73 -161.33 581.76 C-159.98 581.12 -158.63 580.49 -157.27 579.88 C-158.72 583.65 -160.3 584.69 -163.89 586.38 C-189.29 599.6 -206.88 622.2 -219.08 647.57 C-219.64 648.73 -219.64 648.73 -220.21 649.91 C-225.46 660.52 -225.46 660.52 -225.27 671.88 C-222.84 673.92 -220.28 674.11 -217.21 674.32 C-215.26 674.1 -215.26 674.1 -213.27 673.88 C-210.39 670.18 -209.31 666.01 -208.08 661.57 C-202.83 643.85 -192.46 624.84 -180.27 610.88 C-179.28 610.55 -178.29 610.22 -177.27 609.88 C-178.27 613.44 -179.85 615.63 -182.33 618.26 C-195.38 632.84 -205.38 654.6 -208.27 673.88 C-203.87 673.69 -200.28 673.45 -196.39 671.26 C-192.17 666.53 -190.89 660.77 -189.58 654.7 C-184.03 630.96 -172.32 610.78 -155.38 593.46 C-151.94 589.88 -149.5 586.34 -147.27 581.88 C-147.16 579.1 -147.16 579.1 -148.27 576.88 C-165.45 565.43 -190.44 588.14 -202.27 598.88 Z M68.73 670.88 C66.62 673.01 64.61 675.16 62.61 677.38 C51.65 689.31 40.55 700.93 27.73 710.88 C26.93 711.55 26.12 712.23 25.29 712.92 C18.85 718.28 12.01 722.73 4.73 726.88 C3.63 727.52 3.63 727.52 2.5 728.17 C-11.31 735.19 -29.73 734.82 -44.83 736.07 C-46.92 736.25 -49.01 736.43 -51.1 736.61 C-56.16 737.04 -61.21 737.46 -66.27 737.88 C-63.56 739.28 -61.3 740.21 -58.29 740.7 C-57.52 740.82 -56.76 740.95 -55.98 741.07 C-55.17 741.2 -54.35 741.32 -53.52 741.45 C-52.68 741.57 -51.83 741.7 -50.96 741.84 C-43.07 743 -35.24 743.62 -27.27 743.88 C-26.06 743.92 -24.85 743.97 -23.61 744.01 C3.49 744.47 29.71 739.36 51.73 722.88 C52.5 722.32 53.27 721.75 54.07 721.17 C66.26 711.5 68.71 693.54 70.73 678.88 C70.79 677.43 70.82 675.97 70.79 674.51 C70.76 672.71 70.76 672.71 70.73 670.88 C70.07 670.88 69.41 670.88 68.73 670.88 Z M-259.27 721.88 C-263.22 726.46 -262.77 731.6 -262.71 737.32 C-262.7 738.3 -262.69 739.28 -262.69 740.29 C-262.44 751.67 -260.53 762.63 -252.14 771.01 C-246.12 774.94 -239.46 777.43 -232.27 777.88 C-231.28 777.39 -231.28 777.39 -230.27 776.88 C-230.27 775.56 -230.27 774.24 -230.27 772.88 C-231.12 772.66 -231.96 772.44 -232.83 772.22 C-239.69 770.3 -246.4 768.4 -251.27 762.88 C-251.27 761.89 -251.27 760.9 -251.27 759.88 C-245.56 760.25 -241.59 762.05 -236.6 764.82 C-234.09 766.16 -234.09 766.16 -230.27 765.88 C-230.16 764.3 -230.08 762.72 -230.02 761.13 C-229.97 760.25 -229.93 759.37 -229.88 758.46 C-230.4 755.01 -231.54 754.01 -234.27 751.88 C-236.98 750.55 -236.98 750.55 -239.96 749.51 C-245.43 747.33 -250.89 744.93 -255.27 740.88 C-255.27 739.89 -255.27 738.9 -255.27 737.88 C-249.36 738.37 -245.04 740.18 -239.83 742.95 C-239.1 743.32 -238.37 743.7 -237.62 744.09 C-235.83 745.01 -234.05 745.95 -232.27 746.88 C-231.94 745.56 -231.61 744.24 -231.27 742.88 C-234.91 739.73 -238.66 736.86 -242.58 734.07 C-247.18 730.77 -251.37 727.23 -255.49 723.35 C-257.14 721.67 -257.14 721.67 -259.27 721.88 Z M-218.27 746.88 C-218.29 747.81 -218.31 748.74 -218.33 749.69 C-218.41 753.17 -218.49 756.64 -218.59 760.12 C-218.62 761.61 -218.66 763.11 -218.69 764.61 C-218.74 766.77 -218.8 768.94 -218.86 771.1 C-218.89 772.4 -218.92 773.7 -218.95 775.04 C-219.2 778.01 -219.59 780.32 -220.37 783.14 C-221.48 787.75 -220.4 790.15 -218.14 794.07 C-217.68 794.95 -217.68 794.95 -217.21 795.86 C-215.23 799.52 -212.92 802.69 -210.27 805.88 C-209.94 806.54 -209.61 807.2 -209.27 807.88 C-212.84 806.25 -214.71 804.49 -216.71 801.2 C-217.13 800.5 -217.55 799.81 -217.99 799.09 C-218.85 797.61 -219.66 796.11 -220.43 794.58 C-221.87 792.1 -222.92 790.57 -225.27 788.88 C-230.01 788.21 -234.52 788.41 -239.27 788.88 C-235.92 800.91 -229.41 811.26 -218.6 817.91 C-212.07 821.5 -205.11 822.54 -197.85 823.86 C-188.24 825.75 -181.34 829.41 -174.33 836.2 C-171.29 839.65 -171.29 839.65 -167.27 840.88 C-165.22 838.2 -164.32 836.24 -163.83 832.88 C-164.64 827.31 -168.24 824.85 -172.52 821.63 C-183.18 813.46 -188.26 804.71 -191.29 791.63 C-191.45 790.92 -191.62 790.2 -191.79 789.46 C-192.1 788.07 -192.39 786.67 -192.66 785.26 C-193.4 781.84 -194.14 780.01 -196.62 777.5 C-199.04 776.02 -200.83 775.19 -203.58 774.63 C-204.8 774.39 -206.02 774.14 -207.27 773.88 C-205.99 783.04 -202.64 791.34 -199.27 799.88 C-207.1 792.93 -208.92 781.05 -211.28 771.2 C-212.1 767.9 -212.1 767.9 -213.85 765.43 C-215.73 762.06 -215.76 758.9 -215.83 755.13 C-215.89 752.69 -216.03 750.32 -216.27 747.88 C-216.93 747.55 -217.59 747.22 -218.27 746.88 Z M-204.27 750.88 C-204.95 756.98 -204.95 756.98 -202.39 762.26 C-198.23 764.42 -193.95 766.26 -189.27 766.88 C-187 766.05 -187 766.05 -185.27 764.88 C-186.74 758.86 -186.74 758.86 -190.27 753.95 C-194.83 752.33 -199.5 751.59 -204.27 750.88 Z M-174.27 761.88 C-174.28 762.47 -174.3 763.07 -174.31 763.68 C-174.59 768.19 -174.72 770.27 -177.83 773.76 C-178.64 774.46 -179.44 775.16 -180.27 775.88 C-180.27 776.87 -180.27 777.86 -180.27 778.88 C-177.71 779.22 -175.14 779.55 -172.58 779.88 C-171.86 779.98 -171.14 780.07 -170.4 780.17 C-166.66 780.65 -163.05 781 -159.27 780.88 C-162.16 776.45 -165.23 772.2 -168.46 768.01 C-168.91 767.41 -169.36 766.82 -169.82 766.21 C-170.95 764.75 -172.1 763.31 -173.27 761.88 C-173.6 761.88 -173.93 761.88 -174.27 761.88 Z M-166.77 1027.2 C-167.59 1028.08 -168.42 1028.97 -169.27 1029.88 C-169.78 1030.42 -170.29 1030.96 -170.81 1031.51 C-174.34 1035.4 -176.68 1038.84 -178.27 1043.88 C-178.07 1046.71 -178.07 1046.71 -177.27 1048.88 C-175.86 1049.42 -174.44 1049.93 -173.02 1050.45 C-172.23 1050.74 -171.44 1051.03 -170.63 1051.32 C-167.99 1051.95 -166.72 1052.07 -164.27 1050.88 C-163.16 1048.8 -163.16 1048.8 -162.46 1046.26 C-160.5 1040.9 -157.9 1037.25 -153.27 1033.88 C-150.33 1032.95 -150.33 1032.95 -148.27 1032.88 C-147.89 1035.07 -147.89 1035.07 -148.27 1037.88 C-149.71 1039.09 -151.16 1040.3 -152.67 1041.43 C-155.47 1043.98 -157.01 1047.34 -158.27 1050.88 C-158.27 1051.87 -158.27 1052.86 -158.27 1053.88 C-141.85 1057.65 -124.86 1058.29 -108.08 1059.01 C-106.67 1059.07 -106.67 1059.07 -105.23 1059.14 C-87.9 1059.91 -70.61 1060.13 -53.27 1059.88 C-76.58 1041.21 -138.12 1000.69 -166.77 1027.2 Z " fill="#000000" transform="translate(523.26953125,116.1171875)"/>
<path d="M0 0 C0.78 -0 1.57 -0 2.37 -0 C13.88 0.01 24.85 0.43 36.06 3.25 C36.74 3.41 37.42 3.57 38.12 3.74 C61.82 9.43 82.88 22.26 101.06 38.25 C102.01 39.07 102.95 39.9 103.93 40.75 C109.4 45.61 114.47 50.56 119.06 56.25 C119.83 57.18 120.6 58.11 121.39 59.07 C128.01 67.25 133.23 75.92 138.06 85.25 C138.38 85.86 138.7 86.47 139.04 87.1 C152.43 112.9 156.51 142.31 156.38 171.06 C156.37 171.89 156.37 172.73 156.37 173.58 C156.32 186.01 155.96 198.11 153.06 210.25 C152.77 211.5 152.77 211.5 152.48 212.79 C143.12 252.01 118.9 283.77 85.06 305.25 C79.2 308.85 73.16 312.07 67.06 315.25 C66.14 315.74 65.23 316.22 64.28 316.72 C24.78 337.52 -18.27 353.91 -61.94 363.19 C-62.87 363.39 -63.81 363.59 -64.77 363.79 C-80.23 366.9 -95.01 366.49 -110.56 364.56 C-111.29 364.47 -112.01 364.38 -112.76 364.29 C-160.48 358.37 -225.01 342.73 -256.94 303.25 C-261.45 296.53 -264.75 289.52 -267.69 282 C-268.32 280.39 -268.32 280.39 -268.97 278.75 C-290.13 224.14 -312.04 151.82 -287.12 94.88 C-278.21 75.34 -264.32 62.62 -244.46 54.53 C-219.32 45.38 -191.97 47.27 -166.32 52.89 C-148.5 56.75 -131.56 57.44 -115.58 47.2 C-111.69 44.33 -108.09 41.16 -104.45 37.99 C-74.52 11.97 -39.49 0.03 0 0 Z M-92.94 37.25 C-93.55 37.73 -94.16 38.21 -94.79 38.7 C-97.2 40.6 -99.61 42.49 -102.01 44.39 C-118.05 57.04 -132.12 64.2 -152.94 62.25 C-161.77 61.06 -170.53 59.33 -179.29 57.66 C-207.06 52.39 -236.57 54.21 -260.58 70.48 C-277.73 83.37 -285.97 104.61 -288.94 125.25 C-293.39 163.09 -286.61 201.02 -275.94 237.25 C-275.59 238.45 -275.24 239.65 -274.87 240.88 C-264.75 276.4 -264.75 276.4 -243.94 306.25 C-242.92 307.28 -242.92 307.28 -241.89 308.34 C-235.93 314.01 -229.08 318.1 -221.96 322.11 C-220.64 322.86 -219.33 323.6 -218.02 324.36 C-165.33 354.83 -100.78 366.86 -41.94 351.25 C-12.72 343.35 15.61 331.9 43.06 319.25 C44.1 318.78 45.14 318.3 46.21 317.82 C64.85 309.32 83.65 299.98 99.06 286.25 C99.87 285.55 100.68 284.84 101.52 284.12 C104.07 281.87 106.57 279.57 109.06 277.25 C110.32 276.09 110.32 276.09 111.6 274.91 C130.9 256.48 142.03 230.14 147.06 204.25 C147.24 203.36 147.42 202.48 147.6 201.57 C149.37 191.65 149.42 181.85 149.38 171.81 C149.37 170.93 149.37 170.04 149.37 169.13 C149.22 125.93 137.57 84.97 107.06 53.25 C106.6 52.75 106.13 52.25 105.65 51.74 C78.2 22.53 42.7 8.23 3.06 6.25 C-31.86 5.74 -65.5 15.69 -92.94 37.25 Z " fill="#000000" transform="translate(615.9375,308.75)"/>
<path d="M0 0 C1.31 -0.02 1.31 -0.02 2.64 -0.05 C9.89 -0.05 17.1 0.77 23.04 5.21 C23.59 5.89 24.13 6.56 24.69 7.25 C25.26 7.92 25.83 8.59 26.42 9.28 C27.5 11.31 27.5 11.31 27.18 13.57 C26.84 14.43 26.84 14.43 26.5 15.31 C25.46 15.52 24.43 15.72 23.36 15.93 C21.99 16.21 20.62 16.48 19.25 16.75 C18.57 16.88 17.89 17.02 17.18 17.16 C13.94 17.8 10.7 18.46 7.5 19.31 C5.78 25.27 4.21 31.27 2.81 37.31 C2.56 38.38 2.31 39.46 2.05 40.56 C0.65 50.1 1.88 58.66 4 68 C4.24 69.1 4.48 70.19 4.72 71.32 C5.3 73.99 5.9 76.65 6.5 79.31 C37.51 76.37 77.18 56.52 97.66 32.86 C100.55 28.85 102.66 24.49 104.76 20.04 C106.74 16.94 108.01 16.26 111.5 15.31 C113.5 17.31 113.5 17.31 114 20.75 C113.61 31.57 104.59 40.59 97.22 47.73 C87.53 56.63 76.14 63.32 64.5 69.31 C63.72 69.71 62.95 70.11 62.15 70.53 C44.46 79.55 25.22 88.08 5.5 91.31 C4.77 91.44 4.04 91.57 3.29 91.7 C-12.23 93.92 -30.86 93.17 -45.5 87.31 C-46.12 85 -46.12 85 -46.5 82.31 C-45.84 81.32 -45.18 80.33 -44.5 79.31 C-42.81 79.46 -41.12 79.6 -39.44 79.75 C-38.03 79.87 -38.03 79.87 -36.59 80 C-34.51 80.21 -32.44 80.48 -30.38 80.81 C-25.11 81.49 -19.86 81.67 -14.56 81.88 C-13.5 81.92 -12.43 81.96 -11.33 82.01 C-8.72 82.11 -6.11 82.21 -3.5 82.31 C-4.42 77.93 -5.37 73.56 -6.31 69.19 C-6.57 67.95 -6.83 66.71 -7.1 65.44 C-7.36 64.24 -7.63 63.04 -7.89 61.8 C-8.13 60.7 -8.37 59.61 -8.61 58.47 C-10.27 52.58 -12.57 48.84 -17.25 44.94 C-20.55 42.1 -23.52 39.27 -26.31 35.94 C-28.82 33.01 -30.83 30.74 -34.5 29.31 C-39.37 29 -43.7 29.35 -48.5 30.31 C-50.5 27.31 -50.5 27.31 -50.56 24.12 C-48.58 17.03 -43.22 12.09 -36.93 8.47 C-25.05 2.81 -13.1 -0.05 0 0 Z M-30.5 13.31 C-30.83 14.3 -31.16 15.29 -31.5 16.31 C-29.9 17.92 -28.22 17.52 -26 17.56 C-20.99 17.5 -15.86 16.97 -11.5 14.31 C-10.7 12.27 -10.7 12.27 -10.5 10.31 C-17.84 9.98 -23.86 9.93 -30.5 13.31 Z " fill="#000000" transform="translate(532.5,541.6875)"/>
<path d="M0 0 C10.18 8.29 17.03 20.94 19.31 33.81 C20.18 43.71 20.58 54.67 16.31 63.81 C15.85 64.83 15.38 65.85 14.91 66.91 C7.13 82.6 -4.32 92.81 -20.61 98.87 C-35.85 103.55 -51.35 101.17 -65.38 94.12 C-78.57 86.41 -87.97 74.94 -92.19 60.25 C-96.13 42.78 -95.11 28.32 -85.69 12.81 C-75.55 -2.17 -63.18 -8.73 -46.15 -12.79 C-28.93 -15.55 -13.91 -9.94 0 0 Z M-71.1 8.99 C-81.97 21.47 -85.53 34.45 -84.87 50.58 C-83.85 63.28 -76.04 73.73 -66.69 81.81 C-54.98 90.74 -40.93 91.91 -26.69 90.81 C-14.68 88.64 -3.65 79.6 3.31 69.81 C10.58 58.3 10.92 43.44 8.73 30.34 C5.08 17.68 -3.71 8.59 -14.69 1.81 C-15.72 1.17 -15.72 1.17 -16.78 0.51 C-33.31 -8.76 -57.6 -3.59 -71.1 8.99 Z " fill="#000000" transform="translate(658.6875,436.1875)"/>
<path d="M0 0 C11.13 7.73 17.61 19.8 20.71 32.89 C22.68 47.26 21.69 61.99 13.08 74.21 C11.38 76.22 9.61 78.06 7.71 79.89 C7.22 80.41 6.72 80.93 6.2 81.46 C-3.09 90.38 -15 94.23 -27.56 94.1 C-40.53 93.36 -53.16 88.28 -62.12 78.72 C-66.17 73.41 -69.26 67.55 -72.34 61.63 C-73.16 60.12 -74.06 58.66 -74.98 57.21 C-79.66 48.87 -78.63 33.32 -76.16 24.32 C-70.92 10.43 -62.99 0.61 -49.93 -6.37 C-33.66 -13.58 -14.47 -9.07 0 0 Z M-58.29 12.03 C-63.76 18.74 -66.58 25.32 -67.47 33.89 C-67.55 34.56 -67.64 35.23 -67.72 35.93 C-69.18 48.63 -67.33 57.15 -59.45 67.28 C-58.73 68.14 -58.02 69 -57.29 69.89 C-56.36 71.02 -56.36 71.02 -55.41 72.18 C-48.79 79.53 -39.34 83.5 -29.53 84.12 C-16.79 84.45 -8.19 82.73 1.38 73.66 C10.82 62.43 12.61 50.07 11.71 35.89 C10.28 25.94 4.19 16.36 -3.06 9.52 C-20.06 -2.97 -43.01 -4.32 -58.29 12.03 Z " fill="#000000" transform="translate(441.28515625,486.11328125)"/>
<path d="M0 0 C7.73 4.16 12.11 8.77 15.33 17.05 C17.53 24.84 17.19 33 13.41 40.2 C13.01 40.86 12.62 41.51 12.21 42.19 C11.85 42.83 11.49 43.47 11.12 44.12 C7.4 49.99 2.31 52.94 -4.04 55.5 C-12.97 57.14 -20.95 57.13 -28.79 52.19 C-35.73 47.33 -41.25 40.74 -42.79 32.19 C-42.85 30.28 -42.87 28.36 -42.85 26.44 C-42.84 25.46 -42.83 24.47 -42.82 23.46 C-42.81 22.71 -42.8 21.96 -42.79 21.19 C-39.4 20.06 -39.09 20.25 -36.04 21.63 C-31.38 23.5 -27.23 24.09 -22.41 22.32 C-20.63 21.27 -20.63 21.27 -19.79 19.19 C-19.07 13.67 -19.2 9.45 -22.35 4.75 C-22.82 4.14 -23.3 3.52 -23.79 2.88 C-24.12 2.32 -24.45 1.77 -24.79 1.19 C-24.46 0.2 -24.13 -0.79 -23.79 -1.81 C-15.96 -4.42 -7.39 -3.44 0 0 Z " fill="#000000" transform="translate(642.78515625,454.80859375)"/>
<path d="M0 0 C7.23 3.97 11.94 10.03 14.48 17.89 C15.97 25.88 16.05 33.13 11.69 40.16 C7.83 45.68 3.55 49.57 -3.12 51.03 C-12.97 51.96 -20.11 50.35 -27.94 44.28 C-33.77 38.89 -35.57 32.76 -36.12 25.03 C-33.04 24.26 -30.22 23.98 -27.06 24.03 C-23.98 24.03 -21.99 23.85 -19.12 23.03 C-18.3 18.56 -17.76 15.09 -19.25 10.72 C-21.24 7.86 -23.37 6.12 -26.12 4.03 C-26.12 3.37 -26.12 2.71 -26.12 2.03 C-17.37 -2.14 -9.2 -4.01 0 0 Z " fill="#000000" transform="translate(432.125,504.96875)"/>
<path d="M0 0 C6.93 4.56 13.18 10.33 17.34 17.54 C17.66 20.48 17.66 20.48 17.34 22.54 C11.59 22.16 7.32 20.29 2.19 17.7 C-4.03 15.17 -10.57 15.43 -17.17 15.52 C-19 15.53 -20.82 15.54 -22.65 15.55 C-25.51 15.58 -28.36 15.61 -31.22 15.64 C-34 15.67 -36.77 15.69 -39.54 15.7 C-40.4 15.72 -41.25 15.73 -42.13 15.74 C-42.93 15.75 -43.73 15.75 -44.55 15.75 C-45.6 15.77 -45.6 15.77 -46.67 15.78 C-49 15.5 -50.62 14.69 -52.66 13.54 C-53.03 8.86 -53.14 5.49 -50.97 1.23 C-38.32 -13.47 -15.23 -8.25 0 0 Z " fill="#000000" transform="translate(645.65625,388.45703125)"/>
<path d="M0 0 C2.38 2.83 2.96 4.32 3.19 8 C1.17 13.09 -3.71 14.96 -8.54 17.15 C-11.29 18.28 -14.04 19.36 -16.81 20.44 C-31.36 26.27 -43.21 32.31 -53 45 C-54.32 44.67 -55.64 44.34 -57 44 C-58.02 33.76 -54.77 25.35 -48.62 17.19 C-47.44 15.78 -46.23 14.38 -45 13 C-44.49 12.4 -43.98 11.79 -43.45 11.17 C-32.44 -0.94 -14.8 -10.65 0 0 Z " fill="#000000" transform="translate(404,443)"/>
<path d="M0 0 C1.33 2.22 1.33 2.22 2 4 C1.32 3.72 0.64 3.45 -0.07 3.16 C-3.34 1.87 -6.63 0.64 -9.94 -0.56 C-11.12 -1 -12.31 -1.43 -13.53 -1.88 C-35.24 -8.89 -61.07 -3.25 -81.03 6.48 C-93.32 12.92 -100.74 21.19 -105.27 34.36 C-106.91 40.32 -107.26 46.24 -107.56 52.38 C-107.61 53.21 -107.65 54.04 -107.69 54.89 C-107.8 56.93 -107.9 58.96 -108 61 C-108.99 61.5 -108.99 61.5 -110 62 C-113.68 49.34 -113.42 36.06 -108 24 C-107.66 23.21 -107.32 22.43 -106.97 21.62 C-99.7 6.76 -85.01 -1.51 -70 -6.71 C-47.04 -14.29 -20.19 -15.21 0 0 Z " fill="#000000" transform="translate(955,317)"/>
<path d="M0 0 C1.04 -0.02 2.09 -0.04 3.16 -0.06 C11.2 -0.1 18.57 0.71 25.38 5.25 C25.04 6.9 24.72 8.55 24.38 10.25 C20.95 11.39 20.49 11.12 17.3 9.84 C12.3 8.06 7.83 7.79 2.56 7.88 C1.69 7.89 0.81 7.9 -0.09 7.91 C-13.58 8.23 -24.46 12.2 -35 20.69 C-38.25 23.27 -38.25 23.27 -41.62 23.12 C-42.62 22.69 -42.62 22.69 -43.62 22.25 C-42.58 16.32 -38.03 12.94 -33.29 9.61 C-22.32 2.77 -12.78 0.06 0 0 Z " fill="#000000" transform="translate(523.625,518.75)"/>
<path d="M0 0 C0.64 0.41 1.28 0.83 1.94 1.25 C1.76 3.06 1.76 3.06 0.94 5.25 C-8.44 11.97 -21.59 15.29 -33.06 14.25 C-36 13.5 -36 13.5 -38.06 12.25 C-39 10.25 -39 10.25 -39.06 8.25 C-37.06 6.25 -37.06 6.25 -34.19 6.16 C-32.43 6.24 -32.43 6.24 -30.62 6.31 C-21.93 6.43 -14.97 4.72 -7.19 0.94 C-3.44 -0.84 -3.44 -0.84 0 0 Z " fill="#000000" transform="translate(567.0625,643.75)"/>
<path d="" fill="#000000" transform="translate(0,0)"/>
</svg>
