<?xml version="1.0" encoding="UTF-8"?>
<!-- Generator: visioncortex VTracer 0.6.3 -->
<svg version="1.1" xmlns="http://www.w3.org/2000/svg" width="1280" height="1280">
<path d="M0 0 C0.72 -0 1.43 -0 2.17 -0 C62.71 0.09 135.89 15.68 181.25 58.5 C208.16 86.44 213.44 127.33 212.79 164.43 C212.06 195.77 207.17 229.71 193.5 258.25 C193.2 258.87 192.91 259.5 192.6 260.14 C183.13 279.75 168.85 300.02 150.5 312.25 C146.45 323.54 156.69 341.09 161.45 351.29 C162.75 353.93 164.09 356.54 165.47 359.13 C166.5 361.25 166.5 361.25 166.5 363.25 C167.17 362.79 167.83 362.33 168.52 361.86 C179.76 354.37 188.15 351.65 201.6 352.4 C202.43 352.43 203.26 352.46 204.12 352.5 C204.87 352.55 205.61 352.59 206.38 352.64 C209.45 352.08 210.54 350.62 212.5 348.25 C213.86 346.05 213.86 346.05 214.98 343.65 C215.42 342.77 215.85 341.9 216.3 340.99 C216.76 340.07 217.22 339.14 217.69 338.19 C221.9 329.94 226.06 322.97 232.5 316.25 C233.21 315.49 233.21 315.49 233.94 314.71 C273.36 272.75 334.13 254.45 390.31 252.46 C444.96 250.91 497.86 256.24 548.5 278.25 C549.23 278.56 549.96 278.88 550.71 279.2 C572.03 288.48 590.71 301.23 607.5 317.25 C608.35 318.04 609.21 318.83 610.09 319.64 C617.25 326.47 622.89 334.15 628.5 342.25 C629.17 343.2 629.85 344.15 630.54 345.13 C642.9 363.4 647.07 385.23 647.14 406.92 C647.19 413.63 647.9 419.06 650.5 425.25 C650.93 426.33 651.37 427.4 651.82 428.51 C652.23 429.45 652.64 430.4 653.06 431.38 C658.15 443.49 659.29 453.46 656.53 466.24 C655.63 470.54 655.01 474.05 656.5 478.25 C666.13 486.39 679.76 486.62 691.75 486.69 C692.83 486.7 693.9 486.71 695.01 486.72 C704.72 486.61 714 485.03 722.62 480.38 C723.61 479.86 724.59 479.35 725.61 478.82 C727.51 477.79 729.41 476.75 731.3 475.71 C732.17 475.25 733.04 474.79 733.94 474.31 C734.7 473.89 735.46 473.47 736.25 473.04 C739.05 472.06 740.69 472.4 743.5 473.25 C744.5 474.25 744.5 474.25 744.78 477.85 C744.72 482.35 743.22 485.77 741 489.62 C740.64 490.28 740.27 490.93 739.9 491.6 C727.27 513.63 709.76 524.72 686.5 533.25 C685.47 533.64 684.44 534.03 683.38 534.43 C678.45 535.97 673.58 536.38 668.44 536.42 C667.34 536.43 666.25 536.43 665.12 536.44 C660.24 536.43 655.37 536.37 650.5 536.25 C640.79 574.88 656.85 613.4 672.34 648.76 C675.67 656.44 678.3 664.18 680.5 672.25 C680.74 673.1 680.99 673.95 681.24 674.82 C682.6 680.32 682.76 685.86 682.88 691.5 C682.9 692.27 682.93 693.04 682.95 693.83 C682.97 700.25 680.87 703.65 676.53 708.41 C662.77 720.93 643.1 724.47 625.31 727.88 C624.55 728.02 623.78 728.17 622.99 728.32 C618.48 729.2 613.96 730.05 609.43 730.89 C607.74 731.2 606.05 731.53 604.37 731.85 C592.95 734.02 581.66 734.52 570.06 734.56 C569.39 734.57 568.72 734.57 568.03 734.57 C554.05 734.61 540.41 734.19 528.5 726.25 C523.64 724.99 518.82 725.22 513.84 725.32 C484.74 725.84 484.74 725.84 473.5 717.25 C465.87 709.79 463.39 700.52 463.12 690.12 C463.02 680.25 464.52 670.56 465.94 660.81 C466.11 659.62 466.11 659.62 466.29 658.41 C466.62 656.13 466.96 653.85 467.31 651.57 C467.41 650.87 467.52 650.18 467.62 649.47 C468.07 646.61 468.58 644 469.5 641.25 C468.81 641.37 468.11 641.49 467.39 641.62 C442.21 645.77 417.68 646.72 392.5 642.25 C392.64 643.33 392.78 644.41 392.93 645.52 C394.24 656.02 394.82 666.34 394.76 676.92 C394.75 679.34 394.76 681.76 394.77 684.19 C394.79 696.14 394.29 706.55 386.5 716.25 C360.81 740.29 315.85 743.14 282.69 742.5 C263.39 741.78 242.18 736.88 227.94 723.12 C223.63 718.47 221.04 714.71 220.5 708.25 C220.8 706.58 221.13 704.91 221.5 703.25 C220.74 703.27 219.98 703.28 219.2 703.3 C174.68 704.1 174.68 704.1 161.31 691.56 C158.46 687.93 158.04 684.47 158.09 679.9 C158.92 674.52 161.9 669.96 164.5 665.25 C165.62 663.09 166.72 660.92 167.81 658.75 C168.3 657.79 168.79 656.83 169.3 655.84 C176.93 639.35 172.75 613.07 172.8 595.06 C172.81 590.76 172.84 586.46 172.88 582.16 C172.91 578.81 172.91 575.46 172.92 572.1 C172.92 570.52 172.93 568.93 172.95 567.34 C173.18 554.4 173.18 554.4 166.85 543.44 C166 542.85 166 542.85 165.12 542.25 C164.42 541.77 163.72 541.28 163 540.79 C159.52 538.65 155.96 536.68 152.4 534.69 C131.72 522.99 112.21 508.04 94.5 492.25 C93.59 491.45 92.67 490.65 91.73 489.82 C86.11 484.83 80.77 479.61 75.5 474.25 C72.63 471.36 69.74 468.5 66.83 465.65 C59.23 458.17 52.06 450.67 45.5 442.25 C44.57 441.12 43.65 440 42.71 438.88 C24.86 417.23 7.49 391.12 0.64 363.56 C-1.05 360.15 -3.17 359.04 -6.5 357.25 C-9.1 356.48 -11.54 355.88 -14.19 355.38 C-15.79 355.04 -17.4 354.71 -19.01 354.37 C-19.88 354.19 -20.76 354.01 -21.66 353.83 C-64.49 345.06 -106.68 332.71 -145.5 312.25 C-146.49 311.75 -147.48 311.25 -148.5 310.74 C-168.94 300.15 -187.38 283.16 -195.5 261.25 C-195.84 260.34 -196.19 259.43 -196.54 258.49 C-205.34 232.69 -211.4 196.05 -199.7 170.31 C-190.92 155.22 -170.44 149.31 -154.61 145.06 C-150.91 144.09 -147.21 143.16 -143.5 142.25 C-143.3 139.3 -143.3 139.3 -144.48 136.96 C-148.62 126 -144.53 112.36 -140.14 102.07 C-137.93 97.68 -135.89 94.28 -131.94 91.31 C-126.28 87.01 -124.4 79.74 -122.68 73.09 C-122.22 70.27 -122.22 70.27 -123.71 68.34 C-124.28 67.82 -124.85 67.29 -125.44 66.75 C-127.72 64.33 -128.44 63.54 -129.12 60.19 C-128.06 55.18 -125.69 52.25 -121.81 49 C-118.82 47.42 -117.33 47.01 -114.12 46.56 C-107.28 45.26 -103.96 39.5 -99.97 34.23 C-82.95 12.96 -50.52 3.92 -24.73 0.93 C-16.5 0.16 -8.26 0.01 0 0 Z M-83.5 36.25 C-84.36 36.9 -84.36 36.9 -85.24 37.56 C-108.49 55.56 -116.49 90.37 -120.81 117.81 C-122.02 127.03 -122.02 127.03 -121.5 136.25 C-119.06 139.11 -119.06 139.11 -116.5 141.25 C-116.85 144.38 -116.85 144.38 -117.5 147.25 C-125.32 149.96 -133.15 152.5 -141.13 154.68 C-141.86 154.88 -142.59 155.08 -143.34 155.29 C-146.33 156.11 -149.32 156.93 -152.31 157.72 C-173.85 163.32 -173.85 163.32 -189.54 178.04 C-200.23 200.87 -190.37 236.79 -182.5 259.25 C-172.13 286.6 -145.21 299.33 -120.22 310.75 C-68.21 333.73 -5.03 352.87 52.25 344.87 C56.93 344.26 60.85 344.37 65.5 345.25 C65.83 347.23 66.16 349.21 66.5 351.25 C56.63 359.25 42.81 357.5 30.81 357.38 C29.13 357.36 27.44 357.36 25.76 357.35 C21.67 357.33 17.59 357.29 13.5 357.25 C11.92 360.4 13.43 363.18 14.44 366.38 C14.66 367.09 14.89 367.8 15.12 368.53 C17.76 376.53 21.49 383.86 25.5 391.25 C26.43 392.99 26.43 392.99 27.37 394.77 C37.77 413.69 51.4 430.85 66.09 446.62 C68.01 448.72 69.88 450.84 71.73 453 C75.77 457.63 80.08 461.98 84.44 466.31 C85.2 467.08 85.96 467.84 86.74 468.63 C91.5 473.38 96.4 477.87 101.5 482.25 C102.56 483.19 103.62 484.13 104.68 485.07 C142.82 518.64 189.3 546.19 238.94 557.89 C244.19 559.14 249.35 560.64 254.5 562.25 C254.84 586.08 254.63 609.82 253.25 633.62 C253.17 635.17 253.17 635.17 253.08 636.74 C252.28 651.49 250.41 664.81 244.75 678.56 C243.08 682.3 243.08 682.3 242.5 686.25 C243.57 686.02 243.57 686.02 244.67 685.78 C250.8 684.64 257.17 683.84 262.69 687.25 C269.69 693.24 273.25 703.83 276.5 712.25 C279.47 709.71 280.72 706.9 282.31 703.38 C285.32 697.2 287.86 694.26 293.88 690.94 C300.38 689.23 305.41 689.99 311.34 692.95 C318.81 697.45 322.56 704.37 326.61 711.85 C329.62 717.94 329.62 717.94 334.5 722.25 C347.58 724.04 360.67 718.25 371.5 711.25 C372.89 710.35 372.89 710.35 374.31 709.44 C381.87 701.88 382.53 690.94 382.57 680.75 C382.56 674.66 382.16 668.65 381.62 662.59 C381.44 660.39 381.26 658.19 381.08 655.99 C380.79 652.6 380.5 649.21 380.21 645.81 C379.02 631.92 378.2 618.2 378.5 604.25 C380.42 604.16 380.42 604.16 382.38 604.06 C383.45 604.01 383.45 604.01 384.55 603.96 C385.52 604.1 385.52 604.1 386.5 604.25 C388.41 607.12 388.79 608.07 389.18 611.3 C389.28 612.08 389.39 612.86 389.5 613.67 C389.71 615.3 389.9 616.93 390.09 618.56 C390.63 622.37 391.28 624.9 393.36 628.2 C401.28 633.38 412.14 632.61 421.31 632.56 C422.52 632.56 423.73 632.55 424.97 632.55 C478.03 632.4 478.03 632.4 526.5 615.25 C527.46 612.64 528.13 610.38 528.69 607.69 C530.28 600.47 530.28 600.47 532.5 598.25 C536.12 598.12 536.12 598.12 539.5 598.25 C540.22 625.92 540.66 653.57 540.5 681.25 C544.07 679.85 544.07 679.85 547.51 678.15 C551.82 676.2 557.02 676.53 561.5 677.83 C571.17 682.55 574.77 694.95 578.5 704.25 C579.16 704.25 579.82 704.25 580.5 704.25 C580.73 703.53 580.96 702.8 581.2 702.05 C583.77 694.43 586.01 688.97 593.31 684.94 C598.97 682.41 603.89 681.57 609.94 683.19 C619.77 687.03 624.98 694.83 629.79 703.79 C631.83 707.4 632.95 708.98 636.79 710.85 C641.31 711.34 644.53 710.64 648.81 709.25 C649.56 709.02 650.3 708.79 651.06 708.55 C657.89 706.33 664.36 703.39 669.5 698.25 C671.54 677.87 664.1 659.47 655.92 641.21 C650.09 628.15 645.51 614.97 641.5 601.25 C641.21 600.25 641.21 600.25 640.91 599.23 C639.62 594.85 638.35 590.46 637.12 586.06 C636.71 584.62 636.3 583.19 635.89 581.75 C631.95 568.05 631.7 558.22 635.88 544.56 C636.51 542.41 637.14 540.26 637.77 538.11 C638.07 537.11 638.37 536.11 638.68 535.08 C639.72 531.49 640.63 527.88 641.5 524.25 C642.35 524.24 643.2 524.23 644.08 524.22 C670.06 523.86 695.79 522.66 715.5 503.25 C717.68 500.69 719.66 498.06 721.5 495.25 C720.89 495.37 720.28 495.49 719.66 495.62 C698.41 499.68 677.55 501.42 656.9 493.84 C652.7 492.36 649.77 491.87 645.5 493.25 C643.33 495 643.33 495 641.56 497.31 C640.88 498.13 640.19 498.95 639.48 499.8 C638.3 501.27 637.11 502.73 635.93 504.2 C599.79 547.53 532.16 568.54 478.32 573.67 C460.79 575.15 443.09 575.6 425.5 575.25 C424.73 575.24 423.96 575.22 423.17 575.21 C381.77 574.38 338.13 563.19 304.5 538.25 C303.13 537.24 303.13 537.24 301.73 536.22 C285.83 523.84 273 508.69 261.5 492.25 C261.04 491.59 260.57 490.93 260.09 490.24 C257.12 485.98 254.29 481.63 251.5 477.25 C250.79 476.15 250.79 476.15 250.07 475.03 C243.06 464.09 236.56 452.9 230.31 441.5 C229.8 440.56 229.8 440.56 229.28 439.61 C227.93 437.16 226.59 434.71 225.25 432.26 C216.09 412.7 216.09 412.7 201.37 398.41 C199.41 398.08 199.41 398.08 197.5 399.25 C188.06 400.34 181.45 397.55 173.88 392.12 C156.42 377.78 147.11 350.07 139.56 329.5 C139.32 328.83 139.07 328.16 138.82 327.48 C138.11 325.55 137.42 323.63 136.72 321.7 C136.32 320.58 135.91 319.46 135.5 318.3 C133.79 313.07 133.79 313.07 133.5 310.25 C136.51 306.57 140.13 303.97 144 301.25 C176.95 276.76 191.41 238.8 197.31 199.38 C197.76 196.34 198.15 193.3 198.5 190.25 C198.59 189.5 198.69 188.75 198.79 187.97 C199.76 179.06 199.72 170.1 199.74 161.15 C199.75 158.35 199.78 155.55 199.81 152.76 C199.91 136.96 198.63 121.14 193.81 106 C193.56 105.19 193.31 104.37 193.05 103.53 C184.26 76.36 166.74 58.43 141.71 45.38 C107.75 28.12 71.21 18.65 33.5 14.25 C32.69 14.15 31.89 14.05 31.06 13.94 C22.08 12.95 13.05 13.03 4.02 13.01 C1.17 13 -1.69 12.97 -4.55 12.94 C-32.6 12.78 -61.65 17.24 -83.5 36.25 Z M-134.56 104.25 C-137.16 108.27 -136.82 110.54 -136.5 115.25 C-133.51 114.57 -133.51 114.57 -132.31 112.69 C-131.13 109.14 -131.38 105.98 -131.5 102.25 C-132.86 102.13 -132.86 102.13 -134.56 104.25 Z M403.5 264.25 C404.88 274.53 410.22 280.93 418.06 287.48 C428.19 294.82 441.46 294.89 453.5 293.25 C462.54 290.99 470.64 285.22 475.5 277.25 C476.33 274.71 476.5 272.95 476.5 270.25 C468.53 268.02 460.88 266.67 452.62 266.12 C451.55 266.05 450.48 265.97 449.37 265.89 C434.1 264.82 418.82 264.01 403.5 264.25 Z M366.5 269.25 C364.93 281.12 371.14 293.59 377.5 303.25 C390.31 319.96 408.5 331.54 429.53 334.54 C445.47 336.36 463.71 335.9 478.5 329.25 C479.4 328.85 480.31 328.45 481.24 328.04 C495.56 321 509.27 307.39 514.54 292.26 C516.61 286.35 516.61 286.35 515.14 280.57 C511.48 277.36 507.91 276.5 503.25 275.38 C502.02 275.04 502.02 275.04 500.76 274.7 C495.29 273.31 491.04 273.07 485.5 274.25 C482.02 276.9 480.06 279.96 477.81 283.62 C471.86 292.72 462.73 296.61 452.5 299.25 C440.17 301.72 426.85 299.96 415.8 293.79 C406.59 287.62 402.05 279.43 397.25 269.75 C395.86 266.5 395.86 266.5 394.5 265.25 C379.87 264.35 379.87 264.35 366.5 269.25 Z M340.5 271.75 C339.45 272.02 338.39 272.29 337.3 272.57 C305.13 280.19 305.13 280.19 277.5 296.25 C276.55 303.68 279.38 310.66 283.12 317 C293.84 327.15 306.17 331.65 320.8 331.45 C338.33 330.49 358.47 324.12 372.5 313.25 C373.81 311.17 373.81 311.17 374.5 309.25 C374.11 308.69 373.73 308.14 373.33 307.56 C372.81 306.8 372.29 306.04 371.75 305.25 C371.24 304.51 370.73 303.76 370.2 303 C365.87 296.01 363.55 289.41 361.81 281.38 C361.39 279.5 360.97 277.63 360.55 275.76 C360.37 274.94 360.19 274.12 360.01 273.28 C359.57 271.2 359.57 271.2 358.5 269.25 C352.17 268.9 346.61 270.18 340.5 271.75 Z M523.5 283.25 C523.19 284.41 523.19 284.41 522.87 285.6 C518.87 299.61 513.12 312.26 501.67 321.77 C501.09 322.5 501.09 322.5 500.5 323.25 C501.15 327.8 504.04 330.33 507.19 333.44 C507.76 334.01 508.34 334.58 508.94 335.17 C521.89 347.62 536.54 354.35 554.5 355.25 C563.52 354.9 572.55 351.41 579.48 345.58 C585.31 339.28 587.36 331.2 587.88 322.81 C587.92 322.09 587.97 321.37 588.02 320.63 C586.56 313.99 579.96 310.11 574.62 306.62 C573.85 306.12 573.08 305.61 572.28 305.08 C549.47 289.85 549.47 289.85 523.5 283.25 Z M265.02 303.88 C264.35 304.42 263.68 304.96 262.99 305.52 C261.94 306.37 261.94 306.37 260.88 307.25 C260.17 307.82 259.46 308.39 258.73 308.98 C256.99 310.4 255.24 311.82 253.5 313.25 C256.33 314.82 258.62 315.56 261.83 315.88 C262.63 315.97 263.43 316.05 264.25 316.14 C265.49 316.25 265.49 316.25 266.75 316.38 C268.01 316.5 268.01 316.5 269.3 316.64 C271.36 316.85 273.43 317.05 275.5 317.25 C275.2 316.37 274.91 315.49 274.6 314.59 C273.65 311.69 272.74 308.79 271.88 305.88 C271.48 304.56 271.48 304.56 271.09 303.23 C270.89 302.57 270.7 301.92 270.5 301.25 C267.83 301.25 267.08 302.2 265.02 303.88 Z M361.25 331 C349.25 343.6 340.85 358.6 340.19 376.25 C340.47 386.99 344.95 396.16 352.69 403.56 C360.81 409.94 370.44 411.45 380.5 410.25 C394.07 407.05 404.25 398.62 411.62 387.06 C419.69 373.38 424.56 358.02 426.5 342.25 C422.8 338.91 418.66 337.9 414 336.5 C402.19 332.73 393.05 327.11 383.68 318.97 C377.68 314.23 365.7 326.73 361.25 331 Z M236.97 329.77 C235.38 332.25 235.38 332.25 234.5 335.25 C235.18 335.33 235.87 335.42 236.57 335.51 C258.62 338.34 277.29 344.28 291.73 362.15 C293.75 364.79 295.63 367.5 297.5 370.25 C298.08 371.09 298.67 371.94 299.27 372.8 C309.75 388.99 312.44 408.46 308.94 427.21 C307.23 435.09 304.53 442.56 300.62 449.62 C298.1 454.39 297.95 458.1 299.5 463.25 C300.9 466.21 300.9 466.21 302.5 468.25 C313.02 463.71 320.03 450.32 324.27 440.18 C333.6 416.56 333.63 392.82 323.66 369.27 C319.19 359.39 313.23 351.79 305.5 344.25 C304.67 343.43 303.85 342.6 303 341.75 C288.67 328.12 270.48 322 250.92 321.5 C244.1 321.68 241.06 324.32 236.97 329.77 Z M594.5 323.25 C594.3 324.35 594.11 325.45 593.91 326.58 C591.59 338.44 587.99 347.35 578 354.88 C577.33 355.32 576.66 355.77 575.97 356.23 C575.48 356.56 575 356.9 574.5 357.25 C574.5 357.58 574.5 357.91 574.5 358.25 C575.63 358.49 576.76 358.74 577.92 358.99 C595.7 363.12 611.71 370.55 626.5 381.25 C628.5 382.59 630.49 383.92 632.5 385.25 C627.6 361.28 615.55 338.07 595.5 323.25 C595.17 323.25 594.84 323.25 594.5 323.25 Z M487.36 331.11 C470.45 339.23 455.97 341.67 437.3 342.09 C435.48 342.06 435.48 342.06 434.5 343.25 C433.58 362.57 436.72 382.51 448.5 398.25 C448.97 398.92 449.44 399.58 449.93 400.27 C455.03 406.89 462.51 411.07 470.5 413.25 C481.72 414.32 490.83 413.23 499.75 406.12 C508.81 397.6 511.93 387.23 512.45 375.11 C512.63 360.16 505.61 342.05 496.02 330.46 C493 328.05 490.42 329.6 487.36 331.11 Z M350.5 331.25 C349.37 331.6 348.24 331.95 347.08 332.31 C334.81 335.92 323.26 337.11 310.5 337.25 C311.76 339.96 313.12 342.17 315.07 344.43 C321.98 352.62 327.13 360.45 331.5 370.25 C332.16 371.59 332.83 372.92 333.5 374.25 C333.62 373.71 333.74 373.16 333.86 372.6 C337.25 357.56 341.32 345.18 351.5 333.25 C351 332.26 351 332.26 350.5 331.25 Z M227.5 346.25 C225.97 348.97 225.97 348.97 224.75 351.88 C224.32 352.84 223.89 353.8 223.45 354.79 C222.38 357.12 222.38 357.12 222.5 359.25 C224.17 360.27 225.89 361.21 227.62 362.12 C257.66 379.23 274.94 410.55 288.92 440.9 C289.36 441.84 289.8 442.78 290.25 443.75 C290.64 444.6 291.02 445.44 291.42 446.31 C292.35 448.41 292.35 448.41 294.5 449.25 C295.63 446.75 296.76 444.25 297.88 441.75 C298.19 441.05 298.51 440.36 298.84 439.64 C302.5 431.4 303.87 424.14 303.81 415.12 C303.81 414.2 303.8 413.27 303.8 412.32 C303.46 393.26 297.04 375.16 283.94 361.19 C270.65 348.46 253.99 342.57 235.75 341.94 C234.67 341.88 234.67 341.88 233.58 341.82 C230.54 342.45 229.45 343.87 227.5 346.25 Z M514.5 349.25 C514.62 349.83 514.74 350.42 514.87 351.02 C516.24 357.74 517.41 364.48 518.5 371.25 C519.47 370.36 520.44 369.48 521.44 368.56 C525.45 365.11 529.81 362.66 534.5 360.25 C531.91 357.66 528.88 356.34 525.62 354.75 C525 354.44 524.37 354.13 523.73 353.82 C521.99 352.96 520.24 352.1 518.5 351.25 C517.17 350.59 515.83 349.92 514.5 349.25 Z M524.69 375.03 C517.69 383.3 515.82 394.12 516.19 404.67 C518.42 430.28 530.63 454.41 542.56 476.75 C543.13 477.81 543.69 478.87 544.28 479.97 C550.95 493.21 550.95 493.21 560.5 504.25 C567.38 504.39 572.73 500.66 578.5 497.25 C577.17 493.61 575.54 490.57 573.38 487.36 C572.76 486.43 572.14 485.5 571.5 484.55 C570.84 483.56 570.18 482.58 569.5 481.56 C562.99 471.7 556.92 461.75 551.5 451.25 C551.13 450.54 550.77 449.83 550.39 449.1 C543.34 435.33 534.1 416.4 538.62 400.75 C540.68 395.08 544.1 391.24 548.69 387.44 C561.41 382.07 574.93 383.41 587.5 388.25 C601.86 394.09 615.56 400.74 628.01 410.05 C630.94 412.47 630.94 412.47 634.5 413.25 C635.69 402.78 635.69 402.78 632.38 393.31 C630.67 391.72 630.67 391.72 628.5 390.25 C627.56 389.57 626.62 388.89 625.65 388.2 C599.24 369.99 552.34 347.91 524.69 375.03 Z M176.5 372.25 C175.58 375.29 175.58 375.29 176.5 378.25 C178.6 380.59 178.6 380.59 181.5 382.25 C184.6 382.37 184.6 382.37 187.81 381.75 C194.11 381.06 197.34 381.73 202.5 385.25 C203.25 385.69 204 386.12 204.77 386.57 C210.41 389.99 213.93 393.77 217.5 399.25 C218.5 400.77 219.5 402.29 220.5 403.81 C220.93 404.49 221.37 405.18 221.81 405.88 C223.23 407.87 224.67 409.55 226.31 411.34 C230.21 415.84 232.81 420.93 235.56 426.19 C236.12 427.23 236.68 428.27 237.25 429.35 C239.01 432.65 240.75 435.95 242.5 439.25 C251.57 456.67 251.57 456.67 262.26 473.11 C264.48 476.22 266.51 479.4 268.53 482.64 C272.96 489.69 277.52 495.88 283.3 501.9 C285.25 503.98 286.91 506.06 288.56 508.38 C313.22 542.05 357.84 555.55 396.98 561.64 C467.67 571.9 547.93 558.2 606.19 515.56 C611.51 511.36 616.57 506.91 621.5 502.25 C622.28 501.52 623.07 500.79 623.88 500.04 C636.63 487.77 645.38 472.54 645.75 454.62 C645.68 449.78 645.19 445.78 643.5 441.25 C641.27 443.48 640.42 445.66 639.24 448.56 C624.94 483.67 587.56 508.36 553.88 522.62 C550.77 523.89 547.64 525.09 544.5 526.25 C543.67 526.56 542.85 526.86 541.99 527.18 C515.35 536.88 487.8 541.47 459.5 542.25 C458.27 542.29 457.05 542.33 455.79 542.38 C412.02 543.12 367.23 536.08 330.5 511.25 C329.89 510.84 329.27 510.43 328.64 510.01 C301.75 491.91 287.05 467.73 274.77 438.12 C263.42 410.81 244.12 383.23 217.5 369.25 C203.78 363.66 187.72 360.19 176.5 372.25 Z M427.5 366.25 C427.14 367.21 426.77 368.16 426.4 369.14 C421.63 381.5 416.22 391.91 407.48 401.91 C405.39 403.87 405.39 403.87 405.5 405.25 C406.17 405.24 406.85 405.23 407.54 405.22 C420.7 405.04 433.5 405.08 446.5 407.25 C444.63 403.95 442.77 400.68 440.75 397.47 C434.63 387.63 431.63 377.32 428.5 366.25 C428.17 366.25 427.84 366.25 427.5 366.25 Z M546.5 398.25 C543.05 403.61 543.93 410.16 544.5 416.25 C545.68 421.46 547.47 426.32 549.5 431.25 C549.81 432.01 550.12 432.76 550.44 433.54 C557.29 449.89 565.46 465.64 575.44 480.31 C576.11 481.3 576.11 481.3 576.8 482.32 C580.03 486.95 580.03 486.95 584.5 490.25 C593.1 488.88 598.82 483.29 605.03 477.59 C606.26 476.47 607.51 475.37 608.76 474.28 C620.96 463.04 630.7 445.52 633.5 429.25 C633.65 424.62 632.81 422.21 629.75 418.88 C612.93 403.62 585.87 389.1 562.78 389.96 C556.07 390.81 551.29 393.58 546.5 398.25 Z M338.5 398.25 C338.47 399.34 338.45 400.43 338.42 401.55 C337.57 426.98 330.51 448.39 313.32 467.64 C311.24 470.62 310.71 472.65 310.5 476.25 C311.67 478.93 311.67 478.93 313.5 481.25 C314.27 482.39 314.27 482.39 315.06 483.56 C315.54 484.12 316.01 484.68 316.5 485.25 C317.16 485.25 317.82 485.25 318.5 485.25 C319.03 484.06 319.57 482.88 320.12 481.66 C331.52 456.72 345.94 436.37 368.57 420.4 C369.54 419.69 370.5 418.98 371.5 418.25 C371.5 417.92 371.5 417.59 371.5 417.25 C370.25 417.01 370.25 417.01 368.97 416.77 C356.29 414.14 349.28 409.69 340.5 400.25 C339.84 399.59 339.18 398.93 338.5 398.25 Z M505.98 407.64 C505.41 408.25 504.84 408.87 504.25 409.5 C497.49 416.36 490.66 418.7 481.5 421.25 C484.23 424.15 486.96 426.66 490.19 429 C505.16 440.04 516.28 453.9 526.5 469.25 C527.17 470.26 527.84 471.27 528.54 472.3 C533.24 479.88 536.41 488.03 539.61 496.32 C539.92 497.12 540.23 497.92 540.55 498.75 C541.22 500.51 541.86 502.28 542.49 504.06 C542.82 504.96 543.15 505.87 543.49 506.8 C543.78 507.63 544.07 508.46 544.37 509.31 C545.34 511.41 545.34 511.41 547.45 512.12 C550.46 512.31 552.09 510.92 554.5 509.25 C553 504.91 550.67 501.41 548.06 497.69 C530.49 471.79 516.54 441.99 511.04 411.06 C510.64 408.31 510.64 408.31 509.5 406.25 C507.4 406.02 507.4 406.02 505.98 407.64 Z M349.02 445.53 C338.66 457.27 327.74 473.78 324.5 489.25 C324.94 493.94 328.01 496.08 331.41 499.01 C341.76 506.61 341.76 506.61 353.5 510.25 C353.76 509.45 354.02 508.65 354.29 507.83 C360.57 488.72 366.75 471.2 379.5 455.25 C380.46 454.05 380.46 454.05 381.43 452.82 C391.97 440.25 407.19 432.05 423.5 430.25 C441.05 429.68 455.34 436.05 468.56 447.44 C485.65 463.5 497.22 484.47 505.12 506.38 C507.21 512.01 509.86 517.43 515.5 520.25 C522.4 521.03 527.77 520.24 533.5 516.25 C536.29 514.3 536.29 514.3 537.5 511.25 C536.97 504.24 534.37 497.87 531.44 491.56 C531.04 490.7 530.64 489.83 530.23 488.94 C515.7 457.95 491.14 429.53 458.34 417.46 C417.66 403.62 377.93 414.11 349.02 445.53 Z M384.5 459.25 C374.76 471.74 362.09 491.13 362.06 507.5 C362.04 508.29 362.02 509.08 362 509.89 C362.72 513.27 364.05 514.82 366.5 517.25 C368.94 518.48 371.13 519.43 373.69 520.31 C374.74 520.69 374.74 520.69 375.81 521.07 C398.93 529.07 423.22 530.47 447.5 530.44 C448.26 530.44 449.02 530.44 449.8 530.44 C462.78 530.42 475.6 529.8 488.5 528.25 C489.63 528.12 489.63 528.12 490.78 527.99 C498.28 527.62 498.28 527.62 504.5 524.25 C495.99 492.55 479.21 459.18 449.86 442.03 C426.17 429.46 400.86 439.99 384.5 459.25 Z M185.5 552.25 C185.5 553.26 185.51 554.27 185.51 555.3 C185.55 564.89 185.58 574.48 185.6 584.07 C185.61 589 185.63 593.93 185.65 598.85 C185.67 603.62 185.68 608.4 185.69 613.17 C185.69 614.97 185.7 616.78 185.71 618.58 C185.79 631.26 184.98 643.65 183.5 656.25 C184.43 656.24 184.43 656.24 185.38 656.22 C186.59 656.21 186.59 656.21 187.84 656.2 C188.64 656.19 189.44 656.18 190.27 656.17 C195.44 656.35 199.55 659.34 203.15 662.87 C208.05 668.91 211.18 676.27 214.5 683.25 C216.45 680.32 217.99 677.4 219.56 674.25 C220.09 673.2 220.62 672.15 221.16 671.06 C222.56 668.27 222.56 668.27 223.5 665.25 C225.36 664.37 225.36 664.37 227.69 663.69 C228.5 663.44 229.3 663.19 230.14 662.94 C230.92 662.71 231.7 662.48 232.5 662.25 C234.52 661.64 236.53 660.99 238.5 660.25 C239.74 657.76 239.75 655.88 239.9 653.09 C239.97 652.01 240.03 650.93 240.1 649.82 C240.16 648.64 240.22 647.47 240.29 646.25 C240.36 645.04 240.42 643.82 240.49 642.57 C240.64 639.97 240.77 637.38 240.91 634.79 C241.12 630.89 241.35 626.99 241.57 623.08 C244.26 597.1 244.26 597.1 238.5 572.25 C235.31 569.15 231.93 568.4 227.69 567.31 C217.09 564.43 206.96 560.29 196.75 556.26 C195.75 555.87 195.75 555.87 194.72 555.47 C192.88 554.74 191.03 554.01 189.19 553.27 C186.82 552.19 186.82 552.19 185.5 552.25 Z M517.75 631 C513.28 632.44 508.84 633.67 504.28 634.71 C495.51 636.72 487.65 639.07 482.53 646.98 C478.74 655.35 478.04 665.18 477.5 674.25 C478.04 673.9 478.59 673.55 479.14 673.19 C480.22 672.51 480.22 672.51 481.31 671.81 C482.02 671.36 482.73 670.91 483.46 670.44 C487.63 668.01 491.78 667.63 496.5 668.25 C500.83 669.78 504.14 672.2 506.52 676.19 C508.84 681.08 510.66 686.17 512.5 691.25 C514.92 689.01 516.58 686.67 518.31 683.88 C520.24 680.89 521.91 678.73 524.81 676.69 C528.32 673.51 528.22 670.73 528.5 666.25 C528.59 663.63 528.63 661.01 528.63 658.39 C528.63 657.68 528.63 656.97 528.64 656.23 C528.64 654.75 528.63 653.26 528.63 651.77 C528.62 649.49 528.63 647.22 528.64 644.94 C528.64 643.49 528.63 642.03 528.63 640.58 C528.63 638.61 528.63 638.61 528.63 636.61 C528.53 633.93 528.31 631.78 527.5 629.25 C523.64 629.25 521.37 629.81 517.75 631 Z M174.98 672.93 C172.99 676.05 171.38 678.66 171.67 682.43 C172.96 685.25 175.29 686.14 178.02 687.37 C187.67 690.79 198.37 690.76 208.5 691.25 C207.36 681.4 203.65 671.39 196.5 664.25 C187.14 658.8 180.52 665.64 174.98 672.93 Z M228.5 671.25 C223.64 676.24 221.6 682.45 220.5 689.25 C220.83 689.91 221.16 690.57 221.5 691.25 C226.47 689.87 227.92 687.61 230.5 683.25 C231.72 680.5 232.75 677.71 233.75 674.88 C234.02 674.14 234.29 673.4 234.56 672.64 C235.22 670.85 235.86 669.05 236.5 667.25 C233.2 667.25 230.95 669.22 228.5 671.25 Z M481.69 680.01 C477.17 685.2 476.08 688.42 476.16 695.36 C476.79 700.7 479.3 704.28 483.25 707.82 C488.93 712.11 493.71 712.39 500.75 712.31 C501.5 712.31 502.24 712.3 503.01 712.3 C504.84 712.29 506.67 712.27 508.5 712.25 C508.75 700.82 507.3 685.35 499.06 676.69 C492.3 672.89 487.14 674.72 481.69 680.01 Z M537.69 695.75 C535.63 701.82 535.11 709.04 537.7 715.01 C539.87 717.71 541.47 718.42 544.75 719.5 C545.66 719.81 546.58 720.13 547.52 720.45 C554.17 722.23 560.61 722.38 567.44 722.31 C568.31 722.31 569.19 722.3 570.09 722.3 C572.23 722.29 574.36 722.27 576.5 722.25 C574.91 709.35 570.48 692.67 559.94 684.19 C550.74 680.65 542.81 688.68 537.69 695.75 Z M525.5 684.25 C518.19 691.8 517.7 702.29 516.5 712.25 C518.81 712.25 521.12 712.25 523.5 712.25 C523.55 711.32 523.6 710.39 523.65 709.43 C524.15 700.93 525.04 692.64 526.5 684.25 C526.17 684.25 525.84 684.25 525.5 684.25 Z M591.49 693.21 C588.7 697.48 587.83 701.81 586.75 706.75 C586.53 707.69 586.31 708.62 586.08 709.59 C585.09 713.91 584.38 717.8 584.5 722.25 C593.44 721.44 602.23 719.77 611.06 718.19 C612.66 717.9 614.26 717.62 615.85 717.33 C619.74 716.64 623.62 715.95 627.5 715.25 C625.66 705.46 619.71 697.95 612.5 691.25 C605.33 686.42 597.66 687.19 591.49 693.21 Z M238.79 700.45 C235.47 704.9 235.47 704.9 234.7 710.18 C236.8 715.62 242.52 719.25 247.53 721.77 C256.02 725.17 265.29 728.25 274.5 728.25 C271.8 715.54 267.96 698.89 256.5 691.25 C248.62 690.18 243.42 694.66 238.79 700.45 Z M289.5 702.25 C286.15 706.7 285.35 711.52 284.31 716.88 C284.05 718.16 284.05 718.16 283.78 719.48 C283.1 722.81 282.5 725.84 282.5 729.25 C293 731.63 303.76 730.14 314.31 728.88 C315.39 728.75 316.47 728.62 317.59 728.49 C318.6 728.36 319.61 728.23 320.64 728.1 C321.56 727.99 322.47 727.87 323.41 727.75 C324.44 727.5 324.44 727.5 325.5 727.25 C325.83 726.59 326.16 725.93 326.5 725.25 C325.39 722.63 324.23 720.15 322.94 717.62 C322.57 716.9 322.2 716.18 321.82 715.43 C317.69 707.48 313.48 699.47 304.4 696.58 C297.87 695.27 293.97 697.5 289.5 702.25 Z " fill="#000000" transform="translate(313.5,212.75)"/>
<path d="M0 0 C13.64 7.33 26.09 19.39 31 34.44 C35.79 51.14 30.99 68.94 23.11 83.73 C20.53 88.38 17.55 92.48 14 96.44 C13.5 97.05 13.01 97.66 12.5 98.29 C6.64 104.96 -1.81 109.53 -10.53 111.05 C-24.18 111.59 -39.99 105.31 -50.38 96.39 C-52 94.44 -52 94.44 -51.75 91.69 C-51.5 90.94 -51.25 90.2 -51 89.44 C-45.72 89.95 -42.43 91.69 -38 94.44 C-38.23 93.51 -38.46 92.57 -38.69 91.61 C-43.01 72.45 -39.14 53.67 -29.15 36.78 C-22.01 25.69 -13.51 20.19 -2 14.44 C-6.98 10.59 -12.36 8.68 -18.27 6.59 C-21 5.44 -21 5.44 -22 3.44 C-22.04 1.44 -22.04 -0.56 -22 -2.56 C-14.44 -6.13 -7.25 -3.39 0 0 Z M-18.81 36.94 C-22.17 40.78 -22.18 43.86 -22.25 48.81 C-22.28 49.93 -22.3 51.06 -22.33 52.21 C-21.96 55.8 -21.24 57.63 -19 60.44 C-14.35 61.78 -11.28 61.89 -6.81 60 C-2.39 57.46 0.08 54.13 2 49.44 C3.27 44.44 3.7 40.03 1 35.44 C-0.92 32.45 -2.24 32.38 -5.81 31.56 C-11.44 31.07 -14.67 33.26 -18.81 36.94 Z " fill="#000000" transform="translate(312,311.5625)"/>
<path d="M0 0 C10.89 6.64 19.52 16.97 23.23 29.19 C24.67 35.45 24.67 35.45 23.81 38.69 C22.4 40.46 22.4 40.46 19.59 41.39 C6.28 41.71 -13.74 19.51 -23.42 10.83 C-24.6 9.46 -24.6 9.46 -25.29 6.59 C-24.6 3.46 -24.6 3.46 -22.91 2 C-15.16 -2.92 -8.46 -4.06 0 0 Z " fill="#000000" transform="translate(344.59765625,264.53515625)"/>
<path d="M0 0 C3.46 0.19 4.9 0.91 7.56 3.19 C12.3 8.65 15.16 12.89 15.06 20.19 C15.05 21.09 15.04 21.99 15.04 22.92 C15.02 23.61 15.01 24.29 15 25 C13.68 25.66 12.36 26.32 11 27 C8.46 24.79 7.69 23.26 7 20 C6.45 20.45 5.9 20.89 5.34 21.36 C-9.21 32.45 -28.22 35.29 -46.12 33.44 C-52.05 32.5 -57.83 31.16 -63.62 29.62 C-64.74 29.33 -64.74 29.33 -65.89 29.03 C-70.57 27.69 -74.18 26.05 -78 23 C-78.5 20.38 -78.5 20.38 -78 18 C-77.34 17.34 -76.68 16.68 -76 16 C-70.46 16.33 -65.66 17.65 -60.44 19.5 C-44.01 24.9 -23.27 24.56 -7.5 16.77 C-4.22 14.98 -1.11 13.07 2 11 C1.54 10.2 1.54 10.2 1.06 9.38 C-0.19 6.58 -0.66 4.04 -1 1 C-0.67 0.67 -0.34 0.34 0 0 Z " fill="#000000" transform="translate(273,482)"/>
<path d="M0 0 C1.18 3.35 1.15 4.67 -0.38 7.94 C-5.4 14.63 -14.1 18.8 -22 21 C-24.77 21.28 -27.21 21.21 -30 21 C-31.18 17.65 -31.15 16.33 -29.62 13.06 C-22.83 3.98 -10.95 -0.7 0 0 Z " fill="#000000" transform="translate(205,411)"/>
<path d="M0 0 C3.67 1.45 4.36 3.37 5.91 6.89 C7.01 9.97 7.46 12.79 7.69 16.06 C7.74 16.76 7.79 17.46 7.84 18.18 C8.07 23.71 7.45 29.18 4.69 34.06 C2.58 35.32 2.58 35.32 0.69 36.06 C-3.77 32.53 -5.3 28.51 -6.31 23.06 C-6.51 20.31 -6.65 17.63 -6.69 14.88 C-6.7 14.2 -6.72 13.52 -6.73 12.82 C-6.69 8.08 -5.88 0.16 0 0 Z " fill="#000000" transform="translate(150.3125,387.9375)"/>
</svg>
