<?xml version="1.0" encoding="utf-8"?>
<!-- Generator: Adobe Illustrator 23.0.1, SVG Export Plug-In . SVG Version: 6.00 Build 0)  -->
<svg version="1.0" id="Слой_1" xmlns="http://www.w3.org/2000/svg" xmlns:xlink="http://www.w3.org/1999/xlink" x="0px" y="0px"
	 viewBox="0 0 720 720" style="enable-background:new 0 0 720 720;" xml:space="preserve">
<g id="Слой_32">
	<path d="M603.1,292.8c2.6-3.2,5.3-6.5,7.9-9.7c12.7-15.4,25.7-31.3,34.6-49.7c10.3-21.3,24.4-50.5-0.5-67.4
		c-16.1-10.9-27.9-22.4-38.2-32.6c-11.1-10.9-20.7-20.3-31.9-24.9c-3.5-1.4-6.4-2.5-9-3.3c-0.1-0.1-0.1-0.3-0.2-0.4
		c-13.4-16.1-18.2-38.6-12.6-58.8c0.4-1.6-0.5-3.2-2.1-3.6c-1.6-0.4-3.2,0.5-3.6,2.1c-5.4,19.5-1.9,41.1,9.2,58
		c-2.9-0.8-5.4-1.6-8.2-2.8c-0.2-0.1-0.3-0.1-0.5-0.2l-5.6-1.4c-0.1,0-0.2,0-0.3-0.1c-29.7-4.2-60.6,3.8-84.7,21.7
		c-24.1,17.9-40.5,45.3-45.1,75c-2.1,13.9-1.7,28.4-1.4,42.5c0.6,24,1.2,46.8-9.8,66.5c-8.4,15.1-17.3,34.8-26,53.8
		c-7.9,17.5-16.2,35.5-23.7,49.4c-28.3,52.3-63.8,149.2,17.3,210c1.7,1.2,3.4,2.4,5.1,3.6c-5.9,10.8-23.4,24.3-37,29.2l5.5-15.5
		c0.4-1.2,0.1-2.5-0.9-3.3c-0.9-0.8-2.3-0.9-3.4-0.3l-21.8,12.1l3-13.9c0.3-1.2-0.2-2.4-1.2-3.1c-1-0.7-2.3-0.7-3.3,0
		c-15.6,10.7-33.6,17.5-52.3,19.9l3.9-5.8c0.6-0.9,0.7-2.1,0.1-3.1c-0.6-1-1.6-1.5-2.8-1.5l-3.3,0.2c6-4,11.3-9.2,15.2-15.2
		c0.7-1.1,0.6-2.4-0.2-3.4c-0.8-1-2.1-1.4-3.3-1c-17.4,6.2-37,5.6-54.1-1.3c7.4-1.8,14.3-5.7,19.7-11.2c1-1,1.1-2.4,0.4-3.6
		c-0.7-1.2-2.1-1.7-3.4-1.3c-20.3,6.2-44.1,0-59.3-14.8l13.1,1.1c1.5,0.1,2.8-0.9,3.1-2.3c0.3-1.4-0.5-2.9-1.9-3.4l-15.2-5.6
		l12.6-3.5c1.6-0.4,2.5-2,2.1-3.6c-0.4-1.6-2-2.5-3.6-2.1c-11.4,2.8-24.3,0.1-33.7-7c-6.4-4.9-11.3-11.9-13.8-19.7
		c10.2,9,25.7,12.3,38.4,7.1c1.5-0.6,2.2-2.3,1.6-3.9c-0.6-1.5-2.3-2.2-3.9-1.6c-13.8,5.6-31.4-0.7-38.5-13.8
		c-0.7-1.2-2-1.8-3.4-1.5c-1.3,0.4-2.2,1.6-2.2,3c0.4,13.7,7.2,26.8,18.1,35c5,3.8,10.7,6.4,16.7,7.9l-1,0.3
		c-1.2,0.3-2.1,1.4-2.2,2.7c-0.1,1.3,0.7,2.5,1.9,2.9l3.6,1.4c-0.9,0.2-1.6,0.7-2.1,1.5c-0.6,1-0.5,2.3,0.3,3.2
		c13.4,17,35.3,26.3,56.7,24.8c-4.7,2.1-9.7,3.2-14.7,3.2c-0.1,0-0.1,0-0.2,0c-1.3,0-2.5,0.9-2.9,2.2c-0.3,1.3,0.2,2.7,1.4,3.3
		c17.6,10,39,13.1,58.8,8.6c-5.7,5.8-12.9,10.2-20.7,12.5c-1.4,0.4-2.3,1.9-2.1,3.3c0.3,1.5,1.6,2.5,3.1,2.4l12.8-0.8l-4.1,6.1
		c-0.6,0.9-0.7,2.2-0.1,3.1c0.6,1,1.6,1.6,2.8,1.5c19.6-1.5,38.6-7.6,55.3-17.7l-2.9,13.4c-0.2,1.1,0.2,2.3,1.1,3
		c0.9,0.7,2.2,0.8,3.2,0.2l20.6-11.5l-4.8,13.5c-0.4,1-0.2,2.1,0.5,2.9c0.6,0.7,1.4,1,2.2,1c0.2,0,0.4,0,0.6-0.1
		c15.8-3,38.3-19.3,46.1-33.2c11.7,7.3,24.6,13.2,38.2,17.4c0.3,0.5,0.7,1,1.3,1.3c7.2,3.3,9.9,6.7,13.9,12.4
		c2.3,3.2,4.1,6.6,6,10.2c1.4,2.6,2.8,5.2,4.4,7.8c4.1,6.6,8.6,10.3,13.7,11.3c3.9,0.8,8.2-0.7,11.1-3.7c0.6-0.6,1.1-1.3,1.5-2.1
		c2.3,1.9,4.7,3.8,7.5,5.1c3,1.5,6.2,2.3,9.2,2.3c2.3,0,4.5-0.4,6.5-1.3c4.6-2.1,7.5-6.6,7.6-11.2c4.4-1,8.3-4,10.2-8.1
		c1.9-4,1.7-8.9-0.2-12.9c5.8-0.3,11.2-1,15.7-2.2c8.6-2.2,16.8-5.4,24.6-9.3c2.8,4,7.8,6.8,12.8,7.1c0.3,0,0.5,0,0.8,0
		c4.1,0,7.8-1.6,10.1-4.4c4.1,1.8,9.3,1.4,12.8-1.2c3.7-2.8,5.4-7.5,4.8-12.9c-0.3-2.4-1-4.7-1.8-6.9c1-0.1,2-0.3,3-0.7
		c3.2-1.3,5.6-3.9,6.2-7c1-4.9-1.6-9.7-4.2-13.3c2.6-3.8,5-7.8,7.1-12c15.5-30.1,17.3-65.6,5-97.4c-4.2-10.8-9.1-21.7-13.8-32.3
		c-5.9-13.1-11.6-25.9-16.1-38.6c4.1-0.1,8.3-0.2,12.2-0.4c10.4-0.5,16.5-3.8,18.1-9.8c1.1-4-0.3-8.8-3.8-12.4
		c-2.3-2.4-5.2-4.1-7.9-5.7l-1.3-0.8c-10.4-6.2-19.6-14.8-26.5-24.8c0.3-4.2,0.8-8.3,1.7-12.5C574.1,331.2,588.4,311,603.1,292.8
		 M503.4,652.9c2.2,2.5,2.7,6.5,1.3,9.6c-1.4,3-4.7,5.1-8,5.1c-0.1,0-0.1,0-0.2,0c-1,0-1.9,0.4-2.4,1.2c-0.6,0.8-0.7,1.8-0.4,2.7
		c0.9,2.6-1,6.1-3.9,7.5c-2.9,1.3-6.9,1-10.6-0.8c-3.7-1.8-6.9-4.8-10-7.7c-1-0.9-2.4-1.1-3.5-0.4c-1.1,0.7-1.7,2-1.4,3.3
		c0.3,1.3-0.4,2.3-1,3c-1.4,1.5-3.7,2.3-5.6,2c-3.4-0.7-6.6-3.5-9.8-8.6c-1.5-2.4-2.9-5-4.2-7.4c-2-3.6-4-7.3-6.4-10.8
		c-1.6-2.2-3.1-4.4-4.9-6.4c2.8,0.6,5.7,1.2,8.5,1.6c18.2,2.9,40.7,5.7,59.7,5.7c0.9,0,1.8,0,2.6,0
		C503.1,652.5,503.2,652.7,503.4,652.9 M583,637.3c-2,1.5-5.9,1.7-8.3-0.3c-0.7-0.6-1.7-0.8-2.6-0.6c-0.9,0.2-1.7,0.9-2,1.7
		c-1,2.3-3.8,3.8-7,3.6c-2.9-0.2-6-1.8-7.9-4c9.9-5.7,18.8-12.7,26.7-20.9c-0.3,0.8-0.4,1.6,0,2.4c1.6,3.5,3.2,7.1,3.6,10.6
		C585.7,631.4,585.8,635.2,583,637.3 M593,613.4c-0.2,1.1-1.2,2.1-2.5,2.6c-0.7,0.3-2.5,0.8-4.1-0.4c-0.9-0.7-2.1-0.7-3-0.2
		c2.7-2.9,5.2-5.9,7.6-9.1C592.6,609.2,593.3,611.5,593,613.4 M596.4,586.5c-2.2,4.2-4.6,8.3-7.3,12.2c0,0-0.1,0-0.1,0.1
		c-0.5,0.4-0.8,0.9-0.9,1.5c-15.3,21.5-38,37.2-64,43.9c-15.2,3.9-44.4,2.7-82.4-3.4c-25.8-4.1-49.8-14-69.3-28.7
		c-77.5-58.1-43-151.8-15.6-202.4c7.6-14,15.9-32.2,23.8-49.7c8.6-19,17.5-38.6,25.8-53.4c11.8-21.2,11.1-45.8,10.5-69.5
		c-0.4-13.8-0.7-28,1.3-41.4c4.3-28.2,19.9-54.1,42.7-71.1c6.9-5.1,14.3-9.4,22.1-12.7l8.8,5.5l0.8-1.3l-7.9-4.9
		c13.2-5.4,27.4-8.2,41.7-8.2c2.7,0,5.4,0.1,8.1,0.3l-1.1,0.8l6.3,8.8l1.2-0.9l-6.3-8.7c2.2,0.2,4.3,0.4,6.5,0.7l5.2,1.3
		c3.5,1.6,6.5,2.4,10,3.4c4.2,1.2,9,2.5,16.3,5.5c7.9,3.3,15,9.2,23,16.8l-0.1,0.1l6.3,8.8l1.2-0.9l-1.9-2.6c0.5,0.5,1,0.9,1.5,1.4
		c10.5,10.3,22.5,22,39,33.2c13.6,9.2,13.2,22.9,8.3,37.4c-0.4,0-0.7,0.1-1.1,0.3c-2,1-4.9,0.7-7.1-0.8c-2.1-1.4-3.8-3.8-4.7-6.8
		c-0.3-0.8-0.4-1.7-0.6-2.6c-0.1-0.8-0.2-1.6-0.3-2.4c-0.1-1.3-0.1-2.7-0.1-4.3c0-0.3-0.1-0.6-0.2-0.9c7.1-1.5,12.1-5,12.1-9
		c0-5.5-9.2-9.9-20.5-9.9c-11.3,0-20.5,4.4-20.5,9.9s9.2,9.9,20.5,9.9c0.6,0,1.3,0,1.9,0c0,0.1,0,0.1,0,0.2c0.3,1.5,0.6,3.1,0.8,4.7
		c0.1,1,0.2,1.9,0.4,3c0.1,1.4,0.2,2.7,0.1,4.1c-0.3,3.9-1.8,7.2-4.1,9c-2.4,1.9-5.9,2.2-7.9,0.5c-1.3-1-3.1-0.8-4.2,0.4
		c-1,1.3-0.8,3.1,0.4,4.2c2,1.6,4.5,2.4,7.1,2.4c2.9,0,5.9-1,8.3-2.9c2.2-1.8,3.9-4.3,5-7.3c1,1.1,2,2.1,3.2,2.9
		c2.3,1.5,5,2.3,7.7,2.3c0.4,0,0.8-0.1,1.2-0.1c-2.2,5.3-4.8,10.7-7.3,15.9c-8.5,17.7-21.4,33.3-33.8,48.5c-2.7,3.2-5.3,6.5-7.9,9.7
		c-15.2,18.8-29.9,39.7-35.1,64.2c-0.4,1.7-0.6,3.5-0.9,5.2c-1.9-2-4.2-3.7-6.6-4.8c-3.5-1.5-7-1.6-10.1-0.3
		c-23.6,10.4-34,64.6-38.1,96.1c-2.2,17.2-1.9,36,1.1,54.5c3.3,20.5,13.4,37.4,27.8,46.3c7.8,4.8,16.8,7.2,25.9,7.2
		c9.6,0,19.2-2.7,27.4-8.1c9.8-6.5,15.4-17,18-27.9C610.6,543.7,606.7,566.4,596.4,586.5 M601.2,493.9c0.7,1.8,1.4,3.7,2,5.5
		c0,0,0,0.1,0,0.1c2.3,14.9-1.8,35.3-16.4,45c-13.7,9.1-32.9,9.4-46.9,0.8c-13-8-22.1-23.4-25.1-42.2c-2.8-17.9-3.2-36.1-1.1-52.8
		c6.7-51.3,19.3-84.7,34.6-91.4c1.5-0.7,3.3-0.6,5.3,0.3c3.4,1.5,6.7,5,8,8.5c-0.9,17,2.5,33.7,7.9,50.1c0,0,0,0.1,0,0.1
		c0,0.7,0.3,1.4,0.7,1.9c4.8,14.2,11.1,28.2,17.3,42C592.2,472.4,597,483.3,601.2,493.9 M591,397l1.4,0.8c2.5,1.4,4.8,2.8,6.6,4.7
		c1.5,1.6,3,4.3,2.4,6.7c-0.9,3.3-5.2,5.1-12.7,5.5c-4.5,0.2-9.2,0.4-13.9,0.4c-4.2-12.8-7-25.6-7.4-38.5
		C574,384.7,582.1,391.6,591,397"/>
</g>
<g id="Слой_31">
	<path d="M521.8,188.3c9.3,0,16.9-8.2,16.9-18.3c0-10.1-7.5-18.3-16.9-18.3c-9.3,0-16.9,8.2-16.9,18.3
		C504.9,180.1,512.5,188.3,521.8,188.3 M527.6,160.8c2.2,0,4.1,1.8,4.1,4s-1.8,4-4.1,4c-2.2,0-4-1.8-4-4S525.4,160.8,527.6,160.8"/>
</g>
<g id="Слой_30">
	<path d="M496.9,421.8c-3.1-2.5-6.8-4.2-10.3-5.8l-1.8-0.9c-17.8-8.4-32.4-20.3-42.3-34.6c-0.9-1.3-2.8-1.7-4.1-0.8
		c-1.3,0.9-1.7,2.8-0.8,4.1c10.5,15.1,25.9,27.8,44.7,36.6l1.9,0.9c3.4,1.6,6.6,3,9.1,5.1c2,1.6,4.1,4.4,3.2,6.8
		c-0.7,2-4,5.6-18.1,6.1c-20.4,0.8-45.8,1.8-65.7-7.1c-1.5-0.7-3.2,0-3.9,1.5c-0.7,1.5,0,3.2,1.5,3.9c14.9,6.6,32.3,8.1,48.6,8.1
		c6.8,0,13.5-0.3,19.7-0.5c13.5-0.5,21.2-3.8,23.4-10C503.5,430.8,501.6,425.7,496.9,421.8"/>
</g>
<g id="Слой_29">
	<path d="M466,62c0.3,0.1,0.6,0.2,1,0.2c1.2,0,2.4-0.8,2.8-2c2.5-7.4,7-14.1,12.8-19.4c-2.5,4.9-4.2,10.3-5.1,15.7
		c-0.3,1.6,0.8,3.1,2.4,3.4c1.1,0.2,2.2-0.3,2.8-1.2c-5.9,10.5-8.7,22.8-6.9,34.9c0.2,1.5,1.5,2.5,2.9,2.5c0.1,0,0.3,0,0.4,0
		c1.6-0.2,2.7-1.7,2.5-3.4c-3.2-22.4,11.4-46.2,32.6-54.1l0.8,20.7c0.1,1.4,1.2,2.6,2.6,2.8c1.4,0.2,2.8-0.7,3.2-2.1
		c2.9-9.9,8.6-18.9,16.1-26l-0.1,29.6c0,1.6,1.3,3,2.9,3h0c1.6,0,2.9-1.3,3-2.9l0.2-36c0-1.1-0.6-2.2-1.6-2.7
		c-1-0.5-2.2-0.4-3.1,0.3c-7.3,5.5-13.3,12.5-17.7,20.5l-0.5-11.3c0-0.9-0.5-1.7-1.2-2.3c-0.7-0.5-1.7-0.7-2.5-0.5
		c-14.2,3.9-26,13.9-33.3,26.5c0.1-0.3,0.3-0.5,0.3-0.9c1.6-9.5,6.1-18.7,12.8-25.7c1-1,1.1-2.6,0.3-3.7c-0.8-1.2-2.3-1.6-3.6-1
		c-13.2,5.9-23.8,17.6-28.5,31.2C463.6,59.8,464.4,61.5,466,62"/>
</g>
<g id="Слой_28">
	<path d="M439.1,47.2c-0.2,1.6,0.9,3.1,2.5,3.4c0.1,0,0.3,0,0.4,0c1.4,0,2.7-1.1,2.9-2.5c1.7-11.5,13.8-20.6,25.3-19
		c1.6,0.2,3.1-0.9,3.3-2.5c0.2-1.6-0.9-3.1-2.5-3.3C456.3,21.2,441.3,32.4,439.1,47.2"/>
</g>
<g id="Слой_27">
	<path d="M324.6,79.8c-0.8,1.4-0.2,3.2,1.2,4c0.4,0.2,0.9,0.4,1.4,0.4c1.1,0,2.1-0.6,2.6-1.6c12.8-23.8,35.2-42.2,60.9-50.5
		c-2.6,4.4-4,9.4-3.9,14.5c0,1.2,0.7,2.3,1.8,2.7c1.1,0.5,2.4,0.2,3.2-0.6c7.3-7.2,16.6-12.1,26.6-14l-1.1,9
		c-0.1,1.2,0.4,2.3,1.4,2.9c1,0.6,2.3,0.6,3.2-0.1l25.8-17.8c1.3-0.9,1.7-2.8,0.8-4.1c-0.9-1.3-2.8-1.7-4.1-0.8l-20.3,14l0.8-6.3
		c0.1-0.9-0.2-1.8-0.8-2.4c-0.6-0.6-1.5-1-2.4-0.9c-10,1.1-19.5,4.9-27.5,10.8c1.4-3.9,3.9-7.5,7.1-10c1.1-0.9,1.4-2.3,0.9-3.6
		c-0.6-1.2-2-1.9-3.3-1.6C367.4,30.8,339.7,51.7,324.6,79.8"/>
</g>
<g id="Слой_26">
	<path d="M305.7,102.3c0.1,0,0.2,0,0.3,0c1.5,0,2.8-1.1,2.9-2.6c3-27,22.1-51.8,47.4-61.6c1.5-0.6,2.3-2.3,1.7-3.8
		c-0.6-1.5-2.3-2.3-3.8-1.7c-27.3,10.6-47.9,37.3-51.1,66.5C302.9,100.7,304.1,102.2,305.7,102.3"/>
</g>
<g id="Слой_25">
	<path d="M288.3,118.1c0.4,1.3,1.6,2.1,2.8,2.1c0.3,0,0.6,0,0.8-0.1c1.6-0.5,2.5-2.1,2-3.7c-4.9-16.5-2.6-34.9,5.5-50.1l-3.6,17.6
		c-0.3,1.6,0.7,3.2,2.3,3.5c1.6,0.3,3.2-0.7,3.5-2.3l6.4-31.7c0.3-1.3-0.4-2.6-1.6-3.2c-1.2-0.6-2.7-0.3-3.5,0.7
		C287.3,68.9,281.6,95.3,288.3,118.1"/>
</g>
<g id="Слой_24">
	<path d="M169.1,534.8c1.3,0,2.6-0.9,2.9-2.3c0.4-1.6-0.6-3.2-2.2-3.6c-25.7-6-48-25.3-57.7-49.9c3.4,0.8,6.5,3.2,7.8,6.5l0.2,0.6
		c0.5,1.5,2.2,2.3,3.7,1.8c1.5-0.5,2.4-2.2,1.9-3.7c-0.1-0.3-0.2-0.5-0.3-0.7l-14.3-40.8l13.7,6.6c1.2,0.6,2.6,0.3,3.5-0.7
		c0.9-1,1-2.4,0.3-3.5c-9.2-14.5-14.7-31.7-15.6-48.9l10.7,4.5c1.2,0.5,2.7,0.1,3.5-0.9c0.8-1.1,0.8-2.5,0-3.6
		c-9.7-13-13-30.3-8.9-46c1.2,0.9,2.5,1.9,3.8,2.9c2.4,1.9,4.9,3.8,7.2,5.5c1,0.8,2.4,0.8,3.4,0.1c1-0.7,1.5-2,1.2-3.2
		c-3.7-14.4-4.8-29.6-3.2-44.4l2.8,2.2c0.9,0.7,2.1,0.8,3.1,0.3c1-0.5,1.7-1.5,1.7-2.7l-0.1-6.3l6.7,17.3c0.5,1.3,1.9,2.1,3.3,1.8
		c1.4-0.2,2.4-1.4,2.5-2.8l2.5-88.3l8.7,20c0.5,1.2,1.8,2,3.2,1.7c1.3-0.2,2.4-1.3,2.5-2.6l4.1-43.4l0.5,0.3
		c0.9,0.6,2.1,0.7,3.1,0.2c1-0.5,1.6-1.6,1.5-2.7l-0.3-6.7l7.8,8.9c0.9,1,2.2,1.3,3.4,0.8c1.2-0.5,1.9-1.8,1.7-3.1
		c-2.6-21.7,0.6-44.1,9.2-64.2c3.1,12.3,9.8,23.6,19.3,32c0.8,0.7,2,0.9,3,0.6c1-0.4,1.8-1.3,1.9-2.4l5.3-47.1l2.8,4.8
		c0.6,1,1.7,1.6,2.8,1.5c1.1-0.1,2.1-0.9,2.5-1.9l10.2-28.2l6.3,20.6c0.5,1.6,2.1,2.4,3.7,2c1.6-0.5,2.4-2.1,2-3.7l-0.2-0.8
		c0.7-0.4,1.3-1.1,1.5-2c4-21.2,15.2-40.8,31.5-55c1.2-1.1,1.3-2.9,0.3-4.2c-1.1-1.2-2.9-1.3-4.2-0.3
		c-15.6,13.7-26.7,31.9-31.9,51.9l-5.7-18.8c-0.4-1.2-1.5-2.1-2.8-2.1c-1.4-0.1-2.4,0.8-2.9,2l-11,30.6l-4.1-7.1
		c-0.6-1.1-1.9-1.7-3.2-1.4c-1.3,0.3-2.2,1.3-2.3,2.6l-5.7,50c-8.3-9.2-13.6-21.1-14.7-33.4c-0.1-1.3-1.1-2.4-2.4-2.6
		c-1.3-0.3-2.6,0.4-3.2,1.5c-10.6,20.4-15.7,43.9-14.6,67l-7.4-8.4c-0.8-0.9-2.1-1.3-3.3-0.8c-1.2,0.5-1.9,1.6-1.9,2.9l0.3,9.1
		c-0.8-0.5-1.8-0.5-2.7-0.1c-1,0.4-1.6,1.4-1.7,2.4l-3.5,37.1l-9.4-21.6c-0.6-1.3-1.9-2-3.3-1.7c-1.4,0.3-2.4,1.4-2.4,2.8l-2.4,86.9
		l-7.3-18.8c-0.5-1.3-1.9-2.1-3.3-1.8c-1.4,0.3-2.4,1.5-2.4,2.9l0.2,16.3l-2-1.6c-0.8-0.7-1.9-0.8-2.9-0.4c-1,0.4-1.7,1.3-1.8,2.3
		c-2.3,14.5-2,29.5,0.8,43.9c-0.2-0.2-0.5-0.4-0.7-0.5c-2.5-1.9-4.9-3.8-7.2-5.5c-0.8-0.6-1.7-0.7-2.6-0.5c-0.9,0.3-1.6,1-1.9,1.9
		c-5.3,15.5-3.9,32.9,3.6,47.4l-6.4-2.7c-0.9-0.4-2-0.3-2.8,0.3c-0.8,0.6-1.3,1.5-1.3,2.5c0.1,16.9,4.2,33.3,11.9,48.2l-11.5-5.5
		c-1.1-0.5-2.4-0.3-3.3,0.5c-0.9,0.8-1.2,2.1-0.8,3.2l12.6,36.1c-2.7-1.1-5.6-1.4-8.5-0.9c-0.8,0.1-1.6,0.7-2,1.4
		c-0.4,0.7-0.5,1.6-0.3,2.5c9.5,28.3,34.4,50.9,63.4,57.7C168.6,534.8,168.8,534.8,169.1,534.8"/>
</g>
<g id="Слой_23">
	<path d="M443.6,115.6c0.4,1.6,2,2.5,3.6,2.1c1.6-0.4,2.5-2,2.1-3.6c-2.3-9-8.6-17-16.8-21.4c-8.2-4.4-18.4-5.2-27.2-2.1
		c-7.5,2.6-14,7.9-18.2,14.8c-5.8,9.4-7,21.2-3.2,31.6c3.8,10.4,12.3,18.6,22.8,22.1c0.3,0.1,0.6,0.2,0.9,0.2c1.2,0,2.4-0.8,2.8-2
		c0.5-1.6-0.3-3.2-1.9-3.7c-8.6-2.9-16-9.9-19.1-18.5c-3.1-8.5-2.1-18.7,2.7-26.4c3.5-5.7,9-10.2,15.2-12.4
		c7.3-2.5,15.6-1.9,22.4,1.7C436.5,101.6,441.7,108.2,443.6,115.6"/>
</g>
<g id="Слой_22">
	<path d="M413.4,139.2c-3.5,0.2-7.1-1.2-9.9-3.8c-2.8-2.6-4.6-6.1-4.7-9.5c-0.1-1.6-1.3-2.9-3.1-2.9c-1.6,0.1-2.9,1.4-2.9,3.1
		c0.2,5,2.6,10,6.6,13.7c3.8,3.4,8.6,5.4,13.3,5.4c0.3,0,0.6,0,0.9,0c1.6-0.1,2.9-1.5,2.8-3.1C416.4,140.4,415,139.1,413.4,139.2"/>
</g>
<g id="Слой_21">
	<path d="M286.4,174.3c1.2,0,2.3-0.8,2.7-1.9l5.1-13.8l1.9,3c0.7,1.1,2.1,1.6,3.3,1.2c1.3-0.4,2.1-1.5,2.1-2.9
		c-0.3-29.1,20.4-57.9,48.2-66.8c1.6-0.5,2.4-2.2,1.9-3.7c-0.5-1.6-2.2-2.4-3.7-1.9c-27.6,8.9-48.2,34.6-51.7,63.2l-0.2-0.3
		c-0.6-0.9-1.7-1.5-2.8-1.4c-1.1,0.1-2.1,0.9-2.5,1.9l-4.7,12.5l-4.7-10.9c-0.6-1.3-2.1-2.1-3.5-1.7c-1.4,0.4-2.3,1.7-2.2,3.2
		l3.6,36.4c0.2,1.5,1.4,2.7,2.9,2.7c0.1,0,0.2,0,0.3,0c1.6-0.2,2.8-1.6,2.7-3.2l-1.7-17.6l0.2,0.4
		C284.1,173.7,285.1,174.4,286.4,174.3"/>
</g>
<g id="Слой_20">
	<path d="M247.4,173.5c-1.3-1-3.1-0.9-4.2,0.4c-10.8,13.1-17.2,29.6-18.2,46.5l-0.1-0.1c-0.6-1-1.6-1.6-2.8-1.5
		c-1.2,0.1-2.2,0.8-2.6,1.9c-6,15.9-8.3,33-6.8,49.9l-3.4-3.9c-0.7-0.8-1.7-1.2-2.8-1c-1,0.2-1.9,0.9-2.2,1.9
		c-10.6,28.9-7.1,63.1,9.2,89.3c0.6,0.9,1.5,1.4,2.5,1.4c0.5,0,1.1-0.1,1.6-0.4c1.4-0.9,1.8-2.7,1-4.1
		c-14.4-23.2-18.2-53.1-10.3-79.3l6.5,7.5c0.9,1,2.3,1.3,3.5,0.7c1.2-0.6,1.9-1.9,1.6-3.2c-3.1-16.9-2-34.2,3-50.5l2.6,4.7
		c0.7,1.2,2.1,1.8,3.5,1.4c1.3-0.4,2.2-1.7,2.1-3.1c-1.8-19.5,4.4-39.3,16.8-54.4C248.9,176.4,248.7,174.5,247.4,173.5"/>
</g>
<g id="Слой_19">
	<path d="M320.1,302.1c1.6-0.3,2.7-1.9,2.3-3.5c-0.3-1.6-1.9-2.7-3.5-2.3c-3.2,0.6-7.4,3.3-9,12.4c-2.6,15.2-2.3,30.6,0.8,45.8
		c0.3,1.4,1.5,2.4,2.9,2.4c0.2,0,0.4,0,0.6-0.1c1.6-0.3,2.6-1.9,2.3-3.5c-3-14.4-3.2-29.1-0.7-43.6
		C316.2,307.1,317.4,302.6,320.1,302.1"/>
</g>
<g id="Слой_18">
	<path d="M183.4,460.8c-1.1,0.3-1.8,1.2-2,2.3c-2.7,15.1,1.2,31.4,10.4,43.7c9.2,12.2,23.8,20.5,39.1,22.1c0.1,0,0.2,0,0.3,0
		c1.5,0,2.8-1.1,2.9-2.7c0.2-1.6-1-3.1-2.6-3.2c-13.6-1.4-26.7-8.8-35-19.8c-7-9.4-10.6-21.4-10-33.1l5.1,5.3c1,1,2.6,1.2,3.8,0.3
		c1.2-0.8,1.6-2.4,0.9-3.7c-5-10.1-7.3-21.4-6.8-32.6c0.1,0,0.2,0.1,0.3,0.1c0.9,0.3,2,0,2.7-0.6c2.3-2,3.2-5.2,2.4-8.4
		c-0.6-2.4-2.1-4.4-4.1-5.5c-2.4-14.5-0.3-29.7,5.9-43c0.7-1.5,0.1-3.2-1.4-3.9c-1.5-0.7-3.2-0.1-3.9,1.4c-6.9,14.7-9,31.6-6.2,47.6
		c-2.5,11.3-2.2,23.1,0.8,34.2C185.3,460.7,184.3,460.5,183.4,460.8"/>
</g>
<g id="Слой_17">
	<path d="M367.5,150c1.1-1.2,0.9-3.1-0.3-4.2c-1.2-1.1-3.1-0.9-4.2,0.3c-9.8,11.4-20,23.3-27.3,37c-4.3,8-8.8,19.2-9.6,31.6
		l-2.3-4.5c-0.6-1.2-2-1.8-3.3-1.5c-1.3,0.3-2.3,1.5-2.2,2.9l0.4,27.5c-1.5-1.2-3.2-2-5.1-2.5c-0.9-0.2-1.9,0-2.7,0.6
		c-0.7,0.6-1.1,1.5-1.1,2.5l3.1,44.5c0.1,1.5,1.3,2.7,2.8,2.8c0,0,0.1,0,0.1,0c1.4,0,2.7-1,2.9-2.5l0.9-5.3c0.2-1.2-0.4-2.4-1.4-3
		l-2.1-31.3c1.4,1.5,2.4,3.5,2.7,5.5l0,2.3c0,1.6,1.3,2.8,2.8,2.9c1.5,0,2.9-1.1,3.1-2.7c0.1-1,0.1-2,0-3l-0.4-25.5l2.8,5.4
		c0.7,1.3,2.2,1.9,3.6,1.5c1.4-0.5,2.2-1.9,2-3.3c-2.9-16.3,2.9-31.7,8.3-41.8C348,172.8,357.9,161.2,367.5,150"/>
</g>
<g id="Слой_16">
	<path d="M259.4,526.2c-1,0.7-1.5,2-1.1,3.2c7.8,28.8,25.2,54.4,49.1,72.3c0.5,0.4,1.2,0.6,1.8,0.6c0.9,0,1.8-0.4,2.4-1.2
		c1-1.3,0.7-3.2-0.6-4.1c-20.6-15.4-36.2-36.9-44.5-61.1l6.2,4.2c1.1,0.8,2.6,0.7,3.6-0.2c1-0.9,1.3-2.4,0.7-3.6l-8.8-16.9l7.1,3.1
		c1.3,0.6,2.9,0.1,3.7-1.2c0.8-1.3,0.5-2.9-0.6-3.8c-8.6-7.2-14.7-17.3-17.3-28.2l3.4,3.7c1,1.1,2.8,1.3,4,0.3
		c1.2-0.9,1.5-2.7,0.7-4c-5.7-8.7-8.8-19-9-29.4c0.8,0.9,2,1.2,3.2,0.8c1.4-0.5,2.2-1.9,1.9-3.3l-4.6-24.8c-0.3-1.6-1.8-2.7-3.4-2.4
		c-1.6,0.3-2.7,1.8-2.4,3.4l2.5,13.2c-1.2,0.2-2.1,1.2-2.3,2.4c-1.5,9.2-0.7,18.8,2,27.8c-0.4,0-0.9,0.1-1.3,0.2
		c-1.2,0.5-1.9,1.6-1.8,2.9c0.5,11.1,4.5,22,10.9,31l-1.9-0.8c-1.1-0.5-2.5-0.2-3.3,0.7c-0.9,0.9-1,2.3-0.5,3.4l7.3,14l-3.5-2.4
		C261.8,525.5,260.5,525.5,259.4,526.2"/>
</g>
<g id="Слой_15">
	<rect x="550" y="134.2" transform="matrix(0.5293 -0.8485 0.8485 0.5293 140.9681 532.8862)" width="1.5" height="10.4"/>
</g>
<g id="Слой_14">
	<rect x="558.5" y="118.1" transform="matrix(0.7545 -0.6563 0.6563 0.7545 57.573 396.868)" width="1.5" height="6.8"/>
</g>
<g id="Слой_13">
	<rect x="579.9" y="117.1" transform="matrix(0.7777 -0.6287 0.6287 0.7777 52.5765 392.0924)" width="1.5" height="9.3"/>
</g>
<g id="Слой_12">
	<rect x="565.3" y="131.2" transform="matrix(0.5389 -0.8424 0.8424 0.5389 146.7126 539.3257)" width="1.5" height="8.8"/>
</g>
<g id="Слой_11">
	<rect x="567.4" y="147.2" transform="matrix(0.5775 -0.8164 0.8164 0.5775 115.6522 528.2193)" width="1.5" height="10.3"/>
</g>
<g id="Слой_10">
	<rect x="586.2" y="139.6" transform="matrix(0.676 -0.7369 0.7369 0.676 83.4054 479.4642)" width="1.5" height="10.6"/>
</g>
<g id="Слой_9">
	<rect x="603.8" y="152.1" transform="matrix(0.7977 -0.6031 0.6031 0.7977 27.8458 396.2589)" width="1.5" height="9"/>
</g>
<g id="Слой_8">
	<rect x="592.6" y="162.5" transform="matrix(0.449 -0.8935 0.8935 0.449 178.3537 621.7603)" width="1.5" height="7.5"/>
</g>
<g id="Слой_7">
	<rect x="503" y="105" transform="matrix(0.538 -0.843 0.843 0.538 140.5607 475.2059)" width="1.5" height="8.8"/>
</g>
<g id="Слой_6">
	<rect x="500.8" y="117.3" transform="matrix(0.5775 -0.8164 0.8164 0.5775 111.9457 461.1871)" width="1.5" height="10.3"/>
</g>
<g id="Слой_5">
	<rect x="519.6" y="109.6" transform="matrix(0.676 -0.7369 0.7369 0.676 83.8817 420.6736)" width="1.5" height="10.6"/>
</g>
<g id="Слой_4">
	<rect x="552" y="109.5" transform="matrix(0.9426 -0.3339 0.3339 0.9426 -6.2533 191.116)" width="1.5" height="8.5"/>
</g>
<g id="Слой_3">
	<rect x="537.2" y="122.2" transform="matrix(0.7977 -0.6031 0.6031 0.7977 32.4186 350.024)" width="1.5" height="9"/>
</g>
<g id="Слой_2">
	<rect x="525.9" y="132.6" transform="matrix(0.449 -0.8935 0.8935 0.449 168.3865 545.7324)" width="1.5" height="7.5"/>
</g>
</svg>
