<?xml version="1.0" encoding="UTF-8"?>
<!-- Generator: visioncortex VTracer 0.6.3 -->
<svg version="1.1" xmlns="http://www.w3.org/2000/svg" width="1280" height="1280">
<path d="M0 0 C1.65 0.33 3.3 0.66 5 1 C15.31 29.58 11.22 63.68 -0.34 91.18 C-8.53 107.89 -25.05 117.1 -42 123 C-51.12 125.69 -59.93 127.18 -69.44 127.06 C-70.17 127.06 -70.9 127.05 -71.65 127.05 C-73.44 127.04 -75.22 127.02 -77 127 C-76.69 127.93 -76.37 128.85 -76.05 129.8 C-62.01 173.04 -62.83 225.17 -68 270 C-68.12 271.13 -68.25 272.25 -68.37 273.41 C-76.99 350.12 -100.7 424.91 -149 486 C-149.46 486.58 -149.92 487.16 -150.4 487.77 C-152.88 490.89 -155.43 493.95 -158 497 C-158.78 497.96 -159.56 498.93 -160.36 499.92 C-167.18 508.23 -174.66 515.85 -182.25 523.44 C-183.03 524.22 -183.03 524.22 -183.82 525.01 C-189.7 530.89 -195.67 536.61 -202 542 C-203.07 542.95 -204.14 543.9 -205.21 544.85 C-217.05 555.28 -229.84 564.32 -243 573 C-240.42 575.02 -237.86 576.7 -234.95 578.2 C-214.82 588.82 -214.82 588.82 -211.75 597.56 C-212.06 601.85 -213 604.93 -216 608 C-225.13 613.35 -237.19 610.99 -247.19 610 C-269.83 607.97 -289.12 607.24 -309.23 618.87 C-337.56 635.22 -367.69 647.64 -399 657 C-399 662.23 -391.27 667.78 -387.82 671.24 C-385.22 673.84 -382.61 676.42 -380 679 C-371.77 687.12 -363.85 695.32 -356.62 704.38 C-355.96 705.21 -355.29 706.04 -354.6 706.9 C-351.71 710.69 -351.52 713.23 -352 718 C-354.13 721.75 -356.94 724.5 -361 726 C-395.2 729.32 -444.61 720.81 -471.74 698.58 C-475.62 695.19 -479.32 691.61 -483 688 C-489.76 681.42 -495.63 678.86 -505.19 678.75 C-510.3 678.86 -515.4 679.11 -520.51 679.36 C-607.59 683.65 -687.61 666.25 -766.76 630.19 C-825.57 603.17 -825.57 603.17 -888 587 C-888.7 586.87 -889.4 586.75 -890.12 586.62 C-913.57 582.44 -938.87 583.98 -962 589 C-963.47 589.31 -964.93 589.63 -966.4 589.94 C-976.12 592.03 -976.12 592.03 -985.83 594.18 C-999.84 597.32 -1013.41 599.39 -1027.81 599.38 C-1029.78 599.37 -1029.78 599.37 -1031.78 599.37 C-1041.72 599.24 -1050.6 598.17 -1060 595 C-1060.96 594.69 -1061.93 594.38 -1062.92 594.05 C-1068.13 592.18 -1072.27 589.5 -1076.77 586.31 C-1079.14 584.92 -1081 584.41 -1083.69 583.94 C-1088.46 583.09 -1090.68 581.56 -1094 578 C-1097.16 572.08 -1096.04 565.68 -1094.28 559.45 C-1091.96 553.02 -1088.51 548.09 -1084 543 C-1083.33 542.21 -1082.65 541.42 -1081.96 540.6 C-1065.95 523.13 -1042.06 515.28 -1020.02 508.54 C-1019.19 508.28 -1018.35 508.02 -1017.48 507.74 C-1015.83 507.25 -1014.17 506.81 -1012.49 506.42 C-1008.01 505.27 -1008.01 505.27 -1004.6 502.31 C-1002.2 497.82 -1001.17 493.08 -1000.5 488.06 C-1000.38 487.27 -1000.27 486.48 -1000.15 485.66 C-999.38 480.28 -998.75 474.88 -998.14 469.48 C-992.18 417.05 -979.75 365.74 -937.23 330.53 C-929.04 324.14 -920.14 318.89 -911 314 C-910.4 313.67 -909.8 313.35 -909.18 313.01 C-830.74 270.49 -730.34 283.71 -645.95 296.69 C-645.05 296.82 -644.15 296.96 -643.23 297.1 C-639.01 297.75 -634.79 298.41 -630.57 299.08 C-622.82 300.3 -615.12 301.26 -607.29 301.72 C-606.56 301.76 -605.83 301.81 -605.07 301.85 C-597.83 302.2 -590.16 302.11 -584 298 C-583.17 296.19 -583.17 296.19 -582.68 294.06 C-582.46 293.26 -582.24 292.46 -582.01 291.63 C-581.78 290.76 -581.55 289.89 -581.31 289 C-575.04 266.96 -564.52 247.85 -549 231 C-548.54 230.49 -548.08 229.98 -547.6 229.45 C-526.55 206.36 -493.5 190.65 -462.29 188.78 C-458.23 188.6 -454.18 188.54 -450.12 188.5 C-448.82 188.48 -447.52 188.46 -446.18 188.44 C-434.66 188.52 -434.66 188.52 -430 193 C-427.55 197.9 -428.29 204.73 -429.88 209.82 C-431.08 212.56 -432.38 215.22 -433.75 217.88 C-441.25 233.37 -444.94 248.79 -446 266 C-446.05 266.79 -446.11 267.58 -446.16 268.39 C-446.8 286.63 -442.54 306.8 -435.88 323.75 C-435.64 324.41 -435.41 325.06 -435.17 325.74 C-433 330.81 -429.85 332.72 -424.9 334.92 C-419.69 336.86 -414.4 338.22 -409 339.5 C-407.78 339.8 -406.56 340.09 -405.31 340.4 C-361.68 350.79 -313.56 357.93 -269 349 C-268.03 348.81 -267.06 348.62 -266.06 348.43 C-230.54 341.34 -197.49 326 -171.52 300.48 C-170.01 299.01 -168.47 297.57 -166.92 296.14 C-132.1 263.43 -127.29 214.33 -120.25 169.67 C-114.86 135.73 -114.86 135.73 -112 130 C-112.62 130.03 -113.24 130.07 -113.88 130.11 C-137.5 130.83 -161.72 119.75 -179 104 C-196.62 86.24 -199.06 66.27 -200.66 42.61 C-201.28 33.52 -202.2 24.89 -204.4 16.02 C-205.01 12.93 -205.11 10.14 -205 7 C-199.29 4.14 -192.64 6.7 -186.94 8.5 C-186.07 8.77 -185.2 9.04 -184.31 9.32 C-181.54 10.19 -178.77 11.09 -176 12 C-174.65 12.44 -174.65 12.44 -173.26 12.89 C-141.31 23.46 -119.83 38.07 -103.62 67.76 C-102 71 -102 71 -102 73 C-101.34 73 -100.68 73 -100 73 C-99.84 71.99 -99.84 71.99 -99.67 70.96 C-96.8 58.32 -90.86 45.48 -80 38 C-69.12 32.38 -57.7 29.73 -45.82 27.12 C-30.08 23.63 -11.96 18.1 -2.5 4.12 C-1.65 2.76 -0.81 1.39 0 0 Z M-2 14 C-3.14 15.17 -4.27 16.34 -5.4 17.51 C-11.24 22.96 -17.96 26.11 -25.5 28.44 C-26.39 28.72 -27.28 29.01 -28.19 29.31 C-36.47 31.93 -44.83 34.27 -53.21 36.52 C-67.15 40.29 -78.52 43.6 -86.27 56.54 C-91.27 66.54 -94.5 77.4 -98 88 C-100.23 88.05 -100.23 88.05 -103 87 C-104.87 84.24 -106.08 81.19 -107.38 78.12 C-108.16 76.38 -108.95 74.63 -109.74 72.88 C-110.13 72.04 -110.51 71.19 -110.91 70.32 C-123.81 42.96 -146.92 30.76 -174 21 C-174.9 20.67 -175.8 20.35 -176.73 20.01 C-179.21 19.11 -181.69 18.24 -184.19 17.38 C-184.92 17.12 -185.66 16.86 -186.42 16.59 C-191.21 14.96 -191.21 14.96 -196 16 C-195.87 16.67 -195.73 17.34 -195.6 18.04 C-194.28 25.48 -193.76 32.76 -193.5 40.31 C-192.72 60.73 -190.8 78.99 -177 95 C-176 96.18 -176 96.18 -174.98 97.39 C-162.56 110.94 -139.3 121.39 -120.99 122.55 C-115.01 122.76 -110.56 122.43 -105.69 118.56 C-105.03 117.92 -104.38 117.29 -103.7 116.63 C-101.29 114.32 -99.21 114.03 -95.94 113.62 C-91.32 114.06 -88.35 115.59 -84.33 117.81 C-73.21 123.49 -56.02 119.59 -44.44 116.38 C-29.46 111.34 -15.85 103.14 -7.6 89.29 C-1.33 76.39 2.1 62.29 2.75 48 C2.79 47.1 2.83 46.2 2.88 45.28 C3.25 34.75 2.21 24.3 0 14 C-0.66 14 -1.32 14 -2 14 Z M-102 125 C-106.81 133.67 -107.83 143.09 -109.38 152.75 C-109.68 154.57 -109.98 156.4 -110.28 158.22 C-111.76 167.18 -113.18 176.15 -114.61 185.12 C-123.07 238.34 -136.18 286.45 -181.93 319.89 C-238.92 359.11 -305.81 366.48 -372.97 354.38 C-390.41 351.11 -407.71 347.02 -425 343 C-424.03 345.47 -423.08 347.85 -421.81 350.19 C-421.54 350.79 -421.28 351.38 -421 352 C-421.33 352.66 -421.66 353.32 -422 354 C-424.98 353.68 -426.58 353.42 -428.74 351.28 C-450.35 319.16 -457.68 279.61 -450.33 241.74 C-448.47 233.15 -445.4 225.08 -442 217 C-441.1 214.87 -440.21 212.73 -439.32 210.6 C-438.56 208.76 -437.76 206.93 -436.97 205.1 C-435.95 201.84 -435.99 200.21 -437 197 C-458.88 189.71 -489.31 200.4 -509.09 210.02 C-538.15 224.96 -560.11 250.2 -571 281 C-571.59 282.99 -572.16 284.99 -572.71 286.99 C-573 288.02 -573.29 289.06 -573.59 290.13 C-574.14 292.17 -574.67 294.22 -575.16 296.28 C-577.02 303.19 -577.02 303.19 -579.83 305.52 C-599.91 316.02 -630.34 306.41 -651.56 303.32 C-655.73 302.71 -659.9 302.1 -664.06 301.5 C-665.11 301.35 -666.15 301.2 -667.23 301.04 C-681.51 298.98 -695.78 297.11 -710.12 295.62 C-710.89 295.55 -711.65 295.47 -712.43 295.38 C-717.28 294.88 -722.14 294.43 -727 294 C-728.7 293.85 -728.7 293.85 -730.42 293.69 C-743.3 292.66 -756.22 292.76 -769.12 292.75 C-770.38 292.75 -771.63 292.75 -772.91 292.75 C-791.14 292.76 -808.97 293.11 -827 296 C-828.12 296.17 -829.24 296.34 -830.39 296.52 C-871.25 302.93 -912.74 316.82 -943 346 C-943.71 346.64 -944.42 347.29 -945.14 347.95 C-980.26 380.85 -987.46 434.88 -991.75 480.19 C-991.82 480.87 -991.88 481.56 -991.95 482.27 C-992.6 489.19 -993.18 496.04 -993 503 C-992.35 502.94 -991.7 502.88 -991.03 502.82 C-956.69 499.65 -956.69 499.65 -952 502 C-952 503.32 -952 504.64 -952 506 C-954.87 506.81 -957.48 507.14 -960.46 507.21 C-1000.13 508.4 -1049.98 517.28 -1078.44 547.44 C-1084.12 554.25 -1088.39 561.9 -1088 571 C-1087.21 573.95 -1087.21 573.95 -1086 576 C-1081.28 576.31 -1078.7 575.67 -1074.69 573.19 C-1073.11 572.22 -1073.11 572.22 -1071.49 571.24 C-1069.07 569.71 -1066.69 568.12 -1064.32 566.51 C-1048.36 555.71 -1031.13 547.63 -1013.06 541 C-1012.12 540.65 -1011.17 540.3 -1010.2 539.94 C-992.92 533.86 -974.97 531.78 -956.87 529.65 C-928.13 526.68 -928.13 526.68 -904 512 C-898.26 504.43 -896.73 496.16 -895 487 C-893.68 487 -892.36 487 -891 487 C-890.41 498.6 -892.1 505.25 -898 515 C-897.15 514.89 -896.29 514.78 -895.41 514.67 C-893.43 514.42 -891.45 514.17 -889.46 513.93 C-885.16 513.41 -880.87 512.84 -876.59 512.2 C-803.66 501.9 -730.78 520.84 -660.7 539.07 C-617.37 550.34 -574.72 560.04 -530 564 C-528.4 564.14 -528.4 564.14 -526.77 564.29 C-516.66 565.12 -506.58 565.2 -496.44 565.19 C-495.55 565.19 -494.67 565.19 -493.76 565.19 C-452.53 566.03 -452.53 566.03 -416 551 C-416.46 550.45 -416.92 549.9 -417.4 549.34 C-426.57 538.19 -434.03 526.13 -441.31 513.69 C-441.9 512.69 -442.49 511.68 -443.09 510.65 C-445.78 506.01 -448.42 501.33 -450.92 496.58 C-451.52 495.44 -451.52 495.44 -452.14 494.26 C-453.11 491.7 -453.16 489.72 -453 487 C-451.22 487.17 -451.22 487.17 -449 488 C-447.28 490.2 -447.28 490.2 -445.5 493.25 C-445.17 493.81 -444.83 494.38 -444.49 494.96 C-442.34 498.6 -440.27 502.29 -438.2 505.97 C-416.01 545.37 -389.33 575.04 -344.99 588.17 C-340.23 589.49 -335.42 590.52 -330.58 591.48 C-329.51 591.69 -328.44 591.9 -327.33 592.12 C-314.53 594.58 -301.63 596.14 -288.69 597.69 C-286.27 597.98 -283.86 598.28 -281.44 598.58 C-255.93 602.08 -255.93 602.08 -230.25 603.12 C-229.03 603.11 -229.03 603.11 -227.78 603.1 C-225.85 603.07 -223.93 603.04 -222 603 C-221.34 601.68 -220.68 600.36 -220 599 C-224.77 592.64 -229.97 589.26 -236.88 585.44 C-239.02 584.22 -241.16 582.99 -243.31 581.77 C-244.96 580.84 -244.96 580.84 -246.64 579.89 C-252.1 576.82 -257.52 573.7 -262.94 570.56 C-263.91 570.01 -264.89 569.45 -265.89 568.88 C-272 565.36 -277.56 561.48 -283 557 C-283.91 556.26 -284.82 555.53 -285.75 554.77 C-300.72 541.75 -308.78 524.45 -316.69 506.62 C-323.21 491.97 -329.49 478.4 -344 470 C-343.67 468.68 -343.34 467.36 -343 466 C-335.79 466.36 -330.81 470.85 -326.06 475.94 C-317.16 487.08 -311.58 499.95 -306.25 513.07 C-305.77 514.21 -305.29 515.35 -304.8 516.52 C-304.38 517.55 -303.96 518.58 -303.53 519.65 C-302.2 522.19 -302.2 522.19 -299.61 522.94 C-296.74 523.01 -295.12 522.57 -292.52 521.41 C-291.67 521.04 -290.83 520.67 -289.96 520.3 C-289.06 519.89 -288.17 519.48 -287.25 519.06 C-286.32 518.65 -285.38 518.23 -284.42 517.8 C-282.51 516.95 -280.6 516.09 -278.7 515.23 C-276.32 514.15 -273.93 513.09 -271.54 512.04 C-241.81 498.78 -211.11 478.84 -187.52 456.38 C-185.45 454.43 -183.35 452.57 -181.2 450.71 C-176.94 447 -172.92 443.07 -168.94 439.06 C-168.27 438.4 -167.6 437.73 -166.91 437.05 C-162.4 432.53 -158.15 427.85 -154 423 C-153.47 422.39 -152.94 421.79 -152.4 421.16 C-108.45 370.59 -83.69 306.9 -75 241 C-74.9 240.21 -74.79 239.43 -74.68 238.62 C-73.55 228.45 -73.76 218.16 -73.75 207.94 C-73.75 206.91 -73.75 205.88 -73.75 204.83 C-73.76 189.02 -74.31 173.61 -77 158 C-77.16 157.07 -77.31 156.14 -77.47 155.19 C-80.04 137.2 -80.04 137.2 -89 122 C-94.23 119.39 -98.23 120.93 -102 125 Z M-83 309 C-83.2 309.61 -83.41 310.22 -83.62 310.85 C-94.48 342.91 -108.98 373.61 -129 401 C-129.4 401.55 -129.79 402.09 -130.2 402.66 C-137.57 412.79 -145.46 422.44 -153.91 431.69 C-155.69 433.66 -157.41 435.66 -159.12 437.69 C-167.38 447.14 -176.42 456.08 -186.28 463.84 C-188.76 465.81 -191.14 467.85 -193.53 469.92 C-223.25 495.72 -260.38 515.83 -297 530 C-295.62 534.11 -293.75 536.71 -290.81 539.88 C-290.08 540.68 -289.34 541.48 -288.58 542.3 C-287.73 543.19 -286.88 544.08 -286 545 C-285.48 545.55 -284.97 546.1 -284.43 546.66 C-280.17 551.09 -275.62 554.66 -270.56 558.12 C-269.85 558.62 -269.14 559.12 -268.4 559.64 C-266.28 561.11 -264.14 562.56 -262 564 C-261.29 564.5 -260.59 565 -259.86 565.51 C-255.93 568.27 -255.93 568.27 -251.32 569.01 C-246.11 566.74 -241.61 563.29 -237 560 C-235.92 559.23 -235.92 559.23 -234.81 558.44 C-224.1 550.78 -213.82 542.78 -204 534 C-203.1 533.2 -202.2 532.4 -201.27 531.57 C-199.63 530.1 -198 528.63 -196.37 527.15 C-194.73 525.66 -193.07 524.19 -191.41 522.73 C-186.94 518.79 -182.79 514.83 -178.96 510.27 C-176.97 507.96 -174.89 505.74 -172.8 503.52 C-166.06 496.35 -159.9 488.87 -154 481 C-153.49 480.32 -152.98 479.64 -152.45 478.93 C-124.82 441.89 -106.76 401.88 -93 358 C-92.49 356.39 -92.49 356.39 -91.98 354.74 C-88.82 344.59 -86.3 334.33 -84.06 323.94 C-83.73 322.39 -83.73 322.39 -83.38 320.81 C-83.19 319.85 -82.99 318.89 -82.79 317.9 C-82.52 316.63 -82.52 316.63 -82.25 315.32 C-81.99 312.92 -82.26 311.29 -83 309 Z M-918.98 528.75 C-925.17 530.96 -931.32 532.01 -937.81 532.94 C-939.5 533.19 -939.5 533.19 -941.23 533.45 C-947.16 534.33 -953.1 535.15 -959.05 535.93 C-988.51 539.85 -1015.76 546.81 -1042 561 C-1042.9 561.48 -1042.9 561.48 -1043.81 561.97 C-1050.76 565.7 -1057.4 569.8 -1063.88 574.31 C-1064.49 574.73 -1065.1 575.15 -1065.73 575.59 C-1067.62 576.9 -1067.62 576.9 -1070 579 C-1070 579.99 -1070 580.98 -1070 582 C-1039.91 599.4 -1005.74 591.36 -973.8 583.92 C-963.58 581.55 -953.4 579.38 -943 578 C-941.65 577.81 -941.65 577.81 -940.27 577.61 C-913.46 574.45 -886.81 579.01 -861 586 C-859.91 586.3 -858.82 586.59 -857.69 586.9 C-825.51 595.73 -795.16 609.12 -764.94 623.1 C-715.92 645.77 -666.44 661.23 -613 669 C-611.79 669.18 -610.58 669.36 -609.33 669.54 C-568.71 675.24 -524.65 674.4 -484.13 668.32 C-481.96 667.99 -479.79 667.68 -477.61 667.37 C-418.56 658.75 -361.74 639.53 -309.59 610.53 C-306.1 608.59 -302.59 606.74 -299 605 C-302.28 603.12 -305.24 602.49 -308.96 601.92 C-310.14 601.73 -311.33 601.55 -312.55 601.35 C-313.81 601.15 -315.07 600.95 -316.38 600.75 C-348.57 595.43 -377.42 585.99 -402.63 564.79 C-408.07 560.69 -413.63 560.82 -420.07 561.54 C-425.71 562.43 -431.18 563.97 -436.69 565.44 C-518.36 586.43 -605.22 560.26 -684.2 539.63 C-720.69 530.05 -720.69 530.05 -757.69 522.75 C-758.76 522.57 -758.76 522.57 -759.86 522.39 C-779.75 519.06 -799.82 516.55 -820 516 C-820.74 515.98 -821.48 515.96 -822.25 515.93 C-854.02 515.13 -889.01 517.45 -918.98 528.75 Z M-439.75 666.69 C-449.99 669.19 -460.23 671.19 -470.62 672.88 C-471.3 672.98 -471.97 673.09 -472.66 673.21 C-476.44 673.81 -480.22 674.41 -484 675 C-476.01 691.58 -454.76 701.62 -438.28 707.62 C-423.45 712.66 -408.1 714.99 -392.63 717.03 C-391.23 717.22 -389.83 717.4 -388.44 717.6 C-373.72 720.04 -373.72 720.04 -360 716 C-359.39 713.63 -359.39 713.63 -360 711 C-361.75 708.41 -361.75 708.41 -364.31 705.88 C-364.79 705.38 -365.27 704.88 -365.76 704.36 C-367.49 702.56 -369.25 700.78 -371 699 C-371.72 698.25 -372.45 697.5 -373.19 696.73 C-393.33 674.71 -393.33 674.71 -420.17 663.81 C-427.03 663.7 -433.12 664.99 -439.75 666.69 Z " fill="#000000" transform="translate(1183,287)"/>
<path d="M0 0 C5.24 1.98 7.73 5.3 10.12 10.18 C11.27 15.75 11.45 20.91 8.31 25.85 C4.81 29.99 1.8 33.1 -3.75 33.83 C-10.19 33.92 -14.01 33.41 -19.2 29.5 C-24.02 24.16 -24.6 20.7 -24.54 13.62 C-24.04 9.06 -22.39 5.77 -19.2 2.5 C-13.44 -1.72 -6.8 -1.56 0 0 Z M-15.2 8.5 C-18.01 12.72 -17.99 16.53 -17.2 21.5 C-14.35 25.16 -12.1 27.19 -7.51 27.93 C-2.79 27.31 -0.09 25.24 2.8 21.5 C4.45 17.3 4.11 14.31 2.55 10.12 C0.91 7.29 0.91 7.29 -2.2 5.5 C-7.55 5.06 -10.84 5.04 -15.2 8.5 Z " fill="#000000" transform="translate(326.1953125,700.50390625)"/>
<path d="M0 0 C5.09 3.02 11.06 6.92 13.31 12.6 C13.59 14.52 13.59 14.52 13.46 17.46 C11.24 18.23 11.24 18.23 8.46 18.46 C6.25 16.7 6.25 16.7 4.09 14.21 C-1.35 8.47 -5.53 6.36 -13.47 6.02 C-22.06 6.26 -27.32 9.86 -33.54 15.46 C-34.86 14.8 -36.18 14.14 -37.54 13.46 C-37.54 10.3 -37.24 8.19 -35 5.87 C-24.42 -2.37 -12.75 -5.83 0 0 Z " fill="#000000" transform="translate(331.53515625,682.5390625)"/>
<path d="M0 0 C3.56 0.5 3.56 0.5 6 2.12 C8.03 5.22 8.17 6.86 7.56 10.5 C5.94 12.88 5.94 12.88 3.56 14.5 C-0.11 15.11 -1.73 14.99 -4.81 12.88 C-6.91 9.81 -6.97 8.15 -6.44 4.5 C-4.82 0.89 -3.96 0.58 0 0 Z " fill="#000000" transform="translate(318.4375,709.5)"/>
</svg>
