<?xml version="1.0" encoding="UTF-8"?>
<!-- Generator: visioncortex VTracer 0.6.3 -->
<svg version="1.1" xmlns="http://www.w3.org/2000/svg" width="1280" height="1280">
<path d="M0 0 C0.9 -0.02 1.79 -0.04 2.71 -0.06 C16.99 -0.14 30.36 6.44 41.55 14.99 C42.81 16.25 42.81 16.25 42.81 18.25 C44.13 18.58 45.45 18.91 46.81 19.25 C46.81 19.91 46.81 20.57 46.81 21.25 C47.8 21.58 48.79 21.91 49.81 22.25 C51.36 23.75 51.36 23.75 53 25.69 C53.91 26.76 53.91 26.76 54.84 27.86 C55.82 29.04 55.82 29.04 56.81 30.25 C57.52 31.1 58.22 31.95 58.94 32.83 C63.4 38.31 67.18 43.55 70 50.06 C70.34 50.85 70.69 51.64 71.04 52.46 C71.3 53.05 71.55 53.64 71.81 54.25 C72.93 53.86 74.04 53.47 75.19 53.06 C79.73 51.55 84.32 50.26 88.94 49 C96 47.07 103 44.98 110 42.81 C118.03 40.35 126.08 38 134.19 35.81 C135.12 35.55 136.05 35.29 137.01 35.03 C142.56 33.56 148.06 32.42 153.81 33.25 C156.88 35.13 156.88 35.13 158.81 38.25 C160.22 45.72 157.9 53.12 155.81 60.25 C155.51 61.29 155.21 62.34 154.9 63.41 C152.49 71.46 149.7 79.36 146.81 87.25 C146.15 87.25 145.49 87.25 144.81 87.25 C144.59 88.08 144.36 88.92 144.13 89.78 C142.54 93.97 140.29 97.19 137.69 100.81 C132.14 108.7 126.99 116.75 122.16 125.1 C119.44 129.79 116.88 133.58 112.81 137.25 C112.31 137.78 111.81 138.31 111.3 138.86 C104.12 146.45 96.69 151.28 86.81 154.62 C86.08 154.88 85.34 155.13 84.58 155.39 C74.08 158.72 63.11 158.49 52.19 158.81 C50.79 158.86 49.39 158.9 47.99 158.94 C44.6 159.05 41.2 159.15 37.81 159.25 C38.47 160.9 39.13 162.55 39.81 164.25 C37.43 166.14 35.74 167.27 32.81 168.25 C34.46 168.58 36.11 168.91 37.81 169.25 C37.81 170.24 37.81 171.23 37.81 172.25 C33.52 172.91 29.23 173.57 24.81 174.25 C24.49 181.85 24.19 189.46 23.92 197.06 C23.86 198.94 23.79 200.81 23.72 202.68 C23.37 212.02 24.52 220.73 26.34 229.84 C27.23 234.38 28.05 238.94 28.88 243.5 C29.05 244.45 29.22 245.39 29.4 246.37 C31.08 255.66 32.6 264.9 33.51 274.3 C34.22 281.66 35.16 288.63 37.15 295.78 C38 298.93 38.44 302.01 38.81 305.25 C35.14 304.94 34.03 304.49 31.5 301.69 C30.66 300.48 30.66 300.48 29.81 299.25 C29.58 305.6 30.44 311.24 31.75 317.44 C34.22 329.9 34.88 341.81 34.94 354.5 C34.94 355.61 34.95 356.73 34.95 357.88 C34.94 365.74 34.92 373.69 32.5 381.25 C32.28 381.99 32.05 382.74 31.82 383.5 C30.81 385.25 30.81 385.25 28.71 386 C28.08 386.08 27.46 386.16 26.81 386.25 C24.68 378.58 23.27 371.2 22.81 363.25 C22.15 363.25 21.49 363.25 20.81 363.25 C20.83 364.27 20.83 364.27 20.85 365.31 C21.07 389.27 17.89 412.96 8.81 435.25 C8.43 436.24 8.04 437.23 7.65 438.25 C6.26 441.8 4.83 445.22 3.12 448.62 C-0.24 457.91 0.65 468.75 0.64 478.51 C0.64 479.86 0.64 481.22 0.63 482.57 C0.63 485.41 0.63 488.24 0.63 491.07 C0.63 493.92 0.62 496.76 0.61 499.6 C0.53 514.97 0.67 530.22 2.11 545.54 C2.79 552.79 2.92 559.96 2.81 567.25 C-0.45 566.56 -1.98 565.79 -4.19 563.25 C-4.22 564.54 -4.26 565.84 -4.3 567.17 C-4.97 586.28 -7.85 602.52 -21.7 616.84 C-29.86 625.91 -30.4 633.61 -30.98 645.48 C-31.32 650.03 -32.12 654.47 -33 658.94 C-33.17 659.8 -33.34 660.66 -33.51 661.55 C-35.02 668.96 -37 676.21 -39.14 683.46 C-42.17 694.39 -41.26 704.21 -39.31 715.25 C-31.53 761.69 -31.53 761.69 -40.19 780.25 C-41.18 779.92 -42.17 779.59 -43.19 779.25 C-44.56 775 -45.3 770.62 -46.19 766.25 C-49.5 775.34 -50.78 783.29 -50.56 792.94 C-50.55 794.16 -50.53 795.38 -50.52 796.63 C-50.35 806.28 -49.6 815.71 -48.19 825.25 C-48.07 826.26 -47.95 827.27 -47.82 828.3 C-45.39 846.18 -39.98 865.16 -25.87 877 C-23.15 879.28 -20.67 881.71 -18.19 884.25 C-17.29 885.09 -17.29 885.09 -16.38 885.94 C-15.19 887.25 -15.19 887.25 -15.19 889.25 C-14.2 889.58 -13.21 889.91 -12.19 890.25 C-11.49 891.57 -10.82 892.9 -10.19 894.25 C-9.53 894.58 -8.87 894.91 -8.19 895.25 C-7.04 897.07 -7.04 897.07 -5.81 899.38 C-4.24 902.31 -2.64 905.2 -0.94 908.06 C0.45 910.59 1.36 912.45 1.81 915.25 C2.47 915.25 3.13 915.25 3.81 915.25 C4.97 917.79 6.11 920.33 7.25 922.88 C7.58 923.59 7.9 924.3 8.24 925.04 C12.63 934.92 12.63 934.92 10.69 940.44 C8.07 944.37 5.38 945.87 0.8 946.99 C-0.22 947.18 -1.25 947.37 -2.31 947.56 C-7.13 948.54 -7.13 948.54 -10.19 952.25 C-10.52 953.24 -10.85 954.23 -11.19 955.25 C-14 957.81 -16.6 958.87 -20.25 959.81 C-21.54 960.15 -21.54 960.15 -22.85 960.5 C-48.35 966.2 -70.99 963.74 -93.39 949.89 C-98.31 946.48 -100.98 943.06 -103.5 937.69 C-104.14 936.39 -104.78 935.1 -105.43 933.81 C-106.3 932.05 -106.3 932.05 -107.19 930.25 C-107.72 929.38 -108.25 928.51 -108.79 927.62 C-110.28 925.09 -111.24 922.65 -112.19 919.88 C-113.32 916.65 -114.47 913.49 -115.88 910.38 C-122.36 894.93 -116.39 874.9 -112.84 859.23 C-111.14 851.43 -110.91 843.89 -110.88 835.94 C-110.87 835.25 -110.87 834.56 -110.86 833.84 C-110.82 818.47 -112.62 803.42 -114.82 788.23 C-115.19 785.25 -115.19 785.25 -115.19 781.25 C-115.95 782.01 -116.71 782.78 -117.5 783.56 C-118.39 784.45 -119.27 785.34 -120.19 786.25 C-120.93 787.02 -120.93 787.02 -121.69 787.81 C-123.19 789.25 -123.19 789.25 -125.62 791.06 C-128.49 793.51 -130.17 796.09 -132.19 799.25 C-133.75 801.12 -133.75 801.12 -135.19 802.25 C-136.18 802.25 -137.17 802.25 -138.19 802.25 C-137.57 795.94 -135.69 790.29 -133.62 784.31 C-133.3 783.34 -132.97 782.37 -132.63 781.37 C-131.82 779 -131.01 776.62 -130.19 774.25 C-131.1 774.67 -131.1 774.67 -132.03 775.1 C-133.24 775.65 -133.24 775.65 -134.46 776.2 C-135.26 776.57 -136.05 776.93 -136.87 777.3 C-139.61 778.42 -142.24 778.95 -145.19 779.25 C-145.52 778.59 -145.85 777.93 -146.19 777.25 C-145.5 776.34 -144.81 775.44 -144.11 774.5 C-143.19 773.27 -142.28 772.04 -141.38 770.81 C-140.92 770.22 -140.47 769.63 -140.01 769.02 C-133.64 760.33 -132.32 750.58 -130.62 740.12 C-130.52 739.47 -130.41 738.82 -130.3 738.15 C-128.28 725.9 -127 713.64 -126.19 701.25 C-127.95 703.01 -129.4 705.05 -130.94 707 C-135.53 712.73 -139.88 717.38 -146.19 721.25 C-146.52 721.25 -146.85 721.25 -147.19 721.25 C-147.21 720.68 -147.23 720.11 -147.25 719.53 C-147.34 716.91 -147.45 714.3 -147.56 711.69 C-147.61 710.34 -147.61 710.34 -147.66 708.97 C-147.89 703.75 -148.63 699.28 -150.19 694.25 C-150.45 692.28 -150.67 690.3 -150.81 688.31 C-150.92 686.88 -150.92 686.88 -151.04 685.41 C-151.09 684.7 -151.14 683.98 -151.19 683.25 C-151.85 683.25 -152.51 683.25 -153.19 683.25 C-153.67 685.62 -154.15 687.98 -154.61 690.36 C-154.97 692.18 -155.36 693.99 -155.77 695.8 C-159.31 712.49 -156.93 728.74 -150.82 744.49 C-149.56 748 -149.39 751.55 -149.19 755.25 C-149.13 756.37 -149.13 756.37 -149.06 757.5 C-148.7 770.65 -154.21 781.84 -160.46 793.07 C-173.32 816.42 -165.92 860.14 -159.29 884.61 C-155.21 898.61 -155.21 898.61 -146.31 909.75 C-143.11 912.45 -140.11 915.25 -137.19 918.25 C-136.38 919.03 -135.58 919.82 -134.75 920.62 C-121.88 933.81 -116.19 947.73 -116.19 966.25 C-116.48 969.35 -117 971.32 -118.19 974.25 C-119.48 975.3 -120.82 976.3 -122.19 977.25 C-122.93 978.98 -122.93 978.98 -123.69 980.75 C-125.26 984.42 -125.87 985.28 -129.19 987.25 C-132.04 987.98 -132.04 987.98 -135.25 988.44 C-136.4 988.6 -137.54 988.76 -138.73 988.93 C-141.94 989.23 -144.91 989.18 -148.12 989 C-151.86 988.89 -151.86 988.89 -155.1 990.54 C-156.54 992.04 -157.87 993.64 -159.19 995.25 C-164.21 996.93 -169.47 996.44 -174.74 996.44 C-176.78 996.44 -178.83 996.46 -180.88 996.47 C-192.58 996.49 -201.01 995.01 -211.19 989.25 C-211.99 988.81 -212.79 988.36 -213.61 987.91 C-222.57 982.49 -226.37 975.05 -229.19 965.25 C-229.99 961.91 -230.67 958.56 -231.31 955.19 C-231.48 954.34 -231.65 953.49 -231.82 952.62 C-235.96 931.52 -235.97 907.13 -230.67 886.23 C-227.86 874.81 -228.99 861.8 -229 850.12 C-229 849.16 -229 848.19 -229 847.2 C-227.47 822.06 -227.47 822.06 -232.19 798.25 C-232.78 798.72 -233.37 799.19 -233.98 799.68 C-244.86 808.25 -244.86 808.25 -249.19 808.25 C-248.62 804.38 -247.5 801.82 -245.38 798.56 C-242.32 793.66 -240.15 788.67 -238.19 783.25 C-238.71 783.58 -239.23 783.9 -239.77 784.24 C-247.71 788.95 -255.88 791.87 -265.19 791.25 C-264.69 786.59 -262.81 784.19 -259.88 780.62 C-255.56 775.13 -253.06 769.96 -251.19 763.25 C-250.84 762.06 -250.49 760.87 -250.14 759.65 C-246.47 746.55 -244.84 733.79 -244.19 720.25 C-244.62 720.72 -245.04 721.19 -245.49 721.67 C-247.44 723.81 -249.41 725.93 -251.38 728.06 C-252.05 728.8 -252.72 729.54 -253.42 730.3 C-260.14 737.55 -260.14 737.55 -264.19 739.25 C-265.18 738.92 -266.17 738.59 -267.19 738.25 C-266.59 737.36 -265.99 736.48 -265.38 735.56 C-256.72 722.46 -255.06 709.36 -254.94 693.94 C-254.93 693.21 -254.92 692.49 -254.91 691.75 C-254.93 688.03 -255.07 686.42 -257.19 683.25 C-258.42 682.63 -258.42 682.63 -259.69 682 C-263.65 680.02 -267.05 677.58 -270.62 674.97 C-277.44 670.4 -284.1 669.05 -292.06 667.56 C-293.23 667.34 -294.39 667.11 -295.59 666.88 C-298.46 666.33 -301.32 665.79 -304.19 665.25 C-304.67 666.07 -304.67 666.07 -305.17 666.9 C-306.62 669.36 -308.09 671.8 -309.56 674.25 C-310.07 675.11 -310.58 675.97 -311.1 676.85 C-311.84 678.07 -311.84 678.07 -312.59 679.31 C-313.04 680.07 -313.49 680.82 -313.95 681.6 C-314.56 682.42 -314.56 682.42 -315.19 683.25 C-315.85 683.25 -316.51 683.25 -317.19 683.25 C-317.39 683.93 -317.6 684.61 -317.81 685.31 C-319.34 688.58 -321.21 690.6 -323.75 693.11 C-327.46 698.62 -327.79 706.48 -328.75 712.94 C-329 714.59 -329.25 716.24 -329.5 717.89 C-329.62 718.65 -329.74 719.42 -329.86 720.21 C-330.12 721.81 -330.42 723.4 -330.75 724.98 C-335.6 750.16 -322.55 782 -311.38 804.19 C-310.79 805.4 -310.79 805.4 -310.19 806.63 C-306.67 813.41 -302.09 817.34 -295.25 820.69 C-279.12 828.92 -269.33 845.88 -263.06 862.25 C-262.58 863.47 -262.58 863.47 -262.09 864.71 C-260 870.48 -260 870.48 -260.88 874.18 C-263.64 878.56 -266.82 880.34 -271.75 881.5 C-274.71 882.1 -277.11 882.25 -280.19 882.25 C-280.53 883.12 -280.53 883.12 -280.88 884 C-284.26 889.81 -289.73 891.43 -295.82 893.4 C-301.29 894.78 -306.57 894.8 -312.19 894.69 C-313.36 894.67 -314.54 894.66 -315.75 894.64 C-333.73 894.24 -357.68 892.76 -371.12 879.06 C-377.1 870.81 -379.41 860.92 -381.81 851.19 C-382.01 850.4 -382.2 849.62 -382.4 848.82 C-386.04 833.15 -387.6 817.27 -388.52 801.25 C-389.72 780.71 -390.94 760.23 -396.19 740.25 C-396.65 738.36 -397.11 736.47 -397.57 734.57 C-399.9 725.07 -402.53 715.66 -405.19 706.25 C-405.5 707.32 -405.82 708.39 -406.14 709.5 C-406.57 710.89 -407 712.29 -407.44 713.69 C-407.64 714.39 -407.85 715.1 -408.06 715.83 C-408.7 717.87 -408.7 717.87 -410.19 721.25 C-412.28 721.96 -412.28 721.96 -414.19 722.25 C-418.4 707.05 -415.97 693.95 -411.19 679.25 C-410.41 676.79 -409.64 674.33 -408.88 671.88 C-408.55 670.88 -408.22 669.88 -407.89 668.85 C-407.01 666.06 -407.01 666.06 -407.19 662.25 C-407.56 662.97 -407.94 663.7 -408.32 664.45 C-411.22 669.92 -414.1 674.62 -418.19 679.25 C-419.53 681.24 -420.86 683.24 -422.19 685.25 C-423.51 686.93 -424.84 688.6 -426.19 690.25 C-426.72 691.01 -427.26 691.78 -427.81 692.56 C-428.27 693.12 -428.72 693.68 -429.19 694.25 C-429.85 694.25 -430.51 694.25 -431.19 694.25 C-431.39 694.93 -431.6 695.61 -431.81 696.31 C-433.09 699.04 -434.02 700.18 -436.06 702.25 C-439.68 706.29 -440.7 710.63 -442.13 715.78 C-446.39 729.8 -454.17 741.46 -463.7 752.37 C-469.19 758.73 -470.34 762.33 -470.36 770.73 C-470.36 771.47 -470.36 772.2 -470.37 772.96 C-470.37 774.51 -470.37 776.07 -470.37 777.63 C-470.37 779.95 -470.39 782.27 -470.41 784.6 C-470.48 803.61 -468.55 822.94 -460.19 840.25 C-459.81 841.07 -459.44 841.88 -459.06 842.73 C-455.54 849.5 -450.32 854.03 -444.73 859.07 C-439.67 863.67 -435.66 868.32 -432.19 874.25 C-431.71 875.04 -431.22 875.83 -430.73 876.64 C-424.8 886.86 -415.94 902.16 -417.19 914.25 C-421.84 920.23 -427.08 921.36 -434.2 922.59 C-436.56 923.15 -436.56 923.15 -438.19 926.25 C-438.85 926.25 -439.51 926.25 -440.19 926.25 C-440.19 926.91 -440.19 927.57 -440.19 928.25 C-441.92 929.18 -441.92 929.18 -443.69 930.12 C-444.34 930.47 -444.99 930.82 -445.66 931.18 C-453.59 934.54 -461.12 934.56 -469.62 934.5 C-470.8 934.51 -471.98 934.52 -473.19 934.52 C-489.68 934.49 -505.15 929.46 -517.96 918.77 C-526.67 909.8 -530.99 894.52 -535.48 883.05 C-536.08 881.52 -536.72 879.99 -537.37 878.48 C-538.62 873.56 -538.48 868.74 -538.44 863.69 C-538.43 862.59 -538.43 861.48 -538.42 860.35 C-538.29 849.04 -537.68 837.63 -535.69 826.48 C-533.88 816.17 -533.73 805.94 -533.56 795.5 C-533.52 793.5 -533.49 791.51 -533.45 789.51 C-533.04 766.76 -533.09 744 -533.19 721.25 C-533.85 721.25 -534.51 721.25 -535.19 721.25 C-535.43 722.03 -535.68 722.82 -535.94 723.62 C-536.61 725.59 -537.32 727.55 -538.14 729.45 C-540.95 735.95 -542.27 742.24 -543.19 749.25 C-544.18 749.25 -545.17 749.25 -546.19 749.25 C-552.45 733.74 -550.37 720.79 -545.19 705.25 C-550.8 705.25 -556.41 705.25 -562.19 705.25 C-562.52 704.59 -562.85 703.93 -563.19 703.25 C-558.94 698.81 -554.33 695.15 -549.45 691.44 C-546.38 689.08 -543.56 686.69 -540.87 683.9 C-538.19 681.25 -538.19 681.25 -536.19 681.25 C-536.19 680.59 -536.19 679.93 -536.19 679.25 C-535.53 679.25 -534.87 679.25 -534.19 679.25 C-534.19 678.59 -534.19 677.93 -534.19 677.25 C-533.53 677.25 -532.87 677.25 -532.19 677.25 C-531.94 676.68 -531.69 676.11 -531.43 675.52 C-529.56 672.1 -526.85 669.56 -524.16 666.76 C-513.6 653.32 -514.6 629.8 -515.85 613.61 C-516.96 599.34 -517.42 585.11 -517.57 570.8 C-517.58 569.41 -517.58 569.41 -517.59 567.99 C-517.65 562.29 -517.69 556.59 -517.73 550.9 C-517.78 543.19 -517.85 535.48 -517.92 527.77 C-517.94 525.12 -517.96 522.47 -517.97 519.81 C-518 504.33 -518 504.33 -520.7 489.15 C-527.14 465.44 -524.26 435.61 -512.83 413.64 C-512.41 412.91 -511.99 412.19 -511.56 411.44 C-508.88 406.5 -508.1 401.35 -507.12 395.88 C-504.58 381.55 -500.39 371.16 -492.19 359.25 C-487.89 353.02 -487.89 353.02 -484.31 346.38 C-480.17 337.75 -473.67 330.21 -467.19 323.25 C-466.65 322.67 -466.1 322.08 -465.55 321.48 C-450.82 306.21 -435.06 300.59 -414.89 295.9 C-408.71 294.41 -402.67 292.46 -396.66 290.38 C-395.5 289.97 -395.5 289.97 -394.31 289.56 C-393.68 289.33 -393.04 289.1 -392.38 288.86 C-385.17 286.85 -377.87 287.1 -370.44 287.12 C-369.32 287.12 -368.2 287.12 -367.05 287.11 C-357.07 287.12 -347.37 287.71 -337.62 289.94 C-336.48 290.2 -336.48 290.2 -335.31 290.46 C-327.56 292.28 -320.1 294.79 -312.6 297.42 C-309.13 298.62 -305.64 299.76 -302.16 300.91 C-277.36 309.11 -277.36 309.11 -269.19 313.25 C-267.19 313.93 -265.19 314.6 -263.19 315.25 C-262.17 315.7 -261.16 316.15 -260.12 316.62 C-255.61 318.57 -250.96 319.97 -246.25 321.38 C-245.39 321.64 -244.54 321.9 -243.66 322.18 C-232.72 325.55 -232.72 325.55 -221.99 322.64 C-220.98 322.08 -220.98 322.08 -219.94 321.5 C-219.24 321.14 -218.55 320.78 -217.84 320.41 C-215.15 318.98 -212.61 317.57 -210.19 315.73 C-207.17 313.5 -203.81 312 -200.44 310.38 C-189.54 305.01 -181.52 300.13 -174.62 289.75 C-166.88 278.22 -166.88 278.22 -162.19 275.25 C-161.53 275.25 -160.87 275.25 -160.19 275.25 C-161.65 279.38 -163.76 282.62 -166.19 286.25 C-172.54 296.7 -176.6 307.49 -180.43 319.06 C-181.43 322.08 -182.48 324.93 -183.75 327.86 C-185.5 331.99 -186.7 336.17 -187.88 340.5 C-188.1 341.3 -188.32 342.1 -188.56 342.93 C-189.45 346.17 -190.19 348.86 -190.19 352.25 C-183.55 343.64 -177.22 335.13 -171.91 325.63 C-170.19 323.25 -170.19 323.25 -167.97 322.4 C-167.38 322.35 -166.79 322.3 -166.19 322.25 C-166.19 322.91 -166.19 323.57 -166.19 324.25 C-166.85 324.25 -167.51 324.25 -168.19 324.25 C-168.31 324.82 -168.44 325.38 -168.57 325.96 C-169.22 328.38 -170.14 330.54 -171.14 332.83 C-173.29 338.15 -174.25 343.26 -174.94 348.94 C-175.06 349.89 -175.18 350.84 -175.31 351.81 C-176.26 359.66 -176.52 367.35 -176.19 375.25 C-174.75 372.53 -173.7 369.88 -172.81 366.94 C-171.43 362.65 -169.55 359.08 -167.19 355.25 C-166.53 355.25 -165.87 355.25 -165.19 355.25 C-165.68 359 -166.54 362.47 -167.69 366.06 C-169.14 370.82 -169.93 375.28 -170.19 380.25 C-170.27 381.66 -170.27 381.66 -170.35 383.11 C-170.65 393.64 -169.55 405.54 -165.19 415.25 C-165.07 414.06 -164.95 412.86 -164.82 411.63 C-164.48 408.35 -164.13 405.07 -163.76 401.79 C-163.68 401.04 -163.59 400.28 -163.51 399.5 C-163.08 396.5 -162.38 393.61 -161.63 390.68 C-160.53 384.63 -160.47 378.38 -160.19 372.25 C-159.2 372.58 -158.21 372.91 -157.19 373.25 C-157.09 374.47 -156.99 375.69 -156.89 376.95 C-155.59 391.86 -153.05 403.83 -144.19 416.25 C-144.82 413.53 -145.62 410.98 -146.62 408.38 C-146.89 407.67 -147.15 406.97 -147.42 406.25 C-148.05 404.62 -148.71 402.99 -149.38 401.38 C-150.52 396.99 -150.35 392.76 -150.19 388.25 C-149.53 388.25 -148.87 388.25 -148.19 388.25 C-147.96 389.3 -147.73 390.35 -147.5 391.44 C-147.08 393.05 -146.64 394.65 -146.19 396.25 C-145.93 397.21 -145.67 398.16 -145.4 399.15 C-142.74 407.38 -138.71 412.49 -132.93 418.79 C-128.36 423.84 -125.31 428.72 -123.19 435.25 C-122.96 435.94 -122.73 436.64 -122.5 437.35 C-121.02 442.54 -120.61 447.89 -120.19 453.25 C-113 443.64 -109.33 435.56 -108.87 423.41 C-108.83 422.35 -108.79 421.29 -108.74 420.19 C-108.69 418.55 -108.69 418.55 -108.62 416.88 C-108.58 415.76 -108.54 414.64 -108.49 413.49 C-108.39 410.74 -108.29 408 -108.19 405.25 C-107.53 404.92 -106.87 404.59 -106.19 404.25 C-106.09 405.11 -106.09 405.11 -105.99 405.99 C-104.14 421.83 -100.79 433.43 -92.18 447.01 C-83.76 460.67 -79.87 473.75 -82.83 489.71 C-83.33 491.65 -83.86 493.58 -84.43 495.5 C-85.32 498.73 -85.77 501.93 -86.19 505.25 C-78.37 497.72 -70.98 490.49 -65.19 481.25 C-64.62 480.44 -64.05 479.63 -63.46 478.79 C-58.02 470.83 -54.64 462.2 -51.19 453.25 C-50.53 453.25 -49.87 453.25 -49.19 453.25 C-49.55 461.36 -51.6 468.58 -54.19 476.25 C-44.78 465.7 -37.63 455.34 -32.38 442.12 C-32.08 441.4 -31.79 440.67 -31.5 439.92 C-27.46 429.3 -26.82 418.89 -26.56 407.62 C-26.52 406.23 -26.49 404.83 -26.45 403.43 C-26.35 400.03 -26.27 396.64 -26.19 393.25 C-25.2 393.58 -24.21 393.91 -23.19 394.25 C-21.27 408.24 -21.22 421.18 -22.19 435.25 C-21.21 433.15 -20.23 431.04 -19.25 428.94 C-18.7 427.77 -18.16 426.59 -17.6 425.39 C-15.04 419.71 -15 415.19 -15 409.06 C-14.99 408.14 -14.98 407.22 -14.96 406.27 C-14.95 400.58 -15.56 395.71 -17.19 390.25 C-16.2 390.58 -15.21 390.91 -14.19 391.25 C-13.18 393.33 -13.18 393.33 -12.19 396.25 C-11.74 397.41 -11.29 398.57 -10.82 399.76 C-5.97 412.95 -3.99 426.36 -2.19 440.25 C-1.99 439.58 -1.8 438.92 -1.6 438.23 C-1.21 436.9 -1.21 436.9 -0.81 435.55 C-0.43 434.24 -0.43 434.24 -0.04 432.91 C0.78 430.34 1.75 427.91 2.81 425.44 C6.32 416.86 7.78 407.7 9.44 398.62 C9.56 397.96 9.68 397.29 9.81 396.6 C11.76 385.5 12 374.45 12 363.22 C12 360.75 12.02 358.29 12.04 355.83 C12.06 348.18 11.95 340.9 10.24 333.4 C9.81 331.25 9.81 331.25 9.81 327.25 C10.47 327.25 11.13 327.25 11.81 327.25 C11.81 328.24 11.81 329.23 11.81 330.25 C12.47 330.25 13.13 330.25 13.81 330.25 C14.14 330.99 14.46 331.72 14.8 332.48 C15.46 333.94 15.46 333.94 16.12 335.44 C16.55 336.4 16.98 337.36 17.43 338.36 C19.12 341.89 20.96 345.16 23.38 348.25 C24.98 350.48 25.83 352.69 26.81 355.25 C27.06 346.81 26.37 338.88 25 330.56 C23.38 320.25 21.99 309.94 20.85 299.56 C20.27 294.37 19.48 289.34 18.28 284.26 C16.46 276.4 15.63 268.27 14.81 260.25 C15.47 260.25 16.13 260.25 16.81 260.25 C17.29 261.36 17.78 262.47 18.27 263.61 C18.91 265.07 19.55 266.54 20.19 268 C20.66 269.09 20.66 269.09 21.15 270.21 C21.46 270.92 21.77 271.63 22.09 272.36 C22.37 273.01 22.65 273.66 22.94 274.33 C23.85 276.33 24.82 278.29 25.81 280.25 C25.28 276.16 24.75 272.07 24.21 267.98 C24.03 266.6 23.85 265.21 23.67 263.82 C22.65 255.9 21.51 248.06 19.81 240.25 C19.54 238.92 19.27 237.6 19 236.27 C18.63 234.47 18.63 234.47 18.25 232.62 C17.22 227.5 16.34 222.44 15.81 217.25 C15.15 217.25 14.49 217.25 13.81 217.25 C9.75 225.55 11.13 233.44 12.27 242.25 C14.4 259.62 10.03 277.58 -0.67 291.62 C-5.56 297.72 -10.74 302.77 -16.97 307.5 C-23.74 312.84 -27.23 319.74 -31.19 327.25 C-37.96 339.62 -44.59 347.38 -58.19 352.25 C-69.42 355.18 -82.8 353.96 -93.13 348.77 C-100.85 344.17 -107.07 338.83 -110.19 330.25 C-111.18 329.92 -112.17 329.59 -113.19 329.25 C-114.18 327.45 -115.11 325.61 -116 323.75 C-118.86 318.65 -121.82 315.68 -126.81 312.75 C-139.44 305.32 -148.38 296.29 -155.19 283.25 C-155.68 282.33 -156.17 281.42 -156.68 280.48 C-164.23 265.29 -165.12 247.85 -161.57 231.45 C-160.75 226.75 -162.07 223.34 -164.19 219.25 C-164.43 220.91 -164.43 220.91 -164.67 222.6 C-167.47 241.49 -171.44 260.03 -177.19 278.25 C-176.86 278.58 -176.53 278.91 -176.19 279.25 C-175.63 278.46 -175.08 277.66 -174.51 276.84 C-173.78 275.82 -173.06 274.8 -172.31 273.75 C-171.59 272.73 -170.87 271.71 -170.13 270.66 C-169.49 269.86 -168.85 269.07 -168.19 268.25 C-167.53 268.25 -166.87 268.25 -166.19 268.25 C-167.95 276.95 -173.01 285.01 -179.19 291.25 C-180.33 292.46 -180.33 292.46 -181.5 293.69 C-182.83 294.96 -182.83 294.96 -184.19 296.25 C-184.9 296.94 -185.62 297.63 -186.36 298.34 C-187.54 299.44 -187.54 299.44 -188.75 300.56 C-189.87 301.61 -189.87 301.61 -191 302.68 C-193.19 304.25 -193.19 304.25 -197.19 304.25 C-196.57 299.48 -194.58 295.76 -192.38 291.56 C-188.21 283.41 -184.38 275.52 -182.68 266.45 C-182.19 264.25 -182.19 264.25 -181.29 261.7 C-179.72 256.79 -178.72 251.8 -177.69 246.75 C-177.47 245.68 -177.25 244.61 -177.02 243.5 C-174.08 229.01 -171.89 215.55 -174.61 200.86 C-175.86 193.05 -176.46 185.13 -177.19 177.25 C-178.09 177.58 -178.99 177.92 -179.93 178.26 C-184.33 179.59 -186.71 179.2 -191.19 178.25 C-193.19 176.69 -193.19 176.69 -194.19 175.25 C-193.53 174.59 -192.87 173.93 -192.19 173.25 C-194.17 172.59 -196.15 171.93 -198.19 171.25 C-198.19 170.59 -198.19 169.93 -198.19 169.25 C-195.58 168.75 -192.98 168.25 -190.38 167.75 C-189.64 167.61 -188.9 167.46 -188.14 167.32 C-185.11 166.74 -182.28 166.25 -179.19 166.25 C-179.85 163.28 -180.51 160.31 -181.19 157.25 C-182.5 157.23 -183.82 157.21 -185.18 157.19 C-190.09 157.11 -195 157.02 -199.92 156.93 C-202.04 156.89 -204.16 156.86 -206.28 156.83 C-209.34 156.78 -212.4 156.72 -215.46 156.66 C-216.4 156.65 -217.34 156.64 -218.31 156.63 C-236.86 156.22 -254.61 148.69 -267.86 135.6 C-275.68 126.71 -282.29 116.84 -288.55 106.81 C-290.14 104.32 -291.8 101.91 -293.5 99.5 C-308.06 78.82 -308.06 78.82 -312.19 68.25 C-312.62 67.18 -313.05 66.11 -313.5 65 C-314.8 59.81 -314.88 54.97 -312.19 50.25 C-310.5 48.88 -310.5 48.88 -308.19 48.25 C-303.1 48.78 -298.19 49.89 -293.21 51.01 C-282.93 53.31 -272.88 54.82 -262.39 55.58 C-256.36 56.03 -250.45 56.7 -244.5 57.75 C-243.81 57.87 -243.12 57.99 -242.41 58.11 C-239 58.75 -236.26 59.7 -233.19 61.25 C-231.87 61.25 -230.55 61.25 -229.19 61.25 C-228.96 60.7 -228.73 60.16 -228.49 59.6 C-224.64 50.71 -220.17 42.87 -214.19 35.25 C-213.63 34.51 -213.07 33.76 -212.5 33 C-204.35 22.23 -195.01 13.03 -182.19 8.25 C-181.59 8 -180.99 7.76 -180.37 7.5 C-166.38 1.77 -150.84 -0.85 -136.19 4.25 C-124.32 9.27 -114.31 19.79 -107.11 30.27 C-102.44 37.08 -98.66 40.61 -91.07 43.88 C-86.83 45.89 -83.29 48.71 -80.19 52.25 C-80.19 52.91 -80.19 53.57 -80.19 54.25 C-79.57 53.59 -78.95 52.93 -78.31 52.25 C-76.19 50.25 -76.19 50.25 -74.19 50.25 C-74.19 49.59 -74.19 48.93 -74.19 48.25 C-73.53 48.25 -72.87 48.25 -72.19 48.25 C-72.19 47.59 -72.19 46.93 -72.19 46.25 C-66 41.78 -59.01 38.03 -51.5 36.5 C-47.76 35.09 -46.93 33.82 -45.2 30.3 C-40.2 20.14 -32.48 10.2 -22.19 5.25 C-20.98 4.53 -19.77 3.8 -18.56 3.06 C-12.55 -0.17 -6.69 0.04 0 0 Z M-17.19 12.25 C-16.86 12.91 -16.53 13.57 -16.19 14.25 C-14.04 14.9 -11.87 15.47 -9.69 16 C-0.35 18.56 6.9 22.43 11.84 31.04 C13 33.68 13.46 36.16 13.94 39 C14.11 39.98 14.27 40.97 14.45 41.98 C14.57 42.73 14.69 43.48 14.81 44.25 C16.13 44.25 17.45 44.25 18.81 44.25 C22.71 37.35 23.89 31.13 22.81 23.25 C21.14 18.17 18.62 14.06 14.06 11.12 C3.84 7.15 -7.05 9.32 -17.19 12.25 Z M-169.56 17.56 C-174.24 23.66 -175.31 30.68 -175.19 38.25 C-174.47 41.71 -173.45 44.96 -172.19 48.25 C-170.54 48.58 -168.89 48.91 -167.19 49.25 C-167.02 48.54 -166.85 47.82 -166.67 47.09 C-164.14 37.09 -161.22 30.75 -152.19 25.25 C-144.75 21.12 -137.61 19.23 -129.19 18.25 C-135.15 12.08 -144.22 11.1 -152.44 10.88 C-159.52 11.11 -164.66 12.24 -169.56 17.56 Z M-177.62 15.5 C-178.77 15.85 -178.77 15.85 -179.93 16.2 C-182.73 17.5 -184.25 18.85 -186.19 21.25 C-188.87 28.9 -188.57 35.93 -185.19 43.25 C-183.46 46.36 -183.46 46.36 -181.19 48.25 C-179.87 48.25 -178.55 48.25 -177.19 48.25 C-177.2 47.59 -177.22 46.93 -177.24 46.25 C-177.3 43.23 -177.34 40.21 -177.38 37.19 C-177.41 35.63 -177.41 35.63 -177.45 34.04 C-177.52 26.71 -177.07 21.46 -172 15.81 C-171.4 15.3 -170.8 14.78 -170.19 14.25 C-173.06 14.25 -174.91 14.64 -177.62 15.5 Z M24.81 15.25 C24.97 16.08 25.13 16.91 25.3 17.76 C25.86 21.56 26 25.29 26 29.12 C26 30.18 26 30.18 26 31.26 C25.95 36.26 25.39 40.52 23.81 45.25 C27.15 45.47 27.15 45.47 30.81 44.25 C34.99 38.93 37.49 32.46 37.5 25.68 C36.07 20.66 31.1 17.83 26.81 15.25 C26.15 15.25 25.49 15.25 24.81 15.25 Z M-28.19 20.25 C-29.09 21.44 -29.97 22.65 -30.83 23.88 C-31.27 24.51 -31.72 25.14 -32.17 25.79 C-32.51 26.27 -32.84 26.75 -33.19 27.25 C-32.08 27.4 -30.97 27.54 -29.82 27.7 C-17.69 29.46 -8.69 32.31 -0.66 42.15 C1.59 45.36 3.21 48.67 4.81 52.25 C8.56 48.74 9.68 46.78 10.12 41.56 C10.01 35.29 7.33 30.39 2.88 26.06 C-4.46 20.29 -20.11 13.07 -28.19 20.25 Z M-147.19 26.25 C-147.97 26.71 -148.76 27.17 -149.57 27.64 C-154.53 30.75 -159.93 34.28 -161.79 40.15 C-162.5 43.89 -162.82 47.48 -162.19 51.25 C-159.87 54.32 -159.87 54.32 -157.19 56.25 C-156.96 55.73 -156.73 55.21 -156.49 54.68 C-152.42 45.98 -145.2 38.86 -136.06 35.5 C-129.93 33.68 -123.52 33.02 -117.19 32.25 C-117.92 30.95 -118.68 29.66 -119.44 28.38 C-120.06 27.3 -120.06 27.3 -120.7 26.2 C-122.42 23.94 -123.52 23.18 -126.19 22.25 C-134.06 21.27 -140.37 22.26 -147.19 26.25 Z M-196.06 27.94 C-201.24 32.82 -201.24 32.82 -203.31 39.34 C-203.01 45.18 -201.5 48.33 -197.19 52.25 C-194.5 53.45 -193.1 53.55 -190.32 52.62 C-188.58 51.9 -186.88 51.08 -185.19 50.25 C-186.24 48.06 -187.28 46.12 -188.72 44.16 C-190.7 40.23 -190.75 36.78 -190.88 32.44 C-190.93 31.26 -190.93 31.26 -190.98 30.05 C-191.06 28.12 -191.13 26.18 -191.19 24.25 C-193.19 24.25 -194.74 26.63 -196.06 27.94 Z M41.81 27.25 C40.25 28.82 40.35 30.65 40 32.81 C39.17 37.21 37.83 40.69 35.62 44.56 C34.6 46.39 34.6 46.39 34.81 49.25 C39.13 51.47 42.16 51.69 46.81 50.25 C49.76 46.47 50.68 44.36 51.25 39.62 C50.54 34.14 47.93 30.83 43.81 27.25 C43.15 27.25 42.49 27.25 41.81 27.25 Z M-38.19 35.25 C-40.04 38.5 -41.66 41.83 -43.19 45.25 C-41.72 45.31 -41.72 45.31 -40.22 45.36 C-23.77 46.19 -23.77 46.19 -19.19 49.25 C-17.26 51.64 -15.65 54.12 -14.03 56.73 C-11.15 60.67 -7.39 62.9 -3.19 65.25 C-0.07 62.14 -0.22 59.76 0.06 55.38 C-0.07 48.19 -4.32 43.16 -9.19 38.25 C-15.17 33.24 -22.45 31.67 -30.06 30.81 C-34.12 31.38 -35.42 32.2 -38.19 35.25 Z M-150.19 49.38 C-152.77 53.09 -154.42 55.48 -153.81 60.06 C-153.5 61.15 -153.5 61.15 -153.19 62.25 C-152.26 61.84 -151.33 61.43 -150.38 61 C-143.15 57.92 -136.06 54.95 -128.19 54.25 C-128.97 53.51 -129.75 52.76 -130.56 52 C-132.8 49.66 -133.88 48.11 -135.19 45.25 C-124.81 46.35 -114.49 47.54 -104.19 49.25 C-109.3 41.84 -109.3 41.84 -116.19 36.25 C-129.14 34.12 -141.64 39.68 -150.19 49.38 Z M-209.7 42.48 C-212.33 45.6 -212.31 49.28 -212.19 53.25 C-210.81 56.98 -209.21 59.66 -206.19 62.25 C-202.39 60.76 -200.58 58.49 -198.19 55.25 C-198.67 54.74 -199.15 54.23 -199.65 53.71 C-203.28 49.75 -205.98 46.64 -207.19 41.25 C-208.38 41.14 -208.38 41.14 -209.7 42.48 Z M141.69 43.12 C137.19 44.58 132.73 45.75 128.11 46.74 C124.42 47.56 120.78 48.53 117.12 49.5 C116.32 49.71 115.52 49.93 114.7 50.14 C112.98 50.6 111.26 51.06 109.54 51.52 C107.66 52.02 105.79 52.52 103.91 53.02 C100.96 53.8 98.01 54.59 95.06 55.38 C94.15 55.62 93.23 55.86 92.29 56.11 C87.23 57.47 82.57 59.06 77.81 61.25 C76.91 61.65 76.01 62.05 75.07 62.46 C65.65 66.72 56.6 70.93 48.29 77.14 C38.57 84.35 28.99 89.69 16.81 91.25 C17.08 91.91 17.35 92.57 17.62 93.25 C18.02 94.24 18.41 95.23 18.81 96.25 C19.29 97.34 19.76 98.44 20.25 99.56 C23.53 108.28 24.55 118.06 25.81 127.25 C26.47 127.25 27.13 127.25 27.81 127.25 C34.1 120.54 39.19 112.27 42.75 103.81 C49.43 88.24 60.89 75.81 76.26 68.64 C79.42 67.4 82.58 66.28 85.81 65.25 C86.49 65.02 87.18 64.78 87.88 64.54 C92.16 63.26 96.35 63.09 100.81 62.88 C113.86 62.12 125.8 58.27 137.81 53.25 C129.01 63.81 113.11 64.79 100.28 66.27 C84.53 68.12 73.81 71.21 61.81 82.25 C62.8 82.75 62.8 82.75 63.81 83.25 C65.46 82.34 65.46 82.34 67.25 81 C76.04 75.27 86.97 74.5 97.12 72.94 C107.43 71.28 116.64 69.35 125.81 64.25 C126.14 64.58 126.47 64.91 126.81 65.25 C115.01 71.54 104.56 74.92 91.25 76.69 C83.96 77.67 77.32 78.63 70.81 82.25 C69.93 82.73 69.04 83.21 68.13 83.71 C54.37 91.83 47.11 102.5 40.3 116.47 C38.49 119.85 36.36 122.4 33.81 125.25 C33.81 125.91 33.81 126.57 33.81 127.25 C32.33 127.75 32.33 127.75 30.81 128.25 C30.81 128.91 30.81 129.57 30.81 130.25 C30.01 130.54 29.2 130.83 28.38 131.12 C25.68 131.98 25.68 131.98 24.81 134.25 C24.74 136.12 24.73 138 24.75 139.88 C24.78 142.56 24.78 142.56 24.81 145.25 C25.58 145.05 26.34 144.84 27.13 144.63 C35.68 142.48 43.9 141.66 52.69 141.25 C70.75 140.22 87.56 139.09 100.81 125.25 C101.95 124.28 103.09 123.32 104.25 122.38 C107.86 119.33 110.85 115.92 113.81 112.25 C112.48 116.65 110.12 119.39 107.05 122.7 C105.6 124.18 105.6 124.18 105.81 126.25 C103.83 127.24 103.83 127.24 101.81 128.25 C101.81 128.91 101.81 129.57 101.81 130.25 C101.25 130.52 100.68 130.79 100.1 131.07 C96.88 132.73 93.88 134.74 90.84 136.71 C80.79 141.81 69.9 142.26 58.88 143.25 C42.07 143.76 42.07 143.76 27.03 149.66 C25.51 151.31 25.51 151.31 25.81 154.25 C29.85 154.53 29.85 154.53 33.61 153.3 C36.53 151.91 39.16 151.64 42.38 151.25 C43.39 151.12 43.39 151.12 44.42 151 C49.07 150.46 53.71 150.12 58.38 149.86 C74.85 148.91 89.98 147.98 102.81 136.25 C102.81 135.59 102.81 134.93 102.81 134.25 C103.8 133.92 104.79 133.59 105.81 133.25 C105.81 132.59 105.81 131.93 105.81 131.25 C106.47 131.25 107.13 131.25 107.81 131.25 C114.3 124.24 119.06 115.25 123.88 107.06 C125.71 103.98 127.62 101.09 129.81 98.25 C135.96 90.25 140.07 81.83 143.5 72.38 C143.88 71.38 144.25 70.38 144.64 69.35 C149.72 55.66 149.72 55.66 150.81 41.25 C147.39 41.25 144.94 42.07 141.69 43.12 Z M55.81 42.25 C55.41 43 55.02 43.75 54.61 44.52 C53.81 45.99 53.81 45.99 53 47.5 C52.22 48.96 52.22 48.96 51.42 50.45 C50.02 52.88 48.55 55.06 46.81 57.25 C47.8 58.74 47.8 58.74 48.81 60.25 C53.07 59.78 55 57.29 57.81 54.25 C58.14 53.92 58.47 53.59 58.81 53.25 C59.48 47.95 59.48 47.95 57.3 43.49 C56.81 43.08 56.32 42.67 55.81 42.25 Z M-66.71 51.63 C-72.63 57.44 -72.63 57.44 -77.19 64.25 C-81.01 62.75 -82.69 60.42 -85.19 57.25 C-85.85 57.25 -86.51 57.25 -87.19 57.25 C-87.19 56.59 -87.19 55.93 -87.19 55.25 C-87.85 55.25 -88.51 55.25 -89.19 55.25 C-89.68 53.76 -89.68 53.76 -90.19 52.25 C-91.18 52.25 -92.17 52.25 -93.19 52.25 C-93.19 51.59 -93.19 50.93 -93.19 50.25 C-93.85 50.25 -94.51 50.25 -95.19 50.25 C-94.88 50.85 -94.57 51.45 -94.25 52.06 C-93.19 54.25 -93.19 54.25 -92.19 57.25 C-93.42 56.9 -94.65 56.55 -95.92 56.19 C-105.01 53.67 -113.69 51.46 -123.19 51.25 C-121.26 53.35 -121.26 53.35 -118.69 54.69 C-116.19 56.25 -116.19 56.25 -114.19 59.25 C-115.41 59.23 -116.62 59.2 -117.88 59.18 C-119.5 59.16 -121.13 59.14 -122.75 59.12 C-123.55 59.11 -124.35 59.09 -125.17 59.07 C-135.18 58.99 -145.82 62.28 -153.29 69.2 C-155.11 71.27 -155.11 71.27 -157.19 74.25 C-154.02 74.25 -153.01 73.79 -150.31 72.31 C-147.27 70.73 -144.63 69.68 -141.19 69.25 C-141.19 69.91 -141.19 70.57 -141.19 71.25 C-141.74 71.49 -142.29 71.73 -142.86 71.97 C-156.79 79.62 -166.62 95.41 -171.19 110.25 C-171.8 113.38 -172.14 116.51 -172.44 119.69 C-172.53 120.48 -172.62 121.28 -172.71 122.1 C-173.27 127.66 -172.96 132.71 -172.19 138.25 C-171.53 138.25 -170.87 138.25 -170.19 138.25 C-170.19 137.59 -170.19 136.93 -170.19 136.25 C-164.13 134.4 -155.99 133.87 -150.01 136.04 C-147.37 137.76 -145.93 139.63 -144.19 142.25 C-144.19 143.24 -144.19 144.23 -144.19 145.25 C-145.67 144.75 -145.67 144.75 -147.19 144.25 C-147.62 143.29 -147.62 143.29 -148.06 142.31 C-149.05 140.1 -149.05 140.1 -151.25 139 C-156.31 137.71 -161.07 137.45 -166 139.31 C-169.75 142.63 -172.58 147.2 -173.19 152.25 C-173.25 154.92 -173.23 157.58 -173.19 160.25 C-172.77 159.89 -172.36 159.53 -171.93 159.16 C-165.46 154.28 -159.04 154.28 -151.19 155.25 C-144.95 156.93 -140.59 160.86 -137.19 166.25 C-131.73 177.24 -129.89 187.1 -129.19 199.25 C-129.94 198.93 -130.69 198.6 -131.47 198.27 C-134.93 196.97 -137.52 196.92 -141.19 197.25 C-143.86 198.62 -143.86 198.62 -146.19 200.25 C-152.45 202.21 -158.93 202.21 -164.81 199.25 C-165.93 198.59 -167.04 197.93 -168.19 197.25 C-167.06 206.42 -164.79 212.31 -158.56 219.12 C-153.97 222.01 -149.51 222.62 -144.19 223.25 C-144.19 223.91 -144.19 224.57 -144.19 225.25 C-148.48 225.25 -152.77 225.25 -157.19 225.25 C-159.89 254.91 -157.51 274.71 -138.06 298.06 C-135.96 300.47 -133.94 302.58 -131.19 304.25 C-130.53 304.25 -129.87 304.25 -129.19 304.25 C-129.19 304.91 -129.19 305.57 -129.19 306.25 C-127.21 306.91 -125.23 307.57 -123.19 308.25 C-124.26 305.9 -125.43 303.91 -126.95 301.8 C-132.79 293.67 -132.79 293.67 -132.38 287.88 C-131.59 283.7 -130.03 281.43 -127.19 278.25 C-124.73 272.65 -123.37 266.97 -121.95 261.03 C-121.08 257.86 -119.77 255.12 -118.19 252.25 C-118.19 251.59 -118.19 250.93 -118.19 250.25 C-117.53 250.25 -116.87 250.25 -116.19 250.25 C-116.19 249.59 -116.19 248.93 -116.19 248.25 C-112.85 246.92 -109.52 245.58 -106.19 244.25 C-108.32 246.38 -110.44 248.48 -112.69 250.5 C-117.83 256.16 -119.42 261.95 -121.06 269.25 C-122.81 276.96 -125.67 281.74 -131.19 287.25 C-130.91 291.47 -129.29 293.81 -126.62 297 C-125.9 297.87 -125.18 298.73 -124.44 299.62 C-123.32 300.92 -123.32 300.92 -122.19 302.25 C-121.51 303.05 -120.83 303.86 -120.12 304.69 C-112.72 313.25 -104.94 321.15 -93.05 322.49 C-83.22 323.3 -83.22 323.3 -74.19 320.25 C-74.3 317.54 -74.43 314.83 -74.56 312.12 C-74.59 311.36 -74.62 310.6 -74.66 309.82 C-74.89 305.33 -75.38 301.44 -77.19 297.25 C-79.15 296.1 -79.15 296.1 -81.19 295.25 C-82.25 293.31 -82.25 293.31 -83.19 291.25 C-85.49 288.48 -87.69 287.53 -91.06 286.38 C-95.43 284.71 -98.23 282.98 -101.19 279.25 C-102.96 273.95 -103.11 268.31 -100.81 263.19 C-99.19 261.25 -99.19 261.25 -97.19 260.25 C-93.35 260.11 -89.87 260.07 -86.19 261.25 C-86.19 261.91 -86.19 262.57 -86.19 263.25 C-89.82 263.25 -93.45 263.25 -97.19 263.25 C-97.7 264.28 -98.22 265.31 -98.75 266.38 C-99.04 266.96 -99.33 267.54 -99.63 268.13 C-100.39 271.04 -99.81 273.35 -99.19 276.25 C-98.27 276.38 -97.36 276.52 -96.41 276.65 C-94.63 276.92 -94.63 276.92 -92.81 277.19 C-91.63 277.36 -90.45 277.54 -89.23 277.71 C-86.19 278.25 -86.19 278.25 -84.19 279.25 C-83.53 280.64 -82.93 282.06 -82.38 283.5 C-80.6 287.62 -78.84 290.49 -75.19 293.25 C-72.64 294 -72.64 294 -70.19 293.25 C-66.26 290.51 -64.95 286.71 -63.31 282.37 C-61.93 279.77 -60.73 278.73 -58.19 277.25 C-55.39 276.52 -55.39 276.52 -52.44 276.06 C-51.45 275.9 -50.47 275.75 -49.45 275.58 C-48.71 275.47 -47.96 275.36 -47.19 275.25 C-46.37 271.46 -45.92 269 -47.25 265.31 C-49.07 262.93 -49.07 262.93 -52.25 262.88 C-55.12 263.08 -55.12 263.08 -57.19 264.25 C-56.5 262.31 -56.5 262.31 -55.19 260.25 C-52.88 259.31 -52.88 259.31 -50.19 259.25 C-46.7 260.87 -45.34 262.01 -43.19 265.25 C-42.7 271.05 -43.08 275.16 -46.19 280.25 C-49.87 283.32 -53.83 285.63 -58.18 287.62 C-63.61 290.56 -67.17 294.91 -70.19 300.25 C-71.29 305.82 -71.4 310.89 -68.77 316.01 C-67.24 318.31 -67.24 318.31 -65.19 320.25 C-56.22 321.4 -48.57 320.63 -41.19 315.25 C-32.96 308.18 -28.18 300.52 -23.65 290.76 C-22.19 288.25 -22.19 288.25 -19.19 287.25 C-19.77 281.94 -19.77 281.94 -22.19 277.25 C-22.85 277.25 -23.51 277.25 -24.19 277.25 C-25.42 274.31 -26.49 271.36 -27.45 268.32 C-31.21 256.54 -31.21 256.54 -39.19 247.25 C-39.85 246.92 -40.51 246.59 -41.19 246.25 C-40.86 245.92 -40.53 245.59 -40.19 245.25 C-33.86 247.51 -31.15 251.48 -28.19 257.25 C-26.87 260.79 -25.67 264.36 -24.49 267.94 C-23.26 271.06 -21.99 273.18 -19.88 275.75 C-17.96 278.1 -17.22 279.11 -16.5 282.12 C-17.35 286 -19.01 289.08 -20.88 292.57 C-22.87 296.64 -24.04 300.88 -25.19 305.25 C-10.53 299.16 -2.06 287.52 4.19 273.19 C10.11 256.96 7.58 239.99 5.81 223.25 C4.69 223.49 4.69 223.49 3.54 223.73 C0.19 224.37 -2.79 224.5 -6.19 224.25 C-7.9 222.73 -7.9 222.73 -9.19 221.25 C-8.28 221.37 -8.28 221.37 -7.35 221.5 C-0.66 222 3.33 220.56 8.61 216.43 C15.21 209.9 16.62 202.26 16.81 193.25 C14.28 194.61 14.28 194.61 11.81 196.25 C11.81 196.91 11.81 197.57 11.81 198.25 C6.79 199.92 1.35 200.46 -3.53 198.13 C-5 197.22 -6.47 196.29 -7.95 195.37 C-11.55 193.57 -15.26 193.46 -19.19 194.25 C-19.85 194.91 -20.51 195.57 -21.19 196.25 C-22.18 196.25 -23.17 196.25 -24.19 196.25 C-24.5 180.17 -24.5 180.17 -22.19 173.25 C-22.09 172.61 -22 171.97 -21.9 171.3 C-20.72 163.68 -17.05 158.53 -11.22 153.57 C-4.75 149.29 2.29 149.25 9.81 150.25 C12.64 151.28 14.35 152.43 16.81 154.25 C18.14 154.93 19.47 155.6 20.81 156.25 C21.52 149.87 20.3 145.91 16.79 140.53 C12.56 135.65 7.33 133.63 1.06 132.69 C-2.87 133.37 -5.05 134.83 -8.19 137.25 C-9.18 137.91 -10.17 138.57 -11.19 139.25 C-10.62 136.44 -10.62 136.44 -9.19 133.25 C-4.05 130.1 0.86 129.36 6.81 130.25 C10.57 131.37 14.19 132.73 17.81 134.25 C20.78 117.02 14.77 100.72 5.81 86.25 C3.94 83.69 2.01 81.55 -0.19 79.25 C-0.81 78.45 -1.43 77.64 -2.07 76.82 C-8.29 69.27 -19.19 60.41 -29.19 59.25 C-30.18 59.58 -31.17 59.91 -32.19 60.25 C-29.42 56.44 -25.56 56.18 -21.19 55.25 C-21.19 54.59 -21.19 53.93 -21.19 53.25 C-30.12 49.05 -38.91 49.06 -48.19 52.25 C-49.51 52.25 -50.83 52.25 -52.19 52.25 C-52.19 49.94 -52.19 47.63 -52.19 45.25 C-57.7 45.25 -62.66 47.95 -66.71 51.63 Z M61.81 53.25 C61.21 54.16 60.62 55.06 60 56 C58.11 58.8 56.27 60.97 53.81 63.25 C57.72 62.09 60.69 60.89 63.81 58.25 C63.48 56.6 63.15 54.95 62.81 53.25 C62.48 53.25 62.15 53.25 61.81 53.25 Z M-216.19 54.25 C-216.89 55.66 -217.57 57.08 -218.25 58.5 C-218.63 59.29 -219.02 60.08 -219.41 60.89 C-220.28 63.54 -220.28 64.71 -219.19 67.25 C-216.62 68.7 -214.95 69.32 -212 69.06 C-209.82 68.28 -209.82 68.28 -208.19 65.25 C-208.6 64.71 -209.01 64.16 -209.43 63.61 C-209.97 62.89 -210.51 62.17 -211.06 61.44 C-211.6 60.73 -212.13 60.02 -212.68 59.29 C-213.9 57.65 -215.05 55.95 -216.19 54.25 Z M11.81 56.25 C7.9 60.7 4.13 66.29 3.81 72.25 C6.21 76.74 9.22 80.66 12.81 84.25 C24.22 84.91 35.01 78.93 43.81 72.25 C45.59 70.15 45.59 70.15 46.81 68.25 C39.71 60.53 32.52 54.5 21.81 53.25 C17.92 53.25 15.02 54.1 11.81 56.25 Z M-305.19 57.25 C-306.41 71.58 -294.3 85.45 -286.19 96.25 C-283.32 100.12 -280.75 104.03 -278.41 108.24 C-273.83 115.79 -268.28 122.87 -262.19 129.25 C-261.64 129.83 -261.1 130.42 -260.54 131.02 C-256.36 135.07 -251.69 137.83 -246.56 140.5 C-245.95 140.83 -245.33 141.16 -244.7 141.5 C-232.86 147.36 -219.92 147.72 -207 147.88 C-204.07 147.92 -201.14 147.98 -198.21 148.04 C-197.51 148.05 -196.82 148.06 -196.1 148.08 C-190.43 148.2 -184.82 148.61 -179.19 149.25 C-179.19 147.6 -179.19 145.95 -179.19 144.25 C-180.42 144.24 -181.66 144.23 -182.93 144.22 C-187.57 144.18 -192.21 144.12 -196.84 144.04 C-198.84 144.01 -200.84 143.99 -202.84 143.98 C-217.06 143.87 -229.05 142.9 -241.81 136.06 C-244.63 134.57 -247.16 133.26 -250.19 132.25 C-250.19 131.59 -250.19 130.93 -250.19 130.25 C-251.18 129.59 -252.17 128.93 -253.19 128.25 C-253.19 127.59 -253.19 126.93 -253.19 126.25 C-252.35 126.78 -251.52 127.31 -250.66 127.86 C-235.4 137.49 -222.77 140.6 -204.73 140.46 C-202.36 140.44 -199.99 140.44 -197.62 140.44 C-196.09 140.43 -194.57 140.42 -193.04 140.42 C-192.34 140.42 -191.64 140.42 -190.92 140.41 C-186.91 140.38 -183.12 140.02 -179.19 139.25 C-182.87 137.05 -186.77 136.46 -190.94 135.75 C-196.42 134.78 -201.81 133.71 -207.19 132.25 C-207.19 131.59 -207.19 130.93 -207.19 130.25 C-206.42 130.54 -205.66 130.83 -204.88 131.12 C-196.67 133.63 -188.75 134.58 -180.19 134.25 C-180.19 132.93 -180.19 131.61 -180.19 130.25 C-180.85 130.25 -181.51 130.25 -182.19 130.25 C-182.45 129.66 -182.71 129.08 -182.98 128.47 C-184.24 126.15 -185.62 124.59 -187.44 122.69 C-190.32 119.51 -192.27 116.39 -194.19 112.56 C-196.84 107.42 -199.32 105.28 -204.19 102.25 C-206.52 99.68 -207.58 97.67 -208.19 94.25 C-208.52 95.24 -208.85 96.23 -209.19 97.25 C-209.95 96.86 -210.71 96.48 -211.5 96.08 C-218.69 92.45 -225.9 88.98 -233.38 85.96 C-234.47 85.52 -235.56 85.08 -236.69 84.62 C-237.71 84.22 -238.73 83.82 -239.78 83.4 C-242.19 82.25 -242.19 82.25 -243.19 80.25 C-234.46 82.58 -226.98 85.65 -219.09 89.96 C-216.21 91.63 -216.21 91.63 -213.19 90.25 C-227.68 78.58 -242.36 76.74 -260.3 75.92 C-261.07 75.88 -261.84 75.85 -262.62 75.81 C-263.38 75.78 -264.13 75.75 -264.9 75.71 C-270.97 75.39 -276.43 74.18 -282.19 72.25 C-283.5 71.89 -284.81 71.54 -286.12 71.19 C-288.68 70.41 -290.87 69.55 -293.19 68.25 C-288.7 68.84 -284.39 69.66 -280 70.75 C-274.12 72.04 -268.51 72.54 -262.5 72.75 C-241.12 73.59 -224.22 77.69 -207.19 91.25 C-206.3 91.93 -205.41 92.61 -204.49 93.31 C-197.79 98.84 -193.73 104.63 -189.71 112.27 C-187.13 117.08 -184.6 120.01 -180.19 123.25 C-180.01 122.38 -180.01 122.38 -179.84 121.49 C-178.29 113.75 -176.74 106 -175.19 98.25 C-175.96 97.98 -176.74 97.71 -177.54 97.44 C-188.22 93.56 -197.44 88.14 -207.12 82.25 C-222.04 73.32 -235.97 66.85 -253.42 64.61 C-256.19 64.25 -256.19 64.25 -258.58 63.72 C-261.28 63.23 -263.91 63.1 -266.66 63.01 C-276.7 62.66 -286.21 60.82 -296.01 58.69 C-299.06 58.07 -302.1 57.65 -305.19 57.25 Z M-195.19 65.25 C-195.19 65.91 -195.19 66.57 -195.19 67.25 C-195.76 67.5 -196.34 67.75 -196.94 68 C-199.49 69.42 -201.21 71.13 -203.19 73.25 C-201.1 79.51 -191.69 82.99 -185.94 85.88 C-180.1 88.49 -175.58 89.86 -169.19 89.25 C-168.53 87.6 -167.87 85.95 -167.19 84.25 C-166.53 84.25 -165.87 84.25 -165.19 84.25 C-161.5 80.72 -161 76.07 -160.19 71.25 C-160.02 70.38 -159.86 69.52 -159.69 68.62 C-160.52 64.68 -163.33 62 -166.19 59.25 C-175.5 54.59 -187.63 59.39 -195.19 65.25 Z M-15.19 161.25 C-15.87 163.34 -15.87 163.34 -16.19 165.25 C-15.75 164.85 -15.32 164.45 -14.87 164.04 C-10.31 159.99 -6.32 156.54 -0.03 155.96 C4.66 156.31 8.05 157.76 12.25 159.75 C12.98 160.08 13.71 160.42 14.47 160.76 C16.25 161.58 18.03 162.41 19.81 163.25 C17.13 157.62 13.7 154.47 7.81 152.25 C-1.53 150.81 -8.64 154.87 -15.19 161.25 Z M-170.44 162.85 C-171.41 164.28 -172.31 165.76 -173.19 167.25 C-170.35 166.83 -169.11 166.19 -166.88 164.31 C-162.51 160.97 -158.35 159.95 -152.94 160.56 C-149.19 161.25 -149.19 161.25 -146.19 162.25 C-146.52 161.26 -146.85 160.27 -147.19 159.25 C-155.1 155.39 -164.75 155.56 -170.44 162.85 Z M-11.19 165.25 C-10.86 166.24 -10.53 167.23 -10.19 168.25 C-9.69 168.06 -9.2 167.88 -8.69 167.69 C-6.21 167.25 -4.58 167.39 -2.12 167.75 C1.71 168.53 1.71 168.53 4.81 167.25 C5.74 165.39 5.74 165.39 5.81 163.25 C5.15 162.26 4.49 161.27 3.81 160.25 C-2.74 159.61 -6.42 160.48 -11.19 165.25 Z M-161.19 166.25 C-161.23 168.25 -161.23 170.25 -161.19 172.25 C-158.14 173.77 -155.55 173.49 -152.19 173.25 C-150.08 172.23 -150.08 172.23 -149.19 170.25 C-149.42 167.6 -149.42 167.6 -150.19 165.25 C-151.83 165.22 -153.48 165.2 -155.12 165.19 C-156.5 165.17 -156.5 165.17 -157.9 165.15 C-160.15 164.99 -160.15 164.99 -161.19 166.25 Z M-17.19 165.25 C-16.19 168.25 -16.19 168.25 -16.19 168.25 Z M-140.19 167.25 C-139.19 169.25 -139.19 169.25 -139.19 169.25 Z M-12.19 168.25 C-11.19 171.25 -11.19 171.25 -11.19 171.25 Z M11.81 168.25 C12.81 170.25 12.81 170.25 12.81 170.25 Z M-144.19 169.25 C-144.14 170.12 -144.14 170.12 -144.08 171.01 C-143.9 176.2 -144.16 179.81 -147.19 184.25 C-149.22 185.98 -150.47 186.28 -153.12 186.17 C-156.27 185.83 -159.17 185.25 -162.19 184.25 C-160.94 187.9 -160.52 189.03 -157.19 191.25 C-153.8 191.8 -150.58 191.79 -147.19 191.25 C-143.79 188.7 -141.78 186.16 -140.19 182.25 C-140.08 180.01 -140.08 180.01 -140.44 177.75 C-140.53 177 -140.61 176.24 -140.7 175.47 C-141.21 173.14 -142.04 171.33 -143.19 169.25 C-143.52 169.25 -143.85 169.25 -144.19 169.25 Z M15.81 170.25 C15.71 170.89 15.62 171.53 15.52 172.19 C14.5 178.07 12.99 182.22 9.81 187.25 C9.48 188.24 9.15 189.23 8.81 190.25 C6.09 191.2 6.09 191.2 2.75 191.94 C1.65 192.19 0.54 192.44 -0.6 192.7 C-1.45 192.88 -2.31 193.06 -3.19 193.25 C-2.86 193.91 -2.53 194.57 -2.19 195.25 C1.45 196.46 3.99 196.65 7.81 196.25 C14.02 191.59 16.08 184.57 17.81 177.25 C17.98 173.96 17.98 173.96 17.81 171.25 C17.15 170.92 16.49 170.59 15.81 170.25 Z M-13.19 171.25 C-13.57 176.02 -13.65 179.34 -11.44 183.69 C-8.83 186.66 -6.91 187.96 -3 188.62 C1.13 188.74 3.2 188.67 6.69 186.25 C9.13 182.8 11 179.43 11.81 175.25 C11.44 173.06 11.44 173.06 10.81 171.25 C8.15 173.56 6.9 174.97 5.81 178.38 C4.81 181.25 4.81 181.25 3.06 182.62 C0.05 183.46 -2.07 183.7 -5.19 183.25 C-9.79 179.8 -11.02 176.65 -12.19 171.25 C-12.52 171.25 -12.85 171.25 -13.19 171.25 Z M-169.19 175.25 C-168.87 183.84 -167.65 190.05 -162.12 196.75 C-157.67 199.03 -153.1 199.06 -148.19 198.25 C-145.89 196.83 -145.89 196.83 -144.19 195.25 C-144.52 194.59 -144.85 193.93 -145.19 193.25 C-145.85 193.58 -146.51 193.91 -147.19 194.25 C-152.28 194.89 -156.05 194.9 -160.56 192.31 C-165 187.9 -167.4 181.38 -168.19 175.25 C-168.52 175.25 -168.85 175.25 -169.19 175.25 Z M-17.19 176.25 C-19.39 180.8 -19.78 185.28 -20.19 190.25 C-17.55 189.92 -14.91 189.59 -12.19 189.25 C-12.65 188.41 -12.65 188.41 -13.12 187.55 C-14.22 185.19 -14.79 183.05 -15.31 180.5 C-15.48 179.7 -15.65 178.9 -15.82 178.08 C-15.94 177.47 -16.06 176.87 -16.19 176.25 C-16.52 176.25 -16.85 176.25 -17.19 176.25 Z M-138.19 178.25 C-138.29 178.83 -138.38 179.41 -138.48 180.01 C-139.51 185.35 -140.87 188.94 -144.19 193.25 C-140.56 193.58 -136.93 193.91 -133.19 194.25 C-134.03 188.88 -135.1 183.57 -136.19 178.25 C-136.85 178.25 -137.51 178.25 -138.19 178.25 Z M-163.19 181.25 C-162.19 184.25 -162.19 184.25 -162.19 184.25 Z M-394.19 297.25 C-394.19 297.91 -394.19 298.57 -394.19 299.25 C-392.87 299.25 -391.55 299.25 -390.19 299.25 C-390.19 299.91 -390.19 300.57 -390.19 301.25 C-390.9 301.22 -391.62 301.2 -392.36 301.17 C-400.22 301.02 -407.49 301.91 -415.19 303.44 C-416.27 303.63 -417.36 303.83 -418.48 304.03 C-429.97 306.26 -439.72 310.18 -448.94 317.44 C-450 318.24 -450 318.24 -451.09 319.05 C-453.72 321.05 -453.72 321.05 -456.19 323.25 C-456.19 323.91 -456.19 324.57 -456.19 325.25 C-456.76 325.5 -457.34 325.75 -457.94 326.01 C-463.58 329.12 -468.51 335.04 -472.19 340.25 C-472.19 340.91 -472.19 341.57 -472.19 342.25 C-467.68 340.99 -464.7 339.35 -461.19 336.25 C-460.53 336.58 -459.87 336.91 -459.19 337.25 C-460.6 338.55 -462.02 339.84 -463.44 341.12 C-464.62 342.2 -464.62 342.2 -465.83 343.3 C-468.19 345.25 -468.19 345.25 -470.28 346.28 C-472.63 347.47 -473.83 348.91 -475.5 350.94 C-477.75 353.62 -480.02 356.04 -482.62 358.38 C-489.43 365.05 -494.5 375.18 -497.19 384.25 C-497.19 385.57 -497.19 386.89 -497.19 388.25 C-496.53 388.25 -495.87 388.25 -495.19 388.25 C-495.19 387.59 -495.19 386.93 -495.19 386.25 C-494.53 386.25 -493.87 386.25 -493.19 386.25 C-493.19 385.59 -493.19 384.93 -493.19 384.25 C-491.21 383.75 -491.21 383.75 -489.19 383.25 C-489.68 385.23 -489.68 385.23 -490.19 387.25 C-490.85 387.25 -491.51 387.25 -492.19 387.25 C-493.87 390.24 -495.53 393.24 -497.19 396.25 C-497.5 396.81 -497.81 397.38 -498.13 397.96 C-507.5 414.98 -515.53 432.89 -515.25 452.75 C-515.24 453.61 -515.23 454.46 -515.22 455.34 C-515.21 455.97 -515.2 456.6 -515.19 457.25 C-514.86 457.25 -514.53 457.25 -514.19 457.25 C-514.19 455.6 -514.19 453.95 -514.19 452.25 C-513.53 452.25 -512.87 452.25 -512.19 452.25 C-512.33 453.27 -512.48 454.28 -512.62 455.33 C-512.81 456.72 -513 458.11 -513.19 459.5 C-513.28 460.16 -513.38 460.83 -513.48 461.51 C-514.68 470.59 -514.57 479.37 -512.77 488.35 C-509.41 505.21 -509.8 521.91 -510.03 539.01 C-510.12 546.4 -510.15 553.8 -510.18 561.19 C-510.18 561.99 -510.19 562.79 -510.19 563.61 C-510.27 579.11 -509.71 594.51 -508.62 609.98 C-507.6 624.9 -507.5 640.02 -511 654.62 C-511.15 655.28 -511.31 655.93 -511.46 656.61 C-512.7 661.39 -514.7 665.05 -517.19 669.25 C-517.19 669.91 -517.19 670.57 -517.19 671.25 C-517.85 671.25 -518.51 671.25 -519.19 671.25 C-520.62 672.94 -520.62 672.94 -522.12 675.12 C-528.12 683.06 -535.73 689.47 -543.82 695.19 C-544.27 695.54 -544.72 695.89 -545.19 696.25 C-545.19 696.58 -545.19 696.91 -545.19 697.25 C-541.56 696.92 -537.93 696.59 -534.19 696.25 C-534.95 697.67 -535.71 699.1 -536.5 700.56 C-540.26 708.09 -542.26 715.91 -543.19 724.25 C-542.53 724.25 -541.87 724.25 -541.19 724.25 C-539.37 722.08 -539.37 722.08 -537.56 719.38 C-536.93 718.47 -536.3 717.57 -535.65 716.63 C-534.01 714.43 -534.01 714.43 -534.19 712.25 C-533.2 711.92 -532.21 711.59 -531.19 711.25 C-529.52 709.75 -529.52 709.75 -528.19 708.25 C-528.52 709.24 -528.85 710.23 -529.19 711.25 C-529.15 713.61 -529.04 715.96 -528.88 718.31 C-528.8 719.56 -528.72 720.81 -528.64 722.1 C-528.5 725.34 -528.5 725.34 -526.19 727.25 C-526.19 728.24 -526.19 729.23 -526.19 730.25 C-526.18 732.12 -526.17 733.99 -526.16 735.87 C-525.96 771.89 -526.03 807.43 -530.21 843.28 C-533.06 868.09 -528.65 892.01 -513.19 912.25 C-508.01 917.49 -502.03 920.68 -495.19 923.25 C-493.64 923.84 -493.64 923.84 -492.06 924.44 C-484.16 926.67 -476.35 926.35 -468.19 926.25 C-467.9 925.45 -467.61 924.64 -467.31 923.81 C-466.19 921.25 -466.19 921.25 -464.19 920.25 C-465.18 922.23 -466.17 924.21 -467.19 926.25 C-459.48 926.69 -451.63 925.92 -445.38 921.06 C-443.88 917.53 -444.31 915.63 -445.32 912.02 C-446.18 909.89 -446.18 909.89 -449.19 908.25 C-448.97 907.52 -448.76 906.8 -448.54 906.05 C-448.11 902.61 -448.84 901.36 -450.62 898.44 C-451.1 897.65 -451.57 896.86 -452.06 896.04 C-452.43 895.45 -452.8 894.86 -453.19 894.25 C-453.85 894.25 -454.51 894.25 -455.19 894.25 C-454.86 893.26 -454.53 892.27 -454.19 891.25 C-451.19 892.25 -451.19 892.25 -450.12 894.06 C-449.82 894.78 -449.51 895.51 -449.19 896.25 C-448.82 896.99 -448.44 897.74 -448.06 898.5 C-447.63 899.37 -447.63 899.37 -447.19 900.25 C-446.53 900.25 -445.87 900.25 -445.19 900.25 C-444.82 901.7 -444.82 901.7 -444.44 903.19 C-444.02 904.2 -443.61 905.21 -443.19 906.25 C-441.16 907.22 -441.16 907.22 -439.19 907.25 C-439.52 907.58 -439.85 907.91 -440.19 908.25 C-440.35 910.75 -440.35 910.75 -440.19 913.25 C-438.63 914.81 -437.1 914.42 -434.94 914.44 C-431.26 914.41 -428.5 913.96 -425.19 912.25 C-425.01 907.75 -425.01 904.26 -427.19 900.25 C-428.18 899.59 -429.17 898.93 -430.19 898.25 C-430.53 896.25 -430.86 894.25 -431.19 892.25 C-434.7 882 -442.04 866.82 -452.06 861.81 C-452.76 861.63 -453.47 861.44 -454.19 861.25 C-454.19 860.59 -454.19 859.93 -454.19 859.25 C-454.83 859.15 -455.47 859.04 -456.12 858.94 C-456.81 858.71 -457.49 858.48 -458.19 858.25 C-458.68 856.76 -458.68 856.76 -459.19 855.25 C-459.85 855.25 -460.51 855.25 -461.19 855.25 C-461.31 854.66 -461.42 854.07 -461.55 853.46 C-462.21 851.16 -463.07 849.76 -464.44 847.81 C-477.76 827.01 -478.04 799.29 -478.75 775.44 C-478.79 774.05 -478.84 772.67 -478.88 771.28 C-478.99 767.94 -479.09 764.59 -479.19 761.25 C-480.18 761.58 -481.17 761.91 -482.19 762.25 C-489.77 762.89 -494.69 761.03 -500.62 756.31 C-502.42 753.95 -502.86 752.18 -503.19 749.25 C-502.53 749.25 -501.87 749.25 -501.19 749.25 C-501.11 749.99 -501.02 750.74 -500.94 751.5 C-500.02 754.87 -498.89 756.08 -496.19 758.25 C-491.83 760.74 -487.08 760.98 -482.19 760.25 C-479.09 758.44 -477.6 757.38 -476.38 754 C-476.28 753.13 -476.28 753.13 -476.19 752.25 C-475.53 752.25 -474.87 752.25 -474.19 752.25 C-472.48 750.56 -472.48 750.56 -470.75 748.44 C-467.34 744.4 -467.34 744.4 -465.46 742.61 C-463.96 741.32 -463.96 741.32 -464.19 739.25 C-463.53 739.25 -462.87 739.25 -462.19 739.25 C-459.91 736.43 -459.91 736.43 -460.19 733.25 C-459.53 733.25 -458.87 733.25 -458.19 733.25 C-453.69 724.76 -450.36 715.9 -447.38 706.78 C-447.07 705.82 -446.76 704.87 -446.44 703.89 C-445.82 701.98 -445.2 700.06 -444.6 698.15 C-444.17 696.83 -444.17 696.83 -443.74 695.48 C-443.36 694.3 -443.36 694.3 -442.98 693.08 C-442.19 691.25 -442.19 691.25 -440.19 690.25 C-439.69 691.74 -439.69 691.74 -439.19 693.25 C-419.48 673.06 -419.48 673.06 -408.19 649.25 C-407.53 649.25 -406.87 649.25 -406.19 649.25 C-405.88 648.62 -405.58 647.99 -405.27 647.34 C-403.3 643.32 -401.34 639.37 -398.88 635.62 C-391.66 624.35 -381.37 607.86 -383.19 594.25 C-384.04 591.18 -385.03 588.21 -386.19 585.25 C-383.24 586.72 -383.04 588.78 -381.88 591.81 C-379.75 597.06 -377.47 601.63 -374.19 606.25 C-373.53 606.25 -372.87 606.25 -372.19 606.25 C-371.94 606.98 -371.69 607.71 -371.43 608.46 C-370.08 611.5 -368.51 613.39 -366.25 615.81 C-364.22 618 -362.3 620.1 -360.56 622.53 C-360.11 623.1 -359.65 623.66 -359.19 624.25 C-358.53 624.25 -357.87 624.25 -357.19 624.25 C-357.19 624.91 -357.19 625.57 -357.19 626.25 C-356.53 626.25 -355.87 626.25 -355.19 626.25 C-355.19 626.91 -355.19 627.57 -355.19 628.25 C-354.53 628.25 -353.87 628.25 -353.19 628.25 C-353.4 627.49 -353.62 626.73 -353.84 625.95 C-354.12 624.96 -354.4 623.96 -354.69 622.94 C-355.11 621.46 -355.11 621.46 -355.53 619.95 C-356.19 617.25 -356.19 617.25 -356.19 614.25 C-355.86 614.86 -355.53 615.46 -355.19 616.09 C-351.28 622.97 -346.64 628.54 -341.19 634.25 C-340.63 634.88 -340.08 635.51 -339.51 636.15 C-334.32 641.84 -327.83 645.47 -321.19 649.25 C-320.36 649.73 -319.54 650.2 -318.69 650.69 C-308.84 656 -297.36 659.65 -286.19 660.25 C-286.52 658.93 -286.85 657.61 -287.19 656.25 C-280.94 659.95 -274.8 663.76 -268.73 667.73 C-266.27 669.2 -263.87 670.27 -261.19 671.25 C-261.19 671.91 -261.19 672.57 -261.19 673.25 C-259.21 673.91 -257.23 674.57 -255.19 675.25 C-255.65 670.6 -257.08 667.3 -259.21 663.25 C-260.62 660.35 -261.37 657.36 -262.19 654.25 C-262.62 652.93 -263.05 651.62 -263.5 650.31 C-264.89 646.18 -266.2 642.03 -267.5 637.88 C-267.71 637.2 -267.92 636.53 -268.14 635.83 C-269.33 632.02 -270.51 628.2 -271.67 624.38 C-274.69 614.35 -274.69 614.35 -278.69 604.69 C-288.55 584.08 -291.35 562.73 -287.19 540.25 C-286.12 537.3 -286.12 537.3 -285.19 535.25 C-285.26 535.94 -285.33 536.63 -285.41 537.35 C-287.63 560.77 -284.23 580.17 -274 601.25 C-271.48 606.48 -269.61 611.62 -268.19 617.25 C-266.52 623.17 -264.6 628.84 -262.23 634.52 C-260.6 638.81 -259.42 643.23 -258.21 647.66 C-257.88 648.51 -257.54 649.37 -257.19 650.25 C-256.2 650.58 -255.21 650.91 -254.19 651.25 C-254.29 652.32 -254.39 653.39 -254.5 654.5 C-254.55 660.59 -251.72 665.83 -249.19 671.25 C-248.53 671.25 -247.87 671.25 -247.19 671.25 C-246.75 686.83 -248.02 701.83 -250.19 717.25 C-249.53 717.25 -248.87 717.25 -248.19 717.25 C-248.19 716.59 -248.19 715.93 -248.19 715.25 C-247.53 715.25 -246.87 715.25 -246.19 715.25 C-245.77 714.4 -245.36 713.56 -244.94 712.69 C-243.13 709.13 -241.19 705.7 -239.19 702.25 C-238.36 705.15 -238.06 707.73 -238.05 710.74 C-238.05 711.61 -238.05 712.47 -238.05 713.36 C-238.05 714.27 -238.06 715.18 -238.06 716.12 C-238.07 717.06 -238.07 718 -238.07 718.97 C-238.15 728.91 -238.34 738.72 -240.78 748.41 C-241.29 750.71 -241.34 752.9 -241.19 755.25 C-237.7 752.23 -236.4 749.68 -235.19 745.25 C-234.53 745.25 -233.87 745.25 -233.19 745.25 C-237.59 756.77 -242.98 768.15 -249.97 778.32 C-251.36 780.15 -251.36 780.15 -251.19 782.25 C-246.19 781.1 -242.46 779.4 -238.18 776.57 C-235.89 775.05 -233.55 773.65 -231.19 772.25 C-231.33 773.19 -231.48 774.13 -231.62 775.1 C-231.81 776.35 -232 777.59 -232.19 778.88 C-232.37 780.1 -232.56 781.33 -232.75 782.6 C-233.14 785.87 -233.27 788.97 -233.19 792.25 C-228.24 789.49 -224.85 787.43 -222.19 782.25 C-221.2 781.59 -220.21 780.93 -219.19 780.25 C-218.46 777.69 -218.46 777.69 -218.19 775.25 C-217.86 775.25 -217.53 775.25 -217.19 775.25 C-216.93 776.99 -216.93 776.99 -216.67 778.77 C-214.57 795.01 -214.57 795.01 -207.19 809.25 C-205.87 806.94 -204.55 804.63 -203.19 802.25 C-202.53 802.25 -201.87 802.25 -201.19 802.25 C-202.14 803.73 -203.1 805.21 -204.06 806.69 C-204.6 807.51 -205.13 808.33 -205.68 809.18 C-207.19 811.25 -207.19 811.25 -209.19 812.25 C-209.31 811.7 -209.44 811.15 -209.57 810.59 C-210.27 807.95 -211.17 805.44 -212.12 802.88 C-212.48 801.9 -212.84 800.92 -213.21 799.92 C-213.53 799.04 -213.85 798.16 -214.19 797.25 C-216.11 792.01 -217.17 786.72 -218.19 781.25 C-218.85 782.57 -219.51 783.89 -220.19 785.25 C-220.85 785.25 -221.51 785.25 -222.19 785.25 C-226.13 789.8 -225.46 794.59 -225.19 800.25 C-224.81 804.51 -224.29 808.75 -223.75 813 C-220.45 839.39 -216.6 871.5 -225.19 897.25 C-227.79 917.6 -229.29 939.39 -223.19 959.25 C-222.67 961.11 -222.67 961.11 -222.14 963 C-219.32 972.41 -216.89 977.14 -208.18 981.89 C-201.5 985.33 -196.74 987.4 -189.25 987.09 C-187.19 987.25 -187.19 987.25 -185.19 989.25 C-181.94 989.7 -178.65 989.57 -175.38 989.56 C-174.02 989.59 -174.02 989.59 -172.64 989.61 C-165.89 989.64 -165.89 989.64 -160.19 986.25 C-159.6 981.72 -160.15 978.33 -162.19 974.25 C-163.31 972.89 -163.31 972.89 -166.25 973.19 C-167.7 973.22 -167.7 973.22 -169.19 973.25 C-169.19 972.26 -169.19 971.27 -169.19 970.25 C-167.21 970.25 -165.23 970.25 -163.19 970.25 C-163.85 965.18 -165.29 960.66 -167 955.88 C-167.25 955.16 -167.5 954.44 -167.75 953.7 C-169.54 948.67 -171.72 943.99 -174.19 939.25 C-173.53 939.25 -172.87 939.25 -172.19 939.25 C-171.9 939.99 -171.61 940.74 -171.31 941.5 C-170.36 943.82 -169.34 946.03 -168.19 948.25 C-167.53 948.25 -166.87 948.25 -166.19 948.25 C-166.11 949.05 -166.02 949.86 -165.94 950.69 C-165.17 954.34 -163.94 957.18 -162.37 960.53 C-160.41 965.05 -158.9 969.74 -157.34 974.41 C-156.51 977.37 -156.51 977.37 -154.19 978.25 C-154.19 979.24 -154.19 980.23 -154.19 981.25 C-150.92 981.28 -147.65 981.3 -144.38 981.31 C-143.45 981.32 -142.52 981.33 -141.56 981.34 C-140.67 981.34 -139.78 981.34 -138.86 981.35 C-138.03 981.35 -137.21 981.36 -136.36 981.36 C-134.01 981.34 -134.01 981.34 -131.19 980.25 C-129.75 977.38 -130.19 975.07 -130.38 971.88 C-130.43 970.73 -130.49 969.59 -130.54 968.41 C-131.28 964.78 -132.36 963.55 -135.19 961.25 C-134.53 960.92 -133.87 960.59 -133.19 960.25 C-135.35 950.72 -139.04 941.54 -144.19 933.25 C-143.53 933.25 -142.87 933.25 -142.19 933.25 C-141.86 934.57 -141.53 935.89 -141.19 937.25 C-140.53 937.25 -139.87 937.25 -139.19 937.25 C-138.92 937.95 -138.65 938.65 -138.38 939.38 C-137.23 942.25 -137.23 942.25 -135.81 944.94 C-133.68 949.28 -131.95 953.75 -130.19 958.25 C-129.44 960.13 -128.69 962 -127.94 963.88 C-127.35 965.33 -126.77 966.79 -126.19 968.25 C-125.2 968.25 -124.21 968.25 -123.19 968.25 C-122.64 952.25 -126.76 939.63 -137.19 927.25 C-140.04 924.71 -143.09 922.49 -146.19 920.25 C-154.39 914.21 -158.19 907.44 -162.19 898.25 C-162.69 897.14 -163.2 896.03 -163.72 894.89 C-165.42 890.67 -166.63 886.47 -167.75 882.06 C-168.06 880.93 -168.06 880.93 -168.38 879.78 C-172.75 862.66 -172.55 844.54 -172.81 827 C-172.85 824.87 -172.89 822.75 -172.93 820.62 C-173.02 815.5 -173.11 810.38 -173.19 805.25 C-176.16 806.37 -178.52 807.47 -181.19 809.25 C-181.19 809.91 -181.19 810.57 -181.19 811.25 C-182.12 811.44 -182.12 811.44 -183.06 811.62 C-185.38 812.12 -185.38 812.12 -187.19 814.25 C-189.45 813.9 -191.14 813.27 -193.19 812.25 C-193.99 809.73 -194.68 807.25 -195.31 804.69 C-195.49 803.98 -195.68 803.27 -195.86 802.53 C-196.31 800.77 -196.75 799.01 -197.19 797.25 C-198.51 798.24 -199.83 799.23 -201.19 800.25 C-200.69 799.32 -200.2 798.39 -199.69 797.44 C-197.97 794.38 -197.97 794.38 -198.19 791.25 C-197.53 791.58 -196.87 791.91 -196.19 792.25 C-195.47 795.33 -194.93 798.4 -194.42 801.53 C-193.68 805.69 -192.61 808.77 -190.19 812.25 C-186.32 811.68 -184.04 809.86 -181.19 807.25 C-181.19 806.59 -181.19 805.93 -181.19 805.25 C-180.2 805.25 -179.21 805.25 -178.19 805.25 C-178.11 804.63 -178.02 804.01 -177.94 803.38 C-177.19 801.25 -177.19 801.25 -175.32 800.33 C-166.54 795.89 -161.88 781.71 -158.81 773.06 C-155.47 761.4 -156.34 749.64 -160.19 738.25 C-166.22 720.37 -165.67 703.15 -160.19 685.25 C-157.25 674.45 -156.53 663.33 -158.19 652.25 C-157.53 652.58 -156.87 652.91 -156.19 653.25 C-155.59 655.2 -155.59 655.2 -155.12 657.72 C-154.94 658.62 -154.77 659.52 -154.59 660.45 C-154.42 661.39 -154.24 662.34 -154.06 663.31 C-153.79 664.74 -153.79 664.74 -153.51 666.19 C-153.06 668.54 -152.62 670.9 -152.19 673.25 C-148.24 673.25 -147 671.91 -144.19 669.25 C-144.19 668.26 -144.19 667.27 -144.19 666.25 C-143.53 666.25 -142.87 666.25 -142.19 666.25 C-142.52 667.34 -142.85 668.44 -143.19 669.56 C-145.71 680.03 -145.09 696.45 -140.19 706.25 C-135.91 704.73 -134.5 702 -132.25 698.19 C-131.9 697.6 -131.56 697.02 -131.2 696.42 C-130.19 694.7 -129.19 692.98 -128.19 691.25 C-127.66 690.38 -127.14 689.5 -126.59 688.6 C-124.18 684.48 -122.56 681.11 -122.19 676.25 C-121.53 676.25 -120.87 676.25 -120.19 676.25 C-120.33 676.85 -120.48 677.46 -120.62 678.08 C-120.81 678.88 -121 679.68 -121.19 680.5 C-121.37 681.29 -121.56 682.08 -121.75 682.89 C-122.31 685.51 -122.31 685.51 -122.19 689.25 C-118.75 688.01 -115.94 686.69 -113.19 684.25 C-113.19 683.59 -113.19 682.93 -113.19 682.25 C-112.2 681.92 -111.21 681.59 -110.19 681.25 C-107.54 678.92 -106.32 677.63 -105.19 674.25 C-104.53 673.92 -103.87 673.59 -103.19 673.25 C-98.29 665.54 -92.19 655.69 -93.19 646.25 C-92.53 646.58 -91.87 646.91 -91.19 647.25 C-91.58 655.08 -94 661.14 -97.19 668.25 C-97.86 669.92 -98.52 671.58 -99.19 673.25 C-99.52 673.91 -99.85 674.57 -100.19 675.25 C-94.17 673.76 -94.17 673.76 -89.19 670.25 C-89.19 669.59 -89.19 668.93 -89.19 668.25 C-88.43 668.02 -87.67 667.79 -86.88 667.55 C-83.63 665.98 -82.8 664.63 -81.06 661.5 C-80.56 660.61 -80.06 659.71 -79.55 658.79 C-79.1 657.95 -78.65 657.11 -78.19 656.25 C-77.57 655.14 -76.95 654.02 -76.31 652.88 C-74.92 650.11 -74.92 650.11 -75.19 646.25 C-74.53 646.25 -73.87 646.25 -73.19 646.25 C-73.2 647.4 -73.21 648.54 -73.22 649.72 C-73.23 651.25 -73.24 652.78 -73.25 654.31 C-73.26 655.06 -73.27 655.82 -73.28 656.59 C-73.3 661.26 -72.96 665.65 -72.19 670.25 C-69.39 666.86 -66.94 663.42 -64.62 659.69 C-62.98 657.05 -61.37 654.49 -59.47 652.04 C-57.99 650.35 -57.99 650.35 -58.19 648.25 C-57.53 648.25 -56.87 648.25 -56.19 648.25 C-46.79 635.54 -42.01 619.63 -39.19 604.25 C-38.19 605.25 -38.19 605.25 -38.09 607.54 C-38.11 608.91 -38.11 608.91 -38.12 610.31 C-38.14 611.69 -38.14 611.69 -38.15 613.1 C-38.17 614.16 -38.17 614.16 -38.19 615.25 C-35.05 614.59 -35.05 614.59 -34.05 612.1 C-31.8 605.78 -30.48 599.96 -30.19 593.25 C-27.92 596.9 -27.8 600.26 -27.56 604.5 C-27.49 605.76 -27.41 607.03 -27.34 608.33 C-27.29 609.29 -27.24 610.26 -27.19 611.25 C-26.53 611.25 -25.87 611.25 -25.19 611.25 C-23.59 608.86 -22.12 606.48 -20.69 604 C-20.28 603.32 -19.88 602.64 -19.46 601.93 C-12.98 590.91 -11.87 581.97 -12 569.12 C-12 567.89 -12 566.65 -12 565.38 C-11.32 555.81 -11.32 555.81 -14.19 547.25 C-14.23 544.92 -14.23 542.58 -14.19 540.25 C-13.88 540.93 -13.58 541.6 -13.27 542.3 C-10.89 547.36 -9.07 551.18 -4.19 554.25 C-4.33 553.03 -4.48 551.81 -4.62 550.55 C-6.92 529.75 -7.53 508.9 -7.75 488 C-8 467 -8 467 -8.65 446.02 C-8.69 445.06 -8.73 444.1 -8.77 443.11 C-8.52 432.89 -8.52 432.89 -12.19 424.25 C-12.68 425.3 -13.18 426.35 -13.69 427.43 C-17.2 434.73 -20.6 441.48 -25.94 447.65 C-27.39 449.17 -27.39 449.17 -27.19 451.25 C-28.18 451.58 -29.17 451.91 -30.19 452.25 C-31.71 454.83 -31.71 454.83 -33.06 457.94 C-34.79 461.57 -36.37 464.8 -39.06 467.81 C-41.52 470.09 -41.52 470.09 -41.19 473.25 C-41.85 473.25 -42.51 473.25 -43.19 473.25 C-43.19 473.91 -43.19 474.57 -43.19 475.25 C-43.85 475.25 -44.51 475.25 -45.19 475.25 C-47.72 477.65 -50.1 480.16 -52.5 482.69 C-54.62 484.71 -56.65 486.4 -59 488.12 C-64.49 492.17 -69.75 496.33 -74 501.69 C-79.78 508.67 -88.8 514.8 -97.19 518.25 C-98.51 518.25 -99.83 518.25 -101.19 518.25 C-100.69 517.63 -100.2 517.01 -99.69 516.38 C-98 514.41 -98 514.41 -98.19 512.25 C-97.53 512.25 -96.87 512.25 -96.19 512.25 C-90.33 504.2 -88.57 492.03 -88.19 482.25 C-88.15 481.42 -88.11 480.59 -88.07 479.73 C-87.71 466.2 -93.38 455.69 -99.37 443.92 C-101.15 440.42 -102.8 436.93 -104.19 433.25 C-104.85 433.58 -105.51 433.91 -106.19 434.25 C-106.8 436.27 -106.8 436.27 -107.19 438.62 C-107.79 441.93 -108.26 443.36 -110.19 446.25 C-110.19 447.24 -110.19 448.23 -110.19 449.25 C-110.85 449.25 -111.51 449.25 -112.19 449.25 C-112.19 449.91 -112.19 450.57 -112.19 451.25 C-112.85 451.25 -113.51 451.25 -114.19 451.25 C-114.19 452.24 -114.19 453.23 -114.19 454.25 C-114.85 454.25 -115.51 454.25 -116.19 454.25 C-117.93 456.7 -119.58 459.15 -121.19 461.69 C-122.08 463.08 -122.97 464.48 -123.88 465.87 C-124.27 466.49 -124.67 467.12 -125.07 467.76 C-126.19 469.25 -126.19 469.25 -128.19 470.25 C-127.86 469.01 -127.53 467.77 -127.19 466.5 C-125.3 457.69 -125.83 449.63 -127.94 440.94 C-128.09 440.28 -128.25 439.62 -128.41 438.95 C-129.67 434.17 -131.62 430.42 -134.19 426.25 C-134.85 426.58 -135.51 426.91 -136.19 427.25 C-135.86 428.4 -135.53 429.56 -135.19 430.75 C-133.46 437.74 -134.1 443.33 -136.19 450.25 C-136.46 448.41 -136.46 448.41 -136.74 446.52 C-136.99 444.89 -137.25 443.26 -137.5 441.62 C-137.62 440.82 -137.74 440.01 -137.86 439.18 C-138.97 432.16 -140.9 427.19 -146.19 422.25 C-146.85 421.26 -147.51 420.27 -148.19 419.25 C-148.85 419.25 -149.51 419.25 -150.19 419.25 C-150.59 417.89 -150.59 417.89 -151 416.5 C-151.97 413.33 -151.97 413.33 -153.66 411.38 C-155.4 408.96 -156.08 406.86 -156.88 404 C-157.13 403.11 -157.38 402.22 -157.64 401.3 C-157.91 400.28 -157.91 400.28 -158.19 399.25 C-160.77 401.83 -160.5 403 -160.64 406.6 C-160.68 407.68 -160.72 408.76 -160.77 409.87 C-160.8 411.01 -160.84 412.14 -160.88 413.31 C-160.92 414.42 -160.97 415.53 -161.02 416.67 C-161.25 422.99 -161.07 428.98 -160.19 435.25 C-163.93 434 -164.31 432.85 -166.25 429.5 C-167.01 428.21 -167.01 428.21 -167.79 426.89 C-170.29 422.17 -171.77 417.4 -173.19 412.25 C-173.58 410.83 -173.98 409.4 -174.37 407.98 C-175 405.72 -175.62 403.45 -176.24 401.19 C-176.55 400.06 -176.55 400.06 -176.87 398.92 C-177.08 398.16 -177.29 397.39 -177.51 396.61 C-177.97 395 -178.47 393.4 -178.99 391.81 C-180.94 385.81 -181.75 380.29 -181.94 374 C-181.97 373.09 -182.01 372.19 -182.05 371.26 C-182.29 363.86 -181.99 356.61 -181.19 349.25 C-181.91 349.97 -182.63 350.69 -183.38 351.44 C-184.3 352.37 -185.23 353.29 -186.19 354.25 C-187.3 355.46 -187.3 355.46 -188.44 356.69 C-193.42 361.33 -199.31 364.84 -205.19 368.25 C-204.86 367.69 -204.54 367.14 -204.2 366.56 C-203.76 365.8 -203.33 365.04 -202.88 364.25 C-202.45 363.51 -202.02 362.76 -201.57 362 C-198.51 355.92 -196.69 349.7 -195.25 343.06 C-191.17 325.05 -191.17 325.05 -187.57 318.14 C-185.9 315.18 -185.9 315.18 -186.19 311.25 C-189.79 311.8 -192.12 312.62 -195.06 314.75 C-203.59 320.65 -212.56 325.95 -221.69 330.88 C-222.58 331.36 -223.48 331.85 -224.41 332.35 C-228.04 333.53 -230.46 333 -234.19 332.25 C-235.92 331.96 -235.92 331.96 -237.7 331.67 C-246.3 330.07 -254.09 327.6 -262.19 324.25 C-265.12 323.09 -268.06 321.95 -271 320.81 C-271.77 320.51 -272.54 320.22 -273.33 319.91 C-275.62 319.02 -277.9 318.13 -280.19 317.25 C-280.86 316.99 -281.53 316.73 -282.21 316.46 C-292.95 312.32 -303.82 308.64 -314.75 305.05 C-317.9 304.02 -321.03 302.95 -324.17 301.89 C-327.79 300.74 -331.47 300 -335.19 299.25 C-337.01 298.88 -337.01 298.88 -338.88 298.5 C-349.24 296.4 -358.8 295.07 -369.38 295.06 C-370.54 295.05 -371.71 295.04 -372.92 295.03 C-380.23 295.01 -387.05 295.65 -394.19 297.25 Z M-122.19 309.25 C-122.19 309.91 -122.19 310.57 -122.19 311.25 C-121.53 310.92 -120.87 310.59 -120.19 310.25 C-120.85 309.92 -121.51 309.59 -122.19 309.25 Z M-32.19 313.25 C-32.19 316.25 -32.19 316.25 -32.19 316.25 Z M-38.81 319 C-42.13 321.56 -45.39 323.48 -49.18 325.24 C-51.97 326.64 -54.49 328.4 -57.04 330.2 C-64.66 333.92 -76.68 333.52 -84.66 331.27 C-87.88 330.02 -91.03 328.66 -94.19 327.25 C-96.24 326.44 -98.3 325.65 -100.38 324.88 C-101.26 324.54 -102.14 324.2 -103.04 323.85 C-105.21 322.98 -105.21 322.98 -107.19 324.25 C-97.63 336.5 -89.29 344.18 -73.19 346.25 C-62.93 346.61 -53.03 342.82 -45.19 336.31 C-41.73 332.75 -39.54 328.59 -37.19 324.25 C-36.41 323.07 -35.62 321.9 -34.81 320.75 C-33.01 318.47 -33.01 318.47 -33.19 316.25 C-35.9 316.25 -36.72 317.31 -38.81 319 Z M-79.19 328.25 C-73.08 328.35 -67.21 328.32 -61.19 327.25 C-61.19 326.92 -61.19 326.59 -61.19 326.25 C-63.44 326 -65.69 325.78 -67.94 325.56 C-69.19 325.43 -70.44 325.31 -71.73 325.18 C-75.43 325.26 -76.6 325.71 -79.19 328.25 Z M-381.19 606.25 C-381.43 607.27 -381.43 607.27 -381.67 608.3 C-383.15 614.21 -385.02 619.41 -387.91 624.77 C-389.29 627.36 -389.29 627.36 -390.62 630.62 C-392.19 634.25 -392.19 634.25 -393.98 637.55 C-398.73 646.49 -399.84 653.67 -400.03 663.72 C-400.22 672.69 -402.83 680.78 -406.34 688.95 C-407.61 692.38 -407.92 695.61 -408.19 699.25 C-407.53 699.25 -406.87 699.25 -406.19 699.25 C-405.24 697.86 -404.3 696.47 -403.39 695.05 C-402.07 693.08 -400.64 691.26 -399.12 689.44 C-398.64 688.85 -398.15 688.27 -397.65 687.67 C-396.19 686.25 -396.19 686.25 -393.19 685.25 C-393.71 685.99 -393.71 685.99 -394.25 686.75 C-394.7 687.43 -395.16 688.11 -395.62 688.81 C-396.08 689.47 -396.53 690.14 -397 690.82 C-399.97 696.89 -399.12 702.03 -397.25 708.19 C-397.05 708.87 -396.86 709.56 -396.66 710.26 C-396.18 711.93 -395.69 713.59 -395.19 715.25 C-394.53 715.25 -393.87 715.25 -393.19 715.25 C-390.59 708.44 -390.59 708.44 -390.19 701.25 C-388.19 702.25 -388.19 702.25 -387.22 704.98 C-386.9 706.12 -386.58 707.26 -386.25 708.44 C-384.96 713.01 -383.42 717.05 -381.19 721.25 C-380.86 721.25 -380.53 721.25 -380.19 721.25 C-379.86 718.61 -379.53 715.97 -379.19 713.25 C-376.38 714.65 -375.83 716.49 -374.38 719.25 C-373.85 720.24 -373.33 721.22 -372.79 722.24 C-372.26 723.23 -371.73 724.23 -371.19 725.25 C-370.23 726.98 -369.28 728.71 -368.31 730.44 C-367.9 731.17 -367.49 731.91 -367.07 732.67 C-366.78 733.19 -366.49 733.71 -366.19 734.25 C-363.92 733.4 -363.92 733.4 -363.19 730.75 C-362.19 728.25 -362.19 728.25 -360.19 727.25 C-359.9 728.03 -359.61 728.82 -359.31 729.62 C-358.34 732.35 -358.34 732.35 -356.19 734.25 C-353.44 731.88 -352.5 729.59 -351.19 726.25 C-350.53 725.92 -349.87 725.59 -349.19 725.25 C-349.11 725.87 -349.02 726.49 -348.94 727.12 C-348.37 729.43 -348.37 729.43 -346.12 730.5 C-345.17 730.87 -345.17 730.87 -344.19 731.25 C-339.07 726.47 -337.88 722.44 -336.81 715.62 C-335.76 709.27 -334.54 702.97 -333.12 696.69 C-332.96 695.96 -332.8 695.24 -332.63 694.49 C-331.55 689.73 -330.39 684.99 -329.19 680.25 C-327.87 681.24 -326.55 682.23 -325.19 683.25 C-324.53 682.22 -324.53 682.22 -323.87 681.16 C-320.42 675.72 -316.92 670.33 -313.25 665.03 C-312.02 663.31 -312.02 663.31 -312.19 661.25 C-313.26 660.72 -314.34 660.19 -315.44 659.64 C-316.88 658.93 -318.31 658.21 -319.75 657.5 C-320.45 657.15 -321.16 656.8 -321.88 656.45 C-329.44 652.69 -336.12 649.24 -341.56 642.56 C-343.27 640.99 -343.27 640.99 -346.38 640.5 C-351.44 639.17 -354.51 635.82 -358.19 632.25 C-359.13 631.38 -360.07 630.51 -361.05 629.61 C-367.21 623.82 -372.12 617.92 -376.42 610.62 C-377.3 609.14 -378.24 607.69 -379.19 606.25 C-379.85 606.25 -380.51 606.25 -381.19 606.25 Z M-37.19 623.25 C-37.55 623.98 -37.91 624.7 -38.29 625.45 C-39.36 627.59 -40.43 629.72 -41.5 631.84 C-42.53 633.93 -43.54 636.03 -44.5 638.16 C-47.76 645.22 -51.91 651.05 -56.65 657.17 C-63.52 666.14 -68.86 675.8 -73.19 686.25 C-75.65 682.55 -75.55 680.29 -75.75 675.88 C-75.96 671.56 -76.2 667.46 -77.19 663.25 C-77.66 663.89 -78.14 664.53 -78.62 665.19 C-79.47 666.2 -80.32 667.21 -81.19 668.25 C-81.75 668.94 -82.31 669.63 -82.89 670.34 C-87.48 675.47 -91.77 678.21 -98.06 680.69 C-106.19 683.93 -114.1 688.2 -118.27 696.36 C-118.88 698.71 -119.08 700.83 -119.19 703.25 C-119.27 704.39 -119.35 705.52 -119.43 706.69 C-119.6 709.27 -119.77 711.86 -119.91 714.44 C-120.23 718.89 -120.86 723.21 -121.59 727.61 C-122.05 730.42 -122.46 733.23 -122.84 736.05 C-124.18 745.81 -125.84 754.95 -129.19 764.25 C-126.3 762.96 -124.32 761.59 -122.19 759.25 C-122.25 759.84 -122.31 760.44 -122.37 761.05 C-123.02 767.45 -123.62 773.85 -124.19 780.25 C-115.99 773.76 -111.22 765.89 -107.19 756.25 C-107.19 754.93 -107.19 753.61 -107.19 752.25 C-106.53 752.25 -105.87 752.25 -105.19 752.25 C-105.35 753.08 -105.52 753.9 -105.69 754.75 C-107.29 765.99 -103.83 772.74 -98.19 782.25 C-95.9 780.15 -94.51 778.23 -93.19 775.44 C-92.01 772.96 -90.81 770.54 -89.5 768.12 C-88.13 765.13 -87.58 762.51 -87.19 759.25 C-86.53 759.58 -85.87 759.91 -85.19 760.25 C-84.5 763.89 -83.98 767.52 -83.51 771.2 C-82.73 776.56 -81.59 781.89 -78.19 786.25 C-74.56 787.39 -74.56 787.39 -71.19 787.25 C-63.94 778.78 -60.18 769.14 -58.19 758.25 C-56.61 761.26 -55.75 763.89 -55.19 767.25 C-49.14 761.2 -50.14 749.01 -50.12 741.06 C-50.14 739.46 -50.16 737.85 -50.19 736.25 C-47.55 738.89 -47.11 741.31 -46.06 744.88 C-45.71 746.06 -45.36 747.25 -44.99 748.48 C-44.59 749.85 -44.59 749.85 -44.19 751.25 C-43.86 751.25 -43.53 751.25 -43.19 751.25 C-43.05 744.99 -43.49 739.22 -44.56 733.06 C-44.84 731.38 -45.11 729.69 -45.39 728.01 C-45.85 725.23 -46.33 722.45 -46.83 719.68 C-49.97 700.96 -49.37 681.38 -42.12 663.63 C-40.86 660.41 -40.27 657.14 -39.69 653.75 C-39.56 653.03 -39.43 652.31 -39.3 651.56 C-37.74 642.19 -36.96 632.72 -36.19 623.25 C-36.52 623.25 -36.85 623.25 -37.19 623.25 Z M-409.19 700.25 C-408.19 702.25 -408.19 702.25 -408.19 702.25 Z M-389.19 711.25 C-392.31 717.87 -392.62 723.07 -391.19 730.25 C-390.87 731.02 -390.56 731.79 -390.23 732.59 C-388.89 736.02 -388.3 739.51 -387.69 743.12 C-387 747.1 -386.28 750.94 -385.16 754.82 C-383.22 761.67 -382.92 768.63 -382.54 775.7 C-382.42 777.76 -382.3 779.83 -382.18 781.9 C-382 785.12 -381.82 788.33 -381.64 791.54 C-380.33 815.43 -378.4 840.6 -370.19 863.25 C-369.85 864.18 -369.52 865.11 -369.17 866.07 C-365.72 874.22 -360.28 877.15 -352.33 880.43 C-345.08 883.05 -337.84 884.5 -330.19 885.25 C-329.52 885.33 -328.85 885.41 -328.17 885.49 C-323.34 886.01 -318.97 886.21 -314.19 885.25 C-310.83 882.41 -309.12 879.16 -307.19 875.25 C-303.47 869.32 -298.62 867.37 -292.19 865.25 C-294.84 861.03 -297.52 857.68 -301.19 854.25 C-301.87 853.61 -302.56 852.96 -303.26 852.3 C-307.69 848.24 -311.92 845.11 -317.19 842.25 C-317.52 841.59 -317.85 840.93 -318.19 840.25 C-296.09 850.44 -296.09 850.44 -292.19 858.25 C-291.53 858.25 -290.87 858.25 -290.19 858.25 C-290.19 858.91 -290.19 859.57 -290.19 860.25 C-289.53 860.25 -288.87 860.25 -288.19 860.25 C-288.19 861.24 -288.19 862.23 -288.19 863.25 C-287.53 863.25 -286.87 863.25 -286.19 863.25 C-285.86 864.24 -285.53 865.23 -285.19 866.25 C-284.47 865.51 -283.74 864.76 -283 864 C-280.19 861.25 -280.19 861.25 -277.38 859.25 C-274.98 857.48 -274.98 857.48 -274.82 854.96 C-275.55 849.52 -279.87 845.44 -283.19 841.25 C-283.71 840.57 -284.23 839.89 -284.77 839.19 C-289.52 833.31 -295.24 829.23 -301.88 825.69 C-311.28 820.6 -316.29 811.7 -320.69 802.31 C-321.08 801.49 -321.47 800.66 -321.87 799.81 C-325.39 792.14 -327.87 784.35 -330.19 776.25 C-330.7 774.75 -331.22 773.25 -331.75 771.75 C-335.94 759.22 -338.2 746.28 -340.19 733.25 C-341.13 733.44 -342.07 733.64 -343.05 733.84 C-346.19 734.25 -346.19 734.25 -348.44 732.81 C-349.01 732.3 -349.59 731.78 -350.19 731.25 C-350.85 731.25 -351.51 731.25 -352.19 731.25 C-352.46 732.01 -352.72 732.78 -353 733.56 C-354.15 736.15 -354.95 737.55 -357.19 739.25 C-358.18 739.25 -359.17 739.25 -360.19 739.25 C-360.19 736.94 -360.19 734.63 -360.19 732.25 C-360.97 733.08 -361.75 733.9 -362.56 734.75 C-365.19 737.25 -365.19 737.25 -367.19 737.25 C-368.33 735.78 -368.33 735.78 -369.57 733.75 C-370.02 733.03 -370.46 732.31 -370.92 731.56 C-371.38 730.8 -371.84 730.04 -372.31 729.25 C-372.78 728.49 -373.25 727.72 -373.73 726.94 C-374.89 725.05 -376.04 723.15 -377.19 721.25 C-379.14 723.2 -380.04 724.78 -381.19 727.25 C-386.56 716.88 -386.56 716.88 -388.19 711.25 C-388.52 711.25 -388.85 711.25 -389.19 711.25 Z M-109.19 769.25 C-110.42 775.93 -109.71 781.32 -108.38 787.94 C-102.64 818.98 -100.73 853.44 -108.73 884.36 C-113.19 902.94 -104.62 920.8 -95.19 936.25 C-91.33 941.86 -87.18 944.22 -81.12 946.94 C-80.27 947.33 -79.42 947.71 -78.55 948.11 C-69.23 952.26 -60.82 954.45 -50.62 954.62 C-49.93 954.64 -49.24 954.65 -48.53 954.67 C-45.64 954.64 -43.65 954.56 -41.22 952.91 C-39.92 951.15 -39.92 951.15 -40.19 948.25 C-39.53 948.25 -38.87 948.25 -38.19 948.25 C-36.37 945.59 -34.77 942.82 -33.14 940.05 C-30.65 936.48 -28.06 933.86 -23.88 932.5 C-23.32 932.42 -22.76 932.34 -22.19 932.25 C-23.31 926.84 -25.24 923.47 -28.68 919.16 C-30.19 917.25 -30.19 917.25 -32.19 914.06 C-34.49 910.82 -37.08 908.72 -40.19 906.25 C-41.9 904.62 -43.54 902.94 -45.19 901.25 C-30.53 906.03 -21.83 920.82 -14.19 933.25 C-10.58 929.81 -8.47 926.65 -6.19 922.25 C-6.19 921.59 -6.19 920.93 -6.19 920.25 C-5.53 920.25 -4.87 920.25 -4.19 920.25 C-5.32 908.2 -18.84 894.18 -27.19 886.25 C-27.85 886.25 -28.51 886.25 -29.19 886.25 C-29.85 884.93 -30.51 883.61 -31.19 882.25 C-31.85 882.25 -32.51 882.25 -33.19 882.25 C-33.19 881.59 -33.19 880.93 -33.19 880.25 C-34.05 879.76 -34.92 879.26 -35.81 878.75 C-40.48 875.81 -42.67 871.01 -45.19 866.25 C-45.69 865.31 -46.19 864.37 -46.71 863.4 C-48.35 859.91 -49.55 856.38 -50.62 852.69 C-50.84 851.96 -51.05 851.23 -51.27 850.49 C-52.94 844.54 -54.26 838.56 -55.44 832.5 C-55.6 831.67 -55.76 830.85 -55.93 830 C-58.32 817.11 -58.42 804 -58.75 790.94 C-58.79 789.31 -58.84 787.68 -58.88 786.06 C-58.99 782.12 -59.09 778.19 -59.19 774.25 C-61.29 777.03 -63.27 779.84 -65.19 782.75 C-67.1 785.66 -69.07 788.48 -71.19 791.25 C-77.49 790.89 -77.49 790.89 -80.44 788.19 C-84.08 782.07 -85.56 776.31 -86.19 769.25 C-88.83 770.57 -89.01 771.8 -90.12 774.5 C-91.27 777.21 -92.4 779.6 -93.94 782.12 C-95.44 784.27 -95.44 784.27 -95.19 787.25 C-97.64 786.88 -98.87 786.61 -100.53 784.72 C-103.47 779.71 -105.96 774.62 -108.19 769.25 C-108.52 769.25 -108.85 769.25 -109.19 769.25 Z M-278.31 862.94 C-279.04 863.62 -279.76 864.31 -280.51 865.01 C-282.5 867.66 -282.54 869.01 -282.19 872.25 C-278.19 875.08 -274.76 874.01 -270.19 873.25 C-268.37 868.12 -270.33 864.07 -272.19 859.25 C-275.19 859.25 -276.19 860.88 -278.31 862.94 Z M-300.19 871.25 C-300.19 871.91 -300.19 872.57 -300.19 873.25 C-300.83 873.52 -301.47 873.79 -302.12 874.06 C-304.52 875.14 -304.52 875.14 -305.19 878.25 C-305.85 878.25 -306.51 878.25 -307.19 878.25 C-309.56 881.2 -309.56 881.2 -309.19 885.25 C-306.25 885 -303.31 884.72 -300.38 884.44 C-299.54 884.37 -298.71 884.3 -297.85 884.22 C-297.05 884.14 -296.24 884.06 -295.42 883.98 C-294.68 883.91 -293.94 883.84 -293.18 883.77 C-290.7 883.12 -289.72 882.29 -288.19 880.25 C-287.8 876 -287.86 872.89 -290.19 869.25 C-295.51 868.95 -295.51 868.95 -300.19 871.25 Z M-4.19 923.25 C-6.46 926.07 -6.46 926.07 -6.19 929.25 C-6.85 929.25 -7.51 929.25 -8.19 929.25 C-10.17 933.7 -10.17 933.7 -12.19 938.25 C-7.24 938.25 -2.29 938.25 2.81 938.25 C2.83 932.36 2.83 932.36 0.81 927.38 C0.44 926.59 0.07 925.81 -0.31 925.01 C-0.6 924.43 -0.89 923.85 -1.19 923.25 C-2.18 923.25 -3.17 923.25 -4.19 923.25 Z M-30.19 941.25 C-30.19 941.91 -30.19 942.57 -30.19 943.25 C-30.85 943.25 -31.51 943.25 -32.19 943.25 C-33.59 944.93 -33.59 944.93 -34.88 947.06 C-35.33 947.77 -35.79 948.48 -36.26 949.21 C-37.52 951.38 -37.52 951.38 -36.19 954.25 C-26.1 952.88 -26.1 952.88 -17.19 948.25 C-15.68 945.98 -15.68 945.98 -16.19 943.25 C-17.33 940.74 -18.68 938.59 -20.19 936.25 C-25.24 935.53 -27.03 937.46 -30.19 941.25 Z " fill="#000000" transform="translate(917.1875,196.75)"/>
<path d="M0 0 C-1.31 2.93 -2.75 4.75 -5 7 C-5.43 7.96 -5.43 7.96 -5.88 8.94 C-8.72 14.15 -15.05 17 -20 20 C-21.39 20.87 -21.39 20.87 -22.81 21.75 C-26.56 23.89 -28.6 24.07 -32.69 23.06 C-33.5 22.87 -34.3 22.67 -35.14 22.47 C-35.75 22.32 -36.37 22.16 -37 22 C-35 19 -35 19 -32.93 18.41 C-32.11 18.3 -31.29 18.18 -30.44 18.06 C-25.35 17.19 -18.79 15.79 -15 12 C-16.03 12.33 -17.06 12.66 -18.12 13 C-21.48 13.97 -24.49 14.17 -28 14 C-28 13.34 -28 12.68 -28 12 C-27.05 11.67 -26.09 11.35 -25.11 11.01 C-23.85 10.57 -22.58 10.13 -21.31 9.69 C-20.07 9.26 -18.83 8.83 -17.55 8.39 C-14.41 7.16 -11.82 5.82 -9 4 C-2.32 0 -2.32 0 0 0 Z " fill="#000000" transform="translate(988,307)"/>
<path d="M0 0 C0.33 0.66 0.66 1.32 1 2 C-5.53 9.4 -16.56 16.55 -26.56 17.25 C-27.37 17.17 -28.17 17.08 -29 17 C-27.71 14.41 -26.68 14.28 -24.03 13.2 C-19 11.05 -14.27 8.5 -9.5 5.81 C-8.69 5.36 -7.88 4.91 -7.05 4.45 C-3.3 2.53 -3.3 2.53 0 0 Z " fill="#000000" transform="translate(992,292)"/>
<path d="M0 0 C-0.99 0.33 -1.98 0.66 -3 1 C-3.33 1.99 -3.66 2.98 -4 4 C-6.06 4.69 -6.06 4.69 -8 5 C-8.33 6.32 -8.66 7.64 -9 9 C-11.23 9.08 -13.46 9.14 -15.69 9.19 C-16.93 9.22 -18.17 9.26 -19.45 9.29 C-23.19 8.98 -25.01 8.18 -28 6 C-27.67 5.34 -27.34 4.68 -27 4 C-26.13 4.33 -25.27 4.66 -24.38 5 C-20.77 6.07 -18.72 6.58 -15 6 C-12.57 4.6 -10.32 3.07 -8.05 1.41 C-4.93 -0.74 -3.65 -1.22 0 0 Z " fill="#000000" transform="translate(974,327)"/>
<path d="M0 0 C5.75 0.75 5.75 0.75 8 3 C11.85 4.75 15.89 5.95 19.91 7.22 C22 8 22 8 25 10 C25 10.99 25 11.98 25 13 C15.98 11.48 7.41 7.27 0 2 C0 1.34 0 0.68 0 0 Z " fill="#000000" transform="translate(696,304)"/>
<path d="M0 0 C0.66 0.33 1.32 0.66 2 1 C1.98 2.07 1.96 3.14 1.94 4.25 C1.85 7.77 1.85 7.77 2.56 10.19 C3 12 3 12 2.53 13.69 C1.83 16.75 1.91 19.62 1.94 22.75 C1.95 23.92 1.96 25.09 1.96 26.3 C1.98 27.19 1.99 28.08 2 29 C1.34 29 0.68 29 0 29 C-0.06 27.95 -0.12 26.9 -0.18 25.82 C-0.27 24.45 -0.35 23.07 -0.44 21.69 C-0.48 21 -0.52 20.31 -0.56 19.6 C-0.75 16.53 -1.02 13.93 -2 11 C-1.91 8.55 -1.91 8.55 -1.62 5.88 C-1.53 4.99 -1.44 4.1 -1.35 3.18 C-1 1 -1 1 0 0 Z " fill="#000000" transform="translate(397,904)"/>
<path d="M0 0 C0.66 0 1.32 0 2 0 C2.99 6.6 3.98 13.2 5 20 C4.01 19.67 3.02 19.34 2 19 C0.52 15.51 0.93 11.73 1 8 C0.34 8 -0.32 8 -1 8 C-1.33 8.99 -1.66 9.98 -2 11 C-3.14 7.59 -2.87 7 -1.56 3.81 C-1.13 2.74 -1.13 2.74 -0.69 1.64 C-0.46 1.1 -0.24 0.56 0 0 Z " fill="#000000" transform="translate(410,925)"/>
<path d="M0 0 C0.69 0 1.39 0.01 2.1 0.01 C3.8 0.03 5.49 0.04 7.19 0.06 C6.86 1.05 6.53 2.04 6.19 3.06 C-0.08 3.06 -6.35 3.06 -12.81 3.06 C-12.81 2.4 -12.81 1.74 -12.81 1.06 C-8.53 0.01 -4.38 -0.05 0 0 Z " fill="#000000" transform="translate(660.8125,274.9375)"/>
<path d="M0 0 C0.66 0 1.32 0 2 0 C2 3.3 2 6.6 2 10 C1.34 10 0.68 10 0 10 C0 6.7 0 3.4 0 0 Z " fill="#000000" transform="translate(891,579)"/>
<path d="M0 0 C0.99 0 1.98 0 3 0 C2.69 3.38 2.69 3.38 2 7 C1.01 7.66 0.02 8.32 -1 9 C-0.67 6.03 -0.34 3.06 0 0 Z " fill="#000000" transform="translate(406,638)"/>
<path d="M0 0 C1.03 2.79 1.05 3.87 0.06 6.75 C-0.29 7.49 -0.64 8.24 -1 9 C-1.66 9 -2.32 9 -3 9 C-2.44 5.66 -1.65 2.97 0 0 Z " fill="#000000" transform="translate(406,936)"/>
<path d="M0 0 C1.98 0.99 1.98 0.99 4 2 C3.34 3.65 2.68 5.3 2 7 C1.34 6.34 0.68 5.68 0 5 C0 3.33 0 1.67 0 0 Z " fill="#000000" transform="translate(399,943)"/>
<path d="M0 0 C0.99 0.5 0.99 0.5 2 1 C1.67 3.64 1.34 6.28 1 9 C0.67 9 0.34 9 0 9 C0 6.03 0 3.06 0 0 Z " fill="#000000" transform="translate(507,742)"/>
<path d="M0 0 C0.66 0 1.32 0 2 0 C1.62 2.44 1.62 2.44 1 5 C0.01 5.5 0.01 5.5 -1 6 C-0.67 4.02 -0.34 2.04 0 0 Z " fill="#000000" transform="translate(634,721)"/>
<path d="M0 0 C0.99 0.33 1.98 0.66 3 1 C2.67 1.66 2.34 2.32 2 3 C0.68 3 -0.64 3 -2 3 C-2 2.34 -2 1.68 -2 1 C-1.34 0.67 -0.68 0.34 0 0 Z " fill="#000000" transform="translate(645,274)"/>
<path d="M0 0 C0.99 0.33 1.98 0.66 3 1 C0.52 2.48 0.52 2.48 -2 4 C-1.34 2.68 -0.68 1.36 0 0 Z " fill="#000000" transform="translate(776,1158)"/>
<path d="M0 0 C1.98 0.99 1.98 0.99 4 2 C3.67 2.66 3.34 3.32 3 4 C2.34 4 1.68 4 1 4 C0.67 2.68 0.34 1.36 0 0 Z " fill="#000000" transform="translate(458,1084)"/>
<path d="M0 0 C0.66 0.66 1.32 1.32 2 2 C1.67 2.66 1.34 3.32 1 4 C0.01 3.67 -0.98 3.34 -2 3 C-1.34 2.01 -0.68 1.02 0 0 Z " fill="#000000" transform="translate(454,1113)"/>
<path d="M0 0 C0.99 0.33 1.98 0.66 3 1 C2.67 1.66 2.34 2.32 2 3 C1.01 3 0.02 3 -1 3 C-0.67 2.01 -0.34 1.02 0 0 Z " fill="#000000" transform="translate(464,1104)"/>
<path d="M0 0 C0.66 0.66 1.32 1.32 2 2 C-0.48 3.48 -0.48 3.48 -3 5 C-2.67 4.01 -2.34 3.02 -2 2 C-1.34 2 -0.68 2 0 2 C0 1.34 0 0.68 0 0 Z " fill="#000000" transform="translate(483,1095)"/>
<path d="M0 0 C0.66 0 1.32 0 2 0 C2 1.65 2 3.3 2 5 C1.34 4.67 0.68 4.34 0 4 C0 2.68 0 1.36 0 0 Z " fill="#000000" transform="translate(900,730)"/>
<path d="M0 0 C0.99 0.33 1.98 0.66 3 1 C2.67 1.66 2.34 2.32 2 3 C1.01 3 0.02 3 -1 3 C-0.67 2.01 -0.34 1.02 0 0 Z " fill="#000000" transform="translate(460,530)"/>
<path d="M0 0 C0.99 0 1.98 0 3 0 C2.67 0.99 2.34 1.98 2 3 C1.34 3 0.68 3 0 3 C0 2.01 0 1.02 0 0 Z " fill="#000000" transform="translate(843,839)"/>
<path d="M0 0 C0.66 0.33 1.32 0.66 2 1 C1.67 1.99 1.34 2.98 1 4 C0.34 4 -0.32 4 -1 4 C-0.67 2.68 -0.34 1.36 0 0 Z " fill="#000000" transform="translate(766,1169)"/>
<path d="M0 0 C0.66 0 1.32 0 2 0 C1.67 0.99 1.34 1.98 1 3 C0.34 3 -0.32 3 -1 3 C-0.67 2.01 -0.34 1.02 0 0 Z " fill="#000000" transform="translate(456,1110)"/>
<path d="M0 0 C0.66 0 1.32 0 2 0 C1.67 0.99 1.34 1.98 1 3 C0.34 3 -0.32 3 -1 3 C-0.67 2.01 -0.34 1.02 0 0 Z " fill="#000000" transform="translate(428,576)"/>
<path d="M0 0 C1.32 0.33 2.64 0.66 4 1 C2.68 1.33 1.36 1.66 0 2 C0 1.34 0 0.68 0 0 Z " fill="#000000" transform="translate(669,276)"/>
<path d="M0 0 C0.99 0.33 1.98 0.66 3 1 C1.68 1.33 0.36 1.66 -1 2 C-0.67 1.34 -0.34 0.68 0 0 Z " fill="#000000" transform="translate(769,1165)"/>
<path d="M0 0 C0.99 0.5 0.99 0.5 2 1 C1.67 1.99 1.34 2.98 1 4 C0.67 2.68 0.34 1.36 0 0 Z " fill="#000000" transform="translate(398,935)"/>
<path d="M0 0 C0.66 0 1.32 0 2 0 C2 0.99 2 1.98 2 3 C1.34 3 0.68 3 0 3 C0 2.01 0 1.02 0 0 Z " fill="#000000" transform="translate(393,919)"/>
<path d="M0 0 C0.66 0 1.32 0 2 0 C2 0.66 2 1.32 2 2 C1.01 1.67 0.02 1.34 -1 1 C-0.67 0.67 -0.34 0.34 0 0 Z " fill="#000000" transform="translate(732,1180)"/>
<path d="M0 0 C0.99 0.33 1.98 0.66 3 1 C2.01 1.33 1.02 1.66 0 2 C0 1.34 0 0.68 0 0 Z " fill="#000000" transform="translate(741,1134)"/>
<path d="M0 0 C0.33 0.99 0.66 1.98 1 3 C0.34 3 -0.32 3 -1 3 C-0.67 2.01 -0.34 1.02 0 0 Z " fill="#000000" transform="translate(459,1107)"/>
<path d="M0 0 C0.33 0.99 0.66 1.98 1 3 C0.34 3 -0.32 3 -1 3 C-0.67 2.01 -0.34 1.02 0 0 Z " fill="#000000" transform="translate(759,845)"/>
<path d="M0 0 C0.66 0 1.32 0 2 0 C1.67 0.99 1.34 1.98 1 3 C0.67 2.01 0.34 1.02 0 0 Z " fill="#000000" transform="translate(825,839)"/>
<path d="M0 0 C0.99 0.5 0.99 0.5 2 1 C1.67 1.99 1.34 2.98 1 4 C0.67 2.68 0.34 1.36 0 0 Z " fill="#000000" transform="translate(529,777)"/>
<path d="M0 0 C0.99 0.5 0.99 0.5 2 1 C2 1.66 2 2.32 2 3 C1.34 3 0.68 3 0 3 C0 2.01 0 1.02 0 0 Z " fill="#000000" transform="translate(505,678)"/>
<path d="M0 0 C0.99 0.33 1.98 0.66 3 1 C2.01 1.33 1.02 1.66 0 2 C0 1.34 0 0.68 0 0 Z " fill="#000000" transform="translate(463,528)"/>
<path d="M0 0 C0.66 0 1.32 0 2 0 C1.67 0.99 1.34 1.98 1 3 C0.67 2.01 0.34 1.02 0 0 Z " fill="#000000" transform="translate(925,373)"/>
<path d="M0 0 C0.66 0 1.32 0 2 0 C2 0.66 2 1.32 2 2 C1.34 2 0.68 2 0 2 C0 1.34 0 0.68 0 0 Z " fill="#000000" transform="translate(735,1176)"/>
<path d="M0 0 C0.66 0 1.32 0 2 0 C2 0.66 2 1.32 2 2 C1.34 2 0.68 2 0 2 C0 1.34 0 0.68 0 0 Z " fill="#000000" transform="translate(737,1174)"/>
<path d="M0 0 C0.66 0 1.32 0 2 0 C2 0.66 2 1.32 2 2 C1.34 2 0.68 2 0 2 C0 1.34 0 0.68 0 0 Z " fill="#000000" transform="translate(740,1171)"/>
<path d="M0 0 C0.66 0 1.32 0 2 0 C2 0.66 2 1.32 2 2 C1.34 2 0.68 2 0 2 C0 1.34 0 0.68 0 0 Z " fill="#000000" transform="translate(771,1128)"/>
<path d="M0 0 C0.66 0 1.32 0 2 0 C2 0.66 2 1.32 2 2 C1.34 2 0.68 2 0 2 C0 1.34 0 0.68 0 0 Z " fill="#000000" transform="translate(478,1100)"/>
<path d="M0 0 C0.66 0 1.32 0 2 0 C2 0.66 2 1.32 2 2 C1.34 2 0.68 2 0 2 C0 1.34 0 0.68 0 0 Z " fill="#000000" transform="translate(476,883)"/>
<path d="M0 0 C0.66 0 1.32 0 2 0 C2 0.66 2 1.32 2 2 C1.34 2 0.68 2 0 2 C0 1.34 0 0.68 0 0 Z " fill="#000000" transform="translate(478,879)"/>
<path d="M0 0 C0.66 0 1.32 0 2 0 C2 0.66 2 1.32 2 2 C1.34 2 0.68 2 0 2 C0 1.34 0 0.68 0 0 Z " fill="#000000" transform="translate(670,866)"/>
<path d="M0 0 C0.66 0.66 1.32 1.32 2 2 C1.01 1.67 0.02 1.34 -1 1 C-0.67 0.67 -0.34 0.34 0 0 Z " fill="#000000" transform="translate(628,851)"/>
<path d="M0 0 C0.66 0 1.32 0 2 0 C2 0.66 2 1.32 2 2 C1.34 2 0.68 2 0 2 C0 1.34 0 0.68 0 0 Z " fill="#000000" transform="translate(410,632)"/>
<path d="M0 0 C0.66 0 1.32 0 2 0 C2 0.66 2 1.32 2 2 C1.34 2 0.68 2 0 2 C0 1.34 0 0.68 0 0 Z " fill="#000000" transform="translate(466,527)"/>
<path d="M0 0 C0.66 0 1.32 0 2 0 C2 0.66 2 1.32 2 2 C1.34 2 0.68 2 0 2 C0 1.34 0 0.68 0 0 Z " fill="#000000" transform="translate(984,313)"/>
<path d="M0 0 C0.66 0 1.32 0 2 0 C2 0.66 2 1.32 2 2 C1.34 2 0.68 2 0 2 C0 1.34 0 0.68 0 0 Z " fill="#000000" transform="translate(637,272)"/>
<path d="M0 0 C0.66 0 1.32 0 2 0 C2 0.66 2 1.32 2 2 C1.34 2 0.68 2 0 2 C0 1.34 0 0.68 0 0 Z " fill="#000000" transform="translate(620,262)"/>
<path d="M0 0 C0.33 0.66 0.66 1.32 1 2 C0.34 1.67 -0.32 1.34 -1 1 C-0.67 0.67 -0.34 0.34 0 0 Z " fill="#000000" transform="translate(745,1168)"/>
<path d="M0 0 C0.66 0 1.32 0 2 0 C1.67 0.66 1.34 1.32 1 2 C0.67 1.34 0.34 0.68 0 0 Z " fill="#000000" transform="translate(772,1162)"/>
<path d="M0 0 C0.66 0.66 1.32 1.32 2 2 C1.34 2 0.68 2 0 2 C0 1.34 0 0.68 0 0 Z " fill="#000000" transform="translate(738,1130)"/>
<path d="M0 0 C0.66 0.66 1.32 1.32 2 2 C1.34 2 0.68 2 0 2 C0 1.34 0 0.68 0 0 Z " fill="#000000" transform="translate(399,940)"/>
<path d="M0 0 C0.66 0.66 1.32 1.32 2 2 C1.34 2 0.68 2 0 2 C0 1.34 0 0.68 0 0 Z " fill="#000000" transform="translate(590,875)"/>
<path d="M0 0 C0.99 0.5 0.99 0.5 2 1 C1.01 1.5 1.01 1.5 0 2 C0 1.34 0 0.68 0 0 Z " fill="#000000" transform="translate(559,808)"/>
<path d="M0 0 C0.66 0 1.32 0 2 0 C1.67 0.66 1.34 1.32 1 2 C0.67 1.34 0.34 0.68 0 0 Z " fill="#000000" transform="translate(430,574)"/>
<path d="M0 0 C0.99 0.5 0.99 0.5 2 1 C1.01 1.5 1.01 1.5 0 2 C0 1.34 0 0.68 0 0 Z " fill="#000000" transform="translate(1045,259)"/>
<path d="" fill="#000000" transform="translate(0,0)"/>
<path d="" fill="#000000" transform="translate(0,0)"/>
<path d="" fill="#000000" transform="translate(0,0)"/>
<path d="" fill="#000000" transform="translate(0,0)"/>
<path d="" fill="#000000" transform="translate(0,0)"/>
<path d="" fill="#000000" transform="translate(0,0)"/>
</svg>
