<?xml version="1.0" encoding="UTF-8"?>
<!-- Generator: visioncortex VTracer 0.6.3 -->
<svg version="1.1" xmlns="http://www.w3.org/2000/svg" width="1280" height="1280">
<path d="M0 0 C7.09 3.1 10.62 9.36 14 16 C14.44 16.87 14.88 17.74 15.34 18.63 C19.94 28.22 22.71 38.31 25.12 48.62 C25.36 49.6 25.36 49.6 25.61 50.59 C29.03 65.89 29.38 81.7 29.31 97.31 C29.31 98.2 29.31 99.1 29.31 100.02 C29.25 118.62 27.9 136.24 22 154 C21.69 155.02 21.38 156.04 21.07 157.09 C18.77 164.49 15.61 171.16 12 178 C11.2 179.55 10.4 181.11 9.6 182.66 C1.59 198.18 1.59 198.18 -2.94 204.21 C-4.37 206.63 -4.91 208.16 -5 211 C-3.69 213.38 -2.43 215.35 -0.81 217.5 C-0.41 218.06 -0.01 218.61 0.4 219.18 C3.5 223.45 6.64 227.64 10.38 231.38 C14.23 235.23 17.75 239.32 21 243.69 C23.99 247.14 27.23 249.34 31.5 250.94 C34.94 251.02 37.07 249.7 40 248 C36.98 258.02 36.98 258.02 34 261 C33.34 261 32.68 261 32 261 C31.66 261.87 31.66 261.87 31.31 262.75 C28.02 268.39 21.57 271.02 16 274 C20.09 279.71 24.52 284.87 29.38 289.94 C30.71 291.34 32.04 292.75 33.37 294.16 C34 294.83 34.63 295.49 35.28 296.18 C50.16 311.92 56.66 323.92 56.14 345.83 C56.1 347.22 56.05 348.61 56 350 C55.27 349.7 54.55 349.41 53.8 349.1 C51.28 348.11 48.76 347.22 46.19 346.38 C45.4 346.11 44.61 345.85 43.79 345.59 C43.2 345.39 42.61 345.2 42 345 C42.32 345.81 42.64 346.63 42.98 347.47 C47.26 362.26 42.99 378.13 35.95 391.3 C35.64 391.86 35.32 392.42 35 393 C32 392 32 392 30.31 388.94 C29.88 387.97 29.45 387 29 386 C29.06 386.95 29.12 387.9 29.19 388.88 C29.13 398.39 24.74 407.92 18.3 414.82 C14.08 418.6 8.81 423 3 423 C3.13 422.41 3.27 421.82 3.4 421.21 C3.58 420.42 3.76 419.63 3.94 418.81 C4.2 417.65 4.2 417.65 4.46 416.46 C5.01 413.98 5.51 411.49 6 409 C5.2 409.41 4.41 409.82 3.59 410.24 C2.53 410.78 1.47 411.32 0.38 411.88 C-0.67 412.41 -1.71 412.94 -2.79 413.49 C-5.82 414.91 -8.81 416.01 -12 417 C-12.05 417.66 -12.1 418.33 -12.15 419.01 C-12.78 426.49 -12.78 426.49 -14.06 429.5 C-15.31 432.82 -15.01 435.7 -14.78 439.21 C-15.03 442.37 -16.11 444.85 -17.28 447.77 C-18.59 451.81 -18.68 455.97 -18.94 460.19 C-19.6 468.66 -20.93 476.03 -24 484 C-24.41 485.14 -24.41 485.14 -24.82 486.3 C-25.56 488.25 -25.56 488.25 -27 491 C-27.99 491.33 -28.98 491.66 -30 492 C-29.68 492.93 -29.68 492.93 -29.36 493.88 C-22.21 515.12 -16.59 536.59 -13.33 558.79 C-12.98 561.11 -12.62 563.43 -12.26 565.75 C-10.49 577.42 -9.21 589.11 -8.18 600.88 C-7.18 614.08 -7.18 614.08 -0.62 625.12 C4.7 630.8 7.72 635.18 9.31 642.97 C10.5 649.6 10.5 649.6 14.07 655.16 C16.4 656.65 16.4 656.65 18.81 657.84 C23.25 660.19 26.1 664.42 28 669 C28.65 674.03 29.05 679.18 26.06 683.5 C25.38 684.33 24.7 685.15 24 686 C23.67 686.99 23.34 687.98 23 689 C24.11 689.78 24.11 689.78 25.24 690.58 C28.34 693.3 30.22 696.19 32.19 699.75 C32.53 700.33 32.87 700.92 33.22 701.52 C37.34 708.81 38.33 715.77 38.25 724.06 C38.26 724.83 38.27 725.59 38.27 726.38 C38.26 731.27 37.44 735.29 36 740 C35.73 742.61 35.73 742.61 35.81 745.06 C35.82 745.86 35.83 746.65 35.83 747.47 C35.96 750.08 35.96 750.08 36.5 752.94 C39.65 772.1 32.66 789.35 24 806 C23.34 806 22.68 806 22 806 C21.75 806.72 21.51 807.45 21.25 808.2 C17.85 815.81 10.68 821.62 4.04 826.43 C0.05 829.5 -2.28 832 -3.88 836.81 C-6.1 842.61 -8.52 847.26 -14.26 850.13 C-22.83 853.34 -31.17 854.07 -40.24 854.78 C-47.07 855.4 -52.21 856.21 -58 860 C-59.7 862.05 -59.7 862.05 -60.56 864.38 C-63.37 870.01 -66.55 873.61 -72.47 876 C-91.49 881.71 -118.97 881.64 -137 873 C-141.55 869.91 -141.55 869.91 -143 867 C-143.21 864.71 -143.37 862.42 -143.5 860.12 C-143.7 854.46 -143.7 854.46 -145 849 C-147.18 847.76 -147.18 847.76 -150 847 C-151.09 846.65 -152.19 846.3 -153.31 845.94 C-160.91 844.01 -168.27 843.86 -176.06 843.9 C-177.09 843.9 -178.13 843.91 -179.19 843.91 C-182.46 843.91 -185.73 843.92 -189 843.94 C-191.23 843.94 -193.46 843.95 -195.68 843.95 C-201.12 843.96 -206.56 843.98 -212 844 C-211.84 844.91 -211.68 845.82 -211.51 846.76 C-210.92 850.52 -210.78 854.2 -210.75 858 C-210.72 859.03 -210.72 859.03 -210.69 860.08 C-210.65 864.82 -211.5 867.99 -214 872 C-225.08 881.46 -243.08 881.37 -256.81 881.31 C-257.8 881.31 -257.8 881.31 -258.81 881.31 C-284.35 881.17 -284.35 881.17 -293.68 873.6 C-295.2 871.76 -295.61 870.33 -296 868 C-296.66 868 -297.32 868 -298 868 C-298.27 867.29 -298.53 866.58 -298.8 865.85 C-299.16 864.93 -299.51 864.01 -299.88 863.06 C-300.22 862.15 -300.57 861.23 -300.93 860.29 C-301.78 857.85 -301.78 857.85 -304 857 C-306.01 856.86 -308.03 856.77 -310.05 856.72 C-311.91 856.66 -311.91 856.66 -313.8 856.61 C-315.76 856.55 -315.76 856.55 -317.75 856.5 C-356.9 855.42 -356.9 855.42 -366.54 845.77 C-370.6 840.84 -370.44 835.17 -370.31 829.03 C-369.56 821.67 -366.22 816.48 -360.88 811.51 C-358.08 809.27 -355.19 807.63 -352 806 C-354.48 803.37 -356.7 801.18 -359.81 799.31 C-360.53 798.88 -361.26 798.45 -362 798 C-362 797.34 -362 796.68 -362 796 C-362.72 795.77 -363.44 795.55 -364.19 795.31 C-369.68 792.75 -373.32 787.69 -377 783 C-377.61 782.23 -378.22 781.46 -378.85 780.66 C-398.55 754.77 -402.66 719.81 -398.47 688.12 C-397.78 684.36 -396.94 680.7 -396 677 C-395.62 675.13 -395.62 675.13 -395.23 673.23 C-391.61 656.1 -384.2 638.52 -373 625 C-372.57 624.26 -372.13 623.51 -371.69 622.75 C-367.28 615.56 -361.58 608.45 -355.5 602.59 C-351.73 598.03 -351.43 592.37 -350.56 586.69 C-350.15 584.25 -349.73 581.81 -349.31 579.38 C-349.1 578.15 -348.88 576.91 -348.66 575.65 C-344.43 552.38 -338.34 520.93 -323.35 501.9 C-321.69 499.99 -321.69 499.99 -322.19 497.06 C-322.91 494.06 -322.91 494.06 -324 491.56 C-328.32 480.5 -327.05 465.13 -323.65 454.03 C-322.84 450.25 -322.98 446.64 -323.12 442.81 C-323.34 436.77 -322.59 432.63 -319.09 427.6 C-317.81 426.05 -317.81 426.05 -318 424 C-319.14 423.74 -319.14 423.74 -320.31 423.48 C-326.95 421.93 -332.86 419.97 -339 417 C-338.67 422.28 -338.34 427.56 -338 433 C-349.06 427.47 -356.66 417.86 -360.81 406.38 C-362.05 402.28 -362.61 398.26 -363 394 C-363.99 396.31 -364.98 398.62 -366 401 C-372.68 395.06 -375.07 386.12 -375.88 377.44 C-376.12 372.06 -375.82 366.81 -375.25 361.46 C-374.95 358.91 -374.95 358.91 -375 356 C-375.66 356 -376.32 356 -377 356 C-377 356.66 -377 357.32 -377 358 C-377.99 358.33 -378.98 358.66 -380 359 C-381.67 360.5 -381.67 360.5 -383 362 C-383.66 361.67 -384.32 361.34 -385 361 C-385.78 339.86 -379.63 325.5 -367 309 C-361.91 301.9 -357 294.79 -353 287 C-354.15 286.92 -355.31 286.83 -356.5 286.75 C-364.95 285.62 -369.89 281.7 -375.3 275.25 C-380 269.02 -380 269.02 -380 265 C-377.04 265.61 -375.62 266.25 -373 268 C-369.54 268.13 -367.11 267.89 -364.34 265.67 C-355.03 255.55 -348.07 242.73 -341 231 C-340.41 230.2 -339.82 229.4 -339.21 228.57 C-337.5 224.93 -337.99 222.86 -339 219 C-340.28 216.59 -341.53 214.48 -343.06 212.25 C-343.46 211.64 -343.87 211.04 -344.28 210.41 C-346.81 206.63 -349.47 202.96 -352.19 199.31 C-356.01 194.11 -359.11 188.77 -362 183 C-362.32 182.36 -362.64 181.73 -362.97 181.07 C-367.53 171.92 -371.42 162.93 -374 153 C-374.35 151.77 -374.7 150.53 -375.05 149.26 C-385.3 111.3 -384.55 59.62 -369 23 C-361.18 10.47 -361.18 10.47 -355 9 C-344.48 8.03 -337.46 14.23 -329.75 20.53 C-321.91 27.11 -314.46 34.05 -308 42 C-305.66 44.84 -303.35 47.65 -300.75 50.25 C-293.26 57.74 -286.67 65.84 -280.3 74.28 C-277.64 77.8 -274.92 81.28 -272.22 84.77 C-270.4 87.14 -268.66 89.51 -267 92 C-266.8 91.41 -266.6 90.82 -266.39 90.22 C-263.29 81.81 -258.53 74.91 -253.49 67.57 C-246.96 57.87 -241.71 47.97 -243 36 C-244.08 32.53 -245.44 29.27 -247 26 C-237.79 26.21 -229.07 32.32 -222.45 38.42 C-217 44.35 -214.48 51.46 -212 59 C-208.96 55.46 -206.29 52.09 -204 48 C-201.07 50.8 -200.03 52.05 -199.9 56.26 C-199.92 58.17 -199.92 58.17 -199.94 60.12 C-199.95 61.41 -199.96 62.69 -199.96 64.01 C-199.98 65.49 -199.98 65.49 -200 67 C-198.97 66.53 -197.94 66.06 -196.88 65.57 C-188.69 61.95 -181.06 59.36 -172.2 58.07 C-165.07 56.99 -158.7 54.64 -152 52 C-151.01 51.67 -150.02 51.34 -149 51 C-147.98 48.9 -147.98 48.9 -147.31 46.44 C-147.06 45.61 -146.81 44.78 -146.55 43.93 C-146.37 43.3 -146.19 42.66 -146 42 C-141.24 46.14 -139.35 49.73 -138.83 56.08 C-138.77 58.27 -138.78 60.44 -138.81 62.62 C-138.81 63.36 -138.81 64.1 -138.81 64.86 C-138.85 68.69 -139.08 72.28 -140 76 C-139.19 75.71 -139.19 75.71 -138.37 75.41 C-130.65 72.97 -123 72.32 -114.97 71.82 C-107.55 71.29 -101.05 69.98 -95 65.31 C-93.51 64.17 -93.51 64.17 -92 63 C-90.25 66.03 -89.75 68.21 -89.77 71.7 C-89.77 72.6 -89.77 73.5 -89.78 74.43 C-89.79 75.36 -89.8 76.29 -89.81 77.25 C-89.81 78.17 -89.81 79.08 -89.81 80.03 C-89.85 85.44 -90.21 90.65 -91 96 C-90.3 94.91 -89.6 93.82 -88.88 92.7 C-72.16 66.8 -54.6 41.95 -34.39 18.63 C-33.48 17.56 -32.59 16.49 -31.72 15.39 C-28.97 11.95 -26.14 9.36 -22.56 6.81 C-21.66 6.16 -20.75 5.51 -19.82 4.83 C-13.15 0.49 -7.94 -1.34 0 0 Z M-41.95 36.39 C-43.67 38.57 -45.34 40.78 -47 43 C-47.92 44.22 -48.85 45.43 -49.77 46.64 C-58.71 58.43 -67.14 70.46 -75 83 C-76.21 84.9 -77.42 86.79 -78.62 88.69 C-79.19 89.59 -79.76 90.49 -80.35 91.42 C-81.41 93.08 -82.5 94.71 -83.62 96.33 C-84.1 97.02 -84.57 97.72 -85.06 98.44 C-85.49 99.03 -85.91 99.63 -86.35 100.25 C-87.24 102.05 -87.24 102.05 -86.24 104.07 C-84.66 106.52 -82.83 108.73 -81 111 C-80.44 112.24 -80.44 112.24 -79.88 113.5 C-77.37 116.84 -74.55 117.88 -70.82 119.62 C-61.9 123.98 -52.77 129.97 -45.92 137.2 C-44.1 139.28 -44.1 139.28 -41.25 139.19 C-35.33 137.03 -31.24 132.99 -27.94 127.69 C-27.63 126.8 -27.32 125.91 -27 125 C-27.33 124.34 -27.66 123.68 -28 123 C-29.65 123.99 -31.3 124.98 -33 126 C-32.64 124.84 -32.28 123.68 -31.91 122.49 C-31.44 120.95 -30.97 119.41 -30.5 117.88 C-30.26 117.11 -30.02 116.35 -29.78 115.57 C-28.47 111.25 -27.71 107.57 -28 103 C-29.58 105.38 -31.12 107.77 -32.62 110.19 C-33.07 110.9 -33.52 111.62 -33.98 112.36 C-34.31 112.9 -34.65 113.44 -35 114 C-33.82 108.86 -32.63 103.72 -31.43 98.59 C-31.02 96.85 -30.62 95.11 -30.22 93.37 C-27.69 82.34 -24.76 71.67 -21 61 C-20.24 58.68 -19.51 56.35 -18.77 54.03 C-16.79 48.84 -13.95 44 -11.31 39.12 C-10.69 37.97 -10.07 36.82 -9.43 35.63 C-8.72 34.33 -8.72 34.33 -8 33 C-7.34 33 -6.68 33 -6 33 C-6.46 33.88 -6.92 34.77 -7.39 35.68 C-11.14 42.98 -14.35 50.22 -17 58 C-17.54 59.38 -18.08 60.75 -18.62 62.12 C-19.87 65.45 -20.68 68.76 -21.4 72.23 C-22.35 76.63 -23.48 80.97 -24.59 85.33 C-25.49 88.87 -26.32 92.41 -27 96 C-26.34 96 -25.68 96 -25 96 C-25.66 103.59 -26.32 111.18 -27 119 C-25.02 118.5 -25.02 118.5 -23 118 C-23.31 119.42 -23.62 120.83 -23.94 122.25 C-24.11 123.04 -24.29 123.83 -24.46 124.64 C-24.95 126.77 -25.46 128.89 -26 131 C-26.66 131 -27.32 131 -28 131 C-28.54 131.89 -29.07 132.77 -29.62 133.69 C-32.16 137.77 -35.87 139.73 -40 142 C-38.65 145.92 -36.72 149.13 -34.41 152.55 C-30.42 159.48 -27.69 167.14 -24.75 174.56 C-24.39 175.48 -24.02 176.39 -23.65 177.33 C-22.76 179.55 -21.88 181.78 -21 184 C-20.01 184 -19.02 184 -18 184 C-16.14 181.61 -16.14 181.61 -14.44 178.62 C-11.15 173.15 -11.15 173.15 -9 171 C-10.65 170.34 -12.3 169.68 -14 169 C-11.75 165.58 -9.46 162.28 -7 159 C-11.95 159.99 -11.95 159.99 -17 161 C-14.92 157.41 -12.63 154.12 -10.12 150.81 C-6.52 145.89 -2.98 140.81 -1 135 C-1.33 134.01 -1.66 133.02 -2 132 C-3.32 133.32 -4.64 134.64 -6 136 C-5.43 130.7 -4.52 125.78 -3.12 120.62 C0.78 105.52 2.58 90.58 3 75 C3.03 73.98 3.06 72.97 3.09 71.92 C3.28 57.7 2.6 43.26 -3 30 C-0.21 32.4 0.85 34.67 2.06 38.12 C2.38 39.01 2.7 39.9 3.04 40.82 C5.26 48.16 6.38 55.22 6.69 62.88 C6.74 64.24 6.74 64.24 6.8 65.64 C7.39 82.83 6.62 100.99 0.81 117.36 C-0.03 120.11 -0.02 121.35 1 124 C1.67 122.71 2.34 121.42 3 120.12 C3.56 119.05 3.56 119.05 4.12 117.95 C5.14 116.05 5.14 116.05 5 114 C5.66 114 6.32 114 7 114 C3.87 129.36 0.5 142.93 -10 155 C-9.34 155.33 -8.68 155.66 -8 156 C-5.69 154.35 -3.38 152.7 -1 151 C-1.39 157.16 -3.47 160.99 -7 166 C-5.02 166.99 -5.02 166.99 -3 168 C-7.68 173.69 -7.68 173.69 -9.81 175.75 C-11.23 176.95 -11.23 176.95 -11 179 C-11.66 179 -12.32 179 -13 179 C-13 179.99 -13 180.98 -13 182 C-13.66 182 -14.32 182 -15 182 C-16.66 184.97 -17.66 187.6 -18 191 C-16.2 196.58 -13.95 201.7 -9 205 C7.73 175.35 23.03 144.95 23.2 110.18 C23.21 109.26 23.22 108.33 23.22 107.38 C23.24 104.4 23.25 101.42 23.25 98.44 C23.25 97.42 23.25 96.41 23.25 95.36 C23.24 80.7 22.99 66.4 20 52 C19.83 51.14 19.66 50.29 19.48 49.4 C16.42 34.58 12.03 16.55 0.04 6.32 C-14.1 -2.87 -34.36 27.08 -41.95 36.39 Z M-362.11 21.91 C-363.21 24.24 -364.12 26.59 -365 29 C-365.51 30.26 -365.51 30.26 -366.03 31.55 C-369.59 41.08 -370.76 50.96 -372 61 C-372.11 61.81 -372.21 62.62 -372.32 63.46 C-377.85 106.7 -375.41 157.98 -348 194 C-346.99 195.66 -345.99 197.33 -345 199 C-344.4 199.9 -343.8 200.8 -343.18 201.72 C-340.96 205.06 -338.84 208.45 -336.75 211.88 C-336.39 212.47 -336.02 213.06 -335.65 213.67 C-334.76 215.11 -333.88 216.56 -333 218 C-328.5 213.91 -327.26 209.04 -326.5 203.12 C-326.87 194.88 -332.47 187.99 -337.55 181.91 C-339 180 -339 180 -340 177 C-338.02 177 -336.04 177 -334 177 C-334.36 176.58 -334.73 176.15 -335.1 175.71 C-338.73 171.48 -342.37 167.24 -346 163 C-345.67 162.67 -345.34 162.34 -345 162 C-343.02 162.66 -341.04 163.32 -339 164 C-339.36 163.47 -339.73 162.93 -340.1 162.38 C-341.75 159.93 -343.38 157.47 -345 155 C-345.56 154.15 -346.12 153.3 -346.7 152.42 C-349.8 147.53 -351.75 143.82 -352 138 C-350.68 138.99 -349.36 139.98 -348 141 C-348.44 139.52 -348.87 138.04 -349.31 136.56 C-349.56 135.74 -349.8 134.92 -350.05 134.07 C-350.57 132.39 -351.1 130.71 -351.68 129.05 C-356.66 114.8 -359.79 99.1 -360 84 C-360.02 83.02 -360.04 82.04 -360.06 81.04 C-360.12 77.59 -360.16 74.14 -360.19 70.69 C-360.21 69.02 -360.21 69.02 -360.23 67.32 C-360.23 60.92 -359.7 55.17 -358 49 C-357.79 48.13 -357.58 47.26 -357.37 46.37 C-356.91 44.58 -356.46 42.79 -356 41 C-355.34 41 -354.68 41 -354 41 C-354.14 41.62 -354.28 42.24 -354.43 42.88 C-356.11 50.97 -356.31 58.81 -356.25 67.06 C-356.25 67.74 -356.24 68.43 -356.24 69.13 C-356.12 93.81 -353.87 125.17 -341 147 C-340.01 147.33 -339.02 147.66 -338 148 C-338 148.66 -338 149.32 -338 150 C-341.33 148.33 -344.67 146.67 -348 145 C-344.35 151.72 -340.2 157.31 -334.95 162.87 C-333 165 -333 165 -331 168 C-333.64 168 -336.28 168 -339 168 C-336.49 170.58 -334.03 172.98 -331.19 175.19 C-330.47 175.79 -329.74 176.38 -329 177 C-329 177.66 -329 178.32 -329 179 C-331.31 179.33 -333.62 179.66 -336 180 C-334.68 182.89 -333.21 185.04 -331.06 187.38 C-328.42 190.37 -326.61 193.32 -325 197 C-324.34 197 -323.68 197 -323 197 C-322.61 195.96 -322.23 194.92 -321.83 193.85 C-321.58 193.18 -321.33 192.51 -321.07 191.82 C-320.52 190.35 -319.97 188.88 -319.43 187.41 C-317.92 183.37 -316.33 179.4 -314.62 175.44 C-313.03 171.37 -312.21 168.41 -313 164 C-314.4 161.42 -315.93 158.97 -317.53 156.51 C-319.55 153.06 -320.28 149.91 -321 146 C-319.68 146.99 -318.36 147.98 -317 149 C-316.34 148.67 -315.68 148.34 -315 148 C-315.62 147.2 -316.24 146.39 -316.88 145.56 C-320.25 140.51 -321.55 134.03 -321 128 C-320.67 127.34 -320.34 126.68 -320 126 C-320.57 123.49 -320.57 123.49 -321.56 120.56 C-321.94 119.39 -322.31 118.22 -322.7 117.02 C-322.91 116.37 -323.12 115.73 -323.33 115.06 C-324.03 112.9 -324.72 110.72 -325.39 108.55 C-332.33 85.96 -332.33 85.96 -341 64 C-341.51 62.86 -342.02 61.73 -342.54 60.55 C-344.82 55.54 -347.09 50.68 -350 46 C-349.67 45.67 -349.34 45.34 -349 45 C-346.98 48.32 -344.99 51.66 -343 55 C-342.36 56.04 -342.36 56.04 -341.7 57.11 C-337.81 63.66 -335.35 70.73 -332.77 77.87 C-331.76 80.66 -330.7 83.44 -329.65 86.22 C-326.91 93.42 -324.38 100.67 -322 108 C-320.09 113.83 -318.09 119.61 -315.96 125.36 C-315.37 126.98 -314.8 128.6 -314.25 130.23 C-312.56 135.18 -310.2 138.85 -307 143 C-308.27 141.9 -309.54 140.79 -310.81 139.69 C-311.52 139.07 -312.23 138.46 -312.96 137.82 C-314.7 136.27 -316.37 134.67 -318 133 C-316.99 142.08 -310.94 149.34 -305 156 C-301.79 153.29 -298.61 150.57 -295.54 147.69 C-287.8 140.42 -279.6 134.65 -270.71 128.85 C-267.32 126.61 -267.32 126.61 -266 123 C-266.41 121.19 -266.84 119.38 -267.38 117.6 C-268.17 114.29 -268.42 111.01 -268.75 107.62 C-269.66 100.46 -271.72 95.75 -276 90 C-276.47 89.34 -276.93 88.68 -277.41 88 C-280.94 83.12 -284.81 78.51 -288.64 73.86 C-290.2 71.97 -291.75 70.07 -293.3 68.17 C-297.46 63.04 -301.7 58.01 -306.12 53.1 C-307.85 51.17 -309.55 49.21 -311.25 47.25 C-322.41 34.4 -322.41 34.4 -335 23 C-335.86 22.28 -336.73 21.55 -337.62 20.8 C-344.52 15.31 -344.52 15.31 -353 14.42 C-357.43 15.7 -359.88 18.07 -362.11 21.91 Z M-238 34 C-237.95 34.96 -237.91 35.91 -237.86 36.89 C-237.44 52.05 -242.43 62.53 -251.44 74.62 C-259.5 86 -265.48 100.42 -263.54 114.53 C-260.96 126.43 -255.01 134.12 -244.98 140.75 C-244.32 141.16 -243.67 141.57 -243 142 C-241.78 139.93 -241.78 139.93 -242 137 C-241.64 137.5 -241.28 138 -240.9 138.51 C-235.82 144.96 -229.98 148.13 -222.69 151.69 C-221.61 152.23 -220.53 152.77 -219.42 153.33 C-215.35 155.38 -211.26 157.39 -207.16 159.39 C-202.9 161.49 -198.79 163.6 -194.88 166.31 C-194.13 166.82 -193.38 167.34 -192.62 167.86 C-191.82 168.43 -191.82 168.43 -191 169 C-191.58 164.25 -193.55 161.03 -196 157 C-188.7 161.59 -181.48 166.27 -174.44 171.25 C-173.58 171.85 -173.58 171.85 -172.71 172.46 C-169.1 175.04 -166.05 177.8 -163 181 C-161.35 176.05 -161.14 171.04 -163.19 166.19 C-165.25 163.7 -167.35 161.84 -170 160 C-170.66 160 -171.32 160 -172 160 C-172 159.34 -172 158.68 -172 158 C-170.5 158.47 -170.5 158.47 -168.96 158.95 C-165.19 160.02 -161.48 160.48 -157.56 160.88 C-146.18 162.17 -135.02 164.33 -124.92 169.95 C-122.88 171.14 -122.88 171.14 -120 172 C-119.18 169.96 -118.37 167.92 -117.56 165.88 C-117.11 164.74 -116.66 163.6 -116.19 162.43 C-114.04 156.23 -113.8 150.48 -114 144 C-113.99 142.83 -113.99 142.83 -113.98 141.63 C-114.1 138.14 -114.29 135.86 -116.55 133.1 C-119.83 130 -119.83 130 -124 129 C-124 128.01 -124 127.02 -124 126 C-123.27 125.73 -122.55 125.45 -121.8 125.17 C-109.74 120.13 -103.98 110.91 -98.84 99.41 C-98.07 97.28 -97.49 95.21 -97 93 C-96.8 92.12 -96.6 91.24 -96.39 90.33 C-95.19 84.46 -94.8 78.98 -95 73 C-95.8 73.29 -96.61 73.58 -97.44 73.88 C-106.7 76.8 -116.04 77.77 -125.67 78.68 C-134.61 79.64 -142.51 81.76 -149.81 87.19 C-152.88 89.46 -155.2 90.45 -159 91 C-158.48 90.5 -157.96 90.01 -157.43 89.5 C-149.12 81.41 -144.28 75.43 -143.89 63.54 C-143.88 60.35 -143.91 57.18 -144 54 C-144.66 53.67 -145.32 53.34 -146 53 C-146.47 53.58 -146.95 54.16 -147.44 54.75 C-153.71 60.26 -161.83 61.87 -169.81 63.5 C-183.53 66.48 -196.99 69.44 -207 80 C-206.59 77.03 -206.18 74.41 -204.97 71.66 C-203.87 68.65 -203.8 66.37 -203.88 63.19 C-203.89 62.21 -203.91 61.24 -203.93 60.23 C-203.95 59.49 -203.98 58.76 -204 58 C-204.66 58.68 -205.32 59.36 -206 60.06 C-208.92 63.02 -212.11 65.63 -215.33 68.25 C-217.17 70.18 -217.61 71.4 -218 74 C-218.66 74 -219.32 74 -220 74 C-219.9 73.02 -219.81 72.04 -219.71 71.04 C-218.81 60.38 -218.38 52.34 -225.41 43.73 C-227.44 41.52 -229.5 39.66 -232 38 C-232.66 38 -233.32 38 -234 38 C-234.33 37.01 -234.66 36.02 -235 35 C-235.99 34.67 -236.98 34.34 -238 34 Z M-95 103 C-97.5 105.94 -98.47 108.18 -99 112 C-98.11 112.29 -97.23 112.58 -96.31 112.88 C-93.5 113.83 -90.76 114.88 -88 116 C-88.8 115.97 -89.59 115.93 -90.41 115.89 C-101.92 115.6 -106.79 119.32 -115 127 C-114.05 128.02 -114.05 128.02 -113.09 129.07 C-108.26 135.86 -108.62 146.09 -109.5 154.12 C-110.75 161.38 -113.7 167.48 -117 174 C-117.69 175.66 -118.36 177.32 -119 179 C-119.47 178.61 -119.95 178.23 -120.43 177.83 C-121.09 177.31 -121.76 176.79 -122.44 176.25 C-123.08 175.74 -123.71 175.23 -124.37 174.7 C-131.83 169.87 -139.36 168.09 -148.06 166.75 C-149.12 166.58 -150.18 166.4 -151.26 166.23 C-153.84 165.81 -156.42 165.4 -159 165 C-158.87 165.86 -158.87 165.86 -158.73 166.74 C-158.05 171.74 -158.02 175.64 -159.44 180.56 C-159.72 181.6 -160.01 182.63 -160.31 183.69 C-160.54 184.45 -160.76 185.22 -161 186 C-162.32 186.33 -163.64 186.66 -165 187 C-165.25 186.42 -165.5 185.84 -165.75 185.24 C-169.93 177.76 -179.04 172.65 -186 168 C-187.21 171.11 -187.21 171.11 -187 175 C-190.8 174.03 -193.7 172.61 -196.88 170.38 C-201.68 167.05 -206.75 164.53 -211.98 161.97 C-216 160 -219.96 157.98 -223.88 155.81 C-230.28 152.28 -236.71 148.92 -243.5 146.19 C-251.78 142.55 -258.24 136.61 -263 129 C-269.38 130.4 -274.49 134.18 -279.57 138.12 C-281.45 139.58 -283.35 140.98 -285.27 142.38 C-302.5 155.07 -311.87 171.93 -318.11 192.25 C-319.41 196.27 -321.06 200.13 -322.73 204.02 C-323.55 205.95 -324.35 207.9 -325.11 209.86 C-329.03 219.82 -334.13 229.51 -340.28 238.29 C-342.27 240.89 -342.27 240.89 -342 244 C-342.66 244 -343.32 244 -344 244 C-344.42 244.88 -344.83 245.76 -345.26 246.66 C-346.91 249.83 -348.73 252.52 -350.88 255.38 C-353.32 258.65 -355.53 261.86 -357.5 265.44 C-360.1 269.78 -363.39 271.12 -368 273 C-366.54 276.55 -366.16 276.92 -362.44 278.69 C-358.03 280.18 -353.63 280.69 -349 281 C-348.16 279.38 -347.33 277.75 -346.5 276.12 C-346.04 275.22 -345.57 274.32 -345.09 273.38 C-343.86 271.13 -343.86 271.13 -344 269 C-343.34 269 -342.68 269 -342 269 C-347.38 286.73 -353.13 302.42 -365.16 316.71 C-373.8 327.43 -378.55 339.4 -380 353 C-379.42 352.61 -378.84 352.23 -378.24 351.83 C-376.63 350.75 -375.01 349.67 -373.39 348.6 C-371.98 347.65 -370.57 346.71 -369.17 345.75 C-366.77 344.1 -364.78 342.93 -362 342 C-362.35 342.98 -362.7 343.95 -363.06 344.96 C-363.52 346.24 -363.98 347.53 -364.44 348.81 C-364.67 349.46 -364.9 350.1 -365.13 350.76 C-367.02 356.04 -368.12 360.01 -368.1 365.64 C-368.09 366.94 -368.09 368.23 -368.09 369.57 C-368.08 370.94 -368.07 372.32 -368.06 373.69 C-368.06 375.07 -368.05 376.45 -368.05 377.84 C-368.04 381.23 -368.02 384.61 -368 388 C-367.34 388.33 -366.68 388.66 -366 389 C-365.65 388.35 -365.3 387.7 -364.93 387.02 C-361.36 380.7 -357.64 375.32 -351 372 C-351.36 372.67 -351.72 373.34 -352.09 374.03 C-356.75 383.65 -357.76 393.54 -355.3 403.96 C-354.37 406.45 -353.3 408.68 -352 411 C-351.48 411.93 -350.97 412.86 -350.43 413.82 C-349.02 416.27 -347.61 418.68 -346 421 C-345.67 421 -345.34 421 -345 421 C-345 416.71 -345 412.42 -345 408 C-343.76 408.7 -342.52 409.4 -341.25 410.12 C-326.11 417.63 -308.71 420.57 -292.34 424.25 C-279.47 427.15 -266.6 430.08 -253.98 433.96 C-244.96 436.69 -235.81 438.92 -226.69 441.23 C-226.03 441.4 -225.37 441.57 -224.69 441.74 C-222.88 442.2 -221.07 442.66 -219.26 443.12 C-216.12 443.97 -213.07 444.96 -210 446 C-197.4 449.15 -184.72 449.3 -171.81 449.31 C-171.01 449.32 -170.2 449.32 -169.37 449.32 C-153.45 449.36 -138.71 448 -123.44 443.12 C-121.09 442.4 -118.74 441.68 -116.39 440.96 C-115.29 440.61 -114.18 440.27 -113.04 439.92 C-109.28 438.78 -105.5 437.78 -101.69 436.81 C-97.22 435.66 -92.95 434.3 -88.62 432.69 C-81.91 430.21 -75.08 428.24 -68.19 426.31 C-66.59 425.87 -66.59 425.87 -64.97 425.41 C-60.41 424.15 -55.86 422.94 -51.24 421.95 C-47.07 421.05 -43.05 419.87 -39 418.56 C-38.23 418.32 -37.46 418.07 -36.66 417.81 C-33.77 416.88 -30.89 415.94 -28 415 C-26.67 414.57 -25.34 414.14 -24.01 413.71 C-20.33 412.52 -16.66 411.31 -12.98 410.11 C-11.5 409.62 -10.03 409.14 -8.55 408.66 C-6.44 407.98 -4.34 407.28 -2.23 406.59 C-1.01 406.18 0.22 405.78 1.48 405.37 C5.28 403.89 8.51 402.1 12 400 C11.67 404.29 11.34 408.58 11 413 C12.65 411.68 14.3 410.36 16 409 C16 408.34 16 407.68 16 407 C16.99 406.67 17.98 406.34 19 406 C23.23 398.51 24.03 389.59 21.88 381.28 C20.18 376.86 17.61 372.93 15 369 C16.92 369.91 18.84 370.83 20.75 371.75 C21.82 372.26 22.88 372.77 23.98 373.3 C28.34 375.76 31.03 378.4 33 383 C33.66 382.67 34.32 382.34 35 382 C38.87 368.71 39.57 355.22 35 342 C34.34 341.01 33.68 340.02 33 339 C39.69 338.56 45.98 339.99 52 343 C51.16 333.65 50.1 326.06 45 318 C44.24 316.79 44.24 316.79 43.47 315.55 C38.43 307.98 32.46 300.55 25.32 294.87 C22.5 292.6 20.96 290.03 19 287 C17.67 285.66 16.34 284.33 15 283 C9.77 276.81 5.94 270.3 2.5 263 C2.15 262.26 1.8 261.52 1.44 260.75 C-1 255.4 -1 255.4 -1 252 C-0.37 252.99 0.25 253.97 0.9 254.99 C1.72 256.29 2.55 257.58 3.38 258.88 C3.79 259.53 4.2 260.18 4.62 260.85 C6.28 263.44 7.82 265.82 10 268 C17.37 267.82 24.75 262.92 30 258 C30 257.34 30 256.68 30 256 C28.38 254.83 28.38 254.83 26.25 253.62 C15.79 246.86 7.93 237.22 1 227 C-0.15 225.4 -1.29 223.79 -2.44 222.19 C-3.63 220.46 -4.82 218.73 -6 217 C-6.71 215.96 -7.42 214.93 -8.16 213.86 C-16.39 201.62 -22.13 188.45 -27.51 174.76 C-31.78 163.94 -36.13 153.48 -43 144 C-43.51 143.3 -44.02 142.59 -44.54 141.87 C-51.27 133.41 -60.97 128.06 -70.31 122.94 C-77.54 118.96 -82.61 114.04 -87.69 107.62 C-90.06 104.94 -91.6 103.97 -95 103 Z M-1 130 C0 132 0 132 0 132 Z M-316 153 C-314.15 157.07 -312.34 160.01 -309 163 C-307.68 161.02 -306.36 159.04 -305 157 C-306.27 156.52 -307.54 156.04 -308.81 155.56 C-309.52 155.3 -310.23 155.03 -310.96 154.75 C-312.63 154.14 -314.31 153.56 -316 153 Z M-26 420 C-27.31 420.45 -28.61 420.9 -29.92 421.35 C-35.96 423.37 -42.1 424.97 -48.25 426.62 C-58.45 429.4 -68.55 432.37 -78.62 435.56 C-90.5 439.32 -102.45 442.56 -114.53 445.59 C-118.42 446.57 -122.21 447.66 -126 449 C-140.39 453.56 -154.74 454.35 -169.71 454.32 C-172.37 454.31 -175.01 454.34 -177.66 454.36 C-194.26 454.42 -210.4 452 -226.14 446.58 C-231.42 444.8 -236.78 443.49 -242.19 442.19 C-251.39 439.93 -260.56 437.53 -269.69 435 C-277.44 432.86 -284.99 430.86 -293 430 C-289.67 434.21 -286.22 437.67 -282 441 C-280.75 442.03 -280.75 442.03 -279.46 443.09 C-278.57 443.82 -277.67 444.56 -276.75 445.31 C-275.9 446.01 -275.05 446.71 -274.17 447.43 C-272.18 449.2 -272.18 449.2 -270 449 C-270 449.66 -270 450.32 -270 451 C-268.35 452.03 -266.68 453.02 -265 454 C-264.56 454.47 -264.11 454.94 -263.66 455.43 C-261.56 457.42 -259.42 458.43 -256.81 459.69 C-255.76 460.2 -254.7 460.72 -253.61 461.25 C-252.75 461.66 -252.75 461.66 -251.87 462.09 C-248.4 463.78 -244.95 465.52 -241.5 467.25 C-240.16 467.92 -238.81 468.59 -237.47 469.27 C-234.98 470.51 -232.49 471.76 -230 473 C-252.83 469.42 -280.84 450.79 -294.31 432.62 C-298.7 427.29 -305.53 426.36 -312 425 C-311.41 430.51 -310.43 435.65 -309 441 C-310.98 438.36 -312.96 435.72 -315 433 C-317.41 434.99 -317.41 434.99 -317.44 438.88 C-317.26 447.29 -312.97 455.37 -308 462 C-311.32 459.86 -314.22 457.78 -317 455 C-317.66 455 -318.32 455 -319 455 C-322.07 467.45 -323.08 481.98 -318 494 C-317.01 493.5 -317.01 493.5 -316 493 C-315.55 490.75 -315.22 488.47 -314.94 486.19 C-313.96 478.36 -313.96 478.36 -313 475 C-312.34 475 -311.68 475 -311 475 C-311.02 475.89 -311.05 476.79 -311.07 477.71 C-311.26 490.47 -309.71 499.94 -303 511 C-302.34 511.33 -301.68 511.66 -301 512 C-300.85 511.32 -300.71 510.65 -300.55 509.95 C-298.49 501.76 -298.49 501.76 -294.81 499.38 C-293.88 498.92 -292.96 498.47 -292 498 C-292.43 498.74 -292.43 498.74 -292.88 499.5 C-297.18 507.39 -296.1 513.57 -294 522 C-293.6 521.62 -293.19 521.23 -292.78 520.84 C-288.27 516.74 -283.75 514.13 -278.19 511.69 C-277.04 511.17 -277.04 511.17 -275.88 510.64 C-274.48 510 -273.08 509.38 -271.68 508.75 C-270.44 508.2 -269.21 507.61 -268 507 C-267.85 507.75 -267.71 508.5 -267.55 509.27 C-263.8 526.39 -251.05 540.69 -238 552 C-237.34 552 -236.68 552 -236 552 C-235.01 545.73 -234.02 539.46 -233 533 C-232.34 533 -231.68 533 -231 533 C-230.84 533.96 -230.84 533.96 -230.67 534.94 C-229.36 542.09 -227.78 548.3 -223 554 C-219.85 553.39 -217.81 552.36 -215.25 550.44 C-214.64 549.98 -214.02 549.53 -213.39 549.06 C-212.93 548.71 -212.47 548.36 -212 548 C-212.88 552.75 -212.88 552.75 -214 555 C-202.37 554.09 -191.04 550.58 -182 543 C-180.38 540.97 -179.1 539 -177.9 536.7 C-177 535 -177 535 -175 533 C-175.28 535.98 -175.58 538.96 -175.88 541.94 C-175.95 542.77 -176.03 543.6 -176.11 544.46 C-176.68 550.1 -177.67 555.48 -179 561 C-166.67 557.85 -153.23 551.93 -146 541 C-143.09 536.28 -143.09 536.28 -142 531 C-141.34 531 -140.68 531 -140 531 C-140.12 531.64 -140.23 532.27 -140.35 532.92 C-140.88 535.82 -141.41 538.72 -141.94 541.62 C-142.12 542.62 -142.3 543.62 -142.49 544.65 C-143.36 549.43 -144.22 554.21 -145 559 C-127.16 551.11 -116.52 537.65 -109 520 C-106.52 513.32 -105.41 507.99 -107 501 C-107.64 499.65 -108.3 498.31 -109 497 C-110.15 497.56 -111.31 498.11 -112.5 498.69 C-118.8 501.49 -125.36 503.43 -131.96 505.39 C-133.9 505.97 -135.85 506.57 -137.79 507.17 C-138.98 507.53 -140.16 507.88 -141.38 508.25 C-142.41 508.56 -143.45 508.88 -144.52 509.2 C-148.99 510.23 -153.44 510.63 -158 511 C-157.38 510.82 -156.76 510.65 -156.11 510.47 C-144.95 507.31 -133.83 504.08 -122.88 500.25 C-121.66 499.83 -121.66 499.83 -120.42 499.4 C-116.12 497.87 -112.05 496.15 -108 494 C-109.9 483.24 -109.9 483.24 -115.69 474.38 C-128.67 468.98 -143.62 469.89 -157.44 469.56 C-167.46 469.29 -177.45 468.89 -187.44 468.06 C-188.88 467.95 -188.88 467.95 -190.36 467.84 C-191.23 467.76 -192.1 467.68 -193 467.6 C-193.75 467.53 -194.51 467.46 -195.28 467.39 C-195.85 467.26 -196.42 467.13 -197 467 C-197.33 466.34 -197.66 465.68 -198 465 C-197.37 465.06 -196.75 465.12 -196.1 465.18 C-178.6 466.8 -161.19 467.22 -143.62 467.25 C-142.02 467.26 -142.02 467.26 -140.39 467.27 C-137.32 467.28 -134.24 467.27 -131.16 467.27 C-129.78 467.27 -129.78 467.27 -128.37 467.28 C-123.18 467.24 -118.91 466.68 -114 465 C-113.17 464.73 -112.34 464.46 -111.48 464.18 C-110.72 463.94 -109.97 463.69 -109.19 463.44 C-104.8 462.1 -100.6 461.51 -96.03 461.21 C-93.93 461.11 -93.93 461.11 -92 460 C-92.33 460.66 -92.66 461.32 -93 462 C-96.62 462.96 -100.25 463.74 -103.92 464.5 C-105.96 464.94 -107.98 465.47 -110 466 C-110.33 466.66 -110.66 467.32 -111 468 C-110.03 470.36 -109 472.6 -107.88 474.88 C-107.22 476.24 -106.57 477.6 -105.92 478.96 C-105.6 479.64 -105.27 480.32 -104.94 481.02 C-103.61 483.83 -102.35 486.65 -101.12 489.5 C-100.74 490.4 -100.35 491.29 -99.95 492.22 C-99 495 -99 495 -98 502 C-99.98 497.71 -101.96 493.42 -104 489 C-105.37 493.1 -103.89 495.72 -102.38 499.56 C-102.1 500.28 -101.82 501 -101.54 501.74 C-99.66 506.54 -97.56 511.17 -95.17 515.74 C-93.27 519.41 -91.64 523.21 -90 527 C-88.7 524.78 -88.7 524.78 -89 521 C-88.36 521.97 -87.72 522.94 -87.06 523.94 C-85.3 526.76 -85.3 526.76 -84 528 C-81.33 528.14 -78.68 528.04 -76 528 C-76.48 526.04 -76.96 524.08 -77.44 522.12 C-77.7 521.03 -77.97 519.94 -78.25 518.82 C-78.88 516.08 -78.88 516.08 -80 514 C-76.66 515.67 -75.89 519.34 -74.41 522.65 C-72.83 525.29 -71.88 526.02 -69 527 C-65.83 527.17 -65.83 527.17 -63 527 C-64.16 518.29 -66.83 510.62 -70.12 502.5 C-71.05 500.2 -71.97 497.9 -72.88 495.59 C-73.49 494.09 -73.49 494.09 -74.11 492.55 C-75 490 -75 490 -75 487 C-72.69 491.29 -70.38 495.58 -68 500 C-66.66 495.99 -67.87 493.24 -69.12 489.38 C-69.36 488.65 -69.59 487.93 -69.82 487.19 C-71.63 481.72 -73.84 476.83 -77 472 C-77.78 470.8 -77.78 470.8 -78.58 469.57 C-80.03 467.36 -81.51 465.18 -83 463 C-83.66 462.01 -84.32 461.02 -85 460 C-84.36 459.77 -83.72 459.55 -83.06 459.31 C-67.13 452.48 -52.34 441.94 -39.29 430.64 C-35.18 427.09 -35.18 427.09 -33 426 C-32.86 426.64 -32.71 427.28 -32.56 427.94 C-32.19 429.98 -32.19 429.98 -31 431 C-37.13 435.44 -43.29 439.48 -50 443 C-50 443.66 -50 444.32 -50 445 C-51.08 445.41 -51.08 445.41 -52.19 445.83 C-54.91 446.96 -57.42 448.25 -60 449.69 C-64.3 452.06 -68.61 454.42 -72.94 456.75 C-74 457.32 -75.06 457.89 -76.15 458.48 C-78.42 459.69 -80.69 460.87 -83 462 C-82.26 462.39 -81.51 462.78 -80.75 463.19 C-75.81 466.44 -73.39 470.88 -70.88 476.12 C-69.37 479.25 -67.93 482.11 -66 485 C-39.79 469.71 -39.79 469.71 -22 446 C-21.37 442.94 -21.15 440.14 -21 437 C-24.96 439.48 -24.96 439.48 -29 442 C-28.09 440.8 -27.18 439.61 -26.25 438.38 C-25.7 437.64 -25.16 436.9 -24.59 436.14 C-23.33 434.44 -22.04 432.75 -20.75 431.06 C-18.52 427.17 -17.74 423.39 -17 419 C-20.13 417.44 -22.84 418.96 -26 420 Z M-28.06 460.88 C-30.22 462.77 -30.22 462.77 -30 465 C-30.68 465.21 -31.36 465.41 -32.06 465.62 C-34.65 466.83 -36 467.77 -38.06 469.62 C-46.38 477.01 -55.98 482.31 -66 487 C-65.82 487.55 -65.64 488.1 -65.45 488.66 C-63.02 496.33 -61.48 504.1 -60 512 C-59.01 512 -58.02 512 -57 512 C-50.1 504.4 -48.01 494.75 -46 485 C-45.5 492.92 -45.5 492.92 -45 501 C-39.95 499.62 -39.95 499.62 -38.69 496.38 C-38.46 495.59 -38.23 494.81 -38 494 C-37.34 494 -36.68 494 -36 494 C-35.01 490.7 -34.02 487.4 -33 484 C-32.34 484 -31.68 484 -31 484 C-30.5 484.99 -30.5 484.99 -30 486 C-26.34 477.01 -24.69 468.72 -25 459 C-26.34 458.89 -26.34 458.89 -28.06 460.88 Z M-315 499 C-319.57 505.71 -325 513.7 -325 522 C-325.66 522 -326.32 522 -327 522 C-343.92 571.67 -353.86 624.34 -353 677 C-349.65 674.2 -347.92 670.43 -345.94 666.62 C-345.41 665.63 -345.41 665.63 -344.87 664.62 C-343.04 661.15 -341.38 657.69 -340 654 C-339.34 654 -338.68 654 -338 654 C-336.42 652.21 -336.42 652.21 -334.88 650 C-334.34 649.26 -333.8 648.51 -333.24 647.75 C-332.83 647.17 -332.42 646.6 -332 646 C-332.74 649.14 -333.76 652.02 -335 655 C-335.66 655 -336.32 655 -337 655 C-338.16 657.35 -339.3 659.7 -340.44 662.06 C-340.76 662.72 -341.09 663.38 -341.42 664.05 C-341.89 665.03 -341.89 665.03 -342.37 666.04 C-342.8 666.92 -342.8 666.92 -343.24 667.83 C-345.9 675.45 -345.24 683.98 -345.25 691.94 C-345.25 692.63 -345.25 693.33 -345.25 694.04 C-345.24 704.33 -344.78 714.03 -342 724 C-341.69 725.13 -341.37 726.25 -341.05 727.41 C-340.1 730.63 -339.06 733.82 -338 737 C-337.72 737.93 -337.43 738.85 -337.14 739.8 C-333.62 750.99 -328.77 761.71 -324.05 772.43 C-316.19 790.44 -310.21 809.13 -304.17 827.81 C-303.83 828.84 -303.5 829.87 -303.16 830.93 C-301.49 836.09 -299.83 841.25 -298.18 846.41 C-297.56 848.33 -296.94 850.25 -296.32 852.18 C-296.04 853.05 -295.77 853.92 -295.48 854.82 C-292.58 864.64 -292.58 864.64 -286.06 872 C-283.14 872.95 -281.04 873.27 -278 873 C-278.33 872.17 -278.66 871.35 -279 870.5 C-280.17 866.41 -280.15 863.23 -280 859 C-279.76 859.75 -279.52 860.5 -279.27 861.27 C-278.93 862.25 -278.6 863.24 -278.25 864.25 C-277.93 865.22 -277.6 866.2 -277.27 867.2 C-275.85 870.32 -274.76 871.96 -272 874 C-268.74 874.7 -268.74 874.7 -265.25 874.75 C-264.08 874.81 -262.91 874.86 -261.7 874.92 C-260.81 874.95 -259.92 874.97 -259 875 C-259.16 874.28 -259.33 873.57 -259.5 872.83 C-259.99 870.04 -260.1 867.52 -260.06 864.69 C-260.05 863.8 -260.04 862.92 -260.04 862.01 C-260.02 861.35 -260.01 860.68 -260 860 C-259.84 860.68 -259.68 861.35 -259.52 862.05 C-258.45 866.14 -257.56 869.31 -254.88 872.62 C-250.85 874.55 -247.39 874.68 -243 874 C-240.58 872.84 -238.88 871.88 -237 870 C-236.9 867.01 -236.86 864.05 -236.88 861.06 C-236.87 860.23 -236.87 859.39 -236.86 858.53 C-236.86 857.72 -236.87 856.92 -236.87 856.1 C-236.87 854.99 -236.87 854.99 -236.87 853.86 C-236.89 851.91 -236.89 851.91 -238 850 C-237.34 850 -236.68 850 -236 850 C-234.16 857.41 -233.76 864.38 -234 872 C-227.55 871.46 -221.67 869.67 -217 865 C-216.52 857.25 -217.64 849.67 -218.69 842 C-218.77 841.35 -218.86 840.7 -218.95 840.03 C-221.05 824.52 -223.69 809.06 -228 794 C-228.49 791.51 -228.94 789 -229.38 786.5 C-231.76 772.69 -231.76 772.69 -236.69 759.7 C-237.12 758.81 -237.55 757.92 -238 757 C-237.67 756.34 -237.34 755.68 -237 755 C-233.7 760.28 -230.4 765.56 -227 771 C-225.76 767.27 -226.23 764.9 -226.75 760.99 C-226.84 760.29 -226.94 759.58 -227.03 758.85 C-227.35 756.53 -227.67 754.2 -228 751.88 C-228.11 751.08 -228.22 750.28 -228.34 749.46 C-231.16 729.29 -235.28 709.37 -240.35 689.64 C-241.21 686.13 -241.91 682.61 -242.57 679.06 C-243 676.82 -243 676.82 -244 674 C-243.34 674 -242.68 674 -242 674 C-241.82 674.72 -241.64 675.43 -241.46 676.17 C-240.12 681.53 -238.77 686.89 -237.39 692.24 C-229.86 721.47 -222.39 751.62 -223 782 C-223.66 782.33 -224.32 782.66 -225 783 C-224.67 784.48 -224.67 784.48 -224.34 785.99 C-224.19 786.66 -224.04 787.34 -223.88 788.03 C-223.54 789.58 -223.19 791.13 -222.84 792.68 C-221.71 797.75 -220.61 802.81 -219.54 807.89 C-219.28 809.08 -219.03 810.26 -218.77 811.48 C-218.27 813.83 -217.77 816.17 -217.28 818.52 C-215.89 824.94 -214.41 831.3 -211 837 C-202.47 841.26 -187.6 839.16 -178.15 839.13 C-175.8 839.12 -173.46 839.13 -171.12 839.14 C-167.41 839.14 -163.71 839.11 -160.01 839.04 C-158.12 839 -156.24 838.99 -154.36 838.98 C-153.29 838.94 -152.23 838.91 -151.14 838.87 C-150.23 838.85 -149.32 838.82 -148.39 838.8 C-144.65 837.55 -143.77 835.45 -142 832 C-141.13 829.1 -140.62 826.19 -140.15 823.2 C-140 822.36 -139.86 821.53 -139.71 820.67 C-139.25 818.01 -138.81 815.35 -138.38 812.69 C-137.93 810.04 -137.47 807.39 -137.02 804.74 C-136.74 803.1 -136.46 801.46 -136.19 799.81 C-135.41 795.14 -134.44 790.6 -133.19 786.04 C-132.95 783.45 -133.75 782.23 -135 780 C-137.97 754.58 -131.22 717.55 -119 695 C-119.23 696.03 -119.46 697.07 -119.7 698.13 C-120.4 701.28 -121.1 704.42 -121.79 707.57 C-122.59 711.17 -123.41 714.77 -124.24 718.37 C-126.65 728.92 -128.68 739.48 -130.31 750.19 C-130.57 751.83 -130.57 751.83 -130.83 753.51 C-131.88 760.72 -132.2 767.72 -132 775 C-129.49 772.55 -127.49 770.43 -125.88 767.31 C-124 764 -124 764 -122 763 C-122.6 764.18 -123.2 765.35 -123.81 766.56 C-127.96 775.89 -128.92 786.38 -130.44 796.4 C-131.03 800.17 -131.64 803.93 -132.25 807.7 C-132.47 809.02 -132.69 810.35 -132.9 811.67 C-133.23 813.69 -133.56 815.7 -133.9 817.72 C-135.78 829.12 -137.18 840.24 -137.25 851.81 C-137.28 853.18 -137.28 853.18 -137.31 854.58 C-137.34 859.52 -137.32 863.05 -134 867 C-130.04 869.47 -126.57 870.31 -122 871 C-121.97 870.43 -121.95 869.87 -121.92 869.29 C-121.81 866.73 -121.69 864.18 -121.56 861.62 C-121.52 860.74 -121.48 859.85 -121.44 858.93 C-121.4 858.08 -121.36 857.23 -121.32 856.35 C-121.26 855.17 -121.26 855.17 -121.21 853.97 C-121 852 -121 852 -120 850 C-119.67 857.26 -119.34 864.52 -119 872 C-117.12 872.06 -115.25 872.12 -113.31 872.19 C-111.73 872.24 -111.73 872.24 -110.11 872.29 C-106.52 871.95 -104.79 871.27 -102 869 C-100.59 866.45 -100.59 866.45 -99.75 863.56 C-99.44 862.62 -99.12 861.67 -98.8 860.69 C-98.14 858.48 -97.56 856.24 -97 854 C-97.33 859.94 -97.66 865.88 -98 872 C-90.78 872.51 -90.78 872.51 -84 870.62 C-80.57 866.13 -79 860.64 -79 855 C-78.34 855 -77.68 855 -77 855 C-77.99 860.28 -78.98 865.56 -80 871 C-73.72 869.98 -73.72 869.98 -68.19 867.06 C-63.56 860.59 -61.83 852.7 -59.83 845.09 C-58.26 839.25 -56.51 833.47 -54.79 827.68 C-53.9 824.66 -53.02 821.63 -52.14 818.61 C-48.39 805.69 -44.36 792.95 -39.82 780.3 C-37.7 774.32 -35.74 768.29 -33.75 762.26 C-32.96 759.89 -32.16 757.52 -31.36 755.16 C-31.09 754.36 -30.82 753.56 -30.55 752.73 C-30.03 751.22 -29.52 749.7 -29 748.19 C-26.11 739.59 -24.28 730.81 -22.44 721.94 C-22.11 720.36 -22.11 720.36 -21.77 718.76 C-21.55 717.73 -21.34 716.71 -21.12 715.65 C-20.93 714.73 -20.74 713.82 -20.54 712.87 C-19.01 704.75 -18.82 696.93 -18.81 688.69 C-18.8 687.42 -18.79 686.15 -18.78 684.85 C-18.76 673.82 -20.09 664.88 -25 655 C-25.38 654.23 -25.76 653.46 -26.15 652.66 C-27.09 650.77 -28.04 648.88 -29 647 C-28.67 646.67 -28.34 646.34 -28 646 C-21.66 656.68 -16.46 667.41 -12 679 C-11.67 679 -11.34 679 -11 679 C-10.81 662.53 -11.29 646.19 -12.31 629.75 C-12.38 628.64 -12.45 627.54 -12.52 626.39 C-13.48 610.39 -14.66 594.46 -16.68 578.55 C-16.97 576.26 -17.23 573.97 -17.49 571.67 C-18.51 563.12 -20.23 554.77 -22.06 546.37 C-22.78 543.05 -23.43 539.73 -24 536.38 C-26.28 523.57 -29.65 511.25 -34 499 C-34.56 499.61 -35.11 500.22 -35.69 500.84 C-38.05 503.05 -40.07 504.18 -43 505.5 C-46.62 507.24 -49.52 508.73 -52 512 C-52 512.66 -52 513.32 -52 514 C-52.66 514 -53.32 514 -54 514 C-56.17 516.05 -57.77 518.27 -59 521 C-58.48 524.87 -58.48 524.87 -57 528 C-55.99 528.15 -55.99 528.15 -54.95 528.3 C-47.77 529.5 -47.77 529.5 -44.5 531.62 C-40.65 537.73 -40.64 544.94 -40.69 551.94 C-40.69 552.85 -40.69 553.76 -40.7 554.7 C-40.89 567.11 -41.64 583.79 -51 593 C-53.99 594.55 -53.99 594.55 -57.31 595.75 C-58.4 596.16 -59.49 596.56 -60.61 596.98 C-67.19 598.96 -73.63 599.18 -80.44 599.19 C-81.65 599.21 -81.65 599.21 -82.88 599.22 C-89.91 599.24 -96.42 598.47 -102.44 594.5 C-103.1 594.08 -103.75 593.65 -104.43 593.22 C-106 592 -106 592 -107 590 C-107.61 580.66 -106.46 571.59 -105.06 562.38 C-104.7 559.9 -104.33 557.43 -103.97 554.96 C-103.8 553.79 -103.63 552.62 -103.45 551.41 C-102.91 547.33 -102.57 543.26 -102.31 539.15 C-102 537 -102 537 -100.31 534.44 C-98.38 530.86 -99.4 528.16 -100.26 524.3 C-100.96 521.76 -100.96 521.76 -103 519 C-103.74 520.79 -103.74 520.79 -104.5 522.62 C-114.61 545.07 -128.04 557.85 -151 567 C-150.84 566.25 -150.69 565.5 -150.53 564.73 C-150.33 563.75 -150.14 562.76 -149.94 561.75 C-149.74 560.78 -149.54 559.8 -149.34 558.8 C-149.02 556.13 -149.14 554.51 -150 552 C-151.33 553.14 -151.33 553.14 -152.69 554.31 C-161.56 561.65 -170.82 563.55 -182 565 C-182.1 559.87 -182.04 555.05 -181 550 C-186.61 551.78 -191.94 554.01 -197.25 556.56 C-207.07 560.68 -217.57 560.24 -228 560 C-227.01 558.68 -226.02 557.36 -225 556 C-225.47 555.57 -225.95 555.13 -226.44 554.69 C-228 553 -228 553 -229 550 C-229.66 550 -230.32 550 -231 550 C-231.33 549.34 -231.66 548.68 -232 548 C-232.99 552.95 -232.99 552.95 -234 558 C-250.12 550.35 -263.3 535.39 -270 519 C-270.38 517.34 -270.73 515.68 -271 514 C-278.82 516.05 -284.94 519.6 -291 525 C-292.32 527.12 -292.32 527.12 -293 529 C-295.97 526.31 -297.21 523.58 -298.74 519.94 C-299.92 517.81 -299.92 517.81 -302.4 516.62 C-305.69 514.57 -306.87 512.43 -308.75 509.06 C-309.34 508.02 -309.94 506.98 -310.55 505.91 C-311.73 503.53 -312.53 501.59 -313 499 C-313.66 499 -314.32 499 -315 499 Z M-99 537 C-99.19 538.65 -99.32 540.31 -99.43 541.97 C-99.54 543.53 -99.54 543.53 -99.65 545.12 C-99.72 546.23 -99.8 547.35 -99.88 548.5 C-100.54 557.64 -101.57 566.5 -103.41 575.48 C-104.19 580.13 -104.66 584.3 -102.94 588.75 C-99.27 593.01 -93.43 594.73 -87.92 595.16 C-68.17 596.11 -68.17 596.11 -51 588 C-44.09 577.53 -43.72 564.67 -43.62 552.5 C-43.61 551.47 -43.6 550.45 -43.58 549.39 C-43.62 543.56 -43.8 538.97 -47 534 C-52.81 530.25 -58.75 530.57 -65.5 530.69 C-66.56 530.7 -67.62 530.71 -68.71 530.72 C-85 530.29 -85 530.29 -99 537 Z M-355 610 C-360.74 617.45 -366.08 624.97 -371 633 C-371.5 633.79 -372 634.57 -372.52 635.38 C-379.73 646.92 -384.75 658.8 -388 672 C-388.29 673.12 -388.57 674.23 -388.87 675.38 C-391.79 687.19 -392.18 698.74 -392.19 710.88 C-392.2 712.15 -392.21 713.42 -392.22 714.73 C-392.24 723.01 -391.5 730.86 -390 739 C-389.81 740.1 -389.62 741.2 -389.42 742.33 C-386.19 760.04 -374.63 779.34 -360.86 790.78 C-359.09 792.18 -359.09 792.18 -357 792 C-356.67 792.99 -356.34 793.98 -356 795 C-349.71 800.14 -344.11 802.87 -336 803 C-336.88 803.43 -336.88 803.43 -337.77 803.86 C-341.33 805.68 -344.64 807.85 -348 810 C-348.76 810.47 -349.52 810.93 -350.31 811.41 C-357.17 815.74 -362.53 819.83 -364.5 828 C-365.33 833.51 -364.4 837.62 -361.56 842.44 C-361.05 842.95 -360.53 843.47 -360 844 C-359.01 844 -358.02 844 -357 844 C-356.91 842.28 -356.91 842.28 -356.82 840.54 C-356.73 839.04 -356.65 837.55 -356.56 836.06 C-356.52 835.31 -356.48 834.55 -356.44 833.78 C-356.11 828.11 -356.11 828.11 -355 827 C-354.94 828.12 -354.88 829.24 -354.82 830.39 C-354.73 831.87 -354.65 833.34 -354.56 834.81 C-354.52 835.55 -354.48 836.29 -354.44 837.05 C-354.26 840.23 -354.01 842.96 -353 846 C-347.56 848.53 -341.94 849.39 -336 849 C-335.5 842.57 -335.5 842.57 -335 836 C-334.81 836.93 -334.61 837.85 -334.41 838.81 C-334.02 840.6 -334.02 840.6 -333.62 842.44 C-333.37 843.63 -333.11 844.83 -332.85 846.06 C-332.57 847.03 -332.29 848 -332 849 C-328.81 850.59 -325.37 850.1 -321.88 850.06 C-320.74 850.06 -320.74 850.06 -319.59 850.05 C-317.73 850.04 -315.86 850.02 -314 850 C-313.67 847.03 -313.34 844.06 -313 841 C-312.5 845.45 -312.5 845.45 -312 850 C-309.03 850 -306.06 850 -303 850 C-305.12 840.31 -307.53 830.92 -310.79 821.54 C-311.91 818.27 -312.91 815 -313.88 811.69 C-315.64 805.87 -317.82 800.29 -320.08 794.66 C-323.33 786.42 -326.04 778 -328.72 769.57 C-330.68 763.51 -332.9 757.91 -335.85 752.28 C-337.56 748.89 -338.84 745.4 -340.06 741.81 C-340.31 741.09 -340.56 740.36 -340.82 739.61 C-347.03 721.28 -349.15 703.22 -350 684 C-352.22 685.93 -352.22 685.93 -353 689 C-353.99 689.5 -353.99 689.5 -355 690 C-356.46 670.57 -356.2 651.31 -355.06 631.88 C-355.02 631.12 -354.98 630.37 -354.93 629.59 C-354.8 627.43 -354.67 625.28 -354.54 623.12 C-354.46 621.87 -354.38 620.61 -354.3 619.32 C-354.04 616.47 -353.63 613.79 -353 611 C-353.66 610.67 -354.32 610.34 -355 610 Z M-6 628 C-6.02 629.1 -6.04 630.19 -6.06 631.32 C-6.81 671.45 -6.81 671.45 -9 690 C-11.61 688.69 -11.68 687.64 -12.62 684.94 C-13.02 683.84 -13.02 683.84 -13.41 682.71 C-13.61 682.15 -13.8 681.58 -14 681 C-14.33 681 -14.66 681 -15 681 C-15.01 681.62 -15.03 682.24 -15.04 682.89 C-15.69 707.69 -18.75 730.44 -28.2 753.47 C-31.56 761.95 -33.8 770.74 -36.16 779.54 C-38.11 786.83 -40.24 793.94 -42.72 801.07 C-44.91 807.56 -46.62 814.21 -48.41 820.82 C-50.13 827.1 -52.05 833.26 -54.22 839.39 C-55.23 842.78 -55.32 845.5 -55 849 C-50.35 849.27 -50.35 849.27 -46 848 C-46 847.01 -46 846.02 -46 845 C-45.34 845 -44.68 845 -44 845 C-44 846.32 -44 847.64 -44 849 C-41.23 848.75 -38.46 848.47 -35.69 848.19 C-34.9 848.12 -34.12 848.05 -33.31 847.97 C-32.55 847.89 -31.79 847.81 -31.01 847.73 C-30.32 847.66 -29.62 847.59 -28.9 847.52 C-26.48 846.86 -25.52 845.98 -24 844 C-23.27 840.39 -23.27 840.39 -23 837 C-23 839.97 -23 842.94 -23 846 C-17.5 844.81 -14.72 843.46 -11 839 C-7.62 833.32 -7.6 826.5 -8.62 820.12 C-12.75 810.74 -23.69 806.2 -32.75 802.56 C-34.16 802.03 -35.58 801.51 -37 801 C-26.04 801.19 -15.94 806.61 -8 814 C-6.54 816.24 -6.54 816.24 -5.62 818.31 C-5.31 819.01 -4.99 819.71 -4.66 820.43 C-4.44 820.95 -4.23 821.46 -4 822 C8.61 817.65 18.32 803.48 24.38 792.06 C31.21 777.5 34.73 761.12 29.93 745.46 C28.63 742.02 26.99 739.08 25 736 C25.66 736 26.32 736 27 736 C27.66 737.32 28.32 738.64 29 740 C29.66 739.67 30.32 739.34 31 739 C34.61 726.97 34 715.24 28.52 703.96 C24.93 697.35 21.06 692.47 15 688 C15.42 687.53 15.84 687.06 16.28 686.57 C16.83 685.95 17.37 685.33 17.94 684.69 C18.76 683.77 18.76 683.77 19.59 682.82 C22.91 678.53 22.56 673.17 22 668 C19.56 663.13 15 661.05 10.42 658.43 C7.73 656.84 5.35 655.04 3 653 C3.66 652.67 4.32 652.34 5 652 C5.7 642.39 1.96 635.38 -4 628 C-4.66 628 -5.32 628 -6 628 Z " fill="#000000" transform="translate(821,196)"/>
<path d="M0 0 C12.12 11.86 21.09 25.06 21.5 42.44 C21.24 48.75 20.68 54.41 15.94 59 C14 60 14 60 12 60 C10.85 60.72 9.73 61.47 8.62 62.25 C3.47 65.59 -2.15 67.25 -8 69 C-8 69.66 -8 70.32 -8 71 C-28.3 78.07 -28.3 78.07 -34 76 C-34.99 75.01 -34.99 75.01 -36 74 C-38.45 73.17 -40.89 72.41 -43.38 71.69 C-50.46 69.57 -57.24 67.01 -64 64 C-63.67 63.34 -63.34 62.68 -63 62 C-61.02 62.33 -59.04 62.66 -57 63 C-57.74 62.15 -58.49 61.31 -59.25 60.44 C-66.69 51.43 -68.34 42.62 -68.19 31.12 C-68.19 30.18 -68.19 29.23 -68.19 28.25 C-68.14 21.28 -68.14 21.28 -67 19 C-68.26 19.05 -68.26 19.05 -69.55 19.11 C-70.65 19.13 -71.75 19.16 -72.88 19.19 C-74.51 19.24 -74.51 19.24 -76.18 19.29 C-77.11 19.2 -78.04 19.1 -79 19 C-79.66 18.01 -80.32 17.02 -81 16 C-79.35 15.67 -77.7 15.34 -76 15 C-76 14.34 -76 13.68 -76 13 C-76.93 12.92 -77.86 12.83 -78.81 12.75 C-82 12 -82 12 -85 8 C-81.04 7.67 -77.08 7.34 -73 7 C-74.32 6.01 -75.64 5.02 -77 4 C-77 3.34 -77 2.68 -77 2 C-75.35 1.67 -73.7 1.34 -72 1 C-72.99 0.01 -73.98 -0.98 -75 -2 C-74.67 -2.99 -74.34 -3.98 -74 -5 C-72.89 -4.97 -71.78 -4.93 -70.63 -4.89 C-63.18 -4.73 -56.61 -4.67 -49.5 -7.2 C-33.19 -12.44 -13.44 -11.29 0 0 Z M-26.94 8.31 C-28.26 11 -28.26 11 -27.56 14.06 C-25.53 17.88 -23.91 19.15 -20 21 C-15.51 21.72 -11.87 21.29 -7.56 19.88 C-4.31 17.49 -3.63 15.96 -3 12 C-3.66 8.04 -4.87 7.1 -8.12 4.69 C-15.13 1.1 -21.84 2.22 -26.94 8.31 Z M-60 14 C-60.58 14.47 -61.15 14.95 -61.75 15.44 C-67.16 22.2 -65.72 33.89 -65 42 C-64.15 46 -62.89 49.39 -61 53 C-60.39 54.17 -60.39 54.17 -59.76 55.37 C-57.54 59.24 -56.08 61.1 -52 63 C-51.46 63.64 -50.93 64.28 -50.38 64.94 C-46.77 68.07 -42.58 68.89 -38 70 C-37.24 70.19 -36.47 70.38 -35.68 70.57 C-32.12 71.14 -28.6 71.14 -25 71.12 C-24.3 71.13 -23.6 71.13 -22.88 71.14 C-19.13 71.13 -15.65 70.9 -12 70 C-12 69.67 -12 69.34 -12 69 C-13.27 68.96 -14.53 68.93 -15.84 68.89 C-17.54 68.82 -19.24 68.75 -20.94 68.69 C-21.77 68.66 -22.6 68.64 -23.46 68.62 C-32.69 68.22 -40.04 66.07 -46.85 59.65 C-54.95 49.66 -57.89 37.66 -57 25 C-56.22 20.93 -55.16 16.98 -54 13 C-53.66 11.67 -53.32 10.34 -53 9 C-55.47 9 -58.11 12.37 -60 14 Z M-54 33 C-53.56 43.44 -51.04 50.98 -43.27 58.21 C-34.14 65.42 -23.67 67.86 -12.23 66.61 C-3.85 65.03 5.22 62.56 11 56 C14.32 50.35 14.35 45.35 14 39 C12.04 40.89 10.17 42.79 8.46 44.91 C1.91 52.93 -4.84 55.64 -15 57 C-21.23 57.57 -27.28 56.56 -33 54 C-35.1 52.11 -36.74 50.16 -38.45 47.91 C-40.05 45.73 -40.05 45.73 -43.19 43.94 C-45.95 42.04 -46.63 41.2 -48.12 38.38 C-50.04 34.92 -50.58 34.43 -54 33 Z " fill="#000000" transform="translate(572,459)"/>
<path d="M0 0 C6.79 1.91 16.3 1.99 23 -0.12 C21.25 5.62 21.25 5.62 19 7.88 C22.3 7.21 25.6 6.56 29 5.88 C27.75 10.61 25.16 12.71 21.46 15.64 C20.98 16.05 20.5 16.46 20 16.88 C20 17.2 20 17.54 20 17.88 C21.98 18.2 23.96 18.54 26 18.88 C26 19.87 26 20.86 26 21.88 C22.17 23.68 19.22 24.16 15 23.88 C14.34 23.55 13.68 23.21 13 22.88 C13.22 23.4 13.43 23.92 13.66 24.46 C18.15 36.98 17.19 50.72 12 62.88 C11.03 64.56 10.04 66.24 9 67.88 C10.65 67.55 12.3 67.22 14 66.88 C12.53 71.68 8.51 73.21 4.38 75.44 C3.34 76.02 3.34 76.02 2.29 76.61 C-2.35 79.16 -7 81.12 -12 82.88 C-10.35 83.21 -8.7 83.53 -7 83.88 C-7 84.53 -7 85.19 -7 85.88 C-13.7 86.04 -19.96 85.45 -26.56 84.38 C-27.48 84.23 -28.39 84.09 -29.33 83.94 C-31.55 83.59 -33.78 83.24 -36 82.88 C-36 82.22 -36 81.56 -36 80.88 C-34.74 80.84 -33.49 80.8 -32.2 80.76 C-14.06 80.2 -14.06 80.2 1 70.88 C10.45 60.2 12.83 49.76 12.35 35.86 C11.85 30.14 10.8 25.36 6.4 21.45 C4.62 20.17 4.62 20.17 2 18.88 C1.91 21.17 1.91 21.17 2.98 24.41 C4.16 29.05 4.35 33.48 4.31 38.25 C4.31 39.09 4.3 39.92 4.3 40.79 C4.07 52.04 0.92 60.55 -6.85 68.85 C-15.28 76.75 -25.54 79.88 -37 79.88 C-37 80.53 -37 81.19 -37 81.88 C-37.99 81.88 -38.98 81.88 -40 81.88 C-40 81.22 -40 80.56 -40 79.88 C-40.88 79.73 -41.77 79.58 -42.68 79.43 C-51.58 77.77 -60.4 75.47 -67 68.88 C-69.11 69.19 -69.11 69.19 -71 69.88 C-74.91 57.64 -71.67 43.63 -66.39 32.46 C-59.32 18.83 -49.66 5.5 -34.62 0.12 C-33.09 -0.32 -31.55 -0.73 -30 -1.12 C-29.18 -1.35 -28.36 -1.58 -27.52 -1.82 C-18.34 -3.97 -8.97 -2.7 0 0 Z M-46 15.88 C-48.5 19.63 -48.54 21.43 -48 25.88 C-46.08 28.96 -46.08 28.96 -43 30.88 C-37.7 31.68 -32.67 30.49 -28 27.88 C-25.66 24.36 -25.5 23.01 -26 18.88 C-27.22 15.88 -27.22 15.88 -30 13.88 C-35.93 12.22 -40.83 12.26 -46 15.88 Z M-1 36.88 C-1 37.53 -1 38.19 -1 38.88 C-1.99 38.88 -2.98 38.88 -4 38.88 C-6.92 41.07 -7.65 43.35 -8.56 46.81 C-9.43 50.05 -10.3 52.98 -12 55.88 C-13.32 56.56 -14.66 57.22 -16 57.88 C-16.74 58.66 -17.49 59.44 -18.25 60.25 C-24.85 66.55 -30.72 67.44 -39.56 67.35 C-47.8 67.03 -56.16 65.06 -62 58.88 C-63.41 56.78 -64.72 54.67 -65.98 52.48 C-66.32 51.95 -66.65 51.42 -67 50.88 C-67.33 50.88 -67.66 50.88 -68 50.88 C-68.45 58.55 -67.41 61.92 -62.5 67.94 C-58.45 71.89 -53.3 73.25 -48 74.88 C-46.51 75.37 -46.51 75.37 -45 75.88 C-32.8 76.65 -20.82 75.91 -11 67.88 C-4.67 61.83 -0.87 55.74 0 46.88 C0.07 43.54 0.06 40.21 0 36.88 C-0.33 36.88 -0.66 36.88 -1 36.88 Z M-69 64.88 C-68 66.88 -68 66.88 -68 66.88 Z " fill="#000000" transform="translate(781,443.125)"/>
<path d="M0 0 C3.63 2.56 6.27 4.96 8.62 8.75 C8.79 13.38 7.69 17 4.52 20.49 C1.1 22.76 -2.95 23.08 -6.93 23.86 C-12.52 25.31 -17.1 27.88 -21.38 31.75 C-22.9 34.92 -22.9 34.92 -22.38 38.75 C-22.33 39.79 -22.29 40.83 -22.25 41.91 C-21.88 49.57 -21.88 49.57 -19.38 56.75 C-13.99 61.27 -8.78 61.42 -1.89 61.2 C5.06 60.31 10.34 57.53 15 52.31 C15.9 51.14 16.78 49.96 17.62 48.75 C18.04 48.16 18.45 47.57 18.88 46.97 C19.82 45.58 20.73 44.17 21.62 42.75 C19.64 42.09 17.66 41.43 15.62 40.75 C15.88 37.88 15.88 37.88 16.62 34.75 C18.69 33.38 18.69 33.38 20.62 32.75 C19.97 34.4 19.31 36.05 18.62 37.75 C19.3 37.84 19.98 37.92 20.67 38.01 C28.05 39.17 28.05 39.17 31.25 42.38 C31.7 43.16 32.16 43.94 32.62 44.75 C30.64 44.42 28.66 44.09 26.62 43.75 C26.18 44.49 25.73 45.22 25.27 45.98 C19.11 55.92 19.11 55.92 14.62 59.75 C14.05 60.25 13.48 60.75 12.89 61.27 C9.17 64.33 6.07 66.08 1.38 67.25 C-2.38 68.22 -3.13 68.43 -5.62 71.62 C-6.49 73.17 -6.49 73.17 -7.38 74.75 C-12.7 79.96 -17.59 81.77 -24.94 82.06 C-31.84 81.88 -36.54 78.36 -41.38 73.75 C-42.04 71.59 -42.04 71.59 -42.38 69.75 C-43.06 69.65 -43.75 69.55 -44.46 69.45 C-56 67.62 -64.85 63.86 -72.17 54.44 C-74.59 50.93 -76.55 47.97 -77.38 43.75 C-79.36 44.41 -81.34 45.07 -83.38 45.75 C-81.92 41.9 -80.04 40.54 -76.38 38.75 C-73.56 38.06 -73.56 38.06 -71.38 37.75 C-72.03 36.1 -72.7 34.45 -73.38 32.75 C-70.75 33.8 -69.58 34.4 -68.12 36.88 C-67.88 37.49 -67.63 38.11 -67.38 38.75 C-68.62 40.25 -68.62 40.25 -70.38 41.75 C-71.7 41.75 -73.01 41.75 -74.38 41.75 C-68.34 51.58 -62.84 58.59 -51.38 62.19 C-42.27 63.94 -35.23 61.17 -27.38 56.75 C-27.35 53.15 -27.33 49.54 -27.31 45.94 C-27.3 44.4 -27.3 44.4 -27.29 42.83 C-27.28 41.85 -27.28 40.87 -27.28 39.86 C-27.27 38.95 -27.27 38.04 -27.26 37.11 C-27.28 34.6 -27.28 34.6 -28.38 31.75 C-34.31 26.86 -40.18 25.2 -47.66 24.23 C-52.17 23.43 -54.95 21.62 -57.75 17.94 C-58.87 14.02 -59.37 10.66 -57.42 6.92 C-46.21 -7.91 -15.05 -8.6 0 0 Z M-52.38 6.75 C-51.36 6.66 -51.36 6.66 -50.32 6.57 C-44.95 6.31 -41.29 6.46 -36.62 9.25 C-30.2 12.85 -23.55 12.8 -16.38 11.75 C-13.49 10.39 -11.8 8.91 -9.38 6.75 C-5.71 5.59 -2.21 5.66 1.62 5.75 C-4.03 0.09 -14.26 0.34 -21.76 0.29 C-22.95 0.3 -24.15 0.31 -25.38 0.31 C-26.57 0.29 -27.76 0.27 -28.99 0.25 C-37.03 0.26 -46.36 0.74 -52.38 6.75 Z M-31.59 64.73 C-34.06 66.15 -36.65 66.95 -39.38 67.75 C-38.81 71.26 -37.72 72.7 -35 74.94 C-34.09 75.7 -34.09 75.7 -33.16 76.48 C-29.29 79.23 -24.95 79.43 -20.38 78.75 C-14.52 76.64 -9.76 74.14 -6.38 68.75 C-8.92 66.21 -11.34 65.42 -14.69 64.12 C-15.82 63.68 -16.95 63.23 -18.11 62.77 C-23.86 60.97 -26.47 61.56 -31.59 64.73 Z " fill="#000000" transform="translate(680.375,500.25)"/>
<path d="M0 0 C0.93 -0.01 1.86 -0.02 2.81 -0.04 C11.86 -0.06 11.86 -0.06 15.38 2.19 C17.93 5.76 18.76 8.25 18.77 12.62 C18.78 13.65 18.79 14.69 18.79 15.76 C18.78 16.85 18.76 17.94 18.75 19.06 C18.74 20.18 18.73 21.3 18.72 22.45 C18.52 33.79 17.74 45.45 11.38 55.19 C5.21 60.8 -5.74 60.54 -13.63 60.38 C-28.9 59.42 -28.9 59.42 -33.62 54.19 C-34.94 47.32 -33.27 40.04 -32.2 33.23 C-31.34 27.52 -30.88 21.77 -30.41 16.03 C-29.64 7.49 -29.64 7.49 -27.62 4.19 C-25.49 3.08 -25.49 3.08 -22.94 2.44 C-22.11 2.22 -21.28 1.99 -20.43 1.77 C-13.57 0.35 -6.97 0 0 0 Z M-22.62 6.19 C-25.52 10.1 -26.13 13.33 -26.54 18.13 C-26.6 18.78 -26.66 19.44 -26.72 20.11 C-26.91 22.18 -27.08 24.24 -27.25 26.31 C-27.43 28.39 -27.61 30.46 -27.8 32.54 C-27.97 34.42 -28.13 36.29 -28.28 38.17 C-28.62 41.19 -28.62 41.19 -29.62 44.19 C-30.04 47.69 -30.04 47.69 -29.62 51.19 C-26.8 54.45 -23.78 54.67 -19.62 55.19 C-15.81 55.38 -12 55.42 -8.19 55.44 C-7.18 55.46 -6.16 55.48 -5.12 55.5 C0.77 55.53 5.31 55.37 10.38 52.19 C12.03 49.58 12.03 49.58 12.75 46.5 C13.05 45.51 13.34 44.51 13.65 43.49 C15.34 35.82 15.58 28.33 15.62 20.5 C15.65 19.48 15.67 18.46 15.69 17.41 C15.84 10.25 15.84 10.25 12.38 4.19 C2.89 1.03 -13.78 1.62 -22.62 6.19 Z " fill="#000000" transform="translate(754.625,728.8125)"/>
<path d="M0 0 C1.17 0.01 1.17 0.01 2.37 0.03 C2.95 0.04 3.53 0.05 4.12 0.06 C3.79 0.72 3.47 1.38 3.12 2.06 C1.23 2.58 -0.66 3.08 -2.57 3.5 C-5.4 4.19 -8.12 5.12 -10.88 6.06 C-10.08 6.38 -9.28 6.69 -8.46 7.02 C2.76 11.55 2.76 11.55 7.12 15.06 C7.12 15.72 7.12 16.38 7.12 17.06 C1.62 15.27 1.62 15.27 -0.67 14.3 C-13.01 9.11 -24.57 11.55 -36.7 16.13 C-55.66 24.89 -67.11 40.27 -74.88 59.06 C-75.53 58.73 -76.2 58.4 -76.88 58.06 C-74.07 47.41 -70 38.24 -63.88 29.06 C-63.22 29.06 -62.55 29.06 -61.88 29.06 C-61.64 28.49 -61.4 27.92 -61.15 27.34 C-52.34 11.61 -29.61 6.78 -13.81 1.86 C-9.19 0.6 -4.79 -0.07 0 0 Z " fill="#000000" transform="translate(783.875,422.9375)"/>
<path d="M0 0 C9.78 4.96 15.39 10.16 20.64 19.88 C21.25 21 21.25 21 21.88 22.15 C24.94 27.99 26.96 33.16 26.64 39.88 C23.72 37.4 22.75 34.94 21.45 31.38 C15.64 17.21 6.73 9.28 -7.03 3.28 C-23.09 -2.72 -37.87 -4.49 -53.94 2.41 C-57.1 3.86 -60.24 5.34 -63.36 6.88 C-63.69 6.21 -64.02 5.56 -64.36 4.88 C-63.78 4.56 -63.2 4.25 -62.61 3.92 C-58.98 1.94 -55.4 -0.03 -51.99 -2.38 C-49.36 -4.12 -49.36 -4.12 -46.36 -5.12 C-47.68 -5.45 -49 -5.79 -50.36 -6.12 C-50.36 -6.79 -50.36 -7.44 -50.36 -8.12 C-35.52 -13.07 -13.55 -6.54 0 0 Z " fill="#000000" transform="translate(567.36328125,447.125)"/>
<path d="M0 0 C0 0.66 0 1.32 0 2 C0.68 2.19 1.36 2.37 2.06 2.56 C7.44 5.2 11.56 9.53 14 15 C10.71 13.55 8.47 11.72 5.88 9.25 C-6.2 -1.69 -17.34 -4 -33.18 -3.25 C-43.73 -2.31 -54.19 1.39 -63.97 5.3 C-66 6 -66 6 -69 6 C-69 5.34 -69 4.68 -69 4 C-20.43 -14.98 -20.43 -14.98 0 0 Z " fill="#000000" transform="translate(566,433)"/>
<path d="M0 0 C3.76 1.63 6.62 4.01 9.75 6.62 C10.73 7.44 11.72 8.26 12.73 9.1 C13.86 10.04 13.86 10.04 15 11 C15.14 10.39 15.29 9.77 15.43 9.14 C16.03 6.9 16.91 5.04 18 3 C18.66 3 19.32 3 20 3 C19.6 4.63 19.18 6.25 18.75 7.88 C18.4 9.23 18.4 9.23 18.05 10.62 C17 13 17 13 13 15 C9.7 11.7 6.4 8.4 3 5 C-0.18 5.7 -0.18 5.7 -1.46 8.43 C-2.45 10.43 -3.42 12.43 -4.4 14.43 C-6 17 -6 17 -10 19 C-12.64 16.03 -15.28 13.06 -18 10 C-21.7 11.23 -22.62 13.01 -25 16 C-25.66 16 -26.32 16 -27 16 C-27.84 14.57 -28.67 13.13 -29.5 11.69 C-29.96 10.89 -30.43 10.09 -30.91 9.26 C-32 7 -32 7 -32 4 C-31.34 4 -30.68 4 -30 4 C-28.68 6.31 -27.36 8.62 -26 11 C-24.89 9.76 -24.89 9.76 -23.75 8.5 C-21 6 -21 6 -17 6 C-15.15 7.71 -15.15 7.71 -13.38 9.94 C-11.06 12.93 -11.06 12.93 -8 15 C-7.73 14.28 -7.47 13.57 -7.2 12.83 C-5.97 9.93 -4.52 7.37 -2.88 4.69 C-2.34 3.8 -1.8 2.92 -1.24 2.01 C-0.83 1.35 -0.42 0.68 0 0 Z " fill="#000000" transform="translate(543,932)"/>
<path d="M0 0 C5.41 2.71 6.8 5.91 10 11 C12.31 8.36 14.62 5.72 17 3 C21.59 4.15 22.34 5.29 25 9 C26.65 7.02 28.3 5.04 30 3 C30.5 4.49 30.5 4.49 31 6 C29.79 8.04 29.79 8.04 28.06 10.19 C27.5 10.9 26.93 11.62 26.35 12.36 C25.9 12.9 25.46 13.44 25 14 C22.67 11.67 20.33 9.33 18 7 C17.61 7.49 17.23 7.99 16.83 8.5 C16.31 9.14 15.79 9.78 15.25 10.44 C14.74 11.08 14.23 11.71 13.7 12.37 C12 14 12 14 8 15 C6.02 11.37 4.04 7.74 2 4 C-2.55 6.27 -5.26 9.13 -8.69 12.81 C-10 14 -10 14 -12 14 C-15.08 7.6 -15.08 7.6 -14.69 4.56 C-14.46 4.05 -14.23 3.53 -14 3 C-12.68 5.31 -11.36 7.62 -10 10 C-6.7 6.7 -3.4 3.4 0 0 Z " fill="#000000" transform="translate(738,933)"/>
<path d="M0 0 C1.01 -0 1.01 -0 2.05 -0.01 C11.9 -0.02 21.19 0.45 30.69 3.25 C30.36 3.91 30.03 4.57 29.69 5.25 C25.44 4.8 21.21 4.32 16.98 3.74 C0.14 1.41 -14.74 0.44 -29.07 10.98 C-35.36 15.84 -40.88 21.46 -46.31 27.25 C-46.31 22.13 -42.63 18.92 -39.31 15.25 C-27.02 3.75 -16.43 0.03 0 0 Z " fill="#000000" transform="translate(766.3125,412.75)"/>
<path d="M0 0 C0.71 0.29 1.42 0.57 2.15 0.87 C4.94 1.98 7.74 3.03 10.56 4.06 C11.96 4.57 11.96 4.57 13.38 5.1 C23.59 8.61 31.98 6.48 42 3 C43.6 2.16 43.6 2.16 45.24 1.3 C48 0 48 0 51 1 C42.07 9.23 32.84 11.62 20.81 11.21 C12.11 10.56 6.32 8.33 0 2 C0 1.34 0 0.68 0 0 Z " fill="#000000" transform="translate(632,602)"/>
<path d="M0 0 C-0.33 0.99 -0.66 1.98 -1 3 C-3.72 3.87 -6.28 4.54 -9.06 5.12 C-9.8 5.29 -10.54 5.46 -11.3 5.64 C-20.65 7.71 -29.57 8.16 -39.12 8.12 C-40.86 8.13 -40.86 8.13 -42.62 8.14 C-44.3 8.13 -44.3 8.13 -46.01 8.13 C-47.01 8.13 -48.02 8.13 -49.06 8.13 C-52.11 8 -55 7.56 -58 7 C-58 6.67 -58 6.34 -58 6 C-52.39 4.86 -46.83 4.75 -41.12 4.56 C-27.76 4.05 -12.98 -0.81 0 0 Z " fill="#000000" transform="translate(662,696)"/>
<path d="M0 0 C0.66 0 1.32 0 2 0 C4.44 2.75 5.76 5.56 7 9 C8.65 7.35 10.3 5.7 12 4 C15 11.43 15 11.43 15 15.56 C16.25 19.87 17.56 20.33 21.31 22.62 C22.76 23.42 22.76 23.42 24.24 24.23 C27.22 26.14 28.95 28.14 31 31 C26.96 29.61 23.67 27.58 20.16 25.22 C17.47 23.61 17.47 23.61 12 22 C12 17.71 12 13.42 12 9 C9.05 11.63 9.05 11.63 8 14 C7.34 14 6.68 14 6 14 C5 12.04 4 10.09 3 8.12 C2.16 6.49 2.16 6.49 1.31 4.82 C0 2 0 2 0 0 Z " fill="#000000" transform="translate(754,360)"/>
<path d="M0 0 C0.99 0.33 1.98 0.66 3 1 C2.91 2.9 2.8 4.79 2.69 6.69 C2.63 7.74 2.57 8.8 2.51 9.89 C1.95 13.32 1.12 15.25 -1 18 C-2.99 19.2 -2.99 19.2 -5.31 20.12 C-12.73 23.52 -18.75 28.85 -25 34 C-25.66 33.67 -26.32 33.34 -27 33 C-21.19 27.01 -15.13 21.92 -8.11 17.39 C-7.42 16.93 -6.72 16.47 -6 16 C-5.28 15.58 -4.55 15.17 -3.81 14.74 C-1.17 12.2 -1.18 9.9 -0.75 6.31 C-0.6 5.13 -0.45 3.95 -0.3 2.74 C-0.2 1.83 -0.1 0.93 0 0 Z " fill="#000000" transform="translate(530,384)"/>
<path d="M0 0 C7.49 5.29 11.87 13 16 21 C16.32 21.63 16.65 22.25 16.98 22.9 C18.08 25.03 19.17 27.17 20.25 29.31 C20.78 30.35 20.78 30.35 21.32 31.42 C22.91 34.59 24.23 37.54 25 41 C22 40 22 40 20.24 36.86 C19.59 35.49 18.95 34.12 18.31 32.75 C13.5 22.74 8.11 13.2 1.03 4.59 C0 3 0 3 0 0 Z " fill="#000000" transform="translate(488,236)"/>
<path d="M0 0 C3.8 2.53 4.12 5.01 5.25 9.19 C7.17 15.89 9.67 22.02 12.85 28.21 C13.64 29.78 14.33 31.39 15 33 C14.67 33.99 14.34 34.98 14 36 C5.32 25.72 0.81 13.3 0 0 Z " fill="#000000" transform="translate(521,652)"/>
<path d="M0 0 C0.66 0 1.32 0 2 0 C1.01 2.8 -0.03 5.05 -1.76 7.48 C-5.47 12.94 -7.77 19.26 -10.38 25.3 C-10.8 26.26 -11.22 27.22 -11.66 28.2 C-12.04 29.08 -12.42 29.95 -12.8 30.85 C-14 33 -14 33 -17 35 C-16.52 30.1 -15.59 27.13 -13 23 C-12.4 21.47 -11.82 19.92 -11.25 18.38 C-8.69 11.76 -5.05 5.05 0 0 Z " fill="#000000" transform="translate(796,225)"/>
<path d="M0 0 C0.83 0.39 1.65 0.77 2.5 1.17 C11.51 5.23 20.36 7.87 30 10 C30.99 10.23 31.99 10.45 33.01 10.69 C35 11.14 37 11.57 39 12 C39 12.66 39 13.32 39 14 C9.48 10.64 9.48 10.64 0 2 C0 1.34 0 0.68 0 0 Z " fill="#000000" transform="translate(554,685)"/>
<path d="M0 0 C1.73 0.14 3.46 0.29 5.19 0.44 C6.63 0.56 6.63 0.56 8.11 0.68 C10.79 0.98 13.37 1.43 16 2 C16 2.66 16 3.32 16 4 C9.77 5.13 5.08 4.7 -1 3 C-0.67 2.01 -0.34 1.02 0 0 Z " fill="#000000" transform="translate(592,656)"/>
<path d="M0 0 C0.66 0 1.32 0 2 0 C1.53 4.99 -0.92 9.13 -4 13 C-4.66 13 -5.32 13 -6 13 C-4.59 8.17 -2.57 4.28 0 0 Z " fill="#000000" transform="translate(540,376)"/>
<path d="M0 0 C4.29 0.33 8.58 0.66 13 1 C13 1.66 13 2.32 13 3 C3.59 4.52 3.59 4.52 -1 2 C-0.67 1.34 -0.34 0.68 0 0 Z " fill="#000000" transform="translate(609,659)"/>
<path d="M0 0 C2.88 -0.19 2.88 -0.19 6 0 C6.66 0.99 7.32 1.98 8 3 C5.66 2.74 3.32 2.41 1 2 C0.67 1.34 0.34 0.68 0 0 Z " fill="#000000" transform="translate(559,650)"/>
<path d="M0 0 C1.32 0 2.64 0 4 0 C4 0.99 4 1.98 4 3 C2.35 2.67 0.7 2.34 -1 2 C-0.67 1.34 -0.34 0.68 0 0 Z " fill="#000000" transform="translate(570,652)"/>
<path d="M0 0 C0.66 0 1.32 0 2 0 C2 1.65 2 3.3 2 5 C1.01 4.34 0.02 3.68 -1 3 C-0.67 2.01 -0.34 1.02 0 0 Z " fill="#000000" transform="translate(776,1036)"/>
<path d="M0 0 C0.66 0.66 1.32 1.32 2 2 C-0.31 2.33 -2.62 2.66 -5 3 C-4 1 -4 1 -2.06 0.25 C-1.38 0.17 -0.7 0.09 0 0 Z " fill="#000000" transform="translate(760,777)"/>
<path d="M0 0 C2.97 0.5 2.97 0.5 6 1 C5.34 1.66 4.68 2.32 4 3 C3.01 3 2.02 3 1 3 C0.67 2.01 0.34 1.02 0 0 Z " fill="#000000" transform="translate(575,653)"/>
<path d="M0 0 C1.32 0.33 2.64 0.66 4 1 C2.68 1 1.36 1 0 1 C0 0.67 0 0.34 0 0 Z " fill="#000000" transform="translate(797,417)"/>
<path d="M0 0 C0.66 0 1.32 0 2 0 C2 0.66 2 1.32 2 2 C1.34 2 0.68 2 0 2 C0 1.34 0 0.68 0 0 Z " fill="#000000" transform="translate(776,1032)"/>
<path d="M0 0 C0.66 0 1.32 0 2 0 C2 0.66 2 1.32 2 2 C1.34 2 0.68 2 0 2 C0 1.34 0 0.68 0 0 Z " fill="#000000" transform="translate(587,656)"/>
<path d="M0 0 C0.99 0.5 0.99 0.5 2 1 C1.01 1.5 1.01 1.5 0 2 C0 1.34 0 0.68 0 0 Z " fill="#000000" transform="translate(789,620)"/>
<path d="M0 0 C0.33 0.66 0.66 1.32 1 2 C0.34 1.67 -0.32 1.34 -1 1 C-0.67 0.67 -0.34 0.34 0 0 Z " fill="#000000" transform="translate(469,237)"/>
<path d="M0 0 C2 1 2 1 2 1 Z " fill="#000000" transform="translate(506,1030)"/>
<path d="" fill="#000000" transform="translate(0,0)"/>
<path d="M0 0 C2 1 2 1 2 1 Z " fill="#000000" transform="translate(582,655)"/>
<path d="M0 0 C2 1 2 1 2 1 Z " fill="#000000" transform="translate(791,440)"/>
<path d="" fill="#000000" transform="translate(0,0)"/>
<path d="" fill="#000000" transform="translate(0,0)"/>
<path d="" fill="#000000" transform="translate(0,0)"/>
</svg>
