<?xml version="1.0" encoding="UTF-8"?>
<!-- Generator: visioncortex VTracer 0.6.3 -->
<svg version="1.1" xmlns="http://www.w3.org/2000/svg" width="1280" height="1280">
<path d="M0 0 C7.98 4.2 12.85 11.86 18 19 C18.46 19.63 18.93 20.27 19.41 20.92 C50.63 63.55 90.85 128.28 90 183 C90.63 182.81 91.26 182.63 91.91 182.44 C115.02 175.68 138.03 170.47 162 168 C162.81 167.91 163.63 167.81 164.46 167.72 C199.16 163.92 237.99 172.8 271 183 C271.11 182.21 271.22 181.43 271.33 180.62 C275.47 152.09 284.52 124.33 296.89 98.34 C297.99 96.02 299.05 93.69 300.11 91.35 C309.5 70.75 321.13 51.59 334 33 C334.55 32.21 335.09 31.42 335.65 30.6 C354.81 2.88 354.81 2.88 365.44 -1.38 C373.63 -2.81 380.72 -2.44 388 2 C392.53 6.01 396.46 10.52 400.06 15.38 C400.79 16.34 400.79 16.34 401.52 17.33 C407.3 25.23 412.74 33.37 418.19 41.5 C418.65 42.19 419.12 42.89 419.6 43.6 C426.24 53.47 432.35 63.53 438 74 C438.82 75.51 438.82 75.51 439.65 77.05 C469.74 133.87 482.61 193.95 479.25 258 C479.19 259.23 479.19 259.23 479.12 260.48 C477.5 290.39 473.66 320.44 465.8 349.4 C460.96 367.24 463.46 381.49 467.54 399.36 C474.12 428.47 475.18 463.71 469 493 C468.79 493.99 468.58 494.99 468.37 496.01 C462.55 522.87 454.22 549.46 438 572 C437.24 573.06 437.24 573.06 436.47 574.14 C430.13 582.96 423.58 591.59 416.88 600.12 C405.63 614.48 395.49 629.44 386 645 C385.54 645.75 385.08 646.5 384.6 647.27 C383.3 649.39 382.02 651.54 380.75 653.69 C380.37 654.31 379.98 654.93 379.59 655.57 C374.81 663.88 377.47 672.24 379.48 681.03 C379.76 682.27 380.03 683.51 380.32 684.79 C381.1 688.29 381.89 691.78 382.68 695.27 C383.36 698.27 384.04 701.28 384.71 704.28 C386.95 714.26 389.2 724.23 391.46 734.21 C393.02 741.08 394.57 747.96 396.13 754.84 C404.73 792.9 413.36 830.95 422 869 C437.42 860.06 446.76 837.19 451.22 820.63 C453.11 813.18 454.71 805.71 455 798 C455.04 797.07 455.08 796.14 455.12 795.18 C455.33 785.37 454.15 775.72 453 766 C469.68 773.65 479.72 793.79 486 810 C493.92 794.16 488.83 760.67 485 744 C484.76 742.96 484.53 741.93 484.28 740.86 C479 718.29 471.41 697.66 461 677 C465.87 678.58 469.49 681.37 473.5 684.44 C474.2 684.97 474.91 685.51 475.64 686.06 C493.23 699.54 507.93 714.06 521 732 C521.51 732.69 522.02 733.37 522.54 734.08 C531.42 746.03 539.34 758.67 546 772 C547.81 770.19 547.13 767.69 547.14 765.28 C547.14 764.47 547.13 763.66 547.13 762.82 C547.13 761.98 547.13 761.14 547.14 760.27 C547.14 758.47 547.13 756.68 547.13 754.88 C547.13 752.2 547.13 749.52 547.14 746.84 C547.14 735.2 546.73 723.62 546 712 C549.21 713.79 551.61 715.34 553.8 718.3 C554.28 718.94 554.75 719.58 555.25 720.24 C555.74 720.92 556.24 721.61 556.75 722.31 C557.28 723.03 557.8 723.75 558.34 724.49 C578.12 751.7 594.8 783.69 596 818 C596.04 818.94 596.08 819.88 596.12 820.85 C596.67 846.24 590.71 870.09 580 893 C579.52 894.06 579.52 894.06 579.02 895.14 C571.72 911.1 561.43 925.57 549 938 C547.47 944.98 549.93 950.94 552.64 957.25 C555.24 963.35 556.82 969.47 558 976 C558.13 976.72 558.26 977.44 558.4 978.18 C563.6 1014.34 551.63 1053.34 530.19 1082.35 C509.98 1108.65 481.2 1130.53 447.75 1135.69 C442.24 1136.31 436.73 1136.4 431.19 1136.44 C429.53 1136.45 429.53 1136.45 427.83 1136.47 C420.9 1136.4 414.66 1135.45 407.97 1133.64 C404.85 1132.97 402.17 1132.77 399 1133 C396.04 1135.36 393.98 1138.27 391.75 1141.31 C384.75 1150.35 376.03 1157.39 364.57 1159.69 C353.71 1161.03 343.01 1161.29 332.07 1161.27 C330.19 1161.27 328.31 1161.27 326.43 1161.27 C322.51 1161.27 318.59 1161.27 314.67 1161.26 C309.7 1161.25 304.73 1161.26 299.76 1161.27 C295.88 1161.28 292 1161.27 288.12 1161.27 C286.29 1161.27 284.46 1161.27 282.63 1161.27 C273.25 1161.29 263.98 1161.06 254.64 1160.12 C253.87 1160.04 253.09 1159.96 252.3 1159.88 C240.31 1158.54 230.07 1153.15 222.22 1143.91 C216.66 1136.09 213.35 1127.4 211.69 1118 C210.82 1113.85 210.82 1113.85 208.6 1110.36 C195.46 1102.64 173.18 1105.27 159 1108 C154.22 1109.36 154.22 1109.36 150.98 1112.88 C150.87 1113.93 150.87 1113.93 150.75 1115 C150.63 1115.8 150.5 1116.59 150.38 1117.41 C150.25 1118.26 150.13 1119.12 150 1120 C147.15 1133.58 140.34 1145.05 128.62 1152.75 C118.31 1158.95 110.02 1161.15 98.04 1161.15 C96.56 1161.15 96.56 1161.15 95.04 1161.16 C91.79 1161.16 88.53 1161.17 85.27 1161.17 C83 1161.17 80.72 1161.17 78.45 1161.18 C73.68 1161.18 68.91 1161.19 64.15 1161.19 C58.06 1161.19 51.97 1161.2 45.88 1161.22 C41.18 1161.23 36.48 1161.23 31.78 1161.23 C29.54 1161.23 27.3 1161.23 25.05 1161.24 C21.91 1161.25 18.76 1161.25 15.61 1161.24 C14.69 1161.25 13.78 1161.25 12.84 1161.26 C-2.47 1161.19 -14.59 1156.97 -25.81 1146.31 C-28.38 1143.6 -30.63 1140.8 -32.75 1137.73 C-34.09 1135.88 -35.18 1134.39 -37 1133 C-39.38 1132.78 -39.38 1132.78 -42 1133.19 C-42.99 1133.3 -43.99 1133.42 -45.01 1133.54 C-47.65 1133.95 -50.21 1134.48 -52.81 1135.06 C-81.11 1140.28 -110.55 1131.93 -134 1116 C-165.15 1094.3 -186.56 1061.92 -195 1025 C-195.28 1023.8 -195.28 1023.8 -195.57 1022.58 C-197.15 1015.05 -197.34 1007.61 -197.32 999.95 C-197.31 997.83 -197.34 995.72 -197.36 993.6 C-197.47 969.37 -189.98 945.5 -174 927 C-173.11 925.9 -173.11 925.9 -172.21 924.77 C-158.91 908.81 -138.51 898.62 -118 896 C-100.2 894.95 -84.06 897.11 -67 902 C-66.78 900.86 -66.56 899.72 -66.33 898.55 C-63.77 885.45 -60.9 872.43 -57.94 859.42 C-57.09 855.68 -56.24 851.95 -55.4 848.21 C-54.18 842.86 -52.97 837.52 -51.76 832.17 C-48.59 818.22 -45.43 804.26 -42.28 790.31 C-42.12 789.62 -41.97 788.92 -41.81 788.21 C-36.11 763 -30.48 737.77 -24.94 712.53 C-24.38 709.95 -23.81 707.37 -23.25 704.8 C-22.37 700.81 -21.5 696.82 -20.63 692.84 C-20.32 691.42 -20 690 -19.69 688.57 C-18.77 684.39 -17.88 680.2 -17 676 C-16.66 674.42 -16.66 674.42 -16.31 672.81 C-16.11 671.84 -15.91 670.86 -15.71 669.86 C-15.45 668.61 -15.45 668.61 -15.18 667.33 C-14.84 662.99 -16.82 659.81 -19 656.19 C-19.45 655.39 -19.91 654.59 -20.37 653.76 C-21.87 651.15 -23.43 648.57 -25 646 C-25.54 645.11 -26.08 644.21 -26.63 643.3 C-37.24 625.81 -49.36 609.59 -61.95 593.5 C-93.79 552.72 -109.79 509.88 -112 458 C-112.03 457.26 -112.07 456.52 -112.1 455.75 C-112.28 451.49 -112.21 447.26 -112 443 C-111.96 442.08 -111.92 441.16 -111.88 440.21 C-110.88 419.87 -107.87 400 -103.19 380.19 C-100.27 366.32 -102.72 355.1 -106.15 341.59 C-111.85 319.05 -114.97 296.14 -117 273 C-117.1 271.99 -117.19 270.97 -117.29 269.93 C-119.66 241.93 -120.26 211.67 -115 184 C-114.8 182.91 -114.6 181.83 -114.4 180.71 C-103.86 124.28 -74.3 36.83 -25.98 1.53 C-18.1 -3.09 -8.47 -3.5 0 0 Z M-31.69 20.25 C-78.94 83.37 -109.2 156.05 -109.25 235.38 C-109.25 236.36 -109.25 237.35 -109.25 238.36 C-109.21 273.9 -105.18 309.22 -96.33 343.68 C-92.07 360.41 -92.17 373.73 -96.31 390.5 C-109.4 443.74 -106.04 502.15 -80 551 C-79.49 551.96 -79.49 551.96 -78.98 552.95 C-72.97 564.74 -72.97 564.74 -63 573 C-57.86 573.2 -57.86 573.2 -52.8 572.51 C-37.93 569.82 -22.98 571.8 -10.38 580.18 C-8 582 -8 582 -5.81 584.22 C-4.19 586.23 -4.19 586.23 -2 586 C-1.73 586.58 -1.46 587.16 -1.18 587.76 C-0.01 589.97 1.32 591.81 2.81 593.81 C11.3 606.63 13.26 621.6 10.3 636.52 C7.94 644.27 3.74 650.8 -0.65 657.53 C-2.8 661.46 -2.68 664.63 -2 669 C-0.74 673.18 1.13 677.07 3 681 C3.64 682.36 3.64 682.36 4.28 683.74 C6.69 688.87 9.12 693.99 11.57 699.1 C11.99 699.97 12.41 700.84 12.84 701.74 C14.04 704.18 14.04 704.18 16 707 C16.13 706.4 16.25 705.79 16.38 705.17 C19.54 690.14 22.54 676.47 32 664 C32.72 663.04 32.72 663.04 33.45 662.05 C60.67 628.27 113.3 613.48 154.22 608.63 C162.84 607.71 171.46 607.65 180.12 607.69 C180.98 607.69 181.83 607.69 182.71 607.69 C232.66 607.9 287.72 623.16 324.11 659.09 C336.87 672.95 341.49 688.81 344 707 C347.16 703.3 348.85 699.11 350.75 694.69 C354.79 685.34 354.79 685.34 357.08 680.83 C362.41 670.87 362.41 670.87 362 660 C360.28 656.82 358.45 653.78 356.5 650.73 C348.84 638.63 346.99 625.39 349.7 611.41 C353.8 596.89 361.11 585.81 374.34 578.32 C383.09 573.98 391.37 571.79 401.12 571.75 C402.25 571.74 402.25 571.74 403.4 571.74 C408.83 571.79 413.56 572.6 418.7 574.44 C421.68 575.16 423.14 575.15 426 574 C427.82 571.82 429.27 569.83 430.75 567.44 C431.18 566.76 431.61 566.09 432.05 565.4 C433.39 563.28 434.7 561.14 436 559 C436.4 558.36 436.8 557.72 437.21 557.06 C456.95 525.12 463.48 487.33 463.31 450.31 C463.31 449.44 463.31 448.58 463.31 447.68 C463.22 422.71 459.71 398.75 452.38 374.83 C451.14 365.68 454.27 356.82 456.75 348.12 C462.55 327.12 465.96 306.02 468.25 284.38 C468.33 283.59 468.42 282.8 468.5 282 C478.72 184.16 450.97 92.07 388.84 15.33 C384.71 10.47 381.88 7.49 375.32 6.66 C374.41 6.65 373.5 6.64 372.56 6.62 C371.66 6.6 370.75 6.57 369.82 6.54 C361.32 7.93 356.52 16.02 351.78 22.5 C340.41 38.46 329.69 54.97 320 72 C319.56 72.76 319.12 73.51 318.67 74.29 C298.05 110.26 281.97 153.68 278 195 C276.16 194.35 276.16 194.35 274.29 193.68 C251.62 185.78 228.79 181.05 205 178 C204.27 177.9 203.53 177.79 202.78 177.69 C180.06 174.71 156.37 176.87 134 181 C132.98 181.18 131.96 181.36 130.9 181.55 C114.58 184.5 98.82 189.06 83 194 C82.96 193.28 82.92 192.56 82.87 191.82 C82.34 184.16 81.14 176.86 79.44 169.38 C79.17 168.21 78.91 167.05 78.64 165.85 C66.71 114.6 42.38 67.02 11 25 C10.5 24.31 9.99 23.63 9.47 22.92 C8.04 20.98 6.58 19.05 5.12 17.12 C4.71 16.56 4.29 15.99 3.86 15.41 C0.17 10.64 -3.85 7.58 -9.88 6.47 C-20.9 6.6 -25.25 11.81 -31.69 20.25 Z M366.07 589.74 C355.96 600.79 352.03 612.94 352.63 627.63 C353.45 639.45 359.08 647.83 366 657 C370.11 652.26 373.12 646.93 376.31 641.56 C387.8 622.49 400.52 604.46 414.36 587.02 C415.01 586.21 415.65 585.4 416.31 584.56 C417.11 583.57 417.11 583.57 417.93 582.57 C419.19 581.04 419.19 581.04 419 579 C400.55 570.51 380.4 576.25 366.07 589.74 Z M-59 579 C-55.03 585.77 -50.58 591.89 -45.69 598 C-31.26 616.19 -19.01 636.17 -7 656 C-1.06 654.02 1.48 646.79 4.34 641.53 C8.68 631.76 9.17 617.43 5.38 607.38 C4.63 605.89 3.83 604.43 3 603 C2.59 602.18 2.18 601.35 1.75 600.5 C-4.65 588.55 -14.86 582.14 -27 577 C-31.55 575.65 -36.04 575.78 -40.75 575.75 C-41.62 575.73 -42.49 575.71 -43.38 575.69 C-49.29 575.65 -53.59 576.61 -59 579 Z M41 665 C29.34 679.22 23.99 695.26 25.25 713.65 C27.5 731.86 35.04 744.58 47.63 757.57 C48.9 758.9 50.15 760.24 51.4 761.59 C81.25 792.98 136.06 815.3 179.12 816.44 C206.35 815.4 233.28 805.79 258 795 C258.82 794.64 259.65 794.29 260.5 793.92 C288.17 781.87 318.74 760.23 331.06 731.73 C337.02 714.39 336.34 696.13 328.82 679.49 C313.31 649.79 276.75 634.28 246.42 624.5 C182.62 604.63 88.79 613.77 41 665 Z M368 676 C367.35 677.38 367.35 677.38 366.69 678.79 C366.08 680.09 365.46 681.4 364.85 682.7 C364.52 683.4 364.2 684.1 363.86 684.81 C362.04 688.68 360.23 692.54 358.41 696.4 C357.67 697.96 356.93 699.53 356.19 701.09 C355.83 701.87 355.46 702.64 355.08 703.44 C353.05 707.76 351.03 712.08 349.03 716.41 C345.36 724.29 341.6 731.84 336.94 739.19 C333.48 744.74 331.09 749.34 332 756 C333.03 760.45 334.49 764.7 336 769 C350.54 812.06 347.64 858.38 327.85 899.37 C308.61 937.61 274.53 967.62 233.99 981.46 C220.02 985.94 205.47 989.05 190.79 989.27 C190.02 989.29 189.26 989.3 188.47 989.31 C170.45 989.55 153.46 989.01 136 984 C135.13 983.75 134.26 983.51 133.36 983.25 C107.79 975.76 84.99 961.52 66 943 C65.32 942.38 64.64 941.77 63.95 941.13 C36.44 915.45 18.29 874.24 16.88 836.7 C16.34 811.15 19.09 788.73 26.85 764.32 C27.13 763.44 27.4 762.56 27.68 761.66 C28.06 760.48 28.06 760.48 28.44 759.27 C30.55 750.66 26.26 744.18 22 737 C11.13 718.27 2.03 698.67 -7 679 C-9.28 681.28 -9.5 682.34 -10.2 685.44 C-10.41 686.37 -10.63 687.3 -10.85 688.27 C-11.08 689.3 -11.31 690.33 -11.55 691.39 C-11.79 692.47 -12.04 693.56 -12.3 694.67 C-13.12 698.29 -13.94 701.92 -14.75 705.54 C-15.33 708.09 -15.91 710.64 -16.49 713.19 C-17.71 718.58 -18.92 723.97 -20.14 729.36 C-21.36 734.79 -22.59 740.22 -23.82 745.65 C-29.95 772.65 -36.02 799.67 -41.68 826.78 C-41.99 828.23 -41.99 828.23 -42.3 829.7 C-49.53 863.45 -49.53 863.45 -52.25 897.75 C-52.27 898.57 -52.29 899.4 -52.31 900.25 C-52.34 904.96 -52.32 908.37 -49 912 C-44.54 914.47 -44.54 914.47 -40 917 C-39.67 903.14 -39.34 889.28 -39 875 C-37.35 875.33 -35.7 875.66 -34 876 C-32.87 887.69 -32.66 899.38 -32.46 911.11 C-32.44 912.24 -32.42 913.37 -32.39 914.53 C-31.98 937.58 -31.89 960.64 -31.83 983.7 C-31.82 987.58 -31.81 991.47 -31.8 995.35 C-31.78 1000.28 -31.77 1005.2 -31.75 1010.13 C-31.75 1011.11 -31.75 1012.09 -31.74 1013.11 C-31.71 1024.24 -31.68 1035.38 -31.67 1046.51 C-31.67 1055.52 -31.64 1064.53 -31.6 1073.54 C-31.59 1078.26 -31.57 1082.99 -31.58 1087.71 C-31.58 1092.11 -31.57 1096.51 -31.54 1100.91 C-31.53 1102.51 -31.53 1104.12 -31.54 1105.72 C-31.6 1119.91 -29.12 1130.51 -19 1141 C-9.61 1149.57 -1.03 1152.16 11.48 1152.13 C12.9 1152.13 12.9 1152.13 14.36 1152.13 C17.49 1152.14 20.62 1152.14 23.76 1152.13 C25.94 1152.13 28.13 1152.13 30.32 1152.14 C34.9 1152.14 39.49 1152.14 44.07 1152.13 C49.92 1152.12 55.78 1152.13 61.63 1152.13 C66.15 1152.14 70.67 1152.14 75.19 1152.13 C77.34 1152.13 79.5 1152.13 81.66 1152.14 C84.68 1152.14 87.71 1152.13 90.74 1152.13 C91.62 1152.13 92.5 1152.13 93.4 1152.14 C109.91 1152.08 120.56 1149.01 132.75 1137.62 C139.69 1130.45 141.04 1122.77 141.28 1113.02 C141.3 1112.35 141.32 1111.68 141.34 1110.99 C141.37 1109.54 141.41 1108.09 141.45 1106.65 C141.5 1104.35 141.56 1102.05 141.62 1099.76 C141.75 1094.88 141.88 1090 142 1085.12 C142.14 1079.48 142.29 1073.83 142.44 1068.18 C142.5 1065.93 142.55 1063.68 142.61 1061.43 C142.78 1054.9 142.99 1048.46 144 1042 C145.65 1041.67 147.3 1041.34 149 1041 C149.01 1041.69 149.02 1042.37 149.03 1043.08 C149.14 1050.2 149.25 1057.32 149.37 1064.44 C149.42 1067.1 149.46 1069.77 149.5 1072.43 C149.55 1076.24 149.62 1080.06 149.68 1083.87 C149.7 1085.07 149.72 1086.27 149.73 1087.5 C149.75 1088.6 149.77 1089.7 149.79 1090.84 C149.81 1091.81 149.83 1092.79 149.84 1093.79 C149.76 1095.97 149.76 1095.97 151 1097 C152.87 1097.09 154.75 1097.12 156.62 1097.11 C157.82 1097.11 159.02 1097.11 160.26 1097.11 C162.22 1097.11 162.22 1097.11 164.22 1097.1 C165.57 1097.1 166.91 1097.09 168.25 1097.09 C171.8 1097.09 175.34 1097.08 178.88 1097.07 C182.5 1097.06 186.11 1097.05 189.72 1097.05 C196.81 1097.04 203.91 1097.02 211 1097 C211.03 1095.82 211.05 1094.63 211.08 1093.41 C211.17 1088.97 211.27 1084.53 211.37 1080.09 C211.42 1078.17 211.46 1076.26 211.5 1074.35 C212.06 1047.83 212.06 1047.83 214 1042 C215.32 1042 216.64 1042 218 1042 C219.35 1054.94 219.31 1067.94 219.5 1080.94 C218.1 1113.26 218.1 1113.26 231.82 1140.88 C238.57 1147.21 246.87 1152.11 256.31 1152.13 C257.17 1152.14 258.02 1152.14 258.9 1152.15 C259.83 1152.15 260.76 1152.15 261.72 1152.15 C262.7 1152.15 263.69 1152.15 264.71 1152.16 C267.97 1152.16 271.24 1152.17 274.5 1152.17 C276.77 1152.17 279.05 1152.17 281.32 1152.18 C286.1 1152.18 290.87 1152.19 295.65 1152.19 C301.74 1152.19 307.84 1152.2 313.93 1152.22 C318.64 1152.23 323.34 1152.23 328.04 1152.23 C330.29 1152.23 332.53 1152.23 334.78 1152.24 C360.62 1152.43 360.62 1152.43 382.31 1139.31 C390.05 1130.9 392.9 1121.93 392.86 1110.7 C392.88 1109.47 392.9 1108.24 392.92 1106.98 C392.97 1103.44 392.98 1099.9 392.99 1096.37 C393 1093.01 393.04 1089.66 393.07 1086.31 C393.19 1074.25 393.23 1062.19 393.27 1050.13 C393.29 1044.5 393.31 1038.88 393.34 1033.25 C393.4 1017.81 393.46 1002.37 393.51 986.93 C393.56 972.72 393.62 958.5 393.68 944.29 C393.71 937.63 393.73 930.97 393.75 924.3 C393.76 920.16 393.78 916.01 393.8 911.87 C393.81 909.96 393.81 908.05 393.82 906.14 C393.84 895.71 394.07 885.4 395 875 C396.65 875.33 398.3 875.66 400 876 C401.29 879.86 401.23 883.57 401.32 887.61 C401.35 888.86 401.35 888.86 401.38 890.15 C401.44 892.83 401.5 895.51 401.56 898.19 C401.61 900 401.65 901.82 401.69 903.64 C401.8 908.09 401.9 912.55 402 917 C404.23 915.73 406.46 914.46 408.69 913.19 C409.31 912.83 409.94 912.47 410.58 912.11 C411.2 911.76 411.82 911.4 412.45 911.04 C413.01 910.72 413.57 910.4 414.15 910.07 C416.45 908.74 418.72 907.37 421 906 C415.21 878.62 409.17 851.3 402.9 824.02 C400.84 815.07 398.8 806.12 396.75 797.17 C396.51 796.15 396.28 795.14 396.04 794.09 C392.58 778.99 389.16 763.88 385.78 748.76 C385.04 745.48 384.31 742.21 383.57 738.93 C381.46 729.51 379.35 720.09 377.25 710.66 C376.39 706.81 375.52 702.96 374.66 699.11 C374.26 697.32 373.86 695.53 373.46 693.74 C372.92 691.3 372.37 688.86 371.82 686.42 C371.67 685.7 371.51 684.99 371.35 684.25 C370.6 680.98 369.89 678.83 368 676 Z M484 705 C484.16 705.57 484.32 706.15 484.48 706.74 C485 708.62 485.51 710.5 486.02 712.38 C486.72 714.97 487.44 717.54 488.17 720.12 C492.98 737.29 496.53 755.13 497 773 C497.03 773.74 497.05 774.47 497.08 775.23 C497.59 791.28 496.26 807.26 493 823 C491.4 823.25 489.79 823.47 488.19 823.69 C487.29 823.82 486.4 823.94 485.48 824.07 C483 824 483 824 481.43 822.73 C479.89 820.86 479.32 819.51 478.68 817.19 C478.46 816.45 478.24 815.71 478.01 814.94 C477.78 814.16 477.55 813.37 477.31 812.56 C474.75 804.29 471.33 797.89 466 791 C463.6 794.78 463.53 798.73 463.19 803.06 C460.6 829.38 450.04 856.66 430.25 874.77 C427.51 877.49 426.19 879.38 425.73 883.23 C425.44 893.24 425.44 893.24 429 902 C434.85 901.56 440.32 900.24 445.97 898.72 C470.87 892.81 494.41 897.82 515.88 910.73 C524.97 916.87 532.42 925.14 540 933 C567.94 909.96 582.76 872.44 586.82 837.11 C589.75 802.53 578.03 767.19 558 739 C557.67 739 557.34 739 557 739 C556.92 740.62 556.92 740.62 556.85 742.27 C556.66 746.3 556.46 750.34 556.26 754.37 C556.17 756.11 556.09 757.85 556.01 759.59 C555.89 762.1 555.76 764.61 555.63 767.12 C555.6 767.89 555.57 768.66 555.53 769.45 C555.26 774.53 554.56 779.14 553 784 C549.53 786.31 548.08 786.42 544 786 C541.36 783.88 540.09 781.49 538.65 778.46 C538.22 777.56 537.78 776.66 537.33 775.73 C536.87 774.77 536.41 773.8 535.94 772.81 C523.65 747.79 507.16 722.42 485 705 C484.67 705 484.34 705 484 705 Z M320.88 761.06 C319.4 762.55 317.95 764.06 316.5 765.57 C288.05 794.91 246.91 810.69 208 820 C207.23 820.19 206.46 820.37 205.67 820.57 C162.05 830.94 112.74 813 75.5 790.5 C63.91 783.29 53.67 774.95 43.78 765.57 C41.59 763.54 39.43 761.72 37 760 C20.2 804.74 20.69 850.37 40.17 894.25 C46.24 907.25 54.47 918.36 64 929 C64.72 929.84 65.45 930.69 66.19 931.56 C70.46 936.51 74.9 940.91 80 945 C80.54 945.43 81.07 945.86 81.62 946.31 C100.93 961.72 122.05 971.96 146 978 C147.9 978.48 147.9 978.48 149.85 978.98 C189.49 987.74 229.76 978.31 264 958 C264.64 957.62 265.28 957.24 265.94 956.85 C273.61 952.24 280.16 946.59 286.56 940.39 C287.92 939.08 289.31 937.8 290.71 936.52 C320.64 908.25 335.25 869.58 336.91 829.09 C337.55 806.17 334.92 779.55 324 759 C322.63 758.88 322.63 758.88 320.88 761.06 Z M-167.68 933.14 C-186.74 956.6 -190.01 986.23 -187.81 1015.48 C-187.3 1019.79 -186.25 1023.85 -185 1028 C-184.78 1028.77 -184.56 1029.54 -184.33 1030.34 C-174.95 1062.79 -155.62 1091.49 -127 1110 C-125.7 1110.86 -125.7 1110.86 -124.37 1111.74 C-116.2 1116.86 -107.46 1120.17 -98.35 1123.21 C-96.81 1123.73 -95.28 1124.27 -93.77 1124.85 C-86.52 1127.41 -79.34 1127.49 -71.75 1127.45 C-69.57 1127.44 -67.39 1127.47 -65.21 1127.5 C-57.14 1127.54 -49.11 1127.29 -42 1123 C-37.09 1116.24 -39.15 1106.79 -40 1099 C-40.62 1099.19 -41.23 1099.39 -41.87 1099.59 C-44.57 1100.42 -47.29 1101.21 -50 1102 C-50.67 1102.21 -51.34 1102.43 -52.04 1102.64 C-68.02 1107.06 -83.39 1103.56 -97.81 1096.19 C-118.83 1083.99 -130.82 1065.4 -137.24 1042.29 C-141.68 1023.13 -139.15 1004.85 -129 988 C-120.83 976.7 -109.84 969.77 -96.19 967.31 C-77.39 965.53 -62.06 969.36 -46.59 980.23 C-44.43 981.71 -42.35 982.86 -40 984 C-39.95 977.94 -39.91 971.87 -39.89 965.81 C-39.88 963.75 -39.87 961.69 -39.85 959.63 C-39.82 956.65 -39.81 953.68 -39.8 950.7 C-39.79 949.79 -39.78 948.89 -39.77 947.95 C-39.74 935.17 -39.74 935.17 -45 924 C-47.17 922.49 -49.19 921.23 -51.5 920 C-52.13 919.66 -52.75 919.31 -53.39 918.96 C-91.91 898.07 -137.48 898.82 -167.68 933.14 Z M408 923 C398.82 933.48 401.66 951.96 401.81 964.81 C401.83 967.07 401.84 969.32 401.85 971.57 C401.89 977.05 401.94 982.52 402 988 C406.04 985.33 409.88 982.56 413.69 979.56 C427.05 969.48 442.65 965.26 459.26 967.43 C471.5 969.66 484.41 974.65 492.16 984.84 C503.16 1002.76 506.93 1021.78 502.81 1042.56 C498.54 1059.38 490.09 1072.84 478 1085 C477.3 1085.74 476.61 1086.49 475.89 1087.25 C464.18 1098.87 446.56 1104.14 430.44 1104.44 C420.71 1104.4 412.54 1101.5 404 1097 C403.34 1097 402.68 1097 402 1097 C400.61 1104.99 399.79 1113.36 403 1121 C407.14 1125.94 412.93 1126.21 419 1127 C442.81 1128.68 461.1 1125.15 482 1114 C482.69 1113.64 483.38 1113.28 484.09 1112.92 C513.14 1097.57 533.93 1067.21 543.8 1036.51 C553.21 1005.88 552.84 973.62 537.72 944.84 C534.65 939.77 530.97 935.38 527 931 C526.2 930.12 525.41 929.24 524.59 928.34 C510.62 913.66 491.31 905.52 471.1 904.76 C448.22 904.3 427.07 909.99 408 923 Z M-122.21 992.55 C-129.09 1001.97 -131.39 1012.85 -131.31 1024.31 C-131.31 1025.14 -131.3 1025.97 -131.3 1026.83 C-130.9 1047.91 -119.88 1067.62 -105 1082.12 C-93.11 1092.2 -77.74 1097.63 -62.19 1096.94 C-55.35 1096.17 -47.55 1094.58 -43 1089 C-39.81 1078.89 -39.84 1068.41 -39.83 1057.9 C-39.83 1056.66 -39.83 1055.43 -39.82 1054.16 C-39.82 1051.55 -39.81 1048.95 -39.81 1046.34 C-39.81 1042.41 -39.79 1038.47 -39.78 1034.54 C-38.22 1010.78 -38.22 1010.78 -46.95 990.01 C-51.89 985.96 -56.87 982.83 -62.62 980.12 C-63.23 979.84 -63.84 979.55 -64.47 979.26 C-85.97 969.65 -107.04 974.78 -122.21 992.55 Z M409 993 C400.73 1003.01 401.84 1018.11 401.83 1030.4 C401.83 1031.67 401.83 1032.94 401.82 1034.25 C401.82 1036.93 401.81 1039.6 401.81 1042.28 C401.81 1045.68 401.8 1049.08 401.78 1052.48 C401.77 1055.77 401.77 1059.05 401.77 1062.34 C401.76 1063.54 401.76 1064.75 401.75 1065.99 C401.35 1078.57 401.35 1078.57 406.25 1089.52 C418.9 1096.34 432.2 1098.26 446.34 1095.3 C449.03 1094.39 451.47 1093.3 454 1092 C454.88 1091.6 455.77 1091.2 456.68 1090.79 C464.72 1086.86 470.73 1081.25 477 1075 C477.67 1074.36 478.34 1073.73 479.03 1073.07 C489.93 1061.9 496.45 1043.41 497.19 1028.12 C496.87 1012.49 494.27 998.51 483.01 986.74 C473.77 978.73 463.91 974.4 451.69 974.56 C450.44 974.57 450.44 974.57 449.17 974.59 C434.34 974.99 419.2 982.19 409 993 Z " fill="#000000" transform="translate(429,110)"/>
<path d="M0 0 C7.32 5.03 12.6 12.9 17.62 20.12 C18.52 21.41 18.52 21.41 19.43 22.72 C26.56 33.15 32.89 44.01 39 55.06 C39.9 56.69 39.9 56.69 40.81 58.34 C59.43 92.32 73.3 129.88 74 169.06 C74.02 170.09 74.04 171.12 74.06 172.18 C74.6 204.05 72.61 236.01 65 267.06 C62.26 264.67 61.07 262.34 59.69 259 C59.26 257.99 58.83 256.97 58.39 255.93 C57.93 254.84 57.47 253.75 57 252.62 C40.21 213.7 15.18 178.66 -18 152.06 C-18.76 151.43 -19.52 150.79 -20.3 150.13 C-31.5 140.82 -43.89 133.09 -56.63 126.08 C-70.53 118.4 -70.53 118.4 -73 112.06 C-77.59 80.61 -40.64 34.34 -23.27 10.75 C-16.78 2.12 -11.45 -3.58 0 0 Z M-18.14 17.83 C-20.41 21.08 -22.6 24.37 -24.75 27.69 C-25.54 28.9 -26.34 30.11 -27.13 31.32 C-52.29 67.64 -52.29 67.64 -63.7 109.05 C-61.88 114.29 -55.42 116.59 -50.81 119.06 C-31.49 129.71 -13.88 142.77 2 158.06 C2.57 158.61 3.15 159.16 3.74 159.73 C11.37 167.12 18.43 174.69 25 183.06 C25.94 184.2 26.88 185.34 27.83 186.48 C40.74 202.12 50.52 219.18 60 237.06 C60.66 237.06 61.32 237.06 62 237.06 C65.72 203.94 68.84 168.77 61 136.06 C60.64 134.54 60.64 134.54 60.27 133 C56.39 117.26 51.07 102.08 45 87.06 C44.67 86.25 44.35 85.44 44.01 84.61 C36.4 65.94 25.83 49.05 14.69 32.31 C14.26 31.67 13.83 31.03 13.39 30.36 C5.8 17.28 5.8 17.28 -4.94 7.56 C-10.8 8.52 -14.62 13.28 -18.14 17.83 Z " fill="#000000" transform="translate(813,201.9375)"/>
<path d="M0 0 C8.81 4.46 14.47 13.69 19.94 21.62 C20.54 22.5 21.15 23.38 21.78 24.28 C26.86 31.67 31.6 39.18 36 47 C36.68 48.21 36.68 48.21 37.38 49.44 C66.02 100.35 66.02 100.35 63 113 C59.04 119.95 52.01 123.12 45.19 126.69 C34.53 132.46 24.65 138.69 15 146 C14.11 146.66 14.11 146.66 13.2 147.33 C-26.95 177.07 -55.64 219.98 -74 266 C-74.66 266 -75.32 266 -76 266 C-79.18 251.42 -81.44 236.84 -83 222 C-83.1 221.14 -83.19 220.28 -83.29 219.4 C-85.82 194.09 -86.2 165.93 -81 141 C-80.81 140.04 -80.61 139.07 -80.41 138.08 C-71.95 96.91 -53.74 60.51 -30.69 25.75 C-29.96 24.66 -29.96 24.66 -29.23 23.54 C-27.83 21.44 -26.42 19.33 -25.01 17.23 C-24.39 16.3 -24.39 16.3 -23.75 15.34 C-17.48 6.06 -12.12 -1.15 0 0 Z M-14 16 C-17.07 20.16 -19.88 24.46 -22.63 28.83 C-24.03 31.05 -25.46 33.26 -26.88 35.46 C-48.62 69.2 -65.98 105.15 -73 145 C-73.18 146.02 -73.37 147.03 -73.56 148.08 C-75.34 159.35 -75.34 170.59 -75.32 181.98 C-75.31 185.33 -75.34 188.69 -75.36 192.05 C-75.4 207.23 -74.17 221.98 -72 237 C-69.66 233.99 -67.87 230.93 -66.15 227.52 C-58.43 212.26 -48.73 198.28 -38 185 C-37.58 184.48 -37.16 183.95 -36.73 183.41 C-27.16 171.57 -16.65 160.57 -4.69 151.13 C-1.85 148.88 0.88 146.54 3.62 144.19 C14.86 134.85 26.8 126.8 39.58 119.74 C41.75 118.53 43.88 117.29 46 116 C46.62 115.63 47.24 115.27 47.88 114.89 C50.25 113.26 51.82 111.82 52.45 108.96 C52.62 103.77 51.45 99.08 49.62 94.25 C49.36 93.53 49.1 92.82 48.83 92.08 C38.01 63.58 20.67 30.67 -1 9 C-7.22 8.26 -10.06 11.6 -14 16 Z " fill="#000000" transform="translate(417,201)"/>
<path d="M0 0 C1.22 0 2.45 0.01 3.71 0.01 C22.72 0.26 45.59 3.45 59.75 17.44 C64.11 23.11 64.59 29.89 63.9 36.81 C60.87 53.38 50.57 67.24 37.25 77.31 C26.75 84.43 15.98 88.75 3.25 89.31 C3.48 91.84 3.73 94.35 4 96.88 C4.09 97.93 4.09 97.93 4.19 99.01 C4.97 106.13 7.61 111.41 13.19 116.12 C13.84 116.69 14.48 117.25 15.15 117.83 C21.12 122.04 27.19 122 34.25 121.31 C41.98 119.58 46.85 115.84 51.25 109.31 C54.04 103.93 55.6 98.13 57.25 92.31 C59.23 92.31 61.21 92.31 63.25 92.31 C65.51 98.22 65.44 102.36 63.25 108.31 C58.42 118.79 50.76 125.78 40.25 130.31 C32.85 132.78 21.63 132.46 14.34 129.57 C10.64 127.35 7.6 124.45 4.51 121.47 C2.51 119.56 0.49 117.91 -1.75 116.31 C-2.19 116.89 -2.63 117.47 -3.08 118.07 C-9.53 126.02 -17.12 131.04 -27.44 132.31 C-37.72 132.68 -47.12 129.35 -54.86 122.42 C-61.03 115.71 -64.87 108.37 -64.94 99.19 C-64.95 98.32 -64.97 97.45 -64.98 96.55 C-64.75 94.31 -64.75 94.31 -62.75 92.31 C-60.31 92.19 -60.31 92.19 -57.75 93.31 C-56.17 96.72 -55.12 99.99 -54.11 103.6 C-52 110.71 -48.67 115.82 -42.25 119.75 C-35.85 122.6 -27.97 122.44 -21.28 120.65 C-15.04 117.88 -10.64 112.8 -7.88 106.62 C-6.09 101.34 -6.5 95.81 -6.75 90.31 C-7.27 90.14 -7.79 89.97 -8.33 89.8 C-10.81 88.98 -13.28 88.15 -15.75 87.31 C-16.64 87.02 -17.53 86.73 -18.45 86.43 C-35.94 80.48 -49.34 68.23 -58.49 52.28 C-62.95 42.92 -65.5 32.97 -62.81 22.75 C-58.8 14.66 -49.9 9.42 -41.75 6.31 C-28.02 1.93 -14.41 -0.07 0 0 Z M-52.25 22.38 C-55.32 26.34 -55.07 30.42 -54.75 35.31 C-51.68 50.57 -42.63 62.51 -29.97 71.2 C-17.46 79.28 -3 82.12 11.56 79.25 C27.21 75.26 40.09 65.18 48.85 51.73 C53.21 44.2 56.02 37.14 55.25 28.31 C50.87 20.04 43.78 16.38 35.25 13.31 C26.17 10.74 16.7 8.68 7.25 8.31 C6.28 8.26 5.31 8.21 4.31 8.16 C-14.65 7.62 -37.14 9.91 -52.25 22.38 Z " fill="#000000" transform="translate(607.75,743.6875)"/>
<path d="M0 0 C6.84 4.88 12.3 10.54 14 19 C14.87 28.02 12.99 34.06 8.38 41.69 C1.97 47.93 -5.34 51.39 -14.24 51.28 C-22 50.5 -28.83 46.79 -34 41 C-39.15 33.77 -39.8 26.69 -39 18 C-36.38 8.94 -31.4 3.95 -23.44 -0.77 C-15.92 -4.57 -7.38 -3.75 0 0 Z " fill="#000000" transform="translate(781,616)"/>
<path d="M0 0 C7.35 4.6 10.66 10.76 13 19 C14.21 25.72 12.48 31.22 9 37 C4.34 43.51 -0.94 48.36 -9 50 C-16.52 50.75 -23.14 49.65 -29.43 45.34 C-35.9 40.01 -39.39 35.04 -40.41 26.67 C-40.79 17.72 -39.27 11.12 -33.5 4.2 C-23.91 -5.09 -11.42 -6 0 0 Z " fill="#000000" transform="translate(461,617)"/>
<path d="M0 0 C5.11 3.26 8.49 8.91 10.38 14.56 C10.96 21.69 9.34 28.34 5.62 34.44 C0.87 38.93 -3.96 41.45 -10.62 41.56 C-16.36 40.5 -19.76 37.93 -23.4 33.48 C-27.08 27.72 -27.34 22.22 -26.62 15.56 C-24.83 8.37 -20.66 3.72 -14.62 -0.44 C-9.27 -2.22 -5.16 -2.04 0 0 Z M-12.88 9.69 C-16.58 13.56 -17.69 16.3 -17.94 21.56 C-17.85 25.28 -16.96 27.6 -14.62 30.56 C-11.49 32.13 -9.09 31.91 -5.62 31.56 C-1.11 28.25 0.43 25.02 1.38 19.56 C1.24 15.65 0.96 13.39 -1.31 10.19 C-5.74 7.08 -8.28 6.68 -12.88 9.69 Z " fill="#000000" transform="translate(893.625,1032.4375)"/>
<path d="M0 0 C5.76 3.4 9.82 7.54 11.79 14.05 C13.28 21.53 12.63 27.57 9.04 34.36 C5.66 38.4 2.55 40.55 -2.53 41.99 C-8.26 42.09 -12.85 41.09 -17.27 37.28 C-23.17 30.88 -24.64 25.33 -24.47 16.73 C-23.91 10.87 -21.32 6.27 -17.21 2.05 C-11.9 -1.53 -5.98 -2.56 0 0 Z M-13.21 11.05 C-15.63 15.08 -15.81 19.46 -15.21 24.05 C-13.65 28.07 -12.83 29.64 -9.21 32.05 C-3.73 32.6 -3.73 32.6 1.22 30.68 C3.64 26.61 4.08 22.75 3.79 18.05 C2.58 13.76 1.11 10.83 -2.78 8.55 C-7.33 7.62 -9.52 8.3 -13.21 11.05 Z " fill="#000000" transform="translate(344.21484375,1031.94921875)"/>
<path d="M0 0 C6.19 2.79 11.03 8.06 13.58 14.35 C14.26 19.59 14.24 24.01 11.89 28.79 C8.45 32.6 5.16 36.09 -0.11 36.62 C-8.95 36.89 -15.7 35.75 -22.33 29.56 C-26.84 24.53 -27.72 20.54 -27.63 13.85 C-27.22 9.07 -25.45 6.3 -21.98 3.1 C-15.24 -1.51 -7.97 -2.15 0 0 Z M-17.04 9.85 C-18.6 12.68 -19.16 15.07 -19.02 18.31 C-17.88 22.18 -14.68 24.22 -11.42 26.35 C-7.71 28.2 -3.46 27.8 0.58 27.35 C3.36 25.99 3.36 25.99 4.58 23.35 C5.14 20 5.33 17.65 3.59 14.63 C0.62 10.87 -2.1 8.67 -6.86 8.01 C-12.18 7.91 -12.18 7.91 -17.04 9.85 Z " fill="#000000" transform="translate(277.41796875,1086.65234375)"/>
<path d="M0 0 C4.05 4.44 5.42 8.5 5.94 14.44 C5.14 23.19 1.9 27.93 -4.38 33.88 C-9.54 37.66 -15.19 37.67 -21.38 36.88 C-25.67 35.55 -28.06 33.3 -30.75 29.69 C-33.54 24.03 -34.06 18.39 -32.38 12.31 C-29.99 6.09 -25.88 1.43 -20.25 -2.06 C-12.75 -4.83 -6.84 -4.31 0 0 Z M-21.25 10.5 C-23.96 14.8 -24.35 17.92 -23.38 22.88 C-21.46 26.42 -20.27 27.55 -16.5 28.94 C-11.62 28.84 -9.02 26.41 -5.56 23.19 C-3.07 18.33 -2.87 13.55 -4.44 8.38 C-6.19 5.67 -6.19 5.67 -9.19 4.81 C-14.54 4.92 -17.36 6.95 -21.25 10.5 Z " fill="#000000" transform="translate(943.375,1047.125)"/>
<path d="M0 0 C5.19 4.11 8.56 9.57 10.09 15.96 C10.91 22.95 9.09 28.16 5.09 33.96 C1.41 37.62 -1.05 38.53 -6.22 38.52 C-13.85 38.28 -17.88 35.9 -23.22 30.71 C-27.5 23.74 -29.22 16.1 -27.91 7.96 C-25.82 3.24 -22.62 0.08 -17.91 -2.04 C-11.96 -3.6 -5.46 -2.97 0 0 Z M-18.91 9.96 C-19.95 14.39 -19.79 18.25 -17.69 22.32 C-15.17 25.83 -13.01 28.38 -8.91 29.96 C-5.32 30.04 -5.32 30.04 -1.91 28.96 C0.56 26.26 1.04 24.3 1.66 20.71 C0.88 15.55 -1.46 11.84 -4.91 7.96 C-10.3 4.7 -14.73 4.95 -18.91 9.96 Z " fill="#000000" transform="translate(302.90625,1046.0390625)"/>
<path d="M0 0 C4.49 3.29 8.28 7.36 9.56 12.88 C9.65 18.93 8.54 23.16 4.56 27.88 C-0.84 33.23 -5.43 36.15 -13.25 36.25 C-18.82 36.15 -22.94 35.23 -27.44 31.88 C-31.8 27.29 -32.82 23.45 -32.71 17.28 C-32.15 12.29 -30.22 8.55 -26.57 5.11 C-18.53 -1.16 -9.93 -3.25 0 0 Z M-20.88 11.56 C-23.11 14.87 -23.9 17.89 -23.44 21.88 C-21.1 25.2 -19.39 26.54 -15.56 27.88 C-9.45 27.88 -4.85 24.9 -0.44 20.88 C0.99 18.02 0.87 16.04 0.56 12.88 C-1.46 9.24 -2.69 8.11 -6.69 6.88 C-12.27 6.88 -16.31 8.4 -20.88 11.56 Z " fill="#000000" transform="translate(964.4375,1087.125)"/>
</svg>
