<?xml version="1.0" encoding="utf-8"?>
<!-- Generator: Adobe Illustrator 23.0.1, SVG Export Plug-In . SVG Version: 6.00 Build 0)  -->
<svg version="1.0" id="Слой_1" xmlns="http://www.w3.org/2000/svg" xmlns:xlink="http://www.w3.org/1999/xlink" x="0px" y="0px"
	 viewBox="0 0 720 720" style="enable-background:new 0 0 720 720;" xml:space="preserve">
<path d="M622.4,171.1c-13.2-35.7-48.3-62.7-89.5-68.7c-36.2-5.3-76.6,5.3-111,29.2c-6,4.2-11.9,8.7-17.6,13.1
	c-12.9,10-26.2,20.3-41.3,26.2c-27.5,10.6-58.2,5.8-87.9,1.2l-4-0.6c-30.5-4.7-65.4-8.3-94,7.8c-29.4,16.6-46.9,53.5-43.6,91.8
	c0.8,9.3,4.8,22.6,13.6,29.8c4.5,3.7,9.5,5.2,14.9,4.6c7.8-0.8,13.4-6,18.9-11c2.1-1.9,4.1-3.8,6.2-5.4c0.3,0.2,0.6,0.3,0.9,0.3
	c26,4.1,64.5,27.4,80.8,49c16.5,21.8,27.1,47.9,36.5,72.8c9.1,24,19.2,52.1,24,81c3.9,23.2,8,57.2-1.4,85.6c-0.2,0.5-0.2,1.1,0,1.7
	c4.7,14.3,20.4,24.3,36.8,24.3c2.2,0,4.5-0.2,6.7-0.6c15.9-2.8,30.9-14.5,40-31.4c8.5-15.8,11.3-33.8,12.9-49.3
	c3.2-31.2,2.5-63.1,1.9-93.9c-0.6-26.8-1.2-54.6,0.8-81.7c3.6-48.8,18.4-115,68.4-153.8c13.9-10.7,27.7-16.9,41.2-18.4
	c15.9-1.7,31.4,3.7,40.5,14.3c1.9,2.2,3.7,4.7,5.6,7.4c5.6,8,11.5,16.2,21.5,16.8c10.2,0.7,18.2-7.9,20.6-16.3
	C627,189.7,626.1,181.2,622.4,171.1 M619.8,195.5c-1.8,6.5-8,12.8-15.1,12.4c-7.5-0.5-12.4-7.4-17.5-14.6c-1.9-2.6-3.8-5.4-5.9-7.8
	c-10.2-11.8-27.5-18-45.1-16.1c-14.5,1.6-29.3,8.1-43.9,19.5c-51.6,39.9-66.8,107.7-70.5,157.6c-2,27.4-1.4,55.3-0.8,82.2
	c0.6,30.7,1.3,62.3-1.9,93.2c-1.5,15-4.2,32.3-12.3,47.3c-8.3,15.5-21.9,26.2-36.2,28.7c-15.8,2.8-32.3-5.9-37.3-19.3
	c9.4-29.3,5.3-63.8,1.4-87.3c-4.9-29.4-15.1-57.8-24.3-82c-9.5-25.3-20.3-51.8-37.2-74.1c-16.3-21.4-51.9-43.7-79-50
	c5.9-2.2,12.5-2.2,19.4-2.2c3,0,6.2,0,9.3-0.2c9.5-0.6,18.6-3.2,27.4-6.3c59.6,37.5,102.6,116.6,98,180.4c-0.1,1.5,1,2.7,2.5,2.8
	c0.1,0,0.1,0,0.2,0c1.4,0,2.5-1.1,2.6-2.5c4.6-64.4-37.8-143.7-97.1-183c1.7-0.7,3.5-1.3,5.2-2l28.9-11.1c6.1-2.4,12.3-4.7,18.5-7.2
	c21.8,41.2,46.9,95.1,50.8,149.7c0.1,1.4,1.3,2.5,2.6,2.5c0.1,0,0.1,0,0.2,0c1.5-0.1,2.6-1.4,2.5-2.8c-4-55.4-29.1-109.7-51.1-151.3
	c22.2-9,44.3-19.2,63.9-33.5c0.6-0.4,1.2-0.9,1.8-1.4c-20.3,31.9-29,71.1-23.4,108.7c0.2,1.3,1.3,2.3,2.6,2.3c0.1,0,0.3,0,0.4,0
	c1.5-0.2,2.5-1.6,2.2-3c-6.4-43,6.6-88.4,34.7-121.6c8.5-7.6,16.6-15.6,24.5-23.5c9.9-9.9,20.2-20.1,31.1-29.2
	c10.8-9,38.3-28.7,61.1-16.7c4.2,2.2,7.9,5.4,11.7,8.7c2.2,1.9,4.5,3.9,7,5.7c-27.1-0.8-55.9,10.5-78.8,31.7
	c-22.4,20.8-39.3,49.5-53.1,90.4c-10.3,30.3-17.3,61.8-20.9,93.6c-0.2,1.5,0.9,2.8,2.3,2.9c0.1,0,0.2,0,0.3,0c1.3,0,2.5-1,2.6-2.4
	c3.5-31.4,10.5-62.5,20.6-92.4c13.5-40,30-68,51.7-88.2c25.8-24,59.3-34.7,88.6-28.8c4.1,1.2,8.5,1.9,13,1.9c0,0,0,0,0.1,0
	c11.7,0,21.9,8.2,24.3,19.5l0.5,2.6c0.3,1.4,1.7,2.4,3.1,2.1c1.4-0.3,2.4-1.7,2.1-3.1l-0.5-2.6c-2.9-13.8-15.3-23.8-29.5-23.8h-0.1
	c-2.2,0-4.4-0.2-6.6-0.6c0,0,0,0,0,0c-1.6-0.4-3.3-0.8-4.9-1.1c-3.1-0.9-6-2.3-8.8-4c-3.4-2.1-6.4-4.7-9.6-7.5
	c-3.9-3.4-8-6.9-12.7-9.4c-25.7-13.6-55.4,7.6-67,17.3c-11,9.2-21.4,19.6-31.4,29.6c-7.5,7.5-15.2,15.2-23.3,22.4
	c-0.3,0.2-0.6,0.4-0.9,0.7c-0.2,0.2-0.3,0.4-0.4,0.5c-5.7,5.1-11.6,10-17.7,14.4c-26,18.9-56.6,30.6-86.1,42l-28.9,11.1
	c-12,4.6-24.4,9.3-37.3,10.2c-2.9,0.2-6,0.2-8.9,0.2c-8.2,0-16.7,0-24.3,3.8c-4.5,2.3-8.2,5.7-11.9,9c-5.1,4.6-9.8,9-15.9,9.6
	c-3.9,0.4-7.6-0.7-11-3.5c-6.2-5.1-10.8-15.4-11.7-26.2c-3.1-36.3,13.3-71.1,40.9-86.7c27.1-15.3,61-11.8,90.6-7.2l4,0.6
	c30.4,4.7,61.9,9.6,90.6-1.5c15.9-6.1,29.5-16.7,42.7-26.9c5.6-4.4,11.4-8.9,17.3-13c33.3-23.1,72.3-33.4,107.2-28.3
	c39.3,5.8,72.7,31.4,85.2,65.3C620.8,181.9,621.5,189.3,619.8,195.5"/>
</svg>
