<?xml version="1.0" encoding="UTF-8"?>
<!-- Generator: visioncortex VTracer 0.6.3 -->
<svg version="1.1" xmlns="http://www.w3.org/2000/svg" width="1280" height="1280">
<path d="M0 0 C1.52 -0.01 1.52 -0.01 3.08 -0.03 C6.36 -0.05 9.65 -0.07 12.93 -0.07 C14.05 -0.08 15.18 -0.08 16.33 -0.08 C34.7 -0.09 52.28 0.99 70.37 4.24 C71.44 4.43 72.51 4.61 73.62 4.8 C93.02 8.22 93.02 8.22 97.68 10.24 C100.45 11.38 100.45 11.38 103.87 11.74 C107.12 12.2 109.36 13.02 112.37 14.24 C114.47 14.73 116.58 15.17 118.7 15.58 C126.95 17.62 134.94 20.82 142.93 23.68 C144.56 24.25 144.56 24.25 146.22 24.83 C151.43 26.7 156.45 28.62 161.35 31.19 C163.72 32.42 166.13 33.55 168.55 34.68 C205.75 52.16 239.13 74.68 269.25 102.68 C273.39 106.49 277.51 109.41 282.37 112.24 C284.37 114.24 284.37 114.24 285.25 116.59 C286.52 119.59 288.01 121.32 290.25 123.68 C313.85 149.22 333.76 177.59 350.26 208.2 C351.26 210.03 352.28 211.84 353.31 213.64 C363 230.96 371.15 250.04 377.19 268.92 C378.28 272.67 378.28 272.67 381.07 275.12 C381.83 275.16 382.59 275.2 383.37 275.24 C384.49 275.49 385.61 275.74 386.77 275.99 C413.15 281.08 442.22 279.81 468.37 274.24 C469.76 273.95 469.76 273.95 471.17 273.65 C519.7 263.33 568.73 242.34 608.62 212.68 C613.33 209.18 617.25 206.3 623.31 206.18 C629.04 208.16 633.7 211.61 636.81 216.86 C647.57 240.11 636.08 274.39 628 297.16 C618.41 322.45 603.19 343.78 584.9 363.49 C581.97 366.67 579.16 369.93 576.37 373.24 C577.89 373.33 577.89 373.33 579.43 373.43 C598.18 375.86 616.36 386.27 631.37 397.24 C632.27 397.89 633.16 398.54 634.08 399.21 C669.75 426.86 693.24 467.15 699.31 511.86 C702.92 542.23 700.97 574.31 683.37 600.24 C680.56 603.78 677.53 607 674.37 610.24 C673.4 611.42 672.44 612.61 671.5 613.8 C667.44 618.59 662.45 622.58 657.37 626.24 C656.71 626.24 656.05 626.24 655.37 626.24 C655.11 626.81 654.85 627.38 654.57 627.96 C641.42 652.82 612.48 670.45 586.48 678.6 C531.87 695.21 472.64 679.86 423.52 653.85 C402.3 642.25 383.46 626.67 364.54 611.73 C359.19 607.51 353.79 603.36 348.37 599.24 C347.22 598.36 347.22 598.36 346.05 597.47 C331.52 586.42 331.52 586.42 316.37 576.24 C315.71 575.82 315.06 575.4 314.38 574.97 C304.01 568.41 293.53 562.36 282.37 557.24 C281.69 556.92 281.01 556.61 280.31 556.29 C265.89 549.7 250.05 545.06 234.06 545.11 C232.83 545.11 232.83 545.11 231.57 545.11 C229.19 545.15 229.19 545.15 226.37 546.24 C225.4 548.02 225.4 548.02 224.75 550.27 C224.46 551.13 224.17 551.99 223.87 552.88 C223.56 553.82 223.25 554.77 222.93 555.74 C211.72 588 193.71 615.66 171.37 641.24 C170.66 642.06 169.95 642.89 169.21 643.74 C159.94 654.27 150.05 664.47 139.01 673.15 C136.25 675.34 133.6 677.62 130.93 679.93 C118.05 690.67 103.94 699.94 89.37 708.24 C88.7 708.62 88.04 709.01 87.35 709.41 C19.97 748.38 -58.6 766.79 -136.13 766.55 C-137.36 766.55 -138.59 766.55 -139.85 766.55 C-158.62 766.5 -177.03 765.94 -195.63 763.24 C-196.86 763.07 -198.09 762.9 -199.36 762.72 C-234.34 757.74 -275.52 749.83 -302.63 725.24 C-303.47 724.53 -304.3 723.82 -305.16 723.09 C-316.31 713.49 -327.49 700.67 -329 685.49 C-328.91 679.14 -325.27 674.92 -321 670.55 C-313.09 664.54 -303.19 662.13 -293.75 659.68 C-250.72 647.85 -209.64 624.73 -171.12 602.66 C-167.31 600.49 -163.47 598.36 -159.63 596.24 C-162.34 593.53 -164.61 593.39 -168.35 592.57 C-169.76 592.26 -171.16 591.94 -172.57 591.63 C-173.69 591.38 -173.69 591.38 -174.82 591.13 C-203.46 584.75 -231.2 575.95 -257.94 563.8 C-258.94 563.35 -259.94 562.9 -260.97 562.44 C-265.75 560.23 -270.26 557.93 -274.66 555.04 C-282.3 549.77 -282.3 549.77 -291.18 548.53 C-296.6 550.03 -301.51 552.5 -306.47 555.12 C-336.27 570.48 -378.41 569.47 -411.32 569.43 C-412.63 569.42 -412.63 569.42 -413.96 569.42 C-456.49 569.32 -500.13 563.57 -531.63 532.24 C-536.41 527.1 -538.51 523.32 -538.63 516.24 C-538.3 511.65 -536.57 508.75 -533.63 505.24 C-524.6 498.39 -513.77 494.82 -502.82 492.49 C-485.6 488.75 -469.06 481.64 -453.63 473.24 C-452.67 472.73 -452.67 472.73 -451.7 472.21 C-433.56 462.53 -417.04 450.55 -400.63 438.24 C-399.89 437.68 -399.15 437.13 -398.38 436.55 C-397.52 435.9 -397.52 435.9 -396.63 435.24 C-396.96 434.56 -397.28 433.88 -397.62 433.18 C-400.2 427.68 -402.38 422.31 -403.95 416.43 C-404.53 414.24 -404.53 414.24 -405.68 412.46 C-410.1 402.07 -406.04 387.97 -402.56 377.95 C-401.45 374.72 -400.4 371.48 -399.35 368.24 C-390.21 340.13 -379.65 312.61 -366.73 286 C-365.38 283.11 -365.38 283.11 -365.63 279.24 C-366.98 277.78 -366.98 277.78 -368.89 276.64 C-369.59 276.18 -370.29 275.71 -371.01 275.23 C-372.15 274.49 -372.15 274.49 -373.32 273.74 C-385.77 265.3 -397.48 255.97 -404.13 242.11 C-405.29 235.42 -403.9 230.6 -400.13 225.12 C-389.81 212.22 -372.84 209.1 -357.44 206.18 C-356.52 206 -355.61 205.82 -354.66 205.64 C-349.3 204.67 -344.08 204.11 -338.63 203.92 C-325.6 203.89 -325.6 203.89 -314.71 197.87 C-312.03 194.35 -309.97 190.54 -307.95 186.62 C-305.69 182.55 -302.81 179 -299.94 175.36 C-298.84 173.94 -297.75 172.52 -296.65 171.1 C-284.85 155.97 -272.45 140.63 -258.6 127.29 C-258.1 126.81 -257.61 126.33 -257.09 125.83 C-255.72 124.51 -254.33 123.21 -252.94 121.91 C-250.93 119.58 -250.12 118.3 -249.06 115.55 C-247.55 112.05 -247.14 111.41 -243.75 110.05 C-239.2 107.81 -235.89 104.95 -232.25 101.49 C-226.59 96.11 -220.76 91.09 -214.63 86.24 C-214.02 85.75 -213.41 85.26 -212.79 84.75 C-199.96 74.39 -186.49 65.16 -172.63 56.24 C-171.94 55.79 -171.25 55.34 -170.53 54.88 C-144.2 38.02 -115.19 25.21 -85.63 15.24 C-84.87 14.98 -84.1 14.72 -83.32 14.46 C-63.24 7.82 -42.08 3.99 -21.11 1.53 C-19.07 1.29 -17.04 1.01 -15.01 0.72 C-10.01 0.1 -5.03 0.04 0 0 Z M-10.63 1.24 C-10.63 1.57 -10.63 1.9 -10.63 2.24 C-8.98 2.24 -7.33 2.24 -5.63 2.24 C-5.63 1.91 -5.63 1.58 -5.63 1.24 C-7.28 1.24 -8.93 1.24 -10.63 1.24 Z M34.37 1.24 C34.37 1.57 34.37 1.9 34.37 2.24 C36.02 2.24 37.67 2.24 39.37 2.24 C39.37 1.91 39.37 1.58 39.37 1.24 C37.72 1.24 36.07 1.24 34.37 1.24 Z M-97.66 36.49 C-99.56 37.21 -101.48 37.86 -103.4 38.5 C-107.43 40.67 -108.92 43.27 -110.88 47.24 C-111.64 48.68 -112.4 50.12 -113.16 51.56 C-113.75 52.7 -113.75 52.7 -114.35 53.86 C-116.13 57.17 -118.06 60.38 -119.98 63.6 C-129.91 79.73 -129.91 79.73 -130.69 97.99 C-127.25 108.14 -119.92 115.2 -112.07 122.13 C-107.94 125.81 -104.04 129.71 -100.13 133.61 C-99.45 134.29 -98.76 134.97 -98.06 135.67 C-95.39 138.34 -92.84 140.97 -90.49 143.93 C-83.23 152.94 -73.66 159.1 -62.22 160.45 C-55.68 159.91 -50.64 156.03 -45.5 152.3 C-27.77 139.84 -8.32 130.4 11.07 120.86 C17.52 117.69 23.95 114.48 30.37 111.24 C31.01 110.92 31.65 110.61 32.31 110.29 C43 105.01 53.68 99.55 58.48 88.03 C60.36 82.17 61.04 76.06 61.87 69.99 C62.08 68.54 62.29 67.09 62.5 65.64 C63.14 61.17 63.76 56.71 64.37 52.24 C64.47 51.52 64.57 50.8 64.67 50.05 C64.96 47.93 65.25 45.81 65.54 43.7 C65.64 43.02 65.73 42.35 65.82 41.66 C66.26 38.46 66.69 35.26 67.12 32.05 C67.34 30.35 67.34 30.35 67.57 28.62 C67.7 27.62 67.84 26.63 67.97 25.6 C68.37 23.24 68.37 23.24 69.37 21.24 C66.22 19.14 64.8 18.85 61.14 18.42 C60.1 18.3 59.05 18.17 57.98 18.05 C56.87 17.92 55.76 17.8 54.62 17.68 C53.48 17.55 52.35 17.42 51.17 17.28 C0.59 11.65 -50.08 18.21 -97.66 36.49 Z M68.37 23.24 C69.37 25.24 69.37 25.24 69.37 25.24 Z M84.37 23.24 C82.81 28.16 81.99 32.79 81.66 37.95 C81.55 39.45 81.44 40.94 81.33 42.44 C81.28 43.21 81.22 43.99 81.17 44.78 C80.25 57.72 79.02 70.43 76.55 83.18 C76.38 84.07 76.22 84.95 76.04 85.86 C75.81 87 75.81 87 75.58 88.15 C75.35 90.49 75.56 92.04 76.37 94.24 C78.65 96.32 78.65 96.32 81.56 98.3 C82.66 99.09 83.76 99.89 84.86 100.68 C85.43 101.1 86.01 101.51 86.6 101.94 C89.56 104.11 92.43 106.4 95.31 108.68 C96.5 109.61 97.69 110.55 98.88 111.49 C99.47 111.95 100.05 112.41 100.65 112.89 C137.6 144.91 137.6 144.91 182.37 157.24 C199.86 154.19 216.57 141.78 231.9 133.27 C238.83 129.42 245.79 125.64 252.76 121.87 C253.59 121.42 254.43 120.96 255.29 120.5 C256.01 120.11 256.73 119.72 257.47 119.31 C259.15 118.36 260.77 117.31 262.37 116.24 C261.71 116.24 261.05 116.24 260.37 116.24 C260.26 115.38 260.26 115.38 260.14 114.5 C259.1 111.43 257.44 110.17 255 108.05 C254.08 107.26 253.16 106.46 252.22 105.64 C251.28 104.85 250.34 104.06 249.37 103.24 C248.57 102.55 247.76 101.86 246.93 101.14 C206.12 66.91 139.72 23.24 84.37 23.24 Z M66.37 37.24 C67.37 40.24 67.37 40.24 67.37 40.24 Z M64.37 52.24 C65.37 54.24 65.37 54.24 65.37 54.24 Z M-138.41 55 C-139.16 55.39 -139.91 55.78 -140.68 56.18 C-141.49 56.61 -142.3 57.04 -143.13 57.49 C-143.97 57.94 -144.82 58.39 -145.69 58.85 C-170.24 72.1 -195.71 88.53 -215.63 108.24 C-215.63 108.57 -215.63 108.9 -215.63 109.24 C-213.65 109.24 -211.67 109.24 -209.63 109.24 C-209.63 108.91 -209.63 108.58 -209.63 108.24 C-170.92 104.95 -170.92 104.95 -157.88 104.8 C-157.05 104.78 -156.23 104.76 -155.38 104.73 C-152.06 104.75 -150.15 104.76 -147.63 107.04 C-146.18 110.21 -146.31 112.8 -146.63 116.24 C-149.48 119.09 -152.45 118.75 -156.28 118.98 C-157.47 119.07 -157.47 119.07 -158.68 119.15 C-160.4 119.27 -162.13 119.39 -163.85 119.5 C-166.59 119.68 -169.32 119.87 -172.06 120.07 C-180.92 120.7 -189.78 121.26 -198.66 121.7 C-202.56 121.9 -206.46 122.12 -210.37 122.34 C-212.24 122.44 -214.11 122.52 -215.98 122.6 C-227.38 122.6 -227.38 122.6 -237.31 127.32 C-238.45 128.6 -239.55 129.91 -240.63 131.24 C-242.03 132.62 -243.45 134 -244.88 135.36 C-246.32 136.8 -247.76 138.23 -249.19 139.68 C-250.27 140.74 -250.27 140.74 -251.36 141.83 C-255.99 146.47 -260.37 151.26 -264.63 156.24 C-265.1 156.78 -265.56 157.32 -266.04 157.87 C-268.8 161.06 -271.5 164.29 -274.19 167.53 C-275.62 169.23 -277.09 170.88 -278.56 172.54 C-279.48 173.63 -280.4 174.71 -281.32 175.8 C-282.56 177.23 -282.56 177.23 -283.83 178.68 C-285.71 182.4 -285.73 183.34 -285.47 187.3 C-285.11 197.21 -289.25 206.45 -292.44 215.68 C-293.73 219.44 -295 223.21 -296.27 226.98 C-296.58 227.88 -296.88 228.79 -297.19 229.71 C-303.03 247.26 -306.53 263.69 -297.96 280.91 C-292.33 291.68 -284.67 300.35 -276.44 309.18 C-274.41 311.36 -272.47 313.59 -270.54 315.84 C-266.34 320.65 -261.84 325.12 -257.29 329.6 C-255.49 331.39 -253.68 333.19 -251.88 334.98 C-249.07 337.76 -246.26 340.55 -243.44 343.33 C-240.7 346.04 -237.96 348.76 -235.23 351.48 C-234.4 352.29 -233.57 353.11 -232.72 353.95 C-227.7 358.94 -223.11 364.14 -218.7 369.67 C-205.94 386.37 -205.94 386.37 -188.13 395.99 C-183.67 395.03 -182.36 393.24 -179.7 389.67 C-173.9 382.84 -166.54 377.97 -159.13 373.05 C-152.47 368.57 -145.88 364.05 -139.5 359.18 C-120.79 344.91 -101.07 332.04 -81.29 319.32 C-79.73 318.3 -78.18 317.27 -76.63 316.24 C-77.11 315.46 -77.6 314.69 -78.1 313.89 C-80.12 309.07 -80.18 305.01 -80.16 299.82 C-80.16 298.72 -80.15 297.61 -80.15 296.48 C-79.78 277.58 -76.9 258.77 -74.53 240.04 C-73.47 231.64 -72.43 223.23 -71.4 214.82 C-71.04 211.91 -70.68 209.01 -70.31 206.11 C-67.27 190.69 -67.27 190.69 -70.58 176.52 C-71.48 175.93 -72.39 175.34 -73.32 174.74 C-74.32 174.03 -75.32 173.32 -76.35 172.59 C-76.88 172.22 -77.42 171.85 -77.97 171.47 C-80.96 169.25 -83.62 166.67 -86.32 164.11 C-89.67 160.96 -93.06 157.85 -96.54 154.82 C-100.58 151.31 -104.49 147.67 -108.38 143.99 C-120.45 132.56 -120.45 132.56 -132.94 121.61 C-139.8 115.67 -147.1 107.35 -147.8 97.98 C-147.8 97.18 -147.81 96.38 -147.82 95.55 C-147.83 94.76 -147.84 93.98 -147.86 93.16 C-147.27 85.67 -144.99 79.09 -141.88 72.3 C-141.53 71.52 -141.18 70.74 -140.81 69.94 C-138.15 64.12 -135.17 58.58 -131.63 53.24 C-134.73 53.24 -135.74 53.62 -138.41 55 Z M63.37 59.24 C64.37 61.24 64.37 61.24 64.37 61.24 Z M61.37 74.24 C62.37 76.24 62.37 76.24 62.37 76.24 Z M-170.63 105.24 C-170.63 105.57 -170.63 105.9 -170.63 106.24 C-168.65 106.24 -166.67 106.24 -164.63 106.24 C-164.63 105.91 -164.63 105.58 -164.63 105.24 C-166.61 105.24 -168.59 105.24 -170.63 105.24 Z M-185.63 106.24 C-185.63 106.57 -185.63 106.9 -185.63 107.24 C-183.98 107.24 -182.33 107.24 -180.63 107.24 C-180.63 106.91 -180.63 106.58 -180.63 106.24 C-182.28 106.24 -183.93 106.24 -185.63 106.24 Z M65.12 109.74 C54.12 118.17 41.07 123.18 28.43 128.6 C18.56 132.82 8.84 137.17 -0.63 142.24 C-1.65 142.77 -1.65 142.77 -2.68 143.32 C-14.76 149.67 -26.11 156.94 -37.35 164.67 C-39.33 166.03 -41.33 167.37 -43.33 168.7 C-44.32 169.37 -45.3 170.05 -46.32 170.74 C-47.12 171.28 -47.93 171.83 -48.77 172.39 C-52.76 176.35 -53.01 182.17 -53.62 187.53 C-53.7 188.23 -53.78 188.94 -53.87 189.66 C-54.13 191.99 -54.39 194.32 -54.65 196.65 C-54.84 198.3 -55.03 199.95 -55.22 201.59 C-55.72 205.95 -56.21 210.3 -56.71 214.65 C-57.48 221.52 -58.26 228.38 -59.05 235.25 C-59.24 236.93 -59.44 238.62 -59.63 240.3 C-60.6 248.82 -61.6 257.33 -62.84 265.82 C-62.94 266.48 -63.04 267.15 -63.14 267.84 C-63.58 270.89 -64.04 273.94 -64.53 276.99 C-66.3 288.79 -65.78 300.41 -59.04 310.65 C-50.16 321.57 -36.09 327.31 -23.63 333.24 C-22.65 333.7 -21.67 334.17 -20.66 334.65 C-5.89 341.64 9 348.32 24.02 354.76 C31.58 358.01 39.07 361.35 46.46 364.97 C54.77 368.59 62.01 369.77 70.56 366.55 C87.21 359.02 102.34 348.4 117.15 337.81 C120.31 335.57 123.52 333.39 126.75 331.24 C127.32 330.85 127.9 330.47 128.49 330.07 C132.26 327.58 136.07 325.17 139.91 322.79 C140.88 322.18 141.86 321.58 142.86 320.95 C144.77 319.76 146.69 318.58 148.61 317.41 C160.37 310.08 167.68 301.94 170.93 288.29 C172.49 281.26 173.17 274.36 173.56 267.18 C173.6 266.49 173.64 265.8 173.68 265.1 C175.3 236.22 174.54 207.15 174.37 178.24 C173.82 178.03 173.27 177.83 172.71 177.62 C171.99 177.35 171.27 177.08 170.53 176.8 C169.81 176.53 169.1 176.27 168.36 175.99 C155.98 171.31 146.52 162.77 136.56 154.3 C130.58 149.28 124.26 144.83 117.86 140.37 C113.36 137.24 108.93 134.03 104.5 130.8 C97.31 125.58 90.02 120.52 82.65 115.55 C79.49 113.41 76.45 111.31 73.52 108.87 C69.97 106.17 68.2 107.13 65.12 109.74 Z M266.29 131.32 C265.69 131.64 265.09 131.96 264.47 132.29 C262.49 133.35 260.53 134.42 258.56 135.49 C257.19 136.22 255.82 136.96 254.46 137.7 C250.42 139.87 246.4 142.05 242.37 144.24 C241.3 144.82 240.23 145.4 239.13 146 C233.72 148.93 228.33 151.87 222.94 154.83 C220.29 156.28 217.65 157.73 215 159.18 C213.25 160.13 211.5 161.09 209.75 162.05 C208.98 162.47 208.21 162.89 207.42 163.32 C201 166.85 194.68 170.53 188.37 174.24 C188.4 175.15 188.43 176.07 188.46 177.01 C189.75 216.69 189.12 255.7 185.37 295.24 C186.16 295.57 186.16 295.57 186.96 295.92 C193.15 298.61 199.09 301.65 205.06 304.8 C234.46 320.15 264.05 335.33 294.25 349.05 C294.87 349.34 295.5 349.62 296.15 349.92 C302.98 353.02 309.89 355.91 316.88 358.62 C317.54 358.89 318.2 359.15 318.87 359.42 C322.85 360.93 326.13 361.6 330.37 361.24 C331.05 360.89 331.73 360.54 332.43 360.18 C335.14 358.86 336.53 359.34 339.37 360.24 C340.22 360.8 341.06 361.35 341.93 361.93 C342.74 362.36 343.54 362.79 344.37 363.24 C347.69 362.05 349.72 360.07 352.12 357.55 C354.7 354.9 357.3 352.38 360.12 349.99 C364.39 346.33 368.32 342.35 372.25 338.33 C374.53 336 376.65 334.05 379.37 332.24 C379.15 331.21 378.94 330.19 378.71 329.13 C378.43 327.77 378.15 326.41 377.87 325.05 C377.73 324.38 377.58 323.7 377.44 323.01 C376.69 319.36 376.2 315.96 376.37 312.24 C375.71 312.24 375.05 312.24 374.37 312.24 C374.37 309.93 374.37 307.62 374.37 305.24 C373.71 305.24 373.05 305.24 372.37 305.24 C372.04 301.94 371.71 298.64 371.37 295.24 C370.71 295.24 370.05 295.24 369.37 295.24 C369.37 293.26 369.37 291.28 369.37 289.24 C368.71 289.24 368.05 289.24 367.37 289.24 C367.24 288.5 367.1 287.77 366.96 287.01 C363.25 269.6 354.54 252.44 347.37 236.24 C346.94 235.26 346.51 234.29 346.06 233.28 C335.59 209.88 322.32 187.47 307.06 166.86 C306.6 166.24 306.14 165.62 305.67 164.98 C298.61 155.47 291.42 146.14 283.38 137.44 C281.5 135.38 279.75 133.27 278 131.11 C277.13 130.16 276.26 129.22 275.37 128.24 C271.54 128.24 269.66 129.5 266.29 131.32 Z M-67.63 181.24 C-66.63 185.24 -66.63 185.24 -66.63 185.24 Z M-68.63 191.24 C-67.63 193.24 -67.63 193.24 -67.63 193.24 Z M174.37 192.24 C174.37 195.21 174.37 198.18 174.37 201.24 C174.7 201.24 175.03 201.24 175.37 201.24 C175.37 198.27 175.37 195.3 175.37 192.24 C175.04 192.24 174.71 192.24 174.37 192.24 Z M-70.63 207.24 C-69.63 210.24 -69.63 210.24 -69.63 210.24 Z M-308.63 214.24 C-307.63 216.24 -307.63 216.24 -307.63 216.24 Z M-309.63 216.24 C-309.96 217.56 -310.29 218.88 -310.63 220.24 C-309.97 218.92 -309.31 217.6 -308.63 216.24 C-308.96 216.24 -309.29 216.24 -309.63 216.24 Z M-71.63 216.24 C-70.63 218.24 -70.63 218.24 -70.63 218.24 Z M-329.63 218.24 C-328.63 220.24 -328.63 220.24 -328.63 220.24 Z M-366.32 224.11 C-367.12 224.35 -367.92 224.58 -368.74 224.82 C-375.48 226.91 -382.38 229.51 -386.94 235.05 C-387.74 238.73 -387.27 240.72 -385.38 243.97 C-378.79 252.53 -369.15 260.23 -359.63 265.24 C-358.31 265.24 -356.99 265.24 -355.63 265.24 C-355.26 264.54 -354.9 263.85 -354.52 263.14 C-352.79 259.88 -351.06 256.62 -349.32 253.36 C-349 252.78 -348.69 252.19 -348.37 251.58 C-343.8 243.05 -339.04 234.69 -333.74 226.58 C-332.63 224.85 -331.62 223.05 -330.63 221.24 C-331.12 219.75 -331.12 219.75 -331.63 218.24 C-343.33 218.24 -355.15 220.81 -366.32 224.11 Z M-312.63 220.24 C-314.22 222.31 -314.22 222.31 -315.82 225 C-316.44 226.01 -317.06 227.02 -317.71 228.06 C-329.17 247.04 -339.69 266.42 -349.63 286.24 C-350.1 287.18 -350.57 288.12 -351.06 289.09 C-356.55 300.1 -361.45 311.33 -366.19 322.68 C-366.46 323.31 -366.72 323.94 -367 324.6 C-367.76 326.41 -368.51 328.23 -369.26 330.05 C-369.69 331.1 -370.13 332.15 -370.57 333.23 C-371.63 336.24 -372.2 339.08 -372.63 342.24 C-369.5 339.11 -366.38 335.98 -363.27 332.84 C-361.62 331.18 -359.97 329.52 -358.32 327.86 C-357.5 327.04 -356.68 326.21 -355.84 325.36 C-351.5 321.01 -347.1 316.8 -342.43 312.79 C-339.83 310.55 -337.33 308.21 -334.82 305.86 C-330 301.41 -325.04 297.21 -319.91 293.11 C-317.68 291.34 -317.68 291.34 -316.01 289.61 C-314.63 288.24 -314.63 288.24 -311.63 286.24 C-312.29 286.24 -312.95 286.24 -313.63 286.24 C-314.12 282.77 -314.12 282.77 -314.63 279.24 C-315.29 279.24 -315.95 279.24 -316.63 279.24 C-317.12 274.78 -317.12 274.78 -317.63 270.24 C-318.29 270.24 -318.95 270.24 -319.63 270.24 C-319.46 268.96 -319.3 267.68 -319.13 266.36 C-318.75 263.09 -318.65 260.02 -318.82 256.74 C-318.93 246.14 -315.28 235.07 -311.36 225.34 C-310.46 223.14 -310.46 223.14 -310.63 220.24 C-311.29 220.24 -311.95 220.24 -312.63 220.24 Z M-72.63 225.24 C-71.63 227.24 -71.63 227.24 -71.63 227.24 Z M604.37 232.24 C602.79 233.5 601.21 234.77 599.65 236.06 C590.05 244 579.45 249.61 568.37 255.24 C566.81 256.04 566.81 256.04 565.21 256.86 C532.75 273.34 499.19 284.85 463.37 291.24 C462.31 291.43 462.31 291.43 461.23 291.62 C448.72 293.83 436.17 294.43 423.5 294.43 C422.25 294.43 421.01 294.43 419.73 294.43 C408.21 294.36 396.82 293.51 385.37 292.24 C385.98 299.08 387.73 305.3 389.68 311.86 C394.13 327.28 397.79 343.14 398.37 359.24 C398.43 360.41 398.43 360.41 398.49 361.61 C398.97 378.6 395.92 395.26 384.37 408.24 C374.04 418.27 360.42 424.52 347.37 430.24 C347.7 430.9 348.03 431.56 348.37 432.24 C349.53 432.4 350.68 432.57 351.87 432.74 C353.03 432.9 354.18 433.07 355.37 433.24 C355.7 433.9 356.03 434.56 356.37 435.24 C358.68 435.24 360.99 435.24 363.37 435.24 C363.87 436.23 363.87 436.23 364.37 437.24 C367.25 437.73 370.03 438.09 372.93 438.36 C374.22 438.49 374.22 438.49 375.53 438.62 C403.4 441.15 422.38 434.78 444.43 417.61 C446.27 416.2 448.11 414.79 449.95 413.38 C450.86 412.69 451.77 411.99 452.71 411.27 C464.46 402.31 476.21 394.01 489.37 387.24 C489.97 386.92 490.58 386.61 491.2 386.28 C506.03 378.58 523.11 372.84 539.87 372 C551.13 371.34 557.34 369.69 565.37 361.24 C566.49 360.16 567.62 359.09 568.76 358.02 C600.28 328 621.12 286.69 623.55 242.93 C623.68 237 623.12 231.91 621.37 226.24 C614.62 224.14 609.76 228.45 604.37 232.24 Z M-73.63 232.24 C-72.63 235.24 -72.63 235.24 -72.63 235.24 Z M623.37 232.24 C624.37 234.24 624.37 234.24 624.37 234.24 Z M-403.63 234.24 C-402.63 236.24 -402.63 236.24 -402.63 236.24 Z M-403.63 237.24 C-402.63 239.24 -402.63 239.24 -402.63 239.24 Z M-74.63 241.24 C-73.63 243.24 -73.63 243.24 -73.63 243.24 Z M174.37 246.24 C174.37 249.21 174.37 252.18 174.37 255.24 C174.7 255.24 175.03 255.24 175.37 255.24 C175.37 252.27 175.37 249.3 175.37 246.24 C175.04 246.24 174.71 246.24 174.37 246.24 Z M623.37 246.24 C624.37 250.24 624.37 250.24 624.37 250.24 Z M-75.63 249.24 C-74.63 252.24 -74.63 252.24 -74.63 252.24 Z M622.37 255.24 C623.37 257.24 623.37 257.24 623.37 257.24 Z M-76.63 258.24 C-75.63 260.24 -75.63 260.24 -75.63 260.24 Z M620.37 265.24 C621.37 267.24 621.37 267.24 621.37 267.24 Z M173.37 269.24 C173.37 270.89 173.37 272.54 173.37 274.24 C173.7 274.24 174.03 274.24 174.37 274.24 C174.37 272.59 174.37 270.94 174.37 269.24 C174.04 269.24 173.71 269.24 173.37 269.24 Z M-78.63 274.24 C-77.63 278.24 -77.63 278.24 -77.63 278.24 Z M413.37 280.24 C413.37 280.57 413.37 280.9 413.37 281.24 C419.31 281.24 425.25 281.24 431.37 281.24 C431.37 280.91 431.37 280.58 431.37 280.24 C425.43 280.24 419.49 280.24 413.37 280.24 Z M-79.63 284.24 C-78.63 286.24 -78.63 286.24 -78.63 286.24 Z M-323.72 316.54 C-326.38 319.01 -329.06 321.44 -331.75 323.86 C-332.52 324.55 -333.28 325.24 -334.07 325.95 C-335.64 327.35 -337.21 328.76 -338.79 330.15 C-345.7 336.29 -352.39 342.64 -358.97 349.12 C-360.21 350.34 -361.46 351.54 -362.72 352.74 C-364.55 354.5 -366.36 356.28 -368.17 358.06 C-369.02 358.86 -369.02 358.86 -369.88 359.67 C-371.65 361.37 -371.65 361.37 -373.63 364.24 C-373.58 368.09 -372.53 370.94 -370.66 374.27 C-370.26 374.99 -369.86 375.71 -369.44 376.45 C-369.01 377.21 -368.58 377.96 -368.13 378.74 C-367.68 379.53 -367.23 380.32 -366.77 381.14 C-349.06 412.07 -325.91 441.33 -297.63 463.24 C-296.69 463.99 -295.76 464.74 -294.8 465.52 C-278.24 478.63 -260.41 489.62 -241.63 499.24 C-240.79 499.67 -239.95 500.1 -239.09 500.55 C-208.48 516.81 -208.48 516.81 -175.63 524.24 C-175.3 524.9 -174.97 525.56 -174.63 526.24 C-172.65 526.24 -170.67 526.24 -168.63 526.24 C-168.3 526.9 -167.97 527.56 -167.63 528.24 C-166.64 527.91 -165.65 527.58 -164.63 527.24 C-164.3 527.9 -163.97 528.56 -163.63 529.24 C-161.1 529.89 -161.1 529.89 -158.63 530.24 C-159.08 529.27 -159.54 528.3 -160 527.3 C-161.6 523.63 -162.4 519.99 -163.1 516.06 C-163.28 515.46 -163.45 514.86 -163.63 514.24 C-164.29 513.91 -164.95 513.58 -165.63 513.24 C-166.15 510.87 -166.15 510.87 -166.56 507.7 C-167.29 502.52 -168.12 497.39 -169.1 492.25 C-169.23 491.57 -169.36 490.89 -169.49 490.19 C-170.03 487.39 -170.56 484.6 -171.1 481.8 C-173.9 467.19 -173.9 467.19 -174.63 460.24 C-175.29 460.24 -175.95 460.24 -176.63 460.24 C-176.3 459.25 -175.97 458.26 -175.63 457.24 C-176.29 457.24 -176.95 457.24 -177.63 457.24 C-177.63 455.26 -177.63 453.28 -177.63 451.24 C-178.29 451.24 -178.95 451.24 -179.63 451.24 C-179.3 450.25 -178.97 449.26 -178.63 448.24 C-179.29 448.24 -179.95 448.24 -180.63 448.24 C-180.3 447.25 -179.97 446.26 -179.63 445.24 C-180.29 445.24 -180.95 445.24 -181.63 445.24 C-181.3 444.25 -180.97 443.26 -180.63 442.24 C-181.29 442.24 -181.95 442.24 -182.63 442.24 C-182.63 440.26 -182.63 438.28 -182.63 436.24 C-183.29 436.24 -183.95 436.24 -184.63 436.24 C-184.63 433.93 -184.63 431.62 -184.63 429.24 C-185.29 429.24 -185.95 429.24 -186.63 429.24 C-186.3 427.92 -185.97 426.6 -185.63 425.24 C-186.29 425.24 -186.95 425.24 -187.63 425.24 C-187.69 424.63 -187.75 424.03 -187.81 423.41 C-187.9 422.61 -187.98 421.81 -188.07 420.99 C-188.15 420.2 -188.23 419.41 -188.31 418.6 C-188.42 417.82 -188.52 417.04 -188.63 416.24 C-188.72 415.52 -188.8 414.81 -188.89 414.07 C-189.48 412.07 -189.48 412.07 -191.49 411.14 C-192.3 410.82 -193.11 410.5 -193.94 410.18 C-201 406.87 -206.15 401.64 -211.63 396.24 C-212.22 395.66 -212.81 395.09 -213.41 394.49 C-220.09 387.96 -226.59 381.36 -232.63 374.24 C-241.31 364.27 -250.47 354.68 -260.54 346.11 C-267.39 339.99 -273.86 333.34 -279.8 326.34 C-281.66 324.2 -283.59 322.14 -285.52 320.07 C-290.54 314.7 -295.16 309.15 -299.54 303.25 C-300.55 301.9 -301.59 300.57 -302.63 299.24 C-308.39 299.24 -319.25 312.4 -323.72 316.54 Z M179.37 309.24 C178.47 310.63 177.57 312.02 176.68 313.42 C170.82 321.55 161.37 326.7 153.12 332.1 C148.62 335.05 144.2 338.12 139.81 341.24 C139.11 341.73 138.42 342.23 137.7 342.74 C134.88 344.74 132.06 346.74 129.25 348.75 C86.89 379.03 86.89 379.03 65.37 384.24 C64.6 384.43 63.82 384.63 63.02 384.83 C62.48 384.96 61.93 385.1 61.37 385.24 C60.53 388.98 60.17 392.56 60.01 396.4 C59.96 397.63 59.91 398.86 59.85 400.13 C59.8 401.47 59.74 402.82 59.69 404.16 C59.63 405.57 59.57 406.97 59.51 408.38 C59.38 411.37 59.25 414.35 59.13 417.34 C58.93 422 58.73 426.66 58.53 431.32 C58.46 432.87 58.4 434.43 58.33 435.98 C58.3 436.75 58.26 437.52 58.23 438.31 C58.1 441.38 57.96 444.46 57.83 447.54 C57.38 458.14 56.92 468.73 56.42 479.33 C56.35 480.94 56.28 482.55 56.21 484.16 C55.8 493.35 55.13 502.45 54.03 511.58 C52.48 520.87 52.48 520.87 54.87 529.36 C55.37 529.98 55.86 530.6 56.37 531.24 C56.8 537.39 56.8 537.39 55.37 540.24 C56.36 540.24 57.35 540.24 58.37 540.24 C58.37 539.58 58.37 538.92 58.37 538.24 C65.72 541.67 65.72 541.67 67.37 544.24 C67.56 547.93 67.56 547.93 67.37 551.24 C63.46 553.75 59.16 553.87 54.65 554.27 C53.37 554.4 53.37 554.4 52.07 554.53 C49.33 554.79 46.6 555.05 43.87 555.3 C42.06 555.48 40.26 555.65 38.45 555.83 C33.42 556.31 28.4 556.78 23.37 557.24 C21.64 557.4 21.64 557.4 19.88 557.56 C12.61 558.21 5.35 558.55 -1.94 558.8 C-3.16 558.84 -4.38 558.88 -5.64 558.93 C-95.71 561.8 -188.23 547.71 -316.63 465.24 C-317.23 464.7 -317.83 464.16 -318.46 463.6 C-332.5 450.93 -345.33 437.41 -356.63 422.24 C-357.04 421.69 -357.45 421.14 -357.88 420.57 C-367.99 406.99 -377.6 392.68 -384.63 377.24 C-390.25 381.85 -391.53 391.29 -392.57 398.18 C-393.27 408.71 -389.57 420.04 -384.63 429.24 C-382.98 430.92 -381.32 432.59 -379.63 434.24 C-379.2 436.12 -378.78 438 -378.39 439.89 C-363.8 484.92 -303.32 524.01 -264.12 544.09 C-241.24 556.47 -241.24 556.47 -216.63 562.24 C-216.3 562.9 -215.97 563.56 -215.63 564.24 C-213.98 564.24 -212.33 564.24 -210.63 564.24 C-210.3 564.9 -209.97 565.56 -209.63 566.24 C-208.97 565.91 -208.31 565.58 -207.63 565.24 C-207.3 565.9 -206.97 566.56 -206.63 567.24 C-204.65 567.24 -202.67 567.24 -200.63 567.24 C-200.3 567.9 -199.97 568.56 -199.63 569.24 C-197.3 569.63 -197.3 569.63 -194.63 569.74 C-191.88 569.89 -191.88 569.89 -189.63 570.24 C-189.3 570.9 -188.97 571.56 -188.63 572.24 C-186.32 572.24 -184.01 572.24 -181.63 572.24 C-181.3 572.9 -180.97 573.56 -180.63 574.24 C-178.76 574.51 -176.9 574.76 -175.02 574.95 C-172.56 575.25 -170.2 575.7 -167.78 576.22 C-153.04 579.32 -138.25 581.49 -123.32 583.43 C-122.35 583.55 -121.39 583.68 -120.39 583.81 C-100.52 586.39 -80.66 588.44 -60.63 589.24 C-59.8 589.27 -58.96 589.3 -58.11 589.34 C29.66 592.73 126.04 585.84 206.37 524.24 C207.36 523.45 208.36 522.66 209.38 521.84 C212.07 519.67 214.73 517.46 217.37 515.24 C217.93 514.77 218.5 514.29 219.08 513.8 C228.17 506.17 228.17 506.17 236.69 497.92 C238.38 496.23 240.13 494.7 241.94 493.16 C247 488.77 251.67 484.01 256.37 479.24 C262.19 473.33 268.07 467.64 274.37 462.24 C275.92 460.83 277.46 459.41 279 457.99 C286.49 451.25 294.33 444.86 302.75 439.3 C303.48 438.82 304.21 438.34 304.96 437.84 C306.37 436.92 307.79 436.01 309.22 435.12 C313.53 432.3 315.1 430.43 316.37 425.24 C319.25 423.49 321.86 423.16 325.18 422.61 C332.02 421.16 338.06 417.61 344.18 414.38 C346.39 413.23 348.61 412.13 350.83 411.03 C359.4 406.74 366.78 402.35 373.37 395.24 C374.28 394.27 374.28 394.27 375.2 393.28 C382.38 384.72 382.81 374.28 382.56 363.55 C382.54 361.91 382.54 361.91 382.52 360.23 C382.48 357.57 382.43 354.9 382.37 352.24 C379.15 351.9 379.15 351.9 376.73 354.62 C375.71 355.67 374.69 356.73 373.68 357.8 C372.6 358.92 371.51 360.03 370.42 361.15 C369.89 361.69 369.36 362.23 368.82 362.78 C366.51 365.1 364.04 367.22 361.55 369.34 C359.23 371.36 356.99 373.44 354.74 375.54 C349.39 380.54 343.95 385.32 338.24 389.9 C334.96 392.58 331.76 395.34 328.56 398.11 C322.29 403.52 315.84 408.68 309.29 413.75 C307.23 415.35 305.17 416.96 303.12 418.58 C275.9 439.98 247.1 459.49 217.37 477.24 C216.45 477.79 215.53 478.34 214.58 478.91 C190.12 493.5 164.98 506.79 139.37 519.24 C138.44 519.7 137.5 520.15 136.54 520.62 C134.1 521.81 131.64 522.97 129.18 524.11 C128.51 524.44 127.83 524.77 127.14 525.11 C122.33 527.28 117.63 528.11 112.37 527.24 C109.75 525.05 109.75 525.05 108.37 522.24 C108.34 519.8 108.34 519.8 109.37 517.24 C111.75 515.7 113.87 514.56 116.43 513.41 C117.15 513.07 117.87 512.73 118.61 512.38 C120.11 511.67 121.62 510.97 123.13 510.27 C125.9 508.99 128.64 507.67 131.38 506.33 C133.36 505.37 135.35 504.41 137.34 503.46 C165.45 489.94 192.53 475.17 219.12 458.86 C220.69 457.9 220.69 457.9 222.29 456.92 C229.43 452.51 236.42 447.93 243.37 443.24 C244.17 442.7 244.98 442.16 245.8 441.6 C263.81 429.43 281.32 416.71 298.37 403.24 C299.28 402.52 300.19 401.81 301.12 401.07 C307.28 396.18 313.34 391.17 319.4 386.16 C323.03 383.16 326.68 380.17 330.37 377.24 C329.41 377 328.45 376.77 327.46 376.53 C316.59 373.71 306.9 369.35 296.85 364.39 C290.32 361.18 283.7 358.17 277.05 355.19 C275.04 354.29 273.03 353.39 271.02 352.48 C263.61 349.14 263.61 349.14 256.19 345.82 C240.27 338.68 224.66 330.97 209.06 323.18 C208.02 322.66 206.99 322.14 205.92 321.61 C202.95 320.12 199.98 318.63 197.01 317.14 C196.11 316.69 195.21 316.24 194.29 315.78 C190.93 314.09 187.65 312.41 184.46 310.43 C182.34 308.99 182.34 308.99 179.37 309.24 Z M-94.82 345.93 C-96.3 346.91 -97.78 347.9 -99.26 348.89 C-107.26 354.25 -115.18 359.68 -122.99 365.32 C-127.75 368.71 -132.67 371.75 -137.69 374.74 C-159.34 387.19 -159.34 387.19 -172.63 407.24 C-174.66 420.39 -168.8 434.9 -164.82 447.18 C-159.74 462.87 -155.52 478.74 -151.5 494.74 C-151.21 495.89 -150.92 497.05 -150.61 498.24 C-149.77 501.56 -148.94 504.88 -148.12 508.21 C-147.87 509.2 -147.62 510.2 -147.36 511.22 C-146.01 516.74 -145.5 521.57 -145.63 527.24 C-144.47 529.11 -144.47 529.11 -142.69 530.11 C-139.63 532.24 -139.63 532.24 -138.63 534.24 C-135.56 534.98 -132.55 535.58 -129.44 536.11 C-128.47 536.28 -127.49 536.45 -126.49 536.63 C-76.46 545.14 -25.6 546.57 24.98 542.68 C30.79 542.23 36.55 542.13 42.37 542.24 C42.37 539.59 42.08 537.71 41.43 535.18 C41.26 534.48 41.09 533.79 40.91 533.08 C40.41 531.17 40.41 531.17 39.37 529.24 C39.12 524.74 39.19 520.24 39.18 515.74 C39.17 514.51 39.16 513.29 39.15 512.03 C39.14 505.35 39.45 498.9 40.29 492.28 C41.93 478.99 42.27 465.58 42.84 452.21 C42.99 448.64 43.15 445.06 43.31 441.49 C43.56 435.95 43.8 430.42 44.04 424.89 C44.24 420.11 44.46 415.33 44.68 410.56 C45.16 400.44 45.53 390.37 45.37 380.24 C44.65 379.94 43.93 379.65 43.19 379.34 C-32.36 348.36 -32.36 348.36 -62.54 330.08 C-70.39 325.4 -87.67 341.13 -94.82 345.93 Z M382.37 350.24 C383.37 352.24 383.37 352.24 383.37 352.24 Z M546.37 371.24 C546.37 371.57 546.37 371.9 546.37 372.24 C548.68 372.24 550.99 372.24 553.37 372.24 C553.37 371.91 553.37 371.58 553.37 371.24 C551.06 371.24 548.75 371.24 546.37 371.24 Z M518.37 391.24 C517.71 391.44 517.06 391.65 516.38 391.86 C492.84 399.35 472.73 413.69 453.37 428.63 C429.44 447.1 405.24 456.03 374.75 452.81 C363.5 451.36 352.75 448.26 341.93 444.96 C341 444.68 340.07 444.4 339.11 444.11 C337.29 443.53 335.49 442.89 333.71 442.18 C329.07 440.37 329.07 440.37 324.27 440.89 C322.16 442.11 320.33 443.46 318.43 444.99 C317.75 445.5 317.06 446.02 316.36 446.54 C314.33 448.08 312.35 449.65 310.37 451.24 C309.34 452.04 308.31 452.84 307.25 453.67 C301.88 457.95 296.77 462.51 291.7 467.13 C289.66 468.98 287.59 470.77 285.5 472.55 C281.4 476.11 277.62 479.96 273.81 483.82 C270.4 487.26 266.9 490.53 263.19 493.64 C260.16 496.3 257.38 499.21 254.56 502.09 C236.21 520.76 236.21 520.76 226.08 527.84 C225.23 528.53 225.23 528.53 224.37 529.24 C224.37 529.9 224.37 530.56 224.37 531.24 C226.78 532.44 228.17 532.31 230.85 532.23 C231.76 532.21 232.67 532.19 233.61 532.17 C234.58 532.15 235.56 532.13 236.56 532.11 C244.91 532.01 252.46 532.63 260.57 534.58 C263.38 535.35 263.38 535.35 266.37 535.24 C266.7 535.9 267.03 536.56 267.37 537.24 C269.47 537.63 269.47 537.63 271.87 537.74 C274.34 537.89 274.34 537.89 276.37 538.24 C276.7 538.9 277.03 539.56 277.37 540.24 C279.12 540.97 279.12 540.97 281.25 541.55 C308.6 550.2 333.2 568.26 354.5 586.98 C384.75 613.51 419.67 635.19 456.56 651.18 C457.46 651.57 458.35 651.96 459.28 652.36 C460.55 652.9 460.55 652.9 461.85 653.45 C462.6 653.77 463.36 654.09 464.13 654.43 C466.41 655.33 466.41 655.33 469.09 655.72 C469.84 655.89 470.6 656.06 471.37 656.24 C471.7 656.9 472.03 657.56 472.37 658.24 C474.84 659.15 474.84 659.15 477.75 659.86 C479.21 660.25 479.21 660.25 480.71 660.65 C483.4 661.35 483.4 661.35 486.37 661.24 C486.7 661.9 487.03 662.56 487.37 663.24 C489.7 663.63 489.7 663.63 492.37 663.74 C495.12 663.89 495.12 663.89 497.37 664.24 C497.7 664.9 498.03 665.56 498.37 666.24 C501.13 666.87 501.13 666.87 504.5 667.24 C512.2 668.21 512.2 668.21 515.62 668.81 C524.39 670.28 533.05 670.45 541.93 670.49 C543.14 670.5 544.35 670.51 545.59 670.52 C557.39 670.48 568.87 669.12 580.18 665.68 C581.02 665.42 581.86 665.17 582.72 664.91 C593.86 661.35 604.81 655.95 613.83 648.43 C615.57 647.08 617.38 646.17 619.37 645.24 C619.37 644.91 619.37 644.58 619.37 644.24 C618.63 644.31 617.9 644.38 617.14 644.45 C608.5 645.19 599.92 645.46 591.26 645.48 C589.01 645.49 586.75 645.52 584.5 645.55 C566.53 645.68 546.99 642.89 533.37 630.24 C532.7 629.63 532.03 629.03 531.34 628.41 C528.04 625.3 525.6 622.74 524.37 618.24 C523.71 618.24 523.05 618.24 522.37 618.24 C522.37 616.26 522.37 614.28 522.37 612.24 C521.71 612.24 521.05 612.24 520.37 612.24 C520.51 610.65 520.66 609.07 520.81 607.49 C520.89 606.61 520.97 605.72 521.05 604.82 C521.34 602.53 521.65 600.43 522.37 598.24 C524.73 596.47 525.98 596.21 528.93 596.43 C531.66 597.33 532.61 598.01 534.37 600.24 C534.93 602.66 534.93 602.66 535.25 605.43 C536.49 613.17 539.58 618.14 545.69 623.08 C562.49 634.65 590.29 632.95 609.38 629.79 C626.41 626.52 641.05 619.21 654.37 608.24 C655.39 607.42 655.39 607.42 656.43 606.59 C672.52 593.23 681.16 574.59 684.37 554.24 C684.48 553.53 684.6 552.83 684.71 552.1 C687.1 533.32 685.77 513.09 680.96 494.8 C680.37 492.24 680.37 492.24 680.37 488.24 C679.71 488.24 679.05 488.24 678.37 488.24 C678.27 487.62 678.17 487.01 678.06 486.37 C676.95 480.23 675.24 474.76 672.75 469.05 C672.39 468.23 672.04 467.41 671.68 466.57 C656.92 432.94 632.6 409.41 598.3 395.69 C573.2 386.1 544.26 382.94 518.37 391.24 Z M45.37 394.24 C45.37 397.21 45.37 400.18 45.37 403.24 C45.7 403.24 46.03 403.24 46.37 403.24 C46.37 400.27 46.37 397.3 46.37 394.24 C46.04 394.24 45.71 394.24 45.37 394.24 Z M-188.63 413.24 C-187.63 416.24 -187.63 416.24 -187.63 416.24 Z M44.37 417.24 C44.37 420.54 44.37 423.84 44.37 427.24 C44.7 427.24 45.03 427.24 45.37 427.24 C45.37 423.94 45.37 420.64 45.37 417.24 C45.04 417.24 44.71 417.24 44.37 417.24 Z M379.37 439.24 C383.37 440.24 383.37 440.24 383.37 440.24 Z M43.37 444.24 C44.37 447.24 44.37 447.24 44.37 447.24 Z M-396.82 454.61 C-427.92 478.26 -462.56 498.9 -500.74 508.25 C-511.01 510.54 -511.01 510.54 -519.63 516.24 C-520.74 518.01 -520.74 518.01 -520.63 520.24 C-513.64 533.44 -494.16 540.81 -480.63 545.24 C-479.64 545.24 -478.65 545.24 -477.63 545.24 C-477.3 545.9 -476.97 546.56 -476.63 547.24 C-474.43 547.86 -474.43 547.86 -471.77 548.23 C-470.27 548.48 -470.27 548.48 -468.74 548.73 C-467.72 548.9 -466.69 549.07 -465.63 549.24 C-463.77 549.58 -461.91 549.92 -460.05 550.27 C-458.16 550.62 -456.27 550.96 -454.38 551.3 C-453.46 551.47 -452.54 551.65 -451.59 551.83 C-409.33 559.39 -360.79 554.15 -319.63 543.24 C-318.94 543.06 -318.26 542.88 -317.55 542.69 C-312.43 541.36 -312.43 541.36 -307.63 539.24 C-306.98 537.21 -306.98 537.21 -306.63 535.24 C-307.15 534.86 -307.68 534.48 -308.21 534.1 C-317.77 527.19 -327.05 520.34 -335.63 512.24 C-336.87 511.17 -338.12 510.11 -339.38 509.05 C-349.37 500.31 -358.5 490.72 -366.63 480.24 C-367.42 479.27 -368.2 478.3 -369.01 477.3 C-374.67 470.2 -379.49 462.83 -384.05 454.98 C-384.71 453.86 -384.71 453.86 -385.38 452.72 C-385.77 452.05 -386.15 451.38 -386.55 450.68 C-386.91 450.21 -387.26 449.73 -387.63 449.24 C-391.26 449.24 -394.03 452.45 -396.82 454.61 Z M42.37 462.24 C42.37 465.21 42.37 468.18 42.37 471.24 C42.7 471.24 43.03 471.24 43.37 471.24 C43.37 468.27 43.37 465.3 43.37 462.24 C43.04 462.24 42.71 462.24 42.37 462.24 Z M41.37 482.24 C42.37 484.24 42.37 484.24 42.37 484.24 Z M39.37 500.24 C40.37 503.24 40.37 503.24 40.37 503.24 Z M684.37 511.24 C685.37 513.24 685.37 513.24 685.37 513.24 Z M685.37 519.24 C685.37 520.89 685.37 522.54 685.37 524.24 C685.7 524.24 686.03 524.24 686.37 524.24 C686.37 522.59 686.37 520.94 686.37 519.24 C686.04 519.24 685.71 519.24 685.37 519.24 Z M-97.63 541.24 C-93.63 542.24 -93.63 542.24 -93.63 542.24 Z M-63.63 544.24 C-63.63 544.57 -63.63 544.9 -63.63 545.24 C-60.99 545.24 -58.35 545.24 -55.63 545.24 C-55.63 544.91 -55.63 544.58 -55.63 544.24 C-58.27 544.24 -60.91 544.24 -63.63 544.24 Z M-1.63 544.24 C-1.63 544.57 -1.63 544.9 -1.63 545.24 C1.34 545.24 4.31 545.24 7.37 545.24 C7.37 544.91 7.37 544.58 7.37 544.24 C4.4 544.24 1.43 544.24 -1.63 544.24 Z M685.37 544.24 C685.37 545.89 685.37 547.54 685.37 549.24 C685.7 549.24 686.03 549.24 686.37 549.24 C686.37 547.59 686.37 545.94 686.37 544.24 C686.04 544.24 685.71 544.24 685.37 544.24 Z M205.37 549.24 C203.33 549.75 203.33 549.75 201.24 550.91 C200.43 551.31 199.62 551.7 198.79 552.12 C197.53 552.76 197.53 552.76 196.25 553.43 C191.48 555.84 186.83 558.18 181.72 559.79 C177.43 561.14 173.76 563.08 169.87 565.3 C123.78 590.54 70.19 598.69 18.5 602.97 C15.63 603.22 12.77 603.49 9.9 603.78 C3.32 604.38 -3.27 604.59 -9.88 604.8 C-10.53 604.82 -11.19 604.84 -11.86 604.86 C-24.12 605.25 -36.37 605.44 -48.63 605.24 C-50.24 605.21 -50.24 605.21 -51.88 605.18 C-66.47 604.9 -80.97 604.09 -95.5 602.8 C-96.55 602.71 -96.55 602.71 -97.62 602.61 C-106.2 601.85 -114.72 600.87 -123.23 599.62 C-130.64 598.7 -130.64 598.7 -137.51 601 C-138.19 601.39 -138.87 601.78 -139.57 602.18 C-140.29 602.61 -141.01 603.04 -141.75 603.49 C-142.53 603.94 -143.31 604.38 -144.11 604.85 C-145.77 605.81 -147.43 606.77 -149.09 607.75 C-153.29 610.21 -157.52 612.63 -161.75 615.05 C-162.63 615.55 -163.5 616.05 -164.4 616.57 C-175.04 622.65 -185.81 628.47 -196.63 634.24 C-197.67 634.8 -198.72 635.36 -199.79 635.93 C-213.29 643.15 -226.94 649.91 -240.88 656.24 C-241.56 656.55 -242.24 656.86 -242.94 657.18 C-247.48 659.24 -252.05 661.26 -256.63 663.24 C-257.27 663.51 -257.9 663.79 -258.56 664.07 C-267.19 667.78 -275.7 670.46 -284.94 672.3 C-294.1 674.13 -303.3 676.01 -310.19 682.74 C-311.75 685.45 -312.35 687.13 -312.63 690.24 C-311.6 693.26 -311.6 693.26 -309.94 696.24 C-309.16 697.75 -309.16 697.75 -308.37 699.3 C-297.65 717.41 -270.64 727.8 -251.63 734.24 C-250.64 734.24 -249.65 734.24 -248.63 734.24 C-248.3 734.9 -247.97 735.56 -247.63 736.24 C-245.16 737.15 -245.16 737.15 -242.25 737.86 C-241.28 738.12 -240.3 738.38 -239.29 738.65 C-236.6 739.35 -236.6 739.35 -233.63 739.24 C-233.3 739.9 -232.97 740.56 -232.63 741.24 C-230.44 741.85 -230.44 741.85 -227.79 742.21 C-223.83 742.87 -219.9 743.58 -215.96 744.42 C-201.25 747.53 -186.59 749.71 -171.63 751.24 C-170.82 751.33 -170.02 751.43 -169.19 751.53 C-109.93 758.01 -46.52 746.49 9.37 727.24 C10.34 726.91 11.32 726.58 12.32 726.23 C56.83 711.01 99.39 688.27 134.16 656.27 C136.13 654.46 138.14 652.72 140.18 650.99 C149.82 642.56 158.49 633.32 166.37 623.24 C167.25 622.15 168.13 621.06 169.02 619.97 C185.86 599.08 198.36 576.1 208.37 551.24 C207.38 550.58 206.39 549.92 205.37 549.24 Z M-433.63 554.24 C-433.63 554.57 -433.63 554.9 -433.63 555.24 C-431.65 555.24 -429.67 555.24 -427.63 555.24 C-427.63 554.91 -427.63 554.58 -427.63 554.24 C-429.61 554.24 -431.59 554.24 -433.63 554.24 Z M-396.63 554.24 C-396.63 554.57 -396.63 554.9 -396.63 555.24 C-394.32 555.24 -392.01 555.24 -389.63 555.24 C-389.63 554.91 -389.63 554.58 -389.63 554.24 C-391.94 554.24 -394.25 554.24 -396.63 554.24 Z M684.37 554.24 C685.37 556.24 685.37 556.24 685.37 556.24 Z M-92.63 587.24 C-88.63 588.24 -88.63 588.24 -88.63 588.24 Z M36.37 587.24 C40.37 588.24 40.37 588.24 40.37 588.24 Z M-67.63 589.24 C-67.63 589.57 -67.63 589.9 -67.63 590.24 C-65.32 590.24 -63.01 590.24 -60.63 590.24 C-60.63 589.91 -60.63 589.58 -60.63 589.24 C-62.94 589.24 -65.25 589.24 -67.63 589.24 Z M12.37 589.24 C12.37 589.57 12.37 589.9 12.37 590.24 C14.35 590.24 16.33 590.24 18.37 590.24 C18.37 589.91 18.37 589.58 18.37 589.24 C16.39 589.24 14.41 589.24 12.37 589.24 Z M-45.63 590.24 C-45.63 590.57 -45.63 590.9 -45.63 591.24 C-36.39 591.24 -27.15 591.24 -17.63 591.24 C-17.63 590.91 -17.63 590.58 -17.63 590.24 C-26.87 590.24 -36.11 590.24 -45.63 590.24 Z M-14.63 590.24 C-14.63 590.57 -14.63 590.9 -14.63 591.24 C-10.34 591.24 -6.05 591.24 -1.63 591.24 C-1.63 590.91 -1.63 590.58 -1.63 590.24 C-5.92 590.24 -10.21 590.24 -14.63 590.24 Z M523.37 670.24 C527.37 671.24 527.37 671.24 527.37 671.24 Z M537.37 671.24 C537.37 671.57 537.37 671.9 537.37 672.24 C540.67 672.24 543.97 672.24 547.37 672.24 C547.37 671.91 547.37 671.58 547.37 671.24 C544.07 671.24 540.77 671.24 537.37 671.24 Z M-175.63 751.24 C-171.63 752.24 -171.63 752.24 -171.63 752.24 Z M-104.63 751.24 C-100.63 752.24 -100.63 752.24 -100.63 752.24 Z " fill="#373A3B" transform="translate(558.62890625,255.76171875)"/>
<path d="M0 0 C7.84 5.95 15.55 12.71 17.38 22.8 C18.5 34.63 17.43 44.14 9.75 53.62 C4 59.71 -3.33 63.39 -11.69 64.04 C-22.14 64.26 -30.21 62.95 -38.43 56.18 C-45.45 49.44 -50.5 40.94 -51 31.12 C-50.75 20.73 -46 12.5 -39.03 5.12 C-29.02 -4.32 -12.1 -7.25 0 0 Z M-49.62 25.8 C-48.62 29.8 -48.62 29.8 -48.62 29.8 Z M-49.62 31.8 C-48.62 35.8 -48.62 35.8 -48.62 35.8 Z " fill="#373A3B" transform="translate(1161.62109375,780.1953125)"/>
<path d="M0 0 C3.32 2.24 3.93 3.72 4.94 7.62 C4.79 10.91 4.02 11.98 1.78 14.46 C-0.17 16.2 -2.12 17.9 -4.13 19.57 C-7.87 22.74 -10.87 26.25 -14 30 C-14.81 30.92 -15.62 31.84 -16.45 32.79 C-35.59 54.67 -51.44 80.72 -61.15 108.19 C-62.16 110.35 -63.1 111.55 -65 113 C-68.07 113.68 -70.91 113.57 -74 113 C-76.75 111.12 -76.75 111.12 -78 108 C-77.71 104.42 -76.36 101.31 -75 98 C-74.74 97.37 -74.48 96.74 -74.22 96.09 C-64.65 73.06 -52.42 51.6 -37 32 C-35.98 30.69 -35.98 30.69 -34.93 29.35 C-30.47 23.75 -25.74 18.44 -20.88 13.19 C-20.3 12.57 -19.73 11.94 -19.14 11.3 C-6.63 -2.05 -6.63 -2.05 0 0 Z " fill="#373A3B" transform="translate(354,420)"/>
<path d="M0 0 C2.69 2.5 2.98 3.87 3.44 7.56 C3 11 3 11 1.48 12.56 C-1.87 14.51 -5.34 15.48 -9.06 16.44 C-9.87 16.65 -10.69 16.86 -11.52 17.08 C-23.17 19.96 -35.11 21.46 -47 23 C-48.08 23.16 -48.08 23.16 -49.19 23.32 C-57.23 24.41 -65.4 24.24 -73.5 24.25 C-74.32 24.25 -75.13 24.25 -75.97 24.26 C-90.14 24.26 -104.02 23.45 -118 21 C-118.84 20.85 -119.69 20.71 -120.56 20.56 C-121.36 20.4 -122.16 20.25 -122.98 20.09 C-123.69 19.95 -124.39 19.81 -125.12 19.67 C-127.41 18.85 -128.49 17.9 -130 16 C-130.5 13.12 -130.5 13.12 -130 10 C-127.69 6.94 -126.09 5.3 -122.36 4.27 C-119.01 4 -116.14 4.37 -112.84 4.98 C-78.42 11.22 -40.32 8.05 -6.89 -1.61 C-4.06 -2.19 -2.5 -1.35 0 0 Z M-86 9 C-86 9.33 -86 9.66 -86 10 C-78.74 10 -71.48 10 -64 10 C-64 9.67 -64 9.34 -64 9 C-71.26 9 -78.52 9 -86 9 Z " fill="#373A3B" transform="translate(485,963)"/>
<path d="M0 0 C2 3.31 1.92 5.57 1.44 9.38 C-0.35 12.1 -1.7 12.41 -4.91 13.23 C-6.29 13.49 -7.68 13.74 -9.06 14 C-25.65 17.5 -40.53 25.77 -52.81 37.38 C-55.56 39.83 -56.48 40.36 -60.25 41.12 C-64.52 40.16 -66.1 38.99 -68.56 35.38 C-68.83 31.81 -68.46 29.64 -66.38 26.69 C-54.46 13.82 -17.64 -11.19 0 0 Z " fill="#373A3B" transform="translate(1093.5625,681.625)"/>
<path d="M0 0 C2.38 1.5 2.38 1.5 4 4 C5.05 8.91 5.05 8.91 4 12 C0.57 15.93 -3.12 18.6 -8.25 19.69 C-11.76 18.81 -13.52 17.62 -16 15 C-17.19 12.69 -17.19 12.69 -17 10 C-13.06 3.74 -7.76 -1.16 0 0 Z " fill="#373A3B" transform="translate(557,939)"/>
<path d="M0 0 C2.52 1.7 3.78 2.91 4.39 5.94 C4.5 8.06 4.5 8.06 4 12 C0.89 15.33 -2.4 15.94 -6.88 16.38 C-10.33 16.32 -11.03 15.98 -14.06 13.88 C-16 11 -16 11 -16 7.88 C-14.42 3.34 -12.9 2.47 -8.62 0.25 C-4.95 -1.02 -3.55 -1.44 0 0 Z " fill="#373A3B" transform="translate(1143,680)"/>
<path d="M0 0 C2.11 1.63 2.91 2.5 3.4 5.16 C3.39 5.93 3.38 6.7 3.38 7.5 C3.38 8.27 3.39 9.05 3.4 9.84 C2.91 12.5 2.14 13.38 0 15 C-2.88 15.5 -2.88 15.5 -6 15 C-9.36 12.51 -10.8 11.09 -11.56 6.94 C-10.88 3.38 -9.8 2.22 -7 0 C-4.27 -1.37 -2.89 -0.85 0 0 Z " fill="#373A3B" transform="translate(273,613)"/>
<path d="M0 0 C4.29 0 8.58 0 13 0 C13 0.33 13 0.66 13 1 C8.71 1 4.42 1 0 1 C0 0.67 0 0.34 0 0 Z " fill="#373A3B" transform="translate(568,255)"/>
<path d="M0 0 C3.96 0 7.92 0 12 0 C12 0.33 12 0.66 12 1 C8.04 1 4.08 1 0 1 C0 0.67 0 0.34 0 0 Z " fill="#373A3B" transform="translate(786,786)"/>
<path d="M0 0 C0.33 0 0.66 0 1 0 C1 2.97 1 5.94 1 9 C0.67 9 0.34 9 0 9 C0 6.03 0 3.06 0 0 Z " fill="#373A3B" transform="translate(477,551)"/>
<path d="M0 0 C0.33 0 0.66 0 1 0 C1 2.64 1 5.28 1 8 C0.67 8 0.34 8 0 8 C0 5.36 0 2.72 0 0 Z " fill="#373A3B" transform="translate(596,769)"/>
<path d="M0 0 C0.33 0 0.66 0 1 0 C1 2.31 1 4.62 1 7 C0.67 7 0.34 7 0 7 C0 4.69 0 2.38 0 0 Z " fill="#373A3B" transform="translate(151,653)"/>
<path d="M0 0 C0.33 0 0.66 0 1 0 C1 1.98 1 3.96 1 6 C0.67 6 0.34 6 0 6 C0 4.02 0 2.04 0 0 Z " fill="#373A3B" transform="translate(1078,858)"/>
<path d="M0 0 C1.98 0 3.96 0 6 0 C6 0.33 6 0.66 6 1 C4.02 1 2.04 1 0 1 C0 0.67 0 0.34 0 0 Z " fill="#373A3B" transform="translate(1143,776)"/>
<path d="" fill="#373A3B" transform="translate(0,0)"/>
<path d="" fill="#373A3B" transform="translate(0,0)"/>
<path d="" fill="#373A3B" transform="translate(0,0)"/>
<path d="M0 0 C2 1 2 1 2 1 Z " fill="#373A3B" transform="translate(598,796)"/>
<path d="" fill="#373A3B" transform="translate(0,0)"/>
<path d="M0 0 C2 1 2 1 2 1 Z " fill="#373A3B" transform="translate(1086,678)"/>
<path d="" fill="#373A3B" transform="translate(0,0)"/>
<path d="" fill="#373A3B" transform="translate(0,0)"/>
<path d="" fill="#373A3B" transform="translate(0,0)"/>
<path d="" fill="#373A3B" transform="translate(0,0)"/>
</svg>
