<?xml version="1.0" encoding="utf-8"?>
<!-- Generator: Adobe Illustrator 23.0.1, SVG Export Plug-In . SVG Version: 6.00 Build 0)  -->
<svg version="1.1" id="Layer_1" xmlns="http://www.w3.org/2000/svg" xmlns:xlink="http://www.w3.org/1999/xlink" x="0px" y="0px"
	 viewBox="0 0 864 864" style="enable-background:new 0 0 864 864;" xml:space="preserve">
<style type="text/css">
	.st0{fill:#050505;}
</style>
<g>
	<g>
		<path class="st0" d="M330.84,667.92l-14.08,2.83c-0.07-0.42-0.11-0.85-0.18-1.26l11.39-3.53c2.35-0.73,3.67-3.22,2.94-5.57
			c-0.73-2.35-3.21-3.66-5.57-2.94l-10.95,3.4c-0.12-0.38-0.25-0.74-0.37-1.11l10.66-8.96c1.88-1.58,2.13-4.39,0.54-6.28
			c-1.57-1.87-4.38-2.13-6.28-0.54l-8.39,7.05c-0.62-1.32-1.12-2.32-1.21-2.48c-1.17-2.17-3.87-2.98-6.03-1.82
			c-2.17,1.17-2.98,3.86-1.82,6.03c2.88,5.38,9.61,21.72,6.19,32.64c-1.27,4.04-3.78,6.96-7.68,8.94c-5.1,2.59-9.83,3.11-14.51,1.56
			c-7.29-2.41-14.41-9.96-20.04-21.26c-0.05-0.1-0.4-0.77-0.46-0.87c-1.23-2.06-3.73-2.48-5.82-1.33c-2.1,1.15-2.77,4.04-1.7,6.18
			c6.8,13.64,15.52,22.54,25.22,25.75c2.66,0.88,5.35,1.32,8.08,1.32c4.37,0,8.81-1.14,13.26-3.4c6.06-3.08,10.14-7.86,12.14-14.21
			c0.84-2.68,1.14-5.5,1.22-8.34l15.21-3.06c2.41-0.48,3.97-2.83,3.49-5.25C335.59,669,333.25,667.44,330.84,667.92z"/>
	</g>
	<g>
		<g>
			<path class="st0" d="M324.53,514.3c6.51,3.25,48.78,22.34,50.18,21.3c1.4-1.05,11.26-54.46,8.42-79.6
				c-2.84-25.14-16.1-57.26-23.09-55.86c-6.98,1.4-21.3,14.66-19.2,19.55c2.09,4.89,14.27,1.05,13.24,7.33
				c-1.02,6.28-26.69,20.25-26.69,20.25s15.89-3.84,13.44,6.98s-24.12,21.3-24.12,21.3s14.35,1.05,10.68,10.82
				s-23.57,21.99-23.57,21.99S314.98,509.54,324.53,514.3z"/>
		</g>
	</g>
	<g>
		<g>
			<circle class="st0" cx="210.25" cy="758.31" r="17.4"/>
		</g>
	</g>
	<g>
		<circle class="st0" cx="441.26" cy="135.83" r="12.35"/>
	</g>
	<g>
		<circle class="st0" cx="474.46" cy="124.36" r="7.28"/>
	</g>
	<g>
		<circle class="st0" cx="469.15" cy="144.24" r="3.21"/>
	</g>
	<g>
		<circle class="st0" cx="502.6" cy="139.91" r="8.26"/>
	</g>
	<g>
		<circle class="st0" cx="490.63" cy="162.01" r="7.9"/>
	</g>
	<g>
		<circle class="st0" cx="597.46" cy="411.64" r="11.55"/>
	</g>
	<g>
		<circle class="st0" cx="575.55" cy="432.07" r="8.89"/>
	</g>
	<g>
		<circle class="st0" cx="608.08" cy="442.69" r="10.61"/>
	</g>
	<g>
		<path class="st0" d="M413.87,495.53c-0.18,0-0.36-0.01-0.54-0.04c-1.92-0.29-3.24-2.09-2.94-4c0.05-0.32,4.86-32.7-3.12-55.33
			c-7.85-22.27-13.8-28.56-13.86-28.62c-1.34-1.38-1.34-3.59,0.02-4.95c1.37-1.36,3.55-1.38,4.92-0.04
			c0.71,0.69,7.14,7.43,15.55,31.28c8.57,24.31,3.65,57.34,3.44,58.73C417.07,494.29,415.58,495.53,413.87,495.53z"/>
	</g>
	<g>
		<path class="st0" d="M382.06,705.7c-0.79,0-1.59-0.27-2.25-0.82c-1.49-1.24-1.69-3.46-0.44-4.95
			c27.71-33.19,55.66-73.08,53.09-79.56c-4.75-9.63-15.66-8.03-15.77-8c-1.53,0.24-3.04-0.55-3.72-1.95
			c-0.67-1.4-0.35-3.07,0.8-4.12c8.57-7.82,16.09-17.28,15.78-19.85c-1.24-2.11-9.65-3.4-16.36-3.06c-1.36,0.08-2.7-0.71-3.32-1.96
			c-0.62-1.26-0.43-2.76,0.47-3.83c7.04-8.29,13.52-19.66,11.59-22.72c-2.34-3.7-16.86-5.04-26.47-4.6
			c-1.9,0.07-3.58-1.41-3.68-3.35c-0.09-1.94,1.41-3.58,3.35-3.68c4.51-0.21,27.25-0.82,32.74,7.86c4.23,6.69-2.38,18.04-7.73,25.38
			c5.74,0.48,12.97,2.05,15.61,6.7c3.19,5.64-4.16,15.2-11.43,22.67c5.25,1.25,11.03,4.46,14.45,11.39
			c6.29,12.75-35.67,65.2-54.01,87.16C384.06,705.28,383.06,705.7,382.06,705.7z"/>
	</g>
	<path class="st0" d="M723.4,546.63c-5.34-21.58-23.96-85.16-38.99-94c-15.98-9.4-22.51-5.32-24.71-2.82
		c-4.55-16.94-15.19-46.49-38.03-71.25c-11.52-12.49-29.67-24.95-49.78-34.87c10.74-9.35,22.2-23.36,31.74-44.42
		c25.23-55.68-23.1-173.93-47.86-191.65c-18.7-13.39-32.4-7.5-38.71-3.02c-3.54-7.04-11.37-21.06-20.61-28.14
		c-3.08-2.36-6.66-3.2-10.35-2.46c-8.08,1.64-15.1,10.57-18.51,15.65c-6.9-5.15-23.51-17.27-31.83-20.86
		c-10.33-4.47-23.55,10.93-29.26,18.5c-30.19-26.01-35.49-20.85-37.26-19.13c-1.4,1.36-2.6,3.34-3.99,5.63
		c-2.52,4.14-5.65,9.3-9.91,10.02c-2.95,0.51-6.61-1.04-10.9-4.58c-8.82-7.26-17-26.38-24.23-43.24
		c-8.82-20.6-14.64-34.19-22.83-31.72c-9.96,3.02-30.87,41.07-40.07,58.63c-3.05-3.25-7.68-7.09-12.54-7.15
		c-2.18-0.01-5.46,0.72-8.16,4.44c-6.45,8.87-9.36,49.36-10.19,63.4c-5-0.88-13-1.05-17.73,5.3c-5.65,7.59,9.7,37.12,21.15,56.89
		c-1.18,0.42-2.42,1.04-3.62,1.97c-3.57,2.75-5.66,7.21-6.23,13.26c-1.3,13.92,41.75,40.02,63.01,52.02
		c-3.83,2.32-7.47,6.22-8.61,12.37c-0.21,1.13-0.15,2.87,1.29,4.77c10.26,13.51,106.43,30.61,124.99,32.28
		c8.43,0.76,20.49,0.43,33.26,0.1c22-0.58,55.22-1.47,58.88,5.73c1.9,3.73,2.81,9.33,3.5,15.2c-4.82,0.13-9.38,0.65-13.54,1.68
		c-27.36,6.76-73.17,33.03-96.68,59.24c-7.73-10.61-18.49-22.13-29.8-24.2c-18.28-3.39-59.3,47.98-87.84,87.52
		c-21.21-29.34-61.04-74.49-71.21-74.49c-19.2,0-36.87,104.42-38.82,116.32c-3.61,22.02-4.08,49.73-3.56,73.09
		c-10.49,24.07-15.14,55.11-7.42,94.94c4.88,25.21,23.42,40.32,36.96,51.36c4.89,3.99,9.12,7.44,11.37,10.35
		c7.82,10.11,6.21,23.47,3.51,38.61c-0.59,3.31,0.17,8.53,7.14,14.62c8.5,7.43,22.97,13.58,38.25,16.07
		c-2.76,3.37-6.3,6.91-10.04,10.6c-11.51,11.35-24.56,24.21-18.16,38.12c2.78,6.05,9.06,10.05,18.16,11.55
		c2.54,0.42,5.3,0.63,8.23,0.63c18.03,0,42.28-7.9,56.82-23.22c21.86-23.02,37.78-51.4,49.31-79.56c8.25-5.8,13.79-9.97,14.46-10.47
		c1.4-1,2.95-2.25,4.68-3.8c-3.4,28.96-6.93,48.36-10.08,55.1c-2.26,4.84-7.97,11.48-14.01,18.51
		c-13.19,15.34-28.14,32.73-21.01,46.43c1.65,3.17,5.34,7.15,13.58,8.09c1.18,0.13,2.41,0.2,3.7,0.2c20.77,0,55.16-16.93,71.09-35.6
		c38.58-45.23,53.94-117.25,58.21-141.68c68.49-19.16,93.82-83.82,99.52-101.41c10.6,5.94,39.91,20.59,58.65,12.61
		c14.67-6.25,26.25-21.99,32.71-31.41c3.18,15.08,12.03,43.82,24.35,48.56c5.54,2.13,12.49-0.12,19.54-6.34
		C718.09,593.42,729.01,569.32,723.4,546.63z M227,201.67c0.37-3.98,1.53-6.77,3.45-8.29c2.07-1.65,4.49-1.33,4.54-1.33
		c1.36,0.23,2.7-0.36,3.47-1.48c0.77-1.13,0.82-2.6,0.12-3.78c-13.18-22.23-26.03-49.17-24.24-53.7c3.91-5.25,14.07-1.78,14.16-1.75
		c1.05,0.39,2.22,0.25,3.15-0.37c0.93-0.62,1.51-1.64,1.57-2.76c1.05-21.32,4.44-57.51,9.08-63.89c1.13-1.56,2.02-1.59,2.4-1.55
		c3.11,0.03,7.96,4.97,10.4,8.47c0.71,1.01,1.9,1.56,3.12,1.49c1.23-0.08,2.33-0.8,2.89-1.9c13.92-27.11,32.28-57.37,38.1-59.77
		c3.32,1.47,9.8,16.59,14.55,27.69c7.54,17.6,16.08,37.55,26.22,45.9c6.02,4.96,11.42,6.95,16.54,6.08
		c7.43-1.26,11.65-8.22,14.74-13.3c0.89-1.47,1.81-2.98,2.54-3.86c3.91,0.28,17.78,9.89,30.98,21.52c0.6,0.52,1.36,0.75,2.14,0.8
		c0.66,4.01,0.98,9.83-1.11,15.13c-1.88,4.74-20.04,5.56-35.83,3.35c-1.31-0.18-2.61,0.38-3.37,1.47c-0.76,1.08-0.84,2.5-0.22,3.67
		c3.66,6.87,12.48,28.12,5.27,35.47c-7.13,7.27-27.84-1.68-34.54-5.38c-1.4-0.78-3.15-0.5-4.25,0.65c-1.1,1.16-1.28,2.92-0.43,4.28
		c5.67,9.1,12.05,24.12,8.47,29.03c-3.03,4.15-21.04,1.67-35.96-3.26c-1.27-0.42-2.66-0.08-3.6,0.87c-0.94,0.95-1.26,2.35-0.82,3.61
		c3.12,9.03,10.35,34.68,6.47,44.77c-3.57,9.3-20.81,12.18-27.15,12.51c-0.46,0.02-0.89,0.15-1.28,0.33
		C245.78,223.14,226.52,206.83,227,201.67z M456.17,295.15c-6.81,0-14.31,0.16-22.41,0.38c-12.56,0.33-24.42,0.65-32.45-0.07
		c-28.85-2.59-113.36-20.61-119.88-29.31c1.8-7.84,10.04-8.92,10.38-8.96c1.53-0.16,2.77-1.3,3.07-2.81
		c0.3-1.51-0.42-3.03-1.76-3.77c-1.62-0.88-3.16-1.75-4.73-2.63c8.56-1.65,21.25-5.76,25.16-15.93c4.22-10.99-1.09-32.27-4.34-43.15
		c11.11,3.05,31.28,7.15,37.37-1.22c4.99-6.84,1.06-18.74-3-27.33c10.03,3.98,25,7.79,33.08-0.46c9.24-9.42,2.95-28.11-1.28-37.81
		c12.21,1.16,32.99,1.54,36.94-8.47c3.63-9.17,1.67-19.1,0.6-23.13c6.62-8.45,15.84-17.06,20.05-15.24
		c9.64,4.16,33.19,22.13,33.43,22.31c0.8,0.61,1.82,0.85,2.83,0.65c0.99-0.2,1.85-0.82,2.35-1.7c2.23-3.9,9.43-14.31,15.91-15.62
		c1.71-0.34,3.2,0.02,4.67,1.15c10.94,8.39,20.39,29.41,20.48,29.62c0.49,1.1,1.51,1.86,2.7,2.04c1.19,0.17,2.4-0.28,3.18-1.19
		c0.5-0.58,12.47-13.97,33.14,0.83c22.99,16.46,69.06,131.16,45.55,183.04c-8.32,18.36-19.61,33.46-32.43,43.96
		c-20.6-9.33-42.64-15.78-61.41-16.76c-0.79-7-1.78-13.51-4.31-18.47C494.99,297.04,479.65,295.15,456.17,295.15z M165.38,490.69
		c10.08-61.54,25.17-109.06,31.81-110.44c7.26,0.98,47.66,46.51,67.19,73.18c-10.36,14.54-18.68,26.92-22.99,33.42
		c-8.37,2.57-53.7,18.29-79.59,62.26C161.72,529.32,162.54,508.01,165.38,490.69z M294.61,821.43
		c-15.32,16.14-42.45,23.2-58.81,20.49c-4.66-0.77-10.7-2.71-12.93-7.56c-4.34-9.42,6.36-19.97,16.71-30.18
		c5.11-5.04,9.95-9.84,13.21-14.65c8.83,0.64,17.62-0.03,25.41-2.54c17.46-5.62,41.5-20.41,59.63-32.59
		C327,778.53,312.89,802.17,294.61,821.43z M699.75,600.23c-4.78,4.21-9.51,6.15-12.37,5.05c-10.85-4.17-21.26-44.62-21.15-50.19
		c0.19-2.24-1.18-3.54-2.41-3.98c-2.87-1.01-4.1,0.8-7.38,5.65c-5.58,8.25-17.19,25.4-31.4,31.46
		c-19.37,8.25-55.75-14.19-56.12-14.41c-0.95-0.59-2.14-0.69-3.17-0.27c-1.04,0.42-1.82,1.31-2.09,2.41
		c-0.2,0.81-21.18,81.22-98.01,101.34c-1.34,0.35-2.35,1.45-2.58,2.82c-3.6,21.5-18.35,95.18-57.01,140.5
		c-15.41,18.07-50.68,34.98-68.65,32.98c-4.14-0.47-6.88-1.94-8.14-4.35c-4.93-9.48,8.95-25.63,20.11-38.6
		c6.37-7.41,12.38-14.4,15.05-20.12c4.87-10.44,9.1-42.2,11.79-67.01c0.16-1.49-0.64-2.92-2-3.56c-0.48-0.22-0.99-0.33-1.49-0.33
		c-0.93,0-1.84,0.37-2.52,1.06c-4.48,4.6-8.12,7.91-10.91,9.9c-0.53,0.4-53.29,40.08-83.27,49.74c-22.64,7.28-53.1-2.7-64.98-13.08
		c-3.46-3.02-5.23-5.97-4.85-8.1c2.89-16.2,4.7-31.76-4.87-44.14c-2.75-3.55-7.26-7.23-12.49-11.5
		c-12.7-10.36-30.1-24.54-34.5-47.25c-25.4-131.1,85.4-161.75,90.13-162.99c0.84-0.22,1.57-0.74,2.04-1.46
		c62.02-93.96,99.42-126.37,108.5-124.69c8.01,1.47,17.92,10.34,27.89,24.98c0.62,0.91,1.64,1.48,2.75,1.53
		c1.14,0.04,2.17-0.43,2.87-1.28c21.56-26.3,68.42-53.56,95.92-60.36c30.4-7.52,98.65,15.15,132.04,51.34
		c32,34.7,39.19,80.76,39.26,81.22c0.26,1.76,1.83,3.08,3.59,2.99c1.78-0.06,3.24-1.44,3.39-3.22c0.25-3.01,1.13-8.23,2.21-9.86
		c0.49-0.73,4.84-2.28,15.89,4.22c9.35,5.5,26.33,51.65,35.73,89.64C721.47,568.08,711.56,589.82,699.75,600.23z"/>
</g>
</svg>
