<?xml version="1.0" encoding="UTF-8"?>
<!-- Generator: visioncortex VTracer 0.6.3 -->
<svg version="1.1" xmlns="http://www.w3.org/2000/svg" width="1131" height="1280">
<path d="M0 0 C3.23 1 6.4 1.77 9.73 2.36 C15.98 3.55 21.87 5.67 27.85 7.82 C29.06 8.26 30.28 8.7 31.54 9.15 C49.18 15.59 66.23 23.38 82.91 32.01 C83.88 32.51 84.85 33.01 85.84 33.53 C93.03 37.33 93.03 37.33 95.91 40.45 C98.45 43.19 101.27 45.14 104.38 47.21 C105.45 47.91 106.51 48.62 107.61 49.35 C108.16 49.72 108.71 50.08 109.28 50.46 C110.97 51.57 112.66 52.7 114.35 53.82 C119.5 57.35 119.5 57.35 124.91 60.45 C125.49 59.76 125.49 59.76 126.09 59.05 C144.78 37.26 167.08 23.79 195.91 20.45 C221.98 18.7 249.02 24.95 269.27 42.23 C272.25 44.87 275.08 47.65 277.91 50.45 C278.59 51.08 279.26 51.7 279.96 52.35 C296.12 67.58 306.52 92.15 307.25 114.17 C307.41 127.79 307.29 140.48 302.91 153.45 C302.29 155.33 302.29 155.33 301.66 157.24 C292.71 182.59 273.72 202.39 249.91 214.45 C249.25 214.45 248.59 214.45 247.91 214.45 C248.18 215.22 248.45 215.99 248.73 216.78 C259.93 248.58 268.45 279.78 271.91 313.45 C272.04 314.72 272.18 315.99 272.31 317.3 C279.83 406.88 247.98 495.49 190.58 563.65 C180.99 574.9 170.96 585.67 160.22 595.82 C159.51 596.5 158.79 597.18 158.06 597.87 C153.18 602.42 148.17 606.46 142.62 610.16 C140.35 613.19 140.98 615.15 141.46 618.76 C142.31 623.85 143.44 628.87 144.58 633.9 C144.85 635.13 145.13 636.35 145.41 637.62 C146.16 640.99 146.92 644.35 147.68 647.72 C148.5 651.33 149.31 654.95 150.12 658.56 C151.51 664.75 152.9 670.95 154.29 677.15 C156.3 686.04 158.29 694.93 160.29 703.82 C164.3 721.73 168.33 739.64 172.36 757.55 C174.14 765.48 175.93 773.42 177.71 781.36 C177.86 782.03 178.01 782.69 178.17 783.38 C180.56 794.03 182.95 804.67 185.34 815.32 C186.86 822.1 188.39 828.88 189.92 835.66 C190.86 839.84 191.8 844.02 192.74 848.2 C193.16 850.09 193.59 851.98 194.02 853.87 C196.84 866.36 199.45 878.88 201.91 891.45 C316.77 888.53 316.77 888.53 412.1 830.14 C427.19 812.53 434.66 791.67 432.91 768.45 C431.08 752.23 425.45 734.8 412.4 724.12 C409.24 722 405.91 720.3 402.54 718.57 C389.82 712.06 381.73 703.35 376.54 689.89 C373.96 675.72 375.08 663.86 382.91 651.45 C390.16 641.64 399.67 634.43 411.91 632.45 C433.45 630.87 452.16 640.06 468.49 653.77 C472.07 656.89 475.49 660.15 478.91 663.45 C479.7 664.18 480.49 664.91 481.31 665.66 C500.3 683.61 513.04 710.22 518.91 735.45 C519.11 736.29 519.3 737.13 519.5 738 C528.35 777.88 523.08 820.77 502.91 856.45 C502.56 857.08 502.21 857.71 501.84 858.36 C489.5 880.37 472.58 899.74 452.91 915.45 C452.12 916.11 451.33 916.77 450.51 917.45 C438.64 927.25 425.53 935.31 411.91 942.45 C411.05 942.91 410.19 943.36 409.3 943.83 C396.25 950.65 383.05 956.07 369.1 960.7 C368 961.06 368 961.06 366.89 961.43 C354.73 965.45 354.73 965.45 349.91 965.45 C350.87 967.15 350.87 967.15 351.85 968.89 C352.3 969.72 352.76 970.54 353.23 971.4 C354.11 973.01 355 974.61 355.92 976.21 C377.46 1013.79 379.57 1057.31 368.59 1098.69 C360.38 1127.54 345.51 1154.64 324.91 1176.45 C323.8 1177.76 322.7 1179.07 321.6 1180.39 C295.74 1209.85 256.69 1229.26 217.69 1232.23 C198.11 1233.33 178.9 1230.33 160.91 1222.45 C160.8 1223.18 160.68 1223.91 160.57 1224.66 C157.21 1238.94 143.32 1249.61 131.55 1256.91 C115.51 1265.77 97.93 1265.05 80.16 1264.99 C76.55 1264.98 72.95 1264.99 69.34 1264.99 C63.29 1265 57.24 1264.99 51.19 1264.97 C44.23 1264.95 37.28 1264.96 30.33 1264.98 C24.31 1265 18.29 1265 12.28 1264.99 C8.7 1264.98 5.13 1264.98 1.56 1264.99 C-22.09 1265.07 -42.49 1263.75 -61.09 1247.45 C-61.7 1246.92 -62.32 1246.38 -62.95 1245.84 C-74.96 1234.68 -80.81 1219.45 -82.09 1203.45 C-82.09 1199.82 -82.09 1196.19 -82.09 1192.45 C-108.16 1192.12 -134.23 1191.79 -161.09 1191.45 C-161.09 1197.72 -161.09 1203.99 -161.09 1210.45 C-163.79 1227.34 -173.17 1242.05 -186.9 1252.26 C-200.83 1261.33 -215.04 1264.92 -231.54 1264.85 C-232.81 1264.86 -234.09 1264.87 -235.4 1264.87 C-238.86 1264.89 -242.31 1264.89 -245.77 1264.89 C-248.68 1264.88 -251.58 1264.89 -254.48 1264.89 C-261.35 1264.91 -268.21 1264.91 -275.07 1264.9 C-282.11 1264.88 -289.14 1264.9 -296.18 1264.92 C-302.26 1264.95 -308.34 1264.95 -314.43 1264.95 C-318.04 1264.94 -321.66 1264.95 -325.27 1264.96 C-354.06 1265.09 -354.06 1265.09 -366.09 1260.45 C-366.84 1260.17 -367.58 1259.9 -368.35 1259.62 C-376.91 1256.17 -383.72 1251.03 -390.09 1244.45 C-390.82 1243.7 -391.55 1242.96 -392.3 1242.19 C-396.82 1237.36 -400.17 1232.38 -403.09 1226.45 C-404.11 1226.71 -405.13 1226.98 -406.18 1227.25 C-444.34 1236.91 -482.83 1231.47 -516.81 1211.29 C-529.67 1203.35 -541.17 1193.85 -552.09 1183.45 C-552.8 1182.8 -553.5 1182.14 -554.23 1181.47 C-564.87 1171.32 -573.32 1158.86 -581.09 1146.45 C-581.66 1145.55 -581.66 1145.55 -582.24 1144.63 C-599.65 1116.67 -608.59 1083.52 -608.4 1050.7 C-608.4 1050 -608.4 1049.31 -608.4 1048.59 C-608.21 1010.87 -595.51 978.04 -569.53 950.45 C-545.5 927.12 -514.83 918.92 -482.19 919.24 C-465.79 919.59 -451.45 923.91 -436.09 929.45 C-432.32 916.14 -429.36 902.66 -426.34 889.17 C-425.59 885.78 -424.82 882.39 -424.06 878.99 C-422.75 873.15 -421.44 867.31 -420.14 861.47 C-418.25 853.02 -416.35 844.58 -414.46 836.14 C-411.07 821 -407.67 805.86 -404.29 790.72 C-401.86 779.88 -399.43 769.05 -397 758.21 C-396.76 757.1 -396.76 757.1 -396.5 755.98 C-395.68 752.3 -394.86 748.62 -394.03 744.95 C-392.44 737.83 -390.84 730.71 -389.25 723.58 C-389.09 722.9 -388.94 722.21 -388.78 721.51 C-386.84 712.82 -384.89 704.14 -382.95 695.45 C-382.1 691.69 -381.26 687.93 -380.42 684.16 C-379.37 679.46 -378.32 674.76 -377.26 670.06 C-375.12 660.46 -372.96 650.85 -370.76 641.25 C-370.42 639.76 -370.08 638.27 -369.74 636.78 C-369.15 634.18 -368.55 631.58 -367.94 628.98 C-367.69 627.88 -367.44 626.79 -367.18 625.66 C-366.97 624.74 -366.75 623.81 -366.53 622.86 C-365.97 620.2 -365.97 620.2 -366.09 616.45 C-367.81 614.61 -367.81 614.61 -370.21 612.95 C-371.61 611.88 -371.61 611.88 -373.03 610.79 C-374.04 610.02 -375.05 609.25 -376.09 608.45 C-385.42 601.01 -393.95 592.8 -402.4 584.39 C-402.91 583.88 -403.43 583.37 -403.95 582.85 C-410.81 576.05 -417.07 569.01 -423.09 561.45 C-423.95 560.42 -424.82 559.4 -425.7 558.38 C-465.72 511.72 -489.7 453.58 -500.09 393.45 C-500.28 392.34 -500.48 391.22 -500.68 390.07 C-505.82 358.62 -505.28 323.85 -500.09 292.45 C-499.92 291.4 -499.76 290.36 -499.59 289.28 C-495.5 264.15 -488.22 240.05 -478.79 216.44 C-477.98 214.49 -477.98 214.49 -478.09 212.45 C-480.15 211.06 -482.21 209.78 -484.34 208.51 C-506.88 194.55 -522.5 172.5 -529.28 146.91 C-535.69 119.59 -531.15 92.6 -517.09 68.45 C-502.36 45.21 -479.95 28.74 -453.1 22.48 C-425.92 16.73 -398.64 21.74 -375.09 36.45 C-366.95 41.91 -359.8 48.32 -353.09 55.45 C-352.43 56.11 -351.77 56.77 -351.09 57.45 C-350.59 57.12 -350.1 56.79 -349.59 56.45 C-337.46 48.39 -325.16 40.81 -312.43 33.75 C-310.38 32.61 -308.35 31.46 -306.31 30.31 C-262.23 5.91 -211.87 -7.55 -162.09 -13.55 C-161.17 -13.67 -160.25 -13.79 -159.3 -13.91 C-107.13 -20.44 -50.29 -15.59 0 0 Z M-153.09 -1.55 C-146.89 65.47 -146.89 65.47 -118.09 123.45 C-117.6 124.01 -117.11 124.58 -116.6 125.16 C-115 126.8 -115 126.8 -111.78 126.57 C-104.95 124.49 -102.42 119.29 -99.18 113.3 C-83.34 82.69 -78.42 46.54 -73.21 12.82 C-73.09 12.06 -72.97 11.29 -72.85 10.5 C-72.2 6.09 -71.98 1.89 -72.09 -2.55 C-83.31 -6.29 -97.18 -4.7 -108.86 -4.68 C-112.08 -4.68 -115.3 -4.68 -118.52 -4.69 C-136.36 -5.8 -136.36 -5.8 -153.09 -1.55 Z M14.91 15.45 C9.68 38.45 4.6 61.79 3.91 85.45 C3.87 86.39 3.83 87.33 3.79 88.3 C3.55 98.02 4.09 108.81 8.91 117.45 C11.92 118.95 13.52 118.87 16.91 118.45 C45.79 105.91 64.44 69.62 80.91 44.45 C77.37 41.42 73.91 39.3 69.7 37.31 C68.81 36.89 68.81 36.89 67.9 36.46 C65.97 35.55 64.04 34.66 62.1 33.76 C61.44 33.45 60.77 33.15 60.09 32.83 C45.47 26.04 30.51 19.65 14.91 15.45 Z M-305.09 43.45 C-302.8 49.76 -298.88 54.96 -295.09 60.45 C-294.64 61.11 -294.19 61.76 -293.72 62.44 C-283.71 76.93 -273.23 90.68 -261.09 103.45 C-260.06 104.58 -260.06 104.58 -259.01 105.73 C-253.66 111.4 -246.31 118.57 -238.15 119.2 C-234.99 118.67 -234.99 118.67 -232.78 116.45 C-228.26 108.42 -228.69 99.67 -228.71 90.7 C-228.72 90 -228.72 89.29 -228.72 88.57 C-228.8 63.76 -233.99 39.63 -239.09 15.45 C-259.66 15.45 -287.43 33.76 -305.09 43.45 Z M-184.03 0.57 C-185.25 0.8 -186.46 1.02 -187.72 1.24 C-208.8 4.91 -208.8 4.91 -229.09 11.45 C-228.5 16.89 -227.57 22.16 -226.43 27.51 C-221.97 48.53 -218.74 69.56 -218.65 91.07 C-218.64 92.34 -218.63 93.6 -218.62 94.9 C-218.72 105.55 -219.77 117.1 -227.09 125.45 C-231.22 128.53 -235.27 129.1 -240.32 128.92 C-250.44 127.21 -258.04 120.46 -265.09 113.45 C-265.96 112.6 -266.82 111.76 -267.71 110.89 C-268.5 110.08 -269.28 109.28 -270.09 108.45 C-270.62 107.96 -271.16 107.47 -271.71 106.97 C-279.15 99.97 -285.04 91.64 -291.09 83.45 C-291.53 82.85 -291.97 82.26 -292.43 81.64 C-300.37 70.85 -307.71 59.63 -315.09 48.45 C-324.07 52.53 -332.07 57.94 -340.15 63.54 C-341.85 64.71 -343.56 65.86 -345.27 67 C-346.76 68.03 -346.76 68.03 -348.29 69.08 C-351.09 70.45 -351.09 70.45 -353.82 70.3 C-357.04 69.09 -358.24 67.19 -360.28 64.45 C-374.19 46.73 -394.33 35.79 -416.42 31.86 C-440.94 29.14 -463.85 34.03 -484.09 48.45 C-487.59 51.29 -490.85 54.31 -494.09 57.45 C-494.78 58.06 -495.46 58.67 -496.17 59.3 C-511.02 73.01 -520 94.57 -521.22 114.53 C-522.17 141.79 -514.33 165.73 -495.55 185.93 C-486.91 194.88 -476.99 200.72 -466.09 206.45 C-465.36 213.5 -467.99 218.95 -470.65 225.39 C-474.22 234.33 -477.43 243.26 -480.09 252.51 C-480.37 253.48 -480.65 254.45 -480.93 255.44 C-482.51 261.08 -483.87 266.73 -485.09 272.45 C-479.92 276.58 -474.63 280.51 -469.21 284.32 C-459.27 291.36 -449.99 299.13 -441.09 307.45 C-440.16 308.32 -439.23 309.18 -438.27 310.07 C-430.8 317.24 -422.24 326.14 -420.75 336.88 C-420.68 341.72 -420.83 345.81 -423.57 349.92 C-430.68 357.08 -441.57 358.53 -451.15 358.68 C-453.8 358.68 -456.44 358.66 -459.09 358.64 C-460.48 358.63 -461.86 358.62 -463.25 358.62 C-472.88 358.56 -482.48 358.25 -492.09 357.45 C-492.21 364.35 -491.88 371.09 -491.15 377.95 C-491.07 378.84 -490.98 379.73 -490.89 380.65 C-490.54 385.2 -490.54 385.2 -489.09 389.45 C-487.78 389.38 -486.48 389.3 -485.13 389.23 C-440.25 386.85 -440.25 386.85 -427.09 394.45 C-423.96 397.27 -421.34 400.43 -420.82 404.7 C-420.35 417.38 -426.91 425.34 -435.09 434.45 C-445.31 445.45 -457.18 454.38 -469.09 463.45 C-467.16 469.66 -464.84 475.53 -462.03 481.39 C-461.63 482.21 -461.24 483.03 -460.84 483.87 C-447.04 512.32 -429.24 538.94 -408.09 562.45 C-407.37 563.26 -407.37 563.26 -406.63 564.08 C-400.87 570.49 -394.92 576.71 -388.84 582.82 C-388.29 583.38 -387.73 583.94 -387.16 584.52 C-372.89 598.74 -356.77 611.21 -340.09 622.45 C-339.41 622.91 -338.73 623.37 -338.03 623.84 C-311.81 641.45 -283.8 655.72 -254.09 666.45 C-252.52 667.02 -252.52 667.02 -250.93 667.59 C-160.82 699.78 -60.44 698.13 58.91 651.45 C59.73 651.06 60.56 650.67 61.41 650.27 C86.24 638.43 109.41 623.61 130.91 606.45 C131.83 605.72 132.75 605 133.69 604.25 C144.67 595.45 154.72 585.73 164.7 575.83 C166.12 574.43 167.54 573.03 168.96 571.63 C175.05 565.55 180.56 559.18 185.91 552.45 C186.91 551.24 187.91 550.03 188.92 548.83 C201.56 533.54 212.22 516.74 221.91 499.45 C222.27 498.81 222.63 498.18 222.99 497.52 C226.97 490.41 230.64 483.17 234.04 475.76 C234.36 475.09 234.68 474.42 235 473.73 C236.7 470.16 236.7 470.16 236.19 466.41 C234.81 464.3 233.55 463.15 231.52 461.67 C230.84 461.17 230.16 460.66 229.45 460.14 C228.72 459.6 227.98 459.06 227.22 458.51 C188.14 429.28 188.14 429.28 184.91 411.45 C184.34 405.47 185.52 401.31 188.91 396.45 C197.4 388.79 211.18 388.25 222.1 388.26 C222.86 388.26 223.62 388.26 224.4 388.26 C233.18 388.34 241.87 389.27 250.59 390.27 C253.37 390.49 256.12 390.48 258.91 390.45 C259.34 386.09 259.77 381.73 260.19 377.37 C260.34 375.89 260.48 374.4 260.63 372.92 C260.84 370.79 261.05 368.66 261.25 366.52 C261.38 365.24 261.51 363.96 261.63 362.64 C261.95 359.48 261.95 359.48 261.91 356.45 C259.95 356.59 257.99 356.74 256.04 356.89 C254.94 356.97 253.85 357.05 252.73 357.13 C250.74 357.3 248.74 357.47 246.75 357.7 C239.2 358.56 231.69 358.67 224.1 358.7 C222.82 358.72 221.54 358.74 220.23 358.76 C209.91 358.8 198.06 358.56 189.91 351.45 C186.64 347.83 185.1 345.3 184.6 340.39 C185.94 323.5 200.66 310.62 212.63 300.05 C215.35 297.78 218.11 295.6 220.91 293.45 C221.79 292.77 221.79 292.77 222.69 292.08 C232.53 284.52 242.63 277.39 252.91 270.45 C252.36 262.99 250.6 256.32 248.35 249.2 C248 248.07 247.65 246.94 247.29 245.77 C244.64 237.39 241.67 229.17 238.35 221.04 C237.87 219.84 237.87 219.84 237.38 218.62 C237.09 217.93 236.81 217.24 236.52 216.53 C235.81 214.1 235.81 211.97 235.91 209.45 C236.74 209.01 236.74 209.01 237.59 208.57 C252.59 200.75 252.59 200.75 265.91 190.45 C266.62 189.81 266.62 189.81 267.34 189.15 C283.64 174.31 295.16 152.99 296.82 130.72 C296.85 129.97 296.88 129.22 296.91 128.45 C296.96 127.51 297.01 126.58 297.07 125.61 C297.78 101.4 288.95 78.48 272.91 60.45 C272.25 59.69 271.58 58.93 270.9 58.15 C264.74 51.55 257.64 47 249.91 42.45 C248.66 41.71 248.66 41.71 247.39 40.95 C227.56 30.12 202.44 28.36 180.91 34.45 C161.59 40.2 147.16 51.1 133.89 66.21 C131.66 68.73 129.33 71.1 126.91 73.45 C122.07 72.11 118.49 69.95 114.54 66.95 C109.21 63.05 103.82 59.29 98.29 55.7 C97.61 55.24 96.94 54.79 96.24 54.32 C94.12 52.92 94.12 52.92 90.91 51.45 C87.05 52.6 85.56 55.04 83.44 58.33 C82.79 59.33 82.15 60.32 81.48 61.35 C80.46 62.94 80.46 62.94 79.41 64.57 C69.52 79.7 59.04 94.03 46.91 107.45 C46.46 107.95 46.01 108.46 45.54 108.98 C38.6 116.62 27.6 127.52 16.68 128.69 C11.93 128.83 7.64 128.83 3.51 126.12 C-8.14 113.98 -5.58 94.97 -5.33 79.53 C-4.9 61.47 -1.66 43.57 2.33 25.98 C3.38 21.38 4.2 17.21 3.91 12.45 C-10.19 8.37 -24.3 4.83 -38.71 2.07 C-39.38 1.95 -40.04 1.82 -40.72 1.69 C-47.5 0.4 -54.24 -0.73 -61.09 -1.55 C-61.27 -0.37 -61.45 0.81 -61.64 2.03 C-79.18 116.31 -79.18 116.31 -102.09 133.45 C-106.62 136.44 -110.74 137.29 -116.09 136.45 C-123.68 134.6 -127.97 128.64 -131.99 122.3 C-153.14 86.64 -157.83 38.88 -163.09 -1.55 C-170.27 -1.85 -176.97 -0.72 -184.03 0.57 Z M-486.09 285.45 C-487.86 291.89 -488.85 298.26 -489.65 304.89 C-489.78 305.94 -489.91 307 -490.04 308.09 C-491.56 320.88 -492.27 333.56 -492.09 346.45 C-481.99 348.06 -472.15 348.8 -461.93 348.76 C-459.7 348.76 -457.47 348.79 -455.23 348.81 C-443.03 349.12 -443.03 349.12 -432.38 343.96 C-430.94 342.53 -430.94 342.53 -430.73 340.57 C-431.75 327.72 -443.99 317.63 -453.09 309.45 C-457.05 306.07 -461.18 302.91 -465.34 299.78 C-467.12 298.42 -468.89 297.04 -470.65 295.65 C-471.8 294.75 -472.94 293.85 -474.09 292.95 C-475.1 292.16 -476.11 291.36 -477.15 290.54 C-480.03 288.49 -482.89 286.93 -486.09 285.45 Z M242.79 289.64 C242.17 290.08 241.55 290.53 240.92 290.98 C211.67 311.11 211.67 311.11 194.35 340.14 C194.74 342.74 194.74 342.74 197.47 344.64 C203.45 347.79 208.82 348.7 215.54 348.71 C216.25 348.72 216.96 348.72 217.7 348.72 C219.2 348.72 220.7 348.72 222.2 348.71 C224.44 348.7 226.69 348.71 228.94 348.72 C238.11 348.73 246.85 348.03 255.91 346.45 C256.34 325.85 254.46 305.73 250.91 285.45 C247.63 285.45 245.36 287.77 242.79 289.64 Z M-486.09 400.45 C-486.48 406.99 -485.04 412.81 -483.46 419.14 C-483.2 420.23 -482.93 421.32 -482.66 422.44 C-480.15 432.55 -477.22 442.52 -474.09 452.45 C-470.98 451.85 -469.1 450.93 -466.66 448.93 C-466.01 448.41 -465.37 447.89 -464.71 447.35 C-464.03 446.78 -463.35 446.22 -462.65 445.64 C-461.95 445.05 -461.24 444.47 -460.51 443.87 C-443.13 429.89 -443.13 429.89 -431.09 411.45 C-431.01 409.12 -431 406.78 -431.09 404.45 C-445.3 394.05 -469.67 397.97 -486.09 400.45 Z M196.6 403.14 C194.6 405.46 194.6 405.46 194.6 409.01 C197.62 423.55 215.49 437.01 226.54 445.76 C227.1 446.21 227.67 446.66 228.25 447.12 C231.36 449.5 234.27 451.08 237.91 452.45 C241.99 439.76 245.97 427.08 248.91 414.07 C249.12 413.16 249.32 412.25 249.54 411.31 C250.36 407.53 250.91 404.35 250.91 400.45 C233.49 397.86 212.82 394.87 196.6 403.14 Z M127.91 621.45 C125.31 623.18 122.88 624.97 120.41 626.89 C96.17 645.04 68.74 658.77 40.91 670.45 C40.91 674.39 42.1 675.02 44.79 677.82 C63.65 698.22 78.03 722.55 87.91 748.45 C88.19 749.18 88.47 749.9 88.75 750.65 C97.7 774.47 101.34 799.73 101.22 825.07 C101.22 825.91 101.22 826.74 101.22 827.6 C101.16 840.74 100.61 853.54 97.91 866.45 C97.72 867.39 97.52 868.33 97.32 869.29 C90.94 899.25 78.95 927.63 60.91 952.45 C60.52 952.99 60.13 953.53 59.73 954.09 C27.66 998.6 -21.83 1028.98 -75.74 1038.48 C-122.69 1046.02 -170.13 1038.78 -212.09 1016.45 C-212.76 1016.1 -213.42 1015.75 -214.11 1015.39 C-223.82 1010.26 -232.75 1004.45 -241.44 997.72 C-242.87 996.62 -244.32 995.53 -245.77 994.45 C-267.59 977.56 -284.42 956.2 -298.09 932.45 C-298.45 931.83 -298.82 931.21 -299.19 930.57 C-326.97 883.03 -332.82 822.81 -319.19 769.94 C-309.27 733.17 -290.89 702.87 -266.09 674.45 C-268.44 671.77 -270.7 670.57 -273.97 669.21 C-274.96 668.79 -275.95 668.37 -276.97 667.94 C-278.58 667.26 -278.58 667.26 -280.21 666.57 C-304.9 655.93 -330.03 643.46 -351.2 626.71 C-353.13 625.17 -353.13 625.17 -356.09 625.45 C-369.7 685.81 -383.28 746.18 -396.84 806.55 C-397.5 809.46 -398.15 812.37 -398.8 815.27 C-399.44 818.11 -400.08 820.95 -400.72 823.79 C-401.03 825.2 -401.35 826.6 -401.66 828 C-403.35 835.52 -405.04 843.04 -406.73 850.56 C-407.32 853.21 -407.92 855.87 -408.51 858.53 C-408.66 859.18 -408.81 859.83 -408.96 860.5 C-410.95 869.38 -412.95 878.25 -414.95 887.13 C-416.03 891.92 -417.11 896.71 -418.19 901.5 C-418.92 904.73 -419.65 907.97 -420.38 911.2 C-421.18 914.72 -421.97 918.25 -422.76 921.78 C-423.12 923.34 -423.12 923.34 -423.48 924.94 C-423.8 926.37 -423.8 926.37 -424.13 927.83 C-424.32 928.65 -424.5 929.48 -424.7 930.33 C-425.18 932.58 -425.18 932.58 -425.09 935.45 C-422.45 936.95 -419.8 938.45 -417.15 939.95 C-416.4 940.38 -415.64 940.81 -414.87 941.25 C-414.15 941.66 -413.43 942.06 -412.69 942.48 C-412.02 942.86 -411.36 943.23 -410.67 943.62 C-409.24 944.53 -409.24 944.53 -408.09 944.45 C-407.76 936.53 -407.43 928.61 -407.09 920.45 C-402.09 919.45 -402.09 919.45 -399.09 920.45 C-397.51 923.61 -397.91 927.01 -397.88 930.48 C-397.87 931.31 -397.86 932.14 -397.85 932.99 C-397.82 935.74 -397.8 938.49 -397.77 941.24 C-397.75 943.14 -397.73 945.04 -397.71 946.95 C-397.66 951.96 -397.61 956.98 -397.56 961.99 C-397.51 967.1 -397.45 972.22 -397.4 977.33 C-397.29 987.37 -397.19 997.41 -397.09 1007.45 C-392.93 1008.06 -388.92 1008.57 -384.72 1008.59 C-372.22 1008.79 -361.73 1009.81 -350.09 1014.45 C-348.62 1015 -347.16 1015.54 -345.69 1016.09 C-333.49 1020.75 -321.4 1026.61 -314.93 1038.61 C-312.54 1044.49 -312.87 1049.55 -315.09 1055.45 C-322.36 1069.38 -340.04 1075.96 -354.14 1080.54 C-366.96 1084.54 -379.87 1087.56 -393.07 1090 C-395.15 1090.38 -395.15 1090.38 -397.09 1091.45 C-397.09 1097.72 -397.09 1103.99 -397.09 1110.45 C-394.75 1110.89 -394.75 1110.89 -392.36 1111.33 C-332.57 1122.73 -332.57 1122.73 -317.4 1141.57 C-313.91 1146.89 -312.41 1152.02 -313.5 1158.41 C-316.31 1168.08 -324.29 1174 -332.65 1178.79 C-352.65 1189.72 -374.95 1194.07 -397.09 1198.45 C-397.8 1212.61 -393.4 1225.08 -383.96 1235.64 C-373.64 1246.64 -360.76 1253.13 -345.65 1253.9 C-338.39 1254.12 -331.13 1254.1 -323.87 1254.05 C-320.19 1254.03 -316.51 1254.04 -312.83 1254.04 C-306.66 1254.04 -300.48 1254.02 -294.31 1253.99 C-287.2 1253.95 -280.09 1253.95 -272.98 1253.95 C-266.1 1253.96 -259.22 1253.95 -252.34 1253.93 C-249.43 1253.92 -246.52 1253.92 -243.61 1253.92 C-239.54 1253.92 -235.47 1253.9 -231.4 1253.87 C-230.21 1253.87 -229.02 1253.88 -227.8 1253.88 C-212.45 1253.72 -197.77 1248.69 -186.65 1237.89 C-176.57 1227.55 -171.85 1214.68 -171.7 1200.4 C-171.68 1199.41 -171.66 1198.43 -171.64 1197.42 C-171.58 1194.18 -171.54 1190.94 -171.49 1187.71 C-171.45 1185.45 -171.41 1183.2 -171.37 1180.95 C-171.27 1175.04 -171.17 1169.12 -171.08 1163.21 C-170.94 1153.72 -170.78 1144.23 -170.61 1134.74 C-170.56 1131.42 -170.51 1128.1 -170.46 1124.78 C-170.42 1122.76 -170.39 1120.74 -170.36 1118.72 C-170.34 1117.33 -170.34 1117.33 -170.32 1115.91 C-170.2 1109.56 -170.2 1109.56 -169.09 1108.45 C-166.78 1108.45 -164.47 1108.45 -162.09 1108.45 C-161.76 1132.21 -161.43 1155.97 -161.09 1180.45 C-135.02 1180.45 -108.95 1180.45 -82.09 1180.45 C-81.8 1160.08 -81.8 1160.08 -81.52 1139.7 C-81.48 1137.14 -81.45 1134.58 -81.41 1132.01 C-81.39 1130.69 -81.37 1129.37 -81.36 1128.01 C-81.08 1110.44 -81.08 1110.44 -79.09 1108.45 C-76.76 1108.41 -74.42 1108.41 -72.09 1108.45 C-72.08 1109.58 -72.07 1110.7 -72.06 1111.86 C-71.96 1122.51 -71.86 1133.16 -71.75 1143.81 C-71.7 1149.29 -71.64 1154.76 -71.59 1160.24 C-71.54 1165.53 -71.49 1170.82 -71.44 1176.11 C-71.42 1178.12 -71.4 1180.13 -71.38 1182.14 C-71.19 1204.07 -70.62 1221.14 -55.36 1238.41 C-43.68 1249.83 -28.01 1253.76 -12.22 1253.71 C-10.95 1253.71 -9.68 1253.72 -8.37 1253.72 C-4.9 1253.73 -1.42 1253.72 2.05 1253.72 C5.69 1253.71 9.34 1253.72 12.99 1253.72 C19.11 1253.72 25.24 1253.72 31.36 1253.71 C38.42 1253.7 45.48 1253.7 52.54 1253.71 C58.62 1253.72 64.7 1253.72 70.78 1253.72 C74.41 1253.72 78.03 1253.72 81.65 1253.72 C85.7 1253.73 89.74 1253.72 93.78 1253.71 C95.56 1253.71 95.56 1253.71 97.38 1253.72 C107.32 1253.67 116.03 1252.47 124.91 1247.89 C125.6 1247.54 126.28 1247.18 126.99 1246.82 C139.78 1240 148.56 1229.39 153.13 1215.59 C154.01 1212.06 154.29 1208.72 154.51 1205.09 C154.59 1203.85 154.67 1202.6 154.75 1201.31 C154.8 1200.37 154.86 1199.42 154.91 1198.45 C154.08 1198.27 153.25 1198.1 152.4 1197.92 C88.18 1184.21 88.18 1184.21 75.47 1165.76 C72.04 1160.35 71.19 1155.78 71.91 1149.45 C74.85 1139.82 82.52 1134.17 90.97 1129.43 C109.51 1119.58 130.82 1114.71 151.34 1110.99 C153.83 1110.71 153.83 1110.71 154.91 1109.45 C155 1108.11 155.02 1106.76 155.01 1105.41 C155 1104.61 155 1103.8 155 1102.96 C154.99 1102.11 154.98 1101.26 154.97 1100.39 C154.97 1099.11 154.97 1099.11 154.96 1097.8 C154.95 1095.68 154.93 1093.57 154.91 1091.45 C149.64 1089.85 144.34 1088.63 138.96 1087.45 C87.69 1076.08 87.69 1076.08 73.91 1056.45 C71.41 1050.98 70.89 1045.71 72.68 1040 C78.82 1025.84 94.34 1019.92 107.77 1014.43 C120.25 1009.64 131.93 1008.42 145.25 1008.54 C148.51 1008.43 151.68 1007.93 154.91 1007.45 C154.92 1006.37 154.93 1005.3 154.94 1004.19 C155.04 994.08 155.14 983.97 155.25 973.86 C155.3 968.66 155.36 963.47 155.41 958.27 C155.46 953.26 155.51 948.24 155.56 943.23 C155.58 941.32 155.6 939.4 155.62 937.48 C155.64 934.81 155.67 932.13 155.7 929.46 C155.71 928.66 155.72 927.86 155.72 927.03 C155.8 921.56 155.8 921.56 156.91 920.45 C159.91 920.32 159.91 920.32 162.91 920.45 C164.53 922.06 164.11 923.88 164.19 926.11 C164.23 927.07 164.27 928.03 164.3 929.02 C164.34 930.02 164.37 931.03 164.41 932.07 C164.63 938.27 164.88 944.33 165.91 950.45 C166.79 949.87 166.79 949.87 167.68 949.27 C175.85 943.95 184.31 939.26 192.86 934.6 C195.24 933.26 197.57 931.86 199.91 930.45 C189.17 881.97 178.37 833.51 167.48 785.07 C166.45 780.51 165.43 775.95 164.4 771.39 C164.02 769.68 164.02 769.68 163.62 767.93 C160.16 752.54 156.73 737.14 153.31 721.74 C150.83 710.53 148.33 699.31 145.83 688.1 C144.16 680.63 142.51 673.16 140.86 665.69 C139.6 659.98 138.33 654.29 137.06 648.59 C136.53 646.23 136.01 643.88 135.5 641.52 C134.79 638.31 134.07 635.09 133.35 631.88 C133.14 630.93 132.94 629.98 132.73 629 C132.53 628.14 132.34 627.29 132.13 626.41 C131.97 625.66 131.8 624.92 131.63 624.15 C131.4 623.59 131.16 623.03 130.91 622.45 C129.92 622.12 128.93 621.79 127.91 621.45 Z M393.21 655.39 C387.41 663.76 384.97 672.7 386.34 682.86 C388.1 690.87 392.3 699.13 399.06 704 C401.64 705.55 404.27 707 406.91 708.45 C422.9 717.7 422.9 717.7 428.39 725.57 C432.76 731.81 437.2 734.77 444.04 737.95 C445.91 738.88 447.79 739.81 449.66 740.75 C450.56 741.21 451.46 741.66 452.39 742.13 C457.94 745.04 462.93 748.66 467.91 752.45 C468.88 753.17 469.86 753.88 470.86 754.62 C480.88 762.33 488.97 771.93 490.85 784.7 C491.4 792.87 488.69 799.87 483.33 806.01 C473.98 815.45 459.74 821.25 446.89 823.62 C429.39 826.73 429.39 826.73 416.13 837.73 C411.56 846.82 413.01 858.61 413.54 868.49 C414.32 883.02 413.78 898.72 403.91 910.45 C398.37 915.83 392.95 918.11 385.22 918.76 C366.21 918.1 349.98 905.78 337.22 892.64 C334.31 889.99 334.31 889.99 330.54 889.49 C329.26 889.79 329.26 889.79 327.96 890.09 C326.99 890.31 326.02 890.52 325.02 890.74 C323.99 890.97 322.97 891.21 321.91 891.45 C319.8 891.86 317.68 892.27 315.56 892.67 C313.92 892.98 313.92 892.98 312.25 893.3 C302.26 895.2 292.35 896.99 282.2 897.82 C278.66 898.13 276.95 898.42 273.91 900.45 C273.03 902.21 273.03 902.21 272.49 904.26 C272.27 905 272.05 905.75 271.82 906.52 C271.6 907.3 271.38 908.08 271.16 908.89 C270.81 910.05 270.81 910.05 270.45 911.24 C269.02 915.82 269.02 915.82 269.91 920.45 C270.87 920.6 271.83 920.74 272.81 920.89 C293.7 924.32 314.01 932.15 329.91 946.45 C330.83 947.26 331.75 948.08 332.7 948.91 C338.93 954.47 338.93 954.47 340.91 956.45 C349.12 956.1 356.5 953.58 364.22 950.95 C364.88 950.73 365.55 950.5 366.23 950.27 C377.8 946.36 388.98 941.9 399.91 936.45 C400.73 936.04 401.55 935.63 402.4 935.21 C412.33 930.24 421.89 924.97 430.91 918.45 C431.52 918.01 432.14 917.57 432.77 917.11 C441.45 910.86 449.69 904.38 457.38 896.93 C458.44 895.9 459.51 894.88 460.59 893.86 C484.21 871.55 501.22 843.1 508.91 811.45 C509.09 810.72 509.27 810 509.45 809.25 C518.32 770.91 510.57 727.46 490.1 694.14 C485.35 686.67 479.87 679.97 473.91 673.45 C473.23 672.7 472.56 671.95 471.86 671.18 C462.72 661.57 451.58 654.56 439.91 648.45 C438.43 647.65 438.43 647.65 436.92 646.84 C421.72 639.51 404.53 642.46 393.21 655.39 Z M20.12 678.21 C18.94 678.58 17.77 678.96 16.56 679.34 C15.93 679.55 15.31 679.75 14.67 679.95 C-17.03 690.09 -49.81 697.25 -83.09 699.45 C-83.87 699.5 -84.65 699.56 -85.46 699.62 C-143.02 703.53 -199.3 694.99 -254.09 677.45 C-268.23 690.76 -279.64 705.5 -289.09 722.45 C-289.65 723.42 -289.65 723.42 -290.21 724.42 C-305.8 751.77 -315.23 783.9 -316.09 815.45 C-316.11 816.15 -316.13 816.86 -316.15 817.58 C-317.29 862.85 -305.12 908.69 -278.09 945.45 C-277.69 946 -277.29 946.55 -276.88 947.12 C-270.96 955.26 -264.43 962.74 -257.47 970 C-256.24 971.29 -255.03 972.58 -253.82 973.88 C-219.13 1010.05 -167.11 1030.23 -117.62 1031.63 C-61.17 1032.62 -9.69 1011.05 30.97 972.32 C66 938.35 90.23 887.35 91.13 838.15 C91.14 837.06 91.14 837.06 91.15 835.95 C91.16 834.78 91.16 834.78 91.18 833.58 C91.76 775.31 73.53 722.95 32.91 680.45 C32.21 679.68 31.5 678.9 30.78 678.11 C27.36 675.07 24.07 676.93 20.12 678.21 Z M439.91 747.45 C440.12 748.25 440.32 749.05 440.53 749.88 C446.02 773.05 443.98 794.48 434.91 816.45 C450.53 812.9 468.11 808.64 478.62 795.59 C481.2 791.3 481.36 787.31 480.6 782.45 C478.68 775.85 473.65 771.19 468.91 766.45 C468.29 765.83 467.67 765.21 467.04 764.57 C461 758.95 453.9 754.76 446.91 750.45 C445.99 749.87 445.06 749.28 444.11 748.68 C442.04 747.29 442.04 747.29 439.91 747.45 Z M399.04 856.76 C383.37 869.37 363.71 878.54 344.91 885.45 C348.07 889.81 351.6 892.77 355.91 895.89 C356.57 896.37 357.23 896.85 357.91 897.34 C367.39 904.09 376.95 909.61 388.91 908.45 C394.33 906.23 397.77 902.05 400.08 896.79 C402.97 889.03 404.13 881.99 404.54 873.76 C404.58 872.87 404.63 871.98 404.67 871.06 C404.93 865.08 404.8 859.39 403.91 853.45 C402 853.45 400.39 855.59 399.04 856.76 Z M224.91 900.95 C222.96 901 221.01 901.05 219.06 901.09 C214.34 901.21 209.63 901.33 204.91 901.45 C205.39 907.7 206.23 913.56 207.97 919.57 C208.16 920.24 208.35 920.91 208.54 921.61 C208.99 923.22 209.45 924.84 209.91 926.45 C211.29 926.18 212.66 925.91 214.04 925.64 C215.42 925.36 215.42 925.36 216.84 925.09 C218.88 924.66 220.92 924.21 222.95 923.72 C231.25 921.77 239.41 920.79 247.89 920.1 C248.76 920.02 249.62 919.95 250.52 919.88 C251.29 919.82 252.07 919.76 252.86 919.7 C255.11 919.49 255.11 919.49 257.91 918.45 C258.96 915.98 259.81 913.63 260.6 911.07 C260.82 910.39 261.05 909.7 261.28 909 C262.22 906.04 262.91 903.57 262.91 900.45 C250.24 900.37 237.58 900.63 224.91 900.95 Z M-521.09 934.45 C-522.19 934.8 -523.3 935.15 -524.43 935.51 C-550.58 944.65 -571.72 963.75 -584.09 988.45 C-598.76 1019.51 -601.69 1056.19 -593.09 1089.45 C-592.77 1090.72 -592.77 1090.72 -592.44 1092.01 C-589.23 1104.39 -584.69 1115.97 -579.09 1127.45 C-578.78 1128.1 -578.47 1128.74 -578.15 1129.41 C-570.7 1144.72 -560.79 1158.13 -549.09 1170.45 C-547.92 1171.82 -546.75 1173.19 -545.59 1174.57 C-521.99 1201.52 -485.44 1218.43 -450.09 1221.45 C-441.61 1221.97 -433.58 1221.42 -425.21 1220.14 C-424.44 1220.02 -423.67 1219.9 -422.87 1219.78 C-417.26 1218.84 -412.61 1217.29 -407.09 1215.45 C-407.42 1205.55 -407.75 1195.65 -408.09 1185.45 C-411.72 1186.44 -415.35 1187.43 -419.09 1188.45 C-440.34 1193.98 -462.46 1189.52 -481.27 1178.6 C-488.16 1174.19 -494.19 1169.1 -500.09 1163.45 C-501.12 1162.51 -501.12 1162.51 -502.17 1161.56 C-521.3 1143.6 -531.59 1116.11 -532.99 1090.38 C-533.56 1068.3 -527.51 1046.75 -512.09 1030.45 C-499.24 1017.47 -482.32 1011.29 -464.21 1011.14 C-443.12 1011.08 -425.35 1019.9 -408.09 1031.45 C-407.74 1021.97 -407.48 1012.5 -407.31 1003.02 C-407.23 998.62 -407.13 994.22 -406.96 989.82 C-406.79 985.57 -406.71 981.32 -406.67 977.06 C-406.64 975.44 -406.59 973.83 -406.5 972.21 C-405.92 963.44 -405.92 963.44 -409.56 955.79 C-413.67 952.3 -418.28 949.83 -423.09 947.45 C-424.61 946.61 -426.12 945.77 -427.64 944.93 C-428.89 944.34 -430.14 943.76 -431.4 943.2 C-432.1 942.88 -432.79 942.56 -433.51 942.24 C-441.5 938.69 -449.68 935.84 -458.09 933.45 C-459.29 933.11 -460.49 932.77 -461.73 932.41 C-480.62 928.02 -502.65 928.25 -521.09 934.45 Z M220.91 934.45 C220.14 934.69 219.37 934.92 218.58 935.16 C200.59 940.89 183.67 949.65 168.91 961.45 C167.85 962.27 167.85 962.27 166.76 963.1 C164.19 966.36 164.38 969.27 164.46 973.25 C164.46 974.03 164.45 974.81 164.45 975.61 C164.46 978.19 164.49 980.76 164.52 983.34 C164.53 985.13 164.53 986.92 164.54 988.7 C164.55 993.41 164.59 998.11 164.64 1002.81 C164.68 1007.61 164.69 1012.41 164.71 1017.21 C164.76 1026.62 164.83 1036.04 164.91 1045.45 C166.01 1044.52 167.11 1043.59 168.21 1042.66 C169.13 1041.88 169.13 1041.88 170.07 1041.09 C171.84 1039.51 173.44 1037.87 175.04 1036.14 C190.74 1020.36 213.39 1011.2 235.47 1010.95 C254.48 1011.15 271.22 1018.08 284.91 1031.45 C302.04 1051.23 305.02 1074.26 303.91 1099.45 C301.63 1126.18 285.64 1152.01 265.91 1169.45 C247.01 1184.64 224.22 1192.87 199.91 1190.45 C189.03 1188.89 177.46 1184.4 168.64 1177.73 C167 1176.25 167 1176.25 164.91 1176.45 C164.91 1188.33 164.91 1200.21 164.91 1212.45 C198.62 1224.76 230.69 1223.72 263.76 1209.2 C280.33 1201.47 294.75 1191.09 307.91 1178.45 C308.65 1177.76 308.65 1177.76 309.4 1177.06 C340.34 1148 362.28 1104.17 364.03 1061.42 C364.89 1025.72 358.27 990.25 332.85 963.5 C331.54 962.15 330.22 960.8 328.91 959.45 C328.34 958.81 327.77 958.16 327.18 957.5 C312.84 941.72 287.84 931.46 266.78 930.27 C251.12 929.99 236.01 929.78 220.91 934.45 Z M-393.09 1019.45 C-393.09 1039.25 -393.09 1059.05 -393.09 1079.45 C-384.36 1078.11 -376.21 1076.66 -367.78 1074.26 C-366.7 1073.96 -365.62 1073.65 -364.5 1073.33 C-349.82 1069.05 -334.17 1063.55 -324.09 1051.45 C-322.8 1047.8 -322.87 1046.12 -324.09 1042.45 C-330 1033.58 -339.65 1029.63 -349.09 1025.45 C-349.77 1025.14 -350.46 1024.83 -351.16 1024.51 C-365.7 1018.12 -376.15 1019.45 -393.09 1019.45 Z M104.91 1026.45 C103.16 1027.18 103.16 1027.18 101.37 1027.93 C94.24 1031.15 85.53 1036.21 81.91 1043.45 C81.22 1047.57 81.94 1050.01 84.22 1053.39 C98.02 1070.23 128.42 1075.96 148.91 1079.45 C149.9 1079.45 150.89 1079.45 151.91 1079.45 C151.91 1059.65 151.91 1039.85 151.91 1019.45 C126.97 1019.22 126.97 1019.22 104.91 1026.45 Z M-506.09 1039.45 C-506.96 1040.3 -506.96 1040.3 -507.84 1041.16 C-519.51 1053.62 -523.43 1072.39 -523.24 1088.93 C-522.04 1117.27 -509 1141.89 -488.34 1161.07 C-479.68 1168.36 -469.7 1173.64 -459.09 1177.45 C-458.26 1177.77 -457.42 1178.09 -456.56 1178.42 C-444.62 1182.39 -428.77 1182.16 -417.09 1177.45 C-415.52 1176.61 -413.96 1175.75 -412.41 1174.88 C-411.6 1174.42 -410.79 1173.97 -409.96 1173.5 C-409.34 1173.16 -408.73 1172.81 -408.09 1172.45 C-407.83 1156.05 -407.64 1139.64 -407.52 1123.24 C-407.46 1115.62 -407.39 1108.01 -407.26 1100.39 C-407.15 1093.75 -407.08 1087.11 -407.05 1080.46 C-407.04 1076.95 -407.01 1073.44 -406.93 1069.92 C-406.84 1065.99 -406.84 1062.06 -406.84 1058.13 C-406.8 1056.97 -406.76 1055.82 -406.72 1054.63 C-406.79 1049.55 -407.04 1046.62 -410.5 1042.75 C-413.27 1040.46 -416.08 1038.42 -419.09 1036.45 C-419.72 1036 -420.34 1035.55 -420.99 1035.09 C-448.19 1015.96 -482.03 1015.8 -506.09 1039.45 Z M185.91 1040.45 C185.11 1041.1 184.32 1041.76 183.5 1042.43 C176.42 1048.44 169.12 1056.04 164.91 1064.45 C164.77 1067.43 164.7 1070.38 164.67 1073.36 C164.66 1074.29 164.64 1075.21 164.63 1076.16 C164.5 1085.83 164.45 1095.5 164.4 1105.18 C164.37 1109.76 164.32 1114.35 164.25 1118.94 C164.17 1124.48 164.13 1130.02 164.11 1135.56 C164.1 1137.67 164.07 1139.78 164.03 1141.89 C163.43 1153.08 163.43 1153.08 166.64 1163.48 C168.63 1165.52 170.48 1166.98 172.91 1168.45 C174.46 1169.63 174.46 1169.63 176.04 1170.84 C190.65 1179.91 205.97 1182.84 222.89 1179.82 C236.13 1176.7 248.71 1170.45 258.91 1161.45 C259.71 1160.8 260.5 1160.14 261.32 1159.47 C276.83 1146.31 286.52 1128.87 291.91 1109.45 C292.1 1108.79 292.28 1108.14 292.47 1107.46 C297.46 1087.96 294.88 1065.82 284.89 1048.45 C275.68 1034.48 263.32 1025.73 247.05 1021.84 C225.2 1017.8 202.29 1025.99 185.91 1040.45 Z M-393.09 1121.45 C-393.09 1142.9 -393.09 1164.35 -393.09 1186.45 C-385.19 1185.74 -385.19 1185.74 -377.64 1184.25 C-376.72 1184.01 -375.8 1183.78 -374.84 1183.53 C-373.89 1183.28 -372.94 1183.02 -371.96 1182.76 C-370.46 1182.36 -370.46 1182.36 -368.93 1181.96 C-343.23 1175.23 -343.23 1175.23 -323.87 1158.45 C-322.61 1155.2 -323.27 1152.78 -324.09 1149.45 C-337.3 1130.42 -370.07 1125.62 -391.09 1121.45 C-391.75 1121.45 -392.41 1121.45 -393.09 1121.45 Z M85.36 1145.77 C82.8 1148.73 81.92 1150.76 81.85 1154.7 C84 1162.29 88.91 1166.11 95.57 1169.91 C108.44 1176.85 122.01 1180.87 136.16 1184.32 C137.04 1184.54 137.92 1184.76 138.83 1184.98 C139.67 1185.17 140.5 1185.37 141.36 1185.57 C142.1 1185.74 142.83 1185.91 143.59 1186.09 C146.51 1186.6 146.51 1186.6 151.91 1186.45 C151.91 1165 151.91 1143.55 151.91 1121.45 C131.18 1121.45 100.81 1131.7 85.36 1145.77 Z " fill="#020202" transform="translate(608.08984375,15.55078125)"/>
<path d="M0 0 C1.54 0.22 3.09 0.43 4.63 0.63 C35.5 4.54 68.36 17.22 94.28 34.33 C94.87 34.72 95.46 35.11 96.07 35.51 C104.69 41.25 112.38 47.7 119.81 54.91 C121.17 56.22 122.55 57.51 123.93 58.79 C141.97 75.94 153.46 98.32 159.28 122.33 C159.55 123.35 159.81 124.36 160.08 125.41 C166.19 153.85 158.42 185.74 143.17 210.11 C137.38 218.95 130.62 226.75 123.28 234.33 C122.47 235.2 121.66 236.06 120.82 236.95 C84.13 275.07 27.53 291.27 -23.96 292.4 C-75.64 292.76 -129.87 277.54 -168.72 242.33 C-170.16 241.08 -170.16 241.08 -171.64 239.81 C-178.09 234.16 -183.53 228.15 -188.72 221.33 C-189.94 219.78 -189.94 219.78 -191.18 218.19 C-206.99 197.54 -215.13 172.66 -215.09 146.77 C-215.09 146.11 -215.09 145.45 -215.09 144.77 C-215.05 133.8 -214.11 123.77 -210.72 113.33 C-210.5 112.66 -210.29 111.98 -210.07 111.28 C-199.9 79.99 -177.38 52.93 -149.72 35.33 C-149.05 34.91 -148.38 34.48 -147.7 34.05 C-142.8 30.97 -137.8 28.09 -132.72 25.33 C-131.78 24.82 -131.78 24.82 -130.82 24.3 C-116 16.38 -99.65 11.52 -83.72 6.33 C-82.8 6.03 -81.88 5.73 -80.94 5.42 C-74.64 3.42 -68.3 2.25 -61.78 1.21 C-60.77 1.04 -59.76 0.87 -58.73 0.7 C-39.31 -2.47 -19.48 -2.88 0 0 Z M-81.4 18.08 C-83.39 21.49 -82.62 23.54 -81.72 27.33 C-80.22 30.02 -78.38 32.37 -76.47 34.77 C-75.93 35.46 -75.4 36.15 -74.85 36.86 C-73.16 39.03 -71.44 41.18 -69.72 43.33 C-68.89 44.36 -68.89 44.36 -68.05 45.4 C-65.35 48.77 -62.62 52.11 -59.88 55.45 C-56.86 59.14 -53.9 62.88 -50.97 66.65 C-50.07 67.78 -49.17 68.92 -48.28 70.06 C-46.6 72.2 -44.93 74.35 -43.28 76.51 C-37.61 83.86 -37.61 83.86 -29.72 88.33 C-23.91 88.74 -20.33 86.83 -15.72 83.33 C-13.91 81.28 -12.27 79.27 -10.65 77.08 C-9.7 75.83 -8.74 74.57 -7.78 73.32 C-7.28 72.67 -6.78 72.02 -6.27 71.34 C-3.63 67.93 -0.89 64.61 1.85 61.27 C7.02 54.92 12.12 48.54 17.04 41.98 C17.91 40.83 18.79 39.67 19.68 38.53 C21.11 36.68 22.51 34.82 23.91 32.96 C24.35 32.4 24.79 31.84 25.24 31.26 C27.38 28.36 28.3 26.25 28.87 22.67 C28.6 19.23 28.6 19.23 26.12 17.22 C23.05 15.18 20.88 14.52 17.28 13.88 C16.12 13.68 14.97 13.47 13.78 13.25 C12.59 13.05 11.39 12.85 10.16 12.65 C8.99 12.43 7.81 12.22 6.6 12 C-18.52 7.58 -58.99 3.49 -81.4 18.08 Z M-131.72 37.33 C-132.34 37.67 -132.96 38 -133.6 38.35 C-164.99 55.56 -189.68 83.1 -200.72 117.33 C-208.67 145.02 -204.49 173.57 -190.71 198.56 C-169.65 235.96 -132.08 260.39 -91.54 272.25 C-33.52 288.42 27.69 282.98 80.78 253.93 C92.71 247.19 103.12 238.47 113.28 229.33 C113.96 228.73 114.64 228.13 115.33 227.51 C135.23 208.7 149.45 180.64 150.63 153.16 C150.9 141.57 150.47 130.53 147.28 119.33 C146.96 118.13 146.63 116.93 146.29 115.69 C135.81 81.03 108.16 53.61 76.95 36.62 C65.41 30.53 53.59 25.62 41.28 21.33 C38.99 23.63 38.93 24.55 38.28 27.65 C36.34 34.42 32.08 39.29 27.68 44.63 C25.85 46.86 24.08 49.14 22.31 51.42 C16.75 58.58 11.03 65.6 5.3 72.63 C2.79 75.7 0.31 78.79 -2.15 81.9 C-2.77 82.66 -3.39 83.43 -4.03 84.22 C-5.11 85.57 -6.16 86.93 -7.18 88.32 C-10.03 92.01 -12.68 94.01 -16.91 96.03 C-17.81 96.47 -18.71 96.9 -19.64 97.35 C-20.32 97.68 -21.01 98 -21.72 98.33 C-21.79 104.24 -21.84 110.14 -21.88 116.05 C-21.9 118.05 -21.92 120.05 -21.94 122.06 C-22.16 139.12 -21.53 153.6 -9.72 167.02 C-0.34 175.89 11.62 178.84 24.1 178.61 C33.54 178.18 41.32 174.59 48.28 168.33 C48.9 167.81 49.52 167.28 50.15 166.74 C57.2 160.32 61.49 151.32 62.57 141.85 C62.52 139.24 62.52 139.24 60.64 137.52 C59.92 136.99 59.21 136.45 58.47 135.9 C54.96 133.04 52.78 130.72 51.28 126.33 C51.61 125.34 51.94 124.35 52.28 123.33 C54.78 122.4 54.78 122.4 58.28 122.33 C61.33 124.23 63.73 126.83 66.28 129.33 C67.36 130.33 68.43 131.31 69.51 132.3 C72.79 135.29 76.05 138.29 79.28 141.33 C80.23 142.22 81.18 143.11 82.15 144.03 C84.28 146.33 84.28 146.33 84.72 149.02 C84.28 151.33 84.28 151.33 82.28 153.33 C79.05 153.13 76.99 152.96 74.53 150.77 C74.12 150.3 73.71 149.82 73.28 149.33 C72.62 149.33 71.96 149.33 71.28 149.33 C71.08 150 70.87 150.67 70.66 151.35 C65.78 165.92 58 176.2 44.22 183.21 C36.51 187.01 29.53 188.71 20.97 188.65 C20.23 188.64 19.49 188.63 18.72 188.63 C12.54 188.49 7.07 187.61 1.28 185.33 C0.31 184.95 -0.66 184.58 -1.67 184.18 C-12.07 179.57 -20.85 171.76 -25.72 161.33 C-26.38 161.33 -27.04 161.33 -27.72 161.33 C-28.84 162.81 -29.89 164.34 -30.9 165.9 C-39.45 178.34 -50.75 185.43 -65.72 188.33 C-80.52 189.99 -94.32 186.78 -106.72 178.33 C-116.64 170.33 -122.85 159.69 -125.72 147.33 C-126.22 147.77 -126.73 148.2 -127.25 148.65 C-132.95 153.25 -132.95 153.25 -137.22 153.71 C-138.45 153.52 -138.45 153.52 -139.72 153.33 C-140.35 149.55 -140.52 147.48 -138.27 144.27 C-136.18 142.03 -134.01 139.93 -131.78 137.83 C-131.04 137.11 -130.31 136.39 -129.55 135.65 C-125.81 132.04 -121.95 128.57 -117.96 125.24 C-117.27 124.65 -116.57 124.07 -115.85 123.47 C-113.72 122.33 -113.72 122.33 -111.01 122.59 C-108.72 123.33 -108.72 123.33 -107.72 124.33 C-107.4 126.66 -107.4 126.66 -107.72 129.33 C-109.47 131.25 -109.47 131.25 -111.72 133.08 C-114.6 135.83 -116.33 137.52 -116.53 141.58 C-115.46 152.28 -109.5 162.56 -101.29 169.34 C-90.16 177.43 -79.3 179.54 -65.72 178.33 C-55.14 176.15 -45.48 169.81 -39.36 160.9 C-31.32 148.35 -31.94 136.08 -31.9 121.58 C-31.88 119.33 -31.85 117.07 -31.83 114.81 C-31.76 109.32 -31.73 103.83 -31.72 98.33 C-32.75 97.84 -32.75 97.84 -33.8 97.33 C-34.7 96.89 -35.6 96.45 -36.53 96 C-37.42 95.56 -38.32 95.13 -39.24 94.68 C-42.52 92.89 -44.71 90.72 -47.15 87.9 C-47.6 87.38 -48.06 86.87 -48.52 86.33 C-53.34 80.76 -57.86 74.94 -62.35 69.1 C-64.12 66.81 -65.9 64.55 -67.69 62.28 C-69.04 60.56 -70.39 58.84 -71.74 57.12 C-73.93 54.32 -76.15 51.54 -78.38 48.77 C-79.64 47.18 -80.9 45.6 -82.15 44.02 C-82.74 43.29 -83.34 42.56 -83.95 41.81 C-88.76 35.73 -92.71 29.16 -93.72 21.33 C-105.46 21.33 -121.48 31.73 -131.72 37.33 Z " fill="#020202" transform="translate(522.7158203125,377.6669921875)"/>
<path d="M0 0 C15.48 12.02 25.87 27.9 28.47 47.57 C30.21 66.98 25 84.03 13.12 99.43 C5.24 108.86 -6.79 117.51 -19 120.12 C-22 120 -22 120 -24.01 118.27 C-25.89 116.12 -27.36 114.06 -28.81 111.61 C-29.32 110.77 -29.84 109.92 -30.36 109.05 C-30.9 108.14 -31.44 107.24 -32 106.31 C-43.59 87.32 -56.67 69.7 -71.8 53.38 C-73.75 51.27 -75.63 49.12 -77.5 46.94 C-82.54 41.13 -88.05 35.68 -93.74 30.51 C-96.16 27.82 -96.95 26.59 -97 23 C-90.35 7.75 -74.83 -2.29 -60 -8.2 C-40.03 -14.94 -17.39 -11.82 0 0 Z M-82.29 20.78 C-82.86 21.51 -83.42 22.25 -84 23 C-82.55 26.35 -80.72 28.5 -78.11 31.05 C-77.34 31.81 -76.57 32.57 -75.77 33.36 C-74.96 34.15 -74.15 34.94 -73.31 35.75 C-67.63 41.31 -62.13 46.92 -57 53 C-56.49 53.61 -55.98 54.21 -55.45 54.83 C-41.41 71.6 -29.26 89.27 -18 108 C-5.66 104.43 4.43 94.59 10.65 83.6 C18.55 68.35 19.9 53.45 15 37 C8.76 21.37 -1.33 10.64 -16.47 3.32 C-40.28 -5.87 -66.12 1.16 -82.29 20.78 Z " fill="#020202" transform="translate(853,82)"/>
<path d="M0 0 C6.65 5.15 14.15 11.43 18 19 C18.19 21.69 18.19 21.69 17 24 C15.36 25.69 13.69 27.36 12 29 C11.07 29.92 10.14 30.83 9.19 31.78 C8.7 32.26 8.21 32.75 7.7 33.25 C5.47 35.46 3.24 37.67 1.01 39.88 C-0.15 41.03 -1.32 42.19 -2.49 43.34 C-9.82 50.57 -16.62 57.9 -23 66 C-23.98 67.17 -24.96 68.35 -25.94 69.51 C-37.43 83.34 -47.03 98.59 -56.54 113.81 C-58 116 -58 116 -60 118 C-65.47 117.78 -69.35 116.06 -73.81 113.06 C-74.42 112.66 -75.02 112.26 -75.65 111.84 C-90.76 101.51 -100.76 86.31 -104.59 68.44 C-107.86 49.18 -103.11 30.88 -91.9 15.03 C-69.92 -13.2 -29.86 -20.13 0 0 Z M-82.01 20.2 C-92.92 33.4 -95.35 48.41 -94 65 C-92.02 79.13 -83.65 92.06 -72.6 100.93 C-69.42 103.18 -69.42 103.18 -66 105 C-61.82 103.61 -60.75 100.68 -58.62 97.06 C-46.91 77.75 -32.86 59.94 -17.4 43.5 C-15.91 41.9 -14.43 40.28 -12.96 38.65 C-7.28 32.38 -1.51 26.44 5 21 C1.22 12.34 -9.02 6.44 -17.46 3 C-41.59 -5.3 -64.99 1.62 -82.01 20.2 Z " fill="#020202" transform="translate(216,82)"/>
<path d="M0 0 C8.63 5.19 12.99 12.34 15.44 22 C16.32 29.17 14.07 35.97 10.69 42.25 C4.3 50.06 -2.99 54.19 -13.12 55.44 C-22.54 54.24 -30.31 51.33 -36.36 43.75 C-42.08 35.48 -42.31 27.88 -41.56 18 C-40.69 14.91 -39.45 12.58 -37.56 10 C-36.82 8.95 -36.08 7.9 -35.31 6.81 C-26.24 -2.47 -12.04 -5.54 0 0 Z " fill="#020202" transform="translate(747.5625,352)"/>
<path d="M0 0 C6.28 4.76 11.81 10.73 13.22 18.68 C14.34 28.61 12.84 35.85 6.61 43.71 C0.6 50.21 -6.23 53.24 -14.97 53.93 C-25.31 53.25 -31.91 49.46 -38.78 41.68 C-43.83 33.96 -44.77 26.3 -43.43 17.31 C-41.39 9.66 -35.99 3.78 -29.72 -0.84 C-20.82 -5.61 -8.6 -5.07 0 0 Z " fill="#020202" transform="translate(272.78125,353.3203125)"/>
<path d="M0 0 C1.76 -0.01 1.76 -0.01 3.56 -0.02 C10.49 0.78 14.26 4.16 18.52 9.34 C22.69 15.07 22.72 21.54 22 28.38 C20.04 37.02 16.1 43.92 8.69 48.94 C2.6 52.46 -2.87 54.26 -10 53.38 C-16.62 51.51 -21.31 48.2 -25 42.38 C-28.51 35.29 -28.26 26.4 -25.94 18.97 C-20.9 8.12 -12.49 -0.08 0 0 Z M-9.98 15.25 C-14.3 20.09 -16.14 23.2 -16.19 29.81 C-16.2 30.76 -16.22 31.71 -16.23 32.68 C-15.9 36.59 -14.86 38.62 -11.94 41.19 C-7.68 42.91 -4.36 42.8 0 41.38 C5.05 38.18 9.19 34.15 11 28.38 C11.66 23.28 11.56 19.54 9.31 14.88 C6.9 12.26 5.42 11.25 2 10.38 C-2.91 10.38 -6.46 11.91 -9.98 15.25 Z " fill="#020202" transform="translate(910,983.625)"/>
<path d="M0 0 C6.5 5.44 10.18 11.09 11.01 19.52 C11.31 28.69 9.98 36.25 4.31 43.62 C-1.2 49.14 -5.83 51.39 -13.56 51.56 C-20.48 51.49 -23.85 50.5 -28.96 45.71 C-35.72 38.52 -36.89 31.46 -36.67 21.73 C-35.96 14.81 -33.43 8.09 -28.31 3.25 C-18.67 -3.43 -10.84 -5.73 0 0 Z M-20.78 11.68 C-25.4 17.06 -25.66 21.38 -25.59 28.23 C-25.18 32.7 -24.14 34.75 -21.31 38.25 C-18.1 40.49 -16.23 41.25 -12.31 41.25 C-7.42 39.62 -4.45 36.81 -1.44 32.69 C0.43 26.97 0.8 20.82 -1 15.02 C-3.17 10.75 -5.89 8.85 -10.31 7.25 C-14.57 7.25 -17.7 8.68 -20.78 11.68 Z " fill="#020202" transform="translate(862.3125,970.75)"/>
<path d="M0 0 C7.25 4.25 12.05 10.54 14.89 18.38 C16.9 26.33 16.34 34.79 12.59 42.12 C8.36 48.58 3.31 52.21 -4.23 54.06 C-10.68 54.56 -17 52.54 -22.16 48.69 C-28.24 42.79 -31.62 35.45 -32.03 27.03 C-32.09 17.77 -30.36 11.02 -23.98 4.19 C-17.76 -1.91 -8.07 -2.93 0 0 Z M-18.41 14.12 C-21.37 20 -21.87 24.77 -20.41 31.12 C-18.51 36.24 -15.91 39.04 -11.41 42.12 C-7.76 43.34 -5.98 43.3 -2.29 42.19 C1.59 39.4 3.22 36.67 4.59 32.12 C5.65 25.3 4.55 19.79 0.59 14.12 C-1.68 11.54 -3.16 10.34 -6.56 9.75 C-11.71 9.48 -14.98 9.98 -18.41 14.12 Z " fill="#020202" transform="translate(146.4140625,968.875)"/>
<path d="M0 0 C7.5 4.4 12.59 9.93 15.25 18.32 C16.23 24.6 15.73 30.07 12.51 35.6 C8.99 40.38 4.05 44 -1.75 45.32 C-10.28 46.16 -17.36 45.8 -24.75 41.32 C-25.38 40.98 -26 40.64 -26.64 40.29 C-32.45 36.74 -36.4 30.7 -38.39 24.23 C-39.67 17.44 -38.7 12.7 -35.45 6.66 C-27.4 -4.43 -11.73 -5.53 0 0 Z M-26.25 12.44 C-28.11 15.99 -28.14 18.14 -27.49 22.04 C-25.85 27.11 -22.32 30.16 -18.13 33.25 C-12.29 35.09 -5.62 35.71 -0.01 32.98 C2.57 31.08 4.05 29.5 4.58 26.27 C4.68 20.76 4.03 17.6 0.25 13.32 C-7.92 6.15 -18.06 5.48 -26.25 12.44 Z " fill="#020202" transform="translate(61.75390625,1041.68359375)"/>
<path d="M0 0 C7.81 4.76 13.53 11.63 16.2 20.38 C17.76 28.15 17.23 35.36 13.32 42.3 C9.65 47.06 4.55 50.38 -1.38 51.5 C-9.47 52.13 -15.77 50.15 -22.06 45.06 C-28.97 38.41 -32.67 30.99 -33.06 21.38 C-32.68 13.76 -30.81 8.12 -25.53 2.55 C-18.45 -3.13 -8.26 -3.62 0 0 Z M-18.38 11.5 C-22.1 15.54 -22 19.08 -21.85 24.39 C-21.08 29.46 -18.97 32.9 -15.38 36.5 C-11.84 39.09 -8.55 40.29 -4.25 41.06 C-0.09 40.25 1.63 38.5 4.62 35.5 C6.47 29.98 6.44 24.59 4 19.25 C0.97 13.88 -3.38 10.24 -9.38 8.5 C-13.73 8.5 -14.94 9.03 -18.38 11.5 Z " fill="#020202" transform="translate(88.375,985.5)"/>
<path d="M0 0 C6.16 3.86 10.47 8.72 12.12 15.88 C12.98 22.97 11.7 28.27 7.68 34.17 C1.62 41.52 -4.71 45.83 -14.25 46.93 C-21.36 47.17 -27.83 47.16 -33.5 42.5 C-39.11 37.04 -41.64 33.28 -41.81 25.31 C-41.72 17.23 -39.67 12.63 -34.25 6.75 C-25.59 -1.42 -11.19 -5.01 0 0 Z M-25.88 13.75 C-29.63 17.68 -31.5 21.13 -31.5 26.62 C-30.18 30.43 -28.7 32.05 -25.5 34.5 C-20.78 36.63 -16.46 36.92 -11.52 35.39 C-6.44 33.16 -1.92 30.08 0.56 25 C1.59 21.17 1.8 19.24 0.5 15.5 C-2.68 11.12 -5.91 9.5 -11.1 8.59 C-16.63 8.38 -21.49 10.49 -25.88 13.75 Z " fill="#020202" transform="translate(952.5,1040.5)"/>
</svg>
