<?xml version="1.0" encoding="iso-8859-1"?>
<!-- Generator: Adobe Illustrator 26.0.3, SVG Export Plug-In . SVG Version: 6.00 Build 0)  -->
<svg version="1.1" id="Layer_25" xmlns="http://www.w3.org/2000/svg" xmlns:xlink="http://www.w3.org/1999/xlink" x="0px" y="0px"
	 width="324.689px" height="495.727px" viewBox="0 0 324.689 495.727" enable-background="new 0 0 324.689 495.727"
	 xml:space="preserve">
<path d="M175.313,430.161c1.503,19.235,4.433,38.381,3.674,57.759c-0.053,1.348,0.034,2.724-0.214,4.036
	c-0.454,2.406-2.372,3.89-4.563,3.764c-2.159-0.124-4.012-1.858-4.343-4.116c-0.077-0.528-0.038-1.076-0.017-1.614
	c0.523-13.117-0.127-26.182-1.62-39.217c-1.69-14.75-3.25-29.515-5.427-44.206c-0.683-4.61-0.618-4.588-5.414-4.521
	c-15.042,0.209-29.951-0.861-44.551-4.776c-4.054-1.087-8.004-2.44-11.579-4.716c-0.912-0.581-1.851-1.119-2.5-2.021
	c-0.955-1.327-1.149-2.722-0.304-4.165c0.822-1.404,2.072-2.126,3.702-1.985c0.651,0.056,1.345,0.261,1.91,0.587
	c7.333,4.23,15.551,5.307,23.694,6.401c9.232,1.241,18.536,1.879,27.872,1.744c0.945-0.013,1.891-0.019,2.835-0.065
	c1.903-0.094,2.463-1.025,2.229-2.943c-0.803-6.564-1.519-13.142-2.122-19.728c-0.776-8.469-1.387-16.953-2.123-25.425
	c-0.241-2.772-0.32-2.845-3.149-2.775c-12.165,0.303-24.289-0.061-36.386-1.558c-14.713-1.821-28.924-5.282-42.243-11.969
	c-1.323-0.664-2.738-1.144-4.085-1.764c-1.807-0.832-2.65-2.272-2.337-4.249c0.298-1.88,1.987-3.142,4.107-3.215
	c1.539-0.052,2.937,0.502,4.269,1.136c15.986,7.616,33.085,10.471,50.521,12.056c8.5,0.772,16.995,0.675,25.499,0.548
	c2.951-0.044,3.05-0.158,2.968-2.953c-0.415-14.038-1.109-28.069-1.087-42.119c0.004-2.701-0.113-2.68-3.118-2.859
	c-8.087-0.483-16.186-0.653-24.277-1.114c-18.791-1.069-36.75-5.653-54.354-12.013c-9.854-3.56-18.828-8.755-27.576-14.397
	c-2.391-1.542-4.486-3.467-6.387-5.588c-1.122-1.253-1.842-2.68-1.556-4.426c0.258-1.577,1.097-2.759,2.614-3.34
	c1.38-0.529,2.765-0.332,3.768,0.72c9.651,10.12,22.387,14.732,34.982,19.521c20.032,7.617,40.878,10.905,62.245,11.245
	c3.645,0.058,7.292,0.187,10.929,0.43c2.132,0.142,2.767-0.686,2.823-2.765c0.484-17.953,1.075-35.904,1.603-53.856
	c0.109-3.699,0.048-3.727-3.708-3.917c-19.627-0.989-38.93-3.867-57.746-9.706c-15.069-4.676-29.012-11.709-42.309-20.087
	c-2.388-1.505-4.501-3.44-6.811-5.077c-1.701-1.205-2.22-3.024-2.721-4.826c-0.485-1.743,0.192-3.195,1.707-4.188
	c1.39-0.911,2.828-0.838,4.182,0.063c0.664,0.442,1.388,0.942,1.796,1.596c1.799,2.886,4.622,4.491,7.425,6.114
	c19.55,11.324,40.226,19.647,62.581,23.532c10.789,1.875,21.646,3.088,32.58,3.594c3.256,0.151,3.37,0.082,3.493-3.239
	c0.464-12.55,0.8-25.105,1.309-37.654c0.093-2.299-0.888-3.089-2.914-3.371c-1.869-0.261-3.725-0.644-5.564-1.072
	c-17.033-3.958-32.091-11.734-45.128-23.403c-1.308-1.17-2.717-2.238-3.936-3.492c-1.891-1.944-2.017-4.115-0.506-5.78
	c1.416-1.561,3.292-1.707,5.487-0.32c1.024,0.647,2.042,1.355,2.903,2.198c8.076,7.913,18.208,12.43,28.19,17.22
	c5.907,2.835,12.17,4.384,18.562,5.533c3.345,0.602,3.369,0.567,3.552-2.706c0.543-9.706,1.059-19.414,1.613-29.12
	c0.162-2.83,0.312-5.668,0.661-8.478c0.276-2.218-0.334-3.387-2.624-4.135c-14.958-4.891-28.129-13.001-40.251-22.891
	c-5.888-4.804-11.182-10.183-15.038-16.829c-0.679-1.171-1.428-2.309-1.641-3.673c-0.322-2.066,0.674-3.942,2.417-4.656
	c1.823-0.747,3.783-0.234,4.836,1.758c4.708,8.908,12.371,14.86,20.281,20.576c8.894,6.426,18.223,12.087,28.554,15.943
	c1.243,0.464,2.425,1.188,4.2,0.966c0.318-3.265,0.696-6.571,0.952-9.887c0.903-11.728,2.635-23.333,5.082-34.833
	c0.279-1.312,0.615-2.652,1.187-3.854c1.097-2.305,3.33-3.275,5.316-2.517c1.935,0.74,2.798,2.467,2.253,5.037
	c-4.278,20.153-5.149,40.676-6.7,61.125c-0.212,2.8-0.035,2.957,2.923,2.419c5.063-0.92,10.006-2.294,14.654-4.541
	c10.344-5.001,20.318-10.675,29.883-17.03c5.07-3.369,9.716-7.25,13.126-12.457c1.676-2.56,4.811-2.967,7.116-1.289
	c2.281,1.662,2.491,4.466,0.269,7.097c-4.726,5.596-10,10.624-16.196,14.592c-9.214,5.9-18.605,11.492-28.556,16.089
	c-6.423,2.967-13.165,4.816-20.162,5.787c-3.788,0.525-3.882,0.532-4.114,4.443c-0.432,7.278-0.775,14.562-1.094,21.846
	c-0.354,8.094-0.68,16.189-0.942,24.286c-0.166,5.138-0.103,5.144,5.104,4.208c9.461-1.7,18.617-4.48,27.653-7.713
	c10.101-3.614,19.464-8.688,28.546-14.311c7.002-4.335,13.911-8.819,20.875-13.216c1.253-0.791,2.512-1.619,3.871-2.186
	c2.128-0.888,4.199-0.196,5.347,1.561c1.134,1.735,0.899,3.897-0.695,5.552c-0.554,0.576-1.239,1.044-1.917,1.479
	c-10.114,6.487-20.146,13.106-30.585,19.073c-17.214,9.84-35.614,16.08-55.342,18.325c-3.364,0.383-3.4,0.41-3.503,3.983
	c-0.381,13.22-0.743,26.441-1.089,39.662c-0.088,3.372,0.092,3.536,3.358,2.844c10.753-2.276,20.985-6.09,30.923-10.706
	c8.447-3.923,16.826-7.992,25.232-12.002c1.34-0.639,2.648-1.369,4.148-1.567c2.328-0.308,4.085,0.7,4.84,2.74
	c0.686,1.852,0.125,3.658-1.6,5.006c-0.42,0.329-0.909,0.582-1.393,0.815c-11.802,5.665-23.419,11.738-35.575,16.629
	c-8.66,3.485-17.65,5.911-26.868,7.459c-3.53,0.593-3.537,0.617-3.697,3.964c-0.781,16.329-0.851,32.668-0.67,49.01
	c0.007,0.675,0.027,1.35,0.043,2.025c0.028,1.206,0.564,1.746,1.798,1.371c0.258-0.079,0.517-0.159,0.779-0.223
	c21.72-5.382,42.482-13.114,61.921-24.373c15.914-9.218,31.24-19.291,46.133-30.053c1.64-1.185,3.291-2.381,5.051-3.367
	c2.406-1.348,4.793-0.814,6.101,1.148c1.18,1.769,0.832,4.172-0.918,5.874c-0.576,0.561-1.268,1.006-1.924,1.479
	c-17.197,12.418-34.781,24.238-53.302,34.618c-12.402,6.95-25.391,12.637-38.879,17.028c-7.546,2.457-15.424,3.894-23.154,5.785
	c-3.326,0.814-3.298,0.808-3.22,4.235c0.385,16.88,1.477,33.72,2.82,50.546c0.074,0.925,0.056,2.561,0.932,3.887
	c1.907-0.079,3.787-0.43,5.88-0.636c6.508-0.64,10.346-2.114,14.632-2.731c19.812-2.852,37.841-11.769,55.397-21.195
	c5.351-2.873,10.573-5.986,15.865-8.971c1.056-0.595,2.116-1.232,3.253-1.621c2.057-0.704,3.934-0.058,5.03,1.534
	c1.191,1.731,0.993,3.807-0.62,5.546c-0.543,0.585-1.2,1.103-1.888,1.51c-19.92,11.758-40.259,22.605-62.748,28.76
	c-7.83,2.143-15.76,3.702-23.875,4.264c-3.651,0.252-6.554-0.58-10.527,0.055c1.229,13.064,2.273,23.752,4.249,36.351
	c11.949-0.396,22.949-3.808,33.739-8.051c10.837-4.26,20.879-10.123,31.125-15.573c1.428-0.759,2.854-1.559,4.362-2.123
	c2.388-0.893,4.54-0.146,5.635,1.75c1.182,2.049,0.552,4.407-1.631,6c-0.433,0.316-0.924,0.556-1.4,0.81
	c-7.509,3.991-14.959,8.1-22.545,11.941c-14.957,7.573-30.641,12.642-47.825,13.15C174.386,421.969,174.992,426.053,175.313,430.161
	z M319.363,171.542c-2.728-22.446-7.303-44.468-14.822-65.83c-6.172-17.534-14.024-34.171-25.236-49.155
	c-17.256-23.062-40.477-37.821-66.78-48.185c-22.566-8.892-45.937-10.358-69.698-6.016C119.036,6.704,96.798,15,76.889,28.979
	C53.917,45.11,37.78,66.802,26.485,92.173C11.188,126.533,2.054,162.439,0.38,200.15c-1.604,36.153,1.795,71.709,11.598,106.626
	c9.944,35.419,26.817,66.855,53.386,92.568c20.739,20.07,45.38,32.757,74.149,36.918c5.448,0.788,5.628,0.947,6.159,6.415
	c0.039,0.403,0.074,0.807,0.094,1.212c0.617,12.6-0.413,25.073-2.922,37.428c-0.55,2.709,0.668,4.842,3.296,5.606
	c2.352,0.684,4.623-0.406,5.604-2.751c0.256-0.612,0.4-1.291,0.48-1.953c0.925-7.637,2.11-15.254,2.417-22.949
	c0.306-7.697,0.238-15.37-1.621-22.952c-1.16-4.732-3.572-7.734-8.658-8.181c-1.467-0.129-2.898-0.626-4.361-0.851
	c-26.637-4.095-49.451-15.955-68.65-34.609c-22.942-22.29-38.561-49.178-48.06-79.622c-8.405-26.937-13.189-54.471-14.053-82.762
	c-0.808-26.458,0.688-52.617,6.753-78.437c5.234-22.281,12.248-43.944,22.689-64.373c8.121-15.889,18.5-30.137,31.87-42.062
	c17.723-15.806,38.575-25.552,61.373-31.522c19.068-4.993,38.318-6.59,57.753-2.735c24.811,4.921,46.494,16.489,65.633,32.685
	c14.437,12.217,24.847,27.667,32.702,44.819c10.303,22.496,16.83,46.116,20.531,70.525c3.767,24.848,6.129,49.834,6.937,74.966
	c0.823,25.593-0.696,50.997-5.285,76.219c-4.694,25.799-14.424,49.428-30.018,70.54c-8.007,10.841-17.375,20.285-29.201,27.075
	c-12.011,6.895-24.594,12.262-38.1,15.55c-6.839,1.665-11.502,6.274-13.978,12.889c-1.909,5.1-2.666,10.457-2.926,15.87
	c-0.588,12.267,1.487,24.209,4.554,36.02c0.169,0.65,0.355,1.315,0.662,1.906c0.994,1.916,2.758,2.888,4.611,2.621
	c1.98-0.284,3.54-1.958,3.848-4.15c0.174-1.238-0.199-2.376-0.537-3.559c-3.292-11.516-4.822-23.254-4.066-35.229
	c0.272-4.313,0.9-8.606,2.575-12.645c0.671-1.618,1.401-3.334,3.46-3.617c3.786-0.52,7.172-2.317,10.816-3.305
	c5.342-1.448,10.556-3.304,15.659-5.469c19.785-8.394,36.745-20.45,49.451-38.043c13.416-18.577,23.474-38.71,28.944-61.085
	c6.422-26.271,8.783-52.95,8.736-79.91C324.631,220.944,322.362,196.219,319.363,171.542z M262.056,192.019
	c-4.955,3.704-9.559,7.929-15.603,9.973c-1.861,0.629-2.617,2.284-2.283,4.253c0.323,1.901,1.943,3.065,4.819,3.135
	c0.872,0.079,2.268-0.484,3.614-1.092c5.831-2.632,10.82-6.57,15.883-10.385c0.421-0.318,0.777-0.756,1.075-1.198
	c1.099-1.633,1.142-3.325-0.064-4.889c-1.184-1.535-2.783-2.032-4.682-1.447C263.756,190.695,262.922,191.372,262.056,192.019z
	 M38.151,169.637c1.753-1.144,2.3-3.097,1.454-5.317c-0.189-0.497-0.462-0.967-0.731-1.429c-2.094-3.59-4.213-7.166-6.287-10.768
	c-0.794-1.379-1.891-2.231-3.493-2.387c-2.706-0.14-4.813,2.463-3.82,5.222c1.778,4.94,4.544,9.418,7.505,13.725
	C34.109,170.617,36.388,170.787,38.151,169.637z M74.979,111.584c-1.821,1.144-2.337,3.364-0.973,5.704
	c2.103,3.606,4.402,7.098,6.663,10.61c0.503,0.781,1.103,1.553,1.817,2.135c1.385,1.131,2.991,1.21,4.54,0.363
	c1.418-0.775,2.074-2.063,1.963-4.099c-0.079-0.264-0.132-0.993-0.482-1.526c-2.664-4.05-5.287-8.134-8.133-12.054
	C78.99,110.813,76.657,110.53,74.979,111.584z M273.376,325.035c-1.003,1.245-1.316,2.616-0.615,4.126
	c0.694,1.496,1.941,2.145,3.753,2.328c0.43-0.116,1.103-0.214,1.707-0.474c3.945-1.698,7.863-3.469,11.551-5.675
	c2.649-1.584,3.342-3.941,2.029-6.067c-1.387-2.246-4.223-2.849-6.663-1.137c-2.768,1.942-5.813,3.33-8.773,4.897
	C275.298,323.596,274.158,324.063,273.376,325.035z M269.038,139.473c1.306,0.006,2.374-0.563,3.165-1.535
	c2.393-2.942,5.315-5.352,7.974-8.026c0.961-0.967,1.836-1.996,2.151-3.36c0.608-2.635-1.286-5.266-3.462-4.487
	c-6.114,2.187-10.35,6.704-13.282,12.294C264.329,136.752,266.457,139.429,269.038,139.473z M259.395,64.885
	c-1.376-0.071-2.621,0.685-3.706,1.742c-2.498,2.432-4.983,4.878-7.447,7.345c-0.468,0.468-0.879,1.023-1.2,1.602
	c-0.95,1.712-0.855,3.391,0.551,4.796c1.421,1.42,3.34,1.645,4.779,0.465c3.517-2.883,6.865-5.985,10.135-9.149
	c1.23-1.19,1.317-2.916,0.602-4.519C262.452,65.69,261.25,64.931,259.395,64.885z M79.215,375.455c-2.927,0-4.909,3.206-3.289,5.781
	c1.958,3.113,4.977,5.26,8.077,7.162c1.378,0.845,2.921,0.447,4.137-0.603c1.339-1.155,1.762-2.68,1.317-4.394
	C88.965,381.509,81.124,375.455,79.215,375.455z M90.467,57.777c0.993,0.923,2.141,1.626,3.584,1.608
	c2.685,0.087,4.645-1.737,3.708-3.818c-1.667-3.7-4.284-6.811-7.722-9.005c-1.689-1.078-4.006-0.362-5.11,1.033
	c-1.202,1.52-1.156,3.465,0.366,5.119C86.925,54.488,88.699,56.135,90.467,57.777z M21.475,231.909
	c-1.392-1.718-3.336-2.061-4.999-1.131c-1.817,1.016-2.494,3.007-1.591,5.2c0.976,2.372,2.46,4.437,4.298,6.23
	c0.902,0.88,2.012,1.29,3.288,1.26c1.712-0.073,3.16-0.69,3.913-2.309c0.742-1.594,0.634-3.265-0.77-4.397
	C23.905,235.384,22.815,233.562,21.475,231.909z M44.603,309.913c-1.374-0.681-2.904-0.456-4.123,0.701
	c-1.081,1.026-1.352,2.292-1.048,3.698c0.475,2.205,5.878,6.639,8.592,6.682c0.949-0.069,2.115-0.659,2.872-1.897
	c0.953-1.56,0.771-3.157-0.274-4.547C49.057,312.47,46.888,311.045,44.603,309.913z M299.763,235.031
	c1.612-0.612,3.147-1.506,4.589-2.467c1.288-0.859,1.918-2.213,1.876-3.813c-0.011-3.084-2.886-5.268-5.438-3.898
	c-1.858,0.998-3.561,2.393-5.093,3.862c-1.389,1.332-1.509,3.158-0.505,4.825C296.239,235.277,297.975,235.71,299.763,235.031z
	 M257.931,378.735c-0.01,2.102,1.736,3.876,3.821,3.884c2.505,0.008,5.37-3.076,5.281-5.688c-0.067-1.972-1.648-3.61-3.568-3.694
	C261.068,373.131,257.942,376.237,257.931,378.735z"/>
<g>
</g>
<g>
</g>
<g>
</g>
<g>
</g>
<g>
</g>
<g>
</g>
</svg>
