<?xml version="1.0" encoding="iso-8859-1"?>
<!-- Generator: Adobe Illustrator 26.0.3, SVG Export Plug-In . SVG Version: 6.00 Build 0)  -->
<svg version="1.1" id="Layer_37" xmlns="http://www.w3.org/2000/svg" xmlns:xlink="http://www.w3.org/1999/xlink" x="0px" y="0px"
	 width="188.654px" height="421.329px" viewBox="0 0 188.654 421.329" enable-background="new 0 0 188.654 421.329"
	 xml:space="preserve">
<path d="M185.076,194.597c-2.686-7.653-7.058-9.629-14.931-7.525c-5.701,1.524-10.72,4.41-15.302,8.06
	c-13.055,10.398-20.801,23.886-23.364,40.367c-0.248,1.597-0.447,3.201-0.708,4.796c-0.065,0.397-0.104,1.935-0.455,2.153
	c-0.569,0.353-0.868-0.578-0.979-0.981c-0.813-2.946-1.174-6.058-1.754-9.059c-0.62-3.207-1.27-6.408-1.949-9.603
	c-1.344-6.326-2.802-12.628-4.373-18.902c-2.091-8.351-4.404-16.646-6.989-24.858c-0.162-0.515-0.359-1.021-0.478-1.545
	c-0.16-0.709,0.036-1.191,0.734-1.642c9.09-5.876,16.277-13.691,22.57-22.386c5.706-7.885,9.632-16.535,11.066-26.234
	c1.886-12.756,0.926-25.306-2.696-37.665c-0.994-3.394-2.433-6.585-4.562-9.43c-4.465-5.965-9.386-6.379-14.538-1.044
	c-5.069,5.249-9.886,10.749-14.049,16.748c-6.612,9.527-11.351,19.92-13.559,31.365c-0.44,2.283-0.548,4.63-0.834,7.163
	c-1.466-1.101-1.65-2.507-2.118-3.715c-7.079-18.274-15.171-36.079-24.55-53.294c-1.546-2.837-3.311-5.568-4.57-8.552
	c-0.974-2.311-1.221-4.822-1.824-7.236c-0.623-2.496-1.67-4.899-2.446-7.354c-1.189-3.762-2.237-7.568-3.518-11.301
	c-2.37-6.901-4.776-13.814-8.547-20.087C43.788,11.918,34.847,3.827,22.205,0.569C14.934-1.305,8.016,1.531,3.991,7.872
	c-2.206,3.475-3.553,7.307-3.857,11.404C-0.802,31.865,3.17,42.646,12.27,51.48c5.977,5.802,13.33,9.041,21.107,11.586
	c6.797,2.224,13.546,4.598,20.281,7.006c2.814,1.006,5.242,2.428,6.795,5.336c7.759,14.532,15.512,29.059,21.633,44.385
	c0.371,0.929,1.169,1.806,0.689,3.159c-4.557-4.809-9.311-9.185-14.344-13.25c-5.852-4.727-12.42-8.095-19.628-10.225
	c-4.717-1.394-9.547-1.939-14.425-1.428c-8.067,0.844-12.48,6.666-10.517,14.427c1.994,7.886,5.176,15.304,10.392,21.753
	c7.673,9.488,17.813,14.68,29.458,17.284c8.055,1.801,16.224,3.582,24.388,1.052c3.493-1.082,5.577-0.012,7.661,2.454
	c1.08,1.277,1.757,2.704,2.353,4.209c11.229,28.378,18.114,57.919,23.503,87.859c0.174,0.965,0.614,2.037-0.265,3.087
	c-0.921-0.289-1.168-1.005-1.473-1.771c-3.094-7.779-6.518-15.416-10.165-22.946c-6.629-13.686-16.224-24.792-29.138-32.938
	c-6.123-3.862-12.83-5.667-20.037-5.313c-7.596,0.372-12.418,5.623-12.394,13.235c0.011,3.573,1.024,6.934,2.361,10.196
	c3.723,9.08,8.894,17.219,15.482,24.533c9.035,10.03,19.848,16.41,33.468,17.889c3.7,0.401,7.421,0.734,11.059,1.548
	c4.274,0.956,12.976,3.114,13.654,8.441c0.228,1.79,0.424,3.58,0.668,5.37c0.454,3.328,0.956,6.65,1.438,9.975
	c2.832,19.517,4.807,39.115,6.024,58.803c1.42,22.979,0.243,45.9-1.053,68.825c-0.187,3.311,0.018,6.741-1.754,9.856
	c-0.72,1.266-0.043,2.645,0.875,3.732c2.433,2.882,6.689,2.051,8.076-1.723c0.641-1.743,0.892-3.685,1.005-5.556
	c0.62-10.243,1.314-20.486,1.66-30.74c0.56-16.606,0.574-33.214-0.575-49.81c-0.933-13.471-1.99-26.925-3.878-40.303
	c-0.716-5.079-1.437-10.161-1.966-15.262c-0.343-3.305,0.487-4.175,3.497-4.729c20.844-3.837,36.097-15.24,45.251-34.316
	C190.071,223.339,190.109,208.936,185.076,194.597z M32.806,34.84c0.335,0.582,0.718,1.152,1.163,1.653
	c5.784,6.502,9.561,14.361,14.514,21.424c0.233,0.332,0.349,0.685,0.11,1.071c-0.51,0.427-1.04,0.151-1.52-0.024
	c-5.829-2.12-11.727-4.076-17.459-6.434C18.028,47.763,10.758,39.367,8.729,26.773c-0.707-4.388-0.214-8.622,1.606-12.659
	c2.079-4.61,5.671-6.346,10.57-5.051c4.636,1.226,8.712,3.569,12.377,6.652c5.58,4.694,9.756,10.399,12.548,17.139
	c1.384,3.341,2.939,6.615,3.953,10.51c-1.291-0.348-1.62-1.204-2.06-1.873c-2.603-3.959-5.77-7.474-8.742-11.141
	c-1.808-2.231-3.824-2.619-5.594-1.304C31.624,30.357,31.405,32.404,32.806,34.84z M73.674,144.848
	c-5.481-0.756-10.83-2.207-16.021-4.115c-10.262-3.772-17.588-10.743-22.039-20.722c-1.262-2.83-2.474-5.686-3.24-8.7
	c-0.776-3.053-0.087-4.258,3.058-4.76c3.518-0.562,6.984,0.2,10.385,1.03c3.547,0.866,6.914,2.271,10.092,4.07
	c7.956,4.503,14.52,10.667,20.569,17.424c0.503,0.562,1.156,1.115,1.119,2.034c-1.097,0.514-1.785-0.409-2.55-0.808
	c-5.136-2.679-10.224-5.452-15.352-8.148c-1.062-0.558-2.19-1.111-3.352-1.332c-1.907-0.363-3.448,0.42-4.357,2.182
	c-0.921,1.787-0.552,3.47,0.853,4.79c0.865,0.813,1.972,1.396,3.031,1.972c7.338,3.992,14.704,7.932,22.03,11.946
	c1.631,0.894,3.396,1.637,5.119,3.595C79.428,146.097,76.53,145.242,73.674,144.848z M111.587,154.972
	c-1.866-2.56-2.616-4.589-3.128-6.651c-2.078-8.376-2.582-16.76,0.053-25.153c3.106-9.89,7.664-18.999,14.313-26.995
	c2.76-3.319,5.572-6.599,8.465-9.803c1.86-2.06,2.319-1.952,3.778,0.514c1.881,3.18,2.836,6.714,3.566,10.279
	c1.991,9.724,2.54,19.514,0.956,29.366c-0.865,5.383-2.631,10.459-5.241,15.228c-3.521,6.434-8.038,12.136-13.1,17.416
	c-0.638,0.666-1.198,1.494-2.358,1.59c1.078-5.836,2.161-11.642,3.217-17.453c0.385-2.122,0.746-4.251,1.046-6.387
	c0.496-3.524-0.855-5.894-3.502-6.261c-2.459-0.342-4.427,1.413-4.982,4.74c-0.711,4.256-1.224,8.544-1.867,12.811
	C112.506,150.18,112.103,152.128,111.587,154.972z M102.69,234.804c-2.149-2.421-4.131-4.994-6.332-7.365
	c-1.951-2.102-4.283-2.299-6.126-0.796c-1.825,1.488-2.118,3.849-0.358,6.136c2.383,3.097,5.03,5.989,7.547,8.983
	c0.678,0.807,1.723,1.335,2.046,2.911c-7.61-0.912-14.088-3.76-19.734-8.355c-9.717-7.908-16.894-17.731-21.472-29.417
	c-0.74-1.888-1.359-3.806-1.416-5.867c-0.104-3.752,1.187-5.306,4.939-5.287c4.785,0.024,9.362,1.063,13.519,3.601
	c6.865,4.192,12.844,9.406,17.832,15.7c5.126,6.469,9.088,13.623,12.197,21.588C103.845,236.564,103.325,235.519,102.69,234.804z
	 M149.538,259.229c-0.461,0.208-0.976,0.297-2.417,0.722c7.781-11.805,12.719-23.907,17.783-35.947
	c0.417-0.992,0.884-1.988,1.113-3.029c0.486-2.209-0.553-4.166-2.484-4.968c-1.793-0.744-3.733-0.224-4.946,1.598
	c-0.811,1.219-1.352,2.629-1.936,3.987c-4.687,10.896-9.177,21.886-15.343,32.072c-0.792,1.309-1.418,2.806-3.246,4.078
	c-0.353-3.134-0.231-5.775,0.03-8.397c0.735-7.391,1.866-14.736,4.131-21.816c4.448-13.906,13.228-24.265,26.342-30.738
	c6.54-3.228,8.041-2.362,9.795,4.599C184.761,226.797,171.037,249.553,149.538,259.229z"/>
<g>
</g>
<g>
</g>
<g>
</g>
<g>
</g>
<g>
</g>
<g>
</g>
</svg>
