<?xml version="1.0" encoding="utf-8"?>
<!-- Generator: Adobe Illustrator 23.0.1, SVG Export Plug-In . SVG Version: 6.00 Build 0)  -->
<svg version="1.0" id="Слой_1" xmlns="http://www.w3.org/2000/svg" xmlns:xlink="http://www.w3.org/1999/xlink" x="0px" y="0px"
	 viewBox="0 0 720 720" style="enable-background:new 0 0 720 720;" xml:space="preserve">
<g id="Слой_16">
	<path d="M253.3,268.3c17.9,0,32.5-16.1,32.5-36c0-19.3-14.3-41.7-32.8-41.7c-18.4,0-32.1,22-32.1,41.7
		C220.8,252.1,235.4,268.3,253.3,268.3 M252.9,193.6c16.5,0,29.8,21.2,29.8,38.7c0,18.2-13.2,33-29.5,33s-29.5-14.8-29.5-33
		C223.8,214.4,236.5,193.6,252.9,193.6"/>
</g>
<g id="Слой_15">
	<path d="M245.4,255.1c0.2,0,0.3,0,0.5,0c3-0.2,5.8-2,7.2-4.7c1.5,2.2,4,3.8,6.7,4c0.2,0,0.4,0,0.6,0c2.9,0,5.9-1.6,7.4-4.1
		c0.4-0.7,0.2-1.6-0.5-2.1c-0.7-0.4-1.6-0.2-2.1,0.5c-1.1,1.8-3.2,2.8-5.3,2.7c-2.1-0.2-4-1.5-4.8-3.4c-0.6-1.4-0.7-3.2-0.6-4.7
		c0-1.8,0.1-3.7,0.3-5.5c5.1-0.9,8.9-5.6,8.9-11.2c0-6.3-4.8-11.4-10.8-11.4s-10.8,5.1-10.8,11.4c0,5.7,3.9,10.3,9.1,11.2
		c0,0,0,0.1,0,0.1c0.2,2,0.2,4.1,0.2,6.1c0,1.5-0.1,3.3-0.7,4.7c-0.9,1.9-2.8,3.2-4.9,3.3c-2,0.1-4.2-1-5.2-2.8
		c-0.4-0.7-1.3-0.9-2-0.5c-0.7,0.4-0.9,1.3-0.5,2C239.5,253.5,242.5,255.1,245.4,255.1"/>
</g>
<g id="Слой_14">
	<path d="M634.4,203.7c-7-31.5-27.3-58.6-45.2-82.5c-0.4-0.6-1.2-0.8-1.8-0.5c-0.6,0.3-1,1-0.9,1.6c3.6,19.4-3.7,41.2-20.2,59.8
		c-10.7,12.1-23.8,21.7-36.3,30.2c0,0-0.1,0-0.1,0.1c-3.4,2.3-6.8,4.6-10.2,6.8c-1.8,1.2-3.7,2.4-5.5,3.7c-14.5,9.7-31,21.2-43.4,36
		c-2.3,2.8-4.5,5.7-6.4,8.6c-14.7,21.9-20.9,50.4-18.4,84.9c0.1,1.4,0.2,2.8,0.3,4.2c1.1,11.5,2.9,23.6,6,39.1
		c1.5,7.7,3.2,15.5,4.8,23c0.4,2,0.9,4,1.3,6c-6-15.2-13.4-28.4-20.2-39c-21.3-32.8-49.9-59.8-75-81.9
		c-13.7-12.1-27.8-24.5-30.5-41.3c21.7-5,43.8-11.5,54.9-29.5c0.3-0.5,0.3-1,0-1.5c1.5-1.2,2.9-2.5,4.2-3.9c4.2-4.2,7.6-9,10.3-14.3
		c0.2-0.3,0.2-0.7,0.1-1c2.7-3,4.6-6.8,5.2-10.7c0-0.3,0-0.6-0.2-0.9c4.6-3.7,7.7-9.3,8-15.2c0-0.5-0.2-1-0.7-1.3
		c-0.4-0.3-1-0.3-1.5-0.1c-3.4,1.6-7.2,2.3-11.1,2.1c-9.8-0.6-20.6-7-27.6-16.5c-1.8-2.4-3.3-4.9-4.8-7.5c0.1-0.2,0.1-0.3,0.1-0.5
		c0.2-5.2,2.6-10.6,7-16.2c2.3-2.9,5-5.6,7.6-8.2c1.8-1.8,3.6-3.6,5.3-5.5c19.5-21.6,26.4-54.6,17-82.1c-0.5-1.5-1.2-3.3-2.7-4.4
		c-2.6-2-6.1-1.2-8.8-0.3c-12.2,4.1-23.8,10-35.1,15.7c-3.7,1.9-7.5,3.8-11.2,5.6c-13.6,6.6-29.8,13.5-46.8,15.1
		c-11.4-4.8-23.2-7.6-35.2-8.3c-0.5,0-1,0-1.5-0.1c-1.2-1.4-2.7-2.5-4.4-3.3c-3.3-1.6-7.1-1.8-10.6-0.7c1.9-1.3,3.8-2.6,5.7-3.9
		c-6.1-1.8-13.2,0-17.7,4.5l3.1-5.4c-3.6,0.8-6.7,3.7-7.8,7.3c0.1-3.6-1.2-5.4-1.8-8c0.5,3-0.2,6.2-1.8,8.7
		c-0.5,0.7-1.2,1.4-1.6,2.1c-7.5,1.3-14.8,3.4-21.9,6.2c-0.1,0-0.1,0-0.1,0c-17.3-1.5-33.8-8.5-47.6-15.2c-3.8-1.8-7.5-3.7-11.2-5.6
		C136.7,54,125,48.1,112.8,44c-2.7-0.9-6.2-1.7-8.8,0.3c-1.5,1.2-2.1,2.9-2.7,4.4c-9.4,27.5-2.6,60.5,17,82.1
		c1.7,1.9,3.6,3.7,5.3,5.5c2.6,2.6,5.3,5.3,7.6,8.2c4.5,5.5,6.8,11,7,16.2c-1.6,3.1-3.5,6.1-5.6,8.9c-7,9.5-17.8,15.9-27.6,16.5
		c-4,0.2-7.7-0.5-11.1-2.1c-0.5-0.2-1-0.2-1.5,0.1c-0.4,0.3-0.7,0.8-0.7,1.3c0.3,5.9,3.3,11.6,8,15.2c-0.1,0.3-0.2,0.6-0.1,0.9
		c0.6,3.9,2.4,7.6,5.2,10.6c-0.1,0.3-0.1,0.7,0.1,1.1c2.6,5.2,6.1,10,10.3,14.3c1.3,1.4,2.7,2.7,4.2,3.9c-0.3,0.5-0.2,1,0,1.5
		c11.2,18.1,33.5,24.6,55.3,29.6l25.9,6c-5.8,13.5-9.7,34.6-10,47.4c-1.1,49.9-8.4,92.2-16.8,141.1c-0.8,4.6-1.6,9.2-2.4,14
		c-5.3,31.1-13.3,62-23.8,91.8l-0.1,0.2c-1.6,4.5-3.2,9.1-2.9,14c0.1,1.2,0.3,2.4,0.7,3.7c0,0,0,0,0,0l-24.5,13.5
		c-0.7,0.4-1.7,1-2.4,1.9c-0.9,1.4-0.8,3.1,0.3,4.1c1.3,1.2,3.2,0.7,3.9,0.4l6-1.8l-2.9,2c-1,0.7-3.2,2.2-3.1,4.6
		c0,2.4,2.3,4,4.4,4.1c1.9,0.1,3.6-0.7,4.9-1.3l10.1-4.7c-0.4,0.2-0.7,0.5-1.1,0.7c-1,0.6-2.1,1.3-3,2.2c-1.6,1.6-2.7,4.3-1.3,6.6
		c0.2,0.4,0.6,0.6,1,0.7c0.6,0.1,1.3,0.2,1.9,0.2c4.3,0,8.2-2.8,10.6-5.7c1.6-2,2.9-4.1,4.2-6.3c0.9-1.5,1.8-3.1,2.8-4.5
		c1.6-2.2,4.9-5.9,9.2-6c0.6,0,1.3,0.1,2,0.1c0.8,0.1,1.7,0.2,2.6,0.1c1.9-0.1,4.2-1,5-3.1c1.1-2.6-0.8-5.4-3.1-6.4
		c-1.1-0.5-2.6-0.7-4.5-0.6c1.1-1.3,1.9-2.5,2.5-3.2c5.2-7.3,12-16.2,18.5-24.8c6.2-8.2,12.6-16.6,17.8-23.7
		c2.1,2.7,4.4,5.3,6.8,7.8c-5.3,9.6-11.4,18.7-18.5,27c-0.5,0.6-1,1.2-1.5,1.7c-3.1,3.6-6.4,7.3-8.4,11.8c-0.5-0.8-1.1-1.6-1.9-2.2
		c-2-1.6-5.4-1.9-7.2,0.3c-1.5,1.8-1.1,4.2-0.3,5.9c0.4,0.8,0.9,1.6,1.4,2.3c0.4,0.6,0.8,1.1,1,1.7c2,3.8,0.3,8.5-0.9,10.9
		c-0.8,1.6-1.7,3.1-2.6,4.6c-1.3,2.1-2.6,4.3-3.5,6.6c-1.6,4-2.2,9.7,1.1,13.6c0.3,0.3,0.7,0.5,1.1,0.5c2.7,0.1,4.6-2.1,5.2-4.3
		c0.4-1.2,0.4-2.5,0.5-3.7c0-0.4,0-0.9,0.1-1.3l0.7,11.1c0.1,1.5,0.2,3.4,1.2,4.9c1.1,1.8,3.6,3,5.7,1.9c2.1-1.1,2.4-3.7,2.5-4.9
		l0.4-3.6l1.3,6.1c0.1,0.7,0.5,2.6,2.2,3.2c0.3,0.1,0.6,0.2,0.9,0.2c1.1,0,2.3-0.7,2.9-1.8c0.5-1,0.6-2.2,0.6-3l0.2-27.4
		c3.4-0.4,6.7-1.8,9.2-3.8c2.1-1.6,4.5-4.2,6.8-7c1.3,0.1,2.5,0.3,3.6,0.4c1,0.1,2,0.2,3.1,0.3l0.7,13.5h0c0.2,3.3,0.3,6.8,1.4,10.2
		c1.2,3.9,3.6,7,6.6,8.5c1.5,0.8,3.1,1.2,4.7,1.2c0.9,0,1.7-0.2,2.5-0.4c0.1,0,0.2,0.1,0.3,0.1c0.1,0,0.1,0,0.2,0
		c21.4-2.9,41.3-3.4,62.4-3.8c18.1-0.4,36.8-0.8,56.8-2.9c13.2-1.4,24.8-4.2,36-8.9c0,0.3,0,0.6,0,0.8c1,10.6,55.4,30.2,62.5,32.1
		c14.6,3.9,29.1,5.9,43.2,5.9c4.9,0,9.8-0.2,14.6-0.7c31-3.1,61-17.2,82.2-38.9c11.1-11.4,19.4-24.3,24.7-38.4
		c2.9-7.8,4.9-16.1,6.1-24.7c2.6-19.3,0.9-40.3-5-62.7c-5.2-19.6-13-38.2-19.3-52.1c-3.4-7.6-7-15.3-10.5-22.8l-3.1-6.7
		c-6.4-13.8-12.6-28.4-12.4-43c0.1-4,0.6-7.8,1.6-11.4c3.6-12.7,13.3-22.6,22.6-32.2c2.2-2.3,4.6-4.7,6.8-7.1c1.4-1.5,2.6-2.8,3.6-4
		c11.4-13.3,19.6-29.6,23.8-47.3c0,0,0-0.1,0-0.1C637.8,237.4,638,220,634.4,203.7 M350.4,68.9c3.8-1.8,7.5-3.7,11.3-5.6
		c11.2-5.6,22.7-11.5,34.7-15.5c2-0.7,4.5-1.3,6-0.2c0.8,0.6,1.3,1.9,1.7,3c9.1,26.5,2.5,58.3-16.4,79.1c-1.7,1.8-3.5,3.7-5.2,5.4
		c-2.6,2.7-5.4,5.4-7.8,8.4c-3.8,4.7-6.2,9.5-7.2,14.1c-1.3-2.5-2.4-5.1-3.6-7.7c2.4-10.8,7.5-20.8,14.7-29.2c1.7-2,3.6-3.9,5.4-5.8
		c2.2-2.3,4.5-4.7,6.6-7.2c4.6-5.7,7.1-11.1,7.7-16.5c0.7-6.9-2.4-13.6-7.6-16.6c-4.7-2.7-11.1-2.7-18.5,0.1
		c-15,5.6-27,17.8-32.5,32.9c-8.9-9.8-19.8-17.9-32.1-23.9C323.2,81.3,337.9,74.9,350.4,68.9 M361.5,144.3
		c-2.3-5.4-4.7-11.1-7.5-16.4c-3.4-6.3-7.4-12.3-12.1-17.7c4.8-14.7,16.8-27.2,31.3-32.6c4.6-1.7,11-3.1,16-0.3
		c4.2,2.5,6.7,8,6.1,13.7c-0.5,4.8-2.8,9.7-7,14.9c-2,2.4-4.2,4.8-6.4,7c-1.8,1.9-3.7,3.9-5.5,5.9c-6.6,7.7-11.6,16.9-14.4,26.6
		C361.9,145,361.7,144.6,361.5,144.3 M133.6,142.6c-2.4-3-5.2-5.7-7.8-8.4c-1.7-1.8-3.5-3.6-5.2-5.4c-18.8-20.8-25.4-52.6-16.4-79.1
		c0.4-1.2,0.9-2.4,1.7-3c1.5-1.2,4-0.5,6,0.2c12,4.1,23.5,9.9,34.7,15.5c3.7,1.9,7.5,3.8,11.3,5.6c12.8,6.2,27.7,12.7,43.7,14.9
		c-12.4,5.8-23.6,13.9-32.9,23.8c-5.5-15-17.5-27.2-32.5-32.8c-7.4-2.8-13.8-2.8-18.5-0.1c-5.2,3-8.3,9.7-7.6,16.6
		c0.5,5.4,3.1,10.8,7.7,16.5c2.1,2.5,4.3,4.9,6.5,7.2c1.8,1.9,3.7,3.8,5.4,5.8c7,8.2,12,18,14.5,28.4c-1.1,2.6-2.3,5.2-3.5,7.8
		C139.6,151.6,137.2,147.1,133.6,142.6 M131.9,117.9c-1.8-2.1-3.7-4-5.5-5.9c-2.2-2.2-4.4-4.6-6.4-7c-4.3-5.2-6.6-10.1-7-14.9
		c-0.6-5.7,1.9-11.3,6.1-13.7c4.9-2.9,11.4-1.4,16,0.3c14.5,5.4,26.4,17.9,31.3,32.5c-5,5.7-9.4,12-13,18.8
		c-2.7,5.2-5.1,10.6-7.3,15.9C143.2,134.3,138.4,125.4,131.9,117.9 M125.6,236.1l4.4,2.2c0.7,0.4,1.6,0.1,2-0.7
		c0.4-0.7,0.1-1.6-0.7-2c-3.6-1.8-7-4.1-10.1-6.7c10.2,5,22,9.6,31.9,6.2c34.1-11.7,62.6-37.3,71.4-46.2
		c6.1-6.2,11.1-15.5,11.2-24.3c0-5-1.4-12.4-4.2-16.5c-3.8-5.8-11.3-8.4-18.2-7.9c-6.9,0.4-13.4,3.4-19.5,6.8
		c-12.8,7-24.7,15.9-35,26.2c-4.7,4.7-9.2,9.8-14.5,13.9c-5.3,4.1-11.5,7.3-18.2,7.7c-6.8,0.3-13.1-2.3-18.8-5.8
		c10.1-1.3,20.8-8,27.8-17.5c4.9-6.6,8.3-14,11.4-21.1c0.6-0.3,1-1,0.8-1.6c0-0.1,0-0.1,0-0.2l1.2-2.9c2.3-5.4,4.7-11,7.4-16.3
		c14.4-27.1,42.3-46.7,73.2-52c0.1,0,0.1,0.1,0.2,0.1c2,1.5,5.7,1,8.1,1c6-0.1,12-0.8,17.9-2.3c0.1,0,0.3-0.1,0.4-0.1
		c3.7-0.2,7.5-0.2,11.1,0c0.6,0.4,1.2,0.9,1.7,1.5c-0.2-0.5-0.4-0.9-0.6-1.4c11.1,0.7,22,3.3,32.6,7.7c0.3,0.4,0.8,0.7,1.3,0.6
		c0.1,0,0.1,0,0.2,0c21.5,9.4,39,25.3,49.5,44.9c2.8,5.2,5.1,10.8,7.4,16.1c3.7,8.9,7.6,18,13.5,26c7,9.5,17.7,16.2,27.8,17.5
		c-5.7,3.5-12,6.1-18.8,5.8c-6.7-0.3-13-3.5-18.2-7.7c-5.3-4.1-9.7-9.2-14.5-13.9c-10.4-10.3-22.2-19.2-35-26.2
		c-6.1-3.3-12.6-6.3-19.5-6.8c-6.9-0.4-14.4,2.1-18.2,7.9c-2.7,4.2-4.2,11.6-4.2,16.5c0.1,8.8,5,18.1,11.2,24.3
		c8.8,8.9,37.4,34.6,71.4,46.2c9.9,3.4,21.6-1.2,31.9-6.2c-3.1,2.6-6.5,4.9-10.1,6.7c-0.1,0-0.1,0.1-0.2,0.2
		c-0.1,0.1-0.2,0.1-0.3,0.2c-0.1,0.1-0.1,0.2-0.1,0.3c0,0.1-0.1,0.2-0.1,0.2c0,0.1,0,0.2,0,0.3c0,0.1,0,0.2,0,0.3
		c0,0.1,0,0.2,0.1,0.3c0,0.1,0,0.2,0.1,0.3c0,0,0,0,0,0c0,0,0,0,0,0c0.1,0.2,0.2,0.3,0.3,0.4c0,0,0.1,0.1,0.1,0.1
		c0.1,0.1,0.2,0.2,0.4,0.2c0,0,0.1,0,0.1,0c0.1,0,0.3,0.1,0.4,0.1c0,0,0,0,0.1,0c0,0,0.1,0,0.1,0c0.2,0,0.3-0.1,0.5-0.1c0,0,0,0,0,0
		l4.4-2.2c-11.4,13.6-30.8,19.1-50,23.5l-50.6,11.7c-6.4,1.5-23.6,10.2-24.3,10.6c-1.9,1-4.1,1-5.9,0.1c-0.8-0.4-18.5-9.2-24.9-10.7
		l-50.6-11.7C156.4,255.1,137,249.6,125.6,236.1 M200.5,167.3c0-5.4,4.1-9.8,9.2-9.8c5.1,0,9.2,4.4,9.2,9.8c0,5.4-4.1,9.8-9.2,9.8
		C204.6,177.1,200.5,172.7,200.5,167.3 M310.5,171c0,5.4-4.1,9.8-9.2,9.8c-5.1,0-9.2-4.4-9.2-9.8c0-5.4,4.1-9.8,9.2-9.8
		C306.4,161.2,310.5,165.6,310.5,171 M171.8,585c1,0.4,1.9,1.7,1.5,2.6c-0.3,0.8-1.5,1.2-2.4,1.2c-0.7,0-1.4,0-2.2-0.1
		c-0.7-0.1-1.5-0.2-2.3-0.1c-5.6,0.1-9.6,4.6-11.6,7.2c-1.1,1.5-2.1,3.2-3,4.7c-1.2,2.1-2.4,4.1-3.9,5.9c-2.1,2.5-5.4,4.9-8.8,4.6
		c-0.1-0.8,0.4-1.7,1-2.4c0.7-0.7,1.5-1.2,2.4-1.7c0.6-0.4,1.2-0.7,1.7-1.1c2.2-1.6,3.3-3.6,3.2-5.7c0-0.5-0.3-0.9-0.7-1.2
		c-0.4-0.3-0.9-0.3-1.4-0.1l-14.6,6.7c-1.1,0.5-2.3,1.1-3.5,1c-0.8-0.1-1.6-0.6-1.6-1.2c0-0.7,1-1.5,1.8-2.1l10.6-7.4
		c0.6-0.4,0.8-1.2,0.5-1.9c-0.3-0.7-1.1-1-1.8-0.8l-14.9,4.4c-0.6,0.2-0.8,0.2-1,0.2c0-0.1,0-0.2,0.1-0.2c0.3-0.4,0.8-0.7,1.4-1
		l24.3-13.4c1.5,2.6,3.8,4.8,6.9,5.5c0.8,0.2,1.6,0.3,2.4,0.3c3.7,0,6.9-2,9.5-4.4c0.2,0,0.4,0.1,0.6,0
		C169.7,584.4,171.2,584.8,171.8,585 M194.7,628.8c0,0.1-0.1,0.1-0.2,0.2c-0.1-0.1-0.2-0.4-0.3-0.9l-3.2-15.2
		c-0.1-0.7-0.8-1.2-1.5-1.2c-0.7,0-1.3,0.6-1.4,1.3l-1.4,12.9c-0.1,1-0.3,2.3-1,2.6c-0.5,0.3-1.4-0.2-1.8-0.8
		c-0.6-1-0.7-2.3-0.8-3.5l-1-16.1c0-0.5-0.3-0.9-0.7-1.2c-0.4-0.3-0.9-0.3-1.4-0.1c-1.8,0.8-3.1,2.8-3.5,5.5c-0.1,0.7-0.1,1.4-0.2,2
		c-0.1,1.1-0.1,2.1-0.4,3c-0.3,0.9-0.9,1.7-1.6,2c-1.9-2.9-1.3-7-0.2-10c0.9-2.1,2.1-4.1,3.3-6.2c0.9-1.6,1.9-3.2,2.8-4.9
		c1.4-2.9,3.5-8.6,0.9-13.6c-0.4-0.7-0.8-1.3-1.2-2c-0.4-0.6-0.8-1.2-1.1-1.9c-0.4-0.9-0.6-2.1-0.1-2.7c0.6-0.8,2.1-0.5,3,0.1
		c1.1,0.9,1.8,2.5,2.4,3.9c-1.1,5.1-0.3,11.1,3.9,14.8c2.1,1.8,4.5,2.7,7.1,2.9l-0.2,27.4C194.9,627.7,194.9,628.4,194.7,628.8
		 M205.5,593.6c-4.3,3.4-11.3,4.7-15.5,1c-4.1-3.5-4-10-2.2-14.4c1.8-4.4,5.1-8.2,8.3-11.9c0.5-0.6,1-1.2,1.5-1.8
		c7.3-8.5,13.5-17.7,18.9-27.4c0.2-0.1,0.5-0.2,0.6-0.4c0.4-0.4,0.5-0.9,0.4-1.4c0.1-0.2,0.2-0.4,0.3-0.6c0,1.8,0.2,3.6,0.4,5.2
		c0.1,0.9,0.2,1.7,0.3,2.4c0.6,8.4,1,17.1,1.3,25.4c0.1,1.7,0.2,3.4,0.2,5.1C217.4,580.4,210.3,589.9,205.5,593.6 M218.1,586.4
		c-0.6-0.1-1.1-0.1-1.7-0.2c1.5-1.9,2.8-3.9,4-5.7c0,0.5,0,1.1,0.1,1.7l0.2,4.6C219.8,586.6,218.9,586.5,218.1,586.4 M230.9,619.3
		c-3.1-1.7-4.5-5-5.1-6.8c-0.9-3-1.1-6.2-1.3-9.4l-1-21.1c-0.1-2.2-0.2-4.4-0.3-6.6c0-0.1,0-0.3,0-0.4c-0.1-1.8-0.2-3.5-0.2-5.3
		c-0.4-8.4-0.7-17-1.3-25.5c-0.1-0.8-0.2-1.7-0.3-2.6c-0.4-2.6-0.8-5.8,0.2-7.5c0.4-0.6,0.8-0.9,1.5-0.9h0c1.6,0,3.7,1.5,4.5,2.9
		c0.3,0.5,1,0.8,1.6,0.7c0.6-0.1,1.1-0.6,1.2-1.2c0.4-2.8,2.5-5.1,5-5.6c2.6-0.5,5.6,1,6.7,3.4c0.3,0.6,0.9,0.9,1.6,0.8
		c0.7-0.1,1.2-0.6,1.2-1.3c0.1-1,0.9-1.7,1.4-2c1-0.6,2.3-0.8,3.4-0.5c2,0.7,3.6,2.8,4,5.5c0.5,2.6,0,5.4-0.5,8.1l-12.4,68.4
		c-0.5,2.5-0.9,4.7-2.3,6.1C236.6,620.3,233.4,620.7,230.9,619.3 M255,552.4c12.9-13.1,24.3-27.4,34-42.3
		c-2.4,6.5-4.4,13.1-6.3,19.6c-1.6,5.3-3.2,10.7-5,16c-4.6,13.3-13.4,30.9-29.2,40l6-32.8C254.7,552.7,254.8,552.6,255,552.4
		 M356.1,613.1c-19.9,2.1-38.5,2.5-56.5,2.9c-19.6,0.4-38.3,0.9-58.1,3.3c1.3-2,1.7-4.4,2.1-6.3l4.3-23.8c0.2,0,0.4-0.1,0.6-0.2
		c17.6-9.3,27.2-28.2,32.1-42.5c1.8-5.3,3.4-10.8,5-16.1c3.3-11.3,6.8-23,12.5-33.4c7.5-13.6,21.9-28.1,40.1-27.7
		c0.8,0,1.5-0.6,1.5-1.5c0-0.8-0.6-1.5-1.5-1.5c-13.8-0.3-25.5,7.2-33.9,16.7c6-12.3,11-25,14.7-37.9c0.2-0.8-0.2-1.6-1-1.8
		c-0.8-0.2-1.6,0.2-1.9,1c-10.9,37.5-31.9,73.1-60.7,103.3l0.5-3c0.5-2.8,1.1-6,0.5-9.2c-0.5-2.9-2.4-6.5-6-7.8
		c-1.9-0.6-4.2-0.3-5.9,0.8c-0.6,0.4-1.1,0.8-1.5,1.3c-2.1-2.2-5.3-3.3-8.3-2.7c-2.9,0.6-5.4,2.6-6.6,5.3c-1.5-1.2-3.4-2.1-5.2-2.1
		c-0.7,0-1.3,0.2-1.9,0.5c10.8-21.9,18.2-46.1,25.2-71.1c9.1-32.6,17.9-65.8,26.1-98.7c4.6-18.6,8.4-38.2-0.8-54.2
		c-0.4-0.7-1.3-1-2-0.6c-0.7,0.4-1,1.3-0.6,2c8.6,15.1,5,34,0.5,52c-8.1,32.9-16.9,66-26,98.6c-7.5,26.9-15.5,53-27.8,76.1
		c-10.9-11.4-19.4-26.5-22.9-40.7c-3.6-14.5-3.4-29.8-3.3-44.6c0.3-31.4,10.2-57.7,20.7-85.5c4.9-13.1,10-26.6,14.4-41.3
		c0.2-0.8-0.2-1.6-1-1.9c-0.8-0.2-1.6,0.2-1.9,1c-4.4,14.7-9.5,28.1-14.4,41.1c-10.6,28.1-20.6,54.6-20.9,86.5
		c-0.2,15-0.3,30.4,3.3,45.3c2.7,11,8.3,22.4,15.6,32.5c-5.2,7.3-11.8,16-18.2,24.4c-6.6,8.6-13.4,17.5-18.6,24.9
		c-5.2,7.3-9.8,10.3-14.1,9.3c-3.9-1-6.3-5.4-6.5-9.3c-0.3-4.3,1.2-8.6,2.7-12.8l0.1-0.2c10.5-30,18.6-61,23.9-92.3
		c0.8-4.7,1.6-9.4,2.4-14c8.4-49.1,15.7-91.4,16.8-141.6c0.3-12.7,4.2-33.6,10-46.7l21.7,5c6.1,1.4,24.1,10.3,24.3,10.4
		c1.3,0.6,2.8,1,4.2,1c1.5,0,3-0.4,4.4-1.1c0.2-0.1,17.6-8.9,23.6-10.3l48-11.1c2.9,17.7,17.4,30.5,31.4,42.9
		c24.9,21.9,53.3,48.7,74.4,81.3c10.9,16.9,23.2,40.5,28.8,68.1c2.3,14.2,3.3,26.4,2.8,37.7c-1.3,23-8.3,45.1-19.5,63.6
		c-5.2,8-11.5,15.5-19.3,22.8c-1.8,1.7-3.3,3.3-4.8,4.8c-0.8,0.8-1.6,1.6-2.4,2.5c-0.8,0.6-1.5,1.2-2.3,1.7
		C398.9,603.2,380,610.6,356.1,613.1 M512.5,642.3c-18.4,1.8-37.5,0.1-56.8-5.1c-13.2-3.6-59.7-22.5-60.3-29.5c0-0.1,0-0.5,1-1.1
		c15.9-7.6,22.1-12.8,27-17.7c10.4-8.1,19.5-18.5,26.8-30.4c2.5-3.8,4.7-7.7,6.7-11.7c0.1-0.1,0.1-0.3,0.2-0.4
		c38.9,6.5,76.6,20,110.8,39.6c9,5.1,17.8,10.8,25,18.3c0,0,0,0,0,0C572.2,625.5,542.9,639.3,512.5,642.3 M617.9,481.5
		c5.6,21.3,7.3,41.3,5.1,59.7c-4.4-6.7-10-12.6-16.3-17.4C590,511,569.3,504.7,549,499.2c-20.3-5.5-41.1-10.7-59-21.8
		c-10.3-6.4-18-14.7-23-25.7c-0.3-1.8-0.6-3.7-1-5.6c-0.2-1.2-0.5-2.4-0.7-3.6c-1.6-8.2-3.4-16.5-5.1-24.6c-1.5-7-3.1-14.2-4.5-21.3
		c0.6,0.5,1.2,1,1.9,1.4c25.6,18.4,59.1,20,90.5,22.4c16.9,1.3,34.1,3.2,50.2,8.1c0.2,0.4,0.4,0.8,0.5,1.2
		C605,443.7,612.8,462,617.9,481.5 M597.6,310.5c-9.6,9.9-19.5,20.1-23.3,33.4c-1.1,3.7-1.7,7.7-1.7,11.9
		c-22.5-4.4-45.7-5.2-68.4-2.4c-15.8,1.9-32,5.6-47.5,2.1c-2.5-0.6-5-1.4-7.4-2.5c0-0.3,0-0.6-0.1-0.8c-2.4-33.8,3.6-61.7,17.9-83
		c1.9-2.8,4-5.6,6.2-8.3c0.2-0.3,0.5-0.6,0.7-0.8c0.7,0,1.3,0.1,2,0.1c11.4,1.1,22.4,4.8,33.3,8.4c20.2,6.8,40.4,13.5,60.6,20.3
		c11.8,4,23.8,8,34.2,14.8C602,306,599.7,308.3,597.6,310.5 M631.2,252.5c-4-4.6-9.6-8.1-15.1-10.8c-19.1-9.5-40.3-13.5-60.8-19.4
		c-7.7-2.2-15.4-4.8-22.8-8c12.5-8.5,25.4-18,36.2-30.2c15.5-17.5,23.2-37.8,21.6-56.6c16.8,22.5,34.8,47.9,41.2,76.8
		C635,219.8,634.8,236.5,631.2,252.5"/>
</g>
<g id="Слой_13">
	<path d="M221.9,90.3c-0.1-0.4-0.6-0.6-0.9-0.5c-0.4,0.1-0.6,0.6-0.5,0.9l3.4,9.9c0.1,0.3,0.4,0.5,0.7,0.5c0.1,0,0.2,0,0.2,0
		c0.4-0.1,0.6-0.6,0.5-0.9L221.9,90.3z"/>
</g>
<g id="Слой_12">
	<path d="M241.2,91C241.2,91,241.2,91,241.2,91c0.4,0,0.8-0.4,0.7-0.8l-0.2-6.9c0-0.4-0.4-0.8-0.8-0.7c-0.4,0-0.7,0.4-0.7,0.8
		l0.2,6.9C240.5,90.7,240.8,91,241.2,91"/>
</g>
<g id="Слой_11">
	<path d="M272.6,94.2C272.6,94.2,272.7,94.2,272.6,94.2c0.5-0.1,0.8-0.4,0.7-0.8l-1.1-8.8c-0.1-0.4-0.4-0.7-0.8-0.6
		c-0.4,0.1-0.7,0.4-0.6,0.8l1.1,8.8C271.9,93.9,272.2,94.2,272.6,94.2"/>
</g>
<g id="Слой_10">
	<path d="M277.4,107.9c0.1,0,0.1,0,0.2,0c0.3,0,0.6-0.2,0.7-0.6l2.5-10c0.1-0.4-0.1-0.8-0.5-0.9c-0.4-0.1-0.8,0.1-0.9,0.5l-2.5,10
		C276.7,107.4,277,107.8,277.4,107.9"/>
</g>
<g id="Слой_9">
	<path d="M257.8,106.1c0.4,0,0.7-0.3,0.7-0.7v-9.4c0-0.4-0.3-0.7-0.7-0.7c-0.4,0-0.7,0.3-0.7,0.7v9.4
		C257,105.7,257.4,106.1,257.8,106.1"/>
</g>
<g id="Слой_8">
	<path d="M238.8,107.3c0.1,0,0.2,0,0.2,0c0.4-0.1,0.6-0.6,0.5-0.9l-2.8-8.5c-0.1-0.4-0.6-0.6-0.9-0.5c-0.4,0.1-0.6,0.6-0.5,0.9
		l2.8,8.5C238.2,107.1,238.5,107.3,238.8,107.3"/>
</g>
<g id="Слой_7">
	<path d="M227.7,111.6c-0.1-0.4-0.5-0.6-0.9-0.5c-0.4,0.1-0.6,0.5-0.5,0.9l2.8,10c0.1,0.3,0.4,0.5,0.7,0.5c0.1,0,0.1,0,0.2,0
		c0.4-0.1,0.6-0.5,0.5-0.9L227.7,111.6z"/>
</g>
<g id="Слой_6">
	<path d="M248.8,129c0,0,0.1,0,0.1,0c0.4-0.1,0.7-0.4,0.6-0.8l-1.6-10.6c-0.1-0.4-0.4-0.7-0.8-0.6c-0.4,0.1-0.7,0.4-0.6,0.8
		l1.6,10.6C248.1,128.7,248.4,129,248.8,129"/>
</g>
<g id="Слой_5">
	<path d="M267.4,128.3C267.4,128.3,267.4,128.3,267.4,128.3c0.4,0,0.8-0.3,0.8-0.7l0.6-11c0-0.4-0.3-0.8-0.7-0.8
		c-0.4,0-0.8,0.3-0.8,0.7l-0.6,11C266.7,127.9,267,128.3,267.4,128.3"/>
</g>
<g id="Слой_4">
	<path d="M272.7,147.4c0.1,0,0.2,0,0.2,0c0.3,0,0.6-0.2,0.7-0.5l2.9-8.1c0.1-0.4-0.1-0.8-0.5-1c-0.4-0.1-0.8,0.1-1,0.5l-2.9,8.1
		C272.1,146.9,272.3,147.3,272.7,147.4"/>
</g>
<g id="Слой_3">
	<path d="M254.2,148.7C254.2,148.7,254.2,148.7,254.2,148.7c0.4,0,0.8-0.3,0.8-0.7l0.3-9.1c0-0.4-0.3-0.8-0.7-0.8
		c-0.4,0-0.8,0.3-0.8,0.7l-0.3,9.1C253.5,148.3,253.8,148.7,254.2,148.7"/>
</g>
<g id="Слой_2">
	<path d="M237.5,139.7c-0.4,0.2-0.5,0.6-0.4,1l3.1,6.9c0.1,0.3,0.4,0.4,0.7,0.4c0.1,0,0.2,0,0.3-0.1c0.4-0.2,0.5-0.6,0.4-1l-3.1-6.9
		C238.3,139.7,237.9,139.5,237.5,139.7"/>
</g>
</svg>
