<?xml version="1.0" encoding="utf-8"?>
<!-- Generator: Adobe Illustrator 23.0.1, SVG Export Plug-In . SVG Version: 6.00 Build 0)  -->
<svg version="1.1" id="Layer_1" xmlns="http://www.w3.org/2000/svg" xmlns:xlink="http://www.w3.org/1999/xlink" x="0px" y="0px"
	 viewBox="0 0 864 864" style="enable-background:new 0 0 864 864;" xml:space="preserve">
<style type="text/css">
	.st0{fill:#050505;}
</style>
<g>
	<g>
		<path class="st0" d="M740.63,368.09c-0.9-2.62-3.71-4.03-6.36-3.18c-2.67,0.86-4.13,3.72-3.27,6.39c0.03,0.1,0.33,0.9,0.37,1
			c4.82,12.21,13.38,41.79-11.03,52.76c-5.03,2.28-9.91,2.4-14.88,0.37c-17.04-6.9-28.53-35.39-28.64-35.67
			c-1.04-2.61-3.99-3.89-6.59-2.84c-2.6,1.03-3.88,3.98-2.85,6.58c0.08,0.19,0.44,1.08,1.01,2.38l-14.69,2.27
			c-2.77,0.43-4.67,3.02-4.24,5.79c0.39,2.51,2.55,4.3,5.01,4.3c0.26,0,0.52-0.02,0.78-0.06l8.85-1.37l-5.95,6.19
			c-1.94,2.02-1.88,5.23,0.14,7.18c0.99,0.95,2.25,1.42,3.52,1.42c1.33,0,2.66-0.52,3.66-1.56l10.13-10.53
			c5.89,9.58,14.74,20.74,26.04,25.33c3.59,1.46,7.2,2.19,10.82,2.19c4.02,0,8.05-0.9,12.05-2.7
			C746.97,424.21,753.07,399.64,740.63,368.09z"/>
	</g>
	<g>
		<g>
			<circle class="st0" cx="837.6" cy="439.25" r="23.65"/>
		</g>
	</g>
	<g>
		<g>
			<path class="st0" d="M415.53,453.9c-10.92-20.51-81.13-76.14-133.34-72.95c-51.69,3.16-120.31,56.64-120.31,56.64
				s86.72-24,124.36-22.3C336.09,417.54,415.53,453.9,415.53,453.9z"/>
		</g>
	</g>
	<g>
		<g>
			<path class="st0" d="M357.72,490.54c0,0-33.86-37.91-80.84-39.34s-109.71,39.83-109.71,39.83s83.67-14.96,107.43-14.28
				C298.93,477.46,357.72,490.54,357.72,490.54z"/>
		</g>
	</g>
	<g>
		<g>
			<path class="st0" d="M523.84,243.2c1.6-0.97-8.91-51.52-31.73-52.24c-22.82-0.73-26.16,29.34-10.68,45.31
				C496.91,252.23,514.71,248.77,523.84,243.2z"/>
		</g>
	</g>
	<g>
		<circle class="st0" cx="220.5" cy="181.93" r="14.75"/>
	</g>
	<g>
		<circle class="st0" cx="428.03" cy="661.72" r="14.75"/>
	</g>
	<g>
		<circle class="st0" cx="193.48" cy="205.39" r="8.7"/>
	</g>
	<g>
		<circle class="st0" cx="247.72" cy="153.92" r="7.36"/>
	</g>
	<g>
		<circle class="st0" cx="262.44" cy="188.13" r="5.86"/>
	</g>
	<g>
		<circle class="st0" cx="162.43" cy="203.67" r="4.74"/>
	</g>
	<g>
		<circle class="st0" cx="467.14" cy="651.28" r="14.07"/>
	</g>
	<g>
		<circle class="st0" cx="452.97" cy="683.68" r="7.21"/>
	</g>
	<g>
		<circle class="st0" cx="497.23" cy="656.5" r="5.22"/>
	</g>
	<g>
		<circle class="st0" cx="488.94" cy="614.57" r="6.05"/>
	</g>
	<g>
		<circle class="st0" cx="446.61" cy="616.68" r="10.41"/>
	</g>
	<path class="st0" d="M821.59,398.85c-7.94-7.24-15.44-14.08-17.94-20.21c-2.21-5.42-3.32-13.75-4.6-23.39
		c-3.96-29.73-9.95-74.66-56.69-110.87c-18.54-14.37-39.83-24.45-62.52-30.22c7.67-26.29,13.44-63.85-10.28-77.29
		c-22.53-12.76-47.8-14.98-64.39-5.65c-8.66,4.87-19.13,15.17-19.79,36.58c-0.6,19.4,1.4,34.27,4.48,45.68
		c-11.24,2.54-22.43,5.99-33.43,10.5c-11.22-23.73-37.15-68.92-68.6-60.18c-24.94,6.93-44.36,23.25-49.48,41.58
		c-2.67,9.57-2.78,24.26,11.91,39.85c11.8,12.52,23.75,22.29,35.59,29.08c-45.95,56.66-26.42,143.22-17.11,174.64
		c-22.53-14.9-78.03-50.47-122.05-69.54c-56.24-24.36-129.84-14.27-181.43,23.26c0.4-7.75,2.25-15.57,6.48-23.12
		c19.3-34.48,49.52-52.63,78.75-70.19c37.21-22.34,72.36-43.45,81.67-94.85C343.02,154.6,327.66,84.18,312,65.96
		c-2.97-3.45-6.05-5.16-9.23-5.08c-7.71,0.21-17.79,11.95-38.03,36.35c-20.84,25.11-46.77,56.36-67.24,64.3
		c-36.88,14.3-103.5,64.24-119.26,160.67c-10.7,65.44,12.54,114.32,37.85,138.23c0.35,0.33,0.71,0.61,1.06,0.93
		c-13.05,27.19-19.37,55.81-23.82,76.12c-2.45,11.19-4.57,20.86-6.62,24.04c-3.26,5.07-8.92,6.63-16.76,8.8
		c-9.99,2.77-22.42,6.21-34.39,18.93c-17.7,18.81-36.98,77.59-29.4,99.78c2.41,7.04,6.92,9.16,10.28,9.69
		c20.19,3.16,45.15-26.56,52.72-36.29c6.59,2.52,23.55,8.45,50.11,14.03c5.58,1.17,12.6,1.58,20.42,1.44
		c-4.61,9.65-7.65,19.32-8.32,27.75c-1.05,13.02-1.14,67.45,10.24,77.26c1.52,1.31,3.3,2,5.13,2c0.56,0,1.13-0.06,1.7-0.2
		c11.51-2.67,22.6-31.37,27.08-44.39c6.32,0.54,21.13,0.67,52.99-3.49c28.15-3.68,50.93-27.1,64.97-45.86
		c25.81,13.79,57.5,27.55,85.01,30.19c2.31,0.22,4.71,0.33,7.18,0.33c33.12,0,79.5-19.17,114.46-36.36
		c16.71,24.38,47,53.44,69.09,70.68c30.06,23.47,79.21,46.76,107.77,46.76c2.42,0,4.69-0.17,6.79-0.52
		c6.21-1.03,10.71-3.63,13.39-7.71c11.52-17.62-12.79-36.81-32.31-52.24c-5.53-4.37-10.76-8.5-14.07-11.79
		c-6.81-6.78-23.16-29.75-38.12-51.5c5.89,1.33,11.99,2.6,18.3,3.76c47.5,8.73,160.19-12.26,169.23-51.93
		c1.74-7.63,0.69-14.01-3.12-18.98c-9.23-12.02-32.68-12.89-57.51-13.82c-13.34-0.5-27.14-1.02-38.56-3.29
		c-22.55-4.49-53.85-18.97-76.06-30.28c17.76,3.23,40.05,5.88,57.63,3.4c75.12-10.54,129.8-44.08,162.51-99.67
		C863.35,436.93,839.21,414.92,821.59,398.85z M593.84,168.07c0.43-14.02,5.64-23.94,15.48-29.47c5.61-3.15,12.48-4.7,19.98-4.7
		c11.32,0,24.07,3.52,36.1,10.33c18.48,10.47,13.28,43.95,6.27,68.11c-23.65-4.86-48.61-5.08-73.49-0.53
		C595.1,200.49,593.29,186.02,593.84,168.07z M86.57,323.57c15.15-92.66,78.77-140.5,113.98-154.15
		c22.52-8.73,49.23-40.92,70.69-66.78c12.14-14.63,27.24-32.83,31.74-33.3c0.01,0,1.24,0.22,3.52,3.27
		c13.7,18.42,27.61,83.82,17.36,140.43c-8.63,47.63-42.18,67.78-77.7,89.11c-30.18,18.12-61.38,36.86-81.77,73.31
		c-6.33,11.31-8.15,22.84-7.65,33.92c-1.56,1.29-3.18,2.52-4.68,3.87c-13.03,11.65-23.02,25.62-30.9,40.28
		C85.6,419.19,80.26,362.19,86.57,323.57z M227.4,728.46c-42.84,5.6-53.28,3.22-53.6,3.15c-2.19-0.64-4.49,0.58-5.2,2.74
		c-6.18,18.88-16.22,39.86-21.69,42.01c-5.49-4.75-9.04-46.34-7.13-70.03c0.69-8.55,4.25-18.78,9.58-28.83
		c36.83-2.36,85.1-13.69,95.45-16.2c5.01,3.49,20.64,14.14,41.06,25.54C272.66,704.21,251.95,725.25,227.4,728.46z M644.81,736.31
		c3.65,3.64,9.06,7.91,14.79,12.44c15.94,12.59,37.76,29.83,30.47,40.98c-1.32,2.03-3.91,3.37-7.7,4
		c-21.95,3.68-73.43-17.59-107.98-44.57c-24.49-19.12-51.64-46.41-66.63-67.85c19.62-9.95,34.6-18.65,39.74-21.7
		c6.15,2.33,26.22,9.6,52.9,16.3C616.79,699.92,636.71,728.24,644.81,736.31z M837.78,463.71c-31.34,53.27-83.96,85.43-156.4,95.59
		c-32.34,4.54-84.11-9.91-84.62-10.06c-2.07-0.59-4.22,0.46-5.04,2.42c-0.83,1.96-0.07,4.24,1.78,5.3
		c2.67,1.55,65.92,37.92,105.84,45.87c12.08,2.4,26.22,2.93,39.9,3.45c21.79,0.82,44.32,1.66,51.12,10.52
		c2.24,2.91,2.76,6.82,1.59,11.95c-7.36,32.3-112.17,54.18-159.46,45.5c-46.57-8.55-83.44-23.12-83.8-23.27
		c-1.23-0.49-2.61-0.37-3.75,0.31c-1.1,0.67-111.12,66.68-165.64,61.45c-54.77-5.25-130.39-58.91-131.15-59.45
		c-0.72-0.52-1.58-0.79-2.46-0.79c-0.34,0-0.68,0.04-1.02,0.13c-0.9,0.22-90.85,22.44-123.65,15.55
		c-33.23-6.99-51.42-14.69-51.6-14.76c-1.8-0.76-3.9-0.2-5.07,1.38c-7.87,10.7-31.55,37.98-46.57,35.57
		c-0.64-0.1-2.35-0.37-3.61-4.07c-6.1-17.85,10.64-73.28,27.56-91.25c10.35-11,21.05-13.96,30.49-16.58
		c8.53-2.36,16.59-4.6,21.6-12.37c2.88-4.47,4.83-13.36,7.77-26.81c7.1-32.37,18.97-86.56,56.1-119.76
		c49.23-44.02,127.31-57.63,185.67-32.35c55.58,24.08,130.08,75.07,130.82,75.59c1.54,1.06,3.58,0.98,5.04-0.19
		c1.45-1.17,1.97-3.15,1.26-4.88c-0.12-0.3-12.1-31.34-14.86-72.58c-3.12-46.63,6.97-83.37,30-109.2c0.87-0.98,1.24-2.31,1-3.59
		c-0.24-1.29-1.07-2.39-2.24-2.98c-12.49-6.36-25.26-16.41-37.95-29.88c-9.62-10.21-12.96-20.9-9.92-31.78
		c4.34-15.54,21.45-29.56,43.6-35.71c27.66-7.68,53.2,43.41,60.37,59.26c0.95,2.1,3.41,3.05,5.53,2.14
		c62.64-27.14,132.07-20.35,181.19,17.7c44,34.09,49.71,76.95,53.49,105.31c1.36,10.22,2.54,19.04,5.15,25.46
		c3.21,7.9,11.4,15.36,20.07,23.27C833.94,421.54,852.59,438.55,837.78,463.71z"/>
</g>
</svg>
