<?xml version="1.0" encoding="UTF-8"?>
<!-- Generator: visioncortex VTracer 0.6.3 -->
<svg version="1.1" xmlns="http://www.w3.org/2000/svg" width="1280" height="1280">
<path d="M0 0 C6.23 5.12 11 11.4 15.72 17.89 C17.89 20.84 20.15 23.7 22.44 26.56 C35.44 43.22 46.82 61.51 57 80 C57.88 81.59 57.88 81.59 58.79 83.22 C59.76 85 60.73 86.78 61.69 88.57 C62.56 90.19 63.46 91.8 64.38 93.4 C69.15 101.83 73 110.66 76.9 119.51 C77.92 121.82 78.95 124.12 79.99 126.43 C83.09 133.34 85.88 140.24 88.17 147.48 C89.02 150.19 89.02 150.19 90.5 153.44 C113.58 208.26 120.01 274.12 121 333 C121.03 334.23 121.05 335.47 121.08 336.74 C121.71 367.28 120.08 398.09 114.77 428.2 C114.13 431.85 113.82 435.29 114 439 C121.64 442.09 128.97 443.99 137.12 445.12 C138.88 445.37 138.88 445.37 140.68 445.62 C189.57 452.11 239.9 449.68 289 447 C290.11 446.94 291.23 446.88 292.38 446.82 C341.61 444.09 390.66 439.33 439.71 434.44 C441.51 434.26 441.51 434.26 443.34 434.08 C448.8 433.53 454.26 432.99 459.72 432.42 C485.84 429.76 485.84 429.76 492.21 434.38 C498.44 440.03 501.88 446.2 502.5 454.62 C502.39 461.49 499.12 468.69 494.41 473.69 C493.94 474.12 493.48 474.55 493 475 C492.06 476.38 491.13 477.75 490.21 479.15 C477.25 498.91 460.74 515.34 444.12 532 C443.49 532.64 442.85 533.28 442.2 533.93 C435.65 540.51 429.12 547.03 422 553 C420.98 553.89 419.96 554.78 418.94 555.67 C411.21 562.3 403.2 568.46 395 574.51 C393.1 575.93 391.22 577.37 389.34 578.83 C367.39 595.79 343.31 610.17 319.33 624.05 C317.04 625.39 314.77 626.75 312.51 628.14 C299.56 636.04 285.96 642.65 272.36 649.34 C268.89 651.06 265.43 652.79 261.97 654.54 C250.8 660.18 239.46 665.41 227.98 670.37 C224.07 672.07 220.2 673.84 216.36 675.67 C210.27 678.58 204.17 681.15 197.82 683.45 C191.01 685.94 184.33 688.73 177.62 691.5 C167.21 695.79 156.76 699.67 146 703 C146 706.78 146.42 708.6 147.72 712.04 C148.1 713.05 148.48 714.06 148.87 715.1 C149.29 716.19 149.71 717.28 150.14 718.4 C150.57 719.54 151 720.68 151.44 721.85 C152.61 724.92 153.78 727.98 154.96 731.04 C155.69 732.94 156.41 734.83 157.14 736.73 C163.83 754.22 170.87 771.43 178.81 788.4 C180.46 792.01 181.94 795.67 183.38 799.38 C185.52 804.9 187.92 810.23 190.46 815.58 C192.7 820.3 194.73 825.07 196.66 829.93 C197.82 832.58 199.06 835.13 200.36 837.71 C202.48 841.92 204.46 846.18 206.39 850.48 C210.36 859.36 214.52 868.12 218.91 876.8 C219.33 877.65 219.76 878.5 220.2 879.38 C222.36 883.65 224.53 887.92 226.71 892.18 C227.52 893.77 228.33 895.36 229.13 896.95 C229.51 897.67 229.88 898.39 230.27 899.14 C232.27 903.1 233.54 906.52 234 911 C234.66 911 235.32 911 236 911 C240.41 920.41 240.41 920.41 241 925 C241.66 925 242.32 925 243 925 C243.23 925.55 243.47 926.09 243.71 926.66 C246.13 932.21 248.81 937.55 251.69 942.88 C255.66 950.31 259.37 957.83 262.87 965.51 C264.9 969.92 267.18 974 269.81 978.09 C271.63 981.01 273.13 984.09 274.62 987.19 C278.34 994.76 282.24 1002.21 286.23 1009.64 C291.06 1018.74 294.28 1026.48 293 1037 C291.22 1042.65 286.58 1047.39 282 1051 C272.4 1055.62 261.65 1053.1 252.02 1049.85 C250.77 1049.4 249.53 1048.96 248.25 1048.5 C246.93 1048.04 245.61 1047.58 244.29 1047.13 C235.01 1043.89 226 1040.2 217.14 1035.97 C214.6 1034.82 212.02 1033.79 209.44 1032.75 C202.76 1029.99 196.4 1026.7 190.05 1023.28 C188.14 1022.26 186.22 1021.25 184.31 1020.23 C176.66 1016.16 169.32 1011.77 162.07 1007 C159.23 1005.15 156.36 1003.4 153.44 1001.69 C150.05 999.68 147.06 997.48 144 995 C142.97 994.42 141.93 993.84 140.87 993.24 C136.64 990.85 132.7 988.12 128.75 985.31 C128 984.78 127.26 984.26 126.49 983.71 C121.32 980.02 116.4 976.16 111.54 972.08 C108.93 969.94 106.24 967.96 103.5 966 C89.72 956.09 76.99 944.61 64.44 933.2 C62.36 931.32 60.25 929.47 58.14 927.63 C46.28 917.26 35.09 906.19 23.94 895.06 C23.06 894.18 23.06 894.18 22.15 893.29 C16.4 887.56 10.69 881.84 5.42 875.66 C2.62 872.38 -0.35 869.26 -3.28 866.1 C-5 864 -5 864 -5 862 C-5.6 861.73 -6.2 861.46 -6.82 861.19 C-9.04 859.98 -10.25 858.88 -11.88 856.98 C-12.41 856.38 -12.93 855.77 -13.47 855.15 C-14.01 854.5 -14.56 853.86 -15.12 853.19 C-15.7 852.52 -16.27 851.85 -16.86 851.16 C-21.29 845.94 -25.48 840.58 -29.6 835.12 C-32.03 831.96 -34.55 828.92 -37.12 825.88 C-41 821.27 -44.58 816.54 -48.08 811.64 C-49.94 809.08 -51.88 806.63 -53.88 804.19 C-56.21 801.33 -58.42 798.44 -60.52 795.4 C-60.95 794.78 -61.38 794.15 -61.83 793.51 C-62.67 792.29 -63.5 791.06 -64.32 789.82 C-67.53 785.17 -70.91 781.84 -76.46 780.33 C-84.93 780.06 -91.08 783.68 -98.11 787.88 C-99.9 788.94 -101.71 789.96 -103.54 790.96 C-111.12 795.16 -118.32 799.77 -125.48 804.63 C-128.44 806.64 -131.46 808.55 -134.5 810.44 C-144.4 816.69 -153.64 823.97 -163 831 C-164.93 832.45 -166.86 833.89 -168.78 835.34 C-170.14 836.35 -171.49 837.37 -172.84 838.39 C-176.02 840.77 -179.19 843.15 -182.39 845.5 C-187.67 849.4 -192.69 853.42 -197.54 857.85 C-200.5 860.44 -203.58 862.84 -206.69 865.25 C-215.84 872.36 -224.61 879.9 -233.19 887.69 C-237.34 891.46 -241.65 895.01 -246 898.55 C-253.98 905.08 -261.91 911.65 -269.08 919.08 C-270.9 920.9 -272.78 922.59 -274.74 924.27 C-279.54 928.44 -284.14 932.82 -288.74 937.22 C-292.36 940.65 -296.05 943.85 -299.97 946.94 C-308.13 953.54 -315.33 961.16 -322.69 968.62 C-324.88 970.85 -327.08 973.07 -329.28 975.29 C-330.64 976.66 -331.99 978.03 -333.34 979.41 C-337.14 983.24 -341.05 986.87 -345.16 990.38 C-347.08 992.07 -348.85 993.85 -350.62 995.69 C-355.79 1000.94 -360.63 1004.11 -368.19 1004.31 C-376.04 1004.24 -381.2 1001.12 -387 996 C-393.15 987.58 -393.95 979.09 -393.99 969.06 C-394 967.24 -394.05 965.42 -394.11 963.6 C-395.88 883.99 -366.06 801.94 -326 734 C-325.42 733.01 -324.83 732.01 -324.23 730.99 C-322.27 727.66 -320.29 724.33 -318.31 721 C-317.69 719.96 -317.08 718.92 -316.44 717.85 C-313.02 712.16 -309.44 706.67 -305.59 701.27 C-303.37 698.1 -301.37 694.81 -299.38 691.5 C-292.37 680.1 -284.35 669.41 -276.29 658.74 C-275.15 657.2 -274.07 655.6 -273 654 C-272.34 654 -271.68 654 -271 654 C-270.76 653.3 -270.53 652.6 -270.29 651.88 C-268.77 648.49 -266.73 645.76 -264.44 642.88 C-263.99 642.31 -263.55 641.74 -263.09 641.15 C-261.73 639.43 -260.37 637.71 -259 636 C-258.25 635.05 -257.5 634.11 -256.73 633.13 C-253.59 629.23 -250.44 625.42 -246.96 621.82 C-246.45 621.29 -245.93 620.76 -245.41 620.21 C-244.41 619.17 -243.39 618.15 -242.37 617.15 C-240.29 615 -239.03 613.66 -238.89 610.62 C-240.46 606.91 -242.6 603.78 -244.94 600.5 C-245.68 599.45 -245.68 599.45 -246.43 598.37 C-247.94 596.24 -249.47 594.12 -251 592 C-251.45 591.38 -251.89 590.77 -252.35 590.13 C-257.04 583.73 -261.91 577.75 -267.7 572.29 C-269.67 570.33 -271.45 568.34 -273.26 566.23 C-276.99 561.92 -281.02 558.01 -285.19 554.12 C-285.93 553.43 -286.68 552.73 -287.45 552.01 C-299.66 540.67 -312.68 530.27 -326.42 520.84 C-328.89 519.08 -331.28 517.23 -333.67 515.36 C-342.01 508.79 -350.83 503.29 -360.11 498.1 C-362.71 496.59 -365.26 494.97 -367.81 493.38 C-382.44 484.31 -397.75 476.38 -413.05 468.51 C-414.97 467.53 -416.88 466.55 -418.79 465.56 C-437.49 455.88 -456.7 447.39 -476 439 C-476.63 438.73 -477.26 438.45 -477.9 438.17 C-488.38 433.63 -498.87 429.17 -509.54 425.09 C-510.17 424.85 -510.81 424.61 -511.46 424.35 C-514.52 423.18 -517.59 422.02 -520.67 420.88 C-530.18 417.25 -537.66 413.54 -542 404 C-544.04 397.55 -543.78 390.11 -541.08 383.91 C-535.61 374.25 -525.62 371.56 -515.53 368.7 C-510.35 367.28 -505.15 365.98 -499.94 364.69 C-498.99 364.45 -498.04 364.21 -497.06 363.97 C-475.55 358.64 -453.87 354.52 -432 351 C-431.2 350.87 -430.4 350.74 -429.57 350.61 C-418.41 348.81 -407.23 347.28 -396 346 C-395.28 345.92 -394.57 345.83 -393.83 345.75 C-348.81 340.64 -302 340.94 -257 346 C-255.86 346.12 -254.73 346.25 -253.55 346.37 C-233.96 348.53 -214.81 352.5 -195.62 356.94 C-194.55 357.18 -194.55 357.18 -193.46 357.43 C-183.41 359.74 -173.74 362.61 -164 366 C-162.29 366.57 -160.59 367.13 -158.88 367.7 C-158.15 367.94 -157.42 368.18 -156.67 368.43 C-155.24 368.9 -153.8 369.37 -152.37 369.85 C-148.78 371.04 -145.26 372.29 -141.75 373.7 C-137.48 375.18 -135.44 375.32 -131.22 374.09 C-122.11 369.63 -118.05 358.87 -114.01 350.16 C-113.01 348.01 -111.97 345.88 -110.93 343.75 C-106.97 335.6 -103.51 327.39 -100.43 318.88 C-99.07 315.13 -97.57 311.44 -96.06 307.75 C-92.78 299.64 -89.89 291.41 -87.07 283.13 C-86.09 280.26 -85.1 277.4 -84.1 274.53 C-77.49 255.42 -71.85 236.2 -66.91 216.59 C-66.16 213.63 -65.39 210.67 -64.61 207.72 C-63.33 202.83 -62.15 197.92 -61 193 C-60.71 191.77 -60.43 190.54 -60.13 189.28 C-54.2 163.71 -49.79 137.97 -46 112 C-45.73 110.18 -45.73 110.18 -45.46 108.32 C-42.28 86.33 -40.75 64.04 -39.44 41.86 C-39.39 41.14 -39.35 40.41 -39.31 39.66 C-39.1 36.23 -38.91 32.81 -38.73 29.38 C-37.55 8.19 -37.55 8.19 -31 2 C-21.15 -4.77 -10.47 -6.71 0 0 Z M-27.38 9.38 C-32 19.69 -31.47 32.74 -32.15 43.91 C-35 90.33 -41.15 136.53 -51 182 C-51.24 183.1 -51.47 184.2 -51.71 185.34 C-54.79 199.66 -58.07 213.89 -62 228 C-62.22 228.8 -62.44 229.6 -62.67 230.42 C-65.67 241.22 -68.86 251.97 -72.12 262.69 C-72.45 263.76 -72.77 264.84 -73.11 265.94 C-74.82 271.52 -76.72 276.93 -78.94 282.33 C-80.64 286.61 -82.1 290.97 -83.6 295.32 C-91.6 318.51 -100.96 341.01 -111.56 363.12 C-111.86 363.75 -112.15 364.37 -112.46 365 C-113.3 366.76 -114.15 368.51 -115 370.26 C-115.49 371.25 -115.97 372.24 -116.47 373.26 C-118.87 377.55 -121.19 381.36 -126 383 C-135.25 384.29 -142.95 381.74 -151.5 378.5 C-154.07 377.56 -156.65 376.65 -159.23 375.73 C-159.88 375.5 -160.53 375.27 -161.2 375.03 C-212.35 356.86 -266.87 350.32 -320.9 350.61 C-323.3 350.63 -325.7 350.63 -328.1 350.64 C-350.39 350.71 -372.57 350.97 -394.71 353.72 C-397.23 354.03 -399.75 354.32 -402.27 354.62 C-441.57 359.25 -480.45 366.19 -518.5 377.19 C-519.3 377.41 -520.1 377.64 -520.93 377.87 C-526.7 379.61 -530.64 381.71 -533.81 387.06 C-536.07 393.1 -536.06 399.57 -533.5 405.44 C-530.3 408.71 -527.2 410.27 -523 412 C-522.22 412.33 -521.45 412.65 -520.64 412.99 C-516.47 414.71 -512.25 416.28 -507.99 417.8 C-501.58 420.12 -495.25 422.67 -488.94 425.25 C-487.15 425.98 -487.15 425.98 -485.33 426.72 C-476.59 430.31 -467.92 434.02 -459.33 437.94 C-456.79 439.1 -454.24 440.24 -451.69 441.38 C-426.49 452.71 -401.87 465.08 -378 479 C-376.79 479.69 -375.59 480.39 -374.38 481.08 C-367.17 485.24 -360.07 489.59 -353 494 C-352.04 494.6 -351.08 495.2 -350.09 495.82 C-343.92 499.7 -337.94 503.78 -332 508 C-329.45 509.79 -326.89 511.57 -324.33 513.36 C-322.2 514.86 -320.1 516.39 -318 517.94 C-315.33 520.19 -315.33 520.19 -313 520 C-313 520.66 -313 521.32 -313 522 C-311.62 523.31 -311.62 523.31 -309.77 524.62 C-309.08 525.14 -308.38 525.65 -307.67 526.19 C-306.53 527.02 -306.53 527.02 -305.38 527.88 C-294.95 535.7 -284.86 543.83 -275.79 553.21 C-273.95 555.05 -272.04 556.71 -270.06 558.38 C-256.93 569.78 -246.21 584.75 -236.75 599.25 C-236.3 599.94 -235.84 600.63 -235.38 601.34 C-230.52 608.96 -230.52 608.96 -230 613 C-231.66 615.58 -233.15 617.45 -235.25 619.62 C-236.38 620.86 -237.5 622.1 -238.63 623.34 C-239.2 623.96 -239.77 624.57 -240.36 625.21 C-246.97 632.42 -252.95 640.17 -258.77 648.04 C-261.71 651.94 -264.82 655.69 -267.96 659.43 C-270.15 662.19 -272.06 665.06 -274 668 C-275.09 669.46 -276.19 670.93 -277.3 672.39 C-300.37 702.95 -319.77 736.48 -336.94 770.62 C-337.25 771.25 -337.57 771.88 -337.9 772.53 C-341.5 779.68 -344.87 786.87 -347.89 794.29 C-349.18 797.43 -350.57 800.51 -351.98 803.59 C-356.23 812.89 -359.76 822.31 -363 832 C-363.31 832.92 -363.61 833.84 -363.93 834.78 C-364.41 836.23 -364.89 837.67 -365.36 839.12 C-365.99 840.97 -366.68 842.8 -367.38 844.62 C-367.92 846.08 -368.46 847.54 -369 849 C-369.56 850.5 -369.56 850.5 -370.12 852.03 C-374.17 863.45 -376.61 875.13 -379 887 C-379.19 887.93 -379.38 888.85 -379.58 889.81 C-384.22 912.58 -386.19 935.15 -386.19 958.38 C-386.19 960.96 -386.21 963.54 -386.22 966.13 C-386.23 967.8 -386.23 969.48 -386.23 971.15 C-386.24 972.29 -386.24 972.29 -386.25 973.44 C-386.23 979.39 -386.05 986.27 -382.38 991.16 C-381.78 991.6 -381.18 992.04 -380.56 992.5 C-379.97 992.96 -379.37 993.43 -378.75 993.91 C-375.39 996 -372.19 996.3 -368.31 996.5 C-367.32 996.57 -366.32 996.64 -365.3 996.72 C-357.71 995.07 -351.61 986.74 -346.28 981.34 C-345.58 980.64 -344.88 979.93 -344.15 979.2 C-341.93 976.97 -339.72 974.74 -337.5 972.5 C-334.58 969.55 -331.65 966.6 -328.72 963.66 C-328.06 962.99 -327.41 962.33 -326.73 961.64 C-322.33 957.22 -317.74 953.07 -313 949 C-310.51 946.78 -308.04 944.55 -305.57 942.31 C-303.89 940.81 -302.21 939.3 -300.53 937.81 C-295 932.9 -289.77 927.8 -284.64 922.48 C-281.93 919.93 -279.09 918.06 -276 916 C-274.3 914.37 -272.63 912.7 -271 911 C-265.62 905.94 -260.14 901.06 -254.38 896.44 C-250.88 893.62 -247.64 890.72 -244.5 887.5 C-240.59 883.5 -236.44 880 -232.07 876.51 C-228.54 873.62 -225.12 870.63 -221.69 867.62 C-215.15 861.91 -208.41 856.51 -201.55 851.21 C-199.32 849.47 -197.13 847.71 -194.94 845.94 C-186.17 838.92 -177.28 832.15 -168.1 825.68 C-164.39 823.06 -160.86 820.29 -157.38 817.38 C-151.86 812.79 -146.03 808.88 -140 805 C-138.66 804.12 -137.32 803.25 -135.99 802.37 C-122.82 793.75 -109.45 785.72 -95.62 778.19 C-94.61 777.64 -93.6 777.08 -92.56 776.52 C-88.09 774.1 -83.61 771.74 -79.02 769.55 C-78.34 769.22 -77.66 768.9 -76.95 768.56 C-74.56 767.87 -73.31 768.12 -71 769 C-63.26 776.46 -57.46 786.39 -51.36 795.18 C-45.38 803.8 -39.02 812.06 -32.32 820.14 C-30.22 822.73 -28.18 825.37 -26.17 828.04 C-22.62 832.74 -19.04 837.15 -14.77 841.21 C-11.72 844.29 -9.11 847.73 -6.39 851.1 C-3.17 855 0.23 858.72 3.66 862.44 C5.69 864.66 7.66 866.91 9.62 869.19 C12.53 872.54 15.62 875.67 18.81 878.75 C20.65 880.64 22.35 882.56 24.07 884.56 C28.32 889.46 32.89 894.04 37.49 898.62 C38.94 900.06 40.38 901.51 41.82 902.96 C46.53 907.67 51.31 912.25 56.37 916.58 C58.29 918.25 60.06 920.03 61.81 921.88 C65.65 925.78 69.81 929.16 74.08 932.58 C77.16 935.14 80.08 937.82 83 940.56 C87.64 944.91 92.49 948.72 97.72 952.34 C99.7 953.79 101.32 955.23 103 957 C106.09 960 106.09 960 110 961 C110 961.66 110 962.32 110 963 C111.81 964.48 111.81 964.48 114.19 966 C118.31 968.8 122.27 971.73 126.19 974.81 C130.96 978.53 135.84 982.02 140.88 985.38 C141.48 985.78 142.09 986.18 142.71 986.6 C146.16 988.87 149.67 990.98 153.27 993 C155.57 994.33 157.8 995.76 160.03 997.19 C184.86 1013.09 211.04 1026.26 238.44 1037.06 C239.14 1037.34 239.85 1037.62 240.57 1037.91 C258.38 1045.87 258.38 1045.87 277.14 1045.24 C280.54 1043.43 283.31 1041.47 285 1038 C286.22 1032.32 287.07 1025.52 284.02 1020.33 C283.62 1019.73 283.21 1019.13 282.8 1018.52 C279.47 1013.34 276.96 1007.83 274.38 1002.25 C273.43 1000.21 272.48 998.18 271.52 996.14 C270.9 994.8 270.9 994.8 270.27 993.44 C269.04 991.07 267.62 989.11 266 987 C264.73 984.6 263.5 982.19 262.31 979.75 C261.6 978.31 260.89 976.86 260.17 975.42 C259.81 974.68 259.45 973.95 259.08 973.19 C254.67 964.23 250.2 955.31 245.5 946.5 C238.46 933.28 231.95 919.82 225.51 906.3 C222.19 899.38 218.76 892.54 215.03 885.83 C212.43 881.09 210.39 876.19 208.35 871.19 C206.09 865.84 203.54 860.65 201 855.44 C197.23 847.67 193.53 839.88 190 832 C189.65 831.23 189.3 830.45 188.94 829.65 C187.54 826.52 186.13 823.38 184.73 820.25 C182.62 815.57 180.49 810.9 178.32 806.25 C172.18 793.07 166.6 779.76 161.29 766.24 C159.51 761.77 157.68 757.34 155.84 752.9 C150.47 739.88 145.52 726.74 140.88 713.43 C140.27 711.75 139.61 710.09 138.9 708.46 C137.58 704.84 137.87 701.83 138 698 C139.55 697.51 139.55 697.51 141.13 697 C153 693.17 164.6 688.75 176.19 684.12 C178.82 683.07 181.46 682.03 184.1 681 C196 676.31 207.73 671.27 219.43 666.12 C221.62 665.17 223.8 664.23 225.99 663.3 C245.49 654.98 264.45 645.39 283.32 635.74 C284.84 634.97 286.35 634.19 287.87 633.42 C295.67 629.45 303.23 625.38 310.56 620.57 C314.98 617.73 319.63 615.3 324.26 612.83 C329.25 610.12 333.84 607.06 338.46 603.77 C342.55 600.92 346.81 598.39 351.06 595.81 C360.67 589.92 369.89 583.64 379 577 C380.15 576.17 380.15 576.17 381.32 575.32 C395.86 564.82 410.05 554 423.06 541.63 C425.37 539.57 427.66 537.73 430.13 535.88 C435.5 531.75 440.25 527.05 445.01 522.25 C446.49 520.76 447.98 519.28 449.47 517.8 C455.76 511.52 461.46 504.95 467 498 C467.92 496.9 468.85 495.81 469.79 494.72 C474.69 489 479.03 483.15 483.12 476.82 C484.9 474.15 486.79 471.68 488.81 469.19 C492.52 464.49 494.67 460.61 495.44 454.56 C494.72 448.74 492.99 444.56 488.32 440.9 C484.57 438.75 482.63 438.52 478.35 438.64 C477.39 438.66 477.39 438.66 476.4 438.68 C467.7 438.96 459.03 439.91 450.38 440.81 C448.56 441 446.75 441.18 444.94 441.36 C436.76 442.19 428.58 443.04 420.41 443.9 C419.13 444.03 417.85 444.17 416.54 444.3 C414.13 444.56 411.72 444.81 409.31 445.06 C402.39 445.79 395.49 446.35 388.54 446.74 C385.04 447 381.62 447.42 378.15 447.9 C367.89 449.24 357.58 450.01 347.27 450.8 C343.97 451.06 340.67 451.32 337.37 451.59 C325.77 452.5 314.19 453.26 302.56 453.66 C298.01 453.82 293.57 454.15 289.06 454.76 C268.75 457.15 247.73 456.19 227.32 456.19 C223.79 456.19 220.26 456.19 216.72 456.21 C198.72 456.27 180.77 456.2 162.79 455.11 C161.49 455.03 160.19 454.95 158.85 454.87 C141.89 453.72 125.2 451.24 109 446 C107.67 445.65 106.34 445.31 105 445 C105.83 437.33 106.72 429.67 107.92 422.04 C118.69 352.98 115.37 282.35 100.94 214.06 C100.57 212.31 100.57 212.31 100.19 210.53 C99 205.02 97.68 199.67 95.82 194.36 C93.35 187.24 91.28 179.97 89.14 172.75 C84.24 156.31 78.6 140.39 71.32 124.85 C70.29 122.63 69.3 120.4 68.34 118.15 C64.45 109.13 60.22 100.34 55.69 91.62 C55.17 90.63 54.66 89.64 54.12 88.62 C51.96 84.5 49.83 80.69 47 77 C46.08 75.33 45.19 73.64 44.31 71.94 C41.66 67.01 38.63 62.63 35.28 58.16 C32.01 53.62 29.02 48.91 26.03 44.19 C21.02 36.31 15.32 29.08 9.37 21.88 C7.77 19.94 6.19 17.97 4.63 15.99 C-2.26 7.13 -2.26 7.13 -12.38 3 C-18.69 2.56 -22.99 4.99 -27.38 9.38 Z " fill="#000000" transform="translate(632,63)"/>
<path d="M0 0 C9.47 5.7 16.43 12.78 19.37 23.66 C21.09 33.78 18.18 43.35 12.74 51.91 C8.67 57.24 2.29 61.19 -4.07 63.16 C-16.04 64.51 -25.74 63.57 -35.32 55.97 C-41.81 49.93 -45.65 41.98 -46.29 33.13 C-46.47 26.96 -46.47 26.96 -46.07 24.16 C-42.87 22.02 -42.07 21.92 -38.4 21.96 C-37.51 21.97 -36.62 21.98 -35.7 21.98 C-34.3 22.01 -34.3 22.01 -32.88 22.04 C-31.94 22.04 -31 22.05 -30.03 22.06 C-27.71 22.09 -25.39 22.12 -23.07 22.16 C-24.15 20.84 -24.15 20.84 -25.26 19.49 C-26.2 18.32 -27.13 17.15 -28.07 15.97 C-28.55 15.39 -29.02 14.82 -29.52 14.22 C-31.65 11.53 -33.01 9.7 -33.38 6.23 C-33.23 5.21 -33.23 5.21 -33.07 4.16 C-23.21 -1.75 -11.09 -5.12 0 0 Z " fill="#000000" transform="translate(507.0703125,580.83984375)"/>
<path d="M0 0 C6.06 5.74 9.83 12.27 10.43 20.63 C10.64 31.83 9.08 40.19 1.17 48.56 C-6.77 55.58 -15.78 57.77 -26.15 57.48 C-35.06 56.91 -40.38 53.59 -46.81 47.31 C-51.86 41.25 -54.71 35.14 -55.19 27.19 C-54.77 22.83 -53.96 21.28 -50.81 18.31 C-47.1 17.07 -43.5 16.96 -39.62 16.75 C-38.88 16.71 -38.13 16.66 -37.35 16.62 C-35.51 16.51 -33.66 16.41 -31.81 16.31 C-32.5 15.71 -33.19 15.11 -33.89 14.48 C-34.8 13.69 -35.7 12.89 -36.62 12.06 C-37.52 11.27 -38.41 10.48 -39.33 9.67 C-43.39 5.82 -43.39 5.82 -44.81 3.31 C-44.68 0.73 -44.21 -0.3 -42.36 -2.1 C-28.8 -11.24 -12.71 -10.56 0 0 Z " fill="#000000" transform="translate(749.8125,619.6875)"/>
<path d="M0 0 C11.43 8.66 19.54 20.55 21.74 34.85 C22.85 48.35 20.66 60.09 12.44 71.12 C4.17 80.76 -4.95 88.71 -17.94 90.38 C-20.95 90.53 -23.92 90.56 -26.94 90.5 C-27.99 90.49 -29.04 90.47 -30.13 90.46 C-42.37 90.14 -50.91 87.29 -60 79 C-60.7 78.39 -61.4 77.78 -62.12 77.16 C-70.76 69.19 -75.76 59.06 -76.34 47.3 C-76.59 33.09 -74.9 21.55 -66 10 C-65.38 9.11 -64.76 8.23 -64.12 7.31 C-48.05 -10.18 -19.56 -13.63 0 0 Z M-60 14 C-68.27 25.01 -70.17 36.55 -69 50 C-66.91 60.36 -60.65 69.6 -52.25 75.94 C-41.7 82.63 -30.53 84.73 -18.21 82.49 C-6.1 79.23 3.01 72.63 9.45 61.95 C14.77 51.81 15.8 39.83 12.88 28.75 C8.82 17.31 1.77 8.89 -8.94 3.12 C-26.93 -5.17 -46.72 -0.26 -60 14 Z " fill="#000000" transform="translate(517,566)"/>
<path d="M0 0 C9.92 7.57 19.64 17.32 22 30 C23.79 44.13 23.69 57.73 15.09 69.65 C7.45 79.48 -1.58 88.04 -14 91 C-24.44 92.19 -35.08 91.57 -45 88 C-46.07 87.62 -46.07 87.62 -47.15 87.23 C-59.07 82.08 -68.12 70.69 -73 59 C-77.29 46.62 -75.7 32.26 -70.42 20.47 C-67.49 14.81 -64.67 10.38 -60 6 C-59.46 5.46 -58.92 4.93 -58.37 4.38 C-42.61 -10.14 -18.07 -10.38 0 0 Z M-59.81 16.12 C-67.82 27.27 -68.84 41.71 -67 55 C-63.71 67.36 -54.18 75.11 -43.66 81.4 C-34.14 85.98 -22.11 85.17 -12.12 82.5 C-0.6 78.39 6.77 71.36 12.21 60.61 C17.49 49.31 17.3 37.75 13.26 26.01 C8.44 14.5 0.41 7.69 -11 3 C-29.1 -3.06 -47.39 1.81 -59.81 16.12 Z " fill="#000000" transform="translate(749,598)"/>
<path d="M0 0 C13.94 4.1 25.15 18.85 32 31 C38.56 43.43 44.54 60.43 40.25 74.46 C38.93 76.91 37.36 78.71 35.19 80.44 C29.46 81.91 24.74 81.11 19.52 78.58 C2.16 67.72 -10.49 47.01 -15.41 27.43 C-16.54 20.87 -17.69 13.4 -14.64 7.27 C-10.6 1.68 -7.01 -1.17 0 0 Z M-6 8 C-8.95 12.48 -9.42 15.69 -8.7 20.84 C-4.39 40.32 4.73 58.79 21 71 C24.25 73.04 25.93 74.05 29.75 73.88 C32.34 73.12 32.34 73.12 34 70 C36.11 53.17 28.18 36.47 18.29 23.24 C10.26 13 10.26 13 -1.11 7.65 C-3.23 7.58 -3.23 7.58 -6 8 Z " fill="#000000" transform="translate(646,740)"/>
<path d="M0 0 C1.62 0.01 1.62 0.01 3.27 0.03 C4.09 0.04 4.91 0.05 5.75 0.06 C5.75 0.72 5.75 1.38 5.75 2.06 C6.55 2.37 7.36 2.68 8.19 3 C10.75 4.06 10.75 4.06 11.75 5.06 C13.43 18.08 9.06 27.49 1.44 37.81 C0.23 39.25 -1 40.67 -2.25 42.06 C-2.96 42.86 -3.66 43.66 -4.39 44.48 C-14.66 55.43 -30.7 67.54 -46.25 68.44 C-50.65 68.29 -53.95 66.98 -57.25 64.06 C-60.19 59.69 -60.5 56.94 -59.75 51.75 C-58.23 44.85 -55.15 38.91 -51.25 33.06 C-50.59 33.06 -49.93 33.06 -49.25 33.06 C-48.97 32.47 -48.7 31.88 -48.41 31.27 C-45.32 25.4 -40.24 20.96 -35.22 16.74 C-33.29 15.14 -33.29 15.14 -31.75 13.57 C-23.64 5.74 -11.24 -0.12 0 0 Z M-16.25 12.06 C-17.55 12.79 -17.55 12.79 -18.87 13.54 C-32.87 21.93 -45.82 34.78 -52.25 50.06 C-52.61 52.57 -52.61 52.57 -52.44 54.94 C-52.41 55.72 -52.38 56.5 -52.36 57.3 C-52.32 57.88 -52.29 58.46 -52.25 59.06 C-48.12 61.54 -44.81 61.19 -40.32 60.13 C-22.72 53.99 -5.8 39.67 2.75 23.06 C5.72 16.24 5.72 16.24 4.75 9.06 C3.07 7.38 1.05 7.81 -1.25 7.75 C-7.15 7.83 -11.17 9.16 -16.25 12.06 Z " fill="#000000" transform="translate(538.25,691.9375)"/>
<path d="M0 0 C5.1 2.77 7.73 6.53 9.49 11.97 C14.26 30.99 12.2 54.64 3 72 C-1.43 79.15 -5.45 84.86 -13.44 87.94 C-17.8 88.04 -21.31 86.55 -24.49 83.64 C-32 75.06 -31.21 64.64 -31.25 53.88 C-31.27 52.62 -31.29 51.36 -31.31 50.07 C-31.36 38.87 -29.31 28.97 -24.75 18.75 C-24.45 18.07 -24.15 17.39 -23.84 16.69 C-20.77 10.07 -17.14 5.14 -11.06 1 C-7.24 -0.25 -3.93 -0.92 0 0 Z M-8.81 9 C-9.81 9.84 -9.81 9.84 -10.83 10.69 C-21.85 22.44 -24.54 39.11 -24.56 54.62 C-24.56 55.7 -24.57 56.78 -24.57 57.89 C-24.39 66.33 -23.46 74.28 -18 81 C-14.21 80.89 -12.18 79.56 -9.5 77.06 C1.44 65.24 4.43 47.5 4.5 31.94 C4.51 30.53 4.51 30.53 4.52 29.09 C4.37 20.82 3.2 12 -3 6 C-5.81 6 -6.7 7.19 -8.81 9 Z " fill="#000000" transform="translate(628,460)"/>
<path d="M0 0 C2.67 2.26 3.83 4.33 4.4 7.79 C4.64 21.02 -4.24 30.69 -12.94 39.75 C-21.66 48.38 -32.39 56.55 -45.12 57.12 C-49.17 56.73 -51.57 56 -54.94 53.75 C-56.83 50.77 -57.23 48.38 -57.25 44.88 C-57.27 44.05 -57.28 43.23 -57.3 42.38 C-55.72 30.96 -44.51 17.92 -35.7 10.99 C-26 3.85 -12.43 -5.29 0 0 Z M-34.19 19.62 C-40.89 25.92 -48.74 34.88 -49.06 44.38 C-49.33 47.59 -49.33 47.59 -47.94 48.75 C-39.12 49.92 -32.26 45.8 -25.19 40.82 C-22.7 38.87 -20.3 36.85 -17.94 34.75 C-17.29 34.18 -16.64 33.62 -15.97 33.04 C-9.13 26.67 -3.71 18.02 -1.94 8.75 C-2.78 6.5 -2.78 6.5 -5.31 5.88 C-16.24 5.5 -26.14 12.93 -34.19 19.62 Z " fill="#000000" transform="translate(462.9375,765.25)"/>
<path d="M0 0 C12.39 4.27 19.7 14 26 25 C26.38 25.62 26.76 26.24 27.14 26.88 C29.73 31.48 31.21 36.48 32.75 41.5 C32.97 42.21 33.2 42.92 33.43 43.66 C35.24 49.86 36.46 56.35 33.25 62.31 C30.22 67.66 30.22 67.66 27 69 C18.79 69.14 12.59 65.3 6.64 59.84 C-5.33 47.18 -14.51 30.69 -15 13 C-14.34 8.2 -12.94 5.07 -9.75 1.44 C-6.05 -0.5 -4.16 -0.61 0 0 Z M-5 7 C-7.6 9.6 -7.33 10.76 -7.38 14.38 C-7.09 29.35 1.01 43.23 11 54 C15.68 58.41 19.49 60.87 26 61 C27.78 59.22 27.3 56.79 27.38 54.38 C27.16 36.44 17.66 23.13 5.26 10.93 C1.61 7.82 -0.14 7 -5 7 Z " fill="#000000" transform="translate(697,837)"/>
<path d="M0 0 C7.09 5.06 13.26 9.93 15.73 18.52 C15.66 22.31 14.98 23.86 12.67 26.83 C12.28 27.38 11.89 27.94 11.48 28.52 C5.43 32.9 -2.85 32.36 -9.85 31.29 C-17.13 29.96 -23.73 28.27 -30.33 24.83 C-31.3 24.39 -32.27 23.96 -33.27 23.52 C-42.06 18.67 -51.36 12.47 -55.33 2.83 C-55.85 -0.25 -55.86 -3.1 -55.33 -6.17 C-43.06 -23.13 -13.28 -8.66 0 0 Z M-48.32 -2.65 C-48.65 -1.83 -48.99 -1.01 -49.33 -0.17 C-39.38 13.82 -24.29 21.92 -7.33 24.83 C-1.56 25.42 2.94 25.61 7.67 21.83 C7.21 16.88 6 14.48 2.67 10.83 C0.1 8.91 0.1 8.91 -2.7 7.27 C-5.67 5.46 -8.52 3.69 -11.33 1.64 C-19.72 -3.43 -28.76 -5.35 -38.45 -5.55 C-39.17 -5.58 -39.88 -5.62 -40.62 -5.66 C-44.46 -5.72 -45.88 -5.75 -48.32 -2.65 Z " fill="#000000" transform="translate(414.328125,511.171875)"/>
<path d="M0 0 C5.46 4.04 7.91 9.43 9 16 C10.31 33.94 9.01 50.57 -1 66 C-1.62 66.97 -2.24 67.94 -2.88 68.94 C-5.89 71.87 -8.94 73.82 -13 75 C-17.66 74.53 -19.47 73.52 -22.81 70.25 C-30.03 59.53 -29.06 44.68 -26.81 32.5 C-24.18 20.68 -21.11 9.15 -11.69 1 C-7.73 -0.47 -4.16 -0.8 0 0 Z M-8.78 8.58 C-18.35 21 -22.43 38.4 -21 54 C-20.31 58.98 -19.59 63.25 -16 67 C-12.19 66.67 -9.85 65.61 -7.26 62.76 C-0.09 52.74 2.23 40.26 2.31 28.19 C2.32 27.49 2.32 26.8 2.33 26.09 C2.24 19.44 1.31 12.3 -3 7 C-6.9 6.56 -6.9 6.56 -8.78 8.58 Z " fill="#000000" transform="translate(647,366)"/>
<path d="M0 0 C3.44 2.92 4.3 4.56 4.88 9 C4.16 14.93 0.28 18.9 -4.2 22.55 C-20.64 33.81 -39.76 37.1 -59.26 33.97 C-63.1 32.97 -65.72 31.87 -68.44 28.96 C-70.11 26.06 -70.46 23.74 -70.18 20.43 C-67.92 12.76 -60.15 7.8 -53.5 4.12 C-38.47 -3.69 -15.65 -8.38 0 0 Z M-60.5 17.12 C-62.68 19.8 -62.68 19.8 -62.5 22.12 C-60.95 25.23 -58.63 25.79 -55.5 27.12 C-39.38 30.38 -22.18 25.94 -8.5 17.12 C-4.58 13.9 -4.58 13.9 -3.19 9.31 C-3.34 8.23 -3.34 8.23 -3.5 7.12 C-9.01 3.64 -13.81 3.66 -20.12 3.75 C-21.11 3.76 -22.09 3.77 -23.11 3.78 C-36.99 4.08 -49.86 7.8 -60.5 17.12 Z " fill="#000000" transform="translate(869.5,608.875)"/>
<path d="M0 0 C2.92 2.92 3.23 5.71 3.44 9.69 C3.01 22.11 -5.31 33.62 -14 42 C-21.07 47.69 -26.29 51.52 -35.55 51.4 C-38.25 50.96 -39.26 50.47 -41.12 48.5 C-43.87 43.37 -43.74 39.86 -42.34 34.43 C-37.45 19.52 -27.89 7.31 -14 0 C-8.67 -2.13 -5.22 -2.39 0 0 Z M-17.53 10.88 C-25.75 18.12 -31.94 26.37 -35 37 C-35.25 40.33 -35.25 40.33 -35 43 C-32.25 43.79 -30.6 44.24 -27.89 43.17 C-18.11 36.49 -9.17 27.28 -5 16 C-4.57 12.81 -4.68 10.23 -5 7 C-9.97 4.9 -13.56 7.93 -17.53 10.88 Z " fill="#000000" transform="translate(394,823)"/>
<path d="M0 0 C8.12 10.47 8.17 24.66 6.81 37.31 C5.56 44.71 3.2 53.31 -3.14 57.87 C-6.28 59.38 -8.17 59.57 -11.62 59.06 C-17.75 55.77 -20.39 49.02 -22.38 42.64 C-25.23 30.35 -24.78 15.22 -18.69 3.94 C-14.32 -2.14 -14.32 -2.14 -10.75 -3.81 C-6.43 -4.07 -3.42 -2.52 0 0 Z M-9.62 4.06 C-10.44 5.64 -11.25 7.23 -12.06 8.81 C-12.51 9.69 -12.97 10.58 -13.43 11.48 C-18.47 22.39 -16.41 36.98 -12.5 47.89 C-12.21 48.6 -11.92 49.32 -11.62 50.06 C-9.98 50.39 -8.33 50.72 -6.62 51.06 C-5.81 49.65 -5 48.23 -4.19 46.81 C-3.74 46.02 -3.28 45.23 -2.82 44.42 C1.9 35.09 0.42 21.19 -2.5 11.5 C-3.91 7.38 -3.91 7.38 -6.62 4.06 C-7.62 4.06 -8.61 4.06 -9.62 4.06 Z " fill="#000000" transform="translate(660.625,292.9375)"/>
<path d="M0 0 C14.07 5.22 26.36 17.19 32.73 30.73 C33.68 33.57 33.9 35.89 33.91 38.88 C33.93 39.81 33.94 40.74 33.96 41.7 C33.53 44.79 32.8 46.12 30.6 48.32 C24.89 50.6 19.03 49.1 13.56 46.87 C0.33 39.94 -10.83 28.76 -15.4 14.32 C-16.24 9.52 -16.14 6.49 -13.53 2.32 C-9.41 -1.56 -5.23 -1.49 0 0 Z M-7.4 7.32 C-8.34 11.85 -8.34 11.85 -7.4 16.32 C-6.74 16.32 -6.08 16.32 -5.4 16.32 C-5.3 16.89 -5.2 17.46 -5.09 18.05 C-2.21 27.53 8.47 35.5 16.63 40.45 C19.76 41.83 22.23 41.67 25.6 41.32 C27.05 36.12 25.79 33.61 23.31 29 C17.77 20.31 9.29 11.35 -0.4 7.32 C-2.73 7.24 -5.07 7.23 -7.4 7.32 Z " fill="#000000" transform="translate(791.40234375,979.68359375)"/>
<path d="M0 0 C1.01 0.01 2.03 0.02 3.07 0.02 C14.62 0.28 24.77 2.72 33.75 10.44 C36.23 13.37 36.69 15.09 37.38 18.88 C36.6 23.28 35.16 24.48 31.77 27.18 C21.92 33.33 5.53 31.85 -5.54 29.79 C-12.77 27.78 -20.43 24.06 -24.47 17.44 C-25.68 14.34 -25.55 11.72 -25.25 8.44 C-23.88 6.5 -23.88 6.5 -22.25 5.44 C-21.59 5.44 -20.93 5.44 -20.25 5.44 C-20.25 4.78 -20.25 4.12 -20.25 3.44 C-13.43 0.66 -7.33 -0.08 0 0 Z M-16.25 10.44 C-16.91 11.43 -17.57 12.42 -18.25 13.44 C-12.92 19.65 -5.24 22.57 2.75 23.44 C5.79 23.6 8.83 23.66 11.88 23.69 C12.64 23.7 13.4 23.71 14.19 23.72 C19.07 23.69 23.12 22.99 27.75 21.44 C28.08 19.79 28.41 18.14 28.75 16.44 C20.2 8.52 8.95 7.11 -2.38 7 C-3.07 6.99 -3.77 6.98 -4.49 6.97 C-9.11 7.05 -12.35 7.98 -16.25 10.44 Z " fill="#000000" transform="translate(233.25,455.5625)"/>
<path d="M0 0 C2.91 2.63 3.5 5.19 4 9 C1.93 25.93 -4.97 39.7 -18.12 50.59 C-21.67 53.25 -24.69 54.79 -29.06 55.5 C-33.11 54.81 -34.47 53.16 -37 50 C-40.09 43.62 -39.13 37.54 -37.02 30.93 C-32.15 18.62 -24.31 5.92 -12 0 C-7.89 -1.33 -4.15 -1.14 0 0 Z M-9.88 7.12 C-13.26 9.15 -15.37 11.06 -18 14 C-18.63 14.7 -19.26 15.4 -19.91 16.12 C-27.35 24.82 -31.75 33.41 -31.18 45.02 C-31.12 45.67 -31.06 46.33 -31 47 C-27.07 47.08 -24.95 46.72 -21.78 44.32 C-13.58 36.43 -4.83 25.12 -3.76 13.38 C-3.75 11.25 -3.86 9.12 -4 7 C-7 5.65 -7 5.65 -9.88 7.12 Z " fill="#000000" transform="translate(345,886)"/>
<path d="M0 0 C1.78 -0.03 1.78 -0.03 3.6 -0.05 C7.48 0.37 10.15 1.53 12.94 4.31 C13.84 10.21 12.99 14.49 9.54 19.34 C-0.18 31.29 -13.15 38.76 -28.52 40.76 C-33.23 40.93 -36.14 40.86 -40.25 38.44 C-43.26 34.91 -43.54 32.28 -43.46 27.75 C-42.28 20.51 -35.48 15.49 -29.98 11.27 C-20.98 5.24 -10.99 0.04 0 0 Z M-32.99 23.31 C-35.46 26.54 -36.06 28.17 -36.06 32.31 C-22.39 33.4 -10.44 28.21 0.08 19.55 C2.83 16.97 4.66 15.08 5.94 11.5 C6.1 9.27 6.1 9.27 4.94 7.31 C-9.18 5.88 -23.3 13.27 -32.99 23.31 Z " fill="#000000" transform="translate(1006.0625,552.6875)"/>
<path d="M0 0 C6.51 3.12 10.45 8.82 12.92 15.48 C14.84 22.29 15.46 28.56 15.38 35.62 C15.39 36.6 15.4 37.57 15.41 38.57 C15.38 45.68 14.62 52.3 10.42 58.23 C7.21 60.92 5.69 61.96 1.38 62.19 C-2.59 60.79 -4.32 59.2 -7 56 C-7.5 55.42 -8 54.83 -8.51 54.23 C-10.36 51.46 -11.18 48.81 -12.12 45.62 C-12.46 44.52 -12.79 43.42 -13.13 42.29 C-16.38 29.99 -16.93 15.56 -11 4 C-7.64 0.11 -5.08 -0.83 0 0 Z M-4 7 C-7.71 12.69 -7.45 18.11 -7.38 24.75 C-7.39 25.78 -7.4 26.82 -7.41 27.88 C-7.38 37.08 -5.98 45.75 0 53 C2.1 54.39 2.1 54.39 4 55 C10.34 42.87 8.79 30.09 5.27 17.3 C3.91 13.77 2.29 11.01 0 8 C-2.12 7.05 -2.12 7.05 -4 7 Z " fill="#000000" transform="translate(649,210)"/>
<path d="M0 0 C5.9 1.83 9.84 4.41 14 9 C15.08 9.82 16.16 10.63 17.25 11.44 C24.84 17.88 31.71 29.05 33 39 C33.14 43.35 32.69 46.71 30.62 50.56 C26.16 53.01 21.95 52.83 17 52 C5.67 47.98 -4.27 35.69 -9.88 25.39 C-13.21 18.27 -14.55 12.93 -12.93 5.13 C-10.48 -0.47 -5.51 -0.87 0 0 Z M-6 7 C-6.83 17.25 -3.03 23.63 3.12 31.62 C7.66 36.95 12.73 41.8 19 45 C22.22 45.28 22.22 45.28 25 45 C26.79 39.63 24.15 34.48 21.85 29.51 C16.57 19.93 8.41 10.83 -2 7 C-3.32 7 -4.64 7 -6 7 Z " fill="#000000" transform="translate(738,918)"/>
<path d="M0 0 C3.54 3.33 5.82 6.42 6.38 11.31 C6 15 6 15 3.88 17.81 C-3.8 23.65 -13.82 22.77 -23 22 C-34.79 20.32 -45.43 15.96 -52.94 6.52 C-55.22 3.26 -55.47 0.96 -55 -3 C-52.03 -7.11 -48.61 -9.17 -43.84 -10.56 C-29.01 -12.87 -12.2 -8.47 0 0 Z M-48 0 C-46.29 5.29 -43.98 6.91 -39.25 9.57 C-29.05 14.04 -17.09 16.57 -6.06 14.19 C-5.31 14.04 -4.56 13.89 -3.79 13.73 C-3.2 13.49 -2.61 13.25 -2 13 C-1.67 12.01 -1.34 11.02 -1 10 C-6.87 2.87 -16.15 -0.99 -25 -3 C-28.23 -3.29 -31.44 -3.33 -34.69 -3.31 C-35.53 -3.33 -36.37 -3.34 -37.24 -3.36 C-43.21 -3.39 -43.21 -3.39 -48 0 Z " fill="#000000" transform="translate(342,481)"/>
<path d="M0 0 C2.73 2.98 3.01 4.39 2.94 8.44 C0.57 17.42 -6.16 22.14 -13.83 26.67 C-24.32 32.22 -35.07 35.29 -47 34 C-50.8 32.73 -52.39 31.73 -54.94 28.69 C-56.31 25.22 -56.09 23.55 -55 20 C-49.05 8.81 -37.34 2.83 -25.75 -1.11 C-17 -3.48 -8.17 -4.77 0 0 Z M-46.83 19.32 C-48.14 21.2 -48.59 22.76 -49 25 C-44.61 27.93 -41.16 27.62 -36 27 C-23.4 24.31 -13.75 19.56 -5.12 9.83 C-4.75 9.23 -4.38 8.62 -4 8 C-4.5 6.51 -4.5 6.51 -5 5 C-17.86 -1.43 -38.18 10.35 -46.83 19.32 Z " fill="#000000" transform="translate(945,591)"/>
<path d="M0 0 C12.96 4.39 22.99 14.75 29.94 26.19 C31.17 29.46 31.52 31.54 31 35 C29.2 37.7 27.92 39.54 25 41 C14.99 41.88 7.54 37.4 -0.16 31.29 C-6.91 25.6 -12.76 19.77 -14.12 10.75 C-14.3 7.15 -14.09 6.15 -12.19 2.94 C-8.38 -0.43 -4.93 -0.7 0 0 Z M-7 8 C-5.69 16.61 0.85 22.32 7.12 27.94 C12.09 31.5 16.95 33.26 23 34 C23.63 29.82 22.96 27.47 20.56 24.12 C14.71 16.95 8.06 10.65 -1 8 C-4.38 7.66 -4.38 7.66 -7 8 Z " fill="#000000" transform="translate(841,1034)"/>
<path d="M0 0 C2.14 1.69 3.75 3.24 4.97 5.69 C5.45 9.92 5.51 11.95 2.97 15.44 C-5.49 21.79 -15.82 22.27 -26.12 21.44 C-33.39 20.3 -40.89 18.3 -46.15 12.88 C-48.03 9.69 -48.03 9.69 -48.15 6.13 C-46.77 1.9 -45.62 0.33 -42.03 -2.31 C-30.03 -8.38 -11.16 -7.2 0 0 Z M-34.71 3 C-35.48 3.25 -36.25 3.49 -37.04 3.74 C-39.37 4.64 -39.37 4.64 -41.03 7.69 C-34.36 13.75 -27.57 14.04 -18.96 14 C-17.66 14.03 -17.66 14.03 -16.32 14.05 C-11.11 14.06 -7.57 13.52 -3.03 10.69 C-3.03 9.37 -3.03 8.05 -3.03 6.69 C-11.84 1.96 -25.13 -0.17 -34.71 3 Z " fill="#000000" transform="translate(191.02734375,452.30859375)"/>
<path d="M0 0 C4.05 2.74 6.07 5.37 8.19 9.75 C8.68 10.73 9.16 11.72 9.67 12.73 C12.46 19.59 13.34 25.74 13.31 33.06 C13.33 33.83 13.34 34.59 13.36 35.38 C13.37 41.81 12.18 46.64 7.69 51.5 C5 53 5 53 2 53 C-3.59 51.14 -6.53 47.8 -9.12 42.62 C-14.22 31.84 -17.59 18.27 -13.81 6.56 C-10.43 -0.09 -7.35 -2.1 0 0 Z M-5 6 C-10.18 17.33 -7.48 27.82 -3.35 39.1 C-2.13 41.73 -1.33 43.31 1 45 C1.99 45 2.98 45 4 45 C8.09 35.3 5.93 24.77 3 15 C1.65 12.05 0.23 9.36 -2 7 C-2.99 6.67 -3.98 6.34 -5 6 Z " fill="#000000" transform="translate(644,145)"/>
<path d="M0 0 C3.39 2.14 4.73 3.18 6 7 C7 19.37 2.42 30.26 -5 40 C-9.24 44.92 -12.8 48.59 -19.44 49.44 C-23.94 48.89 -25.23 47.5 -28 44 C-30.72 35.84 -28.47 28.58 -25 21 C-19.7 10.52 -13.3 -1.4 0 0 Z M-9.88 11.38 C-17.03 18.75 -21.79 27.48 -22.12 37.94 C-22.08 38.95 -22.04 39.96 -22 41 C-18.25 41 -16.05 40.87 -13.12 38.43 C-6.86 31.51 -0.87 21.45 -1.04 11.81 C-1.31 9.7 -1.31 9.7 -2 7 C-6.11 7 -6.99 8.52 -9.88 11.38 Z " fill="#000000" transform="translate(300,947)"/>
<path d="M0 0 C3.31 1.94 3.31 1.94 5 5 C5.43 9.52 4.49 13.04 2.44 17.06 C-6.03 27.27 -16.24 35.81 -29.87 37.32 C-37.05 37.61 -37.05 37.61 -40.62 35.31 C-43.06 31.22 -43.23 29.1 -42.25 24.38 C-38.16 14.55 -27.17 6.71 -18 2 C-12 -0.36 -6.39 -0.84 0 0 Z M-32 21 C-34.25 24.09 -35 25.19 -35 29 C-32.16 30.42 -30.16 30.25 -27 30 C-16.76 25.75 -6.56 19.56 -2 9 C-2.49 8.01 -2.49 8.01 -3 7 C-13.91 6.32 -24.77 13.06 -32 21 Z " fill="#000000" transform="translate(1072,522)"/>
<path d="M0 0 C3.73 0.24 5.46 0.39 7.98 3.26 C8.86 4.68 8.86 4.68 9.75 6.12 C15.6 14.69 23.9 20.4 34 23 C41.61 24.06 48.37 22.94 55 19 C57.76 16.79 60.33 14.48 62.87 12.02 C65 10 65 10 68 8 C70.69 8.38 70.69 8.38 73 9 C73.5 10.49 73.5 10.49 74 12 C68.93 21.91 59.03 27.95 49 32 C39.33 34.44 29.94 33.35 21 29 C11.36 22.87 0.69 14.64 -2 3 C-1.34 2.01 -0.68 1.02 0 0 Z " fill="#000000" transform="translate(565,639)"/>
<path d="M0 0 C1.57 5.9 1.57 5.9 -0.05 9.02 C-1.29 10.74 -2.64 12.38 -4 14 C-5.32 13.67 -6.64 13.34 -8 13 C-8.46 5 -8.46 5 -6.81 1.44 C-4.44 -0.44 -2.95 -0.32 0 0 Z " fill="#000000" transform="translate(693,243)"/>
</svg>
