<?xml version="1.0" encoding="UTF-8"?>
<!-- Generator: visioncortex VTracer 0.6.3 -->
<svg version="1.1" xmlns="http://www.w3.org/2000/svg" width="1240" height="1280">
<path d="M0 0 C1.1 0.3 1.1 0.3 2.21 0.6 C16.09 4.51 29.04 10.76 42 17 C43.51 17.72 43.51 17.72 45.06 18.46 C67.5 29.25 88.5 41.89 109 56 C109.96 56.66 109.96 56.66 110.93 57.33 C122.24 65.15 133.11 73.61 144 82 C144.69 82.53 145.38 83.07 146.1 83.62 C161.89 95.82 177.01 108.74 191 123 C193.8 125.81 196.62 128.61 199.45 131.38 C205.92 137.74 212.16 144.08 217.78 151.22 C219.85 153.81 221.99 156.3 224.18 158.78 C270.15 211.2 293.81 273.25 307.53 340.68 C307.98 342.91 308.44 345.14 308.9 347.37 C309.17 348.69 309.44 350.02 309.71 351.35 C309.94 352.48 310.17 353.62 310.41 354.78 C312.88 368.2 312.88 368.2 310.64 372.78 C309 375 309 375 306.94 375.94 C305.98 375.97 305.98 375.97 305 376 C302.66 373.66 302.49 372.51 301.81 369.31 C301.6 368.33 301.39 367.34 301.17 366.33 C300.95 365.26 300.73 364.19 300.5 363.08 C300 360.79 299.51 358.49 299.02 356.2 C298.76 354.99 298.5 353.78 298.24 352.54 C289.7 312.69 278.77 275.36 260.4 238.78 C259.13 236.25 257.89 233.71 256.65 231.17 C242.34 202.27 221.77 176.12 200.15 152.37 C198.77 150.84 197.39 149.31 196.04 147.76 C191.04 142.07 185.78 136.68 180.44 131.31 C179.73 130.6 179.02 129.89 178.29 129.15 C173.69 124.56 168.93 120.23 164 116 C162.81 114.95 161.62 113.91 160.43 112.86 C152.17 105.61 143.75 98.65 135 92 C134.33 91.49 133.66 90.98 132.97 90.45 C84.78 53.81 17.35 3.46 -46.42 11.3 C-63.54 14.11 -78.12 23.51 -88.34 37.45 C-95.02 47.75 -98.69 58.04 -101 70 C-101.23 71.12 -101.45 72.24 -101.68 73.4 C-106.28 101.1 -101.81 129.1 -95 156 C-94.82 156.72 -94.65 157.44 -94.46 158.18 C-80.63 213.31 -45.91 263.84 -10 307 C-9.26 307.89 -9.26 307.89 -8.5 308.8 C2.81 322.35 14.98 335.06 27.44 347.56 C28.68 348.81 28.68 348.81 29.95 350.09 C34.8 354.93 39.78 359.55 45 364 C46.15 365 47.3 365.99 48.46 366.99 C54.6 372.27 60.76 377.51 67.05 382.61 C69.24 384.38 71.41 386.16 73.57 387.95 C98.66 408.66 125.66 427.03 154 443 C154.92 443.52 155.83 444.04 156.78 444.57 C175.95 455.34 195.74 465.43 216 474 C216.27 473.28 216.53 472.56 216.8 471.82 C218.41 468.03 220.57 464.69 222.76 461.21 C224.16 459.13 224.16 459.13 224 457 C222.31 455.74 222.31 455.74 220.07 454.52 C219.2 454.03 218.34 453.53 217.45 453.02 C216.5 452.48 215.54 451.93 214.56 451.38 C182.13 432.55 150.11 411.44 120.6 388.25 C118.94 386.96 117.28 385.67 115.61 384.39 C96.5 369.62 79.03 353.1 61.94 336.06 C61.44 335.57 60.95 335.08 60.44 334.58 C54.74 328.9 49.22 323.13 44 317 C42.95 315.81 41.91 314.62 40.86 313.43 C24.27 294.5 9.27 274.4 -4 253 C-4.41 252.34 -4.82 251.69 -5.24 251.01 C-30.88 209.31 -59.57 150.27 -48.1 99.67 C-44.65 88.13 -38.88 77.81 -28.34 71.38 C-15.91 64.92 -1.93 65.61 11.28 69.63 C31.25 76.99 49.53 89.57 66.2 102.6 C67.95 103.96 69.72 105.31 71.49 106.66 C81.71 114.43 91.59 122.48 100.98 131.23 C103.14 133.24 105.36 135.17 107.61 137.09 C112.79 141.61 117.62 146.47 122.47 151.34 C124.06 152.93 125.65 154.52 127.24 156.11 C132.71 161.57 137.98 167.12 143 173 C144.41 174.54 145.83 176.09 147.25 177.62 C151.26 182.07 154.97 186.68 158.63 191.41 C161.62 195.27 164.68 199.06 167.79 202.82 C175.01 211.57 181.62 220.62 188 230 C188.68 231 189.37 232 190.07 233.03 C223.52 282.18 251 334.12 263.48 392.66 C263.98 394.92 264.55 397.15 265.14 399.38 C266 403 266 403 266 407 C268.38 405.38 270.75 403.75 273.12 402.12 C273.85 401.63 274.58 401.13 275.33 400.62 C279.32 397.88 283.26 395.1 287.16 392.23 C301.97 381.42 318.17 373.18 334.56 365.06 C336.52 364.09 338.48 363.11 340.43 362.14 C350.54 357.11 360.69 352.22 371 347.62 C378.93 344.09 386.08 340.32 393 335 C393.58 334.59 394.16 334.18 394.76 333.75 C415.86 317.84 425.15 284.39 432.77 260.53 C433.03 259.71 433.3 258.88 433.57 258.03 C434.05 256.52 434.52 255 434.97 253.48 C436.27 249.37 437.66 246.77 441 244 C444.97 245.32 446.22 247.8 448.38 251.19 C448.77 251.81 449.17 252.43 449.58 253.07 C459.37 268.95 460.6 284.39 456.42 302.21 C455.96 304.14 455.48 306.07 455 308 C476.54 296.7 493.53 285.7 508.47 266.27 C511.19 262.73 514.05 259.35 517 256 C517.66 256.33 518.32 256.66 519 257 C520.25 277.01 511.95 291.18 499 306 C498.01 307.01 497.02 308.02 496 309 C496.55 308.97 497.1 308.93 497.67 308.89 C515.44 308.32 542.45 311.11 557 322 C558.31 324.19 558.31 324.19 559 326 C553.64 331.67 548.16 332.29 540.62 333.31 C539.51 333.48 538.39 333.65 537.24 333.82 C534.49 334.23 531.75 334.62 529 335 C529.8 335.16 530.61 335.33 531.43 335.5 C561.39 341.74 588.96 351.91 617 364 C619.33 365 621.67 366 624 367 C625.49 362.07 626.59 357.18 627.45 352.09 C627.72 350.55 627.99 349 628.26 347.45 C628.4 346.64 628.54 345.84 628.68 345.01 C642.17 268.46 673.89 197.31 726.66 139.58 C727.9 138.21 729.13 136.84 730.32 135.43 C736.01 128.73 742.26 122.59 748.48 116.39 C750.43 114.44 752.38 112.49 754.33 110.53 C760.38 104.48 766.44 98.52 773 93 C774.05 92.08 775.1 91.15 776.14 90.22 C785.99 81.56 796.43 73.75 807 66 C807.66 65.52 808.31 65.04 808.99 64.54 C846.62 36.9 893.55 7.98 940 -1 C941.4 -1.27 941.4 -1.27 942.84 -1.55 C951.1 -2.99 959.26 -3.37 967.63 -3.37 C969.8 -3.37 971.97 -3.41 974.14 -3.45 C987.12 -3.55 999.81 -1.47 1011.38 4.75 C1012.04 5.09 1012.7 5.44 1013.38 5.79 C1019.14 8.89 1024.17 12.57 1029 17 C1029.76 17.66 1030.51 18.33 1031.29 19.01 C1047.67 34.24 1057.05 57.32 1058.18 79.47 C1059.01 129.3 1048.02 175.84 1025 220.08 C1024 221.99 1023.03 223.92 1022.06 225.85 C1004.94 259.52 982.71 293.48 957.75 321.85 C955.14 324.81 952.66 327.86 950.19 330.94 C947.2 334.63 944.09 338.03 940.68 341.32 C938.86 343.14 937.18 345.05 935.5 347 C932.75 350.2 929.85 353.18 926.84 356.13 C925.09 357.91 923.46 359.75 921.84 361.66 C917.07 367.15 911.86 372.19 906.67 377.29 C903.11 380.81 899.64 384.34 896.38 388.14 C893.12 391.93 889.62 395.37 885.94 398.75 C885.29 399.35 884.64 399.95 883.97 400.57 C872.8 410.83 861.2 420.37 849.05 429.46 C847.16 430.88 845.28 432.31 843.39 433.74 C818.29 452.65 790.82 468.55 763.03 483.14 C762.02 483.68 761 484.22 759.96 484.77 C757.98 485.82 755.99 486.86 753.99 487.89 C753.1 488.37 752.2 488.84 751.28 489.34 C750.48 489.75 749.67 490.17 748.85 490.6 C746.89 491.85 746.89 491.85 746.17 493.87 C745.97 496.43 746.38 498.29 747.07 500.76 C747.33 501.7 747.58 502.64 747.84 503.61 C748.26 505.13 748.26 505.13 748.69 506.69 C755.08 531.41 757.01 556.06 758.64 581.44 C760.53 641.41 760.53 641.41 788 693 C788.76 693.86 789.51 694.73 790.29 695.62 C793.74 699.52 797.27 703.3 801 706.94 C814.98 720.84 823.8 735.7 824.38 755.75 C823.51 789.16 807.67 815.11 784.05 837.86 C757.48 862.93 699.69 904 661 904 C663.18 908.01 665.5 911.74 668.19 915.44 C687.68 943.14 699.33 976.41 712 1007.55 C718.45 1023.38 725.19 1038.99 732.43 1054.47 C734.37 1058.62 736.23 1062.78 738 1067 C738.52 1066.35 739.04 1065.69 739.58 1065.02 C745.45 1057.74 751.57 1050.77 758 1044 C758.56 1043.4 759.13 1042.8 759.71 1042.19 C776.37 1024.63 798.14 1006.48 823.49 1004.84 C846.4 1004.47 863.26 1007.88 880.34 1024.24 C900.69 1045.46 907.29 1076.96 907 1105.47 C906.04 1141.18 894.45 1173.7 869.46 1199.48 C867.95 1201.05 866.48 1202.67 865.01 1204.29 C857.51 1212.37 849.49 1217.71 839.84 1222.97 C837.49 1224.29 835.28 1225.77 833.06 1227.31 C825.08 1232.77 816.3 1236.22 807.19 1239.31 C806.2 1239.67 805.21 1240.03 804.19 1240.4 C791.77 1244.62 780.74 1243.03 768.12 1240.5 C751.18 1237.37 733.25 1234.82 717 1242 C715.98 1242.42 714.97 1242.83 713.92 1243.26 C705.82 1246.92 698.85 1251.8 691.62 1256.94 C682.75 1263.25 674.06 1268.81 664 1273 C663.11 1273.38 662.23 1273.75 661.32 1274.14 C647.7 1278.83 631.9 1276.3 618.18 1273.44 C607.87 1271.3 599.17 1271.89 588.89 1273.93 C578.16 1275.97 567.37 1274.97 556.56 1273.94 C554.57 1273.75 552.57 1273.58 550.58 1273.42 C538.65 1272.3 526.04 1270.59 517.59 1261.38 C514.22 1257.26 512.21 1252.57 510.04 1247.75 C507.58 1242.55 505.07 1239.38 499.68 1236.95 C492.6 1234.85 486.22 1234.32 478.92 1235.5 C474.52 1236.06 470.24 1236.17 465.81 1236.21 C464.04 1236.24 462.28 1236.27 460.51 1236.3 C457.75 1236.34 454.99 1236.38 452.23 1236.4 C449.55 1236.43 446.87 1236.47 444.19 1236.52 C443.37 1236.53 442.55 1236.53 441.71 1236.53 C436.43 1236.65 432.68 1237.5 428 1240 C425.22 1243.36 423.5 1247.03 421.62 1250.94 C416.6 1261.04 409.15 1267.39 398.46 1271.29 C388.95 1274.12 379.88 1275.13 370.02 1275.32 C369.07 1275.34 368.11 1275.36 367.13 1275.38 C364.02 1275.45 360.92 1275.5 357.81 1275.56 C356.75 1275.58 355.69 1275.6 354.59 1275.62 C341 1275.88 327.4 1276.12 313.81 1276.18 C312.3 1276.18 310.79 1276.19 309.28 1276.21 C281.12 1276.45 258.62 1269.84 236.6 1252.26 C223.57 1242.01 211.57 1235.19 194.58 1236.64 C189.79 1237.31 185.2 1238.67 180.56 1240 C164.85 1244.48 151.77 1244.57 136.34 1238.84 C133.63 1237.87 130.9 1237 128.16 1236.13 C105.15 1228.83 87.34 1218.7 70 1202 C69.22 1201.3 68.44 1200.59 67.64 1199.87 C46.24 1179.91 31.24 1145.83 29.84 1116.64 C29.44 1081.91 34.69 1051.28 59.5 1025.12 C74.3 1011.15 91.84 1006.11 111.79 1006.65 C127.89 1007.47 141.14 1014.39 153 1025 C153.51 1025.45 154.02 1025.89 154.54 1026.35 C159.88 1031.33 163.8 1037.22 167.78 1043.29 C168.92 1045.04 170.08 1046.78 171.24 1048.51 C176.53 1056.48 181.35 1064.65 186 1073 C186.46 1071.78 186.92 1070.55 187.4 1069.29 C193.84 1052.53 201.47 1036.6 212 1022 C212.68 1021.04 213.37 1020.08 214.07 1019.1 C223.03 1006.86 232.73 995.89 243.95 985.68 C245.99 983.81 248.01 981.92 250 980 C250.62 979.41 251.24 978.81 251.88 978.2 C257.28 972.58 259.72 966.22 262.44 959 C263.39 956.58 264.34 954.15 265.3 951.73 C265.76 950.57 266.22 949.41 266.69 948.21 C269.39 941.59 272.59 935.27 276 929 C276.37 928.32 276.74 927.64 277.12 926.94 C281.41 919.05 285.85 911.36 291 904 C290.28 903.83 289.56 903.66 288.83 903.49 C262.34 897.07 237.05 886.72 213 874 C212.22 873.59 211.43 873.17 210.62 872.75 C199.32 866.75 188.43 860.41 178 853 C176.95 852.26 175.91 851.52 174.83 850.76 C165.47 843.95 157.17 836.18 149 828 C148.39 827.44 147.78 826.87 147.15 826.29 C127.15 807.52 115.02 781.85 114.02 754.52 C113.85 735.59 119.64 718.04 132.8 704.21 C133.52 703.48 134.25 702.75 135 702 C135.54 701.45 136.08 700.89 136.64 700.32 C140.3 696.9 144.44 694.59 148.81 692.19 C162.77 684.48 172.41 673.42 177 658 C177.77 654.66 178.39 651.3 178.99 647.93 C179.16 646.96 179.34 646 179.52 645 C181.28 634.84 182.44 624.63 183.5 614.38 C183.71 612.39 183.92 610.4 184.14 608.42 C185.31 597.35 186.34 586.27 187.28 575.17 C189.93 543.61 196.56 515.85 207 486 C206.11 485.59 205.22 485.18 204.3 484.75 C180.26 473.62 156.61 461.84 134 448 C132.5 447.09 132.5 447.09 130.98 446.17 C86.69 419.2 46.67 386.69 10 350.12 C9.46 349.58 8.91 349.04 8.36 348.49 C2.88 343.03 -2.54 337.56 -7.57 331.67 C-9.56 329.34 -11.66 327.12 -13.75 324.88 C-18.5 319.67 -22.85 314.22 -27.16 308.65 C-29.03 306.23 -30.93 303.84 -32.87 301.48 C-81.48 242.1 -124.22 163.17 -117.53 84.19 C-114.79 57.13 -106.47 30.87 -85.34 12.71 C-60.35 -6.39 -29.64 -8.13 0 0 Z M820 73 C819.43 73.42 818.85 73.85 818.26 74.29 C806.76 82.82 795.97 92.22 785.37 101.85 C783.72 103.34 782.07 104.83 780.41 106.31 C776.08 110.17 771.86 114.09 767.79 118.24 C766.12 119.89 764.39 121.4 762.6 122.91 C757.09 127.71 751.94 132.87 746.78 138.03 C745.07 139.74 743.36 141.44 741.64 143.13 C734.98 149.77 728.8 156.58 723 164 C722.39 164.76 721.78 165.52 721.16 166.3 C713.75 175.55 706.67 184.94 700.31 194.94 C699.39 196.38 698.47 197.82 697.54 199.26 C681.52 224.01 668.39 249.98 659.36 278.05 C659.04 279.05 659.04 279.05 658.71 280.07 C653.82 295.25 649.41 310.57 645.09 325.92 C644.09 329.45 643.09 332.98 642.09 336.5 C640.32 342.72 638.56 348.94 636.81 355.16 C636.15 357.48 635.47 359.79 634.79 362.11 C633.84 365.6 633.59 368.39 634 372 C637.42 376.39 642.46 378.82 647.19 381.56 C656.63 387.13 665.85 392.98 675 399 C677.08 395.88 677.68 393.77 678.52 390.16 C678.82 388.95 679.11 387.74 679.41 386.49 C679.57 385.85 679.72 385.2 679.88 384.53 C696.92 314.42 731.81 247.03 777 191 C777.77 190.03 778.54 189.07 779.34 188.07 C783.85 182.47 788.56 177.09 793.45 171.8 C794.77 170.34 796.1 168.88 797.38 167.38 C802.89 160.91 808.88 154.93 814.89 148.93 C816.74 147.08 818.58 145.21 820.42 143.35 C827.31 136.43 834.33 130.06 842 124 C843.09 123.08 844.17 122.15 845.25 121.21 C860.41 108 876.95 96.61 894 86 C894.66 85.59 895.32 85.18 896 84.76 C913.05 74.27 935.02 64.54 955.41 68.7 C966.2 71.65 974.38 77.32 980.19 86.98 C993.47 112.27 985.1 147.59 977.27 173.42 C965.2 211.68 945.17 247.43 922 280 C921.49 280.72 920.98 281.44 920.45 282.17 C900.85 309.66 880.57 336.92 856.37 360.59 C854.83 362.12 854.83 362.12 853.06 364.5 C850.71 367.36 848.08 369.58 845.27 371.98 C842.74 374.23 840.38 376.59 838 379 C833.82 383.22 829.53 387.17 825 391 C824.04 391.82 823.09 392.64 822.11 393.49 C816.54 398.25 810.91 402.89 805.12 407.38 C799.35 411.85 793.82 416.56 788.33 421.37 C784.15 425.03 779.89 428.54 775.52 431.98 C772.47 434.43 769.48 436.96 766.5 439.5 C762.71 442.73 758.9 445.91 755 449 C750.96 452.2 747 455.49 743.06 458.81 C742.51 459.28 741.95 459.75 741.38 460.23 C737.48 463.41 737.48 463.41 734 467 C734.08 470.63 734.85 472.74 736.69 475.88 C738.8 478.2 738.8 478.2 741.56 478.45 C746.54 477.8 750.06 475.45 754.31 472.88 C756.2 471.76 758.08 470.65 759.97 469.54 C760.95 468.96 761.94 468.38 762.96 467.77 C767 465.42 771.09 463.17 775.19 460.91 C793.6 450.76 811.69 440.02 828.41 427.22 C830.94 425.28 833.5 423.4 836.06 421.5 C850.42 410.68 864.23 399.34 877.52 387.23 C879.58 385.38 881.66 383.55 883.75 381.74 C888.12 377.93 892.35 373.98 896.56 370 C897.28 369.33 897.99 368.65 898.73 367.96 C907.44 359.79 907.44 359.79 915.5 351 C917.7 348.44 919.95 346.03 922.38 343.69 C926.14 339.99 929.39 335.92 932.7 331.8 C934.8 329.24 936.99 326.8 939.25 324.38 C944.99 318.08 950.03 311.25 955.14 304.45 C956.91 302.11 958.72 299.81 960.52 297.5 C966.33 290.04 971.66 282.32 976.88 274.44 C977.52 273.46 977.52 273.46 978.19 272.46 C985.46 261.5 992.47 250.42 999 239 C999.66 237.85 999.66 237.85 1000.33 236.68 C1005.89 226.94 1011.14 217.07 1016.04 206.98 C1017 205 1017.98 203.03 1018.96 201.07 C1039.88 158.48 1054.5 103.88 1039.75 57.19 C1035.65 45.68 1029.6 36.63 1021 28 C1020.46 27.44 1019.92 26.87 1019.36 26.29 C1004.56 12.16 981.96 9.54 962.54 9.79 C913.4 11.17 858.29 44.28 820 73 Z M-27.25 87.06 C-34.82 97.37 -35.8 107.06 -35.56 119.44 C-35.55 120.64 -35.55 120.64 -35.54 121.87 C-35.39 134.32 -34.48 146 -31 158 C-30.73 158.97 -30.46 159.95 -30.19 160.95 C-24.28 182.23 -16.24 202.65 -5.95 222.19 C-5 224 -4.07 225.82 -3.15 227.64 C12.34 257.81 33.58 285.13 55.62 310.75 C56.15 311.36 56.68 311.98 57.22 312.61 C60.49 316.38 63.9 319.95 67.46 323.46 C69.19 325.19 70.8 327 72.38 328.88 C78.04 335.43 84.21 341.43 90.78 347.06 C92.98 348.99 95.13 350.96 97.27 352.95 C103.32 358.56 109.53 363.88 116 369 C116.65 369.52 117.3 370.04 117.98 370.57 C127.76 378.35 137.7 385.78 148.09 392.73 C149.95 393.97 151.81 395.22 153.66 396.48 C165.51 404.48 177.65 412.03 189.77 419.61 C190.76 420.22 191.75 420.84 192.77 421.48 C194.8 422.74 196.82 424 198.84 425.26 C204 428.47 209.13 431.72 214.21 435.07 C215.7 436.04 215.7 436.04 217.22 437.04 C219.11 438.27 221 439.52 222.87 440.78 C228.89 444.79 228.89 444.79 236 445 C236.33 444.34 236.66 443.68 237 443 C235.24 438.24 233.01 434.2 230.19 429.97 C229.83 429.43 229.47 428.88 229.09 428.32 C227.92 426.56 226.74 424.81 225.56 423.06 C225.16 422.46 224.76 421.86 224.34 421.25 C211.07 401.47 196.55 382.39 180.22 365.02 C174.93 359.38 170.65 353.83 167 347 C167.56 347.57 168.11 348.14 168.69 348.72 C169.45 349.49 170.21 350.27 171 351.06 C172.11 352.19 172.11 352.19 173.25 353.35 C176.08 356.08 179 358.65 181.97 361.23 C192.12 370.1 201.72 379.6 211.28 389.11 C212.37 390.19 213.46 391.26 214.55 392.34 C224.11 401.79 232.55 411.88 240.56 422.69 C241.09 423.4 241.63 424.11 242.17 424.85 C243.45 426.56 244.73 428.28 246 430 C246.66 429.67 247.32 429.34 248 429 C248.56 422.71 247.06 419.48 243.69 414.44 C243.02 413.4 243.02 413.4 242.33 412.34 C235.78 402.41 228.33 393.21 220.27 384.48 C218.41 382.45 216.61 380.39 214.82 378.31 C211.24 374.22 207.48 370.35 203.62 366.52 C202.56 365.47 202.56 365.47 201.49 364.4 C199.98 362.89 198.47 361.38 196.95 359.88 C194.56 357.49 192.16 355.1 189.76 352.71 C184.68 347.64 179.59 342.57 174.5 337.5 C168.6 331.62 162.7 325.74 156.8 319.86 C154.45 317.51 152.1 315.17 149.74 312.83 C148.29 311.38 146.84 309.93 145.38 308.48 C144.74 307.84 144.09 307.2 143.43 306.54 C139.62 302.74 136.02 298.81 132.51 294.73 C130.55 292.48 128.45 290.4 126.29 288.34 C116.83 279.14 108.05 270.2 101 259 C108.89 265.09 115.72 272.41 122.2 279.97 C127.69 286.15 133.67 291.86 139.95 297.23 C142.28 299.24 144.54 301.3 146.81 303.38 C150.3 306.52 153.85 309.55 157.5 312.5 C162.02 316.16 166.37 319.97 170.67 323.88 C172.76 325.78 174.87 327.65 177 329.5 C180.9 332.89 184.73 336.36 188.57 339.82 C190.66 341.69 192.76 343.54 194.88 345.38 C200.34 350.15 205.71 355.03 211 360 C211.9 360.84 211.9 360.84 212.83 361.7 C221.79 370.12 229.18 378.77 235.81 389.13 C237.62 391.97 239.5 394.76 241.38 397.56 C242 398.52 242.63 399.47 243.28 400.45 C244.76 402.64 246.29 404.76 247.88 406.88 C249.93 409.9 251.06 412.48 252 416 C252.33 416 252.66 416 253 416 C253.52 407.46 251.99 399.55 250.12 391.25 C249.97 390.56 249.82 389.87 249.66 389.15 C244.39 365.5 236.19 342.98 226 321 C225.2 319.24 224.4 317.48 223.61 315.72 C217.48 302.39 210.4 289.66 203 277 C202.5 276.13 201.99 275.27 201.48 274.38 C182.25 241.4 159.8 209.32 133.96 181.14 C132.17 179.19 130.42 177.2 128.69 175.19 C120.84 166.21 112.67 157.57 104.25 149.12 C103.55 148.42 102.86 147.72 102.14 147 C97.59 142.46 92.87 138.18 88 134 C86.92 133.05 85.84 132.1 84.75 131.15 C58.31 108.08 23.96 78.16 -13.01 79.83 C-18.93 80.35 -23.2 82.84 -27.25 87.06 Z M827 153 C824.27 155.74 821.53 158.46 818.77 161.16 C812.54 167.27 806.6 173.4 801.18 180.26 C799.25 182.68 797.26 185.03 795.23 187.37 C768.56 218.23 746.9 253.99 728 290 C727.3 291.34 727.3 291.34 726.58 292.7 C710.84 322.88 699.37 354.29 691.81 387.44 C691.61 388.31 691.41 389.19 691.2 390.09 C690.62 392.6 690.07 395.11 689.52 397.62 C689.26 398.74 689.26 398.74 689 399.87 C688.03 404.52 687.92 408.29 689 413 C690.92 415.89 690.92 415.89 693 418 C696.56 416.81 696.69 416.25 698.35 413.05 C698.78 412.23 699.22 411.41 699.67 410.56 C700.36 409.23 700.36 409.23 701.06 407.88 C710.06 391.06 720.74 375.53 733.7 361.51 C734.9 360.2 736.1 358.88 737.25 357.51 C742.91 350.82 749.17 344.72 755.38 338.55 C757.48 336.46 759.57 334.38 761.66 332.29 C766.86 327.1 772.06 321.93 777.26 316.75 C781.66 312.37 786.07 307.98 790.47 303.59 C792.52 301.54 794.57 299.5 796.63 297.46 C802.64 291.48 808.54 285.5 814 279 C815.8 276.99 817.62 274.99 819.44 273 C820.3 272.05 821.17 271.1 822.06 270.12 C822.7 269.42 823.34 268.72 824 268 C822.64 270.88 821.09 273.39 819.2 275.95 C818.36 277.09 818.36 277.09 817.51 278.24 C816.91 279.05 816.31 279.86 815.69 280.69 C814.76 281.95 814.76 281.95 813.8 283.23 C804.79 295.36 795.71 307.42 786 319 C785.57 319.52 785.14 320.03 784.7 320.56 C779.26 327.06 773.74 333.47 768.05 339.74 C765.6 342.45 763.2 345.19 760.8 347.95 C758.77 350.26 756.7 352.54 754.62 354.81 C750.69 359.16 746.99 363.67 743.31 368.23 C741 371 738.59 373.62 736.12 376.25 C727.26 385.95 719.99 396.75 712.94 407.81 C712.1 409.1 712.1 409.1 711.24 410.42 C707.65 416.16 705.84 421.28 705 428 C708.05 426.68 709.75 425.41 711.7 422.73 C712.18 422.07 712.66 421.42 713.16 420.75 C713.66 420.05 714.17 419.35 714.69 418.62 C715.76 417.16 716.84 415.7 717.91 414.23 C718.7 413.15 718.7 413.15 719.51 412.04 C728.72 399.42 738.08 386.91 748.73 375.46 C750.75 373.27 752.7 371.03 754.62 368.75 C760.27 362.29 766.58 357.28 774 353 C772.82 356.53 770.92 359.26 768.84 362.3 C768.2 363.24 768.2 363.24 767.55 364.19 C766.16 366.23 764.77 368.27 763.38 370.31 C762.41 371.73 761.45 373.14 760.49 374.55 C758.1 378.07 755.7 381.57 753.31 385.08 C751.45 387.81 749.59 390.54 747.73 393.28 C742.97 400.27 738.21 407.26 733.4 414.22 C730.25 418.8 727.11 423.39 724 428 C723.31 429.03 722.61 430.06 721.89 431.12 C718.67 436.15 716.8 439.95 717 446 C718.52 449.99 720.93 453.06 724 456 C725.27 454.89 725.27 454.89 726.57 453.76 C734.24 447.11 742.05 440.7 750.08 434.49 C752.14 432.89 754.19 431.29 756.25 429.69 C761.61 425.52 766.97 421.35 772.33 417.19 C776.86 413.67 781.39 410.14 785.92 406.62 C787.86 405.11 789.81 403.6 791.75 402.1 C802.77 393.54 813.35 384.5 823.68 375.11 C825.16 373.76 826.66 372.43 828.17 371.11 C834.24 365.79 839.97 360.14 845.69 354.44 C846.5 353.63 847.3 352.83 848.14 352 C852.41 347.72 856.52 343.36 860.47 338.78 C862.55 336.37 864.71 334.03 866.88 331.69 C870.91 327.26 874.76 322.73 878.52 318.07 C880.37 315.78 882.23 313.51 884.1 311.24 C885.21 309.89 886.33 308.54 887.44 307.19 C887.94 306.58 888.44 305.98 888.96 305.36 C919.8 267.7 946.51 222.79 963 177 C963.31 176.15 963.62 175.3 963.93 174.42 C972.18 151.09 980.48 118.27 969.88 94.62 C966.24 88.06 960.64 82.7 953.37 80.44 C906.44 71.77 856.92 122.65 827 153 Z M443 263 C442.44 265.08 441.87 267.17 441.31 269.25 C441.13 269.91 440.95 270.58 440.77 271.26 C439.73 275.14 438.75 279.02 437.83 282.92 C431.39 310.18 419.37 336.24 394.78 351.68 C384.85 357.64 374.17 362.18 363.59 366.81 C320.34 385.76 278.21 409.87 249 448 C248.23 448.99 248.23 448.99 247.45 449.99 C215.63 491.01 203.04 534.85 200.43 586.02 C198.96 614.68 195.77 641.5 186.5 668.81 C186.13 669.9 185.76 671 185.39 672.12 C180.01 687.45 172.3 693.49 158.52 701.36 C143.05 710.4 134.48 723.32 129.25 740.45 C124.4 760.74 130.7 779.49 141.05 796.75 C146.31 805.21 152.7 812.43 159.6 819.55 C160.85 820.84 162.08 822.15 163.31 823.46 C218.13 880.7 318.3 905.09 433 920 C433.73 920.06 434.47 920.11 435.22 920.17 C517.52 926.42 606.17 911.93 768.79 832.67 C771.25 830.5 773.63 828.27 776 826 C776.96 825.1 777.93 824.2 778.92 823.27 C795.7 807.32 809.5 785.97 810.47 762.25 C810.76 741.04 801.06 727.62 787 713 C752.15 676.72 746.75 636.61 745.17 587.81 C743.24 530.38 731.88 479.72 691.56 436.75 C689.25 434.27 687.03 431.75 684.81 429.19 C681.85 425.85 678.77 422.87 675.36 419.99 C673.54 418.46 671.76 416.9 669.98 415.32 C655.56 402.56 639.89 392.21 623 383 C622.35 382.64 621.71 382.29 621.04 381.92 C599.62 370.31 576.49 362.23 553 356 C552.07 355.75 551.14 355.5 550.18 355.24 C522.91 348.07 495.32 346.38 467.28 346.26 C463.5 346.24 459.72 346.2 455.95 346.16 C448.63 346.09 441.32 346.04 434 346 C446.8 341.85 459.37 338.14 472.69 336.19 C476.53 335.63 480.36 335.01 484.19 334.4 C484.95 334.28 485.7 334.17 486.48 334.04 C502.32 331.55 517.98 328.74 533 323 C533 322.34 533 321.68 533 321 C515.01 316.54 483.61 309.19 466 318 C466 317.34 466 316.68 466 316 C466.66 315.79 467.33 315.57 468.01 315.36 C472.04 313.53 475.31 310.99 478.81 308.31 C479.52 307.78 480.23 307.24 480.96 306.69 C485.81 302.98 490.54 299.17 495 295 C491.29 295 490.37 295.98 487.44 298.19 C482.5 301.74 477.49 304.41 472 307 C461.98 311.75 452.81 316.3 444.8 324.16 C437.67 331.04 429.92 334.94 421 339 C421.47 338.36 421.95 337.71 422.43 337.05 C424.24 334.59 426.03 332.12 427.81 329.64 C428.98 328.03 430.15 326.43 431.32 324.83 C442.09 309.82 450.12 292.87 448 274 C446.98 270.17 445.67 266.6 444 263 C443.67 263 443.34 263 443 263 Z M630.57 911.98 C628.89 912.4 627.21 912.83 625.52 913.25 C624.2 913.59 624.2 913.59 622.86 913.93 C597.48 920.38 572.09 925.36 546.12 928.75 C545.36 928.85 544.59 928.95 543.8 929.06 C519.94 932.16 496.15 933.36 472.12 933.32 C469.26 933.31 466.4 933.32 463.54 933.34 C437.18 933.5 411.2 931.85 385.19 927.31 C384.46 927.19 383.74 927.07 382.99 926.94 C361.92 923.35 340.64 918.85 320.28 912.28 C315.84 910.92 312.5 910.83 308 912 C291.5 922.41 280.93 948.8 274.61 966.2 C270.9 976.16 265.13 984.03 258.19 992 C257.42 992.89 257.42 992.89 256.64 993.8 C252.76 998.24 248.7 1002.44 244.45 1006.52 C242.43 1008.56 240.57 1010.63 238.71 1012.8 C235.64 1016.33 232.41 1019.62 229.05 1022.88 C207.89 1043.44 198.02 1071.05 194 1100 C193.87 1100.92 193.74 1101.85 193.6 1102.8 C188.74 1145.06 201.17 1189.19 227.31 1222.67 C242.54 1241.82 262.01 1256.72 286.38 1261.69 C293.57 1262.31 300.91 1262.58 308 1261 C307.35 1257.02 306.13 1253.6 304.57 1249.89 C304.08 1248.72 303.6 1247.55 303.1 1246.35 C302.08 1243.92 301.06 1241.49 300.04 1239.06 C296.2 1229.8 293.65 1222.07 293.88 1212 C293.88 1211.23 293.89 1210.45 293.9 1209.65 C293.93 1207.77 293.96 1205.88 294 1204 C294.66 1204 295.32 1204 296 1204 C296.26 1204.83 296.53 1205.66 296.8 1206.52 C298.11 1210.31 299.65 1213.97 301.27 1217.64 C301.58 1218.36 301.9 1219.08 302.22 1219.82 C302.89 1221.34 303.56 1222.86 304.23 1224.37 C305.24 1226.66 306.24 1228.95 307.24 1231.24 C313.85 1248.18 313.85 1248.18 326 1261 C334.65 1263.88 344.54 1261.72 353 1259 C355.9 1256.1 355.47 1252.91 355.75 1249 C356.89 1236.54 360.33 1222.19 368 1212 C368.66 1211.67 369.32 1211.34 370 1211 C369.78 1212.29 369.57 1213.59 369.34 1214.92 C365.45 1235.18 365.45 1235.18 372 1254 C374.42 1256.92 375.41 1257.8 379 1259 C388.21 1259.78 395.52 1259.21 402.96 1253.49 C409.25 1247.78 412.47 1240.26 413.31 1231.88 C412.38 1220.32 405.08 1211.82 397 1204 C408.99 1206.97 418.16 1212.4 427 1221 C430.7 1217.3 430.23 1212.99 430.25 1208.06 C430.18 1186.93 419.78 1168.77 405.31 1153.81 C399.53 1148.07 393.22 1143.8 386 1140 C385.04 1139.48 384.08 1138.96 383.09 1138.43 C369.26 1131.76 352.99 1128.93 338 1126 C338 1125.34 338 1124.68 338 1124 C338.85 1123.73 338.85 1123.73 339.72 1123.45 C344.61 1121.86 349.31 1120.1 354 1118 C353 1112.37 351.96 1106.75 350.86 1101.14 C344.01 1065.98 339.81 1030.7 337 995 C337.66 995 338.32 995 339 995 C339.16 995.55 339.32 996.09 339.49 996.66 C341.02 1001.83 342.62 1006.97 344.27 1012.1 C350.5 1031.52 355.89 1050.9 359.74 1070.95 C359.89 1071.74 360.04 1072.53 360.2 1073.34 C360.94 1077.21 361.67 1081.09 362.38 1084.98 C363.76 1092.48 365.37 1099.87 367.46 1107.22 C367.66 1107.91 367.85 1108.6 368.05 1109.32 C369.64 1114.69 371.67 1119.47 376.45 1122.62 C377.38 1123.03 378.3 1123.45 379.25 1123.88 C380.3 1124.37 381.36 1124.86 382.44 1125.37 C383.62 1125.91 384.79 1126.45 386 1127 C395.03 1131.25 403.42 1135.39 411 1142 C411.6 1142.47 412.2 1142.94 412.81 1143.42 C428 1155.52 440 1176.9 443 1196 C443.71 1204.49 442.51 1212.65 441 1221 C458.02 1226.08 487.28 1225.57 504 1220 C503.97 1218.74 503.93 1217.48 503.89 1216.19 C503.4 1191.01 508.99 1169.07 526.73 1150.33 C527.48 1149.56 528.23 1148.79 529 1148 C529.61 1147.33 530.21 1146.67 530.84 1145.98 C539.13 1137.66 550.84 1132.9 561.33 1127.89 C566.17 1125.6 566.17 1125.6 570 1122 C570.85 1119.67 570.85 1119.67 571.35 1117.03 C571.56 1116.04 571.77 1115.06 571.99 1114.05 C572.2 1113.02 572.41 1112 572.62 1110.94 C572.95 1109.44 572.95 1109.44 573.28 1107.91 C581.23 1070.13 572.57 1025.37 557.83 990.17 C556.8 987.49 556.3 984.85 556 982 C557.69 983.64 559.35 985.31 561 987 C561.53 987.51 562.06 988.02 562.61 988.55 C581.24 1007.83 588.2 1043.12 589 1069 C589.08 1070.94 589.08 1070.94 589.16 1072.92 C589.52 1086.74 587.89 1100.36 586.28 1114.07 C585.92 1117.34 585.92 1117.34 586 1122 C588.97 1123.65 591.94 1125.3 595 1127 C591.54 1129.59 589.32 1130.8 585.38 1132.23 C583.74 1132.84 583.74 1132.84 582.06 1133.46 C580.91 1133.89 579.75 1134.31 578.56 1134.75 C554.79 1143.72 533.84 1155.82 522.69 1179.69 C519.57 1186.73 518.7 1193.4 518.88 1201 C518.89 1202.16 518.89 1202.16 518.9 1203.35 C518.93 1205.23 518.96 1207.12 519 1209 C523.25 1206.55 526.93 1203.72 530.72 1200.62 C533.08 1198.95 535.31 1198.03 538 1197 C537.47 1198.22 537.47 1198.22 536.93 1199.46 C535.61 1202.5 534.3 1205.54 532.98 1208.58 C532.42 1209.89 531.85 1211.2 531.28 1212.51 C530.45 1214.4 529.64 1216.3 528.82 1218.19 C528.33 1219.33 527.84 1220.46 527.33 1221.64 C524.84 1227.93 523.66 1233.43 523.69 1240.12 C523.67 1240.81 523.66 1241.5 523.64 1242.21 C523.63 1246.67 524.28 1249.46 527 1253 C532 1256.69 536.91 1257.16 543 1257.25 C544.01 1257.28 545.02 1257.3 546.06 1257.33 C550.39 1256.85 552.97 1255.03 556 1252 C556.53 1249.51 556.96 1247.08 557.33 1244.57 C557.58 1243.04 557.82 1241.5 558.06 1239.97 C558.44 1237.56 558.81 1235.16 559.17 1232.75 C561.2 1219.35 563.95 1207.57 573 1197 C573.33 1197.33 573.66 1197.66 574 1198 C573.62 1200.16 573.16 1202.3 572.69 1204.44 C569.96 1217.48 568.81 1230.43 568.56 1243.75 C568.53 1244.77 568.49 1245.8 568.46 1246.85 C568.41 1253.21 568.41 1253.21 571.4 1258.64 C574.73 1261.66 576.84 1262.54 581.39 1262.46 C592.64 1260.46 602.04 1252.91 608.53 1243.87 C614.69 1235.2 614.69 1235.2 620 1226 C620.99 1225.67 621.98 1225.34 623 1225 C622.81 1226.28 622.81 1226.28 622.62 1227.58 C622.15 1230.76 621.69 1233.94 621.24 1237.12 C621.04 1238.49 620.84 1239.86 620.63 1241.23 C620.34 1243.21 620.06 1245.19 619.78 1247.17 C619.6 1248.36 619.43 1249.55 619.25 1250.77 C618.95 1254.69 618.94 1257.53 621.28 1260.78 C627.67 1265.31 641.95 1262.61 649.24 1261.51 C675.25 1256.53 694.22 1242.73 709.06 1220.88 C718.07 1207.16 724.11 1192.63 729 1177 C729.22 1176.31 729.43 1175.63 729.66 1174.92 C743.92 1128.53 727.6 1079.97 710 1037 C709.69 1036.25 709.39 1035.5 709.07 1034.72 C696.68 1004.4 684 974.19 670.44 944.38 C669.99 943.37 669.53 942.36 669.07 941.33 C663.79 929.87 656.71 915.98 645 910 C639.9 909.58 635.46 910.7 630.57 911.98 Z M767 1052 C764.69 1054.73 762.45 1057.51 760.24 1060.32 C756.82 1064.42 753.02 1068.08 749.19 1071.79 C744.38 1076.65 745.81 1082.95 745.81 1089.44 C745.81 1090.44 745.81 1090.44 745.81 1091.46 C745.81 1102.3 746.39 1113.03 747.28 1123.84 C748.82 1142.64 747.5 1159.59 741.88 1177.62 C741.47 1178.93 741.07 1180.24 740.68 1181.54 C732.12 1209.2 732.12 1209.2 725 1221 C725.56 1221.04 726.12 1221.09 726.7 1221.14 C745.43 1222.66 745.43 1222.66 754.53 1224.22 C786.68 1229.7 816.75 1223.56 843.72 1205.14 C846.27 1203.2 848.64 1201.16 851 1199 C851.53 1198.52 852.06 1198.04 852.6 1197.54 C878.21 1173.96 892.27 1141.9 893.93 1107.21 C894.73 1080.29 886.93 1053.16 868.25 1033.29 C867.5 1032.53 866.76 1031.78 866 1031 C865.35 1030.34 864.7 1029.68 864.04 1029 C853.99 1019.48 841.53 1016.6 828.08 1016.7 C803 1017.4 783.15 1034.36 767 1052 Z M66 1039 C65.3 1039.68 64.6 1040.35 63.88 1041.05 C47.73 1057.73 42.61 1082.16 42.7 1104.61 C43.45 1139.78 58.73 1170.62 83.3 1195.32 C103.67 1214.51 133.45 1227.44 161.44 1227.57 C173.91 1227.2 186.34 1224.58 198.6 1222.41 C199.67 1222.22 199.67 1222.22 200.77 1222.03 C204.5 1221.37 204.5 1221.37 208 1220 C206.73 1215.99 205.26 1212.25 203.43 1208.46 C194.04 1188.8 186.64 1169.53 183 1148 C182.68 1146.12 182.68 1146.12 182.35 1144.2 C181.35 1137.13 180.95 1130.16 180.84 1123.02 C180.82 1121.94 180.82 1121.94 180.8 1120.84 C180.73 1117.2 180.69 1113.56 180.69 1109.93 C180.62 1101.03 179.1 1094 175 1086 C174.66 1085.28 174.32 1084.57 173.97 1083.83 C173.07 1081.95 172.14 1080.1 171.19 1078.25 C170.49 1076.89 169.8 1075.52 169.11 1074.16 C168.76 1073.48 168.41 1072.79 168.05 1072.09 C167 1070.01 165.99 1067.91 164.99 1065.81 C155.94 1046.94 143.95 1032.11 124.32 1023.88 C122.22 1023.14 120.16 1022.52 118 1022 C117.07 1021.77 116.14 1021.55 115.19 1021.31 C95.73 1019.4 79.77 1025.06 66 1039 Z " fill="#000000" transform="translate(129,4)"/>
<path d="M0 0 C8.17 6.4 11.86 14.71 13.29 24.8 C14.82 46.05 8.65 67.85 -4.84 84.41 C-7.06 86.95 -9.34 89.39 -11.71 91.8 C-12.39 92.5 -13.08 93.2 -13.79 93.92 C-24.06 103.69 -36.26 108.95 -49.71 112.8 C-50.67 113.1 -50.67 113.1 -51.65 113.41 C-59.3 114.86 -69.45 115.3 -76.17 111.05 C-83.51 105.08 -86.59 96.99 -87.58 87.73 C-88.91 58.6 -76.52 30.32 -58.03 8.31 C-42.54 -8.43 -19.58 -12.58 0 0 Z " fill="#000000" transform="translate(963.70703125,1101.203125)"/>
<path d="M0 0 C20.34 19.29 32.2 48.26 34.08 75.92 C34.27 86.97 32.53 97.51 24.88 105.94 C18.68 110.86 11.57 111.72 3.88 110.94 C-20.04 106.02 -39.27 94.45 -53.81 74.64 C-64.39 58.24 -69.59 36.22 -66.12 16.94 C-63.99 7.3 -58.91 -0.32 -50.55 -5.73 C-33.51 -14.24 -14.76 -11.89 0 0 Z " fill="#000000" transform="translate(280.125,1105.0625)"/>
<path d="M0 0 C-0.73 7.35 -4.48 10.45 -10 15 C-13.49 17.48 -17.11 19.73 -20.77 21.96 C-21.83 22.63 -22.9 23.31 -24 24 C-24.95 24.52 -25.91 25.05 -26.89 25.59 C-30.32 29.51 -29.65 33.72 -29.5 38.75 C-29.5 39.71 -29.51 40.68 -29.51 41.67 C-29.42 48.45 -28.79 54.58 -24.35 60.02 C-23.78 60.47 -23.21 60.92 -22.62 61.38 C-22.06 61.84 -21.5 62.3 -20.91 62.77 C-14.13 67.12 -5.87 67.71 1.94 66.38 C14.77 63.3 27.81 56.63 36 46 C39.35 40.42 41.9 34.8 43.56 28.5 C44.46 25.27 45 24 47.25 21.38 C53.14 18.43 58.77 20.16 64.75 22.07 C67.5 23.21 69.21 24.64 71 27 C70.39 29.36 70.39 29.36 69 32 C66.21 33.23 66.21 33.23 62.81 34.19 C55.35 36.82 52.86 40.35 49 47 C44.94 52.99 40.67 58.43 35.62 63.62 C25.8 73.97 19.86 87.07 13.62 99.74 C-2.44 132.28 -2.44 132.28 -19.31 138.94 C-28.85 141.63 -38.35 140.79 -47 136 C-58.18 129.08 -65.26 119.88 -70.87 108.19 C-77.75 93.89 -85.82 81.42 -95.96 69.2 C-100.13 64.15 -104.05 58.95 -107.88 53.62 C-108.43 52.86 -108.98 52.1 -109.54 51.31 C-112.33 47.42 -114.98 43.47 -117.56 39.44 C-120.97 34.47 -125.54 31.29 -130.43 27.91 C-133 26 -133 26 -135 23 C-135.31 20.44 -135.31 20.44 -135 18 C-129.96 14.64 -124.6 15.54 -118.78 16.57 C-109.12 18.8 -109.12 18.8 -107 22 C-106.99 24.35 -106.99 24.35 -107.31 27.06 C-107.48 34.48 -103.84 37.78 -99 43 C-98.04 44.15 -97.09 45.3 -96.15 46.46 C-85.04 60.49 -85.04 60.49 -69.2 67.34 C-62.15 67.43 -57.15 66.46 -51 63 C-50.05 62.53 -49.1 62.05 -48.12 61.56 C-43.91 58.46 -42.6 54.39 -41.81 49.38 C-40.13 38.74 -40.13 38.74 -42.62 28.56 C-46.05 24.87 -49.73 22.65 -54.19 20.38 C-59.7 17.28 -67.41 11.69 -69.95 5.81 C-69.96 5.21 -69.98 4.62 -70 4 C-69.34 3.34 -68.68 2.68 -68 2 C-63.74 2 -61.36 3.32 -58.12 5.88 C-49.39 12.68 -40.66 12.92 -30 12 C-22.32 10.37 -15.3 6.27 -8.39 2.64 C-3.31 0 -3.31 0 0 0 Z M-49 99 C-47.63 102.24 -46.5 104.57 -43.81 106.88 C-39.87 108.45 -37.25 108.41 -33 108 C-30.54 106.66 -30.54 106.66 -29 105 C-29.33 103.35 -29.66 101.7 -30 100 C-31.6 99.49 -33.21 99 -34.81 98.5 C-35.71 98.22 -36.6 97.94 -37.52 97.66 C-41.91 96.49 -44.82 97.51 -49 99 Z M-25.25 113.5 C-33.42 115.7 -41.61 115.25 -50 115 C-45.24 121.06 -41.14 124.27 -33.29 125.38 C-26.82 125.65 -21.48 124.52 -16 121 C-13.41 118.62 -13.41 118.62 -12 116 C-12 115.01 -12 114.02 -12 113 C-16.35 110.82 -20.82 112.1 -25.25 113.5 Z " fill="#000000" transform="translate(618,748)"/>
<path d="M0 0 C13.5 11.5 19.48 28.38 21.06 45.75 C22.19 65.53 19.02 83.28 12.06 101.75 C11.83 102.43 11.61 103.1 11.38 103.79 C10.68 105.71 10.68 105.71 9.06 108.75 C6.08 109.85 4.54 109.92 1.53 108.86 C0.64 108.39 -0.25 107.92 -1.16 107.44 C-2.16 106.92 -3.17 106.41 -4.2 105.88 C-5.81 105.04 -5.81 105.04 -7.44 104.19 C-23.92 95.96 -40.73 91.21 -58.94 88.75 C-60.07 88.6 -60.07 88.6 -61.21 88.44 C-77.59 86.29 -94.61 85.48 -111.03 87.53 C-114.67 87.95 -118.28 87.81 -121.94 87.75 C-115.89 80.73 -107.17 79.77 -98.5 78.07 C-96.83 77.73 -96.83 77.73 -95.13 77.38 C-92.4 76.83 -89.67 76.29 -86.94 75.75 C-87.35 75.29 -87.76 74.84 -88.18 74.36 C-88.72 73.75 -89.26 73.14 -89.82 72.5 C-90.35 71.9 -90.88 71.3 -91.43 70.68 C-92.92 68.78 -93.94 66.94 -94.94 64.75 C-82.04 64.06 -82.04 64.06 -78.13 66.75 C-77.05 67.74 -77.05 67.74 -75.94 68.75 C-75.32 60.78 -76.03 55.26 -79.95 48.23 C-81.15 45.25 -80.98 43.76 -79.94 40.75 C-76.09 38.37 -72.37 38.58 -67.94 38.75 C-68.48 37.38 -68.48 37.38 -69.04 35.98 C-69.5 34.79 -69.96 33.6 -70.44 32.38 C-70.91 31.2 -71.37 30.01 -71.85 28.79 C-72.94 25.75 -72.94 25.75 -72.94 23.75 C-68.98 24.08 -65.02 24.41 -60.94 24.75 C-61.64 20.13 -61.64 20.13 -63 17.63 C-63.94 15.75 -63.94 15.75 -63.94 12.75 C-63.19 12.63 -62.45 12.51 -61.68 12.38 C-55.96 11.4 -55.96 11.4 -51.6 7.98 C-51.03 6.6 -50.48 5.21 -49.95 3.82 C-47.07 -2.08 -39.83 -5.14 -33.94 -7.25 C-22.36 -10.6 -9.54 -6.98 0 0 Z M-45.94 23.75 C-56.84 38.2 -62.13 56.69 -60.94 74.75 C-60.28 75.74 -59.62 76.73 -58.94 77.75 C-56.06 78.09 -53.45 78.22 -50.57 78.19 C-49.8 78.21 -49.03 78.23 -48.24 78.25 C-44.59 78.25 -42.5 78.1 -39.36 76.14 C-37.38 72.8 -37.93 70.96 -38.69 67.19 C-41.19 52.7 -39.85 40.26 -32.73 27.19 C-29.05 22.19 -26.06 19.71 -19.98 18.61 C-18.18 18.37 -16.37 18.14 -14.57 17.94 C-13.18 17.76 -13.18 17.76 -11.76 17.58 C-9.49 17.28 -7.22 17.01 -4.94 16.75 C-8.02 12.57 -10.12 10.2 -15.32 9.38 C-27.91 9.06 -37.71 14.4 -45.94 23.75 Z " fill="#000000" transform="translate(462.94140625,624.24609375)"/>
<path d="M0 0 C1.73 2.42 1.31 3.98 0.89 6.88 C0.77 7.78 0.65 8.68 0.53 9.61 C0.42 10.3 0.32 10.98 0.21 11.69 C1.65 11.73 1.65 11.73 3.13 11.77 C4.39 11.83 5.66 11.88 6.96 11.94 C8.84 12.01 8.84 12.01 10.75 12.08 C14.61 12.76 15.82 13.67 18.21 16.69 C17.76 17.08 17.32 17.46 16.86 17.86 C16.29 18.38 15.73 18.9 15.14 19.44 C14.58 19.95 14.01 20.46 13.42 20.99 C11.94 22.65 11.94 22.65 12.52 24.89 C12.86 25.78 12.86 25.78 13.21 26.69 C13.89 26.82 14.58 26.96 15.29 27.09 C16.19 27.27 17.09 27.45 18.02 27.63 C18.91 27.8 19.81 27.98 20.73 28.16 C23.21 28.69 23.21 28.69 26.21 29.69 C24.87 33.29 23.21 36.42 21.21 39.69 C21.99 40.09 22.77 40.49 23.58 40.9 C24.59 41.43 25.6 41.96 26.64 42.5 C28.16 43.29 28.16 43.29 29.7 44.09 C32.21 45.69 32.21 45.69 33.21 48.69 C31.48 51.59 29.33 54.05 27.21 56.69 C31.5 57.35 35.79 58.01 40.21 58.69 C40.54 60.01 40.87 61.33 41.21 62.69 C38.24 64.67 35.27 66.65 32.21 68.69 C33.4 68.96 34.6 69.23 35.83 69.5 C37.06 69.78 37.06 69.78 38.32 70.07 C40.37 70.51 42.44 70.92 44.5 71.32 C55 73.37 65.44 75.92 73.21 83.69 C73.21 84.02 73.21 84.35 73.21 84.69 C72.15 84.68 71.1 84.67 70.01 84.66 C26.58 84.27 -15.58 85.61 -55.99 103.49 C-58.79 104.69 -58.79 104.69 -61.54 104.82 C-64.93 103.12 -65.58 100.09 -66.79 96.69 C-67.6 94.05 -68.27 91.38 -68.92 88.69 C-69.09 88.02 -69.26 87.35 -69.43 86.65 C-73.77 68.93 -73.82 48.99 -67.79 31.69 C-67.45 30.64 -67.11 29.6 -66.77 28.52 C-61.88 15.12 -52.3 4.33 -39.92 -2.62 C-27.69 -8.22 -11.12 -8.12 0 0 Z M-50.79 28.69 C-56.55 39.13 -57.68 51.65 -54.67 63.19 C-53.03 67.78 -50.8 71.79 -46.79 74.69 C-43.25 75.29 -41.11 75.62 -38.1 73.5 C-36.26 70.96 -36.48 69.21 -36.57 66.1 C-36.59 64.98 -36.61 63.87 -36.63 62.72 C-36.66 61.56 -36.7 60.39 -36.73 59.19 C-37.07 46.58 -37.13 34.88 -28.79 24.69 C-23.04 19.49 -16.09 17.01 -8.79 14.69 C-8.79 14.03 -8.79 13.37 -8.79 12.69 C-26.33 3.6 -40.35 13.79 -50.79 28.69 Z " fill="#000000" transform="translate(767.79296875,622.30859375)"/>
<path d="M0 0 C0.62 0.27 1.24 0.55 1.88 0.83 C18.33 8.21 32.98 18.77 47 30 C47.94 30.75 48.88 31.5 49.86 32.27 C55.57 36.87 61.04 41.69 66.43 46.65 C68.68 48.7 70.95 50.7 73.25 52.69 C76.39 55.41 79.31 58.29 82.22 61.25 C84.08 63.08 86.02 64.75 88 66.44 C93.06 70.81 98.41 75.7 101 82 C100.62 84.25 100.62 84.25 100 86 C96.56 85.41 94.75 84.21 92.19 81.88 C91.14 80.93 91.14 80.93 90.07 79.96 C87.58 77.6 85.17 75.18 82.76 72.73 C80.39 70.4 77.88 68.24 75.36 66.07 C72.98 63.99 70.67 61.85 68.36 59.69 C63.02 54.71 57.62 49.89 51.91 45.33 C49.81 43.65 47.74 41.96 45.68 40.23 C33 29.72 19.33 20.66 4.81 12.88 C4.15 12.52 3.5 12.17 2.82 11.8 C-7.85 6.27 -18.81 3.81 -30.75 6.66 C-33.04 7.58 -34.95 8.63 -37 10 C-37.67 10.42 -38.34 10.83 -39.04 11.26 C-46.3 16.59 -49.42 25.02 -53 33 C-53.69 34.5 -53.69 34.5 -54.39 36.04 C-55.28 38.02 -56.15 40.01 -57 42 C-57.33 42 -57.66 42 -58 42 C-57.73 27.69 -54.27 14.04 -44.41 3.27 C-31.71 -8.78 -14.87 -6.63 0 0 Z " fill="#000000" transform="translate(173,123)"/>
<path d="M0 0 C3.71 2.92 5.67 5.22 6.24 9.99 C6.63 22.2 2.55 33.46 -5 43 C-8.75 46.84 -11.95 49.14 -17.38 49.31 C-20.77 49.29 -21.7 49.23 -24.5 47.12 C-28.41 41.59 -27.6 34.53 -27 28 C-25 18.31 -20.76 8.36 -12.62 2.38 C-8.11 -0.29 -5.17 -0.95 0 0 Z " fill="#000000" transform="translate(976,1041)"/>
<path d="M0 0 C9.36 3.89 13.4 9.81 17.21 18.89 C20.07 26.65 22.95 36.1 19.69 44.12 C18.01 46.99 17.04 48.59 13.94 49.81 C8.67 50.15 4.12 48.77 0.04 45.37 C-8.24 36.44 -12.2 25.18 -13.38 13.19 C-12.82 8.43 -11.49 4.6 -8.19 1.06 C-5.02 -0.48 -3.53 -0.59 0 0 Z " fill="#000000" transform="translate(221,1041)"/>
<path d="M0 0 C12.64 9.05 25.61 22.16 30.63 37.16 C31 39.43 31.04 41.57 31.01 43.86 C31 44.66 30.99 45.46 30.98 46.28 C30.97 46.88 30.96 47.49 30.95 48.11 C27.19 44.52 24.01 40.7 20.88 36.55 C8.79 20.94 -5.64 7.23 -26.05 4.11 C-28.71 4.01 -31.34 3.97 -33.99 3.98 C-34.73 3.99 -35.47 3.99 -36.23 3.99 C-43.2 4.04 -50.11 4.49 -57.05 5.11 C-59.05 2.11 -59.05 2.11 -59.05 0.17 C-56.93 -4.22 -52.24 -6.01 -47.87 -7.64 C-31.68 -12.06 -14.06 -8.77 0 0 Z " fill="#000000" transform="translate(781.0546875,543.890625)"/>
<path d="M0 0 C2.98 2.43 4.51 3.87 5.74 7.57 C5.41 8.23 5.08 8.89 4.74 9.57 C3.34 9.6 1.95 9.62 0.55 9.63 C-0.23 9.64 -1 9.66 -1.8 9.67 C-4.26 9.57 -4.26 9.57 -6.5 9.09 C-21.21 6.34 -36.26 8.68 -48.86 16.82 C-59.67 24.72 -68.34 34.87 -76.44 45.44 C-78.22 47.52 -80.01 49.02 -82.26 50.57 C-78.83 31.72 -69.02 16.33 -53.57 5.03 C-38.78 -4.32 -15.87 -10.03 0 0 Z " fill="#000000" transform="translate(448.26171875,539.4296875)"/>
<path d="M0 0 C0 0.66 0 1.32 0 2 C-1.95 3.52 -3.9 4.92 -5.94 6.31 C-32 24.51 -57.63 45.43 -78 70 C-78.79 70.95 -79.58 71.89 -80.39 72.87 C-81.69 74.43 -83 76 -84.3 77.56 C-94.77 90.13 -94.77 90.13 -101 95 C-102 92 -102 92 -100.88 89.07 C-96.67 80.67 -91.97 73.3 -86 66 C-85.59 65.49 -85.17 64.97 -84.75 64.44 C-72.51 49.26 -58.51 34.84 -43 23 C-42.21 22.35 -41.42 21.69 -40.61 21.02 C-29.71 11.96 -14.79 -0.41 0 0 Z " fill="#000000" transform="translate(988,165)"/>
<path d="M0 0 C7.22 5.28 14.01 12.5 15.79 21.54 C16.07 25.54 15.53 27.25 13 30.38 C8.9 33.6 6.23 33.84 1.11 33.79 C-5.75 32.91 -11.81 28.15 -16.62 23.44 C-21.21 17.35 -24.11 12.41 -24.04 4.66 C-23.55 2.03 -22.88 1.17 -20.88 -0.56 C-13.91 -4.85 -6.9 -4.34 0 0 Z " fill="#000000" transform="translate(199.625,1079.5625)"/>
<path d="M0 0 C2.62 1.69 2.62 1.69 4.62 4.69 C5.86 10.56 4.8 15.18 1.81 20.31 C-3.14 27.42 -10.13 32.9 -18.38 35.69 C-23.62 36.16 -26.92 35.52 -31.38 32.69 C-33.31 31.06 -33.31 31.06 -34.38 28.69 C-35.01 21.28 -31.78 15.41 -27.38 9.69 C-19.81 1.58 -11.29 -4.39 0 0 Z " fill="#000000" transform="translate(1009.375,1077.3125)"/>
<path d="M0 0 C5.38 3.38 7.58 6.86 9 13 C10.68 22.33 10.26 31.82 5 40 C0.7 43.88 -2.07 45.44 -7.97 45.34 C-11.57 44.74 -12.91 42.86 -15 40 C-17.6 34.15 -18.5 29.37 -18.44 23 C-18.46 22.24 -18.48 21.49 -18.5 20.71 C-18.49 14.47 -16.91 9 -12.48 4.43 C-8.25 0.82 -5.59 -0.64 0 0 Z " fill="#000000" transform="translate(268,1043)"/>
<path d="M0 0 C5.38 2.74 8.59 6.24 10.72 11.93 C13.27 21.12 12.25 31.5 8 40 C5.32 43.58 4.06 44.82 -0.38 45.56 C-4.59 44.91 -7.82 43.84 -11 41 C-16.7 32.6 -16.94 22.82 -16 13 C-14.82 8.24 -12.95 5.06 -9.69 1.44 C-6.13 -0.47 -3.99 -0.56 0 0 Z " fill="#000000" transform="translate(929,1043)"/>
<path d="M0 0 C1.37 1.02 2.73 2.06 4.06 3.12 C5.09 3.89 5.09 3.89 6.13 4.67 C10.81 8.35 10.81 8.35 12 12 C12.02 12.7 12.04 13.4 12.06 14.12 C8.91 15.11 7.44 15.28 4.34 14.02 C2.9 13.2 2.9 13.2 1.44 12.38 C-14.04 4.17 -31.24 3.01 -47.94 8.12 C-51.36 9.55 -54.69 11.15 -57.96 12.88 C-62.44 15.17 -62.44 15.17 -65.3 14.89 C-66.94 14.12 -66.94 14.12 -67.94 13.12 C-67.79 9.26 -67.65 6.91 -65 4 C-45.8 -7.76 -20.15 -12.87 0 0 Z " fill="#000000" transform="translate(609.9375,714.875)"/>
<path d="" fill="#000000" transform="translate(0,0)"/>
</svg>
