<?xml version="1.0" encoding="utf-8"?>
<!-- Generator: Adobe Illustrator 23.0.1, SVG Export Plug-In . SVG Version: 6.00 Build 0)  -->
<svg version="1.0" id="Слой_1" xmlns="http://www.w3.org/2000/svg" xmlns:xlink="http://www.w3.org/1999/xlink" x="0px" y="0px"
	 viewBox="0 0 720 720" style="enable-background:new 0 0 720 720;" xml:space="preserve">
<style type="text/css">
	.st0{fill:#1D1F1E;}
</style>
<g id="Слой_14">
	<path class="st0" d="M506.1,127.9c13.2,0,23.8-10.7,23.8-23.8c0-13.2-10.7-23.8-23.8-23.8c-13.2,0-23.8,10.7-23.8,23.8
		C482.3,117.2,492.9,127.9,506.1,127.9"/>
</g>
<g id="Слой_13">
	<path class="st0" d="M215.4,80.2c-13.2,0-23.8,10.7-23.8,23.8c0,13.2,10.7,23.8,23.8,23.8c13.2,0,23.8-10.7,23.8-23.8
		C239.2,90.9,228.5,80.2,215.4,80.2"/>
</g>
<g id="Слой_12">
	<path class="st0" d="M586.3,447.5c-24.8-9-61.4,5.9-79.8,25.8c-4.8-11-10.7-21.4-17.7-31.1c84.6-28.8,142.2-85.2,142.2-149.9
		c0-48.3-32.1-91.9-83.4-122.9c28.6-20.9,41.2-62.4,28.1-95.5c-13.8-34.9-55-57.1-91.8-49.4c-13,2.7-25,8.6-34.6,17
		c-13.8,12-22.1,29.4-24.1,47.4c-2.2-0.8-4.4-1.6-6.5-2.3c-15.8-5.4-32.3-8.5-49.1-9.3c-36.2-1.6-63.7,8.1-73.3,12.1
		c-1.9-18.2-10.3-35.8-24.2-47.9c-9.7-8.4-21.7-14.3-34.6-17c-36.8-7.7-78,14.4-91.8,49.4c-13.1,33.1-0.5,74.6,28.1,95.5
		c-51.4,31-83.4,74.6-83.4,122.9c0,63.9,56.2,119.6,139,148.8c-7,9.5-12.9,19.8-17.8,30.6c-18.2-20.3-55.4-35.7-80.5-26.6
		c-25.6,9.3-44,35.9-43.7,63.2c0.2,20.8,10.4,42.1,28.5,60c13.1,12.9,28.4,22.6,43,31.2c2.8,1.6,3.1,4.5,2.5,6.4
		c-0.3,0.9-1.3,3.9-5.2,3.8c-0.5,0-1-0.1-1.5-0.2c-1.8-0.5-3.7-1.4-5.6-2.4c-3-1.5-6.5-3.3-10.5-3.4c-6.3-0.3-12.4,4.3-14.2,10.4
		c-1.3,4.5-0.1,9.5,2.8,13.1c-4.1,3.6-7.3,8.8-6.9,13.8c0.4,4.8,2.8,9.2,6.6,11.8c2.4,1.6,5.2,2.4,7.9,2.2c0.2,4.5,2.1,9.6,5.4,12.4
		c1.1,0.9,3.2,2.3,6.2,2.3c2.3,0,5.1-0.8,8.3-3.4c9.4-7.5,23.5-13,38.5-18.9c1.7-0.7,3.5-1.4,5.2-2.1c-2,1.5-3.8,3.2-5.3,4.8
		c-5.9,6.6-6.2,17.3-0.6,24.2c4.8,6,13.4,8.4,20.6,6.1c6.2,9.6,17.2,15.6,28.4,15.6c1.1,0,2.3-0.1,3.4-0.2
		c14.1-1.6,26.8-12.7,32.4-28.4c2.6-7.4,3.6-15.1,3.8-22.6c7.8,7.5,18.6,11.4,26.7,13.7c14.8,4.3,32.5,6.7,50.5,6.7
		c28.1,0,57.2-5.9,77.8-19.8c0.2,7.3,1.2,14.8,3.8,22c5.6,15.7,18.3,26.8,32.4,28.4c1.1,0.1,2.3,0.2,3.4,0.2
		c11.2,0,22.2-6,28.4-15.6c7.3,2.3,15.8,0,20.6-6.1c5.5-6.9,5.3-17.6-0.6-24.2c-0.2-0.2-0.4-0.4-0.6-0.7c0.2,0.1,0.4,0.2,0.6,0.2
		c15,5.9,29.1,11.4,38.5,18.9c3.2,2.6,6,3.4,8.3,3.4c3,0,5.1-1.4,6.2-2.3c3.3-2.8,5.1-7.9,5.4-12.4c2.7,0.1,5.6-0.6,7.9-2.2
		c3.8-2.5,6.2-6.9,6.6-11.8c0.4-5-2.8-10.2-6.9-13.8c2.9-3.6,4.1-8.6,2.8-13.1c-1.7-6.1-7.8-10.5-14.2-10.4c-4,0.1-7.4,1.9-10.4,3.4
		c-2,1-3.8,1.9-5.6,2.4c-0.5,0.1-1,0.2-1.5,0.2c-3.8,0.2-4.9-2.9-5.2-3.8c-0.6-2-0.3-4.8,2.5-6.4c14.6-8.6,30-18.3,43-31.2
		c18.2-17.9,28.3-39.2,28.5-60C630.3,483.4,612,456.8,586.3,447.5 M453.9,46.8c8.8-7.6,19.7-13,31.5-15.5
		c33.6-7.1,71.3,13.2,83.9,45.2c12.4,31.2-0.3,70.6-28.3,89.1c-28.9-16.3-63.3-28.8-101.3-36.1c-0.1-0.2-0.2-0.4-0.3-0.6
		c-5.5-9.9-8-21.1-7.9-32.4c0.2-0.3,0.4-0.6,0.6-0.9c0.5-1.1,0.3-2.4-0.4-3.3C433.1,75,440.7,58.2,453.9,46.8 M414.6,92.6
		c-4.5,6.3-11.8,10.1-19.7,10.1c-11.4,0-20.9-7.6-23.6-18.3C386.1,85.2,400.6,87.9,414.6,92.6 M368.9,84.2c2.7,12,13.3,20.8,26,20.8
		c9,0,17.1-4.4,22.1-11.7c2.6,0.9,5.2,1.9,7.8,2.9c-0.2,10.9,1.9,21.8,6.5,31.7c-22.5-3.8-46.1-5.9-70.5-5.9
		c-24.4,0-48,2.1-70.5,5.9c4.5-9.7,6.7-20.4,6.5-31.1C302.6,94.2,331.1,82.7,368.9,84.2 M152.1,76.5c12.7-32,50.3-52.2,83.9-45.2
		c11.8,2.5,22.7,7.8,31.5,15.5c22.7,19.7,29,55.8,14.4,82.1c-0.1,0.2-0.2,0.4-0.3,0.6c-38,7.3-72.4,19.8-101.3,36.1
		C152.5,147.1,139.8,107.7,152.1,76.5 M97.3,292.3c0-46.9,32.1-89.2,83.3-119.1c0,0,0,0,0,0c1.2,0,2.3-0.6,3-1.7c0,0,0-0.1,0-0.1
		c46.8-26.4,109-42.5,177.1-42.5c68.1,0,130.3,16.1,177.1,42.5c0,0,0,0.1,0,0.1c0.7,1.1,1.8,1.7,3,1.7c0,0,0,0,0,0
		c51.2,29.8,83.3,72.2,83.3,119.1c0,90.1-118.2,163.3-263.4,163.3C215.5,455.6,97.3,382.4,97.3,292.3 M190.8,640.9
		c-15.5,6.1-30.1,11.8-40.3,20c-3.7,2.9-5.1,1.7-5.7,1.2c-2.7-2.3-3.5-8.7-2.6-10.3c0.8-1.4,0.5-3.1-0.7-4.2
		c-1.2-1.1-2.9-1.2-4.2-0.4c-1.8,1.1-4.5,1-6.4-0.3c-2-1.3-3.3-3.8-3.5-6.5c-0.2-3.3,3.6-7.9,7.3-10.1c1.1-0.6,1.7-1.8,1.7-3
		c0-1.2-0.7-2.4-1.7-3c-2.8-1.6-4.3-5.3-3.4-8.4c0.9-3,4-5.4,7.1-5.4c0.1,0,0.1,0,0.2,0c2.4,0.1,4.9,1.3,7.5,2.7
		c2.2,1.1,4.5,2.3,7.1,2.9c0.9,0.2,1.9,0.4,2.9,0.4c5.6,0.2,10.5-3.3,12.1-8.7c1.7-5.6-0.6-11.4-5.6-14.3
		c-14.2-8.3-29.1-17.8-41.7-30.1c-16.8-16.6-26.2-36.2-26.5-55.2c-0.3-24.4,16.2-48.2,39.1-56.6c22.9-8.3,58.8,7.3,74.5,26.4
		c0.2,0.3,0.5,0.5,0.7,0.6c-7.4,18.5-11.6,38.3-12.2,58.1c-1,31.9,7.3,64,23.4,91.6C210.9,633,200.7,637,190.8,640.9 M519.4,670
		c-3.4,4.3-10.2,5.7-15,3c-0.8-0.4-1.8-0.6-2.7-0.3c-0.9,0.3-1.6,0.9-2.1,1.7c-4.9,9.6-16.1,15.7-26.5,14.5
		c-13-1.5-22.8-13.1-26.7-23.9c-4.6-12.8-3.7-27.2-2.2-39.6c0.4-3,0.8-6,1.2-9c1.5-10.8,3-21.9,2.4-33
		c-1.9-31.7-22.8-61.4-52.1-73.8c-1.8-0.7-3.8,0.1-4.5,1.8c-0.7,1.8,0.1,3.8,1.8,4.5c26.9,11.4,46.1,38.6,47.9,67.8
		c0.6,10.5-0.9,21.2-2.3,31.7c-0.4,3-0.8,6.1-1.2,9.1c-0.5,3.9-0.9,8-1.1,12.1c-31.5,24.4-88.6,26-126.6,15
		c-9.3-2.7-22.4-7.5-28.5-17.9c-0.1-0.2-0.3-0.4-0.5-0.6c-0.2-2.9-0.5-5.8-0.9-8.6c-0.4-3-0.8-6.1-1.2-9.1
		c-1.4-10.4-2.9-21.2-2.3-31.7c1.7-29.2,21-56.4,47.9-67.8c1.8-0.7,2.6-2.8,1.8-4.5c-0.7-1.8-2.8-2.6-4.5-1.8
		c-29.3,12.4-50.2,42-52.1,73.8c-0.7,11.2,0.9,22.3,2.4,33c0.4,3,0.8,6,1.2,9c1.5,12.3,2.5,26.7-2.2,39.6
		c-3.9,10.8-13.6,22.4-26.7,23.9c-10.4,1.2-21.6-4.9-26.5-14.5c-0.4-0.8-1.2-1.5-2.1-1.7c-0.9-0.3-1.9-0.2-2.7,0.3
		c-4.8,2.7-11.6,1.3-15-3c-3.4-4.3-3.3-11.2,0.4-15.3c8.3-9.4,30-17.5,30.2-17.5c1-0.4,1.8-1.2,2.1-2.2c0.3-1,0.2-2.1-0.4-3
		c-18.4-27.9-27.9-61.7-26.9-95.1c1-33.4,12.6-66.5,32.6-93.3c0.1-0.1,0.1-0.2,0.2-0.4c37.3,12.2,79.6,19.2,124.5,19.2
		c43.6,0,84.8-6.5,121.2-18.1c19.7,26.6,31.1,59.4,32.1,92.5c1,33.4-8.6,67.1-26.9,95.1c-0.6,0.9-0.7,2-0.4,3c0.3,1,1.1,1.8,2.1,2.2
		c0.2,0.1,21.9,8.2,30.2,17.5C522.7,658.8,522.9,665.7,519.4,670 M596.6,565.7c-12.5,12.4-27.4,21.8-41.7,30.1
		c-5,2.9-7.3,8.7-5.6,14.3c1.6,5.5,6.4,9,12.1,8.7c1,0,2-0.2,2.9-0.4c2.6-0.7,4.9-1.8,7.1-2.9c2.6-1.3,5.1-2.6,7.5-2.7
		c0.1,0,0.1,0,0.2,0c3.2,0,6.3,2.3,7.1,5.4c0.9,3.1-0.6,6.8-3.4,8.4c-1.1,0.6-1.7,1.8-1.7,3c0,1.2,0.6,2.4,1.7,3
		c3.7,2.2,7.5,6.8,7.3,10.1c-0.2,2.7-1.6,5.2-3.5,6.5c-1.9,1.3-4.6,1.4-6.4,0.3c-1.3-0.9-3.1-0.7-4.2,0.4c-1.2,1.1-1.4,2.8-0.7,4.2
		c0.9,1.6,0.1,8-2.6,10.3c-0.6,0.5-2,1.7-5.7-1.2c-10.2-8.2-24.8-13.9-40.3-20c-10.3-4-20.9-8.2-30.2-13.1
		c16.8-27.9,25.5-60.8,24.5-93.3c-0.6-19.2-4.5-38.4-11.5-56.4c0,0,0,0,0,0c15.7-19.1,51.6-34.8,74.5-26.4
		c23,8.4,39.4,32.2,39.1,56.6C622.9,529.5,613.5,549.1,596.6,565.7"/>
</g>
<g id="Слой_11">
	<path class="st0" d="M453.6,322.7c0.1-0.2,0.2-0.3,0.3-0.5c2.8,2.1,6.2,3.5,9.8,3.8c0.1,0,0.2,0,0.2,0c1.8,0,3.3-1.4,3.4-3.2
		c0.1-1.9-1.3-3.6-3.2-3.7c-6.2-0.4-11.7-6.7-11.3-12.9c0.1-1.9-1.3-3.5-3.2-3.7c-2-0.1-3.5,1.3-3.7,3.2c-0.3,4.2,1,8.3,3.3,11.7
		c-0.3,0.2-0.6,0.4-0.9,0.7c-31.5,35-83.3,50.4-128.9,38.2c-27.2-7.3-47.9-23.8-55.4-44.2c-0.1-0.3-0.2-0.5-0.4-0.8
		c1.7-2.6,2.8-5.6,3-8.7c0.1-1.9-1.3-3.6-3.2-3.7c-1.9-0.2-3.6,1.3-3.7,3.2c-0.4,6.2-6.7,11.7-12.9,11.3c-1.9-0.1-3.5,1.3-3.7,3.2
		c-0.1,1.9,1.3,3.5,3.2,3.7c0.4,0,0.7,0,1.1,0c4,0,7.8-1.4,10.9-3.6c8.9,21.5,30.9,38.7,59.2,46.2c11,2.9,22.3,4.3,33.6,4.3
		C389.6,367.3,427.9,351.2,453.6,322.7"/>
</g>
<g id="Слой_10">
	<path class="st0" d="M578,466.6c-14.7,0-26.7,12-26.7,26.7c0,14.7,12,26.7,26.7,26.7c14.7,0,26.7-12,26.7-26.7
		C604.6,478.5,592.7,466.6,578,466.6 M578,517.6c-13.4,0-24.3-10.9-24.3-24.3c0-13.4,10.9-24.3,24.3-24.3
		c13.4,0,24.3,10.9,24.3,24.3C602.3,506.6,591.4,517.6,578,517.6"/>
</g>
<g id="Слой_9">
	<path class="st0" d="M370.5,602.2c0,14.7,12,26.7,26.7,26.7c14.7,0,26.7-12,26.7-26.7c0-14.7-12-26.7-26.7-26.7
		C382.5,575.5,370.5,587.5,370.5,602.2 M397.2,577.8c13.4,0,24.3,10.9,24.3,24.3c0,13.4-10.9,24.3-24.3,24.3
		c-13.4,0-24.3-10.9-24.3-24.3C372.8,588.7,383.8,577.8,397.2,577.8"/>
</g>
<g id="Слой_8">
	<path class="st0" d="M163.1,547.7c-11.5,0-20.9,9.4-20.9,20.9c0,11.5,9.4,20.9,20.9,20.9c11.5,0,20.9-9.4,20.9-20.9
		C183.9,557,174.6,547.7,163.1,547.7 M163.1,587.1c-10.2,0-18.5-8.3-18.5-18.5s8.3-18.5,18.5-18.5c10.2,0,18.5,8.3,18.5,18.5
		S173.3,587.1,163.1,587.1"/>
</g>
<g id="Слой_7">
	<path class="st0" d="M139.9,258c-14.7,0-26.7,12-26.7,26.7c0,14.7,12,26.7,26.7,26.7c14.7,0,26.7-12,26.7-26.7
		C166.6,269.9,154.6,258,139.9,258 M139.9,309c-13.4,0-24.3-10.9-24.3-24.3c0-13.4,10.9-24.3,24.3-24.3c13.4,0,24.3,10.9,24.3,24.3
		C164.2,298,153.3,309,139.9,309"/>
</g>
<g id="Слой_6">
	<path class="st0" d="M155,492.1c0-6.4-5.2-11.6-11.6-11.6c-6.4,0-11.6,5.2-11.6,11.6c0,6.4,5.2,11.6,11.6,11.6
		C149.8,503.6,155,498.5,155,492.1 M134.1,492.1c0-5.1,4.2-9.3,9.3-9.3c5.1,0,9.3,4.2,9.3,9.3s-4.2,9.3-9.3,9.3
		C138.3,501.3,134.1,497.2,134.1,492.1"/>
</g>
<g id="Слой_5">
	<path class="st0" d="M474.8,475.8c-6.4,0-11.6,5.2-11.6,11.6c0,6.4,5.2,11.6,11.6,11.6c6.4,0,11.6-5.2,11.6-11.6
		C486.4,481,481.2,475.8,474.8,475.8 M474.8,496.7c-5.1,0-9.3-4.2-9.3-9.3c0-5.1,4.2-9.3,9.3-9.3c5.1,0,9.3,4.2,9.3,9.3
		C484.1,492.5,479.9,496.7,474.8,496.7"/>
</g>
<g id="Слой_4">
	<path class="st0" d="M495.7,522.2c6.4,0,11.6-5.2,11.6-11.6c0-6.4-5.2-11.6-11.6-11.6c-6.4,0-11.6,5.2-11.6,11.6
		C484.1,517,489.3,522.2,495.7,522.2 M495.7,501.3c5.1,0,9.3,4.2,9.3,9.3c0,5.1-4.2,9.3-9.3,9.3c-5.1,0-9.3-4.2-9.3-9.3
		C486.4,505.5,490.6,501.3,495.7,501.3"/>
</g>
<g id="Слой_3">
	<path class="st0" d="M516.5,213.9c6.4,0,11.6-5.2,11.6-11.6c0-6.4-5.2-11.6-11.6-11.6c-6.4,0-11.6,5.2-11.6,11.6
		C505,208.7,510.1,213.9,516.5,213.9 M516.5,193.1c5.1,0,9.3,4.2,9.3,9.3c0,5.1-4.2,9.3-9.3,9.3c-5.1,0-9.3-4.2-9.3-9.3
		C507.3,197.2,511.4,193.1,516.5,193.1"/>
</g>
<g id="Слой_2">
	<path class="st0" d="M361.3,112c6.4,0,11.6-5.2,11.6-11.6c0-6.4-5.2-11.6-11.6-11.6c-6.4,0-11.6,5.2-11.6,11.6
		C349.7,106.8,354.9,112,361.3,112 M361.3,91.1c5.1,0,9.3,4.2,9.3,9.3c0,5.1-4.2,9.3-9.3,9.3c-5.1,0-9.3-4.2-9.3-9.3
		C352,95.3,356.1,91.1,361.3,91.1"/>
</g>
</svg>
