<?xml version="1.0" encoding="UTF-8"?>
<!-- Generator: visioncortex VTracer 0.6.3 -->
<svg version="1.1" xmlns="http://www.w3.org/2000/svg" width="989" height="1280">
<path d="M0 0 C4.11 2.96 8.01 6.11 11.88 9.38 C12.02 8.72 12.17 8.07 12.32 7.4 C13.96 1.01 15.73 -2.45 20.88 -6.62 C28.83 -9.28 35.51 -6.94 42.88 -3.62 C51.36 0.72 58.36 6.17 64.31 13.62 C68.02 17.96 71.48 18.97 76.88 20.38 C93.18 25.32 106.47 34.25 114.88 49.38 C114.88 50.03 114.88 50.69 114.88 51.38 C110.56 50.8 106.99 49.71 103 48 C95.45 44.99 87.86 43.64 79.88 42.38 C80.09 43.22 80.31 44.07 80.53 44.94 C82.08 51.24 83.26 56.88 82.88 63.38 C83.6 63.46 84.33 63.55 85.08 63.64 C106.42 66.62 122.28 79.88 135.54 96.25 C140.59 103.01 145.17 110.02 146.88 118.38 C142.49 117.76 138.96 116.04 135.06 114.06 C120.49 107.03 104.88 103.69 88.96 108.22 C79.45 111.78 71.2 117.66 63.06 123.62 C62.36 124.13 61.66 124.64 60.94 125.16 C60.29 125.65 59.65 126.14 58.98 126.64 C58.4 127.07 57.83 127.5 57.24 127.95 C55.53 129.74 55.1 130.92 54.88 133.38 C55.54 134.37 56.19 135.36 56.88 136.38 C60.74 135.81 64.38 134.95 68.12 133.86 C92.49 127.15 117.65 131.16 139.88 142.38 C140.94 142.91 142.01 143.44 143.12 144 C158.34 152.24 171.35 165.86 178.88 181.38 C172.89 180.96 167.03 180.43 161.12 179.31 C130.27 174.42 100.35 182.64 72.88 196.38 C72.85 197.75 72.83 199.12 72.81 200.5 C72.8 201.27 72.79 202.03 72.78 202.82 C72.89 205.74 73.35 208.51 73.88 211.38 C75.16 210.5 75.16 210.5 76.48 209.62 C92.75 198.79 109.68 190.59 129.69 194.03 C143.84 197.02 155.71 202.9 165.88 213.38 C166.92 214.41 166.92 214.41 167.98 215.46 C173.93 221.66 177.85 228.85 181.88 236.38 C177.42 235.73 173.66 234.01 169.62 232.12 C163.89 229.54 158.16 227.34 152.12 225.56 C151.48 225.37 150.83 225.17 150.16 224.97 C139.76 222.02 129.41 220.99 118.62 221 C116.87 221 116.87 221 115.07 221 C105.82 221.11 97.63 222.37 88.88 225.38 C89.55 225.44 90.23 225.5 90.93 225.57 C121.06 228.53 149.48 233.82 172.88 254.38 C172.88 254.7 172.88 255.04 172.88 255.38 C172.18 255.36 171.48 255.35 170.75 255.34 C167.52 255.3 164.29 255.28 161.06 255.25 C159.96 255.23 158.86 255.22 157.73 255.2 C148.85 255.15 139.65 255.42 131.62 259.62 C130.88 260 130.13 260.38 129.36 260.77 C125.92 262.99 122.93 265.65 119.88 268.38 C120.85 268.56 120.85 268.56 121.84 268.74 C144.55 273.01 165.04 278.25 179.63 297.71 C185.85 307.33 188.42 318.03 188.88 329.38 C185.56 327.9 183.12 325.98 180.38 323.62 C167.54 313.28 152.2 308.98 135.88 308.38 C136.88 308.84 137.88 309.3 138.92 309.77 C155.93 317.8 169.07 328.11 179 344.38 C179.4 345.03 179.81 345.69 180.22 346.37 C181.18 348 182.03 349.69 182.88 351.38 C182.55 352.04 182.21 352.69 181.88 353.38 C180.76 352.98 179.65 352.58 178.5 352.17 C155.17 343.99 133.14 341.97 108.88 347.38 C111.99 351.32 114.86 354.47 119.06 357.31 C119.92 357.92 120.78 358.53 121.67 359.15 C125.58 360.64 128.1 360.28 132.18 359.72 C149.5 357.49 169.88 358.73 184.8 368.66 C191.81 373.26 200.14 370.79 207.88 369.38 C208.72 369.22 209.56 369.07 210.44 368.92 C236.09 364.18 260.44 355.44 284.56 345.71 C332.61 326.41 387.7 312.36 437.7 333.46 C450.2 339.03 460.15 346.87 469.88 356.38 C470.58 357.02 471.29 357.66 472.01 358.32 C475.85 361.91 478.86 365.72 481.84 370.03 C486.81 377.2 490.53 381.29 498.88 384.38 C529.76 397.52 550.72 419.72 563.83 450.63 C570.6 467.75 572.68 485.88 574.57 504.06 C577.96 537.15 577.96 537.15 592.88 566.38 C592.88 567.03 592.88 567.7 592.88 568.38 C581.62 568.02 575.01 562.23 567.41 554.3 C553.34 538.06 545.4 517.74 537.88 497.88 C527.49 469.52 527.49 469.52 509.88 445.38 C509.89 446.39 509.89 446.39 509.91 447.43 C510.36 481.73 504.5 513.03 495.89 546.12 C487.59 578.2 481.27 613.85 490.88 646.38 C491.23 647.6 491.23 647.6 491.59 648.85 C495.02 660.43 499.52 671.51 504.24 682.62 C506.79 688.67 509.21 694.72 511.31 700.94 C511.65 701.9 511.65 701.9 511.99 702.88 C516.19 715.72 517.38 728.16 517.25 741.56 C517.25 742.35 517.24 743.13 517.24 743.94 C517.2 754.04 516.67 763.91 515.38 773.94 C509.48 820.4 514.86 865.77 536.49 907.48 C538.44 911.55 539.01 915.08 539.3 919.56 C539.38 920.56 539.45 921.57 539.52 922.6 C539.6 923.66 539.67 924.72 539.75 925.81 C540.42 934.65 541.69 942.79 543.88 951.38 C544.66 955.5 544.45 957.37 542.36 960.99 C531.64 976.54 516.07 984.42 497.88 988.38 C485.72 990.42 470.2 991.32 459.31 984.44 C458.51 983.76 457.7 983.08 456.88 982.38 C456.11 981.78 455.35 981.18 454.56 980.56 C452.18 977.47 452 975.26 451.88 971.38 C452.35 969.42 452.84 967.47 453.38 965.54 C455.44 956.56 452.98 949.26 448.79 941.32 C444.54 932.28 448 921.09 450.95 912.12 C452.69 907.51 454.6 903 456.58 898.49 C474.07 858.15 473.06 811.05 457.19 770.31 C450.29 752.88 450.29 752.88 438.88 738.38 C438.52 739.57 438.52 739.57 438.16 740.78 C436.87 744.4 435.31 747.74 433.65 751.2 C423.33 772.84 416.06 795.78 411.88 819.38 C411.64 820.63 411.41 821.88 411.17 823.18 C408.45 840.33 406.7 860.61 410.38 877.71 C412.02 886.49 410.62 893.49 407.12 901.56 C403.91 909.39 401.56 916.92 399.96 925.22 C398.63 929.1 397.34 930.24 393.88 932.38 C371.89 942.09 346.67 943.01 324.1 934.8 C317.94 932.08 312.39 928.24 308.88 922.38 C308.31 919.38 308.31 919.38 308.88 916.38 C311 913.94 311 913.94 313.88 911.38 C320.62 904.53 322.87 898.68 323.25 889.12 C323.9 876.72 328.86 868.55 336.88 859.38 C337.64 858.36 338.4 857.35 339.19 856.31 C341.71 853.55 344.24 851.48 347.19 849.19 C366.33 833.77 372.97 806.28 375.66 782.76 C378 756.27 371.29 733.51 358.88 710.38 C358.54 709.73 358.2 709.09 357.85 708.43 C348.82 691.36 337.4 675.82 325.88 660.38 C319.99 660.91 315.38 662.71 310 665.06 C302.18 668.33 294.36 670.78 286.12 672.75 C284.66 673.11 284.66 673.11 283.16 673.47 C268.96 676.72 254.95 677.75 240.44 677.69 C239.66 677.69 238.89 677.69 238.09 677.69 C225.09 677.66 212.36 676.76 199.51 674.76 C195.97 674.24 192.42 673.81 188.88 673.38 C187.23 679.25 185.59 685.14 183.97 691.02 C183.42 693.01 182.86 695 182.3 696.99 C174.75 723.11 174.75 723.11 172.38 750.06 C172.38 751.05 172.39 752.04 172.4 753.05 C172.57 760.5 173.6 767.67 174.88 775 C179.65 802.56 176.74 826.64 167.74 852.72 C165.07 860.55 163.07 868.17 161.88 876.38 C161.75 877.26 161.62 878.14 161.48 879.05 C161.19 881.49 161 883.91 160.88 886.38 C160.82 887.29 160.77 888.2 160.71 889.14 C160.04 912.18 166.92 932.69 176.11 953.43 C179.62 962.31 177.89 972.16 176.59 981.35 C175.85 986.84 175.78 992.17 176 997.7 C175.86 1000.63 175.56 1001.99 173.88 1004.38 C159.41 1016.58 138.82 1021.22 120.15 1020.66 C108.02 1019.61 94.42 1017.6 85.56 1008.38 C83.88 1005.38 83.88 1005.38 83.69 1002.56 C85.11 998.74 87.13 995.73 89.5 992.43 C91.73 989.11 92.01 986.39 92 982.5 C92 981.24 92 981.24 92.01 979.95 C91.87 977.33 91.39 974.94 90.88 972.38 C89.47 956.33 96.95 944.84 105.5 931.88 C118 912.16 120.79 887.12 116.69 864.38 C113.7 851.81 108.77 840.61 102.88 829.16 C96.53 816.43 94.26 804.59 94.59 790.46 C94.61 789.07 94.62 787.67 94.63 786.28 C94.67 781.92 94.74 777.55 94.81 773.19 C95.24 747.07 94.61 721.46 88.94 695.81 C88.58 694.07 88.58 694.07 88.21 692.28 C85.55 679.81 82.33 669.33 72.88 660.38 C72.21 659.72 71.56 659.05 70.88 658.38 C69.56 658.38 68.24 658.38 66.88 658.38 C65.34 659.97 65.34 659.97 64.14 662.19 C63.65 663.01 63.16 663.83 62.66 664.67 C62.16 665.57 61.65 666.46 61.12 667.38 C60.6 668.28 60.07 669.19 59.52 670.13 C52.61 682.12 46.39 694.26 41.88 707.38 C41.63 708.04 41.38 708.71 41.13 709.39 C37.06 722.28 40.49 735.4 44.15 747.86 C45.41 752.23 46.52 756.65 47.62 761.06 C47.84 761.88 48.05 762.69 48.26 763.53 C53.06 782.5 50.18 800.04 44.84 818.48 C37.71 845.52 40.74 878.34 53.42 903.43 C54.83 905.81 56.31 908.1 57.88 910.38 C58.82 911.85 59.76 913.33 60.69 914.81 C61.28 915.74 61.28 915.74 61.89 916.68 C64.35 920.93 64.07 925.28 64.11 930.02 C64.12 930.87 64.13 931.72 64.14 932.6 C64.15 934.39 64.16 936.19 64.17 937.99 C64.19 940.73 64.23 943.48 64.28 946.22 C64.29 947.97 64.29 949.71 64.3 951.46 C64.32 952.28 64.34 953.1 64.35 953.94 C64.34 957.92 64.19 959.88 62 963.32 C49.2 975.72 31.61 980.59 14.31 980.75 C13.36 980.76 12.4 980.78 11.41 980.79 C0.27 980.72 -10.24 977.91 -19.12 971.06 C-21.12 968.38 -21.12 968.38 -21.75 965.12 C-21.04 960.87 -19.48 958.22 -17.31 954.55 C-14.1 948.66 -15.39 943.37 -16.63 937.14 C-18.73 925.35 -14.87 916.51 -9.19 906.35 C1.3 887.08 3.39 862.52 -2.75 841.52 C-7.07 828.11 -12.84 815.45 -19.36 802.97 C-23.76 794.48 -26.65 787.21 -26.38 777.56 C-26.36 776.38 -26.36 776.38 -26.34 775.18 C-26.24 769.89 -25.85 764.65 -25.36 759.38 C-24.57 749.2 -25.13 739.1 -25.95 728.94 C-26.08 727.31 -26.08 727.31 -26.22 725.65 C-27.13 714.68 -28.38 703.76 -29.67 692.83 C-33.05 664.24 -33.05 664.24 -34.04 651.58 C-34.11 650.77 -34.17 649.97 -34.24 649.13 C-34.52 645.48 -34.78 641.84 -35.01 638.18 C-35.87 626.35 -38.55 616.76 -45.44 607.06 C-61.87 582.64 -67.71 554.74 -62.11 525.75 C-60.39 517.71 -58.13 509.4 -53.88 502.31 C-50.58 496.79 -51.08 492.31 -52.42 486.18 C-52.72 484.74 -53.02 483.31 -53.32 481.87 C-53.49 481.12 -53.65 480.37 -53.81 479.59 C-56.75 465.82 -59.01 452.07 -60.5 438.06 C-60.58 437.33 -60.66 436.6 -60.74 435.84 C-61.67 427.09 -62.37 418.34 -62.87 409.56 C-63.09 406.75 -63.5 404.12 -64.12 401.38 C-64.54 401.81 -64.96 402.25 -65.39 402.7 C-82.46 420.52 -101.42 435.71 -127.19 436.75 C-138.66 436.3 -151.33 433.02 -159.71 424.86 C-161.37 422.99 -163 421.1 -164.61 419.2 C-169.32 413.91 -175.01 409.71 -180.66 405.47 C-188.06 399.17 -193.31 390.62 -196.12 381.38 C-196.31 380.78 -196.5 380.18 -196.7 379.56 C-199.21 366.67 -196.67 354.47 -189.5 343.56 C-188.05 341.49 -186.59 339.43 -185.12 337.38 C-169.65 315.24 -160.17 293.79 -156.47 266.87 C-156.18 264.76 -155.84 262.66 -155.5 260.56 C-155.18 257.42 -155.09 255.36 -156.12 252.38 C-158.59 249.67 -161.19 247.64 -164.16 245.51 C-173.92 238.47 -179.26 228.91 -181.44 217.19 C-181.68 215.59 -181.92 213.98 -182.12 212.38 C-183.7 212.63 -183.7 212.63 -185.31 212.88 C-202.62 215.47 -202.62 215.47 -210.69 210.25 C-211.89 209.32 -211.89 209.32 -213.12 208.38 C-209.31 207 -206.05 207.7 -202.12 208.38 C-203.05 207.79 -203.05 207.79 -203.99 207.2 C-205.2 206.42 -205.2 206.42 -206.44 205.62 C-207.24 205.11 -208.04 204.6 -208.86 204.08 C-211.13 202.37 -212.55 200.72 -214.12 198.38 C-213.59 198.58 -213.06 198.78 -212.51 199 C-206.71 201.09 -201.27 202 -195.12 202.38 C-195.58 202.02 -196.04 201.67 -196.52 201.31 C-200.96 197.73 -203.65 194.53 -206.12 189.38 C-206.12 188.72 -206.12 188.06 -206.12 187.38 C-205.47 187.38 -204.81 187.38 -204.12 187.38 C-204.12 188.03 -204.12 188.69 -204.12 189.38 C-199.18 191.94 -195.15 193.66 -189.5 193.62 C-188.56 193.63 -187.62 193.64 -186.65 193.64 C-183.88 193.55 -183.88 193.55 -181.12 191.38 C-180.08 188.9 -179.17 186.48 -178.31 183.94 C-173.49 170.52 -166.37 157.65 -155.56 148.06 C-153.02 145.26 -152.79 144.73 -152.47 141.21 C-152.36 139.94 -152.24 138.68 -152.12 137.38 C-156.42 137.83 -160.71 138.29 -165 138.75 C-166.2 138.88 -167.41 139 -168.65 139.13 C-175.56 139.88 -182.34 140.85 -189.12 142.38 C-185.61 135.09 -179.48 129.61 -173.73 124.04 C-172.04 122.45 -172.04 122.45 -171.12 120.38 C-172.01 120.11 -172.89 119.84 -173.8 119.57 C-192 113.05 -205.27 96.27 -213.28 79.32 C-221.44 60.45 -221.27 38.32 -214.44 19.06 C-211.2 11.72 -206.52 3.95 -199.12 0.38 C-193.28 -1.02 -188.56 0.29 -183.38 3.12 C-176.62 7.42 -170.66 12.6 -164.73 17.94 C-163.31 19.21 -161.87 20.47 -160.44 21.73 C-159.63 22.44 -158.83 23.14 -158 23.88 C-157.18 24.57 -156.37 25.27 -155.53 26 C-153.12 28.38 -153.12 28.38 -151 31.6 C-148.23 35.58 -145.72 38.53 -141.12 40.38 C-130.23 41.91 -119.06 41.11 -108.12 40.38 C-111.75 37.74 -115.38 35.09 -119.12 32.38 C-115.49 29.95 -113.74 30.16 -109.44 30.25 C-108.26 30.27 -107.08 30.29 -105.86 30.3 C-104.96 30.33 -104.06 30.35 -103.12 30.38 C-115.52 20.76 -127.44 15.7 -142.46 11.67 C-145.79 10.78 -148.97 9.77 -152.12 8.38 C-136.51 -1.01 -108.31 4.17 -91.53 7.96 C-78.89 11.14 -67.03 16.13 -55.19 21.53 C-53.18 22.35 -51.24 22.91 -49.12 23.38 C-50.2 21.96 -51.29 20.54 -52.38 19.12 C-52.98 18.34 -53.58 17.55 -54.2 16.73 C-56.06 14.46 -58.01 12.41 -60.12 10.38 C-59.79 9.72 -59.47 9.06 -59.12 8.38 C-40.34 14.85 -27.42 25.25 -16.12 41.38 C-18.97 24.33 -29.7 10.8 -43.12 0.38 C-50.94 -4.95 -59.22 -8.51 -68.12 -11.62 C-67.79 -12.28 -67.47 -12.94 -67.12 -13.62 C-44.74 -20.59 -18.74 -12.99 0 0 Z M-38.12 -6.62 C-35.85 -4.27 -33.58 -2.01 -31.07 0.1 C-18.03 11.07 -8.01 27.23 -6.12 44.38 C-5.5 57.04 -6.01 69.75 -7.12 82.38 C-6.47 82.38 -5.81 82.38 -5.12 82.38 C-5.05 81.34 -4.98 80.31 -4.9 79.25 C-3.41 61.73 1.42 45.01 7.05 28.4 C8.95 22.98 8.95 22.98 8.88 17.38 C-2.1 3.57 -21.09 -4.34 -38.12 -6.62 Z M22.33 -0.85 C18.57 3.25 17.83 8.76 16.61 14.04 C16.34 15.18 16.06 16.32 15.77 17.49 C14.9 21.14 14.04 24.79 13.19 28.44 C12.6 30.87 12.02 33.3 11.43 35.72 C10.86 38.08 10.3 40.43 9.74 42.79 C9.48 43.87 9.22 44.95 8.96 46.06 C6.34 57.26 4.54 67.99 4.62 79.5 C4.62 80.51 4.61 81.51 4.6 82.55 C4.62 89.05 5.35 95.06 6.88 101.38 C3.59 99.36 1.21 97.88 -0.94 94.62 C-3.51 91.98 -4.19 92.01 -7.75 91.94 C-11.38 92.01 -11.38 92.01 -14.12 94.38 C-6.54 104.24 -6.54 104.24 1.62 113.62 C14.46 127.63 18.57 139.32 18.03 157.96 C17.73 162.65 16.56 167 14.88 171.38 C14.54 171.38 14.22 171.38 13.88 171.38 C13.84 169.9 13.84 169.9 13.8 168.4 C13.11 150.03 8.42 135.39 -3.87 121.44 C-9.88 114.54 -14.46 106.78 -19.19 98.96 C-20.15 97.68 -20.15 97.68 -21.12 96.38 C-22.12 96.38 -23.11 96.38 -24.12 96.38 C-23.4 106.97 -18.12 115.8 -12.19 124.34 C-5 134.89 -0.98 142.49 -2.12 155.38 C-3.76 161.75 -6.55 166.68 -11.12 171.38 C-11.78 171.71 -12.44 172.03 -13.12 172.38 C-12.79 171.51 -12.47 170.64 -12.12 169.75 C-9.26 159.49 -10.73 148.92 -15.12 139.38 C-16.75 136.52 -18.42 133.69 -20.12 130.88 C-25.44 121.81 -27.63 111.51 -30.12 101.38 C-34.06 101.95 -34.06 101.95 -37.12 104.38 C-37.55 110.48 -36.57 115.89 -35.19 121.81 C-26.03 161.71 -39.31 205.09 -60.12 239.38 C-63.45 244.35 -67.17 248.9 -71.12 253.38 C-72.1 254.5 -72.1 254.5 -73.1 255.65 C-80.27 263.36 -89.62 269.91 -99.12 274.38 C-95.54 270.15 -91.9 266.12 -87.88 262.31 C-57.77 232.36 -45.49 186.71 -45.04 145.33 C-45.06 138.59 -45.59 131.9 -46.12 125.19 C-46.27 123.33 -46.27 123.33 -46.41 121.44 C-46.65 118.42 -46.88 115.39 -47.12 112.38 C-49.95 114.97 -51.67 116.99 -52.91 120.62 C-53.19 121.45 -53.47 122.27 -53.76 123.12 C-54.19 124.45 -54.19 124.45 -54.62 125.81 C-55.08 127.21 -55.08 127.21 -55.54 128.64 C-59.97 142.82 -62.15 156.83 -63.12 171.62 C-65.32 204.59 -80.5 227.65 -99.78 253.6 C-116.45 276.04 -128.87 299.02 -138.12 325.38 C-137.61 318.71 -136.65 312.35 -135 305.88 C-134.78 305.01 -134.56 304.15 -134.34 303.27 C-131.98 294.34 -128.78 285.85 -125.12 277.38 C-124.83 276.68 -124.53 275.98 -124.22 275.26 C-117.47 259.66 -108.56 245.33 -99 231.31 C-85.76 211.81 -79.28 193.63 -75.62 170.47 C-73.64 158.1 -71.43 146.11 -67.18 134.31 C-66.35 132 -65.66 129.77 -65.12 127.38 C-67.49 129.34 -69.82 131.33 -72.12 133.38 C-72.8 133.97 -73.48 134.57 -74.17 135.18 C-95.33 155.03 -104.63 182.07 -113.63 208.81 C-114.84 212.41 -116.06 216.01 -117.28 219.61 C-118.16 222.23 -119.03 224.86 -119.9 227.48 C-123.68 238.77 -128.1 249.59 -133.12 260.38 C-133.45 260.05 -133.78 259.71 -134.12 259.38 C-133.64 256.88 -133.08 254.45 -132.46 251.98 C-132.28 251.22 -132.1 250.46 -131.9 249.67 C-131.5 248.02 -131.1 246.37 -130.7 244.72 C-127.51 231.71 -124.51 218.7 -121.94 205.56 C-117.73 184.58 -110.58 165.26 -97.12 148.38 C-97.45 147.72 -97.78 147.06 -98.12 146.38 C-120.09 164.82 -131.23 187.3 -136.12 215.38 C-140.49 197.97 -136.37 179.13 -128.11 163.62 C-124.93 158.41 -121.23 153.88 -117.12 149.38 C-116.45 148.61 -115.77 147.84 -115.08 147.05 C-104.27 135.43 -90.28 128.6 -75.97 122.27 C-73.87 121.3 -73.87 121.3 -71.12 119.38 C-98.24 117.44 -124.28 132.9 -144.37 149.9 C-155.29 159.7 -166.03 169.79 -170.12 184.38 C-169.74 186.54 -169.74 186.54 -169.12 188.38 C-168.25 188.29 -168.25 188.29 -167.37 188.2 C-163 187.95 -160.67 188.05 -156.81 190.31 C-144.58 202.64 -146.72 225.97 -146.76 242.01 C-146.98 276.06 -152.34 308.64 -175.41 334.98 C-184.03 344.98 -191.61 357.13 -191.4 370.72 C-190.08 383.33 -183.97 395.37 -174.12 403.38 C-158.83 414.58 -142.86 419.01 -124.12 417.38 C-105.97 414.18 -93.3 400.1 -82.12 386.38 C-84.17 393.81 -87.23 401.53 -92.81 407.04 C-94.36 408.3 -94.36 408.3 -94.12 410.38 C-94.7 410.65 -95.28 410.92 -95.88 411.2 C-98.14 412.38 -100.07 413.74 -102.12 415.25 C-116 424.63 -132.15 424.14 -148.12 422.38 C-140.8 428.82 -130.5 428.02 -121.35 427.57 C-101.87 425.86 -84.83 411.17 -72.12 397.38 C-71.02 396.02 -69.91 394.67 -68.81 393.31 C-59.03 381.96 -45.29 376.72 -31.23 372.95 C-4.88 365.87 16.78 354.62 30.88 330.16 C49.55 296.52 52.77 253.04 53.88 215.38 C52.83 215.53 51.79 215.68 50.71 215.84 C42.52 216.99 35.09 217.59 26.88 216.38 C26.72 217.41 26.56 218.45 26.39 219.52 C24.16 233.24 20.06 243.83 8.97 252.94 C1.45 258.1 -8.07 260.5 -17.12 259.38 C-22.13 258.38 -27.04 257.23 -31.77 255.29 C-36.92 253.29 -41.23 254.26 -46.12 256.38 C-45.7 255.77 -45.28 255.17 -44.85 254.55 C-44.3 253.75 -43.75 252.95 -43.19 252.12 C-42.64 251.34 -42.1 250.55 -41.54 249.73 C-38.68 244.96 -39.08 240.3 -39.19 234.88 C-39.29 221.75 -37.36 211.9 -30.44 200.62 C-23.24 193.62 -14.92 190.47 -5.06 190 C-0.34 190.07 3.72 191.06 8.25 192.38 C16.32 194.68 24.5 196.4 32.38 192.75 C35.16 190.1 37.53 187.42 39.88 184.38 C39.88 188.62 38.06 190.76 35.88 194.38 C40.18 193.76 41.86 192.78 45.88 190.38 C43.89 193.68 41.91 196.98 39.88 200.38 C43.79 199.59 45.53 199.23 48.69 197.31 C49.74 196.67 50.79 196.03 51.88 195.38 C49.21 199.38 46.54 203.38 43.88 207.38 C46.51 207.04 49.15 206.72 51.88 206.38 C51.88 207.03 51.88 207.69 51.88 208.38 C49.4 209.37 49.4 209.37 46.88 210.38 C46.88 210.71 46.88 211.03 46.88 211.38 C48.54 211.42 50.21 211.42 51.88 211.38 C54.01 209.24 53.13 204.48 53.19 201.53 C53.21 200.64 53.23 199.75 53.25 198.84 C53.32 196 53.38 193.16 53.44 190.31 C53.48 188.39 53.52 186.47 53.57 184.54 C53.68 179.82 53.78 175.1 53.88 170.38 C55.76 184.64 57.17 198.89 58 213.25 C58.11 215.18 58.11 215.18 58.23 217.14 C58.47 221.55 58.68 225.96 58.88 230.38 C58.92 231.36 58.96 232.34 59.01 233.35 C59.76 250.84 60.06 268.31 60.06 285.81 C60.06 289.81 60.08 293.8 60.1 297.8 C60.15 320.71 59.13 343.59 56.06 366.31 C55.89 367.6 55.72 368.88 55.54 370.21 C50 409.97 36.51 452.91 4.94 479.88 C-6.86 488.72 -18.4 492.3 -33.12 491.38 C-37.21 490.61 -41.16 489.6 -45.12 488.38 C-43.83 496.3 -41.49 503.65 -38.75 511.19 C-38.17 512.85 -38.17 512.85 -37.58 514.54 C-37.19 515.6 -36.81 516.67 -36.41 517.77 C-36.07 518.73 -35.73 519.68 -35.37 520.67 C-33.07 525.65 -30.1 529.05 -25.12 531.38 C-16.14 534.44 -7.71 533.87 0.88 529.88 C7.19 526.45 12.55 522.18 17.88 517.38 C18.56 516.76 19.25 516.15 19.95 515.51 C64.09 473.62 77.33 410.05 78.95 351.75 C79.09 346.07 79.18 340.39 79.23 334.71 C79.24 332.85 79.26 330.99 79.29 329.13 C79.42 319.65 79.16 311.01 76.56 301.81 C70.77 281 69.85 259.02 68.38 237.56 C65.59 182.95 65.59 182.95 46.88 132.38 C45.62 132.5 44.36 132.62 43.06 132.75 C42.35 132.82 41.65 132.89 40.92 132.96 C38.58 133.3 38.58 133.3 35.88 135.38 C35.87 137.9 36.03 140.19 36.31 142.69 C37.39 155.19 35.23 166.99 29.88 178.38 C28.88 179.03 27.89 179.69 26.88 180.38 C27.21 179.72 27.53 179.06 27.88 178.38 C30.66 162.96 30.12 144.86 23.88 130.38 C25.07 130.19 26.27 130 27.5 129.81 C42.7 126.36 55.56 116.42 63.88 103.38 C73.43 86.06 75.98 65.73 71.38 46.44 C67.44 34.01 61.48 23.16 52.88 13.38 C52.23 12.53 51.59 11.69 50.93 10.83 C45.38 4.2 37.14 -0.29 28.88 -2.62 C24.91 -3.01 24.91 -3.01 22.33 -0.85 Z M-197.31 6.19 C-205.65 12.67 -208.81 24.26 -210.12 34.38 C-211.44 56.07 -206.54 76.56 -192.12 93.38 C-191.37 94.33 -190.62 95.29 -189.84 96.27 C-187.2 99.44 -184.17 101.97 -180.88 104.44 C-180.02 105.08 -180.02 105.08 -179.15 105.74 C-171.44 112.03 -171.44 112.03 -162.23 114.21 C-158.7 113.26 -156.35 111.85 -153.31 109.81 C-147.34 105.92 -141.13 102.9 -134.6 100.08 C-132.74 99.25 -130.93 98.32 -129.12 97.38 C-128.01 94.03 -128.15 91.81 -129.09 88.43 C-132.58 81.49 -143.29 78.02 -150.12 75.38 C-150.78 75.38 -151.44 75.38 -152.12 75.38 C-151.98 75.96 -151.84 76.54 -151.69 77.14 C-149.95 84.79 -147.89 94.29 -152.12 101.38 C-152.2 100.32 -152.27 99.27 -152.35 98.18 C-153.57 83.85 -158.09 64.56 -169.16 54.53 C-171.62 53.08 -173.33 53.14 -176.12 53.38 C-176.12 52.72 -176.12 52.06 -176.12 51.38 C-174.14 50.88 -174.14 50.88 -172.12 50.38 C-172.73 46.25 -174.16 43.04 -176.12 39.38 C-174.05 41.34 -172.58 43.17 -170.94 45.56 C-168.34 48.71 -168.34 48.71 -164.44 48.94 C-159.48 48.57 -154.8 46.98 -150.12 45.38 C-151.62 41.86 -153.63 39.69 -156.38 37.06 C-159.12 34.38 -161.75 31.72 -164.19 28.75 C-166.82 25.6 -169.72 22.98 -172.86 20.34 C-174.54 18.88 -176.19 17.36 -177.8 15.82 C-186.16 7.24 -186.16 7.24 -197.31 6.19 Z M-111.12 13.38 C-107.97 15.93 -104.77 18.39 -101.52 20.82 C-96.87 24.32 -92.59 27.77 -88.62 32.06 C-84.41 36.47 -79.8 38.84 -74.4 41.57 C-69.07 44.51 -64.63 48.31 -60.12 52.38 C-59.36 53.06 -58.59 53.75 -57.79 54.46 C-48.05 63.66 -41.08 74.56 -35.6 86.71 C-34.35 89.68 -34.35 89.68 -31.12 90.38 C-29 89.69 -29 89.69 -26.81 88.56 C-23.3 86.91 -19.84 85.52 -16.12 84.38 C-16.12 71.69 -24.04 59.67 -32.12 50.38 C-32.56 49.8 -32.99 49.23 -33.44 48.63 C-48.97 28.57 -78.68 17.18 -103 13.84 C-105.71 13.61 -108.4 13.43 -111.12 13.38 Z M74.88 28.38 C75.22 30.85 75.22 30.85 75.88 33.38 C78.84 34.86 81.71 34.73 85 34.94 C86.28 35.02 87.56 35.11 88.88 35.19 C90.36 35.28 90.36 35.28 91.88 35.38 C88.97 32.93 86.4 30.91 82.81 29.62 C81.84 29.26 81.84 29.26 80.84 28.89 C78.57 28.21 78.57 28.21 74.88 28.38 Z M-153.12 52.38 C-150.91 54.64 -148.72 56.7 -146.25 58.69 C-143.93 60.56 -142.19 62.51 -140.38 64.88 C-133.68 72.8 -123.76 74.36 -114 75.88 C-91.29 79.78 -69.81 86.69 -53.12 103.38 C-49.64 103.01 -47.03 101.23 -44.12 99.38 C-44.97 93.32 -48.27 89.93 -52.12 85.38 C-52.79 84.58 -53.45 83.78 -54.13 82.96 C-71.39 62.93 -94.82 49.26 -121.44 47.2 C-132.16 46.84 -142.94 49.26 -153.12 52.38 Z M83.88 71.38 C81.81 74.9 81.25 78.31 80.56 82.31 C79.21 89.75 76.85 96.41 73.88 103.38 C75.11 102.94 76.35 102.51 77.62 102.06 C92.47 97.21 105.51 95.61 120.68 100.04 C124.76 101.25 124.76 101.25 128.88 100.38 C125.9 97.02 122.89 93.69 119.88 90.38 C119.29 89.72 118.71 89.07 118.11 88.4 C109.13 78.83 96.99 72.35 83.88 71.38 Z M-121.12 88.38 C-120.47 89.69 -119.81 91.01 -119.12 92.38 C-116.78 92.12 -114.45 91.78 -112.12 91.38 C-111.8 90.72 -111.47 90.06 -111.12 89.38 C-114.43 89.05 -117.72 88.72 -121.12 88.38 Z M-168.12 128.38 C-168.45 129.03 -168.78 129.69 -169.12 130.38 C-149.6 130.73 -130.7 126.16 -112.69 118.81 C-98.98 113.3 -83.89 110.58 -69.19 109.81 C-68.41 109.77 -67.63 109.73 -66.83 109.68 C-64.93 109.58 -63.03 109.48 -61.12 109.38 C-64.34 105.7 -67.93 103.73 -72.31 101.75 C-72.99 101.44 -73.66 101.14 -74.36 100.82 C-105.92 86.88 -145.05 106.21 -168.12 128.38 Z M61.88 149.38 C63.69 158.75 65.78 168.06 67.88 177.38 C71.64 176.02 74.65 174.27 77.94 172 C87.46 165.88 99.79 161.51 111.25 163.86 C111.79 164.03 112.32 164.2 112.88 164.38 C111.53 164.81 111.53 164.81 110.16 165.26 C100.64 168.49 91.95 171.93 84.88 179.38 C88.98 178.68 92.88 177.5 96.86 176.31 C118.18 169.95 137.75 168.96 159.88 169.38 C158.94 168.27 158.01 167.17 157.07 166.07 C156.55 165.45 156.03 164.84 155.49 164.21 C143.81 150.99 125.02 145.48 107.88 144.38 C84.33 143.08 84.33 143.08 61.88 149.38 Z M-171.78 198.89 C-175.76 204 -174.88 210.27 -174.37 216.41 C-173.39 224.16 -169.93 230.37 -165.12 236.38 C-164.8 235.72 -164.47 235.06 -164.12 234.38 C-165.09 231.81 -165.09 231.81 -166.5 229 C-170.41 220.9 -171.68 213.01 -169.23 204.14 C-168.27 201.52 -167.25 198.94 -166.12 196.38 C-169.37 196.03 -169.37 196.03 -171.78 198.89 Z M-25.47 208.18 C-32.49 217.51 -33.27 228.78 -33.78 240.08 C-34.13 243.43 -34.94 246.23 -36.12 249.38 C-34.38 249.91 -32.63 250.43 -30.88 250.94 C-29.9 251.23 -28.93 251.52 -27.92 251.82 C-25.16 252.37 -23.73 252.31 -21.12 251.38 C-22.3 249.83 -22.3 249.83 -23.5 248.25 C-28.29 241.42 -29.25 234.61 -28.12 226.38 C-24.91 216.89 -19.97 210.73 -11.19 206.12 C-4.57 203.36 2.8 203.03 9.88 202.38 C6.24 198.74 1 198.49 -3.94 198 C-12.54 198.3 -19.75 201.84 -25.47 208.18 Z M85.88 216.38 C87.1 216.09 88.33 215.8 89.59 215.5 C108.28 211.37 126.89 210.64 145.64 214.82 C148.59 215.33 150.13 215.42 152.88 214.38 C134.01 201.52 102.93 198.12 85.88 216.38 Z M-164.12 208.38 C-165.33 213.32 -164.75 216.58 -163.12 221.38 C-161.81 221.38 -160.49 221.38 -159.12 221.38 C-158.75 214.38 -158.75 214.38 -162.12 208.38 C-162.78 208.38 -163.44 208.38 -164.12 208.38 Z M-4.12 218.38 C-5.12 218.87 -5.12 218.87 -6.12 219.38 C-6.12 222.35 -6.12 225.31 -6.12 228.38 C-3.65 228.87 -3.65 228.87 -1.12 229.38 C0.35 226.42 -0.06 223.63 -0.12 220.38 C-2.01 219.27 -2.01 219.27 -4.12 218.38 Z M16.88 209.38 C16.85 210.26 16.82 211.14 16.8 212.05 C16.19 224.89 13.4 233.67 4.88 243.38 C4.61 242.75 4.34 242.12 4.07 241.48 C3.54 240.25 3.54 240.25 3 239 C2.65 238.19 2.3 237.38 1.95 236.54 C0.95 234.24 0.95 234.24 -1.12 232.38 C-4.04 231.79 -4.04 231.79 -7.12 232.38 C-9.74 234.33 -9.74 234.33 -11.12 237.38 C-11.06 240.99 -10.91 243.35 -8.69 246.25 C-5.05 248.87 -1.46 248.94 2.88 248.38 C10.07 244.92 14.24 238.44 17.25 231.25 C19.43 224.79 19.66 218.13 18.88 211.38 C18.22 210.72 17.56 210.06 16.88 209.38 Z M76.88 246.38 C74.86 249.51 74.7 251.66 75.08 255.32 C75.17 256.25 75.27 257.18 75.36 258.14 C75.47 259.11 75.58 260.07 75.69 261.06 C75.78 262.04 75.88 263.01 75.98 264.02 C76.07 268.55 76.07 268.55 77.88 272.38 C80.35 272.31 82.78 272 85.23 271.72 C88.02 271.46 90.72 271.31 93.52 271.25 C102.78 271.07 102.78 271.07 110.78 267.01 C112.25 265.1 113.65 263.14 114.98 261.14 C120.89 252.53 132.36 249.38 141.88 246.38 C138.04 243.96 133.9 243.7 129.5 243.25 C128.29 243.12 128.29 243.12 127.06 243 C112.51 241.58 90.68 240.27 76.88 246.38 Z M79.88 287.38 C80.42 293.42 81.78 298.68 83.88 304.38 C90.73 303.03 97.56 301.58 104.38 300.06 C126.84 295.66 149.53 297.51 170.25 307.2 C172.7 308.51 172.7 308.51 174.88 308.38 C171.91 299.71 164.65 292.98 156.75 288.62 C144.5 283.32 131.69 282.19 118.5 282.19 C116.41 282.19 114.32 282.17 112.23 282.15 C95.26 281.68 95.26 281.68 79.88 287.38 Z M49.88 296.38 C50.88 298.38 50.88 298.38 50.88 298.38 Z M48.88 300.38 C48.54 301.54 48.21 302.71 47.87 303.91 C37.73 337.7 14.98 389.37 -16.39 407.23 C-25.66 411.94 -33.88 414.27 -44.29 411.55 C-48.37 410.07 -52.26 408.36 -56.12 406.38 C-56.56 415.47 -55.9 424.39 -54.94 433.44 C-54.79 435.08 -54.79 435.08 -54.63 436.75 C-53.92 443.05 -53.92 443.05 -50.76 448.42 C-49.89 449.07 -49.02 449.71 -48.12 450.38 C-47.46 450.95 -46.79 451.52 -46.1 452.11 C-45.47 452.59 -44.84 453.07 -44.19 453.56 C-43.56 454.05 -42.93 454.54 -42.29 455.04 C-35.74 459.08 -28.58 459.4 -21.12 458.38 C-10.43 454.81 -2.95 448.21 4.88 440.38 C5.52 439.8 6.16 439.23 6.82 438.64 C37.69 410.73 43.69 356.95 48.62 318.38 C48.75 317.38 48.88 316.38 49.01 315.35 C49.62 310.32 50.02 305.45 49.88 300.38 C49.55 300.38 49.22 300.38 48.88 300.38 Z M86.88 315.38 C88.99 323.07 92.02 331.81 98.88 336.38 C101.8 335.75 101.8 335.75 105.06 334.56 C123.74 328.92 143.24 331.81 161.88 336.38 C152.31 323.15 136.19 316.75 120.63 313.77 C115.65 313.06 110.7 313.09 105.69 313.12 C104.65 313.12 103.61 313.11 102.53 313.1 C96.92 313.12 92.17 313.49 86.88 315.38 Z M87.88 336.38 C87.94 337.03 88 337.68 88.06 338.36 C92.63 389.56 92.13 443.19 66.88 489.38 C66.3 490.44 65.72 491.51 65.13 492.61 C58.76 503.96 50.79 513.93 41.88 523.38 C41.12 524.21 40.36 525.04 39.58 525.9 C23.11 543.36 2.46 550.34 -21.12 551.38 C-19.65 556.27 -17.63 560.63 -15.25 565.12 C-14.67 566.21 -14.67 566.21 -14.09 567.32 C-10.9 573.2 -7.39 578.81 -3.69 584.38 C-3.17 585.16 -2.65 585.94 -2.11 586.75 C0.32 590.67 0.32 590.67 3.88 593.38 C9.5 593.76 13.89 592.75 19.12 590.94 C19.9 590.67 20.67 590.41 21.47 590.14 C57.32 577.46 86.28 552.73 102.88 518.38 C123.26 473.54 124.5 425.6 115.5 377.69 C115.32 376.67 115.13 375.64 114.94 374.59 C113.2 365.97 109.72 360 103.69 353.62 C99.64 349.26 95.82 344.75 92.06 340.13 C91.02 338.86 89.95 337.62 88.88 336.38 C88.55 336.38 88.22 336.38 87.88 336.38 Z M145.88 369.38 C148.89 369.88 151.92 370.38 154.94 370.88 C155.79 371.02 156.63 371.16 157.51 371.31 C162.37 372.1 166.95 372.54 171.88 372.38 C166.25 368.62 150.96 364.29 145.88 369.38 Z M303.88 349.38 C303.88 354.19 304.66 354.63 307.81 358.06 C332.76 387.67 335.39 432.14 332.41 469.05 C327.62 517.36 308.04 561.73 277.81 599.44 C277.28 600.11 276.74 600.78 276.19 601.48 C275.43 602.4 275.43 602.4 274.65 603.35 C273.99 604.16 273.99 604.16 273.32 604.98 C271.65 606.59 269.98 607.44 267.88 608.38 C268.25 607.65 268.63 606.93 269.02 606.19 C284.05 577.21 295.44 547.7 300.88 515.38 C301.05 514.36 301.05 514.36 301.23 513.32 C305.14 489.93 304.52 463.58 299.88 440.38 C299.7 439.49 299.52 438.6 299.34 437.68 C294.03 411.9 284.43 386.9 262.88 370.38 C259.01 368.13 256.39 367.95 251.88 368.38 C249.33 369.21 246.86 370.19 244.37 371.16 C239.89 372.72 235.35 373.87 230.75 375 C229.92 375.21 229.08 375.41 228.22 375.62 C222.79 376.95 217.34 378.18 211.88 379.38 C215.08 382.69 218.43 385.8 221.88 388.88 C225.31 391.95 228.65 395.07 231.88 398.38 C232.38 398.84 232.89 399.3 233.41 399.77 C239.25 405.23 243.54 411.72 247.88 418.38 C248.48 419.29 249.09 420.2 249.72 421.14 C269.01 451.86 272.19 491.22 264.29 525.95 C257.34 554.81 243.33 579.83 221.88 600.38 C222.6 598.99 222.6 598.99 223.34 597.58 C248.13 549.67 255.44 494.4 239.55 442.24 C233.19 422.57 223 406.42 208.88 391.38 C208.03 390.43 207.18 389.48 206.31 388.5 C200.58 383.5 195.55 381.92 187.98 382.04 C185.66 382.2 185.66 382.2 183.88 384.38 C184.49 385.01 185.11 385.64 185.75 386.29 C209.26 411.13 216.86 441.22 216.22 474.78 C215.33 500.11 208.41 523.95 196.88 546.38 C197.44 541.32 198.24 536.4 199.28 531.43 C207.24 492.97 207.06 446.48 185.81 411.91 C179.14 401.89 171.24 392.94 161.88 385.38 C160.88 385.87 160.88 385.87 159.88 386.38 C160.38 387.02 160.89 387.66 161.41 388.32 C178.96 411.35 179.75 440.89 176 468.75 C174.81 476.12 172.98 483.27 170.74 490.39 C169.87 493.38 169.33 496.3 168.88 499.38 C168.22 499.38 167.56 499.38 166.88 499.38 C167.09 498.45 167.31 497.52 167.53 496.56 C174.41 463.84 170.94 426.03 152.88 397.38 C150.39 393.86 147.73 390.59 144.88 387.38 C143.95 386.31 143.95 386.31 143.01 385.23 C137.77 379.56 131.65 375.99 124.88 372.38 C126.33 377.27 127.8 382.16 129.34 387.02 C139.89 420.65 145.88 461.68 136.88 496.38 C136.71 497.03 136.54 497.68 136.37 498.35 C130.64 520.18 119.81 541.42 104.88 558.38 C104.13 559.22 103.39 560.07 102.63 560.95 C100.41 563.45 98.15 565.92 95.88 568.38 C95.35 568.97 94.82 569.56 94.28 570.17 C84.79 580.37 72.1 587.97 59.88 594.38 C58.75 594.97 57.63 595.56 56.47 596.18 C44.09 602.34 30.47 606.81 16.88 609.38 C20.99 614.29 25.19 618.99 29.88 623.38 C30.36 623.89 30.85 624.4 31.35 624.93 C36.16 629.3 41.4 628.96 47.65 628.73 C84.36 626.01 120.58 609.3 144.88 581.38 C154.6 569.53 162.52 555.87 167.9 541.54 C168.88 539.38 168.88 539.38 170.88 538.38 C166.69 570.02 155.41 599.34 129.76 619.87 C109.97 634.88 87.93 640.73 63.88 645.38 C66.19 647.79 68.61 649.6 71.41 651.43 C79.81 656.96 85.33 662.95 90.88 671.38 C122.09 668.66 149.05 658.04 169.99 633.83 C174.99 627.32 178.92 620.03 181.88 612.38 C181.79 631.87 171.95 650.44 158.88 664.38 C145.25 677.58 129.7 684.8 110.58 684.64 C109.44 684.61 108.3 684.59 107.12 684.56 C105.94 684.55 104.75 684.54 103.53 684.52 C100.65 684.49 97.76 684.44 94.88 684.38 C94.99 689.18 95.35 692.55 97.97 696.68 C101.25 699.72 104.36 701.65 108.38 703.56 C109.44 704.07 109.44 704.07 110.53 704.6 C125.64 711.6 145.32 713.48 161.4 708.32 C162.62 707.85 162.62 707.85 163.88 707.38 C164.71 707.12 165.55 706.86 166.41 706.59 C170.24 705.05 172.37 703.48 174.11 699.67 C174.46 698.55 174.81 697.42 175.17 696.26 C175.37 695.62 175.58 694.98 175.79 694.32 C176.5 692.01 177.19 689.69 177.88 687.38 C178.15 686.45 178.42 685.52 178.7 684.56 C180.91 677.03 183.05 669.49 185.19 661.94 C185.84 659.65 186.49 657.35 187.14 655.06 C188.72 649.5 190.3 643.94 191.88 638.38 C191.72 640.59 191.57 642.8 191.41 645.01 C191.32 646.24 191.24 647.47 191.15 648.74 C190.81 653.29 190.37 657.83 189.88 662.38 C192.92 664.41 194.22 664.75 197.74 665.19 C198.7 665.32 199.66 665.44 200.65 665.57 C201.68 665.69 202.7 665.81 203.75 665.94 C204.8 666.07 205.85 666.2 206.93 666.33 C209.91 666.69 212.89 667.04 215.88 667.38 C217.06 667.51 218.25 667.65 219.48 667.79 C269.51 672.51 316.78 657.97 357.32 628.81 C359.18 627.33 359.18 627.33 359.88 624.19 C359.88 623.26 359.88 622.33 359.88 621.38 C359.88 620.38 359.88 619.39 359.88 618.38 C360.47 619.49 361.06 620.6 361.68 621.75 C367.46 632.45 373.74 642.53 380.88 652.38 C381.48 653.21 381.48 653.21 382.09 654.05 C391.55 668.15 391.55 668.15 403.88 679.38 C409.12 679.24 414.33 677.07 419.31 675.5 C433.89 671.02 448.28 668.18 463.56 668.25 C464.53 668.25 465.49 668.25 466.48 668.26 C473.65 668.3 480.74 668.62 487.88 669.38 C487.26 664.83 486.09 660.84 484.44 656.56 C484.01 655.42 483.57 654.28 483.13 653.11 C482.17 650.26 482.17 650.26 479.88 649.38 C452.85 647.79 427.03 650.4 401.86 660.5 C399.02 661.63 396.97 662.38 393.88 662.38 C405.57 647.26 423.31 637.68 442.14 634.89 C445.59 634.49 449.04 634.14 452.5 633.81 C465.6 633.43 465.6 633.43 476.88 628.38 C477.12 625.02 477.12 625.02 477 621.25 C476.98 619.97 476.96 618.69 476.95 617.37 C476.92 616.38 476.9 615.39 476.88 614.38 C473.32 613.19 471.54 613.73 467.88 614.38 C465.58 614.47 463.29 614.53 460.99 614.55 C459.66 614.57 458.32 614.59 456.98 614.61 C456.29 614.63 455.6 614.64 454.89 614.65 C424.33 615.21 400.54 623 375.88 641.38 C384.23 623.69 384.23 623.69 390.88 616.38 C391.53 615.63 392.18 614.88 392.86 614.12 C409.25 596.5 430.5 593.02 453.28 591.19 C466.55 590.7 466.55 590.7 477.88 585.38 C478.53 582.76 479.08 580.2 479.57 577.55 C479.72 576.77 479.87 575.99 480.02 575.19 C480.5 572.69 480.97 570.19 481.44 567.69 C481.76 566.02 482.08 564.36 482.4 562.69 C483.69 555.93 484.95 549.19 485.88 542.38 C485.27 542.8 484.66 543.22 484.03 543.66 C470.69 552.58 457.25 557.14 441.72 560.8 C413.51 567.57 392.47 584.85 376.12 608.26 C374.46 610.56 372.97 612.5 370.88 614.38 C373.88 595.36 380.05 579.04 392.88 564.38 C393.41 563.76 393.94 563.15 394.48 562.51 C403.8 552.48 416.46 546.28 428.28 539.75 C455.89 524.43 488.44 504.72 498.99 473.02 C503.17 455.79 498.34 434.87 492.88 418.38 C491.04 421.76 489.89 425.23 488.69 428.88 C478.87 457.11 454.46 473.06 431.32 489.72 C416.79 500.18 402.96 511.15 389.88 523.38 C393.81 497.84 415.02 473.04 430.45 453.37 C447.82 431.17 466.31 404.11 464.72 374.46 C463.3 365.64 459.55 359.35 452.56 353.81 C444.58 348.18 434.67 341.73 424.88 340.38 C426.22 346.47 426.22 346.47 427.64 352.55 C429.14 358.82 430.52 364.93 430.88 371.38 C430.95 372.78 430.95 372.78 431.04 374.22 C431.65 395.85 424.4 413.96 413.28 432.08 C380.65 485.65 357.38 544.96 358.88 608.38 C358.21 608.38 357.56 608.38 356.88 608.38 C356.18 604.18 355.48 599.99 354.79 595.79 C354.56 594.37 354.32 592.95 354.09 591.52 C351.62 576.74 350.64 562.29 350.62 547.31 C350.62 546.48 350.62 545.64 350.62 544.79 C350.68 503.47 360.69 465.79 376.16 427.72 C376.52 426.83 376.88 425.94 377.26 425.02 C377.94 423.36 378.62 421.71 379.31 420.06 C387.47 400.21 385.66 379.04 377.88 359.38 C374.02 350.62 369.13 341.65 360.88 336.38 C342.88 332.71 320.26 343.63 303.88 349.38 Z M494.88 391.38 C495.52 393.55 496.17 395.73 496.84 397.9 C497.66 400.64 498.4 403.37 499.13 406.13 C499.61 407.84 500.08 409.54 500.56 411.25 C500.77 412.08 500.98 412.91 501.19 413.77 C502.49 418.31 502.49 418.31 505.6 421.71 C507.65 422.75 509.71 423.58 511.88 424.38 C513.14 424.95 514.41 425.53 515.66 426.13 C516.29 426.42 516.91 426.71 517.56 427.01 C531.96 433.87 542.93 443.94 553.88 455.38 C554.87 456.37 554.87 456.37 555.88 457.38 C553.09 437.59 536.28 417.02 520.8 405.32 C508.68 396 508.68 396 494.88 391.38 Z M519.88 442.38 C520.87 444.04 521.87 445.71 522.88 447.38 C523.35 448.19 523.82 449 524.31 449.84 C528.18 455.96 531.8 458.79 538.24 461.98 C547.07 466.65 551.56 475.74 555.88 484.38 C555.88 485.03 555.88 485.69 555.88 486.38 C554.89 485.65 553.9 484.93 552.88 484.19 C551.59 483.25 550.29 482.31 549 481.38 C548.35 480.9 547.7 480.42 547.03 479.93 C543.78 477.29 543.78 477.29 539.88 476.38 C540.37 481.76 541.77 485.92 544.38 490.69 C544.73 491.34 545.08 491.99 545.45 492.67 C548.82 498.67 553.07 503.46 557.88 508.38 C559.76 510.56 561.62 512.76 563.46 514.98 C564.78 516.61 564.78 516.61 566.88 516.38 C566.34 509.66 565.76 502.96 565.14 496.26 C564.98 494.52 564.83 492.79 564.68 491.06 C563.95 482.59 562.44 476.86 556.88 470.38 C556.07 469.42 555.26 468.46 554.42 467.48 C545.13 456.8 534.79 448.29 521.88 442.38 C521.22 442.38 520.55 442.38 519.88 442.38 Z M-47.12 506.38 C-47.79 507.66 -48.43 508.95 -49.06 510.25 C-49.42 510.97 -49.78 511.69 -50.15 512.43 C-52.19 518.6 -53.1 524.07 -50.32 530.12 C-49.47 531.7 -48.59 533.26 -47.69 534.81 C-47.23 535.64 -46.77 536.46 -46.29 537.32 C-39.57 549.17 -31.26 561.26 -20.12 569.38 C-19.47 569.38 -18.81 569.38 -18.12 569.38 C-19.57 565.5 -21.4 562.04 -23.44 558.44 C-27.73 550.61 -31.27 542.44 -34.81 534.25 C-35.09 533.61 -35.36 532.98 -35.65 532.32 C-39.35 523.75 -42.84 515.12 -46.12 506.38 C-46.46 506.38 -46.78 506.38 -47.12 506.38 Z M556.88 519.38 C558.32 525.53 560.11 529.46 565.5 533.19 C567.73 534.52 567.73 534.52 569.88 534.38 C569.57 529.98 569.12 526.54 565.81 523.44 C561.67 520.45 561.67 520.45 556.88 519.38 Z M-55.12 551.38 C-55.59 560.17 -55.55 569.97 -49.94 577.19 C-48.55 578.27 -48.55 578.27 -47.12 579.38 C-45.89 580.43 -44.66 581.49 -43.44 582.56 C-42.4 583.46 -42.4 583.46 -41.33 584.37 C-38.97 586.52 -36.82 588.8 -34.62 591.12 C-23.05 602.77 -7.24 612.71 8.88 616.38 C11.21 616.11 11.21 616.11 12.88 615.38 C12.2 614.54 11.52 613.7 10.82 612.84 C5.2 605.83 -0.07 598.72 -4.95 591.18 C-8.36 585.93 -10.09 584.25 -16.12 582.62 C-32.57 577.68 -44.91 565.55 -54.12 551.38 C-54.46 551.38 -54.78 551.38 -55.12 551.38 Z M-37.12 607.38 C-35.65 611.92 -33.08 615.19 -30 618.75 C-29.5 619.33 -29.01 619.9 -28.5 620.5 C-24.68 624.88 -20.64 628.71 -16.12 632.38 C-15.24 633.14 -14.36 633.91 -13.46 634.7 C2.16 648.17 22.48 662.08 43.88 661.38 C43.88 662.03 43.88 662.7 43.88 663.38 C16.37 664.15 -3.14 660.68 -24.12 642.38 C-25.45 641.36 -26.78 640.36 -28.12 639.38 C-28.36 652.48 -28.36 652.48 -22.12 663.38 C-15.33 669.59 -8.16 674.71 0.06 678.88 C0.68 679.19 1.29 679.5 1.93 679.83 C13.44 685.34 29.36 689.32 41.88 685.38 C46.6 681.71 48.63 676.07 50.83 670.69 C52.76 666.4 55.57 662.67 58.27 658.84 C59.77 656.61 60.85 654.92 60.99 652.21 C59.23 649.32 56.79 648.41 53.81 646.88 C47.97 643.74 42.65 640.2 37.38 636.19 C36.72 635.69 36.06 635.19 35.38 634.68 C30.27 630.75 30.27 630.75 28.35 628.92 C24.44 625.23 21.23 624.74 16.06 624.81 C-3.65 624.34 -20.11 616.74 -37.12 607.38 Z M357.47 638.57 C356.48 639.27 356.48 639.27 355.48 639.98 C354.78 640.48 354.09 640.98 353.38 641.5 C347.07 645.95 340.78 649.91 333.88 653.38 C334.34 658.14 336.61 660.99 339.56 664.56 C342.74 668.51 345.56 672.35 348 676.81 C351.43 682.68 355.33 686.17 361.81 688.37 C364.82 689.16 367.82 689.81 370.88 690.38 C372.05 690.6 373.23 690.83 374.44 691.06 C379.25 691.5 384.04 691.45 388.88 691.38 C388.88 692.03 388.88 692.7 388.88 693.38 C379.89 695.17 371.04 696.81 361.88 697.38 C362.64 699 363.41 700.63 364.19 702.25 C364.62 703.15 365.05 704.06 365.49 704.99 C367.16 707.87 368.8 709.06 372 710 C383.79 711.54 395.24 708.96 405.98 704.05 C406.61 703.83 407.23 703.6 407.88 703.38 C408.53 703.71 409.19 704.03 409.88 704.38 C398.37 714.09 388.68 717.86 373.88 720.38 C375.15 726.12 375.15 726.12 378.88 730.38 C380.83 730.82 380.83 730.82 382.97 730.74 C384.17 730.74 384.17 730.74 385.39 730.74 C386.23 730.72 387.07 730.71 387.94 730.69 C388.79 730.68 389.64 730.67 390.52 730.66 C396.52 730.55 402.06 729.9 407.88 728.38 C399.56 734.72 391.17 737.23 380.88 738.38 C381.02 740.06 381.16 741.75 381.31 743.44 C381.39 744.38 381.47 745.32 381.56 746.29 C381.78 748.41 382.06 750.53 382.39 752.64 C384.32 767.6 382.73 782.65 379.88 797.38 C379.73 798.12 379.59 798.87 379.44 799.64 C374.63 823.67 365.1 844.68 344.96 859.79 C336.17 866.45 329.59 876.19 327.69 887.25 C327.55 891.98 328.75 895.8 331.88 899.38 C346.19 909.24 366.89 906.06 383.09 903.36 C391.57 901.75 400.79 898.82 406.19 891.62 C407.82 886.29 406.87 880.7 405.81 875.34 C396.9 829.69 410.75 777.24 432.7 737.03 C434.14 733.77 434.46 731.9 433.88 728.38 C432.3 726.07 430.82 724.21 428.94 722.19 C427.92 721.04 426.9 719.9 425.89 718.75 C425.38 718.18 424.87 717.62 424.34 717.03 C422.23 714.65 420.24 712.17 418.25 709.69 C415.38 706.16 412.44 702.74 409.38 699.38 C405.49 695.1 401.81 690.7 398.18 686.2 C396.65 684.32 395.09 682.45 393.51 680.61 C381.88 667.01 371.88 652.39 363.88 636.38 C360.58 636.38 360.03 636.72 357.47 638.57 Z M475.99 676.29 C475.35 676.39 474.7 676.49 474.04 676.59 C471.94 676.91 469.85 677.23 467.75 677.56 C466.28 677.79 464.82 678.01 463.35 678.24 C452.34 679.94 441.36 681.79 430.39 683.76 C423.9 684.92 417.45 685.84 410.88 686.38 C410.88 689.78 411.24 690.18 413.36 692.66 C413.88 693.27 414.41 693.89 414.95 694.52 C415.5 695.15 416.05 695.78 416.62 696.44 C417.16 697.07 417.7 697.71 418.26 698.37 C422.68 703.48 426.01 705.64 432.88 706.38 C453.04 707.68 471.38 701.01 486.88 688.38 C485.14 697.05 478.78 705.1 471.88 710.38 C460.77 716.95 450.77 719.56 437.88 720.38 C440.1 724.11 442.35 727.83 444.69 731.5 C445.33 732.53 445.98 733.57 446.64 734.63 C449.19 737.77 451.09 738.99 454.88 740.38 C468.14 741.4 480.02 735.23 490.88 728.38 C486.43 738.44 482.85 744.62 472.44 748.69 C469.03 749.83 465.82 750.62 462.25 751 C460.58 751.19 460.58 751.19 458.88 751.38 C458.54 752.03 458.22 752.69 457.88 753.38 C458.83 755.72 459.85 757.97 460.94 760.25 C478.74 799.45 480.47 849.22 465.33 889.6 C463.4 894.51 461.33 899.36 459.2 904.18 C454.15 915.63 448.96 928.14 453.06 940.69 C455.44 946.23 459.58 949.66 464.88 952.38 C480.45 957.09 498.58 952.75 512.47 945.46 C521.62 939.86 530.4 931.79 533.88 921.38 C534.38 914.94 533.27 911.09 530.19 905.5 C529.82 904.8 529.45 904.09 529.07 903.36 C527.58 900.51 526.04 897.68 524.48 894.86 C504.95 858.48 504.65 813.14 508.38 773.12 C511.24 742.27 508.65 715.68 496.69 686.81 C496.35 686.01 496.02 685.2 495.68 684.38 C495.36 683.63 495.04 682.89 494.71 682.12 C494.43 681.47 494.14 680.82 493.85 680.14 C492.67 678.01 491.9 676.78 489.88 675.38 C485.15 675.02 480.67 675.58 475.99 676.29 Z M-23.12 685.38 C-23.06 687.11 -22.98 688.83 -22.88 690.56 C-22.83 691.53 -22.78 692.49 -22.73 693.48 C-21.96 697.16 -20.8 698.74 -18.12 701.38 C-15.77 702.76 -13.6 703.91 -11.12 705 C-10.45 705.3 -9.78 705.6 -9.09 705.91 C3.17 711.24 15.69 712.27 28.88 713.38 C14.37 722.02 -3.24 718.83 -19.12 715.38 C-19.23 716.96 -19.31 718.54 -19.38 720.12 C-19.42 721.01 -19.47 721.89 -19.52 722.8 C-19.31 725.46 -19.31 725.46 -17.61 727.56 C-14.35 729.94 -11.06 730.79 -7.19 731.62 C-6.44 731.79 -5.69 731.96 -4.92 732.14 C1.74 733.55 8.07 733.8 14.88 733.38 C9.9 738.35 -0.22 738.61 -6.83 738.65 C-10.6 738.61 -14.36 738.52 -18.12 738.38 C-18.18 740.31 -18.22 742.25 -18.25 744.19 C-18.27 745.27 -18.3 746.35 -18.32 747.46 C-18.36 750.57 -18.36 750.57 -16.12 753.38 C-1.23 758.51 16.53 754.82 30.29 748.21 C30.82 747.94 31.34 747.66 31.88 747.38 C27.03 756.06 20.7 761.96 11.19 765.25 C2.05 767.59 -7.85 768.08 -17.12 766.38 C-19.24 769.55 -19.56 771.09 -19.94 774.81 C-20.05 775.76 -20.16 776.71 -20.27 777.68 C-20.1 780.9 -19.36 782.1 -17.12 784.38 C-14.54 785.27 -14.54 785.27 -11.12 785.38 C-10.3 785.44 -9.48 785.5 -8.63 785.57 C5.98 786.18 19.8 781.43 31.88 773.38 C26.57 785.31 20.37 792.52 8.18 797.47 C3.94 798.63 -0.12 798.83 -4.5 799 C-5.33 799.04 -6.16 799.08 -7.02 799.12 C-9.05 799.21 -11.09 799.29 -13.12 799.38 C-12 801.67 -10.88 803.96 -9.75 806.25 C-9.43 806.9 -9.12 807.55 -8.79 808.22 C-7.44 810.96 -6.3 813.2 -4.12 815.38 C3.66 816.22 11.29 815.05 18.88 813.38 C13.94 818.41 9.77 821.21 2.88 822.87 C0.89 823.19 0.89 823.19 -0.12 824.38 C0.37 830.45 1.74 836.09 3.38 841.94 C10.39 867.17 6.72 890.59 -5.35 913.61 C-9.53 921.61 -12.82 928.5 -10.12 937.62 C-8.11 942.05 -5.4 945.05 -1.12 947.38 C12.9 951.95 28.79 949.02 41.88 942.99 C48.2 939.71 54.56 936.13 58.38 929.94 C59.29 925.25 58.63 921.68 56.25 917.56 C54.94 915.81 53.62 914.06 52.27 912.34 C38.59 894.22 35.65 869.47 35.62 847.44 C35.62 846.75 35.62 846.05 35.62 845.34 C35.64 830.47 37.9 817.03 42.01 802.74 C47.15 782.76 40.4 761.97 34.49 742.88 C29.07 725.29 32.06 709.59 38.98 692.99 C39.43 691.7 39.43 691.7 39.88 690.38 C39.38 689.38 39.38 689.38 38.88 688.38 C38.25 688.71 37.62 689.05 36.97 689.4 C23 696.68 9.88 697.15 -5.03 692.52 C-10.26 690.79 -15.27 688.71 -20.22 686.29 C-21.92 685.3 -21.92 685.3 -23.12 685.38 Z M169.88 708.38 C169.22 709.03 169.22 709.03 168.55 709.7 C158.25 719.36 146.29 723.77 132.31 723.75 C131.44 723.75 130.57 723.75 129.68 723.75 C122.73 723.64 116.64 722.43 110.04 720.35 C106.99 719.41 104.03 718.83 100.88 718.38 C100.72 727.28 100.72 727.28 103.81 735.31 C104.82 735.99 105.83 736.67 106.88 737.38 C107.59 737.92 108.31 738.47 109.04 739.04 C122.66 749.23 139.77 754.9 156.88 753.38 C159.22 752.75 161.56 752.09 163.88 751.38 C163.94 750.77 164.01 750.16 164.09 749.53 C165.39 738.38 166.77 727.38 169.69 716.52 C170.77 712.46 170.77 712.46 169.88 708.38 Z M103.88 755.38 C103.74 757.77 103.64 760.16 103.56 762.56 C103.52 763.24 103.48 763.91 103.44 764.6 C103.34 768.47 103.68 770.14 106.14 773.18 C107.05 773.9 107.95 774.63 108.88 775.38 C109.54 775.91 110.19 776.45 110.88 777 C127.04 788.11 145.86 789.74 164.88 790.38 C144.46 800.55 127.61 799.59 106.38 792.62 C104.64 792.01 104.64 792.01 102.88 791.38 C102.74 793.92 102.64 796.45 102.56 799 C102.52 799.71 102.48 800.43 102.44 801.16 C102.35 805.04 102.63 807.62 105.02 810.75 C108.01 813.49 110.02 814.57 113.88 815.69 C114.89 815.99 115.9 816.3 116.94 816.61 C129.34 819.83 140.57 818.68 152.71 815.25 C155.88 814.38 155.88 814.38 157.88 814.38 C151.7 822.3 145.09 827.92 134.88 829.38 C132.26 829.47 129.68 829.52 127.06 829.5 C126.35 829.5 125.65 829.5 124.92 829.49 C120.15 829.45 115.57 829.16 110.88 828.38 C111.16 829.09 111.45 829.81 111.75 830.55 C112.47 832.35 113.17 834.16 113.85 835.98 C115.9 840.95 115.9 840.95 119.71 844.57 C128.6 847.18 139.05 843.59 146.88 839.38 C142.43 846.16 137.99 851.08 129.92 853.12 C127.24 853.62 124.57 854.01 121.88 854.38 C121.97 855.26 121.97 855.26 122.06 856.17 C125.32 888.57 124.71 917.43 104.69 944.5 C98.13 953.42 94.41 962.07 95.88 973.38 C97.53 978.34 100.39 981.69 104.88 984.38 C122.84 990.19 143.76 987.04 160.44 979 C165.51 976.3 169.52 974.07 172.88 969.38 C174.89 962.54 173.16 958.48 169.88 952.38 C169.41 951.6 168.95 950.82 168.48 950.02 C153.28 922.9 151.9 883.63 160.01 854.08 C160.82 851.29 161.67 848.5 162.54 845.73 C164.03 840.94 165.34 836.1 166.62 831.25 C166.84 830.47 167.05 829.69 167.26 828.88 C171.16 814.1 170.04 800.23 168 785.25 C167.83 783.97 167.65 782.69 167.47 781.37 C166.38 773.68 166.38 773.68 163.88 766.38 C162.69 766.4 161.5 766.42 160.28 766.45 C140.2 766.72 122.11 764.17 103.88 755.38 Z " fill="#000000" transform="translate(323.125,155.625)"/>
<path d="M0 0 C0.74 0.48 1.49 0.97 2.26 1.46 C12.91 8.33 24.39 11.41 37 8.75 C48.05 5.61 56.45 0.28 64.75 -7.56 C65.74 -7.07 65.74 -7.07 66.75 -6.56 C60.52 7.87 52.12 15.56 37.75 21.44 C26.58 25.28 14.76 23.93 4.04 19.25 C-1.42 16.43 -6.31 13 -11.25 9.38 C-22.01 1.49 -32.81 -2.99 -46.25 -2.69 C-47.02 -2.68 -47.8 -2.67 -48.6 -2.66 C-50.48 -2.64 -52.37 -2.6 -54.25 -2.56 C-54.25 -3.22 -54.25 -3.88 -54.25 -4.56 C-34.29 -12.09 -18.39 -11.46 0 0 Z " fill="#000000" transform="translate(287.25,451.5625)"/>
<path d="M0 0 C1.91 4.94 -0.53 8.92 -2.42 13.55 C-8.85 27.6 -17.72 37 -32 43 C-42.29 46.43 -53.12 43.35 -63 40 C-65.01 39.33 -67.02 38.65 -69.03 37.98 C-70.9 37.35 -72.76 36.7 -74.62 36.05 C-85.32 32.72 -95.14 34.29 -106 36 C-97.99 27.29 -86.6 24.61 -75.12 23.69 C-67.89 23.89 -60.8 26.39 -54 28.69 C-44.03 31.68 -34.32 30.47 -25 26 C-14.32 19.52 -6.55 10.53 0 0 Z " fill="#000000" transform="translate(360,395)"/>
<path d="M0 0 C14.98 -0.68 24.34 2.09 36.93 10.27 C47.08 16.78 57.21 20.2 69.31 20.06 C70.05 20.06 70.79 20.05 71.56 20.05 C73.37 20.04 75.19 20.02 77 20 C76.03 22.49 75.49 23.74 73.08 25.01 C60.11 28.87 47.11 29.72 34.54 23.85 C30.66 21.62 27.07 19.07 23.5 16.38 C22.23 15.42 20.96 14.46 19.69 13.5 C19.06 13.02 18.42 12.55 17.77 12.05 C11.89 7.72 5.8 4.72 -1 2 C-0.67 1.34 -0.34 0.68 0 0 Z " fill="#000000" transform="translate(231,466)"/>
<path d="M0 0 C2.88 0.62 2.88 0.62 5.25 2.5 C7.87 7.54 7.63 12.18 6.43 17.66 C2.75 27.11 -9.04 34.17 -17.12 39.62 C-16.93 38.69 -16.74 37.76 -16.54 36.8 C-15.23 30.4 -14.01 24.04 -13.12 17.56 C-12.2 11.46 -10.88 7.06 -6.31 2.75 C-3.12 0.62 -3.12 0.62 0 0 Z " fill="#000000" transform="translate(211.125,509.375)"/>
<path d="M0 0 C3 1 3 1 3.95 2.86 C7.39 14.27 6.06 24.21 3.42 35.62 C1.72 43.25 0.84 50.8 3.5 58.31 C5.4 64.55 5.28 70.53 5 77 C4.01 77.5 4.01 77.5 3 78 C2.21 75.48 1.42 72.96 0.62 70.44 C0.4 69.73 0.18 69.03 -0.05 68.3 C-0.7 66.2 -1.35 64.1 -2 62 C-2.38 60.8 -2.75 59.6 -3.14 58.37 C-5.57 48.84 -3.92 39.79 -1.5 30.48 C1 20.56 1.9 10.11 0 0 Z " fill="#000000" transform="translate(350,181)"/>
<path d="M0 0 C7.67 6.14 10.54 16.58 12 26 C12.29 29.78 12.33 33.53 12.31 37.31 C12.31 38.33 12.3 39.35 12.3 40.39 C12.08 53.73 8.84 65.63 0 76 C-0.66 76 -1.32 76 -2 76 C-1.38 74.14 -1.38 74.14 -0.75 72.25 C-0.34 71.03 -0.34 71.03 0.07 69.78 C0.72 67.83 1.38 65.88 2.05 63.94 C2.41 62.91 2.76 61.88 3.12 60.81 C3.62 59.37 3.62 59.37 4.13 57.89 C9.1 41.32 6.15 23.27 1.55 7.01 C0.92 4.69 0.42 2.37 0 0 Z " fill="#000000" transform="translate(371,181)"/>
<path d="M0 0 C4.58 2.86 5.46 9.12 6.67 14.18 C7.01 15.74 7.35 17.31 7.69 18.88 C7.86 19.67 8.04 20.47 8.22 21.29 C8.92 24.48 9.5 27.29 9.5 30.56 C2.5 28.99 -2.31 24.5 -6.5 18.88 C-8.02 13.84 -8.08 8.78 -7.5 3.56 C-5.19 0.1 -4.14 -0.72 0 0 Z " fill="#000000" transform="translate(144.5,512.4375)"/>
<path d="M0 0 C6.95 0.93 11.98 3.01 17 8 C22.29 15.08 22.74 22.43 22 31 C19.35 42.43 12.9 49.77 4 57 C4 53.27 4.97 52.5 7.25 49.62 C13.78 40.52 16.31 30.13 15 19 C13.8 13.43 11.43 9.62 7 6 C4.71 4.55 2.4 3.27 0 2 C0 1.34 0 0.68 0 0 Z " fill="#000000" transform="translate(210,494)"/>
<path d="M0 0 C1.53 2.82 2.44 5.4 3.11 8.53 C3.31 9.4 3.5 10.26 3.7 11.16 C3.9 12.08 4.1 12.99 4.31 13.94 C8.12 30.43 13.45 47.98 28.51 57.61 C30.65 58.8 32.79 59.94 35 61 C30.55 62.55 27.77 61.16 23.59 59.35 C13.06 53.86 7.56 43.99 3.88 33.04 C0.65 21.89 -0.44 11.52 0 0 Z " fill="#000000" transform="translate(126,189)"/>
<path d="M0 0 C6.6 -0.55 11.76 -0.6 17.27 3.36 C20.18 6.11 22.5 9.28 24 13 C23.67 13.66 23.34 14.32 23 15 C22.43 14.49 21.86 13.98 21.27 13.46 C14.6 7.8 8.06 4.34 0 1 C0 0.67 0 0.34 0 0 Z " fill="#000000" transform="translate(225,480)"/>
<path d="" fill="#000000" transform="translate(0,0)"/>
</svg>
