<?xml version="1.0" encoding="UTF-8"?>
<!-- Generator: visioncortex VTracer 0.6.3 -->
<svg version="1.1" xmlns="http://www.w3.org/2000/svg" width="1280" height="1280">
<path d="M0 0 C10.62 9.14 20.84 18.48 28.71 30.14 C30.04 32.3 30.04 32.3 32.2 33.19 C32.45 32.33 32.7 31.47 32.96 30.59 C37.34 18.59 46.72 8.51 55.2 -0.81 C55.84 -1.54 56.48 -2.27 57.14 -3.01 C77.41 -24.69 107.32 -39.89 136.82 -42 C176.84 -43 217.21 -25.12 246.07 2.19 C248.07 4.06 250.14 5.77 252.26 7.5 C259 13.35 266.63 22.06 267.64 31.12 C267.52 34.36 267.13 35.29 265.32 38.19 C260.77 41.1 257.48 40.94 252.2 40.19 C249.37 39.54 246.57 38.79 243.76 38.06 C235.94 36.07 229.39 35.22 222.07 39.4 C213.59 45.92 208.57 56.76 203.36 65.89 C196.82 77.35 189.67 88.31 182.2 99.19 C181.74 99.87 181.27 100.55 180.8 101.25 C161.17 129.97 140.22 144.16 107.2 154.19 C107.67 155.14 107.67 155.14 108.15 156.11 C123.87 187.9 137.2 220.66 150.19 253.63 C151.19 256.17 152.2 258.72 153.2 261.26 C161.91 283.3 170.35 305.44 178.56 327.67 C180.1 331.84 181.65 336.02 183.2 340.19 C183.54 341.1 183.88 342.01 184.23 342.96 C185.28 345.76 186.33 348.57 187.39 351.37 C187.71 352.22 188.02 353.07 188.35 353.94 C192.82 366.92 192.82 366.92 200.2 378.19 C202.16 372.07 204.01 365.95 205.66 359.74 C205.91 358.78 206.17 357.83 206.43 356.84 C206.93 354.94 207.43 353.04 207.92 351.14 C212.34 334.43 212.34 334.43 219.21 329.17 C222.31 327.64 224.71 327.67 228.06 328.33 C233.58 330.54 236.1 335.53 238.39 340.75 C242.91 353.11 244.31 366.11 244.47 379.19 C244.49 380.6 244.49 380.6 244.51 382.04 C244.54 385.09 244.56 388.14 244.57 391.19 C244.58 392.75 244.58 392.75 244.59 394.35 C244.63 409.3 243.59 423.54 240.99 438.25 C239.63 446.01 238.73 453.48 238.76 461.37 C238.77 462.58 238.77 462.58 238.77 463.82 C238.89 468.58 239.47 473.17 240.21 477.87 C241.31 485.27 241.55 492.52 241.51 500 C241.5 501.97 241.5 501.97 241.49 503.99 C241.37 513.73 240.69 522.76 238.2 532.19 C238 532.97 237.8 533.75 237.6 534.55 C224.35 585.47 184.77 622.69 140.82 649.06 C136.79 651.6 134.45 653.39 133.2 658.19 C132.51 666.44 134.81 672.94 137.51 680.69 C149.42 715.94 158.01 752.38 165.14 788.87 C165.37 790.07 165.37 790.07 165.61 791.29 C166.05 793.55 166.48 795.81 166.91 798.07 C167.04 798.75 167.18 799.43 167.31 800.12 C167.83 802.87 168.2 805.38 168.2 808.19 C205.79 799.66 243.59 788.74 265.36 754.36 C267.14 751.37 268.18 749.39 268.45 745.87 C266.91 741.32 264.41 738.63 261.34 734.99 C250.65 720.95 249.94 704.11 251.2 687.19 C251.88 682.6 253.34 678.43 255.2 674.19 C255.56 673.31 255.92 672.44 256.3 671.54 C259.28 664.97 263.47 659.6 268.2 654.19 C268.71 653.58 269.22 652.98 269.74 652.35 C284.61 636.04 311.82 623.71 333.78 621.98 C336.49 621.88 339.18 621.86 341.89 621.87 C342.8 621.86 343.71 621.84 344.65 621.82 C349.93 621.82 353.64 622.22 358.2 625.19 C360.45 627.58 361.21 629.07 361.18 632.37 C360.8 634.88 360.29 636.89 359.2 639.19 C356.73 641 354.94 642.02 352.2 643.19 C346.06 646.12 346.06 646.12 341.14 650.69 C337.34 664.87 342.89 678.38 348.15 691.44 C351.94 701.34 351.05 712.42 347.2 722.19 C340.72 735.77 330.43 745.66 316.39 750.87 C311.84 752.44 307.42 753.55 302.7 754.44 C298.48 755.46 296.45 756.37 294.01 760 C293.05 761.72 292.12 763.45 291.2 765.19 C278.18 786.96 262.17 801.72 240.2 814.19 C240.82 814.28 241.44 814.37 242.07 814.46 C275.1 819.38 275.1 819.38 283.2 829.19 C286.84 838.82 278.19 853.34 274.2 862.19 C274.94 861.88 275.69 861.58 276.46 861.27 C279.87 859.89 283.28 858.54 286.7 857.19 C287.87 856.71 289.05 856.23 290.25 855.74 C301.89 851.16 301.89 851.16 308.2 852.19 C310.08 853.7 310.08 853.7 311.32 855.87 C311.8 856.7 312.27 857.53 312.76 858.38 C313.24 859.3 313.71 860.23 314.2 861.19 C314.97 862.65 314.97 862.65 315.76 864.15 C323.27 879.34 325.2 894.51 326.2 911.19 C326.25 911.9 326.3 912.62 326.36 913.36 C328.68 947.42 310.65 981.46 289.26 1006.69 C267.48 1031.63 237.59 1045.86 204.75 1048.37 C183.28 1049.01 161.68 1040.64 145.2 1027.19 C145.22 1028.35 145.25 1029.51 145.27 1030.71 C145.6 1054.38 143.45 1074.62 126.78 1092.83 C116.46 1102.74 105.89 1105.37 92.01 1105.5 C91.02 1105.53 90.03 1105.56 89.01 1105.59 C79.13 1105.67 71.47 1103.07 64.23 1096.27 C60.42 1092.36 56.78 1088.3 53.2 1084.19 C52.82 1084.61 52.43 1085.04 52.04 1085.48 C50.27 1087.46 48.48 1089.41 46.7 1091.37 C45.8 1092.38 45.8 1092.38 44.88 1093.41 C37.65 1101.29 30.54 1105.74 19.71 1106.32 C4.55 1106.44 -7.27 1104.48 -18.49 1093.56 C-19.25 1092.78 -20.01 1091.99 -20.8 1091.19 C-21.52 1090.47 -22.24 1089.76 -22.99 1089.03 C-34.18 1077.34 -38.42 1062.41 -39.12 1046.62 C-39.18 1045.41 -39.24 1044.21 -39.31 1042.96 C-39.43 1040.44 -39.53 1037.93 -39.61 1035.41 C-39.97 1028.86 -40.29 1024.09 -45.19 1019.43 C-61.73 1006.7 -89.88 1009.02 -109.68 1009.09 C-111.22 1009.09 -112.77 1009.09 -114.32 1009.09 C-118.33 1009.1 -122.34 1009.11 -126.35 1009.12 C-130.47 1009.13 -134.58 1009.13 -138.7 1009.14 C-146.73 1009.15 -154.77 1009.16 -162.8 1009.19 C-162.8 1010.05 -162.8 1010.05 -162.81 1010.94 C-162.83 1017.04 -162.88 1023.14 -162.95 1029.24 C-162.98 1031.51 -162.99 1033.78 -163 1036.04 C-163.06 1058.87 -166.46 1076.51 -182.86 1093.41 C-192.9 1103.23 -203.09 1105.54 -216.68 1105.56 C-217.7 1105.59 -218.73 1105.61 -219.78 1105.64 C-228.22 1105.67 -235.04 1104.15 -241.75 1098.85 C-242.89 1097.63 -242.89 1097.63 -244.05 1096.37 C-244.87 1095.5 -245.69 1094.63 -246.53 1093.74 C-249.33 1090.59 -252.11 1087.44 -254.8 1084.19 C-257.75 1087.04 -260.44 1089.95 -263.05 1093.12 C-268.59 1099.51 -275.73 1104.71 -284.37 1105.39 C-287.43 1105.49 -290.49 1105.51 -293.55 1105.5 C-294.58 1105.51 -295.62 1105.53 -296.68 1105.55 C-310.55 1105.56 -319.84 1100.88 -329.93 1091.56 C-340.99 1079.96 -346.39 1065.47 -347.34 1049.7 C-347.38 1048.99 -347.42 1048.29 -347.47 1047.57 C-347.6 1045.34 -347.73 1043.1 -347.86 1040.87 C-347.95 1039.35 -348.05 1037.84 -348.14 1036.32 C-348.36 1032.61 -348.58 1028.9 -348.8 1025.19 C-350.05 1026.21 -350.05 1026.21 -351.33 1027.26 C-366.64 1039.74 -383.85 1047.36 -403.8 1048.19 C-404.87 1048.26 -404.87 1048.26 -405.96 1048.34 C-438.05 1049.66 -465.53 1032.72 -488.8 1012.44 C-514.91 987.97 -530.29 951.97 -531.76 916.51 C-532.22 895.4 -527.59 871.29 -514.55 854.24 C-511.55 851.99 -509.68 851.56 -505.94 851.8 C-502.13 852.48 -498.75 853.92 -495.24 855.5 C-494.16 855.96 -494.16 855.96 -493.07 856.43 C-491.66 857.04 -490.25 857.66 -488.84 858.28 C-485.84 859.61 -482.82 860.9 -479.8 862.19 C-480.07 861.49 -480.34 860.79 -480.61 860.08 C-481.83 856.91 -483.03 853.73 -484.24 850.56 C-484.66 849.47 -485.08 848.37 -485.51 847.24 C-485.92 846.18 -486.32 845.12 -486.73 844.02 C-487.11 843.05 -487.48 842.07 -487.86 841.07 C-489.14 837.15 -490.08 833.65 -489.3 829.56 C-487.16 826.17 -484.26 824.8 -480.74 823.12 C-479.67 822.61 -479.67 822.61 -478.57 822.08 C-455.71 811.57 -429.63 813.17 -406.2 821.31 C-398.06 824.33 -390.48 828.25 -383.12 832.86 C-380.96 834.35 -380.96 834.35 -378.8 834.19 C-378.61 833.03 -378.42 831.87 -378.23 830.68 C-370.56 784.23 -361.31 737.82 -346.88 692.94 C-346.65 692.2 -346.41 691.47 -346.17 690.72 C-345.08 687.31 -343.96 683.91 -342.8 680.53 C-340.04 672.19 -337.45 662.84 -341.18 654.37 C-344.32 649.82 -349.22 647.11 -353.8 644.19 C-378.39 628.16 -401.39 610.03 -418.8 586.19 C-419.45 585.31 -419.45 585.31 -420.11 584.41 C-431.36 568.88 -438.92 551.7 -443.8 533.19 C-444.14 531.92 -444.48 530.65 -444.83 529.34 C-446.97 519.62 -447.08 509.91 -447.11 500 C-447.12 499.32 -447.12 498.64 -447.12 497.95 C-447.15 489.59 -446.56 481.59 -445.26 473.34 C-444.64 469.06 -444.42 464.88 -444.43 460.56 C-444.43 459.7 -444.42 458.84 -444.42 457.95 C-444.57 448.97 -445.87 440.17 -447.29 431.31 C-449.54 417.27 -450.04 403.31 -450.05 389.12 C-450.05 388.31 -450.05 387.5 -450.05 386.66 C-450 344.12 -450 344.12 -438.99 331.37 C-435.15 328.74 -432.46 327.56 -427.8 328.19 C-423.88 329.5 -420.8 331.43 -418.72 335.09 C-415.56 343.28 -413.35 351.71 -411.11 360.19 C-410.51 362.45 -409.91 364.72 -409.3 366.98 C-408.92 368.38 -408.55 369.78 -408.18 371.18 C-407.23 374.77 -407.23 374.77 -405.8 378.19 C-396.48 364.77 -391.86 348.41 -386.36 333.19 C-375.3 302.52 -363.27 272.23 -351.2 241.95 C-350.44 240.04 -349.68 238.12 -348.92 236.2 C-339.73 213.08 -329.92 190.3 -319.18 167.86 C-318.27 165.96 -317.37 164.06 -316.48 162.16 C-315.96 161.08 -315.44 160 -314.91 158.88 C-313.61 156.21 -313.61 156.21 -313.8 153.19 C-315.21 152.74 -315.21 152.74 -316.66 152.29 C-320.21 151.16 -323.75 150.02 -327.3 148.87 C-328.82 148.38 -330.34 147.89 -331.87 147.41 C-371.11 135.06 -393.06 94.49 -412.16 60.46 C-419.77 46.14 -419.77 46.14 -432.55 36.94 C-439.9 35.3 -447.37 37.12 -454.43 39.31 C-459.25 40.56 -463.86 40.81 -468.8 40.19 C-472.23 38.14 -472.63 36.73 -473.8 32.94 C-473.8 22.68 -464.81 14.18 -457.99 7.31 C-444.12 -6.19 -428.08 -17.19 -410.8 -25.81 C-410.07 -26.18 -409.33 -26.55 -408.57 -26.93 C-388.08 -37.02 -363.77 -43.41 -340.8 -41.81 C-339.76 -41.74 -338.71 -41.67 -337.64 -41.6 C-302.89 -37.94 -272.63 -15.99 -251.04 10.37 C-249.25 12.62 -247.5 14.87 -245.8 17.19 C-245.7 16.65 -245.6 16.11 -245.5 15.56 C-244.97 12.76 -244.39 9.97 -243.8 7.19 C-243.54 5.95 -243.29 4.72 -243.02 3.45 C-238.49 -17.11 -227.5 -33.65 -209.74 -45.27 C-145.22 -85.57 -51.72 -43.72 0 0 Z M-221.68 -22.69 C-231.02 -10.57 -235.18 3.67 -235.05 18.81 C-235.06 19.71 -235.07 20.62 -235.07 21.55 C-235.06 26.82 -234.52 31.2 -232.8 36.19 C-228.9 34.68 -227.32 32.46 -224.99 29.06 C-217.22 18.15 -208.86 8.48 -194.99 5.69 C-193.6 5.49 -192.2 5.31 -190.8 5.19 C-191.32 6.22 -191.84 7.25 -192.38 8.31 C-198.5 20.71 -204.43 34.12 -204.8 48.19 C-204.84 48.98 -204.88 49.78 -204.92 50.6 C-205.78 83.21 -190.04 113.47 -168.07 136.76 C-166.65 138.24 -165.23 139.71 -163.8 141.19 C-163.07 141.96 -162.34 142.73 -161.59 143.52 C-158.21 147.11 -158.21 147.11 -153.8 149.19 C-155.47 143.99 -157.3 138.93 -159.36 133.87 C-166.86 114.35 -165.19 92.44 -157.31 73.26 C-151.71 61.85 -144.35 54.96 -132.8 50.19 C-133.14 51.13 -133.48 52.07 -133.82 53.05 C-142.19 76.88 -142.95 103.97 -131.8 127.19 C-127.23 136.5 -121.07 144.08 -114.14 151.71 C-113.06 152.9 -112.01 154.1 -110.96 155.31 C-96.49 171.19 -70.78 180.72 -49.8 182.19 C-32.34 182.48 -13.25 182.39 2.2 173.19 C1.87 172.53 1.54 171.87 1.2 171.19 C-1.15 170.45 -1.15 170.45 -4.02 169.92 C-5.11 169.7 -6.2 169.47 -7.32 169.23 C-9.07 168.87 -9.07 168.87 -10.86 168.5 C-34.2 163.35 -51.66 154.15 -65.18 133.65 C-75.45 117.48 -84.19 98.75 -81.36 79.1 C-79.52 71.42 -77.18 64.55 -70.73 59.59 C-58.04 51.97 -39.8 52.26 -25.62 54.8 C-15.04 57.56 -5.17 63.02 4.22 68.52 C5.18 69.08 5.18 69.08 6.15 69.65 C7.91 70.69 9.66 71.75 11.41 72.81 C14.18 74.58 14.18 74.58 17.2 73.19 C19.01 69.52 20.12 65.57 21.39 61.69 C21.75 60.62 22.12 59.56 22.5 58.46 C24.5 52.42 26.37 46.58 25.2 40.19 C23.88 37.41 23.88 37.41 21.76 35.25 C21.03 34.42 20.3 33.58 19.54 32.73 C18.77 31.89 18 31.05 17.2 30.19 C16.47 29.35 15.73 28.51 14.98 27.65 C6.73 18.27 -1.99 9.92 -11.8 2.19 C-12.8 1.38 -13.8 0.58 -14.83 -0.25 C-42.58 -22.37 -76.34 -37.72 -110.8 -45.81 C-111.69 -46.02 -112.57 -46.23 -113.49 -46.45 C-150.92 -54.84 -194.53 -53.17 -221.68 -22.69 Z M-442.8 7.19 C-443.74 8.01 -444.68 8.83 -445.65 9.67 C-450.31 13.45 -450.31 13.45 -453.8 18.19 C-449.32 16.73 -444.86 15.24 -440.47 13.54 C-405.87 0.15 -370.65 -4.01 -335.92 11 C-302.99 25.69 -274.79 55.19 -261.68 88.78 C-256.49 102.82 -256.26 116.22 -261.8 130.19 C-264.59 135.38 -268.59 139.14 -272.8 143.19 C-273.78 144.16 -274.76 145.14 -275.74 146.12 C-276.42 146.8 -277.1 147.48 -277.8 148.19 C-265.18 148.79 -251.79 147.01 -241.84 138.51 C-231.01 127.09 -227.23 111.73 -227.31 96.4 C-228.36 66.31 -244.07 28.55 -266.07 7.78 C-266.64 7.25 -267.21 6.73 -267.8 6.19 C-272.8 1.19 -272.8 1.19 -274.1 -0.29 C-289.41 -16.98 -316.19 -30.41 -338.66 -32.02 C-341.59 -32.12 -344.5 -32.14 -347.43 -32.13 C-349 -32.12 -349 -32.12 -350.6 -32.11 C-384.34 -31.59 -417.87 -14.99 -442.8 7.19 Z M66.2 2.19 C65.34 2.97 64.49 3.75 63.61 4.56 C40.09 27.08 22.86 64.45 21.85 97.02 C21.69 111.74 25.31 127.03 35.45 138.25 C46.19 147.8 59.64 148.5 73.2 148.19 C70.63 145.57 68 143.12 65.2 140.75 C57.08 133.62 53.03 125.3 51.93 114.52 C51.04 88.81 65.44 65.59 82.32 47.31 C83.83 45.72 85.34 44.14 86.86 42.57 C88.01 41.38 89.15 40.16 90.28 38.95 C112.54 15.56 142.31 2.58 174.33 1.73 C188.83 1.51 202.29 2.91 216.2 7.19 C217.6 7.61 217.6 7.61 219.02 8.05 C227.7 10.73 236.19 13.55 244.38 17.53 C244.98 17.75 245.58 17.96 246.2 18.19 C246.86 17.86 247.52 17.53 248.2 17.19 C224.81 -7.77 188.27 -30.2 153.39 -31.96 C117.29 -33.06 92.55 -22.06 66.2 2.19 Z M-447.8 26.19 C-447.8 26.52 -447.8 26.85 -447.8 27.19 C-446.68 27.21 -445.56 27.24 -444.4 27.26 C-432.89 27.65 -425.04 28.51 -416.8 37.19 C-415.44 39.02 -414.13 40.9 -412.87 42.81 C-411.78 44.44 -411.78 44.44 -410.67 46.11 C-409.9 47.28 -409.13 48.45 -408.36 49.62 C-407.56 50.84 -406.76 52.05 -405.95 53.27 C-400.46 61.57 -395.11 69.96 -389.79 78.37 C-368.29 112.29 -350.28 133.83 -310.46 144.39 C-300.95 146.47 -293.21 145.9 -284.66 141.08 C-276.84 135.9 -270.38 130.48 -267.8 121.19 C-264.36 103.92 -268.85 88.63 -278.4 74.21 C-284.55 65.16 -291.16 57 -298.8 49.19 C-299.74 48.18 -300.69 47.18 -301.63 46.17 C-317.97 28.96 -337.18 18.81 -359.8 12.19 C-361.64 11.62 -361.64 11.62 -363.52 11.05 C-390.71 4.51 -423.56 13.6 -447.8 26.19 Z M87.26 54.34 C71.81 71.76 60.22 92.07 60.83 115.83 C61.34 124.33 65.57 130.57 71.69 136.3 C79.43 142.13 88.51 146.77 98.39 145.91 C135.47 138.65 157.2 119.75 177.92 89.23 C182.36 82.53 186.52 75.67 190.64 68.77 C191.03 68.11 191.43 67.45 191.83 66.76 C193.81 63.44 195.79 60.12 197.74 56.78 C205.08 44.35 212 32.7 226.27 27.93 C230.87 26.76 235.46 26.37 240.2 26.19 C236.4 22.78 231.94 21.44 227.2 19.81 C225.89 19.36 225.89 19.36 224.55 18.89 C171.49 0.94 125.01 13.12 87.26 54.34 Z M-210.8 24.19 C-211.31 24.89 -211.82 25.59 -212.34 26.31 C-213.77 28.28 -215.21 30.25 -216.64 32.21 C-217.94 34 -219.22 35.8 -220.46 37.63 C-223.44 41.93 -225.39 44.16 -230.8 45.19 C-230.23 50.64 -228.85 55.1 -226.8 60.19 C-221.88 58.7 -217.98 56.21 -214.8 52.19 C-213.24 48.04 -212.51 43.86 -211.8 39.5 C-211.59 38.36 -211.37 37.22 -211.15 36.04 C-209.88 30.06 -209.88 30.06 -210.8 24.19 Z M-462.8 28.19 C-462.8 31.19 -462.8 31.19 -462.8 31.19 Z M-68.8 69.19 C-74.56 77.41 -73.71 88.04 -72.29 97.61 C-67.09 118.71 -53.9 139.76 -35.45 151.28 C-25.54 156.95 -15.34 159.09 -4.17 161.08 C1.2 162.09 6.23 163.22 10.2 167.19 C10.83 171.8 10.86 174.99 8.14 178.87 C-2.34 189.57 -25.04 190.22 -39.03 190.59 C-58.6 190.79 -75.45 187.26 -92.8 178.19 C-93.46 177.84 -94.13 177.49 -94.81 177.13 C-119.84 163.73 -136.24 142.41 -144.61 115.44 C-145.02 114.02 -145.41 112.61 -145.8 111.19 C-145.99 110.5 -146.18 109.8 -146.38 109.09 C-148 102.64 -148.23 96.25 -148.43 89.62 C-148.46 88.52 -148.5 87.42 -148.54 86.28 C-148.64 83.58 -148.72 80.88 -148.8 78.19 C-151.17 80.56 -151.51 82.1 -152.36 85.31 C-152.61 86.22 -152.86 87.13 -153.12 88.07 C-156.76 104.69 -155.62 120.42 -149.2 136.1 C-148.93 136.77 -148.65 137.44 -148.37 138.13 C-147.59 140.02 -146.78 141.9 -145.97 143.78 C-144.53 147.98 -144.09 151.31 -145.68 155.5 C-146.8 157.19 -146.8 157.19 -148.8 158.19 C-152.86 158.94 -156.36 158.97 -160.04 156.98 C-162.43 155.16 -164.61 153.23 -166.8 151.19 C-167.56 150.52 -168.32 149.85 -169.1 149.16 C-181.98 137.16 -191.84 121.79 -199.8 106.19 C-200.28 105.27 -200.28 105.27 -200.77 104.33 C-207.39 91.58 -210.78 78.16 -213.8 64.19 C-216.72 65.26 -218.58 65.96 -220.8 68.19 C-221.83 72.38 -221.76 75.6 -220.89 79.8 C-217.14 100.33 -219.11 120.53 -230.8 138.19 C-238.44 148.97 -249.8 154.14 -262.52 156.74 C-266.13 157.23 -269.47 157.18 -273.11 157.04 C-274.51 157 -275.91 156.97 -277.31 156.93 C-279.49 156.88 -281.67 156.81 -283.85 156.71 C-293.68 156.06 -293.68 156.06 -302.37 159.96 C-309.78 168.03 -314.18 178.65 -318.55 188.56 C-318.82 189.16 -319.08 189.75 -319.35 190.37 C-337.02 230.16 -352.91 270.78 -368.03 311.61 C-387.21 363.42 -387.21 363.42 -397.79 382.21 C-402.04 389.91 -402.7 394.38 -400.25 402.9 C-399.54 405.12 -398.8 407.34 -398.05 409.56 C-397.45 411.34 -397.45 411.34 -396.84 413.15 C-388.31 437.67 -376.41 460.08 -358.8 479.19 C-358.05 480.02 -357.3 480.85 -356.53 481.71 C-336.94 502.45 -309.8 511.3 -282.5 516.42 C-268.79 519.05 -257.09 523.47 -248.93 535.44 C-242.8 545.88 -241.24 556.99 -243.27 568.95 C-246.31 580.47 -253.2 589.7 -263.46 595.76 C-284.38 606.54 -312.83 598.63 -334.11 592.07 C-374.6 578.77 -405.37 550.21 -424.63 512.61 C-429.19 503.18 -433.09 493.31 -435.8 483.19 C-436.13 483.19 -436.46 483.19 -436.8 483.19 C-443.67 509.78 -433.7 542.43 -420.89 565.64 C-413.53 577.96 -404.73 588.88 -394.8 599.19 C-394.19 599.82 -393.58 600.46 -392.96 601.11 C-384.45 609.96 -375.9 618.15 -365.8 625.19 C-365.13 625.65 -364.47 626.12 -363.78 626.61 C-352.86 634.22 -341.61 641.04 -329.8 647.19 C-328.99 647.61 -328.18 648.04 -327.35 648.48 C-294.36 665.67 -250.64 683.18 -212.8 682.19 C-213.08 681.39 -213.36 680.59 -213.64 679.77 C-214.18 678.18 -214.18 678.18 -214.74 676.56 C-215.1 675.52 -215.46 674.47 -215.83 673.4 C-222.83 650.28 -213.06 621.5 -202.36 600.87 C-201.22 598.95 -200.03 597.05 -198.8 595.19 C-198.27 594.38 -198.27 594.38 -197.74 593.56 C-191.26 583.75 -183.72 574.86 -175.8 566.19 C-175.34 565.67 -174.87 565.16 -174.39 564.63 C-157.94 546.75 -135.9 533.23 -111.16 532.06 C-79.05 531.01 -56.6 541.13 -33.14 562.62 C-7.42 587.41 11.58 622.27 12.57 658.44 C12.42 665.27 11.01 671.61 9.2 678.19 C8.86 679.52 8.53 680.85 8.2 682.19 C79.07 676.19 151.55 643.2 198.8 589.37 C220.42 563.53 232.15 532.58 232.32 498.94 C232.33 498.18 232.33 497.42 232.34 496.64 C232.33 492.06 231.95 487.71 231.2 483.19 C229.04 486.42 228.2 489.16 227.07 492.87 C214.15 533.2 183.66 565.31 146.66 584.64 C123.99 595.98 90.5 606.26 65.27 599.39 C54.95 595.69 45.83 588.53 41.07 578.5 C40.41 576.74 39.78 574.97 39.2 573.19 C38.96 572.53 38.72 571.88 38.47 571.21 C35.47 561.76 36.11 550.19 40.2 541.19 C42.01 538.03 44.03 535.1 46.2 532.19 C46.8 531.3 47.4 530.41 48.01 529.5 C56.83 520.18 68.52 517.88 80.61 515.49 C116.25 508.42 145.79 493.19 166.82 462.42 C180.4 441.98 196.48 414.39 194.2 389.19 C192.67 383.66 189.99 378.71 187.36 373.64 C182.99 365.17 179.27 356.68 176.07 347.72 C174.71 343.9 173.3 340.09 171.91 336.28 C171.61 335.47 171.31 334.65 171 333.81 C160.39 304.83 149.05 276.11 137.61 247.44 C136.78 245.35 135.94 243.26 135.11 241.17 C126.31 219.05 117.19 197.07 106.82 175.62 C106.1 174.1 106.1 174.1 105.37 172.56 C102.62 166.85 99.66 161.48 96.2 156.19 C95.35 156.26 94.5 156.33 93.62 156.4 C71.14 158.13 49.83 158.84 30.55 145.33 C21.16 136.77 14.71 120.59 14.1 108.05 C13.99 104.62 13.9 101.19 13.86 97.75 C13.63 90.77 12.21 85.22 7.18 80.15 C-10.99 68.21 -49.72 48.91 -68.8 69.19 Z M-430.8 338.19 C-445.35 354.26 -441.6 390.45 -440.8 410.19 C-437.74 458.79 -424.54 512.26 -389.33 547.64 C-388.08 548.91 -386.86 550.21 -385.66 551.51 C-361.81 577.08 -323.74 590.05 -289.63 592.4 C-278.45 592.75 -268.91 589.84 -260.63 582.18 C-253.61 574.84 -251.7 568.82 -251.36 558.75 C-251.6 549.01 -254.14 542 -260.91 534.93 C-270.22 526.33 -282.58 524.81 -294.61 522.43 C-320.97 517.19 -342.11 506.75 -361.8 488.19 C-362.45 487.6 -363.11 487.01 -363.78 486.4 C-398.23 454.08 -410.55 402.01 -420.82 357.77 C-422.97 348.66 -422.97 348.66 -426.8 340.19 C-428.83 338.88 -428.83 338.88 -430.8 338.19 Z M222.2 338.19 C218.67 344.58 216.78 350.79 215.06 357.87 C214.48 360.18 213.89 362.5 213.31 364.81 C212.42 368.41 211.53 372 210.64 375.59 C200.64 415.93 187.17 455.43 158.2 486.19 C157.54 486.92 156.88 487.66 156.2 488.42 C136.4 509.61 109.16 518.83 81.48 524.01 C69.51 526.3 59.29 529.17 51.66 539.21 C45.7 548.31 45.15 557.59 46.2 568.19 C47.03 571.63 48.22 574.26 50.2 577.19 C50.61 577.81 51.02 578.43 51.45 579.06 C56.67 585.93 64.47 590.5 72.95 591.94 C107.37 595.65 145.05 579.96 171.64 559.06 C214.08 522.98 230.02 469.65 234.68 415.59 C238.47 376.06 238.47 376.06 227.25 339.76 C225.23 337.88 225.23 337.88 222.2 338.19 Z M-172.49 575 C-194.3 600.42 -210.99 630.68 -208.8 665.19 C-207.76 673.64 -204.39 679.7 -197.8 685.19 C-187.61 690.09 -176.22 686.66 -165.99 683.56 C-164.08 683.01 -162.17 682.46 -160.27 681.91 C-158.35 681.36 -156.43 680.8 -154.51 680.25 C-116.28 669.31 -84.84 669.85 -46.65 681.33 C-42.36 682.62 -38.05 683.85 -33.74 685.06 C-32.7 685.37 -32.7 685.37 -31.63 685.68 C-22.44 688.28 -15.24 688.96 -6.61 684.56 C-0.51 679.41 2.36 673.05 3.2 665.19 C5.21 634.73 -7.65 604.35 -27.3 581.44 C-30.7 577.59 -34.21 573.86 -37.8 570.19 C-38.35 569.62 -38.89 569.05 -39.46 568.46 C-55.02 552.5 -74.19 541.3 -96.8 540.19 C-97.77 540.13 -98.75 540.08 -99.75 540.03 C-129.16 539.19 -152.99 554.09 -172.49 575 Z M328.45 632.87 C327.57 633.05 326.7 633.24 325.79 633.42 C318.59 634.98 311.91 637.12 305.2 640.19 C304.25 640.61 304.25 640.61 303.28 641.05 C285.79 648.95 271.98 660.2 263.94 677.98 C258.88 691.71 259.2 708.83 265.2 722.19 C269.56 731.43 276.63 739.73 286.36 743.56 C298.02 746.13 310.42 745.11 320.58 738.68 C330.78 731.25 338.93 721.67 341.07 708.99 C341.55 698.54 336.9 687.85 333.5 678.12 C331.48 672.14 330.96 666.66 330.89 660.37 C330.84 659.22 330.84 659.22 330.8 658.04 C330.73 651.39 332.39 646.08 337.09 641.23 C337.73 640.8 338.36 640.38 339.01 639.94 C339.7 639.46 340.39 638.99 341.09 638.51 C344.08 636.63 347.1 634.87 350.2 633.19 C343.9 628.99 335.49 631.41 328.45 632.87 Z M-325.8 659.19 C-344.73 707.95 -356.8 759.99 -365.36 811.5 C-365.49 812.26 -365.62 813.02 -365.75 813.8 C-369.28 831.47 -369.28 831.47 -364.8 848.19 C-362.98 850.4 -361.01 852.36 -358.93 854.31 C-358.41 854.81 -357.89 855.31 -357.36 855.82 C-356.39 856.76 -355.41 857.7 -354.42 858.63 C-352.18 860.78 -349.99 862.98 -347.8 865.19 C-347.78 864.12 -347.75 863.06 -347.72 861.97 C-347.63 857.94 -347.53 853.91 -347.43 849.88 C-347.39 848.16 -347.34 846.43 -347.3 844.7 C-347.17 838.86 -346.99 833.02 -346.8 827.19 C-346.76 825.94 -346.76 825.94 -346.73 824.68 C-346.65 822.3 -346.56 819.93 -346.45 817.56 C-346.43 816.84 -346.41 816.12 -346.39 815.39 C-346.29 813.39 -346.29 813.39 -345.8 810.19 C-344.32 809.2 -344.32 809.2 -342.8 808.19 C-341.81 808.52 -340.82 808.85 -339.8 809.19 C-338.84 825.45 -338.61 841.69 -338.53 857.98 C-338.51 861.53 -338.49 865.08 -338.46 868.63 C-338.4 877.63 -338.35 886.63 -338.3 895.62 C-338.25 905.32 -338.19 915.01 -338.12 924.71 C-338.1 928.21 -338.08 931.71 -338.06 935.21 C-338.02 942.92 -337.96 950.63 -337.85 958.34 C-337.82 960.98 -337.79 963.61 -337.77 966.25 C-337.74 970.29 -337.67 974.34 -337.6 978.38 C-337.59 979.59 -337.59 980.8 -337.58 982.05 C-337.21 997.58 -329.92 1009.19 -319.44 1020.14 C-313.5 1024.74 -306.89 1026.82 -299.48 1027.42 C-298.65 1027.5 -297.82 1027.57 -296.96 1027.65 C-282.78 1028.75 -268.49 1028.44 -254.27 1028.38 C-251.05 1028.37 -247.83 1028.37 -244.6 1028.37 C-241.46 1028.37 -238.31 1028.37 -235.16 1028.36 C-233.68 1028.36 -232.2 1028.35 -230.71 1028.35 C-211.4 1028.89 -211.4 1028.89 -193.8 1022.19 C-193.19 1021.8 -192.58 1021.41 -191.95 1021.01 C-182.65 1014.12 -176.21 1001.25 -173.8 990.19 C-172.88 983.27 -172.62 976.48 -172.55 969.51 C-172.52 967.28 -172.49 965.05 -172.46 962.82 C-172.41 959.33 -172.36 955.84 -172.32 952.36 C-172.28 948.97 -172.23 945.58 -172.18 942.2 C-172.17 941.15 -172.16 940.11 -172.15 939.03 C-172.13 937.57 -172.13 937.57 -172.1 936.09 C-172.09 935.23 -172.08 934.38 -172.07 933.5 C-171.78 931 -171.05 929.35 -169.8 927.19 C-168.15 927.19 -166.5 927.19 -164.8 927.19 C-164.47 950.95 -164.14 974.71 -163.8 999.19 C-122.88 999.19 -81.96 999.19 -39.8 999.19 C-39.51 976.57 -39.51 976.57 -39.23 953.95 C-39.17 949.58 -39.17 949.58 -39.14 947.53 C-39.13 946.1 -39.11 944.67 -39.09 943.24 C-39.07 941.08 -39.04 938.91 -39.01 936.75 C-38.98 934.92 -38.98 934.92 -38.96 933.05 C-38.8 930.19 -38.8 930.19 -37.8 928.19 C-36.15 928.19 -34.5 928.19 -32.8 928.19 C-31.51 932.05 -31.61 935.75 -31.55 939.78 C-31.52 941.55 -31.49 943.32 -31.46 945.1 C-31.41 947.86 -31.36 950.63 -31.32 953.4 C-31.18 963.18 -30.88 972.89 -29.87 982.62 C-29.79 983.39 -29.71 984.16 -29.63 984.95 C-28.04 999.07 -21.93 1012.06 -10.8 1021.19 C1.58 1030.13 17.16 1028.34 31.82 1028.32 C33.38 1028.32 34.95 1028.32 36.51 1028.32 C39.75 1028.32 43 1028.32 46.25 1028.32 C50.37 1028.31 54.49 1028.31 58.61 1028.32 C61.83 1028.32 65.04 1028.32 68.26 1028.32 C69.78 1028.32 71.29 1028.32 72.81 1028.32 C98.32 1028.75 98.32 1028.75 120.07 1016.94 C123.76 1013.14 126.18 1009.04 128.57 1004.37 C128.91 1003.73 129.24 1003.1 129.59 1002.44 C133.83 993.69 134.49 984.21 134.6 974.62 C134.62 973.12 134.62 973.12 134.65 971.6 C134.71 968.31 134.75 965.02 134.79 961.73 C134.83 959.38 134.87 957.04 134.91 954.69 C135.37 924.68 135.55 894.67 135.75 864.66 C135.79 858.35 135.84 852.04 135.89 845.72 C135.92 842.23 135.94 838.73 135.96 835.23 C135.98 833.1 135.99 830.96 136.01 828.83 C136.02 827.41 136.02 827.41 136.02 825.95 C136.08 820.29 136.48 814.8 137.2 809.19 C138.19 808.86 139.18 808.53 140.2 808.19 C142.33 809.89 143.13 810.79 143.6 813.52 C143.61 814.44 143.62 815.36 143.63 816.3 C143.66 817.86 143.66 817.86 143.69 819.45 C143.7 821.14 143.7 821.14 143.71 822.85 C143.74 824.58 143.74 824.58 143.77 826.34 C143.82 830.02 143.85 833.7 143.89 837.37 C143.92 839.87 143.95 842.36 143.99 844.85 C144.08 850.96 144.14 857.07 144.2 863.19 C145.31 862.24 146.42 861.3 147.53 860.35 C148.14 859.82 148.76 859.3 149.4 858.76 C151.85 856.62 154.15 854.36 156.45 852.06 C157.28 851.23 158.11 850.41 158.96 849.55 C162.81 845.8 162.81 845.8 164.4 840.9 C163.28 830.67 161.52 820.56 159.7 810.44 C159.44 808.96 159.44 808.96 159.17 807.45 C150.18 757.42 137.31 708.38 121.2 660.19 C114.54 661.79 108.33 664.3 102.07 667.06 C101.32 667.39 100.57 667.72 99.8 668.05 C90.75 671.66 90.75 671.66 84.2 678.19 C84.07 680.49 84 682.8 83.95 685.12 C83.92 686.56 83.89 688 83.86 689.44 C83.84 690.19 83.83 690.95 83.81 691.72 C82.91 733.91 74.24 774.72 48.2 809.19 C47.71 809.83 47.23 810.48 46.72 811.14 C14.53 853.21 -32 878.69 -84.29 885.65 C-87.14 885.93 -89.95 886.09 -92.8 886.19 C-93.92 886.24 -95.04 886.29 -96.2 886.34 C-142.87 887.5 -189.58 870.7 -224.8 840.19 C-225.63 839.48 -226.46 838.77 -227.31 838.05 C-261.51 808.2 -283.09 764.13 -287.8 719.19 C-288.2 712.84 -288.24 706.48 -288.33 700.12 C-288.26 685.95 -288.26 685.95 -293.8 673.19 C-296.11 671.68 -296.11 671.68 -298.81 670.65 C-299.8 670.23 -300.78 669.82 -301.8 669.39 C-303.35 668.76 -303.35 668.76 -304.93 668.12 C-306.95 667.28 -308.97 666.43 -311 665.59 C-311.97 665.19 -312.95 664.79 -313.95 664.37 C-317.93 662.71 -321.87 660.96 -325.8 659.19 Z M-278.8 678.19 C-284.32 710.2 -276.45 744.85 -263.8 774.19 C-263.52 774.84 -263.24 775.49 -262.95 776.15 C-256.38 791.09 -246.55 804.98 -235.8 817.19 C-234.94 818.18 -234.08 819.18 -233.19 820.2 C-227.27 826.92 -220.96 832.79 -213.8 838.19 C-213.28 838.58 -212.76 838.97 -212.23 839.38 C-194.16 853 -174.3 863.92 -152.61 870.56 C-151.88 870.79 -151.15 871.01 -150.39 871.25 C-135.88 875.42 -121.74 876.68 -106.71 876.58 C-103.87 876.56 -101.03 876.58 -98.19 876.6 C-63.11 876.64 -25.25 865.72 2.2 843.19 C3.17 842.41 4.14 841.64 5.14 840.85 C20.1 828.76 33.33 815.05 44.2 799.19 C44.82 798.3 44.82 798.3 45.45 797.39 C69.52 762.39 77.31 720.94 74.2 679.19 C67.56 679.86 61.25 681.28 54.76 682.81 C40.73 686.04 26.59 688.43 12.38 690.74 C10.68 691.01 8.99 691.29 7.29 691.57 C6.48 691.71 5.67 691.84 4.83 691.98 C0.55 692.71 -3.56 693.6 -7.71 694.86 C-13.67 696.61 -19.51 696.67 -25.68 696.75 C-34.8 696.88 -34.8 696.88 -43.89 697.65 C-61.58 699.77 -79.33 699.49 -97.12 699.45 C-101.85 699.44 -106.58 699.44 -111.31 699.45 C-146.11 699.53 -146.11 699.53 -161.83 697.64 C-167.28 697.02 -172.69 696.94 -178.18 696.87 C-187.23 696.62 -195.58 695.46 -204.37 693.33 C-212.6 691.36 -220.86 689.99 -229.21 688.68 C-244.67 686.25 -259.61 683.04 -274.67 678.73 C-276.76 678.1 -276.76 678.1 -278.8 678.19 Z M-152.8 688.19 C-149.73 691.25 -146.07 690.66 -141.93 690.8 C-140.5 690.86 -140.5 690.86 -139.03 690.92 C-125.2 691.39 -111.35 691.34 -97.51 691.32 C-93.49 691.31 -89.47 691.31 -85.45 691.32 C-82.33 691.32 -79.2 691.32 -76.07 691.32 C-74.59 691.32 -73.1 691.32 -71.62 691.32 C-69.56 691.32 -67.5 691.32 -65.45 691.32 C-64.28 691.31 -63.11 691.31 -61.91 691.31 C-59.09 691.2 -56.55 690.83 -53.8 690.19 C-53.8 689.53 -53.8 688.87 -53.8 688.19 C-87.25 677.1 -119.11 678.87 -152.8 688.19 Z M279.2 751.19 C276.5 754.45 274.19 757.74 272.01 761.37 C268.81 766.51 265.11 770.82 260.92 775.19 C258.98 777 258.98 777 259.2 779.19 C258.62 779.44 258.04 779.7 257.44 779.96 C254.98 781.31 253.33 782.85 251.32 784.81 C245.56 790.02 239.05 793.63 232.2 797.19 C231.08 797.77 229.96 798.36 228.81 798.96 C210.3 808.11 190.39 813.31 170.2 817.19 C170.53 819.83 170.86 822.47 171.2 825.19 C199.3 824.46 230.33 812.61 252.2 795.19 C252.72 794.77 253.24 794.36 253.77 793.94 C267.84 782.68 279.45 770.16 286.2 753.19 C283.89 752.53 281.58 751.87 279.2 751.19 Z M-475.55 832.31 C-478.99 840.23 -474.73 849 -471.89 856.59 C-470.04 861.69 -469.51 865.76 -469.8 871.19 C-480.55 872.42 -489.25 868.45 -498.89 864.28 C-501.99 863.01 -504.26 862.18 -507.64 862.23 C-511.99 864.16 -513.11 869 -514.8 873.19 C-526.01 902.67 -523.37 935.62 -510.71 964.2 C-496.07 996.07 -471.53 1021.09 -438.46 1033.43 C-417.86 1040.25 -394.59 1040.71 -374.61 1031.63 C-366.08 1027.25 -355.7 1021.89 -351.71 1012.68 C-347.37 997.23 -347.49 980.32 -347.54 964.4 C-347.53 962.57 -347.53 960.74 -347.53 958.91 C-347.53 955.1 -347.53 951.29 -347.54 947.48 C-347.55 942.66 -347.54 937.83 -347.53 933.01 C-347.53 929.23 -347.53 925.46 -347.53 921.68 C-347.53 919.91 -347.53 918.13 -347.53 916.36 C-347.51 907.1 -347.77 897.96 -348.71 888.75 C-348.79 887.96 -348.87 887.17 -348.95 886.35 C-350.44 873.11 -359.79 865.24 -368.8 856.19 C-369.29 855.69 -369.79 855.19 -370.3 854.68 C-387.34 837.74 -412.45 824.73 -436.8 824.19 C-437.58 824.15 -438.36 824.11 -439.16 824.07 C-451.18 823.71 -465.74 824.73 -475.55 832.31 Z M158.52 860.87 C143.64 876.94 145.04 897.13 145.03 917.93 C145.03 919.63 145.02 921.32 145.02 923.02 C145.02 926.57 145.01 930.11 145.01 933.66 C145.01 937.24 145.01 940.83 144.99 944.41 C142.39 983.86 142.39 983.86 152.71 1020.44 C154.75 1022.42 156.74 1023.75 159.2 1025.19 C160.02 1025.67 160.02 1025.67 160.86 1026.17 C180.13 1037.45 201.63 1042.28 223.76 1036.56 C226.26 1035.82 228.74 1035.03 231.2 1034.19 C231.83 1033.97 232.45 1033.76 233.1 1033.54 C249.02 1027.97 261.93 1019.62 274.2 1008.19 C275.05 1007.4 275.05 1007.4 275.92 1006.6 C299.26 984.87 315.5 953.3 317.11 921.12 C317.14 920.15 317.17 919.18 317.2 918.19 C317.24 917.38 317.28 916.58 317.32 915.76 C317.82 898.19 314.49 877.8 304.2 863.19 C300.18 861.81 297.88 862.37 294.07 864.06 C292.61 864.67 292.61 864.67 291.12 865.3 C289.11 866.17 287.1 867.05 285.1 867.94 C278.23 870.82 272.63 871.79 265.2 871.19 C264.72 863.84 265.79 858.37 268.64 851.62 C272.4 842.72 272.4 842.72 273.2 833.19 C267.27 825.92 252.66 825.5 243.83 824.48 C210.73 821.78 181.32 838.09 158.52 860.87 Z M-337.8 1013.19 C-337.88 1018.18 -337.93 1023.18 -337.97 1028.17 C-337.98 1029.86 -338 1031.55 -338.03 1033.25 C-338.24 1047.52 -337.86 1061.47 -330.55 1074.19 C-330.15 1074.9 -329.75 1075.62 -329.33 1076.36 C-326.43 1081.41 -323.69 1085.85 -318.8 1089.19 C-317.87 1089.83 -316.95 1090.48 -315.99 1091.14 C-305.04 1097.69 -293.03 1098.09 -280.66 1095.54 C-273.08 1092.48 -268.14 1085.03 -263.18 1078.83 C-261.19 1076.46 -259.03 1074.33 -256.8 1072.19 C-253.07 1073.46 -250.86 1074.8 -248.24 1077.74 C-247.61 1078.44 -246.98 1079.14 -246.32 1079.85 C-245.68 1080.58 -245.03 1081.31 -244.36 1082.06 C-237.5 1089.76 -231.61 1095.7 -220.82 1096.37 C-207.84 1096.62 -197.42 1094.64 -187.68 1085.62 C-176.17 1073.41 -172.6 1058.53 -172.7 1042.19 C-172.7 1041.36 -172.71 1040.52 -172.71 1039.66 C-172.71 1037.03 -172.73 1034.39 -172.74 1031.75 C-172.74 1029.95 -172.75 1028.15 -172.75 1026.35 C-172.76 1021.96 -172.78 1017.57 -172.8 1013.19 C-175.69 1016.05 -178.4 1018.88 -180.93 1022.06 C-188.47 1030.78 -198.99 1036.05 -210.36 1036.99 C-217.51 1037.4 -224.66 1037.35 -231.81 1037.35 C-233.55 1037.36 -235.29 1037.36 -237.03 1037.36 C-240.66 1037.37 -244.3 1037.37 -247.93 1037.37 C-252.54 1037.37 -257.15 1037.38 -261.76 1037.4 C-265.36 1037.41 -268.95 1037.42 -272.54 1037.41 C-274.23 1037.42 -275.93 1037.42 -277.63 1037.43 C-307.9 1037.55 -307.9 1037.55 -318.8 1031.19 C-319.83 1030.59 -320.86 1029.99 -321.93 1029.37 C-328.01 1024.74 -332.46 1019.43 -336.8 1013.19 C-337.13 1013.19 -337.46 1013.19 -337.8 1013.19 Z M134.2 1012.19 C133.18 1013.67 132.18 1015.17 131.2 1016.69 C125.01 1025.6 116.87 1032.86 106.16 1035.73 C101.91 1036.38 97.71 1036.34 93.41 1036.35 C92.43 1036.35 91.45 1036.36 90.44 1036.36 C87.2 1036.38 83.96 1036.38 80.71 1036.39 C78.46 1036.39 76.2 1036.4 73.94 1036.41 C69.21 1036.42 64.47 1036.42 59.74 1036.43 C53.68 1036.43 47.63 1036.46 41.58 1036.48 C36.91 1036.5 32.25 1036.51 27.58 1036.51 C25.35 1036.51 23.12 1036.52 20.89 1036.53 C17.76 1036.55 14.63 1036.55 11.5 1036.54 C10.13 1036.56 10.13 1036.56 8.74 1036.57 C-2.89 1036.5 -13.24 1031.83 -21.61 1023.75 C-24.71 1020.47 -27.23 1016.89 -29.8 1013.19 C-30.13 1013.19 -30.46 1013.19 -30.8 1013.19 C-30.71 1017.47 -30.6 1021.75 -30.48 1026.03 C-30.45 1027.48 -30.41 1028.93 -30.38 1030.38 C-29.94 1049.92 -28.84 1070.13 -14.8 1085.19 C-4.43 1094.19 5.33 1096.62 18.92 1096.46 C30.93 1095.46 38.3 1087.59 45.85 1078.98 C47.4 1077.12 47.4 1077.12 48.2 1074.19 C51.26 1073 51.26 1073 54.2 1072.19 C63.8 1081.62 63.8 1081.62 67.76 1086.5 C72.02 1091.48 77.71 1094.99 84.2 1096.19 C96.87 1096.98 108.33 1095.25 118.58 1087.35 C131.32 1075.73 135.25 1059.38 136.08 1042.77 C136.42 1032.51 135.92 1022.42 135.2 1012.19 C134.87 1012.19 134.54 1012.19 134.2 1012.19 Z " fill="#000000" transform="translate(725.80078125,117.81396484375)"/>
<path d="M0 0 C0.67 0.23 1.35 0.47 2.04 0.71 C17.8 6.28 31.33 14.01 43 26 C43.81 26.81 44.61 27.62 45.45 28.45 C49.55 32.78 51.99 36.07 53 42 C51.68 43.32 50.36 44.64 49 46 C44.9 43.84 42.55 41.48 39.75 37.81 C20.93 14.42 -10.77 4.46 -39.78 1.19 C-82.77 -2.53 -130.05 1.05 -166 27 C-167.3 27.92 -167.3 27.92 -168.62 28.86 C-172.24 32.12 -174.68 36.08 -177.34 40.13 C-180.52 44.81 -180.52 44.81 -183.01 45.81 C-183.99 45.9 -183.99 45.9 -185 46 C-187.25 44.06 -187.25 44.06 -189 42 C-184.46 26.62 -170.98 16.69 -157.48 9.26 C-142.75 1.51 -127.29 -3.71 -111 -7 C-109.84 -7.25 -109.84 -7.25 -108.66 -7.5 C-73.73 -14.58 -33.47 -11.87 0 0 Z " fill="#000000" transform="translate(691,580)"/>
<path d="M0 0 C5.08 3.83 9.31 8.79 11 15 C11.91 23.01 11.94 30.35 7 37 C2.92 41.87 -2.42 45.84 -8.5 47.81 C-17.72 48.5 -24 47.76 -31.25 41.69 C-36.5 36.8 -39.65 32.33 -40.24 25.05 C-40.45 15.69 -39.1 10.22 -32.88 3.25 C-23.29 -5.7 -11.14 -6.25 0 0 Z " fill="#000000" transform="translate(765,390)"/>
<path d="M0 0 C6.01 4.92 9.45 10.98 10.27 18.73 C10.39 28.11 8.98 33.56 2.56 40.4 C-3.44 46.03 -9.72 47.97 -17.89 47.79 C-25.33 47.09 -30.32 44.32 -35.33 38.81 C-40.23 32.52 -41.8 26.55 -41.52 18.59 C-40.42 11.35 -36.73 5.18 -31.06 0.59 C-21.46 -5.79 -9.96 -6.33 0 0 Z " fill="#000000" transform="translate(511.0625,390.4140625)"/>
<path d="M0 0 C0.98 0.04 1.96 0.09 2.97 0.13 C32.31 1.53 64.07 7.39 85.37 29.45 C89.8 34.6 92 38.15 92 45 C89.81 45.81 89.81 45.81 87 46 C84.46 43.93 82.61 41.81 80.66 39.2 C65.99 20.53 37.25 14.27 15.02 11.41 C8.48 10.69 1.94 10.66 -4.62 10.69 C-5.32 10.69 -6.01 10.69 -6.73 10.7 C-35.46 10.85 -65.48 16.29 -87 37 C-88.89 39.38 -90.66 41.77 -92.33 44.31 C-94 46 -94 46 -96.7 46.25 C-97.46 46.17 -98.22 46.09 -99 46 C-100.05 42.47 -100.55 40.29 -99.08 36.85 C-86.79 17.26 -63.09 8.49 -41.59 3.55 C-27.77 0.6 -14.1 -0.67 0 0 Z " fill="#000000" transform="translate(627,482)"/>
<path d="M0 0 C7.59 5 12.28 12.16 14.75 20.81 C16.71 33.87 15.77 47.56 8.4 58.88 C5.12 63.06 1.98 65.39 -3.25 66.81 C-9.11 67.05 -14.83 65.87 -19.25 61.81 C-29.1 49.16 -29.35 36.25 -28.25 20.81 C-26.84 12.49 -22.52 6.38 -16.25 0.81 C-11.14 -2.36 -5.51 -2.01 0 0 Z M-14.25 11.81 C-19.54 18.63 -20.57 28.53 -20.06 36.88 C-18.97 43.88 -16.58 49.6 -12.44 55.31 C-10.21 57.05 -10.21 57.05 -6.88 57.5 C-2.53 56.68 -1.33 55.43 1.39 52.12 C5.08 45.85 6.26 40.1 6.12 32.88 C6.12 32.09 6.11 31.3 6.1 30.48 C5.9 22.45 4.63 15.69 -1.25 9.81 C-6.51 6.46 -9.62 8.03 -14.25 11.81 Z " fill="#000000" transform="translate(589.25,699.1875)"/>
<path d="M0 0 C7.36 5.31 10.89 14.4 12.67 23.01 C13.48 33.99 12.78 47.21 5.92 56.38 C1.13 61.25 -2.37 64.51 -9.33 64.7 C-15.39 64.62 -18.21 63.05 -22.63 58.95 C-30.56 50.76 -32.45 39.14 -32.3 28.12 C-31.54 18.44 -28.57 8.07 -21.08 1.45 C-14.07 -3.38 -7.58 -4.19 0 0 Z M-17.08 10.38 C-22.71 18.35 -23.67 27.96 -22.62 37.42 C-21.35 44.42 -19.06 51.11 -13.08 55.38 C-9.08 56.24 -7.5 55.62 -3.96 53.57 C1.76 48.14 3.08 40.62 3.39 33.04 C3.5 23.91 2.31 16.64 -3.52 9.32 C-8.97 5.2 -11.97 5.92 -17.08 10.38 Z " fill="#000000" transform="translate(673.08203125,700.6171875)"/>
</svg>
