<?xml version="1.0" encoding="utf-8"?>
<!-- Generator: Adobe Illustrator 23.0.1, SVG Export Plug-In . SVG Version: 6.00 Build 0)  -->
<svg version="1.1" id="Layer_1" xmlns="http://www.w3.org/2000/svg" xmlns:xlink="http://www.w3.org/1999/xlink" x="0px" y="0px"
	 viewBox="0 0 864 864" style="enable-background:new 0 0 864 864;" xml:space="preserve">
<style type="text/css">
	.st0{fill:#050505;}
</style>
<g>
	<g>
		<g>
			<path class="st0" d="M453.39,167.86c-4.07-5.43-72.32,19.87-93.78,51.66c-21.46,31.79,1.59,23.05,0,32.58
				c-1.59,9.54-24.64,21.46-24.64,21.46s20.66,2.38,14.31,16.69c-6.36,14.31-34.97,33.38-31.79,42.12
				c3.18,8.74,27.82,1.59,57.22-34.17C404.11,262.44,460.54,177.4,453.39,167.86z"/>
		</g>
	</g>
	<g>
		<path class="st0" d="M189.67,466.82l-12.53-1.23c0.35-0.94,0.55-1.54,0.61-1.69c0.84-2.54-0.53-5.28-3.06-6.12
			c-2.52-0.84-5.28,0.52-6.13,3.06c-0.09,0.26-8.74,25.7-23.23,32.53c-4.16,1.97-8.36,2.09-12.79,0.39
			c-21.7-8.35-15.65-34.51-12.04-45.37c0.03-0.09,0.26-0.81,0.28-0.9c0.67-2.53-0.89-4.82-3.39-5.57c-2.51-0.74-5.26,0.95-6.08,3.42
			c-9.34,28.11-2.7,49.59,17.75,57.46c3.21,1.23,6.38,1.84,9.54,1.84c3.68,0,7.32-0.84,10.88-2.52c2.2-1.04,4.26-2.38,6.21-3.91
			l9.88,10.64c0.87,0.94,2.02,1.45,3.2,1.54c1.29,0.09,2.62-0.33,3.65-1.28c1.95-1.82,2.07-4.88,0.25-6.84l-10.08-10.85
			c1.16-1.38,2.26-2.8,3.29-4.24l12.72,7.17c1.11,0.63,2.36,0.77,3.51,0.49c1.26-0.3,2.4-1.11,3.09-2.33
			c1.31-2.33,0.49-5.28-1.84-6.59L171,478.94c0.76-1.38,1.46-2.73,2.09-4.02l15.64,1.54c0.16,0.01,0.32,0.02,0.48,0.02
			c2.46,0,4.57-1.87,4.81-4.37C194.28,469.45,192.34,467.08,189.67,466.82z"/>
	</g>
	<g>
		<g>
			<circle class="st0" cx="18.81" cy="461.76" r="14.3"/>
		</g>
	</g>
	<g>
		<path class="st0" d="M543.19,471.3c-0.54-4.33-6.4-21.93-1.52-23.01c4.89-1.09,12.18,19.94,12.18,19.94s17.57-6.75,19.47-4.31
			c1.9,2.44-12.79,14.25-12.79,14.25s14.86,10.67,14.32,14.46c-0.54,3.79-22.18-6.24-22.18-6.24s-10.03,19.96-12.73,17.25
			c-2.71-2.71,2.53-20.95,2.53-20.95s-19.52,0.36-19.51-3.61C522.98,474.45,543.19,471.3,543.19,471.3z"/>
	</g>
	<g>
		<circle class="st0" cx="613.62" cy="451.27" r="14.7"/>
	</g>
	<g>
		<circle class="st0" cx="597.96" cy="505.8" r="8.86"/>
	</g>
	<g>
		<circle class="st0" cx="558.57" cy="423.69" r="9.66"/>
	</g>
	<g>
		<circle class="st0" cx="255.98" cy="353.38" r="9.66"/>
	</g>
	<g>
		<circle class="st0" cx="234.78" cy="384.78" r="8.32"/>
	</g>
	<g>
		<circle class="st0" cx="271.93" cy="378.48" r="6.29"/>
	</g>
	<g>
		<circle class="st0" cx="273.27" cy="406.1" r="4.95"/>
	</g>
	<g>
		<circle class="st0" cx="301.98" cy="369.87" r="12.73"/>
	</g>
	<path class="st0" d="M810.6,530.02c-13.51-8.05-37.36-19.82-49.82-11.68c-0.13-1.95-0.27-3.68-0.4-5.1
		c18.95-0.61,53.77-3.39,57.19-15.62c0.81-2.91-0.13-6.09-2.89-9.72c-11.9-15.67-60.85-42.06-74.36-42.06c0,0-0.01,0-0.01,0
		c-8.88,0.01-15.27,10.09-22.03,20.76l-1.18,1.87c-2.69,4.22-11.32,5.34-19.25,5.11c-4.09-7.83-9.4-16.07-16.38-24.59
		c8.14-11.04,14.07-24.12,11.98-34.51c-1.8-8.95-5.1-14.07-10.09-15.64c-1.76-0.55-3.43-0.56-4.95-0.27
		c0.07-9.89-0.78-28.03-7.33-38.6c-3.06-4.93-7.12-6.27-10-6.53c-7.73-0.7-15.85,5.49-20.47,9.71
		c-4.52-6.23-14.04-17.16-25.87-18.47c-7.47-0.84-14.51,2.19-20.87,9c-8.44,9.05-9.82,22.23-8.09,35.53
		c-36.17-8.76-74.66-6.43-108.09,8.15c-1.41-5.57-3.28-8.7-6.83-8.7c-4.52,0-10.09,8.78-13.65,15.53
		c-2.41-5.75-5.93-10.14-10.87-8.99c-2.79,0.64-7.95,1.83-14.41,36.04c-16.36,20.12-31.98,48.25-42.63,69.26
		c3.07-29.47,2.28-71.06-13.01-96.55c-7.94-13.24-16.83-24.65-27.08-34.77c41.13-41.29,150.05-176.47,141.44-209.48
		c-3.39-12.98-12.42-22.34-25.42-26.34c-27.13-8.35-66.77,6.47-103.53,38.63c-48.3,42.26-70.82,133.53-76.01,157.41
		c-4.64-1.79-9.44-3.45-14.35-5.02c27-67.23,64.48-179.92,59.76-199.97c-3.38-14.36-16.98-30.32-36.43-33.05
		c-11.85-1.67-34.7,0.91-54.74,36.78c-0.9,1.61-1.79,3.33-2.67,5.18c-3.06-2.94-5.5-4.07-7.94-3.75c-1.99,0.25-3.64,1.53-4.53,3.5
		c-0.76,1.68-2.51,5.58,1.68,30.8c-0.17,0.67-0.35,1.34-0.52,2.02c-3.14-2.13-6.28-3.4-9.14-2.4c-1.27,0.44-3.5,1.7-4.21,5.26
		c-0.37,1.84-1.48,7.39,6.11,35.61c-5.49,39.77-6.41,83.32-6.15,111.05c-22.51,0.62-46.53,5.27-69.1,13.75
		c-39.94,15-67.43,39.13-75.42,66.19C57,432.72,48.43,450.48,17.7,451.8c-2.33,0.1-6.7,1.37-9.81,8.72
		c-7.81,18.46-2.92,62.29,32.39,101.96c28.84,32.4,100.08,55.81,145.05,69.16c-9.72,6.89-21.5,12.91-34.31,14.09
		c-14.06,1.29-31.95-0.92-47.74-2.88c-25.97-3.22-44.72-5.55-46.98,6.13c-0.87,4.53,1.6,10.3,7.33,17.18
		c7.22,8.65,19.73,18.85,35.12,27.35c-12.37,4.1-22.73,9.16-27.53,14.84c-2.64,3.12-3.75,6.4-3.3,9.75
		c0.56,4.22,4.63,8.55,12.81,13.61c29.02,17.99,110.16,43.65,150.37,29.94c34.2-11.66,58.86-25.6,69.79-32.36
		c4.18,11.01,13.87,33.94,23.11,36.69c2.81,0.83,5.68,0.47,8.28-1.08c4.68-2.79,7.85-9.26,9.78-14.62
		c6.63,8.76,13.73,17.24,17.18,18.45c1.47,0.52,3.06,0.39,4.49-0.37c1.19-0.64,3.75-2,6.78-11.43c12.06,13.9,16.51,15,18.04,15.39
		c0.6,0.15,1.18,0.22,1.74,0.22c5.42,0,8.77-6.65,10.62-11.45c24.44,3.34,49.4,3.23,74.25-0.32
		c89.36-12.76,115.19-50.24,121.34-62.47c17.42,6.22,91.66,30.38,136.33,8.05c44.48-22.24,60.56-95.58,63.98-114.27
		c16.19,3.37,59.81,10.62,64.25-8.23C864.43,569.47,833.58,543.72,810.6,530.02z M723.9,472.79l1.19-1.88
		c5.05-7.97,10.78-17,15.23-17.01c0,0,0.01,0,0.01,0c14.21,0,69.36,33.1,69.47,41.55c-1.3,4.66-27.04,9.35-54,9.84
		c-1.15,0.02-2.24,0.54-2.99,1.41c-0.75,0.87-1.09,2.03-0.93,3.17c0.03,0.21,0.86,6.56,1.12,15.6c-2.56,2.69-4.87,5.31-6.97,7.74
		c-5.07,5.86-9.08,10.49-12.81,10.65c-2.49,0.11-5.86-1.77-10.02-5.77c-5.68-5.47-8.14-14.5-11.25-25.94
		c-2.43-8.93-5.26-19.25-10.26-30.52C709.99,481.39,719.6,479.55,723.9,472.79z M599.78,359.18c4.57-4.91,9.16-7.04,14.07-6.49
		c12.28,1.35,22.56,18.63,22.66,18.81c0.65,1.11,1.79,1.84,3.07,1.97c1.28,0.14,2.55-0.35,3.41-1.3
		c3.97-4.38,12.24-11.15,17.39-10.69c1.06,0.1,2.46,0.5,3.86,2.75c7.77,12.53,5.93,40.39,5.91,40.67c-0.11,1.66,0.8,3.22,2.31,3.93
		c1.51,0.7,3.29,0.42,4.5-0.74c0.56-0.54,2.62-1.99,4-1.55c1.39,0.43,3.32,3.17,4.6,9.53c1.43,7.14-2.92,17.33-9.5,26.65
		c-4.26-4.69-8.99-9.45-14.42-14.28c-19.49-17.32-42.79-29.71-67.45-36.94C592.02,379.12,592.57,366.91,599.78,359.18z M225.81,176
		c1.07,0.92,2.55,1.21,3.89,0.76c1.34-0.44,2.35-1.56,2.67-2.93c0.67-2.97,1.38-5.9,2.13-8.75c0.15-0.56,0.17-1.14,0.08-1.7
		c-2.33-13.87-2.77-20.76-2.72-24.09c0.86,0.84,1.98,2.06,3.42,3.85c0.89,1.11,2.31,1.67,3.7,1.47c1.41-0.2,2.61-1.12,3.16-2.43
		c1.65-3.91,3.23-7.22,4.85-10.12c13.12-23.48,29.67-35.11,46.59-32.73c15.7,2.2,27.02,15.51,29.7,26.91
		c4.28,18.17-33.28,130.8-59.23,195.91c-3.28-0.95-6.59-1.86-9.95-2.7c-10.3-2.58-21.61-3.92-33.44-4.12
		c-0.28-27.11,0.54-70.4,6.16-110.69c0.07-0.54,0.04-1.09-0.1-1.61c-5.36-19.8-6.28-27.89-6.29-31.15
		C221.51,172.54,223.19,173.75,225.81,176z M69.82,660.99c-4.89-5.86-5.83-9.35-5.61-10.49c0.31-1.62,3.99-2.19,9.14-2.19
		c8.44,0,20.84,1.54,28.92,2.54c16.2,2.01,34.54,4.28,49.48,2.91c16.85-1.55,31.85-10.29,43.27-19.27c2.24,0.65,4.42,1.28,6.45,1.87
		c7.67,2.22,15.01,4.35,18.89,5.69c-6.68,11.01-37.25,39.84-63.82,40.76c-13,0.45-30.64,3.15-46.75,7.42
		C92.16,681.69,77.65,670.38,69.82,660.99z M853.2,581.99c-2.05,8.7-32.09,7.46-58.75,1.31c-1.08-0.25-2.24-0.04-3.17,0.59
		c-0.93,0.63-1.55,1.62-1.72,2.73c-0.14,0.89-14.04,89.35-60.34,112.5c-46.57,23.29-132.58-9.36-133.44-9.69
		c-1.03-0.39-2.18-0.35-3.18,0.12c-1,0.47-1.76,1.34-2.1,2.39c-0.15,0.46-16.27,46.52-116.48,60.84
		c-25.19,3.6-50.49,3.55-75.21-0.14c-1.92-0.3-3.79,0.84-4.41,2.7c-2.11,6.24-3.75,8.33-4.39,8.96c-1.95-0.94-7.15-5.08-16.15-15.89
		c-0.53-0.64-1.25-1.1-2.06-1.32l-2.49-0.68c-0.35-0.1-0.72-0.15-1.08-0.15c-0.7,0-1.4,0.18-2.02,0.54
		c-0.94,0.54-1.62,1.44-1.89,2.49c-1.38,5.39-2.72,8.88-3.67,10.7c-3.56-3.46-10.98-12.82-16.93-21.02
		c-0.94-1.29-2.55-1.92-4.11-1.58c-1.56,0.33-2.78,1.55-3.1,3.12c-0.98,4.66-4.3,15.06-8.35,17.47c-0.66,0.39-1.2,0.47-1.85,0.27
		c-3.59-1.07-12.5-16.27-19.54-36.38c-0.41-1.17-1.34-2.09-2.52-2.49c-1.18-0.4-2.47-0.23-3.5,0.45
		c-7.1,4.66-33.28,20.91-72.24,34.19c-36.63,12.48-112.41-10.99-141.48-27.93c-10.44-6.09-11.11-9.03-11.11-9.05
		c-0.13-1,0.36-2.17,1.47-3.48c9.35-11.07,51.5-21.73,79.45-22.69c19.02-0.66,37.91-13.37,47.48-20.9
		c13.14-10.33,23.73-22.47,25.19-28.87c1.07-4.71-0.44-5.15-25.77-12.49c-41.02-11.88-126.36-36.6-157.42-71.5
		c-35.47-39.85-36.34-79.84-31.19-92.96c1.35-3.45,2.73-4.28,2.94-4.3c37.08-1.59,46.94-25.67,57.73-62.23
		c15.92-53.88,114.45-85.82,176.36-70.35c12.35,3.09,24.14,6.91,35.02,11.35c1.11,0.46,2.37,0.39,3.43-0.18
		c1.06-0.57,1.81-1.58,2.04-2.76c8.28-41.61,33.26-121.64,74.4-157.64c34.15-29.87,71.75-44.39,95.85-36.99
		c10.38,3.19,17.29,10.34,19.99,20.67c6.92,26.54-93.14,157.03-142.22,204.59c-0.79,0.77-1.23,1.82-1.22,2.93s0.47,2.15,1.27,2.91
		c10.99,10.31,20.37,22.07,28.7,35.94c21.25,35.41,12.18,106.9,6.37,120.78c-0.12,0.28-0.21,0.47-0.25,0.57
		c-0.89,2.03,0.02,4.39,2.04,5.29c2.02,0.9,4.39,0.02,5.31-1.99c0.07-0.15,0.13-0.3,0.2-0.46c2.37-5.33,28.6-63.73,55.76-96.74
		c0.43-0.53,0.72-1.15,0.85-1.82c3.83-20.61,6.92-27.63,8.3-29.9c1.07,1.53,2.74,5.01,4.17,10.96c0.31,1.29,1.24,2.34,2.47,2.82
		c1.24,0.48,2.63,0.32,3.72-0.43l1.43-0.91c0.71-0.47,1.25-1.15,1.55-1.94c2.07-5.48,5.85-11.71,8.5-15.23
		c0.3,1.16,0.65,2.7,1.02,4.75c0.22,1.23,1.01,2.29,2.13,2.87c1.12,0.57,2.43,0.59,3.57,0.05c56.92-27.16,130.83-15.76,179.74,27.72
		c34.57,30.73,42.28,59.09,47.91,79.8c3.43,12.63,6.15,22.61,13.44,29.63c5.92,5.7,10.99,8.27,15.97,8.02
		c7.18-0.32,12.19-6.11,18.53-13.43c3.46-4,7.39-8.53,12.29-12.89c5.62-4.98,22.12-0.53,42.04,11.35
		C835.63,554.33,854.63,575.92,853.2,581.99z"/>
</g>
</svg>
