<?xml version="1.0" encoding="UTF-8"?>
<!-- Generator: visioncortex VTracer 0.6.3 -->
<svg version="1.1" xmlns="http://www.w3.org/2000/svg" width="1280" height="1280">
<path d="M0 0 C0.72 0.11 1.44 0.22 2.19 0.33 C2.99 0.45 3.78 0.57 4.61 0.69 C8.37 1.4 12.07 2.26 15.78 3.23 C16.59 3.44 17.41 3.65 18.25 3.87 C20.91 4.56 23.57 5.26 26.23 5.96 C27.15 6.2 28.07 6.44 29.02 6.69 C116.92 29.9 203.54 65.92 274.05 130.15 C275.09 131.08 276.13 132.02 277.17 132.95 C284.58 139.65 291.47 146.63 298.05 154.15 C298.49 154.65 298.94 155.16 299.4 155.68 C346.06 208.93 375.58 278.62 372.9 350.11 C372.78 351.8 372.78 351.8 372.67 353.52 C372.57 355.24 372.57 355.24 372.46 356.98 C371.54 363.98 368.33 367.28 363.42 372.02 C362.78 372.65 362.14 373.27 361.48 373.92 C357.13 378.16 352.74 382.29 348.05 386.15 C347.55 386.56 347.06 386.98 346.55 387.4 C293.02 432.08 225.53 453.66 157.05 461.15 C155.97 461.27 154.89 461.38 153.78 461.51 C123.62 464.65 92.16 464.65 62.05 461.15 C60.93 461.02 59.81 460.89 58.65 460.76 C37.39 458.21 15.8 454.75 -3.95 446.15 C-3.78 447.3 -3.78 447.3 -3.61 448.48 C-2.58 455.61 -1.61 462.74 -0.69 469.87 C1.65 487.94 4.14 505.94 7.61 523.83 C7.74 524.55 7.88 525.26 8.02 525.99 C13.73 555.71 22.93 571.99 47.58 589.89 C52.53 593.49 57.36 597.2 62.05 601.15 C62.92 601.87 63.79 602.6 64.69 603.35 C71.47 609.19 77.48 615.16 78.36 624.46 C77.97 628.98 77.01 630.73 74.05 634.15 C66.72 639.72 60.18 641.07 51.05 640.15 C38.94 637.44 28.63 631.38 18.05 625.15 C16.78 624.41 15.51 623.68 14.24 622.94 C11.5 621.36 8.77 619.76 6.05 618.15 C5.97 618.78 5.89 619.4 5.82 620.05 C1.54 655.42 1.54 655.42 -6.2 662.08 C-10.06 663.58 -13.12 663.52 -16.95 662.15 C-22.91 658.4 -26.6 653.7 -28.95 647.15 C-29.33 646.16 -29.7 645.17 -30.08 644.15 C-33.98 632.02 -35.27 616.58 -31.95 604.15 C-31.49 598.04 -32.84 593.17 -34.77 587.46 C-35.11 586.44 -35.45 585.42 -35.81 584.37 C-41.65 567.68 -49.11 551.58 -56.21 535.4 C-60.57 525.47 -64.9 515.52 -69.21 505.57 C-70.6 502.37 -72 499.18 -73.39 495.98 C-77.72 486.04 -81.86 476.07 -85.6 465.89 C-85.94 464.97 -86.28 464.04 -86.64 463.09 C-86.94 462.24 -87.25 461.38 -87.57 460.5 C-87.84 459.76 -88.11 459.01 -88.38 458.24 C-88.95 456.15 -88.95 456.15 -88.95 452.15 C-89.44 452.48 -89.93 452.8 -90.43 453.14 C-91.98 454.18 -93.53 455.22 -95.09 456.25 C-97.09 457.57 -99.08 458.92 -101.07 460.27 C-113.16 468.39 -129.93 479.15 -144.95 479.15 C-138.49 552.42 -138.49 552.42 -104.86 613.42 C-103.4 614.47 -101.93 615.5 -100.45 616.52 C-99.67 617.08 -98.89 617.63 -98.08 618.2 C-92.49 622.14 -86.8 625.93 -81.09 629.69 C-58.43 644.71 -58.43 644.71 -54.95 655.15 C-54.25 659.58 -54.56 662.38 -56.64 666.4 C-61.17 671.78 -65.45 674.82 -72.52 675.48 C-88.6 675.64 -100.37 669.69 -114.45 662.43 C-118.6 660.3 -122.78 658.23 -126.95 656.15 C-127.02 657 -127.09 657.85 -127.17 658.73 C-127.44 661.94 -127.72 665.15 -128.02 668.36 C-128.14 669.74 -128.26 671.12 -128.37 672.5 C-130 692.28 -130 692.28 -136.14 699.83 C-140.2 701.73 -143.56 701.99 -147.95 701.15 C-154.58 698.47 -158.05 692.37 -160.95 686.15 C-163.73 678.54 -166.08 670.95 -166.09 662.8 C-166.09 661.8 -166.09 660.81 -166.09 659.78 C-166.09 658.74 -166.08 657.71 -166.08 656.65 C-166.08 655.61 -166.09 654.58 -166.09 653.52 C-166.09 652.52 -166.09 651.52 -166.09 650.49 C-166.09 649.13 -166.09 649.13 -166.08 647.75 C-165.95 645.15 -165.95 645.15 -165.4 642.51 C-163.35 631.75 -174.49 614.65 -178.95 605.15 C-179.4 604.21 -179.84 603.27 -180.3 602.3 C-185.85 590.53 -191.58 578.86 -197.44 567.23 C-204.93 552.35 -212.09 537.34 -218.95 522.15 C-219.69 520.53 -219.69 520.53 -220.44 518.87 C-221.83 515.78 -223.21 512.69 -224.58 509.58 C-224.98 508.69 -225.38 507.79 -225.8 506.87 C-231.19 494.51 -234.14 483.43 -229.93 470.3 C-229.56 469.14 -229.19 467.98 -228.81 466.79 C-228.53 465.92 -228.25 465.05 -227.95 464.15 C-228.68 464.42 -229.4 464.69 -230.14 464.97 C-251.38 472.89 -272.62 479.07 -294.95 483.15 C-293.47 491.62 -291.18 499.84 -288.77 508.08 C-288.57 508.77 -288.37 509.45 -288.16 510.16 C-277.6 550.61 -277.6 550.61 -251.89 581.01 C-251.13 581.43 -250.37 581.84 -249.58 582.27 C-248.77 582.73 -247.95 583.19 -247.12 583.66 C-241.36 586.89 -235.53 589.99 -229.7 593.1 C-200.61 608.68 -200.61 608.68 -196.95 618.15 C-195.78 622.33 -195.78 624.53 -196.95 628.71 C-200.38 634.59 -204.35 637.87 -210.83 640.02 C-226.43 643.92 -241.38 637.31 -255.48 631.05 C-259.88 629.12 -264.37 627.59 -268.95 626.15 C-268.93 627.2 -268.91 628.24 -268.89 629.33 C-268.82 633.25 -268.77 637.17 -268.74 641.09 C-268.72 642.78 -268.69 644.47 -268.65 646.16 C-268.6 648.61 -268.58 651.05 -268.56 653.49 C-268.54 654.24 -268.52 654.98 -268.5 655.75 C-268.5 661.3 -269.88 665.51 -272.95 670.15 C-275.88 672.68 -277.54 673.1 -281.39 673.52 C-289.88 672.63 -293.79 667.39 -298.95 661.15 C-298.95 664.25 -298.53 667.02 -298.02 670.08 C-291.32 713.39 -299.12 759.76 -317.95 799.15 C-318.28 799.83 -318.61 800.52 -318.94 801.23 C-325.97 815.81 -335.38 828.97 -346.58 840.63 C-348.95 843.05 -348.95 843.05 -350.77 845.54 C-361.71 858.59 -378.03 869.16 -392.95 877.15 C-393.69 877.54 -394.42 877.93 -395.17 878.34 C-427.29 895.27 -462.01 902.41 -497.95 905.15 C-498.79 905.22 -499.63 905.29 -500.49 905.36 C-521.34 907 -543.1 900.35 -563.14 895.08 C-564.35 894.77 -565.56 894.45 -566.81 894.13 C-574.49 892.04 -581.67 889.34 -588.95 886.15 C-590.54 885.49 -592.13 884.84 -593.72 884.19 C-604.04 879.94 -614.09 875.36 -623.95 870.15 C-624.61 869.81 -625.26 869.47 -625.93 869.11 C-645.95 858.52 -663.55 844.7 -679.95 829.15 C-680.46 828.67 -680.96 828.2 -681.48 827.71 C-689.47 820.12 -696.39 811.99 -702.95 803.15 C-703.39 802.57 -703.82 802 -704.26 801.4 C-710.77 792.67 -716.57 783.62 -721.95 774.15 C-722.32 773.52 -722.68 772.88 -723.06 772.23 C-744.1 735.47 -754.06 692.87 -758.95 651.15 C-759.13 649.68 -759.13 649.68 -759.31 648.18 C-763.12 615.12 -762.43 580.2 -758.95 547.15 C-758.83 545.91 -758.7 544.68 -758.56 543.41 C-754.76 508.29 -749.34 472.4 -738.85 438.59 C-737.92 435.03 -737.69 431.96 -737.65 428.28 C-737.61 426.35 -737.61 426.35 -737.58 424.37 C-737.57 423.7 -737.56 423.03 -737.55 422.34 C-737.2 399.43 -735.12 375.64 -718.39 358.21 C-715.46 355.45 -712.39 353.24 -708.95 351.15 C-709.2 349.26 -709.2 349.26 -709.45 347.33 C-711.3 329.87 -708.27 313.91 -697.99 299.37 C-692.21 292.39 -682.26 283.64 -672.95 282.15 C-673 281.58 -673.05 281.01 -673.1 280.42 C-673.7 266.83 -668.2 255.13 -659.33 245.11 C-649.81 234.87 -638.11 227 -624.95 222.15 C-624.29 222.15 -623.63 222.15 -622.95 222.15 C-622.87 221.36 -622.78 220.57 -622.69 219.76 C-620.75 204.72 -615.58 191.25 -603.7 181.27 C-595.87 175.62 -586.64 172.03 -576.94 172.01 C-576.02 172.01 -575.1 172.01 -574.15 172.01 C-573.2 172.01 -572.25 172.02 -571.27 172.02 C-569.82 172.02 -569.82 172.02 -568.35 172.01 C-567.43 172.01 -566.51 172.01 -565.57 172.01 C-564.73 172.02 -563.89 172.02 -563.03 172.02 C-560.95 172.15 -560.95 172.15 -558.95 173.15 C-558.75 172.34 -558.54 171.54 -558.33 170.71 C-553.59 158.43 -544.64 150.46 -532.85 145.21 C-525.43 142.22 -518.4 142.03 -510.52 142.58 C-509.69 142.64 -508.86 142.69 -508.01 142.74 C-505.99 142.87 -503.97 143.01 -501.95 143.15 C-501.7 142.54 -501.44 141.94 -501.18 141.31 C-495.65 129.22 -487.37 121.15 -475.18 115.97 C-465.53 112.42 -455.22 110.96 -444.95 111.15 C-444.71 110.42 -444.46 109.7 -444.21 108.96 C-439.48 98.4 -428.83 90.92 -418.35 86.91 C-412.97 85.2 -407.94 84.96 -402.33 84.96 C-401.54 84.96 -400.74 84.96 -399.92 84.96 C-393.78 85.01 -387.94 85.67 -381.95 87.15 C-381.21 85.88 -381.21 85.88 -380.45 84.58 C-375.44 77.17 -368.59 72.4 -359.95 70.15 C-347.41 67.95 -335.24 70.49 -322.95 73.15 C-322.54 72.57 -322.13 71.99 -321.7 71.39 C-314.29 61.36 -305.64 55.33 -293.33 52.83 C-283.72 51.49 -274.64 52.28 -265.4 55.01 C-258.64 57.08 -258.64 57.08 -251.79 55.99 C-249 54.19 -249 54.19 -246.45 52.11 C-236.84 44.57 -224.6 44.36 -212.95 45.15 C-206.51 46.2 -200.79 48.45 -195.03 51.48 C-190.85 52.83 -187.21 50.92 -183.39 49.21 C-167.5 42.79 -150.49 44.58 -134.95 51.15 C-130.34 53.34 -125.86 55.76 -121.4 58.26 C-118.11 60.19 -118.11 60.19 -114.95 61.15 C-112.09 60.22 -112.09 60.22 -108.95 58.83 C-94.02 52.89 -76.98 51.69 -61.86 58.03 C-56.2 60.63 -50.52 63.39 -45.38 66.92 C-42.22 68.52 -40.26 68.26 -36.77 67.83 C-35.62 67.72 -34.47 67.61 -33.28 67.49 C-31.64 67.32 -31.64 67.32 -29.95 67.15 C-16.08 66.16 -2.94 69.6 7.88 78.47 C11.03 81.27 14.06 84.16 17.05 87.15 C13.98 79.82 10.44 74.09 5.17 68.21 C-6.45 55.16 -13.86 41.68 -13.35 23.74 C-12.63 17.18 -8.47 0.64 0 0 Z M3.05 15.15 C-0.71 23.75 -0.97 30.67 2.01 39.61 C5.25 47.56 10.15 53.72 15.99 59.92 C18.05 62.15 18.05 62.15 19.56 64.44 C20.88 66.33 20.88 66.33 22.89 66.39 C23.62 66.27 24.35 66.15 25.11 66.02 C26 65.9 26.89 65.77 27.8 65.64 C29.41 65.4 29.41 65.4 31.05 65.15 C87.85 57.42 146.57 73.69 199.12 94.59 C200.01 94.95 200.91 95.3 201.83 95.66 C202.99 96.13 202.99 96.13 204.17 96.61 C206.11 97.4 206.11 97.4 208.05 96.15 C191.85 86.08 175.44 76.57 158.28 68.24 C155.84 67.05 153.42 65.84 150.99 64.63 C117.97 48.34 82.96 36.04 47.67 25.71 C46.83 25.46 45.99 25.22 45.13 24.97 C35.84 22.26 26.51 19.7 17.13 17.3 C16.29 17.08 15.46 16.87 14.6 16.64 C10.67 15.66 7.13 14.86 3.05 15.15 Z M-246.95 68.15 C-246.44 73.37 -243.79 77.23 -241.08 81.58 C-240.59 82.38 -240.1 83.18 -239.59 84 C-224.46 108.05 -204.14 130.24 -176.95 140.15 C-192.62 140.15 -211.3 127.47 -222.95 118.15 C-223.49 117.72 -224.03 117.29 -224.59 116.85 C-239.86 104.65 -252.45 89.84 -261.39 72.4 C-263.35 69.3 -265.23 68.29 -268.7 67.15 C-278.5 65.1 -292.08 63.89 -300.95 69.15 C-305.77 72.72 -310.56 76.53 -312.95 82.15 C-312.02 87.66 -308.6 92.15 -305.52 96.71 C-304.98 97.5 -304.45 98.3 -303.89 99.12 C-299.03 106.22 -293.8 112.83 -287.95 119.15 C-287.45 119.7 -286.94 120.25 -286.42 120.81 C-274.05 134.1 -259.93 143.59 -242.95 150.15 C-276.5 141.42 -306.19 121.26 -324.02 91.02 C-326.6 87.01 -329.14 85.76 -333.71 84.58 C-334.45 84.44 -335.19 84.3 -335.95 84.15 C-336.71 83.97 -337.47 83.79 -338.24 83.6 C-346.1 82.28 -356.38 81.46 -363.34 85.81 C-367.03 88.87 -370.14 91.93 -371.81 96.48 C-372.45 108.51 -354.87 126.01 -347.33 134.52 C-345.88 136.07 -344.42 137.61 -342.95 139.15 C-341.82 140.37 -341.82 140.37 -340.67 141.62 C-330.03 152.8 -318.07 160.18 -303.95 166.15 C-335.48 160.67 -361.32 137.05 -379.58 112.14 C-381.33 109.6 -382.78 106.94 -384.2 104.21 C-385.61 101.76 -386.4 100.45 -388.88 99.1 C-391.29 98.47 -393.46 98.25 -395.95 98.15 C-396.91 98.08 -397.87 98.02 -398.85 97.95 C-409.49 97.55 -418.86 99.98 -426.95 107.15 C-431.92 112.46 -431.92 112.46 -433.94 119.1 C-432.49 122.11 -430.35 124.37 -428.08 126.77 C-427.59 127.3 -427.09 127.83 -426.58 128.37 C-407.77 148.19 -380.45 169.55 -352.14 171.32 C-350.08 171.33 -348.02 171.25 -345.95 171.15 C-345.95 171.81 -345.95 172.47 -345.95 173.15 C-384.95 169.13 -418.59 156.75 -445.54 127.32 C-448.18 124.94 -449.04 124.51 -452.52 124.65 C-464.62 125.33 -475.53 129.06 -483.89 138.08 C-487.95 143.09 -490.75 148.6 -490.95 155.15 C-489.27 157.57 -487.77 159.36 -485.7 161.4 C-485.15 161.96 -484.6 162.53 -484.04 163.11 C-482.36 164.81 -480.66 166.48 -478.95 168.15 C-478.06 169.03 -477.16 169.92 -476.23 170.83 C-457.72 188.3 -435.38 202.11 -409.95 206.15 C-440.03 208.12 -470.45 191.41 -492.35 172.21 C-500 165.34 -500 165.34 -502.94 161.68 C-505.93 158.04 -507.72 156.37 -512.46 155.52 C-523.5 155.18 -531.06 157.68 -539.1 165.16 C-543.85 170.26 -546.91 175.49 -548.95 182.15 C-528.08 205.74 -502.1 227.96 -469.95 233.15 C-468.35 233.21 -466.75 233.23 -465.14 233.21 C-464.35 233.2 -463.56 233.19 -462.75 233.18 C-462.16 233.17 -461.56 233.16 -460.95 233.15 C-460.95 233.81 -460.95 234.47 -460.95 235.15 C-495.64 231.57 -525.92 221.95 -551.89 197.96 C-552.44 197.45 -552.99 196.95 -553.56 196.42 C-556.42 193.74 -558.93 190.95 -561.39 187.9 C-564.53 184.7 -567.38 184.65 -571.77 184.52 C-582.62 185.12 -591.99 187.97 -599.71 195.96 C-606.33 204.18 -609.94 214.9 -609.96 225.42 C-608.52 230.77 -605.37 233.67 -601.52 237.52 C-600.78 238.28 -600.05 239.03 -599.29 239.8 C-597.2 241.94 -595.08 244.05 -592.95 246.15 C-592.08 247.02 -591.2 247.9 -590.3 248.8 C-572.02 266.08 -549.05 279.5 -523.95 283.15 C-558.28 284.16 -588.93 266.35 -613.3 243.69 C-615.95 241.15 -615.95 241.15 -618.49 238.26 C-620.73 235.87 -620.73 235.87 -623.45 236.18 C-638.09 241.83 -650.01 251.86 -657.33 265.76 C-660.35 272.84 -662.67 281.68 -659.95 289.15 C-656 295.36 -650.37 300.23 -644.95 305.15 C-644.07 306.01 -643.18 306.88 -642.26 307.77 C-624.92 324.26 -602.01 338.79 -577.95 342.15 C-605.37 343.95 -635.42 329.2 -655.72 311.62 C-658.54 309.1 -661.29 306.52 -664.02 303.91 C-666.88 301.17 -669.89 298.65 -672.95 296.15 C-684.84 303.16 -691.65 311.7 -695.5 325.03 C-697.69 335.19 -697.67 350.85 -692.95 360.15 C-689.6 364.53 -685.91 368.31 -681.95 372.15 C-681.37 372.78 -680.78 373.42 -680.17 374.07 C-662.01 393.58 -635.26 408.6 -608.95 412.15 C-638.66 413.56 -669.65 399.59 -691.5 380.02 C-693.7 378.01 -695.87 375.97 -698.02 373.91 C-700.88 371.17 -703.89 368.65 -706.95 366.15 C-717.14 374.44 -720.75 386.61 -722.95 399.15 C-723.09 399.89 -723.22 400.63 -723.35 401.4 C-723.67 403.47 -723.67 403.47 -723.78 405.6 C-723.95 408.15 -723.95 408.15 -724.5 411.73 C-725.23 417.95 -725.23 422.94 -721.33 428.09 C-717.83 432.1 -713.93 435.63 -709.95 439.15 C-708.81 440.22 -707.68 441.29 -706.54 442.37 C-690.78 456.92 -671.49 467.78 -649.95 470.15 C-675.7 469.76 -697.66 460.7 -717.95 445.15 C-720.28 443.46 -722.61 441.81 -724.95 440.15 C-727.97 448.91 -730.13 457.82 -732.2 466.83 C-732.61 468.59 -732.61 468.59 -733.02 470.38 C-734.39 475.71 -734.39 475.71 -734.95 481.15 C-733.85 482.31 -732.74 483.46 -731.59 484.57 C-729.7 486.4 -727.88 488.29 -726.06 490.19 C-716.95 499.56 -707.85 507.93 -696.95 515.15 C-696.1 515.74 -695.25 516.33 -694.36 516.93 C-684.18 523.56 -671.98 527.67 -659.95 529.15 C-684.19 529.87 -709.24 519.18 -727.33 503.39 C-730.75 500.47 -734.34 497.81 -737.95 495.15 C-741.78 516.55 -741.78 516.55 -744.64 538.09 C-744.95 541.15 -744.95 541.15 -745.49 543.64 C-745.99 546.9 -745.83 548.91 -743.88 551.67 C-740.95 555.25 -737.72 558.51 -734.41 561.73 C-732.72 563.38 -731.13 565.11 -729.52 566.83 C-714.43 581.56 -695.5 591.67 -674.95 596.15 C-680.74 596.32 -685.88 595.81 -691.52 594.52 C-692.69 594.26 -692.69 594.26 -693.88 593.99 C-713.11 589.39 -729.95 579.7 -744.49 566.4 C-745.76 565.04 -745.76 565.04 -746.95 565.15 C-747.33 570.09 -747.59 575.03 -747.8 579.98 C-747.91 582.25 -748.06 584.53 -748.23 586.8 C-750.23 604.95 -750.23 604.95 -743.66 621.04 C-741.21 623.44 -738.66 625.6 -735.91 627.65 C-734 629.11 -732.28 630.65 -730.54 632.31 C-714.92 646.97 -695.42 657.79 -673.95 660.15 C-698.06 659.78 -719.91 651.96 -739.07 637.31 C-741.62 635.4 -744.19 633.73 -746.95 632.15 C-746.33 639.82 -745.67 647.48 -744.95 655.15 C-744.88 655.96 -744.81 656.76 -744.73 657.6 C-744.53 659.62 -744.31 661.63 -744.08 663.65 C-743.96 664.75 -743.84 665.85 -743.71 666.99 C-741.86 674.69 -737.01 679.58 -731.52 684.96 C-730.81 685.66 -730.1 686.36 -729.37 687.08 C-712.46 703.5 -693.33 714.9 -669.95 719.15 C-692.21 718.81 -712.89 711.96 -730.58 698.3 C-733.86 695.68 -733.86 695.68 -737.95 695.15 C-731.12 729.46 -731.12 729.46 -713.54 757.76 C-712.26 758.45 -712.26 758.45 -710.95 759.15 C-709.37 760.46 -707.81 761.79 -706.27 763.15 C-685.5 780.27 -661.68 790.07 -634.95 792.15 C-657.75 792.84 -677.82 791.23 -698.25 780.4 C-699.14 779.99 -700.03 779.57 -700.95 779.15 C-701.61 779.48 -702.27 779.81 -702.95 780.15 C-693.87 793.39 -684.4 805.74 -673.2 817.27 C-672.43 818.09 -672.43 818.09 -671.63 818.92 C-668.63 821.94 -666.01 823.79 -661.96 825.32 C-659.5 826.34 -657.21 827.58 -654.87 828.85 C-643.18 835.21 -631.84 840.72 -618.95 844.15 C-617.09 844.65 -617.09 844.65 -615.18 845.17 C-603.03 848.01 -590.25 848.18 -577.95 846.15 C-579.81 846.63 -581.66 847.11 -583.52 847.58 C-585.07 847.99 -585.07 847.99 -586.65 848.39 C-594.05 850.08 -601.15 850.3 -608.7 850.27 C-609.73 850.28 -610.75 850.28 -611.8 850.28 C-618.57 850.28 -625.22 849.88 -631.95 849.15 C-618.23 864.02 -582.75 878.64 -562.67 879.96 C-562 879.98 -561.33 880 -560.64 880.02 C-559.9 880.05 -559.15 880.08 -558.38 880.11 C-532.36 880.81 -505.45 876.23 -484.95 859.15 C-498.68 873.29 -515.03 881.96 -533.95 887.15 C-525.15 891.98 -514.47 891.5 -504.7 891.46 C-502.74 891.45 -502.74 891.45 -500.73 891.45 C-465.66 891.12 -436.14 879.88 -410.95 855.15 C-410.02 854.23 -410.02 854.23 -409.07 853.3 C-403.47 847.38 -399.8 840.26 -395.95 833.15 C-400.5 846.88 -407.7 857.87 -417.01 868.84 C-418.74 870.89 -420.37 872.98 -421.95 875.15 C-402.77 869.67 -384.95 858.06 -369.95 845.15 C-369.11 844.59 -368.27 844.03 -367.4 843.46 C-363.91 840.16 -362.63 836.47 -360.95 832.02 C-360.61 831.14 -360.27 830.25 -359.92 829.34 C-350.81 805.23 -346.36 780.47 -352.95 755.15 C-352.95 754.49 -352.95 753.83 -352.95 753.15 C-351.99 755.92 -351.03 758.69 -350.08 761.46 C-349.81 762.23 -349.54 762.99 -349.26 763.78 C-345.1 776.03 -344.69 787.54 -344.83 800.33 C-344.84 801.97 -344.85 803.61 -344.86 805.24 C-344.88 809.21 -344.91 813.18 -344.95 817.15 C-321.15 794.6 -311.42 748.48 -309.85 717.01 C-309.79 714.87 -309.76 712.73 -309.75 710.59 C-309.75 709.8 -309.74 709.01 -309.73 708.2 C-309.73 706.54 -309.72 704.88 -309.71 703.22 C-309.7 700.75 -309.67 698.27 -309.64 695.8 C-309.4 659.9 -322.08 626.11 -347.01 600.03 C-372.18 574.74 -410.19 563.01 -445.2 562.9 C-474.57 562.93 -505.95 569.87 -528.95 589.15 C-529.8 589.84 -530.65 590.54 -531.52 591.26 C-552.1 608.95 -564.88 637.09 -566.95 664.15 C-568.33 688.39 -566.26 711.68 -549.97 730.94 C-549.31 731.67 -548.64 732.4 -547.95 733.15 C-547.09 734.1 -546.23 735.06 -545.34 736.04 C-535.28 746.8 -520.14 759 -504.92 760.32 C-486.06 760.82 -467.13 758.79 -452.7 745.12 C-442.86 734.02 -441.18 721.4 -441.83 707.15 C-442.1 700.47 -442.1 700.47 -443.95 694.15 C-446.9 692.56 -448.65 692.14 -452.02 692.21 C-455.95 693.46 -456.88 694.56 -458.95 698.15 C-460.72 703.32 -461.85 708.6 -462.89 713.96 C-464.4 720.82 -468.28 725.14 -473.95 729.15 C-484.09 733.24 -494.14 731.25 -503.95 727.15 C-515.09 720.88 -524.42 711.68 -528.22 699.26 C-530.15 692.32 -531.89 685.37 -530.95 678.15 C-530.82 677.05 -530.69 675.96 -530.55 674.83 C-527.86 657.95 -519.46 642.42 -505.75 632 C-489.83 621.46 -470.25 618.17 -451.55 621.91 C-447.94 622.84 -444.47 623.91 -440.95 625.15 C-440.06 625.44 -439.16 625.72 -438.24 626.02 C-418.27 633.09 -403.75 649.67 -394.64 668.21 C-382.3 694.63 -383.01 725.05 -387.95 753.15 C-388.15 754.32 -388.34 755.49 -388.54 756.69 C-391.32 770.34 -400.32 781.6 -408.95 792.15 C-409.59 792.92 -410.22 793.69 -410.86 794.49 C-428.41 815.28 -454.91 828.36 -481.82 830.74 C-511.67 832.94 -547.19 824.07 -570.3 804.38 C-573.28 801.73 -576.13 798.96 -578.95 796.15 C-579.51 795.62 -580.07 795.09 -580.65 794.54 C-585 790.35 -588.51 785.94 -591.83 780.9 C-592.6 779.73 -592.6 779.73 -593.38 778.54 C-630.08 721.52 -626.52 644.44 -612.8 580.84 C-605.27 548 -593.88 516.23 -566.98 494.61 C-564.3 492.43 -561.67 490.2 -559.05 487.95 C-553.8 483.43 -548.51 479.27 -542.69 475.49 C-541.83 474.82 -541.83 474.82 -540.95 474.15 C-540.95 473.49 -540.95 472.83 -540.95 472.15 C-540.3 471.91 -539.64 471.68 -538.96 471.43 C-535.07 469.77 -531.5 467.68 -527.83 465.58 C-497.69 448.7 -466.09 436.05 -431.13 441.69 C-423.13 442.84 -414.69 442.73 -406.95 440.15 C-405.24 436.71 -407.25 433.06 -408.27 429.52 C-412.94 412.43 -415.64 394.26 -409.19 377.25 C-407.75 374.8 -406.39 373.59 -403.95 372.15 C-400.58 372.39 -399.37 372.74 -396.95 375.15 C-396.5 378.96 -396.96 381.17 -398.45 384.75 C-400.28 389.51 -400.45 393.89 -400.39 398.96 C-400.39 399.87 -400.38 400.78 -400.37 401.72 C-399.95 419.95 -394.9 438.85 -384.95 454.15 C-383.72 456.33 -382.52 458.54 -381.33 460.75 C-380.16 462.78 -378.94 464.73 -377.67 466.7 C-375.06 470.85 -372.86 475.15 -370.66 479.52 C-364.06 492.61 -356.68 505.02 -348.76 517.33 C-347.01 520.07 -345.27 522.81 -343.55 525.56 C-343.01 526.41 -342.48 527.26 -341.93 528.14 C-341.42 528.94 -340.91 529.75 -340.39 530.58 C-337.1 535.82 -333.74 541 -330.25 546.12 C-329.06 547.98 -328.07 549.83 -327.14 551.83 C-325.32 555.64 -323.08 559.13 -320.77 562.65 C-312.53 575.26 -305.38 588.52 -298.95 602.15 C-298.5 603.09 -298.04 604.03 -297.57 605 C-294.89 611.23 -294.83 616.86 -295.02 623.53 C-295.23 635.54 -291.73 648.16 -284.95 658.15 C-283.96 658.48 -282.97 658.81 -281.95 659.15 C-281.93 657.51 -281.93 657.51 -281.91 655.85 C-281.85 651.79 -281.78 647.73 -281.69 643.67 C-281.66 641.92 -281.63 640.16 -281.61 638.41 C-281.57 635.88 -281.52 633.35 -281.47 630.83 C-281.46 630.05 -281.45 629.27 -281.45 628.47 C-281.32 623.67 -280.62 620.29 -277.95 616.15 C-272.54 612.79 -268.15 612.78 -261.95 614.15 C-257.32 615.75 -252.83 617.65 -248.33 619.58 C-235.02 625.48 -235.02 625.48 -220.77 627.4 C-218.98 627.41 -218.98 627.41 -217.16 627.41 C-214.16 627.16 -212.48 626.73 -209.95 625.15 C-209.99 622.8 -209.99 622.8 -210.95 620.15 C-212.99 618.37 -214.82 617.01 -217.08 615.58 C-217.73 615.16 -218.38 614.74 -219.06 614.3 C-225.92 609.96 -233.15 606.32 -240.38 602.62 C-246.37 599.54 -252.23 596.34 -257.95 592.77 C-258.88 592.2 -258.88 592.2 -259.82 591.62 C-266.82 587.16 -272.34 582.49 -276.45 575.21 C-276.83 574.56 -277.21 573.9 -277.6 573.23 C-284.59 560.95 -289.62 548.22 -294.06 534.84 C-294.93 532.22 -295.82 529.61 -296.72 527 C-303.38 507.15 -308.57 486.85 -313.95 466.62 C-314.97 462.81 -315.99 459 -317.09 455.22 C-318.14 451.48 -318.57 449.01 -317.95 445.15 C-316.03 442.09 -313.52 439.68 -310.95 437.15 C-309.92 436.11 -308.88 435.07 -307.84 434.03 C-306.14 432.33 -304.43 430.62 -302.72 428.93 C-298.59 424.82 -294.7 420.61 -290.95 416.15 C-290.13 415.18 -289.3 414.22 -288.44 413.23 C-283.15 407.07 -278.05 400.81 -273.22 394.29 C-271.25 391.66 -269.72 389.99 -266.95 388.15 C-261.4 388.7 -261.4 388.7 -259.95 390.15 C-259.14 394.38 -259.31 396.18 -261.74 399.83 C-263.75 402.33 -265.81 404.76 -267.95 407.15 C-265.36 408.44 -264.59 407.93 -261.86 407.11 C-261.01 406.86 -260.16 406.61 -259.28 406.36 C-258.35 406.08 -257.42 405.81 -256.45 405.52 C-248.24 403.21 -240.02 401.17 -231.64 399.52 C-230.06 399.2 -230.06 399.2 -228.44 398.88 C-222.08 397.68 -215.83 396.93 -209.39 396.51 C-193.77 396.19 -193.77 396.19 -180.4 389.62 C-177.75 386.41 -175.82 382.99 -174.03 379.24 C-172.16 375.59 -169.86 372.05 -166.95 369.15 C-163.2 368.46 -163.2 368.46 -159.95 369.15 C-157.72 372.5 -157.3 373.25 -157.95 377.15 C-159.54 379.94 -161.5 382.42 -163.45 384.96 C-182.23 410.13 -199.93 436.94 -213.45 465.33 C-213.78 466.02 -214.11 466.7 -214.44 467.4 C-218.75 476.67 -220.07 484.47 -216.67 494.3 C-216.09 495.76 -215.5 497.21 -214.89 498.65 C-214.55 499.48 -214.2 500.32 -213.85 501.18 C-204.64 523.07 -193.93 544.32 -183.27 565.52 C-151.44 628.85 -151.44 628.85 -151.95 645.15 C-152.28 646.14 -152.61 647.13 -152.95 648.15 C-153.89 661.76 -152.88 675.54 -144.95 687.15 C-143 683.81 -142.56 680.96 -142.21 677.13 C-142.04 675.38 -142.04 675.38 -141.86 673.59 C-141.63 671.14 -141.41 668.7 -141.19 666.25 C-139.57 650 -139.57 650 -133.95 644.15 C-127.3 641.93 -122.64 643.4 -116.58 646.35 C-115.25 647.02 -115.25 647.02 -113.89 647.71 C-112.97 648.16 -112.04 648.62 -111.09 649.08 C-106.95 651.12 -102.83 653.21 -98.72 655.3 C-98.09 655.62 -97.47 655.93 -96.83 656.26 C-95.2 657.09 -93.58 657.93 -91.96 658.77 C-85.5 661.73 -79.03 663.21 -71.95 662.15 C-69.32 660.36 -69.32 660.36 -67.95 658.15 C-75.25 648.92 -85.02 642.69 -94.77 636.27 C-130.46 612.76 -138.67 586.32 -147.3 544.95 C-152.48 519.55 -156.43 493.82 -159.95 468.15 C-159.27 468.12 -158.59 468.1 -157.89 468.07 C-149.12 467.67 -141.16 465.04 -132.95 462.15 C-131.92 461.79 -130.89 461.43 -129.83 461.06 C-104.68 451.44 -84.76 431.78 -70.95 409.15 C-70.6 408.56 -70.24 407.97 -69.87 407.37 C-61.3 393.01 -55.81 376.82 -51.84 360.63 C-50.95 358.15 -50.95 358.15 -47.95 356.15 C-44.89 356.33 -44.89 356.33 -41.95 357.15 C-39.69 360.55 -39.74 360.91 -40.45 364.71 C-41.72 371 -43.8 377 -45.92 383.04 C-46.18 383.79 -46.44 384.53 -46.71 385.3 C-47.07 386.31 -47.07 386.31 -47.44 387.33 C-48.09 389.31 -48.09 389.31 -47.95 392.15 C-40.03 392.48 -32.11 392.81 -23.95 393.15 C-23.72 388.17 -23.72 388.17 -23.47 383.1 C-20.08 314.85 -9.48 247.94 3.73 180.96 C4 179.57 4 179.57 4.28 178.16 C7.09 163.83 10.34 149.66 15.21 135.87 C19.32 124.2 18.32 117.44 13.05 106.15 C7.08 95.03 -0.08 86.85 -11.95 82.15 C-21.19 79.48 -33.96 80.04 -42.95 83.15 C-44.4 87.48 -43.29 90.93 -42.39 95.33 C-42.12 96.67 -42.12 96.67 -41.84 98.04 C-37.76 117.08 -30.34 134.8 -13.95 146.15 C-31.27 138.48 -42.02 125.71 -48.95 108.15 C-52.17 98.89 -54.38 89.51 -55.3 79.75 C-56.14 76.41 -57.24 75.25 -59.95 73.15 C-73.73 66.41 -87.4 65.77 -101.95 70.15 C-105.05 71.32 -108 72.65 -110.95 74.15 C-109.65 80.95 -107.62 86.94 -104.83 93.27 C-104.23 94.65 -104.23 94.65 -103.61 96.06 C-93.24 119.47 -79 142.45 -55.95 155.15 C-69.8 151.17 -80.94 141.07 -90.95 131.15 C-91.68 130.48 -92.4 129.82 -93.15 129.14 C-107.61 115.64 -117.9 96.81 -124.08 78.21 C-126 72.63 -127.9 69.07 -133.25 66.25 C-138.76 64 -144.27 61.92 -149.95 60.15 C-150.59 59.94 -151.22 59.74 -151.87 59.53 C-163.31 57.43 -175.18 58.63 -184.95 65.15 C-184.41 69.67 -182.49 72.92 -180.02 76.65 C-179.62 77.26 -179.22 77.87 -178.8 78.5 C-163.18 101.97 -142.81 124.87 -114.95 133.15 C-142.3 127.34 -167.31 111.89 -184.95 90.15 C-185.73 89.2 -186.5 88.26 -187.29 87.28 C-192.41 80.88 -196.87 74.37 -200.65 67.08 C-203.28 62.32 -205.84 60.78 -210.95 59.15 C-224.16 55.78 -236.82 59.21 -246.95 68.15 Z M42.8 72.08 C41.35 72.22 41.35 72.22 39.87 72.35 C35.52 72.75 31.31 73.24 27.05 74.15 C27.23 74.72 27.41 75.29 27.6 75.88 C28.45 78.62 29.25 81.38 30.05 84.15 C30.33 85.11 30.62 86.08 30.91 87.07 C35.34 103.68 33.93 121.59 27.63 137.53 C23.26 148.6 20.59 159.75 18.23 171.4 C17.81 173.44 17.39 175.48 16.97 177.52 C5.65 232.58 -3.8 288.14 -8.95 344.15 C-9.06 345.14 -9.16 346.13 -9.26 347.16 C-10.22 357.48 -10.18 367.83 -10.2 378.18 C-10.2 381.44 -10.24 384.7 -10.27 387.96 C-10.89 411.32 -10.89 411.32 -1.95 432.15 C1.48 434.62 5.04 435.87 9.05 437.15 C9.68 437.35 10.31 437.56 10.96 437.77 C38.52 446.53 68.23 449.49 97.05 450.15 C97.96 450.17 98.87 450.19 99.81 450.21 C165.65 451.55 231.2 439.18 290.05 409.15 C291.29 408.51 291.29 408.51 292.57 407.86 C307.33 400.24 321.43 390.99 334.05 380.15 C331.01 378.63 329.03 379.78 325.8 380.66 C324.49 381.01 323.17 381.35 321.86 381.7 C320.82 381.98 320.82 381.98 319.76 382.26 C261.12 397.84 197.27 397.41 143.25 367.07 C132.9 360.87 123.31 353.85 114.05 346.15 C113.43 345.64 112.81 345.12 112.18 344.6 C110.34 343.05 108.53 341.48 106.73 339.9 C105.9 339.19 105.9 339.19 105.04 338.47 C102.16 335.86 101.07 334.24 100.13 330.41 C100.05 327.15 100.05 327.15 101.05 325.15 C104.26 323.54 106.62 324.35 110.05 325.15 C112.54 327.19 112.54 327.19 114.92 329.9 C145.68 362.9 192.67 378.47 236.74 380.26 C274.53 381.35 326.81 376.64 359.05 355.15 C359.51 352.13 359.51 352.13 359.44 348.54 C359.45 347.87 359.45 347.21 359.46 346.52 C359.46 344.33 359.44 342.15 359.42 339.96 C359.42 339.21 359.41 338.46 359.41 337.69 C358.92 271.51 329.42 203.83 282.23 157.27 C281.7 156.76 281.17 156.25 280.62 155.72 C278.84 153.94 277.23 152.06 275.61 150.15 C272.76 146.85 269.74 144.01 266.41 141.2 C264.55 139.58 262.75 137.94 260.96 136.25 C260.13 135.47 260.13 135.47 259.29 134.67 C258.2 133.65 257.13 132.62 256.05 131.59 C247.96 123.97 238.83 119.4 228.67 115.08 C228.03 114.81 227.39 114.54 226.73 114.25 C170.34 90.11 105.07 66.14 42.8 72.08 Z M-45.95 400.15 C-46.77 402.21 -47.58 404.27 -48.39 406.33 C-48.84 407.48 -49.3 408.63 -49.76 409.82 C-51.63 415.03 -52.07 419.42 -52.02 424.96 C-52 427 -51.98 429.04 -51.95 431.15 C-47.66 431.15 -43.37 431.15 -38.95 431.15 C-39.08 428.49 -39.08 428.49 -39.2 425.77 C-39.24 416.94 -37.1 408.67 -34.95 400.15 C-38.58 400.15 -42.21 400.15 -45.95 400.15 Z M-25.95 401.15 C-26.6 402.56 -27.25 403.98 -27.89 405.4 C-28.43 406.58 -28.43 406.58 -28.98 407.79 C-30.99 412.67 -31.08 417.16 -31.02 422.4 C-31.01 423.14 -31.01 423.89 -31 424.66 C-30.99 426.49 -30.97 428.32 -30.95 430.15 C-26.99 429.49 -23.03 428.83 -18.95 428.15 C-19.24 426.48 -19.53 424.81 -19.83 423.08 C-21.05 415.79 -22.01 408.48 -22.95 401.15 C-23.94 401.15 -24.93 401.15 -25.95 401.15 Z M-201.45 401.77 C-202.13 401.82 -202.81 401.86 -203.51 401.91 C-205.77 402.1 -205.77 402.1 -208.95 403.15 C-215.44 412.91 -214.17 424.97 -213.95 436.15 C-213.29 436.15 -212.63 436.15 -211.95 436.15 C-210.68 434.45 -210.68 434.45 -209.45 432.23 C-208.96 431.39 -208.47 430.56 -207.97 429.69 C-207.45 428.79 -206.93 427.89 -206.39 426.96 C-202.06 419.55 -197.54 412.43 -192.5 405.48 C-190.77 403.34 -190.77 403.34 -190.95 401.15 C-194.48 401.15 -197.95 401.42 -201.45 401.77 Z M-228.52 405.77 C-229.47 405.89 -230.42 406 -231.4 406.12 C-234.19 406.96 -234.19 406.96 -235.71 409.79 C-240.62 423.05 -239.33 436.62 -233.76 449.42 C-233.49 449.99 -233.23 450.56 -232.95 451.15 C-231 450.67 -229.04 450.19 -227.08 449.71 C-225.99 449.44 -224.9 449.18 -223.78 448.9 C-221.03 448.27 -221.03 448.27 -218.95 447.15 C-219.1 446.57 -219.24 446 -219.39 445.41 C-222.26 432.29 -221.88 418.22 -218.95 405.15 C-222.26 405.15 -225.26 405.32 -228.52 405.77 Z M-252.14 411.65 C-253.49 412.07 -253.49 412.07 -254.87 412.49 C-255.56 412.71 -256.25 412.92 -256.95 413.15 C-261.04 428.64 -259.61 443.15 -251.95 457.15 C-247.9 456.68 -244.49 456.27 -240.95 454.15 C-241.62 450.61 -242.47 447.17 -243.45 443.71 C-246.62 432.12 -246.5 421.88 -243.95 410.15 C-247.05 410.15 -249.2 410.73 -252.14 411.65 Z M-277.95 421.15 C-279.3 424.46 -279.3 424.46 -278.95 428.15 C-279.04 429.32 -279.12 430.5 -279.2 431.71 C-279.03 441.57 -276.44 453.86 -270.95 462.15 C-266.53 463.76 -263.33 462.61 -258.95 461.15 C-260.51 456.35 -262.26 451.64 -264.05 446.93 C-265.81 441.51 -266.09 436.38 -266.08 430.71 C-266.08 429.45 -266.08 428.2 -266.09 426.9 C-265.96 423.22 -265.55 419.78 -264.95 416.15 C-269.88 416.15 -273.97 418.33 -277.95 421.15 Z M-60.95 416.15 C-62.12 417.85 -63.23 419.59 -64.33 421.33 C-64.94 422.3 -65.54 423.26 -66.17 424.25 C-67.78 426.87 -69.38 429.5 -70.95 432.15 C-67.32 432.15 -63.69 432.15 -59.95 432.15 C-59.95 426.87 -59.95 421.59 -59.95 416.15 C-60.28 416.15 -60.61 416.15 -60.95 416.15 Z M-291.08 433.9 C-293.9 437.26 -294.35 439.48 -294.08 443.83 C-293.01 451.35 -291.28 462.27 -284.95 467.15 C-281.25 467.08 -281.25 467.08 -277.95 466.15 C-278.37 464.95 -278.78 463.75 -279.2 462.52 C-282.63 452.19 -285.45 441.95 -286.95 431.15 C-288.81 431.15 -289.82 432.67 -291.08 433.9 Z M-28.81 442.61 C-40.05 444.23 -51.5 444.37 -62.83 444.71 C-64.21 444.75 -65.59 444.8 -66.97 444.84 C-70.3 444.95 -73.63 445.05 -76.95 445.15 C-76.45 452.49 -74.16 458.75 -71.52 465.58 C-71.28 466.2 -71.05 466.81 -70.81 467.44 C-64.21 484.65 -56.6 501.45 -49.11 518.29 C-41.76 534.82 -34.55 551.39 -27.89 568.21 C-27.45 569.32 -27.01 570.43 -26.55 571.58 C-16.18 598.17 -16.18 598.17 -18.92 607.41 C-20.08 611.61 -20.34 615.31 -20.33 619.65 C-20.33 620.43 -20.33 621.2 -20.32 622.01 C-20.16 629.86 -19.48 640.43 -13.88 646.34 C-13.24 646.93 -12.61 647.53 -11.95 648.15 C-11.82 647.28 -11.68 646.41 -11.54 645.52 C-11.03 642.27 -10.51 639.02 -9.98 635.77 C-9.76 634.37 -9.54 632.97 -9.32 631.57 C-8.15 624.14 -6.96 617.08 -3.95 610.15 C-3.62 609.16 -3.29 608.17 -2.95 607.15 C0.79 604.8 4.25 604.88 8.48 605.49 C16.5 607.54 23.55 612.43 30.55 616.71 C43.87 624.91 43.87 624.91 59.05 627.15 C62.52 625.87 62.52 625.87 65.05 624.15 C58.32 613.49 48.09 606.57 38.04 599.27 C31.85 594.77 25.89 590.1 20.05 585.15 C19.3 584.55 18.55 583.95 17.78 583.33 C-11.41 559.26 -11 495.67 -15.15 460.64 C-15.93 454.12 -16.89 447.63 -17.95 441.15 C-21.61 441.15 -25.22 442 -28.81 442.61 Z M-303.58 447.15 C-305.37 449.76 -305.05 451.56 -304.55 454.61 C-303.32 459.87 -301.64 465.01 -299.95 470.15 C-297.97 469.82 -295.99 469.49 -293.95 469.15 C-294.96 466.13 -295.96 463.12 -296.99 460.11 C-297.33 459.11 -297.67 458.11 -298.02 457.08 C-298.36 456.08 -298.7 455.08 -299.05 454.05 C-299.87 451.42 -300.47 448.85 -300.95 446.15 C-302.13 446.06 -302.13 446.06 -303.58 447.15 Z M-463.95 448.15 C-464.57 458.89 -462.3 467.41 -455.95 476.15 C-454.82 477.51 -454.82 477.51 -451.79 477.25 C-450.51 477.23 -449.22 477.22 -447.89 477.21 C-446.6 477.2 -445.31 477.19 -443.98 477.18 C-442.98 477.17 -441.98 477.16 -440.95 477.15 C-442.02 473.87 -443.13 470.74 -444.52 467.58 C-446.63 462.54 -447.08 458.28 -447.02 452.83 C-447.01 451.77 -447 450.7 -446.99 449.6 C-446.98 448.79 -446.97 447.98 -446.95 447.15 C-449.04 447.12 -451.12 447.1 -453.2 447.08 C-454.36 447.07 -455.53 447.06 -456.72 447.05 C-459.36 447.13 -461.45 447.36 -463.95 448.15 Z M-438.95 448.15 C-440.54 449.73 -440.2 451.32 -440.27 453.52 C-440.2 459.64 -438.48 464.62 -435.95 470.15 C-435.65 470.89 -435.35 471.63 -435.03 472.4 C-433.85 474.64 -433.11 475.77 -430.95 477.15 C-426.56 477.72 -422.36 477.55 -417.95 477.15 C-418.92 474.7 -419.89 472.28 -420.99 469.89 C-423.59 464.06 -424.49 458.89 -424.78 452.52 C-424.69 450.19 -424.69 450.19 -425.95 449.15 C-428.12 448.89 -430.28 448.69 -432.45 448.52 C-433.64 448.43 -434.83 448.33 -436.05 448.23 C-437.01 448.2 -437.97 448.18 -438.95 448.15 Z M-411.58 448.08 C-412.56 448.26 -413.54 448.43 -414.56 448.61 C-416.9 448.91 -416.9 448.91 -417.95 450.15 C-418.02 457.35 -416.82 464.01 -412.95 470.15 C-412.59 470.74 -412.22 471.34 -411.84 471.95 C-409.74 474.9 -408.2 476.85 -404.59 477.71 C-401.89 477.84 -399.28 477.76 -396.58 477.58 C-395.65 477.55 -394.73 477.52 -393.77 477.49 C-391.5 477.41 -389.23 477.29 -386.95 477.15 C-388.23 472.58 -389.95 469.77 -392.95 466.15 C-394.01 464.22 -395.01 462.26 -395.95 460.27 C-398.14 455.79 -400.42 451.44 -402.95 447.15 C-405.97 447.15 -408.62 447.55 -411.58 448.08 Z M-480.58 452.15 C-482.36 452.7 -482.36 452.7 -484.18 453.27 C-485.55 453.71 -485.55 453.71 -486.95 454.15 C-485.97 462.97 -484.35 469.75 -477.95 476.15 C-475.06 476.39 -475.06 476.39 -471.83 476.27 C-470.19 476.25 -470.19 476.25 -468.51 476.22 C-467.24 476.18 -467.24 476.18 -465.95 476.15 C-466.39 475.01 -466.82 473.88 -467.27 472.71 C-469.73 465.41 -470.73 457.73 -471.95 450.15 C-475.01 450.15 -477.67 451.23 -480.58 452.15 Z M-501.64 460.15 C-502.85 460.7 -502.85 460.7 -504.09 461.27 C-505.01 461.71 -505.01 461.71 -505.95 462.15 C-505.5 467.03 -504.32 469.59 -500.95 473.15 C-497.75 475.28 -496.94 475.38 -493.27 475.27 C-492.46 475.25 -491.65 475.24 -490.82 475.22 C-490.2 475.19 -489.59 475.17 -488.95 475.15 C-489.37 473.94 -489.37 473.94 -489.79 472.7 C-490.16 471.63 -490.52 470.56 -490.89 469.46 C-491.25 468.4 -491.61 467.35 -491.98 466.26 C-492.83 463.56 -493.46 460.93 -493.95 458.15 C-497.19 458.15 -498.74 458.8 -501.64 460.15 Z M-519.02 468.65 C-519.94 469.11 -520.86 469.58 -521.8 470.05 C-522.51 470.41 -523.22 470.78 -523.95 471.15 C-523.95 471.81 -523.95 472.47 -523.95 473.15 C-519.66 473.48 -515.37 473.81 -510.95 474.15 C-511.61 471.51 -512.27 468.87 -512.95 466.15 C-515.06 466.15 -517.2 467.73 -519.02 468.65 Z M-541.02 489.4 C-541.84 490.07 -541.84 490.07 -542.68 490.75 C-544.46 492.19 -546.21 493.67 -547.95 495.15 C-548.55 495.64 -549.14 496.14 -549.75 496.65 C-553.32 499.65 -556.85 502.68 -560.35 505.74 C-561.83 507.04 -563.32 508.32 -564.81 509.59 C-596.97 537.56 -605.11 591.84 -608.49 632.09 C-611.72 680.19 -609.98 738.21 -578.77 777.9 C-577.51 779.33 -576.24 780.74 -574.95 782.15 C-574.35 782.9 -573.74 783.65 -573.11 784.42 C-556.28 804.7 -527.57 815.28 -501.95 818.15 C-475.39 819.69 -452.59 814.53 -431.95 797.15 C-430.67 796.08 -430.67 796.08 -429.35 795 C-408.66 777.23 -399.51 757.42 -397.27 730.75 C-395.42 705.5 -399.05 679.05 -415.02 658.58 C-416.31 657.09 -417.62 655.61 -418.95 654.15 C-419.48 653.53 -420.01 652.91 -420.56 652.27 C-428.29 643.76 -439.05 638.35 -449.95 635.15 C-450.67 634.92 -451.38 634.7 -452.11 634.47 C-465.38 630.85 -480.44 632.61 -492.64 638.77 C-505.37 646.3 -513.28 656.29 -517.26 670.52 C-519.69 683.17 -518.72 694.53 -511.42 705.45 C-505.54 712.84 -497.3 717.79 -487.95 719.15 C-484.13 719.2 -480.99 718.92 -477.84 716.56 C-475.42 713.46 -474.82 710.41 -474.08 706.65 C-472.07 697.81 -469.81 688.16 -461.77 682.96 C-455.58 679.7 -449.72 679.01 -442.99 681.04 C-441.06 681.76 -439.15 682.5 -437.24 683.27 C-435.05 684.27 -435.05 684.27 -432.95 684.15 C-431.95 690.15 -431.95 690.15 -430.95 696.15 C-430.77 697.04 -430.59 697.94 -430.41 698.86 C-428.06 715.89 -428.97 733.17 -438.99 747.62 C-451.25 763.36 -468.43 770.38 -487.81 772.87 C-510.44 774.89 -529.23 766.58 -546.49 752.29 C-566.22 735.15 -577.84 712.83 -579.83 686.59 C-579.87 685.79 -579.91 684.98 -579.95 684.15 C-580.01 683.32 -580.06 682.49 -580.11 681.64 C-581.2 648.56 -569.12 612.01 -546.52 587.73 C-524.6 565.59 -494.05 555.48 -463.95 551.15 C-464.61 545.02 -466.25 539.39 -468.08 533.52 C-468.39 532.52 -468.7 531.52 -469.01 530.48 C-471.15 523.58 -473.43 516.74 -475.77 509.9 C-478.11 503.03 -480.02 496.36 -480.95 489.15 C-492.76 488.05 -504.57 486.99 -516.39 486.02 C-517.44 485.93 -518.49 485.85 -519.56 485.76 C-522.36 485.53 -525.16 485.34 -527.95 485.15 C-529.22 485.04 -530.49 484.94 -531.8 484.83 C-535.97 485.25 -537.79 486.75 -541.02 489.4 Z M-467.95 490.15 C-466.67 499.6 -463.73 508.36 -460.64 517.33 C-459.68 520.14 -458.73 522.95 -457.78 525.75 C-457.55 526.44 -457.31 527.12 -457.07 527.83 C-454.56 535.23 -452.25 542.68 -449.95 550.15 C-448.79 550.17 -447.62 550.2 -446.42 550.23 C-430.03 550.74 -413.83 552.95 -397.95 557.15 C-398.2 555.5 -398.45 553.86 -398.7 552.21 C-398.89 551.02 -399.07 549.82 -399.26 548.59 C-399.77 545.29 -400.31 542 -400.87 538.7 C-403.52 522.9 -405.4 507.09 -406.95 491.15 C-427.3 490.42 -447.6 489.99 -467.95 490.15 Z M-393.95 491.15 C-393.33 511 -390.13 530.78 -386.45 550.27 C-386.27 551.33 -386.08 552.38 -385.88 553.47 C-385.59 554.92 -385.59 554.92 -385.3 556.41 C-385.14 557.25 -384.97 558.1 -384.8 558.97 C-382.84 564 -377.04 565.65 -372.45 567.83 C-342.85 582.34 -320.48 606.77 -307.95 637.15 C-304.36 625.8 -306.82 613.46 -311.95 603.15 C-312.43 602.19 -312.43 602.19 -312.91 601.21 C-320.09 586.87 -328.22 573.01 -337.23 559.76 C-339.17 556.82 -340.84 553.81 -342.51 550.72 C-346.96 542.81 -352 535.21 -356.88 527.56 C-362.6 518.58 -368.14 509.55 -373.39 500.29 C-376.3 494.96 -376.3 494.96 -379.95 490.15 C-384.62 489.61 -389.32 490.51 -393.95 491.15 Z M-301.95 654.15 C-300.95 656.15 -300.95 656.15 -300.95 656.15 Z " fill="#251B2B" transform="translate(832.9547882080078,230.8525848388672)"/>
<path d="M0 0 C16.51 11.15 25.69 29.8 29.66 48.9 C31.14 56.8 31.48 64.5 31.44 72.53 C31.44 73.8 31.43 75.08 31.42 76.4 C31.1 101.86 23.69 129.19 6.13 148.34 C4.95 149.71 4.95 149.71 3.74 151.11 C-4.46 160.07 -15.89 167.72 -28.34 168.58 C-41.02 168.93 -51.03 166.81 -60.87 158.34 C-62.1 157.41 -62.1 157.41 -63.35 156.46 C-77.1 144.88 -84.33 123.73 -86.59 106.26 C-88.63 77.77 -84.73 52.39 -70.87 27.34 C-70.32 26.33 -69.76 25.32 -69.19 24.28 C-61.05 10.54 -48.52 -0.39 -33.11 -5 C-21.39 -7.39 -10.34 -5.98 0 0 Z M-45.87 17.34 C-46.6 17.97 -47.33 18.59 -48.08 19.23 C-54.71 25.33 -58.89 32.39 -62.87 40.34 C-63.43 41.45 -63.99 42.57 -64.56 43.72 C-76.42 69.37 -77.15 100.09 -67.58 126.51 C-63.22 137.77 -55.94 148 -44.87 153.34 C-37.52 156.2 -30.2 156.47 -22.81 153.71 C-13.61 149.58 -7.23 144.13 -0.87 136.34 C-3.01 134.99 -3.01 134.99 -6.06 136.28 C-13.24 138.28 -19.2 137.46 -25.87 134.34 C-35.22 128.57 -40.11 117.59 -42.87 107.34 C-45.07 96.81 -44.92 86.94 -43.87 76.34 C-43.77 75.35 -43.68 74.35 -43.57 73.33 C-43.36 71.33 -43.12 69.34 -42.87 67.34 C-42.21 67.67 -41.55 68 -40.87 68.34 C-37.16 68.76 -35.14 68.47 -31.75 66.84 C-27.18 62.87 -25.42 58.59 -24 52.78 C-23.85 48.89 -24.69 46.02 -25.87 42.34 C-25.87 41.02 -25.87 39.7 -25.87 38.34 C-19.74 32.64 -12.47 29.89 -4.18 30.08 C1.5 30.72 6.4 33.24 11.13 36.34 C8.04 26.15 2 17.34 -6.87 11.34 C-20.92 4.17 -34.23 7.02 -45.87 17.34 Z " fill="#251B2B" transform="translate(1055.87109375,388.66015625)"/>
<path d="M0 0 C0.82 0.65 1.65 1.31 2.5 1.98 C3.37 2.66 4.25 3.35 5.15 4.05 C15.29 12.16 25.35 20.82 33.5 30.98 C33.93 31.51 34.36 32.05 34.8 32.6 C36.29 34.45 37.77 36.31 39.25 38.17 C39.72 38.76 40.19 39.36 40.68 39.97 C43.19 43.18 45.61 46.35 47.5 49.98 C47.18 52.29 47.18 52.29 46.5 53.98 C43.33 53.71 42.48 52.96 40.34 50.53 C39.57 49.46 38.79 48.39 38 47.29 C27.57 33.21 16.26 20.85 2.5 9.98 C1.58 9.25 0.66 8.51 -0.28 7.76 C-28.38 -14.09 -62.55 -25.8 -98.27 -21.52 C-106.72 -20.31 -114.85 -18.27 -122.94 -15.56 C-126.84 -14.29 -129.55 -13.76 -133.5 -15.02 C-133.25 -16.89 -133.25 -16.89 -132.5 -19.02 C-94.96 -44.05 -32.07 -24.45 0 0 Z " fill="#251B2B" transform="translate(1081.50390625,390.01953125)"/>
<path d="M0 0 C3.5 1.9 4.47 2.82 5.88 6.56 C6.59 12.54 6.36 17.46 2.88 22.56 C0.67 24.76 -0.56 25.46 -3.62 26 C-6.93 25.42 -8.05 24.15 -10.12 21.56 C-11.86 16.36 -11.79 11.41 -9.94 6.25 C-5.23 -0.73 -5.23 -0.73 0 0 Z M-3.12 7.56 C-4.33 9.97 -4.23 11.51 -4.19 14.19 C-4.18 15 -4.17 15.82 -4.16 16.66 C-4.15 17.29 -4.14 17.92 -4.12 18.56 C-3.46 18.56 -2.81 18.56 -2.12 18.56 C-0.92 16.16 -1.02 14.61 -1.06 11.94 C-1.08 10.71 -1.08 10.71 -1.09 9.46 C-1.1 8.83 -1.11 8.21 -1.12 7.56 C-1.79 7.56 -2.44 7.56 -3.12 7.56 Z " fill="#251B2B" transform="translate(1168.125,531.4375)"/>
<path d="" fill="#251B2B" transform="translate(0,0)"/>
</svg>
