<?xml version="1.0" encoding="UTF-8"?>
<!-- Generator: visioncortex VTracer 0.6.3 -->
<svg version="1.1" xmlns="http://www.w3.org/2000/svg" width="989" height="1280">
<path d="M0 0 C0 0.33 0 0.66 0 1 C-0.67 0.98 -1.34 0.97 -2.03 0.95 C-28.52 0.41 -52.34 2.56 -72.5 21.56 C-78.43 27.26 -84.16 33.19 -89.91 39.08 C-103.1 52.58 -103.1 52.58 -111 57 C-111 53.56 -110.46 52.89 -108.48 50.2 C-107.95 49.47 -107.42 48.74 -106.88 47.99 C-106.32 47.23 -105.76 46.47 -105.19 45.69 C-101.7 40.93 -98.44 36.38 -96 31 C-100.15 32.09 -104.3 33.2 -108.45 34.32 C-110.22 34.79 -112 35.26 -113.78 35.73 C-148.5 44.9 -179.71 59.1 -210.28 77.84 C-228.68 89.07 -228.68 89.07 -240 87 C-247.22 84.27 -251.6 78.07 -256.36 72.32 C-272.99 52.53 -298.9 44.87 -323.75 42.31 C-370.03 39.35 -413.1 51.65 -448.46 82.12 C-451.01 84.37 -453.51 86.67 -456 89 C-456.89 89.82 -457.77 90.64 -458.69 91.49 C-489.38 120.91 -502.19 164.18 -509 205 C-509.17 205.98 -509.33 206.96 -509.5 207.97 C-514.13 236.84 -514.07 268.2 -509 297 C-508.75 298.46 -508.75 298.46 -508.5 299.94 C-501.95 337.04 -488.62 376.15 -465 406 C-464.54 406.59 -464.08 407.17 -463.6 407.78 C-450.63 424.05 -432.24 441.17 -411 445 C-408.75 445.07 -406.5 445.08 -404.25 445.06 C-403.08 445.05 -401.91 445.04 -400.7 445.04 C-399.81 445.02 -398.92 445.01 -398 445 C-398.22 443.44 -398.22 443.44 -398.44 441.85 C-398.63 440.44 -398.81 439.03 -399 437.62 C-399.1 436.95 -399.19 436.27 -399.29 435.57 C-400.61 425.48 -399.85 415.7 -398.75 405.62 C-398.62 404.4 -398.49 403.18 -398.35 401.92 C-395.38 375.79 -395.38 375.79 -391 366 C-390.67 366 -390.34 366 -390 366 C-390.1 367.74 -390.2 369.49 -390.3 371.23 C-390.39 372.77 -390.48 374.31 -390.57 375.85 C-390.78 379.5 -391.01 383.14 -391.29 386.78 C-394.49 420.48 -394.49 420.48 -385 452 C-379.98 457.03 -373.87 459.84 -367.56 463 C-358.96 467.38 -350.49 471.93 -342.12 476.75 C-319.45 490.96 -319.45 490.96 -294 495 C-275.98 486.33 -264.95 462.85 -255.36 446.34 C-254.43 444.73 -253.47 443.13 -252.5 441.54 C-252.04 440.75 -251.57 439.96 -251.09 439.15 C-250.66 438.45 -250.24 437.75 -249.8 437.02 C-248.81 434.52 -249.06 433.48 -250 431 C-250.86 429.38 -251.72 427.77 -252.63 426.18 C-267.94 399.19 -270.56 369.04 -265.46 338.78 C-263.05 324.15 -267.25 311.7 -271.66 297.94 C-276.29 283.38 -278.26 267.78 -271.83 253.38 C-270.8 250.42 -270.99 248.96 -272 246 C-273.47 243.84 -273.47 243.84 -275.31 241.81 C-285.15 229.52 -285.81 213.32 -286.94 198.19 C-288.13 182.87 -292.12 170.29 -303.5 159.38 C-332.25 135.05 -373.39 127.28 -410 129 C-427.82 131.01 -441.26 142.76 -452.12 156.12 C-452.83 157.04 -453.53 157.95 -454.26 158.88 C-456 161 -456 161 -458 162 C-456.63 157.08 -454.42 153.27 -451.44 149.19 C-450.99 148.58 -450.55 147.96 -450.09 147.33 C-439.57 133.16 -426.52 123.97 -409 120.75 C-372.2 115.93 -329.79 127.12 -299.77 148.86 C-287.5 158.35 -279.12 171.68 -276.67 187.11 C-276.08 191.88 -275.86 196.64 -275.71 201.45 C-275.24 215.81 -273.91 229.11 -267 242 C-261.31 233.18 -260.93 224.96 -262.5 214.72 C-264.7 198.24 -264.34 179.07 -260 163 C-259.79 162.2 -259.57 161.4 -259.35 160.58 C-256.49 150.16 -253.12 139.99 -249 130 C-247.92 133.3 -248.11 135.47 -248.93 138.82 C-249.14 139.76 -249.36 140.7 -249.59 141.66 C-249.83 142.66 -250.07 143.66 -250.31 144.69 C-253.77 160.07 -255.17 174.57 -255.19 190.31 C-255.19 191 -255.19 191.68 -255.19 192.39 C-255.19 200.98 -254.81 209.45 -254 218 C-253.12 229.94 -255.8 239.38 -260.38 250.27 C-267.51 267.48 -265.92 281.45 -261.1 298.97 C-257.37 312.57 -255.45 325.32 -256.7 339.43 C-259.24 372.43 -255.12 407.78 -232.85 433.88 C-232.24 434.58 -231.63 435.28 -231 436 C-230.54 436.6 -230.09 437.2 -229.62 437.81 C-222.06 447.56 -210.17 455.08 -199 460 C-198.01 460 -197.02 460 -196 460 C-192.29 438.34 -192.06 417.87 -193 396 C-191 397 -191 397 -189.71 400.6 C-189.26 402.08 -188.81 403.57 -188.38 405.06 C-187.59 407.68 -186.81 410.3 -186 413 C-185.34 402.11 -184.68 391.22 -184 380 C-183.34 380 -182.68 380 -182 380 C-171.58 435.22 -190.41 496.03 -221.57 541.78 C-229.85 553.65 -238.96 564.58 -249 575 C-249.53 575.56 -250.07 576.11 -250.62 576.69 C-257.69 584 -264.95 590.76 -273 597 C-274.27 598.01 -275.53 599.01 -276.8 600.02 C-287.08 608.12 -297.78 615.28 -309 622 C-309.73 622.44 -310.46 622.88 -311.22 623.33 C-322.97 630.32 -335.8 637.76 -350 636 C-353.14 634.91 -356.07 633.55 -359 632 C-358.67 631.34 -358.34 630.68 -358 630 C-356.35 630 -354.7 630 -353 630 C-353.24 629.41 -353.48 628.81 -353.73 628.2 C-356.19 621.32 -356.42 615.95 -354 609 C-352.29 605.74 -350.28 602.88 -348 600 C-347.29 599.08 -347.29 599.08 -346.57 598.14 C-343.41 594.21 -343.41 594.21 -341 593 C-341 592.01 -341 591.02 -341 590 C-342.84 589.29 -342.84 589.29 -345 589 C-347.48 590.69 -349.59 592.33 -351.81 594.31 C-352.75 595.14 -352.75 595.14 -353.7 595.98 C-361.95 603.44 -369.43 612.93 -370.16 624.48 C-369.65 632.1 -365.58 637.04 -360 642 C-345.06 653.78 -326.68 656.33 -308.25 654.38 C-259.97 647.36 -215.65 617.83 -180 586 C-179.05 585.16 -178.09 584.32 -177.11 583.45 C-170.78 577.76 -164.72 571.82 -158.69 565.81 C-157.93 565.06 -157.18 564.32 -156.41 563.54 C-151.73 558.86 -147.3 554.03 -143 549 C-142.15 548.04 -141.31 547.07 -140.44 546.08 C-132.12 536.43 -124.55 526.26 -117 516 C-116.43 515.23 -115.86 514.46 -115.27 513.67 C-104.4 498.96 -94.55 483.66 -84.81 468.19 C-57.27 424.47 -57.27 424.47 -36.88 418.69 C-24.13 416.43 -13.63 420.43 -2.95 427.41 C-2.31 427.94 -1.66 428.46 -1 429 C-1 429.66 -1 430.32 -1 431 C-1.81 430.93 -2.62 430.86 -3.46 430.78 C-10.66 430.18 -17.77 429.87 -25 430 C-25.28 430.99 -25.56 431.99 -25.85 433.01 C-30.7 449.69 -37.28 465.39 -52.78 474.82 C-58.5 477.85 -63.44 478.98 -69.93 479.35 C-76.82 479.81 -76.82 479.81 -82.67 483.32 C-84.72 486.14 -86.39 488.92 -88 492 C-88.73 493.29 -89.46 494.58 -90.2 495.86 C-90.8 496.9 -91.39 497.93 -92 499 C-87.9 499.09 -83.79 499.14 -79.69 499.19 C-78.54 499.21 -77.39 499.24 -76.21 499.26 C-59.67 499.4 -44.99 493.52 -33 482 C-30.57 479.17 -28.25 476.3 -26.01 473.32 C-24.07 471.08 -22.72 470.06 -20 469 C-20.48 470.46 -20.96 471.92 -21.44 473.38 C-21.84 474.59 -21.84 474.59 -22.25 475.84 C-23 478 -23 478 -24 480 C-22.79 479.47 -22.79 479.47 -21.56 478.93 C-13.67 475.62 -5.73 472.92 2.5 470.56 C3.52 470.27 4.54 469.98 5.6 469.67 C9.74 468.49 13.88 467.31 18.02 466.15 C41.9 459.42 61.9 450.3 80 433 C80.6 432.46 81.2 431.92 81.82 431.37 C103.15 411.58 113.5 380.67 115.01 352.34 C115.3 342.25 113.94 332.29 112.69 322.3 C110.01 299.67 117.9 282.02 128.86 262.73 C136.38 249.34 136.1 238.2 132.06 223.62 C125.18 197.85 126.34 173.54 139.75 149.94 C152.66 129.38 171.38 115.69 195.06 110.25 C230.44 103.3 268.05 111.32 297.9 131.27 C315.34 143.54 333.65 161.63 343 181 C342.67 181.99 342.34 182.98 342 184 C341.23 183.05 341.23 183.05 340.45 182.09 C337.98 179.05 335.49 176.02 333 173 C332.53 172.43 332.06 171.86 331.57 171.27 C311.74 147.27 286.59 129.39 256 122 C255.36 121.84 254.71 121.68 254.05 121.51 C227.05 115.07 197.19 116.89 173 131 C156.6 141.81 147.96 157.8 142 176 C141.66 177.01 141.31 178.02 140.96 179.07 C136.61 194.34 137.47 211.59 142.81 226.44 C147.12 239.33 145.22 252.86 139.31 264.94 C136.64 269.98 133.76 274.91 130.91 279.85 C122.06 295.25 118.72 308.94 122.5 326.44 C128.77 357.03 123.47 391.43 106.76 417.84 C105.13 420.48 104.01 422.42 103.98 425.57 C105.33 428.78 107.21 431.37 109.38 434.06 C109.82 434.63 110.26 435.19 110.72 435.77 C115.1 441.26 119.76 446.46 124.6 451.53 C125.54 452.52 126.48 453.51 127.41 454.51 C134.48 462.06 141.63 469.59 152.57 470.1 C160.51 469.78 168.03 465.83 174.94 462.19 C176.29 461.48 176.29 461.48 177.67 460.75 C187.48 455.43 196.2 448.81 205 442 C214.49 434.69 224.32 428.96 235.02 423.54 C238.34 421.86 241.65 420.16 244.93 418.4 C245.63 418.02 246.33 417.65 247.06 417.26 C253.67 412.97 255.67 406.64 257.4 399.3 C258.37 393.96 258.44 388.73 258.38 383.31 C258.37 382.15 258.36 380.98 258.35 379.78 C257.92 354.38 253.19 329.59 245.14 305.54 C244 302 244 302 244 300 C247 301 247 301 248.09 303.05 C248.42 303.94 248.75 304.83 249.09 305.75 C249.64 307.24 249.64 307.24 250.21 308.76 C250.59 309.83 250.98 310.9 251.38 312 C251.97 313.64 251.97 313.64 252.58 315.31 C263.09 344.42 267.56 373.05 267 404 C288.69 403.46 307.46 399.04 324 384 C325.25 382.87 325.25 382.87 326.52 381.73 C333.07 375.51 338.23 368.62 343 361 C343.38 360.4 343.75 359.81 344.14 359.2 C374.94 309.55 378.03 241.62 365.29 186.02 C354.81 143.17 332.25 104.87 302 73 C301.47 72.44 300.94 71.88 300.4 71.3 C277.51 47.15 249.65 31.7 217 25 C215.22 24.63 215.22 24.63 213.4 24.25 C186.07 19.53 157.86 23.93 134.8 39.68 C124.98 46.87 117.28 55.44 111.1 65.88 C103.6 78.46 103.6 78.46 96.98 80.68 C85.31 82.75 74.56 76.58 64.59 71.35 C30.09 53.34 -4.58 38.37 -43 31 C-44.13 30.76 -45.26 30.52 -46.43 30.27 C-53.22 28.98 -57.58 28.43 -63.38 32.38 C-64.02 32.77 -64.67 33.17 -65.33 33.58 C-67.59 35 -69.8 36.49 -72 38 C-73.34 38.91 -73.34 38.91 -74.7 39.84 C-79.62 43.23 -84.51 46.65 -89.39 50.09 C-94.28 53.52 -99.21 56.86 -104.25 60.06 C-104.9 60.49 -105.55 60.91 -106.22 61.35 C-108.02 62.47 -108.02 62.47 -111 64 C-111.99 63.67 -112.98 63.34 -114 63 C-105.9 55.35 -97.72 47.95 -89 41 C-87.81 40.02 -86.63 39.04 -85.44 38.06 C-67.2 23.06 -47.26 11.26 -22.86 13.22 C-6.88 14.93 10.85 22.19 23 33 C23 33.66 23 34.32 23 35 C18.18 33.58 13.38 32.13 8.6 30.57 C-4.33 26.36 -16.55 22.78 -30.25 22.62 C-31.07 22.61 -31.88 22.6 -32.72 22.58 C-38.88 22.63 -44.2 23.98 -50 26 C-49.2 26.09 -48.4 26.19 -47.58 26.29 C-3.58 31.61 34.47 44.98 72.75 67.5 C79.96 71.68 88.4 76.55 97 75 C101.35 71.32 103.72 67.26 106.31 62.31 C109.95 55.62 113.88 49.68 119 44 C119.99 42.87 119.99 42.87 121.01 41.71 C138.82 22.59 164.76 14.99 190.16 14.02 C225.17 13.3 259.56 26.64 287 48 C287.86 48.63 288.71 49.27 289.59 49.92 C305.56 62.24 319.47 77.52 331 94 C331.43 94.61 331.87 95.22 332.32 95.85 C358.65 133.09 374.57 175.78 380 221 C380.1 221.77 380.19 222.54 380.29 223.33 C381.32 232.79 381.24 242.31 381.25 251.81 C381.25 253.19 381.25 253.19 381.25 254.59 C381.24 268.28 380.74 281.54 378 295 C377.75 296.31 377.75 296.31 377.5 297.65 C371.27 330.02 358.98 361.9 336 386 C335.46 386.61 334.92 387.22 334.37 387.86 C322.96 400.35 303.52 409.8 286.78 411.18 C279.44 411.5 272.26 411.16 265 410 C264.73 410.57 264.46 411.14 264.19 411.72 C258.29 423.34 249.18 427.7 237.89 433.1 C230.17 436.79 223.13 441.16 216.12 446.06 C215.4 446.57 214.67 447.08 213.92 447.6 C209.91 450.46 206.37 453.4 203 457 C203.8 457.95 203.8 457.95 204.62 458.91 C230.16 489.58 247.72 526.57 256.03 565.68 C257.13 569.44 258.02 570.53 261 573 C271.94 577.82 284.02 579.96 295.66 582.4 C316.79 586.87 337.07 593.42 350.07 611.96 C356 621.63 358.51 630.38 358.25 641.69 C358.24 643.03 358.24 643.03 358.23 644.41 C358.18 649.37 357.75 654.09 357 659 C356.27 670.9 356.27 670.9 360 682 C362.93 684.69 364.22 685.03 368.19 684.88 C371.3 684.23 371.3 684.23 373 681 C374.32 681.33 375.64 681.66 377 682 C377.81 684.69 377.81 684.69 378 688 C376.37 690.27 375.21 691.37 373 693 C372.19 693.6 371.37 694.21 370.53 694.83 C364.97 698.67 359.94 701.86 353 701 C346.73 699.21 342.55 695.34 339 690 C335.4 682.91 334.23 676.03 333.5 668.19 C332.1 655.63 330.44 645.28 322.49 635.02 C321 633 321 633 320 630 C318.69 629.28 317.35 628.62 316 628 C314.49 626.91 312.99 625.81 311.5 624.69 C297.55 614.89 280.73 611.65 264 611 C264.07 612.07 264.14 613.15 264.21 614.25 C264.92 625.67 265.24 637.06 265.25 648.5 C265.25 649.83 265.25 649.83 265.25 651.19 C265.23 671.65 263.5 691.74 261.03 712.04 C258.43 733.56 256.51 754.81 256.5 776.5 C256.5 777.47 256.49 778.44 256.49 779.44 C256.45 799.15 258.31 818.23 264.38 837.03 C270.19 855.43 271.37 874 271.25 893.19 C271.25 894.05 271.24 894.91 271.24 895.8 C271.17 912.58 270.43 929.27 269 946 C268.93 946.83 268.86 947.66 268.79 948.51 C268.32 953.98 267.83 959.45 267.32 964.92 C267.15 966.71 266.98 968.5 266.82 970.29 C266.59 972.79 266.35 975.29 266.1 977.79 C266.03 978.53 265.97 979.27 265.9 980.04 C265.09 987.74 262.27 992.53 256.39 997.34 C243.39 1006.37 224.49 1008.55 209 1009 C207.89 1009.04 206.79 1009.08 205.65 1009.12 C181.77 1009.56 154.58 1006.94 133 996 C132.98 996.6 132.96 997.2 132.94 997.81 C131.77 1031.58 131.77 1031.58 123.06 1040 C107.98 1052.16 85.62 1054.81 67 1057 C66.23 1057.1 65.46 1057.19 64.67 1057.29 C40.86 1059.88 14.47 1059.81 -9 1055 C-10.02 1054.79 -11.05 1054.58 -12.1 1054.37 C-49.42 1046.48 -49.42 1046.48 -58 1037 C-62.09 1029.74 -62.16 1021.7 -62.56 1013.56 C-62.71 1010.74 -62.85 1007.91 -63 1005 C-68.61 1003.35 -74.22 1001.7 -80 1000 C-80.4 1003.28 -80.4 1003.28 -80.81 1006.62 C-81.71 1013.9 -83.83 1019.69 -89 1025 C-101.76 1034.6 -117.57 1037.11 -133 1039 C-133.73 1039.1 -134.46 1039.19 -135.21 1039.29 C-143.36 1040.25 -151.55 1040.24 -159.75 1040.25 C-160.53 1040.25 -161.3 1040.25 -162.1 1040.25 C-186.27 1040.22 -220.43 1039.18 -238.8 1021.48 C-249.1 1009.87 -248.72 993.68 -248 979 C-246.86 962.69 -242.3 947.4 -237 932 C-236.68 931.07 -236.36 930.14 -236.03 929.18 C-234.36 924.45 -232.53 919.88 -230.41 915.34 C-213.05 877.8 -216.87 825.91 -216.8 785.26 C-216.79 784.23 -216.79 783.2 -216.79 782.14 C-216.77 776.68 -216.76 771.23 -216.76 765.77 C-216.76 761.37 -216.74 756.97 -216.72 752.57 C-216.51 711.7 -218.91 671.55 -224 631 C-224.66 631.36 -225.32 631.73 -226 632.11 C-259.51 650.55 -301.61 669.87 -340.83 659.97 C-354.12 655.9 -366.73 649.48 -374.09 637.17 C-377.09 630.58 -377.14 622.49 -375.38 615.55 C-374.43 613.21 -373.32 611.15 -372 609 C-371.49 608.16 -370.97 607.32 -370.45 606.46 C-366.06 599.94 -360.85 594.78 -354.92 589.68 C-350.86 586.11 -348.57 582.75 -346 578 C-341.29 574.61 -336.62 574.26 -331 575 C-327.67 576.21 -325.72 577.06 -323.56 579.88 C-322.8 582.74 -322.98 584.2 -324 587 C-326.84 590.58 -330.02 592.65 -333.94 594.88 C-340.98 598.99 -345.27 603.66 -347.52 611.6 C-348.67 617.37 -349.25 622.04 -346 627.12 C-342.26 629.46 -339.26 629.55 -335 629 C-332.31 628.14 -329.91 626.91 -327.44 625.56 C-326.4 625.02 -326.4 625.02 -325.35 624.47 C-323.22 623.33 -321.11 622.17 -319 621 C-318.05 620.48 -318.05 620.48 -317.08 619.95 C-301.39 611.26 -287.42 599.84 -274 588 C-273.47 587.53 -272.94 587.07 -272.39 586.58 C-253.13 569.5 -237.41 549.96 -224 528 C-223.61 527.36 -223.22 526.73 -222.81 526.07 C-206.45 499.46 -206.45 499.46 -200 470 C-201.76 469.27 -201.76 469.27 -203.55 468.53 C-217.79 462.51 -233.17 454.25 -242 441 C-242.46 441.81 -242.92 442.63 -243.4 443.46 C-245.19 446.61 -246.98 449.74 -248.78 452.87 C-249.59 454.29 -250.41 455.72 -251.22 457.14 C-274.02 497.22 -274.02 497.22 -290.73 502.52 C-311.74 506.94 -333.89 492.54 -351.25 482.44 C-356.64 479.3 -362.08 476.36 -367.69 473.62 C-389.79 462.78 -389.79 462.78 -393.04 454.29 C-394.73 451.81 -394.73 451.81 -397.1 451.67 C-399.89 451.65 -402.65 451.78 -405.44 451.94 C-414.12 452.17 -421.06 451.87 -429 448 C-429.59 447.72 -430.18 447.44 -430.78 447.15 C-439.35 443.04 -446.85 438.31 -454 432 C-455.25 430.95 -455.25 430.95 -456.52 429.88 C-462.79 424.48 -467.98 418.58 -473 412 C-473.78 411 -474.56 409.99 -475.36 408.96 C-502.99 372.52 -517.34 324.31 -520 279 C-520.07 277.94 -520.13 276.87 -520.2 275.78 C-523.95 210.58 -510.41 139.41 -465.89 89.29 C-451.67 73.61 -434.74 61.68 -416 52 C-415.33 51.65 -414.65 51.3 -413.95 50.94 C-403.02 45.34 -391.88 41.11 -380 38 C-379.2 37.79 -378.4 37.58 -377.58 37.36 C-345.33 29.22 -303.96 31.16 -274.5 47.31 C-263.51 54.22 -254.29 63.93 -246.75 74.44 C-244.47 77.52 -242.68 79.6 -239 81 C-229.23 82.12 -222.55 76.86 -214.81 71.5 C-177.78 46.43 -137.33 32.2 -93 27 C-92.33 24.42 -91.66 21.83 -91 19.25 C-90.71 18.16 -90.71 18.16 -90.42 17.04 C-89.53 13.55 -89 10.62 -89 7 C-94.33 8.86 -99.61 10.82 -104.83 12.98 C-105.69 13.33 -106.55 13.68 -107.44 14.04 C-109.15 14.75 -110.86 15.46 -112.57 16.18 C-120.91 19.6 -129.99 22.54 -139 20 C-139.33 19.34 -139.66 18.68 -140 18 C-139.26 17.91 -138.51 17.82 -137.75 17.73 C-124.16 15.5 -112.32 8.83 -100.21 2.55 C-99.33 2.1 -98.45 1.65 -97.54 1.18 C-96.76 0.78 -95.98 0.37 -95.17 -0.05 C-91.92 -1.47 -89.47 -1.62 -86 -1 C-83.31 1.09 -82.14 2.29 -81.47 5.66 C-81.55 12.91 -82.78 18.5 -86 25 C-84.97 23.84 -84.97 23.84 -83.91 22.66 C-63.7 0.16 -29.88 -16.52 0 0 Z M-41.11 436.98 C-43.09 438.97 -45.06 440.97 -47 443 C-46.34 440.03 -45.68 437.06 -45 434 C-54.34 441.59 -61.31 450.48 -68 460.44 C-68.68 461.43 -69.36 462.42 -70.06 463.44 C-73.53 467.86 -73.53 467.86 -75 473 C-66.18 473.78 -57.96 470.3 -51 465 C-50.2 464.46 -49.39 463.93 -48.56 463.38 C-40.01 455.45 -33.8 443.7 -33 432 C-36.17 432 -38.96 434.96 -41.11 436.98 Z M91.78 435.82 C89.76 437.86 87.8 439.92 85.9 442.06 C85.34 442.7 84.77 443.33 84.19 443.99 C82.68 446.55 82.8 447.98 83.31 450.88 C84.19 452.59 85.09 454.3 86 456 C86.89 458.66 87.73 461.3 88.5 464 C88.82 465.09 88.82 465.09 89.15 466.19 C95.39 487.74 100.27 520.18 93 542 C92.9 540.64 92.9 540.64 92.79 539.26 C90.38 494.09 90.38 494.09 76 452 C72.62 453.26 69.71 454.73 66.69 456.69 C46.34 468.99 23.05 473.42 0.06 478.11 C-14.69 481.15 -26.11 485.17 -37.75 495 C-52.22 506.73 -68 508.16 -85.88 506.31 C-91.33 505.86 -94.35 506.09 -99 509 C-106.1 515.74 -111.96 523.6 -117.88 531.38 C-123.02 538.12 -128.46 544.58 -134 551 C-134.64 551.74 -135.28 552.48 -135.93 553.24 C-137.61 555.17 -139.3 557.09 -141 559 C-141.64 559.73 -142.28 560.45 -142.94 561.2 C-148.46 567.4 -154.18 573.34 -160.06 579.19 C-160.91 580.04 -161.76 580.89 -162.63 581.76 C-167.59 586.72 -172.64 591.48 -178 596 C-178.6 596.51 -179.21 597.02 -179.83 597.55 C-188.97 605.2 -198.42 612.33 -208.14 619.22 C-208.8 619.71 -209.47 620.19 -210.16 620.69 C-211.74 621.81 -213.37 622.85 -215.02 623.87 C-217.35 625.95 -217.35 625.95 -217.43 629.53 C-217.08 634.9 -216.09 640.2 -215.19 645.5 C-213.53 655.73 -212.28 665.94 -211.31 676.25 C-211.19 677.49 -211.07 678.73 -210.95 680.01 C-208.89 702.85 -208.8 725.71 -208.81 748.62 C-208.81 749.42 -208.81 750.21 -208.81 751.03 C-208.82 777.4 -209.25 803.68 -211 830 C-211.11 831.68 -211.22 833.36 -211.32 835.05 C-213.35 865.96 -216.66 895.47 -226.69 924.93 C-227.67 927.81 -228.65 930.68 -229.62 933.56 C-229.87 934.28 -230.11 934.99 -230.36 935.73 C-234.18 947 -237.31 958.2 -239 970 C-239.28 971.88 -239.28 971.88 -239.57 973.79 C-240.95 985.28 -242.86 1003.21 -238 1014 C-233.93 1018.04 -229.88 1020.24 -224.56 1022.25 C-223.93 1022.51 -223.3 1022.76 -222.65 1023.02 C-218.4 1024.68 -214.5 1025.51 -210 1026 C-209.06 1022.87 -208.98 1020.25 -209.12 1017 C-209.19 1006.84 -206.23 998.57 -201 990 C-200.66 989.28 -200.31 988.56 -199.96 987.82 C-198.68 985.39 -197.54 984.99 -195 984 C-194.09 983.61 -193.19 983.22 -192.25 982.81 C-187.32 981.58 -183.39 981.74 -178.92 984.09 C-169.92 990.28 -166.22 998.58 -164 1009 C-165 1008 -165 1008 -166.31 1005.34 C-169.96 997.98 -173.66 991.25 -181 987 C-185.07 985.79 -188.18 986.05 -191.95 988.02 C-200.22 994.25 -203.45 1005.17 -205 1015 C-205.21 1019.02 -205.19 1022.98 -205 1027 C-178.13 1039.32 -130.54 1033.72 -103.6 1023.82 C-97.99 1021.66 -93.88 1019.7 -90 1015 C-88.18 1010.57 -87.73 1006.77 -87.7 1002 C-87.69 1001.34 -87.69 1000.68 -87.68 1000 C-87.67 997.85 -87.68 995.71 -87.69 993.56 C-87.69 992.82 -87.69 992.08 -87.69 991.32 C-87.75 978.33 -88.81 965.81 -91 953 C-91.23 951.63 -91.47 950.25 -91.7 948.88 C-91.82 948.14 -91.95 947.41 -92.08 946.65 C-92.34 945.11 -92.6 943.56 -92.86 942.02 C-93.51 938.2 -94.16 934.38 -94.84 930.56 C-98.43 910.16 -99.39 889.88 -99.31 869.19 C-99.31 868.02 -99.31 866.86 -99.3 865.66 C-99.19 834.2 -95.48 803.91 -90.69 772.84 C-90.43 771.1 -90.43 771.1 -90.16 769.32 C-89.83 767.14 -89.49 764.97 -89.14 762.79 C-87.04 750.95 -87.04 750.95 -89.69 739.63 C-92.02 736.98 -94.36 734.44 -96.89 731.99 C-97.83 731.06 -98.76 730.14 -99.73 729.19 C-101.2 727.76 -102.67 726.33 -104.14 724.9 C-110.92 718.29 -117.15 711.45 -123 704 C-123.49 703.39 -123.97 702.79 -124.47 702.16 C-148.36 672.31 -165.64 637.75 -176 601 C-175.34 601 -174.68 601 -174 601 C-173.5 602.89 -173.5 602.89 -173 604.81 C-160.12 647.55 -132.14 684.29 -102.19 716.5 C-101.29 717.47 -101.29 717.47 -100.38 718.46 C-86.99 732.71 -70.06 746.31 -52 754 C-51.01 753.67 -50.02 753.34 -49 753 C-49.01 752.44 -49.03 751.88 -49.04 751.3 C-49.37 736.19 -49.68 721.09 -49.95 705.98 C-49.99 703.35 -50.04 700.72 -50.1 698.09 C-50.66 668.06 -46.68 635.49 -29 610 C-28.34 609.67 -27.68 609.34 -27 609 C-27.51 610.07 -28.02 611.13 -28.54 612.23 C-41.8 640.68 -46.09 668.93 -44.45 700.16 C-44.33 702.62 -44.21 705.09 -44.09 707.55 C-44.02 708.86 -43.96 710.16 -43.89 711.51 C-42.78 733.99 -41.88 756.47 -41.24 778.96 C-41.21 780.03 -41.18 781.11 -41.14 782.21 C-40.86 791.91 -40.58 801.61 -40.34 811.31 C-42.51 870.81 -42.51 870.81 -21.38 922.81 C-9.98 933.31 4.2 936.38 19.41 936.21 C34.05 935.35 47.46 930.4 60 923 C60.33 923.33 60.66 923.66 61 924 C44.61 936.43 26.25 944.09 5.48 941.57 C-11.66 938.7 -22.39 930.34 -33 917 C-33.06 917.76 -33.13 918.52 -33.2 919.3 C-34.51 930.98 -38.18 941.7 -41.88 952.81 C-48.53 972.93 -53.86 991.76 -54.69 1013.06 C-54.75 1014.32 -54.81 1015.57 -54.87 1016.86 C-54.94 1018.68 -54.94 1018.68 -55.01 1020.54 C-55.06 1021.63 -55.1 1022.73 -55.15 1023.86 C-54.94 1028.21 -54.38 1031.65 -51.18 1034.77 C-48.83 1036.1 -46.65 1036.92 -44.06 1037.68 C-43.1 1037.97 -42.13 1038.26 -41.13 1038.55 C-40.1 1038.84 -39.06 1039.14 -38 1039.44 C-36.93 1039.74 -35.86 1040.05 -34.76 1040.37 C-28.07 1042.24 -21.37 1043.93 -14.56 1045.31 C-13.85 1045.46 -13.13 1045.61 -12.39 1045.76 C2.84 1048.66 17.91 1049.37 33.38 1049.31 C34.34 1049.31 35.3 1049.31 36.29 1049.31 C81.61 1049.62 81.61 1049.62 122 1032 C125.74 1026.45 125.46 1021.08 125.38 1014.62 C125.36 1013.52 125.35 1012.42 125.34 1011.28 C124.69 975.75 113.33 942.96 101.25 909.94 C92.82 886.78 87.44 863.52 85 839 C83.3 841.99 82.68 844.39 82.4 847.81 C82.32 848.72 82.24 849.63 82.16 850.57 C82.09 851.52 82.01 852.46 81.94 853.44 C81.78 855.31 81.62 857.19 81.46 859.06 C81.4 859.89 81.33 860.71 81.27 861.57 C80.99 864.09 80.53 866.52 80 869 C79.68 845.82 79.37 822.96 83 800 C83.17 798.89 83.33 797.78 83.51 796.63 C87.78 768.8 94.85 741.46 101.33 714.08 C103.56 704.62 105.78 695.16 107.94 685.69 C108.11 684.91 108.29 684.13 108.47 683.33 C112.61 665.01 115.86 646.52 119 628 C119.24 637.07 118.56 645.88 117.44 654.88 C117.35 655.58 117.27 656.28 117.18 657.01 C113.3 688.29 106.45 719.17 100 750 C114.31 747.82 126.09 737.24 134.75 726.13 C151.07 703.43 162.55 676.68 167 649 C167.16 655.36 166.68 661.1 165.38 667.31 C165.2 668.17 165.02 669.03 164.83 669.92 C159.17 696.27 149.6 724.4 128.27 742.29 C125.36 745.77 125.31 748.42 125.5 752.75 C125.53 753.91 125.53 753.91 125.56 755.1 C126.7 786.67 132.49 825.35 154 850 C154.52 850.63 155.04 851.25 155.58 851.9 C163.35 860.54 174.2 864.24 185.5 865.21 C193.85 865.53 201.88 863.71 210 862 C208.48 862.8 206.96 863.59 205.44 864.38 C204.59 864.82 203.74 865.26 202.87 865.71 C196.52 868.56 190.74 869.39 183.88 869.38 C183.05 869.38 182.22 869.38 181.36 869.38 C174.01 869.25 167.86 867.7 161 865 C160.01 864.67 159.02 864.34 158 864 C157.92 864.82 157.92 864.82 157.83 865.67 C156.27 880.59 152.89 894.14 148.06 908.31 C146.81 912.03 145.58 915.76 144.35 919.49 C144.05 920.38 143.76 921.28 143.45 922.2 C136.17 944.59 134.6 966.57 134 990 C138.8 993.06 143.18 994.28 148.69 995.5 C150.13 995.82 150.13 995.82 151.59 996.15 C174.38 1000.99 197.03 1002.06 220.19 1000.12 C221.14 1000.05 222.09 999.97 223.07 999.89 C224.39 999.76 224.39 999.76 225.73 999.63 C226.51 999.56 227.29 999.49 228.09 999.41 C230.23 999.13 230.23 999.13 232 997 C232.57 988.23 228.36 978.71 223 972 C217.16 966.19 212.55 962.72 204.06 962.69 C197.76 962.81 194.21 964.06 189.44 968.25 C188.63 969.16 187.83 970.07 187 971 C186.3 971.67 186.3 971.67 185.58 972.35 C180.9 977.48 181.64 983.24 181.92 989.77 C182 993 182 993 181 995 C180.85 993.98 180.71 992.97 180.55 991.92 C178.96 981.8 176.88 971.09 169 963.81 C165.72 961.83 163.84 961 160 961 C155.2 962.26 152.9 963.63 150.12 967.75 C147.99 971.52 147.27 974.7 147 979 C146.34 979 145.68 979 145 979 C146.02 970.73 146.96 965.34 152.69 959.19 C157 956.98 161.53 956.27 166.22 957.66 C174.39 961.43 177.3 968.2 181 976 C183 973.45 184.57 970.93 186.06 968.06 C189.26 962.99 193.3 960.68 199 959 C206.73 957.95 213.62 958.27 220 963 C228.12 969.23 232.65 978.17 234.12 988.19 C234.48 991.12 234.77 994.06 235 997 C239.74 996.46 243.78 995.53 248.19 993.69 C249.19 993.28 250.2 992.87 251.23 992.45 C254.28 990.85 256 989.81 258 987 C258.58 983.93 258.89 981.16 259.06 978.06 C259.13 977.08 259.2 976.1 259.27 975.09 C259.43 972.76 259.58 970.43 259.73 968.1 C259.97 964.34 260.27 960.58 260.58 956.82 C265.92 892.54 265.92 892.54 256.14 829.28 C254.46 823.28 253.68 817.19 253 811 C252.67 811 252.34 811 252 811 C251.34 814.63 250.68 818.26 250 822 C249.67 811.77 249.34 801.54 249 791 C248.67 791 248.34 791 248 791 C247.83 791.75 247.66 792.5 247.48 793.28 C246.7 796.71 245.91 800.13 245.12 803.56 C244.86 804.74 244.59 805.93 244.31 807.14 C243.01 812.81 241.68 818.43 240 824 C240.57 815.27 241.48 806.64 242.65 797.97 C242.94 795.87 243.22 793.76 243.49 791.65 C243.89 788.65 244.29 785.65 244.69 782.64 C249.64 745.66 249.64 745.66 253.66 708.56 C253.97 705.27 254.32 701.99 254.68 698.7 C258.01 664.88 258.5 628.59 253 595 C252.8 593.77 252.6 592.54 252.4 591.27 C244.6 544.57 229.48 498.6 200 461 C195.92 461.47 192.56 461.85 189.06 464.06 C187.55 465.02 187.55 465.02 186 466 C186.6 469.73 187.69 472.68 189.38 476.06 C194.18 486.45 195.51 496.64 196 508 C195.46 506.65 194.92 505.29 194.38 503.94 C193.83 502.57 193.83 502.57 193.27 501.18 C192.36 498.91 191.48 496.63 190.61 494.35 C186.55 482.96 186.55 482.96 180 473 C176.05 471.54 173.75 472.17 170 473.88 C160.99 477.9 150.82 478.58 141.38 475.5 C122.67 467.77 110.01 449.62 99.46 433.13 C98.74 432.08 98.74 432.08 98 431 C95.65 431 93.36 434.29 91.78 435.82 Z M258 576 C258.45 579.36 258.91 582.71 259.38 586.06 C259.5 587.01 259.63 587.95 259.76 588.92 C260.46 597.53 260.46 597.53 264 605 C266.14 605.21 268.29 605.42 270.44 605.59 C291.41 607.29 311.26 612.62 326.31 628.19 C336.12 639.96 338.33 654.29 339.66 669.03 C340.51 678.21 341.71 685.91 348.69 692.56 C352.77 695.1 356.22 695.59 361 695 C363.01 693.67 363.01 693.67 364 692 C362.66 687.97 360.51 687.25 357 685 C352.66 681.39 351.95 676.36 351 671 C350.53 664.16 350.96 657.39 351.47 650.57 C352.54 635.67 350.11 623.32 340.84 611.17 C326.83 595.94 305.81 591.71 286.59 586.67 C276.61 584 267.24 580.66 258 576 Z M-345 582 C-345 582.99 -345 583.98 -345 585 C-343.73 585.65 -342.46 586.29 -341.19 586.94 C-340.48 587.3 -339.77 587.66 -339.04 588.03 C-336.88 589.11 -336.88 589.11 -334 590 C-330.72 588.48 -330.72 588.48 -328 586 C-327.08 583.46 -327.08 583.46 -328 581 C-330.62 578.76 -332.54 578.07 -335.94 577.56 C-339.84 578.12 -341.99 579.49 -345 582 Z M-80 747 C-84.7 751.7 -83.36 768.61 -83.4 775.2 C-83.24 784.33 -81.01 792.77 -78.58 801.52 C-77.25 806.33 -76.02 811.16 -74.77 815.99 C-74.53 816.94 -74.28 817.9 -74.03 818.88 C-69.17 837.88 -66.5 857.09 -65.81 876.69 C-65.45 884.59 -64.59 888.25 -59.11 893.98 C-54.94 897.56 -50.88 900.46 -46 903 C-52.31 902.15 -56.45 900.4 -61.37 896.34 C-62.97 894.92 -62.97 894.92 -65 894 C-63.65 899.99 -60.57 904.05 -56 908 C-51.22 910.86 -46.29 913.24 -41 915 C-48.86 915.5 -54.92 914.49 -61.05 909.25 C-62.77 907.55 -64.4 905.8 -66 904 C-66.66 903.34 -67.32 902.68 -68 902 C-71.69 909.65 -74.6 917.34 -77.12 925.44 C-77.46 926.48 -77.79 927.52 -78.14 928.6 C-83.18 943.05 -83.18 943.05 -83 958 C-79.82 958.28 -79.82 958.28 -77 956 C-73.56 955.5 -73.56 955.5 -70 956 C-66.07 960.25 -64.6 965.54 -63 971 C-61.69 969.03 -60.41 967.03 -59.19 965 C-57 962 -57 962 -54.55 960.73 C-51.1 958.39 -50.43 956.12 -48.96 952.24 C-48.7 951.58 -48.45 950.92 -48.19 950.23 C-47.65 948.83 -47.12 947.43 -46.61 946.02 C-45.82 943.9 -45.01 941.78 -44.2 939.66 C-37 920.77 -37.61 905.36 -40.88 885.69 C-45.05 860.49 -46.32 835.33 -47.01 809.84 C-47.16 804.27 -47.32 798.71 -47.48 793.15 C-47.53 791.24 -47.58 789.34 -47.63 787.44 C-47.73 783.96 -47.86 780.48 -48 777 C-48.04 775.19 -48.04 775.19 -48.08 773.33 C-48.15 771.59 -48.15 771.59 -48.22 769.8 C-48.25 768.76 -48.28 767.71 -48.31 766.64 C-48.76 763.79 -48.76 763.79 -51.41 762.19 C-53.74 761.12 -56.02 760.2 -58.44 759.38 C-64.51 757.04 -69.71 753.52 -75.09 749.93 C-77.79 748.05 -77.79 748.05 -80 747 Z M113.44 752.81 C109.79 754.69 106.4 756.25 102.44 757.31 C99.02 758.58 99.02 758.58 98.1 760.67 C96.03 767.4 94.65 774.2 93.38 781.12 C93.16 782.27 92.94 783.41 92.72 784.58 C84.53 828.09 93.88 871.11 109.23 911.96 C110.95 916.54 112.65 921.12 114.35 925.7 C115.8 929.59 117.25 933.48 118.71 937.36 C118.98 938.08 119.25 938.81 119.53 939.55 C120.03 940.9 120.54 942.24 121.05 943.59 C122.58 947.68 123.85 951.79 125 956 C125.33 956 125.66 956 126 956 C127.13 950.65 128.25 945.3 129.36 939.94 C129.74 938.12 130.12 936.31 130.51 934.49 C133.54 920.36 133.54 920.36 135 906 C135.07 904.76 135.13 903.51 135.2 902.23 C135.53 878.14 129.78 855.62 121.91 833.02 C120.09 827.66 119.18 822.69 119 817 C116.63 819.37 115.72 821.57 114.38 824.62 C113.93 825.63 113.48 826.63 113.02 827.66 C112.69 828.43 112.35 829.21 112 830 C112 826.67 112.58 823.79 113.24 820.52 C113.51 819.21 113.77 817.89 114.03 816.58 C114.17 815.89 114.31 815.21 114.45 814.5 C118.79 792.75 120.29 772.17 120 750 C117.79 750 115.32 751.84 113.44 752.81 Z M-87 799 C-88.58 803.33 -89.48 807.43 -90.06 812 C-90.22 813.18 -90.37 814.35 -90.54 815.56 C-91.72 826.07 -92.16 836.58 -92.17 847.14 C-92.17 848.35 -92.17 849.55 -92.18 850.79 C-92.18 853.33 -92.19 855.87 -92.19 858.41 C-92.19 862.2 -92.21 865.99 -92.22 869.78 C-92.79 900.65 -92.79 900.65 -88 931 C-87.34 931.33 -86.68 931.66 -86 932 C-85.59 930.84 -85.18 929.67 -84.75 928.48 C-84.17 926.86 -83.58 925.24 -83 923.62 C-82.69 922.77 -82.38 921.92 -82.07 921.04 C-80.45 916.65 -78.75 912.35 -76.75 908.12 C-76.21 906.95 -76.21 906.95 -75.65 905.76 C-74.95 904.3 -74.23 902.85 -73.49 901.4 C-70.68 895.54 -70.61 890.43 -71 884 C-71.04 883.19 -71.08 882.38 -71.12 881.55 C-72.78 853.46 -79.03 826.15 -86 799 C-86.33 799 -86.66 799 -87 799 Z M124 803 C122.23 816.92 123.51 827.81 129.38 840.69 C138.25 860.23 140.87 880.83 143 902 C145.3 898.55 146.63 894.98 148.06 891.12 C148.33 890.42 148.6 889.71 148.88 888.98 C152.39 879.57 153.98 868.98 152 859 C149.93 855.41 147.62 852.87 144.73 849.92 C133.31 837.71 128.78 818.84 125 803 C124.67 803 124.34 803 124 803 Z M-75 959 C-79.8 964.89 -80.18 967.79 -80.19 975.19 C-80.2 976.03 -80.21 976.86 -80.22 977.73 C-80.24 982.86 -79.87 987.19 -78 992 C-72.31 995.71 -67.64 996.04 -61 996 C-60.35 992.83 -59.71 989.67 -59.06 986.5 C-58.88 985.61 -58.7 984.73 -58.51 983.81 C-57.45 978.55 -56.59 973.34 -56 968 C-58.37 970.12 -59.49 971.75 -60.39 974.79 C-60.6 975.51 -60.82 976.22 -61.04 976.95 C-61.25 977.69 -61.47 978.43 -61.69 979.19 C-61.91 979.94 -62.14 980.69 -62.37 981.46 C-62.92 983.3 -63.46 985.15 -64 987 C-64.17 985.72 -64.34 984.44 -64.52 983.12 C-64.76 981.42 -65 979.71 -65.25 978 C-65.36 977.16 -65.47 976.32 -65.58 975.46 C-66.38 970.01 -67.46 964.4 -71 960 C-73.06 959.24 -73.06 959.24 -75 959 Z M-56 966 C-55 968 -55 968 -55 968 Z " fill="#000000" transform="translate(556,131)"/>
<path d="M0 0 C13.54 10.13 22.47 23.85 25.53 40.51 C27.57 55.68 25.91 73.33 16.57 85.93 C15.43 87.33 14.22 88.67 13 90 C12.67 89.34 12.34 88.68 12 88 C13.24 85.27 14.54 82.65 15.94 80 C16.7 78.54 17.46 77.09 18.21 75.62 C18.56 74.98 18.9 74.33 19.25 73.66 C20.14 72 20.14 72 20 70 C19.61 70.56 19.22 71.11 18.82 71.69 C7 87.81 -8.89 93.21 -27.8 97.28 C-38.33 99.7 -46.7 103.05 -52.84 112.27 C-54 114 -54 114 -56 116 C-55.89 109.7 -54.52 106.46 -50.17 101.89 C-45.34 97.69 -39.71 94.81 -34 92 C-34.52 91.64 -35.04 91.27 -35.57 90.9 C-44.4 84.53 -49.62 77.52 -51.61 66.69 C-51.74 65.8 -51.87 64.91 -52 64 C-54.61 78.61 -55.99 93.2 -57 108 C-62.44 102.56 -60.25 90.95 -60.25 83.62 C-60.23 72.49 -59.76 61.82 -57 51 C-56.7 49.8 -56.7 49.8 -56.4 48.58 C-51.8 30.62 -44.79 11.08 -29 0 C-19.07 -5.44 -9.89 -5.64 0 0 Z M-27 13 C-27.73 13.61 -28.46 14.22 -29.21 14.84 C-37.79 22.68 -45.17 34.67 -48 46 C-47.67 46.99 -47.34 47.98 -47 49 C-46.49 48.02 -46.49 48.02 -45.97 47.02 C-41.63 39.2 -36.68 33.8 -28 31 C-18.84 30.01 -10.58 30.26 -3 36 C4.47 42.73 8.13 49.67 9.01 59.63 C8.99 63.88 7.99 67.89 7 72 C6.66 73.67 6.33 75.33 6 77 C15.05 69.93 20.5 62.39 23 51 C23.58 44.99 22.13 41.23 19.38 36.06 C18.83 35.01 18.83 35.01 18.27 33.93 C15.61 28.91 12.79 24.25 9 20 C8.47 19.39 7.94 18.78 7.39 18.15 C1.58 11.88 -4.34 7.78 -13.06 7.38 C-18.98 7.67 -22.55 9.17 -27 13 Z M-39.8 45.98 C-41.24 47.98 -41.24 47.98 -40.88 50.56 C-39.91 53.26 -39.27 54.27 -37 56 C-31.51 56.89 -25.81 56.9 -20.88 54.12 C-18.04 52.14 -18.04 52.14 -16 50 C-15.5 45.9 -15.5 45.9 -17.27 42.37 C-23.72 37.28 -34.67 40.32 -39.8 45.98 Z M22 64 C23 66 23 66 23 66 Z " fill="#000000" transform="translate(608,370)"/>
<path d="M0 0 C13.91 7.79 21.16 24.93 26 39.44 C26.34 40.44 26.34 40.44 26.69 41.46 C31.34 55.65 32.5 70.26 33.72 85.06 C33.97 88.13 34.27 91.19 34.57 94.26 C35.01 99.12 35.15 103.93 35.12 108.81 C35.13 109.58 35.13 110.35 35.14 111.14 C35.13 115.04 34.96 118.63 34 122.44 C33.34 122.44 32.68 122.44 32 122.44 C31.34 116.17 30.68 109.9 30 103.44 C28.02 105.75 26.04 108.06 24 110.44 C18.67 114.44 18.67 114.44 16 114.44 C16 115.1 16 115.76 16 116.44 C16.73 116.55 17.46 116.66 18.21 116.77 C24.04 118.17 28.83 121.68 32.12 126.62 C33 129.44 33 129.44 32 132.44 C31.53 131.72 31.05 130.99 30.56 130.25 C24.2 123.26 14.86 120.39 5.82 118.58 C-7.36 115.92 -18.29 112.38 -27 101.44 C-28.86 98.52 -30.5 95.55 -32 92.44 C-32.52 99.13 -30.96 104.36 -28.78 110.68 C-28 113.44 -28 113.44 -29 115.44 C-39.16 100.86 -36.66 83.24 -34 66.44 C-31.39 54.97 -25.7 42.04 -15.94 34.94 C-10.07 31.35 -4.57 29.69 2.29 30.81 C10.74 33.13 16.05 38.52 20.5 45.88 C21.35 47.39 22.19 48.91 23 50.44 C23 40.35 15.58 28.53 9 21.44 C4.17 17.38 -1.13 14.68 -7 12.44 C-7 12.11 -7 11.78 -7 11.44 C-0.41 10.74 3.49 12.94 9 16.44 C6.27 10.97 3.36 6.59 -2 3.44 C-6.67 1.91 -9.85 1.9 -14.31 4 C-17.25 6.66 -19 9.05 -21 12.44 C-22 9.44 -22 9.44 -20.5 6 C-15.83 -1.57 -8.12 -3.61 0 0 Z M-19.12 49.31 C-27.31 59.15 -32.11 70.61 -31 83.44 C-29.34 90.05 -25.98 96.69 -21 101.44 C-20.01 101.44 -19.02 101.44 -18 101.44 C-18.31 100.65 -18.31 100.65 -18.62 99.86 C-21.87 90.97 -23.53 81.49 -20 72.44 C-16.34 65.53 -11.46 59.38 -4 56.44 C3.18 55.84 10.22 55.86 17 58.44 C15.25 52.22 10.52 47.49 5.62 43.5 C-4.07 39.57 -11.93 41.89 -19.12 49.31 Z M25 54.44 C26 56.44 26 56.44 26 56.44 Z M-15 72.44 C-15.42 74.85 -15.42 74.85 -15 77.44 C-12.13 80.17 -10.05 80.87 -6.12 80.88 C-1.39 80.73 1.44 79.72 5 76.44 C6.36 73.45 6.07 72.64 5 69.44 C-1.85 64.87 -9.43 66.87 -15 72.44 Z " fill="#000000" transform="translate(346,354.5625)"/>
<path d="M0 0 C6.06 4.97 11.32 11.34 14.19 18.69 C13.86 19.35 13.53 20.01 13.19 20.69 C12.8 20.26 12.41 19.84 12.01 19.4 C-0.5 6.29 -16.86 -1.98 -35.07 -2.63 C-46.43 -2.82 -57.65 -2.59 -68.81 -0.31 C-67.13 -5.37 -62.37 -6.97 -57.81 -9.31 C-39.41 -18.06 -15.54 -11.36 0 0 Z " fill="#000000" transform="translate(607.8125,281.3125)"/>
<path d="M0 0 C-2.52 2.52 -4.14 2.63 -7.61 3.33 C-8.75 3.57 -9.89 3.81 -11.07 4.05 C-12.28 4.3 -13.5 4.55 -14.75 4.81 C-38.04 9.83 -51.83 16.81 -65.91 36.6 C-66.27 37.06 -66.63 37.52 -67 38 C-67.33 38 -67.66 38 -68 38 C-67.55 28.68 -64.37 20.7 -57.97 13.79 C-49.68 6.28 -40.67 1.36 -30 -2 C-29.39 -2.2 -28.77 -2.4 -28.14 -2.61 C-18.84 -4.31 -8.65 -3.78 0 0 Z " fill="#000000" transform="translate(379,284)"/>
<path d="M0 0 C0.99 0.5 0.99 0.5 2 1 C-2.96 17.71 -10.62 31.04 -26 40 C-38.39 46.49 -51.39 48.59 -65 45 C-70.31 43.14 -75.31 41.12 -80 38 C-79.67 37.34 -79.34 36.68 -79 36 C-77.36 36.43 -77.36 36.43 -75.7 36.88 C-59.81 40.87 -44.41 42.95 -29.58 34.64 C-16.57 26.51 -7.69 13 0 0 Z " fill="#000000" transform="translate(504,735)"/>
<path d="M0 0 C7.75 4.66 12.15 12.41 14.43 21.01 C14.72 23.97 14.75 26.91 14.74 29.88 C14.75 30.65 14.77 31.41 14.79 32.2 C14.79 37.77 13.63 41.89 11.43 47.01 C11.1 47.01 10.77 47.01 10.43 47.01 C10.41 46.09 10.41 46.09 10.4 45.16 C10.33 25.29 10.33 25.29 0.99 8.35 C-2.57 5.3 -5.78 4.55 -10.49 4.7 C-16.01 5.51 -19.42 8.5 -22.76 12.7 C-28.4 20.85 -30.61 29.36 -32.57 39.01 C-33.23 39.01 -33.89 39.01 -34.57 39.01 C-35.15 26.66 -33.03 17.06 -25.57 7.01 C-18.52 -0.38 -10.12 -3.9 0 0 Z " fill="#000000" transform="translate(585.57421875,1119.9921875)"/>
<path d="M0 0 C-3.87 1.29 -4.93 0.41 -8.62 -1.19 C-13.98 -3.34 -19.25 -4.95 -24.88 -6.25 C-25.58 -6.41 -26.28 -6.58 -27 -6.74 C-46.59 -11.13 -66.66 -9.94 -86 -5 C-87.52 -4.62 -89.04 -4.24 -90.55 -3.87 C-91.69 -3.58 -92.83 -3.29 -94 -3 C-89.49 -8 -84.24 -9.78 -78 -12 C-76.63 -12.49 -76.63 -12.49 -75.24 -12.98 C-49.44 -20.45 -22.09 -13.94 0 0 Z " fill="#000000" transform="translate(489,483)"/>
<path d="M0 0 C6.15 5.96 8.98 11.39 9.69 19.88 C7.18 18.62 7 17.7 5.88 15.19 C2.78 8.86 -0.78 4.47 -7.27 1.57 C-11.88 0 -15.09 0.29 -19.44 2.38 C-28.84 10.55 -29.69 22.09 -31.31 33.88 C-31.97 33.55 -32.63 33.21 -33.31 32.88 C-35.86 24.29 -34.12 14.01 -30.48 6 C-27.29 0.21 -23.36 -3.66 -17.06 -5.94 C-9.98 -6.42 -5.41 -4.63 0 0 Z " fill="#000000" transform="translate(427.3125,1125.125)"/>
<path d="M0 0 C2.45 1.22 4.9 2.46 7.35 3.69 C8.59 4.32 9.82 4.94 11.06 5.56 C11.69 5.88 12.31 6.2 12.96 6.52 C22.99 11.57 35.76 11.79 46.5 8.38 C51.53 6.41 56.19 3.84 60.82 1.07 C61.54 0.72 62.26 0.37 63 0 C63.99 0.49 63.99 0.49 65 1 C58.19 10.16 48.03 14.83 37 17 C25.62 18.16 15.09 16.21 6 9 C3.23 6.26 1.25 3.75 0 0 Z " fill="#000000" transform="translate(537,1033)"/>
<path d="M0 0 C3.23 2.47 6.19 5.06 9 8 C8.34 8.33 7.68 8.66 7 9 C5.25 8.05 3.55 7.01 1.88 5.94 C-20.88 -7.69 -46.48 -9.99 -72 -4 C-72 -4.66 -72 -5.32 -72 -6 C-70.11 -6.82 -68.21 -7.63 -66.31 -8.44 C-65.26 -8.89 -64.2 -9.34 -63.11 -9.81 C-42.85 -17.56 -17.7 -11.09 0 0 Z " fill="#000000" transform="translate(469,507)"/>
<path d="M0 0 C0 0.66 0 1.32 0 2 C-1.42 2.92 -2.85 3.83 -4.28 4.74 C-10.26 9.11 -13.97 15.26 -15.54 22.47 C-16.21 27.59 -16.37 32.72 -16.56 37.88 C-16.61 38.94 -16.65 40.01 -16.69 41.12 C-16.8 43.74 -16.9 46.37 -17 49 C-22.12 44.36 -23.51 39.23 -24.29 32.48 C-24.64 22.49 -21.71 14.38 -15 7 C-11.1 3.21 -5.61 0 0 0 Z " fill="#000000" transform="translate(535,1118)"/>
<path d="M0 0 C0.99 1.02 0.99 1.02 2 2.06 C3 3.04 4 4.02 5 5 C5.82 5.83 5.82 5.83 6.66 6.68 C19.51 18.93 38.22 21.59 55 25 C55 25.33 55 25.66 55 26 C36.95 26.64 21.2 26.12 6 15 C3.46 12.6 1.57 10.15 0 7 C-0.04 4.67 -0.04 2.33 0 0 Z " fill="#000000" transform="translate(341,1025)"/>
<path d="M0 0 C14.6 -0.68 27.4 3.29 38.43 13.28 C41.4 16.54 43.72 20.24 46 24 C42.74 22.53 39.87 20.6 36.93 18.57 C26.38 11.33 16.21 5.97 3.74 2.86 C2.83 2.58 1.93 2.29 1 2 C0.67 1.34 0.34 0.68 0 0 Z " fill="#000000" transform="translate(360,929)"/>
<path d="M0 0 C1.63 0.01 1.63 0.01 3.29 0.03 C4.12 0.04 4.96 0.05 5.81 0.06 C5.48 0.72 5.15 1.38 4.81 2.06 C2.88 2.48 2.88 2.48 0.38 2.81 C-9.39 4.63 -16.45 10.15 -22.19 18.06 C-27.54 25.86 -31.32 34.47 -35.19 43.06 C-37.33 37.6 -34.09 32.02 -32 26.91 C-27.01 15.51 -20.25 6.88 -9.19 1.06 C-5.9 -0.03 -3.45 -0.04 0 0 Z " fill="#000000" transform="translate(584.1875,347.9375)"/>
<path d="M0 0 C5.24 3.07 10.8 7.66 12.75 13.5 C9.75 12.5 9.75 12.5 8.06 10.25 C3.4 4.71 -2.24 1.9 -9.38 1.19 C-18.82 1.95 -26.06 6.45 -32.25 13.5 C-37.16 20.41 -41.06 27.66 -44.25 35.5 C-46.09 29.97 -42.64 24.55 -40.25 19.5 C-31.86 5.64 -17.38 -7.65 0 0 Z " fill="#000000" transform="translate(593.25,336.5)"/>
<path d="M0 0 C0.52 0.18 1.04 0.36 1.58 0.55 C4.05 1.39 6.52 2.19 9 3 C9.81 3.29 10.62 3.57 11.45 3.87 C23.58 7.77 36.71 6.65 49 4 C43.8 9.8 35.94 11.72 28.44 12.25 C18.74 12.07 9.7 8.89 2 3 C1.34 2.01 0.68 1.02 0 0 Z " fill="#000000" transform="translate(365,1024)"/>
<path d="M0 0 C0.7 0 1.41 0.01 2.13 0.01 C11.25 0.21 18.33 3.06 26.25 7.31 C26.25 7.97 26.25 8.63 26.25 9.31 C25.69 9.19 25.14 9.07 24.56 8.95 C10.61 5.98 -2.5 4.79 -16.75 5.31 C-12.1 0.33 -6.56 -0.05 0 0 Z " fill="#000000" transform="translate(563.75,950.6875)"/>
<path d="M0 0 C1 2 1 2 0.22 4.55 C-0.16 5.65 -0.54 6.75 -0.94 7.88 C-3.76 17.2 -3.35 26.34 -3 36 C-3.66 36 -4.32 36 -5 36 C-8.61 28.71 -10.25 22.13 -9 14 C-7.11 8.55 -4.53 3.69 0 0 Z " fill="#000000" transform="translate(334,1113)"/>
<path d="M0 0 C6.72 5.11 11.9 10.95 13.73 19.44 C14.38 25.59 14.13 31.82 14 38 C11.79 34.68 11.18 32.12 10.25 28.25 C8.22 20.17 5.24 12.67 2 5 C1.33 3.33 0.66 1.67 0 0 Z " fill="#000000" transform="translate(766,168)"/>
<path d="M0 0 C0.66 0.33 1.32 0.66 2 1 C-10.57 9.5 -24.36 15.98 -40 14 C-40.99 13.34 -41.98 12.68 -43 12 C-41.26 11.78 -41.26 11.78 -39.48 11.55 C-26.75 9.82 -14.12 7.19 -2.61 1.25 C-1.32 0.63 -1.32 0.63 0 0 Z " fill="#000000" transform="translate(598,1048)"/>
<path d="M0 0 C0.66 0.33 1.32 0.66 2 1 C1.69 1.5 1.37 2 1.05 2.52 C-3.81 11.11 -5.24 20.41 -7 30 C-7.66 29.67 -8.32 29.34 -9 29 C-9.72 10.25 -9.72 10.25 -3.38 3 C-2.2 2.01 -2.2 2.01 -1 1 C-0.67 0.67 -0.34 0.34 0 0 Z " fill="#000000" transform="translate(192,185)"/>
<path d="" fill="#000000" transform="translate(0,0)"/>
<path d="" fill="#000000" transform="translate(0,0)"/>
<path d="" fill="#000000" transform="translate(0,0)"/>
</svg>
