<?xml version="1.0" encoding="UTF-8"?>
<!-- Generator: visioncortex VTracer 0.6.3 -->
<svg version="1.1" xmlns="http://www.w3.org/2000/svg" width="1280" height="1280">
<path d="M0 0 C2.64 1.31 5.29 2.58 7.95 3.85 C9.26 4.48 10.58 5.11 11.89 5.74 C16.92 8.16 21.98 10.49 27.13 12.65 C28.93 13.42 28.93 13.42 30.78 14.2 C37.95 16.51 43.38 16.86 50.57 14.21 C51.2 13.99 51.84 13.76 52.49 13.53 C55.68 12.39 58.8 11.14 61.93 9.82 C71.47 5.83 71.47 5.83 75.44 6.78 C79.56 9.02 80.86 10.95 82.32 15.34 C82.91 22.56 81.69 29.12 77.36 34.99 C73.5 39.36 69.5 43.32 64.73 46.69 C61.09 50.94 61.19 55.75 61.56 61.05 C61.76 63.13 61.97 65.2 62.19 67.28 C62.35 68.88 62.35 68.88 62.51 70.51 C62.77 73.12 63.04 75.73 63.32 78.34 C65.47 78.56 65.47 78.56 67.11 76.74 C67.83 76 68.55 75.26 69.28 74.5 C70.08 73.69 70.87 72.88 71.69 72.04 C72.54 71.17 73.38 70.3 74.26 69.4 C80.99 62.58 87.63 56.09 95.32 50.34 C96.18 49.66 97.04 48.98 97.93 48.28 C104.94 42.92 112.3 38.97 120.32 35.34 C121.07 34.98 121.83 34.61 122.61 34.24 C131.46 30.58 143.49 30.79 152.38 34.21 C170.93 43.26 187.85 56.33 203.38 69.8 C207.95 73.75 212.63 77.54 217.32 81.34 C218.16 82.04 219.01 82.74 219.88 83.46 C222.01 85.1 223.97 86.35 226.38 87.53 C227.03 87.85 227.68 88.17 228.35 88.51 C236.94 92.14 246.69 90.2 255.66 89.14 C270.73 87.4 285.68 87.23 300.83 87.33 C304.38 87.35 307.93 87.36 311.48 87.37 C321.56 87.41 331.64 87.45 341.72 87.51 C347.92 87.55 354.12 87.57 360.31 87.59 C362.66 87.59 365.01 87.61 367.35 87.63 C389.03 87.8 403.26 85.95 419.32 70.34 C420.9 68.72 422.49 67.09 424.07 65.46 C439.17 50.24 461.16 32.44 483.46 31.96 C491.78 31.98 498.6 32.92 506.32 36.34 C507.28 36.75 508.24 37.16 509.23 37.59 C522.25 43.63 532.93 52.58 543.32 62.34 C544.73 63.58 546.14 64.81 547.57 66.03 C554.03 71.66 559.75 77.84 565.32 84.34 C566.27 85.44 567.23 86.54 568.18 87.64 C569.23 88.85 570.27 90.07 571.32 91.28 C571.84 91.88 572.37 92.49 572.91 93.11 C575.79 96.45 578.39 99.83 580.88 103.46 C586.94 111.3 598.82 112.3 608.01 114.09 C609.85 114.46 609.85 114.46 611.74 114.84 C618.32 116.17 624.91 117.46 631.5 118.74 C731.19 138.17 731.19 138.17 746.32 159.34 C747.44 161.64 748.38 163.95 749.32 166.34 C762.1 167.36 773.83 162.67 783.57 154.44 C785.73 152.39 787.82 150.29 789.88 148.15 C790.62 147.4 791.35 146.65 792.11 145.88 C796.79 141.06 801.25 136.14 805.38 130.84 C806.76 129.06 808.19 127.33 809.67 125.62 C810.42 124.75 811.17 123.87 811.94 122.96 C812.62 122.19 813.29 121.42 813.98 120.63 C815.54 118.41 815.54 118.41 815.27 115.78 C814.14 112.88 812.85 111.62 810.51 109.59 C805.18 104.5 802.79 99.67 801.76 92.4 C802.16 85.73 805.52 79.79 810.41 75.38 C815.28 71.37 820.78 68.51 826.29 65.48 C840.42 57.57 845.85 47.26 850.19 32.03 C850.59 30.57 850.98 29.12 851.37 27.66 C852.32 24.34 852.32 24.34 853.32 23.34 C856.22 22.73 857.53 22.56 860.32 23.34 C872.62 32.08 879.37 47.57 882.93 61.77 C884.92 74.85 883.3 85.95 875.63 96.9 C874.22 98.73 872.78 100.54 871.32 102.34 C870.6 103.23 869.89 104.12 869.15 105.04 C860.9 114.79 851.61 119.86 838.95 121.68 C836.54 122 836.54 122 833.32 123.34 C831.83 126.16 831.11 128.29 830.32 131.34 C820.82 162.7 801.61 189.77 772.51 205.68 C770.35 206.8 768.17 207.89 765.97 208.93 C763.21 210.07 763.21 210.07 762.32 212.34 C761.71 226 762.71 239.38 764.28 252.93 C767.2 278.38 768.96 303.82 770.14 329.4 C770.26 332.1 770.39 334.79 770.52 337.49 C772.92 386.32 773.61 435.12 773.63 484 C773.63 487.62 773.63 491.24 773.64 494.85 C773.68 524.1 773.52 553.32 772.39 582.55 C772.35 583.62 772.31 584.68 772.26 585.78 C768.98 668.56 768.98 668.56 755.25 682.88 C745.21 691.3 733.03 695.78 720.32 698.34 C719.62 698.48 718.93 698.62 718.21 698.77 C703.74 701.65 689.53 702.53 674.79 702.52 C672.28 702.53 669.78 702.55 667.27 702.56 C626.7 702.71 626.7 702.71 616.32 693.34 C614.25 690.16 612.71 686.86 611.76 683.18 C610.84 679.78 610.22 677.91 607.15 675.98 C599.99 672.99 592.77 672.28 585.06 671.91 C583.68 671.84 582.29 671.76 580.91 671.69 C578.78 671.57 576.65 671.47 574.51 671.37 C550.45 670.22 550.45 670.22 542.78 663.97 C533.37 653.45 532.7 637.49 531.5 624.19 C530.51 612.01 530.51 612.01 524.26 601.96 C517.17 596.77 509.06 595.9 500.52 596.13 C498.48 596.16 496.45 596.19 494.42 596.22 C493.3 596.24 492.17 596.26 491.02 596.28 C486.95 596.35 482.88 596.38 478.81 596.4 C471.71 596.44 464.6 596.5 457.5 596.58 C453.38 596.62 449.27 596.66 445.15 596.69 C441.09 596.71 437.03 596.75 432.97 596.8 C431.45 596.82 429.93 596.83 428.4 596.84 C415.89 596.89 402.99 597.39 393.32 606.34 C390.03 610.56 388.5 614.41 387.51 619.59 C387.35 620.33 387.19 621.08 387.03 621.84 C386.45 624.67 385.88 627.5 385.32 630.34 C375.39 679.97 375.39 679.97 370.38 685.15 C353.23 696.53 326.13 694.57 306.44 694.59 C304.92 694.59 304.92 694.59 303.37 694.59 C246.72 694.58 246.72 694.58 235.92 684.42 C233.1 680.76 231.26 676.57 229.38 672.36 C224.95 665.88 217.9 664.8 210.54 663.41 C209.48 663.22 208.41 663.03 207.32 662.84 C205.08 662.41 202.85 661.99 200.62 661.55 C199 661.24 199 661.24 197.35 660.93 C169.16 655.45 169.16 655.45 162.32 645.34 C158.99 638.97 158.29 632.59 157.43 625.51 C157.27 624.21 157.1 622.9 156.93 621.56 C154.97 606.05 153.22 590.52 151.46 574.98 C146.06 527.61 140.04 480.4 132.32 433.34 C131.71 433.17 131.1 433.01 130.48 432.84 C76.12 417.84 35.71 372.69 6.32 326.34 C5.9 325.69 5.49 325.04 5.06 324.37 C-14.84 292.87 -22.17 261.12 -14.68 224.34 C-12.52 215.14 -9.68 206.13 -6.58 197.21 C-0.85 180.66 -1.06 164.42 -2.25 147.15 C-3.42 129.73 -3.74 112.32 -3.6 94.86 C-3.6 93.59 -3.59 92.31 -3.58 91 C-3.54 84.52 -3.48 78.04 -3.38 71.56 C-3.36 69.14 -3.34 66.72 -3.33 64.3 C-3.29 62.63 -3.29 62.63 -3.25 60.92 C-3.23 54.72 -3.48 51.02 -7.68 46.34 C-10.21 44.24 -10.21 44.24 -12.99 42.46 C-23.01 35.4 -30.77 25.07 -34.68 13.34 C-35.6 1.98 -35.6 1.98 -31.68 -2.66 C-31.23 -3.24 -30.77 -3.82 -30.31 -4.41 C-21.63 -11.08 -8.21 -4.08 0 0 Z M860.32 43.34 C860.11 43.95 859.9 44.55 859.69 45.18 C853.37 62.36 840.74 72.84 824.9 81.06 C820.75 83.27 817.95 85.3 815.32 89.34 C814.4 92.21 814.4 92.21 815.32 95.34 C817.36 98.31 819.76 100.81 822.32 103.34 C822.81 103.86 823.3 104.39 823.8 104.93 C827.2 108.23 830.31 109.21 834.9 109.47 C845.58 108.9 854.5 102.9 861.69 95.32 C868.79 86.72 872.31 77.51 871.32 66.34 C870.36 57.94 866.68 49.08 860.32 43.34 Z M76.32 85.34 C74.48 87.39 72.64 89.44 70.8 91.48 C66.98 96.28 66.75 100.39 67.32 106.34 C68.06 110.32 69.1 114.19 70.19 118.09 C70.5 119.21 70.82 120.34 71.14 121.5 C79.8 152.13 89.99 187.81 111.32 212.34 C112.07 213.23 112.83 214.12 113.61 215.03 C118.31 220.53 118.31 220.53 124.32 224.34 C124.54 223.56 124.77 222.77 125 221.97 C152.67 126.43 152.67 126.43 190.55 105.11 C198.07 101.17 206.21 98.77 214.32 96.34 C211.66 92.82 208.95 90.02 205.51 87.28 C204.53 86.5 203.56 85.72 202.55 84.91 C202.03 84.5 201.5 84.08 200.96 83.65 C199.26 82.3 197.58 80.92 195.9 79.55 C183.56 69.49 170.9 59.85 157.19 51.71 C156.52 51.31 155.85 50.91 155.15 50.5 C125.78 33.55 94.63 63.39 76.32 85.34 Z M-21.68 6.34 C-21.32 13.01 -19.64 17 -15.68 22.34 C-15.25 22.94 -14.82 23.54 -14.37 24.15 C-10.28 29.35 -5.14 32.71 0.32 36.34 C1.66 37.31 2.99 38.29 4.32 39.28 C6.99 41.53 6.99 41.53 9.32 41.34 C9.31 42.16 9.3 42.97 9.3 43.81 C9.24 51.51 9.19 59.2 9.16 66.9 C9.15 70.85 9.13 74.81 9.09 78.76 C9.06 82.58 9.04 86.4 9.03 90.22 C9.03 91.68 9.02 93.13 9 94.59 C8.98 96.63 8.98 98.67 8.98 100.71 C8.97 101.87 8.96 103.04 8.96 104.23 C9.47 108.66 11.21 111.23 14.32 114.34 C16.75 115.02 16.75 115.02 19.44 115.46 C20.35 115.63 21.26 115.8 22.2 115.97 C23.25 116.15 23.25 116.15 24.32 116.34 C22.93 116.74 22.93 116.74 21.51 117.14 C20.31 117.5 19.11 117.85 17.88 118.21 C16.69 118.56 15.49 118.91 14.26 119.27 C11.2 120 11.2 120 10.32 122.34 C10.14 124.46 10.05 126.59 10.01 128.71 C9.97 129.86 9.93 131 9.89 132.18 C10.1 135.35 10.1 135.35 11.79 137.71 C15.46 140.08 18.78 140.01 23.07 140.09 C23.86 140.12 24.65 140.15 25.47 140.18 C27.42 140.25 29.37 140.3 31.32 140.34 C27.57 144.09 22.64 143.61 17.57 143.9 C16.87 143.95 16.17 143.99 15.45 144.03 C13.74 144.14 12.03 144.24 10.32 144.34 C10.67 154.72 11.38 164.98 12.76 175.28 C12.88 176.22 13 177.16 13.13 178.13 C13.31 179.45 13.31 179.45 13.5 180.8 C13.61 181.58 13.72 182.36 13.83 183.17 C14.35 185.47 15.18 187.28 16.32 189.34 C32.81 189.86 32.81 189.86 48.95 187 C51.32 186.34 51.32 186.34 54.32 186.34 C42.11 193.15 28.99 194.12 15.32 195.34 C15.58 197.88 15.85 200.42 16.13 202.96 C16.2 203.68 16.27 204.39 16.34 205.12 C17.01 210.97 18.4 215.28 22.51 219.69 C26.14 221.82 29.23 221.86 33.32 221.71 C34.02 221.71 34.72 221.71 35.44 221.71 C39.48 221.64 42.68 221.12 46.32 219.34 C40.38 226.17 30.68 226.54 22.08 227.23 C21.21 227.28 21.21 227.28 20.32 227.34 C21.01 235.94 21.94 244.97 28.32 251.34 C34.86 254.61 45.48 252.61 52.19 250.59 C57.37 248.8 62.4 246.73 67.32 244.34 C57.32 255.29 41.27 257.45 27.32 259.34 C30.41 275.72 30.41 275.72 37.86 290.08 C41.67 292.03 45.36 291.66 49.57 291.53 C50.83 291.51 50.83 291.51 52.12 291.49 C54.18 291.45 56.25 291.4 58.32 291.34 C54.35 293.49 50.9 294.82 46.44 295.53 C44.99 295.76 44.99 295.76 43.51 296.01 C42.79 296.12 42.06 296.23 41.32 296.34 C39.98 299.31 39.98 299.31 41.36 302.12 C42.14 303.68 42.14 303.68 42.94 305.28 C43.45 306.32 43.96 307.36 44.48 308.43 C47 312.41 49.54 314.87 54.13 316.09 C72.4 317.52 88.84 312.45 103.32 301.34 C94.36 313.43 78.13 318.66 63.72 320.9 C60.26 321.4 56.79 321.88 53.32 322.34 C54.79 326.73 57.17 330.11 60.01 333.71 C60.46 334.29 60.91 334.87 61.38 335.46 C70.21 346.59 82.71 358.2 97.16 360.86 C116.77 363.05 139.69 358.24 155.31 345.99 C157.73 343.84 160.05 341.64 162.32 339.34 C162.9 338.76 163.49 338.17 164.09 337.57 C164.49 337.17 164.9 336.76 165.32 336.34 C152.67 354.18 136.49 361.35 115.44 365.03 C114.76 365.13 114.07 365.24 113.37 365.35 C109.43 365.94 109.43 365.94 106.32 368.34 C152.76 386.28 211.02 394.95 258.32 374.34 C271.88 368.04 283.36 359.08 294.38 349.09 C294.92 348.61 295.45 348.12 296.01 347.63 C299.42 344.45 301.89 341.27 304.32 337.34 C303.69 337.22 303.07 337.1 302.42 336.97 C301.6 336.8 300.79 336.64 299.94 336.46 C299.13 336.3 298.32 336.14 297.48 335.97 C295.32 335.34 295.32 335.34 293.32 333.34 C293.07 330.34 293.07 330.34 293.32 327.34 C295.86 324.8 296.91 325.01 300.44 324.96 C307.24 325.13 311.48 326.69 316.45 331.33 C322.31 337.58 327.32 344.45 327.32 353.34 C325.76 355.84 325.76 355.84 323.32 357.34 C320.19 357.4 320.19 357.4 317.32 356.34 C316.13 354.03 316.13 354.03 315.32 351.34 C314.35 349.98 313.35 348.65 312.32 347.34 C311.7 348.07 311.08 348.79 310.44 349.54 C286.91 376.51 254.14 393.18 218.53 396.1 C209.41 396.68 200.27 396.68 191.13 396.71 C190.16 396.72 189.19 396.73 188.19 396.74 C169.49 396.86 151.52 394.65 133.32 390.34 C134.55 397.07 136.16 403.56 138.19 410.09 C138.96 412.57 139.72 415.06 140.47 417.54 C141.07 419.51 141.67 421.47 142.29 423.43 C145.29 433.31 147 443.22 148.57 453.4 C148.79 454.8 148.79 454.8 149.01 456.23 C155.9 500.53 161.1 545.02 165.79 589.6 C165.92 590.76 165.92 590.76 166.04 591.95 C166.43 595.61 166.81 599.27 167.19 602.93 C167.32 604.22 167.46 605.51 167.6 606.83 C167.71 607.95 167.83 609.07 167.95 610.22 C168.31 613.28 168.79 616.3 169.32 619.34 C170.12 618.69 170.12 618.69 170.94 618.03 C175.88 614.33 179.7 612.31 185.97 612.78 C190.27 613.81 192.68 615.85 195.32 619.34 C198.72 625.09 201.3 630.97 203.32 637.34 C203.98 637.34 204.64 637.34 205.32 637.34 C205.61 636.47 205.9 635.6 206.2 634.71 C209.96 624.15 209.96 624.15 213.63 621.21 C217.12 617.48 216.68 615.92 216.56 611.01 C216.08 603.65 215.23 596.33 214.35 589 C214.01 586.15 213.68 583.29 213.36 580.44 C213.14 578.6 212.92 576.76 212.7 574.92 C212.56 573.66 212.56 573.66 212.42 572.37 C211.35 563.16 211.35 563.16 206.45 555.65 C205.77 555.34 205.08 555.02 204.38 554.69 C203.63 554.33 202.88 553.96 202.11 553.58 C201.33 553.23 200.56 552.89 199.76 552.53 C198.21 551.8 196.67 551.06 195.13 550.32 C194.44 550.01 193.76 549.7 193.06 549.38 C191.32 548.34 191.32 548.34 189.32 545.34 C189.19 542.15 189.19 542.15 189.32 539.34 C191.37 538.14 191.37 538.14 194.32 537.34 C196.9 538.28 199.06 539.24 201.44 540.53 C213.51 546.91 224.17 547.69 237.73 547.28 C239.7 547.22 241.68 547.19 243.65 547.15 C244.81 547.12 245.98 547.08 247.17 547.05 C250.66 547.37 252.5 548.32 255.32 550.34 C254.99 552.32 254.66 554.3 254.32 556.34 C247.43 559.12 241.14 559.86 233.76 560.03 C232.24 560.08 232.24 560.08 230.7 560.13 C228.24 560.21 225.78 560.28 223.32 560.34 C225.75 593.01 231.08 625.21 237.32 657.34 C239.75 654.95 241.82 652.73 243.63 649.84 C246.22 646.2 249.01 643.7 253.32 642.34 C258.48 641.61 262.79 641.7 267.63 643.71 C274.94 650.85 278.89 661.25 283.32 670.34 C284.97 667.86 286.01 665.81 287.13 663.09 C289.69 657.31 292 652.75 297.51 649.4 C305.56 647.16 311.43 647.84 318.9 651.56 C325.14 656.15 328.64 662.31 332.01 669.15 C332.75 670.66 333.51 672.17 334.27 673.67 C334.59 674.33 334.91 674.99 335.25 675.66 C336.37 677.66 336.37 677.66 339.32 679.34 C345.96 680.41 353.18 678.93 359.32 676.34 C364.15 672.82 364.64 668.19 365.76 662.66 C366.07 661.2 366.07 661.2 366.39 659.7 C367.05 656.59 367.68 653.46 368.32 650.34 C368.52 649.36 368.72 648.38 368.93 647.37 C370.45 640.02 371.9 632.65 373.32 625.28 C373.55 624.1 373.77 622.93 374.01 621.72 C380.53 587.93 386.09 553.96 391.71 520.01 C392.58 514.79 393.45 509.56 394.32 504.34 C396.96 504.01 399.6 503.68 402.32 503.34 C407.44 511.02 402.52 527.29 401.03 535.86 C400.81 537.18 400.59 538.5 400.36 539.82 C399.79 543.23 399.2 546.65 398.61 550.07 C397.78 554.92 396.96 559.77 396.14 564.63 C395.7 567.2 395.26 569.78 394.82 572.35 C394.62 573.5 394.42 574.66 394.22 575.84 C393.96 577.37 393.96 577.37 393.69 578.92 C393.27 581.26 393.27 581.26 393.32 583.34 C408.06 584.24 422.74 584.5 437.51 584.46 C438.6 584.46 439.69 584.46 440.81 584.46 C459.33 584.43 477.82 584.21 496.32 583.34 C498.07 583.26 498.07 583.26 499.86 583.18 C516.64 582.35 533.31 580.7 550.01 578.9 C550.97 578.8 551.94 578.7 552.94 578.59 C563 577.51 573.03 576.31 583.03 574.74 C583.82 574.62 584.62 574.49 585.43 574.36 C588.5 573.87 591.37 573.32 594.32 572.34 C594.03 568.42 593.74 564.51 593.44 560.59 C593.35 559.41 593.27 558.23 593.17 557.01 C592.63 549.91 591.97 542.85 591.19 535.78 C590.51 529.39 590.14 523.08 590.13 516.65 C590.13 515.93 590.13 515.2 590.13 514.45 C590.18 509.47 590.18 509.47 591.32 508.34 C593.66 508.63 595.99 508.96 598.32 509.34 C599.94 513.74 600.75 517.81 601.23 522.47 C601.34 523.51 601.34 523.51 601.45 524.57 C601.61 526.08 601.77 527.58 601.92 529.09 C602.17 531.52 602.43 533.95 602.69 536.38 C603.06 539.88 603.43 543.38 603.8 546.88 C606.75 574.73 609.92 602.54 613.96 630.26 C614.26 632.28 614.55 634.29 614.83 636.31 C615.37 640.02 615.92 643.72 616.47 647.43 C616.71 649.06 616.71 649.06 616.95 650.73 C617.1 651.71 617.25 652.69 617.41 653.71 C617.54 654.56 617.66 655.41 617.8 656.29 C618.19 658.55 618.19 658.55 620.32 660.34 C620.68 659.82 621.05 659.3 621.42 658.77 C628.96 648.3 628.96 648.3 634.64 646.68 C639.83 645.87 643.94 646.17 648.51 648.86 C656.54 655.43 660.92 667.52 663.32 677.34 C665.89 674.22 667.34 671.15 668.82 667.4 C672.79 657.33 672.79 657.33 676.48 654.94 C684.11 651.91 689.85 651.65 697.44 654.9 C705.84 659.63 709.67 667.43 713.57 675.88 C715.19 679.36 716.05 681.16 719.32 683.34 C729.33 684.61 738.15 679.37 746.38 674.16 C756.49 664.66 755.89 645.98 756.88 633.09 C756.94 632.33 757 631.56 757.06 630.77 C759.59 598.77 760.48 566.74 760.94 534.65 C760.96 533.59 760.96 533.59 760.97 532.5 C761.42 502.28 761.51 472.06 761.01 441.84 C760.99 440.64 760.97 439.44 760.95 438.2 C759.74 368.46 757.52 298.46 749.36 229.15 C749.14 227.28 749.14 227.28 748.92 225.37 C748.66 223.11 748.38 220.86 748.09 218.6 C747.42 212.95 747.06 207.93 748.32 202.34 C751.08 200.48 753.24 199.5 756.32 198.34 C780.97 188.41 800.65 171.01 811.64 146.48 C812.6 144.32 812.6 144.32 811.32 142.34 C810.16 143.72 810.16 143.72 808.97 145.12 C793.69 163.17 778.55 176.58 754.32 180.34 C749.96 180.61 745.68 180.61 741.32 180.34 C739.05 175.97 737.06 171.71 735.38 167.09 C732.44 159.74 727.4 157.77 720.49 154.66 C715.09 152.41 709.55 150.74 703.94 149.09 C703.31 148.9 702.68 148.71 702.02 148.52 C667.34 138.26 631.96 131.34 596.32 125.34 C597.86 129.72 600.18 133.41 602.69 137.28 C613.02 153.53 621.94 170.55 629.32 188.34 C629.64 189.1 629.95 189.87 630.28 190.65 C637.91 209.28 642.95 229.23 644.32 249.34 C644.42 250.81 644.42 250.81 644.53 252.3 C645.08 267.91 642.04 283.3 635.32 297.34 C635.02 297.97 634.73 298.6 634.42 299.25 C626.4 316.36 616.52 332.15 605.32 347.34 C604.67 348.22 604.67 348.22 604.01 349.12 C601.18 352.92 598.28 356.65 595.32 360.34 C594.91 360.85 594.5 361.37 594.07 361.9 C587.31 370.3 579.85 378.01 572.26 385.65 C571.35 386.57 570.44 387.49 569.5 388.44 C563.41 394.49 557.05 400.02 550.32 405.34 C549.75 405.8 549.17 406.26 548.59 406.74 C532.86 419.41 510.24 433.43 489.32 431.34 C471.39 428.39 454.27 408.52 442.12 396.18 C437.17 391.15 432.2 386.26 426.32 382.34 C425.87 383.05 425.42 383.77 424.95 384.51 C419.66 392.71 413.81 400.07 407.32 407.34 C406.33 408.45 406.33 408.45 405.33 409.59 C396.05 419.47 382.16 430.23 368.13 430.78 C365.32 430.34 365.32 430.34 363.32 428.34 C363.19 425.21 363.19 425.21 363.32 422.34 C364.35 421.82 365.38 421.31 366.44 420.78 C367.17 420.41 367.9 420.03 368.65 419.65 C370.6 418.69 372.57 417.78 374.54 416.9 C383.71 412.68 390.23 407.46 397.32 400.34 C398.03 399.67 398.75 399 399.49 398.31 C408.27 390.01 415.19 380.28 420.75 369.61 C422.32 367.34 422.32 367.34 424.08 366.26 C430.77 366.49 436.05 372.69 440.4 377.19 C441.37 378.19 441.37 378.19 442.37 379.2 C444.45 381.3 446.51 383.41 448.57 385.53 C461.34 398.6 461.34 398.6 475.32 410.34 C475.93 410.81 476.54 411.27 477.16 411.75 C478.55 412.8 479.97 413.82 481.38 414.84 C482.28 415.49 483.18 416.14 484.1 416.81 C488.78 420.04 492.75 419.84 498.32 419.34 C515.79 415.92 530.74 405.31 544.32 394.34 C544.89 393.89 545.45 393.44 546.04 392.97 C554.22 386.42 561.69 379.16 569.13 371.78 C570.44 370.48 570.44 370.48 571.77 369.16 C577.71 363.2 583.1 356.94 588.32 350.34 C588.81 349.73 589.29 349.12 589.8 348.5 C596.49 340.12 602.54 331.37 608.32 322.34 C608.7 321.75 609.08 321.16 609.47 320.55 C627.45 292.45 637.72 263.05 630.35 229.5 C621.61 193.36 604.88 158.57 583.32 128.34 C582.79 127.59 582.25 126.84 581.7 126.07 C575.08 116.83 568.28 107.82 560.81 99.24 C558.49 96.53 556.28 93.77 554.07 90.96 C545.1 79.97 534.67 69.85 523.32 61.34 C521.78 60.19 521.78 60.19 520.21 59.01 C509.63 51.29 496.02 42.59 482.32 44.34 C466.3 47.61 454.62 56.17 442.32 66.34 C441.74 66.82 441.16 67.29 440.56 67.78 C429.22 77.12 418.42 87.22 408.93 98.45 C407.08 100.62 405.13 102.69 403.19 104.78 C393.6 115.43 385.27 127.22 377.1 138.98 C376.63 139.66 376.16 140.33 375.68 141.02 C375.27 141.62 374.86 142.21 374.44 142.82 C373.32 144.34 373.32 144.34 371.32 146.34 C368.63 146.61 366.03 146.43 363.32 146.34 C362.35 143.25 362.1 141.82 363.46 138.83 C364.35 137.53 364.35 137.53 365.24 136.2 C365.89 135.24 366.54 134.28 367.21 133.29 C370.54 128.62 373.98 124.05 377.51 119.53 C385.18 111.19 385.18 111.19 389.32 101.34 C370.13 100.22 350.95 100.15 331.73 100.15 C328.18 100.15 324.63 100.15 321.08 100.13 C250.74 97.04 250.74 97.04 187.72 120.9 C162.87 146.11 148.21 183.03 138.63 216.46 C138.36 217.37 138.09 218.28 137.82 219.21 C136.47 224.17 135.71 227.62 138.32 232.34 C146.51 240.39 162.07 244.34 173.32 244.34 C173.3 243.67 173.28 243 173.25 242.31 C173.17 239.22 173.12 236.12 173.07 233.03 C173.03 231.97 173 230.92 172.97 229.84 C172.84 219.4 175.85 211.13 181.32 202.34 C180.54 202.13 179.75 201.93 178.95 201.72 C177.43 201.31 177.43 201.31 175.88 200.9 C174.87 200.64 173.86 200.37 172.82 200.09 C170.32 199.34 170.32 199.34 169.32 198.34 C169.18 195.67 169.28 193.02 169.32 190.34 C180.46 189.45 188.82 190.82 197.51 198.2 C205.05 206.07 205.79 214.96 205.63 225.46 C205.63 226.51 205.64 227.56 205.64 228.63 C205.6 234.25 205.2 239.04 203.32 244.34 C205.03 244.2 206.74 244.05 208.44 243.9 C209.39 243.82 210.35 243.74 211.33 243.66 C214.32 243.38 214.32 243.38 217.26 242.81 C220.61 242.29 223.8 242.24 227.19 242.28 C228.35 242.29 229.5 242.29 230.69 242.3 C231.55 242.32 232.42 242.33 233.32 242.34 C234.01 245.15 234.01 245.15 234.32 248.34 C231.21 252.97 224.82 253.76 219.72 254.94 C187.67 260.77 151.04 257.87 123.3 239.48 C77.6 206.61 60.81 138.86 52.13 86.36 C51.13 80.03 50.21 73.69 49.32 67.34 C49.09 65.76 48.86 64.18 48.63 62.6 C48.18 59.52 47.75 56.43 47.32 53.34 C42.83 53.97 38.35 54.65 33.88 55.4 C32.83 55.58 31.78 55.76 30.7 55.94 C29.91 56.07 29.13 56.2 28.32 56.34 C28.88 54.02 28.88 54.02 30.32 51.34 C32.68 50.15 34.77 49.29 37.26 48.46 C49.06 44.12 61.03 37.35 67.61 26.14 C68.54 24.09 68.54 24.09 69.32 21.34 C63.46 23.25 57.66 25.3 51.9 27.47 C47.68 28.89 43.64 29.53 39.19 29.65 C38.35 29.69 37.5 29.73 36.62 29.77 C25.77 28.37 15.8 22.22 6.19 17.28 C-7.1 9.62 -7.1 9.62 -21.68 6.34 Z M187.01 210.84 C184.91 215.18 184.92 217.58 185.32 222.34 C186.42 223.66 186.42 223.66 189.19 223.59 C192.24 223.63 192.24 223.63 193.96 222.11 C195.62 219.95 195.87 218.53 196.13 215.84 C196.22 215.07 196.31 214.29 196.4 213.5 C196.49 211.04 196.49 211.04 194.32 208.34 C190.54 207.44 189.66 207.97 187.01 210.84 Z M2.32 209.34 C1.33 213.53 0.36 217.71 -0.62 221.9 C-0.9 223.08 -1.17 224.26 -1.46 225.48 C-9.03 258.05 -3.34 286.29 14.1 314.43 C33.75 345.3 57.78 376.64 87.69 398.16 C89.38 399.39 91.03 400.66 92.69 401.93 C98.89 406.65 105.22 410.54 112.26 413.9 C113.3 414.4 113.3 414.4 114.37 414.92 C118.72 416.89 122.56 417.89 127.32 418.34 C126.43 411.96 125.01 405.8 123.07 399.65 C122.69 398.45 122.32 397.25 121.93 396.02 C118.03 386.27 111.96 382.58 102.57 378.53 C86.25 371.07 72.03 363.09 59.32 350.34 C58.67 349.75 58.02 349.16 57.35 348.55 C21.72 315.67 12.13 254.31 4.32 209.34 C3.66 209.34 3 209.34 2.32 209.34 Z M574.88 587.09 C573.7 587.25 572.53 587.4 571.32 587.57 C561.77 588.95 553.14 591.2 546.32 598.34 C543.22 604.82 543.01 610 543.51 617.09 C543.55 618.02 543.59 618.95 543.64 619.91 C543.89 624.26 544.14 627.49 546.32 631.34 C546.85 630.58 547.39 629.81 547.94 629.03 C551.64 624.85 554.76 623.56 560.26 622.78 C564.25 623.01 566.62 624.21 569.52 626.95 C572.95 631.5 575.23 636.7 577.62 641.86 C579.07 645.31 579.07 645.31 581.32 647.34 C581.75 646.38 582.19 645.41 582.64 644.42 C583.24 643.14 583.84 641.87 584.44 640.59 C584.73 639.96 585.01 639.32 585.3 638.67 C587.81 633.44 590.92 630.67 596.44 628.51 C598.06 628.12 599.69 627.73 601.32 627.34 C600.72 617.83 599.61 608.46 598.26 599.03 C598.07 597.69 597.88 596.35 597.69 595.01 C597.24 591.79 596.78 588.56 596.32 585.34 C589.04 585.09 582.07 586.04 574.88 587.09 Z M173.32 627.34 C171.66 630.73 171.09 632.29 171.88 635.96 C176.16 643.03 183.82 644.42 191.32 646.34 C193.67 646.8 195.93 647.12 198.32 647.34 C197.13 638.3 195.07 628.16 188.88 621.09 C186.4 619.2 186.4 619.2 183.44 618.53 C178.5 619.81 176.14 623.24 173.32 627.34 Z M218.32 625.34 C213.98 629.81 212.29 633.49 211.01 639.53 C210.84 640.24 210.67 640.95 210.5 641.68 C209.82 644.63 209.32 647.31 209.32 650.34 C213.94 651 218.56 651.66 223.32 652.34 C222.75 643.09 221.28 634.38 219.32 625.34 C218.99 625.34 218.66 625.34 218.32 625.34 Z M551.32 635.34 C548.63 639.63 548.07 642.62 548.82 647.53 C549.61 650.59 550.27 652.28 552.19 654.84 C559.35 658.27 567.49 658.64 575.32 658.34 C573.77 651.81 571.76 645.52 569.32 639.28 C568.94 638.29 568.94 638.29 568.56 637.29 C567.18 633.83 566.5 632.46 563.32 630.34 C557.9 629.5 554.8 631.32 551.32 635.34 Z M595.88 635.21 C588.19 641.6 587.06 649.83 585.32 659.34 C592.25 659.34 599.18 659.34 606.32 659.34 C605.56 647.59 605.56 647.59 602.32 636.34 C599.68 634.45 598.99 634.1 595.88 635.21 Z M248.64 654.54 C244.81 660.23 242.38 664.25 243.32 671.34 C245.62 675.65 248.35 677.05 252.87 678.67 C257.6 679.96 262.44 680.19 267.32 680.53 C268.91 680.65 268.91 680.65 270.53 680.77 C273.13 680.97 275.72 681.16 278.32 681.34 C277.22 674.84 275.67 669.02 272.94 663.03 C272.51 662.01 272.51 662.01 272.06 660.98 C269.98 656.31 267.72 651.97 263.38 649.03 C257.03 646.91 252.64 649.3 248.64 654.54 Z M629.32 659.34 C625.62 665.22 622.01 671.2 623.32 678.34 C625.02 682.09 626.93 684.08 630.32 686.34 C639.26 689.59 649.92 688.97 659.32 689.34 C657.25 677.49 654.22 663.86 645.94 654.71 C638.9 651.02 633.93 653.67 629.32 659.34 Z M296.19 659.46 C291.5 666.67 290.05 672.68 288.32 681.34 C301.85 681.34 315.38 681.34 329.32 681.34 C326.04 670.42 322.22 661.63 312.32 655.34 C305.9 653 300.91 654.75 296.19 659.46 Z M677.28 663.57 C675.18 666.53 674.21 668.99 673.19 672.46 C672.88 673.5 672.57 674.53 672.25 675.6 C671.04 680.47 670.17 685.39 669.32 690.34 C689.9 689.8 689.9 689.8 710.32 687.34 C708.55 676.57 704.16 667.8 695.62 660.81 C689.03 656.6 682.55 657.8 677.28 663.57 Z " fill="#000000" transform="translate(253.68179321289063,398.6605529785156)"/>
<path d="M0 0 C9.84 2.26 19.67 8.09 26 16 C33.74 29.03 35.86 41.81 32.81 56.69 C30.03 67.44 24.06 76.87 14.96 83.48 C5.41 88.74 -3.91 86.82 -14 84 C-17.22 82.97 -20.22 81.95 -23 80 C-24.12 77.31 -24.12 77.31 -24 75 C-23.5 74.5 -23.5 74.5 -23 74 C-15.59 74.71 -15.59 74.71 -13 76 C-13.36 74.89 -13.72 73.78 -14.09 72.63 C-19.13 56.71 -19.28 44.11 -11.75 28.62 C-9.19 23.73 -6.56 19.86 -2.38 16.23 C-0.86 15.03 -0.86 15.03 0 13 C-0.75 12.95 -1.5 12.9 -2.27 12.85 C-3.25 12.78 -4.24 12.7 -5.25 12.62 C-6.22 12.56 -7.2 12.49 -8.2 12.41 C-10.94 12.01 -12.71 11.53 -15 10 C-16 7.12 -16 7.12 -16 4 C-11.69 -1.65 -6.54 -0.77 0 0 Z M0 27 C-1.86 30.71 -1.45 34.95 -1 39 C0.33 42.23 0.33 42.23 3 44 C6.5 44.75 6.5 44.75 10 44 C12.98 41.75 14.55 39.4 16 36 C16.55 31.96 16.49 28.25 15 24.44 C12.4 22.57 10.16 22.45 7 22.6 C3.9 23.22 2.16 24.77 0 27 Z " fill="#000000" transform="translate(552,597)"/>
<path d="M0 0 C3.06 2.78 4.77 5.7 6.72 9.31 C7.07 9.94 7.42 10.56 7.79 11.21 C12.87 20.36 12.79 31.29 10.86 41.49 C3.28 64 -16.86 83.22 -32.75 100.25 C-35.31 103 -37.79 105.81 -40.28 108.62 C-43.02 111.66 -45.8 114.62 -48.78 117.44 C-49.38 118.01 -49.98 118.58 -50.61 119.17 C-52.53 120.25 -52.53 120.25 -55.26 119.93 C-56.01 119.7 -56.76 119.48 -57.53 119.25 C-60.77 104.87 -63.42 90.43 -65.78 75.88 C-65.91 75.08 -66.04 74.28 -66.17 73.45 C-74.29 23.49 -74.29 23.49 -61.25 4.38 C-45.16 -16.54 -19.31 -13.37 0 0 Z M-56.26 9.55 C-72.15 36.3 -57.92 79.3 -52.53 108.25 C-49.32 108.6 -49.32 108.6 -47.07 105.9 C-46.09 104.81 -45.12 103.72 -44.15 102.62 C-43.08 101.43 -42 100.23 -40.92 99.03 C-40.36 98.41 -39.81 97.78 -39.23 97.14 C-37.02 94.69 -34.76 92.29 -32.5 89.89 C-26.55 83.56 -20.91 77.07 -15.53 70.25 C-14.29 68.73 -14.29 68.73 -13.04 67.17 C-3.96 55.83 7.11 41.57 5.47 26.25 C3.42 16.04 -1.52 8.65 -9.21 1.76 C-15.19 -2.13 -21.22 -3.33 -28.28 -3.31 C-29.45 -3.31 -29.45 -3.31 -30.65 -3.31 C-40.5 -3.01 -50.23 1.55 -56.26 9.55 Z " fill="#000000" transform="translate(331.52734375,265.75)"/>
<path d="M0 0 C13.95 9.53 38.38 27.89 42.16 45.16 C37.3 41.13 32.81 36.87 28.41 32.34 C13.73 17.51 -5.01 0.19 -26.84 -0.84 C-46.39 0.15 -63.93 12.28 -77.84 25.16 C-78.36 25.63 -78.87 26.09 -79.4 26.58 C-90.34 36.68 -98.93 48.43 -106.41 61.28 C-107.12 62.21 -107.12 62.21 -107.84 63.16 C-108.83 63.16 -109.82 63.16 -110.84 63.16 C-96.22 34.11 -77.86 6.81 -45.84 -4.84 C-28.27 -10.42 -16.01 -9.74 0 0 Z " fill="#000000" transform="translate(774.84375,517.84375)"/>
<path d="M0 0 C5.51 2.9 9.05 6.1 11.61 11.87 C13.18 18.52 12.98 24.15 9.36 30.05 C1.79 40.66 -9.62 46.41 -21.02 52.12 C-22.18 52.72 -23.34 53.33 -24.54 53.95 C-25.65 54.51 -26.77 55.07 -27.91 55.65 C-28.92 56.16 -29.92 56.67 -30.96 57.2 C-33.64 58.05 -33.64 58.05 -36 57.2 C-36.81 56.64 -36.81 56.64 -37.64 56.05 C-38.12 48.81 -36.56 42.26 -34.87 35.24 C-34.39 33.26 -33.94 31.28 -33.48 29.29 C-28.33 7.5 -28.33 7.5 -21.52 2.18 C-14.95 -1.74 -7.26 -2.6 0 0 Z M-19.38 9.16 C-25.76 18.73 -28.64 32.7 -29.64 44.05 C-29.31 45.04 -28.98 46.03 -28.64 47.05 C-25.13 45.36 -21.64 43.65 -18.14 41.93 C-17.16 41.46 -16.18 40.98 -15.16 40.49 C-3.39 34.96 -3.39 34.96 4.36 25.05 C5.01 20.99 4.97 17.12 4.36 13.05 C1.92 9.76 -0.26 8.31 -3.64 6.05 C-9.15 5.23 -15.23 4.85 -19.38 9.16 Z " fill="#000000" transform="translate(392.640625,232.9453125)"/>
<path d="M0 0 C4.16 1.76 6.43 4.33 9 8 C13.94 22.82 5.35 37.63 -1.11 50.6 C-6.73 61.58 -6.73 61.58 -11 63 C-14.53 60.33 -15.12 56.73 -16.06 52.62 C-16.32 51.55 -16.32 51.55 -16.58 50.46 C-23.87 18.81 -23.87 18.81 -17 7 C-12.16 1.11 -7.67 -1.6 0 0 Z M-12.12 12.73 C-16.13 23.12 -12.04 37.42 -10 48 C-5.99 44.59 -4.34 40.87 -2.38 36.12 C-2.08 35.43 -1.78 34.74 -1.47 34.02 C1.67 26.65 4.09 20.12 3 12 C1.54 8.81 1.54 8.81 -1 7 C-6.01 5.84 -9.43 8.59 -12.12 12.73 Z " fill="#000000" transform="translate(345,182)"/>
<path d="M0 0 C0.99 0.66 1.98 1.32 3 2 C2.33 9.41 -1.95 12.93 -7 18 C-7.57 18.59 -8.14 19.19 -8.73 19.8 C-18.25 28.9 -31.06 30.49 -43.62 30.28 C-52.31 29.9 -60.61 26.96 -67 21 C-67.44 18.19 -67.44 18.19 -67 16 C-64.88 15.25 -64.88 15.25 -62 15 C-59.97 16.28 -57.97 17.62 -56 19 C-45.62 22.71 -31.58 22.86 -21.42 18.39 C-14.27 14.28 -8.56 8.94 -3.38 2.57 C-2 1 -2 1 0 0 Z " fill="#000000" transform="translate(540,792)"/>
<path d="M0 0 C8.33 3.82 14.7 9.67 18.38 18.11 C18.13 21.55 18.13 21.55 17.38 24.11 C13.87 25.36 12.08 24.89 8.71 23.42 C7.82 23.03 6.92 22.64 6 22.25 C5.07 21.83 4.15 21.42 3.19 20.99 C2.28 20.6 1.38 20.2 0.44 19.8 C-14.46 13.27 -14.46 13.27 -18.62 9.11 C-19.12 6.8 -19.12 6.8 -18.62 4.11 C-13.43 -2.03 -7.48 -2.53 0 0 Z " fill="#000000" transform="translate(567.62109375,567.88671875)"/>
<path d="M0 0 C1.79 2.68 1.63 4.1 1.5 7.25 C-0.85 8.21 -3.21 9.17 -5.56 10.12 C-6.22 10.39 -6.88 10.66 -7.55 10.94 C-13.82 13.47 -19.65 15.58 -26.5 15.25 C-27.25 13.69 -27.25 13.69 -27.5 11.25 C-24.85 4.75 -20.65 1.48 -14.5 -1.75 C-9.45 -3.43 -4.38 -3.06 0 0 Z " fill="#000000" transform="translate(447.5,564.75)"/>
<path d="" fill="#000000" transform="translate(0,0)"/>
<path d="" fill="#000000" transform="translate(0,0)"/>
</svg>
