<?xml version="1.0" encoding="iso-8859-1"?>
<!-- Generator: Adobe Illustrator 26.0.3, SVG Export Plug-In . SVG Version: 6.00 Build 0)  -->
<svg version="1.1" id="Layer_22" xmlns="http://www.w3.org/2000/svg" xmlns:xlink="http://www.w3.org/1999/xlink" x="0px" y="0px"
	 width="389.94px" height="544.188px" viewBox="0 0 389.94 544.188" enable-background="new 0 0 389.94 544.188"
	 xml:space="preserve">
<path d="M385.1,284.171c-1.817-0.09-3.444-0.602-5.082-1.187c-2.862-1.022-2.807-1.055-2.277-4.076
	c4.425-25.26,6.288-50.628,3.039-76.19c-0.27-2.124-0.08-3.683,2.228-4.447c0.871-0.288,1.707-0.848,2.404-1.461
	c1.187-1.043,1.758-2.392,1.262-3.999c-0.538-1.739-1.769-2.692-3.562-2.809c-0.794-0.052-1.654-0.013-2.395,0.243
	c-1.22,0.422-1.766-0.028-2.02-1.148c-0.178-0.789-0.362-1.578-0.536-2.368c-2.818-12.788-7.495-24.756-15.179-35.49
	c-5.136-7.175-11.639-12.363-20.17-14.762c-2.116-0.595-2.71-1.745-2.736-3.736c-0.025-1.878,0.184-3.8-0.406-5.635
	c-0.644-2.006-2.039-3.016-3.888-2.87c-1.875,0.148-2.893,1.29-3.362,3.01c-0.434,1.593-0.213,3.223-0.219,4.838
	c-0.012,3.193-0.01,3.157-3.106,3.859c-13.212,2.993-23.761,9.974-31.563,21.082c-0.672,0.957-0.997,2.264-2.499,2.701
	c-1.445-2.06-2.804-4.238-4.41-6.215c-1.351-1.662-3.114-1.878-4.702-0.949c-1.555,0.91-2.213,2.615-1.602,4.573
	c0.276,0.885,0.79,1.711,1.28,2.512c1.125,1.844,2.17,3.758,3.489,5.457c1.667,2.148,1.811,4.064,0.693,6.655
	c-5.079,11.767-7.738,24.103-8.208,36.938c-0.257,7.024-0.289,14.04-0.201,21.063c0.033,2.611-0.253,2.837-2.818,2.367
	c-2.117-0.388-4.173-1.113-6.29-1.502c-1.78-0.327-3.209,0.45-3.962,2.121c-0.761,1.688-0.257,3.177,1.08,4.375
	c0.92,0.824,2.043,1.308,3.233,1.613c2.091,0.536,4.17,1.152,6.289,1.542c1.889,0.349,2.751,1.159,2.733,3.221
	c-0.053,6.077,0.085,12.154-0.794,18.196c-0.913,6.279-3.049,12.032-7.26,16.874c-4.43,5.094-9.421,5.332-14.423,0.754
	c-1.92-1.758-3.392-3.835-4.437-6.22c-1.427-3.258-2.129-6.675-2.253-10.219c-0.218-6.22,0.114-12.413,0.756-18.604
	c0.22-2.122,0.591-3.612,2.805-4.795c4.083-2.183,4.009-5.379,0.06-7.949c-0.958-0.623-1.331-1.183-1.228-2.22
	c0.12-1.209,0.173-2.427,0.326-3.633c1.46-11.489,2.944-22.975,4.4-34.464c0.728-5.745,1.449-11.49,2.157-17.237
	c0.748-6.079,1.945-12.089,2.893-18.137c0.927-5.914,1.196-11.885,2.051-17.803c3.351-23.2,3.134-46.307-2.073-69.234
	c-0.668-2.94-0.614-4.993,1.934-7.03c2.242-1.791,2.494-3.998,1.322-5.75c-1.311-1.96-3.142-2.461-5.291-1.417
	c-1.147,0.557-1.736,0.223-2.049-0.969c-0.239-0.911-0.601-1.79-0.912-2.682c-3.592-10.285-8.464-19.865-15.623-28.167
	c-2.411-2.796-2.275-2.227-0.496-5.539c1.596-2.972,3.27-5.902,4.905-8.853c1.288-2.324,1.091-4.135-0.576-5.412
	c-1.639-1.255-3.684-0.996-5.444,0.798c-0.653,0.666-1.179,1.475-1.673,2.274c-0.852,1.377-1.64,2.795-2.444,4.201
	c-2.499,4.371-2.473,4.338-6.463,1.581c-12.789-8.837-26.894-13.023-42.453-11.556C175.619,1.582,164.16,7.8,154.259,17.165
	c-6.947,6.571-12.199,14.396-16.819,22.693c-0.695,1.248-1.159,2.681-2.564,3.967c-2.031-2.282-3.876-4.39-5.764-6.459
	c-0.816-0.894-1.63-1.834-2.606-2.527c-1.66-1.181-3.513-1.02-4.83,0.205c-1.343,1.248-1.556,2.984-0.474,4.781
	c0.483,0.802,1.138,1.505,1.74,2.231c2.154,2.6,4.219,5.284,6.516,7.753c1.603,1.723,1.752,3.249,0.877,5.44
	c-4.013,10.044-6.946,20.435-9.453,30.947c-1.849,7.752-3.246,15.589-4.433,23.468c-0.395,2.623-0.441,2.619-3.056,2.141
	c-1.593-0.291-3.174-0.69-4.78-0.866c-2.627-0.288-4.604,0.964-5.035,3.023c-0.438,2.094,0.896,3.841,3.577,4.556
	c1.432,0.382,2.907,0.6,4.347,0.955c3.499,0.862,3.51,0.878,3.223,4.627c-0.258,3.365-0.562,6.726-0.83,10.091
	c-1.477,18.57,0.648,36.964,2.991,55.314c1.641,12.849,3.856,25.625,5.805,38.435c0.494,3.247,0.473,3.235-2.587,4.338
	c-2.42,0.873-4.904,1.446-7.436,1.909c-1.914,0.35-3.098,1.634-3.162,3.667c-0.06,1.892,1.38,3.352,3.563,3.784
	c1.235,0.244,2.405-0.144,3.606-0.285c2.518-0.296,4.826-1.609,7.552-1.642c0.162,0.763,0.339,1.402,0.431,2.054
	c1.341,9.506,1.918,19.07,2.148,28.66c0.107,4.463-0.109,8.911-0.671,13.34c-0.375,2.96-0.961,5.867-2.433,8.511
	c-0.531,0.954-1.115,1.939-2.451,1.722c-4.803-0.781-9.59-1.587-13.814-4.292c-1.42-0.91-1.692-1.84-0.944-3.347
	c0.898-1.81,1.698-3.686,2.339-5.601c0.845-2.527,0.019-4.628-1.955-5.527c-2.128-0.969-4.3-0.017-5.67,2.435
	c-0.606,1.084-0.507,2.672-2.072,3.184c-0.338-0.406-0.645-0.685-0.841-1.027c-0.469-0.819-0.903-1.66-1.32-2.506
	c-3.961-8.03-5.626-16.625-5.74-25.476c-0.251-19.544,3.146-38.707,6.402-57.879c0.288-1.696,1.309-1.952,2.59-2.53
	c3.112-1.404,3.77-5.294,0.987-7.193c-1.937-1.321-1.869-2.69-1.707-4.444c0.648-7.035,0.331-14.024-0.939-20.975
	c-1.417-7.753-3.464-15.256-7.945-21.913c-3.545-5.267-8.292-8.792-14.391-10.522c-5.024-1.425-10.149-1.781-15.241-0.763
	c-13.721,2.744-25.412,8.807-33.487,20.78c-3.032,4.495-5.841,9.084-8.021,14.042c-1.028,2.338-1.894,4.747-2.949,7.417
	c-2.086-0.997-3.296-2.505-4.807-3.615c-0.868-0.637-1.687-1.372-2.631-1.868c-1.865-0.98-3.588-0.662-4.771,0.716
	c-1.273,1.483-1.189,3.417,0.297,5.136c0.526,0.608,1.186,1.1,1.789,1.64c2.114,1.891,4.198,3.817,6.357,5.654
	c1.03,0.876,1.559,1.758,1.092,3.152c-0.341,1.017-0.468,2.106-0.68,3.164c-4.428,22.07-6.037,44.387-5.796,66.861
	c0.041,3.785,0.131,3.772-3.693,4.754c-0.645,0.166-1.293,0.417-1.865,0.754c-1.268,0.748-1.932,1.934-1.808,3.384
	c0.137,1.613,1.017,2.798,2.643,3.215c0.768,0.197,1.591,0.225,2.39,0.244c2.982,0.07,2.995,0.056,3.35,3.11
	c0.125,1.072,0.155,2.155,0.252,3.231c1.447,16.088,4.361,31.81,11.278,46.587c3.165,6.763,6.536,13.384,12.024,18.591
	c8.686,8.24,18.27,15.18,29.49,19.639c1.756,0.698,3.52,1.377,5.257,2.118c2.315,0.988,2.355,1.066,1.06,3.114
	c-1.804,2.853-3.725,5.632-5.49,8.507c-0.914,1.488-1.771,3.055-2.35,4.694c-0.757,2.144,0.057,4.025,1.772,4.845
	c1.724,0.824,3.596,0.253,4.921-1.568c0.474-0.651,0.819-1.396,1.223-2.097c2.365-4.105,5.312-7.814,7.966-11.722
	c1.004-1.479,2.086-1.782,3.768-1.235c3.462,1.126,6.973,2.112,10.487,3.066c12.37,3.358,24.867,6.258,36.992,10.488
	c4.741,1.654,9.313,3.604,13.373,6.617c3.282,2.436,5.391,5.578,6.155,9.653c0.401,2.138,0.623,4.272,0.658,6.434
	c0.138,8.654-0.441,17.285-1.156,25.895c-1.73,20.853-4.972,41.531-7.39,62.305c-1.124,9.657-1.722,19.381-1.3,29.116
	c0.491,11.325,6.262,19.284,16.2,24.31c4.23,2.14,8.796,3.474,13.468,4.281c18.459,3.191,37.029,4.008,55.686,2.258
	c6.816-0.639,13.192-2.809,19.091-6.275c6.332-3.721,10.792-9.049,12.502-16.236c2.526-10.611,2.952-21.376,1.211-32.166
	c-0.324-2.008-0.589-3.991-0.654-6.02c-0.398-12.417-0.905-24.832-1.214-37.251c-0.36-14.442-0.965-28.892,0.471-43.319
	c0.697-6.999,1.753-13.912,3.935-20.636c2.188-6.74,6.551-11.354,13.059-14.033c2.506-1.032,5.089-1.772,7.734-2.351
	c4.348-0.952,8.916-1.241,12.984-3.045c4.237-1.878,7.367-1.32,9.882,2.574c0.214,0.331,0.556,0.59,0.871,0.842
	c2.098,1.677,4.226,1.747,5.845,0.206c1.623-1.545,1.651-3.709,0.153-5.872c-0.722-1.042-2.203-1.59-2.191-3.218
	c4.848-2.494,9.733-4.807,14.426-7.458c16.514-9.33,31.301-20.703,42.146-36.569c4.276-6.256,7.905-12.879,10.721-19.936
	c1.056-2.646,1.124-2.63,3.801-1.67c2.031,0.729,4.014,1.62,6.085,2.201c3.334,0.936,5.654-0.354,6.233-3.249
	C390.431,286.798,388.526,284.341,385.1,284.171z M373.87,232.508c-0.536,13.765-1.519,27.499-3.823,41.105
	c-0.964,5.691-0.95,5.695-6.17,3.706c-0.504-0.192-0.981-0.46-1.493-0.625c-2.233-0.722-4.047-0.188-4.945,1.426
	c-0.978,1.758-0.38,3.904,1.527,5.318c1.433,1.061,3.165,1.492,4.784,2.155c2.969,1.216,3.066,1.247,1.73,4.36
	c-5.274,12.292-12.348,23.318-22.275,32.476c-12.154,11.212-26.035,19.652-41.013,26.431c-3.071,1.39-3.089,1.364-5.481-1.189
	c-1.569-1.675-3.078-3.41-4.693-5.039c-2.191-2.21-4.333-2.502-5.987-0.93c-1.606,1.526-1.491,3.821,0.379,6.171
	c1.332,1.674,2.997,3.085,4.239,5.272c-2.322,1.348-4.836,1.661-7.25,2.171c-3.961,0.836-7.962,1.486-11.831,2.712
	c-11.395,3.611-18.972,10.937-22.283,22.584c-2.079,7.311-3.234,14.766-3.858,22.305c-0.982,11.858-0.968,23.732-0.482,35.623
	c0.546,13.357,0.84,26.724,1.195,40.089c0.115,4.323,0.6,8.585,1.152,12.878c1.107,8.602,0.84,17.25-0.891,25.792
	c-1.208,5.959-4.751,10.146-10.048,12.989c-5.583,2.996-11.589,4.438-17.849,4.793c-16.223,0.918-32.393,0.456-48.459-2.198
	c-3.339-0.552-6.589-1.462-9.766-2.609c-9.591-3.463-14.314-9.978-14.501-20.174c-0.201-10.948,0.386-21.862,1.75-32.732
	c1.764-14.058,4.298-28.007,5.804-42.103c1.364-12.763,2.246-25.553,2.55-38.379c0.07-2.952-0.25-5.944-0.692-8.872
	c-0.994-6.58-4.237-11.859-9.615-15.836c-4.834-3.575-10.235-5.951-15.877-7.916c-13.149-4.58-26.717-7.657-40.118-11.332
	c-3.59-0.984-7.08-2.288-10.555-3.614c-3.282-1.252-6.556-2.175-9.88-3.272c-2.942-0.972-5.816-2.149-8.601-3.508
	c-7.182-3.505-13.721-8.199-19.694-13.485c-1.219-1.079-2.416-2.183-3.592-3.308c-2.947-2.819-5.032-6.327-6.9-9.946
	c-6.316-12.242-10.368-25.179-11.955-38.873c-0.528-4.558-0.999-9.123-1.555-13.678c-0.214-1.75,0.076-2.955,2.2-2.831
	c0.262,0.015,0.539-0.06,0.795-0.141c2.186-0.688,3.403-2.16,3.342-4.026c-0.067-2.056-1.471-3.609-3.98-3.776
	c-1.98-0.132-3.212-0.292-3.249-2.815c-0.32-21.667,1.246-43.168,5.312-64.468c0.124-0.65,0.378-1.276,0.597-1.995
	c1.012,0.303,1.895,0.671,2.814,0.821c1.599,0.26,2.951-0.32,3.872-1.652c1.027-1.485,0.968-3.063,0.016-4.561
	c-0.354-0.558-0.819-1.171-1.385-1.447c-3.34-1.628-3.043-4.031-1.991-7.031c2.991-8.527,7.161-16.41,13.407-22.907
	c8.684-9.032,19.469-13.363,32.091-12.359c5.897,0.468,10.322,3.499,13.449,8.59c3.474,5.656,4.938,11.937,6.088,18.328
	c1.178,6.55,1.448,13.144,0.537,19.76c-0.444,3.226-0.448,3.249-3.548,3.603c-1.347,0.154-2.692,0.261-3.92,0.899
	c-1.979,1.028-2.903,2.758-2.47,4.609c0.439,1.875,1.93,2.807,4.357,2.689c0.537-0.026,1.078-0.113,1.601-0.238
	c2.03-0.486,2.324,0.559,2.052,2.223c-0.916,5.594-1.771,11.198-2.712,16.787c-1.886,11.199-3.023,22.485-3.517,33.816
	c-0.535,12.283,1.123,24.247,6.417,35.515c1.326,2.822,2.774,5.608,4.881,7.897c1.729,1.879,1.87,3.634,0.85,5.856
	c-0.665,1.45-1.146,3.033-1.149,4.693c-0.005,2.317,1.03,3.889,2.873,4.324c1.847,0.436,3.538-0.55,4.407-2.671
	c0.455-1.111,0.77-2.278,1.087-3.235c1.108-0.717,1.759-0.01,2.397,0.366c4.382,2.583,9.305,3.69,14.152,4.709
	c4.822,1.013,8.661-1.364,11.468-5.263c2.337-3.245,3.417-7.027,4.134-10.896c0.74-3.987,1.08-8.015,1.144-12.081
	c0.179-11.503-0.684-22.935-2.094-34.337c-0.376-3.037-0.377-3.024,2.444-3.903c1.413-0.441,2.883-0.79,4.194-1.447
	c1.973-0.988,2.75-2.854,2.232-4.7c-0.566-2.019-2.358-3.171-4.704-2.91c-0.931,0.104-1.841,0.412-2.755,0.648
	c-3.094,0.801-3.12,0.809-3.608-2.226c-0.964-5.996-1.877-12.001-2.844-17.997c-2.925-18.136-5.184-36.348-5.989-54.713
	c-0.385-8.784,0.081-17.55,0.931-26.295c0.3-3.083,0.409-3.109,3.481-2.178c1.548,0.469,3.091,1.04,4.679,1.268
	c2.371,0.34,4.181-0.838,4.783-2.809c0.663-2.169-0.322-4.127-2.805-5.094c-2.006-0.781-4.081-1.438-6.178-1.921
	c-1.956-0.45-2.641-1.347-2.34-3.408c2.525-17.276,6.454-34.203,12.32-50.664c0.555-1.558,1.205-2.687,3.094-3.279
	c2.696-0.845,3.408-2.821,2.347-5.474c-0.527-1.318-0.865-2.356-0.162-3.759c4.992-9.961,10.741-19.375,19.122-26.916
	c10.851-9.764,23.431-14.948,38.159-13.451c17.191,1.748,30.907,9.873,41.172,23.749c6.022,8.14,9.681,17.409,12.663,26.999
	c0.577,1.857,0.228,3.053-1.334,4.138c-1.772,1.231-3.464,2.582-5.142,3.942c-2.242,1.817-2.75,3.765-1.542,5.584
	c1.221,1.839,3.277,2.144,5.739,0.788c0.825-0.454,1.562-1.064,2.368-1.558c0.777-0.477,1.375-1.332,2.662-1.212
	c1.178,2.503,1.359,5.338,1.811,8.06c2.987,17.984,2.97,36.026,0.698,54.081c-0.758,6.025-1.816,12.012-2.524,18.042
	c-0.253,2.156-1.204,3.349-3.051,4.303c-2.875,1.485-5.657,3.161-8.421,4.849c-2.484,1.517-3.225,3.402-2.271,5.325
	c1.011,2.039,3.222,2.54,5.978,1.384c1.843-0.773,3.4-2.184,5.625-2.597c0.246,3.255-0.573,6.273-0.942,9.31
	c-2.294,18.892-4.738,37.767-6.991,56.664c-0.324,2.722-1.004,4.478-3.973,5.129c-2.615,0.573-5.102,1.737-7.64,2.652
	c-0.761,0.274-1.528,0.545-2.256,0.893c-3.116,1.487-4.313,3.729-3.233,5.991c1.092,2.288,3.416,2.716,6.617,1.198
	c2.685-1.273,5.498-2.129,8.675-2.871c0.442,2.59-0.025,4.948-0.213,7.307c-0.572,7.163-0.696,14.303,1.251,21.315
	c1.558,5.611,4.455,10.39,8.928,14.173c8.212,6.945,17.964,6.38,25.245-1.58c5.247-5.736,8.237-12.574,9.592-20.205
	c0.975-5.49,1.005-11.015,1.004-16.553c-0.002-5.039,0.002-5.035,4.725-3.935c0.789,0.184,1.582,0.368,2.383,0.474
	c2.855,0.377,4.821-0.768,5.342-3.07c0.508-2.247-0.803-4.258-3.562-5.063c-2.197-0.641-4.461-1.072-6.715-1.495
	c-1.562-0.294-2.285-1.015-2.288-2.702c-0.025-13.496-0.652-27.026,2.334-40.342c1.083-4.827,2.306-9.623,4.411-14.178
	c1.582,0.598,1.842,2.139,2.844,3.016c1.57,1.374,3.618,1.707,5.205,0.731c1.75-1.076,2.507-3.288,1.436-5.309
	c-1.132-2.135-2.586-4.106-3.978-6.093c-0.833-1.189-1.217-2.205-0.415-3.675c6.006-11.009,15.023-18.202,27.062-21.635
	c0.517-0.147,1.077-0.144,1.591-0.299c1.82-0.55,2.396,0.244,2.487,1.986c0.091,1.743,0.29,3.517,0.742,5.196
	c0.712,2.641,2.925,3.936,5.177,3.289c2.345-0.674,3.464-2.743,3.057-5.377c-0.209-1.353-1.733-3.043-0.099-4.007
	c1.29-0.76,2.742,0.704,4.036,1.358c3.175,1.607,5.849,3.851,8.09,6.621c9.347,11.557,14.007,25.104,16.794,39.453
	c0.27,1.39-0.101,2.294-1.437,2.928c-2.682,1.273-5.308,2.663-7.959,4.001c-0.964,0.486-1.973,0.895-2.896,1.449
	c-2.145,1.288-2.908,3.196-2.11,5.063c0.806,1.886,2.743,2.691,5.116,1.835c2.28-0.822,4.462-1.915,6.687-2.887
	c1.209-0.528,2.419-1.053,4.151-1.806C373.464,213.635,374.238,223.052,373.87,232.508z M224.578,446.422
	c-0.103,1.102-0.425,2.128-1.204,2.938c-3.179,3.3-6.352,6.606-9.584,9.852c-0.546,0.549-1.331,0.94-2.076,1.193
	c-1.717,0.582-3.227,0.091-4.312-1.339c-1.118-1.473-1.083-3.123,0.123-4.464c3.512-3.908,7.103-7.746,10.727-11.552
	c1.137-1.195,2.664-1.332,4.121-0.646C224.017,443.18,224.534,444.701,224.578,446.422z M207.173,310.931
	c-0.049,1.576-0.712,2.708-1.968,3.431c-1.579,0.909-3.185,0.742-4.53-0.402c-2.261-1.922-4.407-3.978-6.608-5.971
	c-1.193-1.08-2.328-2.165-3.863-2.873c-2.227-1.027-2.896-2.667-2.291-4.53c0.575-1.768,2.376-2.933,4.421-2.889
	c1.427,0.03,2.624,0.631,3.662,1.527c3.066,2.644,6.112,5.313,9.141,8.001C206.27,308.232,207.147,309.416,207.173,310.931z
	 M183.98,485.507c-0.375,2.106-2.042,3.515-4.255,3.597c-1.595,0.101-2.876-0.653-4.043-1.589c-2.941-2.36-5.887-4.717-8.749-7.172
	c-1.834-1.573-2.141-3.332-1.126-5.007c1.057-1.747,3.167-2.34,5.323-1.173c1.641,0.889,3.085,2.149,4.6,3.265
	c1.825,1.345,3.397,2.97,5.747,3.626C183.555,481.634,184.344,483.462,183.98,485.507z M188.492,81.487
	c-1.136-2.223-0.486-4.302,1.254-5.306c1.76-1.016,3.909-0.539,5.235,1.555c2.381,3.759,4.562,7.645,6.788,11.5
	c0.327,0.566,0.439,1.256,0.564,1.631c0.044,1.925-0.637,3.163-2.084,3.931c-1.31,0.696-2.634,0.609-3.815-0.259
	c-0.638-0.469-1.275-1.054-1.663-1.73C192.623,89.066,190.455,85.328,188.492,81.487z M205.818,395.868
	c-0.414,1.956-2.227,3.302-4.863,3.35c-0.443-0.102-1.296-0.138-1.997-0.484c-3.63-1.791-7.279-3.559-10.804-5.543
	c-2.155-1.213-2.723-3.344-1.775-5.154c0.86-1.642,2.776-2.341,4.93-1.675c0.892,0.276,1.696,0.821,2.563,1.193
	c2.966,1.272,5.708,3.018,8.898,3.838C205.283,392.039,206.266,393.753,205.818,395.868z M160.055,330.807
	c-2.079,2.953-4.593,5.613-7.409,7.901c-1.496,1.215-3.256,1.186-4.802-0.117c-1.389-1.171-1.777-3.081-0.587-4.721
	c2.123-2.926,4.484-5.686,7.207-8.092c0.71-0.628,1.655-0.864,2.485-0.867C160.021,325.053,161.814,328.308,160.055,330.807z
	 M297.326,314.755c0.695,2.084,0.435,4.247,0.724,6.374c0,1.204,0.052,2.41-0.012,3.61c-0.107,2.006-1.252,3.209-3.163,3.62
	c-1.689,0.363-3.531-0.618-4.125-2.448c-1.181-3.635-1.037-7.411-0.482-11.123c0.262-1.751,1.702-2.751,3.497-2.746
	C295.541,312.046,296.747,313.019,297.326,314.755z M183.427,149.119c-2.729-1.736-4.913-4.2-6.619-6.95
	c-1.106-1.784-0.504-4.034,1.052-5.031c1.682-1.078,3.362-0.9,4.787,0.474c1.838,1.772,3.601,3.623,5.361,5.474
	c0.756,0.796,1.23,1.76,1.246,2.897C189.254,148.905,186.042,150.782,183.427,149.119z"/>
<g>
</g>
<g>
</g>
<g>
</g>
<g>
</g>
<g>
</g>
<g>
</g>
</svg>
