<?xml version="1.0" encoding="UTF-8"?>
<!-- Generator: visioncortex VTracer 0.6.3 -->
<svg version="1.1" xmlns="http://www.w3.org/2000/svg" width="972" height="1280">
<path d="M0 0 C5.06 4.81 9.82 9.77 14.31 15.12 C14.78 15.67 15.24 16.21 15.72 16.78 C29.45 33 41.63 50.17 51.31 69.12 C51.93 70.32 51.93 70.32 52.56 71.54 C63.33 92.65 71.28 114.96 76.31 138.12 C76.52 139.05 76.73 139.98 76.95 140.94 C83.69 172.19 83.91 210.01 76.31 241.12 C76.03 242.28 75.74 243.45 75.45 244.65 C73.3 253.21 70.9 261.68 68.31 270.12 C67.88 271.53 67.88 271.53 67.44 272.97 C60.8 294.24 50.7 313.66 38.31 332.12 C37.39 333.51 36.48 334.9 35.56 336.29 C25.78 350.98 14.51 364.39 2.31 377.12 C1.53 377.94 0.75 378.76 -0.05 379.61 C-4.84 384.53 -9.93 388.9 -15.31 393.17 C-17.65 395.01 -17.65 395.01 -19.39 396.88 C-20.69 398.12 -20.69 398.12 -22.69 398.12 C-20.1 401.08 -17.13 402.63 -13.69 404.49 C7.42 416.26 26.86 431.57 45.31 447.12 C46.37 448.01 47.44 448.9 48.5 449.79 C54.36 454.7 60.14 459.69 65.8 464.85 C67.89 466.73 69.99 468.59 72.11 470.43 C76.2 473.99 80.17 477.66 84.12 481.37 C85.16 482.34 85.16 482.34 86.22 483.34 C94.62 491.27 102.84 499.29 110.31 508.12 C111.12 509.04 111.93 509.96 112.76 510.9 C128.53 528.95 145.54 551.07 145.31 576.12 C143.81 586.67 139.54 594.36 131.31 601.12 C116.74 610.64 99.09 610.72 82.56 607.56 C57.47 602.29 34.75 590.89 13.31 577.12 C13.67 578.67 13.67 578.67 14.03 580.26 C14.92 584.16 15.8 588.05 16.67 591.95 C17.05 593.63 17.43 595.31 17.82 596.98 C19.8 605.68 21.74 614.19 22.31 623.12 C22.98 622.81 23.65 622.5 24.34 622.19 C33.35 618.19 43.52 617.52 53.12 619.78 C55.4 620.69 57.28 621.73 59.31 623.12 C60 623.58 60.7 624.04 61.41 624.52 C71.24 632.05 74.71 644.44 76.87 656.15 C81.73 699.86 67.86 748.71 40.58 783.23 C32 793.67 22.02 802.9 11.31 811.12 C10.41 811.83 9.52 812.54 8.6 813.27 C-20.35 835.8 -20.35 835.8 -35.69 837.12 C-54.55 832.16 -72.92 817.35 -87.49 804.86 C-95.14 798.8 -105.1 799.56 -114.36 800.54 C-115.96 800.74 -117.56 800.94 -119.17 801.14 C-120.99 801.36 -122.82 801.58 -124.65 801.8 C-127.44 802.14 -130.23 802.48 -133.03 802.83 C-161.36 806.34 -189.6 807.48 -218.12 807.43 C-221.28 807.43 -224.45 807.44 -227.61 807.45 C-259.76 807.64 -291.37 805.21 -323.21 800.89 C-333.16 799.64 -342 799.26 -350.32 805.68 C-351.5 806.67 -352.66 807.67 -353.82 808.68 C-384.99 834.69 -384.99 834.69 -400.69 837.12 C-407.08 836.42 -412.44 834.08 -418 830.99 C-418.74 830.59 -419.48 830.19 -420.23 829.78 C-435.34 821.45 -449.18 810.98 -461.69 799.12 C-462.57 798.29 -463.46 797.46 -464.37 796.6 C-493.09 768.81 -507.42 731.25 -512.69 692.12 C-512.82 691.19 -512.95 690.26 -513.09 689.3 C-515.35 669.79 -515.5 646.61 -503.25 630.24 C-497.97 623.86 -492.06 619.35 -483.69 618.12 C-481.6 618.15 -479.52 618.26 -477.44 618.43 C-475.85 618.55 -475.85 618.55 -474.24 618.67 C-471.4 619.03 -468.75 619.51 -465.97 620.15 C-464.76 620.42 -464.76 620.42 -463.53 620.7 C-462.62 620.9 -462.62 620.9 -461.69 621.12 C-461.42 619.89 -461.16 618.67 -460.88 617.4 C-459.89 612.86 -458.89 608.31 -457.9 603.77 C-457.47 601.8 -457.04 599.83 -456.61 597.86 C-455.99 595.03 -455.38 592.21 -454.76 589.38 C-454.57 588.5 -454.37 587.62 -454.18 586.71 C-454 585.89 -453.82 585.07 -453.63 584.22 C-453.47 583.5 -453.31 582.78 -453.15 582.03 C-452.69 580.12 -452.69 580.12 -451.69 577.12 C-452.56 577.65 -452.56 577.65 -453.44 578.18 C-482.58 595.87 -518.17 615.16 -553.5 607.93 C-564.73 604.95 -573.54 599.85 -580.1 589.99 C-584.78 580.84 -584.62 569.78 -581.69 560.12 C-570.82 526.71 -541.17 496.32 -514.83 473.98 C-512.53 471.98 -510.3 469.9 -508.07 467.82 C-502.69 462.8 -497.23 458 -491.5 453.39 C-488.95 451.33 -486.45 449.22 -483.96 447.09 C-477.06 441.18 -469.98 435.54 -462.69 430.12 C-462.02 429.62 -461.36 429.12 -460.67 428.61 C-422.35 400.12 -422.35 400.12 -414.69 400.12 C-418.57 395.14 -422.91 391.21 -427.69 387.12 C-438.29 377.82 -447.95 368.19 -456.69 357.12 C-457.58 356.02 -458.46 354.93 -459.35 353.84 C-503.06 299.58 -523.26 230.48 -516.05 161.26 C-514.13 144.48 -510.65 128.25 -505.69 112.12 C-505.44 111.29 -505.19 110.47 -504.93 109.62 C-495.55 79.41 -479.52 51.63 -459.69 27.12 C-458.49 25.6 -458.49 25.6 -457.26 24.05 C-445.8 9.73 -432.88 -4.21 -418.69 -15.88 C-418.18 -16.31 -417.67 -16.73 -417.14 -17.17 C-368.34 -57.64 -308.32 -79.72 -245.69 -85.88 C-244.98 -85.96 -244.26 -86.03 -243.53 -86.1 C-153.9 -95.05 -64.95 -60.91 0 0 Z M-267.69 -75.88 C-268.7 -75.72 -269.7 -75.56 -270.74 -75.39 C-322.74 -66.81 -372.18 -44.59 -412.69 -10.88 C-413.2 -10.46 -413.71 -10.04 -414.23 -9.61 C-427.65 1.46 -439.94 13.42 -450.69 27.12 C-451.39 27.94 -452.09 28.76 -452.81 29.61 C-463.81 42.53 -472.86 57.09 -480.69 72.12 C-481.12 72.93 -481.54 73.74 -481.98 74.57 C-510.61 129.56 -517.52 194.22 -501.69 254.12 C-501.48 254.94 -501.26 255.77 -501.04 256.62 C-492.08 290.42 -475.51 323.53 -452.69 350.12 C-451.87 351.12 -451.05 352.12 -450.21 353.15 C-438.46 367.38 -425.37 380.89 -410.69 392.12 C-409.63 392.98 -408.57 393.84 -407.51 394.7 C-393.92 405.75 -379.13 414.89 -363.69 423.12 C-362.5 423.76 -362.5 423.76 -361.28 424.41 C-336.16 437.83 -309.29 447.03 -281.44 452.81 C-280.54 453 -279.64 453.19 -278.71 453.38 C-258.42 457.37 -238.08 458.67 -217.44 458.56 C-216.29 458.55 -215.13 458.55 -213.94 458.55 C-196.19 458.48 -179.13 457.68 -161.69 454.12 C-160.13 453.82 -160.13 453.82 -158.53 453.52 C-110.09 444.19 -64 423.23 -25.69 392.12 C-25.17 391.7 -24.65 391.29 -24.12 390.86 C-8.2 378.02 7.11 363.36 19.11 346.76 C20.34 345.07 21.62 343.42 22.92 341.77 C49.12 307.9 64.08 267.96 71.31 226.12 C71.53 224.94 71.53 224.94 71.75 223.74 C80.74 173.52 68.21 116.47 44.31 72.12 C43.97 71.48 43.63 70.83 43.28 70.17 C31.69 48.46 17.4 28.81 0.31 11.12 C-0.59 10.19 -0.59 10.19 -1.51 9.24 C-9.18 1.33 -16.95 -6.15 -25.69 -12.88 C-26.69 -13.68 -27.7 -14.48 -28.73 -15.3 C-69.67 -47.64 -118.42 -67.42 -169.69 -75.88 C-170.67 -76.05 -171.65 -76.22 -172.66 -76.39 C-203.4 -81.41 -236.99 -80.95 -267.69 -75.88 Z M-427 413.93 C-427.77 414.41 -428.54 414.88 -429.34 415.37 C-443.49 424.25 -456.68 434.66 -469.69 445.12 C-470.62 445.86 -471.55 446.61 -472.5 447.38 C-482.98 455.87 -493.23 464.62 -503.08 473.85 C-505.75 476.34 -508.45 478.77 -511.23 481.15 C-516.84 486.03 -522.08 491.32 -527.34 496.58 C-529.12 498.36 -530.9 500.13 -532.69 501.9 C-539.49 508.66 -545.81 515.53 -551.69 523.12 C-552.22 523.79 -552.74 524.46 -553.28 525.15 C-564.56 539.75 -577.03 556.82 -576.1 576.08 C-574.98 584.46 -571.9 590.09 -565.3 595.43 C-552.18 603.93 -535.44 603.04 -520.69 600.12 C-507.39 597.05 -494.92 592.1 -482.69 586.12 C-481.86 585.71 -481.03 585.31 -480.17 584.9 C-466.88 578.38 -454.7 570.76 -442.69 562.12 C-443.35 569.37 -444.69 576.34 -446.23 583.45 C-446.73 585.82 -447.23 588.19 -447.74 590.55 C-448.53 594.26 -449.32 597.96 -450.12 601.67 C-450.89 605.26 -451.66 608.85 -452.42 612.45 C-452.66 613.56 -452.9 614.67 -453.15 615.81 C-453.37 616.85 -453.59 617.88 -453.81 618.94 C-454 619.85 -454.2 620.75 -454.4 621.69 C-454.7 624.22 -454.61 625.75 -453.69 628.12 C-451.24 630.35 -451.24 630.35 -448.25 632.37 C-447.26 633.07 -446.28 633.78 -445.26 634.51 C-442.91 636.29 -442.91 636.29 -440.69 636.12 C-440.22 635.22 -439.74 634.33 -439.26 633.41 C-432.74 621.38 -424.54 609.2 -411.19 604.24 C-402.28 601.71 -395.06 603.46 -386.69 607.12 C-381.74 610.1 -377.64 613.92 -373.69 618.12 C-373.86 617.54 -374.03 616.97 -374.21 616.38 C-387.57 569.54 -385.64 521.53 -362.19 478.09 C-356.38 467.74 -349.18 458.44 -341.5 449.42 C-339.89 447.37 -338.74 445.49 -337.69 443.12 C-339.96 441.97 -342.23 440.82 -344.5 439.68 C-345.22 439.32 -345.94 438.95 -346.68 438.58 C-350.48 436.68 -354.3 434.82 -358.17 433.07 C-372.67 426.51 -386.81 418.74 -399.62 409.26 C-409.08 402.67 -418.37 408.57 -427 413.93 Z M-36.13 408.81 C-37.09 409.44 -38.06 410.08 -39.05 410.73 C-39.9 411.29 -39.9 411.29 -40.76 411.85 C-59.01 423.77 -77.37 434.21 -97.69 442.12 C-97.69 446.42 -95.11 448.49 -92.44 451.62 C-62.85 487.57 -49.94 532.73 -54.15 578.97 C-55.33 589.49 -57.63 599.5 -60.8 609.6 C-61.06 610.42 -61.31 611.25 -61.58 612.1 C-61.82 612.83 -62.06 613.56 -62.3 614.31 C-62.91 616.21 -62.91 616.21 -61.69 618.12 C-60.91 617.09 -60.12 616.06 -59.32 614.99 C-53.06 607.72 -44.95 603.96 -35.55 602.87 C-26.91 602.38 -19.25 605.96 -12.62 611.31 C-5.04 618.4 -0.29 626.95 4.31 636.12 C7 634.82 9.52 633.43 12 631.74 C12.6 631.34 13.2 630.94 13.82 630.53 C15.73 628.72 15.92 627.72 16.31 625.12 C15.97 622.25 15.97 622.25 15.25 619.11 C14.86 617.29 14.86 617.29 14.47 615.44 C14.18 614.12 13.89 612.81 13.6 611.49 C13.31 610.13 13.02 608.78 12.73 607.42 C11.96 603.86 11.19 600.3 10.41 596.74 C9.78 593.83 9.15 590.93 8.53 588.02 C7.78 584.55 7.04 581.08 6.29 577.61 C6.14 576.95 6 576.29 5.85 575.61 C5.45 573.74 5.04 571.87 4.63 569.99 C4.28 568.4 4.28 568.4 3.93 566.77 C3.33 564.03 3.33 564.03 2.31 561.12 C3.2 561.72 4.08 562.33 4.99 562.95 C34.78 583.17 73.11 606.72 110.75 601.43 C119.76 599.59 128.11 596.01 133.59 588.32 C138.15 580.69 138.33 572.63 136.73 564 C130.98 543 115.66 524.05 100.78 508.66 C99.12 506.92 97.49 505.15 95.87 503.37 C90.16 497.15 84.44 491.1 78.06 485.56 C75.14 482.97 72.31 480.3 69.47 477.61 C63.51 471.95 57.5 466.47 51.06 461.34 C48.45 459.23 45.91 457.05 43.38 454.84 C35.97 448.38 28.26 442.45 20.35 436.63 C18.3 435.11 16.26 433.56 14.23 432.01 C3.19 423.59 -7.93 415.87 -20.32 409.56 C-20.99 409.21 -21.67 408.86 -22.36 408.5 C-27.9 405.77 -31 405.32 -36.13 408.81 Z M-336.44 453.68 C-357.84 473.95 -369.17 504.95 -374.69 533.12 C-374.87 534.01 -375.05 534.91 -375.23 535.83 C-375.8 539.93 -375.91 543.95 -375.96 548.08 C-375.98 548.94 -375.99 549.81 -376 550.69 C-376.35 577.77 -376.35 577.77 -370.69 604.12 C-370.37 605.1 -370.05 606.08 -369.72 607.08 C-366.85 615.63 -363.91 624.14 -359.69 632.12 C-355.68 631.48 -352.86 629.43 -349.5 627.24 C-338.89 620.61 -329.2 618.53 -316.69 620.12 C-309.26 622.16 -303.85 626.7 -299.69 633.12 C-290.29 651.24 -290.16 673.32 -292.76 693.19 C-292.66 697.22 -291.73 699.64 -289.69 703.12 C-287.15 704.85 -285.09 706 -282.32 707.18 C-281.58 707.51 -280.84 707.84 -280.07 708.18 C-267.34 713.64 -253.46 717.52 -239.69 719.12 C-238.84 719.23 -238 719.34 -237.12 719.45 C-210.92 722.38 -182.98 718.73 -158.5 709.06 C-157.67 708.73 -156.84 708.4 -155.98 708.06 C-151.82 706.32 -148.53 704.76 -145.69 701.12 C-144.44 697.37 -144.62 693.93 -144.7 690.04 C-144.72 688.39 -144.73 686.73 -144.75 685.08 C-144.78 682.49 -144.81 679.91 -144.86 677.32 C-145.1 663.21 -144.79 649.31 -137.94 636.56 C-137.59 635.88 -137.24 635.21 -136.88 634.52 C-133 627.36 -128.26 623.25 -120.69 620.12 C-110.27 617.1 -99.24 619.99 -89.94 624.99 C-85.45 627.58 -81.08 630.36 -76.69 633.12 C-68.73 615.61 -62.32 597.41 -60.69 578.12 C-60.62 577.37 -60.56 576.63 -60.49 575.86 C-57.09 534.89 -67.36 494.76 -92.69 462.12 C-93.39 461.21 -94.1 460.29 -94.82 459.36 C-98.9 454.4 -102.33 451.37 -108.69 450.12 C-114.9 449.62 -120.4 450.51 -126.37 452.16 C-128.03 452.6 -129.68 453.04 -131.34 453.47 C-132.19 453.7 -133.04 453.93 -133.92 454.16 C-161.52 461.51 -188.61 465.35 -217.19 465.31 C-217.98 465.3 -218.76 465.3 -219.58 465.3 C-251.66 465.22 -281.95 459.61 -312.95 451.53 C-322.03 449.2 -328.55 447.67 -336.44 453.68 Z M-424.69 622.12 C-430.81 630.08 -435.45 639.05 -439.69 648.12 C-440.41 647.42 -441.12 646.72 -441.86 645.99 C-448.93 639.2 -456.02 633.8 -464.69 629.12 C-465.4 628.74 -466.1 628.35 -466.83 627.96 C-473.15 625.09 -481.21 624.82 -487.83 626.74 C-495.8 630.79 -500.91 638.9 -503.69 647.12 C-514.13 682.85 -500.79 728.63 -483.51 760.29 C-478.46 769.13 -472.76 776.76 -465.69 784.12 C-464.66 785.34 -463.64 786.57 -462.63 787.81 C-459.33 791.67 -455.57 794.86 -451.69 798.12 C-450.38 799.26 -450.38 799.26 -449.04 800.43 C-427.4 819.42 -427.4 819.42 -401.69 828.12 C-400.7 828.45 -399.71 828.78 -398.69 829.12 C-396.81 828.46 -396.81 828.46 -394.88 827.31 C-394.14 826.9 -393.4 826.48 -392.64 826.06 C-391.85 825.6 -391.06 825.15 -390.25 824.68 C-389.44 824.22 -388.63 823.76 -387.79 823.28 C-366.7 811.16 -346.31 795.77 -331.69 776.12 C-330.57 774.63 -330.57 774.63 -329.42 773.11 C-319.45 759.32 -313.08 744.18 -307.69 728.12 C-307.45 727.41 -307.21 726.7 -306.97 725.97 C-301.8 710.35 -298.25 693.59 -297.69 677.12 C-297.64 676.03 -297.59 674.94 -297.53 673.82 C-297.16 659.88 -299.11 642.65 -309.13 632.06 C-315.29 626.67 -320.25 625.55 -328.39 625.78 C-342.88 627.27 -354.62 638.44 -364.69 648.12 C-364.95 647.6 -365.2 647.09 -365.47 646.56 C-376.34 623.73 -376.34 623.73 -396.69 610.12 C-409.01 608.98 -416.44 613.02 -424.69 622.12 Z M-56.69 622.12 C-62.62 630.3 -67.22 638.58 -70.69 648.12 C-74.75 645.17 -78.66 642.19 -82.32 638.74 C-91.23 630.77 -101.42 625.7 -113.4 625.85 C-119.88 626.38 -123.87 628.99 -128.38 633.56 C-141.08 649.05 -139.1 673.54 -137.39 692.44 C-135.68 705.66 -131.94 718.52 -127.69 731.12 C-127.45 731.83 -127.21 732.55 -126.96 733.28 C-112.99 774.16 -84.73 801.09 -48.63 823.12 C-48.02 823.49 -47.41 823.87 -46.79 824.25 C-40.49 828.03 -35.99 829.88 -28.69 828.12 C-26.09 826.91 -23.71 825.69 -21.25 824.24 C-20.57 823.85 -19.88 823.45 -19.17 823.04 C-7.31 816.08 3.93 808.15 14.31 799.12 C15.31 798.25 16.31 797.39 17.33 796.5 C24.06 790.57 29.85 784.26 35.31 777.12 C36.47 775.63 36.47 775.63 37.65 774.11 C62.58 741.62 73.38 695.74 68.99 655.19 C67.31 644.92 63.41 635.87 55.31 629.12 C48.63 625.16 41.24 624.93 33.74 626.74 C21.85 631.05 12.28 639.5 3.31 648.12 C0.85 645.66 -0.04 643.3 -1.44 640.12 C-7.22 627.43 -14.06 615.48 -27.69 610.12 C-40.49 608.1 -48.69 612.4 -56.69 622.12 Z M-294.81 713.77 C-296.91 716.4 -297.76 718.5 -298.73 721.71 C-299.08 722.81 -299.43 723.92 -299.78 725.05 C-300.14 726.23 -300.51 727.41 -300.88 728.62 C-308.46 752.2 -318.39 771.49 -334.69 790.12 C-331.48 792.26 -329.77 792.59 -326.01 793.12 C-324.85 793.28 -323.69 793.45 -322.5 793.62 C-321.28 793.78 -320.07 793.95 -318.82 794.12 C-317.67 794.28 -316.52 794.45 -315.34 794.62 C-296.22 797.29 -277.1 798.54 -257.82 799.24 C-256.7 799.28 -255.58 799.33 -254.43 799.37 C-210.94 800.97 -168.09 799.45 -124.88 794.37 C-122.56 794.1 -120.24 793.84 -117.92 793.58 C-116.38 793.41 -114.83 793.23 -113.28 793.06 C-112.56 792.98 -111.84 792.9 -111.1 792.81 C-108.15 792.47 -105.52 792.06 -102.69 791.12 C-104.11 787.84 -106.1 785.17 -108.27 782.35 C-113.04 776.12 -117.27 769.74 -121.07 762.87 C-121.46 762.16 -121.85 761.45 -122.25 760.72 C-128.25 749.64 -132.5 738.23 -136.38 726.26 C-136.94 724.6 -136.94 724.6 -137.51 722.91 C-137.83 721.91 -138.16 720.92 -138.49 719.9 C-139.84 716.77 -141.3 714.55 -143.69 712.12 C-149.84 712.09 -154.99 714.17 -160.63 716.43 C-179.43 723.64 -198.6 726.55 -218.69 726.49 C-219.46 726.49 -220.22 726.49 -221.01 726.49 C-241.9 726.41 -260.08 722.15 -279.69 715.12 C-281.31 714.54 -282.92 713.97 -284.55 713.4 C-285.25 713.16 -285.95 712.91 -286.67 712.65 C-290.02 711.76 -292.04 711.61 -294.81 713.77 Z " fill="#000000" transform="translate(705.6904296875,356.88232421875)"/>
<path d="M0 0 C0.69 0.29 1.37 0.59 2.08 0.89 C10.98 4.8 18.83 9.36 26 16 C26.47 16.43 26.95 16.87 27.44 17.31 C39.82 28.74 47.95 41.84 55 57 C55.82 58.71 55.82 58.71 56.66 60.46 C68.04 85.38 70.43 114.15 73.8 141.07 C73.95 142.28 74.1 143.5 74.26 144.75 C75.01 150.8 75.75 156.86 76.46 162.91 C78.2 181.95 78.2 181.95 84 200 C86.31 200 88.62 200 91 200 C91.07 199.16 91.13 198.32 91.2 197.46 C91.84 189.37 92.49 181.29 93.14 173.21 C93.47 169.06 93.81 164.91 94.13 160.75 C95.52 143.21 97.03 125.71 99.09 108.23 C99.18 107.53 99.26 106.83 99.34 106.1 C102.85 76.51 111.24 47.4 132 25 C132.83 24.08 133.66 23.16 134.52 22.21 C149.84 5.96 170.86 -4.31 193.25 -5.38 C226.67 -6.27 259 1.15 285 23 C285.92 23.76 286.84 24.51 287.79 25.29 C295.27 31.75 301.23 39.03 307 47 C307.43 47.59 307.85 48.18 308.29 48.79 C327.12 75.14 338.84 105.89 343 138 C343.11 138.84 343.22 139.67 343.34 140.53 C349 191.32 331.73 241.32 300.47 280.94 C296.82 285.47 293.03 289.8 289 294 C288.35 294.68 287.7 295.37 287.03 296.07 C276.41 307.15 265.57 317.18 253 326 C252.39 326.44 251.78 326.87 251.14 327.32 C210.96 355.74 163.81 371.9 115 377 C114.13 377.09 113.26 377.19 112.36 377.29 C103.06 378.18 93.77 378.24 84.44 378.25 C83.58 378.25 82.72 378.25 81.84 378.25 C50.61 378.21 19.75 373.64 -10 364 C-10.87 363.72 -11.74 363.44 -12.64 363.15 C-71.71 343.62 -126.67 303.46 -155.12 247.19 C-174.96 206.77 -182.77 161.33 -172 117 C-171.8 116.15 -171.59 115.31 -171.38 114.43 C-163.49 82.92 -147.43 53.45 -125 30 C-124.15 29.11 -123.31 28.23 -122.44 27.31 C-121.63 26.55 -120.83 25.79 -120 25 C-119.47 24.48 -118.93 23.96 -118.38 23.43 C-104.24 10.32 -85.56 2.41 -67 -2 C-66.31 -2.17 -65.61 -2.33 -64.9 -2.5 C-44.67 -7.03 -19.25 -8.53 0 0 Z M-72 7 C-72.7 7.21 -73.39 7.42 -74.11 7.63 C-109.27 18.63 -132.78 45.09 -149.46 76.91 C-167.76 113.01 -173.66 154.26 -166 194 C-165.86 194.75 -165.71 195.5 -165.56 196.27 C-159.28 227.69 -144.22 257.99 -123 282 C-122.34 282.75 -122.34 282.75 -121.67 283.51 C-115.89 290.01 -109.96 296.19 -103.4 301.91 C-101.83 303.27 -100.3 304.67 -98.79 306.09 C-87.25 316.96 -73.76 326.17 -60 334 C-59.34 334.38 -58.68 334.75 -58 335.14 C-29.6 351.2 1.88 361.63 34 367 C35.41 367.24 35.41 367.24 36.85 367.48 C68.33 372.64 101.58 372.66 133 367 C134.52 366.74 134.52 366.74 136.07 366.47 C165.11 361.3 194.04 352.09 220 338 C220.77 337.59 221.53 337.17 222.33 336.74 C238.43 327.92 253.32 317.23 267 305 C267.53 304.53 268.06 304.05 268.61 303.56 C272.11 300.42 275.57 297.22 279 294 C279.66 293.39 280.31 292.77 280.99 292.14 C293.28 280.28 303.46 265.72 312 251 C312.66 249.87 313.32 248.74 314 247.58 C323.08 231.57 329.12 213.96 333 196 C333.25 194.88 333.25 194.88 333.5 193.75 C339.27 166.22 337.45 135.74 329 109 C328.76 108.25 328.53 107.5 328.28 106.72 C320.12 81.28 308.19 57.76 290 38 C289.36 37.28 288.72 36.56 288.06 35.82 C274.19 20.96 254.67 10.62 235 6 C233.8 5.7 232.6 5.41 231.36 5.1 C221.09 2.85 210.72 2.66 200.25 2.56 C199.2 2.54 199.2 2.54 198.13 2.53 C175.66 2.19 156.66 11.04 140.54 26.34 C123.28 44.56 112.93 67.79 109.03 92.36 C108.85 93.45 108.68 94.53 108.5 95.65 C106.61 107.97 105.44 120.34 104.31 132.75 C104.1 135.03 103.88 137.31 103.67 139.59 C102.19 155.29 102.19 155.29 101 171 C100.86 172.94 100.86 172.94 100.72 174.92 C100.48 178.48 100.32 182.03 100.21 185.59 C100.15 187.04 100.07 188.49 99.96 189.94 C99.19 198.17 99.19 198.17 102.23 205.52 C105.76 208.69 109.8 210.83 114 213 C115.84 214.13 117.68 215.28 119.5 216.44 C124.22 219.27 128.44 221.17 133.98 221.53 C135.39 221.63 135.39 221.63 136.82 221.74 C138.76 221.87 140.7 222 142.63 222.12 C151.6 222.8 159.68 224.23 166 231 C168.78 235.91 170.07 241.4 169 247 C166.57 253.95 163.12 258.88 157 263 C154.11 264.29 151.17 265.15 148.12 266 C141.22 268.12 135.7 270.47 130 275 C117.73 284.38 104.72 291.13 89 292 C87.26 292.1 87.26 292.1 85.48 292.2 C67.59 292.86 52.47 287.2 38.62 275.94 C33.02 271.38 27.4 268.83 20.66 266.36 C4.48 260.36 4.48 260.36 0 252 C-2.18 247.01 -3.01 242.3 -1.38 236.99 C1.41 230.5 6.18 226.62 12.61 223.89 C18.03 222.46 23.54 222.25 29.12 221.88 C38.92 221.09 45.55 217.97 53.62 212.5 C61.39 207.29 61.39 207.29 65.34 205.41 C68.26 203.86 69.27 202.78 71 200 C73.56 189.83 71.22 178.54 69.94 168.31 C69.71 166.42 69.48 164.52 69.25 162.62 C61.41 81.78 61.41 81.78 16.31 17.29 C-8.26 -0.46 -43.65 -1.59 -72 7 Z M60 216 C58.26 217.17 56.51 218.34 54.75 219.49 C53.58 220.26 52.42 221.05 51.26 221.84 C42.38 227.74 33.33 228.56 22.91 229.17 C16.22 229.65 11.33 230.43 6.62 235.62 C4.54 239.95 4.19 243.28 5 248 C8.41 255.53 15.21 257.31 22.41 260.11 C31.54 263.67 39.36 267.73 46.94 274.06 C59.16 284.09 74.24 286.78 89.73 285.75 C103.67 284.04 114.34 278.31 125.44 269.94 C133.57 263.94 142.59 260.67 152.05 257.31 C155.94 255.58 158.92 253.64 161.28 250.05 C162.69 246.03 162.72 242.17 162 238 C159.82 233.76 157.43 231.53 152.96 229.87 C147.23 228.4 141.24 228.3 135.36 227.96 C125.69 227.25 118.13 224.23 110.38 218.5 C94.09 206.84 77.18 204.36 60 216 Z " fill="#000000" transform="translate(404,409)"/>
<path d="M0 0 C5.94 3.99 10.18 8.44 12.48 15.29 C13.86 22.46 12.96 29.89 9.29 36.25 C5.54 41.32 0.24 45.61 -6 47 C-14.63 48.02 -21.92 47.33 -29 42 C-34.42 36.41 -37.28 30.66 -37.44 22.81 C-37.3 15.34 -35.35 9.76 -30.36 4.16 C-21.55 -3.95 -10.64 -5.44 0 0 Z " fill="#000000" transform="translate(654,552)"/>
<path d="M0 0 C5.69 4.12 9.9 9.44 11.29 16.36 C12.51 24.23 11.51 30.54 6.89 37.12 C2.12 42.72 -2.99 45.75 -10.29 46.84 C-18.62 47.22 -25.39 45.51 -31.73 39.95 C-36.64 34.53 -39.09 27.63 -39.11 20.37 C-38.55 13.42 -36 8.31 -31.11 3.37 C-21.83 -4.05 -10.6 -5.89 0 0 Z " fill="#000000" transform="translate(347.11328125,552.6328125)"/>
</svg>
