<?xml version="1.0" encoding="UTF-8"?>
<!-- Generator: visioncortex VTracer 0.6.3 -->
<svg version="1.1" xmlns="http://www.w3.org/2000/svg" width="988" height="1280">
<path d="M0 0 C5.22 2.74 9.15 5.72 13.27 9.91 C13.84 10.48 14.41 11.05 14.99 11.63 C16.19 12.83 17.38 14.03 18.57 15.23 C20.35 17.04 22.15 18.84 23.95 20.63 C30.75 27.45 37.04 34.43 43 42 C43.9 43.09 44.81 44.17 45.71 45.25 C60.48 63.52 69.44 84.24 67 108 C65.7 117.01 63.08 124.98 58.07 132.67 C56.18 136.79 58.07 140.42 59.5 144.5 C61.46 150.06 62.14 155.16 62.32 161.05 C62.35 162.04 62.35 162.04 62.38 163.05 C62.44 165.14 62.5 167.22 62.56 169.31 C62.61 170.74 62.65 172.16 62.69 173.58 C62.8 177.05 62.9 180.53 63 184 C64.03 184.38 65.06 184.76 66.12 185.15 C87.37 193.07 102.17 207.02 111.76 227.52 C116.13 237.51 118.35 248.13 120.6 258.76 C120.87 260.01 121.14 261.26 121.42 262.55 C121.65 263.67 121.89 264.79 122.13 265.95 C123.26 269.92 124.54 273.07 128.09 275.33 C128.84 275.63 129.6 275.94 130.38 276.25 C131.56 276.73 131.56 276.73 132.77 277.22 C135.16 278.06 137.48 278.68 140 279 C139 282 139 282 136.75 283.69 C126.61 287.24 117.72 284.51 108 281 C108.62 287.74 109.27 294.47 109.92 301.21 C110.14 303.49 110.35 305.77 110.56 308.05 C111.64 319.68 112.84 331.23 115.02 342.71 C115.25 343.97 115.25 343.97 115.5 345.26 C117.31 354.29 120.41 362.6 126 370 C126.56 370.85 127.11 371.69 127.69 372.56 C130.94 376 134.8 377.89 139 380 C134.56 384.44 127.76 384.2 121.81 384.38 C110.74 384.21 101.32 380.87 92 375 C92.53 390.33 96.01 403.88 102.51 417.71 C103.64 420.2 104.5 422.33 105 425 C103.68 424.67 102.36 424.34 101 424 C102.62 426.65 104.24 429.29 105.88 431.94 C106.57 433.07 106.57 433.07 107.27 434.22 C107.71 434.94 108.16 435.66 108.62 436.4 C109.03 437.07 109.43 437.73 109.85 438.42 C110.93 440.16 110.93 440.16 113 441 C137.67 442.9 157.57 439 179.89 428.75 C186.66 425.65 193.54 423.04 200.56 420.56 C202.25 419.97 202.25 419.97 203.96 419.36 C239.35 407.07 277.07 399.1 312.32 416.14 C315.66 417.21 317.65 416.97 321 416 C322.69 414.69 322.69 414.69 324 412.94 C333.53 402.76 348.31 397.16 362.02 396.53 C379.32 396.26 392.1 403.64 404.25 415.27 C407.05 418.05 409.69 420.89 412.23 423.91 C414.42 426.5 416.71 428.99 419 431.5 C421.85 434.62 424.67 437.75 427.44 440.94 C428.62 442.29 429.81 443.65 431 445 C431.83 445.95 432.67 446.9 433.52 447.88 C443.89 459.56 455.12 469.86 471.47 471.2 C480.94 471.37 489.66 469.61 498 465 C498.66 465 499.32 465 500 465 C498.6 475.88 492.25 484.09 484 491 C478.29 495 478.29 495 475 495 C475.44 495.53 475.87 496.07 476.32 496.62 C488.95 512.42 494.43 527.76 493 548 C491.31 562.66 486.49 576.7 482.04 590.7 C473.84 616.39 473.84 616.39 470 643 C469.95 643.75 469.89 644.5 469.84 645.27 C469.28 660.05 473.36 676.51 482.93 687.97 C489.66 694.56 498.42 698.4 507 702 C503.77 704.75 500.73 705.92 496.69 707.12 C495.6 707.46 494.51 707.79 493.39 708.13 C472.46 713.49 448.8 710.52 430 700 C416.39 691.57 408.58 680.27 402 666 C397.56 685.6 399.51 706.43 403 726 C403.57 725.86 404.14 725.72 404.72 725.58 C414.44 723.28 424.53 722.27 433.82 726.61 C441.67 731.6 445.65 739.46 447.79 748.26 C449.85 758.49 450.54 768.48 450.85 778.89 C452.58 834.6 461.69 889.77 483.39 941.41 C487.07 950.25 490.42 960.56 487.32 970.08 C487.05 970.65 486.78 971.22 486.5 971.81 C482.54 980.23 486.78 989.84 489.04 998.31 C491.58 1008.48 490.5 1015.24 485.5 1024.31 C485.15 1024.95 484.8 1025.59 484.44 1026.25 C474.81 1043.23 461.6 1052.8 443.07 1058.61 C432.2 1060.68 420.78 1059.24 411.36 1053.35 C407.47 1050.48 403.67 1047.67 402 1043 C401.53 1037.28 402.25 1031.86 403 1026.19 C404.96 1011.59 404.96 1011.59 400.09 997.96 C396.78 988.99 400.07 980.25 402.88 971.56 C419.39 919.49 403.08 865.24 380.17 817.52 C379 815 379 815 377.87 811.58 C374.63 807.11 369.52 805.75 364.5 803.75 C362.23 802.8 359.97 801.85 357.71 800.89 C356.58 800.42 355.45 799.94 354.29 799.45 C349.46 797.32 344.78 794.93 340.12 792.44 C339.34 792.02 338.56 791.6 337.75 791.17 C334.74 789.55 331.86 787.9 329 786 C328.89 786.75 328.77 787.5 328.65 788.27 C327.71 794.43 326.74 800.58 325.71 806.73 C318.27 852.46 323.64 894.78 335.8 939.4 C338.07 947.88 340.14 958.41 336.88 966.88 C332.3 974.5 327.59 978.16 319.61 982.23 C316.48 984.35 316.1 985.44 315 989 C314.74 991.26 314.58 993.53 314.47 995.8 C314.4 997.11 314.33 998.42 314.26 999.76 C314.16 1001.82 314.06 1003.87 313.97 1005.93 C313.2 1022.54 313.2 1022.54 308.38 1027.75 C306.27 1029.2 304.16 1030.63 302 1032 C301.11 1032.58 300.22 1033.16 299.3 1033.75 C291.88 1038.34 284.32 1041.43 276 1044 C275.24 1044.24 274.49 1044.47 273.71 1044.71 C260.88 1048.11 243.58 1048.85 231.44 1043.12 C230.27 1042.45 229.13 1041.74 228 1041 C227.11 1040.42 226.23 1039.85 225.31 1039.25 C220.69 1034.75 217.72 1030.45 217.25 1023.88 C217.72 1014.84 223.05 1007.09 227.73 999.61 C228.19 998.86 228.64 998.12 229.12 997.35 C230.02 995.9 230.94 994.46 231.89 993.04 C235.15 987.82 235.26 985.01 234 979 C232.88 965.71 237.82 957.18 246 947 C247.2 945.64 248.41 944.28 249.62 942.94 C264.01 926.69 266.4 904.98 266.31 884.06 C266.31 883.39 266.31 882.72 266.31 882.03 C266.2 857.51 263.3 828.58 253 806 C249.5 802.82 245.83 800.76 241.58 798.71 C240.32 798.1 239.06 797.49 237.81 796.87 C237.15 796.56 236.5 796.24 235.83 795.92 C210.42 783.58 184.8 771.06 173 744 C172.17 741.23 171.88 738.78 171.9 735.89 C171.91 734.76 171.91 734.76 171.91 733.61 C171.92 732.83 171.93 732.05 171.94 731.25 C171.94 730.46 171.95 729.66 171.95 728.85 C171.96 726.9 171.98 724.95 172 723 C171.06 723.23 170.12 723.46 169.15 723.7 C165.6 724.57 162.05 725.44 158.51 726.31 C156.98 726.68 155.45 727.06 153.93 727.43 C145.32 729.55 136.75 731.58 128 733 C127.98 733.84 127.95 734.69 127.92 735.56 C127.12 757.22 115.58 774.92 102 791 C101.52 791.57 101.03 792.15 100.53 792.74 C97.56 796.26 94.54 799.76 91.52 803.24 C89.99 805.01 88.47 806.79 86.96 808.57 C81.26 815.28 75.45 821.84 69.48 828.31 C66.25 831.82 63.07 835.35 60 839 C59.22 839.89 58.43 840.77 57.62 841.69 C52.94 851.23 54.95 864.59 55.3 874.98 C55.53 889.82 49.78 901.6 40.39 912.82 C29.37 930.05 29.14 961.93 33.03 981.54 C35.03 989.94 38.88 997.36 42.91 1004.92 C44.82 1008.55 46.6 1012.24 48.38 1015.94 C48.71 1016.61 49.04 1017.28 49.39 1017.98 C54.31 1028.27 55.7 1039.09 52.44 1050.12 C50.6 1055.21 48.09 1058.96 44.49 1062.96 C41.79 1066.65 41.86 1070.47 42.34 1074.88 C42.43 1075.79 42.53 1076.71 42.62 1077.65 C42.78 1079.09 42.78 1079.09 42.94 1080.56 C45.18 1103.86 45.18 1103.86 40.42 1110.33 C38.39 1112.72 36.33 1114.9 34 1117 C33.07 1117.93 32.14 1118.86 31.19 1119.81 C14.49 1133.89 -7.96 1137.17 -29 1136 C-32.92 1135.44 -36.34 1134.51 -40 1133 C-40.87 1132.65 -41.74 1132.3 -42.63 1131.93 C-49.7 1128.74 -55.65 1124.47 -59.06 1117.31 C-61.91 1107.59 -56.62 1095.55 -53.88 1086.25 C-53.5 1084.96 -53.12 1083.66 -52.75 1082.37 C-51.84 1079.24 -50.92 1076.12 -50 1073 C-50.72 1073.28 -51.44 1073.57 -52.18 1073.86 C-61.35 1077.36 -69.64 1078.81 -79.19 1075.56 C-90.99 1070.05 -98.91 1059.21 -103.5 1047.27 C-104.33 1044.92 -105.13 1042.56 -105.89 1040.19 C-108.01 1034.07 -109.58 1030.75 -115.38 1027.62 C-121.91 1023.65 -124.72 1020.25 -126.92 1012.94 C-128.43 1006.68 -129.15 1000.61 -129.44 994.19 C-130.91 962.73 -150.18 933.7 -165.48 907.08 C-184.37 873.93 -184.37 873.93 -180.38 855.09 C-175.74 842.13 -164.01 832.19 -153.06 824.5 C-144.43 817.81 -142.47 803.35 -139.38 793.25 C-139.11 792.4 -138.85 791.55 -138.59 790.68 C-129.24 760.14 -121.59 729.25 -115 698 C-114.81 697.12 -114.62 696.24 -114.43 695.33 C-113.13 688.29 -113.63 683.6 -117.61 677.57 C-118.36 676.48 -118.36 676.48 -119.12 675.38 C-137.69 646.67 -139.33 612.25 -132.46 579.44 C-127.39 557.08 -118.24 536.62 -106.31 517.13 C-100.34 507.37 -95.21 498.73 -94.46 487.14 C-94.42 486.48 -94.38 485.82 -94.33 485.14 C-94.24 483.74 -94.16 482.35 -94.07 480.95 C-93.94 478.84 -93.8 476.73 -93.66 474.62 C-93.22 467.73 -92.88 460.9 -93 454 C-97.66 460.95 -102.02 467.79 -105.56 475.38 C-109.5 483.41 -113.76 488.94 -122.12 492.5 C-137.32 497.17 -162.69 493.93 -176.95 487.06 C-179.95 485.2 -182.2 483.03 -184 480 C-184.06 479.35 -184.12 478.7 -184.19 478.03 C-184.86 475.69 -184.86 475.69 -187.73 474.69 C-188.87 474.32 -190.01 473.95 -191.19 473.56 C-200.01 470.36 -203.83 467.24 -207.87 458.67 C-208.58 456.98 -209.25 455.28 -209.85 453.55 C-211.94 447.5 -215.09 443.23 -219.28 438.48 C-228.18 428.22 -229.77 418.12 -229.18 404.96 C-228.66 399.3 -226.15 396.15 -222.25 392.25 C-219.24 390.16 -216.4 388.66 -213.03 387.29 C-206.04 382.86 -203.03 374.6 -199.97 367.3 C-199.29 365.7 -198.6 364.11 -197.89 362.53 C-192.65 351.32 -192.65 351.32 -193.02 339.37 C-194.44 335.75 -196.26 332.37 -198.09 328.95 C-199.5 325.93 -199.93 322.84 -200.44 319.56 C-201.57 313.36 -203.9 309.96 -208.06 305.32 C-212.88 299.56 -215.14 292.45 -215.1 285.02 C-215.09 283.61 -215.09 283.61 -215.09 282.18 C-215.08 280.73 -215.08 280.73 -215.06 279.25 C-215.06 278.27 -215.05 277.28 -215.05 276.27 C-215.04 273.85 -215.02 271.42 -215 269 C-216.25 269.03 -217.5 269.07 -218.79 269.11 C-223.26 269.23 -225.57 267.95 -229 265 C-230.88 262.25 -230.88 262.25 -232 260 C-231.31 260.11 -230.63 260.21 -229.92 260.32 C-229.02 260.44 -228.12 260.56 -227.19 260.69 C-225.85 260.88 -225.85 260.88 -224.48 261.07 C-221.98 261.21 -221.98 261.21 -220.12 259.79 C-218.79 258.06 -218.79 258.06 -219.18 255.98 C-219.41 255.2 -219.64 254.42 -219.88 253.62 C-221.41 247.3 -220.74 241.4 -220 235 C-220.88 235.35 -220.88 235.35 -221.78 235.7 C-224.5 236.77 -227.22 237.82 -229.94 238.88 C-231.33 239.42 -231.33 239.42 -232.74 239.98 C-241.64 243.41 -249.51 245.34 -259.06 245.12 C-259.83 245.12 -260.6 245.11 -261.4 245.1 C-263.26 245.07 -265.13 245.04 -267 245 C-264.53 242.4 -261.82 240.21 -259 238 C-260.35 238.43 -260.35 238.43 -261.73 238.88 C-277.65 243.61 -295.44 244.55 -311 238 C-313.87 236.43 -313.87 236.43 -316 235 C-316 234.67 -316 234.34 -316 234 C-314.97 233.9 -313.95 233.8 -312.89 233.7 C-298.19 232.18 -285.52 228.84 -275.52 217.08 C-264.5 201.93 -260.61 184.85 -256 167 C-251.14 148.21 -245.17 128.17 -231 114 C-231.46 108.61 -232.57 103.78 -234.06 98.56 C-238.3 81.94 -237.14 63.55 -233 47 C-232.8 46.18 -232.59 45.35 -232.38 44.5 C-224.87 14.87 -224.87 14.87 -218 8 C-205.88 8 -194.9 19.17 -186.62 27 C-177.76 36.09 -170.09 46.88 -164 58 C-158.86 57.4 -154.74 55.75 -150.06 53.69 C-129.48 44.9 -107.68 41.66 -85.96 48.12 C-83.19 49.09 -83.19 49.09 -81 49 C-81.43 48.02 -81.43 48.02 -81.88 47.02 C-85.91 37.09 -86.14 28.21 -83 18 C-82.34 18 -81.68 18 -81 18 C-80.69 18.87 -80.37 19.74 -80.05 20.63 C-75.55 32.75 -71.78 38.48 -59.95 43.95 C-56.87 45.33 -53.78 46.69 -50.69 48.04 C-42.5 51.63 -34.86 55.12 -28.19 61.19 C-27.01 62.26 -27.01 62.26 -25.8 63.36 C-24.91 64.17 -24.91 64.17 -24 65 C-23.96 64.36 -23.92 63.71 -23.88 63.05 C-21.09 19.83 -21.09 19.83 -5.84 4.88 C-3.93 3.2 -2 1.57 0 0 Z M2 13 C-17.95 33.35 -15.38 68.42 -16.68 94.81 C-17.91 119.73 -17.91 119.73 -20 132 C-20.66 125.73 -21.32 119.46 -22 113 C-36 113 -48.75 116.93 -59.31 126.56 C-65.31 133.12 -69.16 141.36 -73.15 149.23 C-83.53 169.57 -97.26 185.29 -117 197 C-117.63 197.38 -118.27 197.75 -118.92 198.14 C-140.7 210.84 -165.13 218.31 -189 226 C-181.78 214.42 -181.78 214.42 -177.56 209.31 C-176.88 208.48 -176.2 207.65 -175.5 206.8 C-175.01 206.21 -174.51 205.61 -174 205 C-178.14 205 -179.19 206.69 -182.25 209.44 C-187.95 214.4 -194.02 218.24 -200.55 221.99 C-208.61 226.38 -208.61 226.38 -213 234 C-214.11 242.05 -214.11 242.05 -211.24 249.16 C-210.5 249.77 -209.76 250.38 -209 251 C-207.94 251.95 -207.94 251.95 -206.86 252.92 C-206.16 253.53 -205.47 254.13 -204.75 254.75 C-203.69 255.67 -203.69 255.67 -202.61 256.61 C-202.08 257.07 -201.55 257.53 -201 258 C-199.8 254.4 -200.26 253.93 -201.81 250.62 C-204.4 244.58 -205.23 238.49 -206 232 C-205.34 232 -204.68 232 -204 232 C-203.94 232.89 -203.88 233.77 -203.81 234.69 C-202.92 240.76 -200.27 246.34 -198 252 C-183.83 287.39 -175.01 324.62 -189.98 361.42 C-201.15 387.3 -201.15 387.3 -212.24 394.78 C-217.13 398.17 -218.9 402.3 -220 408 C-221.23 420 -217.48 428.34 -210.43 437.87 C-206.68 443.09 -204.58 448.54 -202.48 454.59 C-199.72 460.93 -195.91 464.79 -189.47 467.38 C-184.32 468.67 -179.22 467.95 -174.38 465.88 C-171.53 464.83 -169.5 465.24 -166.56 465.69 C-153.16 467.31 -142.14 465.61 -131.12 457.67 C-122.4 450.8 -114.92 441.72 -113.56 430.32 C-113.73 426.46 -113.73 426.46 -118 423 C-113.71 423.66 -109.42 424.32 -105 425 C-105 425.99 -105 426.98 -105 428 C-105.99 428.33 -106.98 428.66 -108 429 C-108.98 431.71 -108.98 431.71 -109.69 435.06 C-111.81 443.05 -115.18 449.99 -119.07 457.26 C-119.87 458.76 -120.63 460.28 -121.38 461.8 C-125.69 470.29 -131.24 474.29 -140.24 477.25 C-144.18 478.32 -147.93 478.84 -152 479 C-152.74 479.04 -153.49 479.08 -154.25 479.12 C-161.92 479.34 -169.44 478.13 -177 477 C-176.37 480.03 -176.37 480.03 -174.42 480.88 C-160.99 484.99 -144.87 486.33 -130.94 484.38 C-129.53 484.2 -129.53 484.2 -128.09 484.02 C-119.91 481.32 -115.52 475.57 -111.44 468.31 C-110.49 466.7 -109.54 465.09 -108.6 463.48 C-108.15 462.71 -107.7 461.94 -107.24 461.14 C-95.65 441.16 -81.23 429.12 -62 417 C-23.6 392.7 8.93 370.2 20 323.56 C24.56 303.19 24.02 281.94 24.21 261.16 C24.23 259.67 24.24 258.19 24.25 256.7 C24.31 250.65 24.37 244.6 24.4 238.55 C24.51 220.01 25.19 201.68 26.96 183.23 C27.07 182.17 27.07 182.17 27.17 181.1 C27.35 179.21 27.54 177.32 27.73 175.44 C28 171.94 28.05 168.5 28 165 C23.66 167.38 19.79 169.78 16 173 C19.51 168.21 23.15 163.59 27 159.07 C45.86 136.83 56.87 114.65 55 85 C51.84 57.09 26.86 31.02 6 14.36 C4.13 12.81 4.13 12.81 2 13 Z M-212 23 C-215.27 26.68 -216.51 30.78 -218 35.38 C-218.26 36.17 -218.52 36.97 -218.79 37.8 C-222.16 48.34 -224.45 58.92 -225 70 C-225.04 70.72 -225.08 71.44 -225.12 72.19 C-225.42 82.38 -223.61 92.49 -220 102 C-215.35 98.12 -211.01 94.09 -206.8 89.73 C-205 88 -205 88 -202 86 C-202.68 82.67 -203.94 79.95 -205.5 76.94 C-207.97 72.16 -209.13 68.73 -209.06 63.31 C-209.05 62.32 -209.04 61.32 -209.04 60.3 C-209.02 59.54 -209.01 58.78 -209 58 C-208.78 58.83 -208.56 59.67 -208.34 60.53 C-206.24 67.96 -203.74 73.89 -199 80 C-194.1 79.51 -190.73 77.06 -186.81 74.31 C-185.49 73.4 -184.16 72.5 -182.83 71.59 C-182.18 71.15 -181.53 70.71 -180.87 70.25 C-177.01 67.67 -173.01 65.32 -169 63 C-170.51 57.58 -174.21 54.19 -178 50.25 C-179.02 49.18 -179.02 49.18 -180.06 48.09 C-194.23 33.04 -194.23 33.04 -212 23 Z M-70 49 C-61.49 61.76 -40.6 71.32 -26 75 C-25.34 74.67 -24.68 74.34 -24 74 C-36.42 62.43 -54 54.33 -70 49 Z M-212 108 C-215.71 112.42 -218.95 117.11 -222 122 C-222.38 122.61 -222.76 123.21 -223.16 123.84 C-232.47 138.9 -238.13 155.32 -243.78 172.01 C-250.58 192.07 -257.87 211.09 -271 228 C-245.36 221.53 -223.88 202.68 -209.88 180.75 C-204.78 172.2 -200.79 163.19 -196.88 154.06 C-192.47 143.86 -187.86 134.79 -181 126 C-180.45 125.28 -179.91 124.57 -179.35 123.83 C-176.05 119.73 -172.39 116.9 -168 114 C-170.14 116.68 -172.29 119.35 -174.48 121.99 C-185.57 135.49 -192.52 149.95 -199.49 165.92 C-208.22 185.78 -219.55 203.36 -233 220.33 C-234.64 222.52 -235.9 224.51 -237 227 C-231.14 226.43 -226.19 224.78 -220.75 222.56 C-219.88 222.21 -219.01 221.85 -218.11 221.49 C-189.13 209.43 -166.1 192.2 -150 165 C-150 168.63 -150 172.26 -150 176 C-149.28 175.28 -148.56 174.56 -147.81 173.81 C-145.21 171.21 -142.6 168.6 -140 166 C-141.26 170.63 -142.83 173.28 -146.19 176.69 C-154.59 185.72 -159.48 195.66 -164 207 C-160.61 206.41 -157.61 205.56 -154.45 204.21 C-153.59 203.85 -152.74 203.49 -151.86 203.12 C-150.5 202.53 -150.5 202.53 -149.12 201.94 C-148.19 201.53 -147.26 201.13 -146.3 200.72 C-129.78 193.48 -114.9 184.57 -101 173 C-100 172.2 -99 171.4 -97.97 170.58 C-87.73 161.69 -83.72 149.76 -79.02 137.39 C-72.5 120.29 -65.02 104.49 -48.48 95.09 C-42.61 92.52 -37.58 91.8 -31.19 92 C-28.79 92.08 -26.39 92.09 -24 92 C-23.01 91.01 -23.01 91.01 -22 90 C-21.98 87.78 -21.98 87.78 -22.38 85.38 C-22.49 84.56 -22.6 83.74 -22.71 82.9 C-22.85 81.96 -22.85 81.96 -23 81 C-42.7 74.09 -58.49 70.98 -78 80.12 C-84.77 83.54 -90.38 87.95 -96 93 C-96.96 93.85 -97.92 94.7 -98.9 95.57 C-101.28 97.7 -103.65 99.84 -106 102 C-99.02 87.73 -85.04 79.3 -70.5 74.03 C-64.1 72.15 -57.58 71.04 -51 70 C-61.99 61.01 -80.02 56.55 -94 56 C-95.06 55.95 -96.12 55.9 -97.21 55.84 C-140.81 54.73 -183.31 76 -212 108 Z M-57 106 C-57.58 106.48 -58.17 106.96 -58.77 107.45 C-62.92 111.17 -65.71 115.47 -68.5 120.25 C-68.86 120.86 -69.23 121.48 -69.6 122.11 C-70.49 123.7 -71.25 125.35 -72 127 C-71.67 127.99 -71.34 128.98 -71 130 C-70.2 128.93 -70.2 128.93 -69.38 127.84 C-57.03 111.96 -42.28 106.81 -23 104 C-22 100.42 -22 100.42 -23 97 C-35.23 92.76 -47.79 97.92 -57 106 Z M-73 130 C-72 132 -72 132 -72 132 Z M47.51 146.36 C46.61 147.26 46.61 147.26 45.69 148.19 C44.8 149.08 44.8 149.08 43.89 149.98 C43.26 150.65 42.64 151.31 42 152 C41.29 152.72 40.58 153.44 39.85 154.18 C37.31 158.05 37.09 161.45 36.75 166 C36.68 166.84 36.61 167.68 36.53 168.54 C36.33 171.03 36.16 173.51 36 176 C35.95 176.69 35.9 177.39 35.84 178.11 C35.38 183.59 35.38 183.59 36 189 C38.2 190.76 38.2 190.76 41 192 C54.79 200.03 60.4 208.87 67 223 C66.66 222.47 66.32 221.93 65.97 221.38 C58.06 209.22 50.4 200.01 37 194 C36.34 194 35.68 194 35 194 C34.09 197.09 33.63 198.86 34 202 C35.72 204.64 37.73 206.87 39.8 209.24 C48.71 220.41 52.5 235.99 53 250 C52.73 248.89 52.46 247.77 52.19 246.62 C50.13 238.48 47.78 230.78 44 223.25 C43.68 222.61 43.36 221.97 43.03 221.3 C40.81 217.06 38.22 213.55 35 210 C34.67 210 34.34 210 34 210 C33.59 215 33.28 219.99 33 225 C32.93 226.26 32.85 227.53 32.78 228.83 C32.29 241.68 34.67 253.81 37.19 266.37 C38.36 272.23 39.48 278.1 40.6 283.97 C40.86 285.31 41.11 286.66 41.37 288.01 C44.07 302.09 46.44 316.22 48.69 330.38 C48.87 331.51 49.05 332.64 49.23 333.81 C53.3 359.51 57.17 385.25 61 411 C62.79 408.31 64.47 405.59 66.12 402.81 C66.66 401.91 67.2 401.01 67.76 400.08 C68.17 399.39 68.58 398.71 69 398 C69.66 398.99 70.32 399.98 71 401 C75.36 406.84 78.82 410.24 86 412 C88.18 411.61 88.18 411.61 90 411 C89.81 410.34 89.62 409.68 89.42 408.99 C74.63 357.28 74.63 357.28 80 340 C80.27 340.82 80.54 341.64 80.81 342.49 C85.11 354.75 91.46 363.7 103 370 C107.9 372.25 112.93 374.16 118 376 C118 372.47 117.28 371.68 115.25 368.88 C103.55 351.63 103.15 329.86 101.5 309.69 C100.43 296.7 99.35 283.79 97.04 270.96 C96.88 270.09 96.72 269.23 96.56 268.34 C94.48 257.5 91.15 246.78 86 237 C94.73 240.61 98.42 252.65 102.04 260.71 C104.84 266.63 108.22 271.63 114 275 C114.99 274.67 115.98 274.34 117 274 C116.75 273.34 116.5 272.68 116.24 272 C114.06 266.18 112.22 260.37 110.62 254.36 C106.51 239.12 100.78 224.81 90 213 C89.21 212.12 88.42 211.24 87.61 210.34 C76.18 198.22 61.09 188.01 44 187 C44 186.34 44 185.68 44 185 C44.63 184.94 45.25 184.88 45.9 184.82 C46.72 184.73 47.53 184.65 48.38 184.56 C49.19 184.48 50 184.4 50.84 184.32 C53.04 184.11 53.04 184.11 55 183 C55.38 175.17 54.85 167.79 53.62 160.06 C53.44 158.86 53.44 158.86 53.24 157.63 C52.51 153.25 51.54 149.18 50 145 C48.79 144.89 48.79 144.89 47.51 146.36 Z M-205.75 275.5 C-207.52 279.04 -207.57 282.11 -207 286 C-206.07 288.58 -206.07 288.58 -204 290 C-200.96 290.5 -200.96 290.5 -198 290 C-195.68 288.09 -195.68 288.09 -195.62 284.81 C-196.09 280.13 -197.46 277.9 -200 274 C-203.88 273.57 -203.88 273.57 -205.75 275.5 Z M34 296 C33.08 298.75 32.8 300.73 32.64 303.59 C30.5 335.97 21.48 363.93 -2 387 C-3.09 388.09 -3.09 388.09 -4.2 389.2 C-16.47 400.74 -31.74 408.95 -46.2 417.37 C-68.47 428.17 -68.47 428.17 -83 446 C-83.4 448.63 -83.74 451.21 -84 453.85 C-84.12 454.99 -84.12 454.99 -84.24 456.15 C-84.51 458.64 -84.75 461.13 -85 463.62 C-85.09 464.5 -85.17 465.37 -85.26 466.27 C-89.29 507.12 -89.57 547.99 -90 589 C-92.48 569.48 -94.03 550.17 -94.56 530.5 C-94.61 528.98 -94.65 527.47 -94.69 525.95 C-94.8 522.3 -94.9 518.65 -95 515 C-98.89 519.84 -101.07 525.41 -103.56 531.06 C-104.09 532.26 -104.62 533.45 -105.16 534.68 C-120.86 570.52 -135.54 609.51 -120.54 648.04 C-111.66 669.79 -99.09 689.09 -84 707 C-82.98 708.23 -81.96 709.46 -80.94 710.69 C-79.98 711.83 -79.98 711.83 -79 713 C-85.51 709.87 -90.53 705.98 -95.74 700.99 C-97.8 699.17 -99.54 698.16 -102 697 C-102.45 698.75 -102.45 698.75 -102.91 700.54 C-132.61 815.64 -132.61 815.64 -154.94 834.38 C-162.86 841.13 -171.16 850.89 -172.27 861.64 C-172.72 875.58 -166.8 886.99 -160.31 899 C-143.54 930.77 -131.82 963.97 -122.47 998.6 C-119.76 1008.6 -116.77 1016.2 -107.85 1022.04 C-101.82 1025.18 -94.99 1026 -88.4 1024.35 C-76.83 1020.63 -70.67 1013.52 -65 1003 C-59.78 992.05 -56.76 982.24 -58 970 C-61.39 962.19 -69.87 956.74 -76.69 952 C-85.33 945.8 -89.87 938.19 -92.54 927.91 C-93.17 923.92 -93.12 920.01 -93.1 915.98 C-93.1 915.12 -93.09 914.26 -93.09 913.38 C-93.09 910.65 -93.08 907.92 -93.06 905.19 C-93.06 903.33 -93.05 901.48 -93.05 899.62 C-93.04 895.08 -93.02 890.54 -93 886 C-93.99 886 -94.98 886 -96 886 C-95.29 884.28 -95.29 884.28 -94.57 882.52 C-89.15 869.08 -86.07 856.62 -84.76 842.19 C-83.32 827.04 -83.32 827.04 -78.31 821.88 C-77.17 820.95 -77.17 820.95 -76 820 C-76.33 821.32 -76.66 822.64 -77 824 C-76.28 823.27 -75.55 822.55 -74.8 821.8 C-73.07 820.06 -71.32 818.33 -69.57 816.61 C-65.24 812.33 -61.05 808.01 -57.1 803.38 C-54.78 800.75 -52.39 798.2 -49.98 795.65 C-44.5 789.85 -39.19 784 -34.22 777.74 C-32.58 775.72 -30.92 773.76 -29.18 771.82 C-19.31 760.81 -19.31 760.81 -15.69 746.81 C-15.84 745.42 -15.84 745.42 -16 744 C-20.45 742.51 -20.45 742.51 -25 741 C-25.2 741.75 -25.39 742.51 -25.59 743.28 C-30.81 761.8 -40.9 779.75 -55 793 C-55.99 793.33 -56.98 793.66 -58 794 C-57.42 793.26 -56.83 792.52 -56.23 791.75 C-35.92 767.86 -35.92 767.86 -27 739 C-28.14 738.27 -28.14 738.27 -29.31 737.53 C-56.22 720.06 -70.3 693.56 -79 663.25 C-79.21 662.54 -79.42 661.82 -79.63 661.09 C-80.93 656.27 -81.18 651.98 -81 647 C-80.7 648.02 -80.39 649.03 -80.08 650.08 C-69.92 683.7 -51.51 711.04 -20.52 728.17 C-15.1 730.98 -9.59 733.55 -4 736 C-3.92 733.94 -3.86 731.88 -3.81 729.81 C-3.78 728.66 -3.74 727.52 -3.71 726.33 C-4.23 720.36 -7.78 716.98 -11.62 712.62 C-29.51 691.62 -42.34 660.71 -42 633 C-41.88 633.55 -41.76 634.1 -41.64 634.67 C-36.3 658.91 -27.87 689.34 -7 705 C-7.33 696.42 -7.66 687.84 -8 679 C-3.52 688.94 0.44 698.44 2.94 709.06 C3.24 710.33 3.24 710.33 3.54 711.62 C6.14 723.34 6.24 735.05 6.25 747 C6.25 747.84 6.25 748.68 6.25 749.55 C6.23 764.2 5.39 778.52 3 793 C2.82 794.08 2.65 795.15 2.46 796.26 C-0.43 813.23 -3.61 828.8 -14.17 842.7 C-24.61 856.56 -29.31 870.62 -28 888 C-26.06 900.76 -20.02 911.75 -14 923 C-15.14 922.29 -15.14 922.29 -16.31 921.56 C-18.96 919.9 -18.96 919.9 -22 919 C-22.01 919.94 -22.01 919.94 -22.02 920.89 C-23.23 1012.15 -23.23 1012.15 -34 1027 C-34.33 1027.99 -34.66 1028.98 -35 1030 C-35.6 1030.29 -36.2 1030.58 -36.81 1030.88 C-41.34 1033.21 -43.41 1037.34 -45 1042 C-45.95 1049.3 -45.18 1055.84 -41 1062 C-33.02 1071.15 -22.04 1076.13 -10 1077 C7.11 1077.3 21.2 1072.32 33.88 1060.56 C40.41 1053.73 42.44 1045.97 42.33 1036.71 C41.33 1025.52 35.83 1015.33 31.18 1005.29 C28.13 998.6 26.11 992.29 25 985 C24.87 984.22 24.74 983.44 24.61 982.63 C22.16 964.71 25.48 946.86 29.88 929.55 C30.77 926.05 31.48 922.57 32 919 C28.53 921.47 28.53 921.47 25 924 C26.12 920.64 27.72 918.17 29.62 915.19 C40.23 898.18 46 881.81 46.43 861.78 C46.89 849.29 51.69 838.48 56.62 827.19 C57.29 825.66 57.95 824.13 58.61 822.6 C60.73 817.73 62.86 812.86 65 808 C65.36 807.19 65.72 806.37 66.09 805.53 C91.75 747.25 91.75 747.25 95 744 C93.75 751.41 91.71 758.27 89.12 765.31 C88.74 766.37 88.36 767.42 87.97 768.51 C84.21 778.73 80.03 788.78 75.72 798.78 C75.22 799.96 74.73 801.13 74.21 802.34 C73.53 803.91 73.53 803.91 72.85 805.51 C72.57 806.33 72.29 807.15 72 808 C72.33 808.66 72.66 809.32 73 810 C97.02 778.42 115.98 752.21 119.61 711.72 C119.74 710.33 119.87 708.93 120 707.54 C120.27 704.66 120.53 701.77 120.79 698.89 C121.12 695.21 121.46 691.54 121.81 687.86 C122.08 685 122.34 682.14 122.6 679.28 C122.79 677.27 122.98 675.26 123.16 673.25 C123.71 667.14 124.15 661.14 124 655 C120.07 658.7 117.05 662.55 114 667 C115.43 662.57 116.9 658.17 118.61 653.84 C132.73 618.05 141.01 572.15 132 534 C132.66 534 133.32 534 134 534 C134.71 536.99 135.37 539.99 136 543 C136.25 544.19 136.51 545.38 136.77 546.61 C143.37 579.53 138.47 612.48 129.02 644.36 C126.48 653.47 126.75 662.14 127.47 671.51 C128.17 681.64 128.35 691.78 128.56 701.94 C128.61 703.89 128.65 705.85 128.69 707.8 C128.8 712.54 128.9 717.27 129 722 C134.76 721.38 139.89 719.88 145.36 718.01 C146.25 717.71 147.15 717.4 148.07 717.09 C150.96 716.11 153.86 715.12 156.75 714.12 C158.23 713.62 158.23 713.62 159.75 713.1 C175.75 707.61 191.51 701.8 207 695 C208.03 694.55 209.07 694.09 210.13 693.63 C226.52 686.39 242.69 678.65 258 669.31 C259.64 668.32 259.64 668.32 261.31 667.3 C264.55 664.53 266.15 662.12 267 658 C267.21 653.98 266.94 650.01 266.69 646 C266.56 643.36 266.44 640.72 266.33 638.09 C266.28 636.97 266.28 636.97 266.24 635.84 C265.78 623.44 265.91 611.03 265.94 598.62 C265.94 596.73 265.94 596.73 265.94 594.8 C265.96 587.53 265.97 580.27 266 573 C266.66 573 267.32 573 268 573 C268.05 573.54 268.1 574.08 268.15 574.64 C268.93 582.67 269.89 590.68 270.86 598.69 C270.95 599.44 271.04 600.19 271.13 600.96 C275.96 641.36 275.96 641.36 281.31 681.69 C281.42 682.5 281.53 683.31 281.65 684.14 C286.52 719.66 301 750.31 329.68 772.55 C349.45 787.46 371.09 799.56 393 811 C391.02 811.33 389.04 811.66 387 812 C388.45 816.75 390.36 821.24 392.32 825.79 C412.71 873.23 427.96 931.77 409.87 982.14 C408.09 987.98 407.83 994.68 409.88 1000.48 C412.47 1005.03 415.86 1008.54 421 1010 C433.54 1011.59 443.37 1007.99 453.23 1000.39 C465.48 989.79 475.89 977.19 477.2 960.5 C476.94 951.57 473.06 943.08 470.02 934.79 C451.08 882.85 445.5 828.78 442.04 773.95 C441.42 754.11 441.42 754.11 432.38 737.19 C426.02 732.45 417.74 731.18 410 732 C409.01 732.33 408.02 732.66 407 733 C407.53 738.88 408.42 744.64 409.5 750.44 C409.63 751.15 409.76 751.86 409.9 752.59 C410.6 756.41 410.6 756.41 412 760 C398.15 748.59 394.28 719.15 392.67 702.59 C390.45 675.87 394.06 649.19 397.24 622.68 C403.5 569.96 400.39 513.97 366.43 470.37 C364.97 468.56 363.49 466.78 362 465 C361.55 464.45 361.1 463.91 360.63 463.34 C339.58 438.15 309.23 424.03 277 420 C259.89 419.17 242.8 419.49 226 423 C225.16 423.17 224.31 423.33 223.44 423.51 C211.5 425.9 199.81 429.02 188.13 432.47 C145.43 445.03 145.43 445.03 126.46 444.05 C122.27 443.97 118.15 444.48 114 445 C115.45 449.64 117.3 454.02 119.31 458.44 C124.29 469.63 128.2 480.82 130 493 C129.48 491.8 128.96 490.6 128.42 489.36 C109.99 445.84 109.99 445.84 76 415 C73.68 414.23 71.37 413.61 69 413 C64.87 427.04 62.39 441.08 60.4 455.57 C60 458 60 458 59 461 C51.99 422.55 46.71 383.91 41.56 345.18 C40.72 338.89 39.88 332.6 39.03 326.32 C37.68 316.21 36.33 306.11 35 296 C34.67 296 34.34 296 34 296 Z M-197 314 C-195.86 318.57 -194.6 320.07 -191 323 C-188.72 322.96 -188.72 322.96 -187 322 C-187.33 320.35 -187.66 318.7 -188 317 C-190.97 316.01 -193.94 315.02 -197 314 Z M-193 328 C-192.4 330.02 -191.73 332.02 -191 334 C-190.34 334.33 -189.68 334.66 -189 335 C-188.67 333.35 -188.34 331.7 -188 330 C-190.47 329.01 -190.47 329.01 -193 328 Z M335.5 413.94 C334.8 414.27 334.11 414.61 333.39 414.96 C329.64 416.86 327.37 418.56 325 422 C327.82 424 330.66 425.97 333.5 427.94 C334.69 428.78 334.69 428.78 335.9 429.65 C342.8 434.37 347.89 435.27 356.25 434.88 C368.86 434.84 379.22 440.05 390 446 C390.99 446.55 391.99 447.09 393.01 447.66 C398.49 450.92 403.23 454.78 407.94 459.06 C408.48 459.56 409.03 460.05 409.59 460.56 C412.99 463.77 415.55 467.02 418 471 C417.21 470.24 416.42 469.48 415.61 468.69 C399.58 453.4 379.63 438.86 356.5 438.75 C355.35 438.83 354.19 438.92 353 439 C356.05 442.74 359.05 446.14 362.75 449.25 C387.63 470.59 405.98 502.87 412 535 C412.18 535.93 412.35 536.85 412.53 537.8 C414.03 546.52 414.4 555.12 414.38 563.94 C414.37 564.67 414.37 565.4 414.37 566.16 C414.33 581.67 412.58 596.7 410 612 C409.78 613.3 409.56 614.6 409.34 615.94 C407.81 624.89 406.24 633.83 404.45 642.72 C402.25 653.81 406.62 663.4 412.31 672.81 C422.55 687.91 437.82 695.61 455.44 699.25 C461.32 700.13 467.19 700.21 473.12 700.25 C474.53 700.26 474.53 700.26 475.97 700.28 C476.85 700.27 477.73 700.27 478.63 700.27 C479.82 700.26 479.82 700.26 481.04 700.26 C483.23 700.17 483.23 700.17 485 698 C484.49 697.6 483.98 697.2 483.46 696.79 C471.17 686.63 465.1 672.23 463.23 656.55 C461.83 640.8 462.95 625.06 464.5 609.38 C465.59 598.25 466.34 587.19 466.42 576 C466.43 574.57 466.45 573.14 466.47 571.72 C466.67 558.79 464.5 546.52 458.5 534.94 C458 533.96 458 533.96 457.49 532.96 C451.86 522.47 443.35 513.31 434 506 C450.99 516.6 462.91 530.84 467.75 550.56 C471.31 567.59 469.82 584.75 469 602 C471.14 598.79 471.98 596.15 473.06 592.45 C473.34 591.48 473.34 591.48 473.63 590.49 C474.04 589.11 474.43 587.73 474.83 586.35 C475.42 584.3 476.03 582.24 476.63 580.19 C480.36 567.44 483.59 554.76 483.44 541.38 C483.43 540.39 483.42 539.4 483.41 538.39 C483.04 521.62 476.05 508.56 464 497 C458.04 492.06 451.87 487.59 445 484 C454.18 484.85 454.18 484.85 458.12 485.56 C466.27 486.8 472.56 485.58 480 482 C480.33 481.34 480.66 480.68 481 480 C479.49 479.87 479.49 479.87 477.96 479.74 C446.01 476.62 425.69 452.1 406.16 428.8 C396.68 417.73 384.94 408.29 369.94 406.79 C357.13 406.2 347.05 408.34 335.5 413.94 Z M-141.62 470 C-142.33 470.29 -143.04 470.57 -143.77 470.87 C-145.51 471.58 -147.26 472.29 -149 473 C-149 473.33 -149 473.66 -149 474 C-142.51 473.74 -138.04 473.26 -133 469 C-132.67 468.34 -132.34 467.68 -132 467 C-135.43 467 -138.49 468.72 -141.62 470 Z M266 685 C264.95 685.55 264.95 685.55 263.87 686.11 C240.25 698.37 216.18 708.39 190.71 716.18 C189.59 716.53 188.48 716.87 187.34 717.22 C186.35 717.52 185.37 717.82 184.35 718.12 C181.85 718.87 181.85 718.87 180 721 C178.69 734.3 184.77 747.77 193 758 C206.57 772.55 225.23 782.92 242.27 792.82 C253.63 799.43 260.25 805 264 818 C275.13 860.58 276.64 911.92 254 951 C252.24 953.62 250.41 956.16 248.54 958.7 C244.36 964.92 241.88 971.52 243 979 C245.33 983.3 248.37 985.59 253 987 C275.86 989.25 302.47 983.93 321 970 C325.16 966.55 327.1 962.5 327.9 957.21 C328.22 946.65 325.44 936.03 323.3 925.74 C323.15 925.01 323 924.28 322.84 923.52 C322.08 919.87 321.31 916.22 320.51 912.57 C311.98 872.94 311.74 828.42 323.58 789.4 C324.13 786.25 323.91 784.07 323 781 C321.02 779.04 321.02 779.04 318.38 777.5 C293.7 760.65 277.22 736.55 271.66 707.12 C270.98 703.43 270.32 699.72 269.7 696.01 C269.51 694.88 269.31 693.74 269.11 692.57 C268.95 691.55 268.78 690.52 268.61 689.47 C268.19 686.84 268.19 686.84 266 685 Z M-6 746 C-6.37 747.42 -6.37 747.42 -6.75 748.88 C-12.07 767.2 -24.06 779.11 -37.19 792.31 C-37.84 792.97 -38.49 793.63 -39.17 794.3 C-43.05 798.17 -47.04 801.85 -51.19 805.43 C-53.48 807.41 -55.71 809.45 -57.94 811.5 C-61.12 814.39 -64.34 817.03 -67.81 819.56 C-73.05 823.55 -76.77 828.44 -78 835 C-78.32 840.14 -77.86 844.93 -77 850 C-76.43 861.65 -79.81 870.77 -86.63 880.27 C-92.6 892.17 -90.27 913.54 -87.04 926.05 C-82.72 938.31 -74.9 945.21 -63.82 951.36 C-61.44 952.74 -59.44 954.13 -57.38 955.94 C-55.27 958.22 -55.27 958.22 -53 958 C-49.32 964.8 -47.57 970.02 -48.38 977.7 C-48.2 980.22 -48.2 980.22 -45.85 982.06 C-44.44 983.02 -44.44 983.02 -43 984 C-41.6 984.95 -41.6 984.95 -40.18 985.92 C-39.23 986.53 -38.29 987.13 -37.31 987.75 C-35.88 988.67 -35.88 988.67 -34.43 989.61 C-32.18 991.17 -32.18 991.17 -30 991 C-29.34 983.45 -28.69 975.91 -28.04 968.36 C-27.75 964.85 -27.44 961.35 -27.14 957.84 C-22.8 931.55 -22.8 931.55 -28.81 907.06 C-31.96 901.83 -34.48 896.94 -36 891 C-36.23 890.2 -36.45 889.39 -36.69 888.56 C-38.44 874.16 -33.66 861.08 -25.15 849.48 C-22.39 846 -19.54 842.61 -16.59 839.28 C-15.8 838.36 -15.01 837.45 -14.19 836.5 C-13.46 835.69 -12.73 834.87 -11.98 834.03 C-6.65 825.87 -6.07 815.77 -4.88 806.31 C-4.71 805.05 -4.54 803.79 -4.36 802.49 C-2.55 788.5 -1.84 774.66 -1.94 760.56 C-1.94 759.25 -1.95 757.93 -1.95 756.58 C-1.96 753.38 -1.98 750.19 -2 747 C-3.32 746.67 -4.64 746.34 -6 746 Z M71 810 C72 812 72 812 72 812 Z " fill="#000000" transform="translate(400,72)"/>
<path d="M0 0 C0.84 0.54 0.84 0.54 1.7 1.09 C8.11 5.18 11.91 6.42 19.51 5.47 C20.75 5.19 20.75 5.19 22.01 4.91 C20.62 8.4 19.3 9.61 15.89 11.16 C15.16 11.49 14.44 11.83 13.69 12.17 C13.14 12.41 12.59 12.66 12.01 12.91 C12.03 13.55 12.05 14.2 12.06 14.87 C12.47 34.2 12.67 56.48 -0.99 71.91 C-7 77.24 -13.12 81.11 -20.99 82.91 C-21.7 83.08 -22.41 83.26 -23.15 83.45 C-27.25 84.11 -31.34 84.19 -35.49 84.34 C-45.19 84.76 -54.47 85.97 -63.99 87.91 C-57.11 80.3 -46.75 79.3 -37.05 77.97 C-24.37 76.03 -11.89 73.26 -3.31 62.87 C4.91 51.27 7.22 38.78 7.64 24.84 C7.68 23.79 7.72 22.73 7.76 21.64 C7.85 19.06 7.94 16.49 8.01 13.91 C3.56 12.92 3.56 12.92 -0.99 11.91 C-0.64 12.62 -0.29 13.34 0.07 14.07 C5.83 26.67 6.06 37.69 2.01 50.91 C-1.51 60.33 -6.94 66.89 -16.09 71.18 C-24.02 74.22 -33.64 74.19 -41.55 71.16 C-49.93 67.2 -55.58 60.64 -59.17 52.07 C-60.12 48.4 -60.33 44.92 -60.3 41.16 C-60.3 40.46 -60.3 39.76 -60.29 39.04 C-60.19 33.31 -59.14 28.23 -56.99 22.91 C-71.8 38.38 -70.34 64.09 -69.99 83.91 C-71.99 82.91 -71.99 82.91 -72.8 80.65 C-73.05 79.7 -73.29 78.76 -73.55 77.78 C-73.8 76.85 -74.05 75.92 -74.3 74.96 C-78.31 57.06 -77.21 35.92 -67.23 20.13 C-51.32 -2.57 -25.76 -16.39 0 0 Z M-31.3 16.66 C-33.64 19.78 -33.92 22.02 -33.99 25.91 C-32.46 30.09 -30.83 32.62 -26.99 34.91 C-23.37 36.11 -20.79 36.23 -16.99 35.91 C-13.38 34.1 -11.39 32.45 -8.99 29.22 C-7.62 24.68 -8.14 21.25 -9.99 16.91 C-13 13.89 -15.47 12.04 -19.74 11.66 C-24.48 12.02 -27.55 13.82 -31.3 16.66 Z M-6.99 44.91 C-9.04 46.96 -10.88 48.99 -12.74 51.22 C-13.26 51.81 -13.77 52.41 -14.31 53.02 C-15.98 54.95 -15.98 54.95 -17.99 57.91 C-17.66 58.9 -17.33 59.89 -16.99 60.91 C-11.68 60.27 -9.75 58.1 -6.43 54.12 C-4.36 50.95 -4.06 48.65 -3.99 44.91 C-4.98 44.91 -5.97 44.91 -6.99 44.91 Z " fill="#000000" transform="translate(386.985595703125,312.093994140625)"/>
<path d="M0 0 C-2.44 2.44 -4.19 2.79 -7.5 3.73 C-9.17 4.23 -9.17 4.23 -10.88 4.73 C-13.22 5.4 -15.55 6.07 -17.89 6.73 C-31.2 10.65 -46 17.28 -53 30 C-52.61 29.59 -52.22 29.18 -51.81 28.75 C-47.32 24.41 -42.54 21.47 -37 18.69 C-36.34 18.35 -35.67 18.01 -34.99 17.67 C-19.85 10.3 -0.64 11.01 15.29 15.64 C21.74 18 27.89 20.87 34 24 C29.91 25.67 26.24 24.26 22.19 23.12 C1.57 17.51 -18.68 18.74 -37.68 28.89 C-55.42 40.13 -64.24 58.03 -69 78 C-69.57 81.25 -70.08 84.49 -70.51 87.77 C-70.75 88.87 -70.75 88.87 -71 90 C-71.99 90.5 -71.99 90.5 -73 91 C-75.47 69.85 -73.21 48.09 -61 30 C-58.19 26.46 -55.19 23.2 -52 20 C-51.41 19.37 -50.82 18.75 -50.21 18.1 C-37.85 6.05 -16.95 -0.51 0 0 Z " fill="#000000" transform="translate(363,266)"/>
<path d="M0 0 C20.76 9.78 41.28 22.31 50.99 44.07 C53.36 50.96 54.36 57.6 54.31 64.88 C54.31 65.69 54.31 66.51 54.31 67.35 C54.22 73.15 53.53 78.68 52.5 84.38 C47.43 112.97 54.63 135.51 70.92 159.07 C71.28 159.7 71.63 160.34 72 161 C71.67 161.66 71.34 162.32 71 163 C55.12 146.08 42.98 126.55 43.59 102.66 C44.15 94.91 45.39 87.19 46.58 79.52 C49.13 62.61 48.24 47.97 38.29 33.51 C28.96 21.27 17.12 12.9 4.22 4.89 C2.78 3.98 1.38 3 0 2 C0 1.34 0 0.68 0 0 Z " fill="#000000" transform="translate(643,544)"/>
<path d="M0 0 C1.29 3.86 0.26 6.36 -0.88 10.11 C-1.09 10.81 -1.29 11.52 -1.51 12.25 C-1.95 13.77 -2.4 15.29 -2.86 16.81 C-4.05 20.81 -5.2 24.82 -6.36 28.83 C-6.59 29.62 -6.82 30.42 -7.06 31.24 C-17.26 66.54 -28.11 107.41 -16.84 143.75 C-16.05 146.81 -15.85 148.13 -17 151 C-18.29 148.61 -19.56 146.22 -20.81 143.81 C-21.35 142.83 -21.35 142.83 -21.89 141.83 C-27.48 131.02 -28.54 119.69 -28.44 107.69 C-28.43 106.38 -28.42 105.07 -28.41 103.73 C-28.04 76.26 -20.64 20.64 0 0 Z " fill="#000000" transform="translate(421,466)"/>
<path d="M0 0 C-1.54 1.22 -1.54 1.22 -3.11 2.46 C-34.39 27.35 -50.8 56.81 -55.43 96.67 C-55.98 101.85 -56.5 107.03 -56.96 112.23 C-57.07 113.41 -57.18 114.59 -57.29 115.81 C-57.38 116.86 -57.47 117.91 -57.56 118.99 C-58.03 122.17 -58.9 124.99 -60 128 C-60.33 128 -60.66 128 -61 128 C-61.08 122.79 -61.13 117.59 -61.16 112.38 C-61.18 110.62 -61.2 108.86 -61.23 107.1 C-61.66 77.47 -55.52 48.15 -36 25 C-35.24 24.07 -34.48 23.13 -33.7 22.17 C-27.71 15.15 -9.94 -3.31 0 0 Z " fill="#000000" transform="translate(495,750)"/>
<path d="M0 0 C8.58 7.36 10.13 22.32 11 33 C11.16 36.9 11.19 40.79 11.19 44.69 C11.19 45.8 11.19 46.91 11.19 48.06 C11.13 58.27 10.5 68.42 9.71 78.6 C8.86 89.66 8.74 100.51 9.75 111.56 C9.84 112.5 9.92 113.43 10.01 114.4 C11.22 126.51 14.02 138.22 17 150 C16.34 150 15.68 150 15 150 C4.3 123.83 1.57 97.42 4.26 69.33 C5.05 60.94 5.25 52.59 5.3 44.17 C5.31 42.56 5.33 40.96 5.36 39.36 C5.54 29.22 4.78 20.28 1.96 10.52 C0.99 6.98 0.44 3.64 0 0 Z " fill="#000000" transform="translate(771,657)"/>
<path d="M0 0 C-1 2 -1 2 -3.18 2.76 C-4.62 3.12 -4.62 3.12 -6.08 3.48 C-7.15 3.75 -8.22 4.03 -9.32 4.31 C-10.47 4.6 -11.62 4.89 -12.81 5.19 C-43.43 13.2 -71.98 24.89 -96 46 C-96.92 46.79 -97.85 47.58 -98.8 48.39 C-109.31 57.61 -119.68 69.36 -126 82 C-126.66 81.67 -127.32 81.34 -128 81 C-123.88 68.96 -116.66 60.15 -108 51 C-106.89 49.8 -106.89 49.8 -105.77 48.57 C-80.49 22.02 -37.28 -0.98 0 0 Z " fill="#000000" transform="translate(301,136)"/>
<path d="M0 0 C7.43 0.71 12.16 4.53 17 10 C25.83 22.33 24.71 34.23 22.32 48.7 C22.21 49.38 22.09 50.06 21.98 50.76 C21.37 54.42 20.81 58.08 20.24 61.75 C20.08 62.83 20.08 62.83 19.91 63.94 C16.32 87.46 16.41 111.26 16 135 C15.67 135 15.34 135 15 135 C13.3 121.44 12.64 108.1 12.69 94.44 C12.69 93.48 12.69 92.52 12.69 91.54 C12.73 73.59 14.26 56.26 17.25 38.56 C18.81 28.67 17.61 20.42 12 12 C9.83 9.46 7.48 7.23 5 5 C4.01 4.03 3.03 3.05 2.06 2.06 C1.38 1.38 0.7 0.7 0 0 Z " fill="#000000" transform="translate(692,835)"/>
<path d="M0 0 C4.13 0.09 5.72 0.75 8.81 3.56 C12 7.89 12.29 12.27 11.74 17.45 C10.82 22.92 9.37 28.5 6 33 C2.6 35.2 0.1 34.94 -3.89 34.8 C-7.55 35.14 -9.99 36.99 -13 39 C-14 38 -14 38 -14.33 34.84 C-13.95 30.37 -12.36 28.02 -9.75 24.56 C-5.16 18.06 -3.22 11.85 -1.66 4.11 C-1 1 -1 1 0 0 Z " fill="#000000" transform="translate(257,475)"/>
<path d="M0 0 C0.66 0 1.32 0 2 0 C2.49 1.35 2.96 2.71 3.44 4.06 C3.84 5.19 3.84 5.19 4.25 6.35 C5.99 12.47 6.15 18.6 6.21 24.91 C6.24 26.64 6.27 28.37 6.3 30.1 C6.34 32.79 6.37 35.48 6.4 38.16 C6.54 50.87 7.52 62.48 11.09 74.74 C11.95 77.83 12.21 80.25 12.12 83.44 C12.11 84.3 12.09 85.17 12.07 86.06 C12.05 86.7 12.02 87.34 12 88 C10 87 10 87 9.18 84.55 C8.75 82.95 8.75 82.95 8.31 81.31 C6.8 76.1 4.89 71.52 2.38 66.75 C-4.77 52.88 -3.45 40.1 -1.07 25.05 C0.19 16.66 0.3 8.46 0 0 Z " fill="#000000" transform="translate(402,130)"/>
<path d="M0 0 C0.66 0.33 1.32 0.66 2 1 C9.06 23.84 6.02 48.92 -4.49 69.99 C-12.36 84.49 -24.36 95.3 -38.5 103.56 C-39.42 104.1 -39.42 104.1 -40.35 104.65 C-41.87 105.5 -43.43 106.26 -45 107 C-45.66 106.67 -46.32 106.34 -47 106 C-45.66 104.97 -45.66 104.97 -44.29 103.91 C-21.56 86.3 -5.36 67.89 -0.46 38.81 C0.03 34.72 0.13 30.77 0.1 26.66 C0.1 25.89 0.09 25.13 0.09 24.34 C0.09 21.91 0.08 19.49 0.06 17.06 C0.06 15.41 0.05 13.75 0.05 12.1 C0.04 8.07 0.02 4.03 0 0 Z " fill="#000000" transform="translate(651,605)"/>
<path d="M0 0 C0.66 0 1.32 0 2 0 C16.17 18.07 20.05 40.71 17.78 63.2 C16.12 75.81 12.21 87.5 5 98 C3.63 93.89 5.04 90.97 6.31 87 C15.56 56.9 12.22 28.71 0 0 Z " fill="#000000" transform="translate(417,115)"/>
<path d="M0 0 C2.1 3.57 2.78 7.29 3.52 11.31 C3.8 12.78 4.08 14.26 4.36 15.73 C4.5 16.5 4.65 17.27 4.8 18.06 C9.13 40.86 13.67 61.77 26.99 81.19 C30.81 88.04 30.8 95.38 30 103 C27.81 110.53 23.27 115.48 17 120 C14.12 121.44 12.21 121.3 9 121 C6.5 119.85 4.33 118.49 2 117 C2.5 116.01 2.5 116.01 3 115 C3.99 115.33 4.98 115.66 6 116 C10.32 116.49 12.39 116.38 16.12 114.06 C19.74 110.69 21.84 106.38 24 102 C24.33 101.34 24.66 100.68 25 100 C25.98 89.65 23.68 83.17 18.19 74.62 C6.72 55.59 -0.41 26.19 -0.06 4 C-0.05 3.24 -0.04 2.47 -0.04 1.69 C-0.02 1.13 -0.01 0.57 0 0 Z " fill="#000000" transform="translate(838,936)"/>
<path d="M0 0 C0.66 0.33 1.32 0.66 2 1 C2.03 4.89 2.04 8.78 2.05 12.68 C2.06 14.63 2.08 16.59 2.09 18.55 C2.11 25.75 1.85 32.83 1.24 40.01 C-0.18 57.82 1.43 74.57 7.33 91.46 C8 94 8 94 7 97 C2.6 90.65 0.07 84.44 -2 77 C-2.23 76.18 -2.46 75.37 -2.69 74.52 C-6.58 57.41 -3.67 38.42 -2 21.19 C-1.81 19.12 -1.61 17.04 -1.42 14.97 C-0.96 9.98 -0.48 4.99 0 0 Z " fill="#000000" transform="translate(470,371)"/>
<path d="M0 0 C0.33 0 0.66 0 1 0 C0.99 0.64 0.98 1.29 0.97 1.95 C0.88 8.77 0.82 15.58 0.78 22.4 C0.76 24.93 0.73 27.46 0.7 29.99 C0.44 48.81 0.43 67.84 9.19 85 C9.89 86.46 10.59 87.92 11.29 89.38 C11.6 89.98 11.9 90.59 12.22 91.21 C13.05 93.12 13.55 94.97 14 97 C2.54 86.89 -2.85 70.87 -4 56 C-4.78 43.25 -3.68 30.57 -2.56 17.88 C-2.5 17.1 -2.43 16.33 -2.36 15.54 C-2.16 13.34 -1.96 11.13 -1.75 8.93 C-1.63 7.64 -1.51 6.36 -1.39 5.03 C-1 2 -1 2 0 0 Z " fill="#000000" transform="translate(837,650)"/>
<path d="M0 0 C0.33 0 0.66 0 1 0 C1.06 0.63 1.13 1.26 1.2 1.9 C4.05 28.81 10.4 52.63 24.9 75.76 C28 80.72 28 80.72 28 84 C8.5 61.47 -2.53 35.55 -0.46 5.59 C-0.32 3.72 -0.16 1.86 0 0 Z " fill="#000000" transform="translate(393,693)"/>
<path d="M0 0 C4.59 4.05 6.44 9.41 6.93 15.38 C7.19 26.62 4.81 33.88 -2.92 42.09 C-3.38 42.56 -3.84 43.02 -4.31 43.49 C-4.31 40.49 -4.31 40.49 -2.43 37.8 C2.42 30.24 2.93 20.84 1.23 12.12 C-0.37 7.13 -2.86 4.4 -7.31 1.49 C-16.52 -2.27 -27.51 -1.71 -37.31 -1.51 C-28.97 -9.85 -8.68 -5.93 0 0 Z " fill="#000000" transform="translate(427.30859375,929.5078125)"/>
<path d="M0 0 C6.78 3 10.28 9.41 13.38 15.88 C15.49 26.43 13.37 35.22 8 44.44 C6.14 46.82 4.22 48.94 2 51 C2.63 47.03 3.93 43.79 5.56 40.12 C8.76 31.88 9.77 23.47 7.01 14.93 C5 10.65 3.17 7.43 -1 5 C-3.45 4.6 -3.45 4.6 -6 4.75 C-6.85 4.77 -7.69 4.78 -8.56 4.8 C-10.82 4.98 -12.83 5.38 -15 6 C-11.99 -0.95 -6.79 -0.82 0 0 Z " fill="#000000" transform="translate(264,463)"/>
<path d="M0 0 C0.33 0 0.66 0 1 0 C2.86 23.89 -9.24 45.16 -24.23 62.72 C-26.41 65.24 -28.6 67.7 -31 70 C-31.66 69.67 -32.32 69.34 -33 69 C-32.31 68.1 -31.62 67.21 -30.91 66.28 C-24.08 57.26 -18.21 48.04 -13 38 C-12.45 36.95 -11.89 35.89 -11.32 34.8 C-6.01 24.04 -2.06 11.85 0 0 Z " fill="#000000" transform="translate(340,804)"/>
<path d="M0 0 C2.41 3.62 3.39 7.31 4.57 11.45 C5.08 13.18 5.59 14.92 6.1 16.65 C6.89 19.36 7.67 22.08 8.45 24.79 C11.15 34.15 13.95 43.38 17.64 52.4 C17.92 53.08 18.2 53.75 18.48 54.45 C20.72 59.73 23.5 64.32 26.81 69 C27.2 69.66 27.6 70.32 28 71 C27.67 71.66 27.34 72.32 27 73 C9.94 55.84 0.39 26.05 -0.05 2.17 C-0.04 1.46 -0.02 0.74 0 0 Z " fill="#000000" transform="translate(476,361)"/>
<path d="M0 0 C0.66 0 1.32 0 2 0 C4.28 6.4 5.36 12.55 5.5 19.31 C5.53 20.63 5.56 21.94 5.59 23.3 C4.81 28.16 3.52 29.61 0 33 C-5.7 36.48 -11.42 37.66 -18 37 C-21.5 36 -21.5 36 -24 35 C-24 34.67 -24 34.34 -24 34 C-23.07 33.83 -22.14 33.66 -21.18 33.48 C-11.45 31.74 -11.45 31.74 -3 27 C0.26 21.15 0.37 16.17 0.19 9.56 C0.17 8.64 0.16 7.72 0.15 6.77 C0.11 4.51 0.06 2.26 0 0 Z " fill="#000000" transform="translate(715,1004)"/>
<path d="M0 0 C3.16 1.58 3.41 4.31 4.62 7.56 C12.02 26.66 22.38 43.91 35 60 C31.35 60 30.97 59.43 28.44 56.94 C15.75 43.69 0 18.91 0 0 Z " fill="#000000" transform="translate(281,704)"/>
<path d="M0 0 C4.66 0.11 8.68 0.28 12.44 3.25 C17.41 8.59 17.28 13.51 17.2 20.46 C17.19 21.36 17.19 22.26 17.19 23.19 C17.18 26.07 17.15 28.94 17.12 31.81 C17.11 33.76 17.11 35.72 17.1 37.67 C17.08 42.45 17.04 47.22 17 52 C16.34 51.67 15.68 51.34 15 51 C14.4 48.14 14.4 48.14 13.94 44.25 C13.85 43.55 13.77 42.85 13.68 42.13 C12.91 35.23 12.64 28.3 12.52 21.36 C12.35 15.62 11.56 11.19 9 6 C6.84 4.05 6.84 4.05 4.31 3 C3.5 2.61 2.7 2.22 1.86 1.81 C1.25 1.54 0.63 1.28 0 1 C0 0.67 0 0.34 0 0 Z " fill="#000000" transform="translate(815,833)"/>
<path d="M0 0 C3.59 1.47 5.36 3.37 7.69 6.44 C8.29 7.22 8.89 8 9.51 8.81 C12.87 13.75 12.56 19.24 12 25 C10.28 30.85 7.1 34.63 2 38 C-0.95 39.2 -3.93 40.16 -7 41 C-4.21 37.67 -1.43 34.42 1.69 31.38 C5.19 27.78 7.16 24.99 7.56 19.94 C7.42 14.51 4.97 10.29 2.41 5.6 C1 3 1 3 0 0 Z " fill="#000000" transform="translate(322,1034)"/>
<path d="M0 0 C6.44 -0.21 12.72 0.16 19.12 0.81 C19.88 0.88 20.63 0.95 21.4 1.02 C27.68 1.71 33.83 2.83 38.44 7.44 C39.86 9.76 40.43 11.39 41 14 C39.47 12.8 37.94 11.59 36.41 10.39 C29.9 6.64 22.66 5.43 15.31 4.44 C9.99 3.7 5.06 2.9 0 1 C0 0.67 0 0.34 0 0 Z " fill="#000000" transform="translate(247,916)"/>
<path d="M0 0 C0 5.11 -3.64 8.38 -7 12 C-16.17 19.74 -25.04 21.34 -36.74 21.3 C-40 21 -40 21 -43 19 C-42.2 18.97 -41.4 18.95 -40.58 18.92 C-24.91 18.11 -11.99 12.84 -1.14 1.29 C-0.77 0.86 -0.39 0.44 0 0 Z " fill="#000000" transform="translate(391,381)"/>
<path d="M0 0 C3.39 1.44 5.32 3.2 7.69 6 C8.29 6.7 8.89 7.4 9.51 8.12 C11 10 11 10 12 12 C8.64 11.4 6.62 10.15 4 8 C4.34 14.19 5.97 18.46 8.94 23.9 C10 26 10 26 10 28 C6.19 26.53 4.83 24.62 2.81 21.12 C2.3 20.26 1.79 19.4 1.27 18.51 C-0.74 14.53 -1.14 11.31 -1.12 6.88 C-1.13 6.01 -1.13 5.14 -1.13 4.24 C-1 2 -1 2 0 0 Z " fill="#000000" transform="translate(190,486)"/>
<path d="M0 0 C1 2 1 2 0.1 4.91 C-5.43 18.82 -12.04 31.71 -22 43 C-22 39.49 -21.15 38.08 -19.47 35.02 C-18.93 34.03 -18.39 33.03 -17.83 32.01 C-17.25 30.96 -16.66 29.9 -16.06 28.81 C-15.48 27.74 -14.89 26.67 -14.28 25.56 C-9.59 17.01 -4.83 8.48 0 0 Z " fill="#000000" transform="translate(279,213)"/>
<path d="M0 0 C2 1 2 1 3.12 3.88 C4.69 9.96 4.86 16.32 2.94 22.31 C-0.42 26.98 -4.2 30.92 -10 32 C-9.6 31.49 -9.2 30.98 -8.79 30.46 C-8.26 29.77 -7.73 29.08 -7.19 28.38 C-6.67 27.7 -6.14 27.03 -5.61 26.34 C-1.5 20.36 -0.51 15.71 -0.31 8.62 C-0.28 7.79 -0.24 6.96 -0.21 6.11 C-0.13 4.07 -0.06 2.04 0 0 Z " fill="#000000" transform="translate(426,1093)"/>
<path d="M0 0 C0.71 0.13 1.42 0.25 2.14 0.38 C3.88 0.72 5.6 1.17 7.31 1.62 C7.81 2.62 7.81 2.62 8.31 3.62 C7.66 3.55 7 3.48 6.32 3.41 C-6.8 2.13 -19.75 1.95 -32.77 4.19 C-35.46 4.59 -37.97 4.71 -40.69 4.62 C-29.05 -3.13 -13.19 -2.4 0 0 Z " fill="#000000" transform="translate(232.6875,463.375)"/>
<path d="M0 0 C0.33 0.66 0.66 1.32 1 2 C-1.25 4.56 -1.25 4.56 -4 7 C-5.32 6.67 -6.64 6.34 -8 6 C-5.36 4.02 -2.72 2.04 0 0 Z " fill="#000000" transform="translate(233,495)"/>
<path d="" fill="#000000" transform="translate(0,0)"/>
<path d="" fill="#000000" transform="translate(0,0)"/>
<path d="" fill="#000000" transform="translate(0,0)"/>
<path d="" fill="#000000" transform="translate(0,0)"/>
<path d="" fill="#000000" transform="translate(0,0)"/>
<path d="" fill="#000000" transform="translate(0,0)"/>
<path d="" fill="#000000" transform="translate(0,0)"/>
<path d="" fill="#000000" transform="translate(0,0)"/>
<path d="" fill="#000000" transform="translate(0,0)"/>
<path d="" fill="#000000" transform="translate(0,0)"/>
<path d="" fill="#000000" transform="translate(0,0)"/>
<path d="" fill="#000000" transform="translate(0,0)"/>
<path d="" fill="#000000" transform="translate(0,0)"/>
</svg>
