<?xml version="1.0" encoding="utf-8"?>
<!-- Generator: Adobe Illustrator 23.0.1, SVG Export Plug-In . SVG Version: 6.00 Build 0)  -->
<svg version="1.0" id="Слой_1" xmlns="http://www.w3.org/2000/svg" xmlns:xlink="http://www.w3.org/1999/xlink" x="0px" y="0px"
	 viewBox="0 0 720 720" style="enable-background:new 0 0 720 720;" xml:space="preserve">
<g id="Слой_7">
	<path d="M382.1,287.4c9.2,0.1,16.8-10,17-22.5c0.2-12.6-7.1-22.9-16.3-23c-9.2-0.1-16.8,10-17,22.5
		C365.6,277,372.9,287.3,382.1,287.4 M387,249.9c3.4,0.1,6.1,3.6,6,8c-0.1,4.3-2.8,7.8-6.2,7.8c-3.4-0.1-6.1-3.6-6-8
		C380.8,253.3,383.6,249.8,387,249.9"/>
</g>
<g id="Слой_6">
	<path d="M188.8,245.1c-9.2-0.1-16.8,9.9-17,22.5c-0.2,12.6,7.1,22.9,16.3,23c9.2,0.1,16.8-10,17-22.5
		C205.3,255.5,198,245.2,188.8,245.1 M192.8,268.8c-3.4,0-6.1-3.6-6-8c0.1-4.4,2.9-7.9,6.2-7.8c3.4,0,6.1,3.6,6,8
		C199,265.4,196.2,268.9,192.8,268.8"/>
</g>
<g id="Слой_5">
	<path d="M472.8,573.4c-13.7-7.9-32.7-0.6-42.4,16.3c-9.7,16.9-6.6,37,7.1,44.9c13.7,7.9,32.7,0.6,42.4-16.3
		C489.7,601.4,486.5,581.3,472.8,573.4"/>
</g>
<g id="Слой_4">
	<path d="M96.8,582.7c-11.2,11.2-9.1,31.4,4.7,45.2c13.8,13.8,34,15.9,45.2,4.7c11.2-11.2,9.1-31.4-4.7-45.2
		C128.2,573.6,107.9,571.5,96.8,582.7"/>
</g>
<g id="Слой_3">
	<path d="M575.2,281.9c-34.1-8.3-71.9,3.2-96.7,27.8c10.4-22.2,16.2-46.6,16.2-72.2c0-35.5-11.1-69.8-32.1-99.7
		c4.6-2.8,8.9-6.1,12.7-10c0,0,0,0,0,0c25.1-25.1,26.4-64.6,2.9-88.1c-23.5-23.5-63-22.1-88.1,2.9c-7.1,7.1-12.6,15.8-15.9,25.1
		c-28.3-12-58.6-18-90.2-18c-32,0-62.4,6.4-89.6,17.8c-3.3-9.2-8.8-17.8-15.8-24.9c-25.1-25.1-64.6-26.4-88.1-2.9
		c-23.5,23.5-22.1,63,2.9,88.1c0,0,0,0,0,0c3.7,3.7,7.9,7,12.3,9.7c-20.5,29-32.4,63.2-32.4,99.9c0,69.3,42.4,130,105.3,162.5
		c-3.3,11-6.3,22.4-8.8,34.2c-0.3,0.3-0.6,0.6-0.8,1.1l-1,2.3c-17.3,41.3-21.4,51.2-25.1,93c-16.7-10-40.3-8.5-57.1,4.2
		c-16.4,12.4-26.1,34.3-25.4,57.3c0.8,27.2,15.5,53.3,38.4,68c13.5,8.6,28.8,13,44.3,13c10.2,0,20.5-2,30.2-5.9
		c9.7,14.1,25.3,23.1,41.6,23.8c0.6,0,1.2,0,1.8,0c17.6,0,34.6-10.3,41.8-25.6c1.9-4,3.1-8.1,3.8-12.3c9.1-0.2,18.3-0.3,27.3-0.3
		c8.9,0,18-0.1,27-0.3c0.7,4.4,1.9,8.7,3.9,12.9C328,680.7,345,691,362.6,691c0.6,0,1.2,0,1.8,0c17.3-0.7,34-10.9,43.4-26.6
		c0-0.1,0.1-0.2,0.1-0.2c9.9,4,20.5,6,31.1,6c15.9,0,31.9-4.4,45.4-13.1c14.3-9.2,25.5-22.9,32-38.5c20.8-1.5,40.5-10.7,54.4-25.2
		c25.4-26.7,27.5-63.7,26.5-83.5c-1.3-26.6-8.9-52.6-16.2-77.7c-0.8-2.8-1.6-5.6-2.4-8.4c-5.7-19.8-10.9-42.3-0.6-59.9
		c7.3-12.6,22.6-20.1,37-18.4c14.4,1.7,27.4,12.7,31.6,26.6c0.4,1.5,2,2.4,3.5,2.1c1.5-0.3,2.6-1.7,2.4-3.3
		C648.6,329.3,616,291.8,575.2,281.9 M452.5,456.4l0.5,2.9c2.2,11.6,4.4,23.7,3.3,35.4c-1.2,12.4-7.7,24.4-16.4,30.6
		c-5.8-40.1-14.1-58.7-28.4-90.9l-1.9-4.3c-0.2-0.5-0.6-1-1.1-1.3c-2.5-11.6-5.4-23.2-8.8-34.4c21.4-12.6,40-28.5,55-46.9
		C441.8,382.9,446.4,423.4,452.5,456.4 M436.9,108.2c-1.3-1.2-2.6-2.4-3.9-3.6c-0.6-0.5-1.2-1.1-1.8-1.6c-1.9-1.7-3.9-3.3-5.9-5
		c-0.2-0.1-0.4-0.3-0.6-0.4c-1.8-1.5-3.7-2.9-5.6-4.3c-0.7-0.5-1.4-1-2.1-1.5c-1.4-1-2.8-2-4.2-3c-0.8-0.6-1.7-1.1-2.5-1.7
		c-1.3-0.9-2.6-1.8-4-2.6c-0.9-0.6-1.8-1.1-2.8-1.7c-0.8-0.5-1.6-1-2.4-1.5c1.6-2,3.3-4,5.2-5.8c7.6-7.2,16.8-11.7,26-12.6
		c8.9-0.9,16.7,1.6,22,7.2c4.4,4.6,6.7,10.9,6.5,18.1c-0.3,10.4-5.4,21.2-14.2,29.6c0,0-0.1,0.1-0.1,0.1c-0.6-0.7-1.3-1.4-2-2
		c-0.7-0.8-1.5-1.5-2.2-2.3c-1.1-1.1-2.2-2.2-3.3-3.3C438.3,109.6,437.6,108.9,436.9,108.2 M394.5,47c22.7-22.7,58.4-24,79.5-2.9
		c21.1,21.1,19.8,56.8-2.9,79.5c-3.6,3.6-7.6,6.8-12,9.4c-0.1-0.2-0.3-0.3-0.4-0.5c-1.4-1.9-2.9-3.7-4.4-5.6c-0.3-0.3-0.5-0.6-0.8-1
		c-1-1.1-1.9-2.3-2.9-3.4c0.1-0.1,0.2-0.2,0.3-0.2l0,0c10-9.5,15.8-21.8,16.1-33.8c0.2-8.9-2.6-16.6-8.1-22.4
		c-6.6-6.9-16.2-10.1-27-9c-10.5,1.1-21,6.1-29.6,14.3c-2.3,2.2-4.5,4.6-6.3,7.2c-1.9-1.1-3.9-2.1-5.9-3.2c-0.4-0.2-0.8-0.4-1.2-0.6
		c-2.7-1.4-5.4-2.7-8.2-4c-0.3-0.1-0.5-0.3-0.8-0.4C382.9,61.6,387.9,53.6,394.5,47 M374.9,74.6c7,3.1,13.9,6.6,20.4,10.3
		c2.3,1.3,4.6,2.7,6.9,4.1c15.8,9.9,29.8,21.7,41.9,35.2c1.2,1.3,2.3,2.6,3.5,4c2.9,3.4,5.7,6.9,8.3,10.5c3.1,4.2,5.9,8.5,8.6,12.9
		c-26.8,0.1-68.9,21.3-104.6,53.3c-27,24.1-71.6,73.5-76.3,138.7c-0.3,0-0.6,0-0.9,0c-0.8,0-1.5,0-2.3,0.1
		c-4.7-47.6-32-96.6-76.3-136.2c-34.9-31.3-76.1-52.1-102.4-52.1c3.1-5.4,6.4-10.6,10.1-15.6c0.5-0.2,1-0.5,1.4-1
		c3.6-4.9,7.5-9.8,11.7-14.4c2.6-2.9,5.3-5.6,8-8.4c1.9-1.9,3.8-3.7,5.8-5.5c10.5-9.6,22.2-18.1,34.9-25.4c0,0,0,0,0,0
		c6.5-3.7,13.4-7.2,20.4-10.3c0.4-0.2,0.7-0.4,0.9-0.6c27-11.6,57.2-18.2,89.2-18.2C316,55.8,346.6,62.1,374.9,74.6 M108,88.2
		c-0.2-7.2,2.1-13.5,6.5-18.1c5.3-5.5,13.1-8.1,22-7.2c9.2,0.9,18.5,5.4,26,12.6c1.8,1.8,3.5,3.6,5.1,5.6
		c-17.1,10.1-32.4,22.5-45.5,36.5C113.4,109.3,108.3,98.6,108,88.2 M97.9,123.5L97.9,123.5c-22.7-22.7-24-58.4-2.9-79.5
		C116,23,151.7,24.3,174.4,47C181,53.5,186,61.5,189,70c-5.5,2.5-10.9,5.2-16.1,8.1c-1.8-2.5-3.9-4.8-6.2-6.9
		c-8.5-8.1-19-13.2-29.6-14.3c-10.8-1.1-20.4,2.1-27,9c-5.5,5.8-8.4,13.6-8.1,22.4c0.3,12,6.2,24.3,16.1,33.8
		c-3,3.4-5.9,6.9-8.6,10.5C105.3,130.1,101.4,127.1,97.9,123.5 M79.5,237.5c0-27.1,6.7-52.9,18.8-76c24.4-2.1,66.2,18.6,101.8,50.4
		c43.3,38.7,69.9,86.6,74.3,132.8c-6,2-10.2,6.1-10.3,11c-0.1,4.9,9.1,10.6,14.4,13.4c-0.2,0.5-0.2,1-0.1,1.5
		c0.2,1.2,0.3,2.3,0.4,3.3c-0.1,1.1-0.1,2.2-0.1,3.3c-0.2,2.3-0.8,4.3-1.9,5.9c-2.4,3.6-7.4,5.4-11.5,4c-4.1-1.3-7.1-5.7-6.9-10
		c0.1-1.7-1.2-3.1-2.9-3.2c-1.6-0.1-3.1,1.2-3.2,2.9c-0.4,7,4.4,13.9,11,16.1c1.5,0.5,3.1,0.7,4.7,0.7c5.2,0,10.4-2.5,13.4-6.8
		c3,4.5,8.3,7.2,13.7,7.2c1.4,0,2.9-0.2,4.3-0.6c6.7-2,11.7-8.8,11.5-15.8c0-1.7-1.4-3-3.1-3c-1.7,0-3,1.4-3,3.1
		c0.1,4.3-3,8.6-7.2,9.8c-4.1,1.2-9.1-0.7-11.4-4.4c-1-1.6-1.6-3.6-1.7-5.9c0.1-1.1,0.1-2.2,0-3.3c0.1-1.1,0.2-2.1,0.5-3.3
		c0.1-0.4,0.1-0.7,0-1.1c5.3-2.6,15.5-8.3,15.5-13.4c0.1-5.2-4.6-9.8-11.3-11.7c4.3-63.4,48-111.6,74.3-135.1
		c35.9-32.1,79.6-53.8,104.2-51.6c13.6,24.7,20.7,51.8,20.7,79.7c0,100.2-91.8,181.7-204.6,181.7C171.3,419.2,79.5,337.7,79.5,237.5
		 M102.3,654.9c-21.2-13.6-34.9-37.8-35.7-63c-0.6-21,8.2-41.1,23-52.3c16.2-12.3,39.5-12.8,54.1-1.2c0.9,0.7,2.1,0.8,3.1,0.4
		c1-0.4,1.7-1.4,1.8-2.5c3.1-36.6,6-49.4,16.4-75.2c-7,45.3-8.6,96.5-5,154.8c0.9,14.8,2.6,31.6,10.3,46
		C148,670.6,122.7,668,102.3,654.9 M364.2,684.9c-15.8,0.6-31.5-8.4-37.9-22.1c-2-4.3-3.2-8.8-3.7-13.4c0,0,0,0,0,0
		c0-0.2,0-0.4-0.1-0.6c-1.1-10.7,1.1-22.5,3.8-35.1l16.3-75.1c0.4-1.6-0.7-3.2-2.3-3.6c-1.6-0.3-3.2,0.7-3.6,2.3l-16.3,75.1
		c-2.1,9.8-4.8,22.1-4.1,34.2c-8.8,0.2-17.7,0.2-26.4,0.3c-8.7,0-17.7,0.1-26.5,0.3c0.8-12.3-1.9-24.7-4.1-34.7l-16.3-75.1
		c-0.4-1.6-2-2.7-3.6-2.3c-1.6,0.4-2.7,2-2.3,3.6l16.3,75.1c4,18.5,6.8,34.9,0,49.2c-6.5,13.7-22,22.8-37.9,22.1
		c-15.1-0.6-30.2-9.9-38.5-23.6c-8.3-13.7-9.9-30.8-10.9-45.7c-5.3-85,0.7-154.7,18.2-212.8c29.7,14.3,63.8,22.5,99.9,22.5
		c40.4,0,78.1-10.2,110.2-27.8c23.5,78.9,22.2,170.3,19.2,218.1c-0.9,14.9-2.6,32-10.9,45.7C394.4,675,379.3,684.3,364.2,684.9
		 M481.2,651.9c-20.7,13.3-47.5,15.8-70.4,6.9c6.4-13.6,7.9-29.1,8.7-42.8c2.3-37,3.6-99.9-6.6-163.3c10.9,25.3,17.2,43.6,21.9,80.8
		c0.1,1.1,0.9,2,1.9,2.4c1,0.4,2.2,0.2,3-0.4c14.6-11.6,37.9-11.1,54.1,1.2c14.8,11.2,23.6,31.2,23,52.3
		C516.1,614.1,502.5,638.3,481.2,651.9 M615.9,339.5c-16.8-2-34.4,6.8-43,21.3c-11.5,19.7-6,43.7,0,64.7c0.8,2.8,1.6,5.6,2.4,8.4
		c7.2,24.8,14.7,50.4,16,76.3c0.9,18.7-1.1,53.9-24.9,79c-12.2,12.8-29.4,21.1-47.7,23.1c2.5-7.5,3.9-15.3,4.1-23.2
		c0.1-2.1,0-4.2-0.1-6.4c13.8-2.8,26.8-9.5,36.2-19.9c19.6-21.6,21.8-54.2,16.3-82.9c-5.4-28.7-17.2-56-21.8-84.8
		c-1.9-12-2.5-24.4,1.1-36c1.8-5.8,4.8-11.3,8.8-15.9c3-3.4,10.2-6.6,11.4-10.3c-20.1,2.2-37.5,23.9-44.4,41.4
		c-8.2,20.7-7.8,44-3,65.8c3.2,14.5,8.3,28.4,11.4,42.9c3.2,14.5,4.4,29.8-0.2,43.9c-3.8,11.9-11.9,22.2-22.2,29.2
		c-4.4-9.7-10.8-18.2-18.9-24.3c-13.5-10.2-31.4-13.1-46.6-8.7c6.7-8.2,10.5-18.9,11.4-27.8c1.2-12.5-1.1-25-3.4-37.1l-0.5-2.9
		c-7.2-38.9-12.3-88.5,12.2-126.4c21.4-33.1,64.8-50.4,103.2-41.1c32.4,7.9,59.3,34.3,69.2,66C636,346.1,626.3,340.8,615.9,339.5"/>
</g>
<g id="Слой_2">
	<path d="M564.2,300.7c-20.1-2.6-41.2,3.7-56.6,16.9c-23,19.7-31.4,51.7-32.9,82c-0.9,19,0.3,38,0.5,57c0.1,17.1,1.4,38.1-7.2,53.5
		c14-9.8,17.9-39.4,19.6-55c2.8-26.1,0.8-52.7,6-78.4c5.3-25.7,19.9-51.7,44.6-60.7c25.3-9.2,53.3,1.8,76.4,15.6
		C603.1,314.9,584.3,303.4,564.2,300.7"/>
</g>
</svg>
