<?xml version="1.0" encoding="iso-8859-1"?>
<!-- Generator: Adobe Illustrator 26.0.3, SVG Export Plug-In . SVG Version: 6.00 Build 0)  -->
<svg version="1.1" id="Layer_24" xmlns="http://www.w3.org/2000/svg" xmlns:xlink="http://www.w3.org/1999/xlink" x="0px" y="0px"
	 width="339.679px" height="542.308px" viewBox="0 0 339.679 542.308" enable-background="new 0 0 339.679 542.308"
	 xml:space="preserve">
<path d="M339.079,234.192c-1.836,32.772-7.387,64.847-18.696,95.775c-4.702,12.859-11.19,24.828-18.903,36.098
	c-7.923,11.575-18.048,21.031-29.481,29.075c-4.844,3.408-9.815,6.657-14.88,9.727c-12.62,7.649-24.87,15.881-37.426,23.625
	c-15.387,9.491-23.446,23.428-25.773,41.085c-1.843,13.983-1.419,27.924,0.42,41.857c0.825,6.248,1.718,12.487,2.577,18.73
	c0.086,0.624,0.21,1.25,0.225,1.877c0.064,2.505-1.036,4.136-3.048,4.59c-2.014,0.454-3.795-0.586-4.665-2.898
	c-0.441-1.17-0.774-2.417-0.915-3.657c-1.145-10.017-2.701-19.988-3.414-30.052c-0.958-13.524-0.592-26.995,2.55-40.242
	c3.682-15.522,12.115-27.875,25.553-36.577c13.23-8.567,26.468-17.122,39.932-25.324c7.537-4.591,14.898-9.452,21.797-15.004
	c15.844-12.752,26.444-29.319,34.578-47.602c7.674-17.251,12.29-35.472,15.82-53.948c5.443-28.489,7.141-57.278,6.079-86.235
	c-1.282-34.973-8.225-68.749-21.546-101.177c-2.97-7.231-5.911-14.45-9.462-21.433c-11.195-22.016-28.183-37.868-50.672-47.829
	c-15.177-6.722-31.084-11.032-47.472-13.626c-11.844-1.875-23.7-3.612-35.743-2.923c-19.691,1.128-39.153,3.615-57.984,9.86
	c-6.616,2.194-12.813,5.233-18.881,8.627c-11.277,6.307-21.68,13.812-31.412,22.29c-13.74,11.969-22.899,26.894-29.41,43.806
	c-8.204,21.309-13.373,43.297-16.683,65.823c-2.96,20.14-3.77,51.766-4.131,70.956c0.327,16.896,0.403,33.806,2.033,50.644
	c2.241,23.146,7.656,45.471,17.92,66.452c7.618,15.573,18.741,28.151,33.685,36.937c15.784,9.28,32.169,17.363,50.155,21.664
	c3.548,0.849,7.013,2.053,10.501,3.142c8.162,2.546,15.332,6.754,22.123,12c8.185,6.323,15.159,13.606,21.163,21.972
	c4.091,5.7,6.397,11.957,7.12,18.868c0.972,9.29,1.38,18.611,1.463,27.945c0.126,14.127,0.115,28.254-0.211,42.379
	c-0.049,2.139,0.127,4.283,0.173,6.425c0.053,2.441-0.928,3.968-2.751,4.344c-1.892,0.389-3.713-0.929-4.382-3.286
	c-0.557-1.963-0.444-4.006-0.47-6.018c-0.16-12.359-0.314-24.719-0.413-37.079c-0.079-9.839-0.309-19.667-0.932-29.492
	c-0.526-8.293-3.07-15.547-8.157-22.314c-6.803-9.049-15.328-16.003-24.43-22.376c-5.214-3.652-11.39-5.323-17.4-7.224
	c-7.445-2.355-15.169-3.763-22.439-6.734c-10.633-4.345-21.005-9.238-31.057-14.783c-21.167-11.677-35.756-29.109-44.889-51.366
	C9.053,322.647,4.152,303.022,2.28,282.686c-2.374-25.778-2.834-51.612-1.659-77.481c0.469-10.33,0.719-20.669,1.667-30.972
	c3.034-32.985,10.05-64.972,23.674-95.339c6.041-13.465,14.779-24.899,25.61-34.783C64.13,32.651,78.051,23.108,93.279,15.57
	c12.763-6.318,26.499-9.639,40.444-12.057c8.321-1.443,16.734-2.308,25.152-3.019c12.372-1.046,24.662-0.353,36.961,1.359
	c16.171,2.251,31.978,5.892,47.322,11.434c22.499,8.127,41.44,21.156,55.531,40.779c5.251,7.312,9.546,15.194,13.074,23.409
	c7.864,18.308,15.085,36.886,19.479,56.393c4.663,20.7,7.736,41.599,8.249,62.888C339.794,209.255,339.777,221.729,339.079,234.192z
	 M256.959,312.737c1.62-0.089,2.466-1.091,2.672-2.663c0.032-0.249,0.047-0.503,0.045-0.754c-0.042-5.294-0.075-10.587-0.147-15.881
	c-0.008-0.614-0.18-1.248-0.387-1.833c-0.324-0.921-1.047-1.413-2.017-1.422c-4.546-0.04-2.732,16.491-2.704,19.502
	C254.438,311.59,255.439,312.82,256.959,312.737z M229.676,194.431c-1.671,0.074-2.32,1.401-2.356,2.896
	c-0.127,5.363,0.363,10.739,0.652,16.093c0.04,0.74,0.085,1.5,0.397,2.172c1.924,4.139,4.719-0.822,4.572-3.196
	c-0.312-5.064-0.562-10.132-0.872-15.195C231.978,195.703,231.427,194.354,229.676,194.431z M49.147,264.798
	c0.699,1.861,2.163,2.638,3.788,2.041c1.464-0.538,2.156-1.927,1.394-3.685c-0.981-2.265-0.998-4.627-1.21-6.98
	c-0.236-2.617-0.408-5.24-0.55-7.863c-0.077-1.416-0.565-2.416-2.049-2.626c-1.01,0.012-1.693,0.486-2.209,1.271
	c-0.436,0.663-0.537,1.409-0.49,2.159c0.298,4.746,0.615,9.491,0.952,14.234C48.809,263.838,48.972,264.333,49.147,264.798z
	 M218.281,279.656c0.905,0.294,1.753,0.1,2.418-0.607c0.644-0.686,0.771-1.578,0.78-2.461c0.028-2.517,0.009-5.034,0.009-7.551
	c-0.005,0-0.01,0-0.015,0c0-2.643,0.034-5.286-0.014-7.928c-0.025-1.367-0.507-2.527-2.116-2.613
	c-1.562-0.083-2.171,1.015-2.549,2.301c-0.07,0.239-0.108,0.495-0.111,0.744c-0.05,5.159-0.108,10.319-0.128,15.478
	C216.551,278.236,217.024,279.248,218.281,279.656z M179.15,306.016c-0.049-1.875,0.039-3.756-0.053-5.628
	c-0.106-2.163-0.985-3.337-2.36-3.177c-1.882,0.219-2.366,1.65-2.425,3.253c-0.064,1.749-0.015,3.502-0.015,5.253
	c0.097,2.603-0.511,5.278,0.575,7.793c0.741,1.716,2.142,2.406,3.572,1.758c1.458-0.661,2.141-1.881,1.454-3.36
	C179.005,309.985,179.202,307.999,179.15,306.016z M82.538,138.867c-0.561-2.4-0.215-4.766-0.292-7.272
	c0.072-1.512,0.153-3.149,0.226-4.786c0.063-1.414-0.443-2.601-1.898-2.852c-1.718-0.296-2.459,0.917-2.821,2.397
	c-0.09,0.366-0.173,0.742-0.187,1.117c-0.151,3.904-0.366,7.808-0.395,11.714c-0.017,2.235,1.148,3.388,2.808,3.192
	C81.644,142.179,82.958,140.665,82.538,138.867z M215.327,339.287c-0.304,0.535-0.525,1.153-0.63,1.76
	c-0.682,3.951-1.322,7.91-1.976,11.867c-0.111,1.623,0.065,3.1,1.904,3.637c4.179,1.219,7.117-17.707,3.542-18.578
	C216.91,337.667,215.943,338.204,215.327,339.287z M169.8,400.329c-0.24,1.815,0.839,3.119,2.334,3.285
	c4.564,0.507,2.978-13.014,3.046-15.731c0.007-0.261-0.017-0.516-0.065-0.761c-0.479-2.419-3.418-3.853-4.381-0.722
	c-0.291,0.946-0.333,1.977-0.414,2.977C170.026,393.02,170.281,396.685,169.8,400.329z M121.459,369.808
	c-0.291,0.946-0.333,1.977-0.414,2.977c-0.293,3.643-0.038,7.308-0.52,10.952c-0.24,1.817,0.842,3.122,2.339,3.286
	c1.482,0.162,2.656-0.923,2.768-2.886c0.11-1.92-0.047-3.838,0.053-5.755c0.138-2.626,0.222-5.216,0.219-7.86
	c-0.002-1.28-0.483-2.245-1.856-2.431C122.732,367.911,121.824,368.621,121.459,369.808z M142.55,256.461
	c-0.291,0.946-0.333,1.977-0.414,2.977c-0.293,3.643-0.038,7.308-0.52,10.952c-0.24,1.817,0.842,3.122,2.339,3.286
	c1.482,0.162,2.656-0.923,2.768-2.886c0.11-1.92-0.047-3.838,0.054-5.755c0.138-2.626,0.222-5.216,0.219-7.86
	c-0.002-1.28-0.483-2.245-1.856-2.431C143.823,254.564,142.915,255.274,142.55,256.461z M312.389,221.657
	c0.11-1.92-0.047-3.838,0.053-5.755c0.138-2.626,0.222-5.216,0.219-7.86c-0.002-1.28-0.483-2.245-1.856-2.431
	c-1.317-0.178-2.225,0.532-2.59,1.719c-0.291,0.946-0.333,1.977-0.414,2.976c-0.293,3.643-0.038,7.308-0.52,10.952
	c-0.24,1.817,0.842,3.122,2.339,3.286C311.102,224.705,312.276,223.62,312.389,221.657z M139.583,168.047
	c0.232-4.033,0.168-8.114,0.285-12.157c0.013-0.458-0.066-0.936-0.213-1.397c-0.738-2.32-3.191-4.202-4.245-0.774
	c-0.291,0.946-0.333,1.977-0.414,2.976c-0.293,3.643-0.038,7.308-0.52,10.952c-0.24,1.817,0.842,3.122,2.339,3.286
	C138.296,171.096,139.47,170.011,139.583,168.047z M128.06,64.933c0.232-4.033,0.168-8.114,0.285-12.157
	c0.013-0.458-0.066-0.936-0.213-1.397c-0.738-2.321-3.191-4.202-4.245-0.774c-0.291,0.946-0.333,1.977-0.414,2.976
	c-0.293,3.643-0.038,7.308-0.52,10.952c-0.24,1.817,0.842,3.122,2.339,3.286C126.773,67.982,127.947,66.897,128.06,64.933z
	 M97.416,288.775c-0.291,0.946-0.333,1.977-0.414,2.977c-0.293,3.643-0.038,7.308-0.52,10.952c-0.24,1.817,0.842,3.122,2.339,3.286
	c1.482,0.162,2.656-0.923,2.768-2.886c0.11-1.92-0.047-3.838,0.054-5.755c0.138-2.626,0.222-5.216,0.219-7.86
	c-0.002-1.28-0.483-2.245-1.856-2.431C98.689,286.878,97.781,287.588,97.416,288.775z M107.858,207.923
	c-0.291,0.946-0.333,1.977-0.414,2.976c-0.293,3.643-0.038,7.308-0.52,10.952c-0.24,1.817,0.842,3.122,2.339,3.286
	c1.482,0.162,2.656-0.923,2.768-2.886c0.11-1.92-0.047-3.838,0.053-5.755c0.138-2.626,0.222-5.216,0.219-7.86
	c-0.002-1.28-0.483-2.245-1.856-2.431C109.131,206.026,108.223,206.736,107.858,207.923z M292.107,134.605
	c1.482,0.162,2.656-0.923,2.768-2.886c0.11-1.92-0.047-3.838,0.054-5.755c0.138-2.626,0.222-5.216,0.219-7.86
	c-0.002-1.28-0.483-2.245-1.856-2.431c-1.317-0.178-2.225,0.532-2.59,1.719c-0.291,0.946-0.333,1.977-0.414,2.976
	c-0.293,3.643-0.038,7.308-0.52,10.952C289.528,133.136,290.61,134.441,292.107,134.605z M35.504,299.49
	c-1.15-0.151-1.902,0.5-2.41,1.448c-0.628,1.171-0.375,2.452-0.392,3.515c0.259,3.059,0.489,5.938,0.757,8.814
	c0.057,0.616,0.151,1.264,0.401,1.82c0.582,1.295,1.632,1.92,3.05,1.574c1.431-0.349,2.17-1.381,1.851-2.809
	c-0.907-4.067-0.994-8.212-1.374-12.331C37.286,300.416,36.655,299.641,35.504,299.49z M262.716,163.291
	c0.382,1.056,1.24,1.54,2.368,1.425c1.137-0.116,1.805-0.823,2.041-1.892c0.133-0.601,0.096-1.239,0.142-1.961
	c-0.422-3.128-0.725-6.372-1.336-9.557c-0.402-2.093-1.63-2.911-3.048-2.487c-1.726,0.515-1.731,1.9-1.587,3.342
	c0.287,2.86,0.535,5.725,0.851,8.582C262.242,161.604,262.422,162.478,262.716,163.291z M287.369,248.501
	c-0.181,0.455-0.296,0.967-0.304,1.456c-0.058,3.505-0.089,7.009-0.11,10.514c-0.009,1.561,0.604,2.775,2.296,2.862
	c1.957,0.101,2.464-1.516,2.493-3.145c0.066-3.709,0.242-7.432,0.125-11.14c-0.04-1.248-0.653-2.194-1.976-2.355
	C288.567,246.533,287.816,247.378,287.369,248.501z M135.015,320.365c-1.658-0.057-2.566,0.967-2.672,2.547
	c-0.108,1.622-0.024,3.257-0.024,5.52c0.08,1.371,0.057,3.394,0.355,5.369c0.275,1.824,1.695,2.695,3.211,2.298
	c1.587-0.416,3.125-2.392,2.413-3.692c-1.633-2.979-1.12-6.092-1.113-9.184C137.19,321.628,136.799,320.426,135.015,320.365z
	 M233.598,394.357c1.074,0.654,2.155,0.568,3.168-0.147c0.765-0.54,1.108-1.35,1.216-2.248c0.255-2.114,0.481-4.232,0.671-5.925
	c0-1.808,0.086-3.19-0.027-4.556c-0.092-1.116-0.833-1.82-1.982-1.897c-1.138-0.077-1.927,0.536-2.311,1.563
	c-0.214,0.572-0.262,1.217-0.315,1.836c-0.247,2.861-0.297,5.737-1.475,8.458C232.052,392.574,232.482,393.677,233.598,394.357z
	 M75.574,362.267c1.307,0.811,2.622,0.704,3.855-0.182c0.931-0.669,1.348-1.673,1.48-2.786c0.31-2.621,0.585-5.245,0.816-7.344
	c0-2.241,0.104-3.954-0.033-5.646c-0.112-1.383-1.013-2.255-2.412-2.351c-1.385-0.095-2.345,0.664-2.813,1.938
	c-0.26,0.709-0.319,1.509-0.383,2.275c-0.3,3.546-0.361,7.111-1.795,10.482C73.693,360.057,74.216,361.424,75.574,362.267z
	 M200.154,20.783c-4.353-0.142-2.517,10.42-2.459,12.934c0.033,1.449,0.759,2.441,2.256,2.523c1.523,0.083,2.352-0.875,2.452-2.306
	c0.254-3.649,0.171-7.304-0.098-10.95C202.212,21.727,201.506,20.828,200.154,20.783z M227.403,75.893
	c-4.353-0.142-2.517,10.42-2.459,12.934c0.033,1.45,0.76,2.441,2.256,2.523c1.523,0.083,2.352-0.875,2.452-2.306
	c0.254-3.649,0.171-7.304-0.098-10.95C229.46,76.836,228.754,75.938,227.403,75.893z M46.923,111.587
	c-1.679-0.307-2.501,0.786-2.969,2.233c-0.741,2.291-0.719,4.703-1.099,6.849c-0.177,1.352-0.059,2.481,0.637,3.433
	c0.833,1.14,2.022,1.463,3.343,1.025c1.209-0.401,2.111-1.416,1.623-2.568c-1.131-2.668-0.19-5.178,0.13-7.749
	C48.77,113.34,48.739,111.92,46.923,111.587z M286.433,353.474c0.254,0.627,0.775,1.03,1.382,1.208
	c0.339,0.099,0.705,0.128,1.068,0.086c0.951-0.111,1.595-0.814,1.871-1.699c1.001-3.215,1.78-6.495,2.188-9.841
	c0.152-1.244-0.521-2.215-1.787-2.495c-1.273-0.281-2.29,0.324-2.628,1.539c-0.541,1.948-1.034,3.91-1.518,5.873
	C286.597,349.811,285.744,351.778,286.433,353.474z M36.948,175.504c-1.31-0.015-2.113,0.83-2.211,2.09
	c-0.251,3.233-0.469,6.484,0.08,9.704c0.237,1.391,1.241,2.25,2.683,2.04c0.947-0.138,1.605-1.06,2.006-2.368
	C40.717,183.016,39.574,175.534,36.948,175.504z M114.478,108.56c0.947-0.138,1.605-1.06,2.006-2.368
	c1.211-3.954,0.069-11.436-2.558-11.466c-1.31-0.015-2.113,0.83-2.211,2.09c-0.251,3.233-0.469,6.484,0.08,9.704
	C112.033,107.911,113.036,108.769,114.478,108.56z M201.293,143.247c-0.042,2.589-0.067,5.251,0.369,7.803
	c0.237,1.391,1.241,2.25,2.683,2.04c0.947-0.138,1.605-1.06,2.006-2.368c0.807-2.634,0.808-6.384-0.301-8.943
	C204.415,138.007,201.357,139.258,201.293,143.247z M78.851,64.706c0.947-0.138,1.606-1.06,2.006-2.368
	c0.807-2.634,0.809-6.384-0.301-8.943c-1.635-3.772-4.692-2.521-4.757,1.468c-0.042,2.589-0.066,5.251,0.369,7.803
	C76.406,64.057,77.41,64.916,78.851,64.706z M69.915,189.617c-1.756,0.019-2.293,1.306-2.393,2.815
	c-0.158,2.371-0.179,4.703-1.348,6.946c-0.74,1.419,0.575,3.385,2.118,3.861c1.66,0.513,2.981-0.369,3.394-2.527
	c0.306-1.596,0.317-3.248,0.538-5.764c0-0.247,0.033-1.379-0.008-2.508C72.16,190.937,71.734,189.598,69.915,189.617z
	 M172.751,81.708c1.66,0.513,2.981-0.369,3.394-2.527c0.306-1.596,0.317-3.248,0.538-5.764c0-0.247,0.033-1.379-0.008-2.508
	c-0.055-1.504-0.481-2.843-2.301-2.823c-1.756,0.019-2.293,1.306-2.393,2.815c-0.158,2.371-0.179,4.703-1.348,6.946
	C169.894,79.265,171.209,81.231,172.751,81.708z M180.165,213.235c-0.132-1.416-0.552-2.791-2.322-2.818
	c-1.717-0.026-2.252,1.275-2.352,2.793c-0.164,2.49-0.309,4.981-0.515,7.467c-0.124,1.486-0.006,2.807,1.744,3.214
	c1.461,0.339,2.799-0.604,3.154-2.449c0.455-2.362,0.447-4.785,0.351-7.179C180.212,213.931,180.197,213.582,180.165,213.235z"/>
<g>
</g>
<g>
</g>
<g>
</g>
<g>
</g>
<g>
</g>
<g>
</g>
</svg>
