<?xml version="1.0" encoding="UTF-8"?>
<!-- Generator: visioncortex VTracer 0.6.3 -->
<svg version="1.1" xmlns="http://www.w3.org/2000/svg" width="853" height="1280">
<path d="M0 0 C2.62 0.38 2.62 0.38 5 1 C7.09 6.31 8.61 10.29 7 16 C7.66 16 8.32 16 9 16 C9 22.6 9 29.2 9 36 C9.66 36 10.32 36 11 36 C11.03 39.31 11.05 42.62 11.06 45.94 C11.07 46.88 11.08 47.83 11.09 48.8 C11.09 49.7 11.09 50.6 11.1 51.53 C11.1 52.36 11.11 53.19 11.11 54.05 C11 56 11 56 10 57 C9.93 58.85 9.92 60.71 9.94 62.56 C9.95 63.57 9.96 64.59 9.96 65.63 C9.98 66.41 9.99 67.19 10 68 C13.2 67.38 15.42 66.24 18.12 64.44 C21.78 62 21.78 62 24 62 C24.33 61.01 24.66 60.02 25 59 C25.66 59 26.32 59 27 59 C28.42 58.2 29.8 57.35 31.16 56.46 C32.03 55.91 32.89 55.36 33.78 54.78 C34.72 54.17 35.66 53.57 36.62 52.94 C38.63 51.65 40.63 50.36 42.64 49.07 C43.69 48.4 44.73 47.73 45.81 47.04 C50.97 43.75 56.17 40.54 61.38 37.31 C68.24 33.05 75.01 28.7 81.62 24.06 C106.03 6.99 106.03 6.99 116.06 8.31 C117.03 8.54 118 8.77 119 9 C118.67 11.31 118.34 13.62 118 16 C117.34 16 116.68 16 116 16 C115.94 16.58 115.88 17.16 115.81 17.75 C114.67 20.92 112.65 21.92 110 24 C108.13 26.09 106.33 28.23 104.55 30.39 C104.04 30.92 103.53 31.45 103 32 C102.34 32 101.68 32 101 32 C101.66 32.99 102.32 33.98 103 35 C103.75 39.02 103.03 41.45 100.81 44.75 C93.03 54.26 82.58 60.11 71.63 65.21 C69.2 66.35 67.22 67.52 64.96 69.04 C62.33 70.78 59.82 71.95 56.91 73.13 C53.05 74.89 49.51 77.23 45.94 79.5 C45.11 80.02 44.29 80.55 43.44 81.09 C30.67 88.5 30.67 88.5 21 99 C21.77 98.76 22.54 98.52 23.34 98.27 C26.83 97.17 30.32 96.09 33.81 95 C35.03 94.62 36.24 94.24 37.49 93.84 C38.66 93.48 39.82 93.12 41.02 92.75 C42.63 92.25 42.63 92.25 44.27 91.73 C47 91 47 91 50 91 C50.21 90.22 50.41 89.43 50.62 88.62 C52 86 52 86 54.52 84.86 C74.47 79.94 97.64 85.88 115 96 C118.86 98.46 122.44 101.12 126 104 C126.89 104.69 127.78 105.37 128.69 106.08 C139.9 114.93 149.29 124.84 157.74 136.3 C159.99 139.34 162.31 142.32 164.62 145.31 C165.47 146.41 166.32 147.51 167.16 148.61 C167.77 149.4 168.38 150.19 169 151 C174.71 149.7 179.91 147.92 185.31 145.69 C238.61 124.5 303.27 127.21 355.96 148.59 C357.11 149.06 358.25 149.52 359.44 150 C360.41 150.41 361.37 150.82 362.37 151.25 C365.45 152.13 367.02 152.16 370 151 C371.68 149.07 371.68 149.07 373 146.5 C380.65 133.72 390.4 119.4 402.95 111.04 C406.03 108.98 408.63 106.72 411.38 104.25 C427.97 89.98 450.38 83.47 472 84 C476.75 84.6 481.63 85.34 485 89 C485 89.99 485 90.98 485 92 C485.65 92.1 486.31 92.2 486.98 92.3 C508.8 95.87 528.27 106.83 545 121 C546.27 122.07 546.27 122.07 547.57 123.16 C553.47 128.28 558.4 133.68 563 140 C563.39 140.52 563.77 141.05 564.17 141.58 C582.19 166.19 592.61 196.89 588.68 227.5 C587.82 232.45 586.51 237.2 585 242 C584.65 243.12 584.3 244.25 583.94 245.41 C579.32 258.62 571.85 270.11 562 280 C561.29 280.75 560.59 281.5 559.86 282.27 C558 284 558 284 556 284 C556.33 284.66 556.66 285.32 557 286 C557.56 288.69 557.56 288.69 557 292 C551.71 299.25 543.23 301.54 535 304 C533.51 304.48 533.51 304.48 531.99 304.97 C520.94 308.21 509.06 308.16 498 305 C498.37 305.91 498.74 306.81 499.12 307.75 C500 311 500 311 499.34 313.12 C497.59 315.58 496.44 315.81 493.5 316.38 C482.7 318.07 473.57 313.39 464 309 C464 308.34 464 307.68 464 307 C462.35 307 460.7 307 459 307 C459.27 308.26 459.53 309.52 459.8 310.81 C462.03 321.5 464.04 332.11 465 343 C465.07 343.76 465.14 344.53 465.21 345.31 C468.76 387.94 459.4 431.42 432 465 C431.4 465.75 430.8 466.51 430.18 467.29 C428.84 468.91 427.43 470.46 426 472 C425.34 472 424.68 472 424 472 C423.8 472.55 423.6 473.1 423.39 473.66 C421.12 477.48 417.5 480.07 414.08 482.85 C412.23 484.38 412.23 484.38 410 487 C410.32 490.69 411.64 493.71 413.22 497.03 C413.67 497.98 414.13 498.93 414.59 499.9 C415.08 500.91 415.56 501.91 416.06 502.94 C416.56 503.98 417.06 505.02 417.58 506.09 C420.76 512.63 424.17 518.92 427.85 525.19 C441.69 549.27 458.06 580.21 462.48 608.02 C462.89 610.95 462.89 610.95 463.94 613.34 C465.39 616.98 466.17 620.68 467 624.5 C467.17 625.3 467.35 626.1 467.53 626.92 C470.28 639.75 472.36 652.69 471.78 665.85 C471.13 681.06 472.14 691.56 479.77 704.73 C481.93 708.72 483.46 712.95 485.06 717.19 C487.73 724.05 490.69 730.64 494.06 737.18 C496.48 741.91 498.73 746.7 500.88 751.56 C501.16 752.21 501.45 752.85 501.74 753.51 C503.52 757.61 504.78 761.71 506 766 C506.96 768.43 507.96 770.85 509 773.25 C509.52 774.45 510.03 775.65 510.56 776.89 C511.94 780.07 511.94 780.07 514 783 C514.78 781.64 514.78 781.64 515.58 780.25 C522.04 769.42 529.89 760.59 542 756 C544.81 755.88 544.81 755.88 547 757 C548 759 549 761 550 763 C555.49 770.5 561.6 775.14 570 779 C566.86 767.38 562.15 757.83 555.3 747.97 C554 746 554 746 553.02 743.81 C552.07 741.65 552.07 741.65 549 741 C548.3 739.68 547.62 738.35 547 736.99 C543.09 729.2 537.74 722.14 532.5 715.21 C531 713 531 713 531 711 C529.35 710.67 527.7 710.34 526 710 C526.03 711.86 526.03 711.86 526.06 713.75 C526.06 716.7 525.83 719.16 525 722 C524.65 724.33 524.31 726.66 524 729 C523.34 729 522.68 729 522 729 C522.33 730.98 522.66 732.96 523 735 C522.34 735 521.68 735 521 735 C521.16 735.87 521.33 736.73 521.5 737.62 C521.97 740.81 522.08 743.78 522 747 C522.76 746.63 523.53 746.26 524.31 745.88 C525.2 745.59 526.09 745.3 527 745 C527.99 745.66 528.98 746.32 530 747 C529.34 747 528.68 747 528 747 C528 747.66 528 748.32 528 749 C527.34 749 526.68 749 526 749 C525.75 749.62 525.5 750.24 525.25 750.88 C524 753 524 753 522.13 753.88 C519.57 755.23 518.43 756.77 516.69 759.06 C514.29 761.93 512.83 763.5 509.06 764 C508.05 764 507.04 764 506 764 C506.52 760.22 507.31 757.38 509 754 C509 752.68 509 751.36 509 750 C509.66 750 510.32 750 511 750 C511.06 748.82 511.12 747.64 511.18 746.42 C511.27 744.86 511.35 743.31 511.44 741.75 C511.48 740.97 511.52 740.2 511.56 739.39 C511.6 738.64 511.64 737.89 511.68 737.11 C511.72 736.42 511.76 735.73 511.79 735.01 C512.01 732.93 512.45 731.02 513 729 C513.99 724.37 514.89 719.75 515.56 715.06 C516 712 516 712 517 709 C517.04 707.33 517.05 705.67 517 704 C517.66 704 518.32 704 519 704 C519.04 703.09 519.04 703.09 519.08 702.16 C519.56 694.7 521.16 687.79 523.06 680.6 C523.58 678.61 524.08 676.6 524.48 674.58 C527.47 659.78 532.68 645.55 538.71 631.76 C539.12 630.81 539.54 629.87 539.96 628.89 C540.33 628.07 540.7 627.24 541.08 626.39 C542.02 623.94 542.56 621.59 543 619 C543.66 619 544.32 619 545 619 C546.09 617.44 547.09 615.82 548.06 614.19 C555.77 601.74 565.33 591.95 576.74 582.92 C579.06 581.2 579.06 581.2 580 579 C578.1 579.26 576.21 579.53 574.31 579.81 C573.26 579.96 572.2 580.11 571.11 580.27 C567.89 581.03 565.79 582.26 563 584 C562.01 584 561.02 584 560 584 C559.67 584.66 559.34 585.32 559 586 C558.3 586.41 557.6 586.83 556.88 587.25 C545.98 593.88 540.19 604.35 534.02 615.17 C533.07 616.81 532.04 618.41 531 620 C530.34 620 529.68 620 529 620 C528.79 620.91 528.59 621.82 528.38 622.75 C527.04 627.49 524.71 631.69 522.45 636.05 C521.21 638.58 520.25 641.01 519.38 643.69 C518.69 645.33 518.69 645.33 518 647 C515.91 647.71 515.91 647.71 514 648 C503 630.57 503 630.57 503 625 C502.34 625 501.68 625 501 625 C500.66 624.31 500.32 623.63 499.98 622.92 C499.53 622.02 499.08 621.12 498.62 620.19 C498.18 619.29 497.74 618.4 497.29 617.48 C495.98 614.85 495.98 614.85 494 612 C494 611.01 494 610.02 494 609 C493.34 609 492.68 609 492 609 C491.15 607.27 491.15 607.27 490.29 605.51 C488.13 601.2 485.81 597 483.44 592.81 C483.05 592.13 482.67 591.44 482.27 590.74 C480.23 587.13 478.15 583.54 476 580 C476.08 581.28 476.17 582.55 476.25 583.87 C476.36 585.54 476.46 587.21 476.56 588.88 C476.62 589.72 476.67 590.56 476.73 591.43 C476.78 592.23 476.83 593.04 476.88 593.87 C476.93 594.61 476.97 595.35 477.02 596.12 C477 598 477 598 476 600 C476.66 600 477.32 600 478 600 C478.06 600.89 478.12 601.77 478.19 602.69 C480.57 618.49 490.56 631.34 500.63 643.12 C509.91 654.4 512.43 662.63 512 677 C511.34 677 510.68 677 510 677 C510 677.66 510 678.32 510 679 C509.34 679 508.68 679 508 679 C507.82 678.07 507.63 677.14 507.44 676.18 C505.11 665.95 501.36 659.32 495 651 C494.29 649.92 493.59 648.85 492.86 647.74 C491.09 645.13 489.53 643.81 487 642 C487 641.34 487 640.68 487 640 C486.34 640 485.68 640 485 640 C471.27 622.42 464.7 596.92 466 575 C466.58 571.8 467.15 568.71 469 566 C470.91 565.14 470.91 565.14 473 565 C480.2 569.71 483.81 576.68 488 584 C488.96 585.66 489.93 587.33 490.89 588.99 C499.43 603.75 507.46 618.71 515 634 C516.34 631.4 517.67 628.79 519 626.19 C519.57 625.08 519.57 625.08 520.16 623.95 C520.52 623.24 520.88 622.53 521.25 621.79 C521.59 621.14 521.92 620.48 522.27 619.81 C523.19 617.86 523.19 617.86 523 615 C523.99 615 524.98 615 526 615 C526.23 614.24 526.45 613.47 526.69 612.69 C527.82 609.5 529.14 606.65 530.62 603.62 C532.71 598.96 534.35 595.08 533 590 C530.02 582.27 526.67 575.79 520.03 570.6 C507.24 560.52 499.67 544.2 495 529 C494.66 528.05 494.33 527.1 493.98 526.12 C490.83 516.12 488.43 505.16 492 495 C492.66 494.01 493.32 493.02 494 492 C506.39 492.39 513.85 500.3 523 508 C523 507.01 523 506.02 523 505 C522.34 504.67 521.68 504.34 521 504 C521.66 504 522.32 504 523 504 C522.95 502.85 522.9 501.7 522.84 500.52 C522.84 495.89 523.98 492.03 525.5 487.69 C527.36 482.47 527.36 482.47 528 477 C528.66 477 529.32 477 530 477 C530.29 476.22 530.58 475.43 530.88 474.62 C532 472 532 472 534 470 C536.19 469.44 536.19 469.44 539 470 C548.99 476.56 554.15 491.66 556.62 502.81 C556.81 503.9 556.81 503.9 557 505 C557.17 505.6 557.34 506.2 557.51 506.82 C560.25 518.98 558.65 533.52 555.25 545.38 C554.04 549.73 553.96 551.97 556 556 C556.49 558.67 556.73 561.3 557 564 C556.01 564.66 555.02 565.32 554 566 C553.67 564.68 553.34 563.36 553 562 C552.34 562 551.68 562 551 562 C550.16 560.57 549.33 559.13 548.5 557.69 C548.04 556.89 547.57 556.09 547.09 555.26 C546 553 546 553 546 550 C545.34 550 544.68 550 544 550 C542 547 542 547 542 544 C541.34 544 540.68 544 540 544 C537 539.62 537 539.62 537 537 C536.34 537 535.68 537 535 537 C533.67 535.21 533.67 535.21 532.19 532.81 C529.77 529.06 527.25 526.09 524 523 C522.95 521.75 521.91 520.5 520.88 519.25 C515.35 512.86 508.5 506.95 501 503 C500.01 503 499.02 503 498 503 C497.62 507.1 498.61 510.03 500.15 513.74 C501 516 501 516 501.82 519.21 C503.22 523.71 505.24 527.57 507.5 531.69 C508.3 533.17 509.1 534.65 509.91 536.14 C510.26 536.78 510.61 537.43 510.98 538.1 C511.69 539.42 512.37 540.76 513.02 542.1 C513.99 544.15 513.99 544.15 515.81 546.19 C519.3 550.67 522.2 555.6 524 561 C526.72 564.66 529.79 567.9 532.94 571.19 C537.43 576.07 540.48 580.88 543 587 C543.52 586.6 544.04 586.2 544.57 585.79 C548.89 582.52 553.14 579.43 558 577 C557.99 576.19 557.98 575.38 557.96 574.55 C557.95 572.95 557.95 572.95 557.94 571.31 C557.93 570.26 557.91 569.2 557.9 568.11 C557.99 565.28 558.35 562.76 559 560 C559.66 560 560.32 560 561 560 C561.14 559.44 561.27 558.88 561.41 558.3 C565.88 541.66 575.7 527.74 587 515 C587.33 514.34 587.66 513.68 588 513 C589.05 511.25 590.1 509.5 591.16 507.75 C592.22 505.87 592.22 505.87 592 503 C592.99 501.99 593.99 500.99 595 500 C595.87 498.37 596.7 496.72 597.5 495.06 C602.89 484.95 611.86 475.83 621 469 C621.66 469 622.32 469 623 469 C623.33 468.01 623.66 467.02 624 466 C625.96 465.09 625.96 465.09 628.38 464.38 C629.17 464.14 629.96 463.9 630.77 463.65 C631.88 463.33 631.88 463.33 633 463 C633.99 462.67 634.98 462.34 636 462 C637.56 461.93 639.13 461.91 640.69 461.94 C641.5 461.95 642.3 461.96 643.14 461.96 C644.06 461.98 644.06 461.98 645 462 C652.87 474.87 651.11 494.85 648 509 C647.34 509 646.68 509 646 509 C646.11 510.47 646.11 510.47 646.21 511.96 C646.2 516.67 644.52 520.35 642.56 524.56 C642.02 525.74 642.02 525.74 641.47 526.94 C633.53 543.86 621.92 560.05 605.28 569.21 C596.72 574.25 589.98 581.27 583.04 588.31 C580.82 590.55 578.58 592.77 576.33 594.99 C565.25 606.04 555.92 617.6 549.38 631.94 C549.01 632.72 548.65 633.5 548.28 634.3 C533.34 666.47 533.34 666.47 531 700 C532.79 702.3 532.79 702.3 535.06 704.5 C539.72 709.43 543 714.57 546.37 720.41 C547.74 723.09 547.74 723.09 550 724 C550 722.68 550 721.36 550 720 C550.66 720 551.32 720 552 720 C552 717.36 552 714.72 552 712 C552.66 712 553.32 712 554 712 C554.31 710.85 554.62 709.69 554.94 708.5 C558.84 696.86 565.96 686.16 574 677 C574.66 676.19 575.33 675.39 576.01 674.56 C582.82 666.52 595.43 653.34 606.19 651.44 C609 652 609 652 610.81 654 C612.26 657.67 612.77 661.1 613 665 C613.1 666.13 613.1 666.13 613.2 667.28 C614.03 684.45 603.35 702.03 593 715 C592.56 715.58 592.12 716.16 591.67 716.76 C583.17 727.61 569.6 737.27 556 740 C556.97 740.87 557.94 741.73 558.94 742.62 C569.57 753.35 577.75 768.71 578 784 C577.34 784.99 576.68 785.98 576 787 C565.93 786.55 556.7 780.25 550 773 C547.51 769.76 545.21 766.43 543 763 C534.89 769.62 528.85 776.92 523 785.56 C522.49 786.28 521.99 787 521.47 787.75 C519.27 791.08 518 793.14 517.98 797.2 C518.32 798.45 518.65 799.71 519 801 C519.48 803.05 519.97 805.09 520.45 807.14 C521.05 809.51 521.65 811.88 522.25 814.25 C522.72 816.13 522.72 816.13 523.2 818.05 C524.56 823.43 525.92 828.81 527.43 834.15 C531.12 847.25 533.28 860.5 535 874 C535.13 875.01 535.13 875.01 535.27 876.04 C537.03 889.72 537.36 903.28 537.31 917.06 C537.31 918.14 537.31 919.22 537.31 920.33 C537.17 962.4 530.85 1012.18 505 1047 C503.86 1049.07 503.86 1049.07 503.06 1050.94 C501.62 1053.99 499.92 1056.58 497.87 1059.25 C497.06 1060.31 497.06 1060.31 496.24 1061.39 C495.83 1061.92 495.42 1062.45 495 1063 C530.53 1071.6 530.53 1071.6 564 1064 C565.83 1062.81 567.66 1061.62 569.5 1060.44 C570.87 1059.55 570.87 1059.55 572.27 1058.64 C582.05 1052.76 592.17 1050.68 603.44 1051.12 C616.04 1051.29 622.21 1047.93 631.41 1039.64 C645.01 1027.69 666.87 1019.21 685 1020 C685.03 1021.48 685.05 1022.96 685.06 1024.44 C685.07 1025.26 685.09 1026.08 685.1 1026.93 C685 1029 685 1029 684 1030 C682.58 1030.25 681.16 1030.44 679.73 1030.61 C662.8 1032.74 651.17 1035.93 638 1047 C629.55 1054 622.14 1060.04 610.75 1060.18 C609.73 1060.2 608.71 1060.22 607.65 1060.25 C605.54 1060.29 603.42 1060.32 601.3 1060.34 C591.34 1060.61 583.32 1063.6 574.5 1068.12 C573.52 1068.62 572.54 1069.12 571.53 1069.63 C568.87 1071.02 568.87 1071.02 566 1073 C572.11 1074.99 578.19 1075.8 584.56 1076.56 C586.06 1076.75 586.06 1076.75 587.58 1076.94 C600.58 1078.53 613.53 1079.23 626.62 1079.25 C627.68 1079.25 627.68 1079.25 628.76 1079.26 C642.26 1079.27 655.44 1078.07 668.83 1076.36 C674.21 1075.75 679.6 1075.37 685 1075 C685 1078.3 685 1081.6 685 1085 C675.24 1086.66 665.48 1088.17 655.62 1089.19 C654.86 1089.27 654.09 1089.35 653.29 1089.44 C646.52 1090.1 639.8 1090.08 633 1090 C632.31 1089.99 631.61 1089.98 630.9 1089.98 C610.78 1089.75 590.87 1089.4 571 1086 C554.81 1083.28 538.6 1080.71 522.37 1078.27 C517.36 1077.52 512.36 1076.74 507.36 1075.89 C504.35 1075.38 501.33 1074.95 498.31 1074.5 C497.28 1074.31 496.25 1074.12 495.2 1073.92 C490.68 1073.31 488.14 1073.25 484.25 1075.81 C481.68 1078.1 479.33 1080.47 477 1083 C475.67 1084.29 475.67 1084.29 474.32 1085.61 C473.6 1086.32 472.87 1087.02 472.12 1087.75 C454.46 1103.79 433.16 1113.51 410.57 1120.22 C408.28 1120.92 406.01 1121.65 403.74 1122.41 C366.55 1134.83 323.07 1137.97 285.21 1127.12 C278.23 1125.02 278.23 1125.02 271.22 1126.04 C270.32 1126.56 269.42 1127.09 268.5 1127.62 C254.52 1135.16 238.4 1138.74 223.04 1142.49 C219.69 1143.31 216.36 1144.17 213.04 1145.11 C205.69 1147.18 198.65 1148.68 191 1149 C191.19 1149.76 191.38 1150.52 191.57 1151.3 C192.18 1155.1 191.07 1156.83 189 1160 C184.49 1163.7 180.23 1163.36 174.69 1163.19 C173.85 1163.17 173.02 1163.16 172.15 1163.15 C170.1 1163.11 168.05 1163.06 166 1163 C166 1162.67 166 1162.34 166 1162 C164.78 1161.89 164.78 1161.89 163.54 1161.77 C155.18 1160.78 149.05 1158.58 142 1154 C141.09 1153.42 140.19 1152.85 139.25 1152.25 C134.69 1147.69 130.41 1142.37 129 1136 C128.41 1136.07 127.82 1136.14 127.21 1136.21 C92.08 1140.03 92.08 1140.03 78.44 1130.06 C73.68 1125.48 72.43 1119.26 71 1113 C70.36 1113.03 69.72 1113.07 69.06 1113.11 C61.64 1113.34 57.23 1112.16 51 1108 C48.29 1108.24 45.68 1108.58 43 1109 C31.42 1110.65 20.94 1109.67 11 1103 C5.99 1098.27 3.95 1094.76 3.44 1087.88 C3.35 1086.78 3.27 1085.68 3.18 1084.55 C3.12 1083.71 3.06 1082.87 3 1082 C1.6 1082.29 1.6 1082.29 0.17 1082.59 C-12.23 1085.08 -24.69 1086.74 -37.34 1087.24 C-38.22 1087.27 -39.1 1087.31 -40.01 1087.35 C-41.7 1087.4 -43.38 1087.45 -45.06 1087.48 C-50.83 1087.67 -55.63 1088.92 -61 1091 C-62.08 1091.41 -63.16 1091.82 -64.27 1092.25 C-65.25 1092.64 -66.24 1093.03 -67.25 1093.44 C-71.4 1095.05 -75.53 1096.5 -79.81 1097.75 C-89.51 1100.64 -98.91 1104.4 -108.36 1108 C-110.5 1108.81 -112.65 1109.62 -114.8 1110.42 C-121.2 1112.81 -127.56 1115.29 -133.94 1117.75 C-134.62 1118.02 -135.31 1118.28 -136.02 1118.55 C-144.87 1121.98 -153.7 1125.44 -162.44 1129.12 C-166.91 1131 -166.91 1131 -168 1131 C-168 1128.03 -168 1125.06 -168 1122 C-166.31 1121.23 -164.63 1120.46 -162.94 1119.69 C-162 1119.26 -161.06 1118.83 -160.09 1118.39 C-152.39 1114.93 -144.57 1111.85 -136.69 1108.81 C-135.5 1108.35 -134.3 1107.89 -133.08 1107.41 C-131.94 1106.97 -130.81 1106.53 -129.64 1106.08 C-128.6 1105.68 -127.57 1105.28 -126.5 1104.87 C-124 1104 -124 1104 -122 1104 C-121.67 1103.34 -121.34 1102.68 -121 1102 C-119.28 1101.36 -119.28 1101.36 -116.94 1100.75 C-112.32 1099.44 -107.83 1097.88 -103.34 1096.19 C-102.32 1095.8 -102.32 1095.8 -101.28 1095.41 C-99.16 1094.61 -97.05 1093.8 -94.94 1093 C-71.25 1084 -71.25 1084 -68 1084 C-67.67 1083.34 -67.34 1082.68 -67 1082 C-54.7 1076.64 -39.86 1076.6 -26.62 1075.38 C-25.2 1075.24 -23.77 1075.1 -22.34 1074.97 C-18.89 1074.64 -15.45 1074.32 -12 1074 C-12.07 1073.19 -12.14 1072.38 -12.21 1071.54 C-12.79 1064.35 -13.17 1057.19 -13.38 1049.98 C-13.83 1036.39 -14.59 1022.82 -15.38 1009.24 C-15.44 1008.12 -15.5 1007 -15.57 1005.85 C-15.97 998.85 -16.38 991.86 -16.79 984.87 C-17.34 975.48 -17.89 966.09 -18.43 956.7 C-18.62 953.48 -18.81 950.26 -19 947.04 C-19.66 935.69 -20.23 924.35 -20.63 913 C-20.83 907.6 -21.26 902.35 -22 897 C-22.12 895.01 -22.22 893.01 -22.28 891.02 C-22.34 889.38 -22.34 889.38 -22.39 887.71 C-22.43 886.57 -22.46 885.43 -22.5 884.25 C-22.58 881.85 -22.67 879.45 -22.75 877.04 C-22.79 875.86 -22.83 874.67 -22.88 873.45 C-23.05 868.49 -23.27 863.52 -23.5 858.56 C-23.54 857.75 -23.57 856.93 -23.61 856.09 C-23.78 852.04 -23.78 852.04 -24.5 848.06 C-25.06 845.75 -25.19 843.63 -25.28 841.26 C-25.32 840.36 -25.36 839.46 -25.39 838.53 C-25.43 837.59 -25.46 836.65 -25.5 835.69 C-25.72 829.72 -26.07 823.91 -27 818 C-27.27 815.15 -27.5 812.3 -27.72 809.45 C-27.93 806.87 -27.93 806.87 -29 804 C-29.2 801.63 -29.37 799.25 -29.5 796.88 C-30.09 786.6 -31.48 776.52 -33.07 766.36 C-33.18 765.71 -33.28 765.06 -33.38 764.39 C-33.93 760.92 -34.47 757.46 -35.02 754 C-35.46 751.2 -35.9 748.41 -36.33 745.61 C-39.01 728.32 -42.05 711.18 -45.72 694.07 C-47.02 687.99 -48.11 681.9 -49.07 675.75 C-50.28 672.18 -52.22 670.49 -55 668 C-58.55 664.12 -60.67 661.1 -62 656 C-62.21 655.22 -62.41 654.43 -62.62 653.62 C-62.75 653.09 -62.87 652.55 -63 652 C-63.72 651.94 -64.44 651.88 -65.19 651.81 C-70.07 650.4 -73.32 646.21 -76 642 C-79.64 632.57 -78.78 623.5 -75.07 614.24 C-74 612 -74 612 -72 609 C-71.49 607.12 -71.04 605.22 -70.62 603.31 C-69.1 596.95 -67.21 591.47 -62.81 586.55 C-60.05 581.13 -61.17 576.46 -62 570.56 C-62.15 569.35 -62.31 568.15 -62.46 566.9 C-63.66 557.72 -65.16 548.59 -66.83 539.48 C-68.18 532.09 -69.39 524.67 -70.61 517.26 C-72.49 505.8 -74.44 494.37 -76.67 482.98 C-78.35 474.35 -79.68 465.68 -81 457 C-81.54 453.5 -82.08 450 -82.62 446.5 C-82.75 445.69 -82.87 444.88 -83 444.05 C-83.48 440.93 -84 438 -85 435 C-85.36 432.88 -85.69 430.75 -86 428.62 C-86.65 424.17 -86.65 424.17 -87.45 419.73 C-88.1 416.52 -88.67 413.29 -89.23 410.06 C-89.48 408.67 -89.72 407.28 -89.97 405.9 C-90.16 404.81 -90.16 404.81 -90.35 403.7 C-90.76 401.4 -91.16 399.11 -91.57 396.81 C-92.81 389.76 -94.05 382.71 -95.26 375.65 C-97.45 362.98 -99.9 350.38 -102.62 337.81 C-102.84 336.79 -102.84 336.79 -103.07 335.75 C-106.85 318.23 -111.43 305.46 -126 294 C-126.66 293.67 -127.32 293.34 -128 293 C-128 292.34 -128 291.68 -128 291 C-129.32 290.67 -130.64 290.34 -132 290 C-132 289.34 -132 288.68 -132 288 C-132.99 288 -133.98 288 -135 288 C-135 287.34 -135 286.68 -135 286 C-135.78 285.88 -136.57 285.75 -137.38 285.62 C-140 285 -140 285 -142 283 C-142.66 282.67 -143.32 282.34 -144 282 C-144 281.34 -144 280.68 -144 280 C-145.65 279.67 -147.3 279.34 -149 279 C-149 278.34 -149 277.68 -149 277 C-149.99 277 -150.98 277 -152 277 C-152 276.34 -152 275.68 -152 275 C-152.74 274.71 -153.49 274.42 -154.25 274.12 C-156.57 273.18 -158.78 272.15 -161 271 C-161 270.34 -161 269.68 -161 269 C-161.66 269 -162.32 269 -163 269 C-163 268.34 -163 267.68 -163 267 C-164.65 266.67 -166.3 266.34 -168 266 C-168 262.37 -168 258.74 -168 255 C-161.5 258.08 -155.52 261.7 -149.5 265.62 C-148.58 266.21 -147.66 266.8 -146.72 267.4 C-145.85 267.96 -144.99 268.52 -144.09 269.1 C-143.31 269.61 -142.52 270.12 -141.71 270.64 C-141.15 271.09 -140.58 271.54 -140 272 C-140 272.66 -140 273.32 -140 274 C-139.15 274.23 -138.3 274.47 -137.43 274.71 C-133.56 276.16 -130.48 278.2 -127.19 280.62 C-126.27 281.29 -126.27 281.29 -125.34 281.97 C-118.52 286.99 -112.14 292.21 -107 299 C-103.54 302.82 -103.54 302.82 -99 305 C-97.15 309.72 -96.8 313.08 -98 318 C-97.34 318 -96.68 318 -96 318 C-95.8 319.26 -95.59 320.53 -95.38 321.83 C-95.11 323.49 -94.83 325.15 -94.56 326.81 C-94.43 327.65 -94.29 328.48 -94.15 329.34 C-94.02 330.14 -93.89 330.94 -93.75 331.77 C-93.63 332.51 -93.51 333.25 -93.39 334.01 C-93.01 336.2 -93.01 336.2 -92 339 C-92.33 339.66 -92.66 340.32 -93 341 C-92.34 341 -91.68 341 -91 341 C-91.33 342.65 -91.66 344.3 -92 346 C-91.34 346 -90.68 346 -90 346 C-89.88 347.3 -89.75 348.6 -89.62 349.94 C-89.28 353.01 -88.83 355.99 -88.12 359 C-86.65 365.33 -85.6 371.73 -84.5 378.12 C-83.9 381.54 -83.28 384.96 -82.66 388.38 C-82.31 390.34 -81.95 392.31 -81.6 394.28 C-81.25 396.23 -80.9 398.17 -80.54 400.11 C-80.32 401.32 -80.11 402.52 -79.89 403.77 C-79.6 405.39 -79.6 405.39 -79.3 407.04 C-79 409.98 -79.25 412.16 -80 415 C-79.34 415 -78.68 415 -78 415 C-77.33 418.73 -76.66 422.46 -76 426.19 C-75.81 427.24 -75.62 428.3 -75.42 429.38 C-75.24 430.41 -75.06 431.43 -74.88 432.48 C-74.71 433.42 -74.54 434.36 -74.37 435.32 C-74 438 -74 438 -74.01 440.63 C-74.11 443.23 -74.11 443.23 -73 446.5 C-72.09 449.67 -72 451.77 -72 455 C-71.69 456.05 -71.38 457.1 -71.06 458.19 C-70.2 461.29 -69.76 463.83 -69.5 467 C-69.14 471.22 -68.18 474.92 -67 479 C-66.43 482.3 -65.94 485.6 -65.46 488.91 C-65.05 491.64 -64.55 494.3 -64 497 C-63.14 501.33 -62.29 505.67 -61.44 510 C-61.09 511.76 -61.09 511.76 -60.73 513.56 C-60.51 514.7 -60.29 515.83 -60.06 517 C-59.75 518.55 -59.75 518.55 -59.44 520.12 C-59.03 522.81 -59 525.3 -59 528 C-58.67 528.33 -58.34 528.66 -58 529 C-57.77 530.68 -57.59 532.37 -57.44 534.06 C-57.31 535.44 -57.31 535.44 -57.18 536.85 C-57.12 537.56 -57.06 538.27 -57 539 C-56.67 539 -56.34 539 -56 539 C-55.94 539.89 -55.88 540.78 -55.82 541.7 C-55.73 542.87 -55.65 544.04 -55.56 545.25 C-55.48 546.41 -55.4 547.57 -55.32 548.77 C-55.07 551.32 -54.63 553.53 -54 556 C-54.44 558.25 -54.44 558.25 -55 560 C-54.34 560 -53.68 560 -53 560 C-52.34 563.96 -51.68 567.92 -51 572 C-49.97 570.99 -48.94 569.98 -47.88 568.94 C-42.28 564.01 -35.74 561.05 -29 558 C-28.24 557.65 -27.48 557.29 -26.7 556.93 C-16.84 553.54 -7.6 554.08 2.62 554.88 C4.12 554.98 5.62 555.09 7.11 555.19 C10.74 555.45 14.37 555.72 18 556 C19.39 551.84 18.7 549.37 17.78 545.12 C17.51 543.89 17.24 542.65 16.97 541.38 C16.82 540.71 16.68 540.05 16.53 539.36 C16.07 537.26 15.62 535.17 15.17 533.07 C14.2 528.59 13.22 524.11 12.25 519.62 C11.14 514.5 10.03 509.37 8.92 504.25 C8.61 502.82 8.3 501.39 7.99 499.96 C5.94 490.49 3.94 481.01 2.14 471.49 C1.72 467.95 1.72 467.95 0 465 C-0.51 462.23 -0.9 459.45 -1.3 456.66 C-2.06 452.66 -3.12 448.8 -4.21 444.88 C-5.46 440.32 -6.51 435.73 -7.56 431.12 C-7.81 430.05 -8.06 428.97 -8.31 427.86 C-12.01 411.65 -15.6 395.42 -19.19 379.19 C-20.29 374.23 -21.39 369.26 -22.5 364.3 C-26.76 345.23 -30.58 326.09 -34.25 306.89 C-36.57 294.81 -38.91 282.78 -42 270.87 C-42.68 268.22 -43.35 265.57 -44 262.91 C-45.49 256.78 -47.05 250.74 -49.06 244.75 C-53.06 232.04 -54.72 218.28 -54 205 C-53.92 203.3 -53.92 203.3 -53.84 201.57 C-53.48 195.74 -52.81 190.54 -51 185 C-51 184.01 -51 183.02 -51 182 C-50.34 182 -49.68 182 -49 182 C-48.81 180.45 -48.81 180.45 -48.62 178.88 C-48.06 175.38 -47.21 172.32 -46 169 C-46.66 168.67 -47.32 168.34 -48 168 C-48 167.34 -48 166.68 -48 166 C-69.09 166.86 -69.09 166.86 -88 175 C-88.99 174.67 -89.98 174.34 -91 174 C-80.45 164 -80.45 164 -73 164 C-72.67 163.34 -72.34 162.68 -72 162 C-69.68 161.6 -67.34 161.27 -65 161 C-64.17 160.81 -63.35 160.63 -62.5 160.44 C-59.31 159.88 -56.23 159.94 -53 160 C-52.67 159.34 -52.34 158.68 -52 158 C-50.76 158.21 -49.53 158.41 -48.25 158.62 C-45.89 159.02 -44.3 159.08 -41.98 158.45 C-39.04 156.3 -37.66 153.35 -36 150.19 C-33.63 145.76 -31.17 141.92 -28 138 C-27.67 137.01 -27.34 136.02 -27 135 C-25.37 133.27 -23.72 131.64 -22 130 C-9.25 117.71 -9.25 117.71 2.24 104.28 C12.36 91.16 24.86 81.44 39 73 C39.93 72.43 40.86 71.86 41.82 71.27 C49.62 66.57 57.71 62.73 66 59 C65.34 58.01 64.68 57.02 64 56 C70.04 49.57 77.08 44.6 84.38 39.69 C96.07 32 96.07 32 104 21 C102.35 21 100.7 21 99 21 C99 21.66 99 22.32 99 23 C97.01 24.49 95.03 25.84 92.94 27.18 C92.31 27.58 91.69 27.99 91.04 28.41 C89.03 29.72 87.02 31.01 85 32.31 C83.67 33.18 82.34 34.04 81.01 34.9 C63.59 46.22 63.59 46.22 58.56 48.69 C55.88 49.74 55.88 49.74 55 52 C49.58 55 49.58 55 47 55 C46.67 55.66 46.34 56.32 46 57 C42.41 60.12 38.56 62.6 34.5 65.06 C33.4 65.73 32.29 66.41 31.16 67.1 C29.28 68.23 27.41 69.35 25.52 70.45 C16.52 75.98 8.08 82.13 1 90 C0.01 89.67 -0.98 89.34 -2 89 C-2.43 83.67 -1.69 79.77 -0.01 74.69 C2.31 66.8 2.54 59.33 2.38 51.12 C2.36 49.71 2.35 48.3 2.33 46.88 C3.19 31.53 3.19 31.53 -1 18 C-3.01 25.45 -4.54 32.83 -5.57 40.48 C-6 43 -6 43 -7 44 C-7.1 46.8 -7.14 49.57 -7.12 52.38 C-7.13 53.16 -7.13 53.94 -7.14 54.74 C-7.13 58.08 -7.06 60.82 -6 64 C-5.89 66.58 -5.84 69.13 -5.83 71.7 C-5.83 72.46 -5.83 73.22 -5.82 73.99 C-5.82 75.59 -5.81 77.19 -5.81 78.8 C-5.81 81.23 -5.79 83.66 -5.78 86.09 C-5.77 87.65 -5.77 89.21 -5.77 90.77 C-5.76 91.49 -5.76 92.21 -5.75 92.95 C-5.77 97.61 -6.35 101.63 -8 106 C-8.99 106.66 -9.98 107.32 -11 108 C-11.99 107.34 -12.98 106.68 -14 106 C-13.92 105.23 -13.83 104.46 -13.75 103.66 C-13.64 102.66 -13.54 101.66 -13.44 100.62 C-13.33 99.63 -13.23 98.63 -13.12 97.6 C-12.79 95.02 -12.79 95.02 -14 93 C-13.34 93 -12.68 93 -12 93 C-11.97 88.91 -11.96 84.82 -11.95 80.73 C-11.94 79.35 -11.93 77.96 -11.92 76.57 C-11.88 69.36 -11.93 62.23 -12.77 55.06 C-14.84 36.8 -11.15 17.88 -2 2 C-1.34 1.34 -0.68 0.68 0 0 Z M105 19 C105.33 19.66 105.66 20.32 106 21 C106.33 20.34 106.66 19.68 107 19 C106.34 19 105.68 19 105 19 Z M83 48 C82.67 48.66 82.34 49.32 82 50 C82.99 49.67 83.98 49.34 85 49 C84.34 48.67 83.68 48.34 83 48 Z M78 51 C77.67 51.66 77.34 52.32 77 53 C77.99 52.67 78.98 52.34 80 52 C79.34 51.67 78.68 51.34 78 51 Z M75 53 C74.01 53.99 73.02 54.98 72 56 C73.65 55.34 75.3 54.68 77 54 C76.34 53.67 75.68 53.34 75 53 Z M65 93 C70.11 96.6 70.11 96.6 76 98 C76 99.32 76 100.64 76 102 C74.99 101.84 73.98 101.67 72.94 101.5 C60.42 99.95 43.67 99.06 32.07 104.98 C30.01 106 28.02 106.66 25.81 107.31 C20.83 108.92 16.48 111.32 12 114 C12 114.66 12 115.32 12 116 C11.28 116.25 10.56 116.5 9.81 116.76 C-7.45 124.36 -22.36 144.89 -31 161 C-31 161.66 -31 162.32 -31 163 C-31.66 163 -32.32 163 -33 163 C-33.34 163.88 -33.68 164.76 -34.02 165.67 C-34.47 166.83 -34.92 167.99 -35.38 169.19 C-35.82 170.34 -36.26 171.48 -36.71 172.67 C-37.45 174.59 -38.22 176.5 -39.07 178.38 C-40.39 182.1 -40.95 185.86 -41.56 189.75 C-41.75 190.89 -41.75 190.89 -41.94 192.05 C-43.22 199.94 -44.14 207.69 -44.12 215.69 C-44.13 216.93 -44.13 218.17 -44.13 219.45 C-44.01 222.73 -43.62 225.78 -43 229 C-42.34 229 -41.68 229 -41 229 C-40.38 228.36 -39.76 227.72 -39.12 227.06 C-36.96 224.97 -35.91 224.42 -33 224 C-32.31 226.19 -32.31 226.19 -32 229 C-32.98 230.68 -33.98 232.34 -35 234 C-37.35 240.99 -37.34 246.97 -35 254 C-34.34 254 -33.68 254 -33 254 C-32.81 254.8 -32.63 255.61 -32.44 256.44 C-30.46 261.35 -27.34 264.94 -24 269 C-22.82 270.58 -22.82 270.58 -21.62 272.19 C-17.21 276.92 -11.81 280.21 -6 283 C-6 283.66 -6 284.32 -6 285 C-8.5 286.62 -8.5 286.62 -11 288 C-5.47 294.55 6.8 296.27 15 297 C22 297.21 29 297.13 36 297 C35.35 300.82 34.53 303.03 32 306 C32.33 306.33 32.66 306.66 33 307 C39.98 306.77 45.56 304.83 51.98 302.16 C56.88 300.28 61.09 299.88 66.31 299.94 C67.38 299.95 68.45 299.96 69.55 299.96 C70.36 299.98 71.17 299.99 72 300 C72.36 298.77 72.36 298.77 72.73 297.51 C77.7 280.96 84.74 265.6 94 251 C94 254.1 93.49 255.61 92.31 258.44 C91.94 259.34 91.57 260.24 91.19 261.17 C90.44 262.97 89.67 264.76 88.9 266.55 C85.95 273.45 83.32 280.45 80.75 287.5 C80.4 288.47 80.04 289.44 79.68 290.43 C78.29 294.27 76.97 298.03 76 302 C75.67 302.93 75.34 303.86 75 304.81 C73.89 308.04 73.89 308.04 73.5 311.69 C73 315 73 315 71 318 C70.58 320.34 70.58 320.34 70.44 322.88 C70.18 326.33 69.69 329.6 69 333 C62.38 373.82 67.25 416.28 91.76 450.52 C111.45 477.06 140.25 498.05 171 510 C170.34 510.33 169.68 510.66 169 511 C169 512.65 169 514.3 169 516 C160.9 513.98 153.85 510.65 146.5 506.75 C145.44 506.2 144.37 505.65 143.28 505.09 C136.47 501.53 130.17 497.57 124 493 C120.45 496.14 118.45 499.58 116.43 503.8 C116.1 504.47 115.78 505.13 115.44 505.81 C114.39 507.98 113.35 510.14 112.31 512.31 C111.96 513.06 111.6 513.8 111.23 514.56 C94.11 550.24 78 591.76 78 632 C77.34 632 76.68 632 76 632 C75.98 626.31 75.96 620.61 75.95 614.92 C75.94 612.99 75.93 611.05 75.92 609.12 C75.91 606.33 75.91 603.54 75.9 600.75 C75.9 599.89 75.89 599.04 75.89 598.16 C75.89 590.42 76.75 583.44 79 576 C79.47 574.21 79.94 572.43 80.4 570.64 C80.65 569.67 80.9 568.7 81.16 567.7 C81.68 565.7 82.19 563.71 82.7 561.71 C84.13 556.17 85.67 550.7 87.45 545.26 C88.05 542.77 88.09 540.55 88 538 C84.12 539.39 81.03 541.25 77.62 543.56 C66.25 550.91 52.79 555.18 39.98 559.35 C38.27 559.91 36.56 560.51 34.86 561.12 C25.88 563.89 16.33 564.08 7 563.98 C6.29 563.98 5.58 563.97 4.84 563.96 C1.23 563.93 -2.38 563.86 -5.98 563.75 C-18.62 563.47 -30.05 565.74 -40 574 C-41.69 575.65 -43.35 577.32 -45 579 C-45.85 579.84 -46.7 580.67 -47.57 581.54 C-48.41 582.37 -49.26 583.2 -50.12 584.06 C-50.97 584.9 -51.82 585.74 -52.7 586.6 C-54.66 588.65 -56.36 590.69 -58 593 C-57.67 593.66 -57.34 594.32 -57 595 C-56.2 594.39 -55.41 593.77 -54.59 593.14 C-53.52 592.32 -52.45 591.5 -51.38 590.69 C-50.33 589.89 -49.29 589.09 -48.21 588.26 C-40.47 582.81 -40.47 582.81 -36.62 583.31 C-35.82 583.65 -35.82 583.65 -35 584 C-37.14 588.12 -39.37 590.28 -43.19 592.88 C-50.32 597.89 -56.39 602.49 -61 610 C-61.71 610.71 -61.71 610.71 -62.44 611.43 C-64.13 613.13 -65.34 614.85 -66.62 616.88 C-67.05 617.53 -67.48 618.19 -67.91 618.87 C-70.31 623.58 -70.02 627.54 -69.25 632.69 C-69.09 633.83 -68.93 634.96 -68.77 636.14 C-68.26 639.31 -68.26 639.31 -65 641 C-64.9 640.31 -64.8 639.62 -64.7 638.91 C-63.23 629.67 -60.24 622.67 -55 615 C-55 614.34 -55 613.68 -55 613 C-54.01 612.67 -53.02 612.34 -52 612 C-51.28 611.28 -50.56 610.56 -49.81 609.81 C-45.56 605.56 -41.08 601.14 -35 600 C-36.26 604.6 -37.79 607.25 -41.12 610.62 C-48.13 618.12 -56.73 627.8 -57.09 638.58 C-56.68 646.25 -54.82 653.71 -49.75 659.62 C-48.88 660.31 -48.88 660.31 -48 661 C-47.74 660.37 -47.49 659.74 -47.22 659.09 C-42.63 648.82 -34.67 643.42 -25.89 636.8 C-21.37 633.37 -17.21 629.64 -13.12 625.71 C-11 624 -9.67 623.39 -7 623 C-9.43 638.11 -25.61 647.32 -37 656 C-36.62 661.49 -34.91 663.29 -31 667 C-30.22 667.83 -29.44 668.66 -28.63 669.51 C-5.89 693.24 24.04 705.55 56 711 C57.03 711.2 58.05 711.39 59.11 711.6 C62.56 712.08 65.89 712.1 69.38 712.06 C71.24 712.05 71.24 712.05 73.15 712.04 C74.09 712.02 75.03 712.01 76 712 C78.83 705.66 80.95 699.14 82.95 692.5 C83.35 691.19 83.35 691.19 83.76 689.84 C84.87 686.17 85.97 682.5 87.06 678.83 C90.56 667.08 94.54 655.81 99.49 644.59 C101.13 641.34 101.13 641.34 101 639 C99.68 638.67 98.36 638.34 97 638 C97.07 635.08 97.29 632.83 99.24 630.55 C102.7 627.54 106.46 624.96 110.19 622.31 C114.47 619.25 118.35 615.97 122.19 612.38 C135.03 600.37 135.03 600.37 141 600 C138.27 605.12 135.26 609.22 131.38 613.5 C118.63 628.02 107.97 645.37 101.04 663.42 C100 666 100 666 98.5 668.89 C96.89 672.23 95.88 675.43 94.88 679 C93.26 684.7 91.59 690.36 89.82 696.01 C86.15 707.78 82.58 719.48 80.38 731.62 C80.13 732.97 80.13 732.97 79.88 734.35 C79.22 738.28 78.83 741.13 80 745 C82.23 744.12 82.23 744.12 83.38 741.56 C85.08 738.88 86.09 738.11 89 737 C88.85 737.99 88.69 738.98 88.54 740 C87.97 743.97 87.66 747.94 87.44 751.94 C87.4 752.69 87.35 753.44 87.31 754.22 C86.78 764.8 86.91 775.4 87 786 C87.33 786 87.66 786 88 786 C88.33 781.38 88.66 776.76 89 772 C92 774 92 774 92.58 775.98 C92.68 776.78 92.78 777.58 92.88 778.4 C92.99 779.29 93.11 780.17 93.23 781.09 C93.34 782.03 93.45 782.97 93.56 783.94 C93.81 785.86 94.06 787.77 94.31 789.69 C94.43 790.61 94.54 791.53 94.66 792.48 C95.17 796.29 95.87 800.05 96.59 803.82 C97.16 806.87 97.59 809.93 98 813 C95.33 811.99 94.2 811.35 92.77 808.83 C91.06 804.23 89.52 799.91 89 795 C87.35 795 85.7 795 84 795 C81.09 789.9 79.95 785.01 78.88 779.31 C78.7 778.43 78.53 777.54 78.35 776.63 C77.19 770.45 76.29 764.3 76 758 C72.35 760.43 72.08 761.85 71 766 C71 767.32 71 768.64 71 770 C70.34 770 69.68 770 69 770 C68.91 770.54 68.82 771.09 68.72 771.65 C67.25 779.69 64.89 787.44 62.5 795.25 C62.09 796.6 61.68 797.95 61.28 799.3 C58.35 808.97 58.35 808.97 56.92 813.19 C55.77 816.7 55.12 820.24 54.5 823.88 C54.37 824.62 54.25 825.36 54.12 826.12 C50.68 846.68 47.02 872.3 56 892 C56.39 893.43 56.76 894.87 57.12 896.31 C59.17 903.23 62.56 909.5 65.89 915.86 C66.98 917.96 68.04 920.07 69.1 922.18 C80.51 944.65 95.61 965.78 113 984 C114.09 985.26 115.18 986.53 116.25 987.81 C125.23 998.13 135.14 1007.69 146 1016 C146.98 1016.76 147.95 1017.52 148.96 1018.3 C161.22 1028.74 161.22 1028.74 176 1033 C179.87 1031.73 181.53 1030.7 183.81 1027.31 C188.25 1014.94 186.23 999.72 185.06 986.8 C184.94 985.3 184.84 983.79 184.77 982.29 C184.51 977.17 184.03 972.74 182 968 C178.62 965.38 175.46 963.9 171.5 962.39 C166.84 960.54 163.85 957.89 160.38 954.38 C159.8 953.83 159.23 953.28 158.64 952.72 C154.41 948.61 150.42 944.45 148 939 C147.34 939 146.68 939 146 939 C145.76 938.49 145.52 937.98 145.27 937.46 C143.9 934.81 142.39 932.25 140.88 929.67 C134.5 918.71 128 906 128 893 C129.32 893 130.64 893 132 893 C132.38 894.01 132.38 894.01 132.78 895.04 C134.22 898.54 135.87 901.93 137.56 905.31 C137.91 906 138.26 906.7 138.61 907.41 C141.21 912.55 143.93 917.61 146.75 922.62 C147.11 923.28 147.48 923.93 147.85 924.59 C150.08 928.52 152.46 932.28 155 936 C156.16 932.52 155.77 930.86 155.06 927.31 C154.87 926.32 154.67 925.32 154.47 924.3 C154.32 923.54 154.16 922.78 154 922 C158.18 925.58 160.35 929.96 162.88 934.75 C168.42 945.64 168.42 945.64 177 954 C177.99 954 178.98 954 180 954 C180.06 952.81 180.12 951.61 180.18 950.38 C181.28 929.26 181.28 929.26 183.39 922.1 C184.08 919.71 184.73 917.31 185.38 914.91 C196.92 872.91 217.13 833.49 254.25 808.91 C256.44 807.39 258.22 805.97 260 804 C253.8 803.64 249.83 804.42 244.38 807.31 C243.69 807.67 243 808.02 242.29 808.39 C227.93 816.11 211.66 828.82 205 844 C204.57 844.83 204.13 845.65 203.69 846.5 C202.81 849.69 202.9 852.62 203.03 855.91 C203 858 203 858 202 861 C186.34 861.79 186.34 861.79 180 857 C179.36 856.3 178.72 855.6 178.06 854.88 C175.73 852.75 174.72 852.64 171.69 852.12 C166.53 851.13 163.32 849.07 160 845 C157.71 841.01 156.26 836.91 155 832.5 C154.67 831.67 154.34 830.85 154 830 C153.38 829.85 152.76 829.7 152.12 829.55 C147.28 828.29 144.81 822.35 142.39 818.33 C134.42 803.7 133.28 788.88 137.68 773.12 C142.58 757 153.2 744.75 164.48 732.7 C167.74 729.21 170.89 725.63 174 722 C174.72 721.18 175.45 720.36 176.19 719.51 C183.32 711.24 189.36 702.33 195.46 693.28 C200.87 685.26 206.3 677.5 212.88 670.38 C213.37 669.84 213.86 669.3 214.37 668.75 C216.96 665.99 219.62 663.43 222.5 660.98 C228.59 655.95 228.59 655.95 231.48 648.89 C231.02 645.38 230.15 642.34 229 639 C228.63 637.73 228.26 636.47 227.88 635.16 C225.33 626.6 221.8 619.05 216.75 611.69 C215.21 609.33 214.42 607.75 214 605 C222.47 609.58 226.35 618.4 230.75 626.62 C231.13 627.33 231.5 628.03 231.89 628.76 C234.31 633.4 236.25 638.07 238 643 C242.55 642.49 244.91 640.8 248.38 637.88 C249.27 637.13 250.16 636.38 251.09 635.62 C257.6 629.77 262.65 624 267.31 616.56 C267.87 615.69 268.42 614.82 269 613.93 C271.67 609.74 274.3 605.53 276.92 601.31 C277.59 600.23 277.59 600.23 278.28 599.13 C279.11 597.79 279.93 596.46 280.75 595.11 C282.96 591.54 285.3 588.22 288 585 C288.99 585.33 289.98 585.66 291 586 C289.45 589.34 287.88 592.67 286.31 596 C285.88 596.93 285.44 597.87 284.99 598.83 C282.57 603.96 280.03 608.77 276.81 613.44 C276.54 613.96 276.28 614.47 276 615 C276.33 615.66 276.66 616.32 277 617 C278.05 616.34 279.1 615.68 280.19 615 C283.27 613.22 285.39 612.56 289 613 C287.66 617.54 285.98 619.05 281.88 621.31 C280.96 621.82 280.05 622.34 279.12 622.86 C278.07 623.43 278.07 623.43 277 624 C280.06 625.36 281.25 624.91 284.5 623.79 C285.81 623.22 287.13 622.65 288.44 622.06 C296.34 618.56 296.34 618.56 301 619 C300.78 621.35 300.78 621.35 300 624 C298.07 625.35 298.07 625.35 295.55 626.35 C294.64 626.73 293.73 627.1 292.79 627.49 C291.83 627.87 290.87 628.24 289.88 628.62 C288.94 629.01 288 629.39 287.03 629.78 C285.19 630.53 283.35 631.27 281.51 632 C263.84 639.04 248.37 649.62 234 662 C233.2 662.68 232.4 663.36 231.57 664.05 C226.58 668.37 222.22 672.94 218 678 C217.27 678.84 216.55 679.68 215.8 680.54 C208.87 688.64 202.7 697.23 196.5 705.91 C188.47 717.11 180.03 727.85 170.56 737.88 C156.46 752.91 142.04 770.79 142.51 792.47 C143.5 799.61 146.26 809.28 152 814 C152.15 813.27 152.29 812.55 152.45 811.8 C155.02 800.24 160.46 786.54 169 778 C171.13 778.38 171.13 778.38 173 779 C170.47 785.68 167.59 792.14 164.46 798.56 C158.35 811.32 159.15 821.74 163.42 834.75 C165.13 838.27 166.78 839.84 170 842 C169.93 841.35 169.86 840.71 169.79 840.04 C168.99 826.12 174.59 809.17 183 798 C185.21 797.16 185.21 797.16 187 797 C186.29 803.64 184.36 809.55 181.91 815.75 C178.77 824.14 176.93 833.03 179.95 841.75 C182.18 846.04 184.72 849.6 189 852 C192.21 852.34 192.21 852.34 195 852 C195.06 850.11 195.06 850.11 195.12 848.19 C197.09 831.23 213.25 819.56 225.69 809.65 C228.42 807.5 231.16 805.39 233.94 803.31 C235.88 801.85 237.79 800.34 239.65 798.79 C240.88 797.81 240.88 797.81 242.12 796.81 C242.81 796.24 243.49 795.67 244.2 795.08 C248 793.62 250.96 794.22 254.96 794.7 C260.03 795.2 265.05 794.89 270.12 794.62 C271.16 794.58 272.2 794.54 273.27 794.49 C277.99 794.7 277.99 794.7 282 793 C284.13 793 286.26 793.02 288.38 793.07 C310.12 793.54 334 791.02 354 782 C356.1 781.22 358.21 780.45 360.31 779.69 C373.25 774.72 386.44 766.13 396 756 C396 755.34 396 754.68 396 754 C396.66 754 397.32 754 398 754 C401.64 750.52 401.64 750.52 403 746 C404.32 745.67 405.64 745.34 407 745 C404.77 752.34 401.48 757.21 396.12 762.68 C393.92 764.93 393.92 764.93 392.42 767.65 C390.53 770.78 388.1 772.14 385 774 C386.99 775.28 386.99 775.28 389.24 774.33 C390.11 773.97 390.98 773.62 391.88 773.25 C393.17 772.73 393.17 772.73 394.49 772.2 C397 771.11 397 771.11 398.95 769.48 C401.49 767.65 404.02 766.98 407 766 C431.19 753.31 447.79 732.57 457 707 C464.3 683.16 463.86 657.31 459 633 C458.83 632.16 458.67 631.32 458.5 630.46 C454.44 610.68 447.75 591.61 440 573 C439.74 572.31 439.47 571.63 439.2 570.92 C436.09 562.83 432.3 555.09 428.5 547.31 C428.15 546.59 427.8 545.87 427.43 545.12 C419.17 528.14 410.85 511.13 401 495 C395.96 495.54 392.4 497.96 388.19 500.56 C374.98 508.51 361.59 515.03 347 520 C346.29 520.24 345.57 520.49 344.84 520.74 C342.69 521.47 340.53 522.18 338.38 522.88 C337.72 523.09 337.07 523.31 336.4 523.53 C332.49 524.75 329.09 525.21 325 525 C326.37 522.27 327.83 521.99 330.61 520.75 C332.07 520.09 332.07 520.09 333.55 519.42 C334.61 518.95 335.66 518.48 336.75 518 C338.96 517 341.16 516 343.37 515 C344.48 514.5 345.6 513.99 346.75 513.47 C389.44 494.16 429.33 467.39 447 422 C466.82 366.2 454.85 306.25 430 254 C430.33 253.67 430.66 253.34 431 253 C441.86 267.33 447.42 283.1 453 300 C453.63 299.97 454.26 299.93 454.91 299.9 C460.96 299.71 465.4 300.42 470.88 302.94 C476.34 305.32 480.74 307.15 486.75 307.06 C487.55 307.05 488.35 307.04 489.17 307.04 C489.78 307.02 490.38 307.01 491 307 C490.69 306.08 490.69 306.08 490.38 305.14 C489.25 301.76 488.13 298.38 487 295 C487.93 295.46 487.93 295.46 488.88 295.94 C508.26 302.53 530.14 297.11 548 289 C545.13 286.9 545.13 286.9 542 286 C542 285.01 542 284.02 542 283 C544.16 281.2 544.16 281.2 547.06 279.25 C555.17 273.54 560.95 267.56 566 259 C566.42 258.32 566.83 257.65 567.26 256.95 C571.21 249.58 571.38 240.46 569.35 232.43 C568.65 230.59 567.83 228.79 567 227 C566.62 225.34 566.26 223.68 566 222 C570.49 223.22 572.84 224.62 576 228 C576.66 228 577.32 228 578 228 C584.15 206.42 575.87 181.23 566.5 161.9 C565.11 159.48 563.64 157.25 562 155 C561.27 153.99 560.54 152.98 559.79 151.95 C541.16 126.73 516.1 107.02 484.5 101.38 C474.39 100.28 464.08 100.83 454 102 C457 98.54 459.24 97.36 463.69 96.38 C465.47 95.97 467.25 95.53 469 95 C469.33 94.34 469.66 93.68 470 93 C445.72 91.11 424.07 103.83 406.19 118.94 C401.24 123.51 397.13 128.69 393 134 C392.16 135.06 391.33 136.11 390.49 137.17 C385.58 143.43 381.04 149.8 376.79 156.54 C374.95 159.06 373.8 160.61 371 162 C365.14 161.86 360.44 159.65 355.25 157.19 C309.71 135.89 250.7 131.65 202.85 147.72 C200.89 148.45 198.95 149.22 197 150 C195.68 150.49 194.36 150.98 193.04 151.46 C191.71 151.96 190.39 152.45 189.06 152.94 C188.37 153.2 187.67 153.45 186.95 153.72 C183.19 155.12 179.55 156.63 175.94 158.38 C171.98 160.11 169.35 161.09 165 160 C159.09 154.9 154.73 148.33 150.23 142 C138.2 125.84 123.67 110.37 105 102 C104.34 102 103.68 102 103 102 C103 101.34 103 100.68 103 100 C90.44 95.45 78.5 92.45 65 93 Z M-32 275 C-31.52 280.58 -30.61 285.62 -29 291 C-28.69 292.44 -28.4 293.89 -28.12 295.34 C-27.3 299.52 -26.43 303.69 -25.53 307.86 C-25.27 309.05 -25.01 310.25 -24.74 311.49 C-24.2 313.97 -23.66 316.44 -23.12 318.92 C-21.89 324.6 -20.74 330.23 -20 336 C-19 341.81 -17.29 347.46 -15.73 353.14 C-15.51 353.96 -15.29 354.78 -15.06 355.63 C-14.86 356.37 -14.65 357.12 -14.44 357.88 C-14 360 -14 360 -14 364 C-13.34 364 -12.68 364 -12 364 C-12.31 365.05 -12.31 365.05 -12.62 366.12 C-13.09 369.66 -12.2 371.67 -11 375 C-10.64 377.33 -10.3 379.66 -10 382 C-9.47 384.44 -8.76 386.78 -8.04 389.18 C-7.04 392.85 -6.39 396.42 -5.81 400.19 C-4.5 408.18 -2.57 415.97 -0.56 423.81 C1.76 432.87 3.89 441.91 5.65 451.09 C6.82 457.22 8.19 463.3 9.69 469.36 C10.47 472.55 11.09 475.67 11.55 478.92 C11.67 481.87 11.67 481.87 13 483 C13.56 485.6 14.07 488.2 14.56 490.81 C15.94 497.97 17.45 505.09 19.04 512.2 C19.22 513 19.4 513.81 19.59 514.63 C20.51 518.71 21.43 522.79 22.36 526.86 C22.7 528.38 23.05 529.91 23.39 531.44 C23.55 532.14 23.72 532.84 23.88 533.57 C24.62 536.84 25 539.62 25 543 C25.66 543 26.32 543 27 543 C26.79 543.72 26.59 544.44 26.38 545.19 C25.94 548.45 26.58 550.08 28 553 C56.16 548.88 82.51 532.11 100.84 510.87 C106.04 503.83 112 491.88 112 483 C110.57 481.43 110.57 481.43 108.62 479.94 C86.59 461.35 69.75 436.22 63 408 C62.82 407.3 62.64 406.61 62.46 405.89 C56.14 380.64 55.47 347.04 63 322 C63.38 320.11 63.74 318.21 64.06 316.31 C64.6 313.17 65.18 310.08 66 307 C61.47 306.76 58.48 307.37 54.38 309.25 C34.95 317.67 34.95 317.67 27 315 C24.44 313.06 24.44 313.06 23 311 C23 310.34 23 309.68 23 309 C22.67 308.67 22.34 308.34 22 308 C22.66 307.34 23.32 306.68 24 306 C20.17 305.12 16.55 304.88 12.62 304.75 C1.61 304.01 -9.08 300.67 -18 294 C-19.24 293.1 -19.24 293.1 -20.5 292.19 C-21 291.8 -21.49 291.4 -22 291 C-21.67 290.15 -21.34 289.31 -21 288.44 C-20.62 285.02 -20.62 285.02 -22.61 283.15 C-24.69 281.36 -26.83 279.68 -29 278 C-30.02 277.02 -31.02 276.02 -32 275 Z M613.95 485.99 C609.32 490.9 600 500.97 600 508 C599.01 508.5 599.01 508.5 598 509 C598.33 509.99 598.66 510.98 599 512 C597.27 516.24 595.1 519.24 591.94 522.5 C588.18 526.57 584.8 530.77 581.56 535.25 C581.14 535.83 580.71 536.41 580.28 537 C578.32 539.75 576.95 542.14 575.9 545.36 C575.6 546.23 575.31 547.1 575 548 C573.51 548.5 573.51 548.5 572 549 C570.56 551.41 570.56 551.41 569.38 554.31 C568.95 555.28 568.52 556.24 568.09 557.24 C565.84 562.95 565 568.87 565 575 C569.61 574.54 572.91 573.18 576.88 570.94 C579 570 579 570 581.77 569.6 C585.82 568.85 589.04 567.3 592.69 565.44 C593.39 565.08 594.09 564.72 594.82 564.35 C617.16 552.69 630.01 533.49 637.64 510.04 C640.91 499.49 645.13 481.26 640 471 C630.43 471 620.53 479.61 613.95 485.99 Z M537 478 C533.96 483.32 532.65 488.74 531.31 494.69 C531.09 495.62 530.86 496.55 530.63 497.51 C529.16 503.94 528.19 510.4 529 517 C530.98 519.73 530.98 519.73 534 522 C539.44 528.09 543.71 534.59 547.65 541.73 C548.1 542.48 548.54 543.23 549 544 C549.33 544 549.66 544 550 544 C552.02 529.82 551.83 515.85 548 502 C547.7 500.79 547.4 499.59 547.09 498.35 C545.27 491.44 543.26 484.83 539 479 C538.34 478.67 537.68 478.34 537 478 Z M597 509 C598 511 598 511 598 511 Z M-58 640 C-57 644 -57 644 -57 644 Z M599.86 664.06 C599.42 664.52 598.97 664.98 598.52 665.45 C596.86 667.14 595.13 668.73 593.36 670.31 C578.75 683.57 567.57 698.02 559.03 715.93 C558 718 558 718 556.25 720.56 C554.38 724.21 554.26 727.95 554 732 C562.48 730.83 569.74 724.55 576 719 C576.53 718.6 577.05 718.2 577.6 717.78 C591.12 707.19 600.87 688.7 604 672 C604.26 668.63 604.28 665.37 604 662 C601.74 661.77 601.74 661.77 599.86 664.06 Z M-39 673 C-38.53 678.32 -38.06 683.63 -37.5 688.94 C-37.43 689.63 -37.36 690.32 -37.28 691.03 C-36.99 693.08 -36.52 695 -36 697 C-33 710.25 -33 710.25 -32.44 715.5 C-32.12 719 -32.12 719 -30.94 722.19 C-29.99 725.02 -29.92 727.04 -30 730 C-29.68 731.34 -29.34 732.67 -29 734 C-28.82 735.39 -28.66 736.79 -28.5 738.19 C-28.42 741.78 -28.42 741.78 -27 743 C-26.59 745.33 -26.23 747.64 -25.91 749.98 C-25.81 750.7 -25.71 751.41 -25.61 752.15 C-25.28 754.5 -24.95 756.84 -24.62 759.19 C-24.4 760.8 -24.17 762.41 -23.95 764.03 C-23.5 767.23 -23.05 770.43 -22.61 773.63 C-22.1 777.26 -21.59 780.89 -21.07 784.52 C-19.55 795.31 -18.29 806.1 -17.29 816.96 C-17.01 819.87 -16.73 822.78 -16.45 825.69 C-14.21 848.55 -12.81 871.02 -13 894 C-12.34 894 -11.68 894 -11 894 C-11.16 895.3 -11.33 896.6 -11.5 897.94 C-12.03 902.65 -12.08 907.26 -12 912 C-11.34 912 -10.68 912 -10 912 C-10.07 912.62 -10.14 913.23 -10.22 913.87 C-10.85 919.62 -11.09 925.22 -11 931 C-10.34 931 -9.68 931 -9 931 C-9.08 932.26 -9.17 933.53 -9.25 934.83 C-9.36 936.49 -9.46 938.15 -9.56 939.81 C-9.62 940.65 -9.67 941.48 -9.73 942.34 C-9.78 943.14 -9.83 943.94 -9.88 944.77 C-9.95 945.88 -9.95 945.88 -10.02 947.01 C-10.1 949.21 -10.1 949.21 -9 952 C-8.84 953.87 -8.74 955.75 -8.66 957.62 C-8.58 959.37 -8.58 959.37 -8.51 961.15 C-8.45 962.42 -8.4 963.69 -8.35 965 C-8.29 966.34 -8.24 967.67 -8.18 969.01 C-8.06 971.86 -7.93 974.71 -7.81 977.56 C-6.91 998.99 -5.92 1020.41 -4.38 1041.81 C-4.31 1042.67 -4.25 1043.54 -4.19 1044.43 C-3.9 1048.29 -3.62 1052.16 -3.31 1056.03 C-3.11 1058.6 -2.91 1061.17 -2.73 1063.75 C-2.64 1064.85 -2.56 1065.94 -2.48 1067.07 C-2.41 1068.01 -2.34 1068.95 -2.27 1069.92 C-2.22 1071.99 -2.22 1071.99 -1 1073 C0.67 1073.04 2.33 1073.04 4 1073 C4.27 1072.21 4.54 1071.42 4.81 1070.61 C12.07 1050.45 25.29 1031.91 44.94 1022.48 C52.25 1019.54 60.23 1018.93 68 1018 C68.28 1004.59 67.43 991.47 66.12 978.12 C65.95 976.26 65.77 974.39 65.6 972.52 C65.16 967.92 64.72 963.33 64.27 958.73 C64 955.97 63.74 953.22 63.48 950.46 C63.32 948.69 63.15 946.92 62.98 945.14 C62.91 944.35 62.84 943.55 62.76 942.73 C61.48 929.46 58.04 914.9 50.94 903.5 C46.22 895.81 44.34 885.84 43 877 C42.89 876.37 42.78 875.74 42.66 875.09 C39.2 854.86 42.97 834.33 48.07 814.64 C48.98 811.06 49.76 807.49 50.5 803.88 C51.78 797.76 53.4 791.77 55.13 785.77 C57.31 776.31 56.8 769.13 54.31 759.75 C54.03 758.65 53.75 757.54 53.47 756.41 C51.47 748.56 49.32 740.76 47 733 C46.24 730.38 45.5 727.75 44.75 725.12 C44.25 723.37 44.25 723.37 43.73 721.57 C43.49 720.72 43.25 719.87 43 719 C42.39 718.87 41.77 718.73 41.14 718.6 C40.33 718.42 39.52 718.24 38.69 718.06 C37.89 717.89 37.09 717.71 36.26 717.54 C34 717 34 717 31 716 C29.18 721.47 29.74 725.81 32 731 C30.73 730.97 29.47 730.93 28.16 730.89 C26.46 730.87 24.76 730.84 23.06 730.81 C22.23 730.79 21.4 730.76 20.54 730.74 C14.47 730.67 9.63 731.77 4 734 C2.64 734.49 2.64 734.49 1.25 734.99 C-3.72 736.94 -8.37 739.17 -12.99 741.85 C-14.96 742.98 -16.96 744 -19 745 C-18.27 740.64 -16.8 738.46 -13.31 735.94 C-0.43 728.16 13.31 726.91 28 726 C27.58 724.06 27.14 722.12 26.69 720.19 C26.44 719.11 26.2 718.03 25.95 716.92 C24.98 713.92 24.54 712.78 22 711 C19.97 710.19 17.9 709.48 15.81 708.81 C-5.38 701.66 -23.44 688.91 -39 673 Z M467 706 C466.37 707.21 465.75 708.41 465.12 709.62 C464.78 710.3 464.43 710.97 464.07 711.66 C462.82 714.39 461.93 717.16 461 720 C460.21 722.03 459.4 724.05 458.56 726.06 C458.15 727.06 457.74 728.07 457.32 729.1 C442.06 762.74 409.43 777.59 377 790 C377 794.16 378.82 795.64 381.38 798.88 C385.95 804.68 388.35 808.52 388 816 C383.43 816.51 380.61 815.99 376.5 813.94 C370.7 811.12 364.73 809.2 358.56 807.31 C357.61 807.02 356.66 806.72 355.68 806.41 C328.53 798.24 295.43 798.62 270 811.92 C250.36 822.51 233.6 837.58 221 856 C220.43 856.81 219.87 857.62 219.29 858.45 C201.6 884.91 190.16 916.06 189 948 C188.96 949.02 188.92 950.05 188.89 951.1 C188.66 963.53 190.34 975.66 191.94 987.97 C194.8 1010.28 194.8 1010.28 193 1021 C192.67 1021.33 192.34 1021.66 192 1022 C191.96 1023.67 191.96 1025.33 192 1027 C191.34 1027 190.68 1027 190 1027 C189.69 1027.87 189.38 1028.73 189.06 1029.62 C183.21 1039.2 171.09 1041.77 161 1045 C159.93 1045.35 159.93 1045.35 158.84 1045.7 C151.49 1048.08 144.12 1050.33 136.62 1052.23 C133.8 1053.06 131.07 1054.08 128.32 1055.13 C125.72 1056.11 123.1 1057.04 120.48 1057.97 C119.52 1058.31 118.56 1058.66 117.57 1059.01 C115.59 1059.72 113.6 1060.43 111.61 1061.13 C110.66 1061.47 109.71 1061.81 108.73 1062.16 C107.44 1062.62 107.44 1062.62 106.12 1063.09 C103.84 1063.91 103.84 1063.91 102 1066 C100.28 1066.71 98.53 1067.35 96.77 1067.95 C95.74 1068.3 94.71 1068.65 93.65 1069.02 C92.03 1069.57 92.03 1069.57 90.38 1070.12 C89.29 1070.5 88.2 1070.87 87.08 1071.25 C84.39 1072.17 81.69 1073.09 79 1074 C79 1074.66 79 1075.32 79 1076 C78.24 1076.08 77.48 1076.16 76.7 1076.25 C72.54 1077.41 71.41 1079.97 69.25 1083.53 C67.25 1087.48 66.64 1089.5 67 1094 C68.49 1096.16 70.18 1097.93 72.02 1099.8 C77.37 1105.74 80.46 1113.51 83 1121 C83.66 1121 84.32 1121 85 1121 C84.97 1119.97 84.93 1118.95 84.89 1117.89 C84.53 1102.79 87.36 1090.34 98 1079 C100.27 1076.92 102.64 1075.02 105.06 1073.12 C105.67 1072.63 106.29 1072.13 106.92 1071.62 C110.29 1068.96 111.58 1068 116 1068 C116.81 1069.69 116.81 1069.69 117 1072 C113.84 1075.87 109.92 1078.58 105.92 1081.54 C103.35 1083.5 101.17 1085.6 99 1088 C98.56 1088.49 98.11 1088.98 97.66 1089.48 C89.74 1099.17 91.78 1113.25 92 1125 C95.78 1127.41 99.71 1127.48 104.06 1127.69 C105.19 1127.75 105.19 1127.75 106.35 1127.81 C113.3 1128.12 120.34 1128.22 127 1126 C127.09 1124.39 127.09 1124.39 127.19 1122.75 C128.73 1110.61 136.64 1096.92 146 1089 C148.71 1088.28 148.71 1088.28 151 1088 C151.5 1089.49 151.5 1089.49 152 1091 C150.38 1093.91 148.69 1096.28 146.38 1098.68 C140.23 1105.06 134.91 1114.18 134.38 1123.25 C135.65 1130.89 138.33 1137.58 144 1143 C153.8 1150 163.85 1153.19 175.88 1153.06 C177.6 1153.05 177.6 1153.05 179.37 1153.04 C180.24 1153.02 181.1 1153.01 182 1153 C182.16 1152.39 182.32 1151.77 182.48 1151.14 C182.71 1150.33 182.95 1149.52 183.19 1148.69 C183.41 1147.89 183.63 1147.09 183.86 1146.26 C185.39 1143.23 186.99 1142.54 190 1141 C193.04 1140.21 193.04 1140.21 196.48 1139.6 C198.42 1139.23 198.42 1139.23 200.4 1138.86 C201.08 1138.73 201.77 1138.6 202.48 1138.47 C215.86 1135.93 228.75 1132.48 241.62 1128.06 C242.34 1127.82 243.06 1127.58 243.79 1127.33 C261.3 1121.4 276.54 1114.41 286.76 1098.42 C294.64 1086.19 304.15 1075.02 313.45 1063.87 C315.5 1061.39 317.5 1058.88 319.5 1056.38 C330.27 1043.22 342.12 1030.89 356 1021 C356.74 1022.75 356.74 1022.75 357 1025 C355.45 1026.97 355.45 1026.97 353.12 1029.06 C348.7 1033.24 344.88 1037.66 341.09 1042.41 C339.26 1044.68 337.37 1046.88 335.44 1049.06 C332.79 1051.62 332.79 1051.62 333 1054 C340.57 1051.99 347.49 1049.14 354.56 1045.81 C356.13 1045.08 356.13 1045.08 357.73 1044.34 C360.82 1042.9 363.91 1041.45 367 1040 C368.66 1039.22 370.33 1038.45 371.99 1037.68 C379.38 1034.23 386.74 1030.71 394 1027 C394.33 1027.66 394.66 1028.32 395 1029 C392.59 1031.73 390.08 1033.12 386.81 1034.69 C385.91 1035.12 385.01 1035.56 384.08 1036.01 C383.39 1036.34 382.71 1036.66 382 1037 C382 1037.66 382 1038.32 382 1039 C381.27 1039.28 380.53 1039.57 379.78 1039.86 C377.3 1040.88 374.96 1041.99 372.58 1043.21 C357.95 1050.69 343.1 1057.7 327.87 1063.86 C322.56 1066.02 319.11 1069.1 315 1073 C314.45 1073.49 313.89 1073.98 313.32 1074.48 C303.81 1083.3 296.79 1095.05 289.97 1105.98 C288 1109 288 1109 285.75 1111.77 C283.79 1113.79 283.79 1113.79 284 1116 C318.54 1133.1 374.12 1122.98 408.79 1112.05 C449.69 1097.97 484.01 1069.93 503.92 1031.22 C508.06 1022.68 511.55 1013.84 515 1005 C515.28 1004.29 515.56 1003.57 515.85 1002.84 C526.09 976.24 528.22 946.74 528.19 918.5 C528.19 917.72 528.19 916.93 528.19 916.12 C528.17 902.99 527.59 890.05 526 877 C525.91 876.19 525.82 875.38 525.72 874.54 C524.35 862.45 521.99 850.58 519.5 838.69 C519.35 837.97 519.2 837.25 519.05 836.51 C517.5 829.11 515.79 822.03 513 815 C512.55 813.42 512.12 811.83 511.7 810.23 C507.23 793.19 500.55 777.32 493.62 761.16 C491.22 755.55 488.95 749.88 486.75 744.19 C483.88 736.86 480.63 729.73 477.25 722.62 C476.79 721.65 476.33 720.68 475.85 719.68 C473.53 714.88 471.19 710.29 468 706 C467.67 706 467.34 706 467 706 Z M54 722 C55.03 728.44 56.48 734.77 57.94 741.12 C58.2 742.3 58.47 743.48 58.74 744.7 C59 745.83 59.26 746.97 59.53 748.13 C59.76 749.16 60 750.19 60.24 751.25 C60.92 753.73 61.76 755.77 63 758 C65.11 754.84 65.58 752.88 66.29 749.2 C66.51 748.05 66.73 746.91 66.95 745.74 C67.29 743.95 67.29 743.95 67.62 742.12 C67.85 740.94 68.08 739.76 68.32 738.54 C69.7 731.32 69.7 731.32 70 724 C69.34 724 68.68 724 68 724 C68 723.34 68 722.68 68 722 C65.36 722.33 62.72 722.66 60 723 C60 722.34 60 721.68 60 721 C56.95 720.84 56.95 720.84 54 722 Z M349.69 794 C348.36 794.56 348.36 794.56 347.01 795.12 C346.02 795.56 346.02 795.56 345 796 C345.85 798.25 345.85 798.25 348.44 798.95 C349.5 799.26 350.55 799.58 351.64 799.91 C352.8 800.26 353.95 800.61 355.13 800.97 C356.35 801.33 357.56 801.69 358.81 802.06 C360.01 802.43 361.22 802.79 362.46 803.17 C369.19 805.21 369.19 805.21 376 807 C374.48 802.76 371.73 801.27 368 798.94 C362.21 795.31 362.21 795.31 360 792 C356.1 791.47 353.26 792.48 349.69 794 Z M73 950 C72.07 953.01 71.96 953.87 73 957 C73.2 959.29 73.36 961.58 73.5 963.88 C73.76 968.62 73.76 968.62 74.48 973.31 C75.54 978.82 75.68 984.47 76.06 990.06 C76.15 991.32 76.24 992.58 76.34 993.88 C76.87 1001.6 77.12 1009.26 77 1017 C81.83 1018.18 85.09 1017.3 89.69 1015.69 C95.02 1013.91 100.2 1012.45 105.74 1011.47 C109.6 1010.67 113.29 1009.34 117 1008 C116.5 1003.73 114.03 1001.63 111.12 998.62 C105.45 992.63 100.36 986.29 95.34 979.74 C94.03 978.04 92.7 976.36 91.37 974.68 C86.28 968.24 81.81 961.69 77.69 954.58 C76.1 951.78 76.1 951.78 73 950 Z M121.68 1018.06 C120.59 1018.28 119.49 1018.5 118.37 1018.73 C116.06 1019.2 113.76 1019.67 111.45 1020.13 C105.98 1021.24 100.54 1022.3 95 1023 C95 1023.66 95 1024.32 95 1025 C94.43 1024.82 93.86 1024.63 93.27 1024.44 C90.71 1023.94 89.23 1024.23 86.75 1024.94 C85.51 1025.29 84.28 1025.64 83 1026 C83 1026.33 83 1026.66 83 1027 C78.21 1028.16 73.5 1028.52 68.65 1027.51 C61.06 1026.05 53.84 1026.25 47 1030 C45.8 1030.65 45.8 1030.65 44.58 1031.31 C42.37 1032.52 40.18 1033.75 38 1035 C38 1035.66 38 1036.32 38 1037 C37.45 1037.21 36.9 1037.42 36.33 1037.63 C33.15 1039.5 31.02 1042.07 28.69 1044.88 C28.2 1045.45 27.72 1046.03 27.22 1046.62 C22.79 1052.03 19.24 1057.8 16 1064 C15.45 1064.96 14.9 1065.91 14.33 1066.89 C12.76 1070.56 12.63 1073.28 12.69 1077.25 C12.69 1078.47 12.7 1079.69 12.7 1080.95 C12.69 1084.11 12.69 1084.11 15 1086 C15.29 1085.01 15.58 1084.02 15.88 1083 C19.09 1072.52 22.81 1064.51 32 1058 C35.37 1056.69 35.37 1056.69 38 1056 C36.62 1059.88 34.81 1062.88 32.38 1066.19 C29.81 1069.29 29.81 1069.29 29 1073 C28.34 1073 27.68 1073 27 1073 C25.07 1081.33 23.51 1089.46 23 1098 C26.14 1099.57 29.49 1099.14 32.94 1099.12 C34.03 1099.13 34.03 1099.13 35.15 1099.14 C38.36 1099.13 40.93 1099.02 44 1098 C43.94 1097.06 43.88 1096.11 43.82 1095.14 C43.43 1083.84 45.24 1075.2 52.62 1066.19 C58.38 1060.2 65.48 1054.57 74 1054 C76 1056 76 1056 76 1060 C75.13 1060.27 74.27 1060.54 73.38 1060.81 C64.03 1064.1 58.71 1069.66 53.72 1078.18 C51.55 1083.15 51.5 1087.88 53 1093 C54.44 1095.85 56.11 1098.43 58 1101 C58.66 1100.67 59.32 1100.34 60 1100 C59.88 1099.41 59.76 1098.81 59.64 1098.2 C58.37 1090.04 59.96 1083.61 64.51 1076.7 C71 1068.65 78.78 1065.89 88.55 1063.52 C93.01 1062.39 96.34 1060.9 100.07 1058.29 C114.14 1048.9 132.9 1045.49 149 1041 C147.53 1037.89 146.28 1036.19 143.56 1034.06 C139.01 1030.24 135.34 1025.85 131.59 1021.27 C130.41 1019.83 129.21 1018.41 128 1017 C125.88 1017 123.74 1017.64 121.68 1018.06 Z " fill="#000002" transform="translate(168,48)"/>
<path d="M0 0 C0.68 0.41 1.35 0.82 2.05 1.25 C2.72 1.65 3.4 2.05 4.09 2.46 C16.76 10.93 23.15 26 26.32 40.34 C28.61 52.7 26.77 64.55 20.05 75.25 C13.67 84.13 1.57 89.35 -8.95 91.25 C-9.61 96.2 -10.27 101.15 -10.95 106.25 C-9.3 106.91 -7.65 107.57 -5.95 108.25 C-5.15 108.6 -4.34 108.95 -3.52 109.31 C6.85 113.1 18.96 112.43 28.97 108.12 C31.05 107.25 31.05 107.25 33.05 107.25 C33.38 106.59 33.71 105.93 34.05 105.25 C35 104.69 35.94 104.13 36.92 103.56 C40.81 100.68 41.49 98.73 43.05 94.25 C47.78 94.71 51.24 95.31 55.05 98.25 C56.93 100.81 57.11 101.81 56.67 105 C56.47 105.74 56.26 106.48 56.05 107.25 C52.38 107.25 48.71 107.25 45.05 107.25 C42.83 108.4 42.83 108.4 40.67 110 C39.94 110.51 39.21 111.02 38.46 111.54 C37.66 112.11 36.87 112.67 36.05 113.25 C35.03 113.84 34.01 114.43 32.96 115.04 C29.47 117.68 28.45 119.87 26.73 123.87 C21.87 134.4 14.77 142.39 4.05 147.25 C-1.43 149.18 -6.28 149.55 -12.02 149.5 C-12.79 149.5 -13.57 149.51 -14.37 149.52 C-18.97 149.5 -22.62 148.97 -26.95 147.25 C-27.79 146.96 -28.62 146.68 -29.48 146.39 C-40.16 142.44 -45.61 136.25 -50.95 126.25 C-51.58 124.48 -52.19 122.71 -52.77 120.93 C-54.65 115.72 -57.78 113.93 -62.61 111.5 C-64.87 110.29 -66.34 109.23 -67.95 107.25 C-67.95 106.59 -67.95 105.93 -67.95 105.25 C-68.49 105.58 -69.03 105.91 -69.58 106.25 C-72.49 107.47 -74.82 107.39 -77.95 107.25 C-78.7 104.56 -78.7 104.56 -78.95 101.25 C-76.88 97.87 -74.81 95.41 -70.95 94.25 C-68.45 94.18 -68.45 94.18 -65.95 95.25 C-65.06 96.94 -64.17 98.63 -63.3 100.34 C-60.54 104.25 -56.14 106.13 -51.95 108.25 C-51.34 108.59 -50.72 108.93 -50.09 109.29 C-42.75 112.77 -32.43 112.45 -24.73 110.38 C-20.53 108.83 -20.53 108.83 -16.95 106.25 C-16.65 101.6 -16.65 101.6 -17.95 97.25 C-18.31 95.25 -18.65 93.25 -18.95 91.25 C-20.28 90.84 -20.28 90.84 -21.63 90.43 C-32.74 86.8 -43.43 81.75 -49.18 70.93 C-49.5 70.19 -49.82 69.45 -50.14 68.68 C-50.46 67.94 -50.79 67.2 -51.12 66.43 C-56.28 52.88 -52.89 36.37 -47.41 23.52 C-42.2 12.04 -35.07 2.79 -23.11 -1.86 C-15.38 -4.05 -7.15 -3.77 0 0 Z M-41.95 56.25 C-42.94 57.73 -42.94 57.73 -43.95 59.25 C-43.08 59.17 -42.21 59.1 -41.31 59.03 C-37.28 59.29 -35.49 60.46 -32.2 62.75 C-28.86 65.35 -28.86 65.35 -24.95 66.25 C-25.25 62.67 -25.7 61.48 -28.39 59 C-31.71 56.73 -33.48 56.07 -37.45 56 C-38.25 55.97 -39.04 55.94 -39.86 55.92 C-40.55 56.03 -41.24 56.13 -41.95 56.25 Z M-0.95 62.25 C-2.21 64.34 -2.21 64.34 -2.95 66.25 C-1.99 65.61 -1.99 65.61 -1.01 64.97 C8.38 59.02 8.38 59.02 14.05 59.25 C16.48 61.18 16.48 61.18 18.05 63.25 C17.77 59.43 17.77 59.43 16.05 56.25 C8.88 55.35 4.39 57.41 -0.95 62.25 Z M-45.95 118.25 C-43.35 127.35 -37.8 133.87 -29.64 138.58 C-25.26 140.67 -21.89 141.62 -16.95 141.25 C-16.62 141.58 -16.29 141.91 -15.95 142.25 C-5.15 142.6 3.68 140.28 12.21 133.54 C16.07 129.91 18.75 126.02 21.05 121.25 C21.05 120.26 21.05 119.27 21.05 118.25 C18.48 118.16 15.92 118.11 13.36 118.06 C12.28 118.02 12.28 118.02 11.17 117.98 C6.51 117.92 3.81 118.52 0.05 121.25 C-7.07 124.62 -14.5 125.7 -22.24 123.64 C-26.65 121.86 -26.65 121.86 -27.95 119.25 C-28.75 119.26 -29.55 119.27 -30.37 119.28 C-40.89 119.37 -40.89 119.37 -45.95 118.25 Z " fill="#000002" transform="translate(439.953125,383.75390625)"/>
<path d="M0 0 C7.17 0.61 13.46 2.56 20.2 5.02 C21.24 5.39 22.29 5.76 23.36 6.14 C30.97 8.85 30.97 8.85 32.14 10.02 C32.24 13.05 32.28 16.05 32.26 19.08 C32.27 19.92 32.27 20.75 32.28 21.61 C32.27 26.14 32.02 30.5 31.39 34.98 C30.91 38.91 30.8 42.87 30.64 46.83 C30.38 52.92 29.98 58.97 29.4 65.04 C28.89 70.8 28.57 76.57 28.2 82.33 C27.59 91.76 26.93 101.17 26.08 110.58 C25.96 111.92 25.96 111.92 25.84 113.28 C25.46 117.26 24.94 121.1 24.14 125.02 C23.92 127.29 23.74 129.56 23.58 131.83 C23.45 133.57 23.45 133.57 23.32 135.35 C23.26 136.23 23.2 137.11 23.14 138.02 C22.48 138.02 21.82 138.02 21.14 138.02 C21.32 139.14 21.5 140.27 21.69 141.42 C22.29 146.25 21.89 150.77 21.33 155.58 C21.24 156.39 21.16 157.2 21.07 158.04 C20.54 162.9 19.62 167.36 18.14 172.02 C16.82 172.02 15.5 172.02 14.14 172.02 C14.59 166.32 15.07 160.62 15.65 154.93 C16.91 142.6 16.91 142.6 17.14 130.2 C17.14 127.56 17.53 125.02 17.92 122.41 C18.35 117.66 18.15 112.87 18.08 108.12 C18.14 105.02 18.14 105.02 19.14 104.02 C19.37 102.67 19.55 101.32 19.7 99.96 C19.85 98.66 19.99 97.36 20.14 96.02 C19.48 96.02 18.82 96.02 18.14 96.02 C18.6 92.2 19.06 88.43 19.76 84.64 C20.39 82.05 20.39 82.05 19.14 80.02 C19.8 80.02 20.46 80.02 21.14 80.02 C21.06 78.8 20.97 77.59 20.89 76.34 C20.78 74.75 20.68 73.17 20.58 71.58 C20.49 70.38 20.49 70.38 20.41 69.15 C20.28 67.11 20.2 65.06 20.14 63.02 C20.47 62.69 20.8 62.36 21.14 62.02 C21.21 60.47 21.22 58.92 21.2 57.36 C21.19 55.95 21.19 55.95 21.18 54.52 C21.16 53.03 21.16 53.03 21.14 51.52 C21.11 49.57 21.09 47.62 21.08 45.68 C21.06 44.81 21.05 43.94 21.04 43.04 C21.14 41.02 21.14 41.02 22.14 40.02 C22.3 37.88 22.39 35.73 22.46 33.58 C22.5 32.27 22.54 30.97 22.58 29.62 C22.62 28.23 22.66 26.85 22.7 25.46 C22.74 24.06 22.79 22.67 22.83 21.28 C22.94 17.86 23.04 14.44 23.14 11.02 C21.49 11.35 19.84 11.68 18.14 12.02 C18.14 11.36 18.14 10.7 18.14 10.02 C17.27 10.3 17.27 10.3 16.39 10.58 C13.93 11.06 12.49 10.78 10.14 10.02 C10.14 9.36 10.14 8.7 10.14 8.02 C7.83 8.02 5.52 8.02 3.14 8.02 C3.63 10.49 3.63 10.49 4.14 13.02 C3.48 13.02 2.82 13.02 2.14 13.02 C2.63 15.99 2.63 15.99 3.14 19.02 C2.48 19.02 1.82 19.02 1.14 19.02 C1.31 19.6 1.48 20.18 1.66 20.78 C2.44 24.42 1.72 27.99 1.25 31.64 C1.09 32.91 1.09 32.91 0.93 34.21 C0.59 36.96 0.24 39.71 -0.11 42.46 C-0.35 44.33 -0.58 46.21 -0.82 48.08 C-2.02 57.69 -3.26 67.3 -4.61 76.89 C-4.73 77.71 -4.84 78.53 -4.96 79.37 C-5.4 82.37 -5.9 85.13 -6.86 88.02 C-7.21 90.92 -7.52 93.8 -7.8 96.71 C-8.69 105.5 -9.71 114.26 -10.86 123.02 C-10.98 123.9 -11.09 124.78 -11.21 125.69 C-11.59 128.59 -11.97 131.49 -12.36 134.39 C-12.48 135.3 -12.6 136.2 -12.72 137.13 C-13.43 142.4 -14.33 147.59 -15.48 152.78 C-15.86 155.03 -15.92 157.05 -15.86 159.33 C-15.77 162.9 -16.14 166.16 -16.74 169.68 C-18.08 178.16 -19.04 186.66 -19.86 195.21 C-19.95 196.1 -20.03 196.99 -20.12 197.91 C-21.98 217.8 -22.58 237.73 -23.11 257.69 C-23.17 260.2 -23.24 262.71 -23.31 265.22 C-23.42 269.23 -23.52 273.23 -23.61 277.24 C-23.64 278.73 -23.68 280.21 -23.72 281.7 C-23.91 289.24 -23.88 296.54 -22.86 304.02 C-22.66 307.5 -22.63 310.97 -22.61 314.46 C-22.59 315.35 -22.57 316.25 -22.55 317.17 C-22.54 318.46 -22.54 318.46 -22.53 319.77 C-22.52 320.54 -22.51 321.31 -22.5 322.1 C-22.62 322.73 -22.74 323.37 -22.86 324.02 C-23.85 324.68 -24.84 325.34 -25.86 326.02 C-31.42 317.76 -31.42 317.76 -31.86 313.02 C-33.18 312.69 -34.5 312.36 -35.86 312.02 C-35.86 311.36 -35.86 310.7 -35.86 310.02 C-36.58 309.9 -37.3 309.77 -38.05 309.64 C-40.82 309.03 -43.26 308.14 -45.86 307.02 C-45.86 306.36 -45.86 305.7 -45.86 305.02 C-47.19 304.61 -47.19 304.61 -48.54 304.2 C-51.63 303.1 -54.22 301.83 -57.06 300.19 C-58.01 299.64 -58.97 299.09 -59.96 298.52 C-60.96 297.95 -61.96 297.37 -62.99 296.77 C-70.85 292.26 -78.69 287.94 -86.86 284.02 C-86.86 280.39 -86.86 276.76 -86.86 273.02 C-84.4 274.22 -81.94 275.43 -79.49 276.64 C-78.47 277.14 -78.47 277.14 -77.43 277.65 C-72.65 280.02 -68.09 282.64 -63.53 285.41 C-58.74 288.3 -53.86 291.02 -48.99 293.77 C-47.97 294.35 -46.95 294.92 -45.9 295.52 C-41.92 297.76 -37.96 299.99 -33.86 302.02 C-33.87 300.71 -33.87 299.39 -33.88 298.04 C-34.1 235.81 -34.1 235.81 -30.88 207.66 C-30.2 201.73 -29.69 195.98 -29.86 190.02 C-29.2 190.02 -28.54 190.02 -27.86 190.02 C-27.91 189.05 -27.91 189.05 -27.97 188.06 C-28.18 180.68 -27.3 173.78 -26.08 166.53 C-25.08 160.61 -24.3 154.68 -23.67 148.71 C-23.59 147.93 -23.51 147.14 -23.42 146.34 C-23.09 143.06 -22.86 139.9 -22.87 136.6 C-22.86 134.02 -22.86 134.02 -21.86 132.02 C-21.82 129.69 -21.82 127.35 -21.86 125.02 C-21.2 125.02 -20.54 125.02 -19.86 125.02 C-20.19 123.04 -20.52 121.06 -20.86 119.02 C-20.2 119.02 -19.54 119.02 -18.86 119.02 C-19.07 118.01 -19.27 117 -19.49 115.96 C-19.86 112.02 -19.86 112.02 -18.92 108.77 C-17.8 104.8 -17.49 101.25 -17.3 97.14 C-16.96 90.12 -16.96 90.12 -15.86 89.02 C-15.66 87.54 -15.51 86.06 -15.4 84.57 C-15.28 83.21 -15.28 83.21 -15.16 81.81 C-15 79.89 -14.85 77.97 -14.7 76.05 C-14.24 70.77 -13.42 66.08 -11.86 61.02 C-11.82 58.69 -11.82 56.35 -11.86 54.02 C-11.23 49.01 -10.34 44.05 -9.42 39.08 C-8.38 33.32 -7.52 27.58 -6.86 21.77 C-4.29 0.05 -4.29 0.05 0 0 Z " fill="#000002" transform="translate(86.861083984375,-0.01953125)"/>
<path d="M0 0 C6.68 5.22 11.63 13.49 13.02 21.82 C13.88 32.94 12.79 40.49 5.64 49.13 C0.61 54.5 -4.54 57.96 -11.98 58.82 C-20.67 58.94 -28.3 56.55 -34.8 50.69 C-42.41 42.41 -43.27 31.59 -42.98 20.82 C-42.32 20.82 -41.66 20.82 -40.98 20.82 C-40.94 20.03 -40.9 19.25 -40.86 18.44 C-38.91 10.38 -33.99 3.29 -26.98 -1.18 C-18.17 -5.77 -8.54 -5.09 0 0 Z M-27.98 12.82 C-30.29 15.69 -30.29 15.69 -30.05 19.25 C-28.97 22.86 -28.79 23.44 -25.86 25.38 C-22.79 26.84 -21.81 26.8 -18.23 26.38 C-14.51 24.59 -13.36 23.7 -11.98 19.82 C-11.98 15.56 -12.31 13.57 -15.17 10.38 C-20.64 7.34 -24.11 7.97 -27.98 12.82 Z " fill="#000002" transform="translate(352.984375,363.18359375)"/>
<path d="M0 0 C8.04 6.87 13.1 15.12 14.04 25.75 C14.45 34.42 12.04 41.28 6.47 47.95 C0.24 54.54 -5.92 57.61 -14.97 57.95 C-23.53 57.79 -30.15 54.72 -36.16 48.57 C-42.15 39.51 -43.1 31.31 -42.16 20.57 C-39.19 9.72 -34.22 3.47 -24.66 -2.23 C-16.73 -6.03 -7.11 -5.08 0 0 Z M-32.16 11.57 C-33.73 14.71 -33.51 17.11 -33.16 20.57 C-31.16 23.5 -29.73 25.22 -26.18 26.02 C-22.78 26.21 -20.56 25.84 -17.72 23.95 C-15.77 20.99 -15.23 19.13 -15.16 15.57 C-16.34 12.34 -17.23 10.25 -20.03 8.2 C-25.51 6.59 -28.02 7.67 -32.16 11.57 Z " fill="#000002" transform="translate(531.15625,364.42578125)"/>
<path d="M0 0 C0.5 0.38 1 0.76 1.52 1.15 C0.47 4.18 -0.28 5.04 -3.16 6.57 C-4.22 6.97 -5.27 7.37 -6.36 7.78 C-13.28 10.05 -13.28 10.05 -18.23 14.9 C-25.49 25.38 -40.13 30.82 -51.86 34.71 C-60.17 37.55 -66.6 41.34 -71.67 48.59 C-74.15 51.71 -75.2 52.11 -79.25 52.66 C-83.02 52.73 -86.73 52.5 -90.48 52.15 C-79 42.64 -65.74 32.91 -51.48 28.15 C-54.19 28.02 -56.9 27.92 -59.61 27.84 C-60.37 27.8 -61.13 27.76 -61.91 27.71 C-66.15 27.62 -68.64 27.85 -71.91 30.67 C-73.19 31.9 -73.19 31.9 -74.48 33.15 C-75.14 33.15 -75.8 33.15 -76.48 33.15 C-76.81 34.14 -77.14 35.13 -77.48 36.15 C-79.09 37.64 -79.09 37.64 -81.16 39.18 C-81.91 39.75 -82.65 40.31 -83.42 40.89 C-84.2 41.47 -84.99 42.05 -85.8 42.65 C-86.96 43.52 -86.96 43.52 -88.14 44.41 C-90.25 46 -92.37 47.58 -94.48 49.15 C-95.49 49.98 -95.49 49.98 -96.51 50.82 C-99.55 52.87 -102.7 52.47 -106.23 52.34 C-106.93 52.33 -107.63 52.31 -108.35 52.3 C-110.06 52.26 -111.77 52.21 -113.48 52.15 C-110 48.48 -106.36 45.51 -102.17 42.65 C-95.9 38.28 -89.96 33.59 -84.08 28.71 C-82.82 27.67 -81.56 26.64 -80.29 25.62 C-79.12 24.67 -77.98 23.69 -76.88 22.66 C-71.52 18.06 -66.2 18.69 -59.42 19.03 C-41.86 19.66 -41.86 19.66 -26.48 12.15 C-25.97 11.62 -25.45 11.1 -24.92 10.55 C-20.46 6.19 -15.99 3.8 -10.23 1.59 C-9.54 1.31 -8.84 1.04 -8.12 0.75 C-3.1 -1.06 -3.1 -1.06 0 0 Z " fill="#000002" transform="translate(242.484375,1227.84765625)"/>
<path d="M0 0 C2.97 0.5 2.97 0.5 6 1 C6.22 2.09 6.22 2.09 6.45 3.2 C8 10.15 10.25 15.98 13.7 22.21 C15.09 25.19 15.56 27.76 16 31 C16.33 31.99 16.66 32.98 17 34 C17 35.32 17 36.64 17 38 C17.66 38.33 18.32 38.66 19 39 C18.67 39.66 18.34 40.32 18 41 C18.66 41 19.32 41 20 41 C25.86 52.72 25.86 52.72 26.92 54.85 C27.65 56.31 28.4 57.76 29.15 59.21 C29.51 59.91 29.88 60.62 30.25 61.34 C30.75 62.29 30.75 62.29 31.25 63.26 C32.24 65.56 32.31 67.52 32 70 C26.14 69.4 23.92 66.2 20.23 61.92 C16.91 57.57 14.38 52.92 12 48 C10.36 51.28 10.43 54.95 10.1 58.56 C9.93 60.32 9.76 62.09 9.59 63.86 C9.33 66.63 9.06 69.41 8.8 72.19 C6.52 96.43 6.52 96.43 4 104 C3.34 104 2.68 104 2 104 C0.34 96.34 -0.29 89.08 -0.19 81.25 C-0.19 80.26 -0.19 79.27 -0.19 78.25 C-0.15 73.07 0.18 68.13 1 63 C1.04 61.58 1.04 60.17 1 58.75 C0.96 55.49 1.14 52.36 1.5 49.12 C2.03 43.83 2.11 38.57 2.12 33.25 C2.13 32.45 2.13 31.64 2.14 30.81 C2.13 26.12 1.95 21.61 1 17 C0.34 16.67 -0.32 16.34 -1 16 C-1.63 13.28 -1.63 13.28 -2.12 9.94 C-2.29 8.83 -2.46 7.73 -2.63 6.59 C-2.75 5.74 -2.88 4.88 -3 4 C-2.34 4 -1.68 4 -1 4 C-0.67 2.68 -0.34 1.36 0 0 Z " fill="#000002" transform="translate(118,91)"/>
<path d="M0 0 C0.99 0.99 0.99 0.99 2 2 C1.85 4.02 1.85 4.02 1 6 C-7.78 9.94 -18.42 11.24 -28 11 C-27.78 12.73 -27.78 12.73 -27.56 14.5 C-27.58 19.36 -29.57 21.73 -32.89 25.12 C-39.1 30.66 -44.99 33.47 -52.93 35.86 C-57.3 37.48 -60.91 39.95 -64.72 42.61 C-67 44 -67 44 -70 44 C-65.96 35.02 -56.7 30.93 -48.35 26.64 C-43.9 24.3 -40.85 22.3 -38 18 C-48.2 21.18 -58.07 24.66 -67.72 29.28 C-76.51 33.4 -84.91 34.29 -94.51 34.57 C-99.04 34.74 -102.72 35.35 -107 37 C-108.14 37.25 -108.14 37.25 -109.31 37.5 C-110.15 37.75 -110.15 37.75 -111 38 C-111.33 38.66 -111.66 39.32 -112 40 C-112.66 40.66 -113.32 41.32 -114 42 C-114.99 41.67 -115.98 41.34 -117 41 C-115.75 39.75 -114.47 38.53 -113.19 37.31 C-112.13 36.29 -112.13 36.29 -111.04 35.24 C-103.02 29.34 -94.86 27.34 -85.12 26.25 C-72.67 24.56 -62.18 20.63 -51 15 C-49.82 14.41 -48.64 13.83 -47.43 13.22 C-42.9 10.85 -38.91 8.32 -35 5 C-31.82 3.11 -29.01 2.58 -25.35 2.15 C-23.72 1.96 -23.72 1.96 -22.05 1.76 C-20.36 1.57 -20.36 1.57 -18.62 1.38 C-17.5 1.24 -16.38 1.11 -15.22 0.97 C-4.55 -0.27 -4.55 -0.27 0 0 Z " fill="#000002" transform="translate(769,1159)"/>
<path d="M0 0 C14.61 -0.36 14.61 -0.36 21 2 C22.26 2.35 22.26 2.35 23.55 2.71 C35.08 6.05 46.48 12.48 55 21 C55 21.66 55 22.32 55 23 C55.66 23 56.32 23 57 23 C65.04 32.05 71.4 42.34 72.25 54.62 C71.98 58.33 71.64 58.71 69 61 C68.59 60.19 68.59 60.19 68.16 59.37 C58.3 40.32 47.7 24.9 28 15 C28 14.34 28 13.68 28 13 C25.36 12.67 22.72 12.34 20 12 C20 11.34 20 10.68 20 10 C19.01 10.33 18.02 10.66 17 11 C17 10.34 17 9.68 17 9 C16.38 9.19 15.76 9.37 15.12 9.56 C13 10 13 10 11 9 C3.65 8.64 -3.74 8.79 -11 10 C-11.33 10.66 -11.66 11.32 -12 12 C-14.06 12.39 -16.09 12.51 -18.19 12.66 C-18.79 12.77 -19.38 12.88 -20 13 C-20.33 13.66 -20.66 14.32 -21 15 C-22.99 16.02 -24.99 17.02 -27 18 C-27.72 18.58 -28.44 19.16 -29.19 19.75 C-29.79 20.16 -30.38 20.57 -31 21 C-31.99 20.67 -32.98 20.34 -34 20 C-34 18 -34 18 -32.52 16.52 C-23.53 9.38 -11.79 2 0 2 C0 1.34 0 0.68 0 0 Z " fill="#000002" transform="translate(200,205)"/>
<path d="M0 0 C2.28 1.89 4.07 3.74 6 6 C5.67 6.66 5.34 7.32 5 8 C3.02 7.01 1.04 6.02 -1 5 C-1 4.34 -1 3.68 -1 3 C-2.06 2.8 -2.06 2.8 -3.14 2.59 C-6.04 1.99 -8.89 1.31 -11.75 0.56 C-12.71 0.32 -13.68 0.07 -14.67 -0.18 C-17 -1 -17 -1 -18 -3 C-19.32 -2.67 -20.64 -2.34 -22 -2 C-22 -2.66 -22 -3.32 -22 -4 C-23.01 -3.86 -24.02 -3.71 -25.06 -3.56 C-27.84 -3.19 -30.5 -2.99 -33.31 -2.96 C-51.62 -2.55 -66.61 6.96 -79.75 19.19 C-84.91 24.59 -88.79 30.89 -92.79 37.16 C-94.77 40.18 -96.88 43.08 -99 46 C-99.66 45.67 -100.32 45.34 -101 45 C-102.3 34.1 -97.62 26.11 -91.06 17.69 C-89.73 16.11 -88.37 14.55 -87 13 C-86.45 12.36 -85.89 11.73 -85.32 11.07 C-78.5 3.73 -69.63 -0.81 -60.81 -5.31 C-60.16 -5.65 -59.51 -5.99 -58.83 -6.34 C-39.42 -16 -17.65 -11.31 0 0 Z " fill="#000002" transform="translate(694,218)"/>
<path d="M0 0 C0.33 0.66 0.66 1.32 1 2 C1.92 1.95 2.85 1.9 3.8 1.86 C9.09 1.86 14.11 3.16 19.25 4.31 C49.09 10.73 80.37 15.18 110.79 10.44 C113.91 10.01 116.86 9.92 120 10 C120.5 11.98 120.5 11.98 121 14 C106.4 20.3 89.72 20.07 74.06 20.12 C73.08 20.13 72.1 20.13 71.08 20.14 C65.95 20.13 61.08 19.82 56 19 C54.68 19 53.36 19 52 19 C52 18.34 52 17.68 52 17 C51.16 16.96 50.33 16.93 49.46 16.89 C31.23 15.86 14.28 11.39 -2 3 C-2 2.34 -2 1.68 -2 1 C-1.34 0.67 -0.68 0.34 0 0 Z " fill="#000002" transform="translate(350,564)"/>
<path d="M0 0 C1.44 1.81 1.44 1.81 2.12 4.56 C0.43 12.56 -8.3 16.96 -14.73 21.18 C-25.3 27.93 -37.11 34.72 -50.12 33.75 C-53.87 32.73 -55.51 32.12 -57.56 28.81 C-57.14 21.47 -52.66 17.66 -47.56 12.81 C-35.95 3.01 -15.02 -6.96 0 0 Z M-45.57 19.77 C-48.82 23.26 -48.82 23.26 -49.56 27.81 C-33.78 27.43 -16.67 17.92 -5.56 6.81 C-5.56 6.15 -5.56 5.49 -5.56 4.81 C-20.5 1.33 -35.1 9.54 -45.57 19.77 Z " fill="#000002" transform="translate(617.5625,1241.1875)"/>
<path d="M0 0 C0.66 0 1.32 0 2 0 C3.39 2.77 3.13 5.06 3.14 8.16 C3.36 27.92 3.36 27.92 8.24 46.98 C9.41 50.1 10.48 53.26 11.54 56.42 C12.09 58.02 12.64 59.61 13.21 61.2 C15.11 66.67 15.11 66.67 14 70 C7.56 69.42 5.34 66.97 1.3 62.18 C-5.18 53.22 -9.19 42.92 -13.06 32.62 C-13.37 31.8 -13.69 30.97 -14.01 30.12 C-14.73 28.1 -15.38 26.05 -16 24 C-15.67 23.34 -15.34 22.68 -15 22 C-10.67 23.44 -9.76 26.71 -7.81 30.56 C-7.44 31.27 -7.08 31.98 -6.7 32.72 C-5.79 34.47 -4.89 36.24 -4 38 C-3.67 35.69 -3.34 33.38 -3 31 C-3.66 30.67 -4.32 30.34 -5 30 C-4.11 4.11 -4.11 4.11 0 0 Z " fill="#000002" transform="translate(282,890)"/>
<path d="M0 0 C0.66 0.33 1.32 0.66 2 1 C2.56 3.16 2.56 3.16 3 6 C3.17 7.03 3.33 8.07 3.5 9.13 C3.67 10.22 3.83 11.31 4 12.44 C4.33 14.56 4.67 16.69 5 18.81 C5.16 19.85 5.33 20.89 5.49 21.96 C6.1 25.59 6.81 29.18 7.58 32.77 C8.16 35.86 8.48 38.96 8.75 42.09 C8.97 44.22 8.97 44.22 10 47 C10.47 49.8 10.89 52.6 11.3 55.41 C11.85 58.21 12.5 60.83 13.29 63.57 C15.85 72.74 17.56 82.11 19.44 91.44 C19.82 93.34 20.21 95.24 20.6 97.14 C21.36 100.9 22.12 104.66 22.87 108.43 C23.63 112.17 24.4 115.92 25.18 119.66 C25.36 120.56 25.55 121.47 25.74 122.4 C26.09 124.1 26.45 125.81 26.81 127.51 C27.68 131.75 28.19 135.64 28 140 C27.67 139.01 27.34 138.02 27 137 C26.34 137 25.68 137 25 137 C23.75 133.2 22.5 129.39 21.26 125.59 C20.64 123.67 20.01 121.75 19.38 119.83 C17.35 113.58 15.5 107.45 14.37 100.97 C14.01 98.8 14.01 98.8 13 96 C12.66 94.22 12.35 92.43 12.06 90.63 C11.89 89.58 11.72 88.53 11.54 87.45 C11.36 86.35 11.18 85.26 11 84.12 C10.65 81.96 10.29 79.8 9.94 77.63 C9.7 76.19 9.7 76.19 9.46 74.72 C9.16 72.94 8.83 71.15 8.47 69.38 C8.07 67.37 7.78 65.34 7.5 63.31 C7.19 60.13 7.19 60.13 6 58 C5.79 56.09 5.63 54.17 5.5 52.25 C5.21 48.1 4.7 44.1 4 40 C3.65 37.31 3.31 34.63 3 31.94 C2.91 31.2 2.83 30.46 2.74 29.7 C1.98 23.14 1.44 16.59 1 10 C0.34 10 -0.32 10 -1 10 C-0.67 6.7 -0.34 3.4 0 0 Z " fill="#000002" transform="translate(90,394)"/>
<path d="M0 0 C1.81 2.62 1.81 2.62 3 5 C-4.26 14.76 -15.1 20.58 -27 23 C-34.17 23.49 -40.76 23.88 -47 20 C-48.62 18.12 -48.62 18.12 -49 16 C-45.47 8.22 -36.04 4.54 -28.4 1.63 C-7.99 -4.79 -7.99 -4.79 0 0 Z M-39 13 C-40.25 15.06 -40.25 15.06 -41 17 C-28.75 17.72 -16 15.74 -6 8 C-5.67 7.01 -5.34 6.02 -5 5 C-16.84 4.48 -29.31 5.33 -39 13 Z " fill="#000002" transform="translate(775,1188)"/>
<path d="M0 0 C0.66 0 1.32 0 2 0 C4.89 7.42 4.89 7.42 5.41 10.21 C6.11 13.53 7.15 16.63 8.25 19.84 C8.7 21.16 9.15 22.49 9.59 23.81 C10.3 25.88 11 27.94 11.71 30 C12.39 32.01 13.07 34.02 13.75 36.03 C14.36 37.82 14.36 37.82 14.98 39.64 C15.93 42.77 16.48 45.78 17 49 C17.74 50.91 18.49 52.82 19.24 54.73 C20.38 58.15 20.92 61.63 21.47 65.19 C22.1 68.54 23.04 71.73 24 75 C24.74 77.88 25.46 80.77 26.17 83.66 C27.37 88.48 28.58 93.29 29.82 98.09 C30.13 99.34 30.45 100.59 30.78 101.88 C31.42 104.39 32.06 106.9 32.71 109.41 C33.01 110.58 33.3 111.75 33.61 112.95 C33.88 113.99 34.14 115.04 34.42 116.12 C34.97 118.84 35.11 121.24 35 124 C34.01 123.5 34.01 123.5 33 123 C32.25 120.63 32.25 120.63 31.56 117.56 C29.94 110.7 28.16 103.98 25.59 97.4 C23.68 92.32 22.36 87.12 21 81.88 C18.22 71.33 15.23 60.86 12.16 50.4 C8.65 38.44 5.22 26.49 2.31 14.38 C2.07 13.36 1.83 12.35 1.57 11.31 C0.66 7.36 0 4.08 0 0 Z " fill="#000002" transform="translate(137,454)"/>
<path d="M0 0 C2.12 1.75 2.12 1.75 3.19 3.56 C3.09 7.09 1.52 9.32 -0.88 11.75 C-9.83 18.05 -19.06 19.71 -29.88 18.75 C-32.28 18 -33.78 17.18 -35.88 15.75 C-36.19 13 -36.19 13 -35.88 9.75 C-27.91 2.23 -10.72 -4.66 0 0 Z M-27.27 10.93 C-27.8 11.53 -28.33 12.13 -28.88 12.75 C-27.78 14.05 -27.78 14.05 -25.12 14.06 C-18.27 13.99 -10.54 11.53 -4.88 7.75 C-4.88 6.76 -4.88 5.77 -4.88 4.75 C-12.58 2.42 -21.42 5.61 -27.27 10.93 Z " fill="#000002" transform="translate(321.875,1220.25)"/>
<path d="M0 0 C0.5 1.49 0.5 1.49 1 3 C-0.55 3.71 -0.55 3.71 -3 4 C-5.47 2.96 -7.76 1.87 -10.12 0.62 C-16.08 -2.36 -21.23 -4.11 -28 -4 C-28 -4.66 -28 -5.32 -28 -6 C-28.57 -5.87 -29.14 -5.73 -29.72 -5.6 C-30.88 -5.33 -30.88 -5.33 -32.06 -5.06 C-32.82 -4.89 -33.57 -4.71 -34.35 -4.54 C-37 -4 -37 -4 -40.33 -3.65 C-44.56 -2.9 -47.87 -1.46 -51.69 0.44 C-52.66 0.91 -52.66 0.91 -53.66 1.38 C-56.22 2.62 -58.77 3.87 -61.27 5.22 C-63 6 -63 6 -66 6 C-62.11 -2.64 -53.28 -6.37 -45 -10 C-28.99 -15.7 -12.57 -11.5 0 0 Z " fill="#000002" transform="translate(259,266)"/>
<path d="M0 0 C0.93 0.69 0.93 0.69 1.87 1.39 C2.56 1.91 3.25 2.42 3.96 2.95 C7.47 5.75 7.47 5.75 8.87 7.39 C8.87 8.38 8.87 9.37 8.87 10.39 C3.9 8.92 -0.67 6.82 -5.35 4.61 C-15.12 0.33 -26.39 -0.43 -36.76 2.38 C-39.65 3.58 -42.38 4.89 -45.13 6.39 C-52.98 10.39 -52.98 10.39 -56.13 10.39 C-56.05 7.76 -55.59 5.95 -53.89 3.9 C-39.88 -9 -16.01 -10.33 0 0 Z " fill="#000002" transform="translate(658.12890625,261.60546875)"/>
<path d="M0 0 C0.56 2.31 0.56 2.31 0 5 C-5.06 10.18 -10.54 13.13 -17.84 13.29 C-19.54 13.27 -21.24 13.24 -22.94 13.19 C-23.81 13.17 -24.69 13.16 -25.59 13.15 C-27.73 13.11 -29.86 13.06 -32 13 C-29.42 11.28 -27.64 10.43 -24.77 9.49 C-23.97 9.23 -23.16 8.96 -22.34 8.69 C-21.5 8.42 -20.67 8.15 -19.81 7.88 C-18.97 7.6 -18.12 7.32 -17.25 7.04 C-15.17 6.35 -13.09 5.67 -11 5 C-16.53 4.83 -21.11 5.28 -26.5 6.75 C-27.15 6.93 -27.81 7.11 -28.48 7.29 C-32.02 8.29 -35.22 9.47 -38.44 11.25 C-42.77 13.38 -45.26 13.34 -50 13 C-41.99 1.67 -12.89 -8.59 0 0 Z " fill="#000002" transform="translate(652,1267)"/>
<path d="M0 0 C0.5 2.48 0.5 2.48 1 5 C-2.87 8.48 -6.76 10.23 -11.62 11.88 C-23.2 15.92 -23.2 15.92 -33 23 C-33.99 23 -34.98 23 -36 23 C-36.37 19.72 -36.21 18.32 -34.35 15.54 C-29.33 10.11 -24.47 5.61 -18 2 C-17.26 1.56 -16.51 1.13 -15.75 0.68 C-9.99 -2.34 -6.08 -2.13 0 0 Z " fill="#000002" transform="translate(349,317)"/>
<path d="M0 0 C0.99 0.33 1.98 0.66 3 1 C4.66 10.98 5.4 20.77 5.62 30.88 C5.66 32.31 5.7 33.75 5.74 35.19 C6.05 47.46 6.12 59.73 6 72 C5.01 72.49 5.01 72.49 4 73 C2.46 66.39 1.67 59.9 1.21 53.13 C0.75 45.45 0.75 45.45 -1 38 C-1.1 35.46 -1.14 32.95 -1.13 30.41 C-1.13 29.67 -1.13 28.93 -1.14 28.16 C-1.14 26.6 -1.13 25.03 -1.13 23.47 C-1.13 21.07 -1.13 18.68 -1.14 16.29 C-1.14 14.77 -1.13 13.25 -1.13 11.72 C-1.13 11.01 -1.14 10.3 -1.14 9.56 C-1.12 6.23 -1.03 3.18 0 0 Z " fill="#000002" transform="translate(181,960)"/>
<path d="M0 0 C8.85 3.43 18.91 8.86 23.34 17.65 C24 20 24 20 23 22 C18.17 20.59 14.28 18.57 10 16 C10 15.34 10 14.68 10 14 C9.25 13.83 8.5 13.66 7.73 13.48 C0.87 11.86 -5.54 9.82 -12 7 C-12.19 2.23 -12.19 2.23 -10.5 0.12 C-6.75 -1.56 -3.83 -1.1 0 0 Z " fill="#000002" transform="translate(517,317)"/>
<path d="M0 0 C3.36 1.38 4.61 2.6 6.25 5.81 C10.03 12.22 15.96 15.12 23 17 C25.96 17.27 28.9 17.28 31.88 17.25 C32.64 17.26 33.4 17.27 34.19 17.27 C38.09 17.26 41.55 16.96 45.32 15.92 C48.81 15.05 49.78 14.99 53 16 C41.3 22.29 32.36 25.48 19 23 C11.22 20.39 4.62 15.67 0.56 8.44 C-0.1 5.56 -0.14 2.94 0 0 Z " fill="#000002" transform="translate(307,410)"/>
<path d="M0 0 C0.99 0 1.98 0 3 0 C2.64 5.9 1.24 9.78 -3 14 C-11.2 20.15 -19.73 23.06 -30 22 C-36.31 20.81 -42.51 19.41 -48 16 C-48.33 15.34 -48.66 14.68 -49 14 C-47.36 14.24 -47.36 14.24 -45.68 14.48 C-40.48 15.13 -35.3 15.26 -30.06 15.31 C-29.12 15.34 -28.19 15.37 -27.22 15.4 C-19.37 15.47 -13.25 13.81 -7.25 8.62 C-6.04 7.22 -4.84 5.8 -3.7 4.35 C-2.51 2.86 -1.26 1.43 0 0 Z " fill="#000002" transform="translate(547,412)"/>
<path d="M0 0 C0 1.32 0 2.64 0 4 C-8.42 7.23 -16.94 9.83 -25.62 12.25 C-27.51 12.8 -27.51 12.8 -29.44 13.35 C-36.17 15.23 -42 16.46 -49 16 C-49.33 15.01 -49.66 14.02 -50 13 C-44.98 11.3 -39.97 9.61 -34.95 7.93 C-33.24 7.35 -31.54 6.78 -29.83 6.2 C-27.38 5.37 -24.92 4.55 -22.46 3.72 C-21.33 3.34 -21.33 3.34 -20.17 2.94 C-13.35 0.67 -7.17 -0.12 0 0 Z " fill="#000002" transform="translate(151,1139)"/>
<path d="M0 0 C2.68 1.98 3 3 3.56 6.38 C3.71 7.57 3.85 8.77 4 10 C4.31 10.75 4.62 11.5 4.95 12.28 C6.22 15.57 6.74 18.72 7.29 22.21 C7.4 22.89 7.51 23.58 7.62 24.28 C7.84 25.72 8.07 27.17 8.29 28.61 C8.62 30.8 8.97 32.98 9.32 35.17 C9.54 36.58 9.76 37.98 9.98 39.39 C10.17 40.66 10.37 41.93 10.57 43.23 C11.02 47.22 11.07 50.99 11 55 C7.93 52.49 7.32 50.23 6.5 46.4 C6.25 45.28 6.01 44.15 5.75 43 C5.51 41.8 5.26 40.61 5 39.38 C4.74 38.16 4.48 36.94 4.21 35.69 C-2.36 4.72 -2.36 4.72 0 0 Z " fill="#000002" transform="translate(207,788)"/>
<path d="M0 0 C0.66 0 1.32 0 2 0 C4.29 15.43 5.41 30.4 5 46 C1.67 41.01 0.76 35.31 1.38 29.38 C1.58 28.59 1.79 27.81 2 27 C1.34 26.67 0.68 26.34 0 26 C0.01 25.31 0.02 24.63 0.04 23.92 C0.04 23.02 0.05 22.12 0.06 21.19 C0.07 20.29 0.09 19.4 0.1 18.48 C0.11 15.87 0.11 15.87 -1 13 C-1.09 11.15 -1.13 9.29 -1.12 7.44 C-1.13 6.47 -1.13 5.5 -1.13 4.5 C-1 2 -1 2 0 0 Z " fill="#000002" transform="translate(164,1021)"/>
<path d="M0 0 C0.66 0 1.32 0 2 0 C2.25 0.56 2.5 1.11 2.75 1.69 C3.95 4.08 3.95 4.08 5.81 6.19 C8.65 9.84 11.17 13.74 13 18 C12.67 18.66 12.34 19.32 12 20 C11.45 19.29 10.89 18.58 10.32 17.85 C9.6 16.93 8.87 16.01 8.12 15.06 C7.41 14.15 6.69 13.23 5.95 12.29 C4.21 9.94 4.21 9.94 2 9 C1.37 6.93 1.37 6.93 0.88 4.44 C0.71 3.61 0.54 2.78 0.37 1.93 C0.25 1.3 0.12 0.66 0 0 Z " fill="#543B3C" transform="translate(678,588)"/>
<path d="M0 0 C1.65 0.33 3.3 0.66 5 1 C4.25 5.75 4.25 5.75 2 8 C0.68 8 -0.64 8 -2 8 C-2.69 6.25 -2.69 6.25 -3 4 C-1.56 1.75 -1.56 1.75 0 0 Z " fill="#000002" transform="translate(210,1091)"/>
<path d="M0 0 C2.64 0 5.28 0 8 0 C8 0.33 8 0.66 8 1 C5.36 1 2.72 1 0 1 C0 0.67 0 0.34 0 0 Z " fill="#000002" transform="translate(155,601)"/>
<path d="M0 0 C2.31 0 4.62 0 7 0 C7 0.33 7 0.66 7 1 C4.69 1 2.38 1 0 1 C0 0.67 0 0.34 0 0 Z " fill="#5C4142" transform="translate(112,215)"/>
<path d="M0 0 C0.33 0 0.66 0 1 0 C1 1.65 1 3.3 1 5 C0.67 5 0.34 5 0 5 C0 3.35 0 1.7 0 0 Z " fill="#000002" transform="translate(119,121)"/>
<path d="M0 0 C4 1 4 1 4 1 Z " fill="#000002" transform="translate(789,1126)"/>
<path d="M0 0 C1 4 1 4 1 4 Z " fill="#000002" transform="translate(336,879)"/>
<path d="M0 0 C1 4 1 4 1 4 Z " fill="#5C4142" transform="translate(132,291)"/>
<path d="M0 0 C0.33 0.66 0.66 1.32 1 2 C0.34 1.67 -0.32 1.34 -1 1 C-0.67 0.67 -0.34 0.34 0 0 Z " fill="#000002" transform="translate(651,1201)"/>
<path d="M0 0 C3 1 3 1 3 1 Z " fill="#000002" transform="translate(794,1126)"/>
<path d="" fill="#5C4142" transform="translate(0,0)"/>
<path d="" fill="#000002" transform="translate(0,0)"/>
<path d="" fill="#000002" transform="translate(0,0)"/>
<path d="" fill="#000002" transform="translate(0,0)"/>
<path d="" fill="#000002" transform="translate(0,0)"/>
<path d="M0 0 C0.33 0.66 0.66 1.32 1 2 C0.34 1.67 -0.32 1.34 -1 1 C-0.67 0.67 -0.34 0.34 0 0 Z " fill="#000002" transform="translate(224,86)"/>
<path d="M0 0 C2 1 2 1 2 1 Z " fill="#000002" transform="translate(24,1158)"/>
<path d="" fill="#000002" transform="translate(0,0)"/>
<path d="" fill="#000002" transform="translate(0,0)"/>
<path d="M0 0 C2 1 2 1 2 1 Z " fill="#000002" transform="translate(101,1129)"/>
<path d="M0 0 C2 1 2 1 2 1 Z " fill="#000002" transform="translate(104,1128)"/>
<path d="M0 0 C2 1 2 1 2 1 Z " fill="#000002" transform="translate(784,1126)"/>
<path d="M0 0 C2 1 2 1 2 1 Z " fill="#000002" transform="translate(533,1086)"/>
<path d="" fill="#000002" transform="translate(0,0)"/>
<path d="" fill="#000002" transform="translate(0,0)"/>
<path d="" fill="#000002" transform="translate(0,0)"/>
<path d="" fill="#000002" transform="translate(0,0)"/>
<path d="M0 0 C2 1 2 1 2 1 Z " fill="#000002" transform="translate(692,814)"/>
<path d="M0 0 C2 1 2 1 2 1 Z " fill="#000002" transform="translate(571,813)"/>
<path d="" fill="#000002" transform="translate(0,0)"/>
<path d="M0 0 C2 1 2 1 2 1 Z " fill="#000002" transform="translate(575,811)"/>
<path d="" fill="#000002" transform="translate(0,0)"/>
<path d="" fill="#000002" transform="translate(0,0)"/>
<path d="M0 0 C2 1 2 1 2 1 Z " fill="#000002" transform="translate(705,804)"/>
<path d="" fill="#000002" transform="translate(0,0)"/>
<path d="" fill="#000002" transform="translate(0,0)"/>
<path d="" fill="#000002" transform="translate(0,0)"/>
<path d="" fill="#000002" transform="translate(0,0)"/>
<path d="M0 0 C2 1 2 1 2 1 Z " fill="#000002" transform="translate(735,771)"/>
<path d="M0 0 C2 1 2 1 2 1 Z " fill="#000002" transform="translate(739,768)"/>
<path d="" fill="#000002" transform="translate(0,0)"/>
<path d="" fill="#000002" transform="translate(0,0)"/>
<path d="" fill="#000002" transform="translate(0,0)"/>
<path d="" fill="#000002" transform="translate(0,0)"/>
<path d="" fill="#000002" transform="translate(0,0)"/>
<path d="" fill="#000002" transform="translate(0,0)"/>
<path d="" fill="#000002" transform="translate(0,0)"/>
<path d="" fill="#000002" transform="translate(0,0)"/>
<path d="" fill="#000002" transform="translate(0,0)"/>
<path d="M0 0 C2 1 2 1 2 1 Z " fill="#000002" transform="translate(751,615)"/>
<path d="" fill="#000002" transform="translate(0,0)"/>
<path d="" fill="#000002" transform="translate(0,0)"/>
<path d="M0 0 C2 1 2 1 2 1 Z " fill="#000002" transform="translate(204,597)"/>
<path d="" fill="#000002" transform="translate(0,0)"/>
<path d="" fill="#000002" transform="translate(0,0)"/>
<path d="" fill="#000002" transform="translate(0,0)"/>
<path d="" fill="#000002" transform="translate(0,0)"/>
<path d="" fill="#000002" transform="translate(0,0)"/>
<path d="" fill="#000002" transform="translate(0,0)"/>
<path d="" fill="#000002" transform="translate(0,0)"/>
<path d="" fill="#000002" transform="translate(0,0)"/>
<path d="" fill="#000002" transform="translate(0,0)"/>
<path d="" fill="#000002" transform="translate(0,0)"/>
<path d="" fill="#000002" transform="translate(0,0)"/>
<path d="M0 0 C2 1 2 1 2 1 Z " fill="#000002" transform="translate(141,181)"/>
<path d="" fill="#000002" transform="translate(0,0)"/>
<path d="M0 0 C2 1 2 1 2 1 Z " fill="#000002" transform="translate(193,106)"/>
<path d="M0 0 C2 1 2 1 2 1 Z " fill="#000002" transform="translate(209,96)"/>
<path d="" fill="#000002" transform="translate(0,0)"/>
<path d="M0 0 C2 1 2 1 2 1 Z " fill="#000002" transform="translate(118,89)"/>
<path d="" fill="#000002" transform="translate(0,0)"/>
<path d="" fill="#5C4142" transform="translate(0,0)"/>
<path d="" fill="#000002" transform="translate(0,0)"/>
<path d="" fill="#000002" transform="translate(0,0)"/>
<path d="" fill="#000002" transform="translate(0,0)"/>
<path d="" fill="#000002" transform="translate(0,0)"/>
<path d="" fill="#000002" transform="translate(0,0)"/>
<path d="" fill="#000002" transform="translate(0,0)"/>
<path d="" fill="#000002" transform="translate(0,0)"/>
<path d="" fill="#000002" transform="translate(0,0)"/>
<path d="" fill="#000002" transform="translate(0,0)"/>
<path d="" fill="#000002" transform="translate(0,0)"/>
<path d="" fill="#000002" transform="translate(0,0)"/>
<path d="" fill="#000002" transform="translate(0,0)"/>
<path d="" fill="#000002" transform="translate(0,0)"/>
<path d="" fill="#000002" transform="translate(0,0)"/>
<path d="" fill="#000002" transform="translate(0,0)"/>
<path d="" fill="#000002" transform="translate(0,0)"/>
<path d="" fill="#000002" transform="translate(0,0)"/>
<path d="" fill="#000002" transform="translate(0,0)"/>
<path d="" fill="#000002" transform="translate(0,0)"/>
<path d="" fill="#000002" transform="translate(0,0)"/>
<path d="" fill="#000002" transform="translate(0,0)"/>
<path d="" fill="#000002" transform="translate(0,0)"/>
<path d="" fill="#000002" transform="translate(0,0)"/>
<path d="" fill="#000002" transform="translate(0,0)"/>
<path d="" fill="#000002" transform="translate(0,0)"/>
<path d="" fill="#5C4142" transform="translate(0,0)"/>
<path d="" fill="#000002" transform="translate(0,0)"/>
<path d="" fill="#000002" transform="translate(0,0)"/>
<path d="" fill="#000002" transform="translate(0,0)"/>
<path d="" fill="#000002" transform="translate(0,0)"/>
<path d="" fill="#000002" transform="translate(0,0)"/>
<path d="" fill="#000002" transform="translate(0,0)"/>
<path d="" fill="#000002" transform="translate(0,0)"/>
<path d="" fill="#000002" transform="translate(0,0)"/>
<path d="" fill="#000002" transform="translate(0,0)"/>
<path d="" fill="#000002" transform="translate(0,0)"/>
<path d="" fill="#000002" transform="translate(0,0)"/>
<path d="" fill="#000002" transform="translate(0,0)"/>
<path d="" fill="#000002" transform="translate(0,0)"/>
<path d="" fill="#000002" transform="translate(0,0)"/>
<path d="" fill="#000002" transform="translate(0,0)"/>
<path d="" fill="#000002" transform="translate(0,0)"/>
<path d="" fill="#000002" transform="translate(0,0)"/>
<path d="" fill="#000002" transform="translate(0,0)"/>
<path d="" fill="#000002" transform="translate(0,0)"/>
<path d="" fill="#000002" transform="translate(0,0)"/>
<path d="" fill="#000002" transform="translate(0,0)"/>
<path d="" fill="#000002" transform="translate(0,0)"/>
<path d="" fill="#000002" transform="translate(0,0)"/>
<path d="" fill="#000002" transform="translate(0,0)"/>
<path d="" fill="#5C4142" transform="translate(0,0)"/>
<path d="" fill="#000002" transform="translate(0,0)"/>
<path d="" fill="#000002" transform="translate(0,0)"/>
<path d="" fill="#000002" transform="translate(0,0)"/>
<path d="" fill="#000002" transform="translate(0,0)"/>
<path d="" fill="#5C4142" transform="translate(0,0)"/>
<path d="" fill="#000002" transform="translate(0,0)"/>
<path d="" fill="#000002" transform="translate(0,0)"/>
<path d="" fill="#000002" transform="translate(0,0)"/>
<path d="" fill="#000002" transform="translate(0,0)"/>
<path d="" fill="#000002" transform="translate(0,0)"/>
<path d="" fill="#000002" transform="translate(0,0)"/>
<path d="" fill="#000002" transform="translate(0,0)"/>
<path d="" fill="#000002" transform="translate(0,0)"/>
<path d="" fill="#000002" transform="translate(0,0)"/>
<path d="" fill="#000002" transform="translate(0,0)"/>
<path d="" fill="#000002" transform="translate(0,0)"/>
<path d="" fill="#000002" transform="translate(0,0)"/>
<path d="" fill="#000002" transform="translate(0,0)"/>
<path d="" fill="#000002" transform="translate(0,0)"/>
<path d="" fill="#000002" transform="translate(0,0)"/>
<path d="" fill="#000002" transform="translate(0,0)"/>
<path d="" fill="#000002" transform="translate(0,0)"/>
<path d="" fill="#000002" transform="translate(0,0)"/>
<path d="" fill="#000002" transform="translate(0,0)"/>
<path d="" fill="#000002" transform="translate(0,0)"/>
<path d="" fill="#000002" transform="translate(0,0)"/>
<path d="" fill="#000002" transform="translate(0,0)"/>
<path d="" fill="#000002" transform="translate(0,0)"/>
<path d="" fill="#000002" transform="translate(0,0)"/>
<path d="" fill="#000002" transform="translate(0,0)"/>
<path d="" fill="#5C4142" transform="translate(0,0)"/>
<path d="" fill="#000002" transform="translate(0,0)"/>
<path d="" fill="#5C4142" transform="translate(0,0)"/>
<path d="" fill="#000002" transform="translate(0,0)"/>
<path d="" fill="#5C4142" transform="translate(0,0)"/>
<path d="" fill="#000002" transform="translate(0,0)"/>
<path d="" fill="#000002" transform="translate(0,0)"/>
<path d="" fill="#5C4142" transform="translate(0,0)"/>
<path d="" fill="#000002" transform="translate(0,0)"/>
<path d="" fill="#000002" transform="translate(0,0)"/>
<path d="" fill="#000002" transform="translate(0,0)"/>
<path d="" fill="#000002" transform="translate(0,0)"/>
<path d="" fill="#000002" transform="translate(0,0)"/>
<path d="" fill="#000002" transform="translate(0,0)"/>
<path d="" fill="#000002" transform="translate(0,0)"/>
<path d="" fill="#000002" transform="translate(0,0)"/>
<path d="" fill="#000002" transform="translate(0,0)"/>
<path d="" fill="#5C4142" transform="translate(0,0)"/>
<path d="" fill="#000002" transform="translate(0,0)"/>
<path d="" fill="#5C4142" transform="translate(0,0)"/>
<path d="" fill="#000002" transform="translate(0,0)"/>
<path d="" fill="#000002" transform="translate(0,0)"/>
<path d="" fill="#000002" transform="translate(0,0)"/>
<path d="" fill="#000002" transform="translate(0,0)"/>
<path d="" fill="#000002" transform="translate(0,0)"/>
<path d="" fill="#000002" transform="translate(0,0)"/>
<path d="" fill="#000002" transform="translate(0,0)"/>
<path d="" fill="#000002" transform="translate(0,0)"/>
<path d="" fill="#000002" transform="translate(0,0)"/>
<path d="" fill="#000002" transform="translate(0,0)"/>
<path d="" fill="#000002" transform="translate(0,0)"/>
<path d="" fill="#000002" transform="translate(0,0)"/>
<path d="" fill="#000002" transform="translate(0,0)"/>
<path d="" fill="#5C4142" transform="translate(0,0)"/>
<path d="" fill="#000002" transform="translate(0,0)"/>
<path d="" fill="#5C4142" transform="translate(0,0)"/>
<path d="" fill="#5C4142" transform="translate(0,0)"/>
<path d="" fill="#5C4142" transform="translate(0,0)"/>
<path d="" fill="#5C4142" transform="translate(0,0)"/>
<path d="" fill="#5C4142" transform="translate(0,0)"/>
<path d="" fill="#5C4142" transform="translate(0,0)"/>
<path d="" fill="#5C4142" transform="translate(0,0)"/>
<path d="" fill="#000002" transform="translate(0,0)"/>
<path d="" fill="#000002" transform="translate(0,0)"/>
<path d="" fill="#000002" transform="translate(0,0)"/>
<path d="" fill="#000002" transform="translate(0,0)"/>
<path d="" fill="#5C4142" transform="translate(0,0)"/>
<path d="" fill="#5C4142" transform="translate(0,0)"/>
<path d="" fill="#5C4142" transform="translate(0,0)"/>
<path d="" fill="#000002" transform="translate(0,0)"/>
<path d="" fill="#5C4142" transform="translate(0,0)"/>
<path d="" fill="#000002" transform="translate(0,0)"/>
<path d="" fill="#5C4142" transform="translate(0,0)"/>
<path d="" fill="#5C4142" transform="translate(0,0)"/>
<path d="" fill="#000002" transform="translate(0,0)"/>
<path d="" fill="#000002" transform="translate(0,0)"/>
<path d="" fill="#000002" transform="translate(0,0)"/>
<path d="" fill="#000002" transform="translate(0,0)"/>
<path d="" fill="#000002" transform="translate(0,0)"/>
<path d="" fill="#000002" transform="translate(0,0)"/>
<path d="" fill="#000002" transform="translate(0,0)"/>
<path d="" fill="#000002" transform="translate(0,0)"/>
<path d="" fill="#000002" transform="translate(0,0)"/>
<path d="" fill="#000002" transform="translate(0,0)"/>
<path d="" fill="#000002" transform="translate(0,0)"/>
<path d="" fill="#000002" transform="translate(0,0)"/>
<path d="" fill="#000002" transform="translate(0,0)"/>
<path d="" fill="#000002" transform="translate(0,0)"/>
<path d="" fill="#5C4142" transform="translate(0,0)"/>
<path d="" fill="#000002" transform="translate(0,0)"/>
<path d="" fill="#000002" transform="translate(0,0)"/>
<path d="" fill="#000002" transform="translate(0,0)"/>
<path d="" fill="#000002" transform="translate(0,0)"/>
<path d="" fill="#000002" transform="translate(0,0)"/>
<path d="" fill="#000002" transform="translate(0,0)"/>
<path d="" fill="#000002" transform="translate(0,0)"/>
</svg>
