<?xml version="1.0" encoding="utf-8"?>
<!-- Generator: Adobe Illustrator 23.0.1, SVG Export Plug-In . SVG Version: 6.00 Build 0)  -->
<svg version="1.1" id="Layer_1" xmlns="http://www.w3.org/2000/svg" xmlns:xlink="http://www.w3.org/1999/xlink" x="0px" y="0px"
	 viewBox="0 0 864 864" style="enable-background:new 0 0 864 864;" xml:space="preserve">
<style type="text/css">
	.st0{fill:#050505;}
</style>
<g>
	<g>
		<path class="st0" d="M188.1,377.12l-12.44-2.76c0.51-0.98,0.83-1.63,0.9-1.79c1.1-2.32,0.11-5.08-2.21-6.18
			c-2.3-1.1-5.07-0.12-6.18,2.21c-3.2,6.75-14.26,25.2-26.91,29.39c-4.41,1.45-8.61,1.08-12.82-1.16
			c-20.54-10.9-11.41-36.1-6.53-46.43c0.05-0.09,0.35-0.77,0.39-0.86c0.92-2.33-0.3-4.68-2.6-5.68c-2.31-1.02-5.11,0.3-6.18,2.57
			c-12.53,26.53-8.58,48.44,10.57,58.6c3.92,2.08,7.93,3.12,12.01,3.12c2.68,0,5.38-0.45,8.1-1.35
			c10.08-3.34,18.42-12.48,24.12-20.49l8.07,9.58c0.92,1.09,2.23,1.65,3.55,1.65c1.06,0,2.12-0.36,2.99-1.09
			c1.96-1.65,2.21-4.58,0.55-6.54l-4.45-5.28l7.07,1.57c0.34,0.07,0.68,0.11,1.01,0.11c2.13,0,4.05-1.47,4.53-3.64
			C192.18,380.15,190.61,377.67,188.1,377.12z"/>
	</g>
	<g>
		<g>
			
				<ellipse transform="matrix(0.9445 -0.3284 0.3284 0.9445 -126.2032 29.1093)" class="st0" cx="23.07" cy="388.14" rx="19.61" ry="23.13"/>
		</g>
	</g>
	<g>
		<g>
			<path class="st0" d="M284.29,248.3c0.57-0.84-1.34-27.94,9.16-34.03c10.5-6.09,38.31,7.4,38.79,19.93s-27.46,30.17-32.44,29.18
				C294.82,262.38,284.29,248.3,284.29,248.3z"/>
		</g>
	</g>
	<g>
		<path class="st0" d="M557.65,397.77c-0.52-4.16-6.14-21.03-1.46-22.07c4.68-1.04,11.68,19.12,11.68,19.12s16.85-6.48,18.67-4.14
			c1.82,2.34-12.26,13.66-12.26,13.66s14.25,10.23,13.73,13.87c-0.52,3.64-21.27-5.99-21.27-5.99s-9.62,19.14-12.21,16.54
			c-2.59-2.6,2.42-20.09,2.42-20.09s-18.72,0.35-18.7-3.46C538.27,400.79,557.65,397.77,557.65,397.77z"/>
	</g>
	<g>
		<path class="st0" d="M607.58,360.87c-0.28-2.24-3.3-11.31-0.79-11.86c2.52-0.56,6.28,10.28,6.28,10.28s9.06-3.48,10.04-2.22
			c0.98,1.26-6.59,7.35-6.59,7.35s7.66,5.5,7.39,7.46c-0.28,1.96-11.44-3.22-11.44-3.22s-5.17,10.29-6.57,8.89
			c-1.4-1.4,1.3-10.8,1.3-10.8s-10.07,0.19-10.06-1.86C597.16,362.5,607.58,360.87,607.58,360.87z"/>
	</g>
	<g>
		<circle class="st0" cx="633.19" cy="402.34" r="14.09"/>
	</g>
	<g>
		<circle class="st0" cx="610.53" cy="437.5" r="8.49"/>
	</g>
	<g>
		<circle class="st0" cx="553.88" cy="358.25" r="9.26"/>
	</g>
	<g>
		<circle class="st0" cx="255.22" cy="281.92" r="9.26"/>
	</g>
	<g>
		<circle class="st0" cx="276.84" cy="306.81" r="7.98"/>
	</g>
	<g>
		<circle class="st0" cx="311.69" cy="305.36" r="12.21"/>
	</g>
	<path class="st0" d="M843.04,471.47c-8.65-8.42-20.54-17.02-32.92-23.98c4.14-3.59,7.55-8.25,10.05-14.16
		c2.67-6.29,3.48-16.45-7.78-29.13c-17.77-20.01-56.38-35.75-70.15-31.73c-8.67,2.52-21.12,17.1-27.19,26.65
		c-2.74,4.31-8.94,6.7-14.46,7.95c-5.58-15.02-14.61-32.15-32.03-50.36c2.04-1.34,4.03-2.7,5.92-4.06
		c12.94-9.39,28.5-23.67,29.1-38.4c0.52-12.85-10.27-27.83-28.88-40.08c-17.33-11.41-41.45-19.77-56.2-12.68
		c-15.06,7.23-21.35,30.13-24.32,48.91c-30.71-9.73-63.96-11.35-94.87-3.67c-0.32-5.3-1.55-12.43-5.73-14.97
		c-1.98-1.2-4.32-1.21-6.43-0.02c-4.16,2.34-11.18,11.46-20.89,27.09c-2.49-5.38-5.58-8.67-9.21-9.78
		c-2.14-0.66-5.51-0.84-9.35,2.05c-2.03,1.53-8.16,6.15-17.75,35.1c-14.7,15.61-27.33,34.74-35.71,48.79
		c0.19-20.38-5.46-48.37-20.51-73.45c-10.48-17.47-22.78-31.94-37.49-44.09c11.63-10.87,27.37-28.73,25.7-44.57
		c-1.35-12.79-14.21-26.05-34.4-35.47c-18.81-8.77-43.86-13.53-57.44-4.38c-10.06,6.78-15.55,21.48-16.72,44.87
		c-0.35-0.09-0.7-0.18-1.06-0.27c-4.26-1.07-8.7-1.9-13.27-2.56c0.11-0.32,0.26-0.66,0.37-0.98c5.26-15.1,9.87-35.71,1.94-48.14
		c-6.91-10.84-24.33-16.99-46.62-16.39c-20.75,0.54-45.29,7.46-53.36,21.71c-8.16,14.41-0.44,36.54,7.78,53.6
		c-2.25,0.76-4.5,1.56-6.72,2.39c-39.66,14.9-66.95,38.84-74.89,65.7c-10.18,34.44-40.79,54.48-50.71,56.28
		c-8.35,1.52-11.26,18.53-11.96,23.71c-4.34,32.3,6.95,77.85,53.02,99.92c26.19,12.54,63.01,25.5,95.49,36.93
		c5.71,2.01,11.55,4.07,17.31,6.12c-8.61,1.92-17,3.29-24.98,4.03c-9.5,0.87-19.73-0.17-29.63-1.19
		c-25.15-2.57-51.16-5.25-60.15,25.99c-2.96,10.3-1.02,20.36,5.62,29.09c9.87,12.98,28.83,21.81,49.8,27
		c-1.63,1.98-3.13,4.06-4.44,6.23c-6.55,10.84-7.58,22.14-2.9,31.84c16.46,34.14,59.83,40.37,125.42,18.01
		c39.48-13.46,65.83-29.74,73.49-34.78c5.84,3.96,22.63,14.45,48.55,23.26c17.83,20.52,24.74,22.39,27.03,23
		c4.58,1.24,7.61-0.13,9.35-1.5c2.79-2.19,4.43-6,4.9-11.34c0.75,0.11,1.5,0.22,2.25,0.33c20.59,14.89,25.65,15.56,27.33,15.78
		c0.32,0.04,0.63,0.06,0.94,0.06c1.9,0,3.62-0.78,4.81-2.21c2.16-2.59,2.15-6.78,1.37-10.86c14.54,0.25,28.53-0.61,42.62-2.63
		c89.09-12.73,114.59-50.15,120.57-62.15c10.11,3.58,40.58,13.57,73.13,16.4c11.68,8.87,20.09,13.41,25.69,13.88
		c4.67,0.4,7.4-1.45,8.86-3.07c2.31-2.55,3.27-6.44,2.88-11.58c0.89-0.12,1.78-0.26,2.67-0.41c22.58,10.77,27.63,10.51,29.29,10.43
		c2.48-0.12,4.48-1.42,5.49-3.57c2.47-5.25-1.97-13.7-5.01-18.5c38.17-24.69,55.48-80.18,59.77-96.08c11.36,3.8,42.8,11.8,60.2-8.87
		C860.58,506.58,865.56,493.39,843.04,471.47z M721.56,403.26c6.84-10.75,17.72-21.89,22.83-23.38c10.03-2.9,45.9,11.08,62.21,29.44
		c6.89,7.76,9.06,14.81,6.44,20.98c-2.5,5.89-5.97,10.3-10.34,13.24c-19.86-9.92-39.62-14.75-48.29-7.05
		c-5.25,4.67-9.34,9.38-12.94,13.54c-5.06,5.85-9.06,10.47-12.83,10.64c-2.54,0.08-5.9-1.77-10.06-5.78
		c-5.68-5.47-8.12-14.46-11.22-25.85c-1.23-4.54-2.59-9.46-4.26-14.65C709.67,412.8,717.51,409.63,721.56,403.26z M621.83,268.45
		c10.25-4.93,30.24,0.08,48.6,12.17c16.08,10.59,25.82,23.35,25.41,33.31c-0.36,8.8-9.11,19.99-24.62,31.51
		c-2.73,2.03-5.5,3.88-8.27,5.66c-1.79-1.72-3.63-3.44-5.58-5.18c-16.24-14.43-35.34-25.52-55.76-32.97
		C604.23,295.78,609.65,274.29,621.83,268.45z M148.1,195.06c5.61-9.9,24.86-17.21,46.83-17.79c19.26-0.52,34.54,4.41,39.9,12.82
		c4.73,7.42,3.95,21.6-2.2,39.92c-0.47,1.41-1.01,2.77-1.52,4.15c-23.23-2.06-49.35,0.8-74.49,8.31
		C149.06,226.96,141.53,206.66,148.1,195.06z M67.71,589.14c-5.18-6.8-6.64-14.3-4.34-22.27c5.01-17.4,15.61-21.8,31.78-21.8
		c5.96,0,12.68,0.6,20.15,1.36c10.27,1.05,20.88,2.14,31.12,1.19c11.77-1.09,24.36-3.53,37.26-7.04
		c17.73,6.49,32.52,12.39,36.14,15.67c-5.04,10.05-36.93,41.61-64.44,42.55c-13.65,0.47-27.43,6.38-37.79,15.59
		C94.85,609.32,76.17,600.26,67.71,589.14z M849.69,507.52c-17.37,20.65-55.1,5.33-55.48,5.17c-1.05-0.44-2.24-0.39-3.25,0.13
		c-1.01,0.52-1.74,1.46-2,2.57c-0.17,0.72-17.1,72.38-60.72,97.53c-0.96,0.55-1.63,1.49-1.85,2.57c-0.22,1.08,0.03,2.21,0.69,3.09
		c4.14,5.54,6.18,10.72,6.53,13.1c-2.47-0.4-9.12-2.24-25.51-10.12c-0.75-0.36-1.61-0.46-2.42-0.31c-2.26,0.44-4.58,0.73-7.27,1.06
		c-1.06,0.13-2.02,0.69-2.65,1.55c-0.63,0.86-0.88,1.94-0.68,2.99c0.97,5.21,0.4,8.08-0.46,9.03c-0.43,0.47-1.25,0.66-2.49,0.55
		c-2.34-0.2-8.38-2.15-22.53-13c-0.59-0.45-1.29-0.72-2.03-0.79c-38.33-3.14-75.24-17.14-75.61-17.28
		c-0.98-0.38-2.08-0.33-3.03,0.12c-0.96,0.45-1.69,1.27-2.02,2.27c-0.15,0.46-16.79,46.43-115.91,60.59
		c-15.29,2.18-30.48,2.98-46.42,2.42c-1.3-0.05-2.46,0.53-3.22,1.54c-0.76,1.01-0.98,2.32-0.59,3.52c1.23,3.78,1.51,6.42,1.46,7.83
		c-2.37-0.84-8.61-3.85-23.42-14.61c-0.51-0.37-1.09-0.61-1.71-0.7l-0.56-0.08c-2.3-0.33-4.6-0.67-6.82-1.06
		c-0.22-0.04-0.45-0.06-0.67-0.06c-0.92,0-1.81,0.33-2.52,0.94c-0.88,0.76-1.37,1.87-1.34,3.03c0.15,5.83-1.03,8.86-2.08,9.69
		c-0.19,0.15-0.76,0.6-2.56,0.12c-2.13-0.58-8.72-3.81-23.88-21.39c-0.45-0.53-1.04-0.92-1.7-1.14
		c-31.32-10.5-49.47-23.92-49.64-24.06c-1.35-1-3.17-1.03-4.54-0.07c-0.28,0.2-28.6,19.9-73.81,35.32
		c-42.78,14.58-97.63,23.98-115.96-14.05c-3.5-7.26-2.6-15.96,2.56-24.48c8.38-13.87,25.7-23.96,42.11-24.52
		c32.32-1.12,68.33-37.97,72-48.99c2.68-8.03-10.25-13.43-71.7-35.05c-32.3-11.37-68.91-24.25-94.72-36.61
		c-43.53-20.85-49.06-61.68-49.42-78.27c-0.4-18.7,4.64-29.79,6.4-30.78c14.2-2.58,46.21-26.05,56.74-61.7
		c15.84-53.63,113.88-85.42,175.48-70.03c1.26,0.32,2.48,0.65,3.7,0.99l1.91,0.53c1.15,0.31,2.37,0.08,3.32-0.63
		c0.95-0.71,1.53-1.82,1.55-3.01c0.54-22.92,5.21-37.98,13.49-43.57c9.43-6.35,29.93-4.31,49.85,4.98
		c17.45,8.14,28.94,19.36,29.98,29.27c1.06,10.08-8.85,25.42-26.52,41.05c-0.86,0.76-1.34,1.87-1.3,3.01s0.58,2.22,1.49,2.93
		c15.55,12.13,28.36,26.8,39.19,44.84c21.59,35.98,22.06,76.49,16.25,89.07c-0.88,1.92-0.07,4.19,1.84,5.1
		c1.91,0.92,4.19,0.14,5.13-1.75c0.2-0.4,20.21-40.09,45.84-67.04c0.39-0.42,0.69-0.91,0.87-1.46
		c8.11-24.72,13.42-30.73,15.33-32.16c1.5-1.13,2.2-0.91,2.43-0.84c1.4,0.43,3.78,3.11,5.89,9.24c0.37,1.08,1.2,1.94,2.26,2.35
		c1.07,0.41,2.26,0.33,3.26-0.22c0.98-0.54,1.98-1.04,2.98-1.53l1.3-0.65c0.64-0.32,1.17-0.81,1.54-1.42
		c9.26-15.03,15.22-22.61,17.99-25.03c0.85,1.87,1.85,6.25,1.64,12.43c-0.04,1.23,0.51,2.41,1.48,3.17
		c0.97,0.76,2.25,1.02,3.44,0.68c52.97-14.96,114.08-0.73,155.69,36.25c34.39,30.58,42.06,58.79,47.66,79.39
		c3.41,12.54,6.1,22.44,13.32,29.39c5.85,5.63,10.85,8.1,15.78,7.93c7.09-0.32,12.05-6.05,18.33-13.3
		c3.44-3.98,7.35-8.49,12.22-12.82c9.74-8.67,53.54,10.82,78.1,34.73C845.39,484.55,857.25,498.53,849.69,507.52z"/>
</g>
</svg>
