<?xml version="1.0" encoding="UTF-8"?>
<!-- Generator: visioncortex VTracer 0.6.3 -->
<svg version="1.1" xmlns="http://www.w3.org/2000/svg" width="1280" height="1280">
<path d="M0 0 C2.62 1.87 2.97 2.87 3.75 6.06 C4 9 4 9 3 11 C3.61 10.78 4.22 10.57 4.84 10.34 C15.43 6.98 27.7 5.86 38.01 10.72 C41.71 13.1 44.03 16.05 46 20 C46.43 26.21 45.45 30.29 43 36 C43.65 36.15 44.29 36.3 44.96 36.45 C53.26 38.77 59.83 42.75 66.97 47.5 C78 55.18 78 55.18 90.87 57.44 C94.6 56.67 97.47 54.87 100.62 52.81 C108.19 48.24 115.46 45.31 124 43 C125.34 42.63 125.34 42.63 126.71 42.26 C149.5 37.13 170.36 43.83 191 53 C192.15 53.5 192.15 53.5 193.32 54 C204.13 58.73 212.49 64.88 221 73 C221.63 73.59 222.26 74.19 222.9 74.8 C255.62 105.85 269.17 148.08 281.04 190.59 C285.64 206.95 290.99 222.91 296.94 238.81 C304.24 258.35 310.84 278.02 316 298.25 C316.2 299.02 316.39 299.79 316.59 300.58 C322.41 324.55 319.68 352.41 307.88 374.19 C292.57 398.92 265.54 413.24 238 420 C214.86 424.42 192.18 420.93 171.16 411 C166.14 408.66 162.55 407.49 157 408 C155.4 416.14 156.83 421.8 159.75 429.44 C168.94 455.25 168.51 480.31 163 507 C163.8 507.07 164.61 507.14 165.44 507.21 C195.5 509.88 221.41 515.38 248.99 528.09 C255.3 530.97 261.56 533.2 268.26 535.04 C272.54 536.54 273.91 537.97 276 542 C276.63 545.03 276.46 546.81 276 550 C274.13 552.43 272.72 553.64 270 555 C259.09 555.98 249.44 553.83 239 551 C239.54 551.63 240.09 552.26 240.64 552.91 C248.46 562.26 251.02 568.76 250 581 C249.08 586.28 247.69 591.46 246.32 596.64 C245.25 600.73 244.22 604.83 243.2 608.94 C242.9 610.13 242.9 610.13 242.59 611.35 C240.93 618.1 239.65 624.87 238.79 631.77 C238.35 635.22 237.82 638 236 641 C230.31 641.4 226.48 640.22 221.56 637.56 C220.88 637.2 220.19 636.84 219.48 636.47 C218.04 635.71 216.6 634.94 215.17 634.17 C213.05 633.03 210.92 631.92 208.79 630.82 C193.73 622.87 181.98 612.95 176.62 596.19 C172.54 581.9 171.61 564.57 178.51 551.04 C183.04 543.46 188.25 538.23 196 534 C189.79 531.46 183.71 529.92 177.12 528.69 C176.2 528.49 175.27 528.3 174.31 528.1 C168.03 526.92 161.96 526.28 156 529 C153.72 531.25 152.49 533.75 151.12 536.62 C150.3 538.18 149.47 539.72 148.64 541.26 C148.21 542.05 147.79 542.84 147.35 543.65 C128.24 576.93 93.21 598.9 56.86 609.08 C44.2 612.48 31.9 614.22 18.8 614.57 C17.98 614.6 17.16 614.63 16.31 614.66 C15.57 614.67 14.84 614.69 14.08 614.71 C11.61 615.05 10.08 615.61 8 617 C3.42 624.11 3.15 632.61 2.75 640.81 C2.71 641.48 2.68 642.14 2.64 642.82 C1.9 656.18 1.79 669.56 1.75 682.94 C1.74 683.92 1.74 684.9 1.73 685.91 C1.72 688.74 1.73 691.57 1.73 694.4 C1.73 695.24 1.73 696.08 1.72 696.94 C1.78 704.56 2.64 711.7 7 718.12 C10.8 724.12 12.97 729.82 12 737 C7.71 747.51 -1.8 755.42 -12.07 759.92 C-27.2 765.5 -43.69 764.42 -59.54 764.28 C-76.09 763.99 -76.09 763.99 -91.37 769.55 C-95.31 771.73 -99.29 772.49 -103.69 773.25 C-104.43 773.4 -105.18 773.54 -105.94 773.7 C-121.12 776.53 -136.34 777.41 -151.75 777.38 C-152.62 777.37 -153.49 777.37 -154.39 777.37 C-175.42 777.32 -199.13 776.26 -215.69 761.62 C-220.99 755.61 -221.41 750.72 -221 743 C-221.71 743.61 -222.41 744.21 -223.14 744.84 C-225.97 746.97 -228.48 748.29 -231.75 749.62 C-233.2 750.23 -233.2 750.23 -234.67 750.85 C-241.97 753.37 -248.74 754.31 -256.44 754.19 C-257.27 754.18 -258.1 754.17 -258.96 754.17 C-263.96 754.11 -268.88 753.84 -273.84 753.22 C-277.56 752.84 -281.26 752.94 -285 753 C-285.35 753.71 -285.7 754.43 -286.07 755.16 C-289.94 762.68 -294.36 770.52 -302.82 773.52 C-317.13 776.67 -333.09 775.15 -347.62 775.13 C-350.93 775.12 -354.25 775.13 -357.56 775.14 C-369.03 775.14 -380.5 775.09 -391.96 774.57 C-393.2 774.52 -393.2 774.52 -394.47 774.46 C-406.61 773.83 -415.12 771.22 -423.62 762.31 C-429.34 755.73 -432.79 749.68 -432.39 740.79 C-431.28 732.79 -428.54 725.34 -425.55 717.88 C-422.98 711.25 -421.3 704.64 -419.88 697.69 C-419.5 695.86 -419.5 695.86 -419.11 693.99 C-414.53 671.16 -413.58 649.2 -414 626 C-415.05 625.5 -416.1 625.01 -417.18 624.5 C-425.1 620.69 -432.45 616.96 -439 611 C-439.69 610.39 -440.37 609.79 -441.08 609.16 C-448.73 601.98 -454.84 593.45 -461 585 C-461.46 584.37 -461.92 583.75 -462.4 583.1 C-481.23 557.21 -492.93 523.06 -494 491 C-494.05 489.99 -494.1 488.98 -494.16 487.94 C-494.87 462.7 -487.33 437.88 -480 414 C-483.62 418.9 -487.22 423.8 -490.59 428.87 C-496.44 437.63 -502.55 445.54 -510 453 C-510.73 453.74 -511.45 454.47 -512.2 455.23 C-525.19 467.62 -542.79 474.78 -560.74 474.75 C-567.47 474.4 -572.82 471.85 -578.63 468.63 C-582.17 466.92 -585.1 466.35 -589 466 C-589 466.66 -589 467.32 -589 468 C-596.89 474.67 -606.31 476.34 -616.34 476.3 C-619.07 475.99 -620.74 475.57 -623 474 C-623.75 470.88 -623.75 470.88 -624 468 C-619.09 466.2 -614.26 465.23 -609.12 464.38 C-608.34 464.24 -607.56 464.11 -606.75 463.97 C-604.83 463.64 -602.92 463.32 -601 463 C-602.17 462.77 -603.34 462.54 -604.54 462.3 C-606.09 461.97 -607.64 461.64 -609.19 461.31 C-609.96 461.16 -610.73 461.01 -611.52 460.86 C-616.68 459.73 -619.63 458.32 -623 454 C-623 451.75 -623 451.75 -622 450 C-618.86 448.95 -616.95 448.96 -613.68 449.12 C-612.65 449.17 -611.62 449.22 -610.56 449.27 C-609.49 449.32 -608.42 449.38 -607.31 449.44 C-606.23 449.49 -605.15 449.54 -604.03 449.6 C-601.35 449.73 -598.68 449.86 -596 450 C-600.84 444.95 -605.66 440.24 -611.37 436.19 C-613 435 -613 435 -615 433 C-615.12 430.38 -615.12 430.38 -615 428 C-606.53 427.31 -602.31 430.87 -596 436 C-596.59 434.83 -597.18 433.66 -597.79 432.46 C-598.54 430.91 -599.3 429.36 -600.06 427.81 C-600.65 426.66 -600.65 426.66 -601.24 425.48 C-604.06 419.68 -604.06 419.68 -603.75 415.95 C-603.38 414.98 -603.38 414.98 -603 414 C-599.76 414.06 -597.07 414.19 -594.41 416.2 C-587.19 424.09 -583 433.81 -583 444.38 C-582.7 449.16 -582.7 449.16 -580.21 453.08 C-577.88 454.67 -575.59 455.87 -573 457 C-572 457.49 -572 457.49 -570.98 457.98 C-559.38 463.02 -547.83 460.72 -536.44 456.31 C-519.03 449.18 -507.74 435.65 -497.18 420.67 C-490.99 411.92 -484.01 404.34 -475.81 397.44 C-470.25 392.63 -466.51 386.79 -462.5 380.69 C-454.26 368.26 -445.61 356.15 -435.21 345.45 C-430.76 340.52 -429.58 336.95 -429.81 330.38 C-429.84 328.86 -429.86 327.34 -429.89 325.83 C-429.91 325.04 -429.93 324.25 -429.95 323.44 C-431.01 274.98 -413.29 243.19 -387 204 C-361.94 166.64 -339.29 128.22 -318.28 88.45 C-300.61 55.01 -282.72 29.5 -244.91 17.33 C-236.74 14.92 -228.53 13.29 -220 13 C-218.59 12.94 -218.59 12.94 -217.15 12.88 C-188.99 12.25 -163.74 25.51 -141 41 C-139.22 42.21 -137.43 43.4 -135.62 44.56 C-134.56 45.28 -134.56 45.28 -133.48 46 C-129.95 47.42 -126.7 47.63 -123 47 C-120.59 45.68 -118.66 44.45 -116.5 42.81 C-102.91 33.32 -86.5 31.02 -70.23 30.44 C-63.25 29.49 -59.54 25.81 -55 20.88 C-43.24 8.66 -17.55 -9.81 0 0 Z M-54.94 31.88 C-60.75 37.05 -68.41 37.41 -75.83 38.63 C-105.39 43.62 -127.36 61.17 -144.62 85.31 C-145.94 87.18 -147.24 89.05 -148.54 90.92 C-150.1 93.15 -151.7 95.34 -153.29 97.54 C-160.21 107.12 -166.34 116.87 -172.03 127.22 C-175.91 134.22 -180.09 140.95 -184.5 147.62 C-185.13 148.59 -185.77 149.55 -186.42 150.53 C-187.05 151.49 -187.68 152.44 -188.33 153.42 C-198.8 169.27 -208.4 185.66 -218.07 202 C-221.97 208.59 -225.9 215.17 -229.86 221.73 C-235.52 231.1 -241.1 240.5 -246.57 249.98 C-247.59 251.75 -248.61 253.5 -249.64 255.26 C-255.34 265.21 -259.87 275.24 -262.69 286.38 C-262.89 287.11 -263.09 287.84 -263.29 288.6 C-266.42 300.68 -267.37 312.75 -267.31 325.19 C-267.31 325.86 -267.31 326.53 -267.31 327.23 C-267.17 356.64 -259.29 381.67 -239.28 403.56 C-237.67 405.38 -236.23 407.28 -234.81 409.25 C-228.55 417.81 -221.07 425.16 -213 432 C-212.46 432.46 -211.91 432.92 -211.35 433.4 C-202.1 441.19 -192.49 447.97 -182 454 C-181.3 454.4 -180.6 454.81 -179.88 455.23 C-160.43 466.3 -139.22 474.45 -117.97 481.36 C-116.22 481.93 -114.49 482.55 -112.77 483.18 C-102.74 485.36 -92.41 483.78 -82.38 482.31 C-81.14 482.14 -79.91 481.96 -78.64 481.78 C-65.69 479.9 -52.84 477.52 -40 475 C-42.83 478.9 -45.56 481.23 -49.69 483.69 C-53.5 485.73 -53.5 485.73 -56 489 C-52.25 491.5 -48.34 491.64 -44 491 C-41.41 490.07 -38.91 488.99 -36.39 487.9 C-33.07 486.65 -30.5 486.53 -27 487 C-23.69 488.5 -23.69 488.5 -21 490 C-20.34 490 -19.68 490 -19 490 C-18.33 491.33 -17.67 492.67 -17 494 C-16.66 494.61 -16.32 495.23 -15.96 495.86 C-14.93 498.16 -14.64 499.93 -14.44 502.44 C-14.33 503.69 -14.33 503.69 -14.21 504.96 C-14.07 506.7 -13.93 508.44 -13.79 510.18 C-13.68 511.42 -13.68 511.42 -13.56 512.69 C-13.5 513.45 -13.44 514.2 -13.38 514.98 C-13.08 517.31 -13.08 517.31 -11 520 C-7.84 520.66 -5.88 520.52 -3.09 518.86 C-0.19 516.59 1.69 514.7 3.19 511.31 C2.83 505.03 0.86 499.18 -3.24 494.38 C-6.22 491.82 -9.02 490.24 -12.56 488.56 C-13.18 488.26 -13.79 487.97 -14.42 487.66 C-17.3 486.27 -20.19 484.91 -23.09 483.57 C-48.86 471.32 -64.89 451.59 -75.22 425.38 C-76.11 422.66 -76.66 419.92 -77.25 417.12 C-78.2 413.4 -78.2 413.4 -80.61 410.56 C-82.71 409.49 -84.76 408.73 -87 408 C-100.13 403.03 -100.13 403.03 -103.81 397.06 C-104.97 394.08 -105.28 392.15 -105 389 C-99.92 388.48 -96.61 389.84 -92.15 392.03 C-87.19 394.27 -82.41 394.22 -77.06 394.25 C-76.26 394.27 -75.47 394.29 -74.64 394.31 C-68.08 394.36 -65.03 392.94 -60.21 388.34 C-59.26 387.35 -58.32 386.37 -57.38 385.38 C-52.4 380.13 -52.4 380.13 -49 379 C-48.55 386.47 -48.25 392.88 -53 399 C-56.39 402.45 -59.98 405.35 -64.06 407.94 C-64.7 408.62 -65.34 409.3 -66 410 C-65.75 416.06 -64.19 420.5 -61.38 425.81 C-61.02 426.51 -60.66 427.2 -60.28 427.92 C-48.75 449.86 -32.87 464.01 -10.4 474.1 C-9.27 474.61 -9.27 474.61 -8.11 475.13 C-6.67 475.77 -5.22 476.4 -3.76 477 C2.83 479.89 7.11 484.37 9.81 491.06 C12.87 500.47 13.3 509.95 9 519 C5.51 524.66 1.49 529.84 -5 532 C-10.25 532.4 -13.55 531.87 -18 529 C-21.49 525.7 -22.64 522.85 -23.05 518.05 C-22.97 514.86 -21.95 512.02 -21 509 C-20.42 505.87 -20.42 505.87 -21 503 C-23.74 499.85 -25.44 499.09 -29.56 498.44 C-33.01 498.72 -33.01 498.72 -35.25 500.75 C-37.45 504.83 -38.29 508.83 -39.19 513.36 C-40 516 -40 516 -43 518 C-45.02 518.35 -45.02 518.35 -47.32 518.49 C-48.58 518.59 -48.58 518.59 -49.87 518.68 C-51.2 518.78 -51.2 518.78 -52.56 518.88 C-62.6 519.74 -71.95 521.11 -79 529 C-82.82 536.16 -84.28 543.95 -83 552 C-81.25 555.71 -79.74 557.58 -76 559.25 C-75.32 559.56 -74.64 559.88 -73.94 560.2 C-70.74 561.52 -68.24 562.12 -64.81 562.06 C-62.93 562.03 -62.93 562.03 -61 562 C-60.6 561.04 -60.6 561.04 -60.19 560.06 C-59 558 -59 558 -56 557 C-51.98 560.63 -49.87 563.94 -47.69 568.88 C-41.37 582.23 -28.25 589.01 -14.71 593.87 C21.65 604.96 54.96 596.88 87.88 579.77 C104.2 571.07 116.01 560.76 127 546 C127.45 545.4 127.9 544.81 128.37 544.19 C144.39 522.91 151.41 498.92 151.38 472.31 C151.37 471.65 151.37 471 151.37 470.32 C151.31 454.02 147.98 440.68 141 426 C138.31 427.27 135.99 428.65 133.64 430.47 C132.69 431.2 132.69 431.2 131.72 431.94 C131.05 432.45 130.38 432.97 129.69 433.5 C124.12 437.73 118.49 441.84 112.69 445.75 C112.06 446.18 111.43 446.61 110.79 447.05 C106.36 450 106.36 450 103 450 C110.38 441.33 118.03 433.76 127.08 426.86 C130.27 424.41 133.23 421.94 136 419 C134.52 413.17 131.45 409 127.94 404.25 C127.35 403.46 126.77 402.66 126.17 401.85 C119.21 390.91 119.21 390.91 109.09 384.52 C105.26 385.12 103.52 386.39 100.5 388.81 C99.47 389.62 98.44 390.44 97.38 391.27 C96.25 392.18 95.12 393.09 94 394 C92.12 395.49 90.24 396.98 88.36 398.47 C87.14 399.43 85.93 400.4 84.72 401.37 C81.93 403.59 79.29 405.59 76 407 C81.32 393.82 92.32 385.35 104 378 C99.39 367.73 86.25 358.07 76.61 352.66 C73.96 351.72 73.96 351.72 71.34 353.02 C70.41 353.61 69.47 354.2 68.5 354.81 C67.46 355.46 66.41 356.11 65.34 356.79 C60.8 359.76 56.34 362.85 51.91 365.98 C44.4 371.18 44.4 371.18 40 372 C46.18 361.37 55.29 354.3 65 347 C55.76 338.65 45.32 337.91 33.46 337.39 C32.68 337.36 31.91 337.32 31.12 337.28 C30.42 337.25 29.73 337.22 29.01 337.19 C26.93 336.99 25.02 336.56 23 336 C23.55 332.16 25.02 330.43 28 328 C35.53 323.32 44.88 324.05 53.34 325.62 C74.53 331.51 92.62 346.2 108.53 360.76 C110.18 362.25 111.85 363.73 113.53 365.18 C122.63 373.07 129.56 382.28 136.46 392.06 C139.44 396.27 142.44 400.27 146 404 C146.66 404 147.32 404 148 404 C169.16 361.59 172.45 318.56 157.38 273.14 C156.15 269.48 154.91 265.82 153.67 262.17 C146.75 241.81 141.64 221.65 137.61 200.52 C137.09 197.83 136.58 195.13 136.06 192.44 C135.89 191.55 135.72 190.66 135.55 189.74 C128.37 152.42 116.43 118.54 93.38 88.06 C92.85 87.36 92.32 86.67 91.78 85.95 C86.63 79.26 80.99 73.53 74.25 68.44 C73.71 68.03 73.18 67.63 72.62 67.21 C71.43 66.31 70.23 65.41 69.02 64.51 C67.58 63.43 66.14 62.35 64.7 61.26 C62.22 59.4 59.74 57.54 57.25 55.69 C56.47 55.1 55.69 54.51 54.89 53.91 C47.75 48.62 40.72 44.04 32 42 C30.85 37.4 31.26 34.33 32.51 29.89 C33.13 27.51 33.29 25.44 33 23 C30.48 20.48 28.79 20.69 25.34 20.62 C15.77 20.64 8.76 22.19 0.1 26.41 C-7.31 29.98 -7.31 29.98 -11.56 30.12 C-14 29 -14 29 -15.39 26.88 C-16.28 22.69 -14.37 20.23 -12.19 16.81 C-11.61 15.87 -11.61 15.87 -11.03 14.91 C-10.03 13.27 -9.02 11.63 -8 10 C-7.67 9.34 -7.34 8.68 -7 8 C-24.33 6.3 -43.28 20.29 -54.94 31.88 Z M-279 49 C-279.66 49.54 -280.31 50.09 -280.99 50.64 C-293.53 61.79 -300.88 79.97 -308.66 94.51 C-309.83 96.68 -311 98.84 -312.18 100.99 C-315.47 107.03 -318.55 113.12 -321.45 119.35 C-335 148.41 -352.64 175.13 -370.46 201.71 C-409.99 259.12 -409.99 259.12 -415.42 327.29 C-414.54 330.71 -413.44 333.77 -412 337 C-411.7 337.67 -411.41 338.33 -411.1 339.02 C-402.37 358.21 -387.95 373.29 -368 381 C-350.44 387.36 -325.6 388.91 -308.25 381.68 C-290.49 373 -290.49 373 -278.62 358.09 C-277.45 354.14 -277.72 350.18 -277.85 346.1 C-277.88 344.15 -277.91 342.2 -277.94 340.25 C-277.97 338.73 -277.97 338.73 -278 337.18 C-278.33 319.78 -278.47 302.95 -274 286 C-273.81 285.23 -273.61 284.46 -273.42 283.67 C-269.8 269.81 -262.9 257.45 -256 245 C-255.45 244.01 -254.91 243.02 -254.34 242.01 C-250.62 235.3 -246.83 228.64 -243 222 C-242.56 221.24 -242.13 220.48 -241.68 219.7 C-236.1 209.98 -230.17 200.52 -224.11 191.09 C-219.48 183.85 -215.22 176.47 -211.08 168.94 C-205.38 158.68 -199.27 148.79 -192.67 139.08 C-188.69 133.18 -185.07 127.1 -181.5 120.94 C-175.86 111.21 -169.66 102.05 -163 93 C-163.53 91 -163.53 91 -165 89 C-168.07 87.67 -168.07 87.67 -171.69 86.81 C-172.89 86.49 -174.09 86.17 -175.32 85.83 C-203.36 79.49 -233.39 91.87 -257.13 106.48 C-263.82 110.76 -270.08 115.5 -276.16 120.62 C-279.57 123.48 -283.06 126.25 -286.56 129 C-287.17 129.48 -287.78 129.96 -288.41 130.46 C-292.76 133.88 -292.76 133.88 -295 135 C-291.28 127.57 -284.33 122.16 -278.11 116.84 C-276.63 115.55 -275.17 114.22 -273.73 112.88 C-251.68 92.33 -220.63 76.02 -190 76.9 C-182 77.29 -174.53 78.67 -167.02 81.39 C-163.46 82.47 -160.72 82.43 -157 82 C-152.83 79.2 -150 75.64 -147.06 71.62 C-144.36 67.99 -141.68 64.49 -138.38 61.38 C-137.2 60.2 -137.2 60.2 -136 59 C-136 58.01 -136 57.02 -136 56 C-138.35 54.33 -140.63 52.91 -143.12 51.5 C-143.88 51.07 -144.63 50.63 -145.41 50.19 C-188.64 25.74 -237.78 11.51 -279 49 Z M96 68 C97.6 72.99 100.54 76.71 103.69 80.81 C104.23 81.52 104.77 82.24 105.33 82.97 C106.88 84.99 108.44 87 110 89 C110.68 89.87 111.36 90.75 112.07 91.65 C117.68 98.45 122.51 101.93 131.38 102.79 C132.97 102.93 134.56 103.07 136.15 103.21 C143.14 103.86 148.76 105.72 155 109 C156.13 109.59 157.26 110.18 158.42 110.79 C181.54 123.27 202.96 142.02 210.83 167.76 C216 185.8 216 185.8 216 194 C215.34 194 214.68 194 214 194 C213.83 193.46 213.65 192.92 213.48 192.36 C202.2 157.77 182.01 134.07 150.12 117 C149.26 116.53 148.39 116.06 147.5 115.58 C140.44 111.9 134 109.85 126 110 C128.52 119.27 132.09 128.12 135.66 137.02 C141.79 152.35 146.22 167.59 149.03 183.87 C149.74 188.01 150.5 192.16 151.25 196.3 C151.39 197.13 151.54 197.95 151.7 198.81 C155.72 221.18 160.92 242.7 168.08 264.28 C172.3 277.07 175.89 289.68 178 303 C178.26 304.61 178.26 304.61 178.53 306.26 C179.02 310.2 179.16 314.07 179.17 318.03 C179.17 319.16 179.17 319.16 179.18 320.31 C179.18 321.9 179.19 323.49 179.19 325.08 C179.19 327.47 179.21 329.85 179.22 332.23 C179.28 348.35 177.44 363.62 171.56 378.78 C171.09 380.01 170.61 381.23 170.12 382.5 C169.67 383.6 169.22 384.71 168.76 385.84 C167.83 389.72 168.17 391.47 170 395 C186.4 407.71 212.43 408.39 232 407 C237.66 406.14 242.73 404.22 248 402 C249.34 401.47 250.69 400.95 252.03 400.43 C271.19 392.74 289.41 380.4 298.19 361.02 C314.53 320.07 296.5 276.54 281.31 238.06 C275.95 224.46 271.48 210.81 267.53 196.74 C252.92 140.91 252.92 140.91 221.7 93.7 C219.72 91.72 217.8 89.71 215.87 87.69 C214.39 86.17 212.92 84.65 211.44 83.12 C210.75 82.41 210.07 81.7 209.37 80.96 C198.53 70.01 183.87 64.13 169.69 58.69 C169.07 58.45 168.45 58.2 167.81 57.95 C145.46 49.63 114.8 52.3 96 68 Z M-426.37 348.37 C-431.24 353.85 -435.3 359.65 -439.25 365.81 C-439.9 366.82 -440.55 367.82 -441.22 368.86 C-458.2 395.36 -469.7 422.08 -476 453 C-476.17 453.8 -476.33 454.6 -476.5 455.43 C-480.36 474.92 -481.54 496.76 -476 516 C-475.75 516.87 -475.5 517.73 -475.25 518.62 C-468.6 541.24 -458.91 561.95 -445 581 C-444.55 581.62 -444.1 582.24 -443.64 582.88 C-438.33 590.18 -432.48 596.78 -426.12 603.19 C-425.49 603.82 -424.86 604.46 -424.21 605.12 C-420.86 608.41 -418.15 610.51 -414 613 C-413.01 608.71 -412.02 604.42 -411 600 C-409.68 600 -408.36 600 -407 600 C-398.75 639.98 -397.67 682.98 -413.08 721.62 C-414.12 723.89 -414.12 723.89 -414 726 C-413.06 725.99 -413.06 725.99 -412.09 725.97 C-405.89 726.19 -402.33 727.41 -397.89 731.76 C-393.48 736.99 -389.97 742.85 -387 749 C-383.77 747.92 -382.47 746.38 -380.69 743.62 C-377.56 739.06 -374.15 736.81 -368.8 735.43 C-363.41 734.56 -359.82 735.22 -355 738 C-351.54 740.99 -349.17 743.99 -347 748 C-346.34 747.32 -345.68 746.64 -345 745.94 C-344 744.95 -343 743.98 -342 743 C-341.13 742.13 -341.13 742.13 -340.24 741.25 C-334.4 735.76 -327.93 731.94 -319.75 731.56 C-313.06 732.34 -309.51 735 -305.39 740.08 C-303.32 742.93 -301.65 745.89 -300 749 C-299.67 749 -299.34 749 -299 749 C-298.59 742.24 -298.4 736.94 -301.93 731.04 C-311.44 712.83 -303.97 685.39 -300.92 666.26 C-298.03 647.97 -295.94 629.64 -294.04 611.22 C-292.84 599.68 -291.4 588.36 -289 577 C-288.67 575.33 -288.33 573.67 -288 572 C-287.34 572.33 -286.68 572.66 -286 573 C-285.18 575.84 -285.18 575.84 -284.44 579.5 C-284.19 580.69 -283.94 581.87 -283.68 583.09 C-282.36 590.65 -281.85 598.03 -281.87 605.69 C-281.87 606.59 -281.87 607.49 -281.86 608.42 C-281.86 610.32 -281.87 612.22 -281.87 614.12 C-281.87 616.96 -281.87 619.81 -281.86 622.66 C-281.86 632.02 -281.93 641.32 -282.91 650.64 C-283.18 653.73 -283.05 655.87 -281.89 658.78 C-274.97 666.9 -260.2 666.91 -250.19 667.72 C-245.54 668.05 -240.9 668.34 -236.25 668.62 C-234.35 668.75 -232.46 668.87 -230.56 668.99 C-227.82 669.17 -225.08 669.35 -222.34 669.52 C-215.89 669.93 -209.44 670.42 -203 671 C-202.89 670.02 -202.78 669.03 -202.66 668.02 C-202.25 664.34 -201.83 660.65 -201.4 656.97 C-201.22 655.38 -201.04 653.79 -200.86 652.21 C-198.28 629.28 -198.28 629.28 -195 626 C-191.32 632.72 -191.2 639.47 -191 647 C-190.97 647.86 -190.95 648.72 -190.92 649.6 C-190.53 663.75 -191.19 677.73 -192.38 691.81 C-192.44 692.57 -192.5 693.33 -192.57 694.12 C-193.28 702.56 -194.18 710.91 -195.62 719.27 C-195.98 721.89 -196.07 724.36 -196 727 C-194.78 727.08 -193.57 727.16 -192.31 727.25 C-188.09 727.81 -186 728.84 -183 732 C-179.67 736.45 -176.94 740.78 -175 746 C-172.28 744.93 -171.04 744.05 -169.25 741.69 C-165.56 737.29 -161.89 734.42 -156.09 733.58 C-150.09 733.42 -144.19 733.73 -139 737 C-137.03 738.89 -135.59 740.76 -134 743 C-133.36 742.3 -132.72 741.6 -132.06 740.88 C-125.64 734.49 -118.59 730.5 -109.5 729.69 C-104.38 730.15 -100.52 731.4 -96.93 735.19 C-94.76 738.34 -93.79 741.13 -92.75 744.81 C-92.41 745.97 -92.08 747.14 -91.73 748.33 C-91.49 749.21 -91.25 750.09 -91 751 C-90.34 750.67 -89.68 750.34 -89 750 C-89.39 744.19 -91.31 739.77 -93.84 734.55 C-98.89 723.42 -95.72 709.23 -93.78 697.61 C-93.21 694.22 -92.68 690.83 -92.14 687.44 C-91.85 685.65 -91.57 683.86 -91.28 682.08 C-89.75 672.52 -88.32 662.95 -86.94 653.38 C-86.81 652.52 -86.69 651.67 -86.56 650.79 C-84.23 634.51 -82.36 618.19 -80.65 601.83 C-79.73 593.15 -78.82 584.55 -77 576 C-76.34 576.33 -75.68 576.66 -75 577 C-74.51 578.96 -74.51 578.96 -74.18 581.53 C-74 582.97 -74 582.97 -73.81 584.43 C-73.68 585.45 -73.56 586.46 -73.44 587.5 C-73.31 588.45 -73.19 589.4 -73.06 590.38 C-71.17 605.37 -70.83 620.48 -70.44 635.56 C-70.39 637.17 -70.35 638.78 -70.31 640.39 C-70.2 644.26 -70.1 648.13 -70 652 C-49.61 648.03 -25.46 641.44 -12.89 623.41 C-8.15 617.12 -8.15 617.12 -6 610 C-7.16 609.64 -8.32 609.27 -9.52 608.9 C-26.82 603.38 -46.18 596.18 -55.46 579.34 C-56.32 577.61 -57.16 575.86 -57.96 574.1 C-58.93 571.85 -58.93 571.85 -61 570 C-63.69 569.96 -66.32 570.01 -69 570.12 C-77.64 570.3 -84.12 569.22 -90.94 563.56 C-96.63 556.49 -96.84 550.93 -96 542 C-93.77 531.56 -89 521.12 -80 515 C-73.13 511.07 -66.73 508.84 -58.75 508.44 C-54.21 508.35 -54.21 508.35 -50 507 C-50 506.34 -50 505.68 -50 505 C-50.85 504.85 -50.85 504.85 -51.72 504.7 C-57.25 503.63 -61.34 502.2 -66 499 C-66.55 498.14 -67.09 497.28 -67.65 496.39 C-69.91 493.6 -69.91 493.6 -73.95 493.48 C-75.55 493.5 -77.16 493.55 -78.76 493.62 C-79.63 493.63 -80.49 493.65 -81.38 493.66 C-84.15 493.71 -86.92 493.79 -89.69 493.88 C-107.34 494.37 -122.98 493.23 -139.81 487.38 C-141.34 486.85 -141.34 486.85 -142.89 486.32 C-152.89 482.82 -162.5 478.67 -172 474 C-173.01 473.5 -174.03 473.01 -175.07 472.49 C-192.95 463.64 -208.1 454.19 -222.52 440.39 C-224.69 438.35 -226.94 436.4 -229.19 434.44 C-237.07 427.35 -243.84 419.54 -249.93 410.88 C-251.82 408.24 -253.8 405.7 -255.81 403.16 C-260.6 397.1 -264.57 390.93 -268 384 C-268.62 382.78 -268.62 382.78 -269.25 381.54 C-270.18 379.7 -271.09 377.85 -272 376 C-273.65 377.04 -275.29 378.08 -276.94 379.12 C-277.95 379.77 -278.97 380.41 -280.01 381.07 C-282.47 382.66 -284.86 384.31 -287.25 386 C-300.72 395.01 -314.84 399.57 -331 399.31 C-332.18 399.3 -333.36 399.29 -334.58 399.28 C-361.73 398.84 -384.93 393.65 -405 374 C-412.04 366.63 -417.26 358.66 -422.29 349.86 C-422.85 348.92 -423.42 347.97 -424 347 C-425.21 346.88 -425.21 346.88 -426.37 348.37 Z M160 517 C160 517.33 160 517.66 160 518 C163.17 518.34 166.33 518.67 169.5 519 C170.39 519.1 171.27 519.19 172.19 519.29 C177.49 519.84 182.67 520.1 188 520 C188 519.67 188 519.34 188 519 C178.57 517.54 169.56 516.71 160 517 Z M188 520 C188 520.33 188 520.66 188 521 C189.65 521 191.3 521 193 521 C193 520.67 193 520.34 193 520 C191.35 520 189.7 520 188 520 Z M193 521 C196.59 523.39 200.32 524.57 204.38 525.94 C210.68 528.09 216.93 530.34 223.14 532.77 C242.59 540.55 242.59 540.55 263 545 C263.99 544.5 263.99 544.5 265 544 C261.02 541.31 257.42 540.22 252.75 539.19 C241.22 536.48 230.26 532.36 219.31 527.88 C206.55 522.55 206.55 522.55 193 521 Z M195.62 548.06 C195.03 548.62 194.44 549.19 193.84 549.76 C189.32 554.22 186.23 558.38 185.81 564.94 C185.87 565.62 185.94 566.3 186 567 C186.44 566.62 186.87 566.25 187.32 565.86 C188.56 564.8 189.81 563.73 191.05 562.66 C192.27 561.62 193.49 560.58 194.7 559.52 C197.13 557.43 198.92 556.03 202 555 C203.32 552.36 203.1 550.32 203.06 547.38 C203.05 546.37 203.04 545.37 203.04 544.34 C203.02 543.57 203.01 542.79 203 542 C200.48 542 197.45 546.27 195.62 548.06 Z M212 544 C212.35 549.82 214.01 552.93 218 557 C220.04 558.78 222.19 560.4 224.38 562 C229.07 565.52 233.61 569.12 238 573 C237.88 567.29 236.32 564.39 232.44 560.25 C227.26 555.47 221.63 551.23 216 547 C215.2 546.4 214.4 545.8 213.57 545.18 C213.05 544.79 212.54 544.4 212 544 Z M203 560 C192.35 571.4 192.35 571.4 186.31 585.38 C187.36 590.92 189.65 595.89 192 601 C195.73 599.76 196.34 598.42 198.5 595.19 C201.95 590.06 201.95 590.06 203.66 587.86 C207.55 582.47 206.38 574.86 205.55 568.61 C205.07 565.73 204.56 562.86 204 560 C203.67 560 203.34 560 203 560 Z M214 563 C214.34 571.9 216.16 579 220.56 586.75 C224.5 590.38 229.23 592.61 234 595 C235.56 589.4 236.08 584.16 233.44 578.88 C228.31 572.83 222.76 567.24 216 563 C215.34 563 214.68 563 214 563 Z M207 594 C203.45 598.24 200.46 602.32 199 607.69 C200.59 612.95 204.44 615.21 209 618 C211.32 619.19 213.54 620.11 216 621 C215.19 616.4 213.89 611.98 212.56 607.5 C212.35 606.75 212.13 606.01 211.9 605.24 C210.77 601.41 209.57 597.68 208 594 C207.67 594 207.34 594 207 594 Z M220 597 C221.15 605.53 223.7 613.07 227 621 C227.66 620.67 228.32 620.34 229 620 C229.59 616.9 229.59 616.9 229.81 613.25 C229.98 611.4 229.98 611.4 230.14 609.52 C229.99 605.66 229.31 604.03 227 601 C223.95 597.95 223.95 597.95 220 597 Z M-16.62 645.56 C-28.87 654.53 -43.37 660.2 -58.44 661.94 C-64.42 662.74 -67.25 663.19 -71 668 C-77.36 678.68 -78.78 691.97 -81 704 C-81.14 704.72 -81.27 705.44 -81.41 706.18 C-84.26 720.55 -84.26 720.55 -80 734 C-79.28 733.26 -78.56 732.51 -77.81 731.75 C-73.5 727.53 -70.01 724.32 -64 723 C-58.68 723.19 -55.68 724.12 -52 728 C-50.17 730.92 -48.55 733.92 -47 737 C-46.01 737 -45.02 737 -44 737 C-42.37 735.36 -42.37 735.36 -40.81 733.25 C-36.6 728.2 -32.13 726.04 -26 724 C-19.98 723.5 -15.81 724.07 -11 728 C-8.52 730.55 -6.22 733.22 -4 736 C-3.34 735.34 -2.68 734.68 -2 734 C-2.27 729.38 -3.59 726.69 -6.38 723.06 C-13.16 714.19 -13.46 707.26 -13.31 696.31 C-13.3 694.89 -13.3 693.47 -13.29 692.05 C-13.18 680.29 -12.43 668.6 -11.44 656.88 C-11.03 651.9 -10.92 647 -11 642 C-13.04 642 -15.12 644.39 -16.62 645.56 Z M-287 674 C-287.65 677.31 -288.3 680.62 -288.94 683.94 C-289.21 685.33 -289.21 685.33 -289.49 686.74 C-291.16 695.4 -292.17 703.75 -292.06 712.56 C-292.06 713.29 -292.05 714.01 -292.05 714.75 C-292.04 716.5 -292.02 718.25 -292 720 C-291.28 719.7 -290.55 719.39 -289.81 719.08 C-284.57 717.07 -279.34 715.6 -273.75 716.56 C-267.94 719.6 -264.54 722.94 -262 729 C-259.01 727.94 -256.81 726.86 -254.25 724.94 C-250.61 722.77 -248.11 722.42 -243.95 722.18 C-241.92 722.11 -241.92 722.11 -240 721 C-240.33 720.14 -240.65 719.28 -240.99 718.39 C-243.25 710.82 -242.24 702.37 -241.22 694.61 C-240.89 690.74 -240.96 686.88 -241 683 C-242.02 682.86 -242.02 682.86 -243.07 682.71 C-257.97 680.61 -272.49 678 -287 674 Z M-212.75 679.31 C-213.47 679.53 -214.18 679.74 -214.92 679.96 C-218.96 681.2 -222.52 682.52 -226 685 C-227.93 688.85 -227.82 693.45 -228.25 697.69 C-228.37 698.67 -228.48 699.65 -228.6 700.66 C-229.35 708.17 -228.6 712.29 -224.21 718.55 C-223.61 719.27 -223 720 -222.38 720.75 C-218.89 724.96 -217.87 727.71 -217.94 733.19 C-217.95 734.09 -217.96 734.99 -217.96 735.92 C-217.98 736.61 -217.99 737.29 -218 738 C-204.42 726.36 -205.28 699.37 -204 683 C-203.98 681 -203.97 679 -204 677 C-206.87 677 -210 678.47 -212.75 679.31 Z M-287 727 C-287.62 730.54 -287.23 732.48 -285.75 735.75 C-283.19 739.04 -281.1 739.85 -276.98 740.41 C-275.92 740.48 -274.85 740.55 -273.75 740.62 C-272.13 740.74 -272.13 740.74 -270.48 740.85 C-269.66 740.9 -268.84 740.95 -268 741 C-268.38 735 -270.1 730.65 -274 726 C-278.92 723.19 -282.57 723.41 -287 727 Z M-69.75 734.88 C-70.53 735.59 -71.31 736.31 -72.11 737.05 C-74.83 739.85 -74.99 740.61 -75.06 744.62 C-75.04 745.74 -75.02 746.85 -75 748 C-67.7 751.65 -58.97 751.13 -51 751 C-51.16 743.86 -54.94 736.06 -60 731 C-64.62 730.38 -66.44 731.75 -69.75 734.88 Z M-254 736 C-254.71 737.65 -255.38 739.31 -256 741 C-254.1 741.08 -252.21 741.14 -250.31 741.19 C-248.73 741.24 -248.73 741.24 -247.11 741.29 C-243.65 740.97 -241.82 739.99 -239 738 C-240.75 734.82 -240.75 734.82 -243 732 C-248.09 731.42 -250.43 732.33 -254 736 Z M-39 742.56 C-40.8 745.66 -41.44 747.56 -42 751 C-28.14 750.04 -28.14 750.04 -15 746 C-13.63 744.15 -13.63 744.15 -13 742 C-14.49 737.94 -16.07 734.97 -20 733 C-27.98 731.59 -34.34 736.42 -39 742.56 Z M-421 738 C-420.86 743.47 -418.61 746.29 -415.01 750.11 C-408.35 756.39 -402.03 757.99 -393 759 C-393.38 750.65 -397.34 742.11 -403.31 736.25 C-406.71 733.7 -409.72 733.25 -413.91 733.52 C-416.99 734.23 -418.84 735.77 -421 738 Z M-201 740 C-201.57 740.4 -202.13 740.79 -202.72 741.2 C-205.25 743.09 -206.83 744.47 -207.81 747.5 C-206.79 750.65 -205.15 752.02 -202.39 753.8 C-195.48 757.27 -187.69 759.28 -180 760 C-180.84 751.52 -182.68 744.79 -188 738 C-193.47 734.36 -196.2 736.45 -201 740 Z M-124.31 746.38 C-127.42 751.21 -129.2 755.25 -129 761 C-114.44 761.63 -114.44 761.63 -101 757 C-98.95 751.53 -100.88 746.2 -103 741 C-105.34 738.66 -105.93 738.66 -109.12 738.56 C-115.64 738.71 -119.88 741.83 -124.31 746.38 Z M-220 740 C-219 742 -219 742 -219 742 Z M-336 750 C-338.95 754.16 -338.95 754.16 -340 759 C-329.77 759 -319.54 759 -309 759 C-309.95 751.38 -310.53 747.99 -316 743 C-323.56 740.2 -330.58 744.73 -336 750 Z M-164 748 C-168.21 754.08 -168.21 754.08 -170 761 C-166.32 761.83 -162.81 762.18 -159.04 762.32 C-157.93 762.36 -156.82 762.4 -155.67 762.44 C-154.52 762.48 -153.37 762.52 -152.19 762.56 C-151.02 762.61 -149.85 762.65 -148.64 762.69 C-145.76 762.8 -142.88 762.9 -140 763 C-138.49 756.75 -139.81 752.08 -142.94 746.62 C-145.03 743.96 -146.61 742.28 -150.02 741.59 C-156.49 741.32 -159.95 742.92 -164 748 Z M-373.64 747.55 C-377.2 751.45 -378.22 753.66 -380 759 C-371.09 759 -362.18 759 -353 759 C-355.08 750.27 -355.08 750.27 -360 744 C-365.6 742.05 -369.4 743.54 -373.64 747.55 Z " fill="#000000" transform="translate(703,257)"/>
<path d="M0 0 C1.3 -0.04 2.59 -0.07 3.93 -0.11 C9.49 0.52 12.49 2.82 15.94 7.12 C19.58 13.76 20.9 20.43 19.07 27.8 C16.46 35.43 12.26 40.01 5.07 43.63 C-1.84 46.44 -8.99 48.04 -16.12 45.19 C-20.78 41.2 -24.01 37.44 -24.62 31.12 C-24.92 22.17 -23.98 15.59 -18.31 8.31 C-12.5 2.16 -8.55 0.16 0 0 Z M-5.31 13.31 C-5.64 14.3 -5.97 15.29 -6.31 16.31 C-4.36 18.72 -4.36 18.72 -0.69 18.44 C0.43 18.4 1.54 18.36 2.69 18.31 C3.02 15.34 3.35 12.37 3.69 9.31 C-0.37 9.31 -2.13 10.89 -5.31 13.31 Z " fill="#000000" transform="translate(659.3125,495.6875)"/>
<path d="M0 0 C5.25 2.62 8.53 6.86 10.77 12.21 C12.78 18.81 12.46 26.04 9.3 32.21 C4.14 39.18 -2.72 41.06 -11.02 42.34 C-17.31 42.57 -22.26 41.74 -27.02 37.34 C-30.5 31.65 -30.98 25.9 -30.02 19.34 C-27.09 10.86 -21.93 4.86 -14.26 0.29 C-9.58 -1.7 -4.8 -1.58 0 0 Z M-11.77 11.46 C-13.99 14.3 -14.71 15.81 -15.02 19.34 C-12.54 19.83 -12.54 19.83 -10.02 20.34 C-5.86 15.93 -5.86 15.93 -4.02 10.34 C-7.71 8.97 -8.57 8.99 -11.77 11.46 Z " fill="#000000" transform="translate(784.015625,495.6640625)"/>
<path d="M0 0 C7.55 5.45 11.34 12.91 13.5 21.81 C14.6 28.66 14.77 35.97 11.91 42.38 C10.09 42.2 10.09 42.2 7.91 41.38 C6.49 39.22 6.49 39.22 5.16 36.32 C4.66 35.25 4.15 34.18 3.63 33.08 C3.36 32.49 3.09 31.9 2.81 31.3 C1.15 27.74 -0.6 24.22 -2.34 20.7 C-2.68 19.99 -3.02 19.28 -3.37 18.55 C-5.01 14.82 -5.01 14.82 -8.09 12.38 C-10.06 12.11 -10.06 12.11 -12.27 12.07 C-13.01 12.03 -13.75 12 -14.5 11.96 C-21.95 13.18 -26.24 18.34 -30.77 23.88 C-31.88 25.21 -32.99 26.53 -34.1 27.85 C-34.87 28.77 -34.87 28.77 -35.65 29.71 C-37.36 31.71 -39.18 33.57 -41.09 35.38 C-42.08 35.05 -43.07 34.72 -44.09 34.38 C-45.57 28.21 -44.51 24.89 -41.52 19.38 C-40.96 18.32 -40.96 18.32 -40.39 17.24 C-34.8 6.91 -28.58 1.29 -16.98 -2.26 C-10.86 -3.41 -5.48 -3.12 0 0 Z " fill="#000000" transform="translate(796.0859375,466.6171875)"/>
<path d="M0 0 C5.96 5.47 9.94 15.32 10.64 23.31 C10.76 27.12 10.6 30.05 8.46 33.25 C6.64 33.03 6.64 33.03 4.46 32.25 C2.96 30.32 2.96 30.32 1.58 27.82 C0.81 26.47 0.81 26.47 0.03 25.1 C-1.01 23.22 -2.05 21.33 -3.09 19.44 C-3.59 18.55 -4.09 17.67 -4.61 16.75 C-5.27 15.53 -5.27 15.53 -5.95 14.29 C-7.94 11.75 -9.46 11.11 -12.54 10.25 C-18.71 9.72 -23.05 11.64 -27.71 15.54 C-31.64 19.22 -34.75 23.07 -37.74 27.55 C-38.13 28.14 -38.52 28.73 -38.92 29.33 C-39.7 30.51 -40.46 31.7 -41.21 32.9 C-42.99 35.61 -44.12 37.09 -47.2 38.26 C-49.54 38.25 -49.54 38.25 -51.54 36.25 C-51.75 25.52 -44.54 14.41 -37.78 6.45 C-27.16 -3.95 -13.05 -8.96 0 0 Z " fill="#000000" transform="translate(671.54296875,471.74609375)"/>
<path d="M0 0 C4.31 3.52 6.41 6.76 8 12 C7.19 14.94 7.19 14.94 6 17 C1.12 16.79 -1.48 15.85 -5.44 12.94 C-9.02 10.43 -11.55 9.04 -15.97 9.42 C-22.75 11.36 -28.18 16.84 -33.18 21.58 C-35.13 23.1 -36.58 23.59 -39 24 C-40.55 18.67 -38.92 16.05 -36.38 11.36 C-32.65 4.98 -27.21 -0.24 -20.05 -2.66 C-12.89 -3.86 -6.32 -3.67 0 0 Z " fill="#000000" transform="translate(669,389)"/>
<path d="M0 0 C4.79 4.18 8.66 9.74 9.18 16.22 C9.19 18.15 9.1 20.07 9 22 C5 20.81 2.88 19.03 0.16 15.91 C-4.03 11.11 -4.03 11.11 -9.55 8.14 C-15.23 7.96 -20.29 9.93 -25.46 12.12 C-28.14 13.05 -30.19 13.16 -33 13 C-33.81 10.88 -33.81 10.88 -34 8 C-30.06 1.57 -24.44 -0.73 -17.38 -2.75 C-10.99 -3.42 -5.63 -3.24 0 0 Z " fill="#000000" transform="translate(775,393)"/>
</svg>
