<?xml version="1.0" encoding="utf-8"?>
<!-- Generator: Adobe Illustrator 25.2.1, SVG Export Plug-In . SVG Version: 6.00 Build 0)  -->
<svg version="1.1" id="Layer_1" xmlns="http://www.w3.org/2000/svg" xmlns:xlink="http://www.w3.org/1999/xlink" x="0px" y="0px"
	 viewBox="0 0 1000 1000" style="enable-background:new 0 0 1000 1000;" xml:space="preserve">
<style type="text/css">
	.st0{fill:none;stroke:#000000;stroke-width:5;stroke-miterlimit:10;}
	.st1{fill:none;stroke:#000000;stroke-width:5;stroke-linecap:round;stroke-miterlimit:10;}
</style>
<path class="st0" d="M282.93,721.49c229.16-259.16,75.51-532.29,75.51-532.29"/>
<path class="st0" d="M737.94,445.2c0,0,65.16-110.71,180.38-100.84c25.49,1.05,62.47,123.95-50.44,173.88
	c-1.09,0.48-1.29,1.98-0.32,2.67c16.78,12.1,55.19,14.66,67.73,147.44c0.55,5.82-3.71,9.78-9.47,8.8
	c-60.4-10.34-154.08,7.16-183.55-100.61c5.38-13.64,139.13,25.05,192.72,81.23"/>
<path class="st0" d="M747.79,476.09c0,0,159.64-121.31,194.83-95.46"/>
<path class="st0" d="M752.15,503.87c0,0,161.22-68.13,181.96-45.51"/>
<path class="st0" d="M752.59,524.14c0,0,107.72-12.71,114.96-3.21"/>
<path class="st0" d="M750.59,547.02c0,0,168.78,20.18,171.3,44.42"/>
<path class="st0" d="M541.25,827.32c0,0,37.28,55.66,73.13,18.6c35.85-37.06-57.76-94.94-100.69-101.86
	c-17,18.36-80.5,151.1-22.24,154.78C546.59,902.32,541.25,827.32,541.25,827.32z"/>
<path class="st0" d="M543.23,837.4c0,0-18.14-81.84-29.54-93.33"/>
<path class="st0" d="M577.61,857.03c0,0-15.13,37.87-43.43,14.38"/>
<path class="st0" d="M386.39,191.3c0,0,47.51-124.14,76.16-103.87s-27.9,108.76-27.9,108.76"/>
<path class="st0" d="M464.11,204.52c0,0,86.16-130.4,5.97-101.04"/>
<path class="st0" d="M504.56,219.7c0,0,81.9-115.51-2.74-93.15"/>
<path class="st0" d="M538.24,236.98c0,0,70.72-86.46-1.72-79.93"/>
<path class="st0" d="M566.24,254.11c0,0,62.12-61.03-0.46-63.55"/>
<path class="st0" d="M591.6,272.28c0,0,44.11-42.47-2.03-51.12"/>
<path class="st0" d="M399.67,311.72c0,0,98.06-29.11,48.86-113.83"/>
<path class="st0" d="M406.83,435.75c0,0,84.37-18.52,84.37-71.97s-91.19-50.23-91.19-50.23"/>
<path class="st0" d="M372.69,579.56c0,0,111.18,24.36,107.34-67.06s-72.98-74.25-72.98-74.25"/>
<path class="st0" d="M327.05,663.28c0,0,93.33,27.45,105.56-12.03c0,0,15.04-61.17-61.9-68.64"/>
<path class="st0" d="M397.92,753.99c0,0-9.5-66.03-72.58-88.2"/>
<path class="st0" d="M509.81,218.7c0,0-9.3,38.86-50.48,37.6"/>
<path class="st0" d="M484.57,386.88c0,0,73.24,10.32,69.86-52.1c-3.38-62.42-57.24-94.76-57.24-94.76"/>
<path class="st0" d="M479.12,517.4c0,0,76.6-8.41,85.91-51.96c9.32-43.55-60.61-78.3-60.61-78.3"/>
<path class="st0" d="M551.33,322.01c0,0,49.95,3,59.11-37.33"/>
<path class="st0" d="M559.91,476.09c0,0,69.41-9.02,62.89-79.36c-6.52-70.34-70.89-74.82-70.89-74.82"/>
<path class="st0" d="M490.2,515.58c0,0,70.59,19.01,60.13,75.85c-10.45,56.84-41.21,84.94-79.9,81.84"/>
<path class="st0" d="M574.75,471.78c0,0,58.76,25.54,51.31,68.65s-76.72,51.01-76.72,51.01"/>
<path class="st0" d="M681.52,353.84c0,0-0.7,48.99-58.36,55.49"/>
<path class="st0" d="M625.23,536.02c0,0,69.3,1.39,68.37-70.58s-71.76-55.34-71.76-55.34"/>
<path class="st0" d="M577.14,584.61c0,0,72.2,44.65,18.17,81.18c-54.04,36.52-81.62-5.19-81.62-5.19"/>
<path class="st0" d="M570.24,677.05c0,0,25.48,22.11,18.29,36.83"/>
<path class="st0" d="M612.98,643.59c0,0,133.72-33.04,28.91-110.12"/>
<path class="st0" d="M728.1,420.95c0,0-6.97,44.28-37.24,47.53"/>
<path class="st0" d="M705.25,461.99c0,0,69.47,38.6-23.73,129.45"/>
<path class="st0" d="M623.16,639.5c0,0,36.19,32.17,27.72,38.55"/>
<line class="st0" x1="753.09" y1="491.56" x2="729.47" y2="512.5"/>
<line class="st0" x1="726.73" y1="521.77" x2="748.64" y2="559.61"/>
<path class="st0" d="M690.86,579.03c0,0,25.19,33.43,19.48,48.37"/>
<path class="st0" d="M100.32,460.99c4.6,70.12,30.05,107.64,33.69,114.76c46.94,91.73,215.92,261.65,470.31,129.68
	c333.5-173.01,6.13-419.74,6.13-419.74S429.68,115.64,244.32,229C122.48,303.51,96,395.02,100.32,460.99z"/>
<path class="st0" d="M432.65,643.59c0,0,89.73,42.69,34.7,108.17"/>
<path class="st1" d="M109.42,514.91c0,0,19.33,20.17,42.56-3.06"/>
<path d="M258.1,397.88c6.27-15.44-0.08-32.6-14.17-38.32c-14.1-5.72-30.6,2.16-36.87,17.6c-6.27,15.44,0.08,32.6,14.17,38.32
	C235.32,421.2,251.83,413.32,258.1,397.88z M217.36,394.32c-1.88-0.57-2.87-2.82-2.2-5.02c0.67-2.2,2.73-3.52,4.62-2.95
	c1.88,0.57,2.87,2.82,2.2,5.02C221.31,393.56,219.25,394.89,217.36,394.32z M238.98,395.07c-5.02-1.52-7.64-7.51-5.86-13.38
	c1.78-5.87,7.29-9.39,12.31-7.87c5.02,1.52,7.64,7.51,5.86,13.38C249.51,393.06,244,396.59,238.98,395.07z"/>
</svg>
