<?xml version="1.0" encoding="iso-8859-1"?>
<!-- Generator: Adobe Illustrator 26.0.3, SVG Export Plug-In . SVG Version: 6.00 Build 0)  -->
<svg version="1.1" id="Layer_33" xmlns="http://www.w3.org/2000/svg" xmlns:xlink="http://www.w3.org/1999/xlink" x="0px" y="0px"
	 width="359.128px" height="421.285px" viewBox="0 0 359.128 421.285" enable-background="new 0 0 359.128 421.285"
	 xml:space="preserve">
<path d="M344.552,227.302c-7.805-7.556-16.424-13.989-26.28-18.72c-7.184-3.449-14.369-6.861-21.923-9.446
	c-1.329-0.455-2.871-0.65-3.797-1.94c0.643-1.808,1.832-3.124,2.829-4.545c7.379-10.507,14.212-21.33,20.113-32.761
	c11.224-21.744,14.949-44.606,10.871-68.733c-1.954-11.56-5.42-22.606-11.994-32.419c-10.283-15.347-25.372-21.263-43.183-20.723
	c-11.499,0.349-21.307,5.615-29.994,12.857c-10.194,8.499-18.065,18.894-24.137,30.673c-0.473,0.918-0.644,2.031-1.815,2.825
	c-1.174-1.147-1.692-2.691-2.404-4.077c-6.538-12.73-13.022-25.488-20.958-37.438c-7.921-11.929-17.34-22.548-29.092-30.716
	C145.31-0.01,126.278-3.822,105.99,4.298c-16.741,6.701-28.106,18.639-33.382,36.175c-4.033,13.408-4.923,27.068-3.761,40.89
	c1.758,20.915,7,40.927,16.221,59.843c0.569,1.167,1.444,2.273,1.246,3.878c-1.824,0.358-3.437-0.539-5.062-0.979
	c-8.721-2.363-17.636-3.341-26.492-1.849c-35.74,6.021-55.883,38.847-54.711,67.175c0.822,19.859,9.802,35.621,26.214,47.013
	c7.136,4.953,14.824,8.844,22.922,11.961c17.846,6.869,36.382,8.746,55.327,7.719c2.915-0.158,5.833-0.264,8.632-0.389
	c0.361,1.116-0.052,1.679-0.357,2.27c-8.281,16.039-13.166,33.047-14.516,51.053c-1.514,20.196,3,38.884,14.232,55.816
	c6.116,9.219,14.284,16.141,24.31,20.814c7.102,3.31,14.528,4.794,22.421,4.124c12.644-1.074,23.252-6.47,32.624-14.722
	c9.928-8.742,18.081-18.918,24.605-30.406c7.628-13.431,13.368-27.692,18.481-42.228c0.462-1.316,0.54-2.881,1.944-4.03
	c0.95,1.342,1.82,2.528,2.644,3.743c11.767,17.332,24.229,34.135,37.981,49.957c13.675,15.733,28.254,30.523,45.051,42.982
	c2.493,1.849,5.027,3.66,7.666,5.288c2.4,1.481,4.799,1.045,6.147-0.807c1.451-1.991,0.886-4.455-1.461-6.333
	c-0.315-0.252-0.662-0.467-0.999-0.691c-13.102-8.735-24.733-19.196-35.657-30.475c-17.903-18.484-33.633-38.726-48.259-59.854
	c-0.451-0.651-1.081-1.231-1.063-2.35c0.495-0.053,0.771-0.147,1.019-0.099c20.657,4.055,40.909,1.64,60.781-4.373
	c14.182-4.292,26.757-11.532,36.606-22.907C364.06,273.199,362.869,245.034,344.552,227.302z M341.438,286.172
	c-6.794,8.186-15.345,14.067-25.136,17.95c-21.962,8.709-44.564,11.533-67.878,6.468c-0.132-0.029-0.263-0.07-0.397-0.08
	c-6.536-0.458-9.68-5.074-12.533-10.119c-0.711-1.256-0.366-1.959,0.677-2.667c6.226-4.225,10.111-10.451,13.872-16.688
	c5.593-9.275,10.036-19.098,13.261-29.47c1.319-4.242,2.381-8.572,4.298-12.632c1.051-2.228,0.351-4.207-1.415-5.351
	c-1.856-1.201-4.028-0.772-5.779,1.174c-1.592,1.77-2.15,4.034-2.836,6.213c-2.227,7.08-4.221,14.243-7.357,21.001
	c-3.866,8.329-7.714,16.672-13.282,24.063c-1.707,2.266-3.456,4.482-6.618,6.021c-1.999-3.302-3.899-6.4-5.761-9.521
	c-5.674-9.508-11.075-19.171-16.402-28.877c-0.95-1.73-1.244-3.01,0.42-4.578c12.014-11.326,18.469-25.705,22.578-41.377
	c2.402-9.166,3.937-18.471,4.904-27.881c0.302-2.936-1.199-5.107-3.614-5.438c-2.507-0.343-4.528,1.194-4.914,4.226
	c-0.905,7.097-1.686,14.202-3.311,21.189c-2.239,9.629-5.12,19.025-9.667,27.847c-2.736,5.308-6.011,10.244-10.158,14.569
	c-0.363,0.378-0.716,0.825-1.458,0.788c-1.009-0.629-1.345-1.84-1.879-2.876c-11.515-22.327-22.058-45.101-31.663-68.317
	c-1.06-2.562-0.894-4.293,0.785-6.556c6.55-8.832,9.844-19.137,12.665-29.6c1.582-5.868,2.625-11.856,3.695-17.835
	c0.095-0.53,0.225-1.064,0.234-1.598c0.045-2.672-1.515-4.625-3.864-4.888c-2.489-0.279-4.518,1.442-4.886,4.256
	c-1.121,8.587-3.121,16.975-5.584,25.266c-1.578,5.315-3.397,10.534-5.952,15.468c-0.424,0.82-0.749,1.747-1.716,2.378
	c-1.155-0.622-1.293-1.877-1.695-2.914c-8.494-21.906-16.05-44.127-22.429-66.745c-0.438-1.554-0.86-3.142-1.554-4.588
	c-0.94-1.959-2.823-2.772-4.682-2.319c-1.997,0.487-3.399,2.356-3.16,4.581c0.157,1.461,0.641,2.892,1.038,4.321
	c3.617,13.007,7.726,25.861,12.075,38.639c0.297,0.874,0.544,1.766,0.829,2.699c-1.266,0.615-1.881-0.34-2.571-0.79
	c-7.968-5.193-15.246-11.162-20.946-18.876c-0.241-0.326-0.464-0.669-0.739-0.964c-1.687-1.81-3.743-2.165-5.396-0.949
	c-1.571,1.155-1.958,2.968-0.895,5.072c1.16,2.299,2.701,4.368,4.416,6.281c6.25,6.972,13.167,13.178,21.14,18.148
	c1.26,0.786,2.457,1.763,3.824,2.271c4.811,1.79,7.081,5.375,8.789,10.105c7.707,21.34,16.798,42.116,26.418,62.66
	c0.62,1.325,1.186,2.676,1.713,3.871c-0.59,0.958-1.313,0.775-1.929,0.702c-19.026-2.251-37.039-7.371-52.793-18.8
	c-1.855-1.345-3.557-2.9-5.357-4.323c-2.242-1.772-4.286-1.89-5.795-0.385c-1.631,1.627-1.5,3.897,0.668,6.057
	c5.006,4.986,10.753,9.009,16.882,12.494c11.054,6.285,23.075,9.758,35.466,12.125c5.042,0.963,10.124,1.754,15.261,1.858
	c1.945,0.039,2.866,0.857,3.665,2.471c7.613,15.367,15.655,30.507,24.251,45.348c0.909,1.57,1.018,2.542-0.749,3.569
	c-15.258,8.862-31.319,15.187-49.212,15.808c-3.919,0.136-7.827-0.027-11.696-0.806c-1.185-0.239-2.413-0.372-3.621-0.367
	c-2.5,0.01-4.112,1.346-4.278,3.385c-0.148,1.815,1.063,3.496,3.287,4.008c4.209,0.97,8.458,1.736,12.798,1.916
	c14.036,0.582,27.354-2.41,40.16-7.979c5.7-2.479,11.288-5.199,16.593-8.438c1.831-1.117,2.74-0.849,3.818,0.964
	c3.383,5.684,6.914,11.28,10.423,16.888c1.233,1.971,1.465,3.969,0.711,6.18c-4.575,13.421-9.48,26.707-15.689,39.48
	c-6.863,14.117-15.678,26.769-27.536,37.186c-7.032,6.177-14.849,10.685-24.243,12.239c-7.725,1.278-15.05,0.279-22.075-3.114
	c-9.124-4.407-16.309-10.975-21.631-19.572c-9.515-15.373-12.946-32.179-11.384-50.044c1.258-14.38,5.082-28.119,11.064-41.256
	c1.402-3.078,3.034-6.026,4.852-8.877c0.724-1.136,1.482-2.278,2.004-3.511c1.694-4.009-0.44-7.54-4.778-7.636
	c-3.365-0.074-6.742,0.262-10.111,0.462c-15.151,0.898-30.243,0.836-45.089-2.904c-11.21-2.823-21.766-7.194-31.502-13.48
	c-22.466-14.506-30.546-39.021-20.658-63.925c7.232-18.212,20.314-30.281,39.421-35.383c8.979-2.397,17.955-1.267,26.879,0.577
	c5.707,1.18,11.18,3.084,16.542,5.338c0.988,0.415,2.003,0.877,3.047,1.024c1.62,0.228,2.908-0.525,3.657-1.989
	c0.672-1.315,0.692-2.846-0.404-3.775c-7.541-6.399-9.623-15.768-13.121-24.28c-7.834-19.063-11.725-39.018-11.76-59.617
	c-0.019-11.137,1.596-22.172,6.375-32.354c8-17.043,21.958-25.962,40.444-27.432c14.101-1.121,26.54,3.743,37.443,12.643
	c10.353,8.451,18.912,18.45,25.973,29.786c8.938,14.351,16.23,29.58,23.991,44.561c0.372,0.719,0.664,1.481,1.056,2.188
	c0.853,1.538,2.125,2.513,3.943,2.274c1.898-0.25,3.388-1.381,3.775-3.23c2.741-13.119,10.927-23.025,19.358-32.725
	c6.287-7.233,13.923-12.617,22.981-16.099c14.552-5.593,37.429,1.059,45.952,16.55c5.154,9.367,8.408,19.255,9.938,29.771
	c3.174,21.826-0.503,42.421-10.75,61.965c-5.849,11.155-12.6,21.709-19.829,31.99c-1.24,1.764-2.516,3.537-3.476,5.456
	c-2.001,3.998-0.89,7.738,2.828,10.223c2.043,1.365,4.355,2.162,6.651,2.938c8.47,2.862,16.489,6.73,24.398,10.843
	c8.479,4.409,15.866,10.315,22.37,17.228C353.568,249.39,353.923,271.13,341.438,286.172z M68.984,226.777
	c1.271,1.885,0.267,4.079-1.903,4.232c-0.234-0.049-0.68-0.034-0.998-0.228c-2.832-1.73-4.797-4.207-5.826-7.334
	c-0.401-1.218,0.082-2.395,1.387-2.972c1.103-0.488,2.152-0.244,2.9,0.65C66.084,222.962,67.648,224.796,68.984,226.777z
	 M97.139,45.036c0.791,2.418,1.434,4.885,2.07,7.096c-0.1,1.548-0.482,2.676-1.836,3.101c-1.525,0.478-2.812-0.129-3.277-1.542
	c-0.795-2.41-1.395-4.9-1.855-7.397c-0.273-1.488,0.578-2.658,2.083-2.988C95.69,43.005,96.724,43.769,97.139,45.036z
	 M260.404,138.968c0.791,2.418,1.434,4.885,2.07,7.096c-0.1,1.548-0.482,2.676-1.836,3.101c-1.525,0.478-2.812-0.129-3.277-1.542
	c-0.795-2.41-1.395-4.9-1.855-7.397c-0.273-1.488,0.578-2.658,2.083-2.988C258.955,136.937,259.989,137.7,260.404,138.968z
	 M27.859,219.426c0.857,1.491-0.604,3.356-2.315,3.378c-2.443,0.031-6.297-5.043-5.621-7.4c0.512-1.785,2.503-2.644,3.77-1.37
	C25.286,215.636,26.734,217.47,27.859,219.426z M97.125,106.489c0.632,1.597,1.066,3.273,1.44,4.455
	c0.043,2.13-0.51,3.459-2.212,3.823c-1.576,0.337-2.508-0.616-2.929-2.05c-0.448-1.529-0.902-3.066-1.191-4.629
	c-0.266-1.436,0.189-2.705,1.695-3.207C95.447,104.376,96.575,105.098,97.125,106.489z M159.791,34.042
	c1.203,1.641,2.106,3.485,2.365,5.51c0.216,1.688-1.083,2.924-2.656,2.819c-0.874-0.037-1.583-0.437-2.017-1.161
	c-0.97-1.617-1.819-3.314-2.162-5.18c-0.244-1.323,0.265-2.396,1.611-2.896C158.105,32.697,159.114,33.119,159.791,34.042z
	 M113.942,166.319c3.642-0.721,6.048,7.644,1.747,8.604c-1.38,0.308-2.306-0.519-2.712-1.787c-0.443-1.385-0.928-2.8-1.05-4.232
	C111.819,167.636,112.553,166.594,113.942,166.319z M183.495,73.584c0.965,1.298,1.378,2.849,1.724,4.267
	c0.052,1.492-0.54,2.45-1.803,2.925c-1.158,0.437-2.129-0.025-2.801-0.933c-0.963-1.3-1.451-2.842-1.667-4.424
	c-0.182-1.337,0.494-2.317,1.754-2.796C181.863,72.183,182.82,72.677,183.495,73.584z M253.343,99.455
	c0.175,0.999-0.252,1.847-1.09,2.436c-0.857,0.602-1.78,0.567-2.669,0.107c-1.418-0.734-3.022-4.458-2.628-6.007
	c0.289-1.135,1.157-1.838,2.31-1.873c0.69,0.014,1.35,0.149,1.822,0.692C252.255,96.153,253.037,97.707,253.343,99.455z
	 M54.098,175.397c-0.378,1.684-2.269,2.5-3.81,1.518c-1.507-0.96-2.56-2.423-3.242-4.031c-0.683-1.61,0.685-3.327,2.424-3.294
	C51.566,169.629,54.551,173.374,54.098,175.397z M212.865,144.581c0.129,0.477,0.253,0.961,0.248,1.455
	c-0.012,1.111-0.834,1.952-1.856,2.265c-1.168,0.358-2.116-0.116-2.819-1.02c-0.895-1.152-1.483-2.785-1.47-4.247
	c0.012-1.316,0.709-2.582,2.058-2.851C211.66,139.657,212.338,142.627,212.865,144.581z M279.377,64.994
	c0.698,1.172,1.126,2.471,1.135,3.829c0.007,1.151-0.547,2.089-1.717,2.479c-1.171,0.391-2.131-0.048-2.86-0.956
	c-0.999-1.245-1.743-3.595-1.124-5.129c0.277-0.687,0.843-1.233,1.524-1.5c0.261-0.102,0.539-0.163,0.824-0.175
	C278.15,63.499,278.9,64.192,279.377,64.994z M140.121,49.322c0.719,1.319,1.425,2.645,0.523,4.128
	c-0.75,1.233-1.928,1.354-3.158,0.881c-1.336-0.513-2.955-3.525-2.735-5.049c0.193-1.344,0.945-2.179,2.38-2.249
	C138.715,47.028,139.456,48.103,140.121,49.322z M85.755,190.44c0.117,1.447-0.898,2.55-2.39,2.596
	c-1.937,0.059-4.051-2.065-4.133-4.154c-0.063-1.608,1.125-2.996,2.556-2.984C83.155,185.909,85.616,188.726,85.755,190.44z"/>
<g>
</g>
<g>
</g>
<g>
</g>
<g>
</g>
<g>
</g>
<g>
</g>
</svg>
