<?xml version="1.0" encoding="UTF-8"?>
<!-- Generator: visioncortex VTracer 0.6.3 -->
<svg version="1.1" xmlns="http://www.w3.org/2000/svg" width="1280" height="1280">
<path d="M0 0 C0.75 2.19 0.75 2.19 1 5 C-0.92 7.95 -3.17 10.16 -5.69 12.62 C-9.04 16.07 -9.18 19.05 -9.56 23.69 C-9.65 24.68 -9.73 25.68 -9.82 26.7 C-9.88 27.46 -9.94 28.22 -10 29 C-8.8 28.9 -7.61 28.79 -6.38 28.69 C-2.96 28.67 -1.2 29.19 1.44 31.38 C4.62 34.63 4.93 35.19 5.31 39.75 C5.25 44.16 3.95 46.66 1 50 C-1.8 51.69 -3.62 51.98 -6.88 52.12 C-11.59 50.43 -14 46.9 -17 43 C-20.12 43.67 -20.12 43.67 -21.17 46.07 C-21.5 46.89 -21.84 47.71 -22.19 48.56 C-22.7 49.8 -22.7 49.8 -23.23 51.07 C-23.48 51.7 -23.74 52.34 -24 53 C-22.89 52.98 -21.78 52.97 -20.63 52.95 C-16.4 52.9 -12.18 52.86 -7.95 52.84 C-6.14 52.82 -4.33 52.8 -2.52 52.77 C13.95 52.54 29.84 54 45.69 58.75 C46.55 59 47.41 59.25 48.3 59.51 C57.37 62.26 66.6 65.63 74.67 70.67 C78.81 73.03 82.37 72.82 87 72 C93.89 69.56 100.4 66.36 106.88 63 C130.86 50.57 160.04 40.58 187.12 47.98 C204.29 54.07 217.11 71.18 224.75 87.19 C228.05 94.42 230.37 101.98 232.64 109.59 C235.14 118.8 235.14 118.8 241 126 C249.67 128.89 260.65 127.04 269.62 126.06 C345.02 117.97 434.94 118.44 497.12 166.68 C498.07 167.44 499.02 168.21 500 169 C500.82 169.66 500.82 169.66 501.65 170.33 C510.91 177.83 519.22 185.98 527 195 C527.7 195.81 527.7 195.81 528.41 196.63 C538.45 208.45 545.11 222.33 550 237 C566.67 234.06 579.93 222.01 590 209 C590.33 208.34 590.66 207.68 591 207 C589.85 206.92 588.69 206.84 587.5 206.75 C578.98 205.61 574.18 201.64 568.66 195.22 C564.46 189.62 564.39 184.87 565 178 C566.26 172.24 568.92 168.18 573 164 C577.7 161.07 582.64 161.43 588 162 C595.11 163.84 599.31 168.89 603 175 C605.35 180.16 606.4 185.39 607 191 C630.4 179.14 630.4 179.14 646 159 C647.81 152.34 647.19 147.24 643.75 141.24 C640.58 137.18 636.55 135.26 632 133 C630.67 132.29 629.34 131.58 628.02 130.86 C624.36 128.88 620.68 126.93 617 125 C617.88 120.12 617.88 120.12 619 119 C628.6 117.56 637.13 121.29 645.38 125.88 C652.85 131.93 658.94 138.19 660.48 148.07 C660.96 158.79 657.87 168.15 650.81 176.25 C649.23 177.86 647.63 179.44 646 181 C645.23 181.76 644.45 182.52 643.65 183.3 C634.91 191.53 625.73 198.08 614.62 202.56 C608.02 205.26 603.97 208.05 600 214 C588.88 230.1 575.08 241.63 556 247 C555.34 247 554.68 247 554 247 C554.3 248.03 554.6 249.06 554.91 250.12 C564.64 283.43 573.37 316.59 574.56 351.46 C574.6 352.62 574.64 353.78 574.69 354.98 C575.08 366.96 575.19 378.93 575.19 390.92 C575.19 394.53 575.21 398.13 575.22 401.74 C575.27 418.87 574.61 435.68 570.81 452.44 C570.49 453.87 570.49 453.87 570.16 455.34 C563.41 484.19 550.17 514.9 529 536 C527.38 537.69 525.78 539.4 524.19 541.12 C523.52 541.83 522.85 542.53 522.17 543.26 C515.93 551.14 512.55 559.49 509.53 569 C505.33 582.17 500.28 594.55 494.02 606.9 C491.61 611.67 489.43 616.51 487.3 621.41 C482.72 631.84 477.59 641.97 472.44 652.12 C466.85 663.14 461.34 674.11 456.59 685.52 C450.06 699.81 437.92 718.63 423.12 725 C413.57 727.84 404.03 727.86 395.02 723.59 C383.92 717.55 378.59 710.14 373 699 C372.61 699.5 372.22 699.99 371.82 700.5 C363.81 710.23 353.89 717.04 341.17 718.41 C330 719 320.54 716.46 312 709 C300.23 695.82 300.36 671.59 301 655 C301.22 652.29 301.55 649.68 302 647 C301.34 647.16 300.69 647.32 300.01 647.49 C296.27 648.12 292.6 648.18 288.82 648.2 C288.02 648.21 287.22 648.22 286.39 648.22 C283.78 648.24 281.17 648.25 278.56 648.25 C277.67 648.25 276.77 648.25 275.85 648.25 C259.4 648.23 243.3 647.27 227 645 C225.76 644.83 224.52 644.66 223.25 644.48 C208.11 642.31 193.33 639.36 178.6 635.24 C177.56 634.94 176.51 634.65 175.44 634.36 C174.53 634.09 173.62 633.83 172.68 633.56 C169.73 632.94 167.01 632.9 164 633 C163.69 633.56 163.39 634.12 163.07 634.7 C160.51 639.41 157.94 644.12 155.37 648.82 C153.25 652.71 151.14 656.6 149.04 660.49 C142 673.48 134.61 685.71 125 697 C124.58 697.49 124.17 697.98 123.74 698.49 C114.28 709.51 104.06 718.89 89.02 720.27 C81.05 720.53 75.65 719.43 69 715 C68.36 714.58 67.73 714.15 67.07 713.72 C61.63 709.57 58.41 703.83 55 698 C54.34 698.28 53.67 698.55 52.99 698.84 C52.11 699.2 51.22 699.56 50.31 699.94 C49.44 700.3 48.57 700.66 47.68 701.03 C39.19 704.11 28.45 704.38 20 701 C-10.09 684.8 -26.19 654.78 -36 623 C-41.16 604.96 -45.45 586.6 -48 568 C-48.11 567.22 -48.22 566.45 -48.33 565.65 C-48.91 560.79 -48.99 556.1 -48.82 551.21 C-47.96 535.7 -47.96 535.7 -54.47 522.28 C-56.92 519.91 -59.46 517.71 -62.12 515.58 C-65.13 513.05 -67.61 510.08 -70.19 507.12 C-80.54 495.8 -92.5 488.36 -106.04 481.41 C-152.24 457.65 -185.13 418.6 -201.95 369.04 C-203.09 365.39 -204.08 361.71 -205 358 C-205.31 356.82 -205.62 355.64 -205.94 354.42 C-210.26 335.83 -210.49 316.01 -210 297 C-209.99 296.2 -209.97 295.41 -209.96 294.59 C-209.45 268.57 -205.25 242.96 -198 218 C-198.63 218.64 -199.26 219.28 -199.91 219.94 C-203.88 223.96 -207.84 227.94 -212.12 231.62 C-218.81 237.39 -224.33 243.24 -229.3 250.55 C-234.75 258.4 -241.71 265.9 -251 269 C-255.97 269.77 -259.89 269.56 -264.12 266.69 C-275.54 257.03 -280.89 240.48 -282.18 226 C-282.45 221.11 -282.43 216.21 -282.38 211.31 C-282.37 210.56 -282.36 209.81 -282.36 209.04 C-281.94 161.79 -263.73 112.28 -231 78 C-230.38 77.32 -229.76 76.64 -229.12 75.93 C-220.3 66.54 -207.06 56.21 -193.73 55.73 C-182.83 55.42 -174 56.22 -164 61 C-163.39 61.28 -162.79 61.57 -162.16 61.86 C-152.5 66.45 -144.3 72.29 -136 79 C-130.58 83.29 -130.58 83.29 -124 85 C-121.51 84.07 -121.51 84.07 -119.06 82.5 C-107.83 75.92 -96.71 70.86 -84.31 66.88 C-82.99 66.44 -81.67 66.01 -80.35 65.58 C-69.09 61.92 -57.75 58.57 -46.14 56.21 C-37.86 54.69 -37.86 54.69 -32 49 C-30.67 46.48 -29.41 43.95 -28.2 41.38 C-26.8 38.59 -25.05 36.34 -23 34 C-21.55 31.09 -21.54 28.22 -21.19 25 C-19.91 14.85 -17.97 7.82 -9.8 1.28 C-6.17 -1.29 -4.32 -0.85 0 0 Z M-8 36 C-7.67 37.65 -7.34 39.3 -7 41 C-6.01 41.33 -5.02 41.66 -4 42 C-4 40.35 -4 38.7 -4 37 C-5.32 36.67 -6.64 36.34 -8 36 Z M79.19 91.62 C73.96 97.84 73.49 104.41 73.62 112.27 C75.09 126.9 84.4 136.76 94.44 146.62 C95.15 147.34 95.86 148.05 96.6 148.78 C100.62 152.77 104.74 156.58 109.03 160.28 C115.2 165.66 121.07 171.37 127 177 C127.54 177.51 128.07 178.01 128.62 178.53 C138.05 187.46 145.65 197.5 153.38 207.87 C162.75 220.45 172.39 232.84 183.25 244.18 C184.59 245.57 185.92 246.97 187.25 248.38 C189.77 251.04 192.32 253.68 194.88 256.31 C195.7 257.18 196.52 258.05 197.36 258.94 C198.15 259.74 198.93 260.54 199.74 261.36 C200.79 262.45 200.79 262.45 201.86 263.56 C203.94 265.28 203.94 265.28 206.65 264.82 C211.11 263.27 213.37 259.77 216 256 C220.18 247.06 222.25 237.04 224.62 227.5 C224.92 226.3 224.92 226.3 225.23 225.07 C236.01 181.42 231.61 123.69 208.88 84.04 C206.74 80.84 204.51 77.92 202 75 C201.54 74.46 201.08 73.92 200.61 73.36 C192.07 63.37 186.24 59.25 173 58 C144.52 56.34 99.2 70.37 79.19 91.62 Z M-24 66 C-23.72 70.57 -23.72 70.57 -21.81 74.59 C-19.46 76.42 -17.13 77.23 -14.31 78.19 C-13.32 78.53 -12.32 78.88 -11.3 79.23 C-10.54 79.48 -9.78 79.74 -9 80 C-9.33 80.66 -9.66 81.32 -10 82 C-14.38 82.97 -16.92 83.36 -21.19 81.94 C-25.58 78.91 -28.29 75.5 -30.56 70.69 C-31.68 67.9 -31.68 67.9 -33.83 67.28 C-36.22 66.97 -37.83 67.2 -40.16 67.79 C-40.97 67.98 -41.79 68.18 -42.62 68.38 C-43.94 68.72 -43.94 68.72 -45.28 69.06 C-46.2 69.29 -47.12 69.52 -48.07 69.76 C-50.03 70.25 -51.99 70.74 -53.95 71.24 C-56.86 71.98 -59.79 72.7 -62.71 73.43 C-72.37 75.84 -81.92 78.49 -91.38 81.61 C-92.21 81.89 -93.05 82.16 -93.91 82.45 C-103.27 85.63 -114.3 89.47 -121 97 C-120.64 97.64 -120.28 98.28 -119.91 98.94 C-115.84 106.51 -115.03 111.19 -117.5 119.5 C-126.11 143.48 -143.22 164.44 -161.16 182.08 C-193.65 214.04 -198.5 254.43 -199.09 298.79 C-199.1 300.79 -199.12 302.8 -199.12 304.81 C-199.13 305.76 -199.13 306.71 -199.14 307.69 C-199.14 308.58 -199.14 309.48 -199.13 310.39 C-199.13 311.19 -199.13 311.98 -199.13 312.8 C-199 314.98 -198.6 316.9 -198 319 C-197.3 318.81 -196.6 318.61 -195.88 318.41 C-190.27 316.87 -184.65 315.39 -179 314 C-179 314.66 -179 315.32 -179 316 C-180.06 316.39 -180.06 316.39 -181.14 316.78 C-184.22 318.09 -186.88 319.69 -189.69 321.5 C-190.64 322.11 -191.59 322.72 -192.57 323.34 C-195.04 324.92 -195.04 324.92 -197 327 C-199.4 345.22 -190.79 365.05 -183 381 C-182.5 382.02 -182.01 383.04 -181.5 384.09 C-174.94 397.42 -167.98 410.15 -159 422 C-158.3 422.94 -157.6 423.88 -156.88 424.85 C-140.74 445.53 -121.13 459.72 -97.74 471.07 C-79.45 479.95 -65.18 493.71 -52 509 C-46.54 515.3 -40.82 521.28 -34.94 527.19 C-34.28 527.85 -33.62 528.52 -32.94 529.2 C-29.01 533.12 -24.97 536.84 -20.78 540.46 C-18.66 542.3 -16.61 544.21 -14.56 546.12 C3.59 562.44 23.73 577.07 48 582 C48.03 581.36 48.05 580.72 48.08 580.06 C48.19 577.1 48.32 574.15 48.44 571.19 C48.48 570.18 48.52 569.18 48.56 568.14 C49.43 547.32 49.43 547.32 53 541 C53.99 540.67 54.98 540.34 56 540 C56.29 543.73 56.58 547.46 56.88 551.19 C56.95 552.18 57.03 553.18 57.11 554.21 C57.35 557.31 57.59 560.41 57.82 563.51 C57.95 565.32 58.08 567.12 58.22 568.93 C59.3 583.37 60.18 597.79 60.78 612.26 C60.83 613.35 60.83 613.35 60.87 614.47 C61.15 621.21 61.42 627.94 61.68 634.68 C62.39 654.97 62.39 654.97 63.98 675.2 C64.06 675.92 64.13 676.64 64.21 677.38 C65.42 687.77 68.5 697.38 76.59 704.38 C81.42 707.65 86.34 707.68 92 707 C105.87 704.09 117.14 688.13 125.04 677.16 C154.37 632.05 170.45 574.92 184.64 523.54 C184.85 522.79 185.06 522.04 185.27 521.26 C186.25 517.73 187.21 514.2 188.15 510.66 C188.48 509.42 188.82 508.19 189.16 506.92 C189.45 505.85 189.73 504.77 190.02 503.66 C191 501.01 191.84 499.76 194 498 C198.36 534.61 184.42 569.82 173.53 604.16 C171.65 610.1 169.81 616.04 168 622 C169.64 623.64 171.67 623.48 173.93 623.8 C174.99 623.95 176.05 624.1 177.14 624.26 C178.3 624.42 179.46 624.58 180.66 624.74 C181.86 624.91 183.06 625.08 184.3 625.25 C188.22 625.8 192.14 626.34 196.06 626.88 C196.73 626.97 197.39 627.06 198.08 627.15 C255.99 635.08 308.77 634.92 366 622 C366.2 619.29 366.41 616.58 366.61 613.87 C366.79 611.47 366.97 609.07 367.15 606.67 C367.64 600.17 368.09 593.68 368.47 587.17 C368.55 585.9 368.63 584.63 368.71 583.32 C368.86 580.88 369 578.44 369.13 576 C369.59 568.56 370.27 561.01 373 554 C373.99 553.34 374.98 552.68 376 552 C376.04 553.09 376.09 554.18 376.14 555.3 C376.74 569.87 377.37 584.43 378 599 C378.06 600.35 378.12 601.7 378.18 603.05 C378.51 610.85 378.86 618.65 379.21 626.46 C379.37 629.96 379.53 633.46 379.68 636.97 C379.42 673.8 379.42 673.8 393.99 706.17 C399.84 711.51 404.5 713.52 412.45 713.3 C422.37 712.12 428.73 704.06 434.56 696.66 C441.65 687.25 446.03 676.52 450.75 665.79 C452.4 662.1 454.17 658.48 456 654.88 C456.31 654.26 456.62 653.64 456.95 653 C458.37 650.18 459.81 647.37 461.25 644.56 C466.96 633.37 472.41 622.13 477.3 610.55 C479.08 606.36 480.89 602.19 482.88 598.09 C487.53 588.5 491.36 578.94 494.62 568.81 C495.13 567.29 495.63 565.76 496.13 564.24 C501.02 549.27 505.58 534.2 510.1 519.11 C512.76 510.27 515.45 501.46 518.35 492.7 C518.6 491.93 518.86 491.16 519.12 490.37 C520.88 485.12 520.88 485.12 522 484 C522.19 494.51 522.27 504.67 520.44 515.05 C519.99 518.08 519.93 520.95 520 524 C548.09 497.28 559.89 446.17 560.94 408.68 C562.56 334.86 560.31 246.8 506.34 190.4 C505.19 189.2 504.05 187.98 502.92 186.76 C485.68 168.69 458.39 151.29 434 146 C433.17 145.81 432.34 145.62 431.48 145.42 C403.47 139.03 374.92 136.83 346.25 136.87 C344.49 136.87 342.73 136.87 340.97 136.86 C337.32 136.86 333.66 136.86 330.01 136.87 C325.37 136.88 320.73 136.87 316.09 136.87 C312.47 136.86 308.85 136.86 305.23 136.87 C303.52 136.87 301.81 136.87 300.1 136.86 C289.68 136.85 279.4 137.22 269 138 C266.4 138.14 263.8 138.23 261.19 138.32 C259.3 138.38 259.3 138.38 257.37 138.44 C256.12 138.48 254.86 138.52 253.56 138.56 C252.25 138.61 250.93 138.65 249.58 138.69 C246.38 138.8 243.19 138.9 240 139 C240.64 147.24 240.64 147.24 241.54 155.46 C244.56 179.76 244.08 203.24 238 227 C237.75 227.99 237.51 228.99 237.25 230.01 C228.3 266 228.3 266 215.75 274.06 C210.33 277.11 205.14 278.26 199 277 C189.82 271.79 182.63 262.53 175.62 254.79 C174.19 253.21 172.73 251.64 171.27 250.08 C158.61 236.48 147.57 221.26 136.81 206.12 C130.22 197.05 122.29 189.13 114.36 181.23 C112.93 179.81 111.51 178.38 110.08 176.95 C105.45 172.32 100.76 167.82 95.79 163.55 C82.79 152.29 71.54 139.53 66 123 C65.76 122.29 65.51 121.59 65.26 120.86 C62.31 110.97 63.66 101.23 68 92 C70.12 88.79 72.43 85.86 75 83 C74.08 80.61 74.08 80.61 70.71 79.72 C69.24 79.23 67.77 78.76 66.3 78.29 C65.51 78.03 64.73 77.77 63.92 77.51 C62.24 76.96 60.56 76.42 58.89 75.89 C56.36 75.08 53.85 74.26 51.33 73.43 C34.32 67.91 18.39 64.81 0.46 64.87 C-1.63 64.88 -3.72 64.87 -5.8 64.86 C-7.15 64.86 -8.5 64.87 -9.85 64.87 C-11.06 64.87 -12.26 64.87 -13.5 64.87 C-17.06 65 -20.48 65.43 -24 66 Z M-219 82 C-219.72 82.64 -220.45 83.28 -221.19 83.95 C-252.54 113.45 -268.72 163.36 -270.2 205.54 C-270.47 221.06 -270.06 241.98 -258.63 253.87 C-256.86 255.29 -256.86 255.29 -253.56 255.38 C-245.79 252.37 -241.77 245.39 -237.08 238.82 C-228.13 226.7 -216.55 216.78 -204.88 207.38 C-194.37 198.7 -184.76 188.97 -175.12 179.36 C-172.88 177.13 -170.63 174.91 -168.38 172.69 C-160.19 164.57 -152.69 156.41 -146 147 C-145.48 146.28 -144.95 145.56 -144.42 144.81 C-143.18 143.08 -141.99 141.33 -140.81 139.56 C-140.4 138.95 -140 138.33 -139.58 137.7 C-129.44 122.38 -129.44 122.38 -127 105 C-130.85 99.07 -136.59 94.46 -142 90 C-143.46 88.75 -143.46 88.75 -144.95 87.47 C-151.52 81.97 -158.3 77.45 -165.88 73.44 C-166.66 73.02 -167.44 72.6 -168.25 72.17 C-187.62 62.28 -203.53 67.98 -219 82 Z M577 175 C575.11 178.78 575.23 182.91 576 187 C579.14 191.46 583.73 193.86 589 195 C591.67 195.33 591.67 195.33 594 195 C596.24 193.21 596.24 193.21 596.08 190.83 C595.41 184.43 594.23 179.85 590.19 174.69 C585.44 171.02 581.62 171.43 577 175 Z M-39 541 C-37.82 552.75 -35.94 564.16 -33.38 575.69 C-33.2 576.48 -33.03 577.27 -32.85 578.09 C-25.78 611.5 -25.78 611.5 -13 643 C-12.61 643.76 -12.21 644.52 -11.8 645.31 C-2.7 662.72 7.87 680.56 27.03 688.21 C32.87 689.76 39.28 689.95 45 687.81 C48.41 685.75 49.34 684.57 51 681 C51.25 678.41 51.33 676.08 51.25 673.5 C51.24 672.8 51.22 672.09 51.2 671.37 C51.07 665.68 50.81 660.01 50.52 654.34 C49.9 641.95 49.67 629.57 49.45 617.17 C49.4 614.31 49.34 611.44 49.28 608.57 C49.27 607.71 49.25 606.85 49.24 605.96 C49.14 601.22 48.78 596.68 48 592 C46.68 591.96 46.68 591.96 45.32 591.92 C14.36 590.46 -11.31 564.87 -32.91 544.74 C-34.89 543.09 -36.69 542.1 -39 541 Z M358.74 635.88 C348.92 639.42 339.06 641.53 328.77 643.26 C327.17 643.54 327.17 643.54 325.54 643.82 C324.59 643.98 323.65 644.14 322.67 644.3 C319.65 645.09 317.53 646.18 315 648 C309.23 658.19 312.7 671.5 314.81 682.5 C314.97 683.31 315.12 684.12 315.28 684.96 C316.7 691.86 318.5 698.77 323.88 703.56 C330.22 706.51 338.34 706.16 344.88 704.08 C353.5 700.01 360.95 693.77 365 685 C367.48 677.05 367.28 668.82 367.21 660.59 C367.19 658.37 367.19 656.16 367.19 653.95 C367.16 647.21 366.93 640.68 366 634 C363.35 634 361.21 634.98 358.74 635.88 Z " fill="#000000" transform="translate(409,273)"/>
<path d="M0 0 C15.89 12.98 26.94 34.1 29.57 54.29 C31.33 71.92 26.48 86.13 15.37 100.05 C13.18 102.55 10.91 104.93 8.57 107.29 C7.93 108.01 7.29 108.73 6.63 109.48 C-4.62 121.1 -23.97 123.15 -39.31 123.57 C-53.72 123.76 -71.38 122.77 -82.92 113.24 C-98.3 97.47 -101.06 77.28 -100.9 56.23 C-100.44 37.23 -93.73 16.15 -79.6 2.53 C-56.91 -15.78 -23.4 -16.44 0 0 Z M-65.43 7.29 C-66.18 7.7 -66.93 8.11 -67.7 8.53 C-77.87 14.67 -84.02 24.04 -87.43 35.29 C-91.53 53.11 -90.95 72.88 -83.68 89.67 C-83.2 90.79 -83.2 90.79 -82.7 91.94 C-79.98 97.85 -76.67 103.27 -71.04 106.78 C-51.37 113.83 -27.89 113.7 -8.31 106.08 C2.58 100.22 10.99 88.84 15.7 77.59 C20.45 59.56 14.51 40.74 5.63 25.06 C-0.87 14.22 -10.01 4.7 -22.43 1.29 C-25.44 0.68 -28.36 0.42 -31.43 0.29 C-32.26 0.24 -33.09 0.19 -33.95 0.14 C-44.82 -0.24 -55.87 2.03 -65.43 7.29 Z " fill="#000000" transform="translate(404.4296875,557.70703125)"/>
<path d="M0 0 C5.55 3.96 10.53 8.5 13.12 14.94 C14.17 21.86 15.33 29.53 12.12 35.94 C6.15 43.88 -1.77 51.92 -11.88 53.94 C-17.8 54.51 -23.17 54.77 -28.25 51.34 C-34.6 45.86 -38.89 40.46 -39.75 32 C-40.41 21.26 -36.96 11.08 -29.88 2.94 C-21.14 -4.16 -9.8 -5.96 0 0 Z M-21.88 10.94 C-22.71 13.94 -22.71 13.94 -21.88 16.94 C-19.71 19.02 -19.71 19.02 -16.88 19.94 C-14.65 19.88 -14.65 19.88 -12.88 18.94 C-11.37 15.92 -11.7 13.25 -11.88 9.94 C-12.54 9.28 -13.19 8.62 -13.88 7.94 C-17.56 7.94 -19.02 8.63 -21.88 10.94 Z " fill="#000000" transform="translate(479.875,523.0625)"/>
<path d="M0 0 C6 4.03 10.03 9.2 11.96 16.19 C13.53 24.9 12.88 33.31 7.96 40.8 C3.03 47.01 -2.82 50.05 -10.54 51.55 C-17.05 52.07 -23.34 49.94 -28.48 45.98 C-34.61 40.08 -36.21 32.81 -36.63 24.53 C-36.55 16.89 -34.54 10.52 -29.6 4.61 C-20.6 -3.76 -10.95 -6 0 0 Z M-16.1 7.73 C-18.57 10.57 -20.09 13.18 -21.6 16.61 C-20.61 18.09 -20.61 18.09 -19.6 19.61 C-16.69 20.19 -16.69 20.19 -13.6 19.61 C-11.3 17.74 -9.92 16.25 -8.6 13.61 C-8.35 10.61 -8.35 10.61 -8.6 7.61 C-9.26 6.95 -9.92 6.29 -10.6 5.61 C-13.77 5.29 -13.77 5.29 -16.1 7.73 Z " fill="#000000" transform="translate(285.6015625,518.390625)"/>
<path d="M0 0 C3.76 2.45 5.28 4.52 6.69 8.75 C7.22 14.65 7.31 19.8 3.69 24.75 C-0.93 28.33 -5.2 28.01 -10.75 27.34 C-14.09 26.57 -16.02 25.28 -18.31 22.75 C-19.77 19.83 -19.52 17.19 -19.56 13.94 C-19.59 12.71 -19.61 11.49 -19.64 10.23 C-19.2 5.52 -17.74 2.93 -14.12 -0.06 C-9.09 -2.19 -4.97 -1.88 0 0 Z M-5.31 6.75 C-8.54 9.45 -8.54 9.45 -9.69 13.38 C-9.52 15.93 -9.52 15.93 -7.31 17.75 C-4.71 17.43 -4.71 17.43 -2.31 16.75 C-2.43 15.27 -2.55 13.79 -2.69 12.31 C-2.79 11.08 -2.79 11.08 -2.9 9.82 C-3.04 9.13 -3.17 8.45 -3.31 7.75 C-3.97 7.42 -4.63 7.09 -5.31 6.75 Z " fill="#000000" transform="translate(346.3125,594.25)"/>
<path d="M0 0 C3.52 2.37 5.79 5.03 7.69 8.81 C8.03 14.07 8.26 17.64 4.69 21.81 C-0.33 25.36 -5.38 25.53 -11.31 24.81 C-15.91 23.01 -18.12 20.2 -20.31 15.81 C-21.16 11.02 -20.78 7.72 -18.56 3.38 C-13.5 -2.39 -6.94 -2.49 0 0 Z M-7.31 7.81 C-9.62 10.53 -9.62 10.53 -8.94 13 C-8.73 13.6 -8.52 14.2 -8.31 14.81 C-6.66 14.81 -5.01 14.81 -3.31 14.81 C-2.63 12.42 -2.63 12.42 -2.31 9.81 C-2.97 9.15 -3.63 8.49 -4.31 7.81 C-5.3 7.81 -6.29 7.81 -7.31 7.81 Z " fill="#000000" transform="translate(396.3125,595.1875)"/>
<path d="M0 0 C-5.99 6.61 -15.67 15.59 -24.88 16.19 C-25.93 16.09 -25.93 16.09 -27 16 C-28 14 -28 14 -27.45 12.13 C-22.8 5.29 -8.18 -2.81 0 0 Z " fill="#000000" transform="translate(539,583)"/>
<path d="M0 0 C0 3 0 3 -1.4 4.61 C-7.76 10.08 -14.51 15.7 -23 17 C-23.64 15.21 -23.64 15.21 -24 13 C-20.83 6.59 -14.29 3.62 -8 1 C-5.07 0.02 -3.04 -0.08 0 0 Z " fill="#000000" transform="translate(565,581)"/>
<path d="M0 0 C-1.41 4.24 -4.53 5.67 -8.12 8 C-8.78 8.44 -9.43 8.88 -10.1 9.33 C-20.62 16.25 -20.62 16.25 -25.94 15.69 C-26.62 15.46 -27.3 15.23 -28 15 C-27.91 12.73 -27.91 12.73 -27 10 C-24.77 8.52 -22.85 7.45 -20.44 6.38 C-19.8 6.08 -19.17 5.78 -18.51 5.47 C-5.58 -0.52 -5.58 -0.52 0 0 Z " fill="#000000" transform="translate(514,584)"/>
<path d="M0 0 C-2.94 7.19 -11.25 13.39 -18 17 C-20.88 17.25 -20.88 17.25 -23 17 C-23.33 16.01 -23.66 15.02 -24 14 C-18.98 6.12 -9.43 -0.25 0 0 Z " fill="#000000" transform="translate(248,588)"/>
<path d="M0 0 C-1.06 5.55 -4.64 9.19 -9.04 12.56 C-12.77 15.02 -14.37 16 -19 16 C-17.95 11.21 -16.38 9.05 -12.3 6.32 C-11.41 5.76 -11.41 5.76 -10.5 5.19 C-9.91 4.79 -9.31 4.4 -8.7 3.99 C-2.63 0 -2.63 0 0 0 Z " fill="#000000" transform="translate(266,588)"/>
</svg>
