<?xml version="1.0" encoding="UTF-8"?>
<!-- Generator: visioncortex VTracer 0.6.3 -->
<svg version="1.1" xmlns="http://www.w3.org/2000/svg" width="1280" height="1280">
<path d="M0 0 C4.19 3.48 8.1 7.2 12 11 C13.07 11.96 13.07 11.96 14.16 12.94 C20.73 19 25.35 26.43 30 34 C30.36 34.58 30.72 35.16 31.09 35.76 C45.28 59 50.76 87.06 50 114 C49.98 115.11 49.97 116.22 49.95 117.36 C47.48 185.5 7.16 248.4 -41.19 293.88 C-47.26 299.52 -53.5 304.86 -60 310 C-61.13 310.92 -62.25 311.83 -63.38 312.75 C-72.25 319.99 -81.41 326.77 -90.74 333.4 C-92.94 334.96 -95.13 336.53 -97.32 338.1 C-117.1 352.25 -137.64 364.75 -159.03 376.3 C-163.06 378.48 -167.04 380.71 -171 383 C-163.1 391.53 -155.15 400 -146.83 408.13 C-121.21 433.35 -101.11 463.98 -84.31 495.56 C-83.19 497.64 -82.05 499.71 -80.89 501.78 C-55.67 547.26 -39.48 598.74 -38.43 650.82 C-38.1 669.82 -38.1 669.82 -28.56 685.44 C-27.87 686.09 -27.19 686.74 -26.48 687.41 C-20.73 693.42 -15.94 700.32 -11 707 C-10.28 707.96 -9.56 708.92 -8.82 709.9 C4.09 727.61 12.33 751.95 10 774 C8.5 779.33 5.85 783.18 1 786 C-3.31 787.28 -5.32 787.28 -9.5 785.56 C-15.95 781.32 -20.11 774.92 -24.38 768.62 C-31.67 757.86 -40.59 747.52 -52 741 C-52.4 742.24 -52.8 743.48 -53.21 744.76 C-60.44 766.38 -69.6 787.47 -83 806 C-83.66 806.92 -83.66 806.92 -84.34 807.86 C-90.3 816.13 -96.5 823.96 -103.53 831.35 C-106.14 834.15 -108.57 837.04 -111 840 C-110.07 841.25 -109.1 842.47 -108.12 843.69 C-107.59 844.37 -107.06 845.06 -106.51 845.76 C-99.37 852.13 -90.58 854.08 -81.44 855.94 C-48.58 863.1 -48.58 863.1 -37 876 C-35.95 877.11 -35.95 877.11 -34.88 878.25 C-30.41 884.8 -29.47 891.91 -29.56 899.69 C-29.57 900.56 -29.58 901.43 -29.59 902.33 C-29.98 917.59 -35.78 931.06 -46.17 942.31 C-52.7 948.33 -59.08 950.56 -67.91 950.46 C-72.12 949.83 -74.29 948.22 -77.38 945.41 C-82.16 938.3 -82.34 931.07 -82 922.75 C-81.64 915.82 -81.64 915.82 -82.94 909.08 C-85.5 906.5 -87.97 905.45 -91.32 904.09 C-110.83 896.14 -129.46 886.09 -144.41 871.15 C-147.26 868.79 -148.31 867.91 -152 868 C-155.03 869.1 -157.83 870.57 -160.69 872.06 C-174.24 878.8 -188.44 883.02 -203 887 C-200.14 893.9 -196.86 897.25 -190.81 901.5 C-189.28 902.63 -187.74 903.76 -186.21 904.9 C-185.48 905.43 -184.75 905.97 -184 906.52 C-176.12 912.35 -170.36 918.8 -165 927 C-164.31 927.98 -164.31 927.98 -163.61 928.99 C-159.42 935.86 -160.05 944.28 -161.59 951.93 C-165.91 965.67 -176.26 975.3 -188.4 982.41 C-195.56 986.14 -203.5 987.65 -211.39 985.28 C-215.63 983.33 -218.12 981.42 -220 977 C-221.82 972.02 -221.59 966.88 -219.47 962.06 C-218.5 960.02 -217.49 957.99 -216.49 955.96 C-213.97 950.64 -212.96 946.27 -214.81 940.45 C-217.55 935.09 -220.66 930.92 -224.76 926.53 C-231.95 918.42 -237.63 909.49 -242.14 899.64 C-244.51 896.28 -247.18 895.18 -251 894 C-254.66 893.52 -254.66 893.52 -258.49 893.52 C-259.19 893.51 -259.88 893.49 -260.6 893.48 C-262.84 893.43 -265.07 893.4 -267.31 893.38 C-269.61 893.33 -271.91 893.28 -274.21 893.23 C-275.72 893.2 -277.22 893.17 -278.73 893.14 C-284.54 893.03 -290.33 892.79 -296.12 892.44 C-296.85 892.39 -297.58 892.35 -298.33 892.3 C-299.88 892.21 -301.44 892.1 -303 892 C-302.78 892.74 -302.57 893.48 -302.34 894.25 C-298.44 909.02 -298.19 923.2 -305.58 936.93 C-312.77 948.87 -321.81 955.6 -335 960 C-337.43 960.17 -339.87 960.27 -342.31 960.31 C-343.61 960.35 -344.9 960.39 -346.24 960.43 C-350.64 959.93 -352.64 958.85 -356 956 C-360.28 950.52 -359.58 944.65 -359 938 C-358.58 936.01 -358.1 934.03 -357.56 932.06 C-353.02 915.36 -355.59 899.73 -363.24 884.38 C-367.16 879.07 -372.73 877.19 -378.81 875.25 C-396.98 869.11 -413.62 860.06 -428.93 848.53 C-430.92 846.97 -430.92 846.97 -433 846 C-433.26 847.02 -433.26 847.02 -433.52 848.06 C-433.76 849.03 -434 850 -434.25 851 C-434.52 852.09 -434.79 853.17 -435.07 854.29 C-435.73 856.91 -436.39 859.53 -437.05 862.15 C-437.23 862.85 -437.41 863.55 -437.59 864.27 C-437.94 865.65 -438.29 867.02 -438.64 868.39 C-442.13 882.22 -441.27 893.46 -437.78 907.13 C-436.05 914.04 -434.19 921.47 -438 928 C-444.53 933.88 -450.61 933.55 -458.98 933.17 C-468.43 932.37 -475.19 927.16 -482 921 C-482.66 920.43 -483.32 919.86 -484 919.28 C-491.44 912.48 -495.42 903.08 -496.37 893.12 C-496.99 871.96 -489.84 852.01 -481.19 832.96 C-475.91 821.32 -474.46 812.21 -479 800 C-482.89 791.8 -488.37 784.52 -493.64 777.17 C-497 772.48 -500.1 767.73 -502.91 762.69 C-503.9 760.84 -503.9 760.84 -506 760 C-515 759.52 -522.67 763 -530.67 766.6 C-534.34 768.25 -538.02 769.83 -541.71 771.43 C-542.44 771.74 -543.16 772.06 -543.91 772.38 C-616.15 803.7 -706.3 815.69 -784 803 C-785.55 802.75 -785.55 802.75 -787.14 802.5 C-811.1 798.5 -834.8 791.9 -857 782 C-858.3 781.42 -858.3 781.42 -859.63 780.84 C-876.16 773.43 -891.35 765.02 -905 753 C-906.28 751.89 -906.28 751.89 -907.58 750.75 C-910.08 748.54 -912.55 746.28 -915 744 C-916.07 743.03 -916.07 743.03 -917.17 742.03 C-952.25 708.8 -967.57 658.11 -969 611 C-969.87 575.62 -965.11 541.94 -955 508 C-954.59 506.63 -954.59 506.63 -954.18 505.23 C-939.85 457.68 -912.95 416.88 -879.49 380.71 C-876.26 377.2 -873.12 373.62 -870 370 C-881.15 358.48 -895.61 347.47 -912.12 346.56 C-918.02 346.63 -923.28 348 -928.94 349.5 C-948.06 354.42 -964.62 353.25 -982.12 343.94 C-996.71 334.94 -1008.21 321.87 -1012.88 305.19 C-1016.23 288.52 -1015.6 271 -1006.75 256.25 C-996.93 241.91 -983.88 231.03 -966.55 227.39 C-946.6 224.32 -929.03 227.67 -912.27 238.81 C-896.82 250.29 -889.67 267.17 -886.55 285.64 C-885.58 291.01 -884.33 293.39 -880 297 C-864.4 310.54 -851.94 326.23 -840 343 C-835.95 342.42 -833.23 340.15 -830.06 337.75 C-814.6 326.42 -797.88 317.02 -781 308 C-786.36 300.39 -791.6 293.75 -799 288 C-799.73 287.37 -800.45 286.74 -801.2 286.1 C-809.12 280.06 -818.03 279.34 -827.6 277.88 C-846.92 274.88 -866.19 262.45 -878 247 C-891.47 227.49 -896.5 206.85 -892.72 183.45 C-888.62 163.76 -877.69 146.6 -861.23 135 C-847.71 126.64 -834.1 122.41 -818.12 122.56 C-816.41 122.58 -816.41 122.58 -814.66 122.59 C-793.58 123.02 -773.49 132.9 -758.88 148.06 C-744.99 164.11 -738.52 181.05 -738.38 202.25 C-738.36 204.11 -738.36 204.11 -738.34 206.02 C-738.51 216.72 -741.04 226.11 -745 236 C-746.98 245.7 -742.5 252.76 -738.05 260.96 C-735.86 265.21 -734.18 269.67 -732.42 274.11 C-730.64 277.74 -728.64 280.18 -725 282 C-717.37 282.8 -710.8 281.11 -703.56 278.88 C-672 269.65 -639.65 264.67 -607.06 260.69 C-605.11 260.45 -605.11 260.45 -603.12 260.2 C-589.56 258.61 -576.06 257.84 -562.41 257.83 C-561.04 257.83 -559.68 257.83 -558.32 257.82 C-555.48 257.82 -552.64 257.81 -549.8 257.81 C-546.96 257.81 -544.12 257.81 -541.29 257.79 C-523.21 257.71 -505.31 258.23 -487.29 259.57 C-482.84 259.9 -478.46 260.1 -474 260 C-474.63 259.28 -475.26 258.56 -475.91 257.82 C-506.03 223.16 -536.33 177.72 -536.38 130.25 C-536.4 128.98 -536.42 127.71 -536.45 126.41 C-536.49 114.38 -533.82 103.41 -528.25 92.75 C-527.91 92.08 -527.57 91.42 -527.22 90.73 C-524.14 84.9 -520.35 79.93 -516 75 C-515.24 73.99 -514.47 72.98 -513.69 71.94 C-496.25 52.88 -468.08 39.42 -442.3 37.76 C-415.59 37.26 -390.33 45.92 -370.75 64.31 C-368.13 66.84 -365.56 69.41 -363 72 C-362.48 72.52 -361.96 73.04 -361.42 73.57 C-318.03 117.19 -309.89 183.37 -309.81 242.12 C-309.81 243.2 -309.81 243.2 -309.81 244.31 C-309.81 253.66 -310.15 262.96 -310.76 272.29 C-311.81 284.57 -311.81 284.57 -308 296 C-303.28 301.04 -297.87 303.76 -291.56 306.38 C-290.74 306.73 -289.91 307.08 -289.06 307.45 C-287.04 308.31 -285.02 309.16 -283 310 C-282.95 308.92 -282.95 308.92 -282.89 307.83 C-282.15 295.39 -280.46 283.09 -278.81 270.75 C-278.66 269.57 -278.5 268.39 -278.34 267.18 C-272.68 224.78 -264.75 182.9 -252 142 C-251.7 141.05 -251.7 141.05 -251.4 140.07 C-238.44 98.63 -221.48 59.42 -196.62 23.62 C-196.16 22.95 -195.7 22.28 -195.22 21.59 C-192.32 17.5 -189.14 13.97 -185.52 10.51 C-183.84 8.91 -183.84 8.91 -182.06 6.5 C-179.67 3.6 -177.03 1.29 -174.17 -1.13 C-172.78 -2.33 -171.43 -3.56 -170.11 -4.84 C-123.13 -49.97 -47.38 -37.1 0 0 Z M-180 24 C-189.45 35.01 -196.89 47.41 -204 60 C-204.46 60.8 -204.91 61.61 -205.39 62.44 C-242.12 127.78 -257.88 206.89 -266.5 280.56 C-266.59 281.29 -266.68 282.01 -266.77 282.76 C-269.18 301.46 -269.18 301.46 -264 319 C-260.12 322.73 -255.46 325.05 -250.75 327.56 C-235.17 336.06 -220.56 346.03 -206.41 356.71 C-197.66 363.24 -188.93 369.05 -177.55 368.43 C-158.36 365.23 -139.01 349.43 -123 339 C-122.06 338.39 -121.11 337.77 -120.14 337.14 C-101.66 325.06 -83.62 312.58 -67 298 C-65.94 297.09 -65.94 297.09 -64.85 296.15 C-62.88 294.45 -60.94 292.73 -59 291 C-57.75 289.89 -57.75 289.89 -56.48 288.76 C-44.32 277.8 -32.08 266.48 -21.99 253.55 C-19.8 250.75 -17.5 248.07 -15.19 245.38 C19.66 203.44 40.41 146.51 35.61 91.77 C31.85 58.66 15.62 28.94 -10.41 8.21 C-34.58 -10.14 -63.05 -19.13 -93.19 -19.25 C-94.41 -19.27 -95.64 -19.29 -96.9 -19.31 C-130.88 -19.46 -158.11 -0.28 -180 24 Z M-499 77 C-499.84 77.74 -500.68 78.47 -501.55 79.23 C-514.72 91.46 -521.83 108.15 -523 126 C-523.5 150.14 -515.23 172.01 -504 193 C-503.68 193.6 -503.37 194.19 -503.04 194.8 C-497.72 204.69 -491.54 213.89 -485 223 C-484.51 223.68 -484.02 224.37 -483.51 225.07 C-463.59 252.67 -444.46 264.9 -411 271 C-384.99 275.81 -359.45 281.96 -334.34 290.32 C-331.42 291.29 -329.1 292 -326 292 C-319.01 221.38 -321.64 143.58 -367.68 85.83 C-381.68 68.78 -402.15 55.84 -424 52 C-451.86 50.1 -478.08 58.11 -499 77 Z M-990.18 255.8 C-1000 267.66 -1002.06 279.79 -1001.21 294.77 C-1000.15 305.94 -993.75 317.07 -986 325 C-972.98 335.74 -958.12 340.14 -941.39 338.54 C-928.9 336.56 -918.44 330.24 -910 321 C-907.43 318.23 -905.87 317.29 -902 317 C-900.51 317.99 -900.51 317.99 -899 319 C-899.11 320.44 -899.24 321.88 -899.38 323.31 C-899.44 324.11 -899.51 324.91 -899.59 325.74 C-900 328 -900 328 -902 331 C-902 331.99 -902 332.98 -902 334 C-901.2 334.28 -900.4 334.56 -899.58 334.85 C-887.59 339.22 -877.66 345.16 -867.81 353.18 C-864.66 355.74 -861.54 358.02 -858 360 C-853.42 357.12 -853.42 357.12 -850 353 C-859.25 337.12 -874.89 313.71 -891.75 305.69 C-895.05 304.07 -896.76 302.96 -899 300 C-900.84 293.39 -901.1 286.42 -901.71 279.62 C-903 267.9 -909.98 258.11 -918.81 250.62 C-940.43 234.42 -971.4 235.84 -990.18 255.8 Z M-864 156 C-864.65 156.63 -865.29 157.25 -865.96 157.89 C-876.85 169.19 -880.57 185.61 -880.42 200.89 C-879.7 219.6 -871.19 236.25 -857.73 249.18 C-846.38 258.9 -832.59 262.74 -818.31 266.11 C-808.47 268.48 -800.36 271.07 -792 277 C-791.4 277.42 -790.8 277.84 -790.19 278.28 C-786.6 281.05 -783.75 284.48 -780.84 287.93 C-779.08 289.91 -777.22 291.61 -775.25 293.38 C-766.21 302.35 -760.35 314.84 -754.88 326.19 C-754.31 327.35 -754.31 327.35 -753.73 328.54 C-751.64 333.02 -750.31 337 -750 342 C-751.06 344.44 -751.06 344.44 -753 346 C-755 346.06 -757 346.07 -759 346 C-759.52 344.95 -760.04 343.9 -760.57 342.82 C-764.23 335.45 -767.89 328.12 -772 321 C-778.22 321.43 -782.98 324.4 -788.31 327.38 C-789.29 327.92 -790.26 328.46 -791.27 329.01 C-811.48 340.33 -830.69 353.6 -848 369 C-848.95 369.84 -849.89 370.67 -850.87 371.53 C-863.44 382.84 -875.59 394.65 -886 408 C-887.01 409.18 -887.01 409.18 -888.04 410.38 C-923.73 451.98 -944.62 506.43 -953 560 C-953.13 560.83 -953.27 561.65 -953.4 562.5 C-957.36 588.36 -956.82 617.35 -952 643 C-951.84 643.87 -951.68 644.74 -951.51 645.64 C-946.46 671.83 -936.16 698.35 -919 719 C-918.55 719.55 -918.11 720.1 -917.65 720.67 C-880.57 766.33 -822.52 785.37 -765.66 791.48 C-756.45 792.37 -747.25 792.83 -738 793 C-736.85 793.02 -735.7 793.04 -734.52 793.07 C-649.58 794.41 -558.42 774.99 -486.37 728.12 C-483.39 726.24 -480.41 724.67 -477.25 723.12 C-463.51 715.77 -453.34 700.54 -445.16 687.71 C-444 686 -444 686 -442 684 C-439.56 683.62 -439.56 683.62 -437 684 C-435.12 685.62 -435.12 685.62 -434 688 C-435.62 704.25 -451.54 717.07 -463.26 726.9 C-468.26 730.87 -473.45 734.56 -478.71 738.17 C-480.25 739.23 -481.78 740.3 -483.31 741.38 C-484.15 741.94 -485 742.5 -485.86 743.09 C-488.57 745.51 -489.76 747.58 -491 751 C-490.53 765.44 -474.11 783.31 -465.75 794.56 C-465.27 795.22 -464.78 795.87 -464.29 796.55 C-461.14 800.72 -457.77 804.38 -454 808 C-449.88 806.3 -446.76 803.4 -443.44 800.5 C-442.82 799.97 -442.2 799.43 -441.57 798.88 C-436.88 794.81 -432.26 790.66 -427.7 786.45 C-425.54 784.49 -423.36 782.57 -421.17 780.66 C-406.49 767.85 -393.1 754.28 -381 739 C-380.48 738.35 -379.96 737.7 -379.43 737.02 C-341.52 689.34 -314.5 636.42 -309 575 C-308.83 573.34 -308.83 573.34 -308.66 571.65 C-302.15 494.97 -321.84 416.2 -364 352 C-364.73 350.88 -365.46 349.76 -366.18 348.64 C-368.09 345.74 -370.03 342.86 -372 340 C-372.56 339.18 -372.56 339.18 -373.13 338.35 C-379.26 329.45 -385.88 321.13 -393 313 C-393.69 312.2 -394.38 311.39 -395.1 310.56 C-400.05 304.91 -405.3 299.54 -410.56 294.19 C-411.27 293.46 -411.98 292.73 -412.71 291.98 C-425.7 278.9 -440.71 277.88 -458.31 275.94 C-459.07 275.85 -459.82 275.77 -460.6 275.68 C-507.28 270.55 -555.23 269.57 -602 274 C-602.66 274.06 -603.31 274.12 -603.99 274.18 C-635.64 277.13 -667.39 282.33 -698 291 C-698.77 291.21 -699.54 291.43 -700.33 291.65 C-708.03 293.83 -714.48 295.95 -720 302 C-721.79 307.37 -721.43 313.44 -720.5 319 C-720.01 321.96 -719.83 324.75 -719.75 327.75 C-719.71 329.17 -719.71 329.17 -719.67 330.61 C-719.83 331.79 -719.83 331.79 -720 333 C-723.22 335.15 -724.27 335.38 -728 335 C-730.48 332.52 -730.6 331.01 -731.3 327.6 C-731.53 326.49 -731.76 325.38 -732 324.24 C-732.25 323.05 -732.5 321.85 -732.75 320.62 C-737.79 297.25 -744.66 274.67 -757 254 C-757.65 254.58 -757.65 254.58 -758.32 255.17 C-768.13 263.75 -768.13 263.75 -773.25 264.44 C-774.16 264.29 -775.07 264.15 -776 264 C-778 261 -778 261 -777.88 258.11 C-776.86 254.49 -775.56 252.97 -772.94 250.31 C-759.6 236.17 -751.43 221.33 -751.58 201.57 C-752.23 182.15 -760.73 165.79 -774.56 152.38 C-785.56 142.83 -799.43 136.88 -814 136 C-814.95 135.94 -815.91 135.87 -816.89 135.8 C-835.31 135.14 -851.24 143.08 -864 156 Z M-410 284 C-406.58 288.14 -403.03 291.99 -399.19 295.75 C-394.89 300 -391.03 304.45 -387.27 309.18 C-384.98 312.02 -382.62 314.79 -380.25 317.56 C-320.56 389.19 -294.48 485.08 -302.28 577.33 C-308.78 644.75 -341.05 705.04 -386 755 C-386.79 755.89 -387.58 756.78 -388.39 757.69 C-390.58 760.14 -392.79 762.57 -395 765 C-395.47 765.52 -395.94 766.04 -396.42 766.57 C-402.32 773.11 -408.2 779.38 -415 785 C-417.34 786.97 -419.67 788.95 -422 790.94 C-422.92 791.72 -422.92 791.72 -423.86 792.52 C-427.81 795.9 -431.51 799.44 -435.12 803.19 C-437.92 805.88 -440.99 808.16 -444.12 810.46 C-446.24 812.04 -446.24 812.04 -448 815 C-441.37 821.41 -434.61 827.56 -427.25 833.12 C-426.66 833.59 -426.07 834.05 -425.47 834.52 C-420.04 838.52 -414.47 840.49 -407.7 839.53 C-395.51 835.79 -395.51 835.79 -385 829 C-385 827.24 -385.02 825.49 -385.07 823.73 C-385.31 814.97 -385.16 806.73 -379.56 799.5 C-375.95 795.98 -373.29 794.71 -368.25 794.62 C-359.81 794.84 -354.75 798.78 -349.05 804.71 C-347 806.26 -347 806.26 -344.13 805.96 C-340.39 804.81 -338.12 803.19 -335.06 800.75 C-334.5 800.31 -333.95 799.86 -333.37 799.4 C-331.57 797.95 -329.78 796.48 -328 795 C-327.42 794.52 -326.83 794.04 -326.23 793.54 C-311.6 781.46 -297.45 768.17 -286 753 C-285.05 751.77 -284.1 750.54 -283.15 749.3 C-272.12 734.89 -262.49 720.04 -254 704 C-253.65 703.33 -253.29 702.67 -252.93 701.98 C-224.92 648.64 -211.04 583.97 -210.8 523.83 C-210.79 522.71 -210.79 521.59 -210.78 520.44 C-210.77 518.09 -210.76 515.73 -210.76 513.38 C-210.75 509.87 -210.72 506.36 -210.69 502.85 C-210.59 482.12 -212.32 461.65 -216.75 441.38 C-217.13 439.58 -217.13 439.58 -217.53 437.74 C-224.63 405.39 -237.25 353.78 -266.5 333.51 C-300.34 313.1 -340.44 300.26 -378.56 290.69 C-379.22 290.52 -379.87 290.36 -380.55 290.19 C-390.31 287.74 -400.1 285.76 -410 284 Z M-245 347 C-244.66 347.68 -244.32 348.36 -243.97 349.06 C-242.92 351.16 -241.87 353.26 -240.83 355.36 C-239.63 357.76 -238.41 360.14 -237.17 362.52 C-215.9 403.61 -203.99 449.75 -203.8 496.11 C-203.79 497.23 -203.78 498.35 -203.78 499.51 C-203.66 523.18 -203.63 546.53 -207 570 C-207.2 571.43 -207.39 572.85 -207.59 574.28 C-213.37 616.15 -223.94 656.67 -242 695 C-242.42 695.9 -242.85 696.81 -243.29 697.74 C-253.87 720.07 -267.11 741.06 -283 760 C-283.42 760.51 -283.83 761.01 -284.26 761.53 C-295.58 775.25 -307.96 788.08 -321.93 799.12 C-322.65 799.7 -323.37 800.27 -324.11 800.86 C-325.55 802.02 -327 803.16 -328.45 804.3 C-333.71 808.37 -333.71 808.37 -337 814 C-336.84 819.74 -335.41 824.01 -332.69 829.06 C-332.34 829.73 -332 830.39 -331.65 831.07 C-330.87 832.56 -330.1 834.04 -329.32 835.51 C-327.86 838.27 -326.42 841.03 -324.98 843.8 C-323.42 846.79 -321.87 849.77 -320.3 852.75 C-317.49 858.11 -314.75 863.49 -312.12 868.94 C-310.49 871.94 -309.07 873.5 -306 875 C-300.06 874.67 -295.67 873.31 -290.44 870.56 C-289.75 870.21 -289.07 869.86 -288.36 869.49 C-260.91 855.04 -235.82 832.49 -217 808 C-216.22 807.02 -215.43 806.04 -214.62 805.04 C-197.4 783.4 -184.42 758.6 -172 734 C-171.53 733.07 -171.06 732.15 -170.58 731.2 C-131.91 654.14 -119.33 568.45 -121 483 C-121.01 482.08 -121.03 481.16 -121.04 480.21 C-121.47 457.74 -132.68 444.08 -147 428 C-147.82 427.07 -148.63 426.14 -149.47 425.19 C-155.6 418.35 -162.04 411.83 -168.5 405.31 C-169.37 404.43 -170.23 403.55 -171.12 402.65 C-176.34 397.42 -181.75 392.62 -187.51 388 C-190.08 385.93 -192.56 383.79 -195.03 381.6 C-207.02 371.02 -220.25 362.1 -233.5 353.19 C-234.87 352.26 -234.87 352.26 -236.27 351.32 C-237.54 350.47 -237.54 350.47 -238.84 349.61 C-239.6 349.1 -240.35 348.6 -241.13 348.08 C-242.93 346.83 -242.93 346.83 -245 347 Z M-114 474 C-114.01 474.84 -114.01 474.84 -114.02 475.69 C-115.27 559.73 -122.08 638.15 -213.15 812.68 C-214.34 814.18 -215.52 815.69 -216.66 817.23 C-221.54 823.76 -227.17 829.33 -233 835 C-235.64 837.61 -238.25 840.25 -240.8 842.95 C-252.23 854.86 -264.91 863.67 -279.22 871.81 C-282.59 873.74 -285.83 875.75 -289 878 C-289 878.33 -289 878.66 -289 879 C-282.38 879.08 -275.77 879.13 -269.15 879.16 C-266.91 879.18 -264.66 879.2 -262.41 879.23 C-259.17 879.26 -255.92 879.28 -252.67 879.29 C-251.19 879.32 -251.19 879.32 -249.68 879.34 C-221.18 879.35 -193.35 856.4 -174.05 837.12 C-173.03 836.08 -172.01 835.04 -171 834 C-171.94 831.11 -172.9 828.25 -174.02 825.43 C-176.77 818.44 -178.47 813.16 -175.88 805.81 C-172.71 801.06 -168.59 797.43 -163 796 C-156.45 795.18 -151.48 796.29 -146 800 C-144.97 800.97 -143.97 801.97 -143 803 C-139.03 801.68 -138.06 799.78 -135.56 796.44 C-135.13 795.86 -134.7 795.28 -134.25 794.69 C-133.31 793.44 -132.38 792.19 -131.45 790.94 C-130.01 789.01 -128.54 787.09 -127.06 785.18 C-90.71 737.78 -71.46 681.12 -65 622 C-64.87 620.83 -64.73 619.65 -64.6 618.45 C-64.3 615.29 -64.12 612.16 -64 609 C-63.97 608.22 -63.93 607.45 -63.9 606.65 C-62.2 560.69 -85.7 517.44 -109.16 479.32 C-109.66 478.51 -110.16 477.7 -110.68 476.86 C-111.88 474.87 -111.88 474.87 -114 474 Z M-57 607 C-57.09 607.97 -57.18 608.94 -57.27 609.94 C-59.28 631.28 -61.9 652.13 -67 673 C-67.29 674.21 -67.59 675.41 -67.89 676.65 C-73.69 699.97 -82.23 721.56 -92.56 743.19 C-92.87 743.83 -93.17 744.47 -93.48 745.13 C-99.73 758.24 -107.35 770.1 -116.12 781.69 C-128.8 797.16 -128.8 797.16 -132 816 C-129.46 820.88 -125.64 824.9 -122 829 C-108.06 823.03 -99.87 809.44 -92.74 796.9 C-91.18 794.31 -89.52 791.97 -87.69 789.56 C-53.89 741.93 -45.96 669.52 -54.5 613.1 C-55.04 610.85 -55.89 609.03 -57 607 Z M-41 693 C-45.52 710.24 -45.52 710.24 -45.25 727.75 C-42.43 731.82 -39.13 733.95 -35.09 736.74 C-25.02 744.1 -18.03 753.3 -11.28 763.68 C-10.76 764.47 -10.25 765.26 -9.71 766.07 C-9.26 766.78 -8.81 767.49 -8.34 768.22 C-6.95 770.27 -6.95 770.27 -4 772 C-0.99 765.99 -3.42 758 -5.12 751.88 C-5.35 751.05 -5.58 750.23 -5.81 749.38 C-11.02 730.94 -19.5 716.41 -32 702 C-33.14 700.67 -33.14 700.67 -34.31 699.32 C-37.1 696.11 -37.1 696.11 -40 693 C-40.33 693 -40.66 693 -41 693 Z M-369 808 C-371.89 810.89 -371.93 814.07 -372 818 C-371.37 821.61 -371.37 821.61 -370.09 825.2 C-369.87 825.88 -369.64 826.55 -369.41 827.25 C-365.92 837.52 -361.61 847.5 -357.44 857.5 C-346.77 883.15 -337.3 908.11 -344.33 936.05 C-345.19 939.83 -345.23 943.15 -345 947 C-335.72 946.48 -327.9 942.89 -321.54 936.03 C-314.98 927.36 -313.04 918.67 -314 908 C-317.26 889.35 -325.23 871.62 -333.98 854.96 C-335.01 852.98 -336.01 850.99 -337.01 849 C-341.32 840.53 -346.09 832.38 -351.12 824.31 C-351.7 823.38 -352.27 822.45 -352.86 821.49 C-356.14 816.33 -359.56 811.08 -365 808 C-366.32 808 -367.64 808 -369 808 Z M-164 811 C-163.53 817.05 -162.22 821.42 -159.38 826.75 C-159.01 827.44 -158.65 828.14 -158.28 828.85 C-157.54 830.26 -156.8 831.66 -156.05 833.05 C-155.13 834.76 -154.23 836.49 -153.34 838.21 C-144 855.37 -129.8 868.46 -112.91 877.93 C-111.14 878.92 -109.38 879.94 -107.62 880.96 C-98.31 886.16 -88.6 890.26 -78.75 894.32 C-77.66 894.77 -76.57 895.22 -75.45 895.68 C-73.99 896.28 -73.99 896.28 -72.49 896.89 C-70 898 -70 898 -67 900 C-66.67 902.36 -66.67 902.36 -66.75 905.19 C-66.78 906.19 -66.8 907.18 -66.83 908.21 C-67 911 -67 911 -67.5 914.31 C-68.52 921.82 -69.33 930.02 -66 937 C-61.18 936.76 -58.27 935.39 -54.8 932.19 C-46.88 922.55 -42.3 909.29 -42.65 896.9 C-43.35 891.12 -45.61 886.85 -49.06 882.25 C-57.57 875.73 -68.26 873.28 -78.44 870.5 C-91.52 866.92 -103.95 863.17 -115 855 C-115.87 854.38 -116.73 853.76 -117.62 853.12 C-121.09 850.03 -123.99 846.54 -127 843 C-127.92 841.94 -128.84 840.88 -129.77 839.82 C-134.81 834.03 -139.72 828.18 -144.38 822.06 C-144.79 821.52 -145.2 820.99 -145.62 820.43 C-147.34 818.18 -149.06 815.92 -150.78 813.67 C-152.87 811.05 -154.51 809.21 -157.62 807.88 C-160.61 808.03 -161.84 809 -164 811 Z M-461 822 C-464.83 829.32 -468.14 836.8 -471.28 844.43 C-472.06 846.3 -472.84 848.17 -473.63 850.04 C-479.87 865.04 -487.55 883.59 -481.16 899.81 C-476.66 908.28 -469.93 915.43 -460.83 918.8 C-457.17 919.81 -453.76 920.06 -450 920 C-450.4 913.56 -451.53 907.71 -453.3 901.51 C-457.46 886.56 -454.24 871.56 -450 857.04 C-446.25 845.5 -446.25 845.5 -447.89 833.84 C-450.6 829.02 -454.4 825.06 -459 822 C-459.66 822 -460.32 822 -461 822 Z M-390.25 839.75 C-391.59 840.31 -392.93 840.87 -394.27 841.43 C-394.91 841.7 -395.55 841.97 -396.21 842.25 C-399.44 843.6 -402.72 844.79 -406 846 C-402.92 849.28 -399.32 851.23 -395.38 853.31 C-394.63 853.71 -393.89 854.1 -393.13 854.51 C-385.37 858.51 -377.3 861.35 -369 864 C-370.62 857.6 -372.89 851.51 -375.44 845.44 C-375.73 844.72 -376.01 844.01 -376.31 843.27 C-377.77 839.48 -377.77 839.48 -380.9 837.23 C-384.33 836.86 -387.17 838.41 -390.25 839.75 Z M-171.7 844.51 C-178.74 851.29 -186.3 857.16 -194.19 862.92 C-195.02 863.53 -195.84 864.13 -196.69 864.75 C-197.79 865.55 -197.79 865.55 -198.92 866.36 C-201.12 868.1 -203.05 869.98 -205 872 C-199.32 871.34 -194.03 870.02 -188.56 868.38 C-187.69 868.11 -186.82 867.85 -185.93 867.58 C-171.1 863.02 -171.1 863.02 -158 855 C-159.47 852.66 -160.95 850.33 -162.44 848 C-162.86 847.33 -163.28 846.66 -163.71 845.98 C-164.78 844.3 -165.89 842.65 -167 841 C-169.05 841 -170.3 843.15 -171.7 844.51 Z M-225.19 889.94 C-226.09 890.13 -226.99 890.33 -227.92 890.53 C-228.61 890.68 -229.29 890.84 -230 891 C-228.65 895.67 -226.66 899.53 -224 903.56 C-223.6 904.17 -223.21 904.77 -222.8 905.4 C-216.16 915.42 -208.74 924.55 -200.45 933.25 C-194.01 940.49 -194.01 940.49 -193.98 944.97 C-195.21 948.61 -197.08 951.41 -199.38 954.44 C-205.1 961.73 -205.1 961.73 -206.69 970.44 C-206.35 971.21 -206.35 971.21 -206 972 C-198.65 972.61 -193.88 970.3 -188.19 965.75 C-181.13 959.59 -175.99 954.27 -174.69 944.74 C-174.24 936.29 -177.53 931.86 -183.02 925.75 C-187.77 920.82 -192.95 916.49 -198.29 912.2 C-205.51 906.35 -211.53 901.24 -215.56 892.69 C-217.98 888.16 -220.71 888.95 -225.19 889.94 Z " fill="#000000" transform="translate(1119,189)"/>
<path d="M0 0 C1.08 0.02 1.08 0.02 2.18 0.04 C23.06 0.48 43.16 4.61 63 11 C63.69 11.22 64.38 11.44 65.09 11.66 C111.88 26.77 150.53 62.67 173.06 105.73 C196.15 150.99 201.32 199.57 186.17 248.32 C177.93 272.91 163.16 294.8 146 314 C145.53 314.53 145.05 315.06 144.56 315.61 C141.42 319.11 138.22 322.57 135 326 C134.08 326.98 134.08 326.98 133.14 327.99 C128.17 333.14 122.61 337.57 117 342 C116.39 342.49 115.78 342.98 115.15 343.48 C47.96 396.91 -41.31 423.53 -126.5 423.38 C-127.64 423.37 -128.77 423.37 -129.94 423.37 C-147.95 423.33 -165.29 422.51 -183 419 C-184.09 418.79 -185.18 418.58 -186.31 418.37 C-238.44 408.13 -288.37 383.82 -319 339 C-338.41 308.9 -345.84 270.7 -338.59 235.63 C-331.81 205.21 -319.41 177.16 -301 152 C-300.6 151.45 -300.2 150.89 -299.78 150.33 C-286.04 131.45 -270.31 112.86 -251.9 98.36 C-249.45 96.37 -247.11 94.31 -244.77 92.19 C-240.15 88.07 -235.34 84.31 -230.38 80.62 C-229.5 79.98 -228.63 79.33 -227.74 78.66 C-215.62 69.69 -203.07 61.5 -190 54 C-188.84 53.33 -188.84 53.33 -187.65 52.65 C-164.72 39.59 -140.89 28.74 -116 20 C-115.13 19.69 -114.27 19.38 -113.38 19.06 C-77.05 6.02 -38.65 -1.18 0 0 Z M-265.72 121.55 C-267.15 122.96 -268.57 124.36 -270 125.77 C-284.67 140.43 -296.71 157.05 -307 175 C-307.52 175.9 -308.05 176.81 -308.59 177.74 C-310.34 180.76 -312.08 183.79 -313.81 186.81 C-314.36 187.77 -314.92 188.72 -315.48 189.71 C-332.94 220.44 -338.92 262.65 -329.63 296.81 C-321.94 323.37 -306.61 348.54 -285 366 C-284.11 366.73 -283.23 367.47 -282.32 368.23 C-253.89 391.04 -221.9 402.78 -186.62 409.75 C-185.87 409.9 -185.11 410.05 -184.33 410.2 C-96.89 427.31 6.16 406.48 89.3 352.52 C102.6 343.52 115.34 334.07 127 323 C127.75 322.29 127.75 322.29 128.51 321.57 C136.85 313.63 144.14 305.24 151 296 C151.43 295.43 151.86 294.86 152.3 294.28 C179.12 258.69 191.73 214.49 186.23 170.03 C179.44 124.06 154.46 77.14 117 49 C115.86 48.12 114.72 47.24 113.58 46.36 C34.2 -14.1 -74.14 5.22 -265.72 121.55 Z " fill="#000000" transform="translate(520,540)"/>
<path d="M0 0 C2.76 2.66 4.49 4.44 5.05 8.33 C4.97 19.13 3 25.09 -4.5 33.01 C-20.96 47.96 -41.92 56.74 -64.09 56.85 C-65.14 56.87 -66.19 56.89 -67.27 56.91 C-76.38 56.96 -84.12 55.48 -91.34 49.6 C-94.93 45.82 -95.65 42.79 -95.84 37.72 C-95.41 27.13 -89.79 20.78 -82.34 13.6 C-62.74 -3.14 -22.99 -18.27 0 0 Z M-78.34 21.85 C-81.17 25.73 -81.83 27.77 -81.34 32.6 C-79.08 35.86 -76.45 37.43 -72.58 38.34 C-61.79 39.58 -51.55 36.97 -42.7 30.73 C-38.04 26.86 -34.9 23.51 -33.34 17.6 C-33.16 14.86 -33.16 14.86 -34.34 12.6 C-47.57 2.59 -68.54 10.4 -78.34 21.85 Z " fill="#000000" transform="translate(467.34375,794.40234375)"/>
<path d="M0 0 C8.95 5.95 15.82 16.05 18.32 26.54 C20.15 37.31 19.37 47.16 13.44 56.54 C9.49 61.92 4.88 65.82 -1.68 67.54 C-10.57 68.69 -18.92 67.09 -26.16 61.69 C-35 53.53 -39.92 42.83 -40.9 30.93 C-41.24 21.34 -39.8 13.5 -33.43 6.1 C-23.92 -3.65 -12.31 -6.9 0 0 Z M-15.68 6.54 C-18.6 10.96 -18.93 13.88 -18.18 19.1 C-17.05 24.22 -15.51 26.99 -11.68 30.54 C-8.6 32.43 -6.22 32.84 -2.62 32.85 C-1.76 32.87 -0.91 32.89 -0.02 32.9 C2.79 32.47 3.62 31.79 5.32 29.54 C7.38 23.36 6.41 18.35 3.65 12.62 C0.82 8.2 -2.86 6.09 -7.81 4.6 C-11.17 4.53 -12.85 4.7 -15.68 6.54 Z " fill="#000000" transform="translate(546.68359375,702.4609375)"/>
<path d="M0 0 C11.03 5.11 16.32 14.83 20.81 25.56 C23.79 34.23 22.63 45.92 19.06 54.16 C15.46 61.08 11.79 65.5 4.52 68.71 C-2.84 71.02 -9.89 70.12 -16.84 66.93 C-25.86 61.67 -30.41 52.99 -34.19 43.56 C-36.27 34.42 -37.13 23.07 -32.69 14.56 C-24.35 1.62 -15.84 -5.43 0 0 Z M-13.15 10.58 C-15.56 15.2 -14.92 20.55 -14.19 25.56 C-12.79 29.53 -10.47 32.91 -7.19 35.56 C-3.8 36.24 -0.59 36.17 2.81 35.56 C6.03 32.65 7.58 29.88 8.02 25.51 C8.15 19.21 6.85 15.46 3.19 10.25 C-1.79 6.71 -8.5 5.97 -13.15 10.58 Z " fill="#000000" transform="translate(294.1875,790.4375)"/>
<path d="M0 0 C4.68 0.14 8.23 1.3 11.81 4.38 C15.04 7.93 18.16 11.48 18.81 16.38 C17.38 18.12 17.38 18.12 15.81 19.38 C14.16 18.72 12.51 18.05 10.81 17.38 C10.81 16.72 10.81 16.05 10.81 15.38 C7.36 18.68 4.52 22.05 1.75 25.94 C-8.45 39.66 -21.57 52.08 -35.19 62.38 C-36.21 63.19 -37.23 64 -38.28 64.84 C-45.56 70.63 -53.07 75.81 -61.19 80.38 C-61.99 80.83 -62.79 81.28 -63.62 81.74 C-87 94.75 -123.46 113.16 -151.19 111.38 C-153.19 108.38 -153.19 108.38 -153.38 105.94 C-151.42 101.72 -147.4 100.92 -143.19 99.38 C-138.66 98 -134.08 96.81 -129.5 95.62 C-103.74 88.73 -76.6 79.77 -55.19 63.38 C-54.66 62.97 -54.13 62.57 -53.58 62.16 C-49.38 58.98 -45.27 55.71 -41.19 52.38 C-40.61 51.91 -40.04 51.44 -39.44 50.95 C-24.18 38.41 -9.17 24.63 0.81 7.38 C-1.17 7.38 -3.15 7.38 -5.19 7.38 C-5.81 5 -5.81 5 -6.19 2.38 C-3.83 0.01 -3.22 0.06 0 0 Z " fill="#000000" transform="translate(571.1875,800.625)"/>
<path d="M0 0 C10.81 5.91 10.81 5.91 14 11 C14.43 13.92 14.48 15.32 12.75 17.75 C9.23 20.26 5.65 20.1 1.45 19.95 C0.36 19.91 -0.72 19.87 -1.84 19.83 C-2.98 19.79 -4.13 19.74 -5.31 19.69 C-6.48 19.64 -7.65 19.59 -8.85 19.54 C-32.94 18.44 -32.94 18.44 -40 14 C-41.21 11.6 -41.17 10.56 -40.4 8 C-32.4 -7.63 -14.3 -6.69 0 0 Z " fill="#000000" transform="translate(539,659)"/>
<path d="M0 0 C2.09 1.19 4.06 2.43 5.77 4.14 C6.33 7.26 6.33 7.26 5.77 11.14 C0.38 17.61 -7.71 21.7 -14.86 25.89 C-15.97 26.55 -17.07 27.2 -18.21 27.88 C-33.62 37.01 -33.62 37.01 -39.23 36.14 C-41.17 34.51 -41.17 34.51 -42.23 32.14 C-42.23 23.21 -35.39 15.6 -29.64 9.44 C-21.75 1.9 -11.1 -4.29 0 0 Z " fill="#000000" transform="translate(271.234375,737.86328125)"/>
<path d="M0 0 C2.48 0.5 2.48 0.5 5 1 C5.68 2.71 5.68 2.71 6 5 C-0.98 19.37 -16.43 31.13 -31 37 C-36.97 38.88 -42.7 40.45 -49 40 C-49.66 39.34 -50.32 38.68 -51 38 C-50.62 35.38 -50.62 35.38 -50 33 C-49.17 32.77 -49.17 32.77 -48.32 32.54 C-27.55 26.82 -12.5 18 0 0 Z " fill="#000000" transform="translate(550,867)"/>
</svg>
