<?xml version="1.0" encoding="utf-8"?>
<!-- Generator: Adobe Illustrator 23.0.1, SVG Export Plug-In . SVG Version: 6.00 Build 0)  -->
<svg version="1.1" id="Layer_1" xmlns="http://www.w3.org/2000/svg" xmlns:xlink="http://www.w3.org/1999/xlink" x="0px" y="0px"
	 viewBox="0 0 864 864" style="enable-background:new 0 0 864 864;" xml:space="preserve">
<style type="text/css">
	.st0{fill:#050505;}
</style>
<path class="st0" d="M672.86,646.52c-0.11-0.94-0.19-1.69-0.62-2.53c-20.69-83.44-66.04-217.84-109.15-337.23
	c-0.07-0.35-0.22-0.59-0.34-0.94c-32.84-90.91-64.15-172.65-81.61-214.75c-36.22-87.5-42.44-87.5-48.97-87.5
	c-7.23,0-29.31,0-250.74,689.63c-1.14,3.52,0.25,7.33,3.36,9.32c17.11,10.87,121.4,23.32,230.15,29.99l-1.73,119.62
	c-0.06,4.5,3.49,8.18,7.99,8.25c0.06,0,0.06,0,0.13,0c4.44,0,8.06-3.55,8.12-7.99l1.72-118.95c43.59,2.43,87.23,3.92,125.65,3.92
	c64.19,0,113.8-4.06,124.14-14.34C687.13,716.82,683.01,687.92,672.86,646.52z M652.74,632.34L434.18,526.21L436,400.2l167.8,75.17
	C623.63,535.49,640.84,590.36,652.74,632.34z M596.87,454.48l-160.62-71.94l1.93-133.6l110.35,64.9
	C565.14,360.73,581.56,408.55,596.87,454.48z M540,289.96l-101.54-59.71l2.72-187.86c0.02-1.26-0.22-2.77-0.33-4.18
	C462.02,79.78,500.51,179.54,540,289.96z M415.19,715.54c-96-5.14-188.65-14.15-216.12-24.16c3.99-12.42,8.16-25.32,12.35-38.27
	l206.24-107.15L415.19,715.54z M417.91,527.55L218.54,631.13c14.31-44.12,29.46-90.39,44.91-137.12l156.22-87.91L417.91,527.55z
	 M419.95,387.3l-148.89,83.78c15.07-45.4,30.26-90.73,45.06-134.3l105.79-84.82L419.95,387.3z M422.21,230.92l-96.31,77.2
	c42.08-123.06,79.65-227.62,99.06-270c0.01,1.35-0.17,2.69-0.02,4.01L422.21,230.92z M669.54,711.43
	c-12.91,10.39-125.42,10.42-238.12,4.92l2.5-172.24l224.52,109.04C666.76,684.32,671.31,706.08,669.54,711.43z"/>
</svg>
