<?xml version="1.0" encoding="utf-8"?>
<!-- Generator: Adobe Illustrator 23.0.1, SVG Export Plug-In . SVG Version: 6.00 Build 0)  -->
<svg version="1.0" id="Слой_1" xmlns="http://www.w3.org/2000/svg" xmlns:xlink="http://www.w3.org/1999/xlink" x="0px" y="0px"
	 viewBox="0 0 720 720" style="enable-background:new 0 0 720 720;" xml:space="preserve">
<style type="text/css">
	.st0{fill-rule:evenodd;clip-rule:evenodd;fill:#000002;}
</style>
<path class="st0" d="M662,348.2c-1-0.1-1.9,0.4-2.6,1.1c-0.7,0.7-1.1,1.6-1.5,2.5c-2,4.4-2.9,8.7-4.9,13.6c1.7-8.5,3-17,3.9-25.5
	l0.7-0.6c1.2-1,2.6-2.2,3.8-3.3l1-0.9c1.3-1.2,2-2.6,1.8-3.9l-0.1-0.6l-0.6-0.1c-2.6-0.3-4.8,1.5-5.9,3.5c-0.1,0.2-0.2,0.5-0.3,0.7
	c0.2-2.7,0.4-5.5,0.6-8.2c2.8-3.7,9.3-13.3,9-17.7c-0.1-1.5-1.7-2.7-3.2-2.6c-1,0-1.8,0.7-2.4,1.5c-0.5,0.8-0.8,1.8-1,2.7
	c-1.2,4.5-1.3,8.7-2.3,13.6c0.8-16.5,0-32.9-2.2-49.1l0.8-1c1-1.3,2-2.7,3-4.1l0.8-1.1c1-1.4,1.3-2.9,0.9-4.2l-0.2-0.5l-0.6,0.1
	c-2.6,0.3-4.4,2.5-5,4.7c-0.2,0.6-0.3,1.3-0.3,2c-0.8-5.1-1.8-10.1-2.8-15.1c0,0,0.1,0.1,0.1,0.1c0-2-0.2-4.3-0.3-6.3
	c-0.1-1.3-0.5-2.6-1.6-3.2c-1.5,1.5-1.6,4-0.7,5.9c0.2,0.6,0.6,1.1,0.9,1.6l-0.2,0c0.4,1.7,0.7,3.4,1,5c-1.3-1.5-3.3-2.7-5.5-2.2
	l-0.6,0.1l0,0.6c-0.1,1.3,0.7,2.7,2.1,3.8l1.1,0.8c1.3,1,2.7,2.1,4,3l0.1,0.1c1.7,9.3,2.8,18.6,3.5,28.1c-1.4-4.6-1.9-8.7-3.5-12.9
	c-0.3-0.9-0.7-1.9-1.3-2.6c-0.6-0.8-1.5-1.3-2.5-1.3c-1.5,0.1-3,1.4-2.9,2.9c0.1,4.2,7,12.8,10.3,16.5c0.2,4.1,0.4,8.3,0.5,12.4
	c-0.2-0.5-0.3-1-0.5-1.4c-1-2-3.2-3.9-5.8-3.6l-0.6,0.1l-0.1,0.6c-0.2,1.3,0.4,2.8,1.7,4l0.9,0.9c1.2,1.2,2.5,2.4,3.8,3.4l0.6,0.5
	c0,9.8-0.6,19.7-1.7,29.5c-0.6-4.7-0.5-8.7-1.3-13.1c-0.2-1-0.4-1.9-0.8-2.8c-0.5-0.9-1.3-1.6-2.3-1.7c-1.5-0.2-3.2,0.9-3.3,2.4
	c-0.6,4.2,4.8,13.6,7.5,17.8c-0.4,3.7-1,7.3-1.6,11c-0.1-1.4-0.4-3-1.1-4.3c-1-2-3.2-3.9-5.8-3.6l-0.6,0.1l-0.1,0.6
	c-0.2,1.3,0.4,2.8,1.7,4l0.9,0.9c1.2,1.2,2.5,2.4,3.8,3.4l0.9,0.8c-1.2,6.8-2.6,13.6-4.2,20.3c0-4.9,0.7-9,0.5-13.6
	c0-1-0.1-2-0.4-2.9c-0.3-0.9-1.1-1.7-2-2c-1.4-0.4-3.2,0.5-3.6,1.9c-1.2,4.1,3,14.5,5,18.9c-1.6,6.4-3.5,12.8-5.6,19.2l1.3,0.4
	c1.3-4,2.6-8.1,3.7-12.2l0.4-0.3c1.2-1,2.6-2.2,3.8-3.3l1-0.9c1.3-1.1,2-2.6,1.8-3.9l-0.1-0.6l-0.6-0.1c-1.7-0.2-3.1,0.5-4.3,1.5
	c1-4.1,2-8.2,2.8-12.4c3.3-3.1,11.6-11.6,12.1-15.9C664.8,349.8,663.4,348.3,662,348.2 M658.9,334.7c0.7-1.3,2.1-2.6,3.7-2.7
	c-0.1,0.7-0.6,1.4-1.3,2l-1,0.9c-0.8,0.7-1.5,1.4-2.3,2C658.3,336.1,658.6,335.4,658.9,334.7 M657,269.2c0.4-1.4,1.5-3,3-3.5
	c0,0.7-0.3,1.5-0.8,2.2l-0.8,1.1c-0.6,0.8-1.2,1.7-1.8,2.5C656.7,270.7,656.8,269.9,657,269.2 M649.6,260.7l-1.1-0.8
	c-0.7-0.6-1.2-1.2-1.4-1.9c1.6,0,3.1,1.2,3.9,2.4c0.4,0.6,0.8,1.4,1,2.1C651.2,262,650.4,261.3,649.6,260.7 M653.7,307.3l-0.9-0.9v0
	c-0.7-0.6-1.1-1.3-1.2-2c1.6,0.2,3,1.5,3.7,2.8c0.3,0.7,0.6,1.4,0.8,2.2C655.2,308.8,654.4,308,653.7,307.3 M649.5,351.8l-0.9-0.9v0
	c-0.7-0.6-1.1-1.3-1.2-2c1.6,0.2,3,1.5,3.7,2.8c0.3,0.7,0.6,1.4,0.8,2.2C651,353.2,650.2,352.5,649.5,351.8 M653.2,379.5
	c-0.1,0.7-0.6,1.4-1.3,2l-1,0.9c-0.8,0.7-1.5,1.4-2.3,2c0.2-0.7,0.5-1.5,0.8-2.1C650.2,380.9,651.6,379.6,653.2,379.5"/>
<path class="st0" d="M486.8,81.5c0.6,0.1,1.2,0.2,1.9,0.2l-0.1,0.2c1.6,0.7,3.2,1.5,4.7,2.3c-2,0.1-4.2,1-5.2,3l-0.2,0.5l0.4,0.4
	c0.7,0.6,1.6,0.9,2.6,0.9c0.5,0,1.1-0.1,1.6-0.2l1.2-0.3c1.6-0.5,3.4-0.9,4.9-1.4l0.1,0c8.4,4.3,16.6,9,24.5,14.2
	c-4.5-1.7-8.1-3.7-12.4-5.1c-0.9-0.3-1.9-0.6-2.9-0.6c-1,0-2,0.4-2.6,1.2c-0.8,1.2-0.7,3.2,0.5,4.1c3.4,2.5,14.5,2.1,19.4,1.7
	c3.4,2.3,6.8,4.7,10.2,7.1c-0.5-0.2-0.9-0.3-1.4-0.4c-2.2-0.4-5,0.2-6.4,2.4l-0.3,0.5l0.4,0.4c0.7,0.8,1.8,1.1,3,1.1
	c0.4,0,0.7,0,1.1-0.1l1.4-0.2c1.6-0.3,3.3-0.6,4.9-0.9l0.7-0.2c7.8,6,15.3,12.4,22.5,19.2c-4.1-2.3-7.3-4.9-11.3-6.9
	c-0.9-0.4-1.8-0.9-2.7-1c-1-0.1-2,0.1-2.7,0.8c-1,1-1.2,3.1-0.1,4.1c3,3,13.8,4.4,18.7,4.8c2.6,2.6,5.2,5.2,7.8,7.9
	c-1.2-0.8-2.6-1.4-4.1-1.7c-2.2-0.4-5,0.2-6.4,2.4l-0.3,0.5l0.4,0.4c0.7,0.7,1.8,1.1,3,1.1c0.4,0,0.7,0,1.1-0.1l1.2-0.2
	c1.7-0.3,3.5-0.6,5.1-1l1.1-0.2c4.7,5.1,9.3,10.3,13.7,15.7c-4-3-6.8-6.1-10.6-8.7c-0.8-0.6-1.6-1.1-2.6-1.4c-0.9-0.3-2-0.2-2.8,0.4
	c-1.2,0.9-1.6,2.9-0.7,4c2.6,3.4,13.4,6.4,18.1,7.4c4.1,5.2,8.1,10.6,11.9,16.1l1.1-0.8c-2.4-3.5-4.9-6.9-7.4-10.3l0-0.5
	c-0.1-1.6-0.2-3.4-0.3-5.1l-0.1-1.3c-0.1-1.7-0.9-3.1-2-3.8l-0.5-0.3l-0.4,0.4c-1.2,1.2-1.5,2.8-1.4,4.3c-2.6-3.3-5.4-6.6-8.1-9.7
	c-0.4-4.5-2.2-16.2-5.4-19.3c-1.1-1-3.1-0.8-4.1,0.3c-0.7,0.7-0.9,1.8-0.7,2.7c0.2,1,0.6,1.8,1.1,2.7c2.3,4.3,5.2,7.5,7.8,12.1
	c-5.7-6.5-11.7-12.6-17.9-18.5l0-0.9c-0.1-1.6-0.2-3.4-0.3-5.1l-0.1-1.2c-0.1-1.7-0.9-3.1-2-3.8l-0.5-0.3l-0.4,0.4
	c-1.8,1.9-1.7,4.7-0.8,6.8c0.1,0.2,0.3,0.4,0.4,0.6c-2-1.8-4.1-3.7-6.2-5.4c-1.3-4.5-5-15.5-8.6-17.9c-1.2-0.8-3.2-0.2-4,1
	c-0.5,0.8-0.5,1.9-0.2,2.8c0.3,0.9,0.9,1.7,1.5,2.5c2.9,3.7,6.2,6.3,9.4,10.1c-12.7-10.6-26.2-19.9-40.5-27.9l-0.3-1.3
	c-0.4-1.6-1-3.3-1.5-5l-0.4-1.1c-0.5-1.7-1.5-2.8-2.8-3.2l-0.5-0.2l-0.3,0.5c-1.4,2.2-0.6,5,0.7,6.8c0.4,0.5,0.8,1,1.3,1.4
	c-4.5-2.4-9-4.7-13.7-6.8c0.1,0,0.1,0,0.2,0c-1.6-1.2-3.5-2.4-5.2-3.6c-1-0.7-2.4-1.1-3.5-0.7C482.8,79.4,484.8,81,486.8,81.5
	 M493.4,86.9l-1.2,0.3c-0.5,0.1-1.5,0.3-2.4,0c1-1.3,2.8-1.8,4.3-1.6c0.8,0.1,1.5,0.2,2.3,0.5C495.4,86.3,494.4,86.6,493.4,86.9
	 M533.2,111.8l-1.4,0.2c-0.9,0.2-1.7,0.1-2.3-0.2c1.1-1.2,3-1.5,4.4-1.2c0.7,0.1,1.5,0.4,2.2,0.7
	C535.1,111.4,534.2,111.6,533.2,111.8 M565.9,142l-1.2,0.2c-0.9,0.2-1.7,0.1-2.3-0.2c1.1-1.2,3-1.5,4.4-1.2c0.8,0.1,1.5,0.4,2.2,0.7
	C567.9,141.7,566.9,141.8,565.9,142 M590.3,155.8c0.4,0.5,0.7,1.3,0.8,2.2l0.1,1.3c0.1,1,0.2,2.1,0.2,3.1c-0.5-0.6-0.9-1.3-1.2-2
	C589.6,159.1,589.4,157.2,590.3,155.8 M558.2,119.5c0.4,0.5,0.7,1.3,0.8,2.2l0.1,1.2c0.1,1,0.2,2.1,0.2,3.1c-0.5-0.6-0.9-1.3-1.2-2
	C557.5,122.8,557.3,120.9,558.2,119.5 M503.8,81.6c0.6,0.4,1,1.1,1.3,2l0.4,1.1c0.3,1,0.6,2,0.9,3c-0.6-0.5-1.2-1-1.6-1.6
	C503.8,84.9,503.2,83.1,503.8,81.6"/>
<path class="st0" d="M233.5,98.8c0.5-0.4,0.9-0.8,1.3-1.3l0.1,0.2c1.5-0.8,3.1-1.6,4.6-2.3c-1.1,1.6-1.7,3.9-0.7,5.9l0.3,0.5
	l0.6-0.1c1.3-0.3,2.4-1.4,3.1-3l0.4-1.1c0.7-1.6,1.4-3.3,1.9-4.8l0-0.1c8.5-4,17.3-7.6,26.2-10.7c-4.1,2.5-7.9,4.1-11.6,6.7
	c-0.8,0.6-1.6,1.1-2.2,1.9c-0.6,0.8-0.9,1.8-0.6,2.8c0.4,1.4,2.1,2.5,3.5,2.1c4-1.2,10.5-10.1,13.2-14.3c3.9-1.3,7.9-2.6,11.9-3.7
	c-0.4,0.3-0.9,0.5-1.2,0.9c-1.6,1.5-2.9,4.1-2,6.5l0.2,0.5l0.6-0.1c1.3-0.2,2.6-1.1,3.4-2.7l0.6-1.2c0.8-1.5,1.6-3,2.3-4.5l0.3-0.7
	c9.5-2.5,19.2-4.6,29-6c-4.4,1.8-8.3,2.8-12.4,4.7c-0.9,0.4-1.8,0.9-2.5,1.5c-0.7,0.7-1.2,1.7-1,2.6c0.2,1.4,1.7,2.8,3.2,2.6
	c4.2-0.6,11.9-8.2,15.2-11.9c3.7-0.5,7.3-0.9,11-1.3c-1.4,0.4-2.8,1.2-3.9,2.2c-1.7,1.5-2.9,4.1-2,6.5l0.2,0.5l0.6-0.1
	c1.3-0.1,2.6-1.1,3.4-2.7l0.6-1.1c0.8-1.5,1.6-3.1,2.3-4.5l0.5-1.1c6.9-0.7,13.9-1.1,20.8-1.2c-4.8,1.3-9,1.7-13.5,3.1
	c-0.9,0.3-1.9,0.6-2.7,1.2c-0.8,0.6-1.4,1.5-1.4,2.5c0,1.5,1.3,3,2.8,3c4.3,0,13.2-6.7,16.9-9.8c6.6-0.1,13.3,0,20,0.4l0.1-1.4
	c-4.2-0.2-8.5-0.4-12.7-0.4l-0.4-0.3c-1.3-0.9-2.7-1.9-4.1-2.8l-1.1-0.8v0c-1.5-1-3-1.2-4.2-0.7l-0.5,0.2L354,62
	c0.2,1.6,1.3,2.9,2.6,3.8c-4.2,0.1-8.5,0.2-12.7,0.5c-3.9-2.4-14.2-8.2-18.5-7.5c-1.4,0.2-2.5,1.9-2.3,3.4c0.1,1,0.9,1.8,1.7,2.2
	c0.9,0.5,1.8,0.6,2.8,0.8c4.8,0.8,9.2,0.5,14.4,1.2c-8.6,0.6-17.2,1.5-25.6,2.9l-0.8-0.5c-1.3-0.9-2.7-1.9-4.1-2.8l-1.2-0.8v0
	c-1.5-1-3-1.2-4.2-0.7l-0.5,0.2l0.1,0.6c0.4,2.6,2.7,4.2,4.9,4.8c0.2,0.1,0.5,0,0.8,0.1c-2.7,0.5-5.4,1-8.1,1.6
	c-4.3-1.7-15.3-5.5-19.4-4.1c-1.4,0.5-2.1,2.4-1.7,3.7c0.3,0.9,1.2,1.6,2.1,1.9c0.9,0.3,1.9,0.3,2.9,0.3c4.7-0.1,8.8-1,13.7-1.3
	c-16.1,3.5-31.8,8.5-46.9,14.9l-1.2-0.5c-1.5-0.6-3.1-1.2-4.7-1.8l-1.3-0.5c-1.6-0.6-3.2-0.5-4.3,0.3l-0.5,0.3l0.2,0.5
	c0.9,2.4,3.6,3.5,5.8,3.6h0.1c0.6,0,1.3-0.1,1.9-0.2c-4.7,2.1-9.3,4.3-13.8,6.7c0-0.1,0.1-0.1,0.1-0.1c-1.9,0.6-4.1,1.3-6,1.9
	c-1.2,0.4-2.4,1.2-2.7,2.4C229.4,100.8,231.9,100.2,233.5,98.8 M241.8,97l-0.4,1.1c-0.3,0.9-0.9,1.5-1.5,1.9
	c-0.4-1.6,0.4-3.3,1.3-4.4c0.5-0.6,1.1-1.1,1.8-1.5C242.6,95,242.2,96.1,241.8,97 M285.8,80.8l-0.6,1.2c-0.4,0.8-1,1.4-1.6,1.7
	c-0.3-1.6,0.7-3.3,1.8-4.3c0.6-0.5,1.2-1,1.9-1.3C286.8,79,286.3,79.9,285.8,80.8 M329.8,73.3l-0.6,1.1c-0.4,0.8-1,1.4-1.6,1.7
	c-0.3-1.6,0.7-3.3,1.8-4.3c0.6-0.5,1.2-1,1.9-1.3C330.7,71.5,330.2,72.4,329.8,73.3 M307.3,65.7c0.7,0,1.5,0.2,2.2,0.7l1.2,0.8
	c0.8,0.5,1.7,1.1,2.5,1.7c-0.8,0-1.6-0.1-2.3-0.3C309.4,68.2,307.8,67.2,307.3,65.7 M248.1,87.5c-1.5,0-3.3-0.7-4.1-2
	c0.7-0.2,1.5-0.1,2.3,0.2l1.3,0.5c0.9,0.3,1.9,0.7,2.8,1.1C249.6,87.5,248.9,87.6,248.1,87.5 M355.6,62.5c0.7,0,1.5,0.2,2.2,0.7
	l1.1,0.8c0.8,0.6,1.7,1.1,2.5,1.7c-0.8,0-1.6-0.1-2.3-0.3C357.8,65,356.1,64,355.6,62.5"/>
<path class="st0" d="M597.2,181.2c-0.2,1.2,0,2.4,0.4,3.6c2,6,5.8,10.8,10.7,14.7c1.7,1.3,3.6,2.3,5.7,2.5c1.5,0.2,2.2,1,2.8,2.2
	c3,5.9,6.3,11.6,9.3,17.6c2.1,4.3,4.1,8.6,6,13.1c-0.6,0.1-0.8-0.2-1.1-0.4c-3.7-2.9-7.8-5-12.1-6.8c-1.5-0.6-3.1-1-4.7-1.4
	c-0.7-0.2-1.4-0.1-1.9,0.6c-0.4,0.6-0.3,1.2,0.1,1.8c0.3,0.6,0.7,1.2,1.2,1.7c3.4,4,7.6,7.2,12.3,9.6c2.5,1.3,5.1,2.6,8,2.9
	c0.8,0.1,1.3,0.6,1.6,1.4c0.4,1.3,0.8,2.7,1.2,4c3.2,10.1,5.3,20.5,6.3,31c1,10.2,1,20.4-0.6,30.6c0,0.3-0.1,0.6,0,0.9
	c0.1,0.6,0.5,1.1,1.1,1.1c0.7,0.1,1.1-0.2,1.4-0.8c0.2-0.4,0.2-0.9,0.3-1.4c0.7-5.3,1.2-10.6,1.1-16c0-16.2-2.5-32-7.6-47.3
	c-0.7-2.2-0.5-3.9,0.5-5.7c1.5-2.8,2.3-5.8,2.8-8.9c0.9-5.2,0.1-10.3-0.3-15.5c-0.1-0.7-0.4-1.2-1.1-1.4c-0.7-0.2-1.2,0.3-1.6,0.9
	c-1.6,2.7-3,5.5-3.6,8.6c-0.4,2.5-0.8,4.9-1,7.4c0,0.4,0.2,0.8-0.3,1.1c-0.9-2-1.7-3.9-2.6-5.8c-2.9-6.2-5.9-12.3-9.3-18.1
	c-1.1-1.9-2.2-3.7-3.2-5.6c-0.4-0.8-0.5-1.3,0.4-1.8c1.1-0.6,1.8-1.5,2.5-2.4c1.5-2.1,2.5-4.5,3-7c0.8-3.9,0.9-7.9,0.2-11.8
	c-0.4-2-0.8-4-1.9-5.8c-0.8-1.4-1.8-2.5-3.6-2.3c-1.8,0.1-2.8,1.3-3.4,2.9c-0.1,0.3-0.2,0.7-0.4,1c-0.2,0.3,0,0.9-0.5,1
	c-0.6-1-1.1-2-1.7-3c-0.6-1-1.4-1.9-2.4-2.4c-2-1.1-3.9-0.6-4.9,1.6c-0.5,1-0.6,2.1-0.7,3.2c-0.1,1.4,0.1,2.8,0.3,4.3
	c-0.7,0-1-0.5-1.4-0.8c-1.2-0.8-2.5-1.4-4-1.5C598.7,178.3,597.5,179.3,597.2,181.2 M639.1,221.7c0-0.1,0.1-0.2,0.5-0.5
	c0.8,5.7,0.3,11.1-1.8,16.5c-0.5-0.5-0.5-1-0.6-1.5C636.9,231.3,637.6,226.5,639.1,221.7 M616.5,229.6c5.8,2.2,11.1,5.2,15.8,9.6
	C629.3,239.4,619.6,233.6,616.5,229.6 M600.1,181.2c0.5-0.4,1.2,0,1.8,0.3c1.5,0.8,2.6,1.9,3.8,3.1c0.7,0.7,1.3,1.5,2,2.2
	c0.5,0.5,1.1,0.8,1.7,0.4c0.7-0.4,1-1,0.9-1.8c-0.1-0.5-0.3-1-0.4-1.5c-0.5-1.7-1.2-3.3-1.5-5c-0.2-1.5-0.2-2.9,0.3-4.3
	c0.3-0.8,0.7-1,1.4-0.5c0.8,0.5,1.3,1.3,1.7,2.1c0.7,1.3,1.4,2.7,1.9,4.1c0.3,1.1,0.6,2.1,0.9,3.2c0.2,0.9,0.8,1.7,1.3,2.4
	c0.3,0.4,0.7,0.6,1.2,0.5c0.6-0.1,0.9-0.6,0.9-1.1c0-0.5-0.1-1-0.1-1.6c-0.1-2.3-0.2-4.5,0.4-6.7c0.2-0.8,0.4-2,1.4-2
	c1,0,1.3,1.1,1.6,1.8c1,2.3,1.4,4.7,1.5,7.1c0.2,4.2-0.1,8.4-2.2,12.2c-0.5,0.9-1,1.7-1.7,2.4c-0.6,0.5-1.1,1.3-2.1,0.7
	c-0.1-0.1-0.3-0.1-0.3,0c-2.6,1-4.6-0.4-6.4-1.8c-4.6-3.6-8.2-8.1-10-13.8c-0.1-0.3-0.2-0.6-0.2-0.8
	C599.9,182.4,599.6,181.6,600.1,181.2"/>
<path class="st0" d="M381.6,68.7c1.1,0.9,2.4,1.5,3.7,2.1c-0.4,0.6-1,0.5-1.4,0.7c-1.4,0.6-2.6,1.3-3.5,2.5c-1.1,1.5-1,3.1,0.5,4.3
	c0.9,0.8,2,1.3,3.2,1.7c6.1,1.7,12.2,1.2,18.2-0.7c2-0.6,3.9-1.7,5.2-3.3c1-1.2,2-1.3,3.4-1.1c6.6,0.8,13.2,1.2,19.8,2.1
	c4.7,0.6,9.4,1.3,14.2,2.3c-0.2,0.6-0.6,0.6-1,0.7c-4.5,1.4-8.5,3.7-12.4,6.3c-1.4,0.9-2.6,2-3.8,3.1c-0.6,0.5-0.8,1.1-0.6,1.9
	c0.3,0.7,0.9,0.9,1.5,0.9c0.7,0,1.4,0,2.1,0c5.3-0.6,10.2-2.3,14.8-4.9c2.5-1.4,5-2.8,6.9-5c0.5-0.6,1.2-0.8,2.1-0.5
	c1.3,0.4,2.7,0.8,4,1.2c10.2,3,20,6.9,29.3,12c9,4.9,17.5,10.5,25.1,17.5c0.2,0.2,0.5,0.4,0.7,0.5c0.6,0.2,1.2,0.2,1.6-0.3
	c0.4-0.5,0.4-1.1,0.1-1.6c-0.3-0.4-0.6-0.7-1-1c-4-3.5-8.2-6.9-12.6-9.9c-13.4-9-27.9-15.7-43.5-20c-2.2-0.6-3.5-1.8-4.5-3.6
	c-1.5-2.8-3.6-5.1-5.8-7.3c-3.8-3.7-8.5-5.8-13-8.3c-0.6-0.3-1.2-0.3-1.8,0.2c-0.6,0.5-0.4,1.2-0.1,1.8c1.3,2.8,2.9,5.6,5.2,7.8
	c1.8,1.7,3.6,3.4,5.6,5c0.3,0.2,0.8,0.3,0.8,0.9c-2.1-0.4-4.2-0.8-6.3-1.1c-6.7-1-13.5-1.9-20.3-2.4c-2.1-0.1-4.3-0.2-6.4-0.5
	c-0.9-0.1-1.3-0.4-1.2-1.3c0.1-1.2-0.2-2.3-0.6-3.4c-0.9-2.4-2.3-4.6-4.1-6.4c-2.8-2.8-6.1-5.1-9.7-6.7c-1.9-0.8-3.8-1.5-5.9-1.6
	c-1.6-0.1-3.1,0.1-3.9,1.7c-0.9,1.6-0.5,3,0.5,4.4c0.2,0.3,0.4,0.5,0.6,0.8c0.2,0.3,0.7,0.5,0.5,1c-1.2-0.1-2.3-0.2-3.4-0.3
	c-1.2-0.1-2.3,0.1-3.4,0.7c-2.1,1.1-2.6,2.9-1.4,4.9C380,67.2,380.8,68,381.6,68.7 M431.8,89.2c5.1-3.6,10.6-6.3,16.8-7.8
	C447.1,84.1,436.9,88.8,431.8,89.2 M437.8,66.1c-0.1-0.1-0.1-0.2-0.2-0.7c5.2,2.5,9.4,6,12.7,10.7c-0.7,0.1-1.1-0.1-1.5-0.4
	C444.6,73.2,441,70,437.8,66.1 M382.3,63.6c0.9-0.4,1.8-0.3,2.8-0.3c1.5,0.1,3,0.3,4.5,0.7c1,0.3,2.1,0.6,3.1,1.1
	c0.9,0.3,1.8,0.3,2.7,0.3c0.5,0,0.9-0.3,1.1-0.8c0.2-0.6,0-1-0.4-1.4c-0.4-0.3-0.9-0.5-1.3-0.8c-2-1.2-3.9-2.4-5.4-4.1
	c-0.5-0.7-1.4-1.4-0.9-2.3c0.5-0.8,1.6-0.5,2.4-0.3c2.4,0.5,4.7,1.5,6.7,2.7c3.6,2.2,6.9,4.8,8.9,8.6c0.5,0.9,0.9,1.8,1,2.8
	c0.1,0.8,0.4,1.6-0.6,2.2c-0.1,0-0.2,0.2-0.2,0.3c-0.6,2.7-2.9,3.6-5,4.3c-5.6,1.8-11.3,2.3-17,0.6c-0.3-0.1-0.6-0.1-0.8-0.3
	c-0.6-0.3-1.4-0.5-1.4-1.2c0-0.6,0.7-1,1.2-1.3c1.5-0.8,3-1.1,4.6-1.4c1-0.2,2-0.3,2.9-0.4c0.7-0.1,1.2-0.5,1.3-1.2
	c0.1-0.8-0.3-1.4-1-1.7c-0.5-0.2-1-0.3-1.5-0.5c-1.7-0.5-3.4-0.8-5-1.6c-1.3-0.6-2.5-1.5-3.4-2.7C381.3,64.4,381.4,64,382.3,63.6"/>
<path class="st0" d="M152.5,167.9c0.3,0,0.7,0,1,0c0.4,0,0.8-0.3,1.1,0.2c-0.8,0.9-1.6,1.7-2.3,2.6c-0.8,0.9-1.3,1.9-1.5,3.1
	c-0.4,2.3,0.8,3.9,3.1,4.1c1.1,0.1,2.2-0.1,3.3-0.4c1.4-0.3,2.6-1,3.9-1.7c0.2,0.7-0.1,1.1-0.3,1.6c-0.4,1.4-0.5,2.9-0.1,4.3
	c0.5,1.8,1.9,2.6,3.7,2.2c1.2-0.3,2.3-0.8,3.3-1.6c5-3.9,8.3-9,10.4-15c0.7-2,1-4.1,0.5-6.2c-0.3-1.5,0.2-2.4,1.1-3.4
	c4.6-4.8,8.9-9.8,13.6-14.5c3.3-3.4,6.7-6.7,10.4-9.9c0.3,0.5,0.1,0.9,0,1.2c-1.6,4.4-2.1,9-2.5,13.7c-0.1,1.6,0.1,3.3,0.2,4.9
	c0,0.8,0.4,1.3,1.2,1.6c0.7,0.2,1.3-0.2,1.7-0.7c0.5-0.5,0.9-1.1,1.2-1.7c2.7-4.6,4.3-9.5,5-14.8c0.4-2.8,0.8-5.6,0.2-8.5
	c-0.2-0.8,0.1-1.5,0.9-2c1.1-0.8,2.3-1.6,3.4-2.5c8.5-6.3,17.6-11.8,27.2-16.2c9.3-4.3,18.9-7.7,29.1-9.5c0.3-0.1,0.6-0.1,0.8-0.3
	c0.5-0.3,0.8-0.8,0.7-1.5c-0.1-0.6-0.6-1-1.2-1c-0.5,0-0.9,0.1-1.4,0.2c-5.2,1.1-10.4,2.4-15.5,4.2c-15.3,5.3-29.4,12.8-42.2,22.7
	c-1.8,1.4-3.5,1.7-5.6,1.4c-3.1-0.5-6.2-0.3-9.4,0.3c-5.2,0.8-9.8,3.3-14.5,5.4c-0.6,0.3-1,0.8-0.9,1.5c0.1,0.8,0.7,1,1.3,1.2
	c3.1,0.6,6.2,1.1,9.3,0.6c2.5-0.4,4.9-0.8,7.3-1.5c0.3-0.1,0.7-0.5,1.2-0.1c-1.6,1.5-3.1,2.9-4.6,4.4c-4.9,4.7-9.6,9.6-14.1,14.8
	c-1.4,1.6-2.8,3.3-4.3,4.8c-0.6,0.7-1.1,0.9-1.8,0.2c-0.9-0.8-2-1.2-3.1-1.5c-2.5-0.7-5-0.9-7.6-0.5c-4,0.5-7.7,1.8-11.2,3.7
	c-1.8,1-3.5,2.1-4.8,3.7c-1,1.2-1.7,2.5-1,4.1C149.4,167.3,150.8,167.8,152.5,167.9 M207.7,131.7c1.2,2.8-1.1,13.9-3.9,18.1
	C204,143.6,205.1,137.6,207.7,131.7 M189,131.1c-0.1,0-0.2-0.1-0.6-0.3c5.2-2.6,10.4-3.9,16.2-3.7c-0.3,0.6-0.8,0.8-1.2,1
	C198.8,130,194,130.9,189,131.1 M152.5,162.5c1.8-1.7,4-2.8,6.3-3.7c3.9-1.6,7.9-2.6,12.2-1.9c1,0.2,1.9,0.4,2.8,0.9
	c0.7,0.4,1.6,0.7,1.4,1.7c0,0.1,0,0.3,0.1,0.3c1.8,2.1,1.2,4.5,0.4,6.6c-1.9,5.5-4.9,10.4-9.7,13.9c-0.2,0.2-0.5,0.4-0.7,0.5
	c-0.6,0.3-1.2,0.8-1.8,0.4c-0.5-0.4-0.4-1.2-0.3-1.8c0.2-1.6,0.9-3.1,1.7-4.6c0.5-0.9,1-1.7,1.4-2.6c0.3-0.6,0.4-1.3-0.2-1.8
	c-0.6-0.6-1.3-0.6-1.9-0.2c-0.5,0.2-0.9,0.6-1.3,0.9c-1.4,1-2.7,2.2-4.3,3c-1.3,0.7-2.7,1.1-4.2,1.1c-0.9,0-1.1-0.4-0.9-1.2
	c0.2-0.9,0.8-1.7,1.5-2.3c1-1.1,2.1-2.2,3.3-3.1c0.9-0.6,1.8-1.3,2.7-1.9c0.8-0.5,1.3-1.3,1.9-2c0.3-0.4,0.3-0.9,0-1.3
	c-0.3-0.5-0.8-0.6-1.4-0.5c-0.5,0.1-1,0.4-1.4,0.6c-2.1,0.9-4.2,1.7-6.5,1.8c-0.8,0-2,0.3-2.3-0.7
	C150.9,163.7,151.9,163,152.5,162.5"/>
<path class="st0" d="M175.8,551.7c-0.5-0.3-1.1-0.6-1.6-0.9l0.1-0.1c-1.2-1.3-2.4-2.5-3.6-3.8c0.7,0.2,1.5,0.4,2.3,0.4
	c1.3,0,2.6-0.4,3.6-1.3l0.4-0.4l-0.3-0.5c-0.6-1.2-2-2-3.7-2.1l-1.4-0.1c-1.7-0.2-3.4-0.4-4.9-0.4l-0.2,0
	c-6.3-7.1-12.1-14.5-17.6-22.2c3.6,3.2,6.2,6.4,9.7,9.2c0.8,0.6,1.5,1.2,2.5,1.6c0.9,0.3,2,0.4,2.8-0.2c1.2-0.8,1.8-2.7,1-4
	c-2.3-3.5-12.7-7.3-17.4-8.7c-2.4-3.4-4.7-6.8-6.9-10.3c0.4,0.3,0.8,0.7,1.2,0.9c1,0.6,2.4,1.1,3.7,1.1c1.1,0,2.2-0.3,3.1-1l0.5-0.3
	l-0.2-0.5c-0.5-1.2-1.8-2.1-3.5-2.5l-1.3-0.3c-1.7-0.3-3.4-0.7-5-0.9l-0.7-0.1c-5.1-8.4-9.7-17.1-13.9-26.1c3,3.7,5,7.2,8,10.5
	c0.7,0.7,1.3,1.5,2.2,1.9c0.8,0.5,1.9,0.7,2.8,0.3c1.3-0.6,2.2-2.4,1.6-3.8c-1.7-3.8-11.2-9.1-15.7-11.3c-1.5-3.4-3-6.8-4.4-10.2
	c0.8,1.2,1.9,2.3,3.2,3.1c1,0.6,2.4,1.1,3.7,1.1c1.1,0,2.2-0.3,3.1-1l0.5-0.3l-0.2-0.5c-0.5-1.2-1.8-2.1-3.5-2.5l-1.3-0.3
	c-1.7-0.3-3.4-0.7-4.9-0.9l-1.1-0.2c-2.6-6.4-4.9-13-7-19.7c2.6,4.2,4.1,8.2,6.7,12c0.5,0.8,1.1,1.6,1.9,2.2
	c0.8,0.6,1.8,0.9,2.7,0.7c1.4-0.4,2.5-2.1,2.1-3.5c-1.2-4.1-10.1-10.8-14.1-13.5c-1.9-6.4-3.7-12.8-5.2-19.3l-1.3,0.3
	c1,4.1,2,8.2,3.2,12.3l-0.2,0.4c-0.5,1.5-1.1,3.2-1.6,4.8l-0.4,1.2c-0.5,1.7-0.3,3.2,0.5,4.3l0.4,0.4l0.5-0.2
	c1.5-0.7,2.4-2.1,2.9-3.6c1.3,4.1,2.6,8.1,4,12.1c-1.2,4.4-3.9,15.9-2,19.9c0.6,1.3,2.6,1.9,3.9,1.3c0.9-0.4,1.5-1.3,1.6-2.3
	c0.2-1,0.1-2,0-2.9c-0.6-4.8-2.1-8.9-2.9-14.1c3,8.1,6.3,16,9.9,23.8l-0.3,0.9c-0.5,1.5-1.1,3.2-1.6,4.8l-0.4,1.2
	c-0.5,1.7-0.3,3.2,0.5,4.3l0.4,0.4l0.5-0.2c2.4-1.1,3.3-3.8,3.2-6c0-0.2-0.1-0.5-0.1-0.7c1.2,2.5,2.5,4.9,3.8,7.3
	c-0.5,4.6-1,16.2,1.5,19.8c0.8,1.2,2.9,1.4,4.1,0.6c0.8-0.6,1.2-1.6,1.2-2.5c0-1-0.3-1.9-0.5-2.9c-1.3-4.5-3.4-8.1-5.1-12.8
	c7.9,14.5,17.1,28.1,27.5,40.8l-0.2,1.3c-0.2,1.6-0.3,3.4-0.4,5.1l-0.1,1.2c-0.1,1.7,0.4,3.2,1.4,4l0.4,0.4l0.5-0.3
	c2.1-1.6,2.4-4.4,1.8-6.6c-0.2-0.6-0.5-1.2-0.8-1.8c3.3,3.9,6.7,7.7,10.3,11.4c-0.1,0-0.1,0-0.2,0c1.1,1.7,2.4,3.5,3.6,5.2
	c0.7,1,1.8,1.9,3.1,1.9C178.8,555.1,177.6,552.9,175.8,551.7 M171.5,544.2l1.4,0.1c0.9,0.1,1.7,0.4,2.2,0.9
	c-1.4,0.8-3.3,0.6-4.6-0.1c-0.7-0.3-1.3-0.8-1.9-1.3C169.5,544,170.5,544.1,171.5,544.2 M143.9,506.5l1.3,0.3
	c0.9,0.2,1.6,0.6,2.1,1.1c-1.5,0.7-3.3,0.3-4.6-0.5c-0.6-0.4-1.3-0.9-1.8-1.4C141.8,506.1,142.9,506.3,143.9,506.5 M124.3,466.4
	l1.3,0.3c0.9,0.2,1.6,0.6,2.1,1.1c-1.5,0.7-3.3,0.3-4.6-0.5c-0.6-0.4-1.3-0.9-1.8-1.4C122.3,466,123.3,466.2,124.3,466.4
	 M106.7,444.6c-0.2-0.6-0.2-1.5,0.1-2.3l0.4-1.2c0.3-1,0.6-2,0.9-2.9c0.2,0.7,0.4,1.5,0.4,2.3C108.6,441.9,108,443.7,106.7,444.6
	 M123.3,490.1c-0.2-0.6-0.2-1.5,0.1-2.3l0.4-1.2c0.3-1,0.6-2,0.9-3c0.2,0.7,0.4,1.5,0.4,2.3C125.2,487.4,124.6,489.2,123.3,490.1
	 M160.1,545.4c-0.4-0.6-0.5-1.4-0.5-2.3l0.1-1.2c0.1-1,0.2-2.1,0.2-3.1c0.4,0.7,0.7,1.4,0.9,2.1
	C161.3,542.2,161.2,544.2,160.1,545.4"/>
<path class="st0" d="M418,628.1c-0.6,0.2-1.1,0.5-1.7,0.7l0-0.2c-1.7,0.2-3.4,0.3-5.1,0.5c1.6-1.1,3-3,2.8-5.2l-0.1-0.6l-0.6-0.1
	c-1.3-0.2-2.8,0.4-4,1.6l-0.8,0.9c-1.2,1.3-2.4,2.6-3.5,3.8l-0.1,0.1c-9.4,0.6-18.8,0.8-28.3,0.4c4.7-0.9,8.8-1,13.2-2
	c1-0.2,1.9-0.5,2.7-1c0.8-0.5,1.5-1.4,1.6-2.3c0.1-1.5-1.1-3.1-2.5-3.2c-4.2-0.4-13.5,5.6-17.5,8.4c-4.1-0.2-8.2-0.5-12.3-0.9
	c0.5-0.1,0.9-0.2,1.3-0.4c2.1-0.8,4.2-2.8,4.2-5.4l0-0.6l-0.6-0.1c-1.3-0.4-2.8,0.1-4.1,1.2l-0.9,0.8c-1.3,1.1-2.7,2.3-3.9,3.4
	l-0.5,0.5c-9.7-1.1-19.4-2.8-29.1-4.9c4.7-0.1,8.7,0.4,13.1,0.1c1-0.1,2-0.2,2.9-0.5c0.9-0.4,1.7-1.1,1.9-2.1c0.3-1.4-0.6-3.2-2-3.6
	c-4.1-1-14.1,3.3-18.5,5.5c-3.6-0.8-7.1-1.8-10.6-2.8c0.2,0,0.3,0,0.5,0c1.3,0,2.6-0.2,3.8-0.7c2.1-0.8,4.2-2.8,4.2-5.4l0-0.6
	l-0.6-0.1c-1.3-0.4-2.8,0.1-4.1,1.2l-1,0.9c-1.3,1.1-2.6,2.3-3.8,3.3l-0.8,0.8c-6.7-1.9-13.3-4.1-19.8-6.5c4.9,0.5,9,1.7,13.6,2
	c1,0.1,2,0.1,2.9-0.1c0.9-0.2,1.8-0.9,2.2-1.8c0.5-1.4-0.1-3.3-1.4-3.8c-4-1.6-14.8,1.4-19.4,2.9c-6.2-2.3-12.4-4.9-18.5-7.7
	l-0.6,1.3c3.9,1.8,7.8,3.4,11.7,5l0.2,0.4c0.9,1.3,1.8,2.7,2.8,4.1l0.8,1.1c1,1.4,2.3,2.2,3.6,2.2h0.1l0.6,0l0.1-0.6
	c0.4-1.6-0.1-3.2-1-4.4c4,1.5,8,2.9,12,4.2c2.7,3.7,10.2,12.8,14.5,13.7c1.4,0.3,3-0.9,3.4-2.3c0.2-1-0.2-2-0.8-2.7
	c-0.6-0.7-1.5-1.3-2.3-1.8c-4.2-2.5-8.3-3.8-12.9-6.4c8.2,2.6,16.5,4.9,24.9,6.7l0.5,0.7c0.9,1.3,1.8,2.7,2.8,4.1l0.8,1.1v0
	c1,1.4,2.3,2.2,3.6,2.2h0.1l0.6,0l0.1-0.6c0.6-2.5-1-4.9-2.8-6.2c-0.2-0.1-0.4-0.2-0.7-0.4c2.7,0.5,5.4,1,8.1,1.5
	c3.4,3.2,12.2,10.7,16.6,10.9c1.5,0.1,2.8-1.4,2.9-2.9c0.1-1-0.5-1.9-1.3-2.5c-0.8-0.6-1.7-1-2.6-1.3c-4.3-1.6-8.5-2.3-13.2-3.8
	c13.9,2.2,27.8,3.3,41.8,3.3c2.4,0,4.9,0,7.3-0.1l0.9,0.9c1.1,1.1,2.4,2.3,3.7,3.4l1,0.9v0c1,0.9,2.2,1.4,3.3,1.4
	c0.3,0,0.6,0,0.8-0.1l0.6-0.1l0-0.6c0-2.6-2-4.6-4.1-5.4c-0.6-0.2-1.3-0.4-2-0.5c5.1-0.2,10.2-0.6,15.3-1.1c0,0-0.1,0.1-0.1,0.1
	c2,0.2,4.3,0.3,6.3,0.4c1.3,0.1,2.6-0.3,3.4-1.2C422.5,627.8,420,627.5,418,628.1 M409.6,626.8l0.8-0.9c0.6-0.7,1.4-1.1,2-1.2
	c-0.2,1.6-1.5,3-2.9,3.6c-0.7,0.3-1.4,0.6-2.2,0.8C408.1,628.3,408.8,627.5,409.6,626.8 M362.8,625.7l0.9-0.8c0.7-0.6,1.5-1,2.1-1
	c-0.3,1.6-1.8,2.8-3.2,3.3c-0.7,0.3-1.5,0.5-2.2,0.5C361.2,627.1,362,626.4,362.8,625.7 M319,616.7l1-0.9c0.7-0.6,1.5-1,2.1-1
	c-0.3,1.6-1.8,2.8-3.2,3.3c-0.7,0.3-1.5,0.5-2.2,0.5C317.4,618.1,318.2,617.4,319,616.7 M289.2,615.9l-0.8-1.1
	c-0.6-0.8-1.2-1.6-1.7-2.5c0.7,0.3,1.4,0.6,2,1.1c1.2,0.8,2.3,2.4,2.3,4C290.4,617.1,289.7,616.6,289.2,615.9 M337.2,632
	c-0.6-0.2-1.3-0.7-1.8-1.5l-0.8-1.1c-0.6-0.8-1.2-1.6-1.7-2.5c0.7,0.3,1.4,0.6,2,1.1C336.1,628.9,337.2,630.4,337.2,632
	 M403.4,636.7c-0.7-0.1-1.4-0.4-2.1-1l-1-0.9c-0.7-0.7-1.5-1.4-2.2-2c0.8,0.1,1.5,0.3,2.2,0.6C401.6,633.8,403.1,635.1,403.4,636.7"
	/>
<path class="st0" d="M622.1,491.8c-0.2,0.6-0.4,1.2-0.5,1.8l-0.2-0.1c-0.9,1.5-1.9,2.9-2.9,4.4c0.2-2-0.4-4.3-2.3-5.5l-0.5-0.3
	l-0.4,0.4c-1,0.9-1.4,2.4-1.2,4.1l0.2,1.3c0.2,1.7,0.5,3.4,0.7,5l0,0.1c-5.4,7.7-11.2,15.2-17.4,22.3c2.3-4.2,4.8-7.5,6.7-11.6
	c0.4-0.9,0.8-1.8,0.9-2.8c0.1-1-0.1-2-0.8-2.7c-1.1-1-3.1-1.1-4.1-0.1c-2.9,3.1-4.1,14-4.4,18.9c-2.8,3.1-5.5,6.1-8.4,9.1
	c0.2-0.4,0.5-0.9,0.6-1.4c0.7-2.1,0.5-5-1.5-6.6l-0.4-0.4l-0.5,0.3c-1.1,0.8-1.7,2.2-1.6,4l0,1.2c0.1,1.7,0.1,3.5,0.3,5.2l0.1,0.7
	c-7,6.9-14.4,13.5-22.1,19.6c2.9-3.8,5.8-6.5,8.4-10.2c0.6-0.8,1.1-1.6,1.4-2.6c0.3-0.9,0.2-2-0.4-2.8c-0.9-1.2-2.9-1.6-4-0.7
	c-3.3,2.5-6.2,13-7.3,17.9c-2.9,2.3-5.9,4.5-8.9,6.6c1-1.1,1.8-2.4,2.3-3.8c0.7-2.1,0.5-5-1.5-6.6l-0.4-0.4l-0.5,0.3
	c-1.1,0.8-1.7,2.2-1.6,4l0,1.2c0.1,1.7,0.1,3.5,0.3,5.1l0.1,1.2c-5.7,4-11.5,7.8-17.5,11.4c3.5-3.5,7-5.9,10.1-9.3
	c0.7-0.7,1.3-1.5,1.7-2.3c0.4-0.9,0.5-2,0-2.8c-0.7-1.3-2.6-2-3.9-1.3c-3.7,2.1-8.1,12.4-9.8,16.9c-5.7,3.4-11.6,6.6-17.6,9.6
	l0.6,1.2c3.8-1.9,7.5-3.9,11.2-6l0.5,0.1c1.6,0.2,3.3,0.3,5,0.4l1.4,0.1c0.1,0,0.3,0,0.4,0c1.5,0,2.8-0.5,3.6-1.5l0.4-0.5l-0.4-0.5
	c-1-1.3-2.6-1.9-4.2-1.9c3.7-2.2,7.3-4.4,10.8-6.8c4.6,0.2,16.4,0,19.8-2.7c1.1-0.9,1.2-2.9,0.3-4.1c-0.6-0.8-1.6-1.1-2.6-1.1
	c-1,0-1.9,0.4-2.8,0.7c-4.5,1.7-8.2,4.1-13.1,6.1c7.2-4.8,14.1-9.9,20.8-15.2l0.9,0.1c1.6,0.2,3.4,0.3,5.1,0.4l1.3,0.1
	c0.2,0,0.3,0,0.4,0c1.5,0,2.8-0.5,3.6-1.5l0.3-0.5l-0.3-0.5c-1.6-2.1-4.5-2.3-6.6-1.7c-0.2,0.1-0.5,0.2-0.7,0.3
	c2.1-1.8,4.2-3.6,6.2-5.4c4.6-0.6,16-2.8,18.9-6.1c1-1.1,0.7-3.1-0.4-4.1c-0.7-0.7-1.8-0.8-2.8-0.6c-1,0.2-1.8,0.7-2.7,1.2
	c-4,2.4-7.1,5.2-11.3,7.9c12.2-11.1,23.3-23.2,33.2-36.3l1.3-0.2c1.6-0.2,3.4-0.5,5.1-0.8l1.2-0.2c1.7-0.3,3-1.1,3.6-2.4l0.2-0.5
	l-0.4-0.4c-2-1.6-4.9-1.3-6.8-0.2c-0.6,0.3-1.1,0.7-1.6,1.2c3-4.1,5.9-8.4,8.7-12.7c0,0.1,0,0.1,0,0.2c1.4-1.4,2.9-3.1,4.3-4.7
	c0.8-0.9,1.4-2.2,1.1-3.4C624.7,488.1,622.9,489.8,622.1,491.8 M616,494c1.1,1.1,1.3,3.1,1,4.5c-0.2,0.7-0.4,1.5-0.8,2.2
	c-0.1-1-0.3-2-0.4-3l-0.2-1.3C615.6,495.4,615.7,494.6,616,494 M586.3,529.9c1,1.3,1,3.2,0.6,4.6c-0.2,0.7-0.6,1.4-1,2.1
	c-0.1-1.1-0.1-2.1-0.1-3.2l0-1.2C585.7,531.2,585.9,530.4,586.3,529.9 M551.8,558.3c1,1.3,1,3.2,0.6,4.6c-0.2,0.7-0.6,1.4-1,2.1
	c-0.1-1-0.1-2.1-0.1-3.1l0-1.2C551.2,559.6,551.4,558.8,551.8,558.3 M532,584.6l-1.4-0.1c-1-0.1-2-0.1-3-0.2
	c0.7-0.4,1.4-0.7,2.1-0.9c1.4-0.4,3.3-0.3,4.5,0.7C533.8,584.5,532.9,584.7,532,584.6 M570.1,556.5c1.4-0.4,3.3-0.3,4.5,0.7
	c-0.6,0.4-1.4,0.6-2.3,0.5l-1.3-0.1c-1-0.1-2.1-0.1-3.1-0.2C568.6,557.1,569.4,556.8,570.1,556.5 M615.1,508.9
	c0.8-0.4,1.8-0.7,2.8-0.7c0.6,0,1.3,0.1,1.8,0.4c-0.5,0.5-1.2,0.9-2.1,1l-1.2,0.2c-1,0.2-2.1,0.3-3.1,0.5
	C613.8,509.7,614.4,509.2,615.1,508.9"/>
<path class="st0" d="M109.6,418.5c0.6-1.1,0.9-2.3,0.9-3.5c0.3-6.4-1.4-12.2-4.6-17.6c-1.1-1.8-2.5-3.4-4.4-4.4
	c-1.4-0.7-1.7-1.7-1.8-3.1c-0.6-6.6-1.6-13.1-2.2-19.7c-0.4-4.8-0.7-9.5-0.8-14.4c0.6,0.1,0.7,0.5,0.9,0.8c2.3,4.1,5.5,7.5,8.8,10.8
	c1.2,1.1,2.5,2.1,3.8,3.1c0.6,0.5,1.3,0.6,1.9,0.1c0.6-0.4,0.7-1.1,0.6-1.7c-0.1-0.7-0.3-1.4-0.5-2c-1.7-5-4.4-9.5-7.9-13.4
	c-1.9-2.1-3.8-4.3-6.3-5.6c-0.7-0.4-1-1-0.9-1.9c0.2-1.4,0.2-2.8,0.3-4.2c0.7-9.8,2.3-19.5,4.9-29c0.2,0.1,0.4,0.1,0.5,0.1l0.6,0.1
	l0.2-0.5c0.4-1,0.3-2.2-0.3-3.5c1.6-5.4,3.5-10.8,5.8-15.9c0.5-0.3,1-0.8,1.2-1.3c0.2-0.5,0.3-1.2,0.3-1.9c1.2-2.5,2.5-5.1,4-7.5
	c0.1-0.3,0.3-0.5,0.3-0.8c0.1-0.6-0.1-1.2-0.6-1.5c-0.6-0.3-1.2-0.2-1.6,0.3c-0.3,0.3-0.6,0.7-0.8,1.2c-0.6,1.2-1.2,2.4-1.8,3.6
	c-0.9-4.4-2.7-9.4-3.9-12.2c1.2-4,2.4-7.9,3.7-11.9c0,0.5,0,1,0,1.5c0.3,2.2,1.7,4.7,4.3,5.3l0.6,0.1l0.3-0.5
	c0.6-1.2,0.5-2.7-0.3-4.3l-0.6-1.1c-0.8-1.5-1.6-3.1-2.4-4.5l-0.4-0.6c3.3-9.2,7.2-18.3,11.5-27.2c-1,4.6-2.4,8.4-3.2,12.8
	c-0.2,1-0.3,1.9-0.1,2.9c0.2,1,0.7,1.9,1.6,2.4c1.3,0.6,3.3,0.2,3.9-1.1c1.9-3.7,0-14.5-1.1-19.3c1.6-3.3,3.4-6.6,5.2-9.8
	c-0.4,1.4-0.6,3-0.4,4.4c0.3,2.2,1.7,4.7,4.3,5.3l0.6,0.1l0.3-0.5c0.6-1.2,0.5-2.7-0.3-4.3l-0.6-1.1c-0.8-1.5-1.6-3.1-2.4-4.5
	l-0.6-1c3.4-6,7-12,10.9-17.8c-1.7,4.7-3.7,8.3-5.1,12.8c-0.3,0.9-0.6,1.9-0.5,2.9c0,1,0.4,2,1.2,2.5c1.2,0.8,3.2,0.7,4.1-0.5
	c2.5-3.5,2-14.7,1.6-19.5c3.7-5.5,7.6-10.9,11.7-16.2l-1.1-0.8c-2.6,3.3-5.1,6.8-7.6,10.2l-0.4,0.2c-1.5,0.5-3.2,1.2-4.7,1.8
	l-1.2,0.5c-1.6,0.6-2.7,1.8-3,3.1l-0.1,0.6l0.5,0.3c0.7,0.4,1.5,0.5,2.2,0.5c0.8,0,1.6-0.2,2.3-0.5c-2.4,3.5-4.6,7.1-6.8,10.7
	c-4.2,1.8-14.8,7-16.7,11c-0.6,1.3,0.2,3.2,1.5,3.8c0.9,0.4,1.9,0.3,2.8-0.2c0.9-0.4,1.6-1.2,2.2-1.9c3.4-3.5,5.6-7.2,9.2-11.1
	c-4.4,7.4-8.5,15-12.2,22.7l-0.9,0.3c-1.5,0.5-3.1,1.2-4.7,1.8l-1.2,0.5c-1.6,0.6-2.7,1.8-3,3.1l-0.1,0.6l0.5,0.3
	c0.7,0.4,1.5,0.5,2.2,0.5c1.7,0,3.3-0.8,4.5-1.8c0.2-0.2,0.3-0.4,0.5-0.6c-1.1,2.5-2.2,5-3.3,7.5c-3.9,2.6-13.2,9.4-14.4,13.6
	c-0.4,1.4,0.7,3.1,2.1,3.5c0.9,0.3,2-0.1,2.7-0.7c0.8-0.6,1.3-1.4,1.9-2.2c2.6-3.9,4.1-7.8,6.8-12c-6.3,15.3-11.1,31-14.4,47
	l-1.1,0.7c-1.4,0.9-2.9,1.9-4.3,2.9l-0.9,0.7c-1.4,1-2.2,2.3-2.2,3.7l0,0.6l0.6,0.1c0.4,0.1,0.8,0.1,1.1,0.1c2.1,0,4-1.4,5.1-2.9
	c0.4-0.5,0.7-1.1,0.9-1.7c-1,5-1.7,10.1-2.4,15.2c0-0.1,0-0.1-0.1-0.2c-0.6,1.9-1.2,4.1-1.8,6.1c-0.4,1.2-0.4,2.6,0.4,3.6
	c1.9-0.9,2.8-3.2,2.7-5.4c0-0.6-0.2-1.2-0.3-1.8l0.2,0c0.2-1.7,0.5-3.4,0.7-5.1c0.3,0.8,0.8,1.7,1.5,2.3
	c-2.8,10.2-4.6,20.7-5.2,31.4c-0.1,2.3-1,3.8-2.5,5.2c-2.4,2.1-4.3,4.6-5.9,7.3c-2.8,4.5-3.9,9.5-5.4,14.5c-0.2,0.7,0,1.3,0.6,1.7
	c0.6,0.4,1.2,0.2,1.8-0.2c2.5-1.9,4.8-4,6.5-6.7c1.3-2.1,2.6-4.3,3.6-6.5c0.2-0.3,0.1-0.8,0.7-0.9c0.1,2.1,0.1,4.3,0.3,6.4
	c0.4,6.8,1,13.6,2,20.3c0.3,2.1,0.7,4.2,0.9,6.4c0.1,0.9-0.1,1.4-1,1.5c-1.2,0.1-2.2,0.7-3.2,1.3c-2.2,1.4-4,3.2-5.4,5.4
	c-2.2,3.4-3.7,7-4.5,10.9c-0.4,2-0.7,4-0.3,6.1c0.3,1.6,0.8,3,2.5,3.5c1.7,0.6,3-0.2,4.2-1.4c0.2-0.3,0.4-0.5,0.7-0.8
	c0.3-0.3,0.3-0.8,0.9-0.7c0.2,1.1,0.3,2.3,0.5,3.4c0.2,1.2,0.6,2.2,1.4,3.2c1.5,1.8,3.4,1.9,5.1,0.3c0.8-0.8,1.4-1.7,1.9-2.7
	c0.7-1.3,0.9-2.7,1.3-4.1c0.7,0.3,0.7,0.8,1,1.2c0.8,1.2,1.8,2.3,3.2,2.9C107.2,420.6,108.6,420.1,109.6,418.5 M109.2,366.4
	c-4.6-4.2-8.5-9-11.2-14.8C101,352.6,107.8,361.5,109.2,366.4 M112.7,262.5l0.6,1.1c0.4,0.8,0.6,1.6,0.5,2.3
	c-1.5-0.7-2.3-2.4-2.5-3.9c-0.1-0.8-0.1-1.5,0-2.3C111.7,260.7,112.2,261.6,112.7,262.5 M131.6,222.1l0.6,1.1
	c0.4,0.8,0.6,1.6,0.5,2.3c-1.5-0.7-2.3-2.4-2.5-3.9c-0.1-0.8-0.1-1.5,0-2.3C130.6,220.2,131.1,221.2,131.6,222.1 M137.4,194.7
	c0.3-0.6,1-1.1,1.9-1.4l1.2-0.5c0.9-0.4,1.9-0.8,2.9-1.1c-0.4,0.6-0.9,1.2-1.5,1.7C140.7,194.4,138.9,195.1,137.4,194.7
	 M116.9,234.9c-1.1,1-2.9,1.7-4.4,1.3c0.3-0.6,1-1.1,1.9-1.4l1.2-0.5c0.9-0.4,1.9-0.8,2.8-1.1C118,233.8,117.5,234.4,116.9,234.9
	 M96.8,297.3c-0.8,1.2-2.4,2.4-4,2.3c0.2-0.6,0.7-1.3,1.5-1.8l0.9-0.7c0.9-0.6,1.8-1.2,2.7-1.8C97.6,296,97.2,296.7,96.8,297.3
	 M105.4,275.1c-0.2,4.8-1.1,8.8-1.1,13.3c0,1,0,2,0.3,2.9c0.3,0.8,0.8,1.4,1.4,1.8c-0.4,0.9-0.8,1.8-1.2,2.7
	c-1.3,3.3-2.5,6.7-3.5,10c-0.7-1-1.4-2.1-2-3l-0.1-0.1C100.8,293.4,102.8,284.2,105.4,275.1 M99.5,307.5c-0.2-0.7-0.3-1.5-0.2-2.3
	c0.5,0.8,1.1,1.6,1.6,2.4c-0.2,0.6-0.3,1.2-0.5,1.8C99.9,308.8,99.6,308.2,99.5,307.5 M92.5,352.6c-1.6,4.7-4,9-7.1,12.8
	c-0.1,0.1-0.2,0.1-0.6,0.3c1.4-5.6,3.8-10.4,7.8-14.7C92.8,351.7,92.6,352.2,92.5,352.6 M102.9,412.2c-0.4-0.9-0.7-1.9-1.1-2.8
	c-0.3-0.6-0.7-1.1-1.5-1c-0.8,0.1-1.3,0.6-1.4,1.3c-0.1,0.5-0.1,1-0.2,1.6c-0.2,1.7-0.1,3.5-0.5,5.2c-0.3,1.4-0.9,2.8-1.9,3.9
	c-0.6,0.7-1,0.6-1.5-0.1c-0.5-0.8-0.7-1.7-0.8-2.6c-0.2-1.5-0.3-3-0.2-4.5c0.1-1.1,0.2-2.2,0.3-3.3c0.1-0.9-0.1-1.8-0.3-2.7
	c-0.1-0.5-0.4-0.8-1-0.9c-0.6-0.1-1,0.2-1.3,0.7c-0.2,0.5-0.3,1-0.5,1.5c-0.7,2.2-1.5,4.3-2.9,6.1c-0.5,0.7-1.1,1.7-2,1.3
	c-0.9-0.3-0.8-1.5-0.8-2.3c-0.1-2.5,0.4-4.9,1.2-7.2c1.4-4,3.2-7.7,6.5-10.6c0.8-0.6,1.6-1.2,2.5-1.6c0.7-0.3,1.5-0.8,2.2,0.1
	c0.1,0.1,0.2,0.1,0.3,0.1c2.8,0,4.2,2,5.3,4c3,5,4.7,10.5,4.3,16.5c0,0.3,0,0.6-0.1,0.9c-0.2,0.6-0.2,1.4-0.8,1.6
	c-0.6,0.1-1.2-0.5-1.6-0.9C104.2,415.2,103.5,413.7,102.9,412.2"/>
<path class="st0" d="M268,598.5c1.5,0,2.9-0.2,4.2-1c1.6-1,2-2.5,1.2-4.2c-0.6-1.1-1.4-2-2.4-2.7c-5.1-3.8-10.9-5.6-17.2-6
	c-2.1-0.1-4.2,0.2-6.1,1.2c-1.3,0.7-2.4,0.5-3.6-0.2c-5.8-3.1-11.8-6-17.6-9.2c-4.2-2.3-8.3-4.7-12.4-7.4c0.4-0.5,0.8-0.3,1.1-0.3
	c4.7,0.3,9.3-0.4,13.8-1.3c1.6-0.3,3.1-0.9,4.7-1.5c0.7-0.2,1.2-0.7,1.2-1.5c0-0.8-0.5-1.2-1.1-1.4c-0.6-0.3-1.3-0.6-2-0.7
	c-5.1-1.3-10.3-1.6-15.6-0.9c-2.8,0.4-5.6,0.8-8.2,2.1c-0.7,0.4-1.4,0.3-2.1-0.3c-1.1-0.9-2.2-1.7-3.3-2.6
	c-8.4-6.5-16-13.8-22.9-21.9c-6.6-7.8-12.5-16.2-17-25.5c-0.1-0.3-0.3-0.5-0.5-0.7c-0.5-0.4-1-0.6-1.6-0.3c-0.6,0.3-0.8,0.8-0.6,1.5
	c0.1,0.4,0.3,0.9,0.5,1.3c2.5,4.8,5.1,9.4,8.2,13.8c9.2,13.3,20.3,24.9,33.2,34.6c1.8,1.4,2.6,2.9,2.9,5c0.4,3.2,1.4,6.1,2.8,9
	c2.2,4.8,5.8,8.5,9.1,12.5c0.5,0.5,1,0.7,1.7,0.5c0.7-0.3,0.8-0.9,0.8-1.6c-0.2-3.1-0.6-6.2-2-9.2c-1-2.3-2.1-4.5-3.4-6.7
	c-0.2-0.3-0.6-0.6-0.4-1.1c1.8,1.1,3.6,2.2,5.4,3.3c5.9,3.4,11.8,6.7,18,9.6c1.9,0.9,3.9,1.8,5.8,2.8c0.8,0.4,1.1,0.8,0.7,1.7
	c-0.5,1.1-0.7,2.2-0.7,3.4c0,2.6,0.5,5.1,1.5,7.5c1.6,3.7,3.8,6.9,6.6,9.8c1.4,1.4,3,2.8,4.9,3.6c1.5,0.6,2.9,1,4.3-0.1
	c1.4-1.1,1.5-2.6,1.2-4.3c-0.1-0.3-0.2-0.7-0.3-1c-0.1-0.4-0.5-0.7-0.1-1.1c1,0.5,2.1,1.1,3.1,1.5c1.1,0.5,2.2,0.7,3.4,0.6
	c2.3-0.2,3.5-1.8,3.1-4.1c-0.2-1.1-0.7-2.1-1.2-3.1c-0.7-1.3-1.7-2.3-2.7-3.3C266.9,598.3,267.5,598.5,268,598.5 M215.8,583.9
	c0,0.1,0,0.2-0.1,0.7c-3.9-4.3-6.6-9-7.9-14.6c0.7,0.1,1,0.5,1.3,0.9C212.1,574.8,214.3,579.1,215.8,583.9 M211.4,565.7
	c2.4-2,13.7-2.6,18.5-1.1C223.8,566,217.7,566.6,211.4,565.7 M260.1,597.3c0.4,0.4,0.8,0.7,1.2,1c1.4,1.1,2.8,2,4.1,3.3
	c1,1.1,1.8,2.3,2.2,3.7c0.2,0.9,0,1.2-0.9,1.2c-1,0-1.8-0.4-2.6-0.8c-1.4-0.7-2.7-1.4-3.9-2.3c-0.8-0.7-1.7-1.4-2.5-2.1
	c-0.7-0.7-1.6-1-2.4-1.3c-0.5-0.2-0.9-0.1-1.3,0.3c-0.4,0.5-0.4,1-0.1,1.4c0.3,0.4,0.6,0.8,1,1.2c1.4,1.8,2.8,3.6,3.5,5.8
	c0.3,0.8,0.8,1.8,0,2.4c-0.8,0.6-1.7-0.1-2.4-0.6c-2.1-1.3-3.8-3.1-5.3-5c-2.6-3.4-4.7-6.9-5.1-11.3c-0.1-1-0.1-2,0.1-3
	c0.2-0.8,0.2-1.7,1.3-1.8c0.1,0,0.2-0.1,0.3-0.2c1.5-2.3,4-2.3,6.3-2.2c5.8,0.4,11.3,2,16,5.6c0.2,0.2,0.5,0.3,0.7,0.6
	c0.4,0.5,1.1,0.9,0.8,1.6c-0.2,0.6-1,0.7-1.7,0.8c-1.6,0.2-3.2,0-4.8-0.4c-1-0.2-1.9-0.5-2.9-0.7c-0.7-0.1-1.3,0-1.7,0.6
	C259.4,596,259.6,596.7,260.1,597.3"/>
<path class="st0" d="M512.1,592.1c-1-0.6-2-0.9-3.1-1.1c-1.4-0.3-2.8-0.2-4.3-0.1c0.1-0.7,0.6-0.9,0.9-1.3c1-1.1,1.7-2.4,2-3.8
	c0.3-1.9-0.6-3.2-2.4-3.6c-1.2-0.3-2.4-0.3-3.6,0c-6.2,1.3-11.4,4.6-15.8,9c-1.5,1.5-2.7,3.3-3.1,5.4c-0.3,1.5-1.2,2.1-2.5,2.6
	c-6.2,2.3-12.3,5-18.5,7.3c-4.5,1.6-9,3.2-13.7,4.5c-0.1-0.6,0.3-0.8,0.5-1c3.3-3.3,5.8-7.2,8.1-11.3c0.8-1.4,1.3-3,2-4.5
	c0.3-0.7,0.2-1.4-0.4-1.9c-0.6-0.5-1.2-0.4-1.8-0.1c-0.6,0.3-1.3,0.6-1.8,1c-4.4,3-8,6.7-10.9,11.2c-1.5,2.4-3.1,4.8-3.8,7.6
	c-0.2,0.8-0.7,1.3-1.6,1.4c-1.4,0.2-2.7,0.5-4.1,0.8c-10.4,2.1-20.9,3.1-31.5,2.9c-10.3-0.2-20.4-1.2-30.3-3.9
	c-0.3-0.1-0.6-0.1-0.9-0.1c-0.6,0.1-1.1,0.4-1.3,1c-0.2,0.6,0.1,1.2,0.7,1.4c0.4,0.2,0.9,0.3,1.3,0.4c5.2,1.3,10.4,2.3,15.8,2.9
	c16.1,1.7,32,1,47.8-2.3c2.2-0.5,3.9-0.1,5.7,1.1c2.6,1.8,5.5,2.9,8.6,3.8c5,1.5,10.2,1.3,15.4,1.4c0.7,0,1.2-0.3,1.5-1
	c0.3-0.7-0.2-1.2-0.7-1.6c-2.5-1.9-5.1-3.6-8.2-4.5c-2.4-0.7-4.8-1.4-7.3-1.8c-0.4-0.1-0.8,0.1-1.1-0.5c2-0.6,4.1-1.3,6.1-1.9
	c6.4-2.2,12.8-4.5,19.1-7.3c2-0.9,3.9-1.8,5.9-2.5c0.8-0.3,1.4-0.3,1.7,0.6c0.4,1.1,1.2,2,2.1,2.7c1.9,1.7,4.2,3,6.6,3.8
	c3.8,1.2,7.7,1.7,11.7,1.5c2-0.1,4.1-0.4,5.9-1.3c1.5-0.7,2.6-1.5,2.7-3.3c0.1-1.8-1-2.9-2.5-3.7c-0.3-0.2-0.6-0.3-0.9-0.5
	c-0.3-0.2-0.9-0.1-0.9-0.7c1.1-0.5,2.1-0.9,3.2-1.4c1.1-0.5,2-1.2,2.7-2.2C514.5,595.2,514.1,593.3,512.1,592.1 M455,596
	c-2.9,5.5-6.4,10.5-11.3,14.7C443.8,607.6,450.7,598.6,455,596 M460.3,619.3c0.1,0,0.1,0.2,0.5,0.5c-5.8,0.2-11.1-0.9-16.2-3.6
	c0.6-0.4,1.1-0.4,1.5-0.4C451,616.1,455.8,617.3,460.3,619.3 M510.8,595.7c-0.6,0.7-1.5,1.1-2.3,1.5c-1.4,0.6-2.8,1.1-4.3,1.4
	c-1.1,0.2-2.2,0.4-3.3,0.5c-1,0.1-1.8,0.6-2.6,1c-0.4,0.2-0.7,0.6-0.6,1.2c0.1,0.6,0.5,0.9,1,1c0.5,0.1,1,0.1,1.6,0.1
	c2.3,0.1,4.5,0.3,6.7,1.2c0.8,0.3,1.9,0.6,1.8,1.6c-0.1,1-1.2,1.2-2,1.4c-2.4,0.7-4.8,0.8-7.3,0.7c-4.2-0.3-8.3-1-11.9-3.5
	c-0.8-0.6-1.6-1.2-2.2-2c-0.5-0.6-1.1-1.3-0.5-2.2c0.1-0.1,0.1-0.2,0.1-0.3c-0.7-2.7,0.9-4.6,2.4-6.2c4.1-4.2,8.9-7.2,14.8-8.4
	c0.3-0.1,0.6-0.1,0.9-0.1c0.6,0,1.4-0.2,1.8,0.4c0.3,0.6-0.1,1.2-0.5,1.8c-0.9,1.4-2.2,2.4-3.5,3.4c-0.8,0.6-1.6,1.1-2.4,1.8
	c-0.5,0.4-0.9,1-0.6,1.7c0.3,0.7,0.9,1.1,1.6,1c0.5,0,1-0.2,1.6-0.2c1.7-0.3,3.4-0.8,5.1-0.9c1.5-0.1,2.9,0.1,4.2,0.8
	C511.3,594.7,511.3,595.1,510.8,595.7"/>
<path class="st0" d="M651.2,408.5c-0.3,0.1-0.5,0.3-0.8,0.4c-0.3,0.1-0.5,0.6-0.9,0.3c0.2-1,0.5-2,0.7-2.9c0.2-1,0.2-2-0.1-3
	c-0.6-1.9-2.2-2.7-4.1-1.9c-0.9,0.4-1.6,1-2.4,1.6c-0.9,0.8-1.6,1.9-2.3,2.9c-0.5-0.4-0.3-0.9-0.4-1.3c-0.3-1.3-0.8-2.4-1.7-3.3
	c-1.2-1.2-2.5-1.2-3.8-0.2c-0.8,0.7-1.4,1.6-1.9,2.6c-2.2,5.1-2.6,10.4-1.7,15.8c0.3,1.8,1,3.6,2.2,5c0.9,1,0.9,1.9,0.5,3.1
	c-1.5,5.6-2.8,11.2-4.4,16.8c-1.1,4-2.4,8-3.8,12c-0.5-0.3-0.4-0.6-0.4-0.9c-0.6-4.1-2.1-7.8-3.8-11.5c-0.6-1.3-1.4-2.5-2.2-3.7
	c-0.3-0.6-0.9-0.9-1.5-0.7c-0.6,0.1-0.9,0.7-1,1.2c-0.1,0.6-0.2,1.2-0.2,1.8c-0.1,4.6,0.6,9.1,2.3,13.4c0.9,2.3,1.8,4.7,3.4,6.6
	c0.4,0.5,0.5,1.2,0.2,1.9c-0.6,1.1-1.1,2.2-1.6,3.3c-3.9,8.4-8.6,16.4-14.1,23.8c-5.4,7.2-11.3,13.8-18.3,19.4
	c-0.2,0.2-0.4,0.4-0.5,0.6c-0.3,0.5-0.3,1,0.1,1.4c0.4,0.4,0.9,0.5,1.4,0.3c0.4-0.2,0.7-0.4,1-0.7c3.6-3,7-6.2,10.1-9.7
	c9.5-10.5,17.2-22.1,22.9-35c0.8-1.8,2-2.8,3.7-3.4c2.6-0.9,4.9-2.4,7.1-4.1c3.6-2.8,6.1-6.6,8.9-10.2c0.4-0.5,0.4-1,0.1-1.6
	c-0.4-0.6-0.9-0.5-1.5-0.4c-2.6,0.8-5.2,1.8-7.4,3.5c-1.7,1.3-3.4,2.7-5,4.2c-0.2,0.2-0.3,0.7-0.9,0.5c0.6-1.8,1.2-3.5,1.7-5.3
	c1.8-5.7,3.4-11.4,4.6-17.2c0.4-1.8,0.8-3.7,1.2-5.5c0.2-0.8,0.5-1.1,1.3-0.9c1,0.3,2,0.1,3-0.1c2.2-0.5,4.2-1.4,6.1-2.8
	c2.8-2.1,5.2-4.6,7-7.5c0.9-1.5,1.8-3.1,2.1-4.9c0.3-1.4,0.3-2.7-0.9-3.6C653.8,407.7,652.5,407.9,651.2,408.5 M619.3,443.8
	c2.4,4.9,4.1,9.9,4.6,15.5C621.8,457.7,619,448.2,619.3,443.8 M638.5,452c0.1,0,0.2,0,0.6-0.1c-2.9,4.2-6.4,7.3-10.9,9.6
	c0-0.6,0.3-1,0.5-1.3C631.5,457,634.8,454.2,638.5,452 M653.4,412.7c-0.7,2-1.9,3.8-3.2,5.5c-2.4,2.8-5,5.3-8.6,6.6
	c-0.8,0.3-1.7,0.5-2.5,0.5c-0.7,0-1.5,0.1-1.8-0.8c0-0.1-0.1-0.2-0.2-0.2c-2.3-0.8-2.8-3-3.1-4.9c-0.8-5-0.5-10,1.6-14.8
	c0.1-0.2,0.2-0.5,0.3-0.7c0.3-0.4,0.6-1.1,1.2-1c0.6,0.1,0.8,0.7,1,1.3c0.5,1.4,0.6,2.8,0.6,4.2c0,0.9,0,1.7,0,2.6
	c0,0.6,0.2,1.1,0.9,1.3c0.7,0.2,1.2-0.1,1.6-0.6c0.3-0.4,0.4-0.8,0.6-1.2c0.7-1.4,1.2-2.8,2-4.1c0.7-1.1,1.6-2,2.7-2.6
	c0.7-0.4,1-0.2,1.2,0.6c0.2,0.8,0,1.6-0.1,2.4c-0.3,1.3-0.7,2.6-1.2,3.8c-0.4,0.9-0.8,1.7-1.3,2.6c-0.4,0.7-0.5,1.5-0.6,2.3
	c-0.1,0.4,0.1,0.8,0.5,1c0.5,0.3,0.9,0.2,1.3-0.2c0.3-0.3,0.6-0.7,0.9-1.1c1.3-1.5,2.5-3.1,4.2-4.1c0.6-0.4,1.4-1,2.1-0.5
	C654.2,411.1,653.7,412,653.4,412.7"/>
</svg>
