<?xml version="1.0" encoding="UTF-8"?>
<!-- Generator: visioncortex VTracer 0.6.3 -->
<svg version="1.1" xmlns="http://www.w3.org/2000/svg" width="1044" height="1280">
<path d="M0 0 C18.18 12.58 27.33 33.15 31.74 54.23 C33.95 66.91 34.43 79.12 33.05 91.92 C32.98 92.61 32.91 93.31 32.84 94.03 C32.23 99.12 30.8 103.43 28.86 108.17 C29.67 108.13 30.47 108.1 31.3 108.06 C51.68 107.59 71.42 111.29 90.86 117.17 C92.12 117.55 92.12 117.55 93.41 117.93 C122.23 126.81 148.64 141.95 172.09 160.75 C173.63 161.98 175.19 163.19 176.76 164.39 C188.6 173.63 199.11 184.79 208.86 196.17 C209.69 197.12 210.53 198.07 211.38 199.05 C244.31 237.58 260.41 288.88 266.53 338.52 C267.67 347.8 267.67 347.8 273.09 355.18 C276.04 357.29 278.55 358.32 281.99 359.43 C283.18 359.82 284.37 360.21 285.6 360.62 C286.22 360.82 286.85 361.02 287.49 361.23 C300.34 365.4 312.74 370.18 324.86 376.17 C325.62 376.54 326.38 376.91 327.16 377.29 C347.94 387.53 367.38 400.25 385.86 414.17 C386.46 414.61 387.06 415.06 387.68 415.52 C398.69 423.76 409.18 432.61 419.34 441.88 C420.88 443.28 422.43 444.66 423.99 446.03 C431.29 452.48 438.17 459.33 445.05 466.22 C447.05 468.23 449.06 470.24 451.07 472.24 C457.22 478.38 463.26 484.53 468.86 491.17 C470.28 492.71 471.69 494.25 473.11 495.79 C477.66 500.83 481.83 506.12 485.98 511.48 C487.88 513.93 489.81 516.34 491.77 518.73 C499.15 527.72 505.79 537.09 512.25 546.76 C513.84 549.13 515.43 551.49 517.04 553.85 C526.65 568.07 535.36 582.7 543.56 597.77 C544.43 599.37 545.3 600.97 546.18 602.56 C564.6 636.09 580.51 674.41 585.65 712.55 C587.42 725.28 592.48 733.69 599.77 744.18 C618.21 770.74 637.37 806.82 634.86 840.17 C633.53 844.43 631.62 846.67 627.86 849.17 C622.51 849.71 617.11 849.27 611.86 848.17 C611.62 848.71 611.38 849.25 611.13 849.81 C607.48 857.6 607.48 857.6 603.86 859.17 C596.22 860.6 589.43 857.93 582.86 854.17 C573.38 847.52 564.79 839.49 556.37 831.57 C554.75 830.06 553.12 828.58 551.48 827.1 C546.26 822.37 541.18 817.68 536.65 812.27 C534.84 810.14 532.94 808.09 531.02 806.05 C525.06 799.68 519.63 793 514.32 786.07 C512.81 784.09 511.27 782.13 509.74 780.17 C501.67 769.8 494.17 759.09 486.86 748.17 C479.42 750.14 472.65 752.91 465.74 756.29 C464.73 756.78 463.72 757.27 462.68 757.78 C451.38 763.31 440.59 769.54 429.79 775.97 C382.48 804.07 331.35 822.01 276.84 829.9 C276.06 830.02 275.28 830.14 274.47 830.26 C273.04 830.48 271.61 830.68 270.18 830.87 C265.28 831.63 263.05 833.46 259.86 837.17 C259.29 837.7 258.71 838.24 258.11 838.79 C253.98 843.34 254.98 852.3 254.86 858.17 C255.2 863.33 255.2 863.33 256.86 868.17 C260.42 870.9 263.68 871.67 268.05 872.42 C276.36 874.23 282.81 878.04 287.93 884.92 C291.27 890.54 291.8 895.74 290.86 902.17 C289.3 905.29 287.26 907.64 284.86 910.17 C284.12 911.1 283.38 912.02 282.61 912.98 C275.93 918.3 267.92 918.42 259.69 918.84 C244.87 919.61 236.11 925.79 225.58 935.88 C218.19 942.86 211 946.62 200.72 946.51 C196.23 945.97 193.19 944.18 189.86 941.17 C187.8 938.5 186.23 936.23 185.12 933.05 C183.98 930.89 183.98 930.89 181.25 930.48 C180.22 930.38 179.18 930.27 178.11 930.17 C172.87 929.45 169.81 928.7 165.86 925.17 C165.16 923.86 164.48 922.52 163.86 921.17 C163.39 921.6 162.92 922.04 162.43 922.49 C154.41 929.71 147.54 935.52 136.43 935.39 C130.68 934.9 125.93 932.24 121.86 928.17 C121.37 926.82 120.89 925.46 120.43 924.11 C119.58 921.91 119.58 921.91 117.86 920.17 C114.34 919.04 110.87 918.46 107.22 917.85 C102.47 916.89 100.91 915.93 97.86 912.17 C94.95 906.98 93.05 902.06 94.25 896.11 C97.15 886.9 102.32 880.52 110.64 875.75 C115.48 873.38 120.48 871.47 125.53 869.62 C133.74 866.82 133.74 866.82 139.11 860.42 C142.07 853.87 142.08 847.22 141.86 840.17 C141.87 839.37 141.88 838.58 141.88 837.76 C141.64 830.34 138.68 824.75 133.86 819.17 C127.88 813.6 120.97 810.92 113.43 808.04 C71.16 791.34 31.94 768.12 -1.69 737.39 C-3.27 735.95 -4.87 734.53 -6.49 733.13 C-18.77 722.44 -29.43 710.2 -39.14 697.17 C-39.56 696.6 -39.99 696.03 -40.43 695.44 C-46.95 686.7 -52.76 677.65 -58.14 668.17 C-58.53 667.48 -58.93 666.79 -59.34 666.07 C-82.89 624.69 -93.67 574.92 -87.96 527.52 C-87.83 526.42 -87.7 525.32 -87.56 524.19 C-85.88 510.47 -83.67 496.84 -81.49 483.2 C-78.03 461.48 -74.6 439.76 -72.01 417.92 C-71.92 417.11 -71.82 416.3 -71.72 415.46 C-71.16 410.7 -70.64 405.94 -70.14 401.17 C-70.03 400.15 -69.92 399.14 -69.81 398.09 C-67.86 378.41 -66.52 349.97 -77.85 332.53 C-80.53 329.76 -83.37 327.98 -86.76 326.23 C-87.41 325.89 -88.06 325.56 -88.73 325.21 C-102.78 318.16 -117.08 313.41 -132.82 317.39 C-136.74 318.7 -140.49 320.41 -144.24 322.14 C-147.45 323.28 -149.76 323.5 -153.14 323.17 C-156.44 320.75 -157.86 319 -159.14 315.11 C-159.14 295.2 -144.82 278.1 -131.82 264.36 C-126.8 259.47 -121.37 255.75 -115.4 252.14 C-114.32 251.49 -113.25 250.84 -112.14 250.17 C-111.11 249.57 -110.09 248.97 -109.03 248.35 C-101.19 242.43 -99.92 235.38 -98.17 226.16 C-97.48 222.56 -96.72 218.97 -95.95 215.38 C-95.8 214.67 -95.65 213.96 -95.5 213.23 C-92.19 197.95 -86.68 183.83 -79.14 170.17 C-78.61 169.21 -78.08 168.26 -77.54 167.28 C-74.22 161.51 -70.39 156.28 -66.14 151.17 C-65.5 150.39 -64.87 149.61 -64.22 148.8 C-51.45 133.78 -35.07 123.9 -17.14 116.17 C-14.73 115.07 -12.32 113.97 -9.91 112.87 C-8.14 112.17 -8.14 112.17 -6.14 112.17 C-3.55 100.47 -5.71 91.64 -11.76 81.48 C-18.67 71.85 -29.62 68.03 -40.3 64 C-50.18 60.11 -58.52 55.08 -63.14 45.17 C-66.67 36.54 -66.74 25.37 -64 16.5 C-58.91 5.97 -52.41 -1.14 -41.26 -5.08 C-26.9 -9.18 -12.93 -7.55 0 0 Z M-46.95 13.92 C-51.64 19.71 -53.77 25.44 -53.49 32.93 C-52.69 37.99 -50.63 41.84 -46.82 45.23 C-44.22 47.11 -41.72 48.53 -38.82 49.92 C-37.26 50.68 -37.26 50.68 -35.66 51.46 C-33.83 52.35 -31.99 53.24 -30.15 54.12 C-14.23 61.8 -14.23 61.8 -8.14 67.17 C-7.56 67.62 -6.98 68.07 -6.39 68.53 C1.37 75.22 6.58 85.53 7.59 95.66 C7.9 100.5 7.94 105.32 7.86 110.17 C12.74 108.83 12.74 108.83 16.11 105.11 C20.38 96.46 20.25 87.16 20.24 77.73 C20.24 76.73 20.24 76.73 20.24 75.72 C20.14 53.34 15.02 32.43 -1.14 16.15 C-10.14 7.78 -18.91 5.67 -30.95 5.9 C-38.15 6.22 -42.05 8.79 -46.95 13.92 Z M-58.89 173.48 C-59.75 173.73 -60.61 173.97 -61.5 174.23 C-66.88 176 -69.49 178.04 -72.17 183.05 C-73.6 186.19 -74.83 189.28 -75.95 192.54 C-76.37 193.75 -76.79 194.95 -77.22 196.19 C-78.23 198.97 -78.23 198.97 -78.14 201.17 C-77.52 201.04 -76.9 200.91 -76.27 200.77 C-63.84 198.16 -51.4 195.78 -38.82 193.92 C-37.74 193.76 -36.65 193.59 -35.53 193.42 C15.84 186.02 67.55 194.41 114.86 215.17 C116 215.66 116 215.66 117.17 216.17 C133.53 223.37 148.74 232.69 163.86 242.17 C164.19 241.51 164.52 240.85 164.86 240.17 C161.48 232.69 156.7 226.43 151.07 220.52 C148.86 218.17 148.86 218.17 146.49 215.21 C143.82 211.98 140.8 209.46 137.49 206.92 C136.87 206.44 136.26 205.97 135.62 205.48 C133.71 204.03 131.79 202.59 129.86 201.17 C129.31 200.76 128.76 200.34 128.19 199.92 C110.57 186.99 89.78 176.48 68.86 170.17 C67.7 169.82 67.7 169.82 66.51 169.46 C25.47 157.43 -18.35 161.03 -58.89 173.48 Z M-56.14 159.17 C-53.42 160.53 -52.27 159.85 -49.36 159.06 C-48.38 158.8 -47.4 158.54 -46.39 158.27 C-45.34 157.99 -44.28 157.71 -43.2 157.42 C13.02 142.87 68.83 151.23 119.33 179.55 C123.31 181.9 127.11 184.46 130.86 187.17 C131.79 187.81 132.72 188.45 133.67 189.11 C158.49 206.56 176.18 229.13 185.86 258.17 C186.11 261.73 186.11 261.73 185.86 265.17 C182.86 267.17 182.86 267.17 180.46 266.96 C172.89 264.66 166.19 259.09 159.72 254.66 C96.31 211.37 24.41 193.79 -51.32 207.97 C-68.79 210.49 -68.79 210.49 -83.14 219.17 C-88.15 230.65 -88.5 244.1 -88.51 256.42 C-88.54 257.6 -88.56 258.78 -88.59 260 C-88.64 276.75 -83.63 290.51 -76.26 305.29 C-74.86 308.15 -73.47 311 -72.08 313.86 C-71.74 314.56 -71.41 315.25 -71.06 315.97 C-66.1 326.3 -61.81 336.75 -59.32 347.98 C-59.12 348.83 -58.92 349.68 -58.71 350.56 C-56.01 362.27 -56.01 373.84 -56.07 385.79 C-56.08 387.39 -56.08 388.98 -56.09 390.57 C-56.1 394.44 -56.12 398.3 -56.14 402.17 C-13.22 402.99 39.67 398.78 72.57 367.92 C87.36 353.48 95.28 335.58 102.14 316.41 C105.57 307.06 109.29 299.7 118.44 295.13 C127.89 291.37 138.2 290.97 147.86 294.17 C151.01 295.62 153.94 297.31 156.86 299.17 C157.77 299.75 158.68 300.32 159.61 300.92 C167.22 308.53 168.09 316.89 168.11 327.11 C168.06 347.08 162.24 363.2 148.86 378.17 C148.2 378.97 147.54 379.78 146.85 380.61 C120.13 412.18 73.77 429.75 33.86 435.17 C33.13 435.27 32.4 435.37 31.64 435.48 C0.21 439.72 -29.41 437.19 -59.14 426.17 C-61.67 439.01 -63.75 451.91 -65.78 464.83 C-66.33 468.32 -66.88 471.81 -67.44 475.29 C-67.79 477.52 -68.14 479.76 -68.49 481.99 C-68.66 483.02 -68.82 484.06 -68.99 485.12 C-69.73 489.85 -70.35 494.37 -70.14 499.17 C-69.28 499.21 -68.42 499.25 -67.54 499.29 C-43.02 500.47 -19.2 503.23 4.86 508.17 C5 507.18 5.15 506.2 5.29 505.19 C5.82 501.53 6.35 497.88 6.89 494.23 C7.12 492.65 7.35 491.07 7.58 489.49 C7.9 487.22 8.24 484.95 8.57 482.68 C8.67 481.97 8.77 481.27 8.87 480.54 C9.4 477.09 9.9 475.12 11.86 472.17 C13.81 471.88 13.81 471.88 15.99 471.98 C17.27 472.04 18.55 472.1 19.86 472.17 C20.07 478.9 19.94 485.38 18.93 492.04 C12.28 538.14 20.49 587.76 47.96 626.09 C49.86 628.52 51.83 630.85 53.86 633.17 C54.54 633.96 55.21 634.75 55.9 635.57 C89.08 673.75 136.91 692.29 185.86 700.17 C186.86 700.33 187.86 700.5 188.88 700.67 C231.08 707.39 294.93 709.25 331.93 684.67 C334.93 682.34 336.88 680.45 338.86 677.17 C339.18 672.25 336.8 669.05 333.84 665.36 C328.73 659.69 323.11 654.68 316.85 650.33 C315.83 649.62 315.83 649.62 314.79 648.89 C313.45 647.97 312.09 647.07 310.73 646.19 C307.21 643.78 306.04 642.75 304.75 638.52 C304.86 635.17 304.86 635.17 305.98 633.35 C309.02 631.44 312.3 630.46 315.68 629.33 C317.96 628.37 317.96 628.37 318.82 626.43 C318.99 617.03 310.35 608.04 304.3 601.73 C303.03 600.44 301.76 599.15 300.48 597.86 C291.01 588.3 291.01 588.3 290.49 584.23 C290.61 583.55 290.74 582.87 290.86 582.17 C295.13 579.98 299.37 577.85 303.86 576.17 C305.09 565.52 298.98 557.23 292.68 549.17 C287.37 542.56 281.73 536.28 275.86 530.17 C275.33 529.61 274.8 529.05 274.26 528.47 C270.14 524.21 265.79 520.67 260.93 517.29 C259.82 516.52 259.82 516.52 258.68 515.73 C229.47 495.72 196.07 486.8 161.36 481.72 C158.86 481.17 158.86 481.17 155.86 479.17 C155.61 476.09 155.47 473.96 156.86 471.17 C161.21 470.07 164.74 470.23 169.12 470.99 C170.32 471.19 171.51 471.39 172.74 471.6 C174 471.83 175.25 472.06 176.55 472.29 C177.2 472.41 177.85 472.52 178.51 472.64 C229.35 481.7 275.35 503.78 305.68 546.83 C312.16 556.28 316.92 565.5 315.86 577.17 C314.5 580.56 312.89 583.13 310.86 586.17 C311.02 591.47 312.99 593.96 316.49 597.79 C324.05 606.38 330.22 615.12 330.09 626.86 C329.58 632.11 327.05 636.06 323.86 640.17 C324.55 640.71 325.24 641.26 325.95 641.82 C349.36 660.6 349.36 660.6 351.17 673.33 C351.55 680.54 349.49 684.72 344.86 690.17 C343.54 691.51 342.2 692.84 340.86 694.17 C362.91 694.52 384.8 694.2 406.8 692.73 C410.94 692.46 415.08 692.18 419.22 691.91 C420.22 691.84 421.22 691.78 422.24 691.71 C468.99 688.67 516.43 690.06 553.56 722.66 C561.96 730.38 569.04 739.05 575.86 748.17 C587.75 712.5 554.66 648.06 539.2 616.81 C518.63 575.76 492.54 538.88 462.8 503.98 C462.38 503.48 461.96 502.99 461.52 502.47 C452.3 491.74 442.45 481.59 432.43 471.61 C430.6 469.78 428.77 467.94 426.93 466.1 C421.08 460.24 415.2 454.51 408.86 449.17 C407.78 448.22 406.7 447.27 405.62 446.32 C396.67 438.51 387.38 431.26 377.86 424.17 C377.15 423.63 376.43 423.09 375.69 422.54 C343.86 398.73 308.12 378.85 269.41 369.02 C268.71 368.84 268.02 368.66 267.3 368.48 C265.43 368.01 263.55 367.57 261.67 367.12 C258.86 366.17 258.86 366.17 256.86 363.17 C256.43 360.71 256.09 358.31 255.82 355.84 C255.64 354.32 255.45 352.79 255.27 351.27 C255.17 350.47 255.08 349.67 254.98 348.85 C248.52 295.51 232.86 243.07 196.86 202.17 C196.3 201.49 195.73 200.81 195.14 200.11 C185.03 188.08 173.54 177.43 160.86 168.17 C160.2 167.68 159.53 167.19 158.84 166.68 C96.3 120.94 3.38 96.14 -56.14 159.17 Z M-103.14 259.17 C-121.41 271.11 -135.39 284.75 -144.14 305.17 C-144.14 305.83 -144.14 306.49 -144.14 307.17 C-142.72 306.86 -141.3 306.54 -139.89 306.23 C-139.1 306.06 -138.31 305.88 -137.5 305.7 C-136.09 305.38 -134.68 305.04 -133.29 304.65 C-119.91 301.63 -105.96 303.97 -93.46 308.95 C-92.36 309.35 -91.27 309.75 -90.14 310.17 C-89.48 309.84 -88.82 309.51 -88.14 309.17 C-88.36 308.66 -88.59 308.14 -88.82 307.61 C-94.78 294.04 -99.07 281.6 -100.4 266.78 C-100.7 262.52 -100.7 262.52 -103.14 259.17 Z M117.86 310.17 C114.86 315.11 113.06 320.63 111.05 326.03 C105.66 340.55 100.17 354.35 89.86 366.17 C88.83 367.38 88.83 367.38 87.78 368.62 C59.18 401.37 13.73 410.86 -28 413.73 C-35.71 414.25 -43.42 414.72 -51.14 415.17 C-47.25 417.76 -43.33 418.83 -38.89 420.17 C-38.07 420.43 -37.26 420.69 -36.42 420.96 C-23.9 424.76 -11.09 425.54 1.93 425.48 C2.59 425.48 3.26 425.48 3.95 425.47 C16.11 425.42 27.92 424.46 39.86 422.17 C40.7 422.01 41.53 421.86 42.4 421.7 C77.15 414.99 109.37 399.7 134.86 375.17 C135.97 374.17 135.97 374.17 137.11 373.15 C147.97 363.09 156.19 347.63 157.07 332.71 C157.46 320.93 157.46 320.93 152.54 310.59 C143.48 302.33 126.92 301.73 117.86 310.17 Z M-71.07 512.98 C-74.03 517.55 -74.54 521.82 -75.14 527.17 C-75.25 528.06 -75.36 528.94 -75.47 529.86 C-77.5 549.99 -76.41 570.25 -73.14 590.17 C-72.94 591.41 -72.94 591.41 -72.73 592.67 C-66.1 631.83 -46.98 669.22 -21.14 699.17 C-19.99 700.53 -19.99 700.53 -18.82 701.92 C-18.06 702.81 -17.3 703.69 -16.51 704.61 C-15.84 705.39 -15.17 706.17 -14.47 706.98 C-9.53 711.61 -5.47 713.64 1.22 713.62 C2.34 713.58 2.34 713.58 3.49 713.54 C4.27 713.53 5.06 713.52 5.87 713.5 C11.69 713.35 17.33 712.65 23.07 711.61 C26.73 711.03 30.17 711.02 33.86 711.17 C32.47 715.34 30.5 715.72 26.61 717.67 C19.92 720.99 13.24 722.88 5.86 724.17 C5.53 727.19 5.53 727.19 7.45 728.97 C15.59 736.15 24.16 742.7 32.86 749.17 C33.47 749.62 34.08 750.08 34.71 750.55 C44.36 757.74 54.48 764.08 64.86 770.17 C65.57 770.59 66.29 771 67.02 771.43 C87.68 783.46 109.26 793.37 131.86 801.17 C132.87 801.52 133.88 801.87 134.92 802.23 C163.12 811.91 192 818.35 221.86 819.17 C222.87 819.2 222.87 819.2 223.89 819.23 C275.32 820.74 326.64 810.16 373.86 790.17 C375.2 789.61 375.2 789.61 376.55 789.04 C394.74 781.32 411.74 771.58 428.8 761.67 C476.99 733.72 476.99 733.72 503.86 732.17 C505.12 732.09 505.12 732.09 506.41 732.01 C520.27 731.57 533.88 734.38 546.86 739.08 C549.2 739.93 551.44 740.63 553.86 741.17 C536.41 718.86 508.27 707.03 480.73 703.62 C475.51 703.07 470.33 702.99 465.09 702.96 C464.06 702.96 463.03 702.95 461.97 702.94 C458.62 702.93 455.27 702.92 451.93 702.92 C450.19 702.91 450.19 702.91 448.43 702.91 C432.9 702.9 417.52 703.38 402.05 704.67 C378.23 706.64 354.11 707.67 330.3 704.98 C322.63 704.12 316.45 704.51 308.94 706.62 C239.15 725.11 159.53 716.42 95.68 682.99 C89.2 680.06 82.27 680.8 75.49 682.17 C59.7 685.21 43.29 682.1 29.86 673.17 C28.69 671.05 28.69 671.05 27.86 669.17 C28.42 669.26 28.97 669.35 29.55 669.44 C45.73 672.01 61.5 672.54 77.86 672.17 C75.27 669.54 72.7 667.19 69.74 664.98 C35.56 638.61 12.9 598.32 7.23 555.43 C6.89 552.4 6.63 549.39 6.41 546.36 C6.33 545.29 6.25 544.23 6.17 543.13 C6.01 540.99 5.86 538.85 5.74 536.71 C5.33 530.9 4.73 526.28 1.86 521.17 C-2.8 518.06 -7.99 517.69 -13.45 516.73 C-15.3 516.4 -15.3 516.4 -17.18 516.07 C-45.11 509.62 -45.11 509.62 -71.07 512.98 Z M500.86 744.17 C507.97 763.73 526.84 781.55 540.63 796.69 C541.86 798.06 543.09 799.43 544.29 800.83 C549.15 806.5 554.33 811.83 559.61 817.1 C561.1 818.59 562.58 820.09 564.06 821.59 C579.29 837.76 579.29 837.76 598.86 846.17 C600.56 820.96 589.6 789.68 573.3 770.36 C560.2 756.9 542.26 748.29 523.86 745.17 C522.72 744.97 522.72 744.97 521.55 744.77 C514.7 743.83 507.76 744.08 500.86 744.17 Z M589.86 753.17 C589.42 763.08 589.6 771.01 593.86 780.17 C595.14 782.93 596.41 785.71 597.68 788.48 C598.02 789.23 598.36 789.99 598.72 790.76 C601.47 796.96 603.69 803.26 605.74 809.73 C606.02 810.63 606.31 811.54 606.6 812.47 C608.11 817.37 609.38 822.23 610.32 827.28 C611.27 830.57 613.19 832.16 615.86 834.17 C617.85 834.87 619.85 835.55 621.86 836.17 C622.39 826.77 621.2 819.19 618.05 810.36 C617.65 809.19 617.25 808.03 616.83 806.84 C610.15 788.04 601.61 769.99 590.86 753.17 C590.53 753.17 590.2 753.17 589.86 753.17 Z M151.86 821.17 C156.62 826.52 161.1 829.87 168.42 830.45 C174.83 830.78 174.83 830.78 180.86 829.17 C180.86 828.51 180.86 827.85 180.86 827.17 C176.59 826.16 172.32 825.16 168.05 824.17 C166.84 823.88 165.62 823.6 164.37 823.3 C162.62 822.89 162.62 822.89 160.84 822.48 C159.77 822.23 158.7 821.98 157.59 821.72 C154.84 821.07 154.84 821.07 151.86 821.17 Z M205.86 831.17 C210.58 837.04 214.14 840.3 221.61 842.04 C229.99 842.68 236.89 840.92 243.4 835.61 C244.98 834.21 244.98 834.21 245.86 832.17 C236.93 831.25 228.09 831.04 219.11 831.11 C217.83 831.11 216.55 831.11 215.23 831.12 C212.11 831.13 208.99 831.15 205.86 831.17 Z M189.86 838.17 C188.57 840.75 188.45 842.98 188.18 845.86 C188.07 846.87 187.96 847.88 187.85 848.93 C187.87 852.75 188.67 855.55 189.86 859.17 C192.47 859.84 195.07 860.5 197.68 861.17 C198.78 861.45 198.78 861.45 199.91 861.75 C202.97 862.52 205.7 863.17 208.86 863.17 C208.9 861.97 208.95 860.78 208.99 859.54 C209.01 858.87 209.03 858.2 209.06 857.5 C208.52 851.06 205.75 847.48 201.05 843.29 C200.27 842.55 200.27 842.55 199.47 841.79 C196.97 839.51 195.39 838.23 191.98 837.85 C191.28 837.95 190.58 838.06 189.86 838.17 Z M155.86 840.17 C155.82 840.91 155.77 841.65 155.73 842.41 C155.51 845.81 155.28 849.21 155.05 852.61 C154.98 853.77 154.91 854.93 154.84 856.13 C153.83 870.49 153.83 870.49 150.86 875.17 C148.42 876.3 146.21 876.78 143.57 877.31 C138.61 878.46 133.94 880.19 129.18 881.98 C128.29 882.3 127.39 882.62 126.48 882.95 C119.29 885.65 112.53 889.13 108.24 895.73 C106.54 899.03 106.54 899.03 107.55 902.04 C108.69 904.07 108.69 904.07 109.86 905.17 C117.62 906.18 123.39 904.17 130.3 900.86 C137.38 897.55 144.26 895.01 151.86 893.17 C147.51 897.73 142.75 901.24 137.61 904.89 C133.64 908.19 132.02 910.66 131.49 915.79 C131.62 919.05 131.62 919.05 132.99 921.11 C135.96 922.79 137.46 922.73 140.86 922.17 C147.18 918.92 152.04 914.28 156.86 909.17 C158.1 908.02 158.1 908.02 159.36 906.86 C161.63 904.41 163.25 902.08 165.05 899.29 C174.06 886.39 190.45 881.81 204.86 877.17 C200.55 872.84 194.53 873.09 188.77 872.44 C182.44 871.6 182.44 871.6 179.33 869.26 C177.08 866.06 176.72 863.31 176.55 859.5 C176.5 858.61 176.46 857.71 176.42 856.79 C176.38 855.87 176.34 854.94 176.3 853.98 C176.26 853.04 176.21 852.1 176.17 851.13 C176.06 848.81 175.96 846.49 175.86 844.17 C175.14 844.02 174.42 843.88 173.68 843.73 C164.77 841.95 164.77 841.95 155.86 840.17 Z M235.86 853.17 C233.47 853.39 231.07 853.58 228.68 853.73 C226.77 853.86 226.77 853.86 224.82 853.98 C223.84 854.04 222.87 854.11 221.86 854.17 C221.82 854.79 221.78 855.42 221.74 856.06 C221.55 858.93 221.33 861.8 221.11 864.67 C221.02 866.14 221.02 866.14 220.93 867.64 C220.38 874.52 219.6 880.94 214.13 885.66 C209.44 888.81 204.43 890.52 199.05 892.11 C184.45 896.69 184.45 896.69 173.86 907.17 C172.72 910.25 172.72 910.25 172.86 913.17 C174.37 915.25 175.58 916.02 177.86 917.17 C183.96 917.98 188.66 915.34 194.05 912.86 C201.21 909.58 208.2 907.03 215.86 905.17 C216.19 905.5 216.52 905.83 216.86 906.17 C216.08 906.74 215.29 907.3 214.48 907.89 C203.32 915.04 203.32 915.04 197.24 925.86 C198 930.14 198 930.14 200.86 933.17 C205.16 933.67 207.32 933.49 211.07 931.26 C212.14 930.41 213.2 929.55 214.24 928.67 C215.08 927.99 215.08 927.99 215.94 927.29 C219.25 924.61 222.41 921.79 225.55 918.92 C236.01 909.42 245.99 906.92 259.72 906.04 C266.3 905.55 271.2 904.45 276.86 900.92 C278.14 899.02 278.14 899.02 277.93 895.79 C276.63 891.36 274.8 889.35 270.86 887.17 C265.2 884.77 259.57 884 253.49 883.36 C247.24 882.53 247.24 882.53 244.05 879.42 C241.83 873.35 241.61 867.19 241.3 860.79 C241.26 859.96 241.21 859.13 241.17 858.27 C241.06 856.24 240.96 854.2 240.86 852.17 C238.65 852.06 238.65 852.06 235.86 853.17 Z " fill="#000000" transform="translate(255.13671875,170.83203125)"/>
<path d="M0 0 C5.8 4.13 9.22 8.15 11.69 14.88 C12.79 22.4 11.83 28.38 8 35 C3.5 40.43 -2 43.91 -9 45 C-16.32 45.16 -21.41 43.28 -27.56 39.38 C-32.55 34.51 -35.78 28.41 -36.2 21.39 C-35.62 14.34 -32.65 7.55 -27.76 2.44 C-19.59 -4.25 -9.19 -5.14 0 0 Z " fill="#000000" transform="translate(259,426)"/>
<path d="M0 0 C5.45 -0.19 10.48 0.18 15.88 1 C23.47 2.07 31.02 2.22 38.69 2.25 C39.8 2.26 40.92 2.27 42.07 2.28 C48.89 2.25 55.38 1.63 62.11 0.44 C66.12 -0.17 69.95 -0.14 74 0 C73.39 3.34 73.03 3.97 70.38 6.44 C58.19 14.6 41.61 16.57 27.4 14.47 C17.35 12.46 6.97 10.08 0 2 C0 1.34 0 0.68 0 0 Z " fill="#000000" transform="translate(200,799)"/>
<path d="M0 0 C2.78 0.34 3.78 0.72 5.56 2.94 C6.06 3.78 6.56 4.62 7.07 5.49 C7.63 6.42 8.19 7.35 8.77 8.3 C9.36 9.3 9.95 10.29 10.56 11.31 C16.01 20.18 21.57 27.72 29 35 C29.59 35.63 30.17 36.27 30.78 36.92 C34.95 41.37 39.72 44.96 44.65 48.54 C48.89 51.68 48.89 51.68 50 55 C49 56 49 56 46.06 56.31 C34.59 56.06 24.66 47.67 16.75 40.12 C7.72 30.63 -0.24 18.25 -0.06 4.75 C-0.05 3.86 -0.04 2.97 -0.04 2.05 C-0.02 1.37 -0.01 0.7 0 0 Z " fill="#000000" transform="translate(332,698)"/>
<path d="M0 0 C4.6 2.31 7.25 5.52 10.25 9.56 C11.23 10.83 12.2 12.1 13.18 13.37 C13.66 13.99 14.14 14.61 14.64 15.25 C24 27.27 35.51 36.28 48.56 44.01 C51.76 45.95 53.74 47.4 55 51 C47.05 53.22 39.54 50.19 32.32 46.71 C17.36 38.17 6.31 26.14 0 10 C-0.72 6.86 -0.95 4.24 -1 1 C-0.67 0.67 -0.34 0.34 0 0 Z " fill="#000000" transform="translate(329,775)"/>
<path d="M0 0 C4.14 0.51 5.95 2.67 8.75 5.62 C19.24 16.4 30.3 24.43 43.75 31.19 C55.78 37.28 55.78 37.28 61 41 C60.67 41.99 60.34 42.98 60 44 C41.3 45.21 26.65 37.07 12.88 25.16 C5.48 18.3 0.39 10.23 0 0 Z " fill="#000000" transform="translate(420,795)"/>
<path d="M0 0 C3.69 0.22 4.82 0.81 7.36 3.59 C8.17 4.7 8.96 5.81 9.75 6.94 C10.63 8.13 11.51 9.33 12.39 10.52 C12.83 11.11 13.27 11.7 13.72 12.31 C22.7 24.17 33.51 33.51 46.16 41.16 C50.26 43.68 53.22 45.96 56 50 C47.15 52.47 38.34 48.37 30.44 44.44 C16.56 36.4 5.89 23.49 0.75 8.31 C0.09 5.39 -0.18 2.98 0 0 Z " fill="#000000" transform="translate(407,706)"/>
</svg>
