<?xml version="1.0" encoding="iso-8859-1"?>
<!-- Generator: Adobe Illustrator 26.0.3, SVG Export Plug-In . SVG Version: 6.00 Build 0)  -->
<svg version="1.1" id="Layer_13" xmlns="http://www.w3.org/2000/svg" xmlns:xlink="http://www.w3.org/1999/xlink" x="0px" y="0px"
	 width="587.726px" height="584.499px" viewBox="0 0 587.726 584.499" enable-background="new 0 0 587.726 584.499"
	 xml:space="preserve">
<path d="M585.102,300.831c-1.871-1.659-4.099-2.608-6.568-2.903c-3.013-0.36-5.18-1.825-6.925-4.339
	c-4.68-6.744-8.08-13.998-9.686-22.084c-0.869-4.377-1.488-8.785-1.92-13.217c-1.18-12.125-1.598-24.25,0.352-36.349
	c0.236-1.465,0.282-3.1,1.229-4.214c1.03-1.21,2.523,0.011,3.826-0.058c3.963-0.208,6.97-2.616,7.419-6.163
	c0.449-3.546-1.812-6.817-5.499-7.946c-1.878-0.575-3.897-0.743-5.512,0.309c-2.802,1.824-4.547,0.591-6.639-1.301
	c-15.503-14.019-22.687-31.509-22.152-52.296c0.084-3.251,0.157-6.046,4.26-7.523c3.829-1.378,4.416-6.303,1.911-9.654
	c-2.448-3.275-6.406-3.668-9.56-0.923c-0.505,0.44-1.003,0.933-1.356,1.495c-0.8,1.273-1.847,1.387-3.146,0.93
	c-1.143-0.403-2.341-0.656-3.475-1.081c-15.682-5.873-27.812-15.81-35.373-30.965c-2.538-5.087-4.768-10.263-5.702-15.944
	c-0.375-2.285-0.017-3.725,2.198-4.931c3.326-1.811,5.065-4.812,4.763-8.716c-0.373-4.817-4.826-7.282-9.095-5.055
	c-2.51,1.309-4.259,3.39-5.079,6.056c-0.592,1.923-1.791,2.48-3.58,2.553c-4.636,0.19-9.173-0.428-13.593-1.759
	c-10.612-3.194-20.148-8.452-28.661-15.505c-4.81-3.985-8.843-8.703-12.072-14.087c-1.275-2.124-1.722-4.065-0.185-6.358
	c1.508-2.25,1.431-4.902,0.711-7.443c-0.875-3.085-3.752-5.466-6.355-5.456c-2.775,0.01-4.972,2.171-5.855,5.787
	c-0.16,0.654-0.49,1.389-0.334,1.978c1.093,4.128-1.463,5.413-4.685,6.387c-2.323,0.702-4.588,1.565-6.994,2.008
	c-6.916,1.273-13.725,0.391-20.499-0.974c-9.477-1.91-18.509-4.979-26.442-10.705c-1.514-1.092-3.389-2.061-3.909-3.936
	c-0.407-1.467,1.122-2.634,1.642-4.005c1.69-4.457,1.893-8.725-1.474-12.53c-2.008-2.27-4.564-3.436-7.621-2.662
	c-3.176,0.805-5.026,3.012-5.746,6.171c-0.685,3.003-0.295,5.961,0.88,8.73c0.884,2.083,0.294,3.144-1.574,4.156
	c-7.129,3.863-14.842,5.015-22.744,4.53c-9.802-0.601-17.974-5.247-25.536-11.216c-2.836-2.239-4.133-4.424-2.787-8.236
	c1.506-4.265-0.444-8.215-4.208-10.31c-2.585-1.439-5.16-1.494-7.638,0.201c-2.43,1.663-3.567,4.051-3.308,6.956
	c0.117,1.318,0.589,2.634,1.075,3.883c1.511,3.889,1.548,3.881-1.664,6.58c-0.93,0.782-1.85,1.586-2.848,2.274
	c-18.021,12.426-37.881,18.012-59.748,15.782c-5.374-0.548-10.644-1.795-15.614-4.069c-2.723-1.246-4.843-2.849-5.005-6.221
	c-0.056-1.162-0.606-2.356-1.145-3.426c-0.934-1.853-2.5-2.794-4.632-2.545c-2.148,0.251-3.619,1.666-4.192,3.827
	c-0.366,1.38-0.289,2.806,0.302,3.969c1.845,3.635,0.938,7.115-0.37,10.543c-6.271,16.434-17.112,28.884-32.687,37.133
	c-3.111,1.648-6.397,3.001-9.858,3.609c-7.175,1.26-14.011,0.813-19.434-4.971c-1.411-1.504-3.059-2.227-5.085-1.277
	c-2.02,0.946-2.513,2.68-2.317,4.72c0.064,0.67,0.182,1.339,0.328,1.996c1.705,7.659,0.789,15.024-2.466,22.127
	c-5.466,11.928-13.588,21.685-24.189,29.373c-8.658,6.278-17.927,10.219-29.068,8.684c-6.255-0.862-8.701,2.381-7.33,8.568
	c1.2,5.416,2.167,10.849,2.158,16.425c-0.031,19.972-5.614,38.33-16.107,55.236c-2.423,3.904-5.277,7.512-8.514,10.797
	c-1.988,2.017-4.122,3.392-7.2,2.513c-2.031-0.58-3.802,0.192-4.74,2.146c-0.93,1.939-0.385,3.717,1.192,5.117
	c7.06,6.268,10.771,14.314,12.762,23.38c2.88,13.118,2.571,26.311,0.898,39.487c-0.875,6.89-0.942,14.032-4.452,20.381
	c-0.183,0.332-0.233,0.792-0.201,1.181c0.345,4.139-1.966,7.458-3.335,11.077c-0.71,1.878-2.35,1.967-3.841,2.513
	c-2.483,0.909-3.6,2.568-3.447,4.862c0.158,2.387,1.804,4.178,4.348,4.641c0.648,0.118,1.448,0.271,1.98,0.007
	c3.035-1.5,5.157,0.188,7.282,1.927c4.413,3.612,8.236,7.79,11.692,12.311c11.752,15.374,18.644,32.739,21.215,51.87
	c0.719,5.35,1.643,10.678,1.568,16.106c-0.036,2.603,0.069,4.999-3.282,6.12c-2.242,0.75-2.881,3.255-2.256,5.474
	c0.597,2.12,2.425,3.353,4.972,3.322c0.537-0.007,1.153,0.039,1.594-0.198c2.337-1.256,4.435-0.343,6.555,0.583
	c1.361,0.594,2.734,1.158,4.095,1.75c17.2,7.476,30.499,19.194,39.199,35.951c1.687,3.25,3.196,6.555,4.065,10.116
	c0.643,2.639,0.6,2.876-2.117,3.502c-4.787,1.103-5.226,6.412-2.824,9.308c2.776,3.345,7.782,4.034,10.713,0.899
	c1.744-1.865,3.306-1.966,5.348-1.335c1.933,0.597,3.907,1.099,5.775,1.86c10.391,4.234,20.497,9.047,30.015,15.03
	c5.857,3.681,11.184,8.026,16.084,12.901c2.022,2.013,3.848,4.192,5.013,6.815c0.566,1.274,1.432,2.594,0.726,4.171
	c-5.056-2.248-6.916-1.081-6.916,4.183c0,0.135-0.021,0.27-0.019,0.405c0.058,4.461,2.005,5.967,6.48,4.983
	c1.318-0.29,2.641-0.584,3.925-0.994c16.426-5.233,32.756-4.388,48.954,0.929c6.555,2.151,12.853,4.966,18.45,9.097
	c2.594,1.914,2.533,1.997,0.818,4.675c-2.384,3.722-2.344,8.069,0.104,11.373c2.977,4.017,7.828,3.689,10.183-0.743
	c1.152-2.167,1.783-4.545,1.938-6.98c0.148-2.34,1.283-3.556,3.431-4.405c7.42-2.933,14.934-5.468,22.791-7.014
	c11.633-2.289,23.289-2.908,35.037-1.141c5.678,0.854,11.028,2.583,15.733,6.005c1.944,1.414,3.477,2.906,2.683,5.707
	c-0.406,1.432,0.106,2.969,0.723,4.331c0.836,1.844,2.294,3.061,4.342,3.215c2.081,0.157,3.627-0.942,4.666-2.675
	c1.078-1.798,1.693-3.847,0.929-5.818c-0.953-2.455,0.129-4.078,1.484-5.871c5.226-6.92,12.431-11.106,20.105-14.604
	c13.393-6.103,27.668-9.047,42.085-11.349c5.974-0.954,11.99-1.908,18.14-1.417c0.481,1.457-0.157,2.329-0.125,3.264
	c0.08,2.322,1.012,4.159,3.066,5.359c2.765,1.614,6.923,1.13,9.459-1.112c2.432-2.15,3.677-5.692,1.909-8.412
	c-2.039-3.137-1.004-5.471,0.469-8.104c0.922-1.648,1.636-3.417,2.627-5.018c4.975-8.042,13.961-11.188,22.842-8.039
	c1.142,0.405,2.21,1.014,3.348,1.432c3.484,1.279,6.104-0.023,7.212-3.606c0.357-1.156,0.554-2.363,0.798-3.553
	c3.285-16.081,11.033-29.75,22.448-41.417c2.848-2.911,6.027-5.41,9.76-7.134c3.881-1.792,3.879-1.799,5.864,1.879
	c2.172,4.022,6.553,5.151,9.877,2.545c3.706-2.906,4.344-8.899,0.627-11.691c-2.972-2.231-2.685-4.373-1.881-7.253
	c4.171-14.941,10.736-28.8,18.777-42.002c0.77-1.265,1.736-2.41,2.552-3.65c1.019-1.549,2.106-2.203,4.016-1.19
	c2.253,1.195,4.742,1.03,7.09,0.168c2.749-1.009,4.465-3.011,4.805-5.98c0.305-2.668-1.469-5.548-4.118-6.905
	c-1.483-0.759-3.065-0.953-4.714-0.894c-2.914,0.104-3.007,0.094-3.452-2.848c-0.956-6.316-0.947-12.694-0.142-18.989
	c2.108-16.478,7.208-32.085,14.478-46.991c1.6-3.28,3.585-6.341,5.943-9.153c1.043-1.243,1.987-1.638,3.364-0.432
	c1.32,1.157,2.821,2.099,4.564,2.532c3.294,0.818,6.374-0.349,7.729-2.903C588.418,306.249,587.682,303.119,585.102,300.831z
	 M549.78,275.038c-10.286,2.719-20.608,5.305-30.896,8.015c-8.726,2.298-17.425,4.699-26.139,7.043
	c-1.169,0.315-2.352,0.588-3.539,0.831c-3.15,0.645-3.155,0.635-3.446-2.39c-0.052-0.536,0.052-1.119-0.122-1.607
	c-1.748-4.898,0.508-7.392,4.793-9.616c19.272-10.005,39.124-18.7,59.202-26.914c0.223-0.092,0.517-0.011,0.883-0.011
	c0.793,3.009,0.698,6.126,1.068,9.184c0.421,3.476,0.978,6.936,1.429,10.408C553.594,274.452,554.573,273.771,549.78,275.038z
	 M552.742,216.444c-1.916,9.077-2.323,18.191-2.113,27.558c-2.425-0.539-4.312,0.089-6.203,0.874
	c-19.927,8.264-39.772,16.7-58.416,27.674c-0.456,0.269-0.965,0.448-1.924,0.886c-0.904-4.705-1.695-8.924-2.538-13.132
	c-0.223-1.111,0.153-1.696,1.146-2.232c16.625-8.964,32.293-19.537,48.65-28.957c5.954-3.429,11.667-7.275,17.515-10.89
	C549.963,217.542,550.891,216.447,552.742,216.444z M539.01,197.27c3.268,4.1,6.781,7.99,10.768,11.905
	c-5.342,3.457-10.211,6.85-15.307,9.861c-16.736,9.89-33.334,19.998-49.682,30.519c-4.773,3.072-4.832,2.956-5.978-2.539
	c-0.524-2.508-0.963-5.048-1.716-7.489c-0.679-2.201,0.026-3.456,1.83-4.721c17.138-12.012,34.409-23.816,52.425-34.492
	c1.741-1.032,3.469-2.089,5.177-3.175C537.417,196.574,538.239,196.302,539.01,197.27z M526.696,173.252
	c1.042,1.26,1.141,2.923,1.658,4.409c1.156,3.322,2.538,6.536,4.187,9.644c1.566,2.953,1.593,3.066-1.121,4.686
	c-14.028,8.377-27.823,17.111-41.18,26.528c-0.098,0.069-0.263,0.043-1.221,0.176c6.765-8.088,10.289-17.046,12.216-26.705
	c0.198-0.991,0.63-1.688,1.411-2.327c7.328-5.995,15.067-11.401,23.183-16.27C526.04,173.268,526.348,173.305,526.696,173.252z
	 M524.315,150.74c0.376,4.415,0.766,8.902,1.134,13.391c0.056,0.678-0.062,1.271-0.76,1.698
	c-7.674,4.694-14.989,9.916-22.526,15.892c-0.972-5.148-1.449-9.58-2.991-13.768c-0.326-0.886-0.091-1.621,0.745-2.04
	c8.461-4.235,15.619-10.494,23.736-15.261C523.738,150.601,523.899,150.68,524.315,150.74z M499.575,133.498
	c0.849-1,1.677-1.097,2.793-0.365c5.995,3.935,12.384,7.098,19.902,9.631c-8.719,5.721-16.045,12.319-24.713,17.044
	c-0.995,0.542-1.744,0.554-2.392-0.463c-2.411-3.777-5.607-6.873-9.039-10.066C490.679,143.941,495.137,138.727,499.575,133.498z
	 M484.964,116.885c3.209,3.6,5.762,7.222,9.107,10.109c1.237,1.067,0.228,1.938-0.411,2.737c-2.937,3.676-5.869,7.357-8.887,10.966
	c-1.369,1.636-2.324,3.965-4.324,4.644c-1.894,0.643-3.688-1.25-5.656-1.635c-1.58-0.309-3.124-0.801-4.706-1.098
	c-1.409-0.264-2.848-0.372-4.966-0.635C471.996,133.28,478.382,125.206,484.964,116.885z M472.385,92.083
	c1.648,2.204,1.938,4.386,2.738,6.332c1.437,3.497,2.921,6.969,4.863,10.214c0.81,1.353,0.685,2.335-0.304,3.588
	c-7.602,9.636-15.135,19.328-22.673,29.015c-0.843,1.084-1.717,2.028-3.123,2.41c-5.907,1.604-11.342,4.261-16.508,7.509
	c-0.178,0.112-0.489,0.014-1.451,0.014C446.77,130.438,459.766,111.597,472.385,92.083z M424.667,83.635
	c1.633-3.969,3.099-8.006,4.74-12.267c12.186,7.44,24.559,13.612,38.977,13.666c0.664,1.612-0.609,2.358-1.252,3.255
	c-14.023,19.532-26.946,39.754-38.242,60.991c-3.103,5.834-5.966,11.795-8.966,17.684c-1.402,2.751-1.467,2.792-4.097,1.065
	c-5.756-3.781-11.64-7.349-17.742-10.534c-1.92-1.003-2.196-1.891-1.461-4.042C404.746,129.683,415.123,106.828,424.667,83.635z
	 M407.855,56.092c0.412-1.222,0.951-2.401,1.379-3.469c1.153,0.013,1.429,0.713,1.808,1.224c3.225,4.36,6.806,8.404,11.013,11.828
	c1.526,1.243,1.787,2.319,1.015,4.109c-2.513,5.82-4.721,11.774-7.305,17.561c-8.859,19.844-17.441,39.795-24.449,60.385
	c-0.217,0.639-0.444,1.275-0.695,1.901c-1.288,3.225-1.293,3.228-4.558,1.863c-2.739-1.145-5.459-2.335-8.214-3.44
	c-1.275-0.512-1.623-1.273-1.069-2.52c0.273-0.615,0.421-1.284,0.686-1.903c7.552-17.644,13.117-35.99,19.178-54.161
	C400.357,78.336,404.104,67.213,407.855,56.092z M365.767,50.802c0.145-1.69,1.125-1.92,2.531-1.638
	c1.719,0.345,3.443,0.669,5.174,0.942c9.735,1.538,19.357,1.629,28.664-2.276c0.331-0.138,0.754-0.055,1.672-0.103
	c-6.207,16.048-11.422,31.943-16.64,47.826c-4.843,14.743-9.631,29.49-15.632,43.814c-0.209,0.498-0.383,1.009-0.593,1.506
	c-1.659,3.934-1.826,3.994-5.97,2.899c-4.955-1.309-9.924-2.567-14.882-3.864c-2.702-0.707-2.754-0.735-2.151-3.54
	c3.374-15.693,6.794-31.377,10.165-47.071c2.579-12.002,5.099-24.016,7.181-36.116C365.425,52.384,365.699,51.603,365.767,50.802z
	 M334.376,61.772c0.876-8.44,1.985-16.856,3.084-26.1c4.663,3.217,8.718,5.857,13.17,7.783c1.857,0.803,3.728,1.578,5.619,2.295
	c3.63,1.378,3.687,1.368,2.865,5.195c-4.874,22.684-9.768,45.363-14.666,68.042c-1.167,5.405-2.48,10.782-3.509,16.213
	c-0.418,2.209-1.451,2.556-3.377,2.16c-2.906-0.597-5.832-1.11-8.768-1.533c-1.763-0.254-2.454-0.72-2.176-2.838
	C329.727,109.31,331.909,85.525,334.376,61.772z M310.488,57.806c0.442-5.374,0.764-10.761,1.006-16.148
	c0.073-1.621,0.549-2.522,2.228-2.674c5.823-0.529,11.333-2.231,16.902-4.857c0.426,2.841-0.301,5.297-0.697,7.707
	c-2.122,12.918-3.14,25.958-4.58,38.953c-1.871,16.881-3.26,33.816-5.614,50.644c-0.399,2.856-0.404,2.911-3.129,2.757
	c-4.029-0.227-8.052-0.542-12.363-0.839c-0.5-2.8-0.391-5.333-0.203-7.903C305.685,102.85,308.631,80.38,310.488,57.806z
	 M275.19,27.918c1.535,0.03,2.198,0.995,3.046,1.583c7.424,5.153,15.381,9.033,24.516,9.801c2.523,0.212,2.396,1.574,2.228,3.278
	c-0.911,9.266-1.833,18.531-2.733,27.798c-1.762,18.131-3.912,36.224-5.259,54.395c-0.1,1.345-0.149,2.697-0.158,4.046
	c-0.03,4.54-0.019,4.525-4.362,4.612c-3.913,0.078-7.82,0.155-11.721,0.611c-4.067,0.476-4.183,0.39-4.437-3.883
	c-0.391-6.602-0.735-13.211-0.901-19.822c-0.678-26.996-0.099-54-0.425-81C274.978,28.942,275.095,28.546,275.19,27.918z
	 M274.773,143.139c27.515-3.24,54.334,0.199,81.026,6.862c22.25,5.554,42.022,16.004,60.84,28.662
	c0.92,0.619,1.538,1.459,2.246,2.274c2.329,2.687,5.206,2.156,6.633-1.159c0.317-0.738,0.503-1.538,0.702-2.322
	c1.271-4.994,3.988-9.093,7.656-12.65c6.942-6.732,15.075-11.314,24.496-13.482c13.027-2.998,26.538,4.001,31.694,16.631
	c6.329,15.508,3.509,29.97-6.041,43.232c-4.342,6.03-9.906,11.074-15.46,15.996c-2.317,2.053-2.6,3.877-1.859,6.715
	c6.488,24.861,12.173,49.863,10.884,75.838c-1.233,24.845-5.886,49.043-14.613,72.35c-8.997,24.026-24.686,42.427-47.004,55.318
	c-24.434,14.112-50.279,24.207-78.113,29.136c-20.419,3.616-32.695,4.977-53.966,4.988c-23.691-0.579-52.849-4.99-80.538-16.33
	c-29.692-12.16-51.936-32.87-67.44-60.979c-11.757-21.316-18.068-44.15-19.567-68.322c-0.881-14.199,0.217-28.334,3.013-42.311
	c0.053-0.265,0.143-0.534,0.134-0.797c-0.101-2.695,3.452-3.922,2.714-6.909c-0.687-2.784,1.061-4.849,2.227-7.113
	c1.444-2.805,0.056-5.065-3.529-5.614c-4.577-0.701-8.902-2.141-13.172-3.861c-9.942-4.003-18.023-10.44-23.934-19.279
	c-12.617-18.867-5.107-38.881,8.005-48.853c14.523-11.045,30.107-11.114,46.055-3.102c3.158,1.586,5.936,3.745,8.335,6.358
	c1.827,1.989,3.557,4.072,5.462,5.983c2.855,2.865,7.683,2.108,8.944-1.662c1.081-3.233,3.077-5.683,5.218-8.076
	c12.279-13.723,27.158-23.856,44.047-30.956C230.655,150.965,252.372,145.776,274.773,143.139z M107.984,276.71
	c-26.259,5.436-52.437,11.261-78.821,16.083c-0.662,0.121-1.337,0.17-2.002,0.282c-1.81,0.303-2.382-0.54-2.336-2.259
	c0.08-2.964,0.022-5.933,0.022-8.899c0.033-0.001,0.067-0.002,0.1-0.003c-0.129-2.558-0.141-5.13-0.424-7.671
	c-0.222-1.999,0.5-2.952,2.419-3.424c3.932-0.966,7.906-1.678,11.893-2.354c12.488-2.119,24.974-4.255,37.455-6.414
	c4.517-0.781,9.147-0.736,13.607-1.897c1.308-0.34,2.332,0.164,3.381,0.869c5.659,3.801,11.966,6.116,18.437,8.095
	c1.092,0.334,3.235-0.057,2.949,1.931c-0.251,1.748-0.534,3.849-2.808,4.512C110.563,275.936,109.297,276.438,107.984,276.71z
	 M110.789,283.73c-0.694,4.598-1.343,9.095-2.065,13.58c-0.242,1.496-1.651,1.715-2.776,1.997
	c-4.316,1.081-8.642,2.138-12.996,3.049c-22.181,4.643-44.204,9.923-65.983,16.201c-1.543,0.445-3.116,0.786-4.538,1.142
	c-1.11-0.709-0.624-1.521-0.498-2.272c0.848-5.055,1.727-10.106,2.106-15.225c0.11-1.492,0.478-2.432,2.303-2.632
	c17.323-1.901,34.307-5.686,51.315-9.339c10.547-2.265,21.121-4.4,31.686-6.577C109.701,283.581,110.097,283.688,110.789,283.73z
	 M244.871,37.67c7.689-3.383,15.003-7.378,21.357-12.958c0.39-0.343,0.782-0.725,1.647-0.625c0.603,1.348,0.331,2.571,0.317,3.765
	c-0.371,30.888-0.584,61.774,0.544,92.653c0.148,4.043,0.337,8.089,0.713,12.115c0.2,2.147-0.678,2.91-2.632,3.116
	c-2.412,0.254-4.811,0.635-7.21,0.995c-1.516,0.227-2.302,0.089-2.575-1.892c-2.195-15.89-4.597-31.752-6.882-47.63
	c-2.132-14.815-4.684-29.554-7.887-44.177C241.427,39.218,241.406,39.195,244.871,37.67z M215.548,45.448
	c6.601-0.551,12.963-2.294,19.756-4.119c6.365,32.205,9.964,64.501,15.323,96.841c-3.591,0.871-7.246,1.708-10.871,2.658
	c-1.993,0.522-2.252-0.844-2.627-2.158c-1.664-5.838-3.284-11.688-4.989-17.514c-5.88-20.092-9.798-40.65-14.525-61.015
	c-0.946-4.073-2-8.12-2.994-12.182C214.365,46.918,213.895,45.586,215.548,45.448z M187.253,43.455
	c5.53,1.352,11.146,2.044,16.82,2.328c3.376,0.169,3.496,0.134,4.231,3.487c1.967,8.962,3.892,17.934,5.708,26.927
	c4.279,21.181,9.754,42.056,15.84,62.778c0.228,0.777,0.439,1.559,0.688,2.329c0.39,1.213,0.174,2.087-1.181,2.499
	c-2.71,0.825-5.411,1.682-8.108,2.551c-1.323,0.426-2.012-0.107-2.395-1.362c-0.709-2.322-1.387-4.661-2.237-6.933
	c-9.647-25.788-18.32-51.908-26.92-78.057c-1.89-5.748-4.427-11.284-6.758-17.151C184.763,42.355,185.976,43.143,187.253,43.455z
	 M169.73,52.887c2.164-3.232,3.624-6.886,5.12-10.551c1.408,1.026,1.502,2.481,2.001,3.699c5.428,13.243,9.963,26.806,14.152,40.478
	c6.05,19.748,14.039,38.813,20.394,58.45c0.207,0.642,0.315,1.337,0.632,1.918c1.131,2.071,0.051,2.977-1.771,3.497
	c-2.808,0.801-5.207,2.765-8.251,2.886c-1.492-2.438-2.187-5.2-3.151-7.848c-8.212-22.563-16.436-45.121-24.571-67.712
	c-1.918-5.326-3.054-10.98-5.411-16.086C167.263,58.128,167.807,55.76,169.73,52.887z M150.23,75.776
	c4.368-3.587,8.321-7.615,12.633-12.524c2.46,9.281,5.085,17.622,8.048,25.846c7.581,21.045,15.268,42.051,22.871,63.088
	c2.087,5.774,2.564,4.297-2.474,7.29c-1.275,0.757-2.522,1.563-3.805,2.305c-2.272,1.315-2.352,1.337-3.521-1.094
	c-3.857-8.015-7.665-16.05-11.091-24.266c-7.884-18.907-14.586-38.287-22.889-57.025C149.451,78.155,148.805,76.946,150.23,75.776z
	 M143.159,80.953c1.269,1.215,1.609,2.83,2.167,4.264c5.181,13.325,10.304,26.673,15.453,40.011
	c4.764,12.34,9.955,24.493,15.786,36.37c0.535,1.089,1.025,2.201,1.521,3.309c0.754,1.685,0.666,3.119-1.132,4.144
	c-0.697,0.397-1.338,0.927-1.916,1.488c-1.374,1.332-2.425,1.337-3.502-0.425c-1.195-1.953-2.633-3.756-3.924-5.652
	c-16.706-24.543-32.876-49.45-50.119-73.628c-0.298-0.418-0.498-0.907-1.089-2.005C126.487,89.062,134.872,85.451,143.159,80.953z
	 M103.328,105.07c2.442-4.232,3.218-9.13,3.842-13.974c0.08-0.617-0.099-1.334,0.756-1.961c1.175,0.853,1.808,2.216,2.608,3.398
	c16.783,24.833,33.544,49.681,50.32,74.519c1.814,2.685,3.649,5.358,5.566,7.969c0.967,1.317,0.963,2.284-0.258,3.472
	c-1.836,1.786-3.481,3.766-5.234,5.639c-1.674,1.79-1.736,1.814-3.326-0.136c-5.546-6.802-11.263-13.478-16.538-20.485
	c-12.181-16.18-24.987-31.882-36.8-48.348C101.76,111.673,101.104,108.924,103.328,105.07z M85.061,131.085
	c4.451-4.346,8.43-9.091,12.201-14.586c16.12,23.66,33.673,45.385,50.964,67.336c-0.786,0.656-1.272-0.074-1.73-0.391
	c-7.255-5.016-15.269-8.037-24.024-8.939c-2.617-0.269-4.392-1.285-5.992-3.398c-5.471-7.223-12.267-13.283-18.089-20.212
	c-4.429-5.271-9.013-10.412-13.477-15.653C83.084,133.095,83.1,132.998,85.061,131.085z M75.791,138.661
	c1.622-1.202,2.588-1.243,3.936,0.452c8.912,11.197,18.079,22.178,28.031,32.48c0.636,0.658,1.367,1.301,1.612,2.561
	c-2.422,0.679-4.844,1.305-7.231,2.042c-2.712,0.838-5.397,1.834-7.796,3.337c-2.069,1.296-3.623,0.964-5.45-0.468
	c-3.291-2.579-6.782-4.899-10.134-7.403c-8.324-6.221-16.785-12.264-24.724-18.985c-1.101-0.932-2.455-1.658-3.256-3.599
	C60.274,147.872,68.413,144.126,75.791,138.661z M46.453,154.821c11.26,10.347,23.642,19.265,35.962,28.263
	c2.988,2.182,2.903,2.115,0.173,4.931c-1.423,1.468-2.547,1.793-4.514,0.813c-9.903-4.934-19.874-9.732-29.884-14.445
	c-1.978-0.931-2.909-1.906-2.669-4.251c0.534-5.243-0.362-10.479-0.785-16.311C45.795,154.43,46.177,154.568,46.453,154.821z
	 M44.173,182.136c0.325-2.023,1.217-2.023,2.762-1.234c9.002,4.598,18.01,9.184,27.059,13.689c1.792,0.892,1.925,1.768,0.945,3.425
	c-2.699,4.563-4.475,9.505-5.403,14.726c-0.273,1.538-0.622,2.383-2.561,2.06c-9.703-1.619-19.432-3.082-29.148-4.62
	c-0.374-0.059-0.716-0.322-1.536-0.709C40.114,200.535,42.671,191.48,44.173,182.136z M22.102,233.135
	c3.749-4.623,7.196-9.454,9.818-14.807c0.92-1.878,2.013-2.448,4.095-2.048c10.06,1.932,20.146,3.727,30.225,5.563
	c1.325,0.241,2.768,0.261,2.925,2.127c0.444,5.28,2.168,10.233,4.589,16.057c-18.096-2.804-35.506-2.651-52.644-4.169
	C20.562,234.326,21.565,233.797,22.102,233.135z M14.335,242.725c0.143-0.27,0.286-0.54,0.43-0.81
	c4.412,0.424,8.82,0.909,13.238,1.255c6.185,0.484,12.374,0.954,18.57,1.269c9.847,0.5,19.61,1.791,29.398,2.865
	c2.021,0.222,3.554,0.95,4.735,2.63c0.842,1.198,1.903,2.242,2.837,3.321c-0.215,0.341-0.328,0.72-0.484,0.739
	c-14.208,1.703-28.172,4.814-42.246,7.287c-5.049,0.887-10.095,1.778-15.024,3.217c-1.426,0.417-2.553,0.629-2.962-1.391
	C21.345,255.785,18.732,248.894,14.335,242.725z M19.591,328.156c0.481-1.495,2.158-1.438,3.421-1.759
	c10.449-2.661,20.921-5.233,31.359-7.936c16.97-4.394,34.176-7.744,51.246-11.695c0.634-0.147,1.271-0.489,2.148,0.075
	c0.406,3.055-0.359,6.245-0.329,9.445c0.016,1.694-1.492,1.625-2.644,1.872c-8.961,1.923-17.909,3.913-26.888,5.748
	c-14.79,3.023-29.611,5.891-44.396,8.94c-5.388,1.111-10.708,2.555-16.494,3.952C17.403,333.516,18.713,330.883,19.591,328.156z
	 M36.756,364.354c-4.89-7.64-10.702-14.52-18.438-21.063c6.495-1.444,11.959-2.841,17.493-3.856
	c22.15-4.064,44.179-8.707,66.178-13.51c6.245-1.364,5.689-2.143,6.168,4.697c0.189,2.688,0.47,5.38,0.906,8.038
	c0.337,2.052-0.147,3.131-2.293,3.848c-18.157,6.066-36.276,12.247-54.401,18.409c-4.084,1.388-8.156,2.81-12.212,4.277
	C38.778,365.692,37.746,365.902,36.756,364.354z M51.622,393.308c-1.304-0.097-1.431-1.145-1.702-1.99
	c-1.359-4.242-3.048-8.35-4.926-12.383c-0.341-0.733-0.689-1.464-1.051-2.186c-2.642-5.282-2.701-5.476,3.152-7.194
	c20.303-5.96,40.262-12.955,60.259-19.838c3.293-1.134,3.301-1.072,4.027,2.134c0.864,3.809,1.592,7.66,2.693,11.401
	c0.59,2.007,0.118,2.9-1.707,3.71c-5.664,2.514-11.227,5.256-16.894,7.762c-13.428,5.938-26.66,12.335-40.458,17.414
	C53.88,392.554,52.728,392.928,51.622,393.308z M52.785,401.936c-0.371-1.738,0.065-2.315,1.688-2.851
	c20.034-6.616,39.031-15.708,58.16-24.483c0.736-0.337,1.477-0.669,2.191-1.048c1.341-0.712,2.246-0.476,2.786,1.047
	c1.625,4.584,3.686,8.985,5.78,13.367c0.662,1.384,0.334,2.267-0.979,2.967c-2.977,1.587-5.917,3.243-8.895,4.828
	c-18.246,9.708-35.991,20.243-52.933,32.102c-0.884,0.619-1.796,1.2-2.718,1.759c-0.201,0.122-0.505,0.073-1.238,0.159
	C56.255,420.201,54.726,411.033,52.785,401.936z M77.408,447.787c-5.987-3.928-12.421-7.033-19.592-10.106
	c5.935-3.87,11.203-7.358,16.524-10.764c16.363-10.476,33.175-20.18,50.374-29.217c2.687-1.412,2.728-1.431,4.187,1.304
	c1.97,3.69,3.989,7.352,6.368,10.794c0.895,1.295,0.762,2.187-0.606,2.941c-0.708,0.39-1.385,0.836-2.078,1.253
	c-17.566,10.574-34.867,21.56-51.619,33.392C79.757,448.24,78.855,448.736,77.408,447.787z M97.115,465.322
	c-3.587-4.315-7.314-8.354-11.712-11.908c0.969-1.55,2.089-2.097,3.08-2.766c16.309-11.027,32.844-21.709,49.377-32.394
	c1.89-1.221,3.009-1.078,4.258,0.741c1.14,1.661,2.547,3.139,3.829,4.704c1.903,2.324,1.935,2.376-0.672,4.194
	c-14.279,9.964-27.628,21.136-41.388,31.775C101.656,461.395,99.55,463.282,97.115,465.322z M112.109,492.3
	c-0.808-0.288-0.882-0.861-1.014-1.336c-1.602-5.782-4.331-11.039-7.554-16.047c-1.165-1.81-1.973-3.224,0.068-5.151
	c1.019-0.962,1.811-2.294,2.983-3.2c14.407-11.143,28.341-22.888,42.947-33.777c3-2.236,2.472-2.286,5.199,0.372
	c0.097,0.094,0.195,0.187,0.292,0.281c2.85,2.757,2.865,2.769,0.486,5.728c-2.198,2.734-4.416,5.453-6.653,8.155
	c-11.102,13.406-22.107,26.891-32.847,40.59C114.792,489.478,113.721,491.223,112.109,492.3z M130.677,503.488
	c-4.469-2.207-9.172-3.881-14.249-5.594c1.842-2.185,3.501-4.105,5.109-6.068c13.089-15.978,26.169-31.964,39.252-47.947
	c0.513-0.627,1.03-1.251,1.538-1.882c0.629-0.78,1.306-0.789,2.084-0.203c3.451,2.597,6.914,5.177,10.37,7.768
	c0.83,0.622,0.749,1.336,0.181,2.085c-0.489,0.645-0.967,1.299-1.472,1.933c-12.943,16.268-25.913,32.517-38.799,48.831
	C133.47,503.958,132.504,504.39,130.677,503.488z M161.072,520.503c-6.971-5.182-14.067-9.016-21.52-12.934
	c2.634-3.396,4.963-6.528,7.425-9.551c11.167-13.711,22.052-27.641,32.627-41.814c1.793-2.403,1.812-2.381,4.448-0.959
	c3.553,1.918,7.111,3.826,10.856,5.84C183.677,480.806,172.501,500.432,161.072,520.503z M168.147,526.383
	c-1.362-1.18-0.979-2.235-0.228-3.529c2.163-3.729,4.235-7.511,6.355-11.266c7.485-13.259,15.14-26.423,22.086-39.98
	c1.04-2.03,2.201-3.967,3.609-5.81c1.231-1.613,2.207-1.911,4.012-1.151c4.618,1.944,4.684,0.805,3.116,6.135
	c-5.614,19.086-14.311,36.898-22.521,54.914c-1.944,4.266-3.918,8.518-6.144,13.354
	C175.557,533.791,172.133,529.837,168.147,526.383z M206.745,541.239c-0.35,1.286-0.588,2.647-2.513,2.523
	c-6.623-0.426-13.219,0.083-19.808,0.712c-0.209,0.02-0.443-0.224-0.7-0.363c-0.151-1.454,0.811-2.519,1.387-3.694
	c5.697-11.638,11.284-23.325,16.544-35.17c4.827-10.87,9.018-21.965,12.516-33.329c1.012-3.286,1.086-3.311,4.485-2.321
	c6.456,1.881,6.191,0.343,4.329,7.692c-4.275,16.873-8.449,33.771-12.696,50.651C209.17,532.389,207.949,536.812,206.745,541.239z
	 M230.875,546.812c-0.758,2.627-0.816,2.681-3.188,1.899c-3.846-1.268-7.766-2.24-11.7-3.178c-2.817-0.672-2.875-0.747-2.162-3.513
	c2.589-10.048,5.354-20.053,7.818-30.131c2.816-11.519,5.38-23.099,8.055-34.652c0.122-0.525,0.24-1.052,0.39-1.569
	c0.82-2.828,0.827-2.847,3.53-2.288c4.994,1.033,9.981,2.091,14.826,3.108c0.433,1.07,0.078,1.85-0.143,2.594
	c-5.896,19.773-9.769,40.062-15.314,59.924C232.263,541.603,231.622,544.223,230.875,546.812z M258.072,527.298
	c-1.544,10.803-3.175,21.598-5.639,32.244c-0.177,0.767-0.12,1.647-1.255,2.221c-3.718-3.6-8.196-6.275-12.936-8.544
	c-0.84-0.402-1.542-0.72-1.162-2.093c5.569-20.121,10.367-40.433,15.006-60.785c0.808-3.545,1.867-7.033,2.669-10.579
	c0.363-1.605,0.991-2.165,2.74-2.066c7.752,0.44,7.796,0.383,6.423,7.973C261.42,499.469,260.053,513.427,258.072,527.298z
	 M281.271,499.68c-2.27,16.311-3.868,32.693-5.407,49.082c-0.051,0.537-0.087,1.077-0.14,1.614
	c-0.482,4.835-0.496,4.788-5.085,6.153c-3.571,1.062-7.102,2.259-10.567,3.369c-0.815-1.165-0.388-2.103-0.175-2.975
	c3.98-16.297,5.745-32.947,7.881-49.535c1.086-8.435,2.525-16.807,3.936-25.189c0.383-2.275,1.275-2.969,3.439-2.69
	c1.734,0.223,3.507,0.124,5.255,0.27c2.563,0.214,2.756,0.396,2.53,2.983C282.443,488.406,282.051,494.071,281.271,499.68z
	 M304.404,497.798c-1.561,16.814-2.261,33.65-2.621,50.5c-0.07,3.293-0.138,3.24-3.31,3.56c-4.289,0.433-8.568,0.974-12.855,1.433
	c-3.075,0.33-3.184,0.251-2.897-2.554c1.29-12.602,2.52-25.212,3.955-37.797c1.038-9.109,2.057-18.213,2.483-27.376
	c0.056-1.211,0.239-2.415,0.322-3.625c0.074-1.091,0.514-1.761,1.702-1.806c3.772-0.143,7.544-0.288,11.314-0.472
	c1.779-0.087,1.909,1.058,1.909,2.367C304.402,487.285,304.404,492.542,304.404,497.798z M335.595,558.987
	c-7.702-4.415-15.793-6.264-24.239-6.697c-2.223-0.114-2.567-1.284-2.519-3.193c0.329-13.097,0.647-26.195,1.482-39.271
	c0.586-9.176,0.461-18.359,0.612-27.539c0.053-3.228,0.028-3.208,3.297-3.581c3.085-0.351,6.188-0.618,9.236-1.178
	c2.006-0.369,2.629,0.331,2.863,2.196c0.943,7.5,2.064,14.977,2.986,22.479c2.141,17.418,4.21,34.844,6.287,52.269
	C335.759,555.797,336.148,557.129,335.595,558.987z M354.949,548.852c-3.902,2.165-7.436,4.868-10.539,8.105
	c-0.353,0.369-0.686,0.859-1.725,0.491c-0.275-2.405-0.634-5.021-0.866-7.649c-2.031-23.088-5.273-46.032-8.179-69.017
	c-0.654-5.172-1.333-4.749,3.935-5.563c1.861-0.288,3.709-0.69,5.538-1.143c1.648-0.408,2.515,0.039,2.776,1.815
	c0.567,3.863,1.255,7.709,1.889,11.562c3.108,18.872,6.145,37.756,9.404,56.602C357.613,546.545,357.001,547.714,354.949,548.852z
	 M386.582,536.357c-7.472,1.818-14.774,4.187-21.995,7.32c-1.491-4.375-1.981-8.68-2.597-12.914
	c-2.679-18.438-6.18-36.727-9.614-55.031c-0.64-3.412-0.633-3.384,2.848-4.292c4.308-1.122,8.609-2.277,12.902-3.454
	c3.201-0.878,3.169-0.897,4.031,2.239c5.076,18.479,9.257,37.183,14.013,55.742c0.67,2.614,1.227,5.26,1.978,7.85
	C388.603,535.386,388.085,535.992,386.582,536.357z M426.354,530.227c-3.657,0.419-7.543,0.326-11.378,0.832
	c-5.353,0.706-10.688,1.473-15.981,2.54c-3.385,0.682-3.447,0.64-4.328-2.839c-3.674-14.515-7.247-29.056-10.997-43.552
	c-1.689-6.526-3.673-12.977-5.6-19.44c-0.588-1.973-0.474-3.179,1.878-3.865c2.836-0.827,5.567-2.059,8.267-3.284
	c1.575-0.716,2.481-0.433,3.214,1.116c0.864,1.828,1.934,3.557,2.815,5.378c6.172,12.769,13.361,24.985,20.32,37.324
	c4.249,7.535,7.949,15.328,11.49,23.206C426.373,528.357,426.946,529.029,426.354,530.227z M438.62,519.659
	c-1.033,0.978-1.554,2.507-2.268,3.808c-0.646,1.176-1.236,2.383-1.954,3.776c-1.482-0.988-1.758-2.227-2.226-3.311
	c-5.197-12.049-11.712-23.409-18.119-34.829c-5.416-9.653-10.788-19.331-16.164-29.006c-1.596-2.872-1.574-2.888,1.39-4.358
	c1.935-0.96,3.863-1.934,5.813-2.862c2.848-1.354,2.968-1.336,4.397,1.296c3.156,5.812,6.271,11.646,9.403,17.472
	c7.032,13.081,13.46,26.468,20.209,39.691C440.741,514.548,441.508,516.926,438.62,519.659z M456.933,507.447
	c-2.682,0.404-5.289,1.223-7.575,2.698c-1.779,1.148-2.773,1.02-3.641-1.047c-1.093-2.606-2.492-5.083-3.719-7.635
	c-7.721-16.049-15.979-31.811-25.08-47.127c-1.086-1.827-3.05-3.756-2.57-5.73c0.438-1.802,3.172-2.208,4.849-3.299
	c1.913-1.244,3.895-2.384,5.82-3.552c1.612,1.85,37.816,62.806,38.642,65.064C461.389,507.023,459.143,507.114,456.933,507.447z
	 M478.264,488.467c-2.544,5.304-4.557,10.824-6.361,16.858c-0.686-0.851-1.081-1.223-1.336-1.673
	c-7.294-12.904-15.804-25.069-22.878-38.12c-4.167-7.687-9.137-14.938-13.743-22.387c-0.495-0.802-0.985-1.609-1.449-2.43
	c-1.631-2.888-1.624-2.889,0.899-4.81c1.716-1.306,3.513-2.522,5.114-3.957c1.486-1.333,2.326-1.156,3.453,0.496
	c3.417,5.009,7.152,9.803,10.496,14.858c8.474,12.812,16.8,25.722,25.194,38.588C478.175,486.688,478.765,487.423,478.264,488.467z
	 M489.314,471.196c-2.308,2.779-4.318,5.804-6.832,9.243c-2.494-3.776-4.742-6.977-6.782-10.306
	c-8.19-13.368-16.889-26.381-26.619-38.688c-0.92-1.164-1.672-2.466-2.632-3.592c-1.047-1.227-1.232-2.232,0.088-3.408
	c1.099-0.978,2.036-2.137,3.234-3.419c5.065,6.653,10.326,12.926,15.738,19.071c7.855,8.918,15.69,17.854,23.63,26.696
	C490.581,468.399,490.74,469.479,489.314,471.196z M497.182,462.523c-1.047,1.018-1.857,0.779-2.665-0.238
	c-0.251-0.316-0.533-0.607-0.796-0.915c-12.338-14.445-25.693-27.994-37.713-42.721c-0.338-0.414-0.685-0.851-1.115-1.154
	c-0.803-0.566-1.657-1.006-0.709-2.162c0.819-1,1.585-0.68,2.444-0.093c6.117,4.181,12.524,7.995,18.305,12.596
	c11.168,8.889,22.231,17.899,34.783,26.16C504.705,456.451,500.68,459.123,497.182,462.523z M522.551,431.97
	c-1.877,4.921-3.514,9.92-4.906,15.001c-0.862,3.15-0.923,3.212-3.544,1.47c-8.664-5.755-17.277-11.622-25.136-18.436
	c-7.903-6.852-16.619-12.465-25.416-18.007c-1.028-0.648-2.013-1.367-3.066-1.97c-1.343-0.768-1.594-1.654-0.627-2.926
	c1.627-2.139,2.247-5.646,4.524-6.471c2.373-0.86,4.833,1.785,7.171,3.014c15.777,8.298,32.125,15.409,48.116,23.262
	c0.847,0.416,1.695,0.833,2.536,1.262c0.617,0.315,1.16,0.698,1.105,1.743C523.107,430.457,522.838,431.217,522.551,431.97z
	 M539.688,398.519c-4.595,6.86-8.464,14.123-11.958,21.588c-0.787,1.681-1.543,2.14-3.383,1.256
	c-18.371-8.824-36.788-17.554-55.185-26.323c-0.593-0.283-1.12-0.703-1.786-1.128c1.018-2.471,2.071-4.804,2.934-7.204
	c0.572-1.589,1.41-2.05,3.058-1.607c4.691,1.259,9.398,2.465,14.128,3.569c15.79,3.685,31.768,6.286,47.868,8.162
	c1.457,0.17,2.966,0.131,4.271,0.83C539.665,398.034,539.796,398.357,539.688,398.519z M525.208,388.423
	c-16.405-2.426-32.724-5.323-48.838-9.292c-2.96-0.729-2.975-0.706-2.094-3.691c0.801-2.714,1.674-5.409,2.414-8.139
	c0.382-1.409,0.858-1.946,2.519-1.538c16.643,4.081,33.645,6.22,50.491,9.212c3.318,0.589,6.636,1.175,9.966,1.69
	c1.354,0.209,2.2,0.653,2.322,2.219c0.291,3.737,0.578,7.478,1.612,11.809C536.937,389.879,531.052,389.288,525.208,388.423z
	 M543.887,356.424c-0.552,3.048-1.059,6.113-1.392,9.191c-0.463,4.29-0.39,4.333-4.844,3.598
	c-6.518-1.076-13.019-2.259-19.542-3.303c-10.251-1.642-20.519-3.185-30.772-4.809c-8.47-1.342-8.457-1.365-6.622-9.58
	c0.411-1.842,0.744-3.701,1.099-5.555c0.642-3.359,0.741-3.585,4.187-3.338c5.243,0.377,10.486,0.858,15.7,1.522
	c13.281,1.692,26.646,1.708,39.987,2.236c1.317,0.052,2.711-0.282,4.13,0.652C545.178,350.118,544.459,353.258,543.887,356.424z
	 M562.431,307.22c-5.975,8.947-9.812,18.879-13.185,28.999c-0.757,2.27-1.754,3.175-4.244,3.128
	c-14.837-0.28-29.66-0.717-44.442-2.162c-5.483-0.536-10.997-0.76-16.936-1.156c0.516-4.721,1.066-8.991,1.411-13.278
	c0.155-1.92,0.801-2.768,2.831-3.097c7.849-1.272,15.636-2.941,23.495-4.139c11.605-1.768,22.998-4.613,34.565-6.558
	c4.785-0.804,9.546-1.754,14.322-2.614c0.758-0.137,1.553-0.457,2.293,0.099C562.508,306.709,562.561,307.026,562.431,307.22z
	 M486.318,313.196c0-4.601,0.023-9.02-0.011-13.439c-0.014-1.719,1.222-1.807,2.415-2.078c6.04-1.373,12.106-2.646,18.105-4.181
	c14.611-3.74,29.19-7.606,43.783-11.416c1.173-0.306,2.359-0.558,3.536-0.849c0.934-0.231,1.618,0.102,1.932,0.978
	c1.995,5.566,4.964,10.655,8.312,16.079C538.033,303.322,512.192,308.256,486.318,313.196z M263.531,322.721
	c8.909,4.155,18.305,6.438,29.409,6.288c11.338,0.315,22.354-3.929,32.311-11.266c6.336-4.669,11.085-10.638,14.113-17.908
	c10.947-26.285-1.158-49.251-22.476-58.439c-8.171-3.522-16.744-6.559-25.663-7.35c-8.333-0.739-16.131,0.994-23.601,4.644
	c-12.181,5.954-20.811,16.54-25.269,29.241c-0.739,2.103-1.369,4.244-1.904,6.408C235.641,293.781,245.824,314.463,263.531,322.721z
	 M255.934,260.311c0.57-1.035,1.184-2.04,1.916-2.968c3.544-4.49,8.218-9.058,13.605-11.605c2.139-1.011,4.689-0.22,5.851,1.841
	c0.104,0.185,0.208,0.371,0.309,0.56c0.761,1.419,1.496,3.088,2.542,4.328c1.855,2.2,4.258,3.874,6.986,4.8
	c7.06,2.397,14.856-0.237,21.299-3.238c1.717-0.8,2.606-1.656,3.602-3.196c1.074-1.662,2.265-1.514,3.896-0.62
	c9.323,5.111,16.254,12.399,18.164,23.037c2.742,15.276-1.66,28.376-14.304,37.94c-12.719,9.621-27.013,11.475-42.245,7.569
	c-1.304-0.335-2.58-0.778-3.873-1.159c-15.844-4.675-23.911-15.692-25.842-31.703C246.664,276.137,252.588,266.39,255.934,260.311z
	 M142.004,212.319c2.609,3.502,3.558,7.524,2.906,11.845c-0.645,4.274-1.884,8.383-3.524,12.395
	c-2.416,5.909-6.93,8.557-13.091,9.049c-5.645,0.451-10.711-1.051-15.194-4.359c-7.445-5.493-11.34-12.805-10.769-22.215
	c0.337-5.539,2.998-9.683,7.761-12.479c4.163-2.444,8.674-3.611,15.557-3.537C131.16,203.286,137.433,206.184,142.004,212.319z
	 M434.883,193.526c-0.567-1.45-0.8-2.834-0.287-4.311c3.328-9.588,9.535-16.741,19.164-19.928c12.481-4.129,23.205,4.344,23,18.394
	c-0.655,9.39-5.127,17.712-12.962,24.208c-3.215,2.665-7.114,3.037-10.589,0.85C445.529,207.906,438.371,202.442,434.883,193.526z
	 M212.644,242.916c4.891,0.082,8.261,4.029,8.166,9.567c-0.091,5.319-4.686,9.286-10.663,9.204
	c-5.402-0.074-9.688-4.097-9.474-8.894C200.898,247.709,206.826,242.818,212.644,242.916z M381.48,248.146
	c-0.347-4.651,4.125-8.764,9.196-8.82c5.419-0.06,9.929,3.993,10.054,9.036c0.12,4.843-3.346,8.252-8.467,8.325
	C385.042,256.09,381.893,253.69,381.48,248.146z M400.687,286.585c0.087-1.868,1.154-2.984,2.921-3.367
	c0.904-0.196,1.88-0.301,2.792-0.19c3.205,0.39,6.448,0.753,9.427,2.073c2.049,0.908,2.81,2.794,2.209,4.629
	c-0.573,1.747-2.002,2.659-3.784,2.612c-3.847-0.738-7.43-1.329-10.961-2.145C401.548,289.794,400.6,288.458,400.687,286.585z
	 M185.784,294.032c0.51,1.764-0.106,3.386-1.693,4.112c-2.909,1.332-5.968,2.334-8.438,3.274c-2.214,0.047-3.514-0.537-4.151-2.085
	c-0.611-1.485-0.484-3.048,0.777-4.069c2.875-2.328,6.27-3.585,9.935-3.898C184.005,291.213,185.282,292.297,185.784,294.032z
	 M297.909,206.008c-0.053-3.202,0.033-6.417,0.277-9.61c0.133-1.74,1.157-3.056,3.131-2.989c1.936,0.066,2.857,1.345,2.987,3.138
	c0.225,3.113,0.209,6.513-0.139,9.613c-0.201,1.792-1.299,2.964-3.208,2.916C299.051,209.028,297.94,207.816,297.909,206.008z
	 M224.311,179.378c-0.554-2.757-0.72-5.592-1.001-7.952c0.047-2.764,0.954-4.126,2.641-4.404c1.827-0.301,3.228,0.933,3.679,3.409
	c0.456,2.509,0.792,5.04,1.181,7.562c0.348,2.264-0.383,3.602-2.212,4.047C226.673,182.51,224.739,181.504,224.311,179.378z
	 M368.77,201.651c0.819-2.848,1.805-5.654,2.873-8.42c0.583-1.51,1.848-2.418,3.536-2.048c1.679,0.368,2.368,1.647,2.346,3.589
	c-0.594,2.926-1.456,6.046-2.726,9.028c-0.741,1.74-2.214,2.312-4.012,1.771C369.287,205.119,368.277,203.364,368.77,201.651z
	 M363.523,175.953c0.907-2.433,1.208-4.952,1.511-7.49c0.215-1.798,1.142-3.045,3.052-3.184c1.691-0.123,2.987,1.358,3.184,3.493
	c0.049,0.532,0.007,1.073,0.007,0.858c-0.261,2.357-0.368,3.975-0.635,5.566c-0.277,1.647-1.035,3.065-2.552,3.931
	c-1.127,0.644-2.293,0.778-3.425,0.007C363.523,178.358,363.073,177.163,363.523,175.953z M316.325,166.831
	c0.003-0.935,0.129-1.87,0.214-2.999c0-1.149-0.125-2.503,0.031-3.824c0.195-1.659,1.268-2.689,2.955-2.737
	c1.512-0.044,2.585,0.872,2.936,2.296c0.647,2.623,0.696,5.331,0.289,7.979c-0.291,1.895-2.066,2.957-3.874,2.72
	C317.139,170.038,316.316,168.967,316.325,166.831z M344.535,174.652c1.935,0.315,2.628,1.668,2.679,3.475
	c0.011,0.403,0.002,0.808,0.002,1.918c-0.163,1.173-0.346,3.051-0.702,4.896c-0.323,1.671-1.496,2.592-3.176,2.489
	c-1.699-0.104-2.789-1.23-2.805-2.895c-0.021-2.277,0.122-4.58,0.468-6.83C341.344,175.466,342.763,174.363,344.535,174.652z
	 M260.399,182.931c-0.528-1.825-0.788-3.707-0.596-5.61c0.169-1.672,1.109-2.819,2.792-2.984c1.713-0.167,2.863,0.865,3.242,2.46
	c0.403,1.699,0.529,3.464,0.784,5.25c0.026,1.74-0.534,3.165-2.442,3.644C262.446,186.125,261.03,185.107,260.399,182.931z
	 M327.719,209.164c0.009,0.27,0.001,0.54,0.001,0.955c-0.121,1.065-0.152,2.295-0.419,3.472c-0.479,2.109-1.984,3.308-3.672,2.981
	c-1.917-0.372-2.652-1.751-2.608-3.554c0.036-1.482,0.158-2.973,0.391-4.436c0.366-2.297,1.577-3.506,3.266-3.457
	C326.548,205.179,327.632,206.618,327.719,209.164z M269.189,204.898c1.684,0.397,2.362,1.624,2.43,3.238
	c0.028,0.662-0.087,1.33-0.134,1.995c0.026,1.062,0.187,2.121-0.173,3.175c-0.492,1.439-1.452,2.225-2.972,2.195
	c-1.515-0.03-2.548-0.845-2.898-2.296c-0.475-1.97-0.511-3.997,0.075-5.943C266.047,205.501,267.656,204.536,269.189,204.898z
	 M325.281,183.765c1.515,0.449,2.063,1.659,1.995,3.128c-0.062,1.34-0.201,2.685-0.415,4.009c-0.329,2.034-1.507,3.225-3.088,3.065
	c-1.838-0.186-2.848-1.362-3.209-3.121c-0.08-0.391-0.053-0.803-0.055-0.844c0.005-1.869,0.305-3.326,1.03-4.639
	C322.343,183.904,323.64,183.279,325.281,183.765z M336.768,160.5c-0.721-1.77-0.93-3.64-0.516-5.513
	c0.348-1.576,1.301-2.714,3.022-2.701c1.694,0.013,2.685,1.08,3.006,2.696c0.182,0.913,0.197,1.86,0.3,2.934
	c-0.079,0.661-0.074,1.482-0.29,2.241c-0.366,1.287-1.354,2.019-2.647,2.111C338.339,162.361,337.274,161.739,336.768,160.5z
	 M252.766,160.066c-0.301-1.459-0.321-2.925,0.234-4.352c0.548-1.408,1.554-2.182,3.077-2.081c1.532,0.101,2.462,1.034,2.738,2.494
	c0.198,1.045,0.181,2.131,0.261,3.199c0.049,2.746-0.745,4.016-2.624,4.198C254.575,163.704,253.27,162.514,252.766,160.066z
	 M284.326,160.837c-0.566-2.737,0.573-5.21,2.562-5.574c2.242-0.41,3.505,1.098,3.752,4.478c0.019,0.267,0.053,0.533,0.082,0.801
	c0.123,1.77-0.324,3.233-2.254,3.719c-1.675,0.422-3.232-0.671-3.928-2.651C284.453,161.357,284.379,161.098,284.326,160.837z
	 M300.802,171.96c0.33-3.025,2.254-4.612,4.444-3.614c1.81,0.825,1.823,2.484,1.768,4.525c-0.039,3.038-1.171,4.628-3.441,4.454
	C301.4,177.157,300.439,175.297,300.802,171.96z M278.165,291.554c0.127-2.021,1.735-3.481,3.823-3.292
	c0.913,0.082,1.823,0.457,2.684,0.819c3.488,1.467,7.008,1.772,10.664,0.632c1.927-0.601,3.897-1.139,5.887-1.447
	c2.673-0.413,4.5,0.799,4.958,2.991c0.422,2.012-0.58,3.961-2.915,4.691c-3.989,1.247-8.069,2.202-12.185,2.37
	c-3.801-0.148-7.308-1.034-10.546-2.842C279.038,294.64,278.048,293.405,278.165,291.554z"/>
<g>
</g>
<g>
</g>
<g>
</g>
<g>
</g>
<g>
</g>
<g>
</g>
</svg>
