<?xml version="1.0" encoding="iso-8859-1"?>
<!-- Generator: Adobe Illustrator 26.0.3, SVG Export Plug-In . SVG Version: 6.00 Build 0)  -->
<svg version="1.1" id="Layer_21" xmlns="http://www.w3.org/2000/svg" xmlns:xlink="http://www.w3.org/1999/xlink" x="0px" y="0px"
	 width="480.879px" height="527.664px" viewBox="0 0 480.879 527.664" enable-background="new 0 0 480.879 527.664"
	 xml:space="preserve">
<path d="M477.256,201.289c-0.588-7.534-1.248-15.118-3.659-22.332c-9.233-27.619-26.818-47.637-53.901-59.042
	c-12.218-5.145-25.002-8.612-37.436-13.103c-10.579-3.821-21.477-6.354-32.577-8.02c-12.947-1.943-25.913-3.76-38.87-5.634
	c-10.821-1.565-21.625-3.152-32.588-3.577c-6.731-0.261-13.424-1.382-20.15-1.909c-6.099-0.478-9.486-4.029-11.379-9.424
	c-1.674-4.77-2.129-9.717-2.11-14.757c0.058-15.06,4.216-29.023,11.055-42.3c0.927-1.8,1.854-3.603,2.681-5.449
	c1.421-3.17,0.895-6.037-1.486-8.584c-4.4-4.708-10.039-6.964-16.255-7.145c-9.185-0.267-16.089,3.835-20.217,12.232
	c-3.062,6.227-4.784,12.901-6.366,19.597c-3.568,15.109-7.286,30.172-12.112,44.941c-1.09,3.336-2.18,6.66-3.67,9.854
	c-1.078,2.31-2.494,3.39-5.251,3.41c-12.6,0.091-25.07,1.767-37.321,4.539c-22.777,5.152-45.281,11.358-67.528,18.496
	c-11.113,3.566-22.095,7.612-32.634,12.646c-5.251,2.508-10.387,5.259-15.35,8.298c-5.268,3.225-10.513,6.535-15.755,9.809
	c-5.199,3.247-8.8,8.554-12.125,13.578c-3.86,5.83-7.265,12.162-8.794,19.037c-1.265,5.689-1.944,11.453-1.735,17.286
	c0.313,8.772,0.92,17.522,2.102,26.23c0.908,6.686,2.092,13.379,1.686,20.153c-0.785,13.073-1.68,26.14-2.68,39.198
	c-1.01,13.193-2.236,26.369-2.655,39.602c-0.587,18.529,0.328,36.996,2.436,55.399c1.705,14.886,3.678,29.734,7.142,44.347
	c4.391,18.524,11.397,35.706,24.513,49.962c13.888,15.094,30.315,25.881,50.542,30.373c10.024,2.226,20.225,3.412,30.343,5.084
	c26.774,4.424,53.438,9.395,79.616,16.648c15.57,4.313,31.389,6.742,50.028,6.936c10.971-0.033,24.136-2.127,37.144-5.397
	c15.473-3.889,30.271-9.871,45.458-14.649c7.6-2.391,15.16-5.005,22.296-8.53c16.174-7.989,33.118-13.767,50.472-18.496
	c10.882-2.965,21.043-7.603,30.662-13.491c15.035-9.203,26.442-21.38,33.584-37.796c7.037-16.174,11.132-32.945,12.916-50.368
	c1.886-18.414,2.634-36.905,3.138-55.395C481.577,282.738,480.431,241.983,477.256,201.289z M12.701,175.04
	c3.227-9.461,9.388-16.674,16.806-22.886c7.464-6.251,15.599-11.595,24.301-16.026c12.669-6.451,25.931-11.374,39.473-15.649
	c21.764-6.87,43.745-12.931,66.023-17.858c9.488-2.099,19.153-3.296,28.877-3.827c4.294-0.235,8.101,1.37,11.83-1.669
	c3.702-3.016,6.086-7.864,7.732-12.235c3.331-8.843,6.374-17.788,8.704-26.955c2.726-10.724,5.349-21.475,8.095-32.194
	c0.972-3.795,2.302-7.473,4.194-10.938c3.628-6.646,12.676-8.298,20.235-3.228c0.924,0.619,1.114,1.479,0.633,2.47
	c-0.59,1.214-1.188,2.424-1.808,3.622c-7.182,13.869-11.401,28.527-11.874,44.205c-0.181,5.988,0.381,11.861,2.145,17.603
	c3.334,10.853,9.38,15.822,20.616,16.984c7.789,0.805,15.577,1.584,23.405,1.961c10.13,0.488,20.119,2.204,30.135,3.673
	c12.954,1.899,25.926,3.677,38.865,5.669c8.815,1.357,17.515,3.333,25.919,6.365c12.693,4.58,25.7,8.221,38.26,13.223
	c14.574,5.804,26.525,14.879,36.098,27.208c1.159,1.492,2.164,3.106,3.357,4.568c1.386,1.699,1.098,2.923-0.449,4.456
	c-5.556,5.504-11.964,9.609-19.198,12.535c-14.003,5.665-28.486,9.303-43.589,10.082c-17.685,0.913-35.213,3.188-52.75,5.498
	c-12.445,1.639-24.951,2.807-37.413,4.317c-10.853,1.315-21.687,2.793-32.525,4.237c-21.882,2.917-43.84,3.803-65.885,2.55
	c-14.044-0.166-28.077-0.679-42.084-1.777c-8.345-0.654-16.7-1.199-25.036-1.955c-6.749-0.612-13.505-0.646-20.239-0.229
	c-12.307,0.76-24.569,0.045-36.838-0.646c-8.623-0.485-17.278-0.597-25.825-2.054c-7.858-1.34-15.606-3.171-23.275-5.316
	c-4.181-1.169-8.042-3.139-11.727-5.426c-1.029-0.638-2.089-1.301-2.928-2.155C12.719,180.961,11.468,178.654,12.701,175.04z
	 M469.077,374.812c-1.493,18.271-5.435,35.966-13.37,52.699c-5.03,10.606-11.71,19.618-21.197,26.621
	c-10.537,7.777-21.946,13.708-34.48,17.525c-11.1,3.379-22.43,6.074-33.197,10.457c-7.996,3.255-15.793,6.997-23.703,10.467
	c-6.185,2.713-12.532,5.03-18.969,7.05c-14.549,4.565-28.757,10.163-43.511,14.115c-26.74,7.163-53.432,6.809-80.043-0.432
	c-32.354-8.804-65.224-14.984-98.353-19.932c-4.804-0.717-9.631-1.429-14.347-2.562c-31.232-7.505-52.418-26.683-64.314-56.231
	c-5.065-12.58-7.594-25.894-9.555-39.267c-2.92-19.914-5.144-39.899-5.31-60.069c-0.139-16.901,0.913-33.727,2.317-50.561
	c1.268-15.199,2.623-30.402,2.998-45.668c0.201-8.156-1.308-16.13-2.187-24.175c-0.864-7.91-1.567-15.839-1.397-23.714
	c1.302-0.809,1.916,0.214,2.615,0.678c6.017,3.998,12.52,6.839,19.504,8.71c13.23,3.544,26.666,5.398,40.35,6.114
	c17.01,0.89,34.006,1.161,51.026,0.708c10.692-0.285,21.303,1.062,31.928,1.936c17.105,1.407,34.238,2.061,51.389,2.3
	c9.315,0.13,18.622,0.511,27.952,0.18c13.924-0.493,27.752-1.92,41.522-3.841c16.582-2.314,33.215-4.161,49.838-6.122
	c11.528-1.36,23.044-2.832,34.557-4.323c8.576-1.111,17.18-1.866,25.814-2.275c16.991-0.804,33.459-4.023,49.325-10.278
	c8.385-3.306,16.11-7.585,22.62-13.898c0.377-0.365,0.833-0.648,1.701-1.312c3.25,5.837,5.042,11.726,6.235,17.825
	c1.299,6.642,1.794,13.383,2.263,20.113c1.709,24.523,2.809,49.072,3.109,73.659C472.588,312.528,471.619,343.703,469.077,374.812z
	 M454.261,313.814c0.743,9.564,0.45,19.15,0.574,28.722c0.339,20.87-2.258,41.46-5.857,61.953c-0.604,3.441-1.888,4.918-3.951,4.7
	c-2.288-0.242-3.121-1.947-2.473-5.842c1.706-10.245,3.383-20.494,4.327-30.842c0.49-5.372,1.027-10.754,1.142-16.141
	c0.299-14.027,0.86-28.055,0.308-42.09c-0.042-1.075-0.087-2.169,0.059-3.229c0.209-1.519,1.166-2.43,2.733-2.455
	c1.366-0.021,2.34,0.715,2.682,2.029C454.075,311.655,454.178,312.743,454.261,313.814z M27.778,347.312
	c-1.959-0.047-2.746-1.473-2.902-3.276c-0.058-0.67-0.085-1.349-0.048-2.02c0.843-15.632,1.695-31.264,2.556-46.895
	c0.037-0.67,0.11-1.353,0.282-1.999c0.387-1.456,1.316-2.395,2.886-2.324c1.794,0.081,2.679,1.228,2.681,2.93
	c0.004,2.833-0.092,5.668-0.201,8.499c-0.198,5.125-0.436,10.249-0.658,15.373c0.037,0.002,0.073,0.003,0.11,0.005
	c-0.34,7.55-0.666,15.101-1.032,22.651c-0.065,1.344-0.228,2.693-0.462,4.018C30.676,346.043,29.682,347.359,27.778,347.312z
	 M34.118,369.508c0.129,1.461,0.057,2.974-0.177,4.425c-0.264,1.636-1.341,2.737-3.084,2.567c-1.726-0.168-2.526-1.386-2.58-3.089
	c-0.046-1.47,0.046-2.999,0.572-4.388c0.459-1.21,1.441-1.981,2.84-1.833C33.056,367.335,34.001,368.182,34.118,369.508z
	 M445.577,420c-0.08,1.831-1.632,3.303-3.374,3.2c-1.677-0.099-2.93-1.475-2.893-3.179c0.04-1.828,1.605-3.324,3.347-3.199
	C444.337,416.942,445.649,418.37,445.577,420z M145.749,125.178c-0.608-1.146-0.229-2.105,0.602-2.904
	c0.476-0.458,1.087-0.788,1.666-1.123c7.812-4.528,16.055-8.178,24.252-11.923c0.863-0.394,1.746-0.735,2.721-0.601
	c1.551,0.213,2.36,1.144,2.538,2.652c-0.082,1.532-0.842,2.465-2.273,3.001c-8.576,3.214-16.833,7.13-24.918,11.421
	c-0.585,0.311-1.223,0.587-1.868,0.703C147.327,126.609,146.345,126.302,145.749,125.178z M73.473,145.419
	c-1.046-1.592-0.244-2.829,1.128-3.751c0.893-0.6,1.842-1.13,2.809-1.602c5.698-2.782,11.399-5.558,17.12-8.291
	c2.453-1.172,4.463-0.152,4.298,2.094c-0.294,1.794-1.514,2.798-3.045,3.505c-3.062,1.414-6.141,2.79-9.204,4.204
	c-3.184,1.47-6.367,2.943-9.529,4.46C75.67,146.701,74.375,146.792,73.473,145.419z M303.461,116.767
	c-1.32-1.112-2.017-2.329-0.943-3.79c1.057-1.438,2.603-1.297,3.962-0.359c1.323,0.913,2.542,1.98,3.786,3.004
	c3.84,3.161,7.661,6.344,11.511,9.493c0.762,0.623,1.343,1.298,1.408,1.96c-0.003,1.817-1.362,2.906-3.078,2.821
	c-1.442-0.072-2.483-0.915-3.509-1.805C312.229,124.305,307.881,120.493,303.461,116.767z M257.091,150.872
	c-0.169-0.648-0.2-1.332-0.275-1.864c0.075-1.774,0.579-3.134,2.465-3.245c1.682-0.099,2.21,1.061,2.595,2.516
	c1.446,5.473,3.003,10.916,4.509,16.373c0.806,2.922,0.463,4.328-1.163,4.883c-1.804,0.616-3.266-0.482-4.09-3.413
	C259.708,161.06,258.416,155.961,257.091,150.872z M117.463,155.25c-1.065-1.649-0.116-2.817,1.244-3.677
	c4.884-3.086,9.798-6.125,14.693-9.194c0.816-0.511,1.664-0.891,2.643-0.813c1.398,0.111,2.172,0.915,2.411,2.253
	c0.022,1.219-0.587,2.103-1.542,2.684c-5.164,3.142-10.337,6.27-15.541,9.344C119.986,156.665,118.481,156.825,117.463,155.25z
	 M230.627,125.844c-0.09-1.53-0.158-3.06-0.139-4.59c0.023-1.787-0.041-3.748,0.748-5.397c0.552-1.153,1.634-1.802,3.003-1.413
	c1.178,0.335,1.709,1.221,1.692,2.426c-0.026,1.875-0.18,3.756-0.086,5.625c0.195,3.883,0.502,7.76,0.795,11.637
	c0.13,1.717,0.087,3.331-2.074,3.686c-1.713,0.281-3.167-0.972-3.388-3.181c-0.162-1.625-0.249-3.256-0.316-4.887
	C230.795,128.449,230.703,127.147,230.627,125.844z M262.603,117.519c-0.13-0.377-0.154-0.792-0.222-1.162
	c0.02-1.318,0.297-2.493,1.722-2.884c1.378-0.378,2.461,0.22,2.938,1.493c1.943,5.184,4.647,10.006,6.982,15.002
	c0.695,1.486,0.569,2.989-1.107,3.786c-1.431,0.681-2.752,0.147-3.452-1.186C266.897,127.682,264.41,122.753,262.603,117.519z
	 M211.333,165.278c-0.023-0.132-0.055-0.268-0.048-0.4c0.25-4.974,0.851-9.91,1.691-14.814c0.256-1.491,1.235-2.503,2.83-2.228
	c1.545,0.266,2.143,1.477,2.1,2.997c0,0.008-0.001,0.015-0.001,0.023c-0.501,4.813-0.904,8.82-1.348,12.821
	c-0.088,0.79-0.213,1.623-0.55,2.328c-0.495,1.036-1.409,1.665-2.62,1.462C212.199,167.267,211.541,166.455,211.333,165.278z
	 M217.903,150.91c0.001-0.019,0.002-0.035,0.002-0.054c0.001-0.012,0.002-0.023,0.004-0.036
	C217.906,150.866,217.906,150.876,217.903,150.91z M237.362,176.069c0-1.293-0.04-1.833,0.008-2.365
	c0.134-1.481,0.752-2.646,2.398-2.707c1.648-0.06,2.472,1.025,2.539,2.529c0.174,3.921,1.106,7.694,2.021,11.477
	c0.401,1.658-0.029,3.051-1.727,3.548c-1.763,0.516-2.858-0.651-3.323-2.163C238.171,182.786,237.537,179.081,237.362,176.069z
	 M376.896,127.552c-0.965-0.726-1.105-1.852-0.574-2.924c0.452-0.91,1.292-1.331,2.323-1.322c0.97,0.106,1.819,0.533,2.565,1.11
	c2.664,2.057,5.309,4.138,7.936,6.241c0.739,0.591,1.369,1.301,1.518,2.307c0.171,1.159-0.11,2.148-1.121,2.82
	c-0.882,0.587-1.924,0.599-2.648-0.053C383.689,132.846,380.342,130.144,376.896,127.552z M177.376,137.483
	c1.515,0.031,2.558,0.7,2.767,2.264c0.02,0.907-0.197,1.675-0.911,2.185c-3.088,2.207-5.438,5.166-8.046,7.863
	c-1.17,1.211-2.414,2.438-4.084,0.898c-1.544-1.423-0.905-2.984,0.255-4.269c2.337-2.588,4.763-5.096,7.18-7.61
	C175.298,138.023,176.236,137.46,177.376,137.483z M143.691,185.647c2.016-4.134,4.43-8.016,8.154-10.882
	c0.299-0.23,0.751-0.262,1.014-0.348c2.003-0.035,3.333,2.11,2.207,3.739c-2.298,3.324-4.8,6.51-7.3,9.688
	c-0.717,0.912-1.809,1.194-2.914,0.543C143.804,187.77,143.178,186.699,143.691,185.647z M199.749,126.695
	c1.77-3.603,3.884-7.023,6.505-10.086c0.77-0.899,1.883-1.034,2.952-0.556c0.92,0.411,1.356,1.237,1.439,1.902
	c-0.036,1.337-0.625,2.086-1.13,2.87c-1.739,2.698-3.529,5.365-5.203,8.102c-0.802,1.312-1.799,2.091-3.28,1.475
	C199.344,129.7,199.047,128.125,199.749,126.695z M352.262,148.97c-0.828-0.814-0.888-1.932-0.282-2.974
	c0.443-0.762,1.174-1.051,2.035-1.042c1.334-0.01,2.177,0.891,3.119,1.641c2.364,1.88,4.168,4.435,7.499,5.106
	c1.789,0.361,1.835,2.979,0.252,4.242c-1.432,1.144-3.065,1.117-4.515,0.204C357.287,154.206,354.839,151.5,352.262,148.97z
	 M93.759,173.166c0.771,1.673-0.06,2.923-1.432,3.711c-3.131,1.799-6.337,3.469-9.523,5.17c-0.344,0.183-0.762,0.227-1.029,0.303
	c-0.971,0.023-1.716-0.195-2.23-0.92c-0.599-0.844-0.653-1.72-0.154-2.637c0.401-0.736,1.029-1.231,1.734-1.623
	c2.807-1.56,5.59-3.169,8.45-4.625C91.656,171.487,93.11,171.759,93.759,173.166z M424.639,150.66
	c-0.306-1.722,0.737-3.124,2.304-3.077c0.72,0.006,1.269,0.373,1.796,0.816c2.272,1.91,4.568,3.792,6.819,5.726
	c0.606,0.52,1.198,1.125,1.593,1.808c0.829,1.433,0.828,2.913-0.581,3.987c-1.343,1.024-2.552,0.451-3.518-0.72
	c-1.825-2.213-4.334-3.642-6.369-5.615C425.81,152.739,424.869,151.956,424.639,150.66z M299.884,149.378
	c-0.934-2.086,0.16-3.821,1.997-3.801c1.01,0.058,1.803,0.509,2.293,1.39c1.691,3.038,3.391,6.071,5.026,9.14
	c0.782,1.468,0.708,2.929-0.854,3.841c-1.634,0.954-2.881,0.08-3.659-1.323C303.002,155.588,301.301,152.544,299.884,149.378z
	 M36.339,164.366c-0.085-1.14,0.328-2.148,1.139-2.896c2.162-1.994,4.36-3.953,6.603-5.855c0.477-0.404,1.192-0.643,1.826-0.72
	c1.165-0.142,2.116,0.396,2.622,1.455c0.432,0.903,0.385,1.907-0.386,2.606c-2.768,2.513-5.581,4.976-8.405,7.426
	c-0.274,0.238-0.74,0.256-1.042,0.352C37.212,166.547,36.444,165.765,36.339,164.366z M189.055,180.055
	c0.417-1.652,0.841-3.303,1.343-4.932c0.439-1.427,1.581-2.187,3.12-1.799c1.618,0.408,2.002,1.693,1.664,3.135
	c-0.385,1.642-0.779,3.392-0.478,5.081c0.256,1.436-0.224,2.65-1.318,3.598c-0.947,0.821-2.045,1.23-3.322,0.661
	C187.71,184.748,188.572,181.967,189.055,180.055z M395.247,155.899c-0.606-0.863-0.402-1.808,0.299-2.585
	c0.81-0.897,1.881-1.265,2.887-0.576c1.556,1.066,2.897,2.405,4.157,3.8c0.631,0.699,1.244,1.414,1.863,2.123
	c0.551,0.631,1.262,1.174,1.185,2.093c-0.074,0.888-0.542,1.698-1.294,2.174c-1.034,0.654-2.126,0.676-2.983-0.122
	C399.104,160.706,397.022,158.427,395.247,155.899z M290.748,178.639c-0.98-1.16-1.898-2.353-1.154-3.999
	c0.292-0.646,0.826-1.043,1.531-1.198c1.785-0.392,5.183,2.463,5.099,4.347c-0.139,0.94-0.573,1.74-1.557,2.122
	C293.025,180.547,291.79,179.873,290.748,178.639z"/>
<g>
</g>
<g>
</g>
<g>
</g>
<g>
</g>
<g>
</g>
<g>
</g>
</svg>
