<?xml version="1.0" encoding="UTF-8"?>
<!-- Generator: visioncortex VTracer 0.6.3 -->
<svg version="1.1" xmlns="http://www.w3.org/2000/svg" width="1280" height="1280">
<path d="M0 0 C3.77 1.26 3.96 2.25 5.74 5.71 C6.25 6.68 6.76 7.65 7.28 8.66 C8.07 10.22 8.07 10.22 8.88 11.81 C9.41 12.86 9.95 13.92 10.51 15 C21.55 36.74 21.55 36.74 22.17 48.16 C22.68 55.02 22.68 55.02 26.47 60.54 C29.24 62.54 32.02 64.32 35 66 C35.99 66.66 36.98 67.32 38 68 C38.11 67.28 38.22 66.56 38.34 65.82 C40.48 56.68 46.98 48.95 53 42 C53.85 41.01 54.7 40.01 55.57 38.99 C69.04 23.52 87.16 13.93 107 9 C110.43 8.88 110.43 8.88 113 9 C116.93 23.31 117.18 38.36 117.25 53.12 C117.26 54.23 117.27 55.33 117.28 56.46 C117.25 62.91 116.67 69 115.46 75.33 C114.77 79.35 114.68 82.93 115 87 C116.52 89.11 117.6 89.87 120.08 90.66 C123.41 91.05 126.7 91.19 130.04 91.29 C141.66 91.66 152.43 92.17 161 101 C162.99 103.87 164.57 106.82 166 110 C166.37 110.75 166.74 111.49 167.12 112.26 C168.3 115.95 168.29 119.48 168.25 123.31 C168.26 124.03 168.27 124.75 168.27 125.5 C168.26 130.63 167.4 135.07 166 140 C167.13 139.91 167.13 139.91 168.27 139.82 C177.52 139.42 183.73 141.39 190.81 147.38 C191.9 148.67 191.9 148.67 193 150 C193.63 150.73 193.63 150.73 194.27 151.48 C201.05 160.06 203.75 171.22 203 182 C202.47 185.04 201.79 188.02 201 191 C202.13 190.65 203.27 190.3 204.44 189.94 C214.22 187.59 221.55 191.06 230 196 C235.65 199.54 238.68 204.51 240.54 210.84 C241.03 213.14 241.13 215.23 241.14 217.59 C241.17 218.89 241.17 218.89 241.2 220.22 C241.23 222.03 241.25 223.84 241.25 225.65 C241.38 230.15 241.48 232.33 244.3 235.98 C246.46 237.6 248.51 239.04 250.88 240.31 C259.64 245.66 263.9 253.38 267 263 C269.19 273.57 267.91 284.19 266.44 294.76 C265.96 297.79 265.96 297.79 266 300 C266.91 300.06 267.81 300.12 268.75 300.18 C269.96 300.27 271.18 300.35 272.44 300.44 C273.63 300.52 274.83 300.6 276.06 300.68 C278.79 300.9 281.48 301.17 284.2 301.51 C288.74 302.02 293.23 302.16 297.8 302.17 C298.59 302.17 299.39 302.17 300.21 302.18 C301.88 302.18 303.55 302.19 305.21 302.19 C307.76 302.19 310.3 302.21 312.85 302.22 C314.48 302.23 316.11 302.23 317.73 302.23 C318.87 302.24 318.87 302.24 320.02 302.25 C324.17 302.23 327.24 301.73 331 300 C333.57 299.65 336.11 299.36 338.69 299.12 C344.6 298.5 349.49 297.29 354.95 294.83 C357.74 293.7 360.04 293.56 363 294 C363.66 294.66 364.32 295.32 365 296 C370.58 296.38 375.25 295.67 380.59 293.99 C381.28 293.78 381.98 293.57 382.69 293.36 C384.17 292.91 385.64 292.46 387.11 292.01 C389.4 291.31 391.68 290.62 393.98 289.93 C396.97 289.03 399.97 288.13 402.96 287.22 C407.9 285.73 412.85 284.24 417.81 282.81 C418.5 282.6 419.18 282.4 419.89 282.18 C423.67 281.1 426.22 280.95 430 282 C435 283.24 437.18 282.82 441.62 280.25 C450.94 274.87 460.95 273.45 471.56 273.56 C473.16 273.57 473.16 273.57 474.79 273.58 C508.59 274.24 539.44 281.85 563.54 306.33 C566.9 309.98 569.97 313.82 572.99 317.75 C574.93 319.92 576.33 320.94 579 322 C579.99 321.29 580.99 320.57 582.01 319.84 C605.74 303.01 628.1 296.67 657.35 300.47 C660.68 301.11 663.78 301.94 667 303 C668.25 303.4 669.5 303.8 670.79 304.22 C684.95 309.04 698.96 315.78 710 326 C710.48 326.44 710.97 326.88 711.46 327.34 C718.55 333.89 724.34 340.48 729 349 C729.61 350.08 730.21 351.16 730.84 352.27 C738.19 366.08 740.78 380.69 743 396 C743.13 396.89 743.27 397.78 743.41 398.7 C746.46 423.03 741.43 447.5 737.16 471.37 C734.64 485.51 732.6 499.46 732.62 513.88 C732.63 515.11 732.63 516.34 732.63 517.61 C732.8 530.3 734.49 542.58 737 555 C737.15 555.77 737.31 556.54 737.47 557.33 C739.17 565.39 742.02 572.39 745.62 579.71 C748.36 585.43 750.07 590.77 748.48 597.06 C747.26 600.21 745.89 603.2 743 605 C736.59 606.52 732.97 605.67 727 603 C727.05 603.92 727.09 604.84 727.14 605.78 C727.39 614.19 727.24 620.09 721.55 626.67 C720 628 720 628 716.94 628.56 C711.42 627.77 707.56 625.08 703 622 C703.16 622.5 703.32 622.99 703.48 623.5 C704.2 626.97 704.26 630.41 704.31 633.94 C704.34 634.64 704.37 635.34 704.4 636.07 C704.44 639.64 704.09 641.85 702.32 644.97 C698.79 648.06 696.17 647.58 691.68 647.35 C682.42 646.14 675.48 638.03 670 631 C669.38 631.97 668.76 632.94 668.12 633.94 C666 637 666 637 664 638 C658.39 638.37 654.78 638.26 650 635 C644.92 629.91 641.07 624.31 637.56 618.06 C637.09 617.24 636.63 616.41 636.14 615.56 C614.91 577.6 610.02 533.83 621.56 491.69 C624.15 482.73 627.7 474.24 631.38 465.69 C638.41 449.22 642.34 432.97 642.44 415 C642.47 413.91 642.5 412.83 642.54 411.71 C642.6 402.79 640.82 394.46 634.88 387.53 C626.68 379.5 618.44 377.54 607.2 377.66 C602.83 378.08 602.83 378.08 599 380 C597.35 384.69 596.79 389.21 596.42 394.14 C594.14 424.32 583.24 453.81 573.33 482.17 C571.25 488.16 569.19 494.16 567.16 500.17 C566.52 502.06 565.87 503.95 565.22 505.84 C558.66 525.34 557.89 543.51 566.75 562.38 C571.89 571.88 579.09 579.3 586.78 586.75 C589.95 589.96 590.22 591.77 590.38 596.19 C590.06 615.78 582.73 634.7 576.55 653.06 C572.5 664.83 572.5 664.83 570 677 C569.89 677.74 569.79 678.49 569.68 679.25 C568.71 687.15 568.8 695.12 568.81 703.06 C568.81 703.81 568.81 704.55 568.81 705.32 C568.84 722.48 569.03 739.85 573.39 756.54 C574.65 761.61 574.74 764.71 572.12 769.25 C571.42 770.16 570.72 771.07 570 772 C567.92 775.12 567.77 775.63 567.91 779.13 C567.93 779.94 567.95 780.75 567.97 781.58 C568.03 783.25 568.1 784.93 568.17 786.6 C568.33 793.9 567.42 800.35 562.38 805.88 C547.76 815.08 527.62 814.2 510.91 814.24 C508.44 814.25 505.97 814.28 503.49 814.31 C484.06 814.44 484.06 814.44 478.37 809.62 C474.94 805.73 472.72 801.83 472.62 796.62 C472.6 795.9 472.57 795.17 472.54 794.41 C473.66 788.52 478.69 783.9 482.56 779.5 C497.69 762.01 510.11 745.09 511 721 C511.05 719.8 511.1 718.6 511.16 717.37 C511.42 708 510.73 698.81 509.69 689.5 C509.57 688.41 509.45 687.33 509.33 686.21 C508.25 677.21 506.7 668.82 501.56 661.19 C500.99 660.31 500.41 659.44 499.82 658.54 C496.55 653.57 496.55 653.57 492 650 C491.82 650.73 491.64 651.46 491.45 652.21 C491.07 653.71 491.07 653.71 490.69 655.25 C490.41 656.35 490.14 657.45 489.86 658.59 C489.32 660.72 488.78 662.86 488.24 665 C487.48 667.97 486.74 670.96 486 673.94 C485.75 674.9 485.5 675.86 485.25 676.85 C480.5 696.16 479.54 715.19 479.44 735 C479.41 738.52 479.39 742.03 479.35 745.55 C479.32 747.71 479.31 749.88 479.3 752.04 C479.29 753.02 479.28 753.99 479.27 754.99 C479.27 755.84 479.26 756.69 479.26 757.57 C478.88 761.17 477.81 764.02 475.5 766.81 C474 768 474 768 472 768 C471.83 769.12 471.66 770.25 471.48 771.4 C468.1 792.7 468.1 792.7 460 799 C453.89 802.26 447.72 804.02 440.94 805.25 C440.03 805.42 439.12 805.59 438.18 805.76 C429.72 807.22 419.44 809 411.21 805.97 C405.86 804.35 400.42 804.96 394.88 805.17 C387.82 805.31 382.02 804.65 376.5 799.81 C374.44 795.95 374.05 793.2 375 789 C379.61 776.56 387.51 768.39 396.81 759.25 C402.44 753.68 406.34 747.68 409.72 740.55 C410.98 738.03 412.41 735.74 413.94 733.38 C416.55 729.09 418.47 724.73 420.25 720.06 C420.62 719.11 420.62 719.11 421 718.15 C426.03 704.44 428 685.7 423.5 671.62 C419.44 662.87 412.1 657.13 404.73 651.23 C390.65 639.72 381.95 625.98 375.93 608.97 C375.6 608.07 375.27 607.17 374.94 606.25 C374.68 605.47 374.42 604.69 374.15 603.89 C372.48 601.15 371.1 600.92 368 600 C364.75 599.7 361.5 599.7 358.24 599.7 C357.29 599.69 356.35 599.69 355.37 599.69 C353.37 599.68 351.37 599.68 349.37 599.68 C346.34 599.69 343.31 599.66 340.28 599.64 C338.33 599.64 336.38 599.64 334.43 599.64 C333.08 599.62 333.08 599.62 331.71 599.61 C324.38 599.66 317.05 600.56 311.19 605.25 C310.47 606.16 309.74 607.07 309 608 C308.17 608.95 307.35 609.9 306.5 610.88 C300.95 619.01 298.93 629.19 297.49 638.79 C297.36 639.61 297.24 640.43 297.11 641.27 C291.71 677.3 289.24 713.02 296 749 C297.18 755.51 298.3 761.87 298.38 768.5 C298.4 769.64 298.43 770.79 298.46 771.97 C297.9 775.63 296.89 776.77 294 779 C292.67 779.34 291.34 779.68 290 780 C288.98 783.05 288.88 785.62 288.81 788.8 C288.6 796.55 288.17 803.78 283 810 C278.75 813.35 274.67 814.95 269.44 816.06 C268.33 816.31 268.33 816.31 267.21 816.55 C253.45 819.48 239.9 821.26 225.81 821.38 C224.79 821.39 223.76 821.4 222.7 821.42 C213.77 821.36 205.21 820.13 198.47 813.83 C195.86 810.59 194.39 806.89 193 803 C192.62 803.48 192.25 803.96 191.86 804.46 C186.78 810.74 183.01 812.03 175 813 C172.19 813.13 169.39 813.14 166.58 813.13 C165.41 813.13 165.41 813.13 164.22 813.14 C162.58 813.14 160.95 813.13 159.31 813.13 C156.81 813.12 154.31 813.13 151.81 813.14 C150.21 813.14 148.62 813.13 147.02 813.13 C146.27 813.13 145.53 813.14 144.76 813.14 C141.35 813.12 138.27 813.01 135 812 C130.1 811.67 125.3 812.06 120.44 812.62 C114.18 813.23 109.57 812.62 104.12 809.19 C100.96 805.93 100.17 803.41 99.62 798.94 C100.81 786.52 106.71 777.05 115.5 768.5 C127.06 757.21 130.17 746.26 130.4 730.46 C130.43 726.43 130.41 722.4 130.38 718.38 C130.37 716.78 130.37 716.78 130.36 715.15 C130.2 685.55 127.02 656.93 122.7 627.68 C120.64 613.68 118.77 599.68 117.12 585.62 C116.97 584.31 116.97 584.31 116.81 582.98 C115.12 568.6 113.86 554.36 113.39 539.88 C113.36 538.82 113.32 537.76 113.28 536.67 C113.25 535.72 113.22 534.78 113.19 533.8 C112.99 530.82 112.54 527.94 112 525 C106.74 523.15 101.5 521.57 96.06 520.31 C71.07 514.52 50.32 504.74 31.35 487.14 C29.62 485.57 27.83 484.06 26.01 482.59 C-0.54 459.73 -10.73 416.55 -16.31 383.8 C-16.78 380.21 -16.78 380.21 -18 378 C-18.4 378.89 -18.8 379.79 -19.21 380.71 C-24.06 391.15 -30.72 402.75 -41.97 407.16 C-47.69 408.58 -53.65 408.84 -59.5 409.38 C-68.55 410.26 -77.06 411.32 -85.73 414.13 C-93.42 416.17 -101.39 416.17 -109.31 416.12 C-110.26 416.12 -111.2 416.12 -112.18 416.11 C-122.13 416.04 -132.07 415.7 -142 415 C-142.73 414.95 -143.47 414.9 -144.23 414.85 C-154.49 414.1 -160.95 411.92 -168.31 404.75 C-172.44 398.02 -174.52 390.45 -176.79 382.93 C-178.45 377.54 -180.35 372.26 -182.31 366.97 C-185.59 358.09 -188.7 349.25 -191 340.06 C-191.2 339.29 -191.39 338.52 -191.59 337.72 C-194.52 325.39 -195.13 313.6 -188.71 302.23 C-181.98 293.44 -172.93 288.07 -163.75 282.12 C-141.14 268.95 -141.14 268.95 -126 249 C-125.69 246 -125.5 243.02 -125.41 240 C-124.36 232.26 -119.74 228.71 -113.93 224.11 C-110.69 221.77 -107.35 219.95 -103.81 218.12 C-100.24 215.92 -99.27 212.81 -98 209 C-97.87 206.64 -97.8 204.27 -97.75 201.91 C-97.72 200.47 -97.69 199.03 -97.65 197.59 C-97.61 195.34 -97.56 193.09 -97.52 190.84 C-97.15 170.8 -94 157.22 -80 142 C-78.71 140.83 -77.4 139.67 -76.06 138.56 C-72.77 135.81 -71.22 134.1 -70.77 129.82 C-70.78 129.07 -70.8 128.33 -70.81 127.56 C-70.82 126.82 -70.83 126.08 -70.83 125.32 C-70.94 123.01 -70.94 123.01 -71.5 120.84 C-74.31 105 -72.66 85.55 -63.64 71.96 C-57.14 63.65 -47.69 58.79 -37.88 55.44 C-33.13 53.79 -33.13 53.79 -30 50 C-29.63 48.68 -29.31 47.34 -29 46 C-23.77 29.37 -13.33 14.14 -2 1 C-1.34 0.67 -0.68 0.34 0 0 Z M-1 11 C-10.76 22.84 -20.32 36.98 -24 52 C-23.23 51.97 -22.47 51.93 -21.68 51.89 C-12.98 51.68 -4.78 52.58 3.8 53.93 C4.66 54.07 5.52 54.2 6.41 54.34 C7.17 54.47 7.94 54.6 8.73 54.72 C11.17 55.02 13.54 55.05 16 55 C14.73 38.35 9.67 24.69 0 11 C-0.33 11 -0.66 11 -1 11 Z M107 15 C103.68 16.39 100.37 17.79 97.06 19.19 C96.14 19.57 95.21 19.96 94.26 20.36 C74.41 28.79 59.5 41.79 48 60 C47.53 60.73 47.07 61.46 46.59 62.22 C41.28 71.54 43.12 82.22 44.81 92.31 C45.19 94.69 45.57 97.07 45.94 99.45 C46.12 100.57 46.31 101.7 46.5 102.86 C47.13 106.8 47.7 110.74 48.25 114.69 C48.47 116.27 48.47 116.27 48.7 117.89 C48.8 118.58 48.9 119.28 49 120 C46.37 117.46 44.45 115.38 43 112 C42.34 112 41.68 112 41 112 C40.8 112.67 40.61 113.33 40.41 114.02 C37.88 121.8 34.19 127.71 29 134 C28.42 134.72 27.83 135.44 27.23 136.19 C13.5 151.5 -9.41 155.85 -28.72 158.54 C-47.41 161.23 -62.55 169.55 -74.36 184.4 C-76.22 186.21 -77.46 186.61 -80 187 C-79.51 181.96 -77.04 178.86 -74.19 174.88 C-66.4 163.49 -64.34 154.66 -65 141 C-76.44 148.35 -83.55 159.63 -86.6 172.9 C-87.31 176.62 -87.75 180.35 -88.12 184.12 C-88.21 184.95 -88.29 185.78 -88.38 186.63 C-90.17 203.97 -90.17 203.97 -84.1 219.83 C-80.18 224.37 -74.75 226.89 -69.56 229.75 C-55.27 237.88 -42.83 246.58 -31 258 C-30.21 258.74 -29.42 259.48 -28.61 260.24 C-18.52 269.9 -11.21 280.06 -6 293 C15.76 283.04 33.72 268.38 51 252 C52.32 250.76 52.32 250.76 53.66 249.5 C59.97 243.41 65.36 236.8 70.63 229.81 C71.94 228.08 73.27 226.36 74.61 224.65 C87.5 207.89 105.87 183.97 107.52 162.23 C106.39 157.42 102.6 154.23 98.62 151.62 C97.42 150.88 96.21 150.16 95 149.44 C88.71 145.68 83.86 141.68 79.81 135.44 C79.08 134.32 79.08 134.32 78.33 133.18 C77.1 131.16 76.02 129.13 75 127 C72.52 127.5 72.52 127.5 70 128 C76.7 117.74 84.08 108.61 92.97 100.16 C104.61 89.06 109.5 76.44 110.09 60.46 C110.13 57.72 110.14 54.99 110.12 52.25 C110.12 50.77 110.12 50.77 110.11 49.25 C110.07 42.27 109.91 35.29 109.62 28.31 C109.59 27.43 109.56 26.56 109.53 25.65 C109.49 24.83 109.45 24.02 109.41 23.18 C109.38 22.46 109.35 21.75 109.32 21.02 C108.95 18.71 108.14 17.03 107 15 Z M-55.88 73.5 C-64.08 83.16 -66.89 95.79 -66.61 108.33 C-65.82 116.25 -63.53 124.06 -61.49 131.75 C-59.1 140.84 -58.45 147.67 -60 157 C-60.19 158.13 -60.37 159.27 -60.56 160.44 C-60.78 161.71 -60.78 161.71 -61 163 C-31.53 149.74 -31.53 149.74 -13.41 124.04 C-11.45 117.96 -11.19 111.77 -10.81 105.44 C-10.73 104.24 -10.65 103.04 -10.56 101.8 C-10.37 98.87 -10.18 95.94 -10 93 C-5.68 97.32 -6.69 103.97 -6.69 109.73 C-6.95 125.41 -12.43 137.57 -23.44 148.69 C-24.95 150.14 -26.47 151.58 -28 153 C-25.42 154.29 -24.64 153.8 -21.92 153 C-21.1 152.75 -20.27 152.51 -19.42 152.26 C-18.1 151.85 -18.1 151.85 -16.75 151.44 C-15.85 151.16 -14.94 150.88 -14.01 150.6 C4.19 144.89 22.06 136.88 31.75 119.44 C36.26 109.51 38.34 99.3 38.44 88.44 C38.45 87.7 38.46 86.96 38.47 86.2 C38.37 79.95 36.98 75.13 32.62 70.44 C8 52.01 -32.83 53.46 -55.88 73.5 Z M110 94 C104.93 96.68 101.12 100.83 97.55 105.22 C94 109.3 89.66 112.67 85.45 116.04 C84.62 116.73 83.79 117.42 82.94 118.12 C82.16 118.75 81.39 119.37 80.59 120.01 C78.76 121.89 78.76 121.89 78.96 124.39 C82.97 134.5 93.56 141.06 102.36 146.63 C107.61 149.98 112.3 153.93 117 158 C117.9 158.75 118.8 159.51 119.72 160.28 C129.33 168.54 133.53 175.98 134.53 188.68 C134.74 191.78 134.94 194.88 135.12 197.98 C135.97 210.85 135.97 210.85 142.69 221.38 C150.89 228.02 162.78 229.27 173 230 C172.83 230.53 172.67 231.07 172.5 231.62 C170.73 240.11 172.76 248.18 177.21 255.43 C185.2 266.87 194.26 273.27 208 276 C209.43 276.23 210.87 276.45 212.3 276.67 C213.43 276.85 213.43 276.85 214.59 277.03 C216.08 277.25 217.58 277.46 219.07 277.65 C224.29 278.42 226.76 279.88 230 284 C231.84 287.25 233.44 290.57 235.06 293.94 C237.96 298.51 241.46 300.41 246.44 302.31 C250.34 303.07 253.14 302.91 257 302 C261.36 297.64 260.92 288.61 261.05 282.61 C261.01 271.57 260.68 259.06 252.82 250.38 C249.25 247.67 245.05 245.92 240.96 244.1 C237.08 241.34 235.95 238.51 235 234 C234.38 229.12 234.15 224.22 233.92 219.31 C233.46 212.33 232.19 208.34 227.25 203.17 C226.7 202.7 226.14 202.23 225.56 201.75 C225.01 201.27 224.45 200.79 223.88 200.3 C219.8 197.48 216.17 196.75 211.26 196.8 C210.2 196.81 209.13 196.82 208.03 196.82 C206.93 196.84 205.82 196.86 204.69 196.88 C203.57 196.88 202.44 196.89 201.29 196.9 C198.52 196.93 195.76 196.96 193 197 C193.21 196.16 193.21 196.16 193.43 195.31 C195.94 184.82 196.93 172.91 192 163 C191.59 162.16 191.17 161.32 190.75 160.45 C187.12 153.78 182.95 148.62 175.55 146.2 C170.34 145.03 165.32 144.8 160 145 C160.16 144.44 160.32 143.89 160.49 143.32 C161.47 138.9 161.27 134.38 161.31 129.88 C161.34 128.88 161.37 127.88 161.4 126.86 C161.47 118.58 159.6 112.13 155.19 105.12 C148.49 98.62 142.55 98.44 133.56 98.44 C125.98 98.41 119.96 98.14 113 95 C112.01 94.67 111.02 94.34 110 94 Z M113 166 C112.52 167.51 112.52 167.51 112.04 169.05 C100.99 202.85 78.36 235.85 51.36 258.97 C49.55 260.53 47.76 262.1 45.98 263.68 C32.38 275.7 17.48 285.58 2 295 C3.96 297.7 5.97 300.35 8 303 C8.9 304.21 8.9 304.21 9.81 305.44 C13.35 307.96 16.71 308.25 21 308 C35.68 304.81 49.75 292.44 61 283 C62.02 282.16 63.03 281.32 64.08 280.46 C75.38 270.67 83.68 258.38 92.26 246.24 C99.57 235.92 107.26 225.88 115.11 215.96 C126.16 202.18 126.16 202.18 128 185 C126.86 178.4 124.8 173.69 120 169 C116.78 166.64 116.78 166.64 113 166 Z M127 207 C126.06 208.29 125.17 209.62 124.3 210.96 C123.74 211.82 123.17 212.67 122.6 213.55 C121.99 214.48 121.38 215.42 120.75 216.38 C107.58 236.32 93.44 255.74 78 274 C77.32 274.83 76.64 275.65 75.94 276.5 C66.67 287.37 54.93 295.31 43 303 C41 304.33 39 305.66 37 307 C37.58 310.38 38.58 311.91 41.1 314.21 C42.05 315.08 42.05 315.08 43.02 315.97 C43.69 316.58 44.37 317.19 45.06 317.81 C46.09 318.76 46.09 318.76 47.14 319.72 C50.5 322.79 53.9 325.8 57.38 328.75 C71.67 341.23 80.44 357.64 89.31 374.12 C89.65 374.75 89.99 375.37 90.34 376.02 C104.08 401.45 104.08 401.45 104.16 415.28 C104.17 416.53 104.18 417.78 104.19 419.06 C104.19 419.73 104.2 420.39 104.2 421.08 C104.21 423.19 104.23 425.3 104.25 427.41 C104.31 433.41 104.37 439.42 104.4 445.42 C104.48 466.67 104.48 466.67 106.35 487.82 C106.47 488.69 106.58 489.57 106.7 490.47 C107.38 494.87 108.09 498.49 111 502 C113.29 503.35 113.29 503.35 115.98 504.13 C116.97 504.46 117.96 504.79 118.99 505.13 C120.04 505.46 121.1 505.79 122.19 506.12 C123.81 506.64 123.81 506.64 125.46 507.17 C159.16 517.7 188.52 508.88 219.11 492.88 C238.68 482.34 255.6 468.95 271 453 C269.64 450.03 268.05 447.74 265.94 445.25 C240.9 413.48 237.04 371.94 241 333 C241.85 327.15 243.14 321.44 245.1 315.87 C246.2 312.87 246.2 312.87 246 309 C245.36 308.73 244.72 308.46 244.06 308.19 C235.11 304.13 229.98 298.54 225.53 289.86 C221.3 284.73 215.62 283.47 209.31 282.56 C194.75 280.17 182.78 274.1 174 262 C167.95 252.87 167.03 244.63 167 234 C166.09 233.96 165.19 233.93 164.25 233.89 C154.07 233.34 144.65 232.36 137 225 C132.72 219.66 130.34 213.37 128 207 C127.67 207 127.34 207 127 207 Z M-113 234 C-116.62 238.9 -117.46 242.53 -117.63 248.57 C-116.69 252.21 -114.91 253.68 -112 256 C-108.63 257.27 -108.63 257.27 -104.94 258 C-86.64 262.37 -70.89 271.82 -56 283 C-54.95 283.78 -53.89 284.55 -52.81 285.36 C-45.51 290.77 -38.38 296.38 -31.37 302.17 C-28.74 304.2 -27.31 304.92 -24 305 C-18.99 302.83 -15.01 298.64 -11 295 C-11.51 290.31 -13.65 287.15 -16.38 283.44 C-16.82 282.83 -17.26 282.21 -17.72 281.58 C-22.38 275.3 -27.58 269.63 -33 264 C-33.75 263.17 -34.51 262.34 -35.29 261.49 C-46.76 249.27 -61.48 240.19 -76 232 C-76.99 231.43 -76.99 231.43 -78.01 230.85 C-80.02 229.69 -82.04 228.56 -84.06 227.44 C-84.67 227.09 -85.28 226.74 -85.9 226.39 C-95.72 221.07 -105.63 226.63 -113 234 Z M-122.62 264.69 C-133.81 274.43 -147.1 281.63 -160.25 288.38 C-171.34 294.09 -180.93 299.92 -185.13 312.34 C-189.65 331.37 -181.42 350.01 -174.4 367.38 C-171.38 374.87 -168.76 382.45 -166.38 390.18 C-164.39 396.46 -162.06 402.62 -156 406 C-151.49 406.94 -147.11 407.17 -142.51 407.28 C-141.46 407.31 -141.46 407.31 -140.38 407.34 C-138.15 407.4 -135.92 407.45 -133.69 407.5 C-125.08 407.7 -116.56 407.92 -108 409 C-98.98 409.69 -91.4 409.7 -84 404 C-68.99 389.53 -65.34 369.2 -63.39 349.41 C-63 346 -63 346 -62 343 C-57.48 356.57 -60.5 377.19 -66.62 389.84 C-67.51 391.58 -68.44 393.3 -69.38 395.01 C-70.8 397.64 -71.96 400.21 -73 403 C-69.85 402.89 -66.71 402.76 -63.56 402.62 C-62.24 402.58 -62.24 402.58 -60.9 402.53 C-51.01 402.09 -43.34 400.98 -36 394 C-30.45 387.33 -27.29 380.49 -24.75 372.25 C-24.41 371.2 -24.08 370.14 -23.73 369.06 C-17.46 350.62 -17.46 350.62 -19.19 331.81 C-19.79 330.88 -20.38 329.96 -21 329 C-21.82 327.73 -22.63 326.46 -23.44 325.19 C-23.87 324.51 -24.31 323.83 -24.76 323.13 C-26.01 320.99 -26.87 318.88 -27.75 316.56 C-32.41 305.84 -43.89 298.83 -53 292 C-54.07 291.19 -54.07 291.19 -55.16 290.37 C-87.6 265.15 -87.6 265.15 -122.62 264.69 Z M440 290 C440 294.24 440.05 294.54 442.63 297.47 C443.47 298.44 443.47 298.44 444.32 299.43 C444.91 300.11 445.51 300.8 446.12 301.5 C464.47 323.51 468.85 353.97 467 382 C463.91 410.38 451.81 439.38 432 460 C431.08 460.99 430.17 461.98 429.25 462.98 C415.87 477.21 400.04 484.18 382 491 C381.21 491.31 380.42 491.61 379.61 491.92 C360.99 498.97 341.18 497.83 323.07 489.87 C316.03 486.66 309.44 483.31 303 479 C298.99 477.72 298.99 477.72 295 478 C292.45 479.4 290.27 481.06 287.97 482.84 C284.46 485.39 280.8 487.43 277 489.5 C272.4 492.02 267.99 494.59 263.75 497.69 C235.14 518.19 194.74 522.28 160.57 522.03 C152.86 521.98 145.19 522.04 137.5 522.44 C136.72 522.48 135.95 522.52 135.15 522.56 C130.72 522.81 126.38 523.31 122 524 C126.01 539.24 138.18 551.89 151.2 559.99 C167.53 569.45 186.08 574.61 204.19 579.46 C206 580 206 580 208 581 C208.33 575.39 208.66 569.78 209 564 C209.99 564 210.98 564 212 564 C220.55 603.63 223.45 644.45 227.56 684.72 C227.87 687.72 228.18 690.73 228.5 693.73 C233.67 743.56 233.67 743.56 231 760 C231.66 760.04 232.32 760.08 232.99 760.12 C252.93 761.38 271.22 764.15 290 771 C290.41 762.87 289.16 755.39 287.56 747.44 C287.1 745.1 286.65 742.77 286.19 740.43 C285.99 739.41 285.78 738.39 285.57 737.34 C284.36 730.27 283.83 723.29 283.76 716.12 C283.75 715.29 283.74 714.46 283.73 713.6 C283.53 691.27 284.78 669.48 287.38 647.32 C288.41 638.55 289.31 629.76 290.24 620.98 C290.56 617.97 290.88 614.96 291.21 611.95 C292.17 603.05 293.1 594.15 293.91 585.24 C293.98 584.5 294.05 583.76 294.12 583 C294.43 579.63 294.73 576.26 295.01 572.89 C295.12 571.75 295.22 570.6 295.32 569.42 C295.41 568.44 295.49 567.45 295.58 566.44 C296 564 296 564 298 561 C300.7 568.21 301.4 574.91 301.59 582.58 C302.03 586.24 302.69 588.15 305 591 C309.06 592.35 313.21 592.16 317.44 592.17 C318.27 592.17 319.09 592.18 319.95 592.18 C322.63 592.19 325.32 592.19 328 592.19 C329.37 592.19 329.37 592.19 330.78 592.18 C333.53 592.18 336.28 592.17 339.04 592.15 C340.3 592.14 340.3 592.14 341.58 592.14 C349.86 592.06 358.04 591.59 366.23 590.39 C369.64 589.91 373.06 589.49 376.48 589.07 C392.17 587.06 407.48 584.2 422.81 580.31 C423.59 580.11 424.38 579.92 425.18 579.71 C434.74 577.34 434.74 577.34 444 574 C444.08 572.89 444.16 571.77 444.25 570.62 C445 567 445 567 447.06 565.56 C447.7 565.38 448.34 565.19 449 565 C449.23 565.78 449.46 566.56 449.7 567.36 C457.59 589.38 471.33 609.48 487.19 626.5 C501.37 642.17 515.27 660.54 518 682 C518.09 682.66 518.18 683.32 518.27 684 C519.2 691.87 519.29 699.77 519.35 707.68 C519.37 709.3 519.39 710.92 519.43 712.53 C519.71 724.29 518.19 734 514 745 C515.89 746.89 518.69 746.59 521.23 746.95 C536.06 749.03 547.53 753.49 560.36 761.06 C562.21 762.12 564.08 763.09 566 764 C565.89 763.27 565.78 762.54 565.67 761.78 C565.31 759.37 564.97 756.95 564.64 754.53 C564.22 751.46 563.73 748.4 563.2 745.34 C560.9 731.06 560.67 716.87 560.62 702.44 C560.62 701.44 560.61 700.45 560.6 699.42 C560.48 678.98 564.76 661.88 571.31 642.62 C574.36 633.6 577.28 624.6 579.41 615.3 C579.66 614.24 579.66 614.24 579.91 613.16 C581.49 605.86 582.2 598.79 578.45 592.08 C576.09 588.7 573.25 585.78 570.44 582.76 C557.83 568.49 549.99 550.92 550.68 531.58 C552.53 510.88 560.39 491.57 567.25 472.12 C572.38 457.58 576.93 443.02 580.88 428.12 C581.07 427.39 581.26 426.66 581.46 425.91 C582.68 421.28 583.86 416.65 585 412 C585.23 411.08 585.45 410.15 585.69 409.2 C591.37 383.88 585.68 352.99 572 331 C566.95 323.87 560.95 317.39 555 311 C554.29 310.23 553.58 309.45 552.85 308.65 C534.62 289.47 506.7 283.89 481 283 C480.01 282.95 479.01 282.9 477.99 282.84 C464.93 282.46 452.03 284.88 440 290 Z M398.06 296.81 C396.77 297.17 395.48 297.53 394.18 297.89 C391.66 298.59 389.13 299.3 386.61 300.01 C382.24 301.21 377.83 302.25 373.41 303.25 C369.76 304.39 368.23 305.93 366 309 C365.08 311.75 364.85 313.52 364.79 316.37 C364.21 335.88 361.29 354.34 357.12 373.38 C356.96 374.14 356.8 374.9 356.63 375.68 C353.6 389.59 349.96 403.1 343.38 415.81 C342.95 416.65 342.52 417.48 342.08 418.34 C332.31 437.19 320.6 453.6 306 469 C307.04 472.24 308.12 473.08 311.06 474.93 C312.37 475.59 313.68 476.24 315 476.88 C315.7 477.22 316.4 477.56 317.12 477.91 C341.11 489.32 360.59 489.48 385.5 480.66 C414.16 470.2 435.47 450.42 448.48 422.63 C462.92 388.12 463.41 354.17 450 319 C446.93 312.6 442.81 307.34 438.12 302.06 C437.64 301.51 437.16 300.95 436.67 300.38 C431.6 294.9 426.35 292.9 418.93 292.57 C411.72 292.79 404.96 294.83 398.06 296.81 Z M-19.56 310 C-21.48 314 -21.31 315.77 -20 320 C-18.22 322.87 -16.22 325.46 -14 328 C-13.35 328.89 -13.35 328.89 -12.68 329.8 C-10.97 331.26 -10.97 331.26 -8.27 331.05 C-3.86 329.63 -1.1 327.19 2.31 324.12 C2.94 323.58 3.58 323.04 4.23 322.48 C7.93 319.33 7.93 319.33 10 315 C7.69 311.39 4.8 308.24 2 305 C1.53 304.42 1.05 303.83 0.56 303.23 C-1.42 300.96 -2.88 300.03 -5.81 299.25 C-11.88 300.68 -15.63 305.4 -19.56 310 Z M350.07 305.22 C347.81 306.07 345.64 306.47 343.25 306.88 C339.95 307.55 339.25 307.7 337 310.38 C335.64 313.94 334.9 317.22 334.64 321.03 C331.86 356.83 317.72 390.54 301 422 C300.65 422.66 300.31 423.32 299.95 423.99 C277.81 465.55 243.53 491.26 201 510 C201 510.33 201 510.66 201 511 C208.91 510.57 216.11 509.16 223.69 506.88 C224.74 506.56 225.78 506.25 226.87 505.93 C235.59 503.26 243.82 500.04 252 496 C252.96 495.54 252.96 495.54 253.93 495.07 C272.44 486.15 290.57 474.7 305 460 C305.72 459.34 306.43 458.69 307.17 458.01 C317.56 448.32 324.38 435.41 331 423 C331.35 422.35 331.7 421.7 332.06 421.04 C351.64 384.44 357.44 344.04 357 303 C354.35 303 352.45 304.14 350.07 305.22 Z M252.96 313.28 C240.98 329.9 245.02 364.77 247.89 383.85 C251.64 405.73 259.12 429.7 276 445 C280.31 443.56 281.59 440.36 283.81 436.62 C284.29 435.84 284.76 435.05 285.25 434.24 C305.58 399.91 326.05 359.73 328.55 319.17 C328.61 318.13 328.61 318.13 328.68 317.08 C328.79 315.38 328.89 313.69 329 312 C327.32 312.02 327.32 312.02 325.6 312.05 C321.35 312.1 317.1 312.14 312.84 312.16 C311.02 312.18 309.2 312.2 307.37 312.23 C294.5 312.41 282.29 311.7 269.78 308.42 C262.72 306.76 257.79 307.88 252.96 313.28 Z M586 326 C583.62 329.58 583.42 331.88 584 336 C585.07 339.99 586.43 343.86 587.81 347.75 C590.5 355.44 592.97 363.11 595 371 C595.92 370.78 596.84 370.57 597.78 370.34 C610.49 367.46 621.21 366.55 632.85 373.77 C642.74 381.35 648.88 390.63 651 403 C652.53 429.56 647.48 451.28 636.94 475.44 C632.62 485.36 629.64 495.53 627 506 C626.74 506.99 626.49 507.98 626.22 509 C617.95 546.72 628.89 586.98 648.69 619.12 C653.39 626.41 653.39 626.41 661 630 C661 623.07 661 616.14 661 609 C665.49 610.12 665.49 610.12 667.63 613.21 C668.1 613.87 668.57 614.54 669.06 615.22 C669.56 615.93 670.05 616.64 670.56 617.38 C674.38 622.63 678.25 627.74 682.75 632.44 C683.57 633.3 684.39 634.17 685.23 635.06 C688.93 637.65 691.53 637.74 696 638 C696.66 625.13 696.66 625.13 693.67 612.77 C692.69 610.17 692.79 607.74 693 605 C697.55 605.48 699.53 607.07 702.75 610.25 C707.16 614.41 711.55 617.38 717 620 C717.74 618.48 717.74 618.48 718.5 616.94 C718.78 616.37 719.06 615.8 719.34 615.21 C720.96 609.77 719.83 604.46 718.56 599.06 C717.42 594.03 716.51 589.13 716 584 C718.93 585.54 720.82 586.76 722.81 589.44 C726.68 593.97 731.04 595.84 736.94 596.31 C739.87 596.34 739.87 596.34 741 595 C740.67 589.12 739.31 585.11 736.25 580.06 C726.11 562.15 722.83 539.69 722.81 519.31 C722.8 518.54 722.79 517.76 722.78 516.96 C722.73 497.95 725.96 479.35 729.56 460.75 C730.18 457.51 730.8 454.26 731.42 451.02 C731.8 449.02 732.18 447.03 732.57 445.04 C738.54 413.77 736.25 375.63 717.9 348.55 C701.27 326.24 676.83 313 649.56 308.62 C625.8 305.96 605.37 312.22 586 326 Z M23.94 314.19 C23.27 314.61 22.59 315.04 21.9 315.48 C15.84 320.32 15.23 327.17 14.26 334.46 C9.68 378.54 26.61 421.31 53.69 455.44 C66.75 471.45 81.66 485.27 100 495 C99.86 494.04 99.86 494.04 99.72 493.07 C97.12 473.97 96.73 455.19 96.94 435.94 C97.82 418.72 97.82 418.72 93.94 402.25 C93.49 401.25 93.03 400.26 92.57 399.23 C92.05 398.16 91.53 397.1 91 396 C90.43 394.82 89.86 393.64 89.28 392.43 C87.62 389.03 85.9 385.66 84.17 382.3 C82.92 379.83 81.69 377.35 80.46 374.87 C72.09 358.17 61.79 344.52 49 331 C47.43 329.25 45.87 327.5 44.31 325.75 C41.48 322.61 38.62 319.49 35.69 316.44 C34.77 315.48 34.77 315.48 33.82 314.5 C30.12 311.46 27.86 311.61 23.94 314.19 Z M4.38 329.19 C1.36 331.95 -1.56 334.48 -5 336.69 C-8.52 339.4 -8.91 340.78 -10 345 C-10.32 347.89 -10.32 347.89 -10.3 350.86 C-10.31 351.96 -10.32 353.07 -10.33 354.21 C-10.13 393.74 1.3 442.33 29 472 C29.51 472.55 30.01 473.09 30.53 473.65 C52.36 497.04 83.29 513.14 115.68 515.17 C117.45 515.18 119.23 515.11 121 515 C117.58 512.1 113.79 510.55 109.69 508.88 C86.89 499.17 65.3 482.54 50 463 C49.58 462.47 49.15 461.93 48.72 461.39 C27.53 434.57 12.83 403.95 8 370 C7.87 369.12 7.74 368.23 7.6 367.32 C6.09 355.18 6.55 342.96 9 331 C9.34 329 9.67 327 10 325 C7.9 325 5.79 327.88 4.38 329.19 Z M122 543 C121.55 554.96 122.95 566.48 124.5 578.31 C124.77 580.4 125.03 582.48 125.3 584.57 C127.75 603.64 130.43 622.68 133.2 641.7 C134.17 648.46 135.1 655.23 136 662 C136.15 663.14 136.3 664.27 136.46 665.44 C138.94 684.61 139.25 703.36 138.86 722.66 C138.8 726.26 138.75 729.86 138.71 733.46 C138.67 735.1 138.67 735.1 138.62 736.77 C138.55 742.7 138.55 742.7 140.72 748.12 C143.13 750.11 144.72 750.91 147.75 751.62 C148.66 751.85 149.57 752.08 150.52 752.32 C151.48 752.54 152.44 752.77 153.44 753 C155.43 753.5 157.42 754.01 159.41 754.52 C160.37 754.77 161.33 755.02 162.32 755.27 C169.37 757.19 176.07 759.91 182.5 763.38 C185.81 765.26 185.81 765.26 189 764.75 C189.66 764.5 190.32 764.25 191 764 C191.17 757.78 190.53 751.95 189.56 745.81 C187.07 729.99 186.72 714.3 186.69 698.31 C186.68 697.21 186.68 696.1 186.68 694.96 C186.67 675.65 188.18 657.07 191 638 C196.89 612.06 196.89 612.06 192.93 587.79 C190.02 584.64 186.63 583.29 182.62 582 C181.19 581.5 179.76 581 178.32 580.49 C177.6 580.24 176.88 580 176.13 579.74 C156.11 572.79 140.13 564.14 126.4 547.66 C125.01 546.01 123.53 544.51 122 543 Z M437.11 583.83 C435.94 584.21 434.76 584.6 433.55 585 C432.93 585.2 432.31 585.41 431.67 585.62 C418.74 589.86 406.03 592.73 392.53 594.6 C388.64 595.21 384.83 596.1 381 597 C386.31 621.41 402.49 640.43 422 655.28 C428.63 660.83 432.73 671.34 433.86 679.78 C434.77 700.13 432.04 718.26 422 736 C421.08 737.66 420.16 739.31 419.24 740.97 C418.49 742.31 417.75 743.66 417 745 C417.72 745.16 418.44 745.31 419.18 745.47 C444.36 750.96 444.36 750.96 456 756 C458.04 756.79 460.08 757.56 462.12 758.31 C462.99 758.64 463.86 758.96 464.76 759.3 C467.09 760.15 467.09 760.15 470 760 C470 759.39 470.01 758.78 470.01 758.16 C470.05 751.68 470.12 745.2 470.21 738.73 C470.24 736.33 470.26 733.93 470.27 731.53 C470.41 710.11 472.24 689.18 478.56 668.62 C479.15 666.64 479.73 664.65 480.32 662.66 C480.6 661.73 480.87 660.8 481.16 659.83 C482.03 656.89 482.88 653.95 483.71 651 C483.96 650.12 484.2 649.25 484.46 648.35 C485.71 642.92 484.25 639.13 481.62 634.44 C478.12 628.9 474.03 623.84 469.95 618.72 C462.71 609.63 455.75 600.68 451 590 C450.24 588.45 449.47 586.91 448.69 585.38 C448.13 584.26 447.57 583.15 447 582 C443.08 582 440.78 582.59 437.11 583.83 Z M207 587 C205.01 591.28 204.37 595.51 203.82 600.15 C203.72 600.95 203.62 601.74 203.51 602.56 C203.19 605.17 202.88 607.77 202.56 610.38 C202.34 612.18 202.12 613.98 201.9 615.79 C199.99 631.5 198.35 647.23 197 663 C196.9 664 196.81 664.99 196.71 666.02 C195.71 677.46 195.81 688.93 195.81 700.4 C195.81 704.03 195.79 707.66 195.78 711.29 C195.75 723.84 196.21 736.14 197.56 748.62 C198.53 757.76 197.89 766.64 197 775.75 C196.41 781.86 195.86 787.86 196 794 C197.64 791.84 199.24 789.66 200.8 787.45 C203.82 783.17 206.75 779.05 210.56 775.44 C216.91 769.4 223.45 760.99 224.42 752.13 C224.45 750.57 224.44 749.01 224.42 747.45 C224.41 746.56 224.41 745.66 224.4 744.75 C224.09 729.91 222.15 715.11 220.53 700.37 C220.06 696.05 219.6 691.73 219.14 687.42 C218.95 685.69 218.77 683.96 218.59 682.23 C218.5 681.38 218.41 680.54 218.31 679.66 C218.04 677.12 217.77 674.57 217.49 672.03 C216.12 659.25 214.83 646.48 213.62 633.69 C213.55 632.87 213.47 632.05 213.39 631.21 C212.67 623.59 211.99 615.97 211.39 608.34 C211.3 607.2 211.21 606.06 211.12 604.88 C210.96 602.86 210.82 600.84 210.68 598.82 C210.36 594.52 209.96 590.93 208 587 C207.67 587 207.34 587 207 587 Z M399.23 768.46 C397.79 770.1 396.33 771.71 394.83 773.29 C389.75 778.7 384.22 785.06 383.88 792.8 C383.94 793.89 383.94 793.89 384 795 C388.79 797.94 393.45 799.13 399 798 C400.92 795.13 401.23 794.21 401.69 791 C403.09 784.12 407.47 776.45 413 772 C413.99 772 414.98 772 416 772 C415.29 777.97 412.94 782.55 410.28 787.88 C409.04 790.91 408.72 792.78 409 796 C420.41 799.69 432.13 798.48 443.75 796.31 C444.6 796.16 445.44 796.02 446.31 795.86 C451.6 794.77 454.54 793.39 458 789 C461.48 783.37 462.05 776.43 461 770 C455.99 762.63 446.05 760.17 437.88 757.81 C437.01 757.55 436.14 757.29 435.25 757.03 C417.1 751.68 411.42 754.55 399.23 768.46 Z M508.56 758.38 C507.05 760.39 505.69 762.48 504.34 764.61 C499.71 771.82 494.65 777.92 488.73 784.09 C483.09 789.69 483.09 789.69 481 797 C482.68 800.81 484.17 802.48 488 804 C490.81 804.45 490.81 804.45 493.75 804.62 C494.73 804.7 495.72 804.77 496.73 804.85 C497.48 804.9 498.23 804.95 499 805 C499.09 803.69 499.09 803.69 499.19 802.36 C500.13 793.18 502.36 786.48 508 779 C511 777 511 777 515 777 C513.71 781.07 512.17 784.88 510.38 788.75 C507.98 794.36 507.4 798.97 508 805 C533.08 806 533.08 806 557 800 C559.38 796.44 559.44 793.64 559.62 789.5 C559.66 788.79 559.69 788.07 559.73 787.34 C559.79 785.9 559.86 784.46 559.91 783.02 C559.99 781.24 560.11 779.46 560.23 777.68 C560.28 776.73 560.33 775.79 560.38 774.81 C560.45 773.58 560.45 773.58 560.52 772.33 C559.61 768.28 556.72 766.14 553.35 763.9 C551.49 762.82 549.61 761.83 547.69 760.88 C547 760.53 546.3 760.18 545.59 759.83 C535.38 755 517.7 749.47 508.56 758.38 Z M131.08 762.03 C130.47 762.85 129.87 763.66 129.25 764.5 C126.45 768.18 123.56 771.59 120.38 774.94 C113.69 782.32 109 789.86 109 800 C110.72 803.25 110.72 803.25 114 804 C115.83 804.14 117.67 804.22 119.5 804.25 C120.94 804.29 120.94 804.29 122.41 804.33 C125 804.2 125 804.2 126.76 802.77 C128.24 800.66 128.76 798.87 129.38 796.38 C130.83 791.08 133.15 786.66 136 782 C137.32 782 138.64 782 140 782 C139.78 782.93 139.57 783.86 139.34 784.82 C139.07 786.05 138.79 787.29 138.5 788.56 C138.22 789.78 137.94 791 137.66 792.25 C137.01 795.92 136.89 799.29 137 803 C140.41 803.77 143.57 804.13 147.06 804.13 C148.5 804.14 148.5 804.14 149.96 804.14 C150.96 804.13 151.97 804.13 153 804.12 C154.03 804.12 155.06 804.12 156.12 804.11 C170.8 804.81 170.8 804.81 184 800 C187.71 794.11 188.14 788.65 188.12 781.81 C188.13 780.58 188.13 779.35 188.13 778.08 C188.21 775.09 188.21 775.09 187 773 C185.06 772.1 183.08 771.3 181.09 770.54 C179.86 770.07 178.63 769.6 177.36 769.11 C176.03 768.62 174.7 768.12 173.38 767.62 C172.71 767.38 172.05 767.13 171.37 766.87 C150.67 757.38 150.67 757.38 131.08 762.03 Z M222.16 773.2 C221.66 774.02 221.15 774.84 220.62 775.69 C218.29 779.24 215.96 782.2 212.88 785.12 C207.26 790.55 203.16 795.91 203 804 C203.53 806.39 203.53 806.39 205 808 C207.04 808.62 207.04 808.62 209 809 C209.34 808.43 209.68 807.86 210.03 807.28 C217.12 795.98 226.37 790.83 238 785 C235.72 789.17 232.87 792.51 229.62 795.94 C222.06 803.03 222.06 803.03 218 812 C230.48 812.74 242.49 811.49 254.81 809.69 C255.94 809.53 255.94 809.53 257.1 809.36 C259.28 809.05 261.46 808.72 263.64 808.39 C265.55 808.1 265.55 808.1 267.5 807.8 C272.4 806.68 276 805.54 278.79 801.25 C281.16 794.88 283.44 786.5 281 779.88 C276.85 773.91 271.33 772.23 264.56 770.81 C263.84 770.65 263.11 770.48 262.37 770.31 C254.71 768.62 247.27 767.8 239.44 767.75 C238.61 767.73 237.79 767.71 236.94 767.69 C230.89 767.65 226.27 768.29 222.16 773.2 Z " fill="#000000" transform="translate(281,133)"/>
<path d="M0 0 C5.2 4.18 8.16 9.24 9.75 15.71 C10.38 24.02 6.87 30.78 1.63 36.98 C-2.41 41.24 -6.14 43.54 -12.11 43.98 C-17.86 43.74 -21.94 41.43 -26.06 37.52 C-30.18 33.03 -31.69 29.35 -31.5 23.13 C-30.34 14.83 -25.82 7.11 -19.67 1.51 C-14.17 -2.31 -5.99 -3.03 0 0 Z M-15.75 8.27 C-17.83 10.62 -18.18 11.7 -18.38 14.89 C-18.51 18.01 -18.51 18.01 -16.19 19.89 C-13.44 19.68 -11.64 19.18 -9.31 17.71 C-7.91 15.82 -7.91 15.82 -8.31 12.89 C-9.18 9.91 -9.7 8.68 -12.19 6.89 C-14.28 6.67 -14.28 6.67 -15.75 8.27 Z " fill="#000000" transform="translate(286.1875,317.10546875)"/>
<path d="M0 0 C2.24 1.46 3.72 2.77 4.92 5.17 C6.19 16.96 2.27 27.04 -5.08 36.17 C-9.08 39.98 -11.73 41.16 -17.21 41.19 C-18.34 41.12 -19.47 41.05 -20.64 40.98 C-21.78 40.93 -22.91 40.87 -24.08 40.82 C-27.08 40.17 -27.08 40.17 -28.92 38.37 C-32.54 31.5 -32.23 21.03 -30.46 13.59 C-27.8 7.63 -22.5 2.85 -16.7 0 C-11.52 -1.64 -5.11 -2.04 0 0 Z M-22.52 12.11 C-25.43 17.82 -25.81 23.83 -25.08 30.17 C-23.85 32.99 -23.85 32.99 -21.08 34.17 C-17.94 34.76 -15.21 34.82 -12.08 34.17 C-9.61 32.34 -9.61 32.34 -8.08 29.17 C-7.66 28.46 -7.24 27.74 -6.8 27 C-3.44 20.89 -1.96 15.06 -1.08 8.17 C-3.72 6.01 -4.85 5.2 -8.33 4.73 C-14.43 5.45 -18.57 7.35 -22.52 12.11 Z " fill="#000000" transform="translate(175.078125,464.828125)"/>
<path d="M0 0 C-1.17 3.52 -2.1 4.02 -5.06 6.12 C-16.4 14.75 -25.89 27.88 -29 42 C-29.16 42.73 -29.33 43.46 -29.5 44.21 C-30.5 50.45 -29.34 56.06 -28.06 62.16 C-26.8 68.42 -26.2 73.8 -29.44 79.56 C-31 81 -31 81 -33 81 C-33.04 80.2 -33.07 79.4 -33.11 78.58 C-33.46 72.85 -34 67.53 -35.56 62 C-39.09 48.82 -36.86 37.72 -30.38 26 C-24.95 16.63 -18.04 9.01 -9 3 C-8.09 2.38 -7.19 1.76 -6.25 1.12 C-4 0 -4 0 0 0 Z " fill="#000000" transform="translate(376,173)"/>
</svg>
