<?xml version="1.0" encoding="iso-8859-1"?>
<!-- Generator: Adobe Illustrator 26.0.3, SVG Export Plug-In . SVG Version: 6.00 Build 0)  -->
<svg version="1.1" id="Layer_1" xmlns="http://www.w3.org/2000/svg" xmlns:xlink="http://www.w3.org/1999/xlink" x="0px" y="0px"
	 width="557.523px" height="484.167px" viewBox="0 0 557.523 484.167" enable-background="new 0 0 557.523 484.167"
	 xml:space="preserve">
<path d="M556.884,246.355c-2.3-27.613-9.245-54.232-17.91-80.433c-4.305-13.018-10.918-24.937-18.165-36.537
	c-7.01-11.22-13.82-22.565-20.669-33.885c-2.36-3.901-2.516-3.432,1.321-5.715c4.649-2.767,8.995-5.97,13.334-9.191
	c13.658-10.138,23.723-32.854,11.567-55.314c-7.045-13.016-25.357-25.719-45.915-19.174c-15.325,4.879-27.691,13.829-36.613,27.277
	c-1.307,1.97-2.305,2.422-4.52,1.521c-15.82-6.433-32.297-10.497-49.055-13.648c-18.589-3.495-37.227-6.544-56.124-7.711
	c-15.648-0.966-31.307-0.986-46.968-0.155c-19.691,1.045-39.331,2.508-58.795,5.868c-29.848,5.152-58.05,14.639-83.598,31.267
	c-2.881,1.875-2.964,1.849-4.524-1.494c-2.913-6.244-5.928-12.43-9.68-18.226c-7.595-11.731-17.532-20.857-30.288-26.67
	C91.43,0.102,82.034-1.193,72.589,1.197c-14.3,3.619-24.207,12.749-29.887,26.252c-4.63,11.005-4.94,22.586-3.422,34.263
	c2.885,22.193,17.841,37.201,39.544,39.658c0.157,0.965-0.316,1.285-0.721,1.612c-13.517,10.92-23.853,24.503-33.135,39.049
	c-24.347,38.155-40.694,79.131-44.23,124.631c-1.438,18.509-0.845,36.977,2.408,55.3c3.714,20.918,10.94,40.667,20.83,59.372
	c13.341,25.233,31.869,45.776,56.653,60.36c15.349,9.032,31.783,15.439,48.917,20.099c47.244,12.848,95.466,19.426,144.277,21.66
	c35.926,1.645,71.802,0.459,107.576-3.676c26.756-3.093,52.394-10.018,77.249-20.335c28.974-12.027,50.854-31.609,65.603-59.315
	c7.836-14.719,14.042-30.076,18.966-45.963c6.535-21.085,10.671-42.682,12.837-64.626
	C557.471,275.185,558.084,260.758,556.884,246.355z M530.065,166.156c4.536,13.283,8.345,26.774,11.794,40.374
	c0.445,1.753-0.108,2.347-1.686,2.836c-10.641,3.3-21.516,5.072-32.655,5.234c-5.981,0.112-11.857-0.653-17.582-2.365
	c-13.79-4.125-18.57-15.517-11.889-28.216c1.392-2.645,3.025-5.169,5.297-7.109c12.402-10.589,26.62-15.495,43.009-13.68
	C528.417,163.459,529.421,164.27,530.065,166.156z M350.63,29.519c0.045-1.074,0.292-2.138,0.376-3.213
	c0.144-1.852,1.026-2.613,2.926-2.326c2.799,0.423,5.624,0.675,8.426,1.08c12.417,1.793,24.719,4.224,37.019,6.669
	c0.528,0.105,1.04,0.326,1.571,0.38c1.803,0.185,2.157,1.103,1.76,2.787c-1.053,4.46-1.913,8.966-2.945,13.432
	c-3.006,13.013-6.228,25.966-11.442,38.321c-1.735,4.111-3.748,8.073-6.375,11.699c-1.512,2.087-3.221,3.984-5.326,5.501
	c-5.885,4.242-12.14,3.544-16.955-1.929c-2.086-2.371-3.371-5.193-4.375-8.148c-2.226-6.553-3.171-13.365-4.047-20.192
	c-1.084-8.453-0.964-16.963-1.298-26.299C350.148,41.921,350.37,35.719,350.63,29.519z M259.982,23.812
	c14.251-1.327,28.522-2.365,42.847-2.35c2.787,0.003,2.938,0.119,2.971,3.02c0.073,6.615,0.023,13.231,0.023,18.89
	c-0.789,12.94-0.557,25.002-3.26,36.806c-1.208,5.276-2.666,10.467-5.467,15.168c-6.106,10.251-14.738,11.345-23.272,2.936
	c-4.025-3.966-6.563-8.87-8.667-14.025c-4.017-9.845-5.82-20.214-6.911-30.703c-0.893-8.587-1.883-17.181-1.736-25.844
	C256.57,24.26,256.551,24.132,259.982,23.812z M178.535,42.207c11.175-4.874,22.763-8.382,34.607-11.136
	c0.512-0.119,1.023-0.32,1.794,0.118c1.151,3.279,1.124,6.966,1.479,10.54c1.71,17.221,2.089,34.468,0.272,51.715
	c-0.439,4.162-1.107,8.295-2.381,12.292c-0.612,1.919-1.31,3.839-2.227,5.627c-3.683,7.182-11.284,9.135-18.116,4.732
	c-3.284-2.117-5.454-5.197-7.169-8.607c-3.598-7.158-5.938-14.751-7.486-22.586c-2.464-12.473-3.603-25.081-3.793-37.79
	C175.479,44.684,176.081,43.278,178.535,42.207z M32.048,182.699c4.409-9.573,9.437-18.813,14.894-27.829
	c0.98-1.62,2.051-2.511,4.053-2.759c11.731-1.456,23.416-1.72,35.031,0.857c6.725,1.492,12.682,4.518,17.72,9.269
	c1.38,1.302,2.666,2.687,3.637,4.326c2.429,4.1,1.975,8.842-1.25,12.356c-2.802,3.054-6.379,4.93-10.175,6.444
	c-8.629,3.441-17.69,4.8-26.875,5.426c-13.108,0.894-26.147-0.129-39.784-1.71C30.357,186.618,31.156,184.637,32.048,182.699z
	 M9.458,263.238c0.956-9.123,2.43-18.162,4.24-27.158c0.5-2.485,1.727-3.371,3.98-3.703c10.885-1.604,21.795-1.244,32.694-0.353
	c6.592,0.539,13.11,1.666,19.404,3.8c3.985,1.351,7.781,3.07,10.857,6.063c4.099,3.988,4.335,8.476,0.72,12.965
	c-2.182,2.71-5.025,4.436-8.192,5.732c-7.287,2.983-14.847,4.923-22.677,5.669c-6.578,0.626-13.176,1.088-19.799,0.186
	c-6.066,0-12.132,0.051-18.197-0.021C9.315,266.381,9.149,266.182,9.458,263.238z M21.747,355.954
	c-4.131-10.568-7.554-21.35-9.725-32.506c-0.154-0.794-0.298-1.591-0.411-2.392c-0.424-3.003-0.422-3.011,2.34-4.117
	c8.294-3.321,16.9-5.525,25.658-7.21c7.839-1.508,15.707-2.555,23.719-2.059c2.58,0.16,5.094,0.581,7.456,1.663
	c3.71,1.7,5.081,3.917,4.907,7.976c-0.192,4.504-2.178,8.312-4.834,11.794c-4.792,6.28-10.611,11.502-17.114,15.928
	c-9.258,6.302-18.901,11.992-29.143,17.923C23.56,360.408,22.622,358.193,21.747,355.954z M542.775,321.25
	c-1.509,7.124-3.198,14.2-4.995,21.256c-0.507,1.991-1.313,2.591-3.368,2.289c-9.695-1.424-18.48-4.86-26-11.265
	c-3.217-2.74-6.022-5.834-7.803-9.701c-2.766-6.003-0.398-11.41,5.816-13.583c2.722-0.952,5.538-1.105,8.376-1.116
	c3.959-0.002,7.794,0.748,11.495,2.081c5.081,1.83,9.887,4.299,14.779,6.57C542.671,318.524,543.165,319.406,542.775,321.25z
	 M546.916,294.932c-0.695,4.906-1.137,9.853-2.241,14.804c-2.312-0.37-4.003-1.546-5.813-2.391c-6.38-2.98-12.833-5.69-19.923-6.507
	c-5.874-0.677-11.61-0.247-17.08,2.116c-9.025,3.898-13.017,13.206-9.721,22.481c1.714,4.822,4.727,8.775,8.338,12.298
	c8.644,8.433,19.197,12.82,31.008,14.507c0.794,0.114,1.581,0.281,2.367,0.441c0.122,0.025,0.225,0.14,0.337,0.214
	c0.363,0.817,0.071,1.581-0.184,2.351c-5.838,17.607-12.944,34.616-22.854,50.398c-12.855,20.47-30.686,34.929-52.658,44.595
	c-25.655,11.286-52.395,18.295-80.269,21.397c-32.423,3.608-64.942,4.851-97.484,3.623c-51.274-1.934-101.945-8.552-151.496-22.376
	c-18.043-5.034-35.219-12.146-50.86-22.605c-22.127-14.796-38.209-34.768-49.789-58.549c-0.173-0.356-0.257-0.755-0.411-1.22
	c9.721-5.289,19.107-11.122,28.374-17.146c7.297-4.743,13.809-10.399,19.407-17.06c4.233-5.037,7.401-10.599,8.099-17.342
	c0.872-8.422-2.892-14.753-10.862-17.808c-6.336-2.429-12.959-2.535-19.584-1.957c-14.077,1.226-27.704,4.404-40.767,9.867
	c-0.737,0.308-1.51,0.531-2.409,0.844c-0.844-1.412-0.858-2.912-0.978-4.322c-0.779-9.156-1.195-18.328-0.892-27.52
	c0.108-3.274,0.136-3.317,3.561-3.169c9.178,0.398,18.36,0.659,27.545,0.523c12.241-0.18,24.193-1.973,35.64-6.564
	c4.974-1.995,9.438-4.624,12.819-8.892c6.171-7.79,5.592-17.153-1.525-24.078c-3.551-3.455-7.764-5.838-12.4-7.46
	c-13.325-4.663-27.111-5.884-41.115-5.335c-5.243,0.205-10.477,0.567-15.887,1.4c-0.373-1.499,0.123-2.618,0.442-3.711
	c2.005-6.872,4.46-13.591,7.002-20.277c1.142-3.004,1.186-3.067,4.337-2.802c8.072,0.679,16.128,1.656,24.233,1.788
	c13.671,0.223,27.286-0.267,40.499-4.36c4.788-1.484,9.424-3.321,13.599-6.161c12.253-8.333,13.549-21.564,3.114-32.03
	c-7.11-7.131-15.812-11.105-25.629-12.916c-9.134-1.685-18.295-1.126-27.465-0.549c-0.795,0.05-1.592,0.382-2.415-0.024
	c-0.419-1.249,0.603-1.965,1.146-2.815C66.47,124.369,79.78,110.92,95.573,99.884c3.102-2.168,6.426-3.91,9.83-5.593
	c8.245-4.077,16.115-8.852,22.94-15.084c6.858-6.262,7.074-9.01,1.988-16.658c-0.448-0.674-0.871-1.399-1.455-1.941
	c-9.653-8.965-20.65-13.746-33.999-10.283c-9.11,2.363-15.201,9.823-15.971,19.259c-0.665,8.162,0.454,15.922,5.989,22.307
	c-0.473,1.459-1.589,1.12-2.435,1.186c-8.581,0.666-15.94-2.26-22.244-7.911c-5.031-4.511-8.606-10.093-10.564-16.539
	c-3.669-12.078-3.909-24.32,0.282-36.247c4.265-12.139,12.8-20.308,25.54-23.125c8.305-1.836,16.408-0.158,23.928,3.819
	c8.237,4.356,15.187,10.288,20.818,17.718c6.663,8.792,11.131,18.79,15.476,28.82c1.765,4.075,3.716,4.718,7.211,1.897
	c7.299-5.89,15.713-9.86,24.096-14.076c1.301,1.491,0.793,3.031,0.789,4.407c-0.037,13.417,1.063,26.707,4.317,39.763
	c1.34,5.377,3.079,10.629,5.225,15.741c1.574,3.751,3.5,7.308,6.087,10.47c3.72,4.548,8.361,7.571,14.223,8.629
	c8.918,1.61,16.324-1.671,21.041-9.457c3.574-5.9,5.089-12.492,5.987-19.201c2.36-17.619,2.135-35.286,0.553-52.955
	c-0.41-4.571-0.875-9.14-1.457-13.692c-0.218-1.705,0.286-2.533,1.965-2.792c6.802-1.052,13.593-2.184,20.403-3.183
	c2.392-0.351,2.642-0.092,2.56,2.264c-0.323,9.336,0.255,18.633,1.236,27.902c1.226,11.586,3.431,22.958,8.046,33.747
	c1.707,3.99,3.794,7.76,6.396,11.237c2.534,3.387,5.562,6.253,9.156,8.495c9.705,6.055,20.187,4.363,27.556-4.439
	c4.434-5.295,6.89-11.544,8.723-18.098c2.712-9.697,3.59-19.66,3.908-29.647c0.344-10.793,1.053-21.587,0.565-32.4
	c-0.118-2.621-0.014-2.733,2.695-2.734c7.971-0.004,15.928,0.335,23.875,1.009c2.103,0.178,2.706,0.784,2.459,2.98
	c-1.145,10.202-1.918,20.441-1.685,30.719c0.263,11.63,1.279,23.186,3.956,34.543c1.089,4.618,2.634,9.072,5.09,13.167
	c2.202,3.671,5.125,6.602,8.924,8.613c6.757,3.577,13.441,3.542,20.018-0.477c4.844-2.96,8.412-7.139,11.328-11.931
	c5.17-8.496,8.402-17.805,11.252-27.25c3.317-10.99,5.832-22.186,8.187-33.417c0.166-0.792,0.405-1.574,0.513-2.374
	c0.243-1.801,0.874-2.597,2.935-1.929c8.583,2.783,17.393,4.93,25.346,9.422c1.041,0.588,2.227,1.029,3.4,1.253
	c2.91,0.554,5.413-1.004,6.181-3.882c0.453-1.696,0.746-3.382,1.849-4.855c8.647-11.543,19.965-19.366,33.761-23.225
	c12.96-3.626,27.118,2.736,33.962,14.547c8.977,15.492,5.577,33.917-8.383,45.176c-2.098,1.692-4.345,3.201-6.542,4.768
	c-0.163,0.116-0.482,0.015-1.019,0.015c0.782-2.508,1.544-4.909,2.28-7.318c3.315-10.857,0.59-20.156-7.949-27.38
	c-8.784-7.431-18.947-8.976-29.595-4.553c-8.957,3.721-12.638,13.017-9.434,22.211c2.457,7.05,7.256,12.262,13.007,16.693
	c4.92,3.79,9.945,7.424,14.458,11.735c2.776,2.652,4.971,5.724,6.933,8.907c9.49,15.403,18.816,30.907,28.171,46.392
	c1.867,3.091,3.709,6.211,4.831,9.573c-0.762,0.701-1.442,0.552-2.099,0.504c-15.177-1.105-28.872,3.053-41.101,11.935
	c-8.459,6.144-13.771,14.418-15.081,24.916c-0.996,7.981,1.344,14.96,7.171,20.624c4.473,4.348,9.885,6.952,15.898,8.459
	c9.851,2.469,19.794,2.266,29.79,1.269c8.094-0.808,15.939-2.749,24.164-5.247c2.173,8.716,3.274,17.423,4.239,26.564
	c-4.313-0.965-8.194-1.89-12.1-2.696c-9.334-1.927-18.69-2.755-28.11-0.49c-4.496,1.081-8.799,2.635-12.764,5.012
	c-13.148,7.881-14.466,23.742-2.763,33.638c6.507,5.502,14.327,7.934,22.583,9.216c9.106,1.414,18.277,1.64,27.471,1.509
	C547.653,289.758,547.641,289.815,546.916,294.932z M548.327,278.998c-0.062,1.516-0.665,2.142-2.197,2.16
	c-12.135,0.137-24.288,0.553-36.193-2.541c-4.35-1.131-8.416-2.892-11.913-5.778c-7.427-6.13-6.818-15.104,1.438-20.097
	c5.052-3.055,10.652-4.563,16.509-4.941c9.79-0.631,19.369,0.841,28.787,3.39c4.105,1.111,4.091,1.252,4.143,5.574
	c0.039,3.236,0.008,6.473,0.008,9.709c0.032,0.002,0.063,0.005,0.095,0.007C548.771,270.653,548.498,274.823,548.327,278.998z
	 M310.039,189.246c-1.424,3.796-3.879,6.762-7.238,8.988c-3.05,2.022-6.32,3.627-9.768,4.838c-3.624,1.272-3.229,1.184-3.174,4.552
	c0.115,7.016,0.434,14.031,0.413,21.046c-0.024,8.23-0.318,16.459-0.501,24.689c-0.015,0.674-0.029,1.356-0.14,2.017
	c-0.464,2.751-2.243,4.259-4.659,3.993c-2.389-0.263-4.151-2.227-3.881-4.822c0.787-7.539,0.297-15.103,1.068-22.648
	c0-6.88-0.217-13.77,0.09-20.636c0.157-3.497-1.042-5.477-4.11-6.893c-3.803-1.756-7.313-4.042-10.484-6.819
	c-2.677-2.344-4.868-5.042-6.291-8.325c-2.918-6.736-0.92-11.963,5.793-14.851c5.018-2.158,10.381-2.987,15.764-3.363
	c6.207-0.434,12.428-0.124,18.493,1.424C309.663,174.541,313.043,181.237,310.039,189.246z M411.346,188.404
	c-6.476-0.443-11.213-4.217-11.504-11.187c-0.201-4.829,5.606-9.816,11.017-9.781c5.772,0.037,10.18,4.674,10.252,10.783
	C421.175,183.747,416.716,188.771,411.346,188.404z M166.447,177.796c0.29,5.238-3.634,8.665-10.207,8.917
	c-3.904,0.15-7.531-3.729-7.732-8.269c-0.245-5.531,3.753-10.542,8.686-10.886C162.047,167.218,166.111,171.714,166.447,177.796z
	 M153.548,226.25c-0.003,1.431-0.609,2.661-1.554,3.635c-4.126,4.251-8.308,8.446-12.482,12.649
	c-0.279,0.281-0.643,0.495-0.998,0.681c-1.686,0.882-3.464,0.623-4.348-0.712c-0.947-1.431-0.717-2.824,0.435-4.047
	c1.846-1.96,3.738-3.878,5.58-5.842c2.574-2.744,5.459-5.2,7.565-8.382c0.895-1.352,2.256-1.957,3.864-1.242
	C152.981,223.6,153.561,224.773,153.548,226.25z M428.387,246.135c-1.042,1.703-2.998,2.179-4.911,1.102
	c-0.689-0.388-1.329-0.924-1.87-1.505c-3.836-4.119-7.641-8.266-11.455-12.406c-0.897-0.973-1.183-2.091-0.697-3.339
	c0.501-1.288,1.548-1.772,2.604-1.809c1.705-0.019,2.837,0.703,3.784,1.684c1.583,1.639,3.052,3.389,4.644,5.02
	c2.24,2.296,4.259,4.802,6.942,6.671C429.152,242.754,429.37,244.529,428.387,246.135z M140.734,219.878
	c-3.414,3.975-7.731,7.153-10.347,11.843c-0.538,0.965-1.633,1.376-2.788,1.389c-2.153-0.018-3.63-2.019-3.092-4.238
	c0.295-1.214,1.036-2.193,1.851-3.1c3.246-3.616,6.491-7.234,9.785-10.807c0.626-0.679,1.402-1.293,2.226-1.697
	c1.202-0.589,2.39-0.27,3.351,0.654c0.953,0.916,1.278,2.037,0.858,3.325C142.231,218.312,141.437,219.059,140.734,219.878z
	 M130.517,211.263c-3.963,4.041-7.951,8.057-11.977,12.036c-0.672,0.664-1.602,1.004-2.605,0.905c-2.339-0.232-3.656-2.984-2-4.855
	c3.838-4.336,7.92-8.46,11.994-12.579c1.003-1.014,2.409-1.165,3.753-0.392c1.018,0.586,1.487,1.515,1.623,2.601
	C131.322,209.87,131.082,210.687,130.517,211.263z M438.965,233.218c1.153,1.062,1.528,2.51,0.75,4.051
	c-0.611,1.21-1.624,1.73-2.947,1.708c-1.149,0.004-2.075-0.53-2.872-1.282c-3.516-3.318-7.068-6.6-10.496-10.006
	c-1.862-1.85-1.931-3.544-0.544-4.917c1.255-1.243,2.829-1.288,4.674,0.281C431.414,226.356,435.214,229.762,438.965,233.218z
	 M156.618,116.895c-1.196-4.289-1.715-8.681-1.767-13.11c-0.027-2.303,1.164-3.54,3.026-3.624c1.634,0.024,2.703,0.891,2.986,2.573
	c0.311,1.849,0.452,3.727,0.764,5.576c0.445,2.63,0.61,5.324,1.943,7.751c0.88,1.601,0.754,3.199-0.92,4.206
	c-1.553,0.935-3.107,0.561-4.434-0.63C157.398,118.902,156.913,117.952,156.618,116.895z M450.071,227.836
	c-0.121,2.409-2.524,3.957-4.937,3.192c-1.197-0.379-2.069-1.223-2.946-2.045c-2.54-2.383-5.045-4.802-7.586-7.184
	c-1.331-1.248-1.928-2.64-0.727-4.24c1.128-1.503,2.67-1.627,4.325-0.917c1.141,0.49,1.912,1.443,2.814,2.239
	c2.287,2.019,4.115,4.582,7.171,5.69C449.554,225.067,450.108,226.359,450.071,227.836z M331.844,100.196
	c-1.91,0.198-3.506-1.104-3.627-3.467c-0.207-4.039-0.155-8.094-0.145-12.141c0.002-0.644,0.263-1.333,0.562-1.921
	c0.674-1.323,1.787-2.031,3.303-1.796c1.549,0.24,2.375,1.273,2.424,2.789c0.073,2.291,0.019,4.586,0.019,6.295
	c0.211,2.473,0.426,4.351,0.518,6.236C335.01,98.468,333.799,99.993,331.844,100.196z M432.455,143.548
	c0.728-3.26,1.482-6.514,2.259-9.763c0.538-2.248,1.78-3.396,3.406-3.242c3.104,0.296,2.946,4.278,2.5,6.49
	c-0.558,2.768-1.098,5.543-1.848,8.267c-0.576,2.092-2.672,3.037-4.39,2.476C432.659,147.214,431.964,145.747,432.455,143.548z
	 M231.568,144.056c0.312,1.937,1.357,3.735,1.242,5.733c-0.223,3.9-5.379,5.003-6.504,1.001c-1.015-3.611-1.513-7.336-1.644-11.089
	c-0.064-1.84,0.849-3.155,2.734-3.366c1.683-0.188,2.77,0.774,3.225,2.397C231.109,140.476,231.281,142.274,231.568,144.056z
	 M191.023,136.23c0.194,3.638,0.431,7.277,0.503,10.918c0.045,2.275-1.084,3.6-2.844,3.765c-1.147,0.108-2.378-0.409-2.955-1.435
	c-0.367-0.654-0.501-1.411-0.598-2.155c-0.374-2.853-2.175-14.441,2.969-14.325C190.026,133.043,190.925,134.379,191.023,136.23z
	 M244.445,96.108c0.179,2.54,0.619,8.077-3.052,8.401c-1.793,0.158-3.275-0.967-3.497-3.112c-0.374-3.603-0.405-7.245,0.074-10.838
	c0.281-2.109,1.855-3.327,3.513-3.192c2.713,0.22,2.94,3.472,2.942,6.189C244.426,94.53,244.398,95.435,244.445,96.108z
	 M416.08,115.672c0.701-3.293,1.575-6.552,2.488-9.794c0.495-1.759,1.728-2.763,3.652-2.376c1.971,0.397,2.388,1.94,2.464,4.027
	c-0.75,3.078-1.445,6.522-2.459,9.869c-0.608,2.006-2.413,2.874-4.103,2.475C416.396,119.465,415.574,118.048,416.08,115.672z
	 M399.615,146.142c0.355-2.535,0.658-5.08,1.085-7.603c0.368-2.176,1.778-3.424,3.426-3.219c1.647,0.205,2.917,1.692,2.815,3.875
	c-0.126,2.684-0.454,5.377-0.948,8.019c-0.411,2.197-1.918,3.337-3.572,3.151C400.568,150.156,399.532,148.596,399.615,146.142z
	 M377.073,134.122c0.074,0.937,0.012,1.885,0.014,2.829c-0.101,1.607,0.07,3.242-0.525,4.796c-0.67,1.753-1.924,2.56-3.786,2.243
	c-1.698-0.289-2.858-1.668-2.587-3.51c0.315-2.142,0.393-4.286,0.577-6.43c0.213-2.482,1.565-3.856,3.396-3.7
	C375.845,130.494,376.89,131.809,377.073,134.122z M319.878,139.235c0.316,2.248,0.437,4.524,0.656,6.954
	c-0.016,1.908-1.139,3.251-2.99,3.41c-1.75,0.15-3.428-1.048-3.601-3.007c-0.211-2.387-0.162-4.815-0.004-7.211
	c0.109-1.646,1.186-2.694,2.911-2.752C318.601,136.571,319.646,137.59,319.878,139.235z M286.41,127.237
	c-0.273-2.293,0.537-3.713,2.283-4.062c1.6-0.319,3.52,0.781,3.983,2.656c0.512,2.074,0.658,4.239,0.887,5.829
	c0,3.038-1.043,4.574-2.855,4.749c-1.8,0.174-3.186-1.168-3.576-3.59C286.834,130.969,286.632,129.101,286.41,127.237z
	 M419.665,77.431c0.406-1.861,0.792-4.107,1.407-6.288c0.437-1.552,1.604-2.552,3.305-2.301c1.884,0.278,2.809,1.71,2.666,3.451
	c-0.184,2.249-0.686,4.485-1.202,6.691c-0.409,1.747-1.569,2.803-3.475,2.636C420.632,81.469,419.582,79.926,419.665,77.431z
	 M338.849,120.102c0.723,3.134,1.01,6.361,0.295,9.543c-0.326,1.453-1.526,2.233-3.025,2.128c-1.48-0.103-2.536-0.999-2.778-2.475
	c-0.238-1.446-0.217-2.934-0.317-4.531c0.069-1.349,0.049-2.83,0.248-4.281c0.182-1.327,1.097-2.135,2.434-2.306
	C337.234,117.985,338.525,118.698,338.849,120.102z M252.079,124.431c0.674,2.742,1.18,5.559,0.745,8.391
	c-0.222,1.445-1.239,2.39-2.797,2.479c-1.738,0.1-2.882-0.811-3.241-2.43c-0.318-1.435-0.322-2.94-0.464-4.415
	c0.02-1.213-0.262-2.416,0.084-3.626c0.421-1.473,1.385-2.335,2.9-2.364C250.644,122.44,251.771,123.181,252.079,124.431z
	 M359.192,151.177c0.148,1.734,0.153,3.504-0.009,5.236c-0.213,2.289-1.793,3.75-3.581,3.584c-1.693-0.157-2.743-1.519-2.874-3.772
	c-0.039-0.669-0.006-1.343-0.006-2.015c0.07,0,0.141,0,0.211,0c0-1.074-0.086-2.157,0.019-3.221
	c0.177-1.792,1.072-3.053,3.005-3.194C357.714,147.667,359.001,148.946,359.192,151.177z M269.846,147.824
	c-0.752-2.347-0.619-4.789-0.219-7.173c0.242-1.442,1.274-2.32,2.857-2.44c1.705-0.019,2.845,0.921,3.092,2.536
	c0.283,1.847,0.642,3.668,0.988,5.499c0.362,1.908-1.249,3.849-3.083,4.079C271.578,150.563,270.388,149.513,269.846,147.824z
	 M401.101,98.838c-0.018-1.872,0.218-3.77,0.562-5.616c0.332-1.78,1.471-2.928,3.42-2.703c1.95,0.225,2.66,1.615,2.757,3.415
	c0.022,0.403,0.003,0.808,0.003,1.242c-0.234,1.439-0.349,2.935-0.741,4.356c-0.437,1.587-1.582,2.534-3.311,2.342
	C402.05,101.679,401.117,100.45,401.101,98.838z"/>
<g>
</g>
<g>
</g>
<g>
</g>
<g>
</g>
<g>
</g>
<g>
</g>
</svg>
