<?xml version="1.0" encoding="UTF-8"?>
<!-- Generator: visioncortex VTracer 0.6.3 -->
<svg version="1.1" xmlns="http://www.w3.org/2000/svg" width="1017" height="1280">
<path d="M0 0 C2.56 0.94 2.56 0.94 4.07 3.51 C5.67 7.19 6.84 10.9 7.94 14.75 C10.86 24.45 15.25 32.03 21.56 39.94 C21.98 40.5 22.39 41.06 22.82 41.64 C37.79 60.82 65.49 73.42 89.23 76.4 C92.01 76.64 94.78 76.83 97.56 76.94 C97 76.44 96.43 75.95 95.85 75.44 C95.11 74.8 94.38 74.16 93.62 73.5 C92.89 72.86 92.16 72.22 91.41 71.57 C90.44 70.71 89.48 69.85 88.56 68.94 C88.44 66.44 88.44 66.44 88.56 63.94 C89.56 62.94 89.56 62.94 91.64 62.89 C93 62.93 93 62.93 94.38 62.98 C113.01 63.43 127.08 61.97 142.09 49.91 C144.33 48.12 146.6 46.51 149 44.94 C150.08 44.23 150.08 44.23 151.18 43.5 C152.36 42.73 152.36 42.73 153.56 41.94 C154.51 41.29 155.47 40.63 156.45 39.96 C164.81 34.53 174 30.65 183.28 27.08 C187.7 25.36 191.72 23.33 195.73 20.82 C197.56 19.94 197.56 19.94 201.56 19.94 C201.89 20.6 202.22 21.26 202.56 21.94 C203 20.79 203 20.79 203.44 19.62 C204.56 16.94 204.56 16.94 206.56 13.94 C211.5 14.37 214.04 16.57 217.56 19.94 C220.11 23.42 220.56 24.51 220.56 28.94 C221.31 28.61 222.06 28.29 222.84 27.95 C223.86 27.51 224.88 27.08 225.94 26.62 C226.94 26.2 227.93 25.77 228.96 25.32 C237.38 22.08 244.63 20.45 253.69 20.56 C254.62 20.55 255.56 20.54 256.53 20.53 C266.32 20.57 272.5 23.09 279.64 29.82 C282.38 32.84 283.54 34.98 284.56 38.94 C284.25 42.25 284.25 42.25 283.56 44.94 C283.56 45.6 283.56 46.26 283.56 46.94 C284.4 47.27 284.4 47.27 285.25 47.6 C294.33 51.38 300.66 56.77 307.39 63.89 C311.52 67.78 315.31 69.58 320.89 70.09 C325.35 69.84 329.37 68.34 333.55 66.85 C336.43 65.98 338.57 65.67 341.56 65.94 C342.56 66.94 342.56 66.94 342.65 68.8 C341.96 79.86 336.56 89.39 328.56 96.94 C327.08 97.93 327.08 97.93 325.56 98.94 C331.68 103.77 336.65 106.56 344.56 105.94 C366.48 102.6 386.16 92.46 399.71 74.65 C406.05 65.36 409.92 54.82 413.72 44.31 C415.59 39.2 417.41 34.4 420.56 29.94 C423.06 28.82 423.06 28.82 425.56 28.94 C433.93 33.47 438.31 42.78 440.93 51.53 C443.11 59.86 443.71 67.54 443.31 76.12 C443.25 77.37 443.25 77.37 443.2 78.64 C442.44 91.1 438.18 100.91 432.56 111.94 C433.76 111.61 434.95 111.29 436.18 110.96 C465.84 104.4 499.43 113.68 524.89 129.37 C535.37 135.51 547.29 138.98 558.84 142.54 C577.49 148.33 577.49 148.33 582.56 155.94 C584.41 166.03 579.84 175.96 574.25 184.12 C573.04 185.74 571.81 187.35 570.56 188.94 C569.89 189.82 569.21 190.7 568.51 191.6 C565.09 195.98 561.64 200.15 557.56 203.94 C556.86 204.6 556.15 205.27 555.42 205.95 C544.62 215.94 532.56 223.79 519.96 231.28 C506.92 239.02 494.92 247.92 483.3 257.65 C474.25 265.2 463.94 269.7 452.81 273.25 C452.02 273.5 451.23 273.76 450.41 274.02 C426.34 281.42 402.35 276.18 380.56 264.94 C376.47 262.75 372.5 260.4 368.56 257.94 C366.9 256.94 365.23 255.93 363.56 254.94 C362.91 263.49 362.91 263.49 366.56 270.94 C365.63 271.36 364.7 271.79 363.73 272.22 C360.51 274.38 359.84 276.46 358.95 280.18 C358.55 282.24 358.17 284.31 357.81 286.38 C357.43 288.44 357.03 290.5 356.64 292.56 C356.48 293.47 356.32 294.38 356.15 295.32 C355.55 298.01 354.62 300.39 353.56 302.94 C353.23 304.55 352.94 306.18 352.69 307.81 C351.93 312.24 350.9 316.49 349.69 320.81 C347.96 327.12 346.59 333.45 345.38 339.88 C345.12 341.19 345.12 341.19 344.87 342.53 C343.92 347.65 343.16 352.76 342.56 357.94 C343.57 357.48 344.58 357.03 345.62 356.56 C353.05 353.42 361.64 350.95 369.56 353.94 C369.89 354.93 370.22 355.92 370.56 356.94 C371.36 356.79 372.16 356.65 372.98 356.5 C390.52 353.54 408 354.6 423.56 363.94 C424.19 364.28 424.82 364.62 425.47 364.97 C428.44 366.59 431.22 368.38 433.94 370.38 C445.45 378.77 455.53 380.38 469.58 378.23 C472.15 377.82 474.72 377.39 477.28 376.92 C483.25 375.88 488.58 376.06 494.56 376.94 C495.5 379.95 495.61 380.8 494.56 383.94 C495.25 384.15 495.94 384.35 496.65 384.57 C510.79 389.2 520.13 398.97 527 412.06 C531.14 420.39 531.92 428.69 531.94 437.88 C531.96 438.8 531.99 439.72 532.01 440.68 C532.04 447.47 530.63 452.87 527.56 458.94 C527.23 459.27 526.9 459.6 526.56 459.94 C525.44 467.62 525.32 475.31 525.12 483.06 C524.33 507.83 519.45 531.49 512.59 555.3 C508.66 569.18 508.39 583.14 508.44 597.5 C508.43 598.85 508.43 600.2 508.43 601.56 C508.43 602.84 508.43 604.12 508.43 605.44 C508.43 606.59 508.43 607.75 508.43 608.94 C508.54 611.49 508.88 613.5 509.56 615.94 C509.71 618.29 509.84 620.64 509.94 623 C510.33 629.68 511.4 635.61 513.56 641.94 C513.8 642.65 514.04 643.36 514.29 644.1 C517.53 653.6 520.82 662.61 526.56 670.94 C527.52 672.48 527.52 672.48 528.5 674.06 C532.79 680.04 536.54 685.17 543.56 687.94 C547.22 688.3 547.22 688.3 550.94 688.12 C552.81 688.08 552.81 688.08 554.71 688.04 C555.65 688.01 556.59 687.97 557.56 687.94 C557.56 687.28 557.56 686.62 557.56 685.94 C558.26 685.55 558.97 685.15 559.69 684.75 C564.35 681.81 567.52 677.75 570.25 673 C570.68 672.32 571.12 671.64 571.56 670.94 C572.55 670.94 573.54 670.94 574.56 670.94 C575.1 680.18 573.51 689.59 567.56 696.94 C566.84 697.93 566.12 698.92 565.38 699.94 C559.07 707.33 550.59 710.92 541.06 711.75 C521.33 712.87 508.84 703.02 494.56 690.94 C487.97 708.39 484.97 725.91 484.64 744.5 C484.53 747.92 484.2 751.29 483.88 754.69 C483.18 765.16 484.48 775.38 486.81 785.59 C491.52 806.3 491.96 826.66 489.02 847.7 C486.23 870.37 489.39 894.11 496.82 915.62 C497.98 919.24 498.86 922.91 499.75 926.6 C500.31 928.92 500.91 931.22 501.54 933.52 C511.68 971.57 511.68 971.57 506.56 986.94 C506.19 992.5 507.22 996.75 508.94 1001.94 C512.48 1013.4 513.71 1024.55 513.88 1036.5 C513.89 1037.35 513.91 1038.19 513.93 1039.06 C513.92 1044.09 513.45 1047.64 510.56 1051.94 C508.44 1053.77 508.44 1053.77 506.12 1055.19 C505.36 1055.67 504.6 1056.15 503.82 1056.64 C502.7 1057.28 502.7 1057.28 501.56 1057.94 C500.96 1058.31 500.35 1058.67 499.73 1059.05 C496.64 1060.31 493.63 1060.48 490.31 1060.81 C485.17 1061.39 480.86 1062.18 476.47 1065.04 C468.11 1068.99 453.3 1067.96 444.49 1065.64 C442.43 1064.89 440.61 1063.94 438.69 1062.88 C435.42 1061.1 432.83 1060.65 429.12 1060.44 C422.16 1060.01 417.19 1057.76 411.5 1053.81 C408.57 1049.46 408.84 1046.04 409.56 1040.94 C411.94 1029.77 415.69 1018.85 419.58 1008.12 C420.96 1004.09 421.75 1000.91 421.14 996.66 C420.38 990.08 420.41 983.51 420.43 976.9 C420.44 974.74 420.43 972.59 420.43 970.44 C420.43 969.05 420.43 967.66 420.43 966.27 C420.43 964.41 420.43 964.41 420.43 962.51 C420.79 952.71 420.79 952.71 422.56 950.94 C422.89 949.41 423.17 947.88 423.43 946.34 C423.59 945.38 423.75 944.42 423.92 943.43 C424.09 942.4 424.26 941.37 424.44 940.31 C425.8 932.27 427.24 924.27 428.95 916.29 C430.52 907.72 430.72 899.31 430.69 890.62 C430.69 888.57 430.69 886.53 430.7 884.48 C431.09 869.51 431.09 869.51 426.69 855.5 C419.44 840.67 418.64 825.65 422.56 809.75 C427.69 788.94 422.43 772.14 412.56 753.94 C411.89 752.61 411.22 751.28 410.56 749.94 C406.56 751.54 403.84 754.35 400.88 757.38 C400.35 757.91 399.82 758.45 399.28 759 C385.69 773 380.17 785.86 377.56 804.94 C377.46 805.68 377.35 806.42 377.25 807.18 C374.95 824 372.95 842.65 378.56 858.94 C379.09 860.78 379.09 860.78 379.63 862.67 C381.66 869.62 384.01 875.09 388.79 880.64 C398.32 892.98 401.28 909.72 399.56 924.94 C398.67 928.84 397.66 932.51 395.56 935.94 C394.57 936.27 393.58 936.6 392.56 936.94 C392.34 937.66 392.11 938.38 391.88 939.12 C389.91 943.34 386.45 945.51 382.56 947.94 C381.57 948.27 380.58 948.6 379.56 948.94 C379.07 949.8 378.57 950.67 378.06 951.56 C373.59 958.71 364.3 962.46 356.56 964.94 C357.1 972.74 358.57 980.15 360.38 987.75 C360.65 988.91 360.92 990.07 361.2 991.26 C362.75 997.81 364.47 1004.21 366.56 1010.61 C368.97 1018.61 370.77 1026.78 372.56 1034.94 C372.94 1036.65 372.94 1036.65 373.32 1038.4 C374.4 1044.2 374.56 1049.69 374.39 1055.56 C374.06 1067.79 376.3 1077.99 379.88 1089.64 C383.06 1100.33 384.8 1114.73 381.56 1125.62 C378.91 1130.02 375.94 1132.34 371.56 1134.94 C370.9 1135.33 370.25 1135.72 369.57 1136.12 C363.64 1139.17 357.65 1139.64 351.1 1140.37 C346.53 1141.1 343.53 1142.62 339.56 1144.94 C335.81 1146.26 331.95 1146.1 328.02 1146.11 C327.29 1146.11 326.56 1146.11 325.8 1146.12 C324.26 1146.12 322.72 1146.12 321.17 1146.12 C318.83 1146.12 316.5 1146.14 314.16 1146.16 C312.65 1146.17 311.15 1146.17 309.64 1146.17 C308.61 1146.18 308.61 1146.18 307.55 1146.19 C301.35 1146.16 295.23 1145.25 289.88 1141.94 C286.33 1140.04 283.17 1139.49 279.19 1139 C270.05 1137.78 261.75 1133.95 255.56 1126.94 C253.91 1123.55 254.65 1121.17 255.69 1117.69 C257.18 1113.57 259.18 1109.9 261.37 1106.12 C262.81 1103.49 263.83 1100.83 264.82 1098 C265.62 1095.78 266.52 1093.62 267.44 1091.44 C268.15 1089.61 268.86 1087.77 269.56 1085.94 C270 1084.87 270.44 1083.8 270.89 1082.69 C275.64 1069.75 275.49 1056.6 275.56 1042.94 C274.7 1043.08 273.84 1043.22 272.95 1043.37 C245.73 1047.72 245.73 1047.72 235.56 1040.94 C233.95 1040.46 232.32 1040.03 230.69 1039.62 C226.13 1038.27 223.2 1037.12 220.56 1032.94 C220.21 1026.25 222.7 1020.54 225.62 1014.69 C226.02 1013.86 226.42 1013.04 226.84 1012.19 C229.8 1006.19 233.1 1000.55 236.84 994.99 C240.7 988.16 241.95 981.42 242.5 973.69 C243.23 965.66 244.72 958.51 247.56 950.94 C247.83 950.23 248.09 949.52 248.37 948.78 C251.51 940.39 254.78 932.06 258.56 923.94 C260.25 920.28 261.92 916.61 263.56 912.94 C263.93 912.14 264.29 911.33 264.66 910.51 C269.43 899.42 272.09 887.01 270.56 874.94 C269.14 871.73 269.14 871.73 267.56 868.94 C267.4 868.17 267.23 867.41 267.06 866.62 C266.9 866.07 266.73 865.51 266.56 864.94 C265.57 864.61 264.58 864.28 263.56 863.94 C257.6 854.14 257.38 845.06 257.56 833.94 C256.7 834.4 255.84 834.86 254.96 835.33 C253.76 835.95 252.57 836.57 251.38 837.19 C250.23 837.79 249.08 838.39 247.89 839.02 C237.7 843.79 228.03 845.62 216.81 845.44 C215.59 845.42 214.36 845.41 213.1 845.4 C196.29 845.01 183.4 840.59 168.56 832.94 C168.56 832.28 168.56 831.62 168.56 830.94 C167.86 830.69 167.16 830.44 166.44 830.19 C160.49 827.6 155.62 823.47 150.61 819.43 C148.54 817.76 148.54 817.76 145.56 816.94 C145.59 818.52 145.59 818.52 145.62 820.12 C145.56 823.94 145.56 823.94 145.07 826.35 C142.15 841.15 144.37 857.12 149.36 871.17 C151.62 877.92 152.03 884.1 151.94 891.19 C151.93 892.29 151.92 893.39 151.91 894.53 C151.77 902.72 150.82 910.04 148.56 917.94 C148.02 920.12 147.47 922.31 146.94 924.5 C146.7 925.43 146.46 926.36 146.21 927.32 C144.31 935.02 144.28 942.55 144.25 950.44 C144.25 951.17 144.24 951.91 144.24 952.67 C144.23 967.77 145.52 981.96 151.56 995.94 C152.07 997.85 152.58 999.77 153.03 1001.7 C153.63 1004.24 154.35 1006.74 155.07 1009.25 C158.56 1022.13 160.14 1034.28 160.06 1047.56 C160.06 1048.27 160.06 1048.98 160.06 1049.71 C159.98 1062.15 159.98 1062.15 158.48 1067.38 C157.37 1071.7 157.76 1074.91 158.44 1079.25 C159.31 1085.89 159.82 1092.43 159.88 1099.12 C159.89 1099.9 159.91 1100.68 159.93 1101.48 C159.92 1106.71 158.91 1110.26 156.56 1114.94 C155.91 1116.24 155.91 1116.24 155.25 1117.56 C149.02 1126.32 139.8 1129.18 129.7 1131.01 C125.59 1131.69 121.54 1132.13 117.38 1132.38 C113.11 1132.64 109.64 1133.51 105.62 1134.95 C98.25 1137.28 91.43 1137.51 83.75 1137.38 C81.78 1137.36 81.78 1137.36 79.77 1137.33 C56.16 1136.9 56.16 1136.9 46.56 1129.94 C43.63 1128.01 40.86 1126.65 37.56 1125.5 C33.94 1124.16 31.22 1122.84 28.56 1119.94 C27.23 1115.86 27.24 1113 28.94 1109.12 C31.44 1104.61 34.94 1101.02 38.45 1097.27 C40.85 1094.62 42.68 1091.97 44.56 1088.94 C45.04 1088.31 45.52 1087.68 46.02 1087.03 C48.05 1084.28 49.63 1081.4 51.23 1078.38 C52.56 1075.94 52.56 1075.94 53.96 1073.9 C58.2 1067.16 58.02 1060.54 58.19 1052.82 C58.57 1038.44 61.1 1024.27 66.56 1010.94 C67.61 1008.05 68.62 1005.15 69.62 1002.25 C71.54 996.79 73.51 991.35 75.56 985.94 C79.57 975.3 83.18 964.68 85.31 953.5 C85.5 952.51 85.5 952.51 85.7 951.49 C87.11 944.18 87.11 944.18 85.17 937.23 C84.56 936.35 83.94 935.47 83.31 934.56 C71.45 916.85 67.11 898 71.14 876.95 C72.7 869.58 75.21 862.34 78.76 855.7 C80.89 851.24 80.66 848.27 79.07 843.57 C77.71 839.96 76.16 836.45 74.56 832.94 C74.19 832.12 73.83 831.3 73.45 830.45 C69.9 822.61 66.4 815.07 61.56 807.94 C60.54 805.95 59.54 803.95 58.56 801.94 C57.87 800.64 57.18 799.35 56.48 798.05 C52.04 789.84 47.89 781.68 44.56 772.94 C44.04 771.62 44.04 771.62 43.52 770.29 C38.67 757.59 36.03 745.28 35 731.75 C34.88 730.36 34.76 728.98 34.64 727.59 C34.4 724.76 34.16 721.93 33.92 719.11 C33.37 712.65 32.73 706.2 32.06 699.75 C31.96 698.65 31.85 697.55 31.74 696.41 C30.94 688.75 29.46 681.4 27.56 673.94 C27.34 673.08 27.13 672.21 26.9 671.32 C26.31 669.04 25.69 666.77 25.06 664.5 C24.86 663.75 24.66 663 24.46 662.23 C23.24 657.82 21.63 654.03 19.56 649.94 C18.47 646.97 17.52 643.95 16.56 640.94 C16.05 639.38 15.54 637.81 15.03 636.25 C9.7 619.76 9.7 619.76 8.56 611.94 C8.39 610.79 8.22 609.65 8.04 608.46 C2.09 566.37 0.81 517.09 16.56 476.94 C17.39 474.67 18.2 472.39 19 470.11 C19.53 468.62 20.06 467.14 20.6 465.66 C22.52 460.4 22.52 460.4 23.56 454.94 C21.83 451.86 19.9 449.32 17.56 446.69 C11.17 437.9 10.37 428.19 10.31 417.69 C10.28 416.19 10.28 416.19 10.25 414.66 C10.22 408.17 11.09 402.94 13.56 396.94 C13.88 396.1 14.19 395.27 14.52 394.41 C17.9 386.64 22.47 380.03 28.05 373.69 C37.13 363.2 38.56 353.82 39.12 340.31 C39.17 339.33 39.21 338.34 39.25 337.33 C39.71 326.01 39.54 314.82 38.99 303.51 C38.66 296.39 38.46 289.26 38.31 282.13 C38.29 281.18 38.27 280.22 38.25 279.23 C38.14 274.38 38.05 269.53 37.96 264.68 C37.92 262.86 37.88 261.04 37.84 259.22 C37.83 258.39 37.82 257.56 37.8 256.7 C37.7 252.03 37.32 247.55 36.56 242.94 C31.86 244.26 27.93 246.31 23.72 248.71 C21.05 250.23 18.32 251.59 15.56 252.94 C14.47 253.56 13.38 254.18 12.25 254.81 C5.46 258.23 -2.13 259.97 -9.44 261.94 C-10.11 262.12 -10.79 262.3 -11.49 262.49 C-15.93 263.65 -20.32 264.46 -24.88 265.06 C-26.09 265.23 -27.31 265.4 -28.56 265.57 C-42.83 266.92 -57.38 264.73 -70.88 260 C-71.57 259.76 -72.26 259.52 -72.97 259.27 C-77.11 257.72 -80.07 255.75 -83.44 252.94 C-84.54 252.33 -85.65 251.73 -86.79 251.11 C-91.03 248.75 -94.33 245.6 -97.81 242.25 C-98.47 241.63 -99.13 241.01 -99.8 240.37 C-103.38 236.97 -106.88 233.49 -110.31 229.94 C-115.06 225.13 -120.39 221.79 -126.13 218.3 C-131.66 214.88 -136.55 211.31 -141.27 206.83 C-143.47 204.82 -143.47 204.82 -146.32 203.05 C-149.74 200.73 -152.54 198.18 -155.44 195.25 C-155.96 194.72 -156.48 194.2 -157.02 193.66 C-160.58 190.01 -163.6 186.25 -166.25 181.88 C-167.41 179.9 -167.41 179.9 -168.88 178.08 C-177.3 166.5 -182.83 151.66 -182.94 137.38 C-182.94 136.63 -182.95 135.88 -182.96 135.1 C-182.81 128.78 -181.21 124.8 -176.77 120.14 C-172.86 117.56 -169.73 117.02 -165.19 116.75 C-164.35 116.68 -163.51 116.61 -162.65 116.54 C-159.58 116.31 -156.51 116.12 -153.44 115.94 C-152.13 115.86 -150.82 115.78 -149.47 115.7 C-143.58 115.35 -137.7 115.02 -131.81 114.68 C-121.64 114.11 -111.53 113.37 -101.44 111.94 C-100.66 111.83 -99.89 111.72 -99.1 111.61 C-91.13 110.45 -83.23 109.17 -75.38 107.38 C-49.02 101.57 -21.81 101.86 4.56 106.94 C4.08 106.4 3.59 105.87 3.09 105.32 C-4.64 96.73 -11.78 88.61 -16.44 77.94 C-16.99 76.7 -16.99 76.7 -17.56 75.44 C-24.93 58.16 -24.93 36.65 -17.96 19.25 C-14.88 12.38 -8.93 -0.23 0 0 Z M-3.44 9.94 C-12.86 26.47 -16.34 44.17 -11.44 62.94 C-11.23 63.76 -11.03 64.58 -10.81 65.43 C-7.93 75.95 -3.03 83.88 4.08 92.05 C6.23 94.55 8.22 97.1 10.19 99.75 C13.53 104.09 17.36 107.46 21.56 110.94 C23.48 112.64 25.4 114.35 27.31 116.07 C31.86 119.85 36.67 123.3 41.46 126.76 C49.91 132.92 57.39 139.32 64.56 146.94 C65.89 148.28 67.22 149.61 68.56 150.94 C70.42 147.23 70.15 142.98 69.56 138.94 C67.47 136.43 67.47 136.43 64.56 134.94 C63.74 134.26 62.91 133.58 62.06 132.88 C59.66 130.93 59.66 130.93 57.25 129.56 C53.49 127.29 50.05 124.61 46.56 121.94 C49.62 123.08 52.53 124.4 55.44 125.88 C63.13 130.26 63.13 130.26 71.56 130.94 C74.68 127.5 76.74 123.88 78.81 119.75 C84.9 108.21 93.05 99.53 103.56 91.94 C100.57 88.94 96.92 89.15 92.88 88.62 C83.96 87.34 76 85.15 67.56 81.94 C66.34 81.5 65.12 81.05 63.86 80.6 C56.95 77.99 50.45 74.97 44 71.38 C43.35 71.01 42.69 70.65 42.02 70.27 C36.74 67.24 32.33 63.74 28.06 59.38 C25.68 56.85 25.68 56.85 22.75 55.31 C17.9 51.7 14.92 46.91 11.56 41.94 C11.07 41.24 10.59 40.55 10.08 39.83 C6.54 34.56 4.55 28.94 2.56 22.94 C2.27 22.09 1.98 21.25 1.68 20.38 C0.51 16.92 -0.59 13.49 -1.44 9.94 C-2.1 9.94 -2.76 9.94 -3.44 9.94 Z M199.56 25.94 C198.78 26.91 198 27.88 197.19 28.88 C195.65 30.78 194.77 31.83 192.56 32.94 C192.56 33.6 192.56 34.26 192.56 34.94 C191.82 35.21 191.08 35.48 190.32 35.76 C187.73 36.87 185.72 38.08 183.44 39.7 C178.36 43.16 173.04 45.92 167.56 48.69 C159.68 52.72 151.95 56.87 144.49 61.64 C134.59 67.75 124.29 69.56 112.81 70.19 C111.63 70.26 110.44 70.34 109.22 70.42 C106.33 70.61 103.45 70.78 100.56 70.94 C108.2 76.85 117.15 77.47 126.56 77.94 C126.56 78.6 126.56 79.26 126.56 79.94 C121.03 82.03 115.37 82.97 109.56 83.94 C112.95 87.72 116.64 88.46 121.56 88.94 C134.45 89.06 146.47 87.72 156.56 78.94 C157.27 76.86 157.27 76.86 157.56 74.94 C158.88 75.27 160.2 75.6 161.56 75.94 C165.35 87.53 164.16 99.45 160.56 110.94 C168.73 109.51 174.71 106.51 181.56 101.94 C181.56 101.28 181.56 100.62 181.56 99.94 C182.24 99.77 182.92 99.61 183.62 99.44 C192.17 95.08 196.67 85.3 200.56 76.94 C200.56 76.28 200.56 75.62 200.56 74.94 C206.11 79.28 207.65 84.04 208.56 90.94 C208.89 98.27 208.75 105.61 208.56 112.94 C216.96 109.07 224.2 104.51 231.56 98.94 C243.67 89.89 256.52 86.05 271.56 86.94 C275.86 87.58 280.08 88.48 284.31 89.44 C297.16 92.3 308.63 93.84 320.38 86.69 C324.57 83.85 327.65 81.06 330.56 76.94 C329.57 76.61 328.58 76.28 327.56 75.94 C327.23 76.27 326.9 76.6 326.56 76.94 C317.75 77.87 310.86 77.08 303.56 71.94 C301.01 69.77 298.57 67.51 296.14 65.22 C286.69 56.85 276.98 52.79 264.56 51.75 C263.69 51.67 262.82 51.59 261.93 51.5 C259.81 51.3 257.68 51.12 255.56 50.94 C255.56 48.94 255.56 48.94 257.14 47.32 C266.81 39 266.81 39 272.56 37.94 C272.56 37.28 272.56 36.62 272.56 35.94 C266.01 32.34 259.86 32.44 252.5 32.5 C250.69 32.51 250.69 32.51 248.84 32.52 C240.06 32.67 232.75 33.66 224.56 36.94 C222.6 37.65 220.65 38.36 218.69 39.06 C217.82 39.39 216.95 39.72 216.05 40.05 C212.6 41.28 209.13 42.13 205.56 42.94 C205.56 42.28 205.56 41.62 205.56 40.94 C206.22 40.94 206.88 40.94 207.56 40.94 C208.26 39.53 208.95 38.11 209.62 36.69 C210.01 35.9 210.39 35.11 210.79 34.3 C211.65 31.68 211.49 30.49 210.56 27.94 C209.96 28.67 209.35 29.41 208.73 30.17 C203.26 36.54 198.57 40.85 190.56 43.94 C191.12 43.19 191.67 42.44 192.24 41.67 C192.97 40.69 193.69 39.7 194.44 38.69 C195.16 37.71 195.88 36.74 196.62 35.73 C198.9 32.49 198.9 32.49 200.56 28.94 C200.07 27.45 200.07 27.45 199.56 25.94 Z M98.56 99.94 C96.35 102.16 96.35 102.16 94.56 104.94 C94.05 105.6 93.54 106.26 93.02 106.95 C81.06 122.95 72.65 145.79 73.56 165.94 C76.53 164.95 76.53 164.95 79.56 163.94 C78.7 164.93 77.83 165.92 76.94 166.94 C74.16 170.17 71.58 173.51 69.05 176.95 C67.95 178.43 66.79 179.88 65.62 181.31 C55.34 194.44 47.15 213.17 48.32 230.09 C48.4 230.7 48.48 231.31 48.56 231.94 C53.33 230.57 57.21 228.48 61.31 225.75 C61.92 225.35 62.53 224.95 63.16 224.54 C66.83 222.13 70.43 219.63 74 217.06 C77.73 214.41 81.27 212.52 85.56 210.94 C83.05 213.52 80.59 215.91 77.75 218.12 C77.03 218.72 76.31 219.32 75.56 219.94 C75.56 220.6 75.56 221.26 75.56 221.94 C74.36 222.37 74.36 222.37 73.12 222.81 C70.43 223.67 70.43 223.67 69.56 225.94 C73.15 224.58 76.46 222.98 79.81 221.12 C80.77 220.6 81.72 220.08 82.7 219.54 C84.54 218.51 86.38 217.46 88.21 216.4 C89.4 215.71 89.4 215.71 90.62 215 C91.34 214.58 92.05 214.16 92.79 213.72 C93.37 213.46 93.96 213.2 94.56 212.94 C95.22 213.27 95.88 213.6 96.56 213.94 C96.56 214.27 96.56 214.6 96.56 214.94 C98.87 215.27 101.18 215.6 103.56 215.94 C101.91 217.26 100.26 218.58 98.56 219.94 C99.57 220.1 100.58 220.27 101.62 220.44 C108.02 222.34 111.17 227.58 114.42 233.09 C122.86 249.11 125.01 263.93 123.56 281.94 C123.23 282.6 122.9 283.26 122.56 283.94 C121.08 274.04 121.08 274.04 119.56 263.94 C118 267.07 116.85 269.9 115.75 273.19 C113.93 278.3 111.6 282.46 108.56 286.94 C111.86 285.95 115.16 284.96 118.56 283.94 C117.61 287.36 116.7 288.82 113.94 291.12 C103.18 296.9 92.31 295.24 80.88 292.56 C79.88 292.34 78.89 292.12 77.87 291.89 C72.71 290.73 67.62 289.45 62.56 287.94 C62.56 286.95 62.56 285.96 62.56 284.94 C64.21 284.61 65.86 284.28 67.56 283.94 C67.3 283.46 67.03 282.99 66.76 282.5 C60.87 270.83 61.2 256.77 60.56 243.94 C56.08 244.38 56.08 244.38 52.56 246.94 C49.63 255.1 50.25 264.36 50.23 272.91 C50.22 275.6 50.2 278.29 50.17 280.97 C50.13 286.69 50.09 292.41 50.06 298.12 C50.03 304.74 49.98 311.36 49.93 317.97 C49.91 320.6 49.9 323.22 49.89 325.84 C49.83 335.7 49.15 345.19 47.56 354.94 C51.34 353.13 51.34 353.13 53.47 349.69 C54.5 342.46 54.9 335.35 54.98 328.05 C55 326.87 55.02 325.68 55.04 324.47 C55.09 320.73 55.14 316.99 55.19 313.25 C55.23 310.7 55.26 308.15 55.3 305.6 C55.4 299.38 55.49 293.16 55.56 286.94 C55.88 288.36 56.2 289.77 56.52 291.19 C56.7 291.98 56.88 292.77 57.06 293.58 C59.14 303.35 59.74 313.29 59.75 323.25 C59.75 324.06 59.75 324.86 59.75 325.69 C59.72 329.28 59.45 332.48 58.56 335.94 C58.5 337.85 58.48 339.77 58.5 341.69 C58.51 342.67 58.52 343.66 58.53 344.67 C58.54 345.42 58.55 346.17 58.56 346.94 C61.59 345.79 64.3 344.59 67 342.81 C70.83 340.36 74.74 338.07 78.69 335.81 C79.57 335.31 79.57 335.31 80.46 334.79 C84.11 332.72 87.8 330.78 91.56 328.94 C91.89 329.27 92.22 329.6 92.56 329.94 C91.53 330.7 90.5 331.46 89.44 332.25 C80.16 339.22 71.06 346.4 62.25 353.95 C58.88 356.85 55.43 359.62 51.94 362.38 C37.21 374.47 25.1 390.54 22.56 409.94 C21.73 425.96 23.39 437.65 34.42 450.02 C41.3 456.77 50.03 460.7 58.56 464.94 C59.25 465.29 59.95 465.64 60.66 466.01 C71.48 471.51 83.04 475.22 94.56 478.94 C95.44 479.23 96.31 479.51 97.21 479.81 C114.44 485.3 132.37 486.73 150.32 487.75 C166.72 488.69 182.29 490.24 198.09 494.95 C229.81 503.96 265.13 499.47 295.26 486.83 C297.59 485.93 299.89 485.29 302.31 484.69 C316.65 480.49 327.91 471.22 335.37 458.39 C338.89 451.14 338.9 444.61 338.88 436.69 C338.9 434.92 338.9 434.92 338.92 433.12 C338.94 409.13 323.74 387.43 307.95 370.43 C306.15 368.49 304.42 366.5 302.69 364.5 C302.16 363.9 301.64 363.3 301.09 362.69 C300.02 361.46 298.96 360.23 297.91 359 C293.94 354.38 289.75 350.07 285.38 345.82 C283.56 343.94 283.56 343.94 282.56 341.94 C293.83 348.73 303.8 357.75 312.79 367.29 C314.57 369.17 314.57 369.17 317.56 369.94 C317.79 368.95 317.79 368.95 318.02 367.94 C326.08 332.9 326.08 332.9 330.56 323.94 C329.6 330.23 328.49 336.43 327 342.62 C325.95 347 325.27 351.21 324.88 355.68 C324.37 359.31 323.27 362.77 322.18 366.26 C321.16 370.66 320.88 373.66 323.06 377.71 C323.7 378.57 324.34 379.43 325 380.31 C325.64 381.19 326.28 382.06 326.93 382.96 C327.47 383.61 328.01 384.27 328.56 384.94 C328.89 384.94 329.22 384.94 329.56 384.94 C329.6 383.71 329.64 382.49 329.68 381.22 C330.43 360.16 332.99 339.51 337.56 318.94 C337.97 317.1 337.97 317.1 338.38 315.22 C339.28 311.08 340.2 306.95 341.12 302.81 C341.35 301.81 341.35 301.81 341.57 300.8 C343.14 293.76 344.78 286.8 346.97 279.93 C347.85 276.97 348.27 274.97 347.56 271.94 C345.42 269.93 343.1 268.4 340.56 266.94 C338.29 270.75 337.6 274.91 336.69 279.19 C335.32 285.34 333.67 290.42 330.56 295.94 C329.48 298.58 328.52 301.25 327.56 303.94 C328.37 304.39 329.17 304.85 330 305.31 C332.56 306.94 332.56 306.94 333.56 308.94 C329.44 309.62 325.31 310.28 321.19 310.94 C320.03 311.13 318.87 311.32 317.68 311.52 C306.62 313.27 294.72 314.82 284.61 308.77 C281.8 306.55 279.81 304.3 278.56 300.94 C281.33 301.46 283.89 302.05 286.56 302.94 C286.29 302.28 286.01 301.63 285.73 300.96 C284.29 297.23 283.11 293.44 281.94 289.62 C281.71 288.88 281.48 288.14 281.24 287.38 C280.68 285.57 280.12 283.75 279.56 281.94 C276.81 286.07 276.32 290.28 275.34 295.1 C275.09 296.04 274.83 296.97 274.56 297.94 C273.9 298.27 273.24 298.6 272.56 298.94 C274.01 279 278.19 263.42 290.11 247.1 C291.72 244.91 291.72 244.91 292.56 241.94 C293.87 241.22 295.21 240.57 296.56 239.94 C299.04 238.09 301.49 236.21 303.93 234.3 C308.24 232.07 311.51 233.6 315.94 235 C316.8 235.31 317.67 235.62 318.56 235.94 C318.23 234.62 317.9 233.3 317.56 231.94 C323.96 235.94 328.07 240.92 332.56 246.94 C332.89 246.28 333.22 245.62 333.56 244.94 C332.99 244.09 332.41 243.25 331.81 242.38 C329.55 238.99 327.55 235.49 325.56 231.94 C332.96 238.26 339.74 244.85 346.08 252.24 C347.19 253.51 348.37 254.74 349.56 255.94 C350.55 255.94 351.54 255.94 352.56 255.94 C353.65 248.17 353.78 240.44 353.8 232.61 C353.81 230.4 353.84 228.2 353.88 225.99 C353.97 213.32 352.39 201.13 348.12 189.12 C347.7 187.91 347.27 186.69 346.83 185.43 C346.41 184.28 345.99 183.13 345.56 181.94 C345.17 180.86 344.79 179.77 344.39 178.66 C343.72 176.81 343.04 174.96 342.36 173.11 C341.73 171.4 341.14 169.67 340.56 167.94 C342.87 169.59 345.18 171.24 347.56 172.94 C348.04 158.99 347.75 146.31 343.56 132.94 C343.11 131.48 343.11 131.48 342.65 129.99 C338.96 119.55 331.04 110.54 321.56 104.94 C316.72 102.83 312.75 102.76 307.56 102.94 C307.91 103.82 308.26 104.7 308.62 105.61 C309.08 106.77 309.53 107.93 310 109.12 C310.45 110.27 310.9 111.42 311.37 112.61 C312.37 115.41 313.08 118.01 313.56 120.94 C312.9 120.94 312.24 120.94 311.56 120.94 C311.22 119.89 311.22 119.89 310.88 118.81 C307.02 110.37 299.19 104.67 290.72 101.18 C278.69 96.92 264.2 95.98 252.42 101.5 C251.48 101.97 250.53 102.45 249.56 102.94 C248.05 103.65 246.53 104.36 245.02 105.06 C238.72 108 232.45 110.97 226.26 114.12 C219.66 117.43 212.71 119.21 205.56 120.94 C204.57 121.27 203.58 121.6 202.56 121.94 C201.57 111.54 201.57 111.54 200.56 100.94 C195.86 104.51 195.86 104.51 193.25 107.38 C182.87 117.28 170.95 119.37 157.07 119.14 C154.9 119.09 152.73 119.01 150.56 118.94 C150.79 118.11 150.79 118.11 151.02 117.27 C151.71 114.77 152.39 112.26 153.06 109.75 C153.3 108.89 153.54 108.02 153.79 107.13 C154.12 105.87 154.12 105.87 154.47 104.58 C154.68 103.81 154.89 103.04 155.1 102.25 C155.6 99.76 155.64 97.47 155.56 94.94 C154.64 95.15 153.72 95.37 152.77 95.59 C139.73 98.46 125.66 100.06 112.94 94.87 C106.98 92.54 103.18 96.42 98.56 99.94 Z M-71.44 118.94 C-87.67 121.79 -104.13 122.26 -120.56 122.56 C-121.51 122.58 -122.47 122.6 -123.45 122.62 C-128.09 122.7 -132.74 122.78 -137.39 122.85 C-144.05 122.96 -150.71 123.1 -157.38 123.31 C-158.85 123.34 -158.85 123.34 -160.35 123.37 C-165.63 123.55 -169.51 124.01 -173.44 127.94 C-175.12 145.51 -167.66 160.49 -156.88 173.81 C-155.4 175.53 -153.93 177.24 -152.44 178.94 C-151.54 180.03 -151.54 180.03 -150.63 181.15 C-147.06 185.45 -143.24 188.88 -138.75 192.2 C-136.97 193.54 -135.25 194.94 -133.55 196.38 C-130.57 198.88 -127.42 201.07 -124.19 203.25 C-112.69 211.12 -102.45 220.24 -92.39 229.84 C-76.2 245.2 -56.99 253.5 -34.56 254.44 C-15.86 253.64 3.86 248.41 20.56 239.94 C21.44 239.5 21.44 239.5 22.33 239.05 C24.38 238.03 26.41 236.99 28.44 235.94 C29.09 235.61 29.75 235.27 30.42 234.93 C34.83 232.6 37.7 230.57 39.28 225.75 C39.44 224.96 39.61 224.18 39.77 223.38 C39.96 222.5 40.15 221.63 40.35 220.73 C40.54 219.81 40.74 218.89 40.94 217.94 C42.57 210.58 44.46 203.87 47.64 197.02 C48.7 195.01 48.7 195.01 48.56 192.94 C49.22 192.94 49.88 192.94 50.56 192.94 C51.82 191.32 51.82 191.32 53 189.25 C53.66 188.15 53.66 188.15 54.34 187.04 C55.28 185.43 56.2 183.81 57.12 182.19 C58.56 179.94 58.56 179.94 60.5 178.06 C66.39 172 67.01 167.29 67 159.02 C66.26 153.78 63.82 150.77 59.69 147.62 C53.91 143.31 47.76 139.62 41.56 135.94 C40.04 135 40.04 135 38.48 134.05 C31.73 129.98 24.93 126.73 17.56 123.94 C16.4 123.49 15.24 123.05 14.05 122.59 C-1.56 116.8 -16.43 115.73 -32.94 115.75 C-33.69 115.75 -34.44 115.75 -35.22 115.75 C-53.57 115.45 -53.57 115.45 -71.44 118.94 Z M424.56 38.94 C424.27 39.83 423.98 40.73 423.68 41.66 C422.33 45.76 420.96 49.85 419.56 53.94 C419.22 54.95 419.22 54.95 418.87 55.99 C412.21 75.41 403.02 90.32 385.56 101.94 C384.51 102.66 384.51 102.66 383.44 103.4 C371.62 111.24 357.24 114.06 343.56 116.94 C343.89 117.58 344.21 118.22 344.55 118.88 C348.94 127.57 352.08 135.28 353.56 144.94 C360.53 143.15 366.43 140.7 372.56 136.94 C373.33 136.46 374.11 135.99 374.9 135.5 C376.8 134.33 378.68 133.14 380.56 131.94 C379.32 135.68 377.99 136.24 374.75 138.38 C371.29 140.66 368.46 142.99 365.56 145.94 C363.53 147.5 361.46 148.99 359.37 150.47 C356.71 152.63 355.64 154.35 355.18 157.75 C355.12 158.8 355.06 159.85 355 160.94 C354.8 164.23 354.61 166.8 353.56 169.94 C352.75 179.19 353.52 185.9 357.19 194.47 C361.91 206.42 363.11 219.15 363.79 231.88 C364.15 238.91 364.15 238.91 367.56 244.94 C379.33 254.95 398.45 260.46 413.56 262.94 C414.17 263.11 414.77 263.29 415.39 263.46 C435.9 267.93 458.68 258.14 475.62 247.33 C478.51 245.26 481.11 242.89 483.74 240.51 C485.86 238.68 488.13 237.33 490.56 235.94 C491.04 235.46 491.51 234.99 492 234.5 C496.26 230.24 502.05 227.43 507.19 224.38 C509.01 223.27 510.79 222.12 512.56 220.94 C515.07 219.27 517.59 217.76 520.19 216.25 C539.05 204.97 565.51 185.7 572.56 163.94 C573.08 159.83 573.08 159.83 571.27 156.33 C568.38 153.98 564.75 153.52 561.19 152.69 C542.16 147.93 524.44 140.95 506.56 132.94 C478.38 120.43 445.55 117.46 416.04 127.94 C410.37 130.23 404.87 132.89 399.38 135.56 C398.73 135.87 398.08 136.19 397.42 136.51 C384.44 142.81 372.8 149.71 361.77 159.09 C359.56 160.94 359.56 160.94 356.56 162.94 C360.28 157.52 364.45 152.84 369.06 148.19 C369.61 147.63 370.15 147.08 370.72 146.51 C374.09 143.15 377.52 140.49 381.56 137.94 C383.36 136.63 385.15 135.32 386.94 134 C392.33 130.07 397.66 126.4 403.63 123.39 C417.81 116.22 424.6 107.75 429.56 92.94 C433.91 78.57 435.79 58.05 429.56 43.94 C427.06 41.13 427.06 41.13 424.56 38.94 Z M91.56 227.94 C93.87 227.94 96.18 227.94 98.56 227.94 C98.89 227.28 99.22 226.62 99.56 225.94 C95.8 225.94 94.65 226.17 91.56 227.94 Z M64.56 227.94 C64.23 228.6 63.9 229.26 63.56 229.94 C64.55 229.61 65.54 229.28 66.56 228.94 C65.9 228.61 65.24 228.28 64.56 227.94 Z M83.56 229.94 C81.05 231.25 81.05 231.25 78.31 233.12 C77.33 233.77 76.35 234.42 75.34 235.08 C74.42 235.69 73.51 236.31 72.56 236.94 C71.56 237.59 71.56 237.59 70.54 238.26 C67.92 239.93 67.92 239.93 65.56 241.94 C64.92 255.6 64.2 271.33 72.56 282.94 C73.55 283.27 74.54 283.6 75.56 283.94 C75.37 283.4 75.18 282.87 74.98 282.32 C69.96 267.96 69.07 255.87 75.25 241.69 C77.67 237.1 81.52 234.08 85.56 230.94 C84.9 230.61 84.24 230.28 83.56 229.94 Z M80.18 242.74 C75.61 248.96 75.09 253.88 75.19 261.38 C75.18 262.29 75.16 263.21 75.15 264.15 C75.19 272.54 77.48 278.16 82.56 284.94 C85.81 287.79 88.41 288.82 92.75 289.25 C98.53 288.78 102.63 286.53 107.06 282.88 C108.87 280.95 108.87 280.95 108.56 277.94 C109.22 277.94 109.88 277.94 110.56 277.94 C114.88 268.83 115.01 260.77 114.56 250.94 C114.23 250.94 113.9 250.94 113.56 250.94 C113.49 251.51 113.42 252.09 113.35 252.68 C113.02 255.31 112.67 257.94 112.31 260.56 C112.2 261.47 112.09 262.37 111.98 263.3 C111.2 268.93 110.11 272.48 106.56 276.94 C105.96 277.82 105.37 278.71 104.75 279.62 C101.92 282.61 99.48 283.72 95.56 284.94 C90.58 285.04 87.63 283.02 84.11 279.71 C78.96 273.8 79.09 266.83 79.28 259.27 C79.93 251.59 83.22 245.51 88.56 239.94 C92.01 237.85 94.54 237.68 98.56 237.94 C99.55 238.27 100.54 238.6 101.56 238.94 C101.18 235.65 101.18 235.65 99.56 232.94 C90.29 232.15 86.12 235.99 80.18 242.74 Z M91.94 242.25 C88.98 245.59 88.43 247.81 88.5 252.12 C88.52 253.38 88.54 254.64 88.56 255.94 C92.96 254.76 95.24 253.91 97.56 249.94 C97.92 247.35 97.92 247.35 97.75 244.69 C97.72 243.8 97.7 242.9 97.67 241.98 C97.63 241.31 97.6 240.63 97.56 239.94 C94.35 239.61 94.35 239.61 91.94 242.25 Z M307.56 239.94 C306.9 240.6 306.24 241.26 305.56 241.94 C307.3 242.71 307.3 242.71 309.06 243.5 C315.87 246.92 321.96 251.57 324.56 258.94 C328.61 273.54 327.03 287.32 319.71 300.5 C319.33 301.31 318.95 302.11 318.56 302.94 C318.89 303.6 319.22 304.26 319.56 304.94 C329.86 295.62 333.67 277.29 334.56 263.94 C331.57 255.41 321.26 245.86 313.56 241.25 C310.65 239.74 310.65 239.74 307.56 239.94 Z M333.56 246.94 C334.22 247.6 334.88 248.26 335.56 248.94 C335.56 248.28 335.56 247.62 335.56 246.94 C334.9 246.94 334.24 246.94 333.56 246.94 Z M301.56 248.94 C300.9 249.6 300.24 250.26 299.56 250.94 C300.78 251.16 302 251.39 303.25 251.62 C308.35 252.94 310.9 255.3 313.72 259.77 C318.25 268.47 318.64 279.24 316.37 288.68 C314.69 293.39 312.09 297.41 308.56 300.94 C304.09 302.13 300.52 302.31 296.19 300.62 C294.3 299.41 292.43 298.18 290.56 296.94 C292.09 301.2 294.63 302.86 298.56 304.94 C303.22 306.24 306.4 306.49 310.81 304.38 C311.72 303.57 312.63 302.77 313.56 301.94 C314.45 301.15 315.34 300.37 316.25 299.56 C321.97 292.27 322.53 279.85 321.56 270.94 C320.13 263.2 317.87 257.34 312.31 251.62 C308.57 249.33 305.95 249.08 301.56 248.94 Z M298.56 255.94 C297.94 261.59 298.3 266.11 301.56 270.94 C302.55 271.27 303.54 271.6 304.56 271.94 C306.73 270.44 306.73 270.44 308.56 267.94 C309.16 263.21 309.21 261.08 306.88 256.94 C304.73 254.71 304.73 254.71 301.88 254.56 C299.61 254.7 299.61 254.7 298.56 255.94 Z M287.56 291.94 C288.56 293.94 288.56 293.94 288.56 293.94 Z M288.56 293.94 C288.89 294.93 289.22 295.92 289.56 296.94 C289.56 295.95 289.56 294.96 289.56 293.94 C289.23 293.94 288.9 293.94 288.56 293.94 Z M343.06 365.94 C338.12 375.82 336.25 389.14 339.1 399.98 C340.2 403.26 341.55 406.38 342.99 409.52 C344.37 412.51 345.43 415.43 346.44 418.56 C347.94 422.79 349.94 426.29 352.38 430.06 C357.2 437.59 360.4 445.6 363.56 453.94 C363.82 454.6 364.07 455.26 364.34 455.94 C366.11 460.58 367.67 465.26 369.12 470 C369.44 471 369.44 471 369.76 472.03 C371.09 476.31 372.34 480.62 373.56 484.94 C370.91 483.61 370.8 482.5 369.75 479.75 C369.41 478.86 369.06 477.97 368.71 477.05 C366.97 472.34 365.33 467.6 363.71 462.84 C362.76 459.87 362.76 459.87 360.56 457.94 C359.93 456.5 359.36 455.04 358.81 453.56 C355.35 442.87 355.35 442.87 348.56 434.94 C348.46 435.96 348.37 436.99 348.27 438.05 C346.48 455.28 341 469.3 327.39 480.85 C320.22 486.15 312.31 490.11 304.31 494 C300.54 495.84 297.19 497.82 293.81 500.31 C282.95 508.16 270.11 513.14 257.81 518.26 C249.75 521.67 242.43 525.85 235.31 530.94 C215.66 544.04 190.03 547.17 167.14 542.75 C154.93 540.04 143.77 535.3 132.77 529.44 C131.06 528.55 129.31 527.74 127.56 526.94 C126.9 527.27 126.24 527.6 125.56 527.94 C121.51 551.06 127.44 574.04 135.39 595.64 C137.21 600.7 138.65 605.77 139.88 611 C140.03 611.68 140.19 612.36 140.36 613.06 C142.18 621.19 142.74 629.01 142.75 637.31 C142.76 638.19 142.77 639.08 142.79 639.98 C142.81 649.21 141.04 657.5 137.69 666.06 C137.42 666.75 137.16 667.44 136.89 668.14 C131.74 681.35 131.74 681.35 128.56 682.94 C129 682.27 129.44 681.6 129.9 680.91 C131.79 677.54 133.01 674.1 134.19 670.44 C134.4 669.79 134.62 669.14 134.84 668.46 C143.61 641.69 137.2 613.38 127.56 587.94 C124.58 579.99 121.85 572.34 120.56 563.94 C120.38 562.85 120.19 561.76 120 560.63 C118.21 549.3 118.08 539.13 120.22 527.85 C120.57 524.83 120.55 522.81 119.56 519.94 C117.98 518.5 117.98 518.5 116 517.62 C114.87 517.07 113.73 516.51 112.56 515.94 C110.74 521.38 110.24 526.15 110.31 531.88 C110.32 532.71 110.33 533.55 110.34 534.41 C110.69 553.39 114.62 572.67 122.66 589.95 C123.92 592.73 124.85 595.58 125.75 598.5 C126.07 599.53 126.4 600.57 126.73 601.63 C127.68 605.41 128.15 609.06 128.56 612.94 C128.22 612.11 127.88 611.27 127.52 610.42 C126.24 607.29 124.95 604.17 123.66 601.04 C123.1 599.7 122.55 598.35 121.99 597.01 C121.19 595.06 120.38 593.11 119.58 591.16 C119.32 590.52 119.05 589.89 118.78 589.23 C117.37 585.83 115.9 582.47 114.34 579.13 C112.25 574.48 111.04 569.7 109.88 564.75 C109.66 563.89 109.45 563.02 109.23 562.13 C107.47 554.85 106.42 548.1 106.57 540.58 C106.59 538.97 106.6 537.37 106.62 535.76 C106.65 533.24 106.69 530.73 106.73 528.22 C106.78 525.77 106.8 523.34 106.82 520.89 C106.84 520.14 106.86 519.39 106.88 518.61 C106.93 514.55 106.93 514.55 105.19 511 C103.07 509.61 100.95 508.8 98.56 507.94 C80.82 500.73 66.84 490.38 54.38 476 C49.98 471.03 45.66 468.41 39.56 465.94 C38.22 465.28 36.89 464.62 35.56 463.94 C32.53 469.29 31.09 474.8 29.62 480.75 C29.24 482.32 29.24 482.32 28.84 483.92 C27 491.59 25.51 499.28 24.25 507.06 C24.09 508.04 23.93 509.02 23.77 510.03 C21.5 524.91 21.38 539.73 21.38 554.74 C21.38 558.1 21.36 561.46 21.34 564.82 C21.29 581.95 22.31 598.53 25.88 615.31 C26.09 616.36 26.31 617.4 26.53 618.48 C29.15 631.02 31.88 643.56 35.62 655.81 C37.81 663.13 38.98 670.59 40.17 678.12 C40.32 679.07 40.47 680.03 40.63 681.01 C40.83 682.29 40.83 682.29 41.03 683.59 C41.82 687.08 42.94 689.32 45.48 691.83 C47.87 694.25 49.24 696.68 50.81 699.69 C51.33 700.67 51.85 701.66 52.39 702.67 C52.78 703.42 53.16 704.17 53.56 704.94 C54.22 704.94 54.88 704.94 55.56 704.94 C55.68 705.65 55.79 706.36 55.91 707.09 C56.61 710.16 57.71 712.71 59.06 715.56 C61.35 720.41 62.7 724.04 62.69 729.44 C62.69 730.4 62.69 731.36 62.7 732.34 C62.56 734.94 62.56 734.94 61.56 737.94 C60.9 738.27 60.24 738.6 59.56 738.94 C59.62 738.23 59.68 737.53 59.74 736.8 C60.46 720.91 52.3 708.2 44.56 694.94 C44.23 694.94 43.9 694.94 43.56 694.94 C43.36 701.05 43.5 706.58 45.04 712.51 C45.58 715.01 45.81 717.4 45.98 719.95 C46.51 726.13 47.62 732.12 48.88 738.19 C49.21 739.83 49.21 739.83 49.55 741.5 C52 753.34 54.77 764.81 59.56 775.94 C60.17 777.43 60.78 778.93 61.38 780.42 C64.52 788.12 67.64 795.48 72.12 802.5 C77.06 810.87 80.14 820.19 82.8 829.49 C83.33 831.86 83.33 831.86 84.56 832.94 C85.11 835.56 85.61 838.17 86.06 840.81 C86.2 841.58 86.33 842.34 86.47 843.13 C87.47 849.05 88.19 854.95 88.56 860.94 C88.23 860.61 87.9 860.28 87.56 859.94 C85.19 862.31 84.86 863.85 84 867.06 C83.75 867.97 83.5 868.88 83.25 869.82 C78.94 889.44 79.56 912.68 90.56 929.94 C95.59 936.54 100.28 942.19 108.89 943.41 C116.77 943.48 122.16 942.68 128.56 937.94 C125.5 943.74 121.43 946.24 115.56 948.94 C109.78 950.55 105.22 949.97 99.56 947.94 C97.56 947.27 95.56 946.6 93.56 945.94 C93.47 946.71 93.38 947.47 93.29 948.27 C90.71 969.82 86.12 989.57 78.56 1009.94 C77.52 1012.92 76.53 1015.93 75.56 1018.94 C75.1 1020.36 75.1 1020.36 74.63 1021.81 C69.36 1038.5 64.91 1055.28 65.56 1072.94 C66.11 1072.62 66.65 1072.31 67.21 1071.98 C69.65 1070.6 72.1 1069.27 74.56 1067.94 C75.24 1067.53 75.91 1067.13 76.6 1066.71 C84.7 1062.35 95.75 1062.54 104.5 1065 C110.86 1067.56 116.81 1072.19 120.56 1077.94 C120.56 1078.6 120.56 1079.26 120.56 1079.94 C119.51 1079.38 118.46 1078.83 117.38 1078.26 C106.97 1072.63 106.97 1072.63 95.56 1069.94 C94.84 1069.86 94.11 1069.78 93.36 1069.7 C83.78 1069.16 73.3 1072.19 64.56 1075.94 C63.9 1075.28 63.24 1074.62 62.56 1073.94 C61.48 1075.79 60.4 1077.65 59.31 1079.5 C58.67 1080.6 58.02 1081.71 57.36 1082.84 C56.08 1085.05 54.84 1087.26 53.62 1089.5 C49.99 1095.9 45.41 1101.9 40.56 1107.44 C38.25 1109.79 38.25 1109.79 38.56 1112.94 C41.83 1113.8 41.83 1113.8 45.56 1113.94 C49.6 1111.3 51.98 1108.21 54.56 1104.19 C55.25 1103.13 55.93 1102.08 56.64 1100.99 C58.61 1097.86 60.57 1094.73 62.46 1091.56 C64.53 1088.51 66.02 1087.12 69.56 1085.94 C68.29 1091.8 66.44 1096.74 63.69 1102.06 C63.35 1102.74 63.01 1103.42 62.66 1104.11 C61.04 1107.3 59.36 1110.31 57.3 1113.24 C55.29 1115.82 55.29 1115.82 55.56 1118.94 C61.18 1121.66 66.4 1122.78 72.56 1123.62 C73.43 1123.75 74.29 1123.88 75.18 1124.02 C85.54 1125.5 97.16 1125.64 106.76 1120.84 C112.68 1116.21 114.2 1109.14 115.69 1102.19 C117.46 1094.15 117.46 1094.15 118.56 1091.94 C119.22 1091.94 119.88 1091.94 120.56 1091.94 C120.89 1100.85 121.22 1109.76 121.56 1118.94 C135.73 1118.34 135.73 1118.34 147.12 1111.31 C149.37 1107.6 149.68 1105.63 149.66 1101.27 C149.66 1100.15 149.65 1099.03 149.65 1097.88 C149.64 1096.7 149.63 1095.52 149.62 1094.31 C149.62 1092.54 149.62 1092.54 149.61 1090.73 C149.6 1087.8 149.58 1084.87 149.56 1081.94 C148.24 1081.94 146.92 1081.94 145.56 1081.94 C145.85 1080.76 146.14 1079.58 146.44 1078.37 C151.75 1055.37 150.49 1032.67 144.19 1010 C135.67 979.02 133.48 947.95 140.09 916.4 C141.5 909.34 141.98 902.51 142 895.31 C142 894.15 142.01 892.99 142.01 891.8 C141.87 881.33 140.11 871.5 137.75 861.34 C135.98 853.65 135.37 846.12 135.38 838.25 C135.37 837.47 135.37 836.7 135.37 835.9 C135.43 829.87 136.15 824.08 137.11 818.13 C137.96 812.14 138.62 806.39 136.19 800.75 C135.65 800.15 135.12 799.55 134.56 798.94 C133.9 798.94 133.24 798.94 132.56 798.94 C132.36 798.28 132.15 797.62 131.94 796.94 C130.73 794.31 129.6 792.61 127.83 790.38 C124.35 785.8 121.64 780.94 118.94 775.88 C118.01 774.15 117.08 772.43 116.15 770.71 C115.71 769.9 115.27 769.09 114.82 768.25 C113.68 766.14 112.5 764.06 111.3 761.98 C109.79 759.33 108.64 756.79 107.56 753.94 C106.91 752.6 106.25 751.26 105.56 749.94 C106.22 749.94 106.88 749.94 107.56 749.94 C107.94 750.66 108.31 751.39 108.7 752.13 C111.59 757.6 114.41 762.36 118.56 766.94 C123.94 773.11 123.94 773.11 125.56 776.94 C126.22 776.94 126.88 776.94 127.56 776.94 C127.82 777.67 128.07 778.41 128.33 779.17 C129.64 782.1 131.07 783.91 133.25 786.25 C135.93 789.17 138.56 792.1 141.12 795.12 C144.32 798.78 147.78 801.9 151.56 804.94 C152.37 805.6 153.17 806.26 154 806.94 C154.85 807.6 155.69 808.26 156.56 808.94 C157.2 809.45 157.85 809.96 158.51 810.48 C159.21 811.02 159.91 811.57 160.62 812.12 C161.28 812.63 161.93 813.14 162.6 813.67 C164.61 814.97 166.22 815.51 168.56 815.94 C168.56 816.6 168.56 817.26 168.56 817.94 C190.21 828.74 213.1 835.73 237.11 828.25 C252.56 822.38 263.08 812.43 273.56 799.94 C273.23 798.95 272.9 797.96 272.56 796.94 C271.34 798.48 271.34 798.48 270.09 800.06 C266.57 804.15 262.63 807.06 258.12 810 C257.34 810.52 256.55 811.04 255.74 811.57 C238.05 822.88 218.8 826.37 198.12 822.94 C183.44 819.61 165.72 812.27 156.56 799.94 C157.23 800.38 157.9 800.83 158.58 801.29 C165.03 805.52 171.46 808.95 178.56 811.94 C179.34 812.3 180.11 812.66 180.91 813.03 C199.38 821.21 219.62 820.53 238.42 813.81 C246.03 810.71 252.88 806.68 259.56 801.94 C260.29 801.43 261.01 800.92 261.76 800.4 C265.63 797.61 268.88 794.96 271.56 790.94 C271.56 790.28 271.56 789.62 271.56 788.94 C272.22 788.94 272.88 788.94 273.56 788.94 C275.78 785.61 275.81 784.55 275.79 780.68 C275.79 779.64 275.79 778.6 275.79 777.53 C275.77 776.45 275.76 775.37 275.75 774.25 C275.75 773.19 275.75 772.12 275.75 771.03 C275.72 766 275.51 761.16 274.8 756.18 C274.22 750.65 274.33 745.06 274.31 739.5 C274.31 738.49 274.31 738.49 274.31 737.45 C274.3 723 274.83 707.97 278.56 693.94 C278.55 694.71 278.54 695.48 278.53 696.28 C278.21 724.21 279.04 751.75 284.08 779.3 C284.51 781.66 284.92 784.02 285.31 786.38 C286.34 792.5 287.48 798.58 288.75 804.66 C291 815.38 293.02 826.06 294.38 836.94 C294.5 837.89 294.62 838.84 294.75 839.82 C296.59 855.72 295.2 870.5 292.56 886.19 C289.09 907 286.69 926.45 299.38 944.75 C303.23 949.81 306.86 953.73 313.06 955.75 C313.89 955.81 314.71 955.87 315.56 955.94 C316.61 956.02 317.67 956.1 318.75 956.19 C325.98 955.71 332.2 953.97 337.56 948.94 C338.22 948.61 338.88 948.28 339.56 947.94 C337.29 953.2 334.73 956.35 329.56 958.94 C329.56 959.6 329.56 960.26 329.56 960.94 C325.18 961.78 321.03 962.07 316.56 962.06 C315.39 962.07 314.21 962.07 313 962.07 C309.77 961.95 306.74 961.55 303.56 960.94 C303.53 961.97 303.49 963 303.45 964.06 C302.63 983.06 298.35 999.95 292.16 1017.92 C285.33 1037.87 281 1056.79 284.56 1077.94 C283.57 1077.61 282.58 1077.28 281.56 1076.94 C278.79 1083.27 276.31 1089.59 274.25 1096.19 C272.14 1102.75 269.36 1108.7 266.07 1114.75 C265.16 1116.44 264.35 1118.19 263.56 1119.94 C264.23 1123.05 264.23 1123.05 266.6 1124.11 C273.87 1127.09 273.87 1127.09 281.56 1126.94 C287.72 1122.46 289.98 1114.77 292.56 1107.94 C293.48 1105.52 294.43 1103.26 295.56 1100.94 C296.55 1100.61 297.54 1100.28 298.56 1099.94 C298.33 1108.5 297.84 1115.71 294.4 1123.67 C293.33 1126.16 293.33 1126.16 293.56 1129.94 C307 1136.3 323.69 1136.63 337.81 1132.24 C341.03 1130.97 343.45 1129.66 345.56 1126.94 C346.53 1124.24 347.37 1121.63 348.12 1118.88 C348.34 1118.12 348.56 1117.36 348.78 1116.57 C350.32 1111.07 351.58 1105.57 352.56 1099.94 C353.88 1100.27 355.2 1100.6 356.56 1100.94 C358.96 1108.78 357.82 1117.95 356.56 1125.94 C362.58 1125.67 366.86 1125.06 371.56 1120.94 C374.21 1117.03 373.49 1113.42 372.91 1108.96 C372.5 1105.39 372.35 1101.84 372.19 1098.25 C371.85 1092.78 371.24 1088.71 368.56 1083.94 C367.9 1084.93 367.24 1085.92 366.56 1086.94 C365.9 1087.93 365.24 1088.92 364.56 1089.94 C364.16 1089.48 363.76 1089.02 363.35 1088.55 C358.87 1083.71 354.71 1081.2 348.56 1078.94 C347.9 1078.64 347.23 1078.34 346.55 1078.03 C335.87 1073.64 322.18 1075.04 311.56 1078.94 C307.47 1080.78 303.5 1082.79 299.56 1084.94 C298.9 1085.27 298.24 1085.6 297.56 1085.94 C298.25 1083.06 298.25 1083.06 299.56 1079.94 C301.81 1078.88 301.81 1078.88 304.56 1077.94 C306.57 1076.28 308.57 1074.61 310.56 1072.94 C320.33 1067.45 330.67 1065.83 341.39 1068.7 C349.11 1071.01 356.85 1073.91 361.5 1080.81 C361.85 1081.51 362.2 1082.22 362.56 1082.94 C363.22 1082.94 363.88 1082.94 364.56 1082.94 C365.58 1056.96 365.58 1056.96 359.56 1031.94 C359.05 1029.9 358.57 1027.86 358.12 1025.81 C357.22 1021.78 356.27 1017.79 355.12 1013.81 C345.65 979.25 341.12 938.74 353.71 904.39 C356.74 895.64 356.12 885.67 354.56 876.69 C352.3 862.82 353.45 848.62 356.56 834.94 C356.89 834.61 357.22 834.28 357.56 833.94 C357.85 831.85 358.01 829.76 358.18 827.65 C358.59 824.76 359.27 822 359.99 819.18 C363.7 804.58 366.41 789.74 368.95 774.9 C369.15 773.76 369.34 772.62 369.55 771.45 C369.72 770.43 369.89 769.42 370.07 768.37 C370.56 765.94 370.56 765.94 371.56 763.94 C371.84 761.61 372.01 759.27 372.18 756.93 C372.49 754.49 372.94 752.25 373.51 749.86 C374.61 744.97 375.24 740.09 375.78 735.1 C375.88 734.18 375.99 733.26 376.09 732.32 C376.42 729.4 376.74 726.48 377.06 723.56 C377.28 721.64 377.49 719.73 377.71 717.81 C378.34 712.19 378.95 706.56 379.56 700.94 C379.66 700.08 379.75 699.21 379.85 698.32 C380.97 688.12 381.96 677.93 382.62 667.69 C382.71 666.44 382.79 665.19 382.88 663.91 C383.57 652.9 383.96 641.9 384.22 630.88 C384.25 629.65 384.28 628.42 384.32 627.15 C384.35 625.53 384.35 625.53 384.39 623.87 C384.55 621.13 384.95 618.61 385.56 615.94 C385.88 618.29 386.19 620.65 386.5 623 C386.59 623.64 386.67 624.27 386.76 624.93 C388.56 638.8 388.73 652.67 388.69 666.62 C388.69 667.52 388.69 668.41 388.68 669.33 C388.62 708.33 388.62 708.33 386.56 724.94 C391.59 724.94 393.53 722.96 397.12 719.81 C397.74 719.28 398.36 718.74 399 718.19 C405.42 712.43 410.56 705.93 415.56 698.94 C415.98 698.35 416.41 697.77 416.84 697.16 C421.07 691.27 425.11 685.33 428.56 678.94 C429.15 677.93 429.74 676.93 430.35 675.9 C433.04 671.21 435.32 666.33 437.62 661.44 C438.06 660.53 438.49 659.61 438.94 658.68 C443.42 649.29 443.42 649.29 447.06 639.56 C447.43 638.42 447.43 638.42 447.81 637.26 C448.06 636.49 448.31 635.73 448.56 634.94 C449.06 633.44 449.56 631.94 450.06 630.44 C450.3 629.73 450.53 629.01 450.77 628.28 C451.46 626.24 452.21 624.23 452.96 622.21 C455.36 615.02 456.41 607.46 457.69 600 C458.08 597.73 458.48 595.45 458.88 593.18 C459.13 591.78 459.37 590.37 459.61 588.96 C460.45 584.16 460.45 584.16 461.56 581.94 C460.93 587.94 460.25 593.94 459.56 599.94 C459.46 600.89 459.35 601.84 459.24 602.82 C457.9 614.54 456.33 625.71 452.56 636.94 C452.05 638.58 451.54 640.22 451.03 641.86 C441.77 671.23 424.02 710.33 395.56 725.94 C394.54 726.92 393.54 727.92 392.56 728.94 C391.72 729.54 390.87 730.13 390 730.75 C385.37 734.9 385.27 740.37 384.94 746.31 C384.86 747.56 384.79 748.8 384.71 750.09 C384.66 751.03 384.61 751.97 384.56 752.94 C393.21 746.72 402.45 739.8 408.56 730.94 C408.56 729.95 408.56 728.96 408.56 727.94 C409.55 727.61 410.54 727.28 411.56 726.94 C412.6 725.29 413.6 723.63 414.56 721.94 C415.56 720.94 416.56 719.94 417.56 718.94 C434.07 697.56 457.56 659.64 457.56 631.94 C458.22 631.94 458.88 631.94 459.56 631.94 C452.81 666.63 442.84 700.07 422.75 729.6 C422.19 730.45 421.64 731.31 421.06 732.19 C420.56 732.94 420.05 733.68 419.53 734.45 C417.71 739.11 419.15 742.97 421.05 747.41 C421.65 748.61 422.26 749.81 422.88 751 C429.49 764.48 431.74 777.62 431.75 792.56 C431.76 793.77 431.77 794.98 431.79 796.22 C431.8 803.09 431.34 809.56 430.02 816.31 C427.51 830.64 431.41 846.54 438.31 859.12 C442.64 864.54 447.36 869.58 454.43 870.86 C462.34 871.15 470.06 868.27 476.56 863.94 C473.67 869.96 470.27 873.45 464.56 876.94 C458.4 878.99 451.03 878.89 445 876.56 C444.2 876.03 443.39 875.49 442.56 874.94 C441.24 874.26 439.9 873.59 438.56 872.94 C438.55 874.13 438.53 875.32 438.52 876.55 C438.46 881.09 438.38 885.62 438.3 890.16 C438.27 892.1 438.24 894.04 438.22 895.98 C438.01 912.76 436.13 928.9 433.03 945.38 C431.1 955.98 430.26 966.36 430.06 977.12 C429.6 995.17 428.54 1010.99 422.26 1028 C420.56 1032.75 419.35 1037.35 418.94 1042.38 C418.86 1043.24 418.79 1044.1 418.71 1045 C418.66 1045.64 418.61 1046.28 418.56 1046.94 C423.1 1050.02 423.1 1050.02 428.31 1051 C431.52 1049.49 432.16 1048.21 433.56 1044.94 C435.55 1037.43 436.43 1029.61 437.56 1021.94 C438.55 1021.94 439.54 1021.94 440.56 1021.94 C441.57 1024.97 441.73 1027.17 441.81 1030.34 C441.84 1031.39 441.87 1032.45 441.91 1033.54 C441.97 1035.76 442.03 1037.98 442.08 1040.2 C442.11 1041.26 442.15 1042.31 442.18 1043.4 C442.21 1044.37 442.23 1045.33 442.26 1046.33 C442.57 1049.01 443.11 1050.67 444.56 1052.94 C448.6 1054.96 453.75 1054.17 458.19 1054.19 C459.26 1054.21 460.32 1054.23 461.43 1054.25 C467.81 1054.28 472.86 1053.95 478.56 1050.94 C479.65 1048.08 479.73 1045.23 479.84 1042.2 C479.88 1041.3 479.92 1040.39 479.96 1039.46 C480.01 1038.06 480.01 1038.06 480.06 1036.62 C480.2 1033.06 480.35 1029.5 480.56 1025.94 C480.6 1025.23 480.64 1024.51 480.68 1023.78 C480.84 1021.89 480.84 1021.89 481.56 1018.94 C483.61 1017.75 483.61 1017.75 485.56 1016.94 C486.43 1023.96 486.85 1030.93 487.12 1038 C487.17 1039.06 487.21 1040.11 487.26 1041.2 C487.36 1043.78 487.46 1046.36 487.56 1048.94 C492.83 1049.07 496.03 1048.78 500.56 1045.94 C507.3 1035.83 502.83 1020.02 500.95 1008.86 C500.56 1006.73 500.56 1006.73 499.56 1003.94 C498.24 1004.27 496.92 1004.6 495.56 1004.94 C495.7 1004.1 495.85 1003.27 495.99 1002.41 C497.41 993.42 497.87 984.74 497.81 975.62 C497.82 974.33 497.83 973.04 497.84 971.71 C497.82 964.77 497.32 958.64 495.56 951.94 C495.41 950.57 495.28 949.19 495.19 947.81 C494.58 941.75 492.8 935.98 491.17 930.13 C490.05 926.08 489 922.01 487.94 917.94 C486.54 912.58 485.08 907.26 483.56 901.94 C483.19 900.48 482.83 899.03 482.5 897.56 C482.34 896.89 482.19 896.23 482.03 895.54 C480.53 887.17 480.37 878.92 480.38 870.44 C480.37 869.16 480.37 867.88 480.37 866.56 C480.42 858.47 480.81 850.49 481.56 842.44 C482.42 833.16 482.81 823.94 482.88 814.62 C482.9 812.85 482.9 812.85 482.93 811.03 C482.92 804.19 482.12 798.2 480.29 791.61 C469.34 751.41 477.46 704.39 490.56 665.94 C491.34 663.63 492.12 661.33 492.88 659.02 C493.35 657.58 493.84 656.16 494.34 654.73 C500.5 636.23 498.7 616.18 498.45 596.98 C498.09 568 498.09 568 501.56 553.94 C501.73 553.27 501.89 552.61 502.06 551.92 C503.45 546.33 505.01 540.8 506.64 535.28 C508.47 529.02 510.06 522.88 511.13 516.45 C511.53 514.11 512.02 511.81 512.56 509.5 C512.9 507.98 513.23 506.46 513.56 504.94 C513.82 503.75 513.82 503.75 514.08 502.54 C515.77 493.78 515.93 485.14 515.93 476.25 C515.94 473.71 515.97 471.16 516.01 468.62 C516.09 457.76 514.73 448.34 511.56 437.94 C511.25 436.85 510.93 435.76 510.6 434.64 C509.95 432.4 509.27 430.16 508.56 427.94 C515.36 430.62 518.12 438.76 520.94 445.06 C521.49 446.35 522.03 447.64 522.56 448.94 C522.89 448.94 523.22 448.94 523.56 448.94 C524.02 433.77 523.31 421.87 514.56 408.94 C514.21 408.3 513.85 407.66 513.48 407.01 C508.62 398.84 498.32 394.66 489.56 391.94 C486.58 391.2 483.58 390.53 480.56 389.94 C480.56 388.62 480.56 387.3 480.56 385.94 C481.55 385.61 482.54 385.28 483.56 384.94 C483.56 384.61 483.56 384.28 483.56 383.94 C476.21 383.51 469.66 385.12 462.56 386.94 C465.46 388.87 468.17 390.15 471.38 391.5 C472.39 391.93 473.41 392.37 474.46 392.82 C477.51 393.92 480.35 394.51 483.56 394.94 C483.56 395.6 483.56 396.26 483.56 396.94 C481.1 396.53 478.64 396.12 476.19 395.69 C475.51 395.58 474.83 395.47 474.13 395.36 C463.41 393.45 453.78 388.26 444.06 383.56 C442.32 382.73 442.32 382.73 440.55 381.89 C435.27 379.35 430.13 376.75 425.14 373.67 C421.44 371.39 417.97 369.8 413.75 368.62 C412.69 368.32 411.63 368.01 410.54 367.7 C403.26 365.84 396.28 365.72 388.8 365.7 C386.6 365.69 384.39 365.66 382.19 365.62 C374.15 365.57 366.93 366.17 359.1 368.29 C356.56 368.94 356.56 368.94 353.56 368.94 C357.71 362.51 357.71 362.51 360.56 359.94 C354.22 359.94 348.05 361.95 343.06 365.94 Z M72.56 481.94 C73.85 483.31 75.19 484.65 76.56 485.94 C77.22 485.94 77.88 485.94 78.56 485.94 C78.56 486.6 78.56 487.26 78.56 487.94 C81 489.59 81 489.59 84.06 491.25 C87.58 493.24 91.06 495.22 94.44 497.44 C97.97 499.69 101.68 501.49 105.44 503.31 C109.68 505.37 113.64 507.56 117.44 510.38 C123.41 514.76 129.99 517.8 136.65 521 C139.36 522.33 142.02 523.77 144.69 525.19 C160.87 533.19 178.02 534.54 195.75 533.38 C196.79 533.31 197.84 533.25 198.91 533.19 C213.99 531.95 226.8 525.67 240 518.81 C242.1 517.73 244.2 516.65 246.3 515.58 C247.59 514.92 248.88 514.26 250.16 513.59 C253.31 511.97 256.43 510.59 259.77 509.4 C262.78 508.31 265.12 507.07 267.56 504.94 C247.71 506.76 247.71 506.76 228.56 511.94 C225.65 512.86 222.73 513.74 219.81 514.62 C215.34 515.68 215.34 515.68 211.56 517.94 C203.31 519.11 194.88 519.42 186.56 519.94 C185.63 520 184.7 520.06 183.74 520.12 C163.86 521.3 139.74 515.54 124.25 502.28 C122.44 500.57 120.64 498.84 118.87 497.1 C112.62 491.25 104.64 490.19 96.52 488.52 C90.19 487.18 84.31 485.23 78.29 482.89 C75.57 481.77 75.57 481.77 72.56 481.94 Z M123.56 494.94 C135.72 508.62 160.57 511.65 177.71 512.73 C191.99 513.38 206.02 512.8 219.56 507.94 C219.56 507.61 219.56 507.28 219.56 506.94 C218.89 506.8 218.22 506.66 217.53 506.51 C214.48 505.87 211.43 505.21 208.38 504.56 C207.32 504.34 206.26 504.12 205.18 503.89 C204.16 503.67 203.13 503.45 202.08 503.23 C200.68 502.93 200.68 502.93 199.24 502.62 C196.56 501.94 194.12 500.99 191.56 499.94 C189.82 499.54 188.07 499.19 186.31 498.88 C181.67 498.04 181.67 498.04 180.56 496.94 C177.95 496.79 175.37 496.7 172.76 496.66 C171.57 496.63 171.57 496.63 170.35 496.6 C167.8 496.54 165.24 496.49 162.69 496.44 C142.75 496.03 142.75 496.03 134.8 495.14 C131.05 494.8 127.33 494.88 123.56 494.94 Z M505.56 651.94 C501.66 663.65 501.66 663.65 503.82 675.21 C512.51 687.03 523.32 693.88 537.16 698.14 C539.56 698.94 539.56 698.94 540.56 699.94 C537.1 700.43 537.1 700.43 533.56 700.94 C533.56 701.27 533.56 701.6 533.56 701.94 C541.43 702.47 548.25 700.92 555.56 697.94 C556.06 696.95 556.06 696.95 556.56 695.94 C555.68 696 554.79 696.06 553.88 696.12 C545.58 696.07 536.88 694.33 530.47 688.87 C524.87 683.19 519.73 677.22 516.46 669.9 C515.43 667.64 514.23 665.53 513 663.38 C510.9 659.65 509.16 655.9 507.56 651.94 C506.9 651.94 506.24 651.94 505.56 651.94 Z M498.56 677.94 C499.25 684.86 504.54 688.63 509.56 692.94 C512.43 694.92 515.27 696.77 518.56 697.94 C519.22 697.61 519.88 697.28 520.56 696.94 C519.78 696.45 518.99 695.97 518.18 695.47 C511.54 691.23 506.45 687.08 501.56 680.94 C500.58 679.92 499.58 678.92 498.56 677.94 Z M275.56 792.94 C276.56 794.94 276.56 794.94 276.56 794.94 Z M279.56 811.94 C273.44 817.57 265.9 824.86 265.32 833.54 C265.02 845.55 266.38 853.23 274.83 862.27 C277.81 865.14 280.01 866.9 284.21 867 C284.99 866.98 285.76 866.96 286.56 866.94 C286.78 858.61 286.53 851.05 284.56 842.94 C279.61 843.43 279.61 843.43 274.56 843.94 C274.56 843.28 274.56 842.62 274.56 841.94 C277.53 840.95 280.5 839.96 283.56 838.94 C284.24 836.54 284.24 836.54 284.56 833.94 C283.9 833.28 283.24 832.62 282.56 831.94 C279.88 831.92 279.88 831.92 276.94 832.31 C275.93 832.42 274.93 832.53 273.9 832.65 C273.13 832.74 272.36 832.84 271.56 832.94 C271.89 831.95 272.22 830.96 272.56 829.94 C273.68 829.65 274.79 829.36 275.94 829.06 C279.58 828.25 279.58 828.25 281.56 825.88 C282.95 821.79 282.65 818.1 281.56 813.94 C280.9 813.28 280.24 812.62 279.56 811.94 Z M364.56 844.94 C361.7 859.87 361.7 859.87 362.56 874.94 C365.33 890.46 363.89 902.4 359.88 917.5 C356.77 929.24 354.79 939.74 355.56 951.94 C362.07 951.6 364.99 950.62 369.56 945.94 C371.31 943.5 371.67 942.61 371.2 939.64 C370.78 937.88 370.32 936.12 369.81 934.39 C367.29 925.8 367.26 917.79 367.56 908.94 C368.55 908.44 368.55 908.44 369.56 907.94 C369.76 908.5 369.96 909.07 370.16 909.65 C371.06 912.24 371.97 914.84 372.88 917.44 C373.34 918.77 373.34 918.77 373.81 920.12 C375.66 925.42 377.57 930.69 379.56 935.94 C384.71 934.58 387.69 931.25 390.56 926.94 C394.7 914.49 389.98 898.23 384.56 886.94 C383.03 884.41 381.43 882.23 379.56 879.94 C378.08 880.43 378.08 880.43 376.56 880.94 C375.83 882.95 375.83 882.95 375.56 884.94 C374.9 884.94 374.24 884.94 373.56 884.94 C373.67 884.35 373.78 883.77 373.89 883.17 C375.4 872.8 372.06 864.03 368.41 854.43 C367.32 851.24 366.86 848.28 366.56 844.94 C365.9 844.94 365.24 844.94 364.56 844.94 Z M278.56 876.94 C278.53 877.97 278.49 879 278.45 880.06 C277.82 894.69 275.69 908.18 271.12 922.12 C270.84 923.01 270.55 923.9 270.25 924.81 C268.56 929.74 266.55 933.63 263.56 937.94 C261.32 942.84 259.44 947.89 257.56 952.94 C256.91 954.69 256.91 954.69 256.24 956.48 C249.93 974.33 249.93 974.33 247.56 992.94 C248.13 992.65 248.7 992.37 249.29 992.07 C250.04 991.7 250.79 991.32 251.56 990.94 C252.24 990.58 252.92 990.23 253.61 989.87 C263.29 985.35 273.46 985.62 283.5 988.94 C285.2 989.58 286.89 990.24 288.56 990.94 C293.04 987.42 293.75 983.64 294.81 978.31 C294.98 977.5 295.14 976.69 295.32 975.86 C297.66 963.89 296.74 957.01 290.07 946.61 C279.17 929.53 277.85 910.56 282 890.92 C282.53 888.7 283.09 886.49 283.69 884.29 C284.69 881.03 284.69 881.03 284.56 877.94 C282.58 877.61 280.6 877.28 278.56 876.94 Z M242.56 1001.94 C241.6 1004.57 241.6 1004.57 241.56 1006.94 C240.9 1006.94 240.24 1006.94 239.56 1006.94 C234.85 1013.51 231.76 1019.95 230.56 1027.94 C232.48 1027.88 232.48 1027.88 234.56 1026.94 C236.26 1024.35 236.26 1024.35 237.62 1021.19 C242.64 1010.39 242.64 1010.39 246.25 1008.62 C247.01 1008.4 247.78 1008.17 248.56 1007.94 C246.65 1014.49 244.55 1020.94 242.23 1027.37 C241.29 1030.03 241.29 1030.03 242.56 1032.94 C251.34 1035.09 266.18 1035.86 274.56 1031.94 C279.02 1027.7 280.39 1022.27 282.19 1016.56 C282.49 1015.64 282.79 1014.72 283.09 1013.77 C284.68 1008.85 286.18 1003.92 287.56 998.94 C276.19 991.46 252.78 992.55 242.56 1001.94 Z " fill="#000000" transform="translate(265.4375,101.0625)"/>
<path d="M0 0 C16.84 2.64 33.47 4.41 50.5 5.19 C72.96 6.24 72.96 6.24 79.06 7.12 C79.39 7.79 79.72 8.44 80.06 9.12 C76.76 10.12 73.46 11.11 70.06 12.12 C70.09 13.7 70.09 13.7 70.12 15.31 C68.79 26.05 58 36.32 50.02 42.78 C48.56 43.91 47.08 45.03 45.61 46.14 C43.12 48.08 40.74 50.11 38.36 52.18 C32.24 57.48 26 61.94 19.06 66.12 C17.7 66.99 16.35 67.86 15 68.74 C14.28 69.19 13.57 69.65 12.84 70.12 C11.43 71.02 10.03 71.93 8.63 72.84 C5.13 75.06 2.28 76.69 -1.94 77.12 C2.14 72.93 6.26 68.74 11.36 65.8 C14.58 63.81 17.39 61.46 20.25 59 C20.82 58.51 21.39 58.03 21.98 57.53 C26.27 53.85 30.47 50.06 34.66 46.25 C37.12 44.07 39.66 42.03 42.25 40 C50.47 33.48 60.75 24.77 63.06 14.12 C62.5 14.12 61.94 14.11 61.36 14.1 C55.42 14.01 49.48 13.91 43.54 13.81 C41.34 13.77 39.13 13.73 36.93 13.7 C25.55 13.54 14.27 13.33 2.97 11.8 C-2.03 11.14 -6.9 11.02 -11.94 11.12 C-11.53 11.64 -11.12 12.16 -10.7 12.7 C-7.86 16.37 -5.34 19.64 -3.94 24.12 C-6.84 23.13 -8.92 22.14 -11.31 20.19 C-16.07 16.45 -19.9 15.12 -25.94 15.12 C-20.99 19.08 -20.99 19.08 -15.94 23.12 C-16.43 24.61 -16.43 24.61 -16.94 26.12 C-17.91 25.76 -18.89 25.4 -19.89 25.03 C-21.18 24.56 -22.46 24.09 -23.75 23.62 C-24.39 23.39 -25.04 23.15 -25.7 22.9 C-28.59 21.85 -30.84 21.12 -33.94 21.12 C-32.92 21.58 -32.92 21.58 -31.89 22.04 C-26.83 24.42 -23.01 26.24 -19.94 31.12 C-22.71 30.03 -25.37 28.91 -28.03 27.56 C-32.46 25.66 -36.63 25.79 -41.38 25.94 C-42.2 25.95 -43.03 25.96 -43.88 25.98 C-45.9 26.01 -47.92 26.07 -49.94 26.12 C-49.13 26.44 -48.32 26.75 -47.49 27.08 C-46.42 27.51 -45.35 27.93 -44.25 28.38 C-43.19 28.79 -42.14 29.21 -41.05 29.64 C-37.91 31.14 -35.58 32.88 -32.94 35.12 C-31.95 35.62 -31.95 35.62 -30.94 36.12 C-30.94 37.12 -30.94 38.11 -30.94 39.12 C-31.93 39.12 -32.92 39.12 -33.94 39.12 C-33.94 38.47 -33.94 37.81 -33.94 37.12 C-41.96 33.65 -49.18 31.7 -57.94 32.12 C-55.63 33.44 -53.32 34.76 -50.94 36.12 C-51.43 37.12 -51.43 37.12 -51.94 38.12 C-52.51 38.14 -53.08 38.16 -53.67 38.19 C-69.4 38.74 -69.4 38.74 -84.94 41.12 C-83.71 33.26 -76.37 24.83 -70.25 20.12 C-68.82 19.12 -67.38 18.12 -65.94 17.12 C-64.78 16.16 -63.63 15.18 -62.5 14.19 C-59.94 12.12 -59.94 12.12 -57.94 12.12 C-57.94 11.46 -57.94 10.81 -57.94 10.12 C-55.71 9 -53.48 7.87 -51.25 6.75 C-50.62 6.43 -50 6.12 -49.35 5.79 C-42.88 2.54 -37.23 0.65 -30.12 -0.5 C-29.36 -0.63 -28.59 -0.77 -27.79 -0.91 C-18.15 -2.5 -9.6 -1.53 0 0 Z " fill="#000000" transform="translate(746.9375,254.875)"/>
<path d="M0 0 C3.9 1.45 7.84 2.61 11.85 3.74 C12.53 3.94 13.21 4.13 13.91 4.34 C16.32 5 18.73 5.6 21.16 6.18 C22.23 6.45 23.3 6.72 24.41 6.99 C37.14 9.82 49.74 9.44 62.72 9.24 C88.54 8.87 109.23 8.94 128.75 27.74 C134.15 33.25 143.16 43.95 143.16 52.18 C139.09 52.44 136 52.26 132.16 50.86 C119.51 46.38 107.41 45.77 94.16 46.18 C96.16 43.18 96.16 43.18 98.04 42.49 C101.49 41.98 104.94 42.07 108.41 42.11 C109.16 42.12 109.9 42.12 110.67 42.13 C112.5 42.14 114.33 42.16 116.16 42.18 C112.46 37.93 109.87 37.41 104.43 36.94 C97.73 36.77 92.62 37.69 86.44 40.3 C84.16 41.18 84.16 41.18 81.16 41.18 C81.68 39.37 81.68 39.37 83.16 37.18 C85.74 35.95 88.16 34.97 90.85 34.05 C91.54 33.8 92.24 33.55 92.96 33.29 C97.31 31.74 101.7 30.4 106.16 29.18 C93.57 28.77 84.03 31.83 73.16 38.18 C72.59 38.74 72.02 39.31 71.44 39.9 C71.02 40.32 70.59 40.74 70.16 41.18 C69.17 41.18 68.18 41.18 67.16 41.18 C67.16 40.52 67.16 39.86 67.16 39.18 C74.47 32.18 83.1 27.54 92.16 23.18 C82.96 24.03 75.3 25.48 66.77 29.25 C64.16 30.18 64.16 30.18 61.16 29.18 C62.43 28.05 63.7 26.92 64.97 25.8 C65.68 25.17 66.39 24.55 67.12 23.9 C69.16 22.18 69.16 22.18 72.16 20.18 C71.23 20.17 70.3 20.16 69.34 20.15 C46.19 19.86 26.23 17.76 4.28 10.13 C2.2 9.42 0.12 8.7 -1.96 7.99 C-3.01 7.62 -4.06 7.25 -5.13 6.87 C-10.57 5.02 -15.08 3.68 -20.84 4.18 C-21.59 10.59 -19.39 15.41 -16.93 21.29 C-15.84 24.18 -15.84 24.18 -15.84 27.18 C-16.5 27.18 -17.16 27.18 -17.84 27.18 C-19.3 25.21 -20.57 23.27 -21.84 21.18 C-22.28 20.5 -22.72 19.82 -23.18 19.12 C-26.5 13.71 -28.42 8.62 -27.84 2.18 C-26.22 -0.76 -25.24 -2.33 -22.04 -3.46 C-14.4 -4.73 -7.05 -2.79 0 0 Z " fill="#000000" transform="translate(135.83984375,234.82421875)"/>
<path d="M0 0 C0.66 0 1.32 0 2 0 C2.31 7.22 1.51 13.67 -0.19 20.69 C-0.42 21.65 -0.64 22.61 -0.88 23.6 C-5.64 43.23 -12.92 67.65 -31 79 C-35.97 81.36 -40.57 81.75 -46 81 C-48.44 79.25 -48.44 79.25 -50 77 C-50.54 76.34 -51.07 75.68 -51.62 75 C-52.96 73.06 -53.97 71.11 -55 69 C-55.38 69.66 -55.75 70.33 -56.14 71.01 C-60.88 79.19 -66.7 86.9 -76 90 C-78.29 90.12 -80.58 90.18 -82.88 90.19 C-84.09 90.2 -85.3 90.22 -86.55 90.23 C-89.91 90.01 -92 89.45 -95 88 C-95.72 87.69 -96.44 87.38 -97.18 87.05 C-107.46 81.38 -111.28 69.08 -114.44 58.38 C-115.52 54.27 -116.35 50.19 -117 46 C-117.39 46.74 -117.78 47.49 -118.19 48.25 C-120.79 52.19 -123.51 54.5 -128 56 C-130.05 56.24 -130.05 56.24 -132.31 56.31 C-133.42 56.37 -133.42 56.37 -134.55 56.43 C-138.67 55.71 -141.73 53.76 -144.19 50.35 C-145.31 48.41 -146.3 46.46 -147.25 44.44 C-147.59 43.73 -147.94 43.02 -148.29 42.29 C-151.97 34.37 -153.39 26.7 -153 18 C-152.34 17.67 -151.68 17.34 -151 17 C-149.22 20.91 -147.79 24.66 -146.69 28.81 C-144.7 35.64 -141.34 41.48 -136.5 46.69 C-134.03 48.22 -134.03 48.22 -131 48.06 C-124.31 45.69 -120.38 38.97 -117 33 C-116.32 30.83 -116.32 30.83 -116 29 C-115.34 29 -114.68 29 -114 29 C-113.67 27.35 -113.34 25.7 -113 24 C-112.01 23.67 -111.02 23.34 -110 23 C-110.02 23.99 -110.05 24.99 -110.07 26.01 C-110.33 41.87 -109.78 59.4 -98.98 72.02 C-94.28 76.73 -89.84 80.28 -83 80.69 C-76.27 80.25 -71.42 76.97 -66.31 72.81 C-60.36 65.58 -57.13 58.22 -54.65 49.27 C-54.15 47.5 -53.58 45.75 -53 44 C-52.34 43.67 -51.68 43.34 -51 43 C-49.06 46.87 -49.28 51.79 -48.93 56.08 C-48.42 61.28 -47.4 65.34 -45 70 C-43.28 71.35 -43.28 71.35 -41 71 C-31.06 67.94 -25.24 60.59 -20 52 C-19.56 51.35 -19.12 50.7 -18.66 50.04 C-15.64 45.55 -13.73 41.02 -11.99 35.91 C-10.98 32.95 -9.9 30.04 -8.79 27.12 C-7.47 23.59 -6.2 20.05 -4.94 16.5 C-4.68 15.79 -4.43 15.08 -4.16 14.36 C-2.48 9.62 -1.15 4.89 0 0 Z " fill="#000000" transform="translate(538,782)"/>
<path d="M0 0 C5.15 4.48 7.67 9.11 8.44 15.88 C8.34 20.56 6.18 23.68 3 27 C0.6 28.2 -0.8 28.09 -3.47 28.03 C-4.82 28.01 -4.82 28.01 -6.2 27.99 C-8.08 27.96 -9.96 27.92 -11.84 27.87 C-22.1 27.56 -22.1 27.56 -31.05 31.77 C-32.25 34.58 -32.3 36.7 -32.19 39.75 C-32.16 40.73 -32.13 41.72 -32.11 42.73 C-32.07 43.48 -32.04 44.23 -32 45 C-35.38 43.61 -36.84 42.2 -38.69 39.06 C-39.1 38.37 -39.52 37.68 -39.95 36.97 C-43.21 30.86 -42.44 23.89 -40.81 17.36 C-37.6 8.01 -31.98 1.92 -23.19 -2.38 C-15.41 -3.9 -7.08 -3.93 0 0 Z M-30 23 C-30 23.33 -30 23.66 -30 24 C-20.76 24 -11.52 24 -2 24 C-2 23.01 -2 22.02 -2 21 C-10.87 18.16 -22.77 15.98 -30 23 Z " fill="#000000" transform="translate(517,505)"/>
<path d="M0 0 C5.86 5.16 9.46 10.83 10.28 18.63 C10.52 25.53 10.05 32.51 5.35 37.89 C0.81 42 0.81 42 -3 42 C-2.9 41.25 -2.81 40.5 -2.71 39.73 C-2.6 38.75 -2.49 37.76 -2.38 36.75 C-2.26 35.78 -2.14 34.8 -2.02 33.8 C-2 30.82 -2.33 29.44 -4 27 C-8.73 24.14 -13.09 23.71 -18.56 23.12 C-24.73 22.38 -28.1 21.91 -32 17 C-34.18 12.83 -34.44 8.86 -33.8 4.25 C-32.27 -0.03 -28.83 -2.72 -25 -5 C-16.12 -7.5 -7.48 -5.07 0 0 Z M-24 15 C-24.33 15.66 -24.66 16.32 -25 17 C-21.7 18.65 -18.01 18.38 -14.38 18.56 C-13.57 18.61 -12.77 18.65 -11.95 18.69 C-9.96 18.8 -7.98 18.9 -6 19 C-6.86 16.77 -6.86 16.77 -9.38 15.88 C-14.28 14.69 -18.98 14.84 -24 15 Z " fill="#000000" transform="translate(407,492)"/>
<path d="M0 0 C6.22 0.52 11.98 1.65 18.01 3.28 C24.76 4.9 31.4 5.19 38.31 5.32 C39.28 5.34 40.24 5.36 41.24 5.38 C44.3 5.44 47.37 5.5 50.44 5.56 C52.53 5.61 54.61 5.65 56.7 5.69 C61.8 5.8 66.9 5.9 72 6 C70.97 11.1 68.1 12.39 63.9 15.2 C60.19 17.5 56.41 19.61 52.54 21.64 C50.78 22.59 49.03 23.58 47.32 24.61 C44.92 26.05 42.6 26.99 40 28 C39.36 28.31 38.73 28.62 38.07 28.94 C29.24 33.2 20.69 34.87 11 33 C10.67 32.34 10.34 31.68 10 31 C10.94 30.83 11.88 30.66 12.85 30.48 C22.16 28.84 22.16 28.84 30 24 C30.66 23.01 31.32 22.02 32 21 C28.92 20.02 27.09 20.04 24 20.94 C18.34 22.34 12.79 22.18 7 22 C7.33 21.01 7.66 20.02 8 19 C9.68 18.8 9.68 18.8 11.39 18.6 C12.87 18.42 14.34 18.24 15.81 18.06 C16.55 17.98 17.29 17.89 18.05 17.8 C21.17 17.42 24.01 17 27 16 C27 15.34 27 14.68 27 14 C26.02 13.65 26.02 13.65 25.02 13.3 C4.42 5.94 4.42 5.94 0 2 C0 1.34 0 0.68 0 0 Z " fill="#000000" transform="translate(235,291)"/>
<path d="M0 0 C4.44 0.52 7.26 1.6 11 4 C16.48 6.53 21.86 7.13 27.85 7.13 C29.5 7.13 29.5 7.13 31.18 7.14 C32.32 7.13 33.45 7.13 34.62 7.12 C35.74 7.13 36.85 7.13 38 7.14 C45.38 7.13 52.65 6.73 60 6 C60.5 6.99 60.5 6.99 61 8 C55.19 14.48 48.35 16.02 40 17 C36.66 17.14 33.34 17.13 30 17 C34.56 22.04 38.12 22.1 44.75 22.56 C45.92 22.65 47.09 22.73 48.3 22.82 C49.63 22.91 49.63 22.91 51 23 C49.17 25.4 48.25 25.96 45.21 26.43 C38.4 26.44 33.12 25.79 26.93 22.88 C25.05 21.86 25.05 21.86 23 22 C22.7 25.34 22.7 25.34 24 29 C29.96 33.6 37.79 35.31 45 37 C45 37.33 45 37.66 45 38 C33.06 38.98 25.22 37.26 15 31 C15 30.34 15 29.68 15 29 C14.07 28.91 14.07 28.91 13.12 28.81 C12.42 28.54 11.72 28.28 11 28 C10.3 26.35 9.63 24.68 9 23 C8.01 22.67 7.02 22.34 6 22 C4.65 20.07 4.65 20.07 3.38 17.69 C2.95 16.91 2.52 16.13 2.09 15.32 C0.32 11.54 -0.12 8.41 -0.06 4.25 C-0.05 3.45 -0.04 2.65 -0.04 1.83 C-0.02 1.22 -0.01 0.62 0 0 Z " fill="#000000" transform="translate(628,296)"/>
<path d="M0 0 C0.83 0.01 1.66 0.01 2.51 0.02 C14.9 0.12 27 0.67 39.12 3.44 C40.36 3.7 41.6 3.97 42.87 4.25 C50.55 6.11 57.99 8.68 65.44 11.31 C66.34 11.63 67.25 11.94 68.19 12.27 C74.66 14.62 80.34 17.71 86.12 21.44 C86.93 21.95 87.73 22.47 88.56 23 C93.99 26.51 99.08 30.4 104.12 34.44 C101.12 35.44 101.12 35.44 97.85 33.88 C96.48 33.12 95.11 32.34 93.75 31.56 C80.6 24.37 67.01 18.32 52.62 14.06 C51.88 13.84 51.14 13.61 50.37 13.38 C34.14 8.87 17.41 7.96 0.66 8.1 C-2.34 8.13 -5.33 8.12 -8.32 8.12 C-22.83 8.13 -36.13 9.24 -50.06 13.62 C-51.87 14.19 -53.67 14.75 -55.48 15.29 C-56.26 15.54 -57.03 15.78 -57.83 16.03 C-59.88 16.44 -59.88 16.44 -62.88 15.44 C-57.61 11.87 -52.55 9.3 -46.5 7.38 C-45.83 7.14 -45.16 6.91 -44.46 6.68 C-29.7 1.84 -15.5 -0.24 0 0 Z " fill="#000000" transform="translate(437.875,428.5625)"/>
<path d="M0 0 C1.83 0.5 1.83 0.5 4 2 C14.64 25.99 12.57 68.25 4.07 92.68 C2.82 95.38 1.48 96.43 -1 98 C-12.87 87.53 -23.86 64.73 -25 49 C-25.05 48.32 -25.1 47.65 -25.16 46.95 C-25.57 36.68 -23.49 25.64 -20 16 C-19.34 16 -18.68 16 -18 16 C-17.83 19.89 -17.96 23.12 -19 26.88 C-20.1 31.43 -20.23 35.84 -20.25 40.5 C-20.26 41.2 -20.27 41.9 -20.28 42.62 C-20.23 51.29 -18.06 58.64 -14.25 66.38 C-13.9 67.11 -13.55 67.84 -13.18 68.59 C-10.68 73.76 -8 78.82 -5.13 83.8 C-4.06 85.88 -3.45 87.71 -3 90 C0.55 87.34 0.93 83.88 1.62 79.75 C1.86 78.47 2.1 77.18 2.35 75.86 C4.1 64.18 4.18 52.29 4.19 40.5 C4.2 39.21 4.21 37.93 4.22 36.61 C4.24 24.15 2.69 12.16 0 0 Z " fill="#000000" transform="translate(751,552)"/>
<path d="M0 0 C0.33 0 0.66 0 1 0 C0.68 7.43 -1.01 13.24 -4 20 C-4.38 20.96 -4.77 21.92 -5.16 22.91 C-7.96 29.91 -11.29 36.44 -15 43 C-15.5 43.99 -15.5 43.99 -16 45 C-16.66 45 -17.32 45 -18 45 C-18.27 45.73 -18.54 46.46 -18.82 47.22 C-21.45 53.42 -25.75 58.82 -30 64 C-32.05 66.63 -34.03 69.31 -36 72 C-37.06 73.43 -37.06 73.43 -38.14 74.88 C-54.23 97.18 -56.68 119.06 -57 146 C-57.66 146.33 -58.32 146.66 -59 147 C-61.23 142.54 -60.23 136.48 -60.24 131.52 C-60.25 129.3 -60.28 127.08 -60.31 124.86 C-60.41 112.38 -58.96 100.59 -53.25 89.31 C-52.9 88.6 -52.56 87.89 -52.2 87.16 C-48.23 79.19 -43.57 71.94 -38 65 C-36.66 63.17 -35.32 61.34 -34 59.5 C-32 56.72 -29.99 53.99 -27.81 51.34 C-25.83 49.05 -25.83 49.05 -25 46 C-24.34 46 -23.68 46 -23 46 C-22.77 45.32 -22.55 44.64 -22.31 43.94 C-20.94 40.87 -19.27 38.5 -17.29 35.82 C-11.53 27.72 -7.7 18.48 -4.11 9.28 C-2.87 6.11 -1.6 3.01 0 0 Z " fill="#000000" transform="translate(518,625)"/>
<path d="M0 0 C22.9 -1.58 51.89 4.44 69.95 19.1 C73.1 22.02 75.91 25.22 78 29 C78 29.99 78 30.98 78 32 C78.66 32 79.32 32 80 32 C81.13 34.54 82.25 37.08 83.38 39.62 C83.69 40.34 84.01 41.05 84.34 41.79 C89 52.38 89 52.38 89 58 C86 57 86 57 84.54 54.49 C84.05 53.44 83.56 52.39 83.06 51.31 C80.96 46.94 78.83 42.95 76 39 C75.5 38.23 75 37.46 74.48 36.67 C70.6 30.83 66.55 26.28 61 22 C60.07 21.28 59.14 20.56 58.19 19.81 C53.65 17.24 48.93 15.66 44 14 C42.36 13.41 42.36 13.41 40.69 12.81 C30.75 9.33 20.65 6.89 10.39 4.55 C6.91 3.75 3.46 2.88 0 2 C0 1.34 0 0.68 0 0 Z " fill="#000000" transform="translate(480,464)"/>
<path d="M0 0 C2.89 2.05 5.26 4.11 7.56 6.81 C7.56 7.8 7.56 8.79 7.56 9.81 C5.86 9.96 5.86 9.96 4.12 10.11 C-7.25 11.06 -7.25 11.06 -17.44 15.81 C-18.01 16.14 -18.59 16.46 -19.18 16.8 C-24.25 19.91 -27.23 24.32 -30.54 29.19 C-32.33 31.67 -34.22 33.72 -36.44 35.81 C-37.43 35.15 -38.42 34.49 -39.44 33.81 C-39.57 24.36 -36.52 16.67 -31.44 8.81 C-27.11 4.81 -27.11 4.81 -24.44 4.81 C-24.44 4.15 -24.44 3.49 -24.44 2.81 C-16.61 -1.62 -8.65 -2.99 0 0 Z M-26 11.38 C-27.97 13.79 -28.84 15.75 -29.44 18.81 C-28.63 18.28 -27.83 17.74 -27 17.19 C-26.45 16.83 -25.89 16.46 -25.32 16.09 C-24.01 15.2 -22.72 14.27 -21.46 13.32 C-15.47 8.94 -9.68 7.21 -2.44 5.81 C-4.84 3.41 -6.75 2.99 -10.09 2.66 C-16.4 3.07 -21.86 6.78 -26 11.38 Z " fill="#000000" transform="translate(586.4375,295.1875)"/>
<path d="M0 0 C0.9 -0 1.81 -0.01 2.74 -0.01 C4.63 -0.02 6.52 -0.02 8.42 -0.02 C11.3 -0.02 14.19 -0.04 17.07 -0.06 C18.92 -0.06 20.77 -0.06 22.62 -0.06 C23.91 -0.07 23.91 -0.07 25.21 -0.08 C30.25 -0.07 34.4 0.55 39.18 2.17 C38.85 2.83 38.52 3.49 38.18 4.17 C37.09 4.19 36 4.21 34.88 4.23 C30.79 4.3 26.7 4.39 22.6 4.49 C20.84 4.52 19.08 4.56 17.32 4.59 C7.44 4.77 -2.12 5.11 -11.82 7.17 C-13.03 7.4 -14.24 7.64 -15.48 7.88 C-36.92 12.69 -48.9 24.76 -63.82 40.17 C-64.48 39.84 -65.14 39.51 -65.82 39.17 C-64.14 35.57 -62.63 32.93 -59.82 30.17 C-58.72 28.76 -57.64 27.35 -56.57 25.92 C-46.55 13.05 -33.41 3.25 -16.88 0.89 C-11.24 0.23 -5.68 0.01 0 0 Z " fill="#000000" transform="translate(394.8203125,455.83203125)"/>
<path d="M0 0 C-1.39 3.38 -2.69 4.74 -5.89 6.47 C-6.66 6.9 -7.43 7.32 -8.23 7.76 C-9.04 8.19 -9.85 8.62 -10.69 9.06 C-11.48 9.5 -12.27 9.93 -13.08 10.38 C-36.01 22.81 -60.53 28.02 -86.04 21.27 C-93.03 19.18 -98.83 16.07 -103 10 C-102.34 9.67 -101.68 9.34 -101 9 C-99.27 9.71 -99.27 9.71 -97.25 10.81 C-86.89 16.21 -75.86 17.38 -64.31 17.31 C-63.26 17.31 -62.22 17.3 -61.14 17.3 C-41.65 16.99 -25.25 10.57 -7.76 2.54 C-2.2 0 -2.2 0 0 0 Z " fill="#000000" transform="translate(302,324)"/>
<path d="M0 0 C1.44 0.45 2.88 0.91 4.31 1.38 C5.11 1.63 5.91 1.89 6.74 2.15 C9 3 9 3 12 5 C14.85 6.02 17.77 6.77 20.69 7.56 C21.47 7.78 22.24 8 23.04 8.23 C45.98 14.56 73.08 12.26 94 1 C93.89 2.72 93.89 2.72 93 5 C76.16 18.82 57.58 19.73 36.52 17.77 C23.87 16.14 10.59 11.65 1 3 C0.67 2.01 0.34 1.02 0 0 Z " fill="#000000" transform="translate(635,340)"/>
<path d="M0 0 C10.06 6.46 15.47 16.45 18.88 27.61 C19.55 31.6 18.49 33.53 16.26 36.87 C14.43 36.64 14.43 36.64 12.26 35.87 C10.84 33.93 10.84 33.93 9.51 31.43 C3.06 20.07 -4.17 13.61 -15.61 7.62 C-16.3 7.25 -16.99 6.89 -17.7 6.52 C-19.38 5.63 -21.06 4.75 -22.74 3.87 C-21.74 0.87 -21.74 0.87 -19.6 -0.29 C-13.35 -2.13 -6.09 -2.52 0 0 Z M-12.74 2.87 C-8.16 6.58 -3.43 10.06 1.32 13.55 C4.23 15.84 6.71 18.2 9.26 20.87 C7.79 14.48 3.9 8.37 -1.54 4.62 C-5.27 2.89 -8.68 2.57 -12.74 2.87 Z M10.26 21.87 C11.26 23.87 11.26 23.87 11.26 23.87 Z " fill="#000000" transform="translate(377.73828125,281.1328125)"/>
<path d="M0 0 C3.24 3.65 4.96 7.26 6 12 C2.62 12 1.57 11.33 -1.31 9.69 C-7.59 6.43 -14.09 5.25 -21 4 C-21.87 3.81 -22.75 3.63 -23.64 3.43 C-32.68 1.77 -42.04 3.66 -51 5 C-50.21 0.2 -50.21 0.2 -48.31 -1.62 C-47.55 -2.08 -46.79 -2.53 -46 -3 C-45.13 -3.52 -44.27 -4.03 -43.38 -4.56 C-29.88 -10.31 -11.91 -8.96 0 0 Z M-35 -3 C-35 -2.67 -35 -2.34 -35 -2 C-34.01 -1.84 -34.01 -1.84 -33 -1.68 C-29.98 -1.19 -26.96 -0.69 -23.94 -0.19 C-22.9 -0.02 -21.86 0.14 -20.79 0.31 C-12.1 1.78 -12.1 1.78 -7.94 3.7 C-5.03 5.38 -5.03 5.38 -2 4 C-11.65 -4.15 -23 -3.29 -35 -3 Z " fill="#000000" transform="translate(458,561)"/>
<path d="M0 0 C2.91 1.45 3.05 3.31 4.17 6.33 C4.59 7.43 5 8.54 5.43 9.67 C5.86 10.85 6.3 12.03 6.75 13.25 C11.25 25.17 15.74 36.69 22.5 47.54 C24.09 50.14 25.51 52.8 26.94 55.5 C29.4 60.06 32.17 64.23 35.19 68.44 C37.18 71.25 39.07 74.11 40.94 77 C41.82 78.36 41.82 78.36 42.71 79.75 C44 82 44 82 44 84 C44.64 84.27 45.28 84.54 45.94 84.81 C48 86 48 86 49 89 C42.38 88.19 38.17 80.74 34.3 75.85 C31 71.38 31 71.38 31 69 C29.51 68.5 29.51 68.5 28 68 C26.7 66.44 26.7 66.44 25.4 64.41 C24.91 63.66 24.43 62.9 23.93 62.12 C23.16 60.89 23.16 60.89 22.38 59.62 C21.84 58.77 21.31 57.92 20.77 57.04 C12.09 42.86 5.62 27.97 1 12 C0.79 11.29 0.58 10.58 0.36 9.85 C-0.66 6.15 -1.14 3.66 0 0 Z " fill="#000000" transform="translate(352,787)"/>
<path d="M0 0 C4.56 3.16 8.78 6.81 11 12 C10.67 12.66 10.34 13.32 10 14 C8.88 13.51 7.76 13.01 6.61 12.5 C5.13 11.86 3.66 11.21 2.19 10.56 C1.45 10.24 0.71 9.91 -0.05 9.58 C-0.76 9.26 -1.47 8.95 -2.21 8.63 C-2.86 8.34 -3.52 8.05 -4.19 7.76 C-12.2 4.41 -21.54 5.25 -29.64 8 C-32.98 9.42 -36.09 11.13 -39.19 13.01 C-41 14 -41 14 -43 14 C-42.29 9.14 -39.27 7.04 -35.68 3.97 C-24.31 -4.38 -12.77 -6.26 0 0 Z " fill="#000000" transform="translate(740,1097)"/>
<path d="M0 0 C0.66 0.33 1.32 0.66 2 1 C1.01 6.93 -0.97 12.61 -2.74 18.34 C-4.23 23.21 -5.51 28.05 -6.57 33.03 C-7.11 35.51 -7.81 37.93 -8.5 40.38 C-13.02 58.5 -13.37 78.53 -11 97 C-11.99 97.5 -11.99 97.5 -13 98 C-17.42 88.78 -17.18 79.7 -17.19 69.62 C-17.2 68.46 -17.21 67.29 -17.22 66.09 C-17.24 59.13 -16.7 52.75 -15 46 C-14.7 44.78 -14.41 43.56 -14.11 42.3 C-7.52 17.69 -7.52 17.69 -2.85 7.84 C-1.68 5.3 -0.82 2.67 0 0 Z " fill="#000000" transform="translate(644,779)"/>
<path d="M0 0 C-1 4 -1 4 -1.55 5.75 C-3.19 13.93 -1.33 22.05 3 29 C3.66 29.66 4.32 30.32 5 31 C8.1 30.68 8.1 30.68 11 30 C13.95 23.07 12.73 17.59 10.19 10.81 C8.6 7.04 6.82 4.02 4 1 C7 1 7 1 9.5 3.25 C10.74 4.61 10.74 4.61 12 6 C12.56 6.6 13.11 7.2 13.69 7.81 C17.1 13.5 17.77 20.5 17 27 C16.27 29.67 15.38 31.55 14 34 C12.51 34.5 12.51 34.5 11 35 C11 35.66 11 36.32 11 37 C8.05 37.43 5.85 37.46 3.18 36.02 C-2.02 32.02 -4.66 27.39 -6 21 C-6.3 18.04 -6.4 15.1 -6.44 12.12 C-6.45 11.39 -6.46 10.65 -6.47 9.89 C-6.42 6.69 -6.18 4.34 -4.66 1.49 C-3 0 -3 0 0 0 Z " fill="#000000" transform="translate(362,735)"/>
<path d="M0 0 C-0.46 2.49 -1.09 4.14 -2.44 6.31 C-5.76 12.03 -6.51 17.53 -6 24 C-4.45 28.29 -4.45 28.29 -1.12 31.19 C1.26 31.17 1.26 31.17 3.56 29 C8.32 23.15 9.43 17.57 10.47 10.26 C10.73 9.14 10.73 9.14 11 8 C11.66 7.67 12.32 7.34 13 7 C13.66 25.9 13.66 25.9 7.38 32.94 C6.2 33.96 6.2 33.96 5 35 C4.5 35.5 4.5 35.5 4 36 C-3.12 36.71 -3.12 36.71 -6.94 33.62 C-11.48 27.84 -10.69 20.1 -10 13 C-8.77 8.26 -5.81 0 0 0 Z " fill="#000000" transform="translate(743,730)"/>
<path d="M0 0 C1.45 0.01 1.45 0.01 2.93 0.02 C17.75 0.27 31.2 4.5 44.31 11.31 C44.31 11.97 44.31 12.63 44.31 13.31 C38.87 12.17 33.54 10.82 28.19 9.31 C15.39 5.86 3.11 5.09 -10.1 5.3 C-11.05 5.31 -12 5.33 -12.99 5.34 C-13.85 5.36 -14.7 5.38 -15.59 5.39 C-17.69 5.31 -17.69 5.31 -19.69 4.31 C-19.69 3.65 -19.69 2.99 -19.69 2.31 C-13.01 0.6 -6.88 -0.04 0 0 Z " fill="#000000" transform="translate(453.6875,406.6875)"/>
<path d="M0 0 C0.33 0.99 0.66 1.98 1 3 C0.42 3.7 -0.15 4.4 -0.75 5.12 C-4.54 9.97 -6.44 15.25 -5.81 21.44 C-5.33 25.03 -5.33 25.03 -3 27 C1.57 27 3.44 26.55 6.75 23.31 C8.89 20.4 10.51 17.29 12 14 C12.66 14 13.32 14 14 14 C13.46 20.76 11.37 24.5 6.75 29.38 C3.09 31.54 0.15 31.99 -4 31 C-7.22 28.47 -8.7 26.89 -10 23 C-10.47 16.13 -9.85 10.33 -5.24 4.94 C-3.54 3.23 -1.81 1.59 0 0 Z " fill="#000000" transform="translate(589,759)"/>
<path d="M0 0 C0.66 0.99 1.32 1.98 2 3 C0 4 0 4 -3.38 3.06 C-13.04 0.53 -22.06 1.6 -31 6 C-31.72 6.55 -32.43 7.09 -33.17 7.66 C-35 9 -35 9 -37.25 8.69 C-37.83 8.46 -38.4 8.23 -39 8 C-34.25 4 -34.25 4 -32 4 C-31.67 3.01 -31.34 2.02 -31 1 C-22.11 -5.23 -9.48 -5.02 0 0 Z " fill="#000000" transform="translate(610,937)"/>
<path d="M0 0 C0.66 0 1.32 0 2 0 C2.22 1.03 2.44 2.05 2.66 3.11 C5.23 14.57 8.41 24.62 17.68 32.46 C19 34 19 34 19 38 C12.99 36.5 10.95 34.13 7.75 28.99 C2.16 19.46 0.49 11.01 0 0 Z " fill="#000000" transform="translate(256,149)"/>
<path d="M0 0 C0.66 0.33 1.32 0.66 2 1 C2.33 5.1 2.23 7.54 0.38 11.25 C-2.36 14.41 -3.94 15.91 -8 17 C-12.64 15.85 -15.49 13.6 -18.56 10 C-20 7 -20 7 -19.75 4.62 C-19.5 4.09 -19.25 3.55 -19 3 C-18.26 3.78 -17.51 4.57 -16.75 5.38 C-13.72 8.33 -13.72 8.33 -10 10 C-7.4 10.08 -7.4 10.08 -5 9 C-3.23 6.71 -3.23 6.71 -2 4 C-1.61 3.24 -1.22 2.47 -0.81 1.69 C-0.54 1.13 -0.28 0.57 0 0 Z " fill="#000000" transform="translate(726,919)"/>
<path d="M0 0 C0.99 0.33 1.98 0.66 3 1 C2.05 12.69 -1.65 24.36 -10 33 C-11.32 33 -12.64 33 -14 33 C-13.63 28.82 -12.12 26.86 -9.4 23.78 C-3.93 16.83 -1.8 8.5 0 0 Z " fill="#000000" transform="translate(691,174)"/>
<path d="M0 0 C2.88 2.62 2.88 2.62 5 5 C5 5.66 5 6.32 5 7 C2.99 6 0.99 5 -1 3.96 C-1.66 3.63 -2.32 3.29 -3 2.94 C-3.66 2.6 -4.32 2.25 -5 1.9 C-12.4 -1.43 -21.21 -0.39 -29 1 C-28 -2 -28 -2 -25.31 -3.62 C-16.38 -7.33 -7.57 -6.16 0 0 Z " fill="#000000" transform="translate(394,1130)"/>
<path d="M0 0 C0 0.99 0 1.98 0 3 C-0.69 2.84 -1.38 2.68 -2.09 2.52 C-11.46 0.85 -19.87 1.73 -28.67 5.22 C-29.44 5.48 -30.21 5.74 -31 6 C-31.66 5.67 -32.32 5.34 -33 5 C-23.53 -3.55 -11.73 -6.55 0 0 Z " fill="#000000" transform="translate(605,957)"/>
<path d="M0 0 C0.66 0 1.32 0 2 0 C2.25 0.64 2.5 1.27 2.76 1.92 C3.92 4.83 5.08 7.73 6.25 10.62 C6.84 12.12 6.84 12.12 7.45 13.65 C9.55 18.85 11.65 23.5 15 28 C15.99 27.34 16.98 26.68 18 26 C20.06 28.31 20.06 28.31 22 31 C21.67 31.99 21.34 32.98 21 34 C15.44 33.36 13.41 30.8 9.93 26.66 C4.65 19.37 0 9.1 0 0 Z " fill="#000000" transform="translate(266,133)"/>
<path d="M0 0 C0.66 2.11 0.66 2.11 1 4 C-0.48 3.69 -1.96 3.38 -3.44 3.06 C-4.26 2.89 -5.08 2.71 -5.93 2.54 C-8 2 -8 2 -9 1 C-15.33 1.3 -20.18 2.64 -25.93 5.26 C-26.62 5.5 -27.3 5.75 -28 6 C-28.66 5.67 -29.32 5.34 -30 5 C-21.27 -3.43 -11.02 -7.44 0 0 Z " fill="#000000" transform="translate(616,1139)"/>
<path d="M0 0 C-0.6 2.7 -1.32 4.49 -3.56 6.19 C-9.53 9.46 -15.88 10.87 -22.6 9.45 C-24.84 8.76 -26.92 8.08 -29 7 C-29.33 6.34 -29.66 5.68 -30 5 C-28.73 5.09 -28.73 5.09 -27.43 5.18 C-18.79 5.51 -12.7 4.3 -4.77 1.09 C-2 0 -2 0 0 0 Z " fill="#000000" transform="translate(605,1070)"/>
<path d="M0 0 C-1.82 4.64 -5.07 6.91 -9.31 9.31 C-14.03 10.52 -18.02 10.02 -22.29 7.81 C-24.24 6.6 -26.14 5.34 -28 4 C-27.67 3.34 -27.34 2.68 -27 2 C-26.46 2.32 -25.91 2.64 -25.36 2.98 C-20.14 5.24 -13.61 4.86 -8.29 3.1 C-6.75 2.4 -5.23 1.66 -3.74 0.88 C-2 0 -2 0 0 0 Z " fill="#000000" transform="translate(393,1059)"/>
<path d="M0 0 C11.43 4.86 11.43 4.86 13.94 10.81 C11.25 9.74 8.56 8.66 5.89 7.56 C-1.99 4.4 -8.53 2.55 -17.06 2.81 C-17.06 2.15 -17.06 1.49 -17.06 0.81 C-11.61 -2.27 -5.85 -2.03 0 0 Z " fill="#000000" transform="translate(373.0625,932.1875)"/>
<path d="M0 0 C0.55 0.44 1.09 0.89 1.65 1.35 C5.67 4.36 8.59 6.55 13.75 6 C16.99 5.37 20.01 4.44 23 3 C23 4.32 23 5.64 23 7 C19.75 10 16.92 11.31 12.56 11.62 C8.06 11.42 5.61 9.75 2.31 6.8 C0.7 4.58 0.37 2.69 0 0 Z " fill="#000000" transform="translate(355,1001)"/>
<path d="M0 0 C2.64 1.4 3.97 2.74 6 5 C5.67 5.99 5.34 6.98 5 8 C3.85 7.51 2.69 7.01 1.5 6.5 C-4.76 4.15 -10.47 4.69 -17 6 C-14.44 -1.69 -6.91 -1.03 0 0 Z " fill="#000000" transform="translate(744,1068)"/>
<path d="M0 0 C2.89 1.18 4.21 2.23 6.31 4.62 C8.86 7.34 8.86 7.34 12.62 7.38 C15.99 7.12 15.99 7.12 19 6 C18.66 8.53 18.39 9.68 16.38 11.31 C12.91 12.32 10.48 11.86 7 11 C3.6 8.81 1.37 6.85 0 3 C0 2.01 0 1.02 0 0 Z " fill="#000000" transform="translate(561,1014)"/>
<path d="M0 0 C9.73 -0.62 9.73 -0.62 14.56 1.75 C16.79 3.8 17.99 5.18 19 8 C12.12 6.12 12.12 6.12 11 5 C9.36 4.79 7.71 4.63 6.06 4.5 C1.22 4.11 1.22 4.11 -1 3 C-0.67 2.01 -0.34 1.02 0 0 Z " fill="#000000" transform="translate(735,1023)"/>
<path d="M0 0 C2 2 2 2 2 5 C-3.61 4.67 -9.22 4.34 -15 4 C-9.46 -1.54 -7.2 -1.26 0 0 Z " fill="#000000" transform="translate(545,1062)"/>
<path d="M0 0 C-0.95 2.37 -1.57 3.73 -3.76 5.11 C-6.34 6.14 -8.35 6.3 -11.12 6.31 C-12.43 6.34 -12.43 6.34 -13.76 6.36 C-14.5 6.24 -15.24 6.12 -16 6 C-16.66 5.01 -17.32 4.02 -18 3 C-17.67 2.67 -17.34 2.34 -17 2 C-15.45 2.03 -15.45 2.03 -13.88 2.06 C-9 1.98 -4.81 0 0 0 Z " fill="#000000" transform="translate(732,989)"/>
<path d="M0 0 C6.12 -1.14 11.67 -0.06 17 3 C17.33 3.99 17.66 4.98 18 6 C11.4 5.01 4.8 4.02 -2 3 C-1.34 2.01 -0.68 1.02 0 0 Z " fill="#000000" transform="translate(368,1146)"/>
<path d="M0 0 C-3.12 3.41 -5.24 3.96 -9.94 4.19 C-13.11 4.16 -15.3 3.8 -18 2 C-12.49 -1.06 -6.09 -1.77 0 0 Z " fill="#000000" transform="translate(602,1085)"/>
<path d="M0 0 C3.3 1.4 6.02 3.01 9 5 C8.67 5.66 8.34 6.32 8 7 C7.06 6.68 7.06 6.68 6.09 6.34 C0.49 4.52 -4.11 3.67 -10 4 C-9.67 3.01 -9.34 2.02 -9 1 C-5.93 -0.54 -3.4 -0.23 0 0 Z " fill="#000000" transform="translate(370,945)"/>
<path d="M0 0 C-2.62 3.88 -2.62 3.88 -6 5 C-7.66 5.09 -9.33 5.13 -11 5.12 C-12.3 5.13 -12.3 5.13 -13.62 5.13 C-16 5 -16 5 -19 4 C-19 3.34 -19 2.68 -19 2 C-18.41 2.02 -17.82 2.05 -17.21 2.07 C-11.07 2.21 -5.97 -0.34 0 0 Z " fill="#000000" transform="translate(390,1073)"/>
<path d="M0 0 C0.97 0.02 1.94 0.04 2.93 0.06 C4.39 0.06 4.39 0.06 5.88 0.06 C6.7 0.21 7.52 0.35 8.37 0.5 C9.03 1.49 9.69 2.48 10.37 3.5 C6.7 4.35 3.33 4.6 -0.44 4.56 C-1.91 4.55 -1.91 4.55 -3.4 4.53 C-4.5 4.51 -4.5 4.51 -5.63 4.5 C-3.98 1.68 -3.28 0.62 0 0 Z " fill="#000000" transform="translate(382.62890625,1094.50390625)"/>
<path d="M0 0 C-0.66 2.97 -1.32 5.94 -2 9 C-3.65 9.33 -5.3 9.66 -7 10 C-6.68 6.43 -6.36 4.44 -4.06 1.62 C-2 0 -2 0 0 0 Z " fill="#000000" transform="translate(677,189)"/>
<path d="M0 0 C-3.07 2.98 -4.46 3.96 -8.81 4.25 C-9.86 4.17 -10.92 4.09 -12 4 C-12 3.01 -12 2.02 -12 1 C-10.56 0.64 -9.13 0.28 -7.69 -0.06 C-6.89 -0.26 -6.09 -0.46 -5.26 -0.66 C-3 -1 -3 -1 0 0 Z " fill="#000000" transform="translate(736,1002)"/>
<path d="M0 0 C2.97 0.33 5.94 0.66 9 1 C9.33 2.32 9.66 3.64 10 5 C6.37 4.34 2.74 3.68 -1 3 C-0.67 2.01 -0.34 1.02 0 0 Z " fill="#000000" transform="translate(736,1047)"/>
<path d="M0 0 C1.32 0.33 2.64 0.66 4 1 C4 3.31 4 5.62 4 8 C2.68 7.34 1.36 6.68 0 6 C0 4.02 0 2.04 0 0 Z " fill="#000000" transform="translate(274,171)"/>
<path d="M0 0 C1.98 0 3.96 0 6 0 C6 1.32 6 2.64 6 4 C4.02 4 2.04 4 0 4 C0 2.68 0 1.36 0 0 Z " fill="#000000" transform="translate(538,1038)"/>
<path d="M0 0 C0.33 0 0.66 0 1 0 C1 1.65 1 3.3 1 5 C0.34 4.67 -0.32 4.34 -1 4 C-0.67 2.68 -0.34 1.36 0 0 Z " fill="#000000" transform="translate(460,773)"/>
<path d="M0 0 C0.66 0 1.32 0 2 0 C2 1.32 2 2.64 2 4 C1.34 4 0.68 4 0 4 C0 2.68 0 1.36 0 0 Z " fill="#000000" transform="translate(265,128)"/>
<path d="M0 0 C0.99 0.5 0.99 0.5 2 1 C2 1.99 2 2.98 2 4 C1.34 4 0.68 4 0 4 C0 2.68 0 1.36 0 0 Z " fill="#000000" transform="translate(539,777)"/>
<path d="M0 0 C0.99 0.33 1.98 0.66 3 1 C2.01 1.33 1.02 1.66 0 2 C0 1.34 0 0.68 0 0 Z " fill="#000000" transform="translate(416,897)"/>
<path d="M0 0 C0.66 0 1.32 0 2 0 C2 0.66 2 1.32 2 2 C1.34 2 0.68 2 0 2 C0 1.34 0 0.68 0 0 Z " fill="#000000" transform="translate(724,730)"/>
<path d="M0 0 C0.66 0.33 1.32 0.66 2 1 C1.01 1 0.02 1 -1 1 C-0.67 0.67 -0.34 0.34 0 0 Z " fill="#000000" transform="translate(395,715)"/>
<path d="M0 0 C2 1 2 1 2 1 Z " fill="#000000" transform="translate(353,999)"/>
<path d="M0 0 C2 1 2 1 2 1 Z " fill="#000000" transform="translate(750,550)"/>
<path d="" fill="#000000" transform="translate(0,0)"/>
</svg>
