<?xml version="1.0" encoding="UTF-8"?>
<!-- Generator: visioncortex VTracer 0.6.3 -->
<svg version="1.1" xmlns="http://www.w3.org/2000/svg" width="1280" height="1280">
<path d="M0 0 C4.08 2.29 5.73 4.54 7 9 C8.02 14 8.17 18.81 8.21 23.89 C8.24 25.71 8.26 27.52 8.29 29.34 C8.3 30.3 8.32 31.26 8.33 32.25 C9.06 81.17 12.67 130.13 18.18 178.73 C23.87 229.01 26.16 279.47 28 330 C28.05 331.48 28.05 331.48 28.11 332.99 C28.5 343.69 28.76 354.38 28.95 365.08 C29.01 368.37 29.07 371.67 29.13 374.96 C30.54 450.03 30.22 525.09 29.43 600.16 C29.06 635.21 28.91 670.26 28.94 705.31 C28.94 706.43 28.94 707.55 28.94 708.71 C28.95 722.14 28.97 735.57 29 749 C30.91 749.23 30.91 749.23 32.86 749.47 C53.67 752 72.01 764.92 89.21 775.96 C94.11 779.09 99.07 782.09 104.06 785.06 C105.3 785.8 105.3 785.8 106.57 786.56 C109.87 788.53 113.17 790.5 116.47 792.47 C125.44 797.8 134.14 803.08 142 810 C142.83 810.72 143.65 811.44 144.5 812.18 C153 819.69 161.73 827.46 168 837 C168 837.66 168 838.32 168 839 C170.75 838.95 172.49 838.49 174.5 836.58 C176.17 834.62 177.75 832.61 179.31 830.56 C180.18 829.47 180.18 829.47 181.06 828.35 C182.72 826.24 184.36 824.12 186 822 C199.97 804.12 215.94 786.8 234 773 C234.99 772.2 235.97 771.39 236.99 770.56 C254.31 756.55 276.86 744.71 299.8 745.71 C310.25 747.07 319.9 749.88 326.81 758.19 C336.64 771.84 336.72 789.16 334.32 805.26 C332.54 815.3 329.61 824.88 326.17 834.47 C324.84 837.86 324.84 837.86 325 841 C325.81 841.39 326.62 841.77 327.45 842.17 C329.05 842.95 329.05 842.95 330.69 843.75 C332.27 844.52 332.27 844.52 333.89 845.3 C338.55 847.85 342.02 850.47 344.75 855.06 C345.16 855.73 345.56 856.41 345.98 857.1 C348.22 861.29 348.59 865.35 348 870 C346.15 875.84 343.48 879.08 338 882 C328.03 885.32 319.36 880.56 310.41 876.29 C298.37 870.1 298.37 870.1 296 863 C295.37 855.3 296.53 848.5 298.62 841.12 C298.89 840.14 299.16 839.16 299.44 838.14 C301.06 832.23 302.76 826.34 304.47 820.45 C307.61 809.58 310.13 799.56 310.25 788.19 C310.26 787.11 310.26 787.11 310.28 786.01 C310.25 781.65 309.83 777.98 308 774 C294.98 769.66 280.2 773.83 268.42 779.63 C257.23 785.41 247.73 793.17 238.51 801.7 C236.43 803.61 234.31 805.45 232.17 807.29 C228.05 810.89 224.28 814.74 220.56 818.75 C219.91 819.45 219.25 820.16 218.58 820.88 C213.47 826.4 208.68 832.11 204 838 C202.92 839.33 201.83 840.66 200.74 841.98 C200.17 842.69 199.59 843.39 198.99 844.12 C197.87 845.5 196.73 846.88 195.6 848.26 C194.56 849.54 193.52 850.83 192.49 852.12 C191.5 853.38 190.47 854.61 189.43 855.83 C187.76 857.79 187.76 857.79 186 861 C186.3 864.08 186.3 864.08 188 867 C188.57 868.15 189.15 869.29 189.74 870.48 C190.08 871.13 190.42 871.78 190.77 872.45 C213.05 916.15 220.4 967.7 225 1016 C225.46 1015.53 225.93 1015.06 226.4 1014.58 C227.02 1013.96 227.64 1013.34 228.27 1012.7 C228.88 1012.09 229.49 1011.48 230.11 1010.85 C233.28 1007.75 236.63 1004.88 240 1002 C241.37 1000.8 241.37 1000.8 242.77 999.57 C264.02 981.05 291.83 958.78 321.62 960.12 C333.42 961.34 342.73 967.53 350.22 976.57 C355.94 984.37 360.06 992.59 363.32 1001.65 C363.62 1002.47 363.92 1003.28 364.23 1004.12 C367.7 1013.77 370.76 1023.53 373.81 1033.31 C374.67 1036.05 375.53 1038.78 376.39 1041.52 C376.92 1043.2 377.45 1044.88 377.97 1046.56 C379.27 1050.72 380.6 1054.87 382 1059 C382.69 1058.72 383.38 1058.45 384.09 1058.16 C393.63 1054.48 402.07 1052.51 412 1056 C418.5 1059.57 423.63 1064.89 426 1072 C426.79 1078.36 426.26 1083.04 422.5 1088.31 C418.64 1092.66 414.42 1094.73 408.73 1095.18 C381.73 1095.84 381.73 1095.84 371.56 1087.94 C355.35 1071.51 349.22 1042.21 343.07 1020.77 C342.47 1018.68 341.86 1016.58 341.25 1014.48 C340.69 1012.57 340.14 1010.66 339.61 1008.73 C337.47 1001.42 334.35 992.78 327.75 988.38 C318.66 985.04 310.67 987.33 302 991 C286.72 998.18 273.37 1008.12 259.94 1018.25 C259.06 1018.91 258.18 1019.57 257.27 1020.25 C249.8 1025.95 243.34 1031.72 238.38 1039.75 C237.99 1040.36 237.61 1040.98 237.22 1041.61 C226.06 1059.81 223.72 1080.17 220.69 1100.95 C218.37 1116.71 215.08 1131.87 210 1147 C210.76 1146.7 211.53 1146.41 212.31 1146.1 C293.71 1114.58 293.71 1114.58 328.52 1129.51 C337.17 1133.75 344.41 1139.15 348 1148.38 C350.19 1156.52 350.04 1165.48 346 1173 C340.14 1181.54 331.58 1187.45 323.4 1193.61 C321.93 1194.74 320.47 1195.87 319 1197 C318.22 1197.57 317.43 1198.15 316.63 1198.74 C314.51 1200.39 312.68 1201.9 311 1204 C310.83 1207.5 310.83 1207.5 312 1211 C312.74 1225.57 311.6 1238.63 303 1251 C298.81 1255.52 295.53 1257.79 289.25 1258.31 C284.71 1258.23 281.44 1256.99 278 1254 C272.24 1246.63 272.41 1238.14 273.26 1229.24 C276.54 1204.28 286.7 1190.19 306.44 1175 C306.99 1174.57 307.55 1174.14 308.12 1173.7 C310.65 1171.76 313.19 1169.87 315.8 1168.05 C320.69 1164.6 320.69 1164.6 323.31 1159.31 C323.27 1155.98 323.27 1155.98 321.38 1153.69 C310.52 1145.97 294.19 1148.4 281.73 1150.46 C260.39 1154.35 240 1161.76 220 1170 C219.37 1170.26 218.73 1170.52 218.08 1170.79 C214.22 1172.38 210.39 1174.01 206.57 1175.7 C204.81 1176.47 203.04 1177.22 201.27 1177.97 C192.91 1181.78 188.36 1186.65 183 1194 C143.94 1239.87 88.18 1265.14 29.62 1275.81 C28.56 1276.01 27.49 1276.2 26.39 1276.4 C8.93 1279.4 -8.43 1280.38 -26.12 1280.31 C-27.11 1280.31 -28.09 1280.31 -29.1 1280.31 C-44.59 1280.25 -59.71 1279.67 -75 1277 C-76.14 1276.81 -77.27 1276.61 -78.44 1276.41 C-123.99 1268.44 -164.85 1250.27 -199 1219 C-199.77 1218.31 -200.53 1217.61 -201.32 1216.89 C-207.62 1210.91 -212.78 1203.91 -218 1197 C-218.66 1196.13 -219.33 1195.26 -220.01 1194.37 C-225.66 1186.68 -230.08 1178.15 -233.46 1169.24 C-236.63 1161.01 -239.31 1156.39 -247 1152 C-248.02 1151.41 -248.02 1151.41 -249.06 1150.81 C-272.8 1137.25 -303.71 1129.08 -331 1136 C-331.99 1136.66 -332.98 1137.32 -334 1138 C-326.63 1155.85 -316.6 1170.5 -303.94 1185 C-291.21 1199.63 -280.85 1214.91 -281 1235 C-282.72 1245.92 -290.42 1254.58 -299 1261 C-305.79 1265.14 -312.05 1266.75 -320 1266 C-323.82 1264.7 -325.64 1263.39 -328.38 1260.44 C-330.95 1254.99 -331.04 1250.22 -329.19 1244.48 C-324.83 1234.86 -317.11 1227.55 -309 1221 C-312.65 1214.9 -316.57 1209.12 -321 1203.56 C-342.23 1176.94 -342.23 1176.94 -350 1163 C-350.56 1162 -351.12 1161 -351.7 1159.96 C-356.8 1150.38 -360.95 1139.9 -358 1129 C-354.88 1121.2 -348.85 1117.27 -341.46 1113.81 C-314.84 1103.15 -280.07 1109.42 -254.3 1119.98 C-252.85 1120.62 -251.42 1121.29 -250 1122 C-250.14 1121.36 -250.28 1120.72 -250.43 1120.05 C-256.54 1091.87 -258.44 1064.71 -255.73 1035.97 C-254.32 1021.02 -253.9 1009.51 -263.91 997.39 C-267.67 993.09 -271.52 988.87 -275.43 984.69 C-277.08 982.91 -278.71 981.1 -280.33 979.29 C-295.67 962.24 -317.25 943.53 -341.23 941.76 C-348.78 941.6 -354.55 941.92 -361 946 C-361.61 946.37 -362.22 946.73 -362.86 947.11 C-372.71 954.16 -376.45 968.72 -378.56 979.98 C-379.34 985.76 -379.19 991.62 -379.19 997.44 C-379.19 998.69 -379.19 999.95 -379.19 1001.24 C-379.14 1009.11 -378.61 1016.6 -377.46 1024.39 C-376.24 1033.93 -375.19 1043.83 -381 1052 C-385.17 1055.75 -389.88 1058.36 -394.75 1061.06 C-395.51 1061.5 -396.27 1061.93 -397.05 1062.38 C-406.53 1067.65 -415.04 1070.26 -426 1069 C-430.08 1067.76 -432.42 1065.8 -434.94 1062.31 C-436.78 1056.56 -436.94 1051.45 -434.44 1045.88 C-429.64 1037.49 -423 1033.21 -414 1030 C-410.83 1029.22 -407.94 1028.88 -404.69 1028.94 C-403.47 1028.96 -402.25 1028.98 -401 1029 C-401.31 1028.06 -401.61 1027.13 -401.93 1026.16 C-409.18 1000.62 -405.79 968.69 -394 945 C-385.8 931.52 -374.62 920.85 -359 917 C-336.95 912.69 -315.64 920.62 -297 932 C-292.83 934.81 -288.9 937.83 -285 941 C-283.99 941.81 -282.97 942.62 -281.93 943.45 C-269.46 953.59 -257.5 965 -248 978 C-246.35 974.95 -245.35 971.99 -244.44 968.65 C-239.76 951.89 -233.95 935.95 -227 920 C-226.65 919.19 -226.3 918.38 -225.94 917.54 C-218.54 900.57 -208.94 884.62 -199.25 868.88 C-198.45 867.57 -198.45 867.57 -197.63 866.23 C-194.88 861.82 -192 857.61 -188.84 853.48 C-185.64 849.25 -183.37 846.05 -183.62 840.62 C-184.14 837.86 -184.14 837.86 -185 835 C-185.28 833.92 -185.57 832.83 -185.86 831.72 C-190.85 815.04 -199.44 799.63 -208.1 784.62 C-211.87 778.07 -215.39 771.42 -218.81 764.69 C-226.77 749.19 -226.77 749.19 -241 740 C-248.46 739.1 -253.8 740.79 -259.73 745.32 C-281.04 763.32 -291.47 793.76 -302.49 818.67 C-303.5 820.9 -304.56 823.1 -305.66 825.29 C-306.93 827.85 -307.44 829.76 -307.81 832.56 C-308.61 836.24 -309.59 838.68 -312.79 840.95 C-317.6 843.23 -322.85 844.28 -328.01 845.5 C-331.15 846.29 -334.22 847.29 -337.31 848.25 C-346.61 850.88 -353.25 851.28 -361.86 846.49 C-365.64 843.86 -367.29 840.81 -368.94 836.62 C-369.03 832.63 -367.94 829.48 -366 826 C-355.5 815.25 -340.34 813.68 -326 813 C-325.62 811.77 -325.23 810.53 -324.84 809.26 C-322.84 803.27 -320.23 797.6 -317.56 791.88 C-317.04 790.74 -316.51 789.61 -315.97 788.45 C-306.08 767.37 -296.15 747.97 -280 731 C-279.46 730.38 -278.93 729.75 -278.38 729.11 C-272.15 722.19 -261.51 715.34 -252.16 714.76 C-236 714.37 -224.91 718.31 -213 729.5 C-202.23 740.72 -195.71 754.97 -188.71 768.67 C-186.88 772.23 -185.03 775.76 -183.18 779.3 C-176.34 792.34 -169.7 805.4 -164 819 C-159.66 818.56 -157.54 815.71 -154.75 812.69 C-117.39 773.92 -59.33 748.77 -6.02 746.45 C-5.05 746.41 -4.09 746.36 -3.09 746.32 C-0.73 746.21 1.64 746.1 4 746 C5.6 660.51 5.11 575.02 3.15 371.41 C3.09 367.17 3.03 362.93 2.98 358.69 C2.56 328.37 1.96 298.06 0.99 267.76 C0.96 266.76 0.96 266.76 0.93 265.74 C-0.16 220.32 -0.16 220.32 -6.84 175.47 C-16.23 133.01 -16.54 87.35 -16.07 44.02 C-15.97 34.94 -16.03 26.05 -17 17 C-17.75 7.31 -17.75 7.31 -14.62 3.44 C-10.1 -0.76 -5.99 -0.68 0 0 Z M-53 779 C-54.12 779.29 -55.24 779.59 -56.4 779.89 C-78.63 786.39 -100.01 800.7 -118 815 C-119.36 816.07 -119.36 816.07 -120.75 817.17 C-136.52 829.82 -151.61 843.99 -164 860 C-165.2 861.51 -165.2 861.51 -166.42 863.04 C-204.25 910.95 -228.15 971.97 -232 1033 C-232.06 1033.91 -232.12 1034.81 -232.18 1035.75 C-234.96 1079.73 -228.93 1123.09 -210 1163.12 C-209.51 1164.16 -209.03 1165.19 -208.53 1166.25 C-203.98 1175.58 -198.56 1184.03 -191.12 1191.31 C-190.58 1191.85 -190.03 1192.39 -189.46 1192.95 C-170.2 1211.46 -146.28 1224.34 -123 1237 C-122.28 1237.4 -121.56 1237.79 -120.82 1238.2 C-101.15 1248.94 -79.12 1253.66 -57 1256 C-55.96 1256.11 -54.91 1256.22 -53.84 1256.34 C13.67 1262.33 89.68 1244.57 142.4 1200.59 C158.27 1187.08 170.96 1172.25 181 1154 C181.63 1152.86 182.26 1151.73 182.91 1150.56 C214.57 1088.42 205.78 990.07 185.5 926.31 C184.36 922.86 183.19 919.43 182 916 C181.76 915.3 181.53 914.6 181.28 913.88 C171.65 885.48 156.59 859.77 136 838 C135.18 837.12 134.36 836.23 133.52 835.32 C121.31 822.57 106.94 813.81 91.42 805.64 C84.95 802.19 78.91 798.35 72.88 794.19 C32.57 767.02 -6.87 766.11 -53 779 Z " fill="#000000" transform="translate(645,0)"/>
<path d="M0 0 C2 2 2 2 2.12 5 C0.51 14.26 -10.17 23.22 -17.5 28.56 C-18.74 29.77 -18.74 29.77 -20 31 C-20.03 34.26 -20.03 34.26 -19 37 C-15.22 35.3 -12.17 33.37 -9 30.75 C-6.1 28.5 -5.43 28 -1.62 28 C1 29 1 29 3 31 C2.78 35.92 1.41 38.51 -2 42 C-9.2 48 -9.2 48 -12 48 C-11.71 49.19 -11.42 50.38 -11.12 51.6 C-4.31 81.31 -7.44 114 -23.83 140.28 C-33 153.77 -45.82 163.71 -62 167 C-83.12 168.19 -104.84 169.16 -122.17 155.26 C-137.29 141.56 -137.99 120 -139 101 C-139.77 75 -132.71 48.26 -115.3 28.42 C-103.32 15.81 -89.58 6.22 -71.78 5.6 C-55.66 5.36 -43.06 10.21 -31 21 C-26.47 19.56 -23.45 17.02 -20.06 13.81 C-19.27 13.08 -19.27 13.08 -18.47 12.33 C-14.69 8.77 -11.31 5 -8 1 C-5.24 -0.38 -3.05 -0.19 0 0 Z M-93.81 40.38 C-100.44 48.05 -100.44 48.05 -105 57 C-104.16 57.31 -104.16 57.31 -103.3 57.63 C-90.95 62.38 -80.32 67.43 -71 77 C-70.05 77.9 -70.05 77.9 -69.08 78.82 C-59.29 88.81 -54.17 104.19 -53.97 118.04 C-54.07 122.39 -54.49 126.68 -55 131 C-55.15 132.34 -55.15 132.34 -55.3 133.71 C-55.51 135.48 -55.75 137.24 -56 139 C-47.64 135.38 -42.74 126.88 -39.32 118.82 C-30.88 95.68 -30.9 67.58 -41.27 45.14 C-45.41 37.63 -50.72 31.72 -59 29 C-71.7 25.82 -84.24 32.29 -93.81 40.38 Z " fill="#000000" transform="translate(812,1027)"/>
<path d="M0 0 C2.68 0.84 3.98 1.66 6.03 3.55 C6.71 4.16 7.39 4.78 8.09 5.41 C10.01 7.29 11.88 9.2 13.73 11.15 C14.57 12.04 14.57 12.04 15.44 12.94 C16.57 14.12 17.69 15.32 18.79 16.53 C21.33 19.19 22.75 20.65 26.44 21.36 C30.32 20.65 33.76 19.41 37.41 17.92 C53.58 11.41 71.1 9.88 87.53 16.8 C104.02 24.31 113.95 34.89 120.53 51.8 C123.5 60.54 125.19 69.56 125.53 78.8 C125.57 79.49 125.61 80.19 125.65 80.91 C126.46 106.33 117.24 131.33 99.97 149.92 C87.7 161.74 72.36 167.47 55.42 167.27 C41.88 166.75 29.81 160.11 20.57 150.27 C2.33 128.08 -4.27 102.16 -2.47 73.8 C-1.37 65.37 1.06 57.54 4.53 49.8 C3.82 49.53 3.11 49.26 2.38 48.98 C-0.54 47.77 -3.29 46.38 -6.09 44.92 C-11.05 42.41 -16.01 40.4 -21.29 38.66 C-23.47 37.8 -23.47 37.8 -25.47 35.8 C-25.8 32.73 -25.95 30.65 -24.41 27.92 C-20.48 25.64 -16.06 26.65 -11.82 27.68 C-5.01 29.95 1.04 32.23 6.8 36.66 C8.6 38.07 8.6 38.07 11.53 37.8 C13.86 36.13 13.86 36.13 15.53 33.8 C15.19 30.37 13.88 28.83 11.36 26.59 C10.72 26 10.07 25.42 9.4 24.81 C8.72 24.21 8.04 23.61 7.34 22.98 C-3.8 13.01 -3.8 13.01 -6.47 8.8 C-6.53 4.98 -6.53 4.98 -5.47 1.8 C-2.47 -0.2 -2.47 -0.2 0 0 Z M32.53 49.8 C22.47 63.08 19.89 79.54 21.53 95.8 C23.11 107.08 27.1 120.78 35.53 128.8 C35.95 126.98 35.95 126.98 36.38 125.13 C40 110.08 44.99 97.49 55.53 85.8 C56.08 85.16 56.64 84.53 57.21 83.88 C68.09 72.14 82.94 66.48 98.53 64.8 C97.4 55.82 92.64 48.92 85.68 43.27 C68.66 31.65 46 34.52 32.53 49.8 Z " fill="#000000" transform="translate(448.46875,1021.203125)"/>
<path d="M0 0 C3.05 1.61 5.24 3.03 7.38 5.75 C8.63 10.26 8.93 13.93 7.01 18.2 C-3.23 34.74 -20.98 42.26 -39 47 C-53.46 50.35 -69.47 46.72 -82.34 39.7 C-88.45 35.79 -94.8 31.18 -97 24 C-97.64 19.37 -97.68 16.14 -95.25 12.06 C-91.88 8.98 -90.16 8.11 -85.56 7.69 C-81.69 8.03 -80.03 8.62 -77 11 C-76.44 11.78 -75.89 12.57 -75.31 13.38 C-69.79 19.64 -60.85 22.44 -52.7 23.22 C-40.97 23.67 -30.38 19.98 -21 13 C-18.51 10.51 -16.24 7.97 -14.04 5.23 C-9.84 0.63 -6.2 -0.76 0 0 Z " fill="#000000" transform="translate(671,1198)"/>
<path d="M0 0 C2.81 2.02 5.09 4.48 7.44 7 C8.1 7.69 8.77 8.39 9.46 9.1 C11.32 11.05 13.17 13.02 15 15 C15.72 15.77 16.44 16.53 17.18 17.32 C18.85 19.17 20.43 21.06 22 23 C22.73 23.89 23.46 24.78 24.21 25.7 C31.11 34.37 37.01 43.59 42.79 53.03 C43.78 54.64 44.8 56.24 45.82 57.84 C47.56 61.03 47.46 63.44 47 67 C45.38 69 45.38 69 43 70 C40.13 70.02 40.13 70.02 37 69 C35.21 66.53 33.88 64.31 32.5 61.62 C24.08 46.33 13.49 32.95 1.37 20.44 C-1.09 17.86 -3.41 15.16 -5.73 12.45 C-6.77 11.26 -7.88 10.12 -9 9 C-9.33 5.9 -9.51 3.84 -7.88 1.12 C-4.97 -0.62 -3.37 -0.51 0 0 Z " fill="#000000" transform="translate(746,826)"/>
<path d="M0 0 C6.64 4.11 8.67 12.05 10.38 19.25 C10.58 20.07 10.79 20.89 11 21.73 C12.5 27.72 13.76 33.63 13.94 39.81 C13.97 40.65 14.01 41.49 14.05 42.36 C13.62 44.62 13.62 44.62 11.8 46.43 C9.62 47.62 9.62 47.62 6.5 47.5 C3.62 46.62 3.62 46.62 1.62 43.62 C1.11 41.72 1.11 41.72 0.73 39.55 C0.58 38.75 0.43 37.94 0.28 37.11 C0.05 35.82 0.05 35.82 -0.19 34.5 C-1.61 26.84 -3.42 19.46 -5.98 12.1 C-6.99 8.99 -7.46 6.99 -6.7 3.78 C-4.9 0.85 -3.53 -0.56 0 0 Z " fill="#000000" transform="translate(804.375,913.375)"/>
<path d="M0 0 C3.77 3.23 4.49 4.76 4.94 9.69 C4.53 14.37 3.16 16.77 -0.19 20 C-3.06 21.64 -5.06 22.12 -8.38 22.25 C-12.32 20.91 -15.82 19.66 -18.38 16.25 C-19.58 12.63 -19.7 10.06 -19.38 6.25 C-17.76 3.2 -16.34 1.01 -13.62 -1.12 C-8.41 -2.57 -4.73 -2.45 0 0 Z " fill="#000000" transform="translate(625.375,797.75)"/>
<path d="M0 0 C3.05 1.61 5.24 3.03 7.38 5.75 C8.65 10.35 8.6 14.4 6.94 18.81 C4.24 21.85 1.88 22.84 -2 24 C-7.29 23.91 -10.3 22.8 -14 19 C-16.25 15.31 -16.27 12.09 -15.61 7.93 C-14.59 4.71 -12.6 3.04 -10 1 C-6.38 -0.21 -3.81 -0.32 0 0 Z " fill="#000000" transform="translate(614,834)"/>
<path d="M0 0 C3.05 1.61 5.24 3.03 7.38 5.75 C8.65 10.35 8.6 14.4 6.94 18.81 C4.24 21.85 1.88 22.84 -2 24 C-7.29 23.91 -10.3 22.8 -14 19 C-15.82 15.94 -16 14.15 -15.94 10.56 C-14.75 6.07 -13.27 4.27 -10 1 C-6.38 -0.21 -3.81 -0.32 0 0 Z " fill="#000000" transform="translate(553,876)"/>
<path d="M0 0 C3.17 2.68 4.5 4.45 5.81 8.38 C5.72 13.65 4.61 16.69 0.81 20.38 C-2.88 22.63 -6.09 22.64 -10.25 21.99 C-13.44 20.98 -15.14 18.92 -17.19 16.38 C-18.8 13.16 -18.65 9.86 -18.19 6.38 C-16.45 2.9 -15.18 0.95 -11.81 -1 C-7.14 -2.11 -4.35 -2.22 0 0 Z " fill="#000000" transform="translate(546.1875,837.625)"/>
<path d="M0 0 C3.64 1.62 6.2 3.41 8 7 C8.67 10.85 8.9 14.4 6.95 17.88 C4.53 20.84 2.64 22.82 -1.21 23.24 C-8.22 23.44 -8.22 23.44 -12 21.31 C-15.19 17.62 -16.24 14.85 -15.94 10 C-15.28 5.74 -13.36 3.71 -10 1 C-6.81 -0.6 -3.47 -0.37 0 0 Z " fill="#000000" transform="translate(575,848)"/>
<path d="M0 0 C3.15 1.77 4.51 3.2 6.38 6.25 C7.24 10.05 7.19 13.27 6 17 C3.81 19.64 2.07 21.47 -1 23 C-5.77 23.4 -8.08 23.47 -12.38 21.25 C-16.33 17.86 -16.85 16.32 -17.44 11.12 C-17.34 6.33 -15.36 4.28 -12 1 C-8.3 -0.85 -4.04 -0.46 0 0 Z " fill="#000000" transform="translate(658,819)"/>
<path d="M0 0 C2.85 2.45 3.97 4.3 5.19 7.88 C5.5 12.56 4.77 15.17 1.75 18.81 C-2.13 21.93 -4.61 22.27 -9.48 22.23 C-13.44 21.63 -15.12 19.77 -17.81 16.88 C-19.31 12.37 -19.53 8.53 -17.62 4.12 C-12.89 -1.75 -6.84 -2.73 0 0 Z " fill="#000000" transform="translate(581.8125,813.125)"/>
<path d="M0 0 C3.88 1.43 4.8 2.65 6.88 6.25 C8.15 10.49 8.26 12.76 7 17 C4.81 19.58 3.03 21.48 0 23 C-5.34 23.35 -8.66 23.47 -13 20 C-15.82 17.47 -16.27 15.28 -16.5 11.62 C-16.35 6.56 -14.61 4.44 -11 1 C-7.54 -0.73 -3.79 -0.35 0 0 Z " fill="#000000" transform="translate(526,875)"/>
<path d="M0 0 C3.07 1.7 5.41 3.81 7 7 C7.53 10.79 7.85 14.46 5.95 17.89 C3.63 20.7 1.72 22.76 -1.95 23.27 C-6.03 23.45 -9.09 23.46 -12.44 20.94 C-15.38 17.56 -16.38 15.43 -17 11 C-16.11 6.46 -14.52 3.97 -11 1 C-7.52 -0.74 -3.8 -0.59 0 0 Z " fill="#000000" transform="translate(676,793)"/>
<path d="M0 0 C3.07 1.7 5.41 3.81 7 7 C7.53 10.79 7.85 14.46 5.95 17.89 C3.63 20.7 1.72 22.76 -1.95 23.27 C-6.25 23.46 -9.1 23.43 -12.5 20.62 C-16.14 16.81 -16.39 14.44 -16.36 9.33 C-15.75 5.41 -13.83 3.7 -11 1 C-7.52 -0.74 -3.8 -0.59 0 0 Z " fill="#000000" transform="translate(500,916)"/>
<path d="M0 0 C7.59 3.18 10.45 12.58 13.49 19.66 C16.48 28.31 16.48 28.31 14.62 32.56 C12.69 34.12 12.69 34.12 9.69 34.56 C6.31 34.07 5.79 33.66 3.69 31.12 C2.64 29.2 2.64 29.2 1.71 27.04 C1.2 25.86 1.2 25.86 0.68 24.66 C0.33 23.84 -0.02 23.03 -0.38 22.19 C-1.07 20.57 -1.77 18.96 -2.47 17.35 C-2.78 16.63 -3.08 15.92 -3.4 15.18 C-4.29 13.1 -4.29 13.1 -5.44 11.09 C-6.85 7.92 -6.1 5.41 -5.31 2.12 C-2.31 0.12 -2.31 0.12 0 0 Z " fill="#000000" transform="translate(768.3125,887.875)"/>
</svg>
