<?xml version="1.0" encoding="UTF-8"?>
<!-- Generator: visioncortex VTracer 0.6.3 -->
<svg version="1.1" xmlns="http://www.w3.org/2000/svg" width="1280" height="1280">
<path d="M0 0 C0.97 0.58 1.94 1.16 2.94 1.75 C9.42 5.67 15.37 9.68 21 14.75 C21.82 15.43 22.64 16.11 23.49 16.81 C30.09 22.42 35.03 28.72 40 35.75 C41 37.09 41.99 38.42 43 39.75 C43.41 38.89 43.83 38.04 44.25 37.15 C48.19 29.36 52.23 21.67 61 18.75 C68.53 18.14 73.94 18.39 79.93 23.34 C94.76 36.98 98.01 57.02 99.12 76.13 C99.67 85.14 99.67 85.14 104.78 92.3 C107.25 93.91 109.4 94.65 112.23 95.44 C113.27 95.74 114.31 96.04 115.38 96.35 C116.49 96.67 117.6 96.99 118.75 97.31 C154.85 108.05 187.51 125.87 215 151.75 C215.67 152.36 216.35 152.97 217.04 153.6 C225.36 161.42 232.4 171.3 237 181.75 C240.17 181.1 242.62 179.98 245.42 178.39 C265.76 167.09 287.58 161 310.83 167.59 C322.63 171.92 332.75 177.07 342 185.75 C342.79 186.45 343.58 187.14 344.39 187.86 C360.97 203.26 368.99 227.8 369.98 250.04 C370.53 272.75 363.82 294.37 349 311.75 C348.36 312.56 347.71 313.37 347.05 314.21 C333.24 330.82 313.65 336.84 293 339.75 C293.24 340.6 293.47 341.45 293.72 342.33 C294.6 345.51 295.48 348.69 296.36 351.87 C296.74 353.24 297.12 354.61 297.51 355.98 C298.06 357.96 298.6 359.94 299.15 361.92 C299.48 363.11 299.81 364.3 300.15 365.52 C307.04 391.75 301.19 419.43 288.31 442.82 C274.35 465.55 253.04 481.96 230 494.75 C229.4 495.09 228.79 495.42 228.17 495.77 C206.05 507.89 180.95 516.02 156.13 520.28 C151.49 521.14 148.28 522.12 145 525.75 C139.86 546.16 152.9 574.36 159 593.75 C159.38 594.96 159.76 596.16 160.15 597.41 C168.45 623.43 179.36 648.52 189.91 673.69 C191.38 677.21 192.85 680.73 194.31 684.25 C194.74 685.27 194.74 685.27 195.17 686.31 C200.23 698.52 204.75 710.89 209.17 723.34 C212.82 733.6 216.67 743.76 220.69 753.88 C221.23 755.26 221.78 756.64 222.33 758.02 C224.76 764.17 227.22 770.31 229.72 776.43 C246.39 817.76 256.2 863.93 262.46 907.96 C262.61 909.02 262.77 910.08 262.93 911.17 C263.13 912.6 263.13 912.6 263.34 914.05 C264.09 917.13 265.09 919.22 267 921.75 C269.91 922.56 272.53 923.08 275.5 923.5 C297.57 927.43 317.62 940.44 330.69 958.69 C333.47 962.8 335.93 967.04 338.25 971.43 C342.53 977.1 348.71 979.8 355.25 982.12 C356.46 982.56 356.46 982.56 357.7 983.01 C376.91 989.7 396.86 994.06 417 996.75 C417.75 996.85 418.5 996.96 419.27 997.06 C427.77 998.08 436.33 997.99 444.88 998 C445.71 998 446.55 998 447.41 998 C494.83 997.94 539.69 986.42 582.43 966.09 C586.06 964.4 588.98 963.12 593 963.75 C595 965.75 595 965.75 595.06 968.31 C591.98 978.27 582.09 986.32 575 993.75 C574.39 994.39 573.79 995.03 573.17 995.69 C563.52 1005.83 553.43 1014.67 542 1022.75 C541.21 1023.31 540.42 1023.88 539.61 1024.46 C511.35 1044.49 480.93 1057.86 447 1064.75 C445.77 1065 445.77 1065 444.51 1065.26 C418.69 1070.31 392.37 1070.44 366.25 1068.46 C354.86 1067.11 354.86 1067.11 343.75 1068.94 C342.81 1069.27 342.81 1069.27 341.86 1069.61 C336.69 1072.79 334.77 1078.24 332.5 1083.56 C319.63 1112.15 292.6 1135.62 264 1147.75 C258.75 1149.72 253.41 1151.29 248 1152.75 C246.67 1153.12 246.67 1153.12 245.32 1153.5 C222.11 1158.85 197.59 1153.22 177.19 1141.81 C164.06 1133.34 153.6 1120.53 146.56 1106.69 C146.26 1106.09 145.95 1105.49 145.64 1104.87 C142.71 1098.75 140.9 1092.25 139 1085.75 C137.74 1086.08 137.74 1086.08 136.46 1086.42 C118.42 1091.15 100.53 1095.41 82 1097.75 C80.72 1097.92 80.72 1097.92 79.41 1098.1 C43.06 1102.85 2.93 1101.84 -32.79 1093.78 C-43.3 1091.43 -43.3 1091.43 -54 1091.75 C-57.74 1094.18 -58.85 1097.28 -60.38 1101.38 C-68.73 1122.19 -85.23 1139.4 -105.76 1148.45 C-114.96 1152.28 -124.04 1154.19 -134 1154.75 C-135.15 1154.82 -135.15 1154.82 -136.33 1154.9 C-167.74 1156.67 -195.72 1143.23 -218.81 1122.69 C-223.2 1118.6 -227.23 1114.41 -231 1109.75 C-231.77 1108.82 -232.54 1107.89 -233.33 1106.93 C-256.61 1078.16 -267.13 1041.5 -263.31 1004.81 C-260.53 983.85 -252.72 965.8 -239 949.75 C-238.14 948.74 -238.14 948.74 -237.27 947.71 C-223.83 933.17 -204.18 925.21 -184.99 922.34 C-182.52 921.61 -181.64 920.73 -180 918.75 C-179.27 916.65 -179.27 916.65 -178.93 914.28 C-178.77 913.39 -178.61 912.49 -178.45 911.57 C-178.3 910.64 -178.15 909.71 -178 908.75 C-177.86 907.88 -177.72 907.01 -177.57 906.12 C-177.27 904.23 -176.96 902.34 -176.66 900.46 C-170.08 860.8 -159.36 821.77 -146.14 783.85 C-142.92 774.59 -139.91 765.35 -137.38 755.88 C-128.86 724.37 -115.99 694.44 -103.52 664.35 C-88.38 627.8 -73.38 590.97 -64.5 552.31 C-64.24 551.22 -63.99 550.12 -63.72 548.99 C-62.08 541.47 -60.46 533.28 -63 525.81 C-69.01 519.61 -77.99 518.35 -86.06 516.5 C-127.99 506.44 -170.31 488.02 -197 452.75 C-197.6 451.97 -198.21 451.2 -198.83 450.4 C-217.14 425.74 -220.46 396.58 -216.47 366.82 C-214.73 357.08 -211.49 347.97 -208 338.75 C-209.16 338.78 -210.33 338.82 -211.52 338.85 C-226.91 338.83 -243.6 331.73 -255 321.75 C-255.58 321.31 -256.15 320.88 -256.75 320.43 C-273.2 307.71 -282.27 285.78 -285 265.75 C-286.22 249.84 -285.44 234.8 -280 219.75 C-279.66 218.79 -279.66 218.79 -279.32 217.8 C-272.27 198.15 -258.37 182.18 -239.58 173.1 C-236.09 171.54 -232.57 170.11 -229 168.75 C-228.14 168.41 -227.29 168.06 -226.4 167.71 C-208.39 161.6 -185.84 165.79 -169.09 173.82 C-165.02 175.88 -161.07 178.09 -157.19 180.49 C-155.13 181.92 -155.13 181.92 -153 181.75 C-151.38 179.32 -149.86 176.89 -148.38 174.38 C-121.82 130.93 -70.86 107.93 -24 93.75 C-24.45 93.31 -24.9 92.87 -25.36 92.42 C-40.08 77.87 -50.19 59.96 -55 39.75 C-55.22 38.88 -55.44 38.01 -55.67 37.12 C-58.5 24.32 -58.88 10.03 -51.68 -1.33 C-47.61 -6.62 -42.56 -9.2 -36.25 -11.06 C-22.15 -11.88 -11.87 -7.12 0 0 Z M-44.88 6.19 C-50.46 18.91 -46.7 35.96 -42 48.55 C-37.41 60.1 -32.12 70.23 -23.43 79.21 C-21 81.75 -21 81.75 -18.65 84.7 C-15.76 88.23 -12.31 90.88 -8.69 93.62 C-8.04 94.12 -7.4 94.62 -6.73 95.13 C-5.16 96.34 -3.58 97.55 -2 98.75 C-5 100.39 -7.79 101.28 -11.12 102.01 C-12.13 102.24 -13.14 102.47 -14.17 102.7 C-15.25 102.94 -16.33 103.19 -17.44 103.44 C-62.34 113.94 -111.72 136.85 -138.25 176.31 C-138.66 176.93 -139.07 177.54 -139.5 178.17 C-144.69 185.46 -144.69 185.46 -147 193.75 C-143.95 192.35 -141.22 190.6 -138.43 188.73 C-109.67 169.51 -73.07 161.98 -38.89 167.83 C-34.88 168.64 -30.94 169.63 -27 170.75 C-26.15 170.99 -25.3 171.23 -24.43 171.48 C-2.78 177.83 20.42 187.55 36.81 203.51 C39.04 205 39.04 205 42.18 204.82 C47.28 203.39 50.83 200.78 55.06 197.69 C56.76 196.49 58.45 195.3 60.15 194.11 C60.98 193.53 61.8 192.95 62.66 192.36 C94 170.86 133.84 161.81 171.32 168.34 C190.25 172.01 208.05 178.82 224 189.75 C225.56 190.74 227.12 191.72 228.69 192.69 C230.33 193.71 230.33 193.71 232 194.75 C230.54 189.62 228.27 185.52 225.44 181.06 C224.99 180.36 224.55 179.66 224.09 178.93 C220.16 172.82 215.86 167.16 211 161.75 C210.34 161.01 209.68 160.26 209 159.5 C202.16 152.24 194.08 146.53 186 140.75 C185.4 140.32 184.8 139.88 184.18 139.43 C160.55 122.46 132.95 110.85 104.84 103.67 C103.59 103.34 102.35 103.02 101.06 102.69 C99.98 102.43 98.9 102.17 97.79 101.9 C94.35 100.48 93.02 98.83 91 95.75 C89.89 92.43 89.76 89.7 89.61 86.2 C89.54 84.87 89.47 83.53 89.4 82.2 C89.29 80.12 89.19 78.04 89.1 75.96 C88.37 59.17 85.19 42.27 73 29.75 C69.39 28.55 66.79 28.42 63 28.75 C52.68 35.6 49.82 50.15 47.4 61.58 C46.87 65.77 46.86 69.9 46.88 74.12 C46.87 74.94 46.87 75.75 46.86 76.59 C46.86 77.39 46.87 78.19 46.87 79.02 C46.87 80.1 46.87 80.1 46.87 81.19 C47.05 84.74 47.53 88.23 48 91.75 C47.72 90.72 47.45 89.69 47.16 88.64 C46.12 84.76 45.06 80.9 44 77.03 C43.55 75.37 43.1 73.7 42.65 72.04 C34.61 42.16 21.11 23.62 -5.69 7.81 C-6.46 7.35 -7.23 6.89 -8.02 6.42 C-19.03 0.1 -35.62 -5.84 -44.88 6.19 Z M-254 195.75 C-254.62 196.34 -255.24 196.93 -255.88 197.54 C-271.2 213.13 -275.34 237.16 -275.38 257.94 C-275.26 267.86 -274.11 275.69 -270 284.75 C-269.72 285.38 -269.44 286.01 -269.16 286.66 C-261.03 304.69 -246.62 318.69 -228 325.75 C-220.14 328.21 -212.07 329.77 -204 327.75 C-201.34 325.34 -200.8 323.16 -200 319.75 C-201.1 319.41 -202.2 319.07 -203.33 318.72 C-220.13 313.3 -231.64 304.8 -240.36 289.22 C-245.42 278.53 -248.17 267.6 -247 255.75 C-246.94 255.04 -246.88 254.33 -246.81 253.6 C-245.2 236.47 -239.06 220.28 -225.7 208.77 C-212.12 198.61 -198.42 196.68 -182 197.75 C-178.71 198.34 -175.62 199.12 -172.42 200.07 C-169.02 201.03 -166.5 201.27 -163 200.75 C-160.83 199.25 -160.83 199.25 -160 196.75 C-159.84 193.7 -159.84 193.7 -161 190.75 C-174.35 178.63 -193.06 174.79 -210.53 175.44 C-227.36 176.44 -242.37 183.6 -254 195.75 Z M-142 202.75 C-142.67 203.29 -143.35 203.83 -144.04 204.39 C-158.73 216.55 -165.21 233.08 -170.94 250.69 C-171.19 251.46 -171.45 252.24 -171.71 253.04 C-177.24 269.83 -181.64 286.82 -185.79 304.01 C-188.46 315.04 -191.44 325.44 -196.03 335.83 C-208.44 364.06 -212.86 394.59 -201.54 423.88 C-187.31 458.66 -156.22 479.97 -122.8 494.23 C-101.68 502.95 -80 509.36 -57.31 512.25 C-55.82 512.44 -55.82 512.44 -54.31 512.63 C0.42 519.46 56.79 520.58 111.68 514.98 C114.08 514.74 116.47 514.51 118.87 514.28 C174.01 508.94 232.13 494.37 270 450.75 C288.65 427.28 293.87 401.62 290.74 372.32 C288.99 358.02 284.07 345.1 278.8 331.78 C273.42 318.02 269.76 303.88 266.21 289.55 C262.59 274.98 258.55 260.69 253.81 246.44 C253.56 245.67 253.31 244.91 253.05 244.12 C247.62 227.44 247.62 227.44 237.56 213.31 C237.04 212.77 236.52 212.22 235.99 211.66 C217.73 192.96 192.15 179.67 166 176.75 C164.75 176.59 164.75 176.59 163.46 176.42 C124.68 172.08 88.18 183.66 57.69 207.44 C46.66 215.99 46.66 215.99 40 215.75 C35.11 214.29 31.58 211.49 27.88 208.06 C14.6 195.83 -2.33 188.1 -19.25 182.38 C-20.23 182.04 -21.21 181.71 -22.22 181.36 C-61.31 168.64 -110.27 175.89 -142 202.75 Z M245.28 190.16 C243.63 191.86 243.63 191.86 244 195.25 C244.67 198.81 244.67 198.81 247.15 200.58 C251.01 202.16 252.67 201.31 256.56 199.94 C269.87 195.81 285.24 195.87 298 201.75 C313.91 210.43 323.71 222.51 329 239.75 C329.24 240.54 329.49 241.34 329.74 242.16 C334.07 259.48 330.88 278.51 321.97 293.78 C313.35 306.75 301.48 315.09 286.18 318.35 C285.46 318.48 284.74 318.61 284 318.75 C285.19 323.11 286.16 326.19 290 328.75 C304.43 330.35 321.13 324.08 332.47 315.17 C347.96 301.98 357.85 282.91 359.73 262.63 C361.41 238.15 354.74 213.97 338.46 195.25 C325.97 182.59 310.15 175.68 292.42 175.37 C275.49 175.41 258.72 179.1 245.28 190.16 Z M-226 222.75 C-234.18 234.43 -237.18 245.36 -237.25 259.44 C-237.27 260.48 -237.29 261.51 -237.31 262.58 C-237.38 276.97 -232.25 287.77 -222.38 298.06 C-215.71 304.73 -208.28 308.08 -199 309.75 C-195.98 305.35 -194.7 300.9 -193.31 295.81 C-193.06 294.9 -192.8 294 -192.54 293.06 C-191.03 287.63 -189.59 282.18 -188.18 276.71 C-184.8 263.61 -181.18 250.72 -176.75 237.94 C-176.34 236.75 -175.93 235.56 -175.5 234.33 C-173.49 228.63 -171.37 223.08 -168.71 217.65 C-167.77 215.46 -167.77 215.46 -168 211.75 C-188.16 203.84 -211.33 204.63 -226 222.75 Z M253 210.75 C251.53 214.59 252.52 216.82 254.03 220.54 C254.49 221.69 254.94 222.85 255.42 224.04 C255.66 224.65 255.91 225.27 256.17 225.9 C264.74 247.22 270.79 269.2 276.3 291.49 C277.8 297.49 279.29 303.18 282 308.75 C291.1 309.28 298.78 305.24 305.66 299.55 C316.26 288.55 321.88 273.82 322.31 258.62 C321.67 241.67 316.6 228.73 304.25 217 C289.06 204.25 270.83 204.33 253 210.75 Z M-48 528.75 C-50.25 532.7 -51.51 536.27 -52.32 540.73 C-52.65 542.45 -52.65 542.45 -52.99 544.21 C-53.22 545.44 -53.45 546.67 -53.69 547.94 C-62.2 590.98 -80.02 631.54 -96.31 672.08 C-116.15 721.06 -116.15 721.06 -131.68 771.52 C-133.62 778.81 -136.13 785.81 -138.75 792.88 C-153.88 834.12 -164.46 879.07 -169 922.75 C-168.35 922.87 -167.7 922.99 -167.03 923.11 C-154.12 925.54 -141.91 928.02 -130 933.75 C-129.31 934.08 -128.62 934.41 -127.9 934.75 C-118.29 939.4 -109.96 944.54 -102 951.75 C-101.15 952.48 -100.3 953.21 -99.43 953.96 C-72.69 977.26 -55.75 1011.39 -53 1046.75 C-52.78 1051.89 -52.66 1057.04 -52.57 1062.18 C-52.36 1069.11 -51.86 1073.92 -46.73 1079 C-15.99 1098.74 47.62 1092.64 82 1087.75 C82.99 1087.62 83.99 1087.48 85.01 1087.34 C112.14 1084.81 112.14 1084.81 134.66 1071.73 C136.61 1067.39 136.44 1063.33 136.5 1058.62 C137.51 1024.99 147.92 993.48 170 967.75 C171.16 966.35 171.16 966.35 172.35 964.93 C189.68 944.93 214.22 930.15 240.28 925.22 C244.82 924.3 247.67 922.98 251 919.75 C253.21 915.33 252.67 909.25 251.42 904.57 C250.19 901.96 248.8 900.11 246.13 898.9 C245.42 898.69 244.71 898.47 243.97 898.25 C243.17 898 242.37 897.75 241.54 897.5 C240.7 897.25 239.86 897 239 896.75 C238.18 896.51 237.36 896.27 236.52 896.02 C233.14 895.03 229.76 894.05 226.37 893.09 C218.37 890.75 211.58 888.18 206 881.75 C204.47 878.69 204.77 876.13 205 872.75 C209.49 863.64 220.21 860.62 229.2 857.29 C234.55 855.23 234.55 855.23 238 850.75 C239.59 844.15 238.71 838.96 236 832.75 C233.69 829.02 231.11 826.38 227 824.75 C224.23 824.34 224.23 824.34 221.2 824.22 C220.08 824.15 218.95 824.08 217.8 824.01 C215.45 823.88 213.1 823.75 210.75 823.63 C195.85 822.68 195.85 822.68 190.94 817.62 C189.53 813.3 189.45 810.06 191 805.75 C198.01 795.46 209.06 788.01 219 780.75 C218.45 775.18 216.98 770.71 214.69 765.62 C214.39 764.94 214.1 764.25 213.79 763.54 C211.43 758.21 208.95 754.05 204 750.75 C202.06 750.43 202.06 750.43 199.95 750.44 C199.17 750.42 198.39 750.39 197.58 750.37 C195.95 750.33 194.32 750.3 192.69 750.27 C188 750.11 184.79 749.8 181 746.75 C178.52 743.02 178.41 740.07 179 735.75 C180.5 732.22 180.5 732.22 182.56 728.81 C182.92 728.21 183.28 727.61 183.64 726.99 C186.33 722.56 189.37 718.56 192.85 714.71 C194.23 712.81 194.23 712.81 193.75 710.58 C192.82 707.08 191.52 703.78 190.15 700.43 C189.86 699.72 189.57 699 189.27 698.26 C188.31 695.9 187.34 693.55 186.38 691.19 C185.7 689.52 185.02 687.86 184.34 686.19 C180.99 677.96 177.59 669.75 174.12 661.56 C158.15 623.82 142.61 584.79 136.24 544.08 C135.02 536.33 134.09 531.07 128 525.75 C124.64 524.07 120.88 524.61 117.19 524.62 C115.98 524.62 115.98 524.62 114.74 524.61 C110.7 524.62 106.95 524.74 103 525.75 C105.3 535.49 107.95 545.09 110.75 554.69 C115.37 570.58 119.21 586.64 123 602.75 C123.33 602.75 123.66 602.75 124 602.75 C125.81 593.81 126.59 584.84 127.3 575.76 C127.38 574.8 127.46 573.84 127.54 572.85 C127.6 571.99 127.67 571.13 127.73 570.24 C128.01 567.7 128.46 565.25 129 562.75 C132.47 562.25 132.47 562.25 136 561.75 C137.48 605.26 124.29 644.37 100.14 680.07 C81.85 707.2 67.45 735.72 60 767.75 C65.06 769.23 70.13 770.56 75.25 771.81 C82.6 773.62 82.6 773.62 86 774.75 C90.1 775.62 90.1 775.62 94 774.75 C97.51 771.46 100.19 767.64 103 763.75 C104.28 762.12 105.57 760.49 106.88 758.88 C107.53 758.06 108.18 757.24 108.85 756.4 C113.14 751.11 117.58 745.93 122 740.75 C122.5 740.16 123 739.57 123.52 738.97 C129.29 732.18 135.1 725.46 141.1 718.88 C142.75 717.03 144.29 715.14 145.81 713.19 C148 710.75 148 710.75 150.12 709.75 C152 709.75 152 709.75 155 711.75 C155.4 714.13 155.4 714.13 155 716.75 C153.54 718.78 153.54 718.78 151.62 720.69 C145.98 726.34 145.75 731.99 145.72 739.65 C145.74 741.43 145.74 741.43 145.75 743.25 C145.75 744.52 145.76 745.78 145.76 747.08 C145.83 757.45 146.39 767.78 147 778.12 C150.63 840.3 152.38 916.94 109 966.75 C108.43 967.43 107.86 968.11 107.28 968.81 C94.08 983.39 72.78 992.82 53.42 993.89 C27.09 994.77 1.2 991.12 -19.2 972.99 C-50.88 943.33 -61.74 894.39 -63.17 852.52 C-63.44 842.31 -63.38 832.1 -63.32 821.89 C-63.31 818.63 -63.31 815.37 -63.32 812.12 C-63.34 794.25 -62.9 776.54 -61.45 758.72 C-59.67 736.99 -59.67 736.99 -69.42 718.33 C-71 715.75 -71 715.75 -70.74 712.92 C-70.49 712.21 -70.25 711.49 -70 710.75 C-68.21 710.1 -68.21 710.1 -66 709.75 C-60.38 712.88 -56.08 718.91 -52 723.75 C-50.63 725.35 -49.26 726.95 -47.89 728.54 C-46.87 729.74 -45.85 730.93 -44.83 732.12 C-42.14 735.26 -39.45 738.39 -36.72 741.5 C-31.37 747.61 -26.12 753.77 -21.12 760.19 C-20.67 760.77 -20.22 761.35 -19.75 761.94 C-17.82 764.41 -15.9 766.88 -14.04 769.4 C-11.23 773.01 -9.96 774.55 -5.38 775.5 C-0.57 774.99 4.02 773.34 8.59 771.84 C13.66 770.22 18.82 768.98 24 767.75 C16.97 735.05 0.91 705.8 -17.24 678.06 C-37.87 646.5 -51.34 612.49 -51.06 574.25 C-51.06 573.05 -51.05 571.84 -51.05 570.6 C-51.04 567.65 -51.02 564.7 -51 561.75 C-49.35 561.75 -47.7 561.75 -46 561.75 C-44.42 566.04 -43.61 569.96 -43.18 574.5 C-43.06 575.77 -42.93 577.04 -42.81 578.34 C-42.68 579.65 -42.56 580.96 -42.44 582.31 C-42.19 584.92 -41.94 587.52 -41.68 590.13 C-41.58 591.28 -41.47 592.43 -41.36 593.62 C-41.04 596.38 -40.59 599.04 -40 601.75 C-39.34 601.42 -38.68 601.09 -38 600.75 C-37.14 598 -37.14 598 -36.44 594.59 C-36.14 593.24 -35.84 591.89 -35.54 590.55 C-35.38 589.83 -35.22 589.11 -35.06 588.37 C-31.47 572.09 -27.13 556.08 -22.51 540.07 C-22.27 539.26 -22.04 538.45 -21.8 537.62 C-21.36 536.1 -20.92 534.58 -20.47 533.05 C-19.38 529.46 -19.38 529.46 -19 525.75 C-23.64 524.6 -28.18 524.5 -32.94 524.44 C-33.72 524.41 -34.51 524.38 -35.32 524.35 C-40.68 524.29 -43.86 525.03 -48 528.75 Z M-8 531.75 C-9.41 534.19 -10.51 536.35 -11.55 538.93 C-11.85 539.63 -12.14 540.32 -12.44 541.04 C-15.72 549.11 -17.95 557.45 -20.12 565.88 C-20.55 567.51 -20.98 569.14 -21.42 570.77 C-30.24 604.37 -35.44 628.82 -17.48 659.97 C-13.99 665.93 -10.36 671.78 -6.63 677.59 C20.86 720.47 47.24 775.67 35.97 828.09 C32.15 842.47 25.66 851.94 13 859.75 C12.03 860.39 11.06 861.03 10.06 861.69 C5.36 863.32 0.91 863.53 -4 862.75 C-6.88 860.75 -6.88 860.75 -9 857.75 C-9.64 856.91 -9.64 856.91 -10.3 856.06 C-19.57 842.99 -19.22 823.46 -17 808.31 C-15.15 795.34 -14.42 784.39 -22.33 773.45 C-27.62 766.41 -33.47 759.88 -39.48 753.46 C-42.29 750.43 -44.99 747.33 -47.66 744.18 C-48.96 742.62 -48.96 742.62 -51 741.75 C-53.55 774.72 -53.55 774.72 -55 807.75 C-55.02 808.69 -55.04 809.62 -55.07 810.59 C-56.08 861.6 -52.99 922.97 -16.37 962.37 C-0.03 978.79 20.66 984.92 43.38 985.06 C63.57 985.08 80.45 980.12 96 966.75 C96.97 965.97 97.95 965.19 98.95 964.39 C128.96 939.3 134.51 891.96 138 855.75 C138.62 848.75 138.9 841.78 139 834.75 C139.02 833.58 139.04 832.41 139.06 831.21 C139.32 814.05 138.97 796.95 138.12 779.81 C138.09 779 138.05 778.18 138.01 777.34 C137.42 765.42 136.35 753.6 135 741.75 C133.88 742.7 132.77 743.64 131.66 744.59 C131.03 745.12 130.41 745.65 129.77 746.19 C117.98 756.54 107.01 770.73 100 784.75 C99.87 787.24 99.81 789.69 99.81 792.19 C99.81 793.28 99.81 793.28 99.81 794.4 C99.85 798.39 100.12 802.08 101 806 C104.51 822.78 102.38 841.17 94.6 856.36 C92.23 859.91 90.02 861.41 86 862.75 C78.28 863.68 73.16 861.77 66.97 857.28 C55.8 848.19 48.86 834.93 47 820.75 C46.67 815.52 46.61 810.3 46.62 805.06 C46.63 804.34 46.63 803.61 46.63 802.86 C46.81 750.85 71.95 704.51 100.46 662.6 C105.71 654.82 110.04 647 113.62 638.31 C113.97 637.5 114.31 636.68 114.67 635.84 C114.97 635.05 115.28 634.26 115.6 633.44 C115.87 632.75 116.14 632.06 116.42 631.35 C117.93 624.53 116.89 617.92 115.31 611.21 C115.13 610.42 114.96 609.63 114.77 608.81 C114.19 606.25 113.6 603.69 113 601.12 C112.59 599.33 112.18 597.54 111.77 595.75 C107.17 575.82 102.49 555.85 96.19 536.38 C95.91 535.5 95.63 534.63 95.35 533.72 C94.66 531.7 93.84 529.72 93 527.75 C85.68 525.31 76.84 526.74 69.19 527.11 C59.94 527.56 50.7 527.86 41.44 527.88 C39.85 527.88 39.85 527.88 38.23 527.88 C32.11 527.86 26.01 527.67 19.89 527.35 C18.52 527.28 17.16 527.21 15.79 527.15 C13.14 527.02 10.51 526.85 7.87 526.67 C6.07 526.57 6.07 526.57 4.23 526.48 C3.17 526.41 2.11 526.34 1.02 526.27 C-3.02 526.91 -5.38 528.73 -8 531.75 Z M197 723.75 C192.48 728.94 189.15 733.78 189 740.75 C194.15 740.84 198.89 740.54 204 739.75 C203.36 737.46 202.71 735.17 202.06 732.88 C201.88 732.22 201.7 731.57 201.51 730.9 C200.48 727.24 200.48 727.24 199 723.75 C198.34 723.75 197.68 723.75 197 723.75 Z M58 777.75 C54.3 797.13 51.22 821.81 62.57 839.15 C67.49 845.78 73.49 852.83 82 854.25 C85.23 854.06 85.23 854.06 87.05 851.16 C94.69 837.8 95.29 818.69 91.49 803.98 C90.9 801.31 90.81 798.73 90.69 796 C90.36 792.27 89.96 790.68 88.06 787.31 C80.47 780.96 67.87 777.75 58 777.75 Z M-3.64 787.18 C-6.71 790.72 -6.51 795.59 -7 800.06 C-7.89 808.11 -7.89 808.11 -8.55 811.89 C-10.56 824.56 -9.42 840.94 -2 851.75 C0.67 853.75 0.67 853.75 4 853.75 C12.82 851.25 18.96 843.64 23.71 836.21 C28.42 827.2 29.2 816.74 29.19 806.75 C29.19 805.92 29.19 805.1 29.19 804.25 C29.24 790.5 29.24 790.5 25 777.75 C15.94 777.75 3.25 781.15 -3.64 787.18 Z M214.25 795.75 C213.62 796.25 213 796.75 212.36 797.26 C205.33 802.75 205.33 802.75 200 809.75 C200.26 811.93 200.26 811.93 201 813.75 C210.88 815.64 221.06 815.03 231 813.75 C229.18 805.85 226.93 798.3 224 790.75 C219.72 790.75 217.45 793.18 214.25 795.75 Z M231.81 865.94 C230.99 866.23 230.16 866.52 229.31 866.82 C223.74 868.86 218.9 871.41 214 874.75 C214.54 877.97 214.54 877.97 216.95 880.06 C227.28 884.32 238.09 886.49 249 888.75 C248.36 884.98 247.71 881.21 247.06 877.44 C246.79 875.83 246.79 875.83 246.51 874.19 C246.24 872.65 246.24 872.65 245.97 871.07 C245.73 869.65 245.73 869.65 245.48 868.2 C245.03 865.63 245.03 865.63 244 862.75 C239.59 862.75 235.92 864.42 231.81 865.94 Z M-224 949.75 C-225.11 950.63 -225.11 950.63 -226.25 951.52 C-241.66 964.21 -250.94 985.48 -253.75 1005 C-253.87 1006.58 -253.94 1008.17 -254 1009.75 C-254.05 1011.01 -254.1 1012.27 -254.16 1013.56 C-255.1 1047.95 -243.54 1081.18 -220.06 1106.5 C-199.85 1127.76 -175.02 1143.42 -145.03 1144.95 C-124.47 1145.35 -105.88 1140.11 -90 1126.75 C-89.38 1126.23 -88.76 1125.71 -88.12 1125.18 C-71.15 1109.54 -62.67 1086.89 -61.62 1064.24 C-60.65 1028.05 -73.01 994.5 -97.83 968.02 C-116.72 948.33 -142.81 933.1 -170.74 932.41 C-191.01 932.19 -208.3 936.54 -224 949.75 Z M185 964.75 C184.31 965.37 183.62 965.98 182.91 966.62 C164.85 983.66 153.85 1008.01 148 1031.75 C147.77 1032.65 147.55 1033.55 147.31 1034.48 C142.23 1058.93 145.79 1087.73 159.19 1109 C170.47 1125.94 185.25 1137.47 205.12 1143 C232.69 1148.33 258.77 1142.01 282 1126.75 C311.13 1106.37 329.28 1076.26 336.94 1041.94 C341.49 1014.45 337.09 985.84 320.95 962.83 C319.05 960.39 317.07 958.06 315 955.75 C314.47 955.13 313.94 954.51 313.4 953.87 C301.28 940.56 282.24 933.28 264.59 932.43 C233.38 931.52 207.86 943.92 185 964.75 Z M566.5 983.52 C564.91 984.14 564.91 984.14 563.3 984.78 C561.51 985.47 561.51 985.47 559.68 986.17 C559.04 986.42 558.4 986.66 557.74 986.92 C534.88 995.73 511.28 1002.27 487 1005.75 C486.23 1005.87 485.45 1005.98 484.66 1006.1 C471.78 1007.94 458.85 1007.93 445.88 1007.94 C445.02 1007.94 444.17 1007.94 443.3 1007.94 C434.76 1007.94 426.32 1007.9 417.84 1006.86 C417.23 1006.83 416.63 1006.79 416 1006.75 C414.36 1008.39 414.79 1010.29 414.7 1012.55 C414.66 1013.57 414.62 1014.59 414.58 1015.64 C414.54 1016.75 414.5 1017.86 414.46 1019 C414.42 1020.13 414.38 1021.27 414.33 1022.43 C414.2 1026.06 414.07 1029.68 413.94 1033.31 C413.85 1035.76 413.75 1038.22 413.66 1040.67 C413.44 1046.7 413.22 1052.72 413 1058.75 C420.07 1058.84 426.71 1058.26 433.69 1057.12 C435.32 1056.86 435.32 1056.86 436.99 1056.59 C447.9 1054.73 458.44 1052.02 469 1048.75 C469.82 1048.5 470.64 1048.25 471.49 1047.99 C494.5 1040.84 515.54 1029.9 535 1015.75 C535.67 1015.27 536.33 1014.78 537.02 1014.29 C549.32 1005.23 560.26 994.58 571 983.75 C568.97 982.45 568.97 982.45 566.5 983.52 Z M345 989.75 C345.14 990.68 345.29 991.6 345.44 992.55 C348.47 1013.73 347.41 1034.69 344 1055.75 C352.57 1057.34 361.06 1058.28 369.75 1058.88 C371.5 1059 371.5 1059 373.29 1059.14 C385.01 1060.61 385.01 1060.61 396 1057.75 C402.27 1051.78 404.08 1044.35 404.4 1035.84 C404.41 1033.79 404.4 1031.74 404.38 1029.69 C404.39 1028.66 404.4 1027.64 404.41 1026.58 C404.38 1018.74 403.79 1012.05 398.59 1005.9 C393.91 1002.54 388.07 1001.65 382.56 1000.38 C380.15 999.79 377.74 999.19 375.33 998.6 C373.5 998.15 373.5 998.15 371.64 997.69 C365.98 996.23 360.4 994.54 354.81 992.81 C353.82 992.51 352.83 992.2 351.81 991.88 C349.54 991.18 347.27 990.47 345 989.75 Z " fill="#000000" transform="translate(520,89.25)"/>
<path d="M0 0 C1.02 0.01 1.02 0.01 2.06 0.01 C22.73 0.18 43.93 3.85 59.79 18.35 C64.1 22.94 66.58 27.07 66.65 33.57 C66.18 40.77 63.5 45.84 58.31 50.75 C47.97 59.28 35.72 64.94 23.62 70.46 C20.6 71.84 17.61 73.25 14.62 74.69 C13.68 75.14 12.73 75.59 11.75 76.05 C9.31 77.26 9.31 77.26 8.62 80.38 C10.62 85.03 13.95 87.35 18.12 89.94 C18.75 90.33 19.37 90.72 20.01 91.12 C33.32 99.26 46.72 101 61.84 97.54 C80.57 91.78 93.01 78.49 104.62 63.38 C107.6 63.87 107.6 63.87 110.62 64.38 C110.95 73.95 105.56 79.51 99.62 86.38 C99.04 87.07 98.46 87.76 97.86 88.48 C86.34 101.17 66.75 109.39 49.89 110.66 C35.23 111.02 21.37 107.42 10.12 97.5 C7.37 95.16 6.24 94.29 2.62 94.38 C-1.92 96 -5.81 98.64 -9.75 101.38 C-22.52 110.06 -37.89 112.35 -52.96 109.76 C-65.76 106.45 -78.56 100.31 -88.38 91.38 C-89.13 90.7 -89.89 90.02 -90.67 89.32 C-96.97 83.38 -104.65 75.44 -105.38 66.38 C-104.71 65.38 -104.06 64.39 -103.38 63.38 C-100.45 63.47 -98.2 63.63 -95.96 65.66 C-94.54 67.39 -93.23 69.17 -91.94 71 C-90.97 72.29 -90 73.58 -89.03 74.86 C-88.57 75.47 -88.11 76.09 -87.63 76.72 C-78.25 89.06 -62.59 97.03 -47.38 99.38 C-30.93 100.42 -18.39 95.87 -5.84 85.18 C-4.04 82.96 -3.73 81.17 -3.38 78.38 C-10.2 74.86 -17.04 71.48 -24.09 68.43 C-57.08 54.14 -57.08 54.14 -62.82 40.34 C-64.51 34.34 -63.59 29.89 -60.74 24.43 C-57.12 18.98 -53.31 15.21 -47.75 11.75 C-47.13 11.36 -46.52 10.97 -45.88 10.58 C-31.92 2.05 -16.14 -0.17 0 0 Z M-49.19 25.94 C-51.86 29.32 -53.77 31.91 -53.38 36.38 C-46.61 50.82 -24.98 57.95 -11.25 63.5 C-10.28 63.9 -9.31 64.31 -8.31 64.72 C-7.38 65.08 -6.45 65.45 -5.49 65.82 C-4.67 66.15 -3.85 66.47 -3.01 66.81 C2.94 68.09 8.1 65.99 13.52 63.64 C14.15 63.37 14.78 63.1 15.44 62.82 C16.77 62.24 18.09 61.66 19.42 61.07 C21.42 60.2 23.42 59.33 25.42 58.47 C34.82 54.4 44.08 50.14 51.69 43.12 C52.42 42.46 53.15 41.79 53.91 41.11 C56.13 38.86 56.58 37.78 56.94 34.62 C56.39 28.92 53.13 25.57 49 21.88 C35.8 12 16.89 9.98 1 10 C0.34 10 -0.33 10 -1.01 10 C-18.18 10.08 -36.75 12.82 -49.19 25.94 Z " fill="#000000" transform="translate(560.375,460.625)"/>
<path d="M0 0 C0.95 0.51 1.9 1.01 2.88 1.54 C9.38 5.19 14.64 9.85 20 15 C20.83 15.76 21.65 16.52 22.5 17.31 C37.66 31.73 47.39 49.97 53 70 C53.19 70.66 53.37 71.31 53.56 71.98 C58.73 92.24 55.81 115.57 45.89 133.86 C37.07 148.49 23.47 159.64 6.88 164.25 C-15.07 168.5 -38.14 164.88 -57.2 152.91 C-62.28 149.45 -67.19 145.83 -72 142 C-72.76 141.42 -73.52 140.84 -74.3 140.25 C-91.19 126.47 -102.09 105.63 -108 85 C-108.23 84.22 -108.47 83.44 -108.71 82.64 C-114.38 62.23 -111.2 38.16 -101.24 19.74 C-98.2 14.46 -94.39 10.19 -90 6 C-89.29 5.28 -88.58 4.57 -87.85 3.83 C-63.33 -19.72 -27.23 -15.09 0 0 Z M-67 2 C-67.94 2.4 -68.88 2.8 -69.84 3.21 C-83.69 9.93 -91.7 21.46 -97.25 35.38 C-104.77 57.4 -100.94 80.76 -90.96 101.23 C-86.79 109.55 -82.35 117.13 -76 124 C-75.13 124.96 -74.26 125.93 -73.36 126.92 C-59.73 141.51 -42.72 151.39 -23 155 C-21.21 155.34 -21.21 155.34 -19.38 155.69 C-3.26 157.18 11.05 154.09 24.12 144.38 C35.96 134.47 43.78 119.31 45.3 103.93 C45.44 100.72 45.47 97.53 45.44 94.31 C45.43 93.17 45.42 92.03 45.42 90.86 C45.24 81.68 44.05 73.67 41 65 C40.64 63.96 40.28 62.93 39.9 61.86 C29.95 36.08 11.08 15.69 -13.62 3.56 C-30.16 -3.5 -50.23 -5.35 -67 2 Z " fill="#000000" transform="translate(710,310)"/>
<path d="M0 0 C1.38 0.01 1.38 0.01 2.78 0.02 C21.58 0.35 36.3 8.53 49.25 21.88 C65.61 40.73 67.18 64.34 65.62 88.31 C64.81 94.61 62.98 100.43 60.62 106.31 C60.32 107.08 60.01 107.86 59.7 108.65 C54.71 120.86 48.08 131.24 39.62 141.31 C39.15 141.88 38.67 142.45 38.18 143.04 C25.7 157.66 9.2 169.6 -9.38 175.31 C-11.05 175.84 -11.05 175.84 -12.75 176.39 C-18.97 177.9 -25.33 177.64 -31.69 177.62 C-32.94 177.64 -34.2 177.66 -35.49 177.67 C-53.1 177.68 -68.3 171.56 -80.75 159.14 C-84.47 155.13 -87.58 151.01 -90.38 146.31 C-90.83 145.55 -91.29 144.78 -91.77 143.99 C-97.38 133.75 -99.96 121.92 -100.38 110.31 C-100.43 109.14 -100.43 109.14 -100.5 107.94 C-101.32 78.43 -87.68 51.09 -67.93 29.95 C-50.17 11.41 -25.88 -0.17 0 0 Z M-66 42.32 C-79.42 59.27 -89.52 79.32 -90.38 101.31 C-90.41 102.08 -90.45 102.86 -90.5 103.65 C-91.02 122.83 -85.17 139.93 -71.97 153.92 C-61.66 163.42 -48.88 168.22 -34.94 168.75 C-12.17 167.69 6.53 159.23 23.62 144.31 C24.24 143.78 24.85 143.25 25.49 142.71 C40.73 128.56 54.43 104.63 55.8 83.6 C56.31 64.09 56.31 64.09 51.62 45.31 C51.22 44.27 50.82 43.24 50.41 42.17 C44.7 29.27 34.73 19.53 21.73 14.11 C-10.1 2.05 -44.81 17.78 -66 42.32 Z " fill="#000000" transform="translate(457.375,297.6875)"/>
<path d="M0 0 C3.37 2.85 5.55 6.2 7.83 9.95 C8.22 10.57 8.62 11.2 9.02 11.85 C10.43 14.12 11.82 16.37 13.02 18.76 C13.15 18.13 13.29 17.5 13.43 16.85 C15.36 9.15 18.42 3.6 25.31 -0.66 C31.58 -3.58 37.32 -3.89 44.02 -2.24 C47.39 -0.49 47.39 -0.49 50.02 1.76 C50.94 2.48 51.87 3.2 52.83 3.95 C55.82 7.8 56.15 10.96 56.02 15.76 C55.08 21.82 52.45 25.69 48.02 29.76 C41.8 34.2 35.55 35.67 28.02 34.76 C23.6 33.22 20.21 31.17 17.02 27.76 C17.18 29.06 17.35 30.36 17.52 31.7 C19.65 54.74 15.61 75.12 1.33 93.82 C0.23 95.14 -0.87 96.45 -1.98 97.76 C-2.71 98.75 -3.43 99.74 -4.17 100.76 C-14.3 112.63 -31.72 121.69 -47.16 122.93 C-62.47 123.82 -73.73 121.4 -85.98 111.76 C-87.04 110.99 -88.09 110.23 -89.17 109.45 C-99.54 99.54 -105.62 85.39 -106.32 71.1 C-106.76 48.04 -100.22 30.83 -85.98 12.76 C-85.51 12.11 -85.03 11.47 -84.54 10.81 C-63.83 -15.59 -25.98 -19.52 0 0 Z M-80.54 20.98 C-84.47 25.82 -87.31 31.15 -89.98 36.76 C-90.41 37.65 -90.84 38.54 -91.29 39.45 C-97.57 54.41 -97.73 73.46 -91.95 88.43 C-86.31 100.7 -78.15 106.72 -65.98 111.76 C-54.15 115.79 -39.83 112.24 -28.9 107.39 C-12.45 98.72 -0.86 83.15 5.02 65.76 C9.61 49.96 9.84 33.98 2.39 19.07 C-3.03 9.81 -10.06 3.74 -19.98 -0.24 C-21.06 -0.68 -22.13 -1.11 -23.23 -1.55 C-45.61 -5.66 -65.93 4.36 -80.54 20.98 Z M24.95 13.2 C23.83 16.27 23.89 17.7 25.02 20.76 C26.69 22.91 27.59 23.67 30.29 24.23 C34.77 24.28 38.01 24.31 41.58 21.38 C44.47 18.27 44.93 17.54 45.39 13.32 C45.41 9.67 45.41 9.67 42.83 7.82 C35.97 5.23 29.63 7.67 24.95 13.2 Z M15.02 24.76 C16.02 26.76 16.02 26.76 16.02 26.76 Z " fill="#000000" transform="translate(798.984375,1091.2421875)"/>
<path d="M0 0 C3.63 2.75 6.81 5.76 10 9 C11.17 10.06 11.17 10.06 12.36 11.15 C25.95 23.79 34.6 44.82 35.45 63.29 C35.8 80.06 31.3 97.24 19.75 109.81 C7.52 120.96 -6.09 124.99 -22.35 124.38 C-40.97 123.17 -57.26 112.82 -69.5 99.22 C-81.74 83.73 -89.25 66.51 -89.12 46.62 C-89.12 45.88 -89.12 45.14 -89.12 44.37 C-89.08 39.18 -88.75 34.14 -88 29 C-88.4 29.42 -88.8 29.84 -89.21 30.28 C-93.15 34.07 -96.1 35.85 -101.6 36.11 C-108.53 35.8 -114.68 34.71 -120 30 C-124.07 25.23 -126.92 20.57 -127.23 14.2 C-126.68 9.02 -124.26 5.29 -120.69 1.62 C-113.99 -2.42 -107.5 -2.65 -100 -1 C-94.18 1.41 -89.32 5.65 -86 11 C-85.02 13.69 -84.5 16.16 -84 19 C-83.65 18.22 -83.65 18.22 -83.29 17.42 C-76.78 4.28 -64.82 -5.07 -51.12 -9.94 C-33.81 -14.38 -14.73 -9.48 0 0 Z M-65 10 C-65.64 10.52 -66.28 11.05 -66.94 11.59 C-72.4 16.41 -74.7 22.19 -77 29 C-77.25 29.72 -77.5 30.44 -77.75 31.18 C-82.35 47.61 -78.42 65.96 -70.42 80.62 C-66.52 87.26 -61.49 92.64 -56 98 C-55.34 98.68 -54.69 99.35 -54.01 100.05 C-44.3 109.43 -31 114.42 -17.62 114.31 C-16.51 114.3 -16.51 114.3 -15.38 114.3 C-4.24 114.05 3.05 110.68 11.06 103.03 C21.46 92.16 25.41 79.89 25.3 65.15 C24.76 45.93 15.14 27.53 1.38 14.31 C-11.05 3.68 -24.65 -1.96 -41.13 -1.34 C-50.92 -0.47 -57.77 3.57 -65 10 Z M-116 11 C-116.56 14.79 -116.32 17.21 -114.88 20.75 C-112.42 23.7 -110.65 24.78 -107 26 C-103.09 26.11 -99.42 26.12 -96.26 23.62 C-94.76 21.95 -94.76 21.95 -94.5 19.12 C-95.17 14.91 -96.71 13.65 -100 11 C-105.76 7.52 -110.6 6.22 -116 11 Z M-86 22 C-85 24 -85 24 -85 24 Z M-87 26 C-86 28 -86 28 -86 28 Z " fill="#000000" transform="translate(400,1090)"/>
<path d="M0 0 C6.12 4.68 10.65 10.54 12.8 18 C13.86 26.9 12.6 34.3 7.61 41.93 C2.46 48.27 -3.71 52.44 -11.88 53.56 C-20.99 54.01 -27.92 51.54 -34.88 45.62 C-40.72 39.58 -43.91 32.53 -44.26 24.12 C-43.78 13.88 -39.35 7.49 -31.88 0.62 C-23.63 -6.33 -8.83 -5.25 0 0 Z " fill="#000000" transform="translate(455.8828125,358.37890625)"/>
<path d="M0 0 C6.35 5.66 10.39 11.35 11.31 19.85 C11.69 28.92 9.46 35.17 3.88 42.25 C-0.95 47.42 -7.08 50.71 -14.06 51.94 C-23.19 52.08 -30.32 49.47 -36.95 43.14 C-42.95 36.64 -45.99 29.89 -46 21 C-45.23 12.76 -41.71 6.24 -35.62 0.69 C-24.76 -8.01 -11.32 -7.78 0 0 Z " fill="#000000" transform="translate(701,360)"/>
<path d="M0 0 C0.85 0.8 1.69 1.61 2.56 2.44 C3.08 2.9 3.6 3.36 4.14 3.84 C9.1 8.76 10.76 14.6 11.56 21.44 C11.32 27.31 8.45 32.17 4.56 36.44 C-0.53 39.83 -6.49 38.97 -12.44 38.44 C-15.88 36.94 -15.88 36.94 -18.44 34.44 C-19.04 33.85 -19.65 33.27 -20.27 32.67 C-25.72 27.03 -26.98 22.7 -27.81 14.94 C-27.22 9.38 -24.96 5.24 -21.38 1 C-15.86 -3.44 -6.11 -2.78 0 0 Z M-15.19 9.56 C-17.03 12.33 -17.37 14.1 -17.44 17.44 C-15.92 21.73 -13.91 25.45 -10.44 28.44 C-7.58 29.61 -7.58 29.61 -4.44 29.44 C-1.4 27.56 -1.4 27.56 0.56 24.44 C1.27 20.14 0.88 18.05 -1.12 14.19 C-4.11 10.64 -6.43 8.72 -11.06 8.06 C-13.44 8.27 -13.44 8.27 -15.19 9.56 Z " fill="#000000" transform="translate(324.4375,1049.5625)"/>
<path d="M0 0 C5.12 3.61 8.85 7.91 10.75 13.94 C11.55 21.82 11.85 28.63 6.75 34.94 C1.77 39.78 -1.7 41.37 -8.58 41.28 C-13.76 40.62 -17.42 38.02 -20.82 34.15 C-25.86 27.38 -25.94 21.13 -25.25 12.94 C-23.58 6.94 -20.21 3.5 -15.25 -0.06 C-10.67 -2.35 -4.71 -1.54 0 0 Z M-13.06 10.81 C-16.12 15.18 -16.03 18.75 -15.25 23.94 C-13.99 26.97 -13.02 28.35 -10.44 30.31 C-7.34 31.2 -5.32 30.85 -2.25 29.94 C0.02 28.12 0.63 26.74 1.07 23.88 C1.35 18.39 0.35 15.28 -3.25 10.94 C-5.06 8.75 -5.06 8.75 -7.56 8.5 C-10.43 8.78 -10.43 8.78 -13.06 10.81 Z " fill="#000000" transform="translate(366.25,1037.0625)"/>
<path d="M0 0 C5.19 3.54 8.49 7.7 9.75 13.88 C10.42 21.21 10.54 27.92 5.75 33.88 C0.22 38.96 -4.42 41.26 -11.97 41.15 C-16.9 40.55 -19.94 37.38 -23.06 33.81 C-27.5 27.85 -26.81 21.04 -26.25 13.88 C-24.44 7.2 -20.23 3.19 -14.34 -0.24 C-9.66 -2.23 -4.7 -1.63 0 0 Z M-12.94 11.25 C-16.4 15.18 -16.54 17.53 -16.46 22.61 C-16.17 25.75 -15.36 27.54 -13.25 29.88 C-9.89 31.33 -8.51 30.97 -5.06 29.69 C-2.09 27.77 -1.48 27.05 -0.25 23.88 C0.06 21.65 0.06 21.65 0 19.38 C0.01 18.62 0.01 17.87 0.02 17.09 C-0.28 14.61 -0.95 13 -2.25 10.88 C-6.26 8.2 -9.2 7.94 -12.94 11.25 Z " fill="#000000" transform="translate(777.25,1037.125)"/>
<path d="M0 0 C7.77 6.86 7.77 6.86 8.75 13.06 C9.13 20.26 6.82 26.74 2.31 32.31 C1.01 33.33 1.01 33.33 -0.31 34.38 C-1.14 35.14 -1.96 35.9 -2.81 36.69 C-8.22 39.3 -13.42 39.1 -19.31 38.38 C-24.58 36.06 -27.18 32.57 -29.31 27.38 C-31.4 20 -29.03 13.63 -25.56 7.06 C-19.06 -0.7 -9.63 -4.72 0 0 Z M-17.31 12.38 C-19.65 15.35 -19.8 18.65 -19.69 22.4 C-19.39 24.71 -19.39 24.71 -17.19 27.44 C-14.48 29.6 -14.48 29.6 -11.38 29.62 C-7.04 27.86 -4.48 25.55 -2.31 21.38 C-1.45 16.37 -1.47 12.64 -4.31 8.38 C-9.95 7.62 -12.99 8.75 -17.31 12.38 Z " fill="#000000" transform="translate(822.3125,1049.625)"/>
</svg>
