<?xml version="1.0" encoding="UTF-8"?>
<!-- Generator: visioncortex VTracer 0.6.3 -->
<svg version="1.1" xmlns="http://www.w3.org/2000/svg" width="1280" height="1189">
<path d="M0 0 C17.91 12.04 26.92 33.07 31.23 53.57 C34.22 69.07 34.87 84.52 35.07 100.27 C35.55 99.93 36.02 99.58 36.51 99.23 C37.13 98.77 37.76 98.32 38.4 97.86 C39.02 97.41 39.64 96.96 40.27 96.5 C45.92 92.66 52.47 92.41 59.07 93.27 C66.94 95.8 72.37 100.22 76.25 107.48 C78.34 111.96 79.85 116.49 81.07 121.27 C82.31 120.93 82.31 120.93 83.57 120.58 C92.38 118.31 100.1 116.78 108.39 121.34 C114 125.28 117.43 131.11 118.79 137.83 C121.24 159.07 115.01 179.38 101.86 196.09 C101.27 196.81 100.68 197.53 100.07 198.27 C100.61 199.34 101.14 200.41 101.69 201.52 C124.87 248.75 136.63 300.22 149.25 350.99 C153.15 366.68 157.04 382.37 161.32 397.96 C161.66 399.18 161.99 400.4 162.34 401.65 C162.94 403.83 163.57 406 164.22 408.17 C165.07 411.27 165.07 411.27 165.63 414.69 C166.8 420.77 166.8 420.77 170.56 425.5 C174.46 427.95 178.65 429.7 182.91 431.4 C185.57 432.48 188.17 433.67 190.77 434.88 C194.08 436.41 197.42 437.87 200.76 439.34 C202.29 440.01 203.82 440.69 205.35 441.36 C210.59 443.68 215.83 445.98 221.07 448.27 C222.07 448.71 223.07 449.15 224.09 449.59 C252.44 462 280.87 474.19 309.43 486.08 C318.73 489.96 328 493.89 337.26 497.84 C338.08 498.18 338.9 498.53 339.74 498.89 C343.03 500.29 346.32 501.69 349.61 503.09 C355.54 505.62 361.48 508.14 367.41 510.66 C406.38 527.18 445.23 543.94 483.58 561.85 C493.37 566.43 503.21 570.87 513.07 575.27 C512.93 574.51 512.79 573.75 512.65 572.96 C501.51 512.09 503.52 451.2 530.07 394.27 C530.67 393 530.67 393 531.27 391.69 C549.48 352.91 578.42 318.58 612.36 292.6 C613.98 291.34 615.58 290.06 617.18 288.78 C659.09 255.49 710.88 235.02 762.45 222.34 C763.2 222.15 763.95 221.96 764.73 221.77 C779.08 218.43 793.42 217.9 808.07 217.96 C808.97 217.96 809.87 217.96 810.8 217.97 C825.08 218.02 839 218.7 853.07 221.27 C854.03 221.44 854.98 221.61 855.97 221.78 C919.51 233.06 979.28 265.42 1026.54 308.96 C1028.6 310.84 1030.69 312.66 1032.82 314.46 C1042.23 322.64 1051.06 331.74 1059.07 341.27 C1059.93 342.24 1060.78 343.2 1061.66 344.2 C1101.41 389.26 1129.99 445.71 1139.07 505.27 C1139.34 506.96 1139.34 506.96 1139.61 508.68 C1141.02 518.19 1141.48 527.49 1141.45 537.09 C1141.45 538.22 1141.45 538.22 1141.45 539.38 C1141.23 597.8 1115.29 656.22 1079.42 701.57 C1078.1 703.24 1076.81 704.93 1075.54 706.64 C1061.75 724.96 1046.14 744.15 1027.95 758.21 C1027.37 758.66 1026.78 759.12 1026.18 759.58 C1024.15 761.15 1022.11 762.71 1020.07 764.27 C1018.41 765.55 1016.75 766.84 1015.09 768.12 C1004.98 775.9 994.75 783.47 984.27 790.74 C981.92 792.38 979.58 794.04 977.24 795.7 C954.38 811.92 930.47 827.27 905.11 839.3 C902.81 840.4 900.52 841.52 898.23 842.65 C896.55 843.46 894.88 844.27 893.2 845.09 C892.44 845.46 891.68 845.83 890.89 846.22 C879.82 851.51 867.69 855.01 855.51 851.15 C851 848.69 848.4 845.93 846.07 841.27 C845.42 834.55 846.35 829.41 849.07 823.27 C848.47 823.42 847.88 823.56 847.26 823.71 C839.97 825.2 832.81 825.55 825.39 825.65 C824.41 825.67 823.44 825.7 822.44 825.73 C815.9 825.74 810.71 824.7 805.07 821.27 C802.14 818.17 802.07 816.75 802.14 812.46 C802.66 809.33 803.67 806.82 805.13 804.01 C805.5 803.31 805.86 802.6 806.23 801.88 C806.51 801.35 806.79 800.82 807.07 800.27 C805.93 800.32 804.78 800.37 803.59 800.41 C791.81 800.74 780.32 800.58 771.07 792.27 C768.24 788.08 767.71 784.54 767.58 779.62 C769.01 772.83 774.25 769.32 779.57 765.59 C799.23 751.3 815.49 735.58 819.67 710.75 C821.08 698.7 820.53 687.94 813.9 677.57 C808.5 670.78 800.14 666.97 791.62 665.99 C766.36 665.09 736.68 677.83 716.81 693 C715.07 694.27 715.07 694.27 713.07 694.27 C712.98 695.21 712.88 696.14 712.79 697.1 C705.97 744.18 673.55 793.34 645.07 830.27 C644.64 830.84 644.21 831.4 643.76 831.98 C638.52 838.81 633.18 845.47 627.34 851.8 C625.45 853.87 623.6 855.96 621.76 858.07 C612.12 869.12 602.03 879.53 591.07 889.27 C590.18 890.1 589.3 890.93 588.38 891.78 C581.8 897.9 574.91 903.48 567.79 908.95 C566.2 910.17 564.63 911.42 563.07 912.66 C556.04 918.21 548.77 923.34 541.39 928.4 C540.41 929.07 539.42 929.75 538.41 930.45 C537.49 931.07 536.57 931.7 535.62 932.34 C534.8 932.91 533.97 933.47 533.11 934.06 C531.07 935.27 531.07 935.27 529.07 935.27 C528.94 937.09 528.94 937.09 528.8 938.93 C526.2 962.1 516.19 991.91 498.84 1008.31 C495.06 1012.43 493.38 1015.03 493.18 1020.65 C493.3 1023.03 493.47 1025.4 493.68 1027.76 C493.8 1029.77 493.92 1031.77 494.03 1033.77 C494.16 1035.91 494.32 1038.04 494.49 1040.17 C494.84 1044.64 495.11 1049.11 495.37 1053.58 C495.46 1055.13 495.55 1056.67 495.64 1058.21 C495.71 1059.36 495.71 1059.36 495.78 1060.55 C495.92 1062.92 496.07 1065.3 496.22 1067.67 C497.29 1084.67 497.77 1101.68 498.2 1118.71 C498.28 1121.77 498.37 1124.83 498.45 1127.9 C499.13 1152.25 499.13 1152.25 499.07 1160.27 C499.67 1160.3 500.26 1160.33 500.87 1160.35 C506.11 1160.73 509.31 1161.29 513.07 1165.27 C514.77 1167.67 515.1 1168.78 514.95 1171.71 C513.85 1174.94 512.49 1176.86 510.07 1179.27 C505.37 1180.74 500.4 1180.38 495.52 1180.34 C494.59 1180.33 493.66 1180.33 492.7 1180.32 C488.74 1180.31 484.77 1180.28 480.81 1180.25 C477.9 1180.23 474.99 1180.22 472.09 1180.21 C471.14 1180.21 470.2 1180.2 469.22 1180.19 C464.88 1180.19 460.59 1180.27 456.26 1180.64 C455.53 1180.7 454.8 1180.76 454.05 1180.83 C452.12 1181.01 450.19 1181.23 448.26 1181.45 C444.28 1181.23 442.84 1180.07 440.07 1177.27 C438.86 1174.27 438.69 1171.49 439.07 1168.27 C442.73 1163.07 447.02 1161.83 453.05 1160.73 C458.19 1160.02 463.34 1160.17 468.51 1160.21 C469.53 1160.22 470.55 1160.22 471.6 1160.22 C474.09 1160.24 476.58 1160.25 479.07 1160.27 C478.81 1149.86 478.54 1139.44 478.26 1129.02 C478.24 1128.24 478.22 1127.45 478.2 1126.64 C477.44 1098.54 476.35 1070.46 475.04 1042.38 C474.99 1041.34 474.99 1041.34 474.94 1040.27 C474.79 1037.02 474.64 1033.76 474.48 1030.51 C474.4 1028.81 474.4 1028.81 474.32 1027.07 C474.27 1026.09 474.22 1025.11 474.17 1024.1 C474.07 1021.15 474.06 1018.22 474.07 1015.27 C473.27 1015.07 472.47 1014.86 471.64 1014.65 C460.99 1010.54 452.65 1002.53 445.7 993.71 C445.23 993.12 444.76 992.52 444.28 991.91 C441.85 988.78 439.63 985.62 437.61 982.22 C435.35 978.51 433.21 975.31 430.07 972.27 C425.45 971.22 421.64 972.25 417.07 973.27 C414.47 973.5 411.87 973.69 409.26 973.84 C408.08 973.92 406.9 974 405.68 974.09 C404.82 974.15 403.96 974.21 403.07 974.27 C402.91 974.81 402.74 975.36 402.57 975.91 C396.53 994.75 386.71 1014.96 369.07 1025.27 C369.1 1025.95 369.12 1026.62 369.14 1027.32 C369.93 1051.58 370.69 1075.84 371.43 1100.1 C371.57 1104.59 371.71 1109.08 371.85 1113.58 C372.02 1119.09 372.19 1124.59 372.36 1130.1 C372.42 1132.18 372.48 1134.26 372.55 1136.33 C372.64 1139.21 372.73 1142.09 372.81 1144.97 C372.84 1145.82 372.87 1146.66 372.89 1147.53 C373.03 1152.11 373.1 1156.69 373.07 1161.27 C373.75 1161.29 374.43 1161.31 375.13 1161.33 C378.26 1161.43 381.39 1161.54 384.51 1161.65 C385.58 1161.68 386.65 1161.71 387.75 1161.74 C403.8 1162.33 403.8 1162.33 408.64 1166.46 C410.51 1170.12 410.72 1172.21 410.07 1176.27 C407.86 1180.61 407.86 1180.61 405.07 1182.27 C401.04 1182.96 397.14 1182.55 393.07 1182.27 C383.11 1181.62 373.16 1181.19 363.18 1181.03 C362.16 1181.01 361.14 1180.99 360.09 1180.98 C355.88 1180.91 351.68 1180.85 347.47 1180.8 C344.35 1180.76 341.23 1180.71 338.11 1180.65 C337.16 1180.64 336.21 1180.64 335.23 1180.63 C334.35 1180.61 333.47 1180.59 332.56 1180.58 C331.79 1180.57 331.01 1180.56 330.22 1180.55 C327.76 1180.23 326.17 1179.59 324.07 1178.27 C321.73 1174.8 321.07 1172.8 321.14 1168.59 C322.21 1164.81 322.84 1164.26 326.07 1162.27 C334.63 1159.37 344.32 1159.43 353.07 1161.27 C352.72 1149.3 352.37 1137.33 352 1125.35 C351.84 1119.79 351.67 1114.22 351.51 1108.66 C351.16 1096.92 350.79 1085.18 350.37 1073.44 C350.17 1067.44 350.01 1061.46 349.9 1055.46 C349.83 1051.83 349.72 1048.2 349.6 1044.57 C349.56 1042.9 349.53 1041.23 349.52 1039.55 C349.69 1030.6 349.69 1030.6 346.06 1022.77 C343.81 1021.01 341.58 1019.64 339.07 1018.27 C327.42 1006.64 319.94 988.8 315.07 973.27 C315.07 972.28 315.07 971.29 315.07 970.27 C314.34 970.2 313.61 970.12 312.86 970.05 C263.23 964.02 215.08 939.77 176.07 909.27 C175.18 908.58 174.28 907.88 173.35 907.16 C162.36 898.52 151.97 889.25 141.83 879.63 C137.35 875.41 132.73 871.48 127.92 867.64 C122.96 863.51 118.32 859.04 113.63 854.61 C110.83 851.97 107.97 849.39 105.07 846.84 C96.18 838.88 87.5 830.4 79.8 821.28 C77.96 819.14 76.06 817.08 74.14 815.01 C68.52 808.96 63.23 802.72 58.07 796.27 C57.15 795.14 56.23 794.01 55.3 792.88 C-8.79 714.17 -45.55 619.67 -55.93 519.27 C-59.92 519.1 -59.92 519.1 -63.66 520.25 C-81.09 524.81 -97.91 519 -112.93 510.27 C-125.9 501.96 -132.04 486.64 -135.24 472.21 C-138.88 453.98 -138.27 434.34 -133.93 416.27 C-133.76 415.59 -133.6 414.91 -133.44 414.21 C-129.13 396.66 -121.66 379.48 -111.93 364.27 C-111.52 363.64 -111.12 363.01 -110.7 362.36 C-102.37 349.51 -92.85 338 -81.93 327.27 C-82.78 327.01 -83.64 326.74 -84.52 326.47 C-131.71 311.7 -131.71 311.7 -138.93 302.27 C-139.68 299.46 -139.68 299.46 -138.93 296.27 C-135.18 291.13 -129.66 288.48 -123.95 286.04 C-123.26 285.74 -122.57 285.44 -121.86 285.13 C-113.48 281.57 -104.91 278.53 -96.32 275.5 C-93.53 274.52 -90.74 273.52 -87.95 272.53 C-86.14 271.88 -84.34 271.24 -82.53 270.6 C-81.71 270.31 -80.89 270.02 -80.05 269.72 C-74.39 267.73 -68.69 265.95 -62.93 264.27 C-62.85 263.47 -62.78 262.66 -62.7 261.84 C-61.78 253.58 -60.21 245.59 -58.24 237.52 C-57.99 236.5 -57.74 235.47 -57.49 234.41 C-55.97 228.46 -54.04 223.06 -51.49 217.48 C-49.05 212.06 -49.05 212.06 -47.93 206.27 C-49.91 201.5 -52.82 198.49 -56.44 194.88 C-58.92 192.2 -60.72 189.17 -62.55 186.02 C-62.92 185.4 -63.29 184.77 -63.66 184.13 C-87.73 142.27 -94.17 92.13 -82.49 45.35 C-78.71 31.49 -70.99 19.37 -60.93 9.27 C-60.15 8.48 -59.38 7.68 -58.59 6.86 C-42.25 -8.99 -19.43 -11.47 0 0 Z M-50.02 25.68 C-68.88 50.39 -72.13 82.46 -68.24 112.57 C-67.4 117.87 -66.25 123.07 -64.93 128.27 C-64.72 129.1 -64.52 129.92 -64.31 130.77 C-60 147.7 -52.26 178.05 -36.93 188.27 C-36.36 187.56 -35.79 186.85 -35.2 186.11 C-20.44 167.81 -3.52 157.29 20.07 154.27 C40.07 152.57 60.49 158.74 75.88 171.62 C79.38 174.74 82.78 177.94 86.07 181.27 C90.43 179.77 91.58 177.09 93.57 173.09 C98.35 163.27 102.81 152.22 100.07 141.27 C98 138.68 97.36 138.32 93.95 137.77 C84.52 138.99 79.15 144.91 73.24 151.85 C70.46 154.96 68.87 156.17 64.7 156.71 C61.07 156.27 61.07 156.27 58.07 154.34 C55.67 150.65 55.69 149.15 56.41 144.94 C57.19 141.8 58.15 138.73 59.14 135.65 C61.48 128.28 61.7 123.19 59.02 115.97 C58.05 113.93 58.05 113.93 55.07 112.27 C48.59 112.9 43.49 119.55 39.51 124.21 C35.9 128.97 33.71 134.25 31.56 139.78 C30.01 143.65 28.84 146.29 25.07 148.27 C20.75 148.9 18.81 148.76 15.14 146.34 C10.79 139.88 13.41 129.63 14.07 122.15 C16.72 89.69 17.99 48.23 -3.55 21.24 C-8.4 15.95 -13.68 12.82 -20.85 11.89 C-32.85 11.42 -42.21 16.72 -50.02 25.68 Z M-13.93 190.27 C-14.62 190.96 -15.32 191.65 -16.04 192.36 C-28.48 205.37 -34.59 222.48 -37.99 239.84 C-38.36 241.72 -38.36 241.72 -38.75 243.65 C-56.54 334.84 -50.97 431.95 38.41 736.83 C50.5 754.66 63.18 771.82 77.07 788.27 C77.84 789.19 77.84 789.19 78.63 790.13 C90.09 803.8 102.35 816.64 114.95 829.27 C115.44 829.77 115.93 830.26 116.44 830.77 C122.14 836.49 127.91 842.05 134.07 847.27 C135.3 848.33 136.53 849.39 137.75 850.45 C138.34 850.96 138.94 851.47 139.55 852 C145.67 857.28 151.7 862.62 157.66 868.07 C160.42 870.59 163.23 873.05 166.06 875.5 C168.36 877.52 170.62 879.59 172.89 881.65 C230.11 933.14 305.95 960.65 383.07 957.14 C398.93 956.27 414.49 954.35 430.07 951.27 C430.93 951.11 431.79 950.94 432.67 950.76 C456.24 945.99 479.54 937.92 501.07 927.27 C502.01 926.82 502.94 926.37 503.91 925.91 C526.47 914.96 547.86 901.44 567.07 885.27 C567.62 884.82 568.16 884.37 568.72 883.91 C576.03 877.85 583.07 871.51 590.01 865.02 C590.71 864.37 591.41 863.72 592.13 863.06 C596.16 859.25 599.9 855.31 603.5 851.1 C605.55 848.72 607.69 846.44 609.82 844.15 C624.08 828.47 636.49 811 647.33 792.82 C649.64 788.95 652.06 785.16 654.5 781.37 C669.34 758.31 680.93 734.26 689.64 708.27 C689.85 707.62 690.07 706.98 690.3 706.31 C692.42 699.95 694.26 693.94 695.07 687.27 C679.31 679.28 663.38 671.62 647.41 664.06 C632.15 656.83 617.03 649.31 601.94 641.73 C597.51 639.5 593.08 637.28 588.64 635.06 C576.05 628.76 563.47 622.44 550.88 616.13 C543.89 612.62 536.9 609.12 529.9 605.61 C526.23 603.77 522.56 601.93 518.89 600.09 C500.43 590.81 481.87 581.85 463.07 573.27 C461.28 572.45 459.48 571.63 457.68 570.8 C453.26 568.78 448.82 566.77 444.39 564.77 C443.57 564.41 442.76 564.04 441.92 563.66 C420.47 554.01 398.83 544.8 377.18 535.59 C373.08 533.85 368.98 532.1 364.88 530.35 C346.76 522.62 328.64 514.92 310.48 507.29 C267.37 489.19 224.44 470.68 181.81 451.49 C181 451.12 180.19 450.76 179.36 450.39 C177.78 449.67 176.21 448.95 174.63 448.23 C171.18 446.64 167.74 445.12 164.18 443.79 C158.6 441.58 154.8 440.05 152.19 434.45 C151.53 432.51 150.94 430.56 150.39 428.59 C150.04 427.48 149.69 426.38 149.33 425.24 C148.19 421.6 147.13 417.94 146.07 414.27 C145.34 411.88 144.6 409.49 143.86 407.09 C137.9 387.47 133.08 367.54 128.14 347.65 C127.96 346.95 127.79 346.25 127.61 345.53 C127.26 344.12 126.91 342.71 126.56 341.29 C119 310.88 111.24 280.63 101.89 250.71 C101.6 249.79 101.32 248.88 101.03 247.93 C92.42 220.12 78.59 193.44 52.16 178.78 C28.58 167.3 4.45 171.64 -13.93 190.27 Z M698.07 264.27 C697.27 264.66 696.46 265.04 695.63 265.43 C663.13 280.91 628.84 301.25 602.48 326.02 C600.4 327.97 598.27 329.82 596.07 331.65 C552.58 369.64 530.25 431.07 526.07 487.27 C525.73 494.25 525.73 501.23 525.76 508.21 C525.76 509.15 525.77 510.09 525.77 511.06 C525.85 532.22 527.93 552.51 532.07 573.27 C532.32 574.53 532.57 575.78 532.83 577.08 C533.07 578.23 533.32 579.39 533.57 580.59 C533.79 581.61 534.01 582.64 534.23 583.7 C535.31 586.98 536.82 588.51 539.75 590.29 C540.67 590.74 540.67 590.74 541.61 591.2 C542.31 591.55 543 591.9 543.72 592.26 C544.47 592.62 545.22 592.99 546 593.36 C546.77 593.75 547.55 594.13 548.35 594.53 C550.84 595.76 553.33 596.99 555.82 598.21 C558.3 599.43 560.78 600.65 563.25 601.88 C564.79 602.64 566.33 603.4 567.87 604.15 C571.31 605.85 574.67 607.59 577.98 609.54 C580.77 611.44 580.77 611.44 583.07 611.27 C583.26 610.35 583.26 610.35 583.45 609.4 C599.22 531.74 622.08 450.24 677.02 390.51 C678.96 388.4 680.83 386.26 682.7 384.09 C688.35 377.62 694.48 371.77 701.07 366.27 C702 365.49 702.92 364.7 703.88 363.89 C726.02 345.6 756.83 338.09 785.07 337.27 C786.54 337.21 786.54 337.21 788.04 337.15 C851.79 335.76 917.69 366.43 963.47 409.73 C966.91 413.09 970.06 416.54 973.07 420.27 C973.9 421.28 974.73 422.28 975.59 423.32 C998.12 450.95 1011.91 483.83 1016.07 519.27 C1016.19 520.13 1016.3 521 1016.41 521.88 C1024.36 596.26 996.44 680.69 950.1 738.39 C948.77 740.03 947.42 741.65 946.07 743.27 C945.63 743.81 945.2 744.35 944.74 744.91 C932.73 759.68 919.23 773.72 904.07 785.27 C902.59 786.44 901.1 787.61 899.62 788.77 C886.65 798.96 886.65 798.96 882.59 801.47 C879.52 803.67 879.35 805.32 878.69 808.93 C876.82 816.04 871.98 822.63 867.96 828.71 C866.91 830.26 866.91 830.26 867.07 832.27 C899.77 828.94 932.02 803.67 958.07 785.27 C958.65 784.87 959.23 784.46 959.82 784.04 C965.32 780.15 970.79 776.21 976.25 772.25 C976.97 771.72 977.7 771.2 978.45 770.66 C979.96 769.56 981.47 768.47 982.97 767.37 C986.99 764.46 991.03 761.6 995.14 758.82 C1006.06 751.41 1015.73 743.58 1025.07 734.27 C1026.83 732.55 1028.59 730.83 1030.35 729.11 C1032.22 727.27 1034.08 725.43 1035.95 723.59 C1037.25 722.3 1037.25 722.3 1038.58 721 C1044.51 715.07 1049.86 708.84 1055.07 702.27 C1056 701.14 1056.93 700.01 1057.87 698.88 C1070.26 683.47 1081.05 666.86 1090.07 649.27 C1090.55 648.36 1091.02 647.44 1091.5 646.49 C1104.09 621.74 1113.02 596.09 1120.07 569.27 C1120.43 568 1120.79 566.73 1121.15 565.42 C1122.19 561.23 1122.4 557.22 1122.41 552.91 C1122.42 552.13 1122.43 551.35 1122.44 550.54 C1122.46 548.02 1122.46 545.49 1122.45 542.96 C1122.45 542.09 1122.45 541.23 1122.45 540.33 C1122.4 525 1121.22 510.31 1118.07 495.27 C1117.87 494.26 1117.66 493.25 1117.44 492.21 C1103.42 426.72 1063.16 366.09 1013.07 322.27 C1012.02 321.34 1010.98 320.4 1009.93 319.46 C990.04 301.9 968.19 287.19 945.07 274.27 C944.33 273.85 943.58 273.43 942.81 272.99 C865.45 229.45 777.84 226.06 698.07 264.27 Z M-75.88 288.34 C-76.65 288.65 -77.42 288.96 -78.22 289.28 C-80.68 290.27 -83.15 291.27 -85.61 292.27 C-87.29 292.95 -88.96 293.62 -90.63 294.3 C-94.73 295.95 -98.83 297.61 -102.93 299.27 C-99.5 301.56 -96.11 302.54 -92.2 303.66 C-91.07 303.98 -91.07 303.98 -89.92 304.32 C-87.53 305.02 -85.13 305.71 -82.74 306.4 C-81.11 306.87 -79.49 307.34 -77.87 307.82 C-73.89 308.97 -69.91 310.13 -65.93 311.27 C-65.76 308.91 -65.59 306.54 -65.43 304.18 C-65.38 303.51 -65.34 302.85 -65.29 302.17 C-64.9 296.53 -64.82 290.92 -64.93 285.27 C-68.97 285.27 -72.19 286.83 -75.88 288.34 Z M-75.5 347.46 C-100.98 373.58 -118.12 413.11 -119.3 449.52 C-118.79 465.24 -114.68 480.49 -103.93 492.27 C-103.42 492.86 -102.9 493.45 -102.38 494.05 C-94.76 501.75 -82.44 501.61 -72.24 502.45 C-67.59 502.2 -65.6 501.08 -62.46 497.69 C-57.44 490.7 -59.01 483.2 -60.09 475.2 C-60.68 470.72 -61.16 466.23 -61.66 461.74 C-61.77 460.8 -61.88 459.85 -61.99 458.88 C-63.14 448.68 -63.95 438.46 -64.61 428.21 C-64.67 427.27 -64.74 426.34 -64.8 425.37 C-66.61 397.05 -66.68 368.64 -66.93 340.27 C-69.66 340.27 -73.55 345.53 -75.5 347.46 Z M751.07 353.27 C750.38 353.46 749.69 353.64 748.97 353.82 C704.58 365.96 673.29 407.4 651.36 445.57 C649.91 448.15 648.5 450.75 647.11 453.36 C646.08 455.27 645.02 457.16 643.95 459.05 C619.92 502.26 593.89 567.95 595.07 618.27 C609.61 625.64 624.17 632.97 638.92 639.91 C640.15 640.48 641.37 641.06 642.59 641.65 C644.29 642.46 646 643.26 647.71 644.05 C648.68 644.51 649.64 644.96 650.64 645.43 C653.16 646.58 653.16 646.58 656.07 645.27 C657.02 643.14 657.02 643.14 657.62 640.48 C657.88 639.47 658.15 638.46 658.42 637.42 C658.7 636.32 658.98 635.22 659.26 634.09 C669.95 594.16 688.3 558.19 717.07 528.27 C717.7 527.58 718.33 526.89 718.97 526.18 C734.14 509.99 755.66 497.75 777.07 492.27 C778.9 491.8 778.9 491.8 780.75 491.32 C800.06 486.88 822.19 487.2 841.07 493.27 C841.76 493.49 842.44 493.7 843.14 493.92 C857.37 498.51 869.76 505.46 881.07 515.27 C881.89 515.95 882.71 516.62 883.56 517.32 C909.78 539.64 917.91 571.69 923.07 604.27 C923.37 606.14 923.37 606.14 923.67 608.04 C925 617.04 925.44 625.88 925.39 634.96 C925.38 635.66 925.38 636.35 925.38 637.07 C925.16 681.6 907.79 722.04 876.65 753.73 C866.54 763.66 855.03 772.28 842.39 778.65 C838.31 780.9 838.31 780.9 836.09 784.8 C835.83 786.67 835.63 788.54 835.49 790.42 C834.77 795.4 831.87 799.2 829.07 803.27 C828.41 804.26 827.75 805.25 827.07 806.27 C839.57 805.48 851.85 802.69 863.27 797.52 C865.5 796.53 867.68 795.71 869.98 794.91 C874.13 793.38 877.43 791.22 880.95 788.59 C881.56 788.14 882.16 787.7 882.79 787.24 C888 783.39 893.09 779.42 898.07 775.27 C898.58 774.85 899.09 774.43 899.62 774 C912.09 763.71 923.98 752.66 933.99 739.91 C935.4 738.13 936.85 736.38 938.35 734.67 C962.28 707.21 978.89 672.66 990.07 638.27 C990.37 637.38 990.66 636.49 990.96 635.57 C995.71 620.74 998.5 605.61 1001.07 590.27 C1001.27 589.13 1001.46 587.98 1001.66 586.79 C1010.14 536.17 1006.03 485.76 975.81 442.46 C970.41 434.96 964.43 427.97 958.07 421.27 C957.61 420.78 957.15 420.28 956.67 419.77 C948.24 410.8 939.14 403.35 929.07 396.27 C928.47 395.84 927.87 395.42 927.26 394.97 C894.85 371.93 856.35 356.29 817.07 350.27 C816.38 350.17 815.68 350.06 814.97 349.95 C794.26 347.19 771.22 347.92 751.07 353.27 Z M716.67 545.07 C693.71 571.88 679.1 604.51 669.57 638.21 C669.31 639.14 669.04 640.07 668.76 641.03 C668.53 641.9 668.29 642.78 668.04 643.68 C667.83 644.44 667.62 645.21 667.4 646 C667 648.78 667.15 650.62 668.07 653.27 C669.91 654.82 669.91 654.82 672.32 655.85 C673.66 656.5 673.66 656.5 675.02 657.17 C676.47 657.84 676.47 657.84 677.95 658.52 C678.93 658.99 679.92 659.46 680.93 659.95 C682.97 660.92 685.01 661.88 687.05 662.84 C689.92 664.2 692.76 665.62 695.59 667.06 C697.27 667.9 698.95 668.74 700.64 669.59 C701.41 669.99 702.19 670.39 702.99 670.81 C703.72 671.16 704.45 671.52 705.2 671.89 C705.83 672.2 706.46 672.52 707.11 672.85 C711.17 673.73 714.95 670.88 718.42 668.95 C737.92 658.32 759.48 648.29 782.07 647.27 C782.88 647.22 783.69 647.17 784.53 647.12 C798.98 646.61 812.24 650.12 823.32 659.46 C833.25 668.87 838.79 681.88 839.28 695.52 C839.7 720.95 831.5 742.74 814.06 761.24 C813.4 761.91 812.75 762.58 812.07 763.27 C811.25 764.14 810.42 765.01 809.57 765.9 C806.53 768.79 803.38 771.56 800.23 774.34 C797.75 776.57 795.4 778.88 793.07 781.27 C808.89 781.68 819.34 778.82 833.07 771.27 C833.72 770.92 834.37 770.56 835.03 770.2 C853.53 759.9 870.24 746.14 883.07 729.27 C883.74 728.42 884.4 727.57 885.09 726.7 C910.2 693.63 917.85 652.2 912.49 611.64 C907.67 577.7 899.74 543.12 871.18 521.04 C819.69 483.99 756.86 499.7 716.67 545.07 Z M499.3 950.03 C497.83 950.59 497.83 950.59 496.33 951.17 C495.28 951.58 494.22 951.98 493.14 952.4 C479 957.77 464.73 962.52 450.07 966.27 C457.29 978.56 466.84 993.72 481.39 997.95 C481.95 998.05 482.5 998.16 483.07 998.27 C495.53 986.44 501.61 967.44 506.07 951.27 C506.07 950.28 506.07 949.29 506.07 948.27 C503.49 948.27 501.71 949.1 499.3 950.03 Z M336.07 973.27 C339.75 985.13 345.41 1000.16 356.07 1007.27 C360.15 1007.2 362.4 1006.8 365.64 1004.27 C370.57 998.2 374.43 991.81 377.95 984.84 C378.41 983.91 378.41 983.91 378.89 982.97 C380.55 979.77 380.55 979.77 381.07 976.27 C380.03 976.22 378.99 976.16 377.91 976.11 C374 975.9 370.1 975.69 366.19 975.47 C364.5 975.38 362.82 975.29 361.13 975.2 C358.7 975.07 356.26 974.94 353.83 974.81 C353.09 974.77 352.35 974.73 351.58 974.69 C346.39 974.4 341.24 973.88 336.07 973.27 Z " fill="#201F1F" transform="translate(138.92578125,6.7265625)"/>
<path d="M0 0 C4.42 0.92 8 3.36 11.79 5.71 C13.68 6.83 15.56 7.95 17.45 9.06 C18.41 9.63 19.37 10.2 20.36 10.79 C39.87 22.19 60.64 31.24 81.23 40.46 C81.99 40.8 82.75 41.15 83.54 41.5 C92.62 45.57 101.72 49.62 110.84 53.64 C114.87 55.41 118.89 57.21 122.91 59.01 C143.46 68.26 164.46 76.05 185.7 83.57 C188.14 84.43 190.57 85.3 193.01 86.17 C236.18 101.51 280.38 114.68 325.09 124.71 C325.88 124.89 326.66 125.06 327.47 125.25 C331.14 126.08 334.81 126.88 338.49 127.65 C347.31 129.6 355.35 132.05 360.79 139.71 C362.92 144.21 363.17 148.62 362.23 153.46 C355.95 169.12 339.53 176.6 325.23 183.46 C326.02 183.81 326.8 184.17 327.61 184.53 C334.59 187.81 341.63 191.26 345.23 198.46 C346.08 203.54 345.62 207.55 342.92 211.96 C329.34 229.91 304.75 238.31 284.23 245.46 C282.95 245.92 281.67 246.38 280.4 246.84 C276.06 248.35 272.86 249.46 268.23 249.46 C268.23 250.12 268.23 250.78 268.23 251.46 C269.42 251.81 269.42 251.81 270.64 252.17 C275.2 253.81 279.38 255.96 283.67 258.21 C284.49 258.63 285.31 259.05 286.15 259.48 C292.86 262.99 299.23 266.95 303.11 273.65 C303.5 274.3 303.88 274.96 304.29 275.63 C307.27 281.41 307.04 287.42 305.4 293.59 C298.13 313.87 282.28 330.67 263.23 340.46 C252.41 345.54 240.94 348.33 229.23 350.46 C228.01 350.69 226.78 350.92 225.52 351.15 C191.51 356.37 158.89 350.45 128.23 335.46 C127.59 335.15 126.95 334.84 126.28 334.52 C99.47 321.34 75.93 301.59 55.02 280.46 C53.28 278.69 51.52 276.94 49.76 275.18 C44.05 269.45 38.41 263.69 33.23 257.46 C32.76 256.9 32.29 256.33 31.8 255.75 C25.21 247.75 19.32 239.51 14.23 230.46 C13.82 229.75 13.42 229.03 13 228.3 C-17.05 175.05 -37.91 97.67 -22.77 36.46 C-22.52 35.43 -22.52 35.43 -22.27 34.38 C-19.55 23.64 -13.38 -0.73 0 0 Z M1.23 23.46 C-0.86 29.05 -2.3 34.6 -3.39 40.46 C-3.58 41.44 -3.58 41.44 -3.77 42.44 C-5.22 50.51 -5.93 58.49 -5.97 66.69 C-5.98 67.54 -5.99 68.39 -5.99 69.27 C-6.11 87.53 -6.1 105.46 -2.77 123.46 C-2.57 124.58 -2.37 125.69 -2.17 126.84 C2.04 150.03 8.35 172.63 17.23 194.46 C17.64 195.47 17.64 195.47 18.05 196.5 C24.92 213.34 34.49 230.94 51.38 239.56 C58.26 242.24 65.94 242.82 73.01 240.58 C80.81 237.03 85.29 232.25 88.61 224.4 C92.71 211.79 90.16 199.67 84.57 187.99 C78.21 175.85 69.2 165.87 59.03 156.78 C57.23 154.46 57.23 154.46 56.77 151.3 C56.92 150.37 57.08 149.43 57.23 148.46 C61.66 145.51 65.14 146.51 70.23 147.46 C73.48 148.4 76.67 149.42 79.86 150.53 C94.17 154.5 114.24 155.06 127.36 147.71 C130.06 144.47 130.37 142.7 130.23 138.46 C125.98 125.08 114.76 118.14 103.23 111.46 C100.83 110.02 98.43 108.56 96.04 107.09 C94.98 106.44 93.91 105.79 92.81 105.13 C90.23 103.46 90.23 103.46 88.23 101.46 C87.98 98.96 87.98 98.96 88.23 96.46 C90.23 94.46 90.23 94.46 92.95 94.19 C96.64 94.5 99.38 95.48 102.79 96.9 C116.4 102.52 134.42 102.68 148.23 97.46 C150.34 96.57 152.25 95.62 154.23 94.46 C154.23 93.8 154.23 93.14 154.23 92.46 C153.35 92.1 152.46 91.74 151.55 91.37 C107.69 73.42 64.4 54.55 21.98 33.4 C21.33 33.07 20.67 32.75 20 32.41 C18.13 31.48 16.27 30.55 14.4 29.62 C12.8 28.81 12.8 28.81 11.16 27.99 C9.22 26.98 7.33 25.91 5.47 24.77 C3.37 23.3 3.37 23.3 1.23 23.46 Z M164.29 101.15 C154.5 109.91 140.82 111.57 128.23 112.46 C128.23 116.32 129.27 116.83 131.92 119.53 C137.55 125.66 142.23 132.88 142.23 141.46 C141.24 147.83 138.7 151.93 133.65 155.9 C118.08 165.97 99.95 165.22 82.23 163.46 C83.06 164.47 83.88 165.48 84.73 166.53 C96.7 182.58 102.34 200.45 101.23 220.46 C99.76 230.29 95.26 240.03 87.26 246.22 C77.39 252.28 66.5 252.53 55.23 252.46 C69.14 274.74 90.04 287.15 115.1 293.43 C132.51 297.33 152.15 297.52 167.88 288.21 C172.71 284.62 176.82 279.37 178.23 273.46 C179.66 259.02 173.01 247.35 164.29 236.28 C162.95 234.66 161.6 233.06 160.23 231.46 C159.56 230.67 158.89 229.87 158.19 229.05 C155.09 225.46 152.06 222.24 148.29 219.34 C145.47 217.03 145.25 216.52 144.23 212.71 C144.23 209.46 144.23 209.46 145.23 207.46 C150.46 205.98 154.84 206.93 160.04 207.9 C168.18 209.27 176.17 209.8 184.42 209.84 C185.46 209.85 186.49 209.86 187.56 209.88 C195.34 209.83 202.18 209.07 208.23 203.9 C212.69 198.47 211.71 192.21 211.23 185.46 C208.59 172.17 198.76 160.46 188.23 152.46 C186.7 151.54 185.16 150.65 183.61 149.78 C181.67 148.65 181.67 148.65 180.23 147.46 C179.61 144.28 179.61 144.28 180.23 141.46 C182.23 139.46 182.23 139.46 184.4 139.45 C185.25 139.56 186.1 139.67 186.98 139.78 C187.89 139.88 188.79 139.99 189.72 140.1 C191.53 140.36 193.32 140.68 195.11 141.03 C209.99 143.11 226.35 140.06 238.94 131.65 C243.2 128.6 243.2 128.6 246.23 124.46 C245.17 124.1 244.11 123.74 243.02 123.37 C239.82 122.28 236.62 121.18 233.42 120.09 C229.73 118.83 226.04 117.57 222.35 116.31 C213.17 113.18 203.99 110.04 194.82 106.86 C192.43 106.03 190.04 105.21 187.64 104.38 C186.12 103.85 184.6 103.32 183.08 102.79 C180.97 102.06 178.85 101.33 176.74 100.6 C175.55 100.18 174.36 99.77 173.13 99.34 C168.66 97.99 167.85 97.89 164.29 101.15 Z M258.23 128.46 C256.92 129.93 255.66 131.44 254.42 132.96 C242.14 146.78 224.99 151.43 207.23 153.46 C208.69 156.61 210.48 159.24 212.54 162.03 C219.83 172.33 224.48 183.69 223.23 196.46 C221.78 203.84 218.32 210.45 212.19 214.97 C202.18 220.89 192.58 221.89 181.11 221.65 C179.24 221.63 179.24 221.63 177.34 221.61 C174.3 221.57 171.27 221.53 168.23 221.46 C170.24 224.88 172.31 227.8 174.92 230.78 C178.47 235.14 181.1 239.64 183.61 244.65 C183.94 245.32 184.27 245.98 184.62 246.67 C189.85 257.49 191.43 269.8 187.73 281.4 C183.67 290.85 176.41 297.14 167.23 301.46 C158.84 304.77 151.13 306.6 142.08 306.56 C141.1 306.56 141.1 306.56 140.09 306.56 C138.01 306.55 135.93 306.54 133.86 306.53 C132.44 306.52 131.02 306.52 129.6 306.51 C126.14 306.5 122.69 306.48 119.23 306.46 C128.64 316.66 145.28 323.02 158.23 327.46 C159.35 327.85 160.47 328.24 161.62 328.63 C173.34 332.46 184.61 333.81 196.92 333.71 C198.76 333.7 198.76 333.7 200.64 333.69 C228.22 333.38 255.19 327.67 275.23 307.46 C281.25 301.1 284.97 293.95 287.23 285.46 C285.9 281.47 283.45 280.42 279.98 278.4 C279.32 278.01 278.66 277.62 277.97 277.22 C264.13 269.26 249.81 262.94 234.61 258.06 C233.69 257.76 232.77 257.46 231.82 257.15 C231 256.9 230.19 256.64 229.35 256.38 C227.01 255.37 225.77 254.49 224.23 252.46 C223.63 247.82 223.55 245.63 225.92 241.59 C229.38 239.37 231.07 239.05 235.07 238.56 C242.26 237.54 249.12 235.81 256.11 233.84 C257.37 233.48 258.62 233.13 259.92 232.77 C282.27 226.43 306.9 219.39 325.23 204.46 C320.56 199.79 311.18 199.61 304.79 198.52 C303.36 198.27 303.36 198.27 301.89 198.02 C299.99 197.7 298.09 197.38 296.19 197.08 C289.45 195.94 282.21 194.44 277.23 189.46 C276.1 186.32 276.18 184.65 277.04 181.4 C282.22 174.44 293.98 172.95 301.98 170.59 C324.13 164.19 324.13 164.19 342.23 150.46 C342.23 149.8 342.23 149.14 342.23 148.46 C337.21 147.27 332.19 146.09 327.17 144.9 C326.03 144.63 326.03 144.63 324.86 144.36 C316.47 142.37 308.08 140.41 299.67 138.55 C298.66 138.32 298.66 138.32 297.62 138.1 C296.29 137.8 294.96 137.5 293.63 137.21 C283.31 134.92 273.13 132.49 263.06 129.31 C260.4 128.37 260.4 128.37 258.23 128.46 Z " fill="#201F1F" transform="translate(303.76904296875,523.537109375)"/>
<path d="M0 0 C28.03 0.6 71.61 11.2 92.25 31.38 C92.72 34.52 92.72 34.52 92.25 37.38 C90.25 39.38 90.25 39.38 87.38 39.84 C81.52 39.65 76.37 36.48 71.19 34 C49.46 23.98 25.45 14.41 1.38 12.94 C-2.16 12.67 -2.82 12.33 -5.94 10.12 C-7.75 7.38 -7.75 7.38 -7.69 4.69 C-5.98 0.48 -4.29 0.06 0 0 Z " fill="#201F1F" transform="translate(973.75,262.625)"/>
<path d="M0 0 C4.66 7 2.13 17.22 0.67 25.09 C-3.24 44.34 -9.13 63.23 -16.31 81.5 C-16.78 82.7 -16.78 82.7 -17.26 83.92 C-18.99 88.13 -20.74 91.73 -24 95 C-27.62 95.5 -27.62 95.5 -31 95 C-33.25 91.63 -33.16 90.23 -32.55 86.33 C-31.49 81.84 -29.65 77.68 -27.88 73.44 C-22.02 58.85 -17.16 44.32 -14.15 28.88 C-14 28.08 -13.84 27.29 -13.68 26.47 C-12.92 22.5 -12.18 18.52 -11.48 14.54 C-11.21 13.07 -10.95 11.61 -10.68 10.14 C-10.57 9.46 -10.46 8.79 -10.34 8.09 C-9.77 5.05 -9.29 3.28 -7.06 1.08 C-4.48 -0.27 -2.87 -0.45 0 0 Z " fill="#201F1F" transform="translate(1239,562)"/>
<path d="M0 0 C38.03 9.28 38.03 9.28 48.56 19.81 C48.81 22.81 48.81 22.81 48.56 25.81 C46.56 27.81 46.56 27.81 43 28.16 C38 28.03 34.02 26.26 29.5 24.25 C12.32 17.02 -6.03 10.93 -24.69 9.34 C-26.06 9.22 -26.06 9.22 -27.45 9.1 C-29.24 8.95 -31.03 8.83 -32.83 8.72 C-38.96 8.26 -38.96 8.26 -41.49 5.91 C-42.69 3.26 -42.95 1.68 -42.44 -1.19 C-33.52 -9.42 -10.84 -2.52 0 0 Z " fill="#201F1F" transform="translate(972.4375,386.1875)"/>
<path d="M0 0 C1.94 1.06 1.94 1.06 3 3 C2.63 8.69 0.88 12.74 -1.69 17.69 C-11.38 37.44 -15.62 59.61 -17.23 81.46 C-17.67 86.55 -17.67 86.55 -19.43 88.94 C-21.32 90.21 -22.74 90.72 -25 91 C-25.99 90.67 -26.98 90.34 -28 90 C-35.39 75.23 -27.22 48.81 -22.43 34.01 C-18.96 23.91 -14.55 14.2 -9.92 4.59 C-9.6 3.92 -9.27 3.25 -8.94 2.56 C-6.88 -0.85 -3.6 -0.29 0 0 Z " fill="#201F1F" transform="translate(714,404)"/>
<path d="M0 0 C5.61 5.32 9.85 11.51 12 19 C11.69 22.2 11.41 23.54 9.25 25.94 C7 27 7 27 4.59 26.37 C1.47 24.72 0.29 23.07 -1.62 20.12 C-2.19 19.26 -2.76 18.4 -3.35 17.51 C-3.9 16.68 -4.44 15.85 -5 15 C-5.56 14.28 -6.13 13.55 -6.71 12.8 C-8 11 -8 11 -8 9 C-11.83 7.2 -14.78 6.23 -19 7 C-24.54 11.45 -26.26 16.75 -27.45 23.59 C-27.61 24.49 -27.77 25.39 -27.94 26.31 C-28.07 27.15 -28.2 28 -28.34 28.86 C-29 31 -29 31 -32 33 C-34.75 33.34 -36.31 33.47 -38.63 31.89 C-41.76 27.57 -40.47 21.06 -40 16 C-38.31 8.2 -34.15 2.96 -28 -2 C-18.9 -7.64 -8.24 -6.96 0 0 Z " fill="#201F1F" transform="translate(172,229)"/>
<path d="M0 0 C9.16 1.73 15.96 10.86 21.05 18.1 C25.19 24.71 28.27 31.77 31.31 38.94 C31.72 39.88 32.13 40.82 32.56 41.8 C34.79 47.23 36 50.91 34.31 56.62 C32.31 58.62 32.31 58.62 29.5 59.25 C26.31 58.62 26.31 58.62 25.1 57.23 C20.92 50.3 17.75 42.97 14.51 35.56 C10.75 27.14 6.89 19.17 -0.5 13.38 C-4.49 10.25 -4.49 10.25 -5.52 7.04 C-5.69 4.62 -5.69 4.62 -4.62 2.31 C-2.69 0.62 -2.69 0.62 0 0 Z " fill="#201F1F" transform="translate(995.6875,556.375)"/>
<path d="M0 0 C9.94 2.55 18.62 6.47 27.6 11.41 C28.56 11.92 29.51 12.43 30.5 12.96 C32.6 14.41 32.6 14.41 33.54 17.41 C33.6 20.41 33.6 20.41 31.6 23.41 C25.66 24.03 21.61 22.94 16.29 20.28 C9.27 16.97 2.18 14.56 -5.28 12.45 C-6.05 12.22 -6.82 12 -7.61 11.77 C-8.3 11.57 -8.98 11.38 -9.69 11.19 C-11.4 10.41 -11.4 10.41 -13.4 7.41 C-13.75 4.61 -13.77 3.04 -12.34 0.59 C-8.6 -1.7 -4.16 -0.73 0 0 Z " fill="#201F1F" transform="translate(994.40234375,286.59375)"/>
<path d="M0 0 C8.29 2.07 18.81 4.81 25 11 C25.19 13.94 25.19 13.94 25 17 C23 19 23 19 19.38 19.5 C13.77 19.42 9.01 17.28 3.89 15.21 C0.13 13.71 -3.16 12.63 -7.25 12.38 C-11 12 -11 12 -13.56 10.25 C-15.3 7.52 -15.57 6.18 -15 3 C-11.36 -1.92 -5.48 -0.65 0 0 Z " fill="#201F1F" transform="translate(958,410)"/>
<path d="M0 0 C1.18 5.75 0.68 10.14 -0.69 15.81 C-0.87 16.6 -1.06 17.39 -1.25 18.21 C-5.03 33.89 -5.03 33.89 -10 38 C-12.5 38.38 -12.5 38.38 -15 38 C-16.98 36.46 -17.89 35.56 -18.39 33.08 C-18.32 27.08 -17.08 22.02 -15.12 16.38 C-14.59 14.76 -14.05 13.14 -13.51 11.52 C-13.25 10.76 -12.99 10 -12.72 9.21 C-12.05 7.15 -11.47 5.1 -10.91 3.01 C-10 0 -10 0 -8.25 -1.56 C-5.08 -2.18 -2.94 -1.2 0 0 Z " fill="#201F1F" transform="translate(1212,580)"/>
<path d="M0 0 C3.08 1.08 4.05 1.97 5.5 4.88 C4.97 8.69 3.8 12.28 2.62 15.94 C0.91 21.35 -0.45 26.76 -1.59 32.32 C-2.68 35.37 -3.98 36.86 -6.5 38.88 C-9.36 38.81 -10.88 38.34 -13.16 36.62 C-15.48 33.61 -14.52 30.72 -14.08 27.12 C-12.5 18.29 -10.11 9.61 -5.5 1.88 C-2.5 -0.12 -2.5 -0.12 0 0 Z " fill="#201F1F" transform="translate(726.5,431.125)"/>
<path d="M0 0 C6.15 5.6 11.62 14.85 12.23 23.21 C12 26 12 26 10.31 27.94 C8 29 8 29 5.5 29 C0.25 26.9 -2.09 21.28 -4.62 16.5 C-5.22 15.4 -5.81 14.29 -6.41 13.16 C-9.15 7.72 -9.15 7.72 -10 5 C-7.59 -0.3 -5.62 -1.75 0 0 Z " fill="#201F1F" transform="translate(983,572)"/>
</svg>
