<?xml version="1.0" encoding="UTF-8"?>
<!-- Generator: visioncortex VTracer 0.6.3 -->
<svg version="1.1" xmlns="http://www.w3.org/2000/svg" width="1280" height="1280">
<path d="M0 0 C2.76 1.69 5.57 3.16 8.46 4.62 C14.84 7.87 20.35 10.95 24.77 16.7 C25.44 17.55 26.11 18.41 26.8 19.29 C56.7 60.05 65.21 116.04 73.48 164.7 C78.37 193.43 84.24 220.73 96.46 247.36 C97.82 250.35 98.91 253.19 99.76 256.37 C100.79 259.77 101.87 261.58 104.15 264.26 C104.88 265.13 105.61 265.99 106.36 266.88 C107.16 267.81 107.95 268.74 108.77 269.7 C109.55 270.66 110.33 271.62 111.12 272.61 C133.95 300.57 166.54 334.61 204.28 338.44 C205.1 338.52 205.92 338.59 206.76 338.68 C207.63 338.76 208.5 338.85 209.39 338.93 C218.66 339.82 227.93 340.5 237.21 341.13 C240.06 341.33 242.91 341.53 245.76 341.73 C247.6 341.86 249.45 341.99 251.29 342.11 C252.13 342.17 252.96 342.23 253.82 342.29 C289.21 344.68 328.84 315.17 358.9 298.04 C365.26 294.41 371.65 290.82 378.05 287.26 C379.3 286.57 380.55 285.87 381.79 285.17 C403 273.25 403 273.25 408.11 274.08 C408.66 274.28 409.21 274.49 409.77 274.7 C410.24 283.63 410.08 290.76 405.77 298.7 C405.08 299.99 405.08 299.99 404.37 301.3 C401.14 306.78 397.34 311.57 393.09 316.26 C392.64 316.76 392.2 317.25 391.74 317.76 C386.57 323.27 380.62 327.93 374.77 332.7 C437.79 312.09 437.79 312.09 493.74 277.8 C497.17 275.42 499.74 274.62 503.77 273.7 C499.33 303.67 473.31 326.35 452.88 346.78 C450.77 348.89 448.67 351 446.58 353.12 C439.29 360.44 431.97 367.39 423.77 373.7 C422.99 374.32 422.21 374.93 421.4 375.57 C419.22 377.27 417.03 378.96 414.84 380.64 C413.74 381.48 413.74 381.48 412.63 382.34 C411.93 382.88 411.22 383.42 410.5 383.98 C409.87 384.45 409.25 384.93 408.61 385.42 C406.74 386.72 404.84 387.73 402.77 388.7 C403.4 388.57 404.03 388.44 404.67 388.3 C416.81 385.79 428.96 383.41 441.21 381.45 C442.22 381.29 443.23 381.12 444.27 380.96 C481.26 375.16 481.26 375.16 494.77 381.7 C496.61 383.05 496.61 383.05 497.77 384.7 C497.79 386.71 497.79 386.71 496.77 388.7 C494.51 390.12 494.51 390.12 491.52 391.45 C487.14 393.47 483.12 395.69 479.08 398.34 C471.37 403.22 463.12 406.83 454.79 410.51 C450.12 412.56 445.47 414.65 440.82 416.74 C439.42 417.37 439.42 417.37 437.99 418.01 C429.21 421.94 420.48 425.97 411.77 430.07 C411.08 430.4 410.38 430.73 409.67 431.07 C399.48 435.88 389.35 440.82 379.31 445.93 C372.59 449.33 365.82 452.6 359.02 455.83 C347.81 461.17 336.68 466.67 325.57 472.23 C322.51 473.77 319.45 475.3 316.38 476.83 C304.77 482.63 293.25 488.56 281.78 494.64 C278.95 496.13 276.1 497.6 273.26 499.06 C261.99 504.85 250.87 510.82 239.87 517.11 C234.41 520.23 228.92 523.24 223.34 526.14 C213.29 531.37 203.58 537.18 193.81 542.92 C189 545.74 184.17 548.54 179.34 551.32 C178.5 551.81 177.67 552.29 176.81 552.79 C163.04 560.7 163.04 560.7 158.77 560.7 C158.52 561.42 158.26 562.14 158 562.88 C154.04 572.01 146.44 579.48 139.77 586.7 C138.66 587.97 137.56 589.24 136.46 590.51 C134.36 592.93 132.22 595.3 130.02 597.63 C114.49 612.94 114.49 612.94 108.59 632.82 C108.6 633.52 108.6 634.22 108.6 634.95 C108.62 637.27 108.66 639.6 108.69 641.92 C108.71 643.57 108.73 645.21 108.74 646.86 C108.79 651.25 108.85 655.65 108.92 660.04 C108.96 662.76 109 665.47 109.04 668.19 C109.33 689.17 109.72 710.13 111.21 731.07 C111.27 731.95 111.33 732.82 111.4 733.72 C111.99 741.86 112.71 749.78 114.77 757.7 C115 758.83 115 758.83 115.22 759.99 C115.72 762.4 116.2 763.8 117.77 765.7 C120.68 766.8 123.51 767.36 126.56 767.93 C134.13 769.74 141.62 775.01 146.65 780.89 C148.91 786.54 146.98 792.15 145.3 797.79 C143.7 803.56 143.05 809.19 142.52 815.14 C141.22 828.22 139.23 841.16 137.15 854.14 C136.99 855.13 136.83 856.11 136.67 857.13 C136.21 859.97 135.76 862.8 135.3 865.63 C135.16 866.49 135.02 867.35 134.88 868.23 C134.75 869.02 134.62 869.82 134.48 870.63 C134.31 871.67 134.31 871.67 134.14 872.73 C133.89 874.06 133.6 875.39 133.26 876.71 C132.44 880.09 132.04 883.3 132.77 886.7 C134.56 888.84 136.45 890.07 138.77 891.7 C141.26 895.43 141.53 898.37 140.77 902.7 C138.84 907.06 136.06 910.42 132.71 913.76 C126 921.47 125.41 934.2 124.02 943.95 C123.9 944.85 123.77 945.75 123.64 946.67 C122.53 955.14 121.46 963.75 124.77 971.82 C128.27 981.51 126.62 988.96 123.77 998.7 C123.58 999.46 123.39 1000.22 123.19 1001 C121.65 1006.14 118.92 1008.76 114.77 1012.09 C113 1013.52 111.46 1014.98 109.9 1016.64 C107.77 1018.7 107.77 1018.7 105.77 1018.7 C104.58 1031.09 103.64 1043.48 103.23 1055.92 C103.17 1057.77 103.17 1057.77 103.11 1059.66 C102.8 1069.33 102.64 1078.99 102.53 1088.65 C102.52 1089.36 102.51 1090.07 102.5 1090.8 C102.43 1097.34 102.35 1103.88 102.3 1110.42 C102.26 1114.05 102.22 1117.69 102.18 1121.33 C102.15 1123.34 102.14 1125.35 102.13 1127.36 C102.04 1134.11 101.54 1140.17 99.77 1146.7 C96.68 1143.86 96.04 1141.7 95.15 1137.57 C94.91 1136.5 94.67 1135.42 94.42 1134.32 C93.01 1126.43 92.62 1118.7 92.61 1110.7 C92.6 1109.65 92.6 1108.6 92.59 1107.52 C92.58 1104.1 92.58 1100.68 92.59 1097.26 C92.58 1095.51 92.58 1095.51 92.58 1093.73 C92.59 1071.34 93.41 1049.04 94.77 1026.7 C93.88 1027.03 93.88 1027.03 92.96 1027.37 C90.17 1028.4 87.38 1029.43 84.59 1030.45 C83.58 1030.82 82.58 1031.19 81.55 1031.57 C75.17 1033.89 68.83 1035.97 62.23 1037.62 C58.13 1039.42 56.34 1042.29 54.7 1046.36 C53.64 1050.2 53.34 1053.87 53.18 1057.82 C53.12 1059 53.12 1059 53.06 1060.21 C52.93 1062.81 52.82 1065.41 52.7 1068 C52.62 1069.81 52.53 1071.62 52.44 1073.43 C52.21 1078.17 52 1082.92 51.78 1087.66 C51.56 1092.51 51.33 1097.35 51.1 1102.2 C50.65 1111.7 50.21 1121.2 49.77 1130.7 C49.11 1130.7 48.45 1130.7 47.77 1130.7 C46.92 1125.53 46.63 1120.52 46.66 1115.29 C46.66 1114.47 46.66 1113.66 46.66 1112.83 C46.66 1110.17 46.67 1107.52 46.68 1104.86 C46.68 1103.01 46.68 1101.16 46.68 1099.31 C46.68 1094.45 46.69 1089.6 46.7 1084.74 C46.72 1079.78 46.72 1074.82 46.72 1069.86 C46.74 1060.14 46.75 1050.42 46.77 1040.7 C46.16 1040.78 45.54 1040.87 44.91 1040.96 C42.07 1041.35 39.23 1041.74 36.39 1042.12 C35.42 1042.26 34.46 1042.39 33.46 1042.53 C24.91 1043.7 16.35 1044.73 7.77 1045.7 C5.89 1050.46 4.37 1054.8 3.65 1059.89 C3.5 1060.87 3.35 1061.85 3.2 1062.87 C2.12 1072.54 1.59 1082.23 1.27 1091.95 C1.21 1093.72 1.21 1093.72 1.15 1095.52 C0.87 1104.14 0.7 1112.76 0.56 1121.38 C0.52 1123.62 0.48 1125.85 0.45 1128.09 C0.37 1132.55 0.31 1137.02 0.25 1141.48 C0.22 1143.56 0.19 1145.63 0.15 1147.71 C0.14 1148.67 0.14 1149.64 0.13 1150.63 C0.1 1151.96 0.1 1151.96 0.08 1153.32 C0.07 1154.1 0.06 1154.87 0.05 1155.67 C-0.23 1157.7 -0.23 1157.7 -2.23 1160.7 C-8.63 1154.3 -5.7 1129.36 -5.85 1120.64 C-5.89 1118.73 -5.93 1116.83 -5.97 1114.92 C-6.18 1104.76 -6.25 1094.61 -6.16 1084.45 C-5.88 1064.59 -5.88 1064.59 -13.41 1046.76 C-16.89 1044.21 -20.06 1043.4 -24.23 1042.7 C-25.28 1042.51 -26.33 1042.33 -27.41 1042.14 C-30.35 1041.64 -33.28 1041.16 -36.23 1040.7 C-36.08 1041.62 -35.94 1042.54 -35.79 1043.49 C-33.68 1058.65 -33.99 1073.87 -34.09 1089.14 C-34.11 1092.82 -34.12 1096.5 -34.13 1100.18 C-34.15 1107.36 -34.18 1114.53 -34.23 1121.7 C-34.89 1121.7 -35.55 1121.7 -36.23 1121.7 C-37.37 1109.58 -38.23 1097.47 -38.73 1085.3 C-38.78 1084.3 -38.82 1083.31 -38.86 1082.28 C-39.07 1077.23 -39.26 1072.19 -39.44 1067.14 C-39.52 1065.24 -39.59 1063.34 -39.66 1061.45 C-39.69 1060.58 -39.72 1059.72 -39.75 1058.83 C-40.01 1052.38 -40.4 1046.16 -44.35 1040.83 C-47.82 1038.26 -51.07 1037.41 -55.23 1036.64 C-56.74 1036.32 -58.25 1036 -59.75 1035.68 C-60.5 1035.52 -61.25 1035.36 -62.02 1035.2 C-67.18 1034.03 -72.2 1032.34 -77.23 1030.7 C-77.11 1031.24 -76.98 1031.78 -76.86 1032.33 C-70.5 1063.55 -69.78 1099.12 -73.96 1130.61 C-74.43 1134.3 -74.83 1138 -75.23 1141.7 C-75.89 1141.7 -76.55 1141.7 -77.23 1141.7 C-77.85 1139.22 -78.48 1136.74 -79.1 1134.26 C-79.28 1133.57 -79.45 1132.89 -79.63 1132.18 C-79.99 1130.75 -80.34 1129.32 -80.69 1127.89 C-81.04 1126.47 -81.4 1125.05 -81.77 1123.63 C-83.45 1116.86 -83.83 1110.09 -84.23 1103.14 C-84.31 1101.8 -84.39 1100.45 -84.47 1099.11 C-85.21 1086.91 -85.77 1074.69 -86.35 1062.48 C-86.95 1049.85 -87.78 1037.27 -89.23 1024.7 C-89.95 1024.46 -90.68 1024.21 -91.43 1023.96 C-94.59 1022.54 -96.47 1020.89 -98.91 1018.45 C-99.68 1017.7 -100.45 1016.95 -101.24 1016.18 C-106.46 1009.66 -105.82 1001.64 -105.23 993.7 C-104.2 989.02 -102.4 984.95 -100.23 980.7 C-100.86 980.55 -101.48 980.41 -102.13 980.25 C-108.86 978.49 -115.66 975.97 -119.41 969.72 C-120.72 966.48 -120.71 964.15 -120.23 960.7 C-114.74 954.82 -108.18 952.51 -100.23 951.7 C-100.5 951.04 -100.77 950.38 -101.05 949.7 C-103.73 942.83 -105.06 936.48 -105.75 929.16 C-105.99 926.97 -106.22 924.77 -106.46 922.57 C-106.57 921.44 -106.69 920.3 -106.8 919.14 C-107.41 913.23 -108.08 907.33 -108.75 901.43 C-108.87 900.35 -108.99 899.28 -109.11 898.17 C-111.67 875.16 -117.57 853.31 -123.77 831.06 C-124.05 830.03 -124.34 829.01 -124.63 827.95 C-125.17 826.02 -125.71 824.08 -126.26 822.15 C-128.58 813.79 -129.45 805.85 -129.54 797.2 C-129.57 796.29 -129.6 795.38 -129.63 794.44 C-129.69 787.35 -128.23 783.57 -123.87 777.95 C-105.85 761.75 -76.97 760.95 -54.24 759.13 C-34.1 758.23 -34.1 758.23 -17.66 748.07 C-12.73 741.37 -11.6 733.71 -10.23 725.7 C-10.06 724.72 -9.88 723.73 -9.71 722.72 C0.92 662.96 0.92 662.96 -12.23 605.7 C-12.76 605.17 -13.3 604.65 -13.85 604.11 C-15.23 602.7 -15.23 602.7 -15.23 600.7 C-16.06 600.34 -16.06 600.34 -16.91 599.97 C-19.74 598.42 -21.87 596.47 -24.29 594.32 C-30.17 589.25 -36.54 585.16 -43.16 581.11 C-46.8 578.87 -50.39 576.65 -53.81 574.08 C-61.06 568.64 -67.39 566.08 -76.23 564.15 C-100.4 558.71 -122.09 546.49 -140.23 529.7 C-140.77 529.2 -141.31 528.7 -141.87 528.19 C-154.87 516.1 -164.52 502.08 -173.23 486.7 C-173.58 486.09 -173.93 485.48 -174.29 484.85 C-194.74 449.32 -205.21 411.03 -205.54 370.14 C-205.56 368.89 -205.57 367.64 -205.59 366.36 C-205.58 355.37 -203.5 345.52 -198.98 335.51 C-198.64 334.77 -198.31 334.02 -197.96 333.25 C-188.51 313.03 -175.31 294.41 -163.23 275.7 C-154.54 262.23 -145.99 248.73 -138.23 234.7 C-137.73 233.8 -137.23 232.9 -136.72 231.98 C-126.33 213.06 -118.2 193.74 -113.23 172.7 C-112.98 171.68 -112.73 170.66 -112.48 169.61 C-110.99 161.98 -110.99 154.26 -110.91 146.51 C-110.9 145.41 -110.88 144.3 -110.86 143.16 C-110.87 134.96 -111.36 127.41 -116.51 120.74 C-119.5 118.49 -122.14 117.28 -125.66 116.01 C-131.3 113.91 -136.77 111.57 -142.22 109.02 C-161.7 99.91 -181.58 94.66 -202.4 89.55 C-203.1 89.38 -203.8 89.21 -204.52 89.03 C-211.94 86.78 -211.94 86.78 -219.13 88.11 C-220.13 88.84 -221.13 89.57 -222.16 90.32 C-222.71 90.72 -223.27 91.12 -223.83 91.53 C-233.4 98.62 -242.51 106.58 -250.71 115.21 C-253.05 117.51 -254.6 118.67 -257.91 118.82 C-258.68 118.78 -259.44 118.74 -260.23 118.7 C-261.05 92.76 -256.15 70.17 -239.23 49.7 C-238.59 48.86 -237.96 48.02 -237.31 47.16 C-215.46 21.42 -158.82 21.56 -128.23 18.7 C-127.95 17.93 -127.68 17.17 -127.4 16.38 C-123.37 7.17 -110.1 1.59 -101.14 -2 C-70.37 -13.59 -29.04 -18.66 0 0 Z M-84.23 6.7 C-85.18 7 -86.13 7.3 -87.1 7.61 C-103.55 11.74 -103.55 11.74 -115.73 22.32 C-118.2 28.18 -116.39 33.54 -114.26 39.31 C-113.13 41.98 -111.93 44.59 -110.66 47.2 C-110.22 48.12 -109.77 49.04 -109.32 50 C-105.85 56.94 -101.94 62.4 -96.23 67.7 C-94.39 69.53 -92.56 71.36 -90.73 73.2 C-89.89 74.01 -89.06 74.83 -88.2 75.67 C-86.23 77.7 -86.23 77.7 -85.23 79.7 C-85.85 79.74 -86.47 79.79 -87.11 79.83 C-87.81 80.12 -88.51 80.4 -89.23 80.7 C-90.35 83.34 -90.35 83.34 -91.04 86.57 C-93.35 94.87 -97.31 101.64 -103.16 107.95 C-105.85 111.53 -105.55 113.28 -105.23 117.7 C-104.51 120.29 -103.74 122.74 -102.85 125.26 C-94.95 149.08 -98.21 173.37 -106.23 196.7 C-106.5 197.49 -106.76 198.28 -107.04 199.09 C-119.98 236.39 -142.3 269.93 -163.41 303.01 C-165.12 305.68 -166.82 308.36 -168.53 311.03 C-169.68 312.84 -170.83 314.64 -171.98 316.45 C-192.62 348.82 -200.33 377.26 -192.1 415.47 C-184.11 449.29 -166.64 485.01 -143.23 510.7 C-142.64 511.34 -142.06 511.98 -141.46 512.64 C-114.84 541.46 -83.71 551.52 -45.99 557.07 C4.69 564.55 46.48 579.74 84.31 615.45 C87.04 617.94 88.93 619.53 92.59 620.26 C97.33 619.42 99.14 616.45 101.77 612.7 C103.75 609.75 105.7 606.78 107.65 603.81 C113.4 595.4 120.29 587.93 127.21 580.48 C129.31 578.2 131.34 575.88 133.34 573.51 C142.57 562.94 154 554.63 166.36 548.06 C169.45 546.32 172.42 544.39 175.4 542.45 C195.26 529.56 216.04 518.11 236.77 506.7 C237.61 506.24 238.46 505.77 239.32 505.29 C252.24 498.18 265.25 491.27 278.34 484.49 C280.84 483.19 283.34 481.87 285.83 480.55 C297.35 474.45 308.96 468.53 320.63 462.7 C322.48 461.78 324.32 460.86 326.17 459.93 C330.01 458.01 333.85 456.09 337.69 454.18 C342.54 451.76 347.38 449.33 352.23 446.9 C370.61 437.71 388.99 428.54 407.56 419.75 C411 418.11 414.41 416.43 417.82 414.73 C433.73 406.85 449.7 399.86 466.35 393.7 C468.97 392.71 468.97 392.71 471.77 390.7 C437.78 391.79 404.86 400.96 372.05 409.22 C342.25 416.7 342.25 416.7 333.77 416.7 C334.55 416.35 334.55 416.35 335.34 416 C372.4 399.34 406.5 374.83 436.19 347.17 C437.84 345.64 439.51 344.12 441.18 342.61 C446.49 337.79 451.62 333.01 456.23 327.49 C457.83 325.63 459.52 323.92 461.27 322.2 C467.38 316.17 472.73 309.64 477.77 302.7 C472.84 304.48 468.35 306.99 463.77 309.51 C462.98 309.94 462.19 310.36 461.37 310.8 C454.61 314.52 450.16 319.07 445.34 325.07 C443.82 326.95 442.3 328.83 440.77 330.7 C440.1 331.54 440.1 331.54 439.4 332.41 C435.85 336.72 432.05 340.17 427.59 343.51 C426.51 344.32 426.51 344.32 425.41 345.15 C399.39 364.52 371.24 380.89 343.36 397.39 C338.05 400.53 332.75 403.7 327.46 406.89 C315.27 414.22 303.03 421.47 290.77 428.7 C289.87 429.23 289.87 429.23 288.95 429.78 C254.73 449.97 222.29 468.97 183.77 479.7 C183.77 478.71 183.77 477.72 183.77 476.7 C184.62 476.44 185.47 476.18 186.35 475.91 C189.91 474.65 193.23 473.1 196.59 471.39 C197.26 471.04 197.94 470.7 198.64 470.35 C201.02 469.14 203.4 467.92 205.77 466.7 C207.17 465.99 207.17 465.99 208.59 465.26 C221.84 458.49 234.91 451.46 247.83 444.08 C253.12 441.06 258.44 438.1 263.77 435.16 C276.49 428.14 289.08 420.93 301.6 413.56 C304.98 411.58 308.35 409.61 311.73 407.64 C325.07 399.86 338.34 391.98 351.52 383.94 C352.68 383.24 353.83 382.53 354.98 381.83 C355.55 381.48 356.12 381.14 356.7 380.78 C361.62 377.79 366.56 374.83 371.5 371.89 C411.9 350.31 411.9 350.31 444.77 319.7 C438.71 321.61 432.91 323.86 427.06 326.36 C358.85 355.51 283.69 382.89 209.77 392.7 C208.95 392.81 208.13 392.92 207.28 393.03 C199.66 393.92 192 393.94 184.34 393.95 C183.63 393.95 182.93 393.95 182.2 393.96 C170.81 393.96 159.93 393.03 148.77 390.7 C146.77 390.36 144.78 390.02 142.77 389.7 C143.1 389.04 143.43 388.38 143.77 387.7 C146.42 387.28 146.42 387.28 150.01 387.02 C151.36 386.92 152.72 386.82 154.07 386.71 C155.15 386.63 155.15 386.63 156.26 386.55 C227.87 381.28 317.88 368.85 373.77 320.7 C374.62 319.98 375.47 319.27 376.35 318.53 C386.29 309.93 393.52 300.23 399.77 288.7 C396.23 288.7 395.16 289.49 392.21 291.38 C391.29 291.97 390.36 292.56 389.4 293.17 C388.39 293.82 387.38 294.47 386.34 295.14 C384.15 296.52 381.96 297.9 379.78 299.28 C379.21 299.64 378.64 300 378.05 300.37 C359.35 312.19 340.41 323.48 320.77 333.7 C319.33 334.45 319.33 334.45 317.86 335.22 C287.24 351.15 287.24 351.15 269.77 352.7 C268.6 352.81 267.44 352.92 266.23 353.03 C222.54 356.49 179.93 355.17 144.77 325.7 C143.84 324.96 142.9 324.22 141.93 323.46 C135.79 318.58 130.22 313.33 124.77 307.7 C122.14 305.04 119.49 302.42 116.79 299.82 C109.36 292.62 102.66 285.22 96.77 276.7 C96.38 276.12 95.98 275.55 95.57 274.96 C90.33 267.21 86.8 259.6 84.08 250.66 C82.31 244.97 80 239.78 77.34 234.45 C65.25 209.79 61.21 182.53 56.72 155.69 C44.23 77.35 44.23 77.35 1.13 13.31 C-20.72 -1.6 -59.64 -1.26 -84.23 6.7 Z M-179.98 38.14 C-180.71 38.28 -181.45 38.41 -182.21 38.56 C-202.21 42.35 -222.92 46.31 -236.16 63.16 C-241.56 71.17 -251.39 87.12 -249.85 97.14 C-249.65 97.65 -249.44 98.17 -249.23 98.7 C-248.34 97.99 -247.46 97.27 -246.55 96.54 C-239.37 90.79 -232.14 85.43 -224.23 80.7 C-223.46 80.19 -222.69 79.68 -221.89 79.15 C-212.77 74.18 -197.87 76.54 -187.62 76.53 C-185.73 76.53 -183.84 76.52 -181.94 76.52 C-177.99 76.52 -174.04 76.51 -170.08 76.51 C-165.07 76.51 -160.05 76.5 -155.03 76.48 C-151.12 76.47 -147.22 76.47 -143.31 76.47 C-141.46 76.47 -139.62 76.47 -137.77 76.46 C-127.29 76.42 -117.11 76.84 -106.72 78.27 C-103.83 78.62 -101.13 78.79 -98.23 78.7 C-100.4 75.14 -102.57 72.26 -105.6 69.39 C-112.94 62.22 -116.76 53.69 -120.48 44.26 C-121.33 42.12 -122.19 39.97 -123.05 37.83 C-123.61 36.42 -123.61 36.42 -124.18 34.99 C-125.13 32.57 -125.13 32.57 -127.23 30.7 C-144.12 29.48 -163.38 34.95 -179.98 38.14 Z M-170.23 83.7 C-167.31 85.16 -164.75 86.27 -161.69 87.29 C-150.32 91.2 -139.72 95.68 -129.2 101.5 C-128.17 102.07 -128.17 102.07 -127.12 102.64 C-125.43 103.58 -123.75 104.54 -122.07 105.49 C-118.72 106.92 -116.83 107.34 -113.23 106.7 C-111.03 104.9 -109.41 103.33 -107.6 101.2 C-107.12 100.65 -106.64 100.11 -106.15 99.55 C-102.16 94.89 -98.23 90.09 -98.23 83.7 C-121.99 83.7 -145.75 83.7 -170.23 83.7 Z M-38.23 569.7 C-34.42 572.83 -30.47 575.73 -26.49 578.62 C-12.34 588.91 -0.49 598.89 7.77 614.7 C12.35 614.17 15.4 612.15 19.09 609.57 C26.55 604.54 34.45 601.06 42.77 597.7 C41.31 594.07 39.46 592.42 36.27 590.2 C35.48 589.63 34.69 589.06 33.87 588.48 C26.29 584.12 18.16 581.83 9.71 579.82 C8.69 579.58 7.66 579.33 6.6 579.07 C4.44 578.54 2.27 578.02 0.11 577.5 C-3.26 576.69 -6.63 575.86 -10 575.02 C-12.2 574.47 -14.4 573.93 -16.6 573.39 C-17.62 573.13 -18.63 572.88 -19.68 572.62 C-25.85 571.11 -31.88 570.14 -38.23 569.7 Z M39.9 607.39 C39.19 607.75 38.49 608.12 37.76 608.49 C28.72 612.84 28.72 612.84 21.77 619.7 C21.57 621.76 21.57 621.76 21.75 624.03 C21.79 624.91 21.84 625.79 21.88 626.7 C21.94 627.67 22 628.63 22.06 629.62 C22.12 630.64 22.17 631.65 22.23 632.7 C22.34 634.89 22.46 637.08 22.59 639.28 C22.84 643.84 23.05 648.39 23.26 652.95 C23.48 657.74 23.72 662.52 23.97 667.3 C24.09 669.73 24.21 672.15 24.32 674.57 C24.95 687.87 25.78 701.13 27.19 714.37 C27.3 715.46 27.41 716.56 27.53 717.68 C28.58 726.96 30.2 735.06 35.77 742.7 C37.27 745.3 38.75 747.91 40.21 750.53 C42.3 753.44 44.36 754.44 47.88 755.08 C50.3 755.27 52.72 755.43 55.15 755.57 C55.99 755.65 56.82 755.72 57.69 755.79 C61.6 756.03 64.39 755.83 68.12 754.52 C75.42 746.75 76.04 733.29 77.84 723.07 C77.96 722.36 78.09 721.65 78.22 720.92 C82.49 697.05 84.98 672.95 84.9 648.69 C84.9 646.48 84.9 644.26 84.91 642.05 C84.91 640.63 84.91 639.2 84.91 637.78 C84.9 635.88 84.9 635.88 84.9 633.94 C84.8 628.95 84.8 628.95 82.06 625.09 C81.33 624.57 80.59 624.05 79.84 623.51 C76.31 620.91 73.09 618.2 69.9 615.2 C61.43 607.35 61.43 607.35 50.94 603.29 C46.75 603.83 43.6 605.42 39.9 607.39 Z M5.77 624.7 C3.67 627.86 3.52 628.65 3.59 632.26 C3.59 633.05 3.6 633.83 3.61 634.64 C3.65 636.76 3.65 636.76 4.77 638.7 C8.07 638.37 11.37 638.04 14.77 637.7 C14.77 632.09 14.77 626.48 14.77 620.7 C10.72 620.7 8.98 622.31 5.77 624.7 Z M93.77 625.7 C92.74 628.98 92.6 630.31 94.02 633.51 C94.6 634.23 95.18 634.96 95.77 635.7 C96.76 635.7 97.75 635.7 98.77 635.7 C98.81 634.42 98.86 633.14 98.9 631.82 C98.93 630.75 98.93 630.75 98.97 629.64 C98.96 627.46 98.96 627.46 96.77 625.7 C95.78 625.7 94.79 625.7 93.77 625.7 Z M94.77 640.7 C94.77 646.97 94.77 653.24 94.77 659.7 C95.76 659.7 96.75 659.7 97.77 659.7 C98.84 656.51 98.94 654.11 98.96 650.76 C98.98 649.72 98.99 648.68 99 647.61 C98.78 644.75 98.25 643.12 96.77 640.7 C96.11 640.7 95.45 640.7 94.77 640.7 Z M8.15 643.45 C5.45 644.52 5.45 644.52 4.77 647.7 C4.69 649.47 4.67 651.25 4.68 653.02 C4.68 654.05 4.68 655.08 4.69 656.14 C4.69 657.21 4.7 658.28 4.71 659.39 C4.72 660.47 4.72 661.55 4.72 662.67 C4.74 665.35 4.75 668.02 4.77 670.7 C6.66 670.45 6.66 670.45 8.59 670.2 C11.04 669.88 13.29 669.7 15.77 669.7 C15.83 666.87 15.87 664.03 15.9 661.2 C15.92 660.41 15.93 659.62 15.95 658.8 C15.99 653.43 15.51 648.8 13.77 643.7 C10.85 642.41 10.85 642.41 8.15 643.45 Z M95.77 665.7 C93.63 668.92 93.43 670.26 93.14 674.02 C93.06 675.05 92.97 676.08 92.89 677.14 C92.81 678.21 92.73 679.28 92.65 680.39 C92.56 681.47 92.48 682.55 92.39 683.67 C92.17 686.35 91.97 689.02 91.77 691.7 C93.42 691.37 95.07 691.04 96.77 690.7 C98.69 685.08 99.02 680.18 98.9 674.26 C98.88 673.02 98.88 673.02 98.87 671.76 C98.85 669.74 98.81 667.72 98.77 665.7 C97.78 665.7 96.79 665.7 95.77 665.7 Z M4.77 677.7 C3.6 680.05 3.57 681.65 3.46 684.27 C3.42 685.17 3.37 686.06 3.33 686.98 C3.29 687.92 3.25 688.86 3.21 689.82 C3.17 690.77 3.12 691.71 3.08 692.69 C2.97 695.02 2.87 697.36 2.77 699.7 C3.44 699.69 4.1 699.68 4.79 699.66 C13.56 699.57 13.56 699.57 17.77 700.7 C17.89 692.69 18 684.64 16.77 676.7 C15.68 675.39 15.68 675.39 13.02 675.51 C9.77 675.7 7.65 676.22 4.77 677.7 Z M93.24 698.69 C91.05 701.69 90.68 704.99 90.09 708.57 C89.96 709.28 89.83 709.99 89.69 710.72 C89.03 714.48 88.77 717.85 88.77 721.7 C92.4 721.7 96.03 721.7 99.77 721.7 C99.8 719.18 99.82 716.66 99.84 714.14 C99.84 713.43 99.85 712.73 99.86 712 C99.88 707.46 99.52 703.18 98.77 698.7 C95.93 697.57 95.93 697.57 93.24 698.69 Z M3.77 706.7 C1.14 709.69 0.13 712.31 -0.8 716.16 C-1.05 717.21 -1.31 718.26 -1.57 719.34 C-1.83 720.43 -2.09 721.52 -2.35 722.64 C-2.62 723.72 -2.88 724.81 -3.15 725.92 C-4.26 730.5 -5.33 735.07 -6.23 739.7 C-5.13 739.22 -4.04 738.75 -2.91 738.26 C5.26 735.21 14.16 735.53 22.77 735.7 C22.65 734.98 22.53 734.27 22.41 733.53 C22.24 732.53 22.07 731.54 21.9 730.51 C21.72 729.43 21.53 728.34 21.34 727.22 C20.6 722.66 19.96 718.09 19.34 713.51 C18.8 710.83 18.32 708.95 16.77 706.7 C12.4 704.48 8.01 704.04 3.77 706.7 Z M85.77 731.7 C84.41 734.38 84.41 734.38 83.34 737.32 C81.11 742.95 78.57 748.33 75.77 753.7 C76.41 753.55 77.05 753.41 77.71 753.26 C85.87 751.51 93.24 750.39 100.77 754.7 C102.76 756.58 104.18 758.45 105.77 760.7 C105.26 760.48 104.75 760.27 104.23 760.04 C93.7 756.01 84.48 757.02 74.09 761.09 C68.95 763.58 64.99 766.9 60.77 770.7 C52.74 777.59 44.57 783.83 35.77 789.7 C39.4 790.87 42.67 790.67 46.46 790.51 C54.8 790.46 59.99 792.51 66.52 797.51 C69.46 799.97 69.46 799.97 72.2 799.55 C75.15 798.57 76.86 797.28 79.21 795.26 C84.44 791.08 88.03 789.44 94.77 789.89 C101.54 790.65 108.15 792.16 114.77 793.7 C113.57 786.35 111.97 779.13 110.24 771.9 C109.33 768.11 108.48 764.34 107.77 760.51 C106.77 755.26 105.23 750.17 103.71 745.05 C102.92 742.23 102.27 739.45 101.71 736.57 C100.74 731.99 100.74 731.99 97.77 728.7 C92.27 726.92 89.54 727.03 85.77 731.7 Z M-11.73 750.45 C-12.75 751.81 -13.74 753.18 -14.71 754.56 C-20.15 762.24 -26.85 767.94 -34.23 773.7 C-35.12 774.4 -36.01 775.1 -36.93 775.82 C-39.02 777.46 -41.12 779.08 -43.23 780.7 C-40.07 781.68 -37.66 781.67 -34.39 781.27 C-27.44 780.56 -20.53 780.52 -13.54 780.51 C-12.27 780.5 -11.01 780.49 -9.7 780.47 C-3.16 780.46 2.52 780.77 8.77 782.7 C11.44 783.2 11.44 783.2 13.77 782.7 C15.92 780.8 15.92 780.8 17.77 778.7 C21.49 777.46 25.09 777.34 28.96 777.14 C29.71 777.09 30.46 777.05 31.23 777.01 C33.08 776.9 34.93 776.8 36.77 776.7 C36.39 766.08 35 754.02 27.77 745.7 C17.39 737.98 -3.32 740.67 -11.73 750.45 Z M44.77 760.7 C44.61 765.04 44.64 767.91 46.77 771.7 C48.61 770.22 50.44 768.74 52.27 767.26 C53.29 766.44 54.32 765.61 55.37 764.77 C56.56 763.74 56.56 763.74 57.77 762.7 C57.77 762.37 57.77 762.04 57.77 761.7 C53.36 760.6 49.29 760.62 44.77 760.7 Z M-116.49 785.68 C-118.5 787.69 -118.5 787.69 -118.91 790.95 C-117.91 796.44 -115.46 799.15 -111.23 802.7 C-101.82 808.95 -90.89 816.08 -79.23 814.7 C-75.03 812.8 -71.7 809.69 -68.23 806.7 C-68.95 805.99 -69.68 805.27 -70.43 804.54 C-82.96 791.81 -82.96 791.81 -84.23 783.7 C-81.22 786.61 -78.4 789.6 -75.66 792.76 C-75.06 793.44 -74.46 794.13 -73.84 794.83 C-72.63 796.23 -71.48 797.67 -70.35 799.14 C-66.94 801.64 -63.39 801.91 -59.23 801.7 C-56.64 800.95 -54.62 799.97 -52.23 798.7 C-54.54 801.34 -56.85 803.98 -59.23 806.7 C-55.78 809.29 -53.15 810.72 -49.23 812.32 C-48.2 812.75 -47.16 813.17 -46.1 813.61 C-37.3 816.94 -29.89 816.14 -21.23 812.7 C-21.89 813.69 -22.55 814.68 -23.23 815.7 C-17.19 815.21 -11.36 814.42 -5.45 813.1 C-3.23 812.7 -3.23 812.7 0.77 812.7 C-6.46 816.77 -13.44 818.18 -21.56 819.59 C-28.77 820.99 -34.18 823.55 -40.23 827.7 C-39.9 828.36 -39.57 829.02 -39.23 829.7 C-36.51 830.47 -33.86 831.12 -31.1 831.7 C-30.37 831.86 -29.64 832.03 -28.89 832.2 C-16.45 834.9 -4.01 836.09 8.71 836.07 C9.71 836.07 9.71 836.07 10.73 836.07 C48.7 835.91 102.68 824.18 132.77 799.7 C137.83 794.64 137.83 794.64 140.1 788.08 C139.97 785.41 139.97 785.41 137.34 783.2 C132.27 779.41 127.21 775.7 120.77 775.7 C121.27 779.6 121.92 783.32 122.9 787.14 C124.04 792.17 124.28 796.96 121.71 801.64 C114.94 805.35 108.24 803.04 101.17 801.42 C92.97 799.68 86.11 800.35 78.77 804.7 C76.93 806.64 75.99 808.27 74.77 810.7 C69.59 810.25 66.37 808.35 62.34 805.26 C55.19 799.8 48.83 798.34 40.02 798.45 C39.24 798.45 38.45 798.46 37.64 798.46 C31.54 798.55 25.71 799.23 19.77 800.7 C20.4 798.95 21.02 797.2 21.65 795.45 C22.17 793.99 22.17 793.99 22.7 792.5 C23.61 790.14 24.59 787.93 25.77 785.7 C22.04 786.2 19.96 786.57 16.77 788.7 C14.4 788.89 14.4 788.89 11.56 788.82 C10.49 788.81 9.43 788.79 8.33 788.77 C7.18 788.75 6.03 788.72 4.84 788.7 C-15.65 788.51 -35.78 789.93 -55.97 793.47 C-56.98 793.64 -57.99 793.81 -59.04 793.99 C-59.92 794.15 -60.8 794.31 -61.72 794.48 C-64.43 794.72 -66.59 794.36 -69.23 793.7 C-68.69 788.87 -65.21 786.3 -61.59 783.38 C-59.78 782 -57.95 780.66 -56.1 779.32 C-55.45 778.85 -54.79 778.37 -54.12 777.88 C-49.25 774.35 -44.27 771.11 -39.11 768.04 C-38.49 767.6 -37.87 767.15 -37.23 766.7 C-37.23 766.04 -37.23 765.38 -37.23 764.7 C-62.01 764.7 -97.04 768.67 -116.49 785.68 Z M128.82 811.4 C124.06 814.6 119.19 817.1 113.96 819.45 C113.04 819.87 112.11 820.29 111.16 820.72 C102 824.77 92.61 828.13 83.14 831.39 C82.01 831.78 80.88 832.17 79.71 832.57 C78.21 833.08 78.21 833.08 76.68 833.6 C70.8 835.83 65.95 838.07 62.77 843.7 C58.24 854.79 58.57 867.91 57.77 879.7 C61.55 876.02 65 872.17 68.4 868.14 C74.03 861.51 79.82 855.05 85.77 848.7 C86.44 847.97 87.11 847.25 87.8 846.5 C91.14 843.01 94.11 840.32 98.77 838.7 C102.19 838.78 103.42 839.4 106.02 841.64 C110.57 846.99 109.3 855.15 109.02 861.85 C108.35 869.51 106.3 877 104.35 884.41 C103.74 886.83 103.24 889.25 102.77 891.7 C103.84 891.3 103.84 891.3 104.93 890.89 C105.89 890.54 106.85 890.19 107.84 889.82 C108.84 889.45 109.84 889.08 110.87 888.7 C113.22 887.89 115.4 887.35 117.84 886.89 C119.29 886.3 119.29 886.3 120.77 885.7 C123.14 879.39 123.92 872.57 125.02 865.95 C125.35 864.04 125.67 862.13 125.99 860.22 C126.22 858.87 126.45 857.51 126.68 856.16 C127.57 850.84 128.5 845.53 129.43 840.22 C129.85 837.84 130.26 835.47 130.68 833.09 C130.95 831.55 131.22 830 131.49 828.46 C131.88 826.28 132.26 824.1 132.64 821.92 C132.86 820.67 133.08 819.42 133.3 818.13 C133.74 814.93 133.86 811.92 133.77 808.7 C131.89 808.7 130.31 810.36 128.82 811.4 Z M-76.23 817.7 C-76.23 818.36 -76.23 819.02 -76.23 819.7 C-72.19 820.88 -68.15 822.04 -64.1 823.2 C-62.96 823.53 -61.82 823.87 -60.64 824.21 C-59.53 824.53 -58.42 824.84 -57.28 825.17 C-56.27 825.46 -55.25 825.75 -54.2 826.06 C-50.31 826.9 -46.77 827.44 -43.11 825.68 C-42.53 825.23 -41.95 824.78 -41.35 824.32 C-40.76 823.88 -40.16 823.44 -39.55 822.99 C-39.11 822.56 -38.68 822.14 -38.23 821.7 C-38.23 821.04 -38.23 820.38 -38.23 819.7 C-39.24 819.37 -40.25 819.05 -41.3 818.71 C-42.65 818.27 -44 817.83 -45.35 817.39 C-46.02 817.17 -46.68 816.96 -47.37 816.74 C-50.56 815.69 -53.46 814.58 -56.48 813.07 C-64.2 809.22 -70.22 812.33 -76.23 817.7 Z M-119.23 810.7 C-117.7 815.91 -116.12 821.09 -114.39 826.23 C-103.87 857.77 -98.41 889.93 -95.35 922.95 C-95.28 923.65 -95.22 924.35 -95.15 925.08 C-94.3 934.06 -94.21 942.71 -95.23 951.7 C-94.19 951.73 -93.15 951.75 -92.08 951.78 C-81.66 952.15 -72.11 953.06 -64.23 960.7 C-63.64 961.72 -63.64 961.72 -63.05 962.75 C-60.34 965.65 -57.86 965.46 -53.98 965.82 C-48.79 966.33 -44.18 967.15 -39.23 968.7 C-38.99 971.93 -39.08 974.65 -40.23 977.7 C-43.3 980.04 -46.63 981.32 -50.23 982.7 C-51.57 983.35 -52.9 984.01 -54.23 984.7 C-51.92 985.49 -49.61 986.25 -47.29 987.01 C-46.67 987.23 -46.05 987.44 -45.41 987.66 C-37.54 990.2 -29.36 991.36 -21.23 992.7 C-21.3 991.87 -21.3 991.87 -21.37 991.02 C-21.88 985.13 -22.38 979.24 -22.88 973.34 C-23.07 971.16 -23.25 968.98 -23.44 966.79 C-25.48 943.18 -26.41 919.69 -26.7 895.99 C-26.84 885.21 -27.08 874.47 -28.07 863.73 C-28.14 862.95 -28.21 862.17 -28.28 861.36 C-28.96 854.79 -30.17 846.39 -35.23 841.7 C-37.75 840.67 -37.75 840.67 -40.68 840.14 C-42.31 839.78 -42.31 839.78 -43.98 839.42 C-45.13 839.18 -46.29 838.94 -47.48 838.7 C-49.84 838.19 -52.2 837.68 -54.56 837.16 C-55.7 836.92 -56.85 836.67 -58.03 836.42 C-63.27 835.24 -68.41 833.77 -73.57 832.27 C-76.31 831.45 -76.31 831.45 -79.23 832.7 C-78.98 833.72 -78.98 833.72 -78.72 834.75 C-69.82 871.37 -67.82 907.15 -68.23 944.7 C-70.23 943.7 -70.23 943.7 -71.29 940.93 C-72.73 935.38 -72.89 929.66 -73.23 923.95 C-73.31 922.69 -73.39 921.43 -73.47 920.14 C-73.93 913.05 -74.32 905.95 -74.69 898.85 C-74.35 860.7 -74.35 860.7 -89.23 827.7 C-92.5 825.47 -95.96 823.77 -99.54 822.07 C-106.46 818.7 -112.93 815.14 -119.23 810.7 Z M46.87 841.76 C27.18 846.28 9.26 847.5 -10.78 844.99 C-15.25 844.46 -19.74 844.09 -24.23 843.7 C-24.18 844.32 -24.13 844.93 -24.07 845.57 C-22.61 863.99 -21.79 882.41 -21.1 900.88 C-20.63 913.57 -20.06 926.22 -19.1 938.89 C-17.77 956.8 -18.04 974.75 -18.23 992.7 C-12.45 995.19 -6.89 995.01 -0.71 995 C0.41 995 1.53 995.01 2.69 995.01 C5.07 995.02 7.45 995.02 9.83 995.01 C13.4 995.01 16.98 995.04 20.56 995.06 C43.09 995.12 62.81 992 83.77 983.7 C83.41 983.24 83.05 982.78 82.67 982.3 C74.48 971.68 68.95 960.78 65.77 947.7 C58.34 949.13 51.38 951.47 44.25 953.95 C25.92 960.3 4.23 967.19 -15.23 961.7 C-15.47 957.22 -15.29 954.88 -12.24 951.48 C-0.65 941.73 14.37 932.5 28.77 927.7 C28.77 928.36 28.77 929.02 28.77 929.7 C26.75 931.47 24.72 933.13 22.59 934.76 C21.96 935.25 21.33 935.74 20.68 936.24 C14.54 940.96 8.18 945.35 1.77 949.7 C-0.59 951.33 -2.92 952.98 -5.23 954.7 C-5.23 955.03 -5.23 955.36 -5.23 955.7 C-3.21 955.78 -1.19 955.84 0.84 955.89 C2.52 955.94 2.52 955.94 4.25 955.99 C16.23 955.62 28.18 951.61 39.59 948.2 C40.93 947.8 42.27 947.41 43.61 947.02 C47.33 945.92 51.05 944.81 54.77 943.7 C55.79 943.4 56.8 943.1 57.84 942.79 C61.17 941.79 64.48 940.8 67.77 939.7 C70.46 945.31 72.89 950.93 74.97 956.79 C78.03 965.42 81.53 973.84 89.77 978.7 C92.52 978.57 92.52 978.57 94.77 977.7 C95.68 974.97 95.9 973.4 95.89 970.59 C95.89 969.77 95.89 968.95 95.89 968.11 C95.88 967.23 95.88 966.35 95.87 965.44 C95.87 964.53 95.87 963.63 95.87 962.69 C95.86 959.8 95.85 956.91 95.84 954.01 C95.83 952.05 95.83 950.09 95.82 948.13 C95.81 943.32 95.79 938.51 95.77 933.7 C94.45 933.7 93.13 933.7 91.77 933.7 C96.06 928.87 101.02 925.96 106.59 922.76 C118.86 916.05 118.86 916.05 128.34 906.07 C128.83 905.34 129.33 904.6 129.84 903.85 C130.96 901.75 130.96 901.75 130.55 899.49 C129.92 897.5 129.92 897.5 127.77 896.7 C123.84 896.43 119.9 896.47 115.96 896.45 C114.87 896.43 113.77 896.41 112.65 896.39 C111.59 896.38 110.53 896.38 109.44 896.37 C108.47 896.36 107.51 896.35 106.51 896.34 C101.92 896.94 98.83 899.32 95.77 902.7 C95.24 893.35 96.9 884.66 98.77 875.57 C101.48 863.25 101.48 863.25 101.77 850.7 C100.78 849.21 100.78 849.21 99.77 847.7 C84.01 852.13 69.18 875.75 60.77 888.7 C60.06 890.35 59.38 892.01 58.77 893.7 C53.16 893.91 48.88 893.4 43.48 891.62 C42.82 891.4 42.15 891.19 41.47 890.97 C39.36 890.28 37.25 889.59 35.15 888.89 C21.14 884.26 7.73 879.96 -7.23 880.7 C-7.56 881.69 -7.89 882.68 -8.23 883.7 C-4.66 890.41 1.62 896.2 6.77 901.7 C7.61 902.6 8.44 903.5 9.3 904.43 C14.88 910.24 20.57 914.99 27.27 919.44 C31.68 922.4 31.68 922.4 32.77 925.7 C21.2 923.83 13.31 917.93 5.27 909.64 C4.54 908.9 3.82 908.16 3.06 907.39 C-14.42 889.35 -14.42 889.35 -15.66 880.64 C-15.23 877.7 -15.23 877.7 -13.41 875.95 C5.57 868.5 26.42 875.5 44.26 883.06 C45.07 883.4 45.87 883.74 46.7 884.09 C47.42 884.4 48.13 884.71 48.87 885.03 C50.91 885.87 50.91 885.87 53.77 885.7 C53.81 884.59 53.81 884.59 53.85 883.46 C53.97 880.06 54.09 876.66 54.21 873.26 C54.25 872.1 54.29 870.93 54.33 869.73 C54.54 863.98 54.86 858.3 55.57 852.58 C55.84 850.09 55.87 847.64 55.84 845.14 C55.83 844.29 55.82 843.44 55.81 842.57 C55.8 841.95 55.79 841.34 55.77 840.7 C52.42 840.7 50.07 840.99 46.87 841.76 Z M110.09 928.07 C106.38 929.95 102.78 931.54 98.77 932.7 C98.98 933.23 99.18 933.77 99.39 934.32 C99.66 935.06 99.93 935.81 100.21 936.57 C100.48 937.29 100.74 938.01 101.02 938.75 C103.03 946.62 102.91 954.76 102.84 962.82 C102.83 963.78 102.83 964.74 102.82 965.72 C102.81 968.05 102.79 970.37 102.77 972.7 C106.11 970.42 107.5 968.64 108.96 964.81 C109.77 962.7 109.77 962.7 111.26 959.68 C113.39 954.73 113.84 949.52 114.46 944.2 C114.59 943.19 114.72 942.19 114.85 941.15 C115.5 935.96 115.93 930.93 115.77 925.7 C113.77 925.7 111.82 927.18 110.09 928.07 Z M-109.23 964.7 C-108.56 967.79 -108.56 967.79 -106.29 968.83 C-96.69 972.46 -84.97 974.78 -75.23 970.7 C-74.24 970.04 -73.25 969.38 -72.23 968.7 C-72.67 966.72 -72.67 966.72 -74.23 964.7 C-80.03 962.05 -84.82 961.21 -91.16 961.32 C-92.34 961.33 -92.34 961.33 -93.55 961.34 C-99.27 961.47 -103.95 962.36 -109.23 964.7 Z M-71.23 975.7 C-70.9 976.36 -70.57 977.02 -70.23 977.7 C-62.86 978.07 -56.23 977.08 -49.23 974.7 C-48.57 974.04 -47.91 973.38 -47.23 972.7 C-57.13 969.97 -62.18 970.69 -71.23 975.7 Z M113.77 975.7 C111.4 978.35 111.4 978.35 110.77 981.7 C112.75 981.7 114.73 981.7 116.77 981.7 C116.11 979.72 115.45 977.74 114.77 975.7 C114.44 975.7 114.11 975.7 113.77 975.7 Z M-91.87 984.27 C-95.99 991.73 -97.78 999.24 -95.73 1007.76 C-93.9 1012.55 -91 1015.35 -86.41 1017.58 C-84.43 1018.41 -82.43 1019.19 -80.41 1019.95 C-79.72 1020.22 -79.03 1020.49 -78.31 1020.76 C-76.62 1021.42 -74.92 1022.06 -73.23 1022.7 C-74.68 1019.66 -76.36 1016.86 -78.16 1014.01 C-84.41 1003.47 -84.6 994.7 -84.23 982.7 C-88.45 982.2 -88.45 982.2 -91.87 984.27 Z M-80.23 984.7 C-81.08 996.76 -77.99 1007.33 -70.23 1016.7 C-58.54 1029.67 -38.71 1032.51 -22.04 1033.45 C-19.77 1033.55 -17.5 1033.64 -15.23 1033.7 C-17.98 1031.53 -20.76 1029.85 -23.85 1028.2 C-33.67 1022.32 -39.84 1013.38 -45.24 1003.55 C-49.09 998.03 -54.91 995.78 -60.91 993.26 C-62.32 992.66 -63.73 992.05 -65.14 991.45 C-65.83 991.16 -66.52 990.86 -67.23 990.56 C-71.6 988.68 -75.91 986.68 -80.23 984.7 Z M83.77 994.7 C81.73 995.7 79.69 996.7 77.65 997.7 C76.35 998.36 75.06 999.03 73.77 999.7 C76.24 1002.16 78.28 1002.69 81.59 1003.76 C82.62 1004.1 83.66 1004.44 84.73 1004.8 C91.8 1006.89 98.4 1008.04 105.4 1005.26 C110.64 1001.82 115.17 996.57 116.47 990.41 C116.57 989.52 116.67 988.62 116.77 987.7 C103.67 985.23 95.32 988.7 83.77 994.7 Z M-39.23 1000.7 C-35.12 1013.65 -25.19 1020.61 -13.66 1026.82 C5.49 1036.01 21.25 1034.92 41.77 1031.7 C41.77 1031.04 41.77 1030.38 41.77 1029.7 C40.54 1029.3 40.54 1029.3 39.28 1028.89 C29.98 1025.62 22.16 1021.39 16.15 1013.39 C9.98 1006.41 -0.67 1006.67 -9.35 1005.7 C-19.46 1004.55 -29.31 1003.02 -39.23 1000.7 Z M50.09 1005.07 C39.37 1006.9 28.6 1007.84 17.77 1008.7 C27.37 1018.46 36.55 1025.76 50.64 1026.24 C67.65 1026.37 80.95 1021.73 95.77 1013.7 C91.26 1011.12 86.21 1010.03 81.24 1008.64 C77.73 1007.64 74.6 1006.62 71.29 1005.04 C64.28 1002.37 57.29 1003.77 50.09 1005.07 Z " fill="#000000" transform="translate(581.2265625,64.30078125)"/>
<path d="M0 0 C1.28 2.05 1.28 2.05 2 4 C-1.22 7.75 -4.26 9.14 -8.88 10.79 C-9.58 11.04 -10.27 11.29 -10.98 11.55 C-21.5 15.31 -32.12 18.81 -42.72 22.32 C-52.64 25.61 -62.45 29 -72.01 33.23 C-72.74 33.55 -73.46 33.87 -74.2 34.2 C-79.25 36.5 -83.76 39.25 -88.15 42.65 C-90 44 -90 44 -93 45 C-95.36 49.09 -95.86 53.4 -95 58 C-91.97 65.91 -87.52 72.63 -82 79 C-80.81 80.39 -80.81 80.39 -79.6 81.8 C-68.1 94.95 -54.88 104.96 -40 114 C-39.38 114.39 -38.76 114.78 -38.12 115.17 C23.28 153.42 110.18 158.86 180 147 C180.73 146.88 181.45 146.76 182.2 146.63 C202.93 143.17 223.01 138.53 243 132 C244.45 131.53 245.9 131.07 247.35 130.6 C278.65 120.97 278.65 120.97 307.75 106.25 C310 105 310 105 313 105 C313 105.66 313 106.32 313 107 C311.05 108.55 311.05 108.55 308.31 110.38 C307.31 111.05 306.31 111.72 305.28 112.41 C303.66 113.47 303.66 113.47 302 114.56 C300.9 115.29 299.8 116.01 298.67 116.76 C290.3 122.24 281.89 127.42 273 132 C272.31 132.36 271.63 132.72 270.92 133.09 C234.58 152.01 191.62 159.97 151 163 C149.88 163.09 148.75 163.17 147.6 163.26 C136.89 164.01 126.23 164.2 115.5 164.19 C114.18 164.19 114.18 164.19 112.84 164.19 C98.81 164.16 84.93 163.77 71 162 C69.98 161.87 68.96 161.74 67.91 161.61 C16.92 154.93 -40.04 138.52 -78 102 C-78.5 101.53 -79.01 101.05 -79.53 100.57 C-93.1 87.81 -107.48 71.48 -109.38 52.19 C-109.13 45.17 -106.33 39.02 -101.62 33.88 C-81.34 15.34 -47.05 6.48 -20.75 0.81 C-19.81 0.6 -18.86 0.4 -17.89 0.18 C-12.09 -0.96 -5.72 -1.92 0 0 Z " fill="#000000" transform="translate(610,396)"/>
<path d="M0 0 C4.5 4.2 7.8 8.88 9 15 C8.94 17.49 8.56 19.55 8 22 C7.05 22.12 7.05 22.12 6.07 22.25 C5.39 22.49 4.71 22.74 4 23 C3.19 24.83 3.19 24.83 2.81 27.06 C1.07 33.09 -2.94 36.5 -8 40 C-13.52 42.71 -18.97 42.86 -25 42 C-30.02 39.94 -33.16 37.32 -36.06 32.75 C-37.92 25.33 -37.25 19.27 -35 12 C-34.85 10.46 -34.73 8.92 -34.62 7.38 C-34.2 3.16 -33.2 0.94 -30 -2 C-20.2 -7.96 -8.79 -7.32 0 0 Z M-29 7 C-30.13 9.61 -30.13 9.61 -30 12 C-29.34 11.53 -28.68 11.05 -28 10.56 C-23.79 8.37 -19.67 7.31 -15.04 8.51 C-11.76 9.83 -9.25 11.3 -7 14 C-6.05 16.26 -6.05 16.26 -5.31 18.69 C-5.06 19.5 -4.81 20.3 -4.55 21.14 C-4.37 21.75 -4.19 22.37 -4 23 C-2.62 21.71 -1.29 20.37 0 19 C0 18.34 0 17.68 0 17 C0.66 16.67 1.32 16.34 2 16 C-1.49 8.47 -1.49 8.47 -7.92 3.59 C-15.07 1.56 -23.14 2.09 -29 7 Z M-18 15 C-18 16.65 -18 18.3 -18 20 C-16.35 20 -14.7 20 -13 20 C-13.33 18.68 -13.66 17.36 -14 16 C-15.32 15.67 -16.64 15.34 -18 15 Z M-26 17 C-29.21 21.71 -29.21 21.71 -30 27.19 C-28.81 30.53 -27.93 31.99 -25 34 C-21.5 34.67 -21.5 34.67 -18 34 C-15.09 31.78 -14.16 30.48 -13 27 C-13.91 27.08 -14.82 27.16 -15.75 27.25 C-19 27 -19 27 -21.25 25.38 C-23.24 22.68 -24.12 20.22 -25 17 C-25.33 17 -25.66 17 -26 17 Z " fill="#000000" transform="translate(537,97)"/>
<path d="M0 0 C-1.42 3.58 -2.88 4.82 -6.28 6.56 C-7.17 7.02 -8.06 7.48 -8.98 7.96 C-10.44 8.69 -10.44 8.69 -11.94 9.44 C-13.47 10.22 -13.47 10.22 -15.03 11.01 C-18.35 12.69 -21.67 14.34 -25 16 C-26.1 16.55 -27.2 17.11 -28.33 17.68 C-60.03 33.68 -91.8 43.47 -127 48 C-127.88 48.12 -128.75 48.24 -129.66 48.36 C-142.63 50.06 -155.62 50.2 -168.69 50.25 C-169.5 50.26 -170.32 50.26 -171.16 50.27 C-180.2 50.31 -189.14 50.04 -198.14 49.11 C-198.89 49.03 -199.65 48.95 -200.42 48.87 C-211.55 47.6 -222.49 44.82 -233 41 C-232.67 40.01 -232.34 39.02 -232 38 C-224.87 38.75 -217.81 39.76 -210.72 40.89 C-140.44 51.79 -69.74 32.99 -6.9 2.29 C-2.19 0 -2.19 0 0 0 Z " fill="#000000" transform="translate(867,442)"/>
<path d="M0 0 C5.11 1.76 8.9 6.15 11.72 10.59 C12.76 13.57 13.36 16.46 13.72 19.59 C10.06 19.02 10.06 19.02 8.52 17.07 C8.17 16.46 7.82 15.84 7.47 15.21 C5.09 11.69 3 10.25 -1.05 9.02 C-8.37 7.62 -15.95 8.72 -23.28 9.59 C-23.61 8.27 -23.94 6.95 -24.28 5.59 C-17.63 -2.2 -9.67 -1.74 0 0 Z " fill="#000000" transform="translate(540.28125,68.41015625)"/>
<path d="M0 0 C-9.82 9.15 -22.64 11.41 -35.55 11.19 C-42.73 10.8 -48.71 10.29 -54 5 C-53.67 4.01 -53.34 3.02 -53 2 C-52.1 2.32 -52.1 2.32 -51.19 2.66 C-35.86 7.58 -21.58 5.08 -6.72 -0.16 C-3.91 -1.03 -2.7 -1.04 0 0 Z " fill="#000000" transform="translate(677,872)"/>
<path d="M0 0 C2.39 3.37 2.16 6.19 1.54 10.1 C0.73 12.96 -0.61 14.29 -3 16 C-5.06 16.88 -5.06 16.88 -7 17 C-7.99 16.34 -8.98 15.68 -10 15 C-9.67 14.01 -9.34 13.02 -9 12 C-7.35 11.67 -5.7 11.34 -4 11 C-4.03 9.03 -4.03 9.03 -5 7 C-8 5.7 -8 5.7 -11 5 C-10.62 3.06 -10.62 3.06 -10 1 C-6.79 -0.61 -3.56 -0.06 0 0 Z " fill="#000000" transform="translate(660,969)"/>
<path d="M0 0 C8.65 0.77 17.3 1.58 25.94 2.44 C27.24 2.56 28.54 2.68 29.88 2.81 C31.12 2.93 32.37 3.06 33.65 3.18 C35.34 3.35 35.34 3.35 37.06 3.51 C39.79 3.97 41.64 4.6 44 6 C31.81 8.81 13.65 7.85 2 3 C1.34 2.01 0.68 1.02 0 0 Z " fill="#000000" transform="translate(540,863)"/>
<path d="M0 0 C0.78 0.04 1.57 0.08 2.38 0.12 C2.04 1.77 1.72 3.42 1.38 5.12 C-0.61 5.46 -2.59 5.78 -4.62 6.12 C-4.62 1.72 -4.59 0.22 0 0 Z " fill="#000000" transform="translate(680.625,974.875)"/>
<path d="M0 0 C3.65 1.25 4.78 1.67 7 5 C7 5.99 7 6.98 7 8 C4.62 7.69 4.62 7.69 2 7 C0 4 0 4 0 0 Z " fill="#000000" transform="translate(660,952)"/>
<path d="M0 0 C1.32 0 2.64 0 4 0 C3.61 2.8 3.2 3.82 1.06 5.75 C-1 7 -1 7 -3 7 C-2.25 2.25 -2.25 2.25 0 0 Z " fill="#000000" transform="translate(658,998)"/>
<path d="M0 0 C2 1 4 2 6 3 C6 3.66 6 4.32 6 5 C4.35 5 2.7 5 1 5 C0.67 3.35 0.34 1.7 0 0 Z " fill="#000000" transform="translate(638,981)"/>
<path d="M0 0 C0.66 0.66 1.32 1.32 2 2 C1.34 2 0.68 2 0 2 C0 1.34 0 0.68 0 0 Z " fill="#000000" transform="translate(508,1205)"/>
<path d="M0 0 C2 1 2 1 2 1 Z " fill="#000000" transform="translate(593,1228)"/>
<path d="" fill="#000000" transform="translate(0,0)"/>
<path d="" fill="#000000" transform="translate(0,0)"/>
<path d="M0 0 C2 1 2 1 2 1 Z " fill="#000000" transform="translate(526,1208)"/>
</svg>
