<?xml version="1.0" encoding="UTF-8"?>
<!-- Generator: visioncortex VTracer 0.6.3 -->
<svg version="1.1" xmlns="http://www.w3.org/2000/svg" width="1280" height="1280">
<path d="M0 0 C1.06 0.36 2.11 0.72 3.2 1.09 C30.7 10.66 55.68 24.4 76.81 44.56 C77.45 45.13 78.08 45.71 78.74 46.3 C95.63 62.11 107.23 83.34 115.81 104.56 C119.62 103.12 123.15 101.39 126.73 99.47 C178.42 72.07 231.09 57.09 289.69 57.3 C293.24 57.31 296.8 57.3 300.35 57.29 C359.9 57.25 418.68 73.9 469.81 104.56 C471.91 100.42 473.97 96.27 475.89 92.05 C480.2 82.63 484.64 73.92 490.81 65.56 C491.64 64.42 491.64 64.42 492.48 63.26 C513.9 34.66 543.62 15.76 576.81 3.56 C577.71 3.23 578.6 2.89 579.52 2.54 C582.22 1.54 584.92 0.54 587.62 -0.44 C588.44 -0.74 589.26 -1.04 590.1 -1.36 C595.54 -3.28 600.25 -4.3 606.01 -2.91 C608.92 -0.53 610.18 2.7 611.69 6.06 C612.03 6.82 612.38 7.58 612.73 8.36 C620.76 26.38 626.18 45.77 626.81 65.56 C626.85 66.38 626.89 67.2 626.93 68.05 C627.63 92.97 617.33 114.42 600.5 132.25 C585.29 146.55 567.03 156.25 547.71 163.78 C545.69 164.61 543.76 165.56 541.81 166.56 C542.55 167.52 543.29 168.48 544.05 169.46 C578.78 214.89 600.33 266.8 600.12 324.56 C600.12 325.51 600.12 326.45 600.12 327.42 C600.11 341.71 599.28 355.47 596.81 369.56 C635.75 369.91 669.46 367.04 707.12 356.47 C764.39 340.54 822.44 338.17 875.85 366.92 C887.37 373.11 897.76 377.98 910.81 379.56 C911.55 379.66 912.29 379.75 913.06 379.84 C940.83 383.03 973.8 381.76 997.81 365.56 C1000.51 363.3 1001.22 361.83 1001.59 358.35 C1001.69 357.53 1001.79 356.7 1001.89 355.85 C1002.04 354.53 1002.04 354.53 1002.19 353.19 C1004.58 335.18 1011.79 320.42 1025.81 308.56 C1038.98 298.51 1053.52 294.11 1069.44 290.5 C1087.09 287.26 1087.09 287.26 1102 278.25 C1102.81 277.47 1103.63 276.69 1104.46 275.89 C1105.24 275.12 1106.01 274.35 1106.81 273.56 C1113.65 267 1113.65 267 1118 265.38 C1120.81 265.56 1120.81 265.56 1123.69 266.88 C1126.87 270.9 1126.21 274.58 1125.81 279.56 C1125.19 283.42 1124.29 287.16 1123.31 290.94 C1123.05 291.98 1122.78 293.02 1122.5 294.09 C1114.04 325.85 1095.74 360.76 1066.88 378.38 C1057.36 383.66 1048.41 386.77 1037.5 386.44 C1030.36 386.34 1024.82 386.66 1019.44 391.85 C1018.57 392.75 1017.71 393.64 1016.81 394.56 C996.2 414.56 971.88 427.05 945.81 438.56 C946.13 439.29 946.45 440.02 946.77 440.76 C962.01 476.02 974.26 512.32 974.25 551.06 C974.25 551.96 974.25 552.85 974.25 553.77 C974.21 577.77 970.42 600.75 962.81 623.56 C962.47 624.6 962.47 624.6 962.12 625.66 C953.9 650.18 941.44 672.17 923.93 691.2 C921.78 693.54 921.78 693.54 919.88 696.08 C914.45 702.61 906.88 707.9 899.81 712.56 C899.15 712.56 898.49 712.56 897.81 712.56 C894.46 730.68 894.69 748.96 894.86 767.32 C894.9 772.3 894.93 777.29 894.95 782.28 C895 791.52 895.05 800.76 895.13 809.99 C895.19 816.47 895.23 822.94 895.25 829.42 C895.26 831.86 895.28 834.31 895.31 836.76 C895.51 853.45 895.42 865.87 883.19 878.44 C864.24 895.37 828.86 891.86 805.19 891.94 C804.08 891.95 802.97 891.95 801.83 891.96 C789.41 892.03 777.14 891.62 764.79 890.29 C763.73 890.18 762.68 890.07 761.59 889.96 C751.5 888.75 742.28 885.71 734.81 878.56 C733.99 877.36 733.19 876.13 732.44 874.88 C729.35 870.26 725.04 869.65 719.81 868.56 C715.46 867.99 711.1 867.62 706.72 867.28 C671.92 864.57 671.92 864.57 660.5 852.19 C654.69 844.89 652.85 837.9 652.31 828.69 C652.27 827.98 652.23 827.28 652.19 826.55 C651.9 821.36 651.75 816.17 651.63 810.97 C651.6 809.61 651.57 808.24 651.53 806.88 C651.47 804.18 651.42 801.48 651.38 798.78 C651.11 787.25 650.11 775.34 641.81 766.56 C635.25 761.93 628.29 761.43 620.45 761.17 C618.75 761.1 617.06 761.03 615.37 760.97 C614.48 760.93 613.59 760.9 612.68 760.86 C588.72 759.89 565.32 757.47 541.81 752.56 C541.82 753.68 541.82 754.8 541.83 755.96 C541.93 779.68 541.85 803.4 541.49 827.13 C541.46 829.7 541.42 832.27 541.39 834.85 C541.35 838.48 541.29 842.11 541.23 845.75 C541.21 847.36 541.21 847.36 541.19 849.01 C540.97 860.18 538.52 868.98 531.06 877.58 C511.55 896.27 470.55 893.01 445 892.49 C433.61 892.2 422.26 891.52 410.94 890.25 C409.96 890.14 408.99 890.04 407.99 889.93 C398.94 888.78 390.07 886.64 383.38 880.12 C382.2 879.01 382.2 879.01 381 877.88 C378.81 875.56 378.81 875.56 376.96 872.9 C372.69 868.25 366.16 868.26 360.15 867.82 C358.68 867.7 357.21 867.58 355.75 867.47 C353.48 867.29 351.21 867.13 348.94 866.96 C321.98 864.96 321.98 864.96 312.81 857.56 C312.21 857.08 311.61 856.6 310.98 856.11 C301.83 847.93 299.56 838.3 298.81 826.56 C298.58 822.04 298.42 817.51 298.28 812.98 C298.22 811.04 298.22 811.04 298.16 809.06 C297.72 794.86 297.54 780.65 297.37 766.44 C297.27 758.75 297.17 751.06 297.06 743.38 C297.05 742.63 297.04 741.88 297.03 741.11 C297.83 694.36 297.83 694.36 290.81 648.56 C279.27 645.56 267.75 644.03 255.88 643.06 C254.41 642.94 252.94 642.82 251.48 642.7 C250.74 642.64 250 642.58 249.24 642.52 C248.13 642.43 248.13 642.43 246.98 642.33 C246.23 642.27 245.48 642.21 244.7 642.15 C192.66 637.84 138.51 628.8 91.16 605.71 C88.72 604.52 86.27 603.36 83.82 602.2 C47.52 584.8 8.33 556.16 -6.13 517.01 C-17.51 483.18 -15.17 453.56 -3.08 420.28 C-0.34 411.94 -0.99 405.34 -3.88 397.25 C-23.61 338.03 -15.48 272.26 11.55 216.83 C20.5 199.08 31.94 183.44 43.81 167.56 C41.34 165.91 39.51 164.98 36.78 163.97 C5.51 152.14 -20.17 134.84 -34.33 103.6 C-45.21 77.69 -42.35 45.11 -31.9 19.51 C-30.06 15.2 -28.11 10.96 -26.06 6.75 C-25.74 6.07 -25.41 5.4 -25.08 4.7 C-19.18 -7 -10.59 -3.64 0 0 Z M-14.19 16.56 C-16.65 22.85 -18.98 29.18 -21.19 35.56 C-21.43 36.25 -21.67 36.94 -21.91 37.65 C-25.21 47.61 -25.57 57.44 -25.62 67.88 C-25.64 69.14 -25.65 70.4 -25.66 71.7 C-25.46 92.29 -17.5 108.99 -3.19 123.56 C-2.22 124.56 -2.22 124.56 -1.24 125.58 C9.88 136.29 24.33 143.6 38.81 148.56 C40 148.97 41.19 149.38 42.42 149.81 C47.76 151.55 52.16 152.78 57.81 152.56 C53.94 149.22 49.37 147.45 44.75 145.38 C32.79 139.84 23.38 132.59 13.81 123.56 C13.17 122.98 12.54 122.39 11.88 121.79 C0.59 111.07 -8.02 96.21 -9.19 80.56 C-9.26 79.73 -9.33 78.9 -9.4 78.04 C-9.92 64.89 -6.74 51.37 -2.96 38.86 C-1.8 33.9 -1.4 30.05 -3.81 25.5 C-6.45 22.24 -9.09 19.39 -12.19 16.56 C-12.85 16.56 -13.51 16.56 -14.19 16.56 Z M593.81 20.25 C592.76 21.28 592.76 21.28 591.69 22.32 C588.58 26.03 587.58 28.82 588 33.62 C588.81 39.41 590.35 45.03 591.81 50.69 C596.51 69.75 598.04 87.08 587.78 104.59 C584.75 109.18 581.39 113.39 577.81 117.56 C576.98 118.62 576.15 119.69 575.31 120.75 C562.6 135.05 545.83 143.5 528.81 151.56 C528.81 151.89 528.81 152.22 528.81 152.56 C535.16 152.04 540.38 150.48 546.25 148.06 C547.55 147.53 547.55 147.53 548.89 146.98 C563.34 140.94 575.93 133.81 587.81 123.56 C588.5 122.99 589.18 122.42 589.88 121.84 C603.78 109.23 610.66 91.33 612 73.05 C612.55 53.71 607.26 34.24 599.81 16.56 C596.82 16.56 595.9 18.18 593.81 20.25 Z M10.81 41.56 C9.99 44.58 9.18 47.6 8.38 50.62 C8.14 51.47 7.91 52.32 7.68 53.19 C3.97 67.13 2.26 82.15 9.25 95.27 C21.75 116.02 40.95 129.21 62.81 138.56 C63.14 138.56 63.47 138.56 63.81 138.56 C64.24 105.96 40.67 72.79 19.81 49.56 C17.92 47.33 16.04 45.09 14.15 42.86 C12.88 41.33 12.88 41.33 10.81 41.56 Z M572.81 41.56 C548.09 68.69 525.72 101.25 521.81 138.56 C544.25 130.71 566.55 115.19 577.81 93.56 C580.43 87.38 581.33 81.75 581.25 75.06 C581.24 74.2 581.24 73.34 581.23 72.46 C580.98 61.7 578.96 51.09 573.81 41.56 C573.48 41.56 573.15 41.56 572.81 41.56 Z M15.81 22.56 C18.07 26.72 20.92 29.94 24.19 33.31 C31.37 40.92 37.61 49.15 43.81 57.56 C44.51 58.49 44.51 58.49 45.21 59.44 C63.26 83.76 76.22 109.92 78.75 140.56 C78.82 141.26 78.89 141.95 78.96 142.67 C79.32 148.3 77.93 151.07 74.81 155.56 C72.7 157.93 72.7 157.93 70.5 160 C66.35 164.02 62.51 168.13 58.81 172.56 C58.39 173.07 57.96 173.58 57.52 174.1 C15.82 223.96 -2.81 284.54 1.01 348.97 C1.55 354.92 2.55 360.73 3.81 366.56 C4.02 367.55 4.23 368.54 4.45 369.55 C6.96 381.17 9.75 392.64 14.07 403.73 C16.44 410.14 16 414.75 13.39 420.92 C12.81 422.04 12.23 423.16 11.62 424.31 C8.6 430.4 6.37 436.55 4.44 443.06 C4.19 443.9 3.94 444.74 3.68 445.6 C-3.58 470.75 0.37 499.64 12.92 522.47 C17.24 530.04 22.1 536.97 27.81 543.56 C28.48 544.36 29.14 545.15 29.82 545.97 C44.3 562.83 63.21 575.4 82.81 585.56 C83.7 586.02 84.59 586.48 85.5 586.96 C134.64 612.11 193.53 625.77 248.81 627.56 C238.08 613 213.94 611.65 197.44 608.62 C180.68 605.54 166 602.4 155.12 588.06 C142.71 568.98 137.61 545.09 142 522.67 C146.51 505.35 154.92 489.89 166.81 476.56 C167.95 475.21 167.95 475.21 169.11 473.83 C184 456.59 205.2 442.92 226.21 434.31 C227.15 433.93 228.09 433.54 229.05 433.14 C230.89 432.4 232.73 431.67 234.58 430.97 C241.85 428.05 245.98 424.47 249.32 417.34 C249.71 416.21 250.1 415.09 250.5 413.94 C256.68 397.3 266.02 375.04 281.81 365.56 C287.32 363.32 292.1 363.15 297.81 364.56 C302.44 366.79 304.25 368.85 306.16 373.58 C307.27 376.94 307.67 380.33 308.06 383.84 C308.26 385.42 308.46 387 308.66 388.58 C308.96 391.04 309.25 393.5 309.54 395.96 C309.82 398.36 310.13 400.76 310.43 403.15 C310.51 403.88 310.59 404.6 310.67 405.35 C311.43 411.22 312.99 417.37 317.84 421.14 C318.55 421.4 319.25 421.66 319.98 421.92 C320.77 422.22 321.56 422.51 322.37 422.81 C326.26 424.01 330.16 424.95 334.12 425.81 C372.76 434.94 409.34 458.33 430.67 492.2 C443.79 513.81 448.59 536.47 442.58 561.37 C438.44 577.08 431.46 591.19 417.56 600.19 C407.22 605.89 395.68 607.86 384.19 610.03 C383.52 610.15 382.84 610.28 382.15 610.41 C378.81 611.04 375.46 611.66 372.1 612.24 C359.98 614.45 347.44 617.42 337.81 625.56 C337.48 626.22 337.15 626.88 336.81 627.56 C394.53 625.69 453.67 611.09 504.81 584.56 C505.67 584.12 506.52 583.68 507.4 583.22 C520.59 576.31 532.52 568.07 543.37 557.85 C545.46 555.89 547.6 554.07 549.81 552.25 C562.45 541.19 572.7 526.14 578.81 510.56 C579.35 509.24 579.35 509.24 579.89 507.88 C589.34 482.35 587.48 453.31 576.37 428.68 C575.55 426.93 574.73 425.18 573.9 423.44 C573.32 422.23 573.32 422.23 572.74 421 C572.22 419.93 572.22 419.93 571.69 418.84 C569.66 413.55 569.67 409.88 571.51 404.55 C571.89 403.39 572.28 402.23 572.67 401.04 C573.09 399.81 573.51 398.58 573.94 397.31 C580.34 377.84 584.86 357.69 585.05 337.12 C585.07 335.81 585.07 335.81 585.08 334.46 C585.25 315.8 585.28 297.79 580.81 279.56 C580.6 278.66 580.39 277.77 580.18 276.84 C571.1 238.39 553.75 201.98 526.89 172.82 C524.43 170.14 522.06 167.38 519.72 164.59 C517.78 162.44 517.78 162.44 515.16 160.41 C511.11 156.99 508.23 154.42 507.04 149.14 C506.93 144.84 507.23 140.81 507.81 136.56 C507.92 135.7 508.04 134.85 508.15 133.96 C514.21 90.4 540.9 56.19 569.81 24.56 C569.48 23.9 569.15 23.24 568.81 22.56 C553.77 29.91 540.38 37.43 527.81 48.56 C527.11 49.16 526.4 49.75 525.67 50.37 C505.26 67.61 492.43 87.3 482.96 112.15 C479.39 121.3 479.39 121.3 475.81 123.56 C471.24 123.55 467.52 120.89 463.69 118.62 C462.25 117.8 460.82 116.98 459.38 116.16 C458.63 115.73 457.89 115.3 457.11 114.86 C450.11 110.91 442.99 107.18 435.81 103.56 C435.07 103.19 434.32 102.81 433.55 102.42 C363.32 67.61 278.74 63.32 203.81 83.56 C202.38 83.95 202.38 83.95 200.92 84.34 C173.74 91.79 147.11 102.86 123.44 118.25 C118.38 121.46 114.84 122.85 108.81 122.56 C106.21 120.56 105.17 118.46 104.05 115.42 C103.74 114.61 103.43 113.79 103.11 112.95 C102.79 112.08 102.46 111.21 102.12 110.31 C94 89.45 82.46 71.61 66.81 55.56 C66.25 54.93 65.68 54.31 65.1 53.66 C52.89 40.46 34.31 29.42 17.81 22.56 C17.15 22.56 16.49 22.56 15.81 22.56 Z M1104.81 294.56 C1104.17 294.94 1103.53 295.32 1102.86 295.7 C1092.75 301.22 1082.17 303.48 1071.02 306.02 C1052.37 310.31 1034.97 316.46 1023.88 333.12 C1022.83 334.92 1021.8 336.73 1020.81 338.56 C1020.27 339.49 1020.27 339.49 1019.72 340.44 C1017.45 345.14 1017.48 350.13 1017.38 355.25 C1017.35 355.99 1017.33 356.73 1017.31 357.48 C1017.32 361.12 1017.68 363.34 1019.59 366.46 C1025.34 371.9 1032.2 371.47 1039.81 371.56 C1052.02 370.84 1061.78 364.39 1070.81 356.56 C1071.53 355.94 1072.25 355.32 1072.98 354.68 C1086.93 341.67 1096.63 323.37 1103.44 305.75 C1103.7 305.09 1103.96 304.42 1104.23 303.74 C1105.52 300.21 1105.92 298.13 1104.81 294.56 Z M709 371.81 C704.73 372.9 700.46 373.98 696.2 375.06 C693.08 375.86 689.96 376.66 686.85 377.47 C669.22 382.01 652.47 383.82 634.31 384.19 C632.75 384.23 631.19 384.26 629.63 384.3 C628.08 384.34 626.52 384.38 624.97 384.41 C624.21 384.43 623.45 384.45 622.67 384.47 C618.8 384.55 614.95 384.56 611.08 384.44 C610.32 384.43 609.55 384.41 608.77 384.39 C607.32 384.36 605.88 384.3 604.44 384.23 C599.41 384.12 596.66 385.38 592.81 388.56 C591.08 391.37 591.08 391.37 590 394.5 C589.4 396.03 589.4 396.03 588.79 397.59 C585.39 407.91 586.25 416.68 590.56 426.5 C601.82 454.43 603.08 486.98 592.12 515.31 C571.83 562.27 528.79 592.33 482.52 610.88 C462.58 618.55 442.06 625.11 421.11 629.4 C420.38 629.55 419.65 629.7 418.9 629.86 C415.34 630.59 411.78 631.3 408.21 631.95 C400.64 633.18 400.64 633.18 394.54 637.38 C380.93 662.53 384.66 700.2 384.68 727.86 C384.68 730.58 384.68 733.3 384.68 736.02 C384.67 741.7 384.68 747.39 384.68 753.07 C384.69 758.83 384.69 764.6 384.68 770.36 C384.58 807.8 384.58 807.8 385.2 845.24 C385.23 846.48 385.26 847.72 385.29 849 C385.33 850.09 385.36 851.19 385.4 852.32 C385.45 853.68 385.45 853.68 385.5 855.07 C385.85 857.83 386.68 860.04 387.81 862.56 C388.47 862.56 389.13 862.56 389.81 862.56 C390.2 861.83 390.59 861.09 390.98 860.33 C396.29 850.38 400.82 844.23 411.81 840.56 C423.43 839.63 433.47 841.22 442.81 848.56 C444.52 850.19 446.19 851.85 447.81 853.56 C448.27 853.12 448.74 852.67 449.21 852.21 C457.4 844.62 465.46 840.3 476.81 840.56 C485.21 841.17 491.84 844.29 497.6 850.49 C502.88 857.18 505.22 864.29 506.81 872.56 C513.28 871.95 517.46 869.33 521.62 864.44 C528.5 855.4 525.99 840.19 526.08 829.16 C526.09 827.45 526.11 825.74 526.13 824.03 C526.16 820.37 526.2 816.71 526.23 813.06 C526.28 807.27 526.33 801.49 526.39 795.71 C526.56 779.28 526.72 762.85 526.86 746.42 C526.94 737.32 527.03 728.22 527.13 719.13 C527.19 713.38 527.24 707.63 527.28 701.88 C527.31 698.31 527.35 694.74 527.39 691.18 C527.41 689.52 527.42 687.86 527.43 686.21 C527.45 683.95 527.47 681.7 527.5 679.44 C527.51 678.18 527.53 676.91 527.54 675.61 C527.81 672.56 527.81 672.56 529.81 669.56 C535.94 669.12 535.94 669.12 538.81 670.56 C542.64 681.56 541.09 695.64 541.24 707.12 C541.49 717.38 541.91 728.41 548.81 736.56 C551.82 739.2 554.11 740.06 558.05 740.66 C559.1 740.82 560.15 740.98 561.23 741.15 C562.88 741.39 562.88 741.39 564.56 741.62 C565.58 741.79 566.6 741.95 567.66 742.11 C589.11 745.31 610.6 745.91 632.25 745.88 C635.2 745.87 638.16 745.88 641.12 745.9 C665.06 746.04 688.39 744.57 711.94 739.88 C713.11 739.65 714.28 739.43 715.48 739.19 C718.26 738.66 721.04 738.11 723.81 737.56 C723.81 736.9 723.81 736.24 723.81 735.56 C722.89 735.11 721.97 734.66 721.02 734.2 C711.34 729.33 703.04 723.6 694.81 716.56 C694.12 715.97 693.42 715.37 692.7 714.76 C679.23 702.28 669.06 681.77 667.65 663.42 C667.54 659.58 667.64 657.82 669.81 654.56 C671.76 654.27 671.76 654.27 673.94 654.38 C675.22 654.44 676.5 654.5 677.81 654.56 C680.36 659.88 682.36 665.11 683.89 670.8 C689.98 693.48 704.29 708.01 724.04 719.91 C731.07 724.34 732.58 731.06 734.44 738.75 C738.22 758.55 738.18 778.73 738.38 798.81 C738.55 813.89 738.72 828.97 739.21 844.05 C739.24 845.11 739.27 846.17 739.3 847.27 C739.5 852.67 739.87 857.48 741.81 862.56 C742.47 862.89 743.13 863.22 743.81 863.56 C744.23 862.38 744.23 862.38 744.66 861.18 C747.95 852.55 751.51 846.69 759.69 842.12 C767.61 839.02 777.3 839.16 785.37 841.67 C791.63 844.58 795.79 847.97 799.81 853.56 C802.7 852.24 804.86 850.78 807.19 848.62 C815.43 841.39 824.32 840.75 834.85 841.33 C841.72 842.14 847.55 846.32 851.81 851.56 C856.71 857.89 858.73 864.91 860.81 872.56 C866.52 871.75 870.38 870.38 874.27 865.88 C884.12 852.69 879.93 828.4 879.86 812.89 C879.84 808.65 879.83 804.4 879.82 800.16 C879.8 788.1 879.76 776.05 879.72 763.99 C879.69 757.3 879.67 750.6 879.66 743.91 C879.66 739.69 879.64 735.47 879.62 731.26 C879.61 728.03 879.6 724.8 879.6 721.57 C879.59 719.83 879.59 719.83 879.57 718.05 C879.58 716.98 879.58 715.92 879.58 714.82 C879.58 713.9 879.57 712.97 879.57 712.02 C879.83 709.37 880.38 707.79 881.81 705.56 C884.25 703.96 884.25 703.96 887.25 702.38 C918.88 684.6 940.3 648.1 950.15 614 C959.81 578.73 963.45 540.17 953.81 504.56 C953.53 503.52 953.25 502.48 952.97 501.41 C943.95 468.52 930.65 433.91 906.86 408.73 C904.94 406.69 903.16 404.59 901.38 402.44 C880.26 378.43 840.83 364.31 809.81 360.56 C808.83 360.43 807.85 360.3 806.84 360.17 C773.35 356.55 741.21 363.59 709 371.81 Z M283.98 382.36 C269.2 397.41 262.36 418.45 257.81 438.56 C257.55 439.63 257.55 439.63 257.28 440.71 C254.54 451.84 254.48 463.11 254.38 474.5 C254.36 475.26 254.35 476.02 254.34 476.8 C254.18 488.7 255.3 499.32 263.13 508.85 C270.76 516.63 281.11 518.64 291.69 519 C304.78 518.67 318.73 514.29 327.94 504.62 C330.84 500.89 332.22 498.43 331.81 493.56 C329.32 487.05 325.63 481.2 321.94 475.31 C305.3 448.57 296.5 417.23 295.16 385.84 C294.83 382.7 294.14 380.4 292.81 377.56 C288.54 377.56 287.04 379.53 283.98 382.36 Z M999 382.19 C973.14 394.88 946.08 396.08 917.81 397.56 C918.17 398.02 918.52 398.49 918.88 398.96 C922.99 404.38 926.87 409.94 930.69 415.56 C931.28 416.43 931.87 417.3 932.48 418.2 C933.93 420.32 935.37 422.44 936.81 424.56 C940.1 423.99 942.97 423.2 946.01 421.85 C946.8 421.5 947.59 421.15 948.4 420.78 C949.24 420.4 950.07 420.02 950.94 419.62 C951.81 419.23 952.69 418.83 953.59 418.42 C972.2 409.85 987.68 400.5 1002.81 386.56 C1005.47 384.22 1008.14 381.89 1010.81 379.56 C1006.12 378 1003.17 380.04 999 382.19 Z M319.81 437.56 C322.58 449.79 329.32 460.31 336 470.75 C341.81 479.89 347.8 489.32 345.81 500.56 C344.84 503.81 343.5 506.63 341.81 509.56 C341.43 510.24 341.06 510.92 340.67 511.62 C333.76 522.32 320.49 527.1 308.81 530.56 C308 530.81 307.18 531.05 306.34 531.31 C290.2 535.32 273.59 532.61 259.32 524.32 C248.32 516.62 243.77 505.54 241.42 492.76 C240.42 486.52 240.44 480.29 240.53 473.99 C240.56 471.87 240.57 469.74 240.58 467.62 C240.62 459.56 240.99 451.58 241.81 443.56 C220.02 449.79 201.17 463.3 184.81 478.56 C183.98 479.33 183.14 480.1 182.28 480.9 C166.84 495.65 155.17 515.85 154.34 537.52 C154.17 551.75 156.67 565.65 164.81 577.56 C165.31 578.3 165.82 579.04 166.33 579.8 C174.01 589.73 186.09 592.54 197.88 594.69 C199.14 594.94 200.41 595.18 201.72 595.44 C205.41 596.16 209.11 596.86 212.81 597.56 C232.15 601.24 248.6 606.56 263.32 620.35 C273.58 629.44 283.79 633.2 297.41 632.84 C307.4 632.02 313.87 628.24 321.04 621.45 C338.32 605.13 358.72 600.63 381.4 596.59 C403.68 592.66 403.68 592.66 420.81 578.56 C430.57 563.55 432.8 543.53 430.32 526.07 C423.68 497.76 402.59 475.28 378.52 460.12 C364.79 451.74 350.23 445.1 334.81 440.56 C333.75 440.24 332.68 439.93 331.58 439.6 C327.44 438.41 324.15 437.56 319.81 437.56 Z M354.39 639.79 C352.89 639.93 351.39 640.07 349.88 640.21 C347.71 640.4 345.54 640.61 343.36 640.81 C342.06 640.93 340.76 641.05 339.42 641.17 C336.18 641.52 333.01 641.99 329.81 642.56 C338.62 651.55 348.32 659.38 358.5 666.75 C359.28 667.31 360.06 667.88 360.86 668.46 C365.08 671.5 365.08 671.5 369.81 673.56 C369.32 656.24 369.32 656.24 368.81 638.56 C364.03 638.56 359.16 639.35 354.39 639.79 Z M311.81 647.56 C311.67 689.15 311.85 730.73 312.22 772.31 C312.25 775.94 312.28 779.57 312.31 783.19 C312.36 788.97 312.41 794.74 312.47 800.52 C312.49 802.66 312.5 804.81 312.52 806.96 C312.55 809.92 312.58 812.88 312.61 815.85 C312.61 816.7 312.62 817.56 312.62 818.44 C312.56 828.87 312.56 828.87 315.81 838.56 C316.47 838.56 317.13 838.56 317.81 838.56 C318.16 837.71 318.16 837.71 318.51 836.84 C322.48 827.44 326.2 821.73 335.81 817.56 C344.27 814.76 354.86 815.71 362.81 819.56 C365.16 820.88 367.48 822.22 369.81 823.56 C369.86 812.78 369.89 802 369.92 791.22 C369.93 786.21 369.94 781.2 369.96 776.19 C373.3 727.49 373.3 727.49 358.06 683.53 C357.46 683.05 356.86 682.56 356.25 682.06 C355.21 681.21 355.21 681.21 354.14 680.34 C350.69 677.71 347.18 675.17 343.66 672.65 C337.58 668.19 331.84 663.33 326.15 658.39 C325.52 657.85 324.9 657.31 324.25 656.75 C323.02 655.69 321.8 654.62 320.58 653.55 C317.78 651.11 315.18 649.13 311.81 647.56 Z M713.75 753.59 C711.97 753.91 711.97 753.91 710.14 754.24 C708.9 754.47 707.66 754.7 706.38 754.94 C703.94 755.38 701.5 755.83 699.07 756.27 C697.87 756.49 696.67 756.71 695.43 756.94 C690.82 757.73 686.18 758.38 681.54 758.98 C677.1 759.93 674.38 761.86 671.81 765.56 C667.07 775.12 666.66 784.89 666.61 795.34 C666.6 796.36 666.6 797.37 666.59 798.41 C666.58 800.54 666.58 802.68 666.57 804.81 C666.56 808.05 666.53 811.3 666.5 814.54 C666.49 816.62 666.49 818.7 666.48 820.78 C666.47 821.74 666.46 822.7 666.45 823.7 C666.47 829.68 667.38 834.08 669.81 839.56 C671.99 837.38 672.88 835.53 674.19 832.75 C678.03 825.02 681.96 821.16 689.81 817.56 C697.49 814.99 707.11 815.77 714.65 818.42 C717.9 820.14 720.82 822.43 723.81 824.56 C723.81 800.8 723.81 777.04 723.81 752.56 C720.23 752.56 717.25 752.94 713.75 753.59 Z M688.56 836 C685.37 840.68 684.72 843.94 684.81 849.56 C693.25 851.19 701.48 851.94 710.06 852.19 C711.2 852.23 712.34 852.26 713.51 852.3 C716.28 852.4 719.05 852.48 721.81 852.56 C720.04 844.61 717.22 838.89 711.31 833.12 C702.56 827.66 695.57 828.41 688.56 836 Z M333.81 836.56 C331.42 840.97 330.76 844.58 330.81 849.56 C335.29 850.07 339.77 850.57 344.25 851.06 C346.14 851.28 346.14 851.28 348.07 851.5 C354.7 852.22 361.15 852.74 367.81 852.56 C366.45 844.4 364.13 837.66 357.25 832.56 C349.1 828.04 339.41 828.82 333.81 836.56 Z M761.56 858.81 C758.45 863.7 756.61 867.75 756.81 873.56 C760.8 874 764.78 874.42 768.76 874.84 C770.12 874.99 771.47 875.13 772.82 875.28 C779.84 876.04 786.75 876.78 793.81 876.56 C792.59 868.87 790.25 862.33 784.14 857.14 C776.48 852.29 768.2 852.17 761.56 858.81 Z M407.81 858.56 C404.16 863.7 403.46 867.36 402.81 873.56 C406.8 874 410.78 874.42 414.76 874.84 C416.12 874.99 417.47 875.13 418.82 875.28 C425.84 876.04 432.75 876.78 439.81 876.56 C439.56 869.49 437.4 864.96 432.81 859.56 C427.79 855.16 422.82 854.19 416.32 854.29 C412.53 854.7 410.58 855.99 407.81 858.56 Z M460.06 862.5 C455.97 868.07 455.81 870.32 455.81 877.56 C467.69 876.9 479.57 876.24 491.81 875.56 C491.81 868.77 491.42 865.92 487.81 860.56 C482.7 855.7 478.36 855.2 471.54 855.29 C466.33 855.82 463.4 858.77 460.06 862.5 Z M816 859.75 C811.4 865.66 809.89 870.02 808.81 877.56 C821.02 876.9 833.23 876.24 845.81 875.56 C845.26 866.15 845.26 866.15 840.05 859.12 C831.69 853.52 824.06 853.48 816 859.75 Z " fill="#000000" transform="translate(98.1875,196.4375)"/>
<path d="M0 0 C6.17 4.41 10.71 10.1 12.26 17.61 C13.23 24.97 11.82 31.13 8.26 37.61 C5.82 40.49 5.82 40.49 3.26 42.61 C2.43 43.34 1.61 44.06 0.76 44.8 C-6.29 49.91 -14.43 49.3 -22.74 48.61 C-29.96 46.46 -35.09 39.9 -38.74 33.61 C-41.53 26.1 -41.59 19.31 -38.85 11.85 C-35.54 5.15 -30.41 0.76 -23.74 -2.39 C-15.62 -4.9 -7.35 -4.19 0 0 Z " fill="#000000" transform="translate(578.7421875,613.38671875)"/>
<path d="M0 0 C5.51 4.22 9.23 9.25 11 16 C12.03 23.87 11.22 31.17 7 38 C1.89 43.88 -3.71 47.62 -11.49 48.31 C-21.56 48.63 -27.45 47.46 -34.81 40.69 C-41.09 33.85 -41.62 27.88 -41.41 18.73 C-40.63 11.67 -37.85 6.41 -32.69 1.56 C-23.08 -5.71 -10.25 -6.66 0 0 Z " fill="#000000" transform="translate(233,614)"/>
<path d="M0 0 C7.38 4.65 11.43 11.69 13.38 20.06 C14.28 25.66 14.45 30.52 11.5 35.56 C8.2 37.46 6.08 37.41 2.37 36.78 C-4.3 34.58 -8.13 29.35 -11.5 23.44 C-14.53 16.88 -15.41 10.12 -14 3 C-9.85 -2.25 -5.94 -2.64 0 0 Z " fill="#000000" transform="translate(288,734)"/>
<path d="M0 0 C2.31 1 2.31 1 4 3 C6.02 10.1 4.9 17.01 1.77 23.58 C-1.64 29.67 -5.42 35.49 -12.3 37.76 C-16.63 38.54 -16.63 38.54 -19 38 C-21.8 35.37 -22.88 33.62 -23.6 29.84 C-23.67 19.01 -20.85 11.78 -13.38 3.94 C-9.02 -0.25 -5.99 -1.62 0 0 Z " fill="#000000" transform="translate(504,733)"/>
</svg>
