<?xml version="1.0" encoding="utf-8"?>
<!-- Generator: Adobe Illustrator 23.0.1, SVG Export Plug-In . SVG Version: 6.00 Build 0)  -->
<svg version="1.1" id="Layer_1" xmlns="http://www.w3.org/2000/svg" xmlns:xlink="http://www.w3.org/1999/xlink" x="0px" y="0px"
	 viewBox="0 0 864 864" style="enable-background:new 0 0 864 864;" xml:space="preserve">
<style type="text/css">
	.st0{fill:#050505;}
</style>
<g>
	<g>
		<g>
			<circle class="st0" cx="725.62" cy="403.29" r="18.19"/>
		</g>
	</g>
	<g>
		<g>
			<path class="st0" d="M783.76,382.36c-4.11,4.14-13.82,19.56-11.47,23.21c2.35,3.65,11.47,14.08,19.56,14.08
				c8.08,0,68.31-33.64,68.84-37.29C861.2,378.71,788.46,377.63,783.76,382.36z"/>
		</g>
	</g>
	<g>
		<g>
			<path class="st0" d="M141.04,412.7c-3.03,0-6-1.46-7.82-4.16c-2.89-4.31-1.75-10.15,2.56-13.06
				c7.81-5.26,15.71-11.61,19.41-15.46c-4.69-3.63-17.07-12.16-27.68-18.65c-4.43-2.71-5.83-8.51-3.11-12.94
				c2.7-4.42,8.5-5.83,12.94-3.11c35.33,21.65,37.09,28.6,37.85,31.57c1.03,4.11,3.18,12.63-28.92,34.2
				C144.67,412.18,142.84,412.7,141.04,412.7z M156.95,381.5h0.18H156.95z"/>
		</g>
	</g>
	<g>
		<g>
			<path class="st0" d="M209.1,419.48c-3.02,0-6-1.46-7.82-4.16c-2.89-4.31-1.76-10.15,2.56-13.06c7.81-5.26,15.7-11.61,19.4-15.46
				c-4.69-3.63-17.07-12.16-27.68-18.65c-4.43-2.71-5.83-8.51-3.11-12.94c2.71-4.42,8.48-5.83,12.94-3.11
				c35.35,21.65,37.1,28.61,37.85,31.58c1.03,4.1,3.18,12.63-28.91,34.19C212.73,418.97,210.9,419.48,209.1,419.48z M225,388.29
				h0.18H225z"/>
		</g>
	</g>
	<g>
		<g>
			<path class="st0" d="M280.83,424.59c-3.03,0-6-1.46-7.82-4.16c-2.89-4.31-1.75-10.15,2.56-13.06c7.81-5.26,15.7-11.6,19.4-15.45
				c-4.69-3.63-17.07-12.17-27.67-18.66c-4.43-2.71-5.83-8.51-3.11-12.94c2.71-4.42,8.51-5.83,12.94-3.11
				c35.34,21.65,37.09,28.62,37.84,31.6c1.03,4.09,3.18,12.63-28.91,34.17C284.46,424.07,282.63,424.59,280.83,424.59z
				 M296.72,393.4h0.18H296.72z"/>
		</g>
	</g>
	<g>
		<g>
			<path class="st0" d="M348.87,429.06c-3.03,0-6-1.46-7.82-4.16c-2.89-4.31-1.75-10.15,2.56-13.06c7.81-5.26,15.7-11.6,19.4-15.45
				c-4.69-3.63-17.07-12.17-27.67-18.66c-4.43-2.71-5.83-8.51-3.11-12.94c2.72-4.42,8.5-5.83,12.94-3.11
				c35.34,21.65,37.09,28.62,37.84,31.6c1.03,4.09,3.18,12.63-28.91,34.17C352.5,428.54,350.67,429.06,348.87,429.06z
				 M364.76,397.87h0.18H364.76z"/>
		</g>
	</g>
	<g>
		<g>
			<path class="st0" d="M419.2,433.81c-3.03,0-6-1.46-7.82-4.16c-2.89-4.31-1.75-10.16,2.56-13.06c7.81-5.26,15.71-11.6,19.4-15.45
				c-4.69-3.64-17.07-12.17-27.67-18.66c-4.43-2.71-5.83-8.51-3.11-12.94c2.71-4.42,8.49-5.81,12.94-3.11
				c35.34,21.65,37.09,28.61,37.84,31.58c1.04,4.1,3.19,12.63-28.91,34.19C422.83,433.29,421,433.81,419.2,433.81z M435.09,402.62
				h0.19H435.09z"/>
		</g>
	</g>
	<g>
		<g>
			<path class="st0" d="M228.79,514.79c-2.71,0-5.4-1.17-7.26-3.42c-3.31-4-2.75-9.93,1.26-13.24c7.25-6,14.47-13.09,17.77-17.28
				c-5.03-3.16-18.19-10.42-29.39-15.83c-4.68-2.26-6.63-7.89-4.37-12.57c2.27-4.67,7.88-6.62,12.57-4.37
				c37.31,18.05,39.75,24.8,40.79,27.69c1.43,3.97,4.42,12.25-25.39,36.87C233.02,514.09,230.9,514.79,228.79,514.79z
				 M242.45,482.15h0.18H242.45z"/>
		</g>
	</g>
	<g>
		<g>
			<path class="st0" d="M297.18,514.8c-2.71,0-5.39-1.17-7.26-3.41c-3.31-4.01-2.75-9.94,1.25-13.25c7.25-6,14.48-13.09,17.77-17.28
				c-5.03-3.17-18.19-10.43-29.38-15.83c-4.68-2.26-6.63-7.89-4.37-12.57c2.27-4.65,7.87-6.62,12.57-4.37
				c37.31,18.05,39.75,24.8,40.79,27.69c1.42,3.96,4.42,12.24-25.39,36.87C301.42,514.1,299.29,514.8,297.18,514.8z M310.85,482.16
				h0.19H310.85z"/>
		</g>
	</g>
	<g>
		<g>
			<path class="st0" d="M369.06,512.79c-2.71,0-5.39-1.17-7.26-3.41c-3.31-4.01-2.75-9.94,1.25-13.25c7.26-6,14.49-13.1,17.78-17.29
				c-5.03-3.16-18.19-10.42-29.39-15.83c-4.68-2.26-6.63-7.89-4.37-12.57c2.26-4.66,7.89-6.62,12.57-4.37
				c37.31,18.05,39.75,24.8,40.79,27.69c1.43,3.97,4.42,12.25-25.39,36.88C373.3,512.08,371.17,512.79,369.06,512.79z
				 M382.73,480.13h0.18H382.73z"/>
		</g>
	</g>
	<g>
		<g>
			<path class="st0" d="M437.22,510.49c-2.71,0-5.39-1.17-7.26-3.41c-3.31-4.01-2.75-9.93,1.25-13.25c7.26-6,14.49-13.1,17.78-17.3
				c-5.03-3.15-18.19-10.41-29.39-15.82c-4.68-2.26-6.63-7.89-4.37-12.57c2.26-4.65,7.88-6.62,12.57-4.37
				c37.31,18.05,39.75,24.8,40.79,27.69c1.42,3.98,4.4,12.26-25.38,36.88C441.45,509.79,439.32,510.49,437.22,510.49z
				 M450.87,477.83h0.19H450.87z"/>
		</g>
	</g>
	<path class="st0" d="M801.42,355.55c-12.14-26.97-30.3-44.45-53.98-51.93c-37.51-11.87-82.29,2.82-122.65,22.6
		c-0.92-28.38-9.09-59.96-34.78-84.22c-28.15-26.58-60.52-45.01-89.08-61.27c-29.31-16.69-57-32.45-74.52-53.78
		c-18.92-23.03-34.82-24.32-44.83-21.35c-18.59,5.52-29.4,29.22-31.59,48.92c-2.32,20.89,11.81,43.04,22.05,56.04
		c-5.53,1.61-11.46,4.47-15.97,9.54c-4.03,4.54-8.38,12.69-6.23,25.74c4.03,24.43,25.54,40.92,37.41,48.3
		c-6.66,11.17-12.78,27.06-12.67,43.65c-9.68-0.69-19.93-1.06-30.98-0.94c-113.05,1.5-209.41-21.84-245.93-45.66
		c-24.19-15.77-56.42-5.19-75.73,13.41C3.26,322.59-1.3,345.49,10.02,364.36c17.58,29.31,52.03,42.99,71.86,48.69
		c-7.43,7.99-15.61,19.66-15.4,32.23c0.11,6.69,2.73,16.41,14.61,24.72c20.3,14.21,59.34,15.33,87.72,13.87
		c-9.98,8.09-18.96,18.41-20.37,29.96c-0.86,7.11,0.8,17.71,13.63,27.86c26.24,20.77,69.53,32.59,95.77,38.2
		c-12.98,7.29-30.31,17.58-45.59,28.52c-49.42-18.18-157.23-54.33-183.41-34.22c-6.61,5.08-10.11,12.03-10.1,20.1
		c0.03,24.39,33.76,55.01,48.77,67.43c-12.6,14.99-40.06,51.52-31.88,76.4c2.5,7.6,9.41,17.41,28.13,21.02
		c3.4,0.66,6.93,0.97,10.56,0.97c47.74,0,112.82-53.59,137.56-75.63c82.82,31.9,306.15,38.07,411.75-37.74L643,632.87
		C758.03,550.78,857.37,479.89,801.42,355.55z M404.71,296.18c1.41-1.87,1.9-4.29,1.35-6.57c-0.55-2.28-2.1-4.2-4.22-5.22
		c-0.32-0.16-32.38-15.85-36.54-41.11c-0.93-5.65-0.13-9.82,2.46-12.76c4.62-5.24,14.36-6.32,18.61-6.32c0.28,0,0.54,0.01,0.77,0.02
		c3.29,0.05,6.21-1.71,7.52-4.66c1.3-2.96,0.66-6.41-1.62-8.7c-8.4-8.42-29.7-34.66-27.48-54.61c1.67-15.03,9.79-32.46,20.48-35.63
		c9.9-2.94,20.84,7.23,28.26,16.28c19.36,23.56,48.27,40.02,78.88,57.45c29.15,16.59,59.29,33.75,86.07,59.04
		c24,22.67,30.08,53.85,29.69,80.92c-15.7,8.37-30.46,17.09-43.44,24.79c-15.21,9.02-28.35,16.81-34.78,18.77
		c-12.11,3.67-24.98-1.99-44.47-10.58c-22.84-10.06-52.11-22.84-96.21-28.06C389.12,317.32,403.83,297.35,404.71,296.18z
		 M633.9,620.12L614.48,634c-101.73,73.03-327.12,65.68-401.15,34.17c-2.81-1.2-6.07-0.65-8.34,1.41
		c-44.21,40.23-103.77,80.84-138.28,74.17c-13.61-2.62-15.57-8.58-16.21-10.53c-5.34-16.19,18.05-49.82,34.05-67.21
		c1.49-1.62,2.23-3.79,2.04-5.99c-0.19-2.2-1.3-4.21-3.05-5.54c-18.99-14.51-49.13-43.69-49.14-60.21c0-3.19,1.22-5.55,3.97-7.65
		c2.7-2.07,7.82-3.06,15.01-3.06c28.26,0,88.32,15.35,157.34,41c2.48,0.93,5.26,0.54,7.38-1.04c27.78-20.5,66.2-40.11,66.58-40.3
		c3.04-1.55,4.74-4.89,4.18-8.27c-0.56-3.37-3.24-5.99-6.62-6.47c-0.75-0.11-75.02-11.02-110.45-39.07c-8.63-6.83-8-11.99-7.8-13.68
		c1.59-13.13,25.75-28.82,40.61-35.63c3.55-1.63,5.36-5.61,4.25-9.35c-1.11-3.74-4.78-6.09-8.66-5.52
		c-22.63,3.36-86.56,8.45-110.13-8.06c-5.25-3.68-7.84-7.64-7.92-12.12c-0.21-11.58,15.23-25.87,20.66-29.95
		c2.51-1.89,3.65-5.1,2.89-8.14c-0.75-3.05-3.25-5.35-6.35-5.86c-0.54-0.09-54.54-9.21-75.89-44.8
		c-11.08-18.46,4.36-35.6,9.36-40.41c14.49-13.95,39.15-22.76,56.3-11.57c37.32,24.34,132.88,49.7,254.69,48.21
		c67.99-0.93,107.39,16.44,136.13,29.11c21.07,9.28,37.7,16.61,55.35,11.23c8.24-2.51,20.81-9.96,38.21-20.28
		c44.23-26.24,118.23-70.13,169.22-54.02c19.51,6.17,34.04,20.38,44.41,43.42C837.81,474.6,747.82,538.82,633.9,620.12z"/>
</g>
</svg>
