<?xml version="1.0" encoding="utf-8"?>
<!-- Generator: Adobe Illustrator 25.2.1, SVG Export Plug-In . SVG Version: 6.00 Build 0)  -->
<svg version="1.1" id="Layer_1" xmlns="http://www.w3.org/2000/svg" xmlns:xlink="http://www.w3.org/1999/xlink" x="0px" y="0px"
	 viewBox="0 0 1000 1000" style="enable-background:new 0 0 1000 1000;" xml:space="preserve">
<style type="text/css">
	.st0{fill:none;stroke:#000000;stroke-width:5;stroke-miterlimit:10;}
	.st1{fill:none;stroke:#000000;stroke-width:5;stroke-linecap:round;stroke-miterlimit:10;}
</style>
<path class="st0" d="M268.97,373.87c0,0-45.76-323.81,0-323.81s123.14,253.54,192.21,247.88c76.95-6.31,134.74-115.11,337.05-127.19
	c202.3-12.08-179.66,210.61-166.82,277.79S949.95,585.16,928.06,646.3c-21.89,61.14-311.07,1.13-339.15,9.06
	s-116.4,6.79-96.02,181.17c20.38,174.37-45.29,139.27-73.6,103.04c-28.31-36.23-101.91-152.86-96.24-302.32
	S174.71,778.78,174.71,778.78s-45.29,95.11-56.61-81.52S268.97,373.87,268.97,373.87z"/>
<path class="st0" d="M707.34,349.91c0,0-51.78-54.76-4.22-90.17c47.56-35.41,95.35,8.53,95.35,8.53"/>
<path class="st0" d="M798.46,673.25c0,0-9.29-38.27,22.41-38.27c31.7,0,30.85,38.69,30.85,38.69"/>
<path class="st0" d="M352.39,817.93c0,0,54.82-44.05,76.71,15.58c21.89,59.63-26.55,84.4-26.55,84.4"/>
<path class="st0" d="M159.85,519.26c0,0,74.49-1.28,55.62,68.92s-97.94,70.96-97.94,70.96"/>
<path class="st0" d="M789.62,546.88c-2.9,41.49-36.35,75.27-78.95,77.54c-46.1,2.45-85.46-32.93-87.92-79.03
	c-1.47-27.56,10.59-52.71,30.37-69"/>
<path class="st0" d="M564.61,246.8c12.97,9.64,30.05,27.56,12.02,59.32c-12.07,21.25-39.07,28.69-60.32,16.62
	c-12.7-7.21-20.47-20.76-22.08-34.23"/>
<path class="st0" d="M248.01,117.43c13.56,0.89,25.65,11.77,26.45,25.68c0.87,15.06-10.64,27.97-25.69,28.84"/>
<path class="st0" d="M419.7,272.8c-18.48,26.22-54.11,35.13-83.24,19.58c-31.52-16.83-43.49-55.93-26.72-87.34
	c10.02-18.77,26.56-30.55,46.17-33.39"/>
<path class="st0" d="M493.5,749.97c-43.22,0-80.25-35.04-80.25-78.25c0-43.22,35.04-78.25,78.25-78.25
	c39.9,0,72.82,28.86,77.65,67.45"/>
<circle class="st0" cx="307.28" cy="498.88" r="53.64"/>
<circle class="st0" cx="365.12" cy="349.91" r="23.68"/>
<line class="st1" x1="517.37" y1="501.69" x2="533.34" y2="537.07"/>
<path class="st1" d="M524.34,519.81c-128.77,45.15-96.2-56.43-96.2-56.43"/>
<path d="M584.6,435.38c6.41-15.38,0.22-32.6-13.82-38.45c-14.04-5.85-30.62,1.88-37.03,17.26c-6.41,15.38-0.22,32.6,13.82,38.45
	C561.61,458.49,578.19,450.76,584.6,435.38z M543.9,431.44c-1.88-0.59-2.84-2.84-2.15-5.04c0.69-2.2,2.77-3.5,4.64-2.91
	c1.88,0.59,2.84,2.84,2.15,5.04C547.86,430.73,545.78,432.03,543.9,431.44z M565.51,432.39c-5-1.57-7.57-7.58-5.74-13.43
	c1.83-5.85,7.37-9.33,12.38-7.76c5,1.57,7.57,7.58,5.74,13.43C576.05,430.49,570.51,433.96,565.51,432.39z"/>
<path d="M499.83,376.87c6.41-15.38,0.22-32.6-13.82-38.45c-14.04-5.85-30.62,1.88-37.03,17.26s-0.22,32.6,13.82,38.45
	C476.85,399.98,493.42,392.25,499.83,376.87z M459.14,372.93c-1.88-0.59-2.84-2.84-2.15-5.04c0.69-2.2,2.77-3.5,4.64-2.91
	c1.88,0.59,2.84,2.84,2.15,5.04C463.09,372.22,461.01,373.52,459.14,372.93z M480.74,373.88c-5-1.57-7.57-7.58-5.74-13.43
	c1.83-5.85,7.37-9.33,12.38-7.76c5,1.57,7.57,7.58,5.74,13.43C491.29,371.97,485.75,375.45,480.74,373.88z"/>
</svg>
