<?xml version="1.0" encoding="iso-8859-1"?>
<!-- Generator: Adobe Illustrator 26.0.3, SVG Export Plug-In . SVG Version: 6.00 Build 0)  -->
<svg version="1.1" id="Layer_31" xmlns="http://www.w3.org/2000/svg" xmlns:xlink="http://www.w3.org/1999/xlink" x="0px" y="0px"
	 width="400.872px" height="378.905px" viewBox="0 0 400.872 378.905" enable-background="new 0 0 400.872 378.905"
	 xml:space="preserve">
<path d="M383.876,123.982c-10.838-20.622-26.899-35.261-49.337-42.409c-1.779-0.567-2.579-1.311-2.653-3.349
	c-0.496-13.643-5.433-25.745-13.121-36.859c-10.256-14.827-24.411-24.574-40.769-31.519c-13.972-5.932-28.65-8.462-43.686-9.584
	c-11.46-0.855-22.636,0.395-33.639,3.553c-5.454,1.566-10.793,3.464-15.983,5.763c-1.503,0.666-2.903,1.133-4.642,0.619
	c-7.717-2.284-15.644-2.856-22.312-2.609c-15.304,0.184-24.081,1.116-38.26,4.339C96.089,17.24,75.528,27.725,59.685,46.103
	C37.84,71.442,26.896,101.326,24.261,134.39c-1.066,13.369,0.8,26.429,6.403,38.757c0.929,2.043,0.382,3.155-1.205,4.409
	c-2.545,2.011-4.783,4.373-6.892,6.841c-16.793,19.65-24.152,42.297-22.283,68.144c1.471,20.353,8.341,38.438,21.503,53.969
	c13.199,15.575,28.633,28.592,46.307,38.898c11.582,6.754,24.091,9.995,37.466,10.184c19.003,0.27,37.348-2.942,54.99-10.072
	c3.403-1.375,3.455-1.347,5.248,1.731c8.182,14.045,19.921,23.769,35.554,28.268c12.872,3.705,26.084,4.264,39.333,2.19
	c24.147-3.78,46.175-12.985,66.395-26.553c20.338-13.648,35.718-31.542,45.517-54.101c4.159-9.574,6.44-19.51,5.178-29.963
	c-0.341-2.826,0.521-4.002,2.874-5.246c14.989-7.922,25.776-19.839,32.703-35.255c4.648-10.345,7.11-21.264,7.457-32.565
	C401.573,169.159,395.393,145.895,383.876,123.982z M181.571,24.288c2.851,5.604,4.184,11.608,4.487,16.992
	c0.001,8.912-5.18,15.041-13.096,16.363c-5.28,0.882-9.77-1.891-11.05-7.082c-2.113-8.565,0.905-15.609,6.908-21.583
	c2.39-2.378,5.279-4.164,8.176-5.885C179.827,21.412,180.132,21.458,181.571,24.288z M179.276,295.339
	c7.495-4.031,15.953,0.964,16.06,9.512c0.057,4.532-1.788,8.389-4.498,11.879c-5.793,7.46-13.581,12.097-22.08,15.753
	C161.244,318.834,165.932,302.515,179.276,295.339z M390.365,207.91c-4.238,19.364-14.142,34.863-31.496,45.106
	c-1.149,0.678-2.24,1.521-3.641,1.739c-1.202-1.014-1.47-2.55-2.134-3.85c-6.984-13.68-18.439-20.781-33.411-22.492
	c-5.764-0.659-11.308,0.639-16.428,3.389c-13.252,7.117-14.848,23-3.278,32.603c6.316,5.242,13.821,7.204,21.834,7.38
	c8.013,0.176,15.887-0.93,23.572-3.264c1.124-0.341,2.182-1.03,3.65-0.677c1,5.8,0.27,11.506-1.298,17.124
	c-2.489,8.92-6.528,17.156-11.613,24.852c-9.27,14.03-20.811,25.809-34.977,34.988c-18.346,11.887-38.06,20.331-59.679,24.054
	c-12.271,2.113-24.523,1.849-36.563-1.302c-13.877-3.631-24.262-12.048-31.506-24.373c-1.446-2.46-1.417-2.557,1.24-3.85
	c5.235-2.547,10.347-5.304,14.837-9.042c6.767-5.634,12.331-12.101,14.151-21.09c2.199-10.861-5.249-22.009-16.039-23.902
	c-4.165-0.73-8.11,0.105-11.735,2.117c-12.188,6.764-21.963,19.178-18.465,37.927c0.543,2.909,1.328,5.8,2.315,8.589
	c0.668,1.887,0.155,2.613-1.574,3.298c-9.953,3.944-20.135,7.043-30.782,8.376c-9.115,1.141-18.239,1.971-27.461,1.058
	c-8.019-0.794-15.744-2.564-22.882-6.319c-20.503-10.784-37.922-25.383-52-43.722c-21.501-28.009-23.826-75.066,3.702-106.193
	c2.132-2.41,4.317-4.758,7.051-6.895c3.054,4.795,6.354,8.876,10.289,12.423c7.206,6.495,15.722,9.374,25.311,8.789
	c14.308-0.875,23.631-16.533,17.304-28.971c-3.128-6.15-8.463-9.713-14.966-11.515c-6.406-1.775-12.849-1.254-19.236,0.273
	c-4.351,1.04-8.491,2.665-12.499,4.645c-3.024,1.494-3.061,1.487-4.256-1.464c-2.864-7.068-4.473-14.398-4.822-22.037
	c-0.892-19.529,3.455-38.071,10.455-56.111C49.214,74.42,57.574,60.767,68.73,48.943c14.788-15.674,33.374-24.372,54.149-28.98
	c11.392-2.527,22.924-3.583,34.552-3.903c3.922-0.108,7.804,0.325,11.863,0.745c-0.186,1.752-1.695,2.114-2.683,2.829
	c-5.04,3.649-8.845,8.252-11.397,13.946c-2.457,5.483-3.075,11.188-2.143,17.037c1.776,11.152,11.505,17.729,22.616,15.276
	c9.051-1.998,19.377-9.995,18.799-23.588c-0.315-7.415-2.27-14.355-5.526-20.982c-0.522-1.062-1.486-1.958-1.394-3.531
	c7.391-3.479,15.231-5.854,23.284-7.595c9.623-2.08,19.293-1.733,29.023-0.824c17.903,1.672,34.703,6.675,49.968,16.28
	c16.076,10.115,27.086,24.146,32.039,42.656c0.732,2.737,1.195,5.537,1.313,8.387c0.064,1.552-0.416,2.152-2.112,1.947
	c-5.659-0.684-11.324-0.61-16.945,0.433c-9.206,1.708-17.681,5.021-24.395,11.81c-5.849,5.915-6.397,13.917-1.557,20.669
	c2.938,4.099,6.86,6.898,11.8,8.023c8.647,1.97,16.635,0.42,23.773-4.929c6.423-4.813,10.901-11.169,14.256-18.374
	c0.626-1.344,1.13-2.744,1.675-4.125c1.088-2.754,1.086-2.763,4.062-1.775c1.024,0.34,2.043,0.702,3.045,1.102
	c13.53,5.4,24.577,13.957,32.929,25.935c10.041,14.401,16.241,30.414,19.866,47.492C392.622,179.182,393.51,193.541,390.365,207.91z
	 M343.907,259.888c-6.436,2.21-13.084,3.14-19.864,3.249c-4.626,0.084-9.151-0.384-13.448-2.27
	c-2.244-0.985-4.315-2.219-6.067-3.944c-5.462-5.377-4.781-12.613,1.648-16.834c4.116-2.702,8.744-3.58,13.554-2.967
	c11.971,1.525,20.895,7.471,26.088,18.565C347.205,258.648,347.116,258.786,343.907,259.888z M45.117,177.226
	c6.328-3.25,12.978-5.26,20.539-5.498c3.24,0.214,6.82,0.698,10.06,2.631c4.781,2.852,6.911,6.877,6.118,11.718
	c-0.779,4.753-4.58,8.824-9.567,9.806c-5.977,1.177-11.558-0.373-16.634-3.448c-4.803-2.91-8.34-7.185-11.5-11.792
	C42.953,178.92,43.447,178.083,45.117,177.226z M321.521,89.25c-3.35,8.936-8.268,16.661-17.184,20.98
	c-3.738,1.811-7.841,1.763-11.884,1.092c-1.737-0.288-3.306-1.096-4.724-2.173c-5.312-4.034-5.565-9.228-0.506-13.516
	c6.17-5.23,13.538-7.569,21.437-8.47c1.601-0.183,3.223-0.18,5.166-0.28c1.823,0.092,3.972,0.197,6.121,0.311
	C321.269,87.263,322.04,87.864,321.521,89.25z M209.391,103.234c-4.65-0.161-9.859,0.569-14.982,1.84
	c-21.999,5.459-38.302,18.123-48.202,38.63c-5.065,10.491-6.698,21.589-4.71,33.122c2.035,11.809,6.936,22.349,14.262,31.804
	c6.729,8.684,14.611,15.733,25.246,19.46c11.476,4.021,23.082,6.998,35.276,4.735c26.517-4.922,45.176-20.103,56.468-44.409
	c5.257-11.316,5.949-23.145,2.795-35.192C267.821,123.73,241.029,103.293,209.391,103.234z M264.527,185.724
	c-10.436,21.702-27.352,35.025-51.312,38.845c-8.594,1.37-16.863-0.772-25.104-3.048c-12.195-3.367-21.221-10.595-27.938-21.251
	c-6.827-10.831-10.953-22.386-10.79-35.579c-0.03-9.57,4.685-20.456,12.536-29.973c12.217-14.81,28.303-22.731,47.307-22.836
	c31.636-0.174,52.693,21.01,58.277,44.643C269.89,166.633,269.011,176.4,264.527,185.724z M231.469,188.04
	c-2.623-0.626-5.035-1.891-7.352-3.227c-1.578-0.91-1.888-2.604-1.259-4.277c0.643-1.712,2.309-2.399,3.987-2.348
	c0.482,0.015,0.965,0.09,1.424,0.22c2.309,0.651,4.609,1.703,6.456,3.249c1.379,1.155,1.561,2.823,0.769,4.426
	C234.689,187.71,233.202,188.454,231.469,188.04z M220.485,146.35c-1.77-0.56-2.677-1.977-2.522-3.704
	c0.255-2.83,1.161-5.54,2.797-7.891c1.127-1.62,2.837-2.024,4.662-1.271c1.71,0.706,2.289,2.158,2.134,4.582
	c-0.779,1.906-1.641,4.459-2.856,6.832C223.881,146.497,222.211,146.896,220.485,146.35z M250.428,157.529
	c-2.189,0.033-3.848-1.75-4.108-4.633c-0.156-1.73-0.268-3.502,0.183-5.214c0.488-1.853,1.586-3.105,3.647-3.171
	c1.962-0.062,3.393,1.166,3.807,3.429c0.216,1.179,0.161,2.407,0.221,3.486c0,0.398-0.043,0.675,0.007,0.934
	C254.735,155.23,252.707,157.495,250.428,157.529z M177.828,187.013c-0.309,1.716-0.837,3.404-1.404,5.058
	c-0.835,2.433-2.465,3.431-4.559,2.952c-1.875-0.428-2.85-1.911-2.836-4.589c0.184-1.895,0.661-4.002,1.76-5.889
	c1.119-1.923,3.016-2.598,4.802-1.815C177.459,183.549,178.17,185.108,177.828,187.013z M205.247,170.791
	c-1.004,1.228-2.439,1.629-4.002,1.003c-1.719-0.689-2.375-2.055-2.342-4.117c0.523-2.439,1.84-4.757,3.959-6.499
	c1.227-1.009,2.784-0.989,4.14-0.065c1.477,1.006,2.12,2.472,1.551,4.199C207.876,167.369,206.599,169.136,205.247,170.791z
	 M187.864,141.138c-0.956-1.493-1.328-3.202-1.574-4.755c-0.057-2.311,1.11-4.028,2.916-4.474c1.804-0.446,3.494,0.505,4.385,2.628
	c0.516,1.23,0.952,2.521,1.208,3.827c0.408,2.085-0.644,3.885-2.447,4.52C190.678,143.473,188.96,142.849,187.864,141.138z
	 M261.059,180.873c0.872,2.509-0.852,5.075-3.838,5.117c-2.141-0.826-4.699-1.79-6.18-4.128c-1.391-2.196,0.262-4.968,2.931-5.331
	C256.479,176.189,260.23,178.487,261.059,180.873z M169.689,160.561c-1.129,1.493-2.76,1.745-4.372,1.05
	c-1.471-0.634-2.917-1.448-4.166-2.444c-1.4-1.117-1.702-2.727-0.909-4.391c0.721-1.511,2.015-2.1,3.956-1.991
	c1.995,0.42,4.178,1.137,5.523,3.223C170.668,157.478,170.791,159.102,169.689,160.561z M195.356,193.054
	c0.77,1.245,0.795,2.564-0.017,3.776c-1.339,1.998-3.392,2.915-5.532,3.497c-1.532-0.05-2.752-0.544-3.46-1.823
	c-0.776-1.401-0.725-2.874,0.262-4.145c1.268-1.633,3.004-2.681,5.015-3.076C193.198,190.974,194.503,191.674,195.356,193.054z
	 M214.203,209.014c-0.028,2.264-3.521,5.467-6.057,5.553c-2.198,0.075-3.897-1.547-3.855-3.679c0.047-2.341,3.471-5.502,6.026-5.562
	C212.508,205.274,214.229,206.908,214.203,209.014z M237.203,206.477c-0.108,2.098-2.156,3.752-4.501,3.635
	c-2.803-0.14-5.213-2.412-5.017-4.732c0.174-2.063,1.938-3.439,4.24-3.309C235.056,202.25,237.322,204.141,237.203,206.477z
	 M202.599,129.907c0.051-2.415,1.712-4.416,3.777-4.55c2.187-0.143,3.971,1.707,4.001,4.15c0.034,2.688-1.664,4.719-3.948,4.724
	C204.202,134.235,202.547,132.366,202.599,129.907z"/>
<g>
</g>
<g>
</g>
<g>
</g>
<g>
</g>
<g>
</g>
<g>
</g>
</svg>
