<?xml version="1.0" encoding="utf-8"?>
<!-- Generator: Adobe Illustrator 25.2.1, SVG Export Plug-In . SVG Version: 6.00 Build 0)  -->
<svg version="1.1" id="Layer_1" xmlns="http://www.w3.org/2000/svg" xmlns:xlink="http://www.w3.org/1999/xlink" x="0px" y="0px"
	 viewBox="0 0 1000 1000" style="enable-background:new 0 0 1000 1000;" xml:space="preserve">
<style type="text/css">
	.st0{fill:none;stroke:#000000;stroke-width:5;stroke-miterlimit:10;}
	.st1{fill:none;stroke:#000000;stroke-width:5;stroke-linecap:round;stroke-miterlimit:10;}
</style>
<path class="st0" d="M444.97,145.8c0,0,169.85-116.12,284.21-69.03C707.31,98.63,626.33,99,629.82,219.9"/>
<polyline class="st0" points="263.33,449.22 349.37,480.41 345.2,418.7 408.76,449.26 398.55,388.71 452.2,416.58 441.49,357.09 
	487.13,373.8 480.81,320.71 "/>
<path class="st0" d="M650.07,720.48c42.79,130.54-59.91,221.37-59.91,221.37c-28.83-20-30.08-136.26-30.13-147.98
	c0-0.52-0.41-0.95-0.93-0.97c-5.88-0.28-40.56-4-127.58-50.72l-6-3.43c-3.02-1.72-3.97-5.65-2.06-8.55
	c96.12-146.47,203.05-39.89,203.05-39.89l0.29-0.2c37.84-21.44,130.96-64.11-196.98-178.89c0,0,132.43-56.5,52.97-191.45
	c0,0-99.64,92.07-218.2,129.91c-90.81-32.79-214.42-100.9-170.27-165.23S424.79,5.71,694.7,275.63
	c23.96,18.92,234.6,49.19,234.6,103.43s-166.49,41.62-166.49,41.62s43.13,165.89-111.36,294.24c-1.59,1.32-2.17,3.5-1.43,5.43
	L650.07,720.48z"/>
<path class="st0" d="M205.64,424.06c0,0-38.16,72.29-31.85,93.73c6.31,21.44,127.34-56.08,127.34-56.08"/>
<line class="st1" x1="707.68" y1="281.74" x2="610.63" y2="257.41"/>
<line class="st1" x1="762.81" y1="420.68" x2="702.69" y2="417.73"/>
<path d="M394.9,236.28c-12.79-10.69-31.06-9.89-40.82,1.78c-9.76,11.67-7.3,29.8,5.49,40.49c12.79,10.69,31.06,9.89,40.82-1.78
	C410.14,265.1,407.68,246.97,394.9,236.28z M379.05,273.97c-1.12,1.62-3.56,1.87-5.45,0.56c-1.89-1.31-2.52-3.68-1.4-5.3
	c1.12-1.62,3.56-1.87,5.45-0.56C379.54,269.98,380.17,272.36,379.05,273.97z M386.38,253.62c-2.98,4.31-9.49,4.98-14.53,1.49
	c-5.04-3.49-6.72-9.81-3.73-14.12c2.98-4.31,9.49-4.98,14.53-1.49C387.69,242.99,389.36,249.31,386.38,253.62z"/>
<polyline class="st0" points="440.39,506.86 429.6,473.89 467.28,482.25 454.15,452.03 484.7,459.84 472.45,430.25 498.45,433.27 
	488.53,407.48 508.2,407.48 "/>
</svg>
