<?xml version="1.0" encoding="UTF-8"?>
<!-- Generator: visioncortex VTracer 0.6.3 -->
<svg version="1.1" xmlns="http://www.w3.org/2000/svg" width="1280" height="1280">
<path d="M0 0 C22.77 1.1 41.29 16.93 57 32 C57.75 32.71 58.51 33.43 59.29 34.16 C65.29 39.97 71.07 46.39 75.56 53.46 C79.48 59.44 84.08 61.7 90.54 64.28 C122.22 77.04 148.6 105.06 161.88 136.05 C168.67 153.13 169.48 170.58 169.28 188.71 C169.2 199.46 169.98 207.99 174.53 217.81 C180.21 230.13 180.4 245.06 178.39 258.33 C177.83 263.6 179.48 266.49 182 271 C182.64 272.19 182.64 272.19 183.29 273.39 C189.15 283.26 197.62 285.34 208.13 288.13 C219.63 291.2 230.02 294.85 239 303 C239 303.66 239 304.32 239 305 C239.66 305 240.32 305 241 305 C242.74 307.05 244.32 309.07 245.88 311.25 C246.33 311.88 246.78 312.51 247.24 313.16 C253.37 322.06 257.07 333.1 256 344 C255.09 348.4 254.09 351.91 250.88 355.12 C246.76 356.38 243.18 355.76 239 355 C238.74 355.59 238.49 356.18 238.22 356.79 C234.65 363.27 226.78 368.35 220 371 C213.43 372.64 207.11 373.3 200.36 373.34 C199.48 373.36 198.6 373.37 197.69 373.39 C194.9 373.43 192.1 373.47 189.31 373.5 C167.87 372.3 167.87 372.3 148.75 379.06 C147.49 380.37 146.24 381.68 145 383 C137.5 389.7 129.43 395.12 120.81 400.25 C119.6 400.98 118.38 401.71 117.16 402.45 C84.47 422 84.47 422 80 422 C87.94 443.65 98.24 462.7 113.65 480.02 C117 483.81 117 483.81 117 486 C117.99 486.33 118.98 486.66 120 487 C121.68 488.67 121.68 488.67 123.44 490.75 C124.05 491.47 124.67 492.2 125.3 492.94 C126.59 494.51 127.86 496.09 129.12 497.69 C130.8 499.76 132.58 501.61 134.47 503.48 C136.22 505.22 137.97 506.98 139.71 508.74 C141.08 510.12 142.44 511.5 143.81 512.88 C144.49 513.56 145.16 514.24 145.85 514.94 C149.21 518.32 152.61 521.58 156.23 524.68 C159.29 527.31 161.88 530.11 164.5 533.19 C169.85 538.66 175 539.78 182.24 541.22 C186.93 542.19 190.76 543.85 195 546 C195.87 546.38 196.75 546.77 197.64 547.16 C222.12 558.37 241.79 579.37 257 601 C257.43 601.62 257.87 602.23 258.32 602.86 C276.81 629.21 293.12 662.21 288.7 695.25 C286.81 705.72 283.58 717.07 275.35 724.18 C272.4 727.04 271.5 728.88 271.2 732.98 C271.19 734.86 271.21 736.74 271.25 738.62 C271.23 740.68 271.2 742.73 271.16 744.79 C271.14 745.82 271.13 746.86 271.11 747.92 C270.29 770.93 263.94 797.39 247 814 C239.59 820.54 232.9 823.53 223 823 C222.87 823.73 222.74 824.46 222.61 825.22 C222.04 827.84 221.27 830.06 220.21 832.52 C219.67 833.79 219.67 833.79 219.12 835.09 C218.53 836.44 218.53 836.44 217.94 837.81 C217.53 838.75 217.13 839.68 216.72 840.64 C212.02 851.4 206.86 861.86 201.06 872.06 C200.74 872.64 200.41 873.21 200.08 873.81 C198.39 876.74 196.63 879.57 194.67 882.33 C187.43 892.83 185.7 903.6 183.55 916.01 C176.89 952.06 156.76 993.5 126.58 1015.59 C118.63 1021 118.63 1021 116 1021 C116.19 1028.42 116.4 1035.83 116.63 1043.25 C116.71 1045.76 116.78 1048.28 116.84 1050.8 C116.53 1073.16 116.53 1073.16 124.19 1093.69 C130.97 1099.26 139.65 1101.21 148 1103.38 C149.13 1103.67 150.26 1103.97 151.43 1104.28 C159.22 1106.33 167.04 1108.22 174.88 1110.06 C197.34 1115.4 215.84 1121.4 234 1136 C235.32 1137.04 235.32 1137.04 236.66 1138.09 C240.84 1141.5 244.07 1144.72 245.06 1150.12 C245 1154 245 1154 243.38 1156.44 C238.46 1159.67 232.87 1159.12 227.19 1159.06 C226.4 1159.06 225.61 1159.05 224.8 1159.05 C222.87 1159.04 220.93 1159.02 219 1159 C219.63 1160.01 220.25 1161.03 220.9 1162.07 C221.72 1163.42 222.55 1164.77 223.38 1166.12 C223.79 1166.79 224.2 1167.46 224.62 1168.14 C230.13 1177.2 230.13 1177.2 229.88 1182.69 C228.78 1185.59 227.67 1186.47 225 1188 C221.55 1189.13 218.29 1189.13 214.68 1189.13 C213.43 1189.13 212.18 1189.14 210.9 1189.14 C209.56 1189.13 208.22 1189.13 206.88 1189.12 C206.2 1189.12 205.52 1189.12 204.82 1189.12 C196.21 1189.12 187.64 1188.91 179.04 1188.29 C171.66 1187.81 164.36 1188.35 157 1189 C157.05 1190.26 157.1 1191.52 157.14 1192.82 C157.28 1196.46 157.12 1196.85 154.69 1199.94 C147.53 1205.43 135.15 1203.77 126.59 1202.7 C115.81 1200.89 105.45 1197.36 95.17 1193.76 C91.68 1192.54 88.19 1191.36 84.69 1190.19 C83.52 1189.79 82.34 1189.39 81.14 1188.98 C67.64 1184.76 56.75 1188.38 44.12 1194 C31.07 1199.76 14.78 1205.22 0.86 1200.05 C-1.66 1198.63 -3.22 1197.3 -5 1195 C-6.08 1187.59 -5.27 1180.1 -3 1173 C-3.57 1172.74 -4.14 1172.47 -4.72 1172.2 C-7 1171 -7 1171 -9.06 1169.52 C-17.47 1163.49 -26.75 1160.79 -36.55 1157.76 C-39.82 1156.74 -43.07 1155.66 -46.31 1154.56 C-47.24 1154.25 -48.16 1153.95 -49.11 1153.63 C-50.05 1153.32 -50.05 1153.32 -51 1153 C-50.36 1153.99 -49.72 1154.98 -49.06 1156 C-46.73 1160.14 -46 1163.22 -46 1168 C-48.86 1173.62 -48.86 1173.62 -53 1175 C-53 1175.66 -53 1176.32 -53 1177 C-52.27 1177.26 -51.55 1177.52 -50.8 1177.79 C-39.9 1182.5 -32.38 1192.66 -28 1203.44 C-26.32 1209.42 -26.32 1209.42 -27 1212 C-31.04 1217.35 -35.69 1218.61 -42.05 1219.64 C-46.53 1220.19 -50.93 1220.25 -55.44 1220.19 C-56.4 1220.18 -57.35 1220.17 -58.34 1220.17 C-70.9 1220.04 -83.45 1219.52 -96 1219 C-96.13 1219.94 -96.26 1220.89 -96.39 1221.86 C-97 1225 -97 1225 -98.81 1227.25 C-120.03 1238.9 -153.36 1227.51 -175 1222 C-176.49 1221.62 -177.98 1221.24 -179.48 1220.86 C-180.17 1220.69 -180.87 1220.51 -181.59 1220.33 C-184.72 1219.54 -187.86 1218.76 -191 1218 C-191.93 1217.77 -192.87 1217.54 -193.83 1217.31 C-207.16 1214.45 -218.74 1214.94 -231 1221 C-233.63 1222.13 -236.28 1223.19 -238.94 1224.25 C-239.56 1224.51 -240.19 1224.77 -240.84 1225.03 C-250.61 1228.99 -261.2 1229.51 -271.2 1225.95 C-273.24 1224.87 -274.52 1223.78 -276 1222 C-277.9 1215.29 -276.23 1208.74 -275 1202 C-287.72 1196.34 -300.45 1192.03 -314.24 1190.08 C-320.13 1189.19 -324.44 1187.76 -328.44 1183.25 C-330.44 1179.09 -330.46 1177.38 -329 1173 C-324.64 1167.44 -319.22 1164.03 -313 1160.88 C-312.25 1160.47 -311.5 1160.07 -310.73 1159.65 C-298 1153.04 -284.26 1149.95 -270.33 1147.09 C-257.13 1144.37 -245.61 1139.85 -234 1133 C-233.03 1132.44 -232.06 1131.89 -231.06 1131.31 C-212.77 1110.81 -222.17 1057.5 -223 1032 C-223.9 1031.56 -223.9 1031.56 -224.82 1031.11 C-230.45 1028.25 -234.3 1024.92 -237.88 1019.75 C-238.3 1019.14 -238.73 1018.53 -239.17 1017.9 C-244.82 1009.62 -248.91 1000.58 -253.06 991.49 C-253.58 990.36 -253.58 990.36 -254.11 989.22 C-254.76 987.79 -255.4 986.37 -256.04 984.93 C-259.99 976.26 -265.09 970.33 -273 965.06 C-274.12 964.3 -274.12 964.3 -275.26 963.51 C-280.41 960 -285.64 956.63 -290.9 953.29 C-306.06 943.62 -319.54 932.59 -332.31 919.94 C-333.07 919.19 -333.83 918.44 -334.62 917.66 C-335.32 916.96 -336.02 916.25 -336.74 915.53 C-337.37 914.9 -338 914.26 -338.65 913.61 C-340 912 -340 912 -340 910 C-340.66 910 -341.32 910 -342 910 C-359.67 891.48 -372.76 864.72 -378 840 C-378.2 839.1 -378.4 838.2 -378.6 837.27 C-379.22 832.23 -379.1 827.2 -379.06 822.12 C-379.06 821.06 -379.05 819.99 -379.05 818.88 C-379.04 816.26 -379.02 813.63 -379 811 C-379.82 810.93 -380.64 810.85 -381.49 810.77 C-392.61 809.46 -400.58 805.83 -407.66 796.99 C-412.56 789.72 -411.82 780.19 -410.31 771.9 C-408.41 762.62 -405.31 754.45 -401 746 C-400.5 744.89 -400 743.79 -399.48 742.65 C-394.89 732.76 -388.74 724.52 -382 716 C-384.26 713.69 -386.46 711.63 -389 709.62 C-393.23 705.93 -396.51 701.84 -397.24 696.12 C-397.69 683.22 -389.93 669.84 -382 660 C-381.34 660 -380.68 660 -380 660 C-379.63 659.17 -379.63 659.17 -379.25 658.32 C-377.76 655.55 -375.95 653.3 -373.94 650.88 C-373.22 650.01 -372.51 649.14 -371.78 648.24 C-364.72 639.92 -357.23 632.07 -349.51 624.38 C-347.93 622.81 -346.36 621.23 -344.79 619.66 C-339.37 614.23 -333.85 608.97 -328 604 C-326.94 603.06 -325.88 602.12 -324.82 601.18 C-304.45 583.25 -281.71 568.15 -258 555 C-256.87 554.37 -256.87 554.37 -255.72 553.73 C-242.21 546.25 -228.23 539.96 -214 534 C-213.12 533.63 -212.24 533.26 -211.34 532.88 C-192.27 524.99 -172.3 519.5 -152.29 514.57 C-151.07 514.27 -151.07 514.27 -149.83 513.96 C-145.87 512.99 -141.9 512.03 -137.93 511.09 C-126.75 508.43 -118.32 506.22 -112 496 C-111.62 495.4 -111.24 494.81 -110.85 494.2 C-103.72 481.66 -103.07 464.44 -106.19 450.56 C-110.87 434.73 -121.55 424.82 -133.88 414.41 C-151.02 399.83 -165.07 383.28 -175 363 C-175.76 363.95 -176.53 364.9 -177.31 365.88 C-179.46 368.55 -181.4 370.76 -184.97 371.3 C-186.98 371.31 -188.99 371.16 -191 371 C-193.36 367.46 -193.45 365.27 -193.88 361.06 C-194.43 356.19 -195.23 351.82 -196.94 347.19 C-204.61 325.83 -203.5 301.49 -202.56 279.19 C-202.5 277.73 -202.5 277.73 -202.44 276.24 C-202.38 274.87 -202.38 274.87 -202.32 273.48 C-202.26 272.26 -202.26 272.26 -202.21 271.01 C-202 269 -202 269 -201 267 C-201.86 267.41 -202.71 267.82 -203.6 268.24 C-220.99 276.44 -220.99 276.44 -230 275 C-232.12 273.38 -232.12 273.38 -233 271 C-232.73 265.13 -229.91 261.16 -226.81 256.38 C-225.8 254.77 -224.8 253.15 -223.8 251.54 C-223.31 250.76 -222.83 249.98 -222.33 249.18 C-217.23 240.83 -214.09 232.61 -211.59 223.18 C-207.35 207.46 -202.22 192.6 -195 178 C-194.4 176.78 -194.4 176.78 -193.78 175.53 C-187.35 162.6 -180.19 150.2 -171 139 C-171.59 139.03 -172.18 139.07 -172.79 139.11 C-176.62 139.24 -179.46 139.21 -183.06 137.81 C-185 136 -185 136 -185.5 133.56 C-184.93 130.62 -184.07 129.15 -182 127 C-181.34 127 -180.68 127 -180 127 C-179.67 126.01 -179.34 125.02 -179 124 C-177.21 122.45 -175.34 120.98 -173.44 119.56 C-172.86 119.13 -172.28 118.69 -171.69 118.25 C-170.44 117.31 -169.19 116.38 -167.94 115.45 C-166.01 114.01 -164.09 112.56 -162.18 111.1 C-140.4 94.57 -118.2 79.58 -92.79 69.16 C-90.46 68.19 -88.23 67.16 -86 66 C-86.66 64.68 -87.32 63.36 -88 62 C-88.66 62 -89.32 62 -90 62 C-91.54 60.07 -92.94 58.16 -94.31 56.12 C-94.71 55.53 -95.12 54.94 -95.53 54.33 C-100.52 46.87 -106.13 38.31 -106 29 C-105.15 26.25 -105.15 26.25 -103 24 C-99.69 23.21 -96.45 23.29 -93.06 23.38 C-92.09 23.38 -91.13 23.39 -90.13 23.4 C-80.02 23.7 -70.63 26.07 -61 29 C-61.74 27.59 -61.74 27.59 -62.5 26.15 C-63.14 24.89 -63.79 23.63 -64.44 22.38 C-64.93 21.45 -64.93 21.45 -65.42 20.5 C-67.37 16.69 -68.96 13.31 -69 9 C-67.54 6.65 -67.54 6.65 -65 5 C-62.29 4.61 -60.07 4.48 -57.38 4.56 C-56.63 4.58 -55.89 4.59 -55.12 4.6 C-36.71 5.18 -13.15 9.49 0.72 22.63 C1.36 23.31 1.36 23.31 2 24 C1.07 19.18 0.14 14.41 -1.19 9.69 C-1.95 6.21 -2.11 4.33 -1 1 C-0.67 0.67 -0.34 0.34 0 0 Z M-48 19 C-47.36 23.14 -45.98 26.51 -44.2 30.3 C-43.92 30.89 -43.64 31.48 -43.36 32.09 C-42.47 33.98 -41.58 35.87 -40.69 37.75 C-39.81 39.62 -38.93 41.48 -38.06 43.35 C-37.22 45.14 -36.37 46.93 -35.53 48.71 C-33.63 52.79 -31.8 56.88 -30 61 C-31.79 59.96 -33.58 58.92 -35.38 57.88 C-36.47 57.24 -37.57 56.6 -38.7 55.94 C-41.55 54.26 -44.37 52.55 -47.19 50.81 C-56.04 45.53 -65.04 42.61 -75 40 C-75.91 39.76 -76.82 39.52 -77.76 39.27 C-81.55 38.34 -84.26 37.85 -88 39 C-80.43 55.39 -64.31 66.94 -49.74 76.72 C-47.98 78.02 -46.5 79.42 -45 81 C-46.18 80.54 -47.37 80.09 -48.59 79.62 C-50.18 79.04 -51.78 78.45 -53.38 77.88 C-54.15 77.57 -54.92 77.27 -55.72 76.96 C-65.96 73.32 -74.83 77.37 -84.56 81.06 C-86.13 81.65 -86.13 81.65 -87.73 82.26 C-96.26 85.56 -104.26 89.47 -112.2 93.99 C-114.94 95.53 -117.72 96.97 -120.5 98.44 C-123.91 100.07 -123.91 100.07 -126 103 C-123.03 102.67 -120.06 102.34 -117 102 C-122.75 105.78 -128.61 108.79 -134.94 111.44 C-141.81 114.32 -147.87 117.73 -154 122 C-150.76 123.04 -148.54 122.92 -145.23 122.22 C-144.34 122.04 -143.46 121.86 -142.54 121.67 C-141.62 121.47 -140.7 121.27 -139.75 121.06 C-138.81 120.87 -137.88 120.67 -136.91 120.47 C-134.61 119.99 -132.3 119.5 -130 119 C-130 119.66 -130 120.32 -130 121 C-130.72 121.11 -131.45 121.22 -132.2 121.34 C-140.76 123.35 -146.8 129.26 -152 136 C-152.76 136.95 -153.52 137.9 -154.3 138.88 C-174.31 164.1 -188.18 192.02 -197.36 222.86 C-200.15 232.2 -203.24 241.08 -207.86 249.71 C-209.15 251.87 -209.15 251.87 -209 254 C-207.33 253.34 -205.67 252.67 -204 252 C-202.85 251.59 -201.7 251.18 -200.51 250.75 C-194.82 248.31 -190.38 245.79 -187.56 240.08 C-185.07 233.39 -183.29 226.54 -181.72 219.58 C-181 217 -181 217 -179 214 C-179.13 214.55 -179.26 215.1 -179.4 215.67 C-182.19 227.61 -184.53 239.54 -186.25 251.69 C-186.41 252.83 -186.58 253.97 -186.74 255.15 C-188.5 268 -189.21 280.67 -189.19 293.62 C-189.19 294.75 -189.19 294.75 -189.19 295.9 C-190.16 324.57 -190.16 324.57 -181 350 C-180.02 347.56 -179.04 345.13 -178.06 342.69 C-177.78 342 -177.51 341.31 -177.22 340.6 C-174.98 335.01 -173.9 331.45 -174.38 325.44 C-174.93 317.73 -175.3 310.03 -175.62 302.31 C-175.68 301.18 -175.73 300.04 -175.78 298.87 C-175.83 297.8 -175.87 296.72 -175.91 295.61 C-175.98 294.17 -175.98 294.17 -176.04 292.7 C-176 290.01 -175.62 287.62 -175 285 C-174.89 286.4 -174.89 286.4 -174.77 287.84 C-171.88 323.37 -168.88 354.51 -145 383 C-144.37 383.81 -143.73 384.63 -143.08 385.47 C-133.86 396.69 -122.04 405.99 -110.56 414.79 C-108.4 416.46 -106.3 418.2 -104.19 419.94 C-99.06 424.06 -93.67 427.79 -88.28 431.55 C-82.66 435.49 -77.26 439.6 -72 444 C-87.83 436.26 -87.83 436.26 -92.88 432.94 C-93.91 432.3 -94.94 431.66 -96 431 C-96.66 431.33 -97.32 431.66 -98 432 C-97.66 432.76 -97.32 433.53 -96.98 434.32 C-88.98 453.52 -88.59 475.91 -96.25 495.38 C-105.35 515.27 -120.35 528.72 -140.73 536.41 C-144.14 537.65 -147.56 538.84 -151 540 C-147.47 536.31 -143.81 533.23 -139.69 530.19 C-139.14 529.78 -138.59 529.37 -138.02 528.96 C-136.68 527.97 -135.34 526.98 -134 526 C-137.47 524.84 -138.89 525.2 -142.43 525.97 C-143.52 526.21 -144.62 526.44 -145.75 526.69 C-146.92 526.96 -148.1 527.22 -149.31 527.5 C-151.13 527.91 -151.13 527.91 -152.98 528.33 C-164.21 530.93 -175.11 534.24 -186 538 C-186.79 538.27 -187.57 538.54 -188.38 538.81 C-193.27 540.49 -198.14 542.22 -203 544 C-204.13 544.41 -205.25 544.82 -206.41 545.24 C-214.83 548.38 -222.92 552.09 -231 556 C-231.61 556.29 -232.22 556.58 -232.85 556.89 C-251.42 565.78 -269.33 575.9 -286 588 C-287.56 589.11 -289.12 590.23 -290.68 591.34 C-300.93 598.72 -310.62 606.54 -320 615 C-320.97 615.87 -321.94 616.74 -322.94 617.64 C-324.6 619.13 -326.26 620.63 -327.91 622.13 C-329.73 623.75 -331.56 625.33 -333.44 626.88 C-336.37 629.28 -336.37 629.28 -339 632 C-339 632.66 -339 633.32 -339 634 C-339.58 634.24 -340.15 634.48 -340.75 634.73 C-343.46 636.26 -345.02 638.02 -347.06 640.38 C-349.5 643.17 -351.94 645.94 -354.5 648.62 C-360.4 654.81 -365.71 661.32 -370.88 668.12 C-371.51 668.95 -372.14 669.77 -372.79 670.62 C-380.3 680.55 -380.3 680.55 -383.56 692.31 C-382.77 697.48 -380.85 699.62 -376.75 702.69 C-369.69 706.06 -362.75 706.34 -355.06 706.31 C-354.12 706.33 -353.19 706.34 -352.22 706.36 C-346.12 706.37 -340.48 705.88 -335 703 C-332.88 700.8 -332.88 700.8 -331.62 698.06 C-324.9 686.3 -313.35 673.72 -301 668 C-301.53 668.49 -302.07 668.97 -302.62 669.48 C-317.61 683.74 -330.53 703.88 -332.24 724.95 C-332.48 735.27 -330.44 744 -323.84 752.15 C-316.65 759.39 -309.06 763.27 -298.81 763.38 C-291.82 763.33 -286.28 762.04 -280 759 C-279.42 758.72 -278.85 758.44 -278.25 758.15 C-269.54 753.88 -261.71 748.91 -254 743 C-253.01 742.34 -252.02 741.68 -251 741 C-260.48 754.17 -272.15 762.06 -286.56 769.31 C-295.96 774.29 -304.55 781.79 -310 791 C-311.52 796.04 -312.38 801.27 -309.93 806.12 C-302.82 815.3 -290.62 819.58 -279.56 821.57 C-262.36 823.66 -245.5 820.75 -230 813 C-236.11 819.95 -244.4 824.75 -253 828 C-253 828.33 -253 828.66 -253 829 C-232.3 830.68 -210.88 816.73 -195.49 804.12 C-190.17 799.59 -184.9 794.99 -180 790 C-189.03 809.68 -211.16 824.87 -230.44 832.75 C-242.32 837.14 -254.03 838.77 -266 834 C-266.66 833.34 -267.32 832.68 -268 832 C-270.01 831.53 -270.01 831.53 -272.33 831.32 C-273.21 831.22 -274.08 831.12 -274.98 831.01 C-276.38 830.85 -276.38 830.85 -277.81 830.69 C-290.21 829.07 -299.99 826.1 -310.07 818.36 C-311.88 816.81 -311.88 816.81 -314 817 C-314.25 816.46 -314.5 815.93 -314.75 815.38 C-316.04 812.83 -316.04 812.83 -318.06 809.94 C-321.25 805.11 -321.72 800.66 -321 795 C-318.78 787.2 -315.26 781.48 -309.57 775.74 C-307.78 774.14 -307.78 774.14 -308 772 C-309.06 771.5 -310.12 771.01 -311.22 770.5 C-325.75 763.57 -334.78 756.62 -340.38 740.94 C-342.7 732.91 -342.27 725.3 -342 717 C-349.92 717.33 -357.84 717.66 -366 718 C-366.33 718.99 -366.66 719.98 -367 721 C-367.66 721 -368.32 721 -369 721 C-370.62 722.84 -372.1 724.67 -373.56 726.62 C-374.01 727.21 -374.45 727.8 -374.9 728.4 C-386.62 744.13 -400.67 765.41 -398 786 C-396.47 790.22 -394.91 792.76 -391 795 C-380.58 799.83 -369.1 796.43 -358.86 792.76 C-354.38 790.94 -350.12 788.44 -348.06 783.94 C-346.71 781.46 -345.54 781.19 -343 780 C-340.96 778.38 -338.97 776.75 -337 775.06 C-333.73 772.28 -330.47 769.53 -327 767 C-326.67 767.33 -326.34 767.66 -326 768 C-326.57 768.68 -327.14 769.36 -327.72 770.05 C-336.88 781.09 -344.01 792.01 -350 805 C-350.45 805.96 -350.9 806.92 -351.36 807.91 C-355.54 817.95 -356.9 831.66 -353 842 C-347.55 853.11 -337.22 859.56 -326 864 C-299.13 872.87 -268.18 869.66 -243.01 857.06 C-232.72 851.64 -222.32 845.18 -214 837 C-214 836.34 -214 835.68 -214 835 C-213.01 834.67 -212.02 834.34 -211 834 C-211 833.34 -211 832.68 -211 832 C-210.34 832.33 -209.68 832.66 -209 833 C-227.1 856.6 -248.39 872.68 -278.12 878.31 C-302.15 881.46 -326.77 878.5 -346.95 864.39 C-351.22 861.04 -354.72 857.31 -358 853 C-359.29 855.85 -359.29 855.85 -358.26 858.05 C-357.66 859.21 -357.66 859.21 -357.04 860.39 C-356.59 861.26 -356.15 862.13 -355.68 863.02 C-355.19 863.94 -354.7 864.86 -354.19 865.81 C-353.69 866.75 -353.19 867.7 -352.68 868.67 C-348.37 876.63 -343.47 883.81 -338 891 C-337.11 892.29 -336.22 893.59 -335.34 894.88 C-334.57 895.91 -333.79 896.94 -333 898 C-332.34 898 -331.68 898 -331 898 C-330.66 898.81 -330.66 898.81 -330.31 899.64 C-328.59 902.74 -326.39 905.13 -324 907.75 C-323.32 908.51 -323.32 908.51 -322.63 909.29 C-321.47 910.57 -320.24 911.79 -319 913 C-318.34 913 -317.68 913 -317 913 C-316.5 914.49 -316.5 914.49 -316 916 C-303.93 927.63 -288.78 938.15 -274 946 C-275.99 939.68 -278.36 933.63 -281 927.56 C-283.76 921.12 -286.22 914.79 -288 908 C-280.74 917.31 -274.31 927.03 -268 937 C-267.55 937.71 -267.1 938.42 -266.63 939.15 C-265.31 941.22 -264 943.3 -262.69 945.38 C-262.3 945.98 -261.92 946.58 -261.52 947.21 C-255.87 956.23 -251.04 965.75 -246.12 975.19 C-245.6 976.18 -245.08 977.18 -244.55 978.21 C-241.84 983.4 -239.19 988.6 -236.61 993.86 C-229.61 1008.26 -229.61 1008.26 -218 1019 C-216.68 1019 -215.36 1019 -214 1019 C-213.67 1018.34 -213.34 1017.68 -213 1017 C-210.8 1018.06 -208.85 1019.11 -206.88 1020.56 C-202.79 1022.61 -198.56 1023.16 -194 1023 C-193.01 1022.34 -192.02 1021.68 -191 1021 C-188.1 1021.19 -186.97 1022.03 -184.75 1023.94 C-179.59 1027.81 -173.35 1028.66 -167 1028 C-160.92 1026.09 -155.42 1023.3 -150 1020 C-149.67 1020.66 -149.34 1021.32 -149 1022 C-141.2 1017.39 -134.53 1012.26 -128 1006 C-127.36 1005.41 -126.72 1004.83 -126.07 1004.22 C-117.75 996.35 -111.57 985.95 -106 976 C-106 975.34 -106 974.68 -106 974 C-105.34 974 -104.68 974 -104 974 C-104.6 976.84 -105.2 979.67 -105.81 982.5 C-105.98 983.29 -106.14 984.08 -106.31 984.9 C-107.46 990.15 -109 995.01 -111 1000 C-63.56 1007.05 -15.28 992.41 25 968 C15.17 978.85 1.13 986.82 -12 993 C-12 993.33 -12 993.66 -12 994 C-5.62 993.45 0.14 992.33 6.25 990.44 C7.11 990.18 7.96 989.91 8.84 989.64 C23.69 984.99 38.05 979.43 51.81 972.15 C54.32 970.83 56.85 969.55 59.38 968.26 C61.25 967.3 63.13 966.34 65 965.38 C65.87 964.93 66.75 964.49 67.64 964.03 C73.21 961.14 78.07 957.85 83 954 C84.55 952.86 86.1 951.73 87.66 950.6 C88.45 950.02 89.25 949.44 90.07 948.84 C91.69 947.66 93.31 946.48 94.93 945.3 C100.2 941.45 105.17 937.38 110 933 C108.68 935.89 107.23 938.06 105.07 940.38 C104.22 941.3 104.22 941.3 103.35 942.23 C102.76 942.86 102.17 943.48 101.56 944.12 C100.68 945.07 100.68 945.07 99.79 946.04 C97.27 948.74 95.09 950.94 92 953 C92 953.66 92 954.32 92 955 C91.42 955.25 90.85 955.5 90.25 955.76 C87.71 957.16 86.01 958.78 83.94 960.81 C69.16 974.33 50.98 984.4 33 993 C33.68 998.12 37.31 1000.5 41.03 1003.74 C46.65 1008.02 52.81 1012 60 1012 C60 1011.01 60 1010.02 60 1009 C61.15 1009.31 61.15 1009.31 62.32 1009.62 C76.22 1013.48 76.22 1013.48 90 1012 C90.66 1009.47 90.66 1009.47 91 1007 C91.52 1007.37 92.04 1007.75 92.57 1008.13 C96.7 1011.06 96.7 1011.06 101.5 1012.06 C102.33 1011.71 103.15 1011.36 104 1011 C105.18 1010.51 106.35 1010.01 107.56 1009.5 C130.22 997.62 145.72 975.31 157 953 C157.54 951.93 158.08 950.87 158.64 949.77 C164.87 936.33 169.63 920.77 171 906 C167.91 907.03 166.71 908.19 164.5 910.48 C158.89 916.15 152.73 920.75 146 925 C146.68 924.21 147.36 923.42 148.05 922.61 C164.77 903.1 179.22 882.29 192 860 C192.41 859.29 192.81 858.58 193.23 857.85 C211.12 826.38 222.66 790.73 226.69 754.82 C227 753 227 753 228 752 C228.27 766.29 227.67 780.3 226.24 794.53 C225.92 797.83 225.64 801.13 225.38 804.44 C225.3 805.34 225.23 806.25 225.15 807.18 C225.1 807.78 225.05 808.38 225 809 C231.5 808.73 235.34 806.5 240 802 C259.71 779.33 260.27 745.09 258.48 716.76 C257.57 703.73 255.75 690.97 253.34 678.13 C253 676 253 676 253 673 C258.67 685.42 263.3 697.84 267 711 C272.43 706.06 274.53 700.08 275.36 692.85 C275.5 689.56 275.5 686.29 275.44 683 C275.45 681.35 275.45 681.35 275.46 679.67 C275.4 672.33 274.3 665.96 272 659 C271.63 657.83 271.63 657.83 271.24 656.64 C265.95 640.65 258.48 625.92 249 612 C248.64 611.47 248.29 610.94 247.92 610.39 C242.07 601.7 235.62 593.9 228.34 586.39 C227.18 585.19 226.05 583.98 224.92 582.76 C219.21 576.77 212.65 571.88 206 567 C205.21 566.42 204.43 565.84 203.62 565.24 C197.34 560.82 188.81 555 181 555 C182.34 558.53 183.9 561.78 185.76 565.07 C206.57 602.47 206.57 602.47 208.48 621.34 C208.94 625.97 209.9 630.41 210.94 634.94 C214.5 651.35 215.3 667.24 215 684 C214.88 683.26 214.76 682.51 214.64 681.75 C207.87 640.41 193.1 601.32 164.04 570.2 C162.14 568.15 160.34 566.04 158.56 563.88 C157.72 562.93 156.87 561.98 156 561 C155.34 561 154.68 561 154 561 C153.77 560.44 153.55 559.89 153.31 559.31 C151.64 556.37 149.41 554.35 147 552 C148.94 553.43 150.88 554.87 152.81 556.31 C153.36 556.72 153.91 557.12 154.47 557.54 C156.69 559.19 158.82 560.81 160.76 562.79 C161.95 564.23 161.95 564.23 164 564 C164 564.66 164 565.32 164 566 C165.45 567.47 165.45 567.47 167.38 569 C178.68 578.65 188.21 589.58 196.49 601.91 C197.87 603.82 199.28 605.4 201 607 C198.31 594.77 188.78 583.5 181 574 C180.15 572.95 179.29 571.9 178.44 570.86 C176.9 568.98 175.36 567.11 173.81 565.24 C172 563 172 563 170 560 C169.34 560 168.68 560 168 560 C167.73 559.41 167.46 558.82 167.18 558.22 C164.28 552.76 159.83 548.75 155 545 C154.34 544.01 153.68 543.02 153 542 C152.34 542 151.68 542 151 542 C150.67 541.01 150.34 540.02 150 539 C149.34 539 148.68 539 148 539 C147.67 538.01 147.34 537.02 147 536 C145.35 534.65 143.68 533.31 142 532 C141.34 531.01 140.68 530.02 140 529 C139.34 529 138.68 529 138 529 C137.79 528.44 137.59 527.89 137.38 527.31 C135.83 524.72 133.94 523.22 131.59 521.37 C129.92 519.93 128.62 518.41 127.25 516.69 C126.51 515.8 125.76 514.91 125 514 C124.34 514 123.68 514 123 514 C122.73 513.4 122.47 512.81 122.19 512.19 C120.98 509.95 119.8 508.66 117.94 506.94 C114.08 503.19 110.74 499.12 107.38 494.93 C105.03 492.04 102.61 489.21 100.19 486.38 C84.24 467.19 71.7 446.7 67 422 C66.34 422.18 65.68 422.36 65.01 422.55 C16.02 436.04 16.02 436.04 -7 435 C-6.29 434.88 -5.59 434.75 -4.86 434.62 C22.06 429.76 48.39 422.13 73 410 C74.43 409.31 75.85 408.63 77.28 407.94 C83.94 404.7 90.43 401.29 96.74 397.39 C100.42 395.13 104.21 393.07 108 391 C108 390.67 108 390.34 108 390 C106.89 389.9 106.89 389.9 105.76 389.79 C82.6 387.55 61.07 385.04 43 369 C42.39 368.48 41.78 367.96 41.14 367.43 C33.05 360.05 27.33 349.65 26.56 338.69 C26.72 332.18 29.69 326.37 34.19 321.75 C35.88 320.7 37.59 319.67 39.33 318.68 C48.18 313.61 54.04 307.98 57 298 C63.88 267.64 58.78 238.06 44 211 C43.67 210.38 43.33 209.77 42.99 209.13 C40.18 203.95 40.18 203.95 37 199 C36.34 199 35.68 199 35 199 C34.77 198.29 34.55 197.59 34.31 196.86 C32.74 193.43 30.56 190.96 28 188.25 C27.51 187.73 27.02 187.2 26.52 186.66 C18.73 178.44 10.28 171.48 1 165 C29.11 177.71 49.76 201.8 61.27 230.12 C64.7 239.24 66.94 248.5 69 258 C71.16 255.92 73.1 253.87 74.91 251.48 C77.21 248.75 79.37 247.2 82.44 245.38 C83.36 244.81 84.29 244.24 85.25 243.65 C95.64 238.55 107.03 238.6 118.31 238.81 C119.75 238.83 121.18 238.84 122.62 238.85 C126.08 238.89 129.54 238.94 133 239 C132.98 237.78 132.97 236.55 132.95 235.29 C132.9 230.65 132.86 226 132.84 221.35 C132.82 219.36 132.8 217.37 132.77 215.38 C132.53 196.8 132.45 174.1 141 157 C140.94 157.74 140.88 158.47 140.82 159.23 C139.71 173.04 138.8 186.77 138.81 200.62 C138.81 201.71 138.81 202.79 138.81 203.9 C138.86 210.65 139.28 217.29 140 224 C140.33 224 140.66 224 141 224 C141.08 223.42 141.15 222.84 141.23 222.25 C143.91 201.85 143.91 201.85 147 192 C150.3 192 153.6 192 157 192 C158.04 163 151.49 134.31 131.75 112 C130.18 110.33 128.59 108.66 127 107 C126.21 106.14 125.42 105.28 124.61 104.39 C113.21 92.32 98.88 82.33 84 75 C83.34 75 82.68 75 82 75 C83.49 79.5 84.99 84 86.57 88.46 C87.09 89.96 87.61 91.45 88.12 92.94 C88.39 93.67 88.65 94.41 88.93 95.16 C90.85 100.75 91.63 106.11 92 112 C91.8 111.48 91.61 110.96 91.41 110.42 C84.28 91.54 75.48 75.83 63 60 C61.87 58.54 61.87 58.54 60.73 57.04 C50.46 44.01 38.68 33.32 25 24 C24.16 23.41 24.16 23.41 23.3 22.81 C20.42 20.66 20.42 20.66 17 20 C17 32.21 17 44.42 17 57 C14.65 54.65 12.87 52.53 10.94 49.88 C-3.83 30.86 -24.95 22.49 -48 19 Z M151 196 C148.72 198.82 148.72 198.82 149 202 C151.64 202.99 154.28 203.98 157 205 C157.23 200.21 157.23 200.21 155 196 C153.68 196 152.36 196 151 196 Z M149 208 C148.67 209.32 148.34 210.64 148 212 C149.58 212.99 149.58 212.99 151.19 214 C158.71 219.49 160.88 226.52 162.56 235.46 C163.57 243.62 162.27 250.54 159 258 C157.56 261.06 157.56 261.06 157 264 C158.1 266.89 158.1 266.89 160 269 C160.66 269 161.32 269 162 269 C167.69 251.45 170.02 235.35 161.54 218.01 C159.18 213.88 157.16 210.48 153 208 C151.68 208 150.36 208 149 208 Z M148 229 C148 230.65 148 232.3 148 234 C148.66 234 149.32 234 150 234 C150 232.35 150 230.7 150 229 C149.34 229 148.68 229 148 229 Z M81.17 261.05 C72.73 271.99 69.79 285.4 66.82 298.61 C64.71 307.76 61.86 314.53 55 321 C55 321.99 55 322.98 55 324 C92.03 346.37 131.73 343.17 172.35 334.27 C212.72 325.48 212.72 325.48 232 328 C231.42 328.05 230.84 328.11 230.24 328.16 C216.48 329.51 203.02 331.61 189.5 334.44 C188.76 334.59 188.02 334.75 187.26 334.91 C179.41 336.56 171.6 338.3 163.81 340.25 C127.04 349.04 91.46 346.42 57.57 329.73 C55.8 328.88 55.8 328.88 54 328 C53.1 327.56 52.21 327.12 51.28 326.66 C48.42 325.83 47.4 326.23 44.81 327.62 C44.14 327.97 43.46 328.31 42.77 328.66 C40.7 330.23 40.08 331.68 39 334 C52.39 340.71 65.59 346.84 80 351 C81.56 351.47 81.56 351.47 83.14 351.95 C96.62 355.71 111.08 356.62 125 356 C125.73 355.97 126.46 355.95 127.21 355.92 C147.52 355.1 167.25 349.8 186.92 345.06 C205.4 340.6 224.11 336.27 243 341 C243.81 331.72 239.81 324.12 233.97 317.1 C224.13 306.62 211.81 302.84 198.06 300 C182.54 296.58 166.91 292.47 156 280 C155.57 279.53 155.13 279.07 154.69 278.58 C149.61 272.95 146.07 266.59 142.32 260.03 C141.82 259.17 141.32 258.31 140.8 257.42 C140.36 256.64 139.92 255.87 139.46 255.07 C137.28 251.97 135.13 250.3 131.47 249.33 C113.62 247.63 94.06 246.61 81.17 261.05 Z M152 253 C152.33 254.65 152.66 256.3 153 258 C155.1 255.13 155.1 255.13 156 252 C153.93 251.85 153.93 251.85 152 253 Z M165 270 C164.57 273.88 164.57 273.88 166.5 275.75 C167 276.16 167.49 276.57 168 277 C168.66 276.67 169.32 276.34 170 276 C168.51 273.03 168.51 273.03 167 270 C166.34 270 165.68 270 165 270 Z M38 344 C41.06 354.64 49.73 363.26 59.09 368.84 C67.43 373.27 75.74 376.01 85 378 C85.98 378.23 86.95 378.45 87.96 378.68 C95.5 380.15 103.08 380.27 110.75 380.38 C112.35 380.41 112.35 380.41 113.98 380.45 C121.76 380.47 128.08 379.3 134.16 374.18 C134.82 373.32 134.82 373.32 135.5 372.44 C135.96 371.86 136.43 371.28 136.91 370.68 C138.18 368.88 138.18 368.88 139 366 C135.98 364.49 132.89 364.98 129.59 365.08 C99.26 365.7 73.5 361.82 46.43 347.73 C43.65 346.33 40.91 345.09 38 344 Z M164 359 C164 359.33 164 359.66 164 360 C175.23 360.11 186.46 360.02 197.69 359.69 C199.32 359.65 199.32 359.65 200.98 359.62 C209.29 359.34 216.86 358.23 223.56 352.94 C224.22 352.43 224.89 351.92 225.57 351.4 C226.04 350.94 226.51 350.48 227 350 C227 349.34 227 348.68 227 348 C205.96 348 184.34 354.09 164 359 Z M201 607 C201.66 608.65 202.32 610.3 203 612 C203.33 611.34 203.66 610.68 204 610 C203.01 609.01 202.02 608.02 201 607 Z M-360 851 C-359 853 -359 853 -359 853 Z M12.35 1001.21 C11.44 1001.46 10.52 1001.72 9.58 1001.98 C8.6 1002.26 7.63 1002.53 6.62 1002.81 C-29.49 1012.79 -65.56 1015.55 -102.92 1014.98 C-103.83 1014.97 -104.75 1014.96 -105.7 1014.94 C-107.42 1014.92 -109.15 1014.89 -110.87 1014.85 C-115.72 1014.79 -115.72 1014.79 -120 1017 C-120 1017.66 -120 1018.32 -120 1019 C-120.59 1019.27 -121.19 1019.53 -121.8 1019.81 C-124.04 1021.02 -125.4 1022.27 -127.19 1024.06 C-134.69 1030.82 -144.68 1035.3 -154 1039 C-154.85 1046.86 -155.17 1054.63 -155.2 1062.54 C-155.21 1063.69 -155.21 1064.85 -155.22 1066.05 C-155.23 1068.48 -155.24 1070.92 -155.24 1073.35 C-155.25 1077.06 -155.28 1080.76 -155.31 1084.46 C-155.32 1086.84 -155.32 1089.22 -155.33 1091.6 C-155.34 1092.69 -155.35 1093.79 -155.37 1094.92 C-155.35 1101.92 -155.22 1110.04 -150.59 1115.74 C-146.22 1119.21 -137.95 1118.31 -132.48 1118.61 C-130.63 1118.73 -128.79 1118.84 -126.94 1118.96 C-124.07 1119.14 -121.19 1119.31 -118.31 1119.47 C-93.78 1120.85 -93.78 1120.85 -84.41 1129.3 C-82.86 1131.17 -82.33 1132.71 -81.56 1135 C-80.08 1138.44 -78.92 1139.04 -75.45 1140.7 C-72.67 1141.76 -69.87 1142.68 -67.04 1143.58 C-63 1144.89 -59.62 1146.79 -56 1149 C-56.08 1147.97 -56.16 1146.94 -56.25 1145.88 C-55.9 1140.49 -54.07 1137.93 -50.15 1134.28 C-36.14 1122.68 -18.74 1118.4 -1.21 1115.38 C24.46 1111.29 24.46 1111.29 44.2 1095.61 C51.11 1085.57 51.36 1073.02 50.75 1061.25 C50.69 1060.09 50.63 1058.92 50.57 1057.73 C50.45 1055.33 50.32 1052.94 50.18 1050.54 C50.01 1047.13 49.91 1043.72 49.83 1040.3 C49.74 1038.24 49.66 1036.18 49.56 1034.12 C49.55 1032.7 49.55 1032.7 49.54 1031.25 C49.37 1028.5 49.15 1026.5 48 1024 C45.61 1022.24 43.28 1021.17 40.53 1020.05 C32.51 1016.71 26.27 1008.6 21.44 1001.62 C20.96 1001.08 20.49 1000.55 20 1000 C17.1 1000 15.12 1000.43 12.35 1001.21 Z M86.94 1025 C78.78 1026.75 70.3 1026.15 62 1026 C62.11 1027.92 62.11 1027.92 62.22 1029.87 C62.81 1041.21 63.18 1052.56 63.29 1063.91 C63.3 1065.33 63.33 1066.74 63.36 1068.15 C63.71 1084.8 59.81 1098.44 49.2 1111.31 C42.16 1119.92 35.73 1129.03 29.33 1138.12 C27.95 1140.08 26.54 1142.01 25.13 1143.95 C17.37 1154.77 8.55 1168.02 8.81 1181.88 C8.82 1182.64 8.83 1183.4 8.83 1184.18 C8.81 1186.02 8.81 1186.02 10 1187 C15.6 1187.35 20.4 1186.43 25.75 1185 C26.56 1184.79 27.38 1184.57 28.22 1184.35 C36.88 1181.94 45.04 1178.47 53.22 1174.77 C69.88 1167.59 89.31 1175.76 104.97 1181.83 C116.38 1186.15 128.76 1189.1 141 1189 C141.33 1188.67 141.66 1188.34 142 1188 C142 1174.14 130.72 1162.86 121.69 1153.25 C114.91 1146.59 107.07 1141.25 99.35 1135.73 C96.11 1133.34 92.97 1130.83 89.83 1128.29 C88.1 1126.81 88.1 1126.81 86 1127 C86 1126.34 86 1125.68 86 1125 C89.03 1126.36 92.05 1127.73 95.07 1129.12 C96.45 1129.75 97.83 1130.37 99.21 1130.99 C109.21 1135.49 118.49 1139.97 127 1147 C127.68 1147.52 128.35 1148.03 129.05 1148.56 C137.78 1155.56 144.67 1165.25 150 1175 C150.67 1174.94 151.33 1174.88 152.02 1174.82 C152.94 1174.73 153.86 1174.65 154.81 1174.56 C156.15 1174.44 156.15 1174.44 157.52 1174.32 C158.67 1174.21 159.82 1174.11 161 1174 C161.8 1173.91 162.59 1173.82 163.41 1173.73 C170.41 1172.98 177.17 1173.06 184.19 1173.44 C193.81 1173.89 203.37 1174.13 213 1174 C201.91 1155.46 189.47 1147.62 169.82 1139.65 C159.05 1135.27 149.28 1130.25 139.93 1123.29 C138.11 1121.81 138.11 1121.81 136 1122 C136 1121.34 136 1120.68 136 1120 C134.37 1118.62 132.71 1117.28 131 1116 C131.33 1115.34 131.66 1114.68 132 1114 C131.11 1113.64 131.11 1113.64 130.21 1113.27 C125.57 1111.3 121.87 1109.29 118 1106 C117.34 1106 116.68 1106 116 1106 C115.77 1105.48 115.55 1104.97 115.31 1104.44 C114.88 1103.63 114.45 1102.83 114 1102 C113.76 1101.4 113.53 1100.8 113.28 1100.18 C112.1 1097.82 111.14 1096.56 109 1095 C103.99 1094.1 99.04 1094.56 94 1095 C93.1 1095.07 92.21 1095.15 91.28 1095.23 C87.44 1095.56 83.6 1095.89 79.77 1096.29 C74.47 1096.83 69.32 1097.1 64 1097 C67.73 1094.77 71.71 1094.09 75.94 1093.38 C76.71 1093.24 77.48 1093.11 78.28 1092.98 C87.82 1091.51 97.37 1091.74 107 1092 C106.48 1083.43 106.48 1083.43 103 1076 C101.22 1075.91 99.44 1075.89 97.65 1075.9 C96.57 1075.91 95.49 1075.91 94.38 1075.91 C92.68 1075.92 92.68 1075.92 90.94 1075.94 C89.23 1075.94 89.23 1075.94 87.48 1075.95 C84.65 1075.96 81.83 1075.98 79 1076 C79 1075.34 79 1074.68 79 1074 C82.47 1073.51 82.47 1073.51 86 1073 C91.61 1071.68 97.22 1070.36 103 1069 C103 1054.81 103 1040.62 103 1026 C94.79 1023.9 94.79 1023.9 86.94 1025 Z M-209 1035 C-209.12 1042.09 -208.82 1048.96 -208 1056 C-203.05 1056.33 -198.1 1056.66 -193 1057 C-197.95 1057.33 -202.9 1057.66 -208 1058 C-208 1058.99 -208 1059.98 -208 1061 C-205.03 1061.33 -202.06 1061.66 -199 1062 C-201.05 1062.23 -203.1 1062.46 -205.15 1062.68 C-207.01 1062.82 -207.01 1062.82 -208 1064 C-208.12 1066.42 -208.19 1068.81 -208.21 1071.23 C-208.24 1072.76 -208.26 1074.29 -208.29 1075.82 C-208.3 1076.63 -208.32 1077.43 -208.33 1078.26 C-208.65 1096.43 -209.25 1114.58 -215 1132 C-209.42 1131.5 -209.42 1131.5 -203.92 1130.52 C-196.78 1128.89 -189.93 1128.73 -182.62 1128.81 C-180.88 1128.81 -180.88 1128.81 -179.11 1128.81 C-169.81 1128.86 -169.81 1128.86 -166 1130 C-169.49 1130.8 -172.62 1131.08 -176.19 1131 C-183.73 1130.95 -191.21 1131.22 -198.73 1131.83 C-200.2 1131.94 -201.67 1132.02 -203.14 1132.07 C-210.33 1132.31 -215.66 1133.25 -220.79 1138.59 C-223.92 1142.22 -226.74 1146.03 -229.51 1149.93 C-231.41 1152.58 -233.5 1155.03 -235.62 1157.5 C-256.05 1182.5 -256.05 1182.5 -263 1213 C-261.43 1214.57 -259.93 1214.25 -257.75 1214.31 C-248.6 1214.2 -240.41 1210.76 -232.25 1206.88 C-212.83 1197.68 -193.74 1203.83 -173.91 1208.66 C-143.08 1217.81 -143.08 1217.81 -112 1217 C-113.22 1209.99 -117.11 1205.07 -122 1200 C-122.66 1200 -123.32 1200 -124 1200 C-124 1199.34 -124 1198.68 -124 1198 C-126.15 1196.22 -128.3 1194.57 -130.56 1192.94 C-131.24 1192.45 -131.92 1191.96 -132.62 1191.45 C-143.21 1183.89 -154.34 1177.69 -166.01 1171.97 C-176.37 1166.88 -186.38 1161.4 -196 1155 C-187.49 1157.35 -179.28 1160.43 -171.06 1163.62 C-170.38 1163.89 -169.7 1164.16 -168.99 1164.43 C-119.53 1183.69 -119.53 1183.69 -108.89 1200.78 C-106.73 1204.05 -105.11 1205.75 -101.2 1206.62 C-97.64 1206.83 -94.14 1206.81 -90.58 1206.72 C-89.28 1206.71 -87.99 1206.7 -86.65 1206.7 C-83.22 1206.67 -79.79 1206.61 -76.35 1206.54 C-73.55 1206.49 -70.74 1206.47 -67.93 1206.44 C-62.14 1206.4 -56.34 1206.34 -50.55 1206.22 C-49.52 1206.21 -48.5 1206.19 -47.44 1206.17 C-44.99 1206.16 -44.99 1206.16 -43 1205 C-44.12 1202.03 -45.22 1199.67 -47 1197 C-47.66 1197 -48.32 1197 -49 1197 C-49.32 1196.16 -49.32 1196.16 -49.65 1195.3 C-58.25 1180.67 -80.98 1174.42 -96.09 1170.36 C-112.69 1165.86 -130.32 1157.79 -143.68 1146.8 C-145.77 1144.8 -145.77 1144.8 -148 1145 C-148 1144.34 -148 1143.68 -148 1143 C-146.16 1143.71 -146.16 1143.71 -144.29 1144.43 C-103.88 1163.6 -103.88 1163.6 -62 1164 C-65.26 1157.76 -69.71 1155.74 -76 1153 C-88 1149.4 -100.4 1147.33 -112.71 1145.15 C-121.51 1143.58 -130.18 1141.82 -138.8 1139.45 C-139.54 1139.25 -140.28 1139.05 -141.04 1138.84 C-148.51 1136.72 -155.35 1133.93 -159.88 1127.31 C-162.3 1122.38 -164.12 1117.17 -166 1112 C-175.24 1112 -184.48 1112 -194 1112 C-193.67 1111.34 -193.34 1110.68 -193 1110 C-187.66 1108.69 -182.1 1108.68 -176.62 1108.44 C-175.7 1108.39 -174.77 1108.35 -173.82 1108.31 C-171.54 1108.2 -169.27 1108.1 -167 1108 C-167.11 1106.46 -167.11 1106.46 -167.22 1104.88 C-167.31 1103.44 -167.41 1102 -167.5 1100.56 C-167.57 1099.56 -167.57 1099.56 -167.64 1098.54 C-168.54 1084.37 -167.96 1070.11 -167.5 1055.94 C-167.45 1054.38 -167.4 1052.82 -167.36 1051.26 C-167.24 1047.5 -167.12 1043.75 -167 1040 C-170.05 1038.99 -170.05 1038.99 -173 1040 C-180.3 1040.35 -180.3 1040.35 -182.95 1039.02 C-185.38 1037.81 -187.29 1037.67 -190 1037.5 C-192.69 1037.34 -194.58 1037.22 -196.98 1035.98 C-199.53 1034.74 -201.43 1034.8 -204.25 1034.88 C-205.59 1034.9 -205.59 1034.9 -206.95 1034.93 C-207.63 1034.95 -208.3 1034.98 -209 1035 Z M134 1116 C138.61 1119.68 143.76 1121.77 149.12 1124.12 C150.23 1124.61 151.33 1125.1 152.46 1125.6 C161.46 1129.49 170.61 1132.7 179.92 1135.78 C187.52 1138.35 194.4 1141.45 201.34 1145.47 C203.97 1147.1 203.97 1147.1 207 1148 C207.99 1147.67 208.98 1147.34 210 1147 C212.06 1146.78 214.12 1146.59 216.19 1146.44 C217.82 1146.31 217.82 1146.31 219.48 1146.18 C220.31 1146.12 221.14 1146.06 222 1146 C222 1145.34 222 1144.68 222 1144 C220.03 1142.46 218.09 1141.1 216 1139.75 C215.47 1139.38 214.93 1139.01 214.38 1138.63 C203.05 1131.25 189.5 1128.11 176.43 1125.41 C172.49 1124.6 168.56 1123.75 164.63 1122.9 C163.87 1122.74 163.12 1122.58 162.33 1122.41 C155.79 1120.99 149.33 1119.31 142.92 1117.37 C139.72 1116.41 137.4 1116 134 1116 Z M26.32 1122.34 C18.95 1125.21 11.68 1126.5 3.88 1127.62 C-8.38 1129.45 -19.67 1131.34 -30.69 1137.19 C-31.4 1137.56 -32.11 1137.92 -32.85 1138.3 C-34.57 1139.19 -36.29 1140.09 -38 1141 C-37.67 1141.66 -37.34 1142.32 -37 1143 C-34.15 1143.95 -31.32 1144.8 -28.44 1145.62 C-19.02 1148.44 -10.63 1152.36 -2 1157 C-0.67 1157.67 0.66 1158.34 2 1159 C2.45 1158.27 2.9 1157.55 3.36 1156.8 C7.54 1150.27 11.93 1144.57 17.32 1139.01 C19.74 1136.49 21.67 1134.25 23 1131 C23.66 1131 24.32 1131 25 1131 C26.74 1129.32 26.74 1129.32 28.5 1127.19 C29.11 1126.48 29.72 1125.77 30.34 1125.04 C32.14 1122.9 32.14 1122.9 34 1120 C31.11 1120 28.98 1121.22 26.32 1122.34 Z M-123 1132 C-119.17 1134.33 -114.98 1134.89 -110.62 1135.62 C-109.88 1135.76 -109.14 1135.89 -108.38 1136.03 C-104.2 1136.75 -100.26 1137.15 -96 1137 C-96 1136.34 -96 1135.68 -96 1135 C-104.9 1131.33 -113.57 1131.7 -123 1132 Z M-243 1152 C-244.91 1152.67 -246.8 1153.43 -248.66 1154.22 C-256.08 1157.17 -263.63 1158.9 -271.44 1160.5 C-285.93 1163.48 -299.18 1167.39 -312 1175 C-311.67 1175.66 -311.34 1176.32 -311 1177 C-309.19 1177.54 -309.19 1177.54 -306.98 1177.82 C-306.13 1177.96 -305.28 1178.1 -304.41 1178.24 C-303.49 1178.39 -302.57 1178.54 -301.62 1178.69 C-290.85 1180.55 -281.12 1183.94 -271 1188 C-270.01 1188.33 -269.02 1188.66 -268 1189 C-267.53 1188.04 -267.05 1187.09 -266.57 1186.11 C-259.98 1173.11 -251.47 1163.08 -241 1153 C-241.99 1152.51 -241.99 1152.51 -243 1152 Z " fill="#020504" transform="translate(713,43)"/>
<path d="M0 0 C1.3 0.95 2.59 1.9 3.88 2.88 C4.87 3.54 5.86 4.19 6.88 4.88 C6.88 5.54 6.88 6.19 6.88 6.88 C7.87 7.2 8.86 7.54 9.88 7.88 C20.37 20.19 27.91 35.45 26.81 52.06 C24.61 61.01 20.62 67.74 12.88 72.88 C0.9 79.35 -10.43 82.02 -23.75 78.25 C-38.16 73.37 -48.94 64.36 -55.71 50.67 C-58.56 44 -60.28 38.35 -60.19 31.06 C-60.18 30.09 -60.17 29.11 -60.16 28.11 C-60.15 27.37 -60.14 26.63 -60.12 25.88 C-60.78 25.88 -61.45 25.88 -62.12 25.88 C-62.12 35.12 -62.12 44.36 -62.12 53.88 C-64.12 52.88 -64.12 52.88 -65.22 49.86 C-68.17 38.49 -67.04 26.96 -61.12 16.88 C-60.68 15.94 -60.23 15.01 -59.77 14.05 C-55.19 4.67 -48.87 -1.49 -39.17 -5.43 C-26.19 -9.83 -11.35 -7.47 0 0 Z M-38.12 13.88 C-40.51 16.78 -40.51 16.78 -39.81 20.5 C-39.48 23.7 -39.48 23.7 -38.12 24.88 C-35.79 24.59 -33.45 24.26 -31.12 23.88 C-31.12 20.9 -31.12 17.94 -31.12 14.88 C-33.43 14.55 -35.75 14.21 -38.12 13.88 Z M-54.12 16.88 C-54.67 32.85 -53.06 45.17 -42.43 57.91 C-33.3 67.58 -21.92 72.9 -8.56 73.38 C1.61 73.01 9.67 70.08 16.88 62.88 C13.97 62.88 12.67 63.24 10.06 64.31 C-0.19 68.27 -10.87 67.77 -21.01 63.72 C-35.37 57.09 -44.81 46.28 -50.35 31.51 C-51.76 26.72 -52.48 21.82 -53.12 16.88 C-53.46 16.88 -53.78 16.88 -54.12 16.88 Z " fill="#020504" transform="translate(710.125,275.125)"/>
<path d="M0 0 C0.33 0.99 0.66 1.98 1 3 C-6.58 17.33 -19.64 34.34 -32 45 C-32.66 45 -33.32 45 -34 45 C-34 45.66 -34 46.32 -34 47 C-35.84 48.62 -37.67 50.1 -39.62 51.56 C-40.21 52.01 -40.79 52.45 -41.4 52.9 C-68.91 73.46 -98.08 82.08 -132 85 C-129.23 82.76 -126.71 81.36 -123.37 80.14 C-118.02 78.07 -113.07 75.53 -108.06 72.75 C-107.19 72.27 -106.32 71.79 -105.42 71.29 C-97.3 66.72 -89.97 61.63 -82.94 55.5 C-80 53 -80 53 -78 53 C-78 52.34 -78 51.68 -78 51 C-76.32 49.38 -76.32 49.38 -74.12 47.56 C-71.54 45.42 -69.89 43.83 -68 41 C-67.34 41 -66.68 41 -66 41 C-65.77 40.44 -65.55 39.89 -65.31 39.31 C-63.64 36.37 -61.45 34.32 -59 32 C-60.75 44.04 -76.61 57.19 -85.85 64.15 C-89.53 66.83 -93.21 69.48 -97 72 C-69.81 65.14 -45.89 48.27 -26 29 C-25.49 28.52 -24.99 28.03 -24.47 27.53 C-17.43 20.75 -11.06 13.68 -5 6 C-3.98 4.77 -2.96 3.54 -1.94 2.31 C-0.98 1.17 -0.98 1.17 0 0 Z " fill="#020504" transform="translate(801,921)"/>
<path d="M0 0 C0.99 0.5 0.99 0.5 2 1 C2.91 6.29 3.17 11.51 3.2 16.88 C3.21 17.6 3.21 18.33 3.22 19.08 C3.23 20.61 3.24 22.15 3.24 23.68 C3.25 25.97 3.28 28.25 3.31 30.54 C3.41 43.67 1.73 56.07 -2.69 68.5 C-2.91 69.14 -3.14 69.79 -3.37 70.45 C-3.9 71.97 -4.45 73.49 -5 75 C-5.66 75 -6.32 75 -7 75 C-6.82 74.16 -6.82 74.16 -6.63 73.31 C-6.08 70.73 -5.54 68.15 -5 65.56 C-4.81 64.68 -4.62 63.81 -4.42 62.9 C-3.23 57.15 -2.81 51.88 -3 46 C-3.27 46.9 -3.54 47.79 -3.81 48.72 C-12.86 77.53 -28.99 99.11 -55.91 113.42 C-58.58 114.82 -61.14 116.05 -64 117 C-63.02 111.8 -61.93 106.67 -60.56 101.56 C-54.87 78.9 -54.05 55.25 -53 32 C-52.34 32.33 -51.68 32.66 -51 33 C-50.92 38.92 -50.87 44.84 -50.84 50.76 C-50.82 52.76 -50.8 54.76 -50.77 56.77 C-50.53 75.81 -52.24 93.12 -59 111 C-32.3 91.59 -14.9 68.97 -6 37 C-5.75 36.11 -5.5 35.21 -5.24 34.29 C-3.26 26.82 -2.14 19.43 -1.31 11.75 C-1.18 10.61 -1.05 9.47 -0.92 8.3 C-0.61 5.53 -0.3 2.77 0 0 Z " fill="#020504" transform="translate(856,705)"/>
<path d="M0 0 C0.66 0 1.31 0.01 1.99 0.01 C24.86 0.18 43.53 5.96 61.38 20.44 C63.55 22.1 65.74 23.74 67.94 25.38 C68.91 26.11 69.88 26.84 70.88 27.59 C72.68 28.92 74.51 30.2 76.38 31.44 C76.04 32.1 75.72 32.76 75.38 33.44 C74.55 33.11 73.73 32.79 72.88 32.45 C51.49 24.36 29.98 23.99 7.38 26.44 C14.81 20.39 24.26 19.89 33.5 19.25 C34.55 19.17 35.6 19.09 36.69 19 C39.25 18.8 41.81 18.62 44.38 18.44 C18.47 5.13 -11.82 2.87 -39.69 11.12 C-41 11.55 -42.32 11.98 -43.62 12.44 C-40.6 9.01 -37.9 7.46 -33.62 5.88 C-32.08 5.29 -32.08 5.29 -30.5 4.68 C-20.25 1.27 -10.82 -0.09 0 0 Z " fill="#020504" transform="translate(491.625,667.5625)"/>
<path d="M0 0 C2.86 2.86 2.94 6.14 3.56 10 C3.69 10.72 3.81 11.44 3.94 12.18 C5.62 22.08 6.18 31.83 6.19 41.88 C6.2 42.97 6.21 44.06 6.22 45.19 C6.24 52.52 5.97 59.9 4 67 C3.01 67.5 3.01 67.5 2 68 C2 56.78 2 45.56 2 34 C0.81 41.45 0.81 41.45 -0.36 48.9 C-4.21 72.51 -4.21 72.51 -11 78 C-10.84 77.22 -10.67 76.43 -10.5 75.62 C-9.94 73.12 -9.94 73.12 -10 71 C-10.9 71.93 -11.81 72.85 -12.74 73.81 C-13.93 75.02 -15.12 76.23 -16.31 77.44 C-17.2 78.35 -17.2 78.35 -18.12 79.29 C-18.69 79.87 -19.27 80.46 -19.86 81.06 C-20.39 81.6 -20.92 82.14 -21.47 82.69 C-23 84 -23 84 -26 85 C-24.45 76.74 -22.51 68.59 -20.5 60.44 C-20.19 59.16 -19.88 57.87 -19.57 56.55 C-19.12 54.73 -19.12 54.73 -18.66 52.87 C-18.39 51.77 -18.12 50.66 -17.84 49.53 C-17.56 48.69 -17.28 47.86 -17 47 C-16.01 46.5 -16.01 46.5 -15 46 C-15.91 56.16 -17.2 65.43 -21 75 C-20.67 75.33 -20.34 75.66 -20 76 C-4.55 56.08 -1.31 36.46 -0.44 11.88 C-0.39 10.73 -0.35 9.58 -0.31 8.4 C-0.2 5.6 -0.1 2.8 0 0 Z " fill="#020504" transform="translate(778,648)"/>
<path d="M0 0 C14.95 9.09 24.01 22.84 28.38 39.69 C29.33 44.75 29.17 49.87 29 55 C26.8 51.69 26.51 49.7 25.88 45.81 C24.67 39.87 22.8 34.84 20.06 29.44 C19.73 28.77 19.39 28.11 19.04 27.42 C17.03 23.59 14.73 20.37 12 17 C12 16.34 12 15.68 12 15 C11.34 15 10.68 15 10 15 C8.31 13.36 6.65 11.69 5 10 C-3.03 2.21 -14.71 0.7 -25.38 0.78 C-36.62 1.47 -45.65 6.73 -54 14 C-55.36 15.64 -56.71 17.3 -58 19 C-58.66 19 -59.32 19 -60 19 C-56.95 10.08 -49.64 3.83 -41.65 -0.75 C-28.05 -7.18 -13.42 -7.39 0 0 Z " fill="#020504" transform="translate(713,262)"/>
<path d="M0 0 C2.6 5.03 3.18 9.21 3.24 14.82 C3.25 15.6 3.25 16.38 3.26 17.19 C3.28 18.84 3.29 20.5 3.3 22.16 C3.31 23.82 3.33 25.49 3.36 27.15 C3.84 54.09 -5.4 75.79 -23 96 C-25.13 97.93 -25.13 97.93 -27.12 99.44 C-27.79 99.95 -28.45 100.47 -29.13 101 C-29.75 101.33 -30.37 101.66 -31 102 C-31.99 101.67 -32.98 101.34 -34 101 C-33.23 100.07 -32.45 99.14 -31.66 98.18 C-10.64 72.56 -0.64 47.04 -1 13.81 C-1.03 11.4 -1.05 8.99 -1.06 6.58 C-1.07 5.53 -1.09 4.48 -1.1 3.4 C-1 1 -1 1 0 0 Z " fill="#020504" transform="translate(812,620)"/>
<path d="M0 0 C1.28 -0.03 2.56 -0.05 3.88 -0.08 C7.6 0.26 9.45 1.07 12.44 3.25 C12.11 4.57 11.78 5.89 11.44 7.25 C3.21 10.1 -4.67 11.7 -13.31 12.5 C-14.61 12.62 -14.61 12.62 -15.92 12.74 C-33.1 14.16 -33.1 14.16 -38.56 11.25 C-38.56 10.26 -38.56 9.27 -38.56 8.25 C-34.52 7.1 -30.48 5.96 -26.44 4.81 C-24.72 4.32 -24.72 4.32 -22.98 3.83 C-21.87 3.51 -20.76 3.2 -19.62 2.88 C-18.09 2.45 -18.09 2.45 -16.54 2.01 C-10.99 0.6 -5.72 0.07 0 0 Z " fill="#020504" transform="translate(985.5625,1197.75)"/>
<path d="M0 0 C4.1 0.16 6.34 0.42 9.46 3.18 C12 6 14.23 8.91 16.44 12 C19.66 16.39 22.71 19.7 27 23 C27 23.66 27 24.32 27 25 C27.66 25.33 28.32 25.66 29 26 C23.24 25.41 17.92 24.33 12.38 22.69 C11.65 22.49 10.93 22.29 10.18 22.08 C4.3 20.36 -0.5 18.26 -4 13 C-4.47 7.98 -4 5.08 -1 1 C-0.67 0.67 -0.34 0.34 0 0 Z " fill="#020504" transform="translate(806,326)"/>
<path d="M0 0 C0.88 0.03 1.75 0.07 2.65 0.1 C8.23 0.39 13.96 0.8 19.25 2.69 C19.75 3.68 19.75 3.68 20.25 4.69 C16.51 5.75 12.75 6.79 9 7.81 C7.94 8.12 6.87 8.42 5.78 8.73 C4.75 9.01 3.73 9.28 2.67 9.57 C1.73 9.83 0.79 10.09 -0.18 10.36 C-3.16 10.74 -4.34 10.44 -6.75 8.69 C-7.25 7.2 -7.25 7.2 -7.75 5.69 C-23.94 6.1 -39.23 9.08 -54.75 13.69 C-46.25 4.06 -29.92 1.21 -17.75 -0.06 C-11.82 -0.42 -5.93 -0.25 0 0 Z " fill="#020504" transform="translate(547.75,590.3125)"/>
<path d="M0 0 C0.99 0.99 0.99 0.99 2 2 C-0.69 3.35 -3.21 3.16 -6.17 3.24 C-27.97 3.88 -43.59 10.98 -58.6 26.67 C-61.79 30.07 -64.91 33.52 -68 37 C-68.33 36.34 -68.66 35.68 -69 35 C-62.03 20.49 -48.17 6.75 -33.25 0.74 C-22.22 -2.9 -11.24 -2.84 0 0 Z " fill="#020504" transform="translate(691,220)"/>
<path d="M0 0 C0.99 0.5 0.99 0.5 2 1 C1.26 1.46 1.26 1.46 0.51 1.93 C-33.26 22.45 -33.26 22.45 -61.62 49.57 C-62.08 50.04 -62.53 50.51 -63 51 C-63.66 51 -64.32 51 -65 51 C-65.25 51.55 -65.5 52.1 -65.75 52.66 C-67.77 56.44 -70.45 59.73 -73.03 63.15 C-76.65 68.38 -78.94 72.52 -78 79 C-75.13 82.69 -72.44 84.6 -68 86 C-68 86.33 -68 86.66 -68 87 C-75.32 86.68 -78.76 85.24 -84 80 C-86.97 80.99 -86.97 80.99 -90 82 C-89.25 81.32 -88.5 80.64 -87.73 79.95 C-84.78 76.99 -83.05 73.6 -81.25 69.88 C-77.63 62.73 -73.27 57.04 -68 51 C-67.46 50.24 -66.92 49.48 -66.36 48.7 C-65.91 48.14 -65.46 47.58 -65 47 C-64.34 47 -63.68 47 -63 47 C-62.77 46.44 -62.55 45.89 -62.31 45.31 C-60.62 42.34 -58.53 40.28 -56 38 C-55.34 38 -54.68 38 -54 38 C-54 37.34 -54 36.68 -54 36 C-52.65 34.72 -52.65 34.72 -50.74 33.28 C-50.04 32.74 -49.34 32.21 -48.62 31.66 C-47.48 30.81 -47.48 30.81 -46.31 29.94 C-45.54 29.35 -44.76 28.77 -43.96 28.17 C-33.24 20.13 -22.26 12.72 -10.68 5.98 C-9.16 5.09 -7.64 4.19 -6.12 3.29 C-5.32 2.82 -4.51 2.36 -3.69 1.88 C-3.01 1.48 -2.33 1.09 -1.64 0.68 C-0.83 0.34 -0.83 0.34 0 0 Z " fill="#020504" transform="translate(431,647)"/>
<path d="M0 0 C2.15 1.71 2.15 1.71 3.62 3.19 C3.62 3.85 3.62 4.51 3.62 5.19 C4.62 5.52 5.61 5.85 6.62 6.19 C7.12 7.67 7.12 7.67 7.62 9.19 C2.7 8.67 -0.4 7.19 -4.56 4.56 C-19.28 -4.24 -35.75 -8.25 -52.38 -11.81 C-52.38 -12.47 -52.38 -13.13 -52.38 -13.81 C-33.99 -17.52 -14.68 -11.04 0 0 Z " fill="#020504" transform="translate(729.375,164.8125)"/>
<path d="M0 0 C0.66 0.33 1.32 0.66 2 1 C1.21 1.59 0.42 2.19 -0.39 2.8 C-7.48 8.19 -14.37 13.76 -21.12 19.55 C-22.95 21.11 -24.8 22.63 -26.68 24.11 C-32.58 28.92 -36.95 35.17 -41.38 41.31 C-42.04 42.23 -42.04 42.23 -42.71 43.16 C-47.42 49.8 -48.21 55.97 -47 64 C-45.09 67.21 -42.85 69.6 -40 72 C-40.99 72.5 -40.99 72.5 -42 73 C-46.68 69.61 -50.26 66.91 -51.5 61.06 C-51.7 59.71 -51.88 58.36 -52 57 C-52.62 57.5 -53.24 57.99 -53.88 58.5 C-56 60 -56 60 -58 60 C-56.93 57.6 -55.82 55.78 -54.12 53.75 C-51.84 51 -51.84 51 -50.31 47.38 C-40.62 27.44 -18.31 11.42 0 0 Z " fill="#020504" transform="translate(444,718)"/>
<path d="M0 0 C3.99 1.33 4.94 3.76 6.88 7.25 C7.23 7.88 7.58 8.51 7.94 9.16 C19.91 31.09 22.2 54.65 18 79 C17.67 79 17.34 79 17 79 C16.93 77.71 16.93 77.71 16.86 76.39 C16.69 73.12 16.5 69.85 16.31 66.58 C16.23 65.18 16.15 63.78 16.08 62.38 C15.39 49.15 13.55 36.38 9.12 23.81 C8.87 23.06 8.61 22.31 8.35 21.54 C6.44 16.03 4.31 10.63 1.98 5.29 C1 3 1 3 0 0 Z " fill="#020504" transform="translate(806,594)"/>
<path d="M0 0 C0.5 0.99 0.5 0.99 1 2 C-7.5 4.79 -15.55 5.3 -24.44 5.31 C-25.48 5.32 -26.52 5.32 -27.6 5.33 C-32.77 5.28 -37.16 5.08 -42 3 C-42 2.34 -42 1.68 -42 1 C-28.96 -3.45 -13.23 -3.91 0 0 Z " fill="#020504" transform="translate(822,1154)"/>
<path d="M0 0 C1.3 0.01 2.59 0.01 3.93 0.02 C14.21 0.1 14.21 0.1 18 1.25 C18 1.91 18 2.57 18 3.25 C2.94 6.3 -11.67 6.6 -27 6.25 C-27 5.26 -27 4.27 -27 3.25 C-17.89 0.44 -9.5 -0.15 0 0 Z " fill="#020504" transform="translate(539,1180.75)"/>
<path d="M0 0 C0.66 0.66 1.32 1.32 2 2 C0.61 2.64 0.61 2.64 -0.82 3.29 C-14.29 9.6 -20.08 17.04 -27 30 C-27.33 30 -27.66 30 -28 30 C-27.97 20.19 -25.94 13.44 -19.29 6.12 C-13.69 0.88 -7.64 -0.6 0 0 Z " fill="#020504" transform="translate(616,341)"/>
<path d="M0 0 C0.33 0.66 0.66 1.32 1 2 C-0.18 4.58 -1.42 7.06 -2.75 9.56 C-6.65 17.13 -10.09 24.43 -11 33 C-11.08 33.65 -11.15 34.3 -11.23 34.97 C-11.5 38.91 -11.23 40.7 -8.81 43.88 C-6.22 45.84 -4.09 47.03 -1 48 C-1 48.33 -1 48.66 -1 49 C-7.72 48.84 -10.22 47.91 -15 43 C-18.25 43.05 -18.25 43.05 -21 44 C-20.38 43.33 -19.76 42.67 -19.12 41.98 C-16.67 38.53 -15.84 35.32 -15 31.25 C-12.48 20.3 -8.1 8.1 0 0 Z " fill="#020504" transform="translate(346,776)"/>
<path d="M0 0 C15.53 2.94 31.33 9.02 43 20 C43.88 22.31 43.88 22.31 44 24 C35.31 19.71 26.68 15.32 18.12 10.75 C11.89 7.43 5.69 4.31 -1 2 C-0.67 1.34 -0.34 0.68 0 0 Z " fill="#020504" transform="translate(718,153)"/>
<path d="M0 0 C17.16 7.21 27.97 35.03 35.07 51.17 C36 54 36 54 35 57 C34.74 56.5 34.48 56 34.21 55.48 C24.46 36.76 14.41 19.07 1.18 2.57 C0 1 0 1 0 0 Z " fill="#020504" transform="translate(756,92)"/>
<path d="M0 0 C17.24 0.99 33.12 12.17 45 24 C44.01 24.5 44.01 24.5 43 25 C41.07 24.03 41.07 24.03 38.7 22.5 C37.83 21.95 36.96 21.39 36.07 20.82 C35.14 20.22 34.21 19.62 33.25 19 C25.02 13.79 16.81 9.14 8 5 C6.37 4.19 4.75 3.38 3.12 2.56 C2.09 2.05 1.06 1.53 0 1 C0 0.67 0 0.34 0 0 Z " fill="#020504" transform="translate(660,149)"/>
<path d="M0 0 C1 3 1 3 0.11 5.2 C-0.56 6.43 -0.56 6.43 -1.25 7.69 C-6.31 17.45 -8.96 25.65 -6 36.75 C-5.67 37.49 -5.34 38.24 -5 39 C-8.54 35.83 -10.59 33.83 -11 29 C-12.98 29.66 -14.96 30.32 -17 31 C-17 30.34 -17 29.68 -17 29 C-16.13 28.22 -16.13 28.22 -15.25 27.43 C-12.15 24.08 -10.78 20.37 -9.06 16.19 C-6.6 10.2 -3.95 5.15 0 0 Z " fill="#020504" transform="translate(382,848)"/>
<path d="M0 0 C-2.68 2.1 -5.36 3.8 -8.38 5.38 C-15.22 9.08 -15.22 9.08 -20 15 C-20.66 15 -21.32 15 -22 15 C-22.25 15.52 -22.5 16.03 -22.75 16.56 C-24.4 19.77 -26.2 22.88 -28 26 C-28.33 26 -28.66 26 -29 26 C-29.48 18.9 -26.5 15.23 -22 10 C-16.57 4.81 -7.91 -2.7 0 0 Z " fill="#020504" transform="translate(618,355)"/>
<path d="M0 0 C11.81 1.83 22.64 7.45 31 16 C27.17 16 25.93 14.75 22.88 12.5 C20.19 10.17 20.19 10.17 17 9 C17.93 9.72 18.86 10.44 19.81 11.19 C22.59 13.48 24.34 15.77 26 19 C22.08 17.25 18.71 14.76 15.25 12.25 C14.63 11.8 14.01 11.36 13.37 10.9 C11.58 9.6 9.79 8.3 8 7 C7.11 6.35 6.22 5.71 5.3 5.04 C3.51 3.72 1.75 2.37 0 1 C0 0.67 0 0.34 0 0 Z " fill="#020504" transform="translate(651,97)"/>
<path d="M0 0 C15.79 3.49 30.29 13.36 39 27 C35.56 25.51 33.31 23.53 30.62 20.94 C21.6 12.69 11.31 6.59 0 2 C0 1.34 0 0.68 0 0 Z " fill="#020504" transform="translate(684,77)"/>
<path d="M0 0 C1.25 3.83 0.49 5.85 -1.25 9.48 C-1.6 10.17 -1.95 10.86 -2.31 11.56 C-2.67 12.27 -3.03 12.98 -3.4 13.71 C-7.62 21.68 -13.4 28.98 -21 34 C-21.66 34 -22.32 34 -23 34 C-21.92 30.76 -21.46 30.38 -18.88 28.44 C-10.02 21.05 -5.18 10.08 0 0 Z " fill="#020504" transform="translate(625,538)"/>
<path d="M0 0 C0 0.66 0 1.32 0 2 C-1.96 3.72 -3.92 5.31 -6 6.88 C-6.6 7.33 -7.19 7.78 -7.81 8.25 C-14.84 13.49 -22.27 17.41 -31 19 C-32.34 18.7 -33.68 18.37 -35 18 C-33.91 17.59 -32.82 17.17 -31.7 16.75 C-21.38 12.73 -12.56 8.17 -3.8 1.27 C-2 0 -2 0 0 0 Z " fill="#020504" transform="translate(689,982)"/>
<path d="M0 0 C0 4.23 -1.76 5.8 -4.54 8.86 C-10.74 14.24 -18.86 18.02 -27 19 C-25.25 15.5 -20.82 14.36 -17.37 12.74 C-13.48 10.87 -10.33 8.72 -7 6 C-6.34 6 -5.68 6 -5 6 C-5 5.34 -5 4.68 -5 4 C-3.37 2.62 -1.71 1.28 0 0 Z " fill="#020504" transform="translate(741,341)"/>
<path d="M0 0 C-0.99 1.48 -0.99 1.48 -2 3 C-4.63 3.22 -7.01 3.28 -9.62 3.19 C-10.33 3.17 -11.04 3.16 -11.77 3.15 C-13.51 3.11 -15.26 3.06 -17 3 C-17.33 2.34 -17.66 1.68 -18 1 C-15.94 0.83 -13.88 0.66 -11.81 0.5 C-10.09 0.36 -10.09 0.36 -8.33 0.22 C-5.54 0.04 -2.8 -0.04 0 0 Z " fill="#020504" transform="translate(796,1083)"/>
<path d="M0 0 C3.83 1.38 6.93 3.15 10.25 5.5 C11.12 6.11 11.99 6.72 12.89 7.34 C15 9 15 9 16 11 C11.4 9.71 8.3 7.98 4.62 4.94 C3.75 4.22 2.88 3.51 1.98 2.78 C1.32 2.19 0.67 1.6 0 1 C0 0.67 0 0.34 0 0 Z " fill="#020504" transform="translate(573,1205)"/>
<path d="M0 0 C2.97 0 5.94 0 9 0 C9 0.66 9 1.32 9 2 C6.03 2 3.06 2 0 2 C0 1.34 0 0.68 0 0 Z " fill="#020504" transform="translate(779,1088)"/>
<path d="M0 0 C0.99 0 1.98 0 3 0 C3 0.66 3 1.32 3 2 C2.01 1.67 1.02 1.34 0 1 C0 0.67 0 0.34 0 0 Z " fill="#020504" transform="translate(404,791)"/>
<path d="M0 0 C0.99 0.5 0.99 0.5 2 1 C1.01 1.5 1.01 1.5 0 2 C0 1.34 0 0.68 0 0 Z " fill="#020504" transform="translate(446,716)"/>
<path d="M0 0 C2 1 2 1 2 1 Z " fill="#020504" transform="translate(571,1204)"/>
<path d="" fill="#020504" transform="translate(0,0)"/>
<path d="" fill="#020504" transform="translate(0,0)"/>
<path d="M0 0 C2 1 2 1 2 1 Z " fill="#020504" transform="translate(433,646)"/>
<path d="" fill="#020504" transform="translate(0,0)"/>
<path d="" fill="#020504" transform="translate(0,0)"/>
<path d="" fill="#020504" transform="translate(0,0)"/>
<path d="" fill="#020504" transform="translate(0,0)"/>
<path d="" fill="#020504" transform="translate(0,0)"/>
<path d="" fill="#020504" transform="translate(0,0)"/>
<path d="" fill="#020504" transform="translate(0,0)"/>
<path d="" fill="#020504" transform="translate(0,0)"/>
<path d="" fill="#020504" transform="translate(0,0)"/>
<path d="" fill="#020504" transform="translate(0,0)"/>
<path d="" fill="#020504" transform="translate(0,0)"/>
<path d="" fill="#020504" transform="translate(0,0)"/>
<path d="" fill="#020504" transform="translate(0,0)"/>
<path d="" fill="#020504" transform="translate(0,0)"/>
<path d="" fill="#020504" transform="translate(0,0)"/>
</svg>
