<?xml version="1.0" encoding="iso-8859-1"?>
<!-- Generator: Adobe Illustrator 26.0.3, SVG Export Plug-In . SVG Version: 6.00 Build 0)  -->
<svg version="1.1" id="Layer_11" xmlns="http://www.w3.org/2000/svg" xmlns:xlink="http://www.w3.org/1999/xlink" x="0px" y="0px"
	 width="545.704px" height="488.992px" viewBox="0 0 545.704 488.992" enable-background="new 0 0 545.704 488.992"
	 xml:space="preserve">
<path d="M539.212,229.427c-5.885-23.924-14.603-46.861-24.374-69.436c-5.252-12.134-10.814-24.144-15.134-36.67
	c-1.695-4.914-2.593-9.896-2.467-15.092c0.272-11.214,1.374-22.366,2.368-33.527c1.161-13.04,2.85-26.043,2.622-39.17
	c0-3.376,0.085-6.755-0.028-10.127c-0.085-2.56-0.354-5.12-0.659-7.666c-0.514-4.294-1.111-8.59-3.206-12.473
	c-2.869-5.317-7.684-6.683-12.988-3.752c-2.277,1.258-4.137,3.019-5.913,4.88c-3.667,3.838-6.512,8.277-9.157,12.833
	c-12.756,21.97-24.45,44.472-33.845,68.115c-1.246,3.135-2.64,6.212-3.854,9.36c-0.719,1.863-1.761,2.279-3.742,1.857
	c-8.182-1.743-16.403-3.306-24.615-4.908c-18.555-3.618-36.836-8.407-55.172-12.953c-14.703-3.645-29.493-6.757-44.703-7.048
	c-19.051-0.365-38.004,0.448-56.95,3.08c-21.398,2.973-42.673,6.639-63.988,10.083c-14.785,2.389-29.476,5.36-44.254,7.799
	c-8.083,1.334-6.538,2.536-11.39-4.766c-8.671-13.05-16.784-26.442-24.025-40.352C97.815,38.115,91.784,26.795,84.927,15.94
	c-2.819-4.462-5.836-8.788-9.678-12.442c-4.636-4.41-10.137-3.759-13.776,1.539c-1.713,2.493-2.598,5.323-3.242,8.238
	c-2.685,12.163-2.002,24.451-1.151,36.712c1.169,16.839,3.191,33.597,5.331,50.335c1.197,9.363,2.004,18.785,3.859,28.056
	c0.284,1.419-0.393,2.314-1.052,3.317c-6.601,10.043-13.258,20.042-20.452,29.683c-6.621,8.873-13.034,17.904-19.461,26.92
	c-4.708,6.604-8.995,13.484-12.649,20.729c-7.63,15.126-12.728,30.949-12.655,48.096c0.082,19.23,5.476,37.068,14.976,53.613
	c13.37,23.283,31.453,42.05,54.648,55.818c18.841,11.184,38.618,20.524,58.367,29.901c31.336,14.877,63.696,27.495,94.837,42.823
	c9.32,4.587,18.897,8.654,28.393,12.877c1.757,0.782,2.538,1.618,1.893,3.659c-0.612,1.937-0.487,4.03-0.155,6.035
	c1.965,11.858,11.071,24.747,27.173,26.713c8.874,1.084,17.449,0.038,26.041-2.21c14.069-3.681,24.389-19.637,17.956-35.47
	c-0.877-2.158-0.614-3.315,1.412-4.578c7.331-4.572,14.539-9.342,21.809-14.013c13.88-8.919,28.265-16.908,43.4-23.509
	c21.155-9.226,42.334-18.4,63.472-27.664c20.181-8.844,38.554-20.573,55.31-34.868c11.228-9.578,20.155-21.021,27.534-33.729
	c2.524-4.346,4.291-9.019,5.532-13.878c2.388-9.347,3.348-18.857,3.053-28.496C545.23,256.302,542.504,242.808,539.212,229.427z
	 M391.358,399.216c-17.899,7.707-34.936,17.001-51.243,27.656c-6.667,4.356-13.394,8.62-20.03,13.02
	c-1.453,0.963-2.368,1.115-3.819-0.155c-10.913-9.551-23.467-11.347-37.131-7.562c-7.701,2.133-14.69,5.503-19.79,11.889
	c-1.364,1.707-2.519,1.405-4.138,0.658c-12.007-5.539-24.153-10.788-36.04-16.572c-18.455-8.98-37.368-16.91-56.144-25.159
	c-4.564-2.005-9.098-4.075-13.853-6.207c0.934-2.88,3.068-4.571,5.038-6.282c10.15-8.818,21.317-16.1,33.577-21.637
	c11.002-4.969,22.632-7.943,34.37-10.563c15.198-3.392,30.611-4.939,46.127-5.875c11.875-0.716,23.75-1.153,35.617-0.448
	c20.514,1.219,40.918,3.341,60.443,10.34c17.971,6.442,34.873,15.168,51.471,24.515c0.349,0.196,0.671,0.438,1.523,0.999
	C408.153,391.861,399.778,395.59,391.358,399.216z M533.687,298.984c-1.097,3.779-2.724,7.343-4.746,10.71
	c-7.002,11.659-15.393,22.148-25.848,30.947c-16.546,13.926-34.73,25.175-54.551,33.801c-6.064,2.639-12.144,5.245-18.158,7.994
	c-2.038,0.932-3.676,0.808-5.652-0.305c-11.879-6.692-23.897-13.107-36.21-18.999c-20.439-9.78-41.871-15.553-64.382-18.033
	c-30.973-3.412-61.768-2.14-92.422,2.752c-17.216,2.747-34.134,6.943-50.014,14.484c-11.792,5.6-22.502,12.83-32.129,21.65
	c-2.494,2.285-4.878,4.697-6.636,7.61c-0.887,1.47-1.783,1.665-3.306,0.929c-4.252-2.055-8.633-3.85-12.858-5.958
	c-17.149-8.554-34.541-16.615-51.14-26.267c-22.746-13.227-40.481-31.342-53.492-54.081c-7.597-13.278-12.236-27.581-13.406-42.937
	c-1.301-17.073,2.989-32.924,10.318-48.123c3.644-7.558,8.034-14.687,12.859-21.541c4.974-7.067,9.839-14.224,15.109-21.067
	c9.496-12.329,17.853-25.396,26-38.622c1.789-2.905,2.463-5.416,1.333-9.014c-1.434-4.569-1.536-9.562-2.143-14.382
	c-2.362-18.749-4.729-37.501-6.33-56.333c-0.949-11.165-1.785-22.354-0.363-33.557c0.324-2.549,0.757-5.074,1.538-7.524
	c0.4-1.255,0.601-2.657,2.134-3.412c2.927,2.216,4.921,5.269,6.922,8.273c5.02,7.535,9.464,15.415,13.729,23.396
	c6.045,11.31,11.843,22.753,18.578,33.685c4.323,7.017,8.87,13.88,13.678,20.571c0.866,1.206,1.867,2.318,2.69,3.551
	c2.799,4.192,6.169,5.393,11.365,4.051c6.758-1.746,13.851-2.164,20.773-3.316c23.563-3.921,47.075-8.171,70.682-11.805
	c22.947-3.532,45.95-6.591,69.294-6.266c16.869,0.235,33.302,2.877,49.595,6.949c18.327,4.581,36.619,9.32,55.159,13.004
	c8.471,1.683,16.941,3.373,25.416,5.03c5.854,1.145,7.858,0.206,11.159-4.834c2.238-3.418,3.661-7.214,5.287-10.914
	c10.054-22.882,20.96-45.334,33.654-66.885c2.674-4.539,5.37-9.085,9.222-12.766c1.116-1.066,2.148-2.909,3.939-2.287
	c1.494,0.519,1.513,2.437,1.807,3.849c1.83,8.788,1.858,17.704,1.685,26.619c-0.26,13.382-2.081,26.644-3.193,39.961
	c-0.786,9.417-1.641,18.83-1.947,28.282c-0.195,6.02,0.851,11.807,2.769,17.495c4.063,12.043,9.323,23.595,14.412,35.212
	c9.272,21.165,17.566,42.68,23.623,65.002c3.504,12.911,6.241,25.997,7.434,39.341C537.956,276.438,536.925,287.832,533.687,298.984
	z M481.186,62.703c-0.206,8.629-0.59,17.254-0.903,25.88c-0.027-0.001-0.053-0.002-0.08-0.003
	c-0.322,8.627-0.822,17.251-0.904,25.88c-0.053,5.601-3.783,8.211-9.279,6.208c-5.457-1.99-10.621-4.649-15.822-7.199
	c-2.756-1.351-3.6-3.714-2.771-6.85c0.41-1.553,1.069-3.054,1.729-4.527c6.116-13.658,11.968-27.437,18.648-40.838
	c0.12-0.242,0.244-0.481,0.368-0.721c1.601-3.082,3.318-4.192,5.559-3.597C479.914,57.514,481.264,59.44,481.186,62.703z
	 M108.724,98.233c2.124,2.644,2.552,3.694,2.539,5.341c-0.022,2.206-1.088,3.933-2.79,5.139c-5.181,3.67-10.838,6.52-16.601,9.131
	c-2.075,0.94-4.285-0.043-5.505-2.118c-0.536-0.912-0.914-1.965-1.138-3.003c-3.249-14.997-6.476-29.999-9.663-45.01
	c-0.623-2.934,0.259-5.006,2.256-5.862c1.984-0.851,4.322-0.081,6.057,2.018c0.342,0.414,0.64,0.869,0.923,1.326
	C91.988,76.779,100.198,87.619,108.724,98.233z M463.767,351.673c-0.376,1.286-0.586,2.648-1.147,3.847
	c-1.437,3.071-3.876,4.72-7.347,4.653c-4.964-0.076-7.96-2.378-8.684-6.676c-0.725-4.304,2.266-9.517,6.457-10.989
	c3.063-1.076,6.115-1.05,8.785,1.103C464.512,345.77,464.663,348.614,463.767,351.673z M106.178,351.579
	c-0.775,1.422-1.706,2.737-3.01,3.741c-3.548,2.733-8.538,2.214-11.196-1.161c-2.627-3.337-2.11-7.901,1.227-10.838
	c1.785-1.571,4.149-2.427,6.671-2.416C105.841,340.93,109.039,346.329,106.178,351.579z M387.878,269.854
	c-0.435,1.87-0.895,3.967-1.414,6.049c-0.682,2.734-1.415,5.455-2.117,8.184c-0.34,1.323-0.808,2.582-1.938,3.439
	c-1.413,1.072-2.948,1.375-4.462,0.271c-1.406-1.024-1.554-2.457-0.846-3.952c1.909-4.037,2.645-8.431,3.904-12.665
	c0.268-0.9,0.434-1.831,0.723-2.723c0.557-1.721,1.658-2.835,3.581-2.463C387.219,266.365,387.752,267.88,387.878,269.854z
	 M185.124,305.781c0.912,2.126,0.541,3.745-0.899,4.659c-1.574,0.998-3.429,0.474-4.82-1.498c-0.612-0.868-1.062-1.864-1.487-2.845
	c-1.652-3.815-3.317-7.625-4.87-11.48c-0.887-2.2,0.427-4.308,2.723-4.373c1.326,0.035,2.393,0.843,3.105,2.036
	c0.753,1.261,1.361,2.614,1.973,3.954C182.296,299.406,183.749,302.577,185.124,305.781z M210.541,275.969
	c0.914,4.489,1.707,9.002,2.509,13.286c0.039,2.396-0.971,3.852-2.702,4.132c-1.716,0.277-3.28-0.739-3.721-2.912
	c-0.911-4.489-1.692-9.01-2.326-13.546c-0.336-2.401,0.931-4.044,2.772-4.215C208.714,272.561,210.083,273.722,210.541,275.969z
	 M225.751,242.992c-1.257-4.527-2.275-9.12-3.392-13.686c0.15-1.82,0.681-3.276,2.539-3.817c1.64-0.478,3.097,0.525,3.735,2.78
	c1.207,4.267,2.331,8.561,3.354,12.876c0.579,2.445-0.264,4.062-2.057,4.575C228.049,246.259,226.415,245.38,225.751,242.992z
	 M187.265,253.973c0.324,1.161,0.686,2.311,0.914,3.076c0.021,2.056-0.534,3.379-2.203,3.859c-1.62,0.466-3.08-0.085-3.714-1.623
	c-1.792-4.351-3.241-8.84-3.909-13.506c-0.31-2.168,1.166-3.929,2.946-4.189c1.873-0.274,3.088,0.868,3.433,3.484
	C185.142,248.173,186.438,251.002,187.265,253.973z M363.247,220.916c0.782,2.378,0.416,4.817,0.366,7.232
	c0,1.753,0.095,3.513-0.029,5.257c-0.107,1.492-0.523,2.965-1.842,3.903c-1.163,0.827-2.424,1.146-3.781,0.35
	c-1.197-0.701-1.744-1.798-1.461-3.069c0.95-4.263,0.809-8.564,0.753-12.88c-0.026-1.979,1.203-3.327,2.79-3.347
	C361.753,218.339,362.724,219.326,363.247,220.916z M376.977,303.482c-1.144,4.276-2.194,8.581-3.479,12.815
	c-0.515,1.697-1.957,2.627-3.819,2.1c-1.809-0.512-2.726-1.986-2.316-3.725c1.045-4.44,2.264-8.844,3.58-13.212
	c0.48-1.593,1.872-2.301,3.547-1.832C376.375,300.158,376.817,301.67,376.977,303.482z M270.145,313.223
	c0.088,1.9,0.116,3.8-0.021,5.689c-0.158,2.173-1.486,3.566-3.193,3.463c-1.896-0.115-2.973-1.315-3.139-3.111
	c-0.396-4.293-0.383-8.601,0.093-12.89c0.187-1.685,1.267-2.713,2.986-2.692c2.125,0.026,2.822,1.612,2.918,3.51
	C269.892,309.193,270.052,311.208,270.145,313.223z M296.637,226.273c-0.039,1.74-0.156,3.309-0.159,4.277
	c-0.008,2.37-0.419,5.686-3.499,5.574c-1.754-0.064-2.997-1.262-3.074-3.527c-0.141-4.148-0.145-8.307-0.008-12.454
	c0.073-2.217,1.468-3.567,3.156-3.394C296.97,217.15,296.698,223.521,296.637,226.273z M154.175,263.915
	c0.201,0.311,0.168,0.775,0.227,1.08c-0.225,1.344-0.693,2.459-1.893,3.034c-1.333,0.639-2.619,0.459-3.768-0.497
	c-0.745-0.619-1.24-1.424-1.577-2.314c-1.144-3.023-2.349-6.026-3.364-9.092c-0.732-2.21-0.109-3.747,1.483-4.481
	c1.585-0.73,3.278-0.069,4.231,2.004C151.081,257.063,152.109,260.72,154.175,263.915z M258.457,260.644
	c0.326,2.952,0.742,5.895,1.013,8.852c0.216,2.357-0.635,3.753-2.312,4.15c-1.74,0.412-3.631-0.795-4.043-3.073
	c-0.575-3.179-0.778-6.426-1.034-8.697c-0.135-4.269,0.697-5.825,2.683-6.031C256.907,255.623,258.073,257.158,258.457,260.644z
	 M332.784,247.002c0.166,1.839,0.074,3.701,0.02,5.543c-0.057,1.911,0.108,3.822-0.069,5.73c-0.164,1.774-1.187,3.06-3.126,3.058
	c-1.885-0.002-3.061-1.135-3.203-2.966c-0.304-3.89-0.126-7.796,0.357-11.658c0.196-1.569,1.42-2.642,3.144-2.555
	C331.622,244.241,332.637,245.38,332.784,247.002z M163.649,224.955c0.979,1.958,0.443,3.687-1.099,4.561
	c-1.539,0.873-3.354,0.481-4.48-1.441c-1.832-3.129-3.528-6.359-4.996-9.673c-1.008-2.276,0.349-4.326,2.525-4.387
	c1.531-0.016,2.531,0.867,3.22,2.082C160.478,219.023,162.145,221.949,163.649,224.955z M193.156,215.637
	c0.367,1.614-0.306,2.936-1.835,3.65c-1.61,0.751-3.223,0.201-3.812-1.231c-1.578-3.836-2.805-7.817-3.963-11.141
	c0.066-2.322,0.732-3.574,2.416-3.978c1.524-0.365,2.702,0.383,3.317,1.69C190.941,208.16,192.29,211.824,193.156,215.637z
	 M243.552,280.304c0.947,3.367,1.842,6.748,2.693,9.883c-0.065,2.036-0.68,3.485-2.546,3.924c-1.735,0.408-2.929-0.59-3.495-2.071
	c-1.299-3.398-2.277-6.917-2.767-10.521c-0.293-2.152,0.917-3.722,2.638-3.9C242.036,277.417,243.068,278.581,243.552,280.304z
	 M344.643,315.882c-0.526,2.666-1.051,5.375-2.195,7.858c-0.848,1.84-2.776,2.437-4.431,1.752c-1.745-0.722-2.24-2.101-1.572-4.384
	c0.718-2.456,1.421-4.916,2.169-7.363c0.274-0.896,0.537-1.83,1.016-2.619c0.774-1.273,2.002-1.78,3.484-1.402
	C345.875,310.428,345.037,313.889,344.643,315.882z M245.164,188.345c0.82,3.386,1.413,6.827,2.095,10.246
	c0.014,1.976-1.183,3.574-2.929,3.741c-1.9,0.181-3.183-0.843-3.537-2.592c-0.69-3.416-1.275-6.866-1.639-10.33
	c-0.199-1.893,1.112-3.312,2.698-3.431C243.575,185.85,244.788,186.791,245.164,188.345z M288.225,287.138
	c-1.866-0.135-3.15-1.439-3.151-3.471c-0.001-2.95,0.107-5.902,0.257-8.849c0.04-0.776,0.301-1.588,0.648-2.291
	c0.656-1.33,1.789-2.007,3.296-1.734c1.511,0.273,2.35,1.278,2.414,2.792c0.073,1.742,0.017,3.489,0.017,5.233c0.01,0,0.02,0,0.03,0
	c0,1.744,0.14,3.503-0.036,5.228C291.483,286.17,290.101,287.274,288.225,287.138z M403.552,220.469
	c-0.744,2.714-1.502,5.424-2.27,8.132c-0.218,0.77-0.39,1.579-0.761,2.275c-0.693,1.303-1.811,2.023-3.327,1.614
	c-1.698-0.458-2.211-1.792-2.241-3.525c0.926-3.517,1.528-7.257,3.146-10.677c0.764-1.616,2.178-2.38,4.006-1.83
	C403.635,216.919,404.129,218.364,403.552,220.469z M323.563,291.227c0,2.254,0.1,3.604-0.023,4.932
	c-0.19,2.035-1.905,3.619-3.701,3.593c-1.873-0.028-3.201-1.528-3.089-3.913c0.131-2.814,0.479-5.621,0.83-8.419
	c0.208-1.659,1.241-2.737,2.939-2.776c1.723-0.04,2.647,1.068,3.04,2.683C323.949,288.938,323.592,290.537,323.563,291.227z
	 M286.455,194.569c-1.532,0.095-2.666-0.662-2.949-2.145c-0.398-2.09-0.547-4.228-0.741-5.831c0-1.732-0.062-2.937,0.016-4.134
	c0.088-1.333,0.808-2.276,2.153-2.538c1.514-0.294,2.861,0.352,3.198,1.762c0.839,3.502,1.372,7.091,0.862,10.702
	C288.816,193.652,287.81,194.485,286.455,194.569z M232.042,318.636c0.437,2.777,0.759,5.595,0.812,8.401
	c0.03,1.604-1.069,2.76-2.825,2.863c-1.716,0.1-2.889-0.829-3.276-2.416c-0.412-1.687-0.518-3.448-0.637-4.305
	c0-1.958-0.136-3.054,0.031-4.101c0.26-1.627,1.291-2.692,2.99-2.752C230.674,316.273,231.816,317.197,232.042,318.636z
	 M295.093,313.631c0.177,2.821,0.258,5.659,0.153,8.481c-0.067,1.791-1.083,3.046-3.074,3.09c-4.843,0.106-3.316-8.684-3.012-11.536
	c0.183-1.718,1.285-2.728,2.961-2.747C293.815,310.898,294.986,311.923,295.093,313.631z M363.701,271.436
	c0.069,0.667,0.01,1.347,0.01,2.896c-0.113,0.74-0.208,2.378-0.639,3.921c-0.536,1.917-2.256,2.817-4.071,2.411
	c-1.674-0.376-2.567-1.64-2.215-3.693c0.321-1.871,0.445-3.74,0.595-5.62c0.187-2.343,1.264-3.615,2.948-3.709
	C362.121,267.541,363.452,269.014,363.701,271.436z M333.489,197.35c1.268,2.912,1.441,6.034,0.682,9.1
	c-0.351,1.415-1.621,2.142-3.147,2.025c-1.529-0.117-2.54-1.033-2.791-2.494c-0.446-2.595-1.701-9.295,1.882-10.217
	C331.645,195.372,332.926,196.056,333.489,197.35z M367.819,195.41c0.18-1.464,0.569-2.906,0.927-4.343
	c0.439-1.76,1.498-2.898,3.422-2.773c1.684,0.11,2.819,1.796,2.76,4.104c-0.292,1.358-0.517,2.973-1,4.507
	c-0.682,2.167-2.12,3.058-3.885,2.651C368.325,199.159,367.525,197.797,367.819,195.41z M320.27,321.265
	c-0.336,1.642-0.182,3.435-0.923,5.085c-0.762,1.696-1.978,2.555-3.845,2.123c-1.75-0.404-2.394-1.779-2.254-3.369
	c0.153-1.733,0.555-3.458,0.992-5.149c0.451-1.743,1.583-2.849,3.5-2.694C319.478,317.403,320.357,318.854,320.27,321.265z
	 M263.945,229.322c0.044,1.608-0.857,2.872-2.544,3.136c-1.747,0.274-2.801-0.778-3.213-2.357c-0.334-1.281-0.423-2.626-0.488-3.058
	c0-1.706-0.08-2.518,0.017-3.309c0.185-1.499,1.017-2.482,2.59-2.573c1.547-0.089,2.636,0.727,2.923,2.199
	C263.612,225.322,263.89,227.328,263.945,229.322z"/>
<g>
</g>
<g>
</g>
<g>
</g>
<g>
</g>
<g>
</g>
<g>
</g>
</svg>
