<?xml version="1.0" encoding="UTF-8"?>
<!-- Generator: visioncortex VTracer 0.6.3 -->
<svg version="1.1" xmlns="http://www.w3.org/2000/svg" width="1280" height="1280">
<path d="M0 0 C3.6 2 6.77 4.45 10 7 C10.91 7.71 11.83 8.42 12.77 9.15 C21.76 16.31 29.46 24.11 36.65 33.07 C39.25 36.31 41.9 39.5 44.56 42.69 C45 43.22 45.45 43.75 45.9 44.29 C46.93 45.53 47.97 46.76 49 48 C49.66 46.35 50.32 44.7 51 43 C53.64 43.33 56.28 43.66 59 44 C58.67 43.01 58.34 42.02 58 41 C61.01 37.99 63.82 38.4 68 38 C68 36.35 68 34.7 68 33 C68.58 33.02 69.16 33.03 69.76 33.05 C72.4 33.11 75.04 33.15 77.69 33.19 C78.6 33.21 79.51 33.24 80.45 33.26 C85.73 33.32 88.5 32.91 93 30 C95.54 30.36 95.54 30.36 98.06 31.31 C101.93 32.72 104.84 33.19 109.01 32.82 C115.64 32.4 120.57 34.2 126 38 C128.91 40.82 131.51 43.8 134 47 C134.57 46.48 135.14 45.97 135.72 45.43 C142.02 40.06 142.02 40.06 146.88 39.75 C150 41 150 41 151.94 43.44 C153 46 153 46 153 48 C159.43 46.81 161.84 44.55 165.56 39.31 C166.51 38.04 167.47 36.76 168.42 35.48 C168.87 34.88 169.32 34.27 169.78 33.64 C171.62 31.17 173.62 28.85 175.66 26.53 C176.67 25.38 177.65 24.21 178.62 23.03 C179.16 22.38 179.7 21.73 180.25 21.06 C180.73 20.48 181.21 19.89 181.7 19.29 C183 18 183 18 185 18 C185 17.34 185 16.68 185 16 C185.66 16 186.32 16 187 16 C187 15.34 187 14.68 187 14 C192.98 9.01 199.6 4.15 207.56 3.88 C212.44 5.47 214.31 7.73 217 12 C221.43 21.05 222.82 29.12 222.62 39.12 C222.61 41.01 222.61 41.01 222.59 42.94 C222.26 56.27 219.37 67.87 214 80 C213.29 81.7 213.29 81.7 212.56 83.43 C210.83 87.39 208.94 91.26 207 95.12 C206.66 95.81 206.31 96.5 205.96 97.21 C204.48 100.17 202.98 103.03 201.25 105.84 C199.79 107.93 199.79 107.93 200.06 110.38 C200.96 113.18 200.96 113.18 202.92 116.12 C205.25 120.15 206.28 124.17 207.25 128.69 C207.42 129.43 207.6 130.18 207.77 130.95 C208.55 134.4 209 137.44 209 141 C202.25 141.12 202.25 141.12 200 140 C200.45 143.5 200.91 147 201.38 150.5 C201.5 151.48 201.63 152.46 201.76 153.48 C202.33 157.78 202.93 161.98 204.08 166.18 C205.11 170.45 205.37 174.32 205.38 178.69 C205.4 179.42 205.42 180.15 205.45 180.91 C205.47 184.59 205.1 186.82 203.23 190.02 C201 192 201 192 197 192 C197.22 192.7 197.43 193.4 197.66 194.12 C199.84 201.56 201.93 208.75 198 216 C197.49 216.45 196.97 216.91 196.44 217.38 C194.61 219.44 194.66 220.44 194.74 223.16 C194.76 223.95 194.77 224.75 194.79 225.56 C194.81 226.39 194.84 227.21 194.88 228.06 C194.92 229.7 194.96 231.34 194.99 232.97 C195.02 233.7 195.04 234.42 195.07 235.17 C195 237 195 237 194 239 C194.1 242.71 194.4 246.4 194.7 250.11 C194.87 252.36 195.02 254.61 195.12 256.86 C195.43 262.6 197.08 266.53 199.79 271.57 C203.38 278.76 203.81 287.1 203 295 C202.34 295.99 201.68 296.98 201 298 C200.57 302.49 201.3 305.15 203.44 309.06 C206.06 314.46 206.52 319.04 206.75 324.98 C207.09 329.09 208.44 332.2 210 336 C210.06 337.67 210.07 339.33 210 341 C210.78 340.87 211.55 340.73 212.35 340.6 C224.28 338.65 236 337.92 248.06 337.88 C248.97 337.87 249.87 337.87 250.8 337.86 C251.66 337.86 252.52 337.87 253.41 337.87 C254.17 337.87 254.94 337.87 255.73 337.87 C258.23 338.01 260.55 338.49 263 339 C264.61 339.17 266.23 339.31 267.84 339.43 C278.14 340.24 288.04 341.11 298 344 C298.76 344.21 299.51 344.43 300.29 344.65 C309.88 347.61 319.47 351.72 328 357 C328 357.66 328 358.32 328 359 C329.04 359.35 329.04 359.35 330.1 359.71 C333.56 361.25 336.41 363.31 339.38 365.62 C339.95 366.07 340.53 366.52 341.12 366.99 C345.66 370.6 349.44 374.41 353 379 C353.78 379.96 354.56 380.91 355.36 381.89 C361.46 389.47 366.4 397.42 371 406 C371.86 407.57 372.72 409.15 373.58 410.72 C378.04 418.96 382.21 427.02 385 436 C385.35 436.94 385.69 437.88 386.05 438.85 C388.72 446.5 389.58 453.81 390.21 461.83 C390.69 467.33 391.77 471.56 394.18 476.56 C396.17 482.47 395.97 490.1 394 496 C393.94 498.19 393.94 500.38 393.97 502.57 C393.98 503.88 394 505.19 394.01 506.54 C394.03 508.61 394.06 510.68 394.1 512.74 C394.21 520.18 394.27 526.89 392 534 C390.94 538.13 390.94 538.13 392 542 C393.15 557.63 393.15 557.63 388 564 C387.34 564.33 386.68 564.66 386 565 C385.72 567.25 385.72 567.25 385.69 569.94 C385.25 575.98 383.53 581.04 380 586 C379.01 586.33 378.02 586.66 377 587 C376.01 586.34 375.02 585.68 374 585 C373.77 585.88 373.54 586.77 373.3 587.68 C371.17 595.53 368.63 602.7 365 610 C364.34 610 363.68 610 363 610 C363.01 610.73 363.02 611.46 363.04 612.22 C363.1 620.32 362.91 628.4 362.62 636.5 C362.59 637.54 362.56 638.58 362.53 639.65 C362.05 652.03 362.05 652.03 358.44 655.5 C354.62 659.49 355.8 667.57 355.83 672.75 C356.02 676.34 356.67 679.56 357.54 683.03 C358.77 688.29 358.03 692.19 356.12 697.12 C353.72 703.33 352.71 709.4 352 716 C351.82 717.19 351.82 717.19 351.64 718.41 C350.58 730.42 358.57 743.69 364 754 C365.32 756.62 366.63 759.25 367.94 761.88 C368.63 763.26 369.32 764.64 370.01 766.02 C371.76 769.52 373.5 773.01 375.25 776.5 C375.73 777.45 376.2 778.4 376.69 779.38 C377.52 781.03 378.34 782.68 379.15 784.34 C380.57 787.21 381.97 789.96 383.75 792.62 C385.37 795.71 385.5 797.56 385 801 C381.15 806.99 376.09 810.25 369.5 812.69 C367.84 813.31 367.84 813.31 366.16 813.95 C359.25 816.25 352.24 817.05 345 816 C341.88 814.24 340.11 811.85 338 809 C336.48 807.19 334.96 805.37 333.44 803.56 C320.26 787.18 309.36 769.57 299.56 751 C299.04 750.02 298.52 749.04 297.99 748.03 C295.4 743.08 293.26 738.45 292 733 C291.3 733.14 290.6 733.29 289.88 733.44 C285.93 732.84 284.77 731 282.36 727.96 C280.6 725.43 279.24 722.82 278 720 C276.35 720.33 274.7 720.66 273 721 C270 715.37 270 715.37 270 712 C269.34 712 268.68 712 268 712 C267.94 712.81 267.87 713.61 267.8 714.45 C266.53 729.91 265.01 745.29 262.56 760.62 C262.37 761.86 262.18 763.1 261.98 764.37 C257.88 789.08 257.88 789.08 251 795 C245.53 797.85 241.18 798.47 235.06 798.38 C234.3 798.39 233.54 798.4 232.76 798.41 C226.39 798.38 220.53 797.32 215.69 792.88 C212.1 786.76 210.49 779.96 209.81 772.94 C209.73 772.14 209.65 771.35 209.57 770.53 C208.19 754.11 208.84 737.46 209 721 C208.01 721.99 207.02 722.98 206 724 C200.82 721.27 199.74 719.23 197.94 713.81 C197.03 710.13 196.6 706.68 196.34 702.92 C196.15 700.77 196.15 700.77 194 699 C193.93 699.88 193.86 700.77 193.79 701.67 C193.52 704.97 193.23 708.25 192.94 711.54 C192.81 712.96 192.7 714.38 192.58 715.81 C192.42 717.86 192.24 719.9 192.05 721.95 C191.94 723.18 191.84 724.41 191.73 725.68 C190.88 729.53 189.47 730.97 187 734 C183.01 741.36 182.43 748.11 182.54 756.37 C182.54 757.52 182.54 758.68 182.54 759.87 C182.55 762.3 182.56 764.73 182.59 767.17 C182.62 770.86 182.63 774.55 182.63 778.24 C182.64 780.61 182.65 782.99 182.66 785.37 C182.67 786.46 182.67 787.54 182.67 788.66 C182.76 795.95 183.67 802.84 185 810 C185.5 813.43 185.91 816.87 186.18 820.32 C186.55 824.97 187.25 829.2 188.56 833.69 C190.8 841.62 190.8 841.62 190 846 C182.33 853.28 170.66 852.35 160.77 852.32 C158.57 852.31 156.37 852.34 154.17 852.36 C138.53 852.44 138.53 852.44 132 849 C126.47 842.62 125.86 831.68 124.47 823.57 C124.04 821.23 123.51 818.94 122.94 816.62 C120.73 806.85 120.84 796.55 120.68 786.57 C120.66 785.46 120.64 784.35 120.62 783.2 C120.56 779.7 120.5 776.19 120.44 772.69 C120.39 770.29 120.35 767.89 120.31 765.49 C120.2 759.66 120.1 753.83 120 748 C119.37 747.71 118.74 747.41 118.09 747.11 C112.77 744.29 109.91 736.37 108 731 C105.84 722.21 105.61 713.38 105.44 704.38 C105.26 696.21 105.08 688.11 104 680 C103.34 681.32 102.68 682.64 102 684 C100.62 683.88 99.25 683.76 97.88 683.62 C97.11 683.56 96.34 683.49 95.55 683.41 C92.56 682.93 89.85 682.02 87 681 C87.01 681.64 87.01 682.28 87.02 682.93 C87.31 724.79 87.31 724.79 79.96 733.39 C76.87 738.05 77.44 743.33 77.46 748.73 C77.45 749.88 77.44 751.02 77.43 752.2 C77.39 755.86 77.38 759.52 77.38 763.19 C77.25 790.83 77.25 790.83 76.16 801.8 C76.1 802.54 76.03 803.28 75.96 804.04 C75.28 810 73.64 814.78 70.06 819.62 C68.07 822.89 67.17 825.48 66.12 829.12 C61.15 846.06 61.15 846.06 55.12 849.77 C48.03 852.56 40.9 852.25 33.38 852.31 C32.15 852.34 30.93 852.37 29.68 852.4 C21.91 852.45 14.91 851.82 8 848 C5.49 844.24 5.67 842.47 6 838 C6.75 835.51 7.58 833.05 8.5 830.62 C10.31 825.6 11.4 821.32 11.05 815.96 C10.98 813.24 11.78 810.82 12.49 808.22 C15.1 796.81 14.15 784.28 14.13 772.65 C14.13 769.51 14.13 766.36 14.14 763.21 C14.14 753.1 14.07 743.07 13 733 C12.34 733.66 11.68 734.32 11 735 C8.38 734.62 8.38 734.62 6 734 C2.07 723.38 0.83 713.21 0 702 C-0.09 700.81 -0.18 699.63 -0.27 698.4 C-1.4 683.27 -2.37 668.18 -2 653 C-2.75 652.73 -3.51 652.45 -4.28 652.17 C-10.89 649.33 -15.22 643.95 -19 638 C-19 637.34 -19 636.68 -19 636 C-19.66 636 -20.32 636 -21 636 C-27.96 626.83 -30.84 616.82 -32.31 605.62 C-33.34 597.9 -35.31 592.51 -39.35 585.8 C-43.74 578.34 -45.07 570.25 -45.21 561.68 C-45.24 560.48 -45.27 559.29 -45.3 558.06 C-45.35 555.58 -45.39 553.1 -45.43 550.63 C-45.6 543.89 -46.34 538.07 -48.31 531.64 C-49.48 527.14 -49.53 522.63 -49.62 518 C-49.68 516.17 -49.73 514.33 -49.79 512.5 C-49.81 511.71 -49.82 510.91 -49.84 510.09 C-49.93 507.81 -49.93 507.81 -51 505 C-51.24 500.53 -51.01 496.73 -50 492.38 C-48.8 486.98 -48.93 481.8 -49.12 476.3 C-49 473 -49 473 -48.02 470.1 C-46.76 466.27 -46.75 462.67 -46.69 458.69 C-46.49 452.14 -45.47 446.61 -43.31 440.44 C-40.99 433.61 -40.94 428.39 -42.1 421.32 C-44.14 408.73 -42.69 395.87 -37.44 384.25 C-35.04 378.77 -34.38 373.96 -34.24 368.01 C-33.98 364.72 -33.06 362.12 -32 359 C-31.6 356.61 -31.24 354.21 -30.94 351.81 C-30.1 345.29 -30.1 345.29 -29 342 C-28.63 339.25 -28.3 336.51 -28 333.75 C-27.91 332.95 -27.82 332.14 -27.73 331.31 C-27.18 326.31 -26.87 321.34 -26.69 316.31 C-26.14 307.03 -23.16 298.77 -19.35 290.33 C-17.32 285.34 -17.27 281.18 -19 276 C-19.75 264.71 -19.18 252.52 -14.31 242.12 C-12.31 237.45 -12.98 232.41 -13.13 227.43 C-13.21 221.8 -12.13 217.59 -9.87 212.4 C-8.95 209.85 -8.91 208.24 -9.12 205.56 C-9.39 201.31 -8.04 198.92 -5.94 195.25 C-2.3 188.53 -2.65 183.37 -4 176 C-4.25 174.62 -4.25 174.62 -4.5 173.21 C-5.06 169.29 -5.06 169.29 -7 166 C-7.19 158.81 -5.61 154.44 -1 149 C-1.96 147.89 -1.96 147.89 -2.94 146.75 C-7.1 141.2 -6.44 134.7 -6 128 C-4.76 120.14 -2.19 113.72 2 107 C2.33 106.34 2.66 105.68 3 105 C2.32 103.1 2.32 103.1 1.12 100.94 C0.66 100.03 0.19 99.13 -0.29 98.2 C-1.52 95.89 -2.78 93.61 -4.06 91.33 C-16.35 69.24 -26.7 42.05 -20.76 16.42 C-18.68 9.79 -16.07 3.77 -10 0 C-6.63 -1.68 -3.48 -1.03 0 0 Z M-11.25 9.31 C-18.81 22.77 -15.2 42.41 -11.33 56.43 C-8.11 67.51 -3.75 77.77 1.56 88 C2.13 89.1 2.13 89.1 2.7 90.21 C4.74 94.05 6.68 97.11 10 100 C13.91 96.74 14.82 93.88 16 89 C16.66 87 17.32 85 18 83 C17.35 82.58 16.7 82.15 16.02 81.71 C10.43 77.96 6.13 74.32 2 69 C3.32 69.33 4.64 69.66 6 70 C5.44 66.73 4.5 65.17 2 63 C2.33 62.34 2.66 61.68 3 61 C3.99 61 4.98 61 6 61 C5.22 59.35 4.42 57.71 3.62 56.06 C3.18 55.15 2.74 54.23 2.29 53.29 C1.21 50.87 1.21 50.87 -1 50 C-1.62 47.94 -1.62 47.94 -2 46 C0.59 47.55 3.16 49.1 5.69 50.75 C6.45 51.16 7.21 51.57 8 52 C8.99 51.5 8.99 51.5 10 51 C9.05 49.85 8.09 48.71 7.12 47.56 C6.32 46.61 6.32 46.61 5.51 45.63 C4.08 43.89 4.08 43.89 2 43 C0.95 40.69 -0.06 38.36 -1 36 C7.45 43.3 7.45 43.3 11 47 C7.97 38.41 1.74 31.9 -4 25 C-4.56 24.33 -5.12 23.65 -5.7 22.96 C-6.79 21.64 -7.9 20.32 -9 19 C-8.67 18.34 -8.34 17.68 -8 17 C-1.8 22.26 3.55 27.6 8.41 34.13 C8.93 34.75 9.46 35.36 10 36 C10.66 36 11.32 36 12 36 C12.12 36.59 12.23 37.17 12.36 37.77 C13.03 40.12 13.94 41.62 15.31 43.62 C20.86 52.3 23.33 62.15 26 72 C27.34 71.34 28.67 70.67 30 70 C30.6 69.7 31.2 69.4 31.82 69.1 C34.99 67.22 36.68 65.85 38.01 62.33 C38.49 60.41 38.92 58.47 39.3 56.52 C40.05 53.81 40.85 52.76 43 51 C37.78 44.56 32.51 38.19 27 32 C26.31 31.21 25.63 30.42 24.92 29.6 C11.81 14.23 11.81 14.23 -6.19 6.7 C-9.21 6.72 -9.21 6.72 -11.25 9.31 Z M185.72 24.24 C183.01 26.99 180.69 29.73 178.5 32.89 C175.88 36.58 172.93 40 170.05 43.48 C169.37 44.31 168.7 45.14 168 46 C167.4 46.72 166.81 47.44 166.19 48.18 C165.8 48.78 165.41 49.38 165 50 C165.95 53.7 167.97 56.78 170 60 C172.31 59.34 174.62 58.68 177 58 C178 59 178 59 178.12 62.25 C178.02 65.34 177.72 68.01 177 71 C178.32 71.33 179.64 71.66 181 72 C184.03 67.82 185.06 63.46 186.25 58.52 C187 56 187 56 189 53 C189.46 51.53 189.87 50.05 190.25 48.56 C193.01 39.06 197.86 29.78 204 22 C204.66 21.67 205.32 21.34 206 21 C205.38 25.87 203.3 29.71 201.06 34 C197.65 40.34 197.65 40.34 195 47 C195.33 47.99 195.66 48.98 196 50 C196.6 49.36 197.2 48.72 197.81 48.06 C200 46 200 46 203 45 C202.5 45.95 202.01 46.9 201.5 47.88 C199.86 50.72 199.86 50.72 200 53 C200.66 53 201.32 53 202 53 C202.09 52.07 202.09 52.07 202.19 51.12 C203 49 203 49 205.56 47.75 C206.37 47.5 207.17 47.25 208 47 C206.01 52.25 203.76 55.83 200 60 C200.33 60.66 200.66 61.32 201 62 C202.32 61.01 203.64 60.02 205 59 C202.88 63.47 200.43 67.57 197.62 71.62 C197.25 72.18 196.88 72.74 196.49 73.32 C194.05 76.87 191.49 79.47 188 82 C188.62 85.12 189.66 87.25 191.44 89.88 C193.56 93.15 194.96 96.22 196 100 C199.62 96.82 201.56 93.33 203.5 89 C203.8 88.34 204.11 87.68 204.42 86.99 C207.05 81.13 209.1 75.14 211 69 C211.79 66.77 212.58 64.55 213.39 62.33 C215.43 54.57 215.22 46.53 215.25 38.56 C215.27 37.39 215.29 36.21 215.31 35 C215.35 26.7 214.54 20.02 210.06 12.94 C202.76 6.08 190.97 19.2 185.72 24.24 Z M96 37 C96.5 39.48 96.5 39.48 97 42 C96.49 41.8 95.98 41.59 95.45 41.38 C89.01 38.99 82.84 38.34 76 38 C76.99 40.97 76.99 40.97 78 44 C74.7 44 71.4 44 68 44 C68 44.99 68 45.98 68 47 C67.08 47.07 67.08 47.07 66.14 47.15 C65.33 47.22 64.52 47.3 63.69 47.38 C62.89 47.44 62.09 47.51 61.26 47.59 C58.73 47.9 58.73 47.9 56 50 C56 51.32 56 52.64 56 54 C54.84 54.15 54.84 54.15 53.66 54.3 C52.66 54.45 51.66 54.6 50.62 54.75 C49.63 54.89 48.63 55.03 47.6 55.17 C44.85 55.74 44.85 55.74 43.65 58.08 C43.43 58.71 43.22 59.35 43 60 C43.5 60.6 43.99 61.2 44.5 61.81 C46 64 46 64 46 67 C44.74 67.14 43.48 67.29 42.19 67.44 C35.61 68.86 30.57 73.21 26 78 C26 78.99 26 79.98 26 81 C27.49 81.5 27.49 81.5 29 82 C29 82.66 29 83.32 29 84 C27.02 85.36 25.02 86.69 23 88 C21.08 89.25 21.08 89.25 20 91 C20.02 91.97 20.04 92.94 20.06 93.94 C20 97 20 97 18.44 99 C17.1 100.09 15.76 101.18 14.39 102.23 C5.73 109.1 1.59 118.17 0 129 C-0.21 133.02 -0.19 136.98 0 141 C3.76 139.64 6.8 137.93 10.06 135.62 C11.32 134.75 11.32 134.75 12.6 133.85 C14.94 132.05 16.96 130.13 19 128 C19.07 129.81 19.07 129.81 19.15 131.65 C19.22 133.22 19.3 134.8 19.38 136.38 C19.41 137.17 19.44 137.96 19.47 138.78 C19.52 143.37 19.52 143.37 22 147 C29.68 143.63 34.6 139 39 132 C39.66 131.67 40.32 131.34 41 131 C40.55 132.42 40.09 133.83 39.62 135.25 C39.24 136.43 39.24 136.43 38.85 137.64 C38.05 139.87 37.1 141.91 36 144 C41.24 142.2 44.96 139.98 47.58 134.98 C47.99 133.92 48.39 132.85 48.81 131.75 C49.23 130.67 49.65 129.59 50.08 128.48 C50.38 127.66 50.69 126.84 51 126 C51.33 126 51.66 126 52 126 C52.5 130.95 52.5 130.95 53 136 C55.74 134.89 57.59 133.92 58.82 131.15 C59.29 129.61 59.75 128.07 60.2 126.53 C62.69 118.62 66.85 111.6 73 106 C75.94 104.5 75.94 104.5 78 104 C76.64 107.1 75.15 108.95 72.62 111.19 C66.64 117.04 64.7 123.55 63.88 131.74 C64.02 134.29 64.71 135.82 66 138 C67.8 136.42 69.59 134.84 71.38 133.25 C71.88 132.81 72.39 132.36 72.91 131.91 C75.66 129.45 77.5 127.35 79 124 C79.66 123.67 80.32 123.34 81 123 C81 128.61 81 134.22 81 140 C87.11 141.22 89.81 140.18 95 137 C104.58 128.83 106.95 115.91 108 104 C108.33 104 108.66 104 109 104 C109.49 115.15 108.47 125.1 103 135 C103 135.66 103 136.32 103 137 C107.66 136.28 111.4 133.95 114.39 130.31 C117.42 125.79 119.01 121.27 120.32 116 C121 114 121 114 123 113 C122.11 120.46 120.96 127.07 117.71 133.88 C116.88 136.35 117.14 137.58 118 140 C127.32 133.41 132.16 127.08 134.47 115.67 C134.76 113.44 134.91 111.25 135 109 C135.04 108.12 135.08 107.25 135.12 106.35 C135.27 99.99 134.5 94.17 133 88 C138.35 92.64 138 100.21 138.49 106.87 C138.73 110.45 138.93 114.04 139.12 117.62 C139.21 119.12 139.3 120.62 139.39 122.11 C139.6 125.74 139.8 129.37 140 133 C142.98 130.47 142.98 130.47 144.45 126.99 C144.43 126.29 144.41 125.6 144.39 124.89 C144.38 124.14 144.36 123.38 144.35 122.61 C144.3 121.44 144.3 121.44 144.25 120.25 C144.23 119.46 144.21 118.66 144.2 117.85 C144.15 115.9 144.08 113.95 144 112 C147.46 115 148.69 117.31 149.75 121.75 C149.99 122.73 150.23 123.72 150.48 124.73 C150.65 125.48 150.82 126.23 151 127 C153.78 124.66 154.47 122.93 155.06 119.38 C155.47 116.96 155.47 116.96 156 115 C156.66 114.67 157.32 114.34 158 114 C157.99 114.58 157.99 115.16 157.98 115.76 C157.96 118.4 157.95 121.04 157.94 123.69 C157.93 124.6 157.92 125.51 157.91 126.45 C157.91 127.34 157.91 128.22 157.9 129.14 C157.9 129.95 157.89 130.76 157.89 131.6 C158.01 134.15 158.44 136.51 159 139 C162.06 138.33 162.06 138.33 163.17 136.15 C163.5 135.42 163.84 134.69 164.19 133.94 C164.7 132.84 164.7 132.84 165.23 131.71 C165.48 131.15 165.74 130.58 166 130 C166.66 130 167.32 130 168 130 C168.56 131.18 169.11 132.35 169.69 133.56 C171.76 137.72 174.17 141.32 177 145 C177.33 145 177.66 145 178 145 C178.11 144.13 178.22 143.26 178.33 142.37 C179.96 130.57 179.96 130.57 183 126 C183.66 125.67 184.32 125.34 185 125 C185.11 125.88 185.22 126.76 185.33 127.67 C185.49 128.83 185.65 129.99 185.81 131.19 C185.96 132.34 186.11 133.48 186.27 134.67 C187.01 138.04 187.94 140.24 190 143 C190.66 143 191.32 143 192 143 C192.33 143.99 192.66 144.98 193 146 C194.2 142.25 194.1 138.67 194.06 134.75 C194.05 133.49 194.04 132.22 194.04 130.92 C194.02 129.96 194.01 128.99 194 128 C198 129.33 198.84 131.5 201 135 C202.87 129.39 199.99 123.38 198 118 C196.53 115.51 196.53 115.51 194.88 113.38 C191.65 109.05 191.16 105.14 190.48 99.87 C189.55 94.32 187.43 90.36 183.38 86.5 C181.19 84.82 181.19 84.82 179 85 C179.99 83.68 180.98 82.36 182 81 C178.39 76.08 175.75 74.03 170 72 C170.31 71.42 170.62 70.85 170.94 70.25 C171.93 68.16 172.52 66.25 173 64 C170.52 65.98 170.52 65.98 168 68 C167.67 67.24 167.35 66.48 167.01 65.7 C166.57 64.71 166.14 63.71 165.69 62.69 C165.04 61.21 165.04 61.21 164.39 59.7 C163.11 57.21 162.28 55.61 160 54 C157.84 53.78 157.84 53.78 155.56 54.19 C154.8 54.28 154.04 54.38 153.25 54.48 C150.92 55.02 149.09 55.85 147 57 C147.02 56.3 147.05 55.6 147.07 54.88 C147.09 53.97 147.11 53.06 147.12 52.12 C147.15 51.22 147.17 50.32 147.2 49.38 C147.24 46.81 147.24 46.81 145 45 C143.29 46.28 141.63 47.62 140 49 C140 49.66 140 50.32 140 51 C139.44 51.25 138.89 51.5 138.31 51.75 C135.6 53.22 133.36 55.03 131 57 C130.88 56.43 130.75 55.86 130.62 55.28 C128.85 48.63 125.93 44.58 120 41 C117.02 39.97 114.13 39.36 111 39 C111.5 40.36 111.5 40.36 112 41.75 C113 45 113 45 113 49 C112.42 48.39 111.84 47.77 111.24 47.14 C105.38 40.96 105.38 40.96 98 37 C97.34 37 96.68 37 96 37 Z M199 53 C200 55 200 55 200 55 Z M198 55 C198 58 198 58 198 58 Z M7 63 C7 63.66 7 64.32 7 65 C7.66 64.67 8.32 64.34 9 64 C8.34 63.67 7.68 63.34 7 63 Z M7 70 C7.66 70.66 8.32 71.32 9 72 C9 71.34 9 70.68 9 70 C8.34 70 7.68 70 7 70 Z M135 129 C134.22 130.35 133.45 131.71 132.69 133.06 C128.87 138.93 123.46 142.43 117 145 C114.63 144.68 114.63 144.68 113 144 C112.5 141.52 112.5 141.52 112 139 C110.24 139.74 110.24 139.74 108.44 140.5 C105.57 141.58 103.93 142 100.81 141.94 C96.89 142 94.21 142.78 90.5 144 C85.73 145.56 81.99 146.46 77 146 C76.34 142.7 75.68 139.4 75 136 C73.95 136.95 72.9 137.9 71.81 138.88 C69.01 141.29 66.58 142.91 63 144 C62.01 142.02 61.02 140.04 60 138 C59.5 138.29 59.01 138.58 58.5 138.88 C56 140 56 140 52.5 140.69 C48.48 141.59 45.53 143.43 42.06 145.62 C37.3 148.55 34.53 149.44 29.04 148.92 C25.12 149.07 22.86 151.5 20 154 C18.65 156.71 18.93 159.01 19 162 C20.42 161.88 21.83 161.76 23.25 161.62 C24.43 161.52 24.43 161.52 25.64 161.41 C28.01 161.12 28.01 161.12 29.97 159.97 C33.99 158.04 38.64 158.83 43 159 C44.19 159.01 44.19 159.01 45.4 159.02 C54.07 159.43 59.76 164.43 65.5 170.56 C68.29 173.67 69.47 175.84 70 180 C67.03 178.88 64.67 177.78 62 176 C61.69 176.93 61.38 177.86 61.06 178.81 C60.38 180.88 59.69 182.94 59 185 C59.99 185 60.98 185 62 185 C59.34 190.09 56.72 192.21 51.37 194.31 C44.98 196.17 39.89 195.11 34 192 C29.75 189.2 28 186.65 26 182 C25.27 178.35 25.27 178.35 24.81 174.62 C24.57 172.76 24.57 172.76 24.33 170.85 C24.22 169.91 24.11 168.97 24 168 C21.85 168.78 21.85 168.78 21.41 170.7 C19.75 180.03 19.83 189.74 19.69 199.19 C19.66 200.18 19.63 201.18 19.6 202.21 C19.49 215.59 25.25 227.41 34.56 236.88 C39.95 242.71 39.95 242.71 47 245 C47 245.66 47 246.32 47 247 C55.36 251.31 55.36 251.31 64 255 C72.78 258.42 80.61 262.4 87.9 268.39 C95.34 274.09 102.2 275.38 111.36 274.62 C120.24 273.11 125.94 267.23 132.31 261.3 C139.95 254.77 149.23 250.22 158.12 245.64 C167.79 240.12 172.86 231.76 176.18 221.35 C176.45 220.24 176.72 219.14 177 218 C177.18 217.29 177.36 216.59 177.54 215.86 C179.62 206.44 179.22 196.91 179.12 187.31 C179.11 185.53 179.11 183.75 179.1 181.97 C179.08 177.65 179.04 173.32 179 169 C176.76 170.78 176.76 170.78 176.95 173.1 C177 173.93 177.06 174.77 177.12 175.62 C177.23 180.96 176.11 184.66 173 189 C167.04 194.66 162.27 195.45 154.21 195.32 C149.67 194.87 147.52 193.89 144 191 C142.56 188.25 142.56 188.25 142 186 C143.65 186.33 145.3 186.66 147 187 C145.68 184.03 144.36 181.06 143 178 C142.01 178.66 141.02 179.32 140 180 C139.01 180 138.02 180 137 180 C137.38 173.97 141.41 169.41 145.67 165.45 C152.19 160.39 159.89 159.08 168 160 C170.66 160.67 173.24 161.45 175.84 162.34 C178.1 163.15 178.1 163.15 181 163 C179.85 157.58 177.77 153.88 174.6 149.36 C172.13 145.72 170.07 141.87 168 138 C165.33 140.49 163.44 142.63 162 146 C160.14 145.79 160.14 145.79 158 145 C156.73 142.93 156.73 142.93 155.75 140.44 C155.41 139.61 155.08 138.78 154.73 137.93 C154.49 137.3 154.25 136.66 154 136 C153.05 136.04 152.1 136.08 151.12 136.12 C148 136 148 136 146 134 C145.09 134.8 144.18 135.61 143.25 136.44 C140.64 138.75 139.64 139.09 136 140 C136 136.37 136 132.74 136 129 C135.67 129 135.34 129 135 129 Z M12 139 C11.01 139.99 10.02 140.98 9 142 C10.32 141.67 11.64 141.34 13 141 C12.67 140.34 12.34 139.68 12 139 Z M183 140 C183.11 141.63 183.24 143.25 183.38 144.88 C183.44 145.78 183.51 146.68 183.59 147.62 C183.8 150.18 183.8 150.18 186 152 C185.34 148.04 184.68 144.08 184 140 C183.67 140 183.34 140 183 140 Z M13 143 C12.44 143.7 11.89 144.4 11.31 145.12 C9.42 147.48 7.81 149.07 5.5 150.94 C2.23 153.65 0.17 156.36 -2 160 C-1.5 160.99 -1.5 160.99 -1 162 C-0.34 161.67 0.32 161.34 1 161 C1 160.34 1 159.68 1 159 C2.32 159 3.64 159 5 159 C4.53 159.93 4.05 160.86 3.56 161.81 C1.96 164.91 1.96 164.91 1 168 C1.99 168 2.98 168 4 168 C3.34 172.62 2.68 177.24 2 182 C5.13 180.75 8.03 179.54 11 178 C9.17 181.34 7.47 184.42 5.06 187.38 C2.25 190.95 -0.27 194.78 -2 199 C-1.67 199.99 -1.34 200.98 -1 202 C0.65 200.68 2.3 199.36 4 198 C4.33 198.66 4.66 199.32 5 200 C4.08 201.27 4.08 201.27 3.14 202.56 C-5.18 214.12 -5.18 214.12 -7 228 C-6.3 227.24 -5.6 226.47 -4.88 225.69 C-2.04 223.03 0.47 221.56 4 220 C1.35 225.68 1.35 225.68 -0.36 227.24 C-12.5 240.25 -13.51 259.3 -13 276 C-12.34 276 -11.68 276 -11 276 C-9.65 274.35 -8.31 272.68 -7 271 C-6.34 270.67 -5.68 270.34 -5 270 C-5.35 270.87 -5.35 270.87 -5.71 271.76 C-8.45 278.56 -11.09 285.39 -13.69 292.25 C-14.09 293.3 -14.49 294.35 -14.91 295.43 C-15.29 296.45 -15.68 297.47 -16.07 298.52 C-16.42 299.43 -16.77 300.34 -17.12 301.27 C-18.05 304.17 -18.57 306.99 -19 310 C-18.28 309.28 -17.56 308.56 -16.81 307.81 C-15.88 306.88 -14.96 305.96 -14 305 C-13.15 304.11 -12.31 303.23 -11.44 302.31 C-9.26 300.25 -7.66 299.23 -5 298 C-5.65 298.87 -6.3 299.74 -6.98 300.64 C-17.06 314.14 -17.06 314.14 -22 330 C-21.46 329.59 -20.91 329.18 -20.36 328.76 C-19.64 328.22 -18.92 327.68 -18.19 327.12 C-17.48 326.59 -16.77 326.06 -16.04 325.51 C-14.4 324.29 -12.7 323.14 -11 322 C-11.38 322.62 -11.75 323.23 -12.14 323.87 C-14.73 328.16 -17.31 332.47 -19.81 336.81 C-20.21 337.5 -20.61 338.19 -21.02 338.89 C-22.28 341.39 -22.28 341.39 -23 346 C-18.71 344.02 -14.42 342.04 -10 340 C-12.53 342.53 -15.06 345.06 -17.62 347.56 C-21.08 351.11 -23.51 354.71 -25.75 359.12 C-26.42 360.43 -26.42 360.43 -27.11 361.76 C-27.55 362.87 -27.55 362.87 -28 364 C-27.5 364.99 -27.5 364.99 -27 366 C-26.4 365.53 -25.8 365.05 -25.19 364.56 C-23 363 -23 363 -20 362 C-20.29 362.51 -20.58 363.02 -20.88 363.55 C-22.28 366.02 -23.64 368.51 -25 371 C-25.74 372.32 -25.74 372.32 -26.49 373.67 C-34.67 389 -38.69 405.66 -36 423 C-31.08 421.12 -27.94 417 -24.42 413.26 C-21.69 410.42 -19.88 408.71 -16 408 C-16.41 408.46 -16.82 408.92 -17.25 409.4 C-19.18 411.58 -21.09 413.79 -23 416 C-23.67 416.76 -24.34 417.52 -25.04 418.3 C-32.4 426.98 -37.2 436.73 -39 448 C-39.21 449.01 -39.41 450.02 -39.62 451.06 C-39.75 451.7 -39.87 452.34 -40 453 C-39.54 452.6 -39.08 452.2 -38.61 451.79 C-29.32 443.77 -29.32 443.77 -25 443 C-25.66 443.6 -26.32 444.2 -27 444.81 C-36.8 454.72 -41.35 465.54 -44 479 C-40.54 477.02 -40.54 477.02 -37 475 C-37.6 476.52 -38.21 478.04 -38.81 479.56 C-39.18 480.48 -39.54 481.4 -39.91 482.35 C-40.76 484.41 -41.71 486.44 -42.69 488.44 C-44.46 493.24 -44.73 497.92 -45 503 C-42.95 501.1 -42.05 500.17 -41.19 497.44 C-40 495 -40 495 -36.93 493.85 C-35.96 493.57 -34.99 493.29 -34 493 C-34.74 494.46 -34.74 494.46 -35.5 495.96 C-36.14 497.24 -36.79 498.53 -37.44 499.81 C-37.76 500.46 -38.09 501.1 -38.42 501.76 C-40.68 506.24 -42.13 509.65 -42.1 514.67 C-42.09 515.56 -42.09 516.45 -42.09 517.37 C-42.08 518.3 -42.07 519.23 -42.06 520.19 C-42.06 521.13 -42.05 522.07 -42.05 523.04 C-42.04 525.36 -42.02 527.68 -42 530 C-40 527 -38.97 524.38 -37.75 521 C-30.01 500.57 -30.01 500.57 -21.69 495.62 C-20.85 495.32 -20.85 495.32 -20 495 C-21.67 498.62 -23.51 501.72 -25.88 504.94 C-29.36 510.05 -31.11 515.59 -32.91 521.44 C-33.74 524.17 -34.67 526.78 -35.69 529.44 C-42.01 548.61 -39.78 568.8 -32 587 C-31.34 587 -30.68 587 -30 587 C-29.71 585.89 -29.42 584.78 -29.12 583.63 C-26.75 574.92 -24.2 567.48 -19 560 C-18.2 558.71 -18.2 558.71 -17.39 557.4 C-14.42 552.64 -14.42 552.64 -13 551 C-12.01 551 -11.02 551 -10 551 C-10.27 551.48 -10.54 551.96 -10.82 552.46 C-21.34 571.28 -30.29 590.18 -25.12 612.23 C-21.44 624.62 -14.48 634.39 -6 644 C-5.34 644.33 -4.68 644.66 -4 645 C-4.14 644.43 -4.29 643.85 -4.44 643.26 C-5.85 636.79 -6.19 630.54 -6.19 623.94 C-6.19 623.09 -6.19 622.25 -6.19 621.38 C-6.14 615.27 -6.14 615.27 -5 613 C-3.78 615.45 -3.85 617.56 -3.76 620.26 C-3.39 631.1 -1.48 642.6 6 651 C10.64 654.87 15.32 657.91 21 660 C21.5 657.53 21.5 657.53 22 655 C26.14 656.38 27.32 658.6 30 662 C30.33 661.34 30.66 660.68 31 660 C30.12 658.03 29.14 656.09 28.12 654.19 C22.47 643.6 23.71 633.4 25.31 621.81 C25.43 620.87 25.55 619.92 25.67 618.95 C26.41 613.49 27.42 608.89 30 604 C30.66 603.67 31.32 603.34 32 603 C31.82 603.88 31.82 603.88 31.63 604.78 C26.07 631.72 26.07 631.72 34.32 657.11 C37.69 662 41.4 665.78 47 668 C49.82 668.37 52.14 668.26 55 668 C54.68 667.22 54.68 667.22 54.34 666.42 C51.98 660.16 51.66 654.65 52 648 C52.35 649.06 52.7 650.12 53.07 651.22 C56.89 662.98 56.89 662.98 65 672 C68.39 672.95 70.64 673.12 74 672 C73.27 668.8 72.22 665.82 71.06 662.75 C67.8 653.78 66.71 646.62 67 637 C67.15 637.76 67.29 638.53 67.45 639.32 C69.81 650.59 73.06 665.9 83 673 C90.3 676.51 90.3 676.51 98 676 C97.8 671.91 96.86 669.58 94.31 666.5 C87.05 657.34 82 643.75 82 632 C82.66 631.67 83.32 631.34 84 631 C84.34 632.83 84.34 632.83 84.69 634.69 C88.36 650.85 96.74 668.03 110.81 677.5 C115.89 680.33 120.28 681.14 126 680 C133.06 676.6 138.19 670.05 141.19 662.89 C143 656.43 143.42 649.66 144 643 C144.66 643 145.32 643 146 643 C146.73 654.66 145.39 663.68 139.84 674.21 C138.79 676.12 138.79 676.12 139 679 C147.32 677.86 153.31 675.59 159.38 669.69 C164.29 661.55 162.87 653.03 162 644 C162.66 644 163.32 644 164 644 C166.55 648.84 166.23 653.49 166.12 658.81 C166.12 659.7 166.11 660.58 166.1 661.49 C166.07 663.66 166.04 665.83 166 668 C176.21 658.06 180.84 645.81 181.05 631.62 C181.06 628.41 181.04 625.21 181 622 C181.66 622 182.32 622 183 622 C185.94 634.33 184.21 646.68 178.89 657.98 C177.87 660.29 177.32 662.5 177 665 C186.45 662.51 193.24 657.92 199 650 C199 649.34 199 648.68 199 648 C199.66 648 200.32 648 201 648 C206.88 637.64 207.58 626.63 208 615 C208.66 615 209.32 615 210 615 C210.33 620.94 210.66 626.88 211 633 C213.06 630.26 214.58 628.11 216.06 625.12 C216.38 624.49 216.7 623.85 217.04 623.2 C222.52 610.73 220.6 597.48 216 585 C213.95 580.51 211.54 576.23 209 572 C217.19 580.01 220.84 587.57 223.92 598.43 C224.76 601.22 225.66 603.45 227 606 C227.08 605.09 227.08 605.09 227.17 604.15 C227.42 601.37 227.68 598.59 227.94 595.81 C228.02 594.85 228.11 593.89 228.2 592.9 C228.29 591.97 228.38 591.04 228.46 590.08 C228.54 589.23 228.62 588.37 228.7 587.5 C229 584.96 229.47 582.5 230 580 C232.52 581.97 232.99 582.97 233.69 586.19 C233.79 587.12 233.89 588.04 234 589 C239.32 579.57 234.9 565.19 232.27 555.26 C231.59 553.14 230.83 551.07 230 549 C229.67 548.14 229.33 547.27 228.99 546.38 C227.47 542.5 225.91 538.71 224 535 C226.38 535.25 226.38 535.25 229 536 C230.12 537.75 230.12 537.75 231 540 C232.43 542.71 232.43 542.71 234 545 C234.66 545 235.32 545 236 545 C235.91 542.14 235.81 539.29 235.69 536.44 C235.66 535.64 235.64 534.84 235.62 534.01 C235.28 526.5 232.75 520.94 228.81 514.56 C228.28 513.7 227.75 512.83 227.21 511.94 C226.81 511.3 226.41 510.66 226 510 C231.31 512.02 233.68 514.81 236.8 519.36 C237.2 519.9 237.59 520.44 238 521 C238.33 521 238.66 521 239 521 C239.49 512.31 238.96 505.77 235 498 C234.58 497.11 234.15 496.21 233.71 495.29 C230.62 489.14 226.89 484.27 222.15 479.29 C219.96 476.96 217.97 474.52 216 472 C222.14 474.94 226.27 479.05 230.96 483.95 C231.63 484.63 232.31 485.3 233 486 C233.33 486 233.66 486 234 486 C234.4 472.93 230.23 462.01 222 452 C221.34 451.67 220.68 451.34 220 451 C219.38 448.94 219.38 448.94 219 447 C227.45 453.15 227.45 453.15 231 457 C232.03 446.93 228.29 436.36 222.12 428.44 C220.78 426.93 219.41 425.45 218 424 C217.48 423.44 216.96 422.88 216.42 422.3 C210.98 417.06 203.76 414.17 197 411 C203.83 411.27 208.25 412.29 214 416 C214.66 416 215.32 416 216 416 C217.43 401.6 212.38 386.62 204 375 C202.52 373.21 202.52 373.21 201 372 C200.34 372 199.68 372 199 372 C198.67 371.01 198.34 370.02 198 369 C196.37 367.29 194.71 365.62 193 364 C199.91 367.02 205.03 370.29 210 376 C211.19 372.44 210.86 371.86 209.31 368.56 C205.63 361.47 199.77 356.4 194 351 C192.99 350.01 191.99 349.01 191 348 C192.05 348.45 193.1 348.91 194.19 349.38 C197.11 350.63 200.04 351.84 203 353 C205.58 347.83 204.73 338.93 203.35 333.41 C201.1 328.41 197.65 325.71 193 323 C192.34 322.61 191.67 322.21 190.99 321.81 C189.34 320.85 187.67 319.92 186 319 C186.33 318.34 186.66 317.68 187 317 C188.58 317.62 190.17 318.25 191.75 318.88 C192.63 319.22 193.51 319.57 194.42 319.93 C196.67 320.86 198.84 321.88 201 323 C200.36 313.23 195.29 304.42 188 298 C183.16 294.43 178.09 291.2 173 288 C177.51 288.54 180.75 289.69 184.69 291.94 C185.62 292.46 186.55 292.99 187.51 293.53 C189.37 294.63 191.2 295.8 193 297 C191.79 293.28 190.49 289.62 189 286 C189.76 286.8 190.53 287.61 191.31 288.44 C193.79 291.17 193.79 291.17 197 292 C196.83 280.76 195.39 271.59 189 262 C188.34 262 187.68 262 187 262 C186.6 260.95 186.6 260.95 186.19 259.88 C184.93 256.84 183.5 253.93 182 251 C184.31 252.32 186.62 253.64 189 255 C188.73 246.83 185.87 241.1 182 234 C181.33 232.67 180.66 231.34 180 230 C183.06 231.74 185.63 233.38 188 236 C189.87 234.13 189.17 231.46 189.19 228.97 C189.19 228.15 189.19 227.34 189.19 226.5 C189.19 225.68 189.19 224.86 189.19 224.01 C189.11 216.78 188.42 210.52 185 204 C184.85 204.83 184.85 204.83 184.7 205.68 C181.49 223.17 178.31 238.64 163 249.69 C157.53 253.37 151.69 256.16 145.75 258.98 C139.52 262.03 134.94 266.18 130 271 C128.46 272.34 126.9 273.65 125.31 274.94 C124.65 275.48 123.98 276.03 123.3 276.59 C115.42 281.42 103.5 281.49 94.61 279.45 C92.52 278.49 90.85 277.37 89 276 C86.79 274.37 84.59 272.75 82.38 271.12 C81.77 270.68 81.17 270.24 80.55 269.78 C75.53 266.18 70.38 263.78 64.64 261.48 C51.01 255.93 35.91 249.09 27 237 C26.51 236.44 26.03 235.89 25.52 235.31 C19.12 227.7 13.88 215.8 13.87 205.77 C13.87 204.97 13.86 204.16 13.86 203.33 C13.87 202.5 13.87 201.67 13.88 200.81 C13.87 199.59 13.87 199.59 13.86 198.35 C13.87 193.56 14.19 188.91 14.77 184.15 C15.13 180.8 15.13 177.5 15.12 174.12 C15.13 172.85 15.13 171.57 15.13 170.26 C15.15 166.99 15.15 166.99 14 164 C13.93 162.11 13.92 160.21 13.94 158.31 C13.95 157.32 13.96 156.32 13.96 155.3 C13.98 154.54 13.99 153.78 14 153 C14.66 153 15.32 153 16 153 C15.67 149.7 15.34 146.4 15 143 C14.34 143 13.68 143 13 143 Z M191 151 C191.33 154.63 191.66 158.26 192 162 C189.69 162 187.38 162 185 162 C184.94 170 184.94 178 185 186 C185 187.29 185.01 188.58 185.01 189.91 C185.32 197.94 188.29 204.29 194 210 C193.72 206.85 193.42 203.71 193.12 200.56 C193.05 199.68 192.97 198.81 192.89 197.9 C192.33 192.13 191.37 186.64 190 181 C190.62 181.66 191.24 182.32 191.88 183 C193.76 185.23 193.76 185.23 196 185 C195.67 182.69 195.34 180.38 195 178 C196.65 178.99 198.3 179.98 200 181 C199.03 174.1 197.93 167.22 196.62 160.38 C196.41 159.23 196.2 158.08 195.98 156.9 C195.14 153.52 195.14 153.52 191 151 Z M30 167 C28.77 168.01 28.77 168.01 28.9 170.07 C28.91 170.89 28.93 171.71 28.94 172.56 C28.95 173.39 28.96 174.22 28.96 175.07 C28.98 175.7 28.99 176.34 29 177 C29.33 177 29.66 177 30 177 C30.33 173.7 30.66 170.4 31 167 C30.67 167 30.34 167 30 167 Z M47 167 C45.74 168.05 45.74 168.05 45.75 170.44 C45.83 171.28 45.91 172.13 46 173 C48.78 175.33 48.78 175.33 51.69 174.62 C52.45 174.42 53.21 174.21 54 174 C54.33 172.68 54.66 171.36 55 170 C51.94 167.38 51.27 167 47 167 Z M151.69 169.44 C151.13 169.95 150.57 170.47 150 171 C150.66 172.65 151.32 174.3 152 176 C155.61 175.34 155.61 175.34 159 174 C159 172.35 159 170.7 159 169 C155.2 167.83 155.2 167.83 151.69 169.44 Z M171 179 C172 181 172 181 172 181 Z M170 181 C171 183 171 183 171 183 Z M169 183 C170 185 170 185 170 185 Z M210 349 C208.69 351.94 208.07 354.79 208 358 C209.25 360.69 211.11 362.74 213 365 C216.49 370.89 216.07 375.8 215.91 382.56 C216.01 386.39 216.72 389.32 218.15 392.84 C220.65 399.19 221.19 404.72 221.25 411.44 C221.44 417.96 221.69 422.69 226.53 427.53 C228.2 429.2 229.04 430.85 230 433 C230.66 433 231.32 433 232 433 C232.15 434.14 232.15 434.14 232.31 435.31 C232.87 438.28 233.6 440.89 234.5 443.75 C236.18 449.67 236.42 455.42 236.65 461.52 C236.81 465.34 237.02 468.86 238.06 472.56 C239.22 476.81 238.99 480.95 238.88 485.31 C238.72 491.93 239.66 497.01 242.03 503.25 C245.06 511.85 243.73 519.3 241.76 528 C240.61 533.5 240.49 539.04 240.31 544.64 C240.02 547.81 239.41 549.26 238 552 C237.94 554.4 237.94 554.4 238.31 556.88 C238.46 558.11 238.46 558.11 238.61 559.37 C238.88 561.15 239.18 562.93 239.52 564.7 C240.16 569.1 240.26 573.43 240.31 577.88 C240.34 578.73 240.37 579.59 240.4 580.48 C240.47 587.57 238.71 592.54 234.34 598.12 C232.02 601.37 231.76 605.26 231.04 609.12 C229.75 612.7 227.96 613.7 225 616 C223.52 618.69 223.52 618.69 222.5 621.69 C215.66 639.31 215.66 639.31 209.99 641.93 C207.18 643.44 206.51 645.34 205.12 648.19 C202.57 653.13 199.79 656.94 196 661 C205.61 661.55 214.33 660.24 222 654 C226.4 649.45 228.03 645.77 229.31 639.62 C229.48 638.89 229.65 638.15 229.82 637.39 C230.23 635.6 230.62 633.8 231 632 C231.66 632 232.32 632 233 632 C232.58 639.22 232.05 646.05 230 653 C238.16 654.1 243.4 650.53 250 646 C257.3 640.07 259.83 632.08 261 623 C261 621.68 261 620.36 261 619 C261.66 619.33 262.32 619.66 263 620 C263.35 628.26 262.94 635.24 260 643 C262.97 642.4 264.96 641.54 267.39 639.74 C268.01 639.28 268.64 638.83 269.28 638.36 C270.26 637.62 270.26 637.62 271.25 636.88 C271.92 636.38 272.58 635.88 273.27 635.37 C282.6 628.96 282.6 628.96 289 620 C289.36 617.39 289.36 617.39 289.41 614.58 C289.45 613.55 289.49 612.53 289.53 611.47 C289.56 610.41 289.59 609.35 289.62 608.25 C289.66 607.17 289.7 606.09 289.74 604.98 C289.84 602.32 289.92 599.66 290 597 C290.33 597 290.66 597 291 597 C291.11 597.57 291.21 598.15 291.32 598.74 C291.81 601.37 292.31 604 292.81 606.62 C292.98 607.53 293.14 608.43 293.31 609.36 C294.28 614.36 295.42 618.55 298 623 C302.99 622.53 307.17 620.14 311 617 C313.2 613.74 313.37 610.62 313.62 606.75 C313.7 605.67 313.77 604.59 313.85 603.48 C313.93 602.25 313.93 602.25 314 601 C314.66 601 315.32 601 316 601 C317.59 604.19 317.1 607.63 317.06 611.12 C317.06 611.88 317.05 612.63 317.05 613.41 C317.04 615.27 317.02 617.14 317 619 C320.85 617.75 322.64 616.72 324.62 613.19 C325.03 612.47 325.44 611.76 325.87 611.03 C326.24 610.36 326.61 609.69 327 609 C327.58 608.09 328.15 607.18 328.75 606.25 C331.3 601.66 331 597.94 330.56 592.75 C330.41 590.86 330.41 590.86 330.25 588.92 C330.17 587.96 330.09 586.99 330 586 C332.76 588.25 333.91 589.36 334.43 592.95 C334.37 594.59 334.37 594.59 334.31 596.25 C334.28 597.39 334.24 598.54 334.21 599.71 C333.97 603.52 333.59 607.23 333 611 C338.09 609.69 341.37 607.36 345.12 603.81 C345.64 603.36 346.15 602.9 346.68 602.43 C352.86 596.69 356.76 589.68 357.2 581.13 C357.18 579.8 357.16 578.46 357.12 577.12 C357.12 576.44 357.11 575.75 357.1 575.04 C357.07 573.36 357.04 571.68 357 570 C357.99 570 358.98 570 360 570 C360.91 577.4 361.12 584.68 361.06 592.12 C361.06 593.18 361.05 594.23 361.05 595.31 C361.04 597.88 361.02 600.44 361 603 C367.47 594.77 370.79 580.49 370 570 C369.67 569.34 369.34 568.68 369 568 C368.78 566.46 368.59 564.92 368.44 563.38 C368.35 562.56 368.27 561.74 368.18 560.9 C368.12 560.27 368.06 559.65 368 559 C368.99 559.33 369.98 559.66 371 560 C372.1 562.26 372.1 562.26 373.06 565.12 C373.4 566.11 373.74 567.1 374.08 568.12 C375.13 571.4 376.11 574.68 377 578 C380.82 574.18 380.21 569.34 380.25 564.19 C380.27 563.5 380.29 562.81 380.31 562.11 C380.37 554.38 377.29 549.36 373 543 C373 542.34 373 541.68 373 541 C379.15 544.74 381.94 548.53 385 555 C385.33 555 385.66 555 386 555 C386.47 547.11 386.18 541.79 382 535 C381.34 535 380.68 535 380 535 C379.75 534.48 379.5 533.97 379.25 533.44 C377.91 530.82 376.42 528.3 374.9 525.78 C373.94 523.88 373.44 522.08 373 520 C377.93 523.88 381.54 527.76 385 533 C390.36 524.96 388.43 511.21 387 502 C385.33 495.64 382.01 489.81 379 484 C379.99 484 380.98 484 382 484 C384 486.31 384 486.31 386 489 C386.99 490.01 387.98 491.02 389 492 C389.63 480.47 388.38 474.69 380.81 466.06 C376.33 461.26 371.7 456.6 367 452 C371.15 453.44 374.3 455.5 377.81 458.12 C378.79 458.85 379.76 459.57 380.77 460.32 C381.51 460.87 382.24 461.43 383 462 C386.66 451.02 378.37 434.1 373.7 424.25 C372.21 421.45 370.62 418.73 369 416 C368.1 414.45 367.2 412.89 366.3 411.34 C355.3 392.46 343.28 375.08 324 364 C323.23 363.49 322.45 362.98 321.65 362.46 C298.88 347.67 271.28 345.72 244.94 345.69 C244.05 345.68 243.16 345.68 242.25 345.68 C225.71 345.03 225.71 345.03 210 349 Z M-29 366 C-28 368 -28 368 -28 368 Z M354 602 C353.31 602.68 352.62 603.35 351.91 604.05 C341.07 614.34 341.07 614.34 334 616 C332.64 615.72 332.64 615.72 331.25 615.44 C330.51 615.29 329.76 615.15 329 615 C326.59 617.06 324.63 619.21 322.64 621.68 C320.4 623.48 319.14 623.18 316.31 622.94 C311.6 622.77 309.04 623.74 305.02 626.04 C301.57 627.68 297.81 628.23 294 628 C293.01 627.34 292.02 626.68 291 626 C290.3 626.97 289.6 627.94 288.88 628.94 C285.27 633.18 280.91 635.86 276.2 638.71 C268.43 643.08 268.43 643.08 264.05 650.38 C264 654.09 264.37 657.24 265.12 660.88 C265.26 661.54 265.39 662.21 265.53 662.89 C265.84 664.41 266.15 665.92 266.47 667.42 C267.06 670.3 267.64 673.19 268.21 676.07 C269.27 681.42 270.34 686.76 271.42 692.09 C272.22 696.08 273.02 700.07 273.81 704.06 C274.05 705.23 274.28 706.4 274.52 707.6 C274.68 708.39 274.84 709.18 275 710 C275.66 710 276.32 710 277 710 C277.33 706.7 277.66 703.4 278 700 C278.66 700 279.32 700 280 700 C280.15 700.94 280.29 701.89 280.45 702.86 C282.01 711.8 284.43 719.05 289 727 C291.42 724.58 291.53 723.2 292.12 719.88 C292.29 718.96 292.46 718.05 292.63 717.12 C292.75 716.42 292.88 715.72 293 715 C294.49 714.5 294.49 714.5 296 714 C295.98 714.71 295.95 715.43 295.93 716.16 C295.82 721.88 296.08 726.6 298 732 C305.44 728.43 310.32 724.77 313.41 716.95 C314.1 715.02 314.1 715.02 314 713 C314.99 713.5 314.99 713.5 316 714 C316 718.29 316 722.58 316 727 C321.51 724.79 322.27 724.01 325 719 C325.85 716.64 326.6 714.27 327.29 711.86 C328 710 328 710 330 709 C330.06 709.99 330.12 710.97 330.18 711.99 C330.27 713.27 330.35 714.55 330.44 715.88 C330.52 717.15 330.6 718.43 330.68 719.74 C330.79 722.88 330.79 722.88 332 725 C332.99 725 333.98 725 335 725 C336.58 719.71 337.85 714.4 339 709 C339.66 709 340.32 709 341 709 C341.99 713.46 341.99 713.46 343 718 C343.66 718 344.32 718 345 718 C348.86 707.96 347.91 696.89 344 687 C348.88 690.75 348.88 690.75 350 693 C350.66 693 351.32 693 352 693 C352.26 686.79 351.41 681.59 349.75 675.62 C349.53 674.79 349.3 673.96 349.07 673.11 C347.44 667.23 345.55 661.54 343 656 C343.99 655.67 344.98 655.34 346 655 C346.29 655.8 346.58 656.61 346.88 657.44 C347.73 660.13 347.73 660.13 350 661 C349.86 658.87 349.71 656.75 349.56 654.62 C349.48 653.44 349.4 652.26 349.32 651.04 C349.19 648.08 349.19 648.08 348 646 C350.92 647.07 352.78 647.78 355 650 C355.93 639.51 356.12 629.14 356.06 618.62 C356.06 617.1 356.05 615.57 356.05 614.05 C356.04 610.36 356.02 606.68 356 603 C355.01 602.5 355.01 602.5 354 602 Z M249.36 652.18 C243.6 656.63 237.71 657.52 230.69 658.38 C224.17 659.27 219.07 660.5 213.34 663.87 C209.59 665.68 205.68 666.06 201.57 666.54 C198.77 666.86 198.77 666.86 196 669 C196.41 677.67 197.61 685.66 200 694 C201.18 692.79 201.18 692.79 202.38 691.56 C205 689 205 689 207 688 C206.69 688.76 206.38 689.53 206.06 690.31 C203.69 698.54 203.81 706.58 205 715 C205.66 715 206.32 715 207 715 C207.67 713.71 208.34 712.42 209 711.12 C209.37 710.41 209.74 709.69 210.12 708.95 C211.14 707.05 211.14 707.05 211 705 C211.66 705 212.32 705 213 705 C213.33 705.99 213.66 706.98 214 708 C214.66 705.69 215.32 703.38 216 701 C216.66 701 217.32 701 218 701 C218.18 701.77 218.36 702.54 218.55 703.34 C218.8 704.34 219.05 705.34 219.31 706.38 C219.68 707.87 219.68 707.87 220.05 709.4 C220.82 712.31 220.82 712.31 224 714 C224.78 713.34 225.57 712.68 226.38 712 C229 710 229 710 231 710 C231.5 714.46 231.5 714.46 232 719 C235.89 716.84 239 714.34 242.25 711.31 C246.9 707 246.9 707 248 707 C248.5 709.97 248.5 709.97 249 713 C255.36 707.54 256.62 698.86 258 691 C258.2 688.27 258.16 685.74 258 683 C258.99 683.5 258.99 683.5 260 684 C260.41 686.32 260.41 686.32 260.63 689.35 C260.72 690.43 260.8 691.51 260.89 692.62 C260.97 693.76 261.04 694.89 261.12 696.06 C261.21 697.2 261.3 698.34 261.39 699.52 C261.6 702.34 261.8 705.17 262 708 C262.99 708 263.98 708 265 708 C268.75 702.38 266.97 694.8 265.83 688.56 C265.7 687.88 265.58 687.2 265.45 686.49 C265.19 685.05 264.93 683.61 264.66 682.18 C264.26 680.03 263.87 677.89 263.48 675.75 C261.72 666.06 259.5 656.53 257 647 C253.61 647 251.72 649.92 249.36 652.18 Z M5 657 C4.89 669.03 5.09 681 5.74 693.01 C5.88 695.46 6 697.91 6.11 700.37 C6.6 713.32 6.6 713.32 9 726 C9.66 726.33 10.32 726.66 11 727 C14.36 722.49 14.36 722.49 15 717 C15.99 717 16.98 717 18 717 C18.11 717.88 18.22 718.76 18.33 719.67 C18.49 720.83 18.65 721.99 18.81 723.19 C18.96 724.34 19.11 725.48 19.27 726.67 C20.02 730.07 21.08 732.13 23 735 C23.75 736.43 24.48 737.87 25.19 739.31 C25.53 740.01 25.88 740.71 26.23 741.43 C26.48 741.95 26.74 742.46 27 743 C27.61 742.8 28.23 742.59 28.86 742.38 C29.57 742.25 30.27 742.13 31 742 C33.25 743.94 33.25 743.94 35 746 C34.5 741.05 34.5 741.05 34 736 C34.46 736.61 34.92 737.23 35.39 737.86 C36 738.67 36.62 739.48 37.25 740.31 C37.85 741.11 38.46 741.91 39.08 742.74 C40.9 744.89 42.68 746.42 45 748 C45.65 746.59 46.29 745.17 46.94 743.75 C47.3 742.96 47.66 742.17 48.03 741.36 C49.9 736.82 50.34 732.94 50 728 C48.62 724.65 48.62 724.65 47 722 C50.96 723.32 51.22 724.84 53.06 728.5 C54.8 732.46 54.8 732.46 58 735 C58.18 734.06 58.18 734.06 58.37 733.1 C58.53 732.28 58.7 731.47 58.88 730.62 C59.04 729.81 59.2 729 59.37 728.16 C60 726 60 726 62 724 C62.16 723.15 62.33 722.31 62.5 721.44 C62.66 720.63 62.83 719.83 63 719 C63.66 718.67 64.32 718.34 65 718 C65.19 719.58 65.19 719.58 65.38 721.19 C65.92 724.52 66.67 726.94 68 730 C68.68 732 69.35 734 70 736 C70.66 735.67 71.32 735.34 72 735 C72.91 732.27 73.18 730.38 73.32 727.55 C73.36 726.7 73.4 725.86 73.44 724.98 C73.48 724.1 73.52 723.22 73.56 722.31 C73.63 720.97 73.63 720.97 73.69 719.61 C73.8 717.41 73.9 715.2 74 713 C77.12 715.79 77.54 717.84 78 722 C78.66 722 79.32 722 80 722 C80.81 706.01 80.81 706.01 81.19 690 C81.2 688.8 81.22 687.61 81.23 686.38 C80.97 682.61 80.16 679.58 79 676 C75.04 675.86 75.04 675.86 71.38 676.75 C66.8 677.38 63.77 675.84 59.64 673.98 C56.79 672.92 54.41 672.66 51.38 672.5 C46.82 672.24 43.9 671.22 39.98 668.98 C37.09 667.55 34.14 667.09 30.98 666.59 C28.61 665.88 27.67 664.77 26 663 C25.34 663 24.68 663 24 663 C23.67 663.66 23.34 664.32 23 665 C18.56 664.58 15.66 662.69 12.06 660.25 C9.79 658.87 7.48 657.96 5 657 Z M182.75 668.5 C179.09 670.18 176.01 670 172 670 C170.99 670.99 169.99 671.99 169 673 C166.95 673.81 166.95 673.81 164.69 674.44 C160.57 675.71 157.55 677.53 154 680 C148.37 683.03 143.3 683.81 137 683 C136.3 682.62 135.6 682.25 134.88 681.86 C134.26 681.58 133.64 681.29 133 681 C131.42 682.01 129.84 683.02 128.27 684.05 C125.18 685.34 122.58 685.2 119.25 685.13 C118.08 685.11 116.91 685.09 115.7 685.07 C114.81 685.05 113.92 685.03 113 685 C110.85 714.85 110.85 714.85 120 742 C121.26 739.48 120.89 738.2 120.5 735.44 C120.29 733.96 120.12 732.48 120 731 C120.5 730.5 120.5 730.5 121 730 C121.46 730.75 121.92 731.5 122.39 732.27 C123 733.25 123.62 734.24 124.25 735.25 C124.85 736.22 125.46 737.2 126.08 738.2 C127.88 740.82 129.59 742.94 132 745 C134.57 745.24 134.57 745.24 137 744 C139.87 741.21 141.29 738.46 142.62 734.75 C144 731 144 731 146 730 C146.12 730.76 146.24 731.52 146.37 732.3 C146.62 733.79 146.62 733.79 146.88 735.31 C147.12 736.79 147.12 736.79 147.37 738.3 C147.88 741.2 147.88 741.2 150 744 C150.66 744 151.32 744 152 744 C155.57 737.77 157.76 733.24 157 726 C156.67 725.01 156.34 724.02 156 723 C159 724 159 724 160.12 726.2 C161.02 729.07 161.63 731.85 162.12 734.81 C162.29 735.79 162.46 736.76 162.63 737.77 C162.75 738.51 162.88 739.24 163 740 C167.48 736.67 170.14 733.58 172.82 728.67 C174 727 174 727 177 726 C176.98 726.63 176.95 727.25 176.93 727.9 C176.91 728.72 176.89 729.53 176.88 730.38 C176.85 731.19 176.83 732 176.8 732.84 C176.79 735.21 176.79 735.21 179 737 C179.79 734.22 180.12 731.77 180.1 728.89 C180.09 728.14 180.09 727.38 180.09 726.61 C180.08 725.83 180.07 725.05 180.06 724.25 C180.06 723.46 180.05 722.66 180.05 721.85 C180.04 719.9 180.02 717.95 180 716 C180.99 716 181.98 716 183 716 C183.12 716.78 183.25 717.57 183.38 718.38 C183.79 721.14 183.79 721.14 186 723 C188.68 695.05 188.68 695.05 189 667 C185.86 666.79 185.86 666.79 182.75 668.5 Z M257 710 C255.76 712.02 254.61 714.08 253.45 716.15 C251.74 718.34 250.7 718.64 248 719 C247.34 717.68 246.68 716.36 246 715 C243.03 716.37 240.7 717.98 238.19 720.06 C234.38 723 231.76 723.8 227 724 C227 722.02 227 720.04 227 718 C224.36 718.33 221.72 718.66 219 719 C218.67 718.01 218.34 717.02 218 716 C215.84 717.75 215.84 717.75 215.75 719.83 C215.75 720.58 215.76 721.32 215.76 722.09 C215.75 722.93 215.75 723.78 215.75 724.65 C215.75 725.57 215.76 726.49 215.77 727.44 C215.77 728.4 215.77 729.35 215.77 730.34 C215.77 732.37 215.78 734.41 215.79 736.44 C215.81 739.5 215.81 742.55 215.81 745.61 C214.72 767.46 214.72 767.46 220 788 C220.99 788.33 221.98 788.66 223 789 C222.67 786.69 222.34 784.38 222 782 C222.99 781.51 222.99 781.51 224 781 C223.5 778.53 223.5 778.53 223 776 C224.49 775.51 224.49 775.51 226 775 C226.05 775.99 226.1 776.97 226.15 777.99 C226.22 779.27 226.3 780.55 226.38 781.88 C226.44 783.15 226.51 784.43 226.59 785.74 C226.67 789.08 226.67 789.08 229 791 C231.49 791.23 233.83 791.32 236.31 791.31 C238.29 791.34 238.29 791.34 240.3 791.36 C244.15 790.99 246.02 790.41 249 788 C250.63 785.25 251.17 782.08 252 779 C252.31 777.87 252.62 776.73 252.94 775.57 C255.3 766.57 256.96 757.7 258.01 748.46 C258.25 746.37 258.51 744.27 258.77 742.18 C260.97 725.88 260.97 725.88 258 710 C257.67 710 257.34 710 257 710 Z M340 724 C339.01 725.98 338.02 727.96 337 730 C331.46 729.38 331.46 729.38 329.12 727.44 C328.75 726.96 328.38 726.49 328 726 C325.41 727.19 323.37 728.47 321.06 730.19 C318 732 318 732 315.31 731.81 C314.17 731.41 314.17 731.41 313 731 C310.04 729.63 310.04 729.63 307.5 731.19 C304.97 733.02 303.43 734.22 302 737 C303.17 748.8 311.83 760.12 317.85 770.08 C318.81 771.68 319.76 773.29 320.71 774.9 C326.33 784.15 333.23 792.56 340 801 C340.73 801.91 340.73 801.91 341.47 802.84 C343.86 805.86 343.86 805.86 347 808 C348.87 808.07 350.75 808.08 352.62 808.06 C353.63 808.05 354.63 808.04 355.66 808.04 C356.43 808.02 357.21 808.01 358 808 C357.67 807.34 357.34 806.68 357 806 C356.34 806 355.68 806 355 806 C354.75 805.15 354.5 804.31 354.25 803.44 C353.29 800.78 352.36 798.76 350.94 796.38 C349.42 793.74 348.47 791.94 348 789 C352.17 792.79 355.11 796.96 358.16 801.7 C360.25 804.32 361.91 805.68 365 807 C369.34 806.17 373.07 803.66 376.62 801.12 C378.27 799.05 378.27 799.05 377.84 796.33 C376.83 792.33 375.03 789.12 372.94 785.62 C366.3 774.17 360.49 762.46 355.37 750.25 C353.71 746.31 351.95 742.43 350.16 738.54 C349.39 736.85 348.63 735.14 347.91 733.43 C347.57 732.63 347.23 731.82 346.88 731 C346.44 729.95 346.44 729.95 345.99 728.88 C344.9 726.82 343.79 725.48 342 724 C341.34 724 340.68 724 340 724 Z M62 729 C63 733 63 733 63 733 Z M53 737 C52.81 737.68 52.61 738.35 52.41 739.05 C52.15 739.94 51.89 740.83 51.62 741.75 C51.24 743.07 51.24 743.07 50.85 744.42 C50.08 746.76 49.16 748.83 48 751 C47.39 750.9 46.77 750.81 46.14 750.71 C45.33 750.6 44.52 750.49 43.69 750.38 C42.89 750.26 42.09 750.14 41.26 750.02 C38.71 749.78 38.71 749.78 36 752 C35.38 751.34 34.76 750.68 34.12 750 C32.24 747.77 32.24 747.77 30 748 C29.67 748.66 29.34 749.32 29 750 C26 749 26 749 24.83 747.15 C24.5 746.42 24.16 745.69 23.81 744.94 C23.3 743.84 23.3 743.84 22.77 742.71 C22.52 742.15 22.26 741.58 22 741 C21.67 741 21.34 741 21 741 C20.99 742.04 20.99 742.04 20.98 743.11 C20.9 749.73 20.81 756.34 20.71 762.96 C20.66 766.36 20.62 769.76 20.58 773.16 C20.53 777.09 20.47 781.02 20.41 784.95 C20.4 786.14 20.39 787.34 20.38 788.57 C20.24 796.87 19.35 804.81 18 813 C22.08 811.7 22.08 811.7 26 810 C26.25 811.03 26.5 812.06 26.75 813.12 C27.84 817.01 29.63 819.76 32 823 C32.62 822.69 33.24 822.38 33.88 822.06 C35.25 821.38 36.62 820.69 38 820 C38.33 821.65 38.66 823.3 39 825 C40.13 824.09 41.26 823.17 42.38 822.25 C43 821.74 43.63 821.23 44.27 820.7 C46.09 818.91 46.9 817.27 48 815 C48.99 814.51 48.99 814.51 50 814 C50.33 815.32 50.66 816.64 51 818 C52.54 816.63 52.54 816.63 54 815 C54 814.34 54 813.68 54 813 C54.99 813 55.98 813 57 813 C57.33 813.99 57.66 814.98 58 816 C59.32 814.02 60.64 812.04 62 810 C63.32 811.32 64.64 812.64 66 814 C72.4 807.6 70.46 790.5 70.63 781.86 C70.69 779.27 70.76 776.67 70.83 774.08 C71.04 765.9 71.09 757.72 70.77 749.55 C70.75 748.86 70.74 748.17 70.72 747.45 C70.48 742.78 69.23 740.35 66 737 C65.48 737.31 64.97 737.62 64.44 737.94 C61.33 739.29 58.35 739.61 55 740 C54.5 738.51 54.5 738.51 54 737 C53.67 737 53.34 737 53 737 Z M171 739 C170.13 740.21 170.13 740.21 169.25 741.44 C167 744 167 744 163.94 745 C161 745 161 745 159.12 743.56 C158.57 742.79 158.57 742.79 158 742 C157.3 742.99 156.6 743.98 155.88 745 C153.67 747.69 153.36 747.96 149.69 748.38 C148.8 748.25 147.91 748.13 147 748 C146.34 746.68 145.68 745.36 145 744 C144.01 744 143.02 744 142 744 C141.22 744.99 140.43 745.98 139.62 747 C137 750 137 750 134.5 750.62 C131.29 749.82 129.51 748.1 127 746 C126.97 751.9 126.96 757.8 126.95 763.7 C126.94 765.7 126.93 767.69 126.92 769.69 C126.88 780.24 126.93 790.78 127.38 801.33 C127.41 802.18 127.44 803.02 127.47 803.9 C127.53 808.42 127.53 808.42 130 812 C130 811.34 130 810.68 130 810 C130.58 810.47 131.15 810.95 131.75 811.44 C133.85 813.09 133.85 813.09 136.06 813.5 C138.45 814.12 139.33 815.25 141 817 C141.66 817 142.32 817 143 817 C143 817.66 143 818.32 143 819 C143.66 819 144.32 819 145 819 C145.33 819.99 145.66 820.98 146 822 C150.31 823.34 153.48 824 158 824 C158 822.35 158 820.7 158 819 C159.65 819.33 161.3 819.66 163 820 C163.99 817.36 164.98 814.72 166 812 C166.66 812 167.32 812 168 812 C168.99 813.49 168.99 813.49 170 815 C170.66 815 171.32 815 172 815 C172 813.02 172 811.04 172 809 C175.88 812.75 175.88 812.75 177 815 C177.66 815 178.32 815 179 815 C178.86 813.76 178.71 812.53 178.56 811.25 C178.48 810.55 178.4 809.86 178.32 809.14 C178.05 807.05 178.05 807.05 177.51 805.26 C174.42 791.64 175.7 776.24 175.52 762.35 C175.48 759.43 175.43 756.51 175.38 753.59 C175.37 752.7 175.36 751.81 175.35 750.89 C175.27 746.5 175.05 743 173 739 C172.34 739 171.68 739 171 739 Z M60 818 C59.01 819.49 59.01 819.49 58 821 C56.33 821 54.67 821 53 821 C51.98 821.98 50.99 822.99 50 824 C48.17 825.06 48.17 825.06 46.19 826 C45.49 826.34 44.79 826.68 44.07 827.04 C42.27 827.87 40.45 828.66 38.62 829.44 C35.91 830.78 35.91 830.78 34.69 833.12 C33.75 837.05 33.33 840.98 33 845 C35.06 845.05 37.12 845.09 39.19 845.12 C40.34 845.15 41.48 845.17 42.67 845.2 C47.4 844.92 50.03 843.9 53.5 840.69 C58.41 834.38 61.42 825.95 61 818 C60.67 818 60.34 818 60 818 Z M132 818 C131.56 826.22 132.04 834.24 135 842 C139.23 845.63 144.59 845.61 150 846 C149.58 843.25 149.14 840.5 148.69 837.75 C148.57 836.97 148.45 836.2 148.33 835.39 C147.39 829.64 147.39 829.64 144 825 C143.34 825 142.68 825 142 825 C141.34 823.68 140.68 822.36 140 821 C138.68 821 137.36 821 136 821 C135.34 820.01 134.68 819.02 134 818 C133.34 818 132.68 818 132 818 Z M20 819 C16.07 826.16 12 834.71 12 843 C16.78 844.56 20.92 845.68 26 845 C29.62 841 31.07 834.84 30.94 829.5 C29.49 825.65 27.73 822.1 25 819 C22.28 818.33 22.28 818.33 20 819 Z M169 819 C168.59 819.8 168.17 820.61 167.75 821.44 C166 824 166 824 164 824.62 C163.34 824.75 162.68 824.87 162 825 C161.59 825.52 161.17 826.03 160.75 826.56 C157.83 828.97 154.68 828.18 151 828 C153.13 837.24 153.13 837.24 158.91 844.3 C167.18 847.08 176.18 845.24 184 842 C182.22 835.25 180.3 828.59 178 822 C177.26 821.88 176.51 821.75 175.75 821.62 C173.2 821.05 171.27 820.26 169 819 Z " fill="#000000" transform="translate(508,279)"/>
<path d="M0 0 C-1.56 4.22 -4.59 6.23 -8 9 C-10.06 12.09 -10.24 12.71 -10.12 16.19 C-10.08 17.45 -10.04 18.7 -10 20 C-9.41 19.89 -8.82 19.79 -8.21 19.68 C-1.78 18.7 -1.78 18.7 1.75 20.06 C3.67 21.72 4.98 23.2 6.5 25.19 C8.7 28.12 8.7 28.12 11.5 28.88 C15.13 27.6 16.1 25.14 17.89 21.85 C19 20 19 20 21 19 C24.84 18.83 28.27 19.12 32 20 C33.48 16.87 33.48 16.87 34 13 C31.93 8.17 28.08 5.14 24 2 C24 1.34 24 0.68 24 0 C30.74 1.64 35.15 5.29 39 10.94 C40.27 14.84 40.15 17.06 39 21 C35.86 25.04 33.01 26.96 28 28 C26.32 27.71 24.66 27.39 23 27 C21.68 28.58 20.37 30.16 19.06 31.75 C18.33 32.63 17.6 33.51 16.85 34.42 C13.21 39.5 13.58 44.81 14.38 50.88 C14.58 51.58 14.79 52.28 15 53 C19.17 55.09 23.32 54.21 27.62 52.88 C35.44 48.53 37.4 42.16 40 34 C40.66 34 41.32 34 42 34 C42.7 41.63 42.48 46.9 37.72 53.09 C34.29 56.9 31.2 60.05 26 61 C22.39 61.06 18.8 61.02 15.2 60.96 C11.6 60.92 8.47 61.1 5 62 C-3.14 62.69 -8.57 60.26 -15.31 55.81 C-19.81 51.11 -22.23 46 -22.25 39.44 C-22.17 38.3 -22.09 37.17 -22 36 C-20.51 35.5 -20.51 35.5 -19 35 C-18.86 35.63 -18.73 36.26 -18.59 36.91 C-16.89 43.65 -14.41 48.51 -9 53 C-3.32 55.52 0.41 55 7 55 C7 48.4 7 41.8 7 35 C5.68 34.34 4.36 33.68 3 33 C2.65 32.15 2.3 31.31 1.94 30.44 C0.25 27.75 0.25 27.75 -2.49 27.59 C-4.46 27.49 -6.43 27.39 -8.39 27.3 C-11 27 -11 27 -13.62 25.06 C-16.25 21.12 -16.61 17.67 -16 13 C-13.09 7.19 -6.96 0 0 0 Z " fill="#000000" transform="translate(603,478)"/>
<path d="M0 0 C-1.33 3.08 -2.61 4.67 -5.31 6.62 C-12.45 12.58 -14.66 20.73 -15.79 29.69 C-16.12 34.87 -15.69 39.86 -15 45 C-14.9 45.76 -14.8 46.52 -14.7 47.3 C-14.49 48.87 -14.25 50.44 -14 52 C-14.66 52 -15.32 52 -16 52 C-16.65 50.44 -17.3 48.88 -17.94 47.31 C-18.3 46.44 -18.66 45.57 -19.03 44.68 C-22.11 36.21 -21.99 26.5 -19 18 C-17.55 15.16 -15.84 12.6 -14 10 C-13.58 9.36 -13.17 8.71 -12.74 8.05 C-9.31 2.89 -6.53 0 0 0 Z " fill="#000000" transform="translate(505,851)"/>
<path d="M0 0 C0.99 0 1.98 0 3 0 C2.86 0.59 2.72 1.18 2.57 1.79 C1.1 8.41 0.7 14.67 0.75 21.44 C0.74 22.4 0.73 23.36 0.73 24.35 C0.74 30.3 1.37 35.8 2.67 41.61 C3.01 44.08 2.78 45.65 2 48 C-3.78 38.9 -4.29 29.72 -4.38 19.19 C-4.4 17.7 -4.4 17.7 -4.42 16.19 C-4.38 10.53 -4.3 4.3 0 0 Z " fill="#000000" transform="translate(764,834)"/>
<path d="M0 0 C0.99 0.33 1.98 0.66 3 1 C3.33 2.98 3.66 4.96 4 7 C4.99 6.67 5.98 6.34 7 6 C7 12.6 7 19.2 7 26 C6.01 26 5.02 26 4 26 C3.67 25.01 3.34 24.02 3 23 C2.36 23.99 1.72 24.98 1.06 26 C0.38 26.99 -0.3 27.98 -1 29 C-1.33 29 -1.66 29 -2 29 C-2.28 19.07 -1.54 9.8 0 0 Z " fill="#000000" transform="translate(563,763)"/>
<path d="M0 0 C3 2 3 2 3.84 5.24 C4.07 6.59 4.29 7.95 4.5 9.31 C4.75 10.77 5 12.23 5.26 13.7 C5.38 14.42 5.51 15.15 5.63 15.9 C7.19 24.8 9.54 32.92 13.11 41.22 C14.02 44.08 14.08 45.26 13 48 C4.58 34.44 -0.35 18.97 -1 3 C-0.67 2.01 -0.34 1.02 0 0 Z " fill="#000000" transform="translate(613,602)"/>
<path d="M0 0 C0.66 0 1.32 0 2 0 C1.57 3.48 0.85 6.57 -0.44 9.81 C-3.51 17.71 -4.29 25.13 -4.12 33.56 C-4.11 34.93 -4.11 34.93 -4.1 36.33 C-4.07 38.55 -4.04 40.78 -4 43 C-4.66 43 -5.32 43 -6 43 C-8.34 38.36 -8.39 34.09 -8.38 29 C-8.37 28.16 -8.37 27.32 -8.37 26.45 C-8.19 17.01 -6.3 7.35 0 0 Z " fill="#000000" transform="translate(525,804)"/>
<path d="M0 0 C3.65 1.17 5.32 3.32 7.05 6.67 C10.77 15.8 11.27 25.02 11.31 34.75 C11.32 35.73 11.32 36.7 11.33 37.71 C11.26 44.74 11.26 44.74 9 47 C8.9 45.74 8.8 44.48 8.7 43.19 C7.67 30.99 6.48 18.59 1.37 7.3 C0 4 0 4 0 0 Z " fill="#000000" transform="translate(850,711)"/>
<path d="M0 0 C8.89 8.41 12.04 18.97 13 31 C12.96 36.35 12.5 41.68 12 47 C11.34 46.67 10.68 46.34 10 46 C9.67 43.01 9.44 40.06 9.25 37.06 C8.37 26.13 6.13 14.63 0.25 5.18 C-0.17 4.46 -0.58 3.74 -1 3 C-0.67 2.01 -0.34 1.02 0 0 Z " fill="#000000" transform="translate(861,723)"/>
<path d="M0 0 C0.99 0.33 1.98 0.66 3 1 C2.87 1.59 2.73 2.18 2.6 2.78 C0.97 10.35 0.33 17.86 -0.21 25.58 C-0.29 26.52 -0.36 27.47 -0.44 28.44 C-0.5 29.29 -0.56 30.15 -0.62 31.03 C-0.75 31.68 -0.87 32.33 -1 33 C-1.99 33.5 -1.99 33.5 -3 34 C-4.9 30.21 -4.23 25.61 -4.25 21.44 C-4.27 20.47 -4.29 19.51 -4.31 18.51 C-4.35 12.19 -3.6 6.81 -1 1 C-0.67 0.67 -0.34 0.34 0 0 Z " fill="#000000" transform="translate(670,816)"/>
<path d="M0 0 C0.99 0 1.98 0 3 0 C6.52 5.78 5.73 13.39 4.43 19.82 C3.13 24.09 3.13 24.09 2 26 C1.01 26.33 0.02 26.66 -1 27 C-0.67 18.09 -0.34 9.18 0 0 Z " fill="#000000" transform="translate(685,777)"/>
<path d="M0 0 C3.88 1.75 3.88 1.75 5 4 C6.01 21.97 6.01 21.97 2 30 C-0.11 30.72 -0.11 30.72 -2 31 C-1.12 24.12 -1.12 24.12 0 23 C1.17 15.24 0.99 7.76 0 0 Z " fill="#000000" transform="translate(674,961)"/>
<path d="M0 0 C0.66 0 1.32 0 2 0 C1.34 4.49 0.27 8.71 -1 13.06 C-2.95 20.01 -3.76 26.78 -4 34 C-4.99 33.34 -5.98 32.68 -7 32 C-8.59 20.8 -6.47 9.4 0 0 Z " fill="#000000" transform="translate(520,598)"/>
<path d="M0 0 C0.66 0 1.32 0 2 0 C1.23 5.51 1.23 5.51 0.03 8.06 C-1.49 12.39 -1.73 16.76 -2.12 21.31 C-2.21 22.24 -2.3 23.18 -2.39 24.13 C-2.6 26.42 -2.8 28.71 -3 31 C-3.99 30.67 -4.98 30.34 -6 30 C-7.47 19.36 -7.49 10.82 -1.44 1.62 C-0.96 1.09 -0.49 0.55 0 0 Z " fill="#000000" transform="translate(528,614)"/>
<path d="M0 0 C2.36 2.36 2.26 2.87 2.34 6.07 C2.37 6.88 2.4 7.7 2.43 8.54 C2.46 9.39 2.48 10.25 2.5 11.12 C2.67 17.4 3.27 22.95 5 29 C4.01 29 3.02 29 2 29 C-1.5 22.95 -2.59 18.63 -2.38 11.69 C-2.37 10.89 -2.37 10.09 -2.37 9.27 C-2.31 5.37 -2.21 3.31 0 0 Z " fill="#000000" transform="translate(801,936)"/>
<path d="M0 0 C0.99 0.33 1.98 0.66 3 1 C7.48 10.13 8.76 22.95 8 33 C7.34 33.99 6.68 34.98 6 36 C4.56 28.89 3.19 21.76 1.88 14.62 C1.69 13.65 1.51 12.68 1.32 11.68 C1.15 10.75 0.98 9.81 0.8 8.85 C0.65 8.01 0.49 7.18 0.34 6.31 C0 4 0 4 0 0 Z " fill="#000000" transform="translate(828,791)"/>
<path d="M0 0 C0.99 0.33 1.98 0.66 3 1 C5.07 7.04 5.25 12.66 5.12 19 C5.12 19.87 5.11 20.74 5.1 21.64 C5.07 23.76 5.04 25.88 5 28 C4.34 28.33 3.68 28.66 3 29 C-0.44 9.03 -0.44 9.03 0 0 Z " fill="#000000" transform="translate(764,769)"/>
<path d="M0 0 C2.85 1.59 5.27 3.23 7.75 5.38 C11.45 8.57 15.68 10.75 20 13 C20 13.66 20 14.32 20 15 C12.5 14.67 8.01 13.17 2.69 7.56 C0.96 4.94 0.35 3.09 0 0 Z " fill="#000000" transform="translate(532,469)"/>
<path d="M0 0 C5.16 5.16 5.15 7.37 5.19 14.44 C5.2 15.55 5.22 16.66 5.23 17.81 C5 21 4.46 23.17 3 26 C2.34 26.33 1.68 26.66 1 27 C0.67 18.09 0.34 9.18 0 0 Z " fill="#000000" transform="translate(682,961)"/>
<path d="M0 0 C0.66 0.33 1.32 0.66 2 1 C1 10 0 19 -1 28 C-1.66 28 -2.32 28 -3 28 C-6.55 20.9 -3.94 10.25 -1.75 3.01 C-1 1 -1 1 0 0 Z " fill="#000000" transform="translate(580,853)"/>
<path d="M0 0 C2.02 1.66 2.92 2.55 3.4 5.16 C3.44 7.86 3.46 10.55 3.44 13.25 C3.46 14.18 3.48 15.11 3.5 16.07 C3.49 22.25 2.55 25.91 -1 31 C-1.33 31 -1.66 31 -2 31 C-2.12 23.25 -2.12 23.25 -1 21 C-0.85 19.41 -0.75 17.81 -0.68 16.21 C-0.64 15.27 -0.6 14.33 -0.56 13.36 C-0.52 12.37 -0.48 11.39 -0.44 10.38 C-0.39 9.38 -0.35 8.39 -0.31 7.37 C-0.2 4.91 -0.1 2.46 0 0 Z " fill="#000000" transform="translate(824,806)"/>
<path d="M0 0 C0.99 0 1.98 0 3 0 C3.67 3.39 4.34 6.79 5 10.19 C5.29 11.63 5.29 11.63 5.58 13.1 C5.85 14.49 5.85 14.49 6.12 15.92 C6.29 16.77 6.46 17.63 6.63 18.5 C7.01 21.04 7.06 23.44 7 26 C2.26 22.41 1.03 17.63 0 12 C-0.22 7.98 -0.19 4.02 0 0 Z " fill="#000000" transform="translate(634,974)"/>
<path d="M0 0 C0.66 0.33 1.32 0.66 2 1 C2.04 2.18 2.07 3.37 2.11 4.59 C2.44 13.09 2.8 21 6 29 C1.4 27.67 1.4 27.67 -0.15 25.05 C-1.38 20.63 -1.25 16.38 -1.19 11.81 C-1.19 10.9 -1.19 9.98 -1.19 9.04 C-1.14 2.28 -1.14 2.28 0 0 Z " fill="#000000" transform="translate(535,962)"/>
<path d="M0 0 C5.5 2.43 8.11 6.95 11 12 C12.14 15.42 12.1 18.09 12.06 21.69 C12.05 22.87 12.04 24.05 12.04 25.26 C12.02 26.17 12.01 27.07 12 28 C11.34 27.67 10.68 27.34 10 27 C9.51 25.04 9.11 23.05 8.75 21.06 C7.51 15.27 5.62 11 2.3 6.12 C1.03 4.04 0.44 2.38 0 0 Z " fill="#000000" transform="translate(667,708)"/>
<path d="M0 0 C-0.2 1.85 -0.2 1.85 -1 4 C-3.14 5.31 -3.14 5.31 -5.81 6.44 C-10.04 8.4 -12.37 10.06 -15 14 C-16.31 15.35 -17.64 16.69 -19 18 C-20 15 -20 15 -19.03 12.91 C-14.23 5.74 -9.24 0 0 0 Z " fill="#000000" transform="translate(570,365)"/>
<path d="M0 0 C1.86 0.25 1.86 0.25 4 1 C8.14 6.61 8.82 13.25 8 20 C7 23.12 7 23.12 6 25 C5.01 24.67 4.02 24.34 3 24 C3.03 23.11 3.07 22.21 3.11 21.29 C3.28 13.61 2.78 7.19 0 0 Z " fill="#000000" transform="translate(694,864)"/>
<path d="M0 0 C0.66 0 1.32 0 2 0 C2.33 8.58 2.66 17.16 3 26 C2.34 26 1.68 26 1 26 C-1.88 18.41 -2.88 11.11 -2 3 C-1.34 2.01 -0.68 1.02 0 0 Z " fill="#000000" transform="translate(561,828)"/>
<path d="M0 0 C0.33 0 0.66 0 1 0 C1.04 1.02 1.07 2.03 1.11 3.08 C1.5 11.72 2.49 19.67 5 28 C-0.02 23.66 -2.46 19.35 -3.29 12.7 C-3.48 7.7 -2.67 4.34 0 0 Z " fill="#000000" transform="translate(531,825)"/>
<path d="M0 0 C0.33 0 0.66 0 1 0 C1 9.24 1 18.48 1 28 C-1 27 -1 27 -1.85 25.03 C-4.56 16.17 -5.36 9.36 -1 1 C-0.67 0.67 -0.34 0.34 0 0 Z " fill="#000000" transform="translate(571,835)"/>
<path d="M0 0 C0.66 0 1.32 0 2 0 C3.25 2.5 3.11 4.21 3.1 7.01 C3.09 7.99 3.09 8.98 3.09 10 C3.08 11.03 3.07 12.06 3.06 13.12 C3.06 14.17 3.05 15.21 3.05 16.28 C3.04 18.85 3.02 21.43 3 24 C2.01 23.67 1.02 23.34 0 23 C-1.16 20.68 -1.13 19.3 -1.13 16.72 C-1.13 15.88 -1.14 15.04 -1.14 14.17 C-1.13 13.29 -1.13 12.41 -1.12 11.5 C-1.13 10.62 -1.13 9.74 -1.14 8.83 C-1.14 7.99 -1.13 7.15 -1.13 6.28 C-1.13 5.51 -1.13 4.74 -1.13 3.94 C-1 2 -1 2 0 0 Z " fill="#000000" transform="translate(574,782)"/>
<path d="M0 0 C0.66 0 1.32 0 2 0 C1.69 2.88 1.38 5.75 1.06 8.62 C0.98 9.43 0.89 10.24 0.8 11.07 C0.32 15.41 -0.23 19.7 -1 24 C-1.66 24 -2.32 24 -3 24 C-4.52 20.97 -4.21 18.12 -4.25 14.75 C-4.28 13.45 -4.3 12.14 -4.33 10.8 C-3.97 6.66 -3.03 3.03 0 0 Z " fill="#000000" transform="translate(575,633)"/>
<path d="M0 0 C0.66 0 1.32 0 2 0 C4.96 8.33 4.96 16.67 2 25 C1.01 25 0.02 25 -1 25 C-0.67 16.75 -0.34 8.5 0 0 Z " fill="#000000" transform="translate(818,737)"/>
<path d="M0 0 C0.66 0 1.32 0 2 0 C3.23 2.46 3.21 4.26 3.32 7.01 C3.36 7.99 3.4 8.98 3.44 10 C3.48 11.03 3.52 12.06 3.56 13.12 C3.61 14.17 3.65 15.21 3.69 16.28 C3.8 18.85 3.9 21.43 4 24 C3.01 24 2.02 24 1 24 C-1.78 16.7 -2.48 7.44 0 0 Z " fill="#000000" transform="translate(534,628)"/>
<path d="M0 0 C-0.08 2.79 -0.56 4.52 -2.45 6.6 C-7.76 11.28 -11.78 13.34 -19 13 C-19 12.01 -19 11.02 -19 10 C-17.4 9.35 -15.79 8.71 -14.19 8.06 C-13.29 7.7 -12.4 7.34 -11.48 6.97 C-9.67 6.26 -7.84 5.61 -6 5 C-5.67 4.01 -5.34 3.02 -5 2 C-2 0 -2 0 0 0 Z " fill="#000000" transform="translate(683,473)"/>
<path d="M0 0 C0.66 0 1.32 0 2 0 C4.27 3.7 4.68 7.58 5.19 11.81 C5.28 12.5 5.38 13.19 5.47 13.89 C6.05 18.5 5.84 22.44 5 27 C4.34 27 3.68 27 3 27 C2.49 23.63 2 20.25 1.5 16.88 C1.36 15.92 1.21 14.97 1.07 13.99 C0.38 9.29 -0.19 4.77 0 0 Z " fill="#000000" transform="translate(640,751)"/>
<path d="M0 0 C0.66 0 1.32 0 2 0 C2 7.92 2 15.84 2 24 C1.34 24 0.68 24 0 24 C-3.15 15.72 -3.93 9.6 -1 1 C-0.67 0.67 -0.34 0.34 0 0 Z " fill="#000000" transform="translate(769,852)"/>
<path d="M0 0 C4.22 1.51 5.77 4.24 8 8 C9.14 11.42 9.1 14.09 9.06 17.69 C9.05 18.87 9.04 20.05 9.04 21.26 C9.02 22.17 9.01 23.07 9 24 C8.34 23.67 7.68 23.34 7 23 C6.47 21.17 6.02 19.31 5.62 17.44 C4.71 13.49 3.71 10.03 1.81 6.44 C0 3 0 3 0 0 Z " fill="#000000" transform="translate(709,810)"/>
<path d="M0 0 C-1.33 3.08 -2.63 4.7 -5.31 6.69 C-9.5 10.1 -11.68 14.19 -14 19 C-14.99 18.67 -15.98 18.34 -17 18 C-14.46 9.94 -9.48 0 0 0 Z " fill="#000000" transform="translate(531,531)"/>
<path d="M0 0 C0.66 0 1.32 0 2 0 C1.25 5.54 1.25 5.54 0.02 7.85 C-1.61 11.28 -1.88 14.91 -2.44 18.64 C-2.62 19.42 -2.81 20.2 -3 21 C-3.66 21.33 -4.32 21.66 -5 22 C-6.86 18.28 -6.44 14.06 -6 10 C-4.64 6.09 -2.93 2.93 0 0 Z " fill="#000000" transform="translate(509,715)"/>
<path d="M0 0 C0.99 0 1.98 0 3 0 C2.92 3.13 2.81 6.25 2.69 9.38 C2.66 10.26 2.64 11.15 2.62 12.07 C2.58 12.92 2.55 13.77 2.51 14.65 C2.49 15.43 2.46 16.22 2.43 17.03 C2 19 2 19 -1 21 C-2.18 17.45 -2.18 14.2 -2.19 10.5 C-2.2 9.82 -2.21 9.15 -2.22 8.45 C-2.24 4.74 -2.11 3.17 0 0 Z " fill="#000000" transform="translate(609,785)"/>
<path d="M0 0 C2.39 0.94 3.72 1.53 5.05 3.79 C7.62 12.12 7.27 20.37 7 29 C6.34 28.67 5.68 28.34 5 28 C4.6 25.48 4.3 23.03 4.06 20.5 C3.4 14.27 2.2 8.89 0 3 C0 2.01 0 1.02 0 0 Z " fill="#000000" transform="translate(673,659)"/>
<path d="M0 0 C5.14 4.17 6.9 8.51 8 15 C8.22 19.35 8.18 23.65 8 28 C5.21 25.21 5.24 22.74 4.56 18.88 C3.54 13.3 2.12 8.25 0 3 C0 2.01 0 1.02 0 0 Z " fill="#000000" transform="translate(835,931)"/>
<path d="M0 0 C0.66 0 1.32 0 2 0 C3.5 7.92 4.33 15.01 3 23 C2.34 22.67 1.68 22.34 1 22 C-0.81 15.12 -1.35 8.08 -1 1 C-0.67 0.67 -0.34 0.34 0 0 Z " fill="#000000" transform="translate(620,868)"/>
<path d="M0 0 C3 1 3 1 4.18 3.07 C5.19 6.69 5.22 10.09 5.12 13.81 C5.12 14.51 5.11 15.2 5.1 15.91 C5.07 17.61 5.04 19.3 5 21 C4.34 21.33 3.68 21.66 3 22 C1.38 16.95 0.66 12.4 0.38 7.06 C0.34 6.38 0.3 5.69 0.26 4.99 C0.16 3.33 0.08 1.66 0 0 Z " fill="#000000" transform="translate(855,807)"/>
<path d="M0 0 C0.66 0 1.32 0 2 0 C1.94 0.58 1.88 1.17 1.82 1.77 C1.13 8.5 0.55 15.25 0 22 C-0.99 22 -1.98 22 -3 22 C-3.08 19.27 -3.14 16.54 -3.19 13.81 C-3.21 13.04 -3.24 12.27 -3.26 11.48 C-3.32 6.85 -3.09 3.73 0 0 Z " fill="#000000" transform="translate(581,647)"/>
<path d="M0 0 C1.8 0.16 1.8 0.16 4 1 C8.57 7.63 10.98 15.07 12 23 C11.01 22.67 10.02 22.34 9 22 C7.75 19.34 7.75 19.34 6.56 15.94 C4.67 10.73 2.55 5.91 0 1 C0 0.67 0 0.34 0 0 Z " fill="#000000" transform="translate(681,595)"/>
<path d="M0 0 C7.65 2.71 13.79 7.05 17.5 14.44 C18 15.61 18.49 16.79 19 18 C18.01 18 17.02 18 16 18 C14.49 16.28 14.49 16.28 12.88 13.94 C9.65 9.55 6.15 6.54 1.72 3.41 C1.15 2.94 0.59 2.48 0 2 C0 1.34 0 0.68 0 0 Z " fill="#000000" transform="translate(657,360)"/>
<path d="M0 0 C2.33 0.93 3.72 1.57 5.11 3.7 C6.23 6.6 6.3 9.02 6.31 12.12 C6.33 13.18 6.35 14.23 6.36 15.32 C6.18 16.65 6.18 16.65 6 18 C5.01 18.66 4.02 19.32 3 20 C1.18 18.18 1.66 15.28 1.5 12.81 C1.22 8.48 0.78 4.28 0 0 Z " fill="#000000" transform="translate(678,537)"/>
<path d="M0 0 C0.99 0 1.98 0 3 0 C6.34 5.37 6.96 10.72 7 17 C6.67 17.99 6.34 18.98 6 20 C5.34 20 4.68 20 4 20 C3.33 17.42 2.66 14.83 2 12.25 C1.71 11.16 1.71 11.16 1.42 10.04 C0.53 6.55 0 3.62 0 0 Z " fill="#000000" transform="translate(751,940)"/>
<path d="M0 0 C3.54 3.06 4.8 5.5 6 10 C6.2 13.43 6.2 13.43 6.12 16.88 C6.11 18.03 6.09 19.18 6.07 20.37 C6.04 21.67 6.04 21.67 6 23 C5.01 22.67 4.02 22.34 3 22 C2.93 20.9 2.93 20.9 2.85 19.77 C2.78 18.79 2.7 17.82 2.62 16.81 C2.56 15.85 2.49 14.89 2.41 13.89 C2 10.98 1.12 8.71 0 6 C-0.12 2.69 -0.12 2.69 0 0 Z " fill="#000000" transform="translate(694,764)"/>
<path d="M0 0 C0.66 0 1.32 0 2 0 C1.27 4.88 0.16 9.6 -1.06 14.38 C-1.34 15.48 -1.34 15.48 -1.63 16.61 C-2.08 18.4 -2.54 20.2 -3 22 C-3.66 22 -4.32 22 -5 22 C-6.77 14.59 -4.8 8.59 -1.44 1.88 C-0.96 1.26 -0.49 0.64 0 0 Z " fill="#000000" transform="translate(547,574)"/>
<path d="M0 0 C3.76 1.47 3.76 1.47 4.83 3.81 C5.94 9.6 6.22 15.12 6 21 C5.34 21 4.68 21 4 21 C2.67 15.67 1.33 10.33 0 5 C-0.21 4.28 -0.41 3.56 -0.62 2.82 C-0.75 2.22 -0.87 1.62 -1 1 C-0.67 0.67 -0.34 0.34 0 0 Z " fill="#000000" transform="translate(862,805)"/>
<path d="M0 0 C0.66 0.66 1.32 1.32 2 2 C1.72 3.35 1.37 4.68 1 6 C0.73 9.79 0.56 13.58 0.38 17.37 C0.03 20.67 -0.58 23.03 -2 26 C-2.33 26 -2.66 26 -3 26 C-3.09 22.79 -3.14 19.58 -3.19 16.38 C-3.21 15.47 -3.24 14.57 -3.26 13.64 C-3.32 8.29 -2.95 4.66 0 0 Z " fill="#000000" transform="translate(533,685)"/>
<path d="M0 0 C5.43 3.83 8.09 7.61 10 14 C10.55 17.33 10.86 20.63 11 24 C10.34 24 9.68 24 9 24 C8.77 23.25 8.54 22.5 8.3 21.73 C6.31 15.49 4.05 9.73 0.95 3.96 C0 2 0 2 0 0 Z " fill="#000000" transform="translate(595,677)"/>
<path d="M0 0 C0.66 0 1.32 0 2 0 C1.34 6.6 0.68 13.2 0 20 C-0.99 19.67 -1.98 19.34 -3 19 C-3.93 12.78 -4.34 7.91 -2 2 C-1.34 1.34 -0.68 0.68 0 0 Z " fill="#000000" transform="translate(516,735)"/>
<path d="M0 0 C0.66 0 1.32 0 2 0 C2.96 4.51 2.94 8.2 2.25 12.75 C2.01 14.44 2.01 14.44 1.77 16.17 C1 19 1 19 -2 21 C-2.25 13.71 -1.72 7.09 0 0 Z " fill="#000000" transform="translate(639,868)"/>
<path d="M0 0 C4.27 3.71 5.96 6.44 7 12 C7.14 14.69 7.09 17.3 7 20 C3.74 18.37 3.1 14.92 1.81 11.69 C1.53 11.01 1.24 10.33 0.95 9.63 C-1.08 4.59 -1.08 4.59 -0.68 1.52 C-0.45 1.02 -0.23 0.52 0 0 Z " fill="#000000" transform="translate(703,809)"/>
<path d="M0 0 C3.15 3.41 3.43 5.92 3.44 10.5 C3.46 11.62 3.48 12.75 3.5 13.91 C2.91 17.56 1.83 18.71 -1 21 C-1.03 18.25 -1.05 15.5 -1.06 12.75 C-1.07 11.97 -1.08 11.2 -1.09 10.39 C-1.09 9.64 -1.09 8.89 -1.1 8.11 C-1.1 7.42 -1.11 6.73 -1.11 6.01 C-0.99 3.9 -0.58 2.03 0 0 Z " fill="#000000" transform="translate(635,808)"/>
<path d="M0 0 C-0.27 0.65 -0.54 1.31 -0.81 1.98 C-1.72 4.3 -2.59 6.61 -3.44 8.95 C-3.69 9.65 -3.95 10.36 -4.21 11.08 C-4.74 12.54 -5.27 14 -5.79 15.47 C-7.78 20.89 -7.78 20.89 -10 22 C-10.72 14.55 -8.57 8.54 -5 2 C-2 0 -2 0 0 0 Z " fill="#000000" transform="translate(517,585)"/>
<path d="M0 0 C3.85 1.64 5.32 3.53 7.12 7.36 C8.91 12.73 9.4 18.39 10 24 C9.34 24 8.68 24 8 24 C7.82 23.37 7.64 22.74 7.45 22.09 C6.03 17.26 4.51 12.52 2.7 7.83 C1.71 5.25 0.85 2.63 0 0 Z " fill="#000000" transform="translate(621,678)"/>
<path d="M0 0 C0.66 0 1.32 0 2 0 C2.4 6.41 1.81 11.17 -1 17 C-1.99 17.33 -2.98 17.66 -4 18 C-1.9 1.9 -1.9 1.9 0 0 Z " fill="#000000" transform="translate(637,564)"/>
<path d="M0 0 C0.99 0.33 1.98 0.66 3 1 C3.11 7.11 2.9 12.95 2 19 C-1.34 15.51 -2.03 11.7 -2 7 C-1.54 4.53 -0.84 2.38 0 0 Z " fill="#000000" transform="translate(627,977)"/>
<path d="M0 0 C0.66 0 1.32 0 2 0 C2.25 6.65 1.74 12.57 0 19 C-2.86 16.14 -2.7 13.55 -3.05 9.62 C-2.98 5.78 -1.82 3.35 0 0 Z " fill="#000000" transform="translate(525,963)"/>
<path d="M0 0 C0.66 0.33 1.32 0.66 2 1 C2.03 4.12 2.05 7.25 2.06 10.38 C2.07 11.26 2.08 12.15 2.09 13.07 C2.09 13.92 2.09 14.77 2.1 15.65 C2.1 16.43 2.11 17.22 2.11 18.03 C2 20 2 20 1 22 C0.34 22 -0.32 22 -1 22 C-1.03 18.52 -1.05 15.04 -1.06 11.56 C-1.07 10.57 -1.08 9.58 -1.09 8.55 C-1.09 7.61 -1.09 6.66 -1.1 5.69 C-1.1 4.82 -1.11 3.94 -1.11 3.04 C-1 1 -1 1 0 0 Z " fill="#000000" transform="translate(678,830)"/>
<path d="M0 0 C0.66 0 1.32 0 2 0 C1.89 2.94 1.76 5.88 1.62 8.81 C1.59 9.65 1.56 10.48 1.53 11.34 C1.49 12.14 1.45 12.94 1.41 13.77 C1.37 14.88 1.37 14.88 1.32 16.01 C1 18 1 18 -1 21 C-1.66 20.67 -2.32 20.34 -3 20 C-2.89 17.42 -2.76 14.83 -2.62 12.25 C-2.59 11.52 -2.56 10.79 -2.53 10.04 C-2.33 6.26 -2.08 3.22 0 0 Z " fill="#000000" transform="translate(614,725)"/>
<path d="M0 0 C-1.94 6.91 -7.96 12.16 -13 17 C-12.74 10.57 -10.57 7.44 -6 3 C-2.52 0 -2.52 0 0 0 Z " fill="#000000" transform="translate(556,365)"/>
<path d="M0 0 C3.08 0.3 3.91 0.89 5.92 3.33 C6.53 4.29 7.13 5.26 7.75 6.25 C8.67 7.68 8.67 7.68 9.61 9.14 C11.04 12.09 11.31 13.78 11 17 C5.82 12.58 2.97 7.07 0 1 C0 0.67 0 0.34 0 0 Z " fill="#000000" transform="translate(778,674)"/>
<path d="M0 0 C3.88 1.75 3.88 1.75 5 4 C5.07 6.21 5.08 8.42 5.06 10.62 C5.05 11.81 5.04 13 5.04 14.23 C5.02 15.14 5.01 16.06 5 17 C4.01 17.33 3.02 17.66 2 18 C1.94 17.29 1.88 16.57 1.82 15.84 C1.35 10.53 0.82 5.27 0 0 Z " fill="#000000" transform="translate(744,943)"/>
<path d="M0 0 C2.76 2.39 3.99 4.49 5 8 C5.16 10.69 5.09 13.3 5 16 C4.01 16.33 3.02 16.66 2 17 C1.49 15.27 0.99 13.54 0.5 11.81 C0.08 10.37 0.08 10.37 -0.34 8.89 C-0.97 6.13 -1.2 3.82 -1 1 C-0.67 0.67 -0.34 0.34 0 0 Z " fill="#000000" transform="translate(698,813)"/>
<path d="M0 0 C0.66 0 1.32 0 2 0 C3.11 3.32 3.32 6.2 3.56 9.69 C3.65 10.87 3.73 12.05 3.82 13.26 C3.88 14.17 3.94 15.07 4 16 C3.01 16 2.02 16 1 16 C-1.25 12.62 -1.25 11.39 -1.19 7.44 C-1.18 6.47 -1.17 5.5 -1.17 4.5 C-1 2 -1 2 0 0 Z " fill="#000000" transform="translate(560,590)"/>
<path d="M0 0 C2 2 2 2 2.15 3.85 C2.11 4.58 2.06 5.31 2.01 6.06 C1.96 6.86 1.92 7.66 1.87 8.48 C1.81 9.31 1.75 10.14 1.69 11 C1.64 11.83 1.59 12.67 1.54 13.52 C1.15 19.71 1.15 19.71 0 22 C-0.66 22 -1.32 22 -2 22 C-2.05 19.46 -2.09 16.92 -2.12 14.38 C-2.14 13.66 -2.16 12.95 -2.18 12.21 C-2.22 7.74 -1.69 4.22 0 0 Z " fill="#000000" transform="translate(551,698)"/>
<path d="M0 0 C2.49 0.38 3.71 0.69 5.45 2.57 C8.5 7.48 9.69 11.21 10 17 C9.34 17 8.68 17 8 17 C7.59 16.16 7.18 15.31 6.76 14.45 C6.22 13.35 5.68 12.25 5.12 11.12 C4.59 10.03 4.06 8.94 3.51 7.82 C2.15 4.96 2.15 4.96 0 3 C0 2.01 0 1.02 0 0 Z " fill="#000000" transform="translate(658,605)"/>
<path d="M0 0 C0.66 0 1.32 0 2 0 C2.66 5.94 3.32 11.88 4 18 C3.01 18 2.02 18 1 18 C-0.67 12.27 -1.56 6.99 -1 1 C-0.67 0.67 -0.34 0.34 0 0 Z " fill="#000000" transform="translate(787,938)"/>
<path d="M0 0 C1.94 1.31 1.94 1.31 4 4 C4.66 7.66 4.87 11.29 5 15 C3.68 15 2.36 15 1 15 C-0.32 10.04 -0.09 5.09 0 0 Z " fill="#000000" transform="translate(828,726)"/>
<path d="M0 0 C4.41 1.47 5.5 4.44 7.77 8.34 C9.42 11.9 9.5 14.16 9 18 C8.34 18 7.68 18 7 18 C5.83 15.38 4.66 12.75 3.5 10.12 C3.17 9.38 2.83 8.63 2.49 7.86 C2.17 7.15 1.86 6.43 1.53 5.7 C1.24 5.04 0.94 4.38 0.64 3.7 C0 2 0 2 0 0 Z " fill="#000000" transform="translate(753,684)"/>
<path d="M0 0 C4.23 1.57 6.43 4.38 9 8 C9.81 11.38 9.81 11.38 10 14 C6.4 12.55 4.85 10.79 2.75 7.56 C2.23 6.78 1.71 6 1.17 5.19 C0 3 0 3 0 0 Z " fill="#000000" transform="translate(816,657)"/>
<path d="M0 0 C3.37 1.4 5.04 2.92 7 6 C8.16 9.47 8.07 12.36 8 16 C7.34 16.33 6.68 16.66 6 17 C5.82 16.36 5.64 15.72 5.45 15.06 C3.94 9.86 2.25 4.93 0 0 Z " fill="#000000" transform="translate(714,753)"/>
<path d="M0 0 C4.86 2.05 6.72 5.38 9 10 C9.88 12.67 10.46 15.23 11 18 C10.34 18 9.68 18 9 18 C5.7 12.1 2.51 6.28 0 0 Z " fill="#000000" transform="translate(835,665)"/>
<path d="M0 0 C2.6 1.59 3.83 2.39 4.68 5.38 C4.74 6.24 4.81 7.11 4.88 8 C4.95 8.87 5.03 9.73 5.12 10.62 C5 13 5 13 3 16 C0.97 12.6 0.63 9.68 0.38 5.75 C0.3 4.67 0.23 3.59 0.15 2.48 C0.1 1.66 0.05 0.84 0 0 Z " fill="#000000" transform="translate(767,756)"/>
<path d="M0 0 C0.66 0 1.32 0 2 0 C2 5.28 2 10.56 2 16 C1.01 15.67 0.02 15.34 -1 15 C-2.02 9.21 -1.96 5.54 0 0 Z " fill="#000000" transform="translate(566,646)"/>
<path d="M0 0 C0.66 0 1.32 0 2 0 C3.91 3.27 4.36 5.99 4.62 9.75 C4.7 10.73 4.77 11.72 4.85 12.73 C4.93 13.86 4.93 13.86 5 15 C4.01 15 3.02 15 2 15 C1.66 13.25 1.33 11.5 1 9.75 C0.81 8.78 0.63 7.8 0.44 6.8 C0 4 0 4 0 0 Z " fill="#000000" transform="translate(822,727)"/>
<path d="M0 0 C0.66 0 1.32 0 2 0 C3.33 4 3.13 7.83 3 12 C2.67 12.66 2.34 13.32 2 14 C1.34 14 0.68 14 0 14 C-0.99 11.02 -1.13 8.98 -1.12 5.88 C-1.13 4.99 -1.13 4.1 -1.13 3.18 C-1 1 -1 1 0 0 Z " fill="#000000" transform="translate(560,649)"/>
<path d="M0 0 C3 1 3 1 4 3 C4.07 5.37 4.08 7.75 4.06 10.12 C4.05 11.41 4.04 12.69 4.04 14.01 C4.02 15 4.01 15.98 4 17 C3.34 16.67 2.68 16.34 2 16 C1.37 13.16 1.37 13.16 0.88 9.62 C0.71 8.46 0.54 7.3 0.37 6.1 C0 3 0 3 0 0 Z " fill="#000000" transform="translate(703,865)"/>
<path d="M0 0 C2.56 0.35 3.77 0.77 5.62 2.62 C8.13 6.95 9 11.03 9 16 C8.34 16 7.68 16 7 16 C6.66 15.18 6.32 14.36 5.98 13.52 C5.53 12.44 5.08 11.36 4.62 10.25 C4.18 9.18 3.74 8.12 3.29 7.02 C2.27 4.62 1.2 2.31 0 0 Z " fill="#000000" transform="translate(680,707)"/>
<path d="M0 0 C0.66 0 1.32 0 2 0 C1.41 4.86 0.21 8.67 -2 13 C-2.99 13.33 -3.98 13.66 -5 14 C-4.74 12.41 -4.47 10.83 -4.19 9.25 C-3.96 7.93 -3.96 7.93 -3.73 6.58 C-2.94 3.78 -1.97 2.13 0 0 Z " fill="#000000" transform="translate(505,650)"/>
<path d="M0 0 C3.18 0.94 4.71 1.6 6.69 4.31 C7.92 6.84 9.02 9.36 10 12 C9.01 12 8.02 12 7 12 C5.18 9.88 5.18 9.88 3.31 7.12 C2.38 5.77 2.38 5.77 1.43 4.38 C0 2 0 2 0 0 Z " fill="#000000" transform="translate(817,651)"/>
<path d="M0 0 C3.74 0.94 5.43 2.21 7.38 5.44 C9 9 9 9 8 12 C6.85 10.76 5.7 9.51 4.56 8.25 C3.92 7.55 3.29 6.86 2.63 6.14 C1.01 4.01 0.42 2.61 0 0 Z " fill="#000000" transform="translate(781,669)"/>
<path d="M0 0 C5.7 -0.46 8.55 0.4 13 4 C13.33 4.66 13.66 5.32 14 6 C8.95 5.37 4.7 3.87 0 2 C0 1.34 0 0.68 0 0 Z " fill="#000000" transform="translate(582,335)"/>
<path d="M0 0 C5.01 1.43 6.94 3.98 10 8 C8.2 8.67 8.2 8.67 6 9 C4.3 7.89 4.3 7.89 2.75 6.25 C1.97 5.45 1.97 5.45 1.17 4.64 C0 3 0 3 0 0 Z " fill="#000000" transform="translate(601,333)"/>
<path d="M0 0 C6.7 4.78 6.7 4.78 7.94 9.88 C7.96 10.91 7.98 11.94 8 13 C4.73 9.9 2.02 7.05 0 3 C0 2.01 0 1.02 0 0 Z " fill="#000000" transform="translate(665,603)"/>
<path d="M0 0 C3.55 1.87 5.67 3.13 7 7 C7 7.99 7 8.98 7 10 C5.19 9.88 5.19 9.88 3 9 C1.05 5.79 0 3.78 0 0 Z " fill="#000000" transform="translate(623,338)"/>
<path d="M0 0 C2.78 2.4 4.02 4.45 5 8 C5.16 11.34 5.12 14.66 5 18 C2.92 14.88 2.25 12.61 1.38 9 C0.98 7.42 0.98 7.42 0.59 5.81 C0 3 0 3 0 0 Z " fill="#000000" transform="translate(720,814)"/>
<path d="M0 0 C0.99 0.33 1.98 0.66 3 1 C2.67 4.3 2.34 7.6 2 11 C1.34 11 0.68 11 0 11 C-1.16 7.51 -1.14 4.66 -1 1 C-0.67 0.67 -0.34 0.34 0 0 Z " fill="#000000" transform="translate(556,546)"/>
<path d="M0 0 C2.62 1 3.77 1.54 5.05 4.09 C5.28 4.89 5.51 5.68 5.75 6.5 C5.99 7.29 6.23 8.09 6.48 8.91 C7 11 7 11 7 13 C6.34 13 5.68 13 5 13 C4.16 11.21 3.33 9.42 2.5 7.62 C1.8 6.13 1.8 6.13 1.09 4.6 C0 2 0 2 0 0 Z " fill="#000000" transform="translate(675,602)"/>
<path d="M0 0 C0.66 0 1.32 0 2 0 C2 4.62 2 9.24 2 14 C-1 11 -1 11 -1.25 7.56 C-1.06 4.85 -0.82 2.57 0 0 Z " fill="#000000" transform="translate(620,601)"/>
<path d="M0 0 C3.34 2.71 4.58 6.01 6 10 C6.19 13.44 6.19 13.44 6 16 C4 15 4 15 2.93 12.38 C2.58 11.31 2.23 10.23 1.88 9.12 C1.52 8.06 1.17 6.99 0.8 5.88 C0 3 0 3 0 0 Z " fill="#000000" transform="translate(827,939)"/>
<path d="M0 0 C0.66 0 1.32 0 2 0 C2.68 1.24 3.34 2.5 4 3.75 C4.56 4.79 4.56 4.79 5.12 5.86 C6 8 6 8 6 12 C5.34 12 4.68 12 4 12 C3.33 10.38 2.66 8.75 2 7.12 C1.63 6.22 1.26 5.32 0.88 4.38 C0 2 0 2 0 0 Z " fill="#000000" transform="translate(638,675)"/>
<path d="M0 0 C1.32 0.33 2.64 0.66 4 1 C4.69 3.81 4.69 3.81 5 7 C4.01 7.99 3.02 8.98 2 10 C1.34 6.7 0.68 3.4 0 0 Z " fill="#000000" transform="translate(663,557)"/>
<path d="M0 0 C0.66 0 1.32 0 2 0 C3.2 2.41 3.1 3.95 3.06 6.62 C3.05 7.44 3.04 8.26 3.04 9.1 C3.02 9.73 3.01 10.35 3 11 C2.01 10.67 1.02 10.34 0 10 C0 6.7 0 3.4 0 0 Z " fill="#000000" transform="translate(778,774)"/>
<path d="M0 0 C0.66 0 1.32 0 2 0 C4.23 4.33 3.92 7.28 3 12 C0.5 9.5 0.64 8.33 0.38 4.88 C0.3 3.96 0.23 3.05 0.15 2.12 C0.1 1.42 0.05 0.72 0 0 Z " fill="#000000" transform="translate(630,736)"/>
<path d="M0 0 C0.99 0.33 1.98 0.66 3 1 C3.37 6.54 3.37 6.54 1.5 8.88 C0.76 9.43 0.76 9.43 0 10 C-0.75 6.34 -1.24 3.58 0 0 Z " fill="#000000" transform="translate(559,707)"/>
<path d="M0 0 C4 3.49 5.63 5.65 6 11 C3 10 3 10 1.31 7.19 C0 4 0 4 0 0 Z " fill="#000000" transform="translate(609,682)"/>
<path d="M0 0 C1.49 0.99 1.49 0.99 3 2 C3.4 6.35 3.45 8.32 1 12 C-0.26 9.48 -0.1 7.69 -0.06 4.88 C-0.05 3.96 -0.04 3.05 -0.04 2.12 C-0.02 1.42 -0.01 0.72 0 0 Z " fill="#000000" transform="translate(840,793)"/>
<path d="M0 0 C0.66 0 1.32 0 2 0 C2 3.96 2 7.92 2 12 C1.34 12 0.68 12 0 12 C0 8.04 0 4.08 0 0 Z " fill="#000000" transform="translate(627,757)"/>
<path d="M0 0 C3.26 3.09 6.02 5.93 8 10 C7.67 10.66 7.34 11.32 7 12 C5.83 10.38 4.66 8.75 3.5 7.12 C2.85 6.22 2.2 5.32 1.53 4.38 C0 2 0 2 0 0 Z " fill="#000000" transform="translate(812,661)"/>
<path d="M0 0 C0.66 0 1.32 0 2 0 C2 3.96 2 7.92 2 12 C1.34 11.67 0.68 11.34 0 11 C0 7.37 0 3.74 0 0 Z " fill="#000000" transform="translate(786,780)"/>
<path d="M0 0 C-0.57 2.87 -0.86 3.86 -3 6 C-3.99 6 -4.98 6 -6 6 C-3.85 0 -3.85 0 0 0 Z " fill="#000000" transform="translate(619,568)"/>
<path d="M0 0 C0.66 0 1.32 0 2 0 C2.12 5.75 2.12 5.75 1 8 C0.34 8 -0.32 8 -1 8 C-1.12 2.25 -1.12 2.25 0 0 Z " fill="#000000" transform="translate(511,666)"/>
<path d="M0 0 C0.99 0.33 1.98 0.66 3 1 C3 2.98 3 4.96 3 7 C2.01 6.67 1.02 6.34 0 6 C0 4.02 0 2.04 0 0 Z " fill="#000000" transform="translate(627,608)"/>
<path d="M0 0 C3.17 1.58 4.73 2.45 6.31 5.69 C6.54 6.45 6.77 7.21 7 8 C5.83 7.05 4.66 6.09 3.5 5.12 C2.85 4.59 2.2 4.06 1.53 3.51 C1.03 3.01 0.52 2.51 0 2 C0 1.34 0 0.68 0 0 Z " fill="#000000" transform="translate(666,360)"/>
<path d="M0 0 C0.33 0 0.66 0 1 0 C1 2.97 1 5.94 1 9 C0.34 9 -0.32 9 -1 9 C-1.1 2.85 -1.1 2.85 -1 1 C-0.67 0.67 -0.34 0.34 0 0 Z " fill="#000000" transform="translate(568,591)"/>
<path d="M0 0 C1.32 0.33 2.64 0.66 4 1 C4.33 2.65 4.66 4.3 5 6 C3.06 5.25 3.06 5.25 1 4 C0.25 1.88 0.25 1.88 0 0 Z " fill="#000000" transform="translate(611,334)"/>
<path d="M0 0 C0.99 0 1.98 0 3 0 C1.93 2.92 1.22 4.78 -1 7 C-0.67 4.69 -0.34 2.38 0 0 Z " fill="#000000" transform="translate(527,547)"/>
<path d="M0 0 C0.99 0.5 0.99 0.5 2 1 C1.67 2.65 1.34 4.3 1 6 C0.67 6 0.34 6 0 6 C0 4.02 0 2.04 0 0 Z " fill="#000000" transform="translate(643,891)"/>
<path d="M0 0 C0.66 0 1.32 0 2 0 C2 1.98 2 3.96 2 6 C1.34 5.34 0.68 4.68 0 4 C0 2.68 0 1.36 0 0 Z " fill="#000000" transform="translate(671,679)"/>
<path d="M0 0 C0.66 1.32 1.32 2.64 2 4 C1.34 4.66 0.68 5.32 0 6 C0 4.02 0 2.04 0 0 Z " fill="#000000" transform="translate(631,881)"/>
<path d="M0 0 C0.66 0.66 1.32 1.32 2 2 C1.34 2.66 0.68 3.32 0 4 C0 2.68 0 1.36 0 0 Z " fill="#000000" transform="translate(583,567)"/>
<path d="M0 0 C0.66 0 1.32 0 2 0 C2 0.99 2 1.98 2 3 C1.34 3 0.68 3 0 3 C0 2.01 0 1.02 0 0 Z " fill="#000000" transform="translate(637,1085)"/>
<path d="" fill="#000000" transform="translate(0,0)"/>
</svg>
