<?xml version="1.0" encoding="UTF-8"?>
<!-- Generator: visioncortex VTracer 0.6.3 -->
<svg version="1.1" xmlns="http://www.w3.org/2000/svg" width="906" height="1280">
<path d="M0 0 C46.86 0 93.72 0 142 0 C137.98 28.16 133.95 56.31 129.76 84.44 C129.08 89.02 128.4 93.6 127.72 98.18 C127.55 99.35 127.37 100.52 127.19 101.73 C127.04 102.79 126.88 103.86 126.72 104.95 C126.58 105.88 126.44 106.81 126.29 107.77 C125.96 109.96 125.96 109.96 126 112 C126.76 112.23 127.51 112.46 128.29 112.7 C169.9 125.49 207.55 146.01 239.56 175.75 C241.63 177.66 243.73 179.49 245.88 181.31 C251.9 186.53 257.41 192.33 263 198 C264.49 196.82 264.49 196.82 266 195.62 C301.1 169.47 344.21 154.36 387 147 C388.1 146.8 389.2 146.6 390.33 146.39 C409.57 144.34 432.01 143.41 448 156 C454.58 162.01 459.39 169.99 460.18 179.02 C461.56 227.46 430.89 272.98 400 308 C399.23 308.88 398.46 309.76 397.67 310.66 C395.48 313.14 393.25 315.58 391 318 C390.23 318.83 389.47 319.67 388.68 320.52 C379.45 330.18 368.43 337.97 356 343 C355.01 343 354.02 343 353 343 C353.26 343.7 353.52 344.39 353.79 345.11 C369.77 388.04 381.99 434.11 382.2 480.2 C382.21 481.22 382.22 482.24 382.22 483.3 C382.24 486.57 382.25 489.85 382.25 493.12 C382.25 494.8 382.25 494.8 382.25 496.52 C382.24 512.88 381.89 528.86 379 545 C378.75 546.46 378.75 546.46 378.5 547.95 C374.56 570.42 368.2 592.55 358 613 C357.57 613.86 357.15 614.72 356.71 615.61 C351.41 626.17 345.96 636.43 339 646 C338.31 646.97 337.61 647.93 336.89 648.93 C324.82 665.39 311.17 680.73 295.07 693.36 C292.94 694.98 292.94 694.98 291 697 C291.68 698.02 292.36 699.04 293.05 700.09 C302.13 713.83 310.24 727.86 317.19 742.81 C317.57 743.62 317.95 744.42 318.34 745.25 C327.67 765.86 332.19 787.85 337.03 809.83 C338.04 814.37 339.05 818.91 340.07 823.45 C341.36 829.21 342.64 834.97 343.93 840.73 C347.22 855.53 350.55 870.32 353.91 885.1 C354.4 887.26 354.89 889.41 355.38 891.57 C358.24 904.2 358.24 904.2 361.11 916.82 C362.23 921.74 363.34 926.65 364.45 931.57 C364.86 933.39 365.28 935.2 365.69 937.02 C366.25 939.5 366.81 941.98 367.37 944.46 C367.54 945.18 367.71 945.91 367.88 946.66 C368.52 949.51 369 952.06 369 955 C408.04 945.85 448.1 932.79 470.67 896.95 C479.48 882.37 482.54 870.15 480.85 853.24 C480.71 851.72 480.57 850.2 480.43 848.68 C480.06 844.7 479.68 840.72 479.3 836.75 C478.68 830.37 478.08 824 477.5 817.62 C477.29 815.4 477.07 813.19 476.85 810.97 C476.72 809.6 476.6 808.24 476.47 806.87 C476.35 805.69 476.24 804.5 476.12 803.28 C476 799.98 476.21 797.2 477 794 C481.43 789.45 485.43 788.99 491.5 788.75 C495.46 788.82 497.97 789.24 501 792 C502.84 796.41 503.22 800.12 503.12 804.88 C503.1 806.6 503.1 806.6 503.07 808.37 C503.04 809.67 503.04 809.67 503 811 C503.66 811 504.32 811 505 811 C505.21 809.85 505.41 808.69 505.62 807.5 C506.69 802.74 508.22 798.2 509.88 793.62 C510.12 792.92 510.36 792.22 510.62 791.5 C512.07 787.59 513.23 784.98 517 783 C523.12 782.14 528.7 784 534 787 C536.42 789.29 536.95 790.66 537.44 793.97 C537.18 799.69 534.88 805.1 533 810.44 C532.43 812.11 532.43 812.11 531.84 813.81 C530.91 816.54 529.96 819.27 529 822 C530.29 820.73 531.57 819.45 532.86 818.18 C533.58 817.47 534.29 816.76 535.03 816.03 C537.13 813.93 537.13 813.93 539.25 811.12 C541.14 808.82 542.14 807.82 545 807 C551.09 806.88 554.03 809.27 558.3 813.21 C560.78 815.82 561.93 817.62 562.56 821.19 C561.74 826.77 558.87 829.06 555 833 C553.99 834.09 552.98 835.18 551.98 836.28 C545.05 843.84 537.92 851.18 530.59 858.37 C526.79 862.12 523.21 865.99 519.74 870.06 C518.02 871.97 516.21 873.67 514.31 875.41 C510.42 879.24 508.84 883.41 507.06 888.5 C500.16 906.86 490.49 921.65 477 936 C476.47 936.59 475.95 937.18 475.41 937.79 C465.94 947.98 453.23 955.65 441 962 C440.38 962.33 439.76 962.65 439.12 962.99 C421.08 972.33 396.6 983 376 983 C377.32 988.61 378.64 994.22 380 1000 C382.64 999.67 385.28 999.34 388 999 C407.07 997.9 426.3 999.33 442.87 1009.82 C445.59 1012.61 445.93 1014.12 446 1018 C443.69 1027.38 439.16 1036.33 435 1045 C435.69 1044.7 436.38 1044.4 437.09 1044.1 C440.25 1042.74 443.4 1041.4 446.56 1040.06 C447.65 1039.59 448.73 1039.13 449.85 1038.64 C463.24 1032.99 463.24 1032.99 468.69 1034.99 C471.72 1037.62 473.31 1040.62 475 1044.19 C475.34 1044.89 475.68 1045.6 476.04 1046.33 C489.44 1074.89 489.3 1107.57 478.73 1137.03 C472.86 1152.79 465.07 1167.26 454 1180 C452.95 1181.23 452.95 1181.23 451.89 1182.48 C433.11 1203.99 406.96 1220.93 378 1224 C352.34 1225.47 331.13 1220.6 311 1204 C309.99 1203.01 308.99 1202.01 308 1201 C307.99 1201.74 307.97 1202.48 307.96 1203.24 C306.95 1248.71 306.95 1248.71 290.78 1265.33 C290.19 1265.88 289.6 1266.43 289 1267 C288.36 1267.62 287.72 1268.25 287.07 1268.89 C277.17 1278.08 266.64 1280.5 253.37 1280.76 C251.92 1280.79 250.47 1280.85 249.02 1280.94 C237.02 1281.64 237.02 1281.64 232.13 1277.68 C229.83 1274.88 227.91 1272.06 226 1269 C224.66 1267.26 223.31 1265.53 221.94 1263.81 C220.96 1262.54 219.98 1261.27 219 1260 C214.7 1261.57 212.3 1264.87 209.5 1268.31 C209.03 1268.88 208.55 1269.45 208.07 1270.04 C206 1272.53 204.03 1274.95 202.26 1277.66 C200 1280 200 1280 196.87 1280.63 C195.67 1280.63 194.46 1280.63 193.21 1280.63 C192.56 1280.63 191.9 1280.63 191.23 1280.64 C189.84 1280.64 188.45 1280.62 187.06 1280.6 C184.97 1280.56 182.88 1280.58 180.79 1280.6 C166.69 1280.58 155.72 1276.42 145.38 1266.81 C125.27 1245.45 128.65 1218.12 128 1190 C90.05 1190 52.1 1190 13 1190 C13 1203.86 13 1217.72 13 1232 C8.39 1249.3 2.47 1265.12 -13.52 1274.65 C-22.75 1279.67 -31.95 1281.05 -42.38 1281.19 C-43.06 1281.2 -43.75 1281.21 -44.46 1281.23 C-51.15 1281.27 -57.39 1281.27 -62.77 1276.82 C-65.64 1273.77 -67.9 1270.46 -69.96 1266.82 C-71.39 1264.31 -73.06 1262.14 -75 1260 C-75.66 1260 -76.32 1260 -77 1260 C-78.46 1261.59 -79.84 1263.25 -81.19 1264.94 C-82.34 1266.37 -83.5 1267.81 -84.67 1269.23 C-86.09 1271.04 -86.09 1271.04 -87.31 1273.36 C-89.01 1276.12 -90.44 1277.99 -93 1280 C-97.53 1281.08 -101.87 1281.13 -106.49 1280.95 C-108.6 1280.88 -110.71 1280.87 -112.82 1280.88 C-127.29 1280.74 -138.8 1276.27 -149 1266 C-151.66 1262.83 -153.89 1259.56 -156 1256 C-156.69 1254.88 -156.69 1254.88 -157.39 1253.74 C-166.43 1237.64 -165.78 1218.89 -166 1201 C-166.57 1201.53 -167.14 1202.06 -167.73 1202.6 C-186.48 1219.65 -208.42 1224.97 -233.28 1224.14 C-262.71 1222.59 -290.14 1204.91 -309.57 1183.64 C-334.71 1154.86 -346.12 1118.89 -344 1081 C-342.4 1065.73 -337.77 1048.15 -328 1036 C-325.11 1034.07 -323.27 1033.73 -319.88 1034.38 C-312.09 1036.1 -304.89 1039.9 -297.72 1043.3 C-296 1044.13 -296 1044.13 -294 1044 C-294.23 1043.46 -294.46 1042.92 -294.7 1042.37 C-295.76 1039.89 -296.82 1037.41 -297.88 1034.94 C-298.24 1034.09 -298.6 1033.24 -298.98 1032.37 C-303.82 1020.98 -303.82 1020.98 -304.19 1014.94 C-301.84 1009.12 -296.2 1006.94 -290.68 1004.58 C-279.55 1000.41 -269.16 998.66 -257.31 998.81 C-256.33 998.81 -255.35 998.81 -254.34 998.81 C-248.8 998.85 -243.5 999.29 -238 1000 C-227.25 952.64 -216.5 905.27 -205.8 857.9 C-204.9 853.92 -204 849.94 -203.1 845.95 C-201.83 840.36 -200.57 834.77 -199.31 829.18 C-199.11 828.31 -198.92 827.44 -198.71 826.55 C-196.27 815.7 -193.84 804.85 -191.54 793.98 C-184.33 760.1 -170.28 728.72 -151 700 C-150.34 699.01 -149.68 698.02 -149 697 C-150.5 695.65 -152 694.29 -153.5 692.94 C-154.42 692.1 -155.35 691.27 -156.3 690.41 C-158.41 688.53 -160.53 686.7 -162.69 684.88 C-174.98 674.07 -185.48 662.29 -195 649 C-195.43 648.41 -195.86 647.83 -196.31 647.22 C-208.34 630.79 -218.39 611.24 -225 592 C-225.24 591.33 -225.47 590.67 -225.71 589.98 C-230.74 575.64 -234.17 560.91 -237 546 C-237.18 545.04 -237.36 544.08 -237.55 543.09 C-243.37 510.27 -242.42 472.81 -237 440 C-236.8 438.77 -236.6 437.53 -236.4 436.26 C-231.35 405.39 -225.1 371.21 -211 343 C-211.71 342.89 -212.42 342.77 -213.16 342.65 C-234.49 337.76 -253.33 315.63 -266 299 C-266.53 298.32 -267.07 297.63 -267.62 296.92 C-293.32 263.97 -322.39 220.85 -318 177 C-316.02 167.04 -310.47 159.11 -302.2 153.31 C-279.83 139.96 -248.86 144.93 -224.86 150.76 C-191.86 159.15 -157.54 171.17 -130.05 191.74 C-127.09 193.93 -124.08 195.98 -121 198 C-120.45 197.44 -119.9 196.88 -119.34 196.31 C-100.4 177.05 -100.4 177.05 -90 169 C-88.12 167.4 -86.25 165.79 -84.38 164.19 C-58.04 142.29 -27.07 125.43 5.62 115.25 C6.62 114.94 7.63 114.62 8.66 114.3 C11.11 113.53 13.55 112.76 16 112 C15.92 111.43 15.84 110.87 15.75 110.29 C13.75 96.55 11.74 82.81 9.74 69.08 C8.77 62.43 7.81 55.79 6.84 49.15 C5.9 42.74 4.97 36.34 4.03 29.93 C3.68 27.48 3.32 25.03 2.96 22.58 C2.46 19.16 1.97 15.74 1.47 12.32 C1.32 11.3 1.17 10.28 1.02 9.23 C0.88 8.3 0.75 7.37 0.61 6.42 C0.49 5.61 0.37 4.8 0.25 3.96 C0 2 0 2 0 0 Z M11 9 C12.3 20.43 13.78 31.82 15.46 43.2 C15.7 44.84 15.94 46.49 16.18 48.13 C16.82 52.54 17.47 56.95 18.12 61.36 C18.8 66.03 19.49 70.69 20.17 75.35 C21.31 83.19 22.46 91.02 23.61 98.86 C25.22 109.82 26.82 120.77 28.43 131.73 C30.21 143.92 32 156.11 33.79 168.31 C33.91 169.17 34.04 170.02 34.17 170.91 C34.78 175.06 35.39 179.22 36 183.37 C36.23 184.93 36.46 186.5 36.69 188.07 C36.8 188.82 36.91 189.58 37.03 190.36 C37.66 194.7 38.3 199.04 38.92 203.38 C39.2 205.35 39.49 207.31 39.77 209.28 C40.11 211.63 40.45 213.97 40.78 216.32 C40.93 217.33 41.08 218.34 41.23 219.38 C41.36 220.26 41.48 221.13 41.61 222.03 C41.81 224 41.81 224 43 225 C44.75 225.09 46.5 225.12 48.25 225.11 C49.94 225.11 49.94 225.11 51.65 225.11 C52.87 225.11 54.09 225.1 55.35 225.1 C56.59 225.1 57.83 225.09 59.11 225.09 C62.42 225.09 65.72 225.08 69.03 225.07 C72.4 225.06 75.77 225.05 79.14 225.05 C85.76 225.04 92.38 225.02 99 225 C100.47 219.44 101.56 213.96 102.38 208.28 C102.57 207.01 102.57 207.01 102.76 205.72 C103.17 202.92 103.57 200.12 103.98 197.32 C104.28 195.31 104.57 193.29 104.87 191.27 C105.67 185.81 106.47 180.35 107.26 174.89 C108.09 169.18 108.93 163.46 109.77 157.75 C111.17 148.16 112.57 138.57 113.97 128.98 C115.59 117.88 117.21 106.78 118.83 95.69 C120.39 85.02 121.95 74.34 123.51 63.67 C124.18 59.13 124.84 54.58 125.51 50.04 C126.29 44.69 127.07 39.35 127.84 34.01 C128.13 32.04 128.42 30.08 128.71 28.11 C129.1 25.44 129.49 22.76 129.87 20.09 C129.99 19.31 130.11 18.52 130.22 17.72 C130.65 14.78 131 11.97 131 9 C127.37 9 123.74 9 120 9 C119.52 12.17 119.04 15.33 118.56 18.5 C118.36 19.83 118.36 19.83 118.15 21.19 C117.36 26.45 116.64 31.72 116 37 C114.87 27.68 113.79 18.36 113 9 C107.06 9 101.12 9 95 9 C94 12.77 93 16.54 92 20.31 C91.71 21.38 91.43 22.46 91.13 23.56 C90.86 24.59 90.59 25.62 90.31 26.68 C90.06 27.62 89.81 28.57 89.55 29.55 C88.89 32.07 88.89 32.07 89 35 C88.34 35 87.68 35 87 35 C87.02 34.46 87.05 33.93 87.07 33.38 C87.26 25.11 86.11 17.18 85 9 C77.41 9 69.82 9 62 9 C61.01 14.61 60.02 20.22 59 26 C58.67 20.39 58.34 14.78 58 9 C53.05 9 48.1 9 43 9 C41.68 18.9 40.36 28.8 39 39 C38.06 27.38 38.06 27.38 37.77 23.74 C37.69 22.78 37.62 21.82 37.54 20.84 C37.46 19.86 37.38 18.89 37.3 17.88 C36.99 14.91 36.49 11.95 36 9 C27.75 9 19.5 9 11 9 Z M-19.92 134.68 C-21.08 135.25 -22.25 135.83 -23.45 136.42 C-24.7 137.05 -25.94 137.68 -27.19 138.31 C-27.81 138.63 -28.44 138.94 -29.08 139.27 C-36.98 143.25 -44.74 147.39 -52.19 152.19 C-52.88 152.63 -53.57 153.08 -54.29 153.53 C-58.06 156.01 -58.06 156.01 -60 160 C-59.47 161.95 -59.47 161.95 -58.48 164 C-58.12 164.8 -57.77 165.59 -57.4 166.41 C-56.8 167.69 -56.8 167.69 -56.19 169 C-55.78 169.89 -55.37 170.77 -54.95 171.69 C-43.66 197.57 -43.66 197.57 -25 218 C-22.98 218.78 -22.98 218.78 -21 219 C-15.08 215.12 -13.21 206.55 -11.81 200 C-10.07 190.87 -9.86 181.7 -9.9 172.43 C-9.9 171.27 -9.91 170.11 -9.91 168.91 C-9.91 165.23 -9.92 161.55 -9.94 157.88 C-9.94 155.37 -9.95 152.86 -9.95 150.35 C-9.96 144.23 -9.98 138.12 -10 132 C-14.33 132 -16.09 132.78 -19.92 134.68 Z M167 138 C164.91 140.09 165.81 144.63 165.8 147.51 C165.79 148.38 165.78 149.26 165.78 150.15 C165.76 153 165.75 155.84 165.75 158.69 C165.75 159.65 165.75 160.61 165.75 161.6 C164.56 191.11 164.56 191.11 175.13 217.3 C175.75 217.86 176.36 218.42 177 219 C184.9 217.42 189.28 211.66 193.57 205.28 C199.08 196.72 203.82 187.75 208.31 178.62 C208.81 177.63 209.31 176.64 209.82 175.62 C210.27 174.68 210.72 173.75 211.18 172.79 C211.58 171.96 211.98 171.13 212.39 170.28 C213.22 168.01 213.22 168.01 212.31 165.85 C210.14 162.78 207.03 160.93 203.94 158.88 C203.23 158.4 202.53 157.92 201.8 157.43 C194.07 152.27 186.07 147.6 178 143 C177.01 142.43 176.02 141.86 175 141.27 C171.22 138.86 171.22 138.86 167 138 Z M6.81 124.5 C6.06 124.74 5.31 124.98 4.54 125.22 C2.69 125.81 0.85 126.41 -1 127 C-1 127.55 -0.99 128.1 -0.99 128.67 C-0.94 134.55 -0.91 140.42 -0.89 146.3 C-0.88 148.48 -0.87 150.65 -0.85 152.83 C-0.41 208.54 -0.41 208.54 -12 223 C-15.36 226.06 -17.34 226.89 -21.81 227.62 C-28.57 227.24 -33.87 222.44 -38.38 217.75 C-49.35 204.3 -56.54 188.17 -63.8 172.55 C-65.15 169.67 -66.56 166.83 -68 164 C-76.94 169.55 -84.79 176.7 -92.55 183.77 C-94.15 185.23 -95.76 186.67 -97.39 188.11 C-102.41 192.55 -107.25 197.15 -112 201.88 C-112.56 202.43 -113.13 202.99 -113.71 203.57 C-116.08 205.95 -118.13 208.2 -120 211 C-124.08 210.48 -125.68 208.48 -128.38 205.5 C-134.24 199.5 -140.74 195.14 -148 191 C-149.2 190.32 -149.2 190.32 -150.43 189.62 C-188.1 168.46 -243.78 145.69 -287.98 156.96 C-296.18 159.78 -302.92 164.16 -307 172 C-313.99 192.32 -305.13 215.51 -296.23 233.9 C-294.54 237.29 -292.78 240.65 -291 244 C-290.63 244.71 -290.26 245.42 -289.88 246.15 C-270.23 283.51 -241.64 324.45 -200 338 C-201.76 344.2 -203.79 350.25 -206.06 356.29 C-217.31 386.36 -229.92 423.46 -229 456 C-224.46 457.55 -219.92 459.05 -215.31 460.36 C-175.85 471.57 -175.85 471.57 -167 485 C-165.34 489.97 -165.48 493.66 -167.38 498.56 C-176.47 512.66 -202.12 516.04 -217.07 519.37 C-221.37 520.3 -225.68 521.16 -230 522 C-229.88 524.1 -229.76 526.21 -229.62 528.31 C-229.52 530.07 -229.52 530.07 -229.41 531.86 C-229 536.97 -227.98 541.98 -227 547 C-226.19 546.8 -225.39 546.6 -224.56 546.39 C-221.5 545.63 -218.44 544.87 -215.38 544.12 C-213.43 543.64 -211.49 543.15 -209.54 542.66 C-172.45 533.58 -172.45 533.58 -159 541 C-155.81 543.46 -154.33 545 -153.06 548.81 C-152.8 562.05 -161.74 572.3 -170.39 581.35 C-179.56 590.75 -189.02 599.65 -199.65 607.4 C-202.78 609.68 -202.78 609.68 -204.78 612.9 C-205.06 615.57 -204.46 616.65 -203.11 618.95 C-202.68 619.71 -202.24 620.46 -201.79 621.25 C-201.3 622.05 -200.81 622.86 -200.31 623.69 C-199.82 624.52 -199.32 625.36 -198.82 626.22 C-195.29 632.08 -191.55 637.77 -187.62 643.38 C-186.89 644.42 -186.89 644.42 -186.15 645.48 C-183.37 649.35 -180.47 652.73 -177 656 C-173.93 651.41 -170.87 646.81 -167.84 642.2 C-156.52 624.99 -144.73 608.38 -131 593 C-130.26 592.16 -129.51 591.31 -128.75 590.45 C-126.52 587.94 -124.26 585.47 -122 583 C-121.2 582.12 -121.2 582.12 -120.38 581.23 C-107.83 567.52 -107.83 567.52 -101.94 562.64 C-99.62 560.68 -97.45 558.59 -95.25 556.5 C-77.52 540.34 -57.11 527.24 -36 516 C-35.02 515.47 -35.02 515.47 -34.03 514.93 C19.59 485.92 81.12 482.22 138.95 499.44 C180.18 512.29 219.39 537.36 249.38 568.38 C251.17 570.22 251.17 570.22 254.06 572.5 C257.13 575.11 259.62 577.91 262.22 580.97 C263.87 582.85 265.58 584.58 267.38 586.31 C271.51 590.39 275.1 594.87 278.72 599.41 C280.06 601.07 281.42 602.73 282.79 604.38 C293.72 617.69 303.25 631.98 312.4 646.57 C314.65 650.12 316.85 653.16 320 656 C327.23 646.61 333.99 637.23 340 627 C340.69 625.9 341.37 624.8 342.08 623.67 C342.73 622.6 343.39 621.54 344.06 620.44 C344.65 619.49 345.24 618.54 345.85 617.56 C347.19 615.16 347.19 615.16 346.78 613.03 C345.82 610.53 344.74 609.61 342.64 607.97 C341.94 607.41 341.25 606.85 340.53 606.28 C339.78 605.69 339.02 605.11 338.25 604.5 C330.52 598.3 323.18 591.83 316 585 C315.34 584.4 314.68 583.81 314 583.19 C306.66 576.37 297.09 565.04 295.53 554.96 C295.45 546.87 295.45 546.87 297.94 542.94 C311.79 534.17 329.78 537.81 345 541 C349.52 542.05 354.02 543.17 358.5 544.37 C359.29 544.58 360.09 544.79 360.9 545.01 C361.95 545.3 361.95 545.3 363.01 545.59 C365.31 546.14 365.31 546.14 369 546 C369.51 542.94 370 539.88 370.5 536.81 C370.71 535.52 370.71 535.52 370.93 534.19 C371.07 533.35 371.2 532.51 371.34 531.64 C371.47 530.87 371.6 530.1 371.72 529.31 C372.02 526.85 372.05 524.47 372 522 C371.29 521.85 370.58 521.71 369.85 521.56 C328.67 513.02 328.67 513.02 315.74 504.16 C313.89 502.82 313.89 502.82 311 502 C309.88 499.56 309.88 499.56 309 497 C308.67 496.34 308.34 495.68 308 495 C307.36 489.68 308.23 486.28 311.22 481.97 C322.63 469.33 343.77 464.57 359.45 459.79 C363.32 458.59 367.16 457.3 371 456 C369.83 444.08 368.2 432.37 365.88 420.62 C365.72 419.85 365.57 419.08 365.42 418.29 C360.87 395.26 353.92 373.14 346.1 351.04 C344.58 346.73 343.18 342.42 342 338 C343.49 337.51 343.49 337.51 345.01 337 C360.53 331.66 372.4 323.66 384 312 C384.51 311.49 385.02 310.99 385.54 310.47 C415.64 280.22 450.13 231.1 451.31 186.88 C451.18 178.54 449.47 171.48 444 165 C433.11 154.99 417.43 154.23 403.4 154.69 C360.06 156.86 307.8 174 274 202 C273.27 202.59 272.54 203.18 271.79 203.79 C269.07 206.04 266.97 208.04 265 211 C260.34 210.16 258.19 207.3 255.19 203.88 C254.11 202.68 253.04 201.49 251.96 200.3 C251.2 199.44 251.2 199.44 250.41 198.56 C245.33 192.93 239.77 187.91 234 183 C233.26 182.37 233.26 182.37 232.51 181.72 C230.88 180.33 229.26 178.94 227.62 177.56 C226.84 176.89 226.84 176.89 226.04 176.2 C223.38 173.74 223.38 173.74 220 173 C219.68 173.68 219.37 174.37 219.04 175.07 C207.18 200.6 207.18 200.6 199 212 C198.08 213.32 198.08 213.32 197.14 214.66 C193.02 220.27 188.77 224.74 182 227 C176.49 227.36 173.56 227.41 169 224 C156.11 205.01 157.71 179.32 157.88 157.44 C157.89 155.15 157.89 152.87 157.9 150.59 C157.92 145.06 157.96 139.53 158 134 C150.44 130.09 150.44 130.09 142.54 126.98 C141.63 126.68 140.73 126.38 139.8 126.07 C138.9 125.78 137.99 125.49 137.06 125.19 C136.13 124.88 135.2 124.56 134.24 124.24 C129.22 122.54 129.22 122.54 124 122 C121.72 134.52 119.73 147.07 117.86 159.66 C117.58 161.6 117.29 163.53 117 165.46 C116.41 169.47 115.81 173.48 115.22 177.5 C114.46 182.63 113.7 187.76 112.93 192.88 C112.34 196.86 111.75 200.83 111.16 204.81 C110.88 206.7 110.6 208.59 110.32 210.48 C109.92 213.12 109.53 215.76 109.15 218.4 C109.03 219.17 108.91 219.94 108.79 220.73 C108.63 221.82 108.63 221.82 108.47 222.93 C108.38 223.55 108.29 224.17 108.19 224.81 C107.92 227.86 108 230.94 108 234 C83.58 234 59.16 234 34 234 C33.67 229.38 33.34 224.76 33 220 C32.58 216.56 32.13 213.16 31.62 209.74 C31.48 208.81 31.35 207.89 31.21 206.94 C30.77 203.94 30.32 200.95 29.88 197.96 C29.56 195.85 29.25 193.75 28.94 191.65 C28.3 187.27 27.65 182.9 27 178.52 C26.16 172.91 25.33 167.29 24.51 161.68 C23.87 157.35 23.23 153.02 22.59 148.7 C22.28 146.63 21.97 144.55 21.67 142.48 C21.24 139.6 20.81 136.72 20.38 133.84 C20.26 132.98 20.13 132.13 20 131.25 C19.52 128.06 19.02 125.07 18 122 C14.01 122 10.57 123.29 6.81 124.5 Z M-230 466 C-231.07 471.23 -231.13 476.25 -231.1 481.55 C-231.1 482.46 -231.09 483.36 -231.09 484.29 C-231.09 487.15 -231.08 490.01 -231.06 492.88 C-231.06 494.82 -231.05 496.77 -231.05 498.72 C-231.04 503.48 -231.02 508.24 -231 513 C-223.24 511.89 -215.6 510.63 -208 508.69 C-207.15 508.47 -206.29 508.25 -205.42 508.03 C-188.09 503.52 -188.09 503.52 -174 493 C-173.62 490.55 -173.62 490.55 -175 488 C-186.61 475.35 -210.05 469.77 -226 466 C-227.32 466 -228.64 466 -230 466 Z M318 487 C315.83 489.66 315.83 489.66 316 491.88 C319.18 498.63 327.44 501.57 334 504 C353.12 510.48 353.12 510.48 373 513 C373.02 507.43 373.04 501.86 373.05 496.29 C373.06 494.4 373.07 492.51 373.08 490.62 C373.09 487.89 373.09 485.16 373.1 482.43 C373.1 481.59 373.11 480.76 373.11 479.89 C373.11 475.15 372.79 470.67 372 466 C355.49 466 330.4 475.72 318 487 Z M-99 572 C-100.05 572.95 -101.1 573.9 -102.16 574.85 C-107.11 579.3 -111.89 583.75 -116.18 588.86 C-118.01 591.01 -119.91 593.06 -121.84 595.12 C-136.24 610.53 -148.5 627.93 -160 645.56 C-160.79 646.78 -160.79 646.78 -161.6 648.01 C-164.96 653.22 -168.06 658.54 -171 664 C-162.71 672.5 -154.47 680.8 -145 688 C-144.46 688.42 -143.92 688.83 -143.36 689.26 C-95.38 726.14 -37.36 742.98 22 750 C23.11 750.13 24.21 750.27 25.35 750.4 C114.04 760.47 214.47 744.08 286.15 688.56 C292.3 683.6 298.2 678.37 304 673 C304.8 672.28 305.61 671.57 306.44 670.83 C307.55 669.8 307.55 669.8 308.69 668.75 C309.35 668.15 310.02 667.54 310.7 666.92 C312.26 665.06 312.26 665.06 311.75 662.67 C310.95 659.81 309.86 657.8 308.26 655.3 C307.7 654.41 307.13 653.52 306.54 652.6 C305.63 651.19 305.63 651.19 304.69 649.75 C304.06 648.77 303.42 647.79 302.77 646.78 C293.29 632.18 283.19 618.34 272 605 C271.48 604.37 270.96 603.75 270.42 603.1 C263.95 595.35 257.26 588.03 250 581 C247.4 578.42 244.83 575.82 242.27 573.2 C235.86 566.65 229.24 560.65 222 555 C221.03 554.22 220.06 553.45 219.05 552.64 C205.24 541.75 190.53 532.25 175 524 C174.37 523.66 173.74 523.32 173.09 522.97 C142.54 506.61 108.6 497.69 74 497 C72.87 496.96 71.74 496.92 70.57 496.88 C6.11 495.48 -53.25 529.23 -99 572 Z M-192.94 547.69 C-193.92 547.86 -194.91 548.04 -195.93 548.22 C-205.43 549.96 -214.72 552.36 -224 555 C-225.2 558.48 -224.79 560.71 -223.81 564.23 C-223.39 565.76 -223.39 565.76 -222.95 567.33 C-222.64 568.42 -222.32 569.5 -222 570.62 C-221.52 572.29 -221.52 572.29 -221.04 573.99 C-217.12 590.09 -217.12 590.09 -209 604 C-202.67 598.91 -196.47 593.73 -190.47 588.25 C-188.82 586.74 -187.15 585.26 -185.47 583.79 C-170.04 570.72 -170.04 570.72 -162.12 552.94 C-162.08 551.64 -162.04 550.34 -162 549 C-170.48 543.35 -183.46 545.96 -192.94 547.69 Z M304 549 C303.21 555.18 305.57 559.09 309 564 C314.8 571.41 321.08 578.62 328 585 C328.83 585.77 328.83 585.77 329.67 586.55 C336.51 592.68 343.81 598.3 351 604 C354.46 600.17 355.75 595.61 357.38 590.81 C357.68 589.93 357.98 589.05 358.29 588.14 C360.26 582.35 362.13 576.54 363.88 570.69 C364.08 570.01 364.28 569.34 364.49 568.65 C365.71 564.43 366.47 560.34 367 556 C352.8 550.21 336.67 546.85 321.38 545.94 C320.65 545.89 319.92 545.84 319.18 545.79 C313.67 545.6 309.1 547.01 304 549 Z M-142.34 704.3 C-146.73 709.83 -150.4 715.74 -154 721.81 C-154.51 722.65 -155.01 723.49 -155.53 724.35 C-156.23 725.55 -156.23 725.55 -156.94 726.77 C-157.36 727.49 -157.78 728.21 -158.21 728.94 C-159.18 731.47 -159.09 732.54 -158 735 C-155.57 736.74 -153.2 738.26 -150.62 739.75 C-149.15 740.64 -147.69 741.53 -146.22 742.42 C-145.5 742.86 -144.78 743.29 -144.03 743.74 C-118.41 759.59 -118.41 759.59 -115.26 771.88 C-114.75 774.58 -114.33 777.27 -114 780 C-112.59 777.32 -111.53 774.73 -110.66 771.82 C-106.57 758.63 -101.23 746.44 -95.01 734.12 C-93.9 731.9 -93.9 731.9 -93 729 C-93.68 728.67 -94.37 728.35 -95.07 728.01 C-109.87 720.91 -123.86 713.4 -137.35 703.99 C-139.57 702.66 -140.44 702.46 -142.34 704.3 Z M274.69 707.25 C268.22 711.71 261.53 715.62 254.62 719.38 C253.71 719.87 252.8 720.37 251.85 720.89 C246.34 723.86 240.76 726.55 235 729 C235.55 730.1 236.09 731.21 236.65 732.35 C242.8 744.98 248.04 757.86 253 771 C253.58 770.27 254.16 769.54 254.75 768.79 C267.32 753.16 283.1 741.95 301 733 C299.47 727.38 296.69 722.89 293.62 718 C293.14 717.22 292.66 716.44 292.16 715.63 C291.22 714.11 290.27 712.6 289.32 711.09 C288.48 709.77 287.66 708.44 286.86 707.1 C285.76 705.26 285.76 705.26 284 703 C279.97 703 277.85 705 274.69 707.25 Z M-85 734 C-102.74 761.88 -110.47 794.91 -110.31 827.69 C-110.31 828.48 -110.31 829.27 -110.31 830.08 C-110.11 875.04 -93.79 918.48 -63.12 951.69 C-61.17 953.81 -59.3 955.99 -57.44 958.19 C-37.3 981.24 -7.11 997.15 22 1005.31 C22.82 1005.54 23.63 1005.77 24.47 1006.01 C39.93 1010.08 55.38 1011.56 71.31 1011.44 C72.16 1011.43 73.01 1011.43 73.88 1011.43 C87.27 1011.36 100.01 1010.47 113 1007 C113.82 1006.79 114.65 1006.58 115.5 1006.37 C144.36 998.92 169.85 985.27 191.73 965.09 C193.84 963.15 196 961.29 198.19 959.44 C202.19 955.93 205.64 952.13 209 948 C209.75 947.09 210.5 946.17 211.27 945.23 C238.05 911.61 252.49 871.06 252.38 828.06 C252.37 826.92 252.37 826.92 252.37 825.76 C252.34 812.2 251.07 799.24 248 786 C247.82 785.19 247.64 784.39 247.45 783.56 C243.36 765.94 235.83 749.71 227 734 C221.52 734.56 217.03 736.01 211.94 738.06 C126.36 770.84 20.88 768.4 -78.55 734.89 C-81.19 733.77 -81.19 733.77 -85 734 Z M267.21 766.68 C264.3 769.73 262 772.3 262 776.62 C263.35 779.83 264.94 780.41 268 782 C277.26 785.2 286.51 785.42 296.18 785.28 C298.46 785.25 300.74 785.24 303.02 785.23 C309.11 785.2 315 785.16 321 784 C318.04 769.17 312.76 754.53 306 741 C293.71 741 275.8 758.88 267.21 766.68 Z M-164 742 C-168.53 751.65 -172.63 761.32 -176 771.44 C-176.3 772.34 -176.6 773.25 -176.92 774.18 C-178.52 778.99 -178.52 778.99 -179 784 C-174.57 786.22 -168.56 785.23 -163.63 785.24 C-161.43 785.25 -159.24 785.28 -157.04 785.31 C-138.73 785.68 -138.73 785.68 -123 778 C-123.81 770.02 -128.67 765.62 -134.65 760.62 C-148.34 748.74 -148.34 748.74 -164 742 Z M-115 781 C-115.66 781.91 -116.32 782.82 -117 783.75 C-122.59 790.52 -131.67 792.09 -140 793 C-147.06 793.32 -154.13 793.19 -161.19 793.12 C-163.11 793.11 -165.04 793.11 -166.96 793.1 C-171.64 793.08 -176.32 793.04 -181 793 C-181.49 794.42 -181.97 795.85 -182.46 797.28 C-182.86 798.47 -182.86 798.47 -183.28 799.68 C-184.13 802.43 -184.63 805.15 -185 808 C-180.4 811.1 -175.78 814.14 -171.07 817.08 C-142.15 835.28 -142.15 835.28 -138.31 848.69 C-137.67 853.22 -138.46 856.12 -141 860 C-152.2 870.28 -171.02 869.16 -185.12 869.06 C-186.99 869.06 -186.99 869.06 -188.89 869.05 C-191.93 869.04 -194.96 869.02 -198 869 C-199.29 872.16 -200.39 875.17 -201.12 878.5 C-201.29 879.23 -201.46 879.96 -201.63 880.72 C-201.75 881.47 -201.88 882.22 -202 883 C-202.17 883.82 -202.34 884.64 -202.52 885.48 C-202.21 888.39 -202.21 888.39 -198.85 890.39 C-197.45 891.22 -196.04 892.02 -194.62 892.81 C-193.15 893.68 -191.67 894.56 -190.2 895.44 C-189.48 895.87 -188.76 896.3 -188.01 896.75 C-183.69 899.44 -179.87 902.71 -176 906 C-175.36 906.5 -174.71 907 -174.05 907.51 C-168.08 912.24 -163.13 918.04 -161.94 925.75 C-161.75 929.68 -162.38 931.94 -165 935 C-174.87 944.59 -190.87 944.28 -203.75 944.62 C-204.94 944.66 -206.12 944.7 -207.34 944.74 C-210.23 944.84 -213.11 944.92 -216 945 C-217.72 952.44 -219.43 959.87 -221.13 967.31 C-221.71 969.84 -222.29 972.37 -222.87 974.9 C-223.71 978.54 -224.54 982.18 -225.38 985.82 C-225.64 986.95 -225.9 988.08 -226.17 989.24 C-226.41 990.3 -226.65 991.36 -226.9 992.45 C-227.11 993.38 -227.32 994.31 -227.54 995.27 C-228.04 998.22 -228.08 1001.01 -228 1004 C-227.04 1004.36 -226.09 1004.73 -225.11 1005.1 C-202.87 1013.69 -186.58 1027.19 -170 1044 C-168.35 1045.65 -166.7 1047.3 -165 1049 C-164.67 1017.32 -164.34 985.64 -164 953 C-162.35 952.34 -160.7 951.68 -159 951 C-158.34 951.33 -157.68 951.66 -157 952 C-156.5 962.39 -156.5 962.39 -156 973 C-153.27 973.51 -150.54 974.02 -147.73 974.54 C-145.02 975.05 -142.3 975.57 -139.58 976.09 C-137.73 976.44 -135.88 976.79 -134.03 977.13 C-81.71 986.83 -81.71 986.83 -68.1 1004.09 C-65.69 1008.28 -65.32 1012.46 -66.57 1017.11 C-71.24 1027.93 -82.12 1032.79 -92.44 1037.02 C-109.39 1043.52 -127.18 1046.86 -145 1050 C-147.09 1050.38 -149.17 1050.76 -151.26 1051.14 C-152.83 1051.42 -154.39 1051.71 -156 1052 C-156 1058.27 -156 1064.54 -156 1071 C-153.15 1071.44 -153.15 1071.44 -150.25 1071.88 C-83.96 1082.32 -83.96 1082.32 -69 1100 C-66.3 1104.5 -65.39 1108.9 -66.38 1114.06 C-69.27 1123.13 -77.51 1126.96 -85.35 1131.3 C-102.7 1139.95 -122.34 1143.3 -141.25 1146.74 C-146.23 1147.64 -151.11 1148.68 -156 1150 C-156.58 1167.07 -152.39 1182 -141 1195 C-133.07 1202.58 -125.25 1205.46 -114.44 1205.4 C-113.52 1205.41 -112.6 1205.42 -111.65 1205.42 C-108.62 1205.44 -105.6 1205.44 -102.57 1205.43 C-100.45 1205.44 -98.34 1205.44 -96.22 1205.45 C-91.79 1205.46 -87.36 1205.46 -82.93 1205.45 C-77.27 1205.43 -71.62 1205.45 -65.96 1205.48 C-61.59 1205.5 -57.22 1205.5 -52.85 1205.5 C-50.76 1205.5 -48.68 1205.5 -46.59 1205.51 C-43.67 1205.53 -40.74 1205.52 -37.82 1205.5 C-36.97 1205.51 -36.12 1205.52 -35.25 1205.53 C-25.04 1205.41 -17.52 1201.39 -10.26 1194.42 C0.96 1182.39 4.29 1167.98 4.32 1151.96 C4.33 1150.79 4.34 1149.62 4.35 1148.41 C4.38 1144.56 4.4 1140.72 4.41 1136.87 C4.43 1134.19 4.45 1131.52 4.47 1128.84 C4.52 1122.53 4.56 1116.22 4.59 1109.91 C4.63 1102.72 4.68 1095.53 4.73 1088.34 C4.83 1073.56 4.92 1058.78 5 1044 C7 1043.96 9 1043.96 11 1044 C13.14 1046.14 12.42 1050.89 12.54 1053.86 C12.58 1054.8 12.63 1055.73 12.67 1056.69 C13.17 1068.86 13.23 1081.03 13.32 1093.21 C13.33 1095.47 13.35 1097.73 13.37 1099.99 C13.44 1108.27 13.5 1116.54 13.56 1124.81 C13.71 1143.35 13.85 1161.9 14 1181 C51.62 1181 89.24 1181 128 1181 C128.06 1172.27 128.12 1163.54 128.18 1154.55 C128.23 1148.3 128.28 1142.05 128.32 1135.79 C128.38 1127.71 128.44 1119.62 128.5 1111.53 C128.54 1105.13 128.59 1098.72 128.64 1092.31 C128.66 1088.93 128.69 1085.54 128.71 1082.15 C128.73 1078.36 128.76 1074.56 128.79 1070.77 C128.8 1069.66 128.81 1068.56 128.81 1067.42 C128.88 1059.91 129.34 1052.48 130 1045 C134.75 1044 134.75 1044 137 1044 C137 1044.61 137 1045.21 137.01 1045.84 C137.07 1060.67 137.14 1075.49 137.24 1090.32 C137.28 1097.49 137.32 1104.66 137.35 1111.83 C137.37 1118.08 137.4 1124.33 137.45 1130.59 C137.47 1133.89 137.49 1137.2 137.5 1140.51 C137.51 1144.21 137.54 1147.92 137.57 1151.62 C137.57 1153.24 137.57 1153.24 137.56 1154.89 C137.74 1169.54 142.1 1184.25 152.38 1195.06 C158.6 1200.77 165.43 1205.07 174.04 1205.16 C174.84 1205.17 175.64 1205.18 176.46 1205.19 C177.32 1205.2 178.19 1205.2 179.08 1205.21 C179.99 1205.22 180.91 1205.23 181.86 1205.24 C184.89 1205.27 187.93 1205.29 190.97 1205.31 C192.01 1205.32 193.05 1205.32 194.12 1205.33 C199.63 1205.36 205.15 1205.39 210.66 1205.41 C215.21 1205.42 219.75 1205.46 224.3 1205.51 C229.8 1205.57 235.3 1205.6 240.81 1205.61 C242.9 1205.62 244.99 1205.64 247.07 1205.66 C258.77 1205.82 268.09 1205.93 278 1199 C278.7 1198.52 279.39 1198.05 280.11 1197.55 C290.26 1190.15 295.07 1176.76 297.25 1164.88 C298 1159.86 298.17 1155.06 298 1150 C291.81 1148.34 285.59 1147.15 279.29 1146 C222.56 1135.56 222.56 1135.56 210.71 1119.22 C208.11 1114.76 207.5 1111.19 208.4 1106.1 C210.34 1099.3 215.32 1095.64 221 1092 C228.79 1087.68 236.67 1084.48 245.19 1081.94 C246.3 1081.6 247.41 1081.26 248.56 1080.92 C263.71 1076.45 279.28 1073.44 294.94 1071.36 C296.99 1071.21 296.99 1071.21 298 1070 C298.09 1068.66 298.11 1067.31 298.1 1065.96 C298.09 1065.16 298.09 1064.35 298.09 1063.51 C298.08 1062.66 298.07 1061.81 298.06 1060.94 C298.06 1059.66 298.06 1059.66 298.05 1058.35 C298.04 1056.23 298.02 1054.12 298 1052 C297.13 1051.85 296.26 1051.71 295.37 1051.56 C223.98 1039.49 223.98 1039.49 210 1020 C207.57 1016.41 207.63 1013.28 208 1009 C210.56 1000.99 218.11 995.77 225.25 991.94 C248.12 981.34 273.32 977.11 298 973 C298.33 966.07 298.66 959.14 299 952 C300.65 951.67 302.3 951.34 304 951 C307.11 954.11 306.31 957.87 306.32 962.04 C306.33 963.44 306.33 963.44 306.35 964.88 C306.38 967.98 306.4 971.09 306.41 974.2 C306.43 976.34 306.45 978.49 306.47 980.64 C306.52 986.31 306.56 991.97 306.6 997.64 C306.64 1003.42 306.69 1009.19 306.74 1014.97 C306.84 1026.32 306.92 1037.66 307 1049 C310.11 1045.92 313.1 1042.78 315.99 1039.5 C329.22 1024.64 345.25 1014.08 363.57 1006.45 C366.08 1005.39 368.56 1004.22 371 1003 C366.71 983.86 362.42 964.72 358 945 C348.43 944.67 338.86 944.34 329 944 C307.99 941.16 307.99 941.16 301.88 933.25 C300.5 928.15 300.55 923.74 303.06 919 C304.58 916.86 306.23 914.94 308 913 C308.66 912.24 309.31 911.48 309.99 910.7 C319.57 900.32 332.1 893.4 344 886 C343.53 883.35 343.05 880.71 342.56 878.06 C342.43 877.31 342.29 876.55 342.15 875.78 C341.76 872.08 341.76 872.08 340 869 C337.87 868.94 335.74 868.94 333.61 868.97 C332.27 868.99 330.92 869 329.58 869.01 C327.47 869.03 325.36 869.06 323.25 869.1 C308.58 869.32 293.98 868.7 280.94 861.25 C278.19 858.06 277.19 855.2 277 851 C278.78 839.59 289.32 831.4 298 825 C307.07 818.59 316.5 812.74 326 807 C325.69 805.04 325.38 803.08 325.06 801.12 C324.89 800.03 324.71 798.94 324.54 797.82 C324.14 795.06 324.14 795.06 323 793 C321.11 793.02 321.11 793.02 319.18 793.05 C314.45 793.1 309.71 793.14 304.97 793.16 C302.93 793.18 300.89 793.2 298.85 793.23 C271.94 793.56 271.94 793.56 261.75 788.33 C260.84 787.89 259.94 787.45 259 787 C258.34 787.33 257.68 787.66 257 788 C257.2 789.19 257.41 790.38 257.62 791.6 C266.03 842.35 256.96 895.68 227.05 938.29 C221.82 945.5 216.2 952.25 210.11 958.74 C208.44 960.53 206.89 962.33 205.38 964.25 C175.55 998.79 126.28 1016.74 82 1020 C29.83 1022.64 -19.57 1004.25 -58.25 969.35 C-58.81 968.84 -59.37 968.34 -59.94 967.81 C-60.45 967.35 -60.95 966.89 -61.48 966.41 C-93.26 936.73 -115.98 890.37 -118.11 846.8 C-118.16 844.43 -118.19 842.07 -118.2 839.7 C-118.21 838.82 -118.21 837.95 -118.22 837.05 C-118.23 835.2 -118.24 833.35 -118.24 831.5 C-118.25 828.73 -118.28 825.97 -118.31 823.21 C-118.38 811.88 -117.43 801.14 -115.36 790.01 C-114.82 787.02 -114.41 784.01 -114 781 C-114.33 781 -114.66 781 -115 781 Z M520 793 C519.75 793.73 519.5 794.47 519.25 795.23 C516.91 802.14 514.57 809.06 512.23 815.97 C511.03 819.53 509.82 823.09 508.62 826.64 C507.46 830.07 506.3 833.5 505.14 836.93 C504.7 838.24 504.25 839.55 503.81 840.86 C503.19 842.69 502.57 844.53 501.95 846.36 C501.6 847.4 501.24 848.44 500.88 849.52 C500 852 500 852 499 854 C497.82 851.63 497.73 849.89 497.54 847.25 C497.42 845.76 497.42 845.76 497.3 844.25 C497.18 842.65 497.18 842.65 497.06 841.01 C496.98 839.91 496.89 838.81 496.8 837.68 C496.53 834.16 496.27 830.64 496 827.12 C495.73 823.61 495.47 820.1 495.2 816.59 C495.03 814.4 494.86 812.21 494.7 810.03 C494.58 808.53 494.58 808.53 494.46 807.01 C494.37 805.7 494.37 805.7 494.27 804.37 C494.02 802.16 493.6 800.13 493 798 C490.69 798.33 488.38 798.66 486 799 C486.56 813.62 487.64 828.13 489.06 842.69 C489.43 846.5 489.8 850.32 490.16 854.14 C490.24 854.98 490.33 855.83 490.42 856.7 C492.4 877.69 484.66 895.4 471.62 911.81 C470.11 913.56 468.57 915.29 467 917 C466.17 917.91 465.34 918.83 464.48 919.77 C439.88 945.56 405 956.75 371 964 C371.66 967.3 372.32 970.6 373 974 C412.23 969.76 453.49 951 478.94 920.38 C488.43 908.21 496.42 893.98 500.81 879.12 C502.78 873.35 506.67 869.82 511.05 865.8 C513.31 863.73 515.32 861.53 517.32 859.2 C521.83 853.97 526.76 849.19 531.68 844.36 C535.8 840.28 539.72 836.12 543.49 831.74 C545.23 829.74 547.05 827.85 548.94 826 C549.82 825.13 549.82 825.13 550.71 824.25 C551.14 823.84 551.56 823.42 552 823 C550.63 819.84 550.01 819.01 547 817 C541.79 822.12 536.66 827.25 531.91 832.8 C529.49 835.58 527 838.29 524.5 841 C518.49 847.53 512.64 854.16 507 861 C507 857.84 507.6 855.83 508.6 852.85 C508.96 851.79 509.31 850.74 509.67 849.66 C510.05 848.52 510.44 847.38 510.83 846.21 C511.42 844.45 511.42 844.45 512.02 842.66 C513.07 839.53 514.12 836.41 515.17 833.29 C516.23 830.14 517.28 826.99 518.34 823.84 C519.89 819.2 521.45 814.57 523.01 809.93 C524.68 804.96 526.34 799.98 528 795 C524.91 793.24 523.77 793 520 793 Z M320.75 820.38 C320.13 820.73 319.51 821.09 318.88 821.45 C306.86 828.49 293.23 836.81 286 849 C285.58 851.8 285.58 851.8 286 854 C296.86 861.08 308.63 860.26 321.12 860.12 C322.77 860.11 324.41 860.11 326.05 860.1 C330.03 860.08 334.02 860.04 338 860 C335.17 845.63 332.26 831.28 329 817 C325.84 817 323.43 818.83 320.75 820.38 Z M-187 818 C-188.29 823.5 -189.57 829 -190.85 834.5 C-191.28 836.37 -191.72 838.24 -192.15 840.11 C-192.78 842.8 -193.41 845.49 -194.03 848.18 C-194.23 849.01 -194.42 849.85 -194.63 850.71 C-194.81 851.49 -194.99 852.28 -195.17 853.08 C-195.33 853.77 -195.49 854.45 -195.66 855.16 C-196.09 857.18 -196.09 857.18 -196 860 C-191.52 860.08 -187.04 860.13 -182.56 860.16 C-181.04 860.18 -179.52 860.2 -178 860.23 C-161.51 860.76 -161.51 860.76 -147 854 C-147 847.89 -149.15 844.82 -153.32 840.45 C-168.77 826.05 -168.77 826.05 -187 818 Z M344 896 C341.68 897.23 339.6 898.48 337.44 899.94 C336.82 900.35 336.19 900.76 335.55 901.18 C330.11 904.81 325.02 908.81 320 913 C319.14 913.67 318.28 914.33 317.4 915.02 C313.52 918.23 310.57 921.75 309.31 926.69 C309.86 929.27 309.86 929.27 312.5 931.19 C325.26 937.79 341.04 936.13 355 936 C353.72 926.99 352.08 918.12 350.06 909.25 C349.81 908.08 349.56 906.9 349.3 905.7 C349.05 904.58 348.79 903.47 348.54 902.33 C348.31 901.33 348.09 900.33 347.86 899.29 C347.43 898.16 347.43 898.16 347 897 C346.01 896.67 345.02 896.34 344 896 Z M-205 897 C-206.14 901.91 -207.28 906.82 -208.42 911.73 C-208.8 913.4 -209.19 915.07 -209.58 916.74 C-210.14 919.15 -210.7 921.55 -211.25 923.95 C-211.51 925.07 -211.51 925.07 -211.78 926.21 C-212.55 929.6 -213 932.5 -213 936 C-192.35 936.91 -192.35 936.91 -173 931 C-172.34 930.34 -171.68 929.68 -171 929 C-171.09 924.08 -172.07 921.2 -175.54 917.68 C-176.04 917.2 -176.55 916.73 -177.06 916.25 C-177.58 915.74 -178.11 915.24 -178.64 914.72 C-186.25 907.6 -195.21 900.71 -205 897 Z M-156 983 C-156 1002.47 -156 1021.94 -156 1042 C-153.44 1043.28 -152.31 1042.88 -149.51 1042.4 C-148.59 1042.24 -147.67 1042.08 -146.71 1041.92 C-145.72 1041.74 -144.72 1041.56 -143.69 1041.38 C-142.66 1041.19 -141.62 1041.01 -140.56 1040.82 C-104.46 1035.24 -104.46 1035.24 -75 1016 C-74.12 1013.24 -73.68 1011.73 -74.87 1009.04 C-88.37 993.06 -113.87 989.43 -133.25 985.62 C-133.92 985.49 -134.6 985.36 -135.29 985.22 C-137.24 984.84 -139.19 984.47 -141.14 984.1 C-142.27 983.89 -143.4 983.68 -144.56 983.46 C-148.74 982.82 -148.74 982.82 -156 983 Z M284.3 983.88 C283.27 984.08 282.24 984.27 281.17 984.47 C280.08 984.69 279 984.9 277.88 985.12 C276.16 985.46 276.16 985.46 274.42 985.81 C242.66 991.29 242.66 991.29 217 1009 C215.99 1011.86 215.63 1013.23 216.94 1015.99 C234.32 1036.18 273.15 1040.24 298 1043 C298 1023.2 298 1003.4 298 983 C291 982.99 291 982.99 284.3 983.88 Z M-293 1016 C-294.17 1018.64 -294.05 1019.83 -293.18 1022.61 C-292.75 1023.58 -292.32 1024.54 -291.88 1025.54 C-291.42 1026.62 -290.96 1027.69 -290.48 1028.8 C-289.5 1031.04 -288.51 1033.28 -287.52 1035.52 C-284.63 1042.31 -283.4 1046.73 -285 1054 C-295.69 1055.19 -304.51 1050.62 -313.94 1046.06 C-316.38 1044.92 -318.5 1044.02 -321.22 1043.9 C-324.13 1045.7 -325.17 1048.54 -326.5 1051.56 C-326.8 1052.23 -327.1 1052.89 -327.41 1053.58 C-338.83 1079.84 -337.33 1110.64 -327 1137 C-320.08 1153.62 -310.95 1167.6 -299 1181 C-298.36 1181.73 -297.71 1182.46 -297.05 1183.21 C-280.29 1201.06 -254.36 1214.12 -229.81 1215.22 C-207.86 1215.84 -188.61 1209.21 -172.32 1194.34 C-171.56 1193.57 -170.79 1192.8 -170 1192 C-168.71 1190.8 -168.71 1190.8 -167.4 1189.57 C-163.75 1185.11 -164.26 1180.05 -164.27 1174.53 C-164.26 1173.38 -164.24 1172.23 -164.22 1171.04 C-164.18 1167.25 -164.17 1163.45 -164.16 1159.66 C-164.15 1157.68 -164.14 1155.7 -164.12 1153.72 C-164.08 1147.5 -164.07 1141.27 -164.07 1135.05 C-164.08 1128.66 -164.02 1122.27 -163.94 1115.88 C-163.88 1110.37 -163.85 1104.87 -163.86 1099.36 C-163.86 1096.08 -163.84 1092.8 -163.79 1089.52 C-163.4 1070.58 -163.4 1070.58 -172.41 1054.61 C-173.27 1053.75 -174.12 1052.89 -175 1052 C-176.5 1050.25 -178.01 1048.5 -179.5 1046.75 C-180.99 1045.16 -182.49 1043.57 -184 1042 C-184.77 1041.17 -185.54 1040.34 -186.33 1039.48 C-204.01 1020.91 -229.39 1008.49 -255.13 1007.72 C-267.84 1007.55 -282.03 1009.11 -293 1016 Z M319 1049 C315.39 1053.48 312.15 1058.19 309 1063 C308.34 1063.99 307.68 1064.98 307 1066 C306.69 1068.29 306.69 1068.29 306.71 1070.86 C306.7 1071.86 306.69 1072.87 306.67 1073.9 C306.67 1075 306.67 1076.1 306.66 1077.23 C306.65 1078.39 306.64 1079.55 306.63 1080.74 C306.59 1084.58 306.57 1088.42 306.56 1092.26 C306.55 1093.57 306.54 1094.88 306.54 1096.23 C306.5 1102.46 306.48 1108.68 306.47 1114.91 C306.45 1122.08 306.41 1129.26 306.34 1136.43 C306.29 1141.98 306.26 1147.53 306.26 1153.09 C306.26 1156.4 306.24 1159.71 306.2 1163.02 C306.16 1166.72 306.16 1170.42 306.17 1174.12 C306.14 1175.76 306.14 1175.76 306.11 1177.42 C306.19 1184.18 307.44 1187.67 312.29 1192.45 C312.85 1192.96 313.42 1193.47 314 1194 C315.05 1195.11 315.05 1195.11 316.12 1196.25 C331.18 1210.3 350.88 1215.62 371.11 1215.27 C399.44 1214.14 424.86 1198.4 443.75 1178.12 C466.83 1152.49 478.46 1119.34 477 1085 C476.03 1070.7 471.66 1056.16 464 1044 C460.6 1044.59 457.63 1045.45 454.46 1046.81 C453.22 1047.34 453.22 1047.34 451.95 1047.88 C451.1 1048.25 450.25 1048.62 449.38 1049 C447.67 1049.73 445.97 1050.46 444.27 1051.19 C443.52 1051.51 442.78 1051.83 442.01 1052.17 C437.36 1054.09 433.98 1054.16 429 1054 C428.34 1053.67 427.68 1053.34 427 1053 C425.62 1046.79 426.25 1042.85 428.69 1037.06 C428.96 1036.37 429.24 1035.67 429.52 1034.96 C431.31 1030.49 433.25 1026.09 435.43 1021.8 C436.19 1019.39 436.09 1018.29 435 1016 C395.92 991.45 345.47 1018.95 319 1049 Z M-156 1080 C-156 1099.8 -156 1119.6 -156 1140 C-148.62 1140 -142.19 1138.89 -135 1137.44 C-134.34 1137.3 -133.68 1137.17 -133 1137.03 C-102.34 1130.94 -102.34 1130.94 -76 1115 C-74.19 1112.17 -74.19 1112.17 -74 1109 C-77.6 1100.77 -86.11 1097.21 -94 1093.94 C-106.53 1089.09 -119.19 1085.82 -132.38 1083.25 C-133.46 1083.04 -134.54 1082.83 -135.65 1082.61 C-142.49 1081.33 -148.98 1080.64 -156 1080 Z M278.5 1082.62 C277.81 1082.76 277.12 1082.89 276.4 1083.03 C244.72 1088.57 244.72 1088.57 218 1105 C215.98 1107.89 215.98 1107.89 216 1111 C219.17 1118.84 227.67 1122.64 235.07 1125.79 C254.21 1133.45 277.28 1140 298 1140 C298 1120.2 298 1100.4 298 1080 C291.32 1080 285.04 1081.35 278.5 1082.62 Z M-156 1190 C-156.08 1194.85 -156.13 1199.7 -156.16 1204.56 C-156.18 1206.2 -156.2 1207.84 -156.23 1209.49 C-156.44 1222.97 -156.11 1236.37 -149.62 1248.56 C-148.78 1250.2 -148.78 1250.2 -147.91 1251.88 C-141.97 1261.58 -133.91 1267.78 -123 1271 C-118.78 1271.65 -114.64 1271.78 -110.38 1271.81 C-109.29 1271.87 -108.21 1271.93 -107.1 1271.99 C-102.53 1272.03 -99.31 1272.02 -95.61 1269.14 C-93.56 1266.85 -91.77 1264.51 -90 1262 C-89.14 1260.96 -88.27 1259.92 -87.39 1258.89 C-86.68 1258.02 -85.98 1257.15 -85.25 1256.25 C-84.53 1255.37 -83.82 1254.49 -83.08 1253.58 C-81.05 1251.06 -79.02 1248.53 -77 1246 C-72.55 1247.6 -70.12 1251.04 -67.19 1254.56 C-66.69 1255.15 -66.2 1255.73 -65.69 1256.33 C-65.18 1256.92 -64.68 1257.52 -64.17 1258.13 C-63.65 1258.74 -63.13 1259.35 -62.59 1259.98 C-61 1262 -61 1262 -59.49 1264.44 C-56.33 1269.31 -56.33 1269.31 -51.26 1271.78 C-48.03 1272.03 -44.93 1271.98 -41.69 1271.81 C-40.07 1271.8 -40.07 1271.8 -38.42 1271.79 C-26.55 1271.48 -17.12 1267.38 -8.9 1258.81 C0.52 1247.83 4.38 1234.86 4.2 1220.59 C4.19 1219.74 4.19 1218.88 4.19 1218.01 C4.18 1215.32 4.15 1212.63 4.12 1209.94 C4.11 1208.1 4.11 1206.26 4.1 1204.42 C4.08 1199.95 4.04 1195.47 4 1191 C3.38 1191.78 2.77 1192.56 2.13 1193.36 C-7.18 1204.91 -17.2 1211.93 -32 1214 C-34.86 1214.1 -37.7 1214.16 -40.57 1214.16 C-41.41 1214.17 -42.25 1214.17 -43.11 1214.18 C-45.88 1214.19 -48.65 1214.2 -51.41 1214.2 C-52.84 1214.21 -52.84 1214.21 -54.29 1214.21 C-59.33 1214.23 -64.36 1214.24 -69.39 1214.24 C-74.56 1214.25 -79.73 1214.27 -84.9 1214.3 C-88.9 1214.32 -92.9 1214.32 -96.9 1214.32 C-98.81 1214.33 -100.71 1214.33 -102.62 1214.35 C-118.79 1214.45 -133.99 1213.55 -146.39 1201.72 C-148.35 1199.54 -150.2 1197.32 -152 1195 C-153.33 1193.33 -154.67 1191.67 -156 1190 Z M138 1191 C137.9 1196.28 137.83 1201.56 137.78 1206.84 C137.76 1208.63 137.73 1210.42 137.7 1212.21 C137.33 1231.62 140.22 1247.27 153.86 1262.02 C157.2 1265.11 160.83 1267.22 165 1269 C165.83 1269.36 166.65 1269.71 167.5 1270.08 C176.45 1272.44 186.9 1272.65 196 1271 C200.61 1268.17 202.4 1264.64 205 1260 C206.93 1257.56 208.99 1255.26 211.06 1252.94 C214.6 1249.44 214.6 1249.44 216 1245 C219.99 1247.12 222.41 1249.39 225.19 1252.94 C225.99 1253.9 226.78 1254.87 227.61 1255.86 C230 1259 230 1259 231.93 1262.39 C234.21 1266.02 236.16 1269.02 240 1271 C251.56 1273.48 264.49 1272.52 275 1267 C286.79 1258.88 294.09 1246.89 297 1233 C298.34 1224 298.12 1214.89 298.06 1205.81 C298.06 1204.37 298.05 1202.93 298.05 1201.48 C298.04 1197.99 298.02 1194.49 298 1191 C295.09 1193.88 292.36 1196.74 289.81 1199.94 C282.21 1208.69 271.71 1212.88 260.42 1213.81 C253.29 1214.21 246.16 1214.14 239.03 1214.13 C237.3 1214.13 235.57 1214.13 233.84 1214.14 C230.24 1214.14 226.63 1214.14 223.02 1214.13 C218.43 1214.12 213.83 1214.13 209.23 1214.13 C205.67 1214.14 202.1 1214.14 198.54 1214.13 C196.84 1214.13 195.15 1214.13 193.46 1214.14 C160.55 1214.17 160.55 1214.17 147.2 1201.36 C144.57 1198.54 142.24 1195.61 140.06 1192.43 C139.53 1191.72 139.53 1191.72 139 1191 C138.67 1191 138.34 1191 138 1191 Z " fill="#000202" transform="translate(344,0)"/>
<path d="M0 0 C1.19 -0.03 2.39 -0.05 3.62 -0.08 C8.3 0.36 11.53 1.77 14.99 4.97 C15.47 5.56 15.94 6.14 16.44 6.75 C16.93 7.34 17.42 7.93 17.93 8.53 C21.7 13.94 20.79 21.93 20.12 28.25 C14.8 52.22 -1 74.27 -15.88 93.25 C-16.57 94.15 -17.27 95.05 -17.99 95.98 C-19.92 98.43 -21.89 100.84 -23.88 103.25 C-24.29 103.75 -24.7 104.25 -25.12 104.77 C-48.11 132.69 -48.11 132.69 -62.88 140.25 C-64.04 140.86 -64.04 140.86 -65.23 141.47 C-77.94 147.58 -93.46 148.33 -106.98 144.35 C-121.6 138.81 -133.65 129.64 -140.25 115.25 C-142.17 106.03 -140.38 98.74 -135.32 90.82 C-127.45 80.25 -116.44 72.25 -105.91 64.51 C-102.65 62.08 -99.44 59.58 -96.25 57.06 C-95.07 56.13 -93.89 55.2 -92.7 54.27 C-92.09 53.78 -91.47 53.29 -90.84 52.79 C-84.21 47.58 -77.55 42.4 -70.88 37.25 C-70.19 36.72 -69.5 36.18 -68.79 35.63 C-58.82 27.95 -48.56 20.9 -37.88 14.25 C-36.82 13.58 -35.76 12.91 -34.66 12.22 C-24.17 5.8 -12.45 0.16 0 0 Z M-70.88 49.25 C-71.47 49.72 -72.07 50.18 -72.68 50.66 C-75.53 52.89 -78.37 55.13 -81.21 57.37 C-85.44 60.7 -89.69 64.01 -93.94 67.31 C-94.7 67.91 -95.47 68.51 -96.26 69.12 C-99.66 71.77 -103.06 74.41 -106.52 76.98 C-122.35 88.6 -122.35 88.6 -131.88 105.25 C-132.64 111.02 -130.11 115.44 -126.8 120.02 C-118 130.25 -105.67 136.34 -92.29 137.47 C-77.69 137.97 -65.4 132.75 -54.75 122.94 C-52.77 121.06 -50.82 119.16 -48.88 117.25 C-48.07 116.48 -47.26 115.72 -46.43 114.93 C-40.74 109.42 -35.81 103.44 -30.88 97.25 C-29.96 96.15 -29.05 95.05 -28.13 93.95 C-11.78 74.2 11.66 45.46 11.35 18.4 C11.04 15.4 10.02 13.57 8.12 11.25 C-12.52 -2.52 -56.15 37.7 -70.88 49.25 Z " fill="#000202" transform="translate(756.875,172.75)"/>
<path d="M0 0 C10.79 5.4 20.74 11.7 30.46 18.83 C31.12 19.32 31.79 19.8 32.48 20.31 C40.7 26.35 48.76 32.58 56.76 38.91 C61 42.26 65.26 45.58 69.52 48.89 C70.67 49.79 70.67 49.79 71.84 50.7 C75.77 53.76 79.72 56.79 83.68 59.81 C86.29 61.79 88.88 63.81 91.46 65.83 C92.01 66.26 92.57 66.7 93.14 67.14 C102.95 74.87 112.18 83.32 115.46 95.83 C116.43 104.46 113.38 111.51 108.33 118.45 C99.52 129.04 86.42 137.53 72.46 138.83 C56.07 139.96 41.32 137.35 28.04 126.93 C25.43 124.64 22.94 122.26 20.46 119.83 C19.91 119.3 19.37 118.77 18.8 118.23 C11.13 110.82 4.05 103.23 -2.54 94.83 C-3.45 93.73 -4.36 92.64 -5.27 91.55 C-22.44 70.82 -45.45 41.7 -45.79 13.45 C-45.82 12.17 -45.84 10.88 -45.87 9.55 C-45.45 4.74 -44.1 1.52 -40.82 -2.04 C-40.24 -2.51 -39.65 -2.99 -39.04 -3.48 C-38.46 -3.98 -37.87 -4.47 -37.26 -4.97 C-26.39 -12.55 -10.39 -5.03 0 0 Z M-35.54 5.83 C-38.58 11.91 -36.56 19.68 -34.67 25.83 C-24.12 56.27 -1.39 83.77 20.46 106.83 C20.98 107.39 21.51 107.95 22.05 108.53 C33.93 121.1 45.71 129.49 63.58 130.08 C76.92 129.92 88.8 125.04 98.48 115.94 C103.17 110.94 106.58 105.89 106.46 98.83 C102.17 81.74 84.89 72.11 71.71 62.08 C67.96 59.22 64.23 56.32 60.52 53.39 C59.96 52.95 59.4 52.51 58.83 52.06 C56.35 50.11 53.87 48.15 51.39 46.2 C15.25 15.22 15.25 15.22 -28.56 1.46 C-31.68 2.04 -33.41 3.57 -35.54 5.83 Z " fill="#000202" transform="translate(98.54296875,180.171875)"/>
<path d="M0 0 C0.66 1.65 1.32 3.3 2 5 C0.88 6.29 -0.25 7.58 -1.38 8.88 C-2 9.59 -2.63 10.31 -3.27 11.05 C-4.47 12.41 -5.72 13.72 -7 15 C-5.9 24.89 -0.42 33.51 6.81 40.25 C29.1 58.02 55.49 64.72 83.67 61.72 C103.83 58.67 125.41 48.57 138.11 32.3 C143.76 24.29 143.76 24.29 145 15 C142.85 12.35 140.59 10.28 137.94 8.14 C137.3 7.43 136.66 6.73 136 6 C136.24 1.76 136.24 1.76 138 0 C142.04 0.18 144.38 0.51 147.59 3.04 C148.36 3.89 149.14 4.75 149.94 5.62 C152.96 8.85 155.95 11.94 159.31 14.81 C159.95 15.36 160.58 15.92 161.23 16.48 C162.83 17.86 164.45 19.21 166.06 20.56 C168 23 168 23 167.81 26.31 C167.54 27.2 167.28 28.09 167 29 C165 29.88 165 29.88 162 30 C159.11 28.26 156.56 26.19 154 24 C153.73 24.61 153.46 25.21 153.19 25.84 C144.05 45.38 126.58 58.5 106.73 66.03 C104.83 66.71 102.92 67.36 101 68 C99.2 68.62 99.2 68.62 97.37 69.25 C77.76 75.27 53.08 74.26 34 67 C33.29 66.74 32.59 66.48 31.86 66.21 C10.89 58.23 -6.62 44.7 -16 24 C-16.52 24.44 -17.04 24.89 -17.57 25.35 C-23.33 30.01 -23.33 30.01 -26.94 29.94 C-29 29 -29 29 -30 28 C-30.41 25.8 -30.41 25.8 -30 23 C-28.22 20.82 -26.54 19.02 -24.5 17.12 C-23.95 16.6 -23.41 16.07 -22.84 15.53 C-18.68 11.55 -14.41 7.7 -10 4 C-9.11 3.2 -8.23 2.39 -7.31 1.56 C-4.63 -0.25 -3.17 -0.36 0 0 Z " fill="#000202" transform="translate(346,635)"/>
<path d="M0 0 C6.12 3.52 11.73 9.08 14.18 15.83 C15.89 24.21 15.59 32.35 11.24 39.81 C6.97 45.6 1.61 50.05 -5.38 52 C-14.95 53.26 -22.45 51.59 -30.38 46 C-36.24 40.37 -39.42 33.21 -39.81 25.12 C-39.57 17.64 -36.69 10.32 -31.38 5 C-22.46 -2.46 -10.9 -4.95 0 0 Z " fill="#000202" transform="translate(620.375,424)"/>
<path d="M0 0 C7 4.77 11.37 11.14 13.09 19.42 C13.86 27.2 12.05 34.41 7.36 40.76 C1.29 47.26 -4.93 50.56 -13.85 50.92 C-21.6 50.62 -28.01 48.51 -33.79 43.23 C-38.99 37.5 -42.03 30.21 -41.91 22.42 C-41.1 14.18 -37.64 7.68 -31.54 2.11 C-22.02 -5.36 -10.58 -6.09 0 0 Z " fill="#000202" transform="translate(235.9140625,425.578125)"/>
<path d="M0 0 C5.1 3.79 8.13 8.45 10.12 14.44 C11.12 22.16 9.52 28.03 5.12 34.44 C0.89 39.21 -3.52 41.99 -9.97 42.65 C-16.7 42.94 -21.89 41.31 -27.56 37.75 C-32.79 32.53 -35.63 27.42 -36 19.95 C-35.63 12.58 -32.72 7.41 -27.71 2.1 C-19.98 -4.89 -8.75 -5.4 0 0 Z M-24.88 12.44 C-26.76 16.21 -26.51 20.34 -25.88 24.44 C-24.05 28.13 -21.64 30.53 -17.98 32.41 C-13.45 33.9 -9.94 33.44 -5.64 31.46 C-2.69 29.75 -1.42 28.53 0.12 25.44 C0.77 20.51 0.78 16.09 -1.06 11.44 C-4.6 7.53 -7.52 6.22 -12.75 5.88 C-18.3 6.02 -21.36 8.28 -24.88 12.44 Z " fill="#000202" transform="translate(498.875,552.5625)"/>
<path d="M0 0 C5.76 4.64 9.3 9.94 10.59 17.29 C10.98 24.07 8.82 30 4.59 35.29 C-1.49 40.38 -6.79 42.68 -14.71 42.55 C-21.25 41.9 -25.91 39.19 -30.34 34.41 C-34.7 28.93 -35.96 23.88 -35.78 16.94 C-34.85 10.31 -31.74 4.96 -26.53 0.79 C-18.38 -4.58 -8.38 -5.51 0 0 Z M-23.41 10.29 C-26.66 15.74 -26.85 19.3 -25.41 25.29 C-22.7 29.97 -19.58 31.84 -14.41 33.29 C-9.48 33.09 -6.24 31.96 -2.41 28.85 C0.88 24.64 1.17 20.48 0.59 15.29 C-0.9 12.08 -2.68 9.56 -5.41 7.29 C-12.1 5.05 -18.08 5.34 -23.41 10.29 Z " fill="#000202" transform="translate(356.40625,552.71484375)"/>
</svg>
