<?xml version="1.0" encoding="UTF-8"?>
<!-- Generator: visioncortex VTracer 0.6.3 -->
<svg version="1.1" xmlns="http://www.w3.org/2000/svg" width="661" height="1280">
<path d="M0 0 C10.51 6.71 17.47 16.18 20.34 28.41 C22.26 39.99 20.33 51.13 14 61.12 C11.01 65.26 7.53 68.78 3.81 72.25 C6 79.88 8.55 87.34 11.23 94.81 C11.87 96.58 11.87 96.58 12.52 98.4 C13.41 100.89 14.3 103.39 15.2 105.89 C16.55 109.64 17.89 113.4 19.23 117.16 C25.44 134.5 25.44 134.5 31.85 151.77 C33.81 157.03 33.81 157.03 33.81 159.25 C34.87 158.63 35.92 158.02 37.01 157.38 C81.63 131.69 130.75 122.69 181.05 135.5 C199.91 140.6 218.41 148.61 234.81 159.25 C234.98 158.67 235.14 158.1 235.31 157.5 C237.37 150.47 239.76 143.59 242.23 136.69 C242.66 135.51 243.08 134.32 243.52 133.1 C244.41 130.61 245.3 128.11 246.2 125.61 C247.55 121.86 248.89 118.1 250.23 114.34 C250.89 112.51 250.89 112.51 251.56 110.65 C252.42 108.23 253.28 105.82 254.14 103.4 C256.06 98.04 258.01 92.68 260.08 87.37 C260.42 86.49 260.76 85.61 261.11 84.7 C261.74 83.1 262.37 81.5 263.02 79.9 C264.61 75.95 264.61 75.95 264.08 71.85 C262.7 70.1 261.24 68.7 259.56 67.25 C251.53 59.45 247.9 48.51 247.44 37.56 C247.65 26.94 251.15 17.48 257.81 9.25 C258.29 8.64 258.77 8.02 259.26 7.39 C266.08 -0.37 276.97 -5.26 287.16 -5.99 C301.43 -6.27 312.21 -2.68 322.81 7.09 C330.9 15.6 334.62 26.58 334.88 38.19 C334.32 51.26 328.47 62.05 319.12 70.94 C310.64 78.08 301.57 80.41 290.81 80.25 C290.65 80.81 290.49 81.37 290.33 81.95 C288.15 89.41 285.6 96.7 282.99 104.02 C282.52 105.34 282.05 106.66 281.58 107.98 C280.6 110.75 279.61 113.52 278.63 116.29 C277.39 119.76 276.15 123.24 274.92 126.71 C269.28 142.58 263.6 158.43 257.81 174.25 C261.37 177.82 264.98 181.33 268.69 184.75 C269.18 185.21 269.67 185.67 270.18 186.14 C273.84 189.53 277.71 192.41 281.81 195.25 C282.32 194.29 282.83 193.33 283.36 192.35 C291.85 176.68 302.02 162.58 313.81 149.25 C314.56 148.39 315.31 147.53 316.08 146.65 C326.12 135.28 336.65 125.28 348.81 116.25 C349.68 115.6 349.68 115.6 350.56 114.95 C373.07 98.17 402.5 78.9 431.81 82.25 C441.65 83.94 449.05 88.56 455.12 96.44 C467.37 114.41 467.1 139.07 463.68 159.79 C458.53 186.62 447.05 209.94 428.81 230.25 C428.12 231.03 427.42 231.81 426.7 232.62 C404.32 256.3 373.64 269.62 342.81 278.25 C343.23 279.06 343.23 279.06 343.66 279.89 C381.27 352.69 401.34 439.55 376.15 519.66 C367.66 545.46 354.29 568.13 335.82 588.03 C334.42 589.58 333.07 591.19 331.77 592.83 C328.84 596.45 325.36 599.25 321.81 602.25 C320.93 603.02 320.06 603.78 319.15 604.57 C300.46 620.62 276.89 635.43 253.11 642.25 C240.38 645.22 240.38 645.22 230.66 653.09 C228.92 656.42 227.73 659.9 226.55 663.45 C224.83 667.64 221.21 670.43 217.81 673.25 C217.15 673.91 216.49 674.57 215.81 675.25 C216.36 675.51 216.9 675.76 217.46 676.03 C228.56 681.66 235.24 689.69 239.55 701.24 C242.67 711.54 241.25 722.33 236.52 731.85 C233.35 737.48 229.62 741.95 224.81 746.25 C225.88 746.87 225.88 746.87 226.97 747.5 C238.3 754.33 245.84 762.73 249.12 775.81 C251.3 787.77 248.71 797.89 242.31 808.16 C240.94 810.07 239.53 811.65 237.81 813.25 C239.19 816.26 240.91 818.94 242.78 821.66 C275.18 868.84 297.04 920.14 309.57 975.75 C310.82 981.32 312.13 986.88 313.44 992.44 C314.07 995.12 314.7 997.8 315.33 1000.48 C315.73 1002.19 316.13 1003.9 316.54 1005.61 C317.1 1007.97 317.65 1010.34 318.2 1012.71 C318.36 1013.4 318.53 1014.09 318.7 1014.81 C319.51 1018.36 319.99 1021.61 319.81 1025.25 C342.42 1019.41 362.85 1011.9 379.81 995.25 C380.51 994.57 381.21 993.9 381.93 993.2 C388.84 986.04 397.42 973.54 397.9 963.32 C397.84 961.09 397.71 958.88 397.54 956.65 C397.46 955.41 397.46 955.41 397.38 954.15 C396.7 943.81 395.81 933.49 394.89 923.17 C394.66 920.62 394.45 918.06 394.24 915.5 C394.13 914.34 394.13 914.34 394.02 913.16 C393.48 906.4 393.48 906.4 395.81 903.25 C400.05 900.68 405.01 900.43 409.81 901.25 C413.04 903.34 414.49 904.79 415.33 908.59 C415.6 910.82 415.76 913.01 415.81 915.25 C416.12 914.21 416.42 913.18 416.73 912.11 C417.15 910.74 417.58 909.37 418 908 C418.2 907.32 418.39 906.64 418.6 905.93 C420.06 901.29 421.61 898.75 425.81 896.25 C430.79 896.34 434.57 897.68 438.81 900.25 C441.04 903.59 440.96 904.86 440.37 908.71 C439.21 913.99 437.49 919.12 435.81 924.25 C436.29 923.68 436.78 923.12 437.27 922.54 C437.91 921.8 438.54 921.07 439.19 920.31 C439.81 919.58 440.44 918.85 441.09 918.1 C443.22 915.82 444.37 915.33 447.44 914.75 C452.42 915.49 455.76 918.3 458.81 922.25 C459.88 925.63 460.27 927.35 458.64 930.54 C452.15 938.05 445.17 945.04 438.09 951.99 C433.63 956.37 429.33 960.79 425.29 965.55 C423.81 967.25 423.81 967.25 422.21 968.78 C419.98 971.13 419.16 974.13 418.06 977.12 C410.13 997.72 396.75 1015.57 377.81 1027.25 C376.82 1027.88 375.84 1028.52 374.82 1029.17 C359.67 1038.39 343.09 1043.65 325.81 1047.25 C328.12 1056.82 330.43 1066.39 332.81 1076.25 C336.3 1076.25 336.99 1075.63 339.75 1073.62 C356.77 1062.01 376.67 1056.85 397.12 1060.31 C404.76 1061.97 412.54 1064.46 418.81 1069.25 C420.4 1073.14 419.82 1075.7 418.38 1079.48 C417.73 1081 417.06 1082.5 416.38 1084 C415.71 1085.51 415.04 1087.03 414.38 1088.55 C413.93 1089.54 413.93 1089.54 413.47 1090.56 C412.69 1092.26 412.69 1092.26 412.81 1094.25 C413.9 1093.76 414.98 1093.26 416.1 1092.75 C417.55 1092.11 418.99 1091.46 420.44 1090.81 C421.15 1090.49 421.86 1090.16 422.6 1089.83 C430.54 1086.29 430.54 1086.29 434.81 1086.25 C442.95 1091.04 445.62 1101.88 448.19 1110.44 C452.34 1127.01 451.35 1146.12 445.81 1162.25 C445.57 1162.95 445.33 1163.66 445.08 1164.38 C436 1189.97 418.27 1211.76 393.66 1223.67 C376.03 1231.82 355.58 1234.92 336.83 1228.52 C329.82 1225.56 323.68 1222.11 317.81 1217.25 C317.77 1219.17 317.77 1219.17 317.73 1221.13 C317.27 1237.34 315.42 1251.93 303.86 1264.34 C293.54 1273.92 282.45 1275.35 268.77 1275.07 C263.75 1274.67 260.84 1273.7 257.29 1270.1 C255.24 1267.58 253.5 1265.04 251.81 1262.25 C251.15 1261.26 250.49 1260.27 249.81 1259.25 C249.15 1259.25 248.49 1259.25 247.81 1259.25 C246.27 1260.95 244.8 1262.71 243.38 1264.5 C242.59 1265.47 241.81 1266.45 241 1267.45 C238.86 1270.07 238.86 1270.07 237.5 1272.39 C235.81 1274.25 235.81 1274.25 233.43 1274.77 C232.5 1274.77 231.58 1274.78 230.62 1274.78 C229.59 1274.79 228.57 1274.79 227.51 1274.8 C226.43 1274.78 225.36 1274.77 224.25 1274.75 C223.2 1274.77 222.16 1274.78 221.08 1274.8 C209.82 1274.74 200.9 1271.12 192.81 1263.25 C179 1246.42 180.54 1228.06 179.81 1206.25 C150.11 1206.25 120.41 1206.25 89.81 1206.25 C89.81 1216.48 89.81 1226.71 89.81 1237.25 C85.39 1251.61 81.04 1263.3 67.9 1271.24 C61.2 1274.48 55.09 1274.65 47.75 1274.69 C46.67 1274.72 45.6 1274.75 44.49 1274.79 C36.62 1274.84 36.62 1274.84 32.83 1272.05 C31.83 1270.67 31.83 1270.67 30.81 1269.25 C30.1 1268.37 29.38 1267.48 28.64 1266.57 C27.29 1264.8 25.93 1263.03 24.58 1261.26 C24 1260.6 23.41 1259.93 22.81 1259.25 C22.15 1259.25 21.49 1259.25 20.81 1259.25 C19.27 1260.95 17.8 1262.71 16.38 1264.5 C15.59 1265.47 14.81 1266.45 14 1267.45 C11.86 1270.07 11.86 1270.07 10.5 1272.39 C8.81 1274.25 8.81 1274.25 6.43 1274.77 C5.5 1274.77 4.58 1274.78 3.62 1274.78 C2.59 1274.79 1.57 1274.79 0.51 1274.8 C-0.57 1274.78 -1.64 1274.77 -2.75 1274.75 C-3.8 1274.77 -4.84 1274.78 -5.92 1274.8 C-16.56 1274.74 -25.35 1271.54 -33.19 1264.25 C-43.4 1253.27 -46.33 1239.69 -46.81 1225.19 C-46.85 1224.23 -46.89 1223.27 -46.93 1222.28 C-47.02 1219.93 -47.11 1217.59 -47.19 1215.25 C-47.61 1215.64 -48.04 1216.03 -48.48 1216.43 C-52.4 1219.92 -56.2 1222.6 -60.94 1224.94 C-62.05 1225.5 -63.15 1226.06 -64.3 1226.64 C-72.81 1230.4 -81.18 1231.79 -90.44 1231.69 C-91.44 1231.68 -92.44 1231.67 -93.48 1231.66 C-112.64 1231.22 -129.42 1223.16 -144.19 1211.25 C-144.89 1210.7 -145.6 1210.15 -146.32 1209.58 C-165.18 1194.04 -177.68 1169.26 -181.19 1145.25 C-182.45 1125.21 -181.23 1106.56 -170.19 1089.25 C-168.21 1087.34 -168.21 1087.34 -166.19 1086.25 C-158.19 1087.14 -151.34 1090.73 -144.19 1094.25 C-146 1088.57 -148.03 1083.13 -150.52 1077.71 C-151.42 1074.41 -151.29 1072.5 -150.19 1069.25 C-138.11 1060.02 -121.12 1057.87 -106.48 1059.72 C-92.26 1061.89 -80.01 1067 -68.19 1075.25 C-67.2 1075.91 -66.21 1076.57 -65.19 1077.25 C-63.12 1071.35 -61.41 1065.46 -60.03 1059.37 C-59.84 1058.53 -59.64 1057.69 -59.44 1056.82 C-58.81 1054.07 -58.18 1051.31 -57.55 1048.55 C-57.1 1046.6 -56.65 1044.65 -56.2 1042.7 C-55.01 1037.55 -53.83 1032.4 -52.65 1027.25 C-51.71 1023.14 -50.77 1019.03 -49.82 1014.92 C-48.67 1009.9 -47.51 1004.89 -46.36 999.87 C-46.13 998.88 -45.91 997.9 -45.67 996.89 C-43.46 987.25 -41.25 977.6 -39.12 967.94 C-33.47 942.39 -33.47 942.39 -29.5 931.06 C-29.08 929.84 -28.66 928.62 -28.23 927.37 C-9.25 872.77 22.56 807.87 69.72 772.04 C72.2 769.92 72.3 769.4 72.81 766.25 C72.98 763.51 73.1 760.78 73.19 758.04 C73.21 757.21 73.24 756.38 73.27 755.53 C73.36 752.79 73.45 750.05 73.53 747.31 C73.59 745.39 73.66 743.47 73.72 741.55 C73.89 736.49 74.05 731.42 74.21 726.35 C74.47 718.29 74.73 710.24 75 702.18 C75.09 699.4 75.18 696.61 75.27 693.83 C75.65 681.96 76.18 670.11 76.81 658.25 C76.18 658.16 75.56 658.06 74.91 657.96 C59.16 655.57 44.03 651.94 28.81 647.25 C27.95 646.99 27.09 646.73 26.2 646.46 C-0.52 638.22 -27.22 624.95 -48.19 606.25 C-49.07 605.46 -49.95 604.68 -50.86 603.87 C-52.57 602.33 -54.28 600.79 -55.98 599.24 C-57.74 597.65 -59.52 596.16 -61.38 594.69 C-65.05 591.5 -68.09 588 -71.19 584.25 C-72.03 583.24 -72.86 582.23 -73.73 581.18 C-97.02 552.57 -110.47 518.52 -116.19 482.25 C-116.31 481.53 -116.42 480.8 -116.55 480.06 C-127.37 411.14 -105.54 338.87 -74.19 278.25 C-75.39 277.92 -76.59 277.59 -77.82 277.25 C-116.33 266.39 -153.03 245.61 -175.19 211.25 C-175.76 210.36 -176.34 209.47 -176.93 208.55 C-193.06 182.28 -201.53 146.53 -195.01 116.09 C-191.92 104.13 -186.92 93.68 -176.31 86.94 C-164.16 80.18 -151.04 81.11 -137.99 84.65 C-99.23 96.32 -62.91 125.7 -38.19 157.25 C-37.02 158.69 -37.02 158.69 -35.83 160.16 C-27.22 170.99 -19.12 182.72 -13.19 195.25 C-4.48 189.05 3.28 181.82 10.81 174.25 C7.81 165.79 4.8 157.33 1.79 148.87 C1.07 146.82 0.34 144.78 -0.39 142.74 C-6.51 125.52 -12.65 108.31 -18.99 91.17 C-19.42 89.99 -19.85 88.81 -20.3 87.59 C-20.67 86.59 -21.04 85.6 -21.42 84.57 C-22.19 82.25 -22.19 82.25 -22.19 80.25 C-23.45 80.33 -24.7 80.42 -26 80.5 C-36.43 80.47 -45.85 75.2 -53.35 68.25 C-61.74 59.46 -66.08 48.65 -66.22 36.5 C-65.52 24.16 -60.48 12.96 -51.44 4.5 C-36.54 -7.78 -16.73 -9.39 0 0 Z M-48.86 12.88 C-56.05 20.57 -58.6 29.64 -58.45 39.96 C-57.59 50.71 -53.1 58.11 -45.19 65.25 C-37.9 71.13 -29.02 73.9 -19.68 73.52 C-9.53 72.41 -0.96 67.82 5.73 60.01 C7.27 57.81 8.57 55.62 9.81 53.25 C10.32 52.37 10.32 52.37 10.84 51.46 C14.58 43.65 14.15 31.92 11.38 23.88 C6.83 14.36 -1.08 7.47 -10.55 3.18 C-24.65 -1.78 -38.51 2.84 -48.86 12.88 Z M264.81 12.25 C256.62 22.8 254.64 32.07 255.81 45.25 C258.2 55.53 264.48 63.08 273.18 68.77 C281.4 73.38 290.56 74.88 299.74 72.49 C310.2 68.9 318.55 63.07 323.69 53.12 C327.58 45.05 328.21 35.77 326.01 27.09 C322.49 17.73 316.69 9.97 307.75 5.25 C292.69 -1.35 276.84 0.54 264.81 12.25 Z M-9.25 78.25 C-10.63 78.81 -10.63 78.81 -12.04 79.38 C-13.1 79.81 -13.1 79.81 -14.19 80.25 C-11.83 88.53 -9 96.63 -6.11 104.74 C-5.61 106.14 -5.12 107.53 -4.63 108.93 C-3.33 112.59 -2.03 116.24 -0.73 119.9 C0.57 123.56 1.87 127.22 3.17 130.88 C3.42 131.59 3.67 132.3 3.94 133.04 C5.19 136.56 6.44 140.09 7.68 143.62 C8.16 144.97 8.64 146.33 9.12 147.68 C9.47 148.66 9.47 148.66 9.82 149.66 C11.24 153.66 12.68 157.65 14.14 161.64 C14.65 163.04 14.65 163.04 15.17 164.47 C15.77 166.14 16.39 167.81 17.01 169.47 C19.2 175.55 19.2 175.55 17.81 179.25 C15.91 181.07 14.05 182.69 12 184.31 C10.81 185.28 9.63 186.25 8.45 187.23 C7.85 187.72 7.24 188.22 6.62 188.73 C2.78 191.96 -0.86 195.42 -4.53 198.84 C-11.6 205.25 -11.6 205.25 -16.19 205.25 C-16.63 204.38 -17.06 203.5 -17.52 202.6 C-27.79 182.53 -41.02 164.17 -56.62 147.89 C-57.72 146.74 -58.82 145.58 -59.91 144.41 C-82.12 120.8 -119.1 90.97 -153.43 89.91 C-162.98 89.78 -169.62 90.58 -177.16 96.91 C-187.25 107.04 -189.31 122.65 -189.5 136.31 C-189.34 172.74 -174.36 205.57 -148.75 231.05 C-126.6 252.46 -94.71 267.92 -64.19 272.25 C-66.41 279.68 -69.61 286.21 -73.19 293.06 C-107.37 360.08 -123.45 442.81 -100.95 516.02 C-94.26 536.57 -84.09 555.01 -71.19 572.25 C-70.6 573.04 -70.01 573.83 -69.4 574.64 C-69 575.17 -68.6 575.7 -68.19 576.25 C-64.82 575.13 -64.63 574.8 -62.98 571.88 C-62.36 570.82 -62.36 570.82 -61.72 569.73 C-61.28 568.95 -60.83 568.17 -60.38 567.38 C-51.51 552.43 -41.05 538.69 -29.5 525.72 C-28.32 524.4 -27.16 523.07 -26 521.73 C-15.69 509.97 -4.59 498.79 7.81 489.25 C9.25 488.09 9.25 488.09 10.71 486.91 C51.6 454.35 102.49 436.47 154.94 441.94 C197.95 447.09 236.62 468.03 268.81 496.25 C269.63 496.95 270.44 497.66 271.29 498.38 C283.06 508.72 294.22 519.85 303.81 532.25 C304.65 533.29 305.5 534.33 306.34 535.37 C316.79 548.29 326.08 562.12 334.81 576.25 C338.08 575.16 338.51 574.68 340.41 572 C340.9 571.31 341.39 570.63 341.89 569.93 C342.4 569.19 342.91 568.45 343.44 567.69 C343.97 566.92 344.5 566.15 345.05 565.36 C382.1 511.28 384.9 445.77 373.24 383.16 C366.55 348.83 353.69 316.02 337.66 285.05 C337.17 284.1 336.68 283.16 336.18 282.18 C335.75 281.35 335.32 280.51 334.87 279.66 C333.78 277.19 333.24 274.91 332.81 272.25 C333.83 272.03 334.85 271.81 335.9 271.59 C359.3 266.41 381.12 258.12 400.81 244.25 C402.39 243.15 402.39 243.15 404 242.02 C416.48 232.88 428.91 221.65 436.81 208.25 C437.16 207.68 437.5 207.12 437.86 206.53 C453.9 180.17 462.96 146.34 455.85 115.69 C453.08 106.48 449.14 98.51 440.81 93.25 C435.52 90.54 431.29 89.7 425.38 89.75 C424.59 89.75 423.81 89.76 423.01 89.77 C410.02 90.15 398.26 95.46 386.81 101.25 C385.77 101.77 384.72 102.3 383.64 102.84 C354.84 117.78 328.2 140.41 309.04 166.57 C307.81 168.25 306.56 169.9 305.31 171.56 C297.46 182.09 290.61 193.47 284.81 205.25 C279.36 204.87 277.27 203.22 273.62 199.25 C268.4 193.72 262.76 188.99 256.81 184.25 C254.46 182.27 252.14 180.26 249.81 178.25 C251.22 171.17 253.31 164.55 255.74 157.75 C256.13 156.66 256.52 155.56 256.91 154.43 C257.74 152.1 258.57 149.76 259.4 147.43 C260.7 143.79 261.98 140.15 263.27 136.51 C266.78 126.58 270.3 116.66 273.86 106.75 C275 103.56 276.14 100.36 277.28 97.17 C278.05 95.04 278.82 92.91 279.6 90.78 C280.05 89.51 280.5 88.25 280.95 86.98 C281.34 85.91 281.73 84.84 282.13 83.74 C283.1 81.28 283.1 81.28 281.81 79.25 C278.2 77.8 275.75 77.25 271.81 77.25 C269.48 83.64 267.14 90.04 264.81 96.44 C264.46 97.41 264.11 98.38 263.74 99.38 C259.53 110.94 255.35 122.51 251.26 134.12 C250.89 135.15 250.53 136.19 250.15 137.25 C248.38 142.27 246.62 147.28 244.87 152.3 C244.23 154.12 243.59 155.94 242.95 157.76 C242.66 158.59 242.37 159.43 242.07 160.29 C240.04 166.02 240.04 166.02 237.81 168.25 C234.86 167.86 232.57 166.69 230.01 165.21 C229.29 164.8 228.57 164.39 227.83 163.96 C227.06 163.52 226.29 163.08 225.5 162.62 C183.69 139.13 136.07 129.83 89.19 142.94 C71.21 148.27 53.83 155.65 37.82 165.47 C36.19 166.47 34.51 167.37 32.81 168.25 C29.81 167.25 29.81 167.25 28.8 165.36 C28.5 164.54 28.2 163.71 27.89 162.86 C27.55 161.92 27.2 160.98 26.84 160.01 C26.3 158.46 26.3 158.46 25.73 156.88 C25.34 155.81 24.95 154.74 24.55 153.64 C23.29 150.18 22.05 146.71 20.81 143.25 C20 141.01 19.19 138.77 18.38 136.53 C15.92 129.73 13.49 122.93 11.06 116.12 C10.23 113.8 9.4 111.47 8.57 109.15 C6.31 102.85 4.06 96.55 1.81 90.25 C1.25 88.67 0.69 87.1 0.12 85.52 C-0.98 82.43 -2.08 79.34 -3.19 76.25 C-5.27 76.25 -7.36 77.48 -9.25 78.25 Z M98.81 451.25 C98.01 451.45 97.2 451.65 96.38 451.85 C53.97 462.51 18.78 485.76 -11.81 516.56 C-12.63 517.38 -12.63 517.38 -13.46 518.22 C-21.35 526.13 -28.64 534.19 -35.19 543.25 C-36.81 545.29 -38.44 547.33 -40.06 549.38 C-46.16 557.31 -51.55 565.72 -56.88 574.19 C-57.93 575.84 -59.02 577.47 -60.13 579.09 C-61.35 581.16 -61.35 581.16 -61.12 583.3 C-49.14 608.41 -2.62 628.29 21.7 636.91 C53.18 647.86 86.2 654.31 119.59 654.45 C120.68 654.46 121.76 654.47 122.88 654.47 C155.97 654.75 155.97 654.75 188.81 651.25 C190.65 650.95 190.65 650.95 192.53 650.65 C244.62 641.99 292.14 621.92 329.81 584.25 C329.5 580.15 327.9 577.45 325.64 574.07 C324.98 573.09 324.32 572.1 323.65 571.09 C322.94 570.05 322.23 569.01 321.5 567.94 C320.78 566.86 320.05 565.79 319.3 564.68 C313.4 556 307.34 547.48 300.81 539.25 C300.39 538.71 299.97 538.18 299.54 537.63 C285.47 519.86 268.31 502.36 249.81 489.25 C248.74 488.44 247.67 487.63 246.6 486.81 C205.9 456.16 149.44 438.21 98.81 451.25 Z M217.93 652.31 C216.93 652.53 215.92 652.75 214.89 652.98 C212.78 653.45 210.67 653.91 208.55 654.38 C199.88 656.29 199.88 656.29 195.63 656.85 C192.91 656.95 192.91 656.95 191.81 658.25 C191.72 661.02 191.69 663.76 191.71 666.54 C191.71 667.39 191.72 668.24 191.72 669.12 C191.78 678.64 192.09 688.16 192.43 697.67 C192.5 699.56 192.56 701.44 192.63 703.32 C192.76 707.23 192.9 711.14 193.04 715.04 C193.22 720.03 193.39 725.03 193.56 730.02 C193.69 733.89 193.82 737.77 193.96 741.64 C194.03 743.48 194.09 745.32 194.15 747.16 C194.24 749.73 194.33 752.3 194.42 754.86 C194.45 755.61 194.47 756.36 194.5 757.13 C194.47 765.05 194.47 765.05 197.16 772.19 C197.73 772.68 198.29 773.17 198.88 773.68 C199.5 774.24 200.13 774.81 200.78 775.39 C201.45 775.96 202.12 776.53 202.81 777.12 C204.19 778.36 205.57 779.59 206.95 780.82 C207.61 781.41 208.28 782 208.97 782.61 C215.56 788.48 221.29 794.86 226.77 801.77 C228.67 804.08 230.66 806.18 232.81 808.25 C239.97 798.25 243.09 790.79 241.81 778.25 C240.06 769.47 235.54 763.07 228.81 757.25 C225.61 755.18 222.36 753.65 218.81 752.25 C218.02 751.93 217.22 751.62 216.4 751.29 C214.55 750.58 212.68 749.91 210.81 749.25 C211 747.44 211 747.44 211.81 745.25 C214.04 743.71 214.04 743.71 216.88 742.19 C224.83 737.38 230.48 730.33 232.81 721.25 C233.84 709.84 232.98 700.16 225.62 690.94 C218.52 683.47 209.53 680.94 199.81 678.25 C199.95 675.94 199.95 675.94 200.81 673.25 C203.36 671.62 203.36 671.62 206.56 670.25 C211.2 668.1 214.52 666.26 217.81 662.25 C218.9 661.04 218.9 661.04 220 659.81 C221.96 657.04 222.9 654.51 223.81 651.25 C221.83 651.25 219.85 651.88 217.93 652.31 Z M84.81 659.25 C83.58 662.96 83.55 666.47 83.44 670.34 C83.41 671.16 83.38 671.99 83.36 672.84 C83.26 675.58 83.18 678.31 83.09 681.05 C83.03 682.97 82.97 684.89 82.9 686.81 C82.74 691.88 82.57 696.95 82.41 702.03 C82.15 710.08 81.89 718.13 81.62 726.18 C81.53 728.97 81.45 731.75 81.36 734.53 C81.22 738.88 81.06 743.23 80.9 747.58 C80.81 750.41 80.73 753.24 80.65 756.06 C80.59 757.96 80.52 759.86 80.46 761.76 C80.44 762.64 80.42 763.52 80.4 764.42 C80.21 769.16 79.86 772.4 76.81 776.25 C74.72 778.14 72.63 779.92 70.44 781.69 C15.21 827.69 -17.89 906.34 -33.23 974.6 C-33.59 976.22 -33.96 977.83 -34.33 979.45 C-36.1 987.25 -37.85 995.05 -39.6 1002.85 C-40.6 1007.27 -41.6 1011.7 -42.6 1016.13 C-42.89 1017.44 -42.89 1017.44 -43.19 1018.77 C-45.69 1029.84 -48.29 1040.87 -51.06 1051.87 C-51.87 1055.15 -52.68 1058.44 -53.49 1061.73 C-53.99 1063.73 -54.51 1065.73 -55.04 1067.72 C-55.76 1070.42 -56.44 1073.13 -57.1 1075.84 C-57.32 1076.61 -57.54 1077.37 -57.76 1078.16 C-58.41 1080.58 -58.41 1080.58 -58.19 1084.25 C-56.23 1087.06 -53.8 1089.06 -51.19 1091.25 C-49.54 1092.9 -47.89 1094.55 -46.19 1096.25 C-45.86 1083.05 -45.53 1069.85 -45.19 1056.25 C-43.54 1055.92 -41.89 1055.59 -40.19 1055.25 C-40.18 1055.83 -40.18 1056.41 -40.17 1057.01 C-40.07 1071.26 -39.96 1085.5 -39.85 1099.74 C-39.79 1106.63 -39.74 1113.52 -39.69 1120.41 C-39.64 1127.07 -39.59 1133.72 -39.53 1140.38 C-39.51 1142.91 -39.5 1145.44 -39.48 1147.97 C-40.96 1180.87 -40.96 1180.87 -27.19 1209.25 C-17.59 1218.15 -6.37 1217.41 5.96 1217.42 C7.2 1217.42 8.45 1217.42 9.73 1217.43 C12.36 1217.43 14.99 1217.44 17.61 1217.44 C21.6 1217.44 25.59 1217.46 29.58 1217.47 C32.14 1217.48 34.71 1217.48 37.27 1217.48 C38.45 1217.49 39.63 1217.49 40.84 1217.5 C55.93 1217.62 55.93 1217.62 69 1211.07 C83.54 1196.44 82.89 1179.41 83.38 1160.06 C83.42 1158.43 83.46 1156.79 83.51 1155.15 C83.61 1151.19 83.71 1147.22 83.81 1143.25 C84.8 1142.92 85.79 1142.59 86.81 1142.25 C87.47 1142.58 88.13 1142.91 88.81 1143.25 C89.14 1161.4 89.47 1179.55 89.81 1198.25 C119.51 1198.25 149.21 1198.25 179.81 1198.25 C180.14 1179.77 180.47 1161.29 180.81 1142.25 C182.79 1142.58 184.77 1142.91 186.81 1143.25 C186.82 1144.48 186.83 1145.72 186.84 1146.99 C186.88 1151.63 186.95 1156.27 187.02 1160.91 C187.05 1162.9 187.07 1164.9 187.08 1166.9 C187.21 1183.44 188 1197.47 199.81 1210.25 C208.62 1217.78 218.98 1217.55 230.02 1217.52 C231.4 1217.52 232.78 1217.52 234.15 1217.52 C237.03 1217.52 239.91 1217.52 242.78 1217.51 C246.44 1217.5 250.1 1217.51 253.76 1217.52 C256.6 1217.53 259.45 1217.52 262.29 1217.52 C264.28 1217.52 266.28 1217.52 268.28 1217.53 C279.44 1217.47 289.21 1216.96 297.81 1209.25 C304.51 1201.45 308.94 1191.11 308.93 1180.8 C308.93 1179.69 308.94 1178.58 308.94 1177.44 C308.93 1176.23 308.93 1175.02 308.93 1173.77 C308.93 1171.85 308.93 1171.85 308.93 1169.9 C308.93 1166.4 308.92 1162.89 308.91 1159.39 C308.91 1155.73 308.91 1152.07 308.91 1148.41 C308.9 1141.48 308.89 1134.55 308.88 1127.62 C308.87 1119.73 308.87 1111.83 308.86 1103.94 C308.85 1087.71 308.83 1071.48 308.81 1055.25 C310.79 1055.25 312.77 1055.25 314.81 1055.25 C315.84 1059.55 316.03 1063.78 316.13 1068.18 C316.15 1068.92 316.17 1069.67 316.19 1070.44 C316.26 1072.81 316.32 1075.19 316.38 1077.56 C316.42 1079.18 316.46 1080.79 316.51 1082.41 C316.61 1086.36 316.71 1090.3 316.81 1094.25 C317.53 1093.55 318.26 1092.85 319 1092.12 C319.41 1091.73 319.81 1091.34 320.23 1090.93 C320.75 1090.38 321.27 1089.82 321.81 1089.25 C322.72 1088.38 323.63 1087.5 324.57 1086.61 C326.9 1083.75 326.81 1083.29 326.65 1079.28 C326.31 1077.74 325.94 1076.21 325.54 1074.69 C325.34 1073.84 325.14 1073 324.94 1072.13 C324.28 1069.33 323.58 1066.54 322.88 1063.75 C322.4 1061.77 321.92 1059.78 321.45 1057.79 C320.19 1052.52 318.9 1047.26 317.6 1042 C316.33 1036.84 315.09 1031.67 313.84 1026.5 C312.36 1020.33 310.87 1014.16 309.36 1008 C306.78 997.45 304.25 986.89 301.82 976.3 C301.57 975.24 301.33 974.19 301.08 973.1 C299.92 968.07 298.77 963.05 297.64 958.02 C294.09 942.44 289.43 927.42 283.19 912.69 C282.56 911.19 282.56 911.19 281.92 909.67 C262.91 865.08 234.36 803.44 191.74 776.29 C188.89 773.9 188.32 772.13 187.95 768.45 C187.86 766.48 187.81 764.51 187.78 762.54 C187.74 761.46 187.7 760.38 187.66 759.27 C187.54 755.71 187.47 752.15 187.39 748.59 C187.31 746.11 187.23 743.64 187.15 741.16 C186.94 734.65 186.77 728.14 186.6 721.63 C186.4 713.71 186.15 705.79 185.91 697.87 C185.72 691.71 185.54 685.55 185.38 679.39 C185.35 678.25 185.32 677.12 185.29 675.96 C185.23 673.84 185.17 671.73 185.12 669.61 C185.1 668.68 185.07 667.75 185.04 666.79 C185.02 665.98 185 665.17 184.98 664.34 C184.88 662.06 184.88 662.06 183.81 659.25 C182.92 659.31 182.02 659.37 181.09 659.43 C179.22 659.56 179.22 659.56 177.31 659.69 C176.11 659.77 174.9 659.85 173.66 659.93 C172.57 660 172.57 660 171.47 660.07 C169.43 660.21 167.38 660.35 165.34 660.5 C155.18 661.2 145.06 661.45 134.88 661.44 C134.08 661.44 133.28 661.44 132.46 661.44 C119.24 661.44 106.22 660.75 93.06 659.44 C90.3 659.21 87.57 659.18 84.81 659.25 Z M427.81 904.25 C427.54 905.05 427.54 905.05 427.26 905.86 C425.35 911.4 423.43 916.93 421.51 922.46 C420.8 924.52 420.08 926.59 419.37 928.65 C418.35 931.62 417.32 934.59 416.29 937.55 C415.97 938.48 415.65 939.4 415.33 940.35 C415.03 941.21 414.73 942.08 414.42 942.96 C414.15 943.72 413.89 944.48 413.62 945.26 C412.81 947.25 412.81 947.25 410.81 950.25 C410.73 949.11 410.64 947.98 410.55 946.81 C410.23 942.6 409.91 938.39 409.59 934.18 C409.45 932.36 409.31 930.53 409.17 928.71 C408.97 926.09 408.77 923.47 408.57 920.86 C408.51 920.04 408.45 919.22 408.38 918.38 C408.13 915.16 407.84 912.33 406.81 909.25 C405.16 909.25 403.51 909.25 401.81 909.25 C402.29 921.63 403.24 933.97 404.31 946.31 C404.38 947.08 404.44 947.85 404.51 948.65 C404.7 950.86 404.9 953.07 405.09 955.29 C405.21 956.58 405.32 957.87 405.44 959.2 C405.63 962.16 405.63 962.16 406.81 964.25 C409.13 964.98 411.46 965.65 413.81 966.25 C416.84 963.25 419.86 960.25 422.88 957.25 C423.72 956.41 424.57 955.57 425.44 954.71 C429.87 950.3 434.13 945.83 438.2 941.09 C440.75 938.18 443.49 935.46 446.25 932.75 C446.79 932.21 447.33 931.68 447.89 931.12 C449.19 929.83 450.5 928.54 451.81 927.25 C450.82 925.93 449.83 924.61 448.81 923.25 C445.19 924.75 443.18 926.81 440.62 929.75 C439.84 930.65 439.05 931.54 438.24 932.47 C437.04 933.85 437.04 933.85 435.81 935.25 C434.32 936.92 432.82 938.59 431.31 940.25 C430.58 941.06 429.85 941.87 429.1 942.71 C423.46 948.98 423.46 948.98 417.81 955.25 C420.53 944.38 424.24 933.85 427.85 923.25 C428.67 920.85 429.48 918.44 430.29 916.03 C430.55 915.29 430.8 914.56 431.06 913.8 C432.06 910.82 432.81 908.41 432.81 905.25 C431.16 904.92 429.51 904.59 427.81 904.25 Z M403.81 971.25 C403.1 972.77 403.1 972.77 402.38 974.33 C390.54 999.21 371.69 1015.96 345.81 1025.25 C338.2 1027.77 330.52 1030.04 322.81 1032.25 C323.14 1034.89 323.47 1037.53 323.81 1040.25 C354.98 1032.92 384.85 1020.14 402.81 992.25 C404.5 989.42 406.06 986.55 407.56 983.62 C408.08 982.61 408.08 982.61 408.62 981.58 C410.41 977.85 410.41 977.85 410.52 973.79 C410.28 973.28 410.05 972.77 409.81 972.25 C407.83 971.92 405.85 971.59 403.81 971.25 Z M-138.19 1071.25 C-139.13 1071.62 -140.07 1072 -141.04 1072.38 C-141.75 1072.67 -142.46 1072.96 -143.19 1073.25 C-142.41 1078.36 -140.35 1082.87 -138.27 1087.55 C-136.42 1091.94 -135.63 1095.5 -136.19 1100.25 C-139.19 1102.25 -139.19 1102.25 -142.32 1102.1 C-146.86 1101.1 -150.87 1099.53 -155.12 1097.69 C-155.9 1097.36 -156.68 1097.03 -157.49 1096.69 C-159.39 1095.88 -161.29 1095.07 -163.19 1094.25 C-171.16 1101.17 -173.29 1114.12 -174.19 1124.25 C-175.71 1150.21 -167.52 1175 -150.39 1194.7 C-135.42 1211.38 -116.26 1222.73 -93.61 1224.54 C-80.47 1224.87 -68.19 1221.61 -57.19 1214.25 C-56.29 1213.7 -55.39 1213.15 -54.47 1212.58 C-49.56 1208.98 -46.18 1205.97 -45.15 1199.77 C-44.61 1194.17 -44.68 1188.57 -44.76 1182.95 C-44.76 1180.86 -44.75 1178.78 -44.74 1176.7 C-44.73 1172.34 -44.75 1167.98 -44.81 1163.62 C-44.88 1158.07 -44.85 1152.51 -44.8 1146.96 C-44.76 1142.66 -44.78 1138.35 -44.81 1134.05 C-44.82 1132.01 -44.81 1129.96 -44.79 1127.91 C-44.71 1115.98 -45.34 1107.94 -53.54 1098.89 C-54.41 1098.02 -55.29 1097.15 -56.19 1096.25 C-57.11 1095.25 -58.02 1094.24 -58.94 1093.23 C-72.04 1078.9 -91.08 1067.91 -110.77 1066.91 C-112.32 1066.88 -113.88 1066.87 -115.44 1066.88 C-116.26 1066.88 -117.08 1066.88 -117.93 1066.88 C-125.24 1067.01 -131.38 1068.52 -138.19 1071.25 Z M322.81 1098.25 C322.06 1099.07 322.06 1099.07 321.3 1099.91 C316.78 1105.29 315.93 1109.29 315.99 1116.21 C315.97 1117.17 315.96 1118.14 315.94 1119.13 C315.9 1122.3 315.9 1125.46 315.91 1128.62 C315.9 1130.84 315.89 1133.05 315.87 1135.26 C315.85 1139.89 315.85 1144.51 315.87 1149.14 C315.88 1155.06 315.83 1160.97 315.76 1166.89 C315.72 1171.46 315.72 1176.02 315.72 1180.58 C315.72 1182.77 315.71 1184.95 315.68 1187.13 C315.11 1198.72 315.11 1198.72 318.77 1209.33 C321.04 1211.4 323.1 1212.84 325.81 1214.25 C326.42 1214.64 327.03 1215.03 327.66 1215.42 C341.63 1224.04 356.95 1226.14 372.94 1223.06 C396.56 1217.41 415.83 1202.04 428.69 1181.65 C441.38 1160.67 446.07 1135.97 440.8 1111.97 C439.03 1105.3 436.84 1099.09 431.81 1094.25 C431.24 1094.5 430.66 1094.75 430.07 1095 C427.45 1096.12 424.82 1097.22 422.19 1098.31 C421.28 1098.7 420.38 1099.09 419.45 1099.49 C410.99 1102.98 410.99 1102.98 405.81 1101.25 C404.81 1100.25 404.81 1100.25 404.53 1097.23 C404.87 1092.4 406.34 1088.87 408.31 1084.5 C408.97 1083.01 409.63 1081.51 410.28 1080.02 C410.72 1079.04 410.72 1079.04 411.17 1078.04 C411.98 1076.1 411.98 1076.1 411.81 1073.25 C409.75 1072.43 407.69 1071.62 405.62 1070.81 C404.48 1070.36 403.33 1069.91 402.14 1069.44 C372.5 1058.84 342.1 1076.81 322.81 1098.25 Z M-39.19 1207.25 C-40.27 1234.67 -40.27 1234.67 -28.19 1258.25 C-22.6 1263.78 -17.97 1266.04 -10.19 1267.25 C-9.04 1267.43 -7.89 1267.62 -6.71 1267.8 C0.22 1268.54 0.22 1268.54 6.51 1266.05 C9.68 1263 12.23 1259.52 14.69 1255.88 C16.28 1253.57 18.04 1251.42 19.81 1249.25 C22.51 1249.34 24.29 1249.78 26.32 1251.6 C27.94 1253.4 29.48 1255.24 31 1257.12 C31.53 1257.76 32.07 1258.4 32.62 1259.06 C34.83 1261.73 36.89 1264.36 38.81 1267.25 C48.32 1268.34 58.97 1268.23 67 1262.56 C68.3 1261.49 69.57 1260.38 70.81 1259.25 C71.36 1258.76 71.91 1258.27 72.47 1257.76 C85.39 1244.51 82.97 1224.18 82.81 1207.25 C82.06 1208.01 81.3 1208.77 80.52 1209.56 C71.83 1218.2 64.25 1223.33 51.72 1223.43 C51.02 1223.43 50.31 1223.44 49.58 1223.45 C47.25 1223.47 44.92 1223.48 42.59 1223.49 C41.79 1223.49 40.99 1223.5 40.16 1223.5 C35.92 1223.52 31.68 1223.54 27.44 1223.55 C23.09 1223.56 18.73 1223.59 14.37 1223.63 C11 1223.66 7.64 1223.66 4.27 1223.67 C2.66 1223.67 1.06 1223.68 -0.55 1223.7 C-11.56 1223.82 -21.15 1223.14 -30 1215.81 C-30.69 1215.26 -31.37 1214.7 -32.08 1214.13 C-34.55 1211.93 -36.87 1209.61 -39.19 1207.25 Z M187.81 1207.25 C187.09 1235.18 187.09 1235.18 199.81 1259.25 C204.92 1263.98 209.98 1266.25 216.81 1267.25 C217.95 1267.44 219.09 1267.64 220.26 1267.84 C227.33 1268.61 227.33 1268.61 233.63 1265.94 C237.57 1262.13 240.72 1257.75 243.81 1253.25 C244.81 1251.91 245.81 1250.58 246.81 1249.25 C249.51 1249.34 251.29 1249.78 253.32 1251.6 C254.94 1253.4 256.48 1255.24 258 1257.12 C258.53 1257.76 259.07 1258.4 259.62 1259.06 C261.83 1261.73 263.89 1264.36 265.81 1267.25 C268.41 1267.56 270.72 1267.68 273.31 1267.62 C274.04 1267.61 274.76 1267.6 275.51 1267.59 C285.68 1267.27 292.15 1264.98 299.61 1257.79 C302.93 1253.96 304.97 1249.94 306.81 1245.25 C307.23 1244.24 307.64 1243.23 308.06 1242.19 C310.03 1234.46 309.94 1226.6 309.88 1218.69 C309.87 1217.68 309.87 1216.67 309.86 1215.63 C309.85 1213.17 309.83 1210.71 309.81 1208.25 C308.82 1208.25 307.83 1208.25 306.81 1208.25 C305.25 1209.82 305.25 1209.82 303.75 1211.88 C299.22 1217.31 293.53 1221.01 286.81 1223.25 C284.43 1223.36 282.04 1223.41 279.65 1223.43 C278.93 1223.43 278.2 1223.44 277.46 1223.45 C275.05 1223.47 272.65 1223.48 270.25 1223.49 C269.01 1223.49 269.01 1223.49 267.75 1223.5 C263.39 1223.52 259.03 1223.54 254.66 1223.55 C250.18 1223.56 245.69 1223.59 241.21 1223.63 C237.74 1223.66 234.28 1223.66 230.81 1223.67 C229.16 1223.67 227.51 1223.68 225.85 1223.7 C214.14 1223.83 204.23 1223.28 195.38 1214.69 C194.57 1213.92 193.77 1213.16 192.94 1212.37 C191.23 1210.67 189.52 1208.96 187.81 1207.25 Z " fill="#000302" transform="translate(196.1875,5.75)"/>
<path d="M0 0 C24.26 21.89 39.11 50.69 40.91 83.57 C42.02 113.52 32.78 143.25 13 166 C12.31 166.82 11.63 167.64 10.92 168.48 C-7.55 189.91 -34.02 203.47 -62 207 C-96.93 209.44 -126.93 200.17 -153.55 177.16 C-176.72 156.52 -189.92 127.04 -191.81 96.25 C-193.16 65.77 -183.79 34.95 -163.21 12 C-154.96 3.08 -146.46 -4.74 -136 -11 C-135.43 -11.34 -134.86 -11.69 -134.27 -12.04 C-121.72 -19.53 -107.53 -25.01 -93 -27 C-92.24 -27.11 -91.49 -27.22 -90.71 -27.33 C-58.15 -31.32 -24.64 -21.85 0 0 Z M-146 6 C-146.76 6.61 -147.51 7.22 -148.29 7.86 C-168.93 24.96 -181.07 51.69 -184 78 C-186.33 107.28 -178.68 137.35 -159.44 160 C-157.65 162.03 -155.83 164.01 -154 166 C-153.35 166.74 -152.69 167.47 -152.02 168.23 C-136.23 185.13 -110.69 197.73 -87.57 199.22 C-83.69 199.34 -79.82 199.39 -75.94 199.38 C-74.91 199.37 -74.91 199.37 -73.86 199.37 C-63.1 199.33 -53.22 198.53 -43 195 C-42.37 194.79 -41.74 194.57 -41.08 194.35 C-13 184.64 9.17 164.75 22.25 138.08 C35.35 110.28 36.78 79.66 26.5 50.76 C15.52 22.55 -5.21 0.62 -32.88 -11.75 C-70.6 -28.06 -115.3 -21.26 -146 6 Z " fill="#000302" transform="translate(406,851)"/>
<path d="M0 0 C23.12 14.17 45.2 37.14 52.4 64.04 C53.9 70.48 54.17 77.1 52.11 83.42 C47.64 89.52 42.6 92.57 35.23 93.98 C14.89 96.11 -6.24 88.6 -22.21 76.17 C-37.27 63.28 -47.38 47.97 -49.77 27.98 C-50.36 15.56 -50.43 4.64 -41.77 -5.02 C-29.49 -15.21 -11.8 -6.61 0 0 Z M-36.77 0.98 C-43.42 9.43 -42.55 19.7 -41.77 29.98 C-39.25 46.66 -30.01 60.58 -16.87 70.82 C-3.47 80.18 11.36 86.34 27.86 86.48 C28.59 86.49 29.32 86.49 30.08 86.5 C35.11 86.38 38.76 85.33 43.23 82.98 C45.94 79.5 46.45 76.71 46.23 72.42 C43.73 54.78 32.96 39.76 21.23 26.98 C20.06 25.67 20.06 25.67 18.87 24.33 C7.2 11.9 -10.46 -0.56 -27.83 -2.33 C-31.5 -1.94 -33.68 -1.03 -36.77 0.98 Z " fill="#000302" transform="translate(97.76953125,146.01953125)"/>
<path d="M0 0 C5.72 3.44 9.23 9.4 10.94 15.75 C13.87 33.16 10.03 52.63 -0.06 67.19 C-14.86 86.2 -35.43 98.32 -59.44 101.56 C-70.63 102.24 -79.36 101.75 -88.03 94.26 C-91.87 89.64 -91.87 84.61 -91.74 78.86 C-89.55 55.08 -70.96 33.3 -53.56 18.31 C-40.08 7.44 -18.2 -7.68 0 0 Z M-62.98 37.9 C-73.08 49.44 -83.95 66.14 -84.52 81.94 C-84.3 85.2 -83.63 87.31 -81.69 89.94 C-74.39 95.21 -65.04 94.27 -56.44 93.56 C-37.96 90.51 -18.75 79.45 -7.44 64.56 C1.59 51.85 6.32 34.97 3.94 19.38 C2.91 15.1 1.6 11.85 -1.44 8.56 C-22.15 -2.74 -49.84 23.6 -62.98 37.9 Z " fill="#000302" transform="translate(601.4375,138.4375)"/>
<path d="M0 0 C11.18 7.18 19.17 17.05 22.16 30.1 C24.07 41.12 21.81 51.96 15.92 61.49 C9.24 70.59 -0.09 77.62 -11.39 79.68 C-25.17 80.61 -36.38 78.68 -47.39 69.68 C-54.39 63.12 -60.33 54.01 -60.66 44.21 C-61.02 30.75 -60.12 20.95 -51.14 10.3 C-37.88 -3.4 -17.77 -8.91 0 0 Z M-45.39 14.68 C-52.42 24.19 -54.37 32.95 -53.39 44.68 C-51.69 53.45 -47.14 59.91 -40.39 65.68 C-31.53 71.62 -22.85 73.67 -12.33 72.11 C-2.57 69.76 4.88 63.78 10.61 55.68 C15.72 47.27 16.1 37.25 13.95 27.77 C11.78 21.67 8.19 17.19 3.61 12.68 C2.25 11.31 2.25 11.31 0.86 9.93 C-14 -0.36 -32.81 1.77 -45.39 14.68 Z " fill="#000302" transform="translate(399.390625,178.32421875)"/>
<path d="M0 0 C9.18 6.48 14.44 14.61 16.75 25.64 C17.86 35.54 15.42 45.54 9.5 53.58 C2.63 61.56 -6.01 66.96 -16.7 67.85 C-28.42 68.05 -37.61 64.87 -46.23 56.79 C-54.07 48.41 -56.64 39.37 -56.53 28.1 C-55.69 17.64 -50.49 9.4 -42.94 2.39 C-30.55 -7.7 -13.5 -8.13 0 0 Z M-44.25 14.64 C-49.22 21.9 -49.29 30.13 -48.25 38.64 C-45.91 46.43 -41.02 52.81 -34.04 56.96 C-26.65 60.39 -18.6 61.03 -10.7 58.98 C-2.67 55.79 3.54 50.34 7.06 42.44 C9.79 35.35 10.09 26.94 7.19 19.83 C3.36 12.56 -1.74 6.89 -9.31 3.5 C-22.88 -0.44 -35.7 3.49 -44.25 14.64 Z " fill="#000302" transform="translate(467.25,310.35546875)"/>
<path d="M0 0 C8.45 5.97 15.3 13.89 18 24 C19.07 36.57 17.97 46.98 9.82 57.12 C1.97 65.22 -6.73 69.05 -17.88 69.44 C-28.64 69.16 -37.33 65.62 -45 58 C-53.49 47.76 -55.23 38.39 -54.32 25.4 C-53.07 16.15 -47.51 8.28 -40.34 2.55 C-28.13 -5.54 -13.2 -6.72 0 0 Z M-40.44 13.31 C-46.29 20.52 -47.6 26.54 -47.34 35.82 C-46.46 44.02 -42.14 50.61 -36 56 C-28.4 61.15 -20.49 62.95 -11.44 61.44 C-3.78 59.39 2.32 54.69 6.78 48.21 C11.05 40.47 12.05 32.67 9.94 24.12 C7.47 16.58 3.17 10.94 -3.75 7 C-16.66 0.5 -30.58 2.99 -40.44 13.31 Z " fill="#000302" transform="translate(220,1065)"/>
<path d="M0 0 C4.97 4.18 9.42 9.51 10.27 16.13 C10.56 23.06 9.19 28.4 5 34 C-0.75 38.96 -6.02 41.34 -13.6 41.21 C-20.27 40.63 -25.02 37.93 -29.52 33.01 C-33.74 27.27 -34.59 21.31 -33.57 14.35 C-31.91 7.48 -27.76 2.94 -22 -1 C-14.65 -4.44 -7.03 -3.78 0 0 Z " fill="#000302" transform="translate(174,400)"/>
<path d="M0 0 C5.42 4.33 7.96 8.57 8.99 15.49 C9.41 21.65 8.33 26.67 4.63 31.69 C-0.41 37.19 -5.85 39.67 -13.26 40.18 C-18.83 39.94 -23.42 37.96 -27.89 34.68 C-33.2 28.63 -35.27 23.01 -35.17 15.05 C-34.41 8.62 -30.71 3.8 -25.89 -0.32 C-17.5 -6.05 -8.37 -5.87 0 0 Z " fill="#000302" transform="translate(511.88671875,401.32421875)"/>
<path d="M0 0 C2.62 0.94 2.62 0.94 5 2 C4.63 5.29 4.38 6.66 1.88 8.94 C-0.29 10.88 -0.29 10.88 -0.12 13.75 C3.18 23.3 11.07 29.62 19.75 34.19 C33.88 40.81 49.99 42.75 65.19 38.31 C67.14 37.59 69.08 36.82 71 36 C71.88 35.65 72.75 35.3 73.66 34.94 C82.57 30.98 91.28 24.22 95 15 C95.18 12.3 95.18 12.3 94 10 C93.3 9.34 92.6 8.68 91.88 8 C91.26 7.34 90.64 6.68 90 6 C90.25 3.25 90.25 3.25 91 1 C92.77 0.32 92.77 0.32 95 0 C98.04 1.86 100.45 4.53 103 7 C104.26 8.14 104.26 8.14 105.55 9.3 C106.38 10.07 107.21 10.83 108.06 11.62 C108.84 12.34 109.61 13.05 110.41 13.79 C112 16 112 16 111.75 18.77 C111.5 19.51 111.25 20.24 111 21 C107.85 21.26 106.38 21.25 103.69 19.5 C103.13 19 102.57 18.51 102 18 C101.75 18.89 101.49 19.78 101.23 20.7 C97.35 31.08 86.61 38.2 77 43 C58.41 51.03 38.77 50.97 19.88 43.88 C9.49 39.26 -1.99 31.34 -6.44 20.5 C-6.62 19.67 -6.81 18.85 -7 18 C-7.56 18.5 -8.11 18.99 -8.69 19.5 C-11.38 21.25 -12.85 21.26 -16 21 C-16.69 18.73 -16.69 18.73 -17 16 C-15.77 14.07 -15.77 14.07 -13.89 12.27 C-13.22 11.61 -12.54 10.95 -11.85 10.28 C-11.14 9.61 -10.42 8.94 -9.69 8.25 C-8.98 7.57 -8.28 6.88 -7.56 6.18 C-2.4 1.2 -2.4 1.2 0 0 Z " fill="#000302" transform="translate(283,565)"/>
<path d="M0 0 C5.67 4.37 9.73 10.64 11.07 17.71 C12.03 27.53 10.06 35.37 3.82 43.09 C-0.81 48.03 -6.94 51.38 -13.75 51.95 C-24.46 52.19 -31.31 49.95 -39.2 42.65 C-45.24 35.88 -46.36 28.17 -46.26 19.36 C-45.56 11.64 -42.15 6.55 -36.62 1.28 C-25.54 -7.73 -11.85 -7.89 0 0 Z M-32.87 7.9 C-37 12.53 -38.65 17.1 -39.3 23.21 C-38.54 30.34 -36.27 35.34 -30.95 40.23 C-26.21 43.71 -21.21 45.04 -15.37 44.71 C-9.25 43.73 -4.71 40.64 -0.55 36.15 C3.67 29.81 3.95 24.28 3.07 16.71 C1 11.14 -2.93 6.86 -7.93 3.71 C-17.01 0.59 -25.61 1.27 -32.87 7.9 Z " fill="#000302" transform="translate(205.9296875,303.28515625)"/>
<path d="M0 0 C6.51 5.29 10.24 11.34 11.28 19.77 C11.69 27.55 9.04 34.44 4.27 40.55 C-0.3 45.47 -6.37 48.13 -12.99 48.91 C-20.77 49.19 -26.85 46.74 -33.29 42.49 C-39.42 36.08 -42.38 29 -42.26 20.18 C-41.46 13.05 -38.13 6.6 -32.98 1.68 C-22.68 -5.12 -10.84 -7.25 0 0 Z M-30.29 10.18 C-34.23 16.02 -34.78 20.67 -33.98 27.68 C-32.21 33.08 -28.46 36.44 -23.98 39.68 C-18.89 41.37 -13.03 41.67 -7.88 39.99 C-2.76 37.28 1.18 33.18 3.02 27.68 C3.72 20.49 3.44 15.49 -0.98 9.68 C-5.36 5.29 -9.04 3.53 -15.23 3.36 C-21.98 3.43 -25.64 5.15 -30.29 10.18 Z " fill="#000302" transform="translate(333.98046875,695.32421875)"/>
<path d="M0 0 C6.34 7.54 9.16 13.85 8.31 23.75 C6.82 31.82 2.7 37.58 -3.91 42.36 C-10.6 46.23 -17.09 46.89 -24.69 45.75 C-32.06 43.51 -37.51 39.2 -41.69 32.75 C-44.96 26.17 -46 19.24 -43.93 12.14 C-40.42 2.77 -35.57 -1.78 -26.69 -6.25 C-17.18 -9.22 -7.42 -6.21 0 0 Z M-32.52 6.63 C-36.39 11.69 -37.48 15.91 -37.07 22.24 C-36.14 28.35 -33.19 31.76 -28.5 35.49 C-23.72 38.81 -19.46 39.1 -13.86 38.29 C-7.83 36.8 -4.24 32.52 -0.69 27.75 C1.06 22.49 1.42 16.63 -0.59 11.39 C-3.75 6 -7.7 2.74 -13.69 0.75 C-21.18 -0.15 -27.17 1.13 -32.52 6.63 Z " fill="#000302" transform="translate(451.6875,1140.25)"/>
<path d="M0 0 C5.14 3 8.76 7.91 10.62 13.5 C11.34 20.44 11.35 26.08 7.11 31.82 C2.29 37.28 -2.36 40.13 -9.75 40.81 C-15.48 40.32 -19.7 38.91 -24.12 35.19 C-29.29 29.02 -31.63 24.61 -31.38 16.5 C-30.46 9.33 -26.95 5.58 -21.53 1.03 C-15.7 -3.11 -6.41 -2.81 0 0 Z M-22.38 11.69 C-23.81 15.71 -24.04 19.28 -23.38 23.5 C-21.18 27.88 -18.94 30.63 -14.38 32.5 C-10.41 33.08 -7.32 32.91 -3.62 31.31 C0.24 28.2 2.68 25.52 3.56 20.56 C3.88 16.47 2.97 13.94 0.62 10.5 C-2.59 7.1 -5.53 5.71 -10.25 5.34 C-15.21 5.72 -19.07 8.07 -22.38 11.69 Z " fill="#000302" transform="translate(475.375,976.5)"/>
<path d="M0 0 C8.23 7.62 8.23 7.62 8.77 13.64 C8.86 19 8.75 22.86 5.56 27.38 C0.76 32.2 -2.8 34.5 -9.75 34.69 C-14.83 34.63 -17.57 33.87 -21.44 30.38 C-26.72 24.73 -27.86 21.17 -27.78 13.49 C-27.09 7.21 -24.15 3.77 -19.38 -0.12 C-13.34 -3.09 -5.96 -2.82 0 0 Z M-19.88 11.12 C-20.77 14.69 -20.49 17.91 -19.44 21.38 C-16.83 24.98 -15.22 26.15 -10.94 27.38 C-6.99 27.38 -5.51 26.77 -2.44 24.38 C-1.86 23.94 -1.28 23.51 -0.69 23.06 C1.22 20.49 1.44 18.57 1.56 15.38 C0.37 11.46 -0.59 9.08 -3.75 6.44 C-10.38 3.82 -15.36 5.63 -19.88 11.12 Z " fill="#000302" transform="translate(412.4375,500.625)"/>
<path d="M0 0 C5.01 1.8 8.99 4.98 11.38 9.84 C13.1 15.8 13.02 21.84 10.38 27.44 C2.75 35.66 2.75 35.66 -3.27 36.2 C-8.62 36.3 -12.48 36.18 -17 33 C-21.63 28.39 -24.13 24.89 -24.25 18.19 C-24.16 12.81 -23.26 9.22 -19.31 5.34 C-13.05 -0.18 -8.39 -0.91 0 0 Z M-14 10 C-16.38 13.99 -17.14 16.07 -16.44 20.69 C-14.95 24.12 -14.05 25.86 -11 28 C-6.96 29.12 -4.72 29.25 -0.75 27.88 C2.32 25.78 3.57 24.41 5 21 C5.59 17.02 5.17 15.32 3.25 11.75 C0.26 8.09 -1.28 7.18 -5.94 6.69 C-9.56 7.06 -11.21 7.66 -14 10 Z " fill="#000302" transform="translate(264,499)"/>
<path d="" fill="#000302" transform="translate(0,0)"/>
</svg>
