<?xml version="1.0" encoding="iso-8859-1"?>
<!-- Generator: Adobe Illustrator 26.0.3, SVG Export Plug-In . SVG Version: 6.00 Build 0)  -->
<svg version="1.1" id="Layer_36" xmlns="http://www.w3.org/2000/svg" xmlns:xlink="http://www.w3.org/1999/xlink" x="0px" y="0px"
	 width="366.087px" height="366.227px" viewBox="0 0 366.087 366.227" enable-background="new 0 0 366.087 366.227"
	 xml:space="preserve">
<path d="M364.107,118.905c-1.981-1.439-4.046-1.164-6.076,1.033c-0.836,0.904-1.7,1.716-2.713,2.395
	c-17.997,12.072-36.786,22.518-57.343,29.761c-22.083,7.781-44.665,12.499-68.07,13.258c-5.521,0.179-10.976-0.469-16.968-0.78
	c0.794-1.517,1.675-1.609,2.387-1.926c18.352-8.166,34.841-19.122,48.353-34.013c14.791-16.3,26.729-34.591,35.464-54.871
	c2.617-6.076,4.951-12.271,6.774-18.63c0.871-3.039-0.564-5.451-3.14-6.088c-2.452-0.607-5.027,0.973-5.906,3.674
	c-0.501,1.538-0.886,3.114-1.39,4.65c-6.741,20.518-17.679,38.688-30.723,55.77c-13.869,18.162-31.763,31.014-52.15,40.741
	c-6.836,3.262-14.127,4.444-21.644,4.38c-3.703-0.032-4.68-1.199-3.934-4.73c1.896-8.977,3.687-17.981,5.813-26.904
	c7.045-29.567,12.64-59.393,16.481-89.547c0.494-3.878,1.209-7.729,1.745-11.602c0.322-2.323-0.562-4.008-2.282-4.704
	c-1.682-0.681-3.672-0.063-5.052,1.588c-0.985,1.179-1.426,2.576-1.635,4.076c-0.484,3.476-1.038,6.942-1.487,10.423
	c-2.405,18.611-5.231,37.156-8.982,55.546c-4.395,21.544-10.4,42.763-12.982,64.671c-0.21,1.782-1.108,1.926-2.5,1.222
	c-4.219-2.136-8.296-4.519-12.319-7.002c-15.859-9.79-27.587-23.114-35.178-40.205c-7.023-15.812-9.391-31.974-5.27-48.957
	c4.498-18.535,10.586-36.536,17.761-54.187c0.406-1,0.916-1.966,1.224-2.994c0.587-1.959-0.096-3.701-1.646-4.51
	c-1.564-0.817-3.568-0.516-4.742,1.029c-0.967,1.273-1.7,2.754-2.361,4.223c-7.44,16.531-13.438,33.577-17.849,51.158
	c-2.781,11.083-4.207,22.377-2.222,33.721c3.155,18.036,10.551,34.22,22.41,48.276c0.521,0.617,1.38,1.137,1.15,2.415
	c-1.441-0.779-2.625-1.42-3.81-2.059c-9.766-5.259-18.918-11.505-28.103-17.68c-20.797-13.984-40.212-29.656-57.339-48.02
	c-7.92-8.492-15.616-17.193-23.416-25.798c-1.447-1.596-2.918-3.127-3.91-5.121c-1.081-2.17-2.83-2.786-4.642-2.086
	c-1.921,0.742-2.893,2.735-2.328,5.018c0.569,2.297,2.054,4.071,3.545,5.829c4.017,4.738,7.991,9.512,12.04,14.223
	c13.322,15.499,27.712,29.911,43.668,42.72c24.095,19.343,50.058,35.789,77.467,49.998c1.178,0.611,2.695,0.884,3.397,2.413
	c-0.523,0.128-0.783,0.251-1.041,0.246c-1.755-0.031-3.512-0.048-5.264-0.143c-26.583-1.434-52.477-6.503-77.668-15.047
	c-20.69-7.018-39.602-17.154-55.446-32.508c-2.321-2.249-4.9-4.244-7.455-6.233c-2.291-1.784-4.323-1.764-5.8-0.182
	c-1.591,1.705-1.281,3.837,0.886,6.039c0.284,0.288,0.598,0.547,0.897,0.82c3.784,3.465,7.591,6.904,11.347,10.399
	c8.059,7.5,16.956,13.774,26.809,18.718c31.375,15.742,64.942,23.136,99.642,26.14c11.301,0.978,22.65,1.19,33.989,1.508
	c1.187,0.033,2.433-0.192,3.781,0.654c-0.901,4.276-2.622,8.36-4.299,12.433c-10.481,25.461-20.233,51.208-30.351,76.812
	c-13.142,33.257-25.57,66.799-39.982,99.546c-1.119,2.543-0.681,4.549,1.199,5.698c1.931,1.18,4.698,0.664,6.14-1.336
	c0.777-1.079,1.308-2.358,1.824-3.598c4.354-10.467,8.827-20.888,12.985-31.433c14.407-36.533,28.76-73.088,43.012-109.682
	c5.972-15.335,12.661-30.407,17.316-46.238c0.144-0.49,0.505-0.917,0.752-1.351c1.838,0.111,3.127,1.172,4.518,1.926
	c7.125,3.865,14.427,7.364,21.867,10.572c31.034,13.38,63.623,19.454,97.244,20.797c12.575,0.502,25.109-0.166,37.654-0.747
	c2.275-0.105,4.484-0.264,6.682,0.915c2.173,1.165,4.235,0.096,5.897-1.43c1.372-1.261,1.997-2.886,1.306-4.774
	c-0.831-2.271-2.503-3.458-4.89-3.603c-1.075-0.065-2.161-0.039-3.238,0.009c-5.8,0.262-11.606,0.449-17.398,0.836
	c-19.635,1.311-39.14-0.38-58.583-2.739c-20.364-2.471-39.788-8.611-58.803-16.112c-2.455-0.968-4.994-1.827-7.837-3.681
	c3.655-0.415,6.513,0.412,9.401,0.522c14.65,0.558,29.134-0.865,43.503-3.585c35.719-6.763,68.14-21.24,97.86-41.997
	c1.222-0.853,2.43-1.73,3.208-3.041C366.709,123.527,366.138,120.38,364.107,118.905z"/>
<g>
</g>
<g>
</g>
<g>
</g>
<g>
</g>
<g>
</g>
<g>
</g>
</svg>
