<?xml version="1.0" encoding="utf-8"?>
<!-- Generator: Adobe Illustrator 25.2.1, SVG Export Plug-In . SVG Version: 6.00 Build 0)  -->
<svg version="1.1" id="Layer_1" xmlns="http://www.w3.org/2000/svg" xmlns:xlink="http://www.w3.org/1999/xlink" x="0px" y="0px"
	 viewBox="0 0 1000 1000" style="enable-background:new 0 0 1000 1000;" xml:space="preserve">
<style type="text/css">
	.st0{fill:none;stroke:#000000;stroke-width:5;stroke-miterlimit:10;}
	.st1{fill:none;stroke:#000000;stroke-width:5;stroke-linecap:round;stroke-miterlimit:10;}
</style>
<path class="st0" d="M764.91,500.89c-102.59-41.38-48.46-154.95-26.44-195.85c0.53-0.98,2-0.45,1.81,0.65
	c-2.41,14.09,4.76,27.49,11.84,38.11c6.56,9.85,16,17.54,27.15,21.51c52.36,18.66,45.4,73.68,45.4,73.68s4.38-50.78,80.19-42.63
	c5.52,0.59,11.15-0.72,15.55-4.11c14.13-10.87,24.69-36.67,30.12-49.34c0.75-1.74,3.34-1.25,3.39,0.65
	c1.04,41.79,18.59,215.65-114.13,175.1l0,0C824.3,694.03,667.26,818.55,488.68,850.48"/>
<path class="st1" d="M345.86,725.1c0,0-72.26,87.01,70.79,166.65c78.65,41.29,100.28,46.21,118.97,37.85
	c18.68-8.36-45.23-48.18-46.21-85.05s6.88-86.52-36.87-109.63"/>
<path class="st0" d="M254.38,322.71c-0.13,0.26,0.21,0.49,0.4,0.27c4.96-5.81,23.61-23.83,66.18-26.71
	c50.88-3.44,56.29-66.36,27.77-79.39c-25.16-11.5-42.52,3.93-53.58,24.33C285.29,259.42,259.78,311.65,254.38,322.71z"/>
<path class="st0" d="M226.82,338.8c0.98,4.67-10.82-132.48-58.25-119.46c-47.44,13.03-26.3,48.79-14.01,61.45
	C168.12,294.76,223.69,323.89,226.82,338.8z"/>
<path class="st0" d="M232.53,240.73c-0.08,0.07-0.19-0.02-0.15-0.11c1.41-3.62,12.63-34.88,5.02-96
	c-8.11-65.14,29-88.24,53.83-73.25c24.83,14.99,42.52,49.16,0,102.74C251.96,223.59,234.91,238.7,232.53,240.73z"/>
<ellipse transform="matrix(0.1524 -0.9883 0.9883 0.1524 -121.2928 711.9489)" class="st0" cx="354.44" cy="426.69" rx="14.09" ry="19.72"/>
<ellipse transform="matrix(0.3951 -0.9186 0.9186 0.3951 -174.283 688.474)" class="st0" cx="435.67" cy="476.58" rx="24.36" ry="45.65"/>
<ellipse transform="matrix(0.1524 -0.9883 0.9883 0.1524 -115.3136 947.61)" class="st0" cx="494.83" cy="541.04" rx="14.09" ry="25.88"/>
<ellipse transform="matrix(0.3951 -0.9186 0.9186 0.3951 -140.8505 807.522)" class="st0" cx="542.78" cy="510.72" rx="22.13" ry="29.28"/>
<ellipse transform="matrix(0.2765 -0.961 0.961 0.2765 -215.0936 735.7385)" class="st0" cx="381.08" cy="510.72" rx="12.77" ry="21.28"/>
<path d="M214.19,541.79c-14.17-8.78-32.15-5.42-40.16,7.51c-8.01,12.93-3.03,30.53,11.14,39.31c14.17,8.78,32.15,5.42,40.16-7.51
	C233.34,568.17,228.35,550.57,214.19,541.79z M203.81,581.34c-0.88,1.76-3.26,2.35-5.32,1.32s-3.01-3.29-2.13-5.05
	c0.88-1.76,3.26-2.35,5.32-1.32C203.74,577.32,204.69,579.58,203.81,581.34z M208.2,560.16c-2.34,4.69-8.69,6.27-14.18,3.53
	c-5.49-2.74-8.03-8.77-5.69-13.46c2.34-4.69,8.69-6.27,14.18-3.53C207.99,549.44,210.54,555.47,208.2,560.16z"/>
<path class="st0" d="M763.84,497.24c0,0-21.02,119.46-97.34,28.76S536.15,352.32,301.5,361.2
	C112.67,368.34-11.29,552.75,70.32,700.78l4.95,8.07c0.9,1.47,2.35,2.5,4.03,2.88c16.44,3.74,107.04,22.99,124.42-71.67
	c0.01-0.04,0-0.04,0,0c0.1,6.1,0.77,99.32-65.95,139.74l0,0l0,0c11.21,7.89,33.24,20.09,46.49,27.14
	c57.67,30.69,121.13,47,185.19,50.75"/>
</svg>
