<?xml version="1.0" encoding="UTF-8"?>
<!-- Generator: visioncortex VTracer 0.6.3 -->
<svg version="1.1" xmlns="http://www.w3.org/2000/svg" width="1280" height="959">
<path d="M0 0 C81.51 70 89.57 195.02 106.54 303.71 C106.95 306.29 107.35 308.88 107.76 311.47 C114.16 352.12 117.75 393.17 120.8 434.19 C120.85 434.9 120.91 435.61 120.96 436.34 C122.26 453.74 123.37 471.13 123.99 488.57 C124.03 489.71 124.08 490.86 124.13 492.04 C126.04 546.71 117.39 601.88 100.46 653.74 C97.04 664.23 93.96 674.8 90.9 685.39 C90 688.54 89.08 691.68 88.17 694.82 C84.03 709.06 79.93 723.3 75.85 737.56 C75.3 739.47 74.75 741.38 74.2 743.29 C65.6 773.26 59.72 801.34 64.65 832.68 C65.35 838.7 63.71 842.82 60.24 847.75 C49.55 860.78 31.99 862.59 15.99 864.57 C10.98 864.92 6.01 864.85 0.99 864.57 C0.89 865.65 0.79 866.73 0.68 867.85 C-0.22 872.66 -1.62 873.87 -5.33 876.8 C-23.99 889.07 -45.77 892.12 -67.57 889.32 C-68.62 889.18 -69.67 889.05 -70.75 888.91 C-106.52 884.1 -106.52 884.1 -115.74 872.73 C-119 867.19 -119.33 861.85 -119.47 855.6 C-119.53 853.82 -119.58 852.05 -119.64 850.27 C-119.69 848.89 -119.69 848.89 -119.73 847.47 C-120.34 828.82 -121.83 811.32 -128.01 793.57 C-129.09 793.73 -130.18 793.89 -131.29 794.06 C-136.7 794.74 -142.07 794.68 -147.51 794.63 C-148.52 794.62 -149.54 794.62 -150.58 794.62 C-153.06 794.6 -155.54 794.59 -158.01 794.57 C-158.21 795.67 -158.21 795.67 -158.42 796.8 C-160.01 805.57 -160.01 805.57 -160.52 808.01 C-161.87 814.73 -162.33 821.15 -162.26 828 C-162.26 829.01 -162.26 830.02 -162.25 831.05 C-162.18 837.23 -161.63 843.05 -160.41 849.12 C-159.77 853.06 -159.77 856.75 -161.01 860.57 C-166.06 866.21 -173.73 867.97 -180.95 869.13 C-181.68 869.26 -182.42 869.38 -183.17 869.51 C-186.88 870.13 -190.58 870.65 -194.32 870.99 C-201.76 871.68 -207.24 872.74 -213.54 877.04 C-230.16 887.3 -254.75 886.18 -273.21 882.08 C-286.04 878.92 -297.66 874.27 -307.01 864.57 C-308.49 861.61 -308.03 859.04 -307.93 855.75 C-307.3 834.85 -307.3 834.85 -312.21 814.7 C-313.02 812.54 -313.78 810.37 -314.51 808.18 C-319.03 794.78 -324.46 781.91 -330.18 769 C-337.58 752.23 -344.33 735.23 -347.89 717.19 C-348.09 716.25 -348.28 715.3 -348.49 714.33 C-350.68 703.76 -351.29 693.52 -351.32 682.75 C-351.33 681.96 -351.33 681.17 -351.34 680.35 C-351.37 665.79 -349.9 651.87 -347.01 637.57 C-347.67 637.31 -348.33 637.06 -349.01 636.8 C-365.76 630.28 -379.63 618.33 -393.01 606.57 C-393.74 605.93 -394.47 605.3 -395.22 604.65 C-421.47 580.33 -436.47 538.02 -437.91 503.18 C-439 465.34 -427.15 429.62 -401.17 401.75 C-394.33 394.82 -388.21 389.14 -378.01 388.57 C-377.02 389.23 -376.03 389.89 -375.01 390.57 C-375.63 398.46 -377.46 405.85 -379.45 413.5 C-388.51 448.62 -389.51 484.18 -371.16 516.67 C-367.93 522.01 -364.06 526.82 -360.01 531.57 C-359.46 532.22 -358.91 532.87 -358.35 533.54 C-350.07 542.51 -338.84 549.22 -328.51 555.57 C-327.77 556.02 -327.03 556.48 -326.27 556.95 C-318.18 561.93 -318.18 561.93 -309.01 563.57 C-307.48 562.3 -307.48 562.3 -306.14 560.44 C-296.7 549.07 -285.93 539.26 -274.01 530.57 C-273.41 530.12 -272.8 529.68 -272.18 529.22 C-234.94 502.13 -192.08 486.65 -147.01 478.57 C-146.18 478.42 -145.36 478.27 -144.5 478.12 C-119.26 473.86 -90.53 474.94 -65.94 481.97 C-58.85 484.39 -58.85 484.39 -51.74 483.64 C-49.78 481.78 -48.48 479.84 -47.01 477.57 C-45.56 475.92 -44.1 474.27 -42.64 472.63 C-22.83 448 -15.11 416.57 -14.01 385.57 C-13.98 384.88 -13.96 384.19 -13.93 383.48 C-12.17 332.64 -22.45 281.97 -45.01 236.57 C-48.6 236.57 -51.16 239.84 -53.82 242.07 C-72.82 257.54 -96.53 268.82 -121.45 268.69 C-122.17 268.7 -122.9 268.7 -123.65 268.7 C-127.03 268.7 -130.19 268.54 -133.55 268.05 C-136.72 267.61 -139.71 267.54 -142.91 267.63 C-168.36 268.34 -188.03 257.62 -207.01 241.57 C-208.09 240.71 -209.18 239.86 -210.26 239 C-213.88 235.8 -216.93 232.27 -220.01 228.57 C-220.64 227.83 -221.27 227.08 -221.92 226.32 C-236.58 208.6 -248.81 187.18 -247.22 163.52 C-245.55 147.77 -235.48 134.7 -225.12 123.39 C-211.56 108.45 -206.51 93.02 -202.01 73.57 C-194.87 42.79 -185.61 15.66 -157.73 -2.75 C-109.54 -32.57 -45.91 -37.28 0 0 Z M-171.82 19.02 C-176.62 24.6 -180.44 30.67 -183.01 37.57 C-182.29 37.46 -181.56 37.35 -180.82 37.24 C-176.25 36.68 -172.83 36.31 -168.39 37.69 C-165.53 39.95 -165.53 41.08 -165.01 44.57 C-165.74 44.45 -166.46 44.33 -167.21 44.21 C-173.55 43.26 -173.55 43.26 -179.39 45.5 C-180.69 46.52 -180.69 46.52 -182.01 47.57 C-184.68 47.7 -184.68 47.7 -187.01 47.57 C-187.83 50.38 -188.64 53.19 -189.45 56 C-189.79 57.18 -189.79 57.18 -190.15 58.38 C-191.68 63.79 -192.52 68.96 -193.01 74.57 C-192.41 74.32 -191.81 74.06 -191.2 73.81 C-186.1 71.73 -182.34 71.18 -177.02 72.71 C-172.55 74.61 -170.53 77.68 -168.14 81.75 C-166.46 87.44 -166.62 92.41 -169.03 97.88 C-171.36 101.9 -173.56 104.88 -178.01 106.57 C-184.24 108.03 -188.7 107.91 -194.32 104.77 C-196.08 103.51 -197.53 102.14 -199.01 100.57 C-199.37 101.35 -199.72 102.14 -200.09 102.95 C-204.51 112 -210.15 118.34 -217.51 125.16 C-219.73 127.24 -221.87 129.4 -224.01 131.57 C-224.59 132.12 -225.16 132.67 -225.75 133.24 C-229.95 137.61 -232.69 142.38 -235.39 147.75 C-235.73 148.44 -236.08 149.13 -236.43 149.84 C-242.2 161.76 -241.49 176.74 -237.39 189.14 C-232.67 200.85 -226.17 210.96 -218.01 220.57 C-217.55 221.11 -217.09 221.65 -216.62 222.21 C-199.96 241.71 -176.78 257.73 -150.56 260.07 C-134.55 260.84 -116.88 256.56 -104.29 246.36 C-99.92 242.19 -96.66 237.98 -94.01 232.57 C-94.67 231.91 -95.33 231.25 -96.01 230.57 C-96.01 229.58 -96.01 228.59 -96.01 227.57 C-92.09 226.45 -90.45 226.36 -86.7 228.13 C-84.01 230.57 -84.01 230.57 -83.14 233.82 C-83.1 234.72 -83.05 235.63 -83.01 236.57 C-83.86 236.9 -84.7 237.23 -85.57 237.57 C-89.34 239.76 -91.33 242.06 -94.08 245.37 C-96.81 248.47 -99.87 251.11 -103 253.8 C-104.74 255.33 -106.39 256.9 -108.01 258.57 C-102.34 258.03 -97.5 256.95 -92.2 254.88 C-91.5 254.61 -90.8 254.34 -90.09 254.06 C-78.89 249.63 -69.91 243.48 -60.65 235.91 C-59.21 234.73 -57.74 233.57 -56.27 232.42 C-33.91 214.7 -13.56 193.8 -0.01 168.57 C0.98 168.57 1.97 168.57 2.99 168.57 C2.63 174.18 1.02 177.66 -2.05 182.36 C-4.09 187.04 -1.16 192.17 0.54 196.7 C1.08 198.14 1.61 199.58 2.14 201.03 C2.42 201.78 2.7 202.54 2.99 203.32 C29.74 275.86 40.61 348.38 46.72 425.26 C46.98 428.49 47.27 431.72 47.56 434.95 C49.17 453.47 49.35 471.92 49.31 490.49 C49.3 493.04 49.3 495.59 49.3 498.15 C49.26 523.6 48.73 548.9 46.22 574.25 C45.99 576.59 45.77 578.94 45.55 581.28 C43 608.67 38.82 635.8 32.74 662.63 C32.49 663.72 32.25 664.81 31.99 665.93 C31.76 666.91 31.53 667.9 31.29 668.91 C30.98 670.2 30.98 670.2 30.67 671.51 C29.99 673.57 29.99 673.57 27.99 675.57 C26.67 675.57 25.35 675.57 23.99 675.57 C23.57 667.81 25.13 661.33 27.18 653.88 C32.65 632.87 35.8 611.62 38.18 590.07 C38.25 589.36 38.33 588.65 38.41 587.93 C39.01 582.48 39.52 577.03 39.99 571.57 C40.08 570.55 40.16 569.53 40.26 568.48 C42.07 546.87 42.35 525.33 42.31 503.66 C42.3 500.9 42.3 498.14 42.3 495.38 C42.26 469.2 41.89 443.16 39.24 417.09 C38.97 414.41 38.72 411.74 38.47 409.06 C31.61 336.42 18.47 265.05 -10.01 197.57 C-14.1 201.6 -18.04 205.75 -21.95 209.94 C-22.54 210.58 -23.14 211.21 -23.75 211.86 C-24.94 213.13 -26.11 214.41 -27.27 215.7 C-29.01 217.57 -29.01 217.57 -30.9 219.29 C-32.64 220.98 -33.92 222.39 -35.01 224.57 C-34.34 228.04 -33.43 230.38 -32.01 233.57 C-31.09 236.11 -30.19 238.66 -29.3 241.22 C-28.8 242.66 -28.29 244.1 -27.79 245.53 C-16.6 277.44 -9.97 309.99 -6.01 343.57 C-5.88 344.68 -5.75 345.79 -5.61 346.93 C-0.54 399.32 -10.5 446.3 -40.01 489.57 C-35.8 492.38 -31.18 493.48 -26.36 494.96 C-22.36 496.88 -21.03 498.66 -19.01 502.57 C-18.76 505.94 -18.76 505.94 -19.01 508.57 C-27.07 507.07 -34.63 504.36 -42.34 501.63 C-53.42 497.72 -64.5 493.89 -75.89 490.94 C-76.74 490.72 -77.59 490.5 -78.47 490.27 C-90.02 487.4 -101.36 486.2 -113.26 486.25 C-114.57 486.26 -115.87 486.27 -117.22 486.27 C-181.41 486.9 -247.03 512.01 -292.49 557.68 C-326.51 592.81 -339.85 640.16 -339.29 688.02 C-339.09 699.11 -337.5 709.76 -335.01 720.57 C-334.83 721.37 -334.66 722.18 -334.48 723.01 C-331.17 737.56 -325.31 751.29 -319.77 765.1 C-315.79 775.03 -311.92 784.99 -308.32 795.07 C-307.94 796.14 -307.55 797.21 -307.16 798.31 C-302.29 812.1 -298.42 823.96 -301.01 838.57 C-303.16 848.45 -303.16 848.45 -300.64 857.82 C-291.34 868 -276.47 872.89 -262.98 873.76 C-252.48 874.25 -252.48 874.25 -242.01 873.57 C-239.78 871.33 -239.29 869.83 -238.26 866.88 C-235.4 859.58 -231.42 854.48 -224.16 851.21 C-219.08 849.68 -214.06 850.17 -209.01 851.57 C-208.04 846.77 -207.95 842.18 -208.09 837.31 C-208.12 835.7 -208.14 834.08 -208.17 832.47 C-208.21 829.96 -208.26 827.46 -208.33 824.95 C-208.63 814.32 -208.18 806.14 -203.01 796.57 C-202.52 795.58 -202.02 794.58 -201.51 793.56 C-199.95 790.46 -198.33 787.39 -196.7 784.32 C-195.54 782.11 -194.39 779.91 -193.23 777.7 C-191.74 774.85 -190.25 772.01 -188.75 769.17 C-173.13 739.53 -167.4 709.87 -170.01 676.57 C-168.14 676.75 -168.14 676.75 -166.01 677.57 C-163.25 681.97 -163.71 687.05 -163.76 692.07 C-163.77 692.99 -163.78 693.91 -163.78 694.86 C-164.19 722.67 -169.12 750.04 -182.61 774.63 C-183.48 776.24 -184.25 777.9 -185.01 779.57 C-184.68 780.56 -184.35 781.55 -184.01 782.57 C-181.99 783.45 -181.99 783.45 -179.48 783.95 C-178.53 784.17 -177.59 784.39 -176.61 784.61 C-175.59 784.82 -174.56 785.03 -173.51 785.25 C-172.47 785.47 -171.43 785.69 -170.36 785.92 C-156.67 788.63 -144.53 788.51 -131.01 784.57 C-129.74 780.14 -130.38 776.48 -131.34 772.08 C-131.65 770.59 -131.95 769.09 -132.26 767.6 C-132.43 766.82 -132.59 766.04 -132.76 765.23 C-145.75 702.92 -145.75 702.92 -138.01 681.57 C-137.02 681.24 -136.03 680.91 -135.01 680.57 C-133.46 681.75 -133.46 681.75 -132.01 683.57 C-132.16 685.82 -132.16 685.82 -132.82 688.69 C-139.74 727.99 -126.13 769.32 -114.84 806.63 C-113.26 812.23 -112.85 817.42 -112.8 823.23 C-112.77 824.95 -112.74 826.67 -112.71 828.38 C-112.67 831.06 -112.64 833.74 -112.61 836.42 C-113.21 851.69 -113.21 851.69 -107.58 865.24 C-100.65 871.1 -87.5 872.49 -78.89 874.38 C-77.89 874.6 -76.9 874.82 -75.87 875.04 C-71.49 875.97 -67.51 876.68 -63.01 876.57 C-62.64 875.51 -62.27 874.46 -61.89 873.38 C-59.73 868.37 -56.22 865.67 -51.39 863.25 C-48 862.56 -45.32 862.65 -41.89 862.82 C-38.79 862.95 -38.79 862.95 -36.01 862.57 C-33.44 859.92 -33.44 859.92 -32.01 856.57 C-26.98 851.54 -20.49 849.39 -13.45 849.38 C-11.75 849.47 -11.75 849.47 -10.01 849.57 C-10.15 848 -10.3 846.44 -10.45 844.88 C-10.53 844.01 -10.61 843.14 -10.7 842.24 C-10.96 839.61 -10.96 839.61 -11.53 837.21 C-15.43 815.9 -7.05 794.51 -0.03 774.8 C9.85 747.02 15 718.67 18.99 689.57 C20.64 690.23 22.29 690.89 23.99 691.57 C22.71 707.36 20.54 722.93 17.99 738.57 C21.81 736.73 25.18 734.42 28.61 731.94 C29.23 731.49 29.86 731.05 30.5 730.59 C79.96 694.78 98.76 640.81 109.33 582.34 C112.41 562.99 113.33 543.7 113.24 524.13 C113.24 522.99 113.23 521.85 113.23 520.68 C112.95 420.59 103.28 323.52 42.99 74.57 C42.56 73.7 42.13 72.84 41.69 71.94 C35.89 60.28 29.65 49.11 21.99 38.57 C21.58 37.99 21.17 37.42 20.74 36.83 C0.44 8.9 -26.67 -11.08 -61 -17.25 C-102.48 -23.76 -142.58 -11.19 -171.82 19.02 Z M-182.01 95.57 C-182.01 96.56 -182.01 97.55 -182.01 98.57 C-181.02 98.24 -180.03 97.91 -179.01 97.57 C-179.34 96.91 -179.67 96.25 -180.01 95.57 C-180.67 95.57 -181.33 95.57 -182.01 95.57 Z M-396.01 404.57 C-419.04 428.6 -431.65 463.79 -431.44 496.85 C-430.16 533.76 -415.59 566.53 -391.01 593.57 C-390.41 594.24 -389.81 594.91 -389.19 595.61 C-377.87 607.62 -361.42 619.54 -346.01 625.57 C-345.02 625.57 -344.03 625.57 -343.01 625.57 C-342.72 624.82 -342.43 624.08 -342.13 623.31 C-335.72 607.01 -329.22 591.63 -319.04 577.24 C-317.84 575.61 -317.84 575.61 -318.01 573.57 C-319.54 572.84 -319.54 572.84 -321.09 572.1 C-353.33 556.5 -374.76 531.93 -386.76 498.25 C-396.04 468.59 -394.49 441.83 -387.4 412.03 C-387.24 411.37 -387.09 410.71 -386.93 410.03 C-386.5 408.21 -386.06 406.4 -385.62 404.58 C-384.88 401.43 -384.88 401.43 -385.01 397.57 C-389.33 397.57 -392.96 401.83 -396.01 404.57 Z M70.99 704.57 C70.27 705.43 69.56 706.29 68.82 707.17 C55.9 722.56 41.68 735.66 26.09 748.29 C25.43 748.83 24.77 749.37 24.09 749.92 C21.99 751.57 21.99 751.57 19.58 753.17 C14.27 756.83 11.95 759.55 10.57 765.89 C10.4 766.83 10.23 767.78 10.05 768.75 C9.6 770.88 9.13 773 8.66 775.12 C8.41 776.29 8.16 777.46 7.9 778.66 C6.16 786.33 3.89 793.88 1.74 801.44 C0.47 805.89 -0.79 810.34 -1.99 814.81 C-2.59 817 -3.2 819.2 -3.85 821.38 C-5.78 828.7 -4.02 835 -2.14 842.19 C-1.84 843.39 -1.55 844.58 -1.24 845.81 C-0.52 848.74 0.23 851.65 0.99 854.57 C4.3 854.63 7.61 854.66 10.93 854.69 C11.85 854.71 12.78 854.72 13.73 854.74 C19.81 854.78 25.11 854.1 30.99 852.57 C31.06 851.85 31.14 851.14 31.21 850.41 C32.15 843.6 33.52 838.96 38.99 834.57 C43.64 832.03 47.78 831.25 52.99 830.57 C52.97 829.77 52.95 828.98 52.92 828.17 C52.49 808.89 53.47 790.59 56.99 771.57 C57.11 770.91 57.23 770.25 57.36 769.57 C60.66 751.76 64.61 734.19 69.59 716.77 C69.92 715.6 70.24 714.43 70.58 713.23 C71.03 711.69 71.03 711.69 71.48 710.12 C72.23 707.46 72.23 707.46 70.99 704.57 Z M-190.01 789.57 C-196.01 798.7 -200.98 807.02 -201.33 818.11 C-201.37 819.4 -201.41 820.7 -201.46 822.03 C-201.5 823.42 -201.53 824.8 -201.57 826.19 C-201.62 827.6 -201.66 829 -201.7 830.41 C-202 840.46 -202.14 850.51 -202.01 860.57 C-197.72 860.57 -193.43 860.57 -189.01 860.57 C-188.64 859.35 -188.27 858.13 -187.89 856.88 C-185.85 851.45 -182.74 848.97 -177.57 846.32 C-174.41 845.39 -171.28 844.95 -168.01 844.57 C-168.15 843.91 -168.29 843.26 -168.44 842.59 C-169.87 835.44 -170.36 828.6 -170.32 821.32 C-170.32 820.23 -170.32 819.14 -170.32 818.02 C-170.24 810.42 -169.42 803.43 -167.57 796.07 C-167.39 795.24 -167.2 794.42 -167.01 793.57 C-168.89 791.68 -172.04 791.91 -174.57 791.57 C-175.84 791.39 -177.1 791.22 -178.4 791.04 C-182.27 790.53 -186.14 790.03 -190.01 789.57 Z M42.99 839.57 C40.84 841.49 39.61 843.09 37.99 845.57 C38.03 848.37 38.03 848.37 38.99 850.57 C45.54 848.94 49.29 847.34 52.99 841.57 C53.85 838.85 53.85 838.85 53.99 836.57 C49.68 834.5 46.45 836.99 42.99 839.57 Z M-181.01 855.57 C-181.01 856.89 -181.01 858.21 -181.01 859.57 C-179.24 859.28 -177.47 858.99 -175.7 858.69 C-174.71 858.53 -173.73 858.37 -172.71 858.2 C-169.81 857.69 -169.81 857.69 -167.01 855.57 C-167.51 852.81 -167.51 852.81 -169.01 850.57 C-174.85 849.75 -177.13 851.5 -181.01 855.57 Z M-230.82 863.01 C-232.45 865.14 -232.94 866.9 -233.01 869.57 C-232.68 870.23 -232.35 870.89 -232.01 871.57 C-220.21 869.46 -220.21 869.46 -211.01 862.57 C-210.51 860.02 -210.51 860.02 -211.01 857.57 C-218.48 852.59 -225.36 857.27 -230.82 863.01 Z M-28.32 861.13 C-31.12 865.17 -31.27 867.62 -31.01 872.57 C-30.35 873.56 -29.69 874.55 -29.01 875.57 C-20.74 873.14 -15.01 869.92 -9.01 863.57 C-10.28 858.74 -10.28 858.74 -14.01 855.57 C-20.1 854.89 -24.23 856.59 -28.32 861.13 Z M-54.01 871.57 C-56.5 874.18 -56.5 874.18 -57.01 877.57 C-51.07 877.57 -45.13 877.57 -39.01 877.57 C-37.41 874.37 -38.98 871.84 -40.01 868.57 C-46.36 867.01 -48.88 867.91 -54.01 871.57 Z " fill="#000100" transform="translate(804.01171875,55.43359375)"/>
<path d="M0 0 C4.62 3.3 8.14 7.33 9.62 12.88 C10.3 20.05 8.39 25.26 4.44 31.12 C-0.76 36.2 -5.19 38.1 -12.5 38.38 C-17.57 38.19 -20.56 37.41 -24.38 33.88 C-28.77 29.11 -30.96 24.73 -30.75 18.12 C-29.67 11.59 -26.46 6.32 -21.25 2.31 C-14.86 -2.07 -7.29 -2.43 0 0 Z M-9.38 23.88 C-9.04 25.19 -8.72 26.51 -8.38 27.88 C-7.38 27.88 -6.39 27.88 -5.38 27.88 C-5.38 26.56 -5.38 25.24 -5.38 23.88 C-6.7 23.88 -8.01 23.88 -9.38 23.88 Z " fill="#000100" transform="translate(721.375,172.125)"/>
<path d="M0 0 C8.91 6.16 17.59 13.77 23.14 23.16 C23.39 26.54 23.39 26.54 23.14 29.16 C21.49 29.49 19.84 29.82 18.14 30.16 C17.56 29.45 16.98 28.73 16.38 28 C14.75 26.01 13.12 24.02 11.49 22.04 C10.19 20.44 8.89 18.84 7.66 17.19 C-1.45 5.37 -19 -3.48 -33.27 -6.43 C-38.5 -7.03 -43.7 -6.97 -48.95 -6.73 C-51.19 -6.65 -51.19 -6.65 -54.86 -6.84 C-55.52 -7.83 -56.18 -8.82 -56.86 -9.84 C-44.1 -24.52 -12.01 -7.72 0 0 Z " fill="#000100" transform="translate(663.86328125,181.83984375)"/>
<path d="M0 0 C7.39 2.98 11 8.3 14.07 15.53 C15.95 21.03 16.51 25.35 15 31 C12.94 32.5 12.94 32.5 11 33 C8.56 30.56 8.42 29.02 7.69 25.69 C6.12 19.77 4.16 16.85 -1.22 13.7 C-2.77 12.85 -4.33 12.01 -5.91 11.21 C-8.01 9.99 -9.48 8.89 -11 7 C-10.88 4.44 -10.88 4.44 -10 2 C-6.23 -0.51 -4.48 -0.45 0 0 Z " fill="#000100" transform="translate(758,137)"/>
<path d="M0 0 C1.04 -0.02 2.09 -0.03 3.16 -0.05 C5.94 0.31 5.94 0.31 7.82 1.7 C8.94 3.31 8.94 3.31 8.75 5.38 C7.94 7.31 7.94 7.31 5.94 9.31 C3.97 9.05 1.99 8.78 0.03 8.47 C-2.97 8.24 -5.28 9.26 -8.06 10.31 C-10.94 10.44 -10.94 10.44 -13.06 10.31 C-13.81 8.56 -13.81 8.56 -14.06 6.31 C-10.09 1.31 -6.25 0.02 0 0 Z " fill="#000100" transform="translate(585.0625,203.6875)"/>
<path d="M0 0 C3.31 0.06 3.31 0.06 7 1 C10.63 5.01 11.8 8.63 12 14 C11.06 16.44 11.06 16.44 10 18 C8.09 17.74 8.09 17.74 6 17 C5.09 15.26 5.09 15.26 4.5 13.12 C3.31 9.44 2.14 8.28 -1 6 C-1.31 3.38 -1.31 3.38 -1 1 C-0.67 0.67 -0.34 0.34 0 0 Z " fill="#000100" transform="translate(653,236)"/>
</svg>
