<?xml version="1.0" encoding="UTF-8"?>
<!-- Generator: visioncortex VTracer 0.6.3 -->
<svg version="1.1" xmlns="http://www.w3.org/2000/svg" width="1280" height="1280">
<path d="M0 0 C0.68 0.26 1.36 0.51 2.06 0.77 C12.34 5.14 19.64 14.93 23.83 25 C25.67 29.63 27.36 34.3 29 39 C33.1 36.03 37.04 33.01 40.75 29.56 C61.26 11.72 90.76 7.35 117 9 C128.14 10.23 138.99 12.85 149 18 C150.34 18.68 150.34 18.68 151.7 19.37 C166.74 27.66 175.1 45.15 179.93 61.07 C183.33 74.29 183.73 86.18 180.59 99.38 C179.75 104.55 179.87 108.28 182.79 112.71 C184.9 114.9 187.01 116.73 189.44 118.56 C199.23 126.24 208.06 134.98 216.88 143.75 C217.93 144.79 217.93 144.79 219 145.86 C242.73 169.67 262.26 197.21 278 226.81 C281.8 233.91 285.84 240.83 290.06 247.69 C299.17 262.5 307.9 277.29 315.23 293.08 C318.14 299.31 321.29 305.36 324.62 311.38 C370.06 393.71 370.06 393.71 370.44 433.88 C370.45 434.7 370.46 435.53 370.47 436.38 C370.38 442.57 368.97 446.75 364.81 451.5 C362.57 453.49 360.34 455.28 357.94 457.06 C351.37 461.96 349.27 464.89 348 473 C347.91 473.89 347.81 474.78 347.72 475.69 C345.35 495.47 331.11 512.07 318.78 526.84 C317.53 528.36 316.29 529.9 315.07 531.45 C309.16 538.89 302.7 545.61 295.96 552.3 C294.13 554.12 292.3 555.96 290.48 557.79 C283.63 564.65 276.63 571 269 577 C267.79 578 266.58 579 265.38 580.01 C242.93 598.57 217.42 612.45 191.58 625.67 C189.29 626.85 187.01 628.05 184.73 629.25 C138.12 653.64 83.48 664.99 31.75 671.81 C30.95 671.92 30.16 672.02 29.33 672.13 C27.03 672.43 24.73 672.73 22.42 673.02 C21.76 673.1 21.1 673.19 20.42 673.28 C9.36 674.65 -1.64 675.14 -12.78 675.04 C-14.99 675.03 -17.2 675.02 -19.41 675.01 C-25.68 674.98 -31.94 674.95 -38.21 674.9 C-42.07 674.88 -45.93 674.86 -49.79 674.85 C-51.25 674.84 -52.71 674.83 -54.17 674.82 C-56.21 674.8 -58.25 674.79 -60.28 674.79 C-61.44 674.78 -62.59 674.77 -63.78 674.77 C-67.18 675.01 -69.86 675.69 -73 677 C-74.35 678.85 -74.35 678.85 -75 681.12 C-79.28 692.12 -88.59 701.54 -99 707 C-103.96 708.7 -108.73 709.43 -113.94 709.69 C-114.67 709.73 -115.41 709.76 -116.17 709.8 C-134.98 710.6 -151.03 707.68 -167.57 698.8 C-172.62 696.15 -176.12 694.74 -181.87 694.91 C-183.56 694.94 -183.56 694.94 -185.28 694.98 C-186.47 695.01 -187.65 695.03 -188.88 695.06 C-212.54 695.28 -230.47 689.3 -247.53 672.64 C-252.59 667.62 -257.41 662.44 -262 657 C-262.8 656.09 -263.59 655.19 -264.41 654.25 C-284.08 631.72 -301.86 604.92 -311.94 576.62 C-316.68 564.46 -329.06 554.21 -338.01 544.85 C-350.4 531.81 -365.23 515.3 -371 498 C-371.99 498.33 -372.98 498.66 -374 499 C-375.05 501.21 -375.05 501.21 -375.81 504.01 C-376.16 505.12 -376.5 506.22 -376.85 507.37 C-377.23 508.61 -377.61 509.85 -378 511.12 C-411.4 616.77 -411.4 616.77 -444 636 C-459.19 642.91 -476.37 645.1 -492.34 639.19 C-503.58 634.16 -509.57 627.21 -514.05 615.73 C-518.65 602.44 -516.32 587.8 -510.28 575.34 C-505.76 566.69 -505.76 566.69 -503.29 564.45 C-501.79 563.02 -501.79 563.02 -501.58 560.64 C-502.13 557.18 -503.56 555.52 -505.75 552.81 C-513.97 542.04 -516.39 530.39 -515 517 C-511.06 498.23 -499.63 479.26 -486 466 C-485.42 465.43 -484.85 464.85 -484.25 464.26 C-478.21 458.64 -471.21 454.9 -464 451 C-464.68 450.73 -465.36 450.46 -466.06 450.19 C-480.34 444.42 -493.24 438.04 -505 428 C-505.77 427.35 -505.77 427.35 -506.56 426.69 C-518.68 416.46 -532.94 401.47 -535 385 C-535.87 371.92 -535.96 358.25 -528.62 346.81 C-525.9 343.89 -523.73 342.41 -520 341 C-519.34 341 -518.68 341 -518 341 C-518.42 339.79 -518.42 339.79 -518.84 338.55 C-519.2 337.48 -519.56 336.41 -519.94 335.31 C-520.3 334.26 -520.66 333.2 -521.03 332.11 C-523.63 323.79 -524 315.28 -521 307 C-519.33 304.03 -517.25 301.56 -515 299 C-514.17 298.04 -513.33 297.07 -512.48 296.08 C-504.64 287.17 -496.49 278.04 -484.14 276.69 C-464.87 275.93 -451.56 284.67 -437 296 C-436.34 296.48 -435.68 296.96 -435 297.45 C-420.71 308.43 -414.91 327.21 -410.42 343.85 C-406.09 359.79 -401 375.01 -394 390 C-393.54 390.98 -393.08 391.97 -392.61 392.98 C-390.08 398.38 -387.51 403.76 -384.87 409.11 C-384 411 -384 411 -383 414 C-382.34 414 -381.68 414 -381 414 C-381.02 413.33 -381.03 412.66 -381.05 411.96 C-381.14 405.32 -380.68 399.04 -379.56 392.5 C-379.39 391.48 -379.22 390.47 -379.04 389.42 C-374.95 366.79 -368.28 344.62 -361.88 322.56 C-361.63 321.73 -361.39 320.89 -361.14 320.03 C-356.32 303.39 -351 286.87 -344 271 C-345.19 270.59 -345.19 270.59 -346.4 270.18 C-349 269 -349 269 -350.62 266.12 C-351.12 264.76 -351.57 263.38 -352 262 C-352.28 261.14 -352.56 260.28 -352.85 259.4 C-357.49 243.39 -355.78 225.51 -347.79 210.84 C-339.58 197.8 -327.79 185.07 -312.5 181.19 C-310.67 180.78 -308.84 180.38 -307 180 C-307.31 178.73 -307.31 178.73 -307.62 177.44 C-313.15 154.16 -311.51 133.59 -298.81 112.78 C-296.1 108.63 -293.23 104.76 -290 101 C-289.38 100.25 -288.76 99.5 -288.12 98.73 C-277.02 86.39 -260.16 80.95 -243.99 80 C-231.89 79.61 -221.69 83.69 -212.73 91.67 C-211.68 92.61 -211.68 92.61 -210.6 93.57 C-210.07 94.04 -209.54 94.51 -209 95 C-208.96 94.4 -208.92 93.79 -208.88 93.17 C-207.59 74.44 -204.65 61.81 -193 47 C-192.38 46.2 -192.38 46.2 -191.74 45.39 C-176.9 26.54 -161.33 17.28 -137.44 14.06 C-126.07 13.43 -114.98 18.18 -106.44 25.55 C-103.89 28.12 -102.06 31.1 -100.19 34.19 C-99.79 34.82 -99.4 35.44 -98.99 36.09 C-97.58 38.36 -96.2 40.61 -95 43 C-94.57 42.36 -94.15 41.71 -93.71 41.05 C-79.2 20.08 -57.88 2.5 -32.38 -2.38 C-21.61 -4.09 -10.15 -4.36 0 0 Z M-70 31 C-70.87 31.76 -71.75 32.51 -72.65 33.29 C-86.11 45.04 -86.11 45.04 -93 61 C-91.84 60.83 -90.69 60.66 -89.5 60.48 C-84.77 59.79 -80.04 59.13 -75.31 58.47 C-73.13 58.16 -70.94 57.84 -68.75 57.51 C-48.73 54.52 -28.77 53.07 -8.55 52.04 C-7.52 51.98 -6.48 51.93 -5.42 51.87 C-3.47 51.77 -1.53 51.67 0.41 51.58 C5.86 51.29 10.75 50.5 16 49 C15.29 37.16 10.99 25.35 2.12 17.29 C-19.75 -0.29 -51.96 14.63 -70 31 Z M32 53 C33.28 53.24 33.28 53.24 34.59 53.48 C36.56 53.85 38.53 54.22 40.51 54.59 C44.98 55.44 49.45 56.26 53.94 57.03 C90.5 63.51 133.3 75.86 163.34 98.79 C164.93 100.2 164.93 100.2 167 100 C171.16 79.92 167.78 60.5 157 43 C146.72 28.63 131.92 25.18 115.32 22.38 C83.79 18.78 53.89 30.64 32 53 Z M-182.24 51.02 C-189.47 59.98 -195.41 69.39 -197 81 C-197.11 81.75 -197.22 82.51 -197.33 83.29 C-198.21 90.51 -198.09 97.74 -198 105 C-194.14 103.62 -190.72 101.76 -187.18 99.73 C-168.58 89.04 -148.83 81.47 -128.81 73.92 C-128.13 73.66 -127.45 73.4 -126.75 73.14 C-121.95 71.33 -117.1 69.64 -112.22 68.05 C-109.52 66.77 -107.93 65.27 -106 63 C-103.79 55.23 -106.68 47.11 -110.25 40.12 C-113.8 34.27 -118.75 29.62 -125.39 27.47 C-148.82 23.23 -167.61 33.34 -182.24 51.02 Z M-60 69 C-61.08 69.17 -62.16 69.33 -63.27 69.5 C-116.16 77.9 -170.33 100.83 -213 133 C-213.92 133.69 -213.92 133.69 -214.86 134.4 C-218.61 137.22 -222.32 140.09 -226 143 C-226.92 143.72 -227.84 144.45 -228.79 145.2 C-235.07 150.24 -241 155.6 -246.88 161.1 C-249.54 163.59 -252.26 165.98 -255 168.38 C-264.94 177.3 -273.77 187.5 -282 198 C-282.48 198.61 -282.97 199.22 -283.47 199.85 C-328.6 257 -349.44 324.59 -367.06 394.05 C-367.44 395.54 -367.44 395.54 -367.83 397.06 C-369.05 401.88 -370.27 406.7 -371.47 411.53 C-371.91 413.27 -372.35 415.01 -372.79 416.74 C-372.98 417.54 -373.18 418.33 -373.38 419.15 C-374.24 422.56 -375.03 425.05 -377 428 C-378.71 427.63 -380.42 427.22 -382.12 426.81 C-383.08 426.59 -384.03 426.37 -385.01 426.14 C-399.76 420.5 -408.84 396.37 -415 383 C-421.14 368.46 -425.58 353.26 -429.91 338.1 C-435.51 318.69 -446.93 307.27 -464.07 297.2 C-471.57 293.58 -480.83 291.44 -489 294 C-496.19 298.11 -505.13 306.94 -507.62 315.01 C-509.16 323.12 -506.72 330 -502.81 337 C-500.53 341.31 -500.6 345.22 -501 350 C-502.09 350.27 -502.09 350.27 -503.2 350.55 C-512.48 352.42 -512.48 352.42 -519.31 358.19 C-520.19 361.79 -520.73 365.31 -521 369 C-521.07 369.84 -521.13 370.68 -521.2 371.54 C-521.7 383.61 -517.04 395.09 -509.12 404.15 C-507.13 406.18 -505.11 408.1 -503 410 C-502.42 410.52 -501.85 411.04 -501.26 411.57 C-496.55 415.77 -491.68 419.63 -486.56 423.31 C-485.4 424.15 -485.4 424.15 -484.22 425 C-461.8 441.41 -461.8 441.41 -436 449 C-436 449.66 -436 450.32 -436 451 C-436.69 451.1 -437.38 451.2 -438.1 451.3 C-456.4 454.83 -474.63 470.98 -485 486 C-493.87 500 -501.36 514.04 -500 531 C-497.9 540.25 -493.55 547.72 -485.69 553.06 C-482.6 555.25 -482.07 555.82 -480.69 559.56 C-481 563 -481 563 -482.94 565.5 C-484.45 566.74 -484.45 566.74 -486 568 C-495.22 575.71 -499.98 583.07 -502 595 C-502.82 604.49 -501.73 612.39 -495.62 619.94 C-486.01 627.49 -474.66 626.85 -463 626 C-451.3 623.75 -442.11 614.02 -435 605 C-433 601.84 -431.35 598.57 -429.75 595.19 C-429.29 594.23 -428.82 593.28 -428.35 592.3 C-420.71 576.34 -413.93 560.03 -407.52 543.55 C-407.13 542.54 -406.73 541.53 -406.33 540.49 C-404.37 535.45 -402.42 530.4 -400.49 525.34 C-397.19 516.74 -393.82 508.2 -389.77 499.92 C-389.46 499.29 -389.15 498.65 -388.84 498 C-386.52 493.42 -383.68 489.34 -379 487 C-377.07 486.85 -375.13 486.78 -373.19 486.75 C-372.15 486.72 -371.11 486.7 -370.04 486.67 C-365.59 487.15 -363.12 488.73 -360.18 492.07 C-359.61 492.89 -359.03 493.71 -358.44 494.56 C-357.75 495.53 -357.07 496.5 -356.37 497.5 C-354.08 500.86 -351.85 504.25 -349.61 507.65 C-344.46 515.47 -339.21 522.96 -333 530 C-332.22 530.89 -331.44 531.78 -330.63 532.7 C-318.98 545.68 -306.77 558.26 -293 569 C-291.16 570.56 -289.33 572.12 -287.5 573.69 C-275.26 583.87 -262.4 592.99 -248.78 601.23 C-242.96 604.76 -237.3 608.47 -231.69 612.31 C-223.79 617.67 -215.67 622.03 -207 626 C-205.96 626.5 -204.91 626.99 -203.84 627.5 C-134.54 659.02 -45.85 669.85 29 658 C30.58 657.76 32.15 657.53 33.73 657.3 C113.49 645.54 193.4 620.38 257 569 C258.04 568.17 259.09 567.34 260.13 566.51 C265.47 562.21 270.61 557.73 275.67 553.11 C277.75 551.23 279.87 549.39 282 547.56 C301.57 530.48 326.32 504.91 335 480 C335.36 478.97 335.36 478.97 335.73 477.92 C336.72 474.78 337 472.34 337 469 C332.24 469.41 327.51 469.85 322.81 470.75 C281.94 478.53 221.24 472.59 186 449 C183.77 447.18 181.64 445.32 179.56 443.32 C178.09 441.78 178.09 441.78 176 442 C175.06 443.48 174.2 445.01 173.38 446.56 C169.57 453.07 165.15 458.46 157.62 460.44 C154 461 154 461 152 461 C154.16 453.59 157.42 447.37 161.33 440.75 C165.73 433.12 168.06 425.56 169.69 416.94 C169.82 416.26 169.95 415.59 170.08 414.89 C170.39 413.26 170.7 411.63 171 410 C172.65 410 174.3 410 176 410 C178.74 414.52 178.68 419.44 179.14 424.59 C180.49 429.97 183.56 432.08 188.1 434.99 C203.12 443.02 218.53 448.08 235 452.25 C235.65 452.42 236.3 452.58 236.98 452.76 C255.27 457.4 272.81 459.48 291.71 459.34 C294.96 459.31 298.21 459.32 301.46 459.32 C321.03 459.48 321.03 459.48 339.31 453.25 C339.99 452.9 340.67 452.54 341.38 452.17 C347.89 448.69 353.63 445.39 356 438 C358.32 419.61 350.72 400.7 344 384 C343.48 382.69 343.48 382.69 342.95 381.36 C336.49 365.46 328.72 350.16 321.06 334.81 C320.56 333.8 320.05 332.79 319.54 331.75 C312.72 318.09 305.61 304.62 298.24 291.25 C296.69 288.44 295.17 285.61 293.66 282.78 C288.45 273.05 282.97 263.58 277.07 254.25 C272.93 247.65 269.13 240.9 265.4 234.07 C256.72 218.18 247.14 203.27 236 189 C235.04 187.76 235.04 187.76 234.05 186.5 C215.03 162.43 194.05 138.22 168.93 120.39 C167.04 119.03 165.2 117.62 163.36 116.2 C121.81 84.18 63.4 66.02 11.13 65.8 C9.48 65.79 9.48 65.79 7.78 65.78 C4.23 65.76 0.68 65.75 -2.88 65.75 C-4.09 65.75 -5.3 65.75 -6.55 65.75 C-24.56 65.76 -42.19 66.14 -60 69 Z M-279.12 109.74 C-285.15 117 -289.56 125.25 -293 134 C-293.32 134.79 -293.64 135.58 -293.97 136.4 C-298.71 150.38 -297.47 166.87 -291 180 C-290.34 180.99 -289.68 181.98 -289 183 C-288.34 183 -287.68 183 -287 183 C-285.95 181.75 -284.96 180.45 -284 179.12 C-279.72 173.62 -274.93 168.73 -270 163.81 C-269.24 163.05 -268.48 162.29 -267.7 161.51 C-262.96 156.81 -258.07 152.35 -253 148 C-251.91 147.04 -250.81 146.08 -249.72 145.11 C-242.91 139.17 -235.94 133.55 -228.59 128.27 C-220.55 122.45 -220.55 122.45 -214.81 114.56 C-215.17 109.62 -217.25 105.73 -220.77 102.26 C-238.42 88.26 -264.43 94.15 -279.12 109.74 Z M-329 205 C-336.56 212.97 -341.01 221.24 -343.25 231.94 C-343.42 232.68 -343.6 233.43 -343.77 234.2 C-345.63 242.75 -345.33 250.16 -343 258.56 C-342.81 259.29 -342.62 260.01 -342.42 260.75 C-341.96 262.5 -341.48 264.25 -341 266 C-338.35 262.72 -336.49 259.26 -334.59 255.5 C-333.93 254.19 -333.27 252.89 -332.61 251.59 C-332.26 250.91 -331.92 250.23 -331.56 249.53 C-313.39 213.73 -313.39 213.73 -302 201 C-300.97 199.77 -299.95 198.55 -298.94 197.31 C-297.98 196.17 -297.98 196.17 -297 195 C-309.77 189.22 -319.15 196.33 -329 205 Z M-297 584 C-288.92 605.67 -272.09 625.69 -256.43 642.38 C-254.48 644.48 -252.63 646.6 -250.81 648.81 C-248.19 651.91 -245.28 654.51 -242.18 657.12 C-240.67 658.42 -239.2 659.78 -237.76 661.16 C-221.86 676.35 -206.36 679.56 -185.09 679.21 C-173.98 679.06 -167 679.82 -158 687 C-147.12 693.27 -134.36 694.26 -122.06 694.38 C-120.77 694.4 -120.77 694.4 -119.45 694.42 C-109.16 694.34 -102.65 691.44 -95.24 684.35 C-89.88 678.99 -89.88 678.99 -88 672 C-97.85 669.22 -107.71 667.33 -117.81 665.69 C-162.76 658.17 -211.55 644.16 -248.62 616.82 C-253.29 613.41 -258.16 610.41 -263.12 607.44 C-270.47 603.03 -277.25 598.28 -284 593 C-286.22 591.3 -288.45 589.62 -290.69 587.94 C-291.68 587.18 -292.68 586.43 -293.7 585.65 C-295.66 583.9 -295.66 583.9 -297 584 Z " fill="#000000" transform="translate(656,270)"/>
<path d="M0 0 C3 1 3 1 4.08 2.93 C6.34 8.9 8.15 14.83 9.56 21.06 C9.77 21.97 9.98 22.87 10.2 23.81 C14.3 41.85 16.23 59.37 16.25 77.88 C16.25 79.03 16.25 79.03 16.25 80.2 C16.23 102.43 15.2 129.65 0.99 148.01 C-2.42 151.42 -6.48 153.83 -10.59 156.34 C-11.38 156.89 -12.18 157.43 -13 158 C-13 158.66 -13 159.32 -13 160 C-12.1 160.34 -12.1 160.34 -11.19 160.69 C-8.31 162.42 -7.33 163.92 -6 167 C-6.09 170.99 -7.1 173.19 -9.38 176.31 C-10.53 178.03 -10.53 178.03 -11 180 C-8.99 187.42 -3.19 192.41 3.11 196.3 C33.54 212.79 73.19 210.95 105.45 201.54 C132.75 193.02 156.01 171.71 169.41 146.59 C186.23 113.49 191.6 76.59 194 40 C195.32 40 196.64 40 198 40 C200.41 48.99 200.4 58.02 200.38 67.25 C200.37 68.05 200.37 68.85 200.37 69.67 C200.32 82.82 199.35 95.23 196 108 C195.75 108.96 195.51 109.93 195.25 110.92 C191.57 125.02 186.93 138.68 181 152 C180.72 152.63 180.44 153.26 180.16 153.91 C176.19 162.66 170.61 169.34 163.91 176.07 C161.73 178.27 159.58 180.5 157.42 182.73 C128.62 212.27 96.28 223.59 55.25 224.25 C52.83 224.2 50.42 224.12 48 224 C47.34 223.97 46.68 223.94 46.01 223.91 C26.56 222.84 1.13 217.6 -13.48 203.72 C-20.55 195.71 -25.44 187.92 -25.2 177.08 C-25 175 -25 175 -24.33 172.93 C-23.77 170.97 -23.77 170.97 -25 169.39 C-25.71 168.61 -25.71 168.61 -26.44 167.81 C-29.06 164.33 -29.94 161.69 -29.68 157.33 C-27.64 150.31 -20.36 145.2 -14.86 140.8 C-4.87 131.12 -4.25 114.5 -2.81 101.38 C-2.65 99.96 -2.48 98.55 -2.31 97.14 C-1.85 93.1 -1.39 89.05 -1 85 C-0.91 84.08 -0.82 83.16 -0.73 82.21 C0.07 73.12 0.13 64.09 0.1 54.98 C0.1 53.38 0.09 51.79 0.09 50.19 C0.09 46.04 0.08 41.89 0.07 37.73 C0.06 33.47 0.05 29.22 0.05 24.96 C0.04 16.64 0.02 8.32 0 0 Z " fill="#000000" transform="translate(494,626)"/>
<path d="M0 0 C7.95 6.92 12.88 16.84 13.65 27.38 C13.87 38.88 12.08 48.06 4.48 57.05 C0.59 60.89 -3.82 63.46 -8.59 66.1 C-9.68 66.7 -9.68 66.7 -10.78 67.32 C-13.23 68.68 -15.69 70.02 -18.15 71.35 C-19.32 71.98 -19.32 71.98 -20.51 72.63 C-32.95 79.19 -49.42 83.11 -63.31 78.96 C-76.56 73.92 -88.21 66.61 -95.59 54.1 C-98.76 46.48 -99.06 37.66 -96.53 29.8 C-88.49 12.92 -74.09 -0.01 -56.59 -6.45 C-35.79 -13.52 -18.05 -13.9 0 0 Z M-41.9 1.66 C-43.14 2.21 -43.14 2.21 -44.41 2.76 C-59.36 9.46 -74.61 18.4 -81.53 34.04 C-83.41 39.74 -82.6 44.81 -80.21 50.22 C-72.82 58.32 -61.11 64.4 -50.12 65.3 C-33.95 65.59 -18.98 58.88 -6.71 48.54 C-0.55 42.43 0.53 37.73 0.79 29.16 C0.56 20.89 -0.41 15.07 -6.15 8.91 C-13.04 2.53 -20.57 -2.28 -30.11 -2.16 C-34.38 -1.72 -38.02 -0.1 -41.9 1.66 Z " fill="#000000" transform="translate(1025.58984375,312.90234375)"/>
<path d="M0 0 C7.38 5.35 14.18 16.06 16 25 C17.16 43.62 17.16 43.62 12 50 C11.55 50.56 11.1 51.13 10.63 51.71 C2.18 61.03 -11.24 70.16 -24.07 71.16 C-26.46 71.21 -28.86 71.24 -31.25 71.25 C-32.07 71.27 -32.89 71.29 -33.74 71.31 C-44.44 71.38 -51.28 67.23 -59 60 C-67.31 51.14 -69.52 43.92 -69.3 31.78 C-68.44 21.02 -63.04 11.21 -54.86 4.15 C-39.3 -6.21 -15.98 -10.53 0 0 Z M-48.81 16.81 C-54.18 23.29 -56.73 30.33 -56.31 38.75 C-55.21 46.7 -48.98 51.54 -43.12 56.38 C-35.49 60.35 -27.09 59.23 -19 57 C-10.38 53.58 -3.29 47.74 3 41 C5.31 34.07 3.67 27.57 1 21 C-2.49 14.42 -7.13 7.58 -14.49 5.19 C-29.19 2.03 -38.61 6.09 -48.81 16.81 Z " fill="#000000" transform="translate(1047,425)"/>
<path d="M0 0 C6.26 5.17 9.19 12.64 10.38 20.54 C10.74 28.08 8.94 35.48 4.05 41.33 C-4.98 49.84 -14.53 52.43 -26.71 52.27 C-34.03 51.67 -38.46 48.92 -43.44 43.62 C-48.59 37.3 -49.48 32.09 -49.31 24.03 C-48.29 14.06 -41.67 6.83 -34.19 0.69 C-23.49 -6.88 -10.81 -7.35 0 0 Z M-21.62 8.75 C-23.8 10.78 -25.9 12.89 -28 15 C-25.57 17.43 -24.43 17.44 -21.06 17.81 C-20.19 17.92 -19.31 18.03 -18.41 18.14 C-15.97 18.2 -15.97 18.2 -14.2 16.77 C-12.73 14.6 -12.68 13.41 -12.81 10.81 C-12.87 9.55 -12.94 8.3 -13 7 C-16.95 5.33 -18.55 6.1 -21.62 8.75 Z " fill="#000000" transform="translate(853,562)"/>
<path d="M0 0 C5.13 4.19 8.62 9.99 9.87 16.52 C10.48 23.58 9.89 29.96 5.7 35.83 C-0.67 43 -7.74 47.1 -17.27 47.99 C-25.67 48.28 -32.96 47.55 -39.75 42.28 C-45.32 36.61 -47.5 28.58 -48.38 20.87 C-47.3 12.94 -43.34 7.47 -37.26 2.55 C-26.88 -4.8 -11.23 -6.69 0 0 Z M-22.57 10.43 C-23.49 10.94 -24.41 11.45 -25.36 11.98 C-27.96 13.69 -29.96 15.28 -31.95 17.68 C-32.43 22.04 -32.47 24.5 -30.7 28.49 C-28.27 31.52 -26.29 33.39 -22.43 34.22 C-17.2 34.38 -13.6 34.07 -9.38 30.8 C-5.9 27.27 -4.56 23.94 -3.93 19.05 C-3.96 14.56 -5.73 11.94 -8.76 8.8 C-13.75 6.23 -17.96 7.8 -22.57 10.43 Z " fill="#000000" transform="translate(1045.9453125,541.3203125)"/>
<path d="M0 0 C2.28 1.44 4.31 2.97 6.37 4.71 C7.01 5.23 7.64 5.74 8.3 6.27 C14.16 11.51 17.96 18.97 19.37 26.71 C19.49 28.88 19.55 31.04 19.56 33.21 C19.57 34.34 19.59 35.46 19.6 36.62 C19.38 39.58 18.92 41.22 17.37 43.71 C15.61 43.58 15.61 43.58 13.37 42.71 C11.48 40.12 11.48 40.12 9.56 36.77 C8.86 35.58 8.15 34.4 7.45 33.21 C7.1 32.62 6.75 32.03 6.39 31.42 C1.15 22.63 -4.49 14.89 -14.63 11.71 C-29.9 10.36 -42.25 13.29 -54.63 22.71 C-60.44 27.71 -64.99 33.26 -69.22 39.64 C-70.63 41.71 -70.63 41.71 -72.63 43.71 C-74.75 43.34 -74.75 43.34 -76.63 42.71 C-77.59 32.72 -74.52 25.96 -68.25 18.27 C-59.85 9.33 -49.15 1.93 -37.63 -2.29 C-36.68 -2.65 -35.73 -3.02 -34.76 -3.39 C-24.2 -6.42 -9.81 -4.81 0 0 Z " fill="#000000" transform="translate(854.62890625,534.2890625)"/>
<path d="M0 0 C6.54 3.34 9.92 6.35 12.46 13.33 C14.53 21.62 13.94 29.61 10.19 37.25 C8.25 40.44 8.25 40.44 6.19 43.25 C5.32 44.52 5.32 44.52 4.44 45.81 C0.34 50.25 -5.11 53.89 -11.23 54.49 C-17.56 54.66 -22.76 54.37 -27.81 50.25 C-34.1 42.59 -34.57 34.91 -33.81 25.25 C-31.77 15.57 -26.02 6.42 -18.44 0.06 C-12.63 -3.55 -6.04 -2.52 0 0 Z M-14.81 11.25 C-21.31 19.9 -23.74 26.45 -22.81 37.25 C-21.43 40.33 -20.17 41.89 -17.81 44.25 C-13.09 45.02 -10.17 44.19 -6.19 41.75 C-0.77 37.85 2.92 32.88 4.19 26.25 C4.78 19.64 4.31 13.22 1.19 7.25 C-5.35 2.89 -9.84 6.32 -14.81 11.25 Z " fill="#000000" transform="translate(358.8125,572.75)"/>
<path d="M0 0 C4.88 3.74 6.95 7.91 7.96 13.91 C8.77 21.24 8.77 27.55 4.63 33.85 C-1.96 42.01 -10.12 47.54 -20.59 49.35 C-24.46 49.55 -26.79 49.02 -30.35 47.41 C-34.57 43.49 -37.61 37.86 -38.24 32.04 C-38.44 23.06 -36.87 15.56 -31.04 8.54 C-23.51 0.79 -10.52 -5.63 0 0 Z M-10.35 10.16 C-11.48 10.58 -12.61 11 -13.77 11.43 C-19.08 13.84 -22.42 16.69 -25.04 21.91 C-26.32 26.22 -26.6 30.45 -26.04 34.91 C-24.74 37.71 -24.74 37.71 -22.04 38.91 C-15.05 39.15 -10.24 36.44 -5.04 31.91 C-0.32 26.89 0.5 22.28 0.34 15.52 C-0.06 12.73 -0.88 10.48 -2.04 7.91 C-5.07 7.91 -7.52 9.1 -10.35 10.16 Z " fill="#000000" transform="translate(451.03515625,446.08984375)"/>
<path d="M0 0 C4.9 4.91 6.81 10.81 7.07 17.63 C6.67 25.86 3.5 31.31 -2.43 36.9 C-9.61 42.49 -17.42 45.14 -26.5 44.51 C-31.17 42.77 -33.76 40.67 -36.5 36.51 C-38.97 28.88 -38.26 20.19 -34.95 12.96 C-31.16 6.57 -26.11 -0.09 -18.66 -2.16 C-12.29 -3.14 -5.55 -3.83 0 0 Z M-16.88 6.75 C-22.35 12.68 -26.13 20.17 -26.81 28.2 C-26.72 31.39 -26.72 31.39 -25.43 33.51 C-22.21 35.17 -19.96 34.36 -16.5 33.51 C-10.38 31.19 -6.73 28.38 -3.41 22.63 C-1.84 19 -2.04 15.39 -2.5 11.51 C-4.1 7.81 -6.02 5.57 -9.5 3.51 C-13 3.51 -14.29 4.49 -16.88 6.75 Z " fill="#000000" transform="translate(405.49609375,501.4921875)"/>
</svg>
