<?xml version="1.0" encoding="utf-8"?>
<!-- Generator: Adobe Illustrator 23.0.1, SVG Export Plug-In . SVG Version: 6.00 Build 0)  -->
<svg version="1.1" id="Layer_1" xmlns="http://www.w3.org/2000/svg" xmlns:xlink="http://www.w3.org/1999/xlink" x="0px" y="0px"
	 viewBox="0 0 864 864" style="enable-background:new 0 0 864 864;" xml:space="preserve">
<style type="text/css">
	.st0{fill:#050505;}
</style>
<g>
	<g>
		<g>
			<path class="st0" d="M450.12,248.77c6.59-7.32,38.62-54.81,31.37-60.08c-7.25-5.26-14.25-2.74-14.25-2.74s42.07-42.88,38.1-48.98
				c-3.97-6.1-22.09-3.49-22.09-3.49s51.76-32.26,48.93-41.74c-2.82-9.48,27.32,8.19,19.06,40.5c-8.26,32.3-61,96.49-76.61,108.93
				C459,253.62,450.12,248.77,450.12,248.77z"/>
		</g>
	</g>
	<g>
		<path class="st0" d="M321.03,355.98l-7.74-6.05c0.35-0.27,0.7-0.54,0.77-0.6c1.87-1.52,2.15-4.27,0.63-6.15
			c-1.51-1.87-4.26-2.16-6.15-0.63c-4.75,3.85-19.39,13.59-30.09,12.22c-3.64-0.46-6.51-2.16-8.76-5.2
			c-10.75-14.49,2.61-28.88,11.53-36.17c0.07-0.06,0.55-0.46,0.62-0.52c1.73-1.61,1.66-4.12,0.12-5.9
			c-1.55-1.78-4.44-1.84-6.26-0.35c-19,15.52-23.87,33.52-13.03,48.14c3.7,4.99,8.65,7.91,14.71,8.67c1.04,0.13,2.08,0.19,3.14,0.19
			c7.66,0,15.58-3.24,21.82-6.63l2.44,9.34c0.51,1.96,2.29,3.26,4.22,3.26c0.37,0,0.74-0.05,1.11-0.14c2.33-0.61,3.73-3,3.12-5.33
			l-1.04-3.97l3.44,2.69c0.8,0.62,1.75,0.93,2.69,0.93c1.3,0,2.59-0.58,3.45-1.68C323.27,360.21,322.93,357.47,321.03,355.98z"/>
	</g>
	<g>
		<g>
			<circle class="st0" cx="167.24" cy="310.34" r="20.32"/>
		</g>
	</g>
	<g>
		<circle class="st0" cx="600.26" cy="531.51" r="13.21"/>
	</g>
	<g>
		<circle class="st0" cx="540.06" cy="544.24" r="6.92"/>
	</g>
	<g>
		<circle class="st0" cx="559.62" cy="501.26" r="6.95"/>
	</g>
	<g>
		<circle class="st0" cx="572.5" cy="560.55" r="5.92"/>
	</g>
	<g>
		<circle class="st0" cx="619.83" cy="572.83" r="6.36"/>
	</g>
	<g>
		<circle class="st0" cx="640.02" cy="541.52" r="10.01"/>
	</g>
	<g>
		<circle class="st0" cx="665.76" cy="579.39" r="6.56"/>
	</g>
	<g>
		<circle class="st0" cx="645.67" cy="602.65" r="5.65"/>
	</g>
	<g>
		<circle class="st0" cx="608.61" cy="594.3" r="8.35"/>
	</g>
	<g>
		<circle class="st0" cx="372.71" cy="237.65" r="7.35"/>
	</g>
	<g>
		<circle class="st0" cx="336.15" cy="245" r="11.24"/>
	</g>
	<g>
		<circle class="st0" cx="374.65" cy="269.87" r="9.3"/>
	</g>
	<g>
		<circle class="st0" cx="408.57" cy="243.67" r="6.03"/>
	</g>
	<path class="st0" d="M750.96,554.24c-1.42-5.59-4.72-8.06-7.24-9.15c-4.59-1.98-9.98-0.99-13.97,0.34
		c0.25-14.12-0.99-44.02-15.85-46.08c-5.64-0.78-10.49,0.33-14.42,3.32c-1.8,1.37-3.21,3-4.31,4.67
		c-5.36-12.75-16.47-33.44-31.01-29.35c-12.16,3.4-16.44,17.78-17.52,33.27c-24.54-21.89-55.12-36.7-86.19-39.85
		c-40.94-4.17-97.35-0.8-120.58,0.93c20.77-20.26,73.72-79.38,59.43-142.89c-3.99-17.73-11.61-35.02-22.66-51.43
		c14.26-11.32,33.93-28.98,51.49-51.9c32.65-42.63,57.64-128.39,46.1-158.21c-4.85-12.52-14.78-20.66-27.27-22.35
		c-21.3-2.91-46.6,13.1-69.41,43.84c-30.78,41.48-44.12,112.45-48.42,141.06c-4.56-3.08-9.22-5.89-13.95-8.48
		c9.61-46.53,19.22-113.18,12.5-158.94c-4.04-27.52-13.67-45.27-28.6-52.75c-17.63-8.83-33.05-9.05-45.85-0.64
		c-27.88,18.33-35.42,75.17-33.63,106.68c1.22,21.41,14.98,56.35,28,86.4c-9.09-0.39-18.18,0.07-27.2,1.42
		c-50.26,7.55-73.61,38.73-89.06,59.37c-5.01,6.69-9.33,12.46-13.25,15.6c-4.43,3.54-12.92,5.52-21.91,7.62
		c-19.97,4.66-47.33,11.04-46.65,42.05c1.21,55.43,28.14,103.53,80.06,142.96c12.08,9.17,29.74,16.5,44.36,21.53
		c-21.38-0.84-50.71-3.12-69.41-9.19c-9.52-3.09-20.08-8.49-30.29-13.71c-19.02-9.73-36.99-18.92-48.96-13.76
		c-4.95,2.13-8.43,6.49-10.33,12.95c-9.87,33.57,65.86,96.61,105.14,110c5.17,1.76,10.24,3.36,15.18,4.83
		c-20.31,10.01-42.14,20.35-50.07,22.57c-3.86,1.08-9.51,1.98-15.49,2.94c-21.13,3.38-47.43,7.58-46.19,25.66
		c0.29,4.2,2.58,8.05,6.82,11.44c13.2,10.56,43.89,15.67,73.16,15.67c11.3,0,22.4-0.76,32.19-2.27
		c23.79-3.66,58.67-12.73,81.44-24.01c20.42,29.62,49.76,66.46,76.09,78.05c21.74,9.56,51.26,12.54,76.4,13.03
		c2.67,19.96,9.92,47.07,29.49,61.64c22.09,16.45,33.26,22.58,38.25,24.84c-2.11,11.67-5.82,37.82,1.7,44.66
		c1.21,1.1,2.74,1.68,4.39,1.68c0.5,0,1.01-0.05,1.52-0.16c12.67-2.59,35.45-43.46,40.13-53.67c3.02-6.59,4.81-15.09,5.41-24.24
		c5.78,3.36,11.19,5.99,15.85,7.45c22.21,6.94,37.41,9.61,43.43,10.5c1.6,10.51,7.87,43.27,24.33,49.34c1,0.37,2.19,0.64,3.54,0.64
		c2.38,0,5.24-0.86,8.29-3.6c15-13.47,25.21-65.66,19.83-87.2c-3.64-14.57-11.52-22.37-17.86-28.64c-4.96-4.91-8.54-8.45-8.86-13.6
		c-0.2-3.25,2.26-11.38,5.12-20.79c6.33-20.88,15.81-52.21,14.25-84.45c10.17-0.3,21-3.67,30.71-10.09
		C747.02,589.93,755.38,571.72,750.96,554.24z M326.96,115.89c-1.83-32.09,6.37-84.36,30.32-100.12c10.44-6.86,23.4-6.5,38.51,1.07
		c40.96,20.52,26.26,132.92,12.34,201.48c-16.79-8.16-34.43-13.24-52.23-15.02C342.99,173.68,328.15,136.82,326.96,115.89z
		 M234.58,653.11c-37.22,5.73-84.71,0.06-99.64-11.88c-2.56-2.05-3.94-4.13-4.08-6.2c-0.78-11.37,22.79-15.14,40.01-17.89
		c6.19-0.99,12.05-1.92,16.31-3.12c9.46-2.65,36.26-15.52,58.63-26.66c22.78,6.16,40.86,9.12,46.47,9.96
		c2.59,4.46,10.15,17.24,20.67,32.91C292.73,640.01,260.93,649.06,234.58,653.11z M578.42,803.38
		c-8.47,18.49-28.53,48.13-34.67,49.49c-3.17-3.94-1.89-23.83,1.39-40.54c0.37-1.89-0.85-3.76-2.7-4.27
		c-0.36-0.1-9.18-2.7-38.94-24.86c-17.04-12.69-23.74-37.11-26.36-55.66c20.04,0.02,36.19-1.4,41.43-1.92
		c6.74,6.25,38.15,34.96,64.76,52.18C583.11,787.55,581.48,796.7,578.42,803.38z M677.15,694.16c-3.43,11.33-5.7,18.81-5.42,23.38
		c0.5,7.95,5.61,13.01,11.02,18.37c5.98,5.92,12.75,12.63,15.9,25.2c5.14,20.56-5.56,69.13-17.61,79.94
		c-2.48,2.22-3.85,1.72-4.37,1.53c-12.19-4.49-18.55-34.85-19.97-46.17c-0.21-1.69-1.57-3.02-3.26-3.2
		c-0.17-0.02-17.03-1.88-44.88-10.58c-27.47-8.59-85.6-62.98-86.18-63.53c-0.69-0.64-1.59-1-2.52-1c-0.13,0-0.27,0.01-0.41,0.02
		c-0.79,0.09-79.98,8.61-123.26-10.44c-43.07-18.95-97.86-114.59-98.41-115.56c-0.57-1-1.58-1.68-2.72-1.83
		c-0.34-0.04-34.09-4.59-72.59-17.71c-18.99-6.47-46.38-24.78-68.15-45.55c-23.77-22.68-35.84-43.39-32.31-55.41
		c1.27-4.32,3.29-7.03,6.18-8.27c8.82-3.79,26.04,5.03,42.71,13.55c10.47,5.35,21.3,10.89,31.37,14.16
		c33.27,10.79,95.98,10.06,98.62,10.01c1.86-0.03,3.4-1.43,3.61-3.27c0.2-1.84-1-3.55-2.8-3.98c-0.45-0.11-45.29-10.97-67.66-27.96
		c-50.04-38.01-76-84.19-77.15-137.27c-0.55-25.04,20.56-29.96,40.97-34.72c9.82-2.29,19.1-4.46,24.83-9.04
		c4.66-3.72,9.24-9.85,14.55-16.94c15.61-20.85,36.99-49.41,84.27-56.51c36.96-5.54,75.4,4.56,108.27,28.45
		c1.05,0.76,2.42,0.91,3.61,0.41c1.19-0.51,2.03-1.6,2.2-2.89c3.11-22.73,15.74-100.27,47.9-143.62
		c21.16-28.52,43.94-43.44,62.51-40.93c9.89,1.34,17.49,7.63,21.39,17.72c11.22,28.99-17.29,114.81-45.08,151.09
		c-18.23,23.8-38.82,41.8-52.89,52.71c-1.55,1.2-1.88,3.41-0.76,5.02c11.57,16.47,19.47,33.86,23.48,51.69
		c6.54,29.06-1.26,60.9-23.19,94.62c-16.53,25.44-36.12,43.85-41.67,48.3c-1.27,1.01-1.72,2.74-1.11,4.25
		c0.61,1.51,2.1,2.45,3.75,2.29c0.77-0.07,78.02-7.05,129.8-1.79c54.35,5.53,107.18,48.48,125.62,102.13
		C699.24,621.3,685.41,666.91,677.15,694.16z M725.09,595.62c-8.69,5.75-18.33,8.75-27.21,8.94c-0.89-8.75-2.63-17.52-5.59-26.11
		c-7.76-22.57-21.34-43.33-38.51-60.48c0.24-15.1,2.86-30.25,12.37-32.91c10.03-2.81,21.47,21.41,25.43,33.59
		c0.53,1.63,2.08,2.68,3.83,2.53c1.71-0.15,3.09-1.47,3.31-3.18c0.01-0.06,0.94-6.22,5.22-9.48c2.34-1.78,5.27-2.4,8.95-1.89
		c7.99,1.11,10.27,27.06,9.3,44.24c-0.08,1.34,0.58,2.61,1.72,3.32c1.13,0.71,2.56,0.75,3.74,0.1c2.14-1.19,9.15-4.18,13.15-2.46
		c0.95,0.41,2.29,1.29,3.03,4.2C748.17,573.21,736.99,587.74,725.09,595.62z"/>
</g>
</svg>
