<?xml version="1.0" encoding="UTF-8"?>
<!-- Generator: visioncortex VTracer 0.6.3 -->
<svg version="1.1" xmlns="http://www.w3.org/2000/svg" width="1044" height="1280">
<path d="M0 0 C0.77 -0.01 1.54 -0.01 2.34 -0.02 C61.93 -0.44 118.87 16.6 162.34 58.74 C176.92 73.17 189.76 90.34 200.56 107.77 C204.26 113.7 207.92 118.9 214.81 121.2 C216.67 121.31 218.52 121.36 220.38 121.38 C221.52 121.39 222.67 121.41 223.84 121.42 C225.08 121.43 226.31 121.43 227.58 121.44 C229.49 121.45 229.49 121.45 231.43 121.47 C234.11 121.48 236.8 121.49 239.49 121.5 C242.92 121.51 246.36 121.54 249.79 121.58 C253.07 121.62 256.36 121.62 259.64 121.63 C261.49 121.66 261.49 121.66 263.37 121.68 C269.8 121.67 273.96 121.63 278.81 117.2 C280.38 115.64 280.38 115.64 281.56 113.89 C282.3 112.85 282.3 112.85 283.06 111.79 C285.71 107.88 288.32 103.93 290.93 99.98 C300.64 85.37 311.8 71.96 323.81 59.2 C324.9 58.03 324.9 58.03 326.02 56.83 C352.71 29.05 389.96 13.16 426.88 4.45 C427.7 4.25 428.52 4.06 429.37 3.85 C443.98 0.57 458.89 -0.21 473.81 -0.17 C474.61 -0.17 475.41 -0.17 476.23 -0.17 C526.07 -0.02 576.4 17.65 612.81 52.2 C614.05 53.25 615.3 54.3 616.56 55.33 C644.42 79.1 660.17 119.01 663.5 154.64 C666.46 192.64 654.45 234.89 629.81 264.2 C612.05 284.81 590.87 302.17 562.76 304.45 C549 305.18 536.54 304.8 523.81 299.2 C522.95 298.83 522.09 298.46 521.2 298.07 C514.86 294.93 509.82 290.13 504.81 285.2 C504.16 284.56 503.51 283.92 502.84 283.27 C495.5 275.51 490.3 265.42 490.48 254.66 C490.81 252.2 490.81 252.2 492.69 249.08 C497.17 246.39 500.71 246.5 505.81 247.2 C507.55 247.67 509.28 248.17 511 248.7 C523.23 252.32 534.2 250.55 545.36 244.92 C560.39 236.54 572 222.95 576.95 206.39 C580.24 192.21 578.3 176.59 570.95 164.01 C569.03 161.27 567.01 158.73 564.81 156.2 C564.03 155.26 564.03 155.26 563.23 154.29 C553.05 143 536.88 135.09 521.77 133.98 C500.83 133.26 477.9 134.15 459.81 146.2 C460.87 145.87 461.92 145.53 463 145.18 C491.78 136.19 519.64 137.92 546.81 151.2 C555.36 155.93 564.4 161.58 567.81 171.2 C568.47 176.27 567.62 180.01 565.2 184.42 C562.72 187.61 559.5 188.78 555.81 190.2 C543.41 195.35 536.92 200.62 529.81 212.2 C518.73 229.96 495.46 241.2 475.81 246.2 C465.2 248.6 454.54 249.07 443.81 247.2 C443.9 248.03 443.99 248.86 444.09 249.72 C445.87 266.21 447.61 282.59 446.81 299.2 C446.78 300 446.74 300.8 446.7 301.62 C445.11 330.7 438.22 360.98 426.62 387.69 C425.32 391.72 425.15 394.8 426.99 398.67 C447.44 427.08 523.05 436.57 554.97 444.09 C555.99 444.33 557.01 444.57 558.05 444.82 C562.95 445.98 567.84 447.12 572.75 448.24 C582.01 450.38 591.11 452.79 600.14 455.79 C600.98 456.07 601.83 456.35 602.7 456.64 C633.51 467.18 657.95 490.02 674.81 517.46 C677.27 520.83 678.87 521.9 682.93 522.54 C700.36 522.83 714.61 513.73 726.81 502.2 C736.81 492.32 744.46 481.05 751.21 468.76 C753.51 465.1 755.44 462.63 759.62 461.33 C763.52 461.18 766.19 461.73 769.81 463.2 C782.05 476.49 784.12 500.94 783.81 518.2 C782.58 539.73 771.91 560.17 756.19 574.77 C753.64 576.86 752.43 577.31 749.06 578.2 C747.99 578.53 746.92 578.86 745.81 579.2 C745.41 580.13 745 581.05 744.58 582 C742.23 586.26 739.62 587.41 735.31 589.39 C734.6 589.73 733.88 590.07 733.14 590.43 C721.34 595.91 709.68 597.22 696.81 597.77 C695.85 597.81 694.88 597.85 693.89 597.9 C691.53 598 689.17 598.1 686.81 598.2 C684.52 606.69 682.31 615.18 680.23 623.72 C676.13 640.47 671.57 657.07 666.85 673.66 C666.6 674.55 666.34 675.44 666.08 676.36 C665.61 678.02 665.14 679.67 664.66 681.33 C660.02 696.66 660.02 696.66 662.12 712.08 C664.62 716.5 668.2 720.04 671.67 723.71 C684.3 737.14 688.47 752.35 687.99 770.71 C687.29 784.55 685.14 798.05 682.19 811.58 C682.01 812.4 681.83 813.23 681.65 814.08 C676.14 839.52 668.69 863.98 660.38 888.64 C659.97 889.84 659.57 891.04 659.16 892.27 C655.03 904.5 650.78 916.68 646.03 928.68 C645.5 930.04 645.5 930.04 644.97 931.43 C643.01 936.23 641.45 939.49 636.81 942.2 C628.85 945.29 620.63 945.67 612.19 945.58 C611.13 945.59 610.08 945.6 608.99 945.61 C601.23 945.58 592.92 945.31 587.19 939.58 C584.27 932.41 585.96 925.37 588.05 918.18 C588.29 917.33 588.52 916.48 588.77 915.6 C589.28 913.77 589.79 911.95 590.31 910.12 C591.43 906.21 592.51 902.28 593.6 898.36 C594.45 895.31 595.3 892.25 596.15 889.2 C602.48 866.42 608.51 843.59 613.38 820.45 C613.54 819.67 613.7 818.9 613.87 818.09 C618.43 802.27 618.43 802.27 617.81 787.2 C615.7 786.28 613.54 785.44 611.38 784.64 C604.89 782.24 604.89 782.24 602.81 781.2 C602.66 783.02 602.66 783.02 602.5 784.87 C601.79 791.23 600.27 797.37 598.75 803.58 C598.44 804.86 598.13 806.13 597.8 807.45 C590.08 838.7 579.89 869.49 568.31 899.52 C568.06 900.17 567.81 900.82 567.56 901.49 C560.92 918.71 560.92 918.71 556.25 922.02 C547.75 924.95 539.56 925.4 530.62 925.45 C529.69 925.46 528.75 925.47 527.78 925.48 C519.93 925.45 512.66 925.05 506.81 919.2 C504.12 915.61 504.52 911.5 504.81 907.2 C505.41 904.48 506.07 901.92 506.88 899.27 C507.34 897.66 507.8 896.06 508.27 894.46 C508.64 893.18 508.64 893.18 509.03 891.88 C514.75 872.37 519.85 852.71 524.78 832.99 C525.31 830.92 525.83 828.84 526.36 826.77 C529.63 813.83 532.85 800.9 535.28 787.79 C535.44 786.92 535.61 786.06 535.77 785.17 C537.63 775.96 537.63 775.96 534.96 767.47 C530.72 764.42 526.31 762.77 521.44 760.95 C500.38 752.68 481.65 739.58 468.12 721.14 C467.4 720.16 466.67 719.18 465.93 718.17 C464.46 716.11 463.04 714.02 461.67 711.89 C460.09 709.14 460.09 709.14 457.81 708.2 C446.66 707.4 434.93 707.69 426.12 715.31 C421.86 721.48 422.37 729.38 422.04 736.57 C418.85 802.72 404.53 870.06 379.44 931.39 C379.14 932.13 378.84 932.87 378.54 933.64 C375.67 940.36 371.93 944.15 365.19 946.89 C350.63 952.51 334.39 953.37 319.51 948.47 C315.71 946.68 312.69 944.6 310.44 941.02 C308.54 932.49 312.36 923.82 315 915.83 C330.86 866.37 338.9 810.26 328.5 758.95 C328.31 758.02 328.12 757.09 327.93 756.12 C326.11 747.65 323.48 739.45 320.81 731.2 C320.74 732.03 320.74 732.03 320.66 732.87 C315.63 786.21 307.31 837.81 287.62 887.95 C287.23 888.96 286.84 889.96 286.44 891 C282.42 900.88 277.24 910.87 267.1 915.42 C254.25 920.25 237.39 922.01 224.19 917.52 C219.58 915.41 216.12 912.82 213.81 908.2 C213.16 900.26 215.23 894.19 217.88 886.77 C233.89 839.24 242.91 780.71 232.81 731.2 C232.65 730.32 232.48 729.45 232.31 728.54 C229.43 713.73 224.77 699.53 219.94 685.27 C219.65 684.4 219.36 683.54 219.06 682.66 C215.93 673.44 212.6 664.36 208.68 655.45 C208.21 654.38 208.21 654.38 207.73 653.29 C203.4 643.51 203.4 643.51 195.94 636.2 C188.42 630.92 184.27 624.87 180.76 616.43 C180 614.27 180 614.27 178.81 613.2 C176.98 613.12 175.15 613.06 173.31 613.02 C165.57 612.39 161.07 609.72 155.84 604.07 C141.36 585.45 144.61 557.09 144.93 535 C144.98 531.41 145.01 527.82 145.04 524.23 C145.06 523.14 145.08 522.05 145.1 520.93 C145.15 513.82 144.69 507.92 140.18 502.09 C139.59 501.58 139.01 501.06 138.41 500.53 C137.75 499.93 137.09 499.34 136.42 498.73 C135.38 497.82 135.38 497.82 134.31 496.89 C132.86 495.58 131.41 494.26 129.96 492.95 C129.26 492.31 128.55 491.68 127.82 491.02 C119.74 483.7 112.49 475.81 105.81 467.2 C105.36 466.63 104.91 466.06 104.45 465.47 C65.59 415.75 39.59 351.77 39.62 288.14 C39.63 286.87 39.63 285.6 39.63 284.3 C39.76 261.35 39.76 261.35 42.81 252.2 C41.82 252.53 40.83 252.86 39.81 253.2 C12.34 254.63 -13.5 246.72 -34.19 228.2 C-34.78 227.7 -35.38 227.2 -36 226.68 C-40.22 222.85 -43.07 218.4 -46.12 213.64 C-52.56 203.76 -59.45 199.75 -70.2 195.18 C-75.43 192.88 -78.56 190.46 -81.19 185.2 C-82.04 180.11 -81.56 176.09 -78.88 171.64 C-67.54 156.45 -45.63 148.98 -27.5 145.89 C-0.84 142.73 21.57 148.65 45.81 159.2 C20.52 139.61 -6.65 130.98 -38.83 134.49 C-56.31 137.17 -71.05 146.4 -81.52 160.63 C-90.16 173.99 -93.64 186.24 -91.19 202.2 C-86.86 220.42 -75.85 234.33 -60.36 244.36 C-49.92 250.43 -38.93 252.12 -27.07 249.52 C-25.28 248.99 -23.5 248.45 -21.72 247.89 C-17.5 246.74 -13.49 246.28 -9.19 247.2 C-5.76 249.81 -4.68 251.25 -3.65 255.34 C-2.83 264.5 -7.97 272.97 -13.34 280.04 C-15.53 282.54 -17.81 284.88 -20.19 287.2 C-20.85 287.91 -21.52 288.62 -22.2 289.35 C-26.67 293.8 -31.41 296.54 -37.12 299.08 C-37.77 299.36 -38.41 299.65 -39.08 299.95 C-57.06 307.43 -79.61 306.29 -97.56 299.28 C-108.15 294.88 -117.43 289.63 -126.19 282.2 C-127.38 281.23 -127.38 281.23 -128.6 280.25 C-134.59 275.2 -139.45 269.43 -144.19 263.2 C-144.91 262.26 -145.63 261.32 -146.37 260.35 C-170.85 226.68 -181.91 183.29 -175.43 142.04 C-169.72 109.67 -155.29 82.34 -133.19 58.2 C-132.72 57.69 -132.26 57.17 -131.78 56.64 C-102.13 24.09 -57.68 7.81 -15.19 1.2 C-14.1 1.03 -13.02 0.85 -11.9 0.67 C-7.92 0.17 -4 0.02 0 0 Z M482.81 12.2 C483.37 15.39 484.1 18.17 485.45 21.11 C485.78 21.84 486.1 22.58 486.44 23.33 C486.79 24.11 487.14 24.9 487.5 25.7 C491.93 35.96 495.18 46.35 497.81 57.2 C497.99 57.94 498.17 58.67 498.36 59.43 C502.92 79.06 501.98 100.41 498.81 120.2 C499.87 120.22 499.87 120.22 500.95 120.23 C534.04 120.78 534.04 120.78 547.72 128.57 C551.06 129.58 553.46 129.04 556.81 128.2 C574.87 115.56 591.82 92 598.48 71.12 C598.91 68.65 599.02 66.27 599.06 63.77 C599.09 62.84 599.11 61.91 599.14 60.96 C598.59 56.36 596.69 53.98 593.27 50.95 C560.74 27.5 522.58 15.06 482.81 12.2 Z M-18 14.83 C-19.09 15.01 -20.17 15.19 -21.29 15.37 C-52.21 20.73 -89.95 32.49 -111.19 57.2 C-113.62 62.07 -112.69 68.23 -111.39 73.33 C-104.4 92.93 -86.27 118.93 -68.19 129.2 C-62.29 128.98 -56.67 126.39 -51.14 124.46 C-42.29 121.56 -33.92 120.83 -24.62 120.58 C-23.43 120.54 -22.23 120.5 -20.99 120.46 C-18.06 120.37 -15.12 120.28 -12.19 120.2 C-12.4 118.58 -12.4 118.58 -12.62 116.93 C-16.78 84.16 -13.88 51.13 0.81 21.2 C1.25 20.29 1.69 19.39 2.14 18.45 C3.01 16.69 3.91 14.94 4.81 13.2 C-2.96 12.98 -10.33 13.56 -18 14.83 Z M16.68 17.59 C8.4 29.16 4.17 43.53 0.81 57.2 C0.54 58.3 0.27 59.41 -0.01 60.54 C-2.05 69.65 -2.66 78.27 -2.58 87.57 C-2.56 89.83 -2.58 92.09 -2.6 94.35 C-3.15 109.15 -3.15 109.15 2.47 121.99 C4.53 123.38 6.49 124.31 8.81 125.2 C9.55 125.5 10.28 125.8 11.03 126.11 C13.34 126.99 15.66 127.79 18 128.58 C28.41 132.24 37.67 137 46.81 143.2 C47.08 142.71 47.35 142.22 47.63 141.71 C57.17 124.5 67.98 109.23 81.81 95.2 C82.55 94.46 83.28 93.71 84.04 92.94 C101.88 75.96 125.92 68.58 149.81 66.2 C148.26 62.15 145.38 59.78 142.12 57.08 C141.55 56.6 140.97 56.12 140.38 55.63 C113.56 33.69 80.34 20.8 46.44 14.89 C45.46 14.72 44.49 14.55 43.48 14.37 C29.04 11.62 29.04 11.62 16.68 17.59 Z M456.36 12.84 C454.48 13.08 454.48 13.08 452.57 13.33 C451.23 13.52 449.9 13.7 448.56 13.89 C447.89 13.98 447.21 14.08 446.51 14.17 C436.12 15.61 425.87 17.19 415.81 20.2 C415.09 20.42 414.36 20.63 413.61 20.85 C388.67 28.42 352.1 42.27 336.81 65.2 C338.11 65.41 339.4 65.62 340.74 65.83 C363.27 69.65 383.44 76.9 400.81 92.2 C401.35 92.67 401.88 93.13 402.44 93.61 C418.52 107.65 429.46 124.13 438.81 143.2 C442.39 141.44 445.81 139.47 449.25 137.45 C457.1 132.94 465.08 128.46 473.86 126.04 C480.93 124.42 480.93 124.42 486.39 120.1 C487.2 117.74 487.58 115.69 487.81 113.2 C487.98 112.31 488.14 111.42 488.31 110.49 C493.14 78.73 486.05 46.11 470.81 18.2 C470.34 17.25 469.87 16.3 469.39 15.32 C468 13.02 468 13.02 465.62 12.53 C462.38 12.15 459.6 12.41 456.36 12.84 Z M-126.19 69.2 C-145.42 89.14 -162.98 121.97 -163.2 150.23 C-162.85 155.57 -161.15 158.43 -157.19 162.2 C-144.07 170.29 -129.61 173.51 -114.38 173.64 C-112.93 173.66 -112.93 173.66 -111.46 173.67 C-110.56 173.66 -109.66 173.65 -108.73 173.64 C-107.93 173.63 -107.12 173.62 -106.29 173.61 C-103.66 173.1 -102.82 172.29 -101.19 170.2 C-100.37 168.48 -99.56 166.76 -98.79 165.01 C-95.06 156.61 -90.29 150.43 -83.76 143.99 C-83.17 143.4 -82.58 142.82 -81.97 142.21 C-81.43 141.7 -80.9 141.19 -80.35 140.67 C-78.88 139.12 -78.88 139.12 -79.19 136.2 C-81.29 134.1 -83.39 132.15 -85.62 130.2 C-96.38 120.49 -104.48 109.4 -112.19 97.2 C-112.76 96.31 -112.76 96.31 -113.34 95.39 C-118.66 86.97 -121.95 78.87 -124.19 69.2 C-124.85 69.2 -125.51 69.2 -126.19 69.2 Z M610.81 69.2 C610.19 71.02 610.19 71.02 609.56 72.87 C600.66 98.34 585.31 119.69 564.81 137.2 C565.6 138.11 566.38 139.02 567.19 139.95 C567.73 140.6 568.28 141.24 568.84 141.91 C570.26 143.55 571.7 145.17 573.16 146.78 C578.75 153.11 582.76 159.35 586.3 167.03 C587.8 170.78 587.8 170.78 590.81 173.2 C609.35 174.85 626.89 172.21 642.81 162.2 C646.37 159.02 648.5 156.97 649.05 152.1 C649.92 122.65 632.04 93.08 614.41 70.86 C613.88 70.32 613.35 69.77 612.81 69.2 C612.15 69.2 611.49 69.2 610.81 69.2 Z M112.81 88.2 C112.2 88.5 111.59 88.8 110.96 89.11 C101.06 94.05 93.51 100.38 85.81 108.2 C84.5 109.52 84.5 109.52 83.16 110.86 C73.56 120.93 60.1 136.52 58.38 150.83 C60.24 155.21 62.97 158.02 66.26 161.43 C69.84 165.32 72.77 169.58 75.77 173.93 C76.44 174.68 77.12 175.43 77.81 176.2 C81.82 176.65 81.82 176.65 84.05 174.18 C85.29 172.8 85.29 172.8 86.56 171.39 C93.16 164.43 100.73 159.3 108.81 154.2 C109.75 153.6 109.75 153.6 110.71 152.99 C133.01 138.92 160.02 131.51 185.77 126.85 C187.29 126.57 187.29 126.57 188.85 126.28 C189.76 126.12 190.67 125.96 191.61 125.79 C194 125.35 194 125.35 195.81 123.2 C184.79 106.36 184.79 106.36 172.81 90.2 C171.99 89.15 171.99 89.15 171.14 88.07 C167.42 83.49 163.53 80.11 157.81 78.2 C141.47 76.91 127.22 80.96 112.81 88.2 Z M315.81 87.2 C313.67 89.51 311.83 91.96 310 94.52 C309.5 95.2 309 95.88 308.48 96.59 C298.84 109.9 298.84 109.9 290.81 124.2 C291.83 124.39 291.83 124.39 292.86 124.58 C334.87 132.49 375.17 146.26 405.81 177.2 C409.66 175.7 411.25 173.57 413.56 170.2 C416.29 166.27 419.14 162.66 422.31 159.08 C425.32 155.28 427.03 152.64 426.52 147.73 C419.68 123.29 397.09 101.49 376.07 88.99 C357.17 78.63 333.49 72.17 315.81 87.2 Z M192.81 137.2 C191.24 137.44 191.24 137.44 189.64 137.69 C152.69 143.65 119.26 157.57 91.81 183.2 C90.91 184.03 90.01 184.85 89.09 185.7 C64.89 208.67 53.64 243.17 52.58 275.94 C51 337.35 70.35 397.68 106.81 447.2 C107.46 448.08 107.46 448.08 108.11 448.97 C113 455.58 118.15 461.88 123.72 467.93 C125.67 470.05 127.56 472.21 129.44 474.39 C132.73 478.17 136.22 481.71 139.81 485.2 C141.15 481.18 140.03 479.55 138.5 475.64 C132.95 460.64 130.91 443.48 136.47 428.11 C139.19 422.22 142.39 416.59 147.03 412.02 C149.05 410.39 149.05 410.39 148.81 408.2 C149.4 407.93 149.99 407.66 150.6 407.38 C152.74 406.24 154.39 405 156.25 403.45 C169.03 393.77 185.2 390.17 200.81 388.2 C200.48 387.07 200.15 385.93 199.81 384.77 C196.24 367.93 200 349.92 202.1 333.08 C202.47 330.13 202.83 327.17 203.19 324.22 C205.57 304.68 208.07 285.15 210.69 265.64 C210.83 264.56 210.98 263.47 211.13 262.36 C211.54 259.3 211.95 256.25 212.37 253.2 C212.48 252.33 212.6 251.45 212.72 250.55 C215.21 232.56 215.21 232.56 218.99 228.58 C228.87 221.11 238.72 219.28 250.81 220.2 C257.51 221.73 263.11 224.16 267.81 229.2 C272.13 236.25 273.12 243.37 274.23 251.46 C274.44 252.9 274.65 254.35 274.86 255.79 C277.49 274.25 279.6 292.77 281.73 311.29 C282.18 315.14 282.63 318.99 283.08 322.84 C289.17 374.94 289.17 374.94 285.81 388.2 C286.95 388.36 288.09 388.52 289.26 388.68 C310.41 391.81 328.62 398.67 342.62 415.58 C349.63 425.04 353.21 435.86 353.19 447.58 C353.19 448.35 353.18 449.12 353.18 449.91 C352.93 461.97 350.04 473.37 344.81 484.2 C345.14 484.86 345.47 485.52 345.81 486.2 C350.01 482.12 354 477.92 357.82 473.47 C359.27 471.82 360.76 470.19 362.28 468.59 C374.72 455.4 384.78 440.9 393.81 425.2 C394.3 424.35 394.79 423.51 395.3 422.63 C417.62 383.66 432.52 339.41 433.81 294.2 C433.85 293.02 433.89 291.84 433.93 290.62 C434.63 250.32 424.01 213.76 395.75 184.14 C368.44 156.35 329.82 142.13 291.81 137.2 C290.7 137.06 289.59 136.91 288.44 136.75 C256.85 132.72 224.32 132.31 192.81 137.2 Z M449.81 164.2 C448.58 164.78 448.58 164.78 447.32 165.37 C436.25 170.62 427.31 176.31 418.81 185.2 C418.32 185.7 418.32 185.7 417.81 186.2 C417.77 187.87 417.77 189.54 417.81 191.2 C419.51 192.47 419.51 192.47 421.81 193.2 C424.39 192.4 424.39 192.4 427.06 190.83 C428.12 190.26 429.18 189.7 430.28 189.12 C430.85 188.81 431.42 188.5 432.01 188.18 C456.14 175.16 483.4 163.43 511.38 170.52 C519.75 173.4 519.75 173.4 522.25 177.64 C522.81 180.2 522.81 180.2 522.33 182.13 C520 185.31 516.63 186.4 513.12 187.95 C504.98 191.81 500.73 195.78 495.76 203.32 C487.6 215.61 479.02 222.08 464.97 226.82 C461.54 227.43 458.1 227.35 454.62 227.33 C453.87 227.33 453.11 227.32 452.33 227.32 C447.09 227.28 442 226.96 436.81 226.2 C437.79 229.8 438.44 230.98 441.69 232.95 C456.53 238.89 473.54 234.46 487.88 229.08 C504.02 221.88 516.49 210.77 526 195.93 C531.43 187.76 538.01 184.24 546.81 180.2 C548.4 179.42 549.98 178.63 551.56 177.83 C552.63 177.29 553.71 176.76 554.81 176.2 C554.29 173.09 553.55 170.89 551.2 168.71 C537.56 159.2 520.49 152.85 503.81 152.2 C502.6 152.14 501.38 152.08 500.12 152.01 C481.9 151.35 466.14 156.48 449.81 164.2 Z M-67.19 177.2 C-67.86 179.28 -67.86 179.28 -68.19 181.2 C-67.65 181.47 -67.12 181.74 -66.57 182.01 C-64.1 183.25 -61.65 184.51 -59.19 185.77 C-57.93 186.39 -57.93 186.39 -56.64 187.03 C-48.51 191.23 -42.03 196.09 -37.25 204.02 C-25.23 222.7 -6.8 234.29 14.63 239.55 C19.68 240.47 24.75 240.59 29.88 240.64 C30.77 240.65 31.66 240.66 32.58 240.67 C37.66 240.6 41.55 240.25 45.81 237.2 C47.24 234.65 47.24 234.65 47.81 232.2 C46.78 232.31 46.78 232.31 45.72 232.42 C30.39 233.94 16.56 233.76 3.87 223.92 C-2.34 218.66 -7.27 212.87 -11.71 206.06 C-16.56 198.73 -22.53 195.25 -30.33 191.89 C-33.34 190.49 -34.98 189.57 -36.64 186.65 C-37.36 183.41 -36.93 182.01 -35.19 179.2 C-16.06 170.41 6.6 173.13 25.92 179.93 C36.4 183.86 46.27 188.82 56.05 194.24 C58.6 195.63 61.2 196.92 63.81 198.2 C66.14 195.33 66.14 195.33 65.73 191.79 C64.12 185.49 58.95 182.75 53.81 179.2 C53 178.63 53 178.63 52.16 178.05 C19.37 155.71 -36.13 146.14 -67.19 177.2 Z M-164.19 173.2 C-162.92 190.1 -159.38 205.5 -153.69 221.45 C-153.42 222.23 -153.14 223 -152.86 223.8 C-150.93 229 -148.39 235.6 -143.19 238.2 C-131.7 239.4 -122.64 236.73 -113.38 229.89 C-105.56 223.6 -105.56 223.6 -101.62 214.83 C-102.18 211.24 -102.9 207.72 -103.68 204.18 C-104.7 198.25 -104.88 192.21 -105.19 186.2 C-107.11 186.15 -107.11 186.15 -109.07 186.09 C-127.98 185.42 -145.21 181.69 -162.19 173.2 C-162.85 173.2 -163.51 173.2 -164.19 173.2 Z M643.88 175.33 C638.76 177.95 633.53 179.74 628.06 181.45 C627.25 181.71 626.43 181.97 625.59 182.23 C617.68 184.67 610.19 185.42 601.94 185.77 C600.96 185.81 599.99 185.85 598.98 185.9 C596.59 186 594.2 186.1 591.81 186.2 C591.76 186.79 591.7 187.38 591.64 187.99 C591.39 190.67 591.13 193.34 590.88 196.02 C590.79 196.94 590.7 197.87 590.61 198.83 C590.52 199.72 590.44 200.62 590.35 201.54 C590.23 202.77 590.23 202.77 590.11 204.03 C589.81 206.2 589.81 206.2 588.81 209.2 C588.11 213.24 587.94 216.71 590.06 220.32 C597.93 229.65 608.31 237.04 620.62 238.55 C626.37 238.92 626.37 238.92 631.72 237.13 C644.26 223.86 649.95 194.9 650 177.14 C649.94 175.84 649.88 174.54 649.81 173.2 C647.25 173.2 646.11 174.08 643.88 175.33 Z M428.81 204.2 C428.48 205.19 428.15 206.18 427.81 207.2 C434.74 213.33 444.64 215.91 453.81 216.2 C461.82 215.59 468.2 213.77 474.81 209.2 C475.39 208.82 475.97 208.43 476.57 208.04 C481.47 204.33 484.6 199.4 488.03 194.4 C491.04 190.07 494.24 186.61 498.41 183.34 C498.88 182.96 499.34 182.59 499.81 182.2 C499.81 181.87 499.81 181.54 499.81 181.2 C475.03 179.69 448.21 188.34 428.81 204.2 Z M-13.19 186.2 C-12.82 186.63 -12.46 187.05 -12.09 187.49 C-11.02 188.73 -9.95 189.98 -8.89 191.22 C-7.85 192.44 -6.8 193.64 -5.73 194.84 C-2.66 198.33 0 201.93 2.62 205.77 C6.39 210.98 10.12 214.24 15.81 217.2 C16.58 217.61 17.35 218.03 18.15 218.45 C27.99 223.05 37.98 221.76 48.25 219.25 C52.32 217.59 54.26 215.42 56.06 211.45 C56.43 210.34 56.43 210.34 56.81 209.2 C37.23 194.2 11.25 185.56 -13.19 186.2 Z M-96.19 229.2 C-97.24 230.35 -98.23 231.55 -99.19 232.77 C-108.55 243.67 -121.31 248.62 -135.19 251.2 C-135.19 255.24 -133.19 257.03 -130.69 259.95 C-130.23 260.49 -129.77 261.03 -129.3 261.59 C-119.52 272.89 -107.09 281.72 -93.19 287.2 C-92.16 287.64 -91.12 288.07 -90.06 288.52 C-84.15 289.94 -84.15 289.94 -78.19 289.2 C-70.93 283.17 -65.71 271.6 -64.81 262.33 C-64.88 259.13 -65.06 258.37 -67.06 255.7 C-68.08 254.84 -69.13 254.01 -70.19 253.2 C-86.41 240.43 -86.41 240.43 -92.12 232.14 C-93.15 230.69 -93.15 230.69 -94.19 229.2 C-94.85 229.2 -95.51 229.2 -96.19 229.2 Z M579.81 229.2 C578.58 230.87 577.37 232.56 576.19 234.27 C570.19 242.56 563.55 248.33 555.29 254.29 C552.75 255.96 552.75 255.96 551.81 258.2 C550.72 267.86 554.72 276.9 560.56 284.45 C563.66 288.48 563.66 288.48 568.44 289.64 C585.41 289.42 600.36 276.31 611.81 265.2 C612.7 264.36 613.59 263.51 614.5 262.64 C619.4 257.97 619.4 257.97 622.81 252.2 C619.83 251.18 616.85 250.21 613.8 249.38 C601.35 245.93 592.11 239.99 582.89 231.14 C581.17 229.09 581.17 229.09 579.81 229.2 Z M235.19 233.02 C234.25 233.35 233.31 233.69 232.34 234.04 C229.72 235.24 228.57 235.96 226.81 238.2 C223.43 249.51 222.59 261.79 221.18 273.47 C220.95 275.4 220.71 277.33 220.47 279.25 C219.98 283.27 219.48 287.29 219 291.32 C218.38 296.41 217.75 301.51 217.12 306.61 C216.52 311.54 215.91 316.47 215.31 321.41 C215.2 322.32 215.08 323.23 214.97 324.17 C213.82 333.59 212.7 343.02 211.68 352.46 C211.59 353.21 211.51 353.97 211.42 354.74 C209.56 370.44 209.56 370.44 213.81 385.2 C220.66 392.44 232.52 394.21 242.06 394.52 C251.55 394.31 262.74 392.52 270.81 387.2 C277.28 379.44 276.39 370.35 275.61 360.75 C274.95 353.91 274.12 347.09 273.29 340.26 C273.03 338.05 272.77 335.83 272.51 333.61 C271.96 328.98 271.41 324.35 270.85 319.72 C270.14 313.85 269.45 307.97 268.75 302.1 C268.08 296.42 267.41 290.75 266.73 285.07 C266.61 284.02 266.48 282.97 266.35 281.89 C265.65 275.95 264.92 270.01 264.17 264.08 C263.93 262.12 263.69 260.16 263.45 258.21 C263.11 255.3 262.74 252.4 262.36 249.5 C262.21 248.2 262.21 248.2 262.06 246.87 C261.42 242.06 260.68 239.02 257.06 235.52 C249.9 230.94 243.07 230.12 235.19 233.02 Z M504.81 261.2 C507.02 270.78 515.11 278.56 522.81 284.2 C529.97 288.4 540.78 293.29 549.19 291.77 C549.73 291.59 550.26 291.4 550.81 291.2 C550.45 290.58 550.09 289.96 549.71 289.32 C546.18 283.1 543.33 276.84 540.82 270.16 C539.74 267.33 538.98 265.37 536.81 263.2 C534.88 262.96 534.88 262.96 532.66 263.08 C531.83 263.09 530.99 263.11 530.13 263.13 C528.8 263.17 528.8 263.17 527.44 263.2 C519.63 263.33 512.45 262.94 504.81 261.2 Z M-26.12 262.2 C-34.66 264.22 -43.6 263.57 -52.19 262.2 C-52.55 263.36 -52.91 264.52 -53.29 265.72 C-56.25 275 -59.46 283.65 -64.19 292.2 C-47.62 290.98 -35.31 285.87 -24.19 273.2 C-19.58 267.68 -19.58 267.68 -17.19 261.2 C-20.39 261 -23.05 261.39 -26.12 262.2 Z M151.81 424.2 C144.93 434.65 143.16 446.71 145.54 458.92 C147.51 466.77 150.13 474 153.81 481.2 C154.25 482.12 154.69 483.03 155.15 483.97 C158.74 491.06 163.22 496.59 168.81 502.2 C169.45 502.88 170.1 503.56 170.76 504.25 C190.85 523.92 219.78 529.74 246.74 529.55 C272.09 529.07 294.11 521.39 313.81 505.2 C314.48 504.68 315.15 504.16 315.84 503.62 C329.03 492.88 339.13 474.69 341.11 457.62 C341.25 454.99 341.28 452.39 341.25 449.77 C341.24 448.84 341.23 447.92 341.22 446.98 C340.89 434.37 336.71 426.18 327.81 417.2 C314.31 405.49 298.53 400.54 280.75 400.91 C272.7 401.51 264.81 403.08 256.94 404.85 C245.87 407.31 235.8 406.06 224.81 403.7 C197.04 398.21 170.68 401.07 151.81 424.2 Z M415.81 410.2 C415.35 411.07 415.35 411.07 414.89 411.95 C399.99 439.96 382.22 470.24 357.56 490.89 C350.2 497.15 345.61 503.64 343.81 513.2 C343.45 518.09 343.36 522.96 343.33 527.86 C342.88 583.53 342.88 583.53 329.81 602.2 C329.15 603.15 328.49 604.1 327.81 605.08 C323 610.19 318.5 610.69 311.81 611.2 C309.02 611.33 309.02 611.33 306.81 612.2 C305.07 614.2 305.07 614.2 303.81 617.2 C303.46 617.92 303.11 618.63 302.74 619.37 C299.11 627.36 298.2 634 301.22 642.36 C302.9 646.7 304.73 650.97 306.56 655.24 C322.57 693.08 337.23 732.55 343.81 773.2 C343.99 774.28 344.17 775.36 344.36 776.48 C344.88 780.77 344.97 784.95 344.98 789.27 C344.98 790.13 344.99 790.99 344.99 791.87 C345 794.65 345 797.43 345 800.2 C345 801.15 345 802.1 345 803.08 C344.93 832.67 341.58 861.85 334.98 890.72 C334.23 894.02 333.81 896.79 333.81 900.2 C339.56 901.42 345.22 901.39 351.06 901.39 C352.05 901.4 353.03 901.42 354.05 901.43 C361.45 901.44 369.12 901.29 375.69 897.58 C380.9 891.76 382.97 884.19 385.06 876.83 C385.36 875.8 385.65 874.77 385.95 873.71 C406.2 801.55 414.95 725.49 407.62 650.78 C407.54 649.97 407.47 649.15 407.39 648.31 C407.25 646.81 407.1 645.3 406.93 643.8 C406.52 639.3 407.09 636.81 409.81 633.2 C412.69 633.45 412.69 633.45 415.81 634.2 C417.8 636.66 417.86 638.61 418.25 641.77 C418.84 645.39 419.06 646.04 421.81 648.2 C427.4 650.26 433.35 650.52 439.25 650.45 C440.08 650.45 440.9 650.45 441.75 650.44 C451.2 650.32 460.63 649.65 470.06 649.06 C489.41 647.85 508.46 648.21 527.81 649.2 C527.87 648.22 527.93 647.23 528 646.21 C528.08 644.93 528.16 643.65 528.25 642.33 C528.33 641.05 528.41 639.78 528.5 638.46 C528.81 635.2 528.81 635.2 529.81 633.2 C533.1 632.25 534.51 632.1 537.81 633.2 C539.91 641.23 540.15 649.17 540.28 657.4 C540.86 692.73 545.84 722.14 571.81 748.2 C586.5 761.74 605.46 768.83 623.8 775.94 C626.81 777.2 626.81 777.2 629.81 779.2 C632.83 788.26 630.63 798.33 628.84 807.45 C628.62 808.57 628.41 809.68 628.18 810.83 C625.14 826.08 621.33 841.17 617.59 856.26 C616.02 862.6 614.46 868.94 612.9 875.28 C612.37 877.47 611.82 879.66 611.28 881.86 C610.95 883.19 610.62 884.52 610.29 885.85 C609.86 887.59 609.86 887.59 609.42 889.36 C608.71 892.21 608.71 892.21 608.81 895.2 C612.48 897.04 616.84 896.39 620.88 896.39 C621.79 896.4 622.71 896.42 623.65 896.43 C634.39 896.53 634.39 896.53 643.56 891.77 C649.31 883.63 652.23 873.53 655.19 864.14 C655.57 862.92 655.96 861.69 656.36 860.43 C662.16 841.87 666.97 823.29 670.69 804.2 C670.84 803.43 670.99 802.65 671.15 801.86 C674.91 782.45 679.6 757.59 668.66 739.61 C665.58 735.61 662.05 732.02 658.56 728.38 C651.11 720.52 647.61 713.62 647.68 702.74 C647.91 698.35 648.86 694.16 649.84 689.89 C650.06 688.9 650.29 687.91 650.51 686.89 C653.68 673.04 657.53 659.37 661.3 645.68 C679.04 583.85 679.04 583.85 663.75 523.36 C657.58 513.32 649.9 504.69 641.81 496.2 C640.78 495.09 640.78 495.09 639.72 493.95 C616.21 469.33 579.81 462.83 547.95 455.29 C541.39 453.73 534.83 452.17 528.28 450.58 C527.56 450.41 526.85 450.24 526.11 450.06 C514.79 447.3 503.59 444.24 492.42 440.95 C491.72 440.74 491.02 440.53 490.3 440.32 C469.9 434.3 450.61 426.5 431.4 417.42 C427.88 415.76 424.35 414.14 420.81 412.52 C419.15 411.75 417.48 410.97 415.81 410.2 Z M761.81 475.2 C761.34 476.15 761.34 476.15 760.85 477.12 C753.99 490.28 745.2 501.66 734.81 512.2 C734.09 512.94 733.36 513.68 732.61 514.45 C726.44 520.32 719.3 524.27 711.81 528.2 C710.89 528.71 709.98 529.22 709.03 529.75 C701.26 533.73 693.39 534.48 684.81 535.2 C683.44 538.97 684.23 541.64 685.21 545.46 C687 553.34 687.36 561 687.5 569.08 C687.53 570.46 687.57 571.84 687.6 573.22 C687.68 576.55 687.75 579.88 687.81 583.2 C700.8 587.53 718.91 582.84 730.81 577.2 C730.81 576.21 730.81 575.22 730.81 574.2 C728.66 572.28 728.66 572.28 725.94 570.52 C725.03 569.89 724.13 569.27 723.2 568.63 C720.99 567.03 720.99 567.03 718.81 567.2 C718.81 566.54 718.81 565.88 718.81 565.2 C720.08 565.23 721.35 565.25 722.65 565.27 C724.35 565.29 726.05 565.31 727.75 565.33 C728.58 565.34 729.41 565.36 730.27 565.38 C739.74 565.45 747.23 564.22 754.45 557.73 C758.67 553.41 761.42 548.54 764.12 543.2 C764.63 542.21 764.63 542.21 765.15 541.19 C769.45 532.34 770.17 524.38 770.12 514.64 C770.12 513.49 770.12 512.33 770.11 511.14 C769.94 498.37 767.67 487.06 762.81 475.2 C762.48 475.2 762.15 475.2 761.81 475.2 Z M326.97 515.55 C301.3 531.49 274.96 541.66 244.38 541.58 C243.68 541.58 242.98 541.58 242.26 541.58 C230.09 541.54 218.58 540.37 206.81 537.2 C205.58 536.89 204.35 536.57 203.08 536.25 C187.61 531.66 173.19 523.42 158.81 516.2 C157.68 525.05 157.63 533.84 157.63 542.74 C157.63 545.3 157.61 547.86 157.59 550.42 C157.11 575.23 157.11 575.23 166.81 597.2 C169.45 599.3 170.82 599.2 174.25 599.2 C178.65 597.97 180.62 596.07 182.81 592.2 C184.81 587.64 186.3 583.25 185.81 578.2 C186.47 578.2 187.13 578.2 187.81 578.2 C187.9 579.35 187.99 580.51 188.07 581.69 C188.82 590.48 189.97 598.97 192.19 607.52 C192.38 608.3 192.58 609.08 192.78 609.88 C194.1 614.69 195.83 618.21 198.81 622.2 C199.27 622.82 199.72 623.44 200.19 624.08 C202.86 625.93 204.65 625.7 207.81 625.2 C216.96 619.6 219.26 609.39 221.65 599.56 C222.52 595.92 222.52 595.92 222.81 592.2 C223.47 592.2 224.13 592.2 224.81 592.2 C224.83 592.9 224.84 593.59 224.86 594.31 C225.56 609.25 228.32 628.19 238.32 639.98 C239.86 641.45 239.86 641.45 242.62 641.7 C246.83 641.04 249.2 639.45 251.81 636.2 C258.79 624.19 259.28 607.76 260.81 594.2 C260.94 594.76 261.07 595.31 261.21 595.88 C264.76 614.65 264.76 614.65 274.81 630.2 C278.15 631.87 278.15 631.87 281.81 631.2 C291.96 624.29 293.92 609.59 296.06 598.39 C297.26 592.01 298.16 585.66 298.81 579.2 C299.22 580.06 299.22 580.06 299.64 580.93 C300.88 583.51 302.16 586.08 303.44 588.64 C303.86 589.54 304.29 590.44 304.73 591.36 C307.19 596.58 307.19 596.58 311.99 599.35 C315.72 599.16 317 598.73 319.81 596.2 C334.85 574.7 332.11 538.11 331.81 513.2 C329.98 513.2 328.48 514.6 326.97 515.55 Z M216.75 634.2 C216.11 634.86 215.47 635.52 214.81 636.2 C216.35 641.65 220.09 645.14 223.81 649.2 C224.49 649.98 225.16 650.76 225.85 651.55 C248.23 677.18 275.49 693.6 308.81 700.2 C309.47 700.2 310.13 700.2 310.81 700.2 C308.57 692.13 305.69 684.37 302.62 676.58 C302.38 675.97 302.14 675.35 301.9 674.72 C296.22 658.4 296.22 658.4 286.81 644.2 C284.78 644 282.73 643.89 280.69 643.83 C274.64 643.48 271.04 642.11 265.81 639.2 C262.58 639.94 262.58 639.94 261 642.95 C257.87 647.6 254.05 651.03 248.81 653.2 C242.39 654.15 236.93 653.74 231.59 649.89 C228.3 646.77 226.06 643.11 223.81 639.2 C223.4 638.5 222.98 637.79 222.55 637.07 C221.62 635.46 220.71 633.83 219.81 632.2 C218.45 632.09 218.45 632.09 216.75 634.2 Z M465.55 660.84 C464.17 660.91 462.79 660.98 461.41 661.05 C449.56 661.61 433.76 662.46 424.81 671.2 C419.98 677.6 421.4 686.39 422.31 693.95 C422.48 695.03 422.64 696.1 422.81 697.2 C438.88 696.58 454.68 693.48 470.27 689.75 C508.91 680.53 508.91 680.53 528.81 681.2 C528.78 678.8 528.71 676.41 528.62 674.02 C528.62 673.34 528.61 672.67 528.61 671.97 C528.45 668.48 527.85 666.26 526.01 663.28 C521.14 660.12 516.51 660.31 510.81 660.2 C509.74 660.17 508.67 660.14 507.56 660.11 C493.56 659.8 479.54 660.09 465.55 660.84 Z M230.81 675.2 C232.34 682.92 234.66 690.34 237.01 697.84 C241.07 710.84 244.74 723.72 246.81 737.2 C247.03 738.5 247.26 739.8 247.48 741.14 C253.19 778.61 246.66 817.38 239.81 854.2 C239.48 855.99 239.16 857.77 238.83 859.56 C238.17 863.11 237.5 866.66 236.81 870.2 C243.23 871.15 249.51 871.39 256 871.39 C257.01 871.39 258.02 871.39 259.06 871.39 C266.49 871.34 273.54 870.77 280.81 869.2 C296.95 825.12 305.12 777.97 307.81 731.2 C307.89 730.01 307.89 730.01 307.97 728.8 C308.52 721.12 308.52 721.12 306 714.08 C300.46 710.82 294.55 709.05 288.43 707.16 C268.22 700.76 249.59 691.07 234.16 676.31 C232.85 674.99 232.85 674.99 230.81 675.2 Z M472.81 702.2 C475.83 716 491.03 729.51 502.44 736.95 C514.76 744.6 528.18 750.26 541.85 755 C547.62 757.01 547.62 757.01 549.81 759.2 C551.46 766.3 550.6 773.3 549.44 780.39 C549.17 782.05 549.17 782.05 548.9 783.74 C544.51 809.78 537.65 835.45 530.91 860.97 C530.7 861.76 530.5 862.55 530.28 863.37 C529.89 864.85 529.5 866.32 529.11 867.8 C528.25 871.1 527.81 873.76 527.81 877.2 C532.33 877.26 536.85 877.3 541.38 877.33 C542.65 877.34 543.93 877.36 545.24 877.38 C548.77 877.4 552.29 877.33 555.81 877.2 C556.57 877.19 557.32 877.18 558.1 877.17 C560.2 877.03 560.2 877.03 562.81 875.2 C565.07 871.41 566.42 867.38 567.81 863.2 C568.24 861.99 568.66 860.77 569.1 859.52 C570.5 855.47 571.82 851.4 573.12 847.33 C573.36 846.6 573.6 845.86 573.84 845.11 C577.26 834.48 580.43 823.8 583.31 813.02 C583.63 811.84 583.94 810.67 584.26 809.46 C588.73 793.54 588.73 793.54 589.81 777.2 C586.52 772.97 582.23 770.39 577.75 767.58 C551.32 750.37 536.59 724.52 529.81 694.2 C512 689.08 489.81 697.22 472.81 702.2 Z M231.81 887.2 C230.53 889.78 230.53 889.78 229.62 892.58 C229.3 893.49 228.98 894.41 228.64 895.35 C227.79 898.29 227.25 901.18 226.81 904.2 C240.46 907.46 252.32 908.21 265.4 901.97 C268.41 899.76 269.47 897.69 271.06 894.33 C271.56 893.3 272.06 892.27 272.58 891.21 C273.69 888.49 274.29 886.08 274.81 883.2 C269.33 883.1 263.85 883.03 258.37 882.98 C256.51 882.96 254.64 882.94 252.78 882.9 C250.1 882.85 247.42 882.83 244.73 882.81 C243.49 882.78 243.49 882.78 242.21 882.75 C237.36 882.75 234.81 882.98 231.81 887.2 Z M542.5 889.52 C541.47 889.54 540.43 889.56 539.37 889.58 C532.45 889.83 527.64 890.38 522.55 895.46 C520.53 898.64 519.81 901.34 519.06 905.02 C518.82 906.18 518.58 907.34 518.33 908.54 C518.16 909.42 517.99 910.3 517.81 911.2 C521.89 913.24 527.15 912.39 531.62 912.39 C532.72 912.4 533.81 912.42 534.94 912.43 C536 912.43 537.05 912.43 538.14 912.43 C539.59 912.44 539.59 912.44 541.07 912.45 C544.78 912.12 547.78 911.37 550.29 908.54 C555.64 899.47 555.64 899.47 556.81 889.2 C552.04 889.2 547.27 889.36 542.5 889.52 Z M604.58 912.95 C602.26 915.9 601.52 918.65 600.56 922.27 C600.23 923.49 599.89 924.72 599.55 925.99 C598.7 929.14 598.7 929.14 598.81 932.2 C607.89 933.92 620.13 935.06 628.81 931.2 C632.65 927.36 634.28 923.03 636.06 918.02 C636.33 917.29 636.6 916.57 636.88 915.82 C638.31 912.11 638.31 912.11 638.81 908.2 C634.6 908.12 630.4 908.06 626.19 908.02 C625 907.99 623.81 907.97 622.58 907.94 C615.16 907.88 610.54 908.29 604.58 912.95 Z M365.81 912.71 C359.95 913.38 354.16 913.2 348.27 912.99 C341.05 912.87 334.58 913.8 329 918.64 C325.62 923.27 322.81 930.45 322.81 936.2 C334.41 940.11 348.81 939.79 360.3 935.59 C364.47 933.29 366.07 930.52 367.81 926.2 C368.2 925.34 368.59 924.49 368.98 923.6 C370.75 919.5 371.81 916.74 371.81 912.2 C369.76 912.2 367.85 912.45 365.81 912.71 Z " fill="#000000" transform="translate(199.1875,205.796875)"/>
<path d="M0 0 C3.06 0.56 3.06 0.56 5.19 2.94 C6.79 5.69 7.8 8.57 8.88 11.56 C11.95 19.49 18.06 23.15 25.59 26.64 C29.32 28.03 32.17 28.6 36.06 27.56 C39.64 25.88 42.83 23.83 46.06 21.56 C46.67 21.17 47.27 20.77 47.89 20.37 C52.52 17.02 54.09 12.7 56.06 7.56 C56.64 6.21 57.22 4.85 57.81 3.5 C58.23 2.53 58.64 1.56 59.06 0.56 C65.44 0.08 65.44 0.08 68 2.06 C70.08 6.97 69.52 11.15 67.94 16.06 C63.04 25.21 56.87 31.46 47.88 36.56 C43.69 39.02 41.07 40.99 39.06 45.56 C38.31 50.48 38.91 55.06 41.06 59.56 C45.18 63.8 50.47 66.41 56.4 66.66 C61.56 66.3 64.24 65.22 68.06 61.56 C69.69 59.24 71.04 56.81 72.38 54.31 C72.73 53.66 73.09 53.01 73.46 52.34 C74.34 50.76 75.2 49.16 76.06 47.56 C81.83 47.44 81.83 47.44 83.94 48.56 C85.8 51.87 85.71 54.93 85.06 58.56 C82.09 67.02 77 73.72 69.06 78 C61.06 81.16 51.43 80.82 43.44 77.81 C39.87 76.16 37.12 74.01 34.06 71.56 C31.27 70.88 29.77 71.15 27.29 72.59 C25.93 73.47 24.57 74.36 23.22 75.25 C15.51 79.94 6.56 80.99 -2.23 79.06 C-4.25 78.37 -6.06 77.57 -7.94 76.56 C-8.84 76.09 -8.84 76.09 -9.77 75.6 C-15.87 71.85 -18.81 65.81 -21.94 59.56 C-22.14 57.5 -22.14 57.5 -22.19 55.12 C-22.21 54.34 -22.24 53.56 -22.27 52.75 C-21.94 50.56 -21.94 50.56 -20.8 48.78 C-18.16 47.05 -16.01 47.36 -12.94 47.56 C-12.1 49.24 -12.1 49.24 -11.25 50.96 C-10.48 52.43 -9.71 53.9 -8.94 55.38 C-8.58 56.11 -8.21 56.85 -7.84 57.61 C-5.74 61.54 -4.13 63.9 0.1 65.57 C5.73 67.2 10.2 66.86 15.56 64.43 C19.4 62.18 22.36 60.19 23.69 55.81 C23.97 53.74 23.97 53.74 24.06 51.56 C24.24 50.35 24.24 50.35 24.43 49.11 C24.59 46.04 24.42 44.34 23.06 41.56 C19.74 39.07 16.4 37.25 12.68 35.45 C7 32.65 2.89 28.81 -0.69 23.56 C-1.26 22.74 -1.83 21.91 -2.42 21.06 C-4.98 16.85 -6.23 13.38 -6.25 8.44 C-6.27 7.59 -6.28 6.74 -6.3 5.87 C-5.67 1.85 -3.87 0.74 0 0 Z " fill="#000000" transform="translate(410.9375,630.4375)"/>
<path d="M0 0 C4.98 3.77 8.6 7.95 10.56 13.94 C11.35 20.06 11.09 25.73 7.97 31.15 C3.9 36.32 -0.98 39.33 -7.45 40.21 C-14.03 40.53 -19.04 38.71 -24.44 34.94 C-28.78 30.48 -30.54 25.87 -30.75 19.75 C-30.66 13.93 -28.94 8.68 -24.98 4.33 C-17.67 -1.99 -9.19 -2.84 0 0 Z " fill="#000000" transform="translate(569.4375,556.0625)"/>
<path d="M0 0 C6.09 3.81 9.02 8.11 11.29 14.91 C12.07 21.41 11.14 26.55 7.29 31.91 C2.54 36.98 -2 39.92 -9.03 40.22 C-14.54 40.05 -19.32 39.1 -23.48 35.29 C-29.02 29.03 -30.18 24.49 -30.02 16.1 C-29.36 9.18 -25.58 5.39 -20.4 1.07 C-14.91 -2.72 -5.97 -2.4 0 0 Z " fill="#000000" transform="translate(334.71484375,556.09375)"/>
</svg>
