<?xml version="1.0" encoding="UTF-8"?>
<!-- Generator: visioncortex VTracer 0.6.3 -->
<svg version="1.1" xmlns="http://www.w3.org/2000/svg" width="657" height="1280">
<path d="M0 0 C31.58 26.04 39.98 69.24 43.87 107.93 C51.21 195.17 36.76 287.93 16.48 372.56 C15.61 376.08 15.61 376.08 15.31 379.69 C15.97 379.54 16.64 379.4 17.33 379.26 C58.64 370.64 102.12 369.07 143.31 379.69 C142.65 373.71 141.58 367.93 140.27 362.06 C139.85 360.16 139.44 358.26 139.02 356.36 C138.8 355.36 138.58 354.37 138.36 353.34 C128.05 306.14 121.1 258.65 117 210.5 C116.91 209.54 116.83 208.59 116.75 207.61 C115.08 187.77 114.09 167.97 114.12 148.06 C114.12 147.2 114.12 146.34 114.12 145.45 C114.21 96.87 118.75 42.22 153.56 4.94 C165.93 -6.94 181.02 -12.74 198 -12.53 C215.78 -11.39 229.66 -3.49 241.81 9.19 C273.27 45.6 277.52 100.88 277.56 146.87 C277.56 147.62 277.56 148.38 277.56 149.15 C277.44 235.19 265.29 327.09 238.82 409.12 C236.87 415.37 236.8 421.18 237.31 427.69 C237.89 427.96 238.48 428.23 239.08 428.51 C253.2 435.97 261.93 453.17 269.31 466.69 C269.97 467.9 269.97 467.9 270.66 469.14 C278.31 483.26 283.99 497.8 289.08 513.01 C289.89 515.43 290.71 517.85 291.54 520.26 C297.42 537.41 302.12 554.63 306.43 572.23 C309.85 586.09 314.06 598.97 319.9 612.02 C331.24 637.63 332.89 666.54 324.17 693.14 C312.85 722.35 287.6 742.86 260.48 756.66 C258.75 757.54 258.75 757.54 257 758.44 C255.48 759.17 255.48 759.17 253.94 759.92 C248.59 763.51 246.56 768.53 245.31 774.69 C244.98 778.36 244.94 782 244.93 785.69 C244.91 786.61 244.88 787.53 244.86 788.47 C244.78 808.63 250.83 828.88 255.56 848.31 C256.39 851.74 257.22 855.17 258.04 858.61 C258.55 860.72 259.06 862.83 259.58 864.93 C259.92 866.35 259.92 866.35 260.27 867.8 C260.57 869.04 260.57 869.04 260.88 870.3 C261.33 872.81 261.38 875.14 261.31 877.69 C261.97 877.69 262.63 877.69 263.31 877.69 C263.41 877 263.51 876.31 263.62 875.6 C266.02 865.47 272.43 856.29 279.31 848.69 C279.96 847.94 280.61 847.19 281.29 846.42 C292.08 834.82 305.59 827.96 320.31 822.69 C321.36 822.3 322.41 821.91 323.5 821.51 C337.23 816.87 355.74 811.92 370.31 814.69 C376.7 821.56 375.67 833.33 375.62 842.12 C375.62 843.25 375.61 844.39 375.61 845.55 C375.22 873.58 368.16 900.16 347.69 920.26 C337.47 929.69 337.47 929.69 333.31 929.69 C333.31 930.35 333.31 931.01 333.31 931.69 C334.38 932.07 334.38 932.07 335.48 932.47 C350.24 938.82 359.98 953.2 366.11 967.57 C375.61 991.84 374.55 1018.83 364.24 1042.62 C359.68 1052.68 354.66 1062.38 347.31 1070.69 C346.62 1071.49 345.93 1072.3 345.23 1073.13 C329.92 1090.68 309.01 1105.74 285.31 1108.69 C273.54 1109.44 261.77 1109.67 250.31 1106.69 C246.68 1105.77 246.68 1105.77 243.31 1106.69 C241.58 1108.75 240.27 1110.92 238.9 1113.23 C234.84 1119.5 228.33 1124.2 221.31 1126.69 C204.4 1129.92 186.35 1129.02 169.18 1129.13 C165.21 1129.16 161.25 1129.2 157.28 1129.27 C153.38 1129.34 149.49 1129.38 145.59 1129.39 C144.13 1129.4 142.66 1129.42 141.2 1129.46 C128.01 1129.76 118.68 1126.15 108.31 1117.94 C101.94 1111.77 98.4 1104.97 97.31 1096.19 C96.85 1091.59 96.85 1091.59 93.5 1088.5 C86.76 1086.78 80.56 1086.47 73.62 1086.44 C72.58 1086.41 71.54 1086.39 70.47 1086.37 C63.96 1086.34 57.08 1086.31 51.31 1089.69 C49.91 1092.65 49.43 1094.2 49.06 1097.31 C48.79 1098.76 48.51 1100.21 48.21 1101.66 C48 1102.71 48 1102.71 47.78 1103.77 C45.79 1111.79 38.72 1117.97 32.31 1122.69 C25.43 1126.76 19.91 1128.81 11.9 1128.81 C9.94 1128.82 9.94 1128.82 7.95 1128.82 C6.52 1128.82 5.1 1128.82 3.67 1128.82 C2.2 1128.82 0.72 1128.82 -0.75 1128.82 C-3.85 1128.82 -6.96 1128.82 -10.06 1128.82 C-13.98 1128.81 -17.9 1128.81 -21.82 1128.82 C-77.26 1128.89 -77.26 1128.89 -88.81 1117.62 C-91.35 1114.76 -93.57 1111.87 -95.69 1108.69 C-97.55 1108.28 -97.55 1108.28 -99.75 1108.44 C-100.65 1108.46 -101.55 1108.48 -102.47 1108.51 C-104.84 1108.64 -107.21 1108.8 -109.57 1108.99 C-133.95 1110.89 -158.73 1104.88 -177.69 1088.69 C-187.64 1079.62 -196.81 1070.33 -203.69 1058.69 C-204.07 1058.06 -204.44 1057.43 -204.83 1056.78 C-218.06 1034.35 -224.87 1007.3 -218.79 981.42 C-213.64 962.53 -203.02 943.37 -185.92 933 C-162.71 920.78 -140.28 922.11 -115.69 928.69 C-115.6 928.03 -115.5 927.37 -115.4 926.69 C-114.06 918.09 -112.15 909.67 -110.15 901.21 C-109.53 898.63 -108.93 896.05 -108.33 893.47 C-106.61 886.13 -104.88 878.8 -103.15 871.47 C-85.88 816.21 -85.88 816.21 -88.69 761.69 C-92.08 760.25 -92.08 760.25 -94.75 759.63 C-111.77 754.16 -127.04 740.87 -139.69 728.69 C-140.67 727.8 -140.67 727.8 -141.68 726.89 C-156.22 713.38 -167.64 690.63 -168.87 670.84 C-169.37 646.87 -166.35 625.19 -156.21 603.31 C-152.22 594.61 -149.74 585.98 -147.63 576.67 C-135.55 523.75 -118.64 465.64 -78.32 427.44 C-75.96 423.45 -76.84 420.05 -77.69 415.69 C-78.93 411.08 -80.38 406.54 -81.82 402 C-101.18 339.09 -108.97 272.41 -115.49 207.13 C-115.65 205.53 -115.65 205.53 -115.82 203.9 C-116.97 192.23 -117.85 180.66 -117.86 168.93 C-117.87 167.16 -117.87 167.16 -117.87 165.35 C-117.88 162.87 -117.88 160.38 -117.88 157.89 C-117.88 154.18 -117.9 150.48 -117.92 146.77 C-118.03 99.85 -114.94 42.12 -80.38 6.15 C-57.83 -14.51 -25.11 -19.51 0 0 Z M-80.26 17.69 C-83.61 21.82 -86.27 25.96 -88.69 30.69 C-89.24 31.71 -89.79 32.74 -90.36 33.8 C-98.11 49.17 -102.16 66.01 -105.5 82.81 C-105.7 83.77 -105.89 84.73 -106.1 85.73 C-109.66 104.84 -110.1 124.24 -110.07 143.62 C-110.07 144.82 -110.07 146.02 -110.07 147.25 C-110.02 174.51 -108.22 201.55 -105.69 228.69 C-105.6 229.69 -105.51 230.69 -105.41 231.72 C-100.11 289.12 -91.49 348.43 -73.25 403.31 C-70.23 412.49 -67.89 421.45 -71.65 430.75 C-73.42 434.02 -75.98 436.1 -78.82 438.44 C-90.46 448.65 -97.65 461.07 -104.69 474.69 C-105.07 475.42 -105.46 476.16 -105.85 476.92 C-120.9 506.36 -130.59 539.09 -138.34 571.16 C-141.77 585.32 -145.99 598.84 -151.43 612.36 C-162.05 638.93 -166.38 666.44 -155.13 693.6 C-139.58 726.95 -107.2 748.64 -73.51 761.02 C-25.31 778.03 26.75 780.93 77.5 780.87 C78.49 780.87 79.48 780.87 80.5 780.87 C155.77 780.75 241.44 776.46 297.77 720.22 C313.66 703.44 322.51 681.1 322.39 658.02 C321.71 639.52 316.43 622.7 309.43 605.75 C304.18 592.99 300.65 580.05 297.31 566.69 C290.31 539.26 281.88 512.55 270.31 486.69 C269.89 485.75 269.47 484.81 269.04 483.85 C260.54 464.95 250.39 445.29 233.31 432.69 C232.65 432.69 231.99 432.69 231.31 432.69 C226.52 421.61 230.36 410.61 233.47 399.63 C255.82 320.75 269.12 237.1 246.55 28.06 C237.87 12.81 225.64 2.1 208.97 -3.42 C194.47 -6.96 179.58 -3.65 166.75 3.56 C142.89 19.34 133.03 51.62 127.41 78.08 C123.87 95.58 122.19 113.16 122.07 131.01 C122.06 132.26 122.05 133.51 122.04 134.79 C122.01 138.84 122 142.89 122 146.94 C121.99 147.63 121.99 148.32 121.99 149.04 C121.95 175.14 123.26 200.93 126.01 226.89 C126.3 229.65 126.58 232.4 126.86 235.16 C132.15 287.66 141.86 339.44 154.31 390.69 C153.72 390.52 153.12 390.35 152.51 390.18 C126.42 382.93 99.48 378.7 72.31 379.69 C70.33 379.73 70.33 379.73 68.31 379.78 C46.57 380.46 25.36 385.57 4.31 390.69 C4.54 389.79 4.78 388.89 5.02 387.97 C25.43 309.84 37.61 226.52 37.5 145.69 C37.49 144.5 37.49 144.5 37.49 143.28 C37.4 98.81 33.74 46.16 1.71 12 C-10.16 0.57 -23.22 -4.64 -39.54 -4.7 C-56.72 -4.37 -69.43 5.15 -80.26 17.69 Z M-71.69 769.69 C-74.65 780.44 -77.27 791.25 -79.75 802.13 C-80.13 803.8 -80.51 805.47 -80.89 807.14 C-81.91 811.59 -82.93 816.04 -83.94 820.49 C-84.57 823.26 -85.2 826.02 -85.83 828.79 C-87.54 836.28 -89.25 843.78 -90.95 851.27 C-93.3 861.61 -95.67 871.94 -98.05 882.26 C-99.22 887.36 -100.39 892.45 -101.55 897.55 C-102.32 900.91 -103.09 904.27 -103.87 907.62 C-104.72 911.3 -105.56 914.97 -106.4 918.65 C-106.65 919.72 -106.9 920.79 -107.16 921.9 C-107.38 922.88 -107.6 923.85 -107.82 924.86 C-108.02 925.7 -108.21 926.54 -108.41 927.41 C-108.71 929.85 -108.56 931.4 -107.69 933.69 C-105.85 935.03 -105.85 935.03 -103.63 935.94 C-102.33 936.51 -101.03 937.09 -99.69 937.69 C-99.36 934.06 -99.03 930.43 -98.69 926.69 C-97.37 927.02 -96.05 927.35 -94.69 927.69 C-93.97 933.64 -93.51 939.5 -93.39 945.5 C-93.37 946.33 -93.35 947.17 -93.33 948.02 C-93.27 950.77 -93.22 953.51 -93.16 956.25 C-93.14 957.2 -93.12 958.16 -93.1 959.15 C-92.58 983.35 -92.37 1007.56 -92.17 1031.77 C-92.11 1037.86 -92.06 1043.95 -92 1050.05 C-91.97 1052.82 -91.95 1055.6 -91.93 1058.37 C-93.48 1086.12 -93.48 1086.12 -84.59 1110.9 C-75.99 1119 -66.02 1120.86 -54.61 1121.3 C-53.33 1121.36 -53.33 1121.36 -52.03 1121.42 C-42.35 1121.8 -32.67 1121.84 -22.98 1121.82 C-19.93 1121.81 -16.88 1121.82 -13.83 1121.82 C13.13 1122.83 13.13 1122.83 35.62 1109.94 C44.41 1098.21 42.6 1079.28 42.97 1065.37 C43.13 1059.27 43.35 1053.19 43.71 1047.1 C43.78 1045.99 43.84 1044.88 43.91 1043.73 C44.3 1040.74 45.05 1038.42 46.31 1035.69 C46.97 1035.69 47.63 1035.69 48.31 1035.69 C49.41 1040.19 49.53 1044.65 49.62 1049.27 C49.64 1049.99 49.66 1050.71 49.68 1051.46 C49.75 1054.14 49.81 1056.82 49.87 1059.5 C50.09 1068.5 50.09 1068.5 50.31 1077.69 C65.82 1077.69 81.33 1077.69 97.31 1077.69 C97.64 1063.83 97.97 1049.97 98.31 1035.69 C99.63 1036.02 100.95 1036.35 102.31 1036.69 C103.24 1039.47 103.45 1041.22 103.48 1044.1 C103.49 1044.99 103.51 1045.89 103.52 1046.81 C103.54 1048.25 103.54 1048.25 103.55 1049.73 C103.59 1051.8 103.62 1053.86 103.65 1055.92 C103.7 1059.16 103.74 1062.4 103.78 1065.64 C102.9 1090.53 102.9 1090.53 113.35 1111.83 C127.43 1125.28 148.36 1121.85 166.52 1121.82 C170.1 1121.81 173.68 1121.82 177.26 1121.82 C187.37 1121.83 197.49 1121.8 207.59 1121.34 C208.64 1121.3 208.64 1121.3 209.7 1121.26 C218.45 1120.77 225.48 1117.05 231.37 1110.69 C239.05 1100.75 238.42 1089.85 238.59 1077.72 C238.61 1076.66 238.63 1075.59 238.64 1074.5 C238.7 1070.91 238.76 1067.33 238.81 1063.75 C238.85 1061.17 238.89 1058.6 238.93 1056.02 C239.58 1012.91 239.91 969.8 240.31 926.69 C242.25 927.06 242.25 927.06 244.31 927.69 C245.59 930.25 245.64 932.45 245.87 935.31 C246 936.81 246 936.81 246.12 938.35 C246.18 939.12 246.25 939.89 246.31 940.69 C253.21 938.05 253.21 938.05 258.46 933.04 C267.46 908.18 251.69 866.2 246.09 841.2 C245.38 837.99 244.66 834.78 243.95 831.56 C242.11 823.28 240.25 815.01 238.39 806.73 C237.71 803.7 237.03 800.67 236.36 797.64 C235.55 794.05 234.74 790.46 233.93 786.86 C233.62 785.52 233.32 784.18 233.02 782.84 C232.61 780.99 232.19 779.15 231.77 777.3 C231.53 776.26 231.3 775.22 231.06 774.15 C230.47 771.54 230.47 771.54 228.31 769.69 C227.69 769.88 227.07 770.07 226.44 770.26 C209.9 775.35 193.46 779.34 176.31 781.69 C178.02 785.55 180.5 788.8 183 792.19 C196.93 811.5 206.84 834.5 207.31 858.69 C207.33 859.32 207.35 859.95 207.37 860.61 C208.3 894.11 199.26 926.65 176.68 952.19 C175.24 953.7 173.78 955.2 172.31 956.69 C171.58 957.45 170.85 958.22 170.1 959.01 C146.94 982.94 112.9 996.04 79.76 996.69 C64.83 996.65 50.49 994.27 36.31 989.69 C35.32 989.37 35.32 989.37 34.31 989.05 C23.18 985.37 13.82 979.4 4.31 972.69 C3.71 972.26 3.11 971.84 2.49 971.4 C-25.38 951.5 -42.67 922.42 -48.69 888.69 C-53.62 856.75 -46.77 822.37 -28.28 795.65 C-26.15 792.74 -23.93 789.94 -21.63 787.15 C-19.53 784.77 -19.53 784.77 -18.69 781.69 C-19.46 781.54 -20.23 781.38 -21.02 781.23 C-34.97 778.48 -48.81 775.66 -62.43 771.52 C-63.62 771.15 -63.62 771.15 -64.83 770.79 C-65.5 770.57 -66.18 770.36 -66.88 770.14 C-68.87 769.56 -68.87 769.56 -71.69 769.69 Z M152.69 784.34 C127.75 786.86 102.85 786.97 77.81 786.94 C76.01 786.93 74.22 786.93 72.43 786.93 C68.1 786.93 63.76 786.92 59.43 786.9 C57.82 786.89 56.21 786.89 54.6 786.88 C45.34 786.85 36.16 786.58 26.93 785.92 C20.73 785.52 14.53 785.46 8.31 785.44 C7.06 785.41 5.82 785.39 4.54 785.37 C-6.11 785.24 -6.11 785.24 -15.31 790.11 C-26.12 801.45 -33.52 818.03 -38 832.81 C-38.25 833.61 -38.49 834.41 -38.74 835.23 C-41.75 845.68 -43.06 855.95 -43 866.81 C-43 867.9 -43 868.98 -42.99 870.1 C-42.54 901.48 -30.32 930.08 -8.69 952.69 C-8.09 953.35 -7.49 954.01 -6.88 954.69 C3.54 965.81 16.51 973.54 30.31 979.69 C31.89 980.41 31.89 980.41 33.5 981.15 C60.53 992.55 93.97 992.81 121.3 982.19 C125.38 980.51 129.36 978.64 133.31 976.69 C133.98 976.35 134.65 976.02 135.34 975.68 C145.92 970.35 154.65 963.74 163.31 955.69 C163.99 955.07 164.68 954.46 165.38 953.82 C186.22 934.24 199.6 903.43 200.55 875.02 C200.78 861.07 199.97 848.16 196.31 834.69 C196.13 834 195.94 833.32 195.76 832.62 C191.77 818.2 184.63 805.33 175.31 793.69 C174.56 792.73 173.82 791.77 173.05 790.79 C172.29 789.87 171.53 788.95 170.75 788 C169.72 786.75 169.72 786.75 168.68 785.49 C164.21 782.09 158.02 783.75 152.69 784.34 Z M290.31 848.69 C289.7 849.2 289.09 849.72 288.47 850.25 C277.54 860.16 268.24 877.35 267.12 892.12 C267.03 899.57 268.19 906.48 269.75 913.75 C269.98 914.87 270.21 916 270.44 917.16 C271.42 922.57 271.42 922.57 273.31 927.69 C274.28 927.47 275.25 927.25 276.25 927.03 C289.49 924.29 303.98 922.8 317.31 925.69 C324.73 926.8 329.41 925.22 335.51 920.92 C354.09 906.06 363.64 886.73 366.95 863.32 C367.57 857.01 367.6 850.73 367.57 844.4 C367.56 842.09 367.57 839.79 367.58 837.49 C367.58 836.01 367.58 834.53 367.57 833.06 C367.58 832.37 367.58 831.69 367.59 830.99 C367.55 827.39 367.27 824.75 365.31 821.69 C339.65 820.4 309.26 831.43 290.31 848.69 Z M-192.69 948.69 C-193.35 949.33 -194.01 949.97 -194.7 950.63 C-207.99 964.31 -212.96 983.96 -213.01 1002.57 C-212.59 1028.38 -201.3 1054.64 -183.5 1073.25 C-165.9 1090.13 -145.26 1101.86 -120.44 1101.87 C-119.44 1101.89 -118.44 1101.9 -117.42 1101.91 C-111.19 1101.92 -105.72 1101.27 -99.69 1099.69 C-99.69 1094.08 -99.69 1088.47 -99.69 1082.69 C-101.28 1083.02 -102.87 1083.35 -104.5 1083.69 C-120.54 1086.5 -135.64 1083.04 -149.21 1074.01 C-161.75 1064.72 -171.08 1050.18 -173.69 1034.69 C-173.98 1031.06 -174.02 1027.45 -174 1023.81 C-174.02 1022.88 -174.04 1021.95 -174.05 1020.99 C-174.06 1009.41 -170.56 998.99 -162.58 990.42 C-152.48 981.02 -142.23 978.16 -128.57 978.37 C-117.91 979.23 -109.06 983.89 -99.69 988.69 C-99.64 984.61 -99.61 980.54 -99.58 976.47 C-99.57 975.09 -99.56 973.71 -99.54 972.33 C-99.01 957.49 -99.01 957.49 -103.69 943.69 C-106.11 942.18 -108.39 940.91 -110.94 939.69 C-111.65 939.34 -112.37 938.99 -113.1 938.63 C-138.92 926.39 -172.01 926.83 -192.69 948.69 Z M265.18 938.56 C264.5 938.88 263.81 939.19 263.1 939.52 C256.99 942.51 251.04 946.16 248.43 952.69 C244.68 966.68 246.2 982.34 246.31 996.69 C247.1 996.09 247.1 996.09 247.91 995.48 C263.46 983.78 276.46 977.02 296.31 978.69 C307.68 981.04 315.34 986.52 322.31 995.69 C330.26 1008.47 331.37 1024.17 328.26 1038.77 C324.93 1048.98 319.51 1058.72 312.31 1066.69 C311.77 1067.31 311.22 1067.93 310.67 1068.57 C301.86 1078.07 290.03 1083.32 277.16 1084.07 C267.83 1084.37 259.65 1084.3 251.31 1079.69 C249.65 1079 247.98 1078.33 246.31 1077.69 C246.23 1079.89 246.17 1082.1 246.12 1084.31 C246.09 1085.54 246.05 1086.77 246.01 1088.04 C246.33 1092.02 247.14 1094.34 249.31 1097.69 C251.01 1098.98 251.01 1098.98 253 1099.5 C253.62 1099.71 254.24 1099.92 254.88 1100.14 C268 1103.08 282.57 1103 295.31 1098.69 C296.34 1098.36 297.37 1098.03 298.44 1097.69 C323.17 1089.09 342.2 1069.43 354.31 1046.69 C356.59 1041.77 358.53 1036.81 360.31 1031.69 C360.72 1030.55 361.14 1029.41 361.57 1028.24 C367.6 1009.36 366.46 985.19 357.62 967.31 C348.86 950.7 337.62 939.48 319.55 933.43 C300.75 927.91 282.77 930.46 265.18 938.56 Z M-157.69 994.69 C-165.74 1003.33 -168.06 1013.81 -167.9 1025.38 C-166.83 1042.45 -158.58 1055.57 -146.25 1066.94 C-140.82 1071.55 -135.49 1074.57 -128.69 1076.69 C-128.09 1076.88 -127.48 1077.07 -126.86 1077.27 C-118.55 1078.87 -109.24 1078.61 -101.69 1074.69 C-97.48 1066.25 -99.51 1051.97 -99.51 1042.66 C-99.5 1040.09 -99.49 1037.51 -99.47 1034.94 C-99.44 1026.35 -99.69 1017.84 -100.52 1009.29 C-100.62 1008.12 -100.62 1008.12 -100.73 1006.93 C-101.33 1001.43 -102.4 996.58 -106.86 992.89 C-123.54 983.44 -142.67 980.42 -157.69 994.69 Z M252.81 1000.94 C246.98 1008.55 246.79 1019.53 246.56 1028.75 C246.52 1029.83 246.49 1030.9 246.46 1032.02 C245.15 1051.95 245.15 1051.95 250.31 1070.69 C256.51 1076.65 264.55 1077.77 272.81 1077.94 C287.45 1077.63 298.15 1071.1 308.31 1060.69 C318.28 1049.94 323.21 1036.97 323.33 1022.37 C322.81 1010.95 319.61 1000.82 311.31 992.69 C292.1 978.08 268.94 984.72 252.81 1000.94 Z " fill="#000000" transform="translate(251.6923828125,136.314453125)"/>
<path d="M0 0 C15.77 8.11 23.59 25.11 28.83 41.19 C37.35 68.24 38.69 98.54 38.65 126.7 C38.65 128.06 38.65 128.06 38.64 129.44 C38.6 145.77 38.03 161.95 36.46 178.2 C36.37 179.13 36.28 180.06 36.19 181.02 C20.48 342.16 20.48 342.16 -2.54 388.2 C-15.74 384.33 -15.74 384.33 -18.53 379.47 C-46.07 317.05 -50.42 237.58 -55.54 170.2 C-55.64 169.01 -55.73 167.81 -55.83 166.58 C-56.75 154.03 -56.74 141.47 -56.73 128.89 C-56.73 127.73 -56.72 126.57 -56.72 125.38 C-56.57 39.27 -56.57 39.27 -30.69 9.29 C-22.02 0.87 -12.17 -3.84 0 0 Z M-24.75 13.87 C-47.95 44.11 -48.77 87.92 -48.79 124.39 C-48.79 125.48 -48.79 126.58 -48.79 127.7 C-48.72 198.59 -37.91 269.53 -22.41 338.57 C-22.21 339.5 -22 340.43 -21.79 341.38 C-18.8 361.06 -18.8 361.06 -9.54 377.2 C-8.55 377.2 -7.56 377.2 -6.54 377.2 C8.74 322.43 19.29 268.17 25.21 211.59 C25.45 209.33 25.69 207.07 25.93 204.81 C27.73 187.8 28.84 170.78 29.65 153.7 C29.69 152.8 29.73 151.9 29.78 150.97 C33.57 79.51 33.57 79.51 7.46 15.2 C2.61 10.02 -1.74 6.83 -8.91 5.89 C-15.41 6.66 -20.3 9.04 -24.75 13.87 Z " fill="#000000" transform="translate(456.5390625,158.80078125)"/>
<path d="M0 0 C19.98 15.59 26.73 46.01 30.05 69.75 C30.43 73.16 30.72 76.58 31 80 C31.09 81.06 31.18 82.12 31.28 83.22 C32.33 97.5 32.25 111.81 32.25 126.12 C32.25 126.83 32.25 127.53 32.25 128.25 C32.25 150.43 31.74 172.39 29.28 194.45 C28.97 197.24 28.68 200.04 28.38 202.84 C23.08 252.72 15.51 302.37 2.75 350.94 C2.45 352.1 2.14 353.27 1.83 354.47 C-4.29 376.85 -4.29 376.85 -14.56 383.38 C-18 385 -18 385 -20.1 384.87 C-22 384 -22 384 -23.08 382.13 C-23.35 381.31 -23.62 380.48 -23.89 379.64 C-24.21 378.7 -24.52 377.77 -24.84 376.81 C-25.32 375.26 -25.32 375.26 -25.81 373.69 C-26.16 372.6 -26.51 371.51 -26.86 370.39 C-45.08 312.08 -53.25 249.67 -59 189 C-59.08 188.13 -59.17 187.26 -59.25 186.36 C-61.45 163.18 -62.29 140.09 -62.38 116.81 C-62.38 115.65 -62.39 114.48 -62.4 113.28 C-62.51 92.99 -61.28 72.85 -56.19 53.12 C-55.93 52.1 -55.67 51.07 -55.41 50.01 C-44.9 9.02 -44.9 9.02 -27.19 -1.56 C-18.24 -5.6 -8.3 -5.45 0 0 Z M-31.35 11.98 C-66.16 54.61 -56.89 135.06 -51.86 185.92 C-46.28 239.97 -38.37 293.66 -25.31 346.44 C-25.13 347.2 -24.94 347.95 -24.75 348.73 C-21.72 361.65 -21.72 361.65 -17 374 C-16.34 374.33 -15.68 374.66 -15 375 C-12.46 372.76 -11.41 370.95 -10.42 367.73 C-10.15 366.86 -9.88 365.99 -9.6 365.09 C-9.18 363.65 -9.18 363.65 -8.75 362.19 C-8.3 360.66 -8.3 360.66 -7.83 359.1 C6.06 311.3 13.94 261.1 19.81 211.75 C19.91 210.93 20.01 210.11 20.11 209.27 C23.36 182.25 24.38 155.15 24.37 127.95 C24.37 124.94 24.38 121.93 24.41 118.92 C24.72 83.68 24.23 42.34 2 13 C1.34 12.07 0.68 11.14 0 10.19 C-4 5.82 -8.29 3.27 -14.19 2.69 C-21.4 3.28 -26.48 6.75 -31.35 11.98 Z " fill="#000000" transform="translate(230,162)"/>
<path d="M0 0 C5.11 3.49 8.99 7.21 10.88 13.19 C10.64 26.55 0.52 36.32 -8.24 45.46 C-12.64 50.77 -13.75 55.27 -13.54 62 C-12.8 67.97 -10.67 72.86 -6.06 76.81 C-1.71 79.84 1.37 80.06 6.56 80.12 C7.27 80.15 7.97 80.18 8.7 80.21 C15.25 80.29 18.73 77.75 23.5 73.31 C27.02 68.93 27.74 63.19 28.81 57.81 C30.62 57.19 30.62 57.19 32.81 56.81 C34.3 57.8 34.3 57.8 35.81 58.81 C36.83 65.76 34.2 71.87 30.63 77.76 C27.59 81.76 24.24 83.74 19.81 86.06 C13.99 89.24 11.81 92.44 9.04 98.35 C6.95 102.56 4.17 104.16 0.06 106.12 C-4.16 107.02 -7.99 106.8 -12.19 105.81 C-13.18 105.15 -14.17 104.49 -15.19 103.81 C-17.15 103.75 -17.15 103.75 -19.19 104.12 C-20.21 104.27 -20.21 104.27 -21.25 104.43 C-23.39 104.81 -23.39 104.81 -26.19 105.81 C-32.16 106.35 -37.12 106.35 -42.19 102.81 C-45.67 99.4 -47.23 97.43 -47.94 92.62 C-48.27 90.55 -48.27 90.55 -49.19 88.81 C-51.28 87.79 -53.35 87.33 -55.61 86.76 C-62.18 84.34 -67.73 78.53 -70.81 72.31 C-72.47 67.89 -72.82 63.49 -72.19 58.81 C-71.19 57.81 -71.19 57.81 -68.62 57.75 C-67.82 57.77 -67.02 57.79 -66.19 57.81 C-64.64 60.63 -63.85 63.09 -63.31 66.25 C-62.1 71.88 -59.79 74.52 -55.31 78.12 C-49.38 81.27 -41.2 81.03 -34.9 79.12 C-29.36 76.22 -25.93 71.83 -23.81 66.06 C-22.52 59.43 -22.9 53.29 -26.56 47.5 C-28.97 44.2 -31.62 41.14 -34.29 38.06 C-46.12 24.42 -46.12 24.42 -46.81 15.69 C-45.85 9.73 -43.15 5.89 -39.06 1.56 C-27.27 -5.61 -12.24 -7.03 0 0 Z M-36.81 10.06 C-38.3 13.03 -38.73 15.09 -38.12 18.38 C-34.89 26.83 -28.26 34.26 -21.72 40.32 C-20.19 41.81 -20.19 41.81 -19.19 43.81 C-16.21 43.48 -15.21 42.83 -13.07 40.66 C-2.8 29.09 -2.8 29.09 3.17 15.29 C2.7 12.05 1.63 11.18 -0.88 9.12 C-1.9 8.25 -1.9 8.25 -2.95 7.36 C-13.03 0.38 -27.79 2.33 -36.81 10.06 Z M-25.31 84.12 C-30.19 87.33 -34.58 89.25 -40.19 90.81 C-39.35 94.64 -38.54 96.55 -35.19 98.81 C-30.4 99.28 -27.11 98.53 -23.31 95.56 C-21.38 93.06 -19.7 90.59 -18.19 87.81 C-17.87 88.36 -17.56 88.9 -17.23 89.46 C-14.12 95.04 -14.12 95.04 -9.19 98.81 C-5.79 99.32 -3.38 99.57 -0.4 97.69 C1.06 96.47 2.45 95.15 3.81 93.81 C3.32 92.33 3.32 92.33 2.81 90.81 C1.08 90.04 1.08 90.04 -1.06 89.56 C-6.28 88.02 -10.35 85.31 -14.8 82.24 C-19.3 79.55 -21.37 81.41 -25.31 84.12 Z " fill="#000000" transform="translate(350.1875,749.1875)"/>
<path d="M0 0 C4.57 3.4 8.86 7.52 10.69 13 C11.44 19.66 11.18 24.76 7.18 30.28 C3.07 35.01 -0.52 37.53 -6.79 38.31 C-13.28 38.62 -17.23 37.66 -22.43 33.72 C-26.26 30.22 -28.92 26.3 -29.55 21.02 C-29.75 15.14 -28.75 10.83 -25.31 6 C-18.23 -1.46 -9.78 -2.95 0 0 Z " fill="#000000" transform="translate(204.3125,720)"/>
<path d="M0 0 C5.94 4.1 9.85 8.48 11.5 15.56 C12.06 21.57 9.97 26.68 6.81 31.69 C1.86 36.49 -3.65 37.81 -10.38 37.81 C-16.02 37.23 -20.38 36.04 -24.38 31.81 C-27.97 26.72 -29.78 22.12 -29.38 15.81 C-27.89 8.92 -25.09 4.81 -19.28 0.87 C-13.47 -2.36 -6.15 -2.16 0 0 Z " fill="#000000" transform="translate(477.375,720.1875)"/>
<path d="M0 0 C3.45 2.83 5.59 5.78 7 10 C7.5 15.24 7.7 19.61 5.31 24.38 C4.55 25.24 3.79 26.11 3 27 C2.34 27.95 1.68 28.9 1 29.88 C-3.71 33.21 -8.42 32.95 -14 32 C-17.3 30.4 -19.21 28.13 -21.31 25.12 C-23.27 19.07 -23.4 13.87 -21 8 C-16.07 0.53 -8.7 -3.16 0 0 Z M-12.38 8.94 C-14.55 13.03 -14.98 16.46 -14 21 C-11.99 23.78 -11.99 23.78 -9 25 C-5.9 25 -4.57 24.47 -2.19 22.5 C-0.38 18.7 -0.45 15.14 -1 11 C-1.91 8.36 -1.91 8.36 -4 7 C-7.84 6.26 -9.33 6.45 -12.38 8.94 Z " fill="#000000" transform="translate(551,1080)"/>
<path d="M0 0 C3.51 3.91 5.21 7.58 5.17 12.9 C4.22 19.65 1.27 23.99 -3.81 28.44 C-7.8 30.89 -12.22 31.15 -16.81 30.44 C-20.77 28.57 -22.45 27.03 -24.75 23.31 C-26.68 17.91 -26.08 12.32 -23.8 7.12 C-21 2.3 -18.18 -0.17 -13 -2.31 C-8.16 -2.87 -4.21 -2.34 0 0 Z M-16.45 9.55 C-18.01 11.72 -18.34 12.97 -18.44 15.62 C-18.04 19.25 -18.04 19.25 -16.75 21.5 C-13.53 23.06 -11.19 22.33 -7.81 21.44 C-4.84 19.33 -3.98 18 -2.94 14.5 C-2.8 11.09 -2.93 9.3 -4.81 6.44 C-9.9 4.19 -12.71 6.01 -16.45 9.55 Z " fill="#000000" transform="translate(588.8125,1090.5625)"/>
<path d="M0 0 C4.87 2.39 7.32 5.33 10 10 C11.9 15.69 11.27 20.72 8.95 26.13 C7.29 29.38 6.1 30.98 3 33 C-1.74 33.81 -6.55 34.12 -11.01 32.08 C-14.52 29.36 -16.64 26.16 -18 22 C-18.9 14.92 -18.56 9.49 -14.48 3.52 C-10.41 -0.65 -5.51 -0.77 0 0 Z M-8.25 9.44 C-10.83 13.22 -10.77 16.56 -10 21 C-8.67 24.23 -8.67 24.23 -6 26 C-2.37 26.17 -2.37 26.17 1 25 C3.67 20.99 3.82 17.72 3 13 C0.94 9.85 0.94 9.85 -2 8 C-5.88 7.64 -5.88 7.64 -8.25 9.44 Z " fill="#000000" transform="translate(119,1079)"/>
<path d="M0 0 C5.4 4.59 5.4 4.59 6.67 8.41 C6.82 10.53 6.89 12.66 6.92 14.79 C6.95 15.91 6.97 17.03 7 18.18 C6.64 21.77 5.85 23.57 3.67 26.41 C-1.09 29.06 -4.91 30.09 -10.33 29.41 C-15.2 27.5 -18.39 24.76 -21.33 20.41 C-21.74 19.81 -22.15 19.21 -22.58 18.6 C-24.35 13.42 -23.85 8.95 -21.58 4.1 C-19.53 0.42 -17.57 -1.87 -13.47 -3.19 C-8.61 -4.1 -4.03 -2.76 0 0 Z M-13.7 5.97 C-15.81 9.14 -15.93 10.66 -15.33 14.41 C-13.83 16.97 -12.44 19.3 -10.33 21.41 C-5.49 21.96 -5.49 21.96 -1.33 19.85 C0.13 16.3 -0.36 14.08 -1.33 10.41 C-3.36 6.95 -4.53 5.69 -8.33 4.35 C-11.38 4.15 -11.38 4.15 -13.7 5.97 Z " fill="#000000" transform="translate(88.328125,1091.58984375)"/>
<path d="M0 0 C3.62 2.33 5.89 4.97 7.81 8.81 C8.19 13.35 8.26 15.86 6.31 20 C1.69 25.21 -2.79 27.92 -9.75 28.88 C-15.18 29.14 -17.93 28.18 -22.19 24.81 C-25.12 21.41 -25.73 18.36 -25.54 13.87 C-24.73 9.14 -22.22 5.82 -18.81 2.5 C-12.81 -1.36 -6.79 -2.53 0 0 Z M-16.19 10.81 C-17.58 13.6 -17.44 15.73 -17.19 18.81 C-13.48 21.28 -10.48 21.47 -6.19 20.81 C-3.14 19.42 -3.14 19.42 -1.19 16.81 C-0.3 13.17 -0.3 13.17 -0.19 9.81 C-6.67 5.37 -10.02 6.05 -16.19 10.81 Z " fill="#000000" transform="translate(605.1875,1122.1875)"/>
<path d="M0 0 C4.59 2.64 7.99 6.18 10.38 10.94 C10.79 15.42 10.83 19.59 9.38 23.88 C5.55 27.82 0.65 29.07 -4.75 29.31 C-10.75 28.73 -14.02 26.84 -17.94 22.38 C-21.53 18 -21.98 15.05 -21.9 9.41 C-21.5 5.84 -20.32 4.28 -17.62 1.94 C-11.76 -1.93 -6.51 -1.91 0 0 Z M-12.62 8 C-14.32 11.29 -13.66 13.48 -12.62 16.94 C-9.58 19.7 -7.57 20.81 -3.5 21.38 C-0.35 20.9 1.06 20.07 3.38 17.94 C3.21 13.53 3.05 11.56 -0.25 8.5 C-4.57 6.5 -8.26 5.68 -12.62 8 Z " fill="#000000" transform="translate(67.625,1122.0625)"/>
</svg>
