<?xml version="1.0" encoding="UTF-8"?>
<!-- Generator: visioncortex VTracer 0.6.3 -->
<svg version="1.1" xmlns="http://www.w3.org/2000/svg" width="988" height="1280">
<path d="M0 0 C3.72 2.48 5.98 5.39 7.41 9.67 C7.94 12.56 7.94 15.33 7.95 18.27 C7.95 19.52 7.95 20.78 7.95 22.08 C7.95 23.43 7.94 24.78 7.94 26.12 C7.94 27.15 7.94 27.15 7.93 28.19 C7.92 36.83 7.69 45.39 7.04 54.01 C6.75 58.93 6.66 63.83 6.62 68.75 C6.61 69.61 6.6 70.46 6.59 71.35 C6.57 83.21 9.06 94.19 17.44 103 C20.07 105.64 20.07 105.64 23.81 105.88 C24.21 104.83 24.21 104.83 24.62 103.75 C25.86 100.52 27.12 97.29 28.38 94.06 C29 92.41 29 92.41 29.64 90.73 C34.35 78.74 40.4 66.31 52.81 60.88 C56.96 59.57 60.68 59.45 64.81 60.88 C67.76 62.71 70.23 64.71 71.81 67.88 C72.74 75.23 71.43 80.76 68.38 87.43 C61.41 102.71 54.02 119.55 59.25 136.5 C62.82 145.26 70.07 151.52 77.18 157.5 C78.81 158.87 78.81 158.87 80.81 160.88 C87.86 161.09 94.99 159.05 101.81 157.5 C134.61 150.47 168.44 148.98 201.31 156.31 C204.82 156.96 205.58 156.97 209 155.5 C209.93 154.63 210.86 153.77 211.81 152.88 C212.45 152.32 213.08 151.77 213.74 151.21 C221.97 143.69 226.44 135.08 227.68 123.99 C228.18 111.96 221.82 101.6 215.62 91.69 C210.05 82.51 207.37 73.68 208.81 62.88 C210.06 59.32 211.9 57.44 215.12 55.44 C220.05 54.41 223.61 55.18 227.94 57.69 C228.89 58.41 229.84 59.13 230.81 59.88 C232.01 60.77 232.01 60.77 233.23 61.68 C242 69.12 247.45 80.09 252.84 90.07 C254.16 92.52 255.52 94.95 256.88 97.38 C257.52 98.54 258.17 99.71 258.81 100.88 C264.53 98.02 266.91 94.28 269.12 88.38 C270.42 82.25 269.43 76.04 268.81 69.88 C267.62 58.04 266.61 46.27 266.5 34.38 C266.48 33.43 266.47 32.48 266.45 31.5 C266.45 24.7 267.36 19.78 271.88 14.44 C276.79 11.82 281.73 11.96 287.03 13.54 C295.77 17.41 300.35 25.29 303.81 33.88 C307.81 46.04 307.81 46.04 307.81 50.88 C316.38 47.66 323.02 43.48 326.93 34.92 C328.2 30.55 328.35 26.23 328.51 21.71 C328.77 14.88 329.45 8.78 334.5 3.81 C338.46 1.5 341.4 0.76 345.81 1.88 C359.67 8.05 369.8 30.38 376.81 42.88 C378.54 48.05 378.61 52.19 376.31 57.06 C372.49 61.37 368.03 63.69 362.99 66.38 C362.02 66.89 361.06 67.41 360.06 67.94 C359.16 68.4 358.26 68.87 357.33 69.35 C354.73 70.93 352.92 72.7 350.81 74.88 C351.58 74.61 352.36 74.35 353.15 74.08 C378.97 65.41 405.01 58.77 431.58 52.78 C432.57 52.55 433.55 52.33 434.57 52.1 C435.48 51.9 436.39 51.69 437.33 51.48 C439.5 50.95 441.59 50.33 443.71 49.65 C446.9 48.85 448.7 48.93 451.81 49.88 C454.05 86.71 426.52 130.4 407.81 160.88 C407.04 162.15 407.04 162.15 406.25 163.45 C399 175.34 391.17 186.73 382.81 197.88 C382.07 198.86 381.33 199.85 380.57 200.87 C361.64 225.28 336.41 235.71 307.53 243.98 C290.93 248.43 290.93 248.43 277.81 258.88 C277.51 263.82 279.69 266.25 282.81 269.88 C282.81 270.54 282.81 271.19 282.81 271.88 C285.84 271.29 288.83 270.65 291.81 269.88 C293.55 276.13 291.38 281.12 288.81 286.88 C285.48 292.13 281.33 296.63 276.81 300.88 C281.29 300.96 285.42 300.73 289.81 299.88 C289.81 300.54 289.81 301.19 289.81 301.88 C285.03 305.76 280.64 307.93 274.81 309.88 C274.03 318.94 273.62 327.97 273.38 337.06 C272.43 366.91 268.47 396.27 245.75 417.88 C245.02 418.51 244.28 419.15 243.53 419.81 C239.9 424.18 240.62 430.25 240.62 435.69 C240.63 436.42 240.63 437.16 240.63 437.92 C240.76 450.03 242.69 461.98 244.81 473.88 C245.35 473.6 245.9 473.33 246.45 473.05 C258.65 466.98 270.69 461.59 283.81 457.88 C284.54 457.67 285.26 457.46 286.01 457.24 C334.53 443.56 393.63 435.83 439.51 460.77 C449.27 466.28 457.7 473.19 465.81 480.88 C466.29 481.31 466.76 481.75 467.25 482.2 C492.49 505.49 503.72 539.18 505.81 572.88 C506 578.4 506.06 583.91 506.06 589.44 C506.06 590.59 506.06 590.59 506.06 591.78 C505.99 644.44 487.53 692.99 468.27 741.25 C464.57 750.56 461.02 759.9 457.83 769.4 C457.54 770.26 457.24 771.13 456.94 772.02 C452.32 786.08 453.12 798.65 459.63 812.04 C462.55 817.81 465.62 823.51 468.9 829.08 C473.72 838.59 469.86 849.08 466.94 858.55 C456.44 893 452.7 929.18 448.81 964.88 C448.68 966.09 448.55 967.3 448.41 968.55 C446.78 983.82 445.47 999.54 447.57 1014.83 C449.13 1028.25 447.74 1040.05 442.73 1052.59 C440.54 1058.44 439.6 1063.66 439.23 1069.85 C438.4 1083.68 438.4 1083.68 434.5 1087.31 C432.37 1088.66 432.37 1088.66 429.81 1089.88 C428.73 1090.43 427.65 1090.99 426.54 1091.56 C416.67 1096.36 409.54 1097.06 398.62 1097.06 C397.34 1097.07 396.05 1097.09 394.72 1097.1 C377.75 1097.13 377.75 1097.13 373.08 1093.55 C371.81 1091.88 371.81 1091.88 371.84 1087.96 C372.76 1081.84 375.07 1076.24 377.31 1070.5 C378.23 1068.09 379.14 1065.68 380.05 1063.27 C380.51 1062.04 380.97 1060.82 381.45 1059.55 C391.74 1031.84 398.62 1004.09 402.55 974.83 C402.8 972.99 403.06 971.16 403.32 969.32 C405.91 950.56 406.1 931.86 406.12 912.94 C406.13 911.72 406.13 910.5 406.14 909.24 C406.45 884.71 406.45 884.71 401.25 860.88 C400.87 859.76 400.87 859.76 400.48 858.63 C396.66 848.09 390.66 838.79 384.69 829.38 C374.64 813.21 368.08 794.52 367.67 775.41 C367.85 765.83 367.85 765.83 364.55 757.2 C361.37 754.51 357.77 753.05 353.81 751.88 C348.12 763.27 351.12 786.43 354.89 798.24 C356.47 802.49 358.16 806.62 360.25 810.65 C366.89 824.13 364.4 838.54 361.26 852.69 C361 853.9 360.73 855.11 360.46 856.36 C357.65 868.98 354.34 881.46 350.98 893.95 C345.95 912.59 341.01 931.25 336.94 950.12 C336.78 950.83 336.63 951.54 336.47 952.27 C333.59 965.47 331.32 978.89 331.94 992.44 C332.19 1005.12 328.84 1016.14 323.96 1027.81 C321.17 1035.26 320.48 1041.91 320.51 1049.78 C320.4 1053.66 320 1055.63 317.61 1058.73 C307.03 1066.83 291.91 1069.83 278.81 1068.88 C276.81 1068.55 274.81 1068.22 272.81 1067.88 C269.48 1067.79 266.15 1067.82 262.81 1067.88 C264.14 1075.07 265.59 1081.69 268.44 1088.44 C271.89 1097.02 272.24 1104.97 271 1114.06 C270.29 1120.9 272.25 1126.33 274.72 1132.61 C276.44 1137.08 277.32 1140.1 275.81 1144.88 C269.02 1151.87 261.03 1152.47 251.81 1152.88 C250.26 1153.01 250.26 1153.01 248.68 1153.14 C239.32 1153.65 232.1 1150.87 223.81 1146.88 C222.81 1145.88 222.81 1145.88 222.71 1143.24 C222.72 1142.05 222.73 1140.87 222.75 1139.65 C222.75 1139 222.76 1138.35 222.76 1137.67 C222.77 1136.24 222.78 1134.8 222.8 1133.37 C222.84 1129.45 222.86 1125.53 222.88 1121.61 C222.89 1120.37 222.89 1120.37 222.89 1119.1 C223.19 1071.66 221.04 1024.94 214.81 977.88 C214.71 977.09 214.61 976.3 214.5 975.48 C210.58 945.7 204.55 916.29 198.6 886.86 C198.27 885.21 198.27 885.21 197.93 883.54 C197.74 882.58 197.55 881.63 197.35 880.65 C194.75 867.17 195.04 855.62 198.81 842.44 C203.88 824.27 204.09 803.13 198.81 784.88 C196.59 782.01 194.64 781.35 191.12 780.69 C190.32 780.53 189.51 780.37 188.68 780.21 C188.06 780.1 187.45 779.99 186.81 779.88 C186.83 780.49 186.84 781.1 186.86 781.73 C187.41 806.76 183.61 829.26 176.7 853.22 C176.31 854.57 175.93 855.92 175.54 857.26 C174.8 859.83 174.05 862.4 173.29 864.96 C166.52 888.34 162.74 912.33 159.59 936.42 C159.31 938.54 159.02 940.66 158.74 942.79 C157.49 952.14 156.27 961.49 155.07 970.84 C154.82 972.82 154.56 974.8 154.31 976.78 C153.4 983.84 152.51 990.91 151.64 997.98 C151.39 1000.08 151.13 1002.17 150.86 1004.27 C149.56 1014.65 148.6 1024.91 148.56 1035.38 C148.56 1036.67 148.56 1036.67 148.55 1037.98 C148.61 1043.72 149.58 1048.76 151.19 1054.28 C153.27 1062.93 149.9 1070.84 147.05 1078.89 C143.83 1088.25 142.67 1097.65 142.81 1107.56 C142.9 1113.75 142.9 1113.75 140.81 1116.88 C131.11 1126.32 117.04 1130.04 103.82 1130.14 C101.81 1129.88 101.81 1129.88 100.02 1128.92 C96.86 1127.42 93.78 1127.26 90.31 1126.88 C81.24 1125.88 81.24 1125.88 78.81 1123.88 C77.49 1118.98 78.14 1115.69 79.66 1110.91 C79.86 1110.24 80.07 1109.58 80.28 1108.89 C80.72 1107.46 81.16 1106.04 81.61 1104.61 C82.81 1100.78 83.96 1096.93 85.11 1093.09 C85.34 1092.31 85.58 1091.52 85.82 1090.72 C109.93 1009.34 111.8 919.33 97.72 835.99 C96.19 826.79 95.04 817.58 94.05 808.31 C89.9 769.35 80.02 733.62 63.69 698.09 C57.4 684.36 52.67 670.97 50.81 655.88 C50.7 655.06 50.59 654.24 50.48 653.4 C46.12 615.35 53.52 571.74 65.89 535.74 C68.87 527.06 69.48 518.89 69.56 509.81 C69.59 508.28 69.62 506.75 69.65 505.22 C69.71 501.23 69.76 497.24 69.79 493.25 C69.81 490.93 69.84 488.6 69.87 486.27 C69.99 478.03 70.01 469.8 69.88 461.56 C69.83 457.82 69.81 454.08 69.87 450.34 C70.77 431.07 70.77 431.07 62.4 414.62 C59.62 412.12 56.72 409.8 53.75 407.52 C41.22 396.91 35.07 376.65 33.53 361.01 C32.98 354.13 32.72 347.27 32.6 340.37 C32.59 339.55 32.57 338.73 32.56 337.89 C32.5 334.5 32.45 331.11 32.41 327.72 C32.38 325.21 32.34 322.7 32.29 320.18 C32.28 319.04 32.28 319.04 32.28 317.88 C32.18 313.39 31.64 310.42 28.81 306.88 C25.75 305.05 25.75 305.05 22.81 303.88 C22.81 303.21 22.81 302.56 22.81 301.88 C25.12 301.88 27.43 301.88 29.81 301.88 C28.17 296.84 25.95 293.74 22.31 289.88 C18.64 285.9 16.13 283.15 14.81 277.88 C14.97 276.18 15.19 274.49 15.44 272.81 C15.95 268.95 15.96 268.15 14 264.56 C5.47 256.35 -6.69 255.02 -17.81 252.94 C-33.36 250.01 -47.94 246.21 -61.94 238.56 C-62.99 237.99 -62.99 237.99 -64.07 237.41 C-103.69 215.47 -130.14 172.22 -142.77 129.89 C-147.82 112.09 -152.36 93.62 -152.38 75.06 C-152.39 74.11 -152.4 73.16 -152.41 72.17 C-152.41 71.26 -152.42 70.35 -152.42 69.42 C-152.42 68.59 -152.43 67.77 -152.43 66.92 C-152.19 64.88 -152.19 64.88 -150.19 62.88 C-145.66 63.2 -142.27 64.62 -138.29 66.72 C-137.16 67.3 -136.03 67.88 -134.87 68.48 C-133.99 68.95 -133.99 68.95 -133.08 69.42 C-101.96 86.42 -101.96 86.42 -68.19 93.88 C-71.31 88.1 -74.83 86.09 -80.69 83.38 C-90.61 78.78 -90.61 78.78 -93.19 72.88 C-93.25 66.23 -90.83 61.57 -87.62 55.88 C-86.71 54.2 -85.8 52.53 -84.89 50.85 C-84.2 49.6 -84.2 49.6 -83.51 48.33 C-81.55 44.68 -79.75 40.97 -77.94 37.25 C-72.89 27.06 -67.71 18.17 -57.56 12.38 C-53.29 11.48 -50.32 12.23 -46.56 14.38 C-39.7 21.6 -39.63 29.98 -39.62 39.5 C-39.83 50.14 -39.83 50.14 -36.19 59.88 C-34.88 60.91 -33.55 61.92 -32.19 62.88 C-32.15 62.22 -32.11 61.57 -32.07 60.9 C-29.15 14.83 -29.15 14.83 -16.19 1.88 C-10.75 -1.67 -6.13 -2.16 0 0 Z M337.6 9.37 C335.15 12.8 335.27 15.93 335.25 20 C334.9 30.52 333.21 39.85 325.81 47.88 C321.49 51.15 316.89 53.84 312.04 56.26 C309.62 57.66 309.62 57.66 309.18 60.13 C308.8 62.94 308.73 65.57 308.79 68.4 C308.8 69.44 308.81 70.48 308.82 71.55 C308.86 73.72 308.9 75.89 308.94 78.06 C309 83.4 309.02 87.89 306.81 92.88 C306.8 92.31 306.78 91.74 306.77 91.16 C306.24 55.27 306.24 55.27 291.01 24.04 C286.56 20.09 286.56 20.09 280.94 18.62 C277.47 18.9 276.24 19.45 273.81 21.88 C272.5 25.82 272.62 29.58 272.62 33.69 C272.63 34.56 272.63 35.44 272.63 36.34 C272.72 47.82 273.72 59.32 275.36 70.68 C276.79 80.79 276.12 90.42 270.25 99.06 C266.55 103.66 261.76 106.75 256.81 109.88 C256.56 109.38 256.31 108.89 256.05 108.38 C243.65 82.21 243.65 82.21 223.81 61.88 C220.23 61.46 220.23 61.46 216.81 61.88 C214.3 64.39 214.49 65.33 214.44 68.81 C214.71 79.52 219.53 87.22 225.16 95.96 C232.46 107.44 234.12 118.42 233.81 131.88 C236.76 129.69 239.22 127.49 241.5 124.62 C242.26 123.72 243.03 122.81 243.81 121.88 C244.47 121.88 245.13 121.88 245.81 121.88 C245.21 122.59 244.6 123.31 243.98 124.04 C239.44 129.44 235 134.88 230.75 140.5 C226.98 145.48 222.98 150.18 218.72 154.75 C216.95 156.72 215.36 158.73 213.81 160.88 C214.9 161.42 215.99 161.97 217.11 162.53 C226.41 167.27 234.63 172.36 242.81 178.88 C244.3 179.87 244.3 179.87 245.81 180.88 C246.01 180.26 246.2 179.65 246.4 179.02 C256.17 148.73 268.95 128.9 297.31 113.53 C303.39 110.2 308.67 106.55 313.81 101.88 C314.36 101.37 314.92 100.87 315.49 100.36 C322.24 94.22 328.83 87.92 335.25 81.44 C345.03 71.57 355.11 63.53 367.56 57.23 C370.08 55.93 370.08 55.93 371.81 52.88 C371.56 47.47 369.99 43.8 367.25 39.19 C366.89 38.59 366.54 37.98 366.17 37.36 C356.93 20.91 356.93 20.91 343.81 7.88 C339.92 7.5 339.92 7.5 337.6 9.37 Z M-17.19 11.88 C-22.11 19.1 -22.96 28.41 -24.19 36.88 C-24.35 37.92 -24.35 37.92 -24.51 38.98 C-26.48 52.54 -26.37 66.2 -26.38 79.88 C-26.38 80.82 -26.38 81.77 -26.38 82.75 C-26.38 85.48 -26.37 88.21 -26.36 90.94 C-26.35 91.76 -26.35 92.59 -26.35 93.44 C-26.32 97.38 -26.16 101.03 -25.19 104.88 C-25.85 104.88 -26.51 104.88 -27.19 104.88 C-27.85 101.54 -28.52 98.21 -29.19 94.88 C-29.37 94.12 -29.55 93.36 -29.74 92.57 C-30.12 90.26 -30.27 88.18 -30.33 85.84 C-30.35 85.12 -30.37 84.39 -30.39 83.64 C-30.42 82.13 -30.44 80.62 -30.44 79.11 C-30.58 74.94 -30.81 73.33 -33.57 70 C-34.43 69.3 -35.3 68.6 -36.19 67.88 C-41.62 62.83 -44.97 57.67 -45.31 50.16 C-45.32 49.14 -45.32 48.13 -45.33 47.08 C-45.35 45.95 -45.37 44.83 -45.39 43.67 C-45.42 41.32 -45.44 38.97 -45.44 36.62 C-45.6 29.37 -46.49 24.53 -51.19 18.88 C-55.04 18.79 -57.2 19.13 -60.32 21.48 C-66.75 27.67 -70.28 34.2 -73.88 42.31 C-74.94 44.65 -76 46.98 -77.07 49.31 C-77.58 50.42 -78.1 51.53 -78.62 52.68 C-80.52 56.55 -82.69 60.17 -85.04 63.78 C-86.79 66.97 -86.91 69.35 -86.19 72.88 C-83.27 75.52 -80.01 76.92 -76.44 78.5 C-70.09 81.63 -64.11 85.95 -61.44 92.78 C-59.65 97.27 -58.05 99.35 -53.61 101.39 C-51.73 102.13 -49.84 102.86 -47.94 103.56 C-36.08 108.33 -25.03 114.12 -13.89 120.36 C-11.41 121.75 -8.93 123.12 -6.44 124.49 C16.84 137.34 29.92 152.31 39.81 176.88 C40.8 179.21 41.81 181.54 42.81 183.88 C46 182.47 48.65 180.58 51.43 178.5 C58.84 172.96 66.41 168.73 74.81 164.88 C71.35 160.68 67.79 156.9 63.81 153.19 C56.07 145.55 51.8 136.5 51.5 125.62 C51.72 110.25 57.59 96.73 63.94 82.99 C65.77 78.58 66.16 74.66 65.81 69.88 C64.28 67.46 63.23 67 60.5 66.19 C55.54 65.61 51.83 68.17 47.81 70.88 C40.09 77.73 36.62 88.54 32.81 97.88 C32.35 99 31.89 100.12 31.42 101.27 C28.73 107.9 28.73 107.9 28.81 114.88 C30.89 117.46 30.89 117.46 33.81 119.88 C35.07 121.07 36.32 122.28 37.56 123.5 C38.45 124.35 38.45 124.35 39.36 125.23 C40.81 126.88 40.81 126.88 41.81 129.88 C41.2 129.29 40.6 128.71 39.97 128.11 C34.41 122.91 28.71 118.23 22.56 113.75 C12.87 106.6 7.33 100.2 2.81 88.88 C2.15 88.88 1.49 88.88 0.81 88.88 C0.32 94.81 0.32 94.81 -0.19 100.88 C-1.23 89.87 -1 79.44 0.02 68.45 C1.31 54.37 2.14 40.33 2.19 26.19 C2.19 25.49 2.2 24.79 2.21 24.07 C2.23 22.11 2.22 20.14 2.21 18.18 C2.21 16.52 2.21 16.52 2.2 14.84 C1.76 11.45 0.84 9.6 -1.19 6.88 C-8.12 2.25 -12.37 6.45 -17.19 11.88 Z M437.51 58.05 C435.88 58.44 435.88 58.44 434.22 58.83 C433.04 59.11 431.86 59.4 430.64 59.69 C429.41 59.99 428.18 60.28 426.92 60.58 C424.3 61.21 421.68 61.84 419.07 62.47 C416.44 63.11 413.8 63.74 411.16 64.37 C398.03 67.49 384.95 70.68 372.03 74.59 C371.13 74.86 370.23 75.13 369.31 75.41 C326.79 88.65 300.41 121.01 277.85 157.68 C263.31 181.26 263.31 181.26 250.81 186.88 C252.5 191.29 254.59 195.39 256.79 199.57 C257.81 201.88 257.81 201.88 257.81 204.88 C257.41 204.27 257.01 203.66 256.6 203.04 C239.98 178.55 218.19 166.21 189.55 160.38 C148.86 152.88 93.21 157.24 57.95 180.08 C47.8 187.12 33.14 198.01 30.81 210.88 C30.15 210.88 29.49 210.88 28.81 210.88 C29.38 209.75 29.94 208.63 30.53 207.48 C31.27 206.01 32.01 204.54 32.75 203.06 C33.12 202.32 33.5 201.59 33.88 200.83 C34.24 200.11 34.6 199.4 34.96 198.67 C35.29 198.01 35.62 197.36 35.96 196.68 C36.93 194.71 36.93 194.71 37.81 191.88 C37.33 191.52 36.84 191.17 36.34 190.8 C28.13 184.27 23.6 175.38 18.86 166.22 C8.88 146.97 -5.5 131.8 -24.19 120.88 C-24.88 120.46 -25.58 120.05 -26.3 119.63 C-39.61 111.87 -53.63 106.78 -68.19 101.88 C-119.15 84.71 -119.15 84.71 -137.58 74.35 C-140.41 72.76 -142.97 71.44 -146.19 70.88 C-149.24 115.84 -125.58 167.86 -96.91 201.55 C-94.71 204.04 -92.47 206.46 -90.19 208.88 C-89.44 209.68 -88.7 210.49 -87.93 211.33 C-67.54 232.72 -42.71 242.09 -14.28 247.7 C-1.89 250.18 9.93 252.6 18.19 262.81 C19.98 266.19 20.92 269.17 21.81 272.88 C31.04 264.97 34.24 252.53 35.81 240.88 C36.23 247.8 35.32 253.65 33.37 260.31 C32.56 262.97 32.56 262.97 33.81 265.88 C34.31 265.61 34.81 265.34 35.32 265.07 C36 264.72 36.68 264.36 37.38 264 C38.37 263.48 38.37 263.48 39.38 262.95 C50.76 257.94 62.53 258.91 74.11 262.71 C76.7 263.83 78.65 265.07 80.81 266.88 C79.93 266.6 79.05 266.32 78.14 266.04 C76.98 265.67 75.82 265.31 74.62 264.94 C73.48 264.58 72.33 264.22 71.14 263.85 C60.96 260.87 49.6 260.23 39.81 264.88 C35.92 267.29 32.35 269.97 28.81 272.88 C28.13 273.43 27.45 273.98 26.75 274.55 C24.34 276.71 22.87 278.07 22.62 281.38 C25.37 287.15 28.8 290.68 34.81 292.88 C41.38 294.6 45.95 293.43 52.25 291.44 C61.67 288.46 69.07 287.27 78.37 291.52 C90.19 298.1 95.7 309.58 99.52 322.12 C101.09 328.17 101.19 333.96 101.06 340.19 C101.06 341.23 101.05 342.28 101.05 343.35 C101 348.29 100.85 353.03 99.81 357.88 C99.05 357.17 99.05 357.17 98.27 356.45 C92.12 350.89 87.26 347.63 78.81 346.88 C75.32 347.42 75.32 347.42 71.88 348.38 C64.83 350 60.16 350.72 53.62 347.12 C48.04 342.66 44.94 338.63 41.93 332.18 C40.79 329.69 40.79 329.69 38.81 326.88 C38.31 356.14 39.88 384.17 60.81 406.88 C79.82 426.36 106.59 437.82 133.77 439.05 C136.79 439.06 139.8 439.02 142.81 438.88 C140.83 435.9 138.85 432.94 136.81 429.88 C137.14 429.55 137.47 429.21 137.81 428.88 C138.42 429.54 139.02 430.2 139.65 430.89 C147.84 439.52 155.75 444.87 167.81 445.25 C181.48 445.05 189.69 438.11 198.81 428.88 C198.24 431.26 197.59 433.54 196.81 435.88 C220.17 430.99 239.37 419.5 252.67 399.33 C262.05 384.54 266.03 368.28 265.88 350.94 C265.87 349.48 265.87 349.48 265.86 348 C265.85 345.62 265.83 343.25 265.81 340.88 C264.87 341.54 263.93 342.2 262.96 342.88 C258.18 345.61 253.84 345.12 248.5 344.81 C237.84 344.52 231.56 346.15 223.69 353.56 C221.31 355.83 221.31 355.83 220.81 358.88 C220.15 358.88 219.49 358.88 218.81 358.88 C216.57 338.42 216.17 318.41 228.89 301.04 C234.68 294.13 239.93 291 248.62 289 C255.86 288.38 263.18 290.12 269.81 292.88 C272.73 293.63 272.73 293.63 275.81 292.88 C279.62 290.16 282.24 287.48 283.82 283.05 C283.81 278.62 281.71 276.38 278.88 273.25 C278.37 272.68 277.87 272.1 277.35 271.51 C272.22 265.86 266.51 262.18 258.66 261.67 C250.24 261.57 242.93 262.33 234.81 264.88 C236.06 264.22 237.31 263.58 238.56 262.94 C239.26 262.58 239.95 262.22 240.67 261.85 C245.25 259.77 249.58 259.68 254.56 259.69 C255.63 259.69 255.63 259.69 256.72 259.69 C261.76 259.74 266.05 260.29 270.81 261.88 C270.52 260.93 270.52 260.93 270.23 259.97 C265.81 245.46 265.81 245.46 265.81 239.88 C268.12 245.15 270.43 250.44 272.81 255.88 C274.3 254.54 274.3 254.54 275.81 253.19 C285.39 245.08 296.04 241.7 307.86 237.96 C308.94 237.61 310.02 237.27 311.14 236.92 C313.28 236.24 315.43 235.57 317.58 234.91 C333.74 229.84 349.17 223.06 362.19 212.06 C362.97 211.41 362.97 211.41 363.77 210.74 C373.37 202.26 380.72 191.51 387.69 180.88 C388.07 180.29 388.46 179.7 388.86 179.1 C395.83 168.54 402.57 157.88 408.81 146.88 C409.36 145.91 409.9 144.95 410.47 143.96 C434.93 102.64 434.93 102.64 445.81 56.88 C442.79 56.88 440.44 57.35 437.51 58.05 Z M290.81 123.88 C270.51 137.56 258.62 154.71 253.81 178.88 C264.9 170.53 271.41 157.75 278.32 146.01 C282.72 138.56 287.31 131.54 292.81 124.88 C292.15 124.55 291.49 124.22 290.81 123.88 Z M14.81 146.88 C16.43 151.31 18.61 155.29 20.94 159.38 C21.33 160.07 21.72 160.77 22.13 161.48 C25.86 168.05 29.79 174.48 33.81 180.88 C34.14 180.22 34.47 179.56 34.81 178.88 C33.9 176.3 32.92 173.86 31.81 171.38 C31.49 170.65 31.17 169.93 30.85 169.19 C28.14 163.24 24.89 158 20.81 152.88 C20.31 152.24 19.81 151.6 19.3 150.94 C18.18 149.55 17 148.2 15.81 146.88 C15.48 146.88 15.15 146.88 14.81 146.88 Z M56.81 305.88 C55.48 308.77 55.48 308.77 56.75 311.06 C59.36 313.35 61.39 313.44 64.81 313.26 C68.02 312.64 69.66 311.29 71.81 308.88 C72.79 306.33 72.79 306.33 72.81 303.88 C72.48 303.21 72.15 302.56 71.81 301.88 C66.02 301.39 61.58 302.4 56.81 305.88 Z M252.81 306.88 C252.56 309.83 252.56 309.83 252.81 312.88 C253.47 313.54 254.13 314.19 254.81 314.88 C258.12 314.59 258.12 314.59 260.81 312.88 C260.98 309.88 260.98 309.88 260.81 306.88 C259.69 305.53 259.69 305.53 256.81 305.75 C253.93 305.53 253.93 305.53 252.81 306.88 Z M41.81 309.88 C38.83 315.83 41.62 322.74 43.55 328.64 C46.27 335.58 49.91 341.64 56.81 344.88 C59.61 344.75 59.61 344.75 61.81 343.88 C61.13 343.38 60.45 342.88 59.75 342.38 C50.57 334.56 47.1 327.79 46.12 315.81 C46.01 313.83 45.9 311.85 45.81 309.88 C44.49 309.88 43.17 309.88 41.81 309.88 Z M52.81 311.88 C52.04 323.57 52.04 323.57 56.81 333.88 C59.45 336.44 61.99 338.88 65.81 338.88 C68.08 337.02 68.08 337.02 69.81 334.88 C68.51 334.35 68.51 334.35 67.19 333.81 C59.16 329.2 56.9 323.21 54.48 314.47 C54.26 313.62 54.04 312.76 53.81 311.88 C53.48 311.88 53.15 311.88 52.81 311.88 Z M261.81 320.88 C261.28 321.62 260.74 322.36 260.19 323.12 C256.51 327.38 251.85 329.45 246.81 331.88 C248.96 333.63 248.96 333.63 251.81 334.88 C255.56 334.26 257.37 333.29 260.12 330.69 C262.11 327.37 262.51 324.7 262.81 320.88 C262.48 320.88 262.15 320.88 261.81 320.88 Z M264.81 331.88 C264.21 332.64 263.62 333.4 263 334.19 C261.34 336.22 259.71 338.07 257.81 339.88 C260.93 339.54 262.43 339.25 264.69 337 C265.06 336.3 265.43 335.6 265.81 334.88 C265.48 333.88 265.15 332.89 264.81 331.88 Z M74.81 425.88 C74.9 440.44 74.99 455 75.1 469.56 C75.15 476.33 75.2 483.09 75.23 489.86 C75.27 496.4 75.32 502.95 75.37 509.5 C75.39 511.98 75.4 514.46 75.42 516.93 C75.52 537.64 76.25 558.4 79.56 578.88 C79.82 580.46 79.82 580.46 80.07 582.08 C87.89 629.16 104.98 674.21 144.8 703 C146.4 704.15 148.01 705.28 149.62 706.41 C153.32 709.01 156.76 711.5 159.81 714.88 C121.7 691.42 99.05 660.76 85.81 617.88 C85.55 617.05 85.29 616.22 85.03 615.36 C77.77 591.96 73.87 568.13 70.81 543.88 C67.83 548.35 67.12 553.23 65.94 558.44 C65.67 559.59 65.41 560.75 65.14 561.94 C62.42 574.17 60.46 586.46 58.81 598.88 C58.69 599.73 58.58 600.59 58.45 601.47 C55.51 623.22 54.76 646.41 59.81 667.88 C59.98 668.58 60.15 669.29 60.32 670.02 C63.49 682.94 68.92 694.8 74.67 706.75 C93.44 745.85 98.08 788.71 103.55 831.21 C104.41 837.89 105.32 844.57 106.3 851.25 C118.46 934.16 112.53 1020.77 89.44 1101.32 C87.87 1106.84 86.39 1112.16 85.81 1117.88 C87.46 1118.2 89.11 1118.53 90.81 1118.88 C93.33 1113.34 95.17 1107.76 96.88 1101.94 C97.13 1101.08 97.39 1100.23 97.65 1099.35 C99.17 1094.22 100.55 1089.07 101.81 1083.88 C102.14 1087.84 102.47 1091.8 102.81 1095.88 C103.35 1095.19 103.88 1094.51 104.44 1093.81 C106.25 1091.57 108.08 1089.33 109.94 1087.12 C110.44 1086.53 110.93 1085.94 111.45 1085.33 C112.81 1083.88 112.81 1083.88 114.81 1082.88 C114.35 1083.75 113.89 1084.62 113.42 1085.52 C109.8 1092.68 107.06 1099.65 105.31 1107.5 C105.14 1108.26 104.97 1109.01 104.79 1109.79 C103.98 1113.76 103.56 1116.98 104.81 1120.88 C105.96 1122.24 105.96 1122.24 109.06 1122.19 C118.04 1122.06 127.86 1118.61 134.81 1112.88 C136.04 1110.41 136.1 1108.48 136.32 1105.73 C137.44 1093.45 139.05 1082.2 143.48 1070.64 C145.99 1064.01 146.65 1059.15 144.31 1052.32 C142.65 1046.87 142.37 1041.9 142.46 1036.24 C142.47 1035.24 142.48 1034.25 142.49 1033.22 C142.69 1022.09 144.01 1011.14 145.45 1000.11 C145.72 997.89 146 995.68 146.28 993.46 C146.85 988.85 147.44 984.24 148.04 979.63 C148.78 973.83 149.51 968.03 150.24 962.23 C152.84 941.38 155.49 920.55 159.07 899.84 C159.19 899.15 159.31 898.45 159.43 897.73 C162.05 882.67 165.66 867.99 170.05 853.36 C176.19 832.88 181.07 813.24 181.25 791.69 C181.27 790.03 181.27 790.03 181.28 788.34 C181.27 787.3 181.26 786.27 181.25 785.21 C181.23 783.84 181.23 783.84 181.22 782.45 C180.61 778.6 179.17 775.89 176.03 773.55 C175.37 773.22 174.71 772.89 174.04 772.55 C173.3 772.17 172.57 771.78 171.81 771.39 C170.63 770.79 170.63 770.79 169.44 770.19 C161.15 765.79 154 760.91 146.81 754.88 C145.92 754.14 145.03 753.4 144.11 752.63 C137.9 747.28 132.82 741.34 127.81 734.88 C126.97 733.81 126.12 732.74 125.27 731.67 C120.01 724.99 115.22 718.16 110.81 710.88 C111.47 710.88 112.13 710.88 112.81 710.88 C113.04 711.4 113.28 711.93 113.52 712.48 C122.53 729.12 138.52 744.07 153.81 754.88 C154.38 755.28 154.96 755.68 155.55 756.1 C168.35 765.01 181.68 771.12 196.81 774.88 C198.53 773.16 198 770.86 198.06 768.51 C198.11 766.84 198.11 766.84 198.16 765.13 C198.22 762.79 198.28 760.46 198.33 758.12 C198.56 750.55 199.36 743.31 200.81 735.88 C200.83 737.07 200.83 737.07 200.86 738.3 C201.22 756.11 202.01 773.56 205.68 791.06 C209.54 809.78 208.9 827.76 203.95 846.23 C200.17 860.72 201.96 873.81 204.77 888.24 C205.33 891.08 205.87 893.93 206.4 896.79 C207.15 900.8 207.91 904.81 208.67 908.83 C216.38 949.52 222.63 989.93 226.02 1031.22 C226.08 1032.02 226.15 1032.81 226.22 1033.63 C227.46 1049.22 227.97 1064.81 228.13 1080.45 C228.15 1082.24 228.17 1084.03 228.19 1085.82 C228.25 1090.45 228.3 1095.09 228.34 1099.73 C228.4 1104.49 228.45 1109.25 228.51 1114.01 C228.61 1123.3 228.71 1132.59 228.81 1141.88 C230.72 1142.74 232.64 1143.59 234.56 1144.44 C235.63 1144.91 236.7 1145.39 237.8 1145.88 C240.8 1146.87 241.96 1147.1 244.81 1145.88 C246.08 1144.84 246.08 1144.84 245.83 1142.61 C245.28 1134.59 243.44 1127.46 240.81 1119.88 C241.14 1119.55 241.47 1119.22 241.81 1118.88 C243.79 1121.85 243.79 1121.85 245.81 1124.88 C246.83 1121.25 247.3 1117.6 247.81 1113.88 C248 1114.74 248.19 1115.6 248.39 1116.49 C249.11 1119.7 249.84 1122.9 250.58 1126.1 C250.9 1127.49 251.21 1128.87 251.52 1130.26 C251.96 1132.26 252.42 1134.25 252.89 1136.24 C253.16 1137.44 253.44 1138.64 253.72 1139.87 C254.91 1143.15 255.78 1144.24 258.81 1145.88 C260.91 1145.92 260.91 1145.92 262.94 1145.25 C263.62 1145.07 264.3 1144.89 265.01 1144.71 C267.17 1143.9 267.17 1143.9 268.81 1140.88 C269.32 1135.42 268.14 1131.25 266 1126.31 C265.74 1125.68 265.48 1125.05 265.21 1124.39 C263.57 1120.47 261.75 1116.66 259.81 1112.88 C261.79 1114.36 261.79 1114.36 263.81 1115.88 C266.66 1109.99 267.72 1103.83 265.62 1097.56 C265.04 1095.99 264.43 1094.43 263.81 1092.88 C257.14 1075.55 256.21 1056.99 254.93 1038.63 C254.69 1035.14 254.43 1031.65 254.18 1028.16 C252.5 1005.1 251.6 982.13 251.62 959 C251.63 957.84 251.63 956.69 251.63 955.5 C251.73 881.83 263.27 808.97 291.1 740.53 C294.48 732.2 297.58 723.87 300.18 715.25 C300.42 714.46 300.66 713.66 300.91 712.84 C303.21 704.97 304.62 696.98 305.81 688.88 C306.05 695.66 305.65 701.84 304.15 708.46 C303.8 710.98 304.13 712.47 304.81 714.88 C314.12 696.22 318.51 678.78 319.81 657.88 C320.5 680.18 314.99 697.87 305.57 717.68 C294.24 738.49 294.24 738.49 288.81 760.88 C313.28 755.94 337.17 747.81 358.5 734.75 C359.15 734.35 359.8 733.96 360.46 733.55 C361.08 733.16 361.69 732.77 362.32 732.37 C362.85 732.03 363.39 731.69 363.93 731.35 C369.98 726.61 372.79 722.69 374.66 715.2 C374.89 714.37 375.11 713.53 375.35 712.67 C376.07 709.98 376.76 707.27 377.44 704.56 C377.68 703.63 377.92 702.7 378.16 701.75 C379.77 695.47 381.31 689.18 382.81 682.88 C383.11 681.66 383.4 680.45 383.7 679.2 C388.54 658.21 387.2 636.27 386.81 614.88 C387.15 618.21 387.47 621.54 387.8 624.87 C387.89 625.8 387.98 626.73 388.08 627.7 C390.29 650.46 386.89 671.32 381.85 693.39 C371.85 737.25 365.05 786.09 389.75 826.62 C391.09 828.72 392.45 830.8 393.81 832.88 C395.02 834.77 396.23 836.66 397.44 838.56 C398.01 839.45 398.58 840.34 399.18 841.25 C400.24 842.96 401.26 844.7 402.23 846.46 C406 853.31 410.79 857.94 416.81 862.88 C416.05 862.57 415.29 862.26 414.5 861.94 C412.62 861.2 410.73 860.51 408.81 859.88 C409.27 863.84 409.78 867.71 410.57 871.62 C424.57 942.26 402.44 1020.12 378.81 1085.88 C380.96 1088.3 381.44 1088.84 384.81 1089.19 C387.99 1089.09 387.99 1089.09 390.81 1086.88 C391.71 1084.03 392.45 1081.27 393.12 1078.38 C395.51 1068.68 398.54 1059.3 401.81 1049.88 C401.81 1053.51 401.81 1057.13 401.81 1060.88 C402.53 1060.15 403.26 1059.43 404 1058.69 C406.6 1056.08 409.21 1053.48 411.81 1050.88 C410.9 1053.62 409.78 1055.98 408.5 1058.56 C406.32 1063.33 404.78 1068.06 403.5 1073.12 C403.33 1073.79 403.16 1074.45 402.98 1075.13 C401.94 1079.45 401.49 1083.44 401.81 1087.88 C403.75 1090.22 403.75 1090.22 407.19 1090.31 C415.25 1090.12 425.07 1085.62 430.81 1079.88 C431.05 1078.49 431.23 1077.1 431.39 1075.71 C432.89 1063.47 435.39 1052.81 439.8 1041.3 C442.6 1033.28 442.95 1023.69 441.31 1015.33 C438.58 996.51 441.47 976.63 443.5 957.88 C443.78 955.26 444.05 952.64 444.33 950.02 C447.91 916.52 452.57 883.42 462.72 851.18 C465.37 842.36 465.36 836.58 461.2 828.28 C460.12 826.3 459.04 824.34 457.94 822.38 C454.21 815.64 451 809.27 448.81 801.88 C448.48 801.88 448.15 801.88 447.81 801.88 C446.84 806.73 446.69 811.33 446.75 816.25 C446.76 817.35 446.76 817.35 446.76 818.48 C446.78 820.28 446.79 822.08 446.81 823.88 C442.39 808.58 445.86 789.95 449.81 774.88 C449.99 774.14 450.18 773.41 450.37 772.65 C455.52 752.31 464.11 732.64 472.11 713.27 C486.5 678.42 498.82 640.33 499.02 602.29 C499.02 601.4 499.03 600.5 499.03 599.58 C499.04 597.7 499.05 595.81 499.05 593.92 C499.06 591.11 499.09 588.29 499.12 585.48 C499.34 548.39 488.91 514.06 462.81 486.88 C462.08 486.09 461.35 485.31 460.6 484.5 C438.65 461.63 406.52 452.58 375.62 451.75 C333.02 450.97 285.13 458.75 247.81 479.88 C247.96 481.14 248.11 482.41 248.26 483.72 C248.35 484.44 248.43 485.15 248.51 485.89 C248.87 488.27 249.35 489.95 250.81 491.88 C254.02 493.05 256.28 492.78 259.57 492.03 C260.52 491.82 261.46 491.61 262.43 491.39 C263.44 491.15 264.46 490.92 265.5 490.67 C266.55 490.43 267.61 490.19 268.69 489.95 C272.07 489.18 275.44 488.4 278.81 487.62 C281.05 487.12 283.29 486.61 285.54 486.1 C295.66 483.79 305.75 481.42 315.81 478.88 C315.81 479.53 315.81 480.19 315.81 480.88 C315.16 480.98 314.51 481.09 313.83 481.21 C306.69 482.45 299.7 484.05 292.69 485.88 C291.65 486.14 290.61 486.4 289.54 486.66 C288.55 486.92 287.57 487.17 286.55 487.44 C285.67 487.67 284.78 487.89 283.86 488.13 C281.62 488.68 281.62 488.68 280.81 490.88 C288.07 492.19 295.33 493.51 302.81 494.88 C300.94 494.72 299.08 494.56 297.15 494.4 C294.68 494.21 292.22 494.01 289.75 493.81 C288.52 493.71 287.29 493.6 286.03 493.5 C280.1 493.04 274.64 492.64 268.81 493.88 C268.81 494.2 268.81 494.53 268.81 494.88 C269.71 495.08 270.61 495.29 271.53 495.5 C278.84 497.31 285.73 499.47 292.62 502.5 C293.31 502.8 294 503.1 294.71 503.41 C297.48 504.67 299.64 505.71 301.81 507.88 C301 507.49 300.19 507.1 299.35 506.7 C284.45 499.93 269.2 496.61 252.81 496.88 C253.2 498.13 253.6 499.39 254 500.69 C255.55 505.9 257.02 511.13 258.44 516.38 C258.66 517.16 258.87 517.94 259.1 518.75 C260.62 524.43 261.38 530.01 261.81 535.88 C261.56 535.13 261.31 534.39 261.05 533.63 C259.89 530.23 258.73 526.83 257.56 523.44 C257.17 522.27 256.77 521.11 256.36 519.91 C254.13 513.41 251.76 507.08 248.81 500.88 C248.48 500.88 248.15 500.88 247.81 500.88 C247.78 501.48 247.75 502.09 247.72 502.71 C244.86 556.95 225.22 607.94 199.54 655.22 C189.44 673.84 180.42 692.83 176.81 713.88 C177.95 690.39 189.65 669.7 200.7 649.57 C220.26 613.91 233.43 576.64 241.81 536.88 C242.22 534.99 242.22 534.99 242.63 533.07 C245.56 516.63 245.5 497.95 240.81 481.88 C236.05 463.85 234.41 446.49 233.81 427.88 C233.31 428.13 232.8 428.38 232.27 428.64 C220.09 434.64 208.46 439.47 195.12 442.31 C189.92 443.45 185.59 445.2 180.93 447.79 C172.84 451.93 164.47 449.91 156.19 447.5 C148.75 445.35 141.66 444.35 133.94 443.88 C114.06 442.56 97.29 437.12 79.58 428.26 C78.24 427.59 78.24 427.59 76.87 426.9 C76.19 426.56 75.51 426.22 74.81 425.88 Z M361.25 739.19 C360.24 739.8 359.23 740.42 358.18 741.05 C357.4 741.65 356.62 742.25 355.81 742.88 C355.81 743.87 355.81 744.86 355.81 745.88 C359.77 747.86 363.73 749.84 367.81 751.88 C367.81 746.6 367.81 741.32 367.81 735.88 C365.56 735.88 363.07 738.06 361.25 739.19 Z M339.53 751.53 C330.12 755.26 320.85 758.73 311.02 761.16 C310.28 761.35 309.53 761.53 308.77 761.73 C305.08 762.65 301.39 763.52 297.68 764.34 C290.75 765.79 290.75 765.79 285.11 769.73 C284 772.1 283.39 774.32 282.81 776.88 C282.18 778.84 281.54 780.8 280.89 782.76 C280.27 784.84 279.67 786.92 279.06 789 C278.75 790.05 278.43 791.09 278.11 792.17 C275.17 801.73 275.17 801.73 277.43 811.16 C278.16 812.29 278.92 813.4 279.69 814.5 C280.09 815.1 280.49 815.7 280.91 816.32 C282.19 818.19 283.49 820.03 284.81 821.88 C285.23 822.46 285.65 823.04 286.08 823.64 C295.09 836.07 305.18 845.27 317.81 853.88 C309.85 849.82 302.65 845.69 295.81 839.88 C294.88 842.9 294.81 845.04 295.37 848.15 C295.51 848.97 295.65 849.8 295.79 850.65 C296.09 852.35 296.39 854.04 296.7 855.73 C298.93 869.14 297.61 882.46 296.19 895.88 C296.1 896.71 296.01 897.55 295.92 898.42 C290.9 946.04 282.59 995.35 264.15 1039.82 C261.76 1045.85 261.17 1051.39 261.81 1057.88 C262.86 1059.11 262.86 1059.11 265.12 1059.31 C268.02 1059.14 268.02 1059.14 269.75 1056.55 C272.62 1051.96 274 1046.77 275.56 1041.62 C275.88 1040.62 276.19 1039.61 276.52 1038.58 C278.16 1033.81 278.16 1033.81 278.81 1028.88 C279.47 1028.88 280.13 1028.88 280.81 1028.88 C280.81 1031.18 280.81 1033.49 280.81 1035.88 C281.96 1034.7 281.96 1034.7 283.12 1033.5 C285.81 1030.88 285.81 1030.88 288.81 1028.88 C288.32 1030.06 287.83 1031.24 287.32 1032.45 C286.67 1034.01 286.02 1035.57 285.38 1037.12 C285.05 1037.9 284.72 1038.68 284.39 1039.48 C284.08 1040.23 283.76 1040.99 283.44 1041.77 C283.15 1042.46 282.87 1043.15 282.57 1043.86 C281.14 1047.67 280.68 1050.99 280.69 1055.06 C280.68 1055.94 280.68 1056.82 280.68 1057.73 C280.57 1059.86 280.57 1059.86 281.81 1060.88 C291.28 1062.38 303.68 1058.8 311.81 1053.88 C312.99 1051.53 313.11 1049.41 313.36 1046.82 C314.41 1036.23 317.32 1026.71 320.96 1016.73 C324.52 1006.77 325.99 996.83 325.75 986.25 C325.54 965.43 331.7 945.06 336.77 925.04 C337.79 920.97 338.81 916.9 339.82 912.83 C341.22 907.2 342.63 901.57 344.04 895.94 C346.82 884.88 349.55 873.82 352.25 862.75 C352.86 860.26 353.47 857.77 354.08 855.27 C354.44 853.8 354.8 852.33 355.16 850.86 C355.46 849.64 355.76 848.42 356.07 847.16 C359.78 830.78 357.55 817.88 349.91 803.17 C344.45 791.79 345.68 778.04 345.75 765.75 C345.76 764.21 345.76 762.66 345.76 761.12 C345.77 757.37 345.79 753.62 345.81 749.88 C343.35 749.88 341.81 750.6 339.53 751.53 Z M272.81 814.88 C270.04 823.98 267.84 832.96 266.31 842.38 C266.1 843.66 265.9 844.94 265.68 846.26 C263.02 863.06 261.26 879.94 259.81 896.88 C259.74 897.77 259.66 898.66 259.58 899.58 C257.42 925.41 256.53 951.2 256.5 977.11 C256.5 979.16 256.49 981.2 256.49 983.24 C256.31 1008.71 256.31 1008.71 259.81 1033.88 C287.84 991.83 299.22 899.14 290.62 850.5 C287.46 837.63 282.46 824.26 272.81 814.88 Z " fill="#000000" transform="translate(288.1875,63.125)"/>
<path d="M0 0 C2.58 2.58 3.02 4.83 4.06 8.31 C4.4 9.44 4.75 10.57 5.1 11.74 C9.6 28.01 7.17 43.95 2.58 59.93 C-1.79 75.17 -1.79 75.17 0.88 90.34 C6.22 98.28 16.09 102.4 25.04 104.82 C33.18 106.41 39.5 106.75 47 103 C48.5 101.5 48.33 100.01 48.56 97.94 C48.71 96.64 48.85 95.34 49 94 C47.24 93.5 47.24 93.5 45.44 93 C34.92 89.47 22.73 83.95 16.86 74.09 C14.9 69.35 15.07 64.29 16.99 59.56 C21.83 51.48 29.99 46.84 38.98 44.47 C52.06 42.43 65.4 43.07 76.5 50.94 C80.87 54.55 84.57 58.39 86 64 C85.75 71.69 83.24 77.08 77.75 82.44 C71.92 87.31 61.7 94 54 94 C54.5 98.45 54.5 98.45 55 103 C62.98 106.45 70.6 105.79 78.62 102.88 C87.1 99.29 94.41 95.83 98 87 C101.13 75.66 95.67 64.51 90.62 54.56 C78.83 30.62 78.83 30.62 78.81 17.06 C78.8 16.37 78.79 15.68 78.78 14.97 C78.76 10.59 79.39 7.07 81 3 C81.33 3 81.66 3 82 3 C81.97 4.23 81.93 5.46 81.89 6.73 C81.87 8.41 81.84 10.08 81.81 11.75 C81.79 12.56 81.76 13.36 81.74 14.19 C81.6 25.69 85.25 35.36 90.38 45.5 C91.36 47.51 92.35 49.51 93.33 51.52 C93.79 52.47 94.26 53.41 94.74 54.39 C100.01 65.3 105.22 77.16 101.2 89.45 C94.5 101.17 79.38 107.38 66.94 110.88 C47.09 115.83 27.1 112.17 9.27 102.52 C3.57 98.95 -1.82 94.53 -4 88 C-5.61 74.85 -2.03 62.85 1.37 50.25 C4.99 36.74 4.82 23.96 1.75 10.44 C0.99 6.97 0.46 3.52 0 0 Z M26 56 C26 56.33 26 56.66 26 57 C26.95 57.06 27.91 57.12 28.89 57.18 C30.14 57.27 31.4 57.35 32.69 57.44 C33.93 57.52 35.17 57.6 36.45 57.68 C39.39 57.95 42.12 58.42 45 59 C46.62 59.09 48.25 59.13 49.88 59.12 C50.68 59.13 51.48 59.13 52.3 59.13 C55.11 59.04 55.11 59.04 58.29 58.5 C62.39 57.95 66.32 57.89 70.44 57.94 C71.53 57.94 71.53 57.94 72.65 57.95 C74.44 57.96 76.22 57.98 78 58 C75.49 54.57 73.57 52.38 69.62 50.75 C68.9 50.44 68.17 50.12 67.41 49.8 C53.8 45.3 37.1 46.63 26 56 Z M29 63 C28.67 64.32 28.34 65.64 28 67 C31.37 68.5 33.2 69 37 69 C36.67 67.68 36.34 66.36 36 65 C33.69 64.34 31.38 63.68 29 63 Z M64 67 C64.33 67.99 64.66 68.98 65 70 C68.5 68.72 68.5 68.72 72 67 C72.33 66.01 72.66 65.02 73 64 C68.9 63.66 67.07 64.27 64 67 Z " fill="#000000" transform="translate(406,374)"/>
<path d="M0 0 C0 3 0 3 -1.41 4.73 C-13.18 15.4 -27.05 21.09 -41.87 26.25 C-60 32.63 -72.16 41.47 -82 58 C-83.04 59.72 -84.09 61.44 -85.14 63.16 C-86.13 64.79 -87.12 66.42 -88.11 68.05 C-90 71 -90 71 -92.11 73.57 C-97.17 80.09 -96.44 87.09 -96 95 C-95.57 97.83 -95.03 100.61 -94.46 103.41 C-93.24 110.25 -93.24 116.11 -96.72 122.25 C-99.49 126.04 -103.12 128.41 -107 131 C-107.99 130.67 -108.98 130.34 -110 130 C-109.39 129.55 -108.77 129.11 -108.14 128.64 C-101.04 123.56 -101.04 123.56 -97.54 115.86 C-96.75 110.29 -97.29 105.56 -98.45 100.09 C-99.51 94.12 -99.69 88.05 -100 82 C-100.52 82.44 -101.03 82.88 -101.56 83.33 C-108.36 88.69 -115.65 92.57 -123.38 96.44 C-124.43 96.97 -125.49 97.5 -126.58 98.05 C-131.07 100.26 -135.03 102.2 -140 103 C-134.73 96.92 -127.7 93.49 -120.81 89.52 C-107.03 81.39 -96.94 70.96 -89.06 57.12 C-77.33 37.1 -65.72 27.77 -43.81 20.38 C-28.73 15.14 -13.11 9.3 0 0 Z " fill="#000000" transform="translate(704,140)"/>
<path d="M0 0 C0.91 0.51 0.91 0.51 1.84 1.03 C12 6.65 22.3 11.93 32.91 16.64 C44.01 21.57 54.54 26.27 64 34 C64.65 34.52 65.3 35.05 65.98 35.59 C70.58 39.73 73.74 44.95 77.1 50.09 C86.97 65.21 97.87 76.18 112.96 86.22 C131.23 98.38 131.23 98.38 133.75 106.38 C133.83 106.91 133.91 107.45 134 108 C133.34 108 132.68 108 132 108 C131.01 106.73 131.01 106.73 130 105.44 C122.21 95.84 108 88.5 97 83 C96.32 95.65 97.53 107.1 105.99 117.06 C108.77 119.75 111.78 121.81 115.08 123.81 C117 125 117 125 119 127 C111.42 125.83 105.91 121.48 101.12 115.62 C95.61 108.03 93.89 100.36 94.17 91.04 C94.22 85.59 94.19 80.9 90.51 76.61 C87.96 74.05 85.2 71.73 82.46 69.38 C79.53 66.61 77.68 63.15 75.63 59.72 C63.92 40.18 48.2 30.17 28.08 20.95 C4.34 10.07 4.34 10.07 0.73 2.26 C0.49 1.51 0.25 0.77 0 0 Z " fill="#000000" transform="translate(163,157)"/>
<path d="M0 0 C0.99 0.5 0.99 0.5 2 1 C0.95 2.4 0.95 2.4 -0.12 3.82 C-10.25 17.38 -18.34 31.44 -26.11 46.45 C-42.99 78.96 -42.99 78.96 -59 85 C-61.25 84.62 -61.25 84.62 -63 84 C-61.79 83.2 -61.79 83.2 -60.55 82.39 C-59.48 81.68 -58.41 80.98 -57.31 80.25 C-56.26 79.55 -55.2 78.86 -54.11 78.14 C-42.29 70.01 -36.08 58.99 -30.06 46.25 C-22.2 30.02 -13.32 12.55 0 0 Z " fill="#000000" transform="translate(677,188)"/>
<path d="M0 0 C3.13 2.72 5.01 6.15 7.06 9.7 C7.45 10.36 7.84 11.02 8.24 11.7 C9.07 13.11 9.89 14.52 10.72 15.93 C12.86 19.59 15.01 23.24 17.17 26.89 C17.59 27.6 18.02 28.31 18.45 29.05 C32.89 53.39 47.02 72.75 74 84 C68.52 85.83 62.99 82.48 58 80 C30.21 64.18 13.12 30.07 0 2 C0 1.34 0 0.68 0 0 Z " fill="#000000" transform="translate(189,203)"/>
<path d="M0 0 C0.33 0 0.66 0 1 0 C0.17 8.74 -1.46 17.29 -3.1 25.9 C-6.2 42.74 -7.38 59.54 -8.12 76.62 C-8.21 78.52 -8.3 80.41 -8.39 82.3 C-8.6 86.87 -8.8 91.43 -9 96 C-9.33 96 -9.66 96 -10 96 C-10.43 63.45 -10.44 31.32 0 0 Z " fill="#000000" transform="translate(761,668)"/>
<path d="M0 0 C10.95 16.43 9.32 46.32 7 65 C6.67 65 6.34 65 6 65 C5.99 64.31 5.97 63.62 5.96 62.9 C5.51 43.83 4.48 24.88 0.38 6.19 C0 4 0 4 0 0 Z " fill="#000000" transform="translate(431,870)"/>
<path d="M0 0 C6.93 12.7 3.7 35.39 0.2 49.14 C-0.46 51.12 -1.21 53.07 -2 55 C-3.29 52.42 -2.87 51.16 -2.44 48.32 C-2.3 47.34 -2.16 46.36 -2.02 45.35 C-1.87 44.29 -1.72 43.22 -1.56 42.12 C0.31 28.07 0.31 14.16 0 0 Z " fill="#000000" transform="translate(534,902)"/>
<path d="M0 0 C0.66 0.33 1.32 0.66 2 1 C1.14 1.81 0.29 2.62 -0.6 3.46 C-7.55 10.15 -13.31 16.49 -18 25 C-19 22 -19 22 -18.1 19.84 C-13.34 11.89 -7.53 5.43 0 0 Z " fill="#000000" transform="translate(645,193)"/>
<path d="" fill="#000000" transform="translate(0,0)"/>
<path d="" fill="#000000" transform="translate(0,0)"/>
<path d="" fill="#000000" transform="translate(0,0)"/>
<path d="" fill="#000000" transform="translate(0,0)"/>
<path d="" fill="#000000" transform="translate(0,0)"/>
<path d="" fill="#000000" transform="translate(0,0)"/>
<path d="" fill="#000000" transform="translate(0,0)"/>
</svg>
