<?xml version="1.0" encoding="utf-8"?>
<!-- Generator: Adobe Illustrator 22.1.0, SVG Export Plug-In . SVG Version: 6.00 Build 0)  -->
<svg version="1.1" id="Layer_1" xmlns="http://www.w3.org/2000/svg" xmlns:xlink="http://www.w3.org/1999/xlink" x="0px" y="0px"
	 viewBox="0 0 856.6 864" style="enable-background:new 0 0 856.6 864;" xml:space="preserve">
<g>
	<path d="M856.3,430.2c-0.5-2.8-2-4.6-4.7-5.2c-1.6-0.4-3.3-0.5-5-0.7l0,0c-0.1-0.3-0.2-0.5-0.3-0.8c-0.9-13.4-0.9-13.4-13.7-10.3
		c-2.2-2.5-0.7-5.7-1.7-8.5c-0.9-2.4-4.1-3.5-6.2-2c-1,0.7-2.1,1.5-2.9,2.5c-8.4,9.6-15.6,20-20.3,32c-3.3,8.5-4.8,17.6-2.4,26.2
		c2.5,8.8,0.7,16.8-1,25c-2.8,13.4-7.3,26.1-16.7,36.5c-2,2.2-3.8,4.7-7.8,4.5c-0.8-1.6-2-3.4-2.6-5.3
		c-6.2-18.9-12.6-37.7-21.2-55.7c-2.7-5.7-0.8-11.1,5.2-14.9c21.2-13.4,35.4-32.5,44.6-55.5c2.5-6.3,4.5-12.8,6.1-19.3
		c7.8-31.4,7-63,1.2-94.5c-9.3-50.4-30.1-95.9-60-137.3c-22.8-31.5-50-58.6-83-79.4c-23.2-14.6-47.8-25.3-75.4-28.2
		c-41.1-4.2-75,8.8-100,42.5c-2,2.7-3.7,5.7-5.6,8.5c-3.2,4.6-3.9,4.8-9.3,1.8c-14.4-8.2-29.2-15.3-44.9-20.8
		c-28.7-10-58.2-14.3-88.6-12.9c-9.4,0.5-9.4,0.2-9.1-8.9c0-0.4,0.2-1,0-1.2c-0.7-0.9-1.5-1.9-2.5-2.5c-0.5-0.3-1.7,0.2-2.2,0.7
		c-1.9,1.8-2.8,4.2-3.3,6.7c-0.4,1.9-0.5,4.1-2.9,4.8c-1-5.4,0.2-10.7,0.6-16.1c0.3-4.2,0.8-8.4,1-12.7c0.1-1.7,0-3.4-0.4-5
		c-0.5-1.6-1.7-2.9-3.6-2.9c-1.5,0-2.3,1.2-2.5,2.4c-0.4,2.5-0.4,5-0.7,7.6c-0.7,7.6-1.4,15.2-2.2,22.8c-0.3,2.4-0.5,6.1-3.3,6.1
		c-3.7,0.1-2.1-3.7-2.2-5.8c-0.2-4.6,0.1-9.3,0-14c-0.2-11.5-1.8-22.8-4.4-34c-0.6-2.8-0.8-6.2-4.8-6.4c-2.8-0.2-4.1,3.5-2.8,8.2
		c4.1,14.8,5.4,30,4.9,45.3c-0.3,10.7-0.3,10.9-10.5,14.1c-39.5,12.3-72.4,34.5-98.9,66.2c-0.8,1-1.6,2-2.4,2.9
		c-4.5,5.2-4.7,5.3-10.1,1.2c-4.1-3.1-8-6.2-12.2-9.1c-9.8-6.8-20.3-12.3-31.7-15.8c-30.9-9.3-58.6-3.6-82.6,18.3
		c-6.9,6.3-12.8,13.5-18,21.3c-7.8,11.7-13.7,24.3-18.4,37.6c-9.5,27-13.7,55-14.7,83.5c-1.2,34.5,2.5,68.5,10.1,102.1
		c9.6,42.4,24.7,82.7,47.6,119.9c11.8,19.2,25.5,37,42,52.4c15,14,31.6,25.6,51.4,31.9c31.9,10.1,60.1,3.6,84.6-19.2
		c5.3-4.9,9.9-10.4,14.2-16.3c1.4-1.9,2.4-4.7,6.1-4.4c-0.2,2.5-0.4,5-0.6,7.5c-1.2,14.3-2.8,28.7-3.5,43.1
		c-1.1,21.2-1.2,42.4-0.4,63.5c0.1,3.4,0.2,6.8,0.2,10.2c0,5.5-0.1,5.5-5.9,7.5c-0.8,0.3-1.7,0.4-2.3,0.9c-1,0.7-1.9,1.7-1.4,3.1
		c0.3,0.7,0.8,1.6,1.4,1.9c1.1,0.5,2.4,0.9,3.6,0.9c3.8-0.1,5.2,2,5.5,5.4c0.4,4.5,0.1,5.1-4.7,7.5c-0.7,0.4-1.7,0.4-2.4,0.8
		c-1.8,1.1-1.7,4.5,0.2,5.2c1.5,0.6,3.3,0.7,4.9,1c1.9,0.3,3,1.4,3.2,3.3c0.3,2.5,0.4,5.1,0.6,7.6c2.3,28.4,7.6,56.2,17.3,83
		c5.7,15.6,12.7,30.5,22.7,43.8c6.1,8.2,13,15.7,21.6,21.4c13.7,9.1,25.8,8.3,38.4-2.2c4.6-3.9,8.1-8.6,11.2-13.7
		c7-11.6,13-23.8,17.8-36.5c3.5-9.1,7.1-18.1,12.3-26.5c4.1-6.7,9.1-12.2,16.7-15c5.7-2.1,8.5-1.6,12.6,2.7c4.2,4.4,7,9.6,9.3,15.1
		c3.6,8.6,6.8,17.3,10,26.1c3.9,10.5,9,20.2,17.8,27.4c8.2,6.7,17.7,10.1,28.3,7.9c10.1-2.1,18.9-7.5,26.2-14.9
		c5.4-5.5,13.1-20.9,14.3-27.6c1.6-9.4,5.7-17.7,12-24.8c5.7-6.5,11.2-6.4,17.3-0.2c4.2,4.3,6.8,9.7,8.8,15.3c2.2,6,3.8,12.1,6,18.1
		c2.9,8,6.6,15.6,12,22.2c11.4,13.8,24,16.1,39.3,7.2c2.6-1.5,5-3.2,7.3-5.1c9.9-8.3,17.7-18.2,21.9-30.6c2.4-7.2,4.8-14.5,7.5-21.6
		c1.2-3.1,2.7-6.2,4.7-8.9c3.4-4.6,9.5-4.5,13,0.1c1.5,2,2.8,4.3,3.5,6.7c1.8,5.6,3.4,11.3,4.9,17c2,7.4,3.4,14.9,5.7,22.1
		c2.5,7.5,7.3,13.5,14.9,16.5c6.3,2.5,12.9,4.2,19.8,2.9c4.1-0.8,22.8-6.9,26-8.9c11.4-7.1,20.1-16.8,26.6-28.5
		c4.7-8.6,8.2-17.7,10.5-27.2c4.2-16.9,6.5-34,8.1-51.4c2.3-25-0.4-50-0.7-74.9c-0.1-5.7-3.5-11.4,1.8-16.5c0.9-0.9,0.4-2.4-0.6-3.3
		c-0.3-0.3-0.7-0.5-1-0.8c-6.1-5.4-6.1-6,0.9-10.5c1.4-0.9,3-1.7,4-2.9c0.7-0.8,1.2-2.5,0.8-3.4c-0.3-0.8-1.9-1.6-2.9-1.7
		c-2.9-0.2-5.3,3-9.1,1.2c-2.1-9-4.1-18.5-6.6-27.8c-3.2-12.3-6.7-24.5-10.3-36.7c-1.1-3.8-0.4-6.2,2.8-8.7
		c11.4-8.9,18.1-21.1,22.5-34.7c1.7-5.2,2.9-10.6,3.7-16.1c1-7.2,4.2-11.8,12-12c4.4-0.1,8.4-1.7,11.9-4.1
		c9.9-6.8,18.1-15.3,23.6-26.1C855.6,438.6,857.1,434.6,856.3,430.2z M489.3,94.6c15-25.5,36.7-41.6,66-47.1
		c19.2-3.6,37.9-1.2,56.4,4.3C639.8,60,664.8,74.1,687,93c58.8,50.1,95.7,113.4,111.8,188.8c1.9,9.1,3.4,18.3,4.3,27.6
		c0.7,7.1,0.1,14.4,0.1,21.6c1.1,21.4-2.2,42.2-9.7,62.3c-5.2,14-12.6,26.8-22.9,37.8c-17.4,18.4-38.7,28.3-64.1,29.6
		c-15.4,0.8-30.4-0.9-45.2-5.4c-24.7-7.5-46.7-19.7-67-35.4c-4.7-3.6-4.7-4-2.8-9.6c1.4-4.4,3-8.8,4.6-13.2c1.1-2.9,3.1-3.7,6-2.6
		c7.6,2.8,15.4,4.3,23.6,4.5c17.4,0.6,32.4-5.2,45.5-16.4c11.2-9.5,19.2-21.4,25.2-34.7c7.3-16.4,11.5-33.5,13.2-51.4
		c5-51.9-6.2-100.1-31.8-145.2c-7.6-13.3-16.9-25.4-27.9-36.1c-8.9-8.6-18.6-16-29.8-21.4c-30.8-15.1-64.5-9.6-87.8,19.3
		c-1.6,2-3.2,4-4.6,6.1c-5.6,8.5-5.3,9.7-13.8,2.2c-7.3-6.4-15.2-12.1-22.8-18.2C487.2,100.2,486.8,98.9,489.3,94.6z M557.3,152.6
		c-0.5-0.7-1.2-1.2-1.7-1.8c-3.2-4.1-2.9-5,2.5-5.9c2.5-0.4,5.1-0.6,7.5-1.2c1.6-0.4,3.1-1.3,4.5-2.2c2.5-1.6,2.6-5.6,0.4-7.8
		c-2.4-2.4-6.3-2.5-8.4-5.8c2.6-2.7,5.2-5.4,7.8-8.2c1.5-1.7,2-3.7,1.2-5.9c-0.9-2.4-3.2-2.5-5.3-2.5c-5.2,0-9.9,2.2-14.6,4
		c-3.5,1.4-6.9,3.2-10.3,4.9c-1.6,0.8-3.1,1.3-4.7,0.2l-0.2,0.1c3.4-3.8,6.5-7.9,10.2-11.3c16.7-15.1,36-19.7,57.8-13.6
		c12.9,3.6,24,10.4,34.1,19c12.4,10.5,22.6,22.9,31,36.8c19.1,31.2,29.7,65.2,33.2,101.7c2.3,24.3,0.8,48.2-5.5,71.8
		c-3.7,13.6-9.2,26.4-17.4,37.9c-4.7,6.6-10.1,12.5-16.7,17.3c-17.4,12.8-36.4,14.9-56.6,8c-6-2.1-6.6-3.2-5.4-9.3
		c2.1-10,3.6-20,4.6-30.1c4.6-44-3.2-86-19.7-126.7c-7.2-17.7-16.5-34.3-27.2-50.1c-1.4-2.1-3-4.1-4.4-6.2c-1.6-2.4-1.8-4,1.4-5.9
		C559.5,157.2,559.5,155.6,557.3,152.6z M228.6,107.3c27.6-21.6,59-34.6,93.7-39.5c57.6-8.1,110.5,5.5,158.2,37.7
		c63.7,42.8,102,102.8,115,178.5c8.1,46.7,3.1,92.1-16,135.5c-19.1,43.3-49.4,76.6-91.2,99.1c-10.8,5.8-11.4,5.5-11.7-7.1
		c-0.4-23.3-0.3-46.6,3.4-69.7c2.2-13.4,5.6-26.5,9.9-39.4c0.9-2.9,2.1-5.5,4.1-7.8c2.1-2.5,4.4-4,7.6-1.9c0.4,0.2,0.8,0.4,1.1,0.6
		c2.3,1.1,4.9,2.5,6.4-0.8c1.1-2.4-0.9-4.2-2.7-5.1c-7.5-3.9-15-7.8-21.7-13c-0.9-0.7-2.5-0.1-3.2,1.1c-0.4,0.7-0.5,1.6-0.4,2.4
		c0.1,0.8,0.5,1.8,1.1,2.2c5.5,3.9,5,8.5,2.8,14.2c-8.8,23.1-13.8,47-15.2,71.8c-1.2,22-1.8,44,0.1,66c0.4,5-0.4,10.2,0.3,15.2
		c1.2,9.2-0.7,16.5-6.7,24.4c-8.8,11.6-11.3,25.5-5.7,39.7c4.3,10.8,12.1,18.3,23.1,22.2c8.9,3.2,16.1,1.1,21.1-6.6
		c5-7.7,6.8-16.4,5.2-25.5c-0.3-1.8-1.6-3.1-3.4-3.1c-1.9,0-2.9,1.6-3.1,3.4c-0.2,1.7-0.3,3.4-0.4,5c-0.1,1.3,0.2,2.6-0.1,3.8
		c-0.7,2.9-1.3,5.8-2.4,8.6c-3.4,8.4-8.9,10.2-17.3,6.3c-14.3-6.8-20-23.1-17.2-34.8c4.4-18,16.4-30.4,35.6-33.4
		c15.9-2.5,31.3-0.5,44,11.1c8.2,7.5,13.1,16.9,13.8,27.8c1.6,26.7-1.8,53-16.7,75.7c-16.6,25.3-40.3,40.2-71.8,36.9
		c-27.3-2.9-51.3-14.2-71.7-32.6c-19.7-17.7-33.2-39.4-41.1-64.6c-7.9-25.6-12.9-51.8-15.3-78.4c-2.1-23.2-3.4-46.5-5.3-69.7
		c-1.3-16-3.3-32-6.4-47.8c-1.4-6.9-4-13.9,0.5-20.8c0.6-1-0.6-2.4-1.8-2.9c-0.7-0.3-1.7-0.3-2.4,0c-0.8,0.2-1.6,0.8-2,1.4
		c-4.3,6.4-9.4,11.9-16.1,16c-0.6,0.4-1.1,1.3-1.2,2.1c-0.2,0.8-0.2,2,0.2,2.4c0.8,0.8,2.2,1.8,3.1,1.6c3.6-0.9,6-4.7,10.7-4.8
		c2,3.6,2.8,7.7,3.3,11.8c2.4,18.9,4.9,37.8,5.8,56.9c0.8,16.1,2.4,32.1,3.6,48.2c0.3,4.2-1.2,5.6-5.2,4.5
		c-4.5-1.2-8.9-2.6-13.3-4.3c-68.7-26.9-116.6-75.4-146.2-142.3c-17.7-39.9-24.4-82-20.2-125.4C153.3,198,179.1,146.1,228.6,107.3z
		 M119.5,234.1c3.9-5.7,9.1-9.8,16.1-11.7c-2.6,6.6-8.1,10.3-13.6,14c-0.5,0.3-1.7,0.3-2.2-0.1C119.4,235.8,119.2,234.5,119.5,234.1
		z M107.5,215c9.4-4,11.8-4.4,22.2-3C116.5,217,115.5,217.1,107.5,215z M108.9,205.7c-4.3,0.5-8.3,1.9-11.8,4.3
		c-4.4,3.1-4.2,9,0.6,11.5c2.6,1.4,5.5,2,8.4,2.8c1.6,0.4,3.4,0.3,5,0.4c1.3,0.1,2.6-0.1,3.3,1.4c0.3,2.8-2,4.5-3.2,6.6
		c-1.3,2.3-2.2,4.6-2.3,7.2c-0.2,3.8,2.3,6.4,6,6.8c4.4,0.5,7.9-2.6,12-2.9c2.7,1.9,1.5,4.8,2.4,7.1c1,2.6,2.7,4.7,5.4,4.5
		c4.1-0.2,5.2,1.6,5,5.2c-0.7,11.8-1.3,23.7-0.6,35.5c3.8,66.5,29.2,123.7,74.1,172.6c0.3,0.3,0.6,0.6,0.9,0.9
		c9.5,10.1,9.7,11,3.5,22.9c-10.2,19.6-26,24.5-45.6,14.4c-7.6-3.9-14.1-9.3-20.3-15.1c-11.4-10.9-20.8-23.4-29.1-36.8
		c-20.7-33.4-35-69.4-44.7-107.4c-8.3-32.6-12.5-65.6-10-99.4c0.9-11.5,3.2-22.6,7.4-33.3c2.5-6.4,5.9-12.2,10.8-17
		c6.9-6.7,15.2-9.3,24.5-7.3c7.8,1.7,15.3,4.6,22.4,12.1C123.9,203.8,116.4,204.7,108.9,205.7z M225.8,559.7
		c-21.4,17.4-45.3,21.8-71.5,13.4c-14.7-4.7-27.8-12.5-39.7-22.1c-16-12.9-29.3-28.1-41-44.9c-19.5-28-33.8-58.6-44.6-90.9
		C14.4,371.4,6.9,326.4,7.5,280.3c0.4-30.2,4.5-59.9,14.8-88.6c4.6-12.8,10.4-25,18.1-36.3c4.5-6.7,9.7-12.9,15.6-18.3
		c21.4-19.7,46.2-25.8,74.1-17.5c16.9,5,31.6,14.2,44.8,25.8c3.2,2.8,3.5,4.1,1.2,7.6c-9.7,15-17.3,31.1-23.8,47.6
		c-1.3,3.2-3.2,3.7-5.9,1.7c-3.1-2.3-6-4.8-9-7c-6.5-4.9-13.5-8.9-21.3-11c-14.8-4-27.7-0.7-37.8,11.2c-5.9,6.9-9.6,14.9-12.3,23.5
		c-5.7,18.4-7.4,37.4-6.4,56.5C62.3,333,78,387.1,104.4,438.2c8.8,17,19.1,33,31.5,47.6c6.3,7.4,13.2,14.3,21,20.2
		c5.8,4.3,11.9,8.1,18.7,10.6c17.9,6.5,33.8,1.6,44.5-14.2c3.5-5.2,6.2-10.9,9.5-16.7c9.6,7.3,18.6,14.2,27.7,21.1
		c2.4,1.8,2.5,4.3,1.4,6.8C250.9,531.2,240.9,547.3,225.8,559.7z M352.5,847.2c-1.8,1.8-3.8,3.4-5.8,4.9c-7.6,5.4-15.5,5.9-23.7,1.2
		c-17.1-9.9-24.5-24.8-23.4-44.3c0-0.6,0.7-1.6,1.3-1.7c0.6-0.2,1.7,0.1,2.2,0.5c4.5,4.6,7.2,10.4,9.9,16.1c3.1,6.5,6,13,9,19.5
		c0.7,1.6,2.1,2.9,4,2.5c2.4-0.5,3.3-2.5,3.1-4.8c-0.1-1.7-0.7-3.3-0.8-5c-0.4-6.3-0.7-12.7-1-19c-0.1-1.3,0.1-2.5,0.2-3.8
		c0.1-1.7,0.5-3.6,2.5-3.7c1-0.1,2.4,0.9,3.1,1.7c3.5,4.3,5.6,9.4,7.9,14.4c1.4,3.1,2.7,6.2,4.4,9.1c0.5,0.8,2.2,1.4,3.2,1.2
		c1-0.2,2.4-1.5,2.4-2.4c0.1-3.4-0.3-6.7-0.6-10.7c0-0.3-0.2-1.2-0.1-2c0.6-3-2-7.6,2.3-8.5c3-0.6,4,3.8,5.2,6.3
		C363.4,831.4,362.3,837.2,352.5,847.2z M505.6,827.8c-4.1,3-8.5,5.6-13.4,7c-34.8,10-32-27-32-27.9c-0.3-5.1,0.2-10.1,3.5-15.9
		c3.3,3.3,9.1,29.3,9.5,30.7c0.1,0.5,1.3,2.6,4.6,2.8c3.1,0.2,4.7-1.9,4.7-4.7c-0.1-5.9-0.7-11.8-0.9-17.7
		c-0.1-4.5-0.8-9.2,2.5-13.5c4.4,4.8,4.9,10.9,6.8,16.4c1.5,4.4,2.9,8.8,4.5,13c0.7,1.7,2.5,2.5,4.2,1.9c1-0.4,2.3-1.7,2.4-2.7
		c0.2-1.4,0.4-2.8,0.5-4.2l-0.1-0.4c0-5.7,0.1-11.4-0.4-17.1c-0.2-2.9-0.9-5.1,2-6.7c0.8-0.4,1.9-0.5,2.7,0
		C510.1,791.1,521.5,816,505.6,827.8z M641.4,813.8c-6.4,9.2-14.2,16.7-24.9,20.9c-6.2,2.4-11.9,1.8-16.8-2.1
		c-9.2-7.3-16.2-16.1-15.6-28.9c0.3-5.9-0.5-11.9,1-17.7c0.2-0.6,1.1-1.3,1.8-1.3c0.7-0.1,1.8,0.3,2.2,0.8c3.2,4.6,4.4,10,5.9,15.3
		c1.4,4.9,2.5,9.8,3.9,14.7c0.5,1.6,2,2.8,3.9,2.5c1.9-0.3,3-1.8,3-3.5c0-4.2-0.3-8.4-0.4-12.7c-0.2-7.1-0.6-14.3,3-23.3
		c5.3,10.2,7.4,18.8,10,27.2c0.8,2.7,1.2,6,5,6.6c2.5,0.4,4.1-2.4,4.1-7.9c0.1-8-0.1-16.1,0-24.1c0-2.5,0.8-5,1.3-7.4
		c0.1-0.3,0.6-0.6,1-0.6c0.8,0,1.7,0,2.2,0.4c0.6,0.4,1.1,1.3,1.4,2c4.3,11.1,6.8,22.7,8.9,34.3
		C642.5,810.6,642.2,812.6,641.4,813.8z M734.2,829c-2.5,0.5-5,1-7.5,1c-15.9-0.3-21-4-22.9-19c-0.5-4.2-1-8.4-1.2-10.8
		c-0.2-5.3,0.4-8.6,1.7-11.7c0.3-0.6,1.1-1.4,1.7-1.4c0.7-0.1,1.7,0.4,2.2,1c2.2,2.6,3.2,5.9,4,9.1c1.6,6.5,3.2,13.1,4.8,19.7
		c0.6,2.2,1.9,4,4.3,3.6c2.5-0.4,2.9-2.7,3-4.9c0.1-3.8,0.1-7.6,0.1-11.4c0.1-7.2,1.7-14.2,4.2-20.9c0.4-1.1,1.4-2.1,2.8-1.8
		c0.7,0.2,1.3,1,1.9,1.6c0.5,0.6,1,1.4,1.2,2.2c3.5,11.8,5.5,23.8,6.2,36.1C740.8,826.5,739.4,828,734.2,829z M760.8,815
		c-2.4,2.3-5.1,4.3-7.8,6.2c-2.7,1.8-5,0.5-5.1-2.6c-0.1-4.2,0-8.4,0-12.6c1.6-10,1.4-20.1,4.8-29.7c0.4-1.1,1.3-2.3,2.8-1.8
		c0.7,0.2,1.6,0.8,1.8,1.5c3.7,11.2,4.2,23,5.4,34.7C762.9,812.1,761.9,814,760.8,815z M785.2,602.9c1.3,5.5,2.1,10.7-3.3,14.9
		c-1.8,1.4-0.8,3.5,1.9,4.6c0.8,0.3,1.7,0,2.5,0.3c2.5,1,2.8,3,1.7,5.1c-1.1,2.1-4.5,3.4-3.3,6.3c0.7,1.7,3.2,2.5,4.7,3.9
		c2.3,2,2.2,4.6,0.5,6.8c-2.2,2.9-2.3,5.2,0.7,7.5c2.3,1.7,2.4,4.4,2.6,6.9c2,37.4,2,74.6-7.4,111.2c-2.8,11.1-6.6,21.7-13.7,31.8
		c-3.4-2.8-3.2-6.3-3.8-9.3c-1.2-6.2-2.1-12.5-3.6-18.7c-1.1-4.7-3.3-8.9-8.5-10.2c-3.6-0.9-7.9,3.1-10.6,9.4
		c-0.7,1.5-0.8,3.3-1.6,4.8c-0.9,1.7-2.6,2.4-4,0.6c-3-3.8-6-7.3-11.5-6.1c-4.9,1.1-6,5.5-7.8,9.3c-0.7,1.5-1.3,3.1-1.9,4.6
		c-3.2-0.4-3.9-3.3-5.6-4.9c-5.1-5-8.3-5-14.1,0c-1.2,1-2.4,2.1-4,3.4c-1.4-3.3-2.5-6-3.6-8.7c-0.8-1.9-1.6-3.9-2.6-5.8
		c-7.6-13-21.5-13.1-29.2,0c-2.3,4-3.9,8.5-5.6,12.8c-1.4,3.5-2.5,7.2-3.6,10.6c-3.4,0.7-3.9-1.7-4.4-3.5
		c-2.4-7.2-4.3-14.6-6.9-21.8c-1.4-3.9-3.5-8.2-8.6-8.2c-5.8,0-7.4,5-9.1,9.3c-0.9,2.3-1.1,4.9-1.8,7.7c-4.3-0.5-4.5-4.6-6.6-6.9
		c-3.9-4.2-8.7-3.8-11.3,1.3c-1.1,2.2-1.6,4.8-2.4,7.2c-0.7,1.9-2.7,2.4-4,1.2c-1.8-1.8-3.3-3.9-5.3-5.5c-3.5-2.9-7.5-2.2-9.7,1.6
		c-0.9,1.4-1.3,3.1-2,4.6c-0.5,1.1-1.2,2.2-2,3.7c-3.4-2.3-4.4-6.1-6.4-9c-11.5-16.7-24.9-16.9-36.3-0.3c-2.8,4.2-5.2,8.8-7.1,13.5
		c-1.6,4.1-4.6,4.4-8,4.9c-2,0.3-3.4-0.5-4.1-2c-1.4-3.1-2.3-6.4-3.7-9.5c-0.8-1.9-1.9-3.8-3.2-5.4c-2.1-2.6-7.2-2.3-8.8,0.7
		c-1.6,2.9-2.6,6.2-4,9.5c-3.3-0.6-3.7-3.9-5.5-5.9c-4.4-5.1-10.8-4.2-13.2,1.9c-0.6,1.6-1.2,3.1-1.8,4.5c-3.3-0.2-4.2-3.1-6.2-4.5
		c-4.3-3-8.1-2.4-10.6,2.1c-1.2,2.2-1.8,4.7-2.7,7c-1.1,3.1-0.8,6.7-3.6,9.3c-2.6-3-3.3-6.8-4.7-10.3c-3.3-8.7-6.9-17.3-12.2-25.1
		c-8.5-12.3-17.7-14.1-30.4-6.2c-6.6,4.1-11.4,10-15.3,16.7c-5.1,8.9-8.7,18.3-12.6,27.7c-2.2,5.4-3.3,11.4-7.9,15.6
		c-3.5-1.3-3.4-4.7-4.9-7c-1.7-2.4-3.1-5.1-5.1-7.3c-5.2-5.7-8.5-5.5-14.6,0.5c-0.6,0.6-1.3,1.1-2.1,1.8c-2.2-1.9-4.2-4.2-6.6-5.8
		c-5.3-3.5-10.9-1.7-13.5,4.2c-0.7,1.5-0.8,3.3-1.2,4.9c-0.3,1.1-0.3,2.8-2,2.4c-1.1-0.3-2.2-1.2-2.9-2.2c-1.8-2.4-3.1-5-5-7.4
		c-1.8-2.3-3.8-4.6-6.1-6.4c-4.8-3.7-10.3-1.5-11.6,4.3c-0.8,3.6,0.6,7.5-1.4,11.3c-4.2-1.7-4.9-5.8-6.3-9.1
		c-8.3-19.1-14.3-39-17.9-59.4c-2.4-13.7-3.4-27.7-5.1-41.6c-0.6-5.2,0.3-9.1,6.3-10.4c2.4-0.5,4.9-1.7,6-4.3c0.3-0.7,0.3-1.7,0-2.4
		c-0.3-0.7-1.2-1.6-1.8-1.5c-2,0.3-4.1,0.8-6.1,1.4c-2.2,0.6-4.2,0.7-5.1-1.9c-1.2-3.5-0.3-6.4,2.4-7.6c2.7-1.2,5.5-2,8.2-3.2
		c1.6-0.7,2.6-2.2,2.2-4.1c-0.5-2.1-2.2-2.4-3.9-2.2c-10.5,1.5-10.6,1.6-10.9-8c-1.1-36.9-0.4-73.7,4-110.4
		c1.2-10.1,1.3-20.3,3.7-30.2c0.6-2.4,2.5-3.4,4.7-2.5c0.4,0.2,0.8,0.3,1.2,0.5c17.7,10.2,36.3,18.3,55.9,24.1
		c4,1.2,5.2,3.8,5.8,7.3c1.3,7.9,2.5,15.9,3.9,23.8c3.1,17.1,6.9,34.1,13.1,50.3c17.8,46,49.7,77.1,97.6,90.8
		c15.6,4.5,31.7,6.6,47.6,1.2c23.3-7.8,42.2-21.4,53.7-43.9c11.5-22.4,15.7-46.5,14.4-71.4c-1.5-27.6-20-46.2-47.6-49
		c-10.7-1.1-21.2-0.4-31.2,3.8c-1.9,0.8-3.9,1.4-5.8,2c-2.4-6-3.5-16.9-2.2-21c0.4-1.1,1.2-2.3,2.2-2.9c2.1-1.3,4.5-2.3,6.8-3.5
		c41.1-20.7,72-51.6,93.5-92.2c1.9-3.7,3-7.9,6.8-10.9c4.5,1.2,7.8,4.7,11.5,7.3c17.5,12.2,36,22.3,56.4,28.8
		c25.2,8.1,50.6,9.9,76.4,3.1c0.4-0.1,0.8-0.3,1.2-0.4c5.6-1.3,6-1.3,8.8,4.2c2.9,5.6,5.8,11.3,8.1,17.2
		C764.2,523.5,776,562.8,785.2,602.9z M848.4,437.2c-4.5,8.1-10.1,15.5-17.3,21.5c-3.9,3.3-8.1,6.2-13.5,6.5
		c-1.2,0.1-2.7-0.1-3.5-0.8c-1-0.9-0.3-2.3,0.5-3.3c1.8-2.4,3.7-4.6,5.4-7.1c0.8-1.1,0.8-2.6-0.5-3.3c-1-0.5-2.5-0.8-3.5-0.5
		c-3.5,1.2-4.8,5.9-9.1,6.3c-1.4-12.7,2.8-23.9,13.5-35.6c0.5,1.2,1,2.2,1.4,3.3c2.2,5.8,3.7,6.4,9,3.3c1.4-0.8,2.8-1.9,4.2-2.8
		c2.7,3.6-0.5,6.6-0.4,9.8c0.1,3.6,2.1,5.5,5.7,4.6c2.5-0.6,4.7-2.6,7.5-2.1c0.3,0,0.5,0,0.8,0.1L848.4,437.2l0.2,0L848.4,437.2z"/>
	<path d="M240.1,364c3.6,0.2,7,1.3,9.9-1.4c1.1-1.1,1.5-3.8,0.2-4.3c-3.5-1.4-7.1-2.6-10.7-4c-1.6-0.6-3.3-1-4.7-1.9
		c-1.4-0.9-2.5-2.5-1.3-4.3c0.6-0.9,2.1-1.9,3-1.7c3.7,0.8,7.4,1.8,11,3c2.8,0.9,5.5,2.2,8.3,3.2c2.6,1,4.8,0.3,7-1.5
		c2.5-2.2,2.6-4.6-0.2-5.8c-5.8-2.6-11.7-5-17.5-7.5c-2-0.8-4-1.6-5-3.6c-0.3-0.7-0.5-1.7-0.2-2.4c0.2-0.6,1.1-1.3,1.8-1.5
		c2.6-0.8,5,0.1,7.4,1c5.5,2.2,11.1,4.2,16.4,6.9c6.3,3.2,11.7,3.3,17.8-0.9c4.8-3.3,10.5-5.5,15.8-8.1c1.5-0.7,3.2-1.3,4.8-1.3
		c1,0,2.6,0.8,3,1.7c0.4,0.9,0.2,2.8-0.5,3.4c-1.5,1.4-3.4,2.5-5.3,3.4c-20.3,9.3-38.3,21.6-52.8,38.8c-1.5,1.8-4.2,2.6-5.2,0.2
		c-2-4.4-5.4-4.7-9.3-4.9c-1.2-0.1-2.5-0.6-3.5-1.2c-0.6-0.4-1-1.4-1-2.1c0-0.7,0.6-1.6,1.2-2.1C233.6,362.9,237.1,364.2,240.1,364z
		"/>
	<path d="M450.9,307c2.6,0.4,7.8,0.4,12.6,1.9c6.3,1.9,10.5-0.1,14.4-4.7c3.6-4.1,7.6-8,11.5-11.8c1.2-1.1,2.7-2.2,4.2-2.6
		c0.9-0.3,2.3,0.6,3.3,1.3c0.4,0.3,0.5,1.7,0.2,2.3c-1.1,1.8-2.3,3.5-3.7,5.1c-3.2,3.4-6.5,6.7-9.7,10.1c-1.5,1.6-2.8,3.5-0.6,5.4
		c1.7,1.5,3.9,1.7,5.9,1c1.1-0.4,2.1-1.4,3-2.3c2.5-2.3,4.9-4.7,7.5-6.8c2.2-1.7,4.2-4.8,7.6-2.4c1.8,1.2,0.7,3.8-2.9,7.1
		c-2.2,2-4.4,3.9-6.5,6c-0.8,0.8-1.7,2.1-0.3,3.2c1,0.8,2.1,1.7,3.2,1.8c1.6,0,3.2-0.6,4.8-1.2c2.8-0.9,5.5-2.2,8.3-2.9
		c1-0.3,2.8,0.4,3.3,1.2c0.5,0.7,0,2.7-0.7,3.3c-3.3,2.5-7.3,4.1-7.9,9.1c-0.1,1-2,1.6-3.2,1c-1.9-0.9-3.6-2.1-5.5-3.1
		c-14.8-7.7-30.2-13-46.9-14.6c-1.7-0.2-3.4-0.3-5-0.6c-4.8-0.9-7-2.7-6.1-4.8C442.8,306.9,443.8,306.6,450.9,307z"/>
	<path d="M423.4,403.9c0.3,1.4-0.2,2.6-1.4,3.2c-1.1,0.6-2.3,1-3.5,1.1c-15.5,0.6-29.6,6.1-43.2,12.9c-1.9,0.9-3.7,2.2-5.7,2.7
		c-0.9,0.3-2.6-0.5-3.1-1.3c-0.5-0.9-0.1-2.4,0.3-3.5c0.2-0.7,1-1.4,1.7-1.8c14.3-8.4,29.5-14.4,46.1-16.1c2.4-0.2,4.9,0.6,7.4,1.1
		C422.5,402.3,422.9,403.3,423.4,403.9z"/>
	<path d="M409.7,429.2c-0.5,0.7-0.9,2.2-1.8,2.7c-6.8,3.3-13.7,6.5-20.6,9.5c-0.5,0.2-1.7-0.4-2.2-0.9c-0.9-1-1.1-2.2-0.4-3.5
		c0.2-0.4,0.4-0.8,0.7-1c6.4-5.1,13.7-8.2,21.7-9.6C408.5,426.2,409.5,427.3,409.7,429.2z"/>
</g>
</svg>
