<?xml version="1.0" encoding="UTF-8"?>
<!-- Generator: visioncortex VTracer 0.6.3 -->
<svg version="1.1" xmlns="http://www.w3.org/2000/svg" width="1280" height="1280">
<path d="M0 0 C2.69 2.18 3.87 3.85 4.27 7.32 C4.33 14.42 3.13 20.46 1 27.22 C0.69 28.25 0.37 29.29 0.05 30.36 C-3.38 41.5 -7.19 52.51 -11.06 63.5 C-11.81 65.64 -12.56 67.78 -13.3 69.91 C-15.53 76.28 -17.76 82.64 -20 89 C-22.44 95.94 -24.88 102.87 -27.31 109.81 C-27.6 110.62 -27.88 111.43 -28.17 112.27 C-34.09 129.12 -39.77 146.05 -45.35 163.02 C-46.34 166.05 -47.35 169.07 -48.36 172.1 C-89.78 294.83 -89.78 294.83 -98.88 414.75 C-94.88 421.67 -88.47 424.47 -81.5 427.75 C-72.89 431.92 -64.89 436.6 -57 442 C-56.9 441.36 -56.81 440.73 -56.71 440.07 C-45.89 393.04 -12.3 340.74 17 303 C17.86 301.87 18.72 300.74 19.58 299.61 C43.11 268.91 43.11 268.91 59 265 C63.97 264.7 68.31 265.89 72.27 269.05 C88.18 286.94 85.8 317.98 85 340 C84.01 356.34 81.51 372.27 77 388 C76.78 388.77 76.56 389.54 76.33 390.34 C71.23 407.75 63.57 424.23 53 439 C52.6 439.56 52.2 440.12 51.79 440.7 C37.5 460.44 19.73 475.18 -1.19 487.39 C-1.92 487.82 -2.64 488.24 -3.39 488.69 C-4.37 489.25 -4.37 489.25 -5.36 489.82 C-7.3 491.07 -7.3 491.07 -9 494 C-10.1 500.77 -8.06 506.51 -5.69 512.75 C9.05 554.71 -1.18 602.63 -19 642 C-19.38 642.86 -19.76 643.72 -20.15 644.61 C-33.68 675.13 -54.13 699.19 -76.98 723.12 C-94.32 741.27 -94.32 741.27 -102 764 C-100.19 771.75 -96.23 778.6 -92.5 785.56 C-80.97 807.43 -71.38 829.74 -63 853 C-62.42 854.6 -62.42 854.6 -61.82 856.24 C-55.66 873.34 -51.02 890.75 -46.54 908.35 C-46.31 909.25 -46.08 910.14 -45.85 911.07 C-45.42 912.77 -44.99 914.47 -44.56 916.17 C-43.88 919.89 -43.88 919.89 -42 923 C-41.62 922.13 -41.24 921.26 -40.86 920.36 C-36.53 911 -31.43 904.12 -24 897 C-23.25 896.27 -22.51 895.54 -21.74 894.79 C-1.84 877.19 26.5 872.52 52 873 C53.77 881.07 54.35 888.81 54.31 897.06 C54.31 898.24 54.3 899.43 54.3 900.65 C53.98 924.63 47.89 947.19 31 965 C27.44 968.16 23.75 971.08 20 974 C19.34 974.66 18.68 975.32 18 976 C18.93 976.28 19.85 976.55 20.81 976.84 C22.01 977.2 23.2 977.56 24.44 977.94 C26.23 978.48 26.23 978.48 28.06 979.03 C31 980 31 980 32 981 C33.2 992.25 30.46 1003.1 28 1014 C34.35 1012.49 40.6 1010.84 46.81 1008.81 C55.49 1006.14 55.49 1006.14 60 1007 C63.51 1010.64 65.08 1014.31 66.69 1019.06 C67.31 1020.87 67.31 1020.87 67.95 1022.72 C74.94 1044.52 68.78 1069.98 58.69 1089.69 C46.24 1111.96 24.22 1130.2 -0.39 1137.35 C-16.95 1141.76 -33.79 1143.07 -49.96 1136.49 C-52.72 1135.83 -54.33 1136.05 -57 1137 C-58.94 1139.1 -58.94 1139.1 -60.5 1141.75 C-65.8 1149.79 -71.6 1155.27 -81 1158 C-90.02 1159.42 -98.78 1159.89 -106.77 1154.89 C-110.37 1152.08 -113.18 1148.56 -116 1145 C-116.66 1145.68 -117.32 1146.36 -118 1147.06 C-120.27 1149.32 -122.58 1151.52 -124.94 1153.69 C-125.57 1154.27 -126.19 1154.85 -126.84 1155.45 C-133.17 1160 -140.55 1159.55 -148 1159 C-157.4 1157.43 -164.69 1152.47 -170.62 1145.09 C-177.56 1134.56 -178.81 1122.79 -179.31 1110.5 C-179.59 1106.22 -179.71 1104.43 -182.12 1100.81 C-193.14 1093.87 -205.78 1093.71 -218.52 1093.59 C-219.74 1093.57 -220.97 1093.55 -222.23 1093.53 C-226.09 1093.47 -229.95 1093.42 -233.81 1093.38 C-236.45 1093.34 -239.09 1093.3 -241.73 1093.26 C-248.15 1093.16 -254.58 1093.08 -261 1093 C-261 1093.98 -261 1093.98 -260.99 1094.98 C-260.98 1097.97 -260.97 1100.97 -260.96 1103.96 C-260.96 1104.99 -260.96 1106.02 -260.95 1107.07 C-260.92 1122.36 -261.87 1136.34 -272.11 1148.51 C-279.62 1155.72 -288.98 1159.07 -299.31 1159.25 C-306.34 1159.11 -310.58 1158.37 -315.71 1153.35 C-318.24 1150.65 -320.64 1147.85 -323 1145 C-327.3 1148.4 -327.3 1148.4 -330.81 1152.56 C-334.94 1157.16 -339.48 1158.73 -345.57 1159.39 C-353.54 1159.62 -359.99 1158.88 -367 1155 C-367.63 1154.66 -368.27 1154.32 -368.92 1153.97 C-374.64 1150.42 -379.75 1144.16 -381.7 1137.69 C-381.8 1137.13 -381.9 1136.58 -382 1136 C-387.52 1135.81 -391.63 1136.31 -396.94 1138 C-412.64 1142.39 -430.77 1141.73 -446 1136 C-447.19 1135.56 -448.37 1135.13 -449.59 1134.68 C-463.2 1129.27 -473.59 1121.01 -484 1111 C-484.97 1110.14 -484.97 1110.14 -485.96 1109.27 C-502.28 1094.4 -511.19 1070.69 -512.45 1049.06 C-512.9 1034.55 -511.6 1020.25 -503 1008 C-502.34 1007.34 -501.68 1006.68 -501 1006 C-493.67 1006.43 -486.3 1009.35 -479.38 1011.62 C-477.87 1012.11 -477.87 1012.11 -476.33 1012.61 C-473.89 1013.4 -471.44 1014.2 -469 1015 C-469.28 1013.93 -469.55 1012.85 -469.84 1011.75 C-470.21 1010.31 -470.57 1008.87 -470.94 1007.44 C-471.21 1006.38 -471.21 1006.38 -471.49 1005.3 C-475.62 988.99 -475.62 988.99 -473.32 981.9 C-471.5 979.28 -469.75 978.82 -466.75 977.81 C-465.82 977.49 -464.88 977.17 -463.92 976.83 C-445.86 971.69 -427.34 975.21 -410 981 C-409.68 979.12 -409.68 979.12 -409.35 977.2 C-397.36 907.73 -380.2 839.41 -345.5 777.48 C-339.99 768.3 -339.99 768.3 -340 758 C-347.3 742.67 -358.96 729.8 -370.52 717.57 C-378 709.64 -385.21 701.55 -392 693 C-393.15 691.59 -393.15 691.59 -394.32 690.16 C-428.2 647.77 -446.57 592.65 -441.68 538.45 C-440.14 525.43 -437.92 511.84 -432 500 C-431.16 496.67 -431.16 496.67 -432 493 C-434.64 490.42 -437.78 488.78 -441 487 C-453.5 479.92 -464.55 471.88 -475 462 C-475.79 461.28 -476.58 460.55 -477.39 459.81 C-511.35 427.49 -525.6 379.38 -527.29 333.64 C-527.73 313.19 -528.2 285.4 -514 269 C-510.71 265.86 -508.25 265.57 -503.75 265.56 C-491.22 265.95 -483.83 273.75 -475.61 282.47 C-439.14 322.58 -410.53 374.67 -390.38 424.56 C-389.95 425.62 -389.52 426.67 -389.08 427.75 C-388.69 428.74 -388.3 429.73 -387.9 430.75 C-387.55 431.62 -387.21 432.49 -386.86 433.39 C-385.92 436.24 -385.42 439.03 -385 442 C-383.92 441.32 -382.84 440.64 -381.73 439.95 C-380.22 439 -378.7 438.06 -377.19 437.12 C-376.39 436.63 -375.59 436.13 -374.77 435.62 C-368.07 431.53 -361.2 427.88 -354.11 424.53 C-349.26 422.12 -346.82 420.36 -345 415 C-327.64 353.89 -383.22 199.97 -419.79 93.89 C-424.1 81.61 -428.35 69.31 -432.56 57 C-433.26 54.95 -433.96 52.9 -434.66 50.85 C-445.29 19.85 -445.29 19.85 -446 10.38 C-446.1 9.25 -446.21 8.12 -446.31 6.96 C-446 4 -446 4 -444.2 1.64 C-442 0 -442 0 -438.81 -0.56 C-429.74 0.78 -423.44 6.9 -417.25 13.25 C-416.47 14.04 -415.69 14.83 -414.89 15.65 C-407.52 23.26 -401.15 31.4 -395 40 C-393.99 41.39 -392.97 42.78 -391.96 44.18 C-341.29 114.25 -306.99 196.66 -262.54 362.56 C-262.33 363.66 -262.12 364.76 -261.9 365.89 C-261.53 367.82 -261.18 369.74 -260.85 371.68 C-259.31 379.78 -255.72 387.03 -249.31 392.38 C-237.81 400.01 -223.93 401.22 -210.5 399.31 C-200.51 397.24 -192.44 393.1 -186.34 384.72 C-181.04 375.5 -179.71 365.03 -177.73 354.72 C-161.54 272.61 -134.01 191.5 -23 12 C-22.3 11.23 -21.61 10.46 -20.89 9.66 C-15.49 3.86 -8.35 -2.63 0 0 Z M-439 7 C-437.16 23 -432.17 37.83 -427 53 C-426.02 52.52 -425.04 52.04 -424.04 51.54 C-417.09 48.17 -410.69 45.21 -403 44 C-403.49 39.64 -406.34 36.91 -409.12 33.75 C-409.88 32.88 -409.88 32.88 -410.64 32 C-411.64 30.85 -412.64 29.7 -413.64 28.55 C-414.76 27.27 -415.87 25.98 -416.97 24.69 C-425.41 14.57 -425.41 14.57 -436 7 C-436.99 7 -437.98 7 -439 7 Z M-19.94 18.62 C-25.01 23.82 -29.37 29.65 -33.77 35.41 C-34.92 36.9 -36.12 38.35 -37.33 39.8 C-39.2 41.8 -39.2 41.8 -39 44 C-38.27 44.15 -37.55 44.29 -36.8 44.45 C-28.86 46.22 -22.12 49.1 -15 53 C-13.72 49.25 -12.45 45.5 -11.19 41.75 C-10.83 40.71 -10.47 39.66 -10.11 38.59 C-6.58 28.1 -3.33 18.16 -4 7 C-9.55 7 -16.05 14.91 -19.94 18.62 Z M-408.94 49.19 C-409.64 49.41 -410.34 49.63 -411.07 49.86 C-415 51.15 -418.68 52.47 -422 55 C-424.63 70.24 -414 89.95 -409 104 C-405.8 102.45 -402.99 100.64 -400.06 98.62 C-391.15 92.92 -381.51 90.47 -371 90 C-376.21 80.77 -381.86 71.89 -387.67 63.03 C-388.91 61.14 -390.13 59.23 -391.34 57.32 C-392.03 56.24 -392.73 55.17 -393.44 54.06 C-394.03 53.13 -394.63 52.19 -395.25 51.22 C-399.49 45.85 -402.94 47.14 -408.94 49.19 Z M-57.63 67.84 C-65.51 78.39 -65.51 78.39 -70 90 C-69.11 90.1 -68.21 90.2 -67.29 90.3 C-56.27 91.66 -48 94.18 -39.01 100.73 C-36.96 102.02 -35.34 102.48 -33 103 C-31.61 99.16 -30.22 95.32 -28.84 91.48 C-28.37 90.17 -27.9 88.87 -27.42 87.57 C-21.52 72.21 -21.52 72.21 -21 56 C-24.92 50.95 -32.01 49.61 -38.06 48.38 C-47.14 50.31 -52.81 60.56 -57.63 67.84 Z M-400 105 C-403.04 109.74 -402.68 114.57 -402 120 C-400.42 126.78 -398.19 133.39 -396 140 C-395.74 140.78 -395.49 141.56 -395.23 142.37 C-393.85 146.59 -392.44 150.8 -391 155 C-388.58 153.86 -386.35 152.6 -384.07 151.2 C-371.68 143.62 -359.63 140.49 -345 140 C-346.27 135.92 -347.79 132.2 -349.76 128.4 C-350.3 127.36 -350.84 126.32 -351.39 125.24 C-351.96 124.15 -352.54 123.06 -353.12 121.94 C-353.71 120.82 -354.29 119.71 -354.89 118.56 C-361.29 105.5 -361.29 105.5 -370 94 C-379.69 94 -392.66 98.72 -400 105 Z M-77.16 100.57 C-78.38 102.47 -79.51 104.41 -80.62 106.38 C-81.04 107.1 -81.46 107.83 -81.89 108.57 C-85.51 114.92 -88.84 121.41 -92.12 127.94 C-92.85 129.39 -92.85 129.39 -93.6 130.86 C-96.04 135.23 -96.04 135.23 -97 140 C-95.84 140.1 -94.68 140.2 -93.48 140.3 C-78.12 141.72 -65.16 145.05 -53 155 C-52.34 155 -51.68 155 -51 155 C-49.59 150.82 -48.18 146.64 -46.78 142.46 C-46.31 141.04 -45.83 139.62 -45.35 138.19 C-44.66 136.15 -43.97 134.1 -43.29 132.05 C-42.87 130.82 -42.46 129.59 -42.03 128.32 C-40.53 123.49 -39.81 119.06 -39.69 114 C-39.65 112.99 -39.61 111.98 -39.57 110.94 C-40.13 107.1 -41.22 105.68 -44 103 C-46.41 101.52 -48.91 100.37 -51.5 99.25 C-52.16 98.95 -52.83 98.64 -53.51 98.33 C-62.13 94.46 -70.76 91.89 -77.16 100.57 Z M-381.25 156.69 C-385.2 161.91 -384.79 167.68 -384 174 C-381.75 185.17 -378.31 196.11 -375 207 C-370.72 207 -370.17 206.71 -366.94 204.31 C-353.15 194.74 -338.3 192.52 -322 191 C-322.64 187.02 -323.88 183.67 -325.51 179.99 C-326.02 178.84 -326.53 177.69 -327.06 176.5 C-327.6 175.3 -328.13 174.11 -328.69 172.88 C-329.21 171.7 -329.72 170.53 -330.26 169.32 C-335.38 155.96 -335.38 155.96 -344 145 C-354.94 145 -373.21 148.92 -381.25 156.69 Z M-103 153 C-109.19 162.65 -120 179.56 -120 191 C-118.9 191.09 -117.8 191.17 -116.66 191.26 C-100.32 192.71 -84.99 195.71 -72.06 206.44 C-71.04 207.21 -71.04 207.21 -70 208 C-69.01 207.67 -68.02 207.34 -67 207 C-65.84 204.39 -65.84 204.39 -64.99 201.17 C-64.47 199.38 -64.47 199.38 -63.94 197.56 C-63.41 195.67 -63.41 195.67 -62.88 193.75 C-62.52 192.51 -62.16 191.27 -61.79 189.99 C-59.65 182.54 -57.85 175.78 -57.75 168 C-57.71 166.21 -57.71 166.21 -57.67 164.38 C-58.04 160.6 -58.6 158.91 -61 156 C-69.24 150.56 -78.29 147.54 -88 146 C-89.26 145.79 -90.52 145.59 -91.81 145.38 C-96.97 146.39 -99.71 148.99 -103 153 Z M-123 201 C-124.41 203.18 -125.57 205.18 -126.69 207.5 C-127.01 208.16 -127.34 208.83 -127.68 209.51 C-131.11 216.75 -133.81 224.28 -136.5 231.81 C-136.73 232.44 -136.95 233.07 -137.18 233.72 C-139.93 240.7 -139.93 240.7 -141 248 C-140.32 247.98 -139.64 247.96 -138.94 247.94 C-118.04 247.38 -100.06 249.69 -82 261 C-79.03 252.37 -76.84 243.57 -74.75 234.69 C-74.48 233.57 -74.21 232.45 -73.93 231.29 C-71.92 222.72 -71.92 222.72 -72 214 C-74.74 209.93 -79.03 208.35 -83.44 206.5 C-84.15 206.2 -84.86 205.9 -85.59 205.59 C-104.93 196.64 -104.93 196.64 -123 201 Z M-364 210 C-368.6 215.39 -368.64 220.96 -368.24 227.82 C-367 239.06 -363.31 250.23 -360 261 C-359.5 260.75 -359.01 260.5 -358.49 260.24 C-338.64 250.27 -323.27 247.31 -301 248 C-302.48 239.94 -305.19 232.39 -308 224.72 C-308.81 222.51 -309.6 220.3 -310.39 218.08 C-313.05 210.73 -315.81 203.64 -320 197 C-334.35 196.58 -352.41 201.43 -364 210 Z M-351.34 264.97 C-355.76 270.37 -354.69 279.03 -354.35 285.67 C-353.1 297.58 -349.83 309.38 -347 321 C-343.36 319.57 -339.96 317.96 -336.5 316.12 C-326.31 310.98 -315.74 307.85 -304.29 307.9 C-303.05 307.91 -301.8 307.91 -300.52 307.91 C-299.23 307.92 -297.95 307.93 -296.62 307.94 C-295.32 307.94 -294.01 307.95 -292.66 307.95 C-289.44 307.96 -286.22 307.98 -283 308 C-283.64 302.59 -284.84 297.55 -286.36 292.32 C-286.71 291.1 -286.71 291.1 -287.07 289.86 C-287.56 288.15 -288.06 286.44 -288.56 284.73 C-289.31 282.14 -290.05 279.55 -290.79 276.96 C-291.27 275.29 -291.75 273.62 -292.24 271.95 C-292.56 270.8 -292.56 270.8 -292.9 269.63 C-294.49 264.2 -296.59 259.12 -299 254 C-314.15 253.08 -339.19 254.75 -351.34 264.97 Z M-140.81 255.75 C-146.76 264.58 -150.31 274.16 -153.24 284.34 C-153.82 286.33 -154.41 288.32 -155.01 290.31 C-156.74 296.19 -158.24 301.89 -159 308 C-158.01 307.84 -157.03 307.68 -156.01 307.51 C-135.99 304.67 -115.72 308.73 -98.82 319.9 C-97.07 321.17 -97.07 321.17 -95 321 C-92.36 310.7 -89.88 300.37 -87.65 289.97 C-87.34 288.51 -87.02 287.05 -86.7 285.6 C-86.22 283.45 -85.75 281.3 -85.29 279.14 C-84.88 277.26 -84.88 277.26 -84.47 275.34 C-84.02 272.14 -83.99 270.06 -85 267 C-97.75 257.25 -120.15 253.17 -135.7 253.64 C-138.22 253.88 -138.22 253.88 -140.81 255.75 Z M-515 287 C-518.66 299.05 -519.37 311.28 -519.31 323.81 C-519.31 324.48 -519.31 325.14 -519.31 325.82 C-519.06 373.68 -505.62 419.16 -472 454 C-471.21 454.85 -470.42 455.7 -469.61 456.58 C-454.36 472.61 -434.64 483.51 -414 491 C-404.26 450.76 -421.01 410.46 -441.43 376.38 C-443.57 372.89 -445.77 369.43 -448 366 C-448.67 364.95 -449.35 363.91 -450.04 362.83 C-477.41 320.72 -477.41 320.72 -514 287 C-514.33 287 -514.66 287 -515 287 Z M72 287 C59.93 297.33 48.79 308.49 39 321 C38.01 322.2 37.02 323.4 36.03 324.6 C4.06 363.17 -28.63 412.4 -31 464 C-31.05 464.87 -31.11 465.73 -31.16 466.62 C-31.45 474.96 -29.71 482.89 -28 491 C-5.84 484.11 12.43 470.98 29 455 C29.72 454.34 30.43 453.67 31.17 452.99 C63.37 422.32 76.97 374.6 78.17 331.38 C78.18 329.92 78.19 328.46 78.19 327 C78.19 325.81 78.19 325.81 78.19 324.6 C78.12 318.49 77.72 312.45 77.12 306.38 C77.05 305.57 76.97 304.77 76.89 303.94 C76.02 295.85 76.02 295.85 74 288 C73.01 287.5 73.01 287.5 72 287 Z M-339.85 325.33 C-346.64 335.16 -341.95 351.85 -339.97 362.75 C-339.02 367.84 -338.03 372.92 -337 378 C-333.35 376.61 -329.95 374.96 -326.5 373.12 C-314.26 366.94 -302.63 364.83 -289.06 364.88 C-288 364.87 -286.94 364.87 -285.85 364.86 C-280.46 364.87 -275.31 365.05 -270 366 C-270.51 357.77 -271.92 349.96 -273.81 341.94 C-274.06 340.83 -274.31 339.72 -274.56 338.58 C-277.19 325.27 -277.19 325.27 -284.96 314.78 C-299.11 309.39 -327.79 316.64 -339.85 325.33 Z M-160.7 317.1 C-166.15 325.05 -167.12 336.69 -168.87 346.06 C-169.26 348.16 -169.66 350.26 -170.06 352.35 C-171.46 359.13 -171.46 359.13 -172 366 C-170.91 365.84 -169.81 365.68 -168.69 365.52 C-146.02 362.72 -125.76 366.4 -106 378 C-105.34 378 -104.68 378 -104 378 C-103.27 373.56 -102.56 369.12 -101.86 364.67 C-101.63 363.16 -101.38 361.66 -101.14 360.16 C-97.57 342.09 -97.57 342.09 -102 325 C-108.9 319.56 -118.6 317.91 -127 316 C-128 315.77 -129 315.54 -130.03 315.31 C-135.95 314.15 -141.86 313.73 -147.88 313.56 C-148.59 313.53 -149.3 313.49 -150.04 313.46 C-154.3 313.42 -157.56 314.08 -160.7 317.1 Z M-174 373 C-174.79 375.43 -174.79 375.43 -175.17 378.3 C-175.34 379.36 -175.51 380.42 -175.69 381.51 C-175.85 382.62 -176.02 383.73 -176.19 384.88 C-176.36 385.98 -176.54 387.08 -176.72 388.21 C-177.41 392.54 -178 396.61 -178 401 C-176.43 401.26 -176.43 401.26 -174.83 401.53 C-154.67 404.94 -134.82 408.52 -115.22 414.47 C-112.73 415.16 -112.73 415.16 -109 415 C-105.57 397.93 -105.57 397.93 -110 382 C-112.47 380.64 -114.49 379.74 -117.12 378.88 C-117.82 378.63 -118.52 378.38 -119.25 378.13 C-133 373.47 -146.79 370.82 -161.31 370.81 C-162.21 370.8 -163.1 370.79 -164.02 370.78 C-165.3 370.77 -165.3 370.77 -166.61 370.77 C-167.77 370.76 -167.77 370.76 -168.95 370.76 C-171.31 370.88 -171.31 370.88 -174 373 Z M-333 383 C-337.9 392.25 -334.51 405.11 -333 415 C-326.66 414.38 -320.82 412.96 -314.69 411.25 C-297.7 406.66 -280.35 403.86 -263 401 C-263.4 398.16 -263.82 395.33 -264.25 392.5 C-264.41 391.31 -264.41 391.31 -264.58 390.1 C-265.57 383.75 -267.29 377.71 -271.94 373.06 C-285.83 365.91 -321.08 373.22 -333 383 Z M-509 275 C-509.66 275.66 -510.32 276.32 -511 277 C-510.69 280.43 -509.34 281.98 -506.82 284.21 C-506.17 284.81 -505.51 285.41 -504.83 286.02 C-504.12 286.66 -503.42 287.29 -502.69 287.94 C-491.83 297.87 -482.14 308.47 -473 320 C-471.99 321.25 -470.98 322.49 -469.96 323.74 C-454.41 343.1 -440.68 364.09 -429 386 C-428.52 386.9 -428.04 387.8 -427.54 388.73 C-411.9 418.35 -399.44 452.63 -406.56 486.55 C-407.02 489.09 -407.03 491.43 -407 494 C-406.38 494.14 -405.77 494.28 -405.14 494.43 C-402.34 495.07 -399.54 495.72 -396.75 496.38 C-395.78 496.6 -394.81 496.82 -393.82 497.05 C-392.88 497.27 -391.95 497.49 -390.98 497.71 C-390.13 497.91 -389.27 498.11 -388.38 498.31 C-386.04 498.99 -384.08 499.74 -382 501 C-381.25 503.12 -381.25 503.12 -381 505 C-390.61 504.96 -399.09 502.82 -408.22 500 C-413.43 498.45 -417.65 497.24 -423 499 C-425.98 502.52 -427.16 506.94 -428.5 511.31 C-428.71 512.01 -428.93 512.71 -429.15 513.42 C-444.14 563.78 -429.63 615.09 -405.88 660.12 C-395.95 678.4 -382.54 693.87 -368.31 708.9 C-351.89 726.26 -339.5 744.1 -328 765 C-324.1 762.48 -320.58 759.86 -317.06 756.81 C-310.48 751.39 -303.44 747.12 -296 743 C-295.37 742.65 -294.75 742.3 -294.11 741.94 C-259.67 722.95 -217.26 718.48 -179.32 728.7 C-156.81 735.25 -136.15 746.38 -118.52 761.74 C-116.81 763.2 -116.81 763.2 -114 765 C-113.59 764.22 -113.59 764.22 -113.18 763.43 C-101.76 741.77 -88.23 722.68 -70.63 705.61 C-36.43 672.36 -9.02 620.11 -6.85 571.75 C-6.67 545.34 -6.76 520.61 -20 497 C-25.96 497.65 -31.4 499.24 -37.12 501 C-45.17 503.4 -52.56 504.97 -61 505 C-60.58 502.67 -60.58 502.67 -59 500 C-56.01 498.62 -52.89 497.96 -49.69 497.25 C-48.83 497.04 -47.98 496.83 -47.1 496.62 C-43.08 495.66 -39.06 494.77 -35 494 C-35.15 492.52 -35.29 491.04 -35.44 489.56 C-35.53 488.64 -35.62 487.72 -35.71 486.77 C-35.88 485.13 -36.07 483.49 -36.29 481.86 C-40.81 448.03 -28.62 415.42 -13 386 C-12.47 384.99 -12.47 384.99 -11.93 383.95 C-2.36 365.64 9.23 348.24 22 332 C22.85 330.89 23.71 329.78 24.56 328.67 C35.49 314.53 46.97 299.72 60.46 287.92 C61.02 287.43 61.58 286.93 62.16 286.43 C63.24 285.5 64.33 284.58 65.43 283.69 C67.09 282.33 67.09 282.33 69 280 C69.13 277.3 69.13 277.3 68 275 C65.35 272.73 63.75 272.02 60.25 271.94 C46.34 276.49 35.63 290.81 27 302 C26.22 303 26.22 303 25.43 304.01 C9.5 324.47 -4.67 346.19 -17 369 C-17.55 370.01 -18.09 371.02 -18.66 372.06 C-33.15 399.02 -44.87 426.74 -55.62 455.33 C-57.41 460.08 -59.2 464.84 -61.06 469.56 C-61.31 470.23 -61.56 470.91 -61.82 471.6 C-62.54 473.38 -62.54 473.38 -64 476 C-66.18 476.9 -66.18 476.9 -68 477 C-67.06 471.3 -65.98 465.78 -64.31 460.25 C-63.08 455.8 -62.55 452.52 -64 448 C-88.54 420.73 -142.1 410.61 -176.8 408.72 C-191.02 408.02 -205.22 407.84 -219.45 407.87 C-223.06 407.88 -226.67 407.87 -230.28 407.86 C-257.26 407.54 -257.26 407.54 -284 410.56 C-284.92 410.73 -285.83 410.9 -286.77 411.07 C-305.39 414.65 -324.62 419.34 -342 427 C-343.1 427.48 -343.1 427.48 -344.22 427.97 C-362.81 435.61 -362.81 435.61 -379 447 C-380.16 454.28 -378.12 460.67 -375.78 467.47 C-374.6 470.88 -374 473.33 -374 477 C-376.32 476.93 -376.32 476.93 -379 476 C-380.26 473.64 -381.07 471.64 -381.88 469.12 C-382.24 468.05 -382.24 468.05 -382.62 466.96 C-383.15 465.41 -383.67 463.86 -384.19 462.31 C-385.57 458.17 -387.02 454.06 -388.46 449.94 C-388.9 448.68 -388.9 448.68 -389.35 447.4 C-397.01 425.65 -406.67 404.6 -417 384 C-417.48 383.03 -417.97 382.06 -418.46 381.07 C-449.76 317 -449.76 317 -501 272 C-504.62 272 -506.03 273.02 -509 275 Z M-265.81 736.56 C-266.63 736.81 -267.45 737.06 -268.3 737.31 C-282.53 741.87 -295.99 749.14 -308 758 C-308.94 758.67 -309.87 759.34 -310.84 760.03 C-315.98 763.87 -319.57 766.62 -321 773 C-322.39 788.64 -309.41 810.47 -299.75 822.03 C-299.17 822.68 -298.6 823.33 -298 824 C-297.44 824.65 -296.89 825.3 -296.31 825.97 C-281.47 842.09 -257.88 852.71 -236.12 853.62 C-235.4 853.66 -234.67 853.7 -233.93 853.74 C-201.07 855.35 -172.62 849.72 -147.32 827.66 C-134.29 815.42 -120.51 791.78 -119.88 773.38 C-124.14 760.57 -140.86 751.64 -152.25 745.71 C-172.87 735.48 -195.74 730.82 -218.62 730.76 C-220.9 730.75 -223.18 730.72 -225.46 730.69 C-239.26 730.59 -252.57 732.55 -265.81 736.56 Z M-334 772 C-368.5 837.92 -389.94 904.63 -402 978 C-402.34 979.95 -402.34 979.95 -402.69 981.94 C-402.79 984.01 -402.79 984.01 -402 986 C-397.67 990.2 -392.62 992.91 -387 995 C-386.01 987.03 -385.67 979.11 -385.39 971.09 C-385.36 970.1 -385.32 969.12 -385.28 968.11 C-385.24 966.78 -385.24 966.78 -385.19 965.42 C-385.01 963.17 -384.62 961.17 -384 959 C-382.68 958.67 -381.36 958.34 -380 958 C-379.99 959.05 -379.98 960.1 -379.97 961.19 C-379.87 971.27 -379.77 981.36 -379.66 991.44 C-379.61 996.62 -379.55 1001.8 -379.5 1006.98 C-379.39 1018.82 -379.25 1030.66 -379.08 1042.5 C-379.03 1046.07 -378.98 1049.65 -378.94 1053.22 C-378.9 1057.19 -378.83 1061.17 -378.75 1065.14 C-378.73 1066.57 -378.71 1067.99 -378.7 1069.41 C-378.59 1080.93 -376.84 1089.78 -368.8 1098.31 C-356.86 1109.5 -336.26 1106.21 -321 1106.24 C-317.61 1106.25 -314.22 1106.28 -310.83 1106.31 C-308.65 1106.32 -306.47 1106.32 -304.29 1106.33 C-303.29 1106.34 -302.29 1106.35 -301.26 1106.37 C-293.32 1106.34 -285.48 1105.25 -279.41 1099.64 C-268.28 1086.69 -268.94 1070.92 -268.39 1054.75 C-268.19 1049.1 -267.8 1043.59 -267 1038 C-265.68 1038 -264.36 1038 -263 1038 C-261.86 1053.97 -261.47 1069.99 -261 1086 C-233.94 1086 -206.88 1086 -179 1086 C-178.71 1072.03 -178.71 1072.03 -178.43 1058.06 C-178.39 1056.3 -178.36 1054.55 -178.32 1052.8 C-178.3 1051.89 -178.28 1050.98 -178.27 1050.05 C-178.25 1049.17 -178.23 1048.3 -178.21 1047.4 C-178.19 1046.65 -178.17 1045.89 -178.16 1045.11 C-178 1042.98 -177.58 1041.06 -177 1039 C-175.68 1038.67 -174.36 1038.34 -173 1038 C-172.95 1039.16 -172.9 1040.33 -172.85 1041.53 C-172.66 1045.88 -172.46 1050.24 -172.26 1054.6 C-172.17 1056.47 -172.09 1058.35 -172.01 1060.23 C-171.89 1062.94 -171.76 1065.66 -171.63 1068.37 C-171.6 1069.2 -171.57 1070.03 -171.53 1070.88 C-170.99 1081.78 -168.7 1091.06 -160.93 1099.15 C-149.45 1109.5 -129.06 1106.21 -114.41 1106.24 C-111.11 1106.25 -107.81 1106.28 -104.52 1106.31 C-102.39 1106.32 -100.26 1106.32 -98.13 1106.33 C-97.16 1106.34 -96.19 1106.35 -95.19 1106.37 C-87.71 1106.34 -80.77 1105.23 -74.25 1101.38 C-60.39 1086.75 -61.87 1069.24 -61.55 1050.33 C-61.5 1047.03 -61.44 1043.72 -61.38 1040.42 C-61.22 1032.21 -61.08 1024.01 -60.94 1015.81 C-60.82 1008.86 -60.69 1001.9 -60.56 994.95 C-60.5 991.71 -60.45 988.47 -60.39 985.22 C-60.36 983.22 -60.32 981.22 -60.28 979.22 C-60.27 978.33 -60.25 977.44 -60.24 976.52 C-60.12 970.64 -59.67 964.84 -59 959 C-57.68 958.67 -56.36 958.34 -55 958 C-54.67 970.21 -54.34 982.42 -54 995 C-46.42 991.25 -46.42 991.25 -40 986 C-39.65 980.08 -40.4 974.6 -41.47 968.79 C-41.62 967.92 -41.78 967.04 -41.94 966.14 C-42.45 963.3 -42.97 960.46 -43.5 957.62 C-43.68 956.65 -43.86 955.67 -44.04 954.66 C-55.83 890.77 -76.13 830.31 -107 773 C-107.99 773 -108.98 773 -110 773 C-122.07 795.51 -122.07 795.51 -126 820 C-124.6 822.38 -123.28 824.31 -121.56 826.44 C-112.38 838.61 -105.81 851.08 -101.63 865.78 C-101.23 867.2 -100.81 868.62 -100.36 870.03 C-91 900.12 -96.72 935.82 -111.14 963.3 C-127.36 992.72 -153.71 1014.36 -185.94 1023.94 C-208.29 1030.28 -232.63 1030.19 -255 1024 C-255.67 1023.82 -256.33 1023.65 -257.02 1023.46 C-276.68 1018.12 -293.31 1006.85 -308 993 C-308.68 992.39 -309.35 991.78 -310.05 991.14 C-331.54 970.94 -343.9 940.21 -345.12 911.03 C-345.46 897.79 -345.63 884.83 -342 872 C-341.77 871.2 -341.55 870.4 -341.32 869.57 C-336.14 851.73 -328.56 836.51 -317 822 C-314.51 818.26 -314.43 815.33 -315 811 C-316.04 808.29 -317.1 805.92 -318.44 803.38 C-321.95 796.35 -325.06 789.22 -328 781.94 C-328.6 780.46 -328.6 780.46 -329.2 778.96 C-330.14 776.64 -331.07 774.32 -332 772 C-332.66 772 -333.32 772 -334 772 Z M-309 823 C-330 846.44 -339.86 877.07 -339.25 908.32 C-337.09 940.6 -323.38 970.43 -299.42 992.36 C-274.64 1013.37 -244.55 1023.94 -212 1022 C-180.93 1019.35 -152.32 1004.77 -131.58 981.4 C-128.51 977.74 -125.73 973.92 -123 970 C-122.29 969 -121.58 967.99 -120.85 966.96 C-104.1 941.64 -99.51 908.98 -105.04 879.52 C-109.12 859.67 -117.69 842.01 -130 826 C-130.99 824.51 -130.99 824.51 -132 823 C-136.22 824.61 -138.8 827.79 -141.81 831 C-158.95 848.61 -183.43 859.85 -208.14 860.19 C-208.86 860.19 -209.57 860.2 -210.31 860.2 C-211.08 860.21 -211.86 860.21 -212.65 860.22 C-214.28 860.23 -215.91 860.24 -217.53 860.24 C-219.97 860.25 -222.4 860.28 -224.83 860.31 C-241.27 860.42 -255.9 857.63 -271 851 C-271.69 850.7 -272.37 850.41 -273.08 850.1 C-285.19 844.75 -294.05 837.09 -303.26 827.67 C-305.07 825.94 -306.97 824.46 -309 823 Z M35.64 879.79 C34.62 879.98 33.59 880.18 32.53 880.38 C31.45 880.61 30.37 880.83 29.25 881.06 C27.58 881.41 27.58 881.41 25.87 881.76 C12.13 884.69 -0.62 888.44 -12 897 C-13.53 898.15 -13.53 898.15 -15.09 899.32 C-26.82 908.43 -36.61 921.99 -39 937 C-39.18 946.26 -37.35 955.08 -35 964 C-9.71 954.92 18.03 922.81 34 902 C34.9 900.86 35.79 899.72 36.69 898.58 C37.61 897.41 38.52 896.24 39.44 895.06 C40.08 894.25 40.08 894.25 40.73 893.41 C44.27 888.82 46.33 885.87 46 880 C42.23 879.04 39.45 879.05 35.64 879.79 Z M45 898 C43.64 899.77 42.31 901.57 41 903.38 C37.32 908.37 33.43 913.03 29.22 917.59 C27.79 919.14 26.38 920.72 25 922.32 C14.84 934.01 3.17 944.46 -9 954 C-10.17 954.93 -11.34 955.85 -12.5 956.78 C-18.11 961.21 -23.72 965.63 -29.55 969.78 C-31.29 971.12 -31.29 971.12 -33 974 C-33.17 977.13 -33.17 977.13 -33 980 C-29.87 981 -27.92 980.96 -24.76 980.11 C-23.54 979.79 -23.54 979.79 -22.3 979.46 C-21.01 979.11 -21.01 979.11 -19.69 978.75 C-13.45 977.1 -7.3 975.64 -0.94 974.56 C13.12 971.78 25.54 962.12 33.64 950.32 C43.39 933.73 46.87 917.14 46 898 C45.67 898 45.34 898 45 898 Z M-463.29 985.72 C-466.63 990.17 -465.48 995.69 -465 1001 C-464.47 1004.53 -463.81 1008.04 -463.07 1011.53 C-462.31 1015.09 -461.83 1018.36 -462 1022 C-466.49 1023.32 -469.55 1022.58 -474 1021.31 C-474.65 1021.13 -475.3 1020.95 -475.97 1020.76 C-481.45 1019.21 -486.88 1017.5 -492.29 1015.73 C-495.18 1014.83 -495.18 1014.83 -499 1015 C-507.76 1034.6 -506.73 1054.74 -499.71 1074.65 C-490.52 1097.86 -472.66 1114.52 -451 1126 C-450.21 1126.42 -449.41 1126.85 -448.6 1127.29 C-432.29 1135.27 -412.04 1135.22 -394.93 1130.07 C-391.34 1128.79 -391.34 1128.79 -388 1127 C-384.91 1117.72 -385.84 1106.82 -385.83 1097.16 C-385.83 1095.74 -385.83 1094.32 -385.82 1092.9 C-385.82 1089.94 -385.81 1086.97 -385.81 1084.01 C-385.81 1081.03 -385.81 1078.05 -385.79 1075.08 C-382.92 1035.53 -382.92 1035.53 -393.23 1000.4 C-407.88 987.69 -427.86 981.17 -447.18 981.78 C-455.73 982.22 -455.73 982.22 -463.29 985.72 Z M-41.25 994.5 C-41.88 994.87 -42.51 995.24 -43.17 995.61 C-47.85 998.51 -50.23 1001.22 -51.7 1006.52 C-55.18 1028.66 -54.32 1051.45 -54.41 1073.8 C-54.42 1078.16 -54.46 1082.53 -54.51 1086.9 C-54.57 1092.21 -54.6 1097.52 -54.61 1102.83 C-54.62 1104.84 -54.64 1106.86 -54.66 1108.87 C-54.7 1111.68 -54.7 1114.48 -54.7 1117.28 C-54.72 1118.11 -54.74 1118.94 -54.76 1119.79 C-54.79 1122.38 -54.79 1122.38 -54 1126 C-43.34 1135.18 -26.19 1133.9 -13 1133 C-8.79 1132.41 -5 1131.43 -1 1130 C0.03 1129.67 1.05 1129.34 2.11 1129 C16.29 1124.1 27.5 1115.5 38 1105 C38.65 1104.35 39.31 1103.69 39.98 1103.02 C56.84 1084.93 63.88 1062.51 63.29 1038.18 C62.96 1030.63 61.88 1024.18 58 1017.62 C51.06 1013.87 41.8 1018.59 34.62 1020.62 C33.85 1020.85 33.08 1021.08 32.28 1021.32 C28.42 1022.45 25.07 1023.31 21 1023 C19.7 1018.54 20.44 1014.92 21.44 1010.5 C24.31 998.02 24.31 998.02 21.29 986.22 C16.52 981.59 9.12 981.92 2.75 981.69 C-12.52 982.03 -28.13 986.8 -41.25 994.5 Z M-379 1098 C-380.03 1122.67 -380.03 1122.67 -369.14 1144.03 C-362.46 1150.34 -355.95 1151.53 -346.92 1151.29 C-339.34 1150.53 -335.63 1146.84 -330.81 1141.19 C-329.62 1139.69 -329.62 1139.69 -328.39 1138.17 C-326 1136 -326 1136 -323.51 1135.84 C-320.13 1137.4 -318.43 1139.52 -316.06 1142.38 C-311.62 1147.71 -308.25 1150.6 -301.23 1151.47 C-299.88 1151.5 -298.54 1151.51 -297.19 1151.5 C-296.48 1151.49 -295.78 1151.49 -295.05 1151.48 C-287.11 1151.21 -282.13 1148.45 -276.69 1142.88 C-268.92 1132.97 -268.84 1120.49 -268.94 1108.5 C-268.94 1107.49 -268.95 1106.47 -268.95 1105.43 C-268.96 1102.95 -268.98 1100.48 -269 1098 C-269.73 1098.75 -270.46 1099.5 -271.22 1100.27 C-282.83 1111.67 -294.67 1112.32 -310.39 1112.27 C-312.22 1112.27 -312.22 1112.27 -314.09 1112.27 C-316.66 1112.27 -319.22 1112.27 -321.78 1112.26 C-325.69 1112.25 -329.59 1112.26 -333.49 1112.27 C-336 1112.27 -338.51 1112.27 -341.01 1112.27 C-342.17 1112.27 -343.32 1112.27 -344.51 1112.28 C-354.61 1112.22 -363.95 1111.65 -372 1105 C-373.73 1103.18 -375.33 1101.33 -376.87 1099.36 C-377.24 1098.91 -377.62 1098.46 -378 1098 C-378.33 1098 -378.66 1098 -379 1098 Z M-62 1097 C-63.37 1098.57 -64.72 1100.16 -66.06 1101.75 C-70.97 1107.28 -75.64 1110.54 -83 1112 C-84.85 1112.1 -86.7 1112.14 -88.56 1112.15 C-89.67 1112.15 -90.79 1112.16 -91.94 1112.16 C-93.14 1112.17 -94.35 1112.17 -95.59 1112.17 C-97.46 1112.17 -97.46 1112.17 -99.37 1112.18 C-102.02 1112.18 -104.67 1112.19 -107.31 1112.19 C-110 1112.19 -112.69 1112.19 -115.38 1112.21 C-119.28 1112.22 -123.18 1112.23 -127.09 1112.23 C-128.27 1112.24 -129.45 1112.24 -130.67 1112.25 C-156.36 1112.18 -156.36 1112.18 -165.75 1103.44 C-166.86 1102.23 -166.86 1102.23 -168 1101 C-169.32 1099.98 -170.65 1098.98 -172 1098 C-172.42 1114.1 -172.36 1129.22 -163 1143 C-157.2 1149 -150.98 1151.29 -142.69 1151.44 C-136.19 1151.4 -131.74 1150.61 -127 1146 C-124.65 1143.35 -122.37 1140.69 -120.18 1137.91 C-118 1136 -118 1136 -115.54 1135.88 C-112.12 1137.39 -110.49 1139.49 -108.12 1142.38 C-103.45 1147.76 -100.55 1150.57 -93.22 1151.26 C-85.7 1151.54 -78.77 1151.18 -72.84 1146.18 C-65.24 1138.25 -60.85 1128.67 -60.9 1117.7 C-60.91 1116.5 -60.91 1115.29 -60.91 1114.05 C-60.92 1112.8 -60.93 1111.54 -60.94 1110.25 C-60.94 1108.98 -60.95 1107.71 -60.95 1106.4 C-60.96 1103.27 -60.98 1100.13 -61 1097 C-61.33 1097 -61.66 1097 -62 1097 Z " fill="#000000" transform="translate(899,43)"/>
<path d="M0 0 C22.02 15.36 31.05 37.3 35.75 62.89 C37.94 75.63 38.19 88.29 38.19 101.19 C38.19 103.99 38.21 106.8 38.22 109.6 C38.29 129.39 38.29 129.39 36 137 C35.34 137.66 34.68 138.32 34 139 C28 138.75 23.63 137.24 18.38 134.44 C17.34 133.9 17.34 133.9 16.28 133.35 C14.18 132.25 12.09 131.12 10 130 C8.84 129.39 7.68 128.78 6.48 128.15 C-8.41 120.01 -21.87 109.83 -34 98 C-35.08 97.01 -35.08 97.01 -36.19 96 C-49.7 83.34 -60.46 64.51 -61.28 45.89 C-61.73 28.26 -59.98 11.88 -48.75 -2.5 C-34.9 -17.01 -14.46 -9.06 0 0 Z M-44 3 C-54.2 18.01 -54.56 37.1 -52.6 54.55 C-49.88 67.61 -41.85 79.33 -33 89 C-32.28 89.81 -31.55 90.61 -30.8 91.44 C-14.27 108.91 6.87 120.13 28 131 C38.1 115.84 31.24 76.96 27.93 60.14 C24.84 45.94 20.53 32.92 12 21 C11.55 20.37 11.1 19.73 10.64 19.08 C3.26 9.61 -10.01 0.12 -22 -2 C-34.14 -3.08 -34.14 -3.08 -44 3 Z " fill="#000000" transform="translate(573,630)"/>
<path d="M0 0 C10.77 8.8 14.44 20.96 15.91 34.52 C17.11 58.94 12.51 77.99 -4.09 96.52 C-4.8 97.35 -5.51 98.18 -6.24 99.03 C-22.87 118.11 -51.1 139.19 -76.09 145.52 C-78.98 144.66 -78.98 144.66 -81.09 143.52 C-87.18 105.85 -86.83 55.97 -64.09 23.52 C-50.93 6.77 -21.51 -15.17 0 0 Z M-54.51 23.02 C-68.65 39.3 -72.62 60.73 -75.09 81.52 C-75.23 82.62 -75.36 83.71 -75.5 84.84 C-78.48 111.33 -78.48 111.33 -73.09 136.52 C-53.54 126.77 -35.28 116.31 -19.09 101.52 C-18.2 100.71 -17.31 99.9 -16.39 99.07 C-1.42 84.83 8.53 66.91 9.16 46.09 C9.02 32.52 6.85 16.47 -3.09 6.52 C-18.39 -6.52 -43.72 11.85 -54.51 23.02 Z " fill="#000000" transform="translate(828.09375,624.4765625)"/>
<path d="M0 0 C4.32 3.89 6.72 7.22 7.31 13.12 C6.62 21.72 2.18 28.2 -4 34 C-11.49 40.29 -19.83 46.43 -30 46 C-27.65 56.33 -27.65 56.33 -21 64 C-16.63 66.55 -11.93 66.66 -7 66 C-1.46 64.25 3.13 61.17 6 56 C7.22 52.71 8.17 49.4 9 46 C10.65 45.67 12.3 45.34 14 45 C15.78 48.56 15.61 52.12 15 56 C11.74 64.03 6.4 69.33 -1.29 73.13 C-7.86 75.23 -17.19 75.32 -23.56 72.44 C-27.49 70.06 -30.29 66.66 -33 63 C-33.62 63.89 -34.24 64.77 -34.88 65.69 C-39.32 70.9 -44.71 73.58 -51.48 74.45 C-60.39 74.73 -66.04 73.42 -72.75 67.62 C-77.63 61.93 -80.58 56.78 -81.25 49.19 C-81 47 -81 47 -79 45 C-76.07 45.37 -75.14 45.86 -73 48 C-72.58 49.92 -72.58 49.92 -72.25 52.19 C-71.21 57.29 -68.92 60.61 -65 64 C-60.34 66.94 -55.32 66.49 -50 66 C-45.27 64.36 -42.61 62.28 -40 58 C-38.94 55.04 -38.01 52.16 -38 49 C-40.14 45.81 -42.92 45.28 -46.5 44.31 C-57.91 40.67 -65.97 33.34 -72.09 23.19 C-74.39 18.6 -74.76 14 -74 9 C-71.43 2.42 -67.26 -0.87 -61 -4 C-41.29 -11.49 -18.13 -11.86 0 0 Z M-63.89 6.38 C-66.61 9.12 -67 11.05 -67.19 14.88 C-65.62 22.55 -59.23 28.68 -53 33 C-44.81 38.25 -37.72 40.52 -28 39 C-17.36 36.31 -9.21 29.66 -2.72 20.94 C-0.23 16.69 -0.31 14.85 -1 10 C-5.61 3.67 -13.53 0.57 -21 -1 C-35.36 -2.95 -51.73 -2.51 -63.89 6.38 Z " fill="#000000" transform="translate(712,815)"/>
<path d="M0 0 C4.42 3.82 7.67 7.43 8.43 13.34 C8.45 25.43 8.45 25.43 4 30 C-1.52 35.1 -6.18 36.45 -13.58 36.24 C-20.21 35.59 -23.51 31.66 -27.58 26.84 C-31.19 22.16 -30.52 16.67 -30 11 C-28.04 4.77 -23.18 0.75 -17.62 -2.31 C-11 -4.05 -5.97 -3.27 0 0 Z " fill="#000000" transform="translate(570,666)"/>
<path d="M0 0 C4.14 2.94 7.29 6.52 8.89 11.34 C9.8 18.97 9.3 24.39 4.55 30.57 C0.89 34.5 -2.95 35.98 -8.18 36.58 C-14.02 36.78 -18.31 35.76 -23.11 32.34 C-26.8 28.84 -28.92 25.59 -29.34 20.42 C-29.59 9.06 -29.59 9.06 -25.11 4.34 C-17.67 -2.94 -9.59 -5.29 0 0 Z " fill="#000000" transform="translate(807.10546875,665.65625)"/>
</svg>
