<?xml version="1.0" encoding="utf-8"?>
<!-- Generator: Adobe Illustrator 23.0.1, SVG Export Plug-In . SVG Version: 6.00 Build 0)  -->
<svg version="1.0" id="Слой_1" xmlns="http://www.w3.org/2000/svg" xmlns:xlink="http://www.w3.org/1999/xlink" x="0px" y="0px"
	 viewBox="0 0 720 720" style="enable-background:new 0 0 720 720;" xml:space="preserve">
<g id="Слой_70">
	<path d="M653.9,252.3c0.4-0.1,0.8-0.3,1.2-0.5c1-0.7,1.5-2,1.2-3.2c-6.5-28.2-25.1-53.7-49.7-69.1c0.2-0.2,0.4-0.4,0.5-0.6
		c0.6-1,0.7-2.2,0.1-3.2c-11.7-20.8-32.3-37.9-59.3-49.7c0.3-0.3,0.6-0.6,0.8-1c0.6-1.2,0.4-2.6-0.6-3.6
		c-25.8-26.1-61.6-40.7-97.9-41.3c0.2-0.3,0.3-0.7,0.3-1c0.2-1.4-0.6-2.8-2-3.3c-36.7-13.6-75.3-7.1-108.7,3.7
		c-0.3-1.1-1.2-2.1-2.5-2.3c-26.7-4.6-54.9-1.4-80.2,8.7l1.7-1.5c1-0.9,1.3-2.4,0.7-3.7c-0.6-1.2-2-1.9-3.3-1.7
		c-25.5,4.7-47.2,14.3-67.1,30.1c-1-1.1-2.7-1.2-3.9-0.4c-20.6,13.4-38.3,32-51,53.2l0.2-1.7c0.2-1.5-0.8-2.9-2.3-3.3
		c-1.5-0.4-3,0.3-3.6,1.7c-13.7,30.6-8.8,68.9,11.5,95.6c-20.1,28-78.6,21.6-96.6,18.9c-2.4-0.4-4.9,0.5-6.6,2.3
		c-1.7,1.8-2.3,4.3-1.7,6.7c13.5,55,105.6,96.9,159.3,117c15.3,5.7,29.1,13.8,41.2,23.9c1.7,1.4,3.3,2.7,4.9,4.1
		c-4.5,12-13.7,22.1-25,27.3l-1,0.4c-3.8,1.7-8.5,3.9-10.3,8.7c-2.6,7,3.2,14.1,10.4,16.9c3.9,1.5,8,2.2,11.9,2.2
		c10.9,0,21.2-5,28.4-10.8c7.5-6.1,13.2-13.8,17.5-20.3c3.2,2.2,6.3,4.4,9.4,6.5c-5,9.3-13,17-22.3,21.3l-1,0.4
		c-3.8,1.7-8.5,3.9-10.3,8.7c-2.6,7,3.2,14.1,10.4,16.9c3.9,1.5,8,2.2,11.9,2.2c10.8,0,21.2-5,28.4-10.8
		c5.6-4.6,10.7-10.3,16.1-18.3c22.8,12.6,43.3,21.2,61,27.1c-3.5,3.1-7.3,5.6-11.4,7.5l-1,0.4c-3.8,1.7-8.5,3.9-10.3,8.7
		c-2.6,7,3.2,14.1,10.4,16.9c3.9,1.5,8,2.2,11.9,2.2c10.8,0,21.2-5,28.4-10.8c4.6-3.7,9-8.5,13.3-14.3c8.1,1.3,14.4,1.9,18.7,2.1
		c-4.4,5-9.8,9-15.6,11.7l-1,0.4c-3.8,1.7-8.5,3.9-10.3,8.7c-2.6,7,3.2,14.1,10.4,16.9c3.9,1.5,8,2.2,11.9,2.2
		c10.8,0,21.2-5,28.4-10.8c10-8.1,16.5-17.2,23.6-28.9c14.8-4.4,28.4-13,38.5-24.6l-2.7,9.3c-0.3,1.1,0,2.3,0.8,3.1
		c0.8,0.8,2,1.1,3.1,0.7c20.5-6.8,39.2-18.5,54.3-33.9l-3.7,8.2c-0.5,1.1-0.3,2.4,0.5,3.3c0.8,0.9,2.1,1.2,3.3,0.8
		c11.2-3.9,21.7-11.4,32.1-23.3c0.9,0.4,1.9,0.3,2.8-0.2c14.3-8.6,24.9-22.7,30-38.6l0.5,4.1c0.2,1.4,1.2,2.4,2.5,2.7
		c1.3,0.2,2.7-0.4,3.3-1.6c9.9-19.3,13.9-38.3,15.4-56.7c1.2,0.1,2.4-0.5,3-1.6c9.3-17.4,9.2-39.1,0.7-56.8c3.3,4,5.7,8.7,6.9,13.8
		c0.4,1.5,1.8,2.5,3.3,2.4c1.6-0.2,2.7-1.5,2.8-3C681.5,299.2,671.4,272.6,653.9,252.3 M53.4,305.3c-5.9-7.9-10.1-16.2-12.2-24.8
		c-0.1-0.5,0.1-0.9,0.3-1.1c0.2-0.2,0.5-0.5,1.1-0.4c4,0.6,9.9,1.4,16.9,1.9C60.4,286.3,62.1,300.4,53.4,305.3 M251.1,466.9
		c-10.6,8.6-24,11.6-34.1,7.7c-4.2-1.6-8.1-5.7-6.8-9c0.9-2.4,4-3.8,7.1-5.2l1-0.5c12.2-5.6,22.2-16.2,27.5-28.8
		c7.4,6,14.7,11.5,21.8,16.6C263.4,454,258,461.3,251.1,466.9 M295.1,491.7c-10.6,8.6-24,11.6-34.1,7.7c-4.2-1.6-8.1-5.7-6.8-9
		c0.9-2.4,4-3.8,7.1-5.2l1-0.5c10.5-4.8,19.2-13.1,24.9-23.5c7.8,5.1,15.3,9.7,22.7,13.9C304.8,482.4,300.2,487.5,295.1,491.7
		 M400.3,525.3c-10.6,8.6-24,11.6-34.1,7.7c-4.2-1.6-8.1-5.7-6.8-9c0.9-2.4,4-3.8,7.1-5.2l1-0.5c5.7-2.6,10.9-6.3,15.4-10.9
		c10.5,3.3,19.9,5.5,27.9,7.1C407.3,518.8,403.8,522.4,400.3,525.3 M316.6,471.7c-0.2-0.2-0.3-0.4-0.5-0.5c-0.4-0.2-0.8-0.4-1.2-0.5
		c-23.2-13-48.5-30-75.2-52.5c-12.6-10.6-27.1-19-43-25c-15-5.6-37.1-14.6-60.1-26.2c8-0.6,15.6-3.4,22.6-8.4c1.4-1,1.7-2.9,0.7-4.3
		c-1-1.4-2.9-1.7-4.3-0.7c-9.9,7.2-21.2,9.1-33.4,5.7c0,0-0.1,0-0.1,0c-24.8-13.7-49-30.4-64.7-49.1c10.6-6.7,9.7-21.6,8.5-28.8
		c25.7,1.3,61.7-1.2,78.3-22.4c0.1,0.2,0.3,0.3,0.4,0.5c3.8,4.3,9.9,6,16.7,4.7c5.1-1,9.8-3.5,13.2-7c2.5,7,8,12.8,15,15.5
		c8.1,3,17.5,1.5,24.3-3.7l7.1,17c0.3,0.8,1.1,1.5,1.9,1.8c0.9,0.3,1.8,0.1,2.6-0.3l4.5-2.9c-1.4,6.3-1,13.1,1.1,19.7
		c3,9.2,9,16.8,16.8,21c-0.3,10.8,6.1,23.6,19.6,38.9c0.8,0.9,2.1,1.3,3.3,0.9c0.4-0.1,0.8-0.4,1.1-0.7c3.6,11.7,9.6,20.9,18.2,28.4
		c0.9,0.7,2.1,0.9,3.1,0.5c1.1-0.4,1.8-1.4,2-2.5l0.2-1.9c5.8,13.2,15.7,24.7,28,32.2c0.9,0.6,2.1,0.6,3,0.1c1-0.5,1.6-1.5,1.6-2.6
		l0-0.6c6,12.4,15.1,23.3,26.3,31.1c0.9,0.6,2.1,0.7,3.1,0.2c4.8,10.3,13.1,19,23.5,23.7c0.9,0.4,1.9,0.4,2.7-0.1
		c0.8-0.4,1.4-1.3,1.6-2.2l0.2-1.2c6.6,16.7,20.6,31.1,36.4,40.4C400.2,506.6,362.9,497.3,316.6,471.7 M456,542.1
		c-10.6,8.6-24,11.6-34.1,7.7c-4.2-1.6-8.1-5.7-6.8-9c0.9-2.4,4-3.8,7.1-5.2l1-0.5c7.8-3.6,14.7-9.2,20.1-16.2
		c1.8,0.5,3.7,0.9,5.5,1.2c4.2,0.7,8.4,1.1,12.6,1.1c4.6,0,9.2-0.4,13.7-1.3C469.4,528.9,463.9,535.7,456,542.1 M656.7,297.3
		c-1.3-0.5-2.9-0.1-3.7,1.1c-0.8,1.2-0.7,2.8,0.3,3.8c13.2,14,18,35.1,12.9,53.6l-1.2-9.8c-0.2-1.6-1.6-2.8-3.3-2.7
		c-1.6,0.1-2.9,1.5-2.9,3.1c0.2,21.9-1.2,45.3-10.9,68.9l-2.3-19.7c-0.1-0.9-0.2-1.7-0.3-2.6c-0.2-1.7-1.8-2.9-3.4-2.6
		c-1.7,0.2-2.9,1.7-2.7,3.4l0.3,2.5c1.6,17.6-4.9,35.8-16.8,48.9l3.2-5.4c0.9-1.4,0.4-3.3-1-4.2c-1.4-0.9-3.3-0.5-4.2,1
		c-12.9,20-25.1,32.8-38,39.5l9.5-21.4c0.6-1.5,0.1-3.2-1.3-3.9c-1.4-0.8-3.1-0.4-4,0.9c-14.8,21.2-36,37.6-60,46.9l7.1-24.1
		c0.5-1.6-0.4-3.2-1.9-3.8c-1.5-0.6-3.2,0.2-3.9,1.6c-12.9,28.9-47.4,47.2-78.5,41.7c-1.6-0.3-3.2-0.6-4.9-1.1
		c-0.6-0.8-1.5-1.3-2.5-1.3c-0.1,0-0.7,0-1.8,0c-24.6-8.1-49.7-30.8-52.6-57.3c-0.2-1.5-1.4-2.7-3-2.7c-1.5,0-2.9,1-3.1,2.6l-2,11.3
		c-11.9-7-20-20.5-20.7-34.3l0-4c0-1.7-1.3-3-3-3.1c0,0-0.1,0-0.1,0c-1.6,0-3,1.3-3.1,2.9c-0.1,1.5-0.1,3,0,4.4l0,8.8
		c-11.8-9.9-20.5-23.6-24.3-38.4c-0.4-1.5-1.8-2.5-3.3-2.3c-1.5,0.2-2.7,1.4-2.8,2.9l-0.5,10.3c-12.7-9.3-21.9-23.4-25.1-38.7
		c-0.3-1.5-1.6-2.5-3.1-2.5c-1.5,0.1-2.7,1.2-2.9,2.7l-1.2,9.5c-9.4-10.1-14.3-23.3-15.7-41.9c-0.1-1.6-1.6-2.9-3.1-2.9
		c-1.6,0-3,1.3-3.1,2.9l-0.7,12.1c-9.6-12.2-13.9-22.3-13-30.4c0.2-1.3-0.6-2.6-1.8-3.2c-7.1-3.3-12.8-10-15.4-18.3
		c-2.7-8.3-2-17,1.8-23.9c0.7-1.2,0.5-2.8-0.6-3.8c-1-1-2.6-1.1-3.8-0.4l-9.2,5.9l-7.3-17.7c-0.4-1-1.3-1.7-2.3-1.9
		c-1.1-0.2-2.1,0.2-2.8,1c-5,5.7-13.9,7.9-21,5.2c-7.1-2.7-12.3-10.1-12.4-17.7c0-1.5-1.1-2.8-2.6-3c-1.5-0.2-2.9,0.6-3.4,2
		c-1.7,4.7-7.1,8.8-13.2,10c-4.6,0.9-8.6-0.1-10.9-2.8c-0.5-0.5-1-1.1-1.4-1.7c0.8-1.5,0.3-3.3-1.2-4.2c-0.7-0.4-1.5-0.5-2.3-0.3
		c-14.3-19.4-20-45-15.8-68.8c0.1,0,0.2,0.1,0.3,0.1c1.5,0.4,3-0.3,3.6-1.7c10-21.4,25.2-40.8,43.6-55.8c0.2,0.5,0.5,1,0.9,1.3
		c1.2,1.1,3,1,4.2-0.1c19.6-18.6,40.7-30.5,65.4-36.9l-9.2,8.4c-1.2,1.1-1.3,2.8-0.4,4.1c0.9,1.3,2.7,1.6,4.1,0.8
		c25.4-15.1,55.9-21.8,85.4-19c-0.7,0.5-1.4,1.1-2.1,1.6c-1.2,1-2.4,2-3.6,2.8c-2.2,0.8-4.3,1.7-6.4,2.5c-1.5,0.6-2.3,2.2-1.8,3.7
		c0.4,1.5,1.9,2.5,3.5,2.2c3-0.5,5.4-1.6,7.5-2.8c32.9-12.5,73.4-23.7,112.1-13.8c-2.3,0.7-4.6,1.6-6.8,2.4
		c-1.6,0.6-3.2,1.2-4.8,1.7c-4.3,0.8-8.6,1.7-12.9,2.9c-1.5,0.4-2.5,1.9-2.2,3.5c0.3,1.6,1.7,2.7,3.3,2.5c4.6-0.3,9-1.5,13.1-2.9
		c39-6.6,81.4,5.1,111.4,30.8l-16.4-2.6c-1.6-0.3-3.2,0.8-3.5,2.4c-0.3,1.6,0.6,3.2,2.2,3.6c36.3,9.8,64.4,27.8,79.9,51.2l-4.2-0.4
		c-1.5-0.2-2.9,0.8-3.3,2.3c-0.4,1.5,0.3,3,1.7,3.6c26,12.2,46.7,36.2,55.4,63.7l-19.1-11.6c-0.6-0.4-1.2-0.7-1.8-1.1
		c-1.5-0.9-3.3-0.4-4.2,1.1c-0.9,1.5-0.4,3.3,1.1,4.2l1.7,1.1c26,16.1,43.8,44,48,74.1C669.5,304.6,663.5,300,656.7,297.3"/>
</g>
<g id="Слой_69">
	<path d="M181.6,286.5c-7.8-2.1-16,3.2-18.4,11.9c-2.4,8.7,2,17.5,9.7,19.6c7.8,2.1,16-3.2,18.4-11.9
		C193.7,297.5,189.3,288.7,181.6,286.5"/>
</g>
<g id="Слой_68">
	<path d="M287.8,124.9c0-0.6-0.5-1.1-1.2-1.1c-14.9,0.8-29.1,7.7-38.9,18.9c-0.4,0.5-0.4,1.2,0.1,1.6c0.2,0.2,0.5,0.3,0.8,0.3
		c0.3,0,0.6-0.1,0.9-0.4c9.5-10.7,23.1-17.3,37.3-18.1C287.3,126,287.8,125.5,287.8,124.9"/>
</g>
<g id="Слой_67">
	<path d="M297.6,143.9c0.2,0.1,0.4,0.2,0.6,0.2c0.4,0,0.7-0.2,1-0.5c10.4-15.7,31.3-24.2,49.7-20.2c0.6,0.1,1.2-0.3,1.4-0.9
		c0.1-0.6-0.3-1.2-0.9-1.4c-19.6-4.3-41.1,4.4-52.1,21.2C296.9,142.9,297,143.6,297.6,143.9"/>
</g>
<g id="Слой_66">
	<path d="M327.7,110.6c0.3,0,0.5-0.1,0.8-0.3c7.8-6.8,18.2-10.8,28.5-10.9c0.6,0,1.2-0.5,1.1-1.2c0-0.6-0.5-1.1-1.2-1.1h0
		c-10.9,0.1-21.8,4.3-30,11.5c-0.5,0.4-0.5,1.2-0.1,1.6C327.1,110.4,327.4,110.6,327.7,110.6"/>
</g>
<g id="Слой_65">
	<path d="M358.5,142c0.2,0.1,0.4,0.1,0.5,0.1c0.4,0,0.8-0.2,1-0.6c4-7.7,12.5-13,21.2-13.1c0.6,0,1.1-0.5,1.1-1.2
		c0-0.6-0.5-1.1-1.2-1.1h0c-9.5,0.2-18.8,5.9-23.2,14.4C357.7,141,357.9,141.7,358.5,142"/>
</g>
<g id="Слой_64">
	<path d="M440,175.7c0.6,0.3,1.3,0,1.5-0.6c0.3-0.6,0-1.3-0.6-1.5c-15-7.1-33.3-6.3-47.8,1.9c-0.6,0.3-0.8,1-0.4,1.6
		c0.2,0.4,0.6,0.6,1,0.6c0.2,0,0.4,0,0.6-0.1C408.1,169.7,425.6,169,440,175.7"/>
</g>
<g id="Слой_63">
	<path d="M407.7,138.4c-0.4,0.5-0.3,1.2,0.2,1.6c0.2,0.2,0.5,0.2,0.7,0.2c0.3,0,0.7-0.2,0.9-0.4c4.9-6.3,12.5-10.3,20.4-10.9
		c0.6,0,1.1-0.6,1.1-1.2c0-0.6-0.5-1.1-1.2-1.1C421.2,127.2,412.9,131.6,407.7,138.4"/>
</g>
<g id="Слой_62">
	<path d="M386.7,113.9c0.3,0,0.5-0.1,0.7-0.3c7.4-5.8,18-7.7,27-4.7c0.6,0.2,1.3-0.1,1.5-0.7c0.2-0.6-0.1-1.3-0.7-1.5
		c-9.7-3.2-21.1-1.2-29.2,5.1c-0.5,0.4-0.6,1.1-0.2,1.6C386,113.8,386.4,113.9,386.7,113.9"/>
</g>
<g id="Слой_61">
	<path d="M357.4,195.2c0.6,0.1,1.2-0.2,1.4-0.9c0.1-0.6-0.2-1.2-0.9-1.4c-12.2-2.9-25.6-1.2-36.7,4.6c-0.6,0.3-0.8,1-0.5,1.6
		c0.2,0.4,0.6,0.6,1,0.6c0.2,0,0.4,0,0.5-0.1C333,194.1,345.7,192.5,357.4,195.2"/>
</g>
<g id="Слой_60">
	<path d="M336.4,168.2c0.6,0.2,1.3-0.1,1.5-0.7c0.2-0.6-0.1-1.3-0.7-1.5c-12.1-4-26.3-0.1-34.6,9.5c-0.4,0.5-0.4,1.2,0.1,1.6
		c0.2,0.2,0.5,0.3,0.8,0.3c0.3,0,0.6-0.1,0.9-0.4C312,168.2,325.2,164.5,336.4,168.2"/>
</g>
<g id="Слой_59">
	<path d="M346.5,175.6c0.2,0.3,0.6,0.4,0.9,0.4c0.3,0,0.5-0.1,0.7-0.3c10.5-8.4,23.6-13.1,37-13.3c0.6,0,1.2-0.5,1.1-1.2
		c0-0.6-0.6-1-1.2-1.1c-13.9,0.2-27.5,5.1-38.4,13.8C346.1,174.4,346.1,175.1,346.5,175.6"/>
</g>
<g id="Слой_58">
	<path d="M387.5,238.5c0.5,0.4,1.2,0.3,1.6-0.2c0.4-0.5,0.3-1.2-0.2-1.6c-4.6-3.6-10.8-5-16.6-3.9c-5.7,1.2-10.9,4.9-13.8,10
		c-0.3,0.6-0.1,1.3,0.4,1.6c0.2,0.1,0.4,0.2,0.6,0.2c0.4,0,0.8-0.2,1-0.6c2.6-4.5,7.1-7.8,12.2-8.9
		C377.9,234,383.4,235.3,387.5,238.5"/>
</g>
<g id="Слой_57">
	<path d="M457.7,255c-0.4,0.5-0.3,1.2,0.1,1.6c0.2,0.2,0.5,0.3,0.7,0.3c0.3,0,0.7-0.1,0.9-0.4c8.6-10.2,24.1-13.7,36.2-8.2
		c0.6,0.3,1.3,0,1.5-0.6c0.3-0.6,0-1.3-0.6-1.5C483.6,240.3,466.9,244.1,457.7,255"/>
</g>
<g id="Слой_56">
	<path d="M486,200.9c-12.9,0.4-25.4,6.1-34.1,15.6c-0.4,0.5-0.4,1.2,0.1,1.6c0.2,0.2,0.5,0.3,0.8,0.3c0.3,0,0.6-0.1,0.8-0.4
		c8.4-9,20.2-14.5,32.5-14.9c0.6,0,1.1-0.6,1.1-1.2C487.1,201.4,486.6,201,486,200.9"/>
</g>
<g id="Слой_55">
	<path d="M474.3,172.5c0.3,0,0.7-0.1,0.9-0.4c4.4-5.3,11.5-8.6,18.4-8.4c0.7,0,1.2-0.5,1.2-1.1c0-0.6-0.5-1.2-1.1-1.2
		c-7.7-0.1-15.3,3.3-20.3,9.3c-0.4,0.5-0.3,1.2,0.2,1.6C473.8,172.4,474.1,172.5,474.3,172.5"/>
</g>
<g id="Слой_54">
	<path d="M442.5,198.1c0.2-0.6-0.1-1.3-0.7-1.5c-9.2-3-19.8-0.9-27,5.5c-0.5,0.4-0.5,1.2-0.1,1.6c0.2,0.3,0.5,0.4,0.9,0.4
		c0.3,0,0.5-0.1,0.8-0.3c6.6-5.9,16.3-7.9,24.7-5.1C441.7,199,442.3,198.7,442.5,198.1"/>
</g>
<g id="Слой_53">
	<path d="M355,288.1c0.2,0.1,0.3,0.1,0.5,0.1c0.4,0,0.9-0.3,1.1-0.7c2.3-5.1,8.7-8,14-6.3c0.6,0.2,1.3-0.2,1.4-0.8
		c0.2-0.6-0.2-1.3-0.8-1.4c-6.5-2-14,1.4-16.8,7.6C354.1,287.2,354.4,287.9,355,288.1"/>
</g>
<g id="Слой_52">
	<path d="M304.1,252.3c0.2-0.6-0.1-1.3-0.7-1.5c-9.1-3.4-20.1-1.4-27.3,5c-0.5,0.4-0.5,1.2-0.1,1.6c0.2,0.3,0.5,0.4,0.9,0.4
		c0.3,0,0.5-0.1,0.8-0.3c6.6-5.9,16.7-7.7,25-4.6C303.2,253.2,303.9,252.9,304.1,252.3"/>
</g>
<g id="Слой_51">
	<path d="M247.2,214.6c-6.8-4.3-16.4-4-22.8,0.8c-0.5,0.4-0.6,1.1-0.2,1.6c0.2,0.3,0.6,0.5,0.9,0.5c0.2,0,0.5-0.1,0.7-0.2
		c5.7-4.3,14.2-4.6,20.2-0.8c0.5,0.3,1.3,0.2,1.6-0.3C247.9,215.6,247.8,214.9,247.2,214.6"/>
</g>
<g id="Слой_50">
	<path d="M208.9,183.3c0.6,0.1,1.2-0.2,1.4-0.9c0.1-0.6-0.2-1.2-0.9-1.4c-6.9-1.6-14.3,0.4-19.4,5.2c-0.5,0.4-0.5,1.2,0,1.6
		c0.2,0.2,0.5,0.4,0.8,0.4c0.3,0,0.6-0.1,0.8-0.3C196.1,183.8,202.9,181.9,208.9,183.3"/>
</g>
<g id="Слой_49">
	<path d="M262.7,180.7c-6.9-1.4-14.1-1.1-20.8,1c-3.8,1.2-7.4,4.1-6.4,7.7c0.1,0.5,0.6,0.9,1.1,0.9c0.1,0,0.2,0,0.3,0
		c0.6-0.2,1-0.8,0.8-1.4c-0.6-2.3,2.6-4.2,4.9-4.9c6.3-2,13.1-2.3,19.6-0.9c0.6,0.1,1.2-0.3,1.4-0.9
		C263.7,181.5,263.3,180.9,262.7,180.7"/>
</g>
<g id="Слой_48">
	<path d="M275.7,224.8c-0.5,0.4-0.6,1.1-0.3,1.6c0.2,0.3,0.6,0.5,0.9,0.5c0.2,0,0.5-0.1,0.7-0.2c3.2-2.3,7.5-3.3,11.5-2.6
		c0.7,0.1,1.2-0.3,1.3-0.9c0.1-0.6-0.3-1.2-0.9-1.3C284.3,220.9,279.5,222,275.7,224.8"/>
</g>
<g id="Слой_47">
	<path d="M184.6,148.1c0.2,0,0.4,0,0.6-0.1c5.5-3.1,12.6-3.5,18.4-1.1c0.6,0.2,1.3,0,1.5-0.6c0.2-0.6,0-1.3-0.6-1.5
		c-6.5-2.7-14.3-2.2-20.4,1.2c-0.6,0.3-0.8,1-0.4,1.6C183.8,147.9,184.2,148.1,184.6,148.1"/>
</g>
<g id="Слой_46">
	<path d="M160.9,195.2c-4.4-0.9-9.1,1.1-11.6,4.8c-0.3,0.5-0.2,1.3,0.3,1.6c0.2,0.1,0.4,0.2,0.6,0.2c0.4,0,0.8-0.2,1-0.5
		c1.9-2.9,5.7-4.5,9.2-3.8c0.6,0.1,1.2-0.3,1.4-0.9C161.9,195.9,161.5,195.3,160.9,195.2"/>
</g>
<g id="Слой_45">
	<path d="M192.3,222.5c-7,0.8-13.5,5-17.1,11c-0.3,0.5-0.2,1.3,0.4,1.6c0.2,0.1,0.4,0.2,0.6,0.2c0.4,0,0.8-0.2,1-0.6
		c3.2-5.4,9.1-9.2,15.4-9.9c0.6-0.1,1.1-0.6,1-1.3C193.5,222.9,192.9,222.5,192.3,222.5"/>
</g>
<g id="Слой_44">
	<path d="M213.4,233.2c-6.9-0.9-14,4.1-15.6,10.8c-0.1,0.6,0.2,1.2,0.9,1.4c0.1,0,0.2,0,0.3,0c0.5,0,1-0.4,1.1-0.9
		c1.3-5.7,7.3-9.8,13-9.1c0.7,0.1,1.2-0.4,1.3-1C214.5,233.8,214.1,233.2,213.4,233.2"/>
</g>
<g id="Слой_43">
	<path d="M231.4,119.4c0.6-0.1,1.1-0.7,1-1.3c-0.1-0.6-0.7-1.1-1.3-1c-6.5,1-12.4,4.9-15.8,10.4c-0.3,0.5-0.2,1.3,0.4,1.6
		c0.2,0.1,0.4,0.2,0.6,0.2c0.4,0,0.8-0.2,1-0.5C220.3,123.8,225.6,120.3,231.4,119.4"/>
</g>
<g id="Слой_42">
	<path d="M238.2,156.4c0.7,0.1,1.2-0.4,1.3-1.1c0.1-0.6-0.4-1.2-1.1-1.3c-6.9-0.6-14.1,2.6-18.3,8.1c-0.4,0.5-0.3,1.2,0.2,1.6
		c0.2,0.2,0.5,0.2,0.7,0.2c0.4,0,0.7-0.2,0.9-0.5C225.7,158.7,232.1,155.9,238.2,156.4"/>
</g>
<g id="Слой_41">
	<path d="M438.4,144c0.3,0,0.6-0.1,0.8-0.3c6.8-6.5,16.8-9.9,26.1-8.7c0.7,0.1,1.2-0.4,1.3-1c0.1-0.6-0.4-1.2-1-1.3
		c-10.2-1.3-20.6,2.2-28,9.3c-0.5,0.4-0.5,1.2,0,1.6C437.8,143.9,438.1,144,438.4,144"/>
</g>
<g id="Слой_40">
	<path d="M444.3,112.6c0.2,0,0.4-0.1,0.6-0.2c4.8-2.8,10.5-4.2,16-3.8c0.7,0,1.2-0.4,1.2-1.1c0-0.6-0.4-1.2-1.1-1.2
		c-6-0.4-12.2,1.1-17.4,4.1c-0.6,0.3-0.7,1-0.4,1.6C443.5,112.4,443.9,112.6,444.3,112.6"/>
</g>
<g id="Слой_39">
	<path d="M497.9,137.3c7.9-1.9,16.3-1.2,23.7,2c0.2,0.1,0.3,0.1,0.5,0.1c0.4,0,0.9-0.3,1.1-0.7c0.3-0.6,0-1.3-0.6-1.5
		c-7.9-3.4-16.8-4.2-25.2-2.2c-0.6,0.2-1,0.8-0.8,1.4C496.7,137.1,497.3,137.5,497.9,137.3"/>
</g>
<g id="Слой_38">
	<path d="M476,118.4c0.2,0,0.4-0.1,0.6-0.2c5.3-3.2,11.8-4.5,17.9-3.5c0.6,0.1,1.2-0.3,1.3-1c0.1-0.6-0.3-1.2-1-1.3
		c-6.6-1.1-13.7,0.3-19.5,3.8c-0.5,0.3-0.7,1-0.4,1.6C475.2,118.2,475.6,118.4,476,118.4"/>
</g>
<g id="Слой_37">
	<path d="M529.2,159.2c9.2-0.6,18.7,0.7,27.4,3.6c0.1,0,0.2,0.1,0.4,0.1c0.5,0,0.9-0.3,1.1-0.8c0.2-0.6-0.1-1.3-0.7-1.5
		c-9-3-18.8-4.3-28.3-3.8c-0.6,0-1.1,0.6-1.1,1.2C528,158.8,528.6,159.3,529.2,159.2"/>
</g>
<g id="Слой_36">
	<path d="M517.1,183.4c0.1,0.6,0.7,1.1,1.3,0.9c10.3-1.9,21-0.2,30.2,4.7c0.2,0.1,0.4,0.1,0.5,0.1c0.4,0,0.8-0.2,1-0.6
		c0.3-0.6,0.1-1.3-0.5-1.6c-9.7-5.2-20.9-6.9-31.7-4.9C517.4,182.2,517,182.8,517.1,183.4"/>
</g>
<g id="Слой_35">
	<path d="M566.4,205.1c6.3-0.7,12.6,0.4,18.4,3.1c0.2,0.1,0.3,0.1,0.5,0.1c0.4,0,0.8-0.2,1-0.7c0.3-0.6,0-1.3-0.5-1.5
		c-6.1-2.9-12.9-4-19.6-3.3c-0.6,0.1-1.1,0.6-1,1.3C565.2,204.7,565.8,205.2,566.4,205.1"/>
</g>
<g id="Слой_34">
	<path d="M521.8,222.7c0-0.6-0.5-1.2-1.1-1.2c-0.2,0-0.3,0-0.5,0c-6.5,0-13,3.4-16.7,8.7c-0.4,0.5-0.2,1.3,0.3,1.6
		c0.2,0.1,0.4,0.2,0.7,0.2c0.4,0,0.7-0.2,1-0.5c3.4-4.8,9.3-7.9,15.2-7.7C521.3,223.9,521.7,223.4,521.8,222.7"/>
</g>
<g id="Слой_33">
	<path d="M532,260.6c-0.2,0.6,0.1,1.3,0.6,1.5c0.1,0.1,0.3,0.1,0.4,0.1c0.5,0,0.9-0.3,1.1-0.7c0.9-2.3,2.9-4.1,5.5-5
		c2.6-0.9,5.3-0.7,7.4,0.5c0.6,0.3,1.3,0.1,1.6-0.4c0.3-0.6,0.1-1.3-0.4-1.6c-2.7-1.5-6.1-1.7-9.3-0.6
		C535.7,255.4,533.2,257.7,532,260.6"/>
</g>
<g id="Слой_32">
	<path d="M600,266.5c-8.8-2.9-18.3-3.9-27.5-2.8c-0.6,0.1-1.1,0.6-1,1.3c0.1,0.6,0.6,1.1,1.3,1c8.9-1,18,0,26.5,2.7
		c0.1,0,0.2,0.1,0.4,0.1c0.5,0,0.9-0.3,1.1-0.8C600.9,267.3,600.6,266.7,600,266.5"/>
</g>
<g id="Слой_31">
	<path d="M617.4,270.8c6.8-1.2,14.2,0.8,19.4,5.3c0.2,0.2,0.5,0.3,0.8,0.3c0.3,0,0.6-0.1,0.9-0.4c0.4-0.5,0.4-1.2-0.1-1.6
		c-5.8-5-13.8-7.2-21.3-5.9c-0.6,0.1-1.1,0.7-0.9,1.3C616.1,270.5,616.7,271,617.4,270.8"/>
</g>
<g id="Слой_30">
	<path d="M578.4,229.4c-0.6,0.2-1,0.8-0.8,1.4c0.2,0.6,0.8,1,1.4,0.8c5.8-1.7,12.4-0.8,17.6,2.3c0.2,0.1,0.4,0.2,0.6,0.2
		c0.4,0,0.8-0.2,1-0.6c0.3-0.6,0.1-1.3-0.4-1.6C592.1,228.4,584.8,227.5,578.4,229.4"/>
</g>
<g id="Слой_29">
	<path d="M538.4,228.1c0.5,0,1-0.4,1.1-0.9c0.2-0.9,1.1-1.4,1.8-1.5c0.7-0.2,1.7-0.1,2.3,0.7c0.4,0.5,1.1,0.6,1.6,0.2
		c0.5-0.4,0.6-1.1,0.2-1.6c-1-1.4-2.8-1.9-4.6-1.5c-1.9,0.4-3.2,1.7-3.6,3.3c-0.1,0.6,0.3,1.2,0.9,1.4
		C538.2,228.1,538.3,228.1,538.4,228.1"/>
</g>
<g id="Слой_28">
	<path d="M397.7,271.4c0.2,0,0.5-0.1,0.7-0.2c6.1-4.5,13.7-7.2,21.3-7.6c0.6,0,1.1-0.6,1.1-1.2c0-0.6-0.6-1.2-1.2-1.1
		c-8,0.4-16,3.2-22.5,8c-0.5,0.4-0.6,1.1-0.3,1.6C397,271.2,397.4,271.4,397.7,271.4"/>
</g>
<g id="Слой_27">
	<path d="M314.8,275.4c0.2,0,0.5-0.1,0.7-0.2c6.4-4.8,14.9-6.5,22.6-4.7c0.6,0.1,1.2-0.2,1.4-0.9c0.1-0.6-0.2-1.2-0.9-1.4
		c-8.4-2-17.6-0.1-24.5,5.1c-0.5,0.4-0.6,1.1-0.2,1.6C314.1,275.2,314.4,275.4,314.8,275.4"/>
</g>
<g id="Слой_26">
	<path d="M274.5,289.6c-0.5,0.3-0.7,1.1-0.3,1.6c0.4,0.5,1.1,0.7,1.6,0.3c3.7-2.4,8.9-2.4,12.6,0.2c0.2,0.1,0.4,0.2,0.7,0.2
		c0.4,0,0.7-0.2,1-0.5c0.4-0.5,0.2-1.2-0.3-1.6C285.3,286.8,279.1,286.7,274.5,289.6"/>
</g>
<g id="Слой_25">
	<path d="M317.1,338c-5.5-2.8-12.1-3.3-17.9-1.3c-0.6,0.2-0.9,0.9-0.7,1.5c0.2,0.6,0.9,0.9,1.5,0.7c5.2-1.8,11.2-1.3,16.1,1.2
		c0.2,0.1,0.3,0.1,0.5,0.1c0.4,0,0.8-0.2,1-0.6C317.9,338.9,317.7,338.2,317.1,338"/>
</g>
<g id="Слой_24">
	<path d="M320.3,367.8c-0.6,0.1-1,0.8-0.9,1.4c0.1,0.6,0.7,1,1.4,0.9c9.2-2,19.1,0.3,26.5,6c0.2,0.2,0.5,0.2,0.7,0.2
		c0.3,0,0.7-0.2,0.9-0.4c0.4-0.5,0.3-1.2-0.2-1.6C340.8,368.1,330.2,365.7,320.3,367.8"/>
</g>
<g id="Слой_23">
	<path d="M374.9,353.4c0.3-0.6,0.1-1.3-0.5-1.6c-8.8-4.6-19.4-5.8-29.1-3.3c-0.6,0.2-1,0.8-0.8,1.4c0.2,0.6,0.8,1,1.4,0.8
		c9.1-2.4,19.1-1.3,27.4,3.1c0.2,0.1,0.4,0.1,0.5,0.1C374.3,354,374.7,353.8,374.9,353.4"/>
</g>
<g id="Слой_22">
	<path d="M404.1,323.9c0.6,0.2,1.3-0.1,1.5-0.7c0.2-0.6-0.1-1.3-0.7-1.5c-11.1-4.2-24.1-2.1-33.3,5.4c-0.5,0.4-0.6,1.1-0.2,1.6
		c0.2,0.3,0.6,0.4,0.9,0.4c0.3,0,0.5-0.1,0.7-0.3C381.6,322,393.8,320,404.1,323.9"/>
</g>
<g id="Слой_21">
	<path d="M413.4,304.5c6.3-2.5,13.8-2,19.7,1.4c0.2,0.1,0.4,0.2,0.6,0.2c0.4,0,0.8-0.2,1-0.6c0.3-0.6,0.1-1.3-0.4-1.6
		c-6.6-3.7-14.7-4.3-21.7-1.5c-0.6,0.2-0.9,0.9-0.6,1.5C412.1,304.4,412.8,304.7,413.4,304.5"/>
</g>
<g id="Слой_20">
	<path d="M413.4,359.8c-0.6-0.2-1.2,0.2-1.4,0.8c-0.2,0.6,0.2,1.3,0.8,1.4c7.5,1.9,14.5,6,19.8,11.6c0.2,0.2,0.5,0.4,0.8,0.4
		c0.3,0,0.6-0.1,0.8-0.3c0.5-0.4,0.5-1.2,0.1-1.6C428.7,366.1,421.3,361.8,413.4,359.8"/>
</g>
<g id="Слой_19">
	<path d="M389.9,384.2L389.9,384.2c-0.7,0-1.2,0.5-1.2,1.1c0,0.6,0.5,1.2,1.1,1.2c14.9,0.5,29.3,7.1,39.5,18
		c0.2,0.2,0.5,0.4,0.8,0.4c0.3,0,0.6-0.1,0.8-0.3c0.5-0.4,0.5-1.2,0.1-1.6C420.4,391.5,405.4,384.7,389.9,384.2"/>
</g>
<g id="Слой_18">
	<path d="M458.1,324c-11.4-3-23.7-2.2-34.6,2.1c-0.6,0.2-0.9,0.9-0.6,1.5c0.2,0.5,0.6,0.7,1.1,0.7c0.1,0,0.3,0,0.4-0.1
		c10.5-4.2,22.2-4.9,33.1-2.1c0.6,0.2,1.3-0.2,1.4-0.8C459.1,324.8,458.7,324.1,458.1,324"/>
</g>
<g id="Слой_17">
	<path d="M458.8,300.2c12.9-6.7,29.4-6.5,42.1,0.5c0.2,0.1,0.4,0.1,0.6,0.1c0.4,0,0.8-0.2,1-0.6c0.3-0.6,0.1-1.3-0.5-1.6
		c-13.6-7.5-30.6-7.7-44.3-0.5c-0.6,0.3-0.8,1-0.5,1.6C457.5,300.3,458.2,300.5,458.8,300.2"/>
</g>
<g id="Слой_16">
	<path d="M516.1,353.6c-10.9-6.1-24.1-7.9-36.3-4.9c-0.6,0.2-1,0.8-0.9,1.4c0.2,0.6,0.8,1,1.4,0.8c11.6-2.8,24.2-1.1,34.6,4.7
		c0.2,0.1,0.4,0.1,0.6,0.1c0.4,0,0.8-0.2,1-0.6C516.8,354.6,516.6,353.9,516.1,353.6"/>
</g>
<g id="Слой_15">
	<path d="M482.4,396.5c8-1.9,16.7-1.2,24.3,1.9c0.1,0.1,0.3,0.1,0.4,0.1c0.5,0,0.9-0.3,1.1-0.7c0.2-0.6,0-1.3-0.6-1.5
		c-8.1-3.3-17.2-4-25.7-2c-0.6,0.1-1,0.8-0.9,1.4C481.2,396.3,481.8,396.6,482.4,396.5"/>
</g>
<g id="Слой_14">
	<path d="M549.3,383.2c0.2,0.1,0.3,0.1,0.5,0.1c0.4,0,0.8-0.2,1-0.6c0.3-0.6,0-1.3-0.5-1.6c-8.7-4.3-18.5-6.4-28.3-5.9
		c-0.6,0-1.1,0.6-1.1,1.2c0,0.6,0.6,1.1,1.2,1.1C531.5,377.1,540.9,379.1,549.3,383.2"/>
</g>
<g id="Слой_13">
	<path d="M599.7,342.4c-16-8.6-34-13.2-52.2-13.4h0c-0.6,0-1.2,0.5-1.2,1.1c0,0.6,0.5,1.2,1.1,1.2c17.8,0.2,35.5,4.7,51.1,13.1
		c0.2,0.1,0.4,0.1,0.5,0.1c0.4,0,0.8-0.2,1-0.6C600.5,343.4,600.2,342.7,599.7,342.4"/>
</g>
<g id="Слой_12">
	<path d="M611.9,315.7c-0.6,0.1-1,0.7-0.9,1.4c0.1,0.6,0.7,1,1.4,0.9c10.9-2.2,22.5,1.3,30.4,9.1c0.2,0.2,0.5,0.3,0.8,0.3
		c0.3,0,0.6-0.1,0.8-0.3c0.5-0.5,0.4-1.2,0-1.6C636,317,623.5,313.3,611.9,315.7"/>
</g>
<g id="Слой_11">
	<path d="M625.4,352.9h-0.2c-0.6,0-1.2,0.5-1.1,1.2c0,0.6,0.5,1.1,1.2,1.1h0c4.2,0,8.6,2.1,11.2,5.5c2.6,3.4,3.5,8.1,2.3,12.3
		c-0.2,0.6,0.2,1.3,0.8,1.4c0.1,0,0.2,0,0.3,0c0.5,0,1-0.3,1.1-0.8c1.4-4.8,0.3-10.3-2.7-14.3C635.3,355.3,630.3,352.9,625.4,352.9"
		/>
</g>
<g id="Слой_10">
	<path d="M605.5,380.5c-0.6,0.3-0.7,1-0.4,1.6c4.7,8,5.7,18.1,2.8,27c-0.2,0.6,0.1,1.3,0.7,1.5c0.1,0,0.2,0.1,0.4,0.1
		c0.5,0,0.9-0.3,1.1-0.8c3.2-9.5,2.1-20.3-3-28.9C606.8,380.4,606.1,380.2,605.5,380.5"/>
</g>
<g id="Слой_9">
	<path d="M548.8,302.5c0.3,0.6,1,0.8,1.6,0.5c8.7-4.3,19.3-4.1,27.9,0.4c0.2,0.1,0.4,0.1,0.5,0.1c0.4,0,0.8-0.2,1-0.6
		c0.3-0.6,0.1-1.3-0.5-1.6c-9.2-4.9-20.7-5.1-30-0.4C548.7,301.2,548.5,301.9,548.8,302.5"/>
</g>
<g id="Слой_8">
	<path d="M462,415.4c-0.6-0.2-1.3,0.2-1.4,0.8c-0.2,0.6,0.2,1.3,0.8,1.4c17.4,4.7,33.7,14.7,45.9,28.1c0.2,0.3,0.5,0.4,0.9,0.4
		c0.3,0,0.6-0.1,0.8-0.3c0.5-0.4,0.5-1.2,0.1-1.6C496.5,430.5,479.8,420.3,462,415.4"/>
</g>
<g id="Слой_7">
	<path d="M525.6,423c-0.6-0.2-1.3,0.2-1.4,0.8c-0.2,0.6,0.2,1.3,0.8,1.4c10.5,3.2,19.5,11.1,24.1,21c0.2,0.4,0.6,0.7,1.1,0.7
		c0.2,0,0.3,0,0.5-0.1c0.6-0.3,0.8-1,0.6-1.5C546.3,434.7,536.7,426.4,525.6,423"/>
</g>
<g id="Слой_6">
	<path d="M567.9,406.2c-0.6-0.2-1.3,0-1.5,0.6c-0.2,0.6,0,1.3,0.6,1.5c8.5,3.6,14.6,12.6,14.7,21.8c0,0.6,0.5,1.1,1.2,1.1h0
		c0.6,0,1.2-0.5,1.1-1.2C583.9,420,577.3,410.1,567.9,406.2"/>
</g>
<g id="Слой_5">
	<path d="M473.8,457c-0.5-0.4-1.2-0.3-1.6,0.2c-0.4,0.5-0.3,1.2,0.2,1.6c9.9,7.5,13.6,22.1,8.3,33.4c-0.3,0.6,0,1.3,0.6,1.5
		c0.2,0.1,0.3,0.1,0.5,0.1c0.4,0,0.9-0.3,1.1-0.7C488.5,481.1,484.5,465.2,473.8,457"/>
</g>
<g id="Слой_4">
	<path d="M441,450.5c-0.6-0.2-1.3,0.2-1.4,0.8c-0.2,0.6,0.2,1.3,0.8,1.4c4.5,1.3,8.3,5,9.7,9.5c1.4,4.5,0.3,9.7-2.7,13.3
		c-0.4,0.5-0.3,1.2,0.1,1.6c0.2,0.2,0.5,0.3,0.7,0.3c0.3,0,0.7-0.1,0.9-0.4c3.5-4.2,4.7-10.3,3.1-15.5
		C450.6,456.4,446.2,452,441,450.5"/>
</g>
<g id="Слой_3">
	<path d="M410.4,433.4c-0.6,0.2-0.9,0.9-0.6,1.5c3.4,8,4.1,17.1,2,25.6c-0.2,0.6,0.2,1.2,0.8,1.4c0.1,0,0.2,0,0.3,0
		c0.5,0,1-0.4,1.1-0.9c2.2-8.9,1.5-18.6-2.1-27.1C411.6,433.4,411,433.1,410.4,433.4"/>
</g>
<g id="Слой_2">
	<path d="M375.6,406.1c-0.6-0.3-1.3-0.1-1.6,0.4c-0.3,0.6-0.1,1.3,0.4,1.6c2.1,1.2,3.5,3.6,3.7,6.3s-0.8,5.3-2.6,6.8
		c-0.5,0.4-0.6,1.1-0.2,1.6c0.2,0.3,0.6,0.4,0.9,0.4c0.3,0,0.5-0.1,0.7-0.3c2.5-2,3.7-5.3,3.5-8.8
		C380.1,410.8,378.3,407.7,375.6,406.1"/>
</g>
</svg>
