<?xml version="1.0" encoding="UTF-8"?>
<!-- Generator: visioncortex VTracer 0.6.3 -->
<svg version="1.1" xmlns="http://www.w3.org/2000/svg" width="1280" height="1280">
<path d="M0 0 C17.72 16.17 30.65 36.69 43.98 56.45 C58.16 77.53 58.16 77.53 72.95 98.18 C74.45 100.21 75.94 102.25 77.43 104.29 C82.64 111.36 88.04 118.16 93.82 124.78 C99.54 131.37 104.81 138.3 110.02 145.3 C111.17 146.83 112.33 148.36 113.5 149.88 C126.33 167.24 131.59 186.06 131.64 207.48 C131.65 209.74 131.68 212 131.71 214.26 C131.8 225.25 130.61 235.25 126.21 245.46 C124.28 250.13 123.51 253.09 124.4 258.14 C128.03 263.94 133.71 268.31 138.79 272.79 C145.05 278.43 150.97 284.43 156.44 290.84 C157.99 292.66 159.56 294.45 161.15 296.23 C167.95 303.91 173.84 311.87 179.36 320.51 C180.76 322.7 182.2 324.86 183.65 327.02 C184.11 327.71 184.57 328.4 185.04 329.11 C185.99 330.54 186.97 331.96 187.96 333.37 C196.4 345.6 196.4 345.6 196.4 353.14 C192.75 351.7 191.47 350.07 189.53 346.71 C180.86 332.56 170.51 319.45 159.4 307.14 C158.91 306.6 158.43 306.06 157.92 305.5 C150.21 296.93 142.13 288.7 134.04 280.5 C132.91 279.35 131.79 278.2 130.66 277.05 C129.08 275.42 127.47 273.8 125.87 272.18 C125.39 271.69 124.91 271.2 124.42 270.69 C121.55 267.83 119.47 266.49 115.4 266.14 C115.04 266.71 114.68 267.28 114.3 267.87 C111.36 272.38 108.34 276.57 104.7 280.54 C102.31 283.5 101.36 285.22 101.54 289.11 C102.53 292.61 103.75 294.12 106.28 296.71 C123.53 315 136.78 335.5 148.59 357.64 C148.96 358.34 149.34 359.04 149.72 359.76 C152.94 365.91 152.94 365.91 153.4 369.14 C152.74 369.8 152.08 370.46 151.4 371.14 C146.51 366.36 143.02 361.04 139.65 355.14 C124.9 327.85 124.9 327.85 103.4 307.14 C103.55 307.98 103.69 308.82 103.84 309.69 C113.72 367.16 121.69 424.92 125.4 483.14 C125.45 483.83 125.49 484.51 125.54 485.22 C126.26 496.55 126.57 507.84 126.57 519.19 C126.57 520.86 126.58 522.53 126.58 524.2 C126.59 527.67 126.59 531.15 126.59 534.62 C126.59 538.13 126.59 541.64 126.61 545.15 C126.78 589.78 123.23 625.33 99.8 664.17 C97.45 668.05 95.13 671.96 92.82 675.87 C78.51 700.08 78.51 700.08 71.9 710.64 C66.1 719.93 60.51 729.34 54.94 738.76 C48.35 749.9 41.68 760.99 34.92 772.02 C31.28 777.99 27.73 783.99 24.4 790.14 C25.14 790.26 25.89 790.38 26.65 790.5 C77.41 798.66 139.94 819 173.16 860.34 C178.9 868.86 180.76 879.01 179.4 889.14 C177.42 893.97 174.04 896.1 169.4 898.14 C136.28 908.22 95.5 906.21 61.14 906.5 C59.44 906.51 57.74 906.53 56.03 906.56 C37.59 906.84 20.71 903.05 3.34 897.05 C1.08 896.26 -1.19 895.5 -3.46 894.74 C-52.92 878.04 -52.92 878.04 -64.6 859.14 C-68.42 850.64 -70.97 841.79 -73.22 832.77 C-73.52 831.58 -73.82 830.4 -74.13 829.17 C-74.97 825.83 -75.79 822.49 -76.6 819.14 C-76.79 818.37 -76.98 817.6 -77.17 816.81 C-78.62 810.73 -79.58 804.72 -80.07 798.5 C-80.15 797.5 -80.23 796.5 -80.31 795.48 C-80.46 793.5 -80.58 791.53 -80.69 789.55 C-80.95 785.72 -81.15 782.91 -83.1 779.56 C-85.73 778.07 -87.28 777.84 -90.25 777.56 C-91.47 777.44 -91.47 777.44 -92.72 777.31 C-93.34 777.26 -93.96 777.2 -94.6 777.14 C-94.62 777.76 -94.63 778.37 -94.65 779 C-94.85 785.48 -95.06 791.95 -95.29 798.43 C-95.37 800.83 -95.44 803.24 -95.52 805.65 C-96.76 846.99 -96.76 846.99 -106.47 857.46 C-111.58 862.26 -117.22 866.45 -122.76 870.72 C-125.04 872.49 -127.3 874.28 -129.56 876.08 C-132.56 878.45 -135.58 880.8 -138.6 883.14 C-139.37 883.74 -140.14 884.34 -140.94 884.96 C-146.75 889.46 -152.63 893.85 -158.6 898.14 C-159.21 898.58 -159.81 899.03 -160.44 899.48 C-167.61 904.54 -174.98 907.04 -183.38 909.25 C-184.48 909.54 -185.59 909.84 -186.74 910.14 C-203.95 914.63 -221.32 918.46 -238.67 922.37 C-242.45 923.23 -246.22 924.09 -250 924.95 C-261.23 927.5 -272.47 930.03 -283.72 932.51 C-285.67 932.94 -287.61 933.37 -289.56 933.8 C-295.47 935.11 -301.38 936.4 -307.29 937.67 C-309.14 938.07 -310.98 938.47 -312.82 938.88 C-333.55 943.45 -333.55 943.45 -342.6 942.14 C-346.87 939.13 -349.15 935.62 -350.08 930.48 C-351.86 910.66 -342.37 894.73 -330.29 879.64 C-318.56 865.65 -306.01 852.38 -291.6 841.14 C-290.34 840.14 -289.09 839.13 -287.83 838.12 C-264.53 819.62 -236.7 804.16 -207.6 797.14 C-210.08 794.56 -212.66 792.08 -215.29 789.64 C-215.89 789.08 -216.49 788.51 -217.11 787.93 C-223.94 783.04 -231.06 781.41 -239.29 780.46 C-240.18 780.34 -241.07 780.22 -241.99 780.1 C-253.7 778.63 -265.49 778.02 -277.29 777.64 C-279.16 777.58 -279.16 777.58 -281.08 777.52 C-291.51 777.19 -301.94 777 -312.38 776.82 C-347.29 776.21 -382.21 775.36 -417.04 772.64 C-417.81 772.58 -418.59 772.53 -419.39 772.46 C-427.07 771.86 -434.61 771.07 -442.18 769.58 C-445.21 769.03 -448.22 768.81 -451.3 768.61 C-515.32 764.44 -588.39 747.68 -640.68 709.42 C-644.44 706.92 -648.22 706.46 -652.6 707.14 C-654.62 707.87 -656.61 708.65 -658.6 709.46 C-679.63 717.91 -703.76 717.52 -726.1 717.39 C-727.15 717.39 -728.2 717.39 -729.28 717.38 C-755.11 717.28 -780.39 715.29 -806.04 712.27 C-807.61 712.09 -807.61 712.09 -809.21 711.9 C-820.54 710.56 -831.82 709.04 -843.07 707.14 C-844 706.98 -844.92 706.83 -845.88 706.67 C-851.66 705.66 -857.09 704.17 -862.6 702.14 C-863.43 696.46 -864.12 690.77 -862.6 685.14 C-859.36 681.18 -855.39 678.96 -850.98 676.51 C-847.32 674.41 -843.85 672.02 -840.35 669.67 C-812.66 651.18 -786.46 639.56 -753.6 633.14 C-760.8 627.81 -768.01 622.51 -775.41 617.46 C-790.94 606.77 -790.94 606.77 -795.6 600.14 C-796.1 596.52 -796.1 596.52 -795.6 593.14 C-792.33 589.85 -788.15 588.88 -783.79 587.71 C-783.01 587.5 -782.23 587.28 -781.44 587.07 C-763.99 582.49 -746.23 579.9 -728.2 580.19 C-725.84 580.21 -723.48 580.23 -721.12 580.25 C-717.44 580.29 -713.75 580.33 -710.07 580.39 C-706.49 580.45 -702.91 580.47 -699.33 580.5 C-698.23 580.52 -697.12 580.55 -695.99 580.57 C-689.93 580.63 -689.93 580.63 -684.47 578.28 C-682.35 575.86 -680.86 573.48 -679.35 570.64 C-667.1 548.98 -648.22 531.68 -628.64 516.7 C-627.22 515.62 -625.81 514.54 -624.41 513.45 C-606.63 499.75 -588.38 486.97 -568.54 476.43 C-532.88 457.44 -495.6 432.1 -467.36 402.91 C-465.64 401.19 -463.85 399.64 -461.97 398.08 C-450.28 387.93 -440.86 376.17 -432.6 363.14 C-432.14 362.42 -431.68 361.7 -431.2 360.96 C-417.34 339.11 -408.26 320.09 -405.42 294.17 C-403.65 278.03 -400.25 262.44 -396.21 246.72 C-390.33 223.65 -389.16 200.56 -389.04 176.83 C-388.9 156.98 -388.74 137.08 -384.91 117.52 C-384.74 116.67 -384.58 115.81 -384.4 114.93 C-380.36 95.64 -371.97 76.78 -358.6 62.14 C-358.13 61.63 -357.66 61.11 -357.17 60.58 C-348.01 50.61 -337.83 42.65 -326.6 35.14 C-326 34.75 -325.4 34.35 -324.79 33.93 C-254.1 -12.73 -134.56 -44.49 0 0 Z M-227.1 8.39 C-228.08 8.7 -228.08 8.7 -229.08 9.01 C-236.5 11.32 -243.7 13.92 -250.84 16.98 C-254.12 18.37 -257.45 19.6 -260.8 20.82 C-283.51 29.14 -309.2 38.95 -327.6 55.14 C-328.24 55.71 -328.89 56.27 -329.55 56.85 C-330.88 58 -332.19 59.17 -333.5 60.34 C-335.8 62.31 -338.19 64.12 -340.6 65.96 C-352.94 75.83 -360.37 89.65 -365.35 104.39 C-365.62 105.19 -365.89 105.99 -366.16 106.81 C-370.58 120.63 -373.17 134.22 -373.3 148.73 C-373.32 151.18 -373.37 153.63 -373.42 156.08 C-373.5 160.41 -373.57 164.75 -373.62 169.08 C-373.73 176.81 -373.85 184.54 -374.01 192.27 C-374.02 193.1 -374.04 193.93 -374.06 194.78 C-374.5 215.46 -376.94 235.34 -381.92 255.42 C-382.87 259.23 -383.77 263.04 -384.68 266.85 C-385.11 268.66 -385.55 270.47 -385.99 272.27 C-392.37 298.7 -385.61 322.83 -372.51 346.12 C-368.93 351.77 -364.79 356.94 -360.6 362.14 C-359.22 363.91 -357.84 365.68 -356.47 367.46 C-355.51 368.69 -354.56 369.92 -353.6 371.14 C-350.65 368.53 -348.87 365.49 -346.87 362.11 C-346.14 360.9 -345.41 359.68 -344.68 358.46 C-343.55 356.57 -342.43 354.67 -341.3 352.77 C-335.05 342.25 -328.51 332.19 -320.28 323.08 C-318.6 321.15 -317.11 319.15 -315.6 317.08 C-312.72 313.28 -309.49 310.06 -306.06 306.77 C-293.82 295.02 -289.84 284.71 -287.89 268.04 C-287.6 266.14 -287.6 266.14 -286.6 263.14 C-286.18 259.69 -286.18 259.69 -286.6 256.14 C-289.13 253.13 -291.77 251.35 -295.22 249.52 C-309.34 241.2 -317.53 227.75 -321.6 212.14 C-324.51 197.07 -321.74 181.25 -313.6 168.14 C-306.81 158.16 -295.29 151.54 -283.66 148.89 C-270.74 146.68 -257.66 148.84 -246.6 156.14 C-238.91 162.26 -232.83 168.79 -227.6 177.14 C-226.79 178.35 -225.98 179.56 -225.16 180.77 C-224.64 181.55 -224.13 182.34 -223.6 183.14 C-218.51 180.41 -213.59 177.51 -208.72 174.39 C-172.58 152.2 -132.54 145.68 -90.85 146.02 C-88.67 146.03 -86.5 146.04 -84.33 146.05 C-79.08 146.07 -73.84 146.1 -68.6 146.14 C-68.55 145.57 -68.5 145 -68.45 144.42 C-68.22 141.8 -67.98 139.18 -67.74 136.57 C-67.66 135.67 -67.59 134.77 -67.51 133.85 C-66.18 119.75 -59.86 109.21 -49.16 100.04 C-37.17 91.18 -25.06 89.23 -10.6 90.14 C1.59 92.09 12.24 97.9 20.4 107.14 C30.84 122.06 34.88 138.7 32.9 156.77 C31.41 165.04 27.44 172.83 22.62 179.68 C20.99 182.99 21.33 184.65 22.4 188.14 C24 190.66 24 190.66 26.09 192.96 C28.8 196.17 31.24 199.33 33.46 202.89 C39.12 211.43 45.89 214.47 55.26 218.26 C71.47 224.93 86.85 232.38 100.87 243 C104.25 245.59 104.25 245.59 108.4 246.14 C117.76 219.39 119.73 195.97 107.31 169.85 C100.99 157.24 91.59 145.67 82.03 135.33 C68.62 120.71 57.12 103.84 46.65 87.02 C32.58 64.41 17.07 42.11 -0.6 22.14 C-1.26 21.38 -1.26 21.38 -1.94 20.6 C-19.58 0.32 -40.31 -13.04 -67.4 -15.64 C-121.7 -19.27 -175.5 -7.66 -227.1 8.39 Z M-45.86 109.25 C-54.45 118.45 -57.99 128.03 -57.72 140.58 C-57.71 141.41 -57.7 142.24 -57.7 143.09 C-57.67 145.11 -57.64 147.13 -57.6 149.14 C-55.62 149.14 -53.64 149.14 -51.6 149.14 C-51.69 148.28 -51.79 147.42 -51.89 146.54 C-53.03 134.39 -53.04 122.08 -45.03 112.21 C-40.64 107.48 -36.43 104.48 -29.8 103.9 C-18.97 103.66 -10.3 105.4 -1.6 112.14 C5.82 119.67 10.48 129.1 10.65 139.71 C10.58 147.29 9.28 154.41 5.21 160.89 C3.08 164.72 2.67 166.83 3.4 171.14 C5.95 174.07 7.5 175.03 11.35 175.54 C14.5 175.44 14.5 175.44 16.41 173.2 C24.9 159.33 25.96 145.73 22.4 130.14 C19.16 118.62 11.48 109.48 1.4 103.14 C-14.12 94.63 -32.98 97.23 -45.86 109.25 Z M-28.97 114.14 C-31.28 118.4 -32.31 122.4 -31.09 127.11 C-29.82 130.29 -28.53 133.32 -25.6 135.14 C-22.89 135.94 -20.42 136.35 -17.6 136.14 C-15.12 134.3 -13.97 132.88 -12.6 130.14 C-12.14 123.29 -13.2 119.4 -17.35 113.77 C-21.42 110.83 -25.15 110.93 -28.97 114.14 Z M-257.07 227.05 C-270.3 242.82 -277.59 260.84 -280.6 281.14 C-275.28 279.63 -270.9 277.15 -266.16 274.39 C-255.69 268.43 -244.14 261.9 -231.79 262.08 C-230.99 262.09 -230.2 262.1 -229.39 262.11 C-228.8 262.12 -228.21 262.13 -227.6 262.14 C-227.27 262.8 -226.94 263.46 -226.6 264.14 C-228.05 264.44 -228.05 264.44 -229.54 264.74 C-246.57 268.44 -268.83 277.42 -279.04 292.33 C-281.91 297.99 -281.4 304.22 -279.76 310.19 C-278.36 314.18 -276.95 317.62 -274.6 321.14 C-273.94 321.14 -273.28 321.14 -272.6 321.14 C-271.3 319.8 -271.3 319.8 -270.02 317.99 C-269.25 316.96 -269.25 316.96 -268.46 315.91 C-267.91 315.16 -267.35 314.42 -266.79 313.64 C-265.61 312.08 -264.44 310.52 -263.26 308.96 C-262.65 308.16 -262.05 307.36 -261.43 306.54 C-258.58 302.82 -255.67 299.16 -252.72 295.52 C-252.21 294.88 -251.7 294.24 -251.18 293.59 C-246.19 287.44 -241.13 281.62 -234.16 277.71 C-232.86 276.97 -232.86 276.97 -231.54 276.21 C-230.9 275.86 -230.26 275.51 -229.6 275.14 C-230.96 279.18 -232.75 281.73 -235.66 284.83 C-236.46 285.7 -237.26 286.57 -238.09 287.46 C-238.92 288.35 -239.75 289.23 -240.6 290.14 C-245.93 295.94 -251.01 301.74 -255.6 308.14 C-256.93 309.98 -258.26 311.81 -259.6 313.64 C-260.27 314.58 -260.94 315.51 -261.62 316.47 C-262.86 318.15 -264.14 319.8 -265.48 321.41 C-268.76 325.37 -268.76 325.37 -269.91 330.27 C-267.22 336.16 -261.53 339.85 -255.6 342.14 C-252.39 341.45 -252.39 341.45 -251.19 338.59 C-250.47 336.91 -250.47 336.91 -249.74 335.2 C-249.48 334.59 -249.22 333.99 -248.95 333.36 C-248.38 332.07 -247.83 330.77 -247.27 329.47 C-245.84 326.12 -244.36 322.79 -242.89 319.45 C-242.6 318.8 -242.31 318.16 -242.02 317.49 C-229.88 290.29 -229.88 290.29 -221.6 286.14 C-221.98 287.48 -222.38 288.81 -222.79 290.14 C-223.01 290.89 -223.23 291.63 -223.45 292.39 C-224.6 295.14 -224.6 295.14 -226.77 298.46 C-230.5 304.27 -233.07 310.66 -235.79 316.98 C-236.72 319.14 -237.66 321.3 -238.6 323.46 C-239.21 324.85 -239.81 326.25 -240.42 327.64 C-240.83 328.59 -240.83 328.59 -241.25 329.56 C-245.15 338.07 -245.15 338.07 -246.6 347.14 C-232.7 352.85 -217.35 345.77 -204.3 340.49 C-189.27 334.2 -173.78 326.43 -161.08 316.1 C-158.42 314 -155.69 312.41 -152.72 310.77 C-149.27 308.8 -146.16 306.95 -143.29 304.21 C-139.98 301.2 -136.25 299.08 -132.35 296.96 C-131.75 296.62 -131.16 296.29 -130.54 295.95 C-119.99 290.36 -109.45 289.65 -97.72 289.77 C-96.97 289.77 -96.21 289.77 -95.43 289.78 C-83.71 289.83 -72.14 290.56 -60.47 291.64 C-46.73 292.92 -33.09 293.48 -19.29 293.52 C-18.4 293.53 -17.52 293.53 -16.61 293.54 C-14.09 293.56 -11.57 293.56 -9.05 293.54 C-8.31 293.55 -7.57 293.55 -6.81 293.56 C1.64 293.45 7.67 290.62 13.65 284.77 C14.16 284.3 14.66 283.83 15.18 283.35 C18.2 280.48 21.11 277.63 23.4 274.14 C23.16 266.68 12.7 259.42 7.83 254.6 C-3.7 242.94 -3.7 242.94 -6.6 237.14 C0.31 240.01 5.13 243.44 10.25 248.88 C12.25 250.99 14.32 252.88 16.53 254.77 C20.35 258.04 23.9 261.54 27.4 265.14 C31.41 261.55 33.72 257.89 35.03 252.64 C33.18 245.24 21.38 240.21 15.34 236.52 C-2.36 225.61 -2.36 225.61 -3.6 223.14 C5.91 225.6 13.76 229.25 22.09 234.39 C24.2 235.67 26.3 236.95 28.41 238.22 C29.33 238.78 30.24 239.34 31.18 239.92 C33.27 241.31 33.27 241.31 35.4 241.14 C35.77 233.89 35.72 226.77 32.4 220.14 C24.57 212.51 8.34 213.04 -2.02 213.01 C-4.63 213.15 -7.05 213.57 -9.6 214.14 C-7.6 211.14 -7.6 211.14 -5.4 210.48 C-2.18 210.1 0.99 209.93 4.23 209.83 C5.53 209.79 6.82 209.74 8.15 209.7 C9.51 209.66 10.86 209.62 12.21 209.58 C13.59 209.54 14.96 209.5 16.34 209.45 C19.69 209.35 23.05 209.24 26.4 209.14 C22.57 202.84 18.84 196.86 13.53 191.71 C12.98 191.17 12.43 190.64 11.87 190.08 C-17.76 161.96 -61.5 153.05 -101.39 153.96 C-163.65 157.6 -215.19 180.19 -257.07 227.05 Z M-304.91 171.89 C-313.34 183.07 -314.79 195.4 -312.91 208.96 C-310.54 221.74 -305.18 231.31 -294.82 239.29 C-289.79 242.68 -285.71 245.01 -279.6 245.14 C-278.76 243.86 -277.93 242.56 -277.1 241.27 C-276.63 240.55 -276.17 239.83 -275.69 239.09 C-274.43 237.23 -274.43 237.23 -274.6 235.14 C-275.76 234.62 -275.76 234.62 -276.94 234.08 C-290.04 227.87 -296 221.47 -301.6 208.14 C-304.67 199.34 -303.5 186.9 -299.86 178.51 C-295.59 170.49 -290.35 165.06 -281.6 162.14 C-269.66 161.31 -259.42 161.86 -249.79 169.77 C-242.83 176.49 -239.13 183.66 -237.6 193.14 C-236.28 192.81 -234.96 192.48 -233.6 192.14 C-232.79 184.54 -235.88 179.81 -240.32 173.82 C-247.85 164.72 -257.99 157.96 -269.88 156.83 C-283.93 156.34 -295.76 161.12 -304.91 171.89 Z M-272.6 174.14 C-274.36 179.42 -274.25 184.36 -272.35 189.58 C-270.52 192.25 -269.71 193.32 -266.6 194.14 C-263.49 193.99 -262.11 193.7 -259.97 191.4 C-257.61 187.52 -258.07 183.54 -258.6 179.14 C-259.89 176.05 -260.79 174.69 -263.54 172.83 C-267.4 171.54 -269.25 171.91 -272.6 174.14 Z M43.4 222.14 C43.54 222.88 43.67 223.62 43.8 224.38 C43.98 225.4 44.16 226.41 44.34 227.46 C44.53 228.55 44.72 229.65 44.92 230.77 C45.36 233.85 45.5 236.79 45.59 239.89 C46.1 246.08 48.95 249.08 53.4 253.14 C54.23 253.98 54.23 253.98 55.08 254.84 C59.46 259.02 64.43 262.23 69.53 265.46 C70.21 265.89 70.89 266.32 71.59 266.77 C77.6 270.48 83.17 273.07 90.4 272.14 C93.13 270.17 93.13 270.17 95.4 267.14 C96.21 266.19 96.21 266.19 97.04 265.21 C100.26 261.37 100.26 261.37 101.82 256.71 C101.05 252 98.11 249.69 94.47 246.86 C93.31 246.06 92.14 245.29 90.96 244.52 C90 243.88 90 243.88 89.01 243.24 C67.62 228.86 67.62 228.86 43.4 222.14 Z M43.4 256.14 C38.8 264.72 38.8 264.72 38.4 274.14 C41.97 283.44 47.17 291.02 56.4 295.14 C61.35 295.66 63.93 294.64 68.03 291.89 C68.95 291.29 69.87 290.69 70.82 290.07 C73.31 288.21 75.47 286.58 77.4 284.14 C77.71 282.1 77.71 282.1 76.4 280.14 C74.44 278.33 72.53 276.74 70.4 275.14 C69.79 274.68 69.18 274.21 68.55 273.73 C56.48 264.15 56.48 264.15 43.4 256.14 Z M-148.68 321.33 C-152.42 326.24 -153.44 330.54 -153.04 336.69 C-152.39 340.27 -151.45 341.87 -148.6 344.14 C-132.67 351.82 -112.24 350.57 -95.72 345.52 C-83.25 341.02 -70.82 334.66 -60.6 326.14 C-58.92 321.12 -61.47 316.81 -63.6 312.14 C-67.45 305.7 -71.08 302.07 -78.46 300.13 C-84.43 298.85 -90.39 298.54 -96.47 298.27 C-97.58 298.2 -98.69 298.13 -99.83 298.05 C-117.49 297.26 -136.66 308.7 -148.68 321.33 Z M5.04 300.14 C-0.99 301.7 -7.1 301.39 -13.29 301.34 C-14.58 301.34 -15.88 301.33 -17.22 301.33 C-20.65 301.32 -24.07 301.3 -27.5 301.28 C-31 301.26 -34.51 301.25 -38.02 301.24 C-44.88 301.22 -51.74 301.19 -58.6 301.14 C-57.31 305.1 -55.87 308.87 -54.14 312.65 C-43.45 336.01 -41.77 360.63 -41.13 386.02 C-41.09 387.4 -41.06 388.78 -41.02 390.16 C-40.85 395.95 -40.7 401.73 -40.55 407.51 C-40.46 411.08 -40.36 414.65 -40.25 418.22 C-40.2 420.2 -40.15 422.18 -40.1 424.16 C-40.3 440.75 -40.3 440.75 -33.6 455.14 C-30.12 457.46 -28.25 457.38 -24.19 456.8 C-11.96 453.7 -1.1 443.7 5.4 433.14 C26.97 396.68 25.63 343.48 15.67 303.86 C15.26 302.29 14.83 300.72 14.4 299.14 C10.97 298.97 8.35 299.16 5.04 300.14 Z M-292.6 302.14 C-309.2 319.31 -322.64 337.07 -335.6 357.14 C-336.12 357.96 -336.65 358.77 -337.19 359.61 C-338.51 361.67 -339.81 363.75 -341.1 365.83 C-341.79 366.95 -342.48 368.07 -343.19 369.22 C-344.66 372.26 -345.29 373.84 -344.6 377.14 C-338.98 383.12 -330.53 386.59 -322.6 388.14 C-318.74 387.9 -316.83 387.48 -314.18 384.61 C-310.06 379.14 -307 373.39 -303.97 367.27 C-298.91 357.28 -293.21 348.01 -286.74 338.89 C-283.25 333.56 -283.45 330.29 -284.6 324.14 C-285.46 320.44 -286.47 316.79 -287.54 313.14 C-287.8 312.19 -288.06 311.24 -288.34 310.26 C-288.6 309.35 -288.86 308.45 -289.12 307.52 C-289.36 306.7 -289.59 305.88 -289.84 305.04 C-290.43 302.95 -290.43 302.95 -292.6 302.14 Z M-171.83 332.96 C-173.39 333.86 -173.39 333.86 -174.99 334.77 C-176.1 335.41 -177.21 336.05 -178.35 336.71 C-190.98 343.88 -203.45 350.32 -217.23 355.02 C-221.36 356.47 -224.73 357.79 -227.6 361.14 C-228.94 367.53 -226.88 373.52 -224.66 379.46 C-224.35 380.32 -224.03 381.18 -223.71 382.07 C-216.07 402.67 -206.49 423.28 -193.6 441.14 C-192.88 442.15 -192.16 443.15 -191.42 444.19 C-179.68 460.21 -163.91 477.62 -143.08 480.97 C-139.5 481.22 -135.93 481.39 -132.35 481.46 C-131.66 481.48 -130.97 481.49 -130.27 481.51 C-124.83 481.5 -121.71 480.11 -117.79 476.46 C-114.87 470.79 -116.64 465.36 -118.41 459.58 C-123.26 445.31 -130.57 431.84 -137.66 418.58 C-152.79 390.18 -162.41 362.4 -163.6 330.14 C-167.24 330.14 -168.7 331.15 -171.83 332.96 Z M26.78 283.64 C23.7 286.88 22.74 289.78 22.4 294.14 C22.97 298.65 24.06 302.99 25.15 307.39 C34.86 349.87 34.99 402.69 11.4 441.14 C4.62 450.74 -7.34 461.39 -18.6 465.14 C-21.38 465.32 -24.12 465.42 -26.91 465.46 C-27.66 465.49 -28.4 465.52 -29.17 465.54 C-34.45 465.61 -37.52 464.79 -41.6 461.14 C-45.26 456 -46.45 451.4 -47.29 445.21 C-47.4 444.47 -47.52 443.73 -47.64 442.96 C-49.7 429 -49.72 414.86 -49.93 400.79 C-50.27 379.1 -50.95 357.42 -55.6 336.14 C-59.68 337.61 -63.08 339.62 -66.72 341.96 C-88.83 355.8 -117.36 361.03 -143.16 356.14 C-143.92 355.96 -144.69 355.77 -145.48 355.58 C-147.89 355.08 -150.14 355.08 -152.6 355.14 C-148.12 376.43 -139.91 395.25 -129.72 414.39 C-104.07 462.76 -104.07 462.76 -107.6 479.14 C-109.71 484 -114.03 486.22 -118.63 488.38 C-131.29 493.29 -147.3 489.73 -159.44 484.6 C-167 481.01 -173.3 476.62 -179.6 471.14 C-180.61 470.38 -181.62 469.62 -182.66 468.83 C-187.18 464.7 -190.88 459.99 -194.6 455.14 C-195.1 454.49 -195.6 453.84 -196.11 453.17 C-204.33 442.34 -211.42 431.25 -217.6 419.14 C-218.05 418.26 -218.51 417.37 -218.98 416.45 C-227.27 400.16 -234.15 383.48 -237.89 365.52 C-238.73 362.71 -239.94 360.56 -241.6 358.14 C-244.47 356.71 -246.42 356.76 -249.6 357.14 C-253.18 360.78 -254.75 364.63 -256.1 369.46 C-256.31 370.2 -256.51 370.95 -256.73 371.72 C-262.65 393.81 -263.75 416.38 -265.14 439.1 C-265.52 445.13 -265.98 451.14 -266.6 457.14 C-267.26 457.14 -267.92 457.14 -268.6 457.14 C-269.45 451.95 -269.78 446.92 -269.84 441.66 C-269.85 440.86 -269.86 440.05 -269.87 439.22 C-269.89 436.61 -269.9 434 -269.91 431.39 C-269.91 430.5 -269.92 429.61 -269.92 428.69 C-269.92 408.57 -267.29 389.38 -262.82 369.76 C-261.45 363.52 -260.32 356.57 -262.6 350.46 C-265.08 347.59 -267.83 345.2 -270.76 342.79 C-272.6 341.14 -272.6 341.14 -274.6 338.14 C-277.76 339.5 -279.45 340.87 -281.48 343.64 C-282 344.36 -282.53 345.07 -283.06 345.81 C-283.89 346.96 -283.89 346.96 -284.72 348.14 C-285.29 348.94 -285.87 349.74 -286.46 350.57 C-292.18 358.74 -297.01 367.29 -301.6 376.14 C-301.96 376.84 -302.33 377.54 -302.7 378.26 C-306.74 384.92 -306.74 384.92 -308.6 392.14 C-307.86 392.19 -307.13 392.24 -306.37 392.29 C-305.39 392.37 -304.42 392.44 -303.41 392.52 C-301.97 392.62 -301.97 392.62 -300.49 392.73 C-297.55 393.15 -295.26 393.83 -292.6 395.14 C-290.97 398.4 -291.48 401.54 -291.6 405.14 C-293.21 406.75 -294.99 406.35 -297.22 406.43 C-298.62 406.48 -298.62 406.48 -300.05 406.54 C-301.04 406.57 -302.02 406.61 -303.04 406.64 C-304.97 406.71 -306.91 406.79 -308.84 406.86 C-309.71 406.89 -310.57 406.92 -311.46 406.96 C-313.65 407.02 -313.65 407.02 -315.6 408.14 C-316.43 410.13 -316.43 410.13 -317.09 412.58 C-317.37 413.53 -317.65 414.47 -317.93 415.45 C-318.23 416.48 -318.52 417.51 -318.82 418.57 C-319.28 420.14 -319.28 420.14 -319.75 421.75 C-320.39 423.99 -321.04 426.22 -321.68 428.45 C-322.65 431.87 -323.64 435.28 -324.63 438.69 C-325.26 440.86 -325.88 443.02 -326.51 445.19 C-326.8 446.21 -327.1 447.23 -327.4 448.29 C-327.67 449.24 -327.95 450.2 -328.23 451.19 C-328.47 452.03 -328.71 452.86 -328.96 453.73 C-329.61 456.19 -330.12 458.65 -330.6 461.14 C-331.26 461.14 -331.92 461.14 -332.6 461.14 C-331.81 448.85 -329.96 437.33 -326.63 425.46 C-324.76 418.63 -323.14 412.18 -325.61 405.34 C-328.42 402.24 -331.58 400.8 -335.35 399.08 C-336.74 398.43 -338.13 397.77 -339.52 397.11 C-340.2 396.79 -340.88 396.47 -341.58 396.14 C-343.6 395.14 -345.54 394.05 -347.49 392.9 C-350.29 390.98 -350.29 390.98 -352.6 391.14 C-360.01 403.54 -364.49 416.59 -368.97 430.27 C-370.04 433.47 -371.1 436.67 -372.17 439.87 C-372.83 441.84 -373.49 443.82 -374.14 445.8 C-374.58 447.14 -374.58 447.14 -375.03 448.5 C-375.28 449.28 -375.54 450.06 -375.8 450.86 C-378.28 457.99 -378.28 457.99 -380.6 459.14 C-379.78 450.62 -378.77 442.68 -375.8 434.59 C-374.21 430.04 -372.95 425.41 -371.66 420.77 C-369.94 414.57 -368.07 408.57 -365.72 402.58 C-362.97 395.06 -361.82 387.45 -365.1 379.89 C-366.78 377 -368.8 374.88 -371.22 372.58 C-380.83 363.42 -391.24 347.83 -394.12 334.75 C-394.28 334.22 -394.44 333.69 -394.6 333.14 C-395.59 332.81 -396.58 332.48 -397.6 332.14 C-397.99 333.09 -398.38 334.04 -398.78 335.01 C-410.29 362.45 -427.23 384.91 -447.35 406.58 C-448.25 407.56 -448.25 407.56 -449.17 408.55 C-453.41 413.06 -457.9 417.13 -462.6 421.14 C-463.65 422.07 -464.69 423 -465.74 423.93 C-486.21 441.92 -508.85 457.85 -532.27 471.76 C-534.74 473.23 -537.21 474.72 -539.68 476.21 C-546.82 480.53 -553.96 484.82 -561.29 488.83 C-572.51 495.19 -583 502.8 -593.6 510.14 C-594.45 510.73 -595.3 511.32 -596.18 511.93 C-610.05 521.55 -623.42 531.41 -635.6 543.14 C-636.26 543.78 -636.93 544.42 -637.62 545.08 C-650.84 557.83 -662.27 570.65 -670.6 587.14 C-671.05 588.03 -671.51 588.91 -671.98 589.82 C-679.1 606.64 -675.41 629.76 -669.02 646.38 C-654.49 682.02 -625.75 704.85 -591.03 719.55 C-531.26 743.97 -466.48 751.38 -402.66 756.88 C-400.68 757.05 -398.7 757.22 -396.73 757.4 C-346.86 761.85 -296.61 760.43 -246.6 760.14 C-247.99 756.63 -247.99 756.63 -249.48 753.15 C-251.49 748.45 -251.85 745.26 -250.6 740.14 C-248.73 738.27 -246.1 738.91 -243.61 738.82 C-240.96 739.25 -240.26 740.06 -238.6 742.14 C-237.59 743.78 -236.62 745.42 -235.66 747.08 C-229.94 756.24 -221.82 763.41 -213.66 770.37 C-211.09 772.58 -208.6 774.86 -206.1 777.14 C-202.98 779.99 -199.85 782.82 -196.66 785.58 C-176.81 802.93 -176.81 802.93 -174.66 810.39 C-174.6 813.14 -174.6 813.14 -176.6 816.14 C-180.64 816.77 -183.16 817.14 -186.59 814.76 C-188.54 813.08 -188.54 813.08 -190.25 811.36 C-195.21 808.79 -201.14 810.92 -206.26 812.39 C-232.96 820.91 -257.97 834.28 -279.6 852.14 C-280.11 852.56 -280.63 852.98 -281.16 853.42 C-285.03 856.58 -288.84 859.84 -292.6 863.14 C-293.21 863.68 -293.82 864.22 -294.45 864.77 C-301.52 871.03 -308.17 877.42 -314.04 884.83 C-314.5 885.42 -314.97 886.01 -315.45 886.61 C-318.06 889.99 -318.06 889.99 -318.6 894.14 C-316.57 892.61 -314.55 891.06 -312.54 889.52 C-311.97 889.09 -311.41 888.67 -310.83 888.23 C-307.89 885.97 -305.06 883.67 -302.31 881.19 C-298 877.47 -293.19 874.78 -288.22 872.02 C-287.23 871.46 -286.23 870.9 -285.2 870.33 C-270.71 862.33 -255.79 855.03 -240.41 848.89 C-239.34 848.46 -239.34 848.46 -238.25 848.02 C-234.23 846.48 -230.9 845.85 -226.6 846.14 C-226.6 846.8 -226.6 847.46 -226.6 848.14 C-234.9 852.35 -243.24 856.46 -251.65 860.44 C-281.02 874.37 -307.09 890.61 -330.6 913.14 C-331.76 914.16 -331.76 914.16 -332.95 915.2 C-334.99 917.61 -335.03 918.79 -334.85 921.89 C-334.76 923.31 -334.68 924.73 -334.6 926.14 C-311 923.92 -292.41 914.86 -274.35 899.77 C-262.44 889.95 -249.18 882.38 -235.6 875.14 C-234.57 874.59 -233.53 874.04 -232.47 873.47 C-229.12 871.69 -225.77 869.91 -222.41 868.14 C-221.35 867.58 -220.28 867.02 -219.19 866.43 C-214.05 863.75 -209.26 861.43 -203.6 860.14 C-203.27 861.46 -202.94 862.78 -202.6 864.14 C-210.18 868.69 -217.81 872.78 -225.85 876.46 C-240.16 883.07 -253.23 891.38 -265.6 901.14 C-266.88 902.14 -268.16 903.12 -269.44 904.11 C-270.74 905.12 -272.05 906.13 -273.35 907.14 C-273.97 907.63 -274.59 908.11 -275.23 908.6 C-276.71 909.76 -278.15 910.95 -279.6 912.14 C-279.6 912.47 -279.6 912.8 -279.6 913.14 C-272.43 912.58 -265.54 911.44 -258.52 909.92 C-257.48 909.7 -256.44 909.48 -255.38 909.25 C-252.03 908.54 -248.69 907.81 -245.35 907.08 C-244.21 906.83 -243.07 906.59 -241.9 906.33 C-195.39 896.22 -162 883.19 -125.23 852.49 C-123.81 851.32 -122.38 850.19 -120.93 849.06 C-120.22 848.49 -119.52 847.92 -118.79 847.33 C-118.22 846.89 -117.66 846.45 -117.08 846 C-112.67 840.48 -112.06 833.81 -111.85 827.02 C-111.81 826.08 -111.78 825.15 -111.75 824.18 C-111.02 796.98 -112.84 769.89 -115.23 742.82 C-116.45 728.56 -116.84 714.45 -116.6 700.14 C-111.87 699.06 -111.87 699.06 -109.39 699.86 C-105.23 702.85 -104.77 709.13 -103.96 713.87 C-103.19 718.98 -102.53 724.09 -101.87 729.21 C-100.29 744.69 -100.29 744.69 -93.83 758.45 C-90.98 760.62 -89.38 760.56 -85.85 760.39 C-84.86 760.36 -83.88 760.32 -82.86 760.29 C-82.12 760.24 -81.37 760.19 -80.6 760.14 C-80.57 758.84 -80.55 757.54 -80.52 756.19 C-80.43 751.27 -80.33 746.35 -80.23 741.43 C-80.18 739.31 -80.14 737.2 -80.1 735.08 C-79.9 724.87 -79.7 714.66 -79.19 704.45 C-79.09 702.5 -79.09 702.5 -78.99 700.51 C-78.59 697.11 -78.11 693.66 -75.6 691.14 C-74.08 691.07 -72.56 691.06 -71.04 691.08 C-70.21 691.09 -69.38 691.1 -68.53 691.11 C-67.89 691.12 -67.26 691.13 -66.6 691.14 C-65.62 694.44 -65.45 697.47 -65.41 700.91 C-65.39 702.07 -65.37 703.23 -65.36 704.43 C-65.34 706.33 -65.34 706.33 -65.32 708.26 C-65.3 709.6 -65.28 710.93 -65.26 712.27 C-65.21 715.8 -65.17 719.34 -65.12 722.87 C-64.92 740.03 -64.68 757.18 -64.14 774.33 C-64.08 776.11 -64.08 776.11 -64.03 777.92 C-63.41 796.03 -61.55 813.65 -57.22 831.27 C-56.8 832.98 -56.8 832.98 -56.37 834.73 C-53.4 846.1 -49.67 855.35 -39.54 861.89 C-10.26 878.62 25.59 890.28 59.38 890.31 C60.51 890.32 61.64 890.32 62.81 890.32 C65.19 890.33 67.57 890.33 69.96 890.33 C73.56 890.33 77.17 890.35 80.77 890.37 C92.14 890.4 103.22 890.42 114.4 888.14 C95.21 866.66 47.4 859.39 20.4 854.14 C20.4 852.49 20.4 850.84 20.4 849.14 C35.91 851.85 51.32 854.59 66.4 859.14 C67.16 859.37 67.92 859.59 68.7 859.82 C81.27 863.61 92.81 869.09 104.41 875.17 C121.46 884.03 136.13 886.23 155.09 884.27 C155.89 884.19 156.7 884.11 157.52 884.03 C159.49 883.81 161.45 883.49 163.4 883.14 C164.68 881.13 164.68 881.13 163.77 878.74 C155.31 862.72 117.93 852.38 101.4 847.14 C90.88 844.03 80.19 841.67 69.42 839.55 C68.41 839.35 68.41 839.35 67.37 839.14 C64.04 838.49 60.71 837.85 57.38 837.24 C56.17 837.01 54.95 836.78 53.71 836.54 C52.1 836.24 52.1 836.24 50.46 835.94 C47.15 835.08 44.4 833.77 41.4 832.14 C41.4 831.48 41.4 830.82 41.4 830.14 C48.82 829.88 55.62 830.86 62.9 832.27 C64.66 832.6 64.66 832.6 66.46 832.95 C95.16 838.51 121.45 846.42 147.29 860.25 C147.98 860.54 148.68 860.84 149.4 861.14 C150.06 860.81 150.72 860.48 151.4 860.14 C134.83 841.6 106.44 830.26 83.4 822.14 C82.53 821.83 81.65 821.52 80.75 821.2 C66.59 816.26 52.15 812.37 37.65 808.58 C36.78 808.35 35.91 808.12 35.02 807.89 C32.53 807.23 30.04 806.59 27.54 805.95 C26.8 805.75 26.05 805.56 25.28 805.35 C21.34 804.37 18.29 803.81 14.4 805.14 C12.31 806.94 12.31 806.94 10.46 809.14 C7.93 811.8 6.63 813.06 3.15 814.39 C0.4 814.14 0.4 814.14 -2.04 812.64 C-4.27 809.07 -3.52 807.21 -2.6 803.14 C-1.4 800.44 0.1 797.97 1.65 795.46 C2.09 794.73 2.53 794 2.99 793.25 C7.53 785.8 12.31 778.5 17.09 771.2 C27.24 755.85 27.24 755.85 36.28 739.83 C39.46 733.64 43.07 727.81 46.84 721.96 C59.88 701.7 72.3 681.1 83.86 659.95 C85.3 657.33 86.75 654.72 88.21 652.1 C94.4 640.85 99.3 629.32 103.4 617.14 C103.74 616.16 103.74 616.16 104.08 615.16 C112.45 589.82 110.92 560.29 110.79 533.91 C110.78 531.29 110.77 528.67 110.76 526.05 C110.69 501.22 110.25 476.55 107.68 451.84 C107.38 448.9 107.1 445.96 106.82 443.02 C104.17 415.24 100.79 387.58 96.84 359.96 C96.66 358.67 96.47 357.38 96.28 356.06 C95.04 347.41 93.75 338.77 92.4 330.14 C92.25 329.15 92.25 329.15 92.09 328.14 C91.35 323.44 90.59 318.73 89.81 314.03 C89.62 312.8 89.42 311.56 89.22 310.29 C89.03 309.15 88.83 308.01 88.63 306.83 C88.38 305.32 88.38 305.32 88.13 303.79 C87.36 300.97 86.3 299.34 84.4 297.14 C82.62 298.53 80.85 299.93 79.09 301.33 C78.1 302.11 77.12 302.89 76.1 303.69 C72.72 306.77 70.75 309.22 69.93 313.77 C69.84 322.38 72.18 329.25 75.4 337.14 C89.5 372.21 89.5 372.21 88.4 385.14 C86.6 382.43 85.81 380.61 84.88 377.55 C81.27 366.02 77.21 354.87 72.28 343.83 C71.54 342.18 71.54 342.18 70.79 340.5 C65.65 327.77 65.65 327.77 57.4 317.14 C55.42 316.68 55.42 316.68 53.34 316.64 C52.04 316.48 50.74 316.31 49.4 316.14 C47.13 312.73 47.27 311.89 47.53 307.96 C47.62 299.16 43.78 294.36 38.4 287.64 C37.98 287.1 37.55 286.56 37.11 286 C35.72 284.28 35.72 284.28 33.4 282.14 C29.48 281.81 29.48 281.81 26.78 283.64 Z M-769.6 601.14 C-762.85 608.02 -756.84 612.15 -746.97 612.39 C-737.83 612.24 -728.69 611.1 -719.6 610.14 C-719.93 611.46 -720.26 612.78 -720.6 614.14 C-727.53 615.46 -734.46 616.78 -741.6 618.14 C-741.6 619.46 -741.6 620.78 -741.6 622.14 C-729.2 633.82 -705.76 634.41 -689.6 634.14 C-689.76 633 -689.92 631.85 -690.09 630.66 C-690.62 626.37 -690.75 622.16 -690.72 617.83 C-690.72 617.1 -690.72 616.36 -690.72 615.61 C-690.67 609.75 -690.3 603.96 -689.6 598.14 C-716.81 593.56 -742.82 594.84 -769.6 601.14 Z M-808.6 668.14 C-804.4 669.54 -801.4 667.96 -797.35 666.64 C-786.63 663.37 -775.74 661.34 -764.72 659.39 C-763.47 659.17 -763.47 659.17 -762.2 658.95 C-751.7 657.08 -741.19 655.46 -730.6 654.14 C-730.6 655.79 -730.6 657.44 -730.6 659.14 C-743.27 662.55 -756.01 664.89 -768.95 667 C-785.25 669.67 -801.54 672.73 -816.66 679.58 C-817.97 680.16 -817.97 680.16 -819.31 680.75 C-825.36 683.45 -831.13 686.39 -836.6 690.14 C-831.37 693.13 -825.47 693.42 -819.6 694.27 C-818.43 694.45 -817.26 694.63 -816.05 694.82 C-803.19 696.72 -792.56 697 -780.52 691.82 C-758.35 682.35 -733.61 678.09 -709.6 677.14 C-710.09 678.63 -710.09 678.63 -710.6 680.14 C-712.96 681.1 -712.96 681.1 -716.35 681.96 C-716.99 682.12 -717.62 682.28 -718.28 682.45 C-724.19 683.91 -730.15 685.07 -736.11 686.26 C-750.47 689.13 -764.03 692.61 -777.6 698.14 C-777.6 698.47 -777.6 698.8 -777.6 699.14 C-744.26 703.08 -708.55 704.04 -675.6 697.14 C-673.95 696.83 -672.31 696.52 -670.66 696.21 C-667.29 695.57 -663.94 694.88 -660.6 694.14 C-660.99 688.84 -663.96 685.75 -667.16 681.77 C-672.24 675.28 -676.16 668.79 -679.68 661.35 C-683.14 655.56 -687.46 652.75 -693.85 650.89 C-694.88 650.58 -695.92 650.27 -696.99 649.94 C-734 641.77 -776.04 649.16 -808.6 668.14 Z " fill="#000000" transform="translate(862.59765625,142.85546875)"/>
<path d="M0 0 C1.28 -0.03 1.28 -0.03 2.59 -0.06 C9.37 -0.1 15.15 0.79 20.5 5.31 C22.77 8.13 23.28 9.75 23.12 13.31 C22.21 20.41 17.37 24.67 11.94 28.9 C-1.6 37.75 -17.93 42.62 -34 42.56 C-34.94 42.58 -35.88 42.59 -36.85 42.61 C-42.91 42.62 -47.44 41.86 -52.94 39.25 C-55.88 36.02 -56.83 34.08 -57.38 29.75 C-56.59 23.5 -54.08 19.73 -49.26 15.89 C-34.23 5.29 -18.45 0.11 0 0 Z M-43.06 20.19 C-43.9 20.8 -43.9 20.8 -44.75 21.42 C-48.42 24.3 -49.87 26.74 -50.94 31.25 C-45.4 36.16 -40.47 36.62 -33.27 36.52 C-18 35.27 3.41 29.91 14.06 18.25 C15.5 15.82 16.05 14.53 16.19 11.69 C15.19 8.88 15.19 8.88 11.69 7.44 C-5.74 2.12 -28.99 9.79 -43.06 20.19 Z " fill="#000000" transform="translate(284.9375,693.75)"/>
<path d="M0 0 C1.3 -0.03 1.3 -0.03 2.63 -0.06 C9.82 -0.11 15.17 1.19 21.25 5.25 C24.21 9.68 24.14 14.06 23.25 19.25 C17.96 29.96 7.47 34.62 -3.19 38.5 C-15.67 41.13 -25.42 40.24 -36.82 34.57 C-38.75 33.25 -38.75 33.25 -39.75 30.25 C-39.95 28.2 -39.95 28.2 -40 25.94 C-40.04 24.83 -40.04 24.83 -40.08 23.7 C-39.46 19.08 -37.59 16.04 -34.22 12.87 C-23.08 4.68 -13.77 0.08 0 0 Z M-8.56 7.94 C-9.26 8.12 -9.96 8.3 -10.68 8.48 C-18.86 10.69 -26.48 13.5 -31.82 20.41 C-33.02 22.46 -33.02 22.46 -32.88 26 C-31.65 29.52 -31.02 30.57 -27.75 32.25 C-15.69 35.84 -3.38 31.34 7.38 25.81 C11.27 23.47 13.78 21.08 16.25 17.25 C17 14.66 17 14.66 16.25 12.25 C13.51 8.56 10.67 7.29 6.25 6.25 C1.08 6 -3.57 6.65 -8.56 7.94 Z " fill="#000000" transform="translate(418.75,669.75)"/>
<path d="M0 0 C0.86 -0.02 1.72 -0.03 2.6 -0.05 C8.15 -0.05 12.04 0.65 16.94 3.31 C20.38 7.12 21.88 10.88 22.22 15.95 C21.56 21.48 18.04 25.45 13.99 29.04 C4.13 36.16 -7.33 39.49 -19.31 39.62 C-20.13 39.65 -20.95 39.68 -21.8 39.71 C-28.45 39.78 -33.65 38.29 -38.72 33.86 C-41.37 30.79 -41.41 27.28 -41.34 23.36 C-40.87 19.9 -39.26 17.96 -37.06 15.31 C-36.37 14.46 -36.37 14.46 -35.66 13.6 C-26.43 3.28 -13.34 -0.05 0 0 Z M-29.06 16.31 C-29.85 17.06 -29.85 17.06 -30.64 17.82 C-33.02 20.32 -34.03 22.08 -34.56 25.5 C-34.27 28.28 -34.27 28.28 -32.81 30.12 C-26.69 34.28 -16.14 33.15 -9.06 32.31 C-1.44 30.49 8.71 26.92 13.3 20.36 C14.04 17.99 14.14 16.04 14.06 13.56 C14.04 12.76 14.03 11.96 14.01 11.14 C13.98 10.54 13.96 9.93 13.94 9.31 C0.21 3.74 -18.25 5.36 -29.06 16.31 Z " fill="#000000" transform="translate(720.0625,144.6875)"/>
<path d="M0 0 C0.69 -0.02 1.39 -0.04 2.11 -0.06 C8.43 -0.11 12.24 1.65 17 5.69 C19.94 9.52 19.82 13.61 19.6 18.28 C18.57 24.69 15.23 28.59 10.31 32.62 C2.24 38.14 -7.83 38.51 -17.28 36.82 C-22.53 35.19 -26.19 32.04 -28.88 27.25 C-30.34 22.61 -30.14 19.15 -28.75 14.5 C-24.46 7.07 -18.03 3.37 -10.06 0.62 C-6.72 0.05 -3.38 0.02 0 0 Z M-20.88 14.25 C-23.37 17.99 -23.33 19.82 -22.88 24.25 C-20.45 28.29 -18.3 29.83 -13.88 31.25 C-5.36 31.76 2.22 29.16 8.86 23.87 C11.48 21.17 12.47 18.72 12.69 15.06 C12.49 11.3 12.49 11.3 10.38 9.31 C-0.38 4.23 -12.5 6.02 -20.88 14.25 Z " fill="#000000" transform="translate(341.875,629.75)"/>
<path d="M0 0 C1.94 1.06 1.94 1.06 3 3 C2.69 8.97 0.7 12.85 -2.31 17.81 C-7.87 27.37 -11.28 36.31 -13.61 47.11 C-14.38 50.66 -15.14 53.86 -17 57 C-17.99 56.67 -18.98 56.34 -20 56 C-25.3 44.66 -27.19 31.41 -24.34 19.14 C-21.44 11.82 -15.4 5.45 -9 1 C-5.72 -0.09 -3.43 -0.29 0 0 Z " fill="#000000" transform="translate(776,349)"/>
<path d="M0 0 C3.01 2.28 4.76 4.56 5.4 8.4 C5.6 13.64 5.11 17.66 2 22 C-4.18 28.55 -9.51 32.58 -18.55 33.27 C-33.92 33.67 -33.92 33.67 -39.55 28.61 C-43.17 24.58 -43.87 21.82 -44.25 16.62 C-43.81 10.31 -41.3 7.06 -36.81 2.81 C-26.72 -5.63 -11.34 -7.83 0 0 Z M-36 11 C-37.62 14.25 -37.69 17.5 -37 21 C-33.84 24.71 -32.05 25.71 -27.38 27 C-19.83 27.46 -12.26 25.46 -6.25 20.88 C-3.47 18.15 -2.48 16.28 -2.31 12.38 C-2.67 8.63 -3.53 5.92 -6 3 C-17.6 -0.87 -27.74 2.62 -36 11 Z " fill="#000000" transform="translate(475,558)"/>
<path d="M0 0 C8.55 2.14 15.67 8.13 20.5 15.38 C23.98 22.47 26.52 29.16 27.06 37.06 C27.15 38.24 27.23 39.42 27.32 40.64 C27.38 41.54 27.44 42.44 27.5 43.38 C23.5 43.38 23.5 43.38 21.82 41.94 C21.28 41.28 20.74 40.62 20.19 39.94 C19.58 39.21 18.97 38.47 18.34 37.72 C17.16 36.22 16.02 34.7 14.91 33.16 C10.08 26.46 4.23 22.1 -2.5 17.38 C-4.52 15.92 -6.54 14.46 -8.56 13 C-9.44 12.37 -10.32 11.75 -11.22 11.1 C-16.38 7.19 -16.38 7.19 -16.88 3.81 C-16.75 3.01 -16.63 2.2 -16.5 1.38 C-11.48 -1.97 -5.79 -1 0 0 Z " fill="#000000" transform="translate(696.5,368.625)"/>
<path d="M0 0 C2.58 2.97 3.78 5.07 4.69 8.88 C3.63 13.69 0.76 16.89 -3 20 C-11.2 24.3 -20.39 24.17 -29.31 22.31 C-35.14 20.42 -38.93 18.39 -42 13 C-42.68 8.77 -42.32 6.66 -40.44 2.81 C-36.29 -1.97 -31.84 -4.47 -25.5 -4.97 C-6.43 -5.21 -6.43 -5.21 0 0 Z M-35 8 C-34.82 10.78 -34.23 11.78 -32.19 13.69 C-26.48 17.11 -19.43 16.57 -13 16 C-9.06 14.73 -5.95 12.95 -3 10 C-2.86 7.97 -2.86 7.97 -4 6 C-8.9 2.89 -12.88 2.54 -18.5 2.62 C-19.23 2.61 -19.97 2.6 -20.72 2.59 C-26.48 2.62 -30.8 3.8 -35 8 Z " fill="#000000" transform="translate(810,137)"/>
<path d="M0 0 C3.43 2.91 4.81 4.76 5.94 9.19 C6.08 13.32 5.39 14.43 3.06 17.75 C-4.99 26.28 -14.27 31.45 -26.06 32.12 C-30.67 31.68 -32.62 30.99 -35.94 27.75 C-37.78 23.53 -38.02 19.74 -37.62 15.19 C-33.84 7.48 -27.09 3.28 -19.2 0.44 C-12.87 -1.49 -6.27 -2.67 0 0 Z M-27.12 11.94 C-29.6 15.78 -29.83 19.25 -29.94 23.75 C-19.16 24.51 -12.34 22.96 -3.81 16.31 C-1.55 13.22 -1.5 11.5 -1.94 7.75 C-10.56 3.81 -19.55 6.74 -27.12 11.94 Z " fill="#000000" transform="translate(589.9375,185.25)"/>
<path d="M0 0 C1.63 0.7 3.22 1.5 4.8 2.32 C5.19 6.47 5.37 8.57 2.78 11.95 C-15.99 27.9 -15.99 27.9 -24.33 28.57 C-27.2 28.32 -27.2 28.32 -29.2 26.32 C-30.07 19.13 -27.63 14.44 -23.33 8.92 C-16.67 1.15 -10.49 -3.24 0 0 Z " fill="#000000" transform="translate(573.203125,244.6796875)"/>
<path d="M0 0 C1.29 -0.03 2.57 -0.06 3.9 -0.09 C8.69 0.51 11.99 2.3 15 6.12 C16.35 10.97 16.13 14.99 14.44 19.62 C11.08 24.72 7.5 26.84 1.67 28.06 C-4.05 28.94 -8.99 28.51 -14.38 26.38 C-17.27 23.71 -18.24 21.84 -19.31 18.06 C-19.39 13.56 -18.6 10.29 -16.38 6.38 C-13.94 4 -13.94 4 -11.38 2.38 C-10.81 2.02 -10.25 1.66 -9.68 1.3 C-6.41 -0.01 -3.5 0.03 0 0 Z M-9.5 8.94 C-11.96 12.14 -12.38 14.36 -12.38 18.38 C-10.79 20.59 -9.81 21.28 -7.14 21.88 C-2.34 21.99 0.86 21.76 4.69 18.69 C7.28 16.12 8.51 14.14 8.62 10.38 C4.6 6.81 1.46 6.86 -3.74 7.03 C-6.56 7.25 -6.56 7.25 -9.5 8.94 Z " fill="#000000" transform="translate(727.375,202.625)"/>
<path d="M0 0 C2.53 1.78 3.62 3.3 4.7 6.2 C5.32 10.99 4.72 14.42 2.11 18.55 C-1.35 22.59 -6.11 25.2 -11.3 26.2 C-17.75 26.62 -22.73 26.1 -27.95 21.86 C-30.48 18.75 -30.38 15.07 -30.3 11.2 C-28.83 4.99 -25.71 2.62 -20.55 -0.64 C-13.68 -4.19 -6.63 -3.72 0 0 Z M-22.18 8.51 C-23.92 11.13 -23.68 13.13 -23.3 16.2 C-21.73 18.28 -20.84 19.09 -18.25 19.59 C-12.26 19.53 -8.4 18.37 -3.43 14.88 C-1.74 12.36 -2.1 10.14 -2.3 7.2 C-10.26 3.45 -14.63 3.23 -22.18 8.51 Z " fill="#000000" transform="translate(349.30078125,729.8046875)"/>
<path d="M0 0 C1.18 -0.01 2.37 -0.02 3.59 -0.02 C8.04 0.49 11.17 2.14 14.88 4.56 C16.93 7.7 17.47 10.72 17.06 14.38 C14.28 20.78 10.39 24.62 4.06 27.38 C-1.05 28.91 -6.07 29.03 -11.12 27.25 C-14.55 24.97 -16.1 23.06 -17.94 19.38 C-19.05 13.45 -16.95 10.14 -13.74 5.39 C-9.64 0.81 -6.04 -0.04 0 0 Z M-7.94 9.38 C-10.35 11.91 -10.35 11.91 -11.94 14.38 C-11.06 17.42 -10.52 19 -7.81 20.75 C-3.28 21.73 0.81 21.63 4.88 19.36 C7.41 17.43 8.93 15.71 10.12 12.75 C10.24 10.39 10.24 10.39 9.12 8.62 C3.25 5.06 -2.25 6.09 -7.94 9.38 Z " fill="#000000" transform="translate(639.9375,195.625)"/>
<path d="M0 0 C4.28 2.73 7.86 5.6 10.06 10.25 C9.84 15.01 7.69 19.02 4.44 22.46 C-0.28 26.53 -3.86 27.05 -9.94 27.12 C-11.15 27.15 -12.37 27.18 -13.62 27.2 C-18.3 26.76 -20.89 25.29 -23.88 21.69 C-25.45 17.96 -25.65 14.87 -25.06 10.88 C-22.79 5.44 -18.44 1.94 -13.12 -0.44 C-8.35 -1.51 -4.63 -1.7 0 0 Z M-18 10.19 C-19.68 12.86 -19.51 14.81 -19.06 17.88 C-17.64 19.94 -17.64 19.94 -15.06 20.88 C-9.44 21.42 -5.91 21.03 -1.06 17.88 C0.96 16.13 0.96 16.13 1.94 13.88 C2.1 11.27 2.1 11.27 0.94 8.88 C-1.52 6.9 -3.32 5.99 -6.44 5.5 C-10.74 6.11 -14.41 7.76 -18 10.19 Z " fill="#000000" transform="translate(406.0625,624.125)"/>
<path d="M0 0 C3.76 2.09 7 4.11 9 8 C9 10.62 9 10.62 8 13 C-1.6 17.8 -14.76 14.51 -25 13 C-25.99 12.67 -26.98 12.34 -28 12 C-29.44 9.11 -29.38 7.2 -29 4 C-22.02 -4.49 -9.76 -3.45 0 0 Z " fill="#000000" transform="translate(848,204)"/>
</svg>
