<?xml version="1.0" encoding="UTF-8"?>
<!-- Generator: visioncortex VTracer 0.6.3 -->
<svg version="1.1" xmlns="http://www.w3.org/2000/svg" width="1280" height="1280">
<path d="M0 0 C1.28 -0 2.57 -0.01 3.89 -0.01 C6.59 -0.02 9.29 -0.02 11.99 -0.02 C15.41 -0.02 18.83 -0.03 22.25 -0.05 C25.56 -0.06 28.87 -0.06 32.19 -0.06 C33.4 -0.07 34.6 -0.08 35.85 -0.08 C62.38 -0.01 86.38 8.94 107.16 25.17 C107.93 25.73 108.7 26.29 109.49 26.87 C118.05 33.56 125.69 45.31 127.16 56.17 C127.39 60.52 126.55 63.54 124.22 67.29 C120.56 71.17 115.93 73.87 111.16 76.17 C110.6 76.45 110.04 76.72 109.47 77.01 C101.38 80.38 92.49 79.42 83.91 79.23 C81.45 79.18 79 79.14 76.54 79.11 C75.02 79.09 73.5 79.06 71.98 79.02 C67.92 78.96 64.78 79.24 61.16 81.17 C59.54 83.11 59.54 83.11 58.29 85.42 C52.9 93.94 44.62 99.84 34.95 102.86 C27.13 103.78 20.04 97.72 14.16 93.17 C8.01 87.86 8.01 87.86 6.16 84.17 C1.49 83.84 -1.01 84.46 -4.84 87.17 C-4.26 91.69 -4.26 91.69 -3.32 96.15 C-2.48 99.7 -2.57 103.28 -2.53 106.92 C-2.5 107.69 -2.47 108.46 -2.44 109.26 C-2.36 116.15 -4.28 121.14 -8.73 126.41 C-9.37 126.95 -10 127.49 -10.65 128.04 C-11.28 128.6 -11.9 129.15 -12.55 129.72 C-19.79 134.29 -28.77 133.81 -37.04 134.29 C-42.96 134.7 -47.55 135.41 -52.84 138.17 C-53.43 140.41 -53.43 140.41 -52.84 143.17 C-48.98 147.03 -44.66 150.01 -40.21 153.17 C-34.49 157.29 -28.75 161.95 -27.47 169.29 C-27.25 177.03 -29.74 183.2 -32.84 190.17 C-33.21 191 -33.58 191.84 -33.96 192.7 C-36.55 198.54 -39.18 204.36 -41.84 210.17 C-41.06 209.9 -40.28 209.63 -39.47 209.36 C-36.55 208.36 -33.62 207.37 -30.69 206.38 C-28.81 205.74 -26.93 205.1 -25.05 204.46 C-23.86 204.05 -22.66 203.65 -21.43 203.23 C-20.34 202.86 -19.24 202.49 -18.11 202.11 C-9.33 199.59 2.56 198.25 11.16 202.17 C24.19 212.13 28.9 230.98 32.16 246.17 C32.16 246.83 32.16 247.49 32.16 248.17 C36.54 245.87 39.55 242.83 42.79 239.17 C43.85 237.99 44.92 236.82 45.99 235.65 C47.51 233.98 49.03 232.31 50.54 230.63 C57.85 222.59 65.7 217.28 75.16 212.17 C75.89 211.77 76.62 211.37 77.37 210.96 C80.66 209.51 83.72 209.36 87.16 210.17 C90.25 212.11 92.64 214.54 95.16 217.17 C95.74 217.69 96.31 218.21 96.9 218.75 C105.29 227.02 110.2 240.21 113.38 251.37 C114.1 253.5 114.1 253.5 116.97 254.86 C121.03 255.25 122.62 255.31 126.16 253.17 C127.77 250.65 129.07 248.03 130.42 245.36 C137.66 232.07 151.48 215.06 166.16 210.17 C174.09 209.21 179.16 211.2 185.46 215.88 C194.24 223.2 200.85 232.7 207.16 242.17 C213.28 241.85 218.38 238.84 223.16 235.17 C225.82 231.6 225.48 227.44 225.6 223.17 C226.25 208.91 229.75 195.88 240.61 185.82 C256.1 172.64 270.54 168.09 290.76 168.97 C295.73 169.38 299.78 170.88 304.16 173.17 C305.07 173.59 305.97 174.02 306.91 174.45 C313.99 177.98 319.52 182.66 325.16 188.17 C327.88 185.56 330.12 182.92 332.29 179.86 C341.67 167.72 356.2 162.73 370.91 160.61 C386.73 158.73 402.26 163.46 414.79 173.21 C424.62 182.16 432.5 196.85 433.28 210.3 C433.54 216.96 433.54 216.96 433.52 219.89 C433.59 223.99 433.8 225.69 436.37 229.05 C458.71 246.01 500.35 244.59 527.16 245.17 C528.56 245.2 528.56 245.2 530 245.23 C576.27 246.38 576.27 246.38 617.05 229.39 C618.54 226.42 618.43 224.1 618.41 220.79 C619.19 206.85 627.15 196.24 637.16 187.17 C646.02 180.48 655.14 177.64 666.16 177.79 C667 177.78 667.84 177.77 668.7 177.76 C677.33 177.8 684.2 180.03 691.16 185.17 C692.45 186.09 693.74 187 695.04 187.92 C696.58 189.03 696.58 189.03 698.16 190.17 C698.45 189.53 698.74 188.89 699.04 188.23 C703.99 177.79 709.24 171.6 720.16 167.17 C731.91 163.65 743.85 162.53 755.16 167.94 C769.59 176.82 778.06 196.92 782.54 212.67 C785.88 227.42 787.66 241.84 787.55 256.98 C787.54 259.56 787.55 262.15 787.57 264.73 C787.59 282.88 784.37 295.63 772.15 309.49 C768.61 314.25 767.9 319.13 767.45 324.94 C767.34 326.23 767.23 327.52 767.12 328.85 C767.07 329.53 767.01 330.2 766.96 330.9 C765.66 346.59 763.29 360.99 757.72 375.79 C757.45 376.53 757.17 377.26 756.89 378.02 C754.57 383.83 751.87 389.67 746.22 392.79 C742.16 393.29 740.6 392.36 737.16 390.17 C735.52 387.86 734.25 385.79 732.97 383.29 C732.61 382.61 732.24 381.93 731.86 381.22 C730.61 378.88 729.38 376.52 728.16 374.17 C727.15 372.26 726.15 370.35 725.14 368.44 C722.46 363.36 719.8 358.27 717.16 353.17 C712.34 353.75 709.23 354.5 705.16 357.17 C704.5 357.17 703.84 357.17 703.16 357.17 C702.26 360.25 702.04 363.01 702.02 366.22 C701.74 383.84 701.23 413.35 688.16 427.17 C685.04 428.48 685.04 428.48 681.16 428.17 C677.47 426.26 674.37 423.79 671.16 421.17 C670.32 420.51 669.48 419.86 668.61 419.19 C657.96 410.37 652.05 399.21 647.64 386.35 C645.97 382.77 644.5 381.24 641.16 379.17 C635.55 378.52 630.05 379.09 625.16 382.17 C622.54 385.74 622.68 390.03 622.35 394.29 C621.71 401.01 620.58 407.41 618.79 413.92 C618.49 415.02 618.49 415.02 618.19 416.15 C616.6 421.66 614.26 426.06 610.16 430.17 C605.85 431.01 603.46 429.95 599.95 427.61 C595.22 424.35 591.13 420.68 587.1 416.61 C586.41 415.91 585.71 415.21 585 414.5 C578.39 407.68 573.73 400.56 569.65 391.99 C568.32 389.46 567.44 387.85 565.16 386.17 C563.06 385.56 563.06 385.56 560.79 385.42 C559.66 385.3 559.66 385.3 558.51 385.18 C555.94 385.17 553.66 385.58 551.16 386.17 C550.99 386.83 550.82 387.5 550.64 388.19 C546.75 403.02 542.28 417.01 529.16 426.17 C525.91 427.48 525.91 427.48 523.16 427.17 C511.74 418.89 505.64 399.76 500.48 387.09 C499.48 384.07 499.48 384.07 497.16 383.17 C493.12 382.71 493.12 382.71 489.6 384.36 C487.83 386.58 487.07 388.69 486.1 391.36 C483.9 396.83 481.2 401.74 478.1 406.73 C477.67 407.42 477.25 408.11 476.81 408.82 C474.65 412.24 472.78 415.15 469.16 417.17 C465.99 417.48 464.94 417.49 462.16 416.17 C451.6 407.18 444.52 393.93 440.43 380.84 C439.68 378.41 439.68 378.41 438.16 375.17 C435.64 373.92 435.64 373.92 433.16 373.17 C433.35 373.73 433.55 374.29 433.75 374.87 C436.03 382.25 436.82 389.5 437.34 397.17 C437.71 401.87 438.02 405.43 441.16 409.17 C443.82 411.25 443.82 411.25 446.97 413.04 C447.81 413.55 447.81 413.55 448.67 414.06 C454.99 417.77 461.56 421 468.16 424.17 C474.45 418.91 480.18 413.2 485.88 407.32 C486.5 406.69 487.13 406.05 487.77 405.4 C488.33 404.83 488.88 404.25 489.46 403.66 C492.33 401.14 494.31 400.15 498.16 400.23 C502.01 401.43 502.87 402.88 505.16 406.17 C510.99 418.26 514.16 430.79 515.16 444.17 C518.13 444.5 521.1 444.83 524.16 445.17 C524.6 444.52 525.04 443.88 525.49 443.22 C527.52 440.24 529.56 437.26 531.6 434.29 C532.29 433.28 532.97 432.27 533.68 431.22 C548.51 409.71 548.51 409.71 557.6 407.23 C563.28 407.13 566.62 409.48 570.79 413.11 C579.66 422.53 580.05 438.79 581.68 451.11 C581.84 452.26 582 453.42 582.16 454.61 C582.35 456.12 582.35 456.12 582.54 457.66 C583.22 460.43 583.93 461.44 586.16 463.17 C589.94 464.71 594.16 464.23 598.16 464.17 C598.46 463.2 598.46 463.2 598.76 462.21 C604.43 446.4 619.46 424.64 634.16 416.17 C639.93 415.33 643.52 416.14 648.29 419.53 C659.64 429.46 662.49 447.4 664.22 461.62 C664.32 462.42 664.42 463.21 664.52 464.04 C664.64 465.09 664.64 465.09 664.75 466.16 C665.23 468.49 665.86 470.18 667.16 472.17 C670.39 473.01 672.9 473.54 676.14 472.59 C679.07 470.53 680.41 467.7 682.04 464.61 C684.19 460.59 686.41 456.78 689.06 453.07 C692.99 447.26 695.33 440.87 697.85 434.36 C698.78 431.95 699.72 429.55 700.67 427.15 C701.28 425.57 701.28 425.57 701.91 423.96 C703.09 421.33 704.25 419.32 706.16 417.17 C710.97 415.47 714.11 416.86 718.6 418.82 C727.34 423.43 732.71 430.75 736.2 439.88 C740.06 453.02 738.82 465.86 735.04 478.78 C734.01 482.74 733.34 485.53 735.22 489.27 C735.67 489.91 736.13 490.56 736.6 491.23 C741.07 497.66 740.81 504.52 740.16 512.17 C738.65 517.72 735.76 523.57 731.16 527.17 C714.66 536.25 693.94 538.55 675.47 538.42 C674.79 538.41 674.11 538.41 673.4 538.41 C626.94 538.14 581.39 532.28 536.67 519.48 C526.62 516.62 516.52 513.95 506.38 511.4 C505.73 511.23 505.08 511.07 504.41 510.9 C497.24 509.1 490.07 507.3 482.89 505.52 C448.98 497.06 448.98 497.06 433.79 489.36 C432.03 488.49 430.28 487.63 428.53 486.78 C427.65 486.35 426.78 485.92 425.87 485.47 C420.4 482.84 414.84 480.4 409.29 477.95 C408.11 477.42 408.11 477.42 406.89 476.88 C406.2 476.57 405.5 476.27 404.78 475.95 C403.16 475.17 403.16 475.17 402.16 474.17 C402.87 487.4 402.87 487.4 408.16 499.17 C411.42 501.1 414.12 501.92 417.78 502.79 C427.59 505.19 434.31 509.88 440.16 518.17 C445.28 526.89 446.45 535.44 444.77 545.52 C441.88 554.85 433.23 560.21 425.12 564.7 C401.89 576.26 367.35 571.42 343.16 564.17 C331.1 559.64 323.48 551.85 318.16 540.17 C310.42 519.14 310.98 497.27 311.16 475.17 C310.51 475.34 309.86 475.51 309.19 475.69 C306.2 476.47 303.21 477.26 300.22 478.04 C299.2 478.31 298.18 478.58 297.13 478.86 C291.16 480.42 285.19 481.87 279.16 483.17 C279.44 495.92 283.86 510.99 293.16 520.17 C296.41 522.32 299.75 524.24 303.12 526.19 C310.39 530.92 312.99 537.94 314.76 546.17 C315.92 554.81 314.03 560.96 309.16 568.11 C297.55 581.26 277.84 584.92 261.16 586.17 C257.16 586.32 253.16 586.35 249.16 586.36 C248.14 586.37 247.13 586.38 246.08 586.39 C231.59 586.42 216.25 582.7 205.02 573.07 C195.29 563.1 190.63 549.78 189.93 536.09 C189.89 535.38 189.86 534.67 189.82 533.94 C189.76 532.54 189.71 531.14 189.68 529.74 C189.48 524.53 188.22 521.23 184.54 517.54 C170.82 509.6 152.89 510.87 137.6 510.98 C135.73 510.99 133.86 510.99 132 511 C119.37 511.06 106.77 511.34 94.16 512.17 C95.01 512.79 95.01 512.79 95.88 513.42 C104.11 519.57 111.54 526 113.62 536.51 C114.68 544.21 114.05 550.84 109.6 557.36 C106.08 561.65 101.96 564.46 97.16 567.17 C96.51 567.55 95.85 567.93 95.18 568.32 C73.12 579.63 40.93 575.41 17.91 569.54 C11.29 567.29 6.88 563.2 2.16 558.17 C1.56 557.57 0.97 556.96 0.35 556.34 C-6.33 549.19 -9.18 540.48 -9.14 530.83 C-8.67 525.12 -7.48 519.55 -6.26 513.96 C-5 507.94 -4.6 502.31 -4.84 496.17 C-6.02 495.86 -6.02 495.86 -7.21 495.54 C-15.66 492.34 -22.18 487.28 -28.71 481.12 C-30.88 479.03 -30.88 479.03 -33.84 477.17 C-37.8 486.09 -40.62 499.46 -38.84 509.17 C-35.87 513.58 -31.58 515.48 -26.98 517.92 C-20.98 521.41 -17.01 527.08 -14.59 533.48 C-13.19 540.38 -12.96 545.94 -16.52 552.2 C-24.28 563.78 -34.41 569.62 -47.93 572.63 C-49.91 572.94 -51.84 573.08 -53.84 573.17 C-54.7 573.22 -55.56 573.27 -56.45 573.32 C-81.65 574.11 -110.05 568.12 -128.86 550.65 C-139.56 540.33 -146.58 528.55 -147.27 513.41 C-147.3 511.43 -147.3 509.46 -147.28 507.48 C-147.27 506.42 -147.26 505.37 -147.25 504.28 C-147.07 496.27 -146.01 489.3 -143.6 481.63 C-142.26 477.3 -141.04 472.93 -139.79 468.57 C-139.09 466.11 -138.38 463.65 -137.66 461.19 C-131.86 442.73 -131.86 442.73 -134.15 424.04 C-136.52 420.05 -139.88 417.04 -143.21 413.86 C-149.33 407.92 -154.28 401.08 -159.32 394.23 C-160.69 392.38 -162.07 390.54 -163.46 388.7 C-175.26 372.95 -184.46 355.37 -191.84 337.17 C-192.11 336.5 -192.39 335.83 -192.67 335.14 C-205.19 303.88 -211.72 264.04 -212.11 230.53 C-212.13 229.04 -212.13 229.04 -212.15 227.52 C-212.38 205.19 -212.03 183.99 -206.84 162.17 C-206.58 161.02 -206.32 159.88 -206.04 158.7 C-198.31 125.55 -182.16 96 -158.84 71.17 C-157.69 69.84 -156.54 68.51 -155.4 67.17 C-133.7 42.32 -106.38 27.36 -76.59 14.11 C-75.6 13.66 -74.62 13.22 -73.6 12.77 C-62.27 7.84 -51.01 4.71 -38.78 2.98 C-37.16 2.73 -37.16 2.73 -35.5 2.48 C-23.66 0.73 -11.97 0.01 0 0 Z M-46.09 14.98 C-46.77 15.11 -47.45 15.24 -48.16 15.37 C-61.8 18.37 -74.74 24.74 -87.21 30.86 C-88.29 31.38 -88.29 31.38 -89.39 31.92 C-105.39 39.76 -120.39 47.63 -133.05 60.38 C-135.09 62.42 -137.17 64.43 -139.25 66.44 C-148.23 75.17 -156.47 84.05 -163.84 94.17 C-164.43 94.94 -165.03 95.72 -165.64 96.52 C-199.43 142.14 -207.43 202.03 -199.25 257.16 C-192.62 301.02 -183.38 346.16 -155.84 382.17 C-154.48 384.01 -153.12 385.86 -151.77 387.72 C-150.82 389.01 -149.87 390.31 -148.91 391.61 C-146.8 394.48 -144.7 397.37 -142.64 400.29 C-138.56 406.07 -134.34 411.66 -128.84 416.17 C-128.18 416.17 -127.52 416.17 -126.84 416.17 C-126.34 415.34 -125.85 414.52 -125.34 413.67 C-124.84 412.84 -124.35 412.02 -123.84 411.17 C-123.18 411.17 -122.52 411.17 -121.84 411.17 C-115.67 429.67 -122.53 451.8 -127.82 469.7 C-129.24 474.54 -130.51 479.41 -131.78 484.29 C-131.98 485.04 -132.17 485.78 -132.38 486.55 C-135.67 498.89 -137.72 515.31 -131.84 527.17 C-129.16 531.17 -126.15 534.68 -122.84 538.17 C-122.17 538.89 -121.5 539.61 -120.81 540.36 C-109.34 551.63 -90.65 558.83 -74.84 560.17 C-72.06 560.05 -69.58 559.69 -66.84 559.17 C-66.24 552.75 -68.1 548.97 -71.28 543.48 C-72.11 542 -72.95 540.52 -73.77 539.03 C-74.15 538.38 -74.52 537.74 -74.9 537.07 C-75.86 535.12 -76.39 533.29 -76.84 531.17 C-68.68 535.51 -62.15 539.34 -57.53 547.48 C-56.46 551.65 -56.16 555.88 -55.84 560.17 C-45.33 559.38 -45.33 559.38 -36.09 554.75 C-34.54 553.11 -34.54 553.11 -34.71 550.17 C-35.59 545.39 -38.54 541.65 -41.25 537.72 C-42.68 535.43 -43.4 533.8 -43.84 531.17 C-37.69 533.46 -33.15 536.26 -28.37 540.78 C-27.06 542.28 -27.06 542.28 -25.84 542.17 C-25.16 536.81 -25.16 536.81 -27.22 532 C-29.01 529.94 -30.86 528.04 -32.84 526.17 C-33.62 525.43 -34.41 524.68 -35.21 523.92 C-37.66 522.11 -37.66 522.11 -40.04 521.46 C-43.79 520.23 -46.19 519.37 -48.12 515.81 C-54.25 494.83 -45.21 466.25 -36.82 446.81 C-35.84 445.17 -35.84 445.17 -33.84 444.17 C-33.83 444.81 -33.82 445.45 -33.81 446.11 C-33.76 449.02 -33.67 451.94 -33.59 454.86 C-33.58 455.86 -33.56 456.87 -33.55 457.91 C-33.41 462.03 -33.28 465.27 -31.44 469 C-27.45 472.33 -23.09 474.72 -18.53 477.17 C-17.62 477.68 -16.72 478.18 -15.78 478.71 C-3.07 485.61 10.17 488.89 24.28 491.43 C26.66 491.86 29.04 492.3 31.42 492.75 C52.49 496.67 73.33 498.2 94.71 498.7 C96.46 498.75 98.21 498.79 99.96 498.83 C103.62 498.92 107.27 499.01 110.92 499.1 C115.51 499.21 120.11 499.32 124.7 499.44 C144.86 499.94 165 500.33 185.16 500.17 C184.37 498.57 183.58 496.97 182.78 495.37 C182.12 494.03 182.12 494.03 181.44 492.67 C179.96 489.77 178.28 487.06 176.47 484.36 C173.04 479.2 171.03 475.43 171.16 469.17 C174.52 472.38 177.87 475.62 181.19 478.87 C182.33 479.97 183.46 481.07 184.6 482.16 C198.11 495.07 200.11 505.68 200.54 523.92 C200.55 525.02 200.57 526.12 200.59 527.26 C200.96 540.47 203.74 553.98 212.79 564.11 C217.68 567.1 222.8 569.17 228.16 571.17 C229.29 571.6 230.43 572.03 231.6 572.48 C237.1 573.54 242.58 573.32 248.16 573.17 C249.28 569.77 249.14 569.12 247.85 565.48 C245.31 560.68 241.44 557.57 237.3 554.15 C235.16 552.17 235.16 552.17 234.16 549.17 C250.46 551.23 250.46 551.23 256.1 557.23 C258.02 560.74 258.4 563.93 258.72 567.86 C258.85 569.35 258.85 569.35 258.98 570.87 C259.04 571.63 259.1 572.39 259.16 573.17 C271.08 572.99 271.08 572.99 282.16 569.17 C284.22 566.38 284.22 566.38 285.16 563.17 C285.45 562.38 285.74 561.6 286.04 560.79 C286.28 555.6 284.43 551.71 281.21 547.79 C279.8 546.25 278.37 544.74 276.9 543.25 C275.14 541.14 274.56 539.85 274.16 537.17 C281.84 539.7 289.08 542.89 293.32 550.15 C295.15 554.55 295.46 558.44 295.16 563.17 C298.27 562.24 299.85 561.59 301.8 558.95 C303.33 555.82 303.59 553.76 303.6 550.29 C303.62 549.31 303.64 548.32 303.66 547.3 C302.92 542.62 301.27 538.82 297.52 535.88 C295.65 534.73 293.74 533.69 291.79 532.67 C278.9 525.37 272.94 514.1 268.8 500.03 C267.67 494.98 267.68 489.97 267.65 484.82 C267.62 483.11 267.62 483.11 267.59 481.36 C267.54 477.76 267.51 474.15 267.47 470.54 C267.44 468.08 267.4 465.62 267.37 463.16 C267.28 457.17 267.22 451.17 267.16 445.17 C273.2 449.77 275.78 454.03 276.85 461.47 C277.38 465.69 277.79 469.93 278.16 474.17 C297.84 467.34 317.35 460.05 336.8 452.59 C337.6 452.29 338.4 451.98 339.22 451.66 C339.91 451.4 340.61 451.13 341.32 450.86 C356.61 445.13 375.37 449.64 389.67 456.01 C395.75 458.79 401.78 461.67 407.8 464.57 C412.45 466.78 417.14 468.89 421.85 470.98 C426.41 473.01 430.95 475.04 435.43 477.25 C456.92 487.84 480.12 493.21 503.22 499.11 C509.66 500.75 516.1 502.41 522.54 504.07 C524.09 504.47 525.65 504.87 527.21 505.27 C536.22 507.59 545.2 509.98 554.13 512.59 C561.4 514.72 568.63 516.5 576.1 517.79 C577.77 518.09 577.77 518.09 579.47 518.4 C608.5 523.45 637.72 526.26 667.16 527.17 C667.97 527.2 668.78 527.23 669.62 527.25 C687.4 527.83 714.3 527.92 728.16 515.17 C730.97 510.7 730.25 506.12 729.16 501.17 C726.96 496.06 723.09 492.48 718.05 490.22 C709.86 487.31 701.5 487.02 692.89 486.77 C690.86 486.71 688.84 486.64 686.81 486.57 C685.76 486.54 684.7 486.5 683.62 486.47 C661.96 485.72 640.61 484.28 619.16 481.17 C618.41 481.06 617.65 480.95 616.87 480.84 C586.69 476.44 557.28 470.39 528.16 461.17 C526.32 460.59 526.32 460.59 524.44 460 C493.19 450.06 461.07 438.33 434.16 419.17 C433.17 418.47 432.17 417.76 431.15 417.04 C419.34 408.42 408.58 398.78 398.16 388.54 C397.36 387.77 396.56 386.99 395.73 386.19 C389.98 380.46 385.79 374.43 382.16 367.17 C379.47 367.63 377.21 368.15 374.72 369.29 C371.53 370.38 369.41 369.92 366.16 369.17 C366.16 367.85 366.16 366.53 366.16 365.17 C368.14 363.49 368.14 363.49 370.79 361.86 C377.44 357.43 381.22 352.92 385.1 345.98 C387.81 341.25 390.21 339.35 395.16 337.17 C395.04 337.76 394.92 338.35 394.8 338.96 C394.67 339.75 394.54 340.54 394.41 341.36 C394.27 342.13 394.13 342.91 393.99 343.71 C394.24 347.26 395.69 348.68 398.16 351.17 C435.79 373.4 496.17 370.97 538.85 371.79 C539.97 371.81 541.09 371.84 542.25 371.86 C599.1 372.92 651.11 366.38 704.16 345.17 C705.19 344.76 706.23 344.36 707.29 343.94 C718.54 339.51 727.85 334.97 737.16 327.17 C738.74 326.01 740.31 324.84 741.9 323.69 C755.88 313.37 772.77 298.89 776.16 281.17 C776.6 276.19 776.64 271.23 776.6 266.23 C776.59 265.54 776.59 264.84 776.59 264.12 C776.41 235.8 772.12 202.59 752.12 180.77 C745.84 175.63 737.83 176.55 730.16 177.17 C723.03 178.65 717.92 180.49 713.16 186.17 C710.65 190.4 708.46 194.81 706.27 199.21 C705.81 200.09 705.35 200.97 704.88 201.87 C704.48 202.67 704.07 203.47 703.66 204.3 C702.16 206.17 702.16 206.17 699.61 207.03 C697.16 207.17 697.16 207.17 695.22 205.67 C694.1 204.31 692.99 202.95 691.93 201.55 C686.9 195.21 680.33 190.29 672.16 189.17 C661.17 188.37 651.9 190.22 643.16 197.17 C635.66 204.34 630.9 211.23 630.17 221.71 C630.16 224.04 630.34 226.23 630.66 228.54 C631.38 233.74 631.38 233.74 630.16 236.17 C628.85 236.88 627.51 237.53 626.16 238.17 C625.07 238.75 623.99 239.34 622.87 239.94 C613.27 245.03 603.74 248.67 593.16 251.17 C592.11 251.43 591.06 251.69 589.98 251.96 C544.53 262.96 489.64 260.13 445.16 246.17 C444.15 245.85 443.14 245.53 442.09 245.21 C435.24 242.76 429.03 238.85 424.52 233.06 C422.58 228.94 422.06 224.77 421.35 220.29 C418.66 204.94 413.78 189.95 401.38 179.67 C391.1 172.7 378.85 171.86 366.86 173.66 C354.58 176.48 343.53 182.3 336.35 192.98 C333.99 197.03 332.65 201.36 331.35 205.85 C330.16 208.17 330.16 208.17 327.54 209.49 C326.75 209.71 325.97 209.94 325.16 210.17 C322.24 207.46 320.37 204.95 318.54 201.42 C312.6 191.36 302.83 186.21 292.16 182.17 C280.55 179.22 270.2 181.51 260.04 187.34 C250.18 193.59 242.38 200.2 239.17 211.71 C237.88 217.72 237.07 223.6 236.72 229.73 C236.26 236.24 233.89 239.71 229.14 244.04 C224.87 247.66 220.19 249.7 215.04 251.79 C213.63 252.38 213.63 252.38 212.19 252.97 C209.52 254.06 206.84 255.12 204.16 256.17 C203.04 256.6 201.93 257.04 200.78 257.49 C134.66 280.28 40.28 269.62 -21.46 239.94 C-41.7 229.92 -60.65 213.56 -68.34 191.73 C-75.17 169.5 -69.55 146.47 -59.03 126.48 C-50.13 110.17 -38.8 96.27 -23.84 85.17 C-23.05 84.58 -22.26 83.98 -21.44 83.38 C-15.44 79.24 -9 76.31 -2.34 73.42 C-1.04 72.85 -1.04 72.85 0.28 72.28 C21.21 63.47 41.64 64.49 63.79 66.67 C87.14 70.06 87.14 70.06 109.16 64.17 C110.19 63.59 111.22 63.01 112.29 62.42 C114.53 59.72 114.82 57.78 114.57 54.3 C112.67 44.33 104.41 36.28 96.47 30.54 C94.72 29.39 92.94 28.27 91.16 27.17 C90.1 26.5 89.04 25.83 87.94 25.14 C67.64 12.7 44.72 9.94 21.35 9.92 C20.55 9.92 19.74 9.92 18.92 9.91 C-2.73 9.93 -24.79 10.91 -46.09 14.98 Z M17.16 77.17 C16.83 77.83 16.5 78.49 16.16 79.17 C19.2 82.52 22.48 85.32 26.1 88.04 C26.91 88.66 27.72 89.28 28.56 89.91 C31.94 91.55 33.6 91.21 37.16 90.17 C42.96 87.2 47.86 83.02 52.16 78.17 C52.16 77.51 52.16 76.85 52.16 76.17 C40.78 74.03 28.47 74.69 17.16 77.17 Z M-34.34 109.42 C-35.03 110.1 -35.73 110.79 -36.44 111.49 C-42.37 116.94 -42.37 116.94 -44.84 124.17 C-30.54 124.78 -30.54 124.78 -17.21 120.42 C-13.5 116.9 -12.01 114.31 -11.59 109.14 C-11.48 103.12 -11.74 97.82 -13.84 92.17 C-19.81 92.17 -30.22 105.32 -34.34 109.42 Z M-58.84 153.17 C-60.42 158.74 -61.17 163.7 -61.09 169.48 C-61.08 170.22 -61.07 170.97 -61.06 171.73 C-60.85 182.59 -58.92 191.91 -52.84 201.17 C-51.85 201.5 -50.86 201.83 -49.84 202.17 C-48.39 199.03 -46.96 195.88 -45.53 192.73 C-45.12 191.85 -44.72 190.97 -44.3 190.07 C-38.66 178.99 -38.66 178.99 -38.84 167.17 C-41.89 162.68 -45.44 160.16 -49.96 157.36 C-50.6 156.95 -51.23 156.54 -51.88 156.12 C-55.11 153.9 -55.11 153.9 -58.84 153.17 Z M-9.29 210.69 C-18.46 212.32 -27.09 215.03 -35.84 218.17 C-22.77 232.43 0.89 240.42 19.16 245.17 C19.82 245.17 20.48 245.17 21.16 245.17 C18.73 234.23 14.22 216.62 4.16 210.17 C-0.4 208.94 -4.7 210 -9.29 210.69 Z M46.66 246.47 C44.23 248.48 44.23 248.48 43.16 251.17 C46.91 251.65 50.66 252.13 54.41 252.61 C55.45 252.74 56.5 252.87 57.57 253.01 C69.06 254.47 80.33 255.32 91.91 255.23 C93.55 255.22 93.55 255.22 95.21 255.22 C97.86 255.21 100.51 255.19 103.16 255.17 C102.64 249.57 101.16 245.34 98.6 240.36 C98.24 239.66 97.89 238.96 97.53 238.25 C93.92 231.35 89.73 224.55 83.16 220.17 C69.33 220.17 55.73 237.43 46.66 246.47 Z M156.16 228.17 C155.33 228.92 154.5 229.66 153.65 230.43 C146.7 237.03 138.25 245.89 135.16 255.17 C156.73 255.68 177.15 253.01 198.16 248.17 C196.56 243.85 194.65 241.22 191.47 237.86 C188.37 234.54 185.33 231.21 182.41 227.73 C178.73 223.54 175.46 220.7 169.91 219.42 C164.03 220.59 160.51 224.18 156.16 228.17 Z M746.29 331.79 C745.47 332.41 744.65 333.03 743.81 333.66 C737.98 338.18 732.9 342.49 731.89 350.24 C731.59 357.69 733.81 363.11 737.04 369.73 C737.5 370.73 737.96 371.72 738.43 372.75 C740.4 377.76 740.4 377.76 744.16 381.17 C752.57 363.4 757.88 345.04 757.16 325.17 C753.04 325.17 749.42 329.35 746.29 331.79 Z M390.16 357.17 C389.5 357.83 388.84 358.49 388.16 359.17 C388.53 366.4 395.3 371.54 400.31 376.15 C401.9 377.52 403.53 378.85 405.16 380.17 C409.02 378.36 411.92 375.94 415.16 373.17 C416.49 372.16 417.82 371.16 419.16 370.17 C418.48 369.9 417.8 369.63 417.1 369.36 C409.99 366.48 403.15 363.25 396.33 359.76 C393.38 357.97 393.38 357.97 390.16 357.17 Z M686.04 363.36 C679.99 365.92 673.88 367.94 667.61 369.86 C663.72 371.34 660.13 373.19 657.16 376.17 C656.98 386.72 662.93 397.79 669.66 405.73 C670.8 406.9 671.97 408.05 673.16 409.17 C674.22 410.17 674.22 410.17 675.3 411.2 C678.74 414.79 678.74 414.79 683.16 416.17 C685.95 408.86 687.83 401.58 689.35 393.92 C689.6 392.66 689.6 392.66 689.85 391.38 C691.35 383.61 692.29 376.09 692.22 368.17 C692.22 367.49 692.21 366.81 692.21 366.11 C692.2 364.46 692.18 362.82 692.16 361.17 C690.08 361.17 687.9 362.55 686.04 363.36 Z M451.16 376.17 C452.76 383.89 454.76 390.23 459.16 396.79 C459.6 397.49 460.04 398.18 460.49 398.89 C462.58 402.12 463.89 403.99 467.16 406.17 C473.03 398.63 476.69 391 480.16 382.17 C476.89 379.99 475.02 379.66 471.18 379.1 C470.02 378.92 468.85 378.75 467.65 378.57 C466.44 378.4 465.22 378.22 463.97 378.04 C462.75 377.86 461.52 377.68 460.26 377.49 C457.22 377.04 454.19 376.6 451.16 376.17 Z M415.16 383.17 C414.12 385.54 414.12 385.54 414.16 388.17 C415.6 390.41 415.6 390.41 417.79 392.29 C418.48 392.96 419.17 393.62 419.89 394.3 C422.2 396.2 424.56 397.7 427.16 399.17 C427.02 396.21 426.87 393.25 426.72 390.29 C426.68 389.45 426.64 388.61 426.6 387.74 C426.54 386.53 426.54 386.53 426.48 385.3 C426.44 384.56 426.4 383.81 426.37 383.05 C426.26 381.08 426.26 381.08 425.16 379.17 C420.38 379.17 418.81 380.17 415.16 383.17 Z M586.72 382.54 C586 382.57 585.27 382.6 584.52 382.64 C580.39 382.77 580.39 382.77 577.16 385.17 C582.39 396.92 591.64 412.88 603.93 418.41 C604.66 418.66 605.4 418.91 606.16 419.17 C610.49 407.47 613.97 394.71 613.16 382.17 C604.34 382.07 595.54 382.09 586.72 382.54 Z M511.16 383.17 C513.03 390.3 515.62 396.61 519.1 403.11 C519.53 403.94 519.96 404.78 520.4 405.64 C520.83 406.44 521.25 407.24 521.69 408.07 C522.07 408.79 522.45 409.5 522.84 410.24 C524.34 412.43 525.97 413.69 528.16 415.17 C536.63 406.7 539.6 395.81 541.16 384.17 C537.86 383.07 535.43 383.05 531.96 383.07 C530.15 383.08 530.15 383.08 528.3 383.08 C527.04 383.09 525.77 383.1 524.47 383.11 C523.2 383.11 521.92 383.11 520.61 383.12 C517.46 383.13 514.31 383.15 511.16 383.17 Z M492.14 411.86 C491.41 412.62 490.67 413.38 489.91 414.17 C489.12 414.99 488.33 415.8 487.52 416.64 C481.46 423.1 481.46 423.1 476.16 430.17 C485.73 433.8 495.3 437.43 505.16 441.17 C503.49 431.04 503.49 431.04 501.16 421.17 C500.83 419.93 500.5 418.69 500.16 417.42 C499.35 414.79 498.5 412.55 497.16 410.17 C494.11 409.85 494.11 409.85 492.14 411.86 Z M557.16 416.17 C547.26 426.43 538.08 437.29 530.16 449.17 C550.34 456.36 550.34 456.36 571.16 461.17 C570.87 452.6 569.84 444.24 568.41 435.79 C568.19 434.4 568.19 434.4 567.97 432.99 C566.93 427.11 565.38 421.6 561.16 417.17 C559.08 416.42 559.08 416.42 557.16 416.17 Z M629.16 432.17 C626.48 435.3 624.03 438.58 621.6 441.92 C620.95 442.8 620.3 443.68 619.62 444.59 C611.34 455.1 611.34 455.1 606.16 467.17 C613.16 469.16 620.25 470.11 627.46 471.03 C629.52 471.29 631.59 471.57 633.65 471.84 C640.85 472.78 647.9 473.46 655.16 473.17 C653.25 448.32 653.25 448.32 641.47 427.04 C636.41 422.94 632.94 428.42 629.16 432.17 Z M711.16 427.17 C708.49 432.29 706.03 437.45 703.81 442.78 C699.54 453.01 694.15 462.7 687.36 471.5 C685.97 473.1 685.97 473.1 686.16 475.17 C687.11 475.24 687.11 475.24 688.08 475.3 C710.23 476.92 710.23 476.92 718.95 479.68 C721.4 480.22 722.82 479.97 725.16 479.17 C728.64 464.22 728.95 448.04 721.52 434.27 C718.79 430.06 715.94 428.23 711.16 427.17 Z M341.16 460.17 C339.68 460.83 338.2 461.49 336.72 462.14 C335.18 462.84 333.64 463.53 332.1 464.23 C331.36 464.56 330.62 464.89 329.86 465.22 C326.06 466.99 323.21 468.32 321.16 472.17 C317.55 484.45 320.18 499.36 321.91 511.73 C322.07 512.88 322.22 514.03 322.39 515.22 C324.05 526.27 326.39 536.8 334.16 545.17 C334.67 545.72 335.19 546.28 335.71 546.85 C344.53 555.33 357.56 556.49 369.16 558.17 C370.53 558.37 370.53 558.37 371.92 558.57 C376.51 559.11 381.1 559.21 385.72 559.22 C386.73 559.23 387.73 559.23 388.76 559.23 C393.23 559.23 397.7 559.21 402.16 559.17 C403.09 555.29 403.09 555.29 402.29 551.42 C397.8 544.56 391.45 539.33 385.16 534.17 C385.16 533.84 385.16 533.51 385.16 533.17 C392.98 532.42 398.62 533.73 405.16 538.17 C411.15 543.53 412.38 549.53 413.16 557.17 C418.25 555.77 423.14 553.64 427.16 550.17 C428.18 548.32 428.18 548.32 428.16 546.17 C425.44 539.58 420.66 534.18 415.8 529.08 C414.16 527.17 414.16 527.17 413.16 524.17 C420.05 524.19 424.72 524.62 429.72 529.6 C430.2 530.12 430.67 530.63 431.16 531.17 C432.16 532.17 433.16 533.17 434.16 534.17 C434.04 528.56 432.56 525.3 428.7 521.22 C421.27 515.21 412.17 511.53 402.97 509.29 C399.53 508.32 397.68 507.76 395.32 505.06 C390.2 495.48 388.83 483.94 390.91 473.36 C391.48 470.13 391.48 470.13 389.59 467.7 C382.21 460.02 368.82 455.32 358.29 454.67 C351.96 454.9 346.8 457.49 341.16 460.17 Z M6.16 501.17 C5.51 504.35 4.87 507.54 4.22 510.73 C3.95 512.07 3.95 512.07 3.67 513.44 C0.04 529.82 0.04 529.82 5.16 545.17 C12.76 554.12 19.54 558.25 30.97 560.29 C32.4 560.55 32.4 560.55 33.85 560.81 C48.52 563.26 64.38 564.45 79.16 562.17 C80.44 561.08 80.44 561.08 80.72 558.48 C80.06 554.58 79.41 554.2 76.35 551.92 C74.97 550.98 73.57 550.06 72.16 549.17 C69.16 547.17 69.16 547.17 68.47 545.04 C68.37 544.42 68.27 543.81 68.16 543.17 C83.92 544.81 83.92 544.81 88.16 549.17 C89.48 551.82 90.3 554.31 91.16 557.17 C94.33 555.58 95.89 554.72 97.47 551.48 C97.7 550.72 97.93 549.95 98.16 549.17 C93.44 543.58 88.43 538.38 83.2 533.27 C81.16 531.17 81.16 531.17 80.16 529.17 C86.56 529.5 91.48 529.96 97.16 533.17 C98.15 532.67 98.15 532.67 99.16 532.17 C93.63 526.66 88.48 523.73 81.16 521.17 C79.78 520.6 78.4 520.02 77.04 519.42 C76.09 519.01 75.14 518.59 74.16 518.17 C74.16 517.18 74.16 516.19 74.16 515.17 C77.13 514.18 80.1 513.19 83.16 512.17 C83.16 511.84 83.16 511.51 83.16 511.17 C75.7 510.04 68.23 509.03 60.73 508.24 C60 508.16 59.28 508.09 58.53 508.01 C57.03 507.85 55.53 507.69 54.03 507.54 C39.96 506.06 26.04 504.24 12.15 501.47 C9.84 501.07 9.84 501.07 6.16 501.17 Z " fill="#000000" transform="translate(301.83984375,247.83203125)"/>
<path d="M0 0 C4.97 5.43 7.95 11.05 8.25 18.5 C7.84 26.33 4.67 32.71 -0.62 38.43 C-5.62 42.87 -11.65 45.03 -18.31 44.94 C-25.25 44.36 -30.38 41.84 -35.31 36.94 C-40.86 29.66 -42.41 23.06 -41.31 13.94 C-38.74 6.05 -34.82 -0.22 -27.31 -4.06 C-18.13 -7.02 -8.03 -5 0 0 Z M-23.44 6.06 C-25.94 8.57 -26.09 10.46 -26.31 13.94 C-25.98 14.6 -25.65 15.26 -25.31 15.94 C-24.03 15.96 -22.75 15.98 -21.44 16 C-20.72 16.01 -20 16.02 -19.26 16.04 C-17.23 16.06 -17.23 16.06 -15.31 14.94 C-14.89 10.21 -14.89 10.21 -16.62 6 C-19.22 4.37 -20.8 4.67 -23.44 6.06 Z " fill="#000000" transform="translate(602.3125,456.0625)"/>
<path d="M0 0 C5.8 3.57 9.8 8.91 11.82 15.4 C13.47 22.9 11.77 28.71 8.26 35.39 C4.8 40.76 0.5 44.71 -5.74 46.39 C-14.64 47.52 -22.43 46.91 -29.74 41.39 C-35.26 35.79 -37.03 29.22 -37.12 21.45 C-36.97 13.24 -34.93 9.6 -29.37 3.64 C-20.91 -4.28 -10.45 -4.77 0 0 Z M-18.43 8.39 C-21.09 10.3 -21.09 10.3 -21.62 14.02 C-21.66 15.13 -21.7 16.24 -21.74 17.39 C-19.85 19.29 -17.17 18.57 -14.65 18.62 C-12.5 18.56 -12.5 18.56 -10.74 16.39 C-10.46 12.25 -10.46 12.25 -11.74 8.39 C-14.48 7.12 -15.57 7.33 -18.43 8.39 Z " fill="#000000" transform="translate(694.7421875,440.609375)"/>
<path d="M0 0 C9.47 5.27 13.52 11.69 17.25 21.75 C19.59 33.04 20.13 45.28 14.24 55.63 C9.47 62.33 2.89 65.5 -5 67.38 C-11.58 68.17 -18.29 68.03 -24 64.38 C-31.56 57.93 -34.71 50.41 -36.75 40.88 C-37.49 30.54 -37.87 20.7 -31 12.25 C-23.04 3.91 -11.92 -5.53 0 0 Z M-22.44 17.69 C-26.75 23.16 -27.25 29.03 -26.88 35.81 C-26.05 42.54 -24.29 49.47 -19.5 54.5 C-14.29 57.29 -9.78 57.28 -4 56.38 C-0.33 55.17 2.98 53.81 6 51.38 C10.52 42.21 9.87 30.96 7 21.38 C3.92 15.44 -0.73 10.8 -6.88 8.12 C-13.2 8.63 -18.17 13.23 -22.44 17.69 Z " fill="#000000" transform="translate(1047,445.625)"/>
<path d="M0 0 C6.26 5.24 12.07 10.97 13.59 19.33 C14.2 28.95 14.52 37.73 9.59 46.33 C9.13 47.13 8.67 47.93 8.2 48.75 C3.9 55.67 -0.38 60.1 -8.41 62.33 C-15.51 63.01 -23.24 63.35 -29.41 59.33 C-36.98 53 -41.08 43.61 -42.41 33.95 C-42.87 24.96 -41.01 13.66 -35.41 6.33 C-27.09 -2.11 -10.52 -7.29 0 0 Z M-26.23 13.02 C-30.89 20.08 -31.29 28.06 -30.41 36.33 C-28.98 41.72 -27.09 46.97 -22.41 50.33 C-17.75 52.26 -12.66 51.68 -7.91 50.33 C-2.54 47.77 1.46 42.97 3.77 37.57 C4.73 33.77 4.92 30.16 4.9 26.27 C4.91 25.57 4.93 24.88 4.95 24.16 C4.95 19.69 4.38 16.85 1.59 13.33 C-0.31 11.74 -0.31 11.74 -2.41 10.58 C-3.09 10.17 -3.78 9.76 -4.48 9.34 C-12.27 5.26 -20.02 7.09 -26.23 13.02 Z " fill="#000000" transform="translate(986.4140625,471.671875)"/>
<path d="M0 0 C9.43 4.8 16.74 16.12 20 26 C20 26.99 20 27.98 20 29 C15.33 28.89 12.91 28.34 9.58 24.98 C8.45 23.73 7.34 22.47 6.25 21.19 C5.69 20.56 5.12 19.93 4.54 19.28 C1.89 16.29 -0.67 13.26 -3 10 C-8.04 11.62 -11.85 14.65 -16.06 17.75 C-33.81 30.53 -33.81 30.53 -42 30 C-41.92 27.38 -41.5 25.58 -39.76 23.58 C-35.46 19.76 -30.65 16.88 -25.77 13.86 C-23.03 12.02 -20.68 10.04 -18.25 7.81 C-12.8 2.82 -7.83 -1.48 0 0 Z " fill="#000000" transform="translate(476,538)"/>
<path d="M0 0 C7.61 5.39 15.01 13.08 17.65 22.25 C17.94 24.19 17.94 24.19 18 27 C12.86 25.69 9.71 23.33 6 19.69 C5 18.73 4 17.78 3 16.82 C2.51 16.36 2.03 15.89 1.52 15.41 C-0.9 13.17 -3.44 11.09 -6 9 C-15.64 14.74 -25.34 20.67 -34.11 27.69 C-36.52 29.36 -38.13 29.24 -41 29 C-40.71 23 -38.07 20.07 -34 16 C-31.36 13.79 -28.59 11.82 -25.75 9.88 C-25 9.36 -24.25 8.84 -23.48 8.3 C-7.16 -2.81 -7.16 -2.81 0 0 Z " fill="#000000" transform="translate(423,603)"/>
<path d="M0 0 C6.99 6.12 10.97 16.8 11.88 25.88 C11.94 27.25 11.99 28.62 12 30 C9.38 30.12 9.38 30.12 6 29 C3.57 25.91 1.86 22.45 0 19 C-1.98 15.65 -3.99 12.32 -6 9 C-6.64 9.35 -7.27 9.71 -7.92 10.07 C-10.82 11.68 -13.72 13.28 -16.62 14.88 C-17.62 15.43 -18.62 15.99 -19.65 16.56 C-20.63 17.09 -21.6 17.63 -22.6 18.18 C-23.49 18.67 -24.38 19.16 -25.3 19.67 C-30.68 22.32 -35 23.24 -41 23 C-41.33 21.68 -41.66 20.36 -42 19 C-36.25 14.86 -30.18 11.32 -24 7.88 C-23.25 7.46 -22.51 7.04 -21.74 6.6 C-5.63 -2.3 -5.63 -2.3 0 0 Z " fill="#000000" transform="translate(375,537)"/>
<path d="M0 0 C2.87 3.17 3.93 6.37 5.12 10.44 C5.46 11.55 5.79 12.66 6.13 13.81 C7.34 18.24 8.13 22.21 8.06 26.81 C8.05 27.6 8.04 28.39 8.04 29.21 C8.02 29.8 8.01 30.39 8 31 C5.75 30.94 5.75 30.94 3 30 C1.4 27.65 0.21 25.54 -1 23 C-1.87 21.21 -2.75 19.42 -3.62 17.62 C-4.03 16.77 -4.43 15.92 -4.85 15.04 C-5.83 12.85 -5.83 12.85 -8 12 C-14.51 11.54 -19.51 12.85 -25.62 15 C-35.45 18.43 -35.45 18.43 -41 18 C-41.33 16.35 -41.66 14.7 -42 13 C-37.99 10.16 -34.3 8.15 -29.65 6.46 C-27.88 5.81 -27.88 5.81 -26.07 5.14 C-24.24 4.48 -24.24 4.48 -22.38 3.81 C-21.15 3.36 -19.92 2.91 -18.66 2.45 C-4.83 -2.6 -4.83 -2.6 0 0 Z " fill="#000000" transform="translate(301,590)"/>
<path d="M0 0 C1.24 -0.02 2.49 -0.04 3.77 -0.06 C4.96 -0.07 6.15 -0.07 7.38 -0.08 C8.47 -0.09 9.56 -0.1 10.68 -0.11 C13.44 0.25 13.44 0.25 15.25 1.46 C18.75 6.76 17.62 14.3 17.62 20.38 C17.64 21.47 17.65 22.57 17.66 23.7 C17.66 24.75 17.67 25.8 17.67 26.88 C17.67 27.84 17.68 28.8 17.68 29.79 C17.44 32.25 17.44 32.25 15.44 35.25 C13.79 34.92 12.14 34.59 10.44 34.25 C8.99 28.78 7.92 23.37 7.1 17.77 C6.34 14.86 5.59 13.35 3.44 11.25 C0.76 10.41 0.76 10.41 -2.25 10.12 C-15.52 8.29 -15.52 8.29 -18.56 5.25 C-18.19 3.12 -18.19 3.12 -17.56 1.25 C-11.89 -0.46 -5.87 0.02 0 0 Z " fill="#000000" transform="translate(183.5625,534.75)"/>
<path d="M0 0 C1.88 1.88 1.13 5.09 1.13 7.59 C1.13 8.25 1.13 8.91 1.14 9.59 C1.14 10.99 1.13 12.38 1.13 13.78 C1.13 15.93 1.13 18.07 1.14 20.21 C1.14 21.57 1.13 22.92 1.13 24.28 C1.13 25.52 1.13 26.76 1.13 28.03 C1 31 1 31 0 33 C-1.88 32.69 -1.88 32.69 -4 32 C-6.74 27.89 -6.77 23.98 -7.34 19.13 C-8.02 15.9 -8.71 14.34 -11 12 C-13.87 11.04 -15.8 10.85 -18.78 10.79 C-19.71 10.76 -20.63 10.73 -21.58 10.7 C-23.53 10.65 -25.47 10.61 -27.42 10.57 C-28.8 10.52 -28.8 10.52 -30.22 10.48 C-31.06 10.46 -31.91 10.44 -32.78 10.42 C-35.42 9.92 -36.32 9.05 -38 7 C-37.67 6.01 -37.34 5.02 -37 4 C-30.13 1.42 -22.38 0.67 -15.12 -0.25 C-14.42 -0.34 -13.72 -0.43 -13 -0.53 C-8.48 -1.05 -4.46 -0.89 0 0 Z " fill="#000000" transform="translate(281,515)"/>
<path d="M0 0 C1.96 2.06 2.94 3.32 3.18 6.19 C0.92 23.75 0.92 23.75 -5 29 C-5.99 28.67 -6.98 28.34 -8 28 C-8.89 22.06 -8.97 16.93 -8 11 C-9.05 11.03 -10.1 11.07 -11.18 11.11 C-12.55 11.13 -13.93 11.16 -15.31 11.19 C-16.35 11.23 -16.35 11.23 -17.4 11.26 C-22.56 11.34 -22.56 11.34 -24.98 9.49 C-25.49 8.75 -25.49 8.75 -26 8 C-25.67 7.01 -25.34 6.02 -25 5 C-22.05 3.87 -22.05 3.87 -18.31 2.88 C-17.09 2.54 -15.87 2.21 -14.61 1.87 C-4.37 -0.59 -4.37 -0.59 0 0 Z " fill="#000000" transform="translate(219,454)"/>
<path d="M0 0 C1.14 0.36 2.28 0.71 3.46 1.08 C10.12 3.41 10.12 3.41 12.05 6.4 C13.26 12.26 8.7 18.29 5.62 23.19 C-1.36 33.18 -1.36 33.18 -5.38 35.19 C-5.89 28.62 -4.41 23.54 -2.25 17.34 C-1.36 14.13 -1.22 11.49 -1.38 8.19 C-2.32 7.9 -3.27 7.61 -4.25 7.31 C-7.38 6.19 -7.38 6.19 -9.38 4.19 C-9.12 1.62 -9.12 1.62 -8.38 -0.81 C-5.28 -2.36 -3.22 -1.02 0 0 Z " fill="#000000" transform="translate(154.375,409.8125)"/>
<path d="M0 0 C4.76 1.95 9.53 4.13 13.5 7.44 C14.73 10.51 14.75 11.84 13.46 14.9 C4.69 28.58 4.69 28.58 -1.5 31.44 C-2.82 31.44 -4.14 31.44 -5.5 31.44 C-5.09 26.23 -3.1 22.41 -0.66 17.9 C0.52 15.4 1.07 13.16 1.5 10.44 C0.51 9.72 -0.48 8.99 -1.5 8.25 C-4.45 5.83 -4.45 5.83 -4.88 2.62 C-4.75 1.9 -4.63 1.18 -4.5 0.44 C-2.5 -0.56 -2.5 -0.56 0 0 Z " fill="#000000" transform="translate(202.5,359.5625)"/>
<path d="M0 0 C0.99 0 1.98 0 3 0 C5.68 6.04 6.91 11.37 6 18 C4 21 4 21 0.86 21.77 C-3.23 22.01 -6.84 21.56 -10.81 20.69 C-11.48 20.56 -12.15 20.43 -12.83 20.29 C-17.73 19.27 -17.73 19.27 -20 17 C-20 15.68 -20 14.36 -20 13 C-17.04 11.52 -14.16 11.65 -10.88 11.44 C-9.59 11.35 -8.31 11.27 -6.99 11.18 C-6 11.12 -5.02 11.06 -4 11 C-3.8 10.37 -3.59 9.75 -3.38 9.1 C-3.11 8.28 -2.84 7.47 -2.56 6.62 C-2.3 5.81 -2.03 5 -1.75 4.16 C-1 2 -1 2 0 0 Z " fill="#000000" transform="translate(253,314)"/>
</svg>
