<?xml version="1.0" encoding="iso-8859-1"?>
<!-- Generator: Adobe Illustrator 26.0.3, SVG Export Plug-In . SVG Version: 6.00 Build 0)  -->
<svg version="1.1" id="Layer_15" xmlns="http://www.w3.org/2000/svg" xmlns:xlink="http://www.w3.org/1999/xlink" x="0px" y="0px"
	 width="802.424px" height="438.632px" viewBox="0 0 802.424 438.632" enable-background="new 0 0 802.424 438.632"
	 xml:space="preserve">
<path d="M800.916,115.874c-3.472-15.622-10.042-29.936-18.868-43.18c-12.641-18.967-27.666-35.569-47.803-46.984
	c-15.997-9.069-33.07-14.5-51.427-15.768c-11.534-0.797-22.955,0.356-34.208,2.784c-15.253,3.29-29.95,8.135-43.175,16.746
	c-2.159,1.406-3.841,4.281-6.012,4.471c-2.263,0.198-3.628-3.224-5.859-4.483c-0.704-0.398-1.373-0.859-2.07-1.271
	c-4.668-2.757-9.575-4.984-14.746-6.622c-19.223-6.092-38.758-10.613-58.908-12.401c-16.137-1.432-32.232-3.333-48.426-4.073
	c-7.553-0.345-15.107-0.69-22.66-1.036c-13.489-0.618-26.974-1.407-40.47-1.814c-18.095-0.546-36.197-0.084-54.295,0.059
	c-27.976,0.222-55.908,1.494-83.607,5.527c-21.975,3.2-43.125,8.917-59.914,24.798c-1.007-0.311-1.68-0.999-2.293-1.708
	c-4.249-4.906-9.667-8.167-15.401-10.975c-11.795-5.778-24.171-10.035-36.68-13.931c-17.782-5.54-35.877-7.572-54.394-4.738
	c-18.804,2.878-36.533,8.599-51.914,20.19C29.631,35.145,15.784,52.334,6.622,73.19c-4.167,9.487-6.84,19.367-6.609,29.819
	c0.19,8.571,2.323,16.566,8.014,23.276c4.208,4.96,9.381,7.971,16.069,8.224c3.924,0.148,7.83-0.044,11.744-0.056
	c3.071-0.01,3.128,0.033,2.351,2.842c-1.443,5.215-2.555,10.499-3.162,15.87c-0.981,8.687-0.961,17.289,3.162,25.34
	c5.245,10.243,13.242,13.593,24.24,10.305c1.169-0.35,2.327-1.279,3.888-0.712c-1.363,5.858-2.633,11.518-2.829,17.333
	c-0.234,6.935,0.18,13.787,3.307,20.168c2.781,5.674,7.246,8.884,13.659,9.313c4.271,0.286,8.366-0.253,12.198-2.205
	c2.986-1.521,5.914-3.156,8.848-4.729c0.422,0.584,0.36,1.117,0.261,1.641c-3.611,18.968-4.538,38.042-2.244,57.241
	c1.578,13.21,4.266,26.136,10.499,38.037c9.21,17.584,20.454,33.651,35.131,47.214c30.282,27.985,65.169,46.25,106.465,51.548
	c14.724,1.889,29.445,3.867,44.139,5.962c20.744,2.958,41.582,4.725,62.457,6.13c14.413,0.97,28.86,1.454,43.292,2.141
	c44.144,2.103,87.996-0.139,131.439-8.716c22.362-4.415,43.979-10.863,64.137-21.821c19.689-10.703,36.253-24.735,48.906-43.379
	c9.035-13.313,15.417-27.832,20.723-42.899c9.845-27.954,14.926-56.859,17.119-86.335c0.186-2.497,0.141-5.04,1.132-7.848
	c3.073,2.492,5.85,4.805,8.69,7.036c5.287,4.154,11.259,6.974,17.803,8.38c10.851,2.33,20.677-3.88,23.568-14.586
	c0.968-3.586,0.892-7.212,0.834-10.86c-0.016-1.005-0.529-2.135,0.577-3.07c2.743,0.381,5.534,0.85,8.344,1.145
	c10.246,1.074,19.773-5.468,22.348-15.365c1.205-4.629,1.378-9.333,0.629-14.066c-0.677-4.277-1.703-8.466-3.146-12.55
	c-0.306-0.865-0.904-1.706-0.068-2.85c4.465,0.284,8.994-0.033,13.375-1.725c11.849-4.576,19.231-13.185,22.606-25.241
	C803.038,134.136,802.943,124.992,800.916,115.874z M792.413,139.51c-2.553,11.528-11.11,19.94-21.915,21.785
	c-3.828,0.654-7.53-0.333-11.273-0.678c-5.917-0.544-8.529,2.731-6.01,8.099c2.539,5.41,4.655,10.922,5.655,16.827
	c0.637,3.759,0.775,7.527-0.139,11.262c-1.456,5.955-5.861,9.486-11.995,9.365c-2.681-0.053-5.358-0.584-8.027-0.97
	c-1.735-0.251-3.444-0.68-5.177-0.945c-4.967-0.761-7.726,1.932-7.196,7c0.21,2.013,0.439,4.026,0.707,6.032
	c0.271,2.029,0.143,4.041-0.124,6.056c-1.078,8.087-7.26,12.294-15.085,10.068c-4.432-1.26-8.629-3.156-12.305-6.009
	c-5.339-4.144-10.5-8.495-15.115-13.453c-0.834-0.896-1.64-1.784-2.823-2.236c-2.828-1.078-5.919,0.797-5.616,3.78
	c0.732,7.199-0.626,14.252-1.19,21.347c-1.222,15.346-3.034,30.634-6.378,45.685c-4.344,19.544-10.051,38.659-18.516,56.867
	c-12.379,26.625-31.486,46.758-57.486,60.565c-20.035,10.64-41.432,16.802-63.535,21.074c-25.378,4.906-51.025,7.447-76.8,8.635
	c-12.809,0.59-25.657,0.366-38.485-0.156c-16.73-0.699-33.48-1.09-50.185-2.172c-22.628-1.466-45.222-3.34-67.702-6.549
	c-14.694-2.098-29.41-4.086-44.127-6.03c-39.062-5.159-71.932-22.712-100.55-49.168c-13.668-12.635-24.117-27.615-32.814-43.922
	c-5.745-10.772-8.257-22.485-9.797-34.467c-2.659-20.69-1.167-41.22,2.267-61.688c0.481-2.871,1.322-5.843-1.326-8.354
	c-2.867-2.718-5.076-3.017-8.169-0.455c-3.444,2.853-6.988,5.52-11.019,7.502c-1.954,0.961-3.965,1.714-6.128,2.007
	c-5.01,0.678-8.062-1.015-9.877-5.724c-2.032-5.271-2.363-10.793-1.827-16.355c0.69-7.158,2.256-14.121,5.104-20.76
	c0.266-0.62,0.52-1.25,0.714-1.895c0.629-2.091,0.409-4.061-1.225-5.614c-1.704-1.62-3.657-1.426-5.64-0.473
	c-2.068,0.994-4.137,1.989-6.233,2.923c-1.6,0.714-3.208,1.441-4.873,1.976c-7.04,2.264-10.924,0.623-14.259-5.958
	c-1.55-3.059-2.264-6.333-2.457-9.744c-0.516-9.161,1.134-18.012,3.764-26.728c0.507-1.679,1.095-3.342,1.472-5.05
	c0.992-4.499-0.981-7.009-5.605-7.21c-1.077-0.047-2.159,0.056-3.24,0.075c-4.456,0.078-8.913,0.117-13.368,0.233
	c-5.991,0.157-10.304-2.612-13.437-7.533c-2.76-4.336-3.931-9.149-4.19-14.207c-0.422-8.239,1.275-16.146,4.296-23.734
	c9.157-23.004,24.094-41.465,44.632-55.214c12.549-8.401,26.793-12.54,41.577-15.045c17.841-3.023,35.26-1.041,52.387,4.268
	c12.769,3.958,25.338,8.477,37.428,14.243c4.182,1.995,8.062,4.379,11.222,7.825c2.355,2.567,5.336,4.087,8.635,5.03
	c2.464,0.704,3.985,0.304,5.082-1.99c1.498-3.134,4.164-4.918,6.836-6.711c8.627-5.787,18.317-9.162,28.181-12.062
	c12.493-3.673,25.362-5.195,38.273-6.443c42.159-4.076,84.448-4.232,126.697-2.965c32.234,0.967,64.476,2.48,96.614,5.808
	c20.367,2.109,40.344,5.624,59.895,11.627c2.45,0.752,4.885,1.572,7.279,2.484c6.251,2.382,12.013,5.529,16.399,10.77
	c0.603,0.721,1.24,1.452,1.989,2.004c1.37,1.009,2.813,1.07,3.934-0.38c4.573-5.915,11.154-8.918,17.681-11.776
	c15.791-6.914,32.176-11.546,49.48-13.052c15.693-1.366,30.673,1.225,45.333,6.415c11.035,3.906,21.324,9.422,30.315,16.851
	c22.124,18.279,38.524,40.684,47.396,68.24C793.492,119.915,794.605,129.614,792.413,139.51z M444.372,265.568
	c1.742,12.558-2.896,26.063-17.721,32.166c-8.536,3.514-17.403,5.77-26.59,6.721c-3.749,0.388-3.669,0.371-4.058,4.252
	c-1.161,11.582-0.656,23.201-0.857,34.805c-0.023,1.347,0.026,2.718-0.202,4.035c-0.48,2.776-2.275,4.236-4.687,4.023
	c-2.222-0.197-3.731-1.751-3.876-4.413c-0.154-2.827-0.039-5.668-0.04-8.503c-0.001-2.835,0-5.669,0-7.229
	c0.588-8.414,0.782-15.566,1.599-22.682c0.376-3.281,0.262-3.34-3.119-3.351c-7.165-0.024-14.318-0.262-21.343-1.807
	c-7.208-1.585-13.899-4.321-19.544-9.26c-8.433-7.38-11.659-16.692-9.974-27.64c1.693-10.995,5.035-21.507,9.815-31.581
	c5.792-12.207,15.469-19.518,28.367-22.704c5.226-1.291,10.518-2.547,15.932-2.73c16.753-0.568,30.053,6.314,40.481,19.145
	C437.293,239.563,442.492,252.012,444.372,265.568z M725.108,105.045c1.838,13.159-1.492,25.14-9.256,35.874
	c-3.677,5.084-8.562,8.541-14.676,10.137c-2.602,0.679-5.124,1.601-7.814,2.026c-6.209,0.98-11.776-0.443-16.83-4.039
	c-11.255-8.008-19.186-18.396-22.812-31.884c-1.399-5.203-2.986-10.328-3.064-15.815c-0.079-5.589,1.877-10.277,5.513-14.349
	c6.478-7.254,14.78-11.11,24.221-12.715c2.784-0.473,5.582-1.026,7.125-0.842c7.721,0.227,13.907,1.253,19.641,4.337
	C718.062,83.64,723.455,93.204,725.108,105.045z M134.096,81.629c3.261,6.75,5.146,15.164,5.146,25.828
	c-0.026,3.26-1.109,9.468-3.086,15.542c-3.079,9.461-9.412,16.514-17.651,21.406c-8.243,4.894-16.866,5.766-26.008,0.457
	c-9.319-5.412-15.552-12.816-18.797-22.809c-7.494-23.08,6.563-46.986,30.808-52.724c4.943-1.17,9.881-1.41,14.798,0.028
	C125.99,71.312,131.037,75.299,134.096,81.629z M269.926,216.683c-0.15,3.141-1.324,5.853-3.838,7.685
	c-5.226,3.809-15.382,5.958-22.91,2.109c-6.782-3.468-9.307-15.533-1.193-21.406c3.638-2.634,7.837-3.383,11.43-3.62
	C262.381,201.455,270.287,209.113,269.926,216.683z M552.245,226.037c-3.613,4.483-8.484,5.94-13.948,6.13
	c-6.807,0.04-11.522-3.119-13.004-8.713c-1.702-6.424,0.911-12.467,6.654-15.864c5.647-3.34,11.265-3.335,16.876-0.122
	C556.058,211.612,557.451,219.577,552.245,226.037z M595.948,295.401c-7.294,7.399-20.226,7.164-27.237-0.392
	c-2.285-2.463-3.169-5.596-4.491-8.502c-0.89-1.956,0.329-4.1,2.663-5.776c2.902-2.085,9.011-3.792,14.106-3.751
	c4.79,0.394,10.027,1.471,14.37,5.093C599.971,285.92,600.174,291.115,595.948,295.401z M234.779,291.716
	c-2.646,2.189-5.718,3.606-9.07,4.207c-3.036,0.544-6.134,0.747-9.153,1.094c-4.544-0.189-8.135-1.893-10.335-5.991
	c-2.454-4.572-1.669-8.908,2.232-12.369c6.279-5.569,17.281-6.931,24.671-3.053C240.125,279.277,240.895,286.658,234.779,291.716z
	 M448.968,96.269c-5.772,0.314-3.428-11.586-3.354-14.84c0.052-2.302,0.676-5.488,3.598-5.398c1.65,0.051,2.965,1.302,3.181,3.547
	c0.437,4.551-0.061,9.109-0.275,13.658C452.033,95.047,450.863,96.166,448.968,96.269z M530.016,44.263
	c0.596-3.568,1.334-7.119,2.191-10.634c0.599-2.455,2.064-3.479,3.918-3.142c1.83,0.332,2.747,1.882,2.571,4.345
	c-0.631,3.565-1.164,7.15-1.926,10.686c-0.565,2.618-2.203,3.843-4.114,3.461C530.711,48.59,529.587,46.83,530.016,44.263z
	 M421.451,119.677c0.344-3.609,0.689-7.223,1.213-10.809c0.382-2.617,1.993-3.997,3.888-3.701c1.793,0.28,2.717,1.732,2.724,4.288
	c0.001,0.269-0.023,0.537-0.036,0.805c-0.23,2.812-0.462,5.624-0.685,8.437c-0.075,0.944-0.179,1.882-0.694,2.705
	c-0.927,1.483-2.197,2.458-4.013,1.977C422.025,122.899,421.279,121.479,421.451,119.677z M423.992,29.098
	c-0.013-1.864-0.1-3.768-0.033-5.607c0.066-1.785,0.821-3.198,2.703-3.499c1.867-0.298,3.226,0.704,3.632,2.461
	c0.974,4.23,0.903,8.532,0.163,12.785c-0.272,1.565-1.467,2.577-3.192,2.55c-1.948-0.03-3.031-1.295-3.199-3.023
	C423.882,32.875,424.005,30.992,423.992,29.098z M361.48,108.315c0.525,3.595,0.944,7.213,1.2,10.836
	c0.15,2.126-1.434,3.749-3.33,3.868c-1.829,0.115-3.249-0.96-3.583-3.095c-0.331-2.123-0.354-4.294-0.511-6.444
	c-0.01,0-0.02,0.001-0.03,0.001c-0.088-1.613-0.322-3.234-0.23-4.837c0.125-2.176,1.401-3.505,3.121-3.608
	C359.867,104.929,361.143,106.005,361.48,108.315z M385.942,105.131c0.824,4.074,1.087,8.241,0.951,12.389
	c-0.057,1.738-1.283,2.936-3.214,2.979c-1.933,0.043-3.099-1.121-3.378-2.834c-0.616-3.77-0.65-7.83-0.645-11.646
	c0.002-1.798,0.742-3.165,2.694-3.415C384.261,102.358,385.597,103.425,385.942,105.131z M485.175,63.593
	c0.613,1.08,0.28,2.386-0.737,3.325c-0.999,0.923-2.181,1.048-3.4,0.633c-2.143-0.731-3.199-2.476-3.648-4.519
	c-0.519-2.365-0.783-4.787-1.021-6.304c0-1.31-0.024-1.716,0.004-2.119c0.169-2.414,1.41-3.865,3.28-3.854
	c1.716,0.01,2.906,1.187,3.254,3.475C483.392,57.418,483.508,60.656,485.175,63.593z M328.385,78.242
	c-1.842,0.105-3.466-1.294-3.547-3.581c-0.132-3.752-0.084-7.521,0.136-11.268c0.126-2.149,1.628-3.368,3.415-3.19
	c1.886,0.188,2.902,1.381,3.003,3.201c0.098,1.774,0.05,3.553,0.024,5.329c-0.002,0.156-0.005,0.313,0.011,0.468
	c0.179,1.792,0.204,3.664,0.066,5.473C331.329,76.848,330.1,78.144,328.385,78.242z M298.029,47.462
	c1.042,3.509,1.091,7.185,1.444,10.794c0.194,1.979-1.352,3.502-3.052,3.683c-1.678,0.179-3.361-0.97-3.682-3.041
	c-0.535-3.454-0.749-6.958-1.141-10.882c-0.023-1.371,0.644-2.728,2.52-3.191C295.848,44.398,297.408,45.372,298.029,47.462z
	 M354.981,70.95c-0.475-3.854-1.27-7.717-0.779-11.624c0.22-1.747,1.244-2.971,3.19-3.041c1.845-0.066,2.984,1.036,3.258,3.332
	c0.317,2.666,0.506,5.348,0.75,8.024c0.076,1.212,0.162,2.444-0.372,3.57c-0.616,1.3-1.628,2.168-3.148,2.1
	C356.368,73.243,355.156,72.36,354.981,70.95z M462.552,32.372c0.025,1.071,0.005,2.144,0.005,3.081
	c-0.209,2.141-0.249,4.169-0.639,6.127c-0.411,2.059-1.988,3.207-3.651,3.05c-1.708-0.162-2.812-1.464-2.884-3.748
	c-0.096-3.085,0.05-6.179,0.636-9.214c0.45-2.333,2.012-3.503,3.882-3.192C461.636,28.767,462.496,30.014,462.552,32.372z
	 M398.213,153.715c-0.103-3.712,0.123-7.465,1.095-11.083c0.432-1.61,1.788-2.299,3.457-2.074c1.502,0.202,2.334,1.203,2.569,2.652
	c0.546,3.364,0.12,7.056-0.339,10.41c-0.297,2.172-1.566,3.306-3.353,3.326C399.85,156.965,398.272,155.841,398.213,153.715z
	 M481.318,95.91c-0.078,1.203-0.08,2.688-0.297,4.142c-0.222,1.483-0.82,2.853-2.143,3.73c-1.207,0.799-2.545,0.964-3.812,0.257
	c-1.315-0.734-1.85-2.01-1.379-3.435c0.992-3.002,0.945-6.065,0.865-9.157c-0.047-1.802,0.696-3.168,2.644-3.441
	c1.899-0.266,3.039,0.809,3.684,2.454C481.535,92.131,481.239,93.905,481.318,95.91z M414.898,153.811
	c-0.075-1.741-0.148-3.478,0.55-5.154c0.776-1.865,2.081-2.765,4.085-2.487c1.812,0.251,2.959,1.375,3.178,3.149
	c0.383,3.111-0.223,6.167-1.099,9.125c-0.456,1.538-1.785,2.401-3.46,2.15c-1.766-0.265-2.911-1.438-3.214-3.168
	C414.732,156.255,414.898,155.018,414.898,153.811z M382.474,63.033c2.332,0.022,3.236,1.095,3.351,4.014
	c0.032,0.804,0.005,1.611,0.005,2.416c-0.204,1.6-0.036,3.229-0.795,4.745c-0.861,1.719-2.123,2.771-4.135,2.575
	c-1.944-0.189-2.716-1.596-3.065-3.262c-0.473-2.254-0.395-4.563-0.221-6.832C377.81,64.138,379.466,63.004,382.474,63.033z
	 M407.107,79.417c1.852-0.209,3.155,0.828,3.512,2.587c0.476,2.349,0.66,4.757,0.969,7.139c-0.102,1.358-0.086,2.695-0.776,3.92
	c-0.716,1.271-1.764,2.053-3.252,1.869c-1.472-0.182-2.543-1.085-2.67-2.576c-0.285-3.324-0.502-6.66-0.543-9.995
	C404.326,80.707,405.47,79.602,407.107,79.417z M275.188,32.305c0.392,1.647,1.116,3.561,0.838,5.261
	c-0.533,3.252-5.33,3.853-6.32,0.587c-0.93-3.071-1.687-6.199-2.366-9.336c-0.39-1.803,0.445-3.228,2.207-3.782
	c1.822-0.572,3.193,0.371,3.927,1.975C274.249,28.702,274.758,30.498,275.188,32.305z M334.959,36.082
	c-0.582-2.739-0.943-5.534-1.233-8.321c-0.19-1.831,0.769-3.147,2.602-3.485c1.871-0.344,3.208,0.719,3.661,2.398
	c0.73,2.703,1.143,5.491,1.61,7.838c0.026,2.655-1.188,4.334-2.991,4.565C336.94,39.291,335.416,38.229,334.959,36.082z
	 M431.606,57.403c1.862,0.369,2.619,1.683,2.625,3.5c0.003,0.826,0.002,1.652,0.002,2.477c-0.001,0.922-0.106,1.831-0.099,2.755
	c0.007,0.93,0.067,1.863-0.045,2.79c-0.259,2.142-1.644,3.462-3.346,3.27c-1.875-0.21-2.868-1.418-2.916-3.246
	c-0.074-2.806-0.18-5.632,0.354-8.405C428.615,58.284,429.963,57.078,431.606,57.403z M382.522,135.335
	c0.678,1.936,0.543,3.979,0.769,5.591c0,1.447,0.124,2.536-0.029,3.584c-0.242,1.655-1.29,2.617-2.996,2.714
	c-1.52,0.086-2.787-0.628-3.122-2.035c-0.744-3.128-1.044-6.347-0.7-9.56c0.158-1.473,1.207-2.403,2.716-2.548
	C380.844,132.918,381.961,133.734,382.522,135.335z M402.522,50.882c-0.273-2.748-1.127-10.891,3.391-10.537
	c1.864,0.146,2.992,1.305,3.103,3.099c0.156,2.531,0.216,5.092,0,7.614c-0.178,2.073-1.742,3.383-3.378,3.356
	C403.928,54.385,402.745,53.117,402.522,50.882z M456.641,118.429c0.577,3.132,1.022,11.477-4.148,10.637
	c-1.874-0.305-2.74-1.787-2.575-4.288c0.132-2.004,0.147-4.016,0.307-6.017c0.183-2.288,1.28-3.539,3.021-3.619
	C455.43,115.041,456.308,116.623,456.641,118.429z M507.246,35.644c0.13,1.587,0.182,3.185,0.064,4.774
	c-0.138,1.845-1.135,3.016-3.038,3.119c-1.894,0.102-3.123-0.979-3.427-2.745c-0.5-2.911-0.565-5.878-0.271-8.82
	c0.149-1.495,1.163-2.402,2.674-2.566c1.493-0.161,2.566,0.513,3.249,1.858C507.152,32.552,507.129,34.224,507.246,35.644z
	 M375.514,41.162c-0.014-2.129,0.146-4.282,0.482-6.384c0.369-2.308,1.94-3.621,3.706-3.459c1.841,0.169,2.826,1.584,2.821,4.122
	c-0.002,0.8-0.099,1.6-0.107,1.722c-0.091,1.879-0.04,3.097-0.23,4.276c-0.371,2.294-1.885,3.617-3.716,3.419
	C376.749,44.672,375.528,43.332,375.514,41.162z M315.579,25.397c0.524,2.343,0.847,4.756,0.969,7.154
	c0.092,1.814-1.045,3.104-2.865,3.33c-1.836,0.228-3.003-0.818-3.58-2.566c-0.555-1.684-0.615-3.426-0.747-5.65
	c0.018-0.322-0.04-1.146,0.13-1.92c0.314-1.434,1.214-2.397,2.726-2.57C313.92,22.979,315.224,23.807,315.579,25.397z
	 M315.674,75.785c0.135,1.283,0.248,1.816,0.237,2.346c-0.042,2.087-1.435,3.711-3.29,3.89c-1.726,0.166-3.21-0.977-3.625-3.033
	c-0.398-1.974-0.34-3.998,0.026-5.98c0.321-1.735,1.247-2.994,3.187-3.009c1.931-0.014,2.913,1.169,3.202,2.949
	C315.603,74.131,315.635,75.341,315.674,75.785z M334.208,105.733c-1.874,0.334-3.169-0.662-3.689-2.402
	c-0.539-1.803-0.832-3.679-1.175-5.26c-0.18-2.087,0.403-3.533,2.228-4.089c1.866-0.568,3.174,0.402,3.904,2.027
	c0.886,1.971,1.476,4.073,1.496,6.245C336.989,104.062,336.049,105.404,334.208,105.733z M516.408,61.904
	c0.435,1.034,0.321,2.114,0.232,4.144c-0.05,0.387-0.167,1.73-0.411,3.049c-0.246,1.33-1.164,2.151-2.456,2.366
	c-1.498,0.249-2.576-0.53-3.332-1.779c-1.061-1.754-0.773-6.952,0.462-8.573C512.492,59.026,515.373,59.442,516.408,61.904z
	 M436.492,141.34c-0.37-1.302-0.585-2.603-0.032-3.928c0.69-1.655,1.829-2.648,3.69-2.46c1.724,0.175,2.545,1.328,2.772,2.944
	c0.111,0.792,0.109,1.6,0.171,2.622c0.038,2.28-0.883,3.741-2.688,4.04C438.635,144.85,437.143,143.633,436.492,141.34z"/>
<g>
</g>
<g>
</g>
<g>
</g>
<g>
</g>
<g>
</g>
<g>
</g>
</svg>
