<?xml version="1.0" encoding="UTF-8"?>
<!-- Generator: visioncortex VTracer 0.6.3 -->
<svg version="1.1" xmlns="http://www.w3.org/2000/svg" width="1280" height="959">
<path d="M0 0 C6.27 6.27 6.66 13.32 6.77 21.76 C6.55 45.17 -2.83 68.02 -16.83 86.44 C-19.45 89.99 -19.45 89.99 -20.45 94.2 C-18.57 98.2 -15.85 101.41 -13.06 104.81 C11.06 135.11 34.51 169.53 50.75 204.75 C51.1 205.49 51.44 206.23 51.8 206.99 C59.01 222.39 65.88 238.42 60.19 255.56 C59.43 257.32 58.61 259.05 57.75 260.75 C57.06 262.12 57.06 262.12 56.35 263.52 C47.35 279.27 29.31 288.44 13.81 296.83 C10.46 298.93 8.12 300.56 5.75 303.75 C4.24 310.62 6.85 317.22 9.12 323.62 C9.49 324.67 9.85 325.72 10.22 326.8 C13.19 335.38 16.41 343.86 19.62 352.35 C23.66 363.18 27.16 374.17 30.69 385.19 C34.94 398.48 39.43 411.52 44.7 424.44 C48.49 433.82 51.72 443.33 54.88 452.94 C55.25 454.08 55.25 454.08 55.64 455.25 C55.88 456.01 56.13 456.77 56.39 457.55 C56.88 459.05 57.38 460.56 57.88 462.07 C58.12 462.81 58.36 463.54 58.61 464.3 C60.93 471.34 63.37 478.34 65.88 485.31 C66.24 486.34 66.61 487.37 66.98 488.43 C67.32 489.36 67.66 490.29 68.01 491.25 C68.3 492.06 68.59 492.86 68.89 493.69 C69.77 495.99 69.77 495.99 71.75 498.75 C72.41 501.32 73 503.86 73.55 506.45 C75.48 515.03 78.04 523.26 80.94 531.56 C81.19 532.29 81.44 533.01 81.7 533.76 C93.61 568.15 106.75 602.58 121.75 635.75 C125.84 635.25 127.52 634.36 130.19 631.25 C170.11 589.63 253.32 577.19 307.59 575.64 C362.75 574.56 411.44 585.25 460.75 609.75 C461.53 610.13 462.31 610.51 463.11 610.91 C472.52 615.55 480.74 621.01 488.75 627.75 C489.26 628.17 489.77 628.59 490.3 629.03 C502.37 639.05 515.62 653.84 518.62 669.69 C519.55 674.21 522.04 677.71 524.52 681.55 C527.07 685.53 529.14 689.57 531.12 693.88 C536.14 704.15 544.08 711.52 552.75 718.75 C554.18 720.01 554.18 720.01 555.64 721.3 C568.62 732.7 583.48 744 601.39 744.96 C604.96 744.64 606.97 742.93 609.75 740.75 C624.14 734.8 644.19 733.88 658.75 739.75 C662.46 741.37 664.37 742.81 665.94 746.69 C665.72 750.17 664.89 751.09 662.41 753.42 C649.13 764.04 633.44 767.87 616.81 768.19 C615.92 768.21 615.04 768.23 614.12 768.26 C608.1 768.23 604.72 767.15 599.75 763.75 C598.65 763.05 598.65 763.05 597.54 762.34 C595.9 761.19 594.33 759.97 592.75 758.75 C592.75 758.09 592.75 757.43 592.75 756.75 C592.13 756.63 591.51 756.5 590.87 756.38 C575.49 752.79 564.07 744.29 552.75 733.75 C552.04 733.09 551.33 732.44 550.6 731.76 C539.26 721.26 539.26 721.26 535.75 717.75 C535.83 718.97 535.83 718.97 535.92 720.21 C537.31 740.99 538.27 761.74 538.67 782.57 C538.72 785.2 538.78 787.82 538.85 790.45 C539.3 806.73 538.37 822.73 536.94 838.94 C536.81 840.38 536.81 840.38 536.69 841.85 C536.44 844.62 536.18 847.4 535.92 850.17 C535.85 850.99 535.77 851.81 535.7 852.65 C535.01 859.43 534.2 867.15 529.4 872.25 C507.77 884.51 463.13 887.63 439.44 881.75 C436.09 880.42 434.9 878.82 433.31 875.62 C433.05 874.92 432.78 874.22 432.5 873.49 C431.88 871.55 431.88 871.55 429.75 870.75 C428.31 870.58 426.86 870.45 425.42 870.36 C400.37 868.46 400.37 868.46 393.9 863.27 C392.75 861.75 392.75 861.75 392.94 859.44 C393.47 857.66 394.06 855.9 394.68 854.16 C395.99 849.98 396.81 845.79 397.62 841.5 C399.62 831.21 399.62 831.21 400.76 826.42 C403.32 815.68 404.98 804.91 406.44 793.97 C406.68 792.22 406.68 792.22 406.92 790.44 C407.05 789.39 407.19 788.34 407.33 787.26 C407.75 784.75 407.75 784.75 408.75 782.75 C408.06 782.93 407.38 783.1 406.67 783.28 C396.83 785.68 386.91 787.29 376.9 788.86 C374.02 789.31 371.13 789.77 368.25 790.23 C343.73 794.13 319.81 795.94 294.96 795.94 C291.69 795.94 288.41 795.96 285.14 795.97 C267.92 796.02 252.04 794.73 235.31 790.38 C234.14 790.08 232.96 789.79 231.75 789.49 C213.96 784.96 213.96 784.96 209.75 780.75 C210.2 783.21 210.66 785.67 211.12 788.12 C211.31 789.17 211.31 789.17 211.51 790.24 C212.25 794.42 212.25 794.42 214.75 797.75 C215 799.93 215.16 802.12 215.25 804.31 C215.59 810.04 216.12 815.24 217.75 820.75 C218.53 821.39 218.53 821.39 219.32 822.04 C221.63 824.81 220.92 827.49 220.75 831 C220.58 836.69 220.97 841.72 222.25 847.31 C223.93 854.8 224.53 862.1 223.75 869.75 C219.79 873.71 213.3 872.98 207.94 873.25 C207.19 873.29 206.44 873.33 205.66 873.37 C203.21 873.5 200.76 873.63 198.31 873.75 C197.05 873.81 197.05 873.81 195.77 873.88 C184.1 874.48 172.43 874.99 160.75 875.38 C159.54 875.41 158.33 875.45 157.08 875.5 C132.29 876.24 132.29 876.24 125.75 873.75 C125.42 872.43 125.09 871.11 124.75 869.75 C124.09 870.08 123.43 870.41 122.75 870.75 C119.02 871.33 115.27 871.84 112.08 869.55 C107.57 864.3 107.51 858.88 107.03 852.26 C106.97 851.42 106.91 850.58 106.84 849.71 C106.64 846.95 106.44 844.19 106.25 841.44 C106.18 840.5 106.11 839.56 106.05 838.59 C105.08 825.07 104.43 811.59 104.09 798.05 C103.89 790.44 103.42 782.94 102.55 775.38 C101.85 769.26 101.45 763.15 101.1 757 C98.5 712.33 86.98 680.64 62.16 644 C57.65 637.27 53.53 630.35 49.5 623.31 C43.83 613.42 37.75 604.22 30.78 595.2 C22.82 584.69 16.72 572.96 10.37 561.43 C6.57 554.57 2.62 547.88 -1.69 541.31 C-9.43 529.5 -16.43 517.44 -22.88 504.88 C-29.03 492.7 -29.03 492.7 -37.79 482.34 C-39.84 480.1 -40.85 477.63 -42.12 474.88 C-46.56 465.65 -52.09 457.12 -57.54 448.47 C-59.71 445.01 -61.85 441.54 -63.99 438.06 C-75.12 419.97 -86.38 401.97 -98.82 384.75 C-100.3 382.69 -101.75 380.61 -103.2 378.53 C-109.8 369.06 -116.61 359.78 -123.73 350.69 C-124.71 349.44 -125.68 348.18 -126.65 346.92 C-132.32 339.52 -137.66 333 -147.21 331.19 C-151.64 330.63 -156.1 330.42 -160.55 330.16 C-192.39 328.22 -231.6 324.4 -255.48 300.52 C-266.91 287.37 -269.16 272.55 -268.25 255.75 C-265.43 226.45 -246.73 199.83 -230.5 176.31 C-228.69 173.68 -226.89 171.04 -225.1 168.4 C-223.79 166.5 -222.47 164.61 -221.14 162.72 C-216.1 155.4 -212.86 148.6 -210.31 140.09 C-208.75 135.19 -206.34 131.06 -203.67 126.7 C-202.48 124.72 -202.48 124.72 -201.25 121.75 C-202.45 118.38 -204.65 115.95 -206.94 113.25 C-211.4 107.76 -214.81 101.95 -218.19 95.75 C-218.79 94.66 -219.39 93.58 -220 92.46 C-223.62 85.86 -227.16 79.22 -230.56 72.5 C-230.93 71.78 -231.3 71.06 -231.67 70.32 C-235.56 62.48 -236.66 54.33 -234.5 45.77 C-232.29 39.38 -230 34.58 -224.25 30.75 C-215.91 29.1 -209.12 32.23 -202.25 36.75 C-197.97 40.18 -194.1 43.85 -190.25 47.75 C-189.06 48.94 -189.06 48.94 -187.85 50.16 C-181.34 57.02 -176.32 64.81 -171.25 72.75 C-172.35 68.69 -173.56 64.88 -175.31 61.06 C-178.67 52.78 -179.61 43.2 -176.25 34.75 C-174.17 30.91 -172.05 29.01 -167.81 27.62 C-162.61 27.81 -160.29 29.61 -156.75 33.32 C-151.16 40.5 -146.25 53.53 -146.25 62.75 C-145.08 62.42 -143.92 62.1 -142.72 61.76 C-131.96 58.86 -121.4 56.9 -110.3 55.83 C-103.82 55.15 -98.84 54.27 -94 49.56 C-90.14 43.36 -89.95 36.42 -89.75 29.31 C-89.32 13.86 -89.32 13.86 -85.5 8.12 C-83.25 6.75 -83.25 6.75 -80.25 6.69 C-75.59 8.34 -74.07 11.3 -71.71 15.47 C-70.11 19.06 -69.54 22.1 -69.06 26 C-68.98 26.66 -68.9 27.32 -68.81 28 C-68.3 32.46 -68.19 36.79 -68.31 41.26 C-68.21 45.34 -67.43 49.28 -66.69 53.28 C-66.25 55.75 -66.25 55.75 -66.25 57.75 C-65.47 58.06 -64.68 58.37 -63.88 58.69 C-61.25 59.75 -61.25 59.75 -59.25 60.75 C-59.11 59.05 -59.11 59.05 -58.97 57.32 C-58.35 52.4 -56.67 48.2 -54.69 43.69 C-54.33 42.86 -53.97 42.04 -53.61 41.19 C-46.12 24.13 -36.77 4.63 -18.31 -2.57 C-11.2 -4.93 -6.25 -4.33 0 0 Z M-31.88 18.16 C-40.63 30.88 -51.63 48.79 -49.25 64.75 C-46.19 72.46 -39.43 79.02 -32.44 83.38 C-29.53 84.9 -29.53 84.9 -27.29 84.69 C-24.18 83.26 -23.22 81.05 -21.5 78.12 C-21.16 77.55 -20.82 76.97 -20.47 76.37 C-19.38 74.51 -18.31 72.63 -17.25 70.75 C-16.9 70.14 -16.55 69.53 -16.18 68.91 C-7.4 53.68 -2.17 38.15 -2 20.44 C-1.99 19.67 -1.98 18.91 -1.97 18.12 C-2 13.64 -2.41 9.92 -4.25 5.75 C-15.2 0.27 -25.65 10.07 -31.88 18.16 Z M-80.25 17.75 C-81.38 21.13 -81.38 23.72 -81.38 27.28 C-81.38 28.57 -81.39 29.85 -81.39 31.18 C-81.38 31.84 -81.38 32.51 -81.38 33.2 C-81.38 35.24 -81.38 37.28 -81.39 39.32 C-81.39 40.61 -81.38 41.89 -81.38 43.22 C-81.38 44.4 -81.38 45.58 -81.38 46.79 C-81.38 49.81 -81.38 49.81 -80.25 52.75 C-78.6 53.08 -76.95 53.41 -75.25 53.75 C-75.36 35.48 -75.36 35.48 -79.25 17.75 C-79.58 17.75 -79.91 17.75 -80.25 17.75 Z M-167.25 36.75 C-170.15 40.21 -170.82 43.46 -170.68 47.94 C-169.61 54.94 -167.19 62.84 -163.25 68.75 C-159.55 68.25 -157.58 67.72 -155.25 64.75 C-155.25 55.05 -159.03 44.26 -165.25 36.75 C-165.91 36.75 -166.57 36.75 -167.25 36.75 Z M-220.25 39.75 C-224.78 46.18 -226.03 50.98 -225.25 58.75 C-223.1 66.25 -219.73 73.2 -216.06 80.06 C-215.58 80.97 -215.1 81.87 -214.61 82.81 C-208.94 93.36 -203.28 103.68 -194.25 111.75 C-190.87 108.58 -188.92 104.96 -186.69 100.94 C-186.09 99.89 -186.09 99.89 -185.48 98.82 C-181.26 91.29 -178.93 84.46 -180.25 75.75 C-181.75 72.02 -183.85 68.96 -186.25 65.75 C-186.93 64.84 -187.6 63.93 -188.3 63 C-195.95 53.23 -205.25 42.8 -217.81 39.94 C-218.62 39.88 -219.42 39.81 -220.25 39.75 Z M-99.79 67.02 C-135.89 69.08 -135.89 69.08 -165.94 86.69 C-170.44 92.69 -173.67 99.34 -177.05 106 C-180.95 113.5 -185.52 120.44 -190.34 127.37 C-194.19 132.95 -197.37 138.61 -200.25 144.75 C-204.96 154.71 -210.1 163.92 -216.39 172.99 C-216.89 173.71 -217.39 174.43 -217.91 175.18 C-218.36 175.82 -218.81 176.46 -219.28 177.12 C-220.42 178.72 -220.42 178.72 -220.25 180.75 C-216.13 179.31 -212.53 177.24 -208.77 175.07 C-176.09 156.34 -133.68 145.69 -96.25 142.75 C-94.32 142.59 -94.32 142.59 -92.36 142.42 C-60.46 139.96 -27.97 142 1.75 154.75 C3.42 155.42 5.08 156.09 6.75 156.75 C5.44 153.2 3.89 150.24 1.77 147.12 C0.87 145.8 0.87 145.8 -0.05 144.45 C-1.01 143.05 -1.01 143.05 -2 141.62 C-2.67 140.66 -3.33 139.69 -4.02 138.69 C-16.77 120.04 -16.77 120.04 -31.32 102.8 C-33.18 100.83 -34.9 98.78 -36.62 96.69 C-40.18 92.6 -44.27 89.33 -48.5 85.97 C-50.96 83.98 -53.26 81.91 -55.56 79.75 C-57.11 78.4 -58.68 77.07 -60.25 75.75 C-61.21 74.92 -62.16 74.1 -63.15 73.25 C-74.52 64.24 -86.02 65.97 -99.79 67.02 Z M-120.25 156.75 C-121.33 156.95 -122.41 157.16 -123.53 157.37 C-163.35 165.02 -201.34 176.83 -233.35 202.44 C-235.05 203.79 -236.78 205.12 -238.56 206.38 C-250.51 215.32 -254.9 233.69 -257.86 247.61 C-259.74 262.73 -259.32 277.69 -250.56 290.62 C-242.66 300.6 -232.89 305.29 -221.25 309.75 C-220.3 310.12 -220.3 310.12 -219.33 310.49 C-155.73 334.46 -64.88 320.15 -5.17 293.22 C25.82 278.92 25.82 278.92 47.91 254.27 C53.78 236.64 44.28 219.7 36.52 204.14 C30.95 193.21 25.87 185 15.75 177.75 C14.21 176.42 12.66 175.09 11.12 173.75 C-12.22 155.27 -44.46 153.14 -73.06 153.38 C-74.07 153.38 -75.08 153.38 -76.11 153.39 C-91 153.47 -105.59 153.91 -120.25 156.75 Z M-6.25 305.75 C-11.6 321.8 -6.22 344.3 -4.25 360.75 C-3.92 360.75 -3.59 360.75 -3.25 360.75 C-3.1 351.01 -3.35 341.3 -3.69 331.56 C-3.73 330.39 -3.77 329.21 -3.81 328 C-4.08 320.56 -4.56 313.16 -5.25 305.75 C-5.58 305.75 -5.91 305.75 -6.25 305.75 Z M-16.25 309.75 C-18.47 311.55 -18.47 311.55 -18.49 314.02 C-18.49 314.95 -18.48 315.89 -18.48 316.85 C-18.48 317.89 -18.48 318.93 -18.48 320 C-18.46 321.11 -18.45 322.23 -18.44 323.38 C-18.43 324.52 -18.42 325.66 -18.42 326.84 C-18.35 334.04 -18.02 341.16 -17.47 348.34 C-16.85 358.44 -17.17 368.63 -17.25 378.75 C-14.94 379.08 -12.63 379.41 -10.25 379.75 C-10.39 377.19 -10.54 374.62 -10.69 372.06 C-10.73 371.34 -10.77 370.62 -10.81 369.88 C-10.87 368.82 -10.87 368.82 -10.93 367.74 C-10.97 367.09 -11.01 366.45 -11.04 365.79 C-11.22 363.68 -11.22 363.68 -11.74 361.39 C-13.95 350.04 -13.52 337.91 -13.81 326.38 C-13.86 324.75 -13.9 323.13 -13.94 321.51 C-14.05 317.59 -14.15 313.67 -14.25 309.75 C-14.91 309.75 -15.57 309.75 -16.25 309.75 Z M-26.25 313.75 C-28.32 315.82 -27.42 320.05 -27.44 322.82 C-27.44 323.95 -27.44 325.08 -27.44 326.25 C-27.44 327.4 -27.44 328.55 -27.44 329.74 C-27.37 341.8 -26.42 353.76 -25.25 365.75 C-24.92 365.75 -24.59 365.75 -24.25 365.75 C-24.26 364.74 -24.26 363.74 -24.27 362.7 C-24.28 358.88 -24.3 355.07 -24.3 351.25 C-24.31 349.61 -24.32 347.97 -24.33 346.34 C-24.38 335.43 -24.08 324.63 -23.25 313.75 C-24.24 313.75 -25.23 313.75 -26.25 313.75 Z M-36.25 316.75 C-36.33 321.27 -36.35 325.34 -35.25 329.75 C-34.92 329.75 -34.59 329.75 -34.25 329.75 C-34.2 328.33 -34.16 326.92 -34.12 325.5 C-34.1 324.71 -34.08 323.92 -34.05 323.11 C-34.27 320.54 -34.96 318.96 -36.25 316.75 Z M-51.25 321.75 C-52.74 331.06 -53.48 340.2 -53.56 349.62 C-53.58 350.59 -53.6 351.56 -53.62 352.56 C-53.61 353.47 -53.61 354.37 -53.61 355.3 C-53.62 356.11 -53.62 356.92 -53.62 357.76 C-53.5 358.41 -53.38 359.07 -53.25 359.75 C-52.26 360.41 -51.27 361.07 -50.25 361.75 C-49.03 355.09 -49.1 348.5 -49.12 341.75 C-49.12 340.6 -49.12 339.45 -49.11 338.27 C-49.12 332.66 -49.24 327.27 -50.25 321.75 C-50.58 321.75 -50.91 321.75 -51.25 321.75 Z M-43.25 321.75 C-43.58 336.93 -43.91 352.11 -44.25 367.75 C-43.26 368.08 -42.27 368.41 -41.25 368.75 C-41.23 363.18 -41.21 357.61 -41.2 352.04 C-41.19 350.15 -41.18 348.26 -41.17 346.37 C-41.16 343.64 -41.16 340.91 -41.15 338.18 C-41.15 337.34 -41.14 336.51 -41.14 335.64 C-41.14 330.9 -41.46 326.42 -42.25 321.75 C-42.58 321.75 -42.91 321.75 -43.25 321.75 Z M-71.06 324.55 C-71.96 324.73 -72.86 324.9 -73.79 325.07 C-74.74 325.25 -75.7 325.44 -76.69 325.62 C-88.5 327.78 -100.28 328.94 -112.25 329.75 C-113.09 329.81 -113.94 329.87 -114.81 329.93 C-119.29 330.23 -123.77 330.5 -128.25 330.75 C-126.75 334.25 -124.71 336.52 -122.06 339.25 C-112.32 349.78 -104.1 361.68 -95.81 373.38 C-85.47 389.4 -85.47 389.4 -70.56 399.94 C-67.09 399.74 -64.51 398.91 -61.25 397.75 C-57.76 397.17 -55.44 397 -52.38 398.93 C-50.2 400.76 -48.23 402.7 -46.25 404.75 C-45.49 405.53 -44.73 406.3 -43.94 407.1 C-33.52 418.14 -24.86 430.1 -17.5 443.38 C-16.97 444.31 -16.45 445.25 -15.91 446.21 C-11.4 454.59 -11.4 454.59 -12.25 459.75 C-14.95 465.03 -19.07 468.46 -23.52 472.31 C-25.57 474.71 -25.57 474.71 -25.28 478.13 C-24.15 482.1 -22.42 484.92 -20 488.19 C-15.31 494.83 -11.43 501.76 -7.62 508.94 C-3.21 517.23 1.32 525.08 6.75 532.75 C16.18 546.32 24.86 560.46 32 575.38 C34.88 581.35 38.69 586.52 42.75 591.75 C48.09 591.44 52.33 590.25 57.31 588.25 C68.26 583.9 68.26 583.9 73.31 585.62 C82.12 593.3 90.18 609.42 92.12 620.95 C92.35 628.16 89.81 634.27 85.05 639.69 C84.5 640.27 83.94 640.84 83.38 641.44 C81.11 643.97 80.77 644.5 80.44 648.06 C81.94 652.27 84 655.37 86.67 658.93 C91.73 665.78 95.93 672.63 99.38 680.44 C99.76 681.3 100.15 682.16 100.54 683.05 C103.63 690.13 105.97 697.22 107.75 704.75 C109.4 704.59 109.4 704.59 111.07 704.43 C112.53 704.3 113.98 704.18 115.44 704.06 C116.16 703.99 116.88 703.92 117.62 703.84 C120.8 703.59 123.48 703.67 126.54 704.58 C130.1 708.08 131.04 712.42 132.44 717.12 C133.02 719.01 133.61 720.89 134.2 722.77 C134.58 724.03 134.58 724.03 134.96 725.3 C135.52 727.03 136.15 728.74 136.82 730.43 C138.36 734.27 138.5 737.69 137.75 741.75 C136.56 744.05 135.15 746.01 133.6 748.09 C130.89 751.99 128.8 756.2 126.64 760.43 C124.3 764.96 121.62 768.75 118.15 772.46 C116.21 775.63 116.41 777.93 116.48 781.63 C116.49 782.32 116.5 783.01 116.51 783.72 C116.7 792.44 117.29 801.15 117.92 809.85 C118.13 812.73 118.32 815.62 118.51 818.51 C118.64 820.35 118.77 822.19 118.9 824.03 C118.95 824.89 119.01 825.75 119.07 826.64 C119.22 828.69 119.48 830.72 119.75 832.75 C121.91 834.08 121.91 834.08 125.19 833.06 C129.03 831.65 129.74 831.15 131.75 827.75 C135.06 816.82 135.38 805.1 136.02 793.78 C136.37 787.73 136.97 781.98 138.28 776.06 C139.19 771.59 139.54 767.03 139.96 762.48 C140.54 756.96 140.54 756.96 142.75 754.75 C148.08 754.42 148.08 754.42 150.75 755.75 C150.73 756.6 150.72 757.45 150.7 758.33 C150.65 761.51 150.61 764.69 150.59 767.87 C150.57 769.24 150.55 770.61 150.52 771.98 C150.49 773.96 150.47 775.94 150.46 777.92 C150.44 779.11 150.43 780.3 150.41 781.52 C150.78 785.07 151.62 786.91 153.75 789.75 C156 791.12 158.27 792.11 160.69 793.15 C165 796.5 164.91 802.6 165.6 807.68 C165.87 809.85 166.12 812.02 166.38 814.19 C166.51 815.3 166.64 816.41 166.78 817.56 C167.11 820.29 167.43 823.02 167.75 825.75 C175.63 825.87 183.35 825.58 191.19 824.81 C192.14 824.73 193.09 824.64 194.08 824.55 C198.37 824.14 202.53 823.65 206.75 822.75 C206.49 820.83 206.22 818.92 205.94 817 C205.79 815.93 205.64 814.87 205.48 813.77 C204.71 810.59 204.16 808.96 201.75 806.75 C198.99 806.16 198.99 806.16 195.94 806.19 C187.56 805.7 187.56 805.7 183.75 802.75 C179.86 796.83 178.12 790.84 178.75 783.75 C181.63 780.24 185.08 778.22 189 776 C190.08 775.39 191.16 774.77 192.27 774.14 C193.09 773.68 193.91 773.22 194.75 772.75 C194.4 771.68 194.05 770.61 193.69 769.5 C192.52 764.83 192.52 764.83 193.75 761.75 C199.11 760.38 199.11 760.38 202.31 762.25 C203.52 762.99 203.52 762.99 204.75 763.75 C207.42 764.17 207.42 764.17 209.75 762.75 C212.59 757.18 213.37 751.56 214.12 745.39 C214.81 742.5 215.4 741.5 217.75 739.75 C220.45 738.85 222.09 738.61 224.87 738.57 C225.69 738.56 226.52 738.55 227.37 738.53 C228.7 738.52 228.7 738.52 230.05 738.51 C230.97 738.5 231.89 738.5 232.83 738.49 C234.77 738.47 236.71 738.46 238.65 738.45 C241.61 738.44 244.57 738.39 247.53 738.35 C249.41 738.34 251.3 738.33 253.18 738.32 C254.5 738.3 254.5 738.3 255.86 738.27 C259.96 738.29 262.17 738.4 265.74 740.59 C271.98 747.3 271.7 756.37 272.48 765.03 C273.24 772.22 274.37 776.25 279.44 781.5 C286.31 785.21 294.21 785.01 301.81 784.88 C302.77 784.87 303.73 784.86 304.72 784.85 C307.07 784.82 309.41 784.79 311.75 784.75 C311.64 783.83 311.54 782.91 311.43 781.97 C310.18 769.18 310.18 769.18 313.75 762.75 C317.95 758.64 322.68 757.03 328.12 755.19 C329.01 754.88 329.89 754.58 330.8 754.27 C344.1 749.82 357.61 747.56 371.62 747.62 C372.48 747.62 373.33 747.62 374.21 747.61 C375.03 747.61 375.84 747.62 376.68 747.62 C377.41 747.62 378.15 747.62 378.91 747.62 C380.75 747.75 380.75 747.75 382.75 748.75 C383.54 750.45 384.26 752.19 384.94 753.94 C387.81 761.09 391.23 767.9 394.75 774.75 C412.38 772.7 412.38 772.7 426.87 763.29 C430.01 759.05 432.52 754.39 434.94 749.7 C436.91 746.06 438.41 743.51 442.27 741.76 C455.57 737.89 473.6 742.47 486.11 747.72 C487.75 748.75 487.75 748.75 489.75 751.75 C490.11 757.83 489.32 763.57 488.38 769.56 C487.54 775.05 486.73 780.53 486.25 786.06 C486.17 786.9 486.1 787.75 486.02 788.61 C485.89 790.19 485.77 791.77 485.66 793.36 C485.2 798.71 484.09 803.43 480.75 807.75 C478.3 809.6 475.72 810.73 472.88 811.88 C472.13 812.2 471.38 812.53 470.61 812.87 C468.33 813.86 466.04 814.81 463.75 815.75 C452.7 819.68 452.7 819.68 443.75 826.75 C443.27 829 443.27 829 443.11 831.42 C443 832.63 443 832.63 442.89 833.88 C442.82 834.8 442.82 834.8 442.75 835.75 C449.82 835.83 456.89 835.88 463.97 835.91 C466.36 835.93 468.75 835.95 471.14 835.98 C488.24 836.16 504.82 835.13 521.75 832.75 C518.43 829.25 514.44 827.05 510.31 824.62 C505.85 821.95 505.85 821.95 504.75 819.75 C504.68 818.33 504.67 816.9 504.7 815.47 C504.71 814.59 504.72 813.7 504.74 812.79 C504.76 811.83 504.78 810.87 504.8 809.88 C504.82 808.89 504.84 807.89 504.86 806.87 C504.9 804.76 504.94 802.66 504.99 800.55 C505.06 797.36 505.12 794.16 505.17 790.97 C505.21 788.92 505.26 786.87 505.3 784.82 C505.32 783.4 505.32 783.4 505.35 781.96 C505.67 768.94 507.86 758.51 516.75 748.75 C517.62 747.97 518.48 747.18 519.38 746.38 C525.8 739.28 525.29 730.96 524.88 721.9 C524.02 707.32 520.73 694.68 513.75 681.75 C513.09 681.75 512.43 681.75 511.75 681.75 C510.65 683.25 509.62 684.8 508.62 686.38 C503.13 694.36 496.51 698.06 487.9 702.2 C484.5 703.84 481.32 705.58 478.19 707.69 C475.25 709.6 473.33 710.36 469.75 709.75 C468.76 709.42 467.77 709.09 466.75 708.75 C465.7 706.55 465.7 706.55 464.75 703.75 C464.4 702.83 464.06 701.9 463.7 700.95 C463.33 699.95 462.96 698.96 462.58 697.93 C462.16 696.81 461.74 695.7 461.31 694.56 C460.45 692.25 459.59 689.94 458.73 687.63 C456.33 681.26 453.66 675.49 449.98 669.76 C446.93 664.76 447.12 659.41 447.75 653.75 C449.39 648.39 451.84 643.48 454.45 638.54 C455 637.49 455.56 636.45 456.12 635.38 C456.65 634.44 457.17 633.5 457.71 632.54 C459.06 628.92 459.15 627.38 457.75 623.75 C431.83 598.13 375.72 590.1 341.19 587.94 C340.41 587.88 339.63 587.83 338.83 587.78 C334.56 587.57 331.54 587.77 327.75 589.75 C321.64 596.76 318.82 605.4 316.12 614.12 C311.79 628.12 311.79 628.12 306.75 631.75 C293.79 637.91 276.49 636.97 262.43 637.1 C260.9 637.12 259.38 637.14 257.86 637.17 C240.8 637.45 240.8 637.45 235.75 632.75 C231.16 626.9 230.16 618.89 228.62 611.81 C228.13 609.55 227.63 607.29 227.12 605.04 C226.9 604.04 226.69 603.05 226.46 602.03 C226.23 601.28 225.99 600.53 225.75 599.75 C222.94 598.35 221.27 599.37 218.42 600.31 C217.69 600.56 216.96 600.81 216.21 601.07 C215.45 601.32 214.69 601.57 213.9 601.83 C212.28 602.38 210.66 602.92 209.04 603.47 C206.62 604.29 204.19 605.1 201.77 605.91 C189.16 610.13 176.53 614.52 164.69 620.62 C163.7 621.13 163.7 621.13 162.69 621.64 C153.17 626.54 143.94 631.74 135.19 637.94 C134.62 638.34 134.04 638.75 133.45 639.16 C130.75 641.12 128.38 643.13 126.04 645.51 C123.75 647.75 123.75 647.75 120.75 648.38 C116.76 647.54 115.01 645.99 112.75 642.75 C107.96 634.92 105.08 626.35 102.05 617.75 C99.54 610.71 96.69 603.9 93.69 597.06 C87.77 583.47 82.99 569.51 78.23 555.48 C75.19 546.56 72.05 537.7 68.61 528.93 C68.29 528.12 67.98 527.32 67.66 526.49 C63.83 516.9 63.83 516.9 56.75 509.75 C54.52 509.59 54.52 509.59 52.07 509.8 C51.16 509.84 50.25 509.88 49.31 509.92 C47.41 510.01 45.5 510.13 43.6 510.27 C36.84 510.5 36.84 510.5 33.85 508.44 C30.25 504.5 28.29 500.03 26.69 495 C26.32 493.91 26.32 493.91 25.95 492.79 C13.98 456.18 13.98 456.18 18.75 445.75 C21.39 443.57 24.28 442.06 27.31 440.5 C28.88 439.67 30.44 438.83 32 437.98 C32.7 437.63 33.39 437.27 34.11 436.9 C36.08 435.76 36.08 435.76 36.75 432.75 C36.09 430.33 36.09 430.33 34.94 427.68 C34.53 426.65 34.11 425.62 33.69 424.56 C33.01 422.89 33.01 422.89 32.31 421.19 C26.56 406.71 21.42 391.9 17.75 376.75 C14.58 378.18 12.16 379.96 9.5 382.19 C2.62 387.58 -3.51 389.71 -12.25 388.75 C-29.53 386.08 -45.49 378.87 -58.25 366.75 C-61.04 362.83 -60.5 358.43 -60.45 353.83 C-60.44 352.97 -60.44 352.11 -60.44 351.22 C-60.43 348.48 -60.4 345.74 -60.38 343 C-60.36 341.14 -60.36 339.28 -60.35 337.42 C-60.33 332.86 -60.29 328.31 -60.25 323.75 C-63.98 323.68 -67.4 323.83 -71.06 324.55 Z M2.75 337.75 C2.75 339.07 2.75 340.39 2.75 341.75 C3.41 341.75 4.07 341.75 4.75 341.75 C4.09 340.43 3.43 339.11 2.75 337.75 Z M-34.25 357.75 C-34.3 360.04 -34.34 362.33 -34.38 364.62 C-34.4 365.9 -34.42 367.18 -34.45 368.49 C-34.61 371.84 -34.61 371.84 -32.25 373.75 C-32.58 368.47 -32.91 363.19 -33.25 357.75 C-33.58 357.75 -33.91 357.75 -34.25 357.75 Z M-3.25 360.75 C-3.25 363.72 -3.25 366.69 -3.25 369.75 C-2.92 369.75 -2.59 369.75 -2.25 369.75 C-2.25 366.78 -2.25 363.81 -2.25 360.75 C-2.58 360.75 -2.91 360.75 -3.25 360.75 Z M-2.25 369.75 C-2.25 372.39 -2.25 375.03 -2.25 377.75 C-1.92 377.75 -1.59 377.75 -1.25 377.75 C-1.25 375.11 -1.25 372.47 -1.25 369.75 C-1.58 369.75 -1.91 369.75 -2.25 369.75 Z M-61.25 407.75 C-61.25 412.37 -61.25 416.99 -61.25 421.75 C-60.92 421.75 -60.59 421.75 -60.25 421.75 C-60.25 417.13 -60.25 412.51 -60.25 407.75 C-60.58 407.75 -60.91 407.75 -61.25 407.75 Z M-46.25 416.75 C-46.25 421.37 -46.25 425.99 -46.25 430.75 C-45.92 430.75 -45.59 430.75 -45.25 430.75 C-45.25 426.13 -45.25 421.51 -45.25 416.75 C-45.58 416.75 -45.91 416.75 -46.25 416.75 Z M-39.25 425.75 C-39.25 434.66 -39.25 443.57 -39.25 452.75 C-38.92 452.75 -38.59 452.75 -38.25 452.75 C-37.08 444.08 -37.15 435.48 -37.25 426.75 C-37.91 426.42 -38.57 426.09 -39.25 425.75 Z M-32.25 436.75 C-32.25 447.31 -32.25 457.87 -32.25 468.75 C-29.92 466.87 -29.92 466.87 -30.11 463.77 C-30.17 462.52 -30.22 461.28 -30.27 459.99 C-30.3 459.33 -30.32 458.67 -30.35 457.98 C-30.43 455.86 -30.53 453.74 -30.62 451.62 C-30.68 450.19 -30.74 448.75 -30.8 447.32 C-30.94 443.79 -31.09 440.27 -31.25 436.75 C-31.58 436.75 -31.91 436.75 -32.25 436.75 Z M36.75 444.75 C35.44 445.84 35.44 445.84 35.65 448.47 C35.66 449.57 35.68 450.68 35.69 451.81 C35.7 452.92 35.71 454.02 35.71 455.16 C35.73 456.01 35.74 456.87 35.75 457.75 C36.08 457.75 36.41 457.75 36.75 457.75 C37.08 453.46 37.41 449.17 37.75 444.75 C37.42 444.75 37.09 444.75 36.75 444.75 Z M-24.25 449.75 C-24.25 453.71 -24.25 457.67 -24.25 461.75 C-22.93 460.76 -21.61 459.77 -20.25 458.75 C-20.75 454.28 -20.94 453.06 -24.25 449.75 Z M43.75 456.75 C43.42 471.27 43.09 485.79 42.75 500.75 C43.41 500.75 44.07 500.75 44.75 500.75 C44.75 486.23 44.75 471.71 44.75 456.75 C44.42 456.75 44.09 456.75 43.75 456.75 Z M53.75 487.75 C53.75 491.71 53.75 495.67 53.75 499.75 C55.07 499.09 56.39 498.43 57.75 497.75 C56.76 494.45 55.77 491.15 54.75 487.75 C54.42 487.75 54.09 487.75 53.75 487.75 Z M298.75 587.75 C289.35 596.42 281.4 606.44 275 617.5 C274.65 618.1 274.31 618.69 273.95 619.31 C273.15 620.75 272.44 622.25 271.75 623.75 C272.08 624.41 272.41 625.07 272.75 625.75 C277.1 620.5 281.2 615.17 285 609.5 C290.04 602.1 295.82 595.44 301.75 588.75 C300.76 588.42 299.77 588.09 298.75 587.75 Z M309.91 589.34 C303.33 596.71 297.71 604.64 292.11 612.77 C290.26 615.46 288.38 618.14 286.5 620.81 C285.58 622.12 284.67 623.44 283.75 624.75 C284.74 625.08 285.73 625.41 286.75 625.75 C289.92 624 289.92 624 291.11 620.95 C292.96 617.35 295.05 615.26 298 612.5 C305.51 605.26 310.95 597.52 314.75 587.75 C311.72 587.42 311.72 587.42 309.91 589.34 Z M276.75 593.75 C267.88 603.66 261.38 615.29 254.75 626.75 C255.74 626.75 256.73 626.75 257.75 626.75 C261.14 623.13 263.49 618.91 265.94 614.62 C270.6 606.67 275.86 599.52 282.52 593.07 C284.98 591.05 284.98 591.05 284.75 588.75 C281.32 588.75 279.14 591.51 276.75 593.75 Z M262.49 592.92 C261.69 593.91 260.89 594.91 260.06 595.94 C259.63 596.47 259.2 597.01 258.76 597.56 C254.11 603.41 249.86 609.51 245.75 615.75 C245.26 616.48 244.77 617.2 244.27 617.95 C242.49 620.76 241.71 622.32 242 625.69 C242.25 626.37 242.5 627.05 242.75 627.75 C243.41 627.75 244.07 627.75 244.75 627.75 C245.93 626.27 245.93 626.27 247.04 624.3 C247.48 623.56 247.92 622.82 248.38 622.06 C248.85 621.26 249.33 620.45 249.81 619.62 C250.8 617.97 251.8 616.32 252.79 614.67 C253.29 613.84 253.78 613.01 254.29 612.16 C256.37 608.72 258.52 605.32 260.69 601.94 C261.38 600.86 262.07 599.78 262.78 598.67 C264.64 595.91 266.63 593.32 268.75 590.75 C264.71 590.29 264.71 590.29 262.49 592.92 Z M62.75 593.75 C62.69 595.06 62.63 596.38 62.57 597.73 C62.48 599.47 62.4 601.2 62.31 602.94 C62.27 603.8 62.23 604.67 62.19 605.56 C61.99 609.71 61.75 613.7 60.75 617.75 C61.74 618.08 62.73 618.41 63.75 618.75 C63.75 610.5 63.75 602.25 63.75 593.75 C63.42 593.75 63.09 593.75 62.75 593.75 Z M249.75 593.75 C249.75 596.75 249.75 596.75 249.75 596.75 Z M237.75 594.75 C235.14 595.64 235.14 595.64 232.75 596.75 C233.41 598.07 234.07 599.39 234.75 600.75 C236.4 599.1 238.05 597.45 239.75 595.75 C239.09 595.42 238.43 595.09 237.75 594.75 Z M70.75 596.75 C70.75 609.29 70.75 621.83 70.75 634.75 C71.08 634.75 71.41 634.75 71.75 634.75 C72.94 629.34 73.14 624.02 73.38 618.5 C73.45 617 73.45 617 73.53 615.47 C73.8 609.44 73.76 603.72 72.75 597.75 C72.09 597.42 71.43 597.09 70.75 596.75 Z M51.75 597.75 C50.76 599.24 50.76 599.24 49.75 600.75 C51.07 602.07 52.39 603.39 53.75 604.75 C53.75 602.44 53.75 600.13 53.75 597.75 C53.09 597.75 52.43 597.75 51.75 597.75 Z M238.75 606.75 C238.09 608.07 237.43 609.39 236.75 610.75 C237.74 610.09 238.73 609.43 239.75 608.75 C239.42 608.09 239.09 607.43 238.75 606.75 Z M80.75 616.75 C80.75 621.37 80.75 625.99 80.75 630.75 C82.97 628.94 82.97 628.94 83.02 626.44 C83.01 625.55 83.01 624.66 83 623.75 C83.01 622.86 83.01 621.98 83.02 621.06 C82.97 618.56 82.97 618.56 80.75 616.75 Z M474.75 633.75 C472.38 640.02 470.12 646.33 467.91 652.66 C467.54 653.73 467.54 653.73 467.15 654.82 C466.79 655.85 466.79 655.85 466.43 656.89 C465.86 658.45 465.23 659.98 464.57 661.5 C463.71 663.86 463.54 665.57 463.62 668.06 C463.67 669.28 463.71 670.5 463.75 671.75 C466.96 670.14 467.46 666.79 468.64 663.57 C468.91 662.85 469.18 662.13 469.45 661.39 C470.02 659.86 470.58 658.33 471.14 656.8 C471.99 654.45 472.88 652.12 473.76 649.78 C474.3 648.3 474.85 646.81 475.39 645.32 C475.66 644.63 475.92 643.93 476.2 643.21 C477.62 639.28 477.62 639.28 476.9 635.28 C476.33 634.52 476.33 634.52 475.75 633.75 C475.42 633.75 475.09 633.75 474.75 633.75 Z M464.75 637.75 C463.59 640.1 462.45 642.45 461.31 644.81 C460.99 645.47 460.66 646.13 460.33 646.8 C458.24 651.17 457.2 654.92 456.75 659.75 C459.72 656.78 460.85 653.16 462.44 649.31 C462.94 648.15 462.94 648.15 463.45 646.96 C463.76 646.21 464.07 645.46 464.39 644.69 C464.67 644.01 464.96 643.32 465.25 642.62 C465.99 640.55 465.99 640.55 464.75 637.75 Z M481.75 640.75 C474 661.92 474 661.92 468.75 683.75 C471.6 682.33 471.78 680.26 472.75 677.38 C473 676.63 473.25 675.88 473.5 675.1 C473.76 674.33 474.02 673.56 474.28 672.77 C475.11 670.31 475.93 667.84 476.75 665.38 C477.57 662.91 478.39 660.46 479.22 658 C479.73 656.47 480.24 654.93 480.75 653.4 C481.82 650.19 482.86 647.59 484.75 644.75 C484.44 642.6 484.44 642.6 483.75 640.75 C483.09 640.75 482.43 640.75 481.75 640.75 Z M502.75 668.75 C502.09 670.73 501.43 672.71 500.75 674.75 C501.74 673.76 502.73 672.77 503.75 671.75 C503.42 670.76 503.09 669.77 502.75 668.75 Z M483.75 669.75 C484.75 671.75 484.75 671.75 484.75 671.75 Z M482.75 671.75 C481.72 675.04 480.7 678.33 479.69 681.62 C479.39 682.56 479.1 683.5 478.79 684.46 C478.52 685.36 478.25 686.26 477.96 687.18 C477.71 688.01 477.45 688.83 477.19 689.69 C476.52 691.8 476.52 691.8 477.75 693.75 C481.56 686.76 484.27 679.86 483.75 671.75 C483.42 671.75 483.09 671.75 482.75 671.75 Z M110.75 713.75 C110.42 715.07 110.09 716.39 109.75 717.75 C110.41 717.75 111.07 717.75 111.75 717.75 C111.42 716.43 111.09 715.11 110.75 713.75 Z M119.75 715.75 C120.75 717.75 120.75 717.75 120.75 717.75 Z M124.75 727.75 C124.05 729.04 123.37 730.33 122.69 731.62 C122.3 732.34 121.92 733.06 121.53 733.8 C121.27 734.45 121.01 735.09 120.75 735.75 C121.08 736.41 121.41 737.07 121.75 737.75 C123.9 734.99 123.9 734.99 125.75 731.75 C125.44 729.59 125.44 729.59 124.75 727.75 Z M241.75 747.75 C237.8 752.17 235 756.58 232.38 761.88 C232.01 762.58 231.64 763.28 231.26 764 C229.23 767.81 229.23 767.81 229.16 771.98 C229.35 772.56 229.55 773.15 229.75 773.75 C230.27 772.6 230.79 771.46 231.32 770.28 C232.03 768.75 232.73 767.22 233.44 765.69 C233.78 764.94 234.12 764.18 234.47 763.41 C236.78 758.42 239.43 754.13 242.75 749.75 C242.42 749.09 242.09 748.43 241.75 747.75 Z M222.75 748.75 C222.09 750.4 221.43 752.05 220.75 753.75 C222.07 752.43 223.39 751.11 224.75 749.75 C224.09 749.42 223.43 749.09 222.75 748.75 Z M230.75 748.75 C231.08 749.41 231.41 750.07 231.75 750.75 C232.08 750.09 232.41 749.43 232.75 748.75 C232.09 748.75 231.43 748.75 230.75 748.75 Z M229.75 750.75 C229.75 753.75 229.75 753.75 229.75 753.75 Z M446.75 750.75 C444.45 753.05 444.43 753.76 444.12 756.88 C444 758.15 443.88 759.43 443.75 760.75 C446.39 757.62 447.59 754.66 448.75 750.75 C448.09 750.75 447.43 750.75 446.75 750.75 Z M258.75 751.75 C258.39 752.63 258.02 753.52 257.65 754.43 C254.74 761.36 251.7 767.96 247.85 774.45 C246.46 776.93 246.46 776.93 246.75 780.75 C250.23 779.59 250.37 779.15 251.98 776.04 C252.37 775.29 252.76 774.54 253.16 773.77 C253.56 772.98 253.96 772.19 254.38 771.38 C254.78 770.59 255.19 769.81 255.61 769.01 C258.93 762.62 258.93 762.62 259.81 755.56 C259.79 754.3 259.77 753.05 259.75 751.75 C259.42 751.75 259.09 751.75 258.75 751.75 Z M462.75 752.75 C460.14 757.59 460.14 757.59 460.75 762.75 C461.41 761.66 462.07 760.56 462.75 759.44 C463.12 758.82 463.49 758.21 463.88 757.57 C464.97 755.64 464.97 755.64 464.75 752.75 C464.09 752.75 463.43 752.75 462.75 752.75 Z M227.75 753.75 C228.75 755.75 228.75 755.75 228.75 755.75 Z M226.75 755.75 C227.75 757.75 227.75 757.75 227.75 757.75 Z M247.75 755.75 C248.75 757.75 248.75 757.75 248.75 757.75 Z M225.75 757.75 C226.75 759.75 226.75 759.75 226.75 759.75 Z M246.75 757.75 C242.79 763.88 239.69 769.69 237.75 776.75 C241.01 774.02 242.65 770.43 244.5 766.69 C244.83 766.05 245.16 765.41 245.5 764.76 C246.31 763.12 247.04 761.44 247.75 759.75 C247.42 759.09 247.09 758.43 246.75 757.75 Z M373.75 757.75 C370.79 764.67 368.02 771.57 365.75 778.75 C366.74 778.75 367.73 778.75 368.75 778.75 C369.09 777.85 369.43 776.94 369.77 776.01 C370.22 774.83 370.67 773.65 371.12 772.44 C371.57 771.27 372.01 770.09 372.46 768.89 C373.75 765.75 373.75 765.75 375.75 762.75 C375.44 760.1 375.44 760.1 374.75 757.75 C374.42 757.75 374.09 757.75 373.75 757.75 Z M362.75 758.75 C357.84 768.51 357.84 768.51 357.75 778.75 C358.57 776.54 359.38 774.34 360.19 772.12 C360.64 770.9 361.09 769.67 361.56 768.4 C362.62 765.15 363.3 762.12 363.75 758.75 C363.42 758.75 363.09 758.75 362.75 758.75 Z M224.75 759.75 C225.75 761.75 225.75 761.75 225.75 761.75 Z M343.75 759.75 C335.8 770.58 335.8 770.58 331.75 782.75 C334.14 782.78 334.14 782.78 336.75 781.75 C338.24 779.46 339.34 777.46 340.44 775 C340.73 774.38 341.03 773.76 341.33 773.12 C344.57 766.69 344.57 766.69 345.75 759.75 C345.09 759.75 344.43 759.75 343.75 759.75 Z M223.75 761.75 C224.75 763.75 224.75 763.75 224.75 763.75 Z M458.75 762.75 C458.42 764.4 458.09 766.05 457.75 767.75 C458.41 767.09 459.07 766.43 459.75 765.75 C459.42 764.76 459.09 763.77 458.75 762.75 Z M222.75 763.75 C223.75 765.75 223.75 765.75 223.75 765.75 Z M221.75 765.75 C221.09 767.73 220.43 769.71 219.75 771.75 C220.41 771.75 221.07 771.75 221.75 771.75 C222.08 769.77 222.41 767.79 222.75 765.75 C222.42 765.75 222.09 765.75 221.75 765.75 Z M329.75 765.75 C330.75 767.75 330.75 767.75 330.75 767.75 Z M523.75 766.75 C524.75 769.75 524.75 769.75 524.75 769.75 Z M328.75 767.75 C329.75 769.75 329.75 769.75 329.75 769.75 Z M456.75 767.75 C457.75 769.75 457.75 769.75 457.75 769.75 Z M378.75 768.75 C378.42 771.39 378.09 774.03 377.75 776.75 C379.73 776.75 381.71 776.75 383.75 776.75 C382.76 774.11 381.77 771.47 380.75 768.75 C380.09 768.75 379.43 768.75 378.75 768.75 Z M455.75 770.75 C456.75 772.75 456.75 772.75 456.75 772.75 Z M474.75 770.75 C473.3 774.68 471.85 778.61 470.42 782.55 C469.93 783.89 469.44 785.22 468.95 786.56 C468.24 788.48 467.54 790.41 466.84 792.33 C466.42 793.49 465.99 794.65 465.55 795.84 C464.45 798.78 464.45 798.78 465.75 801.75 C468.21 801.25 468.21 801.25 470.75 799.75 C473.33 794.76 474.36 790.23 474.94 784.69 C475.02 784.01 475.1 783.32 475.19 782.62 C475.64 778.65 475.83 774.75 475.75 770.75 C475.42 770.75 475.09 770.75 474.75 770.75 Z M454.75 772.75 C455.75 774.75 455.75 774.75 455.75 774.75 Z M325.75 773.75 C326.75 775.75 326.75 775.75 326.75 775.75 Z M324.75 776.75 C325.75 778.75 325.75 778.75 325.75 778.75 Z M419.38 784.12 C414.08 795.94 412.75 810.94 412.75 823.75 C419.02 823.75 425.29 823.75 431.75 823.75 C431.81 821.35 431.87 818.95 431.93 816.48 C432 814.12 432.06 811.76 432.12 809.4 C432.17 807.78 432.21 806.16 432.25 804.53 C432.47 795.57 432.75 786.67 433.75 777.75 C428.18 777.75 423.28 780.22 419.38 784.12 Z M452.75 777.75 C453.75 779.75 453.75 779.75 453.75 779.75 Z M323.75 779.75 C324.75 781.75 324.75 781.75 324.75 781.75 Z M451.75 779.75 C452.75 781.75 452.75 781.75 452.75 781.75 Z M462.75 779.75 C463.75 781.75 463.75 781.75 463.75 781.75 Z M450.75 781.75 C449.1 786.04 447.45 790.33 445.75 794.75 C446.41 794.75 447.07 794.75 447.75 794.75 C448.45 793.15 449.13 791.55 449.81 789.94 C450.2 789.04 450.58 788.15 450.97 787.23 C452.04 784.66 452.04 784.66 450.75 781.75 Z M461.75 781.75 C462.75 784.75 462.75 784.75 462.75 784.75 Z M460.75 784.75 C459.55 787.52 458.37 790.29 457.19 793.06 C456.85 793.85 456.5 794.63 456.15 795.44 C455.83 796.2 455.51 796.96 455.18 797.74 C454.89 798.43 454.59 799.13 454.28 799.85 C453.5 801.95 453.5 801.95 454.75 804.75 C455.95 801.98 457.13 799.21 458.31 796.44 C458.65 795.65 459 794.87 459.35 794.06 C459.67 793.3 459.99 792.54 460.32 791.76 C460.61 791.07 460.91 790.37 461.22 789.65 C462 787.55 462 787.55 460.75 784.75 Z M199.75 791.75 C199.42 793.4 199.09 795.05 198.75 796.75 C199.74 796.75 200.73 796.75 201.75 796.75 C201.75 795.1 201.75 793.45 201.75 791.75 C201.09 791.75 200.43 791.75 199.75 791.75 Z M153.75 801.75 C152.1 803.4 150.45 805.05 148.75 806.75 C149.08 807.41 149.41 808.07 149.75 808.75 C151.4 807.1 153.05 805.45 154.75 803.75 C154.42 803.09 154.09 802.43 153.75 801.75 Z M442.75 802.75 C443.75 805.75 443.75 805.75 443.75 805.75 Z M155.75 809.75 C153.44 812.06 151.13 814.37 148.75 816.75 C149.08 817.41 149.41 818.07 149.75 818.75 C152.06 816.44 154.37 814.13 156.75 811.75 C156.42 811.09 156.09 810.43 155.75 809.75 Z M155.75 822.75 C154.26 824.73 154.26 824.73 152.75 826.75 C154.07 826.42 155.39 826.09 156.75 825.75 C156.42 824.76 156.09 823.77 155.75 822.75 Z M409.94 838.69 C407.84 842.34 407.61 845.71 407.62 849.88 C407.62 850.74 407.62 851.61 407.62 852.51 C407.6 854.79 407.6 854.79 408.75 856.75 C416.28 858.79 424 859.02 431.75 858.75 C431.86 855.85 431.94 852.96 432 850.06 C432.03 849.25 432.07 848.43 432.1 847.59 C432.17 843.47 432.11 841.33 429.89 837.75 C426.88 834.93 424.37 833.96 420.31 833.44 C416.06 833.96 412.87 835.56 409.94 838.69 Z M194.2 834.15 C192.95 834.24 191.7 834.32 190.42 834.41 C188.45 834.55 188.45 834.55 186.44 834.69 C171.06 835.76 171.06 835.76 165.21 836 C164.43 836.03 163.66 836.07 162.87 836.1 C160.91 836.18 158.96 836.25 157 836.31 C152.64 836.9 149.55 838.53 145.95 840.97 C144.05 843.79 143.95 846.89 143.62 850.19 C143.19 854.11 142.77 857.93 141.75 861.75 C149.71 861.77 157.68 861.79 165.64 861.8 C169.34 861.81 173.03 861.81 176.73 861.83 C180.31 861.84 183.88 861.84 187.45 861.84 C188.81 861.85 190.17 861.85 191.53 861.86 C193.44 861.86 195.35 861.86 197.26 861.86 C198.35 861.87 199.44 861.87 200.55 861.87 C204.01 861.74 207.34 861.29 210.75 860.75 C211.02 854.5 210.61 848.39 209.88 842.19 C209.8 841.47 209.72 840.76 209.64 840.02 C209.42 838.25 209.09 836.5 208.75 834.75 C204.47 832.61 198.86 833.83 194.2 834.15 Z M122.53 843.38 C120.23 846.44 120.34 848.21 120.5 852 C120.54 853.08 120.57 854.16 120.61 855.27 C120.66 856.09 120.7 856.91 120.75 857.75 C123.12 858.41 123.12 858.41 125.75 858.75 C128.46 857.09 129.34 856.48 130.75 853.75 C131.46 849.75 131.68 845.81 131.75 841.75 C126.82 841.28 126.82 841.28 122.53 843.38 Z M520.75 843.75 C518.84 843.97 518.84 843.97 516.89 844.19 C492.26 846.64 467.47 845.92 442.75 845.75 C442.75 853.34 442.75 860.93 442.75 868.75 C453.29 868.83 463.72 868.62 474.25 867.94 C474.93 867.89 475.61 867.85 476.31 867.81 C485.7 867.2 495.04 866.4 504.38 865.25 C505.35 865.13 506.32 865.01 507.31 864.89 C512.01 864.27 516.3 863.46 520.75 861.75 C521.14 859.5 521.51 857.25 521.88 855 C522.08 853.75 522.29 852.49 522.51 851.2 C522.76 847.67 522.43 846.7 520.75 843.75 Z " fill="#000000" transform="translate(495.25,32.25)"/>
<path d="M0 0 C12.85 5.99 30.36 18.89 37.91 31.04 C38.62 37.39 37.8 39.82 33.91 45.04 C28.67 50.75 23.03 56.15 17.12 61.16 C15.35 62.66 13.61 64.19 11.88 65.74 C3.53 73.1 -5.25 80.73 -17.09 80.04 C-29.6 77.64 -41 67.07 -48.2 57.13 C-55.82 45.44 -55.82 45.44 -55.59 38.14 C-54.57 33.81 -51.14 31.09 -48.09 28.04 C-46.42 26.22 -44.75 24.38 -43.09 22.54 C-42.24 21.61 -41.38 20.67 -40.5 19.71 C-38.47 17.47 -36.53 15.18 -34.59 12.86 C-25.11 1.93 -14.71 -4.55 0 0 Z M-14.09 9.04 C-17.4 15.11 -19.31 20.92 -20.97 27.61 C-23.07 35.74 -25.59 43.37 -28.99 51.05 C-30.07 53.97 -30.33 55.97 -30.09 59.04 C-28.77 59.04 -27.45 59.04 -26.09 59.04 C-25.89 58.39 -25.68 57.73 -25.47 57.05 C-21.23 43.54 -16.8 30.16 -11.79 16.92 C-10.82 14.31 -9.95 11.68 -9.09 9.04 C-10.74 9.04 -12.39 9.04 -14.09 9.04 Z M-3.09 12.04 C-4.39 15.79 -5.67 19.55 -6.94 23.3 C-7.59 25.21 -8.24 27.11 -8.89 29.01 C-9.3 30.21 -9.71 31.41 -10.12 32.65 C-10.5 33.75 -10.88 34.86 -11.27 36 C-12.04 38.85 -12.27 41.11 -12.09 44.04 C-9.03 39.45 -7.41 34.32 -5.47 29.17 C-5.05 28.08 -4.63 26.99 -4.2 25.87 C-3.8 24.81 -3.4 23.76 -2.99 22.68 C-2.45 21.24 -2.45 21.24 -1.89 19.77 C-1.09 17.04 -0.94 14.86 -1.09 12.04 C-1.75 12.04 -2.41 12.04 -3.09 12.04 Z M-27.09 18.04 C-36.43 32.54 -36.43 32.54 -39.09 49.04 C-38.1 49.04 -37.11 49.04 -36.09 49.04 C-33.37 42.67 -31.03 36.16 -28.78 29.61 C-28.5 28.81 -28.22 28.02 -27.94 27.2 C-27.68 26.45 -27.43 25.7 -27.17 24.92 C-26.94 24.25 -26.71 23.57 -26.47 22.88 C-25.89 20.82 -25.89 20.82 -27.09 18.04 Z M6.91 18.04 C3.26 26.73 0.17 35.61 -2.95 44.5 C-3.85 47.07 -4.76 49.63 -5.67 52.2 C-6.24 53.84 -6.82 55.47 -7.39 57.11 C-7.66 57.87 -7.93 58.64 -8.21 59.43 C-9.6 63.15 -9.6 63.15 -10.09 67.04 C-7.62 66.47 -7.62 66.47 -5.09 65.04 C-3.69 62.44 -3.69 62.44 -2.84 59.11 C-2.44 57.76 -2.04 56.43 -1.63 55.09 C-1.4 54.31 -1.17 53.54 -0.93 52.74 C0.06 49.54 1.16 46.38 2.26 43.22 C2.67 42.02 3.09 40.82 3.51 39.58 C4.35 37.16 5.2 34.74 6.05 32.32 C6.43 31.2 6.82 30.07 7.21 28.91 C7.56 27.9 7.91 26.89 8.27 25.85 C8.95 22.84 8.74 20.98 7.91 18.04 C7.58 18.04 7.25 18.04 6.91 18.04 Z M14.91 25.04 C13.45 28.97 12.01 32.9 10.58 36.84 C10.09 38.18 9.6 39.52 9.1 40.85 C8.39 42.77 7.69 44.7 7 46.62 C6.57 47.78 6.15 48.94 5.71 50.13 C4.61 53.07 4.61 53.07 5.91 56.04 C8.54 53.41 8.83 51.14 9.78 47.54 C11.23 42.23 12.91 37.24 15.17 32.23 C16.01 29.73 16.04 27.66 15.91 25.04 C15.58 25.04 15.25 25.04 14.91 25.04 Z M22.91 31.04 C22.37 32.31 21.86 33.58 21.34 34.86 C21.05 35.56 20.76 36.27 20.46 37 C19.66 39.22 19.66 39.22 20.91 42.04 C23.22 39.73 25.53 37.42 27.91 35.04 C26.54 33 26.54 33 24.91 31.04 C24.25 31.04 23.59 31.04 22.91 31.04 Z M-13.09 44.04 C-12.09 46.04 -12.09 46.04 -12.09 46.04 Z M-14.09 47.04 C-13.09 49.04 -13.09 49.04 -13.09 49.04 Z M-15.09 50.04 C-14.09 52.04 -14.09 52.04 -14.09 52.04 Z M-16.09 52.04 C-17.89 55.85 -18.17 56.75 -17.09 61.04 C-16.43 58.07 -15.77 55.1 -15.09 52.04 C-15.42 52.04 -15.75 52.04 -16.09 52.04 Z M-19.09 61.04 C-18.09 65.04 -18.09 65.04 -18.09 65.04 Z " fill="#000000" transform="translate(861.09375,668.95703125)"/>
<path d="M0 0 C1.85 -0 1.85 -0 3.74 -0.01 C6.34 -0.01 8.93 -0 11.52 0 C15.49 0.02 19.45 0 23.41 -0.01 C25.94 -0.01 28.47 -0 31 0 C32.18 -0 33.36 -0.01 34.57 -0.01 C48.53 0.07 48.53 0.07 52.68 4.08 C56.88 12.26 54.78 22.32 53.43 31.02 C53.3 31.83 53.17 32.65 53.04 33.49 C52.31 37.93 51.25 41.99 49.8 46.27 C49.65 47.78 49.54 49.3 49.49 50.83 C49.14 54.19 48.81 55.25 46.8 58.14 C40.69 62.47 34.34 63.57 26.96 63.96 C24.51 64.15 24.51 64.15 21.8 66.27 C19.04 65.97 16.76 65.25 14.17 64.25 C10.1 63.06 6.39 62.94 2.18 62.83 C-4.35 62.57 -10.32 61.83 -16.62 59.98 C-19.49 59.18 -22.23 58.56 -25.2 58.27 C-25.86 58.93 -26.52 59.59 -27.2 60.27 C-29.82 60.39 -29.82 60.39 -32.2 60.27 C-33.38 58.66 -33.38 58.66 -34.2 56.27 C-33.12 53.31 -33.12 53.31 -31.39 50.02 C-28.82 44.81 -27.5 41.01 -27.2 35.27 C-26.73 31.97 -26.12 29.01 -25.14 25.83 C-24.15 22.06 -23.75 19.14 -24.2 15.27 C-24.86 14.77 -25.52 14.28 -26.2 13.77 C-28.2 12.27 -28.2 12.27 -28.76 8.77 C-28.2 5.27 -28.2 5.27 -26.32 3.45 C-17.73 0.19 -9.1 -0.03 0 0 Z M-16.2 13.27 C-15.87 14.59 -15.54 15.91 -15.2 17.27 C-13.82 15.98 -12.49 14.64 -11.2 13.27 C-11.2 12.61 -11.2 11.95 -11.2 11.27 C-13.52 11.08 -13.52 11.08 -16.2 13.27 Z M1.8 11.27 C-5.11 16.1 -10.2 21.49 -15.2 28.27 C-14.87 28.93 -14.54 29.59 -14.2 30.27 C-8.59 24.66 -2.98 19.05 2.8 13.27 C2.47 12.61 2.14 11.95 1.8 11.27 Z M18.8 11.27 C13.29 13.91 9.34 17.3 5.1 21.64 C4.49 22.25 3.89 22.85 3.27 23.48 C2 24.75 0.73 26.03 -0.53 27.31 C-2.45 29.27 -4.39 31.21 -6.32 33.16 C-7.56 34.4 -8.79 35.65 -10.03 36.89 C-10.6 37.47 -11.18 38.05 -11.77 38.65 C-17.21 43.62 -17.21 43.62 -19.2 50.27 C-18.21 50.6 -17.22 50.93 -16.2 51.27 C-12.06 47.36 -8.33 43.27 -4.76 38.83 C0.34 32.51 5.83 26.93 11.99 21.64 C15.34 18.76 18.08 15.75 20.8 12.27 C20.14 11.94 19.48 11.61 18.8 11.27 Z M41.8 15.27 C40.85 16.44 39.95 17.64 39.06 18.86 C38.49 19.64 37.93 20.41 37.34 21.21 C36.73 22.05 36.12 22.9 35.49 23.77 C34.22 25.5 32.95 27.24 31.68 28.98 C31.03 29.86 30.39 30.74 29.72 31.65 C26.34 36.25 22.9 40.81 19.45 45.36 C16.91 48.68 16.91 48.68 14.8 52.27 C17.63 52.63 17.63 52.63 20.8 52.27 C23.05 50.46 23.05 50.46 24.8 47.89 C25.48 46.98 26.16 46.06 26.86 45.12 C29.16 41.73 31.26 38.27 33.29 34.71 C34.88 32.15 36.67 29.94 38.61 27.64 C41.98 23.48 42.7 20.58 42.8 15.27 C42.47 15.27 42.14 15.27 41.8 15.27 Z M19.8 27.27 C17 30.02 14.21 32.77 11.42 35.54 C10.01 36.93 8.59 38.32 7.17 39.72 C5.83 41.05 5.83 41.05 4.47 42.4 C3.65 43.21 2.82 44.03 1.98 44.86 C-0.14 47.2 -1.68 49.51 -3.2 52.27 C1.49 52.12 3.64 49.94 6.69 46.71 C9.44 43.53 12.11 40.3 14.74 37.02 C15.24 36.4 15.73 35.79 16.24 35.15 C19.13 31.64 19.13 31.64 19.8 27.27 Z M39.8 36.27 C37.16 41.55 34.52 46.83 31.8 52.27 C36.81 51.86 36.81 51.86 38.55 48.77 C40.04 44.59 40.52 40.67 40.8 36.27 C40.47 36.27 40.14 36.27 39.8 36.27 Z " fill="#000000" transform="translate(665.19921875,680.734375)"/>
<path d="M0 0 C2.25 3.38 2.21 4.96 1.61 8.9 C0.76 11.82 -0.75 13.75 -2.63 16.11 C-4.15 18.21 -5.09 20.31 -6.12 22.69 C-17.53 46.07 -47.31 59.81 -70.62 67.91 C-88.97 74.01 -108.01 77.51 -127 81 C-127.97 81.19 -128.94 81.38 -129.94 81.57 C-133.73 82.1 -137.48 82.18 -141.3 82.2 C-142.49 82.21 -142.49 82.21 -143.71 82.22 C-145.39 82.23 -147.07 82.24 -148.75 82.24 C-151.27 82.25 -153.78 82.28 -156.29 82.31 C-190.73 82.54 -223.81 70.25 -250 48 C-251 47.16 -252 46.31 -253.02 45.44 C-260.27 39.12 -260.27 39.12 -262 35 C-259.22 34.2 -257.59 33.77 -254.85 34.85 C-254.14 35.3 -253.43 35.75 -252.7 36.21 C-251.9 36.71 -251.09 37.21 -250.26 37.72 C-249.41 38.27 -248.56 38.81 -247.69 39.38 C-245.89 40.49 -244.08 41.61 -242.28 42.72 C-241.38 43.28 -240.49 43.84 -239.57 44.41 C-213.61 60.46 -187.43 69.47 -156.62 69.31 C-155.88 69.31 -155.14 69.31 -154.37 69.31 C-110.39 69.1 -57.1 58.38 -25 26 C-20.09 20.63 -16.95 14.69 -13.57 8.28 C-13.16 7.5 -12.74 6.72 -12.3 5.92 C-11.93 5.22 -11.56 4.51 -11.18 3.78 C-8.28 -0.6 -4.82 -0.44 0 0 Z " fill="#000000" transform="translate(514,239)"/>
<path d="M0 0 C3.36 1.34 5.46 2.46 8 5 C8.48 9.83 8.5 12.06 6.19 16.38 C3.97 19.03 2.38 20.78 -1.12 21.34 C-7.39 21.44 -7.39 21.44 -10.5 19.19 C-12.91 15.67 -13.21 12.67 -13.31 8.5 C-13.35 7.54 -13.39 6.58 -13.43 5.59 C-13 3 -13 3 -11.25 1.18 C-7.53 -0.77 -4.1 -0.54 0 0 Z " fill="#000000" transform="translate(342,216)"/>
<path d="M0 0 C1.54 -0.04 1.54 -0.04 3.12 -0.08 C7.26 0.37 9.72 2.22 13 4.62 C14.12 6.25 14.12 6.25 13.88 8.88 C13.12 11.25 13.12 11.25 12.12 12.25 C8.62 12.66 6.98 12.18 3.75 10.62 C-0.76 8.91 -2.51 9.31 -6.88 11.25 C-9.73 13.69 -9.73 13.69 -11.88 16.25 C-12.88 17.25 -12.88 17.25 -15.44 17.31 C-16.24 17.29 -17.05 17.27 -17.88 17.25 C-18.49 10.02 -18.49 10.02 -15.62 6.44 C-14.72 5.72 -13.81 4.99 -12.88 4.25 C-12.17 3.67 -11.47 3.09 -10.75 2.5 C-7.24 0.16 -4.11 0.06 0 0 Z " fill="#000000" transform="translate(383.875,190.75)"/>
<path d="M0 0 C3.36 2.33 3.95 3.79 4.94 7.81 C5.3 12.27 4.14 15.12 2 19 C-0.89 20.44 -2.8 20.38 -6 20 C-11.75 15.15 -11.75 15.15 -12.24 10.98 C-12.44 4.61 -12.44 4.61 -10.19 1.5 C-6.51 -1.02 -4.18 -1.33 0 0 Z " fill="#000000" transform="translate(392,208)"/>
<path d="M0 0 C3.39 2.63 4.13 4.91 5.5 8.94 C2.67 10.35 0.65 10.18 -2.5 9.94 C-3.49 9.4 -4.48 8.87 -5.5 8.31 C-8.43 6.62 -8.43 6.62 -11.56 7.5 C-15.88 9.61 -19.2 12.47 -22.5 15.94 C-24.65 14.23 -25.43 13.28 -26 10.56 C-25.27 6.76 -23.42 5.41 -20.5 2.94 C-19.63 2.17 -18.77 1.41 -17.88 0.62 C-12.03 -2.3 -6.17 -1.87 0 0 Z " fill="#000000" transform="translate(347.5,202.0625)"/>
<path d="M0 0 C2.33 3.49 2.5 4.89 2 9 C0.02 11.79 -1.13 12.83 -4.5 13.5 C-7 13 -7 13 -9.38 11.44 C-11 9 -11 9 -10.94 5.44 C-10 2 -10 2 -8.88 0 C-5.76 -1.66 -3.31 -0.84 0 0 Z " fill="#000000" transform="translate(350,130)"/>
<path d="M0 0 C2.63 0.95 3.78 1.64 5.44 3.88 C6.31 5.75 6.31 5.75 6.44 7.88 C5.38 10.62 5.38 10.62 3.44 12.88 C0.56 13.5 0.56 13.5 -2.56 12.88 C-5.5 10.69 -5.5 10.69 -7.56 7.88 C-7.64 4.59 -7.05 3.39 -4.81 1 C-2.56 -0.12 -2.56 -0.12 0 0 Z " fill="#000000" transform="translate(412.5625,123.125)"/>
</svg>
