<?xml version="1.0" encoding="UTF-8"?>
<!-- Generator: visioncortex VTracer 0.6.3 -->
<svg version="1.1" xmlns="http://www.w3.org/2000/svg" width="1280" height="1280">
<path d="M0 0 C23.33 16.15 33.67 45.39 40.29 71.92 C41.04 74.69 41.81 76.91 43.23 79.37 C43.7 78.55 44.18 77.73 44.66 76.88 C51.93 64.61 61.34 51.58 75.23 46.37 C82.26 44.78 88.73 45.2 95.26 48.35 C108.11 56.62 113.59 73.84 116.84 87.86 C120.06 102.81 121 118.16 122.23 133.37 C123.14 132.81 124.04 132.24 124.98 131.66 C133.18 126.66 139.6 123.08 149.42 125.06 C156.31 127.14 160.81 131.16 164.23 137.37 C167.53 145.23 168.39 152.8 168.29 161.25 C168.29 162.03 168.28 162.81 168.28 163.62 C168.27 165.54 168.25 167.45 168.23 169.37 C168.81 169.15 169.4 168.94 170 168.71 C178.61 165.79 187.04 164.59 195.61 168.31 C202.71 172.39 205.88 178.36 208.11 186.06 C210.21 195.75 209.58 205.61 208.23 215.37 C209.43 214.88 210.62 214.38 211.86 213.87 C219.6 211.32 228.51 210.97 236.23 213.81 C242.25 216.97 245.05 222.57 247.61 228.62 C248.85 236.08 248.75 243.46 247.23 250.87 C245.76 258.21 244.21 266.79 248.17 273.56 C250.97 277.34 254.27 280.71 257.45 284.17 C302.36 334.74 326.48 406.04 323.09 473.25 C321.06 506.37 313 539.04 297.3 568.37 C296.18 570.47 295.09 572.58 294 574.69 C285.75 590.35 275.38 604.51 263.23 617.37 C262.06 618.72 260.89 620.07 259.73 621.43 C256.36 625.32 252.73 628.91 249.05 632.49 C247.17 634.25 247.17 634.25 246.23 636.37 C246.77 636.42 247.3 636.47 247.86 636.53 C270.35 639.78 288.46 657.47 301.6 674.77 C317.95 696.83 326.5 722.06 333.23 748.37 C337.8 745.04 342.14 741.66 346.23 737.75 C369.42 716.44 407.02 687.73 440.03 688.09 C448.22 688.8 455.88 692.01 461.23 698.37 C466.46 706.45 467.53 714.39 467.36 723.81 C467.34 725.19 467.34 725.19 467.33 726.6 C467.3 728.86 467.27 731.12 467.23 733.37 C468.19 733.21 469.15 733.05 470.14 732.89 C474.63 732.25 479.08 732.15 483.61 732.12 C484.8 732.09 484.8 732.09 486.03 732.06 C496.17 731.99 503.96 735.27 511.23 742.37 C517.11 750.13 516.99 759.05 516.23 768.37 C512.32 793.29 497.76 816.27 483.23 836.37 C482.69 837.13 482.15 837.88 481.59 838.66 C473.51 849.88 465.1 860.76 456.23 871.37 C455.5 872.25 455.5 872.25 454.76 873.15 C442.53 887.83 429.21 901.47 415.73 915 C415.22 915.51 414.71 916.03 414.18 916.56 C408.9 921.86 403.58 927.06 397.89 931.93 C395.73 933.81 393.72 935.82 391.73 937.87 C388.38 941.26 384.94 944.46 381.32 947.57 C378.98 949.59 376.7 951.66 374.42 953.75 C370.12 957.62 365.69 961.3 361.19 964.94 C358.53 967.12 355.93 969.36 353.33 971.62 C345.55 978.39 337.45 984.67 329.21 990.87 C327.43 992.22 325.66 993.58 323.89 994.96 C316.98 1000.34 309.95 1005.5 302.84 1010.61 C297.41 1014.51 292.01 1018.42 286.7 1022.48 C285.23 1023.6 283.75 1024.71 282.23 1025.76 C278.17 1028.78 276.06 1032.22 273.64 1036.65 C269.29 1044.44 264.45 1051.85 259.48 1059.25 C259.04 1059.9 258.61 1060.55 258.16 1061.22 C251.49 1071.18 244.64 1080.95 237.23 1090.37 C236.44 1091.39 235.65 1092.42 234.84 1093.47 C229.68 1100.07 229.68 1100.07 226.23 1102.37 C223.1 1102.51 221.13 1102.18 218.75 1100.04 C213.57 1093.67 210.51 1085.83 207.23 1078.37 C201.86 1080.03 196.77 1081.96 191.7 1084.38 C182.75 1088.65 173.64 1092.12 164.23 1095.25 C162.57 1095.8 162.57 1095.8 160.87 1096.36 C142.4 1102.37 142.4 1102.37 136.23 1102.37 C135.99 1103.18 135.75 1103.99 135.5 1104.83 C128.16 1125.27 114.08 1149.48 96.23 1162.37 C92.64 1163.12 90.44 1163.13 87.29 1161.15 C76.38 1152.1 67.87 1138.89 61.67 1126.25 C59.62 1122.54 57.63 1120.62 53.69 1119.02 C46.28 1117.07 38.69 1117.22 31.11 1117.7 C17.03 1118.6 2.94 1118.52 -11.16 1118.5 C-14.78 1118.5 -18.4 1118.5 -22.02 1118.5 C-25.58 1118.51 -29.13 1118.51 -32.69 1118.5 C-33.38 1118.5 -34.08 1118.5 -34.79 1118.5 C-44.86 1118.48 -54.91 1118.24 -64.96 1117.54 C-73.24 1117.06 -81.81 1117.43 -88.77 1122.37 C-89.43 1122.37 -90.09 1122.37 -90.77 1122.37 C-91.11 1123.35 -91.11 1123.35 -91.46 1124.34 C-97 1137.16 -106.73 1153.66 -118.77 1161.37 C-122.87 1162.53 -125.07 1162.63 -129.08 1161.12 C-142.68 1152.04 -151.07 1135.27 -158.54 1121.22 C-158.97 1120.41 -159.4 1119.61 -159.85 1118.77 C-160.64 1117.27 -161.42 1115.76 -162.17 1114.23 C-167.36 1104.31 -176.53 1100.63 -186.77 1097.37 C-188.67 1096.81 -190.57 1096.25 -192.48 1095.7 C-208.76 1090.96 -223.56 1084.88 -238.77 1077.37 C-239.02 1078.19 -239.27 1079.01 -239.53 1079.86 C-240.96 1083.91 -242.7 1087.7 -244.58 1091.56 C-245.08 1092.62 -245.08 1092.62 -245.58 1093.71 C-247.62 1097.87 -249.21 1100.68 -253.77 1102.37 C-258.84 1102.12 -261.03 1099.75 -264.37 1096.21 C-321.33 1028.86 -369.28 932.07 -372.77 838.37 C-372.79 837.53 -372.81 836.69 -372.84 835.83 C-374.08 779.21 -365.3 712.79 -326.77 668.37 C-326.05 667.53 -325.33 666.69 -324.59 665.82 C-312.63 652.17 -299.33 643.69 -282.77 636.37 C-281.43 635.71 -280.1 635.05 -278.77 634.37 C-279.41 633.74 -280.05 633.11 -280.71 632.46 C-285.26 627.96 -289.74 623.46 -293.89 618.58 C-295.28 616.94 -296.71 615.32 -298.15 613.72 C-338.99 567.81 -356.77 506.24 -353.62 445.57 C-349.81 383.89 -325.36 325.22 -283.71 279.54 C-279.22 274.52 -275.77 270.42 -275.77 263.37 C-276.4 260.28 -277.17 257.26 -278 254.22 C-280.82 243.77 -281.26 231.85 -276.02 222.12 C-271.89 217.07 -268.06 214.09 -261.77 212.37 C-258.66 212.11 -258.66 212.11 -255.46 212.12 C-253.89 212.11 -253.89 212.11 -252.28 212.11 C-247.98 212.43 -243.94 213.34 -239.77 214.37 C-239.82 213.77 -239.86 213.17 -239.91 212.56 C-241.89 185.26 -241.89 185.26 -235.46 175.31 C-230.64 170.04 -225.49 166.8 -218.3 166.15 C-211.63 165.93 -206.02 167.09 -199.77 169.37 C-199.79 168.66 -199.82 167.94 -199.84 167.2 C-200.1 152.99 -198.71 139.79 -188.69 129.04 C-184.69 125.57 -180.6 124.61 -175.46 123.93 C-166.86 124.95 -159.92 128.72 -152.77 133.37 C-152.73 132.64 -152.69 131.92 -152.65 131.17 C-149.37 73.47 -149.37 73.47 -132.21 53.37 C-125.62 47.97 -119.89 45.17 -111.25 45.45 C-104.18 46.47 -99.27 49.99 -93.77 54.37 C-92.96 54.95 -92.16 55.54 -91.32 56.14 C-88.05 59 -85.71 62.22 -83.21 65.75 C-82.74 66.39 -82.27 67.04 -81.79 67.71 C-79.03 71.54 -76.37 75.43 -73.77 79.37 C-73.56 78.69 -73.35 78.01 -73.13 77.31 C-52.73 11.93 -52.73 11.93 -31.14 -0.63 C-20.49 -5.86 -10.31 -6.06 0 0 Z M-36.77 15.37 C-55.28 39.6 -62.3 70.98 -69.14 100.08 C-69.77 102.37 -69.77 102.37 -70.77 103.37 C-71.09 102.77 -71.4 102.16 -71.73 101.54 C-77.7 90.2 -83.53 79.25 -91.77 69.37 C-92.35 68.62 -92.93 67.87 -93.53 67.09 C-98.38 61.04 -104.05 56.26 -111.83 54.79 C-116.73 54.52 -120.67 54.68 -124.64 57.75 C-143.93 77.92 -144.03 114.1 -143.83 140.18 C-143.83 141.37 -143.82 142.55 -143.82 143.76 C-143.81 146.63 -143.79 149.5 -143.77 152.37 C-144.47 151.79 -145.17 151.21 -145.89 150.61 C-148.84 148.19 -151.8 145.78 -154.77 143.37 C-155.84 142.48 -155.84 142.48 -156.93 141.58 C-162.7 136.97 -169.44 132.78 -177.08 133.37 C-181.09 134.46 -182.97 135.33 -185.77 138.37 C-190.3 147.1 -190.07 156.06 -190.21 165.68 C-190.25 166.96 -190.3 168.24 -190.35 169.56 C-190.44 177.78 -189.56 183.3 -183.77 189.37 C-181.68 191.16 -179.56 192.81 -177.33 194.43 C-172.15 198.36 -167.49 202.92 -162.77 207.37 C-162.03 208.06 -161.3 208.76 -160.54 209.47 C-156 213.87 -151.99 218.61 -148.04 223.54 C-146.6 225.34 -145.14 227.12 -143.66 228.89 C-105.06 274.9 -74.08 332.21 -60.09 390.64 C-56.74 404.47 -52.16 417.62 -45.52 430.25 C-44.82 431.58 -44.82 431.58 -44.1 432.95 C-38.66 442.91 -31.66 451.04 -20.77 455.12 C-12.94 456.1 -7.49 454.45 -0.96 450.19 C16.64 436.42 25.34 410.75 29.54 389.56 C43.71 319.15 91.4 235 149.73 191.12 C155.59 186.59 158.14 181.64 159.23 174.37 C160.52 155.21 160.52 155.21 154.37 137.62 C151.61 134.72 149.81 133.52 145.82 133.15 C132.28 133.97 122.36 144.2 112.23 152.37 C112.25 151.56 112.26 150.75 112.28 149.92 C113.39 101.49 113.39 101.49 94.23 58.37 C91.01 55.34 88.2 55.13 83.92 54.93 C74.12 55.3 68.58 60.12 62.02 67.14 C52.52 77.82 45.99 90.88 39.23 103.37 C38.96 102.29 38.7 101.22 38.42 100.11 C27.36 46.85 27.36 46.85 -5.8 6.29 C-17.68 0.76 -28.58 6.36 -36.77 15.37 Z M168.11 180.75 C166.15 183.32 166.15 183.32 164.86 186.25 C161.86 192.01 157.03 195.8 151.92 199.68 C139.68 209.29 128.69 221.05 119.23 233.37 C118.23 234.61 117.22 235.85 116.22 237.09 C79.81 282.32 44.97 339.67 35.71 397.62 C33.72 408.71 29.13 418.3 24.23 428.37 C23.73 429.44 23.73 429.44 23.21 430.54 C16.99 443.67 8.46 455.96 -5.55 461.46 C-13.27 463.64 -22.04 463.7 -29.33 460.18 C-49.82 448.68 -59.96 422.33 -66.1 400.86 C-67.42 395.95 -68.55 391 -69.71 386.06 C-80.08 341.67 -102.27 299.27 -128.77 262.37 C-129.31 261.62 -129.85 260.87 -130.4 260.09 C-138.01 249.54 -145.88 239.24 -154.21 229.24 C-155.74 227.41 -157.25 225.57 -158.76 223.72 C-167.46 213.21 -177.15 203.98 -187.83 195.5 C-192.95 191.39 -196.12 187.4 -199.27 181.62 C-201.85 177.75 -205.33 176.26 -209.77 175.37 C-218.83 174.64 -218.83 174.64 -226.77 178.37 C-236.09 193.98 -231.2 212.72 -227.77 229.37 C-228.88 228.88 -229.99 228.38 -231.13 227.88 C-232.59 227.23 -234.06 226.58 -235.52 225.93 C-236.25 225.61 -236.98 225.28 -237.73 224.95 C-238.44 224.63 -239.15 224.32 -239.88 224 C-240.85 223.57 -240.85 223.57 -241.85 223.13 C-246.16 221.43 -250.08 221.18 -254.71 221.12 C-255.91 221.1 -257.12 221.07 -258.36 221.04 C-262.04 221.4 -263.84 222.16 -266.77 224.37 C-271.6 231.09 -271.42 238.35 -270.77 246.37 C-270.16 249 -269.52 251.54 -268.77 254.12 C-266.83 260.82 -265.19 266.55 -267.96 273.25 C-269.96 276.7 -272.37 279.37 -275.14 282.18 C-309.81 318.66 -332.46 366.2 -341.77 415.37 C-342.02 416.61 -342.02 416.61 -342.27 417.88 C-344.89 431.74 -345.05 445.63 -345.08 459.68 C-345.09 461.02 -345.09 461.02 -345.09 462.38 C-345.13 478.27 -344.23 493.94 -340.46 509.43 C-340.24 510.36 -340.02 511.29 -339.79 512.24 C-339.13 514.95 -338.46 517.66 -337.77 520.37 C-337.49 521.48 -337.49 521.48 -337.21 522.62 C-331.51 545.14 -321.66 568.66 -307.77 587.37 C-307.07 586.91 -306.37 586.45 -305.64 585.98 C-291.96 577.13 -279.54 571.68 -262.77 573.37 C-247.63 576.67 -235.45 583.52 -226.56 596.39 C-219.19 608.64 -216.75 621.86 -219.45 635.92 C-221.59 643.31 -224.9 649.76 -228.77 656.37 C-229.44 657.7 -230.11 659.03 -230.77 660.37 C-212.78 669.93 -194.85 679.12 -175.77 686.37 C-174.61 686.82 -173.44 687.26 -172.24 687.73 C-131.4 703.25 -86.38 714.17 -42.48 713.43 C-41.25 713.41 -40.03 713.39 -38.77 713.37 C-41.29 703.02 -44.02 692.77 -47.04 682.55 C-47.45 681.17 -47.85 679.8 -48.26 678.42 C-49.33 674.78 -50.4 671.14 -51.48 667.5 C-52.15 665.23 -52.82 662.95 -53.49 660.68 C-63.48 626.83 -73.49 593 -84.48 559.46 C-84.7 558.8 -84.92 558.15 -85.14 557.47 C-85.71 555.72 -86.29 553.97 -86.87 552.22 C-89.2 544.87 -89.62 539.31 -86.13 532.27 C-82.64 527.41 -77.87 525.33 -72.39 523.37 C-71.69 523.12 -71 522.86 -70.27 522.6 C-52.83 516.38 -35.84 513.95 -17.39 514 C-16.14 514 -16.14 514 -14.86 514 C7.89 514.08 35.32 516.21 54.23 530.37 C57.31 534.15 57.79 537.57 58.23 542.37 C57.72 545.51 57.72 545.51 56.77 548.85 C56.59 549.48 56.41 550.12 56.22 550.77 C53.63 559.73 50.65 568.58 47.75 577.44 C37.53 608.71 28.33 640.27 19.24 671.88 C18.03 676.08 16.81 680.27 15.59 684.46 C14.62 687.81 13.65 691.17 12.68 694.52 C12.26 695.98 11.84 697.45 11.42 698.91 C10.86 700.84 10.3 702.77 9.75 704.71 C9.45 705.74 9.15 706.78 8.85 707.85 C8.11 710.42 8.11 710.42 8.23 713.37 C49.82 714.28 91.98 704.31 131.23 691.31 C132.34 690.94 132.34 690.94 133.47 690.57 C156.55 682.91 177.8 671.75 199.23 660.37 C197.98 657.84 196.69 655.35 195.36 652.87 C187.87 638.71 185.08 626.54 189.74 610.67 C194.29 596.47 201.97 585.96 215.29 579 C227.26 573.12 241.76 572.53 254.76 575.06 C257.42 575.97 259.77 577.02 262.23 578.37 C263.15 578.88 264.08 579.38 265.03 579.9 C271.49 583.63 271.49 583.63 274.23 586.37 C276.21 586.5 276.21 586.5 278.23 585.37 C279.77 583.38 280.99 581.54 282.23 579.37 C282.61 578.72 282.99 578.07 283.38 577.41 C292.39 561.57 300.4 544.98 305.23 527.37 C305.45 526.57 305.68 525.77 305.9 524.94 C309.61 511.23 311.71 497.47 313.23 483.37 C313.36 482.23 313.5 481.09 313.63 479.91 C320.14 413.37 295.71 344.95 253.84 293.67 C248.97 287.75 244.06 281.92 238.47 276.64 C234.94 273.03 235.98 267.86 236 263.15 C236.21 259.68 236.76 256.82 237.73 253.5 C239.97 245.57 241.04 235.76 237.86 228.04 C235.64 224.4 234.16 223.13 230.23 221.37 C221.16 220.16 213.61 222.05 205.23 225.37 C203.78 225.92 202.33 226.46 200.88 227.01 C199.67 227.46 198.47 227.91 197.23 228.37 C197.56 226.93 197.56 226.93 197.89 225.46 C199.7 216.8 200.6 208.29 200.73 199.43 C200.78 198.02 200.78 198.02 200.82 196.57 C200.83 189.55 199.09 184.25 195.23 178.37 C187.24 171.61 175.75 174.93 168.11 180.75 Z M-79.46 535.5 C-83.27 543.84 -78.07 554.52 -75.37 562.73 C-73.98 566.96 -72.63 571.21 -71.27 575.45 C-70.98 576.34 -70.69 577.24 -70.39 578.16 C-67.22 588.04 -64.17 597.95 -61.14 607.87 C-60.86 608.8 -60.58 609.74 -60.28 610.7 C-54.94 628.27 -49.81 645.91 -44.71 663.56 C-37.14 689.72 -37.14 689.72 -29.39 715.82 C-28.86 717.56 -28.34 719.29 -27.82 721.03 C-24.16 733.28 -20.07 745.34 -15.77 757.37 C-13.63 754.16 -12.69 751.42 -11.5 747.75 C-11.28 747.05 -11.05 746.34 -10.82 745.62 C-10.05 743.21 -9.28 740.79 -8.52 738.37 C-8.11 737.09 -8.11 737.09 -7.7 735.77 C-1.43 715.96 4.4 696.01 10.23 676.06 C10.59 674.83 10.59 674.83 10.96 673.57 C15.06 659.55 19.15 645.52 23.23 631.49 C24.85 625.93 26.48 620.37 28.11 614.81 C28.35 613.98 28.59 613.15 28.84 612.29 C31.94 601.75 35.2 591.27 38.57 580.82 C38.94 579.67 39.31 578.52 39.7 577.33 C41.52 571.69 43.35 566.06 45.2 560.43 C45.87 558.4 46.53 556.38 47.19 554.35 C47.65 552.96 47.65 552.96 48.12 551.55 C49.58 547.07 50.79 543.15 50.23 538.37 C42.5 527.04 22.11 525.22 9.59 522.61 C-15.61 518.46 -57.97 518.51 -79.46 535.5 Z M-301.77 589.37 C-301.62 594.16 -298.94 597.02 -295.89 600.43 C-295.4 601 -294.91 601.56 -294.41 602.14 C-292.87 603.9 -291.32 605.64 -289.77 607.37 C-289.29 607.91 -288.81 608.44 -288.32 609 C-279.95 618.35 -271.41 627.26 -261.59 635.12 C-259.72 636.61 -257.88 638.12 -256.05 639.66 C-245.8 649.32 -245.8 649.32 -233.61 654.36 C-228.22 651.48 -225.61 643.61 -223.89 638.06 C-220.76 624.71 -222.9 610.29 -230.12 598.52 C-238.36 587.78 -251.23 579.34 -264.77 577.37 C-278.35 576.11 -291.96 579.56 -301.77 589.37 Z M202.21 595.54 C192.9 606.68 191 617.94 191.98 632.06 C192.81 639.66 195.56 646.37 200.23 652.37 C208.15 652.16 212.32 649.89 218.48 645.06 C219.31 644.43 220.13 643.8 220.98 643.16 C227.1 638.43 232.87 633.41 238.43 628.05 C240.93 625.66 243.49 623.38 246.11 621.12 C250.2 617.49 253.73 613.57 257.23 609.37 C258.07 608.39 258.91 607.42 259.78 606.41 C260.68 605.36 261.58 604.3 262.48 603.25 C263.31 602.27 264.14 601.3 265 600.3 C268.89 595.27 268.89 595.27 270.28 589.22 C268.65 586.34 266.34 585.33 263.48 583.75 C261.91 582.86 261.91 582.86 260.31 581.96 C239.18 571.07 217.42 579.21 202.21 595.54 Z M-315.77 668.37 C-316.56 669.16 -317.35 669.95 -318.16 670.77 C-348.7 702.96 -358.22 750.82 -362.77 793.37 C-362.86 794.2 -362.96 795.03 -363.06 795.89 C-365.82 823.5 -365.66 853.23 -359.77 880.37 C-359.38 882.21 -359.38 882.21 -358.99 884.08 C-356.29 896.74 -353.3 909.32 -349.46 921.68 C-349.21 922.47 -348.97 923.25 -348.72 924.05 C-348.14 925.85 -347.46 927.61 -346.77 929.37 C-346.11 929.7 -345.45 930.03 -344.77 930.37 C-343.78 924.93 -343.78 924.93 -342.77 919.37 C-342.11 919.37 -341.45 919.37 -340.77 919.37 C-340.74 920.09 -340.72 920.8 -340.69 921.54 C-340.05 932.79 -337.42 944.05 -330.77 953.37 C-327.88 954.82 -325.97 954.75 -322.77 954.37 C-313.59 946.69 -311.87 932.62 -309.77 921.37 C-309.44 921.37 -309.11 921.37 -308.77 921.37 C-308.53 922.55 -308.28 923.74 -308.04 924.96 C-305.33 941.5 -305.33 941.5 -295.77 954.37 C-292.77 955.29 -292.77 955.29 -289.77 954.37 C-280.78 946.7 -278.81 932.42 -276.77 921.37 C-276.58 922.06 -276.4 922.74 -276.21 923.45 C-275.34 926.59 -274.46 929.73 -273.58 932.87 C-273.29 933.95 -273 935.03 -272.7 936.14 C-270.58 943.61 -268.48 950.9 -261.77 955.37 C-258.09 955.37 -256.89 954.48 -254.21 951.93 C-247.45 942.91 -245.98 931.15 -243.77 920.37 C-243.54 921.38 -243.31 922.38 -243.07 923.41 C-239.49 940.11 -239.49 940.11 -230.77 954.37 C-227.81 955.2 -227.81 955.2 -224.77 954.37 C-217.59 948.9 -215.24 940.55 -213.52 932.06 C-213.35 931.26 -213.17 930.46 -213 929.64 C-212.32 926.46 -211.77 923.64 -211.77 920.37 C-211.11 920.37 -210.45 920.37 -209.77 920.37 C-209.67 920.99 -209.57 921.61 -209.47 922.25 C-207.33 935.68 -207.33 935.68 -202.77 948.37 C-202.11 948.37 -201.45 948.37 -200.77 948.37 C-191.36 910.58 -185.52 872.38 -184.77 833.37 C-184.74 831.83 -184.74 831.83 -184.7 830.26 C-183.91 786.76 -185.65 741.99 -194.77 699.37 C-194.97 698.36 -195.17 697.35 -195.38 696.31 C-196.51 691.38 -197.41 687.5 -201.81 684.47 C-206.3 681.95 -210.85 679.6 -215.46 677.31 C-230.91 669.43 -245.37 660.76 -258.79 649.75 C-277.67 634.7 -301.57 653.99 -315.77 668.37 Z M227.23 650.37 C212.39 661.76 196.49 670.87 179.82 679.34 C177.94 680.32 176.08 681.32 174.23 682.37 C173.6 682.73 172.96 683.09 172.31 683.45 C166.34 687.2 165.08 691.84 163.5 698.43 C162.68 702.11 161.94 705.8 161.23 709.5 C161.1 710.17 160.97 710.84 160.84 711.53 C155.7 738.3 154.09 765.57 154.03 792.79 C154.02 793.63 154.02 794.47 154.02 795.34 C154 799.79 153.99 804.24 153.99 808.69 C153.99 812.29 153.97 815.89 153.95 819.49 C153.81 841.66 154.29 863.37 157.23 885.37 C157.41 886.73 157.41 886.73 157.6 888.12 C158.31 893.3 159.14 898.46 160.04 903.62 C160.17 904.36 160.29 905.09 160.42 905.85 C162.18 916.15 164.17 926.37 166.48 936.56 C166.73 937.65 166.97 938.74 167.23 939.87 C167.46 940.85 167.69 941.84 167.93 942.85 C168.14 943.71 168.34 944.56 168.55 945.44 C169.05 947.57 169.05 947.57 171.23 948.37 C174.79 939.1 177.4 930.15 179.23 920.37 C179.46 921.39 179.69 922.4 179.93 923.45 C183.49 940.55 183.49 940.55 193.23 954.37 C196.81 955.03 196.81 955.03 200.23 953.37 C207.54 946.27 210.07 931.99 212.23 922.37 C213.77 925.86 214.74 929.32 215.57 933.04 C217.36 940.94 219.34 948.48 225.23 954.37 C228.6 955.04 228.6 955.04 232.23 954.37 C236.34 950.27 238.33 946.34 239.92 940.75 C240.13 940.05 240.33 939.36 240.55 938.64 C242.28 932.64 243.44 926.58 244.23 920.37 C244.89 920.37 245.55 920.37 246.23 920.37 C246.33 921.17 246.43 921.97 246.53 922.79 C247.99 933.56 250.17 944.73 257.23 953.37 C259.96 955.59 259.96 955.59 262.61 955.37 C266.3 953.96 268.2 951.65 270.23 948.37 C271.76 944.57 272.88 940.69 273.98 936.75 C274.28 935.71 274.59 934.67 274.9 933.61 C276.08 929.54 277.23 925.48 278.23 921.37 C278.39 922.03 278.54 922.68 278.7 923.36 C279.43 926.36 280.17 929.37 280.92 932.37 C281.16 933.4 281.41 934.43 281.66 935.49 C283.5 942.8 285.83 948.97 291.23 954.37 C294.65 954.95 294.65 954.95 298.23 954.37 C306.58 945.64 308.6 931.81 311.23 920.37 C312.22 925.82 312.22 925.82 313.23 931.37 C315.42 930.55 315.42 930.55 316.1 928.3 C316.38 927.39 316.67 926.47 316.96 925.54 C317.29 924.5 317.61 923.47 317.95 922.41 C318.29 921.28 318.63 920.16 318.98 919 C319.33 917.83 319.69 916.67 320.05 915.47 C340.75 845.85 340.14 761.63 305.23 696.37 C299.21 685.33 292.05 676.29 283.23 667.37 C282.57 666.64 281.9 665.9 281.22 665.14 C271.1 654.14 256.04 644.78 240.92 643.68 C235.18 644.05 231.63 646.91 227.23 650.37 Z M-187.77 691.37 C-186.82 696.67 -185.86 701.97 -184.8 707.25 C-179.52 734.54 -178.46 762.43 -177.5 790.15 C-177.47 791.07 -177.43 791.99 -177.4 792.93 C-177.33 794.65 -177.27 796.38 -177.22 798.1 C-177.07 801.95 -176.95 805.1 -174.77 808.37 C-174.02 806.46 -173.27 804.54 -172.52 802.62 C-172.1 801.55 -171.68 800.49 -171.25 799.39 C-169.25 794.11 -167.53 788.73 -165.77 783.37 C-165.54 784.48 -165.54 784.48 -165.3 785.61 C-160.9 813.05 -160.9 813.05 -146.9 836.11 C-144.24 837.68 -142.81 837.85 -139.77 837.37 C-129.69 830.11 -126.47 814.72 -123.77 803.37 C-123.77 802.38 -123.77 801.39 -123.77 800.37 C-123.11 800.37 -122.45 800.37 -121.77 800.37 C-121.66 801.52 -121.66 801.52 -121.54 802.7 C-119.8 817.37 -116.73 839.18 -104.77 849.37 C-101.29 850.43 -99.56 850.76 -96.26 849.13 C-85.82 841.74 -83.06 824.08 -79.77 812.37 C-79.48 813.47 -79.48 813.47 -79.19 814.6 C-78.31 817.98 -77.41 821.36 -76.52 824.75 C-76.22 825.9 -75.92 827.06 -75.61 828.25 C-72.31 841.27 -72.31 841.27 -65.77 852.87 C-65.3 853.5 -64.82 854.13 -64.33 854.78 C-61.94 857.22 -59.81 858.32 -56.39 858.5 C-50.42 855.94 -47.68 849.56 -45.21 843.87 C-42.3 836.51 -40.03 828.95 -37.77 821.37 C-37.6 822.14 -37.43 822.9 -37.25 823.69 C-33.39 841.75 -33.39 841.75 -26.64 858.87 C-26.33 859.49 -26.02 860.11 -25.7 860.75 C-23.64 864.52 -21.36 867.02 -17.77 869.37 C-14.28 870.02 -14.28 870.02 -10.77 868.37 C0.06 858.25 2.64 839.64 5.47 825.77 C6.23 822.37 6.23 822.37 7.23 821.37 C7.45 822.29 7.67 823.21 7.89 824.16 C12.35 842.5 12.35 842.5 23.23 857.37 C27.22 858.37 28.7 857.68 32.23 855.62 C42.92 845.51 46.53 825.52 47.23 811.37 C49.23 812.37 49.23 812.37 49.91 814.22 C50.12 815.02 50.32 815.82 50.53 816.64 C50.76 817.52 50.99 818.41 51.23 819.32 C51.6 820.74 51.6 820.74 51.98 822.18 C55.77 836.63 55.77 836.63 64.23 848.68 C67.1 850.57 67.1 850.57 70.23 850.62 C75.52 848.42 78.12 844.8 80.48 839.63 C83.66 831.4 86 823.14 88.04 814.56 C88.35 813.28 88.67 812 88.99 810.69 C89.74 807.59 90.49 804.48 91.23 801.37 C91.5 802.15 91.77 802.92 92.05 803.72 C93.08 806.64 94.12 809.56 95.17 812.47 C95.84 814.33 96.5 816.2 97.15 818.07 C99.82 825.44 102.64 831.78 108.23 837.37 C111.55 837.37 114.14 837.2 116.85 835.13 C128.76 822.2 131.16 801.05 134.23 784.37 C134.79 785.77 135.36 787.16 135.92 788.56 C136.28 789.46 136.64 790.36 137.02 791.29 C137.88 793.48 138.72 795.68 139.54 797.89 C139.97 799.06 140.41 800.23 140.86 801.43 C141.26 802.54 141.66 803.64 142.08 804.78 C142.96 807.5 142.96 807.5 145.23 808.37 C145.94 800.59 146.37 792.83 146.66 785.02 C146.7 784.09 146.73 783.16 146.77 782.19 C146.8 781.24 146.84 780.28 146.88 779.29 C147.84 753.72 149.33 728.64 154.69 703.54 C154.91 702.52 155.12 701.51 155.34 700.46 C155.54 699.57 155.73 698.68 155.93 697.77 C156.24 695.31 156 693.71 155.23 691.37 C154.23 691.73 153.22 692.09 152.19 692.45 C131.41 699.81 110.8 706.72 89.23 711.37 C88.17 711.6 87.11 711.83 86.02 712.07 C62.32 717.15 38.25 720.2 14.07 721.78 C13.07 721.84 12.06 721.91 11.02 721.98 C9.7 722.06 9.7 722.06 8.35 722.14 C6.18 722.25 6.18 722.25 4.23 723.37 C3.37 725.27 3.37 725.27 2.67 727.61 C2.38 728.51 2.09 729.42 1.79 730.34 C1.49 731.33 1.18 732.31 0.86 733.32 C0.54 734.33 0.21 735.33 -0.12 736.37 C-1.16 739.6 -2.18 742.83 -3.21 746.06 C-4.23 749.27 -5.25 752.49 -6.28 755.7 C-6.93 757.7 -7.56 759.7 -8.19 761.7 C-9.73 766.49 -11.35 770.96 -13.77 775.37 C-15.42 775.04 -17.07 774.71 -18.77 774.37 C-19.11 773.31 -19.45 772.26 -19.81 771.17 C-21.1 767.18 -22.39 763.2 -23.68 759.22 C-24.23 757.51 -24.79 755.8 -25.34 754.08 C-29.82 738.43 -29.82 738.43 -35.77 723.37 C-44.84 721.17 -54.43 720.82 -63.71 720.06 C-104.99 716.45 -145.29 706.84 -183.95 691.98 C-185.77 691.27 -185.77 691.27 -187.77 691.37 Z M354.23 742.37 C353.35 743.11 352.47 743.84 351.56 744.6 C345.38 749.91 339.86 755.5 337.23 763.37 C336.66 771.18 337.75 778.94 338.67 786.68 C340.01 798.58 340.91 810.4 341.23 822.37 C341.27 823.6 341.31 824.82 341.36 826.08 C342.43 885.72 322.85 952.33 291.57 1003.06 C290.06 1005.21 290.06 1005.21 290.23 1007.37 C294.47 1005.9 297.89 1003.69 301.48 1001.06 C302.08 1000.62 302.69 1000.19 303.31 999.74 C316.02 990.47 328.35 980.74 340.52 970.77 C342.8 968.91 345.11 967.08 347.42 965.25 C356.47 958.02 365.22 950.46 373.76 942.63 C375.85 940.72 377.96 938.85 380.11 937 C390.99 927.51 401.31 917.46 411.5 907.23 C413.62 905.11 415.75 902.98 417.88 900.86 C419.25 899.49 420.63 898.11 422 896.73 C422.94 895.8 422.94 895.8 423.89 894.85 C427.64 891.08 431.21 887.19 434.68 883.16 C436.93 880.57 439.27 878.07 441.61 875.56 C446.72 870.01 451.51 864.26 456.23 858.37 C457.14 857.26 458.05 856.16 458.96 855.05 C470.97 840.41 482 824.92 491.23 808.37 C491.91 807.17 491.91 807.17 492.59 805.95 C506.38 781.26 506.38 781.26 507.08 753.7 C505.17 748.47 501.87 745.4 497.23 742.5 C484.65 738.1 470.71 741.07 458.23 744.37 C458.3 743.5 458.37 742.63 458.45 741.73 C460.65 721.5 460.65 721.5 454.11 702.81 C448.78 698.29 442.65 696.79 435.72 697.09 C404.94 700.52 376.99 722.88 354.23 742.37 Z M-170.11 814.56 C-178.77 824.39 -176.9 840.05 -177.31 852.4 C-178.49 883.86 -184.63 914.8 -191.77 945.37 C-191.99 946.3 -192.2 947.23 -192.42 948.19 C-193.52 952.92 -194.64 957.65 -195.77 962.37 C-194.66 962.8 -193.54 963.24 -192.39 963.68 C-175.7 972.22 -162.98 996.37 -153.81 1011.92 C-153.3 1012.76 -152.8 1013.61 -152.28 1014.48 C-151.84 1015.23 -151.4 1015.99 -150.95 1016.76 C-150.56 1017.29 -150.17 1017.82 -149.77 1018.37 C-149.11 1018.37 -148.45 1018.37 -147.77 1018.37 C-147.66 1017.66 -147.55 1016.95 -147.44 1016.22 C-145.12 1001.44 -142.38 986.88 -138.77 972.37 C-138.61 971.71 -138.45 971.05 -138.28 970.38 C-132.29 946.05 -132.29 946.05 -126.77 942.37 C-123.47 941.95 -121.57 941.82 -118.79 943.73 C-115.73 947.73 -114.72 952.12 -113.39 956.93 C-112.95 958.51 -112.95 958.51 -112.49 960.13 C-107.89 976.77 -103.96 993.68 -101.71 1010.81 C-101.23 1015.04 -101.23 1015.04 -98.77 1018.37 C-98.25 1017.6 -97.73 1016.82 -97.2 1016.02 C-66.65 970.41 -66.65 970.41 -55.77 963.37 C-52.76 963 -50.75 962.77 -48.12 964.38 C-45.97 967.54 -46.24 970.87 -46.27 974.56 C-46.27 975.42 -46.28 976.28 -46.28 977.17 C-47.36 1020.18 -62.09 1061.88 -79.62 1100.62 C-80.57 1102.9 -81.21 1104.98 -81.77 1107.37 C-61.75 1109.81 -41.74 1109.68 -21.61 1109.63 C-16.8 1109.62 -11.99 1109.63 -7.19 1109.64 C12.38 1109.68 31.77 1109.6 51.23 1107.37 C50.95 1106.73 50.66 1106.09 50.37 1105.43 C32.04 1064.11 10.57 1013.78 15.23 967.37 C16.86 964.75 16.86 964.75 19.23 963.37 C23.18 962.81 24.73 963 27.98 965.4 C28.94 966.35 29.87 967.32 30.79 968.31 C31.3 968.84 31.82 969.37 32.34 969.92 C44.53 982.93 54.2 998.01 63.88 1012.9 C64.69 1014.14 64.69 1014.14 65.52 1015.4 C66.01 1016.16 66.51 1016.92 67.02 1017.7 C67.42 1018.25 67.82 1018.8 68.23 1019.37 C68.56 1019.37 68.89 1019.37 69.23 1019.37 C69.37 1018.47 69.51 1017.56 69.65 1016.63 C72.24 1000.19 75.03 983.9 79.36 967.81 C79.68 966.6 80 965.39 80.34 964.14 C85.52 945.5 85.52 945.5 89.16 943.1 C92.2 942.03 94.18 942.46 97.23 943.37 C100.54 946.76 101.68 951.07 103.04 955.5 C103.3 956.32 103.55 957.15 103.82 958 C108.91 974.9 112.48 992.15 114.94 1009.63 C115.08 1010.62 115.22 1011.6 115.37 1012.62 C115.49 1013.49 115.61 1014.36 115.73 1015.26 C116.08 1017.57 116.08 1017.57 118.23 1019.37 C118.51 1018.9 118.79 1018.43 119.08 1017.94 C149.3 967.35 149.3 967.35 164.23 962.37 C162.82 953.96 160.92 945.72 158.92 937.43 C151.09 904.54 146.42 871.47 145.71 837.66 C145.64 826.14 145.64 826.14 140.11 816.43 C139.57 815.85 139.03 815.26 138.47 814.66 C138.06 814.23 137.65 813.81 137.23 813.37 C134.79 815.81 134.4 817.65 133.42 820.93 C130.53 829.85 126.21 839.75 117.86 844.81 C113.14 845.82 109.02 846.16 104.54 844.18 C99.79 840.46 96.41 836.44 93.23 831.37 C91.74 833.6 90.57 835.6 89.43 837.99 C89.09 838.68 88.75 839.37 88.41 840.08 C87.71 841.51 87.02 842.95 86.33 844.39 C83.18 850.82 80.26 855.8 73.23 858.37 C68.1 858.94 64.47 858.77 59.96 855.92 C56.97 853.25 54.88 849.97 52.71 846.61 C51.29 844.29 51.29 844.29 49.23 842.37 C48.95 842.9 48.68 843.42 48.39 843.96 C47.12 846.35 45.83 848.74 44.54 851.12 C44.11 851.95 43.67 852.77 43.22 853.62 C40.36 858.89 37.74 862.61 32.23 865.37 C26.05 866.18 21.15 865.71 15.99 862.08 C12.85 859.03 11.02 855.32 9.23 851.37 C8.57 851.37 7.91 851.37 7.23 851.37 C6.79 852.51 6.79 852.51 6.35 853.68 C2.92 862.31 -0.7 871.13 -8.77 876.37 C-14.12 878.16 -18.24 877.98 -23.39 875.93 C-30.68 871.18 -33.74 862.58 -36.69 854.78 C-37.53 852.23 -37.53 852.23 -39.77 851.37 C-40.29 852.13 -40.81 852.89 -41.34 853.67 C-42.04 854.67 -42.74 855.66 -43.46 856.68 C-44.14 857.67 -44.83 858.66 -45.53 859.67 C-48.38 863.11 -50.8 865.02 -55.23 865.8 C-62.52 865.82 -66 864.07 -71.27 858.93 C-75.14 854.08 -77.33 848.03 -79.77 842.37 C-82.03 844.52 -83.84 846.77 -85.64 849.31 C-88.5 853.17 -91.43 856.2 -95.77 858.37 C-100.28 858.92 -103.82 858.82 -107.96 856.87 C-115.85 849.85 -119.59 840.86 -123.77 831.37 C-125.93 834.06 -128.06 836.75 -130.14 839.5 C-133.99 843.7 -136.97 845.11 -142.58 845.93 C-148.11 845.61 -151.99 843.36 -155.77 839.37 C-160.96 831.47 -164.54 822.21 -167.77 813.37 C-168.94 813.26 -168.94 813.26 -170.11 814.56 Z M-309.77 951.37 C-311.27 953.32 -312.68 955.32 -314.1 957.33 C-317.53 961.53 -320.23 962.71 -325.67 963.26 C-328.04 963.39 -330.4 963.39 -332.77 963.37 C-324.25 984.63 -313.68 1004.82 -301.77 1024.37 C-299.66 1021.21 -299.01 1018.86 -298.14 1015.18 C-297.88 1014.1 -297.62 1013.01 -297.36 1011.89 C-297.16 1011.06 -296.97 1010.23 -296.77 1009.37 C-296.44 1009.37 -296.11 1009.37 -295.77 1009.37 C-295.61 1010.31 -295.45 1011.26 -295.29 1012.23 C-293.36 1022.84 -290.86 1033.91 -283.77 1042.37 C-281.9 1043.61 -281.9 1043.61 -279.77 1043.37 C-273.25 1040.2 -271.29 1034.89 -268.77 1028.37 C-266.85 1021.99 -264.77 1015.05 -264.77 1008.37 C-264.11 1008.37 -263.45 1008.37 -262.77 1008.37 C-262.76 1008.91 -262.74 1009.44 -262.73 1010 C-262.09 1020.51 -259.29 1032.94 -252.24 1041.07 C-250.71 1042.54 -250.71 1042.54 -248.21 1043.62 C-244.53 1043.24 -243.29 1042.08 -240.77 1039.37 C-237.38 1033.2 -235.61 1026.62 -234.02 1019.81 C-233.69 1018.44 -233.69 1018.44 -233.35 1017.04 C-232.82 1014.82 -232.29 1012.6 -231.77 1010.37 C-231.44 1010.37 -231.11 1010.37 -230.77 1010.37 C-229.45 1015.65 -228.13 1020.93 -226.77 1026.37 C-224.54 1024.14 -224.04 1022.72 -223.03 1019.76 C-222.53 1018.32 -222.53 1018.32 -222.03 1016.85 C-221.68 1015.81 -221.32 1014.77 -220.96 1013.7 C-220.59 1012.62 -220.23 1011.54 -219.85 1010.43 C-219.07 1008.15 -218.29 1005.86 -217.52 1003.57 C-216.35 1000.11 -215.16 996.65 -213.98 993.19 C-213.22 990.96 -212.47 988.74 -211.71 986.51 C-211.36 985.49 -211.01 984.47 -210.65 983.42 C-205.5 970.53 -205.5 970.53 -205.77 957.37 C-207.62 954.13 -207.62 954.13 -209.77 951.37 C-210.43 951.37 -211.09 951.37 -211.77 951.37 C-213.32 953.58 -214.66 955.88 -216.04 958.21 C-218.55 961.35 -221.11 962.12 -225.02 962.71 C-230.48 962.8 -233.5 962.07 -237.77 958.37 C-239.87 956.11 -241.85 953.79 -243.77 951.37 C-244.16 951.91 -244.55 952.44 -244.96 953 C-245.56 953.78 -246.15 954.56 -246.77 955.37 C-247.82 956.92 -247.82 956.92 -248.89 958.5 C-251.61 961.7 -254.34 962.66 -258.43 963.31 C-262.41 963.42 -265.43 962.52 -268.77 960.37 C-271.02 958.2 -272.89 955.86 -274.77 953.37 C-275.43 952.71 -276.09 952.05 -276.77 951.37 C-277.21 951.99 -277.64 952.6 -278.09 953.23 C-284.46 961.89 -284.46 961.89 -289.77 963.37 C-294.9 963.74 -298.63 962.91 -302.64 959.62 C-305.24 957.13 -307.08 954.56 -308.77 951.37 C-309.1 951.37 -309.43 951.37 -309.77 951.37 Z M92.23 951.37 C81.88 982.9 76.06 1015.2 75.23 1048.37 C74.57 1048.37 73.91 1048.37 73.23 1048.37 C72.96 1047.66 72.68 1046.95 72.4 1046.21 C66.19 1031.12 57.8 1016.57 48.23 1003.37 C47.47 1002.32 46.71 1001.27 45.93 1000.19 C40.92 993.4 35.64 986.84 30.23 980.37 C29.62 979.63 29 978.89 28.37 978.13 C27.01 976.52 25.63 974.94 24.23 973.37 C23.9 973.37 23.57 973.37 23.23 973.37 C19.92 1030.37 49.65 1096.85 81.61 1142.18 C82.19 1143.02 82.19 1143.02 82.8 1143.87 C85.33 1147.37 87.91 1150.6 91.23 1153.37 C94.05 1153.45 95.02 1152.54 97.17 1150.75 C110.54 1136.12 119.45 1117.98 128.23 1100.37 C128.68 1099.48 129.12 1098.59 129.58 1097.67 C148.35 1060.04 164 1016.03 162.23 973.37 C157.96 976.74 154.47 980.22 151.17 984.56 C150.7 985.16 150.24 985.77 149.76 986.39 C148.24 988.38 146.73 990.37 145.23 992.37 C144.45 993.4 144.45 993.4 143.65 994.44 C134.74 1006.18 127.27 1018.44 120.23 1031.37 C119.8 1032.15 119.37 1032.93 118.93 1033.73 C117.78 1035.83 116.63 1037.94 115.48 1040.06 C114.98 1040.99 114.98 1040.99 114.46 1041.93 C112.76 1044.98 112.76 1044.98 112.23 1048.37 C111.57 1048.37 110.91 1048.37 110.23 1048.37 C110.26 1047.49 110.28 1046.61 110.31 1045.7 C110.46 1035.66 109.55 1026.04 108.11 1016.12 C107.99 1015.34 107.88 1014.57 107.77 1013.76 C104.72 992.48 100.22 971.73 93.23 951.37 C92.9 951.37 92.57 951.37 92.23 951.37 Z M179.23 951.37 C175.27 955.45 175.27 955.45 174.25 960.81 C175.92 969.91 178.58 978.59 181.42 987.37 C181.91 988.92 182.41 990.48 182.9 992.03 C186.47 1003.22 190.21 1014.34 194.23 1025.37 C194.89 1025.37 195.55 1025.37 196.23 1025.37 C197.22 1019.76 198.21 1014.15 199.23 1008.37 C199.89 1008.37 200.55 1008.37 201.23 1008.37 C201.23 1009.25 201.23 1009.25 201.24 1010.14 C201.53 1016.62 202.93 1022.53 204.86 1028.68 C205.08 1029.45 205.3 1030.21 205.53 1031 C207.37 1036.56 210.02 1040.47 215.23 1043.37 C217.98 1043.7 217.98 1043.7 220.23 1042.37 C228 1034.84 230.07 1022.42 231.84 1012.2 C232.23 1010.37 232.23 1010.37 233.23 1009.37 C233.58 1011 233.58 1011 233.93 1012.67 C236.86 1028.52 236.86 1028.52 245.29 1041.68 C247.96 1043.59 247.96 1043.59 250.23 1043.18 C254.22 1041.57 256.17 1038.01 258.23 1034.37 C259.89 1030.11 261.09 1025.79 262.23 1021.37 C262.68 1019.64 262.68 1019.64 263.14 1017.87 C263.86 1015.04 264.56 1012.21 265.23 1009.37 C265.56 1009.37 265.89 1009.37 266.23 1009.37 C267.22 1014.32 268.21 1019.27 269.23 1024.37 C272.29 1021.31 273.88 1019.6 275.82 1016.01 C276.29 1015.15 276.76 1014.3 277.24 1013.41 C277.98 1012.03 277.98 1012.03 278.73 1010.62 C279.25 1009.66 279.77 1008.7 280.3 1007.71 C293.85 986.46 293.85 986.46 301.23 963.37 C300.05 963.43 298.88 963.49 297.67 963.56 C291.88 963.54 287.8 961.73 283.42 957.93 C281.56 955.76 280.3 953.99 279.23 951.37 C278.57 951.37 277.91 951.37 277.23 951.37 C276.09 952.77 275.02 954.21 273.98 955.68 C270.3 960.53 267.37 962.91 261.23 963.81 C256.22 963.08 253.26 960.54 249.98 956.81 C248.7 955.02 247.45 953.2 246.23 951.37 C245.57 951.37 244.91 951.37 244.23 951.37 C242.64 953.58 241.27 955.88 239.86 958.21 C237.55 961.27 235.63 962.17 231.86 962.71 C226.11 962.8 222.67 962.39 218.23 958.37 C216.4 956.11 214.83 953.81 213.23 951.37 C212.67 951.93 212.12 952.48 211.54 953.06 C210.78 953.82 210.02 954.58 209.23 955.37 C208.38 956.24 207.54 957.1 206.67 958 C202.96 961.61 200.37 962.98 195.23 963.37 C188.18 962.47 185.39 958.64 181.23 953.37 C180.57 952.71 179.91 952.05 179.23 951.37 Z M-124.77 952.37 C-133.39 981.13 -138.45 1009.38 -141.12 1039.3 C-141.67 1045.16 -141.67 1045.16 -142.77 1047.37 C-143.07 1046.77 -143.37 1046.18 -143.68 1045.56 C-153.85 1025.46 -164.96 1007.06 -179.08 989.49 C-180.75 987.4 -182.39 985.29 -184.03 983.17 C-184.54 982.51 -185.04 981.86 -185.56 981.19 C-186.51 979.97 -187.45 978.74 -188.39 977.52 C-190.68 974.49 -190.68 974.49 -193.77 972.37 C-194.02 980.61 -193.29 988.48 -192.08 996.62 C-191.9 997.84 -191.72 999.07 -191.54 1000.33 C-187.32 1028.08 -180.09 1054.67 -168.77 1080.37 C-168.35 1081.34 -167.92 1082.31 -167.49 1083.31 C-156.85 1107.57 -144.79 1134.35 -125.77 1153.37 C-120.71 1152.88 -117.93 1148.99 -114.77 1145.37 C-112.69 1142.69 -110.81 1139.9 -108.96 1137.06 C-108.44 1136.27 -107.92 1135.48 -107.39 1134.67 C-77.25 1088.07 -53.13 1028.53 -53.77 972.37 C-64.09 982.64 -72.69 993.29 -80.77 1005.37 C-81.27 1006.11 -81.77 1006.86 -82.28 1007.62 C-90.75 1020.37 -97.89 1033.71 -104.77 1047.37 C-105.82 1044.23 -106.08 1041.58 -106.35 1038.28 C-106.45 1037.04 -106.56 1035.79 -106.67 1034.51 C-106.73 1033.85 -106.78 1033.18 -106.84 1032.5 C-109.15 1005.89 -112.4 976.8 -123.77 952.37 C-124.1 952.37 -124.43 952.37 -124.77 952.37 Z M-202.77 984.37 C-203.14 985.48 -203.51 986.58 -203.9 987.72 C-205.64 992.9 -207.39 998.07 -209.14 1003.25 C-209.46 1004.18 -209.78 1005.11 -210.1 1006.07 C-214.41 1018.74 -218.88 1031.32 -223.84 1043.77 C-224.21 1044.71 -224.59 1045.66 -224.98 1046.64 C-225.3 1047.44 -225.63 1048.24 -225.96 1049.07 C-228.68 1056.8 -228.83 1064.12 -225.33 1071.55 C-221.02 1076.59 -213.6 1078.86 -207.58 1081.25 C-206.72 1081.59 -205.87 1081.93 -204.98 1082.28 C-189.78 1088.67 -189.78 1088.67 -173.77 1091.37 C-174.38 1087.79 -175.36 1084.67 -176.77 1081.33 C-177.18 1080.35 -177.59 1079.37 -178.01 1078.36 C-178.44 1077.32 -178.88 1076.27 -179.33 1075.18 C-189.77 1049.51 -196.73 1023.24 -199.78 995.68 C-199.89 994.78 -199.99 993.88 -200.09 992.95 C-200.18 992.16 -200.26 991.37 -200.35 990.56 C-200.8 988.21 -201.61 986.45 -202.77 984.37 Z M170.23 984.37 C170.17 984.97 170.1 985.56 170.03 986.18 C165.9 1023.49 155.98 1057.91 141.23 1092.37 C150.26 1090.29 158.98 1087.59 167.73 1084.56 C169.57 1083.94 169.57 1083.94 171.45 1083.31 C186.11 1078.94 186.11 1078.94 197.23 1069.37 C201.17 1057.89 192.99 1043.77 188.94 1033.03 C187.5 1029.21 186.08 1025.39 184.65 1021.57 C184.36 1020.8 184.07 1020.03 183.78 1019.24 C179.46 1007.66 175.34 996.02 171.23 984.37 C170.9 984.37 170.57 984.37 170.23 984.37 Z M-264.77 1039.37 C-265.74 1040.77 -266.65 1042.22 -267.52 1043.68 C-270.15 1047.73 -272.05 1049.83 -276.77 1051.37 C-280.64 1052.06 -280.64 1052.06 -283.77 1052.37 C-279.06 1062.13 -272.74 1070.59 -266.32 1079.26 C-264.93 1081.15 -263.57 1083.05 -262.22 1084.97 C-261.51 1085.97 -260.81 1086.97 -260.08 1088 C-259.48 1088.85 -258.88 1089.71 -258.26 1090.6 C-257.77 1091.18 -257.28 1091.77 -256.77 1092.37 C-256.11 1092.37 -255.45 1092.37 -254.77 1092.37 C-252.58 1087.89 -250.39 1083.41 -248.21 1078.93 C-247.47 1077.41 -246.73 1075.89 -245.98 1074.38 C-237.22 1059.65 -237.22 1059.65 -234.77 1044.37 C-235.17 1044.79 -235.57 1045.21 -235.98 1045.65 C-239.97 1049.49 -243.04 1051.31 -248.64 1051.52 C-252.15 1051.27 -253.94 1050.51 -256.77 1048.37 C-258.48 1046.06 -260.01 1043.71 -261.47 1041.23 C-261.9 1040.62 -262.33 1040 -262.77 1039.37 C-263.43 1039.37 -264.09 1039.37 -264.77 1039.37 Z M232.23 1039.37 C231.31 1040.6 230.42 1041.86 229.54 1043.12 C226.82 1046.78 224.4 1049.33 220.23 1051.37 C214.98 1052.03 211.68 1051.18 207.23 1048.37 C204.36 1045.68 204.36 1045.68 202.23 1043.37 C204.22 1051.14 207.26 1058.24 210.68 1065.48 C211.54 1067.3 212.38 1069.12 213.23 1070.94 C216.64 1078.23 220.28 1085.35 224.23 1092.37 C228.58 1088.31 231.98 1083.84 235.42 1079 C235.98 1078.21 236.54 1077.42 237.12 1076.61 C240.81 1071.43 244.44 1066.21 247.98 1060.93 C248.4 1060.31 248.82 1059.69 249.25 1059.06 C250.94 1056.5 252.26 1054.29 253.23 1051.37 C251.44 1051.49 251.44 1051.49 249.61 1051.62 C245.04 1051.59 242.73 1050.42 239.23 1047.37 C237.54 1045.29 235.96 1043.18 234.43 1040.98 C234.03 1040.45 233.64 1039.92 233.23 1039.37 C232.9 1039.37 232.57 1039.37 232.23 1039.37 Z M-232.77 1040.37 C-231.77 1042.37 -231.77 1042.37 -231.77 1042.37 Z M-233.77 1042.37 C-232.77 1044.37 -232.77 1044.37 -232.77 1044.37 Z " fill="#000000" transform="translate(630.76953125,84.62890625)"/>
<path d="M0 0 C0.99 0.33 1.98 0.66 3 1 C3.91 3.62 4.64 6.14 5.31 8.81 C8.49 20.4 13.25 29.78 21 39 C21.96 40.25 21.96 40.25 22.94 41.52 C33.66 54.45 51.91 62.9 68.39 64.64 C74.71 65.22 81.04 65.64 87.38 66.06 C124.06 68.55 124.06 68.55 135.38 74.81 C136.04 75.17 136.71 75.52 137.39 75.88 C156.59 86.19 168.64 101.7 175.11 122.57 C180.09 144.63 178.68 167.03 167.38 186.75 C153.61 207.54 136.37 220.82 111.71 226.53 C80.1 232.01 48.73 221.35 22.77 203.82 C-5.25 183.46 -22.07 155.47 -27.66 121.27 C-30.9 99.82 -29.6 78.13 -25 57 C-24.85 56.29 -24.7 55.57 -24.55 54.84 C-20.5 36.05 -12.15 15.1 0 0 Z M-2 21 C-21.48 56.85 -25.96 99.55 -14.94 138.77 C-4.92 169.15 16.82 192.51 45.06 207.06 C48.66 208.8 52.34 210.34 56.06 211.81 C56.76 212.09 57.45 212.37 58.17 212.66 C69.58 216.98 80.64 218.54 92.81 218.44 C94.13 218.43 95.45 218.42 96.8 218.41 C119.87 218.02 136.28 209.5 152.35 193.09 C164.2 179.88 168.18 163.64 168.25 146.38 C168.27 145.15 168.29 143.93 168.31 142.68 C168.36 131.77 166.3 122.62 161.31 112.94 C160.97 112.26 160.62 111.58 160.26 110.87 C152.28 95.7 139.47 84.28 123.12 78.81 C112.26 76 100.97 75.87 89.81 75.5 C63.28 74.61 40.07 69.26 20 51 C19.29 50.39 18.59 49.78 17.86 49.14 C9.58 41.51 3.67 31.15 -1 21 C-1.33 21 -1.66 21 -2 21 Z " fill="#000000" transform="translate(339,436)"/>
<path d="M0 0 C3.5 3.19 5.92 6.76 8.31 10.81 C8.9 11.8 8.9 11.8 9.5 12.82 C31.04 49.85 37.82 95.19 27.09 136.74 C18.81 167.11 -0.5 194.3 -28.03 210.17 C-32.6 212.65 -37.27 214.87 -42 217 C-43.59 217.72 -43.59 217.72 -45.22 218.46 C-60.17 224.95 -74.83 228.4 -91.12 228.38 C-92.31 228.37 -93.49 228.37 -94.71 228.37 C-104.31 228.24 -112.89 226.97 -122 224 C-123.42 223.55 -123.42 223.55 -124.86 223.09 C-143.16 216.52 -159.21 200.16 -167.69 182.88 C-168.49 180.93 -169.26 178.97 -170 177 C-170.47 175.78 -170.93 174.56 -171.41 173.3 C-178.19 154.09 -176.8 131.31 -168.37 112.8 C-167.92 111.87 -167.47 110.95 -167 110 C-166.56 109.08 -166.12 108.15 -165.66 107.2 C-156.99 90.19 -142.97 78.28 -125 72 C-122.38 71.38 -119.85 70.84 -117.2 70.4 C-116.47 70.27 -115.74 70.15 -114.99 70.02 C-105.58 68.5 -96.09 67.96 -86.58 67.34 C-77.92 66.77 -69.34 66.05 -60.78 64.58 C-60.1 64.46 -59.43 64.35 -58.73 64.23 C-47.6 62.18 -37.78 57.04 -29 50 C-28.18 49.36 -27.36 48.71 -26.52 48.05 C-11.24 35.24 -4.62 18.91 0 0 Z M3 22 C2.59 22.89 2.17 23.79 1.75 24.71 C-2 32.64 -6.06 39.46 -12 46 C-12.74 46.83 -13.48 47.66 -14.24 48.52 C-31.71 67.13 -55.9 75.38 -80.97 76.25 C-83.15 76.31 -85.32 76.37 -87.5 76.44 C-114.88 77.15 -114.88 77.15 -139 89 C-139.81 89.64 -140.62 90.27 -141.46 90.93 C-155.18 102.46 -164.59 119.23 -166.3 137.18 C-166.44 140.42 -166.47 143.63 -166.44 146.88 C-166.43 148.02 -166.42 149.16 -166.41 150.34 C-166.24 158.86 -165.45 166.11 -162 174 C-161.74 174.6 -161.47 175.21 -161.2 175.83 C-153.3 193.39 -139.12 207.7 -121.25 215.23 C-111.31 218.64 -101.25 219.56 -90.81 219.5 C-89.55 219.49 -88.28 219.49 -86.98 219.48 C-76.32 219.27 -66.97 217.69 -57 214 C-56.21 213.72 -55.42 213.43 -54.6 213.14 C-24.59 202.13 -1.26 180.91 12.62 152.08 C17.61 140.93 20.27 130.01 22 118 C22.13 117.13 22.27 116.26 22.4 115.37 C26.34 84.37 19.85 49.41 5 22 C4.34 22 3.68 22 3 22 Z " fill="#000000" transform="translate(889,435)"/>
<path d="M0 0 C7.26 3.89 12.19 8.48 15.2 16.29 C16.93 24.98 16.37 32.23 11.95 40.04 C7.63 46.03 2.08 49.34 -5.05 51.04 C-13.65 52.02 -20.37 50.98 -27.74 46.36 C-33.8 40.3 -37.06 33.28 -37.43 24.73 C-37.26 16.71 -34.14 10.43 -28.77 4.55 C-20.84 -2.41 -9.66 -4.16 0 0 Z " fill="#000000" transform="translate(809.0546875,559.95703125)"/>
<path d="M0 0 C6.9 5.1 10.53 12.05 11.94 20.44 C12.48 28.29 9.64 35.2 4.75 41.24 C-1.73 47.75 -8.31 49.29 -17.3 49.32 C-22.86 49.22 -25.68 48.4 -30 45 C-31.03 44.28 -32.06 43.56 -33.12 42.81 C-38.09 38.35 -40.88 33.63 -41.48 26.92 C-41.82 20.06 -42.09 13.25 -37.61 7.64 C-37.08 7.1 -36.55 6.56 -36 6 C-35.4 5.37 -34.79 4.73 -34.17 4.08 C-24.27 -5.39 -12.01 -6.82 0 0 Z " fill="#000000" transform="translate(447,562)"/>
</svg>
