<?xml version="1.0" encoding="UTF-8"?>
<!-- Generator: visioncortex VTracer 0.6.3 -->
<svg version="1.1" xmlns="http://www.w3.org/2000/svg" width="1059" height="1280">
<path d="M0 0 C5.57 5.57 5.25 15.85 5.64 23.34 C6.85 45.88 9.95 62.63 22.08 81.89 C25.31 87.12 28.14 92.56 31 98 C34.84 98.46 34.84 98.46 36.41 96.65 C36.84 96.02 37.26 95.39 37.7 94.74 C38.42 93.69 38.42 93.69 39.16 92.61 C39.66 91.86 40.17 91.1 40.69 90.31 C41.21 89.54 41.74 88.77 42.29 87.98 C43.87 85.66 45.44 83.33 47 81 C59.96 61.85 59.96 61.85 65.56 58.44 C68.83 57.85 70.82 57.94 74 59 C83.38 67.21 86.74 83.46 90.93 94.82 C91.48 96.32 91.48 96.32 92.05 97.85 C92.38 98.75 92.7 99.64 93.04 100.56 C93.92 102.79 94.89 104.89 96 107 C100.84 105.59 103.52 102.68 106.75 99 C107.27 98.42 107.8 97.84 108.34 97.24 C109.9 95.5 111.45 93.75 113 92 C129.08 73.96 129.08 73.96 133 72 C134.99 71.95 134.99 71.95 137.31 72.12 C138.07 72.17 138.83 72.21 139.61 72.26 C143.16 73.36 144.68 75.13 147 78 C147.98 80.58 148.71 82.85 149.31 85.5 C149.56 86.48 149.56 86.48 149.82 87.47 C150.71 91.04 151.19 94.33 151 98 C151.66 98 152.32 98 153 98 C153.18 97.45 153.35 96.91 153.53 96.34 C160.4 75.28 170.02 54.31 184 37 C184.33 37 184.66 37 185 37 C184.59 45.77 183.37 53.86 181 62.31 C180.69 63.43 180.38 64.55 180.07 65.7 C175.21 82.8 168.66 99.15 161.1 115.22 C160.69 116.09 160.29 116.95 159.87 117.84 C159.33 118.97 159.33 118.97 158.78 120.13 C157.87 121.97 157.87 121.97 158 124 C162.41 123.48 164.66 121.99 168 119.12 C169.44 117.91 169.44 117.91 170.9 116.67 C171.94 115.78 172.97 114.89 174 114 C196.42 94.71 196.42 94.71 204 95 C207.25 95.88 207.25 95.88 210 98 C213 104.13 213.64 110.79 214.17 117.5 C214.25 118.47 214.34 119.43 214.42 120.42 C214.69 123.47 214.94 126.52 215.19 129.56 C215.37 131.64 215.54 133.72 215.72 135.8 C216.16 140.86 216.58 145.93 217 151 C224.9 148.11 231.92 144.33 239.12 140 C260.5 127.24 260.5 127.24 268 129 C270.74 131.6 272.89 134.19 273.13 138.06 C273.13 138.89 273.13 139.73 273.13 140.59 C273.14 141.97 273.14 141.97 273.14 143.39 C273.13 144.37 273.13 145.36 273.12 146.38 C273.12 147.38 273.12 148.38 273.12 149.42 C273.08 155.34 272.84 161.15 272.22 167.04 C271.75 173.34 271.93 179.68 272 186 C281.56 184.62 288.36 174.66 294.85 168.04 C305.58 157.08 316.08 146.4 329 138 C329.57 137.63 330.13 137.25 330.71 136.87 C333.77 134.85 336.86 132.89 340 131 C340 135.22 337.83 137.92 335.62 141.38 C335.18 142.09 334.73 142.8 334.26 143.53 C327.99 153.31 320.84 162.41 313 171 C313.66 171.01 314.33 171.03 315.01 171.04 C322.29 171.44 322.29 171.44 326.06 174.44 C329.92 179.53 329.04 183.68 328.31 189.88 C327.2 197.44 325.22 204.88 323.44 212.31 C323.01 214.13 322.58 215.95 322.15 217.77 C321.11 222.18 320.06 226.59 319 231 C320.19 230.76 321.39 230.52 322.62 230.27 C327.09 229.36 331.55 228.47 336.02 227.58 C337.95 227.2 339.88 226.81 341.8 226.42 C344.59 225.85 347.37 225.3 350.15 224.75 C351 224.58 351.85 224.4 352.73 224.22 C366.35 221.56 366.35 221.56 370.85 224 C373.54 226.14 374.91 227.73 376 231 C376.56 237.23 374.89 241.64 372.5 247.25 C372.14 248.11 371.79 248.97 371.42 249.86 C370.3 252.58 369.15 255.29 368 258 C367.62 258.89 367.24 259.78 366.85 260.7 C366.48 261.58 366.11 262.45 365.72 263.36 C365.36 264.21 365 265.06 364.62 265.94 C363.93 267.57 363.23 269.2 362.53 270.82 C362.21 271.56 361.89 272.3 361.57 273.06 C361.15 274.02 361.15 274.02 360.72 275.01 C359.89 277.31 359.46 279.6 359 282 C359.92 281.98 359.92 281.98 360.86 281.96 C367.27 281.83 373.68 281.74 380.09 281.67 C382.48 281.64 384.87 281.6 387.26 281.55 C390.7 281.47 394.14 281.44 397.57 281.41 C398.64 281.38 399.71 281.35 400.81 281.32 C408.07 281.32 408.07 281.32 410.78 283.31 C413.26 286.21 414.89 288.93 415.27 292.71 C414.94 296.75 413.62 299.18 411.62 302.69 C410.69 304.36 410.69 304.36 409.73 306.07 C408.54 308.08 407.29 310.06 406 312 C411.37 310.86 416.66 309.57 421.94 308.1 C429.96 305.87 437.62 304.18 446 304 C442.43 307.79 438.67 310.83 434.31 313.69 C433.67 314.11 433.02 314.54 432.35 314.98 C419.52 323.3 406.13 330.18 392 336 C392 336.99 392 337.98 392 339 C394.87 339.44 397.75 339.88 400.62 340.31 C401.51 340.45 402.4 340.58 403.32 340.72 C408.2 341.46 413.08 342.15 417.98 342.76 C418.95 342.89 419.93 343.01 420.93 343.14 C422.81 343.37 424.69 343.6 426.57 343.82 C432.64 344.59 438.64 345.41 442.94 350.12 C444.48 354.31 445.07 357.62 444 362 C441.77 365.74 438.95 368.82 436 372 C435.19 372.89 434.39 373.78 433.56 374.69 C431.89 376.53 430.21 378.36 428.53 380.19 C424.51 384.65 420.73 389.3 417 394 C416.4 394.7 415.8 395.41 415.18 396.13 C414.79 396.75 414.4 397.36 414 398 C414.33 398.99 414.66 399.98 415 401 C417.65 402.19 417.65 402.19 420.95 403.09 C422.19 403.46 423.43 403.83 424.71 404.22 C426.04 404.6 427.36 404.99 428.69 405.38 C436.38 407.65 444.05 409.95 451.64 412.54 C453.3 413.1 453.3 413.1 454.99 413.68 C458.77 415.34 462.11 417.22 464 421 C464.53 424.87 464.89 427.51 462.86 430.92 C455.31 439.81 445.8 447.38 437 455 C435.5 456.31 434 457.62 432.5 458.94 C431.33 459.96 430.17 460.98 429 462 C429.22 463.95 429.22 463.95 430 466 C431.63 467.23 431.63 467.23 433.73 468.04 C434.53 468.39 435.32 468.74 436.13 469.09 C437 469.46 437.86 469.82 438.75 470.19 C439.63 470.57 440.52 470.96 441.43 471.35 C446.21 473.43 451.03 475.43 455.86 477.41 C456.8 477.8 457.75 478.19 458.72 478.6 C460.54 479.35 462.36 480.09 464.19 480.82 C468.98 482.79 472.24 484.37 475 489 C475 489.66 475 490.32 475 491 C477.31 491.33 479.62 491.66 482 492 C482 492.66 482 493.32 482 494 C481.09 494.37 480.18 494.74 479.25 495.12 C475.86 496.75 475.86 496.75 474.21 499.8 C471.65 503.51 468.98 505.58 465.31 508.12 C464.67 508.59 464.02 509.05 463.36 509.52 C461.25 511.03 459.12 512.52 457 514 C454.69 515.62 452.38 517.24 450.07 518.86 C448.59 519.89 447.12 520.92 445.64 521.94 C442.11 524.4 438.92 526.81 436 530 C437.27 533.8 438.34 534.01 441.82 535.82 C442.82 536.35 443.83 536.88 444.86 537.43 C446.48 538.27 446.48 538.27 448.12 539.12 C450.32 540.29 452.52 541.46 454.71 542.64 C455.79 543.21 456.86 543.78 457.97 544.37 C461.93 546.5 465.86 548.67 469.75 550.94 C470.88 551.59 472.01 552.23 473.17 552.9 C476.39 555.29 478.11 557.48 480 561 C480.31 563.16 480.31 563.16 480 565.06 C479.92 565.69 479.84 566.32 479.75 566.97 C477.33 573.51 471.71 576.28 466 579.56 C464.21 580.61 462.43 581.66 460.64 582.71 C459.72 583.24 458.8 583.78 457.85 584.33 C453.12 587.1 448.44 589.93 443.75 592.75 C442.06 593.77 440.36 594.78 438.67 595.8 C437.96 596.22 437.25 596.65 436.52 597.09 C436.02 597.39 435.52 597.69 435 598 C436.39 602.69 438.54 604.57 442.44 607.44 C442.99 607.85 443.55 608.27 444.12 608.69 C446.07 610.14 448.04 611.57 450 613 C451.64 614.21 453.27 615.41 454.91 616.62 C457.42 618.48 459.94 620.33 462.46 622.18 C474.81 631.22 474.81 631.22 476 635 C476.49 640.29 475.82 643.51 473 648 C470.79 649.49 468.9 650.55 466.5 651.62 C465.5 652.1 465.5 652.1 464.47 652.59 C461.99 653.75 459.5 654.88 457 656 C455.89 656.5 454.78 657.01 453.64 657.53 C449.97 659.2 446.3 660.85 442.62 662.5 C442.02 662.77 441.41 663.05 440.78 663.33 C439.03 664.11 437.29 664.88 435.54 665.66 C434.52 666.11 433.5 666.56 432.45 667.03 C430 668 430 668 428 668 C428 668.66 428 669.32 428 670 C428.68 670.24 429.37 670.47 430.07 670.72 C433.61 672.27 436.67 674.3 439.81 676.5 C440.41 676.9 441.01 677.31 441.62 677.72 C443.12 678.76 444.57 679.87 446 681 C446 681.66 446 682.32 446 683 C443.36 683 440.72 683 438 683 C438.43 683.4 438.86 683.8 439.31 684.22 C442.81 687.48 446.3 690.75 449.77 694.04 C452.24 696.37 454.72 698.65 457.29 700.87 C463.59 706.55 463.59 706.55 464.74 710.66 C464.95 714.73 464.56 717.06 462.45 720.59 C459.31 723.67 456.02 724.88 451.94 726.25 C451.13 726.53 450.33 726.82 449.49 727.11 C446.67 728.09 443.84 729.05 441 730 C439.27 730.59 439.27 730.59 437.5 731.19 C431.48 733.24 425.46 735.28 419.43 737.28 C418.43 737.61 417.43 737.94 416.4 738.28 C414 739 414 739 412 739 C414.05 744.46 416.55 748.25 420.44 752.56 C421.51 753.78 422.58 755.01 423.66 756.23 C424.21 756.85 424.76 757.47 425.32 758.11 C428.06 761.19 430.75 764.31 433.44 767.44 C434.16 768.27 434.16 768.27 434.9 769.12 C444.58 780.32 444.58 780.32 444.47 786.81 C443.74 790.21 443.09 793.2 441 796 C438 797.52 434.88 798.02 431.58 798.58 C430.19 798.86 430.19 798.86 428.76 799.14 C425.78 799.73 422.8 800.27 419.81 800.81 C417.82 801.19 415.83 801.58 413.84 801.97 C411.02 802.51 408.21 803.06 405.39 803.58 C400.2 804.54 395.1 805.67 390 807 C390.45 812.66 392.66 816.07 395.8 820.59 C396.28 821.3 396.76 822.01 397.26 822.74 C398.79 825 400.33 827.25 401.88 829.5 C403.41 831.75 404.94 834 406.47 836.26 C407.42 837.65 408.37 839.05 409.33 840.44 C413.78 846.96 416.89 851.96 416 860 C414.07 863.55 412.8 864.72 408.99 866.07 C404.31 867.3 399.57 867.67 394.76 868.07 C393.8 868.16 392.84 868.24 391.85 868.33 C388.79 868.6 385.74 868.86 382.69 869.12 C380.62 869.31 378.55 869.49 376.47 869.68 C372.7 870.01 368.93 870.34 365.16 870.66 C364.4 870.73 363.64 870.79 362.86 870.86 C361 871 361 871 359 871 C361.17 878.05 364.01 884.51 367.25 891.12 C368.23 893.16 369.21 895.19 370.19 897.23 C371.87 900.69 373.56 904.14 375.28 907.59 C375.91 908.89 376.55 910.2 377.19 911.5 C377.74 912.6 378.29 913.71 378.86 914.84 C380.51 919.41 380.75 923.26 378.81 927.75 C376.36 930.79 374.06 932.77 370.05 933.22 C367.68 933.25 365.34 933.18 362.98 933.07 C362.12 933.05 361.26 933.02 360.38 932.99 C357.65 932.91 354.92 932.8 352.19 932.69 C350.33 932.62 348.48 932.56 346.62 932.5 C342.08 932.35 337.54 932.18 333 932 C333.95 932.73 334.9 933.46 335.87 934.22 C337.14 935.2 338.4 936.18 339.66 937.16 C340.29 937.64 340.91 938.12 341.55 938.62 C362.14 954.67 374.42 980.5 377.71 1006.2 C380.73 1046.35 369.89 1086.57 343.69 1117.69 C341.83 1119.83 339.93 1121.92 338 1124 C337.5 1124.54 337 1125.09 336.49 1125.64 C316.69 1146.94 289.51 1163.28 259.9 1165.2 C256.64 1165.3 253.39 1165.33 250.12 1165.31 C248.41 1165.31 248.41 1165.31 246.66 1165.31 C239.61 1165.23 233.28 1164.74 226.52 1162.66 C223.52 1161.88 221.08 1161.7 218 1162 C215.24 1163.98 213.66 1166.93 211.81 1169.75 C204.63 1180.01 194.81 1186.06 183 1190 C170.9 1191.23 158.73 1191.15 146.57 1191.13 C144.65 1191.13 142.73 1191.13 140.8 1191.14 C136.8 1191.14 132.8 1191.14 128.8 1191.13 C123.7 1191.12 118.6 1191.13 113.5 1191.13 C109.53 1191.14 105.57 1191.14 101.61 1191.13 C99.73 1191.13 97.85 1191.13 95.97 1191.14 C68.63 1191.16 68.63 1191.16 60 1186.56 C58.98 1186.03 58.98 1186.03 57.95 1185.49 C45.63 1178.79 36.81 1168.96 32.56 1155.5 C31.87 1152.41 31.63 1149.34 31.31 1146.19 C30.79 1141.8 30.79 1141.8 28.34 1138.32 C20.06 1133.97 9.9 1134.79 0.81 1134.75 C-0.44 1134.73 -1.69 1134.71 -2.98 1134.69 C-12.23 1134.65 -20.25 1136.08 -29 1139 C-29.14 1140.14 -29.27 1141.27 -29.41 1142.45 C-31.55 1158.47 -36.42 1170.57 -49.38 1180.89 C-63.5 1191.39 -77.64 1191.16 -94.7 1191.13 C-96.08 1191.13 -97.47 1191.14 -98.86 1191.14 C-103.28 1191.14 -107.7 1191.13 -112.12 1191.12 C-113.64 1191.12 -115.16 1191.12 -116.67 1191.12 C-126.78 1191.1 -136.89 1191.06 -147 1191 C-148.66 1190.99 -148.66 1190.99 -150.35 1190.98 C-155.55 1190.95 -160.75 1190.9 -165.94 1190.79 C-167.33 1190.76 -168.72 1190.74 -170.11 1190.73 C-183.7 1190.58 -195.28 1186.3 -205.3 1176.83 C-209.51 1172.24 -212.87 1167.38 -216 1162 C-220.61 1162.45 -225.02 1163 -229.54 1164.02 C-235.53 1165.24 -241.4 1165.34 -247.5 1165.31 C-248.64 1165.31 -249.78 1165.3 -250.96 1165.3 C-266.44 1165.08 -279.99 1162.7 -294 1156 C-294.63 1155.7 -295.26 1155.4 -295.91 1155.09 C-310.05 1148.21 -321.66 1138.79 -333 1128 C-333.71 1127.36 -334.42 1126.71 -335.14 1126.05 C-357.28 1105.26 -369.08 1076.07 -375 1047 C-375.27 1045.71 -375.54 1044.43 -375.81 1043.1 C-380.86 1014.14 -375.6 982.41 -358.94 957.98 C-352.65 949.31 -345.93 941.98 -337.21 935.73 C-336.23 935.03 -335.25 934.33 -334.24 933.6 C-333.5 933.07 -332.76 932.54 -332 932 C-333.22 932.03 -334.43 932.06 -335.68 932.1 C-340.2 932.2 -344.72 932.27 -349.24 932.33 C-351.2 932.36 -353.15 932.4 -355.11 932.45 C-357.92 932.53 -360.73 932.56 -363.54 932.59 C-364.41 932.62 -365.29 932.65 -366.18 932.68 C-372.13 932.68 -372.13 932.68 -374.66 930.69 C-378.3 926.42 -379.36 923.52 -379 918 C-378.03 915.29 -378.03 915.29 -376.66 912.54 C-376.16 911.52 -375.65 910.5 -375.14 909.44 C-374.6 908.37 -374.06 907.29 -373.5 906.19 C-372.4 903.95 -371.3 901.71 -370.2 899.46 C-369.38 897.82 -369.38 897.82 -368.55 896.14 C-366.44 891.86 -364.36 887.56 -362.31 883.25 C-361.99 882.58 -361.66 881.91 -361.32 881.22 C-359.7 877.81 -358.66 874.7 -358 871 C-359.09 870.92 -360.18 870.84 -361.3 870.76 C-365.39 870.45 -369.48 870.14 -373.58 869.83 C-375.34 869.69 -377.1 869.56 -378.86 869.43 C-407.88 867.29 -407.88 867.29 -414 862 C-415.68 858.63 -415.66 855.61 -415 852 C-413.14 847.72 -410.57 843.88 -408 840 C-407.46 839.19 -406.93 838.37 -406.38 837.53 C-403.37 832.99 -400.35 828.47 -397.3 823.95 C-396.2 822.3 -395.1 820.65 -394 819 C-393.49 818.25 -392.98 817.5 -392.46 816.72 C-392 816.02 -391.54 815.33 -391.07 814.61 C-390.67 814.01 -390.27 813.4 -389.85 812.78 C-388.71 810.73 -388.71 810.73 -389 807 C-391.79 806.37 -394.59 805.75 -397.38 805.12 C-399.81 804.58 -402.24 804.03 -404.66 803.48 C-410.77 802.11 -416.87 800.81 -423.03 799.73 C-424.67 799.44 -424.67 799.44 -426.34 799.13 C-428.41 798.76 -430.49 798.41 -432.57 798.09 C-435.22 797.6 -437.54 797.1 -440 796 C-443.02 791.48 -443.66 787.36 -443 782 C-441.45 779.18 -441.45 779.18 -439.25 776.44 C-438.85 775.93 -438.45 775.43 -438.04 774.91 C-434.34 770.27 -430.43 765.79 -426.54 761.3 C-423.03 757.24 -419.62 753.11 -416.31 748.88 C-415.5 747.84 -414.7 746.81 -413.86 745.74 C-412.18 743.26 -411.6 741.84 -411 739 C-411.51 738.85 -412.02 738.7 -412.54 738.55 C-420.7 736.15 -428.78 733.53 -436.86 730.87 C-438.5 730.33 -440.15 729.79 -441.79 729.26 C-444.19 728.49 -446.59 727.7 -448.99 726.91 C-450.08 726.56 -450.08 726.56 -451.2 726.21 C-455.99 724.6 -460.61 722.77 -463 718 C-463.71 714.51 -463.75 711.49 -463 708 C-460.47 704.22 -457.29 701.3 -453.94 698.25 C-452.67 697.03 -452.67 697.03 -451.37 695.79 C-446.71 691.37 -441.91 687.13 -437 683 C-439.64 683 -442.28 683 -445 683 C-443.9 679.7 -443.45 679.34 -440.69 677.52 C-439.69 676.86 -439.69 676.86 -438.68 676.18 C-437.98 675.73 -437.28 675.28 -436.56 674.81 C-435.87 674.35 -435.17 673.89 -434.46 673.41 C-429.27 670 -429.27 670 -427 670 C-427 669.34 -427 668.68 -427 668 C-428.71 667.49 -428.71 667.49 -430.45 666.96 C-437.33 664.66 -443.9 661.63 -450.5 658.64 C-452.75 657.62 -455.01 656.62 -457.27 655.62 C-458.72 654.97 -460.16 654.32 -461.61 653.66 C-462.61 653.22 -462.61 653.22 -463.63 652.78 C-468.46 650.56 -472.57 647.86 -475 643 C-475.53 639.15 -475.85 636.52 -473.93 633.08 C-468.38 626.32 -460.93 621.25 -454 616 C-452.22 614.64 -450.45 613.28 -448.67 611.91 C-447.1 610.7 -445.52 609.49 -443.94 608.29 C-440.9 605.92 -437.95 603.48 -435 601 C-435.36 598.43 -435.65 597.29 -437.68 595.6 C-438.4 595.18 -439.13 594.77 -439.88 594.34 C-440.69 593.86 -441.5 593.38 -442.34 592.89 C-443.22 592.39 -444.09 591.89 -445 591.38 C-445.89 590.85 -446.79 590.33 -447.71 589.79 C-452.1 587.22 -456.51 584.71 -460.93 582.2 C-462.08 581.55 -462.08 581.55 -463.24 580.88 C-464.66 580.07 -466.09 579.26 -467.53 578.47 C-472.85 575.43 -476.96 572.07 -479 566.06 C-479 562.03 -478.47 559.17 -476 556 C-468.49 550.34 -459.86 546.12 -451.56 541.75 C-449.27 540.54 -446.98 539.33 -444.69 538.11 C-443.69 537.58 -442.69 537.06 -441.67 536.51 C-439.28 535.16 -437.15 533.71 -435 532 C-438.39 523.9 -448.57 518.87 -455.56 514 C-470.39 503.66 -470.39 503.66 -474.53 497.86 C-476.59 495.25 -478.85 494.84 -482 494 C-481 492 -481 492 -477.56 490.62 C-473.96 489.43 -473.96 489.43 -473.02 487.03 C-471.75 484.49 -470.74 484.07 -468.17 482.96 C-467.38 482.61 -466.59 482.26 -465.78 481.9 C-464.92 481.54 -464.07 481.18 -463.19 480.81 C-462.31 480.43 -461.43 480.05 -460.53 479.65 C-457.69 478.42 -454.85 477.21 -452 476 C-449.08 474.75 -446.16 473.5 -443.23 472.25 C-441.4 471.47 -439.56 470.69 -437.72 469.92 C-436.88 469.57 -436.05 469.21 -435.18 468.85 C-434.45 468.54 -433.71 468.23 -432.95 467.91 C-430.75 466.94 -430.75 466.94 -428 465 C-428.37 460.45 -431.68 458.15 -434.88 455.31 C-435.46 454.78 -436.04 454.25 -436.65 453.71 C-441.11 449.7 -445.74 445.93 -450.41 442.17 C-462.59 431.95 -462.59 431.95 -463.27 427.05 C-463.31 426.29 -463.34 425.53 -463.38 424.75 C-463.42 424 -463.47 423.25 -463.52 422.48 C-462.73 418.71 -460.99 416.32 -458 414 C-454.42 412.41 -450.73 411.46 -446.94 410.5 C-444.79 409.92 -442.64 409.33 -440.5 408.75 C-439.42 408.46 -438.34 408.17 -437.22 407.87 C-432.29 406.53 -427.39 405.05 -422.5 403.56 C-420.84 403.06 -419.19 402.56 -417.53 402.07 C-415.78 401.54 -415.78 401.54 -414 401 C-414 396.4 -414.6 395.78 -417.44 392.38 C-418.17 391.49 -418.9 390.61 -419.66 389.71 C-422.62 386.29 -425.64 382.93 -428.69 379.59 C-432.62 375.19 -436.33 370.61 -440 366 C-440.57 365.32 -441.14 364.65 -441.73 363.95 C-443.99 360.48 -443.7 356.98 -443 353 C-441.03 349.34 -439.78 347.71 -435.94 346.18 C-426.86 343.69 -417.63 342.53 -408.31 341.31 C-406.63 341.09 -404.94 340.86 -403.26 340.63 C-399.17 340.08 -395.09 339.54 -391 339 C-391 338.01 -391 337.02 -391 336 C-391.93 335.59 -391.93 335.59 -392.89 335.18 C-430.91 318.53 -430.91 318.53 -445 305 C-445 304.67 -445 304.34 -445 304 C-435.15 304.25 -425.91 306.9 -416.44 309.38 C-412.65 310.34 -408.83 311.17 -405 312 C-405.85 310.52 -405.85 310.52 -406.71 309.01 C-407.46 307.71 -408.2 306.42 -408.94 305.12 C-409.31 304.47 -409.68 303.82 -410.07 303.15 C-414.52 295.38 -414.52 295.38 -414 290 C-412.23 286.94 -410.49 284.49 -408 282 C-405.86 281.76 -405.86 281.76 -403.18 281.77 C-402.18 281.77 -401.18 281.77 -400.15 281.77 C-398.53 281.79 -398.53 281.79 -396.87 281.8 C-395.21 281.81 -395.21 281.81 -393.51 281.81 C-389.97 281.82 -386.42 281.85 -382.88 281.88 C-380.48 281.89 -378.08 281.89 -375.68 281.9 C-369.78 281.92 -363.89 281.96 -358 282 C-360.55 273 -363.75 264.56 -367.62 256.06 C-368.6 253.91 -369.57 251.75 -370.54 249.6 C-370.96 248.66 -371.39 247.73 -371.83 246.77 C-374.16 241.26 -376.2 236.01 -375 230 C-373.02 226.48 -370.9 224.3 -367 223 C-356.91 223.05 -347.2 224.95 -337.38 227.06 C-334.74 227.62 -332.1 228.17 -329.46 228.72 C-327.74 229.09 -327.74 229.09 -325.99 229.47 C-322.85 230.12 -322.85 230.12 -319 230 C-318.77 224.47 -319.57 219.8 -320.97 214.47 C-321.17 213.67 -321.37 212.88 -321.57 212.06 C-322.21 209.54 -322.85 207.02 -323.5 204.5 C-324.35 201.18 -325.2 197.86 -326.03 194.53 C-326.33 193.4 -326.33 193.4 -326.63 192.25 C-328.02 186.73 -329.18 181.46 -326.62 176.12 C-325 174 -325 174 -323 173 C-324.34 169.14 -326.03 166.52 -328.69 163.44 C-333.11 158.05 -337.05 152.33 -340 146 C-339.67 145.34 -339.34 144.68 -339 144 C-328.27 149.96 -318.77 157.28 -309.88 165.69 C-298.56 176.3 -285.2 182.98 -270 186 C-270.06 185.27 -270.12 184.53 -270.18 183.78 C-271.21 171.08 -272.2 158.37 -272.38 145.62 C-272.41 144.29 -272.41 144.29 -272.45 142.93 C-272.47 137.45 -271.66 134.35 -268 130 C-265.54 128.12 -264.46 127.96 -261.36 128.21 C-257.17 129.19 -253.82 130.94 -250.06 133 C-248.96 133.6 -248.96 133.6 -247.83 134.2 C-242.12 137.31 -236.53 140.59 -231 143.99 C-223.99 148.53 -223.99 148.53 -216 150 C-215.8 147.88 -215.59 145.77 -215.39 143.65 C-215.21 141.78 -215.03 139.91 -214.85 138.04 C-214.37 133.02 -213.91 128.01 -213.49 122.99 C-213.41 122.02 -213.33 121.05 -213.24 120.05 C-213.08 118.18 -212.93 116.32 -212.79 114.46 C-211.62 100.86 -211.62 100.86 -208.31 97.06 C-204.46 95.29 -201.22 94.28 -197.04 95.64 C-189.74 99.28 -183.8 105.14 -177.73 110.49 C-173.58 114.11 -169.3 117.57 -165 121 C-164.32 121.58 -163.64 122.15 -162.95 122.75 C-160.83 124.36 -160.83 124.36 -157 124 C-158.7 118.41 -160.77 113.17 -163.31 107.91 C-173.4 86.95 -184.68 60.6 -184 37 C-179.79 40.88 -176.83 44.99 -173.88 49.88 C-173.41 50.65 -172.94 51.42 -172.45 52.22 C-152 86.68 -152 86.68 -152 98 C-151.34 98 -150.68 98 -150 98 C-149.96 97.39 -149.93 96.79 -149.89 96.16 C-149.28 88.48 -148.5 80.99 -143.44 74.94 C-139.47 71.78 -137.09 71.5 -132 72 C-126.97 74.37 -123.46 78.51 -119.95 82.7 C-117.7 85.36 -115.36 87.93 -113 90.5 C-109.44 94.4 -105.92 98.34 -102.47 102.34 C-101.99 102.89 -101.5 103.44 -101 104 C-100.52 104.57 -100.05 105.13 -99.56 105.72 C-97.82 107.42 -97.82 107.42 -94 107 C-93.62 105.82 -93.23 104.63 -92.84 103.41 C-90.81 97.35 -88.6 91.35 -86.35 85.37 C-85.87 84.08 -85.39 82.79 -84.91 81.5 C-78.44 63.91 -78.44 63.91 -72.56 58.94 C-69.1 57.67 -67.51 57.81 -64 59 C-58.54 62.79 -54.8 67.61 -51.12 73.06 C-50.36 74.17 -50.36 74.17 -49.58 75.31 C-48.54 76.81 -47.51 78.32 -46.48 79.83 C-45.1 81.86 -43.7 83.88 -42.3 85.89 C-39.5 89.91 -36.71 93.93 -34 98 C-32.68 98 -31.36 98 -30 98 C-29.62 97.26 -29.24 96.52 -28.84 95.76 C-27.7 93.56 -26.57 91.36 -25.43 89.17 C-24.13 86.66 -22.84 84.15 -21.56 81.64 C-16.11 70.98 -16.11 70.98 -13.39 67.03 C-5.91 55.69 -6.4 42.29 -5.5 29.14 C-5.04 22.68 -4.08 16.36 -2.88 10 C-2.7 9.09 -2.53 8.17 -2.36 7.23 C-1.16 1.16 -1.16 1.16 0 0 Z M-69 68 C-72.26 72.5 -74.28 76.84 -76.13 82.07 C-76.4 82.82 -76.68 83.58 -76.96 84.36 C-77.84 86.76 -78.7 89.16 -79.56 91.56 C-80.43 93.97 -81.3 96.37 -82.17 98.78 C-82.71 100.27 -83.25 101.76 -83.78 103.25 C-87.31 112.96 -87.31 112.96 -91.25 115.38 C-95.09 116.25 -97.18 116.15 -101 115 C-106.45 111.1 -110.75 106.18 -115.11 101.15 C-118.26 97.57 -121.54 94.1 -124.81 90.62 C-125.48 89.91 -126.15 89.2 -126.83 88.47 C-130.38 84.7 -130.38 84.7 -134 81 C-136.11 81.32 -136.11 81.32 -138 82 C-138.82 85.19 -139.63 88.37 -140.44 91.56 C-140.67 92.46 -140.9 93.35 -141.13 94.28 C-143.98 105.54 -145.1 115.96 -142.51 127.36 C-141.57 132.19 -141.32 137.1 -141 142 C-142.13 141.09 -143.26 140.17 -144.38 139.25 C-145 138.74 -145.63 138.23 -146.27 137.7 C-148.08 135.92 -149 134.32 -150 132 C-150.78 132.12 -151.55 132.23 -152.35 132.35 C-163.25 133.26 -169.13 128.66 -177 122 C-177.57 121.52 -178.15 121.05 -178.74 120.56 C-181.52 118.25 -184.27 115.92 -187.01 113.57 C-189.69 111.26 -192.38 108.98 -195.12 106.75 C-195.81 106.19 -196.49 105.63 -197.2 105.05 C-197.79 104.7 -198.39 104.36 -199 104 C-200.49 104.5 -200.49 104.5 -202 105 C-203.44 111.27 -204.33 117.47 -204.96 123.86 C-205.04 124.66 -205.12 125.45 -205.21 126.28 C-205.54 129.61 -205.86 132.95 -206.17 136.29 C-206.41 138.75 -206.65 141.21 -206.9 143.67 C-206.97 144.42 -207.03 145.17 -207.1 145.94 C-207.73 151.98 -209.28 156.96 -214 161 C-212.66 162.4 -212.66 162.4 -211.29 163.82 C-190.58 185.58 -160.49 220.13 -157 251 C-161.52 249.58 -163.82 247.48 -167 244 C-167.54 243.44 -168.08 242.88 -168.64 242.3 C-186.02 223.71 -200.86 199.85 -210.75 176.44 C-211.82 173.95 -212.91 171.48 -214 169 C-214.38 168.12 -214.77 167.23 -215.16 166.32 C-219.3 158.61 -227.34 155.78 -234.86 152.1 C-238.01 150.49 -240.95 148.64 -243.94 146.75 C-252.48 140.48 -252.48 140.48 -262.13 138.46 C-262.75 138.64 -263.37 138.81 -264 139 C-264.13 146.28 -263.97 153.49 -263.49 160.75 C-263.44 161.5 -263.39 162.26 -263.34 163.03 C-263.14 166.15 -262.93 169.27 -262.7 172.38 C-262.54 174.69 -262.39 177 -262.24 179.31 C-262.19 180.01 -262.13 180.71 -262.08 181.43 C-261.83 185.47 -262.06 188.42 -264 192 C-266.92 194.43 -268.51 194.99 -272.33 195.07 C-273.48 194.95 -274.63 194.82 -275.81 194.69 C-276.97 194.57 -278.14 194.45 -279.33 194.32 C-280.21 194.22 -281.09 194.11 -282 194 C-278.85 198.38 -275.58 202.52 -271.94 206.5 C-263.3 216.12 -263.3 216.12 -262.69 222 C-262.84 222.99 -262.84 222.99 -263 224 C-281.4 217.11 -299.24 198.63 -311.46 183.6 C-313.16 181.83 -314.76 180.96 -317 180 C-317.66 180.66 -318.32 181.32 -319 182 C-318.53 192.45 -315.1 202.85 -312.39 212.89 C-308.42 228.1 -308.42 228.1 -311.19 234.94 C-313.35 237.4 -314.9 238.01 -318 239 C-326.94 239.32 -336.14 236.72 -344.88 234.94 C-346.96 234.51 -349.05 234.09 -351.13 233.67 C-353.01 233.3 -354.89 232.92 -356.76 232.53 C-359.59 232.07 -362.14 231.89 -365 232 C-367.76 239.47 -361.2 249.59 -358.21 256.46 C-357.72 257.6 -357.22 258.75 -356.71 259.93 C-355.71 262.24 -354.69 264.55 -353.66 266.85 C-349.19 277.1 -349.19 277.1 -350 283 C-351.35 286.19 -352.17 287.6 -355.31 289.12 C-357.99 290 -360.07 290.27 -362.88 290.32 C-363.82 290.34 -364.76 290.36 -365.73 290.38 C-366.73 290.39 -367.74 290.4 -368.77 290.41 C-370.32 290.44 -370.32 290.44 -371.91 290.47 C-375.21 290.53 -378.51 290.58 -381.81 290.62 C-384.05 290.66 -386.3 290.7 -388.54 290.74 C-394.02 290.84 -399.51 290.92 -405 291 C-404.5 294.6 -404.01 297.54 -402.11 300.66 C-401.73 301.29 -401.35 301.92 -400.96 302.57 C-400.56 303.2 -400.16 303.84 -399.75 304.5 C-399.37 305.14 -398.98 305.78 -398.59 306.43 C-391.03 318.8 -380.66 323.74 -368.04 329.99 C-349.25 339.31 -349.25 339.31 -343 346 C-343 346.33 -343 346.66 -343 347 C-350.53 348.84 -356.86 346.69 -364.11 344.56 C-366.95 343.72 -369.82 342.94 -372.69 342.19 C-373.62 341.93 -374.55 341.68 -375.51 341.42 C-378.24 340.96 -379.48 340.87 -382 342 C-382.99 343.2 -382.99 343.2 -384 344.43 C-388.12 347.96 -391.74 348.28 -397.01 348.98 C-397.97 349.13 -398.93 349.28 -399.92 349.43 C-402.99 349.89 -406.06 350.32 -409.12 350.75 C-412.2 351.2 -415.27 351.66 -418.35 352.12 C-420.26 352.4 -422.17 352.68 -424.08 352.95 C-424.94 353.07 -425.81 353.2 -426.7 353.32 C-427.46 353.43 -428.22 353.54 -429 353.65 C-431.2 353.98 -431.2 353.98 -434 355 C-433.48 359.38 -432.03 361.61 -429.19 364.94 C-428.38 365.89 -427.57 366.85 -426.74 367.83 C-425.83 368.89 -424.91 369.94 -424 371 C-422.99 372.17 -421.99 373.34 -420.98 374.51 C-420.47 375.11 -419.96 375.7 -419.43 376.31 C-417.4 378.68 -415.38 381.05 -413.36 383.42 C-412.16 384.82 -410.92 386.2 -409.68 387.57 C-405.9 391.96 -404.22 395 -404.36 400.86 C-405.31 404.04 -406.63 405.67 -409 408 C-411.71 409.19 -414.18 410.1 -417 410.94 C-418.17 411.31 -418.17 411.31 -419.37 411.68 C-421.91 412.48 -424.45 413.24 -427 414 C-427.89 414.26 -428.77 414.53 -429.69 414.8 C-430.58 415.07 -431.47 415.34 -432.39 415.61 C-433.71 416.01 -433.71 416.01 -435.07 416.41 C-436.77 416.92 -438.48 417.42 -440.19 417.91 C-444.97 419.3 -449.46 420.94 -454 423 C-453.84 426.74 -452.72 428.56 -450.12 431.09 C-448.9 432.19 -447.68 433.29 -446.44 434.38 C-445.8 434.95 -445.16 435.53 -444.5 436.12 C-442.68 437.76 -440.84 439.38 -439 441 C-437.83 442.03 -437.83 442.03 -436.64 443.09 C-433.9 445.49 -431.14 447.88 -428.37 450.24 C-427.01 451.42 -427.01 451.42 -425.62 452.62 C-424.79 453.34 -423.96 454.05 -423.1 454.79 C-420.86 457.15 -419.9 458.9 -419 462 C-419.21 466.99 -420.5 469.49 -424 473 C-427.7 475.15 -431.55 476.92 -435.44 478.69 C-436.47 479.17 -437.51 479.66 -438.58 480.16 C-443.01 482.22 -447.45 484.21 -452 486 C-452 486.33 -452 486.66 -452 487 C-451.42 487 -450.83 486.99 -450.23 486.99 C-444.05 486.94 -437.86 486.91 -431.68 486.89 C-429.39 486.88 -427.09 486.87 -424.8 486.85 C-383.65 486.54 -383.65 486.54 -373 492 C-372.01 493.49 -372.01 493.49 -371 495 C-379.82 497.29 -388.35 498.63 -397.44 499.19 C-398.66 499.27 -399.87 499.35 -401.13 499.43 C-420.79 500.63 -440.34 499.89 -460 499 C-455.87 502.35 -451.63 505.56 -447.38 508.75 C-446.67 509.28 -445.97 509.81 -445.25 510.35 C-442.06 512.75 -438.86 515.12 -435.58 517.39 C-434.12 518.4 -434.12 518.4 -432.62 519.44 C-431.77 520.01 -430.92 520.59 -430.04 521.18 C-427.64 523.32 -426.87 524.93 -426 528 C-426.08 532.24 -426.37 534.29 -429.21 537.49 C-431.91 539.92 -434.51 541.76 -437.62 543.62 C-438.75 544.3 -439.88 544.98 -441.04 545.68 C-443.98 547.41 -446.94 549.12 -449.9 550.82 C-451.16 551.55 -451.16 551.55 -452.45 552.29 C-454.12 553.25 -455.79 554.2 -457.46 555.14 C-461.59 557.5 -465.39 559.88 -469 563 C-467.69 566.04 -466.56 567.62 -463.75 569.38 C-462.76 570.01 -462.76 570.01 -461.74 570.65 C-461.02 571.1 -460.3 571.54 -459.56 572 C-458.82 572.47 -458.07 572.94 -457.31 573.43 C-454.02 575.5 -450.72 577.55 -447.42 579.6 C-445.7 580.67 -443.98 581.74 -442.26 582.81 C-440.62 583.83 -438.98 584.85 -437.33 585.85 C-427.1 592.21 -427.1 592.21 -425.06 597.38 C-424.97 601.09 -425.11 603.79 -427 607 C-430.34 610.41 -434.15 613.2 -438 616 C-439.05 616.76 -439.05 616.76 -440.12 617.54 C-443.21 619.79 -446.31 622.02 -449.41 624.25 C-453.69 627.32 -457.96 630.4 -462.12 633.62 C-462.89 634.22 -463.66 634.81 -464.45 635.41 C-466.35 636.99 -466.35 636.99 -466 640 C-452.93 647.03 -439.69 653.6 -426.26 659.92 C-424.79 660.62 -423.34 661.36 -421.91 662.15 C-418.75 663.56 -416.3 662.75 -413 662 C-410.65 660.92 -408.44 659.81 -406.19 658.56 C-391.75 651 -376.16 645.12 -360.44 640.88 C-359.71 640.67 -358.98 640.47 -358.23 640.27 C-353.06 638.98 -348.32 638.84 -343 639 C-345.45 644.71 -350.05 646.77 -355.25 649.62 C-356.18 650.14 -357.11 650.66 -358.07 651.2 C-372.19 658.97 -386.51 665.94 -401.75 671.25 C-415.18 675.96 -424.34 682.86 -434.51 692.59 C-436.57 694.54 -438.72 696.39 -440.88 698.25 C-446.12 702.89 -450.93 707.66 -454 714 C-446.14 718.3 -438 721.21 -429.5 724 C-406.57 731.53 -406.57 731.53 -403.78 735.93 C-402.44 739.5 -402.02 742.34 -403 746 C-405.21 749.44 -407.85 752.42 -410.59 755.44 C-413.09 758.21 -415.51 761.05 -417.94 763.88 C-418.69 764.75 -418.69 764.75 -419.46 765.64 C-424.56 771.57 -429.31 777.75 -434 784 C-433.67 784.66 -433.34 785.32 -433 786 C-431.84 784.89 -431.84 784.89 -430.65 783.76 C-413.8 767.87 -395.16 754.4 -375 743 C-374.22 742.56 -373.43 742.11 -372.62 741.66 C-370.11 740.25 -367.59 738.87 -365.06 737.5 C-364.28 737.07 -363.5 736.63 -362.7 736.19 C-357.7 733.53 -353.66 732.36 -348 732 C-354.85 744.76 -367.53 752.98 -378.92 761.46 C-380.23 762.43 -381.54 763.41 -382.84 764.39 C-391.75 771.12 -401.1 776.63 -410.94 781.9 C-413.84 783.45 -416.73 785.04 -419.62 786.62 C-421.08 787.42 -422.54 788.21 -424 789 C-420.61 791.26 -417.58 791.87 -413.66 792.62 C-412.19 792.92 -410.72 793.22 -409.25 793.52 C-406.94 793.98 -404.62 794.44 -402.31 794.89 C-400.07 795.34 -397.84 795.79 -395.6 796.25 C-394.91 796.38 -394.23 796.51 -393.52 796.64 C-389.49 797.47 -386.33 798.55 -383 801 C-380.26 805.28 -379.8 806.88 -380.69 811.94 C-385.1 823.04 -392.98 833.14 -399.69 842.95 C-404.39 849.11 -404.39 849.11 -405.67 856.3 C-403.03 858.99 -399.89 858.87 -396.31 859.12 C-395.53 859.2 -394.74 859.27 -393.94 859.35 C-390.31 859.68 -386.69 859.95 -383.06 860.23 C-381.04 860.38 -379.02 860.54 -377 860.7 C-375.05 860.85 -373.1 861 -371.15 861.13 C-356.54 862.25 -356.54 862.25 -351.24 866.37 C-349.06 869.24 -349.57 872.59 -350 876 C-351.07 879.37 -351.07 879.37 -352.69 882.88 C-352.98 883.53 -353.28 884.18 -353.58 884.85 C-355.73 889.51 -358.04 894.1 -360.36 898.68 C-360.95 899.85 -361.54 901.01 -362.14 902.21 C-363.33 904.55 -364.53 906.88 -365.73 909.21 C-366.28 910.29 -366.83 911.37 -367.4 912.48 C-367.9 913.45 -368.4 914.42 -368.92 915.41 C-370.26 918.15 -370.26 918.15 -370 922 C-366.76 922.96 -363.83 923.13 -360.46 923.15 C-359.34 923.15 -358.23 923.16 -357.09 923.16 C-355.89 923.17 -354.69 923.17 -353.46 923.17 C-352.22 923.17 -350.98 923.17 -349.71 923.18 C-347.08 923.18 -344.46 923.19 -341.84 923.19 C-339.16 923.19 -336.49 923.19 -333.81 923.21 C-329.94 923.22 -326.08 923.23 -322.21 923.23 C-321.02 923.24 -319.83 923.24 -318.61 923.25 C-312.81 923.24 -307.47 922.96 -301.85 921.48 C-297.99 920.48 -293.97 920.21 -290.02 919.76 C-285.5 918.62 -282.89 916.25 -280.21 912.47 C-279.68 911.54 -279.14 910.6 -278.58 909.63 C-277.67 908.07 -277.67 908.07 -276.74 906.47 C-276.1 905.37 -275.47 904.26 -274.81 903.12 C-269.28 893.71 -263.63 884.68 -257 876 C-256.56 875.41 -256.11 874.82 -255.66 874.22 C-240.27 853.83 -240.27 853.83 -232 851 C-232 852.65 -232 854.3 -232 856 C-231.67 856 -231.34 856 -231 856 C-227.38 839.39 -223.76 822.78 -220.15 806.16 C-218.47 798.45 -216.8 790.73 -215.11 783.02 C-213.65 776.29 -212.18 769.56 -210.72 762.83 C-209.95 759.28 -209.17 755.72 -208.4 752.16 C-207.53 748.17 -206.66 744.19 -205.8 740.2 C-205.54 739.04 -205.29 737.88 -205.03 736.68 C-203.85 731.25 -202.73 725.81 -201.71 720.36 C-201.52 719.39 -201.34 718.43 -201.15 717.44 C-200.74 714.76 -200.74 714.76 -202.92 712.11 C-203.94 711.42 -204.95 710.72 -206 710 C-207.14 709.08 -208.27 708.16 -209.39 707.23 C-210.68 706.22 -211.96 705.2 -213.25 704.19 C-220.23 698.62 -226.75 692.69 -233.15 686.47 C-235.07 684.61 -237.02 682.79 -239 681 C-239.86 680.22 -239.86 680.22 -240.73 679.42 C-244.6 676.26 -247.78 675.2 -252.79 675.51 C-256.72 676.39 -259.3 678.61 -262.31 681.19 C-263.7 682.3 -265.1 683.4 -266.5 684.5 C-267.23 685.08 -267.96 685.66 -268.71 686.25 C-308.94 717 -308.94 717 -327 717 C-317.68 705.95 -307.51 696.67 -296 688 C-295.39 687.53 -294.78 687.07 -294.15 686.59 C-287.35 681.41 -280.46 676.52 -273.12 672.12 C-272.5 671.75 -271.88 671.38 -271.23 670.99 C-267.79 668.96 -264.3 667.2 -260.69 665.5 C-258.23 664.17 -257.23 663.62 -256.26 660.98 C-256 659.44 -255.77 657.89 -255.58 656.34 C-254.68 652.69 -252.42 650.57 -249.85 647.92 C-247.74 645.73 -245.88 643.4 -244 641 C-244.53 640.71 -245.06 640.43 -245.6 640.13 C-248.01 638.82 -250.41 637.5 -252.81 636.19 C-253.65 635.74 -254.48 635.28 -255.34 634.82 C-256.14 634.38 -256.94 633.94 -257.77 633.48 C-258.88 632.88 -258.88 632.88 -260.01 632.26 C-263.3 630.18 -264.76 628.73 -266 625 C-266.56 619.26 -266.56 619.26 -266 617 C-262.47 612.97 -258.29 609.61 -254.19 606.19 C-253.59 605.69 -252.99 605.18 -252.38 604.67 C-250.92 603.44 -249.46 602.22 -248 601 C-251.8 596.81 -256.26 594.18 -261.04 591.27 C-264.1 589.36 -265.97 588.04 -268 585 C-268.37 582.91 -268.37 582.91 -268.44 580.62 C-268.48 579.87 -268.52 579.12 -268.56 578.35 C-267.15 572.42 -260.57 569.21 -255.69 566.19 C-255.04 565.78 -254.4 565.37 -253.73 564.96 C-252.16 563.96 -250.58 562.98 -249 562 C-252.99 557.88 -257.23 554.42 -261.79 550.96 C-264.63 548.44 -265.89 546.62 -266.15 542.82 C-266.05 541.7 -266.05 541.7 -265.94 540.56 C-265.88 539.82 -265.83 539.08 -265.78 538.32 C-264.45 534.37 -261.75 532.01 -258.18 529.95 C-256.21 528.97 -254.21 528.07 -252.19 527.19 C-251.49 526.88 -250.8 526.56 -250.09 526.24 C-248.4 525.49 -246.7 524.74 -245 524 C-247.71 520.65 -250.2 517.63 -253.62 515 C-258.22 511.17 -260.13 506.89 -261 501 C-266.26 500.27 -271.35 499.86 -276.66 499.79 C-278.12 499.76 -279.58 499.74 -281.03 499.71 C-281.78 499.7 -282.53 499.68 -283.31 499.67 C-294.47 499.46 -305.55 499.15 -316.62 497.62 C-317.46 497.51 -318.3 497.4 -319.16 497.28 C-324.66 496.43 -329.78 494.91 -335 493 C-331.19 492.18 -327.38 491.37 -323.56 490.56 C-321.96 490.22 -321.96 490.22 -320.32 489.87 C-319.27 489.64 -318.21 489.42 -317.13 489.19 C-316.17 488.99 -315.21 488.78 -314.22 488.57 C-305.09 486.95 -296.16 486.87 -286.9 486.9 C-285.46 486.9 -284.01 486.91 -282.57 486.91 C-278.8 486.91 -275.02 486.92 -271.25 486.93 C-267.39 486.94 -263.53 486.95 -259.67 486.95 C-252.11 486.96 -244.56 486.98 -237 487 C-239.11 483.37 -241.35 480.46 -244.19 477.38 C-247.98 472.71 -249.02 469.4 -248.52 463.42 C-247.76 459.88 -246.88 458.23 -244 456 C-241.21 455.04 -238.89 454.46 -236 454 C-234.87 453.82 -233.75 453.63 -232.59 453.44 C-229.4 452.94 -226.2 452.46 -223 452 C-223.58 450.97 -223.58 450.97 -224.17 449.91 C-233 433.98 -233 433.98 -233 428.75 C-231.6 424.91 -229.72 421.86 -226 420 C-224.41 419.85 -222.81 419.75 -221.21 419.68 C-220.27 419.64 -219.33 419.6 -218.36 419.56 C-217.37 419.52 -216.39 419.48 -215.38 419.44 C-214.38 419.39 -213.39 419.35 -212.37 419.31 C-209.91 419.2 -207.46 419.1 -205 419 C-206.46 414.41 -207.97 410.8 -211 407 C-214.71 405.2 -218.48 404.42 -222.5 403.56 C-253.37 396.27 -284.91 381.33 -310 362 C-280.18 364.82 -240.34 377.45 -216.92 396.71 C-216.29 397.14 -215.65 397.56 -215 398 C-214.01 397.67 -213.02 397.34 -212 397 C-211.32 395.58 -211.32 395.58 -210.62 394.12 C-208.75 390.52 -207.74 389.5 -204 388 C-196.61 387.33 -189.29 388.85 -182 390 C-182.43 387.77 -182.87 385.54 -183.31 383.31 C-183.56 382.07 -183.8 380.83 -184.05 379.55 C-186.03 372.13 -190.8 368.04 -196.17 362.9 C-199.68 359.5 -202.44 356.17 -205 352 C-202.58 352.96 -200.17 353.91 -197.75 354.88 C-197.07 355.14 -196.39 355.41 -195.68 355.69 C-192.97 356.77 -190.3 357.84 -187.71 359.18 C-185.12 360.42 -182.82 360.18 -180 360 C-179.34 359.67 -178.68 359.34 -178 359 C-172.31 358.6 -167.86 359.71 -162.56 361.5 C-161.83 361.74 -161.1 361.98 -160.35 362.22 C-158.56 362.81 -156.78 363.4 -155 364 C-154.99 363.05 -154.99 363.05 -154.97 362.08 C-154.92 359.17 -154.83 356.28 -154.75 353.38 C-154.74 352.38 -154.72 351.38 -154.71 350.35 C-154.51 344.34 -154.12 340.52 -150 336 C-144.47 334.01 -140.57 335.56 -135.44 337.81 C-132.2 339.39 -129.12 341.18 -126 343 C-125.34 343 -124.68 343 -124 343 C-123.44 340.02 -122.9 337.05 -122.38 334.06 C-122.22 333.23 -122.06 332.4 -121.89 331.54 C-120.11 321.17 -123.25 313.77 -127.88 304.56 C-131.22 297.81 -134.3 291.04 -137 284 C-136.67 283.67 -136.34 283.34 -136 283 C-127.19 290.21 -119.76 298.54 -112.94 307.62 C-107.02 315.48 -100.51 322.9 -92 328 C-91.01 327.67 -90.02 327.34 -89 327 C-88.22 324.58 -87.6 322.29 -87.06 319.81 C-85.63 313.23 -83.89 307.93 -78 304 C-73.69 303.18 -71.2 304.23 -67.62 306.5 C-62.92 309.84 -58.93 313.78 -55 318 C-51.89 316.44 -51.67 313.89 -50.5 310.69 C-48.13 304.23 -48.13 304.23 -46.86 301.96 C-43.53 294.36 -46.26 282.87 -47.21 274.78 C-48.4 264.22 -48.66 253.61 -49 243 C-48.34 243 -47.68 243 -47 243 C-46.61 244.18 -46.21 245.37 -45.8 246.59 C-44.44 250.69 -43.07 254.78 -41.7 258.88 C-41.06 260.78 -40.42 262.68 -39.79 264.59 C-39.34 265.92 -38.9 267.25 -38.45 268.58 C-35.92 276.13 -33.46 283.68 -31.19 291.31 C-28.57 299.8 -24.91 306.41 -19 313 C-14.85 311.62 -13.94 308.78 -12 305.12 C-7.65 297.03 -7.65 297.03 -5 295 C-0.7 293.76 1.35 293.71 5.46 295.55 C9.48 297.98 11.25 301.01 13.31 305.12 C15.71 309.87 15.71 309.87 19 314 C29.74 301.19 34.07 286.8 38.59 270.99 C44.52 250.27 44.52 250.27 48 244 C48.66 243.67 49.32 243.34 50 243 C49.74 248.12 49.47 253.25 49.2 258.37 C49.11 260.11 49.02 261.85 48.93 263.59 C48.8 266.1 48.67 268.61 48.54 271.12 C48.5 271.89 48.46 272.66 48.42 273.45 C48.15 278.34 47.65 283.15 47 288 C46.18 297.03 47.8 303.03 52 311 C52.62 312.39 53.23 313.78 53.81 315.19 C54.2 316.12 54.6 317.04 55 318 C55.99 317.15 56.98 316.31 58 315.44 C58.64 314.9 59.28 314.35 59.94 313.8 C61.32 312.59 62.68 311.35 64 310.08 C67.19 307.06 69.37 305.19 73.62 303.88 C77.73 304.03 79.68 304.56 83 307 C87.27 312.77 88.49 320.14 90 327 C97.06 327 101.94 321.14 106.88 316.44 C110.22 313.02 113.11 309.31 116 305.5 C122.53 296.9 130.24 289.48 138 282 C134.66 292.23 130.83 301.96 125.98 311.58 C122.03 319.55 121.9 325.21 123.44 333.88 C123.59 334.75 123.73 335.63 123.88 336.54 C124.25 338.69 124.62 340.85 125 343 C129.3 341.69 133.01 339.99 136.94 337.81 C143.45 334.51 143.45 334.51 147 334.88 C150.97 336.36 153.11 338.22 155 342 C155.15 343.67 155.25 345.34 155.32 347.01 C155.36 347.99 155.4 348.98 155.44 350 C155.48 351.03 155.52 352.06 155.56 353.12 C155.63 354.69 155.63 354.69 155.69 356.28 C155.8 358.85 155.9 361.43 156 364 C156.98 363.63 157.96 363.25 158.97 362.87 C166.13 360.31 171.8 358.6 179.5 359.62 C187.5 360.59 192.77 358.09 199.73 354.57 C203 353 203 353 206 353 C204.82 354.13 204.82 354.13 203.62 355.27 C193.6 364.97 185.8 373.85 183 388 C183.33 388.66 183.66 389.32 184 390 C184.85 389.86 185.69 389.71 186.56 389.56 C202.36 386.98 202.36 386.98 207.75 389.06 C210.8 391.69 212.18 394.42 214 398 C217.42 396.72 220.42 395.23 223.5 393.28 C239.51 383.52 257.17 375.77 275 370 C275.71 369.77 276.41 369.54 277.14 369.3 C288.26 365.72 299.55 363.25 311 361 C307.07 365.3 302.86 368.21 297.88 371.19 C297.08 371.66 296.29 372.14 295.47 372.63 C271.65 386.78 244.67 400.58 217.06 405.06 C213.79 405.64 213.13 405.88 210.56 408.25 C207.32 413.32 207.32 413.32 206 419 C207.15 419.04 208.29 419.07 209.47 419.11 C211 419.18 212.53 419.25 214.06 419.31 C214.81 419.34 215.57 419.36 216.34 419.38 C222.26 419.66 227.33 420.67 231.94 424.69 C233.5 428.1 233.48 431.34 233 435 C231.95 437.81 230.53 440.31 229 442.88 C226.16 447.18 226.16 447.18 225 452 C226.16 452.17 227.32 452.34 228.51 452.52 C230.05 452.76 231.59 453 233.12 453.25 C234.27 453.41 234.27 453.41 235.43 453.58 C240.57 454.42 243.92 455.72 248 459 C249.93 462.86 249.81 466.82 249 471 C247.24 474.07 245.27 476.71 243.04 479.46 C241.1 481.88 239.57 484.33 238 487 C239.11 486.99 239.11 486.99 240.24 486.98 C247.31 486.92 254.38 486.87 261.45 486.84 C265.08 486.83 268.72 486.81 272.35 486.77 C293.78 486.57 315.29 486.72 336 493 C332.08 495.42 327.85 495.86 323.38 496.56 C322.62 496.69 321.86 496.81 321.08 496.94 C308.96 498.9 296.9 499.27 284.66 499.55 C276.73 499.74 268.87 499.93 261 501 C260.98 501.65 260.96 502.29 260.94 502.95 C260.61 508.91 258.41 512.04 254.21 516 C251.52 518.39 248.79 520.72 246 523 C249.28 526.28 253.9 527.81 258.15 529.64 C261.9 531.4 264.26 532.69 265.97 536.57 C267.03 540.09 267.63 542.38 267 546 C263.54 549.8 259.65 553.06 255.69 556.31 C255.14 556.77 254.59 557.22 254.02 557.69 C252.68 558.8 251.34 559.9 250 561 C252.45 563.79 255.07 565.17 258.38 566.81 C263.16 569.39 266.26 571.27 269 576 C269.75 579.77 269.48 582.95 267.87 586.49 C265.5 589.67 262.99 591.14 259.56 593.12 C255.89 595.27 252.34 597.36 249 600 C255.95 606.31 255.95 606.31 263.06 612.44 C266.69 615.6 266.91 615.98 267.31 620.75 C267.57 625.17 265.79 627.65 263 631 C260.05 633.07 256.94 634.72 253.75 636.38 C252.91 636.82 252.07 637.27 251.2 637.74 C249.14 638.84 247.07 639.93 245 641 C245.75 641.75 246.5 642.49 247.27 643.26 C257.15 653.17 257.15 653.17 257.81 658.06 C258.54 661.85 260 663.16 263.12 665.38 C265.07 666.61 267.03 667.82 269 669 C271.55 670.55 274.09 672.12 276.62 673.69 C277.31 674.11 277.99 674.53 278.69 674.96 C295.77 685.63 316.67 700.01 328 717 C320.95 715.09 314.45 712.61 307.88 709.44 C306.51 708.78 306.51 708.78 305.11 708.11 C288.14 699.78 272.67 688.71 257.71 677.21 C255.36 675.55 253.9 674.93 251 675 C240.42 677.23 232.89 687.05 225.62 694.5 C220.98 699.21 216.04 703.3 210.77 707.3 C206.05 710.8 206.05 710.8 202 715 C201.86 717.68 201.86 717.68 202.6 720.52 C202.82 721.58 203.04 722.65 203.26 723.75 C203.51 724.82 203.75 725.89 204 727 C204.2 727.95 204.39 728.91 204.59 729.89 C205.19 732.83 205.83 735.76 206.47 738.7 C206.83 740.35 206.83 740.35 207.2 742.03 C207.98 745.63 208.77 749.24 209.56 752.84 C210.11 755.36 210.66 757.89 211.21 760.42 C212.51 766.38 213.81 772.33 215.11 778.29 C216.72 785.69 218.34 793.08 219.95 800.48 C221.6 808.05 223.25 815.62 224.9 823.19 C227.29 834.12 229.67 845.05 232 856 C232.33 856 232.66 856 233 856 C233 854.35 233 852.7 233 851 C251.05 859.25 264.36 883.21 273.86 899.99 C274.34 900.84 274.82 901.69 275.32 902.57 C276.25 904.23 277.17 905.89 278.07 907.57 C278.5 908.33 278.92 909.1 279.36 909.88 C279.73 910.56 280.09 911.23 280.47 911.93 C285.17 918.29 289.97 920.03 297.52 921.29 C298.47 921.45 299.42 921.62 300.4 921.79 C312.14 923.61 323.94 923.53 335.79 923.41 C339.68 923.37 343.57 923.37 347.46 923.37 C349.95 923.36 352.43 923.35 354.91 923.34 C356.07 923.33 357.23 923.33 358.42 923.33 C360.03 923.31 360.03 923.31 361.66 923.29 C362.6 923.28 363.54 923.28 364.5 923.27 C367.11 922.99 368.76 922.32 371 921 C366.51 909.51 361.41 898.38 356 887.29 C355.5 886.26 354.99 885.23 354.48 884.16 C354.02 883.24 353.57 882.32 353.1 881.37 C350.69 876.2 350.06 871.65 352 866.19 C356.34 861.44 364.5 861.62 370.63 861.22 C371.42 861.16 372.22 861.1 373.03 861.04 C376.39 860.79 379.75 860.56 383.1 860.32 C385.57 860.15 388.04 859.96 390.5 859.78 C391.25 859.73 392 859.68 392.77 859.63 C397.42 859.28 401.62 858.65 406 857 C407.37 854.02 407.37 854.02 405.8 851.31 C400.61 842.4 394.95 833.9 389.05 825.45 C387.04 822.54 385.06 819.62 383.14 816.66 C382.53 815.73 382.53 815.73 381.92 814.79 C380.36 811.75 380.5 809.31 381 806 C381.99 802.97 382.99 801.53 385.83 800.03 C393.71 796.8 401.84 795.03 410.12 793.25 C411.57 792.93 413.02 792.61 414.47 792.29 C417.98 791.52 421.49 790.76 425 790 C422.32 787.91 419.65 786.18 416.66 784.58 C415.83 784.14 415 783.69 414.15 783.23 C413.27 782.76 412.4 782.3 411.5 781.81 C403.7 777.57 396.23 773.17 389 768 C388.41 767.58 387.83 767.17 387.22 766.73 C378.9 760.79 370.79 754.63 363 748 C362.09 747.24 361.18 746.47 360.24 745.69 C355.37 741.48 351.74 737.85 349 732 C355.98 733.06 361.65 734.9 367.81 738.31 C368.62 738.75 369.42 739.18 370.24 739.63 C390.6 750.81 408.54 763.75 426 779 C426.88 779.76 427.76 780.53 428.66 781.32 C430.44 782.87 432.22 784.43 434 786 C434.33 785.01 434.66 784.02 435 783 C433.35 780.75 431.68 778.75 429.81 776.69 C428.7 775.43 427.59 774.17 426.48 772.91 C425.61 771.94 425.61 771.94 424.73 770.95 C420.52 766.21 416.41 761.38 412.32 756.54 C411.12 755.15 409.91 753.77 408.69 752.4 C405.71 748.91 403.6 746.39 403.44 741.69 C404.03 737.8 404.45 735.14 407.7 732.75 C417.45 727.95 427.91 724.89 438.24 721.58 C440.81 720.75 443.38 719.91 445.94 719.06 C446.74 718.81 447.53 718.56 448.35 718.31 C450.8 717.53 450.8 717.53 454 716 C454.95 714.1 454.95 714.1 455 712 C453.46 709.88 452 708.16 450.19 706.31 C449.68 705.78 449.18 705.25 448.66 704.71 C444.77 700.66 440.69 696.84 436.46 693.15 C434.79 691.69 433.15 690.21 431.54 688.69 C421.93 679.7 412.65 674.72 400.32 670.47 C351.05 653.04 351.05 653.04 344 639 C350.32 638.8 355.67 639.31 361.75 641 C362.56 641.22 363.37 641.44 364.21 641.67 C381.6 646.57 399.16 653.57 415.09 662.12 C418.1 663.51 419.81 662.88 423 662 C426.47 660.48 429.83 658.75 433.19 657 C435.14 656 437.1 655 439.06 654 C440.05 653.5 441.03 653 442.05 652.48 C447.35 649.82 452.72 647.32 458.1 644.82 C458.83 644.47 459.57 644.13 460.32 643.78 C460.96 643.48 461.6 643.18 462.26 642.88 C464.27 641.91 464.27 641.91 467 640 C466.72 636.88 465.99 635.99 463.62 633.84 C462.57 633.07 461.52 632.3 460.44 631.5 C459.87 631.07 459.29 630.65 458.71 630.21 C456.81 628.8 454.91 627.4 453 626 C450.25 623.96 447.5 621.92 444.75 619.88 C444.07 619.37 443.39 618.86 442.7 618.34 C429.04 608.09 429.04 608.09 427 604 C426.73 602.01 426.73 602.01 426.62 599.69 C426.58 598.93 426.53 598.17 426.48 597.39 C427.68 591.92 433.23 589.01 437.67 586.16 C438.73 585.49 438.73 585.49 439.81 584.81 C440.92 584.11 440.92 584.11 442.05 583.38 C445.85 580.97 449.67 578.58 453.5 576.2 C454.21 575.76 454.93 575.31 455.66 574.86 C457.02 574.02 458.37 573.18 459.73 572.35 C463.36 570.11 466.72 567.75 470 565 C468.51 560.66 465.35 559.08 461.56 556.94 C460.59 556.37 460.59 556.37 459.59 555.79 C457.4 554.51 455.2 553.26 453 552 C450.46 550.55 447.93 549.09 445.4 547.64 C443.75 546.69 442.09 545.74 440.44 544.81 C430.14 538.92 430.14 538.92 427.62 534.69 C426.78 531.05 427.03 528.61 428 525 C431.71 520.81 436.02 517.56 440.5 514.25 C441.54 513.47 441.54 513.47 442.61 512.68 C448.97 507.97 455.45 503.44 462 499 C458.93 498.06 456.54 497.99 453.35 498.34 C452.44 498.43 451.53 498.53 450.59 498.62 C449.12 498.78 449.12 498.78 447.62 498.94 C431.23 500.49 415.17 500.28 398.75 499.12 C397.63 499.05 396.51 498.97 395.36 498.89 C387.38 498.26 379.75 496.97 372 495 C375.28 491.03 377.99 490.22 383 489.31 C384.22 489.08 385.43 488.85 386.69 488.61 C396.12 487.15 405.58 486.85 415.11 486.9 C416.2 486.9 417.3 486.91 418.42 486.91 C421.86 486.91 425.31 486.92 428.75 486.94 C431.1 486.94 433.46 486.95 435.81 486.95 C441.54 486.96 447.27 486.98 453 487 C450.39 485 448.01 483.42 444.99 482.13 C444.23 481.81 443.48 481.48 442.7 481.15 C441.91 480.81 441.13 480.47 440.31 480.12 C422.73 472.46 422.73 472.46 421 469 C420.47 462.67 421.06 460.21 425 455 C427 452.77 429.11 450.66 431.25 448.56 C431.83 447.99 432.41 447.42 433 446.83 C437.87 442.06 442.87 437.47 448.23 433.24 C448.96 432.64 449.69 432.05 450.44 431.44 C451.43 430.66 451.43 430.66 452.43 429.87 C454.53 427.37 454.68 425.19 455 422 C451.52 420.94 448.04 419.87 444.56 418.81 C443.52 418.49 442.48 418.18 441.41 417.85 C436.58 416.38 431.75 414.92 426.9 413.53 C426.14 413.31 425.38 413.09 424.6 412.87 C423.2 412.47 421.8 412.07 420.41 411.69 C416.34 410.52 412.76 408.92 409 407 C408.34 407 407.68 407 407 407 C405.81 402.54 405.03 398.59 406 394 C408.2 390.24 411.04 387.18 414 384 C414.87 383.06 415.74 382.12 416.63 381.16 C418.01 379.67 419.38 378.18 420.77 376.69 C424.24 372.92 427.52 369.03 430.69 365 C431.12 364.46 431.56 363.92 432 363.36 C434.45 360.2 435 359.16 435 355 C429.9 353.42 424.98 352.47 419.69 351.82 C418.1 351.61 416.52 351.4 414.93 351.19 C412.46 350.88 409.99 350.56 407.52 350.25 C405.12 349.95 402.72 349.63 400.31 349.32 C399.58 349.23 398.85 349.14 398.1 349.05 C392.42 348.29 386.94 347.16 382.97 342.75 C381.06 340.64 381.06 340.64 377.97 341.16 C376.82 341.46 375.68 341.76 374.5 342.06 C373.26 342.37 372.01 342.68 370.73 343 C368.88 343.49 368.88 343.49 367 344 C359.29 346.04 351.98 347.54 344 348 C350.19 336.55 366.39 330.4 377.89 325.22 C389.21 320.02 395.29 312.85 402.06 302.69 C402.65 301.81 402.65 301.81 403.26 300.91 C405.51 297.37 406.19 295.14 406 291 C405.42 290.99 404.85 290.99 404.26 290.98 C398.25 290.92 392.25 290.83 386.25 290.74 C384.01 290.7 381.77 290.68 379.53 290.65 C376.31 290.62 373.09 290.57 369.87 290.51 C368.87 290.51 367.87 290.5 366.85 290.49 C361.52 290.38 357.55 290.08 353 287 C350.5 283.25 350.47 280.34 351 276 C351.83 273.08 353 270.36 354.25 267.59 C354.58 266.82 354.91 266.05 355.25 265.25 C356.3 262.81 357.37 260.37 358.44 257.94 C359.5 255.5 360.56 253.06 361.62 250.61 C362.27 249.1 362.93 247.58 363.6 246.08 C365.5 241.68 366.64 237.79 367 233 C366.67 232.67 366.34 232.34 366 232 C356.96 232.06 348.01 234.26 339.19 236.06 C336.45 236.62 333.72 237.17 330.98 237.72 C329.78 237.97 328.59 238.21 327.35 238.47 C322.31 239.27 319.2 239.68 314.69 237.12 C312 235 312 235 311 233 C310.17 223.46 313.17 214.49 315.58 205.36 C317.74 197.14 319.54 189.58 319 181 C302.62 182.06 291.83 191.3 279.95 201.79 C274.72 206.37 269.78 210.06 263 212 C264.74 206.19 266.81 201.17 270 196 C269.2 195.22 268.39 194.43 267.56 193.62 C264.33 190.31 263.87 188.99 263.87 184.52 C263.86 183.16 263.86 183.16 263.86 181.76 C263.87 180.79 263.87 179.82 263.88 178.81 C263.88 177.82 263.88 176.82 263.88 175.8 C263.92 168.97 264.24 162.23 264.78 155.43 C265.13 149.95 265.08 144.48 265 139 C262.16 138.18 260.54 137.8 257.73 138.86 C256.58 139.55 256.58 139.55 255.41 140.25 C254.55 140.75 253.69 141.25 252.8 141.77 C251.9 142.32 250.99 142.87 250.06 143.44 C249.13 143.99 248.2 144.54 247.24 145.1 C245.36 146.21 243.49 147.32 241.62 148.44 C238.12 150.52 234.6 152.55 231.06 154.56 C230.02 155.16 228.98 155.76 227.91 156.38 C225 158 225 158 221.89 159.15 C217.63 161.88 216.58 165.41 214.75 170 C213.97 171.83 213.18 173.66 212.39 175.48 C212 176.41 211.6 177.34 211.19 178.29 C201.86 199.53 188.48 218.97 174 237 C173.29 237.94 172.59 238.88 171.86 239.86 C168 244.95 164.84 248.32 159 251 C158.61 245.29 159.8 241.28 162.31 236.25 C162.67 235.52 163.02 234.79 163.39 234.04 C174.45 211.74 188.09 190.38 205.15 172.19 C208.76 168.33 211.93 164.31 215 160 C214.05 159.15 213.1 158.31 212.12 157.44 C207.4 151.8 207.51 145.06 207 138 C206.92 136.97 206.85 135.94 206.77 134.88 C206.64 133.2 206.64 133.2 206.52 131.49 C206.39 129.76 206.39 129.76 206.25 128 C206.09 125.7 205.93 123.4 205.78 121.1 C205.4 115.45 204.85 110.36 203 105 C198.17 105.46 195.24 107.82 191.62 110.81 C191.03 111.3 190.43 111.78 189.81 112.28 C187.86 113.84 185.93 115.42 184 117 C181.97 118.64 179.94 120.28 177.91 121.92 C176.62 122.95 175.34 123.99 174.06 125.03 C164.92 132.41 164.92 132.41 157.44 131.81 C154.05 131.65 154.05 131.65 151 132 C148.31 134.67 148.31 134.67 147 138 C144.75 139.88 144.75 139.88 143 141 C142.67 140.67 142.34 140.34 142 140 C142.12 134.79 142.75 129.66 144.06 124.62 C146.36 114.52 144.9 105.39 142.69 95.44 C142.47 94.47 142.26 93.51 142.04 92.51 C141.72 91.14 141.72 91.14 141.39 89.75 C141.19 88.93 141 88.11 140.8 87.27 C139.91 84.75 138.69 83.04 137 81 C130.32 83.87 125.48 90.22 120.81 95.62 C120.26 96.26 119.7 96.89 119.13 97.54 C117.91 98.95 116.69 100.37 115.5 101.81 C113.75 103.9 111.97 105.95 110.19 108 C109.35 109.03 109.35 109.03 108.5 110.07 C106.02 112.87 104.19 114.71 100.5 115.61 C96.2 115.84 93.74 115.49 90.12 113.07 C87.43 109.17 85.77 105.25 84.12 100.81 C83.62 99.5 83.62 99.5 83.1 98.17 C82.06 95.45 81.03 92.73 80 90 C79.03 87.45 78.07 84.91 77.09 82.36 C76.5 80.82 75.92 79.28 75.35 77.74 C73.96 74.09 72.57 70.97 70 68 C60.91 71.84 55.01 84.23 49.74 92.13 C41.16 104.92 41.16 104.92 37 107 C29.93 107.7 29.93 107.7 26.65 105.23 C22.58 100.83 20.11 95.16 17.38 89.88 C16.24 87.7 15.1 85.53 13.96 83.37 C13.46 82.41 12.97 81.45 12.45 80.46 C11.15 78.25 9.91 76.7 8 75 C6.2 76.8 6.55 79.54 6.32 81.98 C6.19 83.21 6.07 84.43 5.94 85.7 C5.69 88.29 5.44 90.89 5.19 93.48 C3.9 106.36 3.9 106.36 2 111 C0.51 111.5 0.51 111.5 -1 112 C-3.17 103.14 -4.52 94.48 -5.27 85.4 C-5.33 84.63 -5.4 83.85 -5.47 83.05 C-5.53 82.37 -5.58 81.68 -5.64 80.98 C-6.05 78.72 -6.89 77 -8 75 C-8.4 75.76 -8.81 76.52 -9.22 77.31 C-10.73 80.15 -12.24 82.99 -13.76 85.83 C-14.42 87.06 -15.07 88.29 -15.72 89.51 C-16.66 91.29 -17.6 93.06 -18.55 94.82 C-19.11 95.89 -19.68 96.95 -20.26 98.05 C-24.5 105.25 -24.5 105.25 -28 107 C-34.97 107.7 -34.97 107.7 -38.84 105.07 C-42.9 101.45 -45.78 96.98 -48.81 92.5 C-49.42 91.62 -50.03 90.73 -50.66 89.82 C-53.4 85.85 -56.1 81.85 -58.77 77.83 C-59.17 77.23 -59.58 76.63 -59.99 76 C-61.05 74.42 -62.09 72.83 -63.13 71.24 C-65.1 68.87 -65.99 68.29 -69 68 Z M0 302 C-4.15 307.94 -7.83 314.07 -11.37 320.39 C-13.91 324.91 -13.91 324.91 -15 326 C-17.32 326.38 -17.32 326.38 -20 326 C-22.03 323.88 -22.03 323.88 -23.94 321 C-24.62 320 -25.3 319 -26 317.97 C-26.66 316.99 -27.32 316.01 -28 315 C-29.11 313.47 -30.24 311.95 -31.38 310.44 C-32.07 309.51 -32.07 309.51 -32.77 308.56 C-34.06 306.86 -34.06 306.86 -36 305 C-38.05 304.95 -38.05 304.95 -40 306 C-41.34 308.12 -41.34 308.12 -42.25 310.8 C-42.63 311.78 -43.01 312.76 -43.4 313.76 C-43.98 315.3 -43.98 315.3 -44.56 316.88 C-45.33 318.9 -46.1 320.91 -46.88 322.93 C-47.38 324.28 -47.38 324.28 -47.9 325.66 C-48.99 327.99 -50.07 329.33 -52 331 C-55.82 329.7 -58.11 328.23 -60.88 325.3 C-61.92 324.23 -61.92 324.23 -62.98 323.14 C-64.04 322.02 -64.04 322.02 -65.12 320.88 C-66.54 319.39 -67.96 317.9 -69.38 316.43 C-70.01 315.77 -70.63 315.11 -71.27 314.44 C-73.01 312.68 -73.01 312.68 -76 313 C-78.25 318.74 -80.04 324.48 -81.62 330.44 C-83.87 338.87 -83.87 338.87 -85 340 C-88.4 340.49 -89.73 340.18 -92.61 338.24 C-93.95 337.07 -93.95 337.07 -95.31 335.88 C-96.27 335.06 -97.23 334.25 -98.21 333.41 C-99.13 332.61 -100.05 331.82 -101 331 C-102.46 329.77 -103.94 328.56 -105.44 327.38 C-106.03 326.89 -106.63 326.4 -107.25 325.9 C-109.55 324.72 -110.59 325.29 -113 326 C-113.08 326.74 -113.16 327.47 -113.24 328.23 C-113.61 331.57 -113.99 334.91 -114.38 338.25 C-114.5 339.41 -114.63 340.57 -114.76 341.76 C-114.89 342.88 -115.02 343.99 -115.15 345.14 C-115.32 346.68 -115.32 346.68 -115.5 348.25 C-115.98 350.86 -116.68 352.72 -118 355 C-124.25 354.46 -128.26 351.6 -133.35 348.24 C-137.65 345.5 -140.9 344.37 -146 344 C-146.99 350.54 -147.12 356.9 -147.06 363.5 C-147.06 364.51 -147.05 365.53 -147.05 366.57 C-147.04 369.05 -147.02 371.52 -147 374 C-152.77 374.36 -156.78 373.23 -162.06 371 C-166.9 368.97 -170.63 367.6 -176 368 C-177.59 372.97 -176.3 377.05 -175.06 381.94 C-172.6 391.83 -172.6 391.83 -173 397 C-174.58 398.58 -176.18 398.17 -178.38 398.19 C-183.21 398.15 -187.71 397.4 -192.44 396.45 C-195.7 395.88 -198.7 395.85 -202 396 C-203.06 399.89 -202.96 402 -201.35 405.69 C-200.98 406.55 -200.62 407.41 -200.24 408.3 C-199.85 409.19 -199.46 410.08 -199.06 411 C-198.3 412.77 -197.54 414.54 -196.79 416.31 C-196.44 417.09 -196.1 417.87 -195.75 418.68 C-194.92 421.24 -194.86 423.33 -195 426 C-197.49 427.24 -199.3 427.19 -202.09 427.28 C-203.61 427.34 -203.61 427.34 -205.16 427.39 C-206.22 427.43 -207.28 427.46 -208.38 427.5 C-210.47 427.57 -212.56 427.64 -214.65 427.72 C-215.58 427.75 -216.51 427.78 -217.47 427.81 C-219.77 427.98 -221.79 428.36 -224 429 C-223.58 435.94 -219.52 440.86 -215.77 446.46 C-215.28 447.22 -214.78 447.99 -214.27 448.79 C-213.81 449.47 -213.35 450.16 -212.88 450.88 C-211.75 453.6 -212.2 455.21 -213 458 C-220.48 459.81 -227.91 461.4 -235.54 462.47 C-238.24 462.89 -238.24 462.89 -241 465 C-239.58 469.19 -237.55 472.02 -234.69 475.38 C-233.89 476.33 -233.09 477.29 -232.27 478.28 C-230.93 479.89 -229.58 481.49 -228.23 483.09 C-226.81 484.88 -226.81 484.88 -225 488 C-225.56 490.58 -225.56 490.58 -227 493 C-229.31 494.15 -229.31 494.15 -232.16 494.88 C-233.18 495.16 -234.2 495.44 -235.25 495.73 C-236.33 496.01 -237.4 496.28 -238.5 496.56 C-240.62 497.11 -242.73 497.68 -244.84 498.25 C-245.78 498.49 -246.72 498.73 -247.69 498.98 C-250.16 499.81 -250.16 499.81 -251.32 502.11 C-251.66 503.05 -251.66 503.05 -252 504 C-247.34 509.83 -242.28 514.31 -236.26 518.73 C-233.54 521.46 -233.25 523.21 -233 527 C-238.37 530.83 -244.03 533.4 -250.07 536 C-250.81 536.33 -251.54 536.66 -252.3 537 C-253.29 537.43 -253.29 537.43 -254.31 537.88 C-256.42 539.28 -257.05 540.69 -258 543 C-254.44 546.77 -250.7 549.76 -246.38 552.62 C-238.38 557.95 -238.38 557.95 -237 560 C-236.8 562.37 -236.8 562.37 -238 565 C-240.56 567.03 -243.37 568.52 -246.25 570.06 C-251.14 572.76 -255.75 575.32 -260 579 C-258.49 583.67 -254.68 585.51 -250.75 588 C-250.09 588.43 -249.44 588.85 -248.76 589.29 C-245.01 591.72 -245.01 591.72 -241.21 594.1 C-237.11 596.68 -237.11 596.68 -236 600 C-238.74 604.23 -242.43 607.1 -246.44 610.06 C-248.63 611.71 -250.81 613.35 -253 615 C-253.94 615.7 -254.88 616.4 -255.85 617.12 C-258.25 618.89 -258.25 618.89 -259 622 C-251.15 628.7 -241.75 632.75 -232 636 C-232.25 641.07 -233.72 643.21 -237.26 646.55 C-237.81 647.05 -238.37 647.55 -238.94 648.06 C-244.17 652.71 -244.17 652.71 -247 659 C-246.67 659.66 -246.34 660.32 -246 661 C-242.23 659.74 -240.78 657.84 -238 655 C-227.87 644.9 -215.69 640.89 -201.69 640.62 C-188.12 640.66 -175.33 645.91 -165.25 655.12 C-153.23 668.21 -149.3 682.7 -150 700 C-150.63 710.13 -153.84 717.35 -159 726 C-159.67 727.33 -160.34 728.66 -161 730 C-133.78 747.74 -92.16 766 -59 766 C-60.26 757.26 -61.79 748.61 -63.53 739.95 C-63.95 737.86 -64.36 735.77 -64.78 733.67 C-65.66 729.22 -66.55 724.77 -67.44 720.31 C-69.65 709.21 -71.85 698.11 -74 687 C-74.2 685.99 -74.39 684.98 -74.59 683.94 C-75.07 681.46 -75.53 678.97 -75.97 676.48 C-76.2 675.21 -76.43 673.95 -76.67 672.65 C-77.24 666.31 -77.2 660.12 -73 655 C-70.86 653.52 -70.86 653.52 -68.39 652.31 C-67.48 651.85 -66.56 651.38 -65.62 650.9 C-64.65 650.42 -63.69 649.94 -62.69 649.44 C-47.15 641.3 -35.21 630.96 -25.25 616.46 C-20.19 609.2 -13.76 605.3 -5.1 603.34 C3.27 602.31 10.86 603.5 17.91 608.27 C24.28 613.53 29.38 620.19 34.5 626.62 C45.4 640 58.63 647.48 74.33 653.87 C77 655 77 655 78 656 C78.89 666.37 77 676.37 75.12 686.5 C74.82 688.2 74.51 689.91 74.21 691.61 C72.3 702.17 70.3 712.72 68.31 723.27 C68.08 724.47 67.85 725.67 67.62 726.91 C66.49 732.89 65.35 738.86 64.2 744.83 C63.99 745.94 63.78 747.05 63.56 748.2 C63.16 750.3 62.75 752.39 62.35 754.49 C62.17 755.42 61.99 756.35 61.81 757.32 C61.57 758.53 61.57 758.53 61.33 759.78 C60.9 762.28 60.9 762.28 61 766 C68.63 765.37 75.83 763.75 83.25 761.88 C84.49 761.56 85.72 761.25 87 760.93 C113.43 754.1 137.78 743.5 162 731 C160.49 726.96 158.55 723.29 156.5 719.5 C153.04 712.78 151.5 706.58 151 699 C150.92 697.86 150.84 696.71 150.75 695.53 C150.2 680.32 155.57 668.21 165.25 656.75 C169.67 652.04 174.18 648.78 180 646 C180.83 645.59 181.67 645.17 182.53 644.75 C194.54 639.79 211.43 639.83 223.46 644.73 C232.09 649.05 239.26 654.06 246 661 C246.66 659.68 247.32 658.36 248 657 C244.53 652.93 241.05 649.01 237.12 645.38 C234.12 642.45 233.11 640.31 233 636 C233.64 635.75 234.28 635.5 234.93 635.24 C239 633.59 243.04 631.87 247.06 630.12 C247.86 629.79 248.67 629.45 249.49 629.1 C253.73 627.25 256.99 625.64 260 622 C255.13 615.89 249.85 611.72 243.48 607.28 C242.79 606.78 242.1 606.28 241.39 605.77 C240.76 605.33 240.13 604.9 239.49 604.44 C237.66 602.67 237.22 601.53 237 599 C241.39 593.21 248.18 590.39 254.49 587.11 C255.32 586.65 256.16 586.19 257.02 585.72 C257.78 585.32 258.55 584.91 259.34 584.5 C261.26 583.08 261.26 583.08 261.41 580.46 C261.24 577.73 261.24 577.73 258.47 575.97 C257.35 575.34 256.22 574.71 255.06 574.06 C253.87 573.38 252.68 572.69 251.49 572 C250.9 571.67 250.31 571.33 249.7 570.99 C247.3 569.59 244.99 568.06 242.69 566.5 C241.61 565.77 241.61 565.77 240.51 565.03 C240.01 564.69 239.51 564.35 239 564 C239.5 559.97 240.31 558.2 243.44 555.62 C244.5 554.74 244.5 554.74 245.59 553.83 C248.95 551.28 252.44 548.95 256 546.68 C258.23 544.81 258.66 543.84 259 541 C255.09 538.39 251.18 536.05 246.94 534.03 C246.22 533.68 245.5 533.34 244.76 532.98 C243.31 532.29 241.84 531.61 240.37 530.94 C235.18 528.47 235.18 528.47 234.23 525.99 C234 524 234 524 235.05 522.21 C235.61 521.61 236.17 521 236.75 520.38 C237.39 519.69 238.02 519 238.68 518.29 C242.22 514.79 245.96 511.53 249.74 508.3 C252.41 505.58 252.41 505.58 253 502 C250.64 499.64 249.02 499.23 245.84 498.27 C244.82 497.96 243.8 497.65 242.75 497.34 C241.67 497.02 240.6 496.7 239.5 496.38 C238.43 496.05 237.36 495.73 236.25 495.39 C231.21 493.69 231.21 493.69 226 493 C226.28 486.51 228.51 483.53 232.88 478.88 C239.44 472.38 239.44 472.38 242 464 C235.63 462 229.27 461.06 222.68 460.14 C221.86 460.02 221.04 459.9 220.2 459.78 C219.1 459.63 219.1 459.63 217.97 459.47 C216 459 216 459 213 457 C214.73 450.71 218.1 445.65 221.54 440.19 C224.84 435 224.84 435 225 429 C223.23 427.23 220.68 427.79 218.29 427.72 C217.12 427.68 215.96 427.64 214.77 427.61 C213.54 427.57 212.32 427.54 211.06 427.5 C208.66 427.43 206.25 427.36 203.85 427.28 C202.24 427.24 202.24 427.24 200.6 427.19 C198 427 198 427 196 426 C196.56 418.91 198.7 413.5 201.65 407.09 C203.44 403.02 204.58 400.41 203 396 C200.94 396.14 198.87 396.29 196.81 396.44 C195.66 396.52 194.52 396.6 193.33 396.68 C190.12 396.93 190.12 396.93 187.47 397.53 C184.5 398.1 181.71 398.1 178.69 398.06 C177.62 398.05 176.55 398.04 175.45 398.04 C174.64 398.02 173.83 398.01 173 398 C173.46 395.67 173.91 393.33 174.38 391 C174.51 390.31 174.65 389.62 174.79 388.91 C175.49 385.41 176.24 381.94 177.19 378.5 C178.05 374.78 178.16 371.79 178 368 C172.62 366.22 168.79 368.49 163.97 370.73 C158.7 373.03 153.72 373.67 148 374 C148.01 373.23 148.01 372.47 148.02 371.68 C148.04 368.2 148.05 364.73 148.06 361.25 C148.07 360.04 148.08 358.84 148.09 357.59 C148.09 356.43 148.09 355.27 148.1 354.08 C148.1 353.01 148.11 351.94 148.11 350.84 C148.02 348.38 147.72 346.35 147 344 C141.04 344.43 137.38 346.23 132.44 349.5 C127.95 352.45 124.51 354.52 119 355 C117.3 352 116.69 349.62 116.44 346.19 C116.33 344.82 116.33 344.82 116.21 343.43 C116.14 342.48 116.07 341.54 116 340.56 C115.56 332.54 115.56 332.54 113 325 C108.44 325.49 106.43 327.09 103.19 330.25 C94.44 338.4 94.44 338.4 90 340 C88.33 339.71 86.66 339.38 85 339 C84.84 338.32 84.68 337.65 84.51 336.95 C83.77 333.88 83.01 330.82 82.25 327.75 C82 326.69 81.74 325.62 81.48 324.53 C81.1 322.99 81.1 322.99 80.7 321.42 C80.47 320.48 80.24 319.54 80 318.57 C78.85 315.61 77.37 314.08 75 312 C74.48 312.54 73.95 313.08 73.41 313.64 C71.03 316.08 68.64 318.51 66.25 320.94 C65.42 321.79 64.6 322.64 63.75 323.51 C62.95 324.32 62.15 325.13 61.33 325.96 C60.59 326.71 59.86 327.46 59.11 328.23 C56.95 330.04 55.81 330.91 53 331 C50.04 328.95 49.12 326.23 47.91 322.93 C47.54 321.95 47.17 320.97 46.78 319.96 C46.01 317.9 45.25 315.83 44.49 313.76 C44.12 312.79 43.74 311.81 43.35 310.8 C42.85 309.46 42.85 309.46 42.35 308.09 C41.15 305.73 41.15 305.73 38.35 305.2 C37.19 305.1 37.19 305.1 36 305 C35.62 305.53 35.24 306.06 34.85 306.6 C33.13 309.01 31.41 311.41 29.69 313.81 C28.8 315.06 28.8 315.06 27.88 316.34 C27.02 317.54 27.02 317.54 26.14 318.77 C25.61 319.51 25.08 320.25 24.53 321.01 C24.03 321.66 23.52 322.32 23 323 C22.54 323.6 22.09 324.21 21.62 324.83 C20 326 20 326 17.5 325.99 C14.18 324.68 13.58 323.29 11.99 320.12 C11.48 319.14 10.97 318.16 10.44 317.14 C9.92 316.1 9.41 315.07 8.88 314 C7.84 311.95 6.8 309.91 5.74 307.88 C5.29 306.96 4.83 306.05 4.36 305.12 C3.11 302.69 3.11 302.69 0 302 Z M-15.78 618.66 C-19.14 622.2 -22.28 625.93 -25.44 629.66 C-35.85 641.93 -46.75 650.83 -61.33 657.73 C-63.75 659.56 -64.2 661.08 -65 664 C-65.94 674.44 -64.95 684.69 -63.29 695 C-63.02 696.68 -63.02 696.68 -62.75 698.4 C-60.93 709.77 -58.81 721.08 -56.65 732.39 C-53.37 749.6 -50.14 766.77 -48.09 784.17 C-47.97 785.19 -47.84 786.21 -47.72 787.26 C-47.63 788.12 -47.53 788.97 -47.44 789.85 C-47.08 792.29 -47.08 792.29 -45 795 C-44.38 794.54 -43.77 794.08 -43.13 793.61 C-32.79 786.12 -23.89 782.13 -11 783 C-9.64 783.31 -8.28 783.67 -6.94 784.06 C-1.52 785.62 3.56 784.46 9 783.44 C20.03 781.83 29.74 783.71 39 790 C41.77 792.23 44.42 794.56 47 797 C49.85 794.15 49.71 791.03 50.16 787.18 C50.37 785.48 50.59 783.77 50.8 782.07 C50.92 781.15 51.03 780.24 51.14 779.3 C53.92 756.98 57.68 734.87 61.66 712.74 C61.87 711.56 62.09 710.37 62.31 709.15 C62.71 706.92 63.11 704.7 63.52 702.47 C65.22 693.03 66.2 683.92 66.25 674.31 C66.27 673.29 66.29 672.27 66.31 671.22 C66.51 664.01 66.51 664.01 63 658 C60.64 656.57 58.41 655.36 55.94 654.19 C42.33 647.31 31.23 637.05 22.31 624.69 C17.3 617.85 12.97 613.41 4.56 611.44 C-3.81 610.33 -9.72 612.97 -15.78 618.66 Z M-236.87 659.35 C-238.19 661.01 -238.19 661.01 -238.31 663.44 C-234.36 671.15 -228.09 677.26 -222 683.31 C-221.16 684.15 -220.32 684.98 -219.45 685.85 C-213.21 691.97 -206.79 697.58 -199.73 702.74 C-197.87 704.09 -196.03 705.48 -194.19 706.86 C-190.5 709.62 -186.76 712.33 -183 715 C-181.97 715.73 -180.95 716.46 -179.89 717.21 C-174.59 720.8 -170.52 723.34 -164 723 C-158.57 719.68 -156.34 711.78 -154.75 705.88 C-152.15 692.15 -154.37 679.81 -161.25 667.69 C-169.06 656.37 -180.66 647.99 -194.25 645.38 C-209.95 643.81 -225.86 647.2 -236.87 659.35 Z M174 655 C173.11 655.62 172.23 656.24 171.31 656.88 C162.38 665.08 155.44 677.73 154.8 689.86 C154.58 701.73 155.72 711.2 163 721 C164.85 723.25 164.85 723.25 167.67 723.39 C171.92 722.89 174.81 721.12 178.31 718.81 C179 718.37 179.69 717.92 180.41 717.46 C195.72 707.43 210.8 695.74 223.49 682.5 C225.1 680.9 226.8 679.49 228.56 678.06 C232.82 674.47 236.59 670.2 238.85 665.07 C239.08 661.92 237.87 660.49 236 658 C225.6 648.71 214.42 644.58 200.61 644.72 C190.51 645.5 181.93 648.77 174 655 Z M-193 721 C-197.01 734.95 -199.98 749.14 -203.07 763.31 C-203.86 766.93 -204.65 770.55 -205.45 774.17 C-206.79 780.29 -208.12 786.41 -209.46 792.53 C-210.8 798.69 -212.15 804.84 -213.5 810.99 C-222.18 850.62 -230.72 890.28 -239 930 C-237.71 930.9 -236.42 931.8 -235.12 932.69 C-234.41 933.19 -233.69 933.69 -232.95 934.2 C-228.79 936.74 -224.36 938.82 -220 941 C-220 926.48 -220 911.96 -220 897 C-217.03 897 -214.06 897 -211 897 C-211 898.22 -211 899.44 -211 900.69 C-211.02 929.65 -211.04 958.61 -211.05 987.58 C-211.05 991.15 -211.05 994.72 -211.05 998.29 C-211.06 999.35 -211.06 999.35 -211.06 1000.44 C-211.06 1011.93 -211.07 1023.41 -211.08 1034.89 C-211.09 1046.69 -211.09 1058.49 -211.09 1070.29 C-211.1 1076.91 -211.1 1083.53 -211.11 1090.15 C-211.11 1096.39 -211.11 1102.63 -211.11 1108.87 C-211.11 1111.16 -211.12 1113.44 -211.12 1115.72 C-212.26 1145.52 -212.26 1145.52 -198.46 1170.8 C-182.87 1184.73 -160.83 1182.16 -141.23 1182.13 C-139.48 1182.13 -137.74 1182.13 -136 1182.14 C-132.38 1182.14 -128.76 1182.14 -125.14 1182.13 C-120.53 1182.12 -115.92 1182.13 -111.31 1182.13 C-107.73 1182.14 -104.14 1182.14 -100.56 1182.13 C-98.86 1182.13 -97.16 1182.13 -95.46 1182.14 C-70.75 1182.34 -70.75 1182.34 -50 1170 C-41.81 1160.9 -38.89 1152.13 -38.79 1139.98 C-38.78 1139.19 -38.77 1138.41 -38.76 1137.61 C-38.73 1135.04 -38.71 1132.48 -38.68 1129.91 C-38.66 1128.13 -38.64 1126.34 -38.62 1124.56 C-38.57 1119.87 -38.52 1115.19 -38.47 1110.5 C-38.42 1105.72 -38.36 1100.93 -38.31 1096.14 C-38.2 1086.76 -38.1 1077.38 -38 1068 C-36.35 1068.33 -34.7 1068.66 -33 1069 C-30.85 1075.16 -30.66 1080.91 -30.59 1087.4 C-30.57 1088.36 -30.55 1089.31 -30.53 1090.3 C-30.47 1093.85 -30.42 1097.39 -30.38 1100.94 C-30.25 1108.88 -30.13 1116.82 -30 1125 C-9.87 1125 10.26 1125 31 1125 C31.33 1106.52 31.66 1088.04 32 1069 C33.65 1068.67 35.3 1068.34 37 1068 C38.55 1071.1 38.37 1074.41 38.54 1077.81 C38.58 1078.64 38.62 1079.47 38.66 1080.32 C39.3 1094.16 39.34 1108.02 39.48 1121.86 C39.52 1125.62 39.57 1129.37 39.62 1133.12 C39.63 1134.82 39.63 1134.82 39.65 1136.55 C39.86 1150.66 42.06 1159.84 51.81 1170.25 C66.81 1184.54 88.79 1182.17 108.1 1182.24 C109.04 1182.24 109.99 1182.25 110.96 1182.25 C115.95 1182.27 120.93 1182.29 125.92 1182.3 C131.04 1182.31 136.15 1182.34 141.27 1182.38 C145.24 1182.41 149.21 1182.41 153.18 1182.42 C155.06 1182.42 156.95 1182.43 158.83 1182.45 C174.96 1182.6 188.75 1180.51 201.1 1169.05 C202.89 1167.11 204.47 1165.14 206 1163 C206.63 1162.15 206.63 1162.15 207.28 1161.28 C209.98 1156.9 210.3 1152.71 210.58 1147.63 C210.62 1146.93 210.66 1146.22 210.7 1145.49 C211.07 1138.45 211.21 1131.41 211.3 1124.36 C211.32 1122.98 211.34 1121.6 211.36 1120.22 C211.41 1116.51 211.46 1112.8 211.5 1109.08 C211.53 1106.73 211.56 1104.37 211.59 1102.01 C212.1 1063.34 212.32 1024.67 212.53 985.99 C212.57 977.14 212.62 968.28 212.68 959.42 C212.7 955.67 212.72 951.92 212.74 948.16 C212.82 931.75 213.08 915.39 214 899 C215.65 898.67 217.3 898.34 219 898 C220.07 907.03 220.32 916.05 220.56 925.12 C220.61 926.67 220.65 928.21 220.69 929.76 C220.8 933.51 220.9 937.25 221 941 C222.63 940.12 224.26 939.22 225.88 938.31 C227.23 937.56 227.23 937.56 228.62 936.8 C231.39 934.71 232.07 933.3 233 930 C237.54 887.41 220.68 838.49 211.53 797.23 C211.14 795.47 210.75 793.71 210.36 791.94 C206.42 774.17 202.43 756.41 198.09 738.73 C197.74 737.31 197.4 735.9 197.06 734.48 C196.59 732.56 196.11 730.63 195.63 728.71 C195.36 727.62 195.1 726.54 194.82 725.42 C194.26 722.84 194.26 722.84 192 722 C189.69 723.22 187.52 724.49 185.31 725.88 C184.64 726.29 183.97 726.7 183.27 727.12 C180.57 728.78 177.87 730.46 175.18 732.14 C166.1 737.8 156.79 742.73 147.15 747.37 C146.24 747.81 145.32 748.26 144.38 748.71 C143.56 749.11 142.74 749.5 141.9 749.91 C139.84 750.86 139.84 750.86 139 753 C140.25 755.49 141.56 757.89 142.94 760.31 C165.69 801.82 170.13 850.53 157.37 895.85 C150.12 920.24 138.72 942.56 121 961 C119.85 962.35 118.7 963.7 117.56 965.06 C92.66 993.49 54.12 1011.73 16.68 1014.55 C13.12 1014.78 9.57 1014.9 6 1015 C5.27 1015.02 4.54 1015.04 3.79 1015.07 C-40.47 1016.23 -79.24 999.12 -112 970 C-113.06 969.07 -113.06 969.07 -114.13 968.12 C-143.37 940.72 -161.69 897.29 -163.12 857.55 C-163.93 818.73 -156.02 786.48 -138 752 C-139.16 751.39 -140.33 750.79 -141.52 750.16 C-172.69 733.88 -172.69 733.88 -185.32 725.13 C-187.88 723.37 -190.03 721.99 -193 721 Z M114.75 761.06 C113.24 761.52 111.73 761.98 110.22 762.44 C109.4 762.69 108.57 762.94 107.72 763.2 C101.53 765.03 95.3 766.71 89.08 768.41 C72.15 772.11 72.15 772.11 59.39 782.61 C57.71 786.72 57.21 790.43 56.81 794.81 C56.69 795.95 56.69 795.95 56.56 797.1 C55.85 804.18 55.36 811.22 57 818.19 C60.08 834.06 57.39 849.2 49 863 C42.98 871.75 33.49 877.99 23 880 C16.5 880.53 11.15 880.24 5 878 C0.53 877.71 -3.15 877.95 -7.5 879 C-18.2 881.54 -28.57 879.15 -37.95 873.48 C-48.84 865.62 -54.25 852.07 -56.57 839.25 C-57.42 832.86 -57.31 827.23 -56 820.93 C-54.9 815.04 -54.67 809.35 -54.69 803.38 C-54.67 802.4 -54.66 801.43 -54.64 800.43 C-54.63 792.62 -55.85 786.26 -60.19 779.69 C-67.2 772.99 -76.43 771.36 -85.56 769.06 C-88.26 768.37 -90.95 767.67 -93.65 766.97 C-94.3 766.8 -94.95 766.63 -95.62 766.46 C-100.4 765.2 -105.05 763.7 -109.69 762 C-116.5 759.62 -123 758.43 -129.88 761.12 C-149.51 778.45 -153.98 814.33 -155.55 838.8 C-157.77 879.96 -143.31 921.57 -116.66 953.05 C-94.5 977.59 -66.55 996.38 -34 1004 C-33.31 1004.16 -32.63 1004.33 -31.92 1004.5 C-10.1 1009.44 15.5 1009.26 37 1003 C37.86 1002.75 38.71 1002.51 39.59 1002.25 C64.2 994.97 86.11 983.48 105 966 C105.8 965.26 105.8 965.26 106.62 964.51 C135.34 937.83 154.47 898.43 156.17 859.1 C156.67 842.67 156.92 826.06 153 810 C152.8 809.17 152.6 808.35 152.4 807.49 C146.36 782.47 146.36 782.47 133 761 C126.7 757.78 121.24 759.02 114.75 761.06 Z M-40 803 C-48.96 814.58 -50.15 827.55 -48.73 841.73 C-46.73 852.35 -39.9 861.45 -31.24 867.68 C-25.42 871.12 -18.72 872.8 -12 872 C-9.96 871.26 -7.91 870.5 -5.88 869.75 C0.74 867.56 4.48 868.64 10.86 871.02 C17.21 873 23.34 872.01 29.31 869.25 C39.05 863.67 44.71 855.61 48.25 845.01 C51.22 833.12 50.94 820.15 45.31 809.12 C40.29 800.8 34.26 795.28 25 792 C18.14 790.41 12.86 791.03 6.27 793.29 C1.34 794.84 -2.59 794.23 -7.31 792.5 C-20.88 787.66 -30.67 793.11 -40 803 Z M-233 857 C-232 860 -232 860 -232 860 Z M233 857 C234 860 234 860 234 860 Z M-234 860 C-234.47 860.97 -234.95 861.94 -235.43 862.94 C-245.13 882.67 -255.9 902.02 -270 919 C-267.84 921.16 -266.84 921.5 -263.97 922.29 C-262.78 922.62 -262.78 922.62 -261.57 922.95 C-260.33 923.29 -260.33 923.29 -259.06 923.62 C-257.83 923.97 -257.83 923.97 -256.56 924.32 C-251.85 925.61 -251.85 925.61 -247 926 C-243.91 914 -241.12 901.94 -238.43 889.84 C-237.74 886.78 -237.05 883.72 -236.36 880.65 C-235.92 878.69 -235.48 876.73 -235.05 874.77 C-234.84 873.86 -234.63 872.95 -234.42 872.02 C-233.53 867.95 -232.72 864.19 -233 860 C-233.33 860 -233.66 860 -234 860 Z M234 860 C234.67 867.43 236.08 874.56 237.69 881.84 C237.95 883.04 238.21 884.25 238.48 885.49 C239.04 888.01 239.59 890.54 240.15 893.07 C241 896.95 241.85 900.83 242.7 904.71 C243.23 907.17 243.77 909.63 244.31 912.09 C244.57 913.25 244.82 914.42 245.08 915.62 C245.32 916.69 245.56 917.76 245.8 918.87 C246.01 919.81 246.22 920.76 246.43 921.73 C246.92 924.01 246.92 924.01 248 926 C255.88 924.65 263.39 922.46 271 920 C270.63 919.51 270.25 919.03 269.87 918.52 C266.33 913.86 262.98 909.11 259.81 904.19 C259.35 903.46 258.88 902.74 258.4 901.99 C249.75 888.44 241.97 874.49 235 860 C234.67 860 234.34 860 234 860 Z M-338 948 C-338.81 948.72 -339.61 949.43 -340.45 950.17 C-358.22 966.83 -366.95 990.52 -368.12 1014.54 C-368.98 1042.07 -363.44 1066.87 -350 1091 C-349.65 1091.64 -349.3 1092.27 -348.95 1092.93 C-343.64 1102.56 -337.45 1110.92 -330 1119 C-329.12 1119.96 -328.25 1120.92 -327.35 1121.9 C-308.71 1141.42 -282.12 1155.16 -255 1157 C-254.04 1157.07 -253.07 1157.14 -252.08 1157.21 C-245.96 1157.43 -240.08 1156.69 -234.06 1155.69 C-232.98 1155.51 -232.98 1155.51 -231.87 1155.33 C-227.69 1154.57 -224.43 1153.53 -221 1151 C-219.77 1148.55 -219.89 1146.95 -219.9 1144.21 C-219.91 1143.27 -219.91 1142.33 -219.91 1141.36 C-219.92 1140.37 -219.93 1139.39 -219.94 1138.38 C-219.94 1136.89 -219.94 1136.89 -219.95 1135.37 C-219.96 1132.91 -219.98 1130.46 -220 1128 C-223.85 1128.74 -227.22 1129.8 -230.84 1131.28 C-244.19 1135.72 -260.26 1133.32 -272.77 1127.27 C-280.45 1123.25 -286.85 1118.08 -293 1112 C-293.71 1111.35 -294.42 1110.71 -295.14 1110.04 C-310.22 1095.91 -317.81 1075.05 -319.22 1054.82 C-319.76 1035.84 -313.81 1018.62 -300.87 1004.71 C-290.73 995.02 -278.78 992.23 -265.06 991.69 C-248.96 992.16 -235.58 998.83 -223.01 1008.5 C-221.29 1010.1 -221.29 1010.1 -220 1010 C-219.95 1003.79 -219.91 997.59 -219.89 991.38 C-219.88 989.27 -219.87 987.16 -219.85 985.06 C-219.82 982.01 -219.81 978.96 -219.8 975.92 C-219.79 974.99 -219.78 974.06 -219.77 973.11 C-219.77 964.44 -219.92 954.7 -226 948 C-256.41 922.23 -308.33 920.96 -338 948 Z M227 948 C217.8 958.64 220.66 977.84 220.81 990.88 C220.83 993.12 220.84 995.37 220.85 997.62 C220.89 1003.08 220.94 1008.54 221 1014 C222.27 1013.05 223.54 1012.1 224.82 1011.15 C225.88 1010.35 225.88 1010.35 226.96 1009.54 C228.65 1008.27 230.3 1006.95 231.95 1005.62 C243.61 996.33 255.02 992.83 269.69 992.75 C270.63 992.73 271.57 992.71 272.54 992.69 C286.75 992.61 299.13 998.19 309.38 1007.93 C317.02 1016.3 321.04 1028.05 323 1039 C323.23 1040.15 323.45 1041.31 323.69 1042.5 C325.56 1063.49 320.1 1085.82 306.78 1102.54 C303.69 1106.2 300.38 1109.61 297 1113 C296.2 1113.83 295.39 1114.66 294.56 1115.51 C281.22 1128.45 265.16 1132.48 247.02 1132.43 C240.02 1132.26 234.29 1131.17 228 1128 C225.68 1126.98 223.34 1125.99 221 1125 C219.06 1138.87 219.06 1138.87 223.21 1151.63 C230.33 1157.09 242.56 1156.55 251.12 1156.5 C252.29 1156.5 253.46 1156.49 254.67 1156.49 C265.04 1156.29 274.26 1154.45 284 1151 C285.62 1150.46 285.62 1150.46 287.27 1149.91 C300.43 1144.98 311.94 1136.66 322 1127 C323.31 1125.91 324.62 1124.83 325.94 1123.75 C350.11 1102.5 366.14 1067.83 369 1036 C370.62 1007.53 366.18 978.46 347.02 956.2 C346.35 955.47 345.69 954.75 345 954 C344.3 953.22 343.61 952.45 342.89 951.64 C329.55 937.51 310.83 929.5 291.53 928.61 C268.88 928.04 244.6 932.38 227 948 Z M-295 1011 C-295.64 1011.55 -296.27 1012.09 -296.93 1012.66 C-301.8 1017.08 -304.53 1021.95 -307 1028 C-307.39 1028.96 -307.79 1029.91 -308.2 1030.9 C-314.21 1047.6 -311.67 1067.14 -304.51 1083.09 C-295.51 1100.43 -280.75 1116.27 -262 1123 C-257.34 1124.05 -252.75 1124.63 -248 1125 C-247.24 1125.07 -246.47 1125.14 -245.69 1125.21 C-239 1125.55 -230.1 1123.49 -225 1119 C-217.78 1105.36 -219.69 1086.52 -219.74 1071.6 C-219.75 1068.01 -219.74 1064.41 -219.73 1060.82 C-218.57 1037.15 -218.57 1037.15 -226.77 1015.81 C-238.74 1005.19 -253.85 999.15 -269.96 999.66 C-279.97 1000.79 -287.64 1004.19 -295 1011 Z M227 1020 C218.28 1033.59 220.69 1052.27 220.74 1067.79 C220.75 1071.62 220.74 1075.46 220.73 1079.29 C220.73 1081.77 220.73 1084.25 220.73 1086.73 C220.73 1087.85 220.73 1088.98 220.72 1090.13 C220.21 1104.36 220.21 1104.36 225.41 1116.81 C234.07 1124.14 246.04 1125.43 257 1125 C272.19 1122.76 284.61 1114.96 295 1104 C295.66 1103.34 296.33 1102.69 297.01 1102.01 C310.37 1088.02 316.37 1068.4 316.15 1049.4 C315.46 1033.7 310.16 1020.75 298.88 1009.81 C289.88 1002.06 279.13 999.61 267.54 999.72 C252.29 1000.92 237.56 1009.17 227 1020 Z " fill="#000000" transform="translate(529,45)"/>
<path d="M0 0 C5.95 4.52 8.81 10.86 11.13 17.82 C12.12 26.49 10.18 35.1 4.94 42.19 C-1.84 48.52 -8.96 51.23 -18.15 51.09 C-25.54 50.35 -31.43 47.21 -36.4 41.75 C-41.68 34.82 -43.67 27.51 -42.87 18.82 C-41.55 10.75 -36.96 5.07 -30.87 -0.18 C-21.26 -6.2 -9.5 -6.01 0 0 Z " fill="#000000" transform="translate(394.87109375,621.18359375)"/>
<path d="M0 0 C6.8 4.99 10.05 10.87 12 19 C13 27.14 10.04 35.51 5.51 42.25 C0.79 47.72 -6.03 50.49 -13.12 51.22 C-20.39 51.52 -26.91 49.9 -32.75 45.44 C-37.71 40.84 -41.55 33.41 -42.24 26.65 C-42.47 18.32 -40.8 11.31 -35.62 4.62 C-25.67 -5.33 -12.21 -7.15 0 0 Z " fill="#000000" transform="translate(700,621)"/>
<path d="M0 0 C5.66 0.54 10.16 2.08 15.31 4.44 C16.09 4.79 16.87 5.14 17.67 5.51 C37.4 14.63 55.03 26.52 72 40 C72.99 40.79 73.98 41.57 75 42.38 C87.75 52.63 87.75 52.63 92 59 C92 60.32 92 61.64 92 63 C86.87 63.39 83.16 62.14 78.62 59.94 C77.9 59.59 77.18 59.25 76.44 58.89 C59.57 50.51 43.68 39.77 29 28 C28.45 27.56 27.9 27.13 27.33 26.68 C17.59 18.91 8.32 10.27 0 1 C0 0.67 0 0.34 0 0 Z " fill="#000000" transform="translate(201,314)"/>
<path d="M0 0 C-2.21 4.98 -5.93 8.27 -9.75 12.06 C-10.9 13.2 -10.9 13.2 -12.07 14.37 C-18.14 20.32 -24.45 25.7 -31.3 30.74 C-33 32 -34.66 33.29 -36.32 34.59 C-44.08 40.56 -52.25 45.75 -60.62 50.81 C-61.65 51.43 -62.67 52.06 -63.73 52.7 C-83.58 64.51 -83.58 64.51 -92 64 C-90.39 52.44 -76.35 43.69 -67.58 37.04 C-17.93 0 -17.93 0 0 0 Z " fill="#000000" transform="translate(858,313)"/>
<path d="M0 0 C4.91 1.36 8.69 3.57 12.75 6.56 C13.67 7.23 13.67 7.23 14.6 7.9 C19.15 11.25 23.4 14.84 27.52 18.7 C29.56 20.59 31.63 22.41 33.73 24.22 C38.31 28.22 42.64 32.45 46.94 36.75 C47.73 37.54 48.52 38.34 49.34 39.15 C54.97 44.84 60.1 50.67 65 57 C66.6 58.92 68.21 60.84 69.81 62.75 C77.79 72.54 77.79 72.54 78.25 77.94 C78.17 78.62 78.08 79.3 78 80 C67.04 78.7 59.31 69.78 51.6 62.5 C49.95 60.96 48.29 59.43 46.63 57.91 C31.28 43.87 17.26 28.97 5.94 11.44 C5.57 10.87 5.2 10.3 4.82 9.71 C2.84 6.57 1.25 3.49 0 0 Z " fill="#000000" transform="translate(292,295)"/>
<path d="M0 0 C0.66 0 1.32 0 2 0 C-1.34 33.72 -15.95 74.44 -36 102 C-39 104 -39 104 -42 104 C-43.35 93.09 -39.39 83.18 -36 73 C-35.73 72.16 -35.45 71.32 -35.17 70.46 C-27.79 47.82 -17.3 17.3 0 0 Z " fill="#000000" transform="translate(657,220)"/>
<path d="M0 0 C0 1.32 0 2.64 0 4 C-4.19 7.9 -10.07 10.12 -15.44 11.88 C-16.55 12.24 -16.55 12.24 -17.68 12.61 C-46.61 21.61 -76.79 25.75 -107 25 C-107 24.34 -107 23.68 -107 23 C-74.07 6.11 -36.8 -0.99 0 0 Z " fill="#000000" transform="translate(250,593)"/>
<path d="M0 0 C32.03 -0.64 61.67 3.19 92.31 13.06 C93.31 13.38 94.32 13.69 95.35 14.02 C100.79 15.85 104.35 17.51 108 22 C106.18 24.47 105.19 24.97 102.11 25.47 C74.15 25.7 44.75 18.89 18.44 9.94 C17.5 9.62 16.57 9.31 15.61 8.98 C9.99 6.98 4.77 4.63 0 1 C0 0.67 0 0.34 0 0 Z " fill="#000000" transform="translate(143,459)"/>
<path d="M0 0 C-4.3 11.46 -12.58 20.74 -20.33 30.01 C-21.89 31.87 -23.44 33.74 -24.98 35.61 C-34.69 47.26 -45.3 58.33 -57 68 C-58.31 69.12 -58.31 69.12 -59.64 70.27 C-72.33 81 -72.33 81 -79 81 C-78.67 74.59 -76.44 71.14 -72.5 66.19 C-71.96 65.49 -71.42 64.79 -70.86 64.07 C-67.1 59.25 -63.16 54.62 -58.99 50.14 C-57.22 48.24 -55.55 46.3 -53.88 44.31 C-44.83 33.97 -34.89 24.38 -24 16 C-22.92 15.15 -21.83 14.3 -20.75 13.45 C-3.57 0 -3.57 0 0 0 Z " fill="#000000" transform="translate(768,294)"/>
<path d="M0 0 C0 0.66 0 1.32 0 2 C-18.57 10.28 -36.91 15.75 -56.81 19.75 C-57.55 19.9 -58.29 20.05 -59.05 20.2 C-84.6 25.31 -84.6 25.31 -96.62 25.25 C-97.73 25.26 -98.84 25.26 -99.98 25.27 C-103.03 25 -105.24 24.29 -108 23 C-105.95 18.05 -102.74 16.98 -98 15 C-95.24 13.93 -92.45 13 -89.62 12.12 C-88.82 11.87 -88.02 11.62 -87.19 11.37 C-75.94 7.96 -64.5 5.39 -53 3 C-52.15 2.82 -51.3 2.64 -50.42 2.45 C-33.8 -1 -16.88 -0.3 0 0 Z " fill="#000000" transform="translate(916,459)"/>
<path d="M0 0 C-1.74 11.76 -12.34 21.45 -20 30 C-20.47 30.53 -20.94 31.06 -21.42 31.6 C-31.55 42.94 -41.99 53.64 -54 63 C-55.06 63.84 -56.13 64.69 -57.19 65.53 C-63.88 70.79 -70.71 75.59 -78 80 C-76.42 69.05 -66.8 59.43 -60 51 C-59.35 50.19 -59.35 50.19 -58.69 49.36 C-46.74 34.64 -33.23 20.35 -18 9 C-17.02 8.26 -16.04 7.53 -15.04 6.77 C-4.07 -1.36 -4.07 -1.36 0 0 Z " fill="#000000" transform="translate(267,808)"/>
<path d="M0 0 C3.84 3.57 6.67 7.27 9.31 11.81 C9.7 12.47 10.08 13.12 10.48 13.8 C14.29 20.34 17.73 27.04 20.98 33.87 C21.66 35.29 22.35 36.71 23.05 38.12 C31.43 55.2 43.29 79.46 43.06 98.75 C43.05 99.73 43.04 100.72 43.04 101.73 C43.02 102.48 43.01 103.23 43 104 C38.47 103.49 38.47 103.49 36.42 101.36 C19.12 73.38 -0.92 33.98 0 0 Z " fill="#000000" transform="translate(401,220)"/>
<path d="M0 0 C18.18 17.08 23.22 66.33 24.12 90.2 C24.24 96.8 24.18 103.4 24 110 C22.02 110.5 22.02 110.5 20 111 C16.98 106.83 15.22 103.27 13.82 98.26 C13.64 97.62 13.45 96.98 13.27 96.33 C12.69 94.26 12.12 92.19 11.56 90.12 C11.37 89.42 11.17 88.71 10.97 87.97 C7.42 75.1 4.27 62.17 2 49 C1.81 47.88 1.81 47.88 1.61 46.74 C-0.92 31.34 -0.19 15.54 0 0 Z " fill="#000000" transform="translate(452,141)"/>
<path d="M0 0 C0.99 0.33 1.98 0.66 3 1 C12.97 30.48 10.24 68.01 7.12 98.31 C7.06 99.02 6.99 99.72 6.92 100.44 C6.42 104.83 5.17 108.17 3 112 C1.12 111.88 1.12 111.88 -1 111 C-3.7 104.4 -3.98 97.41 -4.62 90.38 C-4.69 89.67 -4.76 88.97 -4.82 88.24 C-7.56 58.22 -5.31 29.58 0 0 Z " fill="#000000" transform="translate(528,194)"/>
<path d="M0 0 C0.33 0 0.66 0 1 0 C1.68 31.25 -2.31 60.38 -10.56 90.5 C-10.84 91.53 -11.12 92.57 -11.41 93.63 C-15.68 108.68 -15.68 108.68 -20.13 111.21 C-20.75 111.47 -21.36 111.73 -22 112 C-32.35 80.67 -13.53 29.57 -1 1 C-0.67 0.67 -0.34 0.34 0 0 Z " fill="#000000" transform="translate(606,141)"/>
<path d="M0 0 C7.49 0 11.6 4.2 17 9 C17.67 9.59 18.35 10.18 19.04 10.79 C26.12 17.05 32.85 23.63 39.54 30.3 C41.42 32.17 43.32 34.04 45.21 35.9 C55.31 45.91 64.41 56.48 72.06 68.5 C72.78 69.6 73.49 70.71 74.22 71.84 C75.92 74.86 77.04 77.69 78 81 C69.55 75.89 61.68 70.19 54 64 C53.19 63.35 53.19 63.35 52.36 62.69 C37.58 50.68 23.59 37.13 12 22 C10.56 20.25 9.13 18.5 7.69 16.75 C0.2 7.32 0.2 7.32 -0.25 2.06 C-0.17 1.38 -0.09 0.7 0 0 Z " fill="#000000" transform="translate(792,807)"/>
<path d="M0 0 C8.54 2.91 16.7 6.49 24.75 10.56 C24.75 11.22 24.75 11.88 24.75 12.56 C-6.48 12 -36.45 9.19 -66.38 -0.5 C-67.07 -0.72 -67.76 -0.94 -68.47 -1.17 C-73.41 -2.87 -78.18 -5.11 -82.25 -8.44 C-82.58 -9.43 -82.91 -10.42 -83.25 -11.44 C-63.1 -21.51 -19.6 -6.46 0 0 Z " fill="#000000" transform="translate(891.25,605.4375)"/>
<path d="M0 0 C6.41 3.04 9.61 7.88 12.5 14.22 C14.25 19.74 14.94 26.35 12.3 31.61 C9.07 36.01 5.76 39.47 0.5 41.22 C-6.48 41.76 -11.02 39.97 -16.69 35.97 C-22.27 30.51 -24.59 24.72 -24.88 16.97 C-24.81 11.16 -23.33 7.55 -19.5 3.22 C-13.95 -2.06 -7.09 -2.2 0 0 Z M-13.31 9.54 C-15.93 13.25 -15.8 16.83 -15.5 21.22 C-13.78 25.84 -11.8 28.74 -7.5 31.22 C-4.59 31.73 -2.51 31.56 0.5 31.22 C2.55 29.69 3.36 28.64 4.15 26.21 C4.78 21.26 4.64 17.93 1.8 13.73 C-1.24 10.21 -4.09 8.42 -8.69 7.79 C-11.48 8 -11.48 8 -13.31 9.54 Z " fill="#000000" transform="translate(219.5,1003.77734375)"/>
<path d="M0 0 C4.7 3.1 7.92 6.77 10.31 11.88 C12.11 20.7 10.61 28.7 5.81 36.31 C1.72 40.05 -2.58 42.68 -8.21 43.1 C-14.28 42.62 -18.18 39.87 -22.31 35.62 C-26.29 29.52 -27.04 22.71 -25.6 15.68 C-23.55 8.55 -20.12 3.66 -13.62 0 C-8.61 -1.5 -4.97 -1.72 0 0 Z M-15.06 12.94 C-17.61 16.99 -17.26 20.95 -16.66 25.55 C-15.72 29.33 -14.35 30.91 -11.06 32.94 C-8.15 33.3 -5.8 32.99 -3.06 31.94 C0.7 28.27 1.84 25.36 2.19 20.12 C2.13 16.09 1.21 13.34 -1.06 9.94 C-3.26 8.33 -4.83 7.98 -7.5 7.5 C-11.28 8.15 -12.67 10.02 -15.06 12.94 Z " fill="#000000" transform="translate(812.0625,991.0625)"/>
<path d="M0 0 C5.36 3.56 9.06 7.28 10.73 13.6 C11.38 19.38 9.84 24.29 7.31 29.44 C3.54 33.62 0.37 34.75 -5.06 35.32 C-11.86 35.56 -17.51 35.29 -23 31 C-26.89 27.25 -30.6 23.16 -31.3 17.63 C-31.33 12.34 -31.13 8.48 -28 4 C-19.8 -3.85 -10.11 -5.59 0 0 Z M-20 8 C-22.54 11.8 -22.6 13.49 -22 18 C-19.72 21.91 -17.09 24.45 -13.06 26.5 C-8.48 27.25 -4.82 26.79 -0.56 24.94 C1.5 22.38 1.5 20.21 1.31 16.99 C0.84 13.97 0 12.32 -2 10 C-7.57 6.04 -13.77 3.62 -20 8 Z " fill="#000000" transform="translate(201,1049)"/>
<path d="M0 0 C4.76 2.61 7.53 5.89 10.12 10.69 C12.5 19.21 12.24 26.65 8.25 34.62 C4.64 38.81 1.04 42.09 -4.66 42.6 C-11.38 42.18 -15.54 39.96 -20.31 35.19 C-24.38 28.88 -26.26 21.85 -25.12 14.38 C-23.27 7.71 -19.93 3.15 -14.12 -0.62 C-9.07 -2.31 -4.84 -2.21 0 0 Z M-12.81 9.25 C-15.98 13.53 -16.4 17.12 -16.12 22.38 C-15.28 26.29 -13.54 28.92 -10.81 31.88 C-8.19 33.62 -8.19 33.62 -5.06 33.38 C-1.75 32.25 -0.29 31.1 1.88 28.38 C3.58 23.25 3.42 19.02 1.19 14.12 C-0.69 10.71 -2.42 8.86 -6.12 7.38 C-10.12 6.99 -10.12 6.99 -12.81 9.25 Z " fill="#000000" transform="translate(265.125,991.625)"/>
<path d="M0 0 C2.08 1.87 3.38 3.66 5 6 C5.43 6.62 5.87 7.24 6.31 7.88 C7.92 12.84 7.57 17.36 5.5 22.06 C2.1 28.11 -2.97 32.5 -9.44 35 C-15 36.53 -19.98 36.42 -25.24 33.95 C-28.95 31.76 -31.7 29.71 -34 26 C-35.46 20.15 -35.41 14.56 -33 9 C-29.05 2.88 -23.92 -0.59 -16.96 -2.59 C-10.91 -3.86 -5.35 -3.02 0 0 Z M-22 10 C-24.78 13.2 -25.98 14.87 -26.06 19.12 C-24.68 22.86 -23.48 24.07 -20 26 C-14.38 26.62 -10.83 26.18 -6 23 C-2.95 20.11 -2.09 18.62 -1.5 14.44 C-1.77 11.04 -1.77 11.04 -3.44 8.62 C-9.78 4.6 -16.35 5.14 -22 10 Z " fill="#000000" transform="translate(886,1049)"/>
<path d="M0 0 C3.82 2.9 6.09 5.79 7.88 10.25 C8.91 19.07 7.24 26.46 1.94 33.75 C-2.32 37.72 -6.55 40.12 -12.43 40.57 C-18.38 40.26 -22.68 38.64 -26.88 34.38 C-30.92 29.02 -30.49 22.8 -29.88 16.38 C-27.85 9.21 -23.07 3.65 -17.06 -0.62 C-11.32 -2.43 -5.47 -2.81 0 0 Z M-18.88 12.38 C-20.65 15.29 -21.15 17.47 -21.12 20.88 C-21.13 21.63 -21.14 22.38 -21.14 23.16 C-20.84 25.64 -20.17 27.25 -18.88 29.38 C-16.43 31.21 -15.08 31.38 -12 31.31 C-7.27 29.89 -4.08 27.35 -1.5 23.12 C-0.36 18.12 0.29 13.36 -2.38 8.81 C-9.17 4.9 -13.97 7.24 -18.88 12.38 Z " fill="#000000" transform="translate(859.875,1004.625)"/>
<path d="M0 0 C2.75 1.83 3.64 3.38 5.06 6.38 C5.38 9.24 5.54 11.83 5.5 14.69 C5.5 15.44 5.49 16.2 5.49 16.98 C5.35 22.69 4.32 26.59 1.06 31.38 C-0.59 31.38 -2.24 31.38 -3.94 31.38 C-8.02 23.21 -8.97 14.33 -6.94 5.38 C-3.78 -1.22 -3.78 -1.22 0 0 Z " fill="#000000" transform="translate(549.9375,858.625)"/>
<path d="M0 0 C3.52 2.45 4.67 5.57 5.54 9.7 C6.46 16.49 6.35 23.75 2.65 29.71 C1.06 31.44 1.06 31.44 -1.62 31.69 C-2.39 31.61 -3.15 31.52 -3.94 31.44 C-6.73 25.9 -7.41 21.54 -7.31 15.38 C-7.33 14.21 -7.33 14.21 -7.35 13.02 C-7.32 8.11 -6.65 4.68 -3.94 0.44 C-1.94 -0.56 -1.94 -0.56 0 0 Z " fill="#000000" transform="translate(510.9375,858.5625)"/>
</svg>
