<?xml version="1.0" encoding="utf-8"?>
<!-- Generator: Adobe Illustrator 23.0.1, SVG Export Plug-In . SVG Version: 6.00 Build 0)  -->
<svg version="1.0" id="Слой_1" xmlns="http://www.w3.org/2000/svg" xmlns:xlink="http://www.w3.org/1999/xlink" x="0px" y="0px"
	 viewBox="0 0 720 720" style="enable-background:new 0 0 720 720;" xml:space="preserve">
<path d="M520.3,225.1c-7-2-14.3,2.2-16.3,9.2c-1,3.7-0.4,7.4,1.5,10.4c-22.2,32.6-61.6,53.1-101.1,52.2c-5.1-0.1-10.2-0.6-15.3-1.4
	c9.4-0.5,19-3,28.6-7.4c26.3-12,49.8-37.5,59.2-64.1c1.1,0.4,2.2,0.6,3.4,0.6c5.5,0,9.9-4.4,9.9-9.9c0-5.5-4.4-9.9-9.9-9.9
	c-5.5,0-9.9,4.4-9.9,9.9c0,1.7,0.4,3.2,1.2,4.6c-8.3,25.8-31,51-56.6,62.8c-8.8,4-20.8,7.7-34,6.8c2.9-1.1,5.7-2.5,8.3-4.1
	c7.6-4.6,14.4-11.4,20.9-20.7c11-15.7,17.9-34.1,20.1-53.1c4.1-1.2,7.1-5,7.1-9.5c0-5.5-4.4-9.9-9.9-9.9c-5.5,0-9.9,4.4-9.9,9.9
	c0,4.1,2.5,7.6,6.1,9.1c-2.1,17.8-8.7,34.9-18.9,49.6c-6,8.5-12.1,14.7-18.9,18.9c-2.4,1.5-11.9,6.8-21.8,5.8
	c-0.4-0.2-0.9-0.3-1.3-0.5c-0.7-0.3-1.4-0.3-2.1-0.1c-2.9-0.8-5.8-2.2-8.5-4.5c-6.6-44.9,11.6-93.4,46.3-122.7
	c0.8,0.4,1.6,0.7,2.5,1c7,2,14.3-2.2,16.3-9.2c2-7-2.2-14.3-9.2-16.3c-7-2-14.3,2.2-16.3,9.2c-1.1,3.8-0.3,7.7,1.8,10.8
	c-35.5,30.5-54.3,80.2-48.1,126.5c-0.1,0-0.1,0-0.2,0c-0.5-0.3-0.9-0.6-1.4-0.9c-19.9-20-28.1-45.6-29.2-62.8
	c-1-16.8,0.7-40.3,14.9-57c0.3-0.4,0.5-0.8,0.6-1.2c1.5,0.8,3.1,1.4,4.9,1.4c5.5,0,9.9-4.4,9.9-9.9c0-5.5-4.4-9.9-9.9-9.9
	c-5.5,0-9.9,4.4-9.9,9.9c0,1.6,0.4,3.1,1.1,4.4c-0.7,0.2-1.3,0.5-1.8,1c-15.6,18.3-17.6,43.7-16.5,61.7c0.8,12.7,5.2,29.6,14.7,45.8
	c-6.9-6.8-12.9-14.4-17.9-22.7c-20.4-34.1-22-78.9-4.3-114.4c0.4,0.2,0.8,0.4,1.3,0.5c7,2,14.3-2.2,16.3-9.2c2-7-2.2-14.3-9.2-16.3
	c-7-2-14.3,2.2-16.3,9.2c-1.2,4.3-0.1,8.7,2.5,11.9c0,0,0,0,0,0c-19.2,37.6-17.6,85.4,4.1,121.7c10.1,16.9,24.6,31.2,41.3,41.6
	c-12.4,19.7-16.3,46.5-11,76c3.3,18.5,9.6,36.5,15.7,53.9c2.7,7.6,5.4,15.4,7.8,23.1c13.7,43.4,19.5,89,17.7,134.2
	c-9.4-16.8-33.6-30-45.1-35.6c-11.2-5.4-23.9-12.1-32.2-22.7c-9.9-12.6-12.6-30.5-6.9-45.4l4.6-12l-9.8,8.3
	c-31.5,26.6-39.6,76.8-18.1,112c9.9,16.2,33.1,35.4,58.2,40.4c4,0.8,7.9,1.2,11.7,1.2c9.7,0,18.4-2.7,25.7-7.9
	c3.9-2.8,7-5.7,9.5-8.8c-3.3,28.6-9.7,57-19.3,84.2c-0.6,1.7,0.3,3.6,2,4.2c0.4,0.1,0.7,0.2,1.1,0.2c1.4,0,2.6-0.8,3.1-2.2
	c28.5-80.9,29.9-170.5,4-252.2c-2.5-7.8-5.2-15.7-7.9-23.3c-6-17.1-12.2-34.9-15.4-52.9c-5-28-1.4-53.2,10.2-71.5
	c17.8,9.9,37.9,15.8,58.2,16.2c0.8,0,1.7,0,2.5,0c40.4,0,80.4-21,103.5-54.2c0.9,0.5,1.9,0.9,2.9,1.2c7,2,14.3-2.2,16.3-9.2
	C531.5,234.3,527.4,227,520.3,225.1 M355,604.1c-8.7,6.3-19.6,8.1-32.3,5.6c-23-4.6-44.9-22.7-53.9-37.4
	c-17.9-29.2-13.6-69.6,8.5-95.4c-1.8,14.1,2,28.9,10.8,40.1c9.2,11.7,22.6,18.8,34.5,24.6c10.2,4.9,43.5,22.5,45.2,41.7
	c0.1,1.2,0,2.4-0.2,3.7c-17.7,3.6-36.8-0.2-51.8-10.3c-15.8-10.7-26.8-28.5-29.3-47.5l-6.6,0.9c2.7,20.8,14.7,40.3,32.1,52.1
	c12.3,8.4,27.3,12.8,42.2,12.8c3.6,0,7.1-0.3,10.6-0.8C362.8,597.5,359.5,600.9,355,604.1"/>
</svg>
