<?xml version="1.0" encoding="UTF-8"?>
<!-- Generator: visioncortex VTracer 0.6.3 -->
<svg version="1.1" xmlns="http://www.w3.org/2000/svg" width="1280" height="1280">
<path d="M0 0 C1.99 1.09 3.96 2.21 5.92 3.36 C7.6 4.35 9.32 5.28 11.04 6.21 C25.61 14.22 36.73 24.89 44.75 39.44 C46.74 37.45 47.31 36.28 48.38 33.75 C50.75 28.87 54.27 25.46 58.75 22.44 C63.89 20.75 68.83 20.77 73.81 22.94 C83.27 28.21 87.93 40.05 90.76 49.98 C92.48 57.78 93.17 65.38 93.2 73.36 C93.27 76.69 93.64 79.21 95.1 82.21 C102.71 88.6 113.6 89.58 123.11 91.33 C138.58 94.2 153.73 97.7 168.75 102.44 C169.8 102.77 170.86 103.1 171.95 103.44 C188.11 108.62 203.53 114.94 218.75 122.44 C219.6 122.86 220.45 123.28 221.33 123.71 C232.98 129.5 243.98 136.14 254.85 143.27 C256.77 144.45 258.72 145.46 260.75 146.44 C261.09 145.65 261.09 145.65 261.45 144.84 C269.71 126.16 280.08 108.71 293.75 93.44 C294.21 92.93 294.66 92.42 295.13 91.89 C329.41 53.77 373.89 26.69 424.75 17.44 C425.61 17.28 426.46 17.12 427.34 16.96 C473.93 8.73 523.87 14.25 563.63 41.26 C574.75 49.15 583.61 57.17 589.75 69.44 C589.99 74.52 589.25 78.39 585.94 82.31 C583.74 84.65 581.35 86.55 578.75 88.44 C580.31 89.86 581.87 91.27 583.44 92.69 C584.31 93.48 585.18 94.27 586.07 95.08 C587.8 96.6 589.57 98.08 591.38 99.51 C600.63 107.01 611.51 119.92 613.09 132.04 C613.27 136.98 612.98 140.48 609.75 144.44 C608.06 146.25 608.06 146.25 606.75 147.44 C608.04 151.04 609.6 153.73 611.94 156.75 C616.36 162.93 619.24 169.61 622.03 176.64 C622.62 178.11 623.23 179.57 623.86 181.02 C625.93 186.58 626.08 192.18 626.19 198.06 C626.21 198.86 626.23 199.66 626.26 200.49 C626.23 206.26 625.03 210.64 621.75 215.44 C617.14 219.93 612.13 222.17 605.75 222.44 C605.95 223.22 606.16 224.01 606.37 224.82 C606.64 225.87 606.91 226.92 607.19 228 C607.59 229.55 607.59 229.55 608 231.13 C610.87 243.73 612.93 262 605.75 273.44 C602.38 277.71 599.37 279.52 594 280.25 C591.71 280.59 591.71 280.59 589.75 281.44 C588.18 284.64 587.5 287 586.75 290.44 C578.42 321.72 562.89 345.49 540.54 368.58 C539.05 370.13 537.59 371.7 536.14 373.28 C505.15 406.25 456.16 422.21 412 424 C411.19 424.02 410.38 424.04 409.55 424.06 C404.33 424.21 399.77 425.01 394.75 426.44 C394.62 427.28 394.62 427.28 394.48 428.14 C386.7 475.92 366.15 518.43 332.75 553.44 C331.55 554.72 331.55 554.72 330.33 556.02 C323.69 562.91 316.39 568.71 308.75 574.44 C308.2 574.85 307.65 575.27 307.08 575.7 C293.57 585.88 278.99 594.75 263.69 601.94 C258.81 604.25 256.4 605.63 254.56 610.75 C250.44 630.28 256.08 652.66 259.64 671.96 C259.78 672.76 259.93 673.55 260.08 674.37 C264.39 697.68 269.59 720.82 274.72 743.96 C276.03 749.92 277.34 755.87 278.65 761.83 C284.09 786.66 284.09 786.66 289.75 811.44 C290.36 811.31 290.97 811.19 291.61 811.07 C293.28 810.73 294.95 810.41 296.63 810.08 C298.71 809.65 300.78 809.17 302.84 808.64 C324.75 803.34 350.97 804.51 370.99 815.65 C395.79 831.72 411.12 854.27 417.32 883.08 C418.9 891.43 419.11 899.71 419.06 908.19 C419.06 908.9 419.06 909.61 419.05 910.34 C418.82 949.27 399.93 984.74 372.68 1011.88 C351.56 1032.33 323.78 1045.9 294.06 1045.75 C292.5 1045.75 292.5 1045.75 290.91 1045.75 C283.36 1045.65 276.34 1044.8 268.99 1043.09 C265.79 1042.45 263.01 1042.21 259.75 1042.44 C257.53 1044.1 256.09 1045.96 254.49 1048.2 C247.04 1058.57 237.94 1065.37 225.75 1069.44 C223.14 1069.67 220.55 1069.85 217.93 1069.98 C216.74 1070.05 216.74 1070.05 215.52 1070.11 C205.65 1070.59 195.77 1070.66 185.89 1070.71 C184.88 1070.72 183.88 1070.72 182.84 1070.73 C177.54 1070.75 172.24 1070.77 166.95 1070.79 C162.6 1070.8 158.25 1070.83 153.9 1070.87 C148.6 1070.92 143.29 1070.94 137.99 1070.95 C135.99 1070.96 133.98 1070.97 131.98 1071 C114.64 1071.19 100.61 1068.32 87.28 1056.19 C78.37 1046.91 74.37 1037.09 72.59 1024.59 C72.02 1021.39 72.02 1021.39 69.86 1019.57 C56.18 1012.2 33.56 1014.03 18.75 1017.44 C14.97 1019.1 14.97 1019.1 12.96 1022.5 C12.83 1023.67 12.83 1023.67 12.69 1024.88 C11.09 1034.9 7.96 1043.38 1.75 1051.44 C1.29 1052.06 0.82 1052.69 0.35 1053.34 C-6.11 1061.53 -16.84 1068.1 -27.19 1069.75 C-32.74 1070.37 -38.21 1070.59 -43.79 1070.58 C-45.15 1070.59 -45.15 1070.59 -46.53 1070.59 C-49.51 1070.6 -52.48 1070.6 -55.45 1070.61 C-57.54 1070.61 -59.62 1070.61 -61.71 1070.62 C-66.07 1070.62 -70.44 1070.62 -74.8 1070.62 C-80.37 1070.62 -85.93 1070.64 -91.49 1070.65 C-95.8 1070.66 -100.1 1070.67 -104.41 1070.67 C-106.46 1070.67 -108.51 1070.67 -110.56 1070.68 C-130.05 1070.75 -147.31 1070.23 -162.84 1056.85 C-165.75 1053.94 -167.95 1050.92 -170.03 1047.38 C-171.78 1044.57 -171.78 1044.57 -174.25 1042.44 C-179.22 1042.01 -183.55 1042.83 -188.38 1043.94 C-211.45 1048.61 -235.25 1044.78 -256.25 1034.44 C-257.18 1033.98 -257.18 1033.98 -258.13 1033.52 C-267.63 1028.73 -275.4 1022.53 -283.25 1015.44 C-284.3 1014.5 -285.36 1013.57 -286.41 1012.64 C-297.2 1003.04 -305.91 992.86 -313.25 980.44 C-313.63 979.81 -314 979.18 -314.39 978.54 C-332.05 948.73 -339.71 910.91 -331.51 876.95 C-327.09 860.43 -319.3 845.61 -307.25 833.44 C-306.52 832.66 -305.79 831.88 -305.03 831.07 C-290.07 815.42 -269.91 806.25 -248.25 805.44 C-247.34 805.4 -246.44 805.36 -245.5 805.32 C-231.01 804.99 -217.91 808.06 -204.25 812.44 C-204.16 811.83 -204.08 811.23 -203.99 810.61 C-202.45 800.65 -200.2 790.86 -197.99 781.04 C-197.25 777.74 -196.52 774.44 -195.78 771.14 C-193.69 761.76 -191.6 752.38 -189.49 743 C-168.42 674.31 -168.42 674.31 -171.25 606.44 C-172.83 605.07 -172.83 605.07 -174.79 604.18 C-175.5 603.81 -176.22 603.44 -176.96 603.05 C-177.74 602.66 -178.51 602.28 -179.31 601.88 C-193.93 594.14 -206.94 584.44 -219.25 573.44 C-219.77 572.97 -220.29 572.51 -220.82 572.03 C-224.34 568.88 -227.81 565.67 -231.25 562.44 C-232.01 561.75 -232.76 561.06 -233.54 560.34 C-264.95 530.6 -283.24 487.07 -293.65 445.99 C-293.87 445.13 -294.09 444.26 -294.31 443.37 C-294.71 441.77 -295.1 440.16 -295.48 438.55 C-296.63 433.86 -298.04 430.19 -301.25 426.44 C-304.69 425.16 -307.65 425.43 -311.25 425.88 C-346.97 429.41 -386 419.62 -417.25 402.44 C-418.27 401.9 -419.28 401.36 -420.33 400.8 C-434 393.25 -446.06 383.25 -457.25 372.44 C-458.17 371.57 -459.1 370.69 -460.05 369.8 C-466.71 363.36 -472.45 356.47 -478.01 349.07 C-479.11 347.62 -480.24 346.19 -481.37 344.77 C-498 323.22 -506.61 296.13 -510.25 269.44 C-510.82 269.29 -511.39 269.14 -511.97 268.99 C-517.73 267.32 -522.35 265.12 -526.25 260.44 C-528.85 254.9 -528.63 249.71 -528.62 243.69 C-528.62 242.58 -528.62 241.47 -528.62 240.32 C-528.48 229.9 -527.44 218.72 -522.25 209.44 C-522.83 209.28 -523.41 209.12 -524.01 208.96 C-530.82 206.92 -535.21 204.75 -539.06 198.5 C-542.42 189.31 -542.05 179.33 -538.25 170.44 C-537.99 169.81 -537.72 169.19 -537.45 168.55 C-532.23 156.46 -526.05 145.34 -517.25 135.44 C-518.05 134.51 -518.86 133.58 -519.69 132.62 C-522.29 129.63 -523.16 127.33 -523.56 123.31 C-522.46 109.69 -510.97 99.01 -501.25 90.44 C-495.73 85.92 -490.01 81.65 -484.25 77.44 C-485.08 76.97 -485.08 76.97 -485.93 76.48 C-486.65 76.06 -487.38 75.63 -488.12 75.19 C-488.84 74.77 -489.56 74.35 -490.3 73.92 C-493.32 71.62 -494.11 69.39 -494.66 65.7 C-494.86 59.28 -494.47 55.17 -490.13 50.29 C-489.51 49.68 -488.89 49.07 -488.25 48.44 C-487.62 47.79 -486.99 47.15 -486.34 46.49 C-459.41 20.87 -420.14 11.22 -384.06 11.19 C-383.31 11.19 -382.55 11.19 -381.78 11.19 C-323.87 11.27 -267.01 35.5 -225.71 76.01 C-224.2 77.48 -222.68 78.93 -221.15 80.39 C-214.07 87.19 -207.94 94.43 -202.25 102.44 C-201.84 103.01 -201.43 103.59 -201.01 104.18 C-190.59 118.99 -182.14 134.7 -175.25 151.44 C-170.99 149.96 -167.59 147.7 -163.94 145.12 C-121.33 116.05 -70.17 98.89 -19.76 90 C-18.67 89.81 -17.59 89.62 -16.47 89.42 C-15.51 89.25 -14.55 89.09 -13.56 88.91 C-11.24 88.54 -11.24 88.54 -9.25 87.44 C-10.07 86.69 -10.07 86.69 -10.9 85.93 C-26.42 71.15 -38.72 49.76 -39.45 27.98 C-39.47 26.34 -39.49 24.7 -39.5 23.06 C-39.53 21.84 -39.53 21.84 -39.56 20.6 C-39.6 14.04 -38.54 8.55 -34.6 3.2 C-33.75 2.39 -33.75 2.39 -32.88 1.56 C-32.31 1.01 -31.75 0.45 -31.16 -0.12 C-22.18 -6.9 -9.33 -4.86 0 0 Z M-28.25 10.44 C-33.17 19.96 -30.58 33.93 -27.64 43.67 C-23.69 54.85 -18.09 64.54 -10.25 73.44 C-9.51 74.45 -8.76 75.46 -8 76.5 C-2.57 83 5.63 87.96 12.75 92.44 C13.41 92.44 14.07 92.44 14.75 92.44 C14.75 93.1 14.75 93.76 14.75 94.44 C14.09 94.5 13.44 94.56 12.76 94.62 C-55.33 101 -120.72 124.23 -176.46 164.2 C-178.25 165.44 -178.25 165.44 -180.25 166.44 C-180.4 165.89 -180.54 165.34 -180.7 164.78 C-188.3 137.91 -202.73 114.13 -221.25 93.44 C-221.74 92.88 -222.23 92.33 -222.74 91.76 C-258.24 51.96 -312.68 23.75 -366.25 20.44 C-386.05 19.73 -405.99 19.17 -425.25 24.44 C-426.04 24.65 -426.83 24.87 -427.64 25.09 C-438.82 28.25 -449.07 32.88 -459.25 38.44 C-460.34 39.03 -461.44 39.62 -462.56 40.22 C-477.13 48.27 -477.13 48.27 -486.25 61.5 C-486.54 64.47 -486.54 64.47 -484.75 66.48 C-481.52 69.01 -478.24 69.81 -474.31 70.69 C-473.61 70.86 -472.91 71.03 -472.18 71.21 C-468.48 72.09 -465.05 72.65 -461.25 72.44 C-463.9 75.51 -467.08 77.09 -470.62 79 C-485.94 87.52 -505.26 101.45 -513.25 117.44 C-513.66 120.5 -513.72 123.38 -513.25 126.44 C-510.53 129.83 -508.1 130.63 -503.94 131.19 C-502.72 131.27 -501.5 131.35 -500.25 131.44 C-500.97 132.15 -501.68 132.86 -502.42 133.6 C-517.27 148.48 -531.8 165.91 -532.62 187.94 C-532.6 191.78 -532.34 194.07 -529.88 197.06 C-525.67 200.87 -522.57 200.56 -517.12 200.5 C-515.99 200.49 -515.99 200.49 -514.84 200.49 C-512.98 200.47 -511.11 200.46 -509.25 200.44 C-509.6 201.34 -509.6 201.34 -509.95 202.25 C-511.01 205 -512.07 207.75 -513.12 210.5 C-513.49 211.44 -513.85 212.39 -514.23 213.36 C-519.3 226.59 -523.66 242.53 -518.25 256.44 C-516.18 258.48 -514.92 259.35 -512.03 259.73 C-511.28 259.7 -510.53 259.66 -509.75 259.62 C-509 259.6 -508.24 259.57 -507.47 259.54 C-506.74 259.51 -506 259.47 -505.25 259.44 C-503.93 259.44 -502.61 259.44 -501.25 259.44 C-501.18 260.61 -501.1 261.79 -501.02 263 C-497.7 307.17 -475.8 345.59 -442.62 374.5 C-420.35 393.32 -394.28 404.71 -366.31 412.25 C-365.59 412.45 -364.87 412.64 -364.13 412.84 C-352.05 415.94 -340.26 416.76 -327.86 416.7 C-325.39 416.69 -322.91 416.7 -320.44 416.71 C-310.54 416.72 -301.03 416.04 -291.25 414.44 C-290.98 415.77 -290.98 415.77 -290.7 417.13 C-284.45 447.76 -277.08 476.68 -262.25 504.44 C-261.9 505.09 -261.56 505.75 -261.2 506.42 C-249.25 528.83 -233.9 550.15 -214.25 566.44 C-213.31 567.27 -212.37 568.1 -211.4 568.95 C-203.48 575.9 -195.17 581.85 -186.25 587.44 C-185.61 587.84 -184.97 588.25 -184.31 588.67 C-128.03 624.18 -58.05 632.21 7.19 634 C7.93 634.02 8.68 634.04 9.45 634.06 C72.73 635.79 135.12 632.56 196.75 617.44 C197.92 617.15 199.1 616.87 200.3 616.57 C250.61 604.05 304.77 576.92 337.75 535.44 C338.52 534.49 339.28 533.53 340.07 532.55 C364.32 502.01 379.82 465.02 385.91 426.53 C386.93 422.78 388.25 420.41 390.75 417.44 C395.74 414.88 401.02 415.16 406.5 415.06 C454.61 413.48 499.48 396.16 534.34 362.79 C535.53 361.64 536.75 360.51 537.96 359.39 C563.2 335.33 576.72 303.47 581.75 269.44 C582.5 269.76 583.26 270.08 584.03 270.41 C587.52 271.73 590.05 271.83 593.75 271.44 C597.8 269.01 599.29 266.85 600.75 262.44 C601.16 258.82 601.08 255.2 601.06 251.56 C601.06 250.54 601.05 249.51 601.05 248.45 C600.87 236.08 598.45 224.92 593.75 213.44 C594.69 213.47 595.63 213.51 596.6 213.54 C597.85 213.57 599.09 213.6 600.38 213.62 C601.6 213.66 602.83 213.69 604.1 213.73 C608.95 213.34 612.2 212.08 615.57 208.52 C619.44 201.72 617.61 193.93 615.7 186.75 C610.79 169.67 602.6 156.73 589.75 144.44 C589.75 144.11 589.75 143.78 589.75 143.44 C590.35 143.32 590.96 143.2 591.58 143.07 C592.38 142.9 593.18 142.74 594 142.56 C594.79 142.4 595.58 142.24 596.39 142.07 C599.76 141.17 599.76 141.17 602.75 139.44 C604.41 136.11 604.98 134.31 604.02 130.68 C599.63 122.23 594.17 115.4 587.75 108.44 C586.96 107.56 586.16 106.68 585.34 105.78 C578.57 98.65 570.8 93.02 562.75 87.44 C562.18 87.04 561.62 86.64 561.03 86.23 C558.16 84.09 558.16 84.09 554.75 83.44 C554.75 82.78 554.75 82.12 554.75 81.44 C555.57 81.4 556.39 81.36 557.24 81.32 C569.06 80.87 569.06 80.87 579.52 76 C581.02 74.42 581.02 74.42 580.81 71.75 C575.82 56.18 556.43 46.39 542.95 39.34 C528.76 32.11 514.43 27.26 498.75 24.44 C496.87 24.1 496.87 24.1 494.96 23.75 C438.54 15.47 381.81 32.79 336.2 66 C329.89 70.69 323.99 75.78 318.23 81.14 C316.1 83.12 313.92 85 311.69 86.88 C291.12 104.89 272.78 132.99 265.75 159.44 C259.19 156.3 253.03 152.85 246.94 148.88 C207.59 123.75 163.45 106.21 117.19 98.86 C116.37 98.73 115.55 98.6 114.71 98.46 C110.66 97.82 106.62 97.21 102.56 96.65 C101.09 96.43 99.61 96.21 98.13 95.99 C96.83 95.81 95.52 95.63 94.18 95.44 C90.1 94.25 88.4 92.71 85.75 89.44 C84.73 86.37 84.61 84.2 84.57 80.98 C84.25 63.98 83.38 48.16 73.75 33.44 C70.99 30.9 70.09 30.47 66.25 30.12 C62.94 30.42 61.48 30.69 58.75 32.44 C48.74 46.26 48.68 65.16 48.75 81.44 C48.54 80.6 48.34 79.77 48.13 78.91 C41.44 50.72 41.44 50.72 24.75 27.44 C24.07 26.75 23.4 26.07 22.7 25.36 C12.66 15.76 -3.02 5.55 -17.12 4.81 C-22.45 5.08 -24.77 6.43 -28.25 10.44 Z M226.7 616.38 C225.45 616.79 224.21 617.21 222.93 617.64 C222.27 617.86 221.61 618.08 220.93 618.31 C207.94 622.67 194.97 626.31 181.58 629.19 C180.43 629.45 179.28 629.7 178.1 629.96 C176.58 630.29 176.58 630.29 175.03 630.61 C174.28 630.89 173.53 631.16 172.75 631.44 C171.43 634.25 171.43 634.25 172.52 636.08 C173.14 636.98 173.14 636.98 173.78 637.89 C174.24 638.56 174.69 639.24 175.17 639.93 C175.67 640.66 176.17 641.38 176.69 642.12 C200 677.05 209.94 721.76 202.12 763.31 C201.42 766.71 200.62 770.08 199.75 773.44 C199.43 774.71 199.43 774.71 199.1 776 C188.31 817.53 161.33 853.82 124.39 875.85 C86.41 897.53 41.15 903.48 -1.13 891.98 C-20.08 886.48 -38.83 877.83 -54.25 865.44 C-55.24 864.65 -56.23 863.86 -57.25 863.05 C-60.67 860.28 -63.98 857.39 -67.25 854.44 C-67.89 853.86 -68.53 853.28 -69.19 852.69 C-79.33 843.42 -87.06 833.72 -93.89 821.81 C-95.22 819.49 -96.59 817.19 -97.96 814.9 C-118.69 779.73 -124.97 734.72 -114.97 695.1 C-109.55 675.1 -101.79 657.65 -90.75 640.2 C-90.3 639.48 -89.84 638.75 -89.38 638.01 C-88.97 637.37 -88.56 636.72 -88.13 636.06 C-87.09 634.45 -87.09 634.45 -87.25 632.44 C-87.96 632.29 -88.68 632.14 -89.41 631.98 C-106.13 628.43 -122.54 624.48 -138.71 618.91 C-139.75 618.56 -139.75 618.56 -140.82 618.19 C-142.67 617.55 -144.53 616.89 -146.38 616.22 C-149.29 615.14 -149.29 615.14 -152.25 616.44 C-153.14 618.54 -153.14 618.54 -153.66 621.18 C-153.89 622.21 -154.13 623.24 -154.37 624.3 C-154.62 625.44 -154.87 626.58 -155.12 627.76 C-155.39 628.96 -155.66 630.15 -155.94 631.39 C-156.69 634.69 -157.42 638.01 -158.15 641.32 C-158.93 644.85 -159.72 648.38 -160.52 651.9 C-162.03 658.66 -163.54 665.42 -165.04 672.18 C-166.68 679.62 -168.35 687.05 -170.01 694.48 C-172.14 703.99 -174.27 713.5 -176.38 723.01 C-176.54 723.74 -176.7 724.46 -176.86 725.21 C-177.51 728.14 -178.16 731.07 -178.81 734 C-181.14 744.49 -183.5 754.98 -185.88 765.46 C-186.88 769.87 -187.87 774.28 -188.86 778.69 C-189.8 782.86 -190.75 787.02 -191.7 791.19 C-192.42 794.34 -193.13 797.49 -193.84 800.64 C-194.23 802.34 -194.23 802.34 -194.63 804.06 C-194.86 805.1 -195.09 806.14 -195.33 807.2 C-195.63 808.55 -195.63 808.55 -195.94 809.92 C-196.28 812.7 -196.02 814.75 -195.25 817.44 C-193.84 818.91 -193.84 818.91 -191.98 819.89 C-191.32 820.28 -190.66 820.67 -189.98 821.08 C-188.94 821.66 -188.94 821.66 -187.88 822.25 C-187.19 822.66 -186.5 823.06 -185.8 823.48 C-181.79 825.83 -181.79 825.83 -177.25 826.44 C-177.23 825.41 -177.21 824.38 -177.19 823.32 C-177.11 819.48 -177.02 815.65 -176.93 811.81 C-176.89 810.16 -176.86 808.5 -176.83 806.84 C-176.78 804.46 -176.72 802.07 -176.66 799.68 C-176.65 798.58 -176.65 798.58 -176.63 797.45 C-176.51 793.1 -175.84 789.49 -174.25 785.44 C-172.93 785.44 -171.61 785.44 -170.25 785.44 C-170.09 795.17 -169.95 804.9 -169.81 814.62 C-169.8 815.8 -169.8 815.8 -169.78 817.01 C-169.41 842.86 -169.18 868.72 -169.01 894.57 C-169 896.93 -168.98 899.29 -168.96 901.64 C-168.86 916.7 -168.77 931.75 -168.68 946.81 C-168.65 952.9 -168.61 959 -168.57 965.1 C-168.55 968.66 -168.53 972.22 -168.51 975.79 C-168.44 989.63 -168.3 1003.46 -167.86 1017.3 C-167.83 1018.39 -167.8 1019.49 -167.77 1020.62 C-167.32 1032.89 -165.07 1041.06 -156.69 1050.25 C-142.06 1063.38 -123.65 1061.76 -105.02 1061.77 C-102.9 1061.78 -100.78 1061.79 -98.66 1061.79 C-94.23 1061.81 -89.81 1061.81 -85.39 1061.81 C-79.75 1061.81 -74.12 1061.84 -68.48 1061.87 C-64.11 1061.89 -59.73 1061.9 -55.36 1061.89 C-53.28 1061.9 -51.21 1061.91 -49.13 1061.92 C-30.79 1062.17 -30.79 1062.17 -14.04 1055.36 C-13.32 1054.64 -12.61 1053.93 -11.88 1053.19 C-11.08 1052.4 -10.29 1051.61 -9.47 1050.8 C-8.74 1050.02 -8.01 1049.24 -7.25 1048.44 C-6.23 1047.41 -6.23 1047.41 -5.18 1046.36 C5.32 1035.23 3.86 1020.82 4.01 1006.33 C4.03 1004.25 4.06 1002.17 4.09 1000.09 C4.16 994.93 4.22 989.78 4.28 984.62 C4.33 980.23 4.38 975.84 4.44 971.45 C4.47 969.41 4.49 967.36 4.51 965.32 C4.53 964.08 4.54 962.84 4.56 961.56 C4.57 960.47 4.59 959.38 4.6 958.26 C4.84 953.69 4.84 953.69 5.75 951.44 C6.74 951.11 7.73 950.78 8.75 950.44 C9.41 950.77 10.07 951.1 10.75 951.44 C11.73 954.38 11.9 956.39 11.96 959.46 C11.98 960.49 12 961.53 12.02 962.6 C12.04 964.23 12.04 964.23 12.07 965.89 C12.09 966.89 12.1 967.89 12.12 968.92 C12.19 972.65 12.25 976.39 12.31 980.12 C12.53 992.65 12.53 992.65 12.75 1005.44 C32.55 1005.44 52.35 1005.44 72.75 1005.44 C73.04 988.79 73.04 988.79 73.32 972.14 C73.36 970.06 73.39 967.97 73.43 965.89 C73.45 964.8 73.47 963.72 73.48 962.6 C73.51 961.04 73.51 961.04 73.54 959.46 C73.56 958.56 73.58 957.66 73.59 956.73 C73.75 954.44 73.75 954.44 74.75 951.44 C76.81 950.75 76.81 950.75 78.75 950.44 C79.67 958.04 79.99 965.61 80.2 973.26 C80.25 975.37 80.31 977.47 80.37 979.58 C80.52 984.81 80.67 990.04 80.81 995.27 C80.93 999.71 81.06 1004.14 81.19 1008.58 C81.25 1010.64 81.3 1012.7 81.36 1014.76 C81.77 1029.07 82.82 1039.44 93 1050.31 C102.19 1058.95 112.91 1061.76 125.23 1061.7 C126.15 1061.7 127.06 1061.7 128 1061.71 C131 1061.72 134 1061.71 137 1061.7 C139.11 1061.7 141.21 1061.71 143.32 1061.71 C147.73 1061.71 152.14 1061.71 156.55 1061.7 C162.16 1061.69 167.77 1061.69 173.38 1061.71 C177.73 1061.71 182.08 1061.71 186.43 1061.71 C188.5 1061.7 190.56 1061.71 192.63 1061.71 C220.86 1061.98 220.86 1061.98 244.55 1047.94 C255.42 1035.59 252.97 1016.58 253.28 1001.1 C253.3 1000.1 253.32 999.1 253.34 998.07 C254.09 960.26 254.09 922.44 254.27 884.62 C254.32 873.67 254.37 862.72 254.43 851.77 C254.54 829.32 254.65 806.88 254.75 784.44 C257.19 784.81 257.19 784.81 259.75 785.44 C263.54 793.02 262.05 804.84 262.31 813.12 C262.36 814.41 262.4 815.7 262.44 817.02 C262.55 820.16 262.65 823.3 262.75 826.44 C269.86 823.82 269.86 823.82 274.75 818.44 C276.96 795.91 271.79 773.05 267.4 751.07 C267.23 750.24 267.07 749.4 266.89 748.54 C262.21 725.15 256.88 701.9 251.58 678.64 C250.14 672.34 248.71 666.03 247.28 659.72 C246.17 654.81 245.05 649.91 243.93 645 C243.4 642.67 242.87 640.34 242.35 638.01 C241.62 634.79 240.88 631.57 240.15 628.35 C239.93 627.4 239.72 626.45 239.5 625.47 C239.29 624.6 239.09 623.73 238.89 622.83 C238.71 622.07 238.54 621.31 238.36 620.54 C237.72 618.34 236.83 616.45 235.75 614.44 C232.3 614.44 229.96 615.27 226.7 616.38 Z M139 636.31 C136.25 636.69 133.5 637.05 130.75 637.42 C130.06 637.51 129.38 637.6 128.68 637.69 C122.49 638.5 116.29 639.12 110.06 639.62 C108.78 639.73 108.78 639.73 107.47 639.84 C91.53 641.08 75.6 641.6 59.62 641.61 C57.84 641.61 56.07 641.61 54.3 641.62 C50.6 641.62 46.91 641.62 43.22 641.62 C39.52 641.62 35.81 641.63 32.1 641.64 C13.37 641.71 -5.33 641.65 -24.04 640.53 C-25.05 640.47 -25.05 640.47 -26.1 640.4 C-37.28 639.72 -48.38 638.51 -59.49 637.02 C-72.51 635.19 -72.51 635.19 -84.36 639.46 C-88.87 644.18 -92.07 649.78 -95.25 655.44 C-95.6 656.06 -95.95 656.67 -96.31 657.31 C-108.39 678.96 -114.52 703.72 -115.25 728.44 C-115.29 729.37 -115.33 730.29 -115.37 731.25 C-116.22 767.19 -103.94 807.82 -79.56 834.94 C-78.13 836.44 -76.69 837.94 -75.25 839.44 C-74.16 840.72 -73.08 842.02 -72 843.31 C-47.79 870.85 -11.67 888.85 24.75 892.44 C27.43 892.55 30.09 892.62 32.77 892.64 C33.51 892.65 34.25 892.65 35.01 892.66 C37.38 892.68 39.75 892.69 42.12 892.69 C42.93 892.69 43.74 892.69 44.58 892.69 C56.25 892.67 67.37 892.28 78.75 889.44 C79.46 889.28 80.16 889.12 80.89 888.95 C104.91 883.45 126.2 871.55 144.75 855.44 C145.7 854.62 146.65 853.8 147.63 852.96 C176.43 827.69 197.15 788.93 199.75 750.44 C201.38 710.85 194.1 666.13 166.75 635.44 C165.05 633.74 162.93 634.27 160.61 634.26 C153.31 634.32 146.22 635.29 139 636.31 Z M-305.87 844.4 C-323.37 866.69 -328 895.59 -324.94 923.23 C-319.98 957.63 -301.18 991.95 -273.24 1012.95 C-249.02 1030.48 -222.6 1040.15 -192.33 1036.04 C-187.2 1035.1 -182.3 1033.8 -177.25 1032.44 C-177.25 1024.52 -177.25 1016.6 -177.25 1008.44 C-179.7 1009.26 -182.16 1010.09 -184.69 1010.94 C-201.45 1016.07 -218.46 1014.17 -234.06 1006.25 C-253.68 994.84 -267.61 977.55 -273.54 955.6 C-277.85 936.45 -277.29 917.25 -267.31 899.88 C-266.32 898.38 -265.3 896.9 -264.25 895.44 C-263.81 894.81 -263.37 894.17 -262.92 893.52 C-255.53 883.88 -243.02 878.35 -231.25 876.44 C-213.99 875.06 -195.3 879.97 -181.79 891.19 C-180.95 891.93 -180.11 892.67 -179.25 893.44 C-178.59 893.11 -177.93 892.78 -177.25 892.44 C-177.32 886.53 -177.41 880.63 -177.51 874.73 C-177.55 872.72 -177.57 870.72 -177.6 868.71 C-177.06 850.45 -177.06 850.45 -183.52 833.94 C-186.47 831.24 -189.45 829.23 -193 827.44 C-193.65 827.1 -194.3 826.77 -194.97 826.42 C-233.32 807.22 -276.61 811.06 -305.87 844.4 Z M267.65 834.15 C259.55 843.91 262.41 864.11 262.56 875.94 C262.58 878.03 262.59 880.13 262.6 882.22 C262.64 887.29 262.69 892.37 262.75 897.44 C266.26 895.77 268.82 893.75 271.75 891.19 C283.31 881.61 296.11 876.84 311.06 877 C312.07 877.01 313.08 877.02 314.12 877.02 C326.8 877.3 338.44 880.63 347.93 889.47 C361.97 904.51 365.51 922.13 364.88 942.08 C363.76 962.86 352.18 982.12 337.37 996.19 C329 1003.37 320.23 1008.07 309.75 1011.44 C308.67 1011.81 308.67 1011.81 307.56 1012.18 C291.88 1016.62 276.65 1012.92 262.75 1005.44 C260.63 1019.57 260.63 1019.57 264.75 1032.44 C277.5 1040.26 301.31 1037.71 315.14 1034.48 C335.85 1028.52 353.07 1018.24 368.75 1003.44 C369.95 1002.35 369.95 1002.35 371.18 1001.24 C396.14 977.75 409.31 943.23 410.75 909.44 C410.79 908.62 410.83 907.81 410.88 906.97 C411.59 880.07 401.67 855.43 383.38 835.91 C367.49 820.67 345.35 813.78 323.58 814.19 C303.85 815.46 283.23 821.46 267.65 834.15 Z M-259.31 901.95 C-269.01 914.39 -269.47 931.14 -267.97 946.28 C-264.68 965.77 -253.05 983.8 -237.19 995.44 C-226.45 1002.37 -216.35 1005.56 -203.69 1005.69 C-202.98 1005.7 -202.27 1005.71 -201.54 1005.72 C-194.89 1005.68 -187.46 1004.69 -181.77 1001.03 C-175.98 994.96 -177.96 980.31 -177.98 972.54 C-177.98 971.13 -177.98 969.73 -177.98 968.32 C-177.98 965.39 -177.98 962.46 -177.99 959.53 C-178 955.82 -177.99 952.1 -177.98 948.39 C-177.97 945.49 -177.98 942.59 -177.98 939.69 C-177.98 937.67 -177.98 935.65 -177.97 933.63 C-177.67 915.67 -177.67 915.67 -184.66 899.75 C-188.94 895.53 -193.94 892.82 -199.25 890.12 C-199.91 889.79 -200.58 889.45 -201.26 889.1 C-222.12 878.97 -244.52 884.61 -259.31 901.95 Z M270.81 903.31 C260.78 915.56 262.41 937.03 262.49 952.1 C262.5 954.5 262.49 956.91 262.48 959.31 C262.47 967.13 262.73 974.85 263.58 982.62 C263.65 983.29 263.72 983.96 263.79 984.65 C264.46 990.08 265.56 996.51 269.8 1000.24 C270.55 1000.6 271.29 1000.95 272.06 1001.31 C272.8 1001.68 273.54 1002.05 274.3 1002.43 C275.51 1002.93 275.51 1002.93 276.75 1003.44 C277.64 1003.8 278.53 1004.17 279.44 1004.55 C290.74 1007.59 304.25 1006.39 314.75 1001.44 C315.67 1001.01 316.59 1000.59 317.53 1000.15 C336.07 990.8 348.38 974.42 354.91 954.97 C358.9 939 358.55 920.11 350.71 905.43 C345.03 896.75 337.54 890.06 327.75 886.44 C327.11 886.2 326.47 885.95 325.8 885.7 C305.56 879.44 284.71 888.92 270.81 903.31 Z " fill="#000000" transform="translate(633.25,139.5625)"/>
<path d="M0 0 C21.8 17.66 35.53 41.03 39.02 69.06 C39.11 69.77 39.2 70.48 39.29 71.21 C39.7 75 39.71 78.24 38.71 81.93 C38.06 81.75 37.42 81.57 36.76 81.38 C34.82 80.84 32.87 80.31 30.93 79.8 C28.92 79.26 26.91 78.68 24.93 78.06 C17.3 75.91 10.04 75.64 2.15 75.62 C1.09 75.61 0.03 75.61 -1.07 75.6 C-7.46 75.59 -7.46 75.59 -13.29 77.93 C-13.29 88.34 -3.64 95.79 3.02 102.9 C4.71 104.93 4.71 104.93 4.71 106.93 C3.43 107.03 2.15 107.13 0.83 107.23 C-13.6 108.43 -32.36 110 -43.29 120.93 C-43.63 123.83 -43.76 125.34 -41.92 127.67 C-25.58 140.12 -7.12 143.82 12.71 146.93 C12.71 152.05 8.66 155.02 5.18 158.52 C-14.13 177.07 -39.32 187.36 -66.13 187.23 C-88.4 186.66 -109.59 177.42 -126.29 162.93 C-127.81 161.79 -127.81 161.79 -129.35 160.62 C-144.96 146.34 -157.35 124.21 -158.45 102.8 C-158.84 71.96 -158.84 71.96 -155.29 56.93 C-155.09 56.09 -154.89 55.24 -154.69 54.38 C-147.89 26.55 -134.37 0.24 -109.41 -15.22 C-73.36 -36.62 -31.05 -24.32 0 0 Z M-121.29 5.93 C-122.01 6.68 -122.72 7.42 -123.46 8.19 C-142.69 30.18 -151.36 64.73 -150.47 93.45 C-148.87 115.62 -142.26 134.94 -126.29 150.93 C-125.47 151.76 -124.65 152.6 -123.8 153.46 C-112.39 164.44 -99.27 171.17 -84.29 175.93 C-83.46 176.2 -82.62 176.46 -81.76 176.74 C-61.84 181.82 -38.76 177.19 -21.29 167.18 C-15.35 163.48 -9.82 159.21 -4.29 154.93 C-6.98 152.25 -9.99 151.7 -13.54 150.68 C-44.63 141.26 -44.63 141.26 -52.29 128.93 C-53.31 125.61 -53.77 123.23 -52.55 119.91 C-46.37 108.77 -33.01 104.53 -21.46 101.16 C-18.74 100.39 -16.02 99.65 -13.29 98.93 C-13.86 97.94 -14.42 96.96 -15.01 95.94 C-15.75 94.64 -16.49 93.35 -17.23 92.06 C-17.6 91.4 -17.98 90.75 -18.36 90.08 C-21.37 84.82 -22.71 82.1 -22.29 75.93 C-20.44 72.07 -18.91 70.19 -14.92 68.62 C-0.77 64.01 15.51 66.8 29.71 69.93 C30.53 49.9 17.53 30.46 4.97 15.92 C-11.33 -1.43 -37.91 -16.18 -61.98 -17.41 C-85.27 -17.84 -105.1 -11.23 -121.29 5.93 Z " fill="#000000" transform="translate(361.2919921875,284.069091796875)"/>
<path d="M0 0 C24.8 19.58 35.88 52.07 39.59 82.52 C42.08 108.94 37.13 134.56 20.38 155.56 C15.47 161.14 10.14 165.77 4.19 170.19 C3.19 170.95 2.19 171.71 1.16 172.5 C-18.04 186.56 -41.29 192.87 -65.02 189.69 C-85.3 186.46 -102.97 177.12 -117.81 163.19 C-118.32 162.71 -118.82 162.24 -119.34 161.75 C-122.26 158.99 -125.18 156.23 -127.81 153.19 C-127.81 152.53 -127.81 151.87 -127.81 151.19 C-126.15 150.77 -124.48 150.35 -122.81 149.94 C-121.71 149.66 -120.62 149.38 -119.48 149.09 C-117 148.48 -114.51 147.91 -112.02 147.38 C-97.96 144.32 -84.13 138.51 -73.81 128.19 C-73.81 126.17 -73.81 126.17 -74.81 124.19 C-86.14 114.51 -101.56 113.45 -115.73 112.42 C-117.83 112.19 -119.78 111.75 -121.81 111.19 C-120.44 108.17 -118.86 105.94 -116.62 103.5 C-108.02 94.61 -108.02 94.61 -104.81 83.19 C-116.59 77.3 -136.18 83.33 -148.01 86.73 C-149.81 87.19 -149.81 87.19 -151.81 87.19 C-153.08 64.66 -143.78 40.77 -129.18 23.8 C-128.4 22.94 -127.62 22.08 -126.81 21.19 C-126.05 20.34 -125.29 19.5 -124.51 18.63 C-92.69 -14.85 -39.04 -29.45 0 0 Z M-110.81 18.19 C-111.37 18.64 -111.93 19.09 -112.51 19.56 C-127.7 31.92 -138.23 49.86 -141.81 69.19 C-141.85 70.85 -141.87 72.52 -141.81 74.19 C-140.9 74.08 -140.9 74.08 -139.96 73.97 C-132.83 73.25 -125.72 73.02 -118.56 72.94 C-117.16 72.91 -117.16 72.91 -115.73 72.87 C-108.71 72.84 -102.74 73.55 -97.31 78.44 C-95.25 82.21 -95.13 83.89 -95.81 88.19 C-97.21 91.35 -98.75 94.38 -100.4 97.42 C-101.59 99.74 -102.33 101.65 -102.81 104.19 C-101.84 104.38 -100.87 104.58 -99.88 104.78 C-88.37 107.28 -75.21 110.99 -66.81 119.75 C-64.44 123.83 -63.84 125.56 -64.81 130.19 C-70.38 142.39 -87.08 148.78 -98.81 153.19 C-102.79 154.59 -106.78 155.93 -110.81 157.19 C-97.45 171.88 -76.89 180.48 -57.32 181.46 C-30.51 182.26 -9.32 172.03 10 153.94 C15.77 147.99 19.54 141.56 23.19 134.19 C23.68 133.21 24.17 132.23 24.68 131.23 C36.81 104.97 31.65 72.43 22.19 46.19 C14.24 26.4 1.24 8.31 -18.25 -1.19 C-51.1 -15.15 -84.64 -3.43 -110.81 18.19 Z " fill="#000000" transform="translate(1104.8125,280.8125)"/>
<path d="M0 0 C22.4 18.48 34.54 46.63 38 75 C39.06 90.62 39.7 106.55 33 121 C32.47 122.16 31.94 123.33 31.39 124.52 C23.9 139.54 12.64 149.07 -3 155 C-8.98 156.91 -15.04 158.3 -21.22 159.38 C-23.39 159.94 -23.39 159.94 -25 163 C-25.14 165.81 -25.14 165.81 -24.81 168.88 C-24.74 169.9 -24.66 170.93 -24.58 171.99 C-23.48 177.69 -20.62 180.68 -16 184 C-11.73 186.14 -6.21 185.62 -1.7 184.35 C4.26 181.73 6.55 177.66 8.87 171.8 C9.59 169.88 10.3 167.94 11 166 C12 165 12 165 14.56 164.94 C15.37 164.96 16.17 164.98 17 165 C18.64 168.28 18.51 171.46 18 175 C15.56 182.32 11.48 187.8 5 192 C-2.55 195.7 -10.05 195.95 -18.11 193.7 C-22.98 191.9 -26.05 189.13 -29 185 C-29.66 185 -30.32 185 -31 185 C-32.11 186.11 -32.11 186.11 -33.25 187.25 C-38.73 192.73 -43.43 195.14 -51.12 195.38 C-58.62 195.3 -63.14 193.33 -68.74 188.5 C-73.93 183.14 -77 175.89 -77 168.44 C-76 166 -76 166 -73.94 164.62 C-73.3 164.42 -72.66 164.21 -72 164 C-68.59 166.59 -67.6 168.93 -66.56 172.94 C-65.13 178.24 -62.94 181.25 -58.14 184.1 C-54.2 185.75 -50.19 185.53 -46 185 C-41.12 182.65 -38.6 179.71 -36 175 C-34.78 171.04 -34.69 167.13 -35 163 C-37.12 160.21 -39.15 159.44 -42.5 158.61 C-43.38 158.38 -44.26 158.15 -45.17 157.91 C-46.57 157.55 -46.57 157.55 -48 157.19 C-61.11 153.61 -70.31 148.67 -80 139 C-80.86 138.15 -80.86 138.15 -81.75 137.29 C-95.26 122.89 -97.62 101.89 -97.09 83.07 C-95.95 57.65 -86.53 31.45 -70 12 C-69.39 11.24 -68.77 10.48 -68.14 9.7 C-50.17 -11.72 -22.95 -16.48 0 0 Z M-64.01 17.48 C-82.77 41.48 -91.22 72.96 -87.57 103.14 C-84.94 118.57 -77.55 131.9 -64.88 141.31 C-49.89 150.6 -29.64 152.47 -12.56 148.92 C0.93 145.65 13.11 138.41 20.59 126.56 C32.67 104.69 31.88 80.25 25.5 56.69 C19.77 36.81 7.59 13.75 -10.93 3.07 C-30.83 -7.17 -50.57 1.35 -64.01 17.48 Z " fill="#000000" transform="translate(705,507)"/>
<path d="M0 0 C1.8 1.12 1.8 1.12 3.44 2.31 C4.49 3.03 5.54 3.76 6.62 4.5 C12.13 10.01 15.48 16.61 15.75 24.44 C15.63 32.21 12.41 39.18 7.15 44.84 C0.89 50.21 -6.31 51.75 -14.36 51.64 C-22.8 50.77 -28.67 46.11 -33.93 39.71 C-37.74 34.1 -39.38 28.07 -38.56 21.31 C-36.27 12.25 -32.14 4.85 -24.06 -0.19 C-17 -3.28 -6.98 -3.29 0 0 Z " fill="#000000" transform="translate(880.5625,528.6875)"/>
<path d="M0 0 C6.97 4.06 12.38 10.17 14.56 18 C15.58 26.72 14.8 33.8 9.56 41 C4.56 46.54 -0.84 50.46 -8.41 51.35 C-17.06 51.74 -23.64 50.17 -30.25 44.43 C-35.7 38.59 -38.62 32.04 -39 24.06 C-38.64 15.33 -35.28 9.39 -28.94 3.5 C-20.86 -3.44 -9.71 -4.42 0 0 Z " fill="#000000" transform="translate(494.4375,529)"/>
<path d="M0 0 C4.24 3.46 7.71 7.02 8.75 12.55 C9.53 20.21 9.62 27.25 4.75 33.55 C1.12 37.33 -2.14 39.34 -7.44 39.86 C-13.82 39.34 -18.32 36.9 -22.62 32.17 C-27.5 25.89 -28.13 19.31 -27.25 11.55 C-25.49 5.62 -22.3 1.98 -17.25 -1.45 C-11.27 -4.51 -5.54 -3.58 0 0 Z M-15.62 8.36 C-18.65 12.43 -18.75 16.65 -18.25 21.55 C-16.89 25.55 -15.89 27.12 -12.38 29.48 C-8.95 30.65 -7.57 30.94 -4.25 29.55 C-1.3 27.23 -0.37 25.43 0.14 21.72 C0.31 16.89 0.36 13.59 -2.12 9.36 C-4.92 6.98 -5.9 6.58 -9.62 6.23 C-13.26 6.22 -13.26 6.22 -15.62 8.36 Z " fill="#000000" transform="translate(414.25,973.453125)"/>
<path d="M0 0 C4.23 3.46 6.4 6.77 8 12 C8.11 18.96 5.73 23.91 1 29 C-5.35 34.01 -11.93 34.73 -19.85 34.42 C-25.29 33.69 -27.76 31.38 -31.31 27.44 C-34.5 22.84 -34.49 18.4 -34 13 C-31.97 7.02 -27.55 2.05 -22.08 -1.11 C-14.52 -4.31 -7.19 -4.01 0 0 Z M-23 11 C-25.49 14.73 -25.54 16.58 -25 21 C-22.83 23.83 -21.18 24.81 -17.65 25.38 C-11.96 25.64 -8.36 24.94 -4 21 C-1.61 18.08 -0.99 16.73 -1.06 12.94 C-2.2 9.36 -2.81 8.03 -6 6 C-12.93 4.71 -18.03 5.99 -23 11 Z " fill="#000000" transform="translate(1031,1028)"/>
<path d="M0 0 C5.89 3.04 10.53 8.44 13.41 14.32 C14.69 21.33 14.62 27.06 10.97 33.39 C6.56 37.92 3.12 39.58 -3.16 39.82 C-8.87 39.77 -12.11 38.98 -16.38 35.18 C-22.51 28.54 -24.34 23.32 -24.25 14.33 C-23.79 8.04 -20.65 4.43 -16.03 0.39 C-10.96 -1.3 -5.16 -1.56 0 0 Z M-14.03 10.39 C-16.02 14.36 -15.71 19.26 -14.38 23.43 C-12.67 26.86 -10.92 28.46 -7.66 30.45 C-3.49 31.53 -1.82 31.37 1.97 29.39 C4.66 26.97 4.94 25.64 5.34 22.01 C4.93 17.99 4.21 15.74 1.97 12.39 C-3.74 7.8 -7.84 5.74 -14.03 10.39 Z " fill="#000000" transform="translate(366.03125,983.61328125)"/>
<path d="M0 0 C4.77 5.18 7.31 11.31 7.19 18.38 C6.4 25.5 4.1 30.62 -1.19 35.62 C-6.35 39.07 -10.59 39.8 -16.64 38.91 C-20.71 37.91 -23.59 36.09 -26.03 32.66 C-30.08 25.82 -31.04 19.44 -29.16 11.71 C-27.05 5.72 -24.27 1.7 -18.81 -1.62 C-12.12 -4.6 -6.21 -3.59 0 0 Z M-17.19 8.06 C-20.52 12.81 -21.31 16.57 -20.81 22.38 C-20.18 25.27 -19.44 26.75 -17.81 29.38 C-14.51 30.8 -14.51 30.8 -10.81 30.38 C-6.45 28.19 -3.67 25.92 -1.81 21.38 C-1.21 17.27 -1.39 14.26 -3.19 10.5 C-4.78 8.32 -4.78 8.32 -6.81 6.38 C-12.38 5.73 -12.38 5.73 -17.19 8.06 Z " fill="#000000" transform="translate(961.8125,973.625)"/>
<path d="M0 0 C4.73 3.22 8.25 7.3 9.75 12.88 C10.62 20.28 7.82 26.59 3.94 32.75 C-1.13 37.67 -5.86 39.54 -12.82 39.97 C-17.79 39.77 -21.01 38.12 -24.56 34.56 C-28.5 28.3 -29.07 22.13 -28.25 14.88 C-26.19 7.68 -21.2 3.16 -14.88 -0.5 C-9.7 -1.73 -5.04 -1.74 0 0 Z M-14.25 9.88 C-18.56 14.53 -19.58 17.48 -19.45 23.68 C-19.34 25.98 -19.34 25.98 -18.31 28.44 C-15.4 30.47 -13.03 30.49 -9.54 30.33 C-5.59 29.55 -3.95 27.84 -1.25 24.88 C1.21 21.02 0.97 17.36 0.37 12.97 C-0.58 9.74 -2.39 8.48 -5.25 6.88 C-8.56 6.88 -11.41 8.27 -14.25 9.88 Z " fill="#000000" transform="translate(1004.25,984.125)"/>
<path d="M0 0 C5.73 4.25 9.31 7.56 10.44 14.83 C10.67 20.52 10.54 24.19 6.75 28.62 C2.24 33.19 -1.27 34.32 -7.69 34.44 C-15.19 34.32 -20.12 32.65 -25.59 27.51 C-30.15 22.41 -31.44 17.81 -31.24 11.14 C-30.62 5.62 -26.78 2.67 -22.82 -0.77 C-16.27 -5.22 -6.43 -3.69 0 0 Z M-20.56 8.31 C-22.67 12.12 -22.67 12.12 -22.5 16.31 C-20 20.79 -16.71 24.16 -11.71 25.71 C-7.97 26.28 -5.61 26.24 -2.06 24.81 C0.15 22.87 1.19 21.82 2 19 C1.91 14.98 1.3 13.35 -1.31 10.25 C-6.05 6.29 -9.54 5.5 -15.65 5.61 C-18.27 5.83 -18.27 5.83 -20.56 8.31 Z " fill="#000000" transform="translate(348,1028)"/>
</svg>
