<?xml version="1.0" encoding="UTF-8"?>
<!-- Generator: visioncortex VTracer 0.6.3 -->
<svg version="1.1" xmlns="http://www.w3.org/2000/svg" width="1280" height="1280">
<path d="M0 0 C0.97 0.01 1.94 0.03 2.94 0.04 C39.29 0.7 84.05 14.94 113 37 C114.1 37.81 115.2 38.62 116.3 39.43 C119.59 41.88 122.8 44.43 126 47 C126.58 47.46 127.15 47.91 127.75 48.38 C136.24 55.13 143.19 62.25 149.57 71.03 C151.12 73.17 152.7 75.28 154.29 77.4 C184.91 118.62 192.6 168.66 186 219 C184.86 225.49 183.03 231.74 181 238 C180.7 238.94 180.4 239.88 180.08 240.85 C178.12 246.92 176.09 252.97 174 259 C209.26 267.07 241.7 268.36 277.48 263.78 C278.38 263.66 279.28 263.55 280.21 263.43 C281.9 263.21 283.59 262.99 285.28 262.76 C298.03 261.1 298.03 261.1 302.88 263.31 C305 265 305 265 307 268 C307.14 271.65 306.72 274.04 304.5 276.99 C300.22 281.44 295.44 284.89 290.34 288.34 C286.73 290.9 283.07 293.7 281.16 297.8 C280.91 301.24 282.18 303.12 284 306 C286.55 308.42 286.55 308.42 289.56 310.5 C290.62 311.26 291.68 312.03 292.77 312.82 C296.47 315.32 300.24 317.63 304.14 319.81 C306 321 306 321 307 323 C307.58 330.22 307.58 330.22 305.19 333.44 C295.99 340.01 277.62 337.15 266.71 337.13 C263.77 337.13 260.83 337.13 257.89 337.14 C248.96 337.14 240.04 337.05 231.12 336.59 C230.07 336.54 230.07 336.54 229.01 336.49 C220.79 336.01 212.92 334.14 205 332 C204.11 331.76 203.22 331.52 202.31 331.27 C187.12 327.08 172.81 321.49 158.54 314.86 C157.75 314.5 156.96 314.13 156.15 313.76 C155.45 313.44 154.74 313.11 154.02 312.77 C149 310.85 144.55 311.56 139.62 313.44 C134.91 315.73 131.38 319.01 127.59 322.57 C114.97 334.41 101 343.04 85.25 349.94 C83.9 350.54 82.54 351.14 81.19 351.74 C55.06 363.27 29.3 372.33 1.01 376.61 C-1.06 376.92 -1.06 376.92 -3 378 C-1.11 389.92 3.75 400.23 9 411 C9.44 411.9 9.88 412.81 10.33 413.74 C15.94 425.17 21.96 435.15 30 445 C43.24 462.69 54.83 481.61 66.4 500.41 C67.71 502.54 69.04 504.65 70.38 506.75 C93.12 544.13 107.93 596.54 109 640 C109.04 641.27 109.08 642.55 109.12 643.86 C109.32 653.63 108.61 663.28 107.71 673.01 C107.44 676 107.21 679 107 682 C106.92 683 106.84 684 106.76 685.03 C106.46 690.86 106.46 690.86 109.05 695.95 C112.31 698.21 115.63 700.08 119.19 701.81 C125.82 705.21 131.37 709.1 137 714 C138.51 715.24 138.51 715.24 140.05 716.5 C156.43 730 171.09 744.08 181 763 C181.69 764.27 181.69 764.27 182.39 765.57 C206.45 810.34 212.69 860 198.31 909.19 C185.83 949.48 159.85 985.56 126.83 1011.73 C124.83 1013.34 122.88 1014.96 120.95 1016.65 C108.54 1027.5 95.01 1035.89 80.5 1043.66 C78.79 1044.58 77.08 1045.5 75.38 1046.43 C4.99 1084.74 -75.95 1101.48 -155 1110 C-156.05 1110.11 -157.1 1110.23 -158.19 1110.35 C-221.78 1116.9 -293.02 1111.74 -353.98 1092.63 C-356.14 1091.95 -358.31 1091.28 -360.48 1090.61 C-378.97 1084.85 -397.29 1078.9 -415 1071 C-415.97 1070.57 -416.93 1070.15 -417.93 1069.71 C-438.51 1060.59 -458.33 1050.62 -477 1038 C-477.59 1037.6 -478.18 1037.21 -478.79 1036.8 C-495.94 1025 -514.61 1007.27 -524.84 989.04 C-526.24 986.58 -527.71 984.18 -529.18 981.77 C-546.72 952.87 -556.92 924.75 -557.24 890.49 C-557.25 889.61 -557.26 888.72 -557.27 887.81 C-557.59 851.06 -557.59 851.06 -553 835 C-552.76 834.14 -552.53 833.28 -552.28 832.39 C-537.66 780.38 -494.61 729.18 -448.02 702.45 C-444.79 700.9 -441.64 699.9 -438.19 698.94 C-426.62 695.59 -421.62 687.1 -416 677 C-402.09 650.74 -397.78 623.54 -397.81 594.12 C-397.81 592.82 -397.81 592.82 -397.81 591.48 C-397.87 564.49 -401.88 540.49 -410.37 514.85 C-415.92 498.08 -421.45 481.33 -425 464 C-425.19 463.1 -425.37 462.19 -425.56 461.26 C-426.67 455.6 -427.36 450.15 -427.31 444.38 C-427.31 443.64 -427.3 442.91 -427.3 442.16 C-427.13 433.92 -425.25 427.45 -420 421 C-413.59 415.64 -406.89 414.73 -398.75 415.06 C-386.35 416.33 -376.17 422.14 -366 429 C-365.4 429.4 -364.81 429.8 -364.2 430.21 C-353.86 437.2 -345.55 444.05 -339.04 454.84 C-337.07 457.89 -334.96 460.71 -332.74 463.56 C-311.41 491.02 -295.85 529.76 -299 565 C-300.26 574.4 -302.14 583.7 -304 593 C-303.27 592.74 -302.54 592.48 -301.78 592.21 C-277.03 583.42 -252.07 574.85 -226 571 C-224.84 570.83 -224.84 570.83 -223.65 570.65 C-200.69 567.41 -174.39 566.19 -152 573 C-159.57 540.31 -170.4 509.71 -186.33 480.12 C-193.35 467.01 -200.2 453.82 -206.86 440.52 C-208.13 438 -209.4 435.48 -210.68 432.96 C-218.28 417.86 -225.24 402.53 -230.31 386.38 C-230.67 385.23 -231.04 384.09 -231.41 382.92 C-239.25 357.71 -246.37 332 -251 306 C-251.15 305.2 -251.3 304.39 -251.45 303.56 C-256 278.56 -256.35 252.95 -256.26 227.6 C-256.25 224.16 -256.26 220.72 -256.27 217.28 C-256.43 159.96 -239.39 114.99 -199.71 72.89 C-197.56 70.59 -195.48 68.27 -193.44 65.88 C-178.02 48.24 -160.74 37.02 -139.1 28.34 C-136.13 27.06 -133.3 25.65 -130.44 24.16 C-112.49 14.87 -93.61 9.64 -74 5 C-73.23 4.81 -72.45 4.63 -71.65 4.44 C-48.34 -1.01 -23.8 -0.42 0 0 Z M-89.97 25.73 C-92.79 26.45 -95.61 27.15 -98.44 27.85 C-108.26 30.31 -117.65 33.07 -127 37 C-129.19 37.83 -131.38 38.67 -133.56 39.5 C-135.71 40.33 -137.85 41.17 -140 42 C-141.53 42.58 -141.53 42.58 -143.1 43.18 C-173.05 55.01 -193.23 83.71 -210 110 C-210.45 110.71 -210.91 111.42 -211.37 112.15 C-217.91 122.47 -223.83 132.93 -229 144 C-229.63 145.3 -229.63 145.3 -230.27 146.62 C-239.57 167.35 -238.34 194.33 -238.26 216.45 C-238.25 220.1 -238.26 223.74 -238.27 227.39 C-238.29 248.13 -237.49 268.98 -234.25 289.5 C-234 291.15 -234 291.15 -233.74 292.83 C-228.95 322.74 -221.08 352.45 -211 381 C-206.11 380.49 -201.84 379.77 -197.19 378.12 C-183.59 373.8 -169.2 372.46 -155 372 C-154.31 371.97 -153.61 371.95 -152.9 371.92 C-136.58 371.33 -119.96 373.09 -106.83 383.77 C-103.34 387.46 -101.9 390.8 -102 396 C-104.21 398.95 -106.78 399.86 -110.2 401.05 C-111.75 401.6 -111.75 401.6 -113.34 402.16 C-114.45 402.54 -115.55 402.92 -116.69 403.31 C-118.96 404.12 -121.24 404.92 -123.52 405.72 C-125.18 406.31 -125.18 406.31 -126.88 406.9 C-133.3 409.16 -139.68 411.49 -146 414 C-146.86 414.34 -147.71 414.67 -148.59 415.02 C-157.63 419.04 -165.37 425.8 -173 432 C-173.74 432.58 -174.47 433.16 -175.23 433.76 C-180.84 438.31 -180.84 438.31 -183 445 C-182.17 447.5 -181.33 449.36 -180.06 451.62 C-179.71 452.28 -179.36 452.94 -179 453.62 C-178.18 455.17 -177.35 456.7 -176.51 458.24 C-174.41 462.09 -172.34 465.95 -170.27 469.81 C-168.61 472.9 -166.95 475.99 -165.28 479.06 C-161.92 485.28 -158.76 491.49 -156 498 C-150.27 497.42 -145.62 495.22 -140.44 492.88 C-111.73 480.32 -72.48 467.34 -41 476 C-36.33 478.42 -33.11 481.13 -31 486 C-30.69 489.17 -30.79 492.03 -32 495 C-33.31 495.71 -34.65 496.37 -36 497 C-53.22 506.3 -69.85 516.3 -86.18 527.07 C-87.83 528.16 -89.49 529.25 -91.14 530.34 C-92.8 531.43 -94.46 532.53 -96.13 533.63 C-104.3 538.98 -112.62 544.03 -121.15 548.8 C-126.39 551.8 -130.22 554.45 -133 560 C-133.32 566.24 -133.1 572.47 -132.5 578.69 C-132.06 583.32 -132.01 587.81 -132.14 592.46 C-132.17 593.63 -132.2 594.79 -132.22 595.99 C-132.28 598.35 -132.37 600.71 -132.48 603.06 C-132.55 606.14 -132.54 608.97 -132 612 C-129.56 614.81 -129.56 614.81 -126 616 C-124.85 616.48 -123.7 616.96 -122.52 617.46 C-121.3 617.9 -120.07 618.35 -118.81 618.81 C-95.49 627.81 -75.72 649.28 -64.3 671.27 C-53.57 695.83 -56.53 718.5 -65.86 742.78 C-68.16 748.54 -70.82 754.05 -73.75 759.52 C-75.15 761.83 -75.15 761.83 -75 764 C-78.38 764.19 -78.38 764.19 -82 764 C-84.19 760.72 -84.53 758.79 -85.11 754.93 C-85.31 753.71 -85.5 752.49 -85.7 751.24 C-85.9 749.94 -86.1 748.65 -86.31 747.31 C-88.83 731.94 -91.34 717.69 -101 705 C-101.7 704.08 -102.4 703.16 -103.12 702.21 C-123.14 676.39 -123.14 676.39 -150.03 660.68 C-153.34 660.49 -155.44 660.55 -158.07 662.65 C-158.56 663.41 -159.05 664.16 -159.56 664.94 C-160.13 665.76 -160.7 666.58 -161.29 667.43 C-161.86 668.28 -162.42 669.13 -163 670 C-166.56 674.92 -170.06 679.18 -174.75 683.06 C-178.97 686.76 -181.22 689.39 -182 695 C-181.91 697.27 -181.76 699.54 -181.57 701.81 C-180.78 712.72 -180.76 723.63 -180.75 734.56 C-180.75 735.64 -180.75 736.71 -180.75 737.82 C-180.76 765.3 -180.93 793.72 -193 819 C-193.41 819.85 -193.81 820.71 -194.23 821.59 C-199.83 832.52 -208.09 847.63 -219 854 C-222.5 854.94 -222.5 854.94 -225 855 C-226.96 852.69 -228 850.87 -228 847.8 C-227.68 845.1 -227.27 842.43 -226.81 839.75 C-226.53 837.93 -226.24 836.11 -225.96 834.3 C-225.8 833.31 -225.65 832.33 -225.49 831.32 C-223.65 818.94 -222.62 806.83 -222.69 794.31 C-222.69 793.57 -222.69 792.82 -222.69 792.05 C-222.79 767.71 -225.57 743.74 -231 720 C-231.23 718.99 -231.45 717.97 -231.68 716.93 C-231.92 715.94 -232.16 714.96 -232.41 713.95 C-232.62 713.07 -232.83 712.19 -233.04 711.28 C-234.24 708.44 -235.33 707.52 -238 706 C-240.59 705.15 -240.59 705.15 -243.44 704.61 C-244.49 704.38 -245.55 704.15 -246.63 703.91 C-247.74 703.67 -248.86 703.43 -250 703.19 C-272.2 698.12 -272.2 698.12 -278.12 690.5 C-281.42 684.36 -282.42 678.85 -283 672 C-280.84 674.16 -278.69 676.32 -276.56 678.5 C-266.09 688.72 -253.87 690.28 -239.75 690.24 C-216.85 689.91 -193.17 682.83 -176 667 C-170.37 661.02 -167.14 654.51 -164 647 C-163.44 645.75 -162.88 644.51 -162.31 643.27 C-155.57 628.38 -149.91 613.64 -149.75 597.12 C-149.74 596.02 -149.74 596.02 -149.72 594.89 C-149.65 589.55 -149.65 589.55 -152 585 C-157.41 582.6 -162.58 582.69 -168.38 582.7 C-169.39 582.69 -170.4 582.69 -171.44 582.69 C-173.58 582.68 -175.72 582.68 -177.86 582.68 C-181.07 582.69 -184.27 582.66 -187.47 582.64 C-204.94 582.58 -221.6 584.42 -238.5 588.94 C-239.6 589.23 -240.69 589.52 -241.82 589.81 C-251.88 592.55 -261.79 595.73 -271.69 599 C-272.43 599.24 -273.18 599.49 -273.95 599.74 C-323.36 616.03 -363.75 643.98 -388 691 C-404.92 724.98 -406.89 761.39 -395.88 797.71 C-384.4 829.49 -355.81 852.53 -327 868 C-325.89 868.61 -324.79 869.21 -323.64 869.84 C-287.65 888.8 -243.77 896.22 -203.44 896.25 C-202.63 896.25 -201.82 896.25 -200.98 896.25 C-158.19 896.2 -120.12 884.84 -81 868 C-79.78 867.48 -79.78 867.48 -78.54 866.94 C-65.52 861.26 -53.28 854.13 -41 847 C-39.55 846.16 -39.55 846.16 -38.07 845.3 C-16.78 832.97 3.15 820.01 21 803 C21.83 802.23 22.66 801.47 23.52 800.68 C35.86 788.93 45.79 774.28 55 760 C55.56 759.14 55.56 759.14 56.12 758.26 C67.64 740.01 75.7 718.79 83.19 698.62 C83.54 697.71 83.89 696.79 84.25 695.85 C89.6 680.88 90.48 665.59 90.34 649.83 C90.31 647 90.32 644.17 90.32 641.34 C90.3 626.35 89.68 611.28 85.69 596.75 C85.44 595.83 85.2 594.92 84.94 593.97 C75.16 558.91 62.75 523.35 41.3 493.64 C37.66 488.58 34.47 483.4 31.38 478 C27.78 471.76 23.89 465.87 19.62 460.06 C19.08 459.31 18.53 458.56 17.96 457.78 C14.71 453.33 14.71 453.33 11.44 448.89 C-2.37 429.98 -13.65 406.8 -16.41 383.36 C-16.81 380.64 -16.81 380.64 -20 379 C-23.69 378.04 -27.29 377.81 -31.09 377.64 C-62.89 376.01 -98.83 368.1 -121.44 343.44 C-123.94 340.57 -124.91 337.62 -126 334 C-124.55 334.87 -124.55 334.87 -123.07 335.77 C-112.3 341.97 -101.16 346.36 -89.44 350.38 C-88.71 350.63 -87.98 350.88 -87.24 351.14 C-79.07 353.96 -70.9 356.4 -62.47 358.29 C-61.76 358.45 -61.04 358.61 -60.3 358.78 C-7.79 369.99 52.13 351.09 97 324 C101.6 320.98 105.83 317.6 110 314 C110.9 313.23 111.8 312.45 112.73 311.66 C115.19 309.48 117.61 307.26 120 305 C120.67 304.38 121.35 303.76 122.04 303.12 C151.13 275.36 169.11 233.41 170.2 193.43 C170.82 146.56 159.04 105.06 127 70 C94.4 37.03 43.18 17.09 -2.91 16.76 C-4.04 16.75 -5.16 16.75 -6.32 16.74 C-8.7 16.72 -11.07 16.71 -13.45 16.7 C-15.83 16.69 -18.21 16.67 -20.59 16.64 C-44.55 16.34 -66.81 19.79 -89.97 25.73 Z M162 278 C159.64 280.81 159.64 280.81 157.69 283.94 C157.01 284.96 156.33 285.98 155.64 287.03 C154.09 289.84 153.54 291.89 153 295 C160.73 299.2 168.66 302.18 177 304.94 C177.65 305.15 178.3 305.37 178.97 305.59 C188.18 308.63 197.42 311.3 206.88 313.5 C207.86 313.73 208.85 313.96 209.87 314.2 C224.64 317.45 238.95 318.29 254 318.12 C255.66 318.11 257.32 318.11 258.98 318.1 C262.99 318.08 266.99 318.04 271 318 C270.05 316.73 269.1 315.46 268.15 314.19 C267.62 313.48 267.09 312.77 266.54 312.04 C265.26 310.34 263.95 308.67 262.62 307 C260.53 303.14 259.77 300.21 261 296 C263.38 292.09 266.15 288.58 269 285 C269.33 284.34 269.66 283.68 270 283 C268.48 283.14 266.96 283.29 265.44 283.44 C264.59 283.52 263.74 283.6 262.87 283.68 C260.82 283.91 258.77 284.19 256.73 284.5 C231.41 287.87 198.76 285.97 175.33 275.38 C169.44 272.94 166.8 274.23 162 278 Z M-207 391 C-206.39 395.93 -204.91 400.26 -203 404.81 C-202.7 405.54 -202.4 406.27 -202.09 407.02 C-198.58 415.28 -194.34 423.15 -190 431 C-184.45 427.98 -179.45 424.51 -174.38 420.75 C-155.66 407.11 -136.99 398.98 -115 392 C-117.87 388.79 -120.25 387.22 -124.31 385.81 C-125.22 385.49 -126.12 385.17 -127.05 384.83 C-135.03 382.58 -143.22 382.72 -151.44 382.69 C-152.12 382.68 -152.8 382.68 -153.51 382.68 C-171.84 382.67 -189.46 385.71 -207 391 Z M-411 434 C-414.71 441.43 -411.37 452.5 -409.5 460.12 C-409.24 461.23 -408.97 462.33 -408.7 463.47 C-406.65 471.83 -404.34 480.12 -401.88 488.38 C-401.55 489.48 -401.23 490.58 -400.89 491.72 C-400.57 492.75 -400.26 493.78 -399.93 494.84 C-399.65 495.74 -399.38 496.64 -399.09 497.57 C-397.81 500.43 -396.43 502.03 -394 504 C-387.53 504.83 -383.04 503.19 -377.25 500.44 C-376.47 500.08 -375.68 499.72 -374.88 499.34 C-367.14 495.72 -359.73 491.61 -352.69 486.75 C-349.56 484.71 -346.47 483.39 -343 482 C-346.11 475.79 -349.85 470.3 -354 464.75 C-354.77 463.72 -354.77 463.72 -355.55 462.67 C-358.46 458.82 -361.49 455.34 -365 452 C-365.92 451.08 -365.92 451.08 -366.86 450.15 C-371.76 445.55 -377.07 441.79 -382.69 438.12 C-383.41 437.65 -384.14 437.17 -384.88 436.68 C-390.66 432.98 -395.7 430.72 -402.69 430.69 C-404.09 430.66 -404.09 430.66 -405.51 430.64 C-408.42 431.06 -409.24 431.71 -411 434 Z M-142.63 501.45 C-143.35 501.69 -144.06 501.94 -144.8 502.18 C-148.46 503.43 -148.46 503.43 -152 505 C-151.42 510.06 -150.28 514.6 -148.53 519.39 C-148.17 520.4 -148.17 520.4 -147.8 521.44 C-147.04 523.56 -146.27 525.69 -145.5 527.81 C-144.98 529.26 -144.47 530.7 -143.95 532.15 C-141.73 538.68 -141.73 538.68 -139 545 C-134.26 544.39 -130.4 542.36 -126.25 540.12 C-125.5 539.72 -124.75 539.32 -123.98 538.91 C-113.72 533.32 -104.1 526.78 -94.44 520.23 C-83.2 512.65 -71.89 505.4 -60.11 498.69 C-54.24 495.35 -48.56 491.83 -43 488 C-43.79 485.82 -43.79 485.82 -45.87 485.37 C-78.82 479.05 -111.86 491.02 -142.63 501.45 Z M-337 492 C-337.2 492.68 -337.39 493.36 -337.59 494.06 C-341.5 506.72 -347.76 518.23 -354.55 529.55 C-356.02 531.91 -356.02 531.91 -356.95 534.2 C-358.3 536.51 -359.59 536.88 -362 538 C-364.71 539.38 -367.39 540.81 -370.06 542.25 C-370.78 542.62 -371.5 542.99 -372.24 543.37 C-376.85 545.88 -379.23 547.84 -381 553 C-382.11 560.19 -380.58 567.98 -379 575 C-378.67 575.33 -378.34 575.66 -378 576 C-367.62 575.93 -357.34 573.5 -347.19 571.51 C-328.51 567.85 -328.51 567.85 -323 569 C-321.24 570.52 -321.24 570.52 -320 572 C-323.3 587.85 -336.75 602.23 -350 611 C-356.79 614.86 -363.87 618.18 -371.12 621.06 C-377.23 623.81 -379.99 627.4 -382.41 633.62 C-384.98 641.26 -386.87 649.01 -388 657 C-384.13 654.19 -381.17 651.01 -378.08 647.41 C-371.51 639.8 -364.87 632.31 -357 626 C-356.03 625.22 -355.07 624.44 -354.07 623.64 C-345.82 617.08 -337.16 611.62 -328.07 606.28 C-327.18 605.75 -326.29 605.23 -325.38 604.69 C-324.6 604.24 -323.82 603.79 -323.02 603.32 C-319.82 601.23 -318.33 599.95 -317.05 596.26 C-312.79 575.65 -313.2 553.25 -319 533 C-319.36 531.73 -319.36 531.73 -319.73 530.43 C-323.46 517.72 -328 504.33 -335 493 C-335.66 492.67 -336.32 492.34 -337 492 Z M-359.12 499.06 C-365.67 502.9 -372.27 505.96 -379.41 508.53 C-383.9 510.22 -386.5 511.87 -389 516 C-390.85 523.09 -387.48 530.46 -385 537 C-380.96 535.74 -377.25 534.28 -373.5 532.31 C-372.6 531.85 -371.71 531.4 -370.78 530.93 C-363.35 525.78 -359.69 518.21 -355.69 510.31 C-355.15 509.28 -354.61 508.25 -354.06 507.19 C-350.95 501.31 -350.95 501.31 -349 495 C-353.1 495 -355.71 497.02 -359.12 499.06 Z M-342.46 580.71 C-343.34 580.88 -344.22 581.05 -345.12 581.23 C-346.52 581.52 -346.52 581.52 -347.94 581.81 C-353.93 583.02 -359.87 584.16 -365.94 584.94 C-371.07 585.79 -373.62 587 -377 591 C-380.07 597.55 -379.18 604.91 -379 612 C-367.06 611.31 -357.71 605.92 -349 598 C-348.28 597.35 -347.56 596.7 -346.81 596.02 C-342.05 591.5 -338.42 586.59 -335 581 C-338.2 579.93 -339.26 580.06 -342.46 580.71 Z M-135 621 C-135.19 621.54 -135.38 622.08 -135.58 622.63 C-136.46 625.11 -137.36 627.59 -138.25 630.06 C-138.7 631.33 -138.7 631.33 -139.16 632.63 C-140.6 636.59 -142.07 640.31 -144.23 643.93 C-146.25 646.84 -146.25 646.84 -146 650 C-144.97 650.53 -144.97 650.53 -143.91 651.07 C-124.33 661.35 -107.52 678.72 -94 696 C-93.45 696.68 -92.89 697.35 -92.32 698.05 C-84.21 708.21 -80.71 719.63 -77.54 732.01 C-76.81 734.71 -75.92 737.36 -75 740 C-68.67 730.5 -67.52 718.75 -67.5 707.62 C-67.49 706.64 -67.49 705.65 -67.48 704.64 C-67.65 694.64 -70.14 685.77 -74.75 676.94 C-75.1 676.25 -75.46 675.56 -75.82 674.86 C-81.34 664.33 -88.67 655.47 -96.55 646.63 C-97.81 645.21 -99.04 643.76 -100.26 642.3 C-108.92 632.65 -122.5 624.48 -135 621 Z M-196 697 C-197.74 697.6 -197.74 697.6 -199.52 698.21 C-208.28 701.19 -216.96 703.98 -226 706 C-225.62 707.04 -225.25 708.07 -224.86 709.14 C-211.72 747.05 -210.91 789.3 -214 829 C-209.88 825.26 -207.37 821.6 -204.94 816.62 C-204.42 815.57 -204.42 815.57 -203.89 814.49 C-200.61 807.56 -198.49 800.52 -197 793 C-196.86 792.31 -196.73 791.61 -196.58 790.9 C-191.13 762.26 -187.93 727.83 -194 699 C-194.66 698.34 -195.32 697.68 -196 697 Z M-476 743 C-476.73 743.7 -477.46 744.41 -478.21 745.13 C-498.41 764.68 -513.23 785.7 -525.16 811.21 C-525.97 812.94 -526.81 814.67 -527.64 816.39 C-530.73 823.11 -532.93 829.78 -534.75 836.94 C-534.95 837.71 -535.15 838.49 -535.35 839.28 C-538.55 852.58 -539.35 865.71 -539.25 879.31 C-539.25 880.08 -539.24 880.85 -539.24 881.64 C-539.18 892.85 -539.06 903.95 -537 915 C-536.85 915.81 -536.71 916.62 -536.56 917.45 C-528.75 959.18 -499.5 998.63 -465.1 1022.58 C-401.61 1065.57 -325.29 1084.15 -250 1091 C-248.05 1091.18 -248.05 1091.18 -246.07 1091.36 C-211.26 1094.47 -176.57 1094.11 -142 1089 C-140.97 1088.85 -139.93 1088.69 -138.87 1088.54 C-98.95 1082.59 -59.57 1076.12 -21 1064 C-20.23 1063.76 -19.46 1063.52 -18.66 1063.27 C33.13 1047.07 81.21 1028.99 122 992 C122.59 991.47 123.18 990.93 123.79 990.38 C151.74 965.02 172.89 935.85 183 899 C183.21 898.27 183.42 897.54 183.64 896.78 C187.42 882.95 187.39 868.86 187.44 854.62 C187.44 853.68 187.45 852.73 187.46 851.76 C187.52 836.87 186.41 822.68 181.5 808.5 C181.13 807.41 181.13 807.41 180.75 806.31 C173.26 785.21 163.52 763.4 147.46 747.46 C145.95 745.95 144.48 744.39 143.01 742.83 C132.4 731.67 120.45 722.25 107.06 714.62 C106.38 714.24 105.7 713.85 105 713.45 C103.37 712.56 101.69 711.77 100 711 C97.11 712.44 96.8 714.32 95.53 717.27 C95.05 718.37 94.56 719.48 94.07 720.62 C93.29 722.42 93.29 722.42 92.5 724.25 C91.41 726.73 90.32 729.21 89.23 731.68 C88.96 732.31 88.68 732.93 88.4 733.57 C81.63 748.94 74.72 763.59 64.68 777.13 C62.81 779.74 62.81 779.74 63.04 782.08 C64.25 784.5 65.7 786.58 67.31 788.75 C87.67 816.13 83.44 859.82 80.69 891.81 C80.63 892.51 80.57 893.22 80.51 893.94 C79.22 909.02 77.6 925.1 69 938 C65.88 938.19 65.88 938.19 63 938 C60.83 933.47 59.64 929.51 58.93 924.54 C54.26 893.46 32.02 860.82 10 839 C5.54 840.34 1.81 842.11 -2.19 844.49 C-3.06 845 -3.06 845 -3.94 845.53 C-5.18 846.26 -6.41 846.99 -7.64 847.73 C-9.59 848.89 -11.55 850.05 -13.5 851.2 C-16.13 852.75 -18.75 854.3 -21.37 855.85 C-35.01 863.93 -48.71 871.56 -63.03 878.37 C-70.55 882.02 -78.26 885.89 -83 893 C-83.28 896.14 -83.28 896.14 -83.2 899.77 C-83.19 900.46 -83.19 901.14 -83.19 901.85 C-83.18 903.34 -83.17 904.83 -83.15 906.32 C-83.12 908.69 -83.11 911.06 -83.1 913.44 C-83.08 919.35 -83.03 925.26 -82.98 931.17 C-82.94 936.14 -82.91 941.12 -82.89 946.09 C-82.88 948.4 -82.85 950.71 -82.82 953.02 C-82.73 967.14 -83.99 980.96 -87.75 994.62 C-88.01 995.6 -88.27 996.57 -88.55 997.57 C-91.8 1009.31 -95.23 1021.09 -104 1030 C-107.21 1031.61 -110.44 1031.06 -114 1031 C-115.99 1021.93 -117.89 1012.88 -119.35 1003.71 C-123.94 975.35 -132.57 947.78 -149 924 C-150.03 922.45 -150.03 922.45 -151.08 920.88 C-154.42 915.84 -154.42 915.84 -159 912 C-160.95 911.81 -160.95 911.81 -163.08 912.01 C-164.31 912.09 -164.31 912.09 -165.57 912.17 C-166.46 912.23 -167.35 912.29 -168.26 912.36 C-179.78 913.04 -191.27 913.24 -202.81 913.25 C-203.82 913.25 -204.82 913.25 -205.85 913.25 C-220.78 913.25 -235.29 912.74 -250 910 C-250.79 909.86 -251.59 909.71 -252.41 909.56 C-255.87 908.93 -259.32 908.27 -262.76 907.55 C-268.86 906.46 -268.86 906.46 -274.51 908.5 C-281.58 914.6 -288.29 920.99 -294.87 927.61 C-296.62 929.37 -298.38 931.12 -300.15 932.88 C-310.27 942.98 -318.98 953.57 -326.81 965.56 C-327.5 966.6 -328.18 967.63 -328.88 968.69 C-332.13 973.61 -335.35 978.54 -338.56 983.49 C-339.1 984.32 -339.64 985.15 -340.2 986 C-341.21 987.54 -342.21 989.09 -343.19 990.64 C-343.64 991.33 -344.09 992.01 -344.55 992.71 C-345.12 993.6 -345.12 993.6 -345.7 994.5 C-347.3 996.34 -348.74 997.12 -351 998 C-353.62 997.81 -353.62 997.81 -356 997 C-362.79 986.82 -357.44 966.7 -355.2 955.45 C-350.03 931.22 -340.01 910.38 -326 890 C-329.42 886.34 -332.74 883.74 -337.08 881.26 C-337.93 880.76 -337.93 880.76 -338.81 880.25 C-340.62 879.2 -342.43 878.16 -344.25 877.12 C-355.75 870.54 -365.77 863.6 -375.06 854.06 C-375.74 853.38 -376.41 852.69 -377.11 851.99 C-378.74 850.33 -380.37 848.67 -382 847 C-394.08 850.75 -404.6 856.9 -415.12 863.81 C-416.16 864.49 -416.16 864.49 -417.22 865.17 C-429.81 873.62 -440.45 884.2 -451 895 C-453.35 897.4 -455.7 899.8 -458.06 902.19 C-458.59 902.73 -459.11 903.27 -459.65 903.83 C-462.54 906.75 -465.26 909.24 -469 911 C-472.81 910.69 -472.81 910.69 -476 910 C-476.45 896.53 -471.06 883.67 -465.94 871.44 C-465.36 870.04 -464.79 868.65 -464.21 867.25 C-450.03 833.15 -450.03 833.15 -440 820 C-438.94 818.59 -438.94 818.59 -437.86 817.16 C-433.44 811.52 -428.69 806.65 -423.26 801.97 C-419.07 798.44 -419.07 798.44 -416 794 C-415.9 792.09 -415.87 790.17 -415.88 788.25 C-415.87 787.22 -415.87 786.2 -415.87 785.14 C-415.92 782.06 -415.92 782.06 -416.5 779.3 C-417.07 775.55 -417.18 771.88 -417.2 768.09 C-417.21 766.96 -417.21 766.96 -417.22 765.81 C-417.24 763.37 -417.25 760.94 -417.25 758.5 C-417.25 757.67 -417.25 756.84 -417.26 755.99 C-417.27 744.27 -416.68 732.95 -414.66 721.39 C-413.88 716.89 -413.89 712.56 -414 708 C-437.76 708 -460.05 727.6 -476 743 Z M54 792 C53.04 793.27 53.04 793.27 52.06 794.56 C43.17 806.25 33.99 816.67 22.44 825.88 C20.09 827.92 19.25 829.24 18 832 C18.47 832.38 18.95 832.76 19.43 833.14 C39.78 850.08 53.87 876.42 65 900 C65.66 900 66.32 900 67 900 C73.78 844.61 73.78 844.61 57.33 794.32 C56.01 792.88 56.01 792.88 54 792 Z M-416.29 804.96 C-436.83 825.71 -449.03 850.62 -459.25 877.81 C-459.55 878.6 -459.85 879.39 -460.16 880.2 C-461.81 884.54 -461.81 884.54 -461 889 C-459.84 887.73 -459.84 887.73 -458.66 886.44 C-455.95 883.48 -453.22 880.54 -450.49 877.6 C-449.31 876.33 -448.15 875.06 -446.98 873.78 C-433.67 859.65 -416.05 849.59 -398.55 841.66 C-395 840.11 -395 840.11 -392 838 C-392.61 833.86 -394.96 830.82 -397.25 827.44 C-402.76 819.09 -406.63 810.4 -410 801 C-413.03 801 -414.23 802.94 -416.29 804.96 Z M-100.99 894.79 C-101.82 895.07 -102.64 895.35 -103.49 895.64 C-104.34 895.92 -105.2 896.21 -106.08 896.5 C-108.82 897.41 -111.57 898.33 -114.31 899.25 C-136.73 906.77 -136.73 906.77 -148 909 C-147.12 913.4 -144.7 916.27 -142 919.75 C-123.37 944.62 -114.76 973.9 -110.29 1004.37 C-110.15 1005.33 -110.01 1006.28 -109.86 1007.27 C-109.74 1008.11 -109.62 1008.95 -109.5 1009.82 C-109.07 1012.28 -109.07 1012.28 -107 1015 C-98.58 994.14 -95.12 973.36 -93.88 950.94 C-93.83 950.21 -93.79 949.48 -93.75 948.73 C-92.71 930.49 -92.8 912.26 -93 894 C-95.97 892.51 -97.99 893.8 -100.99 894.79 Z M-323.92 901.62 C-336.07 923.27 -343.87 945.22 -346 970 C-340.79 965.16 -336.89 959.52 -332.79 953.74 C-323.28 940.59 -312.28 928.99 -300.75 917.62 C-299.5 916.39 -298.26 915.15 -297.01 913.91 C-294.01 910.94 -291.01 907.97 -288 905 C-288.64 901.97 -288.64 901.97 -290.61 901.11 C-291.29 900.87 -291.98 900.64 -292.68 900.39 C-293.44 900.13 -294.2 899.87 -294.98 899.6 C-295.79 899.34 -296.6 899.08 -297.44 898.81 C-298.26 898.55 -299.08 898.28 -299.92 898.01 C-308.8 895.25 -317.66 893.09 -323.92 901.62 Z " fill="#000000" transform="translate(765,118)"/>
<path d="M0 0 C9.91 9.02 13.49 21.88 14.12 34.81 C13.91 45 10.93 55.03 4.3 62.95 C-2.46 69.18 -11.44 72.42 -20.56 72.27 C-27.85 71.48 -33.64 68.31 -38.53 62.93 C-44.62 55.27 -47.46 48.24 -47.44 38.44 C-47.44 37.65 -47.43 36.86 -47.43 36.04 C-47.2 24.56 -43.79 13.64 -35.62 5.38 C-35.02 4.8 -34.41 4.23 -33.79 3.64 C-32.29 2.22 -30.89 0.71 -29.5 -0.81 C-21.03 -8.42 -8.7 -5.68 0 0 Z M-26.06 12 C-27.95 15.9 -29.13 19.52 -28.94 23.88 C-27.91 26.38 -27.37 27.54 -25.06 29 C-21.61 29.75 -21.61 29.75 -18.06 29 C-14.56 25.59 -13.81 22.67 -13.69 17.94 C-13.83 14.26 -14.3 11.3 -16.06 8 C-20.77 7.46 -22.86 8.54 -26.06 12 Z " fill="#000000" transform="translate(733.0625,268)"/>
<path d="M0 0 C7.95 4.53 14.81 11.28 17.81 20.06 C19.01 25.31 19.07 30.39 19.12 35.75 C19.15 36.69 19.18 37.64 19.21 38.61 C19.29 46.94 17.18 53.38 12.69 60.38 C6.67 66 0.95 68.37 -7.31 68.69 C-16.13 68.32 -20.34 65.18 -26.31 59 C-35.29 48.47 -38.16 37.58 -37.19 24.06 C-34.86 14.22 -28.58 4.75 -20.19 -0.94 C-13.58 -3.14 -6.35 -2.9 0 0 Z M-16.19 14.06 C-17.54 16.77 -17.25 19.07 -17.19 22.06 C-15.45 22.94 -15.45 22.94 -13.19 23.06 C-9.34 20.68 -7.29 18.48 -6.19 14.06 C-6.47 11.82 -6.47 11.82 -7.19 10.06 C-11.89 10.06 -12.83 10.98 -16.19 14.06 Z " fill="#000000" transform="translate(850.1875,197.9375)"/>
</svg>
