<?xml version="1.0" encoding="UTF-8"?>
<!-- Generator: visioncortex VTracer 0.6.3 -->
<svg version="1.1" xmlns="http://www.w3.org/2000/svg" width="1280" height="1280">
<path d="M0 0 C1.75 -0.01 1.75 -0.01 3.54 -0.02 C6.01 -0.03 8.49 -0.03 10.96 -0.04 C14.65 -0.05 18.34 -0.08 22.03 -0.11 C44.35 -0.21 66.06 2.06 87.91 6.52 C89.05 6.74 89.05 6.74 90.2 6.97 C141.27 17.2 191.17 36.41 233.06 67.94 C236.87 70.76 240.26 72.85 244.79 74.2 C247.9 73.37 247.9 73.37 250.85 71.33 C251.43 70.97 252.01 70.61 252.61 70.24 C254.69 68.93 256.74 67.57 258.79 66.2 C259.62 65.66 260.45 65.11 261.3 64.55 C277.43 53.92 293.11 42.85 307.19 29.59 C317.93 19.72 317.93 19.72 324.67 19.87 C334.46 21.41 341.89 28.88 347.5 36.55 C358.87 54.38 361.02 74.9 361.04 95.52 C361.04 96.6 361.04 96.6 361.04 97.7 C360.99 130.79 356.82 165.75 340.79 195.2 C340.11 196.53 339.44 197.87 338.79 199.2 C339.67 198.71 340.56 198.21 341.47 197.7 C347.65 195.11 355.05 194.73 361.31 197.2 C378.67 207.95 384.42 226.69 389.35 245.27 C389.79 247.2 389.79 247.2 389.79 249.2 C400.79 251.56 411.79 252.61 423.02 253.24 C424.11 253.3 424.11 253.3 425.22 253.37 C443.02 254.38 460.83 254.81 478.65 255.21 C518.36 256.1 518.36 256.1 530.65 256.69 C531.77 256.74 531.77 256.74 532.91 256.79 C545.17 257.45 554.49 259.56 563.1 268.64 C568.42 276.73 568.83 284.11 567.42 293.66 C565.54 300.76 560.68 305.94 555.79 311.2 C555.17 311.87 554.55 312.54 553.91 313.23 C531.85 336.75 504.81 352.7 476.79 368.2 C475.98 368.65 475.18 369.09 474.35 369.55 C428.2 394.95 379.5 409.91 328.79 423.2 C330.44 424.85 332.48 424.59 334.76 424.82 C335.82 424.93 336.88 425.04 337.98 425.15 C339.14 425.27 340.3 425.39 341.49 425.51 C343.94 425.76 346.39 426.02 348.84 426.28 C352.7 426.68 356.57 427.08 360.44 427.47 C364.16 427.85 367.89 428.24 371.62 428.63 C372.76 428.75 373.89 428.86 375.07 428.97 C387.45 430.29 403.32 432.39 411.97 442.39 C414.9 446.93 415.27 450.92 414.79 456.2 C410.52 473.82 388.1 486.96 373.79 496.2 C372.82 496.82 372.82 496.82 371.84 497.46 C360.27 504.88 348.25 511.29 336.01 517.54 C332.59 519.31 329.18 521.12 325.79 522.95 C310.21 531.27 294.53 538.46 277.79 544.2 C276.8 544.54 275.81 544.88 274.79 545.23 C248.33 554.19 220.72 560.55 193.29 565.7 C192.06 565.93 190.84 566.16 189.57 566.4 C173.78 569.25 158.33 570.62 142.29 570.58 C141.41 570.58 140.54 570.58 139.64 570.58 C109.41 570.48 81.22 563.94 53.79 551.2 C53.07 550.88 52.36 550.55 51.63 550.21 C30.61 540.48 14.84 526.54 0.79 508.2 C0.02 507.23 -0.75 506.25 -1.55 505.25 C-14.21 488.88 -14.21 488.88 -14.21 481.2 C-19.92 483.81 -24.49 487.15 -29.03 491.45 C-39.1 500.97 -50.24 508.34 -62.21 515.2 C-63.6 516 -63.6 516 -65 516.82 C-78.75 524.76 -92.52 532.18 -107.21 538.2 C-108.35 538.68 -108.35 538.68 -109.51 539.16 C-136.87 550.37 -166.86 555.06 -196.21 557.2 C-197.32 557.29 -197.32 557.29 -198.45 557.38 C-225.11 559.39 -252.85 559.81 -279.21 555.2 C-280.33 555.01 -281.45 554.82 -282.59 554.62 C-308.96 549.9 -335.02 542.86 -359.21 531.2 C-359.91 530.87 -360.61 530.54 -361.32 530.19 C-379.5 521.34 -397.97 508.29 -410.46 492.33 C-412.66 489.67 -413.96 488.45 -417.21 487.2 C-419.87 487.25 -422.46 487.55 -425.1 487.86 C-456.43 491.32 -490.2 479.06 -514.84 459.94 C-531.61 446.32 -541.95 426.76 -544.21 405.2 C-545 389.16 -544.82 373.66 -540.21 358.2 C-540 357.48 -539.79 356.75 -539.57 356 C-528.81 320.63 -504.5 299.03 -472.65 281.95 C-456.69 273.55 -456.69 273.55 -448.92 273.06 C-446.49 272.98 -446.49 272.98 -443.21 271.2 C-440.96 267.1 -439.46 262.79 -437.96 258.37 C-425.57 222.46 -401.62 191.72 -375.96 164.27 C-375.32 163.57 -374.67 162.87 -374 162.15 C-336.39 122.3 -280.27 98.79 -225.9 96.7 C-224.99 96.68 -224.09 96.66 -223.15 96.63 C-213.62 96.33 -203.83 95.69 -196.68 88.74 C-195.85 87.78 -195.01 86.82 -194.15 85.83 C-193.2 84.75 -192.24 83.67 -191.27 82.6 C-190.78 82.04 -190.28 81.48 -189.77 80.91 C-181.89 72.24 -173.42 64.44 -164.21 57.2 C-163.04 56.21 -163.04 56.21 -161.84 55.19 C-155.43 49.82 -148.51 45.53 -141.28 41.39 C-139.2 40.19 -137.13 38.98 -135.06 37.76 C-100.48 17.72 -60.73 6.35 -21.21 1.2 C-20.59 1.12 -19.97 1.03 -19.33 0.95 C-12.88 0.13 -6.49 0.03 0 0 Z M-18.09 15.58 C-19.82 15.77 -19.82 15.77 -21.58 15.96 C-27.91 16.69 -34.03 17.69 -40.21 19.2 C-37.18 21.23 -34.97 21.96 -31.48 22.89 C-29.78 23.35 -29.78 23.35 -28.05 23.82 C-26.28 24.29 -26.28 24.29 -24.46 24.77 C-23.3 25.08 -22.13 25.4 -20.93 25.72 C-17.7 26.59 -14.46 27.4 -11.21 28.2 C-10.14 28.52 -10.14 28.52 -9.05 28.84 C-7.09 29.41 -7.09 29.41 -4.21 29.2 C-1.72 27.64 0.1 25.65 2.04 23.45 C2.55 22.9 3.07 22.35 3.6 21.78 C5.01 20.27 6.4 18.74 7.79 17.2 C8.78 16.2 9.78 15.2 10.79 14.2 C1.05 13.76 -8.42 14.51 -18.09 15.58 Z M19.79 20.2 C18.35 21.25 18.35 21.25 16.89 22.33 C8 29.16 8 29.16 3.79 39.2 C4.23 41.36 4.23 41.36 5.11 43.54 C5.42 44.36 5.72 45.17 6.04 46.02 C6.37 46.86 6.7 47.71 7.04 48.58 C7.35 49.42 7.66 50.25 7.98 51.12 C10.76 59.37 10.76 59.37 15.99 66.05 C19.53 67.51 22.77 67.6 26.54 67.64 C47.17 68.42 67.39 75.92 85.5 85.5 C87.13 86.35 87.13 86.35 88.79 87.2 C89.55 87.63 90.31 88.06 91.1 88.5 C98.66 90.49 107.25 87.59 114.6 85.64 C115.59 85.38 116.58 85.12 117.61 84.85 C149.22 76.6 149.22 76.6 173.29 56.58 C174.07 52.91 174.07 52.91 173.79 49.2 C143.81 28.76 100.74 22.9 65.79 17.2 C64.97 17.07 64.16 16.93 63.33 16.8 C40.62 12.96 40.62 12.96 19.79 20.2 Z M-127.83 52.56 C-131.6 57.04 -131.65 61.22 -131.55 66.89 C-130.98 72.52 -128.99 77.48 -126.9 82.7 C-124.46 88.98 -122.16 95.09 -120.67 101.67 C-119.61 106.09 -118.74 109.12 -115.21 112.2 C-112.78 113.6 -110.45 114.8 -107.9 115.95 C-102.12 118.68 -96.68 121.67 -91.28 125.08 C-79.89 132.08 -67.81 132.9 -54.72 130.12 C-50.13 128.44 -47.29 125.08 -44.09 121.52 C-42.78 120.11 -41.46 118.71 -40.14 117.32 C-39.18 116.28 -39.18 116.28 -38.19 115.23 C-35.05 112.01 -31.63 109.13 -28.21 106.2 C-19.6 98.52 -11.11 90.64 -3.21 82.2 C-2.74 81.7 -2.26 81.2 -1.77 80.69 C3.8 74.88 3.8 74.88 5.84 67.43 C5.11 64.49 4.06 61.95 2.79 59.2 C2.41 58.18 2.03 57.15 1.65 56.09 C-2.11 46.06 -6.38 40.29 -16.18 35.69 C-51.66 21.64 -98.66 25.61 -127.83 52.56 Z M316.72 40.77 C302.69 54.44 286.07 66.17 269.08 75.93 C268.29 76.38 267.51 76.84 266.69 77.3 C265.16 78.18 263.62 79.04 262.07 79.89 C260.26 80.92 258.51 82.05 256.79 83.2 C256.46 86.42 256.46 86.42 259.13 88.88 C260.17 89.91 261.23 90.94 262.29 91.95 C262.84 92.49 263.39 93.03 263.95 93.59 C267.44 96.98 271.03 100.21 274.72 103.37 C281.93 109.78 288.56 116.84 294.79 124.2 C295.61 125.15 296.42 126.09 297.27 127.06 C300.16 130.4 302.98 133.79 305.79 137.2 C306.23 137.74 306.67 138.27 307.13 138.82 C315.02 148.44 320.65 159.11 326.19 170.19 C326.76 171.32 327.33 172.46 327.91 173.63 C328.42 174.65 328.93 175.68 329.45 176.74 C330.68 179.29 330.68 179.29 332.79 181.2 C346.91 143.52 354.07 88.61 338.79 50.2 C336.02 44.53 332.84 39.09 327.79 35.2 C322.52 34.13 320.13 37.27 316.72 40.77 Z M183.79 54.2 C183.6 54.83 183.42 55.46 183.23 56.11 C179.19 68.03 168.98 74.41 158.21 80.04 C144.18 86.74 128.9 91.1 113.82 94.72 C110.74 95.46 107.67 96.24 104.6 97.02 C102.99 97.41 101.39 97.81 99.79 98.2 C100.35 99.38 100.92 100.55 101.51 101.76 C108.94 117.22 115.5 132.43 120.3 148.92 C121.11 151.69 121.94 154.45 122.79 157.2 C123.09 158.19 123.39 159.18 123.71 160.2 C124.03 161.18 124.35 162.15 124.68 163.15 C124.96 164.02 125.25 164.9 125.54 165.8 C127.78 170.13 130.7 171.84 135.25 173.37 C136.57 173.7 137.9 174.01 139.23 174.32 C140.3 174.58 140.3 174.58 141.4 174.85 C142.92 175.22 144.45 175.59 145.98 175.95 C149.95 176.9 153.91 177.89 157.88 178.89 C158.65 179.08 159.43 179.28 160.23 179.48 C168.6 181.62 176.68 184.4 184.76 187.45 C193.84 190.83 202.9 193.75 212.6 191.2 C215.87 189.15 218.53 186.9 221.36 184.29 C224.32 181.74 227.46 179.55 230.66 177.33 C236.79 173.04 242.38 168.39 247.79 163.2 C248.7 162.35 248.7 162.35 249.64 161.47 C258.93 152.54 272.48 138.71 273.79 125.2 C272.61 122.45 271.78 121.32 269.79 119.2 C269.22 118.52 268.65 117.84 268.07 117.14 C257.97 105.34 246.07 94.65 233.79 85.2 C233.25 84.79 232.72 84.38 232.17 83.96 C217.02 72.36 201.06 62.31 183.79 54.2 Z M-167.21 77.2 C-168.58 78.4 -169.96 79.59 -171.34 80.77 C-175.86 84.69 -180.02 88.94 -184.21 93.2 C-185.55 94.54 -186.88 95.87 -188.21 97.2 C-182.14 98.19 -176.08 99.12 -169.97 99.83 C-157.38 101.32 -145.26 103.56 -133 106.79 C-131.2 107.28 -131.2 107.28 -129.21 107.2 C-129.6 98.9 -132.21 91.44 -134.88 83.64 C-135.66 81.38 -136.42 79.11 -137.18 76.85 C-137.67 75.4 -138.16 73.95 -138.65 72.5 C-138.99 71.49 -138.99 71.49 -139.34 70.46 C-140.44 67.25 -141.59 64.18 -143.21 61.2 C-152.58 61.2 -160.9 71.25 -167.21 77.2 Z M-1.73 91.13 C-10.15 100.18 -18.84 108.59 -28.21 116.64 C-33.85 121.51 -38.99 126.9 -44.21 132.2 C-42.16 134.45 -40.39 135.76 -37.58 136.93 C-36.87 137.23 -36.15 137.54 -35.42 137.85 C-34.65 138.17 -33.88 138.5 -33.09 138.83 C-17.22 145.72 -3.09 153.87 10.79 164.2 C11.71 164.89 11.71 164.89 12.66 165.58 C18.83 170.13 24.66 174.8 29.97 180.35 C31.79 182.21 33.68 183.89 35.66 185.58 C38.86 188.31 41.75 191.23 44.66 194.27 C50.41 200.1 57.8 206.2 66.29 206.64 C78.58 206.5 89.43 194.4 98.33 186.91 C102.07 183.76 105.91 180.77 109.85 177.87 C112.28 175.78 114.07 173.93 115.79 171.2 C115.9 148.1 102.44 114.84 87.79 97.2 C85.36 95.48 83.56 94.36 80.91 93.2 C80.24 92.89 79.56 92.57 78.87 92.25 C36.08 72.13 36.08 72.13 -1.73 91.13 Z M-264.59 117.89 C-266.01 118.27 -266.01 118.27 -267.47 118.67 C-308.92 130.15 -346.4 152.08 -374.21 185.2 C-374.69 185.77 -375.17 186.33 -375.66 186.91 C-386.83 200.2 -396.79 214.14 -406.03 228.83 C-406.54 229.64 -407.06 230.45 -407.59 231.28 C-415 243.27 -420.18 256.03 -424.53 269.39 C-424.76 270.08 -424.98 270.77 -425.22 271.49 C-429.01 283 -432.45 294.6 -435.71 306.27 C-435.92 307 -436.13 307.74 -436.34 308.49 C-440.29 322.56 -443.33 336.6 -444.4 351.2 C-444.48 352.24 -444.56 353.27 -444.64 354.33 C-445.24 362.65 -445.57 370.87 -445.21 379.2 C-445.18 380.16 -445.14 381.13 -445.11 382.12 C-443.28 425.88 -418.79 461.45 -388.04 491.31 C-386.15 493.02 -384.21 494.62 -382.21 496.2 C-381.35 496.9 -380.48 497.59 -379.59 498.3 C-352.85 519.03 -320.78 529.3 -288.06 536.57 C-286.23 536.98 -284.4 537.4 -282.57 537.84 C-242.94 547.23 -190.63 544.06 -151.21 534.2 C-149.96 533.9 -149.96 533.9 -148.69 533.58 C-110.64 524.01 -72.06 506.48 -42.39 480.52 C-37.13 475.97 -31.46 472.05 -25.69 468.17 C-24.99 467.7 -24.29 467.22 -23.57 466.73 C-22.95 466.32 -22.33 465.9 -21.68 465.47 C-19.92 464.17 -19.92 464.17 -19.21 461.2 C-19.09 459.08 -19.01 456.96 -18.97 454.84 C-18.94 453.56 -18.9 452.28 -18.87 450.96 C-18.81 448.29 -18.75 445.62 -18.7 442.95 C-18.01 417.02 -11.04 391.5 5.79 371.2 C6.21 370.69 6.63 370.18 7.06 369.65 C13.09 362.32 19.34 355.18 25.79 348.2 C26.35 347.57 26.92 346.93 27.51 346.28 C31.64 341.86 36.26 338.8 41.43 335.68 C43.86 334.28 43.86 334.28 45.79 332.2 C44.89 331.34 44 330.48 43.07 329.6 C32.54 319.36 23.85 308.7 16.06 296.25 C12.69 290.91 8.86 286.02 4.79 281.2 C2.73 283.11 1.81 284.12 0.85 286.83 C0.5 287.61 0.15 288.4 -0.21 289.2 C-8.72 292.28 -18.09 290.31 -26.1 286.86 C-35.03 282.11 -40.15 276.29 -43.32 266.67 C-46.46 254.56 -47.77 242.4 -42.73 230.64 C-39.81 225.95 -35.52 222.6 -31.21 219.2 C-32.66 215.22 -34.58 211.84 -36.84 208.27 C-39.73 203.68 -42.43 199.03 -45.03 194.27 C-48.93 187.27 -53.71 181.16 -58.77 174.98 C-61.22 171.97 -63.63 168.93 -66.03 165.89 C-66.49 165.31 -66.96 164.72 -67.43 164.12 C-69.94 160.93 -72.24 157.71 -74.4 154.27 C-89.67 131.08 -125.38 122.31 -150.78 116.95 C-171.47 112.97 -192.39 111.92 -213.4 111.83 C-214.67 111.82 -214.67 111.82 -215.95 111.8 C-232.46 111.68 -248.64 113.54 -264.59 117.89 Z M280.79 133.2 C280.48 133.91 280.17 134.61 279.86 135.34 C271.84 152.63 257.33 169.64 241.57 180.31 C238.33 182.51 235.25 184.87 232.16 187.27 C231.34 187.9 231.34 187.9 230.51 188.54 C228.93 189.76 227.36 190.98 225.79 192.2 C224.85 192.93 223.92 193.65 222.96 194.39 C220.9 196 218.84 197.6 216.79 199.2 C218.15 202.12 219.75 204.56 221.66 207.14 C230.41 220.37 232.19 239.2 235.73 254.4 C236.51 257.78 237.31 261.15 238.11 264.53 C238.35 265.57 238.58 266.61 238.83 267.69 C239.06 268.65 239.29 269.6 239.52 270.59 C239.72 271.44 239.91 272.28 240.12 273.15 C240.68 275.4 240.68 275.4 242.79 277.2 C266.45 270.24 266.45 270.24 287.79 258.2 C288.39 257.76 288.99 257.31 289.61 256.85 C293.25 254.13 296.81 251.32 300.31 248.41 C301.56 247.39 302.84 246.39 304.12 245.41 C311.63 239.41 321.2 227.88 322.79 218.2 C324.88 197.72 313.27 171.68 301.35 155.45 C299.86 153.68 298.33 151.93 296.79 150.2 C295.67 148.89 294.56 147.56 293.45 146.24 C291.18 143.57 288.91 140.9 286.61 138.26 C285.9 137.45 285.9 137.45 285.18 136.62 C283.64 134.96 283.64 134.96 280.79 133.2 Z M-68.21 141.2 C-66.71 146.64 -62.97 149.96 -59.15 153.89 C-57.78 155.33 -56.41 156.77 -55.04 158.21 C-53.77 159.54 -52.49 160.87 -51.21 162.2 C-41.55 172.37 -33.61 183.09 -27.25 195.59 C-24.32 201.25 -20.76 206.24 -16.9 211.3 C-9.69 221.35 -4.44 232.66 0.91 243.76 C7.06 256.45 13.51 268.07 22.25 279.18 C25.06 282.89 27.56 286.81 30.1 290.7 C34.34 297.16 38.79 303.29 43.79 309.2 C44.22 309.76 44.65 310.31 45.1 310.89 C47.96 314.51 51.2 317.46 54.71 320.42 C56.02 321.55 57.31 322.71 58.55 323.92 C71.26 336.08 89.62 341.34 105.79 347.2 C106.67 347.53 107.56 347.85 108.48 348.18 C165.13 368.56 250.5 366.64 305.29 341.38 C316.15 336.26 326.4 330.76 335.79 323.2 C336.79 322.41 337.79 321.61 338.82 320.79 C350.86 310.98 363.61 300.18 370.79 286.2 C371.29 285.29 371.79 284.37 372.3 283.42 C379.61 268.44 375.43 251.67 370.62 236.53 C367.72 228.53 362.88 215.25 354.79 211.2 C351.69 210.61 349.64 210.7 346.89 212.31 C340.49 217.41 336.83 224.22 332.79 231.2 C314.07 263.26 284.2 280.37 249 289.78 C223.47 296.37 196.47 296.35 170.79 290.2 C169.83 289.98 168.88 289.76 167.9 289.54 C148.5 285.01 130.33 278.64 112.79 269.2 C112.12 268.85 111.45 268.5 110.77 268.13 C90.16 257.16 73.3 242.89 56.85 226.45 C56.35 225.96 55.85 225.46 55.34 224.95 C50.89 220.5 46.45 216.06 42.36 211.28 C37.89 206.07 33.03 201.26 28.18 196.41 C26.55 194.78 24.92 193.13 23.3 191.49 C16.79 184.95 10.08 178.88 2.79 173.2 C2.12 172.68 1.45 172.16 0.76 171.62 C-16.7 158.19 -41.11 140.8 -64.03 141.14 C-65.21 141.15 -65.21 141.15 -66.42 141.17 C-67.31 141.19 -67.31 141.19 -68.21 141.2 Z M121.79 179.2 C121.79 179.86 121.79 180.52 121.79 181.2 C120.92 181.61 120.92 181.61 120.05 182.02 C117.72 183.24 115.71 184.62 113.59 186.18 C112.8 186.76 112 187.35 111.19 187.95 C109.94 188.88 109.94 188.88 108.66 189.83 C107.37 190.78 107.37 190.78 106.05 191.75 C101.83 194.88 97.68 198.06 93.66 201.45 C88.66 205.56 83.11 208.69 77.5 211.88 C76.79 212.28 76.08 212.69 75.35 213.1 C74.71 213.46 74.07 213.82 73.41 214.19 C71.61 215.23 71.61 215.23 69.79 217.2 C69.94 220.05 70.73 221.15 72.68 223.25 C73.5 223.95 74.32 224.66 75.16 225.39 C76.07 226.18 76.98 226.97 77.92 227.79 C78.87 228.58 79.81 229.38 80.79 230.2 C81.64 230.93 82.49 231.65 83.37 232.4 C120.3 263.24 169.33 284.13 218.29 281.05 C222.49 280.63 226.64 280 230.79 279.2 C230.25 272.09 229.08 265.31 227.46 258.37 C227.23 257.37 227 256.37 226.76 255.34 C226.27 253.23 225.78 251.13 225.28 249.03 C224.54 245.85 223.81 242.66 223.09 239.48 C219.36 220.12 219.36 220.12 208.79 204.2 C206.53 203.24 204.29 202.63 201.91 202.02 C198.23 201.06 194.64 199.86 191.04 198.64 C189.47 198.12 187.91 197.6 186.34 197.07 C182.14 195.67 177.95 194.23 173.76 192.8 C161.85 188.75 149.96 184.78 137.79 181.58 C136.85 181.33 135.92 181.08 134.97 180.83 C130.47 179.69 126.46 178.91 121.79 179.2 Z M-30.65 228.08 C-36.76 234.73 -37.89 242.87 -37.59 251.61 C-36.57 261.35 -33.9 269.8 -26.21 276.2 C-20.88 280.03 -15.84 282.42 -9.21 282.2 C-5.73 280.54 -3.64 278.32 -2.25 274.67 C-2.2 269.32 -4.67 265.47 -7.15 260.83 C-8.17 258.86 -9.19 256.89 -10.21 254.93 C-10.72 253.96 -11.23 252.99 -11.76 251.99 C-13.78 248.11 -15.72 244.19 -17.65 240.27 C-20.01 235.48 -22.53 230.82 -25.21 226.2 C-28.33 225.9 -28.33 225.9 -30.65 228.08 Z M390.79 261.2 C389.13 262.86 389.49 264.94 389.29 267.17 C386.92 292.75 371.33 310.37 352.68 326.81 C340.48 336.91 327.56 345.59 312.91 351.7 C311.37 352.34 311.37 352.34 309.81 353 C307.8 353.82 305.79 354.62 303.77 355.4 C297.18 358.08 292.76 361.23 288.79 367.2 C285.71 376.42 288.12 385.9 290.41 395.02 C290.65 395.99 290.88 396.97 291.12 397.98 C293.14 405.57 296.11 411.75 302.79 416.2 C310.27 415.96 316.71 413.74 323.72 411.27 C333.53 407.89 343.36 404.8 353.33 401.94 C380.57 394.11 406.96 384.96 432.79 373.2 C433.48 372.89 434.17 372.58 434.88 372.25 C439.39 370.2 443.89 368.13 448.38 366.05 C449.83 365.37 451.28 364.7 452.73 364.03 C462.82 359.36 472.34 354.09 481.79 348.2 C483.85 346.93 485.91 345.66 487.97 344.39 C489.02 343.74 490.07 343.09 491.14 342.43 C493.93 340.71 496.74 339.05 499.55 337.39 C531.41 319.04 531.41 319.04 554.97 291.64 C556.08 286.93 556.08 282.88 554.79 278.2 C551.71 273.99 548.81 272.39 543.79 271.2 C537.87 270.36 532.01 269.93 526.04 269.67 C524.67 269.61 524.67 269.61 523.27 269.55 C514.62 269.17 505.97 268.94 497.31 268.76 C494.61 268.7 491.9 268.64 489.19 268.58 C482.48 268.43 475.77 268.28 469.06 268.14 C463.35 268.02 457.63 267.89 451.92 267.76 C449.29 267.7 446.65 267.65 444.02 267.6 C414.99 266.96 414.99 266.96 404.1 264.2 C402.61 263.85 401.13 263.49 399.65 263.14 C398.37 262.83 397.1 262.52 395.79 262.2 C394.13 261.82 392.47 261.46 390.79 261.2 Z M-448.21 285.2 C-466.3 294.22 -466.3 294.22 -483.21 305.2 C-484.06 305.82 -484.9 306.44 -485.76 307.08 C-508.06 324.22 -520.63 346.12 -525.83 373.42 C-528.23 396.93 -526.33 419.55 -511.03 438.52 C-492.27 458.04 -463.27 469.72 -436.51 471.44 C-434.06 471.45 -431.66 471.4 -429.21 471.2 C-429.62 470.52 -430.02 469.84 -430.43 469.14 C-432.01 466.45 -433.57 463.76 -435.14 461.06 C-435.85 459.82 -436.58 458.59 -437.3 457.35 C-463.45 412.78 -467.06 364.22 -454.23 314.31 C-452.8 308.85 -451.32 303.4 -449.77 297.96 C-449.43 296.74 -449.08 295.51 -448.73 294.25 C-448.41 293.16 -448.1 292.06 -447.77 290.93 C-446.96 288.13 -446.96 288.13 -448.21 285.2 Z M11.14 387.6 C0.82 406 -2.59 424.1 -2.64 445.08 C-2.65 447.63 -2.7 450.19 -2.75 452.74 C-3.01 478.49 11.05 495.18 28.13 512.89 C34.82 519.69 41.2 525.86 49.79 530.2 C50.5 530.57 51.21 530.95 51.94 531.33 C120.19 566.77 194.68 552.3 264.79 530.16 C286.45 523.21 306.6 513.67 326.77 503.29 C331.59 500.81 336.44 498.37 341.3 495.95 C359.46 486.9 375.24 476.23 390.79 463.2 C391.51 462.64 392.23 462.07 392.98 461.49 C395.79 459.25 397.59 457.8 398.72 454.33 C398.74 453.63 398.76 452.93 398.79 452.2 C392.08 448.76 385.79 447.21 378.35 446.2 C377.22 446.04 376.09 445.88 374.93 445.71 C361.83 443.93 348.66 442.79 335.49 441.69 C316.11 440.02 297.16 436.85 283.79 421.2 C277.4 412.17 275.71 401.26 273.35 390.66 C271.84 384.06 270.35 377.64 266.66 371.89 C260.5 368.28 251.86 370.3 244.98 370.9 C229.37 372.27 213.83 372.52 198.19 372.46 C194.66 372.45 191.14 372.46 187.62 372.47 C144.95 372.59 104.16 366.31 65.91 346.15 C42.17 333.72 21.92 369.22 11.14 387.6 Z " fill="#000000" transform="translate(602.21484375,264.796875)"/>
<path d="M0 0 C9.89 7.69 15.81 18.43 17.39 30.86 C18.15 40.34 16.35 48.33 10.39 55.86 C3.96 62.96 -3.71 67.7 -13.25 69.3 C-23.06 69.77 -32.19 64.98 -39.61 58.86 C-46.91 51.61 -49.78 42.02 -50.11 31.92 C-49.72 21.02 -47.14 11.93 -39.39 4.02 C-27.73 -5.07 -12.76 -8.43 0 0 Z M-27.61 9.86 C-29.72 13.5 -30.05 16.69 -29.61 20.86 C-27.85 24.57 -27.85 24.57 -24.61 26.86 C-20.12 27.22 -17.67 27.42 -13.68 25.29 C-10.91 22.03 -10.61 20.12 -10.61 15.86 C-11.71 11.26 -12.6 8.53 -16.61 5.86 C-21.37 5.08 -23.99 6.87 -27.61 9.86 Z " fill="#000000" transform="translate(249.61328125,622.14453125)"/>
<path d="M0 0 C9.78 5.65 17.48 15.04 21.06 25.69 C23.73 37.16 23.88 47.29 17.66 57.52 C11.5 65.88 2.91 71.23 -7.32 73.13 C-15.98 73.61 -24.5 69.78 -31.09 64.38 C-38.46 57.63 -43.55 50.92 -44.32 40.69 C-44.81 29.05 -42.94 18.85 -35.7 9.41 C-27.06 0.96 -11.69 -4.77 0 0 Z M-22.94 13.69 C-24.79 17.39 -24.4 21.65 -23.94 25.69 C-21.94 28.83 -20.65 29.47 -17.12 30.56 C-13.27 30.71 -10.52 30.13 -6.94 28.69 C-4.45 24.99 -4.87 22.12 -5.45 17.88 C-6.18 14.62 -7.58 12.05 -9.94 9.69 C-15.79 9.2 -18.65 9.27 -22.94 13.69 Z " fill="#000000" transform="translate(454.9375,623.3125)"/>
<path d="M0 0 C0.59 0.54 1.18 1.08 1.79 1.63 C11.03 11.04 15.27 23.89 15.25 36.79 C15.07 47.58 11.44 56.87 4.22 65.01 C-4.54 73.3 -17.35 77.76 -29.31 78.44 C-40.31 77.98 -50.82 73.86 -60 68 C-60.91 67.42 -61.81 66.85 -62.75 66.25 C-72.97 56.03 -78.31 42.86 -78.39 28.56 C-78.14 15.95 -72.91 2.65 -64 -6.38 C-46.46 -20.11 -15.36 -14.51 0 0 Z M-35.93 -7.62 C-51.62 -4.58 -51.62 -4.58 -63 6 C-68.96 17.17 -71.59 26.58 -68.31 38.94 C-65.14 49.33 -60.74 58.07 -51.09 63.7 C-39.12 69.83 -27.9 72.46 -14.62 68.38 C-4.14 64.33 2.11 59 7.03 48.88 C11.41 37.82 9.27 25.75 5 15 C3.33 11.94 1.42 9.5 -1 7 C-1.79 6.13 -1.79 6.13 -2.6 5.25 C-9 -1.05 -20.2 -8.26 -29.44 -8.75 C-31.64 -8.52 -33.76 -8.05 -35.93 -7.62 Z " fill="#000000" transform="translate(530,481)"/>
<path d="M0 0 C2.38 1.81 2.38 1.81 3.38 3.62 C3.38 7.01 2.14 8.93 0.38 11.81 C-1.81 13.78 -4.2 15.32 -6.69 16.88 C-7.7 17.52 -7.7 17.52 -8.73 18.18 C-27.11 29.82 -45.4 31.21 -66.62 26.81 C-77.89 24.18 -85.74 20.32 -92.5 10.78 C-93.99 8.18 -94.48 5.79 -94.62 2.81 C-92.85 2.2 -92.85 2.2 -90.62 1.81 C-87.97 3.16 -85.52 4.56 -83 6.12 C-76.91 9.72 -71.77 12.25 -64.62 12.81 C-63.14 12.97 -63.14 12.97 -61.62 13.13 C-39.2 15.24 -24.41 11.86 -5.62 -0.19 C-2.62 -1.19 -2.62 -1.19 0 0 Z " fill="#000000" transform="translate(388.625,705.1875)"/>
<path d="M0 0 C6.48 3.76 11.92 10.22 14.1 17.41 C15.24 23 15.13 27.66 11.89 32.65 C4.35 42.01 -4.37 45.8 -16.11 47.18 C-24.87 47.68 -31.53 44.6 -38.5 39.38 C-43.85 34.33 -48.47 28.82 -49 21.25 C-48.66 12.48 -44.6 4.58 -38.25 -1.32 C-28.63 -8.51 -10.42 -4.47 0 0 Z M-35.02 9.07 C-38.19 13.38 -39.47 17.5 -39.17 22.85 C-37.6 28.78 -33.2 32.77 -28.06 35.82 C-20.47 39.21 -14.01 39.52 -6.25 36.62 C-1.78 34.66 1.9 32.58 4.81 28.56 C6.22 24.07 6.26 20.92 4.14 16.62 C0.16 10.03 -3.08 5.85 -10.5 3.38 C-24.04 2.21 -24.04 2.21 -35.02 9.07 Z " fill="#000000" transform="translate(757.5,653.625)"/>
<path d="M0 0 C1.06 0.01 1.06 0.01 2.13 0.03 C8.75 0.24 12.91 1.52 17.73 5.98 C22.5 11.11 26.2 16.87 26.56 24 C26.26 29.58 24.24 33.46 20.16 37.17 C12.61 43.1 6.09 43 -3.27 42.13 C-10.34 41.22 -15.8 40.46 -20.4 34.56 C-24.18 28.71 -25.03 23.3 -23.94 16.44 C-22.22 11.07 -19.32 7.01 -14.94 3.44 C-9.89 0.88 -5.7 -0.09 0 0 Z M-12.56 12 C-15.46 17.13 -15.69 21.58 -14.94 27.44 C-13.57 30.17 -12.29 31.36 -9.94 33.44 C-6.3 34.65 -2.92 34.66 0.88 34.69 C1.92 34.72 1.92 34.72 2.99 34.75 C8.63 34.79 12.24 33.28 16.88 30.25 C18.86 27.22 19.17 23.98 19.06 20.44 C17.17 15.18 13.72 10.32 9.12 7.06 C2.11 4.94 -7.35 6.91 -12.56 12 Z " fill="#000000" transform="translate(678.9375,629.5625)"/>
<path d="M0 0 C6.49 5.54 10.35 12.41 11.25 20.94 C11.54 26.93 10.75 31.75 7 36.56 C3.66 39.62 0.17 40.82 -4.31 41.12 C-10.52 40.81 -16.36 38.27 -20.71 33.81 C-24.76 28.39 -25.67 23.23 -25 16.56 C-22.81 9.34 -18.25 3.69 -11.94 -0.44 C-7.28 -2.02 -4.48 -2.15 0 0 Z M-13.32 12.28 C-16.01 15.94 -16.22 18.01 -16 22.56 C-14.91 26.68 -13.64 29.13 -10 31.56 C-6.04 32.53 -2.36 33.07 1.5 31.62 C4.26 27.83 4.24 23.74 3.75 19.25 C2.82 14.32 1.42 10.37 -2 6.56 C-7.53 5.7 -9.75 8.45 -13.32 12.28 Z " fill="#000000" transform="translate(562,564.4375)"/>
<path d="M0 0 C2.7 1.8 4.54 3.08 6 6 C6.58 13.09 6.58 13.09 4.12 16.94 C1.65 19.34 0.66 19.91 -2.75 20.38 C-7.28 19.85 -8.77 18.16 -12 15 C-13.45 12.1 -13.37 10.23 -13 7 C-9.59 1.5 -6.49 -0.64 0 0 Z M-1 6 C-2.32 6.99 -3.64 7.98 -5 9 C-4.34 10.32 -3.68 11.64 -3 13 C-2.01 13 -1.02 13 0 13 C0.33 11.02 0.66 9.04 1 7 C0.34 6.67 -0.32 6.34 -1 6 Z " fill="#000000" transform="translate(794,656)"/>
</svg>
