<?xml version="1.0" encoding="UTF-8"?>
<!-- Generator: visioncortex VTracer 0.6.3 -->
<svg version="1.1" xmlns="http://www.w3.org/2000/svg" width="1280" height="1280">
<path d="M0 0 C4.51 4.03 5.53 7.09 6 13 C4.97 21.39 2.49 29.32 -1 37 C0.5 36.28 0.5 36.28 2.04 35.54 C3.38 34.9 4.72 34.26 6.06 33.62 C6.72 33.31 7.38 32.99 8.05 32.66 C15.51 29.14 22.69 26.9 31 28 C34.86 29.79 36.49 30.93 38.32 34.77 C39.19 38.9 38.32 40.46 36.31 44.12 C35.77 45.14 35.23 46.15 34.68 47.2 C33.24 49.6 31.74 51.81 30 54 C30.74 53.86 31.48 53.71 32.25 53.56 C43.45 51.59 57.71 49.2 68 55 C77.33 61.94 77.33 61.94 78.34 68.04 C78.54 79.39 72.45 86.92 65 95 C60 99.93 54.9 104.18 49 108 C50.18 108.23 51.37 108.46 52.59 108.7 C65.53 111.32 76.48 114.14 85 125 C89.61 132.09 90.12 139.28 88.52 147.46 C82.19 167.39 57.84 179.21 40.83 188.07 C26.61 195.3 12.72 198.58 -3 201 C-0.36 202.16 2.29 203.3 4.94 204.44 C5.67 204.76 6.41 205.09 7.17 205.42 C12.18 207.55 17.47 209.49 23 209 C25.07 207.61 26.65 206.04 28.42 204.29 C45.96 188.74 75.65 174.75 99.25 173.69 C105.92 174.24 109.61 177.11 114 182 C116.05 186.09 115.64 190.57 115 195 C111.52 204.12 105.78 211.14 99 218 C98.28 218.78 97.56 219.56 96.81 220.37 C91.48 226.02 85.71 230.1 79 234 C81.73 236.73 84.89 237.46 88.48 238.61 C89.24 238.86 89.99 239.1 90.77 239.36 C93.24 240.16 95.71 240.96 98.19 241.75 C99.03 242.02 99.86 242.29 100.73 242.57 C137.64 255.09 137.64 255.09 175.84 253.68 C183.33 252.07 191.63 252.29 198.28 256.41 C203.36 260.45 205.15 263.59 206 270 C206 270.99 206 271.98 206 273 C221.62 275.51 237.27 277.34 253 279 C252.91 277.11 252.91 277.11 252.81 275.19 C252.84 265.29 256.8 256.51 261.06 247.75 C261.55 246.75 262.03 245.75 262.53 244.72 C266.69 236.29 271.41 228.54 277 221 C277.41 220.45 277.81 219.89 278.23 219.32 C281.07 215.48 284.01 211.73 287 208 C287.79 207 288.59 206 289.41 204.97 C306.62 183.93 326.55 166.68 350 153 C350.62 152.64 351.23 152.27 351.87 151.9 C367.81 142.54 386.51 134.83 405.25 139.12 C409.64 140.34 411.44 142.27 414 146 C417.96 153.26 419.57 159.95 419.76 168.19 C420.01 171.12 420.43 172.55 422 175 C423.9 176.2 423.9 176.2 426.18 177 C427 177.33 427.83 177.66 428.69 178 C429.55 178.33 430.42 178.66 431.31 179 C441.3 182.85 446.13 186.1 450.76 196.05 C453.97 203.67 452.54 208.36 449.81 215.91 C448.93 219.28 448.98 220.71 450 224 C451.69 226.17 451.69 226.17 453.89 228.14 C454.69 228.9 455.48 229.66 456.29 230.45 C457.96 232.01 459.63 233.58 461.3 235.14 C467.04 240.66 471.27 245.36 472.53 253.39 C472.44 263.46 470.16 271.75 466.36 281.02 C462.52 290.5 460.56 297.4 464.56 307.19 C465.91 310.03 467.41 312.68 469.04 315.37 C474.31 324.18 477.13 331.49 475 342 C471.33 353.09 464.08 364.96 454.38 371.62 C451.82 373.68 451.82 373.68 451.82 375.98 C452.07 378.36 452.5 380.65 453 383 C454.52 391.25 453.72 396.83 449.07 403.95 C444.63 410.06 439.88 416.2 434 421 C433.34 421 432.68 421 432 421 C431.75 421.59 431.51 422.18 431.25 422.79 C428.91 426.92 424.82 429.3 421 432 C420.22 432.55 419.44 433.11 418.64 433.68 C405.39 442.39 389.39 442.57 374.25 439.75 C355.3 435.45 339.5 426.64 323.29 416.27 C321.08 414.79 321.08 414.79 318.56 415.06 C311.41 417.68 307.94 422.32 303.3 428.19 C300.67 431.4 297.84 434.25 294.88 437.13 C292.5 439.49 290.35 442.01 288.17 444.55 C285.23 447.87 282.17 451.08 279.12 454.31 C274.21 459.54 269.55 464.85 265.07 470.46 C262.96 473.05 260.75 475.53 258.5 478 C254.28 482.64 250.3 487.45 246.36 492.33 C244.81 494.24 243.24 496.13 241.67 498.02 C234.6 506.55 227.67 515.15 221 524 C220.45 524.73 219.89 525.46 219.33 526.21 C210.94 537.3 202.7 548.48 194.6 559.77 C192.97 562.04 191.33 564.3 189.69 566.56 C186.44 571.03 183.22 575.51 180 580 C179.45 580.76 178.91 581.51 178.35 582.3 C176.76 584.5 175.19 586.72 173.62 588.94 C173.14 589.61 172.66 590.27 172.16 590.96 C171.03 592.59 170 594.29 169 596 C170.15 599.45 171.26 599.92 174.2 601.79 C184.59 608.77 195.49 620.44 199.06 632.62 C198.98 637.01 197.86 638.71 195 642 C187.5 648 180.5 648.26 171.32 647.98 C169.23 647.95 167.15 647.92 165.07 647.88 C161.81 647.82 158.56 647.75 155.3 647.66 C152.14 647.57 148.98 647.53 145.82 647.48 C144.85 647.45 143.89 647.41 142.89 647.37 C134.47 647.31 130.5 650.67 124.61 656.27 C119.65 661.88 115.11 667.32 114.31 675 C114.65 680.4 118.29 683.41 122 687 C145.34 709.71 145.34 709.71 145.5 720.56 C145.37 724.12 145.08 724.9 142.81 727.88 C133.14 735.18 122.47 734.65 110.84 733.1 C100.06 731.39 91.53 726.61 83 720 C82.36 719.51 81.71 719.02 81.05 718.51 C79.65 717.4 78.31 716.21 77 715 C77 714.34 77 713.68 77 713 C72.42 714.43 69.54 717.03 66.19 720.31 C61.19 725.06 56.05 729.54 50.69 733.88 C50.04 734.4 49.4 734.92 48.73 735.46 C44.8 738.62 40.79 741.67 36.72 744.66 C34.27 746.56 32.57 748.32 31 751 C30.39 756.8 31.87 760.36 34.94 765.12 C40.75 774.38 41.43 783.73 39.32 794.49 C36.62 803.99 32.41 812.45 24 818 C19.64 820.01 16.12 820.34 11.5 819 C6.69 817.11 2.89 814.37 -1 811 C-1.56 810.53 -2.12 810.06 -2.7 809.58 C-11.46 801.62 -17.42 790.29 -23 780 C-23.94 780.4 -24.89 780.8 -25.86 781.22 C-41.97 788.06 -58.07 794.88 -74.56 800.75 C-75.66 801.14 -76.77 801.54 -77.9 801.94 C-83.86 804.02 -89.82 805.84 -95.93 807.4 C-97.97 807.81 -97.97 807.81 -99 809 C-98.68 810.01 -98.36 811.02 -98.03 812.05 C-94.88 823.14 -96.78 833.93 -102 844 C-104.84 848.71 -107.38 852.92 -112 856 C-118.11 857.35 -122.57 857.29 -128 854 C-137.73 846.34 -144 835.56 -148 824 C-153.98 821.01 -162.93 823.15 -169.34 824.02 C-187.15 826.39 -204.98 826.48 -222.93 826.62 C-224.03 826.63 -225.12 826.64 -226.25 826.66 C-228.33 826.68 -230.41 826.69 -232.49 826.7 C-233.88 826.71 -233.88 826.71 -235.31 826.73 C-236.12 826.73 -236.93 826.74 -237.77 826.74 C-240.3 827.04 -241.87 827.61 -244 829 C-245.37 831.45 -246.54 833.82 -247.69 836.38 C-253.01 847.58 -259.53 858.27 -271 864 C-275.53 864.55 -279.07 864.43 -283.25 862.5 C-290.74 855.69 -293.5 846.85 -294.14 836.83 C-294.38 830.64 -294.38 830.64 -294.36 827.82 C-294.43 824.28 -294.86 822.21 -296.85 819.25 C-304.51 813.78 -314.19 812.08 -323.19 809.81 C-341.79 804.96 -359.54 797.99 -377 790 C-377.4 790.69 -377.8 791.38 -378.21 792.09 C-386.31 805.48 -399.72 818.82 -415.38 822.88 C-419.88 823.03 -423.14 822.34 -427 820 C-430.76 815.53 -430.5 810.23 -430.34 804.62 C-429.37 794.35 -426.03 785.16 -421.29 776.1 C-419.31 772.22 -418.22 769.33 -419 765 C-421.01 762.44 -421.01 762.44 -424 760 C-425.32 758.77 -426.64 757.53 -427.96 756.29 C-430.17 754.24 -432.37 752.19 -434.59 750.15 C-439.38 745.67 -443.77 741 -448 736 C-448.83 735.05 -449.66 734.1 -450.52 733.12 C-459.42 722.7 -467.39 711.56 -473 699 C-476.55 700.24 -478.76 701.51 -481.38 704.19 C-490.45 712.47 -504.02 717.53 -516.15 717.32 C-520.27 716.86 -522 715.84 -525 713 C-527.92 708.19 -527.85 703.46 -527 698 C-523.49 688.34 -517.9 680.56 -511 673 C-510.39 672.32 -509.78 671.64 -509.15 670.94 C-505.22 666.77 -500.94 663.87 -496 661 C-495.01 660.34 -494.02 659.68 -493 659 C-493.33 658.03 -493.66 657.06 -494.01 656.06 C-500.34 637.52 -506.49 619.08 -511 600 C-512.72 600.52 -512.72 600.52 -514.48 601.06 C-527.68 604.97 -542.17 609.1 -555.36 602.89 C-558.83 600.84 -562.33 598.76 -564 595 C-564.7 590.41 -564.5 587.01 -562.44 582.81 C-557.4 577 -551.74 572.95 -544.94 569.44 C-543.84 568.86 -543.84 568.86 -542.72 568.26 C-536.89 565.26 -531.09 563.18 -524.76 561.46 C-521.56 559.76 -520.9 558.27 -519.59 554.97 C-518.64 551.8 -518.67 548.83 -518.71 545.54 C-518.71 544.86 -518.72 544.18 -518.72 543.48 C-518.74 541.34 -518.77 539.2 -518.81 537.06 C-518.83 535.6 -518.84 534.14 -518.85 532.68 C-518.89 529.12 -518.94 525.56 -519 522 C-519.51 522.4 -520.02 522.8 -520.55 523.22 C-535.03 534.39 -553.74 538.61 -571.81 536.38 C-579.3 534.98 -586.34 532.71 -591.06 526.44 C-593.85 521.49 -594.46 517.7 -594 512 C-592.86 508.58 -591.48 505.29 -590 502 C-591.95 501.94 -591.95 501.94 -593.94 501.88 C-601.85 500.98 -607.92 495.95 -612.79 489.86 C-616.58 484.04 -618.14 477.37 -618.12 470.5 C-618.13 469.56 -618.13 468.62 -618.13 467.66 C-618.01 465.28 -617.68 463.27 -617 461 C-617.85 461.23 -618.69 461.45 -619.56 461.69 C-623.95 462.09 -626.15 461.1 -630 459 C-636.02 453.78 -637.51 449.54 -638.2 441.74 C-638.65 431.85 -635.46 425.1 -628.88 417.81 C-622.96 411.52 -616.31 405.77 -608 403 C-606.68 403 -605.36 403 -604 403 C-604.68 402.36 -605.36 401.72 -606.06 401.06 C-617.32 389.65 -624.29 376.7 -624.32 360.57 C-624.16 351.59 -621.52 345.11 -615.56 338.38 C-613.83 336.85 -612.1 335.94 -610 335 C-610.17 334.21 -610.34 333.43 -610.51 332.62 C-612.7 321.3 -612.7 321.3 -610 316 C-604.12 308.99 -597.36 306.6 -588.47 305.61 C-585.32 305.35 -582.16 305.14 -579 305 C-579.33 304.34 -579.66 303.68 -580 303 C-580.68 295.73 -580.7 288.93 -576 283 C-572.31 279.44 -569.93 278.41 -564.81 278.38 C-538.6 279.15 -518.83 297.1 -501.76 315.09 C-495.01 322.44 -488.93 330.27 -484.41 339.21 C-483.11 341.21 -483.11 341.21 -480.65 341.76 C-478.08 341.99 -475.58 342.02 -473 342 C-473.21 341.11 -473.21 341.11 -473.43 340.2 C-477.78 320.44 -475.21 302.4 -465 285 C-462.24 281.15 -459.24 278.19 -455.25 275.62 C-451.8 273.32 -448.84 270.96 -445.88 268.06 C-438.23 261.09 -428.17 256.85 -418.38 253.81 C-410.92 251.46 -407.69 248.06 -403.31 241.81 C-396.51 232.24 -388.02 225.5 -377.95 219.66 C-374.75 217.7 -373.12 216.24 -371.5 212.82 C-370.98 208.86 -371.19 205.58 -371.69 201.64 C-373.47 186.34 -374.62 162.63 -364.62 150 C-362 148 -362 148 -359.62 147.31 C-352.47 149.19 -348.4 155.73 -344.77 161.75 C-342.77 165.42 -340.96 169.13 -339.25 172.94 C-338.97 173.56 -338.69 174.18 -338.4 174.81 C-335.87 180.68 -334.44 186.79 -333 193 C-332.4 192.73 -331.8 192.47 -331.17 192.19 C-318.22 186.48 -305.23 181.02 -292 176 C-288.73 174.76 -285.46 173.5 -282.19 172.25 C-281.44 171.97 -280.69 171.69 -279.92 171.4 C-279.22 171.13 -278.52 170.86 -277.79 170.58 C-276.87 170.23 -276.87 170.23 -275.93 169.87 C-273.39 168.72 -271.24 167.7 -269 166 C-268.12 163.24 -268.12 163.24 -267.97 160.07 C-267.14 153.13 -265.18 147.3 -262.5 140.88 C-262.06 139.8 -261.62 138.73 -261.16 137.62 C-247.12 104.06 -247.12 104.06 -237 99 C-229.6 98.53 -229.6 98.53 -227.34 100.31 C-218.46 111.49 -220.06 132.57 -221 146 C-221.58 150.12 -222.61 154.08 -224 158 C-223.19 157.87 -222.38 157.73 -221.54 157.6 C-219.88 157.33 -219.88 157.33 -218.19 157.06 C-217.11 156.89 -216.03 156.71 -214.92 156.54 C-203.48 154.97 -192.15 154.76 -180.62 154.75 C-179.73 154.75 -178.83 154.75 -177.9 154.74 C-159.38 154.73 -141.33 156.3 -123 159 C-123.16 157.84 -123.31 156.68 -123.48 155.49 C-128.27 116.62 -104.32 79.36 -81.53 49.75 C-79.41 47.11 -77.24 44.54 -75 42 C-74.55 41.48 -74.1 40.97 -73.63 40.44 C-66.98 32.85 -60.09 26.09 -52 20 C-51.24 19.41 -50.47 18.82 -49.69 18.21 C-39.49 10.67 -28.08 4.58 -15.94 0.88 C-15.26 0.66 -14.58 0.45 -13.88 0.23 C-8.83 -1.18 -5.05 -1.07 0 0 Z M-64 48 C-67.9 52.49 -71.48 57.21 -75 62 C-75.43 62.57 -75.85 63.14 -76.29 63.73 C-95.22 89.12 -114 121.28 -113 154 C-112.31 157.75 -111.14 160.14 -108.01 162.5 C-103.04 164.98 -97.7 166.06 -92.33 167.4 C-74.67 171.98 -57.72 178.97 -40.81 185.75 C-37.97 186.89 -35.13 188.02 -32.29 189.15 C-30.55 189.85 -28.8 190.55 -27.06 191.25 C-14.3 196.34 -7.17 197.89 5.82 192.39 C6.62 192.03 7.42 191.68 8.25 191.31 C9.56 190.74 9.56 190.74 10.9 190.15 C39.12 177.62 39.12 177.62 65 161 C65.81 160.4 66.62 159.8 67.45 159.19 C73.19 154.61 78.08 148.74 79.51 141.38 C79.77 135.74 78.72 131.31 75 127 C65.39 117.65 51.83 118.48 39.38 118.31 C37.69 118.28 36 118.24 34.31 118.21 C30.21 118.12 26.1 118.06 22 118 C24.22 114.07 25.56 112.37 29.69 110.5 C42.38 103.97 64.12 88.59 68.79 74.66 C69.35 70.29 69.29 68.5 67 64.56 C61.16 59.57 55.17 59.55 47.71 59.69 C29.45 61.21 13.82 68.88 -1.34 78.69 C-5.71 81.5 -10.27 83.84 -15 86 C-14.53 85.07 -14.05 84.14 -13.56 83.19 C-11.96 80.09 -11.96 80.09 -11 77 C-9.68 76.31 -8.34 75.65 -7 75 C-4.97 73.41 -3.01 71.8 -1.06 70.12 C-0.5 69.64 0.07 69.16 0.65 68.66 C2.44 67.12 4.22 65.56 6 64 C6.58 63.49 7.16 62.98 7.76 62.46 C20 51.84 20 51.84 28 38 C5.58 38.94 -12.86 57.48 -27.75 72.81 C-32.09 77.22 -36.77 81.81 -43 83 C-40.21 76.73 -37.32 71.09 -32.81 65.88 C-22.09 53.33 -5 29.41 -5 12 C-27.29 10.64 -50.23 33.04 -64 48 Z M-236 110 C-241.14 115.26 -244.35 120.92 -247.56 127.5 C-248.04 128.47 -248.52 129.44 -249.01 130.44 C-254.56 141.93 -258.41 153.28 -260 166 C-257.29 165.43 -254.58 164.85 -251.88 164.25 C-251.11 164.09 -250.35 163.94 -249.57 163.77 C-243.46 162.4 -239.03 160.25 -234.75 155.5 C-230.81 147.61 -230.82 138.97 -230.75 130.31 C-230.74 129.53 -230.73 128.75 -230.72 127.94 C-230.75 121.87 -231.25 115.5 -234 110 C-234.66 110 -235.32 110 -236 110 Z M-360 159 C-363.04 164.27 -363.13 169.8 -363.13 175.76 C-363.13 177.05 -363.14 178.33 -363.14 179.65 C-363.13 180.32 -363.13 180.98 -363.13 181.67 C-363.13 183.66 -363.13 185.66 -363.14 187.66 C-363.13 195.17 -362.86 202.54 -362 210 C-359.76 208.98 -357.54 207.93 -355.31 206.88 C-354.37 206.45 -354.37 206.45 -353.42 206.02 C-348.16 203.49 -344.66 200.32 -342 195 C-341.17 183.24 -348.16 171.21 -355 162 C-356.48 160.23 -356.48 160.23 -358 159 C-358.66 159 -359.32 159 -360 159 Z M390 153.56 C388.9 153.83 388.9 153.83 387.78 154.1 C362.75 160.51 341.15 176.27 322 193 C320.73 194.08 320.73 194.08 319.43 195.19 C314.49 199.47 310.16 203.96 306 209 C305.55 209.54 305.09 210.08 304.63 210.64 C292.18 225.5 281.02 240.82 272 258 C271.64 258.68 271.28 259.36 270.91 260.06 C266.84 267.75 263.26 275.27 260.79 283.64 C260 286 260 286 258 289 C257.83 291.63 257.83 291.63 258 294 C257.34 294 256.68 294 256 294 C255.67 292.35 255.34 290.7 255 289 C254.35 288.99 253.69 288.97 253.02 288.96 C240.74 288.65 228.67 288.15 216.55 286.02 C211.6 285.16 207.02 284.5 202 285 C199.38 286.88 199.38 286.88 197.5 289.5 C196.83 290.34 196.16 291.17 195.47 292.03 C194.98 292.68 194.5 293.33 194 294 C194.85 296.28 194.85 296.28 197.55 296.86 C198.65 297.15 199.75 297.45 200.88 297.75 C212.69 301.28 223.47 306.86 229.67 318 C232.46 324.26 234.54 329.61 232.18 336.33 C229.48 342.48 225.73 346.68 220.79 351.19 C218.77 352.81 218.77 352.81 219 355 C219.7 355.37 220.4 355.74 221.12 356.12 C228.46 360.91 231.83 368.76 234 377 C235.47 384.87 235.48 391.55 231.5 398.69 C227.12 402.74 221.63 405.12 216 407 C216.62 410.33 217.84 412.45 219.81 415.19 C226.58 425.25 228.9 434 226.56 446.31 C224.42 452.31 218.85 456.13 213.5 459.12 C208.3 461.58 202.65 462.79 197.1 464.17 C194.15 464.68 194.15 464.68 193 466 C192.75 469.49 192.62 472.99 192.48 476.48 C191.98 480.16 191.25 482.09 189 485 C185.45 486.84 182.22 487.95 178.31 488.81 C174.79 489.7 174.79 489.7 173.19 492.81 C169.82 497.73 164.75 499.72 159.2 501.62 C130.31 506.65 101.07 491.26 78.04 475.44 C60.39 462.99 45.29 448.76 40 427 C39.65 424.02 39.5 421.05 39.38 418.06 C39.32 416.89 39.32 416.89 39.26 415.7 C39.16 413.8 39.08 411.9 39 410 C39.66 410 40.32 410 41 410 C41.08 410.67 41.17 411.34 41.25 412.04 C42.22 415.86 43.99 419.04 45.94 422.44 C46.53 423.48 46.53 423.48 47.14 424.55 C51.28 431.71 56.01 438.41 61 445 C61.66 445.87 62.31 446.74 62.99 447.63 C79.87 467.52 112.63 482.59 138 487 C141.64 487.24 145.29 487.23 148.94 487.25 C149.91 487.27 150.89 487.29 151.9 487.31 C158.25 487.35 162.66 486.76 167.72 482.58 C168.39 481.92 168.39 481.92 169.06 481.25 C172 479 172 479 174.38 479.31 C175.24 479.54 176.11 479.77 177 480 C179.75 479.53 182.32 478.77 185 478 C184.84 477.22 184.67 476.43 184.5 475.62 C183.7 469.84 183.01 464.44 185.25 458.94 C189.06 456.25 192.39 456.5 196.97 456.29 C204.77 455.55 210.73 450.51 216 445 C219.02 440.8 219.48 437.54 218.7 432.55 C216.05 422.83 210.18 413.39 201.9 407.51 C199.76 405.81 198.91 404.39 197.75 401.94 C197.41 401.25 197.08 400.55 196.73 399.84 C196 398 196 398 196 396 C196.8 396.16 197.61 396.33 198.44 396.5 C207.12 397.72 214 396.92 222 393 C224.06 391.42 224.88 390.65 225.36 388.09 C225.14 378.63 224.32 370.14 217.19 363.25 C210.4 359.37 203.61 359.78 196 360 C197.53 355.79 200.64 353.69 204.12 351.12 C204.71 350.68 205.29 350.24 205.89 349.79 C208.4 347.9 210.92 346.05 213.5 344.26 C218.16 340.99 220.79 338.33 223 333 C223.85 327.7 223.3 324.94 220.5 320.38 C214 311.53 204.79 306.73 194.12 304.75 C188.4 303.91 182.78 303.8 177 304 C177.87 299.95 178.95 297.82 182.19 295.38 C188.86 290.11 194.36 280.34 195.38 271.88 C195.3 268.93 195.3 268.93 193.23 267.35 C187.45 263.85 180.47 265.99 174.27 267.49 C140.35 276.26 111.29 296.72 85.98 320.46 C85.02 321.36 85.02 321.36 84.04 322.27 C77.43 328.49 70.96 334.85 64.55 341.27 C62.61 343.2 60.67 345.13 58.72 347.05 C52.34 353.41 46.27 359.78 40.75 366.92 C39 369 39 369 36 371 C35.01 371 34.02 371 33 371 C31.6 366.91 32 364.31 33.75 360.5 C45.35 339.24 66.4 319.2 85 304 C85.49 303.59 85.99 303.18 86.5 302.75 C101.34 290.35 117.56 280.13 134 270 C131.13 268.09 129.57 267.53 126.29 266.81 C125.33 266.59 124.37 266.37 123.38 266.15 C121.8 265.8 121.8 265.8 120.19 265.44 C79.95 256.05 42.31 241.09 4.72 224.22 C-85.62 183.71 -174.66 154.93 -291.09 191.73 C-305.76 197.41 -319.99 203.86 -334 211 C-334.63 211.32 -335.26 211.63 -335.9 211.96 C-346.98 217.55 -357.27 223.92 -367.5 230.94 C-378.43 238.41 -389.51 245.42 -401 252 C-398.09 253.48 -395.19 254.69 -392.12 255.81 C-382.71 259.6 -378.8 265.59 -374.88 274.56 C-371.76 286.72 -372.41 302.74 -378 314 C-378.41 314.91 -378.82 315.83 -379.25 316.77 C-389.7 338.02 -413.46 353.04 -435 361 C-441.8 363.21 -450.22 364.71 -457.11 362.24 C-459.85 360.75 -461.93 359.08 -464 356.75 C-465.97 354.71 -465.97 354.71 -469.25 354.5 C-478.56 355.74 -484.49 361.6 -491 368 C-491.78 368.75 -492.55 369.51 -493.36 370.28 C-512.15 389.69 -518.6 419.82 -518.35 446.04 C-517.87 464.08 -512.35 483.28 -502.03 498.26 C-501 500 -501 500 -501 503 C-501.66 503.33 -502.32 503.66 -503 504 C-503.47 505.85 -503.47 505.85 -503.63 508.11 C-503.72 508.99 -503.8 509.88 -503.89 510.79 C-503.97 511.77 -504.04 512.74 -504.12 513.75 C-504.21 514.77 -504.29 515.79 -504.38 516.84 C-509.18 582.49 -489.01 661.47 -448 714 C-447.12 715.17 -446.24 716.33 -445.36 717.5 C-440.76 723.54 -435.94 729.34 -430.81 734.94 C-430.35 735.44 -429.89 735.95 -429.41 736.47 C-404.07 763.62 -369.5 779.97 -335 792 C-334.2 792.28 -333.4 792.56 -332.58 792.85 C-313.46 799.54 -293.38 803.91 -273.44 807.31 C-272.59 807.46 -271.73 807.61 -270.85 807.76 C-267.91 808.23 -264.96 808.63 -262 809 C-261.33 809.09 -260.65 809.17 -259.96 809.26 C-244.57 811.16 -229.19 811.34 -213.71 811.32 C-210.95 811.31 -208.18 811.32 -205.42 811.34 C-188.74 811.44 -172.45 811 -156 808 C-154.76 807.78 -153.52 807.55 -152.24 807.32 C-149.13 806.71 -146.03 806.03 -142.94 805.31 C-141.82 805.06 -140.7 804.8 -139.54 804.54 C-105.05 796.49 -71.26 785.69 -39 771 C-37.95 770.52 -36.89 770.04 -35.81 769.55 C-3.48 754.7 26.1 736.4 52.42 712.34 C53.84 711.05 55.27 709.76 56.73 708.51 C62.37 703.66 67.68 698.51 72.94 693.25 C73.83 692.36 74.72 691.47 75.63 690.55 C80.71 685.43 85.53 680.31 89.95 674.61 C91.97 672.04 94.07 669.59 96.22 667.13 C102.9 659.47 109.09 651.49 115.2 643.38 C117.13 640.82 119.08 638.28 121.03 635.74 C128.08 626.54 135.03 617.29 141.71 607.81 C144.24 604.25 146.81 600.72 149.38 597.19 C153.62 591.32 157.83 585.43 162 579.5 C167.72 571.37 173.53 563.31 179.36 555.26 C180.99 553.02 182.6 550.78 184.22 548.53 C199.28 527.61 214.47 506.79 231 487 C231.42 486.5 231.84 485.99 232.27 485.48 C238.13 478.42 244.16 471.55 250.39 464.82 C252.74 462.29 255.03 459.71 257.31 457.12 C265.62 447.87 274.46 438.99 284 431 C284.95 430.17 285.9 429.34 286.88 428.49 C293.12 423.08 299.47 418.05 306.33 413.44 C309.88 411 312.75 408.7 315 405 C314.67 403.35 314.34 401.7 314 400 C318.62 400 323.24 400 328 400 C327.67 400.33 327.34 400.66 327 401 C328.24 404.73 329.28 405.03 332.64 406.93 C333.6 407.47 334.56 408.02 335.56 408.58 C336.59 409.15 337.62 409.72 338.69 410.31 C339.74 410.9 340.79 411.48 341.87 412.08 C349.4 416.23 356.86 420.15 365 423 C365.94 423.34 366.88 423.67 367.86 424.02 C375.35 426.19 382.8 426.3 390.56 426.38 C391.6 426.39 392.64 426.4 393.72 426.42 C406.99 426.34 418.73 423.12 428.56 413.88 C435.31 406.66 442.65 398.68 443.19 388.44 C443.09 385.15 443.09 385.15 442.5 382.56 C441.61 377.99 441.33 373.77 443 369.38 C444.85 367.18 446.21 366.16 448.56 364.62 C456.21 359.17 463.47 348.2 465.79 339.08 C466.64 330.79 462.68 324.08 458.97 316.97 C454.52 308.33 451.07 299.05 453.74 289.3 C455.1 285.24 456.58 281.22 458.07 277.2 C461.26 268.19 463.88 258.34 460.2 249.09 C457.4 244.23 453.09 240.75 448.84 237.19 C444.38 233.45 441.17 230.48 439 225 C438.85 220.92 439.43 217.35 441.02 213.59 C442.98 208.39 443.32 202.05 441.08 196.88 C436.84 191.29 430.22 188.82 424 186 C422.12 185.09 420.24 184.18 418.38 183.25 C417.58 182.86 416.78 182.48 415.96 182.08 C414 181 414 181 412 179 C410.61 174.13 410.73 169 410.66 163.97 C410.45 158.91 409.59 155.64 406 152 C400.48 151.3 395.39 152.26 390 153.56 Z M31 214 C30.67 214.66 30.34 215.32 30 216 C34.08 217.65 38.17 219.29 42.25 220.94 C43.41 221.41 44.57 221.87 45.76 222.36 C46.88 222.81 47.99 223.25 49.14 223.71 C50.17 224.13 51.19 224.54 52.25 224.97 C60.34 228 68.39 228.12 76.36 224.58 C87.05 218.17 98.88 206.31 104 195 C104.97 191.36 104.97 191.36 105 188 C103.35 184.87 103.35 184.87 100.8 184.25 C77.73 182.22 48.8 201.14 31 214 Z M-449.81 281.75 C-460.06 296.98 -463.52 314.18 -460.8 332.22 C-459.56 338.06 -457.69 343.66 -455 349 C-454.34 349.33 -453.68 349.66 -453 350 C-453.16 349.32 -453.32 348.65 -453.48 347.95 C-455.15 338.45 -455.08 328.43 -450 320 C-448.44 318.05 -446.93 316.61 -445 315 C-444.46 315.35 -443.93 315.7 -443.38 316.06 C-440.07 317.37 -438.37 317.1 -435 316 C-431.55 312.85 -430.14 311.03 -429.5 306.38 C-430.01 302.93 -430.62 301.47 -433 299 C-427.23 292.74 -422.42 291.59 -414.13 291.04 C-406.33 290.94 -398.85 292.57 -393 298 C-391.28 300.62 -390.19 303.07 -389 306 C-384.73 299.59 -385.42 291.44 -386 284 C-387.72 276.93 -390.73 271.85 -396.88 267.75 C-414.22 261.63 -437.11 269.33 -449.81 281.75 Z M-573 293 C-573.94 297.5 -573.96 301.51 -573 306 C-571.04 308.71 -568.91 310.38 -566 312 C-566.19 312.62 -566.37 313.24 -566.56 313.88 C-567.24 316.04 -567.24 316.04 -566 318 C-566.64 317.68 -567.29 317.36 -567.95 317.02 C-571.95 315.68 -575.56 315.62 -579.75 315.62 C-580.55 315.63 -581.35 315.63 -582.18 315.63 C-589.29 315.78 -594.64 317.04 -600.06 321.81 C-601.41 324.96 -601.25 327.62 -601 331 C-600.67 331.66 -600.34 332.32 -600 333 C-597.98 333.65 -597.98 333.65 -596 334 C-595.68 336.29 -595.68 336.29 -596 339 C-598.23 340.74 -598.23 340.74 -601.19 342.31 C-607.07 345.78 -610.61 349.39 -612.6 355.98 C-614.78 366.92 -610.41 376.59 -604.62 385.71 C-597.37 395.92 -587.59 400.12 -576 404 C-582.4 407.27 -588.95 409.73 -595.86 411.71 C-608.48 415.38 -617.81 420.6 -624.31 432.38 C-625.67 437.57 -626.88 442.76 -624.88 447.88 C-621.39 451.83 -618.41 454.59 -613 455 C-611.33 454.69 -609.66 454.36 -608 454 C-608.03 454.98 -608.03 454.98 -608.06 455.98 C-608.15 458.99 -608.2 461.99 -608.25 465 C-608.28 466.03 -608.32 467.06 -608.35 468.12 C-608.45 475.73 -607.29 481 -602.42 486.92 C-595.22 492.38 -584.1 496.6 -575 496 C-575.87 497.61 -575.87 497.61 -576.75 499.25 C-577.5 500.69 -578.25 502.13 -579 503.56 C-579.38 504.27 -579.76 504.97 -580.16 505.7 C-582.53 510.3 -583.6 513.7 -583 519 C-580.61 522.98 -578.45 524.76 -574 526 C-554.09 529.83 -535.31 522.13 -518.51 512.03 C-514.73 508.97 -514.14 506.29 -513.62 501.56 C-514.15 496.59 -516.42 494.03 -519.43 490.16 C-522.66 485.93 -525.35 481.75 -527.73 476.98 C-529.32 474.51 -530.34 473.33 -533 472 C-539.25 472.21 -544.85 474.04 -550.75 476 C-552.41 476.54 -554.07 477.08 -555.73 477.62 C-556.46 477.86 -557.18 478.1 -557.93 478.35 C-559.94 478.98 -561.95 479.51 -564 480 C-558.86 471.37 -552.51 467.1 -543 464 C-541.69 463.68 -540.38 463.37 -539.06 463.06 C-535.92 462.28 -535.92 462.28 -534.32 459.91 C-532.64 456.2 -532.67 453.37 -532.75 449.31 C-532.76 448.3 -532.76 448.3 -532.77 447.26 C-532.79 443.51 -532.79 443.51 -534 440 C-545.37 438.75 -555.39 442.45 -566 446 C-567.19 446.39 -568.38 446.79 -569.6 447.2 C-570.39 447.46 -571.18 447.73 -572 448 C-563.71 438.79 -556.05 433.03 -543.56 431.94 C-542.88 431.91 -542.19 431.88 -541.48 431.84 C-537.94 431.61 -536.25 431.22 -533.57 428.84 C-531.78 425.6 -531.41 423.37 -531.25 419.69 C-531.16 418.08 -531.16 418.08 -531.08 416.45 C-531.05 415.64 -531.03 414.83 -531 414 C-537.81 410.36 -543.25 409.86 -550.81 409.94 C-551.99 409.94 -551.99 409.94 -553.2 409.95 C-555.13 409.96 -557.07 409.98 -559 410 C-555.25 404.85 -552.18 403.13 -546 402 C-541.05 401.94 -536.64 403.42 -532 405 C-530.68 405 -529.36 405 -528 405 C-527.16 402.77 -526.33 400.55 -525.5 398.31 C-525.26 397.69 -525.02 397.06 -524.78 396.42 C-523.45 392.8 -522.49 389.84 -523 386 C-524.77 384.06 -524.77 384.06 -527.23 382.52 C-528.12 381.91 -529 381.31 -529.91 380.68 C-530.85 380.06 -531.79 379.45 -532.75 378.81 C-533.67 378.18 -534.59 377.56 -535.54 376.91 C-539.27 374.38 -542.92 371.94 -547 370 C-535.03 369.32 -527.1 371.85 -517 378 C-516.62 377.35 -516.24 376.69 -515.86 376.02 C-512.05 369.71 -507.88 364.37 -502.73 359.15 C-498.99 355.29 -497.09 352.28 -496.88 346.88 C-498.81 336.81 -509.45 327.9 -516.35 320.71 C-517.46 319.56 -518.57 318.4 -519.67 317.24 C-531.33 304.9 -545.56 290.34 -563.38 288.69 C-568.02 289.09 -569.83 289.52 -573 293 Z M-423 301 C-424.9 304.02 -425 305.92 -424.94 309.5 C-425.03 314.47 -426.68 316.64 -430.06 320.12 C-432.91 321.94 -434.89 322.57 -438.12 323.38 C-441.56 324.35 -442.73 324.69 -445.12 327.44 C-446.74 334.02 -447.29 340.38 -444.25 346.56 C-441.45 349.72 -441.45 349.72 -438 352 C-423.53 350.55 -408.12 336.73 -399 326 C-395.71 321.57 -393.29 317.73 -392.38 312.25 C-393.15 308.24 -394.33 306.09 -397 303 C-404.53 298.45 -414.93 296.76 -423 301 Z M-551 585 C-554.3 588.53 -554.3 588.53 -555.19 593.12 C-554.22 596.22 -554.22 596.22 -551.25 597.88 C-542.29 600.97 -528.53 600.04 -519.95 596.05 C-517.7 594.61 -516.2 593.41 -515 591 C-514.49 583.43 -515.18 576.35 -517 569 C-527.22 569 -543.21 578.56 -551 585 Z M164 603 C157.01 610.8 151.21 619.67 145.24 628.25 C144.25 629.65 143.2 631.02 142.14 632.38 C140.81 633.94 140.81 633.94 141 636 C148.24 637.17 155.47 637.22 162.78 637.24 C164.93 637.25 167.08 637.28 169.22 637.31 C176.74 637.37 183.03 636.96 190 634 C189.69 627.86 186.81 624.51 183 620 C182.31 619.18 181.63 618.36 180.92 617.51 C176.12 611.97 171.09 607.11 165 603 C164.67 603 164.34 603 164 603 Z M-502.45 678.41 C-508.91 685.33 -516.75 694.41 -517.12 704.31 C-517.06 705.64 -517.06 705.64 -517 707 C-502.7 708.45 -489.51 700.04 -477 694 C-477.61 690.3 -478.65 687.29 -480.29 683.92 C-480.73 682.99 -481.18 682.06 -481.64 681.1 C-482.11 680.14 -482.58 679.18 -483.06 678.19 C-483.53 677.21 -484.01 676.23 -484.49 675.22 C-485.66 672.81 -486.83 670.4 -488 668 C-493.26 668 -498.9 674.92 -502.45 678.41 Z M102 682 C100.11 684.12 98.27 686.27 96.44 688.44 C95.35 689.72 94.26 691 93.17 692.29 C92.63 692.92 92.09 693.55 91.54 694.2 C88.42 697.85 85.21 701.43 82 705 C89.28 713.25 101.23 719.77 112 722 C113.64 722.09 115.28 722.13 116.91 722.13 C117.84 722.13 118.77 722.14 119.72 722.14 C120.68 722.13 121.64 722.13 122.62 722.12 C123.59 722.13 124.56 722.13 125.55 722.14 C126.94 722.13 126.94 722.13 128.35 722.13 C129.2 722.13 130.04 722.13 130.91 722.13 C133.06 722.13 133.06 722.13 135 721 C134.47 710.45 123.96 702.67 116.92 695.72 C115.17 693.98 113.42 692.24 111.68 690.5 C110.57 689.39 109.46 688.29 108.36 687.19 C107.83 686.67 107.31 686.14 106.77 685.61 C104.73 683.11 104.73 683.11 102 682 Z M13.48 758.91 C12.79 759.32 12.11 759.73 11.4 760.15 C10.67 760.6 9.94 761.04 9.19 761.5 C7.66 762.41 6.14 763.33 4.61 764.24 C3.84 764.7 3.07 765.16 2.28 765.64 C-1.14 767.68 -4.6 769.66 -8.06 771.62 C-9.21 772.28 -10.35 772.93 -11.54 773.6 C-12.35 774.06 -13.16 774.52 -14 775 C-3.81 795.57 -3.81 795.57 13.56 808.88 C16.76 809.04 18.24 808.66 21 807 C27.3 799.8 29.65 791.44 29.35 781.93 C28.26 772.87 24.84 764.67 20 757 C16.84 757 16.08 757.33 13.48 758.91 Z M-409 772 C-415 785.11 -419.69 796.29 -419 811 C-409.85 811.15 -405.53 807.02 -399 801 C-397.93 800.03 -396.85 799.06 -395.77 798.1 C-391.42 794.16 -387.12 790.18 -383 786 C-384.07 785.41 -385.15 784.82 -386.25 784.21 C-387.69 783.41 -389.13 782.61 -390.56 781.81 C-391.27 781.43 -391.97 781.04 -392.7 780.64 C-396.24 778.66 -399.59 776.63 -402.84 774.2 C-405.77 771.71 -405.77 771.71 -409 772 Z M-112.56 810.93 C-113.31 811.13 -114.06 811.33 -114.83 811.53 C-116.41 811.95 -117.99 812.37 -119.57 812.79 C-121.99 813.43 -124.41 814.07 -126.84 814.71 C-128.37 815.12 -129.9 815.53 -131.44 815.93 C-132.16 816.13 -132.89 816.32 -133.64 816.51 C-137.41 817.51 -137.41 817.51 -141 819 C-139.52 824.26 -137.13 828.48 -134.25 833.06 C-133.83 833.76 -133.41 834.45 -132.98 835.17 C-129.74 840.38 -126.28 845.07 -120.12 846.81 C-119.07 846.91 -119.07 846.91 -118 847 C-109.24 838.66 -105.33 824.67 -103 813 C-103 811.68 -103 810.36 -103 809 C-106.29 809 -109.4 810.09 -112.56 810.93 Z M-284 819 C-286.97 821.97 -285.99 830.73 -286 835 C-285.5 841.48 -284.31 848.89 -280 854 C-276.76 855.76 -276.76 855.76 -273 855 C-262.02 848.71 -256.79 835.04 -252 824 C-253.59 822.41 -255.4 822.57 -257.59 822.28 C-258.54 822.15 -259.49 822.03 -260.47 821.89 C-261.47 821.76 -262.47 821.63 -263.5 821.5 C-264.47 821.37 -265.44 821.24 -266.44 821.11 C-269.29 820.73 -272.14 820.36 -275 820 C-275.89 819.88 -276.78 819.77 -277.69 819.65 C-279.79 819.39 -281.89 819.19 -284 819 Z " fill="#000000" transform="translate(722,191)"/>
<path d="M0 0 C2.49 2.18 4.85 4.43 7.17 6.79 C7.74 7.35 8.32 7.92 8.91 8.5 C19.52 19.77 21.79 33.75 21.41 48.61 C20.64 65.39 11.9 80.6 -0.14 91.96 C-13.45 103.2 -29.95 111.94 -47.52 112.04 C-48.38 112.06 -49.24 112.08 -50.13 112.1 C-60.54 112.16 -68.35 109.08 -75.83 101.79 C-87.05 88.44 -87.86 74.56 -86.83 57.79 C-84.55 37.91 -73.26 20.11 -57.83 7.79 C-67.61 9.97 -74.91 14.59 -81.83 21.79 C-83.36 16.48 -81.81 13.88 -79.27 9.21 C-72.4 -2.34 -61.44 -7.7 -48.83 -11.21 C-30.9 -14.37 -14.51 -11.33 0 0 Z M-36.83 3.79 C-36.83 4.45 -36.83 5.11 -36.83 5.79 C-38.28 6.48 -38.28 6.48 -39.76 7.19 C-48.89 11.7 -58.7 16.84 -63.09 26.59 C-63.34 27.32 -63.58 28.04 -63.83 28.79 C-62.87 28.72 -62.87 28.72 -61.88 28.65 C-49.61 28.16 -39.15 31.77 -29.83 39.79 C-22.08 47.19 -17.88 56.71 -17.46 67.41 C-17.66 78.07 -21.76 87.58 -26.83 96.79 C-12.94 91.98 -2.11 79.61 4.17 66.79 C9.12 55.21 9.04 40.05 4.42 28.4 C-1.42 16.24 -10.22 9.41 -22.83 4.79 C-26.17 3.96 -29.21 3.68 -32.64 3.73 C-33.43 3.74 -34.22 3.74 -35.04 3.75 C-35.93 3.77 -35.93 3.77 -36.83 3.79 Z M-65.83 39.79 C-64.66 42.32 -63.48 44.22 -61.71 46.41 C-59.18 50.97 -59.01 54.68 -59.83 59.79 C-62.01 64.23 -64.26 66.86 -68.83 68.79 C-71.82 69.3 -74.8 69.6 -77.83 69.79 C-78.22 79 -75.41 88.21 -69.52 95.41 C-64.14 100.79 -59.34 102.99 -51.71 103.29 C-44.5 103 -41.09 100.26 -36.27 95.16 C-29.31 86.88 -25.23 76.9 -25.6 66 C-26.52 57.31 -31.55 51.59 -37.83 45.79 C-45.62 39.96 -56.3 36.97 -65.83 39.79 Z M-71.83 41.79 C-76.58 48.12 -77.1 55.19 -76.83 62.79 C-72.85 63.1 -70.48 63.15 -66.96 61.16 C-64.28 58.17 -63.75 56.81 -63.83 52.79 C-65.33 48.79 -67.47 45.33 -69.83 41.79 C-70.49 41.79 -71.15 41.79 -71.83 41.79 Z " fill="#000000" transform="translate(550.83203125,471.2109375)"/>
<path d="M0 0 C0.99 0.66 1.98 1.32 3 2 C3.46 4.73 3.46 4.73 3.59 8.2 C3.65 9.46 3.71 10.73 3.77 12.03 C3.8 12.7 3.82 13.37 3.85 14.06 C4.68 33.76 7.47 55.53 21.98 70.39 C29.92 76.7 39.19 79.2 49 81 C48 84 48 84 46.07 84.98 C38.36 87.34 31.52 87.78 24 84.5 C13.27 78.48 6.07 68.98 1 58 C-2.28 59.91 -5.3 61.96 -8.31 64.25 C-31.2 80.27 -62.67 83.29 -89.62 78.81 C-103.48 76.26 -119.55 72.07 -129 61 C-132.38 62.13 -132.98 62.96 -135.12 65.69 C-139.78 71.19 -146.82 77.1 -154.15 78.37 C-158.47 78.5 -161.17 78.35 -164.56 75.5 C-165.77 74.26 -165.77 74.26 -167 73 C-166 70 -166 70 -163.63 68.75 C-162.11 68.1 -162.11 68.1 -160.56 67.44 C-149.68 62.19 -142.7 53.46 -137 43 C-136.6 42.27 -136.2 41.54 -135.79 40.79 C-132.72 34.21 -131.97 27.18 -131.13 20.04 C-130.54 15.35 -129.91 11.91 -127 8 C-121.51 12.73 -120.72 16.87 -120.07 23.81 C-119.81 29.5 -121.04 34.86 -122.24 40.39 C-123.19 44.9 -123.6 48.42 -123 53 C-113.95 63.65 -96.42 67.6 -83 69 C-58.76 70 -38.76 68.29 -17 57 C-16.38 56.68 -15.75 56.36 -15.11 56.03 C-10.38 53.48 -5.98 50.78 -4.13 45.54 C-3.98 42.64 -4.36 40.22 -4.94 37.38 C-5.9 31.61 -6.26 26.01 -6.31 20.19 C-6.33 19.4 -6.35 18.61 -6.36 17.8 C-6.36 11.84 -5.63 5.83 -1.4 1.27 C-0.94 0.85 -0.47 0.43 0 0 Z " fill="#000000" transform="translate(430,583)"/>
<path d="M0 0 C0 0.66 0 1.32 0 2 C-0.68 2.27 -1.36 2.54 -2.07 2.82 C-32.1 14.78 -62.5 27.23 -89 46 C-79.51 46.25 -70.39 45.65 -60.98 44.4 C-58.09 44.02 -55.21 43.66 -52.32 43.3 C-50.88 43.12 -49.44 42.93 -48.01 42.75 C-42.18 42.01 -36.35 41.34 -30.5 40.75 C-29.75 40.67 -29 40.59 -28.23 40.51 C-23.13 40 -18.12 39.94 -13 40 C-13.78 41.92 -13.78 41.92 -15 44 C-17.74 45.06 -20.23 45.82 -23.06 46.5 C-23.9 46.71 -24.74 46.92 -25.6 47.13 C-44.82 51.72 -64.32 53.75 -84 55 C-78.64 57.44 -73.27 59.88 -67.9 62.31 C-66.08 63.13 -64.26 63.95 -62.45 64.78 C-51.04 69.98 -39.57 74.87 -27.84 79.3 C-23.87 80.81 -19.94 82.41 -16 84 C-16 84.66 -16 85.32 -16 86 C-38.29 85.22 -58.89 77.25 -79.12 68.44 C-80.16 67.99 -81.19 67.54 -82.25 67.08 C-100.27 59.08 -100.27 59.08 -104 53 C-103.7 47.14 -99.91 43.98 -96 40 C-95.32 39.3 -94.64 38.59 -93.95 37.87 C-74.11 18.69 -46.66 9.4 -20.44 3.19 C-19.77 3.03 -19.1 2.87 -18.42 2.7 C-16.49 2.25 -14.55 1.8 -12.62 1.36 C-11.49 1.09 -10.36 0.83 -9.2 0.56 C-6.06 0.01 -3.18 -0.1 0 0 Z " fill="#000000" transform="translate(875,516)"/>
<path d="M0 0 C0.49 1.49 0.49 1.49 1 3 C-0.14 3.63 -1.28 4.26 -2.45 4.91 C-13.97 11.39 -24.84 18.51 -35.55 26.24 C-37.95 27.96 -40.36 29.68 -42.77 31.39 C-60.73 44.2 -77.94 57.54 -92.51 74.24 C-96.03 78.14 -99.69 81.89 -103.38 85.62 C-104.08 86.35 -104.78 87.07 -105.51 87.82 C-106.5 88.83 -106.5 88.83 -107.52 89.85 C-108.12 90.46 -108.72 91.06 -109.33 91.69 C-111 93 -111 93 -114 93 C-113.7 79.84 -102.66 69.79 -94 61 C-92.76 59.72 -91.52 58.44 -90.28 57.16 C-83.21 49.93 -76.02 43.17 -68 37 C-66.69 35.96 -65.38 34.92 -64.07 33.88 C-44.47 18.45 -23.41 8.54 0 0 Z " fill="#000000" transform="translate(1116,412)"/>
<path d="M0 0 C2.69 0.27 3.87 0.88 5.86 2.72 C23.29 24.3 30.42 52.66 28 80 C26.24 89.04 20.64 95.89 14 102 C13.34 102 12.68 102 12 102 C12.12 101.25 12.24 100.49 12.37 99.72 C17.06 69.98 16.39 45.9 2.77 18.48 C2.39 17.71 2.02 16.94 1.63 16.16 C0.89 14.67 0.14 13.19 -0.64 11.72 C-3.16 6.67 -3.16 6.67 -2.28 3.07 C-1 1 -1 1 0 0 Z " fill="#000000" transform="translate(613,559)"/>
<path d="M0 0 C5.29 0.44 8.67 2.45 12.81 5.56 C13.42 6.01 14.04 6.47 14.67 6.93 C24.36 14.17 34.12 22.05 38 34 C38.31 38.59 37.68 42.05 35 45.81 C25.48 52.76 15.1 54.02 3.57 52.73 C-3.43 51.44 -8.77 48.51 -13.5 43.19 C-15.43 39.1 -15.31 36.48 -15 32 C-10.27 33.87 -5.61 35.87 -0.94 37.88 C4.09 39.8 8.63 40.18 14 40.25 C15.2 40.28 16.39 40.3 17.62 40.33 C21.23 39.98 23.09 39.1 26 37 C26.14 30.36 23.08 27.24 18.61 22.56 C14 18.04 9.2 13.74 4.29 9.54 C1.07 6.63 0.3 4.3 0 0 Z " fill="#000000" transform="translate(686,707)"/>
<path d="M0 0 C13.96 0.8 28.77 10.61 38.25 20.39 C40.71 23.4 42.04 25.55 42.8 29.38 C41.84 33.8 40.29 36.85 36.44 39.42 C23.6 45.79 4.6 48.55 -9.42 45.08 C-16.39 42.69 -23.15 39.05 -27.82 33.26 C-27.82 32.6 -27.82 31.94 -27.82 31.26 C-24.5 31.86 -21.42 32.7 -18.23 33.79 C-12.53 35.52 -7.18 35.75 -1.26 35.7 C0.3 35.69 0.3 35.69 1.9 35.68 C11.56 35.5 22.93 34.76 31.18 29.26 C29.8 23.56 25.81 20.47 21.18 17.26 C17.27 15.04 13.24 13.08 9.18 11.15 C8.2 10.69 8.2 10.69 7.21 10.21 C5.79 9.54 4.36 8.89 2.93 8.24 C2.21 7.9 1.49 7.56 0.74 7.21 C0.08 6.9 -0.58 6.6 -1.25 6.29 C-2.82 5.26 -2.82 5.26 -3.82 2.26 C-1.82 0.26 -1.82 0.26 0 0 Z " fill="#000000" transform="translate(810.8203125,727.7421875)"/>
<path d="M0 0 C13.03 3.93 27.04 11.14 34.27 23.09 C36.94 29.21 36.8 35.47 34.81 41.75 C32.05 46.7 29.45 49.85 23.94 51.5 C14.67 53.08 6.12 49.22 -1.39 44.09 C-8.66 38.27 -16.32 30.2 -18.81 21 C-18.87 20.34 -18.94 19.68 -19 19 C-18.01 18.34 -17.02 17.68 -16 17 C-9.85 22.25 -4 27.69 1.44 33.69 C6.96 38.67 12.64 40.63 20 41 C20.99 40.67 21.98 40.34 23 40 C24.96 32.42 23.15 27.29 19.37 20.58 C15.58 14.48 10.26 9.81 5 5 C3.32 3.35 1.66 1.68 0 0 Z " fill="#000000" transform="translate(758,809)"/>
<path d="M0 0 C6.04 0.48 10.52 1.77 15.88 4.56 C16.92 5.1 16.92 5.1 17.98 5.64 C27.63 10.75 39.3 18.6 43.19 29.25 C42.87 33.84 40.96 36.09 37.69 39.19 C31.49 43.37 25.41 43.34 18.19 43.31 C17.24 43.33 16.29 43.34 15.32 43.36 C8.06 43.37 1.41 42.5 -4.56 38.12 C-6.32 35.53 -6.12 34.06 -6 31 C-5.06 31.01 -4.11 31.01 -3.14 31.02 C0.37 31.03 3.88 31.05 7.4 31.05 C8.92 31.06 10.43 31.07 11.95 31.08 C14.14 31.09 16.32 31.09 18.51 31.1 C20.48 31.11 20.48 31.11 22.49 31.11 C25.48 31.02 28.11 30.7 31 30 C29.7 25.96 28.41 24.14 24.88 21.81 C23.99 21.23 23.11 20.64 22.21 20.04 C17.64 17.14 13.06 14.27 8.45 11.46 C7.79 11.06 7.12 10.65 6.44 10.23 C5.85 9.88 5.26 9.52 4.65 9.15 C2.86 7.9 1.42 6.67 0 5 C-0.19 2.31 -0.19 2.31 0 0 Z " fill="#000000" transform="translate(708,660)"/>
<path d="M0 0 C4.4 1.88 5.73 4.68 7.69 8.88 C7.99 9.5 8.3 10.13 8.62 10.77 C13.63 21.14 12.44 30.19 9 41 C7.04 46.14 4.96 50.23 0 53 C-3.64 53.75 -5.82 53.74 -9.02 51.74 C-20.8 42.07 -29.22 24.06 -31 9 C-30.56 5.66 -30.56 5.66 -30 3 C-27.65 3.22 -27.65 3.22 -25 4 C-23.61 5.94 -23.61 5.94 -22.54 8.49 C-22.13 9.42 -21.73 10.35 -21.31 11.3 C-20.9 12.3 -20.49 13.29 -20.06 14.31 C-19.19 16.33 -18.31 18.34 -17.44 20.35 C-17.02 21.33 -16.6 22.3 -16.17 23.3 C-14.72 26.64 -13.18 29.92 -11.56 33.19 C-11.13 34.07 -10.7 34.95 -10.25 35.86 C-9.02 37.97 -7.91 39.47 -6 41 C-3.39 41.16 -3.39 41.16 -1 40 C0.91 36.32 1.25 33.25 1.23 29.14 C1.23 28.02 1.23 26.91 1.22 25.76 C1.21 24.6 1.2 23.44 1.19 22.25 C1.19 21.11 1.19 19.97 1.19 18.79 C1.15 12.45 0.84 6.29 0 0 Z " fill="#000000" transform="translate(510,696)"/>
<path d="M0 0 C0 0.66 0 1.32 0 2 C-0.7 1.99 -1.41 1.99 -2.13 1.98 C-48.66 1.39 -48.66 1.39 -95 5 C-98.73 5.43 -102.46 5.86 -106.19 6.28 C-108.43 6.54 -110.67 6.81 -112.92 7.09 C-117.64 7.66 -122.23 8.17 -127 8 C-127 6.68 -127 5.36 -127 4 C-120.18 0.55 -113.49 -1.22 -106 -2.62 C-104.89 -2.84 -103.78 -3.05 -102.64 -3.27 C-99.43 -3.87 -96.22 -4.44 -93 -5 C-91.82 -5.21 -91.82 -5.21 -90.62 -5.42 C-65.7 -9.56 -23.23 -11.61 0 0 Z " fill="#000000" transform="translate(1145,532)"/>
<path d="M0 0 C0 0.66 0 1.32 0 2 C-1.4 2.45 -1.4 2.45 -2.83 2.91 C-65.66 21.53 -65.66 21.53 -118.96 57.32 C-121.31 59.26 -123 59.66 -126 60 C-124.51 52.03 -119.7 46.67 -113.11 42.09 C-111.67 41.17 -110.21 40.26 -108.75 39.38 C-107.94 38.88 -107.13 38.38 -106.29 37.86 C-79.41 21.62 -49.36 6.89 -18.12 1.75 C-17.15 1.58 -16.17 1.4 -15.16 1.23 C-10.03 0.36 -5.2 -0.2 0 0 Z " fill="#000000" transform="translate(1139,460)"/>
<path d="M0 0 C0.99 0 1.98 0 3 0 C3.23 0.51 3.45 1.03 3.68 1.55 C12.47 22.44 12.47 22.44 29 37 C31.56 37.44 33.39 37.33 36 37 C38.76 27.02 41.38 17.01 44 7 C44.99 7 45.98 7 47 7 C51.09 14.94 49.99 26.74 48.38 35.29 C46.29 41.27 42.56 45.9 37 49 C32.9 50.19 29.69 49.76 25.82 48.02 C14.07 40.87 4.13 29.65 0.12 16.44 C-1.12 11.28 -2.46 4.93 0 0 Z " fill="#000000" transform="translate(553,782)"/>
<path d="M0 0 C8.96 0.2 16.1 5.94 22.38 11.94 C29.1 19.1 32.86 26.11 33.06 36.06 C31.45 40.52 28.48 43.82 25 47 C14.92 50.36 2.4 48.38 -7 44 C-12.61 41.16 -17.57 38.44 -21 33 C-21.41 32.36 -21.83 31.72 -22.25 31.06 C-23.25 28.32 -23.13 25.89 -23 23 C-22.34 22.67 -21.68 22.34 -21 22 C-15.42 26.44 -15.42 26.44 -13.15 29.48 C-7.98 35.55 0.86 38.59 8.61 39.82 C12.45 40.11 16.26 40 20 39 C20.66 38.34 21.32 37.68 22 37 C22 25.05 13.97 16.11 6 8 C4.82 6.83 3.63 5.66 2.44 4.5 C0 2 0 2 0 0 Z " fill="#000000" transform="translate(603,654)"/>
<path d="M0 0 C4.23 3.82 6.76 7.65 9.25 12.75 C9.6 13.46 9.95 14.18 10.31 14.91 C14.38 23.54 15 30.82 12 40 C9.69 44.88 6.82 49.37 2 52 C-2.01 52.88 -5.39 52.79 -9.11 50.96 C-20.53 43 -29.99 27.18 -32.62 13.56 C-33.2 9.4 -33.2 9.4 -32 7 C-30.23 7.14 -30.23 7.14 -28 8 C-26.14 10.45 -26.14 10.45 -24.25 13.69 C-23.91 14.26 -23.57 14.83 -23.22 15.43 C-21.39 18.53 -19.62 21.67 -17.84 24.8 C-17.49 25.42 -17.14 26.04 -16.78 26.68 C-15.8 28.41 -14.83 30.16 -13.86 31.91 C-10.41 37.75 -10.41 37.75 -4.88 41.31 C-2.17 42.08 -2.17 42.08 0 42 C4.25 30.11 2.91 20.31 1 8 C0.65 5.34 0.32 2.67 0 0 Z " fill="#000000" transform="translate(668,887)"/>
<path d="M0 0 C1.94 0.31 1.94 0.31 4 1 C5.03 4.08 5.17 6.33 5.25 9.56 C5.28 10.67 5.31 11.78 5.35 12.92 C5.41 15.23 5.46 17.54 5.52 19.85 C5.59 33.14 5.59 33.14 10.12 45.25 C11.83 47.24 11.83 47.24 14.12 47 C19.47 45.14 21.77 40.33 24.32 35.5 C28.57 26.11 30.69 16.01 33 6 C34.32 6 35.64 6 37 6 C40.21 15.64 38.51 27.13 34.48 36.2 C30.24 44.22 24.33 50.88 16.44 55.5 C12.78 56.25 10.59 56.13 7 55 C0.04 48.31 -1.74 39.99 -2.15 30.62 C-2.17 26.87 -2.19 23.12 -2.19 19.38 C-2.2 18.07 -2.21 16.76 -2.22 15.41 C-2.23 14.15 -2.23 12.88 -2.23 11.59 C-2.23 10.44 -2.24 9.3 -2.24 8.12 C-2 5.01 -1.32 2.81 0 0 Z " fill="#000000" transform="translate(443,786)"/>
<path d="M0 0 C3.41 2.28 3.46 2.65 4.25 6.45 C4.44 7.35 4.64 8.26 4.84 9.19 C5.04 10.16 5.23 11.13 5.44 12.12 C5.87 14.13 6.3 16.13 6.74 18.13 C6.95 19.12 7.16 20.11 7.38 21.14 C8.24 25.13 9.16 29.1 10.12 33.06 C10.42 34.29 10.71 35.52 11.01 36.79 C11.97 39.91 13.19 42.29 15 45 C18.07 44.32 18.07 44.32 19.26 42.1 C22.26 35.9 24.62 29.71 26.62 23.12 C26.92 22.17 27.22 21.21 27.53 20.22 C29.59 13.54 31.49 6.84 33 0 C33.66 0.33 34.32 0.66 35 1 C35.23 4.67 35.43 8.33 35.62 12 C35.69 13.03 35.75 14.06 35.82 15.12 C36.48 28.12 32.14 40.41 23.91 50.59 C20.92 53.4 18.84 54.82 14.81 55.69 C11.3 54.83 9.65 53.43 7 51 C-1.27 37.33 -3.46 18.64 -2 3 C-1.34 2.01 -0.68 1.02 0 0 Z " fill="#000000" transform="translate(510,911)"/>
<path d="M0 0 C3.55 3.81 3.69 7.01 3.54 12.06 C2.56 17.43 -0.49 20.96 -4 25 C-4.58 25.74 -5.17 26.48 -5.77 27.24 C-12.64 35.1 -23.3 41.19 -33 45 C-33.66 44.67 -34.32 44.34 -35 44 C-34.21 43.3 -33.43 42.6 -32.62 41.88 C-27.35 37.13 -22.21 32.43 -17.66 26.96 C-16.44 25.52 -15.17 24.12 -13.87 22.75 C-8.78 17.36 -6 13.63 -6 6 C-18.22 4.8 -29.23 11.96 -39.55 17.7 C-40.72 18.34 -40.72 18.34 -41.91 18.99 C-42.6 19.38 -43.29 19.76 -44.01 20.16 C-46 21 -46 21 -50 21 C-49.53 16.76 -46.99 14.72 -44 12 C-43.37 11.38 -42.74 10.75 -42.09 10.11 C-31.38 -0.09 -13.83 -9.74 0 0 Z " fill="#000000" transform="translate(701,419)"/>
<path d="M0 0 C-0 2.14 -0 2.14 -1 5 C-3.43 7.23 -6.18 8.96 -8.94 10.75 C-25.68 21.87 -25.68 21.87 -37 38 C-37.17 40.67 -37.17 40.67 -37 43 C-22.48 42.32 -22.48 42.32 -8 41 C-8 41.66 -8 42.32 -8 43 C-10.41 44.15 -12.83 45.3 -15.25 46.44 C-15.93 46.76 -16.61 47.09 -17.32 47.42 C-18.31 47.89 -18.31 47.89 -19.33 48.37 C-19.94 48.66 -20.54 48.95 -21.17 49.24 C-27.38 51.81 -35.16 52.31 -41.53 50.14 C-46.18 47.82 -46.18 47.82 -48 46 C-48.9 37.93 -46.84 33.41 -42 27 C-33.13 16.06 -15.43 -3.75 0 0 Z " fill="#000000" transform="translate(279,747)"/>
<path d="M0 0 C4.26 3.9 5.09 8.08 5.37 13.64 C5.37 17.1 5.32 20.54 5.19 24 C4.2 24.33 3.21 24.66 2.19 25 C-0.12 20.38 -2.43 15.76 -4.81 11 C-9.7 10.45 -9.7 10.45 -12.09 13.02 C-21.18 24.46 -24.62 34.82 -26.81 49 C-29.29 49.5 -29.29 49.5 -31.81 50 C-36.61 45.08 -36.61 45.08 -37.38 40.94 C-35.18 25.6 -28.33 12.39 -16.81 2 C-10.99 -1.41 -6.52 -2.32 0 0 Z " fill="#000000" transform="translate(447.8125,399)"/>
<path d="M0 0 C1.68 0.29 3.34 0.62 5 1 C3.56 8.51 1.05 14.94 -2.08 21.89 C-5.15 28.9 -7.74 36.23 -7 44 C-6.34 44.99 -5.68 45.98 -5 47 C7.56 47 17.19 38.19 26.42 30.51 C30.69 27 30.69 27 34 27 C30.18 39.22 18.53 47.72 7.68 53.45 C2.15 55.78 -3.14 56.39 -9 55 C-12.38 52.79 -14.65 50.85 -16 47 C-18.41 32.3 -10.45 14.4 -2.23 2.64 C-1 1 -1 1 0 0 Z " fill="#000000" transform="translate(310,845)"/>
<path d="M0 0 C5.27 0.46 8.77 2.46 13 5.44 C13.65 5.88 14.31 6.33 14.98 6.79 C18.2 9 21.38 11.26 24.53 13.57 C44.62 28.29 65.69 38.68 91 40 C90 43 90 43 86.75 44.69 C72.55 49.4 58.76 43.55 46.06 37.31 C33.91 31.12 22.34 23.92 12 15 C11.17 14.31 10.35 13.62 9.5 12.9 C5.55 9.52 2.43 6.66 0 2 C0 1.34 0 0.68 0 0 Z " fill="#000000" transform="translate(764,586)"/>
<path d="M0 0 C3.48 2.8 4.99 4.58 5.48 9 C5.86 18.45 4.49 23.69 -1.87 30.88 C-2.66 31.89 -3.45 32.89 -4.27 33.93 C-8.62 39.47 -8.62 39.47 -10.87 41.88 C-11.53 41.88 -12.19 41.88 -12.87 41.88 C-12.25 37.76 -10.86 34.62 -8.93 30.94 C-5.91 25.2 -3.57 20.15 -3.68 13.57 C-3.69 12.27 -3.69 12.27 -3.7 10.95 C-3.64 8.89 -3.64 8.89 -4.87 7.88 C-10.63 7.04 -13.69 8.48 -18.35 11.85 C-22.89 15.51 -27.13 19.48 -31.37 23.47 C-33.71 25.67 -36.06 27.84 -38.43 30 C-39.21 30.73 -40 31.45 -40.81 32.2 C-42.87 33.88 -42.87 33.88 -45.87 34.88 C-46.73 32.46 -46.96 31.18 -46.22 28.69 C-39.68 15.41 -28.18 4.75 -14.62 -1.25 C-9.46 -2.45 -4.69 -2.81 0 0 Z " fill="#000000" transform="translate(556.8671875,384.12109375)"/>
<path d="M0 0 C0.66 0.33 1.32 0.66 2 1 C1.53 6.43 0.88 11.76 -0.06 17.12 C-0.89 22.33 -1.19 27.37 -1.19 32.62 C-1.19 33.31 -1.19 34 -1.19 34.71 C-1.16 37.74 -0.97 40.1 0 43 C5 42.54 7.34 41.4 11 38 C13.25 35.15 15.31 32.18 17.38 29.19 C21.48 23.23 25.69 17.94 31 13 C32.88 18.63 29.25 24.44 26.75 29.56 C22.13 37.77 15.62 46.77 7 51 C3.91 51.64 1.1 51.6 -2 51 C-5.82 48.15 -7.59 45.49 -9 41 C-9.24 38.16 -9.38 35.46 -9.38 32.62 C-9.37 31.84 -9.37 31.05 -9.37 30.23 C-9.17 20.26 -7.37 7.37 0 0 Z " fill="#000000" transform="translate(395,901)"/>
<path d="M0 0 C1.27 -0.01 1.27 -0.01 2.57 -0.02 C5.33 -0.04 8.1 -0.05 10.86 -0.05 C11.8 -0.05 12.73 -0.05 13.7 -0.05 C27.55 -0.03 41.01 0.37 54.61 3.2 C55.49 3.38 56.37 3.56 57.27 3.74 C69.15 6.18 80.4 9.59 91.61 14.2 C91.28 14.86 90.95 15.52 90.61 16.2 C89.4 15.95 88.2 15.7 86.96 15.43 C66.44 11.31 45.65 9.91 24.81 8.42 C23.9 8.36 22.99 8.29 22.06 8.22 C17.6 7.9 13.14 7.59 8.68 7.29 C7.05 7.18 5.42 7.06 3.79 6.95 C3.05 6.9 2.31 6.86 1.55 6.81 C-2.72 6.5 -6.4 5.73 -10.39 4.2 C-10.39 3.21 -10.39 2.22 -10.39 1.2 C-7.14 -0.42 -3.57 0.02 0 0 Z " fill="#000000" transform="translate(1038.390625,556.796875)"/>
<path d="M0 0 C-2.23 4.2 -4.6 7.82 -7.62 11.5 C-12.76 18.01 -13.33 23.96 -13 32 C-9 34 -4.25 32.82 0 32 C4.15 30.47 8.02 28.53 11.94 26.5 C13.95 25.49 15.95 24.48 17.96 23.47 C18.84 23.02 19.71 22.57 20.61 22.11 C22.75 21.11 24.69 20.47 27 20 C21.24 30.46 10.27 36.37 -0.62 40.31 C-7.61 41.73 -12.7 41.46 -19 38 C-21.2 36.16 -21.87 34.92 -22.28 32.09 C-22.71 22.23 -19.12 12.68 -13 5 C-5.18 -1.93 -5.18 -1.93 0 0 Z " fill="#000000" transform="translate(348,750)"/>
<path d="M0 0 C0.34 1.46 0.67 2.92 1 4.38 C1.19 5.19 1.37 6 1.56 6.84 C2 9 2 9 2 11 C5.96 10.34 9.92 9.68 14 9 C13 14.02 12.71 14.95 9 18 C5.38 19.21 2.81 19.32 -1 19 C-6.54 15.92 -6.54 15.92 -8 13 C-8.5 8.66 -8.39 5.98 -5.69 2.56 C-3 0 -3 0 0 0 Z " fill="#000000" transform="translate(341,586)"/>
<path d="M0 0 C0.66 0 1.32 0 2 0 C1.79 9.68 1.79 9.68 -1.44 13.56 C-4.19 16.18 -5.06 16.87 -8.75 17.38 C-13.21 16.86 -14.97 15.24 -18 12 C-18.88 8.69 -18.88 8.69 -19 6 C-14.12 6.88 -14.12 6.88 -13 8 C-10.71 8.5 -10.71 8.5 -8 8 C-4.63 5.56 -2.31 3.46 0 0 Z " fill="#000000" transform="translate(387,587)"/>
<path d="M0 0 C0.99 0.5 0.99 0.5 2 1 C1.01 1.5 1.01 1.5 0 2 C0 1.34 0 0.68 0 0 Z " fill="#000000" transform="translate(160,600)"/>
<path d="" fill="#000000" transform="translate(0,0)"/>
</svg>
