<?xml version="1.0" encoding="utf-8"?>
<!-- Generator: Adobe Illustrator 23.0.1, SVG Export Plug-In . SVG Version: 6.00 Build 0)  -->
<svg version="1.0" id="Слой_1" xmlns="http://www.w3.org/2000/svg" xmlns:xlink="http://www.w3.org/1999/xlink" x="0px" y="0px"
	 viewBox="0 0 720 720" style="enable-background:new 0 0 720 720;" xml:space="preserve">
<path d="M504.1,357.2c-36.8,14-70,38.6-94,69.9c-5.9-35.5-15-70.5-27-104.3c5.7,5.4,11.8,9.4,18.6,11.9c17.6,6.7,38.6,2.6,52.3-10.2
	c13.7-12.8,19.3-33.5,14-51.4c-3.6-12.1-12.1-22.5-22.9-29c19.1-4.6,36.3-11.4,48-26.2c12.7-16.1,15-39.1,5.7-57.3
	c-9.3-18.2-29.2-30-49.7-29.2c-11,0.4-21.7,4.4-30.3,11c1.6-13.7-0.7-27.4-6.8-39c-11.1-21.1-35.2-33.6-57.3-29.8
	c-20.1,3.5-37.7,19.8-44.7,41.6c0,0,0,0,0,0c-3.1,9.5-0.8,25.2,3.1,39.1c-2.7-2.4-5-4.4-6.3-5.5c-9.1-7.1-20-10.1-29.9-8.2
	c-10.2,2-44.2,11-50.8,44.1c-3.3,16.6,8.9,42.5,21.3,52c7.9,6.1,15.6,8.6,22.8,9.2c-5.9,5.4-10.8,12-13.9,19.4
	c-8.6,20.5-4.2,46.4,10.8,64.3c12.4,14.8,31.1,23.1,49.4,23.1c7.5,0,14.9-1.4,21.8-4.3c14.9-6.2,26-19.6,30.8-34.6
	c25.4,66.3,38.7,138,39.3,209.3c-11.5-18.6-31.7-31-53.3-42.9l-42.4-23.4l-1.3,4.5c-7.7,26.8-2.6,56.5,13.6,79.2
	c16.2,22.8,42.4,37.3,70.3,38.9l0.4-7.5c-25.2-1.5-50-15.2-64.6-35.8c-13.7-19.3-18.8-45-13.6-68.2l34,18.7
	c24.2,13.3,46.6,27.1,55.2,49.6l1.5-0.6l0.3,0.4c-0.4,27-2.5,53.9-6.6,80.3l9.9,1.5c4-25.8,6.1-52,6.6-78.3
	c56.3-40.8,91.7-108.3,92.6-178l0.1-7.3L504.1,357.2z M321.7,189c1.6-2.9,3.5-5.5,5.6-8c0.6-0.1,1.2-0.3,1.8-0.6
	c1.4-0.8,2.2-2.2,2.4-3.7c9-8.1,21.1-12.7,34.6-12.7c17.6,0,34.2,7.7,44.2,20.7c13.7,17.7,15.8,43.5,5.2,62.6
	c-9.2,16.8-28.4,28-47.8,28c-2.6,0-5.1-0.2-7.6-0.6c-16.2-2.6-30.1-13.5-38.2-29.9C313,226.7,312.9,205.3,321.7,189 M458.4,276
	c4.3,14.4-0.2,31-11.2,41.3c-11,10.3-27.9,13.5-41.9,8.2c-14.1-5.4-25.6-18.6-35-40.1c21.9-0.9,43.3-13.8,54-33.1
	c0.8-1.5,1.5-2.9,2.2-4.4C441.3,250.2,454.1,261.6,458.4,276 M412.8,164.3c7.2-13.1,21.7-22.4,36.7-22.9c16.3-0.5,33,9.2,40.4,23.8
	c7.4,14.6,5.5,33.8-4.7,46.6c-12.2,15.4-32.8,21-55.1,25.3c5-19.9,0.7-42.2-11.9-58.5c-2.5-3.3-5.4-6.1-8.5-8.7
	c0.4-0.4,0.8-0.8,1.1-1.4C411.5,167.1,412.2,165.7,412.8,164.3 M319.5,118.4c5.8-18,20.6-32,36.9-34.8c17.9-3.1,37.6,7.2,46.8,24.6
	c8,15.1,8.2,34.5,0.7,51.7c-0.7,1.4-1.4,2.8-2,4.2c-10.7-6.6-23.3-10-35.8-10c-13.8,0-27.4,4.2-38.3,12.7
	C321.7,151.9,316.3,128.5,319.5,118.4 M253.5,229c-10.5-8.2-19.9-30.6-17.6-42.2c5.4-27,34.2-34.6,42.9-36.2
	c6.9-1.3,15.1,1,21.8,6.3c3.9,3.1,13.6,12.2,18.7,17.9c-2.4,2.9-4.6,6-6.4,9.5c-7.7,14.3-9.4,31-6.3,46.6c-4.8-0.2-9.9,1.1-15.3,2.5
	C279.5,236.3,267.1,239.5,253.5,229 M334.6,339.4c-19.5,8.1-45.2,1.3-59.7-16c-12.7-15.1-16.4-36.9-9.3-54
	c6.9-16.4,23.9-27.8,40.8-27.8c1.2,0,2.3,0.1,3.4,0.2c7.8,21.4,25.2,39,48.7,42.9c0.3,0.1,0.7,0.1,1,0.1c0,0.5,0,0.9,0.2,1.4
	c0.3,0.9,0.6,1.9,0.8,2.9l-1.3,0.6c0.8,1.8,1.5,3.7,2.3,5.6C363.1,312.9,352,332.1,334.6,339.4 M418.5,527.4
	c0-30.4-2.4-60.9-6.9-91.1l2.7,2c21.7-30.2,52.2-54.4,86.4-68.9C497.6,430.7,466.9,489.7,418.5,527.4"/>
</svg>
