<?xml version="1.0" encoding="UTF-8"?>
<!-- Generator: visioncortex VTracer 0.6.3 -->
<svg version="1.1" xmlns="http://www.w3.org/2000/svg" width="1273" height="1280">
<path d="M0 0 C4.34 5.13 5.55 10.8 7 17.25 C7.25 18.37 7.51 19.48 7.77 20.63 C9.85 30.3 11.22 40 12.38 49.81 C12.46 50.52 12.55 51.24 12.63 51.97 C13.7 61 14.23 69.9 14 79 C14.55 78.77 15.1 78.55 15.67 78.31 C45.53 66.18 76.51 63.71 107 76 C131.25 86.45 150.06 103.16 160 128 C162.74 135.8 164.87 143.79 167.01 151.77 C169.18 159.46 172.3 165.54 177 172 C177.42 172.58 177.85 173.17 178.28 173.77 C181.03 177.29 184.32 180.07 187.69 182.96 C205.76 198.92 217.37 217.98 219.84 242.24 C220.17 247.88 220.02 253.54 219.96 259.18 C219.72 283.06 221.89 302.21 232.5 324 C242.14 343.81 247.97 363.48 241.38 385.19 C234.38 405.21 221.76 421.1 209.01 437.75 C186.62 466.18 186.62 466.18 181.39 500.97 C184.49 516.44 193.25 527.13 206 536 C222.05 545.64 240.23 546.31 258.12 541.88 C258.88 541.67 259.63 541.46 260.4 541.25 C262.25 540.75 264.12 540.37 266 540 C266.99 540.66 267.98 541.32 269 542 C268.54 545.47 268.11 548.67 267 552 C267.85 552.02 268.69 552.04 269.57 552.06 C291.69 552.63 313.78 553.52 335.88 554.75 C336.65 554.79 337.43 554.84 338.23 554.88 C380.89 557.25 423.41 560.23 465.75 566.12 C466.98 566.3 468.21 566.47 469.48 566.64 C472.94 567.12 476.4 567.63 479.86 568.13 C480.87 568.28 481.89 568.42 482.93 568.57 C489.89 569.62 496.06 571.04 502 575 C503.98 575.33 503.98 575.33 506.13 575.34 C507.34 575.39 507.34 575.39 508.58 575.43 C509.42 575.46 510.26 575.48 511.12 575.5 C517.65 575.68 523.67 576.36 530 578 C529.71 577.02 529.42 576.04 529.12 575.03 C525.83 563.28 523.93 551.89 528 540 C531.39 536.49 535.16 536.06 539.89 535.9 C541.34 535.92 541.34 535.92 542.81 535.94 C543.79 535.95 544.76 535.96 545.77 535.96 C546.87 535.98 546.87 535.98 548 536 C548.35 535.17 548.35 535.17 548.7 534.32 C549.03 533.6 549.35 532.87 549.69 532.12 C550 531.41 550.31 530.69 550.64 529.95 C552.48 527.32 553.93 526.85 557 526 C563.78 525.35 570.26 525.59 576.81 527.5 C584.45 529.71 592.13 529.25 600 529 C600.16 528.45 600.33 527.9 600.5 527.33 C606.2 508.54 613.53 493.36 627 479 C627.53 478.43 628.07 477.85 628.61 477.26 C636.95 468.33 645.82 460.76 656 454 C656.59 453.6 657.19 453.21 657.8 452.8 C693.81 429.22 739 420.51 781.21 429 C829.11 439.38 870.62 468.95 897.53 509.78 C920.34 545.65 924.16 587.17 915.16 628.17 C908.16 658.21 895.57 685.51 881.61 712.87 C858.18 755.81 858.18 755.81 859 803.16 C864.86 818.45 876.48 828.87 891 836 C905.59 841.77 924.45 844.51 939.39 838.39 C947.04 834.31 953.45 830.11 957 822 C956.34 822.33 955.68 822.66 955 823 C945.89 823.88 938.27 822.77 930.74 817.39 C925.26 812.83 920.51 807.82 919.73 800.43 C919.42 791.3 921.49 785.04 927.5 778.12 C928.33 777.42 929.15 776.72 930 776 C930.74 775.32 931.48 774.64 932.25 773.94 C939.99 768.48 948.56 765.97 958 767 C965.74 768.9 972.75 771.69 977.04 778.69 C987.62 797.38 989.42 819.47 983.9 840.33 C980.4 851.99 974.76 861.48 966 870 C965 871.03 965 871.03 963.99 872.07 C929.05 905.95 860.54 914.92 814.31 914.4 C780.36 913.68 752.21 903.82 726 882 C725.36 881.49 724.73 880.97 724.07 880.45 C719.52 876.71 715.72 872.55 712 868 C711.23 867.06 710.45 866.13 709.65 865.16 C693.44 845.11 682.7 821.51 684.21 795.35 C688.01 763.45 710.68 739.25 731.55 716.66 C734.77 713.17 737.91 709.61 741 706 C742.15 704.66 742.15 704.66 743.33 703.3 C757.62 686.51 771.01 668.01 770.28 644.97 C769.15 633.06 764.81 621.62 755.84 613.43 C746.63 606.26 735.79 605.39 724.48 606.46 C711.09 608.52 696.55 615.19 688 626 C687.56 629.83 687.56 629.83 689 633 C689.89 635.68 690.14 637.25 690.12 640 C690.13 640.68 690.13 641.36 690.13 642.06 C690 644 690 644 689 647 C688.95 648.58 688.96 650.16 689.01 651.75 C689.02 652.67 689.04 653.59 689.06 654.53 C689.1 656.47 689.15 658.4 689.21 660.33 C689.23 661.25 689.24 662.17 689.26 663.12 C689.29 664.38 689.29 664.38 689.32 665.67 C688.93 668.53 687.75 669.75 686 672 C685.7 674.78 685.54 677.4 685.5 680.19 C684.97 694.65 684.97 694.65 680.52 699.66 C676.22 703.44 670.38 702.33 665 702 C658.63 701.22 652.32 700.11 646 699 C646.41 705.59 646.82 712.16 647.75 718.7 C649.98 734.72 650.33 750.6 650.38 766.75 C650.38 767.82 650.39 768.89 650.4 769.99 C650.66 816.21 638.73 862.17 617.04 903.02 C615.92 905.15 614.84 907.3 613.77 909.46 C602.89 931.09 589.27 950.46 571.74 967.18 C569.38 969.46 568.06 970.83 567 974 C573.69 978.8 580.51 983.26 587.56 987.5 C588.55 988.1 589.54 988.69 590.56 989.31 C593.7 991.21 596.85 993.11 600 995 C602.07 996.25 604.14 997.5 606.21 998.75 C622.47 1008.55 638.83 1018.18 655.3 1027.61 C670.14 1036.12 684.81 1044.88 699.4 1053.8 C704.99 1057.22 710.59 1060.62 716.19 1064.03 C717.93 1065.08 719.67 1066.14 721.41 1067.2 C722.49 1067.86 723.57 1068.52 724.69 1069.2 C726.25 1070.15 726.25 1070.15 727.85 1071.12 C732.03 1073.62 736.28 1076 740.54 1078.35 C743.06 1080.04 744.45 1081.42 746 1084 C746.81 1088.57 746.07 1091.4 743.69 1095.25 C735.35 1106.72 723.41 1118.28 709 1121 C679.08 1125.07 642.19 1102.53 616.64 1089.28 C613.49 1087.55 613.49 1087.55 610 1087 C609.94 1087.92 609.87 1088.85 609.81 1089.8 C608.7 1101.64 605.33 1111.96 601 1123 C600.67 1123.86 600.33 1124.73 599.99 1125.62 C582.61 1170.1 560.77 1217.01 532.17 1255.43 C531.07 1256.9 530.02 1258.4 528.96 1259.9 C519.9 1271.54 502 1276.88 488 1280 C484.22 1280.29 480.99 1280.53 477.56 1278.69 C474.73 1275.63 474.75 1272.35 474.81 1268.33 C475.17 1263.89 476.4 1259.67 477.58 1255.38 C477.85 1254.37 478.12 1253.37 478.4 1252.33 C481 1242.75 483.9 1233.26 486.86 1223.78 C496.19 1193.87 504.5 1163.65 511 1133 C511.21 1132.02 511.42 1131.04 511.63 1130.03 C515.56 1111.28 518.02 1095.93 507.31 1079.06 C506.71 1078.17 506.11 1077.27 505.49 1076.35 C504 1074 504 1074 503 1071 C501.15 1070.94 501.15 1070.94 499.27 1070.89 C474.2 1069.96 454.39 1060.75 435 1045 C434.45 1044.56 433.89 1044.12 433.32 1043.66 C399.44 1016.51 383.33 974.83 372 934 C371.3 933.99 370.59 933.99 369.87 933.98 C360.93 933.9 352 933.81 343.06 933.69 C342.35 933.68 341.64 933.67 340.91 933.66 C321.43 933.4 302.1 932.82 282.72 930.62 C276.37 929.83 276.37 929.83 270 930 C268.18 931.55 268.18 931.55 267.06 933.75 C264.11 938.18 261.12 940.47 256 942 C231.99 945.72 199.5 943.08 178 931 C173.97 927.73 172.53 923.86 171 919 C170.27 918.99 169.54 918.97 168.79 918.96 C130.4 918.12 91.43 916.17 53.88 907.66 C47.93 906.32 42.09 905.46 36 905 C35.91 905.68 35.82 906.35 35.73 907.05 C33.36 924.6 30.09 941.77 26 959 C25.75 960.06 25.5 961.13 25.24 962.22 C23.85 968.15 22.43 974.08 21 980 C43.45 984.88 65.99 987.89 88.8 990.44 C89.94 990.57 91.08 990.7 92.25 990.83 C97.95 991.47 103.66 992.1 109.36 992.72 C119.22 993.8 129 995 138.71 997.04 C139.85 997.27 139.85 997.27 141.02 997.52 C150.69 999.67 157.99 1003.27 163.75 1011.5 C167.52 1019.05 166.63 1027.83 164.04 1035.63 C161.94 1040.41 159.25 1044.04 154.39 1046.11 C150.4 1047.16 146.94 1046.96 142.89 1046.54 C141.27 1046.4 139.65 1046.25 138.03 1046.11 C137.18 1046.03 136.33 1045.95 135.45 1045.87 C120.98 1044.54 106.59 1043.69 92.06 1043.75 C91.37 1043.75 90.67 1043.75 89.96 1043.75 C81.89 1043.78 73.86 1044.1 65.81 1044.62 C56.03 1045.22 46.23 1045.36 36.44 1045.56 C32.79 1045.64 29.15 1045.72 25.5 1045.8 C23.69 1045.84 21.88 1045.87 20.07 1045.91 C18.89 1045.94 18.89 1045.94 17.69 1045.96 C17.13 1045.98 16.58 1045.99 16 1046 C15.96 1047.01 15.92 1048.01 15.88 1049.05 C14.78 1075.79 12.86 1102.4 10.45 1129.05 C9.63 1138.19 8.83 1147.33 8.03 1156.46 C7.9 1157.97 7.9 1157.97 7.76 1159.51 C6.58 1173.02 5.47 1186.54 4.47 1200.07 C4.41 1200.83 4.36 1201.6 4.3 1202.38 C3.82 1208.8 3.35 1215.21 2.91 1221.63 C2.65 1225.38 2.38 1229.13 2.11 1232.88 C2 1234.48 2 1234.48 1.9 1236.1 C1.1 1246.83 -0.41 1257.84 -8 1266 C-15.89 1272.32 -28.47 1272.51 -38.14 1272.32 C-44.23 1271.64 -49.09 1269.39 -54 1265.81 C-58.16 1259.96 -58.31 1252.36 -58.62 1245.36 C-58.67 1244.55 -58.71 1243.74 -58.75 1242.9 C-58.84 1241.15 -58.93 1239.39 -59.02 1237.64 C-59.15 1234.82 -59.3 1232 -59.45 1229.19 C-59.87 1221.18 -60.27 1213.18 -60.67 1205.17 C-63.32 1152.25 -69.98 1101.38 -85.88 1050.69 C-86.12 1049.92 -86.36 1049.15 -86.6 1048.35 C-87.29 1046.17 -87.98 1044 -88.68 1041.82 C-89.28 1039.95 -89.28 1039.95 -89.89 1038.05 C-90.91 1034.88 -90.91 1034.88 -93 1032 C-95.19 1031.13 -95.19 1031.13 -97.86 1030.6 C-98.93 1030.35 -100 1030.11 -101.1 1029.86 C-102.3 1029.59 -103.51 1029.33 -104.75 1029.06 C-106.02 1028.77 -107.3 1028.49 -108.61 1028.19 C-116.68 1026.36 -124.77 1024.61 -132.85 1022.85 C-137.62 1021.81 -142.39 1020.77 -147.16 1019.72 C-150.68 1018.95 -154.21 1018.2 -157.73 1017.44 C-206.88 1006.78 -206.88 1006.78 -221.47 984.6 C-224.05 980.22 -226.14 975.73 -228 971 C-228.32 970.2 -228.64 969.4 -228.97 968.57 C-235.26 950.7 -227.27 934.09 -219.79 918.03 C-218.78 915.87 -217.79 913.7 -216.79 911.54 C-213.99 905.42 -211.16 899.32 -208.29 893.23 C-195.03 864.92 -184.83 835.35 -174.89 805.75 C-174.61 804.92 -174.33 804.09 -174.04 803.24 C-173.79 802.48 -173.53 801.71 -173.27 800.92 C-173.05 800.26 -172.82 799.59 -172.6 798.91 C-170.01 790.61 -170.82 782.8 -172.46 774.35 C-186.87 684.25 -147.93 577.97 -96.43 505.97 C-89.16 495.96 -81.48 486.32 -73.62 476.77 C-68.71 470.76 -64.29 464.47 -60 458 C-60.74 458.27 -61.48 458.53 -62.25 458.8 C-74.28 462.84 -86.03 464.19 -98.69 463.81 C-106.94 463.61 -113.38 465.84 -121 469 C-122.97 469.64 -124.95 470.27 -126.94 470.88 C-130.86 472.15 -134.51 473.69 -138.21 475.52 C-166.95 489.75 -207.86 493.87 -238.37 483.9 C-258.45 476.13 -272.48 460.1 -281.3 440.89 C-281.87 439.6 -282.44 438.3 -283 437 C-283.46 435.94 -283.91 434.89 -284.38 433.8 C-289.75 419.16 -288.39 402.02 -282.09 387.96 C-273.19 369.01 -261.15 351.18 -248.72 334.39 C-246.56 331.43 -245.03 329.1 -243.8 325.6 C-242.42 322.02 -240.12 320.23 -237.2 317.79 C-231.6 312.99 -228.88 307.93 -225.81 301.31 C-220 289.43 -213.09 278.7 -205.4 267.96 C-202.83 264.68 -202.83 264.68 -201.94 260.75 C-203.04 257.91 -203.83 257.03 -206 255 C-223.07 238.76 -232.65 213.15 -234 190 C-234.21 162.89 -222.31 139.64 -204.14 120.16 C-200.91 116.9 -197.58 113.88 -194 111 C-193.15 110.3 -192.3 109.61 -191.43 108.89 C-185.63 104.31 -179.7 100.54 -173.19 97.06 C-172.48 96.68 -171.78 96.31 -171.05 95.92 C-166.77 93.7 -162.68 92.17 -158 91 C-158.15 90.35 -158.29 89.69 -158.44 89.02 C-159.11 86.01 -159.77 83.01 -160.44 80 C-160.67 78.97 -160.9 77.94 -161.13 76.88 C-163.29 67.06 -164.22 57.67 -164.62 47.62 C-164.68 46.55 -164.73 45.48 -164.78 44.38 C-165.47 27.72 -165.47 27.72 -162.31 21.88 C-160 20 -160 20 -157.32 19.64 C-153.15 20.09 -150.16 21.71 -146.62 23.81 C-145.93 24.21 -145.24 24.62 -144.53 25.03 C-120.7 39.07 -100.64 56.67 -82 77 C-78.93 74.1 -77.06 70.77 -75 67.12 C-70.45 59.31 -65.01 52.72 -59 46 C-57.9 44.69 -56.79 43.38 -55.69 42.06 C-46.06 31.2 -35.64 21.64 -24 13 C-23.34 12.5 -22.67 12.01 -21.99 11.49 C-19.96 9.97 -17.92 8.45 -15.88 6.94 C-14.93 6.24 -14.93 6.24 -13.97 5.53 C-5.04 -1.01 -5.04 -1.01 0 0 Z M-157 27 C-159.81 29.81 -158.89 37.26 -159 41 C-158.81 46.13 -158.34 51.21 -157.81 56.31 C-157.75 56.99 -157.68 57.66 -157.61 58.36 C-156.6 68.5 -155.11 78.27 -152 88 C-151.45 87.98 -150.9 87.97 -150.33 87.95 C-128.91 87.43 -110.35 89.95 -92 102 C-89.98 98.75 -88.2 95.52 -86.69 92 C-86.32 91.17 -85.95 90.35 -85.57 89.5 C-84.83 86.24 -85.44 84.92 -87 82 C-102.53 59.39 -128.9 38.03 -154 27 C-154.99 27 -155.98 27 -157 27 Z M-15.12 13.88 C-15.89 14.48 -16.65 15.09 -17.43 15.71 C-18.95 16.93 -20.47 18.14 -21.98 19.37 C-23.58 20.66 -25.21 21.92 -26.86 23.17 C-51.47 42.15 -68.89 66.15 -82 94 C-82.69 95.44 -82.69 95.44 -83.39 96.91 C-86 102.83 -87.2 108.51 -85.5 114.88 C-82.91 125.88 -85.06 138.85 -86.5 149.88 C-88.97 169.06 -87.3 181.91 -78.5 199.38 C-69.71 217.44 -65.08 235.05 -71.71 254.78 C-76.79 267.44 -84.78 278.54 -92.36 289.82 C-92.96 290.72 -93.57 291.62 -94.19 292.55 C-95.96 294.94 -97.84 296.96 -100 299 C-100.99 298.67 -101.98 298.34 -103 298 C-104.13 295.34 -104.91 292.63 -105.74 289.86 C-107.32 286.27 -108.94 284.47 -112 282 C-114.78 281.61 -116.91 281.5 -119.66 281.65 C-121.18 281.69 -122.7 281.73 -124.23 281.76 C-125.02 281.79 -125.81 281.82 -126.62 281.85 C-149.88 282.66 -170.45 280.23 -190.44 267.26 C-192.84 265.83 -192.84 265.83 -195.12 266.04 C-206.65 271.94 -219.83 299 -224 311 C-223.5 312.49 -223.5 312.49 -223 314 C-221.15 314.94 -221.15 314.94 -218.84 315.54 C-217.97 315.81 -217.1 316.07 -216.21 316.35 C-215.27 316.62 -214.34 316.9 -213.38 317.19 C-187.42 325.4 -166.8 342.04 -151 364 C-150.38 364.86 -150.38 364.86 -149.75 365.73 C-130.81 392.18 -116.68 422.62 -109.48 454.3 C-109.14 456.02 -109.14 456.02 -108 457 C-92.83 459.14 -78.32 457.18 -63.62 453.19 C-62.73 452.95 -61.83 452.72 -60.9 452.47 C-55.74 450.97 -52.93 449.73 -50 445 C-49.33 444.04 -48.65 443.08 -47.96 442.09 C-47.25 441.05 -46.54 440.01 -45.81 438.94 C-44.21 436.62 -42.61 434.31 -41 432 C-40.39 431.12 -40.39 431.12 -39.77 430.23 C-38.59 428.54 -37.39 426.86 -36.19 425.19 C-35.13 423.69 -35.13 423.69 -34.04 422.17 C-33.37 421.45 -32.69 420.74 -32 420 C-30.68 420 -29.36 420 -28 420 C-29.63 424.84 -32.34 428.75 -35.19 432.94 C-35.71 433.71 -36.23 434.49 -36.77 435.29 C-37.91 436.97 -39.05 438.65 -40.19 440.33 C-42.06 443.09 -43.92 445.85 -45.78 448.62 C-53.46 460.01 -61.32 471.09 -70.04 481.71 C-126.47 550.35 -160.91 634.04 -167 723 C-167.05 723.74 -167.11 724.49 -167.17 725.25 C-168.39 742.06 -167.7 758.25 -166 775 C-165.01 774.67 -164.02 774.34 -163 774 C-162.67 773.34 -162.34 772.68 -162 772 C-161.01 772 -160.02 772 -159 772 C-159.61 777.19 -160.77 782 -162.37 786.98 C-162.61 787.73 -162.85 788.49 -163.09 789.26 C-163.87 791.72 -164.65 794.17 -165.44 796.62 C-165.71 797.47 -165.98 798.32 -166.26 799.19 C-177.41 834.19 -189.73 868.42 -205.43 901.65 C-208.06 907.26 -210.61 912.89 -213.14 918.53 C-213.97 920.37 -214.8 922.21 -215.64 924.05 C-223.42 941.35 -227.64 953.55 -221 972 C-215.73 984.31 -208.36 993.17 -196.44 999.31 C-195.86 999.61 -195.27 999.92 -194.68 1000.23 C-182 1006.25 -167.5 1008.96 -153.87 1011.96 C-152.27 1012.32 -150.67 1012.67 -149.08 1013.03 C-144.88 1013.96 -140.67 1014.89 -136.47 1015.81 C-133.86 1016.38 -131.25 1016.95 -128.64 1017.53 C-60.64 1032.46 6.32 1041.74 76.08 1037.79 C93.07 1036.84 109.74 1037.03 126.68 1038.9 C129.16 1039.14 129.16 1039.14 132 1038 C135.42 1031.16 133.08 1018.76 132.31 1011.19 C132.18 1009.88 132.06 1008.58 131.93 1007.23 C131.32 1003.91 131.32 1003.91 128.84 1002.36 C125.65 1000.83 123.09 1000.37 119.57 999.99 C118.29 999.84 117 999.69 115.68 999.54 C114.28 999.39 112.88 999.25 111.48 999.1 C110.02 998.93 108.56 998.77 107.1 998.6 C103.25 998.16 99.39 997.74 95.53 997.32 C88.7 996.57 81.87 995.81 75.04 995.04 C74.31 994.95 73.57 994.87 72.81 994.78 C39.24 990.96 7.97 984.14 -22 968 C-22.69 967.63 -23.38 967.26 -24.09 966.88 C-33.1 962.07 -41.84 956.91 -50.5 951.5 C-86.55 929.03 -117.71 921.66 -160 924 C-159.67 922.68 -159.34 921.36 -159 920 C-151.71 918.5 -144.93 917.85 -137.52 918.19 C-113.72 919.31 -113.72 919.31 -92.96 908.54 C-91.02 907.01 -89.02 905.64 -86.95 904.28 C-82.9 901.61 -78.94 898.83 -75 896 C-74.25 895.47 -73.51 894.93 -72.74 894.38 C-68.14 891.09 -63.56 887.77 -58.99 884.45 C-57.24 883.18 -55.49 881.91 -53.73 880.64 C-48.68 876.99 -43.76 873.26 -38.97 869.25 C-37 868 -37 868 -33 868 C-33.33 869.98 -33.66 871.96 -34 874 C-27.16 876.82 -20.28 879.34 -13.25 881.64 C-12.25 881.98 -11.25 882.31 -10.22 882.65 C-7 883.71 -3.78 884.76 -0.56 885.81 C1.09 886.35 1.09 886.35 2.77 886.9 C19.05 892.2 35.27 897.3 52 901 C53 901.23 54 901.45 55.04 901.69 C89.47 909.35 125.6 911.89 160.81 912.38 C161.9 912.4 163 912.43 164.12 912.45 C165.12 912.46 166.12 912.46 167.14 912.46 C168.01 912.47 168.88 912.48 169.78 912.49 C172.13 912.19 172.13 912.19 173.67 910.26 C175.01 907.98 176.09 905.75 177.09 903.31 C177.67 901.91 177.67 901.91 178.26 900.49 C178.87 898.98 178.87 898.98 179.5 897.44 C179.94 896.37 180.37 895.31 180.82 894.21 C181.75 891.95 182.67 889.69 183.59 887.42 C184.95 884.13 186.33 880.85 187.71 877.57 C193.04 864.91 197.82 852.14 202.19 839.12 C202.55 838.04 202.55 838.04 202.93 836.94 C203.62 834.88 204.3 832.82 204.98 830.76 C205.37 829.57 205.76 828.39 206.16 827.17 C206.93 824.27 207.18 821.98 207 819 C206.13 819.03 205.27 819.05 204.38 819.08 C201.09 819.17 197.81 819.23 194.52 819.27 C193.12 819.3 191.71 819.33 190.3 819.38 C169.96 819.99 153.27 811.38 138.56 797.67 C135.98 795.17 133.64 792.63 131.5 789.74 C126 782.37 121.67 779.6 112.88 777.19 C98.96 773.25 86.78 763.12 79.53 750.81 C71.6 736.22 68.02 721.22 70.52 704.56 C70.68 703.38 70.84 702.21 71 701 C71.11 700.34 71.23 699.69 71.35 699.01 C71.58 696.78 71.6 695.17 71 693 C68.7 690.32 65.93 688.51 63 686.56 C61.42 685.43 59.85 684.3 58.29 683.16 C57.54 682.61 56.79 682.07 56.01 681.51 C42.95 671.7 35.88 654.81 32.39 639.29 C27.52 598.21 45.95 561.9 67.09 528 C67.57 527.23 68.04 526.47 68.52 525.68 C69.4 524.27 70.28 522.88 71.19 521.49 C73.18 518.28 74 516.22 73.99 512.41 C72.91 508.7 71.48 506.13 69.31 502.94 C59 487.05 54.12 469.96 58.03 451.06 C60.09 442.34 63.71 434.61 68.02 426.79 C68.87 425.23 69.7 423.65 70.51 422.07 C75.85 412.19 83.08 403.56 89.92 394.7 C107.9 372.8 107.9 372.8 121 348 C120.67 347.34 120.34 346.68 120 346 C119 346.84 119 346.84 117.98 347.69 C115.01 350.15 112.01 352.58 109 355 C108.19 355.66 107.39 356.31 106.56 356.99 C89.22 370.41 66.01 381.32 44 383 C44.49 378.42 44.49 378.42 46.73 376.58 C47.47 376.21 48.21 375.84 48.98 375.46 C49.81 375.03 50.64 374.6 51.49 374.16 C52.82 373.49 52.82 373.49 54.19 372.81 C80.24 359.14 103.86 338.87 113 310 C113.24 309.26 113.49 308.51 113.74 307.75 C117.32 294.8 115.12 280.54 111 268 C110.34 267.67 109.68 267.34 109 267 C108.79 267.81 108.58 268.62 108.37 269.46 C101.99 292.38 84.55 304.48 65 316 C64.28 316.47 63.55 316.94 62.8 317.42 C59.98 319.21 58.46 320.04 55.06 319.75 C54.38 319.5 53.7 319.25 53 319 C53.56 314.77 56.13 311.91 58.62 308.62 C68.22 295.59 74.52 282.57 73 266 C70.79 255.46 65.74 245.47 57 239 C57.02 240.03 57.05 241.06 57.07 242.12 C57.46 266.7 51.73 288.76 43.62 311.88 C43.19 313.12 42.76 314.37 42.31 315.65 C35.81 333.76 26.96 349.24 16.12 365.12 C14.9 366.94 13.67 368.76 12.44 370.58 C10.07 374.1 7.69 377.6 5.3 381.11 C3.18 384.23 1.1 387.38 -0.93 390.57 C-1.61 391.62 -1.61 391.62 -2.3 392.69 C-3.12 393.97 -3.93 395.26 -4.72 396.55 C-7.04 400.15 -8.84 401.87 -13 403 C-12.44 399.24 -11.44 396.72 -9.34 393.57 C-8.78 392.72 -8.22 391.88 -7.64 391.01 C-7.04 390.11 -6.43 389.2 -5.8 388.27 C-5.18 387.33 -4.55 386.39 -3.91 385.41 C-1.9 382.4 0.11 379.39 2.12 376.38 C4.12 373.38 6.11 370.39 8.09 367.4 C9.33 365.54 10.57 363.68 11.81 361.83 C34.96 327.15 58.68 278.07 50.15 235 C49.04 229.9 46.25 227.78 42 225 C35.63 220.96 29.15 217.14 22.5 213.56 C21.41 212.97 21.41 212.97 20.29 212.36 C18.87 211.59 17.45 210.84 16.02 210.09 C11.15 207.47 11.15 207.47 10.31 204.87 C10.21 204.25 10.1 203.64 10 203 C14.6 203.63 18.41 205.48 22.5 207.56 C23.2 207.92 23.91 208.28 24.64 208.65 C46.24 219.77 67.17 234.28 76.5 257.62 C81 271.83 78.53 284.68 71.81 297.69 C71.09 299.02 70.37 300.36 69.64 301.7 C67.78 304.83 67.78 304.83 68 308 C82.24 298.7 98.69 287.46 103 270 C104.87 254.29 98.91 239.96 92.75 225.88 C91.91 223.96 91.08 222.05 90.26 220.13 C89.53 218.41 88.78 216.7 88.04 214.99 C87.03 212.09 86.78 210.04 87 207 C88.84 207.18 88.84 207.18 91 208 C92.37 210.23 92.37 210.23 93.59 213.19 C94.04 214.27 94.49 215.35 94.96 216.47 C95.66 218.22 95.66 218.22 96.38 220 C96.86 221.18 97.35 222.36 97.85 223.58 C100.82 230.83 103.53 238.13 106 245.57 C107.62 250.31 109.82 254.16 112.55 258.33 C120.95 273.78 122.6 294.03 118.44 310.94 C111.02 334.69 94.55 352.5 75 367 C75.66 367.33 76.32 367.66 77 368 C78.88 367.34 78.88 367.34 80.93 366.23 C81.72 365.82 82.51 365.41 83.32 364.99 C84.16 364.54 85.01 364.09 85.88 363.62 C86.74 363.17 87.6 362.71 88.48 362.24 C95.54 358.4 101.84 354.17 108 349 C108.94 348.23 109.88 347.46 110.86 346.67 C126.14 333.6 135.08 316.07 136.7 295.99 C136.85 293.62 136.99 291.25 137.12 288.88 C137.27 286.48 137.42 284.08 137.57 281.68 C137.66 280.11 137.66 280.11 137.75 278.52 C138 276 138 276 139 274 C139.99 274 140.98 274 142 274 C145.1 280.19 142.88 289.64 142.25 296.38 C142.19 297.13 142.13 297.88 142.06 298.66 C141.34 305.74 139.25 312.26 137 319 C136.59 320.22 136.19 321.44 135.77 322.7 C126.52 350.3 113.9 371.83 96.16 394.89 C68.94 429.76 68.94 429.76 62.4 472.1 C65.11 487.69 73.69 500.36 82.1 513.46 C93.23 530.83 101.64 547.89 98.54 569.16 C96.02 580.4 91.13 589.47 83.15 597.75 C80.94 600.06 78.96 602.48 77 605 C89.83 603.94 100.86 597.52 109.5 588.06 C118.4 577.16 124.55 565.38 130.53 552.66 C131.06 551.57 131.58 550.48 132.12 549.36 C132.81 547.88 132.81 547.88 133.51 546.38 C135.12 543.81 136.19 543.03 139 542 C140.35 546.06 138.87 548.36 137.19 552.06 C136.72 553.11 136.72 553.11 136.23 554.19 C130.44 566.82 123.83 578.62 115.03 589.4 C111.62 593.77 110.77 596.8 110.19 602.31 C109.3 609.16 107.45 615.23 105.12 621.72 C100.95 633.91 101.98 647.26 107 659 C109.69 664.31 112.52 669.01 117 673 C117.66 673 118.32 673 119 673 C119.22 672.27 119.44 671.54 119.67 670.79 C122.09 663.18 125.17 656.19 128.75 649.06 C139.5 627.07 148.71 603.89 149.32 579.1 C149.34 578.38 149.36 577.65 149.38 576.91 C149.44 574.63 149.5 572.34 149.56 570.06 C149.61 568.5 149.65 566.95 149.69 565.39 C149.8 561.59 149.9 557.8 150 554 C151.32 553.67 152.64 553.34 154 553 C154.91 558.43 155.19 563.68 155.19 569.19 C155.19 570.05 155.19 570.9 155.2 571.79 C155.16 579.14 154.46 586.37 153.36 593.64 C152.97 596.29 152.97 596.29 153 600 C156.43 604.44 163.25 604.72 168.52 605.55 C189.63 608.14 213.09 598.58 229.49 586.01 C230.32 585.35 231.15 584.68 232 584 C232.76 583.41 233.51 582.82 234.29 582.21 C244.76 573.52 252.95 561.54 260 550 C260 549.67 260 549.34 260 549 C259.46 549.06 258.93 549.12 258.38 549.18 C255.59 549.48 252.79 549.74 250 550 C248.76 550.12 247.51 550.24 246.23 550.36 C228.04 551.92 210.76 548.32 196 537 C185.78 528.34 177.56 516.35 175 503 C173.33 479.12 183.92 460.43 198 442 C198.4 441.47 198.81 440.94 199.22 440.39 C201.26 437.72 203.31 435.06 205.36 432.41 C205.79 431.86 206.21 431.31 206.65 430.74 C207.59 429.53 208.52 428.32 209.46 427.12 C219.12 414.64 228.25 401.81 234 387 C234.32 386.23 234.64 385.45 234.96 384.65 C237.16 378.27 237.34 371.87 237.44 365.19 C237.46 364.3 237.48 363.41 237.51 362.49 C237.46 348.12 231.31 335.74 225.06 323.18 C217.37 307.62 213.9 292.84 213.82 275.44 C213.8 273.4 213.78 271.37 213.75 269.33 C213.72 266.18 213.69 263.02 213.67 259.87 C213.55 234.75 209.48 213.31 190.99 194.9 C188 191.97 185 189.06 181.97 186.16 C172.9 177.46 165.52 168.62 161.88 156.38 C161.51 155.23 161.51 155.23 161.14 154.06 C159.94 150.27 158.84 146.46 157.8 142.62 C153.83 128.13 148.26 115.22 138 104 C137.47 103.39 136.94 102.78 136.4 102.16 C121.34 85.84 96.67 76.01 74.74 74.82 C53.45 74.45 34.87 74.75 16 86 C13.29 88.71 13.3 91.48 12.75 95.12 C9.89 111.53 2.5 124.97 -5.55 139.38 C-7.65 143.17 -9.66 147.01 -11.62 150.88 C-12.1 151.79 -12.1 151.79 -12.59 152.73 C-17.02 161.55 -18.42 170.6 -15.67 180.13 C-13.33 186.63 -8.66 190.11 -3.34 194.17 C-1.39 195.69 0.39 197.12 2 199 C2 199.66 2 200.32 2 201 C-3.53 201.65 -6.38 199.01 -10.6 195.77 C-16.81 190.82 -19.85 185.55 -22 178 C-24.13 158.66 -14.54 144.03 -5.51 127.73 C3.21 111.97 7.75 98.33 7.44 80.25 C7.43 78.82 7.42 77.4 7.41 75.97 C7.24 62.54 5.87 49.3 4 36 C3.34 36.33 2.68 36.66 2 37 C1.38 39.58 0.86 42.14 0.38 44.75 C-3.13 61.49 -10.23 76.63 -17.42 92.05 C-27.29 113.22 -36.4 133.19 -36 157 C-36.33 157.66 -36.66 158.32 -37 159 C-37.99 159 -38.98 159 -40 159 C-43.82 151.35 -40.96 139.34 -38.88 131.44 C-38.59 130.36 -38.59 130.36 -38.31 129.26 C-34.64 116.34 -28.77 104.13 -23.11 92 C-10.28 64.45 -1.66 39.65 -2 9 C-7.65 6.54 -10.92 10.44 -15.12 13.88 Z M-189 115 C-189.81 115.69 -189.81 115.69 -190.63 116.4 C-209.47 132.76 -223.96 153.76 -227 179 C-228.41 204.21 -220.55 228.74 -204 248 C-203.22 248.99 -203.22 248.99 -202.43 250 C-189.1 266.46 -169.18 273.97 -148.75 276.6 C-143.15 277.17 -137.56 277.11 -131.94 277.06 C-130.88 277.06 -129.82 277.05 -128.74 277.05 C-126.16 277.04 -123.58 277.02 -121 277 C-122.95 272.45 -126.16 270.83 -130.31 268.44 C-145.23 259.47 -156.68 249.29 -163.25 232.88 C-166.17 217.79 -162.47 203.68 -154 191 C-152 188.69 -152 188.69 -150 187 C-149.01 187 -148.02 187 -147 187 C-147.55 190.79 -148.51 193.03 -150.81 196.06 C-157.45 205.68 -160.27 217.64 -158.31 229.19 C-153.93 247.26 -137.81 257.93 -122.81 267.12 C-113.44 272.87 -105.31 278.09 -100 288 C-96.3 286.53 -94.83 284.71 -92.72 281.38 C-92.13 280.44 -91.53 279.51 -90.92 278.54 C-90.3 277.56 -89.69 276.58 -89.06 275.56 C-88.45 274.61 -87.85 273.67 -87.22 272.69 C-76.97 256.43 -70.93 240.4 -75.31 221.06 C-77.61 213.12 -81.21 205.83 -84.94 198.47 C-89.72 188.95 -93.75 179.68 -93.44 168.88 C-93.43 168.05 -93.42 167.22 -93.41 166.37 C-93.2 157.93 -92.18 149.56 -91.07 141.2 C-88.63 123.74 -88.63 123.74 -94.75 107.88 C-99.83 102.58 -106.35 99.79 -113 97 C-114.28 96.45 -114.28 96.45 -115.58 95.9 C-140.83 87.18 -169.77 98.42 -189 115 Z M-232.25 322 C-233.31 322.84 -233.31 322.84 -234.39 323.69 C-234.92 324.12 -235.45 324.55 -236 325 C-235.25 328.34 -235.25 328.34 -231.68 329.91 C-230.22 330.63 -228.77 331.35 -227.31 332.06 C-212.92 339.42 -200.93 349.17 -189 360 C-188.18 360.74 -187.36 361.47 -186.51 362.23 C-181.68 366.8 -177.57 371.89 -173.5 377.12 C-172.74 378.1 -172.74 378.1 -171.95 379.09 C-162.16 391.99 -155 406.51 -147.82 420.96 C-146.31 424 -144.79 427.03 -143.26 430.06 C-138.43 439.71 -133.83 449.33 -130.01 459.43 C-129.24 461.89 -129.24 461.89 -128 463 C-125.99 463.01 -125.99 463.01 -123.69 462.75 C-122.91 462.68 -122.13 462.62 -121.32 462.55 C-118.62 461.91 -117.1 460.79 -115 459 C-116.89 438.78 -125.23 421.09 -134 403 C-134.38 402.21 -134.76 401.42 -135.15 400.61 C-143.99 382.53 -155.34 365.78 -169 351 C-169.61 350.32 -170.22 349.64 -170.84 348.95 C-184.81 334.09 -204.22 323.55 -224 319 C-228.37 319 -229 319.4 -232.25 322 Z M-239 333 C-242.68 336.48 -245.5 339.96 -248.29 344.23 C-248.68 344.83 -249.07 345.42 -249.47 346.02 C-250.72 347.93 -251.95 349.84 -253.19 351.75 C-253.61 352.4 -254.03 353.05 -254.47 353.72 C-272.67 378.9 -272.67 378.9 -280 408 C-278.09 409.91 -274.85 409.22 -272.31 409.25 C-271.09 409.28 -269.87 409.3 -268.61 409.33 C-264.73 408.98 -262.42 407.78 -259 406 C-257.51 406.5 -257.51 406.5 -256 407 C-256.06 408.81 -256.06 408.81 -257 411 C-262.2 413.74 -266.61 414.5 -272.44 414.69 C-273.17 414.72 -273.9 414.76 -274.65 414.79 C-276.44 414.87 -278.22 414.94 -280 415 C-281.34 433.9 -271.01 449.15 -259.25 463.07 C-246.39 476.85 -228.49 481.39 -210.3 482.29 C-184.28 483.02 -158.2 479.03 -135 467 C-134.45 461.21 -136.33 457.28 -138.75 452.19 C-139.15 451.32 -139.55 450.46 -139.96 449.57 C-141.3 446.71 -142.65 443.85 -144 441 C-144.95 438.97 -145.9 436.93 -146.85 434.9 C-159.38 407.74 -159.38 407.74 -176 383 C-176.65 382.15 -177.29 381.31 -177.96 380.43 C-193.23 360.93 -214.72 340.27 -239 333 Z M654 463 C653.08 463.67 652.17 464.34 651.23 465.04 C630.53 481.17 610.27 503.57 606.64 530.66 C606.78 533.14 606.78 533.14 608.79 534.7 C609.98 535.47 609.98 535.47 611.19 536.25 C614.82 538.81 616.49 540.57 618.12 544.69 C619.79 548.14 620.67 548.87 624.32 550.29 C626.95 550.98 629.6 551.54 632.25 552.1 C636.44 553.11 639.57 554.66 643.17 556.95 C645.1 558.06 646.82 558.56 649 559 C649.46 558.14 649.92 557.28 650.4 556.39 C655.21 547.61 660.59 539.69 667 532 C667.63 531.24 668.27 530.48 668.92 529.69 C677.05 520.78 689.32 514.65 701 512 C703.84 511.91 703.84 511.91 706 512 C705.75 513.9 705.75 513.9 705 516 C703.29 516.99 703.29 516.99 701.06 517.68 C700.25 517.94 699.45 518.21 698.61 518.48 C697.75 518.76 696.89 519.03 696 519.31 C688.55 521.87 682.7 524.42 677 530 C676.2 530.73 675.39 531.46 674.57 532.21 C666.24 540.05 653.58 553.44 652.86 565.37 C653.06 567.66 653.47 569.77 654 572 C654.16 573.22 654.33 574.43 654.5 575.69 C656.41 579.9 658.65 581.06 662.54 583.38 C666.56 586.03 669.73 589.49 673 593 C676.27 592.21 676.27 592.21 678.38 589.06 C694.67 569.5 724.09 555.38 748.98 552.22 C768.77 550.76 783.87 562.95 798.46 574.76 C799.91 575.93 801.38 577.06 802.86 578.19 C805.15 580.13 805.69 581.06 806 584 C801.43 584 800.65 583.36 797.12 580.69 C796.16 579.96 795.19 579.24 794.19 578.49 C791.96 576.77 789.77 575.01 787.59 573.23 C774.12 562.29 762.67 556.53 745 558 C722.38 561.97 703.25 574.45 686 589 C685.15 589.7 684.3 590.4 683.42 591.12 C678.11 595.87 676.57 599.96 676 607 C675.84 608.03 675.67 609.06 675.5 610.12 C676.28 614.62 679.09 617.59 682 621 C685.25 619.55 687.59 617.71 690.25 615.38 C694.64 611.8 699.15 609.14 704.19 606.62 C704.85 606.29 705.52 605.96 706.2 605.61 C720.1 598.89 735.41 598.08 750 603 C761.45 607.51 767.97 616.79 772.81 627.73 C778.45 643.24 777.33 659.76 770.54 674.71 C761.66 693.23 746.97 708.56 733.22 723.57 C730.76 726.26 728.35 728.98 725.96 731.73 C724.41 733.53 722.84 735.31 721.25 737.08 C703.32 757.34 689.32 779.96 690.84 807.9 C692.56 830.45 704.62 850.96 720 867 C720.97 868.18 721.93 869.37 722.88 870.56 C744.1 895.32 776.68 905.58 808 908 C814.35 908.38 820.65 908.31 827 908 C827.89 907.96 828.78 907.91 829.7 907.87 C871.65 905.61 926.35 896.65 959 868 C960.23 867.07 960.23 867.07 961.48 866.12 C973.55 855.98 978.41 840.16 980 825 C981.18 810.23 980.32 793.29 971 781 C966.12 775.9 960.64 773.33 953.62 772.83 C945.69 773.18 937.65 776.39 931.98 782 C927.37 787.93 925.08 793.36 926 801 C928.09 807.41 933.2 811.91 939.02 815.11 C943.76 817.09 947.9 817.59 953 817 C958.34 814.21 959.94 809.37 962 804 C962.99 804 963.98 804 965 804 C967.65 811.94 965.52 819.65 962 827 C953.6 838.96 942.81 844.61 928.71 847.46 C926.82 847.74 924.91 847.87 923 848 C922.05 848.08 922.05 848.08 921.08 848.16 C901.87 849.02 882.5 840.59 868.19 828.25 C856.77 817.36 850.12 802.79 849.71 786.99 C849.58 771.86 852.72 759.28 858.89 745.46 C859.37 744.38 859.85 743.29 860.35 742.17 C865.19 731.37 870.5 720.83 875.89 710.29 C901.3 660.45 924.95 603.36 907.75 546.81 C893.81 504.03 861.15 470.08 821.5 449.66 C767.96 422.85 702.42 427.32 654 463 Z M78 520 C76.59 521.9 76.59 521.9 75.2 524.41 C74.36 525.85 74.36 525.85 73.51 527.31 C72.91 528.37 72.31 529.42 71.69 530.5 C71.07 531.58 70.45 532.66 69.81 533.77 C67.86 537.18 65.93 540.59 64 544 C63.41 545.05 62.81 546.09 62.2 547.17 C45.42 576.83 31.55 609.24 39 644 C44.78 663.11 56.53 677.77 73.84 687.61 C89.65 695.98 105.57 699.19 123.06 695.19 C123.8 695.02 124.54 694.86 125.3 694.69 C128.95 693.79 131.71 693.11 134 690 C133.25 689.73 132.5 689.46 131.73 689.19 C117.52 683.75 108.9 675.27 102.25 661.69 C94.42 643.36 96.95 627.84 103.16 609.61 C104.03 606.92 104.17 604.81 104 602 C100.03 603.27 96.25 604.74 92.44 606.44 C82.44 610.62 72.84 612.59 62 612 C62.24 608.37 62.77 607.21 65.51 604.72 C66.56 603.99 67.61 603.25 68.69 602.5 C69.79 601.71 70.89 600.91 71.99 600.12 C72.98 599.42 73.98 598.72 75 598 C85.7 590.39 91.17 578.48 93.61 565.82 C95.85 549.46 88.95 533.43 80 520 C79.34 520 78.68 520 78 520 Z M557 533 C555.38 535.9 554.68 538.25 554.37 541.55 C554.28 542.39 554.2 543.24 554.11 544.11 C554 545.41 554 545.41 553.88 546.75 C553.79 547.64 553.7 548.53 553.61 549.44 C553.4 551.63 553.2 553.81 553 556 C551.68 556 550.36 556 549 556 C548.99 555.24 548.97 554.48 548.96 553.7 C548.86 547.69 548.86 547.69 545.94 542.75 C541.85 541.71 539.14 542.12 535 543 C532.21 545.79 532.69 547.81 532.62 551.63 C532.55 565.27 532.55 565.27 537 578 C540.31 580.26 543.5 581.63 547.32 582.8 C548.32 583.11 549.33 583.43 550.36 583.75 C551.42 584.08 552.48 584.41 553.56 584.75 C575.21 591.76 590.69 604.51 604.7 622.35 C605.62 623.51 606.54 624.67 607.47 625.83 C622.65 644.73 634.11 664.53 641.18 687.78 C641.88 690.16 641.88 690.16 644 692 C646.17 692.65 646.17 692.65 648.69 693.07 C649.64 693.24 650.58 693.42 651.56 693.6 C652.55 693.77 653.54 693.95 654.56 694.12 C655.53 694.31 656.49 694.49 657.49 694.68 C663.41 695.74 668.98 696.34 675 696 C677.51 693.96 677.88 692.47 678.69 689.38 C679.1 684.91 679.08 680.48 679 676 C675.42 674.77 672.81 675.23 669.14 676 C668.03 676.22 666.91 676.45 665.76 676.69 C664.6 676.94 663.44 677.18 662.25 677.44 C661.08 677.68 659.9 677.92 658.69 678.17 C655.79 678.77 652.9 679.38 650 680 C650 678.35 650 676.7 650 675 C651.22 674.76 652.44 674.52 653.7 674.27 C668.1 671.51 668.1 671.51 682 667 C683.18 664.65 683.13 663.18 683.12 660.56 C683.13 659.78 683.13 659 683.13 658.19 C683.08 655.82 683.08 655.82 682 653 C676.64 653.83 671.81 655.92 666.79 657.92 C663.27 659.28 660.83 660 657 660 C657.25 658.12 657.25 658.12 658 656 C659.76 654.88 659.76 654.88 662.04 654 C663.28 653.5 663.28 653.5 664.55 653 C665.85 652.5 665.85 652.5 667.19 652 C675.6 648.9 675.6 648.9 683 644 C684.98 638.26 682.96 634.4 680.6 629.12 C676.4 620.39 676.4 620.39 669 615 C666.98 616.03 666.98 616.03 664.95 617.64 C664.17 618.22 663.39 618.79 662.58 619.39 C661.77 620 660.96 620.62 660.12 621.25 C646.84 631.17 646.84 631.17 641 632 C641.39 629.61 641.71 628.29 643.44 626.56 C644.05 626.12 644.66 625.68 645.28 625.23 C646.29 624.49 646.29 624.49 647.32 623.74 C648.04 623.23 648.76 622.71 649.5 622.19 C650.96 621.12 652.42 620.05 653.89 618.98 C654.95 618.22 654.95 618.22 656.03 617.43 C658.49 615.64 660.91 613.8 663.31 611.94 C663.97 611.43 664.62 610.92 665.3 610.4 C669.01 607.5 669.01 607.5 670.44 603.19 C669.32 595.02 661.55 588.72 655.31 583.94 C652.28 582.71 651.1 582.96 648 584 C646.05 585.82 644.39 587.54 642.69 589.56 C642.01 590.34 642.01 590.34 641.31 591.14 C640.2 592.42 639.1 593.71 638 595 C636.51 594.5 636.51 594.5 635 594 C636.38 590 638.24 587.19 640.94 583.94 C645.92 578.7 645.92 578.7 648.12 572.25 C646.02 566.16 641.7 561.61 636 558.62 C630.7 556.31 625.8 554.88 620 555 C619.2 556.61 619.2 556.61 618.39 558.25 C617.68 559.64 616.96 561.04 616.25 562.44 C615.9 563.14 615.55 563.85 615.2 564.58 C612.48 569.84 612.48 569.84 609.87 570.71 C609.25 570.81 608.63 570.9 608 571 C608.59 566.47 609.82 562.75 611.62 558.56 C614.32 551.88 614.32 551.88 613 545 C607.2 538.18 599.8 535.83 591.14 534.92 C588.78 534.77 588.78 534.77 587 537 C586.45 538.83 586.45 538.83 586.15 540.91 C586.02 541.67 585.89 542.44 585.76 543.22 C585.57 544.41 585.57 544.41 585.38 545.62 C585.24 546.43 585.11 547.23 584.97 548.05 C584.64 550.04 584.32 552.02 584 554 C583.01 554 582.02 554 581 554 C581.05 552.81 581.09 551.62 581.14 550.39 C581.18 548.82 581.21 547.25 581.25 545.69 C581.28 544.9 581.32 544.12 581.35 543.31 C581.55 538.72 581.55 538.72 579.17 535.02 C575.99 533.53 573.47 532.88 569.99 532.9 C569.23 532.91 568.47 532.91 567.69 532.91 C566.91 532.92 566.12 532.93 565.31 532.94 C564.12 532.94 564.12 532.94 562.9 532.95 C560.93 532.96 558.97 532.98 557 533 Z M259.65 559.84 C259.09 560.67 258.52 561.51 257.94 562.38 C257.28 563.29 256.63 564.21 255.95 565.15 C255.31 566.09 254.66 567.03 254 568 C236.49 591.18 213.73 605.78 184.82 610.34 C175.6 611.55 167.99 611.03 158.98 608.66 C156.19 608.04 153.84 607.95 151 608 C150.82 608.57 150.63 609.14 150.44 609.73 C144.86 626.8 137.92 642.97 130 659.08 C125.69 667.63 125.69 667.63 125 677 C126.08 679.8 127.01 681.51 129.75 682.87 C131.88 683.61 134.01 684.23 136.19 684.81 C136.94 685.03 137.69 685.24 138.46 685.47 C140.3 685.99 142.15 686.5 144 687 C144 688.98 144 690.96 144 693 C141.1 694.17 138.19 695.3 135.27 696.4 C133.93 696.91 132.59 697.43 131.25 697.94 C130.22 698.32 130.22 698.32 129.18 698.7 C127.42 699.38 125.7 700.18 124 701 C122.39 705.83 124.11 710.25 125.19 715.12 C125.4 716.13 125.61 717.14 125.82 718.18 C129.1 733.2 135.9 744.56 149 753 C187.83 775.45 239.15 777.4 283 781 C284.77 781.15 284.77 781.15 286.58 781.3 C340.7 785.79 411.67 791.58 457 755 C489.67 727.13 493.29 669.41 496.53 629.24 C497.18 619.27 497.36 609.3 497.44 599.31 C497.45 598.42 497.46 597.54 497.47 596.62 C497.5 594.1 497.51 591.57 497.5 589.05 C497.51 588.29 497.52 587.54 497.53 586.76 C497.49 583.5 497.23 581.36 495.46 578.59 C492.18 576.47 489 575.95 485.2 575.44 C484.43 575.32 483.66 575.2 482.86 575.08 C480.33 574.71 477.79 574.35 475.25 574 C473.46 573.74 471.67 573.48 469.89 573.22 C465.41 572.58 460.92 571.95 456.44 571.34 C454.26 571.04 452.08 570.72 449.9 570.41 C411.88 564.88 373.27 563.04 334.92 561.15 C331.51 560.98 328.1 560.8 324.69 560.63 C317.09 560.24 309.5 559.86 301.9 559.48 C299.83 559.38 297.76 559.27 295.69 559.17 C291.78 558.97 287.87 558.78 283.96 558.59 C282.78 558.53 281.61 558.47 280.4 558.41 C269.45 557.03 269.45 557.03 259.65 559.84 Z M504 583 C503.11 604.99 503.11 604.99 503 627 C506.8 629.2 506.8 629.2 511 630 C511 631.32 511 632.64 511 634 C508.36 634 505.72 634 503 634 C500.8 637.62 500.4 641.31 499.92 645.43 C499.73 646.95 499.54 648.47 499.35 649.99 C499.25 650.79 499.15 651.58 499.05 652.41 C497.25 667.05 494.96 681.46 491.7 695.86 C491.45 697.01 491.2 698.16 490.94 699.35 C490.6 700.85 490.6 700.85 490.24 702.38 C489.97 705.37 490.27 706.58 492 709 C495.03 710.77 495.03 710.77 498 712 C498 712.99 498 713.98 498 715 C494.7 714.67 491.4 714.34 488 714 C487.74 714.66 487.49 715.32 487.22 716 C477.49 740.85 477.49 740.85 469 751 C468.4 751.73 467.8 752.45 467.19 753.2 C456.69 764.71 442.13 771.2 428 777 C428.15 777.77 428.31 778.53 428.46 779.32 C429.23 783.16 429.23 783.16 430 787 C428.68 787 427.36 787 426 787 C425.4 786.01 424.8 785.02 424.19 784 C423.47 783.01 422.74 782.02 422 781 C415.94 780.32 410.37 781.93 404.5 783.31 C390.78 786.38 377.02 787.58 363.03 788.69 C360.3 788.97 357.68 789.41 355 790 C354.67 793.3 354.34 796.6 354 800 C352.35 800 350.7 800 349 800 C349.04 798.91 349.08 797.81 349.12 796.69 C349.32 792.91 349.32 792.91 347 790 C343.82 789.47 343.82 789.47 340.06 789.45 C339.38 789.43 338.69 789.41 337.99 789.39 C336.55 789.35 335.1 789.32 333.66 789.29 C331.44 789.25 329.23 789.19 327.01 789.12 C321.51 788.97 321.51 788.97 316 789 C314.74 790.04 314.74 790.04 314.87 792.3 C314.88 795.54 314.92 798.77 315 802 C315.03 803.66 315.03 803.66 315.05 805.36 C315.1 806.42 315.14 807.47 315.19 808.56 C315.22 809.53 315.26 810.5 315.29 811.5 C315.79 814.18 315.79 814.18 318.18 815.74 C321.07 817.03 323.79 817.9 326.88 818.62 C327.86 818.86 328.85 819.1 329.87 819.35 C350.73 823.67 372.75 822.66 391 811 C392.09 810.19 393.17 809.38 394.25 808.56 C397.17 806.91 398.6 806.69 401.85 807.38 C404.57 808.16 407.25 809.06 409.94 809.94 C427.92 815.57 447.58 815.92 464.82 807.65 C472.09 803.59 477.22 799.15 479.94 791.12 C481.51 784.6 480.83 778.24 480.23 771.62 C480 768 480 768 481 765 C481.85 765.01 482.7 765.02 483.57 765.03 C496.85 764.69 507.31 759.68 516.88 750.37 C526.22 739.91 530 726.86 529.38 713 C528.51 701.72 524.5 690.08 516.19 682.12 C513.89 679.89 513.59 679.02 513 676 C513.56 675.83 514.11 675.66 514.69 675.48 C526.53 671.72 535.48 666.91 541.71 655.76 C547.65 643.03 547.22 629.84 543.32 616.58 C537.61 601.1 526.08 592.31 512 585 C511.28 584.6 510.57 584.19 509.83 583.78 C507.72 582.74 507.72 582.74 504 583 Z M522 583 C524.39 585.59 526.89 587.66 529.75 589.69 C541.18 598.25 548.56 610.9 551 625 C552.58 640.4 550.56 654.15 541.02 666.81 C536.03 672.21 529.67 676.02 523 679 C524.41 682.7 526.09 686.13 527.94 689.62 C534.73 703.35 536.99 719.77 532.38 734.69 C526.36 749.5 516.83 760.71 502 767 C497.09 768.71 492.08 769.92 487 771 C486.96 772.11 486.93 773.22 486.89 774.37 C486.4 786.28 485.8 797.05 477 806 C463.34 817.67 444.96 820.13 427.66 819.26 C421.7 818.67 416.04 816.94 410.33 815.19 C402.43 812.79 402.43 812.79 394.57 814.04 C393.95 814.56 393.33 815.09 392.69 815.62 C376.54 827.6 355.91 828.43 336.75 825.62 C331.99 824.91 327.3 824.12 322.64 822.9 C318.98 821.84 318.98 821.84 315 822 C314.84 822.61 314.67 823.22 314.5 823.85 C307.11 850.96 295.96 876.26 283.34 901.32 C283.04 901.92 282.74 902.52 282.43 903.14 C280.97 906.04 279.5 908.93 278.01 911.81 C277.49 912.84 276.96 913.87 276.42 914.93 C275.95 915.84 275.49 916.75 275 917.69 C273.8 920.04 273.8 920.04 274 923 C297.89 926.39 321.72 927.34 345.81 927.26 C349.52 927.25 353.23 927.26 356.94 927.27 C373.34 927.31 389.73 927.3 406 925 C408.12 922.88 407.42 918.38 407.56 915.44 C407.61 914.63 407.65 913.82 407.69 912.99 C407.8 911 407.9 909 408 907 C409.32 907 410.64 907 412 907 C412.06 907.61 412.13 908.23 412.2 908.86 C416.88 951.88 440.26 984.32 467.88 1016.52 C479.39 1029.98 489.8 1044.31 500.24 1058.6 C502.02 1061.02 503.81 1063.44 505.6 1065.85 C518.58 1083.44 523.44 1096.22 520.57 1118.32 C519.22 1126.57 517.4 1134.72 515.5 1142.86 C514.99 1145.03 514.49 1147.21 513.99 1149.38 C508.36 1173.71 501.43 1197.61 494.09 1221.48 C493.58 1223.18 493.58 1223.18 493.05 1224.92 C492.4 1227.06 491.74 1229.2 491.07 1231.34 C490.78 1232.29 490.49 1233.24 490.2 1234.22 C489.81 1235.47 489.81 1235.47 489.42 1236.74 C488.97 1239.19 489.21 1240.66 490 1243 C495.75 1243.1 501.49 1243.17 507.24 1243.22 C509.2 1243.24 511.15 1243.27 513.11 1243.3 C515.92 1243.35 518.73 1243.37 521.54 1243.39 C522.41 1243.41 523.29 1243.43 524.18 1243.45 C528.17 1243.45 530.42 1243.35 533.9 1241.27 C535.96 1239.04 537.51 1236.97 539.02 1234.34 C539.56 1233.42 540.1 1232.49 540.66 1231.54 C541.22 1230.54 541.79 1229.53 542.38 1228.5 C542.98 1227.45 543.58 1226.39 544.21 1225.31 C588.23 1156.41 588.23 1156.41 602.31 1081.4 C599.82 1074.42 596.49 1068.57 592.38 1062.44 C583.27 1048.49 575.29 1034.08 568.02 1019.1 C566.93 1016.86 565.82 1014.64 564.71 1012.41 C563.93 1010.82 563.15 1009.22 562.38 1007.62 C562.03 1006.93 561.68 1006.24 561.32 1005.52 C554.71 991.81 551.08 977.31 548.56 962.36 C548.12 959.77 547.66 957.19 547.2 954.6 C546.9 952.93 546.61 951.25 546.32 949.58 C546.19 948.82 546.05 948.06 545.91 947.28 C545.16 942.79 544.87 938.56 545 934 C545.99 933.67 546.98 933.34 548 933 C550.12 940.91 551.59 948.96 553.12 957 C553.4 958.46 553.68 959.91 553.96 961.37 C554.65 964.91 555.32 968.46 556 972 C560.35 971.15 562.21 969.12 565.31 965.94 C565.8 965.44 566.29 964.94 566.79 964.42 C570.68 960.4 574.4 956.28 578 952 C578.76 951.13 579.52 950.26 580.3 949.37 C631.16 890.13 648.35 809.01 643 733 C638.82 685.86 622.41 650.02 591 615 C590.55 614.49 590.09 613.98 589.62 613.46 C572.17 594.25 547.45 585.37 522 583 Z M78 697 C73.29 707.41 74.5 724.62 77.91 735.36 C84.32 750.92 93.73 762.98 109.08 770.22 C112.4 771.57 115.85 772.4 119.31 773.31 C127.6 775.52 131.39 779.98 136 787 C144.99 799.23 162.8 811.51 178 814 C181.73 814.29 185.45 814.4 189.19 814.44 C190.11 814.45 191.04 814.46 192 814.47 C197.83 814.39 203.84 813.98 209 811 C213.74 803.53 214.05 789.59 213 781 C211.27 777.7 211.27 777.7 207.77 777.05 C206.45 776.79 205.13 776.55 203.81 776.31 C202.52 776.06 201.23 775.81 199.89 775.55 C196.2 775.03 192.73 774.9 189 775 C187.68 777.64 186.36 780.28 185 783 C184.01 783 183.02 783 182 783 C182 779.37 182 775.74 182 772 C180.29 771.44 178.57 770.89 176.8 770.31 C137.69 757.37 137.69 757.37 127.3 738.7 C125.36 734.68 123.73 730.56 122.18 726.37 C121.59 725.2 121.59 725.2 121 724 C117.52 722.84 115.54 723.29 112 724 C112.12 722.25 112.12 722.25 113 720 C116.06 717.75 116.06 717.75 119 716 C118.88 714.58 118.76 713.17 118.62 711.75 C118.52 710.57 118.52 710.57 118.41 709.36 C117.83 705.91 117.83 705.91 116 703 C112.74 702.44 112.74 702.44 108.88 702.5 C101.39 702.29 94.73 700.93 87.52 698.94 C84.35 698.09 81.24 697.48 78 697 Z M220 780 C219.13 782.62 218.8 784.5 218.61 787.22 C215.71 824.2 201.95 858.27 187.38 892.08 C186.97 893.04 186.56 894 186.13 894.99 C185.37 896.76 184.59 898.53 183.82 900.29 C181.23 906.22 178.76 912.14 178.56 918.69 C178.52 919.41 178.48 920.14 178.44 920.89 C179.31 924.17 181.21 925.17 184 927 C201.78 935.16 224.6 937.65 244 937 C244.94 936.97 245.89 936.94 246.86 936.91 C252.63 936.59 256.61 936.08 261 932 C264.67 926.81 267.57 921.16 270.41 915.49 C270.81 914.69 271.21 913.89 271.62 913.07 C272.92 910.49 274.21 907.9 275.5 905.31 C276.16 903.98 276.16 903.98 276.84 902.62 C300.97 855.68 300.97 855.68 309.12 804.31 C309.11 802.92 309.11 801.52 309.1 800.13 C309.07 796.75 309.04 793.38 309 790 C303.27 787.67 297.54 787.32 291.45 786.82 C290.31 786.72 289.18 786.61 288.01 786.51 C284.38 786.19 280.75 785.87 277.12 785.56 C272.4 785.15 267.67 784.74 262.95 784.32 C261.78 784.21 260.62 784.11 259.43 784 C250.44 783.18 241.49 782.13 232.54 780.94 C231.62 780.81 230.7 780.69 229.75 780.57 C228.55 780.4 228.55 780.4 227.32 780.23 C224.87 779.99 222.47 779.96 220 780 Z M-45.73 881.42 C-46.44 881.95 -47.15 882.47 -47.89 883.01 C-48.65 883.59 -49.41 884.16 -50.19 884.75 C-51.81 885.95 -53.44 887.15 -55.07 888.35 C-55.89 888.96 -56.72 889.57 -57.57 890.2 C-71.53 900.51 -85.85 910.5 -101 919 C-101 919.66 -101 920.32 -101 921 C-100.47 921.19 -99.94 921.38 -99.39 921.58 C-78.75 929.02 -60.47 938.5 -41.96 950.25 C-29.78 957.96 -17.37 965.13 -4.25 971.12 C-3.45 971.49 -2.65 971.86 -1.83 972.24 C3.38 974.53 8.41 975.92 14 977 C16.38 971.84 17.92 966.85 19.16 961.3 C19.34 960.48 19.53 959.66 19.73 958.81 C20.33 956.17 20.91 953.52 21.5 950.88 C21.7 949.98 21.9 949.08 22.11 948.15 C25 935.2 27.84 922.24 29 909 C29.12 907.73 29.24 906.47 29.37 905.16 C29.19 903.6 29.19 903.6 29 902 C25.53 899.46 21.88 898.14 17.8 896.82 C15.96 896.22 15.96 896.22 14.08 895.61 C12.75 895.18 11.42 894.76 10.09 894.33 C8.72 893.89 7.34 893.44 5.97 893 C3.1 892.07 0.23 891.15 -2.65 890.23 C-6.33 889.05 -10 887.86 -13.68 886.67 C-16.51 885.75 -19.35 884.84 -22.18 883.93 C-23.54 883.49 -24.89 883.05 -26.25 882.61 C-28.14 882 -30.04 881.39 -31.93 880.79 C-33.01 880.44 -34.09 880.1 -35.2 879.74 C-39.66 878.56 -42.11 878.71 -45.73 881.42 Z M391.12 932 C390.06 932.1 388.99 932.19 387.88 932.29 C385.25 932.52 382.63 932.76 380 933 C379.28 940.27 381.86 946.53 384.25 953.31 C384.47 953.95 384.69 954.58 384.92 955.23 C393.14 978.71 403.25 1003.29 420 1022 C420.83 1022.97 421.66 1023.95 422.52 1024.95 C436.39 1040.97 458.78 1058.65 480 1063 C482.59 1063.07 485.16 1063.09 487.75 1063.06 C488.8 1063.06 488.8 1063.06 489.86 1063.05 C491.58 1063.04 493.29 1063.02 495 1063 C494.38 1059.42 492.92 1057.26 490.72 1054.4 C490.05 1053.52 489.37 1052.65 488.68 1051.74 C487.96 1050.82 487.24 1049.89 486.5 1048.94 C485.77 1047.99 485.04 1047.04 484.28 1046.06 C478.5 1038.59 472.63 1031.23 466.47 1024.05 C458.96 1015.3 451.89 1006.25 445 997 C444.55 996.4 444.11 995.8 443.64 995.18 C429.19 975.7 415.54 954.59 409 931 C403.01 930.83 397.09 931.46 391.12 932 Z M560 979 C559.67 979.33 559.34 979.66 559 980 C559.35 986.65 561.35 991.9 564.06 997.94 C564.47 998.86 564.88 999.78 565.3 1000.73 C566.52 1003.5 567.76 1006.25 569 1009 C569.33 1009.74 569.66 1010.49 570 1011.26 C578.15 1029.69 588.47 1047.07 599.45 1063.95 C601.48 1067.1 603.13 1070.3 604.75 1073.69 C608.47 1079.82 615.06 1082.03 621.36 1084.8 C624.32 1086.15 627.23 1087.58 630.14 1089.04 C641.68 1094.78 653.28 1100.12 665.31 1104.75 C666.94 1105.38 666.94 1105.38 668.6 1106.02 C675.63 1108.67 675.63 1108.67 683 1110 C685.66 1108 685.66 1108 688 1105 C688.97 1103.91 689.94 1102.81 690.91 1101.72 C691.96 1100.5 693.01 1099.28 694.06 1098.06 C694.9 1097.09 694.9 1097.09 695.76 1096.1 C698.66 1092.73 701.55 1089.36 704.45 1085.98 C704.99 1085.34 705.54 1084.7 706.1 1084.05 C707.14 1082.83 708.18 1081.61 709.22 1080.39 C711.09 1078.2 712.96 1076.04 715 1074 C715.07 1072 715.07 1072 714 1070 C711.73 1068.14 711.73 1068.14 708.8 1066.49 C707.69 1065.82 706.58 1065.15 705.43 1064.47 C704.2 1063.75 702.98 1063.03 701.75 1062.31 C700.48 1061.56 699.22 1060.8 697.95 1060.05 C694.64 1058.08 691.31 1056.12 687.98 1054.17 C686.06 1053.04 684.14 1051.9 682.22 1050.77 C673.83 1045.82 665.42 1040.9 657 1036 C654.95 1034.81 652.91 1033.61 650.86 1032.42 C649.89 1031.85 648.91 1031.28 647.91 1030.7 C645.97 1029.57 644.03 1028.44 642.1 1027.31 C635.82 1023.64 635.82 1023.64 629.53 1019.98 C611.06 1009.25 592.7 998.36 574.84 986.62 C574.05 986.1 573.26 985.58 572.44 985.05 C570.99 984.09 569.53 983.12 568.08 982.15 C564.37 979.61 564.37 979.61 560 979 Z M138 1004 C136.92 1008.18 137.08 1011.74 137.49 1016.02 C137.55 1016.67 137.61 1017.33 137.68 1018 C137.82 1019.38 137.95 1020.76 138.1 1022.14 C138.31 1024.26 138.51 1026.37 138.71 1028.49 C138.84 1029.83 138.98 1031.17 139.11 1032.52 C139.23 1033.74 139.36 1034.96 139.48 1036.21 C139.65 1037.13 139.82 1038.05 140 1039 C143.94 1040.97 148.71 1040.46 153 1040 C156.52 1037.68 157.87 1035.01 159 1031 C160.34 1024.31 160.7 1017.99 157 1012 C151.59 1006.68 145.37 1004.89 138 1004 Z M-84 1033 C-83.5 1038.03 -82.28 1042.36 -80.58 1047.11 C-70.67 1074.73 -64.06 1103.98 -60 1133 C-59.78 1134.53 -59.78 1134.53 -59.56 1136.09 C-56.87 1155.76 -55.85 1175.62 -54.65 1195.42 C-54.59 1196.36 -54.53 1197.31 -54.48 1198.28 C-54.18 1203.34 -53.94 1208.4 -53.76 1213.47 C-53.71 1215.05 -53.71 1215.05 -53.65 1216.66 C-53.58 1218.69 -53.51 1220.71 -53.46 1222.74 C-53.41 1224.1 -53.41 1224.1 -53.37 1225.49 C-53.34 1226.29 -53.32 1227.09 -53.3 1227.92 C-53.11 1230.3 -53.11 1230.3 -51 1233 C-48.1 1233.29 -45.42 1233.4 -42.52 1233.36 C-41.67 1233.36 -40.83 1233.36 -39.96 1233.36 C-38.16 1233.36 -36.37 1233.35 -34.57 1233.34 C-31.84 1233.31 -29.11 1233.32 -26.38 1233.32 C-24.64 1233.32 -22.89 1233.31 -21.14 1233.3 C-19.93 1233.3 -19.93 1233.3 -18.69 1233.3 C-17.91 1233.29 -17.14 1233.28 -16.34 1233.27 C-15.34 1233.27 -15.34 1233.27 -14.31 1233.26 C-11.09 1232.9 -8.1 1231.94 -5 1231 C-3.44 1220.28 -2.41 1209.6 -1.63 1198.8 C-1.51 1197.17 -1.39 1195.54 -1.27 1193.91 C-1.02 1190.48 -0.76 1187.04 -0.51 1183.61 C0.14 1174.72 0.8 1165.83 1.47 1156.93 C1.57 1155.62 1.57 1155.62 1.67 1154.29 C2.95 1137.31 4.41 1120.35 6.02 1103.4 C6.35 1099.93 6.68 1096.47 7 1093 C7.11 1091.9 7.21 1090.8 7.32 1089.66 C8.15 1080.34 8.11 1071.04 8.06 1061.69 C8.06 1060.06 8.05 1058.43 8.05 1056.81 C8.04 1052.87 8.02 1048.94 8 1045 C2.96 1043.04 -1.71 1042.5 -7.05 1042.11 C-8.87 1041.96 -10.68 1041.81 -12.5 1041.66 C-13.92 1041.54 -13.92 1041.54 -15.38 1041.42 C-34.37 1039.89 -53.08 1037.58 -71.87 1034.49 C-75.91 1033.86 -79.94 1033.4 -84 1033 Z M716.93 1079.71 C716.42 1080.24 715.9 1080.77 715.38 1081.31 C714.84 1081.86 714.31 1082.4 713.76 1082.96 C708.83 1088.04 704.4 1093.46 700 1099 C698.16 1101.24 696.3 1103.46 694.44 1105.69 C693.58 1106.71 692.73 1107.74 691.87 1108.76 C691.25 1109.5 690.64 1110.24 690 1111 C693.61 1114.86 696.47 1114.9 701.69 1115.25 C711.41 1115.05 718.5 1110.86 726 1105 C727.25 1104.05 727.25 1104.05 728.53 1103.09 C731.1 1100.92 733.14 1098.68 735.25 1096.06 C735.94 1095.23 736.62 1094.39 737.33 1093.54 C739.05 1090.93 739.63 1089.07 740 1086 C728.63 1076.61 728.63 1076.61 716.93 1079.71 Z M-17.94 1238.02 C-18.81 1238.03 -19.69 1238.05 -20.59 1238.07 C-22.45 1238.1 -24.3 1238.14 -26.15 1238.19 C-28.99 1238.25 -31.83 1238.29 -34.66 1238.33 C-36.46 1238.37 -38.26 1238.41 -40.06 1238.45 C-41.34 1238.47 -41.34 1238.47 -42.64 1238.48 C-46.96 1238.49 -46.96 1238.49 -50.74 1240.3 C-52.88 1243.18 -52.16 1246.47 -51.88 1249.88 C-51.84 1250.58 -51.8 1251.29 -51.77 1252.02 C-51.46 1256.41 -50.83 1259.59 -48 1263 C-43.44 1265.88 -37.96 1265.33 -32.75 1265.31 C-31.85 1265.33 -30.94 1265.34 -30.01 1265.36 C-23.01 1265.37 -16.02 1264.7 -10.62 1259.88 C-6.71 1252.95 -5.62 1246.91 -6 1239 C-9.99 1237.67 -13.78 1237.93 -17.94 1238.02 Z M487 1249 C484.93 1253.83 483.41 1257.7 482.25 1262.69 C481.99 1263.78 481.72 1264.88 481.45 1266.01 C481.02 1268.89 481.21 1270.29 482 1273 C489.77 1273.51 495.7 1271.83 502.94 1269.06 C504 1268.66 505.06 1268.26 506.16 1267.84 C513.87 1264.78 519.74 1261.57 525 1255 C525.57 1254.29 526.14 1253.59 526.73 1252.86 C528.19 1251.1 528.19 1251.1 528 1249 C514.47 1249 500.94 1249 487 1249 Z " fill="#000000" transform="translate(287,0)"/>
<path d="M0 0 C4.52 1.42 6.72 3.65 10 7 C24.87 20.87 46.29 25.21 66.06 25.19 C66.82 25.19 67.58 25.19 68.36 25.19 C77.69 25.1 86.95 24.18 96.23 23.27 C100.82 22.82 105.41 22.41 110 22 C110.49 23.98 110.49 23.98 111 26 C91.09 37.53 57.39 34.02 35.99 28.48 C21.15 24.42 7.05 16.81 -2 4 C-1.34 2.68 -0.68 1.36 0 0 Z " fill="#000000" transform="translate(1105,853)"/>
<path d="M0 0 C2.16 0.34 2.16 0.34 4 1 C4 4.17 3.6 6.31 1.5 8.75 C-11.41 20.41 -25.66 25.03 -42.88 24.47 C-50.59 23.96 -57.77 21.62 -65 19 C-65.33 17.35 -65.66 15.7 -66 14 C-62.03 12.68 -59.26 13.87 -55.38 14.94 C-40.99 18.57 -27.37 18.64 -14.03 11.39 C-9.75 8.79 -5.98 6.18 -2.56 2.5 C-1.72 1.68 -0.87 0.85 0 0 Z " fill="#000000" transform="translate(259,310)"/>
<path d="M0 0 C2.26 0.03 2.26 0.03 5 1 C6.53 3.52 7.71 5.82 8.88 8.5 C11.92 15.04 15.24 20.54 20 26 C20.73 26.95 21.47 27.89 22.23 28.87 C25.26 32.51 28.87 35.17 32.69 37.94 C33.39 38.46 34.1 38.98 34.82 39.52 C39.54 42.98 44.31 46.35 49.18 49.6 C51 51 51 51 53 54 C52.51 54.99 52.51 54.99 52 56 C36.87 54.66 21.6 39.01 12 28 C6.28 20.28 -1.03 10.03 0 0 Z " fill="#000000" transform="translate(1022,840)"/>
<path d="M0 0 C11.96 4.09 20.82 11.36 26.88 22.44 C28.76 26.42 29.35 29.01 27.88 33.32 C26.09 33.2 26.09 33.2 23.88 32.32 C22.2 29.62 22.2 29.62 20.57 26.19 C14.82 14.89 7.82 10.3 -4.12 6.32 C-7.7 6.05 -11.28 5.87 -14.87 5.7 C-18.12 5.32 -18.12 5.32 -21.12 3.32 C-20.79 2.33 -20.46 1.34 -20.12 0.32 C-14.73 -2.38 -5.75 -1.26 0 0 Z " fill="#000000" transform="translate(370.12109375,109.68359375)"/>
<path d="M0 0 C1.88 0.56 1.88 0.56 4 2 C7.62 12.18 7.39 24.08 3 34 C1.57 36.86 0.18 39.64 -2 42 C-4.16 42.71 -4.16 42.71 -6 43 C-7.18 41.36 -7.18 41.36 -8 39 C-6.92 36.23 -6.92 36.23 -5.19 33.19 C-0.12 23.65 -0.31 14.32 -1.98 3.85 C-1.98 3.24 -1.99 2.63 -2 2 C-1.34 1.34 -0.68 0.68 0 0 Z " fill="#000000" transform="translate(493,362)"/>
<path d="M0 0 C1.94 0.38 1.94 0.38 4 1 C5.66 4.33 5.14 8.03 5.12 11.69 C5.13 12.48 5.13 13.27 5.14 14.08 C5.13 18.82 4.96 23.36 4 28 C1.94 29.44 1.94 29.44 0 30 C-2.64 27.36 -2.26 26.12 -2.27 22.44 C-2.27 21.33 -2.27 20.23 -2.27 19.08 C-2.27 17.92 -2.26 16.76 -2.25 15.56 C-2.26 14.4 -2.27 13.25 -2.27 12.05 C-2.27 10.94 -2.27 9.83 -2.27 8.69 C-2.26 7.67 -2.26 6.65 -2.26 5.6 C-2 3 -2 3 0 0 Z " fill="#000000" transform="translate(769,601)"/>
<path d="M0 0 C3.01 2.36 3.93 3.5 4.46 7.36 C4.05 25.74 4.05 25.74 0.43 29.73 C-0.04 30.15 -0.52 30.57 -1 31 C-2.32 30.34 -3.64 29.68 -5 29 C-4.87 28.32 -4.73 27.64 -4.6 26.94 C-3.33 20 -2.66 13.21 -2.43 6.17 C-2.36 4.44 -2.19 2.72 -2 1 C-1.34 0.67 -0.68 0.34 0 0 Z " fill="#000000" transform="translate(585,804)"/>
<path d="M0 0 C0.99 0.33 1.98 0.66 3 1 C2.67 2.65 2.34 4.3 2 6 C0.68 5.34 -0.64 4.68 -2 4 C-1.34 2.68 -0.68 1.36 0 0 Z " fill="#000000" transform="translate(1018,507)"/>
<path d="M0 0 C1.98 0.5 1.98 0.5 4 1 C3.67 2.32 3.34 3.64 3 5 C1.68 4.67 0.36 4.34 -1 4 C-0.67 2.68 -0.34 1.36 0 0 Z " fill="#000000" transform="translate(270,404)"/>
<path d="M0 0 C1.32 0.66 2.64 1.32 4 2 C3.67 2.99 3.34 3.98 3 5 C1.68 5 0.36 5 -1 5 C-0.67 3.35 -0.34 1.7 0 0 Z " fill="#000000" transform="translate(1088,843)"/>
<path d="M0 0 C1.32 0 2.64 0 4 0 C4 1.32 4 2.64 4 4 C2.35 3.67 0.7 3.34 -1 3 C-0.67 2.01 -0.34 1.02 0 0 Z " fill="#000000" transform="translate(579,838)"/>
<path d="M0 0 C1.32 0.66 2.64 1.32 4 2 C3.67 2.99 3.34 3.98 3 5 C1.68 4.67 0.36 4.34 -1 4 C-0.67 2.68 -0.34 1.36 0 0 Z " fill="#000000" transform="translate(1102,593)"/>
<path d="M0 0 C1.32 0.66 2.64 1.32 4 2 C3.01 3.49 3.01 3.49 2 5 C1.01 4.67 0.02 4.34 -1 4 C-0.67 2.68 -0.34 1.36 0 0 Z " fill="#000000" transform="translate(765,635)"/>
<path d="M0 0 C0.99 0.33 1.98 0.66 3 1 C2.67 1.99 2.34 2.98 2 4 C1.01 3.67 0.02 3.34 -1 3 C-0.67 2.01 -0.34 1.02 0 0 Z " fill="#000000" transform="translate(1084,893)"/>
</svg>
