<?xml version="1.0" encoding="UTF-8"?>
<!-- Generator: visioncortex VTracer 0.6.3 -->
<svg version="1.1" xmlns="http://www.w3.org/2000/svg" width="980" height="1280">
<path d="M0 0 C1.08 0 1.08 0 2.19 0.01 C14.33 0.06 26.1 0.8 38 3.31 C39.38 3.6 39.38 3.6 40.79 3.9 C65.67 9.31 89.17 18.12 112 29.31 C113.16 29.88 113.16 29.88 114.35 30.45 C136.01 41.03 155.78 55.36 173.32 71.82 C175.57 73.91 177.85 75.9 180.19 77.88 C187.6 84.32 194.53 92.15 200 100.31 C200 100.97 200 101.63 200 102.31 C200.66 102.31 201.32 102.31 202 102.31 C202.21 101.53 202.41 100.75 202.62 99.94 C214.72 68.06 248.84 42.47 278.67 28.57 C302.11 18.49 329.31 16.9 354 23.31 C354.77 23.51 355.53 23.7 356.32 23.9 C394.07 33.66 435.2 57.95 458 90.31 C460.59 95.24 461.63 98.81 460 104.31 C457.82 107.1 456.2 108.87 452.85 110.1 C448.76 110.41 445.48 109.13 441.62 107.88 C432.29 105.08 421.95 102.81 412.56 106.75 C403.74 112.51 398.65 121.82 393.69 130.81 C392.38 133.14 391.06 135.46 389.74 137.79 C389.1 138.91 388.46 140.03 387.81 141.18 C383.82 148.08 379.45 154.71 375 161.31 C374.25 162.44 374.25 162.44 373.48 163.59 C362.73 179.69 351.59 195.47 338 209.31 C337.06 210.31 337.06 210.31 336.1 211.32 C324.25 222.86 299.19 233.31 283 233.31 C283.36 234.03 283.72 234.75 284.09 235.49 C300.1 267.63 314.05 300.68 327.13 334.1 C328.09 336.53 329.04 338.96 330 341.39 C338.14 362.05 346.21 382.75 354.12 403.5 C354.45 404.35 354.77 405.19 355.11 406.07 C358.9 416.01 362.62 425.97 366.24 435.97 C367.3 438.88 368.36 441.78 369.42 444.69 C370.4 447.4 371.37 450.12 372.33 452.84 C376.17 463.46 380.79 472.88 387 482.31 C387.28 481.18 387.56 480.04 387.85 478.88 C388.91 474.63 389.98 470.39 391.05 466.14 C391.51 464.31 391.97 462.48 392.43 460.65 C393.08 458.01 393.75 455.37 394.42 452.72 C394.62 451.92 394.82 451.11 395.02 450.28 C397.26 441.54 400.24 431.8 408.38 426.88 C412.81 425.92 416.46 426.69 420.62 428.38 C431.8 437.49 433.06 455.57 434.46 468.98 C437.08 499.72 435.23 531 428.45 561.08 C426.85 568.69 427.3 574.76 429 582.31 C436.76 626.57 428.6 668.92 402.83 706 C398.32 712.37 393.41 718.27 388.12 724 C386.16 726.13 384.26 728.3 382.38 730.5 C376.38 737.35 369.9 743.19 362.78 748.87 C361.38 750.01 359.99 751.16 358.6 752.33 C352.09 757.75 345.39 762.65 338.31 767.31 C336.76 768.34 336.76 768.34 335.17 769.4 C312.45 784.31 312.45 784.31 308 784.31 C308.39 785.51 308.78 786.7 309.19 787.93 C324.91 835.99 338.04 884.37 348.06 933.94 C348.22 934.69 348.37 935.44 348.52 936.21 C348.95 938.32 349.37 940.43 349.79 942.54 C350.02 943.73 350.26 944.92 350.5 946.15 C350.94 948.94 351.1 951.49 351 954.31 C386.32 946.56 419.74 937.57 446 911.31 C446.67 910.65 447.33 909.98 448.02 909.3 C453.29 903.64 457.16 896.99 461 890.31 C461.43 889.61 461.85 888.9 462.29 888.17 C463.21 885.76 463 884.68 462 882.31 C460.62 880.75 460.62 880.75 458.88 879.31 C447.71 868.54 443 852.62 442.71 837.46 C442.57 816.93 447.49 799.36 461.94 784.31 C463.28 782.97 464.64 781.64 466 780.31 C466.98 779.33 466.98 779.33 467.99 778.33 C489.09 758.58 518.9 749.16 547.27 749.05 C552.54 749.42 556.64 750.33 560.94 753.44 C563.14 756.51 563.76 758.53 563.46 762.33 C562.62 765.93 560.88 768.15 558 770.31 C555.24 771.73 552.45 772.96 549.6 774.16 C545.66 775.91 542.81 777.65 540.9 781.57 C536.32 795.48 542.92 811.78 548.73 824.42 C552.76 833.6 552.36 846.25 549.44 855.75 C542.99 872.07 530.99 883.63 514.99 890.63 C510.72 892.17 506.99 893.28 502.42 893.43 C498.5 893.57 495.63 893.81 492 895.31 C488.56 899.3 486.86 904.49 484.89 909.31 C482.73 914.16 479.31 918.21 476 922.31 C475.58 922.83 475.17 923.36 474.74 923.89 C462.32 939.37 447.67 951.29 430 960.31 C430.92 960.45 430.92 960.45 431.86 960.58 C447.75 962.97 463.77 965.52 477 975.31 C479.55 979.14 479.19 980.91 478.64 985.33 C477.38 991.17 474.86 996.51 472.44 1001.94 C471.92 1003.13 471.4 1004.33 470.86 1005.56 C469.59 1008.48 468.3 1011.4 467 1014.31 C475.32 1010.88 475.32 1010.88 483.57 1007.29 C484.26 1006.99 484.95 1006.69 485.66 1006.38 C487.03 1005.79 488.39 1005.18 489.75 1004.56 C494.68 1002.44 499.64 1001.2 505 1002.31 C517.78 1012.74 522.86 1037.98 524.72 1053.45 C527.63 1093.42 516.6 1134.11 490.19 1164.86 C489.47 1165.67 488.74 1166.48 488 1167.31 C487.24 1168.18 486.47 1169.06 485.69 1169.95 C483.49 1172.44 481.26 1174.88 479 1177.31 C478.45 1177.92 477.9 1178.52 477.34 1179.14 C457.51 1200.04 426.25 1215.68 397.4 1216.65 C370.08 1217 348.96 1211.16 327 1194.31 C326.99 1195.02 326.97 1195.72 326.96 1196.45 C326.4 1220.47 325.21 1243.23 309 1262.31 C308.32 1263.11 307.64 1263.92 306.95 1264.74 C297.32 1275.22 285.34 1280.13 271.35 1280.89 C269.18 1280.97 267.02 1281.03 264.85 1281.07 C263.37 1281.11 261.89 1281.17 260.41 1281.25 C248.2 1281.95 248.2 1281.95 242.91 1278.02 C240.37 1275.24 238.16 1272.4 236 1269.31 C235.04 1268.18 234.08 1267.05 233.09 1265.94 C232.38 1265.07 231.67 1264.2 230.94 1263.31 C230.2 1262.43 229.47 1261.54 228.71 1260.62 C227 1258.31 227 1258.31 226 1255.31 C225.34 1255.31 224.68 1255.31 224 1255.31 C223.78 1255.84 223.55 1256.37 223.32 1256.92 C221.54 1260.14 219.21 1262.8 216.81 1265.56 C216.36 1266.1 215.9 1266.63 215.43 1267.18 C214.47 1268.3 213.5 1269.41 212.51 1270.5 C210.93 1272.31 210.93 1272.31 209.65 1274.49 C207.01 1278.38 205.22 1280.07 200.51 1280.99 C196.98 1281.26 193.46 1281.21 189.92 1281.08 C187.7 1281 185.49 1280.98 183.27 1280.97 C166.11 1280.74 154.1 1275.55 142 1263.31 C127.65 1247.63 124.15 1228.07 123.44 1207.56 C123.39 1206.48 123.35 1205.39 123.31 1204.28 C122.93 1193.94 123 1183.68 123 1173.31 C78.12 1173.31 33.24 1173.31 -13 1173.31 C-13 1188.49 -13 1203.67 -13 1219.31 C-16.58 1239.57 -16.58 1239.57 -21 1248.31 C-21.5 1249.32 -22.01 1250.33 -22.53 1251.36 C-30.38 1265.91 -42.09 1275.07 -57.78 1279.85 C-63.02 1280.94 -68.45 1280.9 -73.8 1281.05 C-75.3 1281.1 -76.79 1281.17 -78.29 1281.27 C-91.36 1282.12 -91.36 1282.12 -96.33 1277.8 C-99.2 1274.87 -101.59 1271.63 -104 1268.31 C-105.7 1266.24 -107.44 1264.22 -109.19 1262.19 C-113 1257.58 -113 1257.58 -113 1255.31 C-113.66 1255.31 -114.32 1255.31 -115 1255.31 C-115.21 1255.83 -115.42 1256.35 -115.64 1256.89 C-117.58 1260.35 -120.14 1263.15 -122.75 1266.12 C-123.52 1267.01 -123.52 1267.01 -124.3 1267.92 C-125.35 1269.12 -126.41 1270.31 -127.48 1271.49 C-129.05 1273.26 -129.05 1273.26 -130.16 1275.3 C-131.61 1277.6 -132.69 1278.85 -135 1280.31 C-139.7 1281.14 -144.24 1281.15 -149 1281.01 C-151.23 1280.94 -153.45 1280.92 -155.68 1280.92 C-170.95 1280.76 -183.41 1276.95 -194.69 1266.25 C-211.09 1248.93 -215.09 1228.61 -215.62 1205.56 C-215.66 1204.17 -215.7 1202.78 -215.74 1201.39 C-215.84 1198.03 -215.92 1194.67 -216 1191.31 C-216.82 1192.01 -217.65 1192.71 -218.5 1193.44 C-241.58 1212.59 -266.37 1217.86 -296 1216.31 C-302.19 1215.65 -308.08 1214.2 -314 1212.31 C-314.67 1212.1 -315.34 1211.89 -316.03 1211.68 C-337.44 1204.79 -354.83 1192.71 -371 1177.31 C-372.15 1176.25 -372.15 1176.25 -373.33 1175.18 C-399.27 1150.64 -416.19 1111.68 -417.24 1076.11 C-417.62 1051.76 -415.04 1023.33 -398.65 1003.7 C-396.04 1001.51 -393.85 1001.83 -390.56 1001.94 C-385.84 1002.63 -381.73 1004.62 -377.44 1006.62 C-375.65 1007.44 -373.85 1008.24 -372.06 1009.05 C-370.78 1009.63 -370.78 1009.63 -369.48 1010.22 C-366.04 1011.74 -362.54 1013.04 -359 1014.31 C-359.33 1013.58 -359.66 1012.84 -359.99 1012.08 C-361.48 1008.74 -362.96 1005.4 -364.44 1002.06 C-364.95 1000.9 -365.47 999.74 -366 998.55 C-366.5 997.44 -366.99 996.32 -367.5 995.17 C-367.95 994.15 -368.41 993.12 -368.88 992.06 C-370.35 988.46 -371.17 985.2 -371.31 981.31 C-371.35 980.65 -371.39 979.99 -371.43 979.31 C-370.79 976.31 -369.36 975.25 -367 973.31 C-364.75 972.03 -362.59 970.89 -360.25 969.81 C-359.27 969.36 -359.27 969.36 -358.27 968.9 C-348.54 964.59 -337.66 961.74 -327 961.31 C-325.94 961.26 -324.88 961.21 -323.79 961.16 C-298 960.5 -270.54 968.33 -250 984.31 C-249.91 983.77 -249.81 983.23 -249.71 982.67 C-237.86 915.1 -222.42 849.52 -201 784.31 C-201.83 784.07 -202.66 783.84 -203.51 783.59 C-207.61 782.09 -211.14 780.11 -214.88 777.88 C-215.61 777.44 -216.35 777 -217.12 776.54 C-232.59 767.23 -247.43 756.65 -260.73 744.4 C-262.85 742.45 -265 740.56 -267.19 738.69 C-273.7 732.98 -279.33 726.88 -284.75 720.12 C-286.15 718.38 -287.56 716.65 -289 714.95 C-315.7 682.96 -327.99 641.84 -324.65 600.54 C-323.99 593.53 -322.95 586.83 -321.25 580 C-319.65 572.88 -320.54 567.38 -322 560.31 C-328.49 524.91 -338.96 466.14 -318.3 433.63 C-315.43 430.14 -312.59 427.12 -308 426.31 C-303.12 426.4 -299.95 427.38 -296.33 430.76 C-291.08 436.9 -289.45 445.2 -287.5 452.81 C-287.2 453.96 -286.9 455.1 -286.59 456.28 C-285.72 459.62 -284.85 462.97 -284 466.31 C-283.77 467.23 -283.53 468.14 -283.29 469.08 C-282.17 473.48 -281.08 477.9 -280 482.31 C-273.37 471.84 -268.17 461.63 -264.24 449.88 C-262.81 445.63 -261.32 441.4 -259.83 437.16 C-259.52 436.27 -259.21 435.39 -258.9 434.48 C-255.36 424.38 -251.51 414.41 -247.62 404.44 C-247.27 403.52 -246.91 402.6 -246.54 401.66 C-244.74 397.02 -242.94 392.39 -241.13 387.76 C-239.06 382.47 -237.01 377.18 -234.96 371.89 C-216.83 325.12 -198.58 278.16 -176 233.31 C-177.38 233.18 -177.38 233.18 -178.79 233.04 C-199.6 230.03 -220.47 220.45 -235 205.31 C-235.69 204.61 -236.38 203.9 -237.09 203.17 C-256.59 182.24 -272.56 155.91 -286.52 131.05 C-289.59 125.6 -292.89 120.47 -296.58 115.42 C-298 113.31 -298 113.31 -299 110.31 C-300.7 109.21 -300.7 109.21 -303 108.31 C-303.93 107.78 -304.86 107.24 -305.81 106.69 C-315.82 102.57 -326.97 105.35 -336.75 108.71 C-341.8 110.36 -344.91 110.45 -350 108.31 C-353.2 104.95 -353.97 103.14 -354.12 98.5 C-350.4 79.55 -324.75 62.54 -310 52.31 C-292 40.33 -272.72 30.49 -251.88 24.56 C-251.18 24.36 -250.49 24.16 -249.78 23.96 C-217.55 15.22 -185.62 20.06 -156.84 36.15 C-135.85 48.36 -116.31 65.99 -103 86.31 C-102.84 85.04 -102.68 83.77 -102.52 82.46 C-99.15 57.04 -90.48 36.67 -70 20.31 C-59.88 13.28 -49.38 8.19 -37.62 4.62 C-36.97 4.42 -36.31 4.22 -35.63 4.01 C-23.92 0.63 -12.12 -0.07 0 0 Z M-69 32.31 C-69.75 32.95 -70.49 33.6 -71.26 34.26 C-83.13 45.18 -91.3 62.56 -92.12 78.73 C-92.21 81.57 -92.23 84.41 -92.25 87.25 C-92.27 88.21 -92.29 89.18 -92.31 90.17 C-92.34 96.02 -91.74 100.12 -89 105.31 C-88.01 105.31 -87.02 105.31 -86 105.31 C-84.32 103.39 -84.32 103.39 -82.75 100.88 C-79.36 95.84 -75.86 91 -72 86.31 C-71.26 85.39 -71.26 85.39 -70.5 84.44 C-63.35 76.4 -52.1 72.27 -42 69.31 C-42.51 70.2 -43.02 71.08 -43.54 72 C-58 97.78 -63.07 125.5 -55.06 154.38 C-46.91 181.54 -28.14 214.07 -4 230.31 C-3.34 230.31 -2.68 230.31 -2 230.31 C-3.39 225.99 -4.83 221.71 -6.46 217.47 C-6.73 216.78 -6.99 216.1 -7.26 215.4 C-7.78 214.04 -8.31 212.69 -8.84 211.34 C-16.7 190.92 -14.41 167.88 -6.62 147.81 C-1.45 136.24 6.19 126.56 18 121.31 C18.66 121.31 19.32 121.31 20 121.31 C19.49 122.75 19.49 122.75 18.98 124.21 C18.53 125.51 18.08 126.82 17.62 128.12 C17.4 128.75 17.18 129.37 16.95 130.01 C8.56 154.58 11.01 183.45 22.16 206.71 C34.83 231.98 57.48 250.88 84 260.31 C108.33 268.21 140.07 270.37 163.71 259.01 C166.15 257.62 166.15 257.62 169 255.31 C169 254.65 169 253.99 169 253.31 C164.81 252.21 160.64 251.21 156.37 250.45 C132.56 246.2 112.78 236.91 98.29 216.74 C84.42 196.32 73.55 173.6 77.47 148.29 C79.38 140.88 83.36 134.86 89.69 130.5 C104.24 122.25 124.2 122.8 140 126.31 C155.5 131.18 170.32 139.66 184 148.31 C184.68 146.5 185.36 144.7 186.03 142.89 C186.72 141.05 187.41 139.22 188.11 137.39 C189.33 134.14 190.54 130.88 191.75 127.62 C192.17 126.51 192.6 125.4 193.04 124.25 C193.63 122.63 193.63 122.63 194.23 120.99 C194.6 120.02 194.96 119.05 195.33 118.05 C196.08 115 195.93 113.28 195 110.31 C161.97 59.34 98.25 26.39 40.53 13.83 C28.37 11.29 16.4 9.84 4 9.31 C3.03 9.26 2.06 9.2 1.05 9.15 C-23.76 8.37 -50.24 15.6 -69 32.31 Z M-248 33.31 C-248.66 33.5 -249.33 33.68 -250.01 33.87 C-280.65 42.45 -315.36 61.58 -335 87.31 C-331.56 86.23 -328.23 85.02 -324.92 83.61 C-311.58 77.98 -298.05 73.8 -284 70.31 C-283.23 70.12 -282.46 69.92 -281.67 69.72 C-248.98 61.73 -214.67 69.21 -186.25 86.37 C-155.13 106.08 -126.41 137.93 -117.62 174.38 C-115.49 187.62 -116.55 200.66 -123.81 212.19 C-128.5 218.6 -133.6 223.42 -140.5 227.37 C-140.99 227.68 -141.49 227.99 -142 228.31 C-142 228.64 -142 228.97 -142 229.31 C-126.04 229.97 -110.06 227.9 -97.69 216.81 C-86.86 205.01 -82.5 187.61 -82.73 171.96 C-85.84 129.27 -107.77 87.67 -139.74 59.8 C-155.8 46.42 -174.6 36.09 -195 31.31 C-195.74 31.14 -196.49 30.96 -197.25 30.78 C-212.85 28.12 -232.92 28.96 -248 33.31 Z M290 34.31 C288.82 34.74 287.63 35.16 286.41 35.6 C267.54 43.08 251.57 55.41 237 69.31 C236.15 70.1 235.29 70.89 234.41 71.71 C208.3 96.58 191 138.82 189.69 174.69 C190.08 191.46 195.48 207.28 207.62 219 C219.42 228.84 234.33 229.7 249 229.31 C248.28 228.74 247.55 228.16 246.8 227.57 C235.52 218.5 226.18 209.23 224 194.31 C221.64 168.11 234.83 144.4 250.95 124.74 C275.38 95.89 307.95 70.73 347 67.31 C378.55 65.4 407.55 72.59 436.17 85.58 C438.09 86.35 439.98 86.86 442 87.31 C434.21 78 425.8 70.44 416 63.31 C415.44 62.91 414.89 62.5 414.31 62.08 C397.18 49.74 378.22 40.32 358 34.31 C357.31 34.09 356.63 33.87 355.92 33.64 C336.26 27.39 309.43 27.34 290 34.31 Z M-328 94.31 C-328 94.64 -328 94.97 -328 95.31 C-326.44 95.26 -326.44 95.26 -324.85 95.21 C-312.52 94.91 -302.81 96.16 -293 104.31 C-287.32 110.49 -283.24 117.76 -279.12 125.01 C-271.04 139.22 -262.3 152.87 -253 166.31 C-252.51 167.02 -252.02 167.74 -251.51 168.47 C-248.74 172.47 -245.9 176.41 -243 180.31 C-242.59 180.88 -242.17 181.44 -241.74 182.02 C-224.11 205.8 -207.05 215.2 -178.78 223.49 C-176.44 224.18 -174.13 224.92 -171.82 225.69 C-162.12 228.5 -155.56 225.93 -147 221.31 C-144.05 219.54 -141.53 217.63 -139 215.31 C-138.3 214.69 -137.61 214.07 -136.89 213.44 C-130.21 207.18 -126.39 200.74 -125.73 191.55 C-124.9 166.16 -137.63 144.74 -154.25 126.31 C-156.15 124.29 -158.07 122.3 -160 120.31 C-160.54 119.74 -161.08 119.18 -161.64 118.59 C-186.34 92.77 -217.13 76.15 -253.53 75.22 C-279.24 75.89 -304.78 83.56 -328 94.31 Z M267.49 118.81 C263.64 122.7 260.31 126.97 257 131.31 C256.26 132.23 255.53 133.16 254.77 134.11 C240.69 152.08 230.99 172.02 233 195.31 C235 204.62 241.01 212.32 248.5 218 C250.31 219.15 252.14 220.25 254 221.31 C255.07 221.95 256.14 222.59 257.24 223.25 C266.78 228.36 274.26 227.18 284.38 224.14 C286.25 223.54 288.13 222.93 290 222.31 C290.98 222 291.96 221.7 292.98 221.38 C338.99 206.84 360 168.79 383.65 128.94 C387.6 122.28 391.64 115.71 396 109.31 C396.48 108.59 396.96 107.87 397.45 107.13 C401.96 101.1 409.21 97.66 416.35 95.65 C420.01 95.18 423.63 95.21 427.31 95.25 C428.05 95.25 428.79 95.26 429.56 95.26 C431.37 95.28 433.19 95.29 435 95.31 C432.06 92.91 429.34 91.51 425.77 90.23 C424.75 89.86 423.73 89.48 422.67 89.1 C421.58 88.72 420.5 88.33 419.38 87.94 C418.26 87.54 417.14 87.14 415.99 86.73 C359.22 66.81 311.01 76.57 267.49 118.81 Z M-64.28 90.54 C-67.3 93.88 -70.02 97.25 -72.41 101.08 C-72.83 101.74 -73.24 102.41 -73.68 103.09 C-74.5 104.42 -75.31 105.77 -76.1 107.12 C-79.29 112.26 -82.2 113.66 -88 115.31 C-87.35 121.32 -85.14 126.71 -83 132.31 C-74.63 129.13 -74.63 129.13 -68 123.31 C-66.64 119.05 -66.6 114.57 -66.36 110.14 C-66.09 105.31 -65.12 100.84 -63.88 96.19 C-63.69 95.49 -63.51 94.8 -63.32 94.09 C-62.89 92.49 -62.45 90.9 -62 89.31 C-63.17 89.2 -63.17 89.2 -64.28 90.54 Z M-342 94.31 C-344.28 97.13 -344.28 97.13 -344 100.31 C-343.01 100.31 -342.02 100.31 -341 100.31 C-341 98.33 -341 96.35 -341 94.31 C-341.33 94.31 -341.66 94.31 -342 94.31 Z M448 94.31 C448 95.96 448 97.61 448 99.31 C448.99 99.64 449.98 99.97 451 100.31 C450.43 97.45 450.14 96.45 448 94.31 Z M89.75 142.75 C84.21 150.86 84.39 160.26 86.06 169.62 C90.25 188.08 99.3 205.31 112 219.31 C112.61 220.03 113.22 220.74 113.85 221.48 C126.37 235.26 145.07 239.98 162.77 242.88 C174.1 244.81 174.1 244.81 177.38 249.12 C178.6 253.42 178.46 256.28 176.62 260.38 C166.95 271.2 147.42 273.68 133.62 274.52 C130.18 274.61 126.75 274.64 123.31 274.62 C122.09 274.62 120.87 274.61 119.61 274.61 C85.91 274.16 55.86 260.89 32.19 236.93 C12.73 216.4 4.12 189.43 3.38 161.62 C3.34 160.43 3.3 159.24 3.26 158.02 C3.16 155.12 3.08 152.21 3 149.31 C-6.21 163.13 -6.32 184.33 -3.28 200.02 C-1.41 207.7 1.23 214.69 4.71 221.77 C6.79 226.13 7.5 229.5 7 234.31 C4.48 237.9 3.02 239.12 -1.31 239.94 C-14.73 237.66 -26.27 222.55 -34 212.31 C-34.8 211.27 -35.6 210.22 -36.43 209.14 C-52.93 187.1 -63.07 162.31 -68 135.31 C-72.08 136.86 -75.42 138.81 -79 141.31 C-78.71 142.94 -78.42 144.56 -78.12 146.19 C-77.96 147.09 -77.8 148 -77.63 148.93 C-77.28 150.79 -76.92 152.65 -76.5 154.5 C-71.86 175.37 -74.51 196.04 -85.19 214.51 C-93.22 226.93 -103.91 232.76 -118 236.31 C-130.56 238.9 -142.5 238.69 -155.13 237.02 C-158.78 236.54 -162.31 236.2 -166 236.31 C-167.48 239.08 -168.96 241.85 -170.44 244.62 C-170.84 245.37 -171.24 246.12 -171.65 246.89 C-180 262.62 -187.12 278.91 -194 295.31 C-194.41 296.28 -194.81 297.25 -195.23 298.24 C-203.73 318.45 -211.86 338.8 -219.8 359.23 C-221.08 362.52 -222.36 365.8 -223.64 369.08 C-233.77 395.1 -243.84 421.12 -253.26 447.4 C-262.08 471.98 -262.08 471.98 -269.46 482.3 C-275.66 491.13 -275.66 491.13 -276.86 501.52 C-275.81 506.05 -274.11 510.26 -272.23 514.51 C-270.93 517.47 -269.8 520.46 -268.68 523.48 C-259.41 548.18 -247.86 570.77 -230 590.31 C-229.51 590.86 -229.01 591.4 -228.5 591.96 C-206.03 616.44 -176.67 627.52 -144.59 633.08 C-130.17 635.59 -118.83 639.66 -109.34 651.36 C-100.99 663.5 -99.6 675.94 -101 690.31 C-102.08 694.75 -103.68 698.39 -106 702.31 C-106.47 703.14 -106.94 703.97 -107.42 704.82 C-113.59 714.87 -123.65 721.57 -134.96 724.89 C-168.76 731.94 -211.95 715.27 -240 697.31 C-277.46 671.76 -299.1 636.82 -313 594.31 C-313.33 594.31 -313.66 594.31 -314 594.31 C-320.86 630.82 -309.36 669.33 -288.81 699.53 C-286.61 702.52 -284.34 705.43 -282 708.31 C-281.2 709.31 -280.41 710.31 -279.59 711.34 C-268.49 725.02 -255.92 737.6 -241.72 748.04 C-239.96 749.34 -238.23 750.67 -236.5 752 C-192.9 785.28 -139.76 804.41 -86.19 813.75 C-85.01 813.96 -85.01 813.96 -83.81 814.17 C-81.58 814.56 -79.34 814.94 -77.11 815.31 C-75.81 815.53 -74.51 815.75 -73.17 815.97 C-69.98 816.54 -69.98 816.54 -67 815.31 C-67.27 814.74 -67.53 814.17 -67.8 813.58 C-78.11 789.93 -71.16 763.83 -62.22 740.85 C-48 705.9 -19.06 672.85 15.35 656.75 C39.34 646.98 65.94 646.93 90 656.31 C105.33 662.79 117.77 672.49 129.62 683.98 C130.8 685.12 132 686.24 133.2 687.36 C157.48 710.45 173.4 742.49 179 775.31 C179.13 776.04 179.26 776.77 179.39 777.52 C181.44 790.91 179.31 803.9 174 816.31 C235.54 809.09 297.9 788.1 347 749.31 C347.83 748.67 348.67 748.03 349.53 747.37 C356.35 742.04 362.73 736.27 369 730.31 C369.8 729.55 369.8 729.55 370.62 728.78 C378.91 720.88 386.25 712.56 393 703.31 C393.42 702.74 393.85 702.16 394.28 701.57 C412.56 676.53 422.23 647.09 422.13 616.17 C422.12 614.12 422.13 612.07 422.14 610.03 C422.14 608.72 422.13 607.42 422.13 606.08 C422.13 604.9 422.13 603.72 422.13 602.51 C422.01 599.65 421.66 597.09 421 594.31 C419.32 596.83 418.51 598.45 417.62 601.24 C402.45 647.48 373.12 684.96 329.34 707.17 C304.26 719.4 267.58 731.56 239.44 724.19 C226.21 719.29 217.08 710.61 210.75 698.19 C205.72 686.07 206.39 673.35 210.62 661.19 C215.23 650.66 223.84 641.87 234.4 637.27 C241.04 634.69 247.53 633.37 254.56 632.38 C292.21 626.51 324.9 609 347.88 577.88 C352.8 571 357.02 563.75 360.96 556.28 C361.95 554.41 362.97 552.55 363.98 550.7 C370.7 538.17 375.38 524.72 380 511.31 C380.62 509.56 380.62 509.56 381.26 507.76 C381.83 506.05 381.83 506.05 382.42 504.29 C382.95 502.75 382.95 502.75 383.49 501.18 C384.37 496.23 381.9 492.96 379.3 488.9 C368.46 471.24 361.93 452.52 355.1 433.04 C351.48 422.76 347.58 412.59 343.62 402.44 C343.27 401.53 342.92 400.63 342.56 399.7 C340.77 395.1 338.98 390.5 337.18 385.9 C335.35 381.2 333.52 376.5 331.7 371.8 C305.41 302.68 305.41 302.68 273 236.31 C271.23 236.46 269.46 236.6 267.69 236.75 C266.59 236.84 265.49 236.93 264.36 237.02 C261.38 237.28 258.41 237.57 255.44 237.88 C235.75 239.62 215.59 236.83 199.81 224.12 C190.16 215.2 183.55 199.32 182 186.31 C182.01 180.35 182.33 174.39 182.78 168.44 C183.14 161.74 183.14 161.74 180.08 156.08 C177.47 154.22 174.85 152.76 172 151.31 C170.4 150.36 168.8 149.4 167.21 148.43 C165.6 147.53 163.99 146.64 162.38 145.75 C161.52 145.28 160.66 144.81 159.78 144.32 C140.44 133.94 107.25 123.79 89.75 142.75 Z M-308 436.31 C-312.54 441.24 -314.09 447.34 -315.25 453.75 C-315.41 454.54 -315.57 455.34 -315.73 456.16 C-317.47 465.05 -318.16 473.79 -318.2 482.85 C-318.21 483.84 -318.22 484.82 -318.22 485.84 C-318.47 515.21 -318.47 515.21 -315 544.31 C-314.8 545.49 -314.59 546.67 -314.38 547.88 C-306.69 592.18 -293.72 634.17 -262 667.31 C-261.27 668.11 -260.54 668.9 -259.79 669.72 C-248.35 681.74 -234.69 690.77 -220 698.31 C-219.39 698.63 -218.78 698.95 -218.15 699.28 C-198.5 709.38 -176.83 714.56 -154.94 716.69 C-154 716.78 -153.06 716.88 -152.09 716.98 C-140.87 717.92 -130.83 715.55 -121.8 708.63 C-114.45 701.9 -109.59 692.74 -108.8 682.77 C-108.59 670.93 -111.91 661.77 -120.07 653.11 C-128.8 644.87 -137.65 642.73 -149.31 640.94 C-174.35 636.72 -197.71 629.07 -218 613.31 C-218.95 612.58 -219.9 611.85 -220.88 611.1 C-266.33 575.07 -281.89 516.59 -294.86 462.66 C-297.39 448.09 -297.39 448.09 -305 436.31 C-305.99 436.31 -306.98 436.31 -308 436.31 Z M410 438.22 C407.4 442.25 406.3 446.21 405.08 450.81 C404.82 451.74 404.57 452.66 404.31 453.62 C402.11 461.71 400.08 469.84 398.07 477.98 C391.57 504.31 384.04 529.89 372 554.31 C371.67 554.98 371.35 555.66 371.01 556.35 C352.81 593.36 323.19 621 284.2 634.68 C274.07 638 263.68 639.74 253.15 641.26 C241.31 643.14 230.36 647.46 223 657.31 C217.09 667.25 214.43 676.38 216.46 687.93 C219.26 698.48 225.76 707.05 235.18 712.6 C254.69 722.58 282.04 714.83 301.87 708.73 C309.85 706.15 317.46 702.97 325 699.31 C325.62 699.02 326.24 698.72 326.88 698.42 C341.52 691.37 354.3 681.53 366 670.31 C366.82 669.55 367.63 668.78 368.48 667.99 C379.39 657.48 387.69 645.51 395 632.31 C395.34 631.7 395.69 631.08 396.04 630.44 C417.42 591.35 425.41 543.28 425.32 499.12 C425.31 495.95 425.34 492.78 425.36 489.61 C426.01 461.34 426.01 461.34 415 436.31 C411.9 435.97 411.9 435.97 410 438.22 Z M-28 702.31 C-49.33 726.64 -65.11 760.02 -64.28 792.84 C-63.55 801.88 -60.94 809.36 -55 816.31 C-48.17 821.98 -41.82 822.58 -33.31 821.79 C-27.86 821.01 -22.78 819.35 -17.56 817.62 C-15.27 816.9 -12.98 816.17 -10.7 815.45 C-9.57 815.08 -8.44 814.72 -7.28 814.35 C38.63 799.79 77.82 802.09 123.27 817.19 C136.17 821.46 146.27 824.54 159 818.31 C165.2 814.59 167.89 808.32 170.31 801.75 C175.68 775.23 163.74 744.5 150 722.31 C144.32 713.77 137.87 705.85 130.88 698.35 C129.32 696.65 127.87 694.94 126.44 693.12 C123.25 689.45 119.75 686.41 116 683.31 C115.51 682.9 115.02 682.48 114.51 682.06 C65.8 641.16 11.91 659.19 -28 702.31 Z M475 785.31 C473.74 786.44 473.74 786.44 472.45 787.58 C459.27 799.97 452.38 815.27 451.75 833.31 C451.97 847.62 456.11 863.12 466.21 873.79 C476.55 882.58 486.61 885.26 500.02 884.51 C513.69 883.16 525.44 874.56 534 864.31 C539.9 855.54 543.6 845.99 542 835.31 C540.4 829.51 538.16 823.92 536 818.31 C535.22 816.23 534.45 814.15 533.69 812.06 C533.23 810.85 533.23 810.85 532.76 809.61 C530.83 803.78 530.75 798.08 530.69 792 C530.64 790.63 530.64 790.63 530.6 789.24 C530.53 781.93 532.07 776.81 536.79 771.18 C541.8 766.94 547.01 763.98 553 761.31 C552.5 760.32 552.5 760.32 552 759.31 C523.57 758.25 496.56 766.07 475 785.31 Z M-192 790.31 C-195.78 799.14 -198.68 808.23 -201.56 817.38 C-201.95 818.61 -201.95 818.61 -202.35 819.86 C-218.17 870.17 -229.98 921.84 -238.5 973.88 C-238.66 974.84 -238.82 975.81 -238.99 976.81 C-239.38 979.31 -239.7 981.8 -240 984.31 C-240.12 985.02 -240.23 985.73 -240.35 986.45 C-240.67 989.53 -240.41 991.73 -238.62 994.27 C-236.67 996.36 -234.63 998.28 -232.5 1000.19 C-231.03 1001.58 -229.56 1002.97 -228.09 1004.37 C-227.38 1005.04 -226.67 1005.71 -225.94 1006.4 C-222.71 1009.58 -220 1013.06 -217.29 1016.69 C-216.65 1017.49 -216.65 1017.49 -216 1018.31 C-215.67 1018.31 -215.34 1018.31 -215 1018.31 C-214.67 997.19 -214.34 976.07 -214 954.31 C-212.02 954.31 -210.04 954.31 -208 954.31 C-203.78 958.53 -205.87 972.13 -205.86 978.07 C-205.86 979.74 -205.86 981.42 -205.86 983.1 C-205.86 984.89 -205.85 986.68 -205.85 988.47 C-205.84 992.31 -205.83 996.15 -205.83 999.99 C-205.83 1006.07 -205.81 1012.15 -205.79 1018.24 C-205.78 1020.33 -205.78 1022.41 -205.77 1024.5 C-205.77 1025.55 -205.76 1026.59 -205.76 1027.67 C-205.72 1041.82 -205.69 1055.97 -205.67 1070.12 C-205.67 1079.68 -205.64 1089.24 -205.6 1098.81 C-205.59 1103.86 -205.57 1108.91 -205.58 1113.96 C-205.58 1118.71 -205.57 1123.47 -205.54 1128.22 C-205.53 1129.95 -205.53 1131.69 -205.54 1133.42 C-205.61 1152.37 -201.84 1169.73 -188.61 1184.14 C-182.08 1190.71 -172.06 1196.4 -162.7 1196.47 C-161.82 1196.48 -160.94 1196.48 -160.03 1196.49 C-159.07 1196.5 -158.11 1196.5 -157.12 1196.51 C-156.1 1196.51 -155.09 1196.52 -154.04 1196.53 C-150.68 1196.56 -147.31 1196.57 -143.94 1196.59 C-142.79 1196.59 -141.64 1196.6 -140.45 1196.6 C-134.35 1196.63 -128.25 1196.65 -122.14 1196.66 C-117.11 1196.68 -112.07 1196.7 -107.03 1196.74 C-100.94 1196.79 -94.85 1196.82 -88.75 1196.83 C-86.44 1196.83 -84.12 1196.85 -81.81 1196.87 C-65 1197.04 -52.92 1196.14 -40 1184.31 C-39.47 1183.84 -38.94 1183.36 -38.39 1182.87 C-34.66 1179.03 -32.26 1174.4 -29.81 1169.69 C-29.48 1169.06 -29.15 1168.43 -28.8 1167.79 C-23.45 1157.02 -22.55 1145.61 -22.52 1133.77 C-22.51 1132.43 -22.49 1131.08 -22.48 1129.74 C-22.43 1126.24 -22.41 1122.75 -22.39 1119.26 C-22.35 1113.63 -22.29 1108.01 -22.23 1102.38 C-22.21 1100.42 -22.2 1098.46 -22.19 1096.51 C-22.18 1095.33 -22.17 1094.15 -22.16 1092.93 C-22.15 1091.89 -22.14 1090.85 -22.14 1089.78 C-22 1087.31 -22 1087.31 -21 1085.31 C-18.69 1085.31 -16.38 1085.31 -14 1085.31 C-13.67 1111.38 -13.34 1137.45 -13 1164.31 C31.88 1164.31 76.76 1164.31 123 1164.31 C123.29 1139.06 123.29 1139.06 123.57 1113.81 C123.63 1108.93 123.63 1108.93 123.66 1106.65 C123.68 1105.05 123.69 1103.46 123.71 1101.86 C123.73 1099.44 123.76 1097.02 123.79 1094.61 C123.8 1093.54 123.8 1093.54 123.81 1092.44 C123.89 1087.54 123.89 1087.54 125 1085.31 C127.31 1085.31 129.62 1085.31 132 1085.31 C132 1086.08 132.01 1086.85 132.01 1087.64 C132.05 1094.95 132.11 1102.26 132.18 1109.57 C132.22 1113.33 132.26 1117.08 132.27 1120.84 C132.29 1124.47 132.32 1128.11 132.37 1131.75 C132.38 1133.12 132.39 1134.5 132.39 1135.87 C132.42 1154.56 137.5 1171.4 150.68 1185.16 C159.82 1193.65 169.14 1196.78 181.49 1196.72 C182.49 1196.72 183.5 1196.73 184.54 1196.74 C187.85 1196.76 191.15 1196.75 194.46 1196.75 C196.78 1196.75 199.09 1196.76 201.41 1196.76 C206.25 1196.77 211.09 1196.77 215.94 1196.76 C222.12 1196.75 228.31 1196.77 234.49 1196.8 C239.27 1196.81 244.05 1196.81 248.83 1196.81 C251.11 1196.81 253.39 1196.81 255.67 1196.83 C258.86 1196.84 262.06 1196.83 265.26 1196.81 C266.18 1196.82 267.11 1196.83 268.07 1196.84 C280.56 1196.7 291.39 1191.29 300.06 1182.44 C303.44 1178.43 305.93 1174.15 308.31 1169.5 C308.64 1168.87 308.96 1168.25 309.3 1167.6 C314.25 1157.41 315.44 1147.06 315.42 1135.85 C315.43 1134.56 315.43 1133.26 315.44 1131.93 C315.47 1128.41 315.47 1124.89 315.47 1121.37 C315.48 1117.62 315.5 1113.86 315.52 1110.11 C315.56 1102.95 315.59 1095.8 315.6 1088.65 C315.64 1075.27 315.7 1061.9 315.77 1048.53 C315.78 1045.45 315.8 1042.38 315.81 1039.31 C315.93 1011.3 316.35 983.31 317 955.31 C321.75 954.31 321.75 954.31 324 954.31 C324.33 974.44 324.66 994.57 325 1015.31 C326.65 1013.66 328.3 1012.01 330 1010.31 C331.51 1009.2 333.05 1008.11 334.6 1007.05 C340.12 1002.86 344.94 998.63 348 992.31 C349.3 982.87 346.38 973.2 344.13 964.07 C342.92 959.13 341.98 954.15 341.06 949.15 C337.25 928.42 332.93 907.8 328 887.31 C327.84 886.65 327.68 885.99 327.52 885.32 C323.01 866.62 317.88 848.15 312.31 829.75 C312.04 828.86 311.77 827.97 311.49 827.05 C309.95 821.96 308.38 816.88 306.78 811.8 C306.25 810.1 305.72 808.4 305.19 806.69 C304.4 804.16 303.6 801.63 302.79 799.1 C302.56 798.33 302.32 797.55 302.08 796.76 C301.48 794.91 300.75 793.11 300 791.31 C296.19 790.04 295.31 790.8 291.73 792.45 C290.68 792.92 289.62 793.4 288.53 793.89 C287.43 794.4 286.33 794.91 285.19 795.44 C276.25 799.54 267.3 803.14 258 806.31 C258.02 807.49 258.03 808.68 258.05 809.89 C258.59 854.91 258.59 854.91 255 872.31 C254.83 873.15 254.66 873.99 254.48 874.85 C246.28 913.39 227.86 948.54 200.43 976.83 C199.07 978.24 197.73 979.67 196.4 981.11 C163.89 1015.14 113.94 1037.43 66.96 1038.58 C62.74 1038.64 58.53 1038.64 54.31 1038.62 C52.99 1038.62 52.99 1038.62 51.63 1038.62 C38.86 1038.58 26.49 1038.18 14 1035.31 C12.81 1035.06 12.81 1035.06 11.59 1034.79 C-24.7 1026.89 -56.36 1010.38 -83.75 985.34 C-85.53 983.74 -87.32 982.23 -89.19 980.75 C-92.86 977.57 -95.87 974.02 -99 970.31 C-99.74 969.47 -100.48 968.63 -101.25 967.76 C-108.68 959.17 -114.95 949.92 -121 940.31 C-121.41 939.66 -121.82 939.01 -122.25 938.35 C-133.61 920.13 -141.13 899.16 -146 878.31 C-146.31 877.03 -146.31 877.03 -146.63 875.72 C-151.84 853.36 -150.38 830.09 -150 807.31 C-150.82 806.98 -151.64 806.64 -152.49 806.29 C-155.59 805.02 -158.69 803.74 -161.79 802.46 C-163.12 801.91 -164.45 801.36 -165.78 800.82 C-173.24 797.75 -180.64 794.63 -187.93 791.18 C-189.93 790.18 -189.93 790.18 -192 790.31 Z M-141 810.31 C-147 861.62 -132.03 913.62 -100.62 954.41 C-95.64 960.58 -90.4 966.51 -85 972.31 C-84.32 973.05 -83.63 973.79 -82.93 974.55 C-49.69 1009.13 -0.34 1029.1 47.23 1030.52 C89.89 1031.14 132.35 1019.89 167 994.31 C167.53 993.92 168.06 993.53 168.61 993.13 C193.91 974.32 213.45 951.26 228 923.31 C228.35 922.65 228.69 921.98 229.05 921.29 C246.53 887.17 251.9 849.23 249 811.31 C244.68 809.87 241.38 811.56 237.19 812.88 C216.24 819.13 194.62 822.61 173 825.58 C166.71 826.47 160.97 827.53 155.01 829.72 C151.44 830.77 147.94 830.54 144.25 830.38 C136.96 830.21 129.82 830.53 122.56 831.25 C121.67 831.34 120.78 831.42 119.85 831.51 C115.51 831.92 115.51 831.92 111.25 832.8 C100.06 835.36 87.65 834.46 76.22 834.45 C74.44 834.45 72.66 834.45 70.88 834.45 C67.16 834.45 63.45 834.45 59.73 834.44 C55.02 834.44 50.3 834.44 45.58 834.45 C41.91 834.45 38.23 834.45 34.56 834.45 C32.82 834.45 31.08 834.45 29.34 834.45 C16.67 834.46 4.04 834.37 -8.5 832.31 C-16.94 830.93 -25.46 830.16 -34.02 830.39 C-35.03 830.42 -35.03 830.42 -36.07 830.44 C-37.93 830.5 -39.8 830.58 -41.66 830.67 C-45.49 830.57 -48.83 829.56 -52.48 828.45 C-59.62 826.3 -66.69 825.17 -74.04 824.22 C-95.01 821.48 -115.52 817.14 -135.82 811.2 C-138.77 810.22 -138.77 810.22 -141 810.31 Z M-4 822.31 C1.58 826.03 7.95 825.46 14.44 825.46 C15.84 825.46 15.84 825.46 17.27 825.47 C20.34 825.48 23.41 825.48 26.49 825.48 C28.63 825.48 30.78 825.49 32.92 825.49 C37.42 825.5 41.91 825.5 46.4 825.5 C52.14 825.5 57.89 825.51 63.63 825.53 C68.06 825.54 72.49 825.54 76.92 825.54 C79.03 825.54 81.15 825.55 83.27 825.55 C86.24 825.56 89.2 825.56 92.17 825.56 C93.03 825.56 93.9 825.57 94.79 825.57 C100.43 825.54 105.55 824.75 111 823.31 C108.21 821.46 106.47 820.75 103.31 819.91 C102.37 819.66 101.44 819.41 100.48 819.15 C64.03 809.8 32 811.17 -4 822.31 Z M472 890.31 C471.55 891.16 471.1 892.01 470.64 892.88 C452.49 926.31 422.79 944.88 386.82 955.66 C375.68 958.84 364.38 961.18 353 963.31 C353.33 966.28 353.66 969.25 354 972.31 C357.88 973.32 360.65 973.22 364.55 972.38 C366.17 972.03 366.17 972.03 367.82 971.67 C368.97 971.41 370.13 971.15 371.31 970.88 C372.51 970.6 373.71 970.33 374.94 970.05 C415.03 960.63 451.87 942.65 475 907.31 C479.81 900.2 479.81 900.2 482 892.31 C478.38 891 475.9 890.31 472 890.31 Z M-359 980.31 C-359.66 980.64 -360.32 980.97 -361 981.31 C-360.5 987.83 -358.16 993.13 -355.5 999.06 C-354.68 1000.93 -353.85 1002.8 -353.03 1004.67 C-352.48 1005.9 -352.48 1005.9 -351.92 1007.16 C-350.58 1010.29 -349.83 1012.92 -349.75 1016.31 C-349.72 1016.99 -349.7 1017.67 -349.67 1018.38 C-350.11 1020.94 -350.94 1021.77 -353 1023.31 C-362.87 1024.79 -371.67 1019.7 -380.46 1015.77 C-381.5 1015.31 -382.55 1014.85 -383.62 1014.38 C-384.55 1013.95 -385.47 1013.53 -386.41 1013.1 C-389.55 1012.14 -390.98 1011.98 -394 1013.31 C-395.48 1015.61 -396.52 1017.58 -397.56 1020.06 C-397.86 1020.74 -398.16 1021.41 -398.46 1022.11 C-404.98 1037.24 -407.42 1051.92 -407.38 1068.31 C-407.37 1069.04 -407.37 1069.77 -407.37 1070.52 C-407.33 1082.21 -406.4 1093.09 -403 1104.31 C-402.68 1105.43 -402.68 1105.43 -402.35 1106.58 C-396.15 1127.96 -385.46 1148.21 -370 1164.31 C-368.91 1165.62 -367.83 1166.93 -366.75 1168.25 C-347.88 1189.77 -318.47 1204.88 -290 1207.31 C-265.19 1208.55 -242.85 1201.7 -224 1185.31 C-223.21 1184.69 -222.42 1184.07 -221.61 1183.42 C-216.85 1179.32 -214.44 1176.33 -213.85 1169.97 C-213.79 1167.5 -213.79 1165.04 -213.82 1162.57 C-213.81 1161.2 -213.79 1159.83 -213.77 1158.47 C-213.72 1154.77 -213.73 1151.08 -213.76 1147.39 C-213.77 1144.29 -213.76 1141.2 -213.75 1138.1 C-213.71 1130.79 -213.73 1123.47 -213.77 1116.16 C-213.82 1108.65 -213.79 1101.14 -213.73 1093.63 C-213.68 1087.15 -213.67 1080.67 -213.69 1074.2 C-213.71 1070.34 -213.7 1066.49 -213.67 1062.63 C-212.92 1041.72 -212.92 1041.72 -222.33 1023.86 C-223.21 1023.02 -224.09 1022.18 -225 1021.31 C-225.97 1020.24 -226.93 1019.16 -227.87 1018.07 C-230.5 1015.05 -233.22 1012.19 -236 1009.31 C-236.85 1008.39 -237.7 1007.46 -238.58 1006.51 C-257.34 986.68 -286 972.14 -313.51 970.98 C-329.95 970.71 -344.25 972.58 -359 980.31 Z M335.56 1017.5 C334 1019.4 332.48 1021.34 331 1023.31 C330.5 1023.91 330 1024.51 329.49 1025.13 C324.46 1031.68 324.17 1037.13 324.3 1045.21 C324.3 1046.48 324.3 1047.74 324.3 1049.05 C324.29 1052.49 324.32 1055.94 324.36 1059.39 C324.39 1063.01 324.39 1066.64 324.4 1070.27 C324.41 1076.37 324.44 1082.47 324.49 1088.56 C324.56 1097.12 324.59 1105.67 324.61 1114.22 C324.63 1120.91 324.66 1127.6 324.69 1134.29 C324.69 1135 324.7 1135.7 324.7 1136.43 C324.74 1145.73 324.83 1155.02 325 1164.31 C325.01 1165.19 325.03 1166.06 325.04 1166.96 C325.09 1169.09 325.16 1171.22 325.26 1173.35 C325.3 1174.41 325.34 1175.47 325.38 1176.56 C326.71 1182.48 331.33 1185.85 336 1189.31 C336.53 1189.71 337.06 1190.1 337.6 1190.51 C357.04 1204.71 379.87 1209.83 403.69 1206.49 C429.4 1202.44 451.24 1190.08 470 1172.31 C470.95 1171.44 471.89 1170.57 472.87 1169.67 C492.9 1150.85 504.52 1126.4 512 1100.31 C512.21 1099.61 512.42 1098.91 512.63 1098.19 C518.09 1078.98 516.95 1054.21 511 1035.31 C510.69 1034.29 510.38 1033.27 510.05 1032.21 C506.45 1020.19 506.45 1020.19 499 1011.31 C496.3 1012.2 496.3 1012.2 493.22 1013.59 C492.07 1014.08 490.92 1014.58 489.73 1015.09 C488.51 1015.62 487.28 1016.15 486.06 1016.69 C483.68 1017.72 481.29 1018.75 478.91 1019.77 C477.85 1020.24 476.79 1020.7 475.7 1021.17 C471.92 1022.77 469.02 1023.47 464.94 1023.5 C464.06 1023.51 463.18 1023.53 462.28 1023.54 C460 1023.31 460 1023.31 458 1021.31 C456.46 1013.14 459.61 1006.35 462.94 999.06 C463.87 996.98 464.79 994.89 465.71 992.8 C466.13 991.89 466.54 990.98 466.97 990.04 C468.07 987.13 468.59 984.39 469 981.31 C421.96 956.77 367.78 979.05 335.56 1017.5 Z M358 982.31 C357.01 982.81 357.01 982.81 356 983.31 C356 983.97 356 984.63 356 985.31 C357.65 984.65 359.3 983.99 361 983.31 C360.01 982.98 359.02 982.65 358 982.31 Z M-24 1177.31 C-24.97 1178.68 -25.9 1180.09 -26.81 1181.5 C-30.62 1187.4 -34.26 1191.82 -40.06 1195.88 C-41.63 1196.99 -41.63 1196.99 -43.22 1198.13 C-51.47 1203.25 -59.77 1204.91 -69.36 1204.83 C-70.97 1204.84 -70.97 1204.84 -72.62 1204.85 C-76.14 1204.87 -79.66 1204.86 -83.19 1204.84 C-85.66 1204.85 -88.13 1204.85 -90.59 1204.86 C-95.76 1204.86 -100.92 1204.85 -106.08 1204.83 C-112.67 1204.81 -119.26 1204.82 -125.86 1204.85 C-130.95 1204.86 -136.05 1204.86 -141.14 1204.85 C-143.57 1204.85 -146 1204.85 -148.43 1204.86 C-151.84 1204.87 -155.24 1204.85 -158.64 1204.83 C-160.13 1204.84 -160.13 1204.84 -161.65 1204.85 C-172.62 1204.72 -181.31 1200.81 -190 1194.31 C-191.01 1193.59 -192.02 1192.87 -193.06 1192.12 C-196.87 1188.89 -199.54 1184.62 -202.36 1180.54 C-203.17 1179.44 -203.17 1179.44 -204 1178.31 C-204.33 1178.31 -204.66 1178.31 -205 1178.31 C-205.13 1184.71 -205.22 1191.11 -205.27 1197.51 C-205.3 1199.68 -205.33 1201.85 -205.38 1204.02 C-205.78 1224.77 -203.08 1243.41 -188.28 1259.24 C-180.17 1266.63 -171.81 1270.47 -160.88 1270.94 C-160.13 1270.97 -159.39 1271.01 -158.62 1271.04 C-157.12 1271.11 -155.62 1271.17 -154.12 1271.22 C-152.21 1271.3 -150.3 1271.42 -148.4 1271.55 C-147.36 1271.59 -146.32 1271.64 -145.25 1271.69 C-143.9 1271.76 -143.9 1271.76 -142.52 1271.84 C-138.83 1271.07 -137.45 1269.12 -135 1266.31 C-134.35 1265.58 -134.35 1265.58 -133.69 1264.83 C-132.31 1263.26 -130.97 1261.66 -129.62 1260.06 C-128.91 1259.22 -128.91 1259.22 -128.17 1258.35 C-124.77 1254.32 -121.61 1250.17 -118.63 1245.82 C-117 1244.31 -117 1244.31 -114.5 1243.92 C-106.93 1245.11 -101.01 1256.23 -96.55 1262.01 C-96.12 1262.57 -95.69 1263.13 -95.24 1263.7 C-94.09 1265.2 -92.94 1266.69 -91.79 1268.18 C-90.18 1270.39 -90.18 1270.39 -88 1271.31 C-71.07 1272.55 -54.87 1271.88 -41.31 1260.69 C-31.12 1251.07 -23.8 1235.85 -22.83 1221.79 C-22.77 1218.94 -22.77 1216.1 -22.8 1213.25 C-22.81 1212.22 -22.81 1211.19 -22.81 1210.12 C-22.82 1206.85 -22.85 1203.58 -22.88 1200.31 C-22.89 1198.08 -22.89 1195.86 -22.9 1193.63 C-22.92 1188.19 -22.96 1182.75 -23 1177.31 C-23.33 1177.31 -23.66 1177.31 -24 1177.31 Z M315 1177.31 C313.84 1178.83 312.69 1180.35 311.56 1181.89 C303.49 1192.73 293.57 1201.39 280 1204.31 C278.45 1204.41 276.9 1204.46 275.35 1204.47 C274.43 1204.48 273.5 1204.48 272.54 1204.49 C271.02 1204.5 271.02 1204.5 269.47 1204.51 C268.4 1204.51 267.33 1204.52 266.22 1204.53 C262.67 1204.55 259.12 1204.57 255.57 1204.59 C254.35 1204.59 253.13 1204.6 251.88 1204.6 C245.44 1204.63 239 1204.65 232.56 1204.66 C227.24 1204.68 221.93 1204.7 216.61 1204.74 C210.18 1204.79 203.75 1204.82 197.32 1204.83 C194.88 1204.83 192.44 1204.85 189.99 1204.87 C171.87 1205.04 158.1 1203.99 144 1191.31 C141.75 1188.79 139.67 1186.23 137.66 1183.51 C136.21 1181.59 134.72 1179.99 133 1178.31 C131.31 1221.94 131.31 1221.94 150.79 1259.41 C160.73 1267.96 169.77 1270.8 182.72 1271.07 C184.07 1271.11 185.41 1271.17 186.76 1271.25 C192.93 1271.64 197.96 1271.87 203.01 1268.01 C205.56 1265.23 207.8 1262.38 210 1259.31 C210.94 1258.19 211.88 1257.07 212.84 1255.97 C213.53 1255.12 214.22 1254.26 214.94 1253.38 C215.65 1252.5 216.36 1251.62 217.09 1250.72 C219.02 1248.4 219.02 1248.4 220.38 1246 C222 1244.31 222 1244.31 224.93 1243.77 C228.93 1244.48 229.74 1245.7 232.12 1248.94 C233.26 1250.42 233.26 1250.42 234.42 1251.94 C234.83 1252.48 235.23 1253.02 235.65 1253.58 C238.13 1256.77 240.79 1259.82 243.44 1262.88 C243.96 1263.48 244.48 1264.09 245.01 1264.72 C248.58 1269.53 248.58 1269.53 253.73 1271.54 C257.49 1271.5 261.24 1271.43 265 1271.31 C266.29 1271.28 267.58 1271.25 268.91 1271.22 C281.82 1270.68 290.67 1267.42 300 1258.31 C315.31 1240.62 316.46 1221.8 316.19 1199.5 C316.17 1197.34 316.16 1195.19 316.15 1193.03 C316.11 1187.79 316.06 1182.55 316 1177.31 C315.67 1177.31 315.34 1177.31 315 1177.31 Z " fill="#000202" transform="translate(417,-0.3125)"/>
<path d="M0 0 C0.99 0.55 1.98 1.1 3 1.67 C13.99 8.22 24.79 17.66 31 29 C32.32 34.45 32.32 34.45 30.88 36.94 C29 38 29 38 26.63 37.89 C23.05 36.68 22.07 34.88 20 31.75 C17.24 27.76 14.62 24.26 11 21 C10.5 20.49 10 19.99 9.48 19.47 C-14.47 -3.49 -56.25 -11.94 -88.34 -12.24 C-89.64 -12.25 -89.64 -12.25 -90.97 -12.27 C-131.79 -12.63 -179.12 -8.83 -211 20 C-211.71 20.64 -212.41 21.27 -213.14 21.93 C-218.22 26.76 -222.16 32.15 -226 38 C-230.75 37.25 -230.75 37.25 -233 35 C-232.53 26.24 -225.31 18.62 -219.14 12.8 C-162.68 -34.71 -62.53 -35.32 0 0 Z " fill="#000202" transform="translate(571,585)"/>
<path d="M0 0 C6.62 4.59 12.29 9.92 14 18 C15.05 27.3 14.72 35.33 9 43 C3.07 49.95 -4.56 53.33 -13.56 54.44 C-22.29 53.33 -30.01 50.9 -35.69 43.92 C-40.7 36.82 -43.12 29.7 -42 21 C-39.78 12.37 -36.63 6.26 -29.12 1.25 C-19.84 -4.16 -9.69 -4.6 0 0 Z " fill="#000202" transform="translate(344,363)"/>
<path d="M0 0 C7.87 5.79 11.83 12.72 13.37 22.31 C13.79 29.48 11.55 36.62 7.23 42.34 C0.75 49.2 -5.73 52.55 -15.19 53.1 C-23.01 52.82 -30 49.94 -35.59 44.43 C-42.41 36.98 -43.65 30.76 -43.4 20.73 C-42.45 11.93 -38.13 6.15 -31.39 0.63 C-21.58 -6.06 -10.26 -5.46 0 0 Z " fill="#000202" transform="translate(626,364)"/>
<path d="M0 0 C0.84 0.16 1.67 0.31 2.53 0.47 C23.6 4.53 43.28 11.18 60 25 C61.23 25.93 61.23 25.93 62.49 26.88 C65.2 29.17 67.2 31.53 69.31 34.38 C70.36 35.75 70.36 35.75 71.43 37.15 C73.24 40.43 73.47 42.31 73 46 C72.01 46.99 72.01 46.99 71 48 C68.08 47.91 68.08 47.91 65 47 C63.2 45 63.2 45 61.69 42.44 C48.77 22.7 23.93 15.62 2 11 C-35.98 4.09 -80.93 7.2 -113.95 28.94 C-119.23 32.95 -123.33 37.51 -127.31 42.8 C-128.79 44.72 -130.13 46.46 -132 48 C-136.42 47.58 -136.42 47.58 -138 46 C-137.87 39.42 -135.26 35.85 -131 31 C-130.36 30.27 -129.72 29.53 -129.06 28.77 C-99.41 -3.01 -40.32 -7.67 0 0 Z " fill="#000202" transform="translate(503,468)"/>
<path d="M0 0 C8.95 6.36 13.83 15.34 15.81 26 C17.22 40.01 15.8 53.53 7.32 65.2 C4.01 69.15 -0.07 72.5 -5.27 73.34 C-11.94 73.46 -16.72 71.94 -21.84 67.6 C-31.36 57.67 -32.58 44.52 -32.4 31.53 C-32.08 21.79 -29.05 12.06 -22.19 4.92 C-15.48 -1.14 -8.82 -2.77 0 0 Z M-15.19 11 C-23.25 21.28 -23.27 33.49 -22.19 46 C-20.77 52.49 -17.79 57.28 -13.19 62 C-10.28 63.45 -8.41 63.37 -5.19 63 C0.49 59.37 3.48 54.61 5.35 48.15 C7.59 37.82 7.19 24.2 1.81 15 C-0.72 11.97 -2.92 10.18 -6.19 8 C-10.65 8 -11.74 8.31 -15.19 11 Z " fill="#000202" transform="translate(523.1875,704)"/>
<path d="M0 0 C8.93 6.35 13.86 15.35 15.81 26 C16.1 29.11 16.15 32.19 16.12 35.31 C16.12 36.57 16.12 36.57 16.11 37.84 C15.89 49.06 13.09 59.25 5.27 67.66 C0.57 71.8 -3.79 73.51 -10.07 73.31 C-16.25 72.41 -20.99 69.01 -24.8 64.2 C-32.64 51.76 -34.29 36.65 -31.47 22.37 C-28.56 13.2 -24.24 5.52 -16.19 0 C-10.86 -1.78 -5.35 -1.68 0 0 Z M-15.19 11 C-23.25 21.28 -23.27 33.49 -22.19 46 C-20.77 52.49 -17.79 57.28 -13.19 62 C-9.89 63.65 -7.84 63.54 -4.19 63 C2.52 57.84 4.96 51.08 6.31 43.03 C7.54 32.54 6.42 21.3 0.14 12.49 C-1.76 10.36 -3.55 9.08 -6.19 8 C-10.65 8 -11.74 8.31 -15.19 11 Z " fill="#000202" transform="translate(434.1875,704)"/>
</svg>
