<?xml version="1.0" encoding="UTF-8"?>
<!-- Generator: visioncortex VTracer 0.6.3 -->
<svg version="1.1" xmlns="http://www.w3.org/2000/svg" width="1280" height="1280">
<path d="M0 0 C5.97 0.01 11.94 0 17.91 -0 C22.59 -0.01 27.28 -0.01 31.96 -0 C34.16 -0 36.36 -0 38.55 -0.01 C45.7 -0.01 52.83 0.03 59.97 0.13 C61.1 0.14 62.22 0.16 63.37 0.17 C66.8 0.22 70.22 0.3 73.64 0.39 C74.69 0.4 75.73 0.42 76.81 0.43 C82.81 0.62 86.4 1.14 90.97 5.13 C94.26 9.33 95.29 13.85 94.77 19.19 C94.38 21.53 93.91 23.85 93.41 26.18 C93.23 27.07 93.04 27.97 92.86 28.89 C92.24 31.89 91.61 34.89 90.97 37.88 C90.53 40 90.09 42.12 89.65 44.24 C85.58 63.72 81.25 83.15 76.91 102.57 C76.66 103.7 76.66 103.7 76.4 104.86 C75.42 109.23 74.44 113.6 73.46 117.97 C73.15 119.32 72.85 120.66 72.55 122 C72.14 123.85 71.72 125.69 71.3 127.53 C71.07 128.57 70.84 129.61 70.6 130.68 C69.97 133.13 69.97 133.13 68.97 135.13 C69.7 135.23 70.42 135.34 71.17 135.44 C78.73 136.61 85.92 138.35 93.22 140.63 C94.34 140.98 95.45 141.32 96.6 141.68 C111.22 146.34 125.44 152.09 138.97 159.32 C143.92 161.89 143.92 161.89 149.35 162.44 C157.1 159.64 162.94 153.46 168.79 147.82 C174.97 141.95 181.23 136.34 187.97 131.13 C188.56 130.68 189.15 130.22 189.75 129.75 C194.44 126.14 199.19 122.61 203.97 119.13 C204.56 118.7 205.15 118.27 205.75 117.83 C214 111.87 222.72 106.98 231.72 102.26 C232.76 101.71 233.81 101.16 234.88 100.6 C249.14 93.26 265.03 87.38 281.33 90.6 C290.65 93.64 295.64 100.72 299.97 109.13 C300.55 110.24 300.55 110.24 301.13 111.36 C316.74 145.66 305.33 194.41 292.8 227.98 C286.59 244.02 278.95 259.38 268.5 273.09 C265.65 276.9 265.4 279.87 265.43 284.57 C266.25 289.94 268.44 294.53 270.63 299.47 C296.58 357.99 297.96 430.04 274.98 489.71 C273.66 492.93 272.3 496.13 270.9 499.31 C268.52 504.71 266.46 510.16 264.6 515.76 C264.36 516.47 264.12 517.18 263.88 517.91 C261.24 525.99 259.69 533.61 259.7 542.13 C259.68 543.84 259.66 545.55 259.64 547.26 C259.61 549.9 259.6 552.54 259.59 555.18 C259.53 570.58 258.36 586.16 251.22 600.13 C250.88 600.83 250.53 601.53 250.18 602.25 C247.15 608.19 243.49 613.22 238.97 618.13 C238.04 619.16 237.1 620.19 236.16 621.22 C234.29 623.29 232.39 625.33 230.49 627.37 C228.2 629.88 226.06 632.45 223.97 635.13 C244.99 633.82 265.35 630.1 285.95 625.91 C289.9 625.11 293.84 624.31 297.79 623.51 C299.26 623.21 299.26 623.21 300.76 622.9 C314.78 620.07 328.71 617.47 342.97 616.13 C344.19 616 345.41 615.88 346.67 615.74 C378.59 612.89 411.79 616.1 441.97 627.13 C442.64 627.37 443.31 627.62 444 627.87 C459.47 633.63 474.6 641.07 486.97 652.13 C487.79 652.83 488.6 653.52 489.44 654.24 C521.78 682.39 538.96 724.89 541.97 767.13 C547.06 765.58 552.14 764.02 557.22 762.44 C558.94 761.91 560.66 761.38 562.38 760.86 C589.72 753.65 589.72 753.65 611.97 738.13 C611.72 735.31 611.72 735.31 610.97 732.13 C609.63 715.76 609.63 715.76 615.17 709 C616.06 708.07 616.06 708.07 616.97 707.13 C617.77 706.27 617.77 706.27 618.59 705.39 C622.33 701.78 626.51 699.15 630.94 696.49 C640.26 690.89 646.53 686.1 649.46 675.19 C650.24 670.52 650.47 665.83 650.6 661.11 C650.76 656.06 651.12 652.04 654.72 648.32 C657.93 646.62 659.36 646.45 662.97 647.13 C677.75 656.08 690.68 672.59 695.35 689.26 C698.26 705.93 695.43 721.97 685.97 736.13 C678.02 746.49 667.22 755.11 653.97 757.13 C650.87 757.38 647.77 757.54 644.66 757.69 C643.41 757.76 643.41 757.76 642.13 757.82 C640.08 757.93 638.02 758.03 635.97 758.13 C635.73 758.68 635.48 759.24 635.23 759.81 C619.64 788.7 581.61 808.04 551.97 818.44 C545.66 820.69 540.19 822.88 536.95 829.08 C534.96 833.7 533.1 838.36 531.34 843.07 C523.64 863.31 512.42 880.33 497.54 895.94 C487.55 906.45 486.6 916.44 486.89 930.5 C487.18 940.08 487.82 949.66 488.41 959.23 C488.54 961.34 488.66 963.45 488.79 965.57 C490.05 986.74 491.4 1007.91 492.76 1029.08 C492.84 1030.29 492.92 1031.5 493 1032.74 C493.78 1044.94 494.57 1057.14 495.37 1069.34 C495.67 1073.97 495.97 1078.6 496.27 1083.23 C496.41 1085.38 496.55 1087.54 496.69 1089.69 C499.18 1127.44 499.18 1127.44 499.1 1143.44 C499.1 1144.27 499.11 1145.1 499.11 1145.95 C499.09 1160.34 499.09 1160.34 496.22 1164.94 C488.33 1170.26 478.49 1171.54 469.29 1173.26 C468.44 1173.41 467.59 1173.57 466.72 1173.74 C451.63 1176.4 436.65 1177.52 421.35 1177.44 C420.52 1177.44 419.7 1177.44 418.85 1177.44 C392.95 1177.33 349.98 1176.38 328.97 1159.13 C326.59 1153.77 327.07 1149.81 328.79 1144.38 C329.07 1143.39 329.07 1143.39 329.37 1142.38 C330.18 1139.61 331.06 1136.87 331.97 1134.13 C331.18 1134.15 330.39 1134.18 329.58 1134.2 C301.69 1134.65 266.48 1130.44 242.35 1115.51 C239.27 1110.19 241.94 1102.95 243.4 1097.34 C244.21 1094.35 245.03 1091.36 245.86 1088.37 C256.95 1048.23 263.34 1007.19 269.97 966.13 C269.31 966.13 268.64 966.14 267.95 966.14 C267.07 966.15 266.18 966.15 265.27 966.15 C264.4 966.16 263.52 966.16 262.62 966.17 C227.2 965.68 189.25 953.14 156.73 940.22 C153.55 938.96 150.36 937.73 147.16 936.51 C146 936.06 144.84 935.62 143.64 935.16 C142.76 934.82 141.88 934.48 140.97 934.13 C141.06 935.34 141.06 935.34 141.14 936.57 C142.49 956.4 143.84 976.24 145.17 996.08 C145.82 1005.67 146.47 1015.27 147.12 1024.86 C152.16 1098.65 152.16 1098.65 153.39 1128.67 C153.43 1129.67 153.47 1130.66 153.52 1131.69 C154.7 1160.04 154.7 1160.04 151.11 1164.39 C144.02 1170.17 132.45 1171.61 123.66 1173.32 C122.87 1173.47 122.08 1173.63 121.26 1173.79 C106.53 1176.47 91.81 1177.52 76.85 1177.44 C76.05 1177.44 75.25 1177.44 74.42 1177.44 C47.5 1177.32 21.73 1172.8 -3.9 1164.51 C-5.2 1164.09 -5.2 1164.09 -6.53 1163.67 C-14.45 1160.97 -14.45 1160.97 -17.03 1157.13 C-18.55 1151.5 -17.63 1147.14 -16.09 1141.69 C-15.89 1140.96 -15.7 1140.23 -15.5 1139.48 C-15.02 1137.69 -14.52 1135.91 -14.03 1134.13 C-14.77 1134.17 -15.51 1134.2 -16.28 1134.24 C-43.24 1134.9 -78.25 1129.73 -102.03 1116.13 C-104.89 1111.84 -104.54 1107.83 -103.61 1102.92 C-103.02 1100.49 -102.36 1098.09 -101.68 1095.69 C-101.18 1093.83 -100.67 1091.97 -100.17 1090.11 C-99.77 1088.65 -99.77 1088.65 -99.36 1087.16 C-93.2 1064.65 -88.14 1042.09 -84.03 1019.13 C-83.86 1018.22 -83.7 1017.32 -83.53 1016.38 C-72.99 957.68 -64.54 898.46 -57.34 839.26 C-57.26 838.59 -57.18 837.92 -57.09 837.24 C-56.16 829.54 -55.25 821.83 -54.37 814.12 C-54.05 811.33 -53.72 808.54 -53.39 805.75 C-52.24 795.74 -51.69 785.9 -51.71 775.82 C-51.7 774.48 -51.68 773.14 -51.67 771.81 C-51.66 758.31 -54.01 746.93 -60.21 734.94 C-61.21 732.96 -62.2 730.98 -63.18 728.99 C-63.66 728.01 -64.15 727.03 -64.65 726.03 C-66.73 721.66 -68.49 717.18 -70.28 712.69 C-74.53 702.34 -78.59 696.89 -89 692.3 C-93.74 690.47 -98.56 689.43 -103.53 688.38 C-123.77 683.8 -143.33 677.16 -162.03 668.13 C-162.7 667.81 -163.38 667.49 -164.07 667.17 C-183.2 658.16 -200.65 646.71 -216.03 632.13 C-216.79 631.43 -216.79 631.43 -217.56 630.71 C-230.61 618.59 -240.05 604.98 -246.03 588.13 C-246.44 587.03 -246.44 587.03 -246.87 585.91 C-249.96 576.5 -249.49 566.74 -249.53 556.94 C-249.59 541 -250.21 525.9 -256.21 510.88 C-256.66 509.71 -256.66 509.71 -257.12 508.51 C-259.05 503.49 -261.09 498.52 -263.12 493.54 C-273.01 469.22 -280.09 441.94 -280.23 415.57 C-280.24 414.22 -280.24 414.22 -280.25 412.84 C-280.27 409.94 -280.28 407.03 -280.28 404.13 C-280.28 403.14 -280.28 402.15 -280.28 401.13 C-280.26 386.23 -279.78 371.8 -277.03 357.13 C-276.85 356.15 -276.67 355.17 -276.49 354.15 C-272.8 334.01 -267.12 315.09 -259.37 296.15 C-255.71 287.43 -255.71 287.43 -255.03 278.13 C-256.39 275.54 -257.49 273.86 -259.34 271.69 C-260.28 270.48 -261.21 269.26 -262.14 268.03 C-262.86 267.08 -262.86 267.08 -263.6 266.11 C-289.93 229.65 -302.63 173.3 -295.78 128.86 C-293.03 115.21 -288.96 101.51 -276.92 93.25 C-275.98 92.7 -275.98 92.7 -275.03 92.13 C-274.45 91.76 -273.87 91.39 -273.28 91 C-260.24 85.95 -243.64 92.05 -231.62 97.17 C-214.49 104.75 -199.91 114.85 -185.03 126.13 C-183.83 127.03 -182.62 127.93 -181.42 128.83 C-161.5 143.83 -161.5 143.83 -153.59 153.13 C-150 157.32 -146.8 160.52 -141.1 161.44 C-134.13 161.72 -129.16 159.28 -123.03 156.19 C-105 147.53 -86.36 141.16 -67.03 136.13 C-64.69 135.47 -62.36 134.8 -60.03 134.13 C-60.28 132.96 -60.54 131.79 -60.8 130.59 C-63.23 119.51 -65.66 108.43 -68.09 97.36 C-69.33 91.66 -70.58 85.97 -71.83 80.28 C-73.04 74.77 -74.24 69.27 -75.45 63.76 C-75.9 61.67 -76.36 59.58 -76.82 57.5 C-80.95 38.69 -80.95 38.69 -82.79 29.66 C-83.02 28.55 -83.25 27.44 -83.48 26.3 C-85.75 13.13 -85.75 13.13 -82.56 7.58 C-79.43 3.85 -77.01 1.42 -71.96 0.93 C-47.98 -0.12 -23.99 -0.02 0 0 Z M-67.03 17.13 C-66.4 22.75 -65.47 28.2 -64.25 33.72 C-64.07 34.54 -63.9 35.37 -63.71 36.21 C-63.13 38.93 -62.53 41.64 -61.94 44.35 C-61.52 46.27 -61.11 48.19 -60.69 50.12 C-59.58 55.23 -58.46 60.35 -57.34 65.47 C-56.65 68.63 -55.96 71.79 -55.27 74.95 C-47.82 109.16 -47.82 109.16 -40.19 143.33 C-39.75 145.26 -39.32 147.18 -38.89 149.11 C-35.44 167.94 -35.44 167.94 -24.13 182.46 C-10.89 190.37 3.18 193.06 18.1 189.38 C23.72 187.91 29.16 186.47 33.97 183.13 C34.58 182.72 35.19 182.31 35.82 181.88 C47.09 172.65 48.64 149.26 51.66 135.82 C52.21 133.4 52.75 130.98 53.3 128.57 C58.37 106.1 63.28 83.59 68.17 61.09 C68.79 58.25 69.4 55.42 70.02 52.58 C71 48.09 71.97 43.6 72.95 39.1 C73.31 37.43 73.67 35.76 74.04 34.08 C74.54 31.78 75.03 29.49 75.53 27.19 C75.67 26.51 75.82 25.83 75.98 25.14 C76.56 22.4 76.97 19.94 76.97 17.13 C72.02 16.84 68.82 16.82 64.97 20.13 C61.28 26.84 59.8 34.51 59.97 42.13 C59.31 42.13 58.65 42.13 57.97 42.13 C57.87 40.97 57.78 39.82 57.68 38.62 C57.53 37.08 57.37 35.54 57.22 34.01 C57.16 33.24 57.1 32.48 57.04 31.7 C56.5 26.54 55.34 23.26 51.97 19.13 C48.36 16.82 45.16 16.9 40.96 17.6 C36.93 18.67 34.04 20.45 31.79 24 C30.75 26.01 29.84 28.04 28.97 30.13 C28.56 31.06 28.15 31.99 27.72 32.94 C26.81 35.22 26.81 35.22 26.97 38.13 C26.31 38.13 25.65 38.13 24.97 38.13 C24.92 37.04 24.92 37.04 24.86 35.94 C24.25 26.68 24.25 26.68 18.97 19.32 C11.83 16.49 5.02 16.56 -2.15 19.15 C-4.95 20.62 -6.61 22.05 -7.76 25.03 C-7.91 25.7 -8.06 26.38 -8.21 27.07 C-8.45 28.07 -8.45 28.07 -8.7 29.1 C-9.13 31.44 -9.13 31.44 -9.03 35.13 C-9.69 35.13 -10.35 35.13 -11.03 35.13 C-11.03 29.19 -11.03 23.25 -11.03 17.13 C-19.51 16.64 -19.51 16.64 -27.03 20.13 C-29.57 24.47 -30.74 28.59 -31.71 33.51 C-32.09 35.37 -32.09 35.37 -32.48 37.28 C-32.66 38.22 -32.84 39.16 -33.03 40.13 C-33.36 40.13 -33.69 40.13 -34.03 40.13 C-34.19 39.03 -34.34 37.94 -34.51 36.81 C-34.74 35.35 -34.98 33.9 -35.21 32.44 C-35.32 31.72 -35.42 31 -35.52 30.26 C-36.39 25.14 -37.67 22.31 -42.03 19.13 C-47.76 17.14 -53 16.87 -59.03 17.01 C-59.8 17.01 -60.58 17.02 -61.37 17.03 C-63.26 17.06 -65.14 17.09 -67.03 17.13 Z M-273.15 113.57 C-278.29 122.11 -279.74 132.35 -280.03 142.13 C-280.07 143.15 -280.11 144.17 -280.15 145.22 C-281.06 190.38 -266.45 234.55 -239.25 270.44 C-236.67 273.92 -234.66 276.81 -234.03 281.13 C-234.96 284.62 -236.41 287.84 -237.9 291.13 C-241.58 298.81 -241.58 298.81 -242.03 307.13 C-238.75 312.56 -234.53 314.65 -228.99 317.51 C-215.51 324.88 -200.42 336.78 -195.46 351.93 C-194.06 359.04 -193.99 365.92 -198.03 372.13 C-198.34 372.87 -198.65 373.62 -198.96 374.38 C-200.35 376.66 -201.6 377.05 -204.03 378.13 C-204.91 378.77 -205.79 379.4 -206.7 380.06 C-210.29 382.3 -213.37 383.29 -217.46 384.32 C-218.72 384.64 -219.98 384.96 -221.27 385.3 C-227.35 386.65 -233.27 387.27 -239.49 387.45 C-240.17 387.47 -240.85 387.49 -241.55 387.51 C-243.69 387.57 -245.83 387.63 -247.96 387.69 C-249.43 387.74 -250.89 387.78 -252.35 387.82 C-255.91 387.93 -259.47 388.03 -263.03 388.13 C-263.38 391.53 -263.5 394.74 -263.03 398.13 C-258.27 403.64 -250.44 403.3 -243.59 404.07 C-227.02 406.2 -211.52 408.9 -200.22 422.32 C-196.5 427.97 -196.31 433.57 -197.03 440.13 C-200.29 452.14 -209.76 460.81 -220.03 467.13 C-224.81 469.84 -229.66 472.45 -234.55 474.97 C-235.47 475.45 -236.39 475.93 -237.34 476.43 C-238.59 477.07 -238.59 477.07 -239.86 477.72 C-242.28 479.29 -243.56 480.64 -245.03 483.13 C-246.32 489.59 -244.22 495.29 -241.78 501.19 C-236.48 514.72 -232.93 528.24 -232.85 542.85 C-232.83 544.54 -232.8 546.23 -232.78 547.93 C-232.74 550.55 -232.71 553.17 -232.7 555.8 C-232.54 582.48 -223 601.63 -204.14 620.31 C-181.64 642.05 -152.33 655.24 -123.03 665.13 C-122.31 665.38 -121.59 665.62 -120.85 665.87 C-114 668.62 -114 668.62 -107.03 668.13 C-107.44 667.72 -107.85 667.3 -108.28 666.87 C-123.44 650.7 -127.64 632.28 -127.37 610.76 C-126.81 594.12 -119.07 577.67 -107.03 566.13 C-102.19 562.01 -97.06 558.26 -91.93 554.52 C-84.56 549.14 -77.71 543.34 -71.03 537.13 C-70.42 536.58 -69.82 536.03 -69.19 535.46 C-60.16 526.9 -53.55 516.5 -47.03 506.01 C-37.11 490.15 -26.19 477.55 -7.53 472.45 C5.79 469.43 20.08 471.14 31.85 478.32 C33.59 479.55 35.29 480.82 36.97 482.13 C37.82 482.79 38.67 483.45 39.55 484.13 C47.46 490.74 52.73 498.96 58.15 507.58 C71.05 528.07 86.05 543.45 105.79 557.42 C121.16 568.31 132.82 583.51 136.54 602.39 C138.05 615.44 137.76 628.5 133.97 641.13 C133.72 641.99 133.46 642.86 133.2 643.75 C129.89 653.25 123.26 661.4 116.97 669.13 C123.78 667.91 130.29 666.27 136.85 664.07 C138.2 663.61 138.2 663.61 139.58 663.15 C168.02 653.34 193.93 638.63 215.97 618.13 C216.58 617.58 217.18 617.03 217.81 616.46 C230.25 604.66 241.71 588.11 242.23 570.45 C242.24 568.74 242.25 567.03 242.25 565.32 C242.27 563.42 242.29 561.52 242.31 559.62 C242.33 556.67 242.35 553.72 242.35 550.77 C242.42 532.27 245.42 517.04 252.32 499.82 C254.91 493.12 256.6 487.87 253.59 480.95 C249.96 477.04 245.88 475.21 241.1 472.94 C228.5 466.65 213.32 458.49 208.33 444.3 C207.2 437.43 206.37 428.75 210.04 422.57 C219.22 410.67 232.66 406.66 247.07 404.71 C251.53 404.18 255.99 403.68 260.46 403.26 C262 403.1 262 403.1 263.58 402.94 C264.5 402.85 265.42 402.77 266.36 402.68 C269.37 402.05 271.43 400.83 273.97 399.13 C273.64 396.16 273.31 393.19 272.97 390.13 C269.19 388.39 266.15 387.86 262 387.79 C260.28 387.74 260.28 387.74 258.52 387.7 C257.33 387.67 256.14 387.65 254.91 387.63 C238.43 387.32 221.33 386.38 208.97 374.13 C205.04 367.98 204.19 361.31 204.97 354.13 C208.78 338.19 223.43 327.06 236.66 318.82 C241.14 316.15 245.66 313.58 250.27 311.14 C252.15 310.12 252.15 310.12 253.97 308.13 C253.77 300.96 250.31 295.29 247.04 289.07 C245.25 285.51 243.99 282.94 243.92 278.92 C245.25 275.4 247.08 273.03 249.47 270.13 C250.4 268.97 251.32 267.81 252.23 266.65 C252.69 266.06 253.16 265.47 253.63 264.86 C280.38 230.26 294.4 179.65 289.1 136.19 C287.81 126.58 286.13 118.39 281.1 110.01 C274.16 105.84 265.11 107.59 257.54 109.38 C242.45 114.15 227.69 122.79 214.97 132.13 C214.08 132.78 214.08 132.78 213.16 133.44 C208.36 136.92 203.64 140.48 198.97 144.13 C198.14 144.78 198.14 144.78 197.3 145.44 C186.93 153.65 177.77 163.18 168.5 172.59 C167.97 173.13 167.44 173.66 166.89 174.22 C165.88 175.24 164.88 176.26 163.88 177.29 C158.95 182.29 158.95 182.29 155.97 184.13 C152.38 183.98 148.94 183.43 145.38 182.87 C141.77 182.78 141.77 182.78 139.32 185.7 C138.51 186.83 137.73 187.97 136.97 189.13 C136.22 190.2 135.46 191.26 134.68 192.36 C134.31 192.91 133.93 193.46 133.54 194.03 C128.28 201.68 122.48 208.52 115.97 215.13 C115.32 215.81 114.67 216.49 113.99 217.19 C106.84 224.05 96.89 229.36 86.97 230.13 C79.1 229.54 73.6 227.13 68.35 221.13 C61.61 211.06 60.85 198.96 60.41 187.26 C60.37 186.19 60.32 185.12 60.28 184.01 C60.17 181.39 60.07 178.76 59.97 176.13 C57.91 179.1 57.91 179.1 56.29 182.38 C54.68 185.26 52.91 187.23 50.47 189.44 C42.92 196.77 42.13 207.01 40.88 216.99 C38.35 236.91 34.11 256.05 27.97 275.19 C27.67 276.17 27.36 277.16 27.04 278.17 C24.19 286.67 19.68 293.15 12.97 299.13 C7.98 300.8 2.85 301.04 -2.21 299.44 C-12.63 293.94 -16.86 280.12 -20.29 269.52 C-24.02 257.38 -26.65 245.04 -28.56 232.49 C-28.69 231.66 -28.82 230.82 -28.95 229.95 C-29.58 225.78 -30.19 221.61 -30.76 217.43 C-32.53 204.88 -35.1 194.66 -44.16 185.31 C-47.02 181.97 -48.55 178.24 -50.03 174.13 C-51.06 177.24 -51.09 179.19 -50.98 182.44 C-50.62 198.08 -50.46 211.52 -61.03 224.13 C-66.79 229.49 -71.77 229.49 -79.4 229.4 C-93.82 228.34 -105.95 216.54 -115.03 206.13 C-119.72 200.17 -124.06 193.97 -127.71 187.32 C-129.74 183.87 -129.74 183.87 -133.28 183.07 C-136.78 182.97 -136.78 182.97 -139.05 183.7 C-141.66 184.37 -143.36 184.58 -146.03 184.13 C-150.56 181 -154.22 177.09 -158.03 173.13 C-159.71 171.43 -161.4 169.75 -163.09 168.06 C-164.22 166.94 -165.34 165.82 -166.45 164.69 C-170.49 160.63 -174.65 156.82 -179.03 153.13 C-179.94 152.32 -180.86 151.52 -181.8 150.69 C-198.79 135.85 -217.84 123.35 -238.15 113.57 C-239.45 112.94 -239.45 112.94 -240.77 112.3 C-252.03 107.04 -263.92 102.98 -273.15 113.57 Z M-86.4 159.69 C-87.48 160.05 -88.55 160.41 -89.66 160.78 C-103.33 165.18 -103.33 165.18 -115.03 173.13 C-114.83 178.3 -112.66 181.73 -109.65 185.76 C-109.21 186.36 -108.76 186.96 -108.31 187.59 C-100.75 197.69 -92.51 207.39 -81.03 213.13 C-76.98 213.55 -76.98 213.55 -73.03 213.13 C-67.28 207.37 -66.84 197.15 -66.71 189.44 C-66.98 178.2 -68.11 167 -71.03 156.13 C-76.57 156.13 -81.18 157.94 -86.4 159.69 Z M80.97 156.13 C74.83 183.71 74.83 183.71 81.1 210.32 C82.03 211.71 82.03 211.71 82.97 213.13 C90.77 213.96 95.55 210.77 101.61 206.1 C112.26 196.99 120.18 185.32 126.97 173.13 C119.64 169.12 112.14 165.91 104.35 162.94 C103.48 162.61 102.61 162.28 101.71 161.94 C91.6 157.8 91.6 157.8 80.97 156.13 Z M-15.03 206.13 C-14.67 225.1 -10.74 244.14 -5.53 262.32 C-5.25 263.28 -4.98 264.24 -4.7 265.23 C-2.86 271.34 -0.36 276.68 2.97 282.13 C4.29 282.13 5.61 282.13 6.97 282.13 C16.73 265.42 19.97 246 22.97 227.13 C23.09 226.4 23.21 225.67 23.33 224.92 C24.35 218.59 25.07 212.56 24.97 206.13 C24.11 206.24 24.11 206.24 23.23 206.35 C10.6 207.73 -2.42 207.78 -15.03 206.13 Z M-252.03 325.13 C-255.1 335.71 -258.11 346.25 -259.9 357.13 C-260.02 357.85 -260.14 358.57 -260.26 359.32 C-260.87 363.29 -261.14 367.12 -261.03 371.13 C-236.12 372.57 -236.12 372.57 -213.03 365.13 C-210.66 363.17 -210.66 363.17 -210.53 359.51 C-210.75 352.4 -216.07 347.87 -220.96 343.26 C-224.97 339.82 -229.22 336.82 -233.59 333.88 C-234.2 333.47 -234.82 333.06 -235.45 332.63 C-243.18 327.25 -243.18 327.25 -252.03 325.13 Z M251.6 329.01 C250.53 329.61 250.53 329.61 249.45 330.23 C238.76 336.44 226.05 344.37 220.97 356.13 C220.47 359.13 220.47 359.13 220.97 362.13 C223.74 365.5 226.32 366.93 230.41 368.32 C231.34 368.64 232.26 368.96 233.22 369.3 C238.18 370.8 242.62 371.25 247.8 371.23 C249.1 371.22 250.39 371.22 251.72 371.22 C253.08 371.21 254.43 371.2 255.79 371.19 C257.16 371.19 258.53 371.18 259.91 371.18 C263.26 371.17 266.62 371.15 269.97 371.13 C270.76 367.22 271.04 364.04 270.37 360.11 C270.13 358.71 270.13 358.71 269.89 357.28 C269.71 356.31 269.53 355.33 269.35 354.32 C269.17 353.31 268.99 352.3 268.8 351.26 C267.15 342.34 264.79 333.74 261.97 325.13 C257.86 325.13 255.08 327.03 251.6 329.01 Z M-262.03 420.13 C-261.55 435.38 -258.87 450.38 -255.03 465.13 C-242.54 463.37 -230.39 455.09 -221.03 447.13 C-220.28 446.52 -219.54 445.91 -218.77 445.29 C-215.62 442.48 -213.65 440.2 -212.78 436.01 C-212.71 432.12 -212.71 432.12 -214.84 429.38 C-228.6 419.67 -245.87 419.66 -262.03 420.13 Z M225.41 429.01 C223.51 431.81 223.04 433.74 222.97 437.13 C230.73 452.06 247.92 459.52 262.97 465.13 C263.63 465.13 264.29 465.13 264.97 465.13 C270.1 442.85 270.1 442.85 271.97 420.13 C256.38 419.68 238.61 419.35 225.41 429.01 Z M-26.12 503.54 C-29.07 507.54 -31.61 511.77 -34.2 516 C-47.35 537.4 -64.01 554.21 -84.03 569.13 C-96.65 578.56 -107.77 589.11 -110.59 605.36 C-112.69 623.32 -110.07 637.73 -99.25 652.57 C-82.29 673.22 -52.49 681.9 -27.03 685.13 C-25.94 685.27 -25.94 685.27 -24.84 685.42 C-15.76 686.42 -6.62 686.35 2.5 686.37 C5.37 686.38 8.24 686.41 11.11 686.44 C27.79 686.54 43.86 684.67 59.97 680.26 C60.94 679.99 61.91 679.73 62.91 679.47 C69.86 677.55 76.49 675.33 82.97 672.13 C84.02 671.64 85.07 671.15 86.15 670.65 C101.49 663.05 113.19 651.23 119.03 635.05 C122.81 623.38 122.6 608.5 117.97 597.13 C117.64 596.3 117.32 595.46 116.98 594.6 C111.52 582.35 100.87 573.72 90.32 565.93 C82.39 560.07 75 554.05 67.97 547.13 C67.06 546.23 66.15 545.33 65.21 544.41 C57.23 536.13 51.16 526.79 44.97 517.13 C37.85 506.09 31.9 497.22 19.97 491.13 C19.04 490.62 19.04 490.62 18.08 490.1 C1.78 482.48 -15.49 490.93 -26.12 503.54 Z M347.35 632.38 C346.28 632.45 346.28 632.45 345.18 632.52 C341.69 633.49 340.35 634.29 337.97 637.13 C337.1 641.33 337 645.54 336.85 649.82 C336.71 652.28 336.57 654.73 336.42 657.19 C336.35 658.39 336.28 659.58 336.21 660.81 C334.98 678.06 329.65 694.07 322.52 709.7 C321.26 712.49 320.08 715.28 318.97 718.13 C333.92 711.74 344.88 690.56 350.85 675.98 C356.21 662 359.85 647.19 358.97 632.13 C355.09 632.05 351.23 632.1 347.35 632.38 Z M375.97 633.13 C375.9 633.84 375.83 634.55 375.76 635.28 C371.91 673.5 359.88 706.55 329.74 731.9 C321.6 738.5 312.63 744.98 301.97 746.13 C298.37 745.42 296.56 744.75 294.04 742.07 C292.08 736.65 293.13 732.06 295.37 726.92 C297.24 723.25 299.17 719.62 301.16 716.01 C307.9 703.63 314.37 691.1 317.29 677.19 C317.52 676.18 317.52 676.18 317.76 675.14 C319.74 666.25 320.11 657.72 320.04 648.63 C320.03 646.97 320.03 646.97 320.02 645.27 C320.01 642.56 319.99 639.84 319.97 637.13 C310.15 638.96 300.33 640.82 290.52 642.7 C285.81 643.6 281.09 644.47 276.36 645.29 C274.35 645.64 272.35 646.01 270.34 646.38 C267.91 646.83 265.47 647.25 263.02 647.65 C256.33 648.93 252.51 650.47 248.38 656 C247.92 656.7 247.45 657.41 246.97 658.13 C246.33 659.06 246.33 659.06 245.67 660.01 C244.47 661.79 243.37 663.6 242.29 665.44 C241.92 666.03 241.56 666.62 241.18 667.22 C235.08 677.44 232.93 688.5 230.97 700.07 C227.63 719.79 222.58 736.69 207.97 751.13 C207.21 751.91 206.45 752.7 205.67 753.5 C198.33 760.63 188.02 767.48 177.6 768.44 C173.31 768.07 171.83 767.32 168.97 764.13 C167.45 760.18 167.86 758.42 169.35 754.44 C171.27 750.92 173.68 748.04 176.29 745.01 C187.02 732.25 193.03 715.86 191.97 699.13 C191.65 696.96 191.32 694.8 190.97 692.63 C189.36 681.53 189.8 670.32 189.97 659.13 C185.21 660.51 180.96 662.56 176.54 664.76 C163.36 671.32 149.95 676.55 135.97 681.13 C135.02 681.44 134.07 681.76 133.08 682.08 C86.71 697.09 33.63 705.83 -15.03 702.38 C-16.22 702.3 -17.4 702.21 -18.63 702.13 C-31.86 701.11 -44.93 699.2 -58.03 697.13 C-43.42 736.11 -23.42 775.82 2.97 808.13 C3.73 809.08 4.49 810.03 5.27 811.01 C10.3 817.24 15.56 823.22 20.97 829.13 C21.95 830.22 22.93 831.3 23.91 832.39 C24.91 833.49 25.91 834.59 26.91 835.69 C27.38 836.22 27.86 836.74 28.34 837.28 C30.85 840.09 30.85 840.09 33.97 842.13 C34.11 841.22 34.25 840.32 34.4 839.38 C34.93 835.99 35.46 832.6 36 829.22 C36.23 827.75 36.46 826.29 36.69 824.83 C37.01 822.72 37.35 820.61 37.68 818.5 C37.88 817.23 38.08 815.96 38.29 814.66 C39.98 805.94 39.98 805.94 42.72 803.69 C45.8 802.92 47.94 803.27 50.97 804.13 C53.47 807.87 53.31 810.79 53.28 815.12 C53.27 816.37 53.27 816.37 53.26 817.65 C53.06 829.59 51.52 841.41 50.1 853.26 C49.87 855.21 49.64 857.16 49.41 859.11 C46.37 885.15 42.8 911.12 39.17 937.09 C39.07 937.86 38.96 938.63 38.85 939.43 C38.34 943.06 37.83 946.7 37.32 950.33 C37.14 951.6 36.96 952.87 36.78 954.17 C36.62 955.28 36.47 956.39 36.31 957.53 C35.93 960.02 35.93 960.02 35.97 962.13 C36.81 962.07 37.65 962.01 38.51 961.95 C55.5 960.75 72.44 959.93 89.47 959.94 C90.22 959.94 90.97 959.94 91.74 959.94 C102.85 959.94 113.89 960.42 124.97 961.13 C124.97 960.42 124.97 959.71 124.97 958.98 C124.95 952.2 124.93 945.42 124.92 938.65 C124.92 935.16 124.91 931.68 124.9 928.2 C124.85 912.81 124.89 897.48 125.97 882.13 C124.26 882.06 124.26 882.06 122.52 881.99 C101.85 881.13 77.65 877.36 61.91 862.51 C56.91 856.37 56.91 856.37 57.16 851.51 C57.97 848.13 57.97 848.13 59.97 845.13 C66.08 843.8 71.26 844.38 77.35 845.51 C79.04 845.79 80.73 846.08 82.42 846.36 C83.62 846.56 83.62 846.56 84.83 846.77 C99.47 849.22 119.19 851.05 131.91 842.44 C132.74 841.8 133.58 841.16 134.44 840.49 C136.97 839.13 136.97 839.13 140.1 839.05 C142.97 840.13 142.97 840.13 144.89 842.36 C146.55 848.15 145.83 853.56 145.29 859.51 C145.18 860.79 145.08 862.07 144.98 863.39 C144.66 867.31 144.32 871.22 143.97 875.13 C140.27 896.94 140.27 896.94 144.97 917.13 C145.3 917.13 145.63 917.13 145.97 917.13 C146 916.32 146.02 915.51 146.05 914.67 C146.74 901.27 149.92 892.3 159.97 883.13 C162.75 881 165.59 878.99 168.46 876.98 C176.54 871.03 179.98 863.3 181.56 853.48 C181.93 850.22 182.05 846.99 182.11 843.71 C182.13 842.77 182.15 841.82 182.17 840.85 C182.21 838.9 182.22 836.95 182.23 835 C182.35 830.29 182.43 827.86 185.29 823.98 C187.97 822.13 187.97 822.13 191.72 821.69 C197.92 822.96 201.47 828.26 204.97 833.13 C213.62 846.89 217.88 864.26 214.85 880.32 C212.1 891.33 207.65 898.03 199.4 905.69 C195.89 909.22 194.67 911.8 194.54 916.76 C194.7 924.09 197.72 929.72 202.66 935.01 C210.18 939.83 218.48 941.97 227.16 943.69 C228.19 943.9 229.22 944.11 230.28 944.33 C241.11 946.46 252.01 947.94 262.97 949.13 C264.14 949.28 264.14 949.28 265.32 949.42 C275.37 950.54 285.5 950.33 295.6 950.32 C296.6 950.32 297.59 950.32 298.62 950.32 C313.83 950.32 328.85 949.83 343.97 948.13 C341.89 945.89 339.85 944.33 337.2 942.82 C336.46 942.39 335.73 941.96 334.97 941.51 C334.19 941.06 333.4 940.6 332.6 940.13 C324.3 935.17 317.06 929.69 309.97 923.13 C309.08 922.32 308.19 921.51 307.27 920.67 C289.43 903.74 277.44 878.82 276.67 854.11 C276.65 852.04 276.65 849.96 276.66 847.88 C276.66 846.79 276.67 845.69 276.67 844.57 C276.83 833.18 277.77 820.05 283.97 810.13 C286.66 808.37 287.76 808.12 291.04 808.26 C293.97 809.13 293.97 809.13 295.91 810.63 C298.25 816.14 296.02 822.01 294.41 827.51 C292.16 835.91 292.73 844.51 292.97 853.13 C295.28 853.47 297.6 853.8 299.91 854.13 C301.2 854.32 302.49 854.5 303.81 854.69 C312.76 855.73 319.87 854.55 328.54 852.13 C367.25 842.22 412.77 858.63 447.66 876.13 C448.31 876.43 448.96 876.74 449.63 877.05 C454.26 879.35 457.03 881.85 459.97 886.13 C460.04 890.13 459.6 892.24 457.29 895.51 C452.42 898.92 446.86 898.15 441.2 897.57 C439.65 897.43 438.11 897.29 436.56 897.15 C435.75 897.08 434.94 897 434.11 896.92 C393.98 893.25 356.98 894.97 318.97 909.13 C334.77 925.2 353.47 934.3 374.87 940.48 C379.77 941.92 379.77 941.92 381.97 944.13 C382.93 952.58 381.41 961.02 379.97 969.32 C378.71 976.69 377.72 983.64 377.97 991.13 C383.59 993.41 388.86 994.85 394.85 995.76 C395.59 995.88 396.33 996 397.09 996.12 C399.38 996.49 401.67 996.82 403.97 997.13 C404.7 997.23 405.42 997.33 406.16 997.43 C413.73 998.33 421.31 998.32 428.91 998.32 C431.2 998.32 433.5 998.34 435.79 998.35 C453.63 999.13 453.63 999.13 468.97 992.13 C472.56 987.1 472.64 982.08 471.97 976.13 C470.7 970.47 468.6 966.79 463.97 963.13 C460.43 961.95 456.83 961.33 453.16 960.69 C436.77 957.47 416.51 952.13 404.97 939.13 C402.97 935.87 402.96 934.31 403.16 930.44 C403.97 927.13 403.97 927.13 406.97 925.13 C409.43 924.9 409.43 924.9 412.39 924.94 C414.05 924.94 414.05 924.94 415.75 924.96 C417.54 924.98 417.54 924.98 419.38 925.01 C421.22 925.02 421.22 925.02 423.1 925.03 C427.04 925.05 430.97 925.09 434.91 925.13 C440.09 925.18 445.26 925.22 450.44 925.26 C451.63 925.27 452.83 925.29 454.06 925.31 C455.17 925.31 456.28 925.32 457.43 925.33 C458.4 925.34 459.38 925.35 460.39 925.36 C463.11 925.12 464.7 924.64 466.97 923.13 C469.21 918.33 469.46 913.39 469.85 908.19 C470.01 906.24 470.18 904.3 470.34 902.35 C470.44 901.24 470.53 900.12 470.63 898.97 C471.26 891.9 471.95 884.84 472.65 877.78 C472.82 876.08 472.99 874.38 473.15 872.68 C474.18 862 475.63 851.61 477.97 841.13 C484.68 839.04 484.68 839.04 487.35 839.88 C488.97 841.13 488.97 841.13 489.97 843.13 C490.06 845.76 490.09 848.36 490.07 850.98 C490.07 851.76 490.07 852.53 490.07 853.33 C490.06 855.8 490.05 858.28 490.04 860.76 C490.03 862.43 490.03 864.11 490.02 865.79 C490.01 869.9 489.99 874.02 489.97 878.13 C504.36 863.84 512.05 846.58 518.47 827.57 C518.96 826.12 518.96 826.12 519.46 824.65 C532.21 785.22 524.97 740.42 506.88 703.93 C498.58 687.73 486.9 675.75 473.97 663.13 C471.01 666.72 468.41 670.44 465.85 674.32 C456.34 688.26 442.94 699.73 425.97 703.13 C415.47 704.01 415.47 704.01 410.79 701.26 C408.52 698.6 408.02 697.54 407.63 694.03 C408.07 689.02 409.91 685.94 412.47 681.69 C413.39 680.1 414.31 678.51 415.23 676.91 C415.69 676.11 416.15 675.32 416.63 674.49 C425.73 658.73 425.73 658.73 428.97 641.13 C418.69 638.47 408.42 636.04 397.97 634.13 C397.24 634 396.51 633.86 395.75 633.72 C389.23 632.73 382.55 633.05 375.97 633.13 Z M445.97 648.13 C444.6 651.69 443.25 655.23 442.13 658.88 C439.93 666.01 437 672.09 433.27 678.51 C432.84 679.38 432.41 680.24 431.97 681.13 C432.3 681.79 432.63 682.45 432.97 683.13 C444.83 676.27 451.94 668.52 457.97 656.13 C457.97 655.14 457.97 654.15 457.97 653.13 C456.35 652.29 454.72 651.46 453.1 650.63 C452.19 650.17 451.29 649.7 450.36 649.22 C448.11 647.99 448.11 647.99 445.97 648.13 Z M207.97 656.13 C204.18 665.51 205.69 676.56 206.97 686.32 C208.54 698.36 209.03 710.29 205.97 722.13 C206.36 724.3 206.36 724.3 206.97 726.13 C210.66 720.49 211.94 715.55 212.97 708.94 C213.31 706.98 213.65 705.01 213.98 703.05 C214.47 700.17 214.95 697.29 215.42 694.41 C217.61 681.53 220.7 669.59 227.69 658.38 C229.22 656.13 229.22 656.13 228.97 653.13 C226.03 653.05 223.1 652.99 220.16 652.94 C219.33 652.92 218.49 652.89 217.64 652.87 C216.83 652.86 216.03 652.85 215.2 652.84 C214.46 652.82 213.73 652.81 212.97 652.79 C210.42 653.23 209.57 654.14 207.97 656.13 Z M666.97 675.13 C666.77 675.94 666.56 676.75 666.34 677.59 C661.43 695.23 652.15 703.32 637.29 712.81 C636.52 713.31 635.75 713.81 634.96 714.33 C634.26 714.77 633.57 715.21 632.85 715.67 C630.16 717.76 628.15 719.79 627.69 723.24 C628.31 729.4 630.19 733.15 634.97 737.13 C641.19 740.77 646.79 741.09 653.68 739.51 C663.09 736.55 669.48 731.45 674.04 722.72 C679.04 712.58 680.89 702.98 677.79 691.82 C675.49 685.25 672.85 679.11 666.97 675.13 Z M204.97 726.13 C205.97 728.13 205.97 728.13 205.97 728.13 Z M608.06 760.87 C591.63 769.99 573.9 776.03 555.73 780.66 C550.06 782.18 546.62 783.45 542.97 788.13 C541.56 790.96 541.63 793.61 541.41 796.76 C541.33 797.94 541.24 799.13 541.16 800.36 C541.1 801.27 541.04 802.19 540.97 803.13 C565.09 798.72 588.32 784.07 606.22 767.76 C606.77 767.26 607.32 766.76 607.89 766.24 C610.54 763.75 612.64 761.55 613.97 758.13 C611.8 758.13 609.92 759.83 608.06 760.87 Z M-34.03 786.13 C-37 812.53 -39.97 838.93 -43.03 866.13 C-33.56 868.5 -24.08 867.09 -14.59 865.57 C-0.61 863.39 13.23 863.56 26.15 870.26 C28.09 871.35 28.09 871.35 30.97 871.13 C31.61 867.44 31.61 865.27 29.75 861.97 C24.89 855.59 19 850.35 13.11 844.95 C6.47 838.79 0.64 832.17 -5.03 825.13 C-5.81 824.18 -6.59 823.23 -7.39 822.24 C-14.2 813.67 -20.25 804.56 -26.31 795.45 C-27.02 794.39 -27.73 793.33 -28.46 792.24 C-29.1 791.28 -29.74 790.32 -30.4 789.33 C-31.84 787.03 -31.84 787.03 -34.03 786.13 Z M196.97 859.13 C196.77 859.94 196.56 860.75 196.34 861.59 C192.02 877.14 183.97 886.32 171.1 895.69 C166.91 898.9 164.49 902.06 162.97 907.13 C162.25 912.81 163.43 918.03 165.97 923.13 C169.45 927.48 173.73 928.74 178.97 930.13 C178.96 929.5 178.94 928.87 178.93 928.22 C178.86 925.34 178.82 922.45 178.79 919.57 C178.76 918.58 178.74 917.59 178.71 916.57 C178.63 908.73 179.63 903.17 185.16 897.26 C185.77 896.59 186.37 895.92 187 895.24 C188.37 893.77 189.75 892.32 191.14 890.87 C192.2 889.73 192.2 889.73 193.29 888.57 C193.94 887.89 194.6 887.2 195.27 886.5 C199.28 880.91 199.24 874.78 199.1 868.19 C199.09 867.41 199.08 866.63 199.07 865.83 C199.05 863.93 199.01 862.03 198.97 860.13 C198.31 859.8 197.65 859.47 196.97 859.13 Z M117.97 864.13 C117.97 864.46 117.97 864.79 117.97 865.13 C121.98 865.31 121.98 865.31 125.97 865.13 C126.63 864.47 127.29 863.81 127.97 863.13 C124.48 863.03 121.38 863.35 117.97 864.13 Z M344.66 865.38 C343.88 865.51 343.09 865.64 342.29 865.78 C338.33 866.46 334.43 867.23 330.54 868.22 C318.87 871.17 307.99 871.56 295.97 871.13 C297.54 876.83 299.1 882.12 302.22 887.19 C303.04 888.57 303.04 888.57 303.86 889.98 C305.87 892.35 305.87 892.35 309 893.17 C314.56 893.12 319.09 891.37 324.29 889.51 C333.41 886.41 342.44 883.97 351.91 882.19 C353.5 881.89 353.5 881.89 355.12 881.59 C366.76 879.5 378.29 878.9 390.1 878.57 C391.55 878.52 392.99 878.48 394.44 878.44 C397.95 878.33 401.46 878.23 404.97 878.13 C389.11 867.55 363.35 862.12 344.66 865.38 Z M-28.03 884.13 C-28.03 884.46 -28.03 884.79 -28.03 885.13 C-8.23 884.14 -8.23 884.14 11.97 883.13 C7.51 880.9 4.13 880.79 -0.71 880.82 C-1.55 880.82 -2.38 880.82 -3.23 880.82 C-11.69 880.95 -19.78 882.36 -28.03 884.13 Z M-47.03 900.13 C-48.22 904.01 -49.03 907.05 -49.03 911.13 C-48.14 911.19 -47.26 911.25 -46.35 911.31 C-27.61 912.62 -9.25 914.62 9.22 918.15 C9.9 918.28 10.59 918.41 11.3 918.54 C13.15 918.9 14.99 919.26 16.84 919.63 C19.62 920.07 22.16 920.23 24.97 920.13 C26.19 915.25 26.91 909.83 25.23 904.99 C23.14 901.9 20.38 901.6 16.89 900.68 C11.87 899.74 6.94 899.78 1.85 899.88 C0.82 899.89 -0.22 899.89 -1.28 899.9 C-5.64 899.94 -9.93 900.05 -14.25 900.64 C-18.3 901.17 -22.2 901.28 -26.28 901.26 C-27.01 901.25 -27.74 901.25 -28.49 901.25 C-34.7 901.2 -40.85 900.8 -47.03 900.13 Z M-37.03 928.13 C-33.75 930.62 -30.4 932.71 -26.83 934.75 C-24.72 936.37 -23.95 937.65 -23.03 940.13 C-23.11 944.11 -23.74 945.78 -26.28 948.88 C-31.03 952.77 -36.16 953.74 -42.03 955.13 C-42.03 955.46 -42.03 955.79 -42.03 956.13 C-29.03 956.9 -19.12 953.48 -7.28 948.49 C-0.44 945.71 6.67 943.93 13.82 942.13 C14.74 941.9 15.65 941.67 16.59 941.43 C17.41 941.22 18.23 941.02 19.08 940.81 C21.17 940.3 21.17 940.3 21.97 938.13 C12.61 934.96 3.36 932.95 -6.4 931.44 C-8.34 931.12 -8.34 931.12 -10.32 930.8 C-19.23 929.39 -28.03 928.58 -37.03 928.13 Z M457.66 942.13 C456.59 942.32 455.52 942.5 454.42 942.69 C453.21 942.91 453.21 942.91 451.97 943.13 C451.97 943.46 451.97 943.79 451.97 944.13 C453.87 944.47 455.76 944.8 457.66 945.13 C458.72 945.32 459.77 945.5 460.86 945.69 C463.62 946.08 466.19 946.21 468.97 946.13 C468.97 944.48 468.97 942.83 468.97 941.13 C465.08 941.01 461.49 941.46 457.66 942.13 Z M11.11 959.2 C10.04 959.55 10.04 959.55 8.94 959.91 C8.19 960.17 7.44 960.43 6.66 960.69 C5.88 960.96 5.09 961.22 4.29 961.49 C-2.6 963.87 -9.24 966.7 -15.87 969.71 C-26.09 974.3 -40.39 973.5 -50.84 969.79 C-53.32 969.04 -55.45 969.02 -58.03 969.13 C-58.31 970.83 -58.55 972.54 -58.78 974.26 C-58.92 975.21 -59.06 976.16 -59.2 977.14 C-58.97 981.21 -57.62 983.02 -55.03 986.13 C-42.36 995.64 -26.07 1000.34 -10.9 1004.07 C-9.62 1004.39 -9.62 1004.39 -8.32 1004.71 C-3.02 1005.93 2.55 1007.2 7.97 1006.13 C18.71 996.94 18.21 971.06 19.97 958.13 C16.77 958.04 14.15 958.19 11.11 959.2 Z M342.52 963.78 C331.02 965.29 319.61 966.59 308 966.8 C300.5 966.97 292.93 967.16 286.97 972.13 C286.83 975.5 286.83 975.5 287.97 979.13 C302.51 989.3 325.08 989.33 342.14 989.61 C348.49 989.79 353.98 991.03 359.97 993.13 C360.65 989.09 361.31 985.05 361.97 981.01 C362.16 979.86 362.35 978.72 362.55 977.54 C362.82 975.88 362.82 975.88 363.1 974.19 C363.27 973.17 363.43 972.15 363.61 971.11 C363.98 968.08 364.04 965.17 363.97 962.13 C356.73 961.84 349.69 962.84 342.52 963.78 Z M32.97 982.13 C32.97 983.12 32.97 984.11 32.97 985.13 C34.02 985.28 35.07 985.42 36.16 985.58 C47.89 987.38 54.52 990.51 62.91 999.13 C77.09 1013.63 99.93 1018.53 119.72 1019.23 C120.47 1019.22 121.21 1019.2 121.97 1019.19 C122.74 1019.18 123.5 1019.17 124.29 1019.17 C124.84 1019.15 125.4 1019.14 125.97 1019.13 C125.97 1018.8 125.97 1018.47 125.97 1018.13 C125.07 1017.99 125.07 1017.99 124.15 1017.84 C86.16 1011.77 86.16 1011.77 72.41 1002.38 C70.14 998.82 69.69 995.31 69.97 991.13 C72.23 986.51 75.83 984.97 80.36 983.02 C88.79 980.13 96.59 979.72 105.47 979.51 C106.77 979.47 108.07 979.43 109.41 979.39 C112.6 979.29 115.79 979.21 118.97 979.13 C118.97 978.8 118.97 978.47 118.97 978.13 C96.99 974.25 52.33 969.23 32.97 982.13 Z M99.97 995.13 C100.3 995.79 100.63 996.45 100.97 997.13 C103 997.79 103 997.79 105.45 998.2 C106.37 998.37 107.29 998.55 108.23 998.73 C109.2 998.9 110.16 999.08 111.16 999.26 C112.11 999.44 113.05 999.62 114.03 999.81 C118.73 1000.68 123.17 1001.37 127.97 1001.13 C127.64 999.81 127.31 998.49 126.97 997.13 C117.89 995.44 109.2 994.88 99.97 995.13 Z M282.97 997.13 C282.59 998.79 282.26 1000.45 281.97 1002.13 C282.97 1003.35 282.97 1003.35 284.92 1003.24 C286.17 1003.24 286.17 1003.24 287.45 1003.23 C288.79 1003.22 288.79 1003.22 290.17 1003.22 C291.59 1003.21 291.59 1003.21 293.04 1003.19 C293.98 1003.19 294.93 1003.18 295.91 1003.18 C298.27 1003.17 300.62 1003.15 302.97 1003.13 C299.82 1001.03 297.15 1000.11 293.54 999.01 C292.4 998.65 291.27 998.3 290.1 997.94 C286.87 996.96 286.87 996.96 282.97 997.13 Z M-63.03 1002.13 C-63.24 1004.52 -63.24 1004.52 -62.03 1007.13 C-56.11 1011.14 -48 1013.05 -41.03 1014.13 C-39.68 1013.84 -38.35 1013.51 -37.03 1013.13 C-40.98 1011.29 -44.94 1009.46 -48.9 1007.63 C-50.03 1007.11 -51.16 1006.58 -52.32 1006.04 C-53.4 1005.54 -54.47 1005.05 -55.58 1004.54 C-56.58 1004.08 -57.57 1003.61 -58.6 1003.14 C-60.9 1002 -60.9 1002 -63.03 1002.13 Z M28.97 1005.13 C28.42 1006.99 28.42 1006.99 28.12 1009.16 C27.98 1009.99 27.85 1010.83 27.7 1011.68 C27.57 1012.58 27.43 1013.49 27.28 1014.42 C27.13 1015.35 26.98 1016.28 26.83 1017.23 C26.51 1019.21 26.2 1021.18 25.89 1023.16 C25.42 1026.16 24.93 1029.15 24.45 1032.15 C24.14 1034.07 23.84 1035.99 23.53 1037.92 C23.39 1038.8 23.25 1039.69 23.1 1040.61 C19 1062.88 19 1062.88 23.97 1084.13 C27.36 1088.56 31.28 1089.43 36.47 1090.69 C37.31 1090.9 38.14 1091.11 39 1091.33 C60 1096.42 81.57 1098.28 103.1 1096.26 C104.02 1096.18 104.95 1096.1 105.9 1096.02 C118.11 1095.28 118.11 1095.28 127.97 1089.13 C135.12 1076.85 132.7 1060.64 130.02 1047.33 C128.4 1042.39 126.31 1039.02 121.97 1036.13 C119.99 1035.67 119.99 1035.67 117.79 1035.45 C116.54 1035.3 116.54 1035.3 115.26 1035.14 C114.36 1035.04 113.46 1034.93 112.54 1034.82 C87.12 1031.45 65.11 1025.15 46.97 1006.13 C43.69 1002.85 41.52 1002.97 36.97 1002.94 C35.9 1002.93 34.83 1002.91 33.72 1002.9 C30.83 1002.84 30.83 1002.84 28.97 1005.13 Z M352.73 1008.9 C347.04 1011.78 341 1013.23 334.85 1014.82 C333.12 1015.28 333.12 1015.28 331.35 1015.75 C323.91 1017.71 316.98 1019.22 309.25 1019.34 C307.99 1019.37 306.73 1019.4 305.43 1019.43 C302.79 1019.48 300.15 1019.52 297.52 1019.56 C295.62 1019.61 295.62 1019.61 293.69 1019.65 C292.55 1019.67 291.4 1019.69 290.22 1019.71 C285.69 1020.29 282.25 1021.73 279.16 1025.13 C276.72 1029.24 276.44 1033.46 276.97 1038.13 C277.88 1040.74 278.46 1041.84 280.87 1043.22 C301.06 1050.13 326.18 1057.34 347.63 1053.68 C350.37 1051.87 350.47 1051.31 351.23 1048.23 C351.54 1046.55 351.83 1044.87 352.1 1043.19 C352.26 1042.31 352.41 1041.42 352.58 1040.51 C353.06 1037.72 353.52 1034.93 353.97 1032.13 C354.28 1030.35 354.58 1028.57 354.89 1026.79 C356.59 1017.02 356.59 1017.02 356.97 1007.13 C355.5 1007.05 355.5 1007.05 352.73 1008.9 Z M374.97 1008.13 C373.65 1012.41 372.64 1016.33 372.54 1020.82 C372.5 1021.73 372.46 1022.64 372.41 1023.58 C372.78 1026.31 372.78 1026.31 375.05 1028.36 C378.45 1030.42 381.25 1031.12 385.16 1031.82 C386.39 1032.05 387.62 1032.28 388.89 1032.52 C398.76 1034.08 408.56 1034.33 418.54 1034.32 C419.25 1034.32 419.96 1034.32 420.69 1034.32 C447.26 1034.85 447.26 1034.85 471.41 1025.86 C474.19 1023.38 474.19 1023.38 474.56 1020.24 C474.45 1018.79 474.45 1018.79 474.35 1017.32 C474.29 1016.34 474.24 1015.37 474.18 1014.36 C474.08 1013.26 474.08 1013.26 473.97 1012.13 C467.7 1012.6 461.42 1013.09 455.15 1013.64 C453.6 1013.78 453.6 1013.78 452.01 1013.92 C449.95 1014.1 447.88 1014.28 445.82 1014.47 C421.82 1016.55 398.45 1012.91 374.97 1008.13 Z M-67.03 1024.13 C-68.02 1029.41 -69.01 1034.69 -70.03 1040.13 C-65.11 1043.08 -61.02 1044.54 -55.59 1046.07 C-54.67 1046.33 -53.76 1046.59 -52.82 1046.85 C-39.11 1050.61 -25.19 1053.04 -11.03 1054.13 C-9.94 1054.22 -8.85 1054.31 -7.72 1054.4 C-6.45 1054.45 -6.45 1054.45 -5.15 1054.51 C-4.29 1054.55 -3.42 1054.6 -2.53 1054.65 C1.22 1053.87 2.55 1052.07 4.97 1049.13 C5.95 1046.4 6.38 1043.68 6.79 1040.82 C6.91 1040.08 7.03 1039.34 7.15 1038.57 C7.44 1036.76 7.71 1034.95 7.97 1033.13 C7.07 1033.11 6.16 1033.09 5.23 1033.07 C-19.9 1032.49 -42.64 1030.69 -67.03 1024.13 Z M462.23 1046.53 C448.53 1049.95 434.64 1050.53 420.6 1050.51 C419.37 1050.51 419.37 1050.51 418.11 1050.51 C404.25 1050.5 391.01 1049.26 377.38 1046.59 C374.25 1045.99 371.12 1045.55 367.97 1045.13 C363.51 1063.93 363.51 1063.93 366.47 1082.38 C371.76 1088.19 379.16 1090 386.6 1091.76 C387.91 1092.07 387.91 1092.07 389.26 1092.4 C409.04 1097.07 429.02 1098.01 449.22 1096.26 C450.15 1096.18 451.07 1096.1 452.02 1096.02 C464.09 1095.22 464.09 1095.22 473.97 1089.13 C479.35 1078.57 478.17 1067.62 477.54 1056.13 C477.5 1055.4 477.46 1054.67 477.42 1053.92 C477.21 1050.56 476.97 1047.36 475.97 1044.13 C471.14 1044.13 466.86 1045.31 462.23 1046.53 Z M-74.03 1058.13 C-75.19 1062.59 -76.32 1067.05 -77.45 1071.52 C-77.83 1073.03 -78.22 1074.54 -78.61 1076.05 C-82.32 1089.91 -82.32 1089.91 -82.03 1104.13 C-79.35 1107.74 -75.51 1108.45 -71.34 1109.57 C-70.56 1109.78 -69.78 1109.99 -68.98 1110.21 C-54.95 1113.86 -40.47 1116.02 -26.03 1117.13 C-24.3 1117.27 -24.3 1117.27 -22.54 1117.4 C-17.82 1117.57 -14.78 1117.52 -10.53 1115.32 C-1.07 1105.25 -0.14 1084.28 0.97 1071.13 C0.09 1071.07 -0.79 1071 -1.69 1070.93 C-24.5 1069.2 -46.25 1066.39 -68.04 1059.05 C-70.98 1057.98 -70.98 1057.98 -74.03 1058.13 Z M271.97 1058.13 C270.81 1062.46 269.68 1066.8 268.55 1071.14 C268.17 1072.61 267.78 1074.08 267.39 1075.55 C262.97 1090.28 262.97 1090.28 265.29 1104.87 C267.7 1108.12 270.65 1108.78 274.41 1109.76 C275.15 1109.96 275.89 1110.17 276.65 1110.38 C293.11 1114.72 319.24 1121.14 334.97 1113.13 C338.82 1110.01 339.85 1107.2 341.04 1102.44 C341.2 1101.8 341.36 1101.15 341.53 1100.48 C342.77 1095.38 343.79 1090.23 344.72 1085.07 C344.85 1084.37 344.98 1083.66 345.11 1082.94 C345.79 1078.95 346.02 1075.17 345.97 1071.13 C344.97 1071.04 343.96 1070.94 342.93 1070.84 C297.93 1066.54 297.93 1066.54 277.12 1058.83 C274.87 1057.98 274.87 1057.98 271.97 1058.13 Z M12.97 1101.13 C9.72 1112.31 6.56 1123.5 3.6 1134.76 C3.34 1135.74 3.07 1136.73 2.8 1137.75 C2.44 1139.13 2.44 1139.13 2.07 1140.54 C1.86 1141.36 1.65 1142.17 1.43 1143.01 C0.87 1145.26 0.87 1145.26 0.97 1148.13 C38.67 1159.44 79.07 1164.83 118.22 1157.38 C119.43 1157.16 119.43 1157.16 120.65 1156.94 C126.01 1155.8 129.13 1154.06 132.97 1150.13 C139.6 1138.86 135.91 1120.7 134.97 1108.13 C134.22 1108.25 133.46 1108.36 132.68 1108.48 C129.2 1109.01 125.71 1109.54 122.22 1110.07 C121.04 1110.25 119.85 1110.43 118.63 1110.62 C81.95 1116.13 48.44 1110.76 12.97 1101.13 Z M357.97 1101.13 C356.56 1106.21 355.15 1111.3 353.76 1116.39 C353.28 1118.12 352.8 1119.84 352.32 1121.57 C348.64 1134.66 348.64 1134.66 346.97 1148.13 C385.61 1159.94 429.36 1166.48 468.97 1155.13 C474.19 1152.22 477.8 1149.02 480.07 1143.43 C481.08 1139.73 481.2 1136.6 481.17 1132.76 C481.17 1132.08 481.16 1131.4 481.16 1130.7 C481.15 1128.55 481.12 1126.4 481.1 1124.26 C481.09 1122.79 481.08 1121.32 481.07 1119.86 C481.05 1116.28 481.01 1112.71 480.97 1109.13 C474.46 1109.64 468 1110.19 461.54 1111.13 C436.97 1114.47 413.12 1113.4 388.79 1108.82 C387.78 1108.63 386.77 1108.44 385.73 1108.25 C376.34 1106.39 367.17 1103.77 357.97 1101.13 Z " fill="#000000" transform="translate(462.027099609375,51.86962890625)"/>
<path d="M0 0 C11.99 6.96 22.54 16.03 32.45 25.65 C32.97 26.15 33.49 26.65 34.03 27.17 C48.44 41.05 48.44 41.05 51.76 48.65 C51 56 41.86 62.25 36.64 67.03 C35.22 68.34 33.81 69.66 32.39 70.97 C31.72 71.6 31.04 72.23 30.34 72.88 C18.28 84.16 8.35 96.79 -1.34 110.12 C-1.87 110.83 -2.39 111.54 -2.93 112.28 C-3.37 112.89 -3.81 113.5 -4.26 114.13 C-5.55 115.65 -5.55 115.65 -8.55 117.65 C-12.74 117.58 -14.84 117.29 -17.99 114.46 C-19.88 111.06 -20 109.51 -19.55 105.65 C-18.15 103.22 -16.81 101.17 -15.11 98.96 C-14.66 98.35 -14.2 97.74 -13.74 97.11 C-12.36 95.28 -10.96 93.46 -9.55 91.65 C-8.8 90.68 -8.05 89.72 -7.27 88.72 C-2.47 82.73 2.66 77.06 7.88 71.44 C10.02 69.11 12.09 66.75 14.14 64.34 C17.03 60.99 20.21 58.18 23.58 55.33 C26.19 52.98 28.29 50.42 30.45 47.65 C30.03 47.3 29.62 46.94 29.19 46.58 C25.84 43.68 22.53 40.75 19.33 37.68 C-0.46 18.14 -0.46 18.14 -25.74 9.59 C-27 9.61 -28.25 9.63 -29.55 9.65 C-29.94 10.41 -30.32 11.17 -30.72 11.95 C-31.24 12.95 -31.76 13.94 -32.3 14.96 C-32.81 15.95 -33.32 16.94 -33.85 17.95 C-35.55 20.65 -36.79 22.09 -39.55 23.65 C-43.41 23.58 -45.76 23.18 -48.99 21.03 C-51.24 17.6 -51.08 15.72 -50.55 11.65 C-48.19 3.09 -43.92 -3.71 -36.24 -8.35 C-22.88 -11.97 -11.5 -6.39 0 0 Z " fill="#000000" transform="translate(244.55078125,201.34765625)"/>
<path d="M0 0 C6.42 5.89 10.2 12.68 11.5 21.31 C10.82 24.95 9.75 26.53 7 29 C3.09 30.21 1.05 30.49 -2.69 28.75 C-6.11 24.68 -7.45 20.04 -9 15 C-21.83 15 -34.19 23.35 -44 31 C-44.86 31.67 -45.71 32.33 -46.59 33.02 C-51.93 37.28 -57.03 41.76 -62.06 46.38 C-62.9 47.14 -62.9 47.14 -63.76 47.93 C-66.19 50.18 -68.15 52.23 -70 55 C-69.18 55.81 -68.36 56.61 -67.51 57.44 C-64.4 60.49 -61.31 63.56 -58.21 66.62 C-56.89 67.93 -55.55 69.25 -54.22 70.55 C-45.39 79.21 -37.38 88.08 -30 98 C-29.09 99.2 -28.18 100.41 -27.27 101.61 C-22.64 107.81 -19.87 112.17 -20 120 C-23.17 122.55 -25.29 123.92 -29.38 124.38 C-35.06 122.22 -37.55 117.85 -41 113 C-52.8 96.94 -65.48 82.19 -80.88 69.45 C-90.77 61.2 -90.77 61.2 -91.35 55.62 C-90.17 43.34 -71.38 30.44 -62.38 22.95 C-18.18 -12.93 -18.18 -12.93 0 0 Z " fill="#000000" transform="translate(729,195)"/>
<path d="M0 0 C5.68 4.38 9.82 10.67 11.14 17.78 C11.97 26.54 11.43 33.56 6.14 40.78 C0.33 47.36 -5.59 51.09 -14.34 52.05 C-22.75 52.39 -29.18 50.5 -35.68 45.09 C-41.12 39.93 -44.39 34.04 -45.07 26.52 C-45.23 18.31 -43.58 11.04 -38.52 4.42 C-28.36 -5.62 -12.07 -7.89 0 0 Z " fill="#000000" transform="translate(342.86328125,529.21875)"/>
<path d="M0 0 C7.24 4.94 12 10.77 14.03 19.38 C15.05 27.71 14.08 35.21 9.07 42.06 C3.13 49.05 -1.71 52.44 -10.97 53.38 C-19.14 53.92 -25.76 52.5 -32.22 47.26 C-37.78 42.03 -41.47 35.57 -42.21 27.94 C-42.46 18.8 -40.58 11.81 -34.29 5.01 C-24.93 -3.48 -11.56 -6.16 0 0 Z " fill="#000000" transform="translate(621.97265625,527.6171875)"/>
<path d="M0 0 C5.16 1.92 5.16 1.92 7.19 4.19 C8.4 7.83 8.45 9.56 6.95 13.11 C0.69 24.03 -12.01 30.14 -23.54 34.13 C-25.99 34.72 -28.29 35.01 -30.81 35.19 C-31.9 35.27 -33 35.35 -34.12 35.43 C-49.57 35.99 -63.8 32.64 -76.81 24.19 C-77.46 23.78 -78.1 23.37 -78.77 22.94 C-83.13 19.75 -85.9 15.17 -87.81 10.19 C-87.88 6.48 -87.59 5.05 -85.12 2.31 C-82.04 0.81 -80.21 0.71 -76.81 1.19 C-73.88 2.78 -71.46 4.57 -69.04 6.87 C-60.14 15.3 -49.36 17.58 -37.36 17.47 C-25.65 16.54 -16.54 11.81 -8.25 3.81 C-4.32 0.21 -4.32 0.21 0 0 Z " fill="#000000" transform="translate(506.8125,693.8125)"/>
<path d="M0 0 C7.73 6.28 11.08 12.52 13 22.44 C13.25 27.8 12.37 32.12 9 36.44 C5.43 38.22 1.88 38.17 -2 37.44 C-9.71 33.18 -13.32 25.49 -16 17.44 C-16.51 11.24 -16.76 5.68 -13 0.44 C-8.85 -2.71 -4.46 -2.33 0 0 Z " fill="#000000" transform="translate(402,637.5625)"/>
<path d="M0 0 C3.37 2.73 4.72 4.25 5.41 8.53 C5.76 19.34 2.34 27.14 -5 35 C-8.02 37.74 -9.99 38.43 -14.06 38.44 C-14.92 38.46 -15.78 38.48 -16.66 38.5 C-19 38 -19 38 -20.75 36.16 C-23.87 30.77 -23.73 25.05 -23 19 C-20.32 10.86 -16.02 4.89 -9 0 C-5.74 -1.63 -3.47 -0.88 0 0 Z " fill="#000000" transform="translate(548,637)"/>
</svg>
