<?xml version="1.0" encoding="UTF-8"?>
<!-- Generator: visioncortex VTracer 0.6.3 -->
<svg version="1.1" xmlns="http://www.w3.org/2000/svg" width="1280" height="1280">
<path d="M0 0 C1.06 0.2 2.12 0.41 3.21 0.62 C31.73 6.24 59.49 16.2 86 28 C86.87 28.39 87.74 28.77 88.64 29.17 C90.76 30.11 92.88 31.05 95 32 C95.52 31.32 96.04 30.64 96.58 29.95 C104.97 19.34 114.19 10.71 126 4 C126.91 3.48 127.82 2.95 128.76 2.41 C151.88 -10.01 179.76 -12.03 204.88 -4.88 C213.38 -2.24 221.24 1.67 229 6 C229.99 6.54 230.97 7.09 231.99 7.65 C256.13 21.98 273.59 47.24 281.23 73.95 C289.04 104.79 284.42 138.03 268.5 165.6 C259.6 180.4 259.6 180.4 256 184 C256.15 190.02 259.35 195.12 262 200.38 C275.95 228.89 284.28 258.67 289 290 C289.13 290.86 289.27 291.72 289.4 292.6 C299.91 363.61 278.62 441.98 236.5 499.53 C231.71 506.15 231.71 506.15 231 514.19 C231.18 521.61 230.1 528.49 228.75 535.77 C228.5 537.18 228.25 538.59 228 540 C227.79 541.09 227.79 541.09 227.58 542.2 C226.85 546.19 226.85 546.19 228.07 549.93 C228.61 550.38 229.14 550.84 229.69 551.31 C236.57 558.39 238.1 568.43 238 578 C236.76 595.03 227.87 610.27 217 623 C216.09 624.08 216.09 624.08 215.16 625.18 C213.78 626.8 212.39 628.4 211 630 C212.39 632.94 213.98 635.53 215.87 638.17 C216.44 638.97 217.01 639.77 217.59 640.6 C218.2 641.45 218.81 642.31 219.44 643.19 C269.88 714.8 304.15 800.32 333.56 946.98 C333.92 950.04 333.92 950.04 335 953 C337.34 954.28 339.64 955.4 342.06 956.5 C356.18 963.25 368.41 972.57 380 983 C380.66 983.59 381.32 984.19 382 984.8 C384.09 986.69 386.17 988.59 388.25 990.5 C388.91 991.1 389.56 991.7 390.24 992.32 C390.85 992.88 391.45 993.45 392.08 994.03 C392.62 994.53 393.16 995.03 393.72 995.55 C395 997 395 997 396 1000 C396.77 999.52 397.53 999.03 398.32 998.53 C425.53 982.1 459.12 974.01 490.62 980.12 C502.67 983.23 512.37 989.13 521 998 C521.55 998.52 522.1 999.03 522.66 999.57 C535.55 1012.76 539.3 1033.27 539.31 1050.94 C538.82 1078.69 525.68 1101.18 508.36 1121.93 C504.93 1126.05 501.67 1130.29 498.44 1134.56 C493.82 1140.66 489.1 1146.66 484.31 1152.62 C481.17 1156.52 478.1 1160.46 475.06 1164.44 C465.6 1176.81 455.76 1188.73 445 1200 C444.25 1200.8 443.51 1201.6 442.74 1202.42 C422.66 1223.35 396.19 1237.14 366.98 1238.4 C348.89 1238.71 331.15 1233.91 313.75 1229.51 C311.99 1229.07 310.23 1228.63 308.47 1228.18 C290.04 1223.54 271.67 1218.73 253.29 1213.89 C248.73 1212.69 244.17 1211.49 239.61 1210.29 C238.69 1210.06 237.78 1209.82 236.84 1209.57 C235.01 1209.09 233.18 1208.61 231.34 1208.13 C228.64 1207.42 225.93 1206.71 223.23 1206 C208.07 1202.02 192.91 1198.06 177.75 1194.12 C176.7 1193.85 175.65 1193.58 174.57 1193.3 C169.04 1191.86 163.52 1190.43 158 1189 C158.22 1189.73 158.43 1190.46 158.66 1191.21 C158.94 1192.18 159.22 1193.15 159.5 1194.14 C159.78 1195.1 160.06 1196.05 160.35 1197.04 C161.86 1203.92 160.86 1210.99 157.33 1217.1 C147.83 1230.65 132.13 1235.61 116.51 1238.45 C78.13 1244.94 23.62 1246.65 -9.48 1223.25 C-11.46 1221.6 -13.23 1219.87 -15 1218 C-15.65 1217.38 -16.3 1216.76 -16.97 1216.12 C-27.43 1205.5 -31.82 1191.26 -36.44 1177.44 C-36.77 1176.45 -36.77 1176.45 -37.11 1175.44 C-39.29 1168.88 -41.02 1162.88 -42 1156 C-56.52 1156 -71.04 1156 -86 1156 C-86.33 1158.97 -86.66 1161.94 -87 1165 C-92.13 1189.84 -104.93 1212.8 -126.19 1227.19 C-136.55 1233.92 -147.24 1238.71 -159.06 1242.25 C-159.82 1242.48 -160.58 1242.72 -161.36 1242.96 C-178.62 1247.81 -196.57 1248.49 -214.38 1248.31 C-215.35 1248.31 -216.33 1248.3 -217.34 1248.3 C-277.45 1247.95 -277.45 1247.95 -295.56 1231.19 C-301.75 1224.39 -304.93 1216.39 -305.56 1207.31 C-305.69 1205.54 -305.69 1205.54 -305.82 1203.74 C-305.88 1202.83 -305.94 1201.93 -306 1201 C-316.8 1203.79 -327.59 1206.58 -338.39 1209.38 C-342.25 1210.37 -346.11 1211.37 -349.98 1212.37 C-369.56 1217.44 -389.14 1222.5 -408.71 1227.63 C-411.07 1228.25 -413.44 1228.87 -415.8 1229.49 C-424.6 1231.79 -424.6 1231.79 -433.4 1234.11 C-447.03 1237.7 -460.67 1241.23 -474.41 1244.41 C-475.47 1244.66 -476.52 1244.9 -477.61 1245.15 C-506.87 1251.82 -535.1 1249.73 -561.21 1234.13 C-571.04 1227.93 -579.62 1220 -588 1212 C-588.8 1211.24 -589.61 1210.48 -590.43 1209.69 C-595.62 1204.65 -600.2 1199.27 -604.7 1193.62 C-606.12 1191.85 -607.56 1190.09 -609 1188.34 C-615.73 1180.14 -622.26 1171.81 -628.68 1163.36 C-632.11 1158.84 -635.58 1154.35 -639.06 1149.88 C-639.65 1149.12 -640.23 1148.37 -640.84 1147.59 C-644.06 1143.45 -647.33 1139.34 -650.64 1135.27 C-671.35 1109.72 -685.07 1084.84 -683 1051 C-680.87 1031.77 -673.04 1014.44 -658 1002 C-639.13 988.17 -615.84 987.41 -593.45 990.59 C-570.4 994.42 -548.4 1003.62 -530 1018 C-526.35 1016.5 -524.37 1014.41 -521.81 1011.44 C-508.1 995.92 -492.41 984.99 -474.93 974.03 C-473.67 973.22 -473.67 973.22 -472.37 972.39 C-470 971 -470 971 -467.86 970.23 C-465.62 969.52 -465.62 969.52 -463 967 C-461.86 962.77 -461.5 958.53 -461.18 954.18 C-460.88 950.52 -460.39 946.88 -459.92 943.24 C-459.73 941.71 -459.54 940.18 -459.35 938.65 C-452.62 884.96 -436.25 834.96 -416 785 C-421.46 787.62 -426.67 790.19 -431.5 793.88 C-432.41 794.55 -433.31 795.23 -434.25 795.93 C-435.16 796.62 -436.06 797.3 -437 798 C-438.83 799.32 -440.66 800.63 -442.5 801.94 C-443.69 802.79 -443.69 802.79 -444.91 803.65 C-447 805 -447 805 -450 806 C-452.19 804.56 -452.19 804.56 -454 803 C-453.2 796.39 -448.99 793.95 -444 790 C-438.72 785.93 -433.37 781.95 -428 778 C-430.38 776.44 -432.78 774.9 -435.19 773.38 C-435.86 772.93 -436.53 772.48 -437.23 772.02 C-438.22 771.4 -438.22 771.4 -439.23 770.77 C-439.83 770.39 -440.43 770 -441.06 769.6 C-443.93 768.71 -445.37 769.67 -448 771 C-449.49 771.86 -450.95 772.75 -452.4 773.68 C-453.21 774.2 -454.02 774.71 -454.85 775.25 C-455.68 775.78 -456.52 776.32 -457.38 776.88 C-473.24 787.06 -473.24 787.06 -476.94 786.75 C-477.62 786.5 -478.3 786.25 -479 786 C-479.75 783.75 -479.75 783.75 -480 781 C-477.39 777.93 -474.48 775.88 -471.05 773.8 C-470.12 773.23 -469.19 772.66 -468.23 772.08 C-467.27 771.49 -466.31 770.91 -465.31 770.31 C-463.39 769.14 -461.47 767.97 -459.55 766.8 C-458.7 766.29 -457.85 765.77 -456.98 765.24 C-455.08 764.15 -455.08 764.15 -454 763 C-462.73 756.3 -462.73 756.3 -472.95 754.46 C-475.8 756.11 -478.35 758.03 -481 760 C-483.74 761.52 -486.55 762.88 -489.38 764.25 C-490.05 764.59 -490.73 764.93 -491.43 765.28 C-501.95 770.54 -501.95 770.54 -507 769 C-508 768 -508 768 -508.06 765.44 C-508.04 764.63 -508.02 763.83 -508 763 C-506.96 762.49 -505.92 761.98 -504.85 761.46 C-497.66 757.92 -490.59 754.35 -483.82 750.03 C-482 749 -482 749 -480 749 C-480 748.34 -480 747.68 -480 747 C-480.84 746.76 -481.69 746.51 -482.56 746.26 C-487.02 744.62 -490.88 742.2 -494.88 739.66 C-497.48 738.09 -499.44 737.01 -502.51 736.97 C-505.94 738.39 -508.8 740.42 -511.75 742.62 C-512.37 743.07 -512.98 743.52 -513.61 743.98 C-517.87 747.09 -522 750.33 -526.04 753.72 C-528.41 755.26 -530.19 755.78 -533 756 C-533.99 755.34 -534.98 754.68 -536 754 C-536.4 751.24 -536.33 749.61 -535 747.15 C-528.94 740.26 -521.47 735.23 -514 730 C-517.55 727 -521.15 724.81 -525.96 725.13 C-528.18 725.48 -530.36 725.91 -532.56 726.38 C-548.33 729.32 -548.33 729.32 -555 728 C-556.85 726.11 -556.85 726.11 -558 724 C-557.94 721.88 -557.94 721.88 -557 720 C-553.87 718.05 -550.99 717.57 -547.36 717.15 C-545.75 716.96 -545.75 716.96 -544.12 716.76 C-542.45 716.57 -542.45 716.57 -540.75 716.38 C-539.62 716.24 -538.5 716.11 -537.34 715.97 C-534.56 715.64 -531.78 715.32 -529 715 C-528.9 714.24 -528.79 713.47 -528.69 712.69 C-527.94 709.76 -527.37 708.8 -525 707 C-523.17 706.22 -523.17 706.22 -521.11 705.64 C-520.35 705.42 -519.58 705.19 -518.79 704.96 C-517.57 704.61 -517.57 704.61 -516.31 704.25 C-507.19 701.5 -498.58 698.13 -490 694 C-488.92 693.48 -487.83 692.96 -486.71 692.42 C-472.55 685.19 -459.88 675.65 -448.56 664.53 C-446.97 662.97 -445.35 661.44 -443.73 659.92 C-430.9 647.68 -420.87 633.31 -412 618 C-411.58 617.34 -411.16 616.68 -410.72 616 C-409.54 613.99 -408.62 612.25 -408 610 C-408.87 607.11 -409.58 605.46 -411.12 603 C-411.81 601.78 -412.49 600.56 -413.16 599.33 C-413.77 598.23 -414.38 597.13 -415 596 C-417.27 590.42 -417.42 584.82 -416 579 C-415.34 578.01 -414.68 577.02 -414 576 C-413.43 571.07 -414.47 568.66 -417.31 564.69 C-424.12 555.14 -424.36 546.82 -423.53 535.44 C-423.33 530.02 -423.54 526.84 -427.22 522.7 C-428.48 521.46 -429.73 520.23 -431 519 C-465.81 475.48 -474.52 414.07 -474.31 360.06 C-474.31 359.04 -474.31 358.03 -474.31 356.98 C-474.19 316.31 -467.66 276.94 -456 238 C-463.56 231.08 -463.56 231.08 -471.25 224.31 C-472.5 223.21 -473.75 222.11 -475 221 C-475.55 220.52 -476.1 220.04 -476.66 219.54 C-496.81 200.73 -509.7 170.91 -511.13 143.59 C-512.21 107.5 -501.03 76.12 -476.36 49.44 C-467.36 39.99 -457.42 32.34 -446 26 C-445.41 25.67 -444.82 25.34 -444.21 25 C-412.98 7.73 -374.71 1.38 -340.05 11.07 C-322.93 16.4 -309.04 25.05 -296 37.21 C-294.12 39.05 -294.12 39.05 -292 40 C-290.09 39.33 -290.09 39.33 -287.99 38.19 C-286.77 37.57 -286.77 37.57 -285.53 36.94 C-284.22 36.26 -284.22 36.26 -282.88 35.56 C-281.97 35.1 -281.06 34.64 -280.13 34.17 C-276.06 32.11 -272.02 30.02 -268 27.87 C-189.44 -13.65 -85.59 -16.86 0 0 Z M111.4 38.35 C110.94 38.89 110.48 39.44 110 40 C112.64 43.03 115.75 44.65 119.25 46.56 C125.39 49.97 131.23 53.71 137.02 57.67 C139.94 59.66 142.78 61.54 146 63 C146.42 62.48 146.85 61.96 147.29 61.43 C154.77 52.53 161.74 47.74 173.55 46.68 C187.72 46.25 199.58 50.44 210.18 59.96 C222.4 72.78 229.72 90.22 229.68 107.91 C229.36 115.24 227.31 122.09 224.96 129.01 C223.31 133.76 223.31 133.76 223.51 138.68 C225.52 141.81 227.68 144.8 229.94 147.75 C234.8 154.2 239.23 160.85 243.47 167.72 C244.6 169.51 245.79 171.26 247 173 C247.66 173 248.32 173 249 173 C266.88 152.89 274.65 121.64 273.18 95.36 C271.29 69.98 260.75 47.97 243 30 C242.13 29.02 242.13 29.02 241.24 28.02 C227.63 13.04 205.81 4.89 186 3.72 C156.02 2.64 130.76 15.96 111.4 38.35 Z M-190.98 18.49 C-195.99 19.58 -201 20.62 -206.01 21.64 C-209.73 22.4 -213.44 23.17 -217.15 23.94 C-218.93 24.3 -220.71 24.67 -222.49 25.03 C-239.54 28.47 -256.15 33.27 -271.5 41.62 C-272.92 42.38 -272.92 42.38 -274.38 43.16 C-283.49 48.1 -292.16 53.68 -300.75 59.48 C-302.87 60.92 -305.01 62.33 -307.16 63.73 C-322.46 73.75 -336.74 84.91 -350.14 97.37 C-352.66 99.69 -355.22 101.95 -357.81 104.19 C-361.19 107.18 -364.17 110.32 -367.08 113.77 C-369.35 116.4 -371.74 118.91 -374.12 121.44 C-412.14 162.42 -436.82 216.23 -450 270 C-450.24 270.96 -450.47 271.91 -450.72 272.9 C-457.63 301.17 -460.23 329.9 -460.25 358.94 C-460.25 360 -460.25 361.06 -460.25 362.16 C-460.24 379.62 -459.54 396.7 -457 414 C-456.78 415.48 -456.78 415.48 -456.56 417 C-450.62 456 -437.3 493.75 -409.46 522.49 C-407.96 524.04 -406.49 525.61 -405.01 527.18 C-397.31 535.24 -388.91 542.14 -379.86 548.65 C-378.67 549.52 -377.49 550.41 -376.34 551.33 C-374.67 552.67 -374.67 552.67 -372 554 C-369.38 553.54 -369.38 553.54 -367 552 C-365.7 551.32 -365.7 551.32 -364.38 550.63 C-363.45 550.14 -362.52 549.64 -361.56 549.12 C-336.12 536.3 -307.82 539.79 -281.75 548.38 C-269.84 552.35 -258.38 557.15 -246.92 562.23 C-226.74 571.17 -206.56 577.72 -184.93 582.01 C-167.16 585.55 -150.08 590.59 -139 606 C-137.88 608.08 -136.8 610.18 -135.77 612.3 C-134.98 613.91 -134.98 613.91 -134.18 615.54 C-133.6 616.76 -133.6 616.76 -133 618 C-47.45 619.5 46.65 606.6 187 533 C187.54 532.52 188.08 532.05 188.64 531.55 C240.95 485.08 272.11 416.14 276.35 346.62 C278.87 297.34 270.05 248.35 248 204 C247.56 203.1 247.12 202.21 246.67 201.28 C236.98 181.69 225.84 162.95 212 146 C211.24 145.05 210.48 144.1 209.7 143.12 C205.33 137.7 200.79 132.46 196.1 127.32 C194.29 125.32 192.55 123.3 190.81 121.25 C187.39 117.32 183.74 113.63 180.06 109.94 C179.49 109.36 178.92 108.78 178.33 108.19 C174.05 103.92 169.59 99.93 165 96 C164.06 95.19 164.06 95.19 163.1 94.36 C94.15 35.48 3.8 6.68 -86.25 6.81 C-87.02 6.81 -87.8 6.81 -88.59 6.81 C-123.26 6.89 -157.15 11.14 -190.98 18.49 Z M-466 56 C-466.68 56.62 -467.37 57.25 -468.07 57.89 C-487.41 76 -498.09 104.32 -499.25 130.43 C-499.98 160.51 -489.12 188.45 -468.58 210.4 C-460.47 219.1 -460.47 219.1 -450 224 C-449.74 223.36 -449.48 222.71 -449.21 222.05 C-443.94 209.11 -438.53 196.36 -432 184 C-431.4 182.85 -431.4 182.85 -430.78 181.68 C-428.21 176.78 -425.61 171.88 -423 167 C-423.73 166.27 -424.47 165.53 -425.23 164.78 C-426.14 163.86 -427.06 162.94 -428 162 C-428.73 161.28 -429.46 160.56 -430.21 159.82 C-440.75 148.84 -446.56 135.24 -447.38 120 C-446.58 105.1 -440.93 90.99 -430.51 80.25 C-418.88 69.82 -405.5 64.55 -389.86 64.79 C-375.53 65.85 -363.21 70.85 -353 81 C-349.37 79.98 -347.08 78.3 -344.35 75.81 C-340.21 72.13 -335.88 68.84 -331.38 65.62 C-330.6 65.07 -329.83 64.51 -329.03 63.94 C-322.17 59.05 -315.15 54.45 -308 50 C-320.31 33.21 -344.28 25 -364.01 21.66 C-400.82 16.53 -439.5 30.24 -466 56 Z M161.94 67.5 C159.59 70 159.59 70 160 74 C162.04 76.03 164.02 77.78 166.25 79.56 C167.56 80.65 168.86 81.73 170.16 82.82 C170.82 83.36 171.47 83.9 172.15 84.45 C180.61 91.51 188.43 99.31 196.25 107.06 C197.09 107.89 197.93 108.72 198.8 109.57 C203.74 114.5 208.19 119.58 212.4 125.16 C213.19 126.07 213.19 126.07 214 127 C214.66 127 215.32 127 216 127 C216.65 125.42 217.29 123.83 217.94 122.25 C218.48 120.93 218.48 120.93 219.03 119.58 C223.09 108.8 221.65 97.34 217 87 C211.14 75.1 204.36 67.12 192 62 C181.49 58.5 170.37 60.62 161.94 67.5 Z M-429.25 92.79 C-437.69 103.43 -439.45 115.86 -438 129 C-435.36 139.32 -428.98 149.07 -420 155 C-417.88 155.68 -417.88 155.68 -416 156 C-415.42 155.1 -414.83 154.21 -414.23 153.28 C-405.38 139.76 -396.03 126.85 -385 115 C-383.91 113.73 -382.83 112.46 -381.75 111.19 C-376.51 105.15 -370.69 99.61 -365 94 C-367.55 87.71 -373.96 84.35 -379.93 81.7 C-398.31 74.87 -415.49 78.28 -429.25 92.79 Z M211.68 528.23 C211.13 528.81 210.58 529.38 210.01 529.96 C209.39 530.6 208.77 531.23 208.14 531.88 C207.47 532.56 206.81 533.24 206.12 533.94 C194.85 545.32 182.33 555.12 169 564 C170.72 573.29 172.81 582.45 175.06 591.62 C178.67 606.51 180.39 620.73 181 636 C186.11 634.46 189.47 631.29 193.38 627.81 C194.01 627.26 194.64 626.71 195.3 626.14 C209.89 613.32 224.17 597.62 226.85 577.56 C227.27 570.31 226.9 564.71 222 559 C219.13 556.34 216.91 554.58 213 554 C211.62 548.25 212.3 542.93 212.94 537.12 C213.04 536.15 213.14 535.18 213.24 534.17 C213.49 531.78 213.74 529.39 214 527 C212.82 526.89 212.82 526.89 211.68 528.23 Z M-408 544 C-408.61 552.05 -406.02 558.28 -402.89 565.6 C-401.29 569.92 -401.17 574 -402.93 578.23 C-403.49 579.36 -403.49 579.36 -404.06 580.5 C-406.36 585.23 -406.27 587.9 -405 593 C-403.58 595.91 -403.58 595.91 -402 598 C-399.81 595.22 -398.1 592.45 -396.51 589.3 C-396.05 588.4 -395.59 587.5 -395.12 586.57 C-394.17 584.71 -393.23 582.84 -392.29 580.97 C-389.61 575.75 -386.81 571.15 -383.01 566.67 C-382.68 566.12 -382.35 565.57 -382 565 C-383.35 560.95 -386.05 559.61 -389.44 557.31 C-394.88 553.54 -400.1 549.61 -405.21 545.4 C-406.75 543.9 -406.75 543.9 -408 544 Z M-367.7 570.32 C-369.1 572.12 -370.01 573.95 -371 576 C-370.17 576.29 -370.17 576.29 -369.32 576.59 C-340.76 586.7 -313.7 599.91 -286.75 613.68 C-264.76 624.88 -245.17 632.58 -220.25 632.56 C-210.76 632.58 -202.05 632.78 -192.82 635.36 C-189.75 636.06 -187.14 636.24 -184 636 C-180.01 632.89 -177.75 629.06 -175.19 624.8 C-172.99 621.47 -170.71 620.24 -167 619 C-164.27 618.77 -161.55 618.58 -158.81 618.44 C-158.06 618.39 -157.31 618.35 -156.54 618.31 C-154.69 618.2 -152.85 618.1 -151 618 C-155.6 608.41 -162.54 604.88 -172.27 601.22 C-178.05 599.33 -183.92 598.17 -189.88 597.03 C-212.36 592.71 -232.57 585.39 -253.18 575.52 C-268.15 568.36 -282.94 561.41 -299 557 C-299.66 556.81 -300.32 556.63 -301 556.44 C-323.84 550.2 -350.62 552.52 -367.7 570.32 Z M145 577.5 C128.76 585.72 112.28 592.25 95 598 C94.83 604.92 94.9 611.18 96.69 617.88 C96.95 618.89 96.95 618.89 97.22 619.92 C98.42 624.4 100.01 628.63 101.75 632.94 C105.79 643.83 104.64 655.12 102.45 666.33 C101.79 670.26 101.87 674.02 102 678 C109.15 676.03 115.9 673.54 122.69 670.56 C123.67 670.13 124.65 669.7 125.67 669.26 C133 666 140.19 662.5 147.31 658.81 C148.24 658.34 149.16 657.86 150.11 657.38 C161.45 651.88 161.45 651.88 169.63 642.89 C169.8 641.88 169.96 640.86 170.12 639.81 C170.31 638.69 170.49 637.56 170.67 636.4 C172.1 621.61 168.64 610.01 162.92 596.56 C160.86 591.72 158.95 586.84 157.06 581.94 C156.76 581.15 156.45 580.35 156.13 579.54 C155.42 577.69 154.71 575.85 154 574 C150.66 574 147.91 575.99 145 577.5 Z M-379 588 C-379.4 588.89 -379.8 589.77 -380.21 590.69 C-381.7 594.02 -383.21 597.36 -384.71 600.7 C-385.35 602.13 -386 603.57 -386.64 605 C-390.27 613.08 -393.93 621.12 -398 629 C-365.67 648.9 -331.85 665.87 -298 683 C-296.52 683.75 -296.52 683.75 -295.02 684.51 C-292.08 686 -289.15 687.48 -286.21 688.96 C-285.33 689.4 -284.46 689.85 -283.56 690.3 C-268.22 698 -247.52 707.88 -229.96 706.88 C-226.93 705.52 -225.82 703.31 -224.02 700.56 C-223.66 700 -223.29 699.45 -222.91 698.88 C-221.72 697.07 -220.55 695.25 -219.38 693.44 C-218.56 692.19 -217.75 690.95 -216.93 689.71 C-211.87 681.98 -206.89 674.21 -202.06 666.34 C-199.5 662.19 -196.85 658.11 -194.18 654.04 C-192.83 652.1 -192.83 652.1 -193 650 C-195.74 649.23 -198.19 648.87 -201.04 648.86 C-201.83 648.85 -202.61 648.84 -203.42 648.84 C-204.27 648.83 -205.11 648.83 -205.98 648.82 C-207.8 648.8 -209.63 648.78 -211.45 648.75 C-214.3 648.72 -217.15 648.69 -219.99 648.67 C-235.65 648.58 -250.51 647.31 -264.81 640.38 C-265.55 640.03 -266.28 639.69 -267.03 639.34 C-269.37 638.25 -271.68 637.13 -274 636 C-274.79 635.62 -275.57 635.24 -276.39 634.85 C-285 630.69 -293.49 626.32 -301.86 621.68 C-321.22 610.97 -340.89 601.56 -361.56 593.69 C-362.32 593.4 -363.08 593.11 -363.86 592.81 C-366.01 592 -368.16 591.19 -370.32 590.39 C-370.96 590.14 -371.61 589.9 -372.28 589.65 C-375.55 588.4 -375.55 588.4 -379 588 Z M70.36 604.64 C69.68 604.81 69 604.99 68.3 605.16 C65.4 605.89 62.5 606.62 59.6 607.36 C50.42 609.67 41.23 611.92 32 614 C32.42 619.09 33.14 623.76 34.5 628.69 C37.35 639.91 37.07 649.75 35.13 661.02 C34.04 667.69 33.72 674.19 33.75 680.94 C33.75 681.87 33.76 682.8 33.76 683.75 C33.82 687.95 33.94 691.91 35 696 C42.76 695.42 50.12 693.64 57.64 691.73 C59.73 691.19 61.83 690.67 63.92 690.15 C72.37 688.02 80.7 685.66 89 683 C89.68 679.25 90.34 675.5 91 671.75 C91.29 670.18 91.29 670.18 91.58 668.59 C93.95 654.87 93.35 645.47 87.02 633.14 C79.79 619.03 79.79 619.03 79 612 C78.89 611.16 78.79 610.32 78.68 609.46 C78.42 607.31 78.21 605.16 78 603 C75.5 603 72.75 604.04 70.36 604.64 Z M10.91 617.61 C10.05 617.74 9.18 617.88 8.28 618.02 C6.86 618.24 6.86 618.24 5.41 618.46 C3.95 618.69 3.95 618.69 2.46 618.92 C0.39 619.24 -1.68 619.56 -3.75 619.88 C-6.89 620.37 -10.03 620.85 -13.17 621.34 C-15.19 621.65 -17.2 621.96 -19.21 622.27 C-20.14 622.42 -21.07 622.56 -22.03 622.71 C-28.06 623.65 -34.03 624.76 -40 626 C-39.88 631.5 -39.76 636.99 -39.63 642.49 C-39.58 644.35 -39.54 646.22 -39.5 648.08 C-39.22 661.22 -39.22 661.22 -38.21 674.32 C-37.75 680.26 -37.9 686.23 -37.94 692.19 C-37.94 693.53 -37.95 694.88 -37.95 696.23 C-37.96 699.49 -37.98 702.74 -38 706 C-26.46 705.5 -15.09 704.4 -3.65 702.84 C-1.08 702.49 1.49 702.15 4.06 701.82 C5.7 701.6 7.35 701.38 8.99 701.16 C10.14 701 10.14 701 11.3 700.85 C14.33 700.44 17.1 699.97 20 699 C21.51 689.39 22.4 679.77 23.12 670.06 C23.26 668.32 23.26 668.32 23.39 666.55 C24.03 657.66 24.47 649.62 22.25 640.94 C22.07 640.21 21.89 639.49 21.71 638.74 C19.91 631.47 17.98 624.23 16 617 C14.28 617 12.61 617.35 10.91 617.61 Z M-71.84 628.62 C-72.67 628.69 -73.51 628.75 -74.38 628.82 C-76.14 628.95 -77.91 629.09 -79.68 629.23 C-82.36 629.44 -85.04 629.64 -87.73 629.85 C-89.45 629.98 -91.17 630.11 -92.9 630.25 C-94.09 630.34 -94.09 630.34 -95.3 630.43 C-100.22 630.82 -105.1 631.35 -110 632 C-110.09 633.15 -110.09 633.15 -110.19 634.32 C-111.18 643.25 -113.51 651.19 -116.52 659.63 C-116.98 660.91 -116.98 660.91 -117.44 662.21 C-117.72 662.97 -117.99 663.72 -118.28 664.5 C-119.99 670.42 -120.18 676.44 -120.32 682.56 C-120.34 683.35 -120.36 684.14 -120.38 684.95 C-120.44 687.45 -120.5 689.94 -120.56 692.44 C-120.61 694.14 -120.65 695.84 -120.69 697.54 C-120.8 701.7 -120.9 705.85 -121 710 C-104.81 710.21 -88.62 710.2 -72.45 709.42 C-70.94 709.35 -69.44 709.29 -67.93 709.23 C-65.82 709.15 -63.71 709.04 -61.61 708.93 C-60.4 708.87 -59.2 708.81 -57.95 708.75 C-54.83 708.28 -54.83 708.28 -53.17 705.65 C-46.81 691.29 -44.97 680.88 -50.57 665.94 C-54.8 653.87 -55.61 640.64 -57 628 C-61.98 627.92 -66.88 628.23 -71.84 628.62 Z M-164.83 637.2 C-165.93 639.11 -166.99 641.04 -168 643 C-169.21 644.85 -170.44 646.68 -171.69 648.5 C-172.35 649.5 -173.02 650.51 -173.7 651.54 C-176.43 655.66 -179.21 659.74 -182 663.81 C-182.54 664.6 -183.08 665.39 -183.64 666.21 C-186.83 670.87 -190.05 675.5 -193.29 680.12 C-194.37 681.67 -194.37 681.67 -195.47 683.24 C-196.88 685.25 -198.29 687.26 -199.71 689.26 C-202.83 693.72 -205.78 698.02 -208 703 C-201.54 704.52 -195.14 705.65 -188.56 706.5 C-187.58 706.63 -186.6 706.75 -185.58 706.88 C-160.34 710.58 -160.34 710.58 -135 710 C-132.73 706.59 -132.76 705.37 -132.81 701.38 C-132.82 700.39 -132.83 699.41 -132.83 698.4 C-132.96 695.8 -133.18 693.3 -133.49 690.73 C-135.5 673.41 -134.43 656.03 -126.64 640.18 C-125.78 637.24 -126.44 634.97 -127 632 C-131.55 631.73 -136.1 631.53 -140.66 631.4 C-142.21 631.34 -143.75 631.27 -145.3 631.17 C-156.48 630.4 -156.48 630.4 -164.83 637.2 Z M-407 642 C-408.88 644.38 -410.67 646.78 -412.44 649.25 C-418.62 657.7 -425.26 665.44 -432.82 672.71 C-435.23 674.71 -435.23 674.71 -435 677 C-434.03 677.52 -433.06 678.04 -432.06 678.58 C-413.63 688.64 -397.4 700.39 -382.68 715.4 C-361.25 737.22 -337.62 748.69 -308.41 757.08 C-296.64 760.5 -286.16 765.04 -276 772 C-261.59 757.27 -250.22 740.2 -239 723 C-241.55 720.45 -243.8 720.39 -247.27 719.81 C-272.05 715.67 -291.52 703.29 -312.16 689.74 C-337.36 673.25 -364.38 657.03 -392.82 646.81 C-396.22 645.55 -399.57 644.15 -402.92 642.76 C-404.94 641.89 -404.94 641.89 -407 642 Z M192.45 645.64 C181.07 654.28 169.45 662 157 669 C156.18 669.47 155.36 669.93 154.51 670.41 C76 714.39 -23.16 723.47 -111.75 723.32 C-114.71 723.31 -117.68 723.32 -120.64 723.34 C-146.54 723.49 -171.97 722.04 -197.5 717.31 C-199.97 716.87 -202.44 716.43 -204.91 715.99 C-205.94 715.8 -206.98 715.61 -208.04 715.41 C-211.13 714.98 -213.89 714.71 -217 715 C-218.72 716.27 -218.72 716.27 -219.86 718.19 C-220.56 719.23 -220.56 719.23 -221.28 720.28 C-221.77 721.03 -222.25 721.79 -222.75 722.56 C-223.27 723.34 -223.79 724.11 -224.33 724.91 C-225.91 727.26 -227.46 729.63 -229 732 C-230.62 734.46 -232.25 736.92 -233.88 739.38 C-234.27 739.97 -234.66 740.57 -235.07 741.19 C-243.88 754.42 -253.46 767.1 -264 779 C-264.45 779.52 -264.91 780.03 -265.38 780.56 C-277.2 793.95 -290.59 805.08 -305.31 815.12 C-305.93 815.55 -306.54 815.97 -307.18 816.4 C-310.48 818.59 -313.69 820.37 -317.37 821.84 C-325.54 824.92 -325.54 824.92 -330.65 831.56 C-331.36 834.29 -331.79 837.02 -332.21 839.8 C-333.1 845.53 -335.8 850.15 -338.51 855.21 C-340.08 857.96 -340.08 857.96 -341 861 C-347.88 860.12 -347.88 860.12 -349 859 C-348.48 852.55 -346.18 847.58 -343.47 841.79 C-341.57 837.37 -340.81 832.72 -340 828 C-343.62 825.83 -347.25 823.66 -350.88 821.5 C-351.91 820.88 -352.94 820.26 -354 819.62 C-355.48 818.74 -355.48 818.74 -356.99 817.84 C-357.9 817.3 -358.81 816.75 -359.75 816.19 C-361.87 814.84 -361.87 814.84 -364 815 C-364.27 815.6 -364.54 816.2 -364.82 816.82 C-366.08 819.57 -367.35 822.32 -368.62 825.06 C-369.05 826.01 -369.48 826.95 -369.92 827.92 C-372.65 833.77 -375.56 838.3 -380 843 C-381.65 842.67 -383.3 842.34 -385 842 C-386.21 838.47 -386.06 838.11 -384.27 834.46 C-383.46 833.09 -382.64 831.73 -381.81 830.38 C-375.51 820.83 -375.51 820.83 -373.14 810.09 C-374.41 807 -376.38 806.18 -379.24 804.51 C-380.31 803.89 -381.37 803.27 -382.47 802.62 C-383.6 801.98 -384.72 801.35 -385.88 800.69 C-386.99 800.03 -388.11 799.37 -389.25 798.69 C-393.54 796.18 -393.54 796.18 -398 794 C-401.08 794.66 -401.08 794.66 -402.07 796.87 C-402.56 798.11 -402.56 798.11 -403.06 799.37 C-403.44 800.32 -403.82 801.27 -404.21 802.25 C-404.61 803.3 -405.02 804.35 -405.44 805.44 C-406.09 807.1 -406.09 807.1 -406.75 808.79 C-426.58 860.09 -442.79 913.44 -448.62 968.29 C-448.83 970.13 -448.83 970.13 -449.04 972.02 C-449.16 973.1 -449.27 974.19 -449.39 975.31 C-450.06 978.25 -450.63 979.2 -453 981 C-455.19 982.36 -457.39 983.66 -459.62 984.94 C-480.52 997.22 -501.04 1012.63 -518 1030 C-517.3 1030.84 -516.6 1031.67 -515.88 1032.54 C-510.81 1038.7 -506.17 1044.89 -502.38 1051.94 C-502.04 1052.54 -501.72 1053.14 -501.38 1053.76 C-499.28 1057.81 -498.34 1061.46 -498 1066 C-498.96 1068.8 -499.35 1069.68 -502 1071 C-504.87 1071.31 -504.87 1071.31 -508 1071 C-511.57 1068.07 -513.38 1064.68 -515.5 1060.62 C-529.7 1034.77 -556.27 1017.98 -584.06 1009.77 C-603.6 1004.33 -627.36 1000.09 -646.62 1008.61 C-659.78 1016.3 -667.44 1029.11 -671.81 1043.31 C-675.16 1058.1 -673.79 1073.74 -669 1088 C-668.66 1089.03 -668.32 1090.06 -667.97 1091.12 C-663.07 1104.26 -653.98 1115.42 -645 1126 C-643.5 1127.83 -642 1129.66 -640.5 1131.5 C-639.75 1132.41 -639.01 1133.32 -638.24 1134.26 C-636.77 1136.06 -635.29 1137.87 -633.82 1139.68 C-629.3 1145.23 -624.72 1150.72 -620.08 1156.16 C-617.19 1159.57 -614.36 1163.02 -611.56 1166.5 C-607.64 1171.33 -603.49 1175.89 -599.24 1180.43 C-596.66 1183.19 -594.15 1185.96 -591.75 1188.88 C-589.15 1191.95 -586.25 1194.53 -583.18 1197.13 C-581.68 1198.41 -580.22 1199.74 -578.79 1201.09 C-559.63 1219.17 -535.35 1230.94 -508.81 1231.31 C-507.74 1231.34 -507.74 1231.34 -506.64 1231.37 C-491.65 1231.35 -476.66 1226.82 -462.27 1223.05 C-460.39 1222.56 -458.51 1222.07 -456.63 1221.59 C-452.71 1220.57 -448.8 1219.56 -444.88 1218.53 C-439.18 1217.05 -433.48 1215.57 -427.78 1214.1 C-406.4 1208.56 -385.04 1202.98 -363.68 1197.37 C-354.24 1194.89 -344.8 1192.42 -335.34 1189.98 C-329.45 1188.46 -323.56 1186.91 -317.67 1185.35 C-315.38 1184.75 -313.08 1184.15 -310.77 1183.57 C-307.67 1182.77 -304.57 1181.95 -301.48 1181.12 C-300.61 1180.91 -299.73 1180.69 -298.83 1180.47 C-292.99 1178.85 -288.25 1176.29 -285 1171 C-283.8 1165.92 -284.12 1162.24 -285.51 1157.25 C-285.69 1156.61 -285.86 1155.97 -286.04 1155.31 C-286.62 1153.18 -287.23 1151.06 -287.83 1148.93 C-288.25 1147.41 -288.67 1145.88 -289.09 1144.36 C-289.99 1141.09 -290.9 1137.82 -291.82 1134.55 C-293.26 1129.41 -294.69 1124.25 -296.11 1119.1 C-297.58 1113.77 -299.06 1108.44 -300.54 1103.12 C-305.22 1086.24 -309.81 1069.35 -314.39 1052.45 C-316.17 1045.85 -317.96 1039.26 -319.75 1032.66 C-320.27 1030.76 -320.78 1028.86 -321.3 1026.95 C-321.61 1025.8 -321.93 1024.64 -322.25 1023.45 C-322.54 1022.36 -322.84 1021.28 -323.14 1020.16 C-323.71 1018.05 -324.29 1015.95 -324.88 1013.85 C-325.15 1012.87 -325.42 1011.9 -325.7 1010.89 C-325.94 1010.04 -326.18 1009.19 -326.43 1008.31 C-327.24 1005.02 -327.55 1002.35 -327 999 C-324.22 995.71 -322.68 995.06 -318.38 994.69 C-315 995 -315 995 -312 996 C-311.24 997.8 -311.24 997.8 -310.65 1000.3 C-310.4 1001.31 -310.15 1002.31 -309.9 1003.35 C-309.6 1004.55 -309.31 1005.76 -309 1007 C-308.19 1010.07 -307.35 1013.13 -306.51 1016.19 C-306.03 1017.95 -305.56 1019.71 -305.08 1021.48 C-303.47 1027.43 -301.86 1033.37 -300.25 1039.32 C-299.67 1041.46 -299.09 1043.59 -298.52 1045.73 C-298.22 1046.8 -297.93 1047.87 -297.63 1048.98 C-297.05 1051.16 -296.46 1053.34 -295.87 1055.52 C-286.95 1088.47 -286.95 1088.47 -277.98 1121.4 C-277.8 1122.07 -277.62 1122.73 -277.43 1123.41 C-275.66 1129.9 -273.88 1136.39 -272.1 1142.87 C-271.56 1144.87 -271.01 1146.86 -270.46 1148.86 C-270.22 1149.73 -269.98 1150.6 -269.74 1151.5 C-266.98 1161.6 -264.83 1170.7 -270.11 1180.36 C-272.86 1184.21 -276.15 1187.43 -279.63 1190.63 C-285.39 1195.97 -288.68 1201.53 -289.15 1209.51 C-288.84 1214.59 -286.88 1218.13 -283.3 1221.69 C-267.6 1234.43 -244.83 1233.48 -225.71 1233.34 C-222.37 1233.31 -219.03 1233.32 -215.7 1233.32 C-182.19 1233.28 -149.14 1228.23 -124 1204 C-108.77 1187.11 -103.9 1166.19 -101.06 1144.24 C-100.89 1142.93 -100.72 1141.62 -100.54 1140.27 C-98.88 1127.43 -97.45 1114.56 -96.08 1101.68 C-95.64 1097.59 -95.19 1093.5 -94.75 1089.42 C-93.49 1077.82 -92.23 1066.23 -90.99 1054.64 C-90.3 1048.17 -89.6 1041.71 -88.89 1035.24 C-88.51 1031.85 -88.15 1028.45 -87.79 1025.05 C-87.39 1021.29 -86.98 1017.53 -86.56 1013.77 C-86.39 1012.11 -86.39 1012.11 -86.22 1010.41 C-85.61 1005.06 -85.02 1000.6 -82 996 C-79.15 994.57 -77.17 994.69 -74 995 C-71.12 996.31 -71.12 996.31 -69 999 C-68.11 1006.81 -69.38 1014.93 -70.29 1022.69 C-70.42 1023.91 -70.56 1025.13 -70.7 1026.38 C-71.07 1029.68 -71.45 1032.99 -71.83 1036.29 C-72.22 1039.76 -72.61 1043.23 -73 1046.69 C-73.74 1053.25 -74.49 1059.8 -75.24 1066.35 C-76.33 1075.99 -77.42 1085.63 -78.51 1095.26 C-78.67 1096.68 -78.84 1098.11 -79 1099.53 C-79.07 1100.22 -79.15 1100.92 -79.23 1101.63 C-79.7 1105.76 -80.17 1109.88 -80.64 1114 C-80.86 1115.95 -81.08 1117.89 -81.3 1119.83 C-81.57 1122.2 -81.84 1124.57 -82.11 1126.94 C-82.23 1127.98 -82.35 1129.02 -82.47 1130.09 C-82.57 1130.99 -82.67 1131.9 -82.78 1132.83 C-83.03 1134.97 -83.03 1134.97 -83 1137 C-70.79 1137.33 -58.58 1137.66 -46 1138 C-46.4 1135.34 -46.8 1132.68 -47.21 1129.94 C-51.83 1098.78 -54.87 1067.82 -56.69 1036.38 C-56.75 1035.22 -56.82 1034.07 -56.89 1032.88 C-57.31 1025.59 -57.69 1018.3 -58 1011 C-58.03 1010.21 -58.07 1009.41 -58.1 1008.59 C-58.18 1006.6 -58.23 1004.6 -58.27 1002.6 C-58.29 1001.57 -58.32 1000.53 -58.34 999.46 C-58 997 -58 997 -56.69 995.2 C-53.89 993.21 -51.38 993.12 -48 993 C-45.05 994.35 -43.46 995.09 -42 998 C-41.81 999.94 -41.68 1001.89 -41.58 1003.83 C-41.48 1005.68 -41.48 1005.68 -41.38 1007.57 C-41.34 1008.24 -41.31 1008.9 -41.28 1009.59 C-41.17 1011.69 -41.05 1013.8 -40.94 1015.9 C-40.77 1018.91 -40.61 1021.92 -40.44 1024.93 C-37.59 1077.35 -34.37 1130.66 -18 1180.94 C-17.69 1181.89 -17.38 1182.84 -17.07 1183.83 C-11.49 1200.2 -3.76 1210.56 11.72 1218.38 C45.86 1233.08 96.13 1234.31 131 1222 C137.88 1219.25 142.29 1216.63 146.1 1210.12 C147.69 1206.38 147.04 1202.85 146 1199 C143.27 1195 140.98 1193.82 136.38 1192.94 C135.62 1192.84 134.86 1192.75 134.09 1192.65 C131.26 1191.77 130.54 1190.49 129 1188 C128.06 1179.88 131.66 1170.72 133.66 1162.88 C147.39 1108.78 159.14 1053.64 166.52 998.29 C167.33 992.36 168.25 987.34 171 982 C172.41 981.72 173.83 981.48 175.25 981.25 C176.04 981.11 176.83 980.97 177.64 980.83 C180 981 180 981 182.12 982.71 C185.61 986.96 184.46 991.75 184 997 C183.13 1004.6 181.9 1012.14 180.69 1019.69 C180.51 1020.79 180.34 1021.89 180.16 1023.02 C173.21 1066.54 164.79 1109.89 153.83 1152.59 C153.64 1153.32 153.45 1154.05 153.26 1154.81 C152.75 1156.8 152.23 1158.79 151.71 1160.78 C150.86 1164.1 150.86 1164.1 151 1168 C188.24 1178.08 225.56 1187.88 262.9 1197.6 C264.81 1198.09 266.73 1198.59 268.64 1199.09 C273.33 1200.31 278.02 1201.53 282.71 1202.75 C291.69 1205.08 300.66 1207.44 309.62 1209.85 C312.17 1210.53 314.72 1211.21 317.26 1211.89 C319.57 1212.51 321.88 1213.14 324.19 1213.78 C337.49 1217.36 351.34 1220.64 365.19 1220.38 C366.02 1220.36 366.85 1220.35 367.7 1220.34 C401.42 1219.51 427.15 1198.75 450 1176 C451.87 1174.01 453.66 1172.01 455.41 1169.91 C457.33 1167.61 459.35 1165.4 461.38 1163.19 C465.27 1158.87 468.97 1154.43 472.62 1149.91 C475.17 1146.8 477.77 1143.74 480.38 1140.69 C484.68 1135.64 488.81 1130.47 492.87 1125.23 C495.55 1121.79 498.31 1118.45 501.18 1115.16 C520.44 1093 530.5 1069.62 529 1040 C527.4 1025.86 520.64 1012.47 510 1003 C499.89 995.39 489.57 993.45 477.12 993.56 C475.35 993.57 475.35 993.57 473.53 993.59 C441.85 994.19 408.46 1007.17 386 1030 C379.26 1037.41 374.04 1045.4 369 1054 C366.12 1058.88 366.12 1058.88 365 1060 C358.77 1060.46 358.77 1060.46 356.12 1058.88 C354.5 1056.16 354.2 1054.17 354 1051 C355.02 1048.24 356.06 1045.88 357.44 1043.31 C357.81 1042.61 358.17 1041.9 358.55 1041.18 C365.34 1028.47 374.81 1018.07 385 1008 C369.64 990.94 348.75 979.75 328.47 969.54 C325.78 967.86 324.64 966.69 323 964 C322.39 961.07 322.39 961.07 322.04 957.62 C321.83 955.68 321.83 955.68 321.62 953.7 C321.55 953.01 321.48 952.31 321.41 951.6 C321.03 947.85 320.59 944.11 320.15 940.37 C320.06 939.59 319.97 938.82 319.87 938.01 C312.79 878.93 297.67 819.2 273 765 C272.53 763.96 272.05 762.91 271.56 761.84 C261.05 738.93 248.68 717.47 234.68 696.52 C233.2 694.29 231.72 692.06 230.25 689.82 C221.65 676.76 212.55 664.05 203.31 651.44 C202.7 650.6 202.09 649.76 201.46 648.89 C200.61 647.74 200.61 647.74 199.74 646.56 C199.23 645.87 198.73 645.18 198.21 644.47 C197.61 643.74 197.61 643.74 197 643 C195.17 643 193.84 644.57 192.45 645.64 Z M-451.25 689.38 C-465.65 701.12 -482.3 711.1 -500 717 C-498.64 721.07 -496.1 721.86 -492.5 723.75 C-485.22 727.71 -478.09 731.9 -471 736.19 C-458.74 743.58 -446.39 750.82 -434 758 C-432.97 758.6 -431.94 759.2 -430.87 759.81 C-406.62 773.85 -382.31 787.78 -357.84 801.41 C-355.08 802.95 -352.33 804.51 -349.58 806.06 C-347.95 806.98 -346.32 807.89 -344.69 808.81 C-343.59 809.43 -343.59 809.43 -342.48 810.07 C-337.96 812.66 -337.96 812.66 -333 814 C-326.63 812.15 -320.73 808.27 -315.12 804.81 C-314.34 804.33 -313.56 803.85 -312.76 803.36 C-306.38 799.38 -300.65 794.97 -295 790 C-293.77 788.98 -292.55 787.95 -291.31 786.94 C-290.17 785.98 -290.17 785.98 -289 785 C-290.2 781.4 -291.48 780.95 -294.76 779.3 C-295.44 778.97 -296.11 778.65 -296.81 778.31 C-297.52 777.96 -298.23 777.62 -298.96 777.26 C-304.48 774.6 -310.11 772.29 -315.81 770.06 C-342.61 759.57 -366.9 745.73 -387.05 724.86 C-398.08 713.46 -410.01 705.83 -423.95 698.4 C-430.21 695.04 -436.09 691.48 -441.86 687.33 C-446.07 684.72 -447.88 686.48 -451.25 689.38 Z " fill="#000000" transform="translate(712,20)"/>
<path d="M0 0 C17.97 -0.5 34.64 4.49 47.85 16.87 C56.18 25.56 60.2 34.86 59.97 46.88 C59.52 51.63 58.16 55.08 55.66 59.12 C55.21 59.86 54.76 60.6 54.29 61.36 C44.58 75.37 26.77 82.67 10.66 86.12 C8.66 86.15 6.66 86.15 4.66 86.12 C4.73 87.09 4.8 88.07 4.87 89.07 C5.62 100.11 5.85 111.12 5.85 122.18 C5.85 125.04 5.87 127.9 5.88 130.76 C5.89 132.58 5.89 134.41 5.89 136.24 C5.9 137.51 5.9 137.51 5.91 138.81 C5.89 144.78 5.89 144.78 3.66 148.12 C0.66 148.43 0.66 148.43 -2.34 148.12 C-7.59 142.87 -5.42 128.94 -5.44 121.79 C-5.43 117.63 -5.42 113.47 -5.4 109.31 C-5.4 107.15 -5.39 104.99 -5.39 102.84 C-5.38 97.6 -5.36 92.36 -5.34 87.12 C-6.19 87.14 -7.04 87.16 -7.92 87.18 C-22.98 87.37 -37.09 83.92 -48.59 73.62 C-57.21 64.45 -60.73 53.05 -60.62 40.73 C-59.88 31.19 -54.97 23.56 -48.19 17.06 C-34.71 5.52 -17.4 0.9 0 0 Z " fill="#000000" transform="translate(631.33984375,318.87890625)"/>
<path d="M0 0 C2.03 -0 4.06 -0.04 6.09 -0.08 C34.36 -0.32 58.41 14.8 78.1 34 C103.44 59.45 117.85 96.44 118.41 132.18 C118.31 159.72 106.79 183.69 87.78 203.12 C63.35 227.24 28.31 238.94 -5.53 239.56 C-37.67 239.21 -67.92 228.36 -91.31 206 C-111.52 185.3 -118.46 154 -118.26 126 C-117.4 89.44 -103.05 52.99 -76.39 27.52 C-54.42 8.55 -28.94 -0.01 0 0 Z M-76.9 42.37 C-99.33 69.97 -111.94 108.81 -108.28 144.37 C-105.1 169.93 -93.7 191.71 -73.65 208.23 C-61.76 217.01 -48.13 223.53 -33.9 227.37 C-32.77 227.69 -31.64 228.01 -30.47 228.34 C0.58 235.59 34.09 229.64 61.31 213.49 C81.98 200.55 100.23 179.51 106.03 155.37 C112.33 124 107.11 91.52 90.1 64.37 C87.02 59.82 83.62 55.58 80.1 51.37 C79.43 50.55 78.76 49.73 78.07 48.89 C73.04 42.93 67.28 38.1 61.1 33.37 C60.33 32.78 59.56 32.18 58.77 31.57 C16.51 0.37 -41.32 1.69 -76.9 42.37 Z " fill="#000000" transform="translate(636.904052734375,290.62939453125)"/>
<path d="M0 0 C4.63 3.12 8.08 6.78 9.53 12.32 C10.55 18.76 9.58 23.61 5.93 29.03 C1.81 33.89 -2.53 37.02 -8.91 38 C-13.4 38.06 -16.53 36.47 -19.77 33.44 C-24.84 27.84 -26.57 23.15 -26.38 15.59 C-25.55 8.72 -21.97 4.42 -16.75 0.16 C-11.85 -3.13 -5.19 -2.44 0 0 Z " fill="#000000" transform="translate(449.0703125,297.97265625)"/>
<path d="M0 0 C5.1 2.74 7.71 6.28 10.03 11.55 C11.66 17.04 10.72 21.8 8.18 26.86 C4.73 32.18 0.49 36 -5.69 37.73 C-10.32 38.49 -13.15 37.68 -17.19 35.17 C-22.47 30.22 -25.21 25.64 -25.57 18.36 C-25.41 12.25 -23.71 7.8 -19.47 3.38 C-13.31 -2.13 -7.8 -2.96 0 0 Z " fill="#000000" transform="translate(818.19140625,289.83203125)"/>
</svg>
