<?xml version="1.0" encoding="utf-8"?>
<!-- Generator: Adobe Illustrator 23.0.1, SVG Export Plug-In . SVG Version: 6.00 Build 0)  -->
<svg version="1.0" id="Слой_1" xmlns="http://www.w3.org/2000/svg" xmlns:xlink="http://www.w3.org/1999/xlink" x="0px" y="0px"
	 viewBox="0 0 720 720" style="enable-background:new 0 0 720 720;" xml:space="preserve">
<g id="Слой_34">
	<path d="M604.9,425.6c-17.3-38.4-63.4-62.3-104.8-54.3c-8.6,1.7-16.9,4.6-24.7,8.7c-17.1,9-31.8,23.5-41.4,41.4
		c-6.6,12.4-10.4,25.9-11,39.3c-0.5,12.8,1.5,25.6,3.6,38c1.9,11.5,3.8,23.5,3.6,35.2c-0.5,27.8-13.6,55.1-35,72.9
		c-9.3,7.7-20.1,13.6-31.9,17.5c14.1-9.2,28.1-19.2,39.9-31.5c16.3-17.1,25.8-37.1,26.6-56.2c1-22.4-10.7-43.7-28.7-52.4
		c0.3-4.9,0.4-9.8,0.2-14.8c-1-24.4-8.2-49.6-21.5-74.8l-0.9-1.7c-2.7-5-5.4-10.2-6.3-15.7c-0.8-5.4,0.6-12.2,5.6-15.4
		c0.7-0.4,1-1.3,0.7-2c36.4-7.8,71.7-19.6,95.7-30.8c0.3-0.1,0.5-0.3,0.7-0.5c13.2-7.1,40.2-32.6,45.8-37.8
		c-29.4-21.5-57.1-56.6-89.3-86.9c0.2-0.1,0.5-0.3,0.6-0.5c16.8-20.8,22.2-49.3,14.6-76.1c-0.2-0.9-1.1-1.4-2-1.3
		c-24.5,3.2-46.6,21.8-54.2,45.2c-4.5-2.9-9.1-5.6-13.9-8.1c4.8-19.7,15.8-37.8,31.1-51.1c15.3-13.2,34.6-21.5,54.7-23.5
		c7.1,19,8.3,40.5,3.2,62.2c-5.1,21.8-14.8,42.1-24.6,60.7c-0.5,0.9-0.1,2,0.8,2.4c0.3,0.1,0.6,0.2,0.8,0.2c0.6,0,1.3-0.3,1.6-1
		c9.9-18.8,19.7-39.3,24.9-61.5c5.3-22.8,4-45.5-3.9-65.5c-0.3-0.7-1-1.2-1.8-1.1c-21.3,1.8-41.9,10.5-58.1,24.5
		c-15.7,13.6-27,32.1-32,52.2c-0.9-0.5-1.8-0.9-2.8-1.4c-26.1-12.3-54-18.7-81.7-18.7c-24,0-47.8,4.8-70.2,14.5
		c-5-20.4-16.3-39.1-32.2-52.9c-16.2-14-36.8-22.7-58.1-24.5c-0.8-0.1-1.5,0.4-1.8,1.1c-7.8,20-9.2,42.7-3.9,65.5
		c5.2,22.2,15,42.7,24.9,61.5c0.1,0.2,0.3,0.4,0.5,0.6c-6.8,7.5-13,15.5-18.4,23.9c-17.1,26.6-37.3,55.1-70.2,62.2
		c1.9,1.5,31.1,23.8,33.6,25.4c23.8,14.9,71.3,31.9,125,41.8c0,0.5,0.3,1.1,0.8,1.4c5,3.2,6.4,10,5.6,15.4
		c-0.8,5.5-3.6,10.7-6.2,15.7l-0.9,1.7c-11.4,21.7-18.3,43.4-20.7,64.6c-0.4,0.4-0.6,0.9-0.5,1.4c0.1,0.5,0.1,1,0.2,1.5
		c-0.2,2.4-0.4,4.8-0.5,7.2c-0.2,5-0.1,9.9,0.2,14.8c-17.9,8.7-29.7,30.1-28.7,52.4c0.9,19.1,10.3,39.1,26.6,56.2
		c13.4,14.1,29.7,25,45.8,35.4c-3.4,0.7-6.8,1.6-10.1,2.5c-4.7,1.3-9.6,2.6-14.2,3.2c-6.8,0.8-14.6,1.7-20.9,6
		c-6.3,4.2-10.8,13.1-7.3,20.5c1.8,3.9,5.8,7,10.8,8.4c4,1.1,8,1.2,12,1.2c0.3,0,0.7,0,1,0c9.3,0,17.3,0,25.3-0.1
		c7.8,0,15.6-0.1,24.6-0.1c0.5,0.6,1.2,1,1.9,1.4c1.2,0.6,2.7,1,4.2,1c0.9,0,1.9-0.1,2.9-0.4c1.3-0.3,2.1-0.7,3-1.1
		c0.3,0.7,0.6,1.3,1.2,1.9c2.2,2.1,5.6,1.6,7.6,0.1c0.4-0.3,0.8-0.6,1.1-1c0.7,1.1,1.7,1.8,2.9,2.2c0.6,0.2,1.1,0.3,1.7,0.3
		c1.7,0,3.4-0.7,5.2-1.9c2.1-1.5,4.7-5.3,5.1-5.8c0.3-0.5,0.6-1,0.9-1.5c1.3,3,3.2,5.5,5.7,7.3c1.8,1.3,3.6,1.9,5.2,1.9
		c0.6,0,1.2-0.1,1.7-0.3c1.2-0.4,2.2-1.1,2.9-2.2c0.6,0.7,1.4,1.3,2.3,1.7c2.1,1,4.5,0.8,6.1-0.5c0.6-0.5,1-1.1,1.3-1.7
		c1.3,0.6,2.6,1.2,4.1,1.6c1,0.2,2,0.4,2.9,0.4c1.5,0,3-0.3,4.2-1c1.1-0.6,2-1.4,2.6-2.3c9,0,16.3,0,23.6,0.1
		c7.4,0,14.9,0.1,24.2,0.1c0.3,0,0.7,0,1,0c2.6,0,5.3-0.1,8-0.4c1.8,0.2,3.6,0.4,5.4,0.6c7.4,0.9,15,1.8,22.5,1.8
		c1.1,0,2.2,0,3.3-0.1c22.1-0.9,48.2-2.8,73.5-10.5c26.2-8,48-21.5,62.9-38.9c17.4-20.3,25.3-46.4,21.3-70
		c-2.1-12.2-7.2-23.9-12.2-35.2c-5-11.3-9.7-22.1-11.6-33.2c-0.3-1.5-0.5-3-0.6-4.5c-0.1-1.5-0.2-2.9-0.2-4.4c0-2.9,0.2-5.7,0.6-8.4
		v0c3.2-20.7,22.2-37.7,43.2-38.6c0.6,0,1.1-0.3,1.4-0.8C605.1,426.7,605.2,426.1,604.9,425.6 M271.6,363.8
		c-1.2-0.1-2.4-0.2-3.7-0.3c-1.3-0.1-2.6-0.2-3.9-0.4c-0.3,0-0.6-0.1-1-0.1c-69-6.7-135.5-28.6-166.9-47.7
		c6.6-8.7,29.8-34.6,47.1-47.9c24.8-18.9,47.9-25.4,70.7-20c20.8,4.9,36,15.8,46.6,33.4c8.1,13.4,17.4,42.8,17.8,69.3h-0.5
		c-6,0-9,7.3-4.7,11.6c0.8,0.8,1.6,1.6,2.4,2.4c-0.5,0-1-0.1-1.6-0.1C273.2,363.9,272.4,363.9,271.6,363.8 M316.3,330.8
		c2.2-16.9,4.9-33.5,12.5-50.6c16.2-36.7,44-42,58.4-42c2.6,0,4.8,0.2,6.4,0.4c20,2.4,41.1,13.7,55,29.7
		c13.7,15.7,22.1,35.9,23.7,56.7c0,0.4,0.1,0.7,0.1,1.1c-33.6,15.7-92.4,33.1-142.6,37.9c-0.2,0-0.4,0-0.7,0.1
		c-1.4,0.1-2.9,0.3-4.3,0.4c-0.4,0-0.9,0.1-1.3,0.1c-1.2,0.1-2.4,0.2-3.6,0.2c-0.6,0-1.2,0.1-1.8,0.1c0,0,0,0,0,0l4.3-4.9
		c3.3-3.8,0.6-9.8-4.4-9.8h-2C315.7,342.8,315.8,335,316.3,330.8 M444.2,129.6c6.6,25,1.2,52.2-14.3,71.4c-0.1,0.1-0.2,0.3-0.2,0.5
		c-11.2-10.4-23-20.1-35.5-28.5C401,150.9,421.4,133.2,444.2,129.6 M126.7,144.2c-5-21.7-3.9-43.1,3.2-62.2
		c20.1,2,39.5,10.3,54.7,23.5c15.5,13.4,26.5,31.7,31.2,51.6c-5.2,2.4-10.4,5.1-15.4,8c-0.1,0-0.1,0.1-0.2,0.1
		c0.2-0.4,0.3-0.9,0.1-1.4c-7.3-23.9-29.8-42.9-54.6-46.2c-0.9-0.1-1.7,0.4-2,1.3c-7.6,26.9-2.2,55.3,14.6,76.1
		c0.3,0.4,0.8,0.6,1.3,0.6c-3,2.8-5.8,5.7-8.6,8.7C141.4,186,131.8,165.9,126.7,144.2 M161.6,194.1c0-0.4-0.1-0.8-0.4-1.1
		c-15.5-19.2-20.9-46.5-14.3-71.4c22.8,3.7,43.3,21.3,50.1,43.5c0.2,0.8,1,1.3,1.8,1.2C185.8,174,173.1,183.4,161.6,194.1
		 M133.2,232.9c16.1-25,40.6-48,69-64.6c26.3-15.4,56.4-23.6,87.2-23.6h0c27,0,54.8,6.4,80.2,18.4c36.9,17.5,66.6,48.7,95.2,78.9
		c17.4,18.3,33.8,35.7,51,48.9c-22.1,20.5-33.8,29.5-40,33.3c-1.7-21.4-10.4-42.1-24.5-58.3c-14.4-16.6-36.4-28.4-57.3-30.9
		c-11-1.3-48.4-2-68.5,43.7c-7.8,17.6-10.4,34.5-12.7,51.6c-0.6,4.4-0.6,12.3-0.5,19.8h-30.3c-0.4-27.1-10-57.4-18.3-71.1
		c-11.1-18.4-27.1-29.8-48.9-35c-23.9-5.7-48,1.1-73.7,20.7c-17.9,13.6-41.9,40.6-48.2,49.1c-5.4-4-17.6-13.3-25-18.9
		C97.5,285.3,116.4,259.1,133.2,232.9 M221,396.2l0.9-1.6c2.8-5.3,5.7-10.7,6.6-16.8c0.8-5.3-0.2-11.8-4.1-16.3
		c13.2,2.3,26.7,4.1,40.3,5.4c0,0,0,0,0,0c0.6,0.1,1.3,0.1,1.9,0.2c4.1,0.4,8.3,0.7,12.4,0.9c0,0,0.1,0,0.1,0h0c0.1,0,0.2,0,0.3,0
		c3.7,3.7,7.5,7.4,10.8,10.6c4.6,4.5,12,4.2,16.3-0.6l8.2-9.4c18.8-0.8,39.2-3.6,59.3-7.7c-4.3,4.4-5.6,11.3-4.7,16.9
		c0.9,6.1,3.8,11.5,6.6,16.8l0.9,1.6c5.5,10.5,10,21.1,13.4,31.5c-0.2,0.3-0.3,0.6-0.2,1c1.1,13.6-2.1,27.6-8.8,39.5
		c-0.1-0.8-0.2-1.6-0.3-2.5c-0.1-0.9-1-1.6-1.8-1.5c-0.9,0-1.7,0.7-1.7,1.6c-0.7,8.7-4.3,19.3-12,26.2c0.2-0.8,0.4-1.6,0.5-2.5
		c0.1-0.9-0.4-1.7-1.3-2c-0.9-0.2-1.8,0.2-2.1,1c-2.3,5.1-5.8,10-10.9,15c0.2-1.4,0.3-2.8,0.1-4.1c-0.1-0.8-0.8-1.5-1.6-1.5
		c-0.8-0.1-1.6,0.4-1.9,1.2c-2.4,6.8-8.6,10.8-15,14.9l-1,0.7c-9.1,5.9-15.6,15.4-17.4,25.1c-1.4-4.2-1.6-9.3-1.7-12.2
		c0-0.7-0.5-1.4-1.2-1.6c-0.7-0.2-1.5,0-1.9,0.5c-6.6,7.6-11.4,16.6-14.2,26.3c-4.1-9.3-12.3-17.1-21.7-20
		c-8.6-2.7-14.8-6.7-18.9-12.2c-0.5-0.7-1.4-0.9-2.1-0.6c-0.8,0.3-1.2,1.1-1.1,2c0.3,1.6,0.8,3.1,1.4,4.6c-5.3-3.1-9.5-6.8-12.6-11
		c-0.4-0.9-1-1.8-1.8-2.6c-0.6-0.6-1.7-0.7-2.4-0.1c-0.7,0.6-0.9,1.6-0.4,2.3c0.5,0.8,1,1.5,1.5,2.2c0,0.1,0.1,0.2,0.1,0.2
		c-8.1-4.2-14.6-12.7-17.8-23.7c-0.3-0.9-1.1-1.4-2-1.3c-0.9,0.1-1.5,0.9-1.5,1.8c0,0.8,0.1,1.6,0.2,2.4
		c-8.5-9.9-14.3-22.3-16.2-35.2C202.5,440.4,209.4,418.3,221,396.2 M237,666.2c-8,0-15.9,0.1-25.3,0.1c-4,0-8.2,0-12-1.1
		c-4-1.2-7.2-3.5-8.6-6.5c-2.6-5.6,1.1-12.6,6-16c5.6-3.8,12.9-4.6,19.3-5.4c4.9-0.6,9.9-1.9,14.7-3.3c4.7-1.3,9.6-2.6,14.2-3.2
		c0.7-0.1,1.4-0.6,1.5-1.4c0.2-0.7-0.1-1.5-0.8-1.9c-17.1-11-34.8-22.4-49.1-37.4c-15.7-16.5-24.8-35.6-25.7-53.9
		c-0.9-20.5,9.4-40,25.4-48.4c2.1,20.8,8.9,40.2,20.1,56c6.7,9.5,14.9,17.8,22.9,25.8c3,3,6.1,6.2,9.1,9.3
		c9.2,9.7,20.3,22.9,24.6,38.8c3.6,13.3,1.7,31.3-10.5,41.6l-0.5,0.4c-1.3,1-2.7,2.2-3,4.5c-0.1,0.6,0,1.1,0.1,1.7
		C251.5,666.2,244.2,666.2,237,666.2 M298.8,603.2C298.8,603.2,298.8,603.1,298.8,603.2c1.4,8.3,2.8,16.9,1.5,25.2
		c-0.2,1.6-0.5,3.2-0.8,4.8c-0.3,1.5-0.5,3.1-0.8,4.6c-0.5-2.8-1.1-5.6-1.5-8.6C295.8,620.7,297.3,611.8,298.8,603.2 M334.1,668.9
		c-1.2,0.6-2.8,0.7-4.6,0.3c-1.5-0.4-2.9-1.1-4.4-1.8c-0.1-1.2-0.4-2.4-0.6-3l-1.2-4.1c-0.3-0.9-1.3-1.5-2.2-1.2
		c-0.9,0.3-1.5,1.3-1.2,2.2l1.2,4.1c0.7,2.5,0.7,4-0.1,4.7c-0.6,0.5-1.5,0.5-2.3,0.1c-1.6-0.8-2.5-2.5-3.4-4.2
		c-0.1-0.1-0.1-0.2-0.2-0.3c-0.5-0.8-1.5-1.2-2.4-0.7c-0.9,0.5-1.2,1.5-0.7,2.4c0,0.1,0.1,0.1,0.1,0.2c0.2,0.5,0.2,1.1,0,1.6
		c-0.2,0.6-0.7,1.1-1.2,1.2c-1.3,0.4-3-0.6-3.9-1.2c-2.3-1.7-4.1-4.1-5-7.1c-0.5-1.4-0.7-3-0.7-4.8c0.1-1.3,0.1-2.5,0-3.8
		c0-0.7,0-1.4,0-2.1c0-1.3,0.1-2.6,0.1-3.8c0-4.5,0.8-9.2,1.6-13.7c0.3-1.6,0.6-3.2,0.8-4.9c1.4-9.1-0.1-18.3-1.6-27.2
		c-0.6-3.7-1.2-7.2-1.6-10.7c0.5-4.8,0.6-9.6-0.1-14.3c0.1-0.8,0.2-1.7,0.4-2.5c0.2-1-0.4-1.9-1.4-2.1c-0.9-0.2-1.6,0.3-2,1.1
		c-0.7,0.4-1.1,1.1-0.9,1.9c0.1,0.6,0.2,1.1,0.3,1.7c-0.6,4.8-0.4,9.6,0.1,14.4c-0.4,3.8-1,7.7-1.7,11.6c-1.5,8.9-3.1,18.1-1.6,27.2
		c0.6,3.5,1.2,6.9,1.8,10.2c0.5,2.5,1,5.1,1.4,7.8c0.3,2,0.6,3.9,0.8,5.8c0,1.2,0,2.3,0,3.5c-0.2,2.6-0.8,5-2.3,7.2
		c-0.7,1-2.8,3.9-4.2,4.9c-0.9,0.6-2.5,1.6-3.8,1.2c-0.5-0.2-1-0.6-1.2-1.2c-0.2-0.6-0.2-1.2,0-1.6c0-0.1,0.1-0.1,0.1-0.2
		c0.4-0.9,0.1-1.9-0.7-2.4c-0.9-0.5-1.9-0.1-2.4,0.7c-0.1,0.1-0.1,0.2-0.2,0.3c-0.7,1.4-1.5,2.9-2.7,3.8c-0.9,0.7-2.3,0.9-3,0.2
		c-0.9-0.9-0.5-3.1,0-4.6l1.2-4.1c0.3-0.9-0.3-1.9-1.2-2.2c-0.9-0.3-1.9,0.3-2.2,1.2l-1.2,4.1c-0.2,0.5-0.4,1.4-0.5,2.4
		c-0.1,0.1-0.3,0.1-0.4,0.2c-1.1,0.6-1.8,1-3.2,1.3c-1.7,0.4-3.4,0.3-4.6-0.3c-1.2-0.6-2-1.9-1.9-3.1c0.1-0.7,0.5-1.2,1.7-2.1
		l0.5-0.5c13.4-11.3,15.5-30.9,11.6-45.3c-4.5-16.7-16-30.3-25.5-40.4c-3-3.2-6.1-6.3-9.1-9.4c-7.9-7.9-16-16.2-22.5-25.4
		c-13.1-18.5-20.1-42.3-20.1-67.3c3.8,11.3,10.4,21.8,19,29.9c0.5,0.4,1.1,0.6,1.7,0.4c4.8,9.1,12.1,15.5,20.7,18
		c0.4,0.1,0.8,0.1,1.2-0.1c4.1,3.9,9.2,7.3,15.4,10.1c0.8,0.3,1.7,0.1,2.2-0.6c0.5-0.7,0.5-1.6-0.1-2.2c0,0-0.1-0.1-0.1-0.1
		c3.6,2.5,8,4.6,13.1,6.2c10.3,3.2,19,12.9,21.3,23.6c0.2,0.8,0.9,1.4,1.7,1.4h0c0.9,0,1.6-0.6,1.7-1.5c1.9-9.9,6-19.3,12-27.3
		c0.5,5.3,1.6,10.4,4.4,13.9c0.6,0.7,1.5,0.8,2.3,0.4c0.8-0.2,1.3-0.9,1.3-1.7c0.1-10.3,6.5-21.1,16.3-27.4l1-0.7
		c3.6-2.3,7.2-4.6,10.3-7.5c-0.2,0.7-0.1,1.5,0.5,2c0.7,0.6,1.6,0.6,2.3,0c5-4.3,9-8.4,12.1-12.5c0.5,0.1,1,0.1,1.4-0.1
		c8-4.2,14.1-12.3,17.2-22.2c0.6,0.1,1.3-0.2,1.7-0.7c7.5-10.6,12-23.4,13-36.4c2.5,10.1,4,20.2,4.4,30.1c1.1,26.9-6,52.6-20,72.5
		c-6.5,9.2-14.7,17.4-22.5,25.4c-3,3-6.1,6.2-9.1,9.4c-9.5,10-21,23.7-25.4,40.4c-3.9,14.4-1.8,34,11.6,45.3c0,0,0.1,0.1,0.1,0.1
		l1.3,0.9l0.5,0.4c1.1,0.9,1.6,1.4,1.7,2.1C336.2,666.9,335.4,668.2,334.1,668.9 M386.2,666.3c-9.3,0-16.8,0-24.2-0.1
		c-6.9,0-13.9-0.1-22.4-0.1c0-0.2,0-0.5,0-0.7c-0.3-2.3-1.7-3.5-3-4.5l-0.5-0.4c0,0-0.1-0.1-0.1-0.1l-1.3-0.9
		c-12.2-10.3-14-28.3-10.4-41.6c4.3-15.9,15.4-29.1,24.6-38.8c3-3.1,6.1-6.3,9.1-9.3c8-8.1,16.3-16.4,22.9-25.8
		c11.1-15.8,18-35.2,20.1-56c16,8.4,26.4,28,25.4,48.4c-0.8,18.3-10,37.4-25.7,53.9c-14.2,15-31.9,26.4-49.1,37.4
		c-0.6,0.4-0.9,1.2-0.8,1.9c0.2,0.7,0.8,1.3,1.5,1.4c4.6,0.5,9.5,1.9,14.2,3.2c4.9,1.3,9.9,2.7,14.7,3.3c6.4,0.8,13.7,1.6,19.3,5.4
		c5,3.3,8.7,10.4,6,16c-1.4,3-4.5,5.4-8.6,6.5c-1,0.3-2,0.5-3,0.6c-0.2,0-0.3,0-0.5-0.1c-0.4,0-0.8,0.1-1.1,0.3
		C391.2,666.3,388.6,666.3,386.2,666.3 M568.7,518.6c4.9,11.1,9.9,22.6,11.9,34.4c3.8,22.5-3.8,47.6-20.5,67.1
		c-14.5,16.9-35.7,30-61.3,37.8c-24.9,7.6-50.7,9.5-72.6,10.3c-7.4,0.3-15.2-0.5-22.8-1.4c2.9-1.6,5.2-3.9,6.5-6.6
		c3.5-7.4-1-16.2-7.3-20.5c-6.3-4.2-14.1-5.2-20.9-6c-4.6-0.5-9.5-1.9-14.2-3.2c-2.3-0.6-4.6-1.2-6.9-1.8
		c13.6-3.9,26.2-10.5,36.9-19.3c22.2-18.5,35.7-46.7,36.3-75.5c0.2-12.1-1.7-24.2-3.6-35.8c-2-12.2-4-24.9-3.5-37.3
		c0.4-10.2,2.9-20.6,7.1-30.4c0,1.5,0,3,0,4.5c0,3.1,0.1,6.3,0,9.5c0,0.7,0.4,1.3,0.9,1.6c0.6,0.3,1.3,0.3,1.9-0.1l13.8-9.7
		c1.9,10.9,3.7,21.8,5.6,32.7c0.1,0.7,0.6,1.2,1.3,1.4c0.7,0.2,1.4,0,1.8-0.6c4.8-5.7,9.5-11.4,14.3-17.1c0.3,4.4,0.6,11.7,0.9,17.5
		c0.5,11.8,0.8,19,1.3,21.2c0.2,0.7,0.7,1.2,1.4,1.4c0.7,0.1,1.4-0.2,1.8-0.7c1-1.4,6.5-7.8,11.8-14.1c3.5-4.1,7-8.1,9.3-10.9
		c1.4,8.2,5.4,23,8.2,33.4c0.8,3.1,1.6,5.8,2.1,7.8c0.2,0.7,0.8,1.2,1.5,1.3c0.1,0,0.2,0,0.3,0c0.6,0,1.2-0.3,1.5-0.8l15.7-24.8
		l2.1,5.5c0.2,0.7,0.9,1.1,1.6,1.2c0.7,0.1,1.4-0.3,1.7-0.9l5-9.4c3.6,4.9,5.7,10.9,6,17.1c0,0.7,0.5,1.4,1.2,1.6
		c0.7,0.2,1.5,0,1.9-0.5l9.1-10.2C559.9,498.5,564.4,508.7,568.7,518.6 M556.7,466.1c-0.2,1.4-0.4,2.9-0.5,4.4c0,0.5,0,1-0.1,1.5
		c0,1-0.1,2-0.1,3c0,0.6,0.1,1.2,0.1,1.8c0,0.9,0.1,1.8,0.2,2.7c0.1,0.7,0.2,1.4,0.2,2c0.1,0.7,0.2,1.5,0.3,2.2l-8.2,9.2
		c-1-6.3-3.8-12.3-8.1-17.2c-0.4-0.4-1-0.7-1.6-0.6c-0.6,0.1-1.1,0.4-1.4,0.9l-4.5,8.3l-1.9-5.2c-0.2-0.6-0.8-1.1-1.5-1.2
		c-0.7-0.1-1.3,0.3-1.7,0.8l-15.4,24.4c-0.3-1.2-0.7-2.5-1-3.8c-3.2-11.8-8.6-31.5-8.6-36.9c0-0.8-0.5-1.5-1.3-1.7
		c-0.2-0.1-0.4-0.1-0.5-0.1c-0.6,0-1.1,0.3-1.5,0.8c-1,1.4-6.7,8.1-11.8,14.1c-3.5,4.1-6.9,8.1-9.2,10.9c-0.3-4.1-0.5-10.5-0.8-16.4
		c-0.6-14.4-0.9-20.8-1.5-22.3c-0.2-0.6-0.8-1-1.4-1.1c-0.6-0.1-1.2,0.1-1.7,0.6c-4.8,5.8-9.6,11.5-14.5,17.3
		c-1.8-10.5-3.6-21.1-5.4-31.6c-0.1-0.6-0.5-1.1-1.1-1.3c-0.6-0.2-1.2-0.2-1.7,0.2l-13.3,9.3c0-2.1,0-4.1-0.1-6.1
		c-0.1-4-0.1-8.1,0.1-12.1c0.4-0.7,0.8-1.3,1.1-2c0.5-0.8,0.9-1.7,1.4-2.5c0.4-0.7,0.9-1.4,1.3-2.1c0.5-0.8,1-1.6,1.5-2.4
		c0.5-0.7,0.9-1.3,1.4-2c0.6-0.8,1.1-1.5,1.7-2.3c0.5-0.6,1-1.2,1.5-1.9c0.6-0.7,1.2-1.5,1.8-2.2c0.5-0.6,1.1-1.2,1.6-1.8
		c0.6-0.7,1.2-1.4,1.9-2.1c0.5-0.6,1.1-1.1,1.7-1.7c0.7-0.7,1.3-1.4,2-2c0.6-0.5,1.2-1,1.7-1.6c0.7-0.6,1.4-1.3,2.1-1.9
		c0.6-0.5,1.2-1,1.8-1.5c0.7-0.6,1.4-1.2,2.2-1.8c0.6-0.5,1.3-0.9,1.9-1.4c0.8-0.5,1.5-1.1,2.3-1.6c0.7-0.4,1.3-0.8,2-1.3
		c0.8-0.5,1.5-1,2.3-1.5c0.7-0.4,1.4-0.8,2.1-1.2c0.8-0.4,1.5-0.9,2.3-1.3c0.7-0.4,1.5-0.7,2.3-1.1c0.8-0.4,1.5-0.8,2.3-1.1
		c0.8-0.4,1.6-0.7,2.4-1c0.7-0.3,1.5-0.6,2.2-0.9c0.9-0.3,1.8-0.6,2.6-0.9c0.7-0.2,1.4-0.5,2.1-0.7c1-0.3,2.1-0.6,3.2-0.9
		c0.6-0.2,1.1-0.3,1.7-0.5c1.6-0.4,3.3-0.8,4.9-1.1c11-2.1,22.3-1.9,33.3,0.3c28,5.6,53.9,24,66.5,49.6
		C579,426.9,560,444.6,556.7,466.1"/>
</g>
<g id="Слой_33">
	<path d="M380,307c7.1,0,12.9-7.8,12.9-17.3c0-9.6-5.8-17.3-12.9-17.3c-7.1,0-12.9,7.8-12.9,17.3C367.1,299.2,372.9,307,380,307"/>
</g>
<g id="Слой_32">
	<path d="M204.5,271c-7.1,0-12.9,7.8-12.9,17.3c0,9.6,5.8,17.3,12.9,17.3c7.1,0,12.9-7.8,12.9-17.3C217.3,278.8,211.6,271,204.5,271
		"/>
</g>
<g id="Слой_31">
	<path d="M254.9,198.6c0.1,0.4,0.5,0.6,0.8,0.6c0.1,0,0.2,0,0.3,0c0.5-0.2,0.7-0.7,0.6-1.1l-4.9-14.2c-0.2-0.5-0.7-0.7-1.1-0.6
		c-0.5,0.2-0.7,0.7-0.6,1.1L254.9,198.6z"/>
</g>
<g id="Слой_30">
	<path d="M279.4,184.6C279.4,184.6,279.4,184.6,279.4,184.6c0.5,0,0.9-0.4,0.9-0.9l-0.4-9.9c0-0.5-0.4-0.9-0.9-0.9
		c-0.5,0-0.9,0.4-0.9,0.9l0.4,9.9C278.5,184.2,278.9,184.6,279.4,184.6"/>
</g>
<g id="Слой_29">
	<path d="M324.3,189.1c0,0,0.1,0,0.1,0c0.5-0.1,0.8-0.5,0.8-1l-1.6-12.5c-0.1-0.5-0.5-0.8-1-0.8c-0.5,0.1-0.8,0.5-0.8,1l1.6,12.5
		C323.4,188.8,323.8,189.1,324.3,189.1"/>
</g>
<g id="Слой_28">
	<path d="M331.1,208.7c0.1,0,0.1,0,0.2,0c0.4,0,0.8-0.3,0.9-0.7l3.6-14.3c0.1-0.5-0.2-1-0.6-1.1c-0.5-0.1-1,0.2-1.1,0.6l-3.6,14.3
		C330.4,208.1,330.7,208.6,331.1,208.7"/>
</g>
<g id="Слой_27">
	<path d="M303.1,206.1c0.5,0,0.9-0.4,0.9-0.9v-13.4c0-0.5-0.4-0.9-0.9-0.9c-0.5,0-0.9,0.4-0.9,0.9v13.4
		C302.2,205.7,302.6,206.1,303.1,206.1"/>
</g>
<g id="Слой_26">
	<path d="M275.1,207.2c0.1,0.4,0.5,0.6,0.8,0.6c0.1,0,0.2,0,0.3,0c0.5-0.2,0.7-0.7,0.6-1.1l-4-12.1c-0.2-0.5-0.7-0.7-1.1-0.6
		c-0.5,0.2-0.7,0.7-0.6,1.1L275.1,207.2z"/>
</g>
<g id="Слой_25">
	<path d="M262.3,229.1c0.1,0.4,0.5,0.7,0.9,0.7c0.1,0,0.2,0,0.2,0c0.5-0.1,0.8-0.6,0.6-1.1l-4-14.3c-0.1-0.5-0.6-0.8-1.1-0.6
		c-0.5,0.1-0.8,0.6-0.6,1.1L262.3,229.1z"/>
</g>
<g id="Слой_24">
	<path d="M290.2,238.9c0,0,0.1,0,0.1,0c0.5-0.1,0.8-0.5,0.8-1l-2.3-15.2c-0.1-0.5-0.5-0.8-1-0.8c-0.5,0.1-0.8,0.5-0.8,1l2.3,15.2
		C289.4,238.5,289.8,238.9,290.2,238.9"/>
</g>
<g id="Слой_23">
	<path d="M316.8,237.9C316.8,237.9,316.9,237.9,316.8,237.9c0.5,0,0.9-0.4,0.9-0.8l0.9-15.7c0-0.5-0.4-0.9-0.8-0.9
		c-0.5-0.1-0.9,0.4-0.9,0.8L316,237C316,237.5,316.3,237.9,316.8,237.9"/>
</g>
<g id="Слой_22">
	<path d="M324.4,265.2c0.1,0,0.2,0.1,0.3,0.1c0.4,0,0.7-0.2,0.8-0.6l4.1-11.6c0.2-0.5-0.1-1-0.5-1.1c-0.5-0.2-1,0.1-1.1,0.5
		l-4.1,11.6C323.7,264.5,324,265.1,324.4,265.2"/>
</g>
<g id="Слой_21">
	<path d="M298,267C298,267,298,267,298,267c0.5,0,0.9-0.4,0.9-0.9l0.4-13c0-0.5-0.4-0.9-0.9-0.9c0,0,0,0,0,0c-0.5,0-0.9,0.4-0.9,0.9
		l-0.4,13C297.1,266.6,297.5,267,298,267"/>
</g>
<g id="Слой_20">
	<path d="M275.4,254.9c-0.2-0.5-0.7-0.6-1.2-0.4c-0.5,0.2-0.6,0.7-0.4,1.2l4.5,9.9c0.1,0.3,0.5,0.5,0.8,0.5c0.1,0,0.3,0,0.4-0.1
		c0.5-0.2,0.6-0.7,0.4-1.2L275.4,254.9z"/>
</g>
<g id="Слой_19">
	<path d="M363.5,616.9c0.2,0,0.4-0.1,0.5-0.2l9.9-7.7c0.4-0.3,0.5-0.9,0.2-1.3c-0.3-0.4-0.9-0.5-1.3-0.2l-9.9,7.7
		c-0.4,0.3-0.5,0.9-0.2,1.3C362.9,616.8,363.2,616.9,363.5,616.9"/>
</g>
<g id="Слой_18">
	<path d="M381.4,602c0.2,0,0.3,0,0.5-0.1c4.9-3.2,9-7.6,12-12.7c0.2-0.4,0.1-1-0.3-1.2c-0.4-0.2-1-0.1-1.2,0.3
		c-2.8,4.8-6.8,9-11.4,12.1c-0.4,0.3-0.5,0.8-0.3,1.2C380.9,601.8,381.1,602,381.4,602"/>
</g>
<g id="Слой_17">
	<path d="M399.7,580.5c0.1,0.1,0.3,0.1,0.5,0.1c0.3,0,0.6-0.2,0.8-0.4l7.7-12.3c0.3-0.4,0.1-1-0.3-1.2c-0.4-0.3-1-0.1-1.2,0.3
		l-7.7,12.3C399.1,579.7,399.2,580.3,399.7,580.5"/>
</g>
<g id="Слой_16">
	<path d="M417.6,556.1c0.1,0.1,0.3,0.1,0.4,0.1c0.3,0,0.7-0.2,0.8-0.5l5.6-11.9c0.2-0.4,0-1-0.4-1.2c-0.4-0.2-1,0-1.2,0.4l-5.6,11.9
		C416.9,555.3,417.1,555.9,417.6,556.1"/>
</g>
<g id="Слой_15">
	<path d="M366.7,604.8c0.3,0,0.5-0.1,0.7-0.3l7.3-9.2c0.3-0.4,0.2-0.9-0.1-1.3c-0.4-0.3-0.9-0.2-1.3,0.1l-7.3,9.2
		c-0.3,0.4-0.2,1,0.1,1.3C366.3,604.7,366.5,604.8,366.7,604.8"/>
</g>
<g id="Слой_14">
	<path d="M387.5,582c0.2,0,0.4-0.1,0.6-0.2c3-2.5,5.1-6.2,5.7-10.1c0.1-0.5-0.3-0.9-0.8-1c-0.5-0.1-0.9,0.3-1,0.8
		c-0.5,3.5-2.4,6.7-5.1,8.9c-0.4,0.3-0.4,0.9-0.1,1.3C387,581.9,387.2,582,387.5,582"/>
</g>
<g id="Слой_13">
	<path d="M403.7,563.1c0.1,0.1,0.3,0.1,0.5,0.1c0.3,0,0.6-0.2,0.8-0.4l5.5-9.4c0.3-0.4,0.1-1-0.3-1.2c-0.4-0.3-1-0.1-1.2,0.3
		l-5.5,9.4C403.1,562.3,403.3,562.8,403.7,563.1"/>
</g>
<g id="Слой_12">
	<path d="M394.1,566.1c0.3,0,0.5-0.1,0.7-0.3l4.1-5.2c0.3-0.4,0.2-0.9-0.1-1.3c-0.4-0.3-0.9-0.2-1.3,0.1l-4.1,5.2
		c-0.3,0.4-0.2,1,0.1,1.3C393.7,566.1,393.9,566.1,394.1,566.1"/>
</g>
<g id="Слой_11">
	<path d="M374.7,588.5c0.3,0,0.5-0.1,0.7-0.3l4.2-5.1c0.3-0.4,0.3-0.9-0.1-1.3c-0.4-0.3-0.9-0.3-1.3,0.1L374,587
		c-0.3,0.4-0.3,0.9,0.1,1.3C374.3,588.4,374.5,588.5,374.7,588.5"/>
</g>
<g id="Слой_10">
	<path d="M181.5,549.9c-0.2-0.4-0.8-0.6-1.2-0.4c-0.4,0.2-0.6,0.8-0.4,1.2l6,11c0.2,0.3,0.5,0.5,0.8,0.5c0.1,0,0.3,0,0.4-0.1
		c0.4-0.2,0.6-0.8,0.4-1.2L181.5,549.9z"/>
</g>
<g id="Слой_9">
	<path d="M193.4,570.1c-0.2-0.5-0.7-0.6-1.2-0.4c-0.5,0.2-0.6,0.7-0.4,1.2c2.4,5.3,6.1,10.1,10.6,13.8c0.2,0.1,0.4,0.2,0.6,0.2
		c0.3,0,0.5-0.1,0.7-0.3c0.3-0.4,0.3-0.9-0.1-1.3C199.2,579.7,195.7,575.2,193.4,570.1"/>
</g>
<g id="Слой_8">
	<path d="M211.3,591.6c-0.4-0.3-0.9-0.3-1.3,0.1c-0.3,0.4-0.3,0.9,0.1,1.3l11,9.6c0.2,0.1,0.4,0.2,0.6,0.2c0.3,0,0.5-0.1,0.7-0.3
		c0.3-0.4,0.3-0.9-0.1-1.3L211.3,591.6z"/>
</g>
<g id="Слой_7">
	<path d="M232.6,613c-0.4-0.3-1-0.2-1.2,0.2c-0.3,0.4-0.2,1,0.2,1.2l10.9,7.4c0.2,0.1,0.3,0.2,0.5,0.2c0.3,0,0.6-0.1,0.7-0.4
		c0.3-0.4,0.2-1-0.2-1.2L232.6,613z"/>
</g>
<g id="Слой_6">
	<path d="M200.1,564.9c0.2,0,0.4-0.1,0.6-0.2c0.4-0.3,0.4-0.9,0.1-1.3l-7.9-8.6c-0.3-0.4-0.9-0.4-1.3-0.1c-0.4,0.3-0.4,0.9-0.1,1.3
		l7.9,8.6C199.6,564.8,199.9,564.9,200.1,564.9"/>
</g>
<g id="Слой_5">
	<path d="M210.9,578.8c-0.4,0.2-0.6,0.8-0.3,1.2c2,3.4,5.3,6,9,7.2c0.1,0,0.2,0,0.3,0c0.4,0,0.7-0.2,0.9-0.6c0.1-0.5-0.1-1-0.6-1.1
		c-3.3-1.1-6.3-3.4-8-6.4C211.9,578.7,211.3,578.5,210.9,578.8"/>
</g>
<g id="Слой_4">
	<path d="M235.7,606.8c0.3,0,0.5-0.1,0.7-0.3c0.3-0.4,0.3-0.9-0.1-1.3l-8.4-7c-0.4-0.3-0.9-0.3-1.3,0.1c-0.3,0.4-0.3,0.9,0.1,1.3
		l8.4,7C235.3,606.8,235.5,606.8,235.7,606.8"/>
</g>
<g id="Слой_3">
	<path d="M230.5,594.3c0.2,0,0.4-0.1,0.6-0.2c0.4-0.3,0.4-0.9,0.1-1.3l-4.4-4.9c-0.3-0.4-0.9-0.4-1.3-0.1c-0.4,0.3-0.4,0.9-0.1,1.3
		l4.4,4.8C230,594.2,230.2,594.3,230.5,594.3"/>
</g>
<g id="Слой_2">
	<path d="M211.4,571.8c0.2,0,0.4-0.1,0.6-0.2c0.4-0.3,0.4-0.9,0.1-1.3l-4.4-5c-0.3-0.4-0.9-0.4-1.3-0.1c-0.4,0.3-0.4,0.9-0.1,1.3
		l4.4,5C210.9,571.7,211.1,571.8,211.4,571.8"/>
</g>
</svg>
