<?xml version="1.0" encoding="UTF-8"?>
<!-- Generator: visioncortex VTracer 0.6.3 -->
<svg version="1.1" xmlns="http://www.w3.org/2000/svg" width="1141" height="1280">
<path d="M0 0 C3.43 3.5 6.39 7.3 9.23 11.29 C12.41 10.1 15.44 8.72 18.47 7.22 C59.12 -12.85 102.09 -22.94 147.36 -22.96 C148.83 -22.97 148.83 -22.97 150.34 -22.97 C165.51 -22.95 180.26 -22.41 195.23 -19.71 C196.21 -19.54 197.19 -19.37 198.19 -19.19 C236.12 -12.35 272.36 1.41 304.23 23.29 C304.46 22.58 304.68 21.88 304.91 21.15 C306.52 17.67 308.75 15.16 311.36 12.41 C311.86 11.88 312.35 11.35 312.87 10.81 C314.31 9.29 315.77 7.78 317.23 6.29 C317.9 5.61 318.56 4.93 319.25 4.23 C335.06 -10.66 358.29 -17.32 379.61 -17.06 C400.35 -16.39 417.06 -7.39 431.3 7.35 C448.96 27.45 455.67 52.08 454.44 78.49 C452.48 105.05 438.17 127.48 418.38 144.59 C415.16 147.13 411.78 149.22 408.23 151.29 C409.82 156.74 411.51 162.16 413.32 167.54 C426.63 207.26 433.94 252.48 426.23 294.29 C425.9 294.95 425.57 295.61 425.23 296.29 C426.05 296.5 426.86 296.72 427.7 296.95 C432.17 298.64 435.8 301.04 439.73 303.72 C440.92 304.52 440.92 304.52 442.13 305.34 C456.05 314.84 469.41 325.29 480.23 338.29 C481.34 339.54 481.34 339.54 482.46 340.82 C521.98 386.49 542.43 451.3 542.48 511.1 C542.49 512.19 542.49 512.19 542.49 513.29 C542.41 566.36 521.24 612.21 484.17 649.6 C478.16 655.57 471.98 661.14 465.23 666.29 C464.03 667.23 462.84 668.17 461.64 669.11 C454.46 674.67 447.1 679.79 439.36 684.54 C438.58 685.01 437.8 685.49 437 685.98 C431.5 689.29 431.5 689.29 429.23 689.29 C429.62 689.94 430.01 690.59 430.41 691.26 C463.01 746.45 487.27 808.95 493.23 873.29 C494.2 872.79 495.17 872.29 496.17 871.78 C518.97 860.19 541.78 851.06 567.23 847.29 C567.92 847.18 568.61 847.08 569.32 846.97 C576.51 846.04 583.74 846 590.98 845.97 C591.68 845.97 592.37 845.97 593.09 845.96 C628.36 845.95 661.03 852.25 686.92 877.54 C712.67 903.59 721.59 938.6 721.55 974.24 C721.18 1032.29 691.75 1092.31 650.99 1132.9 C629.64 1153.56 601.06 1165.85 571.25 1165.64 C563.68 1165.44 556.59 1164.14 549.23 1162.29 C548.37 1162.09 547.5 1161.9 546.6 1161.7 C542.38 1160.68 538.35 1159.36 534.33 1157.74 C490.68 1140.16 443.2 1129.86 397.23 1120.29 C396.94 1121.69 396.94 1121.69 396.64 1123.12 C391.13 1147.89 379.76 1171.59 357.86 1185.66 C330.11 1201.5 297.21 1204.51 265.8 1204.54 C264.99 1204.54 264.19 1204.54 263.36 1204.54 C187.78 1204.44 187.78 1204.44 162.93 1187.11 C161.27 1186.12 161.27 1186.12 159.4 1186.45 C156.47 1187.58 153.76 1189.01 150.98 1190.47 C130.67 1200.79 108.88 1205.55 86.23 1207.29 C85.54 1207.34 84.85 1207.4 84.14 1207.46 C38.9 1211.01 -21.77 1212.4 -59.39 1183.16 C-60.87 1181.89 -62.33 1180.6 -63.77 1179.29 C-64.4 1178.72 -65.03 1178.16 -65.68 1177.58 C-71.79 1171.83 -76.74 1165.12 -79.77 1157.29 C-121.64 1171.96 -161.21 1188.03 -196.2 1216.04 C-207.34 1224.84 -221.45 1230.66 -235.77 1231.29 C-236.75 1231.34 -237.74 1231.39 -238.76 1231.44 C-270.63 1232.31 -298.1 1217.74 -320.77 1196.29 C-321.64 1195.48 -322.51 1194.67 -323.41 1193.84 C-336.58 1181.24 -346.23 1166.29 -354.77 1150.29 C-355.16 1149.54 -355.56 1148.79 -355.97 1148.03 C-381.22 1099.87 -397.92 1027.19 -381.39 973.79 C-380.55 971.27 -379.66 968.78 -378.77 966.29 C-378.42 965.22 -378.07 964.15 -377.72 963.05 C-374.86 955.07 -370.1 949.58 -364.19 943.71 C-362.83 942.35 -361.5 940.95 -360.18 939.55 C-345.06 923.79 -327.19 917.47 -306.38 912.42 C-302.97 911.59 -299.58 910.72 -296.18 909.84 C-282.8 906.38 -269.43 903.4 -255.77 901.29 C-255.02 901.17 -254.27 901.05 -253.5 900.93 C-229.65 897.32 -204.45 898.22 -180.77 902.29 C-178.77 902.62 -176.77 902.95 -174.77 903.29 C-171.22 890.17 -167.69 877.04 -164.22 863.9 C-151.41 815.48 -138.11 767.18 -118.73 720.9 C-118.46 720.27 -118.19 719.63 -117.92 718.97 C-117.2 717.26 -116.48 715.55 -115.75 713.85 C-114.65 711.43 -114.65 711.43 -114.77 709.29 C-115.82 708.73 -116.88 708.17 -117.96 707.59 C-140.32 695.56 -160.95 681.26 -179.29 663.7 C-180.66 662.39 -182.04 661.09 -183.41 659.8 C-221.09 623.49 -237.72 571.68 -238.89 520.35 C-239.88 456.09 -223.92 391.57 -178.77 344.29 C-177.62 343.08 -177.62 343.08 -176.46 341.85 C-170.94 336.18 -164.96 331.2 -158.77 326.29 C-157.87 325.54 -156.98 324.79 -156.06 324.02 C-153.77 322.29 -153.77 322.29 -151.77 322.29 C-151.73 321.01 -151.69 319.73 -151.65 318.41 C-149.46 253.76 -137.24 193.38 -107.77 135.29 C-108.37 135 -108.97 134.72 -109.59 134.43 C-125.57 126.03 -137.49 106.57 -142.7 89.85 C-150.61 64.09 -145.78 34.88 -134.18 11.02 C-125.05 -5.71 -110.71 -16.77 -92.77 -22.71 C-59.21 -32.42 -25.44 -23.57 0 0 Z M-116.77 6.29 C-127.33 18.85 -133.17 36.9 -133.77 53.29 C-133.79 53.91 -133.82 54.53 -133.84 55.17 C-134.56 74.66 -131.52 94.23 -117.99 109.25 C-113.07 114 -107.47 116.87 -100.77 118.29 C-98.63 118.37 -98.63 118.37 -96.77 117.29 C-94.75 114.76 -94.75 114.76 -93.02 111.72 C-92.1 110.2 -92.1 110.2 -91.16 108.66 C-90.7 107.87 -90.24 107.09 -89.77 106.29 C-93.64 101.03 -93.64 101.03 -97.73 95.95 C-108 83.74 -112.86 71.26 -111.95 55.26 C-110.95 44.63 -105.29 35.22 -97.41 28.18 C-91.67 23.9 -85.61 21.32 -78.77 19.29 C-78.17 19.09 -77.57 18.9 -76.95 18.7 C-61.98 15.86 -47.64 19.59 -34.77 27.29 C-31.3 29.81 -28 32.47 -24.77 35.29 C-19.36 31.72 -14.02 28.08 -8.77 24.29 C-14.83 9.96 -33.13 0.07 -46.77 -5.71 C-71.57 -14.98 -97.67 -14.17 -116.77 6.29 Z M101.23 -5.71 C100.26 -5.56 99.29 -5.41 98.29 -5.26 C57.48 1.38 17.11 18.95 -14.77 45.29 C-15.29 45.72 -15.81 46.14 -16.36 46.59 C-34.45 61.45 -50.69 77.55 -64.77 96.29 C-65.27 96.94 -65.76 97.59 -66.28 98.27 C-110.61 156.45 -137.66 236.96 -135.77 310.29 C-132.12 308.9 -128.72 307.26 -125.29 305.41 C-87.6 285.34 -47.87 272.38 -6.77 261.29 C-5.68 260.99 -4.59 260.69 -3.47 260.39 C35.21 250 76 244.96 115.86 241.54 C116.55 241.48 117.24 241.42 117.94 241.36 C137.45 239.71 156.91 239.08 176.48 239.1 C178.13 239.1 178.13 239.1 179.8 239.1 C198.03 239.13 216.08 239.6 234.23 241.29 C235.24 241.38 235.24 241.38 236.27 241.47 C292.11 246.56 346.55 259.53 397.88 282.28 C400.62 283.45 403.39 284.43 406.23 285.29 C421.15 240.55 398.68 175.65 378.9 135.59 C373.29 124.4 367.33 113.61 360.23 103.29 C359.84 102.71 359.45 102.14 359.05 101.55 C349.89 88.16 339.33 76.09 328.23 64.29 C327.31 63.3 327.31 63.3 326.38 62.3 C321.4 57.14 315.81 52.76 310.23 48.29 C309.48 47.65 308.72 47.01 307.94 46.36 C294.58 35.25 279.59 26.32 264.23 18.29 C263.6 17.95 262.97 17.61 262.32 17.26 C240.45 5.57 214.65 -1.94 190.23 -5.71 C188.71 -5.95 188.71 -5.95 187.16 -6.2 C158.79 -10.44 129.55 -10.16 101.23 -5.71 Z M330.81 23.04 C328.88 25.41 327.01 27.78 325.23 30.29 C324.63 31.12 324.02 31.96 323.39 32.82 C321.99 35.15 321.99 35.15 322.68 37.25 C324.86 40.11 327.43 42.47 330.11 44.85 C330.64 45.33 331.17 45.81 331.71 46.31 C336.36 51.14 336.36 51.14 342.23 53.29 C343.28 52.12 344.27 50.9 345.23 49.66 C352.44 41.24 362.07 37.12 372.99 36 C384.5 35.61 395.48 39.1 404.05 46.95 C411.23 54.83 414.85 64.93 414.55 75.58 C412.69 91.68 406.26 104.38 395.23 116.29 C394.24 116.95 393.25 117.61 392.23 118.29 C392.85 123.25 395.03 127.22 397.3 131.6 C397.67 132.34 398.05 133.08 398.44 133.84 C399.37 135.66 400.3 137.47 401.23 139.29 C419.16 129.56 433.16 113.29 439.61 93.85 C445.89 70.57 443.27 47.55 431.3 26.48 C421.98 12.07 409.27 0.41 392.23 -3.71 C367.42 -6.54 346.93 4.73 330.81 23.04 Z M-93.77 39.29 C-100.25 48.78 -101.62 55.76 -100.77 67.29 C-98.76 76.69 -93.64 84.5 -86.08 90.41 C-83.11 92.49 -83.11 92.49 -80.78 92.16 C-78.07 90.98 -77.03 89.46 -75.27 87.1 C-65.04 73.85 -53.73 61.98 -41.77 50.29 C-49.48 40.71 -59.91 33.59 -72.36 31.94 C-80.2 31.65 -88.23 33.45 -93.77 39.29 Z M357.81 61.93 C356.32 63.95 355.2 65.52 355.32 68.09 C356.68 71.37 359.05 73.7 361.42 76.29 C369.41 85.27 377.84 95.49 383.23 106.29 C390.87 104.2 395.88 97.07 399.95 90.67 C404.09 83 405.53 75.03 403.61 66.52 C401.47 59.55 398.35 55.28 392.23 51.29 C379.23 44.78 366.45 51.95 357.81 61.93 Z M105.23 257.29 C104.41 257.37 103.59 257.45 102.75 257.54 C77.73 260.14 52.9 263.87 28.11 268.12 C23.76 268.87 19.41 269.57 15.05 270.2 C-47.16 279.52 -119.93 307.75 -165.77 351.29 C-166.27 351.76 -166.77 352.24 -167.29 352.73 C-205.18 388.8 -222.66 442.8 -223.94 494.4 C-223.97 496.2 -223.99 498.01 -224 499.81 C-224.01 500.79 -224.02 501.77 -224.03 502.78 C-224.46 556.08 -215.04 604.7 -177.84 645.02 C-175.95 647.09 -174.14 649.2 -172.33 651.35 C-121.06 709.7 -30.77 730.1 42.98 737.54 C43.81 737.62 44.63 737.7 45.48 737.79 C67.03 739.93 88.46 740.53 110.11 740.54 C110.78 740.54 111.44 740.54 112.13 740.54 C193.99 740.56 279.25 730.16 402.23 687.29 C402.99 686.93 403.74 686.57 404.51 686.21 C409.14 684 413.71 681.7 418.23 679.29 C419.11 678.82 419.11 678.82 420.01 678.34 C467.1 653.01 505.45 612.31 521.66 560.86 C539.09 501.99 523.83 434.38 495.77 381.34 C491.17 372.9 486.01 364.97 480.23 357.29 C479.54 356.35 478.86 355.42 478.14 354.46 C467.76 341.12 455.14 328.88 441.23 319.29 C440.64 318.87 440.04 318.45 439.43 318.02 C387.57 281.9 322.43 265.7 260.42 258.04 C259.21 257.88 258 257.73 256.75 257.58 C232.82 254.8 208.91 253.91 184.84 253.97 C182.57 253.97 180.3 253.98 178.03 253.98 C153.67 254.02 129.48 254.73 105.23 257.29 Z M404.26 701.7 C403.36 702.07 403.36 702.07 402.45 702.46 C400.5 703.27 398.55 704.09 396.61 704.91 C380.58 711.65 380.58 711.65 374.51 713.61 C368.35 715.77 363.39 718.29 358.11 722.07 C356.69 723.07 355.28 724.06 353.86 725.05 C352.74 725.83 352.74 725.83 351.59 726.64 C347.44 729.54 343.24 732.37 339.04 735.21 C337.72 736.11 337.72 736.11 336.37 737.02 C333.62 738.88 330.86 740.74 328.11 742.6 C326.68 743.56 326.68 743.56 325.23 744.54 C312.48 753.14 299.69 761.65 286.63 769.79 C283.15 771.97 279.69 774.18 276.23 776.4 C238.77 800.38 200.37 822.87 161.5 844.47 C158.12 846.35 154.75 848.23 151.38 850.12 C138.33 857.4 125.19 864.48 111.92 871.35 C111.25 871.7 110.58 872.05 109.89 872.41 C102.58 876.2 95.22 879.83 87.69 883.16 C87.05 883.44 86.4 883.73 85.74 884.02 C76.35 888.1 66.76 890.21 56.63 887.62 C48.82 884.2 42.49 877.79 36.25 872.11 C34.85 870.84 33.44 869.58 32.02 868.33 C25.21 862.3 18.75 855.95 12.33 849.51 C10.54 847.72 8.75 845.93 6.96 844.15 C1.17 838.36 -4.46 832.52 -9.77 826.29 C-11.39 824.51 -13.01 822.74 -14.64 820.97 C-18.76 816.46 -22.64 811.79 -26.48 807.04 C-28.83 804.2 -31.27 801.49 -33.77 798.79 C-37.77 794.42 -41.59 789.95 -45.3 785.34 C-47.1 783.11 -48.9 780.9 -50.73 778.7 C-60.63 766.7 -69.86 754.24 -78.84 741.53 C-84.34 733.75 -89.97 725.99 -96.77 719.29 C-102 728.97 -105.99 739.23 -110.14 749.41 C-110.73 750.86 -110.73 750.86 -111.33 752.33 C-129.67 797.32 -146.2 842.78 -157.7 890.04 C-158 891.26 -158 891.26 -158.31 892.51 C-159.54 897.75 -160.26 902.92 -160.77 908.29 C-160.25 908.5 -159.73 908.71 -159.2 908.92 C-142.4 915.79 -142.4 915.79 -135.14 919.41 C-134.3 919.83 -133.46 920.24 -132.6 920.67 C-130.77 922.29 -130.77 922.29 -129.87 925.28 C-129.77 928.29 -129.77 928.29 -131.77 931.29 C-137.2 932.1 -141.58 930.07 -146.52 928.1 C-172.62 918.15 -199.39 914.07 -227.27 914.1 C-228.06 914.1 -228.86 914.1 -229.68 914.1 C-249.92 913.04 -249.92 913.04 -268.77 918.29 C-267.93 918.55 -267.09 918.82 -266.23 919.1 C-251.39 924.09 -238.71 931.17 -226.77 941.29 C-226.25 941.72 -225.74 942.15 -225.22 942.59 C-212.5 953.47 -202.6 966.13 -193.77 980.29 C-193.35 980.94 -192.94 981.59 -192.52 982.27 C-162.95 1029.77 -144.06 1090.45 -156.77 1146.29 C-159.29 1156.63 -162.05 1166.88 -166.88 1176.42 C-167.91 1178.24 -167.91 1178.24 -167.77 1180.29 C-163.68 1178.83 -160.37 1176.82 -156.77 1174.41 C-135.15 1160.23 -112.36 1148.32 -87.77 1140.29 C-87.97 1139.69 -88.17 1139.09 -88.37 1138.47 C-100.13 1102.9 -117.74 1048.94 -110.77 1011.29 C-109.2 1009.36 -107.99 1008.4 -105.77 1007.29 C-101.89 1007.03 -98.99 1006.98 -95.77 1009.29 C-93.45 1012.84 -93.29 1016.37 -92.91 1020.54 C-92.76 1022.03 -92.62 1023.52 -92.47 1025.01 C-92.4 1025.8 -92.33 1026.59 -92.25 1027.4 C-85.77 1105.48 -85.77 1105.48 -49.77 1171.29 C-44.85 1175.3 -40.03 1178.8 -33.77 1180.29 C-33.49 1179.66 -33.21 1179.03 -32.92 1178.38 C-29.58 1171.25 -25.49 1163.31 -17.77 1160.29 C-13.49 1159.46 -9.55 1159.41 -5.58 1161.36 C2.78 1167.83 7.51 1179.26 8.95 1189.49 C9.06 1191.3 9.06 1191.3 10.23 1192.29 C20.05 1193.72 29.96 1193.4 39.86 1193.35 C41.64 1193.34 43.43 1193.34 45.21 1193.33 C49.55 1193.32 53.89 1193.31 58.23 1193.29 C58.48 1192.73 58.72 1192.17 58.97 1191.59 C60.09 1189.01 61.22 1186.43 62.36 1183.85 C62.74 1182.97 63.12 1182.09 63.51 1181.19 C67.3 1172.61 71.48 1164.8 79.23 1159.29 C84.78 1157.44 90.27 1157.32 95.55 1159.91 C104.73 1168.03 107.71 1176.28 109.23 1188.29 C122.06 1186.87 138.51 1182.17 148.23 1173.29 C148.82 1172.75 149.42 1172.22 150.02 1171.67 C151.97 1167.83 150.86 1164.41 150.11 1160.29 C149.8 1158.39 149.5 1156.5 149.2 1154.61 C149.04 1153.59 148.88 1152.57 148.71 1151.52 C143.71 1117.81 142.96 1083.94 145.91 1050 C146.14 1047.4 146.35 1044.8 146.56 1042.2 C146.83 1038.73 147.13 1035.26 147.43 1031.8 C147.61 1029.83 147.76 1027.85 147.92 1025.88 C148.03 1024.68 148.14 1023.49 148.26 1022.25 C148.35 1021.2 148.44 1020.14 148.54 1019.05 C149.39 1015.69 150.5 1014.37 153.23 1012.29 C157.18 1011.93 160.45 1012.26 164.23 1013.29 C165.29 1020 164.95 1025.09 163.42 1031.66 C155.18 1071.42 158.02 1115.05 163.73 1155.04 C163.84 1155.78 163.95 1156.53 164.06 1157.3 C164.97 1163.03 166.46 1168.73 169.8 1173.54 C175.93 1177.94 183.32 1179.69 190.55 1181.54 C191.23 1181.71 191.91 1181.89 192.61 1182.07 C196.22 1182.95 199.52 1183.49 203.23 1183.29 C203.5 1182.66 203.77 1182.03 204.05 1181.38 C207.52 1173.79 212.06 1167.14 219.67 1163.22 C225.59 1161.67 230.14 1162.18 235.55 1165.04 C243.61 1171.79 246.18 1180.32 248.23 1190.29 C253.48 1190.34 258.72 1190.37 263.96 1190.4 C265.74 1190.4 267.51 1190.42 269.29 1190.44 C278.49 1190.52 287.66 1190.46 296.83 1189.59 C297.89 1189.51 297.89 1189.51 298.97 1189.43 C302.42 1189.04 303.91 1188.68 306.13 1185.94 C307.59 1182.43 308.54 1178.84 309.48 1175.16 C311.85 1166.63 314.91 1157.59 322.8 1152.66 C328.79 1150.26 332.85 1149.77 338.92 1152.01 C345.6 1155.69 349.83 1162.22 352.23 1169.29 C358.63 1168.22 362.47 1162.71 366.1 1157.72 C390.08 1119.48 390.29 1062.39 390.94 1018.59 C390.96 1017.31 390.96 1017.31 390.99 1016 C391.01 1014.39 391.03 1012.78 391.05 1011.17 C391.09 1007.75 391.16 1004.56 392.23 1001.29 C399.46 999.94 399.46 999.94 403.17 1001.6 C405.23 1003.29 405.23 1003.29 406.23 1005.29 C409.2 1036.04 406.56 1067.27 401.57 1097.66 C401.24 1100.24 401.1 1102.68 401.23 1105.29 C403.15 1107.2 406.52 1107.03 409.08 1107.41 C410.55 1107.64 412.02 1107.87 413.5 1108.1 C414.28 1108.22 415.06 1108.34 415.86 1108.47 C443.67 1112.83 470 1119.75 496.45 1129.31 C499.69 1130.44 502.92 1131.41 506.23 1132.29 C505.82 1131.68 505.41 1131.07 504.98 1130.44 C490.63 1108.65 483.28 1085.38 482.23 1059.29 C482.17 1057.78 482.17 1057.78 482.11 1056.25 C481.17 1007.74 492.16 944.88 524.23 906.29 C524.64 905.79 525.05 905.3 525.47 904.79 C539.36 887.99 553.71 875.76 572.23 864.29 C555.17 858.86 523.71 873.65 508.48 881.29 C506.04 882.57 503.63 883.91 501.23 885.29 C500.63 885.62 500.03 885.95 499.41 886.3 C487.71 892.84 476.63 900.58 466.16 908.94 C463.68 910.67 462.2 910.67 459.23 910.29 C457.23 908.29 457.23 908.29 456.61 905.16 C458.06 896.18 468.09 891 475.04 885.97 C477.75 884.03 480.46 882.13 483.23 880.29 C482.03 869.49 480.03 859.12 477.36 848.6 C477.17 847.83 476.97 847.06 476.77 846.27 C469.55 817.8 459.88 790.8 447.23 764.29 C446.66 763.06 446.08 761.83 445.51 760.59 C437.79 744.08 429.51 727.99 420.23 712.29 C419.8 711.55 419.37 710.81 418.93 710.05 C415.76 704.55 415.76 704.55 412.23 699.29 C409.25 699.29 407 700.54 404.26 701.7 Z M-78.77 724.29 C-77.17 729.37 -74.07 733.09 -70.83 737.22 C-70.25 737.97 -69.67 738.72 -69.07 739.49 C-67.31 741.76 -65.54 744.02 -63.77 746.29 C-62.77 747.56 -61.77 748.84 -60.78 750.12 C-55.21 757.26 -49.55 764.32 -43.77 771.29 C-43.35 771.79 -42.93 772.29 -42.5 772.81 C-35.99 780.66 -29.23 788.23 -22.26 795.68 C-20.81 797.24 -19.37 798.81 -17.94 800.39 C-12.11 806.8 -6.13 813.03 -0.02 819.16 C0.68 819.86 1.38 820.56 2.1 821.29 C6.02 825.2 10.05 828.92 14.24 832.54 C18.35 836.14 22.27 839.93 26.23 843.68 C30.23 847.45 34.28 851.12 38.43 854.71 C40.7 856.69 42.94 858.7 45.17 860.72 C46.43 861.85 46.43 861.85 47.71 863 C49.38 864.51 51.04 866.04 52.7 867.57 C53.47 868.28 54.25 868.99 55.05 869.72 C55.73 870.36 56.42 871 57.13 871.66 C60.63 874.36 63.87 875.69 68.3 875.22 C81.01 873.21 93.23 865.45 104.61 859.72 C105.5 859.28 106.39 858.83 107.31 858.37 C119.82 852.09 132.24 845.68 144.45 838.84 C147.68 837.04 150.91 835.27 154.15 833.5 C167.65 826.11 181.03 818.58 194.29 810.77 C198.37 808.37 202.47 805.99 206.59 803.64 C222 794.83 237.17 785.67 252.23 776.29 C254.26 775.02 256.29 773.76 258.32 772.5 C277.81 760.38 297.21 748.12 316.23 735.29 C318.05 734.08 319.86 732.87 321.67 731.66 C322.72 730.96 322.72 730.96 323.79 730.25 C324.27 729.93 324.74 729.61 325.23 729.29 C322.12 727.73 319.77 728.9 316.41 729.66 C314.94 729.98 313.46 730.31 311.99 730.64 C311.2 730.81 310.41 730.99 309.59 731.17 C260.82 742 211.09 749.03 161.23 752.29 C160.5 752.33 159.77 752.38 159.02 752.43 C143.66 753.41 128.31 753.49 112.92 753.47 C111.64 753.47 110.35 753.47 109.03 753.47 C90.01 753.45 71.17 753.16 52.23 751.29 C50.89 751.16 49.55 751.04 48.21 750.91 C6.31 746.96 -34.77 739.02 -74.5 725 C-76.69 724.18 -76.69 724.18 -78.77 724.29 Z M568.23 881.29 C567.29 882.01 566.34 882.73 565.36 883.48 C519.54 919.64 503.55 977.37 496.59 1033.06 C492.86 1066.5 495.21 1101.3 516.9 1128.61 C529.96 1143.6 545.86 1151.3 565.61 1153.16 C594.39 1154.36 620.9 1142.6 641.98 1123.41 C647.62 1118.13 652.58 1112.47 657.23 1106.29 C658.03 1105.24 658.83 1104.19 659.66 1103.12 C690.61 1061.79 712.24 1003.81 705.41 951.73 C703.02 936.05 697.9 922.13 690.23 908.29 C689.69 907.3 689.15 906.31 688.59 905.29 C676.93 885.67 658 871.58 636.11 865.35 C610.86 859.1 588.33 865.76 568.23 881.29 Z M-346.77 945.29 C-347.7 946.03 -347.7 946.03 -348.66 946.8 C-363.13 959.76 -369.16 982.75 -370.77 1001.29 C-373.64 1060.76 -355.77 1136.16 -315.6 1181.2 C-314.66 1182.23 -313.71 1183.26 -312.77 1184.29 C-312.27 1184.82 -311.77 1185.36 -311.26 1185.92 C-293.83 1204.67 -272.26 1218.87 -246.1 1220.45 C-226.75 1221.03 -211.1 1213.96 -196.7 1201.5 C-175.54 1181.52 -165.73 1147.6 -164.77 1119.29 C-164.71 1118.1 -164.66 1116.92 -164.61 1115.7 C-162.99 1061.03 -189.09 1004.45 -225.86 964.94 C-233.11 957.32 -240.85 950.89 -249.77 945.29 C-250.63 944.74 -250.63 944.74 -251.52 944.18 C-280.22 926.59 -319.46 923.41 -346.77 945.29 Z M325.05 1164.04 C320.38 1170.27 318.36 1177.68 317.23 1185.29 C325.91 1183.36 334.01 1180.64 342.23 1177.29 C341.97 1170.96 339.9 1166.65 335.23 1162.29 C330.69 1160.42 328.4 1160.55 325.05 1164.04 Z M79.23 1173.29 C77.63 1175.89 76.3 1178.59 74.98 1181.35 C74.63 1182.05 74.28 1182.76 73.92 1183.49 C72.33 1186.74 71.03 1189.74 70.23 1193.29 C74.34 1192.98 78.44 1192.66 82.55 1192.35 C83.71 1192.26 84.88 1192.17 86.08 1192.08 C87.2 1192 88.32 1191.91 89.47 1191.82 C90.5 1191.74 91.54 1191.66 92.6 1191.58 C95.34 1191.37 95.34 1191.37 98.23 1190.29 C99 1182.06 96.19 1176.17 91.23 1169.66 C89.28 1168.14 89.28 1168.14 86.8 1167.72 C83.06 1168.54 81.75 1170.42 79.23 1173.29 Z M-14.77 1170.29 C-19.84 1175.64 -19.84 1175.64 -22.77 1182.29 C-22.47 1183.63 -22.15 1184.96 -21.77 1186.29 C-19.18 1186.96 -16.6 1187.62 -14.02 1188.29 C-13.29 1188.48 -12.56 1188.67 -11.8 1188.86 C-8.32 1189.75 -5.38 1190.29 -1.77 1190.29 C-2.91 1183.22 -4.95 1176.76 -9.77 1171.29 C-12.37 1170.44 -12.37 1170.44 -14.77 1170.29 Z M221.17 1175.41 C218.27 1178.12 215.91 1180.63 214.23 1184.29 C214.23 1184.95 214.23 1185.61 214.23 1186.29 C221.55 1187.95 228.76 1188.8 236.23 1189.29 C235.99 1182.56 234.23 1177.97 229.23 1173.29 C225.49 1171.52 224.07 1172.74 221.17 1175.41 Z " fill="#000000" transform="translate(401.765625,37.71484375)"/>
<path d="M0 0 C4.2 3.87 7.62 7.39 8.24 13.27 C8.41 19.05 8.04 22.52 4 27 C0.4 29.52 -2.45 30.48 -6.79 30.98 C-7.9 31.11 -9 31.24 -10.14 31.38 C-11.29 31.5 -12.44 31.62 -13.62 31.75 C-14.75 31.89 -15.88 32.03 -17.04 32.17 C-26.71 33.25 -37.85 34.36 -46 28 C-49.73 24.06 -51.3 20.29 -51.5 14.88 C-51.11 8.5 -48.99 4.72 -44.44 0.31 C-32.42 -9.48 -12.23 -9.08 0 0 Z " fill="#000000" transform="translate(771,413)"/>
<path d="M0 0 C4.27 2.58 8.95 5.8 11.23 10.35 C11.79 15 11.69 18.44 9.54 22.66 C3.42 29.77 -3.63 32.17 -12.77 33.35 C-16.44 33.56 -20.1 33.62 -23.77 33.66 C-24.75 33.69 -25.72 33.72 -26.72 33.75 C-32.61 33.8 -36.16 33.39 -40.77 29.35 C-44.44 24.98 -46.04 21.01 -45.77 15.35 C-44.18 9.81 -41.65 6.34 -36.77 3.35 C-25.04 -2.59 -12.54 -5.85 0 0 Z " fill="#000000" transform="translate(404.7734375,425.65234375)"/>
<path d="M0 0 C11.79 6.11 19.66 16.71 23.75 29.12 C26.9 40.69 26.9 40.69 26.38 45.56 C24.31 48.69 24.31 48.69 21.38 50.56 C18.31 51.12 18.31 51.12 15.38 50.56 C11.37 47.46 10.61 44.55 9.56 39.69 C7.67 31.6 4.32 24.85 0.38 17.56 C0.06 16.81 -0.26 16.06 -0.59 15.29 C-2.29 12.46 -4.61 11.83 -7.7 11.01 C-12.73 10.27 -16.36 10.48 -20.79 13.11 C-27.84 18.68 -30.08 27.15 -32.53 35.44 C-32.76 36.2 -32.99 36.96 -33.23 37.75 C-33.43 38.43 -33.63 39.12 -33.83 39.83 C-34.62 41.56 -34.62 41.56 -37.62 43.56 C-40.75 43.31 -40.75 43.31 -43.62 42.56 C-45.71 38.4 -44.77 34.1 -43.59 29.77 C-43.12 28.44 -42.63 27.12 -42.12 25.81 C-41.86 25.12 -41.59 24.42 -41.31 23.7 C-36.78 12.49 -30.23 4.59 -19.21 -0.57 C-13.11 -2.62 -6 -2.34 0 0 Z " fill="#000000" transform="translate(712.625,230.4375)"/>
<path d="M0 0 C9.74 7.13 15.5 15.19 18 27 C18.68 33.01 18.68 33.01 16.38 36.38 C13.44 38.39 11.56 38.93 8 39 C5.31 38.12 5.31 38.12 3 36 C2.09 33.88 1.45 31.75 0.8 29.54 C-1.85 21.16 -6.08 12.97 -13.94 8.56 C-17.66 6.9 -20.07 6.51 -24 8 C-33.33 16.26 -36.71 28.12 -39.27 39.89 C-40 43 -40 43 -41 44 C-46.38 44.47 -46.38 44.47 -48.67 42.74 C-51.14 39.5 -50.42 35.88 -50 32 C-47.79 19.32 -39.8 4.63 -29.31 -2.94 C-19.44 -7.47 -9.11 -5.22 0 0 Z " fill="#000000" transform="translate(398,243)"/>
</svg>
