<?xml version="1.0" encoding="UTF-8"?>
<!-- Generator: visioncortex VTracer 0.6.3 -->
<svg version="1.1" xmlns="http://www.w3.org/2000/svg" width="1280" height="1280">
<path d="M0 0 C9.37 7.64 16.34 10.91 28.39 12.06 C32.17 12.49 35.94 12.96 39.71 13.43 C41.18 13.62 41.18 13.62 42.68 13.8 C74.9 18 103.8 31.79 127.39 54.06 C128.14 54.74 128.89 55.43 129.66 56.13 C145.89 71.51 157.69 93.59 163.39 115.06 C163.83 116.61 163.83 116.61 164.28 118.19 C176.91 167.12 162.38 222.97 137.75 265.79 C130.03 278.72 121.53 290.92 111.39 302.06 C110.52 303.04 109.65 304.02 108.75 305.03 C101.63 312.95 94.09 320.43 86.51 327.9 C82.13 332.24 77.94 336.63 73.93 341.31 C71.86 343.67 69.65 345.87 67.39 348.06 C63.82 351.6 60.42 355.2 57.16 359.02 C55.2 361.29 53.17 363.48 51.14 365.68 C31.41 387.64 13.06 415.86 14.52 446.62 C15.84 459.06 20.44 469.78 29.71 478.37 C37.13 484.21 45.06 487.07 54.39 488.06 C55.17 488.14 55.95 488.23 56.75 488.31 C67.75 488.88 80.43 485.44 89.39 479.06 C90.07 478.6 90.74 478.15 91.43 477.68 C101.06 470.29 105.5 458.04 110.19 447.22 C122.1 420.04 138.48 393.14 159.02 371.58 C160.95 369.53 162.79 367.46 164.62 365.32 C168.66 360.68 172.97 356.34 177.33 352 C178.09 351.23 178.85 350.47 179.63 349.68 C231.99 297.42 308.17 272.4 381.14 271.87 C435.77 272.05 494.66 285.26 539.39 318.06 C540.39 318.78 541.39 319.49 542.42 320.23 C548.28 324.52 553.78 329.04 559.11 333.96 C561.08 335.77 563.09 337.48 565.14 339.18 C575.63 348.36 584.72 359.2 593.07 370.31 C594.4 372.06 595.75 373.8 597.1 375.53 C621.58 407.38 635.57 446.4 646.72 484.58 C650.89 498.75 657.19 508.53 667.39 519.06 C686.77 539.19 712.38 569.91 713.77 599.37 C713.37 603.35 712.61 605.74 710.39 609.06 C707.21 611.17 705.06 611.19 701.33 610.68 C698.63 610.33 696.13 610.06 693.39 610.06 C693.71 610.55 694.02 611.03 694.34 611.54 C709.85 635.9 709.85 635.9 708.39 646.06 C707.27 648.43 707.27 648.43 705.39 650.06 C699.74 651.9 694.35 650.52 689.15 647.96 C686.87 646.66 684.63 645.32 682.39 643.93 C681.62 643.47 680.85 643 680.05 642.52 C678.16 641.37 676.27 640.22 674.39 639.06 C674.45 640.15 674.5 641.25 674.55 642.38 C674.39 646.06 674.39 646.06 671.89 648.93 C666.69 652.6 661.21 652.32 655.14 651.62 C632.09 647.22 606.93 633.4 589.21 618.18 C587.47 616.87 587.47 616.87 585.45 617.13 C582.77 618.34 580.84 619.99 578.58 621.87 C560.34 636.2 538.23 643.73 515.94 648.88 C506.85 651.02 498.14 653.32 491.39 660.06 C488.88 667.59 491.03 673.26 494.42 680.18 C501.81 694.48 511.08 707.78 520.1 721.09 C528.21 733.07 535.73 745.34 542.39 758.18 C542.9 759.15 543.4 760.12 543.91 761.11 C547.33 767.77 550.53 774.51 553.52 781.37 C554.07 782.61 554.07 782.61 554.63 783.88 C558.63 793.32 561.23 803.68 558.33 813.75 C552.73 823.32 543.16 826.26 532.85 829 C504.73 835.24 474.45 832.17 445.92 830.73 C442.42 830.55 438.91 830.38 435.41 830.21 C421.73 829.55 408.06 828.85 394.39 828.06 C394.71 829.21 394.71 829.21 395.03 830.38 C395.83 833.27 396.62 836.16 397.39 839.06 C397.57 839.68 397.75 840.3 397.93 840.94 C399.2 845.64 399.81 850.17 399.83 855.06 C399.84 855.8 399.84 856.54 399.84 857.3 C399.74 862.46 398.73 866.56 396.89 871.43 C394.39 878.26 394.03 884.5 394.13 891.73 C394.14 892.89 394.15 894.05 394.15 895.25 C394.34 910.97 395.18 926.67 396.01 942.37 C396.15 944.96 396.28 947.56 396.41 950.15 C398.04 981.73 399.97 1013.29 402.93 1044.77 C404.6 1063.07 406.29 1083.61 394.43 1098.94 C380.37 1113.59 354.75 1112.12 335.86 1112.78 C314.7 1113.53 293.68 1115.32 272.62 1117.38 C235.53 1120.96 235.53 1120.96 227.39 1116.06 C224.3 1113.04 222.55 1110.4 220.71 1106.5 C218.47 1102.3 214.93 1101.19 210.74 1099.3 C206.47 1097.04 205 1093.63 203.32 1089.29 C200.92 1080.94 201.53 1071.98 205.2 1064.11 C207.58 1060.03 210.27 1057.63 214.46 1055.5 C218.45 1052.18 218.97 1048.77 220.41 1043.91 C222.18 1038.76 225.32 1036.8 229.64 1033.81 C237.73 1030.07 248.93 1029.88 257.39 1032.43 C264.62 1035.29 271.41 1039.16 278.22 1042.87 C297.32 1053.27 315.49 1057.02 337.21 1057.43 C338.33 1057.47 338.33 1057.47 339.47 1057.51 C342.93 1057.52 345.19 1057.18 348.22 1055.47 C354.08 1048.97 353.84 1042.17 353.72 1033.81 C353.71 1032.62 353.7 1031.44 353.69 1030.21 C353.5 1017.42 352.43 1004.73 351.21 992 C350.98 989.55 350.75 987.11 350.53 984.67 C346.97 925.95 346.97 925.95 329.98 870.5 C325.33 860.42 324.81 849.98 328.27 839.43 C329.23 836.83 330.23 834.37 331.53 831.91 C332.61 829.95 332.61 829.95 332.39 827.06 C318.29 825.45 304.36 824.71 290.17 824.74 C287.04 824.75 283.91 824.72 280.78 824.7 C278.76 824.69 276.74 824.69 274.72 824.7 C273.34 824.68 273.34 824.68 271.93 824.67 C264.71 824.72 259.01 825.75 253.43 830.68 C250.8 835.05 250.71 838.12 250.89 843.12 C250.93 844.45 250.93 844.45 250.96 845.81 C251.7 867.26 257.11 888.01 261.99 908.82 C264.9 921.36 266.73 933.37 259.71 944.81 C254.83 949.55 250.02 951.08 243.33 951.81 C238.73 952.45 236.67 953.21 233.77 956.87 C233.24 957.58 232.7 958.29 232.15 959.02 C227.76 964.12 221.42 966.19 214.89 967 C206.89 967.38 199.65 966.34 193.39 961.06 C192.37 959.73 191.35 958.39 190.33 957.06 C186.46 952.39 182.2 951.49 176.49 949.96 C171.46 948.49 168.14 946.51 165.09 942.23 C161.57 935.67 161.36 928.31 162.39 921.06 C164.8 913.37 168.76 906.39 172.64 899.37 C173.22 898.31 173.8 897.25 174.39 896.16 C176.82 891.72 179.25 887.29 181.78 882.9 C192.2 864.65 196.07 844.48 200.11 824.07 C203.29 808.26 206.59 793.57 220.07 783.38 C227.96 778.89 235.08 778.54 244 778.36 C246.01 778.31 248.02 778.25 250.03 778.19 C252.84 778.11 255.65 778.05 258.46 777.98 C261.94 777.9 265.42 777.81 268.9 777.71 C270.27 777.67 271.64 777.64 273 777.6 C274.01 777.57 274.01 777.57 275.04 777.54 C277.05 777.49 279.07 777.44 281.09 777.38 C289.66 777.16 298.21 776.84 306.77 776.38 C313.98 775.99 321.17 775.96 328.39 776.06 C328.28 775.45 328.16 774.85 328.04 774.23 C325.92 762.4 324.88 750.43 323.65 738.49 C322.58 728.15 321.46 717.83 319.86 707.56 C319.74 706.81 319.63 706.06 319.51 705.28 C317.89 692.92 317.89 692.92 311.39 683.06 C309.67 682.08 307.92 681.14 306.14 680.25 C299.31 676.57 294.57 673.34 290.89 666.43 C287.85 661.76 284.71 660.66 279.37 659.44 C277.05 658.95 274.72 658.51 272.39 658.06 C231.04 649.69 195.33 635.38 158.77 614.43 C135.29 601.01 115.31 593.7 88.34 591.85 C45.24 588.87 2.24 579.69 -31.61 551.06 C-32.11 550.63 -32.62 550.21 -33.14 549.77 C-59.69 527.4 -72.77 494.91 -76.36 460.93 C-78.91 430.86 -72.79 403.02 -59.61 376.06 C-59.29 375.41 -58.97 374.75 -58.65 374.08 C-47.25 350.9 -30.08 328.87 -11.51 310.96 C-9.79 309.24 -8.22 307.48 -6.65 305.62 C-1.99 300.25 3.06 295.28 8.11 290.27 C9.9 288.49 11.69 286.71 13.48 284.92 C17.93 280.49 22.38 276.06 26.83 271.64 C30.6 267.89 34.37 264.13 38.13 260.38 C39.89 258.63 41.64 256.89 43.4 255.15 C48.94 249.63 54.37 244.06 59.39 238.06 C59.89 237.48 60.38 236.9 60.88 236.3 C77.13 217.03 86.93 196.31 85.14 170.73 C83.56 153.27 79.34 134.33 65.52 122.45 C52.31 112.05 38.02 110.08 21.58 111.26 C19.16 111.86 19.16 111.86 18.27 114.36 C17.98 115.25 17.69 116.14 17.39 117.06 C2.66 139.42 -24.08 156.01 -50.04 161.58 C-58.8 163.26 -67.53 164.38 -76.45 164.46 C-81.3 165.38 -85.29 167.73 -89.61 170.06 C-90.44 170.51 -91.28 170.95 -92.15 171.42 C-94.77 172.83 -97.37 174.25 -99.98 175.68 C-101.92 176.75 -103.86 177.81 -105.79 178.88 C-106.76 179.41 -107.73 179.94 -108.73 180.49 C-111.45 181.97 -114.18 183.44 -116.92 184.9 C-141.5 198.06 -161.87 211.55 -171.89 238.51 C-177.27 252.89 -177.27 252.89 -181.61 255.06 C-184.93 255.51 -187.46 255.72 -190.45 254 C-203.92 243.12 -206.75 223.34 -208.61 207.06 C-209.03 201.49 -209.08 195.93 -209.05 190.34 C-209.04 187.93 -209.07 185.51 -209.1 183.09 C-209.17 169.1 -207.07 156.01 -200.17 143.62 C-199.74 142.83 -199.31 142.05 -198.87 141.24 C-189.3 124.19 -175.71 108.46 -160.61 96.06 C-158.85 94.51 -157.1 92.97 -155.34 91.42 C-153.61 90.06 -153.61 90.06 -151.02 88.81 C-148.36 87.3 -148.36 87.3 -148.1 84.59 C-148.15 83.61 -148.2 82.64 -148.26 81.64 C-148.3 80.56 -148.33 79.48 -148.37 78.36 C-148.46 76.63 -148.46 76.63 -148.54 74.87 C-149.08 52.18 -141.92 29.74 -125.99 13.02 C-94.3 -19.07 -36.7 -30.25 0 0 Z M-158.61 102.06 C-159.39 102.73 -160.18 103.39 -160.99 104.08 C-166 108.39 -170.41 112.96 -174.61 118.06 C-175.32 118.91 -176.04 119.77 -176.78 120.64 C-181.32 125.77 -181.32 125.77 -183.61 132.06 C-182.83 132.27 -182.05 132.47 -181.25 132.69 C-166.6 136.87 -155.43 143.14 -144.68 154 C-144.1 154.56 -143.52 155.11 -142.92 155.68 C-142.44 156.17 -141.96 156.66 -141.47 157.16 C-138.3 158.69 -135.94 157.89 -132.61 157.06 C-129.41 155.2 -129.41 155.2 -126.42 152.68 C-125.58 152.02 -125.58 152.02 -124.73 151.33 C-109.65 139.09 -97.13 125.28 -85.76 109.56 C-83.57 106.71 -82.08 105.75 -78.61 105.06 C-80.64 111.46 -83.39 115.85 -87.73 120.93 C-88.6 121.98 -88.6 121.98 -89.49 123.04 C-94.06 128.5 -98.72 133.87 -103.61 139.06 C-104.3 139.8 -104.99 140.55 -105.7 141.31 C-112.36 148.25 -120.01 154.85 -128.38 159.65 C-131.84 161.84 -132.52 164.17 -133.61 168.06 C-132.71 173.69 -130.61 178.75 -128.61 184.06 C-98.73 171.83 -98.73 171.83 -77.61 150.06 C-76.86 146.52 -76.51 142.97 -76.17 139.37 C-75.18 130.75 -73.64 123.81 -69.61 116.06 C-66.53 110.02 -65.55 104.77 -66.61 98.06 C-68.25 94.66 -68.25 94.66 -71.61 93.06 C-76.75 92.14 -81.23 92.81 -86.11 94.56 C-101.07 99.37 -117.25 94.93 -132.03 91.52 C-143.18 89.53 -150.56 95 -158.61 102.06 Z M-193.35 143.19 C-193.77 144.13 -194.18 145.08 -194.61 146.06 C-194.89 146.68 -195.17 147.3 -195.46 147.94 C-196.42 150.1 -197.36 152.26 -198.29 154.43 C-198.74 155.48 -198.74 155.48 -199.2 156.54 C-202.75 165.25 -203.98 173.81 -203.92 183.18 C-203.91 184.12 -203.91 185.06 -203.91 186.02 C-203.62 204.52 -202.82 234.14 -188.67 247.95 C-186.69 249.24 -186.69 249.24 -184.5 249 C-179.12 246.33 -177.39 237.56 -175.47 232.19 C-168.93 213.95 -157.91 203.47 -141.89 193.19 C-139.37 191.56 -136.97 189.9 -134.61 188.06 C-135.52 174.98 -142.39 161.62 -151.92 152.75 C-161.33 144.98 -175.08 136.39 -187.79 137.42 C-190.71 138.45 -191.99 140.52 -193.35 143.19 Z M-117.61 13.06 C-118.64 13.95 -118.64 13.95 -119.69 14.86 C-133.71 27.82 -142.58 48.37 -143.82 67.3 C-144.1 76.17 -144.1 76.17 -140.61 84.06 C-138.25 84.88 -136.02 85.49 -133.61 86.06 C-132.77 86.26 -131.94 86.47 -131.08 86.68 C-107.87 92.52 -107.87 92.52 -84.75 88.74 C-78.85 86.86 -72.58 87.12 -67.04 89.75 C-63.27 93.33 -61.45 96.02 -60.98 101.25 C-61.13 107.4 -63.56 112.78 -65.94 118.37 C-69.78 127.44 -70.97 136.36 -72.04 146.09 C-72.55 150.19 -73.54 154.08 -74.61 158.06 C-42.45 155.77 -16.73 145.77 6.31 122.5 C9.19 119.13 11.32 115.45 13.4 111.54 C16.57 107.6 20.52 105.59 25.49 104.67 C27.66 104.49 29.78 104.45 31.96 104.5 C32.74 104.51 33.51 104.52 34.32 104.53 C46.74 104.97 57.45 109.72 67.39 117.06 C68.64 117.97 68.64 117.97 69.92 118.9 C84.14 131.31 89.31 152.02 91.39 170.06 C93.1 195.26 85.21 214.6 69.39 234.06 C68.68 234.97 67.96 235.88 67.21 236.82 C62.06 243.25 56.58 249.31 50.97 255.34 C49.81 256.6 48.67 257.88 47.53 259.16 C42.09 265.3 36.41 271.17 30.58 276.95 C29 278.52 27.42 280.09 25.84 281.67 C22.48 285.01 19.13 288.35 15.77 291.68 C11.87 295.56 7.96 299.45 4.07 303.33 C2.52 304.87 0.97 306.4 -0.57 307.94 C-5.8 313.14 -10.83 318.44 -15.61 324.06 C-16.55 325.13 -17.5 326.2 -18.46 327.27 C-52.25 365.61 -73.25 407.18 -70.61 459.06 C-69.82 467.16 -68.36 475.12 -66.61 483.06 C-66.45 483.76 -66.3 484.46 -66.14 485.19 C-61.57 504.94 -51.69 522.58 -37.61 537.06 C-36.93 537.79 -36.26 538.53 -35.57 539.29 C-24.86 550.63 -11.46 559.09 2.39 566.06 C3.07 566.4 3.74 566.74 4.44 567.09 C32.12 580.75 64.3 584.9 94.77 586.24 C123.02 587.66 145.23 599.47 169.33 613.31 C221.35 643.07 274.25 654.32 333.39 660.06 C334.6 660.18 335.81 660.3 337.06 660.42 C340.23 660.72 343.41 661.02 346.58 661.31 C347.47 661.39 348.35 661.47 349.26 661.55 C354.66 662.01 359.98 662.12 365.39 662.06 C364.72 661.31 364.72 661.31 364.03 660.55 C359.1 655.09 359.1 655.09 358.39 651.06 C363.02 652.35 366.06 654.11 369.77 657.12 C390.6 673.12 415.47 682.42 441.89 679.43 C463.55 676.09 482.95 664.45 496.33 647.06 C503.71 637.74 503.71 637.74 507.39 627.06 C508.71 627.06 510.03 627.06 511.39 627.06 C510.03 631.61 508.64 635.9 506.21 640 C504.22 642.75 504.22 642.75 504.39 645.06 C522.43 641.43 541.38 637.46 557.39 628.06 C557.39 627.73 557.39 627.4 557.39 627.06 C556.6 627.04 555.8 627.02 554.97 627 C526.91 626.27 526.91 626.27 513.04 624.72 C508.12 624.17 503.35 623.97 498.39 624.06 C498.45 624.65 498.51 625.24 498.57 625.85 C498.82 630.26 498.92 632.35 496.21 636 C490.63 640.08 486 640.37 479.3 640.36 C478.41 640.36 477.52 640.37 476.6 640.38 C473.7 640.39 470.8 640.38 467.89 640.37 C466.41 640.37 466.41 640.37 464.9 640.37 C448.21 640.32 431.92 639.49 415.39 637.06 C414.49 636.94 413.59 636.81 412.65 636.69 C401.67 635.14 391.45 632.14 380.99 628.57 C380.32 628.34 379.65 628.11 378.96 627.87 C377.96 627.53 377.96 627.53 376.93 627.18 C366.65 623.69 357.3 622.2 346.43 622.16 C321.64 622.02 295.68 610.91 274.39 599.06 C273.66 598.66 272.93 598.25 272.17 597.84 C231.15 575.11 195.24 541.54 181.97 495.42 C174.66 468.21 177.92 438.21 192.03 413.71 C197.85 404.3 206.54 395.2 216.39 390.06 C217.38 390.06 218.37 390.06 219.39 390.06 C219.03 392.7 218.64 393.83 216.64 395.66 C215.9 396.19 215.16 396.71 214.39 397.25 C205.82 403.66 199.32 410.52 194.39 420.06 C193.88 421.05 193.37 422.04 192.84 423.05 C180.25 448.7 180.68 477.5 189.72 504.18 C197.48 525.59 210.71 541.94 226.39 558.06 C226.98 558.67 227.57 559.28 228.18 559.91 C231.9 563.7 235.75 567.13 239.96 570.37 C240.56 570.84 241.17 571.31 241.79 571.79 C243.05 572.75 244.31 573.71 245.57 574.67 C246.73 575.55 247.89 576.44 249.05 577.34 C278.6 600.13 319.42 618.97 357.39 617.06 C356.81 612.56 354.97 609.09 352.71 605.25 C352.35 604.63 351.99 604.01 351.63 603.37 C349.2 599.23 346.5 595.44 343.52 591.68 C342.05 589.56 341.55 587.62 341.39 585.06 C345.72 585.62 349.2 586.68 353.15 588.54 C354.78 589.29 354.78 589.29 356.45 590.06 C357.61 590.59 358.77 591.13 359.96 591.68 C388.09 604.47 429.97 619.81 461.39 611.06 C460.89 605.84 459.7 602.13 457.14 597.56 C456.52 596.43 455.89 595.31 455.25 594.15 C453.76 591.68 452.25 589.36 450.52 587.06 C448.43 584.11 447.94 582.52 447.39 579.06 C448.43 579.1 448.43 579.1 449.49 579.15 C463.42 579.74 477.33 580.18 491.27 580.25 C492.47 580.26 493.68 580.27 494.91 580.29 C504.79 580.3 515.24 580.12 524.39 576.06 C523.79 568.8 519.51 565.17 514.3 560.61 C504.2 551.71 504.2 551.71 492.39 547.06 C492.06 545.08 491.73 543.1 491.39 541.06 C491.99 541.04 492.58 541.02 493.19 541 C528.21 542.58 528.21 542.58 559.39 532.06 C558.92 523.5 550.81 516.95 545.39 511.06 C543.13 508.55 540.87 506.04 538.61 503.52 C537.11 501.85 535.6 500.19 534.09 498.54 C533.36 497.74 532.64 496.94 531.89 496.12 C531.24 495.41 530.6 494.7 529.93 493.97 C528.39 492.06 528.39 492.06 527.39 489.06 C530.09 488.16 532.1 487.84 534.89 487.63 C536.22 487.52 536.22 487.52 537.57 487.41 C538.5 487.34 539.43 487.26 540.39 487.18 C547.99 486.53 555.16 485.6 562.39 483.06 C563.46 479.47 563.46 479.47 562.43 475.99 C561.92 475.31 561.42 474.63 560.89 473.93 C558.51 470.63 556.31 467.3 554.21 463.81 C549.9 457.01 544.7 451.08 539.39 445.06 C538.64 444.19 537.89 443.33 537.11 442.43 C527.96 432.07 518.3 422.58 507.39 414.06 C506.43 413.28 505.47 412.5 504.48 411.7 C462.96 378.68 412.71 361.82 359.89 361.87 C359.05 361.87 358.2 361.87 357.33 361.87 C346.45 361.87 335.76 362.16 324.95 363.61 C320.39 364.18 315.99 364.21 311.39 364.06 C311.72 363.07 312.05 362.08 312.39 361.06 C315.27 360.14 315.27 360.14 318.96 359.43 C320.15 359.19 321.35 358.95 322.59 358.71 C329.6 357.51 336.35 356.89 343.45 356.86 C344.3 356.85 345.15 356.84 346.03 356.83 C413.49 356.4 472.65 374.89 523.07 420.95 C525.12 422.81 527.21 424.59 529.33 426.37 C541.03 436.61 551.15 449.32 559.52 462.37 C564.52 470.02 570.64 475.72 577.77 481.37 C586.73 488.6 593.9 497.19 600.83 506.31 C601.33 506.96 601.82 507.61 602.34 508.28 C606.06 513.29 609.78 518.63 610.89 524.87 C610.39 527.06 610.39 527.06 608.96 528.68 C605.27 530.66 601.39 531.85 597.39 533.06 C599.58 536.97 602.13 540.19 605.08 543.56 C613.59 553.54 622.31 565.12 621.72 578.8 C621.19 582.44 620.3 583.76 617.39 586.06 C604.79 592.27 590.82 592.35 577.08 592.18 C575.65 592.17 574.21 592.16 572.78 592.16 C569.32 592.13 565.86 592.1 562.39 592.06 C563.43 594.67 564.48 597.24 565.65 599.79 C568.73 606.62 570.23 612.56 570.39 620.06 C576.38 616.32 576.38 616.32 581.64 611.68 C583.39 610.06 583.39 610.06 585.66 609.69 C589.43 610.2 591.06 611.86 593.96 614.31 C612.32 629.16 640.76 647.66 665.39 646.06 C666.38 645.4 667.37 644.74 668.39 644.06 C668.05 639.88 667.53 636.97 665.33 633.37 C663.39 630.06 663.39 630.06 663.39 626.06 C667.97 626.57 670.41 628.33 673.96 631.18 C682.33 637.69 690.66 643.65 701.39 645.06 C701.72 644.73 702.05 644.4 702.39 644.06 C702.17 630.21 692.43 619.66 684.76 608.84 C674.38 594.16 674.38 594.16 673.39 589.06 C679.34 591.34 683.63 594.36 688.5 598.39 C692.96 601.97 697.39 604.72 703.21 605.37 C705.6 605.25 705.6 605.25 707.39 603.06 C709.54 576.97 685.44 549.23 669.96 530.88 C665.21 525.35 660.27 519.97 655.14 514.78 C646.37 505.6 642.8 494.06 639.64 482 C628.47 441.4 611.63 404.13 585.39 371.06 C584.65 370.12 583.91 369.18 583.14 368.21 C577.52 361.22 571.55 354.59 565.39 348.06 C564.67 347.28 563.94 346.49 563.19 345.69 C556.83 339.07 549.71 333.56 542.39 328.06 C541.85 327.64 541.3 327.22 540.74 326.79 C533.48 321.26 525.91 316.44 518.02 311.87 C517.21 311.4 516.39 310.92 515.56 310.43 C502.07 302.79 487.59 297.43 472.96 292.43 C472.13 292.15 471.31 291.87 470.45 291.58 C456.63 286.87 442.91 282.98 428.39 281.06 C427.44 280.93 427.44 280.93 426.46 280.8 C412.42 278.94 398.47 278.7 384.33 278.75 C383.21 278.75 382.08 278.75 380.92 278.75 C364.55 278.8 348.54 279.18 332.39 282.06 C331.38 282.23 330.37 282.4 329.32 282.58 C313.69 285.27 298.49 289.19 283.39 294.06 C282.16 294.46 282.16 294.46 280.91 294.86 C233.63 310.47 189.08 340.7 158.39 380.06 C157.46 381.2 156.52 382.33 155.57 383.47 C136.91 406.05 123.49 431.97 111.29 458.46 C104.15 473.91 95.83 484.28 79.52 490.37 C67.19 494.63 51.25 495.42 39.06 490.38 C38.18 489.94 37.3 489.51 36.39 489.06 C35.37 488.57 34.35 488.09 33.29 487.59 C22.08 481.7 15.6 472.89 11.39 461.06 C5.08 439.91 10.83 418.19 20.39 399.06 C20.72 398.4 21.05 397.74 21.38 397.06 C29.03 381.89 39.95 369.5 51.39 357.06 C52.92 355.35 54.44 353.64 55.96 351.93 C59.28 348.24 62.7 344.69 66.28 341.24 C68.04 339.43 69.66 337.58 71.29 335.66 C77.37 328.66 84.13 322.27 90.72 315.76 C100.38 306.21 100.38 306.21 109.39 296.06 C110.06 295.28 110.06 295.28 110.74 294.48 C123.26 279.64 133.37 262.71 141.39 245.06 C141.72 244.35 142.05 243.63 142.39 242.9 C162.78 198.13 169.9 148.58 152.52 101.9 C146.71 87.27 138.07 74.78 127.41 63.26 C125.39 61.06 125.39 61.06 123.02 58 C101.48 33.89 68.21 23.2 37.2 19.1 C35.26 18.84 35.26 18.84 33.29 18.58 C30.69 18.24 28.1 17.91 25.51 17.59 C16.55 16.44 10.37 14.84 3.08 9.31 C2.14 8.61 1.19 7.9 0.22 7.18 C-0.71 6.48 -1.65 5.78 -2.61 5.06 C-37.23 -20.84 -85.77 -14.84 -117.61 13.06 Z M569.39 482.06 C568.84 483.2 568.84 483.2 568.27 484.37 C565.28 488.65 560.71 489.6 555.77 490.58 C552.98 491.01 550.19 491.39 547.39 491.75 C545.95 491.94 545.95 491.94 544.47 492.14 C542.11 492.45 539.75 492.76 537.39 493.06 C540.9 497.2 544.48 501.24 548.21 505.18 C563.22 521.61 563.22 521.61 565.02 531.5 C564.28 535.7 564.28 535.7 561.39 537.81 C549.48 543.93 533.91 543.8 520.77 544.79 C518.59 544.96 516.42 545.13 514.25 545.31 C512.34 545.46 512.34 545.46 510.4 545.6 C507.29 545.77 507.29 545.77 505.39 548.06 C506.79 549 506.79 549 508.21 549.96 C525.77 562.04 525.77 562.04 529.39 572.06 C529.58 575.93 529.58 575.93 529.39 579.06 C514.7 587.07 497.21 585.31 481.02 585.18 C478.72 585.17 476.43 585.16 474.13 585.16 C468.55 585.13 462.97 585.1 457.39 585.06 C458.76 588.52 460.24 591.88 461.83 595.25 C464.91 602 467.65 608.55 467.39 616.06 C430.43 620.99 392.25 611.77 358.51 596.91 C356.47 595.93 356.47 595.93 354.39 596.06 C359.44 610.02 359.44 610.02 369.96 619.68 C372.08 620.53 374.23 621.32 376.39 622.06 C377.49 622.48 378.59 622.9 379.73 623.34 C395.27 628.97 411.95 632.49 428.39 634.06 C429.23 634.14 430.06 634.23 430.91 634.32 C441.02 635.24 451.13 635.28 461.27 635.3 C464.35 635.31 467.43 635.34 470.51 635.37 C472.48 635.38 474.45 635.38 476.42 635.39 C477.33 635.4 478.25 635.41 479.19 635.42 C484.34 635.41 487.94 634.96 492.39 632.06 C493.66 630.33 493.66 630.33 493.39 628.06 C492.44 625.7 491.45 623.37 490.39 621.06 C490.39 620.07 490.39 619.08 490.39 618.06 C498.28 617.82 505.88 618.62 513.71 619.56 C524.29 620.74 534.68 621.36 545.33 621.37 C547.16 621.38 547.16 621.38 549.03 621.39 C554.64 621.34 559.09 621.04 564.39 619.06 C566.12 612.44 564.53 608.03 561.39 602.06 C559.37 598.88 557.28 595.79 555.1 592.72 C553.56 590.32 552.98 588.78 552.39 586.06 C552.97 586.07 553.54 586.07 554.14 586.08 C560.17 586.15 566.21 586.19 572.24 586.22 C574.49 586.24 576.74 586.26 578.98 586.28 C582.23 586.32 585.48 586.34 588.72 586.35 C590.2 586.37 590.2 586.37 591.72 586.4 C599.37 586.4 608.57 586.19 614.71 581.16 C616.69 579.07 616.69 579.07 616.83 575.73 C614.87 559.13 598.81 542.47 587.39 531.06 C587.39 529.74 587.39 528.42 587.39 527.06 C595.81 526.56 595.81 526.56 604.39 526.06 C605.75 523.1 605.75 523.1 604.28 520.53 C599.9 513.13 595.04 506.54 589.39 500.06 C588.65 499.19 587.9 498.32 587.14 497.43 C582.3 491.91 577.26 486.5 571.39 482.06 C570.73 482.06 570.07 482.06 569.39 482.06 Z M295.39 662.06 C299.26 670.57 309.06 675.72 317.39 679.06 C324.48 681.59 331.28 682.7 338.77 683.25 C339.78 683.33 340.8 683.4 341.84 683.49 C358.18 684.7 372.91 683.9 388.39 678.06 C388.39 677.07 388.39 676.08 388.39 675.06 C378.91 665.92 366.03 666.74 353.77 666.31 C349.56 666.11 345.34 665.89 341.13 665.68 C339.6 665.61 339.6 665.61 338.03 665.53 C328.94 665.08 319.98 664.17 310.96 662.97 C305.71 662.28 300.69 661.93 295.39 662.06 Z M475 672.65 C458.16 682.93 440.84 685.47 421.39 685.06 C434.29 706.19 449.11 726.69 465.05 745.63 C474.63 757.14 474.63 757.14 474.96 763.31 C474.39 767.06 474.39 767.06 473.02 769.37 C463.72 775.35 451.9 774.95 441.23 775.59 C439.32 775.71 437.42 775.84 435.51 775.96 C414.71 777.3 393.91 778.38 373.1 779.4 C369.9 779.56 366.71 779.72 363.51 779.88 C339.86 781.07 316.2 782.16 292.54 782.94 C291.06 782.99 291.06 782.99 289.56 783.04 C280.24 783.35 270.92 783.65 261.59 783.91 C258.23 784 254.86 784.11 251.49 784.21 C249.95 784.26 248.4 784.3 246.86 784.34 C235.39 784.6 224.85 785.44 216.39 794.06 C208.73 804.09 207.53 819.67 204.99 831.69 C199.8 856.07 192.64 877.41 179.63 898.68 C172.74 909.96 167.08 920.5 168.39 934.06 C170.03 938.79 172.11 941.45 176.39 944.06 C179.37 944.94 182.34 945.52 185.39 946.06 C185.42 945.16 185.44 944.26 185.46 943.33 C185.85 934.28 187.43 926.13 190.06 917.45 C195.73 898.69 200.14 879.64 204.55 860.54 C204.92 858.92 204.92 858.92 205.3 857.27 C205.77 855.23 206.24 853.19 206.71 851.14 C207.02 849.78 207.02 849.78 207.34 848.4 C207.52 847.6 207.7 846.81 207.89 845.99 C208.39 844.06 208.39 844.06 209.39 842.06 C210.38 842.06 211.37 842.06 212.39 842.06 C212.59 847.99 211.95 853.15 210.59 858.91 C210.4 859.75 210.21 860.59 210.01 861.46 C209.38 864.2 208.73 866.94 208.08 869.68 C207.75 871.1 207.75 871.1 207.42 872.54 C204.97 883.04 202.36 893.48 199.28 903.82 C199.03 904.67 198.78 905.52 198.51 906.39 C197.31 910.41 196.08 914.42 194.8 918.41 C191.14 930.11 189.35 941.07 193.39 953.06 C194.96 955.06 194.96 955.06 196.89 956.43 C197.5 956.92 198.11 957.4 198.74 957.89 C204.03 961.61 211.19 960.41 217.39 960.06 C223.56 958.97 227.39 956.84 231.39 952.06 C230.67 951.36 229.95 950.66 229.21 949.93 C219.84 940.46 217.25 932.11 217.29 918.9 C217.47 913.88 218.19 908.92 218.83 903.93 C220.1 893.39 220.79 882.92 221.08 872.31 C221.12 871.01 221.15 869.72 221.19 868.39 C221.4 859.61 221.43 850.84 221.39 842.06 C222.71 842.39 224.03 842.72 225.39 843.06 C225.57 844.93 225.73 846.81 225.89 848.68 C226.03 850.25 226.03 850.25 226.18 851.85 C226.86 862.49 226.33 873.13 225.52 883.75 C225.39 885.56 225.39 885.56 225.25 887.41 C224.71 894.52 224.06 901.6 223.27 908.68 C222.09 919.38 221.04 929.59 226.14 939.43 C229.57 943.43 232.17 944.85 237.46 945.34 C245.94 945.64 245.94 945.64 253.39 942.06 C258.71 935.16 259.11 929.52 258.39 921.06 C257.15 913.51 255.31 906.07 253.58 898.62 C244.8 860.56 244.8 860.56 244.96 842.68 C244.94 841.84 244.92 840.99 244.9 840.11 C244.9 833.54 246.37 829.2 251.04 824.35 C251.57 823.99 252.1 823.62 252.64 823.25 C253.17 822.87 253.69 822.49 254.22 822.1 C261.12 818.79 268.2 818.75 275.7 818.76 C277.38 818.75 277.38 818.75 279.09 818.74 C282.81 818.73 286.54 818.74 290.27 818.75 C292.23 818.75 292.23 818.75 294.22 818.75 C340.05 818.82 385.83 821.27 431.57 823.98 C492 831.1 492 831.1 548.58 816.62 C552.62 812.94 553.47 810.18 553.89 804.87 C553.17 777.51 530.55 747.33 515.86 725.7 C506.05 711.24 497.2 696.14 488.24 681.14 C487.64 680.13 487.04 679.12 486.41 678.08 C485.61 676.74 485.61 676.74 484.79 675.36 C483.7 673.57 482.56 671.81 481.39 670.06 C478.74 670.06 477.22 671.29 475 672.65 Z M390.79 682.18 C385.5 689.29 387.11 703.05 387.21 711.56 C387.21 712.79 387.22 714.03 387.23 715.3 C387.39 734.57 388.12 753.82 389.39 773.06 C396.81 772.71 404.23 772.35 411.64 771.99 C415.09 771.82 418.53 771.65 421.98 771.49 C446.65 772.06 446.65 772.06 469.39 765.06 C468.91 760.23 467.7 757.6 464.71 753.81 C464.12 753.05 464.12 753.05 463.52 752.28 C462.16 750.53 460.78 748.8 459.39 747.06 C457.14 744.19 454.89 741.31 452.64 738.43 C452.05 737.67 451.45 736.91 450.84 736.12 C443.5 726.69 436.52 716.98 429.68 707.17 C419.38 691.39 419.38 691.39 404.39 681.06 C402.4 680.91 400.4 680.84 398.39 680.81 C397.34 680.78 396.29 680.76 395.21 680.73 C392.46 680.83 392.46 680.83 390.79 682.18 Z M324.39 687.06 C325.02 693.87 325.66 700.68 326.31 707.49 C326.53 709.8 326.75 712.1 326.96 714.41 C328.67 744.47 328.67 744.47 342.96 769.68 C347.69 773.43 352.15 774.31 358.12 774.29 C359.4 774.29 360.68 774.29 362 774.28 C362.66 774.28 363.32 774.27 364 774.26 C366.02 774.25 368.04 774.24 370.07 774.24 C376.84 774.38 376.84 774.38 383.39 773.06 C383.45 764.24 383.3 755.44 382.99 746.63 C382.95 745.4 382.91 744.16 382.86 742.89 C382.78 740.3 382.69 737.71 382.59 735.12 C382.46 731.2 382.33 727.28 382.19 723.36 C381.57 705.19 381.57 705.19 380.39 687.06 C379.4 687.21 378.41 687.37 377.39 687.52 C369.23 688.75 361.21 689.28 352.96 689.31 C351.62 689.32 351.62 689.32 350.26 689.34 C341.56 689.3 333.01 688.17 324.39 687.06 Z M339.39 825.06 C339.25 825.88 339.25 825.88 339.1 826.71 C338.08 831.82 336.59 836.24 334.3 840.92 C330.64 849.59 331.8 858.79 335.19 867.28 C335.98 869.1 336.78 870.91 337.6 872.71 C344.39 888.03 347.15 904.68 349.39 921.18 C349.52 922.06 349.64 922.93 349.76 923.83 C352.9 946.31 355.1 968.89 357.16 991.49 C357.37 993.78 357.58 996.07 357.8 998.36 C358.94 1010.44 359.6 1022.48 359.77 1034.62 C359.8 1035.73 359.82 1036.85 359.85 1038 C359.87 1045.98 358.76 1052.45 353.18 1058.43 C352.05 1059.24 352.05 1059.24 350.89 1060.06 C350.14 1060.62 349.39 1061.17 348.61 1061.75 C338.38 1067.8 320.41 1063.15 309.39 1061.31 C308.49 1061.16 307.58 1061.02 306.65 1060.87 C293.56 1058.52 282.07 1052.56 270.46 1046.37 C268.54 1045.35 266.62 1044.34 264.7 1043.32 C262.97 1042.42 261.25 1041.5 259.53 1040.58 C251.52 1036.69 244.18 1035.72 235.58 1038.25 C231.58 1039.76 228.99 1041.57 226.39 1045.06 C226 1047.05 225.66 1049.05 225.39 1051.06 C226.64 1051.21 227.89 1051.35 229.18 1051.5 C249.33 1054.03 268.46 1059.68 287.88 1065.45 C293.36 1067.07 298.87 1068.58 304.39 1070.06 C304.39 1071.38 304.39 1072.7 304.39 1074.06 C297.21 1072.86 290.23 1071.33 283.22 1069.34 C281.83 1068.96 281.83 1068.96 280.42 1068.57 C276.52 1067.49 272.62 1066.39 268.72 1065.3 C242.73 1056.43 242.73 1056.43 216.89 1060.12 C212.88 1063.14 209.98 1066.24 208.39 1071.06 C207.34 1079.56 207.47 1086.89 212.39 1094.06 C215.14 1096.26 215.14 1096.26 217.89 1096.18 C220.47 1095.33 220.47 1095.33 221.31 1093.34 C222.08 1091.27 222.75 1089.18 223.39 1087.06 C224.83 1083.43 224.83 1083.43 227.02 1082 C227.8 1081.69 228.59 1081.38 229.39 1081.06 C230.59 1080.55 231.79 1080.05 233.03 1079.53 C237.21 1077.98 241.14 1077.56 245.58 1077.62 C246.38 1077.63 247.17 1077.63 247.99 1077.63 C256.99 1077.84 265.84 1079.23 274.73 1080.56 C283.19 1081.81 291.53 1082.6 300.09 1082.88 C302.72 1083.02 304.89 1083.28 307.39 1084.06 C307.06 1085.05 306.73 1086.04 306.39 1087.06 C292.24 1087.63 278.58 1086.45 264.59 1084.48 C247.39 1082.08 247.39 1082.08 231.02 1086.81 C227.92 1089.47 226.64 1091.16 225.39 1095.06 C225.25 1100.34 226.03 1104.86 229.39 1109.06 C232.3 1112.08 234.46 1113.32 238.58 1113.59 C240.33 1113.61 242.08 1113.59 243.83 1113.56 C244.81 1113.55 245.8 1113.54 246.81 1113.53 C258.24 1113.27 269.59 1111.9 280.94 1110.63 C299.24 1108.59 317.55 1107.38 335.95 1106.6 C337.8 1106.52 339.65 1106.44 341.5 1106.36 C345.09 1106.2 348.69 1106.06 352.29 1105.93 C372.68 1105.17 372.68 1105.17 389.64 1094.93 C403.87 1076.95 397.3 1046.87 395.49 1025.96 C394.88 1018.93 394.32 1011.9 393.77 1004.86 C393.69 1003.75 393.69 1003.75 393.6 1002.61 C392.15 983.85 391.15 965.08 390.21 946.29 C390.08 943.72 389.95 941.15 389.82 938.58 C389 922.71 388.25 906.84 388.04 890.96 C388 889.39 388 889.39 387.96 887.8 C387.93 881.26 389.11 875.97 391.43 869.85 C395.76 857.28 393.75 843.53 388.96 831.43 C387.21 828.78 386.28 828.23 383.39 827.06 C381.18 826.62 381.18 826.62 378.82 826.47 C377.94 826.4 377.07 826.32 376.16 826.25 C371.61 825.94 367.07 825.69 362.52 825.5 C361.56 825.45 360.6 825.41 359.62 825.37 C352.87 825.08 346.15 824.93 339.39 825.06 Z " fill="#000000" transform="translate(387.60546875,106.94140625)"/>
<path d="M0 0 C6.59 6.25 11.25 12.4 12 21.63 C12 29.51 9.53 35.3 4.09 41 C-3.26 48.04 -9.92 51.15 -20.12 51.5 C-28.41 51.21 -33.1 49.25 -38.81 43.31 C-44.52 36.23 -45.59 29.12 -45.35 20.15 C-44.51 12.54 -40.71 6.05 -35 1 C-24.66 -5.86 -10.41 -7.77 0 0 Z M-35 9 C-36.65 11.55 -38.12 14.08 -39 17 C-38.67 17.99 -38.34 18.98 -38 20 C-37.66 19.47 -37.32 18.94 -36.97 18.39 C-33.41 13.2 -30.16 9.75 -24 8 C-17.23 6.96 -11.58 7.95 -6 12 C-0.93 16.83 1.17 21.33 1.62 28.25 C1.7 29.33 1.77 30.41 1.85 31.52 C1.9 32.34 1.95 33.16 2 34 C5.8 29.21 6.6 25.07 6 19 C4.01 12.44 0.03 6.42 -5.95 2.83 C-16.17 -1.44 -27.4 1.05 -35 9 Z M-31.44 20.12 C-33.26 22.92 -33.26 22.92 -32.94 26.19 C-32.22 29.3 -32.22 29.3 -29 31 C-24.15 31.59 -24.15 31.59 -20 29.44 C-18.57 25.95 -19.07 23.6 -20 20 C-24.32 17.12 -27.39 16.6 -31.44 20.12 Z M-15 34 C-15.33 35.65 -15.66 37.3 -16 39 C-14.68 39 -13.36 39 -12 39 C-11.67 37.68 -11.34 36.36 -11 35 C-12.32 34.67 -13.64 34.34 -15 34 Z " fill="#000000" transform="translate(323,138)"/>
<path d="M0 0 C1.93 0.16 1.93 0.16 4 1 C9.2 9.41 11.05 21.27 10 31 C8.76 36.05 6.46 39.29 2 42 C-10.81 47.56 -25.43 46.71 -39 45 C-38.78 45.64 -38.57 46.28 -38.34 46.94 C-36.28 53.36 -34.92 58.56 -37 65.19 C-39.79 69.11 -42.43 70.82 -47 72 C-64.32 74.07 -81.48 68.61 -98 64 C-97.76 64.91 -97.76 64.91 -97.51 65.84 C-96.27 71.1 -96.33 76.85 -97.94 82 C-102.04 85.98 -106.58 86.93 -112.21 87.1 C-130.54 86.25 -151.46 78.73 -165 66 C-165.85 65.22 -166.69 64.43 -167.56 63.62 C-168.77 62.33 -168.77 62.33 -170 61 C-171.05 59.94 -171.05 59.94 -172.11 58.87 C-172.86 58.09 -173.61 57.3 -174.38 56.5 C-175.08 55.77 -175.79 55.04 -176.52 54.28 C-178 52 -178 52 -177.73 49.22 C-177.49 48.49 -177.25 47.75 -177 47 C-173.51 48.45 -171.73 50.27 -169.38 53.19 C-165.1 58.11 -160.49 61.54 -155 65 C-154.12 65.59 -153.24 66.17 -152.33 66.78 C-139.9 74.62 -122.9 80.91 -108 80 C-107.01 79.67 -106.02 79.34 -105 79 C-101.97 72.94 -104.22 63.52 -105 57 C-101.05 55.49 -98.09 56.53 -94.11 57.62 C-93.45 57.79 -92.78 57.97 -92.1 58.15 C-89.98 58.72 -87.86 59.3 -85.75 59.88 C-83.65 60.45 -81.55 61.01 -79.44 61.58 C-77.52 62.09 -75.61 62.61 -73.69 63.14 C-67.6 64.56 -61.57 65.15 -55.31 65.19 C-54.24 65.2 -53.16 65.22 -52.05 65.23 C-48.97 65 -46.78 64.31 -44 63 C-42.69 57.51 -43.34 53.93 -45.21 48.62 C-46.17 45.45 -46.56 42.29 -47 39 C-46.16 39.01 -45.32 39.02 -44.45 39.03 C-41.27 39.07 -38.08 39.09 -34.9 39.11 C-33.53 39.12 -32.16 39.13 -30.8 39.15 C-13.29 39.97 -13.29 39.97 2 33 C4.33 26 2.59 19.88 0.74 12.98 C-0.26 8.97 -0.73 5.13 -1 1 C-0.67 0.67 -0.34 0.34 0 0 Z " fill="#000000" transform="translate(838,588)"/>
<path d="M0 0 C3.66 2.65 4.84 4.01 5.56 8.5 C4.92 12.51 3.84 14.16 1 17 C-2.21 18.6 -5.52 18.48 -9 18 C-12.31 15.88 -12.88 14.42 -13.94 10.62 C-14.01 6.45 -13.32 4.45 -11 1 C-7.51 -1.86 -4.18 -1.1 0 0 Z M-5 3 C-5.33 4.65 -5.66 6.3 -6 8 C-4.35 8 -2.7 8 -1 8 C-1.33 6.35 -1.66 4.7 -2 3 C-2.99 3 -3.98 3 -5 3 Z " fill="#000000" transform="translate(392,279)"/>
</svg>
