<?xml version="1.0" encoding="UTF-8"?>
<!-- Generator: visioncortex VTracer 0.6.3 -->
<svg version="1.1" xmlns="http://www.w3.org/2000/svg" width="1280" height="1280">
<path d="M0 0 C2.88 1.9 5.72 3.84 8.54 5.82 C9.85 6.71 11.17 7.61 12.48 8.51 C25.27 17.34 37.84 26.61 48.62 37.86 C50.42 39.69 52.26 41.31 54.23 42.94 C60.88 48.67 66.66 55.33 72.54 61.82 C73.39 62.75 73.39 62.75 74.25 63.69 C92.93 84.31 105.21 106.35 114.71 132.54 C114.95 133.18 115.18 133.81 115.41 134.46 C120.95 149.65 126.02 165 131.03 180.37 C131.98 183.28 132.94 186.18 133.9 189.09 C134.83 191.91 135.75 194.74 136.68 197.56 C137.11 198.9 137.55 200.23 137.99 201.56 C138.59 203.4 139.19 205.24 139.79 207.08 C140.3 208.64 140.3 208.64 140.82 210.23 C141.54 212.82 141.54 212.82 141.54 215.82 C142.43 215.37 143.32 214.92 144.23 214.45 C147.81 212.65 151.4 210.87 154.98 209.09 C156.72 208.22 158.46 207.36 160.19 206.49 C173.54 199.79 186.91 194.18 201.13 189.6 C203.14 188.95 205.14 188.27 207.14 187.58 C263.42 168.79 329.05 179.02 381.17 204.94 C387.8 208.29 394.27 211.82 400.54 215.82 C403.51 208.67 406.08 201.44 408.48 194.08 C409.23 191.81 409.99 189.53 410.74 187.26 C411.12 186.08 411.51 184.91 411.91 183.7 C442.53 90.8 442.53 90.8 471.64 62.72 C473.38 60.98 474.98 59.19 476.57 57.3 C480.93 52.29 485.59 47.58 490.29 42.88 C491.78 41.39 493.26 39.89 494.74 38.39 C501.01 32.08 507.54 26.31 514.54 20.82 C515.27 20.24 516 19.66 516.76 19.06 C547.08 -4.82 593.19 -38.79 633.54 -36.18 C638.23 -35.62 641.61 -34.86 645.48 -32.06 C648.08 -28.44 648.6 -25.52 649.54 -21.18 C650.2 -20.85 650.86 -20.52 651.54 -20.18 C651.25 -19.44 650.95 -18.7 650.64 -17.93 C638.85 11.69 628.18 40.49 623.98 72.25 C621.42 91.36 618.79 110.83 611.86 128.94 C611.52 129.84 611.18 130.74 610.83 131.66 C602.19 154.09 589.77 175.23 574.54 193.82 C573.82 194.72 573.09 195.62 572.35 196.55 C555.13 217.88 537.1 237.89 515.22 254.53 C513.61 255.76 512.03 257.03 510.44 258.3 C499.21 267.23 487.03 274.79 474.54 281.82 C476.01 286.1 478.19 289.22 480.92 292.82 C507.34 328.88 522.52 372.8 529.86 416.5 C529.99 417.28 530.11 418.05 530.25 418.84 C532.73 433.8 533.78 448.47 533.79 463.63 C533.79 464.87 533.79 464.87 533.8 466.14 C533.7 540.33 508.96 611.92 459.74 667.89 C458.32 669.51 456.93 671.16 455.54 672.82 C455.05 673.37 454.55 673.93 454.04 674.5 C453.57 675.07 453.11 675.64 452.62 676.23 C452.2 676.73 451.78 677.22 451.34 677.74 C449.02 683.8 452.55 693.51 453.75 699.71 C453.97 700.85 454.19 701.99 454.42 703.16 C456.8 715.35 459.48 727.47 462.21 739.59 C462.74 741.94 463.26 744.29 463.79 746.64 C464.88 751.5 465.97 756.36 467.06 761.22 C468.47 767.44 469.86 773.67 471.25 779.9 C472.33 784.72 473.41 789.55 474.5 794.37 C475.01 796.67 475.53 798.97 476.04 801.27 C476.75 804.46 477.47 807.65 478.19 810.84 C478.51 812.25 478.51 812.25 478.83 813.69 C479.78 817.89 480.75 821.88 482.54 825.82 C482.92 825.35 483.3 824.89 483.69 824.41 C536.8 759.33 536.8 759.33 576.54 753.82 C593.29 752.94 607.78 754.9 620.86 766.07 C635.42 780.1 641.4 798.53 645.54 817.82 C657.17 802.58 665.92 785.88 674.54 768.82 C674.9 768.12 675.25 767.42 675.61 766.71 C702.39 713.45 708.2 654.41 710.54 595.82 C711.2 595.82 711.86 595.82 712.54 595.82 C727.76 629.97 739.67 665.45 743.54 702.82 C743.64 703.7 743.73 704.59 743.82 705.51 C748.89 759.26 737.51 811.57 714.78 860.17 C713.65 862.59 712.55 865.03 711.46 867.46 C695.52 902.88 671.3 935.87 644.92 964.23 C643.66 965.6 642.41 966.98 641.22 968.41 C637.32 973.04 633.1 977.22 628.72 981.39 C614.69 994.78 602.77 1006.65 594.65 1024.51 C591.68 1030.69 587.5 1036.23 583.54 1041.82 C583.04 1042.53 582.54 1043.25 582.02 1043.99 C574.99 1054.02 567.66 1063.63 559.54 1072.82 C558.82 1073.65 558.1 1074.48 557.35 1075.34 C555.12 1077.88 552.85 1080.35 550.54 1082.82 C550.06 1083.34 549.57 1083.86 549.06 1084.4 C528.41 1106.3 502.79 1125.52 471.8 1126.78 C461.56 1126.99 449.41 1124.95 441.47 1118 C440.85 1117.39 440.24 1116.77 439.61 1116.13 C424.82 1102.38 379.43 1109.49 359.81 1109.28 C356.94 1109.25 354.07 1109.22 351.2 1109.19 C300.09 1108.64 248.99 1108.62 197.88 1109.22 C195.28 1109.25 192.68 1109.28 190.07 1109.31 C170.21 1109.55 150.38 1109.95 130.54 1110.82 C129.53 1110.86 128.51 1110.9 127.46 1110.94 C126.46 1110.98 125.46 1111.02 124.43 1111.07 C123.54 1111.1 122.65 1111.14 121.73 1111.17 C112.35 1111.69 106.64 1113.73 99.34 1119.62 C88.97 1127.75 75.96 1127.54 63.42 1126.58 C29.79 1122.06 -0.32 1093.24 -20.46 1067.82 C-21.39 1066.68 -22.32 1065.55 -23.26 1064.42 C-36.22 1048.7 -46.66 1031.64 -56.46 1013.82 C-56.95 1012.94 -57.44 1012.06 -57.94 1011.16 C-80.74 970.16 -95.46 924.25 -101.46 877.82 C-101.61 876.66 -101.61 876.66 -101.77 875.49 C-102.81 866.85 -102.7 858.13 -102.71 849.44 C-102.71 848.59 -102.71 847.75 -102.71 846.87 C-102.69 834.33 -102.44 822.07 -99.46 809.82 C-99.29 809.13 -99.12 808.44 -98.95 807.72 C-93.98 788.05 -84.17 769.77 -66.46 758.82 C-53.97 752.71 -38.33 751.44 -24.89 755.25 C-22.73 756.05 -20.58 756.91 -18.46 757.82 C-17.76 758.11 -17.06 758.4 -16.34 758.7 C0.05 765.6 14.12 775.05 26.93 787.34 C28.81 789.13 30.68 790.78 32.68 792.42 C34.92 794.29 36.8 796.04 38.67 798.25 C39.25 798.93 39.83 799.62 40.43 800.32 C41.12 801.14 41.82 801.97 42.54 802.82 C43.5 803.92 44.45 805.03 45.41 806.13 C50.97 812.56 56.41 819.03 61.54 825.82 C65.04 813.28 67.93 800.62 70.79 787.92 C71.29 785.71 71.78 783.51 72.28 781.3 C73.32 776.69 74.36 772.09 75.4 767.48 C76.71 761.65 78.02 755.82 79.34 749.99 C80.37 745.44 81.4 740.88 82.42 736.33 C82.91 734.18 83.39 732.04 83.88 729.89 C85.46 722.87 87.02 715.85 88.54 708.82 C88.79 707.71 89.03 706.59 89.28 705.45 C90.01 702.05 90.73 698.64 91.44 695.24 C91.78 693.68 91.78 693.68 92.13 692.09 C94.01 683.33 94.01 683.33 91.44 675.01 C90.99 674.56 90.53 674.12 90.06 673.67 C89.54 673.15 89.03 672.63 88.49 672.09 C87.93 671.55 87.37 671 86.79 670.44 C70.08 653.33 56.74 632.88 45.54 611.82 C45.21 611.21 44.88 610.6 44.55 609.97 C37.79 597.39 32.6 584.15 27.54 570.82 C27.24 570.01 26.93 569.2 26.61 568.37 C19.84 550.27 16.22 531.11 13.23 512.07 C13.07 511.06 12.91 510.05 12.75 509.01 C1.59 433.71 20.59 350.65 65.73 289.19 C67.32 287.06 68.93 284.93 70.54 282.82 C69 281.94 69 281.94 67.42 281.05 C48.56 270.25 30.75 257.59 14.75 242.84 C12.81 241.06 10.82 239.38 8.79 237.69 C-0.36 229.71 -8.51 220.27 -16.06 210.8 C-17.91 208.49 -19.79 206.22 -21.7 203.96 C-33.62 189.76 -44.34 174.98 -53.46 158.82 C-53.86 158.11 -54.27 157.4 -54.68 156.67 C-68.71 131.92 -75.05 106.35 -78.95 78.39 C-83.3 47.28 -91.43 18.6 -103.36 -10.49 C-105.6 -16.01 -106.78 -21.43 -104.74 -27.22 C-102.67 -31.14 -100.47 -33.38 -96.46 -35.18 C-65.91 -44.21 -24.04 -15.33 0 0 Z M517.54 28.82 C516.65 29.54 516.65 29.54 515.73 30.27 C506.69 37.61 498.42 45.74 490.17 53.94 C489.66 54.45 489.15 54.95 488.62 55.47 C482.52 61.52 476.82 67.7 471.45 74.43 C469.94 76.32 468.4 78.17 466.79 79.99 C436.15 115.1 425.29 168.21 410.97 211.58 C410.75 212.23 410.53 212.89 410.31 213.56 C409.73 215.31 409.15 217.07 408.57 218.82 C407.64 221.53 406.63 224.17 405.54 226.82 C401.03 226.27 398.36 224.53 394.67 221.94 C370.55 205.85 341.78 196.45 313.54 190.82 C312.22 190.55 312.22 190.55 310.87 190.28 C256.52 179.83 193.69 192.52 147.54 222.82 C145.95 223.93 145.95 223.93 144.33 225.07 C141.54 226.82 141.54 226.82 138.54 226.82 C132.18 209.28 126.11 191.67 120.3 173.94 C104.7 126.51 88.56 89.37 52.72 53.73 C50.47 51.5 48.24 49.25 46.01 47.01 C38.5 39.49 30.97 32.32 22.54 25.82 C21.19 24.73 19.84 23.64 18.49 22.55 C-10.54 -0.32 -52.06 -27.65 -90.19 -27.62 C-93.39 -27.43 -93.39 -27.43 -95.47 -25.91 C-96.64 -24.21 -96.64 -24.21 -96.41 -22.11 C-95.61 -20.06 -95.61 -20.06 -93.69 -19.13 C-92.87 -18.86 -92.05 -18.59 -91.21 -18.31 C-90.21 -17.97 -89.2 -17.64 -88.17 -17.29 C-85.42 -16.47 -82.67 -15.69 -79.9 -14.95 C-42.07 -4.75 -10.08 14.27 18.54 40.82 C19.18 41.39 19.83 41.97 20.49 42.56 C46.7 67.18 64.43 105.05 66.45 140.91 C66.48 141.87 66.51 142.83 66.54 143.82 C66.58 144.89 66.62 145.96 66.66 147.07 C67.17 174.4 61.4 200.99 55.51 227.53 C51.21 245.47 51.21 245.47 55.54 262.82 C60.25 267.73 65.91 270.98 71.86 274.19 C72.67 274.64 73.48 275.09 74.31 275.55 C78.21 277.94 78.21 277.94 82.54 278.82 C80.53 283.18 78.21 286.67 75.17 290.38 C36.09 339.81 19.33 403.94 19.29 466 C19.29 467.02 19.29 468.04 19.29 469.09 C19.33 501.79 22.35 535.83 36.22 565.86 C38.45 570.83 40.38 575.92 42.36 581 C46 590.23 49.89 599.17 54.55 607.93 C55.59 609.9 56.59 611.88 57.58 613.86 C65.28 629.03 74.3 644.01 85.54 656.82 C86.24 657.61 86.93 658.39 87.64 659.21 C89.92 661.76 92.23 664.29 94.54 666.82 C95.42 667.8 96.3 668.78 97.21 669.8 C102.97 676.23 108.94 682.24 115.54 687.82 C116.06 688.25 116.57 688.69 117.1 689.14 C150.15 717.05 190.69 736.99 233.54 743.82 C234.57 743.98 234.57 743.98 235.62 744.15 C244.87 745.6 254.18 746.47 263.54 746.82 C264.3 746.85 265.05 746.87 265.83 746.9 C321.44 748.68 377.9 729.62 420.54 693.82 C421.64 692.91 422.73 692.01 423.83 691.11 C434.37 682.37 444.79 673.38 453.54 662.82 C454.79 661.4 454.79 661.4 456.05 659.96 C462.47 652.64 467.98 644.99 473.23 636.79 C474.19 635.35 475.18 633.94 476.21 632.54 C480.7 626.39 483.95 620.16 486.98 613.19 C487.93 611.07 488.87 608.95 489.82 606.83 C490.28 605.81 490.74 604.78 491.21 603.72 C493.03 599.74 494.99 595.84 496.98 591.94 C499.52 586.97 501.8 582 503.66 576.73 C504.54 574.82 504.54 574.82 505.98 573.54 C508.02 571.29 508.56 569.26 509.41 566.36 C509.9 564.71 509.9 564.71 510.4 563.02 C510.73 561.84 511.07 560.66 511.42 559.44 C511.77 558.22 512.12 557 512.49 555.74 C520.42 527.95 525.26 500.75 525.01 471.74 C524.98 468.12 524.99 464.49 525 460.87 C524.96 419.27 515.86 378.65 498.54 340.82 C498.12 339.9 497.7 338.97 497.27 338.03 C487.78 317.59 476.13 298.04 461.54 280.82 C462.81 279.96 464.08 279.11 465.36 278.25 C466.17 277.7 466.99 277.15 467.83 276.59 C469.65 275.4 471.51 274.25 473.38 273.14 C481.27 268.44 486.61 263.92 489.11 254.86 C492.22 240.22 488.38 224.69 485.17 210.44 C484.34 206.66 483.52 202.89 482.71 199.11 C482.41 197.75 482.41 197.75 482.12 196.37 C472.67 152.27 478.21 107.55 502.04 68.94 C508.03 59.88 515.14 51.74 522.54 43.82 C523.3 43 524.06 42.19 524.84 41.35 C531.53 34.42 538.86 28.58 546.54 22.82 C547.1 22.39 547.66 21.97 548.23 21.54 C573.75 2.24 602.32 -9.76 633.19 -17.64 C637.26 -18.66 637.26 -18.66 640.54 -21.18 C640.18 -24.12 639.68 -25.05 637.54 -27.18 C603.62 -39.75 542 9.18 517.54 28.82 Z M-94.46 -10.18 C-94.11 -9.26 -93.75 -8.34 -93.39 -7.39 C-81.86 23 -74.95 52.32 -69.9 84.36 C-62.94 128.25 -44.2 164.05 -15.93 198.03 C-14.58 199.67 -13.24 201.32 -11.92 202.98 C-8.03 207.83 -4.08 212.4 0.43 216.67 C2.31 218.58 4.03 220.53 5.77 222.56 C9.53 226.88 13.55 230.84 17.73 234.75 C18.47 235.45 19.21 236.14 19.97 236.85 C30.08 246.84 30.08 246.84 42.54 252.82 C44.19 245.03 45.83 237.24 47.47 229.45 C48.23 225.83 49 222.21 49.76 218.59 C60.68 166.97 65.17 118.51 35.42 72.03 C31.3 65.84 26.5 60.33 21.54 54.82 C20.48 53.53 19.41 52.24 18.36 50.94 C15.72 47.88 12.79 45.28 9.71 42.68 C8.26 41.43 6.83 40.15 5.44 38.83 C-21.01 13.92 -58.06 -5.89 -94.46 -10.18 Z M522.42 54.78 C497.17 82.08 483.66 118.79 484.54 155.82 C485.79 179.21 490.6 201.98 495.54 224.82 C495.78 225.9 495.78 225.9 496.01 227 C496.96 231.4 497.93 235.8 498.92 240.19 C499.28 241.79 499.28 241.79 499.64 243.43 C499.86 244.39 500.09 245.35 500.32 246.34 C500.51 247.16 500.7 247.99 500.89 248.84 C501.44 251.02 501.44 251.02 503.54 252.82 C516.05 243.52 527.21 233.23 538.27 222.27 C539.69 220.86 541.11 219.45 542.54 218.05 C548.65 211.95 554.16 205.56 559.54 198.82 C561.1 197 562.66 195.19 564.23 193.38 C580.78 173.47 594.55 151.12 603.54 126.82 C603.96 125.71 603.96 125.71 604.38 124.58 C610.47 107.86 613.15 90.32 615.75 72.78 C619.8 45.59 625.7 19.02 637.59 -5.96 C638.67 -8.09 638.67 -8.09 638.54 -10.18 C596.26 -11.61 549.87 26.03 522.42 54.78 Z M717.54 631.82 C717.46 632.72 717.37 633.62 717.29 634.55 C711.09 698.95 693.76 759.61 658.4 814.45 C657.7 815.54 657.7 815.54 656.99 816.65 C656.03 818.09 655.01 819.5 653.96 820.88 C646.24 831.2 646.15 844 645.69 856.4 C644.41 889.21 637.22 920.51 626.86 951.57 C626.63 952.25 626.4 952.93 626.16 953.64 C623.55 961.42 620.72 969.04 617.35 976.53 C616.95 977.66 616.95 977.66 616.54 978.82 C616.87 979.48 617.2 980.14 617.54 980.82 C630.23 970.03 641.23 957.73 651.27 944.49 C652.5 942.88 653.74 941.28 654.99 939.68 C666.25 925.24 676.88 910.38 686.54 894.82 C686.95 894.17 687.35 893.52 687.76 892.86 C712.14 853.35 731.49 808.51 735.54 761.82 C735.65 760.56 735.76 759.3 735.88 758.01 C738.98 716.72 734.03 677.02 720.54 637.82 C719.88 635.82 719.21 633.82 718.54 631.82 C718.21 631.82 717.88 631.82 717.54 631.82 Z M101.54 686.82 C99.16 697.31 96.79 707.8 94.42 718.3 C93.32 723.18 92.22 728.06 91.11 732.94 C86.74 752.18 82.42 771.42 79.01 790.86 C78.83 791.89 78.83 791.89 78.65 792.94 C72.34 828.4 72.34 828.4 82.98 861.69 C84.25 863.87 85.52 866.06 86.78 868.24 C87.41 869.33 88.05 870.42 88.7 871.55 C91.53 876.57 94.12 881.71 96.67 886.88 C97.1 887.76 97.54 888.65 97.99 889.56 C98.8 891.2 99.6 892.85 100.41 894.5 C102.1 897.95 103.82 901.38 105.54 904.82 C107.55 901.81 108.25 899.7 109.17 896.24 C109.48 895.11 109.79 893.98 110.11 892.81 C110.44 891.6 110.77 890.38 111.11 889.13 C114.61 876.47 118.87 864.24 123.73 852.03 C128.33 839.52 125.02 825.46 122.54 812.82 C121.79 808.38 121.51 804 121.49 799.5 C121.49 798.72 121.48 797.94 121.48 797.14 C121.48 793.7 121.51 790.26 121.54 786.82 C124.02 786.32 124.02 786.32 126.54 785.82 C126.64 786.71 126.74 787.61 126.85 788.53 C131.27 839.91 131.27 839.91 157.43 882.44 C162.6 886.26 167.15 887.65 173.54 886.82 C184.25 881.79 189.55 869.3 193.54 858.82 C204.2 828.9 204.87 795.95 201.29 764.63 C201.18 763.65 201.07 762.67 200.96 761.67 C200.05 754.88 198.91 747.85 193.61 743.07 C188.49 739.51 182.9 736.99 177.17 734.57 C155.43 725.02 134.61 713.38 116.54 697.82 C114.81 696.33 113.07 694.84 111.33 693.35 C110.16 692.35 108.99 691.34 107.83 690.32 C105.08 687.66 105.08 687.66 101.54 686.82 Z M436.48 690.5 C414.49 710.6 387.85 726.57 360.34 737.92 C356.21 739.98 354.28 742.96 352.65 747.09 C348.28 761.44 348.19 776.61 348.23 791.47 C348.23 794.42 348.21 797.36 348.18 800.31 C348.12 817.26 349.29 834.52 354.29 850.82 C354.68 852.1 354.68 852.1 355.07 853.42 C358.97 865.95 364.38 878.21 375.54 885.88 C380.71 887.49 384.64 887.77 389.54 885.32 C401.19 875.61 406.9 865.13 411.53 850.84 C412.22 848.71 412.94 846.59 413.66 844.46 C418.31 830.55 420.65 816.66 422.17 802.07 C422.41 799.82 422.65 797.58 422.89 795.33 C423.05 793.88 423.05 793.88 423.2 792.4 C423.5 790.14 423.93 788.02 424.54 785.82 C425.86 785.82 427.18 785.82 428.54 785.82 C428.97 801.46 427.67 816.09 424.64 831.43 C422.01 844.85 422.81 854.58 427.53 867.37 C430.33 875.01 432.7 882.75 434.98 890.57 C435.33 891.78 435.69 892.98 436.05 894.23 C436.89 897.09 437.72 899.95 438.54 902.82 C441.25 900.43 442.57 898.02 444.07 894.76 C444.55 893.74 445.03 892.72 445.52 891.68 C446.02 890.59 446.52 889.5 447.04 888.38 C452.87 876.01 458.94 863.65 466.28 852.08 C483.49 821.27 458.33 755.85 451.17 723.13 C450.89 721.87 450.89 721.87 450.61 720.59 C449.54 715.71 448.47 710.83 447.4 705.96 C447.06 704.45 446.73 702.93 446.4 701.42 C445.94 699.33 445.48 697.24 445.01 695.16 C444.75 693.98 444.49 692.8 444.22 691.58 C443.67 688.88 443.67 688.88 442.54 686.82 C439.55 686.82 438.63 688.45 436.48 690.5 Z M334.92 745.69 C333.75 746.04 332.58 746.39 331.38 746.75 C328.42 747.5 328.42 747.5 327.54 749.82 C332.49 752.46 337.44 755.1 342.54 757.82 C343.2 753.2 343.86 748.58 344.54 743.82 C341.01 743.82 338.3 744.67 334.92 745.69 Z M205.54 745.82 C206.2 747.8 206.86 749.78 207.54 751.82 C209.52 750.83 211.5 749.84 213.54 748.82 C210.98 746.25 209.07 746.28 205.54 745.82 Z M213.48 758.19 C208.92 764.38 209.3 770.67 209.42 778.03 C209.43 779.12 209.43 780.21 209.44 781.33 C209.47 785.96 209.53 790.59 209.58 795.22 C209.86 820.68 209.86 820.68 207.54 832.82 C207.34 833.88 207.14 834.94 206.93 836.04 C204.21 849.28 200.74 861.78 194.54 873.82 C193.69 875.51 193.69 875.51 192.82 877.24 C188.43 885.42 183.48 890.83 174.54 893.82 C166.96 894.72 160.91 894.09 154.54 889.82 C153.7 889.28 152.85 888.74 151.98 888.19 C144.56 880.96 140.33 871.74 135.92 862.51 C135.51 861.66 135.1 860.81 134.68 859.94 C134.32 859.17 133.95 858.4 133.58 857.61 C132.66 855.65 132.66 855.65 130.54 854.82 C125.8 866.91 121.29 879.02 117.67 891.5 C117.39 892.44 117.12 893.39 116.84 894.36 C114.83 901.45 113.15 908.62 111.54 915.82 C112.92 915.58 112.92 915.58 114.32 915.34 C132.48 912.28 150.64 909.43 168.92 907.13 C169.74 907.03 170.56 906.92 171.41 906.82 C178.03 905.98 184.66 905.17 191.29 904.36 C211.16 903 211.16 903 228.54 894.82 C229.84 891.92 230.42 888.99 230.98 885.88 C231.15 885.08 231.32 884.28 231.5 883.46 C232.73 877.58 232.73 877.58 231.54 871.82 C229.5 869.66 229.5 869.66 226.92 867.69 C219.09 860.96 212.54 851.69 211.21 841.21 C211.03 838.41 210.92 835.62 210.86 832.82 C210.82 831.85 210.79 830.89 210.75 829.89 C210.67 827.53 210.6 825.18 210.54 822.82 C225.19 827.8 235.75 834.1 242.86 848.07 C244.26 850.98 245.52 853.75 246.54 856.82 C250.75 855.87 254.67 854.29 258.69 852.75 C273.68 847.83 289.15 851.85 303.54 856.82 C304.15 855.65 304.75 854.48 305.37 853.27 C306.18 851.73 306.99 850.18 307.79 848.63 C308.19 847.86 308.58 847.09 308.99 846.3 C315.91 833.08 325.62 827.55 339.54 822.82 C339.91 840.79 338.11 852.99 325.57 866.94 C323.54 868.82 323.54 868.82 320.82 870.33 C320.07 870.82 319.32 871.31 318.54 871.82 C317.89 877.37 318.92 881.46 320.54 886.82 C320.66 888.21 320.77 889.61 320.86 891 C321.23 894.79 321.23 894.79 323.36 897.13 C332.33 901.88 342.77 902.42 352.72 903.3 C372.49 905.07 392.04 908.05 411.63 911.17 C412.72 911.35 413.82 911.52 414.94 911.7 C417.01 912.03 419.07 912.36 421.13 912.7 C422.05 912.85 422.97 912.99 423.92 913.15 C424.72 913.28 425.52 913.41 426.34 913.54 C428.83 913.9 428.83 913.9 432.54 913.82 C431.32 906.54 429.81 899.43 427.86 892.32 C427.6 891.38 427.35 890.45 427.08 889.48 C424.44 880.06 421.1 870.93 417.54 861.82 C414.93 864.31 413.48 866.64 411.86 869.88 C406.72 879.45 399.32 890.22 388.54 893.82 C379.45 894.57 373.88 894.26 366.82 888.38 C358.37 880.64 353.43 870.42 349.54 859.82 C349.19 858.9 348.85 857.99 348.49 857.05 C343.01 841.18 341.18 824.1 341.39 807.41 C341.4 806.2 341.41 805 341.43 803.76 C341.49 798.83 341.57 793.9 341.73 788.97 C342.83 775.98 342.83 775.98 339.3 763.93 C335.89 760.68 331.99 759.29 327.54 757.82 C325.78 756.85 324.02 755.85 322.29 754.82 C313.48 750.98 303.34 752.46 294.01 753.33 C286.51 753.97 279.01 754.01 271.48 754 C270.76 754 270.03 754.01 269.29 754.01 C259.22 754 249.31 753.62 239.32 752.25 C229.71 751.14 221.33 752.1 213.48 758.19 Z M509.54 805.82 C507.11 808.41 504.82 811.08 502.54 813.82 C502.1 814.33 501.67 814.84 501.21 815.37 C448.16 877.65 412.93 967.93 419.06 1050.14 C420.65 1068.3 425.36 1087.08 436.54 1101.82 C437.12 1102.68 437.7 1103.55 438.29 1104.44 C445.83 1112.4 456.14 1118.03 467.09 1119.05 C497.2 1119.86 521.1 1099.47 541.92 1080.13 C542.9 1079.22 542.9 1079.22 543.9 1078.29 C548.42 1074.04 552.55 1069.56 556.54 1064.82 C556.99 1064.29 557.44 1063.76 557.9 1063.21 C609.85 1000.58 645.37 909.56 638.03 827.58 C635.76 806.46 630.46 785.06 613.36 771.02 C576.92 744.72 534.35 779.81 509.54 805.82 Z M-75.19 775.76 C-80.64 781.69 -83.75 788.3 -86.46 795.82 C-86.7 796.47 -86.93 797.13 -87.18 797.8 C-97.4 826.95 -96.11 858.71 -91.46 888.82 C-91.3 889.86 -91.14 890.9 -90.97 891.97 C-81.77 949.08 -57.13 1005.62 -22.46 1051.82 C-21.81 1052.68 -21.81 1052.68 -21.15 1053.56 C-14.42 1062.47 -7.19 1070.77 0.54 1078.82 C1.03 1079.33 1.53 1079.85 2.03 1080.39 C20.56 1099.88 45.85 1118.36 73.61 1119.13 C85.73 1118.91 95.41 1113.96 104.23 1105.69 C120.47 1088.45 124.6 1062.66 125.54 1039.82 C125.58 1038.89 125.63 1037.96 125.67 1037.01 C126.76 985.46 111.29 932.73 88.54 886.82 C88.07 885.85 87.59 884.89 87.1 883.9 C71.88 853.31 53.05 825.61 29.54 800.82 C28.83 800.06 28.12 799.31 27.39 798.53 C8.84 779.41 -15.87 763 -43.14 761.79 C-56.23 761.91 -66.03 766.48 -75.19 775.76 Z M214.54 828.82 C214.08 838.09 215.4 846.92 220.54 854.82 C221.82 852.25 221.23 851.55 220.54 848.82 C220.48 846.9 220.46 844.98 220.48 843.07 C220.49 842.08 220.5 841.1 220.51 840.08 C220.52 839.33 220.53 838.59 220.54 837.82 C222.13 838.44 223.71 839.06 225.29 839.69 C226.62 840.21 226.62 840.21 227.96 840.75 C230.22 841.68 232.38 842.69 234.54 843.82 C231.25 836.23 223.86 831.97 216.54 828.82 C215.88 828.82 215.22 828.82 214.54 828.82 Z M320.41 837.84 C319.06 839.44 317.79 841.12 316.54 842.82 C317.5 842.41 317.5 842.41 318.48 842 C322.46 840.46 326.49 839.15 330.54 837.82 C330.21 843.1 329.88 848.38 329.54 853.82 C335.15 848.21 335.73 842.98 335.73 835.32 C335.68 833.15 335.63 830.98 335.54 828.82 C330.79 828.82 323.72 834.7 320.41 837.84 Z M224.54 843.82 C224.72 850.61 226.1 855.58 230.54 860.82 C232.96 862.92 235.22 864.82 238.54 864.82 C239.33 858.81 237.64 855.13 234.41 850.06 C231.55 846.62 228.69 845.39 224.54 843.82 Z M318.36 847.84 C314.63 851.9 311.67 857.05 311.41 862.62 C311.46 863.35 311.5 864.07 311.54 864.82 C316.84 864.23 319.57 859.98 322.79 856.13 C325.13 853.04 325.67 851.5 325.61 847.69 C325.58 846.41 325.56 845.13 325.54 843.82 C322.34 843.82 320.7 845.78 318.36 847.84 Z M328.54 853.82 C329.54 855.82 329.54 855.82 329.54 855.82 Z M242.8 867.7 C233.88 878.7 232.39 892.09 233.54 905.82 C234.88 914.9 237.87 923.52 243.54 930.82 C244.2 931.15 244.86 931.48 245.54 931.82 C245.8 931.18 246.06 930.54 246.32 929.88 C249.95 921.68 255.05 916.7 263.17 912.88 C272.88 909.8 282.87 911.21 291.96 915.33 C296.93 918.19 300.03 921.07 302.86 926.07 C303.37 926.96 303.88 927.85 304.41 928.77 C304.78 929.44 305.16 930.12 305.54 930.82 C309.72 927.12 311.55 924.03 313.29 918.75 C313.7 917.55 314.11 916.34 314.53 915.09 C318.54 902.14 318.03 887.27 312.54 874.82 C307.86 866.09 300.73 860.33 291.54 856.82 C274.05 851.65 255.61 853.91 242.8 867.7 Z M205.86 909.92 C204.24 910.09 204.24 910.09 202.58 910.27 C199.09 910.65 195.6 911.05 192.11 911.44 C190.91 911.57 189.72 911.71 188.49 911.85 C173.1 913.57 157.76 915.49 142.48 918 C141.75 918.12 141.01 918.24 140.25 918.37 C131.27 919.85 122.39 921.66 113.54 923.82 C114.18 930.37 116.2 936.32 118.23 942.57 C124.53 962.53 129.12 983.01 131.54 1003.82 C131.64 1004.62 131.73 1005.43 131.83 1006.26 C132.67 1014.39 132.79 1022.52 132.79 1030.69 C132.79 1031.42 132.79 1032.14 132.8 1032.89 C132.78 1045.06 132.05 1056.88 129.54 1068.82 C129.4 1069.51 129.25 1070.2 129.1 1070.91 C126.88 1081.07 123.18 1090.54 118.54 1099.82 C219.52 1099.82 320.5 1099.82 424.54 1099.82 C423.26 1095.98 421.94 1092.3 420.44 1088.56 C417.75 1081.8 415.72 1075.07 414.23 1067.94 C414.07 1067.18 413.91 1066.42 413.75 1065.64 C404.96 1021.05 414.58 969.91 430.79 928.23 C431.74 925.6 431.74 925.6 431.54 921.82 C375.6 907.72 375.6 907.72 320.54 911.82 C319.26 914.26 318.42 916.29 317.61 918.88 C312.7 932.66 302.96 942.29 289.95 948.77 C281.5 952.46 268.63 952.45 259.98 949.25 C243.86 941.36 235.93 927.41 230.29 911 C230.04 910.28 229.8 909.56 229.54 908.82 C221.56 908.68 213.79 909.03 205.86 909.92 Z M254.04 924.07 C251.12 927.9 249.42 931.95 249.54 936.82 C253.28 943.15 261.88 945.43 268.63 947.44 C277.92 949.28 286.9 947.03 295.05 942.39 C298.05 940.31 300.12 938.65 301.79 935.38 C301.23 929.59 297.84 925.85 293.73 922.07 C286.36 916.08 280.76 915.19 271.28 915.41 C264.23 916.18 258.96 919 254.04 924.07 Z " fill="#000000" transform="translate(354.45703125,95.18359375)"/>
<path d="M0 0 C33.58 27.54 51.91 72.57 56.59 114.91 C59.25 143.96 55.91 175.14 37.7 199.02 C35.55 201.44 33.32 203.73 31 206 C30.34 206.7 29.69 207.41 29.01 208.13 C16.09 221.78 -0.95 229.77 -19 234 C-19.67 234.16 -20.35 234.33 -21.04 234.5 C-52 241.74 -86.55 237.72 -113.82 221.07 C-118.51 218.02 -122.82 214.72 -127 211 C-127.75 210.35 -128.49 209.7 -129.26 209.02 C-147.89 191.66 -156.94 166.41 -158.12 141.38 C-159.45 94.7 -145.18 49.85 -115 14 C-113.97 12.77 -113.97 12.77 -112.92 11.51 C-81.51 -24.81 -37.31 -28.88 0 0 Z M-110.42 20.2 C-139.57 53.41 -152.45 101.46 -149.76 144.91 C-147.42 168.73 -138.18 190.33 -120.23 206.5 C-108.79 215.54 -95.24 222.75 -81 226 C-80.06 226.22 -80.06 226.22 -79.1 226.44 C-49.8 233.03 -17 229.83 8.89 214.06 C31.18 199.29 42.72 177.75 48 152 C48.59 148.32 48.88 144.72 49 141 C49.04 139.82 49.08 138.65 49.12 137.44 C49.8 97.19 37.8 53.77 11 23 C10.27 22.16 9.54 21.32 8.78 20.45 C6.55 17.93 4.29 15.46 2 13 C1.34 12.29 0.68 11.57 0 10.84 C-13.01 -2.75 -31.26 -11.64 -50.19 -12.19 C-74.71 -11.77 -94.38 2.8 -110.42 20.2 Z " fill="#000000" transform="translate(677,582)"/>
<path d="M0 0 C11.93 9.71 16.44 24.33 18.19 39.14 C22.63 86.66 1.95 138.09 -27.73 174.46 C-29.96 177.12 -32.27 179.71 -34.61 182.29 C-35.47 183.25 -36.33 184.2 -37.21 185.19 C-50.29 199 -65.44 208.33 -84.61 209.29 C-94 208.91 -100.95 204.3 -107.36 197.66 C-117.17 185.74 -118 170.67 -117.92 155.91 C-117.92 155.21 -117.91 154.5 -117.91 153.77 C-117.85 142.06 -117.15 130.75 -114.61 119.29 C-114.41 118.38 -114.21 117.48 -114 116.55 C-104.32 73.77 -81.29 28.41 -44.11 3.48 C-31.05 -4.59 -13.7 -9 0 0 Z M-58.61 27.29 C-59.44 28.12 -60.28 28.96 -61.14 29.82 C-82.85 52.79 -96.28 83.41 -105.04 113.41 C-105.28 114.22 -105.51 115.02 -105.76 115.85 C-108.96 127.44 -109.98 138.99 -109.98 150.97 C-109.98 153.16 -110.02 155.34 -110.05 157.52 C-110.17 171.25 -108.29 184.77 -98.61 195.29 C-92.68 200.44 -86.82 200.64 -79.24 200.57 C-74.07 200.17 -70.15 198.71 -65.61 196.29 C-64.39 195.65 -64.39 195.65 -63.16 195 C-26.9 174.57 -6.71 130.68 4.39 92.29 C7.96 79.11 9.62 66.53 9.69 52.87 C9.7 51.37 9.72 49.86 9.75 48.36 C10.04 33.43 7.8 19.15 -2.92 7.85 C-24.57 -4.74 -43.79 12.4 -58.61 27.29 Z " fill="#000000" transform="translate(919.60546875,966.7109375)"/>
<path d="M0 0 C3.45 2.53 6.74 5.23 10 8 C10.64 8.52 11.28 9.03 11.93 9.56 C28.49 23.13 39.85 42.92 49 61.92 C49.99 63.99 51.01 66.04 52.04 68.09 C68.77 102.13 79.18 143.74 67.25 180.88 C63.91 189.39 58 196.5 50 201 C39.69 205.34 30.41 204.6 20 201 C9.25 196.55 1.14 190.17 -7 182 C-7.75 181.31 -8.51 180.61 -9.29 179.89 C-44.01 147.31 -63.24 94.15 -65.22 47.38 C-65.68 30.99 -63.66 13.56 -52.81 0.56 C-37.34 -15.53 -17.14 -10.96 0 0 Z M-47 6 C-57.99 18.93 -57.82 40.28 -56.59 56.29 C-52.49 101.53 -30.6 152.53 4.81 182.25 C16.54 191.24 27.03 196.08 42 195 C48.66 193.38 53.3 188.6 57 183 C62.27 172.17 63.38 160.45 63.31 148.56 C63.31 147.43 63.3 146.29 63.3 145.12 C62.76 107.48 48.18 69.26 26 39 C25.23 37.95 24.46 36.9 23.67 35.81 C11.52 19.47 -3.69 1.29 -25 -2 C-33.77 -2.67 -40.82 -0.18 -47 6 Z " fill="#000000" transform="translate(380,972)"/>
<path d="M0 0 C5.61 5.2 9.39 11.67 10.1 19.38 C10.79 38.41 5.66 51.85 -7.28 66.03 C-19.92 77.79 -35.37 83.47 -52.09 86.28 C-51.36 94.56 -50.6 101.59 -44.09 107.28 C-38.95 110.84 -33.72 113.16 -27.39 112.77 C-19.37 111.06 -13.37 106.57 -8.46 100.15 C-6.68 96.42 -5.73 92.61 -4.74 88.61 C-4.09 86.28 -4.09 86.28 -3.09 85.28 C-0.59 85.15 -0.59 85.15 1.91 85.28 C3.57 86.94 3.24 88.8 3.35 91.09 C3.27 98.8 0.23 105.31 -4.7 111.19 C-13.32 119.18 -23.21 121.68 -34.62 121.54 C-43.18 120.89 -47.98 115.88 -53.99 110.11 C-55.88 108.06 -55.88 108.06 -58.09 108.28 C-58.87 109.31 -59.66 110.34 -60.46 111.4 C-65.45 117.31 -71.93 120.52 -79.49 121.89 C-89.66 122.47 -98.46 119.13 -106.2 112.46 C-113.37 104.53 -114.27 96.54 -114.09 86.28 C-111.61 85.78 -111.61 85.78 -109.09 85.28 C-106.35 88.44 -105.55 91 -104.78 95.09 C-103.11 102.21 -100.33 106.07 -94.34 110.15 C-86.54 112.85 -80.26 112.8 -72.58 109.64 C-67.37 106.79 -64.82 103.18 -62.71 97.71 C-61.61 91.86 -61.61 91.86 -63.09 86.28 C-65.44 85.5 -67.77 84.81 -70.15 84.15 C-90.22 78.16 -104.87 68.2 -115.52 49.82 C-121.64 38.36 -123.29 28.1 -120.44 15.36 C-117.28 5.03 -110.04 -2.39 -100.66 -7.48 C-71.32 -21.62 -25.77 -21.24 0 0 Z M-107.09 7.28 C-113.54 15.35 -113.63 23.3 -113.09 33.28 C-111.14 46.21 -102.02 57.28 -92.09 65.28 C-78.4 75.25 -62.84 79.05 -46.09 77.28 C-28.99 74.15 -14.34 63.24 -4.53 49.15 C1.75 38.97 3.81 29.06 1.48 17.04 C0.8 15.03 0.8 15.03 -1.09 12.28 C-1.68 11.33 -1.68 11.33 -2.29 10.37 C-9.6 0.41 -23.04 -4.09 -34.71 -6.25 C-58.96 -9.64 -87.68 -10.04 -107.09 7.28 Z " fill="#000000" transform="translate(682.08984375,673.72265625)"/>
<path d="M0 0 C6.05 4.51 10.61 11.07 12.19 18.5 C12.8 26.12 11.3 32.06 6.62 38.19 C1.48 43.72 -4.82 46.75 -12.38 47.06 C-20.48 46.65 -27.19 43.26 -32.81 37.5 C-36.98 30.8 -38.94 24.25 -37.39 16.33 C-35.29 8.85 -30.84 3.1 -24.19 -0.94 C-16.32 -4.58 -7.51 -4.59 0 0 Z " fill="#000000" transform="translate(473.8125,565.5)"/>
<path d="M0 0 C6.62 3.55 11.1 8 13.85 15.03 C14.8 18.58 14.73 21.67 14.46 25.32 C13.33 25.26 12.19 25.2 11.02 25.13 C3.75 25.15 -2.18 27.41 -7.54 32.32 C-9.7 35.35 -11.62 38.48 -13.57 41.64 C-15.48 44.24 -16.56 45.25 -19.54 46.32 C-27.46 41.76 -31.48 37.37 -34.91 28.95 C-36.11 21.99 -35.37 15.41 -31.9 9.2 C-23.87 -1.92 -12.55 -5.52 0 0 Z " fill="#000000" transform="translate(801.5390625,564.6796875)"/>
<path d="M0 0 C3.68 3.03 6.19 6.26 7 11 C8.13 24.42 3.94 37.16 -4.18 47.88 C-8.51 52.89 -12.42 56.99 -19.12 58.47 C-23.16 58.54 -24.82 58.11 -28.38 55.88 C-33.34 50.44 -33.45 44.57 -33.31 37.5 C-32.1 23.81 -25.6 11.41 -15.21 2.52 C-10.38 -0.81 -5.66 -2.1 0 0 Z M-13 11 C-15.63 14.51 -17.85 18.18 -20 22 C-20.43 22.75 -20.86 23.49 -21.3 24.26 C-24.88 31.28 -26.23 39.78 -24.01 47.39 C-23.68 48.25 -23.34 49.11 -23 50 C-19.35 49.75 -17.39 49.31 -14.5 47 C-6.16 36.99 -0.83 27.28 -1 14 C-1.46 10.42 -1.46 10.42 -3 8 C-6.84 5.53 -10.15 8.19 -13 11 Z " fill="#000000" transform="translate(952,894)"/>
<path d="M0 0 C4.91 2.46 6.99 4.92 9 10 C12.48 22.05 8.29 36.05 2.48 46.78 C-1.25 52.37 -5.52 56.89 -12 59 C-16.21 59.46 -18.44 59.28 -22.25 57.38 C-25.66 54.43 -27.6 51.59 -28.3 47.04 C-28.44 44.83 -28.47 42.65 -28.44 40.44 C-28.43 39.65 -28.42 38.85 -28.41 38.04 C-28.09 26.19 -24.29 14.53 -15.94 5.86 C-10.75 1.17 -7.22 -0.61 0 0 Z M-13 15 C-18.75 23.65 -20.7 33.73 -20 44 C-19.41 47.37 -19.41 47.37 -18 50 C-16.17 50.92 -16.17 50.92 -14 51 C-7.91 48.33 -4.57 43.46 -1.96 37.55 C1.28 28.95 1.77 20.14 1 11 C-0.8 8.84 -0.8 8.84 -3.19 8.5 C-7.61 9.29 -10.09 11.67 -13 15 Z " fill="#000000" transform="translate(902,898)"/>
<path d="M0 0 C10.34 5.2 16.08 16.61 20 27 C22.44 34.5 23.69 43.51 20.69 51 C18.8 54.36 17.43 56.29 14 58 C9.57 58.54 6.01 58.47 1.94 56.56 C-9.41 46.67 -16.76 34.06 -18.32 18.93 C-18.57 12.46 -17.99 7.25 -14 2 C-9.81 -1.95 -5.25 -1.55 0 0 Z M-7 7 C-9.83 10.35 -10.48 13.35 -10.28 17.71 C-8.98 28.3 -4.5 39.26 3 47 C6.26 49.47 6.26 49.47 10.19 49.94 C12.08 49.11 12.08 49.11 13.25 47.44 C15.99 38.53 12.48 29.29 8.68 21.19 C5.49 15.47 1.56 10.58 -4 7 C-4.99 7 -5.98 7 -7 7 Z " fill="#000000" transform="translate(312,894)"/>
<path d="M0 0 C9.14 5.51 14.37 14.36 17.91 24.23 C18.98 28.81 19.3 33.13 19.36 37.82 C19.37 38.61 19.38 39.4 19.4 40.21 C19.29 46.75 17.38 52.06 13.04 57.01 C9.6 58.54 6.44 58.6 2.79 58.01 C-5.9 54.35 -11.23 47.11 -15.14 38.72 C-19.43 27.81 -20.68 17.33 -17.21 6.01 C-13.19 -0.43 -7.42 -3.34 0 0 Z M-7.21 7.01 C-10.96 10.76 -11.19 14.93 -11.21 20.01 C-10.48 30.6 -5.98 41.63 1.79 49.01 C4.31 50.23 4.31 50.23 6.79 50.01 C9.33 48.19 9.79 47.02 10.79 44.01 C11.81 31.11 8.61 19.99 0.29 10.01 C-2.32 7.92 -3.9 7.29 -7.21 7.01 Z " fill="#000000" transform="translate(360.20703125,898.9921875)"/>
<path d="M0 0 C4.62 5.31 5.37 10.4 5.27 17.23 C4.15 28.6 -2.92 39.9 -11.19 47.56 C-16.42 51.72 -21.22 53.67 -27.96 53.32 C-32.03 52.68 -34.18 50.99 -36.75 47.88 C-40.27 39.78 -38.98 32.12 -36 24 C-30.42 12.54 -23.49 2.63 -10.98 -1.7 C-7.13 -2.28 -3.57 -1.45 0 0 Z M-24.46 19.58 C-28.9 26.55 -31.31 33.68 -30 42 C-29.34 42.99 -28.68 43.98 -28 45 C-21.06 44.85 -16.83 41.86 -12 37 C-6.31 29.4 -2.65 21.52 -2.7 11.98 C-2.91 9.68 -2.91 9.68 -5 7 C-13.56 5.17 -19.91 13.37 -24.46 19.58 Z " fill="#000000" transform="translate(977,944)"/>
<path d="M0 0 C11.14 6.82 17.23 17.59 20.69 29.88 C21.83 37.39 21.48 43.23 16.98 49.49 C15.16 51.46 13.97 51.85 11.3 52.12 C5.11 52.28 1.53 52.09 -3.31 47.88 C-4.02 47.31 -4.73 46.74 -5.46 46.15 C-15.17 38.07 -21.18 28.38 -22.69 15.66 C-22.92 9.59 -22.6 5.53 -18.31 0.88 C-12.35 -4.35 -6.78 -3.29 0 0 Z M-12.31 5.88 C-14.84 9.67 -14.88 12.5 -14.31 16.88 C-12.41 24.29 -9.33 30.15 -4.31 35.88 C-3.76 36.54 -3.21 37.21 -2.65 37.89 C0.31 41.22 2.52 43.24 7 43.94 C10.73 44.31 10.73 44.31 12.69 41.88 C14.12 32.33 11.31 24.29 5.82 16.57 C1.95 11.74 -2.22 7.64 -8.31 5.88 C-9.63 5.88 -10.95 5.88 -12.31 5.88 Z " fill="#000000" transform="translate(293.30859375,945.12109375)"/>
<path d="M0 0 C1.27 -0.03 1.27 -0.03 2.56 -0.05 C5.45 0.38 6.83 1.41 9 3.31 C8.88 6.06 8.88 6.06 8 9.31 C6.99 9.95 5.98 10.59 4.94 11.25 C3.48 12.27 3.48 12.27 2 13.31 C1.5 16.98 1.5 16.98 2 20.31 C4.93 19.68 7.36 18.73 10 17.31 C8.75 20.97 8.33 22.09 5 24.31 C3 24.01 1 23.67 -1 23.31 C-1.87 23.54 -2.73 23.77 -3.62 24 C-6 24.31 -6 24.31 -8.31 22.56 C-10 20.31 -10 20.31 -10 17.31 C-9.34 17.31 -8.68 17.31 -8 17.31 C-7.67 18.63 -7.34 19.95 -7 21.31 C-5.68 20.98 -4.36 20.65 -3 20.31 C-2.67 17.67 -2.34 15.03 -2 12.31 C-2.78 12.04 -3.57 11.78 -4.38 11.5 C-7 10.31 -7 10.31 -9 7.31 C-9.12 4.62 -9.12 4.62 -9 2.31 C-5.9 0.51 -3.58 0.02 0 0 Z " fill="#000000" transform="translate(630,1012.6875)"/>
<path d="M0 0 C2.62 0.31 2.62 0.31 4.56 2 C5.62 4.31 5.62 4.31 5.12 7 C3.62 9.31 3.62 9.31 1.19 10.31 C-1.38 10.31 -1.38 10.31 -3.25 9.25 C-4.92 6.38 -4.19 4.43 -3.38 1.31 C-2.38 0.31 -2.38 0.31 0 0 Z " fill="#000000" transform="translate(658.375,996.6875)"/>
<path d="M0 0 C2.44 0.81 2.44 0.81 4.44 2.81 C4.25 5.31 4.25 5.31 3.44 7.81 C0.44 9.81 0.44 9.81 -2.25 9.44 C-3.01 9.23 -3.78 9.02 -4.56 8.81 C-5.89 3.38 -5.89 3.38 -4.44 0.88 C-2.56 -0.19 -2.56 -0.19 0 0 Z " fill="#000000" transform="translate(601.5625,997.1875)"/>
<path d="" fill="#000000" transform="translate(0,0)"/>
</svg>
