<?xml version="1.0" encoding="utf-8"?>
<!-- Generator: Adobe Illustrator 23.0.1, SVG Export Plug-In . SVG Version: 6.00 Build 0)  -->
<svg version="1.1" id="Layer_1" xmlns="http://www.w3.org/2000/svg" xmlns:xlink="http://www.w3.org/1999/xlink" x="0px" y="0px"
	 viewBox="0 0 864 864" style="enable-background:new 0 0 864 864;" xml:space="preserve">
<style type="text/css">
	.st0{fill:#050505;}
</style>
<g>
	<g>
		<g>
			<circle class="st0" cx="202.86" cy="35.12" r="20.22"/>
		</g>
	</g>
	<g>
		<g>
			<path class="st0" d="M272.4,150.6l3.59-11.06c-0.52-0.03-1.04-0.07-1.15-0.08c-2.84-0.26-4.94-2.77-4.69-5.62
				c0.25-2.84,2.76-4.94,5.62-4.69c7.22,0.64,28.04,0.5,37.64-7.93c3.28-2.86,4.96-6.43,5.16-10.91
				c0.95-21.35-21.69-26.62-35.28-27.87c-0.11-0.01-0.85-0.09-0.96-0.1c-2.76-0.43-4.36-2.95-4.02-5.72
				c0.34-2.78,3.14-4.75,5.92-4.49c28.93,2.65,45.64,17.1,44.68,38.64c-0.33,7.36-3.26,13.5-8.71,18.26
				c-0.93,0.81-1.92,1.56-2.96,2.26c-7.52,5.08-17.44,7.14-25.81,7.95l3.79,10.79c0.8,2.27-0.08,4.72-1.99,6
				c-0.36,0.24-0.76,0.44-1.18,0.6c-2.7,0.95-5.65-0.47-6.6-3.17l-1.61-4.58l-1.6,4.92c-0.38,1.14-1.1,2.07-2.03,2.69
				c-1.28,0.86-2.92,1.15-4.5,0.64C273.01,156.23,271.52,153.32,272.4,150.6z"/>
		</g>
	</g>
	<g>
		<circle class="st0" cx="441.52" cy="130.3" r="15.56"/>
	</g>
	<g>
		<circle class="st0" cx="421.94" cy="178.83" r="7.75"/>
	</g>
	<g>
		<circle class="st0" cx="464.68" cy="167.02" r="9.89"/>
	</g>
	<g>
		<circle class="st0" cx="501.71" cy="180.73" r="13.71"/>
	</g>
	<g>
		<circle class="st0" cx="462.52" cy="214.47" r="12.05"/>
	</g>
	<g>
		<circle class="st0" cx="488" cy="122.98" r="12.05"/>
	</g>
	<g>
		<circle class="st0" cx="174.53" cy="475.54" r="17.5"/>
	</g>
	<g>
		<circle class="st0" cx="145.94" cy="519.62" r="14.15"/>
	</g>
	<g>
		<circle class="st0" cx="151.49" cy="438.75" r="5.54"/>
	</g>
	<g>
		<circle class="st0" cx="210.51" cy="516.14" r="7.65"/>
	</g>
	<g>
		<circle class="st0" cx="212.97" cy="430.29" r="10.11"/>
	</g>
	<g>
		<path class="st0" d="M371.4,759.6c-1.22,0-2.42-0.57-3.18-1.64c-2-2.81-48.82-69.3-39.19-115.46c0.44-2.11,2.51-3.45,4.61-3.02
			c2.11,0.44,3.46,2.5,3.02,4.61c-8.94,42.83,37.44,108.69,37.91,109.35c1.25,1.75,0.84,4.19-0.92,5.43
			C372.97,759.36,372.18,759.6,371.4,759.6z"/>
	</g>
	<g>
		<path class="st0" d="M194.78,685.93c-1.95,0-3.63-1.46-3.86-3.44c-0.35-2.95-8.48-72.63,0.49-104.99c0.57-2.07,2.73-3.28,4.8-2.71
			c2.07,0.58,3.29,2.72,2.71,4.8c-8.57,30.9-0.34,101.28-0.26,101.99c0.25,2.14-1.27,4.08-3.41,4.33
			C195.09,685.92,194.93,685.93,194.78,685.93z"/>
	</g>
	<path class="st0" d="M858.24,676.01c-0.76-5.11-7.39-10.53-21.11-21.34c-14.33-11.29-32.18-25.34-35.82-36.88
		c-3.42-10.84-12.61-30.02-24.69-46.51c-9.77-13.33-24.71-29.37-42.23-33.55c10.08-32.55-14.06-81.83-24.63-96.89
		c-6.95-9.91-7.27-32.62-7.52-50.87c-0.24-17.46-0.52-26.02-4.12-29.73c-1.44-1.49-4.14-3.06-8.86-2.15
		c-12.35,2.4-36.96,23.56-53.03,63.07c-15.15,37.26,5.09,101.21,14.38,126.72c-9.02-3.54-19.02-7.18-29.46-10.98
		c-47.06-17.12-105.63-38.42-147.57-75.81c-39.76-35.44-60.58-106.38-65.24-123.88c24.93-6.1,110.24-45.5,120.28-123.81
		c3.3-25.74,1.41-51.8-5.63-77.55c7.15-1.02,14.82-3.46,17.72-7.82c1.29-1.93,1.6-4.15,0.87-6.25
		c-1.96-5.61-11.73-12.79-29.08-21.37c8.22-4.24,15.28-10.17,12.69-17.49c-2.01-5.67-11.08-9.85-27.02-12.46
		c9.08-7.02,16.78-15.64,13.85-23.33c-4.27-11.21-40.97-12.91-51.55-13.17c-0.13-0.11-0.25-0.22-0.37-0.32
		c-36.6-30.21-112.12-41.57-161.97-9.55c-13.25,8.51-43.12,5.51-67.12,3.1c-19.48-1.96-31.72-3.01-37.82-0.2
		c-17.1,7.89-61.56,105.08-30.05,184.54c8.58,21.64,23.76,40.53,34.85,54.32c5.34,6.65,11.37,14.15,11.96,16.74
		c-0.87,1.44-4.27,5.11-7.57,8.66c-8.73,9.42-23.23,25.05-37.09,46.76c-26.3,5.6-40.43,12.11-42,19.34
		c-1.74,8.02,7.29,15.43,17.23,20.99c-15.4,5-23.77,10.49-24.9,16.36c-1.5,7.79,7.01,12.6,15.16,15.39
		c-11.9,8.3-24.23,18.42-25.55,25.49c-0.41,2.21,0.24,4.38,1.85,6.11c3.51,3.78,11.56,5.15,19.39,5
		c-8.24,47.14-9.42,89.59-3.61,127.2c-17.11,35.77-30.45,56.71-39.82,62.44c-12.76,7.79-31.76,4.4-47.03,1.69
		c-13.56-2.41-23.36-4.16-28.2,1.3c-2.6,2.93-3,7.17-1.23,12.95c4.62,15.09,29.44,29.8,43.82,37.23
		c27.92,14.41,65.72,26.97,94.77,26.96c7.89,0,15.14-0.93,21.36-2.99c6.42-2.13,12.79-6.55,19.07-13.18c1.74,1.68,3.5,3.35,5.3,4.98
		c5.79,22.34,14.28,43.07,25.25,61.61c32.82,55.51,137.14,94.79,180.48,94.79c0.41,0,0.83,0,1.23-0.01
		c10.78-0.19,17.66-2.89,20.44-8c6.78-12.46-6.59-40.78-26.98-79.53c2.47,0.06,4.92,0.09,7.36,0.1c0.25,0,0.49,0,0.74,0
		c50.99,0,119.28-19.19,178.46-50.18c59.91-31.37,101.35-69.41,115.3-105.48c20.48,28.56,49.53,61.46,79.05,69.54
		c41.14,11.26,72.9,4.58,82.31-3.77C858.16,681.17,858.55,678.06,858.24,676.01z M164.1,706.09c-25.81,8.57-74.92-5.34-110.1-23.5
		c-21.96-11.34-37.27-23.82-39.95-32.58c-1-3.26-0.83-5-0.38-5.5c0.63-0.71,2.19-0.98,4.3-0.98c4.43,0,11.25,1.21,16.7,2.19
		c16.57,2.95,37.19,6.63,52.46-2.71c10.87-6.64,24.35-28.46,38.11-56.02c8.73,42.67,27.04,78.69,54.89,107.79
		C174.71,700.53,169.33,704.35,164.1,706.09z M847.92,679.62c-8.87,5.74-36.7,11.08-73.61,0.98c-31.02-8.49-62.9-49.25-79.15-72.78
		c-0.86-1.24-2.37-1.88-3.85-1.63c-1.49,0.25-2.7,1.33-3.11,2.79c-22.12,78.38-186.34,157.47-288.76,157.47c-0.24,0-0.49,0-0.72,0
		c-4.56-0.02-9.17-0.12-13.81-0.29c-1.38-0.05-2.7,0.64-3.44,1.82s-0.79,2.66-0.14,3.89c14.26,26.94,35.81,67.65,30.14,78.07
		c-0.48,0.88-2.87,3.74-13.73,3.93c-41.04,0.71-143.06-37.17-174.86-90.95c-10.78-18.22-19.08-38.65-24.7-60.71
		c-0.19-0.75-0.6-1.42-1.18-1.94c-62.25-55.77-83.1-142.26-61.98-257.08c0.22-1.21-0.14-2.46-0.98-3.36
		c-0.74-0.8-1.78-1.24-2.85-1.24c-0.14,0-0.29,0.01-0.43,0.02c-9.17,1.02-16.13-0.69-17.75-2.01c1.27-3.6,10.83-12.63,27.41-23.63
		c0.8-0.53,1.38-1.35,1.62-2.28l0.38-1.42c0.26-1.02,0.11-2.09-0.43-2.99c-0.54-0.9-1.42-1.54-2.44-1.78
		c-11.15-2.62-16.61-6.52-16.26-8.32c0.39-2.04,7.72-7.16,25.71-12.25c1.16-0.33,2.1-1.18,2.56-2.29l0.8-1.95
		c0.79-1.92-0.06-4.12-1.93-5.01c-13.49-6.42-20.12-12.86-19.51-15.66c0.82-2.63,13.03-8.62,37.59-13.72
		c1.04-0.21,1.94-0.84,2.51-1.74c13.74-21.83,28.36-37.59,37.1-47.01c6.47-6.98,8.75-9.52,9.44-11.96
		c1.39-4.87-2.86-10.42-13.48-23.63c-10.78-13.41-25.53-31.76-33.68-52.31c-29.85-75.26,13.96-169,26.07-174.59
		c4.48-2.07,19.37-0.57,33.78,0.88c26.52,2.67,56.57,5.69,72.11-4.3c47.02-30.2,118.27-19.5,152.8,9.01l1.29,1.14
		c0.69,0.58,1.56,0.91,2.46,0.93c21.3,0.35,44.02,4.41,45.85,8.18c1.07,2.8-4.78,10.39-17.72,18.93c-0.87,0.58-1.47,1.48-1.68,2.5
		c-0.2,1.03,0.02,2.09,0.61,2.95l0.8,1.15c0.63,0.94,1.64,1.55,2.77,1.68c18.25,2.16,27.55,6.21,28.32,8.4
		c0.57,1.59-3.56,6-14.22,10.4c-1,0.41-1.78,1.22-2.16,2.22c-0.38,1.01-0.33,2.13,0.15,3.1l1.05,2.12c0.39,0.81,1.04,1.46,1.85,1.85
		c18.15,8.58,27.84,15.59,29.53,18.75c-1.34,1.48-7.46,4.08-16.31,4.6c-1.19,0.07-2.28,0.68-2.96,1.65
		c-0.68,0.97-0.88,2.21-0.54,3.35c7.77,26.16,10.01,52.69,6.66,78.86c-10.03,78.21-102.9,116.7-117.66,117.84
		c-1.13,0.09-2.17,0.67-2.84,1.58c-0.67,0.92-0.91,2.08-0.65,3.19c0.85,3.65,21.46,89.81,68.65,131.88
		c43.06,38.38,102.41,59.97,150.09,77.31c13.68,4.98,26.6,9.68,37.42,14.19c1.45,0.6,3.11,0.28,4.23-0.81
		c1.12-1.1,1.47-2.76,0.89-4.21c-5.78-14.61-33.77-89.48-17.59-129.3c14.41-35.45,35.57-54.3,45.52-57.85
		c2.25-0.8,3.38-0.64,3.5-0.63c1.66,2.23,1.83,15.08,1.96,24.47c0.27,19.32,0.6,43.36,8.93,55.23
		c11.46,16.35,34.12,66.58,22.16,93.89c-0.5,1.14-0.43,2.45,0.2,3.52c0.62,1.07,1.72,1.79,2.96,1.92
		c30.45,3.21,58.57,54.6,65.17,75.5c0,0,0,0,0,0c4.36,13.83,23.25,28.71,38.43,40.66c7.37,5.81,17.48,13.77,18.23,16.3
		C850.5,677.33,849.93,678.32,847.92,679.62z"/>
</g>
</svg>
