<?xml version="1.0" encoding="UTF-8"?>
<!-- Generator: visioncortex VTracer 0.6.3 -->
<svg version="1.1" xmlns="http://www.w3.org/2000/svg" width="1280" height="1280">
<path d="M0 0 C18.95 6.74 35.48 15.9 49.61 30.26 C50.31 30.89 51 31.53 51.72 32.18 C67.32 46.59 73.71 70.06 74.66 90.68 C74.58 97.36 73.8 103.95 71.54 110.25 C70.19 114.64 69.97 117.76 71.79 122.01 C82.48 139.72 96.45 155.27 110.61 170.26 C111.11 170.79 111.61 171.32 112.12 171.86 C127.88 188.6 146.09 202.61 169.91 203.77 C172.39 203.84 174.88 203.9 177.36 203.95 C178.65 203.98 179.93 204.01 181.25 204.05 C184.37 204.13 187.49 204.2 190.61 204.26 C190.7 203.33 190.78 202.4 190.86 201.44 C191.79 191.75 194.88 184.75 199.61 176.26 C200.1 175.27 200.59 174.27 201.09 173.25 C207.08 161.23 216.24 153.27 228.86 148.95 C235.29 147.12 240.98 146.73 247.61 147.26 C248.82 147.35 250.03 147.45 251.28 147.54 C266.21 149.11 279.53 154.84 289.61 166.26 C290.52 167.27 290.52 167.27 291.44 168.3 C298.12 176.12 303.12 185.08 306.11 194.95 C307.35 198.52 307.35 198.52 310.86 200.2 C330.71 205.82 354.36 202.07 374.68 200.88 C375.77 200.82 376.87 200.76 378 200.69 C388.61 200.07 399.2 199.4 409.77 198.25 C410.48 198.17 411.19 198.09 411.92 198.01 C421.62 197 421.62 197 430.34 193.02 C432.11 190.58 432.21 188.49 432.55 185.51 C433.37 180.05 434.22 176.64 437.61 172.26 C438.86 171.46 440.13 170.72 441.43 170.01 C445.18 167.91 446.82 165.7 448.99 162.01 C455.48 151.12 465.28 144.12 477.36 140.41 C493.23 136.91 508.24 141.99 521.73 150.32 C533.21 158.06 542.88 167.46 548.61 180.26 C548.61 180.92 548.61 181.58 548.61 182.26 C557.49 182.53 566.09 181.5 574.86 180.32 C575.67 180.21 576.48 180.11 577.31 179.99 C636.53 172.04 695.28 160.5 753.5 147.17 C755.45 146.72 757.4 146.28 759.35 145.84 C761.72 145.3 764.09 144.75 766.46 144.2 C783.79 140.25 783.79 140.25 788.5 142.85 C789.24 143.62 789.98 144.4 790.74 145.2 C791.57 146.04 792.39 146.88 793.25 147.74 C794.03 148.57 794.81 149.4 795.61 150.26 C796.29 150.88 796.97 151.51 797.67 152.15 C811.34 164.77 820.02 181.83 825.93 199.2 C826.25 200.15 826.58 201.1 826.91 202.08 C831.39 215.88 833.17 229.26 833.05 243.7 C833.05 244.42 833.05 245.15 833.05 245.9 C832.98 259.6 831.55 272.86 828.61 286.26 C828.28 287.85 828.28 287.85 827.95 289.47 C827.71 290.54 827.47 291.61 827.23 292.7 C826.91 294.15 826.91 294.15 826.58 295.63 C825.4 298.83 824.35 300.22 821.61 302.26 C819.13 302.99 816.9 303.48 814.36 303.86 C813.62 303.99 812.88 304.11 812.12 304.24 C809.62 304.66 807.12 305.05 804.61 305.45 C802.84 305.74 801.07 306.03 799.29 306.32 C780.27 309.42 761.2 312.23 742.13 315.03 C740.18 315.32 738.23 315.61 736.28 315.89 C733.87 316.25 731.46 316.6 729.05 316.95 C727.98 317.11 726.91 317.27 725.81 317.43 C724.88 317.57 723.94 317.7 722.98 317.84 C720.47 318.22 720.47 318.22 717.61 319.26 C717.99 320.02 718.37 320.77 718.76 321.56 C739.61 363.66 754 407.46 759.61 454.26 C759.73 455.21 759.85 456.15 759.96 457.13 C762.9 482.37 763.24 509.09 759.61 534.26 C759.49 535.13 759.37 536.01 759.24 536.91 C748.72 608.63 712.63 671.02 662.06 721.98 C660.66 723.4 659.25 724.83 657.85 726.25 C651.75 732.36 645.37 737.89 638.61 743.26 C637.37 744.28 636.13 745.31 634.89 746.34 C615.67 762.14 594.11 775.61 571.64 786.28 C569.53 787.3 567.44 788.34 565.35 789.4 C496.62 823.51 411.2 833.27 335.61 822.26 C334.2 822.06 332.78 821.87 331.37 821.67 C286.64 815.46 241.89 803.77 200.61 785.26 C199.63 784.83 198.66 784.4 197.65 783.95 C173.33 773.23 149.73 761.02 127.61 746.26 C126.44 745.48 126.44 745.48 125.25 744.69 C115.03 737.9 105.13 730.76 95.45 723.23 C94.17 722.24 92.89 721.25 91.61 720.26 C90.9 719.71 90.19 719.15 89.46 718.58 C88.39 717.77 88.39 717.77 87.31 716.94 C86.36 716.21 86.36 716.21 85.38 715.46 C81.44 712.79 77.2 712.79 72.61 713.26 C69.74 714.05 67.05 715.18 64.3 716.32 C38.41 726.41 10.38 731.73 -17.39 732.26 C-18.12 732.28 -18.86 732.3 -19.62 732.32 C-71.4 733.68 -121.5 719.67 -162.39 687.26 C-163.22 686.62 -164.06 685.97 -164.92 685.31 C-171.74 679.99 -178.12 674.21 -184.39 668.26 C-184.92 667.75 -185.46 667.24 -186.01 666.72 C-193.75 659.34 -200.65 651.62 -207.04 643.05 C-208.39 641.26 -209.76 639.48 -211.13 637.71 C-237.11 603.72 -254.27 560.8 -254.62 517.77 C-254.64 516.3 -254.64 516.3 -254.65 514.81 C-254.82 493.61 -254.72 473.09 -250.39 452.26 C-250.2 451.32 -250.01 450.39 -249.82 449.42 C-248.57 443.3 -247.09 437.27 -245.39 431.26 C-245.15 430.42 -244.92 429.59 -244.67 428.73 C-236.49 400.52 -221.83 372.85 -204.39 349.26 C-202.89 347.22 -201.38 345.18 -199.89 343.13 C-198.91 341.83 -198.91 341.83 -197.92 340.5 C-195.08 336.35 -195.3 332.96 -195.39 328.06 C-195.41 326.58 -195.43 325.11 -195.44 323.64 C-195.48 321.34 -195.51 319.05 -195.56 316.75 C-195.82 303.46 -194.6 291.18 -189.82 278.63 C-189.2 276.97 -189.2 276.97 -188.57 275.28 C-187.52 272.6 -186.46 269.93 -185.39 267.26 C-186.39 267.09 -186.39 267.09 -187.42 266.91 C-194 265.76 -200.46 264.35 -206.93 262.71 C-207.92 262.46 -208.9 262.22 -209.92 261.96 C-213.14 261.15 -216.36 260.33 -219.57 259.51 C-220.69 259.22 -221.8 258.94 -222.95 258.65 C-246.37 252.67 -269.57 246.03 -292.72 239.06 C-295.32 238.28 -297.92 237.51 -300.53 236.74 C-304.39 235.59 -308.25 234.44 -312.11 233.27 C-313.48 232.85 -314.86 232.44 -316.24 232.03 C-318.09 231.48 -319.93 230.91 -321.78 230.34 C-322.8 230.04 -323.82 229.73 -324.87 229.41 C-327.74 228.1 -328.81 226.96 -330.39 224.26 C-336.01 201.74 -332.12 175.72 -320.3 155.77 C-312.51 143.1 -312.51 143.1 -307.39 141.26 C-297.76 141.7 -288.09 144.27 -278.71 146.35 C-277.32 146.65 -275.93 146.96 -274.53 147.26 C-271.58 147.9 -268.63 148.54 -265.68 149.19 C-167.27 170.7 -68.19 185.88 52.56 197.1 C53.79 197.21 53.79 197.21 55.04 197.33 C56.54 197.46 58.04 197.59 59.54 197.71 C64.39 198.15 64.39 198.15 66.61 199.26 C64.49 195.34 62.36 191.43 60.22 187.53 C59.49 186.2 58.77 184.88 58.05 183.55 C49.08 165.47 49.08 165.47 35.61 151.26 C30.71 151.67 25.98 152.83 21.18 153.88 C-0.17 158.09 -22.29 151.35 -40.62 140.31 C-62.1 125.35 -79.24 98.97 -84.39 73.24 C-84.39 70.65 -83.87 69.39 -82.39 67.26 C-67.81 57.06 -47.67 53.33 -30.39 51.26 C-30.29 50.68 -30.2 50.1 -30.1 49.51 C-27.11 31.59 -23.92 14.01 -14.39 -1.74 C-10.18 -3.84 -4.3 -1.34 0 0 Z M-7.39 13.26 C-15.63 37.46 -20.79 64.36 -9.2 88.32 C-2.18 102 8.39 116.62 23.24 122.25 C31.62 124.87 37.87 124.72 45.86 121.07 C53.9 116.7 57.42 109.89 60.2 101.47 C63.7 82.59 57.04 62.53 46.61 46.91 C34.82 31.23 14.61 18.45 -4.39 13.26 C-5.38 13.26 -6.37 13.26 -7.39 13.26 Z M-48.82 68.51 C-49.7 68.71 -50.58 68.92 -51.48 69.13 C-57.7 70.64 -63.51 72.74 -69.39 75.26 C-62.94 97.82 -48.55 119.56 -28.04 131.44 C-12.17 139.68 6.12 145.18 23.86 139.76 C25.13 139.29 26.38 138.8 27.61 138.26 C25.33 135.98 23.21 135.33 20.21 134.31 C12.58 131.7 6.55 128.85 0.61 123.26 C-0.12 122.61 -0.85 121.97 -1.61 121.31 C-15.67 108.28 -23.85 90.13 -27.66 71.65 C-28.21 68.41 -28.21 68.41 -29.39 66.26 C-36.25 66.01 -42.17 66.84 -48.82 68.51 Z M461.61 166.26 C459.24 169.21 459.24 169.21 459.61 173.26 C460.27 173.26 460.93 173.26 461.61 173.26 C462.01 172.5 462.4 171.73 462.8 170.95 C465.15 167.47 467.6 166.11 471.61 165.26 C478.32 164.99 482.09 166.49 487.61 170.26 C490.72 170.13 492.8 169.7 495.53 168.23 C499.75 166.27 504.34 166.64 508.77 167.84 C514.7 170.34 517.69 174.66 520.61 180.26 C521.32 182.24 522.01 184.24 522.61 186.26 C525.64 187.77 528.28 187.43 531.61 187.26 C533.79 186.31 533.79 186.31 535.61 185.26 C527.5 170.76 516.6 160.04 500.45 154.91 C484.5 151.23 472.79 154.17 461.61 166.26 Z M54.61 131.26 C52.19 133.25 52.19 133.25 51.39 136.18 C52.16 142.35 54.1 147.34 56.86 152.88 C57.3 153.78 57.74 154.68 58.19 155.61 C63.08 165.48 68.59 175 74.07 184.56 C76.4 188.63 78.68 192.71 80.93 196.82 C81.31 197.49 81.68 198.16 82.07 198.86 C84.22 202.83 85.02 205.75 84.61 210.26 C77.04 214.79 65.58 212.15 57.12 211.41 C56.04 211.32 54.95 211.23 53.84 211.13 C50.28 210.83 46.73 210.51 43.18 210.2 C41.94 210.09 40.7 209.98 39.42 209.86 C9.76 207.23 -19.83 203.9 -49.39 200.26 C-50.5 200.12 -51.62 199.98 -52.76 199.84 C-122.8 191.19 -192.22 178.68 -261.3 164.34 C-262.27 164.14 -263.24 163.94 -264.24 163.73 C-266.03 163.36 -267.82 162.99 -269.6 162.62 C-277.78 160.92 -285.67 160.03 -294.01 159.95 C-294.94 159.92 -295.87 159.89 -296.82 159.86 C-301.04 159.82 -303.66 159.84 -307.37 161.96 C-316.45 172.31 -318.52 188.62 -318.7 201.88 C-318.73 202.62 -318.76 203.36 -318.79 204.12 C-318.83 207.7 -318.56 209.97 -316.72 213.07 C-291.89 236.28 -236.32 241.44 -204.44 249.9 C-202.63 250.39 -200.82 250.87 -199.01 251.36 C-196.51 252.03 -194 252.69 -191.5 253.34 C-190.41 253.64 -190.41 253.64 -189.31 253.94 C-184.91 255.07 -180.92 255.66 -176.39 255.26 C-174.24 253.28 -172.76 251.63 -171.07 249.32 C-170.12 248.11 -169.16 246.91 -168.2 245.72 C-167.49 244.83 -167.49 244.83 -166.77 243.92 C-156.01 230.96 -136.99 218.71 -119.99 217.02 C-114.92 216.86 -110.58 217.15 -106.08 219.64 C-102.61 222.96 -101.57 227.72 -100.39 232.26 C-95.23 230.33 -90.42 227.79 -85.53 225.27 C-75.51 220.18 -66.17 216.85 -54.89 220.38 C-50.77 222.59 -49.4 224.07 -47.39 228.26 C-46.54 231.24 -45.93 234.21 -45.39 237.26 C-37.88 235.95 -30.45 234.42 -23.01 232.76 C12.56 224.93 51.88 223.7 87.61 231.26 C88.66 231.48 89.7 231.7 90.77 231.92 C135.79 241.74 174.16 262.78 207.61 294.26 C208.27 294.87 208.93 295.49 209.61 296.13 C213.11 299.5 216.07 303.1 219.05 306.95 C227.84 317.78 241.19 319.43 254.49 320.82 C256.18 321 256.18 321 257.91 321.19 C271.5 322.58 285.14 323.26 298.79 323.93 C299.47 323.96 300.16 323.99 300.87 324.03 C305.12 324.23 309.36 324.29 313.61 324.26 C313.45 323.2 313.29 322.14 313.12 321.04 C312.67 317.43 312.55 313.9 312.54 310.25 C312.53 309.18 312.52 308.11 312.51 307.01 C312.5 304.8 312.5 302.58 312.54 300.37 C312.44 294.91 312.31 291.23 308.36 287.22 C307.14 286.2 305.89 285.21 304.61 284.26 C303.77 283.57 302.93 282.88 302.06 282.18 C301.29 281.61 300.53 281.03 299.74 280.45 C291.67 274.08 282.09 265.44 280.18 254.84 C279.97 250.97 280.12 248.94 282.43 245.76 C285.75 243.48 288.36 243.14 292.28 243.16 C293.17 243.16 294.07 243.17 294.99 243.17 C295.92 243.18 296.84 243.19 297.8 243.2 C298.74 243.2 299.68 243.2 300.65 243.21 C302.97 243.22 305.29 243.24 307.61 243.26 C308.06 242.14 308.5 241.03 308.95 239.88 C310.61 236.26 310.61 236.26 313.18 234.38 C322.35 231.38 330.56 232.24 339.61 235.26 C341.33 235.36 343.05 235.41 344.77 235.43 C345.79 235.46 346.82 235.48 347.87 235.51 C350 235.55 352.13 235.58 354.26 235.6 C365.54 235.9 374.75 239.29 383.61 246.26 C384.28 246.78 384.95 247.29 385.63 247.82 C390.52 252.14 393.02 256.86 395.8 262.63 C400.15 271.51 405.53 275.86 413.61 281.26 C427.07 291.57 439.87 303.83 448.56 318.55 C451.15 321.96 452.46 322.26 456.61 323.26 C460.08 323.55 463.53 323.56 467.01 323.56 C468.04 323.56 469.08 323.57 470.15 323.58 C473.57 323.59 477 323.58 480.43 323.57 C481.6 323.57 482.78 323.57 483.99 323.57 C515.52 323.53 547.21 322.28 578.61 319.26 C578.45 318.56 578.29 317.86 578.13 317.14 C575.53 305.78 573.03 294.67 572.98 282.97 C572.91 278.3 572.15 275.19 569.61 271.26 C567.31 269.02 567.31 269.02 564.61 267.07 C543.55 250.48 543.55 250.48 541.61 238.63 C541.38 234.42 541.96 231.66 544.61 228.26 C550 226.23 554.84 226.01 560.55 226.13 C561.33 226.14 562.11 226.15 562.91 226.16 C564.81 226.18 566.71 226.22 568.61 226.26 C569.19 225.14 569.76 224.03 570.35 222.88 C572.13 219.78 573.31 218.3 576.86 217.32 C583.49 215.59 588.61 215.92 595.11 217.76 C600.06 219.1 604.64 219.43 609.74 219.32 C622.73 219.07 634.88 221.77 644.93 230.51 C651.04 236.44 655.76 242.12 659.05 250.01 C662.86 258.07 669.82 262.49 676.72 267.78 C684.82 274.13 690.96 282.02 696.97 290.28 C702.01 297.11 706.07 301.23 714.61 303.26 C728.04 304.5 741.44 302 754.68 300.01 C756.77 299.7 758.86 299.4 760.96 299.1 C771.34 297.58 781.7 295.96 792.05 294.21 C792.96 294.06 793.88 293.91 794.83 293.75 C803.92 292.21 803.92 292.21 812.61 289.26 C824.1 272.03 820.86 236.47 817.15 216.82 C813.41 198.9 805.91 183.58 794.61 169.26 C793.89 168.34 793.16 167.41 792.41 166.46 C787.58 160.66 787.58 160.66 780.61 158.26 C773.87 157.89 767.53 158.75 760.9 159.97 C759.9 160.15 758.9 160.33 757.87 160.51 C748.48 162.23 739.15 164.21 729.83 166.26 C680.08 177.16 629.86 186.26 579.45 193.46 C578.19 193.64 576.94 193.82 575.65 194 C569.63 194.86 563.6 195.7 557.57 196.52 C539.04 197.86 539.04 197.86 523.61 206.26 C522.83 208.59 522.83 208.59 522.3 211.13 C520.82 216.41 519.33 218.45 514.61 221.26 C510.89 222.3 508.76 222.76 505.18 221.2 C504.33 220.56 503.49 219.92 502.61 219.26 C501.93 218.75 501.24 218.24 500.53 217.72 C498.54 216.25 496.57 214.76 494.61 213.26 C493.83 214.23 493.05 215.2 492.24 216.2 C490.7 218.1 489.82 219.15 487.61 220.26 C481.47 220.44 477.2 218.85 472.24 215.32 C470.66 214.08 470.66 214.08 468.61 214.26 C468.29 215.07 468.29 215.07 467.95 215.9 C466.33 219.55 465.1 221.88 461.93 224.38 C457.3 225.61 454 225.15 449.61 223.26 C445.57 220.47 442.38 217.24 439.36 213.38 C437.31 210.89 436.73 210.73 433.61 210.26 C431.4 210.3 429.19 210.41 426.98 210.57 C426.31 210.62 425.65 210.66 424.97 210.71 C423.53 210.81 422.08 210.91 420.64 211.02 C418.32 211.19 415.99 211.35 413.67 211.51 C410.34 211.74 407.01 211.97 403.68 212.21 C395 212.82 386.32 213.41 377.65 213.98 C376.78 214.04 375.92 214.1 375.03 214.16 C357.74 215.31 340.44 216.1 323.12 216.62 C314.65 216.89 306.21 217.26 297.78 218.12 C297.07 218.19 296.36 218.26 295.63 218.32 C290.15 218.95 283.65 219.94 279.88 224.23 C279.54 224.92 279.21 225.61 278.86 226.32 C277.23 229.6 276.08 230.94 272.61 232.26 C268.76 232.76 266.99 232.46 263.55 230.57 C260.68 228.31 258.2 225.84 255.61 223.26 C254.95 223.26 254.29 223.26 253.61 223.26 C252.26 225.25 250.93 227.25 249.61 229.26 C246.33 230.9 243.15 230.92 239.61 230.26 C237.07 228.87 234.81 227.31 232.5 225.57 C230.72 224.07 230.72 224.07 228.61 224.26 C228.29 224.88 227.96 225.51 227.63 226.16 C227.19 226.97 226.75 227.79 226.3 228.63 C225.87 229.45 225.44 230.26 225 231.09 C223.61 233.26 223.61 233.26 220.61 235.26 C215.18 236 211.98 234.86 207.59 231.89 C204.78 229.57 202.59 226.85 200.27 224.06 C196 219.41 190.49 218.5 184.44 218.12 C181.85 218.02 179.27 217.94 176.68 217.86 C174.73 217.79 172.79 217.73 170.84 217.65 C167.79 217.55 164.74 217.45 161.69 217.36 C158.73 217.27 155.77 217.16 152.81 217.05 C151.46 217.02 151.46 217.02 150.07 216.99 C130.24 216.15 114.26 194.55 101.61 181.26 C99.78 179.22 97.97 177.15 96.18 175.07 C93.88 172.41 91.5 169.84 89.11 167.26 C85.51 163.35 81.97 159.4 78.49 155.38 C75.6 152.11 72.64 148.91 69.68 145.7 C66.4 142.14 63.23 138.51 60.15 134.78 C58.44 133.09 56.8 132.21 54.61 131.26 Z M219.17 170.51 C216.14 173.69 216.14 173.69 213.61 177.26 C213.8 179.49 213.8 179.49 214.61 181.26 C217.87 182.2 217.87 182.2 221.61 182.26 C224.47 179.99 224.47 179.99 226.61 177.26 C230.6 175.27 235.29 175.71 239.61 176.26 C242.32 177.52 242.32 177.52 244.86 179.01 C247.24 180.45 247.24 180.45 249.61 181.26 C251.79 180.63 253.16 179.67 254.98 178.34 C257.85 176.44 260.29 176.86 263.61 177.26 C268.96 178.37 273.22 179.78 276.56 184.39 C278.69 188.17 280.12 192.2 281.61 196.26 C283.13 200.57 283.13 200.57 285.61 204.26 C287.13 204.33 288.66 204.34 290.18 204.32 C291 204.31 291.83 204.3 292.68 204.29 C293.32 204.28 293.96 204.27 294.61 204.26 C287.81 184.81 280.47 172.68 261.61 163.26 C246.71 157.4 230.92 159.66 219.17 170.51 Z M473.61 178.26 C471.14 183.2 471.88 190.03 473.56 195.13 C475.82 199.9 478.05 203.39 482.61 206.26 C484.17 203.15 483.57 199.96 483.36 196.57 C483.34 195.88 483.31 195.18 483.28 194.46 C482.95 188.76 481.69 183.94 478.11 179.32 C476.51 177.97 476.51 177.97 473.61 178.26 Z M501.61 179.26 C498.74 183.57 499.04 187.2 499.61 192.26 C501.27 198.44 503.56 203.27 508.61 207.26 C509.27 207.26 509.93 207.26 510.61 207.26 C511.21 194.18 511.21 194.18 506.68 182.26 C504.69 180.04 504.69 180.04 501.61 179.26 Z M447.61 183.26 C444.89 187.34 444.75 190.56 445.61 195.26 C446.62 197.82 447.65 200.23 448.86 202.7 C449.16 203.31 449.46 203.93 449.77 204.56 C451.55 207.96 452.91 210.02 456.61 211.26 C457.46 197.32 457.46 197.32 452.72 184.88 C450.66 182.95 450.66 182.95 447.61 183.26 Z M232.61 189.26 C230.34 196.08 231.62 201.5 234.4 207.91 C236.11 211.22 237.98 213.63 240.61 216.26 C241.27 216.26 241.93 216.26 242.61 216.26 C243.54 202.38 243.54 202.38 238.05 190.26 C235.42 187.82 235.42 187.82 232.61 189.26 Z M260.61 190.26 C258.1 194.03 257.81 197.9 258.61 202.26 C261.17 208.92 263.73 214.05 269.61 218.26 C269.72 215.42 269.8 212.59 269.86 209.76 C269.9 208.97 269.93 208.18 269.97 207.36 C270.06 201.47 268.87 197.2 265.61 192.26 C264.95 191.6 264.29 190.94 263.61 190.26 C262.62 190.26 261.63 190.26 260.61 190.26 Z M206.61 193.26 C204.32 198.52 204.22 202.78 205.61 208.26 C207.9 213.76 210.55 217.93 215.61 221.26 C217.91 213.16 216.92 204.94 213.61 197.26 C211.82 194.62 211.82 194.62 209.61 193.26 C208.62 193.26 207.63 193.26 206.61 193.26 Z M583.61 229.26 C586.66 235.36 591.96 241.2 598.05 244.38 C602.71 245.53 606.11 244.68 610.61 243.26 C608.19 237.73 603.74 233.82 598.37 231.14 C593.34 229.31 588.93 228.97 583.61 229.26 Z M621.61 233.26 C624.48 238.59 626.61 242.26 632.61 244.26 C635.29 244.74 637.89 245.02 640.61 245.26 C636.15 239.26 631.65 235.89 624.61 233.26 C623.62 233.26 622.63 233.26 621.61 233.26 Z M555.61 239.26 C556.9 242.08 558.25 244.15 560.44 246.35 C560.99 246.91 561.55 247.46 562.12 248.04 C562.69 248.6 563.27 249.17 563.86 249.76 C564.42 250.33 564.99 250.9 565.56 251.48 C569.01 254.91 572.39 257.82 576.61 260.26 C579.35 260.36 579.35 260.36 581.61 259.26 C583.87 256.53 583.87 256.53 583.49 253.88 C581.34 247.45 576.39 244.24 570.61 241.26 C565.42 239.31 561.08 239.07 555.61 239.26 Z M-155.39 251.26 C-156.1 251.92 -156.81 252.58 -157.54 253.26 C-172.72 267.74 -181.31 288.4 -182.45 309.24 C-182.49 315.3 -181.69 321.37 -180.89 327.36 C-179.96 335.22 -181.11 340.84 -185.52 347.45 C-186.72 348.9 -186.72 348.9 -187.95 350.38 C-188.85 351.51 -189.75 352.63 -190.64 353.76 C-191.1 354.33 -191.56 354.91 -192.03 355.5 C-230.37 405.11 -247.57 469.47 -240.26 531.51 C-235.06 570.87 -218.94 606.31 -194.39 637.26 C-193.96 637.8 -193.53 638.35 -193.09 638.91 C-174.5 662.42 -151.88 681.3 -125.39 695.26 C-124.17 695.91 -124.17 695.91 -122.93 696.57 C-81.75 718.21 -29.04 725.17 16.61 715.26 C18.02 714.97 18.02 714.97 19.45 714.67 C93.35 699.18 169.21 655.06 217.61 596.26 C218.03 595.76 218.46 595.26 218.89 594.74 C254.65 551.98 271.65 500.87 266.73 445.34 C261.74 397.66 238.71 346.21 205.61 311.26 C204.4 309.87 203.19 308.47 201.99 307.07 C195.48 299.64 188.36 293.38 180.61 287.26 C179.73 286.55 178.85 285.84 177.94 285.11 C154.01 266.42 125.95 253.98 96.68 246.51 C95.58 246.23 94.49 245.94 93.36 245.65 C75.18 241.2 57.54 239.74 38.86 239.88 C37.81 239.89 36.75 239.89 35.66 239.9 C20.44 239.97 5.6 240.4 -9.39 243.26 C-10.33 243.42 -11.26 243.59 -12.23 243.76 C-38.02 248.24 -38.02 248.24 -62.39 257.26 C-62.25 256.36 -62.12 255.47 -61.98 254.55 C-60.95 247.46 -60.01 240.39 -59.39 233.26 C-62.58 231.52 -64.07 231.2 -67.7 231.91 C-89.25 239.42 -103.24 250.75 -116.32 269.38 C-118.39 272.26 -118.39 272.26 -120.39 273.26 C-117.65 249.07 -117.65 249.07 -114.95 239.55 C-114.16 236.36 -114.16 233.53 -114.39 230.26 C-130.31 228.73 -144.6 240.9 -155.39 251.26 Z M322.61 245.26 C328.85 255.3 328.85 255.3 338.61 261.26 C343.31 261.3 346.67 260.89 350.61 258.26 C341.56 249.62 335.24 245.72 322.61 245.26 Z M360.61 249.26 C362.6 253.87 364.26 256.68 368.61 259.26 C372.57 260.46 376.56 261.41 380.61 262.26 C375.78 255.55 370.23 252.37 362.61 249.26 C361.95 249.26 361.29 249.26 360.61 249.26 Z M294.61 255.26 C298.96 263.25 308.23 273.3 316.61 277.26 C319.41 276.93 320.4 276.45 322.49 274.51 C323.91 272.29 323.91 272.29 322.93 269.87 C319.69 263.43 313.58 259.31 306.99 256.76 C302.68 255.38 299.11 254.86 294.61 255.26 Z M591.86 266.88 C585.76 275.02 584.65 284.41 585.61 294.26 C587.84 305.57 591.58 316.32 595.5 327.13 C610.12 367.58 624.19 412.07 613.61 455.26 C613.36 456.3 613.36 456.3 613.11 457.36 C610.26 468.89 605.79 479.59 600.61 490.26 C600.29 490.93 599.97 491.59 599.63 492.28 C593.44 504.87 585.7 516.05 576.43 526.57 C575.95 527.13 575.48 527.69 574.99 528.26 C572.54 530.94 570.69 532.23 567.22 533.33 C562.82 533.24 559.88 531.81 556.11 529.76 C539.22 521.25 520.47 517.32 502.18 512.92 C501.17 512.68 501.17 512.68 500.14 512.43 C498.31 511.99 496.47 511.55 494.64 511.11 C489.32 509.61 489.32 509.61 487.61 508.26 C486.98 505.41 486.98 505.41 486.78 501.71 C486.69 500.31 486.59 498.92 486.5 497.52 C486.44 496.41 486.44 496.41 486.37 495.27 C483.54 446.83 474.16 391.69 451.61 348.26 C451.28 347.59 450.94 346.93 450.59 346.25 C442.46 330.39 431.4 316.55 419.61 303.26 C418.97 302.53 418.34 301.81 417.68 301.06 C402.34 284.74 381 272.75 358.49 271.95 C347.95 272.08 339.04 274.61 331.42 282.1 C326.02 288.55 324.47 294.98 324.36 303.26 C324.34 304.48 324.31 305.69 324.29 306.95 C324.71 316.96 328.62 326.44 332.28 335.64 C333.08 337.63 333.86 339.63 334.64 341.62 C336.56 346.53 338.5 351.43 340.44 356.34 C356.8 397.69 367.91 436.67 349.99 479.89 C343.4 495.1 334.58 507.92 323.61 520.26 C322.61 521.51 321.61 522.76 320.61 524.01 C309.16 537.26 294.66 545.62 277.43 547.2 C276.65 547.25 275.88 547.3 275.08 547.35 C269.11 547.84 265.05 549.44 261 554.13 C260.58 554.79 260.17 555.45 259.74 556.13 C259.24 556.92 258.74 557.71 258.23 558.53 C256.41 561.6 254.67 564.71 252.93 567.82 C242.04 587.15 227.96 604.31 212.61 620.26 C212.11 620.78 211.62 621.3 211.1 621.84 C204.33 628.87 197.27 635.19 189.61 641.26 C188.41 642.25 187.2 643.25 186 644.25 C176.19 652.37 166.07 659.97 155.61 667.26 C154.54 668.01 154.54 668.01 153.45 668.77 C134.47 681.94 114.43 693.26 93.61 703.26 C97.11 708.24 101.53 711.5 106.36 715.07 C107.24 715.72 108.11 716.37 109.01 717.03 C124.89 728.72 141.37 739.67 158.61 749.26 C159.56 749.79 160.5 750.31 161.48 750.86 C222.9 785 290.66 805.26 360.61 811.26 C361.76 811.36 361.76 811.36 362.93 811.47 C367.82 811.92 372.7 812.14 377.61 812.26 C379.26 812.3 379.26 812.3 380.94 812.34 C424.72 813.25 468.54 808.77 510.61 796.26 C512.11 795.81 512.11 795.81 513.64 795.36 C558.86 781.68 601.24 758.62 636.61 727.26 C637.56 726.42 638.5 725.59 639.48 724.73 C651.18 714.2 662.87 703.26 672.59 690.84 C674.77 688.05 677.06 685.38 679.36 682.7 C731.38 620.15 753.84 542.38 746.84 461.78 C739.93 396.18 717.81 329.56 671.61 281.26 C670.97 280.57 670.32 279.88 669.65 279.17 C668.02 277.47 666.34 275.85 664.61 274.26 C663.94 273.63 663.26 273 662.57 272.34 C657.45 267.9 652.08 264.77 645.99 261.88 C645.28 261.55 644.58 261.22 643.85 260.87 C636.38 257.48 629.45 255.88 621.24 255.95 C620.5 255.95 619.75 255.96 618.99 255.96 C608.28 256.19 599.65 259.45 591.86 266.88 Z M239.61 333.26 C245.88 346.56 245.88 346.56 252.31 359.79 C262.52 380.49 270.38 400.71 275.61 423.26 C275.93 424.56 275.93 424.56 276.26 425.89 C284.47 460.13 280.37 496.85 270.21 530.09 C269.53 532.2 269.53 532.2 269.61 534.26 C286.07 535.29 296.1 528.93 308.2 518.33 C329.43 499.25 345.17 469.99 346.79 441.11 C347.25 416.12 343.72 397.76 334.03 374.68 C332.54 371.07 331.13 367.44 329.73 363.8 C329.01 361.96 329.01 361.96 328.28 360.08 C327.35 357.7 326.44 355.32 325.55 352.94 C322.46 345.01 322.46 345.01 315.61 340.26 C292.58 331.9 263.8 334.3 239.61 333.26 Z M552.92 333.35 C551.12 333.46 549.31 333.58 547.51 333.69 C542.8 333.98 538.09 334.28 533.38 334.58 C528.56 334.88 523.74 335.18 518.92 335.48 C509.48 336.07 500.05 336.66 490.61 337.26 C491.24 339.78 491.86 342.29 492.49 344.81 C492.67 345.52 492.84 346.22 493.02 346.94 C494.73 353.8 496.63 360.59 498.55 367.38 C506.29 395.21 511.79 422.64 511.86 451.63 C511.87 453.59 511.87 453.59 511.88 455.59 C511.82 464.59 511.16 473.3 509.59 482.17 C508.67 487.56 507.78 492.97 509.61 498.26 C515.13 503.96 522.5 505.2 529.99 507.13 C539.14 509.59 547.94 512.17 556.46 516.35 C559.63 517.82 561.35 518.31 564.82 517.67 C581.29 509.34 592.25 481.44 597.93 465.01 C598.96 461.79 599.82 458.54 600.61 455.26 C600.77 454.6 600.94 453.95 601.1 453.28 C609.45 417.6 602.3 369.12 585.61 336.26 C584.2 333.71 584.2 333.71 581.61 332.26 C572.05 331.85 562.46 332.75 552.92 333.35 Z M461.61 338.26 C462.14 342.4 463.67 345.71 465.44 349.43 C481.06 382.16 488.76 418.37 494.42 453.99 C495.29 459.47 496.32 464.86 497.61 470.26 C497.94 470.26 498.27 470.26 498.61 470.26 C498.79 468.15 498.95 466.05 499.11 463.95 C499.21 462.77 499.3 461.6 499.4 460.4 C501.61 424.83 492.93 387.81 481.86 354.2 C481.59 353.38 481.33 352.56 481.05 351.71 C479.38 346.87 477.43 342.55 474.61 338.26 C470.17 336.68 466.2 337.43 461.61 338.26 Z " fill="#000000" transform="translate(429.38623046875,203.74169921875)"/>
<path d="M0 0 C0.75 0.16 1.5 0.31 2.27 0.47 C38.86 8.49 70.88 33.92 91 65 C106.84 89.78 115.69 117.01 120 146 C120.1 146.69 120.21 147.38 120.32 148.1 C122.66 165.92 122.66 186.61 118 204 C117.71 205.14 117.71 205.14 117.41 206.31 C108.79 239.67 90.12 269.49 66.03 293.94 C64.57 295.42 63.11 296.91 61.66 298.41 C52.18 308.19 42.75 317.68 31.73 325.72 C29.86 327.1 28.02 328.52 26.18 329.94 C-30.18 373.33 -106.59 405.51 -178.76 396.75 C-216.47 391.65 -248.42 374.95 -276 349 C-276.64 348.43 -277.28 347.85 -277.94 347.26 C-306.54 320.45 -322.73 279.7 -324.21 241.02 C-325.17 203.5 -313 166.82 -287.1 139.26 C-285.74 137.84 -284.37 136.42 -283 135 C-282.19 134.12 -281.38 133.25 -280.54 132.35 C-274.36 125.86 -267.52 120.8 -260 116 C-259.13 115.44 -259.13 115.44 -258.25 114.86 C-236.33 100.75 -211.41 92.13 -185.45 89.52 C-184.68 89.44 -183.92 89.36 -183.13 89.28 C-181.68 89.14 -180.22 89.01 -178.76 88.91 C-173.78 88.45 -170.77 87.28 -167 84 C-164.88 81.17 -163.1 78.17 -161.31 75.12 C-138.11 37.05 -103.88 10.65 -60.58 -0.63 C-40.96 -5.3 -19.61 -4.12 0 0 Z M-66 15 C-67.11 15.32 -67.11 15.32 -68.24 15.65 C-93.5 23.26 -116.22 38.7 -133 59 C-134.17 60.34 -134.17 60.34 -135.36 61.7 C-142.26 69.7 -147.67 78.17 -152.91 87.35 C-153.82 88.94 -153.82 88.94 -154.75 90.56 C-155.28 91.51 -155.81 92.46 -156.36 93.44 C-159.53 98.38 -162.25 100.63 -168 102 C-171.31 102.39 -174.62 102.6 -177.94 102.81 C-212.18 105.52 -246.08 117.71 -271 142 C-271.61 142.57 -272.22 143.14 -272.85 143.73 C-293.61 163.64 -309.04 192.69 -310.15 221.82 C-310.16 223.18 -310.17 224.55 -310.17 225.92 C-310.17 226.66 -310.17 227.39 -310.18 228.16 C-310.18 229.71 -310.19 231.27 -310.19 232.82 C-310.19 235.16 -310.21 237.5 -310.22 239.85 C-310.29 252.55 -310.29 252.55 -308 265 C-307.34 265.66 -306.68 266.32 -306 267 C-305.63 266.43 -305.27 265.86 -304.89 265.28 C-297.54 253.93 -290.2 242.93 -281 233 C-280.53 232.49 -280.06 231.97 -279.57 231.44 C-261.87 212.32 -235.48 197.77 -209.09 195.78 C-187.3 194.95 -168.09 198.32 -151.5 213.38 C-138.7 225.59 -129.39 243.39 -128.53 261.24 C-128.5 263.45 -128.49 265.66 -128.5 267.88 C-128.51 269.64 -128.51 269.64 -128.52 271.44 C-128.89 289.43 -134 305.04 -142 321 C-142.36 321.72 -142.71 322.44 -143.08 323.19 C-153.63 344.44 -168 362.74 -183 381 C-166.09 392.27 -128.04 382.35 -109.56 378.81 C-88.08 374.43 -67.79 367.38 -48 358 C-46.96 357.51 -45.92 357.02 -44.84 356.51 C-22.67 345.96 -1.69 333.69 18 319 C18.62 318.54 19.23 318.08 19.87 317.61 C28.75 310.93 37 303.7 45 296 C45.61 295.42 46.22 294.83 46.85 294.23 C55.73 285.71 63.71 276.91 71 267 C71.43 266.43 71.85 265.86 72.29 265.27 C81.27 253.23 88.85 240.72 95.38 227.19 C95.79 226.33 96.21 225.47 96.64 224.58 C101.33 214.68 101.33 214.68 103 204 C96.67 205.21 90.41 206.6 84.15 208.11 C66.14 212.42 47.57 216.46 29 217 C27.71 217.04 26.41 217.08 25.08 217.12 C-4.02 217.71 -31.26 211.75 -53.12 191.44 C-65.97 178.15 -73.42 159.43 -73.23 141.08 C-72.63 117.18 -60.04 96.28 -43 80 C-28.88 67.43 -11.16 57.31 7 52 C7.82 51.76 8.64 51.51 9.49 51.26 C18.63 48.76 27.86 47.8 37.25 46.81 C38.88 46.63 40.51 46.46 42.14 46.28 C46.1 45.84 50.05 45.42 54 45 C47.6 31.06 24.74 22.42 11.29 17.25 C7.89 16.04 4.47 14.98 1 14 C-0.16 13.66 -1.32 13.32 -2.52 12.98 C-22.51 8.25 -46.34 9.27 -66 15 Z M-31 87 C-31.96 87.78 -32.93 88.57 -33.92 89.38 C-47.64 101.15 -58.47 117.63 -60.18 135.98 C-61.26 152.71 -56.74 167.57 -45.56 180.31 C-44.06 181.89 -42.54 183.46 -41 185 C-40.44 185.58 -39.87 186.15 -39.29 186.75 C-24.89 200.26 -1.88 204.42 17.12 204.31 C18.81 204.3 18.81 204.3 20.52 204.3 C43.88 203.97 84.15 203.3 103.25 188.23 C110.77 178.67 107.77 160.1 106.7 148.78 C103.1 120.59 93.26 81.64 71 62 C44.95 43.64 -10.28 69.95 -31 87 Z M-229 213 C-230.74 213.64 -230.74 213.64 -232.52 214.29 C-261.51 225.77 -283.47 249.47 -296.49 277.4 C-299.36 284.24 -299.88 289.41 -297.2 296.36 C-290.37 311.39 -281.38 324.02 -270 336 C-269.53 336.5 -269.06 337 -268.58 337.52 C-251.68 355.51 -227.61 373.04 -203 378 C-196.73 377.64 -193.46 373.13 -189.47 368.7 C-180.11 357.86 -171.82 345.98 -164 334 C-163.5 333.24 -163 332.48 -162.49 331.69 C-147.46 308.5 -136.6 281.5 -142 253.44 C-146.37 237.1 -156.74 222.91 -171.36 214.33 C-188.25 205.8 -211.59 206.46 -229 213 Z " fill="#000000" transform="translate(559,515)"/>
<path d="M0 0 C5.16 4.12 7.13 7.96 7.9 14.58 C8.82 27.48 4.43 40.25 -3.98 50.05 C-13.24 58.91 -24.92 62.52 -37.54 62.89 C-47.29 62.61 -56.81 59.54 -63.91 52.64 C-68.13 47.28 -68.61 42.67 -68.34 35.9 C-66.88 24.65 -58.38 16.54 -49.91 9.64 C-36.47 -0.03 -15.44 -10.97 0 0 Z M-25.73 12.14 C-26.77 12.54 -26.77 12.54 -27.83 12.95 C-38.03 17.1 -48.85 24.52 -53.91 34.64 C-54.2 37.57 -54.41 39.79 -53.91 42.64 C-49.86 47.31 -44.82 48.39 -38.93 48.9 C-29.26 49.24 -21.87 47.68 -14.6 41.08 C-7.6 33.38 -5.36 25.67 -5.35 15.39 C-5.7 12.61 -5.7 12.61 -7.45 10.77 C-13.61 7.95 -19.75 9.8 -25.73 12.14 Z " fill="#000000" transform="translate(510.9140625,721.359375)"/>
<path d="M0 0 C5.88 3.5 10.57 8.96 12.62 15.5 C13.46 23.09 13.51 30.32 8.62 36.5 C2.68 42.64 -1.8 45.79 -10.5 46 C-17.75 46.01 -22.96 44.42 -28.38 39.5 C-33.25 33.78 -35.68 27.23 -35.38 19.69 C-34.49 13.02 -31.54 7.1 -26.3 2.8 C-18.62 -2.14 -8.61 -3.84 0 0 Z " fill="#000000" transform="translate(591.375,642.5)"/>
<path d="M0 0 C4.97 3.84 8.91 8.37 10.82 14.4 C11.75 21.93 11.3 28.58 7.52 35.24 C3.96 39.77 -0.77 42.6 -6.18 44.4 C-13.85 45.04 -20.93 45.33 -27.18 40.4 C-32.14 35.69 -35.75 31.32 -36.52 24.35 C-36.62 16.13 -36.05 10.55 -30.35 4.43 C-22.16 -3.22 -10.15 -5.96 0 0 Z " fill="#000000" transform="translate(374.18359375,781.59765625)"/>
<path d="M0 0 C3.44 0.75 3.44 0.75 5.44 2.75 C7.18 15.76 1.8 27.15 -5.53 37.54 C-18.32 53.99 -36.01 65.15 -56.56 68.75 C-59.98 68.98 -63.39 68.98 -66.81 69 C-67.72 69.02 -68.62 69.04 -69.55 69.06 C-77.13 69.11 -83.56 68.03 -89.69 63.38 C-91.56 60.75 -91.56 60.75 -91.56 58.12 C-89.9 54.18 -89.9 54.18 -87.56 52.75 C-82.46 52.32 -78.68 52.97 -73.73 54.29 C-61.3 56.93 -46.84 52.91 -36.09 46.52 C-31.53 43.33 -27.54 39.62 -23.56 35.75 C-22.57 34.85 -22.57 34.85 -21.56 33.93 C-13.62 26.55 -10.83 18.18 -8.35 7.87 C-8.06 6.73 -8.06 6.73 -7.77 5.57 C-7.61 4.88 -7.45 4.19 -7.28 3.49 C-5.76 -0.19 -3.65 -0.26 0 0 Z " fill="#000000" transform="translate(548.5625,756.25)"/>
</svg>
