<?xml version="1.0" encoding="utf-8"?>
<!-- Generator: Adobe Illustrator 23.0.1, SVG Export Plug-In . SVG Version: 6.00 Build 0)  -->
<svg version="1.1" id="Layer_1" xmlns="http://www.w3.org/2000/svg" xmlns:xlink="http://www.w3.org/1999/xlink" x="0px" y="0px"
	 viewBox="0 0 864 864" style="enable-background:new 0 0 864 864;" xml:space="preserve">
<style type="text/css">
	.st0{fill:#050505;}
</style>
<g>
	<g>
		<g>
			<path class="st0" d="M246.69,474.71l-16.49-0.38c0.04-0.15,0.09-0.36,0.11-0.41c0.83-3.28-1.16-6.61-4.44-7.44
				c-3.29-0.87-6.62,1.15-7.45,4.44c-0.09,0.35-9.06,35.05-27.7,45.61c-5.42,3.07-11.04,3.68-17.16,1.81
				c-29.81-8.97-24.39-44.44-20.68-59.28c0.04-0.13,0.26-1.1,0.29-1.23c0.6-3.26-1.6-5.97-4.83-6.68c-3.27-0.71-6.54,1.72-7.35,4.93
				c-9.51,38,1.34,65.66,29.04,74c3.49,1.05,6.93,1.57,10.3,1.57c5.69-0.01,11.2-1.5,16.46-4.48c10.15-5.76,17.76-16.36,23.14-26.61
				l11.67,9.33c1.13,0.9,2.48,1.34,3.83,1.34c1.8,0,3.59-0.79,4.8-2.3c2.11-2.65,1.68-6.51-0.96-8.62l-14.06-11.24
				c0.36-0.89,0.69-1.74,1.01-2.58l20.2,0.47c0.05,0,0.1,0,0.14,0c3.32,0,6.05-2.65,6.13-5.99
				C252.76,477.6,250.08,474.79,246.69,474.71z"/>
		</g>
	</g>
	<g>
		<g>
			<g>
				<circle class="st0" cx="36.04" cy="462.7" r="32.36"/>
			</g>
		</g>
	</g>
	<g>
		<g>
			<path class="st0" d="M486.47,537.79c-1.17,0-2.35-0.34-3.39-1.03c-4.75-3.17-20.55-14.06-24.05-21.09
				c-1.8-3.58-5.53-11.05,32.76-35.44c2.84-1.81,6.63-0.99,8.47,1.88c1.81,2.86,0.98,6.65-1.88,8.47
				c-12.34,7.86-23.93,16.9-27.25,21.12c3,3.32,10.85,9.6,18.76,14.86c2.81,1.88,3.58,5.68,1.7,8.5
				C490.4,536.83,488.45,537.79,486.47,537.79z"/>
		</g>
	</g>
	<g>
		<g>
			<path class="st0" d="M358.49,455.46c-1.17,0-2.35-0.34-3.39-1.03c-4.75-3.17-20.54-14.06-24.05-21.08
				c-1.8-3.59-5.53-11.06,32.77-35.45c2.84-1.83,6.64-0.98,8.47,1.88c1.81,2.86,0.98,6.65-1.88,8.47
				c-12.35,7.87-23.95,16.91-27.26,21.13c3.17,3.53,11.66,10.12,18.76,14.86c2.82,1.88,3.58,5.69,1.7,8.5
				C362.42,454.51,360.47,455.46,358.49,455.46z"/>
		</g>
	</g>
	<g>
		<g>
			<path class="st0" d="M486.47,409.2c-1.17,0-2.35-0.34-3.39-1.03c-4.75-3.17-20.55-14.06-24.05-21.08
				c-1.8-3.59-5.53-11.06,32.76-35.45c2.84-1.81,6.63-0.99,8.47,1.88c1.81,2.86,0.98,6.65-1.88,8.47
				c-12.34,7.87-23.93,16.91-27.25,21.13c2.99,3.32,10.85,9.59,18.76,14.86c2.81,1.88,3.58,5.68,1.7,8.5
				C490.4,408.24,488.45,409.2,486.47,409.2z"/>
		</g>
	</g>
	<g>
		<g>
			<path class="st0" d="M274.85,345.4c-1.17,0-2.35-0.34-3.39-1.03c-4.75-3.17-20.55-14.06-24.06-21.08
				c-1.8-3.59-5.53-11.06,32.77-35.45c2.84-1.81,6.63-0.99,8.47,1.88c1.81,2.86,0.98,6.65-1.88,8.47
				c-12.34,7.86-23.93,16.9-27.26,21.13c2.99,3.31,10.85,9.58,18.76,14.86c2.81,1.88,3.58,5.68,1.7,8.5
				C278.78,344.44,276.83,345.4,274.85,345.4z"/>
		</g>
	</g>
	<g>
		<g>
			<path class="st0" d="M384.12,299.14c-1.17,0-2.35-0.34-3.39-1.03c-4.75-3.17-20.55-14.06-24.06-21.08
				c-1.8-3.59-5.53-11.06,32.77-35.45c2.83-1.81,6.64-0.98,8.47,1.88c1.81,2.86,0.98,6.65-1.88,8.47
				c-12.34,7.86-23.93,16.9-27.26,21.12c3,3.32,10.86,9.6,18.76,14.86c2.81,1.88,3.58,5.68,1.7,8.5
				C388.05,298.18,386.1,299.14,384.12,299.14z"/>
		</g>
	</g>
	<g>
		<g>
			<path class="st0" d="M486.47,281.46c-1.17,0-2.35-0.34-3.39-1.03c-4.75-3.17-20.55-14.06-24.05-21.09
				c-1.8-3.58-5.53-11.05,32.76-35.44c2.84-1.81,6.63-0.98,8.47,1.88c1.81,2.86,0.98,6.65-1.88,8.47
				c-12.34,7.86-23.93,16.9-27.25,21.12c3,3.32,10.85,9.6,18.76,14.86c2.81,1.88,3.58,5.68,1.7,8.5
				C490.4,280.51,488.45,281.46,486.47,281.46z"/>
		</g>
	</g>
	<g>
		<g>
			<path class="st0" d="M598.73,327.72c-1.17,0-2.35-0.34-3.39-1.03c-4.75-3.17-20.55-14.06-24.06-21.08
				c-1.8-3.59-5.53-11.06,32.77-35.45c2.83-1.82,6.64-0.99,8.47,1.88c1.81,2.86,0.98,6.65-1.88,8.47
				c-12.34,7.86-23.93,16.9-27.26,21.12c3,3.32,10.86,9.6,18.76,14.86c2.81,1.88,3.58,5.68,1.7,8.5
				C602.66,326.76,600.71,327.72,598.73,327.72z"/>
		</g>
	</g>
	<g>
		<g>
			<path class="st0" d="M583.34,443.88c-1.17,0-2.35-0.34-3.39-1.03c-4.75-3.17-20.55-14.06-24.05-21.08
				c-1.8-3.59-5.53-11.06,32.77-35.45c2.84-1.82,6.63-0.99,8.47,1.88c1.81,2.86,0.98,6.65-1.88,8.47
				c-12.34,7.87-23.93,16.91-27.26,21.13c2.99,3.32,10.85,9.59,18.76,14.86c2.81,1.88,3.58,5.68,1.7,8.5
				C587.27,442.92,585.32,443.88,583.34,443.88z"/>
		</g>
	</g>
	<g>
		<g>
			<path class="st0" d="M517.25,643.28c-1.17,0-2.35-0.34-3.39-1.03c-4.75-3.17-20.55-14.06-24.06-21.08
				c-1.8-3.59-5.53-11.06,32.77-35.45c2.84-1.81,6.64-0.98,8.47,1.88c1.81,2.86,0.98,6.65-1.88,8.47
				c-12.34,7.86-23.93,16.9-27.26,21.12c3,3.32,10.86,9.6,18.76,14.86c2.81,1.88,3.58,5.68,1.7,8.5
				C521.18,642.32,519.23,643.28,517.25,643.28z"/>
		</g>
	</g>
	<g>
		<g>
			<path class="st0" d="M622.75,572.2c-1.17,0-2.35-0.34-3.39-1.03c-4.75-3.17-20.55-14.06-24.06-21.08
				c-1.8-3.59-5.53-11.06,32.77-35.45c2.84-1.82,6.63-0.99,8.47,1.88c1.81,2.86,0.98,6.65-1.88,8.47
				c-12.34,7.86-23.93,16.9-27.26,21.12c3,3.32,10.86,9.6,18.76,14.86c2.81,1.88,3.58,5.68,1.7,8.5
				C626.67,571.24,624.73,572.2,622.75,572.2z"/>
		</g>
	</g>
	<g>
		<g>
			<path class="st0" d="M715.88,628.66c-1.17,0-2.35-0.34-3.39-1.03c-4.75-3.17-20.55-14.06-24.05-21.09
				c-1.8-3.59-5.53-11.06,32.76-35.44c2.84-1.82,6.63-0.99,8.47,1.88c1.81,2.86,0.98,6.65-1.88,8.47
				c-12.34,7.86-23.93,16.9-27.25,21.12c2.99,3.32,10.85,9.6,18.76,14.86c2.81,1.88,3.58,5.68,1.7,8.5
				C719.81,627.71,717.86,628.66,715.88,628.66z"/>
		</g>
	</g>
	<g>
		<g>
			<path class="st0" d="M731.27,501.72c-1.17,0-2.35-0.34-3.39-1.03c-4.75-3.17-20.55-14.06-24.06-21.08
				c-1.8-3.59-5.53-11.06,32.77-35.45c2.86-1.81,6.65-0.98,8.47,1.88c1.81,2.86,0.98,6.65-1.88,8.47
				c-12.34,7.86-23.93,16.9-27.26,21.12c3,3.32,10.86,9.59,18.76,14.86c2.82,1.88,3.58,5.69,1.7,8.5
				C735.2,500.77,733.25,501.72,731.27,501.72z"/>
		</g>
	</g>
	<g>
		<g>
			<path class="st0" d="M698.25,380.14c-1.17,0-2.35-0.34-3.39-1.03c-4.75-3.17-20.55-14.06-24.06-21.08
				c-1.79-3.59-5.52-11.06,32.77-35.45c2.84-1.81,6.63-0.98,8.47,1.88c1.81,2.86,0.98,6.65-1.88,8.47
				c-12.34,7.86-23.93,16.9-27.26,21.13c3,3.31,10.86,9.59,18.76,14.86c2.81,1.88,3.58,5.68,1.7,8.5
				C702.18,379.18,700.24,380.14,698.25,380.14z"/>
		</g>
	</g>
	<path class="st0" d="M835.86,500.38c6.71-3.86,15.97-10.83,20.71-21.66c4.36-9.98,4.04-20.98-0.93-32.72
		c-12.97-30.57-68.74-65.14-89.18-77.02c6.14-8.11,14.84-22.43,14.14-37.8c-0.49-10.77-5.35-20.14-14.46-27.86
		c-25.71-21.78-93.53-35.45-119.2-39.98c2.93-6.6,5.6-15.98,3.66-25.92c-2.1-10.73-8.93-19.64-20.3-26.48
		c-28.44-17.1-85.52-5.16-108.49,0.68c0.87-17.53-0.41-48.79-19.89-53.54c-18.74-4.58-65.88,30.43-89.07,48.96
		c-6.18-20.39-21.91-61.26-48.71-61.26c-0.1,0-0.2,0-0.29,0c-26.28,0.29-66.84,41.27-82.92,58.69c-9-13.12-29.33-35.9-58.37-28.25
		c-32.09,8.46-44.22,55.59-47.52,72.05c-11.5,1.2-37.18,5.95-51.92,24.68c-10.27,13.06-13.16,30.04-8.59,50.49
		c3.57,15.99,17.08,25.12,30.49,30.32c-1.27,26.73-7.76,57.01-32.96,80.2c-19.71,18.15-45.2,14.76-63.81,12.3
		c-12.01-1.59-20.69-2.75-26.28,2.14c-1.84,1.61-4.04,4.57-4.04,9.51c0,37.13,33.01,136.07,174.59,191.91
		c-2.61,4.92-3.55,10.53-2.6,16.52c0.53,3.38,2.47,8.19,8.63,11.88c6.66,3.99,17.05,5.69,27.94,6.01c0.01,0.09,0.02,0.19,0.03,0.29
		c0.53,3.38,2.47,8.19,8.63,11.89c7.46,4.47,19.61,6.07,31.9,6.07c15.06,0,30.35-2.41,37.54-4.9c7.9-2.73,14.32-9.52,18.43-14.93
		c47.18,6.6,91.62,8.53,132.97,6.95c23.18,7.91,44.65,5.93,54.6,4.27c5.13,8.59,18.7,23.31,51.46,23.3c0.34,0,0.68,0,1.02,0
		c45.61-0.42,86.85-33.64,99.69-45.05c13.92,8.18,55.32,29.95,83.08,17.71c27.88-12.3,43.34-64.81,47.8-82.34
		c17.92-1.65,56.47-6.96,63.41-22.5C869.13,557.95,846.14,516.65,835.86,500.38z M203.75,664.15c-0.58-3.71,0.1-6.68,2.09-9.31
		c8.43,3.02,17.13,5.92,26.29,8.62c-1.87,2.21-3.17,4.49-4.1,6.77c-9.25-0.15-17.74-1.3-22.28-4.02
		C204.91,665.7,203.88,664.94,203.75,664.15z M321.05,668.22c-2.75-0.5-5.55,0.69-7.09,3.03c-4.44,6.72-9.65,11.61-13.93,13.1
		c-11.73,4.07-46.53,6.7-57.65,0.05c-0.84-0.51-1.87-1.28-2-2.07c-0.71-4.51-0.18-10.35,10.38-15.5c2.63-1.28,4.19-4.06,3.9-6.97
		c-0.28-2.91-2.35-5.34-5.17-6.09C48.29,600.36,33.01,472.73,32.01,458.94c3.01-0.3,9.47,0.56,14.39,1.21
		c20.16,2.67,50.61,6.71,75.15-15.87c27.66-25.47,35.4-58.67,37.24-86.35c2.98,0.68,5.77,1.21,8.15,1.59
		c-1.87,9.69-2.44,26.48,7.94,47.01c15.33,30.31,52.1,27.89,72.4,23.83c-4.67,17.65-2.78,42.95,24.33,62.63
		c22.79,16.53,48.8,21.31,62.16,22.69c-3.83,17.33-8.97,56.65,15.75,80.17c17.71,16.85,45.4,15.06,61.18,12.22
		c-3.72,16.66-6.75,46.71,13.65,63.75c1.95,1.63,3.92,3.13,5.9,4.55C396.12,676.23,359.81,673.84,321.05,668.22z M844.27,579.28
		c-2.6,5.81-29.11,12.67-56.74,14.66c-3.09,0.22-5.66,2.44-6.33,5.45c-4.13,18.38-19.56,68.17-41,77.63
		c-21.73,9.57-61.12-10.83-74.48-19.5c-2.77-1.8-6.39-1.41-8.72,0.87c-0.45,0.44-45.85,44.35-94.05,44.79
		c-35.21,0.5-41.46-18.47-41.68-19.17c-0.88-3.06-3.69-5.06-6.74-5.06c-0.58,0-1.17,0.07-1.76,0.22
		c-0.44,0.11-44.55,11.04-79.46-18.1c-21.12-17.64-6.27-59.71-6.11-60.13c0.9-2.5,0.31-5.31-1.54-7.23
		c-1.84-1.92-4.59-2.63-7.16-1.84c-0.4,0.13-39.96,12.28-59.34-6.17c-25.34-24.12-9.99-73.85-9.83-74.35
		c0.67-2.13,0.29-4.45-1.03-6.25c-1.31-1.8-3.41-2.87-5.64-2.87c-0.34,0-34.85-0.27-62.84-20.58
		c-33.93-24.61-15.6-56.61-14.82-57.94c1.51-2.52,1.29-5.72-0.56-8.01c-1.85-2.3-4.93-3.19-7.72-2.23
		c-0.54,0.17-53.6,17.89-69.35-13.26c-12.89-25.49-5.47-42.85-5.08-43.74c0.97-2.1,0.85-4.54-0.33-6.52c-1.19-2-3.3-3.28-5.62-3.42
		c-0.42-0.02-43.02-3.13-48.17-26.13c-3.61-16.11-1.62-29.14,5.9-38.72c14.83-18.91,46.69-19.77,47.01-19.78
		c3.42-0.07,6.31-2.6,6.8-5.99c2.38-16.22,13.87-59.71,38.22-66.13c28.23-7.43,47.29,29.19,47.48,29.56
		c1.06,2.07,3.09,3.49,5.39,3.77c2.33,0.29,4.62-0.6,6.14-2.35c20.41-23.45,59.86-60.74,78.86-60.96c0.04,0,0.09,0,0.14,0
		c19.18,0,34.22,45.2,37.97,61.08c0.56,2.36,2.3,4.26,4.6,5.03c2.28,0.77,4.82,0.3,6.69-1.24c33.11-27.41,75.11-55.37,85.2-52.97
		c8.96,2.19,10.67,29.58,8.46,48.51c-0.27,2.34,0.65,4.67,2.46,6.18c1.81,1.52,4.25,2.01,6.51,1.34
		c21.31-6.42,82.07-19.78,107.04-4.77c7.81,4.69,12.44,10.44,13.76,17.09c2.42,12.16-6.4,24.27-6.46,24.38
		c-1.48,1.97-1.81,4.57-0.88,6.85c0.94,2.28,3,3.9,5.43,4.27c0.94,0.14,93.86,14.5,122.16,38.48c6.09,5.15,9.21,10.96,9.52,17.76
		c0.8,16.92-15.77,34.07-15.93,34.24c-1.53,1.57-2.25,3.77-1.92,5.94c0.33,2.17,1.65,4.07,3.57,5.12
		c21.3,11.59,79.04,47.56,90.42,74.4c3.45,8.13,3.78,15.19,1.03,21.57c-5.29,12.23-20.4,17.91-20.53,17.95
		c-2.07,0.75-3.66,2.41-4.31,4.5c-0.66,2.09-0.29,4.37,0.98,6.15C829.98,515.82,854.02,557.41,844.27,579.28z"/>
</g>
</svg>
