<?xml version="1.0" encoding="utf-8"?>
<!-- Generator: Adobe Illustrator 23.0.1, SVG Export Plug-In . SVG Version: 6.00 Build 0)  -->
<svg version="1.0" id="Слой_1" xmlns="http://www.w3.org/2000/svg" xmlns:xlink="http://www.w3.org/1999/xlink" x="0px" y="0px"
	 viewBox="0 0 720 720" style="enable-background:new 0 0 720 720;" xml:space="preserve">
<g id="Слой_17">
	<path d="M705.4,501c-3.4-3.1-8-3.8-12.2-1.8l-59.9,30.1c12-24.9,16.9-55.2,13.8-87c-5.5-56.3-33.9-109.1-77.8-144.8
		c-43.9-35.7-101.4-52.7-157.7-46.7c-26.3,2.8-51.9,10.4-76.1,22.7c-36.5,18.4-63.6,41.2-84.7,71.7c1.9-8.1,3.2-16.6,3.7-25.6
		c2.8-50.6-19.8-96.2-55.4-121.1c0-25.7,5.6-51.5,16.2-74.9c7.6-16.6,16.4-28.9,27-37.6c12.7-10.4,28.5-15.1,42.4-12.8
		c12.3,2.1,22.9,10.1,27.8,20.4c-4.2,2.3-7.1,6.8-7.1,11.9c0,7.6,6.1,13.7,13.7,13.7c7.6,0,13.7-6.1,13.7-13.7
		c0-7.6-6.1-13.7-13.7-13.7c-0.6,0-1.2,0.1-1.8,0.2c-5.5-12-17.7-21.4-31.8-23.8c-15.3-2.6-32.7,2.6-46.5,13.9
		c-11.2,9.1-20.5,22-28.4,39.4c-10.5,23-16.1,48.4-16.6,73.7c-15.3-9.5-32.6-15.3-51.3-16.4c-16.5-0.9-32.7,2-47.8,8.3
		c3.8-18.8,7.5-38.3,7.6-57.9c0-22.9-5.4-43.2-15.8-58.6C74.8,52.9,56.1,41.8,37.2,40.9c-2-4.7-6.7-7.9-12.1-7.9
		c-7.3,0-13.2,5.9-13.2,13.2c0,7.3,5.9,13.2,13.2,13.2c7.3,0,13.2-5.9,13.2-13.2c0-0.1,0-0.1,0-0.2c16.8,1.2,33.5,11.4,44.2,27.3
		c9.8,14.6,15,33.8,14.9,55.8c0,19.9-4,39.7-7.9,59c-0.1,0.5,0,0.9,0.1,1.3c-12.1,5.8-23.4,13.9-33.5,24
		c-23.9,24.1-38.1,57-40.1,92.8c-2,35.1,9.1,65.3,31.8,87.5c13.5,13.2,30.8,22.9,50.4,28.7c0.1,0.6,0.5,1.2,1.1,1.6
		c18.1,12.1,22.9,34.9,26.1,50c0.7,3.1,1.2,5.8,1.8,8c19.5,71.1,66,111.8,150.6,131.8c13.7,3.2,88.6-0.5,101-1.7
		c8.1-0.8,17,1.5,25.6,3.7c2,0.5,4,1,6,1.5c6.8,1.6,13.6,3.9,20.2,6c7.2,2.4,14.6,4.8,22.1,6.5c6.6,1.5,13.3,2.1,20.2,2.1
		c25.3,0,51.4-8.9,70.6-17.4c15.2-6.7,31.8-10.8,49.3-12.1c20.9-1.6,41.9-9.9,66.1-26.2c22.3-15.1,39.9-37.5,49.4-63.2
		C709.9,508.7,708.8,504.1,705.4,501 M337.8,278c23.7-11.9,48.7-19.4,74.4-22.1c54.9-5.9,111,10.7,153.9,45.6
		c42.9,34.9,70.6,86.4,76,141.4c4.1,42-6.2,81.4-28.4,108c-21.1,25.4-50.4,37.6-71.3,43.3c-36.9,10.2-74.6,8.2-106-5.7
		c-34-15-60.2-45.1-68.4-78.4c-8.7-35.5,4-75.2,30.9-96.6c28.6-22.7,71.8-23,98.5-0.7c17.1,14.3,26.3,37,23.7,57.8
		c-2.8,21.9-19,41.1-39.4,46.6c-21.1,5.7-45.1-4.5-54.6-23.2c-9.7-19-2-45.4,16.1-55.3c9-4.9,20.7-5.5,31.3-1.5
		c10.2,3.8,17.9,11.2,21.2,20.2c0.5,1.3,1.9,2,3.3,1.5c1.3-0.5,2-1.9,1.5-3.3c-3.8-10.4-12.6-18.9-24.1-23.3
		c-12-4.5-25.3-3.9-35.6,1.8c-20.8,11.4-29.2,40.4-18.2,62.1c10.6,20.7,37.1,32.1,60.5,25.8c22.3-6,40-26.9,43.1-50.8
		c2.9-22.5-7.1-47-25.5-62.3c-28.4-23.8-74.5-23.5-104.9,0.6c-28.9,22.9-42,63.8-32.7,101.8c5.5,22.3,18.7,43.1,36.7,59.4
		c-42.8,1.1-85.4-14.3-117.6-42.6c-33-28.9-62.6-87.3-55-134.8c0.1-0.3,0-0.6,0-0.9c2.6-3,5.1-6.2,7.4-9.5c0.5-0.2,0.9-0.6,1.1-1.1
		c0.4-0.9,0.9-1.8,1.3-2.6c2.7-4.3,5.1-8.9,7.2-13.8C266.1,326.4,294.9,299.7,337.8,278 M21.1,306.5c1.9-34.5,15.7-66.3,38.6-89.5
		c21.5-21.6,48.6-33.3,76.9-33.3c1.9,0,3.8,0.1,5.8,0.2c19.1,1.1,36.9,7.5,52.2,17.8c0.2,0.2,0.5,0.4,0.9,0.6
		c34.6,23.8,56.6,67.9,53.9,117c-0.9,16.3-4.3,31.2-10,44.3c-2.4,4.2-4.7,8.6-6.9,13.1c-5.3,8.5-11.8,16.1-19.4,22.5
		c-20.8,17.4-48.7,25.7-80.8,23.9c-32.1-1.8-60.8-13.5-80.8-33C29.7,369,19.2,340.1,21.1,306.5 M703.5,511.2
		c-9.2,24.6-26,46.2-47.5,60.7c-23.4,15.8-43.6,23.9-63.6,25.4c-18.1,1.3-35.3,5.6-51,12.5c-23.6,10.5-58,21.5-87.6,14.9
		c-7.3-1.6-14.6-4-21.6-6.4c-6.7-2.2-13.6-4.5-20.6-6.2c-2-0.5-3.9-1-5.9-1.5c-9-2.3-18.3-4.7-27.3-3.8c-14.5,1.4-86.9,4.8-99.4,1.8
		c-82.6-19.5-127.9-59-146.9-128.2c-0.6-2-1.1-4.7-1.7-7.7c-2.8-13.1-7.1-34-21.6-47.9c7.5,1.6,15.2,2.7,23.2,3.1
		c3,0.2,5.9,0.2,8.8,0.2c29.7,0,55.7-8.7,75.6-25.4c1.8-1.5,3.4-3,5.1-4.6c-4.7,48.1,24.7,104.9,57.4,133.5
		c32.1,28.2,74.3,43.9,117,43.9c3.1,0,6.2-0.1,9.2-0.3c0.2,0,0.3-0.1,0.5-0.1c8.8,7,18.5,13,28.9,17.6c18.9,8.3,39.9,12.5,61.7,12.5
		c15.7,0,31.8-2.2,47.8-6.6c21.6-6,51.9-18.6,73.8-45c4.7-5.6,8.8-11.8,12.4-18.4c0.6,0.3,1.4,0.3,2.1-0.1l63.3-31.9
		c2.6-1.3,5.1-0.3,6.5,1C703.4,506.1,704.5,508.5,703.5,511.2"/>
</g>
<g id="Слой_16">
	<path d="M178.4,297.5c7,0,12.7-6.3,12.7-14c0-7.7-5.7-14-12.7-14c-7,0-12.7,6.3-12.7,14C165.7,291.3,171.4,297.5,178.4,297.5"/>
</g>
<g id="Слой_15">
	<path d="M96.2,293c7,0,12.7-6.3,12.7-14c0-7.7-5.7-14-12.7-14c-7,0-12.7,6.3-12.7,14C83.5,286.7,89.2,293,96.2,293"/>
</g>
<g id="Слой_14">
	<path d="M137,374.8c17.6,0,34.7-6,48.4-17c0.7-0.6,0.9-1.7,0.3-2.4c-0.6-0.7-1.7-0.8-2.4-0.3c-13.1,10.5-30.5,16.5-47.2,16.3
		c-16.9-0.2-33.9-6.6-46.8-17.4c-0.7-0.6-1.8-0.5-2.4,0.2c-0.6,0.7-0.5,1.8,0.2,2.4c13.7,11.5,31.1,18,48.9,18.2
		C136.3,374.7,136.6,374.8,137,374.8"/>
</g>
<g id="Слой_13">
	<path d="M160.4,517.5c0.2,0,0.4-0.1,0.6-0.3c0.3-0.3,0.3-0.9,0-1.2c-9.4-9.1-16-21.2-18.5-34c-0.1-0.5-0.5-0.8-1-0.7
		c-0.5,0.1-0.8,0.5-0.7,1c2.5,13.2,9.3,25.6,19,35C160,517.4,160.2,517.5,160.4,517.5"/>
</g>
<g id="Слой_12">
	<path d="M187.5,551.1c-5.5-0.5-11.1-3.5-15.8-8.4c-4.3-4.5-7.5-10-10.6-15.4c-0.2-0.4-0.8-0.5-1.2-0.3c-0.4,0.2-0.5,0.7-0.3,1.2
		c3.1,5.4,6.4,11,10.9,15.7c5,5.2,11,8.4,16.9,9c0,0,0.1,0,0.1,0c0.4,0,0.8-0.3,0.8-0.8C188.3,551.5,187.9,551.1,187.5,551.1"/>
</g>
<g id="Слой_11">
	<path d="M223.2,574.7c-10.1-2.8-19.2-8.2-26.5-15.8c-0.3-0.3-0.9-0.4-1.2,0c-0.3,0.3-0.4,0.9,0,1.2c7.4,7.8,16.9,13.4,27.2,16.2
		c0.1,0,0.2,0,0.2,0c0.4,0,0.7-0.2,0.8-0.6C223.9,575.3,223.7,574.8,223.2,574.7"/>
</g>
<g id="Слой_10">
	<path d="M186.5,532c0.2,0.2,0.4,0.3,0.6,0.3c0.2,0,0.4-0.1,0.6-0.2c0.3-0.3,0.3-0.9,0-1.2l-12.8-13c-0.3-0.3-0.9-0.3-1.2,0
		c-0.3,0.3-0.3,0.9,0,1.2L186.5,532z"/>
</g>
<g id="Слой_9">
	<path d="M170.2,494.5c0.2,0.3,0.4,0.5,0.8,0.5c0.1,0,0.3,0,0.4-0.1c0.4-0.2,0.6-0.7,0.4-1.1l-8.9-17c-0.2-0.4-0.7-0.6-1.1-0.4
		c-0.4,0.2-0.6,0.7-0.4,1.1L170.2,494.5z"/>
</g>
<g id="Слой_8">
	<path d="M179.5,470L179.5,470c0.5,0,0.9-0.4,0.8-0.9l-0.5-16.5c0-0.5-0.4-0.8-0.9-0.8c-0.5,0-0.8,0.4-0.8,0.9l0.5,16.5
		C178.6,469.6,179,470,179.5,470"/>
</g>
<g id="Слой_7">
	<path d="M215.3,525.2c0.2,0,0.4-0.1,0.6-0.3c0.3-0.3,0.3-0.9,0-1.2c-8.4-8.1-14.6-18.2-18-29.4c-0.1-0.5-0.6-0.7-1.1-0.6
		c-0.5,0.1-0.7,0.6-0.6,1.1c3.4,11.4,9.8,21.9,18.4,30.1C214.8,525.1,215,525.2,215.3,525.2"/>
</g>
<g id="Слой_6">
	<path d="M244.3,526.1c0.2,0.2,0.4,0.3,0.7,0.3c0.2,0,0.4-0.1,0.5-0.2c0.4-0.3,0.4-0.8,0.2-1.2l-17.1-22.7c-0.3-0.4-0.8-0.4-1.2-0.2
		c-0.4,0.3-0.4,0.8-0.2,1.2L244.3,526.1z"/>
</g>
<g id="Слой_5">
	<path d="M235.6,546.3c-4.4-1.1-8.2-3.9-10.6-7.7c-0.2-0.4-0.8-0.5-1.2-0.3c-0.4,0.3-0.5,0.8-0.3,1.2c2.6,4.2,6.9,7.3,11.7,8.4
		c0.1,0,0.1,0,0.2,0c0.4,0,0.7-0.3,0.8-0.6C236.3,546.8,236.1,546.4,235.6,546.3"/>
</g>
<g id="Слой_4">
	<path d="M286.7,576.7c-11-1.9-21.3-8.2-28-17.1c-0.3-0.4-0.8-0.4-1.2-0.2c-0.4,0.3-0.4,0.8-0.2,1.2c7,9.3,17.6,15.7,29.1,17.7
		c0.1,0,0.1,0,0.1,0c0.4,0,0.8-0.3,0.8-0.7C287.5,577.3,287.2,576.8,286.7,576.7"/>
</g>
<g id="Слой_3">
	<path d="M269.6,589.9c-10.7-1.7-21.2-5.6-30.4-11.3c-0.4-0.3-0.9-0.1-1.2,0.3s-0.1,0.9,0.3,1.2c9.4,5.8,20.1,9.8,31,11.6
		c0,0,0.1,0,0.1,0c0.4,0,0.8-0.3,0.8-0.7C270.4,590.4,270.1,589.9,269.6,589.9"/>
</g>
<g id="Слой_2">
	<path d="M577.1,554c0.2,0,0.5-0.1,0.7-0.2c26.5-12.4,45.1-43.5,47.6-79.2c2.2-32.3-7.4-65-15.9-93.8c-0.3-0.9-1.2-1.4-2.1-1.1
		c-0.9,0.3-1.4,1.2-1.1,2.1c8.8,30,18,60.9,15.8,92.7c-2.3,34.5-20.3,64.5-45.6,76.4c-0.8,0.4-1.2,1.4-0.8,2.3
		C575.8,553.6,576.4,554,577.1,554"/>
</g>
</svg>
