<?xml version="1.0" encoding="iso-8859-1"?>
<!-- Generator: Adobe Illustrator 26.0.3, SVG Export Plug-In . SVG Version: 6.00 Build 0)  -->
<svg version="1.1" id="Layer_20" xmlns="http://www.w3.org/2000/svg" xmlns:xlink="http://www.w3.org/1999/xlink" x="0px" y="0px"
	 width="285.863px" height="510.43px" viewBox="0 0 285.863 510.43" enable-background="new 0 0 285.863 510.43"
	 xml:space="preserve">
<path d="M258.118,116.017c-1.382-5.491-2.626-11.018-3.97-16.519c-2.657-10.881-5.438-21.722-10.531-31.799
	c-0.36-0.713-0.665-1.496-0.79-2.279c-0.258-1.624,0.384-2.957,1.803-3.761c1.585-0.898,3.196-0.708,4.437,0.621
	c0.812,0.869,1.413,1.964,1.984,3.024c5.09,9.452,8.146,19.659,10.95,29.942c1.418,5.201,2.544,10.482,3.789,15.73
	c0.248,1.046,0.436,2.106,0.586,2.839c-0.039,0.745-0.027,1.154-0.087,1.552c-0.32,2.135-1.993,3.894-3.885,4.111
	C260.436,119.704,258.73,118.446,258.118,116.017z M262.719,137.83c-0.742,0.033-1.49,0.225-2.083,0.69
	c-1.464,1.149-1.531,3.377-1.579,5.069c-0.025,0.889-0.087,1.781-0.145,2.673c-0.066,1.027-0.127,2.054-0.118,3.08
	c0.022,2.639,0.83,5.761,3.982,5.796c2.104,0.024,3.886-1.62,4.018-4.238c0.156-3.083,0.087-6.199-0.173-9.276
	C266.409,139.103,264.782,137.736,262.719,137.83z M284.403,188.098c-1.443,18.073-4.322,35.918-7.928,53.645
	c-2.055,10.103-7.463,18.075-16.944,22.914c-7.087,3.617-14.711,5.327-22.478,6.419c-25.463,3.578-50.879,3.201-76.239-1.132
	c-5.586-0.954-11.211-1.708-16.839-2.381c-3.58-0.428-3.654-0.308-5.014,3.079c-16.405,40.861-31.446,82.179-42.072,124.99
	c-4.747,19.124-9.833,38.166-13.345,57.574c-2.284,12.627-3.688,25.377-5.289,38.1c-0.354,2.812-0.766,5.624-0.961,8.449
	c-0.283,4.1-1.999,6.525-6.269,7.701c-9.773,2.691-19.562,4.114-29.557,1.848c-6.514-1.477-12.47-4.364-17.86-8.345
	c-2.073-1.531-3.948-3.285-5.496-5.356c-2.325-3.11-3.041-6.28-1.607-10.204c21.63-59.207,43.551-118.3,68.15-176.358
	c6.266-14.789,12.746-29.488,19.104-44.238c0.529-1.228,1.286-2.387,1.408-4.128c-5.056-1.452-9.967-2.311-14.847-3.31
	c-21.584-4.421-42.032-11.858-61.209-22.785c-9.838-5.605-17.543-12.925-23.337-22.922c-4.605-7.944-6.615-15.795-5.449-24.673
	c0.509-3.879,0.955-7.78,1.739-11.607c7.393-36.079,21.066-69.524,43.448-98.911c21.431-28.139,48.936-48.95,80.96-63.84
	c12.69-5.9,25.926-9.994,39.832-11.798c16.596-2.153,32.595-0.218,47.773,7.112c16.354,7.898,29.842,19.054,40.645,33.836
	c15.022,20.555,23.613,43.481,27.738,68.376C286.753,136.058,286.484,162.032,284.403,188.098z M83.814,243.725
	c13.264-11.469,26.55-22.913,39.806-34.391c0.778-0.674,1.816-1.207,2.084-3.032c-9.093-1.376-18.002-2.848-26.946-4.05
	c-16.3-2.191-32.619-4.233-48.933-6.316c-8.691-1.11-17.307-2.763-26.042-3.577c-1.277-0.119-2.257-0.222-3.242,0.865
	c-6.084,6.707-6.728,18.481-0.011,24.609c3.309,3.019,6.863,5.659,10.695,7.946c14.325,8.548,29.58,14.882,45.61,19.476
	C79.71,246.08,81.74,245.519,83.814,243.725z M87.155,162.456c-1.527-0.927-2.982-1.017-4.624-0.651
	c-17.262,3.839-33.538,10.066-48.3,19.948c-1.207,0.808-2.592,1.432-3.71,3.227c0.871,0.154,1.375,0.259,1.884,0.331
	c15.083,2.111,30.268,3.359,45.352,5.514c15.607,2.23,31.298,3.901,46.825,6.665c6.092,1.085,4.391-0.099,4.475-4.196
	c0.038-1.879-1.295-2.552-2.372-3.471C114.43,179.371,100.879,170.792,87.155,162.456z M98.326,159.42
	c0.383,0.362,0.753,0.763,1.201,1.028c12.673,7.493,24.97,15.515,35.802,25.576c1.054,0.979,2.112,1.007,3.34,0.749
	c4.498-0.947,9.044-1.515,13.643-1.454c1.63,0.021,2.394-0.605,2.826-2.171c2.147-7.783,4.388-15.541,6.705-23.691
	c-21.234-5.64-42.372-3.958-63.526-0.843C98.317,159.175,98.262,159.36,98.326,159.42z M105.982,252.622
	c2.759,0.743,3.001,0.647,4.241-2.091c3.619-7.991,7.165-16.013,10.33-24.197c0.313-0.81,1.03-1.625,0.166-2.738
	c-9.985,8.207-19.952,16.399-30.585,25.139C96.042,250.17,101.04,251.291,105.982,252.622z M162.738,204
	c2.941-4.421,2.661-5.348-1.733-8.235c-1.487-0.977-3.103-1.544-4.879-1.836c-5.425-0.891-10.761-0.172-16.117,0.609
	c-2.12,0.309-2.814,1.389-3.003,3.485c-0.351,3.888-0.445,7.855-1.592,11.612c-3.393,11.108-7.326,22.03-12.108,32.62
	c-10.778,23.867-21.256,47.865-31.476,71.974c-24.188,57.058-45.69,115.157-66.905,173.364c-1.142,3.132-1.194,3.256,1.543,5.46
	c7.193,5.792,15.523,8.528,23.986,8.909c5.045-0.118,9.312-0.775,13.562-1.561c4.506-0.834,4.67-0.988,5.169-5.694
	c2.848-26.88,7.522-53.41,13.838-79.721c12.73-53.029,29.774-104.597,51.1-154.753C142.363,240.85,151.007,221.632,162.738,204z
	 M165.063,188.182c3.536,2.31,6.854,4.963,8.422,8.995c0.637,1.639,1.299,2.115,2.843,1.855c1.197-0.202,2.403-0.344,3.602-0.536
	c11.054-1.777,22.041-3.953,33.144-5.462c4.641-0.631,9.409-0.684,13.867-2.301c-0.032-0.722-0.388-1.107-0.828-1.44
	c-16.313-12.338-34.187-21.581-53.883-27.233c-1.484-0.426-2.148-0.132-2.626,1.41c-2.074,6.699-4.306,13.35-6.42,20.037
	C162.26,186.433,162.354,186.413,165.063,188.182z M211.927,264.364c-3.905-6.653-41.034-47.172-45.95-50.165
	c-8.269,14.22-15.049,29.128-21.664,44.453C166.977,262.36,189.097,266.161,211.927,264.364z M265.061,240.251
	c-0.614-4.469-2.143-8.628-4.139-12.634c-5.643-11.324-14.274-20.225-23.365-28.75c-0.823-0.771-1.589-1.148-2.865-0.853
	c-15.802,3.653-31.976,4.984-47.948,7.583c-4.745,0.772-9.529,1.303-14.843,2.018c0.663,0.933,0.846,1.297,1.123,1.565
	c17.286,16.724,33.827,34.135,48.711,53.058c1.231,1.565,2.528,1.73,4.208,1.587c6.061-0.515,12.049-1.508,17.99-2.772
	c4.774-1.015,9.353-2.619,13.577-5.119C263.529,252.37,266.011,247.154,265.061,240.251z M272.708,104.611
	c-4.592-23.693-14.241-44.95-29.523-63.598C230.741,25.83,214.96,15.616,195.96,10.654c-14.372-3.753-28.705-2.218-42.838,1.516
	c-19.942,5.269-37.996,14.579-54.807,26.379c-18.802,13.197-35.84,28.28-49.084,47.236c-21.398,30.623-34.659,64.53-40.46,101.388
	c-0.402,2.553-0.743,5.171,0.12,7.887c2.91-5.761,7.278-10.091,12.055-14.06c11.777-9.783,25.128-16.757,39.501-21.802
	c16.638-5.84,33.838-9.239,51.346-11.03c12.378-1.267,24.812-1.875,37.182-0.027c31.916,4.769,60.79,16.759,85.932,37.15
	c13.921,11.291,26.606,23.757,34.635,40.182c0.097,0.198,0.4,0.295,0.62,0.449c1.034-0.553,0.807-1.614,0.969-2.496
	c2.539-13.824,4.093-27.766,5.127-41.778C278.164,155.822,277.656,130.146,272.708,104.611z M77.183,73.162
	c-1.769-0.963-3.429-0.651-4.831,0.682c-0.769,0.731-1.385,1.65-1.963,2.552c-8.523,13.3-16.17,27.094-23.222,41.225
	c-4.305,8.625-7.044,17.78-9.408,27.071c-0.265,1.043-0.404,2.118-0.56,2.955c-0.001,2.106,0.769,3.607,2.113,4.328
	c1.315,0.705,2.615,0.614,3.823-0.213c1.202-0.824,1.495-2.139,1.832-3.477c2.312-9.177,5.4-18.063,9.702-26.528
	c6.971-13.715,14.311-27.216,22.607-40.183c0.722-1.128,1.562-2.209,1.875-3.561C79.632,75.934,78.905,74.099,77.183,73.162z
	 M96.229,51.201c-3.037,2.23-5.628,4.993-7.943,7.955c-0.96,1.227-0.833,2.827,0.079,4.175c1.591,2.352,4.348,1.509,6.16,0.023
	c2.526-2.072,4.952-4.334,6.977-6.905c1.168-1.483,0.805-3.574-0.473-4.785C99.57,50.283,97.763,50.075,96.229,51.201z
	 M48.622,458.397c-1.427-0.487-2.307,0.454-2.751,1.702c-1.282,3.594-1.771,7.426-2.542,11.148c-0.251,1.21-0.052,2.897,1.399,3.175
	c1.453,0.277,2.247-0.614,2.646-1.905c0.118-0.382,0.122-0.797,0.204-1.191c0.677-3.292,1.338-6.588,2.053-9.872
	C49.904,460.194,50.121,458.909,48.622,458.397z M66.429,438.124c-1.02-0.387-2.047-0.062-2.365,0.889
	c-1.013,3.028-1.913,6.101-2.688,9.199c-0.285,1.141,0.403,2.107,1.622,2.387c1.058,0.242,1.934-0.317,2.217-1.267
	c0.913-3.063,1.686-6.167,2.385-8.78C67.586,439.17,67.279,438.446,66.429,438.124z M79.764,399.981
	c-1.426-0.486-2.399,0.348-2.808,1.582c-0.884,2.667-1.599,5.39-2.261,7.672c-0.107,1.586-0.003,2.652,1.339,2.98
	c1.493,0.365,2.341-0.55,2.705-1.779c0.76-2.566,1.371-5.176,2.017-7.774C81.03,401.56,81.074,400.427,79.764,399.981z
	 M51.832,432.625c-1.072-0.216-1.794,0.443-2.118,1.425c-0.753,2.283-1.509,4.567-2.146,6.884c-0.303,1.102-0.039,2.233,1.165,2.676
	c1.401,0.515,2.331-0.234,2.796-1.523c0.817-2.265,1.518-4.567,1.781-6.819C53.342,433.966,53.136,432.888,51.832,432.625z
	 M39.823,482.824c-1.037-0.365-1.852,0.149-2.395,1.009c-0.73,1.157-1.11,2.478-1.493,3.779c-0.427,1.447-1.382,3.841,0.6,4.578
	c1.228,0.457,2.167-0.194,2.581-1.299c0.707-1.886,1.295-3.822,1.824-5.767C41.211,484.131,40.883,483.197,39.823,482.824z
	 M59.76,422.218c0.331-1.583,0.621-3.176,0.826-4.239c0.155-1.912,0.33-3.495-1.441-3.795c-1.81-0.306-2.113,1.301-2.415,2.623
	c-0.36,1.578-0.686,3.166-0.947,4.762c-0.214,1.31,0.03,2.528,1.579,2.786C58.924,424.615,59.491,423.507,59.76,422.218z
	 M61.526,477.98c-1.24-0.373-2.109,0.461-2.465,1.511c-0.553,1.632-0.936,3.331-1.262,5.026c-0.215,1.116,0.068,2.27,1.294,2.599
	c1.471,0.395,2.211-0.674,2.583-1.89c0.465-1.523,0.786-3.092,0.978-3.869C62.989,479.408,62.739,478.345,61.526,477.98z
	 M80.402,365.507c-1.052-0.478-1.929,0.024-2.344,0.883c-0.803,1.662-1.469,3.402-2.039,5.159c-0.316,0.975,0.151,1.863,1.115,2.289
	c0.981,0.434,1.896,0.114,2.403-0.79c0.976-1.741,1.539-3.651,1.957-5.324C81.527,366.583,81.218,365.878,80.402,365.507z
	 M66.171,459.403c-1.046-0.451-1.831,0.187-2.385,1.007c-0.769,1.137-2.467,1.989-1.324,3.792c0.616,0.971,1.449,1.657,2.672,1.392
	c1.879-0.407,1.75-2.159,2.208-3.43C67.63,460.901,67.32,459.898,66.171,459.403z"/>
<g>
</g>
<g>
</g>
<g>
</g>
<g>
</g>
<g>
</g>
<g>
</g>
</svg>
