<?xml version="1.0" encoding="utf-8"?>
<!-- Generator: Adobe Illustrator 23.0.1, SVG Export Plug-In . SVG Version: 6.00 Build 0)  -->
<svg version="1.1" id="Layer_1" xmlns="http://www.w3.org/2000/svg" xmlns:xlink="http://www.w3.org/1999/xlink" x="0px" y="0px"
	 viewBox="0 0 864 864" style="enable-background:new 0 0 864 864;" xml:space="preserve">
<style type="text/css">
	.st0{fill:#050505;}
</style>
<g>
	<g>
		<g>
			<path class="st0" d="M399.92,171.5l-2.14-4.63l-1.18,5.31c-0.69,3.08-3.74,5.03-6.82,4.34c-3.09-0.69-5.05-3.74-4.34-6.82
				l2.73-12.31c-0.6,0.02-1.05,0.03-1.17,0.03c-3.15,0.02-5.72-2.53-5.74-5.68l0-0.01c-0.02-3.15,2.53-5.72,5.68-5.74
				c7.91-0.05,30.5-2.4,40.04-12.49c3.24-3.44,4.7-7.44,4.46-12.34c-1.17-23.23-26.29-26.63-41.15-26.58
				c-0.12,0-0.94-0.01-1.06-0.01c-3.07-0.18-4.81-2.67-5.02-5.87c0.09-3.09,2.96-5.54,6.05-5.56c31.75-0.1,51.41,13.89,52.6,37.43
				c0.02,0.5,0.04,1,0.04,1.49c0.04,7.42-2.52,13.91-7.63,19.3c-7.67,8.11-19.91,12.1-30.15,14.09l5.19,11.24
				c0.36,0.77,0.52,1.57,0.52,2.36c0.01,2.17-1.22,4.25-3.32,5.23C404.64,175.62,401.24,174.37,399.92,171.5z"/>
		</g>
	</g>
	<g>
		<g>
			<path class="st0" d="M623.81,170.17c1.24,0.6,37.15-7.33,47.39,5.52c10.24,12.85-2.31,52.78-19,55.9
				c-16.69,3.12-45.85-30.8-45.51-37.66C607.04,187.07,623.81,170.17,623.81,170.17z"/>
		</g>
	</g>
	<g>
		<circle class="st0" cx="612.07" cy="672.57" r="15.3"/>
	</g>
	<g>
		<circle class="st0" cx="601.78" cy="719.75" r="10.38"/>
	</g>
	<g>
		<circle class="st0" cx="656.06" cy="702.43" r="10.98"/>
	</g>
	<g>
		<circle class="st0" cx="643.47" cy="628.6" r="12.59"/>
	</g>
	<g>
		<circle class="st0" cx="580.15" cy="672.57" r="7.03"/>
	</g>
	<g>
		<circle class="st0" cx="600.78" cy="625.39" r="9.38"/>
	</g>
	<g>
		<circle class="st0" cx="590.07" cy="111.34" r="10.78"/>
	</g>
	<g>
		<circle class="st0" cx="556.31" cy="152.13" r="7.5"/>
	</g>
	<g>
		<circle class="st0" cx="554.44" cy="88.37" r="9.38"/>
	</g>
	<g>
		<circle class="st0" cx="598.38" cy="152.94" r="8.31"/>
	</g>
	<g>
		<circle class="st0" cx="195.36" cy="397.87" r="6.63"/>
	</g>
	<g>
		<circle class="st0" cx="237.73" cy="436.49" r="9.61"/>
	</g>
	<g>
		<circle class="st0" cx="196.58" cy="429.1" r="7.85"/>
	</g>
	<g>
		<circle class="st0" cx="220.21" cy="405.84" r="7.9"/>
	</g>
	<g>
		<path class="st0" d="M302.85,639.24c-1.16,0-2.33-0.43-3.24-1.3c-1.88-1.79-1.95-4.76-0.16-6.64c1.14-1.19,28.45-29.2,78.28-24.33
			c2.58,0.25,4.47,2.55,4.22,5.13c-0.25,2.58-2.54,4.5-5.13,4.22c-45.35-4.4-70.33,21.21-70.57,21.47
			C305.32,638.76,304.08,639.24,302.85,639.24z"/>
	</g>
	<path class="st0" d="M727.78,671.25c-8.03-7.71-20.3-10.39-33.48-10.49c0.39-52.73-12.23-104.96-37.82-155.84
		c8.06-1.44,17.46-4.59,19.95-10.35c1.16-2.68,0.72-5.57-1.19-7.93c-4.46-5.5-21.27-13.23-36.68-19.49
		c4.81-3.32,8.99-7.6,9.77-12.76c0.42-2.77,0.01-6.94-4.34-11.03c-5.08-4.79-16.41-8.79-34.61-12.22
		c-35.14-44.9-72.03-75.75-88.92-88.81c26-5.2,82.52-25.04,108.04-82.01c13.63,8.64,25.44,12.09,35.1,10.28
		c15.36-2.87,30.16-19.73,39.61-45.1c8.8-23.63,12.13-54.42-0.26-69.96c-10.33-12.96-32.26-17.97-67.04-15.31
		c-0.49-2.01-1.04-3.97-1.57-5.94c2.21-0.1,4.38-0.24,6.49-0.42c19.36-1.67,44.5-6.81,54.34-21.78c8.58-13.05,6.71-35.41-5.01-59.81
		c-10.91-22.72-30.79-46.49-50.58-48.34C619.12,2,598.06,22.36,583.2,40.19c-0.94-0.97-1.87-1.95-2.79-2.85
		c-17.65-17.3-48.1-29.53-81.47-32.73c-37.26-3.57-73.24,4.42-101.32,22.49c-25.95,16.7-61.87,7.52-88.1,0.8
		c-5.65-1.45-15.69-0.85-20.03,0.38c-33.57,9.46-52.16,33.51-58.81,49.81c-11.05,27.06-17.46,72.18,14.72,133.49
		c9.92,18.91,23.32,36.33,34.08,50.34c6.99,9.1,14.89,19.37,15.65,22.83c-0.68,1.05-2.46,3.25-4.05,5.22
		c-4.59,5.68-11.73,14.54-19.33,27.07c-6.62-5.93-12.86-12.7-18.9-19.42c-20.53-22.84-41.76-46.46-75.33-25.68
		c-11.07,6.85-17.53,17.49-18.67,30.77c-1.37,15.95,4.84,34.31,14.98,52.27c-13.43-2.54-26.85,0.65-40.04,15.53
		c-8.64,9.74-11.77,21.79-9.05,34.83c7.16,34.36,52.25,69.44,91.13,87.51c6.44,2.99,13.3,5.62,20.42,7.84
		c2.93,63.19,17.73,100.52,31.02,121.66c-10.75,16-23.12,39.21-28,64.1c-6.5,33.18,3.03,55.98,9.34,66.68
		c-9.68,1.48-25.57,5.48-34.47,16.15c-5.43,6.51-7.51,14.44-6.19,23.57c0.96,6.66,5.74,11.88,14.19,15.49
		c9.38,4.01,22.97,5.85,38,6.13c-0.91,3.72-1.29,7.73-1.07,12.05c0.39,7.51,3.53,13.91,9.32,19.02
		c13.61,12.01,39.98,15.05,65.94,15.05c16.01,0,31.87-1.16,44.49-2.07c6.64-0.48,11.89-0.87,15.27-0.91c1.18-0.02,2.94,0,5.23,0.01
		c123.56,0.77,211.56-26.59,257.32-78.43c11.78,6.85,25.47,12.78,37.66,12.78c3.35,0,6.6-0.45,9.65-1.45
		c14.84-4.88,27.29-23.54,33.3-49.94C742.88,715.98,742.12,685.02,727.78,671.25z M638.71,13.27c13.76,1.29,31.43,19,42.99,43.06
		c10.13,21.09,12.28,40.47,5.63,50.59c-5.88,8.94-21.98,15.12-45.34,17.4c-3.5,0.34-6.95,0.54-10.37,0.68
		c-10.43-32.87-26.85-59.8-42.06-77.74C603.02,30.94,622.21,11.68,638.71,13.27z M168.21,303.52c0.89-10.35,5.69-18.28,14.26-23.59
		c7.34-4.54,13.82-6.58,19.87-6.58c15.04,0,27.39,12.6,43.53,30.55c6.65,7.4,13.57,14.89,21.11,21.45
		c-8.82,16.13-17.68,37.24-23.51,64.26c-10.27-4.04-20.36-10.18-30.13-16.14c-8.59-5.23-17.27-10.52-25.99-14.23
		C174.24,338.72,166.92,318.56,168.21,303.52z M225.87,799.71c-5.24-2.24-8.13-5-8.59-8.2c-0.93-6.47,0.41-11.77,4.1-16.2
		c10.42-12.52,35.53-13.64,35.78-13.66c1.8-0.07,3.4-1.17,4.12-2.83c0.72-1.66,0.42-3.58-0.76-4.95c-0.83-0.96-20.17-23.95-12-65.63
		c4.38-22.33,15.03-42.95,24.49-57.63c4.71,6.23,8.93,10.39,11.95,12.97c-8.91,10.05-28.93,38.56-22.25,86.24
		c4.51,32.21,31.45,46.89,50.16,54.24c-14.63,1.07-34.24,4.15-45.3,16.35c-1.33,1.47-2.47,3.04-3.49,4.69
		C248.73,805.11,234.85,803.54,225.87,799.71z M399.42,848.22c-2.37-0.01-4.2-0.03-5.42-0.01c-3.65,0.05-9.02,0.44-15.82,0.94
		c-27.42,2-84.49,6.16-103.53-10.65c-3.88-3.43-5.89-7.5-6.15-12.47c-0.42-8.05,1.56-14.36,6.04-19.31
		c11-12.12,35.04-13.2,47.96-13.79c7-0.32,10.2-0.46,12.34-1.9c1.68-1.13,2.56-3.03,2.31-4.95c-0.49-3.64-3.39-4.63-10.4-7.01
		c-14.96-5.08-50.01-16.98-54.72-50.55c-7.59-54.17,21.87-80.83,23.12-81.93c1.13-0.98,1.71-2.46,1.58-3.95
		c-0.13-1.49-0.97-2.84-2.25-3.62c-0.44-0.27-44.48-28.29-48.93-142.06c-0.08-2.02-1.44-3.76-3.38-4.33
		c-7.83-2.27-15.34-5.06-22.31-8.3c-44.29-20.58-80.41-54.61-85.89-80.91c-2.12-10.17,0.2-19.14,6.89-26.69
		c8.28-9.34,16.34-13.14,25.01-13.14c12.24,0,25.68,7.58,42.6,17.9c10.7,6.52,21.78,13.27,33.5,17.59c0.77,0.28,1.55,0.55,2.32,0.81
		l1.17,0.4c1.29,0.45,2.7,0.32,3.88-0.36c1.18-0.68,2.01-1.84,2.27-3.17c11.05-56.66,36.11-87.65,46.81-100.88
		c3.12-3.87,4.84-5.99,5.63-7.88c2.49-5.97-3.1-13.6-17.09-31.8c-10.54-13.72-23.66-30.79-33.22-48.98
		c-24.15-46-31.05-90.28-14.34-125.58C250.66,57.82,277.4,34.79,307.2,37c27.1,2.01,66.1,16.91,95.5-2
		c59.67-38.39,141.21-20.28,171.13,9.05c18.24,17.88,43.29,55.38,53.85,102.22c0.52,2.3,2.71,3.86,5.01,3.64
		c41.42-3.79,57.08,4.14,62.92,11.46c8.61,10.8,8.12,35.82-1.2,60.83c-8.16,21.92-20.63,36.92-32.54,39.14
		c-8.12,1.5-19.46-2.61-32.8-11.95c-1.17-0.83-2.66-1.07-4.04-0.65c-1.38,0.41-2.49,1.43-3.02,2.76
		c-27.25,68.49-103.6,83.04-113.53,82.96c-2.11-0.17-3.96,1.25-4.61,3.23c-0.65,1.98,0.09,4.15,1.8,5.33
		c0.5,0.34,50.66,35.11,97.38,95.26c0.71,0.91,1.73,1.53,2.87,1.74c22.49,4.09,29.46,8.1,31.61,10.13c1.68,1.58,1.54,2.5,1.49,2.8
		c-0.39,2.61-5.25,6.68-11.8,9.89c-1.21,0.59-2.1,1.67-2.46,2.97c-0.36,1.3-0.14,2.68,0.6,3.81l1.21,1.9
		c0.53,0.83,1.32,1.47,2.24,1.83c21.45,8.4,34.11,14.92,38.11,18.2c-2.49,1.71-9.18,4.21-18.03,4.86c-1.58,0.11-2.99,1.02-3.76,2.4
		c-0.77,1.38-0.79,3.06-0.06,4.46c33.92,64.72,46.29,131.69,36.78,199.05C674.08,757.44,627.14,849.7,399.42,848.22z M728.13,738.48
		c-5.19,22.81-15.57,39.32-27.08,43.1c-8.72,2.88-22.16-0.69-38.25-9.81c15.13-19.58,24.72-42.33,28.36-68.12
		c1.58-11.19,2.52-22.36,2.93-33.52c11.09,0.03,21.11,2.05,27.18,7.89C731.24,687.59,734.06,712.45,728.13,738.48z"/>
	<circle class="st0" cx="274.8" cy="44.16" r="24.72"/>
</g>
</svg>
