<?xml version="1.0" encoding="utf-8"?>
<!-- Generator: Adobe Illustrator 23.0.1, SVG Export Plug-In . SVG Version: 6.00 Build 0)  -->
<svg version="1.1" id="Layer_1" xmlns="http://www.w3.org/2000/svg" xmlns:xlink="http://www.w3.org/1999/xlink" x="0px" y="0px"
	 viewBox="0 0 864 864" style="enable-background:new 0 0 864 864;" xml:space="preserve">
<style type="text/css">
	.st0{fill:#050505;}
</style>
<g>
	<g>
		<g>
			<path class="st0" d="M421.94,444.07c-29.18,7.1-121.34,77.16-134.09,143.55c-12.62,65.73,32.34,168.79,32.34,168.79
				s-2.25-116.26,11.95-162.85C350.95,531.89,421.94,444.07,421.94,444.07z"/>
		</g>
	</g>
	<g>
		<g>
			<path class="st0" d="M449.28,528.21c0,0-58.31,30.24-75.17,88.6c-16.85,58.37,14.7,150.12,14.7,150.12s8.09-109.55,16.56-139.08
				C414.05,597.62,449.28,528.21,449.28,528.21z"/>
		</g>
	</g>
	<g>
		<g>
			<circle class="st0" cx="798.17" cy="74.93" r="20.5"/>
		</g>
	</g>
	<g>
		<g>
			<path class="st0" d="M366.34,271.73c-0.41-1.93-54.42-9.07-63.1,13.41c-8.68,22.48,20.11,36.28,41.41,26.42
				C365.94,301.71,368.7,282.78,366.34,271.73z"/>
		</g>
	</g>
	<g>
		<path class="st0" d="M659.02,199.89l3.04-12.57c-0.58,0.01-1.16,0.01-1.28,0.01c-3.18-0.04-5.71-2.65-5.67-5.83
			c0.04-3.17,2.64-5.72,5.83-5.68c8.05,0.09,31.13-1.83,41.06-11.98c3.39-3.45,4.95-7.55,4.8-12.53
			c-0.76-23.75-26.31-27.68-41.48-27.91c-0.12,0-0.95-0.02-1.07-0.03c-3.1-0.25-5.09-2.9-4.94-6c0.15-3.11,3.08-5.53,6.19-5.48
			c32.31,0.49,52.05,15.09,52.81,39.05c0.26,8.18-2.47,15.24-8.1,20.98c-0.97,0.98-2,1.9-3.08,2.76c-7.91,6.27-18.73,9.4-27.95,11
			l5.12,11.64c1.08,2.45,0.31,5.24-1.69,6.82c-0.38,0.3-0.8,0.56-1.26,0.76c-2.91,1.28-6.31-0.04-7.59-2.95l-2.17-4.94l-1.35,5.59
			c-0.32,1.3-1.05,2.39-2.02,3.15c-1.34,1.06-3.14,1.52-4.93,1.09C660.17,206.09,658.27,202.98,659.02,199.89z"/>
	</g>
	<g>
		<circle class="st0" cx="146.55" cy="476.99" r="15.77"/>
	</g>
	<g>
		<circle class="st0" cx="133.56" cy="527.85" r="12.99"/>
	</g>
	<g>
		<circle class="st0" cx="171.26" cy="512.83" r="8.93"/>
	</g>
	<g>
		<circle class="st0" cx="163.78" cy="553.48" r="7.48"/>
	</g>
	<g>
		<circle class="st0" cx="455.21" cy="108.56" r="13.12"/>
	</g>
	<g>
		<circle class="st0" cx="452.86" cy="148.67" r="10.77"/>
	</g>
	<g>
		<circle class="st0" cx="415.15" cy="135.66" r="23.78"/>
	</g>
	<g>
		<circle class="st0" cx="622.28" cy="684.2" r="13.05"/>
	</g>
	<g>
		<circle class="st0" cx="592.62" cy="704.88" r="7.63"/>
	</g>
	<g>
		<circle class="st0" cx="627.09" cy="720.16" r="10.21"/>
	</g>
	<g>
		<path class="st0" d="M649.79,655.45c-1.11,0-2.22-0.38-3.13-1.17l0,0c-1.25-1.08-31.18-26.25-73.36-11.95
			c-2.51,0.84-5.22-0.49-6.08-3c-0.85-2.51,0.49-5.23,3-6.08c47.5-16.1,81.3,12.56,82.71,13.79c2,1.74,2.21,4.76,0.48,6.76
			C652.46,654.89,651.13,655.45,649.79,655.45z"/>
	</g>
	<path class="st0" d="M825.49,405.07c-1.68-10.8-7.99-14.07-11.6-15.05c-16.58-4.52-41.4,8.29-65.38,20.69
		c-13.17,6.81-25.62,13.24-36.23,16.72c-20.5,6.71-40.37-2.06-49.44-7.16c3.55-2.68,8.88-6.4,14.11-10.05
		c36.95-25.83,113.85-79.59,135.26-141.25c27.48-79.11-4.04-191.59-10.92-198.47c-2.92-2.92-8.33-3.24-23.54-3.72
		c-21.87-0.7-54.92-1.75-74.91-15.74c-6.57-4.59-162.26-111.19-284.3,11.06c-22.27,22.31-39.64,45.87-52.09,70.56
		c-27.73-8.61-67.71-15.5-82.45,9.56c-13.91,23.64-16.68,50.4-7.06,68.17c5.03,9.3,15.81,20.61,38.54,21.67
		c3.71,0.17,7.26,0.26,10.67,0.26c6.13,0,11.74-0.29,16.93-0.78c0,0.95-0.04,1.9-0.02,2.86c-31.26,5.25-66.83,17.4-68.68,45.53
		c-1.8,27.37,7.75,52.52,24.32,64.07c8.68,6.05,23.38,11.31,44.17,2.05c7.79-3.47,15.12-7.27,21.86-11.34
		c11.7,22.65,32.47,44.62,46.54,59.5c5.02,5.31,10.55,11.16,13.17,14.58c-22.92,11.43-145.35,76.39-174.78,162.05
		c-14.95,43.52-17.08,95.16-7.1,139.72c-14.84-11.24-28.19-22.74-31.42-32.19c-3.3-9.65-3.94-33.01-4.67-60.05
		c-1.44-53.01-3.41-125.61-27.42-161.89c-31.72-47.94-95.26-88.21-118.5-88.21c-0.04,0-0.07,0-0.1,0
		c-5.87,0.03-8.73,2.54-10.09,4.64c-4.65,7.19-3.99,28.32-2.43,65.05c1.48,34.72,3.16,74.07-2.16,96.57
		c-7.81,33.03-26.97,146.84,54.19,224.62c42.33,40.57,88.59,54.81,124.75,54.81c9.21,0,17.76-0.92,25.43-2.57
		c14.59-3.14,26.77-8.93,36-16.84c12.8,12.48,27.69,21.79,44.33,27.46c67.54,23.04,221.6,38.45,299.75,38.45
		c22.06,0,38.07-1.23,44.38-3.86c10.53-4.39,15.39-12.85,13.31-23.22c-2.99-14.97-19.56-29.12-34.09-29.12
		c-9.49,0-19.56-0.74-27.39-1.49c21.01-13.72,61.04-45.99,62.67-93.46c1.24-35.88-17.64-71.62-31.43-97.72
		c-8.68-16.42-17.65-33.41-14.45-38.84c5.06-8.59,33.67-20.9,61.35-32.81c24.55-10.56,49.93-21.48,67.53-32.9
		C803.92,486.36,829.56,431.2,825.49,405.07z M315.94,222.48c-14.66-0.69-24.94-6.29-30.56-16.66c-8.05-14.87-5.35-37.93,6.89-58.75
		c5.54-9.41,16.88-12.71,29.98-12.71c12.96,0,27.6,3.23,40.1,6.98c-11.64,25.71-18.06,52.58-19.15,80.51
		C335.11,222.65,326.07,222.95,315.94,222.48z M248.13,801.96c-54.01,11.59-110-19.57-141.53-49.79
		c-25.11-24.06-80.4-93.23-51.5-215.5c5.62-23.79,3.92-63.84,2.41-99.18c-1.09-25.53-2.32-54.46,0.81-59.34
		c0.01-0.01,0.56-0.37,2.24-0.37c0.8,0,1.86,0.08,3.24,0.32c23.65,4.13,79.11,41.05,107.26,83.6
		c22.5,33.99,24.42,105.01,25.83,156.86c0.79,28.98,1.41,51.86,5.18,62.89c4.84,14.15,24.21,29.17,44.32,43.86
		c3.05,10.26,6.75,20.03,11.17,29.06c6.13,12.51,13.48,23.59,21.9,33.14C271.49,794.24,260.91,799.21,248.13,801.96z M766.91,498.95
		c-16.93,10.98-41.93,21.74-66.11,32.14c-36.69,15.79-59.5,26.01-65.82,36.76c-5.91,10.04,2.54,26.04,14.24,48.17
		c14.02,26.55,31.47,59.58,30.32,92.91c-1.98,57.41-69.27,92.3-69.95,92.65c-1.86,0.95-2.9,2.99-2.55,5.06
		c0.34,2.06,1.98,3.66,4.05,3.96c0.92,0.13,22.65,3.2,42.75,3.2c9.92,0,22.61,11.01,24.69,21.41c1.16,5.79-1.33,9.88-7.6,12.49
		c-24.12,10.03-249.41-4.82-337.35-34.82c-28.8-9.83-52.11-31.51-67.39-62.71c-23.9-48.8-26.9-119.62-7.45-176.24
		c28.74-83.67,158.92-152.77,172.78-157.97c1.92-0.72,3.28-2.24,3.72-4.19c1.1-4.77-2.91-9.27-16.99-24.16
		c-14.64-15.48-36.77-38.88-47.16-61.78c-0.58-1.27-1.68-2.23-3.02-2.62c-0.44-0.13-0.9-0.19-1.35-0.19c-0.91,0-1.82,0.26-2.6,0.77
		c-7.55,4.88-16,9.42-25.14,13.49c-13.4,5.97-25.11,5.59-34.79-1.16c-13.88-9.67-21.82-31.49-20.24-55.58
		c1.59-24.25,41.24-33.81,64.73-37.35c2.41-0.36,4.16-2.48,4.08-4.91c-2.26-61.91,22.16-118.91,72.58-169.42
		c116.42-116.61,265.73-14.38,272.03-9.98c22.32,15.63,57.09,16.74,80.1,17.47c6.87,0.22,14.59,0.46,17.13,1.18
		c5.58,10.65,34.13,114.71,8.58,188.29c-20.4,58.73-95.58,111.28-131.71,136.54c-13.25,9.26-18.71,13.14-20.56,15.92
		c-1.42,2.12-0.92,4.99,1.13,6.51c1.24,0.92,30.75,22.38,63.24,11.75c11.34-3.72,24.12-10.32,37.65-17.32
		c21.31-11.02,45.46-23.48,58.46-19.95c0.9,0.25,3.66,1,4.64,7.28C819.25,427.26,797.63,479.02,766.91,498.95z"/>
</g>
</svg>
