<?xml version="1.0" encoding="UTF-8"?>
<!-- Generator: visioncortex VTracer 0.6.3 -->
<svg version="1.1" xmlns="http://www.w3.org/2000/svg" width="1280" height="1186">
<path d="M0 0 C1.16 0.17 2.31 0.33 3.51 0.5 C42.45 6.21 80.42 17.1 116 34 C116.96 34.46 117.92 34.91 118.91 35.38 C129.86 40.63 140.54 46.25 150.93 52.56 C151.65 53 152.38 53.43 153.13 53.88 C153.76 54.27 154.39 54.65 155.04 55.05 C157.43 56.21 159.35 56.76 162 57 C164.39 56.22 164.39 56.22 166.7 54.82 C168.04 54.08 168.04 54.08 169.4 53.33 C170.34 52.79 171.28 52.25 172.25 51.69 C173.23 51.14 174.22 50.58 175.23 50.02 C181.67 46.39 188.04 42.64 194.39 38.86 C214.69 26.86 235.57 16.18 257.62 7.81 C258.41 7.51 259.2 7.2 260.01 6.89 C266.46 4.54 266.46 4.54 270 6 C273.31 12.63 274.1 19.72 275.06 27 C275.23 28.26 275.4 29.51 275.58 30.81 C278.2 51.31 279.83 72.34 279 93 C278.96 94.07 278.92 95.14 278.88 96.24 C278.11 114.44 276.25 132.38 273.68 150.41 C273.51 151.58 273.51 151.58 273.34 152.77 C273.14 154.22 272.93 155.67 272.71 157.12 C271.01 169.06 273.31 176.81 278.69 187.44 C294.63 218.91 304.96 251.9 309 287 C309.1 287.8 309.19 288.6 309.29 289.43 C310.23 298.21 310.2 307 310.19 315.81 C310.19 317.04 310.19 317.04 310.19 318.3 C310.16 331.29 309.8 344.12 308 357 C307.88 357.9 307.75 358.79 307.63 359.72 C299.96 413.1 276.66 462.23 243 504 C241.44 505.96 239.87 507.92 238.31 509.88 C237.21 511.25 236.11 512.63 235 514 C237.72 515.81 240.46 517.24 243.39 518.66 C279.15 536.05 300.46 568.75 313.52 605.53 C324.34 637.2 331.04 673.04 331.2 706.62 C331.21 707.6 331.22 708.58 331.22 709.59 C331.57 771.51 317.52 828.04 291.41 883.98 C290.2 886.58 289 889.19 287.82 891.81 C282.5 903.53 276.28 914.77 270 926 C269.52 926.87 269.03 927.74 268.53 928.64 C253.12 956.28 235.74 982.52 217 1008 C216.51 1008.67 216.02 1009.35 215.51 1010.04 C214.14 1011.91 212.76 1013.77 211.38 1015.62 C210.6 1016.67 209.82 1017.71 209.02 1018.79 C208.02 1019.88 208.02 1019.88 207 1021 C206.01 1021 205.02 1021 204 1021 C199.71 1012.09 195.42 1003.18 191 994 C186.31 995.56 182.09 997.34 177.69 999.5 C169.23 1003.6 160.54 1007.03 151.73 1010.32 C142.44 1013.9 135.69 1017.49 131.06 1026.62 C122.53 1042.62 109.96 1057.44 96 1069 C95.18 1069.69 94.36 1070.39 93.52 1071.1 C87.54 1076 87.54 1076 83 1076 C79.06 1073.36 75.57 1070.12 72 1067 C71.06 1066.2 70.12 1065.39 69.15 1064.56 C63.53 1059.62 58.66 1054.46 54.07 1048.54 C49.25 1042.62 45.52 1039.49 38 1038 C33.8 1037.61 29.65 1037.62 25.44 1037.69 C24.17 1037.7 22.91 1037.7 21.61 1037.71 C12.21 1037.81 2.85 1038.31 -6.53 1038.86 C-49.14 1041.33 -92.46 1041.44 -134.97 1037.45 C-148.53 1035.84 -148.53 1035.84 -161 1040 C-163.87 1042.84 -166.44 1045.88 -169 1049 C-176.63 1058.02 -184.69 1066.61 -194.22 1073.66 C-196.11 1075.02 -196.11 1075.02 -198 1077 C-201 1077 -201 1077 -203.06 1075 C-203.5 1074.54 -203.93 1074.07 -204.38 1073.6 C-206.31 1071.69 -208.4 1070.09 -210.56 1068.44 C-224.5 1057.38 -235.06 1044.12 -244.2 1028.95 C-250.49 1018.65 -256.95 1013.39 -268.31 1009.44 C-281.23 1004.75 -293.59 998.89 -306 993 C-306.17 993.55 -306.34 994.11 -306.51 994.67 C-308.26 1000.18 -310.42 1005.25 -313.06 1010.38 C-313.41 1011.07 -313.77 1011.77 -314.13 1012.49 C-315.63 1015.44 -317.16 1018.24 -319 1021 C-323.54 1019.46 -325.75 1015.72 -328.44 1012 C-328.96 1011.29 -329.48 1010.57 -330.02 1009.84 C-331.13 1008.33 -332.24 1006.81 -333.34 1005.29 C-334.93 1003.1 -336.54 1000.92 -338.15 998.75 C-358.76 970.79 -376.99 940.8 -393 910 C-393.56 908.93 -394.12 907.87 -394.69 906.77 C-439.2 821.25 -457.23 730.99 -431.14 615.37 C-421.87 586.29 -408.39 560.12 -387 538 C-386.28 537.25 -385.55 536.5 -384.81 535.73 C-375.22 526.47 -362.67 519.17 -350 515 C-350 511.76 -352.56 509.89 -354.62 507.56 C-367.6 492.51 -378.33 476.34 -388 459 C-388.49 458.14 -388.97 457.27 -389.47 456.38 C-403.7 430.91 -413.29 403.69 -419.31 375.19 C-419.56 374.04 -419.8 372.9 -420.05 371.72 C-423.22 355.98 -424.34 340.46 -424.26 324.42 C-424.25 321.7 -424.26 318.98 -424.27 316.25 C-424.29 298.82 -422.77 281.61 -419.75 264.44 C-419.53 263.21 -419.32 261.97 -419.09 260.7 C-417.17 250.17 -414.5 240.11 -411 230 C-410.7 229.12 -410.4 228.25 -410.1 227.34 C-399.8 197.23 -399.8 197.23 -391.88 184.46 C-383.35 170.61 -387.13 156.16 -389.43 140.9 C-394.84 104.67 -402.2 39.4 -385 5 C-357.87 7.49 -330.54 26.27 -307.54 39.54 C-303.18 42.05 -298.78 44.5 -294.38 46.95 C-291.4 48.61 -288.46 50.32 -285.57 52.14 C-284.51 52.8 -283.46 53.45 -282.38 54.12 C-281.48 54.71 -280.58 55.29 -279.65 55.88 C-276.15 57.36 -274.64 57.12 -271 56 C-268.04 54.54 -265.25 52.84 -262.44 51.12 C-260.73 50.11 -259.02 49.11 -257.31 48.1 C-256.43 47.58 -255.55 47.07 -254.65 46.54 C-217.91 25.23 -178.26 12.89 -137 4 C-135.89 3.76 -134.78 3.52 -133.64 3.27 C-127.45 1.97 -121.26 0.91 -115 0 C-114.07 -0.15 -113.14 -0.29 -112.18 -0.44 C-75.9 -5.97 -36.25 -5.49 0 0 Z M-114 10 C-115.09 10.13 -116.18 10.27 -117.3 10.41 C-166.93 16.74 -221.13 34.07 -262.4 62.61 C-268.61 65.93 -275.05 64.77 -281.61 63.06 C-292.79 59.44 -302.97 53.34 -313.15 47.6 C-343.95 27.43 -343.95 27.43 -378 17 C-378.56 21.26 -379.11 25.53 -379.65 29.79 C-379.84 31.24 -380.03 32.68 -380.22 34.12 C-382.49 51.47 -383.24 68.7 -383.25 86.19 C-383.25 87.63 -383.25 87.63 -383.25 89.1 C-383.25 108.21 -381.96 126.86 -378.71 145.72 C-378.07 149.47 -377.5 153.23 -377 157 C-376.89 157.78 -376.79 158.56 -376.68 159.36 C-375.04 173.19 -378.83 181.99 -385.62 193.88 C-406.56 230.78 -414.44 275.17 -414.26 317.15 C-414.25 320.13 -414.26 323.11 -414.27 326.08 C-414.29 341.54 -413.06 356.42 -409.81 371.56 C-409.6 372.57 -409.38 373.58 -409.16 374.62 C-395.03 438.77 -358.79 500.91 -306.64 541.91 C-303.86 544.11 -301.19 546.43 -298.5 548.75 C-290.44 555.47 -281.74 561.22 -273 567 C-272.25 567.5 -271.5 568.01 -270.72 568.52 C-221.96 601.05 -165.68 618.99 -108 627 C-106.64 627.19 -106.64 627.19 -105.24 627.39 C-34.17 636.93 42.52 624.98 107.46 595.16 C109.79 594.1 112.13 593.05 114.47 592.01 C145.13 578.22 174.1 558.55 199 536 C199.65 535.42 200.29 534.83 200.96 534.23 C210.11 525.9 218.82 517.29 227 508 C227.45 507.49 227.9 506.99 228.37 506.46 C240.77 492.49 251.57 477.12 261 461 C261.47 460.2 261.94 459.4 262.42 458.58 C287.03 416.1 300.21 368.95 300.25 319.88 C300.25 319.09 300.25 318.31 300.25 317.5 C300.19 273.04 289.64 229.35 268.99 189.93 C264.86 182.03 262.61 175.3 262.62 166.38 C262.63 165.52 262.63 164.66 262.63 163.78 C262.77 154.91 264.11 146.26 265.43 137.5 C266.78 128.26 267.66 119.07 268.25 109.75 C268.33 108.53 268.41 107.3 268.49 106.04 C269.37 90.95 269.07 75.96 268.19 60.88 C268.14 60.12 268.1 59.37 268.06 58.6 C267.3 37.49 267.3 37.49 263 17 C255.72 18.97 248.96 21.58 242.12 24.75 C240.59 25.46 240.59 25.46 239.03 26.18 C222.31 34.01 206.17 43.03 190.12 52.13 C177.56 59.23 165.85 65.73 151 64 C147.44 62.69 144.42 60.81 141.25 58.75 C139.42 57.64 137.59 56.53 135.75 55.43 C134.81 54.86 133.87 54.29 132.89 53.7 C87.74 27.15 33.11 11.73 -19 8 C-20.77 7.87 -20.77 7.87 -22.57 7.74 C-34.21 6.95 -45.84 6.76 -57.5 6.75 C-58.48 6.75 -59.46 6.75 -60.46 6.75 C-78.47 6.76 -96.14 7.75 -114 10 Z M-351.12 526.62 C-351.78 526.9 -352.44 527.17 -353.12 527.45 C-362.07 531.21 -368.67 534.4 -375 542 C-357.51 542 -340.02 542 -322 542 C-325.8 537.57 -329.52 533.25 -333.56 529.06 C-334.02 528.57 -334.47 528.08 -334.94 527.57 C-337 525.46 -338.47 524.11 -341.39 523.52 C-344.82 524.15 -347.93 525.29 -351.12 526.62 Z M207 541 C207 541.33 207 541.66 207 542 C224.82 542 242.64 542 261 542 C252.33 533.33 242.01 527.62 230.38 523.81 C220.86 524.34 213.08 534.33 207 541 Z M-393.99 557.18 C-398.17 562.04 -398.17 562.04 -400 568 C-398.2 572.68 -395.22 578.23 -391 581 C-386.38 581.6 -384.11 581.54 -379.94 579.5 C-372.89 573.5 -369.32 568.49 -366.92 559.44 C-366.62 558.64 -366.31 557.83 -366 557 C-365.01 556.67 -364.02 556.34 -363 556 C-362.59 557.05 -362.18 558.1 -361.75 559.18 C-356.83 571.41 -356.83 571.41 -348 581 C-344.48 582.56 -344.48 582.56 -341 582 C-334.04 578.45 -330.86 573.36 -328.25 566.19 C-327.82 565.03 -327.39 563.86 -326.95 562.67 C-326.64 561.79 -326.32 560.91 -326 560 C-324.68 560 -323.36 560 -322 560 C-321.55 561.39 -321.55 561.39 -321.08 562.82 C-317.53 574.47 -317.53 574.47 -309.06 582.62 C-304.99 583.12 -303.38 582.3 -300 580 C-296.51 576.35 -293.85 572.72 -292 568 C-291.94 566.03 -291.94 566.03 -293 564 C-294.97 562.17 -296.86 560.59 -299 559 C-299.6 558.56 -300.19 558.11 -300.8 557.66 C-314.62 547.58 -331.12 546.47 -347.78 546.61 C-350.07 546.63 -352.35 546.61 -354.63 546.59 C-368.14 546.57 -384.3 546.56 -393.99 557.18 Z M189.13 555.92 C188.48 556.45 187.82 556.98 187.14 557.53 C186.48 558.08 185.81 558.62 185.12 559.19 C184.44 559.75 183.75 560.31 183.04 560.88 C181.36 562.25 179.68 563.62 178 565 C178.51 569.31 179.4 572.18 181.88 575.75 C182.64 576.89 182.64 576.89 183.43 578.05 C185.82 581.02 187.53 581.94 191.31 582.44 C194.97 582 196.89 581.34 199.59 578.82 C202.56 574.99 204.21 570.46 206 566 C206.6 564.6 207.2 563.21 207.81 561.81 C208.2 560.88 208.6 559.96 209 559 C209.66 559 210.32 559 211 559 C211.22 559.69 211.44 560.38 211.66 561.09 C214.25 568.74 217.24 575.73 223.44 581.12 C227.04 582.36 229.34 581.98 233 581 C241.28 575.35 245.32 565.04 249 556 C249.66 556 250.32 556 251 556 C251.29 556.85 251.58 557.69 251.88 558.56 C255.07 567.39 258.66 575.92 267 581 C271.27 582.24 273.16 582.41 277.19 580.44 C281.68 576.54 284.93 572.36 285.41 566.21 C284.31 560.29 279.39 555.74 274.7 552.32 C263.41 546.06 249.78 546.65 237.24 546.68 C234.7 546.69 232.17 546.66 229.63 546.64 C215.72 546.58 200.42 546.71 189.13 555.92 Z M-364 567 C-365.04 568.7 -366.06 570.41 -367.06 572.12 C-371.07 578.51 -375.24 582.2 -382 585.44 C-387.13 586.4 -391.22 586.05 -395.75 583.38 C-398.52 580.45 -400.15 577.57 -402 574 C-405.07 577.7 -407.07 581.84 -409.19 586.12 C-409.74 587.22 -409.74 587.22 -410.3 588.33 C-412.29 591.99 -412.29 591.99 -413 596 C-360.86 596 -308.72 596 -255 596 C-256.3 590.57 -256.3 590.57 -259 586 C-260.83 585.92 -262.67 585.86 -264.5 585.81 C-271.03 585.29 -275.27 583.54 -280 579 C-282.26 576.13 -284.2 573.17 -286 570 C-289.9 571.3 -290.29 572.8 -292.31 576.31 C-295.06 580.73 -297.06 583.92 -302 586 C-306.6 586.77 -309.98 586.45 -314.25 584.56 C-317.88 581.18 -319.85 577.43 -322 573 C-322.5 572.01 -322.5 572.01 -323 571 C-323.66 571 -324.32 571 -325 571 C-326.38 572.86 -326.38 572.86 -327.75 575.19 C-330.78 579.91 -333.89 583.45 -339 586 C-343.81 586.58 -346.91 586.51 -351 583.81 C-355.68 579.98 -358.49 574.82 -361.43 569.63 C-362.21 568.33 -362.21 568.33 -363 567 C-363.33 567 -363.66 567 -364 567 Z M248 567 C247.66 567.8 247.32 568.59 246.97 569.41 C243.35 577.34 239.82 582.09 232 586 C227.04 586.6 224.05 586.48 219.88 583.62 C215.34 579.9 212.68 575.14 210 570 C208.01 571.99 207.4 573.22 206.31 575.75 C203.46 581.55 199.69 585.07 193.56 587.19 C188.58 586.93 185.68 585.33 182 582 C180.02 579.51 178.26 576.98 176.54 574.3 C175.17 572.26 173.81 570.66 172 569 C171.56 569.66 171.13 570.33 170.68 571.01 C166.83 576.73 163.31 581.84 157 585 C153.95 585.24 150.9 585.38 147.85 585.52 C145.06 585.81 145.06 585.81 143.18 587.1 C141.43 589.63 141.43 589.63 141 596 C193.14 596 245.28 596 299 596 C294.07 585.46 294.07 585.46 289 575 C288.34 575 287.68 575 287 575 C286.4 575.91 285.8 576.82 285.19 577.75 C282.6 581.59 280.52 584.25 275.96 585.61 C270.95 586.47 267.32 585.97 262.91 583.43 C257.13 579.11 253.3 573.33 250 567 C249.34 567 248.68 567 248 567 Z M-245 595 C-244.49 602.83 -243.86 610.63 -242.97 618.42 C-241.57 630.79 -240.57 643.14 -239.92 655.57 C-239.86 656.78 -239.86 656.78 -239.79 658.02 C-238.89 675.37 -238.66 692.69 -238.68 710.06 C-238.69 713.32 -238.68 716.59 -238.66 719.85 C-238.51 747.35 -239.82 774.37 -244.75 801.5 C-244.88 802.21 -245 802.92 -245.13 803.66 C-247.89 819.23 -251.24 834.64 -255 850 C-255.29 851.18 -255.57 852.35 -255.86 853.57 C-263.77 885.76 -274.45 917.27 -286.47 948.15 C-292.27 962.06 -292.27 962.06 -294.38 976.81 C-294.38 977.87 -294.39 978.93 -294.4 980.02 C-293.84 984.17 -292.73 986.64 -289.38 989.27 C-284.2 992.69 -278.63 995.01 -272.88 997.25 C-272.01 997.6 -271.14 997.95 -270.25 998.31 C-265.84 1000.06 -261.75 1001.47 -257 1002 C-257.28 1001.1 -257.28 1001.1 -257.56 1000.18 C-266.97 969.35 -269.87 940.02 -270 908 C-251.49 911 -251.49 911 -244.31 913.94 C-243.68 914.18 -243.04 914.42 -242.38 914.66 C-239.19 915.91 -236.56 917.3 -233.73 919.25 C-232.83 919.83 -231.93 920.41 -231 921 C-227.62 919.87 -227.29 919.32 -225.38 916.5 C-219.24 908.08 -211.6 900.36 -202 896 C-195.95 895.25 -193.18 897.52 -188.52 901.02 C-187.69 901.67 -186.86 902.33 -186 903 C-185.29 903.54 -184.59 904.08 -183.86 904.64 C-178.15 909.28 -174.12 914.94 -170 921 C-166.27 919.56 -162.71 917.89 -159.12 916.12 C-149.43 911.62 -139.59 909.27 -129 908 C-129.58 946.61 -132.09 984.98 -150.43 1019.83 C-152.15 1022.71 -152.15 1022.71 -152 1025 C-142.3 1026.4 -132.59 1027.33 -122.81 1028.06 C-121.24 1028.18 -121.24 1028.18 -119.64 1028.3 C-116.09 1028.56 -112.55 1028.78 -109 1029 C-108.29 1029.04 -107.58 1029.09 -106.84 1029.13 C-90.22 1030.15 -73.59 1030.2 -56.94 1030.19 C-55.51 1030.19 -54.08 1030.19 -52.66 1030.19 C-31.05 1030.18 -9.55 1029.72 12 1028 C13.16 1027.91 14.32 1027.83 15.52 1027.74 C18.68 1027.51 21.84 1027.26 25 1027 C26.32 1026.89 26.32 1026.89 27.67 1026.79 C31.57 1026.42 34.57 1025.89 38 1024 C37.73 1023.47 37.46 1022.94 37.18 1022.39 C18.77 986 15.09 948.25 14 908 C26.81 909.67 39.32 911.79 50.23 919.19 C52.87 921.27 52.87 921.27 56 921 C57.31 919.33 57.31 919.33 58.5 917.12 C64.09 908.34 73.23 899.93 83 896 C87.06 895.39 88.64 895.78 92.18 897.94 C93.28 898.8 94.37 899.67 95.44 900.56 C96.01 901.02 96.58 901.48 97.16 901.95 C104.11 907.6 109.57 913.15 114 921 C117.93 920.28 121.11 918.47 124.62 916.62 C132.82 912.45 140.2 910.19 149.31 908.93 C150.57 908.75 151.82 908.58 153.11 908.4 C154.07 908.27 155.02 908.13 156 908 C155.5 937.18 153.92 966.11 144.57 994.02 C143.64 996.82 143 999.01 143 1002 C150.13 1000.49 156.68 998 163.31 995.06 C164.46 994.56 164.46 994.56 165.63 994.04 C170.92 991.65 175.85 989.15 180 985 C183.21 972.88 177.36 960.82 172.96 949.74 C150.4 892.69 132.02 832.28 126 771 C125.85 769.45 125.85 769.45 125.69 767.86 C120.86 716.24 123.55 663.4 129.34 611.97 C129.98 606.32 130.52 600.66 131 595 C124.97 596.8 119.35 599.48 113.62 602.06 C60.98 625.44 5.53 637.42 -52 639 C-53.6 639.04 -53.6 639.04 -55.22 639.09 C-58.49 639.13 -61.74 639.08 -65 639 C-66.26 638.97 -66.26 638.97 -67.55 638.95 C-123.22 637.64 -176.45 624.56 -227.27 602.19 C-233.12 599.64 -239.06 597.33 -245 595 Z M-420 610 C-421.4 612.05 -421.4 612.05 -422 614 C-420.35 614 -418.7 614 -417 614 C-416.79 614.63 -416.58 615.26 -416.37 615.91 C-413.87 622.84 -410.53 629.3 -403.99 633.2 C-400.84 634.47 -398.36 634.35 -395 634 C-386.13 629.66 -381.97 620.57 -378 612 C-377.01 612 -376.02 612 -375 612 C-374.74 612.84 -374.48 613.69 -374.21 614.55 C-372.93 618.21 -371.39 621.66 -369.69 625.12 C-369.4 625.73 -369.12 626.34 -368.83 626.96 C-366.84 631.01 -364.84 633.62 -361 636 C-357.1 636.68 -353.5 635.81 -350.04 633.93 C-343.68 629.06 -340.94 621.8 -338.38 614.44 C-337.92 613.3 -337.47 612.17 -337 611 C-336.01 610.67 -335.02 610.34 -334 610 C-333.76 610.93 -333.76 610.93 -333.52 611.87 C-331.04 620.87 -327.22 630.67 -319.06 635.88 C-315.56 637.16 -314.43 637.42 -311 636 C-304.69 631.86 -301.9 626.83 -299.2 619.97 C-298.53 618.29 -297.77 616.64 -297 615 C-296.01 614.67 -295.02 614.34 -294 614 C-293.65 615.16 -293.65 615.16 -293.3 616.34 C-290.95 623.84 -288.69 630.8 -282.62 636.06 C-278.8 637.43 -276.88 637.27 -273 636 C-266.56 631.19 -264.42 624.39 -262.24 616.98 C-261 614 -261 614 -258.86 612.59 C-258.24 612.39 -257.63 612.2 -257 612 C-256.83 612.65 -256.66 613.3 -256.48 613.98 C-254.99 619.35 -253.48 623.62 -250 628 C-249.34 628.33 -248.68 628.66 -248 629 C-248.2 626.58 -248.44 624.17 -248.69 621.75 C-248.77 620.73 -248.77 620.73 -248.85 619.68 C-249.24 616.19 -249.73 614.29 -252.14 611.7 C-274.48 598.38 -307.14 601.66 -332.29 601.74 C-336.1 601.75 -339.92 601.74 -343.73 601.73 C-383.15 599.84 -383.15 599.84 -420 610 Z M136.81 613.21 C134.62 616.58 134.41 618.82 134.25 622.81 C134.19 623.97 134.14 625.14 134.08 626.33 C134.05 627.21 134.03 628.09 134 629 C139.39 624.66 140.97 619.49 143 613 C143.99 613 144.98 613 146 613 C146.44 614.38 146.44 614.38 146.88 615.78 C150.59 627.58 150.59 627.58 158.97 636.2 C162.37 637.54 164.53 637.02 168 636 C174.91 631.15 177.25 621.57 180 614 C180.99 614.33 181.98 614.66 183 615 C184.18 617.7 184.18 617.7 185.31 621.12 C187.5 627.14 189.95 632.98 196 636 C200.61 636.55 203.75 636.7 207.56 633.88 C213.41 628.27 217.83 618.94 219 611 C220.65 611 222.3 611 224 611 C224.09 611.63 224.17 612.26 224.26 612.91 C225.7 621.65 229.01 628.28 236.04 633.86 C239.59 635.93 242.93 636.53 247 636 C253.49 632.5 255.27 626.56 258 620 C259.29 617.31 260.65 614.66 262 612 C262.99 612 263.98 612 265 612 C265.04 612.8 265.08 613.61 265.12 614.44 C267.07 622.34 272.51 628.31 279 633 C282.16 634.58 284.5 634.34 288 634 C295.9 630.33 298.8 622.67 302 615 C302 614.34 302 613.68 302 613 C303.65 613 305.3 613 307 613 C306.34 609.95 306.34 609.95 304.27 608.94 C285.05 601.6 262.4 601.84 242.07 601.83 C240.58 601.83 239.09 601.83 237.59 601.82 C234.49 601.82 231.38 601.81 228.28 601.81 C225.15 601.81 222.02 601.81 218.89 601.79 C175.17 598.92 175.17 598.92 136.81 613.21 Z M307 613 C308 616 308 616 308 616 Z M-423 614 C-422 617 -422 617 -422 617 Z M308 616 C309 619 309 619 309 619 Z M-424 618 C-423 620 -423 620 -423 620 Z M309 619 C310 621 310 621 310 621 Z M220 621 C219.58 621.87 219.15 622.74 218.71 623.63 C211.92 636.98 211.92 636.98 206 640 C201.27 641.53 198.03 641.39 193.38 639.62 C189.65 637.16 187.17 633.71 184.58 630.12 C183.17 628.23 181.72 626.62 180 625 C179.7 625.66 179.39 626.33 179.08 627.01 C173.83 638.09 173.83 638.09 168 641 C163.5 641.64 159.33 641.67 155.38 639.25 C151.18 635.9 148.94 631.12 146.48 626.45 C145.99 625.64 145.5 624.83 145 624 C144.34 624 143.68 624 143 624 C141.7 625.69 141.7 625.69 140.5 627.81 C140.08 628.52 139.65 629.23 139.22 629.96 C138.82 630.63 138.41 631.31 138 632 C137.34 632.99 136.68 633.98 136 635 C134.66 640.49 135 645.12 135 651 C194.4 651 253.8 651 315 651 C312.51 635.8 312.51 635.8 306 623 C305.34 623 304.68 623 304 623 C302.72 624.71 301.5 626.47 300.31 628.25 C296.84 633.1 294.63 635.96 289 638 C284.1 638.73 280.32 638.62 275.81 636.5 C272.83 633.85 270.26 631.06 267.71 628 C265.9 625.89 263.99 623.94 262 622 C261.47 623.19 261.47 623.19 260.93 624.41 C254.97 637.22 254.97 637.22 249 640 C244.29 640.88 240.34 640.45 235.81 638.94 C228.87 634.15 224.7 628.52 221 621 C220.67 621 220.34 621 220 621 Z M-378 622 C-378.92 623.38 -379.81 624.78 -380.69 626.19 C-384.32 631.71 -388.35 636.3 -395 638 C-399.61 638.56 -402.97 638.51 -407.19 636.44 C-409.97 634.02 -412.28 631.53 -414.61 628.68 C-416.28 626.66 -418.11 624.82 -420 623 C-425.91 630.88 -429 641.13 -429 651 C-369.6 651 -310.2 651 -249 651 C-249.97 638.44 -250.96 633.33 -258 624 C-260.88 626.55 -262.85 629.26 -264.88 632.5 C-267.46 636.42 -269.63 638.99 -274 641 C-278.22 641.81 -281.19 641.35 -285.12 639.62 C-288.53 636.52 -290.49 633.25 -292.7 629.24 C-293.93 626.9 -293.93 626.9 -296 625 C-296.65 626.12 -296.65 626.12 -297.32 627.27 C-304.15 638.55 -304.15 638.55 -311.94 640.88 C-316.51 641.06 -320.05 640.46 -323.79 637.66 C-328.63 633.14 -331.83 627.77 -335 622 C-336.54 624.04 -338.07 626.09 -339.54 628.18 C-344.13 634.47 -348.58 638.68 -356.12 640.94 C-360.77 641.04 -363.76 639.96 -367.44 637.12 C-370.87 633.44 -373.12 628.82 -375.55 624.45 C-376.03 623.64 -376.51 622.83 -377 622 C-377.33 622 -377.66 622 -378 622 Z M-400.88 658.38 C-402.01 658.49 -403.15 658.6 -404.32 658.72 C-420.26 660.37 -420.26 660.37 -434 668 C-435.18 671.54 -435.3 674.82 -435.38 678.5 C-435.41 679.18 -435.45 679.85 -435.49 680.55 C-435.58 682.79 -435.58 682.79 -435 686 C-431.83 688.73 -430.35 688.99 -426.12 689.06 C-420.44 688.06 -416.89 684.57 -413.56 680.04 C-411.58 676.96 -409.92 673.84 -408.31 670.56 C-407 668 -407 668 -405 667 C-401.35 668.82 -400.66 674.18 -399.39 677.92 C-397.6 682.96 -395.57 686.98 -391.25 690.38 C-387.57 691.4 -384.55 691.27 -381 690 C-371.81 683.92 -368.23 676.43 -366 666 C-364.68 665.67 -363.36 665.34 -362 665 C-361.88 665.57 -361.75 666.14 -361.62 666.73 C-359.52 675 -355.38 684 -348.98 689.84 C-345.7 691.76 -342.6 691.93 -339 691 C-331 685.67 -327.92 676.98 -326 668 C-324.68 668 -323.36 668 -322 668 C-321.84 668.7 -321.68 669.4 -321.52 670.12 C-319.94 676.55 -317.98 681.7 -314 687 C-313.38 687.83 -312.76 688.65 -312.12 689.5 C-308.86 691.8 -306.91 691.66 -303 691 C-296.25 687.44 -293.39 680.93 -291 674 C-290.44 671.61 -290.16 669.46 -290 667 C-288.14 667.16 -288.14 667.16 -286 668 C-284.8 670.41 -284.8 670.41 -283.75 673.5 C-281.09 680.38 -277.29 686.95 -270.4 690.24 C-267.29 691.22 -266.04 691.26 -263 690 C-257.86 685.75 -255.87 680.64 -254.05 674.36 C-253 672 -253 672 -249 670 C-248.01 672.97 -247.02 675.94 -246 679 C-244.13 675.26 -245.1 670.97 -246 667 C-250.18 661.56 -258.6 660.56 -265.07 659.49 C-268.36 659.07 -271.64 658.71 -274.94 658.38 C-276.77 658.19 -276.77 658.19 -278.65 658 C-318.77 654.12 -360.79 654.29 -400.88 658.38 Z M132 666 C130.68 668.64 130.9 670.68 130.94 673.62 C130.95 674.63 130.96 675.63 130.96 676.66 C130.98 677.43 130.99 678.21 131 679 C133.46 676.54 134 674.29 135 671 C135.99 671 136.98 671 138 671 C138.35 671.94 138.7 672.88 139.07 673.85 C142.86 684.15 142.86 684.15 151 691 C154.6 691.46 156.14 690.66 158.98 688.48 C165.39 682.59 169.55 675.62 171 667 C172.91 667.22 172.91 667.22 175 668 C175.84 669.93 175.84 669.93 176.38 672.44 C178.19 679.27 181.23 686.28 187 690.69 C189.91 692.15 189.91 692.15 192.94 692.25 C199 689.78 202.03 685.27 204.55 679.36 C205.82 675.94 206.94 672.48 208 669 C209.88 669.18 209.88 669.18 212 670 C213.05 672.22 213.05 672.22 213.88 675.06 C215.83 680.96 218.43 686.88 223.98 690.18 C227.34 691.55 229.4 691.61 233 691 C239.34 686.53 242.58 678.5 245.89 671.73 C246.25 671 246.61 670.28 246.98 669.54 C247.3 668.88 247.62 668.22 247.94 667.55 C249 666 249 666 252 665 C252.09 665.63 252.17 666.26 252.26 666.91 C253.81 676.35 257.55 682.55 264.95 688.64 C268.01 690.67 270.36 691.14 274 691 C279.5 689.12 282.4 683.93 285 679 C285.9 676.37 286.64 673.78 287.26 671.07 C288 669 288 669 291 667 C293.27 669.08 294.54 670.87 295.75 673.69 C298.74 679.83 302.65 685.38 309.12 688.06 C312.77 688.94 314.54 689.28 318 688 C318.99 687.34 319.98 686.68 321 686 C321.98 679.77 321.44 672.79 319 667 C314.23 663.6 308.47 662.06 302.81 660.88 C302.04 660.71 301.26 660.54 300.46 660.37 C261.93 652.59 165.13 641.54 132 666 Z M-407 677 C-408.31 678.83 -408.31 678.83 -409.62 681.12 C-413.06 686.48 -417.31 690.16 -423 693 C-425.04 693.07 -427.08 693.08 -429.12 693.06 C-432.03 693.03 -432.03 693.03 -435 693 C-435 697.29 -435 701.58 -435 706 C-373.29 706 -311.58 706 -248 706 C-246.43 687.39 -246.43 687.39 -250 681 C-250.66 681 -251.32 681 -252 681 C-252.31 681.69 -252.63 682.37 -252.95 683.08 C-253.38 683.98 -253.81 684.88 -254.25 685.81 C-254.67 686.71 -255.09 687.6 -255.52 688.52 C-257.1 691.17 -258.37 692.42 -261 694 C-266.33 695.33 -269.99 695.42 -274.84 692.72 C-279.64 688.9 -283.28 683.84 -287 679 C-288.5 680.99 -289.99 682.99 -291.46 685 C-298.45 694.48 -298.45 694.48 -303 696 C-306.98 696.38 -309.42 696.27 -313.06 694.56 C-316.33 691.71 -318.36 688.8 -320.61 685.12 C-321.91 683.13 -323.26 681.61 -325 680 C-325.38 680.59 -325.75 681.18 -326.14 681.79 C-333.73 693.52 -333.73 693.52 -339.81 695.5 C-344.45 696.41 -347.99 695.43 -352 693 C-356.19 688.91 -358.82 684.07 -361.67 678.98 C-362.11 678.32 -362.55 677.67 -363 677 C-363.66 677 -364.32 677 -365 677 C-365.27 677.57 -365.54 678.14 -365.81 678.72 C-369.34 685.68 -373.71 690.53 -380.5 694.44 C-385.6 695.59 -389.38 695.71 -394.12 693.62 C-399.14 689.04 -402.03 683.05 -405 677 C-405.66 677 -406.32 677 -407 677 Z M248 677 C247.62 677.74 247.25 678.47 246.86 679.23 C243.32 685.99 240.42 691 233.69 694.94 C229.07 696.27 226.33 696 222 694 C216.28 690.43 213.63 686.1 211 680 C210.34 680 209.68 680 209 680 C207.14 682.96 205.52 686.01 203.85 689.08 C201.63 692.59 199.86 694.46 195.85 695.62 C195.12 695.7 194.38 695.79 193.62 695.88 C192.9 695.98 192.17 696.08 191.41 696.18 C186.74 695.83 183.76 693.86 180.7 690.41 C180.04 689.45 179.37 688.49 178.69 687.5 C178.01 686.54 177.33 685.58 176.64 684.59 C175 682 175 682 174 679 C170.42 680.19 169.8 681.31 167.62 684.31 C163.88 689.26 160.2 693.41 154 695 C148.85 695 147.01 694.97 143.25 691.38 C140.89 688.08 138.92 684.56 137 681 C136.01 681.66 135.02 682.32 134 683 C132.5 690.52 133 698.33 133 706 C195.04 706 257.08 706 321 706 C320.67 701.71 320.34 697.42 320 693 C317.53 693.12 317.53 693.12 315 693.25 C309.39 693.19 305.35 692.7 301 689 C298.45 685.91 296.15 682.79 293.88 679.48 C293.26 678.66 292.64 677.84 292 677 C291.34 677 290.68 677 290 677 C289.75 677.59 289.49 678.18 289.23 678.79 C283.82 691.21 283.82 691.21 277.89 694.27 C273.38 696.01 269.82 695.28 265.38 693.75 C259.73 690.83 256.53 687.72 253.31 682.25 C252.26 680.47 251.17 678.71 250 677 C249.34 677 248.68 677 248 677 Z M-438 711 C-438 721.56 -438 732.12 -438 743 C-429.13 738.57 -424.96 734.29 -421.63 724.94 C-421.42 724.3 -421.21 723.66 -421 723 C-419.68 723 -418.36 723 -417 723 C-416.35 724.41 -416.35 724.41 -415.68 725.85 C-410.74 737.15 -410.74 737.15 -401.06 744.06 C-395.94 743.96 -392.39 742.12 -388.44 738.94 C-384.17 733.8 -380.92 728 -378 722 C-377.01 722 -376.02 722 -375 722 C-374.62 723.09 -374.25 724.17 -373.86 725.29 C-373.35 726.73 -372.83 728.18 -372.31 729.62 C-371.95 730.69 -371.95 730.69 -371.57 731.79 C-369.43 737.68 -366.86 742.41 -361.19 745.56 C-356.78 746.17 -353.7 745.31 -350 743 C-344.4 738.05 -341.1 733.12 -339 726 C-338.41 724.27 -338.41 724.27 -337.81 722.5 C-337.41 721.26 -337.41 721.26 -337 720 C-336.01 720.33 -335.02 720.66 -334 721 C-332.82 723.41 -332.82 723.41 -331.69 726.5 C-329.02 733.25 -325.67 740.23 -320 745 C-315.43 746.12 -313.22 746.51 -308.88 744.69 C-302.39 738.63 -299.39 731.64 -298 723 C-296.14 723.12 -296.14 723.12 -294 724 C-292.76 726.66 -292.76 726.66 -291.69 730.06 C-289.49 736.3 -286.75 740.46 -282 745 C-281.67 745.33 -281.34 745.66 -281 746 C-278.03 746.5 -275.9 746.5 -273.22 745.01 C-266.77 740 -264 732.97 -261.38 725.44 C-260.92 724.3 -260.47 723.17 -260 722 C-259.01 721.67 -258.02 721.34 -257 721 C-256.79 722.3 -256.59 723.6 -256.38 724.94 C-255.17 730.38 -252.69 734.83 -249 739 C-247.02 739.99 -247.02 739.99 -245 741 C-245 731.1 -245 721.2 -245 711 C-308.69 711 -372.38 711 -438 711 Z M131 711 C131 720.9 131 730.8 131 741 C136.86 738.07 139.56 732.86 141.83 726.79 C142.28 725.21 142.65 723.6 143 722 C143.99 722 144.98 722 146 722 C146.3 722.93 146.61 723.86 146.92 724.82 C150.71 736.08 150.71 736.08 158.38 745 C162.19 746.45 164.1 746.28 168 745 C174.01 740.37 176.16 734.62 177.98 727.44 C178.32 726.64 178.65 725.83 179 725 C181.11 724.15 181.11 724.15 183 724 C183.29 724.86 183.58 725.71 183.88 726.6 C187.75 737.48 187.75 737.48 195.97 745.18 C199.23 746.5 201.64 745.83 205 745 C209.9 741.9 211.78 738.15 214.12 733.06 C214.79 731.66 215.46 730.25 216.13 728.85 C216.45 728.19 216.76 727.53 217.08 726.85 C218.26 724.48 219.59 722.23 221 720 C223 721 223 721 223.86 723.44 C224.15 724.47 224.45 725.5 224.75 726.56 C227.38 734.66 230.46 739.9 238 744.12 C241.21 745.54 242.71 746.02 246.25 745.75 C253.93 740.86 256.22 734.36 258.73 725.91 C260 723 260 723 262.15 722.09 C262.76 722.06 263.37 722.03 264 722 C264.36 722.79 264.73 723.57 265.1 724.38 C270.25 735.48 270.25 735.48 279.5 743 C283.37 744.11 285.2 744.29 289 743 C294.09 739.37 296.64 735.75 299.38 730.19 C299.73 729.49 300.08 728.8 300.45 728.09 C301.31 726.4 302.16 724.7 303 723 C304.83 723.14 304.83 723.14 307 724 C308.42 726.51 308.42 726.51 309.75 729.69 C312.44 735.44 315.31 739.08 321 742 C321.66 742 322.32 742 323 742 C323.33 731.77 323.66 721.54 324 711 C260.31 711 196.62 711 131 711 Z M-378 731 C-378.9 732.36 -379.77 733.74 -380.62 735.12 C-384.23 740.6 -388.02 744.54 -393.94 747.44 C-399.38 748.44 -403.89 748.02 -408.56 745.06 C-413.05 741.57 -415.97 736.74 -419 732 C-419.56 732.72 -420.11 733.44 -420.69 734.19 C-423.88 738.07 -427.23 741.43 -431.25 744.44 C-434.2 746.78 -434.2 746.78 -435.06 750.12 C-435.29 752.96 -435.29 752.96 -433.75 754.61 C-417.04 767.92 -368.79 760.3 -348.71 760.26 C-342.71 760.25 -336.7 760.26 -330.7 760.27 C-287.93 763.59 -287.93 763.59 -248 754 C-248.03 747.82 -248.96 744.15 -253.33 739.7 C-255.39 737.6 -257.18 735.32 -259 733 C-259.51 733.89 -260.02 734.78 -260.54 735.7 C-261.23 736.89 -261.93 738.07 -262.62 739.25 C-262.96 739.84 -263.29 740.42 -263.63 741.03 C-266.85 746.43 -270.43 749.31 -276.5 750.94 C-281.34 751.02 -284.08 749.82 -287.6 746.48 C-291.13 742.63 -293.2 738.89 -295 734 C-296.87 736.3 -298.71 738.59 -300.43 741.01 C-305.67 748.35 -305.67 748.35 -310 750 C-316.23 750.94 -319.8 749.66 -324.89 745.99 C-327.92 743.14 -329.79 739.93 -331.71 736.27 C-332.94 734.11 -334.16 732.65 -336 731 C-336.53 731.98 -336.53 731.98 -337.07 732.98 C-341.72 741.22 -346.74 747.19 -356 750 C-360.89 749.83 -364.03 748.8 -368 746 C-369.7 743.7 -369.7 743.7 -371.12 741.12 C-371.84 739.86 -371.84 739.86 -372.57 738.57 C-373.04 737.72 -373.51 736.87 -374 736 C-374.97 734.31 -375.96 732.64 -377 731 C-377.33 731 -377.66 731 -378 731 Z M220 731 C219.48 731.96 218.96 732.93 218.43 733.92 C217.72 735.2 217.02 736.47 216.31 737.75 C215.97 738.38 215.63 739.02 215.28 739.67 C212.68 744.34 209.89 747.55 205 750 C200.41 750.56 196.93 750.46 192.75 748.38 C187.89 744.18 184.64 739.84 182 734 C179.31 737.5 176.95 741.15 174.6 744.88 C172.33 747.89 170.43 749.71 166.67 750.47 C161.44 750.53 157.71 750.15 153.6 746.77 C150.99 743.88 149.13 740.62 147.26 737.21 C146.07 734.89 146.07 734.89 144 733 C143.36 733.85 142.72 734.71 142.07 735.59 C141.23 736.71 140.4 737.82 139.56 738.94 C139.14 739.5 138.72 740.07 138.29 740.65 C135.11 744.89 135.11 744.89 134 746 C133.93 747.52 133.92 749.04 133.94 750.56 C133.96 752.04 133.98 753.52 134 755 C141.62 757.09 148.99 758.62 156.88 759.17 C157.99 759.25 159.1 759.33 160.25 759.41 C180.03 760.61 199.89 760.3 219.7 760.26 C225.78 760.25 231.86 760.26 237.94 760.27 C267.55 760.44 267.55 760.44 297.12 759.17 C298.11 759.1 299.09 759.03 300.1 758.96 C306.92 758.36 313.4 756.81 320 755 C320.41 750.78 320.6 748.74 317.88 745.38 C315.91 743.75 313.93 742.15 311.94 740.56 C308.83 737.85 307.11 735.49 305 732 C304.26 732.96 304.26 732.96 303.5 733.94 C302.67 734.95 301.85 735.96 301 737 C300.39 737.75 299.79 738.5 299.16 739.27 C292.39 747.31 292.39 747.31 287 748 C280.33 747.76 275.49 745.55 270.89 740.84 C269.5 739.28 268.14 737.71 266.8 736.12 C265.27 734.32 263.7 732.64 262 731 C261.55 731.96 261.11 732.93 260.64 733.92 C260.03 735.2 259.42 736.47 258.81 737.75 C258.52 738.38 258.23 739.02 257.93 739.67 C255.61 744.46 253.08 747.85 247.89 749.79 C241.24 750.67 236.41 748.91 231 745 C228.64 742.53 226.8 739.9 225 737 C223.68 734.99 222.35 732.99 221 731 C220.67 731 220.34 731 220 731 Z M-435 766 C-434.25 769.77 -433.43 772.5 -431.87 775.92 C-431 778 -431 778 -430.16 780.61 C-427.99 787.34 -425.23 792.18 -420 797 C-416.52 798.74 -412.81 798.45 -409 798 C-400.37 793.86 -395.16 785.28 -391 777 C-390.01 777.33 -389.02 777.66 -388 778 C-387.01 780.04 -387.01 780.04 -386.12 782.62 C-383.94 788.42 -381.52 792.95 -376.62 796.94 C-373.18 798.33 -370.69 798.4 -367 798 C-358.01 793.37 -352.92 785.02 -349 776 C-345.83 778.59 -344.98 781.43 -343.69 785.25 C-341.49 791.21 -338.99 797.01 -333 800 C-329.02 800.38 -326.6 800.3 -323 798.5 C-314.77 791.64 -311.57 785.45 -309 775 C-308.01 775 -307.02 775 -306 775 C-305.36 776.59 -305.36 776.59 -304.71 778.22 C-299.63 790.84 -299.63 790.84 -290.11 800.26 C-287.31 801.24 -285.81 800.91 -283 800 C-277.05 796.18 -273.61 791.45 -271 785 C-270.42 783.67 -269.83 782.33 -269.25 781 C-268.84 780.01 -268.43 779.02 -268 778 C-267.01 778.33 -266.02 778.66 -265 779 C-263.97 781.51 -263.97 781.51 -263.06 784.69 C-260.78 791.97 -258.41 796.5 -252 801 C-251.67 801 -251.34 801 -251 801 C-250.33 796.48 -249.66 791.96 -249 787.44 C-248.81 786.16 -248.62 784.88 -248.42 783.57 C-248.24 782.33 -248.06 781.09 -247.88 779.81 C-247.62 778.1 -247.62 778.1 -247.37 776.36 C-246.87 772.4 -246.87 772.4 -247 766 C-309.04 766 -371.08 766 -435 766 Z M133 766 C133.73 778.49 133.73 778.49 135 790.88 C135.08 791.55 135.16 792.22 135.25 792.92 C135.71 796.58 135.71 796.58 137 800 C139.56 799.63 140.75 799.26 142.56 797.36 C146.62 791.23 148.97 785.05 151 778 C151.99 778 152.98 778 154 778 C154.31 778.8 154.63 779.59 154.95 780.41 C159.78 792.38 159.78 792.38 169 801 C173.26 801.49 173.26 801.49 177 800 C183.37 794.2 186.77 786.83 190 779 C190.65 777.66 191.32 776.32 192 775 C192.99 775.33 193.98 775.66 195 776 C195.74 777.97 195.74 777.97 196.31 780.5 C198.38 788.06 202.31 794.66 209 799 C212.64 800.21 215.18 800.4 219 800 C226.35 794.98 230.09 784.41 232 776 C233.88 776.25 233.88 776.25 236 777 C237.05 778.79 237.05 778.79 237.88 781.06 C240.8 788.23 244.87 794.51 252 798 C256.28 798.61 258.36 798.34 262.19 796.31 C266.9 792.44 269.61 788.15 272.25 782.69 C272.77 781.62 273.29 780.55 273.83 779.45 C274.21 778.64 274.6 777.83 275 777 C278 778 278 778 279.25 780.11 C279.64 780.98 280.03 781.85 280.44 782.75 C283.85 789.85 287.62 794.82 295 798 C298.16 798.66 300.85 798.75 304 798 C306.92 795.92 306.92 795.92 309 793 C309.7 792.22 310.4 791.43 311.12 790.62 C314.73 785.58 316.44 779.88 318.25 774.02 C319 772 319 772 321 769 C321 768.01 321 767.02 321 766 C258.96 766 196.92 766 133 766 Z M-391 786 C-391.52 786.85 -392.03 787.69 -392.56 788.56 C-396.74 794.95 -402.71 799.79 -410 802 C-416.5 802.72 -420.43 801.32 -426 798 C-425.77 799.44 -425.52 800.88 -425.25 802.31 C-425.11 803.11 -424.97 803.91 -424.83 804.74 C-423.76 807.66 -422.68 808.47 -420 810 C-399.54 816.89 -375.36 815.29 -354.12 815.2 C-350.66 815.19 -347.19 815.19 -343.72 815.19 C-337.2 815.18 -330.68 815.16 -324.15 815.14 C-316.71 815.12 -309.26 815.11 -301.82 815.1 C-286.55 815.08 -271.27 815.04 -256 815 C-255.93 813.42 -255.88 811.84 -255.83 810.26 C-255.8 809.38 -255.77 808.5 -255.74 807.59 C-256.12 803.8 -257.91 801.78 -260.33 798.96 C-262.94 795.89 -264.93 792.45 -267 789 C-268.56 791.07 -270.1 793.15 -271.61 795.25 C-277.69 803.51 -277.69 803.51 -283 805 C-287.64 805.25 -291.02 804.56 -295.06 802.25 C-298.59 798.94 -300.91 794.55 -303.29 790.37 C-304.14 788.88 -305.07 787.44 -306 786 C-306.66 786 -307.32 786 -308 786 C-308.27 786.57 -308.54 787.14 -308.81 787.72 C-312.42 794.84 -317.4 800.95 -325 804 C-327.4 804.3 -327.4 804.3 -329.94 804.31 C-331.19 804.34 -331.19 804.34 -332.46 804.36 C-336.68 803.76 -339.19 802.08 -341.73 798.7 C-342.21 797.85 -342.69 797 -343.19 796.12 C-343.68 795.28 -344.16 794.44 -344.67 793.57 C-345.95 791.09 -347.01 788.61 -348 786 C-348.66 786 -349.32 786 -350 786 C-351.38 787.86 -351.38 787.86 -352.75 790.19 C-356.22 795.58 -360 799.44 -366 802 C-371.28 802.93 -375.76 802.68 -380.25 799.62 C-384.13 796.35 -386.48 792.4 -388.87 787.98 C-389.24 787.32 -389.62 786.67 -390 786 C-390.33 786 -390.66 786 -391 786 Z M192 786 C191.24 787.32 191.24 787.32 190.46 788.67 C182.28 802.57 182.28 802.57 175 805 C169.95 805.37 167 805.18 163 802 C159.14 798.02 155.96 793.67 153 789 C151.26 791.26 149.64 793.55 148.06 795.94 C146 799 146 799 143.81 801.5 C141.7 804.42 141.16 806.42 141 810 C150.23 819.23 180.61 815.16 193.16 815.17 C195.27 815.17 197.39 815.17 199.51 815.18 C203.92 815.18 208.34 815.19 212.76 815.19 C218.35 815.19 223.94 815.2 229.53 815.22 C233.89 815.23 238.26 815.23 242.63 815.23 C244.69 815.23 246.75 815.23 248.8 815.24 C281.18 817.18 281.18 817.18 310 807 C310.9 804.75 310.9 804.75 311.25 802.31 C311.47 801.1 311.47 801.1 311.7 799.86 C311.8 799.25 311.9 798.63 312 798 C311.09 798.66 310.18 799.32 309.25 800 C304.04 802.92 298.8 803.09 293 802 C286.51 798.99 282.03 794.44 278.16 788.5 C277.77 788.01 277.39 787.51 277 787 C276.34 787 275.68 787 275 787 C273.41 788.95 273.41 788.95 271.88 791.38 C271.34 792.19 270.8 793 270.24 793.84 C268.83 795.87 268.83 795.87 269 798 C267.67 798.67 266.33 799.33 265 800 C264.38 800.35 263.76 800.69 263.12 801.05 C258.88 802.95 254.3 802.67 249.88 801.38 C245.01 799.24 241.95 796.11 238.64 792 C236.88 789.86 234.98 787.93 233 786 C232.55 786.96 232.11 787.93 231.64 788.92 C231.03 790.2 230.42 791.47 229.81 792.75 C229.52 793.38 229.23 794.02 228.93 794.67 C226.93 798.8 225.02 801.54 221 804 C215.37 805.31 210.2 804.61 205.25 801.62 C201.03 798.46 198.24 794.59 195.41 790.17 C194.05 787.91 194.05 787.91 192 786 Z M-422 820 C-420.31 828.43 -420.31 828.43 -416 834 C-415.34 835.61 -414.72 837.24 -414.12 838.88 C-412.04 844.37 -409.19 849.15 -403.99 852.16 C-401.11 853.37 -399.1 853.37 -396 853 C-387.55 848.68 -381.96 840.86 -379 832 C-379 831.34 -379 830.68 -379 830 C-377.18 830.55 -377.18 830.55 -375 832 C-373.89 834.41 -372.98 836.69 -372.12 839.19 C-369.81 845.48 -367.39 851.8 -361 855 C-356.03 855.71 -352.97 854.41 -348.96 851.66 C-341.87 845.64 -339.71 837.85 -338 829 C-334.67 830.36 -333.43 831.44 -332.04 834.74 C-331.71 835.48 -331.38 836.21 -331.05 836.97 C-330.72 837.75 -330.4 838.52 -330.06 839.31 C-327.4 845.6 -324.91 850.35 -319.06 854.31 C-316.16 855.28 -314.04 855.37 -311 855 C-303.33 850.78 -299.64 840.93 -297 833 C-296.01 833 -295.02 833 -294 833 C-293.78 833.76 -293.56 834.52 -293.34 835.31 C-289.92 846.73 -289.92 846.73 -282.02 855.24 C-278.62 856.52 -276.46 856.01 -273 855 C-266.64 849.91 -264.09 842.13 -261.5 834.69 C-260 831 -260 831 -257.88 828.94 C-255.24 826.6 -255.24 826.6 -255 820 C-310.11 820 -365.22 820 -422 820 Z M141 820 C141.27 827.32 141.27 827.32 143.44 830 C144.97 831.18 144.97 831.18 147 831 C147.1 831.63 147.2 832.26 147.3 832.91 C148.82 841.65 151.09 848.29 158.27 853.86 C160.66 855.43 162.12 856.15 165 856 C170.53 853.35 173.44 849.41 176 844 C176.82 841.35 177.53 838.71 178.13 836 C178.56 835.01 178.56 835.01 179 834 C181.09 833.21 181.09 833.21 183 833 C183.28 833.85 183.56 834.69 183.85 835.56 C186.48 843.01 189.47 851.24 197 855 C201.3 855.5 203.35 855.44 206.97 852.98 C210.51 849.86 212.27 846.19 214.19 841.94 C218.47 832.74 218.47 832.74 221 830 C221.66 830 222.32 830 223 830 C223.22 830.77 223.44 831.55 223.66 832.34 C226.31 841.04 229.87 849.16 238 854 C241.97 855.17 244.74 855.6 248.56 853.79 C255.14 848.96 258.53 839.57 261 832 C261 831.34 261 830.68 261 830 C264 831 264 831 265.54 833.91 C266.1 835.15 266.64 836.39 267.19 837.62 C270.35 844.41 274.13 849.56 281 853 C284.5 853.56 286.95 853.62 290.06 851.79 C295.55 847.36 298.17 842.34 301 836 C301.52 835.15 302.03 834.31 302.56 833.44 C306.43 827.07 306.43 827.07 308 820 C252.89 820 197.78 820 141 820 Z M-378 841 C-379.25 842.73 -380.48 844.49 -381.69 846.25 C-385.61 851.72 -388.55 854.85 -395 857 C-396.89 857.07 -398.79 857.08 -400.69 857.06 C-401.68 857.05 -402.68 857.04 -403.7 857.04 C-404.84 857.02 -404.84 857.02 -406 857 C-405.49 860.74 -404.94 862.61 -402 865 C-394.51 868.01 -386.51 868.67 -378.54 869.17 C-376.78 869.29 -376.78 869.29 -375 869.41 C-363.3 870.15 -351.61 870.3 -339.89 870.26 C-336.43 870.25 -332.98 870.26 -329.52 870.27 C-299.19 871.39 -299.19 871.39 -270 865 C-267.07 861.86 -266.48 859.24 -266 855 C-267.14 855.99 -267.14 855.99 -268.31 857 C-272.87 860 -277.76 859.98 -283 859 C-289.15 855.95 -292.13 849.96 -295 844 C-295.66 844 -296.32 844 -297 844 C-298.45 846.12 -298.45 846.12 -299.88 848.75 C-302.5 853.44 -304.73 857.24 -310 859 C-314.72 859.5 -318.76 859.51 -323.19 857.69 C-326.67 854.36 -328.94 850.7 -331.39 846.56 C-332.78 844.36 -334.07 842.73 -336 841 C-336.4 841.72 -336.8 842.45 -337.21 843.2 C-341.73 850.88 -346.39 856.13 -355 859 C-360.03 859.37 -363.05 859.24 -367 856 C-370.99 851.39 -374.1 846.35 -377 841 C-377.33 841 -377.66 841 -378 841 Z M262 840 C261.24 841.55 261.24 841.55 260.46 843.14 C259.77 844.51 259.07 845.88 258.38 847.25 C258.04 847.93 257.71 848.61 257.37 849.32 C254.99 853.94 252.75 856.53 248 859 C241.73 859.81 237.14 858.74 232 855 C227.6 850.76 224.04 846.3 221 841 C218.44 844.06 216.21 847.21 214.06 850.56 C211.07 855.06 208.49 858.15 203.25 859.94 C198.64 860.03 195.02 859.3 191 857 C188.29 854.23 186.15 851.21 184 848 C183.01 846.66 182.01 845.33 181 844 C180.56 844.75 180.13 845.5 179.68 846.27 C173.26 856.87 173.26 856.87 168 859 C162.86 859.64 158.54 859.73 153.81 857.5 C153.21 857 152.62 856.51 152 856 C152.29 860.27 152.29 860.27 154.7 863.6 C162.28 868.22 172.38 868.59 181.04 869.17 C182.71 869.29 182.71 869.29 184.42 869.41 C197.07 870.24 209.71 870.31 222.38 870.25 C223.57 870.25 224.77 870.24 226 870.24 C239.62 870.2 253.22 870.12 266.81 869.19 C268.37 869.08 268.37 869.08 269.96 868.98 C280.81 868.28 280.81 868.28 289.74 863.04 C291 861 291.58 859.35 292 857 C291.21 857.05 290.43 857.09 289.62 857.14 C283.05 857.37 278.07 857.48 273 853 C270.5 850.45 268.23 847.79 266 845 C264.91 843.64 264.91 843.64 263.79 842.25 C263.2 841.5 262.61 840.76 262 840 Z M-401 875 C-400.24 876.94 -399.47 878.88 -398.69 880.81 C-398.26 881.89 -397.83 882.97 -397.39 884.08 C-396.15 886.69 -395.18 888.17 -393 890 C-392.67 889.01 -392.34 888.02 -392 887 C-389.94 886.31 -389.94 886.31 -388 886 C-387.74 886.98 -387.74 886.98 -387.48 887.98 C-385.33 895.75 -382.75 901.2 -376 906 C-372.4 907.8 -368.9 907.83 -365 907 C-358.51 902.83 -355.05 896.04 -351.64 889.34 C-350.83 888.18 -350.83 888.18 -350 887 C-348.68 887 -347.36 887 -346 887 C-345.67 888.14 -345.67 888.14 -345.34 889.31 C-343.19 896.28 -340.7 902.35 -336 908 C-332.78 909.61 -329.49 909.45 -326 909 C-319.44 905.79 -314.32 900.37 -311.67 893.59 C-310.69 890.41 -309.79 887.23 -309 884 C-308.01 884 -307.02 884 -306 884 C-305.59 885.05 -305.18 886.1 -304.75 887.18 C-299.5 900.64 -299.5 900.64 -289 910 C-285.31 910.49 -283.61 910.44 -280.57 908.23 C-276.64 904.06 -275.41 898.35 -273.75 893 C-273.4 891.92 -273.05 890.84 -272.69 889.73 C-270.47 882.96 -270.47 882.96 -269 876 C-270.02 874.76 -270.02 874.76 -272.17 874.88 C-273.62 874.88 -273.62 874.88 -275.09 874.88 C-276.2 874.88 -277.3 874.88 -278.44 874.88 C-280.27 874.88 -280.27 874.88 -282.14 874.89 C-283.42 874.89 -284.69 874.89 -286.01 874.89 C-289.53 874.89 -293.04 874.89 -296.55 874.9 C-300.22 874.9 -303.89 874.91 -307.56 874.91 C-314.51 874.91 -321.47 874.92 -328.42 874.93 C-336.33 874.94 -344.24 874.94 -352.16 874.95 C-368.44 874.96 -384.72 874.98 -401 875 Z M156 875 C154.42 881.3 157.1 886.47 159.12 892.5 C159.52 893.74 159.91 894.97 160.31 896.25 C160.71 897.43 161.1 898.62 161.51 899.84 C161.87 900.93 162.22 902.01 162.59 903.13 C164.24 906.49 165.86 908 169 910 C173.3 910.16 176.16 909.22 179.56 906.69 C185.76 900.91 189.15 892.14 191 884 C192.89 884.12 192.89 884.12 195 885 C195.98 887.62 195.98 887.62 196.75 891 C198.79 898.35 202.34 904.19 209 908.21 C212.32 909.52 215.54 909.67 219 909 C221.87 906.96 221.87 906.96 224 904 C224.68 903.13 225.36 902.27 226.06 901.38 C228.77 896.66 232 890.56 232 885 C235.96 886.47 237.01 888.39 238.81 892.12 C242 898.26 245.54 903.84 251.5 907.56 C256.39 908.42 259.8 907.71 264.06 905.19 C269.09 900.61 271.89 893.33 274 887 C275.32 887 276.64 887 278 887 C278.99 888.49 278.99 888.49 280 890 C281.17 887.69 282.34 885.38 283.5 883.06 C284 882.07 284 882.07 284.51 881.06 C286.24 878.17 286.24 878.17 287 875 C243.77 875 200.54 875 156 875 Z M-349 895 C-350.21 896.72 -351.39 898.45 -352.56 900.19 C-356.09 905.06 -359.2 908.99 -365 911 C-371.4 912.02 -376.32 910.96 -382 908 C-380.7 913.07 -379.22 915.85 -375 919 C-364.1 923.32 -353.66 924.16 -342.08 924.17 C-340.38 924.17 -340.38 924.17 -338.64 924.18 C-336.25 924.18 -333.86 924.19 -331.47 924.19 C-327.84 924.19 -324.22 924.21 -320.59 924.22 C-318.26 924.23 -315.92 924.23 -313.58 924.23 C-311.98 924.24 -311.98 924.24 -310.35 924.25 C-297.67 924.65 -297.67 924.65 -286.13 920.68 C-284.63 918.78 -284.63 918.78 -285 915 C-286.22 914.75 -287.43 914.5 -288.69 914.25 C-295.03 912.6 -297.8 909.54 -301.12 904 C-301.6 903.15 -302.08 902.31 -302.57 901.44 C-303.91 899.15 -305.37 897.08 -307 895 C-307.56 895.88 -308.11 896.76 -308.69 897.67 C-313.46 905.01 -317.45 911.13 -326.25 913.64 C-330.8 914.47 -334.38 914.22 -338.37 911.57 C-343.02 907.09 -345.73 900.95 -348 895 C-348.33 895 -348.66 895 -349 895 Z M192 895 C191.13 896.43 190.26 897.87 189.42 899.32 C181.68 912.66 181.68 912.66 175.01 914.57 C173.06 914.88 173.06 914.88 170 915 C170.55 917.98 170.55 917.98 172 921 C179.73 924.86 189.59 924.17 198.03 924.2 C199.18 924.21 200.33 924.21 201.51 924.22 C203.94 924.23 206.37 924.24 208.8 924.24 C212.46 924.25 216.12 924.28 219.79 924.31 C241.61 924.8 241.61 924.8 262 918 C264.93 914.91 266.62 912.02 268 908 C267.07 908.5 266.14 908.99 265.19 909.5 C260.22 911.61 255.3 911.7 250 911 C245.12 908.75 242.09 905.06 238.71 901 C236.9 898.89 234.99 896.94 233 895 C232.72 895.8 232.44 896.59 232.15 897.41 C229.67 903.99 227.51 909.67 221 913 C216.31 914.55 212.4 914.51 207.88 912.5 C200.56 908.24 196.36 902.65 193 895 C192.67 895 192.34 895 192 895 Z M-211.81 914.19 C-218.31 920.74 -222.04 928.75 -226 937 C-226.52 936.6 -227.04 936.2 -227.58 935.79 C-229.7 934.17 -231.85 932.58 -234 931 C-234.67 930.5 -235.35 929.99 -236.04 929.48 C-243.05 924.51 -252.26 919 -261 919 C-262.2 958.09 -253.71 1001.12 -230 1033 C-229.61 1033.54 -229.21 1034.08 -228.81 1034.63 C-217.59 1050.85 -217.59 1050.85 -202.17 1062.12 C-197.59 1062.47 -194.63 1061.12 -191.12 1058.25 C-189.73 1056.85 -188.36 1055.43 -187 1054 C-186.06 1053.12 -185.12 1052.23 -184.15 1051.32 C-152.6 1021.52 -139.18 974.81 -137.93 932.54 C-137.85 928.03 -137.88 923.52 -138 919 C-151.92 920.79 -161.85 927.89 -172 937 C-173.89 934.16 -175.24 931.4 -176.69 928.31 C-181.64 918.41 -188.47 911.71 -198 906 C-203.73 906 -207.76 910.49 -211.81 914.19 Z M72.73 914.13 C67.33 919.72 59 929.75 59 938 C58.32 937.42 57.64 936.84 56.95 936.24 C47.98 928.72 38.63 921.69 27 919 C25.66 919.29 24.32 919.62 23 920 C23.9 938.56 25.21 956.76 29 975 C29.15 975.71 29.29 976.42 29.44 977.15 C35.72 1006.21 51.16 1031.34 71 1053 C72.19 1054.31 72.19 1054.31 73.41 1055.66 C76.96 1059.22 79.84 1061.52 84.94 1062.06 C91.7 1061.46 95.58 1056.73 100 1052 C100.84 1051.15 101.67 1050.29 102.54 1049.41 C135.75 1014.45 146.89 965.93 146 919 C133.24 921.7 124.65 925.87 115.25 934.89 C113 937 113 937 111 938 C110.84 937.45 110.68 936.91 110.52 936.35 C106.57 923.57 98.95 912.63 87 906 C80.6 906 77.25 909.89 72.73 914.13 Z M-373 930 C-371.73 932.23 -370.45 934.47 -369.18 936.7 C-368.82 937.33 -368.46 937.96 -368.09 938.6 C-365.38 943.36 -362.62 948.08 -359.75 952.75 C-359.34 953.43 -358.94 954.12 -358.52 954.82 C-355.66 959.48 -355.66 959.48 -351 962 C-342.8 955.66 -339.98 948.79 -337 939 C-336.01 939.33 -335.02 939.66 -334 940 C-332.61 942.88 -332.61 942.88 -331.19 946.56 C-328.38 953.51 -325.33 959.18 -319.56 964.06 C-315.72 965.47 -313.91 965.33 -310 964 C-302.74 958.24 -299.77 950.61 -297 942 C-296.01 942 -295.02 942 -294 942 C-293.01 942.99 -293.01 942.99 -292 944 C-290.35 939.71 -288.7 935.42 -287 931 C-291.11 929.97 -294.79 929.87 -298.98 929.89 C-299.78 929.89 -300.58 929.89 -301.41 929.89 C-304.05 929.89 -306.69 929.89 -309.33 929.9 C-311.16 929.9 -312.99 929.91 -314.83 929.91 C-319.65 929.91 -324.47 929.92 -329.29 929.93 C-334.21 929.94 -339.13 929.95 -344.05 929.95 C-353.7 929.96 -363.35 929.98 -373 930 Z M173 930 C173.48 931.6 173.96 933.21 174.44 934.81 C174.7 935.71 174.97 936.6 175.25 937.52 C175.8 939.35 176.39 941.18 177 943 C178.98 942.67 180.96 942.34 183 942 C183.21 942.76 183.42 943.52 183.63 944.31 C185.92 951.98 188.88 959.87 196.04 964.25 C199.07 965.41 200.91 964.93 204 964 C212.77 958.34 216.62 948.82 219 939 C220.32 939 221.64 939 223 939 C223.14 939.69 223.27 940.38 223.41 941.09 C225.11 948.5 227.88 953.41 233 959 C233.48 959.6 233.97 960.2 234.47 960.81 C235.93 962.23 235.93 962.23 237.92 961.82 C240.62 960.76 241.3 959.58 242.8 957.13 C243.3 956.33 243.8 955.54 244.32 954.71 C244.83 953.86 245.34 953 245.88 952.12 C246.41 951.27 246.94 950.41 247.48 949.52 C251.19 943.46 254.76 937.33 258 931 C254.33 929.78 250.95 929.87 247.13 929.89 C245.93 929.89 245.93 929.89 244.71 929.89 C242.06 929.89 239.42 929.89 236.77 929.9 C234.94 929.9 233.1 929.91 231.27 929.91 C226.44 929.91 221.61 929.92 216.78 929.93 C211.86 929.94 206.93 929.95 202 929.95 C192.33 929.96 182.67 929.98 173 930 Z M-336 950 C-336.94 951.57 -337.86 953.15 -338.75 954.75 C-341.08 958.74 -343.21 961.29 -347 964 C-348.32 966.82 -348.32 966.82 -347.2 968.74 C-346.56 969.69 -346.56 969.69 -345.89 970.67 C-345.41 971.39 -344.93 972.11 -344.43 972.85 C-343.9 973.62 -343.36 974.39 -342.81 975.19 C-342 976.38 -342 976.38 -341.18 977.59 C-331.94 991.48 -331.94 991.48 -321 1004 C-319.22 1000.18 -317.44 996.35 -315.67 992.53 C-315.06 991.23 -314.46 989.94 -313.86 988.64 C-312.42 985.55 -310.98 982.46 -309.55 979.36 C-308.59 977.29 -307.63 975.22 -306.65 973.15 C-306.28 972.35 -305.9 971.54 -305.52 970.71 C-305.19 970.03 -304.87 969.35 -304.54 968.65 C-303.75 966.9 -303.75 966.9 -305 965 C-305.64 965.49 -306.28 965.99 -306.94 966.5 C-311.07 968.52 -314.48 968.58 -319 968 C-326.49 965.15 -331.45 956.82 -335 950 C-335.33 950 -335.66 950 -336 950 Z M220 950 C218.36 952.65 216.78 955.32 215.23 958.03 C212.05 963.4 208.16 967.42 202 969 C197.66 968.92 193.73 968.33 190 966 C191.47 970.66 193.28 975.12 195.26 979.59 C195.57 980.29 195.87 980.99 196.19 981.71 C197.17 983.93 198.15 986.15 199.12 988.38 C199.79 989.89 200.46 991.4 201.12 992.92 C202.74 996.61 204.37 1000.31 206 1004 C209.34 1001.48 211.9 999.1 214.27 995.66 C214.85 994.83 215.42 994 216.01 993.14 C216.61 992.27 217.2 991.4 217.81 990.5 C218.43 989.61 219.04 988.71 219.67 987.79 C220.89 986.01 222.11 984.23 223.32 982.45 C224.77 980.34 226.24 978.24 227.73 976.16 C228.46 975.11 229.19 974.07 229.94 973 C230.57 972.11 231.19 971.23 231.84 970.31 C233.18 968.12 233.18 968.12 232.9 965.93 C231.81 963.58 230.46 962.01 228.69 960.12 C226.45 957.68 224.42 955.29 222.62 952.5 C222.09 951.67 221.55 950.85 221 950 C220.67 950 220.34 950 220 950 Z " fill="#000000" transform="translate(744,70)"/>
<path d="M0 0 C1.01 0.84 2.02 1.69 3.05 2.56 C41.79 36.03 57.89 97.08 69.49 145.15 C69.96 147.07 69.96 147.07 71 149 C71.18 148.28 71.36 147.57 71.54 146.83 C79.22 116.55 88.11 86.52 101 58 C101.56 56.74 101.56 56.74 102.13 55.45 C117.06 21.77 138.59 -5.42 173.68 -19.15 C189.66 -25.02 205.68 -27.41 222.69 -27.31 C223.39 -27.31 224.09 -27.31 224.82 -27.31 C235.8 -27.25 246.32 -26.68 257 -24 C257.76 -23.82 258.52 -23.65 259.3 -23.46 C288.61 -16.46 316.11 1.52 335 25 C335.73 25.88 336.47 26.77 337.22 27.68 C360.98 57.27 377.28 94.02 385 131 C385.2 131.97 385.41 132.94 385.62 133.94 C388.41 147.62 389.77 161.05 390 175 C390.03 176.23 390.06 177.45 390.09 178.72 C390.13 182.15 390.08 185.57 390 189 C389.99 189.71 389.97 190.42 389.96 191.15 C388.78 248.34 365.11 305.71 327.38 348.44 C326.4 349.54 325.44 350.66 324.48 351.78 C319.49 357.59 314.16 363.02 308.75 368.44 C307.87 369.33 306.99 370.22 306.09 371.13 C300.04 377.19 293.72 382.7 287 388 C286.41 388.48 285.82 388.95 285.21 389.45 C238.39 427.1 180.68 449.59 121.56 458.25 C119.89 458.5 119.89 458.5 118.19 458.75 C102.3 460.94 86.45 461.21 70.44 461.19 C69.46 461.19 68.49 461.19 67.48 461.18 C53.24 461.16 39.12 461.03 25 459 C23.91 458.84 22.83 458.69 21.71 458.53 C-13.08 453.34 -47.29 444.42 -79 429 C-79.89 428.57 -80.78 428.15 -81.7 427.71 C-107.07 415.56 -130.93 400.73 -152 382 C-152.7 381.4 -153.39 380.8 -154.11 380.19 C-156.09 378.48 -158.05 376.75 -160 375 C-160.47 374.58 -160.94 374.16 -161.42 373.73 C-173.96 362.5 -184.86 350.43 -195 337 C-195.51 336.33 -196.03 335.65 -196.56 334.96 C-236.66 282.14 -255.03 214.85 -246.48 148.98 C-239.34 100.45 -218.95 51.86 -185 16 C-183.75 14.66 -183.75 14.66 -182.48 13.29 C-137 -34.19 -51.32 -43 0 0 Z M-114 -14 C-114.96 -13.76 -114.96 -13.76 -115.94 -13.51 C-138.74 -7.62 -157.57 4.49 -175 20 C-176.06 20.93 -176.06 20.93 -177.14 21.88 C-189.46 33.42 -198.69 48.44 -207 63 C-207.4 63.7 -207.8 64.4 -208.22 65.12 C-239.52 120.28 -245.85 185.97 -229.87 246.85 C-220.25 281.66 -202.38 313.58 -179 341 C-178.07 342.12 -177.13 343.24 -176.2 344.36 C-167.25 355.04 -157.73 365.07 -147 374 C-146.25 374.64 -146.25 374.64 -145.49 375.3 C-128.25 390.09 -109.14 402.53 -89 413 C-88.35 413.34 -87.69 413.69 -87.02 414.04 C-82.4 416.47 -77.73 418.78 -73 421 C-72.26 421.35 -71.52 421.7 -70.76 422.06 C-31.26 440.43 13.62 450.89 57.17 451.24 C58.19 451.25 59.22 451.26 60.28 451.27 C100.81 451.58 139.26 447.79 178 435 C178.79 434.75 179.57 434.49 180.38 434.23 C214.77 423.11 247.63 406.48 276 384 C276.91 383.29 277.81 382.57 278.75 381.84 C285.78 376.19 292.48 370.23 299 364 C300.13 362.93 300.13 362.93 301.27 361.83 C312.62 350.92 322.88 339.83 332 327 C332.66 326.12 333.31 325.23 333.99 324.32 C339.62 316.62 344.33 308.31 349 300 C349.49 299.14 349.97 298.27 350.48 297.38 C381.55 241.73 388.1 176.42 370.91 115.22 C357.12 68.3 330.22 21.94 286.46 -2.29 C276.57 -7.61 266.96 -11.56 256 -14 C255.35 -14.16 254.7 -14.32 254.04 -14.48 C221.47 -22.34 185.75 -16.94 157 0 C108.52 30.82 92.72 102.67 79.51 154.88 C79.28 155.76 79.06 156.65 78.82 157.56 C78.42 159.16 78.02 160.77 77.63 162.37 C76.67 166.19 75.67 169.06 73 172 C70.75 172.06 70.75 172.06 68 171 C64.03 163.61 62.17 155.64 60.11 147.57 C48.08 100.76 33.37 47.39 -1 12 C-1.55 11.36 -2.09 10.72 -2.65 10.05 C-17.69 -7.1 -46.47 -14.68 -68 -17 C-72.78 -17.28 -77.53 -17.33 -82.31 -17.31 C-83.58 -17.31 -84.85 -17.3 -86.15 -17.3 C-95.76 -17.18 -104.7 -16.39 -114 -14 Z " fill="#000000" transform="translate(616,206)"/>
<path d="M0 0 C7.61 4.31 12.04 10.46 14.58 18.78 C16.2 26.08 15.67 33.55 12.12 40.2 C7.2 47.13 1.46 52.88 -6.88 55.2 C-17.01 56.49 -25 54.81 -33.63 49.51 C-39.91 43.06 -43.74 36.03 -44.26 26.95 C-44.01 18.43 -40.66 11.05 -34.82 4.92 C-24.89 -3.91 -12.19 -5.7 0 0 Z " fill="#000000" transform="translate(861.8828125,369.80078125)"/>
<path d="M0 0 C7.56 4.31 11.84 9.44 14.8 17.63 C16.72 25.35 16.55 33.26 12.82 40.38 C8.12 47.7 3.02 52.41 -5.36 55.02 C-14.06 56.73 -22.84 56.02 -30.5 51.44 C-36.33 46.91 -41.12 40.83 -42.5 33.44 C-43.2 22.58 -42.79 15.15 -35.81 6.69 C-26.49 -3.29 -12.4 -5.84 0 0 Z " fill="#000000" transform="translate(533.5,369.5625)"/>
<path d="M0 0 C1.22 0.01 1.22 0.01 2.47 0.02 C3.33 0.02 4.19 0.02 5.07 0.02 C7.92 0.02 10.77 0.04 13.61 0.05 C15.58 0.06 17.55 0.06 19.52 0.06 C24.71 0.07 29.91 0.09 35.1 0.11 C40.39 0.13 45.69 0.14 50.98 0.15 C61.38 0.17 71.77 0.21 82.17 0.25 C82.17 4.61 81.47 5.99 79.38 9.7 C78.77 10.78 78.17 11.87 77.55 12.98 C76.88 14.15 76.21 15.33 75.54 16.5 C74.86 17.72 74.17 18.94 73.49 20.15 C68.55 28.91 63.49 37.6 58.4 46.27 C51.81 57.5 45.49 68.87 39.17 80.25 C34.37 75.99 31.47 71.1 28.29 65.56 C27.73 64.6 27.17 63.64 26.6 62.65 C25.4 60.58 24.2 58.52 23.01 56.45 C21.17 53.26 19.33 50.08 17.48 46.9 C8.89 32.1 0.48 17.2 -7.83 2.25 C-5.25 -0.33 -3.52 0.01 0 0 Z M9.17 10.25 C10.52 13.63 11.81 16.61 13.53 19.78 C14 20.64 14.47 21.51 14.95 22.4 C17.67 27.36 20.41 32.31 23.17 37.25 C23.75 38.3 24.34 39.35 24.94 40.43 C26.66 43.5 28.41 46.57 30.17 49.62 C30.71 50.59 31.25 51.55 31.8 52.54 C32.31 53.42 32.83 54.3 33.35 55.21 C33.8 55.99 34.25 56.77 34.71 57.58 C35.19 58.13 35.67 58.68 36.17 59.25 C37.49 59.25 38.81 59.25 40.17 59.25 C40.59 58.47 41.02 57.69 41.46 56.89 C43.46 53.24 45.47 49.59 47.48 45.94 C47.84 45.28 48.2 44.62 48.57 43.95 C53.63 34.77 58.75 25.65 64.07 16.62 C66.19 13.61 66.19 13.61 67.17 10.25 C48.03 10.25 28.89 10.25 9.17 10.25 Z " fill="#000000" transform="translate(648.8334350585938,465.75115966796875)"/>
<path d="M0 0 C0.95 0.42 1.91 0.85 2.89 1.29 C12.8 6.14 20.02 12.99 24.12 23.32 C27.04 32.23 25.95 39.43 22 48 C13.85 60.13 1.29 66.56 -12.7 69.58 C-25.56 71.21 -38.99 71.22 -51 66 C-52.03 65.58 -53.07 65.15 -54.13 64.71 C-64.52 60.04 -71.84 53.43 -76.12 42.76 C-79.03 33.59 -78.04 26.29 -73.88 17.69 C-67.56 6.91 -56.17 0.55 -44.56 -3.07 C-30.97 -6.36 -12.74 -6.05 0 0 Z M-60 10 C-60.89 10.56 -61.77 11.11 -62.69 11.69 C-68.5 17.5 -72.12 24.54 -72.25 32.75 C-72.14 40.92 -69.55 46.15 -64.07 52.08 C-51.44 63.77 -35.39 65.63 -19 65 C-7.56 64.29 4.17 59.55 12.61 51.61 C19.26 43.93 20.69 37.02 20 27 C17.53 18.29 10.97 12.04 3.47 7.32 C-15.7 -2.89 -41.87 -2.18 -60 10 Z " fill="#000000" transform="translate(546,496)"/>
<path d="M0 0 C1.73 -0.02 1.73 -0.02 3.5 -0.05 C19.26 -0.06 32.29 4.37 43.87 15.24 C50.43 22.25 53.37 30.08 53.12 39.7 C52.11 48.25 47.82 54.41 41.81 60.31 C41.01 61.13 41.01 61.13 40.19 61.96 C28.9 72.61 12.06 74.94 -2.88 74.53 C-16.87 73.61 -31.05 69.56 -41.16 59.32 C-47.06 52.29 -51.02 43.83 -50.5 34.5 C-49.09 24.74 -44.04 17.02 -36.44 10.82 C-24.84 3.03 -13.86 -0.04 0 0 Z M-23.19 9.31 C-23.96 9.61 -24.73 9.91 -25.53 10.22 C-33.68 13.84 -39.64 19.56 -43.28 27.7 C-45.63 34.44 -45.89 40.48 -43.25 47.16 C-37.82 58.22 -28.22 63.59 -16.89 67.59 C-2.11 71.56 16.15 70.54 29.81 63.31 C38.73 57.5 45.53 50.95 47.81 40.31 C48.52 33.72 47.06 27.76 43.44 22.21 C36.18 13.2 25.28 6.92 13.81 5.31 C1.06 4.22 -11.2 4.5 -23.19 9.31 Z " fill="#000000" transform="translate(846.1875,491.6875)"/>
<path d="M0 0 C4.34 -0.05 8.67 -0.09 13.01 -0.11 C14.48 -0.12 15.95 -0.13 17.42 -0.15 C42.06 -0.44 42.06 -0.44 48 5 C50.07 13.18 46.87 21.86 43 29 C37.42 36.67 31.57 42.77 22 44.56 C16.18 43.47 12.25 40.37 8.31 36.06 C1.21 25.11 -0.21 12.69 0 0 Z M5 7 C3.86 16.8 9.26 27.01 14.4 35.09 C16.05 37.3 16.05 37.3 19.44 38.81 C23.75 39.04 26.52 38.47 30 36 C36.34 30.22 42.67 21.92 43.1 12.96 C43.09 12.25 43.07 11.54 43.06 10.81 C43.04 9.55 43.02 8.3 43 7 C37 4.34 30.99 4.71 24.56 4.75 C22.9 4.74 22.9 4.74 21.21 4.73 C15.42 4.74 10.46 5.02 5 7 Z " fill="#000000" transform="translate(549,866)"/>
<path d="M0 0 C4.02 -0.05 8.03 -0.09 12.05 -0.11 C14.07 -0.12 16.09 -0.15 18.11 -0.18 C42.5 -0.3 42.5 -0.3 48 5 C49.92 13.45 47.25 21.72 43 29 C38.16 35.35 32.27 42.91 24.02 44.34 C19.39 44.67 16.5 44.17 12.81 41.25 C4.24 32.73 0.21 20.03 -0.07 8.12 C-0.07 5.41 -0.05 2.71 0 0 Z M5 7 C4.72 13 5.43 17.49 7.62 23.06 C7.89 23.76 8.16 24.46 8.44 25.18 C10.69 30.78 13.35 36.17 19 39 C22.66 39.42 24.64 39.19 27.94 37.5 C35.87 31.03 42.05 22.94 43.3 12.45 C43.35 10.07 43.35 10.07 43 7 C36.81 4.81 31.09 4.7 24.56 4.75 C23.06 4.74 23.06 4.74 21.54 4.73 C15.68 4.74 10.62 5.31 5 7 Z " fill="#000000" transform="translate(549,752)"/>
<path d="M0 0 C1.7 1.7 1.7 1.7 2.23 3.76 C2.08 15.84 -2.21 25.76 -10.3 34.7 C-14.75 38.92 -18.75 41.06 -24.92 41.45 C-29.58 41.14 -32.45 40.14 -35.74 36.8 C-38.97 32.45 -41.17 27.67 -43.3 22.7 C-43.64 21.94 -43.98 21.17 -44.34 20.38 C-46.88 13.95 -46.58 7.53 -46.3 0.7 C-34.67 -4.99 -11.73 -6.62 0 0 Z M-41.3 2.7 C-41.3 13.71 -38.65 25.75 -31.05 34.2 C-27.36 36.21 -24.33 36.67 -20.3 35.7 C-11.66 31.41 -6.79 23.07 -3.74 14.23 C-3.08 10.45 -3.3 6.55 -3.3 2.7 C-15.84 2.7 -28.38 2.7 -41.3 2.7 Z " fill="#000000" transform="translate(709.296875,982.296875)"/>
<path d="M0 0 C4.82 -0.05 9.64 -0.09 14.46 -0.11 C16.1 -0.12 17.73 -0.13 19.37 -0.15 C39.96 -0.36 39.96 -0.36 46.56 3.5 C48.91 7.59 48.65 11.41 48 16 C44.86 27.55 37.74 37.23 27.56 43.5 C22.83 44.42 18.42 44.24 14.07 42.01 C5.76 35.76 1.65 23.95 0 14 C-0.07 11.55 -0.1 9.1 -0.07 6.65 C-0.06 5.4 -0.05 4.15 -0.04 2.86 C-0.03 1.92 -0.01 0.97 0 0 Z M5 7 C4.06 17.39 8.88 27.81 15 36 C18.72 38.48 21.69 38.65 26 38 C34.3 33.85 38.93 26.5 42 18 C42.89 15.01 43.11 12.37 43.06 9.25 C43.05 8.45 43.04 7.65 43.04 6.83 C43.02 6.22 43.01 5.62 43 5 C38.71 4.95 34.43 4.91 30.14 4.89 C28.68 4.88 27.23 4.87 25.77 4.85 C23.67 4.82 21.57 4.81 19.46 4.8 C18.2 4.79 16.94 4.78 15.64 4.77 C11.74 5.02 8.7 5.8 5 7 Z " fill="#000000" transform="translate(606,923)"/>
<path d="M0 0 C1.02 -0.01 2.04 -0.02 3.09 -0.02 C19.13 0.02 19.13 0.02 23.81 3.58 C26.19 6.75 25.53 10.52 25.06 14.25 C22.58 26.21 17.05 35.15 7.06 42.25 C2.78 44.77 -1.08 44.92 -5.94 44.25 C-14.65 40.06 -17.73 32.07 -20.87 23.47 C-22.82 17.58 -24.68 11.51 -23.94 5.25 C-18.63 -1.38 -7.64 -0.06 0 0 Z M-17.94 5.25 C-17.94 16.73 -15.05 27.04 -7.94 36.25 C-5.46 38.41 -4.35 39.19 -1.06 39.69 C5.41 38.78 9.41 34.26 13.45 29.47 C19.05 21.76 20.06 14.65 20.06 5.25 C7.52 5.25 -5.02 5.25 -17.94 5.25 Z " fill="#000000" transform="translate(685.9375,751.75)"/>
<path d="M0 0 C4.18 -0.05 8.35 -0.09 12.53 -0.11 C13.95 -0.12 15.36 -0.13 16.77 -0.15 C42.09 -0.46 42.09 -0.46 48 5 C50.08 13.01 46.18 22.23 42.38 29.12 C38.17 35.78 32.59 41.49 25 44 C20.29 44.52 16.76 44.1 12.7 41.52 C9.14 38.34 7.11 34.21 5 30 C4.61 29.25 4.21 28.5 3.81 27.72 C0.34 20.25 -2.66 7.98 0 0 Z M4 5 C5.61 16.26 5.61 16.26 9.25 26.5 C9.52 27.16 9.8 27.83 10.08 28.51 C12.22 33.32 14.64 36.03 19 39 C24.28 39.34 27.02 38.36 31.12 35.06 C37.48 28.95 41.6 21.69 43 13 C43 10.36 43 7.72 43 5 C30.13 5 17.26 5 4 5 Z " fill="#000000" transform="translate(720,809)"/>
<path d="M0 0 C1.14 -0.01 2.28 -0.02 3.45 -0.04 C18.81 -0.06 18.81 -0.06 25.19 4.19 C27.07 13.79 23.39 22.98 18.38 31 C13.83 37.37 8.16 42.84 0.19 44.19 C-4.06 44.21 -7.31 43.31 -10.73 40.75 C-18.68 32.61 -23.69 19.46 -23.84 8.09 C-23.69 6.19 -23.69 6.19 -22.81 3.19 C-17.14 -1.43 -6.87 0 0 0 Z M-17.81 5.19 C-17.81 17.13 -14.89 28.05 -6.81 37.19 C-4.34 39.1 -3.2 39.19 -0.06 39.19 C8.22 36.64 13.11 30.57 17.19 23.19 C20 17.16 19.59 12.36 20.19 5.19 C7.65 5.19 -4.89 5.19 -17.81 5.19 Z " fill="#000000" transform="translate(685.8125,865.8125)"/>
<path d="M0 0 C1.12 -0.01 2.25 -0.02 3.41 -0.02 C19.76 0.01 19.76 0.01 24 4.25 C25.07 16.05 20.36 26.76 13.31 36 C9.16 40.56 3.75 43.91 -2.47 44.47 C-7.4 44.14 -10.62 43 -14 39.25 C-18.21 33.68 -20.75 27.71 -22.88 21.12 C-23.09 20.47 -23.31 19.81 -23.53 19.14 C-24.96 14.38 -25.43 10.22 -25 5.25 C-19.67 -1.66 -7.74 -0.05 0 0 Z M-19 5.25 C-19.41 16.35 -17.19 26.44 -10 35.25 C-7.18 37.89 -4.89 39.16 -1 39.25 C6.34 36.96 10.7 32.25 14.45 25.74 C17.61 19.4 19.18 13.37 19 6.25 C17.82 4.84 17.82 4.84 14.49 5.14 C12.93 5.14 11.37 5.14 9.81 5.15 C8.99 5.15 8.17 5.16 7.32 5.16 C4.7 5.16 2.07 5.17 -0.56 5.19 C-2.34 5.19 -4.12 5.2 -5.9 5.2 C-10.26 5.21 -14.63 5.23 -19 5.25 Z " fill="#000000" transform="translate(801,865.75)"/>
<path d="M0 0 C4.68 -0.05 9.35 -0.09 14.03 -0.11 C15.62 -0.12 17.21 -0.13 18.79 -0.15 C39.18 -0.37 39.18 -0.37 46.12 3.94 C49.04 8.7 48.16 12.69 47 18 C43.97 28.87 37.42 36.93 28 43 C24.52 44.74 20.81 44.44 17 44 C9.92 40.81 6.55 34.49 3.51 27.64 C-0.06 18.11 -0.23 10.06 0 0 Z M5 5 C5 16.66 6.91 28.08 15 37 C17.7 39.23 19.17 39 22.75 39.06 C28.88 38.08 32.73 33.79 36.51 29.14 C41.62 21.73 43 13.87 43 5 C30.46 5 17.92 5 5 5 Z " fill="#000000" transform="translate(777,752)"/>
<path d="M0 0 C1.09 -0.01 2.19 -0.02 3.32 -0.04 C10.66 -0.05 17.47 0.41 24.31 3.25 C26.83 6.64 26.31 10.22 25.75 14.19 C23.43 24.85 18.21 34.28 9.31 40.81 C4.95 43.41 0.84 44.6 -4.25 44.19 C-11.07 41.65 -15.08 34.95 -18 28.62 C-20.64 22.56 -22.56 17.18 -22.69 10.5 C-22.73 9.38 -22.77 8.26 -22.81 7.11 C-22.25 4.19 -22.25 4.19 -20.04 2.36 C-13.53 -0.37 -6.94 0 0 0 Z M-18.25 5.19 C-16.19 22.15 -16.19 22.15 -7.38 36.56 C-3.49 38.58 -0.47 39.28 3.75 38.19 C11.03 34.55 15.75 28.06 18.79 20.67 C20.64 15.05 20.75 11.47 20.75 5.19 C7.88 5.19 -4.99 5.19 -18.25 5.19 Z " fill="#000000" transform="translate(742.25,922.8125)"/>
<path d="M0 0 C1.67 1.71 1.67 1.71 2.2 3.8 C2.05 15.24 -2.33 25.54 -10.32 33.75 C-14.96 37.98 -18.47 40.45 -24.83 41.02 C-30.07 40.55 -32.79 38.47 -36.33 34.77 C-40.24 30.03 -42.25 24.43 -44.33 18.71 C-44.71 17.73 -45.08 16.75 -45.46 15.73 C-46.41 12.45 -46.53 9.74 -46.46 6.33 C-46.44 5.27 -46.42 4.21 -46.4 3.12 C-46.38 2.32 -46.36 1.53 -46.33 0.71 C-34.05 -5.3 -12.09 -6.7 0 0 Z M-41.33 1.71 C-41.33 12.93 -38.61 23.83 -31.33 32.71 C-28.25 34.9 -26.84 35.69 -23.02 35.83 C-14.96 33.37 -10.48 27.2 -6.52 20.05 C-3.06 13.22 -3.33 10.09 -3.33 1.71 C-15.87 1.71 -28.41 1.71 -41.33 1.71 Z " fill="#000000" transform="translate(652.33203125,812.29296875)"/>
</svg>
