<?xml version="1.0" encoding="UTF-8"?>
<!-- Generator: visioncortex VTracer 0.6.3 -->
<svg version="1.1" xmlns="http://www.w3.org/2000/svg" width="1272" height="1280">
<path d="M0 0 C20.66 15.66 29.17 42.04 32.85 66.79 C35.88 89.71 36.14 114.53 32.49 137.37 C32.37 138.14 32.25 138.91 32.13 139.71 C27.78 167.06 17.4 195.22 0.49 217.37 C-0.32 218.44 -1.12 219.51 -1.92 220.58 C-6.17 226.2 -10.47 231.66 -15.43 236.69 C-16.73 238.33 -16.73 238.33 -16.32 240.45 C-15.07 243.42 -12.84 245.15 -10.51 247.37 C-0.99 257.1 8.31 271.78 9.85 285.61 C9.43 288.85 8.84 289.65 6.3 291.62 C5.71 292.1 5.12 292.58 4.51 293.07 C2.26 294.52 -0 295.45 -2.51 296.37 C5.31 309 13.64 320.99 24.49 331.25 C27.49 334.43 27.49 334.43 27.49 337.37 C24.38 345.04 16.15 350.33 8.82 353.43 C4.66 354.61 0.67 355.04 -3.64 355.31 C-4.38 355.35 -5.12 355.4 -5.88 355.45 C-11.34 355.64 -16.24 354.77 -21.51 353.37 C-21.53 354.25 -21.55 355.14 -21.57 356.05 C-21.94 371.61 -22.36 387.15 -23.45 402.68 C-23.52 403.78 -23.6 404.87 -23.68 406 C-24.17 412.58 -25.04 419 -26.23 425.49 C-27.09 434.21 -20.88 440.99 -15.72 447.39 C-10.96 453.14 -6.37 458.17 -0.07 462.25 C2.2 463.91 3.3 464.76 4.13 467.46 C4.39 473.07 2.82 477.89 -0.51 482.37 C-2.68 484.55 -4.93 486.55 -7.29 488.51 C-9.5 490.36 -11.51 492.31 -13.51 494.37 C-12.98 495.04 -12.45 495.7 -11.9 496.39 C-4.16 506.5 -1.2 514.33 -1.01 527 C-0.98 528.32 -0.98 528.32 -0.96 529.67 C-1.03 536.96 -2.69 543.06 -7.48 548.68 C-8.13 549.19 -8.78 549.71 -9.45 550.25 C-10.14 550.8 -10.83 551.36 -11.54 551.93 C-13.78 553.57 -16.05 555.07 -18.51 556.37 C-17.97 556.84 -17.43 557.31 -16.87 557.8 C-16.15 558.42 -15.44 559.04 -14.7 559.68 C-13.64 560.61 -13.64 560.61 -12.55 561.55 C-10.51 563.37 -10.51 563.37 -9.19 565.16 C-7.41 566.71 -7.41 566.71 -4.25 566.17 C-0.71 565.41 2.75 564.57 6.24 563.62 C22.31 559.47 38.78 556.7 55.24 554.62 C56.15 554.51 57.07 554.39 58.01 554.27 C73.02 552.49 87.96 552.18 103.06 552.19 C106.38 552.18 109.69 552.17 113.01 552.15 C115.15 552.14 117.28 552.14 119.42 552.14 C120.4 552.13 121.37 552.13 122.38 552.12 C128.38 552.14 133.67 552.87 139.49 554.37 C139.46 553.07 139.44 551.77 139.41 550.44 C139.43 530.61 144.6 510.77 158.18 496.12 C166.45 488.12 176.85 484.5 188.24 484.06 C197.36 484.27 205.83 486.43 213.49 491.37 C214.15 491.37 214.81 491.37 215.49 491.37 C217.04 489.17 218.49 486.96 219.93 484.68 C224.89 477.04 230.35 470.1 236.49 463.37 C236.95 462.87 237.41 462.36 237.88 461.84 C247.8 451.09 259.27 443.08 274.28 442.21 C297.58 441.89 318.58 442.09 336.5 459.12 C352.23 474.94 354.8 498.71 354.86 519.96 C354.85 522.02 354.84 524.08 354.82 526.14 C354.8 529.24 354.8 532.33 354.81 535.43 C354.77 566.54 354.77 566.54 351.49 576.37 C352.09 576.34 352.7 576.3 353.32 576.27 C362.4 575.97 369.49 577.09 376.36 583.37 C385.22 592.96 386.08 605.64 385.62 618.14 C384.04 644.97 375.5 671.43 356.36 690.77 C339.81 704.97 319.26 708.15 298.3 708.98 C292.66 709.22 287.1 709.69 281.49 710.37 C281.63 711.43 281.78 712.48 281.93 713.57 C283.47 725.55 283.77 737.3 283.49 749.37 C283.48 750.07 283.47 750.78 283.46 751.5 C283.18 771.3 279.33 791.81 272.49 810.37 C272.24 811.07 271.99 811.78 271.73 812.5 C266.56 826.98 259.94 840.43 251.43 853.25 C250.81 854.18 250.81 854.18 250.18 855.13 C248.24 858 246.29 860.6 243.97 863.19 C240.57 867.08 238.51 869.61 238.45 874.9 C239.18 879.19 240.23 883.22 241.49 887.37 C241.95 888.97 242.42 890.57 242.88 892.18 C243.88 895.57 244.9 898.96 245.94 902.34 C246.2 903.19 246.46 904.03 246.73 904.9 C247.21 906.47 247.7 908.04 248.19 909.61 C261.23 952.25 258.89 1000.26 248.04 1043.15 C247.53 1045.19 247.06 1047.24 246.61 1049.29 C245.19 1055.75 243.58 1062.1 241.49 1068.37 C241.19 1069.26 240.89 1070.15 240.59 1071.07 C238.75 1076.13 237.41 1079.71 232.49 1082.37 C215.38 1089.35 197.02 1089.57 178.8 1089.5 C177.68 1089.49 177.68 1089.49 176.54 1089.49 C142.39 1089.39 142.39 1089.39 134.49 1085.37 C130.28 1080.15 131.15 1073.46 131.68 1067.08 C131.85 1065.54 132.02 1063.99 132.2 1062.45 C133.48 1050.97 133.77 1039.49 133.84 1027.94 C133.86 1026.14 133.88 1024.33 133.9 1022.52 C134.14 1005.77 131.84 989.7 126.36 973.81 C126.08 972.96 125.79 972.11 125.49 971.23 C121.96 961.26 117.38 948.73 109.49 941.37 C109.47 942.08 109.45 942.79 109.43 943.52 C109.33 946.82 109.22 950.13 109.11 953.43 C109.08 954.55 109.05 955.66 109.02 956.81 C108.52 971.42 106.05 985.27 102.71 999.45 C102.11 1002 101.53 1004.55 100.94 1007.1 C98.81 1016.31 96.45 1025.38 93.49 1034.37 C93.25 1035.11 93 1035.85 92.76 1036.61 C91.95 1039.06 91.12 1041.51 90.27 1043.95 C89.03 1047.6 88.05 1051.24 87.18 1055 C86.13 1058.48 85.06 1060.19 82.05 1062.25 C58.41 1074.43 29.23 1073.36 3.49 1071.37 C1.07 1078.29 -0.8 1085.24 -2.51 1092.37 C-3.48 1096.38 -4.47 1100.38 -5.51 1104.37 C-5.74 1105.23 -5.96 1106.1 -6.19 1106.98 C-7.62 1111.9 -8.91 1114.68 -13.51 1117.37 C-28.38 1123.6 -45.72 1125.52 -61.71 1125.54 C-62.66 1125.54 -63.61 1125.55 -64.59 1125.55 C-66.59 1125.55 -68.59 1125.56 -70.59 1125.56 C-73.61 1125.56 -76.62 1125.58 -79.64 1125.6 C-108.16 1125.69 -108.16 1125.69 -113.88 1121.74 C-116.13 1118.48 -116 1116.25 -115.97 1112.31 C-115.97 1111.6 -115.97 1110.9 -115.97 1110.17 C-115.96 1108.67 -115.95 1107.16 -115.92 1105.65 C-115.89 1103.46 -115.88 1101.27 -115.88 1099.08 C-115.84 1089.73 -115.24 1080.46 -114.51 1071.14 C-113.38 1056.47 -113.15 1041.86 -113.19 1027.15 C-113.2 1025.09 -113.2 1023.02 -113.2 1020.95 C-110.75 980.18 -110.75 980.18 -122.98 943.49 C-125.72 941.2 -127.33 940.57 -130.82 940.06 C-132.15 939.85 -132.15 939.85 -133.5 939.63 C-134.16 939.55 -134.83 939.46 -135.51 939.37 C-135.49 940.09 -135.47 940.8 -135.44 941.54 C-135.32 948.12 -135.8 954.3 -136.92 960.79 C-137.5 964.28 -137.98 967.78 -138.44 971.29 C-141 990.78 -143.68 1010.2 -148.32 1029.32 C-149.81 1035.49 -151 1041.71 -152.17 1047.94 C-152.94 1051.98 -153.9 1055.57 -155.51 1059.37 C-155.94 1061.11 -156.33 1062.86 -156.7 1064.62 C-158.26 1071.52 -160.04 1078.36 -161.89 1085.18 C-162.31 1086.79 -162.31 1086.79 -162.74 1088.44 C-164.71 1095.63 -167.03 1101.8 -172.31 1107.21 C-175.64 1108.97 -179.14 1109.95 -182.76 1110.93 C-183.47 1111.14 -184.17 1111.35 -184.9 1111.56 C-198.03 1115.2 -211.49 1115.7 -225.02 1115.63 C-227.44 1115.62 -229.87 1115.63 -232.29 1115.64 C-240.14 1115.65 -247.9 1115.4 -255.7 1114.54 C-256.71 1114.44 -256.71 1114.44 -257.73 1114.33 C-263.25 1113.65 -269.17 1112.35 -273.5 1108.69 C-274.99 1105.27 -274.87 1101.97 -274.76 1098.31 C-274.76 1097.59 -274.75 1096.87 -274.75 1096.13 C-274.7 1092.96 -274.52 1090.39 -273.51 1087.37 C-273.17 1084.6 -272.86 1081.84 -272.57 1079.06 C-271.99 1073.54 -271.35 1068.05 -270.51 1062.56 C-269.14 1053.2 -268.34 1043.79 -267.51 1034.37 C-267.45 1033.71 -267.4 1033.05 -267.34 1032.37 C-264.83 1005.4 -264.83 1005.4 -263.51 978.37 C-263.48 977.15 -263.46 975.93 -263.43 974.68 C-260.19 910.23 -260.19 910.23 -278.8 851.02 C-287.28 838.44 -293.8 824.77 -298.51 810.37 C-298.76 809.61 -299.02 808.84 -299.28 808.06 C-302.3 798.77 -304.87 789.44 -306.82 779.87 C-306.98 779.1 -307.14 778.32 -307.31 777.52 C-309.33 766.97 -309.67 756.33 -309.71 745.61 C-309.72 744.42 -309.73 743.23 -309.73 742.01 C-309.74 739.5 -309.75 736.99 -309.75 734.49 C-309.76 730.74 -309.79 726.99 -309.82 723.24 C-309.88 709.2 -309.13 695.6 -307.16 681.69 C-305.83 673.12 -305.83 673.12 -307.72 664.95 C-308.25 664.32 -308.78 663.7 -309.32 663.06 C-316.82 652.71 -316.87 638.7 -315.51 626.37 C-314.07 619.08 -311.3 612.24 -308.51 605.37 C-309.56 604.9 -310.62 604.42 -311.7 603.93 C-316.8 601.05 -319.46 596 -321.06 590.47 C-321.79 587.05 -321.65 583.6 -321.64 580.12 C-321.64 579.4 -321.64 578.67 -321.65 577.92 C-321.64 572.99 -321.21 568.25 -320.51 563.37 C-321.45 563.41 -322.39 563.44 -323.36 563.48 C-325.23 563.52 -325.23 563.52 -327.14 563.56 C-328.37 563.59 -329.6 563.63 -330.86 563.66 C-335.74 563.27 -339.05 561.83 -342.51 558.37 C-343.13 555.47 -343.26 554.18 -342.51 551.37 C-340.71 548.61 -338.7 546.06 -336.68 543.45 C-332.96 538.16 -330.69 532.43 -328.51 526.37 C-328.09 525.22 -327.67 524.06 -327.23 522.87 C-325.29 516.99 -325.29 516.99 -326.58 511.2 C-328.44 509.11 -330.46 507.27 -332.51 505.37 C-342.99 492.83 -350.61 478.56 -356.51 463.37 C-357.06 461.98 -357.06 461.98 -357.62 460.57 C-364.85 440.86 -366.86 418.8 -366.71 397.93 C-366.7 396.43 -366.7 394.93 -366.7 393.43 C-366.69 389.54 -366.67 385.64 -366.65 381.75 C-366.63 377.75 -366.62 373.76 -366.61 369.76 C-366.59 361.96 -366.55 354.17 -366.51 346.37 C-367.33 346.69 -367.33 346.69 -368.17 347.01 C-368.89 347.28 -369.61 347.55 -370.35 347.83 C-371.06 348.11 -371.78 348.38 -372.51 348.66 C-381.1 351.72 -390.73 350.58 -398.89 346.81 C-401.95 343.96 -403.3 341.11 -405.15 337.41 C-406.7 335.09 -407.67 334.53 -410.26 333.62 C-411.33 333.21 -412.41 332.8 -413.51 332.37 C-416.18 325.27 -412.04 316.01 -409.22 309.3 C-403.44 297.97 -394.42 290.04 -384.51 282.37 C-385.11 279.31 -385.11 279.31 -387.01 276.93 C-389.08 274.78 -389.37 273.34 -389.51 270.37 C-387.53 265.3 -384.23 263.61 -379.51 261.37 C-378.19 261.37 -376.87 261.37 -375.51 261.37 C-375.89 260.94 -376.27 260.52 -376.66 260.08 C-378.62 257.85 -380.56 255.61 -382.51 253.37 C-383.38 252.38 -384.25 251.39 -385.14 250.37 C-391.21 243.38 -396.52 236.18 -401.51 228.37 C-401.96 227.73 -402.4 227.09 -402.86 226.43 C-431.39 185.22 -436.8 128.91 -428.73 80.52 C-424 54.57 -412.97 28.05 -391.57 11.7 C-384.73 7.28 -376.4 7.18 -368.51 8.37 C-364.67 9.83 -361.73 11.85 -358.51 14.37 C-357.81 14.85 -357.1 15.33 -356.38 15.82 C-351.27 19.37 -347.43 23.58 -343.51 28.37 C-342.92 29.04 -342.33 29.71 -341.72 30.4 C-331.68 42.16 -324.07 56.44 -317.51 70.37 C-316.75 71.94 -315.98 73.5 -315.21 75.06 C-307.71 90.47 -301.15 106.19 -295.51 122.37 C-294.95 121.26 -294.4 120.15 -293.82 119 C-280.85 93.54 -280.85 93.54 -268.51 87.37 C-265.26 86.87 -265.26 86.87 -261.51 87.37 C-257.26 90.78 -254.68 95.44 -252.51 100.37 C-249.35 97.23 -246.23 94.06 -243.11 90.87 C-241.45 89.18 -239.8 87.49 -238.14 85.81 C-237.31 84.96 -236.49 84.11 -235.64 83.23 C-225.02 72.49 -225.02 72.49 -217.76 72.25 C-214.51 73.37 -214.51 73.37 -212.7 75.75 C-211.13 80.55 -210.27 85.38 -209.51 90.37 C-204.07 80.89 -198.87 71.53 -194.77 61.39 C-191.21 52.84 -191.21 52.84 -187.51 50.37 C-179.24 49.32 -173.41 51.87 -166.51 56.37 C-156.06 64.74 -148.3 76.21 -145.51 89.37 C-145.15 92.93 -145.13 96.42 -145.2 100 C-145.19 101.33 -145.19 101.33 -145.19 102.69 C-145.23 108.24 -145.95 113.05 -147.51 118.37 C-132.37 116.51 -125.67 108.99 -116.01 97.7 C-113.36 95.23 -112.1 94.47 -108.51 94.37 C-105.34 96.43 -103.62 98.22 -101.51 101.37 C-97.58 94.02 -93.66 86.66 -89.78 79.28 C-88.93 77.66 -88.07 76.04 -87.22 74.42 C-85.3 70.78 -83.39 67.13 -81.52 63.46 C-69.45 39.91 -49.85 7.38 -24.51 -3.63 C-15.65 -5.79 -7.69 -4.99 0 0 Z M-33.88 44.93 C-37.36 50.12 -39.92 55.85 -42.61 61.49 C-43.77 63.91 -44.98 66.29 -46.2 68.68 C-53.9 84.13 -60.5 100.2 -66.51 116.37 C-66.99 117.63 -67.48 118.88 -67.96 120.14 C-68.44 121.4 -68.91 122.67 -69.39 123.93 C-70.03 125.64 -70.03 125.64 -70.69 127.38 C-71.74 131.01 -71.74 131.01 -70.51 134.37 C-68.24 135.87 -68.24 135.87 -65.51 137 C-60.6 139.18 -60.6 139.18 -59.51 141.37 C-59.26 150.3 -62.59 158.57 -67.18 166.1 C-68.68 168.22 -68.68 168.22 -68.51 170.37 C-69.17 170.37 -69.83 170.37 -70.51 170.37 C-72.83 173.59 -72.83 173.59 -73.51 177.37 C-71.78 177.59 -70.05 177.8 -68.32 178 C-67.36 178.11 -66.4 178.23 -65.41 178.35 C-62.18 178.37 -60.32 177.95 -57.51 176.37 C-55.73 173.74 -55.19 171.23 -54.7 168.12 C-52.75 157.8 -49.56 147.59 -44.51 138.37 C-43.82 136.71 -43.14 135.05 -42.51 133.37 C-41.85 133.7 -41.19 134.03 -40.51 134.37 C-40.89 136.31 -40.89 136.31 -41.51 138.37 C-42.5 138.87 -42.5 138.87 -43.51 139.37 C-44.61 142.36 -45.58 145.33 -46.51 148.37 C-46.93 149.69 -47.36 151 -47.78 152.32 C-48.23 153.73 -48.69 155.14 -49.14 156.56 C-49.35 157.24 -49.57 157.91 -49.8 158.61 C-51.87 165.18 -53.74 172.45 -52.51 179.37 C-50.33 181.38 -50.33 181.38 -47.51 182.37 C-46.79 182.93 -46.07 183.48 -45.32 184.06 C-43.61 185.57 -43.61 185.57 -41.51 185.37 C-41.36 184.78 -41.2 184.18 -41.04 183.57 C-29.63 140.31 -29.63 140.31 -14.51 129.37 C-14.51 130.03 -14.51 130.69 -14.51 131.37 C-15.17 131.37 -15.83 131.37 -16.51 131.37 C-17.17 133.35 -17.83 135.33 -18.51 137.37 C-19.17 137.37 -19.83 137.37 -20.51 137.37 C-27.14 150.12 -31.63 162.66 -35.02 176.59 C-35.51 178.37 -35.51 178.37 -36.51 180.37 C-36.81 182.16 -37.07 183.95 -37.32 185.75 C-39.09 196.42 -41.55 204.76 -49.51 212.37 C-43.38 212.37 -38.26 206.12 -34.11 201.98 C-29.64 197.31 -29.64 197.31 -27.51 191.37 C-26.85 191.37 -26.19 191.37 -25.51 191.37 C-24.06 189.29 -24.06 189.29 -22.51 186.37 C-22.16 185.76 -21.81 185.15 -21.45 184.53 C-13.34 170.27 -6.79 156.1 -3.32 140 C-3.17 139.28 -3.01 138.56 -2.85 137.82 C-0.06 123.96 0.87 110.29 0.8 96.18 C0.8 95.38 0.8 94.57 0.8 93.74 C1.2 64.25 1.2 64.25 -11.05 38.58 C-14.11 36.06 -17.63 36.03 -21.46 36.1 C-26.75 36.8 -30.62 40.97 -33.88 44.93 Z M-386.03 54.94 C-400.54 78.78 -398.84 121.39 -393.17 147.66 C-389.05 165.19 -389.05 165.19 -381.51 181.37 C-380.81 183.07 -380.1 184.77 -379.4 186.48 C-378.07 189.32 -376.35 191.87 -374.65 194.5 C-373.31 196.7 -372.35 198.94 -371.51 201.37 C-370.85 201.37 -370.19 201.37 -369.51 201.37 C-369.31 202.03 -369.1 202.69 -368.89 203.37 C-367 207.49 -364.31 210.83 -361.51 214.37 C-360.51 211.37 -360.49 209.66 -360.64 206.56 C-360.65 202.01 -360.3 199.12 -357.51 195.37 C-354.96 193.47 -352.31 191.87 -349.51 190.37 C-352.04 172.68 -364.81 155.22 -374.64 140.72 C-377.16 136.98 -379.27 133.23 -381.26 129.18 C-381.83 128.04 -382.41 126.89 -383 125.7 C-385.22 120.81 -386.7 116.37 -387.14 111 C-387.21 110.12 -387.29 109.25 -387.36 108.35 C-387.41 107.7 -387.46 107.04 -387.51 106.37 C-386.85 106.37 -386.19 106.37 -385.51 106.37 C-385.39 107.83 -385.39 107.83 -385.26 109.31 C-384.02 117.73 -379.27 124.53 -374.51 131.37 C-366.42 143.39 -366.42 143.39 -362.78 149.35 C-361.86 150.81 -360.91 152.25 -359.93 153.67 C-355.59 160.12 -352.38 166.78 -349.35 173.91 C-347.35 178.61 -345.13 182.99 -342.51 187.37 C-339.87 187.37 -337.23 187.37 -334.51 187.37 C-334.05 180.35 -335.64 174.88 -338.01 168.31 C-338.55 166.79 -338.55 166.79 -339.1 165.24 C-343.31 153.75 -348.67 143.49 -355.91 133.6 C-357.93 130.78 -359.71 127.85 -361.47 124.87 C-362.45 123.2 -362.45 123.2 -364.51 122.37 C-364.94 121.63 -365.38 120.89 -365.82 120.12 C-367.46 117.22 -367.46 117.22 -370.14 114.75 C-372.51 112.37 -372.51 112.37 -373.51 109.37 C-366.46 114.5 -361.31 121.5 -356.09 128.39 C-354.66 130.19 -353.14 131.75 -351.51 133.37 C-350.49 135.02 -349.5 136.69 -348.51 138.37 C-347.53 139.79 -346.56 141.21 -345.57 142.62 C-342.63 146.99 -340.47 151.49 -338.51 156.37 C-337.38 154.67 -336.26 152.96 -335.18 151.21 C-330.29 143.48 -330.29 143.48 -325.51 141.37 C-327.46 134.7 -329.57 128.11 -331.89 121.56 C-332.34 120.26 -332.34 120.26 -332.81 118.93 C-334.92 112.95 -337.15 107.02 -339.46 101.11 C-340.39 98.69 -341.22 96.27 -342.01 93.81 C-347.13 78.26 -355.18 56.73 -369.51 47.37 C-376.9 46.33 -381.52 49.36 -386.03 54.94 Z M-38.51 21.37 C-41.34 24.6 -43.94 27.94 -46.51 31.37 C-47.7 32.85 -48.89 34.33 -50.07 35.81 C-53.33 39.99 -56.15 44.39 -58.93 48.89 C-60.51 51.37 -60.51 51.37 -62.1 53.47 C-63.44 55.27 -64.38 56.97 -65.32 59 C-66.82 62.08 -68.47 65 -70.27 67.91 C-73.64 73.5 -76.65 79.25 -79.64 85.06 C-85.38 96.2 -85.38 96.2 -87.78 100.33 C-89.13 102.69 -90.2 104.82 -91.07 107.37 C-91.96 109.95 -92.87 112.02 -94.2 114.43 C-96.76 120.11 -95.72 127.27 -95.51 133.37 C-92.74 133.23 -89.97 133.08 -87.2 132.93 C-86.41 132.89 -85.63 132.85 -84.82 132.81 C-84.06 132.77 -83.3 132.73 -82.52 132.69 C-81.83 132.65 -81.13 132.61 -80.41 132.58 C-78.29 132.42 -78.29 132.42 -75.51 131.37 C-74.41 129.31 -74.41 129.31 -73.61 126.74 C-73.28 125.79 -72.94 124.84 -72.6 123.85 C-72.26 122.85 -71.92 121.84 -71.57 120.81 C-69.48 114.7 -67.38 108.8 -64.38 103.08 C-63.23 100.82 -62.39 98.51 -61.57 96.12 C-58.47 87.36 -54.91 78.88 -50.62 70.62 C-49.45 68.25 -48.49 65.83 -47.51 63.37 C-42.58 52.55 -36.64 40.29 -26.14 33.93 C-20.73 32.78 -15.7 32.4 -10.7 35.06 C-1.56 41.69 0.98 53.26 2.74 63.93 C3.01 66.08 3.26 68.22 3.49 70.37 C3.6 71.41 3.71 72.45 3.82 73.52 C6.42 103.01 3.9 133.53 -6.51 161.37 C-6.91 162.51 -7.32 163.65 -7.73 164.83 C-10.3 171.89 -13.44 178.07 -17.51 184.37 C-18.07 185.29 -18.63 186.21 -19.2 187.15 C-22.48 192.49 -25.92 197.26 -30.23 201.81 C-31.72 203.29 -31.72 203.29 -31.51 205.37 C-32.17 205.37 -32.83 205.37 -33.51 205.37 C-34.68 206.8 -35.85 208.22 -37 209.66 C-39.65 212.66 -42.8 214.95 -46.01 217.31 C-46.66 217.81 -47.31 218.32 -47.98 218.84 C-48.62 219.31 -49.26 219.79 -49.92 220.27 C-50.49 220.7 -51.06 221.13 -51.65 221.57 C-54.23 222.68 -55.81 222.03 -58.51 221.37 C-60.25 221.33 -62 221.33 -63.74 221.38 C-64.71 221.4 -65.68 221.41 -66.67 221.43 C-68.7 221.47 -70.73 221.53 -72.76 221.59 C-73.72 221.6 -74.69 221.61 -75.68 221.63 C-76.56 221.65 -77.44 221.67 -78.34 221.7 C-79.06 221.59 -79.77 221.48 -80.51 221.37 C-81.17 220.38 -81.83 219.39 -82.51 218.37 C-81.47 218.28 -80.43 218.2 -79.36 218.11 C-67.02 216.93 -57.08 213.94 -48.51 204.37 C-46.19 200.93 -44.78 197.68 -43.95 193.62 C-44.38 191.22 -44.38 191.22 -46.26 189.25 C-55.65 183.83 -66.21 183.98 -76.76 184.18 C-78.1 184.2 -79.45 184.21 -80.79 184.22 C-84.03 184.26 -87.27 184.31 -90.51 184.37 C-88.09 181.88 -85.72 179.53 -82.98 177.39 C-74.5 170.44 -68.63 159.79 -65.51 149.37 C-65.06 145.67 -65.06 145.67 -65.51 142.37 C-72.12 137.97 -79.58 138.19 -87.26 138.62 C-87.98 138.66 -88.7 138.7 -89.45 138.74 C-97.29 139.28 -97.29 139.28 -103.57 143.54 C-104.17 144.39 -104.77 145.24 -105.39 146.12 C-110.4 152.76 -115.92 156.95 -123.51 160.37 C-122.81 159.69 -122.11 159.01 -121.39 158.31 C-120.42 157.33 -119.47 156.35 -118.51 155.37 C-118.03 154.89 -117.55 154.4 -117.05 153.9 C-109.47 145.73 -103.97 134.32 -104.26 123.05 C-104.79 117.42 -105.61 111.71 -107.51 106.37 C-109.49 104.9 -109.49 104.9 -111.51 104.37 C-112 105.01 -112.48 105.65 -112.98 106.31 C-121.04 116.71 -128.37 123.91 -141.69 126.09 C-147.47 126.67 -152.39 126.17 -157.51 123.37 C-156.63 117.91 -154.99 112.32 -152.51 107.37 C-151.32 93.11 -155.73 79.66 -164.51 68.37 C-169.01 63.8 -173.33 60.24 -179.51 58.37 C-182.06 58.21 -182.06 58.21 -184.51 59.37 C-185.99 61.79 -187.07 63.91 -188.14 66.5 C-188.42 67.15 -188.71 67.8 -189 68.47 C-190.36 71.58 -191.65 74.72 -192.93 77.87 C-194.75 81.89 -196.86 85.57 -199.2 89.31 C-199.64 90.01 -200.08 90.72 -200.53 91.44 C-203.52 96.11 -206.72 100.03 -210.84 103.77 C-212.77 105.5 -212.77 105.5 -214.64 108.62 C-216.85 111.87 -219.16 113.35 -222.51 115.37 C-223.85 116.36 -225.19 117.36 -226.51 118.37 C-222.51 108.37 -222.51 108.37 -221.47 106.04 C-220.46 103.24 -220.2 101.03 -220.1 98.07 C-220.04 96.61 -220.04 96.61 -219.98 95.11 C-219.95 94.1 -219.92 93.1 -219.89 92.06 C-219.83 90.52 -219.83 90.52 -219.77 88.95 C-219.68 86.42 -219.59 83.9 -219.51 81.37 C-231.81 87.09 -239.6 96.04 -246.51 107.37 C-247.25 108.39 -247.99 109.41 -248.75 110.46 C-251.67 115.64 -250.93 121.54 -250.76 127.31 C-250.74 128.47 -250.73 129.63 -250.71 130.83 C-250.66 133.68 -250.59 136.52 -250.51 139.37 C-251.17 139.37 -251.83 139.37 -252.51 139.37 C-252.47 138.77 -252.42 138.18 -252.37 137.56 C-251.77 123.03 -256.29 109.8 -263.51 97.37 C-264.54 96.17 -264.54 96.17 -266.64 95.87 C-271.41 96.7 -273.6 99.65 -276.51 103.37 C-285.53 116.24 -291.81 130.34 -290.51 146.37 C-289.38 152.25 -287.83 157.85 -285.51 163.37 C-290.2 160.69 -294.21 157.78 -297.89 153.81 C-304.51 147.65 -313.03 146.94 -321.69 147.03 C-324.75 147.18 -324.75 147.18 -327.64 149.5 C-331.57 155.52 -332.36 161.3 -331.51 168.37 C-329.12 177.05 -323.5 183.89 -315.76 188.37 C-312.96 189.86 -311.74 190.37 -308.51 190.37 C-308.51 191.03 -308.51 191.69 -308.51 192.37 C-309.46 192.36 -309.46 192.36 -310.43 192.34 C-333.01 191.21 -333.01 191.21 -353.23 199.71 C-354.98 201.98 -354.73 203.19 -354.39 206 C-352.81 217.22 -348.39 223.8 -340.88 232.2 C-337.51 236.01 -337.51 236.01 -337.51 240.37 C-342.11 239.89 -344.21 238.21 -347.51 235.06 C-349.96 232.75 -352.34 230.51 -355.02 228.46 C-357.94 226.01 -360.18 223.23 -362.45 220.18 C-362.89 219.61 -363.32 219.03 -363.77 218.44 C-366.69 214.56 -369.45 210.61 -372.08 206.54 C-373.67 204.13 -375.37 201.82 -377.07 199.5 C-380.12 195.18 -382.33 190.79 -384.4 185.94 C-385.34 183.77 -386.37 181.75 -387.51 179.68 C-390.73 173.26 -392.6 166.27 -394.51 159.37 C-394.74 158.55 -394.97 157.73 -395.21 156.89 C-399.25 142.06 -400.57 127.72 -400.51 112.37 C-400.51 110.95 -400.51 110.95 -400.5 109.5 C-400.31 89.32 -399.31 63.38 -385.51 47.37 C-381.28 44.43 -376.67 43.22 -371.51 43.37 C-364.03 44.92 -359.94 49.2 -355.64 55.31 C-347.71 67.67 -342.71 81.23 -337.48 94.88 C-336.38 97.71 -335.21 100.51 -334.01 103.31 C-332.36 107.24 -330.82 111.19 -329.39 115.21 C-329 116.28 -328.61 117.35 -328.21 118.46 C-327.42 120.61 -326.65 122.76 -325.9 124.92 C-322.77 134.05 -322.77 134.05 -315.76 140.27 C-313.82 141.03 -311.89 141.63 -309.89 142.18 C-308.89 142.49 -308.89 142.49 -307.86 142.8 C-306.08 143.34 -304.3 143.86 -302.51 144.37 C-301.52 144.7 -300.53 145.03 -299.51 145.37 C-303.32 131.16 -309.6 117.74 -315.41 104.27 C-317.04 100.48 -318.63 96.68 -320.2 92.87 C-327.33 75.7 -336.15 59.79 -346.51 44.37 C-347.04 43.56 -347.57 42.75 -348.12 41.91 C-353.99 33.18 -361.19 23.87 -371.51 20.37 C-376.86 19.54 -381.01 19.62 -385.89 22.06 C-396.25 31.19 -403.32 41.63 -408.51 54.37 C-408.96 55.46 -409.42 56.54 -409.88 57.66 C-422.9 90.03 -423.15 130.58 -415.51 164.37 C-415.31 165.28 -415.12 166.19 -414.91 167.12 C-412.67 177.28 -410.04 186.96 -405.51 196.37 C-404.96 197.56 -404.41 198.76 -403.84 199.98 C-400.1 207.89 -395.82 215.39 -391.2 222.81 C-390.43 224.06 -390.43 224.06 -389.64 225.34 C-388.9 226.5 -388.9 226.5 -388.15 227.68 C-387.71 228.37 -387.28 229.06 -386.83 229.77 C-385.51 231.67 -385.51 231.67 -382.51 232.37 C-381.83 234.03 -381.17 235.7 -380.51 237.37 C-377.73 240.9 -374.61 244.11 -371.51 247.37 C-370.82 248.11 -370.13 248.86 -369.42 249.62 C-365.29 253.94 -360.99 257.84 -355.51 260.37 C-354.52 260.37 -353.53 260.37 -352.51 260.37 C-352.84 261.03 -353.17 261.69 -353.51 262.37 C-356.18 263.08 -358.81 263.69 -361.51 264.25 C-367.94 265.65 -373.62 267.37 -379.51 270.37 C-375.36 275.49 -370.91 277.09 -364.51 278.37 C-363.19 278.37 -361.87 278.37 -360.51 278.37 C-360.51 279.03 -360.51 279.69 -360.51 280.37 C-361.84 280.74 -361.84 280.74 -363.2 281.12 C-366.68 282.43 -368.69 283.98 -371.51 286.37 C-372.42 286.97 -373.33 287.57 -374.26 288.18 C-386.19 296.21 -395.97 306.38 -402.51 319.37 C-402.84 321.35 -403.17 323.33 -403.51 325.37 C-398.89 325.37 -394.27 325.37 -389.51 325.37 C-390.83 327.02 -392.15 328.67 -393.51 330.37 C-394.58 333.41 -394.58 333.41 -394.51 336.37 C-392.83 338.8 -391.78 339.32 -388.87 339.91 C-374.77 340.29 -364.21 332.77 -353.51 324.37 C-353.65 327.23 -353.8 330.08 -353.95 332.93 C-353.99 333.73 -354.03 334.53 -354.07 335.36 C-354.11 336.15 -354.15 336.94 -354.2 337.75 C-354.23 338.47 -354.27 339.18 -354.31 339.92 C-354.47 341.82 -354.72 343.72 -355.02 345.6 C-355.58 349.87 -355.67 354.01 -355.68 358.3 C-355.69 359.58 -355.69 359.58 -355.69 360.89 C-355.7 363.68 -355.7 366.46 -355.7 369.25 C-355.7 370.2 -355.7 371.15 -355.7 372.13 C-355.64 415.64 -353.34 459.64 -325.51 495.37 C-324.52 496.86 -324.52 496.86 -323.51 498.37 C-322.85 498.37 -322.19 498.37 -321.51 498.37 C-321.16 499.45 -321.16 499.45 -320.8 500.55 C-311.94 519.95 -280.99 533.97 -262.2 541.03 C-259.97 541.83 -257.75 542.61 -255.51 543.37 C-254.79 543.62 -254.07 543.86 -253.33 544.12 C-237.12 549.53 -221.32 550.71 -204.35 550.63 C-201.65 550.62 -198.94 550.63 -196.24 550.64 C-181.49 550.66 -166.71 549.96 -152.39 546.12 C-151.56 545.9 -150.73 545.69 -149.88 545.47 C-117.23 536.68 -86.03 518.31 -66.51 490.37 C-65.14 488.52 -63.76 486.66 -62.39 484.81 C-55.44 475.19 -50.57 465.47 -46.51 454.37 C-46.17 453.42 -46.17 453.42 -45.81 452.46 C-41.31 439.97 -38.73 427.53 -36.89 414.43 C-36.76 413.56 -36.64 412.7 -36.51 411.8 C-34.71 398.3 -34.35 384.84 -34.38 371.24 C-34.39 368.68 -34.38 366.12 -34.38 363.56 C-33.92 348.76 -33.92 348.76 -36.51 334.37 C-35.53 334.93 -34.55 335.48 -33.55 336.05 C-23.58 341.76 -23.58 341.76 -12.51 344.37 C-11.73 344.44 -10.94 344.51 -10.13 344.58 C-1.34 344.95 7.64 343.11 14.49 337.37 C14.49 336.71 14.49 336.05 14.49 335.37 C12.96 333.91 12.96 333.91 10.99 332.37 C2.7 325.26 -2.99 316.34 -8.74 307.17 C-9.19 306.47 -9.63 305.76 -10.09 305.03 C-10.49 304.4 -10.88 303.77 -11.29 303.11 C-12.47 301.33 -12.47 301.33 -14.04 299.86 C-16.01 297.87 -17.13 295.52 -18.47 293.09 C-19.86 290.8 -21.46 289.08 -23.51 287.37 C-24.17 287.37 -24.83 287.37 -25.51 287.37 C-25.84 286.05 -26.17 284.73 -26.51 283.37 C-25.69 284.03 -24.86 284.69 -24.01 285.37 C-17.99 288.93 -10.24 287.66 -3.51 287.37 C-2.25 285.75 -2.25 285.75 -1.51 283.37 C-3.33 274.98 -6.94 267.85 -12.51 261.37 C-13.72 259.79 -14.93 258.21 -16.14 256.62 C-19.79 251.85 -23.31 248.39 -28.51 245.37 C-29.77 244.53 -31.02 243.68 -32.26 242.81 C-32.85 242.39 -33.45 241.98 -34.06 241.55 C-35.51 240.37 -35.51 240.37 -36.51 238.37 C-35.85 238.19 -35.19 238 -34.51 237.81 C-28.35 234.86 -23.8 230.32 -20.51 224.37 C-19.77 223.65 -19.03 222.93 -18.26 222.18 C-12.46 216.25 -8.22 209.06 -4.05 201.93 C-2.43 199.23 -0.69 196.62 1.05 194 C4.04 189.34 6.25 184.63 8.25 179.49 C8.93 177.77 9.64 176.06 10.43 174.39 C13.23 168.47 14.78 162.64 16.11 156.25 C16.52 154.35 16.93 152.45 17.34 150.55 C17.53 149.65 17.72 148.75 17.92 147.82 C18.38 145.83 18.96 143.88 19.57 141.93 C20.89 136.83 21.23 131.74 21.61 126.5 C21.7 125.36 21.78 124.23 21.87 123.06 C24.07 90.74 23.24 57.52 8.05 28.25 C7.37 26.93 7.37 26.93 6.67 25.59 C2.69 18.21 -1.86 11.27 -9.51 7.37 C-22.1 3.76 -30.39 12.94 -38.51 21.37 Z M-51.51 213.37 C-52.5 214.86 -52.5 214.86 -53.51 216.37 C-52.19 215.71 -50.87 215.05 -49.51 214.37 C-50.17 214.04 -50.83 213.71 -51.51 213.37 Z M-31.51 445.37 C-31.71 445.92 -31.9 446.46 -32.11 447.02 C-33.01 449.51 -33.92 452 -34.82 454.5 C-35.29 455.78 -35.29 455.78 -35.76 457.09 C-37.44 461.68 -39.23 466.04 -41.51 470.37 C-42.2 471.8 -42.2 471.8 -42.91 473.27 C-46.02 479.67 -49.41 485.56 -53.51 491.37 C-54.4 492.66 -54.4 492.66 -55.3 493.97 C-61.64 503.13 -68.52 510.57 -76.84 517.97 C-78.59 519.54 -80.32 521.13 -82.03 522.74 C-86.77 527.17 -91.43 530.79 -97.08 533.97 C-99.47 535.35 -101.69 536.85 -103.95 538.43 C-108.87 541.75 -114.07 544.05 -119.51 546.37 C-120.67 546.88 -121.82 547.39 -123.01 547.91 C-132.12 551.89 -140.74 555.22 -150.54 556.94 C-152.5 557.18 -152.5 557.18 -153.51 558.37 C-168.57 561.7 -184.24 561.66 -199.57 561.62 C-200.44 561.62 -201.31 561.62 -202.2 561.62 C-234.02 561.54 -234.02 561.54 -239.51 558.37 C-241.5 557.93 -243.5 557.54 -245.51 557.18 C-259.49 554.29 -273.01 549.24 -285.51 542.37 C-286.44 541.89 -287.37 541.41 -288.33 540.91 C-297.14 536.28 -305.03 530.58 -312.92 524.54 C-314.52 523.3 -314.52 523.3 -316.51 522.37 C-316.83 523.25 -316.83 523.25 -317.15 524.16 C-318.13 526.88 -319.14 529.59 -320.14 532.31 C-320.63 533.7 -320.63 533.7 -321.14 535.12 C-323.27 540.85 -325.79 545.71 -329.35 550.69 C-330.61 552.17 -330.61 552.17 -330.51 553.37 C-323 553.88 -317.01 553.42 -310.51 549.37 C-308.81 547.82 -308.81 547.82 -307.51 546.37 C-306.85 546.7 -306.19 547.03 -305.51 547.37 C-305.97 548.53 -306.42 549.68 -306.89 550.87 C-308.41 554.98 -309.57 559.09 -310.51 563.37 C-310.77 564.53 -311.03 565.7 -311.3 566.89 C-312.8 573.81 -313.88 580.28 -313.51 587.37 C-312.85 587.7 -312.19 588.03 -311.51 588.37 C-311.3 589.52 -311.3 589.52 -311.07 590.68 C-310.46 593.63 -309.44 595.1 -307.51 597.37 C-306.29 597.27 -305.08 597.16 -303.82 597.06 C-302.8 596.97 -302.8 596.97 -301.75 596.88 C-298.61 596.17 -296.98 595.51 -294.51 593.37 C-293.31 590.22 -292.76 587 -292.2 583.68 C-292.03 582.79 -291.86 581.9 -291.69 580.98 C-291.28 578.78 -290.89 576.58 -290.51 574.37 C-289.85 574.37 -289.19 574.37 -288.51 574.37 C-288.49 575.38 -288.46 576.38 -288.43 577.41 C-288.04 588.01 -286.56 597.85 -281.51 607.37 C-280.85 607.37 -280.19 607.37 -279.51 607.37 C-279.47 607.97 -279.43 608.57 -279.39 609.18 C-278.66 611.64 -278.66 611.64 -275.89 612.98 C-270.21 615.32 -264.56 615.03 -258.51 614.37 C-254.94 612.83 -254.94 612.83 -252.51 610.37 C-251.71 609.79 -250.9 609.22 -250.07 608.62 C-243.1 602.5 -237.85 594.9 -232.51 587.37 C-231.51 585.98 -230.51 584.58 -229.51 583.18 C-228.52 581.79 -228.52 581.79 -227.51 580.37 C-225.84 582.04 -226.35 584.1 -226.27 586.34 C-225.71 602.38 -222.65 615.97 -210.51 627.31 C-206.44 630.64 -202.43 633.51 -196.95 633.25 C-194 632.19 -191.28 630.85 -188.51 629.37 C-188.51 628.38 -188.51 627.39 -188.51 626.37 C-187.9 626.27 -187.29 626.17 -186.67 626.06 C-182.15 624.61 -179.66 618.83 -177.45 614.81 C-172.49 604.41 -170.59 592.62 -168.51 581.37 C-167.85 581.37 -167.19 581.37 -166.51 581.37 C-166.37 581.95 -166.22 582.53 -166.07 583.12 C-162.25 599.39 -162.25 599.39 -153.51 613.37 C-152.52 613.7 -151.53 614.03 -150.51 614.37 C-150.08 615.3 -150.08 615.3 -149.64 616.25 C-148.04 619.27 -146.66 620 -143.51 621.37 C-136.96 622.85 -131.38 622.82 -125.51 619.37 C-118.12 613.99 -113.87 607.78 -110.51 599.37 C-111.17 599.37 -111.83 599.37 -112.51 599.37 C-112.51 598.71 -112.51 598.05 -112.51 597.37 C-111.52 597.7 -110.53 598.03 -109.51 598.37 C-104.72 588.54 -103.26 580.57 -103.54 569.61 C-103.51 566.69 -103.2 564.19 -102.51 561.37 C-100.07 563.56 -98.89 565.46 -97.7 568.5 C-94.03 577.02 -89.11 583.93 -81.51 589.37 C-74.09 591.84 -64.03 591.62 -56.89 588.37 C-49.55 583.99 -45.9 577.36 -43.51 569.37 C-43.12 568.2 -42.73 567.02 -42.32 565.81 C-39.88 555.09 -41.42 545.01 -44.54 534.71 C-45.45 531.6 -46.05 528.58 -46.51 525.37 C-45.85 525.37 -45.19 525.37 -44.51 525.37 C-41.3 529.25 -39.25 532.77 -37.51 537.5 C-35.63 542.52 -33.45 545.9 -28.51 548.37 C-22.5 548.43 -18.2 547.29 -13.51 543.37 C-8.18 537.46 -8.22 532.66 -8.3 524.94 C-9.02 512.76 -16.68 501.44 -25.51 493.37 C-28.09 491.68 -30.67 490.17 -33.41 488.76 C-35.77 487.2 -36.5 485.98 -37.51 483.37 C-36.47 483.85 -36.47 483.85 -35.4 484.34 C-29.53 486.43 -22.74 486.47 -16.84 484.46 C-11.98 481.93 -8.48 478.97 -5.51 474.37 C-5.05 471.87 -5.05 471.87 -5.51 469.37 C-7.03 467.65 -7.03 467.65 -9.14 466.37 C-15.52 462.07 -20.27 457.77 -24.76 451.56 C-26.3 449.44 -27.86 447.4 -29.51 445.37 C-30.17 445.37 -30.83 445.37 -31.51 445.37 Z M253.49 463.37 C253.82 464.03 254.15 464.69 254.49 465.37 C253.5 465.87 253.5 465.87 252.49 466.37 C252.16 465.71 251.83 465.05 251.49 464.37 C243.38 472.16 237.19 480.1 231.23 489.61 C228.73 493.58 226.11 497.48 223.49 501.37 C224.76 503.41 226.1 505.41 227.49 507.37 C228.15 507.37 228.81 507.37 229.49 507.37 C229.61 507.94 229.74 508.5 229.87 509.09 C230.52 511.48 231.4 513.64 232.38 515.93 C234.58 521.34 235.97 526.8 237.24 532.5 C237.46 533.45 237.68 534.41 237.91 535.39 C238.44 537.72 238.97 540.04 239.49 542.37 C240.66 541.59 241.83 540.79 242.99 540 C243.64 539.56 244.29 539.11 244.96 538.66 C245.46 538.23 245.97 537.81 246.49 537.37 C246.49 536.71 246.49 536.05 246.49 535.37 C247.02 535.11 247.55 534.86 248.1 534.59 C249.89 533.68 251.66 532.71 253.41 531.71 C264.68 525.36 272.61 524.01 285.49 524.37 C287.21 519.53 288.4 514.69 289.49 509.68 C289.75 508.48 289.75 508.48 290.02 507.25 C291.31 501.31 292.46 495.36 293.49 489.37 C293.72 488.08 293.96 486.79 294.2 485.45 C297.23 470.5 297.23 470.5 298.49 455.37 C296.55 455.03 294.61 454.7 292.68 454.37 C291.06 454.09 291.06 454.09 289.41 453.81 C277.24 451.98 263.01 455.71 253.49 463.37 Z M304.49 456.37 C302.84 463.36 301.58 470.4 300.34 477.48 C299.39 482.95 298.41 488.41 297.43 493.87 C297.26 494.78 297.1 495.69 296.93 496.62 C296.17 500.83 295.36 505 294.39 509.17 C293.64 512.51 293.16 515.68 293.11 519.12 C293.07 520.44 293.07 520.44 293.03 521.79 C293.65 525.28 295.03 526.85 297.49 529.37 C300.07 531.08 300.07 531.08 302.86 532.56 C308.78 536.19 311.6 540.14 314.49 546.37 C314.98 547.39 314.98 547.39 315.48 548.44 C321.32 562.14 317.78 577.11 312.49 590.37 C310.89 594.19 309.21 597.97 307.49 601.75 C307.06 602.7 306.64 603.66 306.2 604.65 C304.05 609.39 301.97 613.43 298.49 617.37 C297.62 618.95 297.62 618.95 296.74 620.56 C294.45 624.7 291.49 628.24 288.5 631.89 C286.74 634.06 285.11 636.28 283.49 638.56 C281.37 641.44 279.11 643.65 276.36 645.93 C272.03 649.62 269.06 652.82 268.11 658.68 C267.76 665.81 269.72 672.32 273.75 678.22 C275.52 679.62 275.52 679.62 278.2 679.36 C282.41 678.1 285.53 676.05 289.11 673.56 C289.77 673.12 290.42 672.68 291.1 672.23 C294.57 669.86 297.59 667.44 300.49 664.37 C301.27 663.79 302.06 663.22 302.86 662.62 C306.4 659.59 308.85 656.19 311.49 652.37 C312.53 650.9 312.53 650.9 313.59 649.41 C324.07 634.18 331.51 615.39 335.49 597.37 C335.82 596.07 335.82 596.07 336.16 594.74 C340.88 575.82 342.16 556.8 342.49 537.37 C342.52 535.52 342.52 535.52 342.55 533.63 C343.39 497.59 343.39 497.59 326.87 466.61 C320.96 461.01 312.62 457.03 304.49 456.37 Z M161.77 506.34 C153.16 518.49 150.41 531.76 150.18 546.37 C150.16 547.1 150.14 547.83 150.12 548.58 C150.13 551.64 150.29 553.98 151.67 556.74 C153.94 558.78 155.97 559.55 158.86 560.5 C164.49 562.37 164.49 562.37 167.15 563.49 C169.54 564.55 169.54 564.55 172.49 564.37 C173.32 560.66 173.7 557.08 173.92 553.29 C176.73 507.13 176.73 507.13 188.49 495.37 C178.37 494.73 168.51 498.63 161.77 506.34 Z M190.49 502.37 C181.53 516.09 181.31 533.27 181.18 549.06 C181.15 550.23 181.12 551.4 181.09 552.61 C181.04 559.36 181.31 564.85 185.49 570.37 C187.44 572.28 187.44 572.28 189.61 573.37 C190.3 573.76 190.98 574.15 191.68 574.56 C193.46 575.51 193.46 575.51 195.49 575.37 C195.62 574.19 195.76 573 195.9 571.78 C197.38 560.2 200.37 550.8 205.49 540.37 C210.34 530.31 213.62 521.65 214.49 510.37 C215.15 510.37 215.81 510.37 216.49 510.37 C214.06 504.73 209.17 500.84 203.86 497.93 C197.42 496.41 194.67 497.08 190.49 502.37 Z M217.49 511.37 C217.53 512.31 217.58 513.26 217.63 514.23 C217.93 525.09 216.11 533.44 211.05 543.18 C206.17 552.71 203.05 561.79 202.93 572.5 C202.91 573.21 202.9 573.92 202.88 574.65 C202.98 579.48 204.08 581.98 207.49 585.37 C208.86 586.28 210.23 587.19 211.63 588.06 C215.9 591.08 219.65 594.82 223.49 598.37 C225.6 597.57 225.6 597.57 226.27 595.72 C233.77 571.86 233.43 540.23 222.12 517.64 C220.96 515.52 219.76 513.43 218.49 511.37 C218.16 511.37 217.83 511.37 217.49 511.37 Z M254.49 543.37 C253.86 543.82 253.23 544.28 252.58 544.74 C243.45 551.81 240.19 561.62 238.74 572.69 C238.51 574.63 238.28 576.56 238.05 578.5 C237.09 586.33 235.91 593.95 234.04 601.63 C233.47 604.44 233.08 606.53 233.49 609.37 C235.37 612.26 235.37 612.26 237.86 615 C240.24 617.75 242.47 620.35 244.49 623.37 C245.48 623.37 246.47 623.37 247.49 623.37 C248.99 621.52 248.99 621.52 250.3 619.06 C250.76 618.26 251.22 617.46 251.7 616.63 C252.29 615.56 252.88 614.48 253.49 613.37 C253.93 612.58 254.38 611.78 254.84 610.97 C258.5 604.39 261.73 597.71 264.74 590.81 C265.44 589.2 265.44 589.2 266.15 587.57 C273.48 570.6 280.81 553.55 284.49 535.37 C274.64 530.45 262.2 537.52 254.49 543.37 Z M288.49 537.37 C286.5 542.25 285.02 547.07 283.74 552.18 C279.76 567.62 273.53 582.11 266.49 596.37 C265.8 597.79 265.11 599.21 264.41 600.64 C260.23 609.19 255.78 617.44 250.49 625.37 C249.9 630.37 251.05 632.91 253.86 637 C255.95 640.06 257.92 643 259.49 646.37 C263.96 644.34 266.88 641.33 270.3 637.87 C270.93 637.24 271.56 636.6 272.21 635.95 C276.94 631.09 280.91 626.14 284.49 620.37 C285.31 619.1 286.13 617.82 286.95 616.55 C291.56 609.35 295.93 602.16 299.49 594.37 C299.84 593.63 300.2 592.88 300.57 592.12 C304.62 583.42 306.96 574.96 307.49 565.37 C307.56 564.55 307.64 563.72 307.72 562.87 C308.15 555.42 305.78 549.34 301.01 543.59 C299.42 542.06 299.42 542.06 296.49 542.37 C296.49 541.71 296.49 541.05 296.49 540.37 C293.58 538.33 292.09 537.37 288.49 537.37 Z M-34.51 556.37 C-34.64 556.96 -34.76 557.55 -34.89 558.16 C-35.48 560.88 -36.09 563.59 -36.7 566.31 C-36.9 567.23 -37.09 568.16 -37.29 569.12 C-39.91 580.57 -44.69 588.18 -54.5 594.69 C-62.07 598.77 -71.1 598.5 -79.35 596.78 C-85.56 594.65 -89.84 590.75 -94.48 586.2 C-96.3 584.15 -96.3 584.15 -98.51 584.37 C-98.64 585.25 -98.64 585.25 -98.77 586.14 C-100.64 597.02 -104.89 606.55 -111.51 615.37 C-112.12 616.2 -112.72 617.04 -113.34 617.89 C-118.57 623.87 -127.01 628.26 -134.88 629.41 C-142.53 629.29 -150.72 626.36 -156.66 621.5 C-160.82 616.73 -163.63 610.97 -166.51 605.37 C-168.37 608.16 -169.19 610.22 -170.2 613.37 C-173.62 622.91 -178.49 631.29 -187.51 636.37 C-193.81 639.34 -200.61 639.56 -207.27 637.53 C-213.48 634.71 -217.55 630.86 -221.51 625.37 C-222.05 624.66 -222.58 623.96 -223.13 623.23 C-228.29 615.67 -229.77 607.2 -231.51 598.37 C-234.4 601.16 -236.92 603.8 -239.07 607.18 C-244.87 615.01 -253.94 620.29 -263.42 622.23 C-270.55 622.55 -276.8 619.93 -282.89 616.43 C-287.28 612.23 -289.85 605.75 -292.51 600.37 C-297.5 604.05 -300.12 607.49 -302.76 613.06 C-303.11 613.77 -303.45 614.49 -303.8 615.22 C-306.29 620.54 -308.1 625.47 -308.51 631.37 C-308.59 632.47 -308.67 633.57 -308.75 634.7 C-309.13 645.03 -307.16 654.2 -300.51 662.37 C-295.31 667.91 -288.9 671.83 -281.22 672.6 C-274.8 672.3 -269.37 669.47 -264.51 665.37 C-260.49 660.24 -257.94 654.38 -255.51 648.37 C-255.18 648.04 -254.85 647.71 -254.51 647.37 C-254.56 647.95 -254.6 648.54 -254.65 649.14 C-256.05 667.96 -255.59 685.29 -244.51 701.37 C-240.23 705.94 -235.01 708.9 -228.75 709.74 C-220.24 709.94 -214.07 708.3 -207.55 702.68 C-199.38 694.12 -193.51 681.26 -193.51 669.37 C-192.85 669.7 -192.19 670.03 -191.51 670.37 C-190.43 673.8 -189.58 677.27 -188.71 680.76 C-185.56 690.26 -177.98 698.36 -169.32 703.18 C-161 706.72 -152.06 707.37 -143.51 704.37 C-134.15 700.39 -126.92 693.55 -122.51 684.37 C-117.62 671.88 -116.56 658.64 -115.51 645.37 C-115.05 646.51 -114.59 647.64 -114.11 648.82 C-106.33 667.99 -106.33 667.99 -91.59 681.74 C-86.51 683.29 -81.68 683.14 -76.7 681.37 C-69.8 675.06 -67.98 667.53 -67.29 658.49 C-66.96 647.91 -69.37 638.58 -74.51 629.37 C-71.88 630.58 -70.38 631.5 -68.32 633.62 C-62.25 639.56 -54.61 644.83 -46.01 645.75 C-40.68 645.17 -36.95 643.52 -32.76 640.18 C-26.86 632.81 -26.57 624.5 -27.25 615.41 C-28.27 607.52 -31.41 600.51 -37.51 595.37 C-38.55 593.73 -39.55 592.06 -40.51 590.37 C-30.8 595.96 -30.8 595.96 -27.2 599.12 C-22.07 603.42 -18 603.78 -11.51 603.37 C-8.7 602.36 -7.84 602.04 -6.51 599.37 C-5.35 588.59 -6.97 581.29 -13.75 572.83 C-18.83 566.74 -24.45 560.17 -31.51 556.37 C-32.5 556.37 -33.49 556.37 -34.51 556.37 Z M30.6 571.45 C20.27 573.66 9.89 575.54 -0.51 577.37 C0.14 582.71 0.14 582.71 0.91 588.02 C1.78 594.08 1.32 598.88 -1.51 604.37 C-4.85 608.39 -7.89 610.95 -13.09 611.79 C-14.41 611.89 -14.41 611.89 -15.76 612 C-16.65 612.07 -17.55 612.15 -18.46 612.22 C-19.14 612.27 -19.82 612.32 -20.51 612.37 C-19.83 617.9 -18.77 622.36 -15.7 627.06 C-12.54 631.9 -10.85 636.78 -9.25 642.28 C-8.22 645.7 -7.41 648.18 -4.51 650.37 C-0.51 652.37 4.14 651.88 8.49 651.37 C12.34 650.02 15.9 648.31 19.49 646.37 C19.25 647.41 19.25 647.41 19 648.48 C17.27 658.23 17.98 666.74 23.24 675.18 C27.75 679.57 31.94 680.56 38.05 680.75 C42.6 680.61 45.62 679.89 49.49 677.37 C50.5 676.77 51.51 676.17 52.55 675.56 C54.95 673.77 56.41 672.4 58.24 670.12 C59.35 668.76 59.35 668.76 60.49 667.37 C61.15 667.37 61.81 667.37 62.49 667.37 C62.7 668.3 62.9 669.23 63.12 670.19 C65.25 678.77 67.45 684.67 75.25 689.45 C80.69 692.14 85.83 692.08 91.49 690.25 C99.26 686.99 103.26 681.71 107.23 674.45 C108.49 672.37 108.49 672.37 110.49 671.37 C110.64 671.94 110.78 672.51 110.93 673.09 C113.11 680.6 116.45 685.87 123.3 689.87 C127.91 691.88 131.71 691.85 136.49 690.37 C143.72 687.23 148.05 683.42 151.49 676.37 C152.09 675.22 152.68 674.06 153.3 672.87 C153.69 672.05 154.08 671.22 154.49 670.37 C156.48 672.36 157.05 673.53 158.11 676.06 C160.92 681.84 165.5 685.69 171.05 688.81 C177.72 690.35 182.23 689.1 188.12 685.92 C193.99 682.07 197.26 676.45 200.49 670.37 C199.56 677.3 197.54 682.43 192.49 687.37 C186.02 691.99 179.07 692.96 171.36 691.68 C166.35 690.52 162.27 688.96 159.24 684.55 C158.25 682.86 157.36 681.12 156.49 679.37 C152.74 680.62 151.77 682.2 149.49 685.37 C149.2 686.04 148.91 686.71 148.61 687.4 C147.24 689.81 146.1 690.41 143.61 691.56 C142.94 691.88 142.26 692.21 141.56 692.54 C134.81 695.25 128.13 695.2 121.44 692.42 C116.09 689.54 112.06 685.23 108.49 680.37 C108.03 680.96 107.57 681.55 107.09 682.16 C101.48 688.96 96.16 693.62 87.21 694.81 C80.43 695.06 75.84 694.61 70.49 690.37 C65.83 685.71 63.25 680.31 60.49 674.37 C59.8 674.85 59.11 675.34 58.4 675.83 C49.75 681.65 42 684.55 31.49 683.37 C25.09 681.61 21.1 677.81 17.49 672.37 C15.72 668.06 15.15 664.13 14.86 659.5 C14.75 657.77 14.75 657.77 14.64 656 C14.59 655.14 14.54 654.27 14.49 653.37 C13.59 653.53 12.69 653.7 11.76 653.86 C4.91 654.93 -1.69 654.36 -8.51 653.37 C-8.72 653.95 -8.93 654.53 -9.14 655.13 C-11.42 660.91 -13.86 665.43 -19.51 668.37 C-23.49 669.4 -27.43 669.98 -31.51 670.37 C-31.41 670.95 -31.31 671.54 -31.2 672.14 C-25.84 703.91 -25.84 703.91 -34.51 717.37 C-39.53 724.21 -45 729.81 -53.45 731.68 C-55.13 731.94 -56.82 732.17 -58.51 732.37 C-60.34 732.59 -60.34 732.59 -62.2 732.81 C-71.53 732.54 -81.41 728.15 -88.51 722.37 C-89.17 722.37 -89.83 722.37 -90.51 722.37 C-90.55 723.67 -90.59 724.97 -90.64 726.31 C-91.16 731.49 -92.57 736.16 -94.26 741.06 C-94.5 741.77 -94.74 742.48 -94.99 743.22 C-98.02 751.63 -102.73 757.85 -110.51 762.37 C-119.9 766.65 -131.35 766.95 -141.1 763.61 C-148.16 759.98 -153.72 753.6 -158.51 747.37 C-160.88 749.74 -161.76 751.95 -163.14 755 C-167.35 763.49 -172.96 769.57 -181.68 773.52 C-189.97 776 -198.62 775.23 -206.41 771.55 C-216.15 766.08 -221.48 756.5 -225.51 746.37 C-226.09 745.02 -226.68 743.66 -227.26 742.31 C-227.67 741.34 -228.09 740.37 -228.51 739.37 C-231.48 740.42 -233.78 741.56 -236.39 743.37 C-242.62 747.36 -249.26 748.29 -256.51 747.37 C-259.97 746.29 -263.22 744.88 -266.51 743.37 C-267.5 743.04 -268.49 742.71 -269.51 742.37 C-270.22 740.72 -270.89 739.05 -271.51 737.37 C-272.01 736.77 -272.5 736.17 -273.01 735.56 C-276.92 729.85 -277.08 721.81 -277.95 715.13 C-278.27 712.24 -278.27 712.24 -280.51 710.37 C-282.11 710.07 -283.71 709.82 -285.32 709.62 C-289.14 708.95 -291.13 708.3 -293.57 705.25 C-294.21 704.3 -294.85 703.35 -295.51 702.37 C-295.84 702.37 -296.17 702.37 -296.51 702.37 C-298.93 739.8 -299.09 780.44 -283.51 815.37 C-283.09 816.38 -283.09 816.38 -282.66 817.41 C-276.62 831.51 -269.77 845.83 -259.51 857.37 C-259 857.96 -258.49 858.55 -257.96 859.16 C-256.8 860.5 -255.63 861.84 -254.45 863.17 C-253.1 864.7 -251.77 866.24 -250.45 867.79 C-244.99 874.08 -239.1 879.29 -232.51 884.37 C-231.55 885.12 -230.59 885.88 -229.6 886.65 C-201.86 908 -162.28 927.37 -126.51 927.37 C-127.09 923.93 -127.96 921.11 -129.52 917.99 C-129.92 917.16 -130.33 916.33 -130.75 915.48 C-131.4 914.16 -131.4 914.16 -132.07 912.81 C-135.99 904.78 -139.5 896.68 -142.74 888.35 C-145.02 882.53 -147.52 876.88 -150.19 871.23 C-152.14 867.01 -153.85 862.71 -155.51 858.37 C-144.95 868.36 -136.89 883.82 -130.77 896.92 C-129.61 899.36 -129.61 899.36 -128.08 901.25 C-125.93 904.15 -124.41 907.33 -122.82 910.56 C-122.48 911.26 -122.14 911.96 -121.78 912.68 C-121.05 914.16 -120.33 915.64 -119.61 917.12 C-118.89 918.6 -118.16 920.09 -117.43 921.57 C-112.95 930.64 -109.01 939.52 -106.51 949.37 C-106.24 950.44 -105.96 951.51 -105.68 952.62 C-101.87 968.85 -101.2 985.34 -101.25 1001.95 C-101.24 1003.78 -101.24 1005.6 -101.24 1007.43 C-101.24 1011.23 -101.24 1015.04 -101.25 1018.84 C-101.26 1023.62 -101.26 1028.4 -101.24 1033.17 C-101.2 1053.14 -101.51 1072.95 -103.08 1092.86 C-103.58 1099.37 -103.61 1105.85 -103.51 1112.37 C-102.64 1112.47 -101.77 1112.56 -100.87 1112.66 C-98.79 1112.89 -96.71 1113.12 -94.62 1113.35 C-91.29 1113.37 -89.4 1113.02 -86.51 1111.37 C-84.15 1108.11 -83.72 1104.13 -82.95 1100.25 C-81.61 1093.57 -81.61 1093.57 -80.51 1091.37 C-78.86 1091.7 -77.21 1092.03 -75.51 1092.37 C-75.84 1099.3 -76.17 1106.23 -76.51 1113.37 C-74.63 1113.41 -72.76 1113.45 -70.82 1113.5 C-69.24 1113.53 -69.24 1113.53 -67.62 1113.57 C-63.07 1113.28 -60.58 1112.42 -57.31 1109.2 C-55.17 1105.83 -54.49 1102.98 -53.76 1099.06 C-53.4 1097.18 -53.4 1097.18 -53.03 1095.26 C-52.86 1094.31 -52.69 1093.35 -52.51 1092.37 C-50.86 1092.37 -49.21 1092.37 -47.51 1092.37 C-47.51 1098.97 -47.51 1105.57 -47.51 1112.37 C-42.81 1111.54 -42.81 1111.54 -38.01 1110.68 C-37.04 1110.52 -36.07 1110.36 -35.07 1110.19 C-29.12 1109.06 -24.13 1107.4 -19.51 1103.37 C-16.61 1098.98 -15.37 1093.98 -14.01 1088.93 C-13.8 1088.14 -13.58 1087.35 -13.36 1086.53 C-11.75 1080.53 -10.44 1074.5 -9.3 1068.4 C-8.67 1065.07 -7.92 1061.78 -7.15 1058.49 C-4.44 1046.85 -2.64 1035.12 -0.89 1023.31 C-0.44 1020.31 0.01 1017.32 0.47 1014.32 C0.75 1012.48 1.02 1010.63 1.3 1008.79 C1.9 1004.78 2.58 1000.83 3.49 996.88 C4.62 991.99 5.32 987.08 6 982.11 C6.13 981.17 6.26 980.22 6.39 979.24 C6.66 977.25 6.93 975.27 7.2 973.28 C7.61 970.25 8.03 967.22 8.45 964.19 C8.72 962.25 8.98 960.3 9.25 958.36 C9.37 957.47 9.5 956.57 9.62 955.64 C10.27 950.83 10.62 946.22 10.49 941.37 C9.42 941.7 8.34 942.03 7.24 942.37 C-0.54 944.27 -8.66 944.77 -15.76 940.66 C-18.66 938.52 -21.03 935.97 -23.51 933.37 C-24.17 933.37 -24.83 933.37 -25.51 933.37 C-26.85 935.23 -26.85 935.23 -28.2 937.56 C-31.65 942.93 -35.33 946.31 -41.51 948.37 C-49.4 949.2 -55.14 946.58 -61.48 941.93 C-62.86 940.79 -64.19 939.58 -65.51 938.37 C-65.88 938.97 -66.24 939.58 -66.61 940.2 C-70.55 946.45 -74.15 950.42 -81.32 952.81 C-86.18 953.84 -90.21 952.73 -94.51 950.37 C-96.72 948.48 -97.9 946.86 -99.51 944.37 C-99.51 943.38 -99.51 942.39 -99.51 941.37 C-99.04 941.86 -98.57 942.36 -98.08 942.87 C-93.9 946.92 -90.68 949.44 -84.74 949.63 C-79.79 949.06 -76.19 947.16 -72.79 943.53 C-69.81 939.71 -67.64 935.72 -65.51 931.37 C-64.85 931.04 -64.19 930.71 -63.51 930.37 C-63.33 931.03 -63.14 931.69 -62.95 932.37 C-60.76 936.94 -57.13 942.06 -52.51 944.37 C-43.66 945.3 -43.66 945.3 -35.51 942.43 C-30.26 937.84 -27.04 931.29 -26.51 924.37 C-24.26 926.49 -22.56 928.69 -20.82 931.25 C-16.69 936.69 -13.04 939.84 -6.13 940.88 C-0.87 941.13 4.19 941.33 8.68 938.25 C16.3 929.47 15.51 912.08 16.55 900.93 C16.87 897.58 17.2 894.23 17.52 890.88 C17.6 890.06 17.68 889.24 17.76 888.39 C18.24 883.55 18.83 878.74 19.51 873.93 C20.8 864.61 21.4 855.25 22.05 845.87 C22.24 843.19 22.43 840.51 22.62 837.83 C22.74 836.18 22.86 834.53 22.97 832.88 C23.29 828.34 23.83 823.88 24.49 819.37 C24.55 816.73 24.57 814.08 24.55 811.43 C24.55 810.75 24.54 810.07 24.54 809.36 C24.53 807.7 24.51 806.03 24.49 804.37 C25.15 804.7 25.81 805.03 26.49 805.37 C27.73 812.05 27.65 818.76 27.66 825.54 C27.66 826.72 27.66 827.89 27.67 829.11 C27.68 832.92 27.68 836.74 27.68 840.56 C27.68 842.5 27.68 842.5 27.68 844.49 C27.68 864.75 27.15 884.89 25.67 905.1 C25.48 908.53 25.46 911.94 25.49 915.37 C31.35 915.67 36.24 914.6 41.86 913 C47.22 911.51 52.57 910.1 58 908.92 C63.2 907.77 68.37 906.49 73.55 905.25 C75.28 904.83 75.28 904.83 77.04 904.41 C79.86 903.73 82.67 903.05 85.49 902.37 C85.37 901.77 85.25 901.16 85.12 900.54 C84.77 898.76 84.42 896.99 84.07 895.22 C83.7 893.43 83.32 891.64 82.92 889.86 C81.58 883.75 81.14 877.93 81.18 871.68 C81.18 870.72 81.19 869.76 81.19 868.76 C81.33 860.62 82.36 853.26 84.49 845.37 C84.67 844.67 84.84 843.98 85.03 843.26 C88 831.73 92.2 820.74 96.74 809.75 C97.01 809.1 97.27 808.44 97.55 807.77 C102.11 796.75 102.11 796.75 104.49 794.37 C102.69 801.85 100.69 809.24 98.53 816.62 C93.77 832.82 93.77 832.82 90.49 849.37 C90.38 850.06 90.28 850.74 90.17 851.45 C88.87 860.19 87.9 868.61 89.49 877.37 C89.6 878 89.71 878.63 89.82 879.28 C91.74 889.7 94.86 898.29 100.49 907.37 C101.06 908.33 101.63 909.28 102.21 910.27 C105.6 915.8 109.37 920.85 113.46 925.87 C125.88 941.19 134.38 957.69 140.49 976.37 C140.83 977.36 141.16 978.36 141.51 979.38 C146.22 994.63 145.79 1011.23 145.69 1027 C145.68 1030.26 145.67 1033.52 145.67 1036.78 C145.67 1038.89 145.66 1041 145.66 1043.11 C145.66 1044.07 145.65 1045.02 145.65 1046 C145.61 1051.9 145.27 1057.71 144.71 1063.58 C144.37 1067.85 144.4 1072.1 144.49 1076.37 C146.93 1076.45 149.36 1076.51 151.8 1076.56 C152.49 1076.58 153.18 1076.61 153.89 1076.63 C157.77 1076.77 157.77 1076.77 161.14 1075.12 C162.7 1073.1 163.14 1071.63 163.66 1069.14 C163.83 1068.34 164 1067.54 164.17 1066.71 C164.34 1065.88 164.51 1065.04 164.68 1064.18 C164.85 1063.34 165.03 1062.49 165.21 1061.62 C165.65 1059.54 166.07 1057.46 166.49 1055.37 C168.14 1055.04 169.79 1054.71 171.49 1054.37 C171.6 1062.11 171.46 1069.69 170.49 1077.37 C172.55 1077.45 174.61 1077.51 176.68 1077.56 C178.4 1077.61 178.4 1077.61 180.16 1077.66 C183.86 1077.34 185.62 1076.72 188.49 1074.37 C190.9 1069.93 191.24 1065.05 191.93 1060.11 C192.49 1057.37 192.49 1057.37 194.49 1054.37 C195.81 1054.7 197.13 1055.03 198.49 1055.37 C198.49 1062.63 198.49 1069.89 198.49 1077.37 C201.44 1076.94 204.39 1076.5 207.43 1076.06 C208.34 1075.93 209.25 1075.8 210.18 1075.67 C215.72 1074.82 221.43 1073.86 226.49 1071.37 C228.46 1068.42 229.14 1066.04 229.94 1062.62 C230.49 1060.36 231.14 1058.14 231.82 1055.91 C234.8 1046.07 237.29 1036.22 239.24 1026.12 C239.44 1025.11 239.63 1024.09 239.84 1023.05 C242.58 1008.35 243.87 993.87 243.8 978.93 C243.8 977.77 243.8 977.77 243.8 976.59 C243.76 962.37 242.68 948.44 240.49 934.37 C240.37 933.58 240.25 932.8 240.13 931.99 C238.78 923.08 236.5 914.62 233.67 906.09 C232.63 902.82 231.75 899.58 230.95 896.25 C230.54 894.6 230.11 892.96 229.67 891.32 C229.43 890.39 229.18 889.45 228.93 888.5 C228.68 887.57 228.43 886.64 228.17 885.69 C223.59 863.42 226.4 839.52 232.79 817.96 C233.02 817.19 233.25 816.42 233.48 815.63 C233.94 814.11 234.4 812.59 234.86 811.07 C235.77 808.07 236.49 805.53 236.49 802.37 C237.15 802.37 237.81 802.37 238.49 802.37 C238.18 803.55 237.88 804.73 237.56 805.95 C236.09 812.61 235.74 819.33 235.3 826.12 C235.16 828.04 235.16 828.04 235.01 830 C234.47 838.24 234.61 846.16 235.49 854.37 C253.59 830.32 265.87 801.28 269.13 771.28 C269.49 768.37 269.49 768.37 270.49 765.37 C270.59 763.98 270.64 762.59 270.65 761.2 C270.66 759.94 270.66 759.94 270.68 758.66 C270.68 757.75 270.69 756.84 270.69 755.9 C270.7 754.95 270.7 754 270.71 753.03 C270.72 751 270.72 748.98 270.73 746.96 C270.74 743.94 270.77 740.91 270.8 737.89 C270.9 720.95 268.98 705.04 264.24 688.75 C263.94 687.7 263.64 686.66 263.34 685.58 C260.7 676.56 257.36 667.93 253.49 659.37 C252.83 659.37 252.17 659.37 251.49 659.37 C251.27 660.33 251.27 660.33 251.04 661.31 C249.06 668.96 246.11 673.96 239.49 678.37 C233.3 679.12 227.73 678.99 222.49 675.37 C217.75 671.16 217.75 671.16 216.49 667.37 C217.32 668.11 217.32 668.11 218.17 668.87 C218.89 669.51 219.62 670.15 220.36 670.81 C221.08 671.45 221.8 672.08 222.54 672.74 C226.41 675.98 229.83 675.71 234.73 675.64 C238.7 675.25 240.61 674.11 243.49 671.37 C247.85 665.57 250.04 660.24 249.96 652.93 C248.6 645.61 242.5 639.14 237.95 633.42 C236.49 631.37 236.49 631.37 234.77 628.16 C232.18 623.55 228.71 619.84 225.11 616 C224.47 615.27 223.82 614.55 223.15 613.8 C220.26 610.7 218.35 608.65 214.26 607.33 C211.74 607.37 209.88 607.65 207.49 608.37 C199.44 609.26 194.14 607.97 187.49 603.37 C187.05 603.91 186.62 604.46 186.17 605.02 C181.61 610.49 177.61 613.9 170.49 615.37 C168.87 615.46 167.24 615.5 165.61 615.5 C164.29 615.49 164.29 615.49 162.94 615.49 C160.49 615.37 160.49 615.37 157.36 614.56 C153.42 614.3 151.48 615.91 148.32 618.14 C145.26 620.19 142.72 620.49 139.14 620.43 C138.31 620.43 137.48 620.42 136.62 620.41 C134.86 620.38 133.11 620.36 131.36 620.33 C130.53 620.32 129.69 620.32 128.83 620.31 C127.69 620.29 127.69 620.29 126.53 620.27 C124.28 620.29 124.28 620.29 121.49 621.37 C112.94 622.2 106.42 621.69 99.49 616.37 C98.47 615.39 97.46 614.4 96.49 613.37 C94.34 614.44 92.2 615.53 90.08 616.66 C83.4 620.02 77.95 621.25 70.49 620.37 C69.5 620.04 68.51 619.71 67.49 619.37 C65.39 619.24 63.28 619.14 61.18 619.06 C55.61 618.67 52.63 618.08 48.49 614.37 C47.62 613.69 47.62 613.69 46.74 613 C43.52 608.81 43.1 603.47 42.49 598.37 C41.45 598.9 41.45 598.9 40.4 599.43 C31.81 603.59 25.8 605.74 16.55 602.62 C12.82 601.21 11.76 600.78 9.49 597.37 C10.61 597.82 10.61 597.82 11.76 598.28 C20.44 601.5 26.67 602.65 35.22 598.73 C38.7 597.05 42.1 595.24 45.49 593.37 C45.57 594.31 45.66 595.25 45.75 596.22 C46.68 606 46.68 606 52.49 613.37 C60.81 617.39 75.79 619.63 84.73 616.61 C88.64 614.79 91.66 612.68 94.49 609.37 C97.24 610.53 98.93 611.77 101.18 613.81 C105.89 617.83 111.27 619.23 117.36 619.62 C120.52 619.49 120.52 619.49 123.49 618.37 C125.04 618.26 126.6 618.19 128.16 618.16 C129.07 618.13 129.99 618.1 130.92 618.07 C132.83 618.02 134.74 617.98 136.64 617.94 C143.53 617.71 147.71 616.22 153.49 612.37 C157.12 612.16 160.34 612.34 163.93 613 C169.28 613.56 173.35 612.99 177.63 609.75 C178.99 608.54 180.33 607.3 181.63 606.03 C183.52 604.34 185.13 603.3 187.49 602.37 C190.56 602.63 193.01 603.16 195.82 604.41 C198.78 605.48 201.04 605.61 204.18 605.56 C205.6 605.55 205.6 605.55 207.06 605.54 C209.5 605.53 209.5 605.53 211.49 604.37 C209.95 599.99 206.55 597.84 202.93 595.25 C202.26 594.77 201.6 594.29 200.91 593.8 C188.23 584.82 175.09 577.69 160.49 572.37 C159.54 572.02 159.54 572.02 158.57 571.66 C118.08 556.81 71.85 562.62 30.6 571.45 Z M349.85 588.44 C347.88 591.24 347.46 593.97 346.74 597.31 C340.62 623.76 329.85 649.93 310.49 669.37 C315.35 670.99 319.04 668.56 323.49 666.37 C329.47 662.84 334.06 659.52 337.49 653.37 C338.28 652.24 338.28 652.24 339.1 651.08 C350.05 635.24 352.34 615.61 354.94 596.96 C355.04 596.2 355.15 595.43 355.26 594.64 C355.5 592.21 355.53 589.82 355.49 587.37 C351.72 587.01 351.72 587.01 349.85 588.44 Z M359.49 587.37 C359.36 589.12 359.36 589.12 359.23 590.9 C358.41 600.78 357.07 610.42 355.05 620.12 C354.85 621.12 354.64 622.12 354.43 623.15 C353.22 628.77 351.72 634.07 349.49 639.37 C349.01 640.5 348.54 641.63 348.05 642.79 C341.81 656.09 332.35 667.95 318.11 673.12 C314.77 674.14 311.51 674.65 308.05 675.12 C302.65 676.02 299.28 678.21 294.97 681.49 C292.45 683.4 289.88 685.05 287.18 686.68 C286.4 687.15 285.62 687.62 284.81 688.11 C282.43 689.4 280.03 690.41 277.49 691.37 C277.49 693.02 277.49 694.67 277.49 696.37 C294.19 701.94 320.56 697.15 336.49 690.37 C337.26 690.05 338.03 689.72 338.82 689.39 C350.01 683.95 357.19 674.27 362.49 663.37 C362.98 662.59 363.48 661.81 363.99 661.01 C372.03 646.88 373.73 628.75 373.93 612.87 C373.95 611.76 373.97 610.65 373.99 609.51 C373.97 601.46 372.59 596.4 367.61 589.93 C364.95 587.98 362.72 587.82 359.49 587.37 Z M-21.51 633.37 C-21.78 634.44 -22.05 635.52 -22.32 636.62 C-23.39 639.98 -24.35 641.71 -26.51 644.37 C-26.51 645.03 -26.51 645.69 -26.51 646.37 C-37.85 652.19 -48.23 652.65 -60.51 649.37 C-60.55 650.41 -60.59 651.45 -60.62 652.52 C-61.17 664.99 -62.48 676.69 -72.01 685.75 C-78 689.64 -83.51 690.16 -90.51 689.37 C-99.77 686.54 -105.98 679.6 -110.51 671.37 C-112.37 674.15 -112.93 675.66 -113.7 678.81 C-116.48 688.49 -122.32 699.05 -131.01 704.5 C-133.27 705.92 -135.42 707.29 -137.48 708.99 C-144.47 713.75 -157.46 712.23 -165.51 711.37 C-176.87 708.07 -184.99 699.89 -191.51 690.37 C-193.78 692.41 -193.78 692.41 -195.2 696 C-198.67 703.1 -203.75 708.37 -210.51 712.37 C-211.5 713.03 -212.49 713.69 -213.51 714.37 C-222.31 716.66 -232.59 716.23 -240.82 712.25 C-251.22 706.04 -256.13 695.65 -259.51 684.37 C-260.37 680.39 -261.02 676.42 -261.51 672.37 C-263.94 673.31 -266.3 674.27 -268.62 675.44 C-276.47 679.2 -284.02 678.75 -292.51 678.37 C-292.57 680.75 -292.61 683.12 -292.64 685.5 C-292.65 686.16 -292.67 686.83 -292.69 687.51 C-292.74 692.63 -292.27 697 -289.16 701.19 C-285.99 703.46 -282.33 703.57 -278.51 703.37 C-274.07 700.58 -271.33 694.76 -268.51 690.37 C-268.66 691.07 -268.8 691.76 -268.95 692.48 C-271.17 704.66 -273.6 721.04 -267.86 732.49 C-264.84 736.71 -261.45 739.73 -256.51 741.37 C-246.71 742.59 -238.84 738.8 -231.2 732.93 C-229.41 731.37 -229.41 731.37 -227.91 729.18 C-227.45 728.59 -226.99 727.99 -226.51 727.37 C-225.85 727.37 -225.19 727.37 -224.51 727.37 C-224.29 728.54 -224.07 729.71 -223.85 730.92 C-220.95 745.64 -216.57 756.63 -204.51 766.37 C-197.56 769.6 -189.51 769.34 -182.32 766.87 C-174.25 763.24 -169.96 756.54 -166.58 748.59 C-164.26 741.59 -162.51 733.76 -162.51 726.37 C-161.52 726.37 -160.53 726.37 -159.51 726.37 C-159.38 726.97 -159.25 727.58 -159.11 728.2 C-158.84 729.4 -158.84 729.4 -158.57 730.62 C-158.4 731.41 -158.23 732.2 -158.05 733.01 C-157.56 735.14 -157.05 737.26 -156.51 739.37 C-155.85 739.37 -155.19 739.37 -154.51 739.37 C-154.41 739.94 -154.3 740.51 -154.2 741.1 C-152.03 748.31 -145.74 753.73 -139.31 757.2 C-131.71 760.38 -124.95 761.38 -117.14 758.43 C-109.65 754.79 -104.73 750.1 -101.51 742.37 C-101 741.3 -100.48 740.23 -99.95 739.12 C-96.55 730.94 -96.19 722.24 -95.76 713.5 C-95.51 710.37 -95.51 710.37 -94.51 708.37 C-93.91 709.03 -93.32 709.69 -92.7 710.37 C-90.64 712.71 -90.64 712.71 -87.51 712.37 C-87.51 713.36 -87.51 714.35 -87.51 715.37 C-86.85 715.37 -86.19 715.37 -85.51 715.37 C-85.51 716.03 -85.51 716.69 -85.51 717.37 C-83.7 718.9 -83.7 718.9 -81.39 720.37 C-80.62 720.89 -79.86 721.4 -79.07 721.93 C-70.82 726.58 -59.98 726.95 -50.84 724.72 C-44.17 721.71 -40.01 716.12 -37.14 709.56 C-32.84 696.47 -34.56 679.09 -40.51 666.81 C-41.74 664.69 -42.99 662.59 -44.26 660.5 C-45.51 658.37 -45.51 658.37 -45.51 656.37 C-43.53 657.03 -41.55 657.69 -39.51 658.37 C-39.51 659.03 -39.51 659.69 -39.51 660.37 C-35.85 662.05 -32.97 662.64 -28.95 662.62 C-27.56 662.63 -27.56 662.63 -26.13 662.64 C-22.55 662.27 -20.4 661.23 -17.82 658.75 C-14.58 652.88 -15.41 646.93 -16.84 640.65 C-17.66 637.89 -18.76 635.66 -20.51 633.37 C-20.84 633.37 -21.17 633.37 -21.51 633.37 Z M-255.51 879.37 C-255.37 881.95 -255.22 884.54 -255.07 887.12 C-255.03 887.83 -255 888.54 -254.96 889.27 C-254.71 893.51 -254.4 897.73 -254.03 901.95 C-252.17 924.15 -252.26 946.49 -252.26 968.75 C-252.26 969.52 -252.26 970.29 -252.26 971.09 C-252.27 993.39 -252.45 1015.49 -255.18 1037.66 C-255.57 1040.87 -255.96 1044.08 -256.34 1047.3 C-257.59 1057.73 -258.85 1068.16 -260.17 1078.59 C-260.4 1080.41 -260.4 1080.41 -260.64 1082.26 C-260.93 1084.56 -261.22 1086.85 -261.52 1089.15 C-261.72 1090.69 -261.72 1090.69 -261.92 1092.26 C-262.03 1093.15 -262.15 1094.05 -262.27 1094.97 C-262.58 1097.63 -262.58 1097.63 -262.51 1101.37 C-256.24 1102.03 -249.97 1102.69 -243.51 1103.37 C-243.33 1101.99 -243.15 1100.6 -242.96 1099.17 C-242.71 1097.34 -242.45 1095.51 -242.2 1093.68 C-242.08 1092.77 -241.96 1091.86 -241.84 1090.92 C-240.57 1081.96 -240.57 1081.96 -237.51 1078.37 C-236.52 1078.37 -235.53 1078.37 -234.51 1078.37 C-234.51 1086.62 -234.51 1094.87 -234.51 1103.37 C-226.04 1104.15 -226.04 1104.15 -218.39 1101.43 C-216 1097.53 -214.73 1093.76 -213.51 1089.37 C-212.95 1087.52 -212.39 1085.66 -211.82 1083.81 C-211.39 1082.33 -210.95 1080.85 -210.51 1079.37 C-209.19 1079.37 -207.87 1079.37 -206.51 1079.37 C-207.48 1096.26 -207.48 1096.26 -208.51 1103.37 C-192.37 1101.65 -192.37 1101.65 -178.51 1094.37 C-176.82 1091.49 -175.64 1088.51 -174.51 1085.37 C-174.26 1084.71 -174 1084.06 -173.74 1083.38 C-170.92 1075.61 -169.34 1067.42 -167.51 1059.37 C-167.01 1057.18 -166.51 1055 -166.01 1052.81 C-165.77 1051.77 -165.53 1050.73 -165.29 1049.65 C-164.59 1046.69 -163.84 1043.74 -163.08 1040.79 C-159.32 1026.12 -156.53 1011.39 -154.59 996.37 C-153.86 990.82 -153.03 985.32 -152.01 979.81 C-149.32 965.08 -147.18 950.34 -146.51 935.37 C-147.11 935.24 -147.7 935.1 -148.31 934.96 C-151.05 934.33 -153.78 933.7 -156.51 933.06 C-157.45 932.85 -158.38 932.63 -159.34 932.41 C-164.25 931.26 -168.94 929.96 -173.63 928.11 C-175.54 927.36 -177.46 926.7 -179.41 926.05 C-191.56 921.96 -203.61 917.2 -214.51 910.37 C-215.35 909.85 -216.19 909.33 -217.05 908.79 C-226.37 902.9 -235.26 896.81 -243.58 889.57 C-246.17 887.1 -246.17 887.1 -249.51 886.37 C-249.76 885.77 -250.01 885.17 -250.26 884.56 C-251.68 882.08 -253.2 881.01 -255.51 879.37 Z M78.99 915.5 C72.23 917.63 65.46 919.39 58.55 920.93 C57.17 921.25 57.17 921.25 55.75 921.56 C51.26 922.57 46.75 923.52 42.23 924.4 C41.4 924.56 40.58 924.73 39.74 924.9 C38.2 925.2 36.66 925.49 35.12 925.76 C31.71 926.45 29.69 927.18 27.12 929.57 C20.91 940.21 20.66 954.66 19.18 966.68 C19.08 967.43 18.99 968.17 18.89 968.93 C18.63 971.07 18.37 973.22 18.12 975.36 C17.98 976.61 17.83 977.87 17.68 979.16 C17.51 981.93 17.59 983.78 18.49 986.37 C19.42 985.2 19.42 985.2 20.36 984 C22.49 981.37 22.49 981.37 24.49 979.37 C24.72 979.96 24.95 980.55 25.19 981.16 C27.24 986.13 29.03 990.13 33.49 993.37 C39.59 994.97 43.95 994.37 49.49 991.37 C51.75 989.84 53.51 988.3 55.49 986.37 C55.49 985.71 55.49 985.05 55.49 984.37 C56.15 984.37 56.81 984.37 57.49 984.37 C58.15 983.05 58.81 981.73 59.49 980.37 C59.09 985.87 57.21 989.43 53.49 993.37 C49.57 996.41 45.47 998.17 40.49 998.37 C33.69 997.48 28.65 994.87 24.11 989.62 C23.58 988.88 23.04 988.14 22.49 987.37 C18.24 990.12 16.22 992.05 15.02 997.03 C14.65 998.97 14.31 1000.92 13.99 1002.87 C13.8 1003.93 13.6 1004.99 13.41 1006.08 C12.86 1009.14 12.34 1012.19 11.84 1015.25 C11.46 1017.54 11.08 1019.82 10.69 1022.1 C9.3 1030.32 7.94 1038.54 6.62 1046.77 C6.51 1047.48 6.39 1048.18 6.28 1048.92 C5.77 1052.14 5.49 1055.1 5.49 1058.37 C6.48 1058.37 7.47 1058.37 8.49 1058.37 C8.75 1057.11 9.02 1055.84 9.29 1054.54 C9.65 1052.88 10.01 1051.22 10.36 1049.56 C10.54 1048.73 10.71 1047.89 10.89 1047.03 C11.06 1046.23 11.24 1045.43 11.42 1044.6 C11.58 1043.86 11.73 1043.12 11.89 1042.36 C12.49 1040.37 12.49 1040.37 14.49 1037.37 C15.81 1037.7 17.13 1038.03 18.49 1038.37 C18.49 1045.3 18.49 1052.23 18.49 1059.37 C20.72 1059.43 22.94 1059.49 25.24 1059.56 C26.49 1059.59 27.74 1059.63 29.04 1059.66 C32.37 1059.55 32.37 1059.55 34.8 1058.43 C37.51 1055.12 37.96 1051.33 38.74 1047.18 C38.91 1046.34 39.08 1045.49 39.26 1044.62 C39.68 1042.54 40.09 1040.46 40.49 1038.37 C43.95 1037.38 43.95 1037.38 47.49 1036.37 C47.16 1043.63 46.83 1050.89 46.49 1058.37 C53.1 1058.37 57.2 1057.98 63.24 1056.18 C63.98 1055.99 64.72 1055.79 65.48 1055.59 C70.29 1054.19 72.91 1052.88 75.49 1048.37 C76.99 1044.72 78.22 1041.01 79.43 1037.25 C79.77 1036.19 80.12 1035.13 80.48 1034.03 C83.32 1025.19 85.75 1016.26 87.98 1007.24 C88.45 1005.52 89.03 1003.84 89.62 1002.16 C90.74 999.06 90.74 999.06 90.49 994.37 C84.55 993.38 84.55 993.38 78.49 992.37 C81.55 991.92 84.61 991.46 87.67 991 C90.61 990.61 90.61 990.61 92.49 988.37 C97 973.91 96.91 957.93 96.99 942.93 C97 942.09 97.01 941.24 97.02 940.37 C97.53 926.69 97.53 926.69 92.49 914.37 C87.8 912.25 83.65 913.93 78.99 915.5 Z " fill="#000000" transform="translate(685.51171875,45.62890625)"/>
<path d="M0 0 C1.27 0.06 1.27 0.06 2.57 0.13 C12.63 0.85 20.4 4.93 29 10 C30.17 10.68 30.17 10.68 31.36 11.38 C37.42 15.27 42.54 20.13 47.69 25.12 C48.42 25.82 49.15 26.51 49.91 27.23 C50.58 27.9 51.25 28.57 51.95 29.26 C52.87 30.16 52.87 30.16 53.8 31.07 C55 33 55 33 54.82 35.61 C54 38 54 38 52 40 C52.47 40.28 52.95 40.56 53.43 40.85 C65.63 48.24 75.62 56.93 80 71 C84.06 87.63 84.98 105.43 80 122 C78.37 124.49 77.06 124.97 74.32 126.18 C68.88 125.89 66.35 122.05 62.81 118.19 C61.4 116.7 59.99 115.21 58.58 113.73 C57.97 113.06 57.35 112.4 56.71 111.71 C54.91 109.8 54.91 109.8 52 108 C52 108.67 51.99 109.35 51.99 110.04 C51.79 128.66 50.19 143.92 40 160 C39.56 160.73 39.12 161.45 38.67 162.2 C34.79 168.05 29.39 172.13 23 175 C17.67 175.49 17.67 175.49 14.69 173.31 C12.86 170.8 12.34 169.06 12 166 C11.34 166 10.68 166 10 166 C9.75 166.88 9.5 167.76 9.25 168.66 C4.58 181.14 -7.88 189.88 -19.46 195.38 C-22.69 196.17 -24.12 195.57 -27 194 C-30.37 189.89 -31.03 185.09 -32 180 C-32.21 179.18 -32.41 178.35 -32.62 177.5 C-33.2 173.67 -33.08 169.86 -33 166 C-35.82 168.49 -37.66 171.05 -39.56 174.25 C-43.3 179.98 -48.3 183.36 -54 187 C-54.74 187.48 -55.49 187.97 -56.25 188.47 C-66.46 194.64 -78.25 197.16 -90.06 197.25 C-91.1 197.28 -91.1 197.28 -92.17 197.31 C-96.63 197.35 -99.55 196.91 -103 194 C-107.04 186.67 -105.04 176.96 -104 169 C-104.77 169.27 -104.77 169.27 -105.55 169.55 C-119.33 174.07 -143.29 179.85 -157 173 C-156.68 165.73 -156.35 159.58 -153 153 C-152.41 151.44 -151.83 149.88 -151.25 148.31 C-145.08 133.17 -134.39 118.69 -119 112 C-117.54 111.25 -116.08 110.5 -114.62 109.75 C-112.4 108.63 -110.38 107.79 -108 107 C-108.66 106.75 -109.33 106.49 -110.01 106.23 C-121.95 101.58 -121.95 101.58 -125 97 C-125.78 91.39 -123.73 87.71 -121 83 C-120.46 82.06 -120.46 82.06 -119.9 81.1 C-114.4 71.97 -108.05 62.23 -99.88 55.31 C-97.84 53.58 -95.89 51.89 -94 50 C-93.01 50 -92.02 50 -91 50 C-90.67 49.01 -90.34 48.02 -90 47 C-87.93 45.5 -87.93 45.5 -85.31 44 C-84.41 43.48 -83.52 42.96 -82.59 42.43 C-79.76 40.87 -76.92 39.38 -74 38 C-74.97 37.32 -75.94 36.64 -76.94 35.94 C-79.6 33.72 -79.99 33.03 -81 29.5 C-81 24.62 -80.08 22.31 -77 18.56 C-68.86 11.61 -60.4 7.49 -49.56 7.66 C-45.23 8.23 -41.21 9.74 -37.11 11.22 C-33.56 12.11 -31.5 12.05 -28 11 C-25.7 9.29 -25.7 9.29 -23.69 7.12 C-16.51 0.43 -9.57 -0.6 0 0 Z M-23.5 14.94 C-25.59 17.81 -25.42 19.51 -25 23 C-24.08 26.28 -24.08 26.28 -23 29 C-26.88 27.39 -29.54 25.6 -32.38 22.56 C-38.09 16.71 -42.68 14.78 -50.94 14.56 C-59.28 14.86 -65.2 15.71 -71.12 21.88 C-73.27 24.3 -74.02 25.29 -73.94 28.56 C-72.22 33.03 -68.08 34.84 -64 37 C-61.68 37.83 -59.39 38.4 -57 39 C-56.67 39.66 -56.34 40.32 -56 41 C-56.94 41.15 -57.89 41.29 -58.86 41.45 C-72.38 43.81 -82.72 48.74 -93 58 C-93.48 58.43 -93.96 58.86 -94.45 59.3 C-101.62 65.83 -107.18 72.66 -112.16 80.97 C-114 84 -114 84 -115.69 86.22 C-117.6 88.81 -117.93 90.81 -118 94 C-115.22 98.22 -110.72 99.74 -106 101 C-92.34 103.38 -77.11 103.55 -65.02 96.18 C-62.46 94.69 -59.84 93.8 -57 93 C-59.39 97.44 -62.1 99.96 -66.12 103 C-75.98 110.82 -82.47 121.36 -87 133 C-87.43 134.06 -87.86 135.12 -88.3 136.22 C-90.88 142.72 -93.26 149.22 -95 156 C-95.28 157.07 -95.56 158.14 -95.85 159.25 C-98.31 169.89 -98.3 180.13 -98 191 C-79.77 192.03 -62.56 187.42 -48.38 175.45 C-40.87 167.72 -36.24 158.05 -32.29 148.16 C-28.69 139.35 -28.69 139.35 -26 138 C-26.01 139.24 -26.02 140.47 -26.03 141.74 C-26.07 146.35 -26.09 150.95 -26.11 155.56 C-26.12 157.55 -26.13 159.54 -26.15 161.53 C-26.18 164.39 -26.19 167.26 -26.2 170.13 C-26.21 171.01 -26.22 171.89 -26.23 172.8 C-26.23 177.93 -25.67 182.14 -24 187 C-21.11 187.86 -19.59 188.27 -16.79 187 C-14.51 185.35 -12.24 183.7 -10 182 C-9.4 181.59 -8.8 181.18 -8.18 180.75 C2.17 173.03 10.01 157.18 12.62 144.83 C13.46 138.58 13.2 132.23 13.12 125.94 C13.11 124.49 13.11 123.03 13.1 121.58 C13.08 118.05 13.04 114.53 13 111 C17.48 115.09 17.28 119.62 17.56 125.38 C17.61 126.23 17.65 127.08 17.69 127.96 C18.12 137.48 18.05 147 17.96 156.52 C17.95 158.33 17.95 158.33 17.94 160.16 C17.92 161.78 17.92 161.78 17.9 163.43 C17.82 165.99 17.82 165.99 19 168 C27.32 166.31 32.33 159.9 36.91 153.17 C48.06 135.83 46.97 111.76 42.85 92.28 C42.04 88.99 42.04 88.99 40.91 85.78 C39.91 82.71 39.85 80.2 40 77 C42.16 79.02 43.66 80.91 45.05 83.51 C45.42 84.18 45.78 84.85 46.16 85.55 C46.54 86.25 46.92 86.96 47.31 87.69 C53.61 99.08 61.33 110.26 72 118 C72.66 118 73.32 118 74 118 C78.58 99.02 79.25 78.66 68.75 61.36 C60.96 50.84 49.36 45.51 36.64 43.46 C30.61 42.73 24.56 42.89 18.5 42.94 C17.3 42.94 16.09 42.95 14.85 42.95 C11.9 42.96 8.95 42.98 6 43 C6 42.34 6 41.68 6 41 C15.11 38.61 23.92 37.37 33.31 36.81 C34.54 36.73 35.77 36.65 37.04 36.56 C40.02 36.37 43.01 36.18 46 36 C46.44 31.98 46.44 31.98 43.95 29.67 C37.9 24.35 31.79 19.36 25 15 C24.32 14.54 23.64 14.08 22.94 13.6 C7.68 4.07 -9.33 3.96 -23.5 14.94 Z M-132.19 130.12 C-140.59 139.81 -150 154.68 -150 168 C-132.26 167.79 -132.26 167.79 -114.75 165.25 C-113.67 165.03 -113.67 165.03 -112.57 164.81 C-107.7 163.65 -105 162 -102 158 C-100.62 154.83 -99.66 151.57 -98.69 148.25 C-96.46 141.1 -93.99 134.26 -90.75 127.5 C-90.42 126.81 -90.09 126.13 -89.75 125.42 C-88 121.84 -86.1 118.39 -84 115 C-83.44 114.07 -82.89 113.14 -82.31 112.19 C-81.88 111.47 -81.45 110.74 -81 110 C-100.96 109.18 -118.37 115.76 -132.19 130.12 Z " fill="#000000" transform="translate(496,191)"/>
<path d="M0 0 C3.05 2.46 5.86 5.06 8.64 7.81 C13.19 11.97 18.63 12.33 24.58 12.81 C24.39 14.64 24.39 14.64 23.58 16.81 C21.29 18.3 21.29 18.3 18.51 19.56 C17.14 20.2 17.14 20.2 15.73 20.86 C15.02 21.17 14.31 21.49 13.58 21.81 C13.63 22.92 13.63 22.92 13.68 24.05 C14.02 36.87 11.37 46.2 2.58 55.81 C-8.45 65.24 -21.28 66.57 -35.22 65.99 C-47.57 65.01 -58.7 57.16 -67.42 48.81 C-71.45 36.73 -67.7 20.48 -62.17 9.25 C-56.65 -0.87 -50.2 -5.96 -39.42 -10.19 C-23.76 -13.54 -12.27 -9.62 0 0 Z M-29.42 7.81 C-31.2 11.2 -31.42 12.9 -31.42 16.81 C-30.76 16.81 -30.1 16.81 -29.42 16.81 C-29.3 17.56 -29.18 18.3 -29.05 19.06 C-28.47 21.61 -27.69 23.54 -26.42 25.81 C-25.76 25.81 -25.1 25.81 -24.42 25.81 C-24.42 26.47 -24.42 27.13 -24.42 27.81 C-19.4 30.73 -15.39 32.81 -9.42 31.81 C-5.7 29.96 -5.7 29.96 -3.42 26.81 C-2.35 21.78 -2.39 17.09 -4.54 12.36 C-7.7 7.76 -10.96 5.32 -16.42 3.81 C-21.92 2.98 -25.55 3.6 -29.42 7.81 Z M2.58 14.81 C3.58 16.81 3.58 16.81 3.58 16.81 Z M3.58 17.81 C3.62 18.91 3.67 20.01 3.72 21.15 C4.29 40.76 4.29 40.76 -2.56 48.11 C-3.18 48.67 -3.79 49.23 -4.42 49.81 C-4.09 50.47 -3.76 51.13 -3.42 51.81 C3.62 44.11 6.68 37.73 6.83 27.19 C6.85 26.06 6.88 24.93 6.9 23.77 C6.84 20.8 6.84 20.8 5.06 18.91 C4.57 18.55 4.08 18.19 3.58 17.81 Z M-60.42 34.81 C-60.92 42.33 -60.92 42.33 -57.42 48.81 C-56.76 48.81 -56.1 48.81 -55.42 48.81 C-55.42 49.47 -55.42 50.13 -55.42 50.81 C-54.43 50.48 -53.44 50.15 -52.42 49.81 C-52.93 49.07 -52.93 49.07 -53.45 48.31 C-56.37 43.86 -58.23 40 -59.42 34.81 C-59.75 34.81 -60.08 34.81 -60.42 34.81 Z " fill="#000000" transform="translate(623.423583984375,388.18701171875)"/>
<path d="M0 0 C9.85 5.16 16.57 13.12 20.19 23.62 C21.91 29.42 22.37 34.78 22.38 40.81 C22.38 41.6 22.38 42.39 22.38 43.2 C22.14 55.94 22.14 55.94 17.82 60.1 C16.93 60.6 16.04 61.11 15.12 61.62 C14.15 62.19 13.17 62.75 12.16 63.33 C11.11 63.88 10.07 64.43 9 65 C7.94 65.57 6.88 66.14 5.78 66.73 C-5.03 72.35 -14.75 73.71 -26.69 70.44 C-36.51 67.08 -43.23 61.23 -48 52 C-50.81 44.6 -50.18 36.81 -50 29 C-50.92 29.04 -51.84 29.08 -52.79 29.12 C-56.87 28.97 -58.8 27.44 -62 25 C-61.5 23.51 -61.5 23.51 -61 22 C-59.29 21.37 -59.29 21.37 -57.06 20.88 C-51.65 19.25 -48.43 16.11 -44.4 12.27 C-41.13 9.18 -37.73 6.51 -34 4 C-33.19 3.44 -32.38 2.88 -31.55 2.3 C-22.19 -3.56 -10.34 -4.05 0 0 Z M-7 21 C-8.57 25.8 -7.93 29.38 -6 34 C-3.67 36.52 -1.08 38.46 2 40 C4.15 39.98 4.15 39.98 6.5 39.69 C7.69 39.57 7.69 39.57 8.91 39.45 C11.21 39.15 11.21 39.15 13 37 C13.27 31.02 11.66 24.34 9 19 C6.27 16.57 4.58 16.1 1 15.5 C-3.13 16.19 -4.49 17.71 -7 21 Z M-37 17 C-43.87 24.22 -44.48 30.78 -44.31 40.56 C-43.56 48.86 -39.27 55.6 -33 61 C-28 63.88 -22.63 66.16 -16.81 66.06 C-15.55 66.04 -14.3 66.02 -13 66 C-15.74 63.86 -18.52 62.05 -21.56 60.38 C-22.71 59.74 -22.71 59.74 -23.88 59.09 C-26.09 57.89 -26.09 57.89 -29 57 C-29.94 55.31 -29.94 55.31 -31 53 C-31.99 51.61 -31.99 51.61 -33 50.19 C-36.78 44.16 -37.3 38.35 -37.19 31.44 C-37.19 30.71 -37.19 29.98 -37.19 29.23 C-37.15 25.05 -36.81 21.11 -36 17 C-36.33 17 -36.66 17 -37 17 Z " fill="#000000" transform="translate(396,393)"/>
<path d="M0 0 C0.84 0.16 1.67 0.32 2.54 0.48 C5.2 1.33 6.86 2.39 8.94 4.25 C10 6.56 10 6.56 9.94 9.25 C8.36 12.24 7.67 13.46 4.94 15.25 C2.18 15.76 2.18 15.76 -0.94 16.06 C-4.73 16.49 -6.51 16.74 -9.33 19.36 C-11.2 21.83 -11.2 21.83 -12.76 24.35 C-13.19 24.98 -13.62 25.6 -14.06 26.25 C-14.72 26.25 -15.38 26.25 -16.06 26.25 C-16.37 26.87 -16.68 27.49 -17 28.12 C-17.69 29.5 -18.38 30.88 -19.06 32.25 C-19.33 35.68 -19.29 39.12 -19.31 42.56 C-19.33 43.51 -19.35 44.46 -19.38 45.44 C-19.47 52.38 -19.47 52.38 -16.06 58.25 C-9.08 60.58 0.37 60.44 7.14 57.35 C13.85 53.23 18.96 47.24 23.94 41.25 C25.92 41.75 25.92 41.75 27.94 42.25 C28.59 44.02 28.59 44.02 28.94 46.25 C24.58 55.28 15.4 62.25 6.2 65.56 C5.08 65.9 5.08 65.9 3.94 66.25 C3.31 66.44 2.68 66.63 2.04 66.83 C-5.64 68.36 -13.19 67.99 -20.06 64.25 C-21.05 63.92 -22.04 63.59 -23.06 63.25 C-24.82 64.19 -24.82 64.19 -26.5 65.62 C-32.63 70.53 -40.49 69.89 -48.01 69.49 C-58.02 68.34 -65.31 62.19 -72.06 55.25 C-72.39 54.92 -72.72 54.59 -73.06 54.25 C-73.1 52.58 -73.11 50.92 -73.06 49.25 C-71.36 48.49 -71.36 48.49 -69.06 48.25 C-66.77 49.98 -66.77 49.98 -64.31 52.44 C-57.75 58.65 -51.83 61.81 -42.75 62.5 C-38.38 62.2 -34.82 61.58 -31.06 59.25 C-26.32 52.59 -27.38 43.26 -28.44 35.46 C-29.37 32.15 -31.59 30.61 -34.06 28.25 C-39.34 21.69 -39.34 21.69 -41.06 18.25 C-43.51 17.71 -43.51 17.71 -46.38 17.38 C-49.81 16.8 -51.81 16.42 -54.75 14.5 C-56.5 11.49 -56.56 9.68 -56.06 6.25 C-54.28 3.11 -53.54 2.41 -50.06 1.25 C-44.59 0.72 -39.81 1.18 -34.56 2.81 C-26.59 5.18 -19.83 3.84 -12.17 0.97 C-7.84 -0.51 -4.5 -0.92 0 0 Z " fill="#000000" transform="translate(506.0625,465.75)"/>
<path d="M0 0 C0.99 0.33 1.98 0.66 3 1 C3.52 2.79 3.52 2.79 3.81 5.06 C5.17 11.99 8.95 16.84 14.69 20.88 C21.18 24.57 29.64 25.8 37 25 C45.37 22.4 52.03 18.48 58 12 C58.33 11.34 58.66 10.68 59 10 C59.66 10 60.32 10 61 10 C60.07 16.95 55.41 21.06 50.12 25.31 C40.81 30.34 31.44 31.53 20.97 29.38 C13.56 27.04 6.94 22.74 2.78 16.03 C1.51 13.25 1 11.06 1 8 C0.45 8.4 -0.09 8.8 -0.65 9.21 C-8.44 14.68 -16.28 18.48 -26 17 C-32.6 15.16 -37.34 11.83 -41 6 C-41 5.34 -41 4.68 -41 4 C-40.01 4 -39.02 4 -38 4 C-37.3 4.74 -36.6 5.49 -35.88 6.25 C-32.28 9.69 -28.78 11.62 -24 13 C-20.38 13.01 -20.38 13.01 -17 12 C-15.82 11.75 -14.65 11.5 -13.44 11.25 C-7.45 9.07 -3.74 5.03 0 0 Z " fill="#000000" transform="translate(442,844)"/>
<path d="M0 0 C0.99 0.33 1.98 0.66 3 1 C5.19 7.57 4.8 14.11 1.88 20.38 C-1.22 25.9 -5.11 29.51 -11 32 C-19.11 33.23 -25.15 31.3 -32 27 C-32.33 26.67 -32.66 26.34 -33 26 C-33.23 26.71 -33.46 27.43 -33.7 28.16 C-36.27 35.7 -38.57 42.33 -45.75 46.44 C-50.92 48.68 -55.83 49.05 -61.21 47.27 C-65.53 45.3 -68.41 43.09 -71 39 C-71 38.34 -71 37.68 -71 37 C-68.08 37.45 -66.65 38.25 -64.19 40 C-58.76 43.4 -54.04 43.28 -47.99 42.06 C-44.17 40.03 -41.65 36.99 -40.32 32.92 C-39.85 30.66 -39.49 28.41 -39.19 26.12 C-39.07 25.34 -38.95 24.56 -38.82 23.75 C-38.53 21.84 -38.26 19.92 -38 18 C-35 18 -35 18 -33.55 19.34 C-33.04 19.89 -32.53 20.43 -32 21 C-27.96 23.92 -24.07 26.62 -19 27 C-17.74 27.14 -16.48 27.29 -15.19 27.44 C-10.73 27.39 -8.11 25.46 -4.66 22.8 C-0.63 18.43 -0.62 13.33 -0.38 7.69 C-0.34 6.95 -0.3 6.21 -0.26 5.44 C-0.16 3.63 -0.08 1.81 0 0 Z " fill="#000000" transform="translate(890,941)"/>
<path d="M0 0 C0.99 0 1.98 0 3 0 C4.34 1.99 5.68 3.99 7 6 C11.55 8.96 16.78 8.78 22 8 C24.45 6.59 25.98 5.02 28 3 C28.99 3 29.98 3 31 3 C29.65 7.42 27.8 9.4 24 12 C19.03 13.66 13.62 14.01 8.67 12.11 C7.32 11.4 5.99 10.66 4.69 9.88 C2.87 8.77 2.87 8.77 0 9 C-1.71 10.62 -3.37 12.29 -5 14 C-8.14 17.14 -11.24 17.77 -15.55 18.14 C-21.51 17.8 -26.42 14.58 -31 11 C-31.61 11.64 -32.23 12.28 -32.86 12.93 C-33.67 13.76 -34.48 14.59 -35.31 15.44 C-36.11 16.26 -36.91 17.08 -37.74 17.93 C-40.58 20.53 -42.37 20.95 -46.19 21.25 C-50.54 20.96 -54.23 20.26 -58 18 C-59.5 15.31 -59.5 15.31 -60 13 C-57 13 -57 13 -54 15 C-49.1 15.59 -44.4 15.36 -39.62 14.12 C-35.64 10.9 -33.98 6.66 -32 2 C-28.79 3.34 -27.48 4.48 -25.81 7.5 C-23.75 10.53 -22.17 11.67 -18.62 12.62 C-14.01 13.33 -11.05 12.38 -7 10 C-3.5 7.18 -1.85 4.06 0 0 Z " fill="#000000" transform="translate(893,1035)"/>
<path d="M0 0 C0.99 0.49 0.99 0.49 2 1 C1.76 7.82 -0.12 12.13 -5 17 C-6.49 17.49 -6.49 17.49 -8 18 C-8 18.66 -8 19.32 -8 20 C-17.68 23.81 -17.68 23.81 -23 22 C-28.08 19.42 -31.63 16.66 -35 12 C-35.66 11.67 -36.32 11.34 -37 11 C-37.19 11.68 -37.37 12.36 -37.56 13.06 C-40.11 18.28 -44.53 22.85 -50 25 C-54.83 25.69 -58.85 25.52 -63.31 23.5 C-66.63 20.41 -69.09 17.12 -71 13 C-71 12.01 -71 11.02 -71 10 C-70.34 10 -69.68 10 -69 10 C-67.82 11.68 -67.82 11.68 -66.56 13.88 C-64.83 16.91 -64.01 17.99 -61 20 C-55.8 21.09 -51.7 20.24 -47.19 17.5 C-42.84 14.31 -40.93 10.93 -39 6 C-38.34 4.66 -37.68 3.33 -37 2 C-36.34 2 -35.68 2 -35 2 C-34.65 2.75 -34.3 3.5 -33.93 4.27 C-30.78 10.55 -28.74 14.56 -22 17 C-16.69 17.87 -12.49 16.99 -8 14 C-3.69 9.69 -1.89 5.77 0 0 Z " fill="#000000" transform="translate(672,1074)"/>
<path d="M0 0 C0.33 0 0.66 0 1 0 C0.42 7.21 -2.09 11.4 -7.31 16.25 C-11.93 19.99 -15.99 21.06 -21.94 20.88 C-28.91 19.71 -34.45 16.41 -39 11 C-39 10.34 -39 9.68 -39 9 C-39.99 9 -40.98 9 -42 9 C-42.28 10.08 -42.28 10.08 -42.56 11.19 C-44.51 15.01 -47.27 16.96 -51 19 C-56.93 20.8 -61.64 20.42 -67.25 17.81 C-71.04 15.78 -73.46 14.19 -75 10 C-75 9.01 -75 8.02 -75 7 C-74.01 7.33 -73.02 7.66 -72 8 C-71.86 8.64 -71.71 9.28 -71.56 9.94 C-71.21 12.16 -71.21 12.16 -69.19 13.12 C-68.1 13.56 -68.1 13.56 -67 14 C-66.1 14.56 -66.1 14.56 -65.19 15.12 C-61.21 16.72 -57.79 16.64 -53.76 15.2 C-47.51 12.14 -44.33 8 -41 2 C-38.4 4.51 -36.01 6.99 -34 10 C-34 10.66 -34 11.32 -34 12 C-32.68 12.69 -31.34 13.35 -30 14 C-29.28 14.37 -28.56 14.74 -27.81 15.12 C-22.22 16.87 -17.04 16.78 -11.69 14.31 C-6.1 11.15 -3.71 6.67 -1 1 C-0.67 0.67 -0.34 0.34 0 0 Z " fill="#000000" transform="translate(508,1078)"/>
<path d="M0 0 C-0.37 6.41 -0.37 6.41 -3.2 9.06 C-10.6 14.18 -18.95 17.56 -28 16 C-34.12 14.32 -39.14 12.14 -43 7 C-43 5.68 -43 4.36 -43 3 C-38.32 3.45 -35.61 4.01 -32 7 C-25.82 8.99 -18.56 9.13 -12.69 6.25 C-10.27 4.86 -7.98 3.32 -5.69 1.75 C-3 0 -3 0 0 0 Z " fill="#000000" transform="translate(506,544)"/>
<path d="M0 0 C2.17 2.1 4.11 4.15 5.94 6.56 C9.56 10.84 13.58 12.67 19.08 13.2 C27.26 13.38 32.76 11.32 39 6 C39.66 6 40.32 6 41 6 C39.22 10.53 36.1 12.96 31.79 15.09 C25.04 17.29 15.71 17.33 9.25 14.19 C6.78 12.52 4.92 11.21 3 9 C3 8.34 3 7.68 3 7 C2.01 7 1.02 7 0 7 C-0.23 7.78 -0.45 8.57 -0.69 9.38 C-2 12 -2 12 -4.62 13.31 C-5.41 13.54 -6.19 13.77 -7 14 C-7 14.66 -7 15.32 -7 16 C-12.74 18.29 -17.8 18.93 -23.81 17.19 C-25.97 16.02 -27.4 14.85 -29 13 C-28.67 12.34 -28.34 11.68 -28 11 C-27.46 11.32 -26.92 11.64 -26.37 11.98 C-21.81 13.95 -16.86 13.53 -12 13 C-6.24 10.22 -2.58 5.81 0 0 Z " fill="#000000" transform="translate(469,979)"/>
<path d="M0 0 C0.71 1.64 0.71 1.64 1 4 C-0.43 6.8 -0.43 6.8 -2.44 9.75 C-3.43 11.23 -3.43 11.23 -4.43 12.73 C-4.95 13.48 -5.47 14.23 -6 15 C-6.99 14.67 -7.98 14.34 -9 14 C-7.69 11.85 -6.38 9.71 -5.06 7.56 C-4.69 6.95 -4.32 6.34 -3.93 5.71 C-1.11 1.11 -1.11 1.11 0 0 Z " fill="#000000" transform="translate(653,162)"/>
<path d="M0 0 C0.99 0.33 1.98 0.66 3 1 C2.01 1.33 1.02 1.66 0 2 C0 1.34 0 0.68 0 0 Z " fill="#000000" transform="translate(442,640)"/>
<path d="M0 0 C0.66 0 1.32 0 2 0 C2 0.66 2 1.32 2 2 C1.34 2 0.68 2 0 2 C0 1.34 0 0.68 0 0 Z " fill="#000000" transform="translate(604,632)"/>
<path d="M0 0 C0.66 0.66 1.32 1.32 2 2 C1.34 2 0.68 2 0 2 C0 1.34 0 0.68 0 0 Z " fill="#000000" transform="translate(377,607)"/>
<path d="M0 0 C2 1 2 1 2 1 Z " fill="#000000" transform="translate(656,541)"/>
<path d="" fill="#000000" transform="translate(0,0)"/>
</svg>
