<?xml version="1.0" encoding="UTF-8"?>
<!-- Generator: visioncortex VTracer 0.6.3 -->
<svg version="1.1" xmlns="http://www.w3.org/2000/svg" width="1280" height="1280">
<path d="M0 0 C11.6 8.04 16.68 28.11 20.91 40.85 C21.68 43.83 21.68 43.83 23 45 C23.31 44.05 23.63 43.09 23.95 42.11 C24.38 40.85 24.82 39.58 25.25 38.31 C25.67 37.07 26.09 35.83 26.52 34.55 C28.23 30.44 30.24 27.38 33.75 24.62 C37.38 23.62 40.48 23.82 44 25 C56.66 32.99 63.74 50.2 68 64 C68.56 62.75 68.56 62.75 69.14 61.48 C69.65 60.39 70.16 59.31 70.69 58.19 C71.19 57.11 71.69 56.03 72.2 54.92 C74.18 51.71 75.57 50.5 79 49 C84.93 49.09 88.34 50.15 93 54 C97.21 58.38 100.46 63 103.25 68.38 C103.8 69.43 103.8 69.43 104.37 70.5 C109.71 80.97 113.8 92.04 118 103 C119.21 101.79 119.21 101.79 120.44 100.56 C124.19 96.81 124.19 96.81 128.12 96.69 C133.9 96.79 137.6 98.77 141.74 102.62 C151.03 112.53 155.95 125.14 160.8 137.59 C167.24 154 173.66 162.85 189.62 170.38 C197.16 174.02 204.36 177.83 211.34 182.44 C217.28 185.92 223.24 187.29 230 186 C234.03 184.28 237.84 182.29 241.71 180.23 C260.36 170.34 280.89 163.89 302 169 C312.92 172.37 320.46 180.22 326 190 C329.85 199.31 330.64 208.14 330.5 218.12 C330.49 218.8 330.49 219.48 330.48 220.18 C330.21 245.88 322.58 273.44 305.97 293.61 C304.03 298.39 305.29 303.05 307.01 307.77 C308.3 310.78 309.64 313.77 311 316.75 C319.38 336.02 319.38 336.02 315.88 346.12 C313.78 349.34 312.57 350.62 309 352 C303.68 352.98 300.4 351.36 295.75 348.96 C294.68 348.41 293.6 347.86 292.49 347.29 C291.67 346.87 290.85 346.44 290 346 C290.27 346.69 290.54 347.37 290.82 348.08 C295.75 360.66 300.38 373.14 303.5 386.31 C303.73 387.28 303.96 388.25 304.2 389.25 C307.24 402.73 308.38 415.85 308.31 429.62 C308.31 430.81 308.31 430.81 308.31 432.02 C308.19 461.02 301.88 481.67 283 504 C280.26 503.64 279.18 503.19 277.26 501.14 C276.7 500.35 276.13 499.56 275.55 498.75 C274.62 497.47 274.62 497.47 273.67 496.16 C273.04 495.26 272.4 494.36 271.75 493.44 C270.78 492.08 270.78 492.08 269.78 490.71 C268.18 488.48 266.58 486.24 265 484 C265.08 484.85 265.08 484.85 265.17 485.72 C266.15 495.86 267.08 506.01 267.62 516.19 C267.66 516.91 267.7 517.64 267.75 518.39 C269.99 564.01 262.12 626.03 230.27 661.62 C229.52 662.4 228.77 663.19 228 664 C227.24 664.85 226.48 665.7 225.7 666.57 C217.84 674.95 208.63 681.48 199.39 688.24 C196.02 690.72 192.69 693.26 189.38 695.81 C188.37 696.58 187.37 697.35 186.34 698.14 C183.98 699.94 183.98 699.94 182 702 C182.39 706.17 183.55 709.98 184.85 713.95 C187.11 721.16 188.82 728.45 190.45 735.83 C190.76 737.2 191.07 738.58 191.38 739.95 C192.18 743.51 192.97 747.07 193.76 750.63 C194.58 754.29 195.4 757.94 196.22 761.6 C197.82 768.73 199.41 775.86 201 783 C201.48 782.32 201.96 781.63 202.45 780.92 C203.08 780.02 203.71 779.13 204.36 778.2 C204.98 777.31 205.61 776.42 206.25 775.5 C228.04 744.44 257.46 719.01 295.67 711.56 C326.58 706.37 356.4 712.8 382.43 730.11 C399.82 742.86 417.56 765.15 421 787 C421.94 796.85 420.12 805.61 413.75 813.38 C406.81 820.61 399.22 823.98 389.19 824.38 C380.11 824.18 373.67 821.15 366.98 815.15 C363.44 811.31 361.35 806.78 359.06 802.12 C352.92 790.33 346.99 781.76 334 777 C319.54 772.76 304.44 774.05 290.82 780.51 C267.63 793.19 254.48 817.48 247 842 C245.43 847.62 244.17 853.29 243 859 C242.77 860.08 242.55 861.17 242.32 862.28 C241.86 864.52 241.42 866.76 241 869 C241.74 869.09 242.48 869.17 243.25 869.26 C273.03 873.23 308.09 887.83 327.43 911.8 C338.87 927.81 344.92 943.4 346 963 C346.05 963.81 346.11 964.63 346.16 965.47 C347.94 1016.49 314.95 1062.46 281.83 1098.04 C265.26 1115.49 242.52 1129.58 218 1131 C217.24 1131.05 216.49 1131.11 215.71 1131.16 C199.6 1131.76 183.78 1125.53 171 1116 C169.3 1114.36 167.63 1112.7 166 1111 C165.78 1111.93 165.78 1111.93 165.56 1112.88 C164.88 1115.74 164.16 1118.59 163.44 1121.44 C163.21 1122.41 162.98 1123.39 162.75 1124.39 C160.49 1133.16 156.29 1140.59 148.38 1145.44 C147.66 1145.89 146.95 1146.34 146.21 1146.81 C140.47 1149.9 135.62 1150.35 129.16 1150.66 C125.18 1151.09 122.18 1151.62 119.52 1154.73 C119.1 1155.4 118.68 1156.06 118.25 1156.75 C113.19 1163.88 105.55 1168.34 97 1170 C88.69 1170.92 81.46 1169.84 74 1166 C72.75 1164.97 71.52 1163.9 70.31 1162.81 C66.53 1159.69 62.98 1159.54 58.25 1159.44 C47.86 1159.2 39.32 1156.18 31.68 1148.89 C28.16 1144.93 25.67 1140.65 23.69 1135.75 C21.57 1132.3 19.53 1131.59 15.92 1129.99 C13.15 1128.56 11.78 1126.52 10 1124 C7.75 1121.01 6.17 1119.28 2.48 1118.39 C-3.01 1117.76 -7.9 1117.61 -13 1120 C-15.18 1122.85 -15.18 1122.85 -17 1126 C-19.54 1128.28 -21.92 1129.96 -24.94 1131.56 C-28.11 1134.09 -29.07 1135.71 -30.88 1139.25 C-35.98 1149.17 -43.28 1155.08 -53.86 1158.62 C-56.92 1159.16 -59.95 1159.08 -63.06 1159.12 C-69.82 1159.39 -73.95 1161.35 -79.38 1165.28 C-86.42 1169.9 -95.22 1171.13 -103.4 1169.53 C-112.63 1167.15 -120.7 1162.07 -126 1154 C-126 1153.34 -126 1152.68 -126 1152 C-127.02 1151.91 -128.03 1151.83 -129.08 1151.74 C-141.5 1150.53 -151.5 1147.85 -161.06 1139.36 C-166.19 1133.13 -167.87 1126.31 -169.25 1118.5 C-169.42 1117.58 -169.6 1116.66 -169.77 1115.72 C-170.19 1113.48 -170.6 1111.24 -171 1109 C-171.44 1109.39 -171.89 1109.77 -172.35 1110.17 C-188.28 1123.93 -203.69 1131.48 -225 1131 C-245.76 1129.41 -265.49 1119.5 -281 1106 C-281.82 1105.3 -282.64 1104.6 -283.48 1103.88 C-294.34 1094.41 -303.31 1083.43 -312 1072 C-312.47 1071.39 -312.93 1070.78 -313.41 1070.15 C-330.54 1047.67 -343.9 1022.48 -351 995 C-351.3 993.85 -351.3 993.85 -351.61 992.67 C-353.33 985.25 -353.35 977.89 -353.31 970.31 C-353.31 969.65 -353.31 968.98 -353.3 968.29 C-353.18 947.28 -348.59 929.4 -335 913 C-334.32 912.16 -333.65 911.32 -332.95 910.46 C-311.9 885.64 -277.74 872.11 -246 869 C-243.81 868.9 -241.63 868.79 -239.44 868.69 C-235.8 868.38 -234.22 868.13 -231.06 866.19 C-219.43 848.2 -216.58 824.03 -212.56 803.46 C-211.18 796.37 -209.75 789.3 -208.32 782.22 C-208.18 781.52 -208.04 780.82 -207.9 780.1 C-205.34 767.43 -202.57 754.82 -199.56 742.25 C-199.37 741.44 -199.18 740.63 -198.98 739.8 C-196.67 730.06 -194.03 720.45 -191.08 710.88 C-189.56 705.95 -188.21 701.02 -187 696 C-187.58 695.72 -188.17 695.44 -188.77 695.15 C-200.54 689.07 -211.18 679.8 -221 671 C-221.66 670.42 -222.32 669.85 -223 669.25 C-246.67 647.28 -256.81 612.25 -262.81 581.69 C-263.01 580.7 -263.2 579.71 -263.4 578.7 C-266.26 563.23 -267.34 547.8 -267.26 532.09 C-267.25 529.5 -267.26 526.91 -267.27 524.32 C-267.28 514.11 -266.66 504.15 -265.43 494.02 C-265.03 490.67 -264.92 487.38 -265 484 C-265.81 485.01 -266.62 486.03 -267.45 487.07 C-268.53 488.42 -269.61 489.77 -270.69 491.12 C-271.22 491.79 -271.75 492.46 -272.29 493.14 C-275.48 497.13 -278.71 501.09 -282 505 C-295.14 492.63 -304.32 474.66 -307 457 C-307.18 455.86 -307.37 454.73 -307.55 453.56 C-308.35 446.89 -308.24 440.15 -308.25 433.44 C-308.25 432.71 -308.25 431.97 -308.25 431.22 C-308.21 401.7 -302.45 373.81 -290 347 C-290.62 347.36 -291.23 347.72 -291.87 348.09 C-297.6 351.24 -302.42 353.37 -309 352 C-313.1 349.92 -315.3 348.24 -317 344 C-318.46 334.95 -315.33 327.28 -312 319 C-308.05 309.76 -308.05 309.76 -308 300 C-309.73 297.74 -311.66 295.77 -313.64 293.73 C-332.49 271.89 -339.56 237.43 -338.2 209.35 C-337.15 196.74 -332.97 185.4 -323.62 176.62 C-311.93 166.86 -299.65 167.09 -285 168 C-266.35 170.18 -246.75 179.74 -232 191.03 C-229.27 192.36 -227.9 191.79 -225 191 C-222.78 189.89 -222.78 189.89 -220.62 188.45 C-219.79 187.92 -218.96 187.39 -218.11 186.85 C-216.79 185.99 -216.79 185.99 -215.44 185.12 C-207.29 179.96 -199.04 175.14 -190.49 170.69 C-178.03 164.07 -173.85 154.45 -169.69 141.5 C-158.07 106.79 -158.07 106.79 -143.92 97.79 C-140.02 96.18 -136.01 95.64 -132 97 C-129.78 99.17 -127.87 101.53 -126 104 C-125.68 103.2 -125.36 102.4 -125.03 101.58 C-106.44 55.52 -106.44 55.52 -95.56 49.94 C-91.34 48.83 -88.13 48.46 -84 50 C-80.3 53.29 -78.85 56.04 -77.36 60.72 C-77.1 61.52 -76.85 62.33 -76.58 63.15 C-76.39 63.76 -76.2 64.37 -76 65 C-75.79 64.45 -75.59 63.9 -75.38 63.34 C-67.6 42.78 -67.6 42.78 -61 34 C-60.49 33.31 -59.97 32.61 -59.44 31.89 C-56.44 28.11 -53.71 25.51 -49 24 C-45.31 23.63 -42.4 24.01 -39.33 26.18 C-34.31 31.37 -32.28 38.29 -30 45 C-29.76 44.34 -29.52 43.67 -29.27 42.99 C-12.3 -3.54 -12.3 -3.54 0 0 Z M-5 11 C-10.63 21.42 -15.1 32.09 -19.26 43.18 C-22.21 51 -25.33 58.72 -28.66 66.39 C-30.39 70.06 -30.39 70.06 -31 74 C-31.66 73.67 -32.32 73.34 -33 73 C-33.89 70.31 -34.66 67.67 -35.38 64.94 C-35.59 64.13 -35.81 63.33 -36.03 62.5 C-37.11 58.49 -38.14 54.46 -39.11 50.42 C-39.28 49.71 -39.45 48.99 -39.63 48.26 C-40.1 46.29 -40.55 44.32 -41.01 42.36 C-41.96 39.15 -43.14 36.76 -45 34 C-49.3 34.48 -51.18 36.89 -54 40 C-60.26 49.89 -64.64 60.82 -68.96 71.67 C-69.95 74.16 -70.96 76.65 -71.97 79.14 C-72.62 80.74 -73.26 82.34 -73.9 83.95 C-74.2 84.68 -74.5 85.42 -74.8 86.18 C-76.23 89.76 -77.41 93.18 -78 97 C-78.66 96.67 -79.32 96.34 -80 96 C-80.64 93.57 -80.64 93.57 -81.18 90.35 C-81.39 89.18 -81.59 88.01 -81.81 86.8 C-82.01 85.57 -82.22 84.33 -82.44 83.06 C-84.3 70.79 -84.3 70.79 -88 59 C-88.66 58.67 -89.32 58.34 -90 58 C-112.42 73.86 -119.4 113.14 -128 138 C-130.55 135.45 -130.59 133.8 -131.22 130.26 C-131.43 129.11 -131.64 127.96 -131.86 126.78 C-132.07 125.57 -132.28 124.37 -132.5 123.12 C-132.92 120.75 -133.35 118.38 -133.78 116.01 C-133.97 114.95 -134.15 113.9 -134.35 112.81 C-134.94 110.25 -135.71 108.28 -137 106 C-148.37 110.63 -153.45 125.26 -157.93 135.8 C-168.68 162.14 -175.53 190.96 -180 219 C-176 217.57 -172.82 215.62 -169.31 213.25 C-164 209.83 -158.62 207.53 -152.62 205.56 C-151.88 205.32 -151.13 205.07 -150.36 204.82 C-113.91 193.4 -76.51 212.32 -44.25 227.38 C-23.06 237.26 -4.02 244.21 19 236 C24.13 233.82 29.05 231.18 33.97 228.58 C66.13 211.61 106.12 193.82 143 205 C151.11 207.71 158.73 211.07 165.95 215.7 C167.92 216.95 169.91 217.97 172 219 C171.45 210.66 169.8 202.64 167.94 194.5 C167.78 193.83 167.63 193.15 167.47 192.46 C161.94 168.25 154.88 143.73 143.38 121.62 C142.85 120.62 142.85 120.62 142.32 119.59 C139.85 115.04 137.03 110.33 133 107 C130.39 106.27 130.39 106.27 128 106 C127.74 107.45 127.74 107.45 127.47 108.92 C126.81 112.49 126.15 116.05 125.49 119.62 C125.21 121.16 124.92 122.71 124.64 124.25 C124.23 126.47 123.82 128.69 123.41 130.9 C123.28 131.6 123.16 132.29 123.03 133.01 C122.11 137.89 122.11 137.89 121 139 C120.61 137.94 120.22 136.88 119.82 135.79 C118.95 133.41 118.07 131.04 117.19 128.66 C115.3 123.54 113.42 118.42 111.55 113.29 C102.08 82.55 102.08 82.55 83 58 C81.51 58.5 81.51 58.5 80 59 C76.6 67.08 75.8 76.49 74.45 85.1 C74.29 86.08 74.13 87.05 73.96 88.06 C73.83 88.94 73.69 89.82 73.55 90.72 C73 93 73 93 71 96 C70.68 95.2 70.37 94.39 70.04 93.56 C62.36 74.01 62.36 74.01 54.12 54.69 C53.79 53.93 53.46 53.17 53.12 52.38 C50.23 45.99 46.6 38.43 41 34 C39.68 34 38.36 34 37 34 C33.69 42.41 31.37 50.91 29.25 59.69 C28.93 60.99 28.61 62.29 28.29 63.58 C27.52 66.72 26.76 69.86 26 73 C25.34 73 24.68 73 24 73 C23.69 72.23 23.39 71.47 23.07 70.67 C20.23 63.56 17.39 56.44 14.53 49.33 C12.9 45.25 11.27 41.16 9.65 37.07 C8.44 34.02 7.22 30.98 6 27.94 C5.33 26.25 5.33 26.25 4.66 24.52 C4.23 23.47 3.81 22.42 3.38 21.34 C3.01 20.43 2.65 19.51 2.27 18.57 C0.83 15.67 -0.82 13.39 -3 11 C-3.66 11 -4.32 11 -5 11 Z M172 173 C172.67 179.74 174.16 186.12 175.81 192.69 C177.62 199.98 179.28 207.24 180.54 214.64 C182.46 225.87 185.76 234.26 192.23 243.74 C207.83 266.85 216.11 300.9 211.32 328.59 C210.44 332.8 209.29 336.9 208 341 C207.8 341.64 207.6 342.28 207.4 342.94 C195.46 380.42 167.46 415.28 136.62 439.25 C126.24 447.44 122.36 455.52 119.12 468.19 C113.1 491.62 100.86 512.81 83.38 529.56 C79.93 532.9 78.16 535.28 77 540 C77.47 547.57 80.75 552.92 86.19 558.06 C98.77 570.35 106.67 586.75 107.31 604.31 C106.92 621.66 99.88 638.82 88.06 651.5 C73.61 665.19 55.08 674.74 36 680 C35.34 680.2 34.68 680.39 33.99 680.59 C11.56 687.04 -17.41 686.73 -40 681 C-40.68 680.83 -41.35 680.67 -42.05 680.5 C-52.73 677.77 -62.36 673.28 -72 668 C-72.95 667.48 -73.9 666.97 -74.88 666.43 C-93.62 655.69 -106.76 640.56 -112.97 619.74 C-117.21 603.07 -114.44 587.69 -105.84 572.89 C-101.09 565.44 -95.58 559.4 -89.14 553.36 C-85.43 549.27 -84.79 545.61 -84.54 540.16 C-85.77 534.38 -90.57 530.21 -94.56 526.12 C-111.63 508.06 -124.2 484.92 -128.94 460.5 C-130.39 453.27 -132.22 448.85 -138 444 C-138.76 443.29 -139.51 442.58 -140.29 441.85 C-144.36 438.07 -148.57 434.55 -152.94 431.12 C-167.55 419.23 -180.14 405.35 -191 390 C-191.88 388.8 -192.75 387.61 -193.63 386.41 C-211.81 361.01 -223.73 328.86 -218.82 297.53 C-214.99 275.14 -208.1 254.99 -194.95 236.27 C-189.96 227.88 -188.74 218.23 -187 208.75 C-186.5 206.08 -186 203.41 -185.5 200.73 C-185.14 198.8 -185.14 198.8 -184.77 196.82 C-183.81 192.04 -182.66 187.31 -181.45 182.58 C-180.77 179.9 -180.77 179.9 -182 177 C-224.01 197.59 -224.01 197.59 -257 230 C-257.67 232.12 -257.67 232.12 -258 234 C-250.82 233.3 -243.95 231.68 -236.94 230 C-223.18 226.72 -223.18 226.72 -217 226 C-220.15 229.45 -223.68 231.83 -227.62 234.25 C-238.83 241.31 -248.44 249.9 -258 259 C-258.52 259.49 -259.04 259.98 -259.57 260.49 C-267.55 268.06 -274.43 276.18 -281 285 C-281.65 285.85 -281.65 285.85 -282.3 286.73 C-292.77 300.61 -307.3 320.2 -307.06 338.25 C-307.05 339.14 -307.04 340.03 -307.04 340.95 C-307.02 341.63 -307.01 342.3 -307 343 C-303.04 343.28 -301.1 342.79 -297.92 340.44 C-296.78 339.62 -296.78 339.62 -295.62 338.78 C-294.81 338.19 -294.01 337.61 -293.19 337 C-284.8 331.04 -276.31 326.32 -267 322 C-265 321.01 -263 320.01 -261 319 C-261.32 319.47 -261.63 319.93 -261.96 320.41 C-265.68 325.92 -269.35 331.45 -273 337 C-273.44 337.66 -273.87 338.32 -274.32 339 C-285.51 356.11 -291.67 375.12 -296 395 C-296.2 395.86 -296.39 396.72 -296.6 397.61 C-298.43 406.81 -298.34 416.05 -298.32 425.4 C-298.31 428.23 -298.34 431.06 -298.36 433.89 C-298.43 454.66 -294.9 471.57 -283 489 C-277.46 484.62 -273.6 480.06 -269.62 474.25 C-255.59 454.3 -255.59 454.3 -247 450 C-247.24 450.83 -247.48 451.66 -247.73 452.51 C-250.93 463.88 -253.12 475.34 -255 487 C-255.15 487.93 -255.31 488.87 -255.47 489.83 C-263.68 541.22 -258.05 606.35 -227 650 C-218.65 661.16 -208.74 669.93 -197.56 678.19 C-196.26 679.16 -196.26 679.16 -194.93 680.15 C-192.29 682.1 -189.64 684.05 -187 686 C-185.87 686.84 -185.87 686.84 -184.71 687.69 C-162.5 704.11 -139.12 718.92 -115.94 733.92 C-85.99 753.32 -85.99 753.32 -73 766 C-72.14 766.83 -71.28 767.67 -70.4 768.52 C-47.22 791.05 -47.22 791.05 -40 802 C-39.28 803.09 -38.55 804.18 -37.81 805.3 C-21.65 830.56 -9.05 861.15 -1 890 C-0.34 890 0.32 890 1 890 C1.34 888.86 1.69 887.71 2.04 886.53 C8.94 864.33 18.93 843.23 28.88 822.25 C29.37 821.19 29.87 820.12 30.39 819.03 C39.01 801.12 51.73 787.12 65.52 773.08 C66.56 772.01 67.6 770.94 68.64 769.87 C82.71 755.34 99.71 744.71 116.56 733.71 C121.4 730.55 126.23 727.38 131.05 724.21 C132 723.58 132.95 722.96 133.93 722.32 C146.05 714.35 158.05 706.22 170 698 C170.95 697.35 171.89 696.7 172.87 696.03 C186.45 686.7 199.71 677.19 211.82 665.97 C214 664 214 664 216.46 662.12 C240.81 641.84 249.29 604.51 255 575 C255.27 573.62 255.27 573.62 255.54 572.21 C262.97 531.78 257.25 490.51 248 451 C257.36 455.59 262.64 463.62 268.56 471.94 C269.37 473.06 269.37 473.06 270.19 474.2 C273.91 479.39 277.49 484.67 281 490 C293.87 478.08 298.4 461.02 299.13 444.07 C300.52 398.19 289.68 356.85 262 320 C271.46 323.37 279.89 328.05 288.07 333.86 C289.13 334.61 289.13 334.61 290.2 335.37 C291.58 336.35 292.95 337.35 294.31 338.36 C298.61 341.44 301.7 342.68 307 343 C308.85 315.77 285.27 288.53 268.53 269.1 C254.07 252.56 237.05 238.92 218 228 C226.59 227.53 234.13 228.9 242.44 231 C244.73 231.57 247.02 232.13 249.31 232.69 C250.31 232.94 251.31 233.19 252.33 233.45 C255.2 234.13 255.2 234.13 259 234 C257.51 228.89 254.39 225.93 250.69 222.31 C250.06 221.7 249.44 221.08 248.79 220.44 C242.91 214.75 236.69 209.7 230 205 C229.42 204.59 228.84 204.19 228.25 203.77 C214.83 194.42 200.79 186.28 186.19 178.94 C185.24 178.46 184.29 177.98 183.31 177.49 C177.84 174.76 177.84 174.76 172 173 Z M-320 186 C-330.79 203.38 -330.12 224.57 -325.83 244.03 C-321.99 259.94 -314.44 284.86 -300 294 C-299.34 294 -298.68 294 -298 294 C-298.26 288.73 -298.93 284.76 -301.25 280 C-310.2 261.51 -314.6 238.91 -308.19 219.1 C-305.24 211.41 -301.32 206.02 -294 202 C-282.1 197.01 -269.03 198.02 -257 202 C-255.7 202.54 -254.41 203.1 -253.12 203.69 C-249.66 205.14 -247.71 205.63 -244 205 C-241.74 203.51 -239.98 201.88 -238 200 C-239.34 195.99 -241.84 194.87 -245.31 192.81 C-245.97 192.42 -246.63 192.03 -247.31 191.63 C-265.78 181.06 -302.6 165.73 -320 186 Z M235.64 195.21 C235.1 195.8 234.56 196.39 234 197 C237.43 200.43 240.38 201.75 245.23 202.12 C248.66 201.97 251.83 201.29 255.19 200.56 C268.68 197.64 279.04 198.44 291.31 204.69 C300.38 212.49 303.06 223.62 304.35 235.1 C304.76 248.05 301.44 260.78 297.07 272.85 C295.5 277.22 294.29 281.32 294 286 C294.99 287.49 294.99 287.49 296 289 C296.66 289 297.32 289 298 289 C309.02 274.36 315.09 256.69 319 239 C319.25 237.93 319.49 236.87 319.75 235.77 C322.86 220.19 322.72 201.8 313.8 188.16 C308.03 181.25 300 178.05 291.19 177.19 C273.29 176.09 248.94 182.74 235.64 195.21 Z M-296.8 214.88 C-304.37 224.68 -303.72 237.99 -302.35 249.74 C-300.68 260.64 -297.06 271.23 -292 281 C-289.03 279.68 -287.17 278.36 -285.08 275.88 C-284.55 275.26 -284.03 274.64 -283.48 274 C-282.93 273.34 -282.38 272.68 -281.81 272 C-280.65 270.63 -279.48 269.27 -278.31 267.9 C-277.75 267.23 -277.18 266.56 -276.59 265.87 C-270.73 258.98 -264.72 252.64 -257.87 246.71 C-257.25 246.15 -256.64 245.58 -256 245 C-256 244.67 -256 244.34 -256 244 C-261.94 244 -267.88 244 -274 244 C-268.98 233.89 -264.22 224.37 -256.62 215.93 C-254.79 214.16 -254.79 214.16 -255 212 C-268.56 207.18 -285.72 203.29 -296.8 214.88 Z M253 210 C252.65 213.05 252.65 213.05 254.69 214.77 C255.45 215.44 256.21 216.12 257 216.81 C264.93 224.45 269.12 234.24 274 244 C268.06 244 262.12 244 256 244 C259.48 247.48 262.95 250.75 266.62 254 C272.22 259.03 277.06 264.53 281.82 270.35 C283.89 272.96 283.89 272.96 286 275 C288.7 270.94 290.22 266.76 291.62 262.12 C291.84 261.44 292.06 260.76 292.28 260.06 C296.07 247.79 297.66 231.28 292.4 219.24 C288.91 213.67 284.18 210.1 278 208 C269.29 206.12 261.5 207.8 253 210 Z M111.13 210.18 C86.86 212.64 62.58 223.35 41.23 234.67 C19.31 246.28 0.63 251.99 -24.03 245.36 C-32.74 242.54 -40.97 238.6 -49.08 234.39 C-78.14 219.32 -113.79 204.34 -147.12 212.56 C-169.83 219.81 -185.95 234.97 -196.98 255.85 C-209.77 281.4 -216.5 311.77 -207.63 339.38 C-201.17 358.44 -191.66 375.4 -179 391 C-177.79 392.52 -177.79 392.52 -176.56 394.08 C-172.22 399.48 -167.66 404.67 -162.99 409.79 C-161.4 411.55 -159.91 413.33 -158.44 415.19 C-153.08 421.37 -146.47 426.3 -140.12 431.44 C-139.46 431.98 -138.79 432.53 -138.1 433.09 C-134.95 435.98 -134.95 435.98 -131 437 C-130.38 433.63 -129.81 430.26 -129.25 426.88 C-129.07 425.92 -128.9 424.97 -128.71 423.99 C-127.98 419.38 -127.6 416.84 -129.63 412.53 C-131.87 410.14 -133.87 408.42 -136.62 406.69 C-144.14 401.68 -150.78 395.54 -157 389 C-157.56 388.48 -158.11 387.97 -158.69 387.44 C-175.98 370.15 -184.15 341.84 -184.38 317.88 C-184.16 295.49 -175.93 275.74 -160 260 C-143.37 244.95 -120.54 241.94 -99 243 C-76.01 244.75 -52.48 252.07 -32.31 263.12 C-18.75 270.49 -5.79 273.48 9.52 270.26 C18.06 267.43 26.05 263.1 34.11 259.17 C43.5 254.64 53.04 251.06 63 248 C63.68 247.79 64.35 247.58 65.05 247.36 C88.8 240.05 115.98 239.19 138.47 250.79 C156.31 261.25 168.05 276.11 173.54 295.95 C180.3 322.9 174.33 351.4 160.27 375.01 C156.76 380.51 152.47 385.28 148 390 C147.23 390.83 147.23 390.83 146.45 391.67 C139.71 398.92 132.81 404.93 124.48 410.29 C121.92 411.76 121.92 411.76 121 414 C120.73 419.36 121.44 424.22 122.5 429.44 C122.64 430.17 122.79 430.9 122.93 431.65 C123.28 433.44 123.64 435.22 124 437 C133.23 430.99 141.37 423.92 149 416 C151.37 413.6 153.76 411.23 156.22 408.92 C179.8 386.47 202.02 351.68 204.24 318.43 C204.79 288.98 195.18 256.91 175 235 C174.45 234.37 173.9 233.74 173.34 233.09 C159.82 218.44 141.46 211.33 121.96 209.75 C118.33 209.66 114.76 209.95 111.13 210.18 Z M-160 272 C-174.19 290.4 -177.37 311.86 -174.68 334.68 C-169.65 364.51 -150.82 385.81 -127.43 403.38 C-125.21 405.18 -125.21 405.18 -123 405 C-121.57 402.75 -120.24 400.51 -118.94 398.19 C-108.02 379.46 -93.19 364.83 -72.01 358.73 C-58.3 355.42 -46.41 357.66 -33 361 C-32.99 360.16 -32.97 359.33 -32.96 358.46 C-32.46 346.43 -30.19 332.66 -21 324 C-14.25 318.91 -8.44 317.15 0 318 C8.08 320.06 13.1 325.13 17.29 332.16 C19.81 337.01 21.07 341.28 21.32 346.77 C21.38 348.1 21.38 348.1 21.44 349.46 C21.48 350.38 21.52 351.3 21.56 352.25 C21.63 353.65 21.63 353.65 21.69 355.09 C21.8 357.39 21.9 359.7 22 362 C26.05 361.26 29.76 360.1 33.62 358.72 C48.85 354.12 65.21 357.41 79.09 364.47 C95.4 373.41 106.41 388.96 115 405 C123.43 401.06 130.15 395.17 137 389 C137.89 388.2 138.78 387.41 139.7 386.59 C157.96 369.4 166.87 345.35 167.98 320.6 C168.46 300.85 162.26 282.97 148.68 268.46 C135.04 255.95 117.95 250.34 99.53 250.75 C72.23 252.66 48.89 261.67 24.32 273.2 C16.31 276.9 8.88 279.35 0 280 C-0.76 280.07 -1.53 280.14 -2.31 280.21 C-14.26 280.78 -25.22 276.42 -35.68 271.19 C-72.38 252.9 -128.05 235.61 -160 272 Z M-17.63 333.07 C-24.39 343.2 -24.3 353.74 -23.12 365.5 C-20.56 396.95 -21.02 427.91 -26.64 458.98 C-27.01 461.03 -27.37 463.08 -27.73 465.13 C-29.52 475.32 -29.52 475.32 -30.48 480.39 C-30.68 481.45 -30.88 482.52 -31.08 483.62 C-31.35 485 -31.35 485 -31.62 486.42 C-32 488.99 -32.07 491.41 -32 494 C-30.83 493.78 -30.83 493.78 -29.63 493.56 C-12.74 490.85 5.01 491.07 22 493 C21.37 486.86 20.52 480.82 19.44 474.75 C19.13 472.99 18.83 471.23 18.52 469.46 C18.04 466.74 17.57 464.02 17.09 461.31 C11.92 431.97 9.94 403.58 12.79 373.91 C14.2 359.16 15.45 345.1 7.12 332.06 C3.31 328.36 -0.23 326.83 -5.5 326.56 C-11.05 326.81 -14.16 328.66 -17.63 333.07 Z M-61 366 C-60.53 367.18 -60.05 368.35 -59.57 369.57 C-58.15 373.09 -56.75 376.61 -55.34 380.13 C-53.84 383.91 -52.32 387.67 -50.78 391.43 C-45.85 403.61 -41.69 415.93 -37.92 428.51 C-37.56 429.68 -37.21 430.86 -36.85 432.07 C-36.54 433.12 -36.23 434.17 -35.91 435.25 C-35.12 437.65 -34.2 439.78 -33 442 C-30.36 429.2 -29.82 416.48 -29.81 403.44 C-29.8 402.21 -29.79 400.99 -29.78 399.73 C-29.61 385.17 -29.61 385.17 -35 372 C-41.43 366.13 -50.68 365.65 -58.98 365.89 C-59.98 365.95 -59.98 365.95 -61 366 Z M21 374 C18.91 381.74 19.76 390.79 19.75 398.75 C19.75 399.44 19.75 400.12 19.74 400.83 C19.74 411.55 20.3 422.15 21.38 432.81 C21.5 434.09 21.63 435.37 21.76 436.69 C22.29 443.21 22.29 443.21 25 449 C25.16 448.29 25.33 447.58 25.5 446.84 C31.6 420.8 39.31 395.44 51.76 371.64 C53.21 369.03 53.21 369.03 53 366 C42.7 363.11 29.58 368.28 21 374 Z M64 368 C44.53 398.68 22.71 452.45 30.75 489.81 C30.89 490.52 31.03 491.23 31.17 491.96 C32.24 494.6 33.96 496.04 36 498 C36.26 496.88 36.26 496.88 36.52 495.75 C40.18 479.93 44.2 464.8 51 450 C51.37 449.18 51.75 448.35 52.14 447.5 C59.78 430.93 69.34 415.92 81.08 401.94 C84.78 397.51 87.61 393.39 88.56 387.56 C87.78 382.59 85.77 380.25 82 377 C73.69 370.65 73.69 370.65 64 368 Z M-83.5 373.19 C-84.45 373.82 -85.39 374.46 -86.37 375.12 C-91.96 378.84 -91.96 378.84 -96 384 C-96.79 392.23 -92.4 396.56 -87.58 402.66 C-80.24 411.99 -73.92 421.71 -68 432 C-67.64 432.62 -67.27 433.24 -66.9 433.88 C-55.8 452.86 -49.48 473.83 -44 495 C-43.34 495 -42.68 495 -42 495 C-36.36 467.89 -41.53 445.43 -49.5 419.31 C-49.73 418.55 -49.97 417.78 -50.21 417 C-54.12 404.22 -58.26 391.61 -64.62 379.81 C-65.01 379.08 -65.39 378.34 -65.78 377.58 C-66.16 376.88 -66.53 376.18 -66.91 375.46 C-67.41 374.53 -67.41 374.53 -67.91 373.58 C-69.07 371.68 -69.07 371.68 -72 370 C-76.89 369.44 -79.47 370.47 -83.5 373.19 Z M-106 395 C-116.32 409.23 -116.32 409.23 -119.79 425.89 C-118.86 429.55 -117.59 431.1 -115 433.81 C-114.18 434.68 -113.37 435.55 -112.52 436.45 C-110.26 438.74 -107.95 440.96 -105.62 443.19 C-89.83 458.88 -79.26 479.66 -70.09 499.66 C-68.47 503.15 -66.74 506.57 -65 510 C-60.63 508.24 -57.67 506.98 -54.94 503 C-52.05 494.33 -55.52 483.77 -58.06 475.38 C-58.53 473.82 -58.53 473.82 -59 472.23 C-61.91 462.77 -65.62 453.87 -70 445 C-70.3 444.37 -70.6 443.75 -70.91 443.1 C-79 426.28 -90.9 406.32 -106 395 Z M97 395 C73.51 420.94 44.92 461.69 45.68 498.51 C46.13 502.05 47.33 503.69 50 506 C53.19 508.45 53.19 508.45 57.03 508.9 C59.21 508.15 59.21 508.15 60.1 505.8 C60.42 504.79 60.73 503.79 61.06 502.75 C69.76 478.53 84.96 457.52 102.39 438.86 C109.44 431.49 109.44 431.49 111.34 421.76 C110.23 412.82 105.54 403.08 100 396 C99.01 395.67 98.02 395.34 97 395 Z M113 439 C111.66 440.58 110.35 442.19 109.06 443.81 C105.88 447.76 102.62 451.51 99.12 455.19 C84.51 471.16 67.43 495.84 66 518 C66.82 521.09 67.97 522.38 70 525 C72.34 526.11 72.34 526.11 75 526 C95.93 511.3 108.78 481.14 113.69 457.11 C114.21 453.55 114.21 450.03 114.12 446.44 C114.12 445.71 114.11 444.99 114.1 444.25 C114.07 442.5 114.04 440.75 114 439 C113.67 439 113.34 439 113 439 Z M-122 440 C-121.01 474.16 -105.81 500.74 -82.86 525.29 C-81.17 527.23 -81.17 527.23 -79 527 C-77.36 525.51 -77.36 525.51 -75.81 523.5 C-74.99 522.53 -74.99 522.53 -74.14 521.53 C-72 516.78 -73.58 512.24 -75.17 507.53 C-86.24 482.35 -100.55 458.67 -121 440 C-121.33 440 -121.66 440 -122 440 Z M-64 522 C-71.29 530.25 -77.17 540.67 -77 552 C-75.86 565.45 -69.65 575.29 -59.62 583.94 C-38.71 600.11 -12.12 603.65 13.62 600.7 C18.24 599.91 22.58 598.57 27 597 C27.96 596.68 27.96 596.68 28.95 596.35 C37.86 593.35 45.08 589.5 52 583 C53.44 581.68 53.44 581.68 54.91 580.32 C63.95 571.82 68.85 563.58 69.25 551 C68.84 537.99 63.2 528.9 54 520 C22.33 492.18 -33.47 492.63 -64 522 Z M-86 562 C-96.27 573.42 -104.84 585.07 -106 601 C-106.06 601.78 -106.13 602.57 -106.19 603.38 C-106.9 619.05 -100.01 632.82 -89.75 644.25 C-70.72 664.53 -41.74 674.81 -14.37 676.13 C18.86 677.05 52.35 671.22 77.87 648.44 C91 635.9 98.02 622.2 99 604 C98.78 588.47 90.88 574.73 80.12 564.03 C79.42 563.36 78.72 562.69 78 562 C75.8 564.2 75.41 565.47 74.44 568.38 C67.84 585.32 53.63 595.03 37.88 602.48 C33.04 604.49 28.32 605.99 23.17 606.95 C22.33 607.1 21.48 607.26 20.61 607.42 C18.95 607.72 17.29 607.98 15.62 608.22 C10.18 609.15 7.53 610.82 4.09 615.15 C1.97 618.75 1.88 622.09 1.9 626.2 C1.91 627.18 1.91 628.16 1.91 629.17 C1.92 630.19 1.93 631.2 1.94 632.25 C1.94 633.28 1.95 634.31 1.95 635.38 C1.96 637.92 1.98 640.46 2 643 C16.66 642.48 30.19 637.35 40.94 627.16 C45.6 621.64 47.22 614.88 49 608 C53.75 607 53.75 607 56 607 C56.6 615.95 54.46 624.25 48.64 631.17 C48.1 631.77 47.56 632.38 47 633 C46.53 633.59 46.06 634.19 45.58 634.8 C35.85 646.08 17.12 650.33 3 652 C-17.39 653.22 -37.32 648.87 -53 635 C-55.34 632.49 -57.22 629.92 -59 627 C-59.41 626.37 -59.82 625.75 -60.25 625.11 C-63.53 619.53 -63.42 614.34 -63 608 C-60.03 607.5 -60.03 607.5 -57 607 C-56.84 607.63 -56.68 608.26 -56.52 608.91 C-54.16 617.55 -50.7 623.94 -44 630 C-43.5 630.49 -43 630.99 -42.48 631.5 C-33.54 639.9 -20.02 643.14 -8 643 C-7.94 638.77 -7.91 634.54 -7.88 630.31 C-7.85 628.52 -7.85 628.52 -7.82 626.68 C-7.82 625.52 -7.81 624.37 -7.8 623.18 C-7.79 622.11 -7.78 621.05 -7.77 619.95 C-8.01 616.89 -8.64 614.74 -10 612 C-13.47 609.35 -17.98 609.32 -22.19 608.75 C-43.35 605.52 -62.85 595.99 -76.5 579.06 C-80.09 573.81 -82.5 567.82 -85 562 C-85.33 562 -85.66 562 -86 562 Z M-179 704 C-183.45 716.34 -186.6 728.88 -189.62 741.62 C-189.88 742.7 -190.14 743.77 -190.4 744.87 C-210.25 808.62 -210.25 808.62 -211.31 873.27 C-209.46 875.72 -207.35 876.67 -204.62 878.06 C-188.22 887.35 -179.43 900.32 -173.97 918.15 C-169.1 937.48 -171.72 955.08 -177 974 C-177.32 975.14 -177.63 976.29 -177.96 977.47 C-178.22 978.41 -178.48 979.35 -178.75 980.31 C-184.88 1002.59 -175.43 1021.48 -166.84 1041.67 C-164.82 1046.42 -162.88 1051.19 -161 1056 C-157.48 1053.06 -154.09 1050.14 -150.94 1046.81 C-146.9 1042.67 -142.31 1039.23 -137.71 1035.73 C-134.36 1033.31 -134.36 1033.31 -132 1030 C-130.18 1007.59 -136.29 985.51 -141.45 963.89 C-141.66 962.99 -141.87 962.09 -142.09 961.17 C-147.12 940.11 -152.65 919.18 -158.23 898.26 C-170.35 852.86 -170.35 852.86 -176.08 830.19 C-176.52 828.44 -176.97 826.69 -177.41 824.95 C-178.03 822.55 -178.63 820.14 -179.23 817.74 C-179.41 817.04 -179.6 816.34 -179.78 815.62 C-180.76 811.66 -181.18 808.07 -181 804 C-178.03 804.5 -178.03 804.5 -175 805 C-170.15 819.7 -166.2 834.65 -162.17 849.58 C-161.56 851.84 -160.94 854.1 -160.33 856.36 C-147.16 905.01 -134.02 953.69 -121.69 1002.56 C-121.44 1003.53 -121.2 1004.49 -120.94 1005.49 C-116.49 1023.03 -116.49 1023.03 -116 1032 C-116.61 1032.3 -117.22 1032.6 -117.84 1032.91 C-125.57 1036.82 -132.91 1041.82 -139 1048 C-139 1048.33 -139 1048.66 -139 1049 C-138.36 1049.13 -137.72 1049.27 -137.07 1049.4 C-136.24 1049.58 -135.41 1049.76 -134.56 1049.94 C-133.74 1050.11 -132.92 1050.29 -132.07 1050.46 C-130 1051 -130 1051 -129 1052 C-128.75 1056.93 -128.75 1060.5 -131 1065 C-129.79 1064.57 -129.79 1064.57 -128.56 1064.12 C-124.42 1062.82 -120.25 1061.89 -116 1061 C-115.74 1067.87 -116.74 1074.26 -118 1081 C-113.4 1077.25 -109.46 1073.41 -105.68 1068.83 C-103.06 1065.97 -101.19 1064.08 -97.25 1063.81 C-96.51 1063.87 -95.76 1063.94 -95 1064 C-93.39 1069.14 -92.47 1074.09 -91.88 1079.44 C-91.79 1080.17 -91.7 1080.9 -91.61 1081.65 C-91.4 1083.44 -91.2 1085.22 -91 1087 C-88.2 1083.51 -86.05 1079.7 -83.88 1075.81 C-80.12 1069.12 -80.12 1069.12 -79 1068 C-76.86 1067.5 -76.86 1067.5 -74 1068 C-71.44 1070.07 -69.34 1072.51 -67.19 1075 C-66.29 1076 -66.29 1076 -65.38 1077.02 C-63.91 1078.67 -62.45 1080.33 -61 1082 C-59.13 1079.61 -57.82 1077.6 -56.56 1074.81 C-55 1072 -55 1072 -53.12 1071.16 C-51 1071 -51 1071 -49.25 1072 C-48.7 1072.52 -48.14 1073.03 -47.56 1073.56 C-46.96 1074.11 -46.36 1074.66 -45.75 1075.23 C-43.32 1077.69 -41.17 1080.31 -39 1083 C-38.67 1083 -38.34 1083 -38 1083 C-37.11 1076.97 -36.81 1070.96 -36.69 1064.88 C-36.66 1064.11 -36.63 1063.35 -36.6 1062.56 C-36.5 1053.3 -41.52 1047.98 -47.67 1041.51 C-64.43 1022.76 -69.67 990.74 -76.71 967.29 C-76.96 966.45 -77.22 965.6 -77.48 964.72 C-83.08 946.01 -88.24 927.19 -93.29 908.33 C-94.26 904.71 -95.24 901.1 -96.21 897.48 C-99.49 885.32 -102.75 873.16 -106 861 C-106.37 859.62 -106.37 859.62 -106.74 858.22 C-111.1 841.92 -115.46 825.62 -119.79 809.32 C-119.99 808.56 -120.2 807.81 -120.4 807.03 C-121.33 803.52 -122.27 800.02 -123.2 796.51 C-123.52 795.28 -123.85 794.05 -124.19 792.78 C-124.49 791.63 -124.8 790.48 -125.11 789.29 C-126.19 785.29 -127.32 781.29 -128.46 777.31 C-129.21 774.1 -129.22 771.27 -129 768 C-127.68 767.67 -126.36 767.34 -125 767 C-121.34 772.73 -119.5 778.39 -117.75 784.94 C-117.35 786.39 -117.35 786.39 -116.94 787.88 C-116.28 790.25 -115.64 792.62 -115 795 C-111.98 793.56 -110.23 792.36 -108.12 789.75 C-103 783.67 -97.26 778.18 -91.61 772.6 C-89.4 770.41 -87.2 768.2 -85 766 C-101.08 753.64 -117.78 742.7 -135.09 732.15 C-146.95 724.88 -158.47 717.12 -169.77 709.01 C-170.67 708.37 -171.57 707.73 -172.5 707.07 C-173.31 706.48 -174.13 705.89 -174.97 705.29 C-176.88 703.82 -176.88 703.82 -179 704 Z M165.75 712.07 C164.41 712.95 163.08 713.83 161.75 714.71 C161.05 715.17 160.34 715.64 159.62 716.12 C148.85 723.25 138.05 730.29 127.06 737.06 C117.44 743.02 108.1 749.27 99 756 C98.22 756.58 97.44 757.15 96.63 757.75 C94.23 759.53 91.83 761.32 89.44 763.12 C88.69 763.68 87.95 764.24 87.18 764.81 C86.16 765.59 86.16 765.59 85.12 766.38 C84.52 766.84 83.91 767.3 83.29 767.77 C82.86 768.18 82.44 768.58 82 769 C82 769.66 82 770.32 82 771 C83.45 772.47 83.45 772.47 85.38 774 C93.49 780.92 100.71 788.38 107 797 C109.26 796.15 109.26 796.15 109.95 793.55 C110.26 792.48 110.58 791.42 110.91 790.32 C111.26 789.16 111.61 788.01 111.97 786.82 C112.33 785.6 112.69 784.38 113.06 783.12 C113.78 780.73 114.5 778.34 115.22 775.95 C115.54 774.88 115.86 773.81 116.18 772.71 C116.76 770.8 117.37 768.9 118 767 C119.98 767.33 121.96 767.66 124 768 C123.4 773.65 122.38 778.96 120.94 784.45 C120.61 785.71 120.61 785.71 120.28 787.01 C119.52 789.9 118.76 792.79 118 795.69 C117.59 797.24 117.59 797.24 117.18 798.82 C114.81 807.88 112.41 816.94 110 826 C109.78 826.83 109.56 827.65 109.34 828.5 C76.46 952.35 76.46 952.35 60.38 1002.19 C59.96 1003.48 59.96 1003.48 59.54 1004.81 C56.8 1013.29 53.88 1021.63 50.33 1029.8 C50.05 1030.45 49.78 1031.09 49.49 1031.75 C47.29 1036.66 44.56 1041.07 41.57 1045.54 C33.98 1057.42 34.58 1068.44 36 1082 C39.26 1079.43 42.03 1077.09 44.5 1073.75 C47 1071 47 1071 50.31 1070.12 C51.64 1070.06 51.64 1070.06 53 1070 C54.65 1073.3 56.3 1076.6 58 1080 C63.19 1077.4 65.82 1073.67 69.46 1069.24 C72 1067 72 1067 74.59 1066.85 C77.79 1068.38 78.78 1070.08 80.56 1073.12 C81.15 1074.11 81.74 1075.1 82.35 1076.12 C82.9 1077.07 83.44 1078.02 84 1079 C84.66 1080.13 84.66 1080.13 85.34 1081.29 C86.24 1082.85 87.12 1084.42 88 1086 C88.33 1086 88.66 1086 89 1086 C89.99 1078.41 90.98 1070.82 92 1063 C98.77 1063 98.77 1063 102.94 1067 C103.79 1067.81 104.64 1068.63 105.52 1069.46 C108.83 1072.85 111.99 1076.34 115 1080 C116.02 1076.84 115.93 1074.88 115.06 1071.69 C114.07 1067.65 113.82 1064.15 114 1060 C119.27 1060.45 122.54 1060.99 127 1064 C127.66 1064 128.32 1064 129 1064 C128.54 1062.92 128.54 1062.92 128.06 1061.81 C125.58 1055.25 125.58 1055.25 126.7 1051.93 C128 1050 128 1050 130.16 1049.17 C130.98 1049.03 131.79 1048.89 132.62 1048.75 C133.44 1048.6 134.26 1048.45 135.1 1048.3 C136.04 1048.15 136.04 1048.15 137 1048 C132.05 1041.16 125.8 1037.38 118.71 1033.06 C116.1 1031.44 113.55 1029.72 111 1028 C111.49 1020.13 113.13 1012.81 115.16 1005.2 C115.49 1003.93 115.82 1002.67 116.16 1001.37 C117.07 997.87 117.99 994.38 118.92 990.89 C119.71 987.91 120.49 984.93 121.27 981.95 C128.12 955.9 135.09 929.88 142.07 903.87 C142.6 901.89 143.13 899.92 143.66 897.95 C149.29 876.96 154.97 855.99 160.78 835.05 C161.3 833.17 161.82 831.29 162.34 829.41 C163.06 826.81 163.78 824.21 164.51 821.61 C164.72 820.85 164.93 820.1 165.14 819.32 C166.51 814.43 168.16 809.73 170 805 C171.65 805 173.3 805 175 805 C176.62 810 175.26 813.98 173.93 818.87 C173.7 819.75 173.46 820.64 173.22 821.55 C172.45 824.47 171.66 827.4 170.87 830.32 C170.32 832.39 169.77 834.46 169.22 836.54 C167.78 841.96 166.33 847.37 164.87 852.79 C164.03 855.88 163.2 858.98 162.37 862.07 C158.9 874.97 155.4 887.86 151.9 900.74 C149.33 910.18 146.77 919.62 144.21 929.07 C143.94 930.08 143.66 931.1 143.38 932.14 C138.94 948.5 134.53 964.87 130.19 981.25 C129.94 982.17 129.7 983.09 129.45 984.04 C128.16 988.89 126.89 993.74 125.63 998.6 C124.94 1001.24 124.22 1003.88 123.5 1006.51 C123.02 1008.33 122.53 1010.16 122.05 1011.98 C121.82 1012.83 121.58 1013.67 121.34 1014.54 C121.13 1015.33 120.93 1016.12 120.72 1016.93 C120.53 1017.62 120.34 1018.31 120.15 1019.02 C119.95 1021.61 120.6 1022.85 122 1025 C124.81 1026.98 124.81 1026.98 128.12 1028.81 C139.28 1035.41 146.3 1043.72 154 1054 C154.3 1053.27 154.6 1052.54 154.92 1051.79 C157.1 1046.53 159.3 1041.28 161.54 1036.04 C164.08 1030.05 166.57 1024.03 169 1018 C169.42 1016.97 169.42 1016.97 169.84 1015.91 C177.45 996.56 170.92 977.55 165.85 958.44 C161.14 939.34 164.01 919.44 173 902 C175.15 898.51 177.5 895.24 180 892 C181.14 890.42 181.14 890.42 182.31 888.81 C186.64 884.29 191.81 880.68 197.36 877.76 C200.15 876.28 202.38 875.09 203.97 872.29 C208.6 856.29 202.13 835.79 199 820 C198.82 819.11 198.65 818.21 198.47 817.29 C193.15 790.4 187.36 763.65 180.94 737 C180.51 735.23 180.51 735.23 180.08 733.43 C179.28 730.1 178.47 726.77 177.65 723.44 C177.41 722.45 177.17 721.46 176.93 720.45 C175.87 716.16 174.82 712.04 173 708 C170.57 708 167.78 710.72 165.75 712.07 Z M273 729 C272.35 729.32 271.69 729.64 271.02 729.97 C242.25 744.27 220.85 766.36 205.67 794.57 C203.82 801.28 205.21 808.38 206.57 815.07 C206.74 815.9 206.91 816.74 207.08 817.6 C207.43 819.37 207.78 821.13 208.14 822.89 C208.68 825.53 209.2 828.17 209.72 830.81 C213.19 850.48 213.19 850.48 222 868 C224.37 869.41 224.37 869.41 227 869 C232.16 865.68 232.87 861.59 234.14 855.82 C241.15 824.67 253.8 793.77 281 775 C297.64 765.7 315.61 762.26 334.18 767.17 C346.12 770.61 355.18 776.65 361.46 787.53 C363.59 791.4 365.67 795.29 367.66 799.24 C371.58 806.87 375.5 811.72 383.86 814.49 C390.27 816.02 395.47 815.45 401.21 812.2 C406.09 808.92 409.6 804.69 411.69 799.19 C413.84 784.15 405.83 770.84 397.21 759.11 C394.58 755.64 391.82 752.31 389 749 C388.41 748.3 387.81 747.61 387.2 746.89 C372.12 730.62 348.54 721.29 326.79 719.78 C307.69 719.11 290.36 720.45 273 729 Z M-108 802 C-110.89 806.34 -110.37 810.02 -109.43 815.04 C-109.03 816.58 -109.03 816.58 -108.62 818.14 C-108.31 819.33 -108.01 820.51 -107.69 821.73 C-107.35 823.02 -107 824.31 -106.66 825.6 C-106.3 826.96 -105.95 828.33 -105.59 829.7 C-104.63 833.39 -103.65 837.07 -102.67 840.76 C-102.06 843.07 -101.45 845.39 -100.84 847.7 C-79.85 945.32 -79.85 945.32 -44.7 1024.65 C-41.81 1025.51 -38.94 1026.31 -36 1027 C-34.3 1027.44 -34.3 1027.44 -32.56 1027.9 C-23 1030 -13.59 1030.28 -3.81 1030.31 C-1.94 1030.32 -1.94 1030.32 -0.04 1030.33 C22.26 1030.21 22.26 1030.21 42.07 1021.2 C43.74 1018.88 44.87 1016.63 46 1014 C46.44 1013.06 46.87 1012.11 47.32 1011.14 C56.97 988.66 63.5 964.54 69.94 941 C70.47 939.07 71 937.13 71.54 935.2 C73.84 926.88 76.12 918.55 78.39 910.21 C79.22 907.19 80.05 904.17 80.88 901.15 C83.43 891.83 85.97 882.51 88.51 873.19 C89.11 870.98 89.72 868.76 90.32 866.55 C92.38 859 94.42 851.45 96.42 843.89 C97.48 839.91 98.57 835.93 99.69 831.96 C100.24 830.01 100.77 828.05 101.3 826.09 C101.95 823.69 102.62 821.29 103.31 818.89 C105.2 812.25 105.2 812.25 103.3 805.89 C93.04 791.61 93.04 791.61 79.15 782.69 C72.2 782.29 68.18 784.48 63 789 C27.89 823.46 12.1 877.36 2.36 924.22 C2.09 925.48 1.83 926.73 1.56 928.03 C0.94 930.82 0.94 930.82 1 933 C0.34 933 -0.32 933 -1 933 C-1.09 931.86 -1.18 930.72 -1.27 929.55 C-2.12 922.01 -3.93 914.63 -5.62 907.25 C-5.8 906.47 -5.98 905.69 -6.17 904.88 C-11.25 882.95 -18.87 862.92 -28.35 842.54 C-29.42 840.25 -30.48 837.95 -31.54 835.65 C-38.84 819.74 -46.34 806.11 -58.61 793.44 C-59.98 792.02 -61.33 790.58 -62.68 789.13 C-68.16 783.39 -72.05 779.71 -80.06 778.56 C-91.11 780.21 -101.27 793.97 -108 802 Z M185.04 899.23 C173.51 914.24 171.46 932.7 173 951 C174.24 958.53 176.27 965.86 178.27 973.21 C183.96 994.91 181.3 1011.83 172.56 1032.12 C162.5 1054.13 162.5 1054.13 163.43 1077.63 C164.51 1082.14 164.85 1086.81 165.34 1091.41 C166.98 1100.32 172.55 1105.91 179.77 1110.93 C195.65 1120.65 212.27 1123.37 230.4 1119.03 C248.38 1113.88 262.31 1104.62 275.19 1091.31 C276.24 1090.24 277.29 1089.17 278.35 1088.1 C285.47 1080.81 292.12 1073.34 298 1065 C298.77 1063.94 299.53 1062.89 300.32 1061.8 C323.35 1029.43 342.08 990.16 335.39 949.42 C329.68 925.8 313.13 908.61 292.96 896.16 C275.87 886.06 254.81 879.21 235 878 C234.26 877.95 233.52 877.89 232.76 877.84 C213.58 877.12 197.53 885 185.04 899.23 Z M-317 908 C-317.6 908.46 -318.21 908.93 -318.83 909.41 C-333.51 920.8 -341.64 939.98 -344 958 C-346.98 1000.86 -325.35 1041.73 -298.52 1073.77 C-295.76 1076.93 -292.89 1079.96 -290 1083 C-288.76 1084.41 -287.53 1085.83 -286.31 1087.25 C-270.78 1104.98 -249.58 1119.41 -225.49 1121.48 C-209.48 1122.27 -194.98 1117.54 -182.73 1107.05 C-175.26 1099.98 -171.45 1093.05 -169.69 1082.94 C-169.52 1082.08 -169.35 1081.22 -169.18 1080.33 C-165.73 1061.92 -174.17 1045.52 -181.28 1028.92 C-191.53 1004.7 -190.14 986.6 -183.07 961.59 C-177.79 942.85 -178.72 923.44 -188 906 C-196.64 892.29 -207.44 883.8 -223.22 879.89 C-254.57 873.27 -293.6 887.04 -317 908 Z M26.81 1035.88 C17.02 1038.38 7.79 1039.22 -2.31 1039.25 C-3.45 1039.25 -4.59 1039.26 -5.76 1039.26 C-13.75 1039.21 -21.38 1038.51 -29.21 1036.98 C-32.86 1036.27 -35.45 1035.93 -39 1037 C-38.31 1037.96 -37.62 1038.92 -36.91 1039.9 C-24.44 1057.46 -14.61 1075.2 -12.25 1096.92 C-11.58 1102.1 -10.3 1104.67 -6 1108 C-2.26 1108.7 -0.65 1108.39 2.6 1106.43 C5.65 1103.34 5.93 1100.7 6.38 1096.56 C9.85 1072.46 20.25 1051.75 38 1035 C33.93 1033.64 30.83 1034.83 26.81 1035.88 Z M137 1058 C141.55 1065.48 147.01 1071.66 153 1078 C154.41 1073.78 153 1071.57 151.3 1067.59 C149.42 1063.83 147.44 1060.5 144 1058 C140.25 1057.41 140.25 1057.41 137 1058 Z M-152.38 1060.38 C-163.09 1077.68 -163.67 1099.53 -160.02 1119.31 C-157.97 1127.96 -153.53 1134.47 -146.01 1139.27 C-142.25 1140.87 -138.9 1141.05 -134.86 1140.81 C-130.46 1140.56 -126.39 1140.39 -122 1141 C-119.53 1143.27 -118.57 1145.25 -117.25 1148.32 C-114.92 1153.32 -110.52 1156.77 -105.61 1159.16 C-98.35 1161.49 -90.76 1160.64 -83.99 1157.29 C-81.94 1155.96 -80.49 1154.51 -78.81 1152.75 C-75.42 1149.58 -72.68 1149.67 -68.12 1149.75 C-66.3 1149.83 -66.3 1149.83 -64.45 1149.91 C-56.15 1150.13 -50.4 1147.92 -44.18 1142.38 C-38.81 1136.98 -37.29 1131.4 -36 1124 C-35.42 1123.94 -34.84 1123.87 -34.24 1123.81 C-28.52 1122.91 -25.69 1121.39 -22.09 1116.85 C-17.22 1108.6 -19.9 1097.6 -22.05 1088.92 C-22.32 1087.87 -22.59 1086.83 -22.88 1085.75 C-23.14 1084.71 -23.41 1083.68 -23.69 1082.61 C-24.72 1078.76 -24.72 1078.76 -26 1075 C-26.99 1074.51 -26.99 1074.51 -28 1074 C-28.19 1075.24 -28.39 1076.48 -28.59 1077.76 C-28.85 1079.4 -29.11 1081.05 -29.38 1082.69 C-29.5 1083.5 -29.63 1084.32 -29.76 1085.16 C-31.12 1093.57 -31.12 1093.57 -33 1097 C-34.49 1097.49 -34.49 1097.49 -36 1098 C-41.53 1094.42 -45.87 1089.06 -50 1084 C-52.01 1086.01 -52.9 1087.59 -54.12 1090.12 C-54.48 1090.85 -54.83 1091.57 -55.2 1092.32 C-55.46 1092.87 -55.73 1093.43 -56 1094 C-61.32 1093.81 -63.61 1091.93 -67.15 1088.29 C-67.72 1087.68 -68.29 1087.07 -68.88 1086.44 C-69.76 1085.51 -69.76 1085.51 -70.67 1084.57 C-72.13 1083.06 -73.56 1081.53 -75 1080 C-77.68 1082.38 -79.07 1084.82 -80.63 1088.04 C-81.35 1089.5 -81.35 1089.5 -82.08 1090.99 C-82.57 1092 -83.06 1093.02 -83.56 1094.06 C-84.54 1096.08 -85.52 1098.09 -86.5 1100.1 C-86.94 1100.99 -87.37 1101.88 -87.81 1102.8 C-89 1105 -89 1105 -91 1107 C-92.65 1107 -94.3 1107 -96 1107 C-98.48 1092.64 -98.48 1092.64 -101 1078 C-106.61 1082.76 -106.61 1082.76 -111.79 1087.83 C-112.42 1088.48 -113.05 1089.14 -113.7 1089.81 C-115 1091.16 -116.29 1092.51 -117.57 1093.87 C-118.51 1094.84 -118.51 1094.84 -119.48 1095.83 C-120.03 1096.42 -120.59 1097 -121.17 1097.6 C-123.42 1099.32 -125.2 1099.71 -128 1100 C-128.33 1099.67 -128.66 1099.34 -129 1099 C-128.93 1097.23 -128.79 1095.45 -128.62 1093.69 C-128.48 1092.08 -128.48 1092.08 -128.32 1090.43 C-128.22 1089.3 -128.11 1088.17 -128 1087 C-127.81 1084.75 -127.62 1082.5 -127.44 1080.25 C-127.29 1078.5 -127.15 1076.75 -127 1075 C-130.32 1076.18 -133.35 1077.69 -136.43 1079.38 C-137.25 1079.83 -138.06 1080.27 -138.9 1080.73 C-140.59 1081.66 -142.28 1082.6 -143.96 1083.54 C-148.47 1085.99 -151.72 1087.67 -157 1087 C-156.54 1082 -155.2 1079.47 -151.94 1075.69 C-151.13 1074.74 -150.33 1073.8 -149.5 1072.83 C-146.51 1069.45 -143.5 1066.09 -140.43 1062.78 C-138.79 1061.12 -138.79 1061.12 -139 1059 C-145.95 1058.35 -145.95 1058.35 -152.38 1060.38 Z M24 1067 C18.92 1079.03 14.79 1090.09 14.62 1103.31 C14.61 1104.07 14.6 1104.82 14.58 1105.59 C14.64 1111.75 16.11 1116.23 19.62 1121.38 C23.17 1123.8 26.79 1123.82 31 1124 C31.15 1124.96 31.15 1124.96 31.3 1125.94 C32.92 1135.34 36.11 1141.39 44 1147 C49.7 1150.15 56.44 1150.33 62.75 1149.38 C65.7 1148.99 66.8 1148.92 69.62 1150.06 C72.22 1152.18 74.77 1154.34 77.25 1156.6 C83.15 1161.34 89.75 1160.5 97 1160 C103.58 1158.85 107.94 1155.19 112 1150 C114.28 1146.34 116 1143.36 116 1139 C116.89 1139.33 117.77 1139.66 118.69 1140 C125.56 1141.93 133.83 1142.4 140.44 1139.44 C148.3 1134.7 152.44 1127.02 154.69 1118.34 C156.77 1107.37 156.19 1096.11 156 1085 C155.12 1085.22 154.25 1085.43 153.35 1085.66 C149.4 1086.06 147.89 1085.37 144.45 1083.47 C143.44 1082.93 142.43 1082.38 141.39 1081.82 C140.36 1081.24 139.32 1080.66 138.25 1080.06 C136.17 1078.93 134.1 1077.79 132.02 1076.66 C131.1 1076.15 130.19 1075.64 129.24 1075.12 C127.12 1073.85 127.12 1073.85 125 1074 C125.06 1074.64 125.12 1075.29 125.18 1075.95 C125.86 1083.29 126.45 1090.64 127 1098 C125.28 1098.73 125.28 1098.73 123 1099 C120.88 1097.59 120.88 1097.59 118.56 1095.38 C117.27 1094.15 117.27 1094.15 115.95 1092.9 C114.96 1091.94 113.98 1090.97 113 1090 C112.43 1089.44 111.86 1088.87 111.27 1088.29 C107.49 1084.56 103.73 1080.79 100 1077 C98.33 1079.98 97.62 1082.5 97.18 1085.88 C97.06 1086.8 96.93 1087.72 96.81 1088.67 C96.68 1089.62 96.56 1090.58 96.44 1091.56 C96.19 1093.46 95.94 1095.36 95.68 1097.25 C95.58 1098.09 95.47 1098.93 95.36 1099.8 C95 1102 95 1102 94 1105 C92.51 1105.49 92.51 1105.49 91 1106 C86.68 1102.14 84.33 1098.28 81.88 1093.06 C81.54 1092.37 81.21 1091.68 80.86 1090.97 C80.21 1089.62 79.56 1088.27 78.92 1086.91 C77.65 1084.26 76.32 1081.63 75 1079 C70.2 1080.92 67.65 1084.71 64.41 1088.59 C61.8 1091.2 59.36 1092.53 56 1094 C53.59 1091.81 52.2 1089.74 50.81 1086.81 C50.47 1086.1 50.12 1085.38 49.77 1084.64 C49.39 1083.83 49.39 1083.83 49 1083 C45.46 1085.88 42.17 1088.63 39.44 1092.31 C37 1095 37 1095 33.69 1095.88 C32.8 1095.92 31.91 1095.96 31 1096 C28.64 1089.85 27.99 1083.57 27.14 1077.08 C27.02 1076.21 26.9 1075.35 26.78 1074.46 C26.68 1073.67 26.58 1072.89 26.47 1072.08 C26.06 1069.71 26.06 1069.71 24 1067 Z " fill="#000000" transform="translate(649,57)"/>
<path d="M0 0 C2.29 1.7 4.36 3.49 6.42 5.46 C7.36 6.35 7.36 6.35 8.31 7.27 C19.13 18.6 22.92 33.09 22.84 48.33 C22.63 55.51 21.2 61.8 18.42 68.46 C17.91 69.69 17.91 69.69 17.39 70.95 C15.23 75.65 12.51 79.81 9.55 84.04 C3.98 91.54 3.98 91.54 2 100.43 C3.83 109.31 10.93 115.62 16.97 121.94 C37.16 143.08 37.16 143.08 37.51 157.3 C37.22 169.6 34.47 178.22 25.84 187.2 C16.29 196.11 4.61 200.62 -8.44 200.55 C-25.18 199.82 -41.43 190.4 -53.58 179.46 C-54.53 178.64 -55.48 177.81 -56.46 176.97 C-84.69 152.27 -113.18 106.86 -115.82 69.04 C-116 59.94 -115.58 52.59 -109.8 45.18 C-103.74 38.94 -97 37.61 -88.58 36.46 C-88.54 35.22 -88.5 33.98 -88.46 32.71 C-87.58 25 -84 17.21 -78.21 11.96 C-77.03 11.08 -75.82 10.25 -74.58 9.46 C-73.98 9.06 -73.37 8.66 -72.75 8.25 C-65.1 3.83 -57.3 3.81 -48.89 5.89 C-47.12 6.4 -45.35 6.91 -43.58 7.46 C-43.13 6.59 -42.67 5.72 -42.21 4.83 C-38.95 -0.1 -33.11 -3.42 -27.55 -5.19 C-18.04 -6.89 -8.29 -4.95 0 0 Z M-32.58 8.46 C-36.13 13.87 -36.6 21.2 -37.58 27.46 C-38.26 26.76 -38.94 26.05 -39.64 25.33 C-47.45 17.19 -47.45 17.19 -57.83 14.08 C-63.68 14.25 -68.04 16.13 -72.34 20.07 C-77.98 26.23 -78.92 32.77 -79.71 40.83 C-79.79 41.66 -79.88 42.49 -79.97 43.35 C-80.18 45.39 -80.38 47.42 -80.58 49.46 C-81.82 49.13 -83.05 48.81 -84.32 48.48 C-90.02 47.06 -94.44 46.36 -99.89 49.14 C-104.13 52.79 -105.72 56.02 -106.58 61.46 C-108.09 92.68 -82.49 134.81 -62.49 157.1 C-60.22 159.59 -57.9 162.02 -55.58 164.46 C-54.85 165.25 -54.13 166.04 -53.38 166.86 C-40.93 180 -25.11 190.2 -6.64 190.77 C4.58 190.53 13.23 186.53 21.23 178.71 C26.37 171.07 28.69 163.67 27.42 154.46 C24.27 141.54 13.25 131.51 4.28 122.25 C-1.95 115.67 -7.53 107.85 -8.52 98.58 C-8.05 91.29 -2.69 85.22 1.42 79.46 C10.78 65.91 14.08 53.83 12.42 37.46 C10.35 26.28 5.45 16.06 -3.52 8.86 C-11.82 3.19 -24.48 1.41 -32.58 8.46 Z " fill="#000000" transform="translate(431.58203125,957.54296875)"/>
<path d="M0 0 C2.18 2.18 3.52 4.4 5.06 7.06 C5.8 6.83 6.54 6.61 7.3 6.37 C17.59 3.46 26.16 3.13 35.71 8.43 C45.56 15.27 49.15 24.9 52.06 36.06 C52.86 36.23 53.66 36.4 54.48 36.58 C62.56 38.43 68.15 40.24 73.31 47 C79.11 56.4 78.57 66.54 76.15 76.93 C65.28 119.47 39.24 166.5 1.06 190.06 C-12.58 197.9 -27.29 202.29 -42.94 198.94 C-48.97 197.3 -53.82 194.59 -58.94 191.06 C-59.82 190.49 -60.71 189.91 -61.62 189.31 C-70.24 180.93 -74.99 170.58 -75.44 158.56 C-75.03 147.5 -71.29 139.18 -63.94 131.06 C-63.49 130.57 -63.05 130.08 -62.59 129.57 C-58.2 124.74 -53.74 119.98 -49.27 115.22 C-48.48 114.36 -47.69 113.51 -46.88 112.62 C-46.18 111.88 -45.49 111.14 -44.78 110.38 C-41.95 106.81 -40.19 103.34 -39.31 98.88 C-40.42 92.12 -44.79 86.98 -48.79 81.55 C-60.06 66.14 -61.53 50.72 -59.94 32.06 C-58.19 22.82 -53.28 14.89 -46.94 8.06 C-46.23 7.27 -45.53 6.48 -44.81 5.66 C-32.56 -7.48 -15.23 -10.05 0 0 Z M-40.2 13.64 C-49.48 26.61 -52.19 39.35 -50.94 55.06 C-48.73 66.36 -41.21 77.02 -34.44 86.12 C-30.2 92.38 -29.66 97.68 -30.94 105.06 C-32.93 112.44 -38.84 117.65 -43.94 123.06 C-45.11 124.39 -46.28 125.72 -47.44 127.06 C-49.32 129.24 -51.22 131.37 -53.2 133.46 C-60.49 141.28 -66.32 148.7 -66.16 159.78 C-65.16 170.21 -60.26 177.57 -52.41 184.23 C-43.97 190.5 -35.22 191.1 -24.94 190.06 C0.24 185.01 21.6 163.34 35.66 142.77 C50.48 120.23 71.38 86 68.06 58.06 C66.34 52.9 63.66 49.96 59.06 47.06 C53.75 46.21 48.32 47.17 43.06 48.06 C42.77 46.65 42.48 45.23 42.19 43.81 C42 42.9 41.81 41.99 41.62 41.05 C41.25 39.05 40.94 37.03 40.7 35.01 C39.82 27.97 38.38 22.97 33.06 18.06 C28.49 14.68 23.96 13.38 18.29 13.69 C10.33 15.03 5.85 19.9 1.06 26.06 C-2.29 22.71 -2.68 17.96 -3.84 13.45 C-4.86 10.31 -5.71 8.44 -7.94 6.06 C-19.23 0.41 -32 4.82 -40.2 13.64 Z " fill="#000000" transform="translate(896.9375,957.9375)"/>
<path d="M0 0 C5.68 4.37 8.42 9.55 9.43 16.61 C9.78 23.95 8.42 29.76 4.01 35.71 C-1.83 41.4 -7.62 44 -15.8 44.09 C-22.88 43.96 -27.48 42.96 -32.7 38.14 C-38.58 31.78 -40.65 25.4 -40.4 16.78 C-39.43 9.51 -35.82 3.37 -30.01 -1.1 C-19.69 -7.15 -9.8 -6.34 0 0 Z " fill="#000000" transform="translate(748.98828125,359.28515625)"/>
<path d="M0 0 C6.51 4.99 10.64 10.57 11.88 18.75 C12.45 26.52 10.1 34.07 5 40 C-3.04 45.99 -10.05 46.79 -20 46 C-26.86 44.05 -31.2 39.55 -35.25 33.81 C-38.44 27.79 -38.62 21.41 -37 14.88 C-34.42 7.51 -29.85 2.73 -23.06 -1 C-15.25 -4.49 -7.7 -3.68 0 0 Z " fill="#000000" transform="translate(570,357)"/>
<path d="M0 0 C11.99 6.64 20.13 18.18 24.17 31.16 C25.09 36.28 25.29 41.17 22.88 45.89 C20.24 49.37 18.63 50.64 14.5 52.01 C8.06 52.7 3.99 50.96 -1.06 47 C-10.49 38.35 -19.42 29.34 -20.7 15.86 C-20.82 9.93 -19.89 5.9 -16 1.2 C-11.54 -2.33 -5.03 -1.99 0 0 Z M-10.5 9.01 C-12.17 16.09 -9.77 20.75 -6.5 27.01 C-2.3 33.5 2.51 40.1 10.32 41.89 C11.37 41.93 12.42 41.97 13.5 42.01 C14.87 40.85 14.87 40.85 14.94 37.7 C14.77 27.89 7.94 19.79 1.55 12.97 C-1.49 10.06 -2.89 9.03 -7.18 8.89 C-8.28 8.93 -9.37 8.97 -10.5 9.01 Z " fill="#000000" transform="translate(613.49609375,588.98828125)"/>
<path d="M0 0 C3.58 1.91 5.59 3.47 6.99 7.25 C8.61 18.08 5.89 26.2 -0.01 35.25 C-5.04 41.87 -10.92 48.55 -19.01 51.25 C-28.08 52.24 -28.08 52.24 -32.03 50.2 C-35.14 47.62 -36.86 45.65 -37.28 41.63 C-37.71 27.77 -32.29 17.39 -23.01 7.25 C-16.37 1.66 -8.93 -3.35 0 0 Z M-20.76 19.5 C-25.59 26.06 -28.89 32.99 -28.01 41.25 C-26.93 42.51 -26.93 42.51 -24.45 42.75 C-16.64 41.61 -11.28 33.66 -6.71 27.73 C-2.92 22.2 -1.45 17.02 -2.01 10.25 C-3.08 8.98 -3.08 8.98 -5.57 8.81 C-12.26 9.66 -16.59 14.47 -20.76 19.5 Z " fill="#000000" transform="translate(690.0078125,588.75390625)"/>
</svg>
