<?xml version="1.0" encoding="utf-8"?>
<!-- Generator: Adobe Illustrator 23.0.1, SVG Export Plug-In . SVG Version: 6.00 Build 0)  -->
<svg version="1.0" id="Слой_1" xmlns="http://www.w3.org/2000/svg" xmlns:xlink="http://www.w3.org/1999/xlink" x="0px" y="0px"
	 viewBox="0 0 720 720" style="enable-background:new 0 0 720 720;" xml:space="preserve">
<g id="Слой_6">
	<path d="M383.5,309.6c8.3,0.1,15.2-9,15.4-20.4c0.2-11.4-6.5-20.7-14.8-20.8c-8.3-0.1-15.2,9-15.4,20.4
		C368.6,300.1,375.2,309.4,383.5,309.6 M388,275.5c3.1,0.1,5.5,3.3,5.4,7.2c-0.1,3.9-2.6,7.1-5.7,7c-3.1,0-5.5-3.3-5.5-7.2
		C382.4,278.6,384.9,275.5,388,275.5"/>
</g>
<g id="Слой_5">
	<path d="M208.4,268.3c-8.3-0.1-15.2,9-15.4,20.4c-0.2,11.4,6.5,20.7,14.8,20.8c8.3,0.1,15.2-9,15.4-20.4
		C223.3,277.8,216.7,268.4,208.4,268.3 M212.1,289.8c-3.1,0-5.5-3.3-5.4-7.2c0.1-3.9,2.6-7.1,5.7-7.1c3.1,0.1,5.5,3.3,5.4,7.2
		C217.7,286.7,215.1,289.8,212.1,289.8"/>
</g>
<g id="Слой_4">
	<path d="M469.9,580c-12.7-7.3-30.3-0.6-39.3,15.1c-9,15.7-6.1,34.3,6.6,41.6c12.7,7.3,30.3,0.6,39.3-15.1
		C485.5,606,482.5,587.4,469.9,580"/>
</g>
<g id="Слой_3">
	<path d="M121.2,588.6c-10.4,10.4-8.4,29.1,4.4,41.9c12.8,12.8,31.5,14.7,41.9,4.4c10.4-10.4,8.4-29.1-4.4-41.9
		C150.3,580.2,131.5,578.3,121.2,588.6"/>
</g>
<g id="Слой_2">
	<path d="M643.1,352c-11.7-30.5-43.3-51.4-78.9-52.2c-34.6-0.8-65.5,17.7-85.7,50.3c13.1-26.5,14.7-57.5,4.2-89.4
		c-1.9-5.9-3.5-14.2-5.2-23.8c-3.8-20.7-8.5-46.2-20.6-64.6c4-2.5,7.7-5.4,11.1-8.8c18.4-18.5,31-77,26.6-99.7
		c3.9-9.4,12.5-16.8,22.5-19.1c1.2-0.3,1.3-2,0.1-2.3c0,0-0.1,0-0.1,0c-1.1-0.3-1.2-1.8-0.2-2.2l2.3-1.1c1.1-0.6,0.7-2.3-0.5-2.3
		h-7.6c-0.7,0-1.3-0.7-1.2-1.4c0.3-1.7,0.8-4.2,1.1-6c0.2-0.9-0.7-1.7-1.6-1.4c-2.4,0.8-3.3,1.2-5.7,2.3c-0.8,0.4-1.7-0.2-1.7-1.1
		l0-3.4c0-1.1-1.4-1.7-2.1-0.8l-1.1,1.2c-0.7,0.8-1.8,0.3-2.1-0.8c-0.9-3.5-0.9-5.4-2.8-5.4c-1.9,1.9-0.3,7.1-0.6,9.5
		c-0.5,4.2-1.5,8.4-2.9,12.4c-1.4,4-4.2,7.6-5.4,11.5c0,0.2-0.1,0.3-0.1,0.4c-20.2-2.5-75.7,13.9-94.3,32.4
		c-6.4,6.4-11.3,14.1-14.4,22.5c-25.6-10.7-53.1-16.2-81.7-16.2h-1.9c-29.7,0-58.1,5.8-84.5,17.3c-0.5,0.2-1,0.5-1.5,0.7
		c-3.2-9.1-8.6-17.4-15.7-24.1C172,68.5,116,53.7,95.9,56.8c0-0.1-0.1-0.3-0.1-0.4c-1.3-3.9-4.3-7.4-5.7-11.3
		c-1.5-4-2.6-8.1-3.2-12.3c-0.4-2.4,1-7.7-0.9-9.5c-1.9,0.1-1.8,1.9-2.6,5.4c-0.3,1.1-1.3,1.7-2.1,0.9l-1.1-1.2
		c-0.8-0.8-2.1-0.3-2.1,0.9l0.1,3.4c0,0.9-0.9,1.5-1.7,1.2c-2.5-1-3.3-1.3-5.8-2.1c-0.9-0.3-1.7,0.5-1.5,1.4c0.4,1.8,1,4.3,1.3,6
		c0.1,0.7-0.4,1.4-1.2,1.4l-7.6,0.2c-1.3,0-1.6,1.8-0.5,2.3l2.3,1.1c1,0.5,0.9,1.9-0.1,2.2c0,0-0.1,0-0.1,0
		c-1.2,0.4-1.1,2.1,0.2,2.3c10,1.9,18.8,9.2,23,18.4C82.8,89.8,97,148,116,166c3.9,3.7,8.2,6.8,12.8,9.3c-2.6,4.4-4.8,9-6.7,13.9
		c-0.6,0.6-1,1.4-0.9,2.4c0,0,0,0,0,0c-5.5,14.8-8.5,31.2-11.1,45.3c-1.8,9.6-3.3,17.9-5.2,23.8c-12.7,38.5-7.7,76,14,105.4
		c17.4,23.6,44.3,41,78.9,51.5c-0.1,0.2-0.3,0.5-0.4,0.7c-2.5,8-4.7,16.3-6.6,24.8c-0.2,0.2-0.4,0.5-0.6,0.9
		c-16.2,38.7-22.3,55.1-26.1,96.2c-15.5-9.2-37.3-7.9-52.9,3.9C96,555.6,86.9,576,87.6,597.3c0.7,25.2,14.4,49.4,35.7,63.1
		c12.5,8,26.8,12.1,41.1,12.1c9.5,0,19-1.8,28-5.4c9,13.1,23.5,21.4,38.6,22.1c0.6,0,1.1,0,1.7,0c16.3,0,32.1-9.6,38.9-23.8
		c1.7-3.7,2.8-7.5,3.5-11.4c8.4-0.2,17-0.2,25.2-0.3c8.2,0,16.6-0.1,25-0.3c0.6,4.1,1.8,8.1,3.6,11.9c6.7,14.2,22.5,23.8,38.9,23.8
		c0.6,0,1.1,0,1.7,0c16.1-0.7,31.5-10.1,40.3-24.7c0-0.1,0.1-0.1,0.1-0.2c9.2,3.7,19,5.5,28.8,5.5c14.8,0,29.6-4.1,42.1-12.2
		c11.3-7.2,20.4-17.5,26.6-29.2c0,0,0,0,0,0h0c18.6-0.2,34.1-6.5,48.8-20c24.6-22.5,28.1-55.1,28-72.5c-0.2-23.5-6.2-46.7-11.9-69.1
		c-0.6-2.5-1.3-5-1.9-7.5c-0.6-2.2-1.2-4.4-1.8-6.6c-4.4-16.1-8.2-30,3.3-39.6c5.6-4.7,11.2-5.2,16-1.5c10,7.7,14.7,30.3,5.4,50.5
		c-0.9,2-0.3,4.4,1.5,5.7c1.8,1.3,4.3,1.2,5.9-0.4C656.2,415.5,651.1,372.8,643.1,352 M409.3,441.4c0-0.1-0.1-0.1-0.1-0.2
		c-2.1-9.3-4.5-18.5-7.2-27.6c28.8-10.7,51.5-26.7,66.8-47.5c1.4-2,2.8-3.9,4.1-6c-1.4,2.7-2.7,5.6-4,8.5
		c-5.9,13.5-7.8,33.1-9.8,53.8c-3.3,33.7-6.7,68.4-27.4,76.6C426.1,479.1,418.7,462.4,409.3,441.4 M442.2,154.1
		c-11.8-12.7-25.6-23.7-41.1-32.9c1.4-1.7,2.9-3.4,4.5-5c6.8-6.5,15.2-10.6,23.5-11.4c8-0.8,15.1,1.5,19.8,6.5
		c4.8,5,6.7,12.1,5.5,20.1C453.3,139.6,448.9,147.6,442.2,154.1 M394.9,90.4c22.4-22.3,87.6-34.9,92.5-30.1
		c7.7,7.7-2,77.9-23.4,99.3c-3.1,3.1-6.6,5.9-10.3,8.2c-2.4-3.2-4.9-6.3-7.6-9.4c7.6-7.3,12.6-16.6,14.1-26c1.5-9.8-1-18.7-7-25
		c-6-6.3-14.7-9.2-24.6-8.2c-9.6,1-19.1,5.6-26.9,12.9c-2,1.9-3.9,4-5.6,6.2c-4.7-2.6-9.5-5-14.4-7.2
		C384.5,103.4,389,96.3,394.9,90.4 M210.7,115.2c25.7-11.2,53.3-16.9,82.2-16.9h1.9c28.6,0,56,5.6,81.5,16.6
		c0.2,0.2,0.4,0.4,0.7,0.5c6.4,2.8,12.6,6,18.5,9.4c2.1,1.2,4.2,2.5,6.2,3.7c14.3,9,27,19.7,38,31.8c3.8,4.2,7.4,8.6,10.6,13.1
		c0.3,0.4,0.8,0.8,1.2,0.9c2.2,3.2,4.2,6.8,6,10.5c-27.1-0.4-72.3,15.3-108,47.2c-22.3,20-49,53.9-50.9,102.7
		c-1.6-0.4-3.3-0.6-5.1-0.6c-0.9,0-1.8,0-2.7,0.1c-1.1-37.2-17.5-71-47.6-98c-35.4-31.7-84.4-48.7-114.4-48.1
		c2.4-5.7,5.3-11,8.7-15.6c3.2-4.4,6.8-8.8,10.6-12.9c12.5-13.8,27.4-25.6,44.2-35.2C198.1,121.1,204.3,118,210.7,115.2
		 M292.5,373.6c2,2.9,5,5,8.4,5.9c-2,1.5-5.4,2.2-9.1,1.8c-2.8-0.3-5.2-1.2-6.8-2.4C287.9,377.9,290.6,376.1,292.5,373.6
		 M143.9,153.8c-6.5-6.4-10.8-14.3-12-22.3c-1.2-8,0.7-15.2,5.5-20.1c4.7-5,11.8-7.3,19.8-6.5c8.3,0.8,16.7,4.9,23.5,11.4
		c1.3,1.3,2.6,2.6,3.7,4C169.2,129.7,155.6,140.9,143.9,153.8 M93.8,63.2c4.8-5,70.4,5.8,93.4,27.5c6.1,5.8,10.8,12.8,13.8,20.5
		c-3.9,1.9-7.7,4-11.4,6.1c-1.5-1.8-3-3.6-4.8-5.2c-7.7-7.4-17.3-12-26.9-13c-9.8-1-18.6,1.9-24.6,8.2c-6,6.3-8.5,15.2-7,25
		c1.4,9.3,6.3,18.5,13.8,25.8c0,0-0.1,0.1-0.1,0.1c-3.3,3.8-6.3,7.8-9.1,11.7c-3.9-2.2-7.6-5-11-8.1C98,141,86.3,71.1,93.8,63.2
		 M123.4,362.7c-20.6-27.9-25.3-63.5-13.2-100.2c2.1-6.3,3.6-14.7,5.4-24.5c2.5-13.8,5.5-29.7,10.7-44
		c24.5-1.3,74.1,11.8,112.9,46.5c29.3,26.2,45.1,59,45.8,95c-5,1.9-8.4,5.5-8.4,9.6c-0.1,4.4,8.1,9.5,13,12.1
		c-0.2,0.4-0.2,0.9-0.1,1.4c0.2,1,0.3,2,0.3,3c-0.1,1-0.1,2,0,3c-0.2,2.1-0.8,3.8-1.7,5.3c-2.1,3.2-6.6,4.8-10.3,3.6
		c-3.6-1.2-6.3-5.1-6.1-9c0.1-1.6-1.1-2.9-2.7-3c-1.6,0-2.9,1.1-3,2.7c-0.3,6.4,4,12.7,10.1,14.7c0.7,0.2,1.4,0.4,2.2,0.5
		c1.9,4,6.8,6.8,13,7.5c0.8,0.1,1.6,0.1,2.4,0.1c5.4,0,11.6-1.8,14.1-7.1c0-0.1,0.1-0.2,0.1-0.3c0.3-0.1,0.7-0.1,1-0.2
		c6.1-1.8,10.7-8,10.5-14.4c0-1.6-1.3-2.8-2.9-2.8c-1.6,0-2.8,1.4-2.8,2.9c0.1,3.8-2.7,7.7-6.4,8.8c-3.7,1.1-8.1-0.6-10.2-3.9
		c-0.9-1.5-1.4-3.2-1.5-5.3c0.1-1,0.1-2,0-3c0.1-0.9,0.2-1.9,0.4-3c0.1-0.4,0.1-0.7,0-1.1c4.8-2.4,13.9-7.5,14-12.1
		c0-3.4-2.2-6.5-5.7-8.6c1.1-47.9,27.2-81.1,49-100.6c34.6-31,80.9-47.3,106.8-45.7c6,15.1,9.2,32.4,12,47.3
		c1.8,9.8,3.4,18.3,5.4,24.5c12.1,36.7,7.4,72.3-13.2,100.2c-30,40.7-90.2,62.3-169.5,61h-1.9h0C213.6,425,153.4,403.4,123.4,362.7
		 M126.3,655.5c-19.7-12.6-32.3-35-33-58.4c-0.6-19.5,7.6-38,21.3-48.4c15-11.4,36.6-11.8,50.1-1.1c0.8,0.7,1.9,0.8,2.9,0.4
		c1-0.4,1.6-1.3,1.7-2.4c2.7-31.9,6.2-48.3,15.6-73.4c-7,42.9-8.7,91.6-5.2,147.2c0.9,13.7,2.4,29.3,9.5,42.6
		C168.3,670.2,145.5,667.9,126.3,655.5 M369.1,683.3c-14.7,0.6-29.1-7.8-35.1-20.5c-1.9-4-2.9-8.1-3.4-12.4c0,0,0,0,0,0
		c0-0.2,0-0.4-0.1-0.6c-1-9.9,1-20.8,3.6-32.6l15.1-69.6c0.3-1.5-0.6-3.1-2.2-3.4c-1.5-0.3-3.1,0.6-3.4,2.2l-15.1,69.6
		c-2,9.1-4.4,20.4-3.8,31.6c-8.2,0.2-16.4,0.2-24.4,0.2c-8,0-16.3,0.1-24.6,0.2c0.7-11.4-1.8-22.9-3.8-32.1l-15.1-69.6
		c-0.3-1.5-1.9-2.5-3.4-2.2c-1.5,0.3-2.5,1.9-2.2,3.4l15.1,69.6c3.7,17.1,6.3,32.4,0,45.6c-6,12.6-20.4,21.1-35.1,20.5
		c-14-0.6-28-9.2-35.6-21.9c-7.7-12.7-9.2-28.5-10.1-42.4c-4.9-79.7,0.7-144.8,17.4-199c0.1-0.3,0.1-0.6,0.1-0.9
		c26.2,7.3,56.4,10.8,90,10.2h1.8c2.4,0,4.8,0.1,7.2,0.1c35.9,0,67.8-4.8,94.7-14c22.3,73.5,21,159,18.2,203.6
		c-0.9,13.8-2.4,29.6-10.1,42.4C397,674.2,383.1,682.8,369.1,683.3 M477.6,652.8c-19.2,12.3-44,14.7-65.2,6.4
		c5.9-12.6,7.3-27,8.1-39.7c2.1-34.6,3.4-93.6-6.4-152.7c9.5,22.8,16.3,43.6,20.5,76.3c0.1,1,0.8,1.9,1.8,2.3c1,0.4,2,0.2,2.9-0.4
		c13.5-10.7,35.1-10.3,50.1,1.1c13.7,10.4,21.9,28.9,21.3,48.4C509.9,617.8,497.3,640.1,477.6,652.8 M600.4,459.8
		c7.8-21.6,2.1-44.2-9.1-52.7c-7-5.4-15.5-4.8-23.2,1.7c-14.3,12-9.7,29-5.2,45.5c0.6,2.2,1.2,4.3,1.7,6.5c0.6,2.5,1.3,5,1.9,7.5
		c5.7,22.1,11.6,44.9,11.7,67.7c0.1,16.5-3.1,47.3-26.1,68.3c-12.9,11.7-26.4,17.6-42.2,18.4c3.8-8.8,6-18.4,6.3-28
		c0.6-21.3-8.4-41.7-23.6-53.2c-15.6-11.8-37.6-13.2-53.1-3.8c-1.8-12.5-3.9-23.2-6.4-33.1c24.6-9,28.2-45.9,31.6-81.6
		c2-20.2,3.8-39.3,9.3-52.1c18.3-42.3,51.1-66.1,89.9-65.3c33.2,0.7,62.8,20.2,73.6,48.5C645.1,373.1,649.6,411.8,600.4,459.8"/>
</g>
</svg>
