<?xml version="1.0" encoding="utf-8"?>
<!-- Generator: Adobe Illustrator 22.1.0, SVG Export Plug-In . SVG Version: 6.00 Build 0)  -->
<svg version="1.1" id="Layer_1" xmlns="http://www.w3.org/2000/svg" xmlns:xlink="http://www.w3.org/1999/xlink" x="0px" y="0px"
	 viewBox="0 0 818 864" style="enable-background:new 0 0 818 864;" xml:space="preserve">
<g>
	<path d="M541.3,366c26.1-24.9,39-57.7,53.6-89.5c2.8-6,4.8-12.4,8.2-18c7.5-12.5,19.9-13.9,30.7-4.1c8.5,7.7,11.6,18,12.6,28.7
		c3,33.9,0.1,67.1-15.6,98c-8,15.9-16.7,31.4-25.4,46.9c-6,10.7-13.8,20-22.5,28.7c-8,8-8.2,8.6-0.5,15.6
		c22.6,20.3,36,46.3,46.3,74.2c4.1,10.9,8,22,12.2,32.9c5.4,14.1,11.9,18.2,26.9,15.8c25.7-4.1,48.7-14.4,67.7-32.4
		c20.5-19.4,36-42.6,48.1-68.1c1.1-2.3,1.9-4.7,2.8-7.1c11.2-28-8.9-52.2-29.5-60.1c-7.4-2.9-13.9-0.8-19,5.5
		c-2.9,3.6-4.9,7.7-5.7,12.3c-1.5,8.8,2.3,13.3,11.4,13.4c2.5,0,5.1-0.3,7.6-0.2c14.4,0.7,23.5,14.7,18.3,28.2
		c-4.5,11.6-14.2,17.2-25.3,19.9c-23.2,5.7-56.2-7.5-60-41.3c-3.1-27.2,8-48.4,29-65c4.9-3.8,10.6-6.1,16.5-7.7
		c42.2-11.2,84.8,19.5,88.1,63.3c1.4,18.1-1.6,35.5-8.3,52.2c-7.9,19.9-17.6,38.9-29.9,56.4c-18.5,26.4-42.2,46.4-72.6,58.3
		c-12.8,5-25.7,9.4-39.2,12.3c-3,0.6-4.2,2.6-3.5,5.6c2.7,10.3,5.5,20.6,8.2,30.9c5.9,22.1,12,44.1,15.5,66.7
		c2.9,18.8,2.4,37.5-2.1,56c-0.7,3-1.7,5.9-2.8,8.7c-4.5,12.1-13.5,19-30.5,15.9c-7.8-1.4-14-5.8-19.3-11.5
		c-7.1-7.5-12.4-16.2-16.4-25.5c-5.5-12.6-10.4-25.3-15.7-38c-6-14.5-12-29.1-18.2-43.6c-1.6-3.7-3.3-7.4-5.5-10.9
		c-2.9-4.6-4.9-11.8-11.4-10.6c-5.3,1-5.4,8-6.7,12.8c-2.3,9-1.6,18,1.2,27c7,21.9,16.9,42.4,27.4,62.7c4.9,9.5,10.3,18.7,15,28.2
		c4,8.2,7.2,16.7,7.2,26.2c-0.1,15.9-5.7,23.3-21.4,26.5c-11.5,2.3-23.3,2.1-34.9,0.1c-10.6-1.8-20.5-5.5-30.1-10.4
		c-14.1-7.2-27.1-16.1-39.7-25.6c-27-20.3-49.9-44.8-70.1-71.7c-14.5-19.2-23.7-41.4-31.9-63.9c-5.4-14.8-9.9-29.9-15-44.7
		c-1.5-4.3-3.3-8.6-5.5-12.5c-2.3-3.9-6.2-4.9-10.6-3.4c-5.5,1.9-9.8,5.2-13.4,9.7c-4.8,6-8.2,12.8-11.1,19.9
		c-7.3,18-11.6,36.8-15.1,55.7c-0.6,3.5-1.3,7-2.4,10.4c-5.4,16-19.1,21.3-34,13.1c-7.4-4.1-12.5-10.3-16-17.8
		c-4.6-9.8-6.9-20.1-8.3-30.7c-3.6-27.1-1.1-53.7,4.6-80.2c7.4-34.3,20.6-65.8,42.2-93.7c0.9-1.2,2-2.4,2.5-3.8
		c0.8-2.3-0.2-4-2.5-4.5c-3-0.6-6-0.9-9.1-1.1c-40.5-2.8-77.4-15.6-110.8-38.6c-10.2-7-10.1-6.8-17.3,3.6
		c-12,17.3-28.4,28.9-48.9,34.3c-25.8,6.8-49.5,1.6-71-13.4c-42.3-29.4-53.3-90.4-24.1-132.9c13.5-19.7,32-32.4,55.8-36.5
		c1.5-0.3,3.1-0.4,4.5-0.9c4.2-1.5,9.8,0.7,12.9-3.2c3-3.8,0.6-8.8,0.6-13.3c-0.2-33,6-64.6,19.3-94.8
		c20.4-46.5,52.7-82.8,95.1-110.5c14.5-9.4,14.6-9.4,15.4-26.6c0.7-15.7,0.9-31.5-0.7-47.2c-0.3-3-0.6-6.3,3.2-7.6
		c2.9-0.9,5.8,2.3,5.9,7.2c0.3,13.7,0.3,27.4,0.3,41.2c0,4.1-0.5,8.1-0.4,12.2c0,1.3,0.7,3.3,1.7,3.6c1.8,0.7,2.5-1.1,2.8-2.6
		c1.8-7.5,2.3-15,2.4-22.7c0-6.1,0.1-12.2,0.3-18.3c0.1-2,0.3-4.1,0.9-6c0.7-2.1,2.3-3,4.7-2.6c1.9,0.3,2.7,1.9,2.7,3.2
		c0.2,6.1,0,12.2-0.1,18.3c0,3.5,0,7.1,0,9.8c1.9,2.6,3.1,1.7,4.1,0.5c1.4-1.6,3-2.9,5.2-2c3.2,1.2,2.6,3.8,2,6.4
		c-0.2,1-0.6,2-0.6,3c0.1,2.4,1.5,3.8,3.9,3.3c4.9-1.2,9.8-2.7,14.6-4.1c58.4-16.8,115.4-13.6,170.8,12.3c6.4,3,12.6,6.3,18.8,9.4
		c3.3-5,3.8-10.2,5.5-14.9c12.4-35.7,35.2-61.8,72.1-72.7c51.7-15.3,96.6,14.1,109.4,60.8c17.1,62.8-27,129.3-89.3,136.9
		c-1.5,0.2-3,0.3-4.5,0.6c-3,0.7-3.9,2.9-3.5,5.7c0.4,2.5,1.1,4.9,1.7,7.4c1.9,8.9,3.7,17.8,4.9,27c4.6,37.2-1.3,72.9-14.9,107.5
		c-1.1,2.8-2.3,5.6-3.3,8.5c-0.9,2.6-0.2,5,1.2,7.2L541.3,366z M520.1,140.3c1.6-3.2,3.6-6.1,7.1-7.6c0.7-0.3,2.1-0.1,2.7,0.4
		c0.7,0.5,1,1.7,1.1,2.7c0.4,4.7-3.9,6.8-5.6,10.4c-1.5,3.1,0.2,6.3,3.6,6.6c16.7,1.5,32.7-10.4,35.6-26.6c3.7-20.5-16-36.8-37-30.7
		c-12.1,3.5-21.6,15.1-22.7,27.7c-0.2,2.8,1.3,5,3.8,5.9c2,0.7,3.6-0.8,5-2.5c2.5-3.1,4.3-6.9,8.1-8.9c1.5-0.8,3-0.4,4,0.9
		c0.6,0.7,1.2,2.1,0.9,2.7c-1.9,3.5-3.9,7-6.2,10.4c-2,2.9-1.8,5.6,0,8.4l-0.5-0.7L520.1,140.3z M211.2,475c0-5.7,0-11.7,0-17.7
		c0-17.2,4.3-33.3,12.9-48c11.3-19.5,25.7-36.5,44.2-49.8c19.6-14,40.9-22.6,65.4-20.2c5,0.5,8.6-0.7,12.1-4.4
		c9-9.7,20.1-15.4,33.4-16.1c4.3-0.2,7.8-1.9,11.1-4.3c2.9-2.1,5.7-4.2,8.7-6.2c24.7-16.7,52-24.8,81.8-25.3
		c20.7-0.3,38.3,8.6,55.8,18.3c3,1.7,5.1,5,9.2,4.5c0.6-0.8,1.5-1.5,1.8-2.4c0.7-1.9,1.4-3.9,1.6-5.8c2.5-20.8,3.5-41.7-0.3-62.3
		c-12.4-68.4-50.6-117.5-113.5-146.8C390,67.4,342.2,63.2,293.8,74.1c-81.5,18.3-141.1,65.1-176.1,141.4
		c-18.5,40.4-22.9,83-14,126.6c6.2,30.3,19.2,57.3,38.9,81.6c16.3,20.1,35.6,36,57.8,48.7C203.4,474.1,206.3,476.6,211.2,475z
		 M678.6,741.5c-0.5-12.7-3.7-23.9-6.4-35.2c-8-32.5-15.9-65.1-28.5-96.3c-8.8-21.7-16.7-43.6-25.2-65.3
		c-9.6-24.8-22.2-47.7-42.5-66c-12.9-11.7-12.7-14.5-0.6-27c7.8-8.1,15.2-16.4,21-26c9.9-16.6,19.1-33.5,27.5-50.9
		c4.6-9.7,7.9-19.8,10.5-30.1c1.2-4.7-0.1-6.9-4.9-7.6c-14.9-2.2-28.6-6.8-40.2-16.7c-2.4-2-4.8-0.6-6.2,1.9
		c-2.7,4.9-5.2,9.9-7.9,14.8c-5.8,10.8-12.6,21-22,29c-9.2,7.8-20,14.1-28.4,22.7c-8.8,9-15.4,20.1-23.1,30.2
		c-2.2,2.8-4.7,5.4-7.1,7.9C449,473.9,393.8,501.4,328.3,507c-9.4,0.8-16.6,3.5-21.6,11.6c-2.1,3.4-4.9,6.5-7.2,9.8
		c-23.1,33.3-34.8,70.8-39.9,110.6c-0.7,5.4-2,11.1,1,16.5c6.1,0.7,12-1.7,18.2-0.1c6.5,1.7,12.8,3.3,18.2,7.3
		c4.7,3.5,8.9,7.5,13.5,11.4c4.5-5.6,5.3-11.9,7.7-17.4c3.4-8,7.3-15.6,12.7-22.5c4.5-5.7,10.1-9.9,17-12.4c9.5-3.4,17-1,22.1,7.8
		c2.5,4.3,4.2,9.2,5.9,14c5,14.4,9.5,28.9,14.5,43.3c12.3,34.9,29.5,66.8,56.6,92.8c4,3.9,7.8,8,11.6,12.1
		c13.2,14.2,28.3,26.2,44.5,36.9c2.5,1.7,4.8,3.8,8.5,3.5c17-23,38.9-39.3,67.5-45.3c-0.2-6-3.5-10-5.6-14.5
		c-7.7-16.6-15.5-33.1-21.1-50.5c-2.9-9-3.3-17.9-2.5-27.1c0.7-7.1,2.6-14,6.6-20.1c4.9-7.4,12.9-8.2,19.5-2.2
		c5.8,5.2,9.4,11.9,12.7,18.8c7.9,16.5,15,33.3,21.3,50.5c2.1,5.7,3.3,11.8,7.5,16.5C651.7,737.3,645.6,742.3,678.6,741.5z
		 M307.1,499.4c10.1-0.6,20.4-0.4,30.4-1.8c59.4-8.4,110.2-34.1,151.4-77.9c24.7-26.3,42.6-56.7,53.2-91.4c2.6-8.7,2.3-9.8-5-15.5
		c-2.8-2.2-5.8-4.1-8.8-5.9c-20.7-12.9-43.1-17.3-67.2-13.5c-22,3.4-42,11.7-60.1,24.5c-4.9,3.5-5.4,4.4-2.1,9.9
		c6,9.9,4.6,19.5-0.6,28.9c-7.1,12.6-18,20.8-31.9,24.1c-18.3,4.3-33.2-5.9-31.2-24.1c0.1-0.5,0.1-1,0.2-1.5c1-5-1.1-7-6.9-7.3
		c-14.7-0.9-28.2,3.5-40.9,10.3c-25.9,13.9-44.7,34.9-58.1,60.7c-7.6,14.7-10,30.7-9.7,47.3c0.2,10.7,5,17.1,14.3,21.1
		c2.3,1,4.8,1.7,7.2,2.4C262.5,496.4,284.5,499.5,307.1,499.4z M533.3,163.4c3.9,8.4,7.8,16.1,10.9,24c2.1,5.3,5.9,6.2,10.9,5.9
		c12.9-0.8,25-4.4,36.1-10.9c33.7-19.8,51.4-49.6,52.9-88.5c0.9-22.1-5.9-42.1-20.5-58.9C610.9,20.1,594.6,11.5,575,9.5
		c-50.7-5.2-93.3,35.1-101.8,83.4c-0.5,3.1-0.2,6.1,2.5,8.3c6.3,5,12.7,9.9,19.7,15.4c2.4-4.3,4.1-7.8,6.1-11.1
		c4.6-7.6,10.9-13.4,19.2-16.6c31.5-12,53.8,10.9,52.9,33.2c-0.6,15.8-10.3,30.5-25.4,36.6C543.7,160.4,538.8,161.6,533.3,163.4z
		 M142.5,438.7c-5.7,2-7.3,7.5-10.8,10.9c-19.2,18.5-49.3,15.4-63.3-6.8c-14.6-23.1-4.9-54.8,20.2-65.5c2.8-1.2,5.8-1.8,8.7-2.8
		c3.3-1.1,4.9-3.3,3.9-7c-2.6-9.8-5-19.6-7.7-29.4c-1.6-6-3.5-7.3-9.8-6.9c-21.3,1.4-39.3,9.7-53.5,25.7
		C-6.5,398.5,5.7,465.8,54.8,491.5c40.8,21.4,83.1,2.5,101.8-29.7c3.2-5.5,3.2-6.5-0.9-10.6C151.3,446.9,146.8,442.8,142.5,438.7z
		 M653.4,605.2c-0.8,6,2.2,10.4,3.8,15.1c2,5.7,4.3,6.9,10.6,5.5c44.3-9.9,81.4-30.7,106.7-69.7c8.9-13.7,16.3-28,23.1-42.8
		c4.9-10.7,8.4-21.8,10.4-33.3c3.5-20.3,0.5-39.5-11.9-56.5c-16.7-23-45-27-65.3-21.9c-22.6,5.7-43.5,38.6-37.5,65.8
		c5.7,25.8,30.6,34,47.2,31c6.1-1.1,11.5-4,16.1-8.1c5-4.5,6.2-10.7,3.7-16.6c-2.4-5.6-7-6.8-12.5-6.4c-2.5,0.2-5.1,0.5-7.6,0.5
		c-8.6-0.1-14.6-4.8-16.6-12.9c-3.4-13.8,5.6-30.9,19-36.1c4.9-1.9,9.7-2.3,14.8-0.4c12.2,4.5,22.7,11.4,30.3,22.1
		c10.7,15,14.4,31.2,7.6,48.9c-1.8,4.7-3.6,9.5-5.9,14c-11.5,22.8-25.8,43.7-43.7,62c-19.1,19.4-42.1,31.6-68.7,36.7
		C669.2,603.4,661.2,604.1,653.4,605.2z M565.3,854.2c1-6-5.2-7.8-5.9-12.3c-0.2-1.2,0.7-2.8,1.5-3.9c0.4-0.5,2-0.6,2.8-0.3
		c4.9,2.1,7.4,6.7,10.9,10.4c2.4,2.5,4.5,5.7,8.5,5.7c1.4,0,3-0.6,4.1-1.5c1.2-0.9,1.4-2.5,0.5-4c-2.4-3.9-5-7.7-7.2-11.7
		c-1.4-2.5-3.5-5.3-0.5-8.2c1.7-1.6,4.4-0.2,7,3.4c2.9,4.1,5.8,8.3,8.9,12.3c0.4,0.5,1.9,0.6,2.8,0.3c0.8-0.3,1.7-1.1,2-1.9
		c1.3-3.9,1.3-8.1,0.4-12.1c-2.3-11.1-7.3-21-13.4-30.5c-1.5-2.3-3.7-3.5-6.5-3.3c-3,0.3-6,0.7-9,1.4c-16.9,4.1-30.6,13.8-42.6,25.6
		c-14.9,14.7-12.2,15.3,3.5,22.7C543.4,851.3,553.9,854.7,565.3,854.2z M119.1,411c-4.2-0.7-6.1,1.2-8.3,2.2
		c-3.8,1.6-8.5,7.8-11.5,2.9c-4-6.4,4.3-7.5,7.9-10.2c8.1-6,8.3-5.9,3.9-14.5c-0.5-0.9-0.8-1.9-1.3-2.8c-2.7-4.8-4.5-5.7-9.8-4.9
		c-14.1,2-25.3,12.7-28.7,27.6c-3.2,13.9,3.2,29.7,15,37c16.5,10.2,40.4,1.8,46.5-16.3c1.2-3.5-1.5-9.9-5.2-11.5
		c-2.9-1.2-4.5,1.2-6.3,2.9c-2.2,2.1-4.2,4.4-6.6,6.2c-1.7,1.3-3.8,1.4-5.4-0.4c-1.1-1.2-0.8-2.7-0.1-4.1
		C111.6,420.2,117.2,417.4,119.1,411z M680.8,767.9c0.3-13.6-2.5-16.5-15.5-17.6c-15.7-1.4-29,3.4-39.9,14.8c-2.8,2.9-3.6,6-1.9,9.7
		c3.3,7.4,7,14.7,11.9,21.1c2.1,2.7,4.3,7.5,7.5,6.7c5.1-1.1,0.1-6,1.5-8.9c0.6-1.3,1.3-3,2.4-3.4c2.2-0.9,4,0.9,4.7,2.7
		c2,4.7,3.2,9.6,5.4,14.2c1.5,3.2,4.8,3.3,7.9,2.3c3.5-1,2.9-3.4,2.1-5.9c-1.2-3.9-2.4-7.7-3.4-11.7c-0.5-1.9-0.8-4-0.8-6
		c0-1.5,0.3-3,2.2-3.4c1.6-0.3,3.1,0.1,3.9,1.6c1.4,2.7,2.5,5.5,4,8.1c0.4,0.6,1.8,1,2.6,0.9c0.8-0.1,1.8-1.1,2-1.8
		C678.9,783.4,680.8,775.5,680.8,767.9z M302,715.1c1.4-5.6,2.2-9.6,3.4-13.4c3.5-11.1-0.6-20.1-8.3-27.5
		c-9.3-8.7-20.2-13.4-33.4-9.4c-3.4,1-5.1,3.2-5.1,6.6c0,13.8,1.6,27.3,6.4,40.4c1.2,3.3,2.2,6.8,5.7,8.8c2.8-4.6-0.5-8.8-0.7-13.1
		c-0.1-3-0.8-6.1,1.2-8.8c0.9-1.4,2.3-2,3.9-1.5c0.8,0.3,2,1,2.1,1.7c1.2,5.4,1.9,11,3.3,16.4c1.2,4.9,2.8,9.7,4.7,14.4
		c0.9,2.3,3,4.1,6,3.5c3.5-0.8,3.2-3.4,2.7-5.9c-0.8-4.5-1.9-8.9-2.5-13.4c-0.3-2.1,0.9-4.1,3.1-4.6c2.2-0.5,3.8,0.6,4.7,2.7
		C299.4,712.6,300.3,713.2,302,715.1z M612.2,264.5c-2,1.4-3.2,1.8-3.5,2.6c-5.5,12.5-11,24.9-16.4,37.4c-1.7,3.8-0.1,6.7,2.8,9.3
		c10.3,9.1,22.6,13.1,36,13.9c4.2,0.2,6.4-1.7,6.6-6.4c0.4-8.6,0.4-17.2,0.6-25.8c0.1-4.3-1.4-6.5-6.2-6.1c-2.1,0.2-3.4-1.9-3.4-4.1
		c0.1-5.6,0.3-11.1,0.3-16.7c0-2.5-0.2-5.1-2-7.1c-0.6-0.6-1.7-0.9-2.7-1.1c-0.3-0.1-1,0.5-1.1,1c-0.7,2.4-1.2,4.8-1.8,7.2
		c-1.1,4.9-2,9.9-3.4,14.7c-0.3,1.1-2.2,2.3-3.4,2.4c-2.3,0.1-3.4-1.9-3.6-4C610.5,276.2,614.2,271,612.2,264.5z M358.1,372.8
		c13.6,0.3,29.6-11.7,34.5-25.6c3.7-10.8-2.2-19.2-13.9-19.4c-13.9-0.2-31.6,14.1-34.2,27.8C342.5,365.8,347.9,372.6,358.1,372.8z
		 M243.1,74.9l-0.6,1.1l0.9,0.2L243.1,74.9z"/>
	<path d="M441.2,210.8c-1.3,12.2-2.3,20.7-3.1,29.3c-0.3,3,2.1,4.4,5,3.2c2.9-1.1,5.3-2.6,5.9-6.1c0.9-6,2.1-12,3.4-17.9
		c0.4-2,1.1-3.9,2-5.7c1-1.9,2.9-3.1,5-1.8c1.1,0.6,2.2,2.3,2.2,3.5c-0.1,3-0.7,6-1.2,9c-0.5,3-1.3,5.9-1.8,8.9
		c-0.2,1.5,0.5,3.2,2.1,3.4c1.4,0.2,3-0.1,4.3-0.8c3-1.4,3.8-4.6,5.1-7.3c1.8-3.6,3-7.6,6.6-10c1-0.7,2.9-0.4,4.2-0.1
		c0.6,0.2,1.3,1.7,1.2,2.6c-0.2,2-0.7,3.9-1.2,5.8c-0.5,1.9-1.6,3.8-1.7,5.7c-0.1,3.2,4.7,6,0.7,9.5c-2.9,2.6-6.8,1.5-10.2,2.4
		c-20.8,5.4-40.2,13.9-58,25.9c-4.2,2.8-8.5,5.4-13,7.7c-0.9,0.5-3.1-0.4-3.8-1.4c-0.7-1-1-3.1-0.3-4.1c1.3-2,3.1-4,5.2-5.3
		c7.1-4.8,14.4-9.4,21.8-13.9c3.7-2.3,5.8-5.2,6.2-9.7c0.8-8.1,2.1-16.1,3.1-24.1c0.3-2,0.4-4,0.8-6c0.7-3.8,3.5-6.1,6-5.3
		C439.9,209.2,441.2,211.4,441.2,210.8z"/>
	<path d="M198.4,356.5c3.5,0.5,7.1,1.7,10.2-1c1.1-0.9,2-2.3,2.5-3.6c0.7-1.8-0.7-2.9-2.1-3.4c-5.2-1.9-10.5-3.6-15.7-5.5
		c-2-0.7-3.4-2.1-3.4-4.4c0-2.1,2.8-3.7,6-2.8c6.3,1.8,12.5,3.9,18.8,6c2.9,1,5.9,2.1,8.7,0.2c1.7-1.1,3.7-2.4,4.2-4.1
		c0.6-1.9-1.2-3.7-3.2-4.5c-6.5-2.7-13.1-5.3-19.6-8.2c-2.3-1-4.4-2.4-6.4-3.9c-1.2-0.9-1.5-2.7-0.6-4c0.5-0.8,1.5-1.4,2.4-1.6
		c2.6-0.8,5,0.1,7.3,1.1c7.9,3.3,15.9,6.5,23.8,10c5.5,2.4,10.2,2.6,15.7-0.9c7.2-4.6,15.2-8,23-11.8c1.7-0.8,3.9-1.2,5.8-1
		c1.1,0.1,2.3,1.7,3,2.9c0.4,0.6,0,2-0.5,2.7c-3,3.7-7.6,4.9-11.7,6.8c-17.6,8.3-33.4,19.2-47.6,32.4c-3.3,3.1-6.3,6.6-9.4,9.9
		c-4.3,4.7-4.6,5.1-9.8-0.4c-3.8-4.1-8.6-2.2-12.6-3.9c-1.5-0.6-2.5-1.8-2.2-3.4c0.1-0.9,0.9-1.9,1.7-2.3c1.3-0.7,2.8-1.4,4.2-1.5
		C193.4,356,195.9,356.4,198.4,356.5z"/>
	<path d="M361.5,441.7c-10-0.9-20.2-1.4-29.7-5.2c-4.8-1.9-8.8-1.9-11.7,2.9c-0.5,0.8-1.3,1.8-2.1,2.1c-1.3,0.4-3.2,1-4.2,0.4
		c-1-0.6-2-2.9-1.6-3.9c3-6.9,6.3-13.7,9.5-20.5c0.8-1.7,4.8-1.7,5,0c1.2,9.7,8.7,11.6,16.1,13c40.6,7.7,72.7-11.2,89.6-37.6
		c3.5-5.6,6-11.6,8.2-17.9c2-5.8,2.5-10.7-3-14.9c-1.1-0.8-1.6-2.5-2.2-3.9c-0.6-1.3,2.1-4.4,3.6-4.2c0.5,0.1,1.2-0.1,1.5,0.2
		c5.7,5.8,12.5,8,20.5,6.6c1.6-0.3,2.5,1.5,2.9,3c0.4,1.6,0.1,3.1-1.4,3.8c-1.3,0.7-2.8,1.3-4.3,1.4c-4.7,0.6-6.8,3.6-8.2,7.8
		c-1.7,5.3-3.3,10.7-5.9,15.6C426.3,423.4,398.1,439.2,361.5,441.7z"/>
</g>
</svg>
