<?xml version="1.0" encoding="utf-8"?>
<!-- Generator: Adobe Illustrator 22.1.0, SVG Export Plug-In . SVG Version: 6.00 Build 0)  -->
<svg version="1.1" id="Layer_1" xmlns="http://www.w3.org/2000/svg" xmlns:xlink="http://www.w3.org/1999/xlink" x="0px" y="0px"
	 viewBox="0 0 822.2 1018.9" style="enable-background:new 0 0 822.2 1018.9;" xml:space="preserve">
<g>
	<path d="M148.5,254.1c-49.3-10.6-86.6-37.4-118-73.3c-9.8-11.2-18.1-23.6-23.8-37.4c-2.8-6.8-5-14.1-6.1-21.3
		c-2.9-18.3,7.2-32.4,25.3-36.2c7.3-1.6,14.7-1.2,22.1,0.3c17.9,3.5,34.5,10.4,50,19.8c32.2,19.5,59.4,44.3,79,76.8
		c1.1,1.8,2.4,3.4,3.5,4.9c4.5,0.1,5.2-3.5,6.7-5.9c5-8.1,4.8-8.1-0.9-15.1c-6.6-8.2-13.5-16.4-19.4-25.1
		c-10-14.6-17.1-30.5-19.9-48.1c-1-6.2-1.4-12.7-0.9-19c0.8-11.3,6.5-15.3,18.2-13.7c1.5,0.2,3.1,0.5,4.4,0.7
		c3.5-2.5,2.1-5.8,2.2-8.8c0.2-4.8-0.2-9.6,0.7-14.2c2.2-11.2,12.2-16.4,22.9-12.1c3.4,1.4,6.5,3.4,9.8,5.2c4.4-2,3.4-6.3,4.1-9.7
		c1.3-5.8,3.3-11.1,7.5-15.5c9.1-9.3,21.4-8.5,28.2,2.5c3.6,5.8,5.8,12.4,8.4,18.8c1.8,4.3,1.9,9.4,6.5,12.9
		c1.6-5.3,2.9-10.3,4.6-15.3c2.6-7.7,6.5-14.5,13.1-19.5c7.7-5.8,16.1-5,22.9,1.8c3.8,3.8,6.1,8.6,7.9,13.6
		c3.7,10,5.9,20.3,6.8,30.9c0.1,1.5,0.3,3.3,2.3,3.6c1.7,0.3,2.9-0.5,4-1.8c3.5-4.1,7.5-7.6,12.6-9.4c8.6-3.2,15.7,0.2,19.1,8.8
		c1.8,4.5,2.4,9.2,2.5,14c0.1,4-0.6,8.2,1.5,12.7c4.3-2.1,7.9-4.1,11.8-5.5c7-2.6,12.2-0.4,16,6.1c2.6,4.3,3.2,9,3.4,13.7
		c0.3,5.8,0.1,11.6,0.1,17.8c5.6-0.4,7.1-5,9.3-8.1c14-19.5,30.2-36.9,49.4-51.4c11-8.4,22.8-15.4,36-19.9
		c7.2-2.5,14.5-3.3,21.9-2.7c11.8,0.9,19.4,7.2,23,18.6c2.1,6.7,2.4,13.4,1.2,20.4c-2.8,17.6-9.8,33.5-18.6,48.7
		c-2.9,5-5.9,9.9-8.5,14.4c2.1,3.9,5,2.5,7.4,2.8c10.3,1.6,15.1,7.3,13.7,17.4c-1.1,7.9-3.6,15.5-6.7,22.8c-0.6,1.5-0.7,3.2,1,4
		c0.8,0.4,2.1,0.2,3-0.1c3.4-1.4,6.7-3.4,10.2-4.4c4-1.1,8.3-2,12.4-2c6.7-0.1,10.9,4.4,11,11c0.1,6.5-1.8,12.6-4.7,18.3
		c-2.4,4.6-4.9,9.2-7.8,14.6c5.1,2.8,9.8,1,14.1,1c10.1-0.2,18.6,5.6,16.3,19.8c-0.6,3.6-2.2,7-3.5,10.5c-1.3,3.3-4.2,6-4.1,10
		c4.3,2.4,8.2-1.1,12.3-1.1c9.7,0,16.1,6.1,15.6,15.8c-0.3,7.1-2.9,13.5-6.8,19.2c-4.4,6.5-9.2,12.8-13.7,18.9
		c0.5,3.6,3.1,2.7,4.9,2.9c2.1,0.2,4.3-0.2,6.4,0c8.5,0.9,12.3,5.3,11.7,13.8c-0.6,9.3-4.7,17.3-9.7,24.9c-2.9,4.3-5.9,8.6-9.6,14
		c5.9,0.9,10.5,1.2,14.9,2.4c10.2,3,14.1,11.2,10.2,21.1c-1.3,3.4-3.5,6.5-5.6,9.5c-2.1,3-4.6,5.7-6.7,8.2c0,4.4,3.3,3.8,5.5,4.9
		c14.3,7.2,17.5,19.6,8.3,32.7c-1.5,2.2-3.4,4-5.2,6c-4.6,5.4-4.5,5.8,1.4,8.7c1.9,0.9,3.9,1.6,5.6,2.8c8.9,6.2,9.8,17,2,24.5
		c-5,4.9-11.3,7.7-17.6,10.7c-3.9,1.9-4,4-0.5,6.9c2.4,2,5.2,3.8,7.3,6.1c6.7,7.3,5.2,14.6-4,19.1c-3.3,1.6-6.8,2.5-10.1,3.7
		c-0.1,4,3,5.7,4.6,8.3c7,12.1,4.5,20.5-8.2,27c-1.9,1-3.8,1.7-5.7,2.5c0.1,5.2,4.8,6.9,7,10.4c3.9,6.2,2.8,10.9-3.8,14.3
		c-2.3,1.2-4.9,2-7.4,2.8c-4.5,1.4-9,2.7-14,4.2c4.1,4.9,9.3,5.9,14.1,7.5c27.8,9.9,52.8,24.6,75.6,43.1
		c13.6,11,26.8,22.5,39.6,34.4c20.9,19.4,36,43,47.8,68.8c1.1,2.4,2,5,3.3,7.2c2.5,4.3,1.7,12.4,8.1,11.9c4.9-0.4,7.1-7.3,9.2-12.1
		c2.5-5.8,4.6-11.8,6.7-17.8c4.4-12.3,7.1-24.4-1.8-36c-11.3-27.6-12-55.6-2.3-83.8c2.1-6.1,4.9-11.8,9.8-16.1c5-4.5,11-4,15.3,1.1
		c3.2,3.8,4.4,8.4,5.8,12.9c0.6,1.9,1.1,3.9,1.6,5.7c1.6,0.1,2.7,0.5,3.5,0.2c4.5-1.9,8.9-3.8,13.4-0.2c4.1,3.3,4.5,8.2,4.8,13
		c0.1,2.1,0.3,4.3,0.1,6.4c-0.7,6.2,0.6,10.5,6.8,14.3c8,5,10,14.3,6.9,22.7c-7.5,20.8-19.7,37.6-43.3,41.9
		c-4.5,0.8-6.5,2.6-7.6,6.4c-0.7,2.5-1.2,5.2-2,7.7c-4.6,15.3-10,30.2-20.9,42.4c-3.2,3.6-3.6,7-2,11.6c10.9,31.8,15.6,64.9,19.4,98
		c2.4,21.6,3.1,43.3-2,64.9c-2.2,9.5-6.1,18-11.6,26c-14.9,21.6-36.4,23.8-55.2,5.7c-10.5-10.2-17-22.8-22.2-36.3
		c-2-5.3-2.4-11.4-6.1-15.9c-3.8-0.4-3.4,2.3-3.6,4.1c-1.3,10-2.2,20-3.7,29.9c-1.4,9.5-4.5,18.5-9.5,26.8
		c-8.3,13.8-22.9,19-38.4,14.2c-10-3.1-18-8.9-24.2-17.2c-8.7-11.5-15.3-24.2-19.4-38c-3.3-11.2-6.2-22.5-9.5-33.6
		c-1.9-6.6-4.2-13.1-8.1-18.9c-0.5-0.8-1.7-1.4-2.6-1.6c-1.8-0.3-3,1.1-3.3,2.6c-1.8,8.8-4.1,17.5-5.2,26.4
		c-2.5,21.4-10.3,41-19.6,60.1c-3,6.3-7.2,11.7-12.9,15.9c-15.3,11.5-29.7,9.1-40.9-6.7c-5.6-7.9-9.3-16.7-11.4-26.1
		c-2.8-12.9-4.9-26-7.3-39c-2-10.9-4.1-21.8-6.2-32.6c-0.2-0.8-1.2-1.8-2-2c-1.9-0.5-3,1-3.5,2.4c-3,9.1-3.9,18.6-4.2,28.1
		c-0.4,14.8-0.4,29.7-3.8,44.3c-1,4.1-1.8,8.3-3.2,12.3c-5.6,15-16.1,24.6-32.1,27.7c-15.1,2.9-27.2-1.9-36.1-14.4
		c-3-4.3-5.6-9.1-7.5-13.9c-15.5-38.5-26.2-78.2-28.9-119.9c-2.3-35.5-1.1-71-2.3-106.5c-0.2-6.9-0.5-13.8-1-20.6
		c-0.5-8.8-4.2-14-13.8-16.4c-24.3-6.1-46.9-16.6-68.3-29.5c-60.4-36.5-98.7-88.7-111.9-158.5c-8.3-44-10.2-88.3-7.5-133
		c2.4-39.3,8.9-77.9,20.6-115.5C139.8,278.2,144,266.8,148.5,254.1z M373.1,170.8c-3.9,4.1-4.5,7.8-5.6,11.4
		c-4.9,16.8-9.9,33.5-15,50.2c-1.7,5.6-4,11-7.7,15.6c-4.4,5.5-10.1,5.8-14.9,0.8c-4.1-4.3-6.8-9.5-8.9-14.9
		c-7.8-19.8-13.5-40.2-13.7-61.7c0-4.8-0.1-9.5-0.2-14.3c-0.1-3.4-1.6-6.3-5.1-7.3c-11.9-3.4-24.1-3.6-36.3-2.7
		c-2.3,0.2-3.4,2.5-3.2,4.7c0.3,3.1,0.8,6.3,1.5,9.4c3.1,12.9,6.5,25.7,9.7,38.5c3.1,12.4,5.7,24.8,5.4,37.7
		c-0.1,4.2-0.2,8.6-1.3,12.6c-1.8,6.9-8.5,10.2-14.9,7.4c-3.4-1.5-6.4-3.7-9.4-5.9c-7.3-5.5-12.8-12.7-17.7-20.2
		c-8.6-13.4-15.8-27.5-22.8-41.8c-2.5-5.1-2.6-11.4-7.6-15.3c-7.1,1.8-8.1,8.9-11.7,13.7c-6.8,9.1-7.1,21.9-16.6,29.6
		c-8.8,16.9-17.4,34-24.2,51.8c-2.1,5.6-1.8,7.2,3.5,10.6c8.9,5.8,18,11.1,27.1,16.6c6.8,4.1,13.8,8,19.5,13.6
		c5.7,5.6,4.2,11.7-3.4,14.7c-10.2,4.1-20.8,4.1-31.3,2c-8.3-1.6-16.4-4.2-24.6-6.3c-3.9-1-6.5,0.1-7.3,3.7
		c-2.4,11.4-4.6,22.8-6.8,34.3c-0.7,3.8,1.5,6,4.7,7.3c3.9,1.5,8.1,2.6,12,4.3c5.3,2.3,10.8,4.4,15.7,7.5c7.5,4.7,8,12.5,1.9,18.8
		c-4.6,4.8-10.3,7.5-16.8,8.1c-3.7,0.4-7.4,0.2-11.1,0.4c-10.3,0.5-10.8,0.9-11.7,10.7c-0.4,3.7-0.5,7.4-0.6,11.1
		c-0.3,31.8,0.9,63.6,5.7,95.1c4.2,27.3,11.6,53.8,24.8,78.4c2.4,4.5,4.2,9.7,8.7,12.7c3.7-1.2,4.4-4.6,5.9-7.3
		c9.9-19,22.9-35.6,38.3-50.4c27.6-26.4,59.7-45.5,95.4-58.9c48.1-18,97.6-24.3,148.3-14.4c38.8,7.6,71.9,25,93.9,59.6
		c0.7,1.2,2.4,1.7,3.8,2.7c0.9-1.8,2-3.1,2.2-4.6c1.1-7.3,2-14.7,2.9-22c7.2-56-1.8-109.8-22.9-161.8c-1.2-2.9-2.1-6-6-7.5
		c-6.1,3.6-12.4,7.5-18.8,11.2c-5.6,3.3-11.7,4.9-18.3,4.3c-5.5-0.5-8.5-3.8-8.7-9.4c-0.2-6.1,1.6-11.6,4.7-16.6
		c5.3-8.5,10.6-17.1,16.6-25.2c4-5.4,4.9-9.9,0.8-15.7c-5.5-7.8-10.2-16.1-15.6-24c-6.3-9.2-12.9-18.2-19.3-27.2
		c-0.9-1.3-2-2.5-3-3.7c-2.1-2.3-4.8-1.9-6.3,0.9c-7.6,14.6-15,29.2-22.8,43.7c-3.8,7-8.3,13.6-14.8,18.5c-6.3,4.8-13.3,3-17.3-4
		c-1.9-3.4-2.5-7-2.5-10.7c0.2-7.9,0.1-16,1.4-23.8c2.3-14.1,6-28,10.5-41.5c2.5-7.5,5-15.1,7.3-22.7c1-3.3,0.2-6.3-2.7-8.4
		C402.8,185.1,389,176.5,373.1,170.8z M452.6,903.6c7.4-0.8,12.8-5.5,19.1-8.1c5.4-2.2,10.5-5,16.4-5.7c7.7-0.9,12,4,10.4,11.7
		c-1.4,6.6-5.4,11.6-10.5,15.4c-7.6,5.7-15.6,10.9-23.6,16.2c-7.6,5-7.1,4.9-5.8,14.2c1,7,4.9,10.2,11.1,11.4
		c11.1,2,22.2,2.1,33.1-0.4c7.2-1.7,14.3-4.1,20.2-8.9c4.6-3.7,4.5-7.4-0.7-9.4c-4.4-1.7-9.1-2.6-13.6-4.1c-4-1.3-8.1-2.5-11.8-4.5
		c-4.4-2.5-4.3-9.2-0.2-12.2c4.4-3.3,9.6-4.4,15-4.6c6.8-0.2,13.7-0.4,20.6-0.6c1.6-4.5,2.8-8.6,4.6-12.4c5-10.4,14-11.1,21-2
		c3.5,4.6,4.5,10.8,9.3,15c7.8-1.8,14.1-7,21.2-10.2c7.3-3.3,14.6-6.4,22.8-5.9c4.4,0.2,8.4,1.2,10.8,5.4c2.7,4.8,1.2,9.2-1.6,13.4
		c-1.2,1.8-2.6,3.3-4,4.9c-6.2,6.7-13.3,12.1-21.8,15.6c-4.9,2-9.7,4.3-14.3,6.9c-5.5,3.2-5.1,11.2,0.7,14c2.8,1.4,6,2.4,9.1,2.9
		c16.9,2.5,33.8,2.8,50.6-0.5c2.6-0.5,5.2-1.2,7.6-2.3c1.3-0.6,2.6-2,3-3.4c0.5-1.7-1.1-2.6-2.7-2.9c-5.2-1.1-10.3-2.3-15.5-3.2
		c-4.7-0.8-9.3-2.2-13.4-4.6c-4.2-2.4-4.1-7.9,0.3-10.3c7.6-4,15.7-6.7,24.3-6.3c7.3,0.4,13.2-0.6,17.4-7.6c2-3.4,6.9-2.5,9.6,0.4
		c3.1,3.4,3.1,9.1,8.2,11.5c3.9-1.1,7.9-2.5,12.1-3.3c7.8-1.6,15.6-3.4,23.4-4c8.3-0.6,12.3,7.2,7.7,14.2c-1.7,2.6-4.3,4.6-6.4,7
		c-1.4,1.6-4.6,2.5-3,6.1c11.4-1.3,21.7-4.9,31.1-11.2c5.9-4,10.4-9.2,11.6-16.4c1.3-8.4,0.8-16.9-0.6-25.3c-0.5-3.1-3.4-4.4-6-3.4
		c-7.9,3-15.6,6.5-23.4,9.9c-9.7,4.2-19.4,8.4-29.1,12.7c-4.5,2-9.1,2.7-14,1.8c-4.4-0.8-7.1-6.1-4.6-9.8c2.3-3.5,5.1-6.8,8.2-9.6
		c15.2-14.2,32.1-26,51.3-34.2c2.9-1.2,5.9-2.4,8.8-3.7c2.1-1,3-2.9,3.2-5.1c0.6-7.4-3-11.2-10.2-10.4c-3.1,0.4-6.2,1.2-9.3,2
		c-11.8,3.2-23,7.9-34.1,12.9c-12.1,5.4-24.1,10.9-36.9,14.7c-4.6,1.4-9.2,2.6-14,2.2c-5.4-0.5-8.7-4.9-7-10.1c1-2.9,2.4-6,4.4-8.3
		c4.1-4.8,8.5-9.4,13.3-13.6c20-17.6,42.1-32.1,65.7-44.3c15.5-8,13.4-6,8.1-21.3c-0.3-1-0.9-1.9-1.3-2.9c-3-6.9-4-7.4-10.6-4.6
		c-19,8.2-37.6,17.1-55.4,27.6c-11.4,6.7-23,13.1-34.7,19.3c-5.1,2.8-10.5,5.1-16.6,4.5c-5.3-0.6-8.5-4.8-7.4-10
		c0.8-3.8,3-6.8,5.2-9.7c7.3-9.8,15.9-18.4,25.1-26.5c15.9-14,32.3-27.4,49.3-40.2c20.8-15.7,20.3-11.6,2.9-32.8
		c-1.3-1.6-3.1-2.8-4.4-3.9c-10.2,1.3-16.3,8.2-22.7,14.4c-21.3,20.8-44.7,39-69.5,55.5c-8.8,5.9-17.9,11.3-28,14.9
		c-3.5,1.2-7.1,2.4-10.7,2.6c-9,0.5-14.8-7.2-11.9-15.9c1.7-5,4.2-9.7,6.9-14.2c7.1-11.9,16.1-22.4,25.3-32.6
		c15.6-17.3,32.5-33.4,49.9-49c19.8-17.8,19.9-13.4-2.7-30.1c-1.3-0.9-2.7-1.7-4.1-2.4c-2.1-1.1-4.1-0.7-5.7,1.1
		c-2.5,2.8-4.9,5.6-7.2,8.4c-10.8,13-21.6,26.2-32.5,39.1c-6.5,7.7-13.6,14.8-22,20.6c-3.5,2.4-7,4.8-11.3,5.5
		c-5.1,0.9-9.6-2.1-10.6-7.2c-0.8-4.3-0.2-8.4,1-12.5c3.6-12.3,9.3-23.7,16.3-34.4c6.9-10.7,14.3-21,21.4-31.6
		c2.3-3.4,5.7-6.4,5.8-11.1c-2.7-2.8-6.2-3.9-9.7-5.1c-4-1.4-8-2.7-12-4.2c-3.8-1.5-6,0.4-7.6,3.6c-3.5,7.1-6.5,14.5-10.3,21.5
		c-23,42.1-56.1,72.6-102,88.4c-27.6,9.5-56,10.8-84.7,7c-3.7-0.5-7.3-1.2-11-1.5c-5.3-0.4-6.7,0.9-6.5,6.1
		c0.9,16.9,1.7,33.9,2.6,50.8c0.6,11.9,2.1,12.7,13.3,7.1c2.4-1.2,4.7-2.5,7-3.7c9.4-5,18.9-9.6,29.1-12.7
		c6.1-1.8,12.2-3.5,18.5-4.6c6-1,12.1,0.1,15.5,5.7c3,4.9,1.9,10.4-1.3,15.1c-3.5,5.3-7,10.8-11.6,15.1
		c-16.3,15.3-33.9,28.8-55.4,36.3c-14,4.9-14.6,3.7-13.7,20.3c0.1,2,0.7,4,1.1,5.9c5.3,1.4,8.3-2.2,11.8-4.3
		c13.2-7.9,27-14.5,41.6-19.6c4.6-1.6,9.1-2.8,13.9-2.9c7.1-0.1,10.4,4.5,8.4,11.6c-1.3,4.7-3.7,8.8-6.9,12.3
		c-4.3,4.7-8.7,9.3-13.5,13.5c-13.3,11.5-27.5,21.6-43.7,28.7c-3.9,1.7-5.9,4.2-4.6,8.7c2.5,9.2,5.1,18.4,7.3,27.6
		c1.5,6.3,5.7,8.6,11.4,9c13.2,0.9,26.4,1.4,39.6-1.6c6.2-1.4,12.4-2.7,18.2-5.4c2.9-1.3,5.5-3.1,7.1-6.1c0.8-1.6-0.3-4.8-2-5.2
		c-1.5-0.3-3.1-0.6-4.7-0.7c-14.8-1.3-29.6-2.4-44.3-3.9c-5.2-0.5-10.5-1.6-15.5-3.1c-7.8-2.3-9.2-9.2-2.9-14.4
		c9.7-7.9,21.1-12.3,33.4-13.4c8.9-0.7,18-0.7,27-0.2c7.8,0.4,14.9,0.7,17.8-8.7c0.4-1.4,1.9-2.5,3.1-3.6c4.4-4.2,9.9-3.8,13.8,1.2
		C449.1,897,450.7,900.3,452.6,903.6z M370.2,727.6c14.5,0.3,28.7-1.8,42.6-5.4c43.7-11.2,76.7-37.1,101.1-74.4
		c13.5-20.6,21.7-43.4,28.9-66.8c3-9.8,1.8-18.6-2.6-27.5c-10-20.2-25.6-34.8-45.1-45.6c-21.7-11.9-45.1-18.1-69.7-19.9
		c-27.6-2-55-0.4-82,6.1c-48.2,11.6-91.5,32.7-128,66.7c-15.6,14.5-29,30.9-38.4,50.2c-8.4,17.2-8.5,14.5,3.1,27.6
		C230.6,695.8,295.1,723.2,370.2,727.6z M162.9,221.5c16.7-22.4,12.5-21.5,3.7-37.9c-1.5-2.8-3.4-5.4-5.3-7.9
		c-22.2-30.7-50.5-54-84.6-70.4C66.6,100.4,56,97,45,95c-6.3-1.2-12.6-1.4-18.9,0.4C14.3,98.8,8.4,106.6,9.6,119
		c0.5,5.7,2.2,11.4,4,16.9c3.1,9.7,8.4,18.3,14.3,26.4c21.9,30.1,49.6,53.4,83,69.9c9.6,4.7,19.6,8,29.9,10.3
		c3.1,0.7,6.3,0.6,9.4,0.6c0.6,0,1.8-1.2,1.8-1.8c-0.1-0.9-0.9-2.1-1.7-2.4c-3-1-6-1.9-9.1-2.3c-4.2-0.6-8.4-1.3-12.2-3.3
		c-1.6-0.8-2-2.3-2-3.9c0.1-1.9,1.6-2.8,3.1-3.1c1.5-0.3,3.1,0,4.7,0.3c5.2,0.9,10.4,1.8,15.6,2.8c1.6,0.3,3.5,0.4,3.8-1.3
		c0.3-1.3-0.5-3.2-1.5-4.2c-9-9.9-19.9-17.5-31.6-23.8c-17.2-9.3-33.7-20.1-52.5-26.2c-1-0.3-2-0.7-2.9-1.3c-1.8-1.3-3.1-3-1.9-5.3
		c1.1-2.1,3.2-3.3,5.2-2.5c7.9,2.9,16.1,5.3,23.5,9.3C117.5,187.2,142.9,199.5,162.9,221.5z M519.5,63.3c0-1.1,0.1-2.7,0-4.3
		c-1.1-14.7-8.1-20.7-22.9-19.8c-9.8,0.6-18.6,4.4-26.8,9.4C430,72.5,401,106,382.9,148.8c-1.2,2.9-2,6-2.8,9.1
		c-0.5,2.2,0.1,4.5,2,5.6c6,3.3,12.2,6.5,18.4,9.3c1,0.5,3.2-0.4,4.1-1.4c1.4-1.5,2.2-3.6,3.1-5.4c14.8-28.4,37.9-47.9,65.9-62.3
		c4.1-2.1,8.4-5.2,13.2-1.4c2.2,1.8-0.9,5.7-8.3,9.2c-15.5,7.4-28.8,17.7-41.3,29.4c-9.4,8.8-16.8,19-22.4,30.6
		c-1.1,2.3-3.4,5.2-1,7.2c2.7,2.1,4.4-1.2,6.1-3c2.8-3.1,4.8-7.1,9-8.7c1.3-0.5,3.3-0.6,4.4,0.1c2.2,1.3,1.9,3.6,0.6,5.5
		c-3.1,4.3-7.6,7.5-9.2,12.7c-0.2,0.8,0.5,1.9,0.9,2.8c0.2,0.3,1,0.5,1.4,0.4c1.9-0.7,4-1.3,5.7-2.4c36.6-24.5,63.9-56.9,81-97.6
		C517,80.6,518.6,72.2,519.5,63.3z M670.7,692.6c-0.7-1.2-1.1-2.8-2.2-3.8c-5.4-5-10.9-10-16.6-14.8c-6.6-5.6-7.3-5.6-13.3-0.1
		c-23.5,21.4-46.7,43-67.4,67.2c-6.9,8-13.4,16.4-18.7,25.5c-1.6,2.7-2.7,5.7-3.8,8.6c-0.9,2.7,1.7,5.4,4.5,4.7
		c10.5-2.5,19.5-8,28.5-13.6c32.1-19.9,59.4-45.7,87.4-70.8C669.8,694.9,670,693.8,670.7,692.6z M307,86.2
		c-0.6-9.2-1.2-24.5-2.9-39.7c-0.9-7.8-3.5-15.4-5.9-22.9c-1.8-5.5-4.4-11.8-11.2-11.8c-6.5,0-9.6,5.8-12.3,11
		c-4.5,8.6-5.8,17.9-5.8,27.6c0,28.3,8.8,55.1,13.6,82.6c0.6,3.5,3,5.4,6.6,5.8c2.1,0.2,4.2,0.4,6.3,0.6c7.1,0.4,8.6-0.7,9-7.5
		C305.3,118.7,305.9,105.5,307,86.2z M260.2,138.3c1.8-0.2,5-0.3,8.1-0.8c3.1-0.5,4.2-2.8,3.8-5.8c-0.1-1-0.3-2.1-0.6-3.1
		c-8.2-35-18.8-69.2-30.2-103.3c-1.3-4-3.1-7.9-5.4-11.4c-3.1-4.9-9.6-5.1-13.6-1c-3.9,4.1-5.1,9.2-5.2,14.6
		c-0.2,11.2,1.5,22.1,5.2,32.7c4,11.4,7.8,23,11.9,34.4c4.5,12.4,9,24.8,13.9,37.1C250.8,138.4,251.6,138.6,260.2,138.3z
		 M222.5,151.7c5.6-2.9,10.3-5.2,14.9-7.8c2.6-1.4,3.5-3.8,2.4-6.7c-8.8-23.8-17.6-47.6-26.5-71.4c-2.8-7.5-6.6-14.4-11.2-21
		c-2.4-3.5-5.3-6.6-9.1-8.7c-6.4-3.6-11.8-1.3-12.8,6c-0.9,6.9-0.3,13.7,0.9,20.5c3.9,22.3,14.1,42.1,24.6,61.7
		C210.7,133.5,216.6,142.2,222.5,151.7z M270.1,235.2c-0.4-4.1-0.4-8.9-1.4-13.5c-5.1-22.2-10.3-44.3-15.7-66.4
		c-1-4.3-4.3-6-8.5-3.9c-7.5,3.8-14.8,8.2-22.2,12.2c-8,4.3-8.2,4.3-5.6,11.4c7.8,20.9,18.9,40.2,31.6,58.5c2.1,3,4.7,5.8,7.4,8.3
		c3.4,3,6.8,8.3,11.8,5.8C271.8,245.4,269.4,239.9,270.1,235.2z M462.9,223.7c5.5-4.9,11.7-10.5,18-16
		c15.7-13.5,25.1-30.9,30.9-50.5c1.2-3.9,3-8.7-1.1-11.8c-3.6-2.8-8.2-1.1-12.2,0.3c-2.5,0.9-5,1.9-7,3.6
		c-6.1,4.9-12.3,9.9-17.9,15.4c-9.8,9.6-20.1,18.6-31.4,26.5c-2.5,1.7-5.7,2.9-5.9,7.2C444.8,206.4,453.5,214.8,462.9,223.7z
		 M773.7,711.4c1.4-1.7,2.8-3.2,3.9-5c2.5-4,4-8.7,8.2-11.4c0.8-0.5,2.4-0.9,2.9-0.5c1,0.9,2.3,2.5,2.2,3.7
		c-0.3,5.5-4.9,9.3-6.4,14.3c-0.3,0.9,0,2.3,0.6,2.9c0.5,0.5,2.1,0.6,2.7,0.1c9.6-6.9,17.6-15.2,22.5-26.1c2-4.4,2.7-9.1,0.6-13.9
		c-0.9-2-3.2-3-5-1.7c-0.8,0.6-1.6,1.4-2.2,2.2c-2,2.7-4.3,5.3-7.8,3.2c-2.5-1.5-1.9-4.7-1.4-7.3c0.6-3.1,1.5-6.2,2.2-9.3
		c1.4-6.3,1.6-12.6,0.9-18.9c-0.2-1.5-0.8-3.2-2.9-2.9c-0.9,0.1-2.2,0.7-2.6,1.4c-2.3,4.7-4.3,9.6-6.6,14.4c-0.9,1.9-2.5,3.4-5,2.9
		c-2.4-0.5-3.7-2.4-3.9-4.4c-0.5-5.3-0.6-10.6-0.9-15.8c-0.3-5.8-0.2-11.7-3-17c-0.7-1.3-1.2-3.2-3.3-2.7c-1.4,0.4-2.9,1.2-3.8,2.3
		c-1.3,1.6-2.4,3.5-3.1,5.5c-9,23-9.4,46.4-2.2,70c0.4,1.2,2.1,1.9,3.7,3.4c2.2-4.7,4.1-9,6.2-13.2c1.4-2.9,5.1-4.8,6.3-3.4
		c1.5,1.6,2,3.8,1.4,5.9c-1.4,4.6-2.9,9.1-4.4,13.6C772.7,706,771.4,708.4,773.7,711.4z M321.3,153.9c-3.3-0.1-4.8,1.8-5.1,4.8
		c-0.3,3.1-0.3,6.3-0.3,9.5c0.1,21.4,5.6,41.6,13.3,61.4c1,2.4,2.3,4.7,3.4,7.1c1,2.1,2.7,3.6,4.8,3.3c1.1-0.2,2.4-2,3-3.3
		c9.5-21.3,14.1-44,20.4-66.3c0.8-2.9-0.6-5.3-3.4-6.2c-11.5-3.5-23.1-6.8-34.7-10.2C322.4,153.8,321.9,153.9,321.3,153.9z M617,815
		c8-2.1,14.2-6.4,20.6-10c23-12.9,45.9-26.2,70.2-36.8c14.9-6.5,14.4-5,6.9-20.3c-0.9-1.9-2-3.7-3.1-5.6c-5.3-9.2-6.2-9.5-14-3.2
		c-16.9,13.6-33.8,27.2-50.5,41c-9.8,8.1-19,16.8-27.2,26.6C618.3,808.7,616,810.5,617,815z M489,257.4c0.9-0.6,2.3-1.3,3.4-2.3
		c14.2-13.5,27.9-27.6,39.4-43.5c3.7-5.1,6.6-10.8,9.5-16.5c1.2-2.3,1.6-5,2.1-7.6c0.6-2.9-1.6-5.2-4.4-5.1
		c-3.8,0.1-7.2,1.5-10.5,3.2c-12.9,6.4-24.7,14.5-34.6,24.9c-6.6,6.9-12.8,14.2-20.2,20.2c-2.8,2.3-3.8,4.8-1.3,8.1
		c4.2,5.5,8.2,11.1,12.3,16.6C485.6,256.6,486.6,257.7,489,257.4z M562.1,235c0-4.9-2.7-7.5-6.1-7.9c-6.6-0.7-12.6,1.4-18.2,4.5
		c-9.3,5.1-18.2,10.9-25.8,18.4c-23,22.4-20.1,14.1-4,40.5c2.3,3.7,4.5,4,7.8,1.3c13.2-10.7,25.8-22,35.8-35.9
		c3.4-4.7,6.1-9.9,8.8-15C561.5,238.6,561.9,235.9,562.1,235z M315.3,114.6c-0.3,3.7-0.6,7.4-0.8,11c-0.7,15.1-3.8,17,15.9,20.2
		c6,1,7.9-0.1,8.5-6c2.3-21.5,4.6-43,6.5-64.5c0.4-5.2-0.2-10.5-1.2-15.7c-1.3-6.8-6-8.3-11.6-4.2c-3.1,2.2-5.5,5-6.9,8.4
		c-2.1,4.8-4,9.7-5.7,14.7C315.9,90.3,316.5,102.5,315.3,114.6z M210.8,152.6c-1.3-2.5-2.3-4.4-3.3-6.2
		c-10.9-19.3-24.1-37.3-30.4-59c-2.1-7.2-7.3-12.8-14.1-16.5c-3-1.7-6.8-0.1-7.6,3.2c-1.1,4.7-0.8,9.5,0,14.2
		c4.9,29.2,19.3,53.4,39.5,74.4c0.6,0.7,1.9,0.7,2.9,1c0.5-0.2,1.1-0.3,1.5-0.6C202.8,159.9,206.3,156.7,210.8,152.6z M744.9,833.2
		c-0.2-1.5-0.4-3.1-0.7-4.6c-1.3-5.6-2.5-11.3-4.2-16.9c-1.6-5.5-4-6.4-9.5-3.6c-22.8,11.4-43.7,25.6-63.2,41.8
		c-6,5-14.3,8.7-15.3,18.2c8.2,0.6,15-3.6,22.2-6.5c22-8.8,43-20.3,66.8-24C743.3,837.2,744.4,835.5,744.9,833.2z M408.5,283.5
		c0.2,3.2,0.3,6.3,0.7,9.5c0.2,1.5,0.5,3.1,2.4,3.8c2.4,0.9,4.2-0.1,5.5-1.8c2.7-3.2,5.5-6.5,7.6-10.1c8.7-14.5,16.8-29.4,23.4-45
		c0.8-1.9,1.7-3.9,2.4-5.9c1.1-3.2,0.9-6.3-1.5-8.9c-5.1-5.4-10.1-10.9-15.4-16c-3.6-3.5-6.8-2.8-8.3,1.9
		c-5.1,16.1-10.3,32.3-13.4,48.9C410.5,267.8,408.4,275.5,408.5,283.5z M532.3,332.1c14.8-12.5,29.5-24.4,40.9-39.7
		c2.5-3.4,4.6-7.1,6.4-10.9c2.1-4.3,4.2-9.1,0.4-13.2c-3.6-3.9-8.1-1.1-11.8,0.3c-19.1,7.2-34.6,19.9-49.1,33.7
		c-1.7,1.6-1.8,4-0.8,5.9C522.6,315.9,525.3,324.6,532.3,332.1z M328.4,825.8L328.4,825.8c0.1,2.6,0,5.3,0.1,7.9
		c0.4,7.9,2,9,9.9,6.3c22.5-7.6,40.8-21.6,57.1-38.5c2.5-2.6,4.4-5.9,6.3-9.1c0.7-1.2,0.9-3.1,0.5-4.3c-0.7-2.4-3.2-2.7-5.2-2.5
		c-13.9,1.4-26.4,6.9-38.9,12.6c-7.2,3.3-13.9,7.7-21.4,10.2c-6,2-8.9,4.8-8.4,11.1C328.5,821.5,328.4,823.6,328.4,825.8z
		 M600.5,639.4c-0.7-1.1-1.3-2.9-2.4-3.6c-4.1-2.5-8.3-4.8-12.6-6.8c-4.3-2-6.5-1.4-9.5,2.8c-12.9,18.8-26.7,37-36.2,57.9
		c-2.6,5.7-7.3,11.6-3.5,18.8c7.1-0.4,11.1-5.9,15.4-10.2c17.4-17.2,32.2-36.6,47.2-55.8C599.6,641.7,599.9,640.6,600.5,639.4z
		 M379.1,102.8c-0.3,0-0.7-0.1-1-0.1c0-3.2,0.1-6.3,0-9.5c-0.1-1.6-0.5-3.1-0.9-4.6c-1.3-4.6-6.2-5.9-10-2.9
		c-4.7,3.8-7.1,9-9.3,14.4c-4.7,11.3-6.6,23.3-8.4,35.2c-2.5,16.4-2.3,15.4,13.7,20.6c3.8,1.3,6.6,0.1,7.2-3.4
		C373.4,135.9,376.2,119.3,379.1,102.8z M549.8,375c1.6-0.7,3.2-1,4.2-1.9c9.3-8.6,17.8-17.9,24.3-28.9c2.6-4.5,4.4-9.5,6-14.5
		c1.3-4.1-1.6-7.1-6-6.7c-10.2,1-19,5.7-27.9,10.3c-18.3,9.4-15,8.2-9.2,23.3c1.9,4.9,3.6,9.9,5.6,14.7
		C547.2,372.7,548.6,373.6,549.8,375z M395.1,858.8c-2-1.2-4-0.8-6-0.2c-11.5,3.8-22.8,8.2-33.4,14.1c-6.4,3.6-12.7,7.5-19,11.4
		c-3.5,2.1-5.1,5.2-4.5,9.3c0.3,2.1,0.4,4.2,0.7,6.3c0.7,4.9,3.1,6.4,7.7,4.3c20-9,37-22.1,51.7-38.3
		C394,863.9,395.3,861.6,395.1,858.8z M565.6,459.1c12.6-4.6,22.5-11.1,29.3-21.6c4.6-7.2,0.5-15.3-7.9-16.4c-7-0.9-13.6,1.1-20,3.6
		c-4,1.6-5.6,4.5-5.1,8.7C563.1,441.7,564.3,449.9,565.6,459.1z M560.3,413.9c7.8-3.3,14.5-8.4,20.7-13.9c3.5-3.1,6.4-7,8.9-10.9
		c3.7-6,0.5-11.3-6.7-12c-5.9-0.6-11.5,1-16.9,3c-13.8,5-14.4,6.3-10.9,20.4C556.4,405,557,409.7,560.3,413.9z M181.1,319.6
		c2-0.2,4.7-0.1,7.2-0.8c1.3-0.3,3.1-1.6,3.4-2.8c0.3-1-0.8-3.1-1.9-3.8c-11-7.1-22.1-14.1-33.2-21.1c-8.7-5.4-9.4-5.1-12.7,5
		c-0.6,2-1.4,4-1.9,6c-1.4,5.7-0.4,7.8,4.8,9.8C157.7,316.4,168.9,318.7,181.1,319.6z M409.2,930.9c1.5,0,3.1,0,4.6,0
		c7.5-0.1,8.9-1.6,9.1-9.3c0.2-5.7-1.1-7.4-7.2-7.6c-9.4-0.3-18.9-0.2-28.3,0.1c-6.9,0.2-13.3,2.7-19.5,5.7
		c-1.7,0.8-4.3,1.6-3.1,4.3c0.5,1.2,2.3,2.3,3.6,2.5C382,928.2,395.6,929.5,409.2,930.9z M509.3,315.8c-8,11.6-15.7,21.5-20,33.5
		c-0.4,1.2,0,3,0.5,4.3c0.8,1.7,2.8,1.6,4.2,1.2c3.9-1.4,8-2.7,11.4-5C523.3,338,527.8,340.9,509.3,315.8z M566.4,494
		c7.9-0.2,14.6-3.4,21.2-6.3c3.8-1.7,7.3-4.2,10.4-6.8c4.1-3.5,2.8-9.6-2.4-11.1c-3.5-1-7.2-1.7-10.8-1.6
		c-21.3,1-19.5,2.5-19.4,19.5C565.3,489.7,566,491.7,566.4,494z M696.2,907.1c1,0.2,2.1,0.9,2.9,0.6c17-7.3,33.9-14.8,50.8-22.2
		c0.5-0.2,1-0.5,1.3-0.8c2.4-2.7,2.2-5.9,1.2-8.9c-1-3-3.6-3.6-6.4-2.8c-2.5,0.7-4.9,1.8-7.3,2.9c-13.5,6.3-25.8,14.5-37,24.2
		C699.3,902,696.3,903.5,696.2,907.1z M608.4,907.7c-1.1,0.1-2.7,0-4.2,0.4c-11.8,3.1-22.2,9.2-32.4,15.5c-4.3,2.7-1.1,6.7-0.1,9.9
		c1.1,3.6,3.9,2.5,6.4,1.4c5.3-2.3,10.5-4.6,15.7-7c7.2-3.4,13.3-8.2,17.9-14.8c0.5-0.8,0.7-2,0.6-2.9
		C612,908.3,610.4,908,608.4,907.7z M134.3,396.4c8.8,0,15.7,0.2,21.4-4.7c2.2-1.9,2.4-5,0.1-6.7c-7-4.9-14.9-7.6-23.1-9.8
		c-2.4-0.6-4.1,0.5-5,2.7c-1.8,4.5-1.8,9.3-1.6,14c0.1,2.3,1.4,3.9,3.8,4.2C132,396.4,134.2,396.4,134.3,396.4z M558.1,556.2
		c-0.3,5.5,1.3,6.9,6.5,6.2c3.6-0.4,7.2-0.9,10.5-2.9c2.4-1.5,3.8-3.6,3.6-6.4c-0.5-6-9.1-15.5-14.5-14.3c-5.4,1.2-4.4,7.4-5.4,11.7
		C558.3,552.5,558.3,554.6,558.1,556.2z M458.5,924.6c1.3-0.4,2.9-0.6,4.1-1.4c6.5-4.3,13-8.7,19.3-13.3c2-1.5,3.5-3.8,5-5.9
		c0.4-0.6,0.4-2.1-0.1-2.7c-0.5-0.6-1.9-1-2.7-0.8c-9.6,2.8-18.4,7.2-26.9,12.5c-3.3,2-3.7,6.2-1.4,9.6
		C456.5,923.4,457.5,923.9,458.5,924.6z M709,934.6c-8.7,1.5-17.6,2.6-25.7,6.4c-2.6,1.2-3.4,3.7-2.1,6.6c1.7,3.7,4.5,5.7,7.2,4.5
		c8.1-3.7,15.8-8,22.3-14.2c0.3-0.3,0.5-1.2,0.3-1.4C710.5,935.8,709.7,935.2,709,934.6z M572.7,524.2c1.2-0.1,3.3-0.1,5.4-0.5
		c3.4-0.5,8.1,0.1,8.7-4.6c0.4-3.4-3.2-4.9-5.9-6.5c-1.3-0.8-2.7-1.5-4.1-2.2c-10.3-4.8-12.6-3.4-13.1,8c0,0.5,0,1,0,1.5
		c0.2,2.3,1.2,3.9,3.6,4.2C568.8,524.3,570.4,524.2,572.7,524.2z M567.7,586.5c-0.4-0.9-0.6-2.1-1.3-2.6c-2.4-2-4.8-3.9-7.5-5.5
		c-3.2-2-5.8-0.8-6.7,3.3c-0.7,3.3-3.8,6.9-0.2,10c2.8,2.4,5.9,0.3,8.8-0.5c2-0.5,3.9-1.2,5.7-2.1
		C567.2,588.7,567.3,587.4,567.7,586.5z M511.1,925.5c5.4,2,9.1,3.4,12.8,4.8c1,0.3,2,0.5,3,0.5c1.7,0,3.2-1,3.3-2.5
		c0.1-1.3-0.5-3.6-1.4-3.9C523.5,922.2,518.2,922.3,511.1,925.5z M638.5,938.4c4.5,3.1,8.7,4.3,13.3,4.1c0.7,0,1.6-1.2,1.8-2
		c0.2-0.8-0.3-2.3-0.9-2.6C648.4,935.9,643.9,935.9,638.5,938.4z"/>
	<path d="M463.3,382.5c0.6,2.7-0.3,5.2-1.6,7.6c-3.6,6.5-7.3,12.9-10.9,19.3c-1,1.8-1.9,3.8-0.5,5.8c1.2,1.8,7,2.1,8.9,0.3
		c1.5-1.4,2.8-3.1,4-4.9c3.2-4.8,6.3-9.8,9.5-14.6c1.2-1.7,2.6-3.5,4.3-4.6c1.1-0.7,3.3-0.8,4.3-0.1c1,0.7,1.9,3,1.5,4.1
		c-1,2.9-2.7,5.6-4.3,8.3c-1.9,3.2-4,6.2-5.9,9.4c-0.8,1.3-1,3.2,0.6,4.2c1.3,0.7,3,1.1,4.4,1c3.4-0.4,5.3-3.1,7.7-5.2
		c3.2-2.7,5.8-6.3,10.2-7.1c1.3-0.2,3.4,0.4,4.2,1.3c0.7,0.9,0.8,3.2,0.1,4.2c-1.4,2.1-3.5,3.9-5.4,5.7c-1.6,1.5-2.1,3.3-2.4,5.5
		c-1.2,8.2-1.3,7.9-7.8,6.8c-25.8-4.6-51.5-3.5-77,2.5c-3.6,0.8-7.2,2.4-10.8,1.3c-1.2-0.4-2.1-2.1-2.7-3.5
		c-0.3-0.7,0.2-2.4,0.8-2.8c2.1-1.4,4.4-3.1,6.9-3.6c8.2-1.8,16.5-3.7,24.9-4.7c5.8-0.7,9.8-2.9,12.5-8.1
		c4.5-8.4,9.4-16.6,14.1-24.8c1.3-2.3,2.6-4.6,5.3-5.6C460,379.5,463.2,380.8,463.3,382.5z"/>
	<path d="M265.8,422.3c-0.5,0.9-1,2.8-2.1,3.2c-2.4,1-5,1.6-7.6,1.7c-27.9,0.9-54.3,7.1-79.1,20.2c-2,1.1-5.2,1.3-5.4-0.8
		c-0.7-7.8-7.4-9.4-12-13.3c-0.8-0.7-0.7-2.9-0.5-4.3c0.1-0.6,1.7-1.3,2.6-1.4c3.9-0.4,7.1,1.4,10.4,3c2.8,1.4,5.7,2.7,8.7,3.5
		c2.1,0.6,4.3-0.4,5.6-2.2c1.5-2.1,0.5-4-1.2-5.5c-4.3-3.9-8.8-7.5-13-11.6c-1.4-1.4-2.2-3.9,0-5.4c1.1-0.7,3.2-1.1,4.3-0.5
		c7.7,3.9,13.5,10.1,19.7,15.8c2.6,2.4,5.4,2.7,8.7,1.3c4.3-1.7,5.4-3.7,2.5-6.7c-4.8-4.9-9.8-9.7-14.6-14.5
		c-1.1-1.1-2.3-2.2-3.4-3.4c-2.2-2.4-4.3-4.9-2.3-8.3c1.4-2.6,5-1.8,9.3,2.3c6.5,6.2,13,12.4,19.2,18.9c4.7,5,9.5,6.9,16.8,5.5
		c9.3-1.7,18.9-1.3,28.4-1.6C263.2,418.3,265.3,419.2,265.8,422.3z"/>
	<path d="M379.9,702.4c-17.1,0.2-35.2-4.7-50.9-16.7c-3.9-3-7.2-3.8-11.5-1.5c-1.3,0.7-3.1,0.2-4.1-1.3c-1.5-2.1-0.9-4.1,0.7-5.6
		c2.2-2.2,4.7-4.2,7.1-6.3c6.6-5.5,6.8-5.6,10.1,2.3c1.1,2.7,2.7,4.5,4.8,6c7.4,5.3,15.5,9.1,24.4,11.1c24.9,5.6,48.4,2.7,69.9-11.6
		c12.2-8.1,21.2-19,25.2-33.5c1.3-4.7,1.8-9.3,1.6-14.1c-0.2-6.6-1.6-12.6-8.5-15.7c-1.4-0.6-2.7-2.3-1.8-3.9
		c0.7-1.1,2.2-2.1,3.6-2.5c4.6-1.2,9.2-2.3,13.9-3c1.3-0.2,3.5,0.5,4.1,1.5c0.6,1,0.4,3.5-0.5,4.3c-3.6,3.5-3,7.3-2.4,11.7
		c3.5,26.3-7.4,46.3-28.1,61.5C421.2,697.2,402.6,702.4,379.9,702.4z"/>
</g>
</svg>
