<?xml version="1.0" encoding="utf-8"?>
<!-- Generator: Adobe Illustrator 23.0.1, SVG Export Plug-In . SVG Version: 6.00 Build 0)  -->
<svg version="1.0" id="Слой_1" xmlns="http://www.w3.org/2000/svg" xmlns:xlink="http://www.w3.org/1999/xlink" x="0px" y="0px"
	 viewBox="0 0 720 720" style="enable-background:new 0 0 720 720;" xml:space="preserve">
<path d="M460.1,138.1c-6.5-7.7-15.9-12.2-24.2-15.8c-35.9-15.6-73.9-25-113-27.8c-15.7-1.1-33.8-1.2-49.1,6.6
	c-17.7,9-28.7,26.8-36.3,41.3c-17.4,33.1-28.3,68.8-32.4,106c-1,8.8-1.6,18.2,0.3,27.3c2.1,10.1,7.2,18.4,14.3,23.3
	c0.4,0.3,0.8,0.5,1.2,0.8c0.2,0.5,0.6,0.9,1.2,0.9c0,0,0.1,0,0.1,0c0.1,0,0.1,0,0.2-0.1c6,3.3,12.8,4.4,19.9,4.4
	c5.3,0,10.7-0.6,16.1-1.4c15.5-2.3,31.1-5.4,46.2-9.2c17.6-4.4,31.8-8.9,44.5-14.1c18.7,76.5,46.8,224.4,27.2,365
	c-0.1,0.4,0.1,0.7,0.3,1c0.2,0.3,0.6,0.4,1,0.4h20.2c0.7,0,1.2-0.5,1.3-1.2c0.1-2.4,10.7-240.6-29.4-374.9c2.1-1.1,4.2-2.3,6.2-3.5
	c21.9-12.8,42.4-28.1,60.9-45.4c10.8-10,22.6-22.4,28.6-37.7v0C471.7,167.5,469.7,149.5,460.1,138.1 M207.9,275.2
	c-1.8-8.8-1.2-18-0.3-26.5c4-36.9,14.8-72.3,32.1-105.1c7.5-14.2,18.2-31.6,35.2-40.2c10.6-5.4,22.7-6.9,34.3-6.9
	c4.6,0,9.1,0.2,13.4,0.5c38.8,2.8,76.6,12.1,112.2,27.6c8,3.5,17.1,7.9,23.2,15.1c3.9,4.7,6.5,10.6,7.6,17.1
	c-41.7-8.2-84.9-4.2-125.1,11.6c-27,10.6-52.1,26.7-73.3,46.8c0,0,0,0,0,0c-0.4,0.1-0.6,0.4-0.8,0.7c-10.2,9.7-19.4,20.3-27.6,31.6
	c-0.6,0.9-1.2,1.7-1.8,2.6c-0.2,0.3-0.5,0.5-0.7,0.8c-0.2,0.2-0.2,0.4-0.3,0.7c-11.1,16.6-16.2,31.4-15.5,45
	C214.4,292,209.9,284.5,207.9,275.2 M396.2,251.1c-4.6-5.5-11.8-7.6-17.1-8.4c-6.4-1-12.9-0.3-19.1,0.4c-0.1-0.4-0.3-0.7-0.4-1.1
	c-0.1-0.1-0.1-0.2-0.2-0.4c-0.1-0.2-0.2-0.4-0.2-0.6c17.1-7,36.9-8.1,54.7-3C408.1,242.6,402.2,246.9,396.2,251.1 M368.6,267.6
	c-0.9-2.8-1.7-5.6-2.6-8.2c-0.1-0.3-0.2-0.6-0.3-0.9c-0.7-2.2-1.5-4.4-2.3-6.5c4.6,3.3,7.8,9.5,8.6,14.6c-1,0.6-2,1.2-3.1,1.7
	C368.7,268,368.7,267.8,368.6,267.6 M355.4,232.8c-1.3-2-3.3-3.3-5.5-3.9c4.7-12.3,10.1-20.2,16.8-30.1c1.8-2.6,3.6-5.3,5.6-8.3
	c7.5-11.5,20.4-26.6,34.1-34.7c12.4-1,24.8-0.9,37.2,0.3C408.8,173.8,380.7,198.3,355.4,232.8 M342.6,255.1c0,0.1,0,0.1,0,0.1
	c0.2,0.8,0.4,1.5,0.6,2.3c0,0,0,0.1,0,0.1c0.2,0.8,0.4,1.6,0.7,2.5c0,0.1,0,0.1,0,0.2c0.2,0.8,0.4,1.7,0.7,2.6c0,0.1,0,0.2,0.1,0.2
	c0.2,0.9,0.5,1.7,0.7,2.6c0,0.1,0.1,0.3,0.1,0.4c0.2,0.9,0.4,1.7,0.7,2.6c0,0.2,0.1,0.3,0.1,0.5c0.2,0.9,0.4,1.7,0.7,2.6
	c0.1,0.2,0.1,0.4,0.2,0.6c0.2,0.9,0.4,1.8,0.7,2.7c0.1,0.2,0.1,0.4,0.2,0.7c0.2,0.6,0.3,1.3,0.5,1.9c-3.9,1.6-7.9,3.1-12.2,4.6
	c-0.1-0.1-0.1-0.2-0.2-0.2c-3.6-2.6-5.4-7.7-4.7-13.2c0.7-5.2,3.2-9.9,5.7-14.5l3.6-6.6c0.4,1.4,0.8,3,1.3,4.7
	c0,0.1,0.1,0.3,0.1,0.4C342.2,253.7,342.4,254.4,342.6,255.1 M268.6,217.4c12.4-3.9,26.2,1.1,35.7,5.2c3.8,1.6,7.5,3.5,11.1,5.3
	c7.3,3.6,14.8,7.3,22.8,9.5c0,0.2-0.1,0.4-0.1,0.6c0,0.9,0.1,1.8,0.4,2.6c0.1,0.3,0.2,0.7,0.3,1c-10.5,0.5-21.2-0.9-31.5-2.4
	c-6.7-0.9-13.7-1.9-20.5-2.3c-13.5-0.8-29.7-0.6-41.8,6.7C252.1,234.4,260.1,225.6,268.6,217.4 M239.2,251.7
	c11.5-12.6,31.3-13.2,47.5-12.2c6.8,0.4,13.7,1.4,20.3,2.3c10.6,1.5,21.6,3,32.6,2.4c0,0.1,0.1,0.2,0.1,0.3l0,0
	c-36.8,3.8-72.8,16.1-104.2,35.4c-3.3,2-6.7,4.2-9.2,7.3c-1.4,1.6-2.4,3.4-3,5.3C223.6,280.2,228.9,266.7,239.2,251.7 M338.7,234.9
	c-7.7-2.2-15-5.8-22.2-9.3c-3.7-1.8-7.4-3.7-11.3-5.3c-8.7-3.8-21-8.3-32.9-6.4c8.8-8,18.3-15.4,28.3-22c6.7,7,13.1,13.5,19.6,20.1
	c6.5,6.6,13,13.2,19.8,20.3c0,0,0,0,0,0C339.5,233.2,339,234,338.7,234.9 M341.8,230.6c-6.8-7.1-13.3-13.7-19.8-20.3
	c-6.3-6.4-12.6-12.9-19.2-19.7c11.9-7.7,24.6-14.2,37.7-19.4c-3.1,20-2.2,38.6,2.7,58.5C342.7,230,342.3,230.3,341.8,230.6
	 M345.6,228.9c-4.8-19.7-5.7-38-2.5-57.7c0-0.3,0-0.6-0.2-0.9c18.9-7.3,38.4-11.9,58.1-13.9c-12.4,8.7-23.9,22.3-30.8,32.9
	c-1.9,3-3.8,5.7-5.6,8.3c-6.9,10.2-12.4,18.2-17.3,31.1c0,0,0,0.1,0,0.1c-0.4,0-0.9,0-1.3,0.1C345.9,228.8,345.8,228.8,345.6,228.9
	 M258.1,301.1c-11.6,1.7-23.5,2.6-33.1-2c0.1-0.2,0.2-0.5,0.1-0.7c-0.6-3.1,0.5-6.5,3-9.5c2.3-2.8,5.4-4.8,8.6-6.8
	c28.6-17.6,61-29.2,94.2-34c-19.6,9.3-35.5,26.8-42.5,47.3c0,0,0,0,0,0.1C278.4,297.7,268.3,299.6,258.1,301.1 M304,292
	c-4.2,1-8.4,2-12.6,3c7.7-21.3,25.2-38.9,46.3-46.9l-2.9,5.4c-2.4,4.6-5.2,9.7-6,15.3c-0.8,5.8,1.1,11.4,4.7,14.7
	C324.8,286.4,315.1,289.2,304,292 M396.5,644.2H379c19.4-141.4-9.1-289.9-27.8-365.9c-4.6-18.7-8.4-32.1-10.2-38.4
	c-0.2-0.6-0.3-1.2-0.3-1.9c0-0.4,0-0.8,0.1-1.3c0.5-2.8,2.8-5,5.6-5.5c3.1-0.5,6.1,1.1,7.4,3.9c4.7,10.3,9.1,22.1,13,35.2
	C405.7,399.2,397.3,625.6,396.5,644.2 M374.4,265c-0.1,0-0.2,0.1-0.2,0.1c-1.3-6.5-5.8-14.1-12.2-16.9c-0.3-0.9-0.7-1.8-1-2.7
	c5.9-0.6,11.9-1.2,17.8-0.3c4.8,0.7,11.3,2.6,15.4,7.4C387.7,256.9,381.1,261.1,374.4,265 M434.9,219.9c-6,5.6-12.3,11-18.7,16.2
	c-18.2-5.6-38.7-4.8-56.4,2c14.1-9.9,28.6-20.1,44.4-27.6c17.6-8.4,34.5-12.4,50.2-11.9C448.6,206.7,441.5,213.8,434.9,219.9
	 M462.9,183.1L462.9,183.1c-1.8,4.6-4.2,8.9-6.9,13c-16.5-0.9-34.3,3.2-52.9,12.1c-16.3,7.8-31.3,18.4-45.8,28.6
	c-0.2-0.5-0.5-1.1-0.7-1.6c0.2-0.1,0.4-0.2,0.5-0.4c25.8-35.4,54.6-60.1,90.4-77.9c0.2-0.1,0.3-0.2,0.4-0.3
	c6.1,0.7,12.2,1.6,18.2,2.8C467,167,466,175.2,462.9,183.1"/>
<path d="M552.1,398.7l-4.6-8.3c-10.4-19-21.2-38.6-33.2-57c-3.4-5.2-9.2-8.4-15.4-8.6c-6.2-0.1-12.2,2.8-15.8,7.9
	c-4.5,6.3-10.4,12.4-17.5,18.1c-6.1,4.9-12.7,9.4-19.2,13.7c-8.2,5.5-16.7,11.2-24.2,17.9c-9.4,8.3-25,25.5-24,47.2
	c0.2,3.4,0.7,6.8,1.7,10.1c3,9.8,9.6,18.5,18.1,23.8c3,1.9,6.8,3.6,10.8,5c0.1,0.1,0.2,0.2,0.3,0.3c0.2,0.1,0.4,0.2,0.6,0.2
	c0.1,0,0.1,0,0.2-0.1c9.8,3.2,23.2,5.1,32.8,1.4c-12.3,53.9-27.4,175-27.5,176.2c0,0.4,0.1,0.7,0.3,1c0.2,0.3,0.6,0.4,0.9,0.4h0
	l15.7-0.5c0.4,0,0.7-0.2,0.9-0.5c0.2-0.3,0.3-0.7,0.3-1c-4.3-24.3,15.6-126.5,24.7-171c4.9,1.7,9.9,3.1,14.8,4.2
	c0.2,0.2,0.5,0.3,0.8,0.3c0.1,0,0.2,0,0.2,0c0,0,0,0,0.1,0c5.6,1.2,12.7,2.2,20,2.2c5.5,0,11.1-0.6,16.4-2.1
	c8.9-2.6,24.7-9.2,31.7-24.1l0,0C570.7,437,561.3,415.4,552.1,398.7 M548.8,467.9c-7.9-10.4-20.5-14.9-32.7-19.2
	c-11.2-4-21.7-4.5-32.5-1.8l11.2-8.1c3.6-2.6,7.4-5.4,11.5-7.2c3.1-1.4,7.9-2.8,12.7-1.8c0,0,0.1,0,0.1,0c14,7,26.3,17.9,33.7,34.6
	C551.5,465.6,550.1,466.8,548.8,467.9 M478.9,471.4c0-0.2,0.1-0.3,0.1-0.5c0.1-0.4,0.2-0.9,0.3-1.3c0.1-0.5,0.2-1,0.3-1.4
	c0-0.1,0-0.2,0-0.2c0.1-0.6,0.3-1.2,0.4-1.8c0-0.1,0.1-0.3,0.1-0.4c0.1-0.5,0.2-0.9,0.3-1.4c0.4-1.8,0.7-3.5,1-4.9
	c1.5,1.6,3.1,3.4,4.8,5.7c2.8,3.8,4.7,7.5,5.8,11.2c-4.5-1-8.9-2.3-13.3-3.8C478.8,472.2,478.8,471.8,478.9,471.4 M488.2,463.7
	c-2-2.7-3.7-4.7-5.5-6.5c-0.2-0.2-0.6-0.4-0.9-0.4c0-0.2,0-0.3,0-0.5c0-1.5-0.5-3-1.3-4.2c4.3,0.2,8.4,2.9,11.5,5.3
	c8,6.1,14.8,13.4,20.3,21.7c-6.5-0.1-12.6-1-17.7-2.1C493.8,472.7,491.6,468.2,488.2,463.7 M505.2,429.3c-4.4,1.9-8.2,4.7-12,7.5
	l-14.1,10.2c2.1-4.1,4.3-8.7,5-13.7c0.7-4.5,1.5-10-1.9-14.2c10.1,1.3,20.8,3.8,30.9,8C510.5,427.3,507.9,428.1,505.2,429.3
	 M478.5,418.6c0.1,0.3,0.2,0.5,0.4,0.7c3.9,3.3,3.5,7.7,2.7,13.6c-0.7,4.8-2.9,9.4-5,13.4c-0.1-3.9-0.4-7.9-1.3-11.8
	c-1.2-5.5-3.6-10.1-6.9-13.3c-1.2-1.2-2.9-2.5-4.7-3.6C468.4,417.7,473.4,418,478.5,418.6 M459.4,417.5c0.1,0.3,0.3,0.6,0.6,0.7
	c2.6,1.4,5.1,3.1,6.7,4.7c2.9,2.9,5.1,7,6.2,12c1,4.5,1.2,9.2,1.3,13.8c-0.7,0-1.4,0.1-2,0.3c-1.7-9.8-7.4-18.8-15.5-24.5
	c-3.5-2.4-7.4-4.9-11.8-6.5C448.6,417.8,453.6,417.6,459.4,417.5 M437.9,418.8c0.1,0.1,0.3,0.2,0.5,0.2c6.3,0.9,12,4.4,16.8,7.7
	c7.6,5.2,12.9,13.7,14.5,22.7c-17.1-15.2-42-20-64.8-12.7c1.6-4.1,5.6-8,9.9-10.7C420.3,422.5,427.9,420.2,437.9,418.8 M405,445.6
	c0.2-0.4,0.3-0.8,0-1.2c-0.8-1.5-1.1-3-0.9-4.6c20.9-7.3,44.6-3.6,61.2,9.4c-6.6-1-13.5-0.1-19.7,2.6c-6.8,3-12.5,8.1-16.3,14.4
	c-3.8-1.3-7.2-2.9-10-4.6C413.3,457.7,408.3,452.1,405,445.6 M431.8,466.9c3.5-5.7,8.7-10.2,14.8-12.9c6.7-2.9,14.2-3.5,21.2-1.8
	c0,0,0.1,0,0.1,0c-0.4,0.6-0.7,1.2-0.9,1.9c-0.3,0.9-0.6,2-0.9,3c-0.1,0.4-0.3,0.9-0.4,1.4c-0.2,0.7-0.4,1.3-0.6,2
	c-0.1,0.6-0.3,1.1-0.4,1.7c-0.2,0.7-0.3,1.3-0.5,2c-0.1,0.6-0.3,1.2-0.4,1.8c-0.1,0.5-0.3,1-0.4,1.6c-0.2-0.1-0.5,0-0.8,0.1
	C455.5,470.9,443.5,470.5,431.8,466.9 M450.8,645.1l-12.8,0.4c1.8-14.1,16.1-126.1,27.6-176c1.3-5.9,2.6-10.8,3.9-14.6
	c0.5-1.4,1.5-2.6,2.9-3.1c0.3-0.1,0.7-0.2,1-0.3c0.1,0,0.2,0,0.4,0c0.2,0,0.5,0,0.7,0c0.3,0,0.5,0,0.8,0.1c0.1,0,0.3,0,0.4,0.1
	c0.4,0.1,0.7,0.2,1.1,0.4c1.7,0.9,2.8,2.6,2.8,4.5c0,0.4,0,0.8-0.1,1.1c-0.8,3.6-1.9,9-3.3,15.8
	C467.2,516.2,447.3,617.8,450.8,645.1 M529.7,477.2c-4.6,1.3-9.4,1.9-14.2,2c0,0,0,0,0,0c-5.9-9.1-13.3-17.1-21.9-23.7
	c-3.1-2.4-7-4.9-11.3-5.6c11-3.1,21.6-2.8,32.9,1.2c11.8,4.2,24,8.5,31.5,18.3C540.7,473.5,534.2,475.9,529.7,477.2 M559.8,454.4
	c-1.4,3-3.2,5.6-5.2,7.9c-15.8-34.3-57.6-51.7-112.3-46.6c-12.8,1.2-22.3,3.9-29,8.1c-5.5,3.5-10.1,8.4-11.5,13.6
	c-0.7-2.6-1.1-5.3-1.2-7.9c-0.9-20.7,14.1-37.2,23.1-45.2c7.4-6.6,15.8-12.3,23.9-17.7c6.5-4.4,13.1-8.9,19.3-13.8
	c7.3-5.9,13.4-12.1,18-18.6c3.2-4.5,8.2-7,13.7-6.9c5.5,0.1,10.4,2.8,13.4,7.4c12,18.3,22.7,37.9,33.1,56.8l4.6,8.3
	C558.8,416.1,568,436.9,559.8,454.4C559.8,454.4,559.8,454.4,559.8,454.4"/>
</svg>
