<?xml version="1.0" encoding="utf-8"?>
<!-- Generator: Adobe Illustrator 22.1.0, SVG Export Plug-In . SVG Version: 6.00 Build 0)  -->
<svg version="1.1" id="Layer_1" xmlns="http://www.w3.org/2000/svg" xmlns:xlink="http://www.w3.org/1999/xlink" x="0px" y="0px"
	 viewBox="0 0 920.1 864" style="enable-background:new 0 0 920.1 864;" xml:space="preserve">
<g>
	<path d="M919.6,269.3c-0.2-10.7-5.1-14.4-17.1-14.5c-28.8-0.1-56.9,5.6-84.8,12c-3.5,0.8-6.6,3.5-9.6,5.8
		c-3.5,2.7-2.5,10.8,1.5,12.4c2.6,1.1,5.4,2,8.1,2.2c18,1.4,29,13.4,39.1,26.3c7.6,9.8,9,20.7,4.7,32.4
		c-5.3,14.7-13.6,27.3-24.6,38.1c-6.6,6.5-14.5,9.2-23.5,7.6c-5.6-1-11-2.8-16.5-4.4c-11.3-3.3-17.8-10.5-18.5-22.6
		c-1.6-26.9-7.8-52.8-16.4-78.2c-2.4-7-1.3-12.9,3.7-18.5c3.2-3.5,5.9-7.5,8.4-11.5c26.8-42,28.9-86.5,9.8-131.2
		c-13.4-31.3-38.9-48.6-74.2-49c-34.4-0.5-66.4,6.7-93.4,29.4c-5.9,4.9-11.5,6.1-18.3,3.3c-18.7-7.7-38.6-10.6-58.3-13.8
		c-5.4-0.9-11.6,0.9-15.5-4.8c-0.7-10.9,9.1-19.1,7.3-30.2c-0.3-1.8-1.4-4.7-2.4-4.8c-2.6-0.3-5.7,0-7.8,1.4
		c-2.2,1.5-3.7,4.3-4.9,6.9c-2.8,6-4.9,12.4-8,18.3c-2.5,4.7-3.5,13.1-10.4,11.5c-8.6-2-3-9.5-2-14.2c4.6-21.4,9.9-42.7,14.8-64.1
		c0.8-3.6,1.2-7.5,1-11.2c-0.1-1.3-2.3-3-3.9-3.6c-1.5-0.6-3.9-0.6-5.1,0.2c-6.2,3.9-7.9,10.6-9.4,17c-4.8,20.4-8.8,41-13.7,61.4
		c-1.7,7.2-1.9,15.4-8.1,20.9c-1.3,1.2-3.6,2.2-5.1,1.9c-1.4-0.4-3.4-2.8-3.3-4.1c0.6-7.5,2.2-15,2.5-22.5c0.1-2.2-2.1-5.4-4.2-6.8
		c-4.5-3-7.6,0.9-8.8,4.1c-2.9,8-5.1,16.3-6.9,24.7c-2.1,9.9-6.7,16.9-16.1,22c-33.6,18-59.5,44.4-79.3,76.8c-1,1.6-1.9,3.3-3,4.9
		c-5.8,8.2-7.9,9-16.6,5.8c-5.4-2-10.5-4.7-15.9-6.4c-21.1-6.5-42.3-10.2-64.8-5.9c-38.4,7.4-69,26.8-93.1,56.9
		c-24,29.9-37.6,64.6-40.9,102.3c-6.3,70.9,14,132,72.1,177.3c4.4,3.5,10.2,5.6,13,12.8c-8.2,9.3-17.3,18.9-25.5,29.2
		c-8.3,10.4-15.6,21.6-24.8,34.6c-14.8-7.7-22.8-19.8-32.5-30.1c-8.5-9-11.4-18.1-6.9-31c6.4-18.2,7-37.5,0.9-56.4
		c-4.7-14.6-13.8-26.4-29.4-27.8c-9.8-0.8-18-3.6-26.6-7.4c-7.3-3.2-16.2-3.1-21.4,3.1c-7.3,8.9-14.9,16.6-24.9,22.6
		c-6.6,4-8.4,12.4-9.4,20.2c-5,37.9,17.8,67.7,56,72.8c9.4,1.2,19,1.3,28.6,1.3c6.2,0,11.2,1.6,15.2,6.3
		c11.6,13.9,24.1,27.1,37.9,39c4.2,3.6,4.1,8.2,2.6,13c-2.1,6.3-4.3,12.6-6.3,19c-9.4,30.3-14.4,61.3-13.9,93
		c0.3,19.2,3.1,38.1,10.9,55.8c12.6,28.6,39.2,44.8,68.6,41.1c25.6-3.2,47.5-13.8,62.2-36.3c4.2-6.4,7.7-13.2,11.7-19.6
		c2.3-3.7,4-8.8,11.4-6.9c0.3,24.4,11.3,45.6,23.9,65.9c11.4,18.3,26.8,22.8,46.8,15.3c17.2-6.4,28.6-18.5,34.9-35.6
		c3.6-9.8,6.3-20.1,10.3-29.7c2.9-6.9,6.9-14.7,15.8-14.7c10.4-0.1,10.3,9.4,12.3,16.5c3.6,12.8,5.5,26.2,13.9,37.3
		c13.3,17.5,30.3,25.6,52.5,20.9c20.4-4.2,30.7-17.4,34.8-37.1c1.7-8.3,4-16.7,7.3-24.6c3.9-9.4,14.4-10.6,20.5-2.2
		c6.1,8.5,10.6,18.1,16.4,26.8c12.2,18,31.1,25,49.8,17.1c21.7-9.2,35.5-25.6,37.5-49.8c0.8-9.4-0.5-19.1-1.5-28.5
		c-2.1-19.9-4.9-39.8-6.9-59.7c-1.9-19.2,1-38.3,5.5-56.8c4.5-18.8,12.8-35.9,30-47.2c6.3-4.2,12.3-9.2,17.3-14.9
		c7.5-8.7,16.8-11.3,27.7-12.6c16-2,32.2-3.2,47.8-8.7c68.9-24.2,116.4-67.7,130.4-142.1C921.4,366.7,920.5,317.9,919.6,269.3z
		 M97.4,532.6c-0.9,9.1-2.9,9.7-12.8,5.8c-0.9-0.3-1.6-1.1-2.5-1.4c-5.4-1.9-8.6,0.6-9.2,6.7c-0.4,4.3,5,9.8-0.9,12.6
		c-3.9,1.8-9.3,1.5-13.8,0.7C29.4,552,16,534.2,17.9,504.5c0.3-4.1,4.3-6.8,7.9-4.8c2.4,1.3,4,4.3,6.4,5.4
		c6.3,2.8,12.1-0.7,12.2-6.9c0-2.8-0.4-5.7-0.5-7.5c-1.5-5.7-1.9-10.5,0.5-14.9c0.8-1.4,2.6-2.7,4.1-3.1c1.6-0.3,4,0,5.2,1
		c4.6,3.7,6.5,9.2,7.9,14.8c1.1,4.7,2.4,9.6,8.2,10.2c6.1,0.7,7.8-3.9,9.1-8.7c1-3.7,2.1-7.4,7.3-6.7c4.4,0.6,6.8,3.9,8.1,7.2
		c2.1,5.2,3.7,10.9,4,16.5C98.7,515.5,98.2,524.1,97.4,532.6z M684.9,93.6c3.7-0.8,7.6-0.5,11.4-0.8c43.6-4,71.7,20.4,79.8,60.9
		c6.5,32.6,4,64.6-15.8,93.1c-1.6,2.3-3.2,4.7-7.1,10.6c-5.2-7.8-7.8-11.7-10.4-15.6c-6.3-9.4-8.2-18.6-1.8-29.2
		c4.4-7.3,5.8-16,5.1-24.8c-2.4-31.5-28.1-53.4-60.6-51.5c-1.9,0.1-3.9,0.3-5.6,1c-22.8,9.2-37.2-4.3-52.6-18.6
		C643.6,100.9,664.6,98,684.9,93.6z M729,192c-0.3,1.7-0.4,3.7-0.9,5.5c-0.6,1.8-1.5,4.7-2.5,4.8c-2.5,0.3-6.1,0.1-7.6-1.4
		c-9.7-10.4-19-21.3-28.4-32c-2.5-2.8-5.1-5.6-7.2-8.8c-0.8-1.3-0.7-3.9,0.1-5.2c0.8-1.3,3-2.6,4.6-2.6
		C713.5,152,728.8,166.5,729,192z M189.4,510.6c-28.1-23.7-44.4-54.6-52.8-89.7c-3.3-13.8-4.3-28.2-5.7-37.9
		c1.5-43.5,10.4-80.2,33-112.5c22.9-32.6,52.9-54.3,93.5-59.8c22.6-3,43.6,1.3,64,10.4c9.8,4.4,11.5,8,8.1,18
		c-6.4,19-12.3,38.1-15,58.1c-0.9,6.9-5.2,9.7-11.4,10.6c-23.6,3.6-43.4,13.8-58.4,32.8c-14.4,18.3-24.7,38.3-30.2,61
		c-3.3,13.5-2.3,26.4,2.1,39.4c14.8,44.1,57,64.5,100.7,48.3c3.6-1.3,7.3-2.4,10.5-4.4c15.4-9.4,18.2-2.6,23.7,8.6
		c3.8,7.7,2.8,10.5-4.8,17C300.8,550.1,236.2,550.2,189.4,510.6z M330.7,446.5c4.6,13,2.5,17.1-9.4,22.8c-10.3,5-20.8,9.6-30.7,8.9
		c-40.6,1.1-65.3-38.6-60.7-66.6c4.6-28,17.1-52.4,38.2-71.8c4.8-4.4,10.5-8.8,16.6-10.8c18.2-5.9,28-12,27.9,16.8
		C312.5,380.3,319.2,413.8,330.7,446.5z M163.7,811.7c-2.1,1.8-8.3-4.2-9.4-8.7c-2.5-10,0.1-17.9,8.7-24.2
		c5.4,7.7,4.1,15.4,4.4,22.8C167.6,805.4,166.7,809.1,163.7,811.7z M192.4,825.7c-6,0-9.2-3.1-8.2-8.5c1.3-7.4,2.7-14.8,4.5-22.1
		c0.9-3.8,3.5-6.5,8.6-6.9c4.5,9.4,3,20.1,4.6,30.1C202.8,824.1,197.5,825.7,192.4,825.7z M233.1,809.2c-1.7,5-5.7,6.9-10.9,6
		c-3.6-8-0.8-15.8,1-23.6c0.3-1.3,2.3-3,3.7-3.2c1.4-0.2,3.9,0.8,4.5,2C234.4,796.3,235.2,802.8,233.1,809.2z M351.8,844.2
		c-9.9,0.8-18.5,4.3-26-4.7c-4.1-4.9-14.1-24.5-12.3-27.4c8.6-14.1,23,19.9,23.1,19.5c-1.6-4.2,1.2-24.5,3-28.2
		c1.3-2.7,5.7-3.9,8.2-2.1c2.7,2,10.8,16.6,12,19.3c1-2,2.2-15.8,2.8-18c1.4-5.6,10.2-5.8,11.5,0C375.7,809.5,378.8,842,351.8,844.2
		z M496.4,842.9c-14,3.4-31.6-3.6-37.7-16.9c-0.3-0.7-0.4-1.4-0.5-2.1c-2-5.4-1.8-11.8,1.1-18.5c0.7-1.6,2.4-3.1,4-3.7
		c3.2-1.2,5,0.9,6.2,3.6c1.1,2.6,2.2,5.2,3.3,7.8c2.1,5.1,2.9,12.4,10,11.9c9.2-0.6,1-32,4.4-33.6c7.4-3.5,14.7,17.5,15.9,22
		l0.3,1.4c1.2-1.7,2-3.6,2-5.6c-0.1-7.9,11-7.4,11.9,0C519,823.4,511,839.3,496.4,842.9z M637.2,804.7c-4.1,7.3-16.4,15.6-25.2,16.4
		c-10.5,0.9-18-4.1-23.2-12.9c-1.9-3.3-12.9-23.8-9.4-25.9c15.7-9.3,19.7,14.3,22.8,15.9c6.5,3.5,1.2-27,11.9-26.9
		c5.8,0.1,13.6,7.9,16.8,13.3c0.6-1.4,1.2-2.8,1.7-4.3c1.6-5.2,10.5-6.2,11.5,0C645.7,789.4,643.7,798.9,637.2,804.7z M636.7,695.5
		c1,22.7,6.8,45.1,5.4,67.7c-8.4,2.7-9.8-5.2-14.3-7.9c-7.3-4.3-18.9-7.3-20.9,0c-7.1,26.4-26.2,5.4-34.4,17.4
		c-0.8,1.2-5.5,0.8-7.7-0.3c-22.1-10.5-36.6-1.4-46.2,18.3c-8-2.1-10.4-9.3-15.9-13c-4.2-2.8-10.1-5.3-13.3-2.6
		c-11.4,9.5-26.5,1.3-38,8.9c-2.4,1.6-5.5,0.7-7.2-2.2c-2-3.3-3.6-6.8-6-9.7c-9.6-11.9-22.7-14-35.3-5.3c-4.6,3.2-8.5,7.6-12.2,11.9
		c-2.6,3.1-5.1,6-9.2,3.5c-7.6-4.6-13.7-3.2-21,1.6c-7.3,4.8-16.5,5.3-24.2,0c-10.3-7.1-17.5-4.7-23.7,5.3c-0.8,1.3-3.2,2.2-4.9,2.1
		c-3.6-0.1-4.1-3.3-4.3-6c-0.6-7.6-0.3-15.3-1.5-22.8c-2-12.1-14.4-16.9-23.7-9.2c-4.4,3.6-8.1,8.1-11.4,12.7
		c-4.5,6.1-8.3,12.6-12.3,18.8c-8.1-3.8-7.7-11.4-10.6-17.1c-5.5-11.1-12.4-14-23.3-7.6c-6.3,3.7-10.3,5.6-17.8,2.6
		c-10.6-4.2-23.6,0.2-32.9-10.3c-3-3.3-9.4-0.8-13.1,2.4c-4.2,3.7-7.8,8.1-11.5,12c-6.1-2.1-6.8-7.2-6.9-11.6
		c-2.1-64.9,12-125.1,54.1-176.4c6-7.3,12.8-14.3,20.3-20.1c6.7-5.2,14.5-8.2,24-5.9c42.8,10.7,81.1,0,116-25.7c2.3-1.7,4.6-3.5,7-5
		c3.8-2.4,7.8-1.3,10.3,1.5c5.1,5.6,9.4,12,14.3,17.9c30.6,36.6,67.4,64.7,112.6,80.8c41.6,14.8,83.7,18,126.4,4.7
		c6.3-2,12.8-3.4,23-6.1C641.9,648.5,635.7,671.6,636.7,695.5z M902.5,344.7c-1.3,21.9-3.2,43.8-6.7,65.4
		c-10.4,65-51,104.8-110.2,127.7c-33.8,13.1-68.8,14.2-104.2,6.8c-36.1-7.6-61-30.8-79.7-60.7c-8.3-13.2-18.7-26.4-16.2-44.4
		c0.7-5.2-8.1-9.3-13.3-6.7c-15.5,7.6-29.5,17.4-40.7,30.7c-1.8,2.1-2.6,5-0.7,7.9c2.4,3.5,5.8,5.2,9.7,3.9
		c7.2-2.3,14.3-5.1,21.4-7.9c6.6-2.6,11.3-0.1,14.3,5.5c8.1,15.1,16.9,29.7,28.3,42.9c18.7,21.6,41,36.9,68.8,43.9
		c5.5,1.4,10.9,3.1,16.1,4.7c1,7.5-4.3,10.7-8.6,14.1c-54.2,42.3-114.3,50.1-178.3,28.1c-49.5-17-87.8-49.6-117.6-92
		c-42.7-60.9-61.1-128.7-54.4-203c4.3-47.6,19.6-91.2,49.7-129c51.8-65,132.8-87.7,210.9-58.2c69.1,26.1,114.7,76.9,145,142.7
		c4.3,9.4,2.9,11.5-8.2,16.1c-2.6,1.1-5.2,2-7.5,3.6c-2.3,1.6-0.7,9.2,2,10c2.7,0.8,5.5,1.5,8.2,1.8c5.5,0.6,12.1-3.8,16.2,1.4
		c3.3,4.3,4.9,10.2,6.3,15.7c2.7,11.1,4.6,22.4,7.2,33.6c3.5,14.9-0.8,24.7-15.1,32.4c-15.1,8.1-26.8,21.4-38.4,34.1
		c-2.5,2.8-4.7,6-6.7,9.2c-1.6,2.7-0.8,5.6,1.2,7.8c2.1,2.3,5,3.3,7.6,1.3c5.2-4.1,10.1-8.7,15-13.1c9.2-8.3,18.2-16.8,27.6-24.9
		c2.8-2.4,6.5-4,10-5.3c1.5-0.5,3.6,0.4,5.3,1c2.2,0.8,2.6,2.6,1.4,4.7c-5.4,9-11,17.8-16.1,26.9c-1.9,3.3-2.5,7.6,1.2,10.4
		c3.6,2.7,7.4,1.2,9.9-2c4.7-6,8.9-12.3,13.3-18.6c5.4-7.8,11.9-12,21.9-8.4c29.5,10.5,49.7-2.6,65.2-26.6
		c4.6-7.2,8.9-14.7,12.2-22.6c8.5-20.2,6.4-39-8.3-56c-5.4-6.3-13.2-11-15.7-21.4c13.1-4.1,26.1-5.5,39.2-6.2
		c7.8-0.4,11.9,3.7,12,12.6C903.2,304.6,903.6,324.7,902.5,344.7z"/>
	<path d="M535.7,351.6c-0.2-2.1,0.2-4-0.5-5.6c-2.2-5.4-11.9-10.5-2.7-16.3c7.1-4.5,11.6,3.4,16.2,7.9c4.7,4.6,7.5,11.1,14.8,13.5
		c12.9-3.6,21.8-14.3,33.7-20c2.5-1.2,6-1.4,7.2,1.9c0.9,2.4,1.3,5.6,0.5,8c-0.8,2.5-3,4.9-5.2,6.6c-15,11.9-31.4,21.4-48.7,29.3
		c-7.2,3.2-14.6,4.7-20.3-3.4c-5.7-8.2-15.7-5.5-23.3-8.9c-3.4-1.5-6.7-3.4-9.6-5.7c-1.1-0.9-1.4-3.5-1.2-5.2
		c0.5-2.9,2.1-5.7,5.4-5.4C513.3,349.3,524.2,353.7,535.7,351.6z"/>
</g>
</svg>
