<?xml version="1.0" encoding="utf-8"?>
<!-- Generator: Adobe Illustrator 23.0.1, SVG Export Plug-In . SVG Version: 6.00 Build 0)  -->
<svg version="1.0" id="Слой_1" xmlns="http://www.w3.org/2000/svg" xmlns:xlink="http://www.w3.org/1999/xlink" x="0px" y="0px"
	 viewBox="0 0 720 720" style="enable-background:new 0 0 720 720;" xml:space="preserve">
<path d="M534,650c2.4-1.4,4.6-4.6,7.2-8.6c4.8-7.4,9.2-15.9,13.1-25.4c14.2-34.3,17.3-72.5,8.7-107.5c-2.7-11-9.7-29.8-26.2-32.4
	c-14.3-2.2-26.4,9.4-33,21.1c-12.6,22.4-15.5,51.5-8.2,81.9c3.5,14.5,8.9,29.3,16.2,44.3c-35.1-43.1-69.7-89.3-97.2-139.1
	c3.1-0.3,5.4-3.5,8.4-8.1c4-6.2,7.8-13.5,11.1-21.5c12-28.9,14.6-61.2,7.4-90.8c-2.3-9.4-8.3-25.4-22.4-27.6
	c-12.2-1.9-22.5,8-28.1,18c-9.3,16.4-12.3,37.1-8.9,59.1c-0.6-1.7-1.3-3.3-1.9-5c-13.5-38.3-22.9-81.7-28.8-132.8
	c0-0.4-0.2-0.8-0.5-1.1c17.5-6.9,32-24.1,38.4-46c6.2-21.3,5.9-38.1,4.8-59.6c0-0.1,0-0.1,0-0.2c9.3-14.3,16.2-30.5,22.7-48.7
	c3.9-11.1,14.9-49-8.5-71c-11.8-11-30.2-14.2-45-7.6c-10.5,4.7-18.5,14-22.2,24.8c-4.6-10.7-14.6-19.4-26.8-22
	c-15.5-3.3-32.9,3-44.4,16c-8.1,9.2-13.4,21.3-15.3,35c-3-4.5-7.5-8.3-12.9-10.9c-10.3-5-22.6-5-32.1-0.2
	c-16.8,8.6-26.5,29.6-23.5,51.1c2.3,16.9,11.7,33.9,27.8,50.5h0c9.4,9.7,20.9,18.1,35.1,25.9c-0.3,0.7-0.3,1.5,0.2,2.2
	c11,16.8,22.3,34.2,38.5,47.2c13.8,11.1,29.7,17.1,44.7,17.1c4.7,0,9.3-0.6,13.7-1.8c0.2-0.1,0.5-0.2,0.7-0.2c0,0.1,0,0.1,0,0.2
	c3.8,33.4,9.2,63.5,16.2,91.1c-5.6-9.3-11.7-17.7-18.4-24.8c-14.2-15-31.3-24-48.2-25.1c-9-0.6-20.1,2-24.2,10.9
	c-4.7,10.4,3.3,21.3,8.5,26.8c16.2,17.4,38.3,29.4,62.3,34c6.7,1.3,13,1.9,18.8,1.9c0.3,0,0.5,0,0.8,0c2.9,0,5.2-0.2,6.8-1
	c2.1,6.8,4.2,13.4,6.5,19.9c13.1,37,31.1,72.1,51.7,105.4c-4.5-5-9.2-9.8-14-14.2c-22.9-20.8-49.5-32.3-74.9-32.3
	c-0.3,0-0.5,0-0.8,0c-13.4,0.1-29.5,5.1-34.4,18.7c-5.7,15.7,7.5,30.9,15.8,38.6c26.6,24.4,61.5,40.1,98.4,44.2
	c6.6,0.7,12.9,1.1,18.9,1.1c3.4,0,6.6-0.1,9.7-0.3c6.6-0.5,11.5-1.1,13.2-4.4c0.5-0.9,0.6-1.9,0.5-3c20.8,28.9,43,56.5,65,83
	c0.5,0.6,0.9,1.2,1.4,1.6c9,10.8,17.9,21.4,26.7,31.8c0.5,0.6,1.2,0.8,1.8,0.8c0.5,0,1.1-0.2,1.5-0.6c1-0.9,1.1-2.4,0.3-3.4
	C549.3,668.2,541.7,659.1,534,650 M395.4,356.6c4.4-7.9,12.1-15.8,20.9-15.8c0.8,0,1.5,0.1,2.3,0.2c11.4,1.8,16.4,15.8,18.5,24
	c7,28.6,4.5,59.8-7.1,87.8c-3.2,7.8-6.8,14.7-10.7,20.7c-2.5,3.8-4.1,5.8-4.7,5.9c-0.4-0.1-1.5-1-4.4-5.9
	c-10.1-17.3-17.2-34.5-21.2-51.1C383,397.8,385.3,374.5,395.4,356.6 M190.9,134.5c-2.3-16.5,4.2-37.6,21-46.2
	c8.2-4.2,18.8-4.1,27.8,0.3c7.6,3.7,12.8,9.9,14.3,17.1c0.2,1.2,1.4,2,2.6,1.9c1.2-0.1,2.2-1.1,2.2-2.3c0.3-16.5,5.5-31.3,14.8-41.8
	c10.4-11.7,26.1-17.4,39.9-14.5c14.1,3,25.2,15.8,25.6,29.1c0,0.6,0,1.3,0,1.9c0,1.3,1.1,2.3,2.4,2.3h0c1.3,0,2.3-1,2.4-2.3
	c0-0.7,0-1.3,0-2c0.5-13.6,9.1-26.6,21.5-32.2c13-5.8,29.3-3,39.7,6.7c21.3,20,11,55.5,7.3,65.9C400,153.5,385.7,181,356,200.8
	c-14.4,9.6-51.2,30.5-83,17c-24.6-10.5-42.3-21.8-55.7-35.6C202,166.4,193.1,150.3,190.9,134.5 M344.8,271.5
	c-16.9,4.7-37.1-0.7-54.1-14.4c-14.3-11.5-24.9-26.8-34.8-42c4.8,2.4,9.9,4.8,15.3,7.1c8,3.4,16.3,4.8,24.4,4.8
	c26.4,0,51.6-14.5,63.1-22.2c12.8-8.6,22.8-18.5,31-29.7c0.8,18.2,0.6,33.4-4.9,52C379.7,244.6,366.5,265.5,344.8,271.5
	 M361.8,386.2c-5.5,0-11.5-0.7-17.9-1.9c-23-4.3-44.2-15.9-59.7-32.5c-4.4-4.7-11.2-13.7-7.6-21.6c2.7-6.1,10.6-8.2,17.3-8.2
	c0.7,0,1.4,0,2.1,0.1c15.7,1.1,31.7,9.4,45.1,23.6c9.1,9.6,17.2,21.5,24.1,35.3c1.8,3.6,2,4.7,2.2,4.7
	C366.9,386.1,365,386.2,361.8,386.2 M455.3,564.5c-0.4,0.8-3.5,1.4-9.3,1.8c-8.5,0.6-17.8,0.4-27.8-0.7
	c-35.9-3.9-69.9-19.2-95.7-42.9c-7.5-6.9-19.3-20.3-14.5-33.4c4.1-11.3,18.1-15.4,29.9-15.5c0.3,0,0.5,0,0.8,0
	c24.2,0,49.7,11,71.7,31c15,13.7,28.9,31,41.2,51.4C455.3,562.4,455.5,564.1,455.3,564.5 M525.7,638.7c-12-20.6-20.4-41.1-25.2-60.8
	c-7-29.3-4.3-57.1,7.7-78.5c5.3-9.5,14.6-19,25.2-19c0.9,0,1.9,0.1,2.8,0.2c13.8,2.2,19.9,19,22.3,28.8c8.4,34.1,5.4,71.2-8.5,104.5
	c-3.8,9.3-8.1,17.6-12.8,24.7c-3.1,4.8-5.1,7.4-6,7.3c-0.2,0-0.6-0.2-1.1-0.8c-0.4-0.5-0.8-1-1.2-1.5
	C528.1,642.7,527,641.1,525.7,638.7"/>
</svg>
