<?xml version="1.0" encoding="utf-8" ?>
<svg baseProfile="full" height="210mm" version="1.1" viewBox="0 0 297 210" width="297mm" xmlns="http://www.w3.org/2000/svg" xmlns:ev="http://www.w3.org/2001/xml-events" xmlns:xlink="http://www.w3.org/1999/xlink"><defs /><g transform="translate(43,30)"><path d="M 209,124 Q 249.0,23.0 205,6 Q 87.0,-15.5 63,57 Q 97.5,6.0 44,43 Q 52.5,76.5 123,48" fill="none" stroke="black" stroke-width="2" /><path d="M 25,7 Q -15.0,110.0 41,117 Q 64.0,93.5 45,28 Q 156.0,74.0 173,26 Q 137.0,-11.5 49,3" fill="none" stroke="black" stroke-width="2" /><path d="M 7,127 Q 136.0,132.0 179,51 Q 91.0,34.5 47,62 Q 89.5,87.0 174,70 Q 202.5,25.0 167,44" fill="none" stroke="black" stroke-width="2" /><path d="M 99,125 Q 99.0,84.5 31,112 Q 150.5,93.5 208,13 Q 73.5,-4.0 3,43 Q -26.5,100.0 4,97" fill="none" stroke="black" stroke-width="2" /></g></svg>