<?xml version="1.0" encoding="utf-8" ?>
<svg baseProfile="full" height="210mm" version="1.1" viewBox="0 0 297 210" width="297mm" xmlns="http://www.w3.org/2000/svg" xmlns:ev="http://www.w3.org/2001/xml-events" xmlns:xlink="http://www.w3.org/1999/xlink"><defs /><g transform="translate(43,30)"><path d="M 174,71 Q 162.0,43.5 102,64 Q 96.5,126.5 183,97 Q 69.0,63.0 43,117 Q 52.5,145.5 114,122" fill="none" stroke="black" stroke-width="2" /><path d="M 118,2 Q 40.5,50.0 13,148 Q 135.5,162.5 176,95 Q 78.5,83.0 37,127 Q 89.5,125.5 68,50" fill="none" stroke="black" stroke-width="2" /><path d="M 31,63 Q 25.0,122.5 105,96 Q 115.5,25.5 46,35 Q 54.0,131.0 152,137 Q 158.5,96.0 95,125" fill="none" stroke="black" stroke-width="2" /><path d="M 197,95 Q 127.0,40.5 1,42 Q 42.0,21.5 1,1 Q -22.5,81.0 26,89 Q 53.0,55.0 14,87" fill="none" stroke="black" stroke-width="2" /></g></svg>