<?xml version="1.0" encoding="utf-8" ?>
<svg baseProfile="full" height="210mm" version="1.1" viewBox="0 0 297 210" width="297mm" xmlns="http://www.w3.org/2000/svg" xmlns:ev="http://www.w3.org/2001/xml-events" xmlns:xlink="http://www.w3.org/1999/xlink"><defs /><g transform="translate(43,30)"><path d="M 98,30 Q 49.5,8.5 53,39 Q 48.0,120.0 111,133 Q 156.0,148.0 147,109 Q 147.5,35.0 50,59" fill="none" stroke="black" stroke-width="2" /><path d="M 191,113 Q 167.0,66.5 93,70 Q 16.0,54.0 21,120 Q 96.0,124.5 121,79 Q 19.5,56.0 16,131" fill="none" stroke="black" stroke-width="2" /><path d="M 168,145 Q 118.5,114.5 27,126 Q 64.0,98.0 35,4 Q 86.0,92.0 193,124 Q 171.5,44.0 56,58" fill="none" stroke="black" stroke-width="2" /><path d="M 82,37 Q 80.5,111.0 129,135 Q 140.0,55.0 75,51 Q 32.5,65.5 34,124 Q 33.5,145.5 73,127" fill="none" stroke="black" stroke-width="2" /></g></svg>