<?xml version="1.0" encoding="utf-8" ?>
<svg baseProfile="full" height="210mm" version="1.1" viewBox="0 0 297 210" width="297mm" xmlns="http://www.w3.org/2000/svg" xmlns:ev="http://www.w3.org/2001/xml-events" xmlns:xlink="http://www.w3.org/1999/xlink"><defs /><g transform="translate(43,30)"><path d="M 159,113 Q 148.0,67.5 81,78 Q 140.0,89.5 145,47 Q 155.0,97.0 165,47 Q 101.0,28.0 125,97" fill="none" stroke="black" stroke-width="2" /><path d="M 30,108 Q 74.0,111.0 40,36 Q 91.5,72.5 53,19 Q 107.5,83.0 210,99 Q 238.5,31.0 171,59" fill="none" stroke="black" stroke-width="2" /><path d="M 74,137 Q 8.5,97.5 23,138 Q 119.0,146.0 161,100 Q 74.5,80.5 52,125 Q 59.0,169.0 134,145" fill="none" stroke="black" stroke-width="2" /><path d="M 189,138 Q 182.0,63.5 129,35 Q 82.5,34.0 118,115 Q 104.5,91.5 51,108 Q 25.0,150.5 55,137" fill="none" stroke="black" stroke-width="2" /></g></svg>