<?xml version="1.0" encoding="utf-8" ?>
<svg baseProfile="full" height="210mm" version="1.1" viewBox="0 0 297 210" width="297mm" xmlns="http://www.w3.org/2000/svg" xmlns:ev="http://www.w3.org/2001/xml-events" xmlns:xlink="http://www.w3.org/1999/xlink"><defs /><g transform="translate(43,30)"><path d="M 0,142 Q 78.5,115.5 109,41 Q 126.0,-12.5 67,10 Q 8.5,15.5 38,109 Q 71.5,37.0 21,49" fill="none" stroke="black" stroke-width="2" /><path d="M 155,22 Q 196.5,48.0 164,0 Q 108.0,-10.0 114,42 Q 65.0,30.0 84,86 Q 25.5,74.0 41,136" fill="none" stroke="black" stroke-width="2" /><path d="M 148,40 Q 45.5,9.0 35,70 Q -11.5,65.0 28,146 Q 85.5,145.5 93,95 Q 79.5,43.5 20,38" fill="none" stroke="black" stroke-width="2" /><path d="M 135,112 Q 173.0,55.5 113,97 Q 204.0,99.5 207,14 Q 196.5,-34.5 92,11 Q 96.5,115.0 193,127" fill="none" stroke="black" stroke-width="2" /></g></svg>