<?xml version="1.0" encoding="utf-8" ?>
<svg baseProfile="full" height="210mm" version="1.1" viewBox="0 0 297 210" width="297mm" xmlns="http://www.w3.org/2000/svg" xmlns:ev="http://www.w3.org/2001/xml-events" xmlns:xlink="http://www.w3.org/1999/xlink"><defs /><g transform="translate(43,30)"><path d="M 171,124 Q 205.5,71.5 152,107 Q 121.0,11.0 0,5 Q 53.5,47.0 175,21 Q 215.5,-30.5 174,0" fill="none" stroke="black" stroke-width="2" /><path d="M 139,25 Q 177.0,44.5 159,8 Q 89.5,-11.0 88,38 Q 118.0,68.0 206,40 Q 135.5,32.0 163,122" fill="none" stroke="black" stroke-width="2" /><path d="M 195,116 Q 142.0,37.5 23,25 Q 75.0,38.0 87,11 Q 25.0,7.5 51,92 Q 107.5,89.0 80,2" fill="none" stroke="black" stroke-width="2" /><path d="M 150,19 Q 109.5,54.5 109,130 Q 152.0,108.0 139,30 Q 72.5,50.0 84,148 Q 150.5,121.5 141,19" fill="none" stroke="black" stroke-width="2" /></g></svg>