<?xml version="1.0" encoding="utf-8" ?>
<svg baseProfile="full" height="210mm" version="1.1" viewBox="0 0 297 210" width="297mm" xmlns="http://www.w3.org/2000/svg" xmlns:ev="http://www.w3.org/2001/xml-events" xmlns:xlink="http://www.w3.org/1999/xlink"><defs /><g transform="translate(43,30)"><path d="M 3,108 Q -4.0,149.0 69,110 Q 164.5,130.5 180,71 Q 148.0,56.5 166,92 Q 91.5,71.0 91,124" fill="none" stroke="black" stroke-width="2" /><path d="M 83,15 Q 52.0,90.5 121,66 Q 103.5,19.5 40,19 Q 45.5,108.5 133,116 Q 159.0,90.5 135,15" fill="none" stroke="black" stroke-width="2" /><path d="M 176,52 Q 137.5,116.5 177,103 Q 188.0,62.0 147,73 Q 108.0,27.5 17,34 Q 48.0,109.0 175,88" fill="none" stroke="black" stroke-width="2" /><path d="M 151,62 Q 199.5,66.5 184,7 Q 72.0,33.5 32,132 Q 156.0,150.5 206,95 Q 186.5,62.5 115,82" fill="none" stroke="black" stroke-width="2" /></g></svg>