<?xml version="1.0" encoding="utf-8" ?>
<svg baseProfile="full" height="210mm" version="1.1" viewBox="0 0 297 210" width="297mm" xmlns="http://www.w3.org/2000/svg" xmlns:ev="http://www.w3.org/2001/xml-events" xmlns:xlink="http://www.w3.org/1999/xlink"><defs /><g transform="translate(43,30)"><path d="M 146,138 Q 153.0,24.5 62,9 Q 23.0,70.5 66,50 Q 79.5,122.5 185,103 Q 138.5,20.5 12,18" fill="none" stroke="black" stroke-width="2" /><path d="M 76,131 Q -2.5,90.5 9,140 Q 34.5,95.5 20,11 Q -10.0,71.0 50,41 Q 70.5,96.5 147,96" fill="none" stroke="black" stroke-width="2" /><path d="M 150,72 Q 152.0,99.0 206,74 Q 101.0,45.5 78,99 Q 159.0,101.5 192,56 Q 96.0,54.0 92,144" fill="none" stroke="black" stroke-width="2" /><path d="M 27,119 Q 96.5,136.0 90,77 Q 53.5,52.5 69,80 Q 73.0,132.5 129,133 Q 123.5,169.0 178,145" fill="none" stroke="black" stroke-width="2" /></g></svg>