<?xml version="1.0" encoding="utf-8" ?>
<svg baseProfile="full" height="210mm" version="1.1" viewBox="0 0 297 210" width="297mm" xmlns="http://www.w3.org/2000/svg" xmlns:ev="http://www.w3.org/2001/xml-events" xmlns:xlink="http://www.w3.org/1999/xlink"><defs /><g transform="translate(43,30)"><path d="M 146,47 Q 124.0,128.0 196,115 Q 134.0,45.5 12,36 Q 60.0,110.5 154,139 Q 112.0,70.0 26,45" fill="none" stroke="black" stroke-width="2" /><path d="M 112,138 Q 153.0,113.5 114,9 Q 69.0,-16.0 110,45 Q 140.0,49.5 128,12 Q 68.5,-16.0 87,34" fill="none" stroke="black" stroke-width="2" /><path d="M 124,52 Q 89.5,16.5 3,33 Q 9.5,107.0 68,129 Q 149.5,122.0 183,67 Q 130.0,32.5 177,98" fill="none" stroke="black" stroke-width="2" /><path d="M 130,75 Q 85.5,61.0 91,97 Q 144.0,110.5 121,48 Q 58.0,28.5 85,99 Q 51.0,75.0 67,101" fill="none" stroke="black" stroke-width="2" /></g></svg>