<?xml version="1.0" encoding="utf-8" ?>
<svg baseProfile="full" height="210mm" version="1.1" viewBox="0 0 297 210" width="297mm" xmlns="http://www.w3.org/2000/svg" xmlns:ev="http://www.w3.org/2001/xml-events" xmlns:xlink="http://www.w3.org/1999/xlink"><defs /><g transform="translate(43,30)"><path d="M 63,23 Q 80.5,73.0 186,35 Q 221.5,61.0 195,25 Q 179.0,-13.5 109,2 Q 108.5,56.0 180,38" fill="none" stroke="black" stroke-width="2" /><path d="M 169,6 Q 174.5,-24.0 126,0 Q 71.5,6.5 89,85 Q 35.5,65.0 28,91 Q 69.0,146.0 178,133" fill="none" stroke="black" stroke-width="2" /><path d="M 120,33 Q 79.0,21.5 88,60 Q 145.0,71.5 122,3 Q 96.5,60.0 153,35 Q 98.5,17.5 128,84" fill="none" stroke="black" stroke-width="2" /><path d="M 136,15 Q 51.5,-20.5 63,40 Q 124.0,49.0 129,2 Q 31.0,-36.5 27,19 Q 147.5,49.5 190,2" fill="none" stroke="black" stroke-width="2" /></g></svg>