<?xml version="1.0" encoding="utf-8" ?>
<svg baseProfile="full" height="210mm" version="1.1" viewBox="0 0 297 210" width="297mm" xmlns="http://www.w3.org/2000/svg" xmlns:ev="http://www.w3.org/2001/xml-events" xmlns:xlink="http://www.w3.org/1999/xlink"><defs /><g transform="translate(43,30)"><path d="M 106,147 Q 176.0,181.0 152,121 Q 139.0,71.0 46,101 Q 95.0,136.0 64,91 Q 151.5,100.0 143,13" fill="none" stroke="black" stroke-width="2" /><path d="M 16,66 Q 122.5,73.0 155,6 Q 137.5,49.5 160,53 Q 148.0,12.5 64,44 Q 135.0,76.5 114,17" fill="none" stroke="black" stroke-width="2" /><path d="M 40,114 Q 66.0,146.0 140,130 Q 156.5,47.5 121,17 Q 82.0,40.5 101,122 Q 122.0,45.0 51,60" fill="none" stroke="black" stroke-width="2" /><path d="M 25,136 Q 135.0,149.0 205,122 Q 218.5,38.0 160,26 Q 152.0,78.5 186,89 Q 192.0,1.0 108,3" fill="none" stroke="black" stroke-width="2" /></g></svg>