<?xml version="1.0" encoding="utf-8" ?>
<svg baseProfile="full" height="210mm" version="1.1" viewBox="0 0 297 210" width="297mm" xmlns="http://www.w3.org/2000/svg" xmlns:ev="http://www.w3.org/2001/xml-events" xmlns:xlink="http://www.w3.org/1999/xlink"><defs /><g transform="translate(43,30)"><path d="M 5,36 Q 61.5,83.0 194,54 Q 152.0,71.5 160,139 Q 182.0,100.0 156,109 Q 146.5,64.0 67,89" fill="none" stroke="black" stroke-width="2" /><path d="M 188,98 Q 227.5,42.0 171,82 Q 139.5,69.5 156,105 Q 97.5,87.5 107,138 Q 103.0,39.0 29,10" fill="none" stroke="black" stroke-width="2" /><path d="M 193,126 Q 197.0,88.0 147,104 Q 185.5,109.0 150,40 Q 161.5,3.0 123,16 Q 131.5,109.0 208,134" fill="none" stroke="black" stroke-width="2" /><path d="M 18,18 Q 12.5,66.5 71,51 Q 138.5,75.5 128,22 Q 112.5,103.0 183,98 Q 114.0,51.5 145,105" fill="none" stroke="black" stroke-width="2" /></g></svg>