<?xml version="1.0" encoding="utf-8" ?>
<svg baseProfile="full" height="210mm" version="1.1" viewBox="0 0 297 210" width="297mm" xmlns="http://www.w3.org/2000/svg" xmlns:ev="http://www.w3.org/2001/xml-events" xmlns:xlink="http://www.w3.org/1999/xlink"><defs /><g transform="translate(43,30)"><path d="M 116,136 Q 144.0,66.5 86,83 Q 59.5,156.5 121,142 Q 171.5,148.0 124,56 Q 162.5,85.0 129,42" fill="none" stroke="black" stroke-width="2" /><path d="M 36,40 Q 110.0,72.5 116,37 Q 53.5,26.5 53,78 Q 166.0,125.5 181,75 Q 134.0,63.5 143,108" fill="none" stroke="black" stroke-width="2" /><path d="M 27,113 Q 70.0,112.0 57,55 Q 100.0,107.5 191,112 Q 76.5,85.5 42,139 Q 84.0,121.0 50,27" fill="none" stroke="black" stroke-width="2" /><path d="M 117,134 Q 192.5,111.5 192,13 Q 85.0,0.0 42,51 Q 29.0,89.5 58,86 Q 55.0,133.5 142,91" fill="none" stroke="black" stroke-width="2" /></g></svg>