<?xml version="1.0" encoding="utf-8" ?>
<svg baseProfile="full" height="210mm" version="1.1" viewBox="0 0 297 210" width="297mm" xmlns="http://www.w3.org/2000/svg" xmlns:ev="http://www.w3.org/2001/xml-events" xmlns:xlink="http://www.w3.org/1999/xlink"><defs /><g transform="translate(43,30)"><path d="M 94,62 Q 26.0,61.0 36,138 Q 53.0,71.5 4,71 Q -4.5,130.5 75,102 Q 102.0,27.0 63,18" fill="none" stroke="black" stroke-width="2" /><path d="M 133,52 Q 126.5,125.0 208,110 Q 135.5,37.0 19,8 Q 2.5,54.0 48,38 Q 16.0,108.5 82,81" fill="none" stroke="black" stroke-width="2" /><path d="M 17,88 Q 146.5,101.5 180,19 Q 96.0,-4.0 76,37 Q 27.0,11.5 42,50 Q 11.5,114.0 45,114" fill="none" stroke="black" stroke-width="2" /><path d="M 168,101 Q 135.5,145.5 183,110 Q 131.0,63.0 179,116 Q 163.5,37.5 56,51 Q 68.5,119.5 137,132" fill="none" stroke="black" stroke-width="2" /></g></svg>