<?xml version="1.0" encoding="utf-8" ?>
<svg baseProfile="full" height="210mm" version="1.1" viewBox="0 0 297 210" width="297mm" xmlns="http://www.w3.org/2000/svg" xmlns:ev="http://www.w3.org/2001/xml-events" xmlns:xlink="http://www.w3.org/1999/xlink"><defs /><g transform="translate(43,30)"><path d="M 20,123 Q 30.5,176.0 127,143 Q 113.0,179.0 167,147 Q 143.0,81.0 71,63 Q 169.0,69.0 203,11" fill="none" stroke="black" stroke-width="2" /><path d="M 2,3 Q -3.5,64.5 55,62 Q 99.5,82.0 64,22 Q 16.0,6.5 24,47 Q -14.5,43.0 5,97" fill="none" stroke="black" stroke-width="2" /><path d="M 16,133 Q 146.5,147.0 189,73 Q 159.0,51.5 175,76 Q 192.0,35.5 135,69 Q 197.5,99.0 176,45" fill="none" stroke="black" stroke-width="2" /><path d="M 35,28 Q 61.5,67.0 154,40 Q 85.0,33.0 68,78 Q 22.0,154.5 74,133 Q 68.5,78.0 7,79" fill="none" stroke="black" stroke-width="2" /></g></svg>