<?xml version="1.0" encoding="utf-8" ?>
<svg baseProfile="full" height="210mm" version="1.1" viewBox="0 0 297 210" width="297mm" xmlns="http://www.w3.org/2000/svg" xmlns:ev="http://www.w3.org/2001/xml-events" xmlns:xlink="http://www.w3.org/1999/xlink"><defs /><g transform="translate(43,30)"><path d="M 1,97 Q 84.0,136.0 85,93 Q 158.5,129.0 140,73 Q 217.0,111.5 204,60 Q 137.5,22.5 17,39" fill="none" stroke="black" stroke-width="2" /><path d="M 147,52 Q 110.0,132.0 171,114 Q 64.0,89.5 9,117 Q 104.5,152.0 102,89 Q 48.5,67.0 87,137" fill="none" stroke="black" stroke-width="2" /><path d="M 204,123 Q 146.5,52.0 33,37 Q 82.0,85.5 189,76 Q 166.5,100.0 190,78 Q 203.0,28.0 118,76" fill="none" stroke="black" stroke-width="2" /><path d="M 114,51 Q 178.5,86.0 165,43 Q 135.0,83.5 181,48 Q 156.5,-21.5 36,5 Q 47.0,94.0 148,93" fill="none" stroke="black" stroke-width="2" /></g></svg>