<?xml version="1.0" encoding="utf-8" ?>
<svg baseProfile="full" height="210mm" version="1.1" viewBox="0 0 297 210" width="297mm" xmlns="http://www.w3.org/2000/svg" xmlns:ev="http://www.w3.org/2001/xml-events" xmlns:xlink="http://www.w3.org/1999/xlink"><defs /><g transform="translate(43,30)"><path d="M 65,24 Q 43.0,63.5 87,37 Q 8.5,2.0 24,61 Q 34.0,108.5 132,68 Q 126.0,-3.0 20,26" fill="none" stroke="black" stroke-width="2" /><path d="M 169,92 Q 166.0,5.0 79,2 Q 70.0,77.0 111,102 Q 39.5,91.0 22,134 Q 26.0,171.0 30,134" fill="none" stroke="black" stroke-width="2" /><path d="M 140,47 Q 103.5,3.5 19,8 Q 49.5,93.5 152,107 Q 200.0,133.0 154,65 Q 40.5,61.0 7,137" fill="none" stroke="black" stroke-width="2" /><path d="M 52,33 Q 48.0,85.0 98,83 Q 104.5,137.5 181,122 Q 184.5,72.5 112,99 Q 66.5,70.5 81,102" fill="none" stroke="black" stroke-width="2" /></g></svg>