<?xml version="1.0" encoding="utf-8" ?>
<svg baseProfile="full" height="210mm" version="1.1" viewBox="0 0 297 210" width="297mm" xmlns="http://www.w3.org/2000/svg" xmlns:ev="http://www.w3.org/2001/xml-events" xmlns:xlink="http://www.w3.org/1999/xlink"><defs /><g transform="translate(43,30)"><path d="M 73,51 Q 123.0,58.0 115,7 Q 90.5,60.0 166,13 Q 59.5,-33.5 53,20 Q 60.0,126.5 159,141" fill="none" stroke="black" stroke-width="2" /><path d="M 83,127 Q 99.5,52.0 68,25 Q 90.5,-18.5 45,6 Q 18.0,24.0 45,42 Q 106.5,59.0 108,16" fill="none" stroke="black" stroke-width="2" /><path d="M 172,116 Q 167.5,67.5 91,91 Q 74.5,142.0 118,133 Q 150.5,72.0 89,105 Q 67.0,147.5 95,140" fill="none" stroke="black" stroke-width="2" /><path d="M 14,23 Q 9.5,72.0 79,47 Q 36.0,55.0 73,143 Q 141.5,145.5 134,72 Q 176.5,5.5 129,29" fill="none" stroke="black" stroke-width="2" /></g></svg>