<?xml version="1.0" encoding="utf-8" ?>
<svg baseProfile="full" height="210mm" version="1.1" viewBox="0 0 297 210" width="297mm" xmlns="http://www.w3.org/2000/svg" xmlns:ev="http://www.w3.org/2001/xml-events" xmlns:xlink="http://www.w3.org/1999/xlink"><defs /><g transform="translate(43,30)"><path d="M 151,89 Q 102.5,82.5 112,134 Q 70.0,96.0 110,140 Q 53.0,115.0 52,146 Q 88.0,77.5 36,97" fill="none" stroke="black" stroke-width="2" /><path d="M 115,63 Q 83.5,149.5 146,142 Q 120.5,78.0 25,84 Q 60.0,99.5 45,65 Q 38.5,137.5 96,146" fill="none" stroke="black" stroke-width="2" /><path d="M 102,144 Q 116.5,108.5 65,139 Q 116.5,174.0 74,115 Q 137.0,129.0 134,77 Q 139.0,126.5 202,118" fill="none" stroke="black" stroke-width="2" /><path d="M 112,66 Q 148.0,10.5 106,33 Q 24.0,42.5 24,134 Q 162.5,114.5 207,1 Q 153.0,-12.5 139,14" fill="none" stroke="black" stroke-width="2" /></g></svg>