<?xml version="1.0" encoding="utf-8" ?>
<svg baseProfile="full" height="210mm" version="1.1" viewBox="0 0 297 210" width="297mm" xmlns="http://www.w3.org/2000/svg" xmlns:ev="http://www.w3.org/2001/xml-events" xmlns:xlink="http://www.w3.org/1999/xlink"><defs /><g transform="translate(43,30)"><path d="M 143,130 Q 108.5,81.0 2,104 Q 144.5,102.5 187,1 Q 80.0,-9.5 21,28 Q 43.0,-10.0 17,0" fill="none" stroke="black" stroke-width="2" /><path d="M 196,15 Q 58.0,15.5 2,98 Q 64.0,156.0 200,140 Q 215.5,61.5 151,63 Q 193.0,58.5 189,8" fill="none" stroke="black" stroke-width="2" /><path d="M 140,92 Q 198.5,100.0 205,56 Q 201.5,0.5 122,21 Q 40.5,47.5 1,116 Q 129.5,146.0 182,100" fill="none" stroke="black" stroke-width="2" /><path d="M 31,19 Q -4.5,29.0 2,81 Q 62.0,153.0 204,143 Q 171.5,104.0 83,121 Q 76.0,153.0 113,141" fill="none" stroke="black" stroke-width="2" /></g></svg>