<?xml version="1.0" encoding="utf-8" ?>
<svg baseProfile="full" height="210mm" version="1.1" viewBox="0 0 297 210" width="297mm" xmlns="http://www.w3.org/2000/svg" xmlns:ev="http://www.w3.org/2001/xml-events" xmlns:xlink="http://www.w3.org/1999/xlink"><defs /><g transform="translate(43,30)"><path d="M 128,30 Q 104.0,76.0 142,60 Q 60.0,71.0 42,146 Q 93.5,169.0 49,96 Q 72.5,65.0 42,88" fill="none" stroke="black" stroke-width="2" /><path d="M 28,9 Q 98.0,46.0 210,41 Q 169.5,11.0 87,23 Q 25.0,44.5 31,134 Q 99.5,124.5 82,29" fill="none" stroke="black" stroke-width="2" /><path d="M 182,45 Q 140.5,105.5 195,70 Q 177.0,28.0 115,30 Q 73.5,2.0 104,46 Q 44.0,24.5 28,47" fill="none" stroke="black" stroke-width="2" /><path d="M 40,8 Q 38.5,125.0 131,148 Q 212.0,152.5 201,65 Q 151.5,69.0 176,147 Q 166.5,68.5 57,90" fill="none" stroke="black" stroke-width="2" /></g></svg>