<?xml version="1.0" encoding="utf-8" ?>
<svg baseProfile="full" height="210mm" version="1.1" viewBox="0 0 297 210" width="297mm" xmlns="http://www.w3.org/2000/svg" xmlns:ev="http://www.w3.org/2001/xml-events" xmlns:xlink="http://www.w3.org/1999/xlink"><defs /><g transform="translate(43,30)"><path d="M 51,132 Q 61.5,76.5 24,69 Q 61.5,58.0 55,3 Q 80.0,80.5 195,68 Q 215.0,10.5 151,37" fill="none" stroke="black" stroke-width="2" /><path d="M 96,10 Q 74.0,88.5 152,67 Q 184.5,89.0 161,55 Q 190.0,-15.5 129,4 Q 47.5,-26.5 42,19" fill="none" stroke="black" stroke-width="2" /><path d="M 9,138 Q 54.5,170.0 10,112 Q 104.5,119.5 109,37 Q 45.5,48.5 30,108 Q 108.5,99.0 111,14" fill="none" stroke="black" stroke-width="2" /><path d="M 31,65 Q 102.5,82.0 112,37 Q 79.0,85.0 138,41 Q 46.5,10.5 33,58 Q 22.5,131.0 96,120" fill="none" stroke="black" stroke-width="2" /></g></svg>